<svg xmlns="http://www.w3.org/2000/svg" width="400" height="400" id="block-7824848"><g id="burst-container" transform="translate(200,200)"><circle r="197" style="fill: #f9f9f9; stroke: #f9f9f9; stroke-width: 3; opacity: 1;" id="circle-base"></circle><path display="none" d="M6.031385485800715e-15,-98.5A98.5,98.5,0,1,1,-6.031385485800715e-15,98.5A98.5,98.5,0,1,1,6.031385485800715e-15,-98.5Z" fill-rule="evenodd" id="p-type-root" style="stroke: #fff; opacity: 1;"></path><path d="M8.529667153919608e-15,-139.30003589374985A139.30003589374985,139.30003589374985,0,1,1,-106.18007334150357,-90.16813198238566L-75.08064988666214,-63.75849757166852A98.5,98.5,0,1,0,6.031385485800715e-15,-98.5Z" fill-rule="evenodd" style="fill: #0B1F65; stroke: #fff; opacity: 1;" id="p-type-data"></path><path d="M-106.18007334150357,-90.16813198238566A139.30003589374985,139.30003589374985,0,0,1,-1.9164577612154017,-139.28685217797647L-1.3551402788129998,-98.49067770517541A98.5,98.5,0,0,0,-75.08064988666214,-63.75849757166852Z" fill-rule="evenodd" style="fill: #D7A449; stroke: #fff; opacity: 1;" id="p-type-value"></path><path d="M1.0446666101440332e-14,-170.6070045455344A170.6070045455344,170.6070045455344,0,0,1,169.1731117901478,22.07279427798276L138.12926736155967,18.022361059493996A139.30003589374985,139.30003589374985,0,0,0,8.529667153919608e-15,-139.30003589374985Z" fill-rule="evenodd" style="fill: #DB3F29; stroke: #fff; opacity: 1;" id="p-type-functions"></path><path d="M169.1731117901478,22.07279427798276A170.6070045455344,170.6070045455344,0,0,1,29.754454693330644,167.99232847336373L24.2944105244734,137.16516182058896A139.30003589374985,139.30003589374985,0,0,0,138.12926736155967,18.022361059493996Z" fill-rule="evenodd" style="fill: #1DC690; stroke: #fff; opacity: 1;" id="p-type-logs"></path><path d="M29.754454693330644,167.99232847336373A170.6070045455344,170.6070045455344,0,0,1,-114.80567874504499,126.19986579980791L-93.73844416641613,103.04175893908102A139.30003589374985,139.30003589374985,0,0,0,24.2944105244734,137.16516182058896Z" fill-rule="evenodd" style="fill: #D7A449; stroke: #fff; opacity: 1;" id="p-type-tokenTransfers"></path><path d="M-114.80567874504499,126.19986579980791A170.6070045455344,170.6070045455344,0,0,1,-161.139002171224,56.04437509030024L-131.5694443269098,45.76004064146116A139.30003589374985,139.30003589374985,0,0,0,-93.73844416641613,103.04175893908102Z" fill-rule="evenodd" style="fill: #414552; stroke: #fff; opacity: 1;" id="p-type-ether"></path><path d="M-130.04350026898928,-110.43295720838677A170.6070045455344,170.6070045455344,0,0,1,-68.43496131522562,-156.27989656313306L-55.87691192980291,-127.60200121153683A139.30003589374985,139.30003589374985,0,0,0,-106.18007334150357,-90.16813198238566Z" fill-rule="evenodd" style="fill: #D7A449; stroke: #fff; opacity: 1;" id="p-type-tokenTransfers"></path><path d="M-68.43496131522562,-156.27989656313306A170.6070045455344,170.6070045455344,0,0,1,-4.693899343748942,-170.54242084874588L-3.832552765389908,-139.24730352613835A139.30003589374985,139.30003589374985,0,0,0,-55.87691192980291,-127.60200121153683Z" fill-rule="evenodd" style="fill: #414552; stroke: #fff; opacity: 1;" id="p-type-ether"></path><path d="M1.206277097160143e-14,-197A197,197,0,0,1,3.117522934992902,-196.97533107155778L2.699854058584476,-170.5856406268193A170.6070045455344,170.6070045455344,0,0,0,1.0446666101440332e-14,-170.6070045455344Z" fill-rule="evenodd" style="fill: #DB3F29; stroke: #fff; opacity: 1;" id="p-type-functions"></path><path d="M3.117522934992902,-196.97533107155778A197,197,0,0,1,5.538693601079001,-196.92212387944977L4.796649362312729,-170.53956184678972A170.6070045455344,170.6070045455344,0,0,0,2.699854058584476,-170.5856406268193Z" fill-rule="evenodd" style="fill: #DB3F29; stroke: #fff; opacity: 1;" id="p-type-functions"></path><path d="M5.538693601079001,-196.92212387944977A197,197,0,0,1,7.02863285485079,-196.87457509844106L6.086974606174727,-170.4983833945172A170.6070045455344,170.6070045455344,0,0,0,4.796649362312729,-170.53956184678972Z" fill-rule="evenodd" style="fill: #DB3F29; stroke: #fff; opacity: 1;" id="p-type-functions"></path><path d="M7.02863285485079,-196.87457509844106A197,197,0,0,1,8.382776090484017,-196.82156656478682L7.2596970485959575,-170.45247665775526A170.6070045455344,170.6070045455344,0,0,0,6.086974606174727,-170.4983833945172Z" fill-rule="evenodd" style="fill: #DB3F29; stroke: #fff; opacity: 1;" id="p-type-functions"></path><path d="M8.382776090484017,-196.82156656478682A197,197,0,0,1,9.736522637616293,-196.75924406982048L8.432075948697976,-170.3985037938872A170.6070045455344,170.6070045455344,0,0,0,7.2596970485959575,-170.45247665775526Z" fill-rule="evenodd" style="fill: #DB3F29; stroke: #fff; opacity: 1;" id="p-type-functions"></path><path d="M9.736522637616293,-196.75924406982048A197,197,0,0,1,11.08980843445207,-196.687610562758L9.604055827338428,-170.33646735700893A170.6070045455344,170.6070045455344,0,0,0,8.432075948697976,-170.3985037938872Z" fill-rule="evenodd" style="fill: #DB3F29; stroke: #fff; opacity: 1;" id="p-type-functions"></path><path d="M11.08980843445207,-196.687610562758A197,197,0,0,1,12.44256944099922,-196.60666943342974L10.775581224257266,-170.26637028279964A170.6070045455344,170.6070045455344,0,0,0,9.604055827338428,-170.33646735700893Z" fill-rule="evenodd" style="fill: #DB3F29; stroke: #fff; opacity: 1;" id="p-type-functions"></path><path d="M12.44256944099922,-196.60666943342974A197,197,0,0,1,13.794741642099796,-196.5164245121199L11.946596700701486,-170.18821588838279A170.6070045455344,170.6070045455344,0,0,0,10.775581224257266,-170.26637028279964Z" fill-rule="evenodd" style="fill: #DB3F29; stroke: #fff; opacity: 1;" id="p-type-functions"></path><path d="M13.794741642099796,-196.5164245121199A197,197,0,0,1,15.146261050459218,-196.41688006938543L13.11704684204846,-170.10200787216917A170.6070045455344,170.6070045455344,0,0,0,11.946596700701486,-170.18821588838279Z" fill-rule="evenodd" style="fill: #DB3F29; stroke: #fff; opacity: 1;" id="p-type-functions"></path><path d="M15.146261050459218,-196.41688006938543A197,197,0,0,1,16.497063709674133,-196.3080408158539L14.28687626042815,-170.00775031368192A170.6070045455344,170.6070045455344,0,0,0,13.11704684204846,-170.10200787216917Z" fill-rule="evenodd" style="fill: #DB3F29; stroke: #fff; opacity: 1;" id="p-type-functions"></path><path d="M16.497063709674133,-196.3080408158539A197,197,0,0,1,17.847085697259267,-196.1899119020004L15.456029597344436,-169.90544767336334A170.6070045455344,170.6070045455344,0,0,0,14.28687626042815,-170.00775031368192Z" fill-rule="evenodd" style="fill: #DB3F29; stroke: #fff; opacity: 1;" id="p-type-functions"></path><path d="M17.847085697259267,-196.1899119020004A197,197,0,0,1,19.196263127671994,-196.06249891790418L16.624451526294468,-169.79510479236404A170.6070045455344,170.6070045455344,0,0,0,15.456029597344436,-169.90544767336334Z" fill-rule="evenodd" style="fill: #DB3F29; stroke: #fff; opacity: 1;" id="p-type-functions"></path><path d="M19.196263127671994,-196.06249891790418A197,197,0,0,1,20.544532155335833,-195.92580789298376L17.792086755387096,-169.6767268923136A170.6070045455344,170.6070045455344,0,0,0,16.624451526294468,-169.79510479236404Z" fill-rule="evenodd" style="fill: #DB3F29; stroke: #fff; opacity: 1;" id="p-type-functions"></path><path d="M20.544532155335833,-195.92580789298376A197,197,0,0,1,21.891828977661604,-195.7798452957117L18.958880029959264,-169.55031957507367A170.6070045455344,170.6070045455344,0,0,0,17.792086755387096,-169.6767268923136Z" fill-rule="evenodd" style="fill: #DB3F29; stroke: #fff; opacity: 1;" id="p-type-functions"></path><path d="M21.891828977661604,-195.7798452957117A197,197,0,0,1,23.23808983806655,-195.62461803330876L20.124776135190647,-169.4158888224728A170.6070045455344,170.6070045455344,0,0,0,18.958880029959264,-169.55031957507367Z" fill-rule="evenodd" style="fill: #DB3F29; stroke: #fff; opacity: 1;" id="p-type-functions"></path><path d="M23.23808983806655,-195.62461803330876A197,197,0,0,1,24.58325102899174,-195.46013345141657L21.289719898716786,-169.27344099602328A170.6070045455344,170.6070045455344,0,0,0,20.124776135190647,-169.4158888224728Z" fill-rule="evenodd" style="fill: #DB3F29; stroke: #fff; opacity: 1;" id="p-type-functions"></path><path d="M24.58325102899174,-195.46013345141657A197,197,0,0,1,25.92724889491645,-195.28639933375047L22.45365619323966,-169.12298283662037A170.6070045455344,170.6070045455344,0,0,0,21.289719898716786,-169.27344099602328Z" fill-rule="evenodd" style="fill: #DB3F29; stroke: #fff; opacity: 1;" id="p-type-functions"></path><path d="M25.92724889491645,-195.28639933375047A197,197,0,0,1,27.270019835370793,-195.10342390173085L23.61652993913664,-168.96452146422294A170.6070045455344,170.6070045455344,0,0,0,22.45365619323966,-169.12298283662037Z" fill-rule="evenodd" style="fill: #DB3F29; stroke: #fff; opacity: 1;" id="p-type-functions"></path><path d="M27.270019835370793,-195.10342390173085A197,197,0,0,1,28.611500307945256,-194.91121581409433L24.778286107066883,-168.79806437751688A170.6070045455344,170.6070045455344,0,0,0,23.61652993913664,-168.96452146422294Z" fill-rule="evenodd" style="fill: #DB3F29; stroke: #fff; opacity: 1;" id="p-type-functions"></path><path d="M28.611500307945256,-194.91121581409433A197,197,0,0,1,29.95162683129755,-194.7097841664838L25.938869720575283,-168.62361945356002A170.6070045455344,170.6070045455344,0,0,0,24.778286107066883,-168.79806437751688Z" fill-rule="evenodd" style="fill: #DB3F29; stroke: #fff; opacity: 1;" id="p-type-functions"></path><path d="M29.95162683129755,-194.7097841664838A197,197,0,0,1,31.29033598815688,-194.49913849101813L27.098225858694313,-168.44119494740943A170.6070045455344,170.6070045455344,0,0,0,25.938869720575283,-168.62361945356002Z" fill-rule="evenodd" style="fill: #DB3F29; stroke: #fff; opacity: 1;" id="p-type-functions"></path><path d="M31.29033598815688,-194.49913849101813A197,197,0,0,1,32.627564428324874,-194.27928875584115L28.256299658542837,-168.2507994917309A170.6070045455344,170.6070045455344,0,0,0,27.098225858694313,-168.44119494740943Z" fill-rule="evenodd" style="fill: #DB3F29; stroke: #fff; opacity: 1;" id="p-type-functions"></path><path d="M32.627564428324874,-194.27928875584115A197,197,0,0,1,33.96324887167328,-194.05024536464978L29.413036317922234,-168.05244209639022A170.6070045455344,170.6070045455344,0,0,0,28.256299658542837,-168.2507994917309Z" fill-rule="evenodd" style="fill: #DB3F29; stroke: #fff; opacity: 1;" id="p-type-functions"></path><path d="M33.96324887167328,-194.05024536464978A197,197,0,0,1,35.29732611113878,-193.81201915620176L30.56838109790997,-167.84613214802698A170.6070045455344,170.6070045455344,0,0,0,29.413036317922234,-168.05244209639022Z" fill-rule="evenodd" style="fill: #DB3F29; stroke: #fff; opacity: 1;" id="p-type-functions"></path><path d="M35.29732611113878,-193.81201915620176A197,197,0,0,1,36.6297330157139,-193.56462140380282L31.722279325449815,-167.63187940961032A170.6070045455344,170.6070045455344,0,0,0,30.56838109790997,-167.84613214802698Z" fill-rule="evenodd" style="fill: #DB3F29; stroke: #fff; opacity: 1;" id="p-type-functions"></path><path d="M36.6297330157139,-193.56462140380282A197,197,0,0,1,37.9604065334344,-193.3080638147731L32.87467639593897,-167.4096940199769A170.6070045455344,170.6070045455344,0,0,0,31.722279325449815,-167.63187940961032Z" fill-rule="evenodd" style="fill: #DB3F29; stroke: #fff; opacity: 1;" id="p-type-functions"></path><path d="M37.9604065334344,-193.3080638147731A197,197,0,0,1,39.289283694363284,-193.04235852989322L34.025517775812325,-167.17958649335114A170.6070045455344,170.6070045455344,0,0,0,32.87467639593897,-167.4096940199769Z" fill-rule="evenodd" style="fill: #DB3F29; stroke: #fff; opacity: 1;" id="p-type-functions"></path><path d="M39.289283694363284,-193.04235852989322A197,197,0,0,1,40.61630161357032,-192.76751812282973L35.174749005122784,-166.9415677188477A170.6070045455344,170.6070045455344,0,0,0,34.025517775812325,-167.17958649335114Z" fill-rule="evenodd" style="fill: #DB3F29; stroke: #fff; opacity: 1;" id="p-type-functions"></path><path d="M40.61630161357032,-192.76751812282973A197,197,0,0,1,41.94139749410816,-192.48355559954004L36.32231570011866,-166.6956489599561A170.6070045455344,170.6070045455344,0,0,0,35.174749005122784,-166.9415677188477Z" fill-rule="evenodd" style="fill: #DB3F29; stroke: #fff; opacity: 1;" id="p-type-functions"></path><path d="M41.94139749410816,-192.48355559954004A197,197,0,0,1,43.264508629983894,-192.19048439765703L37.46816355581713,-166.44184185400778A170.6070045455344,170.6070045455344,0,0,0,36.32231570011866,-166.6956489599561Z" fill-rule="evenodd" style="fill: #DB3F29; stroke: #fff; opacity: 1;" id="p-type-functions"></path><path d="M43.264508629983894,-192.19048439765703A197,197,0,0,1,44.585572409126264,-191.88831838585318L38.612238348573904,-166.1801584116254A170.6070045455344,170.6070045455344,0,0,0,37.46816355581713,-166.44184185400778Z" fill-rule="evenodd" style="fill: #DB3F29; stroke: #fff; opacity: 1;" id="p-type-functions"></path><path d="M44.585572409126264,-191.88831838585318A197,197,0,0,1,45.90452631634894,-191.57707186318416L39.75448593864948,-165.91061101615446A170.6070045455344,170.6070045455344,0,0,0,38.612238348573904,-166.1801584116254Z" fill-rule="evenodd" style="fill: #DB3F29; stroke: #fff; opacity: 1;" id="p-type-functions"></path><path d="M45.90452631634894,-191.57707186318416A197,197,0,0,1,47.221307936308435,-191.2567595584123L40.89485227277083,-165.6332124230773A170.6070045455344,170.6070045455344,0,0,0,39.75448593864948,-165.91061101615446Z" fill-rule="evenodd" style="fill: #DB3F29; stroke: #fff; opacity: 1;" id="p-type-functions"></path><path d="M47.221307936308435,-191.2567595584123A197,197,0,0,1,48.535854956458046,-190.92739662930953L42.033283386689526,-165.34797575940945A170.6070045455344,170.6070045455344,0,0,0,40.89485227277083,-165.6332124230773Z" fill-rule="evenodd" style="fill: #DB3F29; stroke: #fff; opacity: 1;" id="p-type-functions"></path><path d="M48.535854956458046,-190.92739662930953A197,197,0,0,1,49.848105169996494,-190.58899866194002L43.16972540773538,-165.05491452307842A170.6070045455344,170.6070045455344,0,0,0,42.033283386689526,-165.34797575940945Z" fill-rule="evenodd" style="fill: #DB3F29; stroke: #fff; opacity: 1;" id="p-type-functions"></path><path d="M49.848105169996494,-190.58899866194002A197,197,0,0,1,51.15799647881151,-190.24158166992282L44.304124557365625,-164.75404258228517A170.6070045455344,170.6070045455344,0,0,0,43.16972540773538,-165.05491452307842Z" fill-rule="evenodd" style="fill: #DB3F29; stroke: #fff; opacity: 1;" id="p-type-functions"></path><path d="M51.15799647881151,-190.24158166992282A197,197,0,0,1,52.46546689641874,-189.88516209367384L45.436427153710135,-164.44537417484747A170.6070045455344,170.6070045455344,0,0,0,44.304124557365625,-164.75404258228517Z" fill-rule="evenodd" style="fill: #DB3F29; stroke: #fff; opacity: 1;" id="p-type-functions"></path><path d="M52.46546689641874,-189.88516209367384A197,197,0,0,1,53.77045455089471,-189.51975679962806L46.5665796141114,-164.1289239075265A170.6070045455344,170.6070045455344,0,0,0,45.436427153710135,-164.44537417484747Z" fill-rule="evenodd" style="fill: #DB3F29; stroke: #fff; opacity: 1;" id="p-type-functions"></path><path d="M53.77045455089471,-189.51975679962806A197,197,0,0,1,55.07289768780509,-189.14538307944116L47.69452845766048,-163.80470675533536A170.6070045455344,170.6070045455344,0,0,0,46.5665796141114,-164.1289239075265Z" fill-rule="evenodd" style="fill: #DB3F29; stroke: #fff; opacity: 1;" id="p-type-functions"></path><path d="M55.07289768780509,-189.14538307944116A197,197,0,0,1,56.37273467312665,-188.7620586491715L48.82022030772753,-163.47273806083064A170.6070045455344,170.6070045455344,0,0,0,47.69452845766048,-163.80470675533536Z" fill-rule="evenodd" style="fill: #DB3F29; stroke: #fff; opacity: 1;" id="p-type-functions"></path><path d="M56.37273467312665,-188.7620586491715A197,197,0,0,1,57.669903996164244,-188.36980164844152L49.94360189448795,-163.13303353338617A170.6070045455344,170.6070045455344,0,0,0,48.82022030772753,-163.47273806083064Z" fill-rule="evenodd" style="fill: #DB3F29; stroke: #fff; opacity: 1;" id="p-type-functions"></path><path d="M57.669903996164244,-188.36980164844152A197,197,0,0,1,58.96434427246131,-187.9686306395795L51.06462005744296,-162.78560924844982A170.6070045455344,170.6070045455344,0,0,0,49.94360189448795,-163.13303353338617Z" fill-rule="evenodd" style="fill: #DB3F29; stroke: #fff; opacity: 1;" id="p-type-functions"></path><path d="M58.96434427246131,-187.9686306395795A197,197,0,0,1,60.25599424670498,-187.55856460674104L52.18322174793549,-162.43048164678265A170.6070045455344,170.6070045455344,0,0,0,51.06462005744296,-162.78560924844982Z" fill-rule="evenodd" style="fill: #DB3F29; stroke: #fff; opacity: 1;" id="p-type-functions"></path><path d="M60.25599424670498,-187.55856460674104A197,197,0,0,1,61.544792795624474,-187.1396229550109L53.29935403166029,-162.06766753368092A170.6070045455344,170.6070045455344,0,0,0,52.18322174793549,-162.43048164678265Z" fill-rule="evenodd" style="fill: #DB3F29; stroke: #fff; opacity: 1;" id="p-type-functions"></path><path d="M61.544792795624474,-187.1396229550109A197,197,0,0,1,62.83067893088396,-186.71182550948447L54.4129640911692,-161.69718407818092A170.6070045455344,170.6070045455344,0,0,0,53.29935403166029,-162.06766753368092Z" fill-rule="evenodd" style="fill: #DB3F29; stroke: #fff; opacity: 1;" id="p-type-functions"></path><path d="M62.83067893088396,-186.71182550948447A197,197,0,0,1,64.1135918019682,-186.27519251432972L55.52399922837018,-161.31904881224645A170.6070045455344,170.6070045455344,0,0,0,54.4129640911692,-161.69718407818092Z" fill-rule="evenodd" style="fill: #DB3F29; stroke: #fff; opacity: 1;" id="p-type-functions"></path><path d="M64.1135918019682,-186.27519251432972A197,197,0,0,1,65.39347069906249,-185.82974463182921L56.632406867021444,-160.93327962993902A170.6070045455344,170.6070045455344,0,0,0,55.52399922837018,-161.31904881224645Z" fill-rule="evenodd" style="fill: #DB3F29; stroke: #fff; opacity: 1;" id="p-type-functions"></path><path d="M65.39347069906249,-185.82974463182921A197,197,0,0,1,66.67025505592528,-185.37550294140235L57.738134555219204,-160.53989478657135A170.6070045455344,170.6070045455344,0,0,0,56.632406867021444,-160.93327962993902Z" fill-rule="evenodd" style="fill: #DB3F29; stroke: #fff; opacity: 1;" id="p-type-functions"></path><path d="M66.67025505592528,-185.37550294140235A197,197,0,0,1,67.94388445275455,-184.91248893860777L58.84112996787999,-160.13891289784334A170.6070045455344,170.6070045455344,0,0,0,57.738134555219204,-160.53989478657135Z" fill-rule="evenodd" style="fill: #DB3F29; stroke: #fff; opacity: 1;" id="p-type-functions"></path><path d="M67.94388445275455,-184.91248893860777A197,197,0,0,1,69.21429861904662,-184.44072453412625L59.94134090921656,-159.73035293896112A170.6070045455344,170.6070045455344,0,0,0,58.84112996787999,-160.13891289784334Z" fill-rule="evenodd" style="fill: #DB3F29; stroke: #fff; opacity: 1;" id="p-type-functions"></path><path d="M69.21429861904662,-184.44072453412625A197,197,0,0,1,70.48143743644872,-183.96023205272374L61.038715315208144,-159.3142342437391A170.6070045455344,170.6070045455344,0,0,0,59.94134090921656,-159.73035293896112Z" fill-rule="evenodd" style="fill: #DB3F29; stroke: #fff; opacity: 1;" id="p-type-functions"></path><path d="M70.48143743644872,-183.96023205272374A197,197,0,0,1,71.74524094160341,-183.471034232195L62.13320125606394,-158.89057650368522A170.6070045455344,170.6070045455344,0,0,0,61.038715315208144,-159.3142342437391Z" fill-rule="evenodd" style="fill: #DB3F29; stroke: #fff; opacity: 1;" id="p-type-functions"></path><path d="M71.74524094160341,-183.471034232195A197,197,0,0,1,73.00564932898669,-182.97315422228758L63.22474693868082,-158.45939976706896A170.6070045455344,170.6070045455344,0,0,0,62.13320125606394,-158.89057650368522Z" fill-rule="evenodd" style="fill: #DB3F29; stroke: #fff; opacity: 1;" id="p-type-functions"></path><path d="M73.00564932898669,-182.97315422228758A197,197,0,0,1,74.26260295373753,-182.46661558360623L64.31330070909398,-158.02072443797255A170.6070045455344,170.6070045455344,0,0,0,63.22474693868082,-158.45939976706896Z" fill-rule="evenodd" style="fill: #DB3F29; stroke: #fff; opacity: 1;" id="p-type-functions"></path><path d="M74.26260295373753,-182.46661558360623A197,197,0,0,1,75.5160423344809,-181.9514422864982L65.39881105492158,-157.57457127532558A170.6070045455344,170.6070045455344,0,0,0,64.31330070909398,-158.02072443797255Z" fill-rule="evenodd" style="fill: #DB3F29; stroke: #fff; opacity: 1;" id="p-type-functions"></path><path d="M75.5160423344809,-181.9514422864982A197,197,0,0,1,76.76590815614216,-181.42765870991872L66.48122660780214,-157.1209613919227A170.6070045455344,170.6070045455344,0,0,0,65.39881105492158,-157.57457127532558Z" fill-rule="evenodd" style="fill: #DB3F29; stroke: #fff; opacity: 1;" id="p-type-functions"></path><path d="M76.76590815614216,-181.42765870991872A197,197,0,0,1,78.01214127275426,-180.89528964027733L67.56049614582568,-156.65991625342417A170.6070045455344,170.6070045455344,0,0,0,66.48122660780214,-157.1209613919227Z" fill-rule="evenodd" style="fill: #DB3F29; stroke: #fff; opacity: 1;" id="p-type-functions"></path><path d="M78.01214127275426,-180.89528964027733A197,197,0,0,1,79.2546827102563,-180.35436027026515L68.63656859595727,-156.19145767734048A170.6070045455344,170.6070045455344,0,0,0,67.56049614582568,-156.65991625342417Z" fill-rule="evenodd" style="fill: #DB3F29; stroke: #fff; opacity: 1;" id="p-type-functions"></path><path d="M79.2546827102563,-180.35436027026515A197,197,0,0,1,80.49347366928465,-179.8048961976625L69.70939303645432,-155.7156078319997A170.6070045455344,170.6070045455344,0,0,0,68.63656859595727,-156.19145767734048Z" fill-rule="evenodd" style="fill: #DB3F29; stroke: #fff; opacity: 1;" id="p-type-functions"></path><path d="M80.49347366928465,-179.8048961976625A197,197,0,0,1,81.72845552795512,-179.2469234241276L70.77891869927586,-155.23238923549846A170.6070045455344,170.6070045455344,0,0,0,69.70939303645432,-155.7156078319997Z" fill-rule="evenodd" style="fill: #DB3F29; stroke: #fff; opacity: 1;" id="p-type-functions"></path><path d="M81.72845552795512,-179.2469234241276A197,197,0,0,1,82.95956984463737,-178.68046835396623L71.84509497248543,-154.7418247546362A170.6070045455344,170.6070045455344,0,0,0,70.77891869927586,-155.23238923549846Z" fill-rule="evenodd" style="fill: #DB3F29; stroke: #fff; opacity: 1;" id="p-type-functions"></path><path d="M82.95956984463737,-178.68046835396623A197,197,0,0,1,84.18675836072016,-178.10555779288222L72.90787140264564,-154.2439376038335A170.6070045455344,170.6070045455344,0,0,0,71.84509497248543,-154.7418247546362Z" fill-rule="evenodd" style="fill: #DB3F29; stroke: #fff; opacity: 1;" id="p-type-functions"></path><path d="M84.18675836072016,-178.10555779288222A197,197,0,0,1,85.40996300336855,-177.52221894670882L73.9671976972062,-153.738751344033A170.6070045455344,170.6070045455344,0,0,0,72.90787140264564,-154.2439376038335Z" fill-rule="evenodd" style="fill: #DB3F29; stroke: #fff; opacity: 1;" id="p-type-functions"></path><path d="M85.40996300336855,-177.52221894670882A197,197,0,0,1,86.62912588827172,-176.93047942012132L75.02302372688348,-153.22628988158488A170.6070045455344,170.6070045455344,0,0,0,73.9671976972062,-153.738751344033Z" fill-rule="evenodd" style="fill: #DB3F29; stroke: #fff; opacity: 1;" id="p-type-functions"></path><path d="M86.62912588827172,-176.93047942012132A197,197,0,0,1,87.84418932238248,-176.33036721533085L76.07529952803296,-152.70657746711524A170.6070045455344,170.6070045455344,0,0,0,75.02302372688348,-153.22628988158488Z" fill-rule="evenodd" style="fill: #DB3F29; stroke: #fff; opacity: 1;" id="p-type-functions"></path><path d="M87.84418932238248,-176.33036721533085A197,197,0,0,1,89.0550958066471,-175.7219107307592L77.12397530501342,-152.1796386943788A170.6070045455344,170.6070045455344,0,0,0,76.07529952803296,-152.70657746711524Z" fill-rule="evenodd" style="fill: #DB3F29; stroke: #fff; opacity: 1;" id="p-type-functions"></path><path d="M89.0550958066471,-175.7219107307592A197,197,0,0,1,90.26178803872656,-175.10513875969488L78.16900143254358,-151.6454984990949A170.6070045455344,170.6070045455344,0,0,0,77.12397530501342,-152.1796386943788Z" fill-rule="evenodd" style="fill: #DB3F29; stroke: #fff; opacity: 1;" id="p-type-functions"></path><path d="M90.26178803872656,-175.10513875969488A197,197,0,0,1,91.46420891570796,-174.4800804889307L79.21032845805023,-151.10418215776755A170.6070045455344,170.6070045455344,0,0,0,78.16900143254358,-151.6454984990949Z" fill-rule="evenodd" style="fill: #DB3F29; stroke: #fff; opacity: 1;" id="p-type-functions"></path><path d="M91.46420891570796,-174.4800804889307A197,197,0,0,1,92.6623015368069,-173.84676549738242L80.24790710400859,-150.5557152864892A170.6070045455344,170.6070045455344,0,0,0,79.21032845805023,-151.10418215776755Z" fill-rule="evenodd" style="fill: #DB3F29; stroke: #fff; opacity: 1;" id="p-type-functions"></path><path d="M92.6623015368069,-173.84676549738242A197,197,0,0,1,93.85600920606,-173.20522375468929L81.28168827027409,-150.00012383972884A170.6070045455344,170.6070045455344,0,0,0,80.24790710400859,-150.5557152864892Z" fill-rule="evenodd" style="fill: #DB3F29; stroke: #fff; opacity: 1;" id="p-type-functions"></path><path d="M93.85600920606,-173.20522375468929A197,197,0,0,1,95.045275435008,-172.55548561979555L82.31162303640598,-149.43743410910332A170.6070045455344,170.6070045455344,0,0,0,81.28168827027409,-150.00012383972884Z" fill-rule="evenodd" style="fill: #DB3F29; stroke: #fff; opacity: 1;" id="p-type-functions"></path><path d="M95.045275435008,-172.55548561979555A197,197,0,0,1,96.23004394536883,-171.89758183951392L83.33766266398231,-148.86767272213362A170.6070045455344,170.6070045455344,0,0,0,82.31162303640598,-149.43743410910332Z" fill-rule="evenodd" style="fill: #DB3F29; stroke: #fff; opacity: 1;" id="p-type-functions"></path><path d="M96.23004394536883,-171.89758183951392A197,197,0,0,1,97.41025867170076,-171.23154354707063L84.35975859890627,-148.29086664098452A170.6070045455344,170.6070045455344,0,0,0,83.33766266398231,-148.86767272213362Z" fill-rule="evenodd" style="fill: #DB3F29; stroke: #fff; opacity: 1;" id="p-type-functions"></path><path d="M97.41025867170076,-171.23154354707063A197,197,0,0,1,98.58586376405553,-170.55740226063213L85.37786247370384,-147.70704316118886A170.6070045455344,170.6070045455344,0,0,0,84.35975859890627,-148.29086664098452Z" fill-rule="evenodd" style="fill: #DB3F29; stroke: #fff; opacity: 1;" id="p-type-functions"></path><path d="M98.58586376405553,-170.55740226063213A197,197,0,0,1,99.75680359062135,-169.8751898818135L86.39192610981279,-147.1162299103557A170.6070045455344,170.6070045455344,0,0,0,85.37786247370384,-147.70704316118886Z" fill-rule="evenodd" style="fill: #DB3F29; stroke: #fff; opacity: 1;" id="p-type-functions"></path><path d="M99.75680359062135,-169.8751898818135A197,197,0,0,1,100.92302274035552,-169.18493869416886L87.40190151986248,-146.51845484686308A170.6070045455344,170.6070045455344,0,0,0,86.39192610981279,-147.1162299103557Z" fill-rule="evenodd" style="fill: #DB3F29; stroke: #fff; opacity: 1;" id="p-type-functions"></path><path d="M100.92302274035552,-169.18493869416886A197,197,0,0,1,102.0844660256064,-168.48668136166376L88.4077409099446,-145.9137462585349A170.6070045455344,170.6070045455344,0,0,0,87.40190151986248,-146.51845484686308Z" fill-rule="evenodd" style="fill: #DB3F29; stroke: #fff; opacity: 1;" id="p-type-functions"></path><path d="M102.0844660256064,-168.48668136166376A197,197,0,0,1,103.2410784847251,-167.78045092712927L89.40939668187498,-145.3021327613023A170.6070045455344,170.6070045455344,0,0,0,88.4077409099446,-145.9137462585349Z" fill-rule="evenodd" style="fill: #DB3F29; stroke: #fff; opacity: 1;" id="p-type-functions"></path><path d="M103.2410784847251,-167.78045092712927A197,197,0,0,1,104.39280538466647,-167.06628081069846L90.4068214354461,-144.68364329784953A170.6070045455344,170.6070045455344,0,0,0,89.40939668187498,-145.3021327613023Z" fill-rule="evenodd" style="fill: #DB3F29; stroke: #fff; opacity: 1;" id="p-type-functions"></path><path d="M104.39280538466647,-167.06628081069846A197,197,0,0,1,105.5395922235791,-166.34420480822482L91.39996797067009,-144.05830713624425A170.6070045455344,170.6070045455344,0,0,0,90.4068214354461,-144.68364329784953Z" fill-rule="evenodd" style="fill: #DB3F29; stroke: #fff; opacity: 1;" id="p-type-functions"></path><path d="M105.5395922235791,-166.34420480822482A197,197,0,0,1,106.68138473338429,-165.6142570896831L92.38878929001217,-143.42615386855263A170.6070045455344,170.6070045455344,0,0,0,91.39996797067009,-144.05830713624425Z" fill-rule="evenodd" style="fill: #DB3F29; stroke: #fff; opacity: 1;" id="p-type-functions"></path><path d="M106.68138473338429,-165.6142570896831A197,197,0,0,1,107.8181288823443,-164.87647219755218L93.37323860061487,-142.7872134094389A170.6070045455344,170.6070045455344,0,0,0,92.38878929001217,-143.42615386855263Z" fill-rule="evenodd" style="fill: #DB3F29; stroke: #fff; opacity: 1;" id="p-type-functions"></path><path d="M107.8181288823443,-164.87647219755218A197,197,0,0,1,108.94977087761923,-164.13088504518055L94.35326931651227,-142.14151599474977A170.6070045455344,170.6070045455344,0,0,0,93.37323860061487,-142.7872134094389Z" fill-rule="evenodd" style="fill: #DB3F29; stroke: #fff; opacity: 1;" id="p-type-functions"></path><path d="M108.94977087761923,-164.13088504518055A197,197,0,0,1,110.07625716781251,-163.37753091513412L95.32883506083454,-141.48909218008362A170.6070045455344,170.6070045455344,0,0,0,94.35326931651227,-142.14151599474977Z" fill-rule="evenodd" style="fill: #DB3F29; stroke: #fff; opacity: 1;" id="p-type-functions"></path><path d="M110.07625716781251,-163.37753091513412A197,197,0,0,1,111.1975344455051,-162.61644545752654L96.29988966800258,-140.82997283934455A170.6070045455344,170.6070045455344,0,0,0,95.32883506083454,-141.48909218008362Z" fill-rule="evenodd" style="fill: #DB3F29; stroke: #fff; opacity: 1;" id="p-type-functions"></path><path d="M111.1975344455051,-162.61644545752654A197,197,0,0,1,112.3135496497781,-161.84766468833226L97.26638718591268,-140.16418916328135A170.6070045455344,170.6070045455344,0,0,0,96.29988966800258,-140.82997283934455Z" fill-rule="evenodd" style="fill: #DB3F29; stroke: #fff; opacity: 1;" id="p-type-functions"></path><path d="M112.3135496497781,-161.84766468833226A197,197,0,0,1,113.42424996872364,-161.07122498768206L98.22828187811099,-139.4917726580115A170.6070045455344,170.6070045455344,0,0,0,97.26638718591268,-140.16418916328135Z" fill-rule="evenodd" style="fill: #DB3F29; stroke: #fff; opacity: 1;" id="p-type-functions"></path><path d="M113.42424996872364,-161.07122498768206A197,197,0,0,1,114.52958284194409,-160.28716309814166L99.18552822595794,-138.8127551435303A170.6070045455344,170.6070045455344,0,0,0,98.22828187811099,-139.4917726580115Z" fill-rule="evenodd" style="fill: #DB3F29; stroke: #fff; opacity: 1;" id="p-type-functions"></path><path d="M114.52958284194409,-160.28716309814166A197,197,0,0,1,115.62949596303932,-159.49551612297282L100.13808093078225,-138.12716875220497A170.6070045455344,170.6070045455344,0,0,0,99.18552822595794,-138.8127551435303Z" fill-rule="evenodd" style="fill: #DB3F29; stroke: #fff; opacity: 1;" id="p-type-functions"></path><path d="M115.62949596303932,-159.49551612297282A197,197,0,0,1,116.72393728208188,-158.69632152437754L101.08589491602444,-137.43504592725415A170.6070045455344,170.6070045455344,0,0,0,100.13808093078225,-138.12716875220497Z" fill-rule="evenodd" style="fill: #DB3F29; stroke: #fff; opacity: 1;" id="p-type-functions"></path><path d="M116.72393728208188,-158.69632152437754A197,197,0,0,1,117.81285500808016,-157.88961712172554L102.02892532937015,-136.73641942121276A170.6070045455344,170.6070045455344,0,0,0,101.08589491602444,-137.43504592725415Z" fill-rule="evenodd" style="fill: #DB3F29; stroke: #fff; opacity: 1;" id="p-type-functions"></path><path d="M117.81285500808016,-157.88961712172554A197,197,0,0,1,118.89619761142922,-157.07544108976415L102.9671275448724,-136.0313222943818A170.6070045455344,170.6070045455344,0,0,0,102.02892532937015,-136.73641942121276Z" fill-rule="evenodd" style="fill: #DB3F29; stroke: #fff; opacity: 1;" id="p-type-functions"></path><path d="M118.89619761142922,-157.07544108976415A197,197,0,0,1,119.97391382634922,-156.2538319568123L103.90045716506353,-135.31978791326418A170.6070045455344,170.6070045455344,0,0,0,102.9671275448724,-136.0313222943818Z" fill-rule="evenodd" style="fill: #DB3F29; stroke: #fff; opacity: 1;" id="p-type-functions"></path><path d="M119.97391382634922,-156.2538319568123A197,197,0,0,1,121.04595265331149,-155.42482860293677L104.82887002305613,-134.6018499489855A170.6070045455344,170.6070045455344,0,0,0,103.90045716506353,-135.31978791326418Z" fill-rule="evenodd" style="fill: #DB3F29; stroke: #fff; opacity: 1;" id="p-type-functions"></path><path d="M121.04595265331149,-155.42482860293677A197,197,0,0,1,122.11226336145184,-154.5884702581128L105.75232218463304,-133.8775423757008A170.6070045455344,170.6070045455344,0,0,0,104.82887002305613,-134.6018499489855Z" fill-rule="evenodd" style="fill: #DB3F29; stroke: #fff; opacity: 1;" id="p-type-functions"></path><path d="M122.11226336145184,-154.5884702581128A197,197,0,0,1,123.17279549097131,-153.74479650036733L106.67076995032652,-133.14689946898696A170.6070045455344,170.6070045455344,0,0,0,105.75232218463304,-133.8775423757008Z" fill-rule="evenodd" style="fill: #DB3F29; stroke: #fff; opacity: 1;" id="p-type-functions"></path><path d="M123.17279549097131,-153.74479650036733A197,197,0,0,1,124.22749885552396,-152.8938472539062L107.58416985748602,-132.40995580422037A170.6070045455344,170.6070045455344,0,0,0,106.67076995032652,-133.14689946898696Z" fill-rule="evenodd" style="fill: #DB3F29; stroke: #fff; opacity: 1;" id="p-type-functions"></path><path d="M124.22749885552396,-152.8938472539062A197,197,0,0,1,125.27632354459182,-152.03566278722485L108.4924786823351,-131.66674625494116A170.6070045455344,170.6070045455344,0,0,0,107.58416985748602,-132.40995580422037Z" fill-rule="evenodd" style="fill: #DB3F29; stroke: #fff; opacity: 1;" id="p-type-functions"></path><path d="M125.27632354459182,-152.03566278722485A197,197,0,0,1,126.31921992584678,-151.1702837112028L109.39565344201677,-130.91730599120257A170.6070045455344,170.6070045455344,0,0,0,108.4924786823351,-131.66674625494116Z" fill-rule="evenodd" style="fill: #DB3F29; stroke: #fff; opacity: 1;" id="p-type-functions"></path><path d="M195.34428326337698,25.487467436321154A197,197,0,0,1,195.1643317392819,26.8306469687096L169.0172691988317,23.236021874874456A170.6070045455344,170.6070045455344,0,0,0,169.1731117901478,22.07279427798276Z" fill-rule="evenodd" style="fill: #1DC690; stroke: #fff; opacity: 1;" id="p-type-logs"></path><path d="M195.1643317392819,26.8306469687096A197,197,0,0,1,194.9751446772981,28.1725568251565L168.85342839708642,24.3981499001462A170.6070045455344,170.6070045455344,0,0,0,169.0172691988317,23.236021874874456Z" fill-rule="evenodd" style="fill: #1DC690; stroke: #fff; opacity: 1;" id="p-type-logs"></path><path d="M194.9751446772981,28.1725568251565A197,197,0,0,1,194.77673103010804,29.513133504000393L168.6815971381623,25.559123359745985A170.6070045455344,170.6070045455344,0,0,0,168.85342839708642,24.3981499001462Z" fill-rule="evenodd" style="fill: #1DC690; stroke: #fff; opacity: 1;" id="p-type-logs"></path><path d="M194.77673103010804,29.513133504000393A197,197,0,0,1,194.5691001870132,30.852313566668265L168.501783553433,26.718887314257998A170.6070045455344,170.6070045455344,0,0,0,168.6815971381623,25.559123359745985Z" fill-rule="evenodd" style="fill: #1DC690; stroke: #fff; opacity: 1;" id="p-type-logs"></path><path d="M194.5691001870132,30.852313566668265A197,197,0,0,1,194.3522619734899,32.190033640677555L168.3139961520106,27.877386881502446A170.6070045455344,170.6070045455344,0,0,0,168.501783553433,26.718887314257998Z" fill-rule="evenodd" style="fill: #1DC690; stroke: #fff; opacity: 1;" id="p-type-logs"></path><path d="M194.3522619734899,32.190033640677555A197,197,0,0,1,194.1262266507243,33.52623042263508L168.11824382034297,29.034567239132674A170.6070045455344,170.6070045455344,0,0,0,168.3139961520106,27.877386881502446Z" fill-rule="evenodd" style="fill: #1DC690; stroke: #fff; opacity: 1;" id="p-type-logs"></path><path d="M194.1262266507243,33.52623042263508A197,197,0,0,1,193.89100491512679,34.86084068123266L167.91453582179324,30.190373627229498A170.6070045455344,170.6070045455344,0,0,0,168.11824382034297,29.034567239132674Z" fill-rule="evenodd" style="fill: #1DC690; stroke: #fff; opacity: 1;" id="p-type-logs"></path><path d="M193.89100491512679,34.86084068123266A197,197,0,0,1,193.64660789782582,36.193801260239326L167.70288179620147,31.344751350892487A170.6070045455344,170.6070045455344,0,0,0,167.91453582179324,30.190373627229498Z" fill-rule="evenodd" style="fill: #1DC690; stroke: #fff; opacity: 1;" id="p-type-logs"></path><path d="M193.64660789782582,36.193801260239326A197,197,0,0,1,193.39304716414125,37.525049081490025L167.4832917594284,32.49764578282828A170.6070045455344,170.6070045455344,0,0,0,167.70288179620147,31.344751350892487Z" fill-rule="evenodd" style="fill: #1DC690; stroke: #fff; opacity: 1;" id="p-type-logs"></path><path d="M193.39304716414125,37.525049081490025A197,197,0,0,1,193.13033471303694,38.85452114787057L167.2557761028816,33.64900236593562A170.6070045455344,170.6070045455344,0,0,0,167.4832917594284,32.49764578282828Z" fill-rule="evenodd" style="fill: #1DC690; stroke: #fff; opacity: 1;" id="p-type-logs"></path><path d="M193.13033471303694,38.85452114787057A197,197,0,0,1,192.85848297655295,40.182154546298776L167.02034559302356,34.79876661588712A170.6070045455344,170.6070045455344,0,0,0,167.2557761028816,33.64900236593562Z" fill-rule="evenodd" style="fill: #1DC690; stroke: #fff; opacity: 1;" id="p-type-logs"></path><path d="M192.85848297655295,40.182154546298776A197,197,0,0,1,192.5775048192173,41.50788645070165L166.77701137086234,35.94688412370753A170.6070045455344,170.6070045455344,0,0,0,167.02034559302356,34.79876661588712Z" fill-rule="evenodd" style="fill: #1DC690; stroke: #fff; opacity: 1;" id="p-type-logs"></path><path d="M192.5775048192173,41.50788645070165A197,197,0,0,1,192.28741353743715,42.8316541249884L166.52578495142433,37.09330055834849A170.6070045455344,170.6070045455344,0,0,0,166.77701137086234,35.94688412370753Z" fill-rule="evenodd" style="fill: #1DC690; stroke: #fff; opacity: 1;" id="p-type-logs"></path><path d="M192.28741353743715,42.8316541249884A197,197,0,0,1,191.9882228588696,44.15339492601925L166.26667822320934,38.237961669259604A170.6070045455344,170.6070045455344,0,0,0,166.52578495142433,37.09330055834849Z" fill-rule="evenodd" style="fill: #1DC690; stroke: #fff; opacity: 1;" id="p-type-logs"></path><path d="M191.9882228588696,44.15339492601925A197,197,0,0,1,191.67994694177207,45.473046306569834L165.99970344762792,39.38081328895562A170.6070045455344,170.6070045455344,0,0,0,166.26667822320934,38.237961669259604Z" fill-rule="evenodd" style="fill: #1DC690; stroke: #fff; opacity: 1;" id="p-type-logs"></path><path d="M191.67994694177207,45.473046306569834A197,197,0,0,1,191.3626003743323,46.79054581829104L165.7248732584213,40.521801335579774A170.6070045455344,170.6070045455344,0,0,0,165.99970344762792,39.38081328895562Z" fill-rule="evenodd" style="fill: #1DC690; stroke: #fff; opacity: 1;" id="p-type-logs"></path><path d="M191.3626003743323,46.79054581829104A197,197,0,0,1,191.03619817397805,48.10583111466414L165.44220066106337,41.660871815463025A170.6070045455344,170.6070045455344,0,0,0,165.7248732584213,40.521801335579774Z" fill-rule="evenodd" style="fill: #1DC690; stroke: #fff; opacity: 1;" id="p-type-logs"></path><path d="M191.03619817397805,48.10583111466414A197,197,0,0,1,190.70075578666635,49.41883995395123L165.15169903214533,42.79797082567916A170.6070045455344,170.6070045455344,0,0,0,165.44220066106337,41.660871815463025Z" fill-rule="evenodd" style="fill: #1DC690; stroke: #fff; opacity: 1;" id="p-type-logs"></path><path d="M190.70075578666635,49.41883995395123A197,197,0,0,1,190.35628908615266,50.729510202140524L164.85338211874267,43.93304455659555A170.6070045455344,170.6070045455344,0,0,0,165.15169903214533,42.79797082567916Z" fill-rule="evenodd" style="fill: #1DC690; stroke: #fff; opacity: 1;" id="p-type-logs"></path><path d="M190.35628908615266,50.729510202140524A197,197,0,0,1,190.0028143732397,52.03777983588676L164.54726403776465,45.066039294419554A170.6070045455344,170.6070045455344,0,0,0,164.85338211874267,43.93304455659555Z" fill-rule="evenodd" style="fill: #1DC690; stroke: #fff; opacity: 1;" id="p-type-logs"></path><path d="M190.0028143732397,52.03777983588676A197,197,0,0,1,189.64034837500597,53.34358694544614L164.23335927528615,46.1969014237403A170.6070045455344,170.6070045455344,0,0,0,164.54726403776465,45.066039294419554Z" fill-rule="evenodd" style="fill: #1DC690; stroke: #fff; opacity: 1;" id="p-type-logs"></path><path d="M189.64034837500597,53.34358694544614A197,197,0,0,1,189.2689082440143,54.64686973760611L163.91168268586236,47.325577430065955A170.6070045455344,170.6070045455344,0,0,0,164.23335927528615,46.1969014237403Z" fill-rule="evenodd" style="fill: #1DC690; stroke: #fff; opacity: 1;" id="p-type-logs"></path><path d="M189.2689082440143,54.64686973760611A197,197,0,0,1,188.88851155750015,55.94756653860949L163.58224949182565,48.452013902356036A170.6070045455344,170.6070045455344,0,0,0,163.91168268586236,47.325577430065955Z" fill-rule="evenodd" style="fill: #1DC690; stroke: #fff; opacity: 1;" id="p-type-logs"></path><path d="M188.88851155750015,55.94756653860949A197,197,0,0,1,188.49917631653966,57.24561579707299L163.24507528256535,49.57615753554898A170.6070045455344,170.6070045455344,0,0,0,163.58224949182565,48.452013902356036Z" fill-rule="evenodd" style="fill: #1DC690; stroke: #fff; opacity: 1;" id="p-type-logs"></path><path d="M188.49917631653966,57.24561579707299A197,197,0,0,1,188.10092094519806,58.540956086899946L162.90017601378992,50.69795513308461A170.6070045455344,170.6070045455344,0,0,0,163.24507528256535,49.57615753554898Z" fill-rule="evenodd" style="fill: #1DC690; stroke: #fff; opacity: 1;" id="p-type-logs"></path><path d="M188.10092094519806,58.540956086899946A197,197,0,0,1,187.69376428965762,59.83352611018709L162.547568006772,51.817353609421524A170.6070045455344,170.6070045455344,0,0,0,162.90017601378992,50.69795513308461Z" fill-rule="evenodd" style="fill: #1DC690; stroke: #fff; opacity: 1;" id="p-type-logs"></path><path d="M187.69376428965762,59.83352611018709A197,197,0,0,1,187.27772561732593,61.12326470012532L162.187267947576,52.93429999254916A170.6070045455344,170.6070045455344,0,0,0,162.547568006772,51.817353609421524Z" fill-rule="evenodd" style="fill: #1DC690; stroke: #fff; opacity: 1;" id="p-type-logs"></path><path d="M187.27772561732593,61.12326470012532A197,197,0,0,1,186.85282461592396,62.410110823894215L161.81929288626844,54.04874142649455A170.6070045455344,170.6070045455344,0,0,0,162.187267947576,52.93429999254916Z" fill-rule="evenodd" style="fill: #1DC690; stroke: #fff; opacity: 1;" id="p-type-logs"></path><path d="M186.85282461592396,62.410110823894215A197,197,0,0,1,186.41908139255466,63.694003585550185L161.4436602361113,55.160625173823576A170.6070045455344,170.6070045455344,0,0,0,161.81929288626844,54.04874142649455Z" fill-rule="evenodd" style="fill: #1DC690; stroke: #fff; opacity: 1;" id="p-type-logs"></path><path d="M186.41908139255466,63.694003585550185A197,197,0,0,1,185.9765164727512,64.97488222890823L161.06038777273767,56.269898618136594A170.6070045455344,170.6070045455344,0,0,0,161.4436602361113,55.160625173823576Z" fill-rule="evenodd" style="fill: #1DC690; stroke: #fff; opacity: 1;" id="p-type-logs"></path><path d="M185.9765164727512,64.97488222890823A197,197,0,0,1,185.52515079950587,66.25268614041703L160.66949363331094,57.37650926655834A170.6070045455344,170.6070045455344,0,0,0,161.06038777273767,56.269898618136594Z" fill-rule="evenodd" style="fill: #1DC690; stroke: #fff; opacity: 1;" id="p-type-logs"></path><path d="M185.52515079950587,66.25268614041703A197,197,0,0,1,185.06500573227882,67.52735485202723L160.27099631566622,58.48040475222195A170.6070045455344,170.6070045455344,0,0,0,160.66949363331094,57.37650926655834Z" fill-rule="evenodd" style="fill: #1DC690; stroke: #fff; opacity: 1;" id="p-type-logs"></path><path d="M185.06500573227882,67.52735485202723A197,197,0,0,1,184.5961030459875,68.79882804405298L159.86491467743517,59.58153283674714A170.6070045455344,170.6070045455344,0,0,0,160.27099631566622,58.48040475222195Z" fill-rule="evenodd" style="fill: #1DC690; stroke: #fff; opacity: 1;" id="p-type-logs"></path><path d="M184.5961030459875,68.79882804405298A197,197,0,0,1,184.118464929976,70.06704554802633L159.45126793515348,60.67984141271216A170.6070045455344,170.6070045455344,0,0,0,159.86491467743517,59.58153283674714Z" fill-rule="evenodd" style="fill: #1DC690; stroke: #fff; opacity: 1;" id="p-type-logs"></path><path d="M184.118464929976,70.06704554802633A197,197,0,0,1,183.63211398696527,71.33194734954452L159.03007566335165,61.77527850611961A170.6070045455344,170.6070045455344,0,0,0,159.45126793515348,60.67984141271216Z" fill-rule="evenodd" style="fill: #1DC690; stroke: #fff; opacity: 1;" id="p-type-logs"></path><path d="M183.63211398696527,71.33194734954452A197,197,0,0,1,183.1370732319833,72.59347359110998L158.60135779362864,62.86779227885601A170.6070045455344,170.6070045455344,0,0,0,159.03007566335165,61.77527850611961Z" fill-rule="evenodd" style="fill: #1DC690; stroke: #fff; opacity: 1;" id="p-type-logs"></path><path d="M183.1370732319833,72.59347359110998A197,197,0,0,1,182.63336609127612,73.8515645749629L158.1651346137086,63.95733103114479A170.6070045455344,170.6070045455344,0,0,0,158.60135779362864,62.86779227885601Z" fill-rule="evenodd" style="fill: #1DC690; stroke: #fff; opacity: 1;" id="p-type-logs"></path><path d="M182.63336609127612,73.8515645749629A197,197,0,0,1,182.12101640119917,75.1061607659062L157.72142676648087,65.04384320399288A170.6070045455344,170.6070045455344,0,0,0,158.1651346137086,63.95733103114479Z" fill-rule="evenodd" style="fill: #1DC690; stroke: #fff; opacity: 1;" id="p-type-logs"></path><path d="M182.12101640119917,75.1061607659062A197,197,0,0,1,181.60004840708933,76.35720279412291L157.27025524902314,66.12727738163056A170.6070045455344,170.6070045455344,0,0,0,157.72142676648087,65.04384320399288Z" fill-rule="evenodd" style="fill: #1DC690; stroke: #fff; opacity: 1;" id="p-type-logs"></path><path d="M181.60004840708933,76.35720279412291A197,197,0,0,1,181.07048676211767,77.60463145798562L156.8116414116078,67.20758229394454A170.6070045455344,170.6070045455344,0,0,0,157.27025524902314,66.12727738163056Z" fill-rule="evenodd" style="fill: #1DC690; stroke: #fff; opacity: 1;" id="p-type-logs"></path><path d="M181.07048676211767,77.60463145798562A197,197,0,0,1,180.5323565261227,78.84838772685801L156.34560695669163,68.28470681890418A170.6070045455344,170.6070045455344,0,0,0,156.8116414116078,67.20758229394454Z" fill-rule="evenodd" style="fill: #1DC690; stroke: #fff; opacity: 1;" id="p-type-logs"></path><path d="M180.5323565261227,78.84838772685801A197,197,0,0,1,179.98568316442447,80.0884127438883L155.87217393788873,69.35859998498064A170.6070045455344,170.6070045455344,0,0,0,156.34560695669163,68.28470681890418Z" fill-rule="evenodd" style="fill: #1DC690; stroke: #fff; opacity: 1;" id="p-type-logs"></path><path d="M179.98568316442447,80.0884127438883A197,197,0,0,1,179.43049254661972,81.32464782879447L155.39136475892704,70.429210973559A170.6070045455344,170.6070045455344,0,0,0,155.87217393788873,69.35859998498064Z" fill-rule="evenodd" style="fill: #1DC690; stroke: #fff; opacity: 1;" id="p-type-logs"></path><path d="M179.43049254661972,81.32464782879447A197,197,0,0,1,178.8668109453574,82.55703448064115L154.903202172588,71.49648912134307A170.6070045455344,170.6070045455344,0,0,0,155.39136475892704,70.429210973559Z" fill-rule="evenodd" style="fill: #1DC690; stroke: #fff; opacity: 1;" id="p-type-logs"></path><path d="M178.8668109453574,82.55703448064115A197,197,0,0,1,178.29466503509565,83.78551438060782L154.40770927962996,72.56038392275278A170.6070045455344,170.6070045455344,0,0,0,154.903202172588,71.49648912134307Z" fill-rule="evenodd" style="fill: #1DC690; stroke: #fff; opacity: 1;" id="p-type-logs"></path><path d="M178.29466503509565,83.78551438060782A197,197,0,0,1,177.71408189083928,85.01002939474886L153.90490952769488,73.62084503231438A170.6070045455344,170.6070045455344,0,0,0,154.40770927962996,72.56038392275278Z" fill-rule="evenodd" style="fill: #1DC690; stroke: #fff; opacity: 1;" id="p-type-logs"></path><path d="M177.71408189083928,85.01002939474886A197,197,0,0,1,177.12508898685877,86.2305215767443L153.39482671019897,74.67782226704273A170.6070045455344,170.6070045455344,0,0,0,153.90490952769488,73.62084503231438Z" fill-rule="evenodd" style="fill: #1DC690; stroke: #fff; opacity: 1;" id="p-type-logs"></path><path d="M177.12508898685877,86.2305215767443A197,197,0,0,1,176.5277141953899,87.44693317064207L152.87748496520652,75.73126560881612A170.6070045455344,170.6070045455344,0,0,0,153.39482671019897,74.67782226704273Z" fill-rule="evenodd" style="fill: #1DC690; stroke: #fff; opacity: 1;" id="p-type-logs"></path><path d="M176.5277141953899,87.44693317064207A197,197,0,0,1,175.92198578531497,88.6592066135911L152.35290877428767,76.7811252067432A170.6070045455344,170.6070045455344,0,0,0,152.87748496520652,75.73126560881612Z" fill-rule="evenodd" style="fill: #1DC690; stroke: #fff; opacity: 1;" id="p-type-logs"></path><path d="M175.92198578531497,88.6592066135911A197,197,0,0,1,175.307932420825,89.86728453856529L151.82112296136006,77.82735137952204A170.6070045455344,170.6070045455344,0,0,0,152.35290877428767,76.7811252067432Z" fill-rule="evenodd" style="fill: #1DC690; stroke: #fff; opacity: 1;" id="p-type-logs"></path><path d="M175.307932420825,89.86728453856529A197,197,0,0,1,174.68558316006326,91.0711097770782L151.28215269151391,78.86989461779109A170.6070045455344,170.6070045455344,0,0,0,151.82112296136006,77.82735137952204Z" fill-rule="evenodd" style="fill: #1DC690; stroke: #fff; opacity: 1;" id="p-type-logs"></path><path d="M174.68558316006326,91.0711097770782A197,197,0,0,1,174.05496745375015,92.27062536188845L150.7360234698213,79.90870558647211A170.6070045455344,170.6070045455344,0,0,0,151.28215269151391,78.86989461779109Z" fill-rule="evenodd" style="fill: #1DC690; stroke: #fff; opacity: 1;" id="p-type-logs"></path><path d="M174.05496745375015,92.27062536188845A197,197,0,0,1,173.41611514378974,93.46577452969538L150.18276114012923,80.94373512710474A170.6070045455344,170.6070045455344,0,0,0,150.7360234698213,79.90870558647211Z" fill-rule="evenodd" style="fill: #1DC690; stroke: #fff; opacity: 1;" id="p-type-logs"></path><path d="M173.41611514378974,93.46577452969538A197,197,0,0,1,172.76905646185733,94.65650072382537L149.62239188383646,81.97493426017287A170.6070045455344,170.6070045455344,0,0,0,150.18276114012923,80.94373512710474Z" fill-rule="evenodd" style="fill: #1DC690; stroke: #fff; opacity: 1;" id="p-type-logs"></path><path d="M172.76905646185733,94.65650072382537A197,197,0,0,1,172.11382202796898,95.84274759690804L149.05494221865484,83.00225418742232A170.6070045455344,170.6070045455344,0,0,0,149.62239188383646,81.97493426017287Z" fill-rule="evenodd" style="fill: #1DC690; stroke: #fff; opacity: 1;" id="p-type-logs"></path><path d="M172.11382202796898,95.84274759690804A197,197,0,0,1,171.4504428490325,97.0244590135428L148.48043899735418,84.02564629417012A170.6070045455344,170.6070045455344,0,0,0,149.05494221865484,83.00225418742232Z" fill-rule="evenodd" style="fill: #1DC690; stroke: #fff; opacity: 1;" id="p-type-logs"></path><path d="M171.4504428490325,97.0244590135428A197,197,0,0,1,170.77895031738007,98.20157905295528L147.89890940649167,85.04506215160507A170.6070045455344,170.6070045455344,0,0,0,148.48043899735418,84.02564629417012Z" fill-rule="evenodd" style="fill: #1DC690; stroke: #fff; opacity: 1;" id="p-type-logs"></path><path d="M170.77895031738007,98.20157905295528A197,197,0,0,1,170.0993762092829,99.3740520116436L147.31038096512535,86.06045351907945A170.6070045455344,170.6070045455344,0,0,0,147.89890940649167,85.04506215160507Z" fill-rule="evenodd" style="fill: #1DC690; stroke: #fff; opacity: 1;" id="p-type-logs"></path><path d="M170.0993762092829,99.3740520116436A197,197,0,0,1,169.41175268344722,100.54182240601429L146.71488152351182,87.07177234639184A170.6070045455344,170.6070045455344,0,0,0,147.31038096512535,86.06045351907945Z" fill-rule="evenodd" style="fill: #1DC690; stroke: #fff; opacity: 1;" id="p-type-logs"></path><path d="M169.41175268344722,100.54182240601429A197,197,0,0,1,168.7161122794927,101.70483497500801L146.11243926178835,88.07897077606101A170.6070045455344,170.6070045455344,0,0,0,146.71488152351182,87.07177234639184Z" fill-rule="evenodd" style="fill: #1DC690; stroke: #fff; opacity: 1;" id="p-type-logs"></path><path d="M168.7161122794927,101.70483497500801A197,197,0,0,1,168.01248791641254,102.86303468271453L145.5030826886393,89.08200114559057A170.6070045455344,170.6070045455344,0,0,0,146.11243926178835,88.07897077606101Z" fill-rule="evenodd" style="fill: #1DC690; stroke: #fff; opacity: 1;" id="p-type-logs"></path><path d="M168.01248791641254,102.86303468271453A197,197,0,0,1,167.30091289101566,104.01636672097706L144.88684063994702,90.08081598972441A170.6070045455344,170.6070045455344,0,0,0,145.5030826886393,89.08200114559057Z" fill-rule="evenodd" style="fill: #1DC690; stroke: #fff; opacity: 1;" id="p-type-logs"></path><path d="M167.30091289101566,104.01636672097706A197,197,0,0,1,166.5814208763511,105.16477651198606L144.2637422774275,91.07536804269297A170.6070045455344,170.6070045455344,0,0,0,144.88684063994702,90.08081598972441Z" fill-rule="evenodd" style="fill: #1DC690; stroke: #fff; opacity: 1;" id="p-type-logs"></path><path d="M166.5814208763511,105.16477651198606A197,197,0,0,1,165.85404592011446,106.30820971086176L143.63381708724995,92.06561024044984A170.6070045455344,170.6070045455344,0,0,0,144.2637422774275,91.07536804269297Z" fill-rule="evenodd" style="fill: #1DC690; stroke: #fff; opacity: 1;" id="p-type-logs"></path><path d="M165.85404592011446,106.30820971086176A197,197,0,0,1,165.11882244303675,107.44661220822603L142.99709487864192,93.05149572289893A170.6070045455344,170.6070045455344,0,0,0,143.63381708724995,92.06561024044984Z" fill-rule="evenodd" style="fill: #1DC690; stroke: #fff; opacity: 1;" id="p-type-logs"></path><path d="M165.11882244303675,107.44661220822603A197,197,0,0,1,164.37578523725554,108.57993013276275L142.35360578247838,94.032977836112A170.6070045455344,170.6070045455344,0,0,0,142.99709487864192,93.05149572289893Z" fill-rule="evenodd" style="fill: #1DC690; stroke: #fff; opacity: 1;" id="p-type-logs"></path><path d="M164.37578523725554,108.57993013276275A197,197,0,0,1,163.62496946466854,109.70810985376734L141.70338024985602,95.01001013453642A170.6070045455344,170.6070045455344,0,0,0,142.35360578247838,94.032977836112Z" fill-rule="evenodd" style="fill: #1DC690; stroke: #fff; opacity: 1;" id="p-type-logs"></path><path d="M163.62496946466854,109.70810985376734A197,197,0,0,1,162.86641065526965,110.83109798368447L141.04644905065211,95.98254638319303A170.6070045455344,170.6070045455344,0,0,0,141.70338024985602,95.01001013453642Z" fill-rule="evenodd" style="fill: #1DC690; stroke: #fff; opacity: 1;" id="p-type-logs"></path><path d="M162.86641065526965,110.83109798368447A197,197,0,0,1,162.1001447054676,111.94884138063448L140.38284327206853,96.95054055986405A170.6070045455344,170.6070045455344,0,0,0,141.04644905065211,95.98254638319303Z" fill-rule="evenodd" style="fill: #1DC690; stroke: #fff; opacity: 1;" id="p-type-logs"></path><path d="M162.1001447054676,111.94884138063448A197,197,0,0,1,161.32620787638734,113.06128715092827L139.71259431716064,97.91394685727101A170.6070045455344,170.6070045455344,0,0,0,140.38284327206853,96.95054055986405Z" fill-rule="evenodd" style="fill: #1DC690; stroke: #fff; opacity: 1;" id="p-type-logs"></path><path d="M161.32620787638734,113.06128715092827A197,197,0,0,1,160.54463679215397,114.16838265157024L139.0357339033512,98.87271968524242A170.6070045455344,170.6070045455344,0,0,0,139.71259431716064,97.91394685727101Z" fill-rule="evenodd" style="fill: #1DC690; stroke: #fff; opacity: 1;" id="p-type-logs"></path><path d="M160.54463679215397,114.16838265157024A197,197,0,0,1,159.75546843815974,115.2700754927494L138.3522940609294,99.82681367287103A170.6070045455344,170.6070045455344,0,0,0,139.0357339033512,98.87271968524242Z" fill-rule="evenodd" style="fill: #1DC690; stroke: #fff; opacity: 1;" id="p-type-logs"></path><path d="M159.75546843815974,115.2700754927494A197,197,0,0,1,158.9587401593138,116.36631354031871L137.66230713153539,100.7761836706611A170.6070045455344,170.6070045455344,0,0,0,138.3522940609294,99.82681367287103Z" fill-rule="evenodd" style="fill: #1DC690; stroke: #fff; opacity: 1;" id="p-type-logs"></path><path d="M158.9587401593138,116.36631354031871A197,197,0,0,1,158.1544896582749,117.457044918262L136.96580576662933,101.7207847526648A170.6070045455344,170.6070045455344,0,0,0,137.66230713153539,100.7761836706611Z" fill-rule="evenodd" style="fill: #1DC690; stroke: #fff; opacity: 1;" id="p-type-logs"></path><path d="M158.1544896582749,117.457044918262A197,197,0,0,1,157.34275499366734,118.54221801114898L136.26282292594675,102.66057221860824A170.6070045455344,170.6070045455344,0,0,0,136.96580576662933,101.7207847526648Z" fill-rule="evenodd" style="fill: #1DC690; stroke: #fff; opacity: 1;" id="p-type-logs"></path><path d="M157.34275499366734,118.54221801114898A197,197,0,0,1,156.5235745782799,119.6217814665776L135.55339187593853,103.59550159600674A170.6070045455344,170.6070045455344,0,0,0,136.26282292594675,102.66057221860824Z" fill-rule="evenodd" style="fill: #1DC690; stroke: #fff; opacity: 1;" id="p-type-logs"></path><path d="M156.5235745782799,119.6217814665776A197,197,0,0,1,155.69698717724805,120.69568419760442L134.8375461881968,104.52552864226946A170.6070045455344,170.6070045455344,0,0,0,135.55339187593853,103.59550159600674Z" fill-rule="evenodd" style="fill: #1DC690; stroke: #fff; opacity: 1;" id="p-type-logs"></path><path d="M155.69698717724805,120.69568419760442A197,197,0,0,1,154.8630319062196,121.76387538516181L134.11531973786623,105.45060934679282A170.6070045455344,170.6070045455344,0,0,0,134.8375461881968,104.52552864226946Z" fill-rule="evenodd" style="fill: #1DC690; stroke: #fff; opacity: 1;" id="p-type-logs"></path><path d="M154.8630319062196,121.76387538516181A197,197,0,0,1,154.0217482295036,122.82630448046304L133.386746702041,106.3706999330434A170.6070045455344,170.6070045455344,0,0,0,134.11531973786623,105.45060934679282Z" fill-rule="evenodd" style="fill: #1DC690; stroke: #fff; opacity: 1;" id="p-type-logs"></path><path d="M154.0217482295036,122.82630448046304A197,197,0,0,1,153.1731759582028,123.88292120739423L132.65186155814743,107.28575686062938A170.6070045455344,170.6070045455344,0,0,0,133.386746702041,106.3706999330434Z" fill-rule="evenodd" style="fill: #1DC690; stroke: #fff; opacity: 1;" id="p-type-logs"></path><path d="M153.1731759582028,123.88292120739423A197,197,0,0,1,152.31735524832982,124.9336755648936L131.91069908231262,108.19573682736103A170.6070045455344,170.6070045455344,0,0,0,132.65186155814743,107.28575686062938Z" fill-rule="evenodd" style="fill: #1DC690; stroke: #fff; opacity: 1;" id="p-type-logs"></path><path d="M152.31735524832982,124.9336755648936A197,197,0,0,1,151.45432659890682,125.97851782931752L131.1632943477185,109.1005967712998A170.6070045455344,170.6070045455344,0,0,0,131.91069908231262,108.19573682736103Z" fill-rule="evenodd" style="fill: #1DC690; stroke: #fff; opacity: 1;" id="p-type-logs"></path><path d="M151.45432659890682,125.97851782931752A197,197,0,0,1,150.58413085004895,127.01739855679352L130.40968272294236,110.00029387279608A170.6070045455344,170.6070045455344,0,0,0,131.1632943477185,109.1005967712998Z" fill-rule="evenodd" style="fill: #1DC690; stroke: #fff; opacity: 1;" id="p-type-logs"></path><path d="M150.58413085004895,127.01739855679352A197,197,0,0,1,149.70680918103187,128.05026858556022L129.64989987028304,110.8947855565156A170.6070045455344,170.6070045455344,0,0,0,130.40968272294236,110.00029387279608Z" fill-rule="evenodd" style="fill: #1DC690; stroke: #fff; opacity: 1;" id="p-type-logs"></path><path d="M149.70680918103187,128.05026858556022A197,197,0,0,1,148.82240310834297,129.0770790382935L128.8839817440732,111.78402949345404A170.6070045455344,170.6070045455344,0,0,0,129.64989987028304,110.8947855565156Z" fill-rule="evenodd" style="fill: #1DC690; stroke: #fff; opacity: 1;" id="p-type-logs"></path><path d="M148.82240310834297,129.0770790382935A197,197,0,0,1,147.93095448371668,130.09778132441977L128.11196458897814,112.66798360294023A170.6070045455344,170.6070045455344,0,0,0,128.8839817440732,111.78402949345404Z" fill-rule="evenodd" style="fill: #1DC690; stroke: #fff; opacity: 1;" id="p-type-logs"></path><path d="M147.93095448371668,130.09778132441977A197,197,0,0,1,147.03250549215417,131.112327142415L127.3338849382805,113.54660605462738A170.6070045455344,170.6070045455344,0,0,0,128.11196458897814,112.66798360294023Z" fill-rule="evenodd" style="fill: #1DC690; stroke: #fff; opacity: 1;" id="p-type-logs"></path><path d="M147.03250549215417,131.112327142415A197,197,0,0,1,146.1270986499268,132.12066848209085L126.54977961215137,114.4198552704727A170.6070045455344,170.6070045455344,0,0,0,127.3338849382805,113.54660605462738Z" fill-rule="evenodd" style="fill: #1DC690; stroke: #fff; opacity: 1;" id="p-type-logs"></path><path d="M146.1270986499268,132.12066848209085A197,197,0,0,1,145.21477680256444,133.1227576268663L125.759685715908,115.28768992670484A170.6070045455344,170.6070045455344,0,0,0,126.54977961215137,114.4198552704727Z" fill-rule="evenodd" style="fill: #1DC690; stroke: #fff; opacity: 1;" id="p-type-logs"></path><path d="M145.21477680256444,133.1227576268663A197,197,0,0,1,144.2955831228278,134.11854715602573L124.96364063825797,116.15006895577946A170.6070045455344,170.6070045455344,0,0,0,125.759685715908,115.28768992670484Z" fill-rule="evenodd" style="fill: #1DC690; stroke: #fff; opacity: 1;" id="p-type-logs"></path><path d="M144.2955831228278,134.11854715602573A197,197,0,0,1,143.36956110866535,135.10798994696307L124.16168204952965,117.00695154832258A170.6070045455344,170.6070045455344,0,0,0,124.96364063825797,116.15006895577946Z" fill-rule="evenodd" style="fill: #1DC690; stroke: #fff; opacity: 1;" id="p-type-logs"></path><path d="M143.36956110866535,135.10798994696307A197,197,0,0,1,142.43675458115507,136.0910391774117L123.3538478998898,117.8582971550618A170.6070045455344,170.6070045455344,0,0,0,124.16168204952965,117.00695154832258Z" fill-rule="evenodd" style="fill: #1DC690; stroke: #fff; opacity: 1;" id="p-type-logs"></path><path d="M34.35748485356994,193.98083213177716A197,197,0,0,1,31.9702937365547,194.38852928709147L27.687086542306893,168.34540456691656A170.6070045455344,170.6070045455344,0,0,0,29.754454693330644,167.99232847336373Z" fill-rule="evenodd" style="fill: #D7A449; stroke: #fff; opacity: 1;" id="p-type-tokenTransfers"></path><path d="M31.9702937365547,194.38852928709147A197,197,0,0,1,30.6323293772248,194.60385504127407L26.52837541776903,168.53188214012775A170.6070045455344,170.6070045455344,0,0,0,27.687086542306893,168.34540456691656Z" fill-rule="evenodd" style="fill: #D7A449; stroke: #fff; opacity: 1;" id="p-type-tokenTransfers"></path><path d="M30.6323293772248,194.60385504127407A197,197,0,0,1,29.292915439295868,194.8099717803641L25.368408921339622,168.71038447232493A170.6070045455344,170.6070045455344,0,0,0,26.52837541776903,168.53188214012775Z" fill-rule="evenodd" style="fill: #D7A449; stroke: #fff; opacity: 1;" id="p-type-tokenTransfers"></path><path d="M29.292915439295868,194.8099717803641A197,197,0,0,1,27.952115306317882,195.0068697505355L24.20724194478313,168.88090311644692A170.6070045455344,170.6070045455344,0,0,0,25.368408921339622,168.71038447232493Z" fill-rule="evenodd" style="fill: #D7A449; stroke: #fff; opacity: 1;" id="p-type-tokenTransfers"></path><path d="M27.952115306317882,195.0068697505355A197,197,0,0,1,26.60999242743812,195.1945396342113L23.04492943667295,169.04343000323544A170.6070045455344,170.6070045455344,0,0,0,24.20724194478313,168.88090311644692Z" fill-rule="evenodd" style="fill: #D7A449; stroke: #fff; opacity: 1;" id="p-type-tokenTransfers"></path><path d="M26.60999242743812,195.1945396342113A197,197,0,0,1,25.266610314398655,195.37297255050487L21.881526399791156,169.197957441617A170.6070045455344,170.6070045455344,0,0,0,23.04492943667295,169.04343000323544Z" fill-rule="evenodd" style="fill: #D7A449; stroke: #fff; opacity: 1;" id="p-type-tokenTransfers"></path><path d="M25.266610314398655,195.37297255050487A197,197,0,0,1,23.92203253853086,195.54216005563984L20.717087888525665,169.34447811906682A170.6070045455344,170.6070045455344,0,0,0,21.881526399791156,169.197957441617Z" fill-rule="evenodd" style="fill: #D7A449; stroke: #fff; opacity: 1;" id="p-type-tokenTransfers"></path><path d="M23.92203253853086,195.54216005563984A197,197,0,0,1,22.576322727747076,195.70209414334997L19.55166900626496,169.48298510195488A170.6070045455344,170.6070045455344,0,0,0,20.717087888525665,169.34447811906682Z" fill-rule="evenodd" style="fill: #D7A449; stroke: #fff; opacity: 1;" id="p-type-tokenTransfers"></path><path d="M22.576322727747076,195.70209414334997A197,197,0,0,1,21.229544563529643,195.85276724525775L18.38532490279049,169.613471835874A170.6070045455344,170.6070045455344,0,0,0,19.55166900626496,169.48298510195488Z" fill-rule="evenodd" style="fill: #D7A449; stroke: #fff; opacity: 1;" id="p-type-tokenTransfers"></path><path d="M21.229544563529643,195.85276724525775A197,197,0,0,1,19.88176177791736,195.9941722312328L17.218110771666904,169.7359321459502A170.6070045455344,170.6070045455344,0,0,0,18.38532490279049,169.613471835874Z" fill-rule="evenodd" style="fill: #D7A449; stroke: #fff; opacity: 1;" id="p-type-tokenTransfers"></path><path d="M19.88176177791736,195.9941722312328A197,197,0,0,1,18.53303815048959,196.12630240972908L16.05008184763015,169.85036023713454A170.6070045455344,170.6070045455344,0,0,0,17.218110771666904,169.7359321459502Z" fill-rule="evenodd" style="fill: #D7A449; stroke: #fff; opacity: 1;" id="p-type-tokenTransfers"></path><path d="M18.53303815048959,196.12630240972908A197,197,0,0,1,17.183437505348042,196.24915152810163L14.881293403973704,169.9567506944777A170.6070045455344,170.6070045455344,0,0,0,16.05008184763015,169.85036023713454Z" fill-rule="evenodd" style="fill: #D7A449; stroke: #fff; opacity: 1;" id="p-type-tokenTransfers"></path><path d="M17.183437505348042,196.24915152810163A197,197,0,0,1,15.833023708096558,196.36271377290254L13.71180074993291,170.05509848338608A170.6070045455344,170.6070045455344,0,0,0,14.881293403973704,169.9567506944777Z" fill-rule="evenodd" style="fill: #D7A449; stroke: #fff; opacity: 1;" id="p-type-tokenTransfers"></path><path d="M15.833023708096558,196.36271377290254A197,197,0,0,1,14.481860662818828,196.4669837701559L12.541659228067655,170.14539894986A170.6070045455344,170.6070045455344,0,0,0,13.71180074993291,170.05509848338608Z" fill-rule="evenodd" style="fill: #D7A449; stroke: #fff; opacity: 1;" id="p-type-tokenTransfers"></path><path d="M14.481860662818828,196.4669837701559A197,197,0,0,1,13.130012309054361,196.56195658561217L11.370924211643453,170.22764782071408A170.6070045455344,170.6070045455344,0,0,0,12.541659228067655,170.14539894986Z" fill-rule="evenodd" style="fill: #D7A449; stroke: #fff; opacity: 1;" id="p-type-tokenTransfers"></path><path d="M13.130012309054361,196.56195658561217A197,197,0,0,1,11.777542618772719,196.6476277249817L10.199651102011078,170.30184120377925A170.6070045455344,170.6070045455344,0,0,0,11.370924211643453,170.22764782071408Z" fill-rule="evenodd" style="fill: #D7A449; stroke: #fff; opacity: 1;" id="p-type-tokenTransfers"></path><path d="M11.777542618772719,196.6476277249817A197,197,0,0,1,10.42451559334627,196.7239931341474L9.027895325984879,170.36797558808715A170.6070045455344,170.6070045455344,0,0,0,10.199651102011078,170.30184120377925Z" fill-rule="evenodd" style="fill: #D7A449; stroke: #fff; opacity: 1;" id="p-type-tokenTransfers"></path><path d="M10.42451559334627,196.7239931341474A197,197,0,0,1,9.070995260521508,196.79104919935662L7.855712333219868,170.42604784403613A170.6070045455344,170.6070045455344,0,0,0,9.027895325984879,170.36797558808715Z" fill-rule="evenodd" style="fill: #D7A449; stroke: #fff; opacity: 1;" id="p-type-tokenTransfers"></path><path d="M9.070995260521508,196.79104919935662A197,197,0,0,1,7.71704567138915,196.84879274739203L6.683157593587743,170.47605522353945A170.6070045455344,170.6070045455344,0,0,0,7.855712333219868,170.42604784403613Z" fill-rule="evenodd" style="fill: #D7A449; stroke: #fff; opacity: 1;" id="p-type-tokenTransfers"></path><path d="M7.71704567138915,196.84879274739203A197,197,0,0,1,6.362730897353119,196.8972210457219L5.510286594551959,170.51799536015517A170.6070045455344,170.6070045455344,0,0,0,6.683157593587743,170.47605522353945Z" fill-rule="evenodd" style="fill: #D7A449; stroke: #fff; opacity: 1;" id="p-type-tokenTransfers"></path><path d="M6.362730897353119,196.8972210457219A197,197,0,0,1,5.00811502709856,196.93633180262944L4.337154838541945,170.55186626919834A170.6070045455344,170.6070045455344,0,0,0,5.510286594551959,170.51799536015517Z" fill-rule="evenodd" style="fill: #D7A449; stroke: #fff; opacity: 1;" id="p-type-tokenTransfers"></path><path d="M5.00811502709856,196.93633180262944A197,197,0,0,1,3.653262163559053,196.96612316732111L3.163817840326641,170.57766634783474A170.6070045455344,170.6070045455344,0,0,0,4.337154838541945,170.55186626919834Z" fill-rule="evenodd" style="fill: #D7A449; stroke: #fff; opacity: 1;" id="p-type-tokenTransfers"></path><path d="M3.653262163559053,196.96612316732111A197,197,0,0,1,2.2982364208831374,196.98659373001436L1.990331124387422,170.59539437515684A170.6070045455344,170.6070045455344,0,0,0,3.163817840326641,170.57766634783474Z" fill-rule="evenodd" style="fill: #D7A449; stroke: #fff; opacity: 1;" id="p-type-tokenTransfers"></path><path d="M2.2982364208831374,196.98659373001436A197,197,0,0,1,0.943101921400314,196.99774252200416L0.8167502222905868,170.60504951224152A170.6070045455344,170.6070045455344,0,0,0,1.990331124387422,170.59539437515684Z" fill-rule="evenodd" style="fill: #D7A449; stroke: #fff; opacity: 1;" id="p-type-tokenTransfers"></path><path d="M0.943101921400314,196.99774252200416A197,197,0,0,1,-0.41207720741334236,196.9995690157091L-0.3568693299405037,170.60663130218987A170.6070045455344,170.6070045455344,0,0,0,0.8167502222905868,170.60504951224152Z" fill-rule="evenodd" style="fill: #D7A449; stroke: #fff; opacity: 1;" id="p-type-tokenTransfers"></path><path d="M-0.41207720741334236,196.9995690157091A197,197,0,0,1,-1.7672368359698143,196.99207312469605L-1.5304719944534921,170.60013967014854A170.6070045455344,170.6070045455344,0,0,0,-0.3568693299405037,170.60663130218987Z" fill-rule="evenodd" style="fill: #D7A449; stroke: #fff; opacity: 1;" id="p-type-tokenTransfers"></path><path d="M-1.7672368359698143,196.99207312469605A197,197,0,0,1,-3.1223128356038727,196.97525520368447L-2.7040022341951793,170.5855749233137A170.6070045455344,170.6070045455344,0,0,0,-1.5304719944534921,170.60013967014854Z" fill-rule="evenodd" style="fill: #D7A449; stroke: #fff; opacity: 1;" id="p-type-tokenTransfers"></path><path d="M-3.1223128356038727,196.97525520368447A197,197,0,0,1,-4.477241081607764,196.94911604852956L-3.877404515539641,170.56293775091606A170.6070045455344,170.6070045455344,0,0,0,-2.7040022341951793,170.5855749233137Z" fill-rule="evenodd" style="fill: #D7A449; stroke: #fff; opacity: 1;" id="p-type-tokenTransfers"></path><path d="M-4.477241081607764,196.94911604852956A197,197,0,0,1,-5.8319574562657115,196.9136568961846L-5.050623310916181,170.53222922418868A170.6070045455344,170.6070045455344,0,0,0,-3.877404515539641,170.56293775091606Z" fill-rule="evenodd" style="fill: #D7A449; stroke: #fff; opacity: 1;" id="p-type-tokenTransfers"></path><path d="M-5.8319574562657115,196.9136568961846A197,197,0,0,1,-7.186397851888081,196.86887942464236L-6.223603101436998,170.49345079631587A170.6070045455344,170.6070045455344,0,0,0,-5.050623310916181,170.53222922418868Z" fill-rule="evenodd" style="fill: #D7A449; stroke: #fff; opacity: 1;" id="p-type-tokenTransfers"></path><path d="M-7.186397851888081,196.86887942464236A197,197,0,0,1,-8.540498173845078,196.81478575285584L-7.396288379524445,170.44660430236476A170.6070045455344,170.6070045455344,0,0,0,-6.223603101436998,170.49345079631587Z" fill-rule="evenodd" style="fill: #D7A449; stroke: #fff; opacity: 1;" id="p-type-tokenTransfers"></path><path d="M-8.540498173845078,196.81478575285584A197,197,0,0,1,-9.894194343599828,196.7513784406378L-8.56862365153775,170.39169195919825A170.6070045455344,170.6070045455344,0,0,0,-7.396288379524445,170.44660430236476Z" fill-rule="evenodd" style="fill: #D7A449; stroke: #fff; opacity: 1;" id="p-type-tokenTransfers"></path><path d="M-9.894194343599828,196.7513784406378A197,197,0,0,1,-11.247422301740682,196.6786604885398L-9.740553440399076,170.32871636537018A170.6070045455344,170.6070045455344,0,0,0,-8.56862365153775,170.39169195919825Z" fill-rule="evenodd" style="fill: #D7A449; stroke: #fff; opacity: 1;" id="p-type-tokenTransfers"></path><path d="M-11.247422301740682,196.6786604885398A197,197,0,0,1,-12.600118011012638,196.59663533771007L-10.912022288218798,170.2576805010024A170.6070045455344,170.6070045455344,0,0,0,-9.740553440399076,170.32871636537018Z" fill-rule="evenodd" style="fill: #D7A449; stroke: #fff; opacity: 1;" id="p-type-tokenTransfers"></path><path d="M-12.600118011012638,196.59663533771007A197,197,0,0,1,-13.95221745934769,196.50530686973082L-12.082974758919878,170.17858772764365A170.6070045455344,170.6070045455344,0,0,0,-10.912022288218798,170.2576805010024Z" fill-rule="evenodd" style="fill: #D7A449; stroke: #fff; opacity: 1;" id="p-type-tokenTransfers"></path><path d="M-13.95221745934769,196.50530686973082A197,197,0,0,1,-15.303656662894012,196.40467940643435L-13.2533554408612,170.09144178811053A170.6070045455344,170.6070045455344,0,0,0,-12.082974758919878,170.17858772764365Z" fill-rule="evenodd" style="fill: #D7A449; stroke: #fff; opacity: 1;" id="p-type-tokenTransfers"></path><path d="M-15.303656662894012,196.40467940643435A197,197,0,0,1,-16.65437166904378,196.29475770969879L-14.423108949459754,169.99624680631044A170.6070045455344,170.6070045455344,0,0,0,-13.2533554408612,170.09144178811053Z" fill-rule="evenodd" style="fill: #D7A449; stroke: #fff; opacity: 1;" id="p-type-tokenTransfers"></path><path d="M-16.65437166904378,196.29475770969879A197,197,0,0,1,-18.00429855945954,196.1755469812225L-15.592179929811532,169.89300728704634A170.6070045455344,170.6070045455344,0,0,0,-14.423108949459754,169.99624680631044Z" fill-rule="evenodd" style="fill: #D7A449; stroke: #fff; opacity: 1;" id="p-type-tokenTransfers"></path><path d="M-18.00429855945954,196.1755469812225A197,197,0,0,1,-19.353373453098918,196.04705286227818L-16.760513059311027,169.78172811580365A170.6070045455344,170.6070045455344,0,0,0,-15.592179929811532,169.89300728704634Z" fill-rule="evenodd" style="fill: #D7A449; stroke: #fff; opacity: 1;" id="p-type-tokenTransfers"></path><path d="M-19.353373453098918,196.04705286227818A197,197,0,0,1,-20.701532509237627,195.90928143344556L-17.9280530502692,169.66241455851892A170.6070045455344,170.6070045455344,0,0,0,-16.760513059311027,169.78172811580365Z" fill-rule="evenodd" style="fill: #D7A449; stroke: #fff; opacity: 1;" id="p-type-tokenTransfers"></path><path d="M-20.701532509237627,195.90928143344556A197,197,0,0,1,-22.0487119304905,195.7622392143241L-19.094744652529805,169.53507226133087A170.6070045455344,170.6070045455344,0,0,0,-17.9280530502692,169.66241455851892Z" fill-rule="evenodd" style="fill: #D7A449; stroke: #fff; opacity: 1;" id="p-type-tokenTransfers"></path><path d="M-22.0487119304905,195.7622392143241A197,197,0,0,1,-23.394847965830508,195.60593316322405L-20.260532656083917,169.39970725031304A170.6070045455344,170.6070045455344,0,0,0,-19.094744652529805,169.53507226133087Z" fill-rule="evenodd" style="fill: #D7A449; stroke: #fff; opacity: 1;" id="p-type-tokenTransfers"></path><path d="M-23.394847965830508,195.60593316322405A197,197,0,0,1,-24.73987691360557,195.44037067683752L-21.425361893682577,169.25632593118857A170.6070045455344,170.6070045455344,0,0,0,-20.260532656083917,169.39970725031304Z" fill-rule="evenodd" style="fill: #D7A449; stroke: #fff; opacity: 1;" id="p-type-tokenTransfers"></path><path d="M-24.73987691360557,195.44037067683752A197,197,0,0,1,-26.083735124553055,195.26555958988814L-22.589177243447406,169.10493508902724A170.6070045455344,170.6070045455344,0,0,0,-21.425361893682577,169.25632593118857Z" fill-rule="evenodd" style="fill: #D7A449; stroke: #fff; opacity: 1;" id="p-type-tokenTransfers"></path><path d="M-26.083735124553055,195.26555958988814A197,197,0,0,1,-27.426359004811758,195.0815081747606L-23.751923631479077,168.9455418879243A170.6070045455344,170.6070045455344,0,0,0,-22.589177243447406,169.10493508902724Z" fill-rule="evenodd" style="fill: #D7A449; stroke: #fff; opacity: 1;" id="p-type-tokenTransfers"></path><path d="M-27.426359004811758,195.0815081747606A197,197,0,0,1,-28.7676850189313,194.8882251411089L-24.913546034463526,168.7781538706614A170.6070045455344,170.6070045455344,0,0,0,-23.751923631479077,168.9455418879243Z" fill-rule="evenodd" style="fill: #D7A449; stroke: #fff; opacity: 1;" id="p-type-tokenTransfers"></path><path d="M-28.7676850189313,194.8882251411089A197,197,0,0,1,-30.10764969287871,194.68571963544449L-26.073989482275714,168.60277895834983A170.6070045455344,170.6070045455344,0,0,0,-24.913546034463526,168.7781538706614Z" fill-rule="evenodd" style="fill: #D7A449; stroke: #fff; opacity: 1;" id="p-type-tokenTransfers"></path><path d="M-30.10764969287871,194.68571963544449A197,197,0,0,1,-31.446189617042187,194.4740012407032L-27.23319906058098,168.4194254500554A170.6070045455344,170.6070045455344,0,0,0,-26.073989482275714,168.60277895834983Z" fill-rule="evenodd" style="fill: #D7A449; stroke: #fff; opacity: 1;" id="p-type-tokenTransfers"></path><path d="M-31.446189617042187,194.4740012407032A197,197,0,0,1,-32.78324144923171,194.25307997579182L-28.391119913433634,168.22810202240598A170.6070045455344,170.6070045455344,0,0,0,-27.23319906058098,168.4194254500554Z" fill-rule="evenodd" style="fill: #D7A449; stroke: #fff; opacity: 1;" id="p-type-tokenTransfers"></path><path d="M-32.78324144923171,194.25307997579182A197,197,0,0,1,-34.11874191767653,194.02296629511412L-29.547697245872868,168.02881772918073A170.6070045455344,170.6070045455344,0,0,0,-28.391119913433634,168.22810202240598Z" fill-rule="evenodd" style="fill: #D7A449; stroke: #fff; opacity: 1;" id="p-type-tokenTransfers"></path><path d="M-34.11874191767653,194.02296629511412A197,197,0,0,1,-35.45262782401932,193.78367108807586L-30.702876326515753,167.82158200088176A170.6070045455344,170.6070045455344,0,0,0,-29.547697245872868,168.02881772918073Z" fill-rule="evenodd" style="fill: #D7A449; stroke: #fff; opacity: 1;" id="p-type-tokenTransfers"></path><path d="M-35.45262782401932,193.78367108807586A197,197,0,0,1,-36.78483604630681,193.53520567856984L-31.856602490147225,167.6064046442878A170.6070045455344,170.6070045455344,0,0,0,-30.702876326515753,167.82158200088176Z" fill-rule="evenodd" style="fill: #D7A449; stroke: #fff; opacity: 1;" id="p-type-tokenTransfers"></path><path d="M-36.78483604630681,193.53520567856984A197,197,0,0,1,-38.11530354197685,193.27758182443966L-33.00882114030694,167.38329584199022A170.6070045455344,170.6070045455344,0,0,0,-31.856602490147225,167.6064046442878Z" fill-rule="evenodd" style="fill: #D7A449; stroke: #fff; opacity: 1;" id="p-type-tokenTransfers"></path><path d="M-38.11530354197685,193.27758182443966A197,197,0,0,1,-39.4439673508417,193.0108117169236L-34.1594777518729,167.15226615191102A170.6070045455344,170.6070045455344,0,0,0,-33.00882114030694,167.38329584199022Z" fill-rule="evenodd" style="fill: #D7A449; stroke: #fff; opacity: 1;" id="p-type-tokenTransfers"></path><path d="M-39.4439673508417,193.0108117169236A197,197,0,0,1,-40.770764598067444,192.7349079800776L-35.308517873641655,166.91332650680332A170.6070045455344,170.6070045455344,0,0,0,-34.1594777518729,167.15226615191102Z" fill-rule="evenodd" style="fill: #D7A449; stroke: #fff; opacity: 1;" id="p-type-tokenTransfers"></path><path d="M-40.770764598067444,192.7349079800776A197,197,0,0,1,-42.09563249714928,192.44988367017774L-36.45588713090504,166.6664882137339A170.6070045455344,170.6070045455344,0,0,0,-35.308517873641655,166.91332650680332Z" fill-rule="evenodd" style="fill: #D7A449; stroke: #fff; opacity: 1;" id="p-type-tokenTransfers"></path><path d="M-42.09563249714928,192.44988367017774A197,197,0,0,1,-43.41850835288277,192.1557522751027L-37.60153122802332,166.4117629535484A170.6070045455344,170.6070045455344,0,0,0,-36.45588713090504,166.6664882137339Z" fill-rule="evenodd" style="fill: #D7A449; stroke: #fff; opacity: 1;" id="p-type-tokenTransfers"></path><path d="M-43.41850835288277,192.1557522751027A197,197,0,0,1,-44.73932956433065,191.85252771369525L-38.74539595099453,166.14916278031814A170.6070045455344,170.6070045455344,0,0,0,-37.60153122802332,166.4117629535484Z" fill-rule="evenodd" style="fill: #D7A449; stroke: #fff; opacity: 1;" id="p-type-tokenTransfers"></path><path d="M-44.73932956433065,191.85252771369525A197,197,0,0,1,-46.05803362778523,191.54022433510357L-39.887427170019954,165.87870012077005A170.6070045455344,170.6070045455344,0,0,0,-38.74539595099453,166.14916278031814Z" fill-rule="evenodd" style="fill: #D7A449; stroke: #fff; opacity: 1;" id="p-type-tokenTransfers"></path><path d="M-46.05803362778523,191.54022433510357A197,197,0,0,1,-47.37455813972618,191.21885691810235L-41.02757084206573,165.60038777369837A170.6070045455344,170.6070045455344,0,0,0,-39.887427170019954,165.87870012077005Z" fill-rule="evenodd" style="fill: #D7A449; stroke: #fff; opacity: 1;" id="p-type-tokenTransfers"></path><path d="M-47.37455813972618,191.21885691810235A197,197,0,0,1,-48.6888407997736,190.8884406703934L-42.16577301342018,165.31423890935932A170.6070045455344,170.6070045455344,0,0,0,-41.02757084206573,165.60038777369837Z" fill-rule="evenodd" style="fill: #D7A449; stroke: #fff; opacity: 1;" id="p-type-tokenTransfers"></path><path d="M-48.6888407997736,190.8884406703934A197,197,0,0,1,-50.000819413636165,190.54899122788592L-43.30197982224706,165.02026706884737A170.6070045455344,170.6070045455344,0,0,0,-42.16577301342018,165.31423890935932Z" fill-rule="evenodd" style="fill: #D7A449; stroke: #fff; opacity: 1;" id="p-type-tokenTransfers"></path><path d="M-50.000819413636165,190.54899122788592A197,197,0,0,1,-51.310431896054304,190.20052465395665L-44.43613750113437,164.71848616345488A170.6070045455344,170.6070045455344,0,0,0,-43.30197982224706,165.02026706884737Z" fill-rule="evenodd" style="fill: #D7A449; stroke: #fff; opacity: 1;" id="p-type-tokenTransfers"></path><path d="M-51.310431896054304,190.20052465395665A197,197,0,0,1,-52.61761627373815,189.84305743868973L-45.56819237963873,164.40891047401365A170.6070045455344,170.6070045455344,0,0,0,-44.43613750113437,164.71848616345488Z" fill-rule="evenodd" style="fill: #D7A449; stroke: #fff; opacity: 1;" id="p-type-tokenTransfers"></path><path d="M-52.61761627373815,189.84305743868973A197,197,0,0,1,-53.92231068830027,189.47660649809626L-46.69809088682519,164.09155465021902A170.6070045455344,170.6070045455344,0,0,0,-45.56819237963873,164.40891047401365Z" fill-rule="evenodd" style="fill: #D7A449; stroke: #fff; opacity: 1;" id="p-type-tokenTransfers"></path><path d="M-53.92231068830027,189.47660649809626A197,197,0,0,1,-55.22445339918286,189.10118917331397L-47.825779553802256,163.76643370993676A170.6070045455344,170.6070045455344,0,0,0,-46.69809088682519,164.09155465021902Z" fill-rule="evenodd" style="fill: #D7A449; stroke: #fff; opacity: 1;" id="p-type-tokenTransfers"></path><path d="M-132.56617905589883,145.7230529824275A197,197,0,0,1,-135.54604140561213,142.9554848869678L-117.38631523967749,123.80308152243651A170.6070045455344,170.6070045455344,0,0,0,-114.80567874504499,126.19986579980791Z" fill-rule="evenodd" style="fill: #414552; stroke: #fff; opacity: 1;" id="p-type-ether"></path><path d="M-135.54604140561213,142.9554848869678A197,197,0,0,1,-137.79133697526737,140.79256888972625L-119.33079824200357,121.92994132257357A170.6070045455344,170.6070045455344,0,0,0,-117.38631523967749,123.80308152243651Z" fill-rule="evenodd" style="fill: #414552; stroke: #fff; opacity: 1;" id="p-type-ether"></path><path d="M-137.79133697526737,140.79256888972625A197,197,0,0,1,-139.5116801341501,139.0880696039261L-120.82065912082278,120.4538016403382A170.6070045455344,170.6070045455344,0,0,0,-119.33079824200357,121.92994132257357Z" fill-rule="evenodd" style="fill: #414552; stroke: #fff; opacity: 1;" id="p-type-ether"></path><path d="M-139.5116801341501,139.0880696039261A197,197,0,0,1,-140.5601569840774,138.02841109210638L-121.72866670813971,119.53611044976593A170.6070045455344,170.6070045455344,0,0,0,-120.82065912082278,120.4538016403382Z" fill-rule="evenodd" style="fill: #414552; stroke: #fff; opacity: 1;" id="p-type-ether"></path><path d="M-140.5601569840774,138.02841109210638A197,197,0,0,1,-141.506335186914,137.05822522551776L-122.54808106830329,118.69590484290755A170.6070045455344,170.6070045455344,0,0,0,-121.72866670813971,119.53611044976593Z" fill-rule="evenodd" style="fill: #414552; stroke: #fff; opacity: 1;" id="p-type-ether"></path><path d="M-141.506335186914,137.05822522551776A197,197,0,0,1,-142.34181949592013,136.19033160467333L-123.27163170436592,117.94428691947383A170.6070045455344,170.6070045455344,0,0,0,-122.54808106830329,118.69590484290755Z" fill-rule="evenodd" style="fill: #414552; stroke: #fff; opacity: 1;" id="p-type-ether"></path></g></svg>