<svg xmlns="http://www.w3.org/2000/svg" width="400" height="400" id="block-7824851"><g id="burst-container" transform="translate(200,200)"><circle r="197" style="fill: #f9f9f9; stroke: #f9f9f9; stroke-width: 3; opacity: 1;" id="circle-base"></circle><path display="none" d="M6.031385485800715e-15,-98.5A98.5,98.5,0,1,1,-6.031385485800715e-15,98.5A98.5,98.5,0,1,1,6.031385485800715e-15,-98.5Z" fill-rule="evenodd" id="p-type-root" style="stroke: #fff; opacity: 1;"></path><path d="M8.529667153919608e-15,-139.30003589374985A139.30003589374985,139.30003589374985,0,1,1,-114.69327355644414,-79.05664425528487L-81.10039148824539,-55.901489250764456A98.5,98.5,0,1,0,6.031385485800715e-15,-98.5Z" fill-rule="evenodd" style="fill: #0B1F65; stroke: #fff; opacity: 1;" id="p-type-data"></path><path d="M-114.69327355644414,-79.05664425528487A139.30003589374985,139.30003589374985,0,0,1,-1.8584881950851613,-139.28763772003862L-1.314149605499865,-98.49123316729445A98.5,98.5,0,0,0,-81.10039148824539,-55.901489250764456Z" fill-rule="evenodd" style="fill: #D7A449; stroke: #fff; opacity: 1;" id="p-type-value"></path><path d="M1.0446666101440332e-14,-170.6070045455344A170.6070045455344,170.6070045455344,0,0,1,169.66787205136148,17.876330539650237L138.53323742321953,14.595962765158308A139.30003589374985,139.30003589374985,0,0,0,8.529667153919608e-15,-139.30003589374985Z" fill-rule="evenodd" style="fill: #DB3F29; stroke: #fff; opacity: 1;" id="p-type-functions"></path><path d="M169.66787205136148,17.876330539650237A170.6070045455344,170.6070045455344,0,0,1,80.57127809749224,150.38290842292074L65.7861730875794,122.78713055728211A139.30003589374985,139.30003589374985,0,0,0,138.53323742321953,14.595962765158308Z" fill-rule="evenodd" style="fill: #1DC690; stroke: #fff; opacity: 1;" id="p-type-logs"></path><path d="M80.57127809749224,150.38290842292074A170.6070045455344,170.6070045455344,0,0,1,-50.748188012026496,162.88453399109446L-41.435722000097044,132.99466508973458A139.30003589374985,139.30003589374985,0,0,0,65.7861730875794,122.78713055728211Z" fill-rule="evenodd" style="fill: #D7A449; stroke: #fff; opacity: 1;" id="p-type-tokenTransfers"></path><path d="M-50.748188012026496,162.88453399109446A170.6070045455344,170.6070045455344,0,0,1,-147.72427943564398,85.34803609468568L-120.61636907921529,69.68637966020701A139.30003589374985,139.30003589374985,0,0,0,-41.435722000097044,132.99466508973458Z" fill-rule="evenodd" style="fill: #414552; stroke: #fff; opacity: 1;" id="p-type-ether"></path><path d="M-140.46999857136754,-96.82421960108948A170.6070045455344,170.6070045455344,0,0,1,-70.64691595358325,-155.29250872546086L-57.68296532918914,-126.79580241802786A139.30003589374985,139.30003589374985,0,0,0,-114.69327355644414,-79.05664425528487Z" fill-rule="evenodd" style="fill: #414552; stroke: #fff; opacity: 1;" id="p-type-ether"></path><path d="M-70.64691595358325,-155.29250872546086A170.6070045455344,170.6070045455344,0,0,1,-4.551942596616518,-170.54626884982594L-3.716645566716662,-139.25044540586362A139.30003589374985,139.30003589374985,0,0,0,-57.68296532918914,-126.79580241802786Z" fill-rule="evenodd" style="fill: #D7A449; stroke: #fff; opacity: 1;" id="p-type-tokenTransfers"></path><path d="M1.206277097160143e-14,-197A197,197,0,0,1,4.627443495019724,-196.94564419326565L4.0074836212641305,-170.55993103605928A170.6070045455344,170.6070045455344,0,0,0,1.0446666101440332e-14,-170.6070045455344Z" fill-rule="evenodd" style="fill: #DB3F29; stroke: #fff; opacity: 1;" id="p-type-functions"></path><path d="M4.627443495019724,-196.94564419326565A197,197,0,0,1,8.972558990611143,-196.79556190412424L7.7704640228237105,-170.42995596100468A170.6070045455344,170.6070045455344,0,0,0,4.0074836212641305,-170.55993103605928Z" fill-rule="evenodd" style="fill: #DB3F29; stroke: #fff; opacity: 1;" id="p-type-functions"></path><path d="M8.972558990611143,-196.79556190412424A197,197,0,0,1,10.28517439071282,-196.7313274182651L8.907222304710437,-170.37432726445164A170.6070045455344,170.6070045455344,0,0,0,7.7704640228237105,-170.42995596100468Z" fill-rule="evenodd" style="fill: #DB3F29; stroke: #fff; opacity: 1;" id="p-type-functions"></path><path d="M10.28517439071282,-196.7313274182651A197,197,0,0,1,11.597332078091535,-196.65833795868016L10.043584195751444,-170.3111165382426A170.6070045455344,170.6070045455344,0,0,0,8.907222304710437,-170.37432726445164Z" fill-rule="evenodd" style="fill: #DB3F29; stroke: #fff; opacity: 1;" id="p-type-functions"></path><path d="M11.597332078091535,-196.65833795868016A197,197,0,0,1,12.908973658864532,-196.57659677355986L11.179499125360838,-170.24032659539296A170.6070045455344,170.6070045455344,0,0,0,10.043584195751444,-170.3111165382426Z" fill-rule="evenodd" style="fill: #DB3F29; stroke: #fff; opacity: 1;" id="p-type-functions"></path><path d="M12.908973658864532,-196.57659677355986A197,197,0,0,1,14.220040762116874,-196.48610750056537L12.314916542843442,-170.16196058620974A170.6070045455344,170.6070045455344,0,0,0,11.179499125360838,-170.24032659539296Z" fill-rule="evenodd" style="fill: #DB3F29; stroke: #fff; opacity: 1;" id="p-type-functions"></path><path d="M14.220040762116874,-196.48610750056537A197,197,0,0,1,15.530475042499138,-196.38687416666704L13.449785919644462,-170.07602199815156A170.6070045455344,170.6070045455344,0,0,0,12.314916542843442,-170.16196058620974Z" fill-rule="evenodd" style="fill: #DB3F29; stroke: #fff; opacity: 1;" id="p-type-functions"></path><path d="M15.530475042499138,-196.38687416666704A197,197,0,0,1,16.84021818282389,-196.2789011879649L14.584056751598105,-169.9825146556732A170.6070045455344,170.6070045455344,0,0,0,13.449785919644462,-170.07602199815156Z" fill-rule="evenodd" style="fill: #DB3F29; stroke: #fff; opacity: 1;" id="p-type-functions"></path><path d="M16.84021818282389,-196.2789011879649A197,197,0,0,1,18.14921189666095,-196.16219336949234L15.717678561175136,-169.88144272005573A170.6070045455344,170.6070045455344,0,0,0,14.584056751598105,-169.9825146556732Z" fill-rule="evenodd" style="fill: #DB3F29; stroke: #fff; opacity: 1;" id="p-type-functions"></path><path d="M18.14921189666095,-196.16219336949234A197,197,0,0,1,19.45739793093124,-196.03675590500214L16.850600899729226,-169.7728106892209A170.6070045455344,170.6070045455344,0,0,0,15.717678561175136,-169.88144272005573Z" fill-rule="evenodd" style="fill: #DB3F29; stroke: #fff; opacity: 1;" id="p-type-functions"></path><path d="M19.45739793093124,-196.03675590500214A197,197,0,0,1,20.764718068499242,-195.90259437673546L17.982773349742082,-169.65662339753143A170.6070045455344,170.6070045455344,0,0,0,16.850600899729226,-169.7728106892209Z" fill-rule="evenodd" style="fill: #DB3F29; stroke: #fff; opacity: 1;" id="p-type-functions"></path><path d="M20.764718068499242,-195.90259437673546A197,197,0,0,1,22.071114130763593,-195.7597147551733L19.11414552706697,-169.53288601557549A170.6070045455344,170.6070045455344,0,0,0,17.982773349742082,-169.65662339753143Z" fill-rule="evenodd" style="fill: #DB3F29; stroke: #fff; opacity: 1;" id="p-type-functions"></path><path d="M22.071114130763593,-195.7597147551733A197,197,0,0,1,23.376527980246443,-195.60812339877083L20.24466708317115,-169.4016040499368A170.6070045455344,170.6070045455344,0,0,0,19.11414552706697,-169.53288601557549Z" fill-rule="evenodd" style="fill: #DB3F29; stroke: #fff; opacity: 1;" id="p-type-functions"></path><path d="M23.376527980246443,-195.60812339877083A197,197,0,0,1,24.68090152318049,-195.44782705367453L21.37428770737635,-169.2627833429496A170.6070045455344,170.6070045455344,0,0,0,20.24466708317115,-169.4016040499368Z" fill-rule="evenodd" style="fill: #DB3F29; stroke: #fff; opacity: 1;" id="p-type-functions"></path><path d="M24.68090152318049,-195.44782705367453A197,197,0,0,1,25.98417671209437,-195.27883285342182L22.502957129097734,-169.11643007243853A170.6070045455344,170.6070045455344,0,0,0,21.37428770737635,-169.2627833429496Z" fill-rule="evenodd" style="fill: #DB3F29; stroke: #fff; opacity: 1;" id="p-type-functions"></path><path d="M25.98417671209437,-195.27883285342182A197,197,0,0,1,27.286295548395852,-195.10114831862367L23.630625120081046,-168.9625507514437A170.6070045455344,170.6070045455344,0,0,0,22.502957129097734,-169.11643007243853Z" fill-rule="evenodd" style="fill: #DB3F29; stroke: #fff; opacity: 1;" id="p-type-functions"></path><path d="M27.286295548395852,-195.10114831862367A197,197,0,0,1,28.587200084952933,-194.91478135663L24.757241496637903,-168.80115222793106A170.6070045455344,170.6070045455344,0,0,0,23.630625120081046,-168.9625507514437Z" fill-rule="evenodd" style="fill: #DB3F29; stroke: #fff; opacity: 1;" id="p-type-functions"></path><path d="M28.587200084952933,-194.91478135663A197,197,0,0,1,29.886832428672598,-194.71974026117755L25.88275612187904,-168.6322416844873A170.6070045455344,170.6070045455344,0,0,0,24.757241496637903,-168.80115222793106Z" fill-rule="evenodd" style="fill: #DB3F29; stroke: #fff; opacity: 1;" id="p-type-functions"></path><path d="M29.886832428672598,-194.71974026117755A197,197,0,0,1,31.185134743077235,-194.51603371202106L27.00711890794559,-168.4558266380005A170.6070045455344,170.6070045455344,0,0,0,25.88275612187904,-168.6322416844873Z" fill-rule="evenodd" style="fill: #DB3F29; stroke: #fff; opacity: 1;" id="p-type-functions"></path><path d="M31.185134743077235,-194.51603371202106A197,197,0,0,1,32.48204925087831,-194.3036707745469L28.130279818237913,-168.27191493932563A170.6070045455344,170.6070045455344,0,0,0,27.00711890794559,-168.4558266380005Z" fill-rule="evenodd" style="fill: #DB3F29; stroke: #fff; opacity: 1;" id="p-type-functions"></path><path d="M32.48204925087831,-194.3036707745469A197,197,0,0,1,33.77751823654785,-194.08266089936956L29.25218886964259,-168.0805147729348A170.6070045455344,170.6070045455344,0,0,0,28.130279818237913,-168.27191493932563Z" fill-rule="evenodd" style="fill: #DB3F29; stroke: #fff; opacity: 1;" id="p-type-functions"></path><path d="M33.77751823654785,-194.08266089936956A197,197,0,0,1,35.07148404888672,-193.85301392191118L30.372796134756616,-167.88163465655353A170.6070045455344,170.6070045455344,0,0,0,29.25218886964259,-168.0805147729348Z" fill-rule="evenodd" style="fill: #DB3F29; stroke: #fff; opacity: 1;" id="p-type-functions"></path><path d="M35.07148404888672,-193.85301392191118A197,197,0,0,1,36.363889103590274,-193.61474006196374L31.492051744109315,-167.67528344078127A170.6070045455344,170.6070045455344,0,0,0,30.372796134756616,-167.88163465655353Z" fill-rule="evenodd" style="fill: #DB3F29; stroke: #fff; opacity: 1;" id="p-type-functions"></path><path d="M36.363889103590274,-193.61474006196374A197,197,0,0,1,37.654675885811024,-193.36784992323444L32.609905888381654,-167.46147030869784A170.6070045455344,170.6070045455344,0,0,0,31.492051744109315,-167.67528344078127Z" fill-rule="evenodd" style="fill: #DB3F29; stroke: #fff; opacity: 1;" id="p-type-functions"></path><path d="M37.654675885811024,-193.36784992323444A197,197,0,0,1,38.943786952718106,-193.11235449287366L33.72630882062285,-167.24020477545457A170.6070045455344,170.6070045455344,0,0,0,32.609905888381654,-167.46147030869784Z" fill-rule="evenodd" style="fill: #DB3F29; stroke: #fff; opacity: 1;" id="p-type-functions"></path><path d="M38.943786952718106,-193.11235449287366A197,197,0,0,1,40.23116493605366,-192.84826514098603L34.84121085846422,-167.0114966878509A170.6070045455344,170.6070045455344,0,0,0,33.72630882062285,-167.24020477545457Z" fill-rule="evenodd" style="fill: #DB3F29; stroke: #fff; opacity: 1;" id="p-type-functions"></path><path d="M40.23116493605366,-192.84826514098603A197,197,0,0,1,41.516752544685836,-192.57559362012447L35.954562386330174,-166.77535622389624A170.6070045455344,170.6070045455344,0,0,0,34.84121085846422,-167.0114966878509Z" fill-rule="evenodd" style="fill: #DB3F29; stroke: #fff; opacity: 1;" id="p-type-functions"></path><path d="M41.516752544685836,-192.57559362012447A197,197,0,0,1,42.80049256715841,-192.29435206476714L37.06631385764622,-166.53179389235697A170.6070045455344,170.6070045455344,0,0,0,35.954562386330174,-166.77535622389624Z" fill-rule="evenodd" style="fill: #DB3F29; stroke: #fff; opacity: 1;" id="p-type-functions"></path><path d="M42.80049256715841,-192.29435206476714A197,197,0,0,1,44.08232787423663,-192.00455299077754L38.17641579704379,-166.28082053228877A170.6070045455344,170.6070045455344,0,0,0,37.06631385764622,-166.53179389235697Z" fill-rule="evenodd" style="fill: #DB3F29; stroke: #fff; opacity: 1;" id="p-type-functions"></path><path d="M44.08232787423663,-192.00455299077754A197,197,0,0,1,45.362201421449896,-191.70620929484733L39.28481880256218,-166.02244731255425A170.6070045455344,170.6070045455344,0,0,0,38.17641579704379,-166.28082053228877Z" fill-rule="evenodd" style="fill: #DB3F29; stroke: #fff; opacity: 1;" id="p-type-functions"></path><path d="M45.362201421449896,-191.70620929484733A197,197,0,0,1,46.64005625163014,-191.39933425392258L40.39147354784692,-165.75668573132603A170.6070045455344,170.6070045455344,0,0,0,39.28481880256218,-166.02244731255425Z" fill-rule="evenodd" style="fill: #DB3F29; stroke: #fff; opacity: 1;" id="p-type-functions"></path><path d="M46.64005625163014,-191.39933425392258A197,197,0,0,1,47.91583549744662,-191.08394152461278L41.49633078434495,-165.48354761557482A170.6070045455344,170.6070045455344,0,0,0,40.39147354784692,-165.75668573132603Z" fill-rule="evenodd" style="fill: #DB3F29; stroke: #fff; opacity: 1;" id="p-type-functions"></path><path d="M47.91583549744662,-191.08394152461278A197,197,0,0,1,49.18948238393664,-190.7600451425832L42.59934134349626,-165.20304512054335A170.6070045455344,170.6070045455344,0,0,0,41.49633078434495,-165.48354761557482Z" fill-rule="evenodd" style="fill: #DB3F29; stroke: #fff; opacity: 1;" id="p-type-functions"></path><path d="M49.18948238393664,-190.7600451425832A197,197,0,0,1,50.46094023103215,-190.42765952193028L43.700456138922036,-164.91519072920525A170.6070045455344,170.6070045455344,0,0,0,42.59934134349626,-165.20304512054335Z" fill-rule="evenodd" style="fill: #DB3F29; stroke: #fff; opacity: 1;" id="p-type-functions"></path><path d="M50.46094023103215,-190.42765952193028A197,197,0,0,1,51.73015245608209,-190.08679945454L44.79962616860906,-164.6199972517096A170.6070045455344,170.6070045455344,0,0,0,43.700456138922036,-164.91519072920525Z" fill-rule="evenodd" style="fill: #DB3F29; stroke: #fff; opacity: 1;" id="p-type-functions"></path><path d="M51.73015245608209,-190.08679945454A197,197,0,0,1,52.99706257637056,-189.73748010942978L45.89680251709048,-164.31747782481082A170.6070045455344,170.6070045455344,0,0,0,44.79962616860906,-164.6199972517096Z" fill-rule="evenodd" style="fill: #DB3F29; stroke: #fff; opacity: 1;" id="p-type-functions"></path><path d="M52.99706257637056,-189.73748010942978A197,197,0,0,1,54.261614211630295,-189.37971703207342L46.99193635762256,-164.00764591128413A170.6070045455344,170.6070045455344,0,0,0,45.89680251709048,-164.31747782481082Z" fill-rule="evenodd" style="fill: #DB3F29; stroke: #fff; opacity: 1;" id="p-type-functions"></path><path d="M54.261614211630295,-189.37971703207342A197,197,0,0,1,55.52375108655178,-189.0135261437092L48.08497895435767,-163.6905152993263A170.6070045455344,170.6070045455344,0,0,0,46.99193635762256,-164.00764591128413Z" fill-rule="evenodd" style="fill: #DB3F29; stroke: #fff; opacity: 1;" id="p-type-functions"></path><path d="M55.52375108655178,-189.0135261437092A197,197,0,0,1,56.78341703328761,-188.63892374063138L49.17588166451308,-163.3661001019422A170.6070045455344,170.6070045455344,0,0,0,48.08497895435767,-163.6905152993263Z" fill-rule="evenodd" style="fill: #DB3F29; stroke: #fff; opacity: 1;" id="p-type-functions"></path><path d="M56.78341703328761,-188.63892374063138A197,197,0,0,1,58.04055599395209,-188.25592649346504L50.26459594053568,-163.03441475631666A170.6070045455344,170.6070045455344,0,0,0,49.17588166451308,-163.3661001019422Z" fill-rule="evenodd" style="fill: #DB3F29; stroke: #fff; opacity: 1;" id="p-type-functions"></path><path d="M58.04055599395209,-188.25592649346504A197,197,0,0,1,59.295112023115905,-187.86455144642412L51.35107333226247,-162.6954740231719A170.6070045455344,170.6070045455344,0,0,0,50.26459594053568,-163.03441475631666Z" fill-rule="evenodd" style="fill: #DB3F29; stroke: #fff; opacity: 1;" id="p-type-functions"></path><path d="M59.295112023115905,-187.86455144642412A197,197,0,0,1,60.547029290295846,-187.464816016553L52.4352654890767,-162.34929298611078A170.6070045455344,170.6070045455344,0,0,0,51.35107333226247,-162.6954740231719Z" fill-rule="evenodd" style="fill: #DB3F29; stroke: #fff; opacity: 1;" id="p-type-functions"></path><path d="M60.547029290295846,-187.464816016553A197,197,0,0,1,61.796252082439366,-187.05673799295124L53.51712416205951,-161.99588705094556A170.6070045455344,170.6070045455344,0,0,0,52.4352654890767,-162.34929298611078Z" fill-rule="evenodd" style="fill: #DB3F29; stroke: #fff; opacity: 1;" id="p-type-functions"></path><path d="M61.796252082439366,-187.05673799295124A197,197,0,0,1,63.04272480640396,-186.64033553598222L54.59660120613723,-161.6352719450121A170.6070045455344,170.6070045455344,0,0,0,53.51712416205951,-161.99588705094556Z" fill-rule="evenodd" style="fill: #DB3F29; stroke: #fff; opacity: 1;" id="p-type-functions"></path><path d="M63.04272480640396,-186.64033553598222A197,197,0,0,1,64.28639199143113,-186.2156271764646L55.67364858222385,-161.26746371647025A170.6070045455344,170.6070045455344,0,0,0,54.59660120613723,-161.6352719450121Z" fill-rule="evenodd" style="fill: #DB3F29; stroke: #fff; opacity: 1;" id="p-type-functions"></path><path d="M64.28639199143113,-186.2156271764646A197,197,0,0,1,65.52719829161504,-185.78263181484797L56.74821835935889,-160.89247873358943A170.6070045455344,170.6070045455344,0,0,0,55.67364858222385,-161.26746371647025Z" fill-rule="evenodd" style="fill: #DB3F29; stroke: #fff; opacity: 1;" id="p-type-functions"></path><path d="M65.52719829161504,-185.78263181484797A197,197,0,0,1,66.76508848836541,-185.3413687203716L57.82026271684043,-160.51033368402034A170.6070045455344,170.6070045455344,0,0,0,56.74821835935889,-160.89247873358943Z" fill-rule="evenodd" style="fill: #DB3F29; stroke: #fff; opacity: 1;" id="p-type-functions"></path><path d="M66.76508848836541,-185.3413687203716A197,197,0,0,1,68.00000749286498,-184.89185753020683L58.88973394635325,-160.1210455740523A170.6070045455344,170.6070045455344,0,0,0,57.82026271684043,-160.51033368402034Z" fill-rule="evenodd" style="fill: #DB3F29; stroke: #fff; opacity: 1;" id="p-type-functions"></path><path d="M68.00000749286498,-184.89185753020683A197,197,0,0,1,69.23190034852105,-184.43411824858342L59.95658445409196,-159.72463172785635A170.6070045455344,170.6070045455344,0,0,0,58.88973394635325,-160.1210455740523Z" fill-rule="evenodd" style="fill: #DB3F29; stroke: #fff; opacity: 1;" id="p-type-functions"></path><path d="M69.23190034852105,-184.43411824858342A197,197,0,0,1,70.46071223341107,-183.96817124589904L61.020766762878964,-159.3211097867145A170.6070045455344,170.6070045455344,0,0,0,59.95658445409196,-159.72463172785635Z" fill-rule="evenodd" style="fill: #DB3F29; stroke: #fff; opacity: 1;" id="p-type-functions"></path><path d="M70.46071223341107,-183.96817124589904A197,197,0,0,1,71.68638846272253,-183.49403725781292L62.082233514277405,-158.91049770823426A170.6070045455344,170.6070045455344,0,0,0,61.020766762878964,-159.3211097867145Z" fill-rule="evenodd" style="fill: #DB3F29; stroke: #fff; opacity: 1;" id="p-type-functions"></path><path d="M71.68638846272253,-183.49403725781292A197,197,0,0,1,72.90887449118634,-183.01173738432308L63.14093747069861,-158.49281376555004A170.6070045455344,170.6070045455344,0,0,0,62.082233514277405,-158.91049770823426Z" fill-rule="evenodd" style="fill: #DB3F29; stroke: #fff; opacity: 1;" id="p-type-functions"></path><path d="M72.90887449118634,-183.01173738432308A197,197,0,0,1,74.12811591550438,-182.52129308882715L64.19683151750435,-158.06807654650942A170.6070045455344,170.6070045455344,0,0,0,63.14093747069861,-158.49281376555004Z" fill-rule="evenodd" style="fill: #DB3F29; stroke: #fff; opacity: 1;" id="p-type-functions"></path><path d="M74.12811591550438,-182.52129308882715A197,197,0,0,1,75.34405847677047,-182.02272619716746L65.2498686651035,-157.63630495284627A170.6070045455344,170.6070045455344,0,0,0,64.19683151750435,-158.06807654650942Z" fill-rule="evenodd" style="fill: #DB3F29; stroke: #fff; opacity: 1;" id="p-type-functions"></path><path d="M75.34405847677047,-182.02272619716746A197,197,0,0,1,76.55664806288505,-181.51605889665947L66.30000205104318,-157.19751819933947A170.6070045455344,170.6070045455344,0,0,0,65.2498686651035,-157.63630495284627Z" fill-rule="evenodd" style="fill: #DB3F29; stroke: #fff; opacity: 1;" id="p-type-functions"></path><path d="M76.55664806288505,-181.51605889665947A197,197,0,0,1,77.76583071096329,-181.0013137351047L67.34718494209427,-156.7517358129579A170.6070045455344,170.6070045455344,0,0,0,66.30000205104318,-157.19751819933947Z" fill-rule="evenodd" style="fill: #DB3F29; stroke: #fff; opacity: 1;" id="p-type-functions"></path><path d="M77.76583071096329,-181.0013137351047A197,197,0,0,1,78.9715526097365,-180.47851361978692L68.3913707363311,-156.29897763199128A170.6070045455344,170.6070045455344,0,0,0,67.34718494209427,-156.7517358129579Z" fill-rule="evenodd" style="fill: #DB3F29; stroke: #fff; opacity: 1;" id="p-type-functions"></path><path d="M78.9715526097365,-180.47851361978692A197,197,0,0,1,80.17376010194695,-179.94768181645316L69.43251296520532,-155.83926380516752A170.6070045455344,170.6070045455344,0,0,0,68.3913707363311,-156.29897763199128Z" fill-rule="evenodd" style="fill: #DB3F29; stroke: #fff; opacity: 1;" id="p-type-functions"></path><path d="M80.17376010194695,-179.94768181645316A197,197,0,0,1,81.37239968673563,-179.40884194827785L70.47056529561397,-155.37261479075585A170.6070045455344,170.6070045455344,0,0,0,69.43251296520532,-155.83926380516752Z" fill-rule="evenodd" style="fill: #DB3F29; stroke: #fff; opacity: 1;" id="p-type-functions"></path><path d="M81.37239968673563,-179.40884194827785A197,197,0,0,1,82.56741802202325,-178.86201799481205L71.50548153196122,-154.89905135565664A170.6070045455344,170.6070045455344,0,0,0,70.47056529561397,-155.37261479075585Z" fill-rule="evenodd" style="fill: #DB3F29; stroke: #fff; opacity: 1;" id="p-type-functions"></path><path d="M82.56741802202325,-178.86201799481205A197,197,0,0,1,83.75876192688399,-178.3072342909159L72.53721561821438,-154.4185945744769A170.6070045455344,170.6070045455344,0,0,0,71.50548153196122,-154.89905135565664Z" fill-rule="evenodd" style="fill: #DB3F29; stroke: #fff; opacity: 1;" id="p-type-functions"></path><path d="M83.75876192688399,-178.3072342909159A197,197,0,0,1,84.9463783839122,-177.74451552567584L73.56572163995328,-153.9312658285928A170.6070045455344,170.6070045455344,0,0,0,72.53721561821438,-154.4185945744769Z" fill-rule="evenodd" style="fill: #DB3F29; stroke: #fff; opacity: 1;" id="p-type-functions"></path><path d="M84.9463783839122,-177.74451552567584A197,197,0,0,1,86.13021454158185,-177.1738867413059L74.59095382641375,-153.43708680519782A170.6070045455344,170.6070045455344,0,0,0,73.56572163995328,-153.9312658285928Z" fill-rule="evenodd" style="fill: #DB3F29; stroke: #fff; opacity: 1;" id="p-type-functions"></path><path d="M86.13021454158185,-177.1738867413059A197,197,0,0,1,87.31021771659844,-176.59537333203318L75.61286655252442,-152.93607949633773A170.6070045455344,170.6070045455344,0,0,0,74.59095382641375,-153.43708680519782Z" fill-rule="evenodd" style="fill: #DB3F29; stroke: #fff; opacity: 1;" id="p-type-functions"></path><path d="M87.31021771659844,-176.59537333203318A197,197,0,0,1,88.4863353962436,-176.00900104296792L76.63141434093714,-152.42826619793198A170.6070045455344,170.6070045455344,0,0,0,75.61286655252442,-152.93607949633773Z" fill-rule="evenodd" style="fill: #DB3F29; stroke: #fff; opacity: 1;" id="p-type-functions"></path><path d="M88.4863353962436,-176.00900104296792A197,197,0,0,1,89.65851524071199,-175.41479596895758L77.64655186405085,-151.9136695087814A170.6070045455344,170.6070045455344,0,0,0,76.63141434093714,-152.42826619793198Z" fill-rule="evenodd" style="fill: #DB3F29; stroke: #fff; opacity: 1;" id="p-type-functions"></path><path d="M89.65851524071199,-175.41479596895758A197,197,0,0,1,90.82670508544051,-174.81278455342567L78.65823394602874,-151.39231232956254A170.6070045455344,170.6070045455344,0,0,0,77.64655186405085,-151.9136695087814Z" fill-rule="evenodd" style="fill: #DB3F29; stroke: #fff; opacity: 1;" id="p-type-functions"></path><path d="M90.82670508544051,-174.81278455342567A197,197,0,0,1,91.99085294342976,-174.20299358719495L79.66641556480866,-150.86421786180847A170.6070045455344,170.6070045455344,0,0,0,78.65823394602874,-151.39231232956254Z" fill-rule="evenodd" style="fill: #DB3F29; stroke: #fff; opacity: 1;" id="p-type-functions"></path><path d="M91.99085294342976,-174.20299358719495A197,197,0,0,1,93.1509070075576,-173.5854502072952L80.67105185410676,-150.32940960687637A170.6070045455344,170.6070045455344,0,0,0,79.66641556480866,-150.86421786180847Z" fill-rule="evenodd" style="fill: #DB3F29; stroke: #fff; opacity: 1;" id="p-type-functions"></path><path d="M93.1509070075576,-173.5854502072952A197,197,0,0,1,94.30681565288468,-172.9601818957555L81.67209810541407,-149.78791136490162A170.6070045455344,170.6070045455344,0,0,0,80.67105185410676,-150.32940960687637Z" fill-rule="evenodd" style="fill: #DB3F29; stroke: #fff; opacity: 1;" id="p-type-functions"></path><path d="M94.30681565288468,-172.9601818957555A197,197,0,0,1,95.45852743895182,-172.32721647838127L82.66950976998616,-149.2397472337385A170.6070045455344,170.6070045455344,0,0,0,81.67209810541407,-149.78791136490162Z" fill-rule="evenodd" style="fill: #DB3F29; stroke: #fff; opacity: 1;" id="p-type-functions"></path><path d="M95.45852743895182,-172.32721647838127A197,197,0,0,1,96.60599111206916,-171.68658212351602L83.66324246082559,-148.68494160788813A170.6070045455344,170.6070045455344,0,0,0,82.66950976998616,-149.2397472337385Z" fill-rule="evenodd" style="fill: #DB3F29; stroke: #fff; opacity: 1;" id="p-type-functions"></path><path d="M96.60599111206916,-171.68658212351602A197,197,0,0,1,97.74915560759726,-171.03830734078764L84.65325195465735,-148.12351917741253A170.6070045455344,170.6070045455344,0,0,0,83.66324246082559,-148.68494160788813Z" fill-rule="evenodd" style="fill: #DB3F29; stroke: #fff; opacity: 1;" id="p-type-functions"></path><path d="M97.74915560759726,-171.03830734078764A197,197,0,0,1,98.88797005221946,-170.3824209798398L85.63949419389682,-147.55550492683597A170.6070045455344,170.6070045455344,0,0,0,84.65325195465735,-148.12351917741253Z" fill-rule="evenodd" style="fill: #DB3F29; stroke: #fff; opacity: 1;" id="p-type-functions"></path><path d="M98.88797005221946,-170.3824209798398A197,197,0,0,1,100.02238376620578,-169.71895222904794L86.62192528861044,-146.98092413403307A170.6070045455344,170.6070045455344,0,0,0,85.63949419389682,-147.55550492683597Z" fill-rule="evenodd" style="fill: #DB3F29; stroke: #fff; opacity: 1;" id="p-type-functions"></path><path d="M100.02238376620578,-169.71895222904794A197,197,0,0,1,101.15234626566846,-169.0479306142205L87.60050151846887,-146.39980236910407A170.6070045455344,170.6070045455344,0,0,0,86.62192528861044,-146.98092413403307Z" fill-rule="evenodd" style="fill: #DB3F29; stroke: #fff; opacity: 1;" id="p-type-functions"></path><path d="M101.15234626566846,-169.0479306142205A197,197,0,0,1,102.27780726480844,-168.36938599728484L88.57517933469272,-145.81216549323662A170.6070045455344,170.6070045455344,0,0,0,87.60050151846887,-146.39980236910407Z" fill-rule="evenodd" style="fill: #DB3F29; stroke: #fff; opacity: 1;" id="p-type-functions"></path><path d="M102.27780726480844,-168.36938599728484A197,197,0,0,1,103.39871667815333,-167.68334857495833L89.54591536199051,-145.21803965755507A170.6070045455344,170.6070045455344,0,0,0,88.57517933469272,-145.81216549323662Z" fill-rule="evenodd" style="fill: #DB3F29; stroke: #fff; opacity: 1;" id="p-type-functions"></path><path d="M103.39871667815333,-167.68334857495833A197,197,0,0,1,104.51502462278616,-166.98984887740454L90.51266640048892,-144.61745130195666A170.6070045455344,170.6070045455344,0,0,0,89.54591536199051,-145.21803965755507Z" fill-rule="evenodd" style="fill: #DB3F29; stroke: #fff; opacity: 1;" id="p-type-functions"></path><path d="M104.51502462278616,-166.98984887740454A197,197,0,0,1,105.6266814205654,-166.2889177668746L91.47538942765541,-144.0104271539349A170.6070045455344,170.6070045455344,0,0,0,90.51266640048892,-144.61745130195666Z" fill-rule="evenodd" style="fill: #DB3F29; stroke: #fff; opacity: 1;" id="p-type-functions"></path><path d="M105.6266814205654,-166.2889177668746A197,197,0,0,1,106.73363760033575,-165.58058643633376L92.43404160021271,-143.39699422739008A170.6070045455344,170.6070045455344,0,0,0,91.47538942765541,-144.0104271539349Z" fill-rule="evenodd" style="fill: #DB3F29; stroke: #fff; opacity: 1;" id="p-type-functions"></path><path d="M106.73363760033575,-165.58058643633376A197,197,0,0,1,107.83584390012965,-164.86488640807318L93.38858025604547,-142.77717982142718A170.6070045455344,170.6070045455344,0,0,0,92.43404160021271,-143.39699422739008Z" fill-rule="evenodd" style="fill: #DB3F29; stroke: #fff; opacity: 1;" id="p-type-functions"></path><path d="M107.83584390012965,-164.86488640807318A197,197,0,0,1,108.93325126935954,-164.1418495323072L94.33896291609881,-142.1510115191409A170.6070045455344,170.6070045455344,0,0,0,93.38858025604547,-142.77717982142718Z" fill-rule="evenodd" style="fill: #DB3F29; stroke: #fff; opacity: 1;" id="p-type-functions"></path><path d="M108.93325126935954,-164.1418495323072A197,197,0,0,1,110.02581087100084,-163.41150798575586L95.28514728626878,-141.51851718638824A170.6070045455344,170.6070045455344,0,0,0,94.33896291609881,-142.1510115191409Z" fill-rule="evenodd" style="fill: #DB3F29; stroke: #fff; opacity: 1;" id="p-type-functions"></path><path d="M110.02581087100084,-163.41150798575586A197,197,0,0,1,111.11347408376513,-162.67389427021308L96.22709125928445,-140.87972497054835A170.6070045455344,170.6070045455344,0,0,0,95.28514728626878,-141.51851718638824Z" fill-rule="evenodd" style="fill: #DB3F29; stroke: #fff; opacity: 1;" id="p-type-functions"></path><path d="M111.11347408376513,-162.67389427021308A197,197,0,0,1,112.19619250426398,-161.92904121110004L97.16475291658182,-140.23466329926993A170.6070045455344,170.6070045455344,0,0,0,96.22709125928445,-140.87972497054835Z" fill-rule="evenodd" style="fill: #DB3F29; stroke: #fff; opacity: 1;" id="p-type-functions"></path><path d="M112.19619250426398,-161.92904121110004A197,197,0,0,1,113.2739179491631,-161.1769819560047L98.09809053016934,-139.58336087920614A170.6070045455344,170.6070045455344,0,0,0,97.16475291658182,-140.23466329926993Z" fill-rule="evenodd" style="fill: #DB3F29; stroke: #fff; opacity: 1;" id="p-type-functions"></path><path d="M113.2739179491631,-161.1769819560047A197,197,0,0,1,114.34660245732644,-160.41774997320636L99.02706256448481,-138.92584669473715A170.6070045455344,170.6070045455344,0,0,0,98.09809053016934,-139.58336087920614Z" fill-rule="evenodd" style="fill: #DB3F29; stroke: #fff; opacity: 1;" id="p-type-functions"></path><path d="M114.34660245732644,-160.41774997320636A197,197,0,0,1,115.41419829195068,-159.65137905018636L99.95162767824387,-138.26215000668012A170.6070045455344,170.6070045455344,0,0,0,99.02706256448481,-138.92584669473715Z" fill-rule="evenodd" style="fill: #DB3F29; stroke: #fff; opacity: 1;" id="p-type-functions"></path><path d="M115.41419829195068,-159.65137905018636A197,197,0,0,1,116.4766579426896,-158.87790329212456L100.8717447262797,-137.59230035098716A170.6070045455344,170.6070045455344,0,0,0,99.95162767824387,-138.26215000668012Z" fill-rule="evenodd" style="fill: #DB3F29; stroke: #fff; opacity: 1;" id="p-type-functions"></path><path d="M195.91558320336907,20.641808498379582A197,197,0,0,1,195.77352321744712,21.948293943441033L169.54484449469183,19.00778012474807A170.6070045455344,170.6070045455344,0,0,0,169.66787205136148,17.876330539650237Z" fill-rule="evenodd" style="fill: #1DC690; stroke: #fff; opacity: 1;" id="p-type-logs"></path><path d="M195.77352321744712,21.948293943441033A197,197,0,0,1,195.6227508821782,23.25380264148755L169.41427182216103,20.138383822117902A170.6070045455344,170.6070045455344,0,0,0,169.54484449469183,19.00778012474807Z" fill-rule="evenodd" style="fill: #1DC690; stroke: #fff; opacity: 1;" id="p-type-logs"></path><path d="M195.6227508821782,23.25380264148755A197,197,0,0,1,195.46327290726046,24.558276494530872L169.27615984453814,21.268091317425988A170.6070045455344,170.6070045455344,0,0,0,169.41427182216103,20.138383822117902Z" fill-rule="evenodd" style="fill: #1DC690; stroke: #fff; opacity: 1;" id="p-type-logs"></path><path d="M195.46327290726046,24.558276494530872A197,197,0,0,1,195.29509638981204,25.861657450635608L169.13051470810785,22.39685233622154A170.6070045455344,170.6070045455344,0,0,0,169.27615984453814,21.268091317425988Z" fill-rule="evenodd" style="fill: #1DC690; stroke: #fff; opacity: 1;" id="p-type-logs"></path><path d="M195.29509638981204,25.861657450635608A197,197,0,0,1,195.11822881405539,27.16388750650266L168.9773428943968,23.524616646174035A170.6070045455344,170.6070045455344,0,0,0,169.13051470810785,22.39685233622154Z" fill-rule="evenodd" style="fill: #1DC690; stroke: #fff; opacity: 1;" id="p-type-logs"></path><path d="M195.11822881405539,27.16388750650266A197,197,0,0,1,194.93267805098378,28.464908710050516L168.81665121988522,24.65133405930868A170.6070045455344,170.6070045455344,0,0,0,168.9773428943968,23.524616646174035Z" fill-rule="evenodd" style="fill: #1DC690; stroke: #fff; opacity: 1;" id="p-type-logs"></path><path d="M194.93267805098378,28.464908710050516A197,197,0,0,1,194.73845235801144,29.764663162994218L168.6484468357035,25.776954434239872A170.6070045455344,170.6070045455344,0,0,0,168.81665121988522,24.65133405930868Z" fill-rule="evenodd" style="fill: #1DC690; stroke: #fff; opacity: 1;" id="p-type-logs"></path><path d="M194.73845235801144,29.764663162994218A197,197,0,0,1,194.5355603786059,31.063093023421985L168.47273722731424,26.9014276784026A170.6070045455344,170.6070045455344,0,0,0,168.6484468357035,25.776954434239872Z" fill-rule="evenodd" style="fill: #1DC690; stroke: #fff; opacity: 1;" id="p-type-logs"></path><path d="M194.5355603786059,31.063093023421985A197,197,0,0,1,194.3240111419034,32.36014050836929L168.28953021417865,28.024703750281684A170.6070045455344,170.6070045455344,0,0,0,168.47273722731424,26.9014276784026Z" fill-rule="evenodd" style="fill: #1DC690; stroke: #fff; opacity: 1;" id="p-type-logs"></path><path d="M194.3240111419034,32.36014050836929A197,197,0,0,1,194.10381406230692,33.655747896390345L168.09883394940894,29.14673266163872A170.6070045455344,170.6070045455344,0,0,0,168.28953021417865,28.024703750281684Z" fill-rule="evenodd" style="fill: #1DC690; stroke: #fff; opacity: 1;" id="p-type-logs"></path><path d="M194.10381406230692,33.655747896390345A197,197,0,0,1,193.87497893906743,34.949857530126806L167.9006569194054,30.267464479736674A170.6070045455344,170.6070045455344,0,0,0,168.09883394940894,29.14673266163872Z" fill-rule="evenodd" style="fill: #1DC690; stroke: #fff; opacity: 1;" id="p-type-logs"></path><path d="M193.87497893906743,34.949857530126806A197,197,0,0,1,193.63751595584768,36.242411818873684L167.69500794347866,31.38684932956199A170.6070045455344,170.6070045455344,0,0,0,167.9006569194054,30.267464479736674Z" fill-rule="evenodd" style="fill: #1DC690; stroke: #fff; opacity: 1;" id="p-type-logs"></path><path d="M193.63751595584768,36.242411818873684A197,197,0,0,1,193.39143568026904,37.533353241142215L167.4818961734573,32.50483739604416A170.6070045455344,170.6070045455344,0,0,0,167.69500794347866,31.38684932956199Z" fill-rule="evenodd" style="fill: #1DC690; stroke: #fff; opacity: 1;" id="p-type-logs"></path><path d="M193.39143568026904,37.533353241142215A197,197,0,0,1,193.13674906344121,38.82262434721974L167.26133109328046,33.62137892627255A170.6070045455344,170.6070045455344,0,0,0,167.4818961734573,32.50483739604416Z" fill-rule="evenodd" style="fill: #1DC690; stroke: #fff; opacity: 1;" id="p-type-logs"></path><path d="M193.13674906344121,38.82262434721974A197,197,0,0,1,192.87346743947487,40.110167761726295L167.033322518576,34.736424231710586A170.6070045455344,170.6070045455344,0,0,0,167.26133109328046,33.62137892627255Z" fill-rule="evenodd" style="fill: #1DC690; stroke: #fff; opacity: 1;" id="p-type-logs"></path><path d="M192.87346743947487,40.110167761726295A197,197,0,0,1,192.60160252497727,41.39592618616798L166.7978805962234,35.84992369040694A170.6070045455344,170.6070045455344,0,0,0,167.033322518576,34.736424231710586Z" fill-rule="evenodd" style="fill: #1DC690; stroke: #fff; opacity: 1;" id="p-type-logs"></path><path d="M192.60160252497727,41.39592618616798A197,197,0,0,1,192.32116641853085,42.67984240148686L166.55501580390242,36.961827749203856A170.6070045455344,170.6070045455344,0,0,0,166.7978805962234,35.84992369040694Z" fill-rule="evenodd" style="fill: #1DC690; stroke: #fff; opacity: 1;" id="p-type-logs"></path><path d="M192.32116641853085,42.67984240148686A197,197,0,0,1,192.03217160015484,43.96185927060729L166.3047389496267,38.072086925942344A170.6070045455344,170.6070045455344,0,0,0,166.55501580390242,36.961827749203856Z" fill-rule="evenodd" style="fill: #1DC690; stroke: #fff; opacity: 1;" id="p-type-logs"></path><path d="M192.03217160015484,43.96185927060729A197,197,0,0,1,191.7346309307498,45.24191974097874L166.04706117126292,39.180651811664276A170.6070045455344,170.6070045455344,0,0,0,166.3047389496267,38.072086925942344Z" fill-rule="evenodd" style="fill: #1DC690; stroke: #fff; opacity: 1;" id="p-type-logs"></path><path d="M191.7346309307498,45.24191974097874A197,197,0,0,1,191.42855765152532,46.51996684711463L165.7819939360349,40.287473072811146A170.6070045455344,170.6070045455344,0,0,0,166.04706117126292,39.180651811664276Z" fill-rule="evenodd" style="fill: #1DC690; stroke: #fff; opacity: 1;" id="p-type-logs"></path><path d="M191.42855765152532,46.51996684711463A197,197,0,0,1,191.11396538341083,47.795943713127535L165.50954904001358,41.39250145341958A170.6070045455344,170.6070045455344,0,0,0,165.7819939360349,40.287473072811146Z" fill-rule="evenodd" style="fill: #1DC690; stroke: #fff; opacity: 1;" id="p-type-logs"></path><path d="M191.11396538341083,47.795943713127535A197,197,0,0,1,190.79086812644923,49.06979355526022L165.22973860759177,42.49568777731328A170.6070045455344,170.6070045455344,0,0,0,165.50954904001358,41.39250145341958Z" fill-rule="evenodd" style="fill: #1DC690; stroke: #fff; opacity: 1;" id="p-type-logs"></path><path d="M190.79086812644923,49.06979355526022A197,197,0,0,1,190.45928025917416,50.341459684412655L164.94257509094487,43.59698295029151A170.6070045455344,170.6070045455344,0,0,0,165.22973860759177,42.49568777731328Z" fill-rule="evenodd" style="fill: #1DC690; stroke: #fff; opacity: 1;" id="p-type-logs"></path><path d="M190.45928025917416,50.341459684412655A197,197,0,0,1,190.11921653796992,51.61088550866481L164.6480712694765,44.696337962313876A170.6070045455344,170.6070045455344,0,0,0,164.94257509094487,43.59698295029151Z" fill-rule="evenodd" style="fill: #1DC690; stroke: #fff; opacity: 1;" id="p-type-logs"></path><path d="M190.11921653796992,51.61088550866481A197,197,0,0,1,189.7706920964147,52.87801453579512L164.34624024924992,45.79370388968138A170.6070045455344,170.6070045455344,0,0,0,164.6480712694765,44.696337962313876Z" fill-rule="evenodd" style="fill: #1DC690; stroke: #fff; opacity: 1;" id="p-type-logs"></path><path d="M189.7706920964147,52.87801453579512A197,197,0,0,1,189.41372244460743,54.1427903757945L164.03709546240472,46.88903189721365A170.6070045455344,170.6070045455344,0,0,0,164.34624024924992,45.79370388968138Z" fill-rule="evenodd" style="fill: #1DC690; stroke: #fff; opacity: 1;" id="p-type-logs"></path><path d="M189.41372244460743,54.1427903757945A197,197,0,0,1,189.04832346847712,55.405156743375834L163.72065066655907,47.98227324042217A170.6070045455344,170.6070045455344,0,0,0,164.03709546240472,46.88903189721365Z" fill-rule="evenodd" style="fill: #1DC690; stroke: #fff; opacity: 1;" id="p-type-logs"></path><path d="M189.04832346847712,55.405156743375834A197,197,0,0,1,188.6745114290763,56.66505746047879L163.39691994419746,49.07337926767956A170.6070045455344,170.6070045455344,0,0,0,163.72065066655907,47.98227324042217Z" fill-rule="evenodd" style="fill: #1DC690; stroke: #fff; opacity: 1;" id="p-type-logs"></path><path d="M188.6745114290763,56.66505746047879A197,197,0,0,1,188.29230296185708,57.92243645876988L163.06591770204412,50.16230142238467A170.6070045455344,170.6070045455344,0,0,0,163.39691994419746,49.07337926767956Z" fill-rule="evenodd" style="fill: #1DC690; stroke: #fff; opacity: 1;" id="p-type-logs"></path><path d="M188.29230296185708,57.92243645876988A197,197,0,0,1,187.90171507593098,59.17723778213759L162.72765867042168,51.24899124512344A170.6070045455344,170.6070045455344,0,0,0,163.06591770204412,50.16230142238467Z" fill-rule="evenodd" style="fill: #1DC690; stroke: #fff; opacity: 1;" id="p-type-logs"></path><path d="M187.90171507593098,59.17723778213759A197,197,0,0,1,187.50276515331197,60.42940558918258L162.38215790259576,52.333400375825455A170.6070045455344,170.6070045455344,0,0,0,162.72765867042168,51.24899124512344Z" fill-rule="evenodd" style="fill: #1DC690; stroke: #fff; opacity: 1;" id="p-type-logs"></path><path d="M187.50276515331197,60.42940558918258A197,197,0,0,1,187.09547094814295,61.67888415570274L162.0294307741052,53.415480555916076A170.6070045455344,170.6070045455344,0,0,0,162.38215790259576,52.333400375825455Z" fill-rule="evenodd" style="fill: #1DC690; stroke: #fff; opacity: 1;" id="p-type-logs"></path><path d="M187.09547094814295,61.67888415570274A197,197,0,0,1,186.67985058590548,62.92561787717303L161.6694929820775,54.49518363046406A170.6070045455344,170.6070045455344,0,0,0,162.0294307741052,53.415480555916076Z" fill-rule="evenodd" style="fill: #1DC690; stroke: #fff; opacity: 1;" id="p-type-logs"></path><path d="M186.67985058590548,62.92561787717303A197,197,0,0,1,186.25592256261348,64.16955127122003L161.30236054453047,55.57246155032456A170.6070045455344,170.6070045455344,0,0,0,161.6694929820775,54.49518363046406Z" fill-rule="evenodd" style="fill: #1DC690; stroke: #fff; opacity: 1;" id="p-type-logs"></path><path d="M186.25592256261348,64.16955127122003A197,197,0,0,1,185.82370574398973,65.41062898009096L160.92804979965942,56.64726637427737A170.6070045455344,170.6070045455344,0,0,0,161.30236054453047,55.57246155032456Z" fill-rule="evenodd" style="fill: #1DC690; stroke: #fff; opacity: 1;" id="p-type-logs"></path><path d="M185.82370574398973,65.41062898009096A197,197,0,0,1,185.38321936462668,66.64879577311733L160.54657740510999,57.719550271160514A170.6070045455344,170.6070045455344,0,0,0,160.92804979965942,56.64726637427737Z" fill-rule="evenodd" style="fill: #1DC690; stroke: #fff; opacity: 1;" id="p-type-logs"></path><path d="M185.38321936462668,66.64879577311733A197,197,0,0,1,184.9344830271302,67.8839965491727L160.15796033723686,58.78926552199873A170.6070045455344,170.6070045455344,0,0,0,160.54657740510999,57.719550271160514Z" fill-rule="evenodd" style="fill: #1DC690; stroke: #fff; opacity: 1;" id="p-type-logs"></path><path d="M184.9344830271302,67.8839965491727A197,197,0,0,1,184.47751670124734,69.1161763391249L159.76221589034824,59.85636452212711A170.6070045455344,170.6070045455344,0,0,0,160.15796033723686,58.78926552199873Z" fill-rule="evenodd" style="fill: #1DC690; stroke: #fff; opacity: 1;" id="p-type-logs"></path><path d="M184.47751670124734,69.1161763391249A197,197,0,0,1,184.0123407229776,70.34528030828226L159.35936167593638,60.92079978330966A170.6070045455344,170.6070045455344,0,0,0,159.76221589034824,59.85636452212711Z" fill-rule="evenodd" style="fill: #1DC690; stroke: #fff; opacity: 1;" id="p-type-logs"></path><path d="M184.0123407229776,70.34528030828226A197,197,0,0,1,183.53897579366793,71.57125375883378L158.9494156218936,61.98252393585255A170.6070045455344,170.6070045455344,0,0,0,159.35936167593638,60.92079978330966Z" fill-rule="evenodd" style="fill: #1DC690; stroke: #fff; opacity: 1;" id="p-type-logs"></path><path d="M183.53897579366793,71.57125375883378A197,197,0,0,1,183.05744297909152,72.79404213228345L158.53239597171458,63.041489730712215A170.6070045455344,170.6070045455344,0,0,0,158.9494156218936,61.98252393585255Z" fill-rule="evenodd" style="fill: #1DC690; stroke: #fff; opacity: 1;" id="p-type-logs"></path><path d="M183.05744297909152,72.79404213228345A197,197,0,0,1,182.56776370851026,74.01359101187809L158.10832128368457,64.09765004159803A170.6070045455344,170.6070045455344,0,0,0,158.53239597171458,63.041489730712215Z" fill-rule="evenodd" style="fill: #1DC690; stroke: #fff; opacity: 1;" id="p-type-logs"></path><path d="M182.56776370851026,74.01359101187809A197,197,0,0,1,182.06995977372114,75.22984612502914L157.67721043005335,65.15095786706955A170.6070045455344,170.6070045455344,0,0,0,158.10832128368457,64.09765004159803Z" fill-rule="evenodd" style="fill: #1DC690; stroke: #fff; opacity: 1;" id="p-type-logs"></path><path d="M182.06995977372114,75.22984612502914A197,197,0,0,1,181.5640533280865,76.44275334572775L157.23908259619543,66.20136633262813A170.6070045455344,170.6070045455344,0,0,0,157.67721043005335,65.15095786706955Z" fill-rule="evenodd" style="fill: #1DC690; stroke: #fff; opacity: 1;" id="p-type-logs"></path><path d="M181.5640533280865,76.44275334572775A197,197,0,0,1,181.05006688554795,77.65225869695368L156.79395727975628,67.248828692803A170.6070045455344,170.6070045455344,0,0,0,157.23908259619543,66.20136633262813Z" fill-rule="evenodd" style="fill: #1DC690; stroke: #fff; opacity: 1;" id="p-type-logs"></path><path d="M181.05006688554795,77.65225869695368A197,197,0,0,1,180.52802331962477,78.85830835307725L156.34185428978458,68.29329833323149A170.6070045455344,170.6070045455344,0,0,0,156.79395727975628,67.248828692803Z" fill-rule="evenodd" style="fill: #1DC690; stroke: #fff; opacity: 1;" id="p-type-logs"></path><path d="M180.52802331962477,78.85830835307725A197,197,0,0,1,179.9979458623958,80.0608486422548L155.88279374585085,69.33472877273354A170.6070045455344,170.6070045455344,0,0,0,156.34185428978458,68.29329833323149Z" fill-rule="evenodd" style="fill: #1DC690; stroke: #fff; opacity: 1;" id="p-type-logs"></path><path d="M179.9979458623958,80.0608486422548A197,197,0,0,1,179.45985810346554,81.25982604881713L155.4167960771518,70.3730736653801A170.6070045455344,170.6070045455344,0,0,0,155.88279374585085,69.33472877273354Z" fill-rule="evenodd" style="fill: #1DC690; stroke: #fff; opacity: 1;" id="p-type-logs"></path><path d="M179.45985810346554,81.25982604881713A197,197,0,0,1,178.9137839889144,82.45518721565118L154.9438820216014,71.40828680255579A170.6070045455344,170.6070045455344,0,0,0,155.4167960771518,70.3730736653801Z" fill-rule="evenodd" style="fill: #1DC690; stroke: #fff; opacity: 1;" id="p-type-logs"></path><path d="M178.9137839889144,82.45518721565118A197,197,0,0,1,178.35974782023308,83.64687894657429L154.464072624908,72.44032211501506A170.6070045455344,170.6070045455344,0,0,0,154.9438820216014,71.40828680255579Z" fill-rule="evenodd" style="fill: #1DC690; stroke: #fff; opacity: 1;" id="p-type-logs"></path><path d="M178.35974782023308,83.64687894657429A197,197,0,0,1,177.7977742532412,84.83484820870187L153.97738923963766,73.46913367493259A170.6070045455344,170.6070045455344,0,0,0,154.464072624908,72.44032211501506Z" fill-rule="evenodd" style="fill: #1DC690; stroke: #fff; opacity: 1;" id="p-type-logs"></path><path d="M177.7977742532412,84.83484820870187A197,197,0,0,1,177.22788829698968,86.01904213480725L153.48385352426388,74.49467569794709A170.6070045455344,170.6070045455344,0,0,0,153.97738923963766,73.46913367493259Z" fill-rule="evenodd" style="fill: #1DC690; stroke: #fff; opacity: 1;" id="p-type-logs"></path><path d="M177.22788829698968,86.01904213480725A197,197,0,0,1,176.65011531264827,87.19940802567449L152.98348744220388,75.51690254519876A170.6070045455344,170.6070045455344,0,0,0,153.48385352426388,74.49467569794709Z" fill-rule="evenodd" style="fill: #1DC690; stroke: #fff; opacity: 1;" id="p-type-logs"></path><path d="M176.65011531264827,87.19940802567449A197,197,0,0,1,176.06448101237663,88.37589335244353L152.4763132608411,76.5357687253604A170.6070045455344,170.6070045455344,0,0,0,152.98348744220388,75.51690254519876Z" fill-rule="evenodd" style="fill: #1DC690; stroke: #fff; opacity: 1;" id="p-type-logs"></path><path d="M176.06448101237663,88.37589335244353A197,197,0,0,1,175.47101145818004,89.54844575894795L151.96235355053423,77.5512288966618A170.6070045455344,170.6070045455344,0,0,0,152.4763132608411,76.5357687253604Z" fill-rule="evenodd" style="fill: #1DC690; stroke: #fff; opacity: 1;" id="p-type-logs"></path><path d="M175.47101145818004,89.54844575894795A197,197,0,0,1,174.86973306074987,90.71701306404482L151.4416311836129,78.56323786890762A170.6070045455344,170.6070045455344,0,0,0,151.96235355053423,77.5512288966618Z" fill-rule="evenodd" style="fill: #1DC690; stroke: #fff; opacity: 1;" id="p-type-logs"></path><path d="M174.86973306074987,90.71701306404482A197,197,0,0,1,174.26067257828797,91.88154326393695L150.9141693333597,79.57175060548836A170.6070045455344,170.6070045455344,0,0,0,151.4416311836129,78.56323786890762Z" fill-rule="evenodd" style="fill: #1DC690; stroke: #fff; opacity: 1;" id="p-type-logs"></path><path d="M174.26067257828797,91.88154326393695A197,197,0,0,1,173.64385711531594,93.04198453448714L150.37999147297884,80.57672222538473A170.6070045455344,170.6070045455344,0,0,0,150.9141693333597,79.57175060548836Z" fill-rule="evenodd" style="fill: #1DC690; stroke: #fff; opacity: 1;" id="p-type-logs"></path><path d="M173.64385711531594,93.04198453448714A197,197,0,0,1,173.019314121469,94.1982852335245L149.8391213745518,81.57810800516478A170.6070045455344,170.6070045455344,0,0,0,150.37999147297884,80.57672222538473Z" fill-rule="evenodd" style="fill: #1DC690; stroke: #fff; opacity: 1;" id="p-type-logs"></path><path d="M173.019314121469,94.1982852335245A197,197,0,0,1,172.38707139027437,95.35039390314257L149.29158310797922,82.57586338097431A170.6070045455344,170.6070045455344,0,0,0,149.8391213745518,81.57810800516478Z" fill-rule="evenodd" style="fill: #1DC690; stroke: #fff; opacity: 1;" id="p-type-logs"></path><path d="M172.38707139027437,95.35039390314257A197,197,0,0,1,171.7471570579144,96.49825927198938L148.7374010399097,83.56994395052006A170.6070045455344,170.6070045455344,0,0,0,149.29158310797922,82.57586338097431Z" fill-rule="evenodd" style="fill: #1DC690; stroke: #fff; opacity: 1;" id="p-type-logs"></path><path d="M171.7471570579144,96.49825927198938A197,197,0,0,1,171.0995996019744,97.64183025754913L148.17659983265565,84.56030547504561A170.6070045455344,170.6070045455344,0,0,0,148.7374010399097,83.56994395052006Z" fill-rule="evenodd" style="fill: #1DC690; stroke: #fff; opacity: 1;" id="p-type-logs"></path><path d="M171.0995996019744,97.64183025754913A197,197,0,0,1,170.44442784017545,98.78105596841543L147.60920444309556,85.54690388130021A170.6070045455344,170.6070045455344,0,0,0,148.17659983265565,84.56030547504561Z" fill-rule="evenodd" style="fill: #1DC690; stroke: #fff; opacity: 1;" id="p-type-logs"></path><path d="M170.44442784017545,98.78105596841543A197,197,0,0,1,169.7816709290918,99.91588570655611L147.03524012156342,86.52969526350007A170.6070045455344,170.6070045455344,0,0,0,147.60920444309556,85.54690388130021Z" fill-rule="evenodd" style="fill: #1DC690; stroke: #fff; opacity: 1;" id="p-type-logs"></path><path d="M169.7816709290918,99.91588570655611A197,197,0,0,1,169.11135836285345,101.04626896956937L146.45473241072506,87.5086358852823A170.6070045455344,170.6070045455344,0,0,0,147.03524012156342,86.52969526350007Z" fill-rule="evenodd" style="fill: #1DC690; stroke: #fff; opacity: 1;" id="p-type-logs"></path><path d="M169.11135836285345,101.04626896956937A197,197,0,0,1,168.43351997183353,102.17215545293129L145.86770714444143,88.48368218165126A170.6070045455344,170.6070045455344,0,0,0,146.45473241072506,87.5086358852823Z" fill-rule="evenodd" style="fill: #1DC690; stroke: #fff; opacity: 1;" id="p-type-logs"></path><path d="M168.43351997183353,102.17215545293129A197,197,0,0,1,167.7481859213208,103.29349505223446L145.27419044661895,89.45479076091726A170.6070045455344,170.6070045455344,0,0,0,145.86770714444143,88.48368218165126Z" fill-rule="evenodd" style="fill: #1DC690; stroke: #fff; opacity: 1;" id="p-type-logs"></path><path d="M167.7481859213208,103.29349505223446A197,197,0,0,1,167.05538671017732,104.41023786541774L144.67420873004687,90.42191840662768A170.6070045455344,170.6070045455344,0,0,0,145.27419044661895,89.45479076091726Z" fill-rule="evenodd" style="fill: #1DC690; stroke: #fff; opacity: 1;" id="p-type-logs"></path><path d="M167.05538671017732,104.41023786541774A197,197,0,0,1,166.35515316948099,105.522334194987L144.0677886952219,91.3850220794901A170.6070045455344,170.6070045455344,0,0,0,144.67420873004687,90.42191840662768Z" fill-rule="evenodd" style="fill: #1DC690; stroke: #fff; opacity: 1;" id="p-type-logs"></path><path d="M166.35515316948099,105.522334194987A197,197,0,0,1,165.64751646115366,106.6297345502268L143.45495732916004,92.34405891928768A170.6070045455344,170.6070045455344,0,0,0,144.0677886952219,91.3850220794901Z" fill-rule="evenodd" style="fill: #1DC690; stroke: #fff; opacity: 1;" id="p-type-logs"></path><path d="M165.64751646115366,106.6297345502268A197,197,0,0,1,164.93250807657432,107.73238964940278L142.83574190419546,93.29898624678653A170.6070045455344,170.6070045455344,0,0,0,143.45495732916004,92.34405891928768Z" fill-rule="evenodd" style="fill: #1DC690; stroke: #fff; opacity: 1;" id="p-type-logs"></path><path d="M164.93250807657432,107.73238964940278A197,197,0,0,1,164.21015983517765,108.83025042195487L142.21016997676693,94.24976156563504A170.6070045455344,170.6070045455344,0,0,0,142.83574190419546,93.29898624678653Z" fill-rule="evenodd" style="fill: #1DC690; stroke: #fff; opacity: 1;" id="p-type-logs"></path><path d="M164.21015983517765,108.83025042195487A197,197,0,0,1,163.48050388303795,109.92326801068101L141.57826938619144,95.19634256425509A170.6070045455344,170.6070045455344,0,0,0,142.21016997676693,94.24976156563504Z" fill-rule="evenodd" style="fill: #1DC690; stroke: #fff; opacity: 1;" id="p-type-logs"></path><path d="M93.0356981970787,173.64722531898425A197,197,0,0,1,91.8752345972591,174.26399877111336L79.56628713988134,150.91704990084438A170.6070045455344,170.6070045455344,0,0,0,80.57127809749224,150.38290842292074Z" fill-rule="evenodd" style="fill: #D7A449; stroke: #fff; opacity: 1;" id="p-type-tokenTransfers"></path><path d="M91.8752345972591,174.26399877111336A197,197,0,0,1,90.710682348847,174.87301709470955L78.55775530872216,151.44447524044887A170.6070045455344,170.6070045455344,0,0,0,79.56628713988134,150.91704990084438Z" fill-rule="evenodd" style="fill: #D7A449; stroke: #fff; opacity: 1;" id="p-type-tokenTransfers"></path><path d="M90.710682348847,174.87301709470955A197,197,0,0,1,89.54209327696081,175.4742531871273L77.54572748588386,151.96516097015473A170.6070045455344,170.6070045455344,0,0,0,78.55775530872216,151.44447524044887Z" fill-rule="evenodd" style="fill: #D7A449; stroke: #fff; opacity: 1;" id="p-type-tokenTransfers"></path><path d="M89.54209327696081,175.4742531871273A197,197,0,0,1,88.3695193863664,176.06768029204738L76.53024870881474,152.47908391830978A170.6070045455344,170.6070045455344,0,0,0,77.54572748588386,151.96516097015473Z" fill-rule="evenodd" style="fill: #D7A449; stroke: #fff; opacity: 1;" id="p-type-tokenTransfers"></path><path d="M88.3695193863664,176.06768029204738A197,197,0,0,1,87.19301285916278,176.65327200066764L75.5113641685382,152.98622121422048A170.6070045455344,170.6070045455344,0,0,0,76.53024870881474,152.47908391830978Z" fill-rule="evenodd" style="fill: #D7A449; stroke: #fff; opacity: 1;" id="p-type-tokenTransfers"></path><path d="M87.19301285916278,176.65327200066764A197,197,0,0,1,86.01262605245984,177.23100225287817L74.48911920764145,153.48655028916957A170.6070045455344,170.6070045455344,0,0,0,75.5113641685382,152.98622121422048Z" fill-rule="evenodd" style="fill: #D7A449; stroke: #fff; opacity: 1;" id="p-type-tokenTransfers"></path><path d="M86.01262605245984,177.23100225287817A197,197,0,0,1,84.82841149604845,177.80084533842094L73.46355931825786,153.9800488774205A170.6070045455344,170.6070045455344,0,0,0,74.48911920764145,153.48655028916957Z" fill-rule="evenodd" style="fill: #D7A449; stroke: #fff; opacity: 1;" id="p-type-tokenTransfers"></path><path d="M84.82841149604845,177.80084533842094A197,197,0,0,1,83.6404218900626,178.3627758980341L72.43473014004226,154.4666950172083A170.6070045455344,170.6070045455344,0,0,0,73.46355931825786,153.9800488774205Z" fill-rule="evenodd" style="fill: #D7A449; stroke: #fff; opacity: 1;" id="p-type-tokenTransfers"></path><path d="M83.6404218900626,178.3627758980341A197,197,0,0,1,82.44871010263435,178.91676892458057L71.40267745814003,154.94646705171698A170.6070045455344,170.6070045455344,0,0,0,72.43473014004226,154.4666950172083Z" fill-rule="evenodd" style="fill: #D7A449; stroke: #fff; opacity: 1;" id="p-type-tokenTransfers"></path><path d="M82.44871010263435,178.91676892458057A197,197,0,0,1,81.25332916754087,179.46279976416074L70.36744720114949,155.41934363004316A170.6070045455344,170.6070045455344,0,0,0,71.40267745814003,154.94646705171698Z" fill-rule="evenodd" style="fill: #D7A449; stroke: #fff; opacity: 1;" id="p-type-tokenTransfers"></path><path d="M81.25332916754087,179.46279976416074A197,197,0,0,1,80.05433228184448,180.00084411720974L69.32908543907799,155.88530370814635A170.6070045455344,170.6070045455344,0,0,0,70.36744720114949,155.41934363004316Z" fill-rule="evenodd" style="fill: #D7A449; stroke: #fff; opacity: 1;" id="p-type-tokenTransfers"></path><path d="M80.05433228184448,180.00084411720974A197,197,0,0,1,78.85177280352514,180.53087803957874L68.28763838129167,156.34432654978542A170.6070045455344,170.6070045455344,0,0,0,69.32908543907799,155.88530370814635Z" fill-rule="evenodd" style="fill: #D7A449; stroke: #fff; opacity: 1;" id="p-type-tokenTransfers"></path><path d="M78.85177280352514,180.53087803957874A197,197,0,0,1,77.645704249106,181.05287794360066L67.24315237445913,156.79639172744146A170.6070045455344,170.6070045455344,0,0,0,68.28763838129167,156.34432654978542Z" fill-rule="evenodd" style="fill: #D7A449; stroke: #fff; opacity: 1;" id="p-type-tokenTransfers"></path><path d="M77.645704249106,181.05287794360066A197,197,0,0,1,76.43618029127177,181.56682059913976L66.19567390048879,157.24147912322672A170.6070045455344,170.6070045455344,0,0,0,67.24315237445913,156.79639172744146Z" fill-rule="evenodd" style="fill: #D7A449; stroke: #fff; opacity: 1;" id="p-type-tokenTransfers"></path><path d="M76.43618029127177,181.56682059913976A197,197,0,0,1,75.22325475648012,182.07268313462535L65.14524957446038,157.67956892978006A170.6070045455344,170.6070045455344,0,0,0,66.19567390048879,157.24147912322672Z" fill-rule="evenodd" style="fill: #D7A449; stroke: #fff; opacity: 1;" id="p-type-tokenTransfers"></path><path d="M75.22325475648012,182.07268313462535A197,197,0,0,1,74.00698162256634,182.5704430380699L64.09192614255055,158.11064165114834A170.6070045455344,170.6070045455344,0,0,0,65.14524957446038,157.67956892978006Z" fill-rule="evenodd" style="fill: #D7A449; stroke: #fff; opacity: 1;" id="p-type-tokenTransfers"></path><path d="M74.00698162256634,182.5704430380699A197,197,0,0,1,72.78741501634121,183.06007815807055L63.035750479952405,158.53467810365396A170.6070045455344,170.6070045455344,0,0,0,64.09192614255055,158.11064165114834Z" fill-rule="evenodd" style="fill: #D7A449; stroke: #fff; opacity: 1;" id="p-type-tokenTransfers"></path><path d="M72.78741501634121,183.06007815807055A197,197,0,0,1,71.5646092111822,183.54156670479517L61.976769588789615,158.95165941674873A170.6070045455344,170.6070045455344,0,0,0,63.035750479952405,158.53467810365396Z" fill-rule="evenodd" style="fill: #D7A449; stroke: #fff; opacity: 1;" id="p-type-tokenTransfers"></path><path d="M71.5646092111822,183.54156670479517A197,197,0,0,1,70.33861862461819,184.01488725095183L60.91503059602461,159.3615670338535A170.6070045455344,170.6070045455344,0,0,0,61.976769588789615,158.95165941674873Z" fill-rule="evenodd" style="fill: #D7A449; stroke: #fff; opacity: 1;" id="p-type-tokenTransfers"></path><path d="M70.33861862461819,184.01488725095183A197,197,0,0,1,69.10949781590786,184.4800187327425L59.85058075136138,159.76438271318415A170.6070045455344,170.6070045455344,0,0,0,60.91503059602461,159.3615670338535Z" fill-rule="evenodd" style="fill: #D7A449; stroke: #fff; opacity: 1;" id="p-type-tokenTransfers"></path><path d="M69.10949781590786,184.4800187327425A197,197,0,0,1,67.87730148361152,184.93694045080045L58.783467425142746,160.16008852856314A170.6070045455344,170.6070045455344,0,0,0,59.85058075136138,159.76438271318415Z" fill-rule="evenodd" style="fill: #D7A449; stroke: #fff; opacity: 1;" id="p-type-tokenTransfers"></path><path d="M67.87730148361152,184.93694045080045A197,197,0,0,1,66.64208446315706,185.38563207111127L57.71373810624225,160.54866687021752A170.6070045455344,170.6070045455344,0,0,0,58.783467425142746,160.16008852856314Z" fill-rule="evenodd" style="fill: #D7A449; stroke: #fff; opacity: 1;" id="p-type-tokenTransfers"></path><path d="M66.64208446315706,185.38563207111127A197,197,0,0,1,65.40390172439956,185.82607362591796L56.641440399950866,160.93010044556243A170.6070045455344,170.6070045455344,0,0,0,57.71373810624225,160.54866687021752Z" fill-rule="evenodd" style="fill: #D7A449; stroke: #fff; opacity: 1;" id="p-type-tokenTransfers"></path><path d="M65.40390172439956,185.82607362591796A197,197,0,0,1,64.16280836917505,186.25824551460943L55.566622025858386,161.30437227997072A170.6070045455344,170.6070045455344,0,0,0,56.641440399950866,160.93010044556243Z" fill-rule="evenodd" style="fill: #D7A449; stroke: #fff; opacity: 1;" id="p-type-tokenTransfers"></path><path d="M64.16280836917505,186.25824551460943A197,197,0,0,1,62.91885962884837,186.68212850459275L54.489330815729815,161.6714657175284A170.6070045455344,170.6070045455344,0,0,0,55.566622025858386,161.30437227997072Z" fill-rule="evenodd" style="fill: #D7A449; stroke: #fff; opacity: 1;" id="p-type-tokenTransfers"></path><path d="M62.91885962884837,186.68212850459275A197,197,0,0,1,61.67211086185518,187.0977037321491L53.4096147113768,162.03136442177572A170.6070045455344,170.6070045455344,0,0,0,54.489330815729815,161.6714657175284Z" fill-rule="evenodd" style="fill: #D7A449; stroke: #fff; opacity: 1;" id="p-type-tokenTransfers"></path><path d="M61.67211086185518,187.0977037321491A197,197,0,0,1,60.422617551238496,187.50495270327332L52.32752176252402,162.38405237643434A170.6070045455344,170.6070045455344,0,0,0,53.4096147113768,162.03136442177572Z" fill-rule="evenodd" style="fill: #D7A449; stroke: #fff; opacity: 1;" id="p-type-tokenTransfers"></path><path d="M60.422617551238496,187.50495270327332A197,197,0,0,1,59.1704353021795,187.90385729449673L51.243100124671,162.72951388612006A170.6070045455344,170.6070045455344,0,0,0,52.32752176252402,162.38405237643434Z" fill-rule="evenodd" style="fill: #D7A449; stroke: #fff; opacity: 1;" id="p-type-tokenTransfers"></path><path d="M59.1704353021795,187.90385729449673A197,197,0,0,1,57.915619839522996,188.29439975369382L50.15639805694895,163.0677335770412A170.6070045455344,170.6070045455344,0,0,0,51.243100124671,162.72951388612006Z" fill-rule="evenodd" style="fill: #D7A449; stroke: #fff; opacity: 1;" id="p-type-tokenTransfers"></path><path d="M57.915619839522996,188.29439975369382A197,197,0,0,1,56.65822700529757,188.6765627008722L49.067463919973214,163.3986963976828A170.6070045455344,170.6070045455344,0,0,0,50.15639805694895,163.0677335770412Z" fill-rule="evenodd" style="fill: #D7A449; stroke: #fff; opacity: 1;" id="p-type-tokenTransfers"></path><path d="M56.65822700529757,188.6765627008722A197,197,0,0,1,55.39831275623043,189.0503291289462L47.97634617369108,163.72238761947665A170.6070045455344,170.6070045455344,0,0,0,49.067463919973214,163.3986963976828Z" fill-rule="evenodd" style="fill: #D7A449; stroke: #fff; opacity: 1;" id="p-type-tokenTransfers"></path><path d="M55.39831275623043,189.0503291289462A197,197,0,0,1,54.1359331612573,189.41568240449334L46.88309337522523,164.03879283745633A170.6070045455344,170.6070045455344,0,0,0,47.97634617369108,163.72238761947665Z" fill-rule="evenodd" style="fill: #D7A449; stroke: #fff; opacity: 1;" id="p-type-tokenTransfers"></path><path d="M54.1359331612573,189.41568240449334A197,197,0,0,1,52.871144399027145,189.772606268495L45.787754176712845,164.34789797089866A170.6070045455344,170.6070045455344,0,0,0,46.88309337522523,164.03879283745633Z" fill-rule="evenodd" style="fill: #D7A449; stroke: #fff; opacity: 1;" id="p-type-tokenTransfers"></path><path d="M52.871144399027145,189.772606268495A197,197,0,0,1,51.604002755402156,190.1210848370597L44.69037732314043,164.64968926395014A170.6070045455344,170.6070045455344,0,0,0,45.787754176712845,164.34789797089866Z" fill-rule="evenodd" style="fill: #D7A449; stroke: #fff; opacity: 1;" id="p-type-tokenTransfers"></path><path d="M51.604002755402156,190.1210848370597A197,197,0,0,1,50.33456462095286,190.4611026021301L43.59101165017462,164.9441532862391A170.6070045455344,170.6070045455344,0,0,0,44.69037732314043,164.64968926395014Z" fill-rule="evenodd" style="fill: #D7A449; stroke: #fff; opacity: 1;" id="p-type-tokenTransfers"></path><path d="M50.33456462095286,190.4611026021301A197,197,0,0,1,49.062886488448676,190.792644432173L42.48970608198884,165.23127693347345A170.6070045455344,170.6070045455344,0,0,0,43.59101165017462,164.9441532862391Z" fill-rule="evenodd" style="fill: #D7A449; stroke: #fff; opacity: 1;" id="p-type-tokenTransfers"></path><path d="M49.062886488448676,190.792644432173A197,197,0,0,1,47.789024950343794,191.11569557285299L41.38650962908609,165.51104742802386A170.6070045455344,170.6070045455344,0,0,0,42.48970608198884,165.23127693347345Z" fill-rule="evenodd" style="fill: #D7A449; stroke: #fff; opacity: 1;" id="p-type-tokenTransfers"></path><path d="M47.789024950343794,191.11569557285299A197,197,0,0,1,46.513036696258744,191.4302416476887L40.28147138611789,165.78345231949226A170.6070045455344,170.6070045455344,0,0,0,41.38650962908609,165.51104742802386Z" fill-rule="evenodd" style="fill: #D7A449; stroke: #fff; opacity: 1;" id="p-type-tokenTransfers"></path><path d="M46.513036696258744,191.4302416476887A197,197,0,0,1,45.23497851045756,191.73626865869286L39.17464052969941,166.04847948526609A170.6070045455344,170.6070045455344,0,0,0,40.28147138611789,165.78345231949226Z" fill-rule="evenodd" style="fill: #D7A449; stroke: #fff; opacity: 1;" id="p-type-tokenTransfers"></path><path d="M45.23497851045756,191.73626865869286A197,197,0,0,1,43.95490726932075,192.0337629869951L38.066066316221054,166.30611713105762A170.6070045455344,170.6070045455344,0,0,0,39.17464052969941,166.04847948526609Z" fill-rule="evenodd" style="fill: #D7A449; stroke: #fff; opacity: 1;" id="p-type-tokenTransfers"></path><path d="M43.95490726932075,192.0337629869951A197,197,0,0,1,42.67287993881417,192.32271139344815L36.95579807965641,166.556353791429A170.6070045455344,170.6070045455344,0,0,0,38.066066316221054,166.30611713105762Z" fill-rule="evenodd" style="fill: #D7A449; stroke: #fff; opacity: 1;" id="p-type-tokenTransfers"></path><path d="M42.67287993881417,192.32271139344815A197,197,0,0,1,41.38895357195396,192.60310101921684L35.84388522936681,166.79917833030228A170.6070045455344,170.6070045455344,0,0,0,36.95579807965641,166.556353791429Z" fill-rule="evenodd" style="fill: #D7A449; stroke: #fff; opacity: 1;" id="p-type-tokenTransfers"></path><path d="M41.38895357195396,192.60310101921684A197,197,0,0,1,40.10318530626749,192.8749193863504L34.73037724790247,167.03457994145515A170.6070045455344,170.6070045455344,0,0,0,35.84388522936681,166.79917833030228Z" fill-rule="evenodd" style="fill: #D7A449; stroke: #fff; opacity: 1;" id="p-type-tokenTransfers"></path><path d="M40.10318530626749,192.8749193863504A197,197,0,0,1,38.81563236125067,193.13815439833795L33.61532368880044,167.26254814900187A170.6070045455344,170.6070045455344,0,0,0,34.73037724790247,167.03457994145515Z" fill-rule="evenodd" style="fill: #D7A449; stroke: #fff; opacity: 1;" id="p-type-tokenTransfers"></path><path d="M38.81563236125067,193.13815439833795A197,197,0,0,1,37.52635203582154,193.3927943406465L32.498774174379335,167.4830728078593A170.6070045455344,170.6070045455344,0,0,0,33.61532368880044,167.26254814900187Z" fill-rule="evenodd" style="fill: #D7A449; stroke: #fff; opacity: 1;" id="p-type-tokenTransfers"></path><path d="M37.52635203582154,193.3927943406465A197,197,0,0,1,36.235401705770315,193.6388278812425L31.380778393531074,167.69614410419845A170.6070045455344,170.6070045455344,0,0,0,32.498774174379335,167.4830728078593Z" fill-rule="evenodd" style="fill: #D7A449; stroke: #fff; opacity: 1;" id="p-type-tokenTransfers"></path><path d="M36.235401705770315,193.6388278812425A197,197,0,0,1,34.9428388212061,193.87624407109607L30.261386099509572,167.90175255588136A170.6070045455344,170.6070045455344,0,0,0,31.380778393531074,167.69614410419845Z" fill-rule="evenodd" style="fill: #D7A449; stroke: #fff; opacity: 1;" id="p-type-tokenTransfers"></path><path d="M34.9428388212061,193.87624407109607A197,197,0,0,1,33.648720904000164,194.10503234466825L29.140647107716624,168.0998890128828A170.6070045455344,170.6070045455344,0,0,0,30.261386099509572,167.90175255588136Z" fill-rule="evenodd" style="fill: #D7A449; stroke: #fff; opacity: 1;" id="p-type-tokenTransfers"></path><path d="M33.648720904000164,194.10503234466825A197,197,0,0,1,32.35310554522615,194.32518252038116L28.018611293485037,168.29054465769784A170.6070045455344,170.6070045455344,0,0,0,29.140647107716624,168.0998890128828Z" fill-rule="evenodd" style="fill: #D7A449; stroke: #fff; opacity: 1;" id="p-type-tokenTransfers"></path><path d="M32.35310554522615,194.32518252038116A197,197,0,0,1,31.0560504025971,194.53668480107126L26.895328589859034,168.4737110057338A170.6070045455344,170.6070045455344,0,0,0,28.018611293485037,168.29054465769784Z" fill-rule="evenodd" style="fill: #D7A449; stroke: #fff; opacity: 1;" id="p-type-tokenTransfers"></path><path d="M31.0560504025971,194.53668480107126A197,197,0,0,1,29.757613197899605,194.73952977442508L25.770848985372147,168.6493799056882A170.6070045455344,170.6070045455344,0,0,0,26.895328589859034,168.4737110057338Z" fill-rule="evenodd" style="fill: #D7A449; stroke: #fff; opacity: 1;" id="p-type-tokenTransfers"></path><path d="M29.757613197899605,194.73952977442508A197,197,0,0,1,28.457851714425022,194.9337084133983L24.645222521822607,168.8175435399113A170.6070045455344,170.6070045455344,0,0,0,25.770848985372147,168.6493799056882Z" fill-rule="evenodd" style="fill: #D7A449; stroke: #fff; opacity: 1;" id="p-type-tokenTransfers"></path><path d="M28.457851714425022,194.9337084133983A197,197,0,0,1,27.156823794398,195.11921207661746L23.51849929204638,168.97819442475415A170.6070045455344,170.6070045455344,0,0,0,24.645222521822607,168.8175435399113Z" fill-rule="evenodd" style="fill: #D7A449; stroke: #fff; opacity: 1;" id="p-type-tokenTransfers"></path><path d="M27.156823794398,195.11921207661746A197,197,0,0,1,25.854587336402393,195.29603250876434L22.390729437687916,169.1313254109015A170.6070045455344,170.6070045455344,0,0,0,23.51849929204638,168.97819442475415Z" fill-rule="evenodd" style="fill: #D7A449; stroke: #fff; opacity: 1;" id="p-type-tokenTransfers"></path><path d="M25.854587336402393,195.29603250876434A197,197,0,0,1,24.55120029280463,195.4641618409436L21.261963146968757,169.27692968369004A170.6070045455344,170.6070045455344,0,0,0,22.390729437687916,169.1313254109015Z" fill-rule="evenodd" style="fill: #D7A449; stroke: #fff; opacity: 1;" id="p-type-tokenTransfers"></path><path d="M24.55120029280463,195.4641618409436A197,197,0,0,1,23.246720667174706,195.62359259103272L20.13225065245403,169.41500076341163A170.6070045455344,170.6070045455344,0,0,0,21.261963146968757,169.27692968369004Z" fill-rule="evenodd" style="fill: #D7A449; stroke: #fff; opacity: 1;" id="p-type-tokenTransfers"></path><path d="M23.246720667174706,195.62359259103272A197,197,0,0,1,21.941206511704916,195.77431766401517L19.001642228817005,169.5455325056017A170.6070045455344,170.6070045455344,0,0,0,20.13225065245403,169.41500076341163Z" fill-rule="evenodd" style="fill: #D7A449; stroke: #fff; opacity: 1;" id="p-type-tokenTransfers"></path><path d="M21.941206511704916,195.77431766401517A197,197,0,0,1,20.634715924626384,195.91633035229597L17.87018819060175,169.6685191013126A170.6070045455344,170.6070045455344,0,0,0,19.001642228817005,169.5455325056017Z" fill-rule="evenodd" style="fill: #D7A449; stroke: #fff; opacity: 1;" id="p-type-tokenTransfers"></path><path d="M20.634715924626384,195.91633035229597A197,197,0,0,1,19.32730704762357,196.0496243360004L16.737938889984026,169.78395507737224A170.6070045455344,170.6070045455344,0,0,0,17.87018819060175,169.6685191013126Z" fill-rule="evenodd" style="fill: #D7A449; stroke: #fff; opacity: 1;" id="p-type-tokenTransfers"></path><path d="M-58.59896001925848,188.08285909317027A197,197,0,0,1,-77.7642900286382,181.00197566971983L-67.3458506720616,156.75230906515023A170.6070045455344,170.6070045455344,0,0,0,-50.748188012026496,162.88453399109446Z" fill-rule="evenodd" style="fill: #414552; stroke: #fff; opacity: 1;" id="p-type-ether"></path><path d="M-77.7642900286382,181.00197566971983A197,197,0,0,1,-81.99449040518097,179.12538497710113L-71.00931166124613,155.12713385283703A170.6070045455344,170.6070045455344,0,0,0,-67.3458506720616,156.75230906515023Z" fill-rule="evenodd" style="fill: #414552; stroke: #fff; opacity: 1;" id="p-type-ether"></path><path d="M-81.99449040518097,179.12538497710113A197,197,0,0,1,-85.92750282423785,177.27228846717864L-74.41540032954907,153.52230519957988A170.6070045455344,170.6070045455344,0,0,0,-71.00931166124613,155.12713385283703Z" fill-rule="evenodd" style="fill: #414552; stroke: #fff; opacity: 1;" id="p-type-ether"></path><path d="M-85.92750282423785,177.27228846717864A197,197,0,0,1,-88.54693820140506,175.97852066418946L-76.68389790974754,152.40186941559284A170.6070045455344,170.6070045455344,0,0,0,-74.41540032954907,153.52230519957988Z" fill-rule="evenodd" style="fill: #414552; stroke: #fff; opacity: 1;" id="p-type-ether"></path><path d="M-88.54693820140506,175.97852066418946A197,197,0,0,1,-90.17574545389904,175.1494645490919L-78.09448636827567,151.68388575875554A170.6070045455344,170.6070045455344,0,0,0,-76.68389790974754,152.40186941559284Z" fill-rule="evenodd" style="fill: #414552; stroke: #fff; opacity: 1;" id="p-type-ether"></path><path d="M-90.17574545389904,175.1494645490919A197,197,0,0,1,-91.33050972658569,174.550101670214L-79.09454156380497,151.1648222795619A170.6070045455344,170.6070045455344,0,0,0,-78.09448636827567,151.68388575875554Z" fill-rule="evenodd" style="fill: #414552; stroke: #fff; opacity: 1;" id="p-type-ether"></path></g></svg>