<svg xmlns="http://www.w3.org/2000/svg" width="400" height="400" id="block-7824819"><g id="burst-container" transform="translate(200,200)"><circle r="197" style="fill: #f9f9f9; stroke: #f9f9f9; stroke-width: 3; opacity: 1;" id="circle-base"></circle><path display="none" d="M6.031385485800715e-15,-98.5A98.5,98.5,0,1,1,-6.031385485800715e-15,98.5A98.5,98.5,0,1,1,6.031385485800715e-15,-98.5Z" fill-rule="evenodd" id="p-type-root" style="stroke: #fff; opacity: 1;"></path><path d="M8.529667153919608e-15,-139.30003589374985A139.30003589374985,139.30003589374985,0,1,1,-95.78063092133804,-101.14628386802165L-67.72713363080406,-71.52122321489762A98.5,98.5,0,1,0,6.031385485800715e-15,-98.5Z" fill-rule="evenodd" style="fill: #0B1F65; stroke: #fff; opacity: 1;" id="p-type-data"></path><path d="M-95.78063092133804,-101.14628386802165A139.30003589374985,139.30003589374985,0,0,1,-2.4848431090951277,-139.27787173389453L-1.7570494126258291,-98.484327572267A98.5,98.5,0,0,0,-67.72713363080406,-71.52122321489762Z" fill-rule="evenodd" style="fill: #D7A449; stroke: #fff; opacity: 1;" id="p-type-value"></path><path d="M1.0446666101440332e-14,-170.6070045455344A170.6070045455344,170.6070045455344,0,0,1,157.90795904976343,64.58967772592024L128.93130866540722,52.737251026437576A139.30003589374985,139.30003589374985,0,0,0,8.529667153919608e-15,-139.30003589374985Z" fill-rule="evenodd" style="fill: #DB3F29; stroke: #fff; opacity: 1;" id="p-type-functions"></path><path d="M157.90795904976343,64.58967772592024A170.6070045455344,170.6070045455344,0,0,1,16.072377374459244,169.84825193546433L13.123041173626115,138.68051698185766A139.30003589374985,139.30003589374985,0,0,0,128.93130866540722,52.737251026437576Z" fill-rule="evenodd" style="fill: #1DC690; stroke: #fff; opacity: 1;" id="p-type-logs"></path><path d="M16.072377374459244,169.84825193546433A170.6070045455344,170.6070045455344,0,0,1,-122.69655725295303,118.54241788605808L-100.18131948863912,96.78947889887213A139.30003589374985,139.30003589374985,0,0,0,13.123041173626115,138.68051698185766Z" fill-rule="evenodd" style="fill: #D7A449; stroke: #fff; opacity: 1;" id="p-type-tokenTransfers"></path><path d="M-122.69655725295303,118.54241788605808A170.6070045455344,170.6070045455344,0,0,1,-167.06290120780383,34.593887321773636L-136.40628763603831,28.24579071922718A139.30003589374985,139.30003589374985,0,0,0,-100.18131948863912,96.78947889887213Z" fill-rule="evenodd" style="fill: #414552; stroke: #fff; opacity: 1;" id="p-type-ether"></path><path d="M-117.30683649955944,-123.87839242767735A170.6070045455344,170.6070045455344,0,0,1,-52.39964907845721,-162.36079199256986L-42.784134314372984,-132.567031538651A139.30003589374985,139.30003589374985,0,0,0,-95.78063092133804,-101.14628386802165Z" fill-rule="evenodd" style="fill: #D7A449; stroke: #fff; opacity: 1;" id="p-type-tokenTransfers"></path><path d="M-52.39964907845721,-162.36079199256986A170.6070045455344,170.6070045455344,0,0,1,-6.085629263862213,-170.49843141936182L-4.968895486737211,-139.2113863074493A139.30003589374985,139.30003589374985,0,0,0,-42.784134314372984,-132.567031538651Z" fill-rule="evenodd" style="fill: #414552; stroke: #fff; opacity: 1;" id="p-type-ether"></path><path d="M1.206277097160143e-14,-197A197,197,0,0,1,12.457826736439115,-196.60570325655576L10.78879442970126,-170.26553354908222A170.6070045455344,170.6070045455344,0,0,0,1.0446666101440332e-14,-170.6070045455344Z" fill-rule="evenodd" style="fill: #DB3F29; stroke: #fff; opacity: 1;" id="p-type-functions"></path><path d="M12.457826736439115,-196.60570325655576A197,197,0,0,1,24.356588123302945,-195.4885076289442L21.093424064294695,-169.29801375457373A170.6070045455344,170.6070045455344,0,0,0,10.78879442970126,-170.26553354908222Z" fill-rule="evenodd" style="fill: #DB3F29; stroke: #fff; opacity: 1;" id="p-type-functions"></path><path d="M24.356588123302945,-195.4885076289442A197,197,0,0,1,34.09274493574733,-194.02753604255784L29.525183199100454,-168.03277524655587A170.6070045455344,170.6070045455344,0,0,0,21.093424064294695,-169.29801375457373Z" fill-rule="evenodd" style="fill: #DB3F29; stroke: #fff; opacity: 1;" id="p-type-functions"></path><path d="M34.09274493574733,-194.02753604255784A197,197,0,0,1,40.67603586337386,-192.75492239224792L35.226480382928656,-166.93065949618463A170.6070045455344,170.6070045455344,0,0,0,29.525183199100454,-168.03277524655587Z" fill-rule="evenodd" style="fill: #DB3F29; stroke: #fff; opacity: 1;" id="p-type-functions"></path><path d="M40.67603586337386,-192.75492239224792A197,197,0,0,1,45.81002425078526,-191.59969122663654L39.672644749161236,-165.93019995952167A170.6070045455344,170.6070045455344,0,0,0,35.226480382928656,-166.93065949618463Z" fill-rule="evenodd" style="fill: #DB3F29; stroke: #fff; opacity: 1;" id="p-type-functions"></path><path d="M45.81002425078526,-191.59969122663654A197,197,0,0,1,50.07071779994586,-190.5306359066651L43.36251360047479,-165.0043708943755A170.6070045455344,170.6070045455344,0,0,0,39.672644749161236,-165.93019995952167Z" fill-rule="evenodd" style="fill: #DB3F29; stroke: #fff; opacity: 1;" id="p-type-functions"></path><path d="M50.07071779994586,-190.5306359066651A197,197,0,0,1,51.77096589460432,-190.07568779394094L44.83497164318511,-164.6103742713526A170.6070045455344,170.6070045455344,0,0,0,43.36251360047479,-165.0043708943755Z" fill-rule="evenodd" style="fill: #DB3F29; stroke: #fff; opacity: 1;" id="p-type-functions"></path><path d="M51.77096589460432,-190.07568779394094A197,197,0,0,1,53.46426520739836,-189.60636156477707L46.30141186427548,-164.20392583423433A170.6070045455344,170.6070045455344,0,0,0,44.83497164318511,-164.6103742713526Z" fill-rule="evenodd" style="fill: #DB3F29; stroke: #fff; opacity: 1;" id="p-type-functions"></path><path d="M53.46426520739836,-189.60636156477707A197,197,0,0,1,55.15331106080868,-189.12195081224624L47.764168481485584,-163.78441381667628A170.6070045455344,170.6070045455344,0,0,0,46.30141186427548,-164.20392583423433Z" fill-rule="evenodd" style="fill: #DB3F29; stroke: #fff; opacity: 1;" id="p-type-functions"></path><path d="M55.15331106080868,-189.12195081224624A197,197,0,0,1,56.83796907932465,-188.62249407464034L49.223125122209574,-163.3518715938183A170.6070045455344,170.6070045455344,0,0,0,47.764168481485584,-163.78441381667628Z" fill-rule="evenodd" style="fill: #DB3F29; stroke: #fff; opacity: 1;" id="p-type-functions"></path><path d="M56.83796907932465,-188.62249407464034A197,197,0,0,1,58.5181052365189,-188.10803108726566L50.67816571615655,-162.90633357744497A170.6070045455344,170.6070045455344,0,0,0,49.223125122209574,-163.3518715938183Z" fill-rule="evenodd" style="fill: #DB3F29; stroke: #fff; opacity: 1;" id="p-type-functions"></path><path d="M58.5181052365189,-188.10803108726566A197,197,0,0,1,60.19358586571008,-187.57860277928128L52.129174504584846,-162.44783521324788A170.6070045455344,170.6070045455344,0,0,0,50.67816571615655,-162.90633357744497Z" fill-rule="evenodd" style="fill: #DB3F29; stroke: #fff; opacity: 1;" id="p-type-functions"></path><path d="M60.19358586571008,-187.57860277928128A197,197,0,0,1,61.86427767059685,-187.03425127044324L53.576036049511266,-161.97641297800575A170.6070045455344,170.6070045455344,0,0,0,52.129174504584846,-162.44783521324788Z" fill-rule="evenodd" style="fill: #DB3F29; stroke: #fff; opacity: 1;" id="p-type-functions"></path><path d="M61.86427767059685,-187.03425127044324A197,197,0,0,1,63.53004773586265,-186.47501986775336L55.018635242895115,-161.49210437668233A170.6070045455344,170.6070045455344,0,0,0,53.576036049511266,-161.97641297800575Z" fill-rule="evenodd" style="fill: #DB3F29; stroke: #fff; opacity: 1;" id="p-type-functions"></path><path d="M63.53004773586265,-186.47501986775336A197,197,0,0,1,65.19076353775,-185.90095306201408L56.45685731579581,-160.9949479394427A170.6070045455344,170.6070045455344,0,0,0,55.018635242895115,-161.49210437668233Z" fill-rule="evenodd" style="fill: #DB3F29; stroke: #fff; opacity: 1;" id="p-type-functions"></path><path d="M65.19076353775,-185.90095306201408A197,197,0,0,1,66.84629295460373,-185.3120965242887L57.89058784750357,-160.48498321858798A170.6070045455344,170.6070045455344,0,0,0,56.45685731579581,-160.9949479394427Z" fill-rule="evenodd" style="fill: #DB3F29; stroke: #fff; opacity: 1;" id="p-type-functions"></path><path d="M66.84629295460373,-185.3120965242887A197,197,0,0,1,68.49650427738224,-184.70849710226804L59.31971277464248,-159.9622507854085A170.6070045455344,170.6070045455344,0,0,0,57.89058784750357,-160.48498321858798Z" fill-rule="evenodd" style="fill: #DB3F29; stroke: #fff; opacity: 1;" id="p-type-functions"></path><path d="M68.49650427738224,-184.70849710226804A197,197,0,0,1,70.14126622013572,-184.0902028165433L60.744118400244844,-159.4267922269561A170.6070045455344,170.6070045455344,0,0,0,59.31971277464248,-159.9622507854085Z" fill-rule="evenodd" style="fill: #DB3F29; stroke: #fff; opacity: 1;" id="p-type-functions"></path><path d="M70.14126622013572,-184.0902028165433A197,197,0,0,1,71.780447930451,-183.45726285678583L62.16369140279671,-158.87865014273584A170.6070045455344,170.6070045455344,0,0,0,60.744118400244844,-159.4267922269561Z" fill-rule="evenodd" style="fill: #DB3F29; stroke: #fff; opacity: 1;" id="p-type-functions"></path><path d="M71.780447930451,-183.45726285678583A197,197,0,0,1,73.41391899986188,-182.80972757783354L63.578318845253456,-158.31786814131652A170.6070045455344,170.6070045455344,0,0,0,62.16369140279671,-158.87865014273584Z" fill-rule="evenodd" style="fill: #DB3F29; stroke: #fff; opacity: 1;" id="p-type-functions"></path><path d="M73.41391899986188,-182.80972757783354A197,197,0,0,1,75.04154947422376,-182.14764849568502L64.98788818402456,-157.74449083686162A170.6070045455344,170.6070045455344,0,0,0,63.578318845253456,-158.31786814131652Z" fill-rule="evenodd" style="fill: #DB3F29; stroke: #fff; opacity: 1;" id="p-type-functions"></path><path d="M75.04154947422376,-182.14764849568502A197,197,0,0,1,76.66320986405262,-181.4710782834009L66.39228727792732,-157.15856384557975A170.6070045455344,170.6070045455344,0,0,0,64.98788818402456,-157.74449083686162Z" fill-rule="evenodd" style="fill: #DB3F29; stroke: #fff; opacity: 1;" id="p-type-functions"></path><path d="M76.66320986405262,-181.4710782834009A197,197,0,0,1,78.27877115482681,-180.7800707669135L67.79140439710855,-156.56013378209565A170.6070045455344,170.6070045455344,0,0,0,66.39228727792732,-157.15856384557975Z" fill-rule="evenodd" style="fill: #DB3F29; stroke: #fff; opacity: 1;" id="p-type-functions"></path><path d="M78.27877115482681,-180.7800707669135A197,197,0,0,1,79.88810481725096,-180.07468092074444L69.18512823193332,-155.94924825574165A170.6070045455344,170.6070045455344,0,0,0,67.79140439710855,-156.56013378209565Z" fill-rule="evenodd" style="fill: #DB3F29; stroke: #fff; opacity: 1;" id="p-type-functions"></path><path d="M79.88810481725096,-180.07468092074444A197,197,0,0,1,81.49108281748157,-179.35496486363112L70.5733479018406,-155.32595586676996A170.6070045455344,170.6070045455344,0,0,0,69.18512823193332,-155.94924825574165Z" fill-rule="evenodd" style="fill: #DB3F29; stroke: #fff; opacity: 1;" id="p-type-functions"></path><path d="M81.49108281748157,-179.35496486363112A197,197,0,0,1,83.08757762731281,-178.6209798540621L71.95595296416447,-154.69030620248623A170.6070045455344,170.6070045455344,0,0,0,70.5733479018406,-155.32595586676996Z" fill-rule="evenodd" style="fill: #DB3F29; stroke: #fff; opacity: 1;" id="p-type-functions"></path><path d="M83.08757762731281,-178.6209798540621A197,197,0,0,1,84.67746223432232,-177.8727842857218L73.33283342292054,-154.04234983330457A170.6070045455344,170.6070045455344,0,0,0,71.95595296416447,-154.69030620248623Z" fill-rule="evenodd" style="fill: #DB3F29; stroke: #fff; opacity: 1;" id="p-type-functions"></path><path d="M84.67746223432232,-177.8727842857218A197,197,0,0,1,86.26061015197617,-177.1104376828446L74.7038797375572,-153.38213830872417A170.6070045455344,170.6070045455344,0,0,0,73.33283342292054,-154.04234983330457Z" fill-rule="evenodd" style="fill: #DB3F29; stroke: #fff; opacity: 1;" id="p-type-functions"></path><path d="M86.26061015197617,-177.1104376828446A197,197,0,0,1,87.83689542969142,-176.33400069547974L76.06898283167003,-152.70972415322834A170.6070045455344,170.6070045455344,0,0,0,74.7038797375572,-153.38213830872417Z" fill-rule="evenodd" style="fill: #DB3F29; stroke: #fff; opacity: 1;" id="p-type-functions"></path><path d="M87.83689542969142,-176.33400069547974A197,197,0,0,1,89.40619266285663,-175.5435350946658L77.42803410167971,-152.02516086210574A170.6070045455344,170.6070045455344,0,0,0,76.06898283167003,-152.70972415322834Z" fill-rule="evenodd" style="fill: #DB3F29; stroke: #fff; opacity: 1;" id="p-type-functions"></path><path d="M89.40619266285663,-175.5435350946658A197,197,0,0,1,90.96837700280851,-174.7391037675165L78.78092542547228,-151.3285028971944A170.6070045455344,170.6070045455344,0,0,0,77.42803410167971,-152.02516086210574Z" fill-rule="evenodd" style="fill: #DB3F29; stroke: #fff; opacity: 1;" id="p-type-functions"></path><path d="M90.96837700280851,-174.7391037675165A197,197,0,0,1,92.52332416676464,-173.92077071221766L80.12754917100085,-150.61980568254907A170.6070045455344,170.6070045455344,0,0,0,78.78092542547228,-151.3285028971944Z" fill-rule="evenodd" style="fill: #DB3F29; stroke: #fff; opacity: 1;" id="p-type-functions"></path><path d="M92.52332416676464,-173.92077071221766A197,197,0,0,1,94.07091044771104,-173.08860103293551L81.46779820484872,-149.8991256000316A170.6070045455344,170.6070045455344,0,0,0,80.12754917100085,-150.61980568254907Z" fill-rule="evenodd" style="fill: #DB3F29; stroke: #fff; opacity: 1;" id="p-type-functions"></path><path d="M94.07091044771104,-173.08860103293551A197,197,0,0,1,95.61101272424385,-172.24266093463746L82.80156590075238,-149.16651998482556A170.6070045455344,170.6070045455344,0,0,0,81.46779820484872,-149.8991256000316Z" fill-rule="evenodd" style="fill: #DB3F29; stroke: #fff; opacity: 1;" id="p-type-functions"></path><path d="M95.61101272424385,-172.24266093463746A197,197,0,0,1,97.14350847036451,-171.3830177178247L84.12874614808446,-148.42204712087474A170.6070045455344,170.6070045455344,0,0,0,82.80156590075238,-149.16651998482556Z" fill-rule="evenodd" style="fill: #DB3F29; stroke: #fff; opacity: 1;" id="p-type-functions"></path><path d="M97.14350847036451,-171.3830177178247A197,197,0,0,1,98.66827576522766,-170.50973977317832L85.44923336029562,-147.6657662362463A170.6070045455344,170.6070045455344,0,0,0,84.12874614808446,-148.42204712087474Z" fill-rule="evenodd" style="fill: #DB3F29; stroke: #fff; opacity: 1;" id="p-type-functions"></path><path d="M98.66827576522766,-170.50973977317832A197,197,0,0,1,100.1851933028407,-169.62289657611805L86.76292248331465,-146.8977374984187A170.6070045455344,170.6070045455344,0,0,0,85.44923336029562,-147.6657662362463Z" fill-rule="evenodd" style="fill: #DB3F29; stroke: #fff; opacity: 1;" id="p-type-functions"></path><path d="M100.1851933028407,-169.62289657611805A197,197,0,0,1,101.69414040171462,-168.72255868127522L88.0697090039063,-146.118022009495A170.6070045455344,170.6070045455344,0,0,0,86.76292248331465,-146.8977374984187Z" fill-rule="evenodd" style="fill: #DB3F29; stroke: #fff; opacity: 1;" id="p-type-functions"></path><path d="M101.69414040171462,-168.72255868127522A197,197,0,0,1,103.194997014465,-167.80879771687944L89.369488957986,-145.3266818013417A170.6070045455344,170.6070045455344,0,0,0,88.0697090039063,-146.118022009495Z" fill-rule="evenodd" style="fill: #DB3F29; stroke: #fff; opacity: 1;" id="p-type-functions"></path><path d="M103.194997014465,-167.80879771687944A197,197,0,0,1,104.68764373736269,-166.88168637906026L90.66215893889098,-144.5237798306537A170.6070045455344,170.6070045455344,0,0,0,89.369488957986,-145.3266818013417Z" fill-rule="evenodd" style="fill: #DB3F29; stroke: #fff; opacity: 1;" id="p-type-functions"></path><path d="M104.68764373736269,-166.88168637906026A197,197,0,0,1,106.17196181983316,-165.94129842606355L91.94761610560701,-143.70937997394572A170.6070045455344,170.6070045455344,0,0,0,90.66215893889098,-144.5237798306537Z" fill-rule="evenodd" style="fill: #DB3F29; stroke: #fff; opacity: 1;" id="p-type-functions"></path><path d="M106.17196181983316,-165.94129842606355A197,197,0,0,1,107.64783317390396,-164.98770867238366L93.22575819095006,-142.88354702247037A170.6070045455344,170.6070045455344,0,0,0,91.94761610560701,-143.70937997394572Z" fill-rule="evenodd" style="fill: #DB3F29; stroke: #fff; opacity: 1;" id="p-type-functions"></path><path d="M107.64783317390396,-164.98770867238366A197,197,0,0,1,109.11514038359947,-164.02099298281115L94.49648350970244,-142.04634667706358A170.6070045455344,170.6070045455344,0,0,0,93.22575819095006,-142.88354702247037Z" fill-rule="evenodd" style="fill: #DB3F29; stroke: #fff; opacity: 1;" id="p-type-functions"></path><path d="M109.11514038359947,-164.02099298281115A197,197,0,0,1,110.57376671428214,-163.0412282663974L95.75969096670251,-141.19784554291766A170.6070045455344,170.6070045455344,0,0,0,94.49648350970244,-142.04634667706358Z" fill-rule="evenodd" style="fill: #DB3F29; stroke: #fff; opacity: 1;" id="p-type-functions"></path><path d="M110.57376671428214,-163.0412282663974A197,197,0,0,1,112.02359612193962,-162.04849247033604L97.01528006488763,-140.33811112428234A170.6070045455344,170.6070045455344,0,0,0,95.75969096670251,-141.19784554291766Z" fill-rule="evenodd" style="fill: #DB3F29; stroke: #fff; opacity: 1;" id="p-type-functions"></path><path d="M112.02359612193962,-162.04849247033604A197,197,0,0,1,113.4645132624168,-161.04286457376136L98.2631509132893,-139.46721181909436A170.6070045455344,170.6070045455344,0,0,0,97.01528006488763,-140.33811112428234Z" fill-rule="evenodd" style="fill: #DB3F29; stroke: #fff; opacity: 1;" id="p-type-functions"></path><path d="M113.4645132624168,-161.04286457376136A197,197,0,0,1,114.89640350059226,-160.02442458146533L99.50320423498019,-138.58521691353596A170.6070045455344,170.6070045455344,0,0,0,98.2631509132893,-139.46721181909436Z" fill-rule="evenodd" style="fill: #DB3F29; stroke: #fff; opacity: 1;" id="p-type-functions"></path><path d="M114.89640350059226,-160.02442458146533A197,197,0,0,1,116.31915291949836,-158.99325351753248L100.73534137497244,-137.6921965765227A170.6070045455344,170.6070045455344,0,0,0,99.50320423498019,-138.58521691353596Z" fill-rule="evenodd" style="fill: #DB3F29; stroke: #fff; opacity: 1;" id="p-type-functions"></path><path d="M116.31915291949836,-158.99325351753248A197,197,0,0,1,117.7326483293841,-157.94943341889382L101.95946430806619,-136.78822185412082A170.6070045455344,170.6070045455344,0,0,0,100.73534137497244,-137.6921965765227Z" fill-rule="evenodd" style="fill: #DB3F29; stroke: #fff; opacity: 1;" id="p-type-functions"></path><path d="M117.7326483293841,-157.94943341889382A197,197,0,0,1,119.13677727672015,-156.8930473288003L103.17547564664831,-135.87336466389533A170.6070045455344,170.6070045455344,0,0,0,101.95946430806619,-136.78822185412082Z" fill-rule="evenodd" style="fill: #DB3F29; stroke: #fff; opacity: 1;" id="p-type-functions"></path><path d="M119.13677727672015,-156.8930473288003A197,197,0,0,1,120.53142805314535,-155.82417929021622L104.38327864844021,-134.94769778918825A170.6070045455344,170.6070045455344,0,0,0,103.17547564664831,-135.87336466389533Z" fill-rule="evenodd" style="fill: #DB3F29; stroke: #fff; opacity: 1;" id="p-type-functions"></path><path d="M120.53142805314535,-155.82417929021622A197,197,0,0,1,121.9164897043539,-154.74291433913274L105.58277722419444,-134.0112948733282A170.6070045455344,170.6070045455344,0,0,0,104.38327864844021,-134.94769778918825Z" fill-rule="evenodd" style="fill: #DB3F29; stroke: #fff; opacity: 1;" id="p-type-functions"></path><path d="M121.9164897043539,-154.74291433913274A197,197,0,0,1,123.2918520389225,-153.64933849780297L106.77387594533913,-133.0642304137717A170.6070045455344,170.6070045455344,0,0,0,105.58277722419444,-134.0112948733282Z" fill-rule="evenodd" style="fill: #DB3F29; stroke: #fff; opacity: 1;" id="p-type-functions"></path><path d="M123.2918520389225,-153.64933849780297A197,197,0,0,1,124.65740563707696,-152.54353876789818L107.95648005157013,-132.1065797561762A170.6070045455344,170.6070045455344,0,0,0,106.77387594533913,-133.0642304137717Z" fill-rule="evenodd" style="fill: #DB3F29; stroke: #fff; opacity: 1;" id="p-type-functions"></path><path d="M124.65740563707696,-152.54353876789818A197,197,0,0,1,126.01304185939719,-151.42560312358611L109.13049545838982,-131.1384190884058A170.6070045455344,170.6070045455344,0,0,0,107.95648005157013,-132.1065797561762Z" fill-rule="evenodd" style="fill: #DB3F29; stroke: #fff; opacity: 1;" id="p-type-functions"></path><path d="M126.01304185939719,-151.42560312358611A197,197,0,0,1,127.35865285546033,-150.29562050453214L110.29582876459219,-130.1598254344702A170.6070045455344,170.6070045455344,0,0,0,109.13049545838982,-131.1384190884058Z" fill-rule="evenodd" style="fill: #DB3F29; stroke: #fff; opacity: 1;" id="p-type-functions"></path><path d="M127.35865285546033,-150.29562050453214A197,197,0,0,1,128.69413157242099,-149.15368080882348L111.45238725969355,-129.17087664839664A170.6070045455344,170.6070045455344,0,0,0,110.29582876459219,-130.1598254344702Z" fill-rule="evenodd" style="fill: #DB3F29; stroke: #fff; opacity: 1;" id="p-type-functions"></path><path d="M128.69413157242099,-149.15368080882348A197,197,0,0,1,130.019371763528,-147.99987488581706L112.60007893130837,-128.17165140803613A170.6070045455344,170.6070045455344,0,0,0,111.45238725969355,-129.17087664839664Z" fill-rule="evenodd" style="fill: #DB3F29; stroke: #fff; opacity: 1;" id="p-type-functions"></path><path d="M130.019371763528,-147.99987488581706A197,197,0,0,1,131.33426799657718,-146.8342945289119L113.73881247246942,-127.16222920880412A170.6070045455344,170.6070045455344,0,0,0,112.60007893130837,-128.17165140803613Z" fill-rule="evenodd" style="fill: #DB3F29; stroke: #fff; opacity: 1;" id="p-type-functions"></path><path d="M131.33426799657718,-146.8342945289119A197,197,0,0,1,132.63871566229915,-145.6570324682463L114.86849728889197,-126.1426903573561A170.6070045455344,170.6070045455344,0,0,0,113.73881247246942,-127.16222920880412Z" fill-rule="evenodd" style="fill: #DB3F29; stroke: #fff; opacity: 1;" id="p-type-functions"></path><path d="M132.63871566229915,-145.6570324682463A197,197,0,0,1,133.93261098268175,-144.4681823633205L115.9890435061811,-125.11311596519856A170.6070045455344,170.6070045455344,0,0,0,114.86849728889197,-126.1426903573561Z" fill-rule="evenodd" style="fill: #DB3F29; stroke: #fff; opacity: 1;" id="p-type-functions"></path><path d="M133.93261098268175,-144.4681823633205A197,197,0,0,1,135.21585101922636,-143.2678387955454L117.10036197698201,-124.07358794223606A170.6070045455344,170.6070045455344,0,0,0,115.9890435061811,-125.11311596519856Z" fill-rule="evenodd" style="fill: #DB3F29; stroke: #fff; opacity: 1;" id="p-type-functions"></path><path d="M135.21585101922636,-143.2678387955454A197,197,0,0,1,136.48833368113725,-142.05609726071785L118.20236428807209,-123.02418899025466A170.6070045455344,170.6070045455344,0,0,0,117.10036197698201,-124.07358794223606Z" fill-rule="evenodd" style="fill: #DB3F29; stroke: #fff; opacity: 1;" id="p-type-functions"></path><path d="M136.48833368113725,-142.05609726071785A197,197,0,0,1,137.74995773344384,-140.83305416142346L119.29496276739505,-121.96500259634247A170.6070045455344,170.6070045455344,0,0,0,118.20236428807209,-123.02418899025466Z" fill-rule="evenodd" style="fill: #DB3F29; stroke: #fff; opacity: 1;" id="p-type-functions"></path><path d="M137.74995773344384,-140.83305416142346A197,197,0,0,1,139.00062280505443,-139.59880679936697L120.3780704910357,-120.89611302624762A170.6070045455344,170.6070045455344,0,0,0,119.29496276739505,-121.96500259634247Z" fill-rule="evenodd" style="fill: #DB3F29; stroke: #fff; opacity: 1;" id="p-type-functions"></path><path d="M139.00062280505443,-139.59880679936697A197,197,0,0,1,140.2402293967415,-138.35345336763123L121.45160129013537,-119.81760531767434A170.6070045455344,170.6070045455344,0,0,0,120.3780704910357,-120.89611302624762Z" fill-rule="evenodd" style="fill: #DB3F29; stroke: #fff; opacity: 1;" id="p-type-functions"></path><path d="M140.2402293967415,-138.35345336763123A197,197,0,0,1,141.46867888905777,-137.09709294286534L122.51546975774735,-118.72956527351766A170.6070045455344,170.6070045455344,0,0,0,121.45160129013537,-119.81760531767434Z" fill-rule="evenodd" style="fill: #DB3F29; stroke: #fff; opacity: 1;" id="p-type-functions"></path><path d="M141.46867888905777,-137.09709294286534A197,197,0,0,1,142.68587355018178,-135.8298254774022L123.56959125563152,-117.63207945503707A170.6070045455344,170.6070045455344,0,0,0,122.51546975774735,-118.72956527351766Z" fill-rule="evenodd" style="fill: #DB3F29; stroke: #fff; opacity: 1;" id="p-type-functions"></path><path d="M142.68587355018178,-135.8298254774022A197,197,0,0,1,143.89171654369324,-134.55175179130683L124.61388192098791,-116.52523517497005A170.6070045455344,170.6070045455344,0,0,0,123.56959125563152,-117.63207945503707Z" fill-rule="evenodd" style="fill: #DB3F29; stroke: #fff; opacity: 1;" id="p-type-functions"></path><path d="M143.89171654369324,-134.55175179130683A197,197,0,0,1,145.08611193627715,-133.2629735643553L125.6482586731287,-115.40912049058575A170.6070045455344,170.6070045455344,0,0,0,124.61388192098791,-116.52523517497005Z" fill-rule="evenodd" style="fill: #DB3F29; stroke: #fff; opacity: 1;" id="p-type-functions"></path><path d="M145.08611193627715,-133.2629735643553A197,197,0,0,1,146.26896470535593,-131.96359332794535L126.67263922008767,-114.28382419667932A170.6070045455344,170.6070045455344,0,0,0,125.6482586731287,-115.40912049058575Z" fill-rule="evenodd" style="fill: #DB3F29; stroke: #fff; opacity: 1;" id="p-type-functions"></path><path d="M146.26896470535593,-131.96359332794535A197,197,0,0,1,147.44018074664905,-130.6537144569394L127.68694206516736,-113.14943581850771A170.6070045455344,170.6070045455344,0,0,0,126.67263922008767,-114.28382419667932Z" fill-rule="evenodd" style="fill: #DB3F29; stroke: #fff; opacity: 1;" id="p-type-functions"></path><path d="M147.44018074664905,-130.6537144569394A197,197,0,0,1,148.59966688165977,-129.33344116144033L128.69108651342248,-112.00604560466729A170.6070045455344,170.6070045455344,0,0,0,127.68694206516736,-113.14943581850771Z" fill-rule="evenodd" style="fill: #DB3F29; stroke: #fff; opacity: 1;" id="p-type-functions"></path><path d="M148.59966688165977,-129.33344116144033A197,197,0,0,1,149.74733086508812,-128.00287847850072L129.68499267807988,-110.85374451991402A170.6070045455344,170.6070045455344,0,0,0,128.69108651342248,-112.00604560466729Z" fill-rule="evenodd" style="fill: #DB3F29; stroke: #fff; opacity: 1;" id="p-type-functions"></path><path d="M149.74733086508812,-128.00287847850072A197,197,0,0,1,150.8830813921697,-126.66213226376657L130.66858148689408,-109.69262423792641A170.6070045455344,170.6070045455344,0,0,0,129.68499267807988,-110.85374451991402Z" fill-rule="evenodd" style="fill: #DB3F29; stroke: #fff; opacity: 1;" id="p-type-functions"></path><path d="M150.8830813921697,-126.66213226376657A197,197,0,0,1,152.00682810593955,-125.31130918305557L131.64177468843803,-108.52277713401233A170.6070045455344,170.6070045455344,0,0,0,130.66858148689408,-109.69262423792641Z" fill-rule="evenodd" style="fill: #DB3F29; stroke: #fff; opacity: 1;" id="p-type-functions"></path><path d="M152.00682810593955,-125.31130918305557A197,197,0,0,1,153.11848160442074,-123.95051670387126L132.60449485832862,-107.34429627775991A170.6070045455344,170.6070045455344,0,0,0,131.64177468843803,-108.52277713401233Z" fill-rule="evenodd" style="fill: #DB3F29; stroke: #fff; opacity: 1;" id="p-type-functions"></path><path d="M153.11848160442074,-123.95051670387126A197,197,0,0,1,154.21795344773693,-122.57986308685308L133.55666540538613,-106.15727542563315A170.6070045455344,170.6070045455344,0,0,0,132.60449485832862,-107.34429627775991Z" fill-rule="evenodd" style="fill: #DB3F29; stroke: #fff; opacity: 1;" id="p-type-functions"></path><path d="M154.21795344773693,-122.57986308685308A197,197,0,0,1,155.30515616514833,-121.19945737716357L134.4982105777279,-104.96180901351293A170.6070045455344,170.6070045455344,0,0,0,133.55666540538613,-106.15727542563315Z" fill-rule="evenodd" style="fill: #DB3F29; stroke: #fff; opacity: 1;" id="p-type-functions"></path><path d="M155.30515616514833,-121.19945737716357A197,197,0,0,1,156.38000326201066,-119.80940939581303L135.42905546879462,-103.7579921491841A170.6070045455344,170.6070045455344,0,0,0,134.4982105777279,-104.96180901351293Z" fill-rule="evenodd" style="fill: #DB3F29; stroke: #fff; opacity: 1;" id="p-type-functions"></path><path d="M156.38000326201066,-119.80940939581303A197,197,0,0,1,157.44240922665642,-118.40982973092248L136.34912602330996,-102.54592060476877A170.6070045455344,170.6070045455344,0,0,0,135.42905546879462,-103.7579921491841Z" fill-rule="evenodd" style="fill: #DB3F29; stroke: #fff; opacity: 1;" id="p-type-functions"></path><path d="M157.44240922665642,-118.40982973092248A197,197,0,0,1,158.49228953719793,-117.00082972892552L137.258349043172,-101.32569080910707A170.6070045455344,170.6070045455344,0,0,0,136.34912602330996,-102.54592060476877Z" fill-rule="evenodd" style="fill: #DB3F29; stroke: #fff; opacity: 1;" id="p-type-functions"></path><path d="M158.49228953719793,-117.00082972892552A197,197,0,0,1,159.52956066825155,-115.58252148571013L138.15665219327664,-100.09739984008566A170.6070045455344,170.6070045455344,0,0,0,137.258349043172,-101.32569080910707Z" fill-rule="evenodd" style="fill: #DB3F29; stroke: #fff; opacity: 1;" id="p-type-functions"></path><path d="M159.52956066825155,-115.58252148571013A197,197,0,0,1,160.55414009758294,-114.15501783770043L139.04396400727262,-98.86114541691431A170.6070045455344,170.6070045455344,0,0,0,138.15665219327664,-100.09739984008566Z" fill-rule="evenodd" style="fill: #DB3F29; stroke: #fff; opacity: 1;" id="p-type-functions"></path><path d="M160.55414009758294,-114.15501783770043A197,197,0,0,1,161.56594631267208,-112.71843235287986L139.92021389324677,-97.61702589235172A170.6070045455344,170.6070045455344,0,0,0,139.04396400727262,-98.86114541691431Z" fill-rule="evenodd" style="fill: #DB3F29; stroke: #fff; opacity: 1;" id="p-type-functions"></path><path d="M161.56594631267208,-112.71843235287986A197,197,0,0,1,162.56489881719824,-111.27287932175612L140.7853321393405,-96.36514024488096A170.6070045455344,170.6070045455344,0,0,0,139.92021389324677,-97.61702589235172Z" fill-rule="evenodd" style="fill: #DB3F29; stroke: #fff; opacity: 1;" id="p-type-functions"></path><path d="M162.56489881719824,-111.27287932175612A197,197,0,0,1,163.55091813744394,-109.81847374826836L141.63924991929557,-95.10558807083488A170.6070045455344,170.6070045455344,0,0,0,140.7853321393405,-96.36514024488096Z" fill-rule="evenodd" style="fill: #DB3F29; stroke: #fff; opacity: 1;" id="p-type-functions"></path><path d="M163.55091813744394,-109.81847374826836A197,197,0,0,1,164.52392582861788,-108.35533134063799L142.48189929792983,-93.83846957647265A170.6070045455344,170.6070045455344,0,0,0,141.63924991929557,-95.10558807083488Z" fill-rule="evenodd" style="fill: #DB3F29; stroke: #fff; opacity: 1;" id="p-type-functions"></path><path d="M164.52392582861788,-108.35533134063799A197,197,0,0,1,165.4838444810955,-106.8835685021631L143.313213236542,-92.5638855700075A170.6070045455344,170.6070045455344,0,0,0,142.48189929792983,-93.83846957647265Z" fill-rule="evenodd" style="fill: #DB3F29; stroke: #fff; opacity: 1;" id="p-type-functions"></path><path d="M165.4838444810955,-106.8835685021631A197,197,0,0,1,166.4305977265777,-105.403302321958L144.13312559824493,-91.28193745358693A170.6070045455344,170.6070045455344,0,0,0,143.313213236542,-92.5638855700075Z" fill-rule="evenodd" style="fill: #DB3F29; stroke: #fff; opacity: 1;" id="p-type-functions"></path><path d="M182.33640532913063,74.58173564386246A197,197,0,0,1,181.66392886604038,76.20509791972071L157.32557734928017,65.99555069635882A170.6070045455344,170.6070045455344,0,0,0,157.90795904976343,64.58967772592024Z" fill-rule="evenodd" style="fill: #1DC690; stroke: #fff; opacity: 1;" id="p-type-logs"></path><path d="M181.66392886604038,76.20509791972071A197,197,0,0,1,180.97699975612278,77.82239754256055L156.73067928949249,67.3961732552691A170.6070045455344,170.6070045455344,0,0,0,157.32557734928017,65.99555069635882Z" fill-rule="evenodd" style="fill: #1DC690; stroke: #fff; opacity: 1;" id="p-type-logs"></path><path d="M180.97699975612278,77.82239754256055A197,197,0,0,1,180.2756726494335,79.43350584479008L156.12331219873693,68.79143397324789A170.6070045455344,170.6070045455344,0,0,0,156.73067928949249,67.3961732552691Z" fill-rule="evenodd" style="fill: #1DC690; stroke: #fff; opacity: 1;" id="p-type-logs"></path><path d="M180.2756726494335,79.43350584479008A197,197,0,0,1,179.56000334149033,81.03829465138061L155.5035243973493,70.1812218474642A170.6070045455344,170.6070045455344,0,0,0,156.12331219873693,68.79143397324789Z" fill-rule="evenodd" style="fill: #1DC690; stroke: #fff; opacity: 1;" id="p-type-logs"></path><path d="M179.56000334149033,81.03829465138061A197,197,0,0,1,178.83004876883442,82.6366362900639L154.87136519382065,71.56542631049038A170.6070045455344,170.6070045455344,0,0,0,155.5035243973493,70.1812218474642Z" fill-rule="evenodd" style="fill: #1DC690; stroke: #fff; opacity: 1;" id="p-type-logs"></path><path d="M178.83004876883442,82.6366362900639A197,197,0,0,1,178.08586700450041,84.22840360148938L154.2268848808743,72.9439372390985A170.6070045455344,170.6070045455344,0,0,0,154.87136519382065,71.56542631049038Z" fill-rule="evenodd" style="fill: #1DC690; stroke: #fff; opacity: 1;" id="p-type-logs"></path><path d="M178.08586700450041,84.22840360148938A197,197,0,0,1,177.32751725339645,85.81346994934061L153.57013473146466,74.3166449630215A170.6070045455344,170.6070045455344,0,0,0,154.2268848808743,72.9439372390985Z" fill-rule="evenodd" style="fill: #1DC690; stroke: #fff; opacity: 1;" id="p-type-logs"></path><path d="M177.32751725339645,85.81346994934061A197,197,0,0,1,176.55505984759387,87.3917092304101L152.9011669946982,75.68344027367816A170.6070045455344,170.6070045455344,0,0,0,153.57013473146466,74.3166449630215Z" fill-rule="evenodd" style="fill: #1DC690; stroke: #fff; opacity: 1;" id="p-type-logs"></path><path d="M176.55505984759387,87.3917092304101A197,197,0,0,1,175.76855624152753,88.96299588463158L152.2200348916767,77.04421443286141A170.6070045455344,170.6070045455344,0,0,0,152.9011669946982,75.68344027367816Z" fill-rule="evenodd" style="fill: #1DC690; stroke: #fff; opacity: 1;" id="p-type-logs"></path><path d="M175.76855624152753,88.96299588463158A197,197,0,0,1,174.96806900710652,90.52720490506937L151.52679261126295,78.39885918138931A170.6070045455344,170.6070045455344,0,0,0,152.2200348916767,77.04421443286141Z" fill-rule="evenodd" style="fill: #1DC690; stroke: #fff; opacity: 1;" id="p-type-logs"></path><path d="M174.96806900710652,90.52720490506937A197,197,0,0,1,174.15366182873623,92.08421184786341L150.82149530576987,79.7472667477177A170.6070045455344,170.6070045455344,0,0,0,151.52679261126295,78.39885918138931Z" fill-rule="evenodd" style="fill: #1DC690; stroke: #fff; opacity: 1;" id="p-type-logs"></path><path d="M174.15366182873623,92.08421184786341A197,197,0,0,1,173.32539949825173,93.63389284212975L150.1041990865726,81.08932985651428A170.6070045455344,170.6070045455344,0,0,0,150.82149530576987,79.7472667477177Z" fill-rule="evenodd" style="fill: #1DC690; stroke: #fff; opacity: 1;" id="p-type-logs"></path><path d="M173.32539949825173,93.63389284212975A197,197,0,0,1,172.48334790976324,95.17612459981534L149.37496101964453,82.42494173719311A170.6070045455344,170.6070045455344,0,0,0,150.1041990865726,81.08932985651428Z" fill-rule="evenodd" style="fill: #1DC690; stroke: #fff; opacity: 1;" id="p-type-logs"></path><path d="M172.48334790976324,95.17612459981534A197,197,0,0,1,171.62757405441363,96.71078442550636L148.63383912101722,83.75399613240894A170.6070045455344,170.6070045455344,0,0,0,149.37496101964453,82.42494173719311Z" fill-rule="evenodd" style="fill: #1DC690; stroke: #fff; opacity: 1;" id="p-type-logs"></path><path d="M171.62757405441363,96.71078442550636A197,197,0,0,1,170.75814601504894,98.23775022618966L147.8808923521649,85.07638730651072A170.6070045455344,170.6070045455344,0,0,0,148.63383912101722,83.75399613240894Z" fill-rule="evenodd" style="fill: #1DC690; stroke: #fff; opacity: 1;" id="p-type-logs"></path><path d="M170.75814601504894,98.23775022618966A197,197,0,0,1,169.8751329608018,99.75690052096601L147.11618061531357,86.39201005395367A170.6070045455344,170.6070045455344,0,0,0,147.8808923521649,85.07638730651072Z" fill-rule="evenodd" style="fill: #1DC690; stroke: #fff; opacity: 1;" id="p-type-logs"></path><path d="M169.8751329608018,99.75690052096601A197,197,0,0,1,168.97860514158864,101.26811445071482L146.33976474867552,87.70075970766904A170.6070045455344,170.6070045455344,0,0,0,147.11618061531357,86.39201005395367Z" fill-rule="evenodd" style="fill: #1DC690; stroke: #fff; opacity: 1;" id="p-type-logs"></path><path d="M168.97860514158864,101.26811445071482A197,197,0,0,1,168.06863388252071,102.77127178770928L145.551706521609,89.00253214739122A170.6070045455344,170.6070045455344,0,0,0,146.33976474867552,87.70075970766904Z" fill-rule="evenodd" style="fill: #1DC690; stroke: #fff; opacity: 1;" id="p-type-logs"></path><path d="M168.06863388252071,102.77127178770928A197,197,0,0,1,167.1452915782298,104.26625294518138L144.75206862970418,90.29722380794111A170.6070045455344,170.6070045455344,0,0,0,145.551706521609,89.00253214739122Z" fill-rule="evenodd" style="fill: #1DC690; stroke: #fff; opacity: 1;" id="p-type-logs"></path><path d="M167.1452915782298,104.26625294518138A197,197,0,0,1,166.20865168710853,105.75293898683587L143.94091468979528,91.58473168746563A170.6070045455344,170.6070045455344,0,0,0,144.75206862970418,90.29722380794111Z" fill-rule="evenodd" style="fill: #1DC690; stroke: #fff; opacity: 1;" id="p-type-logs"></path><path d="M166.20865168710853,105.75293898683587A197,197,0,0,1,165.2587887254665,107.23121163631245L143.11830923489936,92.86495335563208A170.6070045455344,170.6070045455344,0,0,0,143.94091468979528,91.58473168746563Z" fill-rule="evenodd" style="fill: #1DC690; stroke: #fff; opacity: 1;" id="p-type-logs"></path><path d="M165.2587887254665,107.23121163631245A197,197,0,0,1,164.29577826160164,108.7009532865955L142.28431770908216,94.13778696177728A170.6070045455344,170.6070045455344,0,0,0,143.11830923489936,92.86495335563208Z" fill-rule="evenodd" style="fill: #1DC690; stroke: #fff; opacity: 1;" id="p-type-logs"></path><path d="M164.29577826160164,108.7009532865955A197,197,0,0,1,163.3196969097886,110.1620470093706L141.43900646225183,95.40313124301048A170.6070045455344,170.6070045455344,0,0,0,142.28431770908216,94.13778696177728Z" fill-rule="evenodd" style="fill: #1DC690; stroke: #fff; opacity: 1;" id="p-type-logs"></path><path d="M163.3196969097886,110.1620470093706A197,197,0,0,1,162.33062232418328,111.6143765643269L140.58244274488004,96.66088553226959A170.6070045455344,170.6070045455344,0,0,0,141.43900646225183,95.40313124301048Z" fill-rule="evenodd" style="fill: #1DC690; stroke: #fff; opacity: 1;" id="p-type-logs"></path><path d="M162.33062232418328,111.6143765643269A197,197,0,0,1,161.32863319264493,113.05782640840496L139.7146947026519,97.91094976632988A170.6070045455344,170.6070045455344,0,0,0,140.58244274488004,96.66088553226959Z" fill-rule="evenodd" style="fill: #1DC690; stroke: #fff; opacity: 1;" id="p-type-logs"></path><path d="M161.32863319264493,113.05782640840496A197,197,0,0,1,160.313809230476,114.49228170498891L138.83583137104446,99.15322449376471A170.6070045455344,170.6070045455344,0,0,0,139.7146947026519,97.91094976632988Z" fill-rule="evenodd" style="fill: #1DC690; stroke: #fff; opacity: 1;" id="p-type-logs"></path><path d="M160.313809230476,114.49228170498891A197,197,0,0,1,159.28623117408043,115.91762833304264L137.94592266983443,100.38761088285774A170.6070045455344,170.6070045455344,0,0,0,138.83583137104446,99.15322449376471Z" fill-rule="evenodd" style="fill: #1DC690; stroke: #fff; opacity: 1;" id="p-type-logs"></path><path d="M159.28623117408043,115.91762833304264A197,197,0,0,1,158.24598077454004,117.33375289618884L137.04503939753556,101.61401072946549A170.6070045455344,170.6070045455344,0,0,0,137.94592266983443,100.38761088285774Z" fill-rule="evenodd" style="fill: #1DC690; stroke: #fff; opacity: 1;" id="p-type-logs"></path><path d="M158.24598077454004,117.33375289618884A197,197,0,0,1,157.19314079111112,118.7405427317305L136.1332532257661,102.83232646483029A170.6070045455344,170.6070045455344,0,0,0,137.04503939753556,101.61401072946549Z" fill-rule="evenodd" style="fill: #1DC690; stroke: #fff; opacity: 1;" id="p-type-logs"></path><path d="M157.19314079111112,118.7405427317305A197,197,0,0,1,156.1277949846401,120.13788591961402L135.21063669354697,104.04246116334255A170.6070045455344,170.6070045455344,0,0,0,136.1332532257661,102.83232646483029Z" fill-rule="evenodd" style="fill: #1DC690; stroke: #fff; opacity: 1;" id="p-type-logs"></path><path d="M156.1277949846401,120.13788591961402A197,197,0,0,1,155.05002811089977,121.5256712913333L134.27726320153053,105.24431855025188A170.6070045455344,170.6070045455344,0,0,0,135.21063669354697,104.04246116334255Z" fill-rule="evenodd" style="fill: #1DC690; stroke: #fff; opacity: 1;" id="p-type-logs"></path><path d="M155.05002811089977,121.5256712913333A197,197,0,0,1,153.95992591384655,122.90378843877384L133.33320700616122,106.43780300932633A170.6070045455344,170.6070045455344,0,0,0,134.27726320153053,105.24431855025188Z" fill-rule="evenodd" style="fill: #1DC690; stroke: #fff; opacity: 1;" id="p-type-logs"></path><path d="M153.95992591384655,122.90378843877384A197,197,0,0,1,152.85757511879876,124.27212772299666L132.37854321376784,107.62281959045951A170.6070045455344,170.6070045455344,0,0,0,133.33320700616122,106.43780300932633Z" fill-rule="evenodd" style="fill: #1DC690; stroke: #fff; opacity: 1;" id="p-type-logs"></path><path d="M152.85757511879876,124.27212772299666A197,197,0,0,1,151.74306342553706,125.63058028296072L131.41334777458843,108.79927401722439A170.6070045455344,170.6070045455344,0,0,0,132.37854321376784,107.62281959045951Z" fill-rule="evenodd" style="fill: #1DC690; stroke: #fff; opacity: 1;" id="p-type-logs"></path><path d="M151.74306342553706,125.63058028296072A197,197,0,0,1,150.6164795013274,126.97903804418361L130.43769747672766,109.9670726943737A170.6070045455344,170.6070045455344,0,0,0,131.41334777458843,108.79927401722439Z" fill-rule="evenodd" style="fill: #1DC690; stroke: #fff; opacity: 1;" id="p-type-logs"></path><path d="M150.6164795013274,126.97903804418361A197,197,0,0,1,149.47791297386675,128.3173937273397L129.45166994004813,111.12612271528613A170.6070045455344,170.6070045455344,0,0,0,130.43769747672766,109.9670726943737Z" fill-rule="evenodd" style="fill: #1DC690; stroke: #fff; opacity: 1;" id="p-type-logs"></path><path d="M149.47791297386675,128.3173937273397A197,197,0,0,1,148.32745442415282,129.64554085679487L128.45534360999486,112.2763318693577A170.6070045455344,170.6070045455344,0,0,0,129.45166994004813,111.12612271528613Z" fill-rule="evenodd" style="fill: #1DC690; stroke: #fff; opacity: 1;" id="p-type-logs"></path><path d="M148.32745442415282,129.64554085679487A197,197,0,0,1,147.16519537927746,130.9633737690775L127.44879775135456,113.4176086493377A170.6070045455344,170.6070045455344,0,0,0,128.45534360999486,112.2763318693577Z" fill-rule="evenodd" style="fill: #1DC690; stroke: #fff; opacity: 1;" id="p-type-logs"></path><path d="M147.16519537927746,130.9633737690775A197,197,0,0,1,145.99122830514514,132.27078762128463L126.43211244194949,114.54986225860875A170.6070045455344,170.6070045455344,0,0,0,127.44879775135456,113.4176086493377Z" fill-rule="evenodd" style="fill: #1DC690; stroke: #fff; opacity: 1;" id="p-type-logs"></path><path d="M145.99122830514514,132.27078762128463A197,197,0,0,1,144.8056465991167,133.56767839942313L125.40536856626676,115.67300261841045A170.6070045455344,170.6070045455344,0,0,0,126.43211244194949,114.54986225860875Z" fill-rule="evenodd" style="fill: #1DC690; stroke: #fff; opacity: 1;" id="p-type-logs"></path><path d="M144.8056465991167,133.56767839942313A197,197,0,0,1,143.60854458257882,134.85394292668445L124.36864780902337,116.78694037500556A170.6070045455344,170.6070045455344,0,0,0,125.40536856626676,115.67300261841045Z" fill-rule="evenodd" style="fill: #1DC690; stroke: #fff; opacity: 1;" id="p-type-logs"></path><path d="M143.60854458257882,134.85394292668445A197,197,0,0,1,142.40001749344015,136.12947887165345L123.32203264866762,117.89158690678887A170.6070045455344,170.6070045455344,0,0,0,124.36864780902337,116.78694037500556Z" fill-rule="evenodd" style="fill: #1DC690; stroke: #fff; opacity: 1;" id="p-type-logs"></path><path d="M142.40001749344015,136.12947887165345A197,197,0,0,1,141.18016147855442,137.39418475644922L122.26560635081734,118.98685433133771A170.6070045455344,170.6070045455344,0,0,0,123.32203264866762,117.89158690678887Z" fill-rule="evenodd" style="fill: #1DC690; stroke: #fff; opacity: 1;" id="p-type-logs"></path><path d="M141.18016147855442,137.39418475644922A197,197,0,0,1,139.94907358607134,138.6479599647986L121.19945296163553,120.07265551240339A170.6070045455344,170.6070045455344,0,0,0,122.26560635081734,118.98685433133771Z" fill-rule="evenodd" style="fill: #1DC690; stroke: #fff; opacity: 1;" id="p-type-logs"></path><path d="M139.94907358607134,138.6479599647986A197,197,0,0,1,138.7068517577157,139.89070475004078L120.123657301144,121.14890406684377A170.6070045455344,170.6070045455344,0,0,0,121.19945296163553,120.07265551240339Z" fill-rule="evenodd" style="fill: #1DC690; stroke: #fff; opacity: 1;" id="p-type-logs"></path><path d="M138.7068517577157,139.89070475004078A197,197,0,0,1,137.4535948209954,141.122320243063L119.03830495647514,122.2155143714955A170.6070045455344,170.6070045455344,0,0,0,120.123657301144,121.14890406684377Z" fill-rule="evenodd" style="fill: #1DC690; stroke: #fff; opacity: 1;" id="p-type-logs"></path><path d="M137.4535948209954,141.122320243063A197,197,0,0,1,136.18940248133902,142.34270846016614L117.94348227506306,123.272401569986A170.6070045455344,170.6070045455344,0,0,0,119.03830495647514,122.2155143714955Z" fill-rule="evenodd" style="fill: #1DC690; stroke: #fff; opacity: 1;" id="p-type-logs"></path><path d="M136.18940248133902,142.34270846016614A197,197,0,0,1,134.91437531416364,143.55177231086L116.83927635777387,124.31948157948432A170.6070045455344,170.6070045455344,0,0,0,117.94348227506306,123.272401569986Z" fill-rule="evenodd" style="fill: #1DC690; stroke: #fff; opacity: 1;" id="p-type-logs"></path><path d="M134.91437531416364,143.55177231086A197,197,0,0,1,133.62861475687328,144.7494156055877L115.72577505197636,125.3566710973906A170.6070045455344,170.6070045455344,0,0,0,116.83927635777387,124.31948157948432Z" fill-rule="evenodd" style="fill: #1DC690; stroke: #fff; opacity: 1;" id="p-type-logs"></path><path d="M133.62861475687328,144.7494156055877A197,197,0,0,1,132.33222310078872,145.9355430633781L114.60306694455296,126.38388760796335A170.6070045455344,170.6070045455344,0,0,0,115.72577505197636,125.3566710973906Z" fill-rule="evenodd" style="fill: #1DC690; stroke: #fff; opacity: 1;" id="p-type-logs"></path><path d="M132.33222310078872,145.9355430633781A197,197,0,0,1,131.0253034830098,147.11006031942608L113.47124135485217,127.4010493888841A170.6070045455344,170.6070045455344,0,0,0,114.60306694455296,126.38388760796335Z" fill-rule="evenodd" style="fill: #1DC690; stroke: #fff; opacity: 1;" id="p-type-logs"></path><path d="M131.0253034830098,147.11006031942608A197,197,0,0,1,129.70795987820983,148.27287393260005L112.33038832758244,128.4080755177591A170.6070045455344,170.6070045455344,0,0,0,113.47124135485217,127.4010493888841Z" fill-rule="evenodd" style="fill: #1DC690; stroke: #fff; opacity: 1;" id="p-type-logs"></path><path d="M129.70795987820983,148.27287393260005A197,197,0,0,1,128.38029709036397,149.42389139287562L111.18059862564866,129.4048858785572A170.6070045455344,170.6070045455344,0,0,0,112.33038832758244,128.4080755177591Z" fill-rule="evenodd" style="fill: #1DC690; stroke: #fff; opacity: 1;" id="p-type-logs"></path><path d="M128.38029709036397,149.42389139287562A197,197,0,0,1,127.04242074441099,150.56302112869565L110.02196372293108,130.39140116798362A170.6070045455344,170.6070045455344,0,0,0,111.18059862564866,129.4048858785572Z" fill-rule="evenodd" style="fill: #1DC690; stroke: #fff; opacity: 1;" id="p-type-logs"></path><path d="M127.04242074441099,150.56302112869565A197,197,0,0,1,125.69443727785037,151.69017251425532L108.85457579700817,131.3675429017891A170.6070045455344,170.6070045455344,0,0,0,110.02196372293108,130.39140116798362Z" fill-rule="evenodd" style="fill: #1DC690; stroke: #fff; opacity: 1;" id="p-type-logs"></path><path d="M125.69443727785037,151.69017251425532A197,197,0,0,1,124.33645393227425,152.80525587671207L107.67852772182306,132.33323342101403A170.6070045455344,170.6070045455344,0,0,0,108.85457579700817,131.3675429017891Z" fill-rule="evenodd" style="fill: #1DC690; stroke: #fff; opacity: 1;" id="p-type-logs"></path><path d="M124.33645393227425,152.80525587671207A197,197,0,0,1,122.96857874483571,153.9081825033196L106.49391306029489,133.28839589816644A170.6070045455344,170.6070045455344,0,0,0,107.67852772182306,132.33323342101403Z" fill-rule="evenodd" style="fill: #1DC690; stroke: #fff; opacity: 1;" id="p-type-logs"></path><path d="M122.96857874483571,153.9081825033196A197,197,0,0,1,121.59092053965362,154.99886464848586L105.30082605687512,134.2329543433345A170.6070045455344,170.6070045455344,0,0,0,106.49391306029489,133.28839589816644Z" fill-rule="evenodd" style="fill: #1DC690; stroke: #fff; opacity: 1;" id="p-type-logs"></path><path d="M121.59092053965362,154.99886464848586A197,197,0,0,1,120.20358891915492,156.07721554075346L104.09936163004981,135.1668336102319A170.6070045455344,170.6070045455344,0,0,0,105.30082605687512,134.2329543433345Z" fill-rule="evenodd" style="fill: #1DC690; stroke: #fff; opacity: 1;" id="p-type-logs"></path><path d="M120.20358891915492,156.07721554075346A197,197,0,0,1,118.80669425535493,157.14314938970332L102.8896153647881,136.0899594021762A170.6070045455344,170.6070045455344,0,0,0,104.09936163004981,135.1668336102319Z" fill-rule="evenodd" style="fill: #1DC690; stroke: #fff; opacity: 1;" id="p-type-logs"></path><path d="M118.80669425535493,157.14314938970332A197,197,0,0,1,117.40034768107654,158.19658139277962L101.67168350493779,137.0022582779998A170.6070045455344,170.6070045455344,0,0,0,102.8896153647881,136.0899594021762Z" fill-rule="evenodd" style="fill: #1DC690; stroke: #fff; opacity: 1;" id="p-type-logs"></path><path d="M18.55878280732259,196.12386795265544A197,197,0,0,1,14.181211524223441,196.48891378320874L12.281289436418138,170.1643908982691A170.6070045455344,170.6070045455344,0,0,0,16.072377374459244,169.84825193546433Z" fill-rule="evenodd" style="fill: #D7A449; stroke: #fff; opacity: 1;" id="p-type-tokenTransfers"></path><path d="M14.181211524223441,196.48891378320874A197,197,0,0,1,12.428086684219442,196.60758546243713L10.763038788969148,170.26716358719065A170.6070045455344,170.6070045455344,0,0,0,12.281289436418138,170.1643908982691Z" fill-rule="evenodd" style="fill: #D7A449; stroke: #fff; opacity: 1;" id="p-type-tokenTransfers"></path><path d="M12.428086684219442,196.60758546243713A197,197,0,0,1,10.673973102263712,196.71061562155754L9.243931865872169,170.35639032234485A170.6070045455344,170.6070045455344,0,0,0,10.763038788969148,170.26716358719065Z" fill-rule="evenodd" style="fill: #D7A449; stroke: #fff; opacity: 1;" id="p-type-tokenTransfers"></path><path d="M10.673973102263712,196.71061562155754A197,197,0,0,1,8.919010330463557,196.79799606379402L7.724089522797281,170.4320640051156A170.6070045455344,170.6070045455344,0,0,0,9.243931865872169,170.35639032234485Z" fill-rule="evenodd" style="fill: #D7A449; stroke: #fff; opacity: 1;" id="p-type-tokenTransfers"></path><path d="M8.919010330463557,196.79799606379402A197,197,0,0,1,7.163337988485326,196.86971983741614L6.203632673922413,170.49417861512762A170.6070045455344,170.6070045455344,0,0,0,7.724089522797281,170.4320640051156Z" fill-rule="evenodd" style="fill: #D7A449; stroke: #fff; opacity: 1;" id="p-type-tokenTransfers"></path><path d="M7.163337988485326,196.86971983741614A197,197,0,0,1,5.407095752446677,196.92578123629184L4.682682282313757,170.54272921072567A170.6070045455344,170.6070045455344,0,0,0,6.203632673922413,170.49417861512762Z" fill-rule="evenodd" style="fill: #D7A449; stroke: #fff; opacity: 1;" id="p-type-tokenTransfers"></path><path d="M5.407095752446677,196.92578123629184A197,197,0,0,1,3.6504233438043676,196.96617580034143L3.1613593503023183,170.5777119293674A170.6070045455344,170.6070045455344,0,0,0,4.682682282313757,170.54272921072567Z" fill-rule="evenodd" style="fill: #D7A449; stroke: #fff; opacity: 1;" id="p-type-tokenTransfers"></path><path d="M3.6504233438043676,196.96617580034143A197,197,0,0,1,1.8934605182384143,196.99090031589242L1.6397849098573152,170.59912398793085A170.6070045455344,170.6070045455344,0,0,0,3.1613593503023183,170.5777119293674Z" fill-rule="evenodd" style="fill: #D7A449; stroke: #fff; opacity: 1;" id="p-type-tokenTransfers"></path><path d="M1.8934605182384143,196.99090031589242A197,197,0,0,1,0.13634705453355023,196.99995281593527L0.11808001295723669,170.60696368293569A170.6070045455344,170.6070045455344,0,0,0,1.6397849098573152,170.59912398793085Z" fill-rule="evenodd" style="fill: #D7A449; stroke: #fff; opacity: 1;" id="p-type-tokenTransfers"></path><path d="M0.13634705453355023,196.99995281593527A197,197,0,0,1,-1.6207772565411656,196.99333258027968L-1.4036342780406976,170.60123039067892A170.6070045455344,170.6070045455344,0,0,0,0.11808001295723669,170.60696368293569Z" fill-rule="evenodd" style="fill: #D7A449; stroke: #fff; opacity: 1;" id="p-type-tokenTransfers"></path><path d="M-1.6207772565411656,196.99333258027968A197,197,0,0,1,-3.3777726233536893,196.97104013561213L-2.9252369000319014,170.58192456728435A170.6070045455344,170.6070045455344,0,0,0,-1.4036342780406976,170.60123039067892Z" fill-rule="evenodd" style="fill: #D7A449; stroke: #fff; opacity: 1;" id="p-type-tokenTransfers"></path><path d="M-3.3777726233536893,196.97104013561213A197,197,0,0,1,-5.134499264530403,196.9330772554538L-4.446606798795845,170.54904774866642A170.6070045455344,170.6070045455344,0,0,0,-2.9252369000319014,170.58192456728435Z" fill-rule="evenodd" style="fill: #D7A449; stroke: #fff; opacity: 1;" id="p-type-tokenTransfers"></path><path d="M-5.134499264530403,196.9330772554538A197,197,0,0,1,-6.890817420076706,196.87944696001958L-5.967622938626772,170.50260255040794A170.6070045455344,170.6070045455344,0,0,0,-4.446606798795845,170.54904774866642Z" fill-rule="evenodd" style="fill: #D7A449; stroke: #fff; opacity: 1;" id="p-type-tokenTransfers"></path><path d="M-6.890817420076706,196.87944696001958A197,197,0,0,1,-8.646587362495914,196.81015351597773L-7.488164311962948,170.44259266755196A170.6070045455344,170.6070045455344,0,0,0,-5.967622938626772,170.50260255040794Z" fill-rule="evenodd" style="fill: #D7A449; stroke: #fff; opacity: 1;" id="p-type-tokenTransfers"></path><path d="M-8.646587362495914,196.81015351597773A197,197,0,0,1,-10.401669407905562,196.72520243611046L-9.008109949013656,170.369022874308A170.6070045455344,170.6070045455344,0,0,0,-7.488164311962948,170.44259266755196Z" fill-rule="evenodd" style="fill: #D7A449; stroke: #fff; opacity: 1;" id="p-type-tokenTransfers"></path><path d="M-10.401669407905562,196.72520243611046A197,197,0,0,1,-12.155923927150244,196.62460047887532L-10.527338927383209,170.2818990236719A170.6070045455344,170.6070045455344,0,0,0,-9.008109949013656,170.369022874308Z" fill-rule="evenodd" style="fill: #D7A449; stroke: #fff; opacity: 1;" id="p-type-tokenTransfers"></path><path d="M-12.155923927150244,196.62460047887532A197,197,0,0,1,-13.909211356910095,196.50835564786757L-12.045730381691165,170.18122804696057A170.6070045455344,170.6070045455344,0,0,0,-10.527338927383209,170.2818990236719Z" fill-rule="evenodd" style="fill: #D7A449; stroke: #fff; opacity: 1;" id="p-type-tokenTransfers"></path><path d="M-13.909211356910095,196.50835564786757A197,197,0,0,1,-15.661392210804044,196.37647719118337L-13.563163513188035,170.06701795326018A170.6070045455344,170.6070045455344,0,0,0,-12.045730381691165,170.18122804696057Z" fill-rule="evenodd" style="fill: #D7A449; stroke: #fff; opacity: 1;" id="p-type-tokenTransfers"></path><path d="M-15.661392210804044,196.37647719118337A197,197,0,0,1,-17.412327090486933,196.22897560068415L-15.079517599365664,169.93927782878924A170.6070045455344,170.6070045455344,0,0,0,-13.563163513188035,170.06701795326018Z" fill-rule="evenodd" style="fill: #D7A449; stroke: #fff; opacity: 1;" id="p-type-tokenTransfers"></path><path d="M-17.412327090486933,196.22897560068415A197,197,0,0,1,-19.161876696739636,196.06586261116175L-16.594672003561566,169.7980178361756A170.6070045455344,170.6070045455344,0,0,0,-15.079517599365664,169.93927782878924Z" fill-rule="evenodd" style="fill: #D7A449; stroke: #fff; opacity: 1;" id="p-type-tokenTransfers"></path><path d="M-19.161876696739636,196.06586261116175A197,197,0,0,1,-20.909901840551303,195.88715119940488L-18.10850618455642,169.64324921364798A170.6070045455344,170.6070045455344,0,0,0,-16.594672003561566,169.7980178361756Z" fill-rule="evenodd" style="fill: #D7A449; stroke: #fff; opacity: 1;" id="p-type-tokenTransfers"></path><path d="M-20.909901840551303,195.88715119940488A197,197,0,0,1,-22.65626345419283,195.69285558316687L-19.620899706163964,169.47498427414192A170.6070045455344,170.6070045455344,0,0,0,-18.10850618455642,169.64324921364798Z" fill-rule="evenodd" style="fill: #D7A449; stroke: #fff; opacity: 1;" id="p-type-tokenTransfers"></path><path d="M-22.65626345419283,195.69285558316687A197,197,0,0,1,-24.400822602280652,195.48299122003436L-21.131732246812557,169.2932364043201A170.6070045455344,170.6070045455344,0,0,0,-19.620899706163964,169.47498427414192Z" fill-rule="evenodd" style="fill: #D7A449; stroke: #fff; opacity: 1;" id="p-type-tokenTransfers"></path><path d="M-24.400822602280652,195.48299122003436A197,197,0,0,1,-26.14344049283007,195.2575748061976L-22.640883609117605,169.0980200635075A170.6070045455344,170.6070045455344,0,0,0,-21.131732246812557,169.2932364043201Z" fill-rule="evenodd" style="fill: #D7A449; stroke: #fff; opacity: 1;" id="p-type-tokenTransfers"></path><path d="M-26.14344049283007,195.2575748061976A197,197,0,0,1,-27.883978488297107,195.0166242751222L-24.1482337294441,168.88935078254084A170.6070045455344,170.6070045455344,0,0,0,-22.640883609117605,169.0980200635075Z" fill-rule="evenodd" style="fill: #D7A449; stroke: #fff; opacity: 1;" id="p-type-tokenTransfers"></path><path d="M-27.883978488297107,195.0166242751222A197,197,0,0,1,-29.62229811660811,194.76015879612237L-25.653662687458553,168.66724516253325A170.6070045455344,170.6070045455344,0,0,0,-24.1482337294441,168.88935078254084Z" fill-rule="evenodd" style="fill: #D7A449; stroke: #fff; opacity: 1;" id="p-type-tokenTransfers"></path><path d="M-29.62229811660811,194.76015879612237A197,197,0,0,1,-31.35826108217618,194.48819877283577L-27.157050715669474,168.43172087355325A170.6070045455344,170.6070045455344,0,0,0,-25.653662687458553,168.66724516253325Z" fill-rule="evenodd" style="fill: #D7A449; stroke: #fff; opacity: 1;" id="p-type-tokenTransfers"></path><path d="M-31.35826108217618,194.48819877283577A197,197,0,0,1,-33.091729276903564,194.20076584160043L-28.658278208955736,168.18279665321924A170.6070045455344,170.6070045455344,0,0,0,-27.157050715669474,168.43172087355325Z" fill-rule="evenodd" style="fill: #D7A449; stroke: #fff; opacity: 1;" id="p-type-tokenTransfers"></path><path d="M-33.091729276903564,194.20076584160043A197,197,0,0,1,-34.82256479116911,193.89788286973334L-30.157225734082,167.9204923052086A170.6070045455344,170.6070045455344,0,0,0,-28.658278208955736,168.18279665321924Z" fill-rule="evenodd" style="fill: #D7A449; stroke: #fff; opacity: 1;" id="p-type-tokenTransfers"></path><path d="M-34.82256479116911,193.89788286973334A197,197,0,0,1,-36.550629924799985,193.57957395371113L-31.653774039200492,167.64482869768227A170.6070045455344,170.6070045455344,0,0,0,-30.157225734082,167.9204923052086Z" fill-rule="evenodd" style="fill: #D7A449; stroke: #fff; opacity: 1;" id="p-type-tokenTransfers"></path><path d="M-36.550629924799985,193.57957395371113A197,197,0,0,1,-38.27578719802666,193.24586441725313L-33.14780406333829,167.3558277616245A170.6070045455344,170.6070045455344,0,0,0,-31.653774039200492,167.64482869768227Z" fill-rule="evenodd" style="fill: #D7A449; stroke: #fff; opacity: 1;" id="p-type-tokenTransfers"></path><path d="M-38.27578719802666,193.24586441725313A197,197,0,0,1,-39.99789936242043,192.89678080930662L-34.6391969458695,167.05351248909813A170.6070045455344,170.6070045455344,0,0,0,-33.14780406333829,167.3558277616245Z" fill-rule="evenodd" style="fill: #D7A449; stroke: #fff; opacity: 1;" id="p-type-tokenTransfers"></path><path d="M-39.99789936242043,192.89678080930662A197,197,0,0,1,-41.716829411812455,192.53235090193476L-36.127834035971425,166.73790693141527A170.6070045455344,170.6070045455344,0,0,0,-34.6391969458695,167.05351248909813Z" fill-rule="evenodd" style="fill: #D7A449; stroke: #fff; opacity: 1;" id="p-type-tokenTransfers"></path><path d="M-41.716829411812455,192.53235090193476A197,197,0,0,1,-43.43244059319359,192.15260368810698L-37.613596902064124,166.40903619722405A170.6070045455344,170.6070045455344,0,0,0,-36.127834035971425,166.73790693141527Z" fill-rule="evenodd" style="fill: #D7A449; stroke: #fff; opacity: 1;" id="p-type-tokenTransfers"></path><path d="M-43.43244059319359,192.15260368810698A197,197,0,0,1,-45.14459641759406,191.75756937939255L-39.096367341232416,166.06692645051095A170.6070045455344,170.6070045455344,0,0,0,-37.613596902064124,166.40903619722405Z" fill-rule="evenodd" style="fill: #D7A449; stroke: #fff; opacity: 1;" id="p-type-tokenTransfers"></path><path d="M-45.14459641759406,191.75756937939255A197,197,0,0,1,-46.853160670942096,191.34727940355694L-40.576027388629804,165.71160490851918A170.6070045455344,170.6070045455344,0,0,0,-39.096367341232416,166.06692645051095Z" fill-rule="evenodd" style="fill: #D7A449; stroke: #fff; opacity: 1;" id="p-type-tokenTransfers"></path><path d="M-46.853160670942096,191.34727940355694A197,197,0,0,1,-48.55799742490074,190.92176640206148L-42.05245932686339,165.34309983958357A170.6070045455344,170.6070045455344,0,0,0,-40.576027388629804,165.71160490851918Z" fill-rule="evenodd" style="fill: #D7A449; stroke: #fff; opacity: 1;" id="p-type-tokenTransfers"></path><path d="M-48.55799742490074,190.92176640206148A197,197,0,0,1,-50.25897104768192,190.48106422746665L-43.52554569535914,164.96144056088139A170.6070045455344,170.6070045455344,0,0,0,-42.05245932686339,165.34309983958357Z" fill-rule="evenodd" style="fill: #D7A449; stroke: #fff; opacity: 1;" id="p-type-tokenTransfers"></path><path d="M-50.25897104768192,190.48106422746665A197,197,0,0,1,-51.95594621483685,190.0252079407387L-44.99516929970666,164.56665743610014A170.6070045455344,170.6070045455344,0,0,0,-43.52554569535914,164.96144056088139Z" fill-rule="evenodd" style="fill: #D7A449; stroke: #fff; opacity: 1;" id="p-type-tokenTransfers"></path><path d="M-51.95594621483685,190.0252079407387A197,197,0,0,1,-53.64878792002216,189.55423380846042L-46.4612132209829,164.15878187302184A170.6070045455344,170.6070045455344,0,0,0,-44.99516929970666,164.56665743610014Z" fill-rule="evenodd" style="fill: #D7A449; stroke: #fff; opacity: 1;" id="p-type-tokenTransfers"></path><path d="M-53.64878792002216,189.55423380846042A197,197,0,0,1,-55.33736148574046,189.06817929994588L-47.92356082505382,163.73784632102428A170.6070045455344,170.6070045455344,0,0,0,-46.4612132209829,164.15878187302184Z" fill-rule="evenodd" style="fill: #D7A449; stroke: #fff; opacity: 1;" id="p-type-tokenTransfers"></path><path d="M-55.33736148574046,189.06817929994588A197,197,0,0,1,-57.021532574055,188.5670830842594L-49.3820957718535,163.30388426849953A170.6070045455344,170.6070045455344,0,0,0,-47.92356082505382,163.73784632102428Z" fill-rule="evenodd" style="fill: #D7A449; stroke: #fff; opacity: 1;" id="p-type-tokenTransfers"></path><path d="M-57.021532574055,188.5670830842594A197,197,0,0,1,-58.701167197277165,188.05098502713915L-50.8367020246398,162.8569302401896A170.6070045455344,170.6070045455344,0,0,0,-49.3820957718535,163.30388426849953Z" fill-rule="evenodd" style="fill: #D7A449; stroke: #fff; opacity: 1;" id="p-type-tokenTransfers"></path><path d="M-58.701167197277165,188.05098502713915A197,197,0,0,1,-60.37613172862609,187.51992618782566L-52.28726385922587,162.39701979443984A170.6070045455344,170.6070045455344,0,0,0,-50.8367020246398,162.8569302401896Z" fill-rule="evenodd" style="fill: #D7A449; stroke: #fff; opacity: 1;" id="p-type-tokenTransfers"></path><path d="M-60.37613172862609,187.51992618782566A197,197,0,0,1,-62.04629291285971,186.97394881579524L-53.73366587318689,161.92418952037002A170.6070045455344,170.6070045455344,0,0,0,-52.28726385922587,162.39701979443984Z" fill-rule="evenodd" style="fill: #D7A449; stroke: #fff; opacity: 1;" id="p-type-tokenTransfers"></path><path d="M-62.04629291285971,186.97394881579524A197,197,0,0,1,-63.71151787687607,186.41309634739855L-55.17579299504108,161.4384770349633A170.6070045455344,170.6070045455344,0,0,0,-53.73366587318689,161.92418952037002Z" fill-rule="evenodd" style="fill: #D7A449; stroke: #fff; opacity: 1;" id="p-type-tokenTransfers"></path><path d="M-63.71151787687607,186.41309634739855A197,197,0,0,1,-65.37167414028437,185.83741340240528L-56.61353049340451,160.93992098007368A170.6070045455344,170.6070045455344,0,0,0,-55.17579299504108,161.4384770349633Z" fill-rule="evenodd" style="fill: #D7A449; stroke: #fff; opacity: 1;" id="p-type-tokenTransfers"></path><path d="M-65.37167414028437,185.83741340240528A197,197,0,0,1,-67.02662962594465,185.24694578045393L-58.04676398611873,160.4285610193516A170.6070045455344,170.6070045455344,0,0,0,-56.61353049340451,160.93992098007368Z" fill-rule="evenodd" style="fill: #D7A449; stroke: #fff; opacity: 1;" id="p-type-tokenTransfers"></path><path d="M-67.02662962594465,185.24694578045393A197,197,0,0,1,-68.67625267047555,184.64174045740847L-59.47537944935072,159.90443783508871A170.6070045455344,170.6070045455344,0,0,0,-58.04676398611873,160.4285610193516Z" fill-rule="evenodd" style="fill: #D7A449; stroke: #fff; opacity: 1;" id="p-type-tokenTransfers"></path><path d="M-141.6777807172655,136.8809937538095A197,197,0,0,1,-150.05025084996268,127.64764870479705L-129.94732908029525,110.54610651170604A170.6070045455344,170.6070045455344,0,0,0,-122.69655725295303,118.54241788605808Z" fill-rule="evenodd" style="fill: #414552; stroke: #fff; opacity: 1;" id="p-type-ether"></path><path d="M-150.05025084996268,127.64764870479705A197,197,0,0,1,-157.51437514400496,118.31408040885782L-136.41145033594046,102.46299925946563A170.6070045455344,170.6070045455344,0,0,0,-129.94732908029525,110.54610651170604Z" fill-rule="evenodd" style="fill: #414552; stroke: #fff; opacity: 1;" id="p-type-ether"></path><path d="M-157.51437514400496,118.31408040885782A197,197,0,0,1,-163.22862696014764,110.29694166523822L-141.36013757234136,95.5199534418266A170.6070045455344,170.6070045455344,0,0,0,-136.41145033594046,102.46299925946563Z" fill-rule="evenodd" style="fill: #414552; stroke: #fff; opacity: 1;" id="p-type-ether"></path><path d="M-163.22862696014764,110.29694166523822A197,197,0,0,1,-166.88764384673416,104.67814638827728L-144.52893914900153,90.65393399331441A170.6070045455344,170.6070045455344,0,0,0,-141.36013757234136,95.5199534418266Z" fill-rule="evenodd" style="fill: #414552; stroke: #fff; opacity: 1;" id="p-type-ether"></path><path d="M-166.88764384673416,104.67814638827728A197,197,0,0,1,-169.62406437785162,100.18321607903414L-146.89874884438657,86.7612101572692A170.6070045455344,170.6070045455344,0,0,0,-144.52893914900153,90.65393399331441Z" fill-rule="evenodd" style="fill: #414552; stroke: #fff; opacity: 1;" id="p-type-ether"></path><path d="M-169.62406437785162,100.18321607903414A197,197,0,0,1,-171.8156713925319,96.37621627732383L-148.79673619421183,83.46425161678576A170.6070045455344,170.6070045455344,0,0,0,-146.89874884438657,86.7612101572692Z" fill-rule="evenodd" style="fill: #414552; stroke: #fff; opacity: 1;" id="p-type-ether"></path><path d="M-171.8156713925319,96.37621627732383A197,197,0,0,1,-172.75276459385097,94.6862309165462L-149.60828271226785,82.0006813623285A170.6070045455344,170.6070045455344,0,0,0,-148.79673619421183,83.46425161678576Z" fill-rule="evenodd" style="fill: #414552; stroke: #fff; opacity: 1;" id="p-type-ether"></path><path d="M-172.75276459385097,94.6862309165462A197,197,0,0,1,-173.59181937126493,93.1390371829886L-150.33492546467505,80.66077228449154A170.6070045455344,170.6070045455344,0,0,0,-149.60828271226785,82.0006813623285Z" fill-rule="evenodd" style="fill: #414552; stroke: #fff; opacity: 1;" id="p-type-ether"></path></g></svg>