<svg xmlns="http://www.w3.org/2000/svg" width="400" height="400" id="block-7824893"><g id="burst-container" transform="translate(200,200)"><circle r="197" style="fill: #f9f9f9; stroke: #f9f9f9; stroke-width: 3; opacity: 1;" id="circle-base"></circle><path display="none" d="M6.031385485800715e-15,-98.5A98.5,98.5,0,1,1,-6.031385485800715e-15,98.5A98.5,98.5,0,1,1,6.031385485800715e-15,-98.5Z" fill-rule="evenodd" id="p-type-root" style="stroke: #fff; opacity: 1;"></path><path d="M8.529667153919608e-15,-139.30003589374985A139.30003589374985,139.30003589374985,0,1,1,-102.3378127478209,-94.50646582108519L-72.36376136578328,-66.82616284806402A98.5,98.5,0,1,0,6.031385485800715e-15,-98.5Z" fill-rule="evenodd" style="fill: #0B1F65; stroke: #fff; opacity: 1;" id="p-type-data"></path><path d="M-102.3378127478209,-94.50646582108519A139.30003589374985,139.30003589374985,0,0,1,-2.34570648334392,-139.2802845383868L-1.6586649610457351,-98.48603368268517A98.5,98.5,0,0,0,-72.36376136578328,-66.82616284806402Z" fill-rule="evenodd" style="fill: #D7A449; stroke: #fff; opacity: 1;" id="p-type-value"></path><path d="M1.0446666101440332e-14,-170.6070045455344A170.6070045455344,170.6070045455344,0,0,1,170.17264373756188,12.166401414092663L138.9453817791513,9.933825156800909A139.30003589374985,139.30003589374985,0,0,0,8.529667153919608e-15,-139.30003589374985Z" fill-rule="evenodd" style="fill: #DB3F29; stroke: #fff; opacity: 1;" id="p-type-functions"></path><path d="M170.17264373756188,12.166401414092663A170.6070045455344,170.6070045455344,0,0,1,2.985522380041357,170.58088010125365L2.437668815586975,139.27870537431596A139.30003589374985,139.30003589374985,0,0,0,138.9453817791513,9.933825156800909Z" fill-rule="evenodd" style="fill: #1DC690; stroke: #fff; opacity: 1;" id="p-type-logs"></path><path d="M2.985522380041357,170.58088010125365A170.6070045455344,170.6070045455344,0,0,1,-142.15835988644704,94.3278893774021L-116.07181479757719,77.01839916277757A139.30003589374985,139.30003589374985,0,0,0,2.437668815586975,139.27870537431596Z" fill-rule="evenodd" style="fill: #D7A449; stroke: #fff; opacity: 1;" id="p-type-tokenTransfers"></path><path d="M-142.15835988644704,94.3278893774021A170.6070045455344,170.6070045455344,0,0,1,-165.03200244209032,43.25723257391641L-134.74806573762288,35.3193824969982A139.30003589374985,139.30003589374985,0,0,0,-116.07181479757719,77.01839916277757Z" fill-rule="evenodd" style="fill: #414552; stroke: #fff; opacity: 1;" id="p-type-ether"></path><path d="M-125.33771131232643,-115.74630932771859A170.6070045455344,170.6070045455344,0,0,1,-52.29539198555288,-162.39440254232093L-42.69900875447913,-132.59447443760584A139.30003589374985,139.30003589374985,0,0,0,-102.3378127478209,-94.50646582108519Z" fill-rule="evenodd" style="fill: #D7A449; stroke: #fff; opacity: 1;" id="p-type-tokenTransfers"></path><path d="M-52.29539198555288,-162.39440254232093A170.6070045455344,170.6070045455344,0,0,1,-5.744969275686688,-170.5102499207054L-4.690747771133015,-139.221036073388A139.30003589374985,139.30003589374985,0,0,0,-42.69900875447913,-132.59447443760584Z" fill-rule="evenodd" style="fill: #414552; stroke: #fff; opacity: 1;" id="p-type-ether"></path><path d="M1.206277097160143e-14,-197A197,197,0,0,1,3.8148712594125453,-196.96305937224398L3.3037754228183993,-170.57501302346594A170.6070045455344,170.6070045455344,0,0,0,1.0446666101440332e-14,-170.6070045455344Z" fill-rule="evenodd" style="fill: #DB3F29; stroke: #fff; opacity: 1;" id="p-type-functions"></path><path d="M3.8148712594125453,-196.96305937224398A197,197,0,0,1,5.473148752012118,-196.92395649777697L4.73988585793359,-170.54114894081653A170.6070045455344,170.6070045455344,0,0,0,3.3037754228183993,-170.57501302346594Z" fill-rule="evenodd" style="fill: #DB3F29; stroke: #fff; opacity: 1;" id="p-type-functions"></path><path d="M5.473148752012118,-196.92395649777697A197,197,0,0,1,7.131038218789165,-196.8708924496513L6.17566025282915,-170.49519412711206A170.6070045455344,170.6070045455344,0,0,0,4.73988585793359,-170.54114894081653Z" fill-rule="evenodd" style="fill: #DB3F29; stroke: #fff; opacity: 1;" id="p-type-functions"></path><path d="M7.131038218789165,-196.8708924496513A197,197,0,0,1,8.78842212156725,-196.80387098991002L7.6109968164583695,-170.4371518403774A170.6070045455344,170.6070045455344,0,0,0,6.17566025282915,-170.49519412711206Z" fill-rule="evenodd" style="fill: #DB3F29; stroke: #fff; opacity: 1;" id="p-type-functions"></path><path d="M8.78842212156725,-196.80387098991002A197,197,0,0,1,10.44518295801253,-196.72289687012452L9.04579378881514,-170.36702619559406A170.6070045455344,170.6070045455344,0,0,0,7.6109968164583695,-170.4371518403774Z" fill-rule="evenodd" style="fill: #DB3F29; stroke: #fff; opacity: 1;" id="p-type-functions"></path><path d="M10.44518295801253,-196.72289687012452A197,197,0,0,1,12.10120326996412,-196.6279758310577L10.479949448148247,-170.28482216440858A170.6070045455344,170.6070045455344,0,0,0,9.04579378881514,-170.36702619559406Z" fill-rule="evenodd" style="fill: #DB3F29; stroke: #fff; opacity: 1;" id="p-type-functions"></path><path d="M12.10120326996412,-196.6279758310577A197,197,0,0,1,13.75636565176168,-196.51911460225702L11.913362118173291,-170.19054557478A170.6070045455344,170.6070045455344,0,0,0,10.479949448148247,-170.28482216440858Z" fill-rule="evenodd" style="fill: #DB3F29; stroke: #fff; opacity: 1;" id="p-type-functions"></path><path d="M13.75636565176168,-196.51911460225702A197,197,0,0,1,15.410552758568922,-196.39632090157738L13.345930175281044,-170.08420311056673A170.6070045455344,170.6070045455344,0,0,0,11.913362118173291,-170.19054557478Z" fill-rule="evenodd" style="fill: #DB3F29; stroke: #fff; opacity: 1;" id="p-type-functions"></path><path d="M15.410552758568922,-196.39632090157738A197,197,0,0,1,17.063647314692776,-196.25960343463393L14.777552055742065,-169.96580231105264A170.6070045455344,170.6070045455344,0,0,0,13.345930175281044,-170.08420311056673Z" fill-rule="evenodd" style="fill: #DB3F29; stroke: #fff; opacity: 1;" id="p-type-functions"></path><path d="M17.063647314692776,-196.25960343463393A197,197,0,0,1,18.715532121898086,-196.1089718941849L16.20812626290742,-169.8353515704126A170.6070045455344,170.6070045455344,0,0,0,14.777552055742065,-169.96580231105264Z" fill-rule="evenodd" style="fill: #DB3F29; stroke: #fff; opacity: 1;" id="p-type-functions"></path><path d="M18.715532121898086,-196.1089718941849A197,197,0,0,1,20.36609006771636,-195.94443695944437L17.637551374404303,-169.6928601371173A170.6070045455344,170.6070045455344,0,0,0,16.20812626290742,-169.8353515704126Z" fill-rule="evenodd" style="fill: #DB3F29; stroke: #fff; opacity: 1;" id="p-type-functions"></path><path d="M20.36609006771636,-195.94443695944437A197,197,0,0,1,22.015204133748504,-195.76601029532523L19.065726049326393,-169.5383381132776A170.6070045455344,170.6070045455344,0,0,0,17.637551374404303,-169.6928601371173Z" fill-rule="evenodd" style="fill: #DB3F29; stroke: #fff; opacity: 1;" id="p-type-functions"></path><path d="M22.015204133748504,-195.76601029532523A197,197,0,0,1,23.662757403961297,-195.57370455161214L20.492549035418797,-169.3717964539284A170.6070045455344,170.6070045455344,0,0,0,19.065726049326393,-169.5383381132776Z" fill-rule="evenodd" style="fill: #DB3F29; stroke: #fff; opacity: 1;" id="p-type-functions"></path><path d="M23.662757403961297,-195.57370455161214A197,197,0,0,1,25.308633072975926,-195.36753336206473L21.917919176256177,-169.19324696625188A170.6070045455344,170.6070045455344,0,0,0,20.492549035418797,-169.3717964539284Z" fill-rule="evenodd" style="fill: #DB3F29; stroke: #fff; opacity: 1;" id="p-type-functions"></path><path d="M25.308633072975926,-195.36753336206473A197,197,0,0,1,26.952714454349394,-195.1475113434509L23.341735418414608,-169.0027023087404A170.6070045455344,170.6070045455344,0,0,0,21.917919176256177,-169.19324696625188Z" fill-rule="evenodd" style="fill: #DB3F29; stroke: #fff; opacity: 1;" id="p-type-functions"></path><path d="M26.952714454349394,-195.1475113434509A197,197,0,0,1,28.594884988846974,-194.91365409451083L24.763896818635782,-168.80017599029912A170.6070045455344,170.6070045455344,0,0,0,23.341735418414608,-169.0027023087404Z" fill-rule="evenodd" style="fill: #DB3F29; stroke: #fff; opacity: 1;" id="p-type-functions"></path><path d="M28.594884988846974,-194.91365409451083A197,197,0,0,1,30.23502825270575,-194.66597819485068L26.184302550983407,-168.5856823692883A170.6070045455344,170.6070045455344,0,0,0,24.763896818635782,-168.80017599029912Z" fill-rule="evenodd" style="fill: #DB3F29; stroke: #fff; opacity: 1;" id="p-type-functions"></path><path d="M30.23502825270575,-194.66597819485068A197,197,0,0,1,31.87302796588888,-194.40450120376755L27.60285191399162,-168.3592366525052A170.6070045455344,170.6070045455344,0,0,0,26.184302550983407,-168.5856823692883Z" fill-rule="evenodd" style="fill: #DB3F29; stroke: #fff; opacity: 1;" id="p-type-functions"></path><path d="M31.87302796588888,-194.40450120376755A197,197,0,0,1,33.50876800032911,-194.12924165900438L29.019444337804096,-168.12085489410612A170.6070045455344,170.6070045455344,0,0,0,27.60285191399162,-168.3592366525052Z" fill-rule="evenodd" style="fill: #DB3F29; stroke: #fff; opacity: 1;" id="p-type-functions"></path><path d="M33.50876800032911,-194.12924165900438A197,197,0,0,1,35.1421323881621,-193.84021907543564L30.43397939130428,-167.8705539944682A170.6070045455344,170.6070045455344,0,0,0,29.019444337804096,-168.12085489410612Z" fill-rule="evenodd" style="fill: #DB3F29; stroke: #fff; opacity: 1;" id="p-type-functions"></path><path d="M35.1421323881621,-193.84021907543564A197,197,0,0,1,36.77300532994798,-193.53745394368403L31.84635678923551,-167.60835169899116A170.6070045455344,170.6070045455344,0,0,0,30.43397939130428,-167.8705539944682Z" fill-rule="evenodd" style="fill: #DB3F29; stroke: #fff; opacity: 1;" id="p-type-functions"></path><path d="M36.77300532994798,-193.53745394368403A197,197,0,0,1,38.40127120288099,-193.22096772866755L33.25647639931074,-167.33426659683929A170.6070045455344,170.6070045455344,0,0,0,31.84635678923551,-167.60835169899116Z" fill-rule="evenodd" style="fill: #DB3F29; stroke: #fff; opacity: 1;" id="p-type-functions"></path><path d="M38.40127120288099,-193.22096772866755A197,197,0,0,1,40.02681456898695,-192.8907828680778L34.66423824931177,-167.04831811962356A170.6070045455344,170.6070045455344,0,0,0,33.25647639931074,-167.33426659683929Z" fill-rule="evenodd" style="fill: #DB3F29; stroke: #fff; opacity: 1;" id="p-type-functions"></path><path d="M40.02681456898695,-192.8907828680778A197,197,0,0,1,41.64952018330725,-192.54692277078925L36.06954253417679,-166.75052654002388A170.6070045455344,170.6070045455344,0,0,0,34.66423824931177,-167.04831811962356Z" fill-rule="evenodd" style="fill: #DB3F29; stroke: #fff; opacity: 1;" id="p-type-functions"></path><path d="M41.64952018330725,-192.54692277078925A197,197,0,0,1,43.26927300206917,-192.18941181519966L37.472289623076065,-166.44091297035206A170.6070045455344,170.6070045455344,0,0,0,36.06954253417679,-166.75052654002388Z" fill-rule="evenodd" style="fill: #DB3F29; stroke: #fff; opacity: 1;" id="p-type-functions"></path><path d="M43.26927300206917,-192.18941181519966A197,197,0,0,1,44.885958190842295,-191.81827534750164L38.87238006647563,-166.11949936105475A170.6070045455344,170.6070045455344,0,0,0,37.472289623076065,-166.44091297035206Z" fill-rule="evenodd" style="fill: #DB3F29; stroke: #fff; opacity: 1;" id="p-type-functions"></path><path d="M44.885958190842295,-191.81827534750164A197,197,0,0,1,46.49946113267974,-191.43353967988577L40.26971460318778,-165.78630849915743A170.6070045455344,170.6070045455344,0,0,0,38.87238006647563,-166.11949936105475Z" fill-rule="evenodd" style="fill: #DB3F29; stroke: #fff; opacity: 1;" id="p-type-functions"></path><path d="M46.49946113267974,-191.43353967988577A197,197,0,0,1,48.10966743624392,-191.03523208867523L41.6641941674082,-165.4413640066489A170.6070045455344,170.6070045455344,0,0,0,40.26971460318778,-165.78630849915743Z" fill-rule="evenodd" style="fill: #DB3F29; stroke: #fff; opacity: 1;" id="p-type-functions"></path><path d="M48.10966743624392,-191.03523208867523A197,197,0,0,1,49.71646294391672,-190.62338081239184L43.05571989573956,-165.08469033880644A170.6070045455344,170.6070045455344,0,0,0,41.6641941674082,-165.4413640066489Z" fill-rule="evenodd" style="fill: #DB3F29; stroke: #fff; opacity: 1;" id="p-type-functions"></path><path d="M49.71646294391672,-190.62338081239184A197,197,0,0,1,51.31973373989275,-190.19801504975416L44.444193134200496,-164.7163127824621A170.6070045455344,170.6070045455344,0,0,0,43.05571989573956,-165.08469033880644Z" fill-rule="evenodd" style="fill: #DB3F29; stroke: #fff; opacity: 1;" id="p-type-functions"></path><path d="M51.31973373989275,-190.19801504975416A197,197,0,0,1,52.91936615825536,-189.7591649576075L45.829515445219656,-164.33625745420994A170.6070045455344,170.6070045455344,0,0,0,44.444193134200496,-164.7163127824621Z" fill-rule="evenodd" style="fill: #DB3F29; stroke: #fff; opacity: 1;" id="p-type-functions"></path><path d="M52.91936615825536,-189.7591649576075A197,197,0,0,1,54.515246791035466,-189.3068616487857L47.21158861461481,-163.9445512985545A170.6070045455344,170.6070045455344,0,0,0,45.829515445219656,-164.33625745420994Z" fill-rule="evenodd" style="fill: #DB3F29; stroke: #fff; opacity: 1;" id="p-type-functions"></path><path d="M54.515246791035466,-189.3068616487857A197,197,0,0,1,56.10726249625156,-188.84113718990554L48.59031465855574,-163.54122208600052A170.6070045455344,170.6070045455344,0,0,0,47.21158861461481,-163.9445512985545Z" fill-rule="evenodd" style="fill: #DB3F29; stroke: #fff; opacity: 1;" id="p-type-functions"></path><path d="M56.10726249625156,-188.84113718990554A197,197,0,0,1,57.69530040593093,-188.3620245990932L49.965595830510814,-163.12629841108404A170.6070045455344,170.6070045455344,0,0,0,48.59031465855574,-163.54122208600052Z" fill-rule="evenodd" style="fill: #DB3F29; stroke: #fff; opacity: 1;" id="p-type-functions"></path><path d="M57.69530040593093,-188.3620245990932A197,197,0,0,1,59.279247934111886,-187.86955784364343L51.337334628177096,-162.69980969034526A170.6070045455344,170.6070045455344,0,0,0,49.965595830510814,-163.12629841108404Z" fill-rule="evenodd" style="fill: #DB3F29; stroke: #fff; opacity: 1;" id="p-type-functions"></path><path d="M59.279247934111886,-187.86955784364343A197,197,0,0,1,60.85899278482546,-187.36377183761158L52.705433800392704,-162.261786160243A170.6070045455344,170.6070045455344,0,0,0,51.337334628177096,-162.69980969034526Z" fill-rule="evenodd" style="fill: #DB3F29; stroke: #fff; opacity: 1;" id="p-type-functions"></path><path d="M60.85899278482546,-187.36377183761158A197,197,0,0,1,62.43442296005685,-186.8447024393379L54.06979635403166,-161.8122588750109A170.6070045455344,170.6070045455344,0,0,0,52.705433800392704,-162.261786160243Z" fill-rule="evenodd" style="fill: #DB3F29; stroke: #fff; opacity: 1;" id="p-type-functions"></path><path d="M62.43442296005685,-186.8447024393379A197,197,0,0,1,64.00542676768566,-186.31238644890584L55.43032556088029,-161.35125970445606A170.6070045455344,170.6070045455344,0,0,0,54.06979635403166,-161.8122588750109Z" fill-rule="evenodd" style="fill: #DB3F29; stroke: #fff; opacity: 1;" id="p-type-functions"></path><path d="M64.00542676768566,-186.31238644890584A197,197,0,0,1,65.57189282940433,-185.76686160553263L56.78692496449482,-160.87882133169933A170.6070045455344,170.6070045455344,0,0,0,55.43032556088029,-161.35125970445606Z" fill-rule="evenodd" style="fill: #DB3F29; stroke: #fff; opacity: 1;" id="p-type-functions"></path><path d="M65.57189282940433,-185.76686160553263A197,197,0,0,1,67.13371008861468,-185.20816658489397L58.13949838703997,-160.39497725085837A170.6070045455344,170.6070045455344,0,0,0,56.78692496449482,-160.87882133169933Z" fill-rule="evenodd" style="fill: #DB3F29; stroke: #fff; opacity: 1;" id="p-type-functions"></path><path d="M67.13371008861468,-185.20816658489397A197,197,0,0,1,68.69076781830128,-184.63634099638193L59.48794993610749,-159.89976176467297A170.6070045455344,170.6070045455344,0,0,0,58.13949838703997,-160.39497725085837Z" fill-rule="evenodd" style="fill: #DB3F29; stroke: #fff; opacity: 1;" id="p-type-functions"></path><path d="M68.69076781830128,-184.63634099638193A197,197,0,0,1,70.24295562888143,-184.05142538029688L60.83218401151445,-159.39320998207307A170.6070045455344,170.6070045455344,0,0,0,59.48794993610749,-159.89976176467297Z" fill-rule="evenodd" style="fill: #DB3F29; stroke: #fff; opacity: 1;" id="p-type-functions"></path><path d="M70.24295562888143,-184.05142538029688A197,197,0,0,1,71.79016347603171,-183.4534612049733L62.172105312081214,-158.87535781568985A170.6070045455344,170.6070045455344,0,0,0,60.83218401151445,-159.39320998207307Z" fill-rule="evenodd" style="fill: #DB3F29; stroke: #fff; opacity: 1;" id="p-type-functions"></path><path d="M71.79016347603171,-183.4534612049733A197,197,0,0,1,73.33228166848939,-182.8424908638398L63.50761884238771,-158.34624197930938A170.6070045455344,170.6070045455344,0,0,0,62.172105312081214,-158.87535781568985Z" fill-rule="evenodd" style="fill: #DB3F29; stroke: #fff; opacity: 1;" id="p-type-functions"></path><path d="M73.33228166848939,-182.8424908638398A197,197,0,0,1,74.86920087582935,-182.2185576724136L64.83862991950835,-157.80589998527A170.6070045455344,170.6070045455344,0,0,0,63.50761884238771,-158.34624197930938Z" fill-rule="evenodd" style="fill: #DB3F29; stroke: #fff; opacity: 1;" id="p-type-functions"></path><path d="M74.86920087582935,-182.2185576724136A197,197,0,0,1,76.4008121362151,-181.58170586522962L66.16504417972472,-157.25437014180264A170.6070045455344,170.6070045455344,0,0,0,64.83862991950835,-157.80589998527Z" fill-rule="evenodd" style="fill: #DB3F29; stroke: #fff; opacity: 1;" id="p-type-functions"></path><path d="M76.4008121362151,-181.58170586522962A197,197,0,0,1,77.9270068641237,-180.93198059270455L67.48676758521545,-156.69169155031517A170.6070045455344,170.6070045455344,0,0,0,66.16504417972472,-157.25437014180264Z" fill-rule="evenodd" style="fill: #DB3F29; stroke: #fff; opacity: 1;" id="p-type-functions"></path><path d="M77.9270068641237,-180.93198059270455A197,197,0,0,1,79.44767685804422,-180.26942791793562L68.80370643072335,-156.11790410261995A170.6070045455344,170.6070045455344,0,0,0,67.48676758521545,-156.69169155031517Z" fill-rule="evenodd" style="fill: #DB3F29; stroke: #fff; opacity: 1;" id="p-type-functions"></path><path d="M79.44767685804422,-180.26942791793562A197,197,0,0,1,80.96271430814883,-179.594094813435L70.11576735019874,-155.5330484781058A170.6070045455344,170.6070045455344,0,0,0,68.80370643072335,-156.11790410261995Z" fill-rule="evenodd" style="fill: #DB3F29; stroke: #fff; opacity: 1;" id="p-type-functions"></path><path d="M80.96271430814883,-179.594094813435A197,197,0,0,1,82.47201180393583,-178.90602915779968L71.42285732341853,-154.93716614085403A170.6070045455344,170.6070045455344,0,0,0,70.11576735019874,-155.5330484781058Z" fill-rule="evenodd" style="fill: #DB3F29; stroke: #fff; opacity: 1;" id="p-type-functions"></path><path d="M82.47201180393583,-178.90602915779968A197,197,0,0,1,83.97546234184504,-178.20527973231702L72.72488368258128,-154.3302993366987A170.6070045455344,170.6070045455344,0,0,0,71.42285732341853,-154.93716614085403Z" fill-rule="evenodd" style="fill: #DB3F29; stroke: #fff; opacity: 1;" id="p-type-functions"></path><path d="M83.97546234184504,-178.20527973231702A197,197,0,0,1,85.47295933284373,-177.49189621750634L74.0217541188769,-153.7124910902316A170.6070045455344,170.6070045455344,0,0,0,72.72488368258128,-154.3302993366987Z" fill-rule="evenodd" style="fill: #DB3F29; stroke: #fff; opacity: 1;" id="p-type-functions"></path><path d="M85.47295933284373,-177.49189621750634A197,197,0,0,1,86.9643966099834,-176.7659291895967L75.31337668903093,-153.08378520175197A170.6070045455344,170.6070045455344,0,0,0,74.0217541188769,-153.7124910902316Z" fill-rule="evenodd" style="fill: #DB3F29; stroke: #fff; opacity: 1;" id="p-type-functions"></path><path d="M86.9643966099834,-176.7659291895967A197,197,0,0,1,88.4496684359267,-176.02743011694125L76.59965982182314,-152.4442262441611A170.6070045455344,170.6070045455344,0,0,0,75.31337668903093,-153.08378520175197Z" fill-rule="evenodd" style="fill: #DB3F29; stroke: #fff; opacity: 1;" id="p-type-functions"></path><path d="M88.4496684359267,-176.02743011694125A197,197,0,0,1,89.92866951044367,-175.27645135636845L77.88051232457931,-151.7938595598025A170.6070045455344,170.6070045455344,0,0,0,76.59965982182314,-152.4442262441611Z" fill-rule="evenodd" style="fill: #DB3F29; stroke: #fff; opacity: 1;" id="p-type-functions"></path><path d="M89.92866951044367,-175.27645135636845A197,197,0,0,1,91.4012949778773,-174.51304614947003L79.15584338963677,-151.13273125724717A170.6070045455344,170.6070045455344,0,0,0,77.88051232457931,-151.7938595598025Z" fill-rule="evenodd" style="fill: #DB3F29; stroke: #fff; opacity: 1;" id="p-type-functions"></path><path d="M91.4012949778773,-174.51304614947003A197,197,0,0,1,92.86744043457738,-173.73726861882633L80.42556260078217,-150.46088820802456A170.6070045455344,170.6070045455344,0,0,0,79.15584338963677,-151.13273125724717Z" fill-rule="evenodd" style="fill: #DB3F29; stroke: #fff; opacity: 1;" id="p-type-functions"></path><path d="M92.86744043457738,-173.73726861882633A197,197,0,0,1,94.32700193630212,-172.9491737641694L81.68957993966157,-149.77837804329982A170.6070045455344,170.6070045455344,0,0,0,80.42556260078217,-150.46088820802456Z" fill-rule="evenodd" style="fill: #DB3F29; stroke: #fff; opacity: 1;" id="p-type-functions"></path><path d="M94.32700193630212,-172.9491737641694A197,197,0,0,1,95.77987600558771,-172.14881745848342L82.94780579216257,-149.0852491504967A170.6070045455344,170.6070045455344,0,0,0,81.68957993966157,-149.77837804329982Z" fill-rule="evenodd" style="fill: #DB3F29; stroke: #fff; opacity: 1;" id="p-type-functions"></path><path d="M95.77987600558771,-172.14881745848342A197,197,0,0,1,97.22595963908434,-171.3362564440438L84.20015095476755,-148.38155066986718A170.6070045455344,170.6070045455344,0,0,0,82.94780579216257,-149.0852491504967Z" fill-rule="evenodd" style="fill: #DB3F29; stroke: #fff; opacity: 1;" id="p-type-functions"></path><path d="M97.22595963908434,-171.3362564440438A197,197,0,0,1,98.66515031485861,-170.51154832839433L85.44652664087776,-147.6673324910075A170.6070045455344,170.6070045455344,0,0,0,84.20015095476755,-148.38155066986718Z" fill-rule="evenodd" style="fill: #DB3F29; stroke: #fff; opacity: 1;" id="p-type-functions"></path><path d="M98.66515031485861,-170.51154832839433A197,197,0,0,1,100.09734599966228,-169.67475158026278L86.68684448710819,-146.9426452493214A170.6070045455344,170.6070045455344,0,0,0,85.44652664087776,-147.6673324910075Z" fill-rule="evenodd" style="fill: #DB3F29; stroke: #fff; opacity: 1;" id="p-type-functions"></path><path d="M100.09734599966228,-169.67475158026278A197,197,0,0,1,101.52244515616582,-168.82592552541598L87.92101655955203,-146.20754032242994A170.6070045455344,170.6070045455344,0,0,0,86.68684448710819,-146.9426452493214Z" fill-rule="evenodd" style="fill: #DB3F29; stroke: #fff; opacity: 1;" id="p-type-functions"></path><path d="M101.52244515616582,-168.82592552541598A197,197,0,0,1,102.940346750157,-167.96513034245365L89.14895536001485,-145.46206982652927A170.6070045455344,170.6070045455344,0,0,0,87.92101655955203,-146.20754032242994Z" fill-rule="evenodd" style="fill: #DB3F29; stroke: #fff; opacity: 1;" id="p-type-functions"></path><path d="M102.940346750157,-167.96513034245365A197,197,0,0,1,104.35095025770394,-167.09242705854206L90.37057383221793,-144.70628661269572A170.6070045455344,170.6070045455344,0,0,0,89.14895536001485,-145.46206982652927Z" fill-rule="evenodd" style="fill: #DB3F29; stroke: #fff; opacity: 1;" id="p-type-functions"></path><path d="M104.35095025770394,-167.09242705854206A197,197,0,0,1,105.7541556722819,-166.2078775450874L91.58578536797032,-143.94024426313885A170.6070045455344,170.6070045455344,0,0,0,90.37057383221793,-144.70628661269572Z" fill-rule="evenodd" style="fill: #DB3F29; stroke: #fff; opacity: 1;" id="p-type-functions"></path><path d="M105.7541556722819,-166.2078775450874A197,197,0,0,1,107.14986351186333,-165.31154451334928L92.79450381330892,-143.16399708740252A170.6070045455344,170.6070045455344,0,0,0,91.58578536797032,-143.94024426313885Z" fill-rule="evenodd" style="fill: #DB3F29; stroke: #fff; opacity: 1;" id="p-type-functions"></path><path d="M107.14986351186333,-165.31154451334928A197,197,0,0,1,108.53797482597068,-164.40349150999486L93.9966434746065,-142.37760011851483A170.6070045455344,170.6070045455344,0,0,0,92.79450381330892,-143.16399708740252Z" fill-rule="evenodd" style="fill: #DB3F29; stroke: #fff; opacity: 1;" id="p-type-functions"></path><path d="M108.53797482597068,-164.40349150999486A197,197,0,0,1,109.91839120269182,-163.4837829125935L95.19211912464708,-141.5811091090863A170.6070045455344,170.6070045455344,0,0,0,93.9966434746065,-142.37760011851483Z" fill-rule="evenodd" style="fill: #DB3F29; stroke: #fff; opacity: 1;" id="p-type-functions"></path><path d="M109.91839120269182,-163.4837829125935A197,197,0,0,1,111.29101477565686,-162.55248392505274L96.38084600866816,-140.77458052735727A170.6070045455344,170.6070045455344,0,0,0,95.19211912464708,-141.5811091090863Z" fill-rule="evenodd" style="fill: #DB3F29; stroke: #fff; opacity: 1;" id="p-type-functions"></path><path d="M111.29101477565686,-162.55248392505274A197,197,0,0,1,112.65574823097671,-161.6096605729954L97.56273985036967,-139.95807155319443A170.6070045455344,170.6070045455344,0,0,0,96.38084600866816,-140.77458052735727Z" fill-rule="evenodd" style="fill: #DB3F29; stroke: #fff; opacity: 1;" id="p-type-functions"></path><path d="M112.65574823097671,-161.6096605729954A197,197,0,0,1,114.0124948141421,-160.6553796990789L98.73771685788863,-139.1316400740371A170.6070045455344,170.6070045455344,0,0,0,97.56273985036967,-139.95807155319443Z" fill-rule="evenodd" style="fill: #DB3F29; stroke: #fff; opacity: 1;" id="p-type-functions"></path><path d="M114.0124948141421,-160.6553796990789A197,197,0,0,1,115.36115833688328,-159.68970895825612L99.9056937297399,-138.29534468079325A170.6070045455344,170.6070045455344,0,0,0,98.73771685788863,-139.1316400740371Z" fill-rule="evenodd" style="fill: #DB3F29; stroke: #fff; opacity: 1;" id="p-type-functions"></path><path d="M115.36115833688328,-159.68970895825612A197,197,0,0,1,116.7016431839892,-158.71271681297898L101.06658766072174,-137.4492446636854A170.6070045455344,170.6070045455344,0,0,0,99.9056937297399,-138.29534468079325Z" fill-rule="evenodd" style="fill: #DB3F29; stroke: #fff; opacity: 1;" id="p-type-functions"></path><path d="M116.7016431839892,-158.71271681297898A197,197,0,0,1,118.03385432008652,-157.7244725283448L102.22031634778654,-136.59340000804738A170.6070045455344,170.6070045455344,0,0,0,101.06658766072174,-137.4492446636854Z" fill-rule="evenodd" style="fill: #DB3F29; stroke: #fff; opacity: 1;" id="p-type-functions"></path><path d="M118.03385432008652,-157.7244725283448A197,197,0,0,1,119.35769729637705,-156.72504616718552L103.36679799587573,-135.7278713900716A170.6070045455344,170.6070045455344,0,0,0,102.22031634778654,-136.59340000804738Z" fill-rule="evenodd" style="fill: #DB3F29; stroke: #fff; opacity: 1;" id="p-type-functions"></path><path d="M119.35769729637705,-156.72504616718552A197,197,0,0,1,120.67307825733391,-155.7145085851006L104.50595132371876,-134.8527201725072A170.6070045455344,170.6070045455344,0,0,0,103.36679799587573,-135.7278713900716Z" fill-rule="evenodd" style="fill: #DB3F29; stroke: #fff; opacity: 1;" id="p-type-functions"></path><path d="M120.67307825733391,-155.7145085851006A197,197,0,0,1,121.97990394735557,-154.6929314254336L105.63769556959565,-133.96800840030963A170.6070045455344,170.6070045455344,0,0,0,104.50595132371876,-134.8527201725072Z" fill-rule="evenodd" style="fill: #DB3F29; stroke: #fff; opacity: 1;" id="p-type-functions"></path><path d="M121.97990394735557,-154.6929314254336A197,197,0,0,1,123.27808171737726,-153.66038711419301L106.76195049706267,-133.07379879624216A170.6070045455344,170.6070045455344,0,0,0,105.63769556959565,-133.96800840030963Z" fill-rule="evenodd" style="fill: #DB3F29; stroke: #fff; opacity: 1;" id="p-type-functions"></path><path d="M123.27808171737726,-153.66038711419301A197,197,0,0,1,124.56751953143947,-152.6169488549173L107.87863640064081,-132.1701547564288A170.6070045455344,170.6070045455344,0,0,0,106.76195049706267,-133.07379879624216Z" fill-rule="evenodd" style="fill: #DB3F29; stroke: #fff; opacity: 1;" id="p-type-functions"></path><path d="M124.56751953143947,-152.6169488549173A197,197,0,0,1,125.84812597321296,-151.5626906234853L108.98767411146665,-131.25714034585982A170.6070045455344,170.6070045455344,0,0,0,107.87863640064081,-132.1701547564288Z" fill-rule="evenodd" style="fill: #DB3F29; stroke: #fff; opacity: 1;" id="p-type-functions"></path><path d="M125.84812597321296,-151.5626906234853A197,197,0,0,1,127.1198102524798,-150.4976871628715L110.08898500290503,-130.3348202938499A170.6070045455344,170.6070045455344,0,0,0,108.98767411146665,-131.25714034585982Z" fill-rule="evenodd" style="fill: #DB3F29; stroke: #fff; opacity: 1;" id="p-type-functions"></path><path d="M127.1198102524798,-150.4976871628715A197,197,0,0,1,128.3824822115701,-149.42201397784692L111.18249099612352,-129.4032599894489A170.6070045455344,170.6070045455344,0,0,0,110.08898500290503,-130.3348202938499Z" fill-rule="evenodd" style="fill: #DB3F29; stroke: #fff; opacity: 1;" id="p-type-functions"></path><path d="M128.3824822115701,-149.42201397784692A197,197,0,0,1,129.6360523317539,-148.3357473296264L112.26811456562777,-128.46252547680618A170.6070045455344,170.6070045455344,0,0,0,111.18249099612352,-129.4032599894489Z" fill-rule="evenodd" style="fill: #DB3F29; stroke: #fff; opacity: 1;" id="p-type-functions"></path><path d="M129.6360523317539,-148.3357473296264A197,197,0,0,1,130.88043173958752,-147.23896423046165L113.34577874475795,-127.51268345048807A170.6070045455344,170.6070045455344,0,0,0,112.26811456562777,-128.46252547680618Z" fill-rule="evenodd" style="fill: #DB3F29; stroke: #fff; opacity: 1;" id="p-type-functions"></path><path d="M130.88043173958752,-147.23896423046165A197,197,0,0,1,132.11553221321464,-146.1317424381816L114.41540713114522,-126.5538012507498A170.6070045455344,170.6070045455344,0,0,0,113.34577874475795,-127.51268345048807Z" fill-rule="evenodd" style="fill: #DB3F29; stroke: #fff; opacity: 1;" id="p-type-functions"></path><path d="M132.11553221321464,-146.1317424381816A197,197,0,0,1,133.34126618862066,-145.01416045067947L115.47692389212853,-125.58594685876105A170.6070045455344,170.6070045455344,0,0,0,114.41540713114522,-126.5538012507498Z" fill-rule="evenodd" style="fill: #DB3F29; stroke: #fff; opacity: 1;" id="p-type-functions"></path><path d="M133.34126618862066,-145.01416045067947A197,197,0,0,1,134.43634657386573,-143.99954416549886L116.42529132493681,-124.70726338070125A170.6070045455344,170.6070045455344,0,0,0,115.47692389212853,-125.58594685876105Z" fill-rule="evenodd" style="fill: #DB3F29; stroke: #fff; opacity: 1;" id="p-type-functions"></path><path d="M196.4984433411833,14.048550262990885A197,197,0,0,1,196.37319020292185,15.70255296208464L170.06417133792377,13.598809769435883A170.6070045455344,170.6070045455344,0,0,0,170.17264373756188,12.166401414092663Z" fill-rule="evenodd" style="fill: #1DC690; stroke: #fff; opacity: 1;" id="p-type-logs"></path><path d="M196.37319020292185,15.70255296208464A197,197,0,0,1,196.23401493827686,17.35544240877028L169.94364202316277,15.030254019912853A170.6070045455344,170.6070045455344,0,0,0,170.06417133792377,13.598809769435883Z" fill-rule="evenodd" style="fill: #1DC690; stroke: #fff; opacity: 1;" id="p-type-logs"></path><path d="M196.23401493827686,17.35544240877028A197,197,0,0,1,196.08092741425511,19.007101419354083L169.81106433835748,16.460632681467896A170.6070045455344,170.6070045455344,0,0,0,169.94364202316277,15.030254019912853Z" fill-rule="evenodd" style="fill: #1DC690; stroke: #fff; opacity: 1;" id="p-type-logs"></path><path d="M196.08092741425511,19.007101419354083A197,197,0,0,1,195.9139384841909,20.65741289737566L169.6664476827711,17.889844345591627A170.6070045455344,170.6070045455344,0,0,0,169.81106433835748,16.460632681467896Z" fill-rule="evenodd" style="fill: #1DC690; stroke: #fff; opacity: 1;" id="p-type-logs"></path><path d="M195.9139384841909,20.65741289737566A197,197,0,0,1,195.73305998697614,22.306259841909657L169.50980230918478,19.31778768651042A170.6070045455344,170.6070045455344,0,0,0,169.6664476827711,17.889844345591627Z" fill-rule="evenodd" style="fill: #1DC690; stroke: #fff; opacity: 1;" id="p-type-logs"></path><path d="M195.73305998697614,22.306259841909657A197,197,0,0,1,195.53830474622137,23.953525355860677L169.34113932317098,20.74436146837003A170.6070045455344,170.6070045455344,0,0,0,169.50980230918478,19.31778768651042Z" fill-rule="evenodd" style="fill: #1DC690; stroke: #fff; opacity: 1;" id="p-type-logs"></path><path d="M195.53830474622137,23.953525355860677A197,197,0,0,1,195.32968656934634,25.599092654250843L169.160470682306,22.169464552412844A170.6070045455344,170.6070045455344,0,0,0,169.34113932317098,20.74436146837003Z" fill-rule="evenodd" style="fill: #1DC690; stroke: #fff; opacity: 1;" id="p-type-logs"></path><path d="M195.32968656934634,25.599092654250843A197,197,0,0,1,195.10722024660132,27.242845072499428L168.9678091953223,23.59299590414822A170.6070045455344,170.6070045455344,0,0,0,169.160470682306,22.169464552412844Z" fill-rule="evenodd" style="fill: #1DC690; stroke: #fff; opacity: 1;" id="p-type-logs"></path><path d="M195.10722024660132,27.242845072499428A197,197,0,0,1,194.8709215500184,28.884666074693932L168.76316852120036,25.01485460051549A170.6070045455344,170.6070045455344,0,0,0,168.9678091953223,23.59299590414822Z" fill-rule="evenodd" style="fill: #1DC690; stroke: #fff; opacity: 1;" id="p-type-logs"></path><path d="M194.8709215500184,28.884666074693932A197,197,0,0,1,194.6208072322934,30.52443926185206L168.5465631682003,26.434939837039A170.6070045455344,170.6070045455344,0,0,0,168.76316852120036,25.01485460051549Z" fill-rule="evenodd" style="fill: #1DC690; stroke: #fff; opacity: 1;" id="p-type-logs"></path><path d="M194.6208072322934,30.52443926185206A197,197,0,0,1,194.35689502559808,32.16204838017394L168.31800849283334,27.85315093497479A170.6070045455344,170.6070045455344,0,0,0,168.5465631682003,26.434939837039Z" fill-rule="evenodd" style="fill: #1DC690; stroke: #fff; opacity: 1;" id="p-type-logs"></path><path d="M194.35689502559808,32.16204838017394A197,197,0,0,1,194.07920364032307,33.797377329284124L168.07752069877307,29.269387348448316A170.6070045455344,170.6070045455344,0,0,0,168.31800849283334,27.85315093497479Z" fill-rule="evenodd" style="fill: #1DC690; stroke: #fff; opacity: 1;" id="p-type-logs"></path><path d="M194.07920364032307,33.797377329284124A197,197,0,0,1,193.7877527637513,35.43031017046263L167.8251168357067,30.683548671582805A170.6070045455344,170.6070045455344,0,0,0,168.07752069877307,29.269387348448316Z" fill-rule="evenodd" style="fill: #1DC690; stroke: #fff; opacity: 1;" id="p-type-logs"></path><path d="M193.7877527637513,35.43031017046263A197,197,0,0,1,193.4825630586624,37.060731134864625L167.56081479812622,32.095534645617654A170.6070045455344,170.6070045455344,0,0,0,167.8251168357067,30.683548671582805Z" fill-rule="evenodd" style="fill: #1DC690; stroke: #fff; opacity: 1;" id="p-type-logs"></path><path d="M193.4825630586624,37.060731134864625A197,197,0,0,1,193.16365616186752,38.688524631727915L167.2846333240598,33.505245166016365A170.6070045455344,170.6070045455344,0,0,0,167.56081479812622,32.095534645617654Z" fill-rule="evenodd" style="fill: #1DC690; stroke: #fff; opacity: 1;" id="p-type-logs"></path><path d="M193.16365616186752,38.688524631727915A197,197,0,0,1,192.8310546826756,40.31357525656799L166.99659199374332,34.91258028956364A170.6070045455344,170.6070045455344,0,0,0,167.2846333240598,33.505245166016365Z" fill-rule="evenodd" style="fill: #1DC690; stroke: #fff; opacity: 1;" id="p-type-logs"></path><path d="M192.8310546826756,40.31357525656799A197,197,0,0,1,192.48478220129036,41.9357677993597L166.6967112282322,36.317440241450946A170.6070045455344,170.6070045455344,0,0,0,166.99659199374332,34.91258028956364Z" fill-rule="evenodd" style="fill: #1DC690; stroke: #fff; opacity: 1;" id="p-type-logs"></path><path d="M192.48478220129036,41.9357677993597A197,197,0,0,1,192.12486326713855,43.554987252705295L166.3850122879537,37.71972542235018A170.6070045455344,170.6070045455344,0,0,0,166.6967112282322,36.317440241450946Z" fill-rule="evenodd" style="fill: #1DC690; stroke: #fff; opacity: 1;" id="p-type-logs"></path><path d="M192.12486326713855,43.554987252705295A197,197,0,0,1,191.75132339712948,45.17111881998792L166.06151727119953,39.11933641547489A170.6070045455344,170.6070045455344,0,0,0,166.3850122879537,37.71972542235018Z" fill-rule="evenodd" style="fill: #1DC690; stroke: #fff; opacity: 1;" id="p-type-logs"></path><path d="M191.75132339712948,45.17111881998792A197,197,0,0,1,191.364189073846,46.78404792351033L165.72624911255915,40.516173993628556A170.6070045455344,170.6070045455344,0,0,0,166.06151727119953,39.11933641547489Z" fill-rule="evenodd" style="fill: #1DC690; stroke: #fff; opacity: 1;" id="p-type-logs"></path><path d="M191.364189073846,46.78404792351033A197,197,0,0,1,190.96348774366703,48.39366021261804L165.37923158129394,41.91013912623946A170.6070045455344,170.6070045455344,0,0,0,165.72624911255915,40.516173993628556Z" fill-rule="evenodd" style="fill: #1DC690; stroke: #fff; opacity: 1;" id="p-type-logs"></path><path d="M190.96348774366703,48.39366021261804A197,197,0,0,1,190.54924781482154,49.9998415718063L165.02048927965188,43.30113298638151A170.6070045455344,170.6070045455344,0,0,0,165.37923158129394,41.91013912623946Z" fill-rule="evenodd" style="fill: #1DC690; stroke: #fff; opacity: 1;" id="p-type-logs"></path><path d="M190.54924781482154,49.9998415718063A197,197,0,0,1,190.1214986553747,51.602478128810496L164.65004764112348,44.68905695778077A170.6070045455344,170.6070045455344,0,0,0,165.02048927965188,43.30113298638151Z" fill-rule="evenodd" style="fill: #1DC690; stroke: #fff; opacity: 1;" id="p-type-logs"></path><path d="M190.1214986553747,51.602478128810496A197,197,0,0,1,189.68027059114561,53.20145626267926L164.26793292863846,46.07381264180696A170.6070045455344,170.6070045455344,0,0,0,164.65004764112348,44.68905695778077Z" fill-rule="evenodd" style="fill: #1DC690; stroke: #fff; opacity: 1;" id="p-type-logs"></path><path d="M189.68027059114561,53.20145626267926A197,197,0,0,1,189.22559490355764,54.79666261182979L163.8741722327041,47.455301864449545A170.6070045455344,170.6070045455344,0,0,0,164.26793292863846,46.07381264180696Z" fill-rule="evenodd" style="fill: #1DC690; stroke: #fff; opacity: 1;" id="p-type-logs"></path><path d="M189.22559490355764,54.79666261182979A197,197,0,0,1,188.75750382742024,56.38798408208471L163.46879346948432,48.83342668327791A170.6070045455344,170.6070045455344,0,0,0,163.8741722327041,47.455301864449545Z" fill-rule="evenodd" style="fill: #1DC690; stroke: #fff; opacity: 1;" id="p-type-logs"></path><path d="M188.75750382742024,56.38798408208471A197,197,0,0,1,188.27603054864394,57.975307854690094L163.05182537882067,50.20808939438513A170.6070045455344,170.6070045455344,0,0,0,163.46879346948432,48.83342668327791Z" fill-rule="evenodd" style="fill: #1DC690; stroke: #fff; opacity: 1;" id="p-type-logs"></path><path d="M188.27603054864394,57.975307854690094A197,197,0,0,1,187.78120920188755,59.55852139431384L162.6232975221948,51.579192539314775A170.6070045455344,170.6070045455344,0,0,0,163.05182537882067,50.20808939438513Z" fill-rule="evenodd" style="fill: #1DC690; stroke: #fff; opacity: 1;" id="p-type-logs"></path><path d="M187.78120920188755,59.55852139431384A197,197,0,0,1,187.27307486813802,61.13751245702404L162.18324028063265,52.94663891197039A170.6070045455344,170.6070045455344,0,0,0,162.6232975221948,51.579192539314775Z" fill-rule="evenodd" style="fill: #1DC690; stroke: #fff; opacity: 1;" id="p-type-logs"></path><path d="M187.27307486813802,61.13751245702404A197,197,0,0,1,186.75166357222344,62.712169098246626L161.73168485255044,54.31033156550703A170.6070045455344,170.6070045455344,0,0,0,162.18324028063265,52.94663891197039Z" fill-rule="evenodd" style="fill: #1DC690; stroke: #fff; opacity: 1;" id="p-type-logs"></path><path d="M186.75166357222344,62.712169098246626A197,197,0,0,1,186.2170122802589,64.28237968070187L161.26866325154296,55.67017381920443A170.6070045455344,170.6070045455344,0,0,0,161.73168485255044,54.31033156550703Z" fill-rule="evenodd" style="fill: #1DC690; stroke: #fff; opacity: 1;" id="p-type-logs"></path><path d="M186.2170122802589,64.28237968070187A197,197,0,0,1,185.66915889702585,65.84803288231898L160.7942083041139,57.02606926532128A170.6070045455344,170.6070045455344,0,0,0,161.26866325154296,55.67017381920443Z" fill-rule="evenodd" style="fill: #1DC690; stroke: #fff; opacity: 1;" id="p-type-logs"></path><path d="M185.66915889702585,65.84803288231898A197,197,0,0,1,185.10814226328483,67.40901770412847L160.30835364734855,58.37792177593024A170.6070045455344,170.6070045455344,0,0,0,160.7942083041139,57.02606926532128Z" fill-rule="evenodd" style="fill: #1DC690; stroke: #fff; opacity: 1;" id="p-type-logs"></path><path d="M185.10814226328483,67.40901770412847A197,197,0,0,1,184.53400215302156,68.9652234781316L159.81113372652896,59.72563550973297A170.6070045455344,170.6070045455344,0,0,0,160.30835364734855,58.37792177593024Z" fill-rule="evenodd" style="fill: #1DC690; stroke: #fff; opacity: 1;" id="p-type-logs"></path><path d="M184.53400215302156,68.9652234781316A197,197,0,0,1,183.9467792706274,70.51653987514622L159.30258379269208,61.06911491885497A170.6070045455344,170.6070045455344,0,0,0,159.81113372652896,59.72563550973297Z" fill-rule="evenodd" style="fill: #1DC690; stroke: #fff; opacity: 1;" id="p-type-logs"></path><path d="M183.9467792706274,70.51653987514622A197,197,0,0,1,183.34651524801333,72.06285691262882L158.78273990013048,62.4082647556196A170.6070045455344,170.6070045455344,0,0,0,159.30258379269208,61.06911491885497Z" fill-rule="evenodd" style="fill: #1DC690; stroke: #fff; opacity: 1;" id="p-type-logs"></path><path d="M183.34651524801333,72.06285691262882A197,197,0,0,1,182.7332526416586,73.6040649624718L158.25163890383624,63.74299007930069A170.6070045455344,170.6070045455344,0,0,0,158.78273990013048,62.4082647556196Z" fill-rule="evenodd" style="fill: #1DC690; stroke: #fff; opacity: 1;" id="p-type-logs"></path><path d="M182.7332526416586,73.6040649624718A197,197,0,0,1,182.1070349295935,75.14005475877569L157.70931845688807,65.07319626285356A170.6070045455344,170.6070045455344,0,0,0,158.25163890383624,63.74299007930069Z" fill-rule="evenodd" style="fill: #1DC690; stroke: #fff; opacity: 1;" id="p-type-logs"></path><path d="M182.1070349295935,75.14005475877569A197,197,0,0,1,181.46790650831696,76.67071740559581L157.15581700778196,66.39878899962369A170.6070045455344,170.6070045455344,0,0,0,157.70931845688807,65.07319626285356Z" fill-rule="evenodd" style="fill: #1DC690; stroke: #fff; opacity: 1;" id="p-type-logs"></path><path d="M181.46790650831696,76.67071740559581A197,197,0,0,1,180.81591268964905,78.1959443846624L156.59117379770512,67.71967431003276A170.6070045455344,170.6070045455344,0,0,0,157.15581700778196,66.39878899962369Z" fill-rule="evenodd" style="fill: #1DC690; stroke: #fff; opacity: 1;" id="p-type-logs"></path><path d="M180.81591268964905,78.1959443846624A197,197,0,0,1,180.15109969751845,79.71562756307429L156.01542885775407,69.03575854824135A170.6070045455344,170.6070045455344,0,0,0,156.59117379770512,67.71967431003276Z" fill-rule="evenodd" style="fill: #1DC690; stroke: #fff; opacity: 1;" id="p-type-logs"></path><path d="M180.15109969751845,79.71562756307429A197,197,0,0,1,179.47351466468544,81.22965920096514L155.4286230060966,70.34694840878818A170.6070045455344,170.6070045455344,0,0,0,156.01542885775407,69.03575854824135Z" fill-rule="evenodd" style="fill: #1DC690; stroke: #fff; opacity: 1;" id="p-type-logs"></path><path d="M179.47351466468544,81.22965920096514A197,197,0,0,1,178.7832056294003,82.73793195914173L154.8307978450777,71.65315093320514A170.6070045455344,170.6070045455344,0,0,0,155.4286230060966,70.34694840878818Z" fill-rule="evenodd" style="fill: #1DC690; stroke: #fff; opacity: 1;" id="p-type-logs"></path><path d="M178.7832056294003,82.73793195914173A197,197,0,0,1,178.08022153199764,84.24033890669386L154.22199575827054,72.9542735166075A170.6070045455344,170.6070045455344,0,0,0,154.8307978450777,71.65315093320514Z" fill-rule="evenodd" style="fill: #1DC690; stroke: #fff; opacity: 1;" id="p-type-logs"></path><path d="M178.08022153199764,84.24033890669386A197,197,0,0,1,177.36461221142667,85.73677352857544L153.60225990747116,74.25022391425952A170.6070045455344,170.6070045455344,0,0,0,154.22199575827054,72.9542735166075Z" fill-rule="evenodd" style="fill: #1DC690; stroke: #fff; opacity: 1;" id="p-type-logs"></path><path d="M177.36461221142667,85.73677352857544A197,197,0,0,1,176.63642840171778,87.22712973315599L152.97163422963874,75.54091024811403A170.6070045455344,170.6070045455344,0,0,0,153.60225990747116,74.25022391425952Z" fill-rule="evenodd" style="fill: #1DC690; stroke: #fff; opacity: 1;" id="p-type-logs"></path><path d="M176.63642840171778,87.22712973315599A197,197,0,0,1,175.89572172838572,88.71130185974215L152.3301634337805,76.82624101332641A170.6070045455344,170.6070045455344,0,0,0,152.97163422963874,75.54091024811403Z" fill-rule="evenodd" style="fill: #1DC690; stroke: #fff; opacity: 1;" id="p-type-logs"></path><path d="M175.89572172838572,88.71130185974215A197,197,0,0,1,175.14254470476956,90.1891846860686L151.67789299778215,78.10612508474186A170.6070045455344,170.6070045455344,0,0,0,152.3301634337805,76.82624101332641Z" fill-rule="evenodd" style="fill: #1DC690; stroke: #fff; opacity: 1;" id="p-type-logs"></path><path d="M175.14254470476956,90.1891846860686A197,197,0,0,1,174.3769507283097,91.66067343575791L151.01486916518357,79.38047172335581A170.6070045455344,170.6070045455344,0,0,0,151.67789299778215,78.10612508474186Z" fill-rule="evenodd" style="fill: #1DC690; stroke: #fff; opacity: 1;" id="p-type-logs"></path><path d="M174.3769507283097,91.66067343575791A197,197,0,0,1,173.59899407676204,93.12566378574888L150.34113894190023,80.64919058274705A170.6070045455344,170.6070045455344,0,0,0,151.01486916518357,79.38047172335581Z" fill-rule="evenodd" style="fill: #1DC690; stroke: #fff; opacity: 1;" id="p-type-logs"></path><path d="M173.59899407676204,93.12566378574888A197,197,0,0,1,172.80872990435014,94.58405187369256L149.6567500928908,81.91219171548289A170.6070045455344,170.6070045455344,0,0,0,150.34113894190023,80.64919058274705Z" fill-rule="evenodd" style="fill: #1DC690; stroke: #fff; opacity: 1;" id="p-type-logs"></path><path d="M172.80872990435014,94.58405187369256A197,197,0,0,1,172.00621423785478,96.03573430531577L148.96175113877084,83.16938557949615A170.6070045455344,170.6070045455344,0,0,0,149.6567500928908,81.91219171548289Z" fill-rule="evenodd" style="fill: #1DC690; stroke: #fff; opacity: 1;" id="p-type-logs"></path><path d="M172.00621423785478,96.03573430531577A197,197,0,0,1,171.19150397264204,97.48060816175129L148.25619135237264,84.4206830444333A170.6070045455344,170.6070045455344,0,0,0,148.96175113877084,83.16938557949615Z" fill-rule="evenodd" style="fill: #1DC690; stroke: #fff; opacity: 1;" id="p-type-logs"></path><path d="M171.19150397264204,97.48060816175129A197,197,0,0,1,170.36465686862942,98.91857100683451L147.54012075525213,85.66599539797352A170.6070045455344,170.6070045455344,0,0,0,148.25619135237264,84.4206830444333Z" fill-rule="evenodd" style="fill: #1DC690; stroke: #fff; opacity: 1;" id="p-type-logs"></path><path d="M170.36465686862942,98.91857100683451A197,197,0,0,1,169.52573154619108,100.34952089436577L146.81359011414247,86.90523435211807A170.6070045455344,170.6070045455344,0,0,0,147.54012075525213,85.66599539797352Z" fill-rule="evenodd" style="fill: #1DC690; stroke: #fff; opacity: 1;" id="p-type-logs"></path><path d="M169.52573154619108,100.34952089436577A197,197,0,0,1,168.67478748200185,101.77335637533783L146.07665093735503,88.13831204944951A170.6070045455344,170.6070045455344,0,0,0,146.81359011414247,86.90523435211807Z" fill-rule="evenodd" style="fill: #1DC690; stroke: #fff; opacity: 1;" id="p-type-logs"></path><path d="M168.67478748200185,101.77335637533783A197,197,0,0,1,167.81188500482034,103.18997650512843L145.32935547112731,89.36514106936059A170.6070045455344,170.6070045455344,0,0,0,146.07665093735503,88.13831204944951Z" fill-rule="evenodd" style="fill: #1DC690; stroke: #fff; opacity: 1;" id="p-type-logs"></path><path d="M167.81188500482034,103.18997650512843A197,197,0,0,1,166.93708529121213,104.59928085065674L144.57175669591925,90.5856344342519A170.6070045455344,170.6070045455344,0,0,0,145.32935547112731,89.36514106936059Z" fill-rule="evenodd" style="fill: #1DC690; stroke: #fff; opacity: 1;" id="p-type-logs"></path><path d="M166.93708529121213,104.59928085065674A197,197,0,0,1,166.05045036121248,106.0011694975037L143.80390832265692,91.79970561569836A170.6070045455344,170.6070045455344,0,0,0,144.57175669591925,90.5856344342519Z" fill-rule="evenodd" style="fill: #1DC690; stroke: #fff; opacity: 1;" id="p-type-logs"></path><path d="M166.05045036121248,106.0011694975037A197,197,0,0,1,165.15204307392926,107.39554305699568L143.0258647889246,93.00726854058375A170.6070045455344,170.6070045455344,0,0,0,143.80390832265692,91.79970561569836Z" fill-rule="evenodd" style="fill: #1DC690; stroke: #fff; opacity: 1;" id="p-type-logs"></path><path d="M165.15204307392926,107.39554305699568A197,197,0,0,1,164.24192712308658,108.78230267325064L142.2376812551054,94.2082375972029A170.6070045455344,170.6070045455344,0,0,0,143.0258647889246,93.00726854058375Z" fill-rule="evenodd" style="fill: #1DC690; stroke: #fff; opacity: 1;" id="p-type-logs"></path><path d="M164.24192712308658,108.78230267325064A197,197,0,0,1,163.3201670325091,110.16135003018677L141.43941360047066,95.40252764133137A170.6070045455344,170.6070045455344,0,0,0,142.2376812551054,94.2082375972029Z" fill-rule="evenodd" style="fill: #1DC690; stroke: #fff; opacity: 1;" id="p-type-logs"></path><path d="M163.3201670325091,110.16135003018677A197,197,0,0,1,162.3868281515475,111.53258735849256L140.63111841921818,96.5900540022617A170.6070045455344,170.6070045455344,0,0,0,141.43941360047066,95.40252764133137Z" fill-rule="evenodd" style="fill: #1DC690; stroke: #fff; opacity: 1;" id="p-type-logs"></path><path d="M162.3868281515475,111.53258735849256A197,197,0,0,1,161.44197665044555,112.89591744255853L139.81285301646002,97.77073248880639A170.6070045455344,170.6070045455344,0,0,0,140.63111841921818,96.5900540022617Z" fill-rule="evenodd" style="fill: #1DC690; stroke: #fff; opacity: 1;" id="p-type-logs"></path><path d="M161.44197665044555,112.89591744255853A197,197,0,0,1,160.4856795156488,114.25124362736918L138.98467540415976,98.94447939526667A170.6070045455344,170.6070045455344,0,0,0,139.81285301646002,97.77073248880639Z" fill-rule="evenodd" style="fill: #1DC690; stroke: #fff; opacity: 1;" id="p-type-logs"></path><path d="M160.4856795156488,114.25124362736918A197,197,0,0,1,159.51800454505545,115.59846982535566L138.14664429701958,100.11121150736689A170.6070045455344,170.6070045455344,0,0,0,138.98467540415976,98.94447939526667Z" fill-rule="evenodd" style="fill: #1DC690; stroke: #fff; opacity: 1;" id="p-type-logs"></path><path d="M159.51800454505545,115.59846982535566A197,197,0,0,1,158.53902034320996,116.93750052320796L137.29881910831773,101.27084610815417A170.6070045455344,170.6070045455344,0,0,0,138.14664429701958,100.11121150736689Z" fill-rule="evenodd" style="fill: #1DC690; stroke: #fff; opacity: 1;" id="p-type-logs"></path><path d="M158.53902034320996,116.93750052320796A197,197,0,0,1,157.54879631643888,118.26824078864644L136.44125994569626,102.42330098386275A170.6070045455344,170.6070045455344,0,0,0,137.29881910831773,101.27084610815417Z" fill-rule="evenodd" style="fill: #1DC690; stroke: #fff; opacity: 1;" id="p-type-logs"></path><path d="M157.54879631643888,118.26824078864644A197,197,0,0,1,156.5474026679306,119.59059627715213L135.5740276068997,103.56849442974246A170.6070045455344,170.6070045455344,0,0,0,136.44125994569626,102.42330098386275Z" fill-rule="evenodd" style="fill: #1DC690; stroke: #fff; opacity: 1;" id="p-type-logs"></path><path d="M156.5474026679306,119.59059627715213A197,197,0,0,1,155.53491039275787,120.90447323865557L134.6971835754646,104.70634525585155A170.6070045455344,170.6070045455344,0,0,0,135.5740276068997,103.56849442974246Z" fill-rule="evenodd" style="fill: #1DC690; stroke: #fff; opacity: 1;" id="p-type-logs"></path><path d="M155.53491039275787,120.90447323865557A197,197,0,0,1,154.51139127284472,122.20977852418311L133.81079001636076,105.8367727928125A170.6070045455344,170.6070045455344,0,0,0,134.6971835754646,104.70634525585155Z" fill-rule="evenodd" style="fill: #1DC690; stroke: #fff; opacity: 1;" id="p-type-logs"></path><path d="M154.51139127284472,122.20977852418311A197,197,0,0,1,153.4769178718773,123.50641959246099L132.91490977158367,106.95969689753132A170.6070045455344,170.6070045455344,0,0,0,133.81079001636076,105.8367727928125Z" fill-rule="evenodd" style="fill: #1DC690; stroke: #fff; opacity: 1;" id="p-type-logs"></path><path d="M153.4769178718773,123.50641959246099A197,197,0,0,1,152.43156353015942,124.79430451647613L132.00960635569962,108.07503795887943A170.6070045455344,170.6070045455344,0,0,0,132.91490977158367,106.95969689753132Z" fill-rule="evenodd" style="fill: #1DC690; stroke: #fff; opacity: 1;" id="p-type-logs"></path><path d="M152.43156353015942,124.79430451647613A197,197,0,0,1,151.375402359413,126.07334198999338L131.0949439513425,109.18271690333764A170.6070045455344,170.6070045455344,0,0,0,132.00960635569962,108.07503795887943Z" fill-rule="evenodd" style="fill: #1DC690; stroke: #fff; opacity: 1;" id="p-type-logs"></path><path d="M151.375402359413,126.07334198999338A197,197,0,0,1,150.30850923752374,127.34344133402884L130.1709874046635,110.2826552006023A170.6070045455344,170.6070045455344,0,0,0,131.0949439513425,109.18271690333764Z" fill-rule="evenodd" style="fill: #1DC690; stroke: #fff; opacity: 1;" id="p-type-logs"></path><path d="M150.30850923752374,127.34344133402884A197,197,0,0,1,149.2309598032327,128.6045125032786L129.23780222073393,111.37477486915276A170.6070045455344,170.6070045455344,0,0,0,130.1709874046635,110.2826552006023Z" fill-rule="evenodd" style="fill: #1DC690; stroke: #fff; opacity: 1;" id="p-type-logs"></path><path d="M149.2309598032327,128.6045125032786A197,197,0,0,1,148.14283045077372,129.85646609250273L128.29545455890096,112.45899848177994A170.6070045455344,170.6070045455344,0,0,0,129.23780222073393,111.37477486915276Z" fill-rule="evenodd" style="fill: #1DC690; stroke: #fff; opacity: 1;" id="p-type-logs"></path><path d="M148.14283045077372,129.85646609250273A197,197,0,0,1,147.04419832445734,131.09921334286358L127.34401122809724,113.53524917107569A170.6070045455344,170.6070045455344,0,0,0,128.29545455890096,112.45899848177994Z" fill-rule="evenodd" style="fill: #1DC690; stroke: #fff; opacity: 1;" id="p-type-logs"></path><path d="M147.04419832445734,131.09921334286358A197,197,0,0,1,145.93514131320157,132.33266614821864L126.3835396821045,114.60345063488236A170.6070045455344,170.6070045455344,0,0,0,127.34401122809724,113.53524917107569Z" fill-rule="evenodd" style="fill: #1DC690; stroke: #fff; opacity: 1;" id="p-type-logs"></path><path d="M145.93514131320157,132.33266614821864A197,197,0,0,1,144.81573804500982,133.55673706136687L125.41410801477112,115.66352714170235A170.6070045455344,170.6070045455344,0,0,0,126.3835396821045,114.60345063488236Z" fill-rule="evenodd" style="fill: #1DC690; stroke: #fff; opacity: 1;" id="p-type-logs"></path><path d="M144.81573804500982,133.55673706136687A197,197,0,0,1,143.6860678813966,134.7713393002484L124.43578495518476,116.7154035360672A170.6070045455344,170.6070045455344,0,0,0,125.41410801477112,115.66352714170235Z" fill-rule="evenodd" style="fill: #1DC690; stroke: #fff; opacity: 1;" id="p-type-logs"></path><path d="M143.6860678813966,134.7713393002484A197,197,0,0,1,142.54621091176094,135.97638675409698L123.44863986279952,117.75900524386583A170.6070045455344,170.6070045455344,0,0,0,124.43578495518476,116.7154035360672Z" fill-rule="evenodd" style="fill: #1DC690; stroke: #fff; opacity: 1;" id="p-type-logs"></path><path d="M142.54621091176094,135.97638675409698A197,197,0,0,1,141.39624794770842,137.17179398954497L122.45274272251878,118.79425827763153A170.6070045455344,170.6070045455344,0,0,0,123.44863986279952,117.75900524386583Z" fill-rule="evenodd" style="fill: #1DC690; stroke: #fff; opacity: 1;" id="p-type-logs"></path><path d="M141.39624794770842,137.17179398954497A197,197,0,0,1,140.23626051732185,138.35747625668026L121.44816413973338,119.8210892417874A170.6070045455344,170.6070045455344,0,0,0,122.45274272251878,118.79425827763153Z" fill-rule="evenodd" style="fill: #1DC690; stroke: #fff; opacity: 1;" id="p-type-logs"></path><path d="M140.23626051732185,138.35747625668026A197,197,0,0,1,139.06633085938134,139.5333494950547L120.43497533531607,120.83942533784993A170.6070045455344,170.6070045455344,0,0,0,121.44816413973338,119.8210892417874Z" fill-rule="evenodd" style="fill: #1DC690; stroke: #fff; opacity: 1;" id="p-type-logs"></path><path d="M139.06633085938134,139.5333494950547A197,197,0,0,1,137.88654191753392,140.69933033964367L119.41324814057222,121.84919436959001A170.6070045455344,170.6070045455344,0,0,0,120.43497533531607,120.83942533784993Z" fill-rule="evenodd" style="fill: #1DC690; stroke: #fff; opacity: 1;" id="p-type-logs"></path><path d="M137.88654191753392,140.69933033964367A197,197,0,0,1,136.69697733441285,141.85533612675633L118.38305499214715,122.8503247481514A170.6070045455344,170.6070045455344,0,0,0,119.41324814057222,121.84919436959001Z" fill-rule="evenodd" style="fill: #1DC690; stroke: #fff; opacity: 1;" id="p-type-logs"></path><path d="M136.69697733441285,141.85533612675633A197,197,0,0,1,135.49772144570812,143.00128489989623L117.34446892689076,123.84274549712619A170.6070045455344,170.6070045455344,0,0,0,118.38305499214715,122.8503247481514Z" fill-rule="evenodd" style="fill: #1DC690; stroke: #fff; opacity: 1;" id="p-type-logs"></path><path d="M3.447384299577059,196.96983409012415A197,197,0,0,1,1.788792331002069,196.99187856862665L1.5491396007425742,170.59997117965A170.6070045455344,170.6070045455344,0,0,0,2.985522380041357,170.58088010125365Z" fill-rule="evenodd" style="fill: #D7A449; stroke: #fff; opacity: 1;" id="p-type-tokenTransfers"></path><path d="M1.788792331002069,196.99187856862665A197,197,0,0,1,0.13007354372601024,196.9999570580492L0.11264699322699086,170.60696735671414A170.6070045455344,170.6070045455344,0,0,0,1.5491396007425742,170.59997117965Z" fill-rule="evenodd" style="fill: #D7A449; stroke: #fff; opacity: 1;" id="p-type-tokenTransfers"></path><path d="M0.13007354372601024,196.9999570580492A197,197,0,0,1,-1.528654465278906,196.99406898565698L-1.3238536005400496,170.60186813644316A170.6070045455344,170.6070045455344,0,0,0,0.11264699322699086,170.60696735671414Z" fill-rule="evenodd" style="fill: #D7A449; stroke: #fff; opacity: 1;" id="p-type-tokenTransfers"></path><path d="M-1.528654465278906,196.99406898565698A197,197,0,0,1,-3.1872740983866827,196.9742147688924L-2.760260338027009,170.58467388035277A170.6070045455344,170.6070045455344,0,0,0,-1.3238536005400496,170.60186813644316Z" fill-rule="evenodd" style="fill: #D7A449; stroke: #fff; opacity: 1;" id="p-type-tokenTransfers"></path><path d="M-3.1872740983866827,196.9742147688924A197,197,0,0,1,-4.845667765654769,196.94039581534537L-4.19647138335641,170.55538580745161A170.6070045455344,170.6070045455344,0,0,0,-2.760260338027009,170.58467388035277Z" fill-rule="evenodd" style="fill: #D7A449; stroke: #fff; opacity: 1;" id="p-type-tokenTransfers"></path><path d="M-4.845667765654769,196.94039581534537A197,197,0,0,1,-6.503717893160748,196.8926145226534L-5.632384914524615,170.51400599415473A170.6070045455344,170.6070045455344,0,0,0,-4.19647138335641,170.55538580745161Z" fill-rule="evenodd" style="fill: #D7A449; stroke: #fff; opacity: 1;" id="p-type-tokenTransfers"></path><path d="M-6.503717893160748,196.8926145226534A197,197,0,0,1,-8.161306931337892,196.8308742783319L-7.067899130620636,170.46053737413644A170.6070045455344,170.6070045455344,0,0,0,-5.632384914524615,170.51400599415473Z" fill-rule="evenodd" style="fill: #D7A449; stroke: #fff; opacity: 1;" id="p-type-tokenTransfers"></path><path d="M-8.161306931337892,196.8308742783319A197,197,0,0,1,-9.818317363308987,196.7551794595338L-8.50291225904343,170.39498373812242A170.6070045455344,170.6070045455344,0,0,0,-7.067899130620636,170.46053737413644Z" fill-rule="evenodd" style="fill: #D7A449; stroke: #fff; opacity: 1;" id="p-type-tokenTransfers"></path><path d="M-9.818317363308987,196.7551794595338A197,197,0,0,1,-11.474631713217834,196.66553543273923L-9.937322562717199,170.31734973362083A170.6070045455344,170.6070045455344,0,0,0,-8.50291225904343,170.39498373812242Z" fill-rule="evenodd" style="fill: #D7A449; stroke: #fff; opacity: 1;" id="p-type-tokenTransfers"></path><path d="M-11.474631713217834,196.66553543273923A197,197,0,0,1,-13.130132554557862,196.56194855337526L-11.371028347304176,170.22764086459287A170.6070045455344,170.6070045455344,0,0,0,-9.937322562717199,170.31734973362083Z" fill-rule="evenodd" style="fill: #D7A449; stroke: #fff; opacity: 1;" id="p-type-tokenTransfers"></path><path d="M-13.130132554557862,196.56194855337526A197,197,0,0,1,-14.784702518497216,196.444426165365L-12.803927968414358,170.12586349106257A170.6070045455344,170.6070045455344,0,0,0,-11.371028347304176,170.22764086459287Z" fill-rule="evenodd" style="fill: #D7A449; stroke: #fff; opacity: 1;" id="p-type-tokenTransfers"></path><path d="M-14.784702518497216,196.444426165365A197,197,0,0,1,-16.43822430219978,196.31297660060724L-14.235919838811736,170.01202482866594A170.6070045455344,170.6070045455344,0,0,0,-12.803927968414358,170.12586349106257Z" fill-rule="evenodd" style="fill: #D7A449; stroke: #fff; opacity: 1;" id="p-type-tokenTransfers"></path><path d="M-16.43822430219978,196.31297660060724A197,197,0,0,1,-18.0905806771415,196.16760917838562L-15.66690243561643,169.88613294813933A170.6070045455344,170.6070045455344,0,0,0,-14.235919838811736,170.01202482866594Z" fill-rule="evenodd" style="fill: #D7A449; stroke: #fff; opacity: 1;" id="p-type-tokenTransfers"></path><path d="M-18.0905806771415,196.16760917838562A197,197,0,0,1,-19.741654497421457,196.00833420470784L-17.096774307502297,169.7481967747473A170.6070045455344,170.6070045455344,0,0,0,-15.66690243561643,169.88613294813933Z" fill-rule="evenodd" style="fill: #D7A449; stroke: #fff; opacity: 1;" id="p-type-tokenTransfers"></path><path d="M-19.741654497421457,196.00833420470784A197,197,0,0,1,-21.391328708067075,195.83516297157522L-18.52543408188944,169.59822608764978A170.6070045455344,170.6070045455344,0,0,0,-17.096774307502297,169.7481967747473Z" fill-rule="evenodd" style="fill: #D7A449; stroke: #fff; opacity: 1;" id="p-type-tokenTransfers"></path><path d="M-21.391328708067075,195.83516297157522A197,197,0,0,1,-23.03948635333287,195.64810775618196L-19.952780472131163,169.43623151920883A170.6070045455344,170.6070045455344,0,0,0,-18.52543408188944,169.59822608764978Z" fill-rule="evenodd" style="fill: #D7A449; stroke: #fff; opacity: 1;" id="p-type-tokenTransfers"></path><path d="M-23.03948635333287,195.64810775618196A197,197,0,0,1,-24.68601058499219,195.44718182004482L-21.37871228469479,169.2622245542349A170.6070045455344,170.6070045455344,0,0,0,-19.952780472131163,169.43623151920883Z" fill-rule="evenodd" style="fill: #D7A449; stroke: #fff; opacity: 1;" id="p-type-tokenTransfers"></path><path d="M-24.68601058499219,195.44718182004482A197,197,0,0,1,-26.330784670621316,195.23239940806283L-22.80312842633593,169.0762175291724A170.6070045455344,170.6070045455344,0,0,0,-21.37871228469479,169.2622245542349Z" fill-rule="evenodd" style="fill: #D7A449; stroke: #fff; opacity: 1;" id="p-type-tokenTransfers"></path><path d="M-26.330784670621316,195.23239940806283A197,197,0,0,1,-27.97369200187534,195.00377574750755L-24.22592791126561,168.87822363122535A170.6070045455344,170.6070045455344,0,0,0,-22.80312842633593,169.0762175291724Z" fill-rule="evenodd" style="fill: #D7A449; stroke: #fff; opacity: 1;" id="p-type-tokenTransfers"></path><path d="M-27.97369200187534,195.00377574750755A197,197,0,0,1,-29.614616102755278,194.76132704694336L-25.647009868309777,168.66825689742222A170.6070045455344,170.6070045455344,0,0,0,-24.22592791126561,168.87822363122535Z" fill-rule="evenodd" style="fill: #D7A449; stroke: #fff; opacity: 1;" id="p-type-tokenTransfers"></path><path d="M-29.614616102755278,194.76132704694336A197,197,0,0,1,-31.253440637865783,194.50507049507837L-27.066273548060696,168.44633221362093A170.6070045455344,170.6070045455344,0,0,0,-25.647009868309777,168.66825689742222Z" fill-rule="evenodd" style="fill: #D7A449; stroke: #fff; opacity: 1;" id="p-type-tokenTransfers"></path><path d="M-31.253440637865783,194.50507049507837A197,197,0,0,1,-32.89004942066289,194.2350242595458L-28.48361833001972,168.21246531345338A170.6070045455344,170.6070045455344,0,0,0,-27.066273548060696,168.44633221362093Z" fill-rule="evenodd" style="fill: #D7A449; stroke: #fff; opacity: 1;" id="p-type-tokenTransfers"></path><path d="M-32.89004942066289,194.2350242595458A197,197,0,0,1,-34.524326421691185,193.95120748561612L-29.89894372973087,167.96667277721014A170.6070045455344,170.6070045455344,0,0,0,-28.48361833001972,168.21246531345338Z" fill-rule="evenodd" style="fill: #D7A449; stroke: #fff; opacity: 1;" id="p-type-tokenTransfers"></path><path d="M-34.524326421691185,193.95120748561612A197,197,0,0,1,-36.156155776809904,193.65364029483945L-31.31214940590486,167.70897203066477A170.6070045455344,170.6070045455344,0,0,0,-29.89894372973087,167.96667277721014Z" fill-rule="evenodd" style="fill: #D7A449; stroke: #fff; opacity: 1;" id="p-type-tokenTransfers"></path><path d="M-36.156155776809904,193.65364029483945A197,197,0,0,1,-37.78542179540723,193.34234378361913L-32.723135167532874,167.4393813438385A170.6070045455344,170.6070045455344,0,0,0,-31.31214940590486,167.70897203066477Z" fill-rule="evenodd" style="fill: #D7A449; stroke: #fff; opacity: 1;" id="p-type-tokenTransfers"></path><path d="M-37.78542179540723,193.34234378361913A197,197,0,0,1,-39.412008968602336,193.01734002171622L-34.13180098098976,167.15791982970507A170.6070045455344,170.6070045455344,0,0,0,-32.723135167532874,167.4393813438385Z" fill-rule="evenodd" style="fill: #D7A449; stroke: #fff; opacity: 1;" id="p-type-tokenTransfers"></path><path d="M-39.412008968602336,193.01734002171622A197,197,0,0,1,-41.03580197743456,192.67865205068458L-35.53804697712603,166.86460744283548A170.6070045455344,170.6070045455344,0,0,0,-34.13180098098976,167.15791982970507Z" fill-rule="evenodd" style="fill: #D7A449; stroke: #fff; opacity: 1;" id="p-type-tokenTransfers"></path><path d="M-41.03580197743456,192.67865205068458A197,197,0,0,1,-42.65668570103903,192.32630388223754L-36.941773458348216,166.5594649779834A170.6070045455344,170.6070045455344,0,0,0,-35.53804697712603,166.86460744283548Z" fill-rule="evenodd" style="fill: #D7A449; stroke: #fff; opacity: 1;" id="p-type-tokenTransfers"></path><path d="M-42.65668570103903,192.32630388223754A197,197,0,0,1,-44.274545224808385,191.9603204965453L-38.34288090568707,166.24251406861092A170.6070045455344,170.6070045455344,0,0,0,-36.941773458348216,166.5594649779834Z" fill-rule="evenodd" style="fill: #D7A449; stroke: #fff; opacity: 1;" id="p-type-tokenTransfers"></path><path d="M-44.274545224808385,191.9603204965453A197,197,0,0,1,-45.8892658485397,191.58072784046428L-39.741269985853044,165.91377718535472A170.6070045455344,170.6070045455344,0,0,0,-38.34288090568707,166.24251406861092Z" fill-rule="evenodd" style="fill: #D7A449; stroke: #fff; opacity: 1;" id="p-type-tokenTransfers"></path><path d="M-45.8892658485397,191.58072784046428A197,197,0,0,1,-47.500733094566385,191.18755282569722L-41.136841558278704,165.5732776344331A170.6070045455344,170.6070045455344,0,0,0,-39.741269985853044,165.91377718535472Z" fill-rule="evenodd" style="fill: #D7A449; stroke: #fff; opacity: 1;" id="p-type-tokenTransfers"></path><path d="M-47.500733094566385,191.18755282569722A197,197,0,0,1,-49.10883271587417,190.78082332688547L-42.52949668214738,165.22103955599366A170.6070045455344,170.6070045455344,0,0,0,-41.136841558278704,165.5732776344331Z" fill-rule="evenodd" style="fill: #D7A449; stroke: #fff; opacity: 1;" id="p-type-tokenTransfers"></path><path d="M-49.10883271587417,190.78082332688547A197,197,0,0,1,-50.713450704200824,190.3605681796327L-43.91913662340774,164.85708792240158A170.6070045455344,170.6070045455344,0,0,0,-42.52949668214738,165.22103955599366Z" fill-rule="evenodd" style="fill: #D7A449; stroke: #fff; opacity: 1;" id="p-type-tokenTransfers"></path><path d="M-50.713450704200824,190.3605681796327A197,197,0,0,1,-52.314473298118884,189.92681717846062L-45.30566286177364,164.48144853646963A170.6070045455344,170.6070045455344,0,0,0,-43.91913662340774,164.85708792240158Z" fill-rule="evenodd" style="fill: #D7A449; stroke: #fff; opacity: 1;" id="p-type-tokenTransfers"></path><path d="M-52.314473298118884,189.92681717846062A197,197,0,0,1,-53.91178699110095,189.47960107469657L-46.68897709770885,164.09414802962846A170.6070045455344,170.6070045455344,0,0,0,-45.30566286177364,164.48144853646963Z" fill-rule="evenodd" style="fill: #D7A449; stroke: #fff; opacity: 1;" id="p-type-tokenTransfers"></path><path d="M-53.91178699110095,189.47960107469657A197,197,0,0,1,-55.50527853956686,189.01895157429345L-48.068981259396125,163.69521386003873A170.6070045455344,170.6070045455344,0,0,0,-46.68897709770885,164.09414802962846Z" fill-rule="evenodd" style="fill: #D7A449; stroke: #fff; opacity: 1;" id="p-type-tokenTransfers"></path><path d="M-55.50527853956686,189.01895157429345A197,197,0,0,1,-57.09483497091222,188.54490133558187L-49.44557750969014,163.28467431064442A170.6070045455344,170.6070045455344,0,0,0,-48.068981259396125,163.69521386003873Z" fill-rule="evenodd" style="fill: #D7A449; stroke: #fff; opacity: 1;" id="p-type-tokenTransfers"></path><path d="M-57.09483497091222,188.54490133558187A197,197,0,0,1,-58.68034359151776,188.0574839669547L-50.818668253053765,162.86255848716755A170.6070045455344,170.6070045455344,0,0,0,-49.44557750969014,163.28467431064442Z" fill-rule="evenodd" style="fill: #D7A449; stroke: #fff; opacity: 1;" id="p-type-tokenTransfers"></path><path d="M-58.68034359151776,188.0574839669547A197,197,0,0,1,-60.26169199473889,187.5567340244845L-52.18815614247722,162.42889631604476A170.6070045455344,170.6070045455344,0,0,0,-50.818668253053765,162.86255848716755Z" fill-rule="evenodd" style="fill: #D7A449; stroke: #fff; opacity: 1;" id="p-type-tokenTransfers"></path><path d="M-60.26169199473889,187.5567340244845A197,197,0,0,1,-61.838768068874906,187.04268700947358L-53.55394408637964,161.98371854230572A170.6070045455344,170.6070045455344,0,0,0,-52.18815614247722,162.42889631604476Z" fill-rule="evenodd" style="fill: #D7A449; stroke: #fff; opacity: 1;" id="p-type-tokenTransfers"></path><path d="M-61.838768068874906,187.04268700947358A197,197,0,0,1,-63.41146000511729,186.51537936593704L-54.915935255492485,161.52705672739336A170.6070045455344,170.6070045455344,0,0,0,-53.55394408637964,161.98371854230572Z" fill-rule="evenodd" style="fill: #D7A449; stroke: #fff; opacity: 1;" id="p-type-tokenTransfers"></path><path d="M-63.41146000511729,186.51537936593704A197,197,0,0,1,-64.97965630547657,185.97484847801903L-56.274033089724384,161.05894324692622A170.6070045455344,170.6070045455344,0,0,0,-54.915935255492485,161.52705672739336Z" fill-rule="evenodd" style="fill: #D7A449; stroke: #fff; opacity: 1;" id="p-type-tokenTransfers"></path><path d="M-64.97965630547657,185.97484847801903A197,197,0,0,1,-66.54324579068701,185.42113266734245L-57.62814130500687,160.5794112884032A170.6070045455344,170.6070045455344,0,0,0,-56.274033089724384,161.05894324692622Z" fill-rule="evenodd" style="fill: #D7A449; stroke: #fff; opacity: 1;" id="p-type-tokenTransfers"></path><path d="M-66.54324579068701,185.42113266734245A197,197,0,0,1,-68.10211760808896,184.854271190292L-58.97816390012057,160.08849484885076A170.6070045455344,170.6070045455344,0,0,0,-57.62814130500687,160.5794112884032Z" fill-rule="evenodd" style="fill: #D7A449; stroke: #fff; opacity: 1;" id="p-type-tokenTransfers"></path><path d="M-68.10211760808896,184.854271190292A197,197,0,0,1,-69.65616123948779,184.27430423523103L-60.32400516350137,159.58622873241245A170.6070045455344,170.6070045455344,0,0,0,-58.97816390012057,160.08849484885076Z" fill-rule="evenodd" style="fill: #D7A449; stroke: #fff; opacity: 1;" id="p-type-tokenTransfers"></path><path d="M-69.65616123948779,184.27430423523103A197,197,0,0,1,-71.20526650898917,183.68127291965237L-61.66556968002591,159.0726485478816A170.6070045455344,170.6070045455344,0,0,0,-60.32400516350137,159.58622873241245Z" fill-rule="evenodd" style="fill: #D7A449; stroke: #fff; opacity: 1;" id="p-type-tokenTransfers"></path><path d="M-71.20526650898917,183.68127291965237A197,197,0,0,1,-72.7493235908103,183.07521928726337L-63.00276233777628,158.5477907061769A170.6070045455344,170.6070045455344,0,0,0,-61.66556968002591,159.0726485478816Z" fill-rule="evenodd" style="fill: #D7A449; stroke: #fff; opacity: 1;" id="p-type-tokenTransfers"></path><path d="M-72.7493235908103,183.07521928726337A197,197,0,0,1,-74.288223017066,182.45618630500493L-64.33548833478302,158.01169241776066A170.6070045455344,170.6070045455344,0,0,0,-63.00276233777628,158.5477907061769Z" fill-rule="evenodd" style="fill: #D7A449; stroke: #fff; opacity: 1;" id="p-type-tokenTransfers"></path><path d="M-74.288223017066,182.45618630500493A197,197,0,0,1,-75.82185568552963,181.82421786000543L-65.66365318574623,157.46439169000095A170.6070045455344,170.6070045455344,0,0,0,-64.33548833478302,158.01169241776066Z" fill-rule="evenodd" style="fill: #D7A449; stroke: #fff; opacity: 1;" id="p-type-tokenTransfers"></path><path d="M-75.82185568552963,181.82421786000543A197,197,0,0,1,-77.350112867368,181.17935875646938L-66.98716272873428,156.90592732447706A170.6070045455344,170.6070045455344,0,0,0,-65.66365318574623,157.46439169000095Z" fill-rule="evenodd" style="fill: #D7A449; stroke: #fff; opacity: 1;" id="p-type-tokenTransfers"></path><path d="M-77.350112867368,181.17935875646938A197,197,0,0,1,-78.8728862148499,180.52165471250072L-68.30592313185946,156.33633891422846A170.6070045455344,170.6070045455344,0,0,0,-66.98716272873428,156.90592732447706Z" fill-rule="evenodd" style="fill: #D7A449; stroke: #fff; opacity: 1;" id="p-type-tokenTransfers"></path><path d="M-78.8728862148499,180.52165471250072A197,197,0,0,1,-80.3900677690275,179.85115235686195L-69.61984089993042,155.75566684094795A170.6070045455344,170.6070045455344,0,0,0,-68.30592313185946,156.33633891422846Z" fill-rule="evenodd" style="fill: #D7A449; stroke: #fff; opacity: 1;" id="p-type-tokenTransfers"></path><path d="M-80.3900677690275,179.85115235686195A197,197,0,0,1,-81.90154996739022,179.1678992256679L-70.92882288108049,155.16395227211865A170.6070045455344,170.6070045455344,0,0,0,-69.61984089993042,155.75566684094795Z" fill-rule="evenodd" style="fill: #D7A449; stroke: #fff; opacity: 1;" id="p-type-tokenTransfers"></path><path d="M-81.90154996739022,179.1678992256679A197,197,0,0,1,-83.40722565149058,178.4719437590159L-72.23277627337191,154.56123715809534A170.6070045455344,170.6070045455344,0,0,0,-70.92882288108049,155.16395227211865Z" fill-rule="evenodd" style="fill: #D7A449; stroke: #fff; opacity: 1;" id="p-type-tokenTransfers"></path><path d="M-83.40722565149058,178.4719437590159A197,197,0,0,1,-84.90698807454129,177.76333529755146L-73.53160863137514,153.94756422913053A170.6070045455344,170.6070045455344,0,0,0,-72.23277627337191,154.56123715809534Z" fill-rule="evenodd" style="fill: #D7A449; stroke: #fff; opacity: 1;" id="p-type-tokenTransfers"></path><path d="M-84.90698807454129,177.76333529755146A197,197,0,0,1,-86.40073090898316,177.0421240789702L-74.82522787272278,153.32297699234485A170.6070045455344,170.6070045455344,0,0,0,-73.53160863137514,153.94756422913053Z" fill-rule="evenodd" style="fill: #D7A449; stroke: #fff; opacity: 1;" id="p-type-tokenTransfers"></path><path d="M-86.40073090898316,177.0421240789702A197,197,0,0,1,-87.88834825402343,176.3083612344562L-76.113542284638,152.6875197286426A170.6070045455344,170.6070045455344,0,0,0,-74.82522787272278,153.32297699234485Z" fill-rule="evenodd" style="fill: #D7A449; stroke: #fff; opacity: 1;" id="p-type-tokenTransfers"></path><path d="M-87.88834825402343,176.3083612344562A197,197,0,0,1,-89.36973464314362,175.56209878505697L-77.39646053043658,152.04123748957247A170.6070045455344,170.6070045455344,0,0,0,-76.113542284638,152.6875197286426Z" fill-rule="evenodd" style="fill: #D7A449; stroke: #fff; opacity: 1;" id="p-type-tokenTransfers"></path><path d="M-164.15033469599177,108.92046464826468A197,197,0,0,1,-166.2287800449182,105.72129721479115L-143.9583463589949,91.55732910905415A170.6070045455344,170.6070045455344,0,0,0,-142.15835988644704,94.3278893774021Z" fill-rule="evenodd" style="fill: #414552; stroke: #fff; opacity: 1;" id="p-type-ether"></path><path d="M-166.2287800449182,105.72129721479115A197,197,0,0,1,-167.37930835518458,103.89016861349317L-144.95473310345878,89.97152522273383A170.6070045455344,170.6070045455344,0,0,0,-143.9583463589949,91.55732910905415Z" fill-rule="evenodd" style="fill: #414552; stroke: #fff; opacity: 1;" id="p-type-ether"></path><path d="M-167.37930835518458,103.89016861349317A197,197,0,0,1,-168.1617761467915,102.61879478514831L-145.63237008863348,88.87048318968051A170.6070045455344,170.6070045455344,0,0,0,-144.95473310345878,89.97152522273383Z" fill-rule="evenodd" style="fill: #414552; stroke: #fff; opacity: 1;" id="p-type-ether"></path></g></svg>