<svg xmlns="http://www.w3.org/2000/svg" width="400" height="400" id="block-7824916"><g id="burst-container" transform="translate(200,200)"><circle r="197" style="fill: #f9f9f9; stroke: #f9f9f9; stroke-width: 3; opacity: 1;" id="circle-base"></circle><path display="none" d="M6.031385485800715e-15,-98.5A98.5,98.5,0,1,1,-6.031385485800715e-15,98.5A98.5,98.5,0,1,1,6.031385485800715e-15,-98.5Z" fill-rule="evenodd" id="p-type-root" style="stroke: #fff; opacity: 1;"></path><path d="M8.529667153919608e-15,-139.30003589374985A139.30003589374985,139.30003589374985,0,1,1,-109.79020092197531,-85.73570890540469L-77.6333955797623,-60.62430115684754A98.5,98.5,0,1,0,6.031385485800715e-15,-98.5Z" fill-rule="evenodd" style="fill: #0B1F65; stroke: #fff; opacity: 1;" id="p-type-data"></path><path d="M-109.79020092197531,-85.73570890540469A139.30003589374985,139.30003589374985,0,0,1,-2.238091995767882,-139.28205535609558L-1.5825700271268035,-98.48728583989529A98.5,98.5,0,0,0,-77.6333955797623,-60.62430115684754Z" fill-rule="evenodd" style="fill: #D7A449; stroke: #fff; opacity: 1;" id="p-type-value"></path><path d="M1.0446666101440332e-14,-170.6070045455344A170.6070045455344,170.6070045455344,0,0,1,169.88842311593984,-15.642048816552023L138.71331661336774,-12.771679377419309A139.30003589374985,139.30003589374985,0,0,0,8.529667153919608e-15,-139.30003589374985Z" fill-rule="evenodd" style="fill: #DB3F29; stroke: #fff; opacity: 1;" id="p-type-functions"></path><path d="M169.88842311593984,-15.642048816552023A170.6070045455344,170.6070045455344,0,0,1,49.9093170594417,163.143525984515L40.75078673547197,133.20613116685013A139.30003589374985,139.30003589374985,0,0,0,138.71331661336774,-12.771679377419309Z" fill-rule="evenodd" style="fill: #1DC690; stroke: #fff; opacity: 1;" id="p-type-logs"></path><path d="M49.9093170594417,163.143525984515A170.6070045455344,170.6070045455344,0,0,1,-122.85947719941295,118.37355643169181L-100.31434306788857,96.6516040987316A139.30003589374985,139.30003589374985,0,0,0,40.75078673547197,133.20613116685013Z" fill-rule="evenodd" style="fill: #D7A449; stroke: #fff; opacity: 1;" id="p-type-tokenTransfers"></path><path d="M-122.85947719941295,118.37355643169181A170.6070045455344,170.6070045455344,0,0,1,-161.6673547104781,54.50152677601294L-132.00084236873525,44.50031026795547A139.30003589374985,139.30003589374985,0,0,0,-100.31434306788857,96.6516040987316Z" fill-rule="evenodd" style="fill: #414552; stroke: #fff; opacity: 1;" id="p-type-ether"></path><path d="M-134.46498550824137,-105.00436977701659A170.6070045455344,170.6070045455344,0,0,1,-59.05854999964048,-160.05885689939174L-48.22110414925561,-130.68750940555353A139.30003589374985,139.30003589374985,0,0,0,-109.79020092197531,-85.73570890540469Z" fill-rule="evenodd" style="fill: #D7A449; stroke: #fff; opacity: 1;" id="p-type-tokenTransfers"></path><path d="M-59.05854999964048,-160.05885689939174A170.6070045455344,170.6070045455344,0,0,1,-5.481475759045572,-170.51892394541727L-4.475606215698921,-139.22811838490813A139.30003589374985,139.30003589374985,0,0,0,-48.22110414925561,-130.68750940555353Z" fill-rule="evenodd" style="fill: #414552; stroke: #fff; opacity: 1;" id="p-type-ether"></path><path d="M1.206277097160143e-14,-197A197,197,0,0,1,3.677762854075275,-196.96566721230678L3.185036060723949,-170.57727147920934A170.6070045455344,170.6070045455344,0,0,0,1.0446666101440332e-14,-170.6070045455344Z" fill-rule="evenodd" style="fill: #DB3F29; stroke: #fff; opacity: 1;" id="p-type-functions"></path><path d="M3.677762854075275,-196.96566721230678A197,197,0,0,1,5.259989454841995,-196.92976542649654L4.555284491531428,-170.54617962065643A170.6070045455344,170.6070045455344,0,0,0,3.185036060723949,-170.57727147920934Z" fill-rule="evenodd" style="fill: #DB3F29; stroke: #fff; opacity: 1;" id="p-type-functions"></path><path d="M5.259989454841995,-196.92976542649654A197,197,0,0,1,6.841876576283068,-196.88115380836965L5.925238924618836,-170.5040807244395A170.6070045455344,170.6070045455344,0,0,0,4.555284491531428,-170.54617962065643Z" fill-rule="evenodd" style="fill: #DB3F29; stroke: #fff; opacity: 1;" id="p-type-functions"></path><path d="M6.841876576283068,-196.88115380836965A197,197,0,0,1,8.423322123522198,-196.8198354953163L7.294810943229706,-170.4509775076181A170.6070045455344,170.6070045455344,0,0,0,5.925238924618836,-170.5040807244395Z" fill-rule="evenodd" style="fill: #DB3F29; stroke: #fff; opacity: 1;" id="p-type-functions"></path><path d="M8.423322123522198,-196.8198354953163A197,197,0,0,1,10.004224030182078,-196.7458144448159L8.663912155288418,-170.3868733974699A170.6070045455344,170.6070045455344,0,0,0,7.294810943229706,-170.4509775076181Z" fill-rule="evenodd" style="fill: #DB3F29; stroke: #fff; opacity: 1;" id="p-type-functions"></path><path d="M10.004224030182078,-196.7458144448159A197,197,0,0,1,11.584480264972104,-196.6590954341814L10.032454199105327,-170.3117725312694A170.6070045455344,170.6070045455344,0,0,0,8.663912155288418,-170.3868733974699Z" fill-rule="evenodd" style="fill: #DB3F29; stroke: #fff; opacity: 1;" id="p-type-functions"></path><path d="M11.584480264972104,-196.6590954341814A197,197,0,0,1,13.163988838273108,-196.55968406025133L11.40034874907931,-170.22567975602084A170.6070045455344,170.6070045455344,0,0,0,10.032454199105327,-170.3117725312694Z" fill-rule="evenodd" style="fill: #DB3F29; stroke: #fff; opacity: 1;" id="p-type-functions"></path><path d="M13.163988838273108,-196.55968406025133A197,197,0,0,1,14.742647808720111,-196.44758673902828L12.767507521398603,-170.1286006281455A170.6070045455344,170.6070045455344,0,0,0,11.40034874907931,-170.22567975602084Z" fill-rule="evenodd" style="fill: #DB3F29; stroke: #fff; opacity: 1;" id="p-type-functions"></path><path d="M14.742647808720111,-196.44758673902828A197,197,0,0,1,16.32035528978127,-196.32281070526497L14.133842279738321,-170.02054141312303A170.6070045455344,170.6070045455344,0,0,0,12.767507521398603,-170.1286006281455Z" fill-rule="evenodd" style="fill: #DB3F29; stroke: #fff; opacity: 1;" id="p-type-functions"></path><path d="M16.32035528978127,-196.32281070526497A197,197,0,0,1,17.89700945633391,-196.18536401199734L15.499264840955492,-169.90150908508707A170.6070045455344,170.6070045455344,0,0,0,14.133842279738321,-170.02054141312303Z" fill-rule="evenodd" style="fill: #DB3F29; stroke: #fff; opacity: 1;" id="p-type-functions"></path><path d="M17.89700945633391,-196.18536401199734A197,197,0,0,1,19.472508551236228,-196.03525553002459L16.863687080780288,-169.77151132637513A170.6070045455344,170.6070045455344,0,0,0,15.499264840955492,-169.90150908508707Z" fill-rule="evenodd" style="fill: #DB3F29; stroke: #fff; opacity: 1;" id="p-type-functions"></path><path d="M19.472508551236228,-196.03525553002459A197,197,0,0,1,21.046750891894494,-195.87249494733695L18.227020939503422,-169.6305565270329A170.6070045455344,170.6070045455344,0,0,0,16.863687080780288,-169.77151132637513Z" fill-rule="evenodd" style="fill: #DB3F29; stroke: #fff; opacity: 1;" id="p-type-functions"></path><path d="M21.046750891894494,-195.87249494733695A197,197,0,0,1,22.619634876825998,-195.69709276849025L19.589178427659807,-169.4786537842725A170.6070045455344,170.6070045455344,0,0,0,18.227020939503422,-169.6305565270329Z" fill-rule="evenodd" style="fill: #DB3F29; stroke: #fff; opacity: 1;" id="p-type-functions"></path><path d="M22.619634876825998,-195.69709276849025A197,197,0,0,1,24.19105899221602,-195.50906031392796L20.950071631707058,-169.31581290188564A170.6070045455344,170.6070045455344,0,0,0,19.589178427659807,-169.4786537842725Z" fill-rule="evenodd" style="fill: #DB3F29; stroke: #fff; opacity: 1;" id="p-type-functions"></path><path d="M24.19105899221602,-195.50906031392796A197,197,0,0,1,25.760921818469903,-195.30840971925065L22.30961271969975,-169.14204438961062A170.6070045455344,170.6070045455344,0,0,0,20.950071631707058,-169.31581290188564Z" fill-rule="evenodd" style="fill: #DB3F29; stroke: #fff; opacity: 1;" id="p-type-functions"></path><path d="M25.760921818469903,-195.30840971925065A197,197,0,0,1,27.329122036758267,-195.09515393443263L23.66771394695778,-168.95735946245424A170.6070045455344,170.6070045455344,0,0,0,22.30961271969975,-169.14204438961062Z" fill-rule="evenodd" style="fill: #DB3F29; stroke: #fff; opacity: 1;" id="p-type-functions"></path><path d="M27.329122036758267,-195.09515393443263A197,197,0,0,1,28.895558435556545,-194.86930672298638L25.024287661729698,-168.7617700399679A170.6070045455344,170.6070045455344,0,0,0,23.66771394695778,-168.95735946245424Z" fill-rule="evenodd" style="fill: #DB3F29; stroke: #fff; opacity: 1;" id="p-type-functions"></path><path d="M28.895558435556545,-194.86930672298638A197,197,0,0,1,30.460129917176737,-194.63088266107388L26.379246310849442,-168.5552887454782A170.6070045455344,170.6070045455344,0,0,0,25.024287661729698,-168.7617700399679Z" fill-rule="evenodd" style="fill: #DB3F29; stroke: #fff; opacity: 1;" id="p-type-functions"></path><path d="M30.460129917176737,-194.63088266107388A197,197,0,0,1,32.02273550429264,-194.37989713656637L27.73250244538731,-168.33792890527252A170.6070045455344,170.6070045455344,0,0,0,26.379246310849442,-168.5552887454782Z" fill-rule="evenodd" style="fill: #DB3F29; stroke: #fff; opacity: 1;" id="p-type-functions"></path><path d="M32.02273550429264,-194.37989713656637A197,197,0,0,1,33.58327434645658,-194.11636634805072L29.083968726293634,-168.10970454773863A170.6070045455344,170.6070045455344,0,0,0,27.73250244538731,-168.33792890527252Z" fill-rule="evenodd" style="fill: #DB3F29; stroke: #fff; opacity: 1;" id="p-type-functions"></path><path d="M33.58327434645658,-194.11636634805072A197,197,0,0,1,35.141645726608594,-193.8403073037843L30.4335579300359,-167.87063040245945A170.6070045455344,170.6070045455344,0,0,0,29.083968726293634,-168.10970454773863Z" fill-rule="evenodd" style="fill: #DB3F29; stroke: #fff; opacity: 1;" id="p-type-functions"></path><path d="M35.141645726608594,-193.8403073037843A197,197,0,0,1,36.697749067576396,-193.5517378205972L31.781182954227855,-167.6207218992625A170.6070045455344,170.6070045455344,0,0,0,30.4335579300359,-167.87063040245945Z" fill-rule="evenodd" style="fill: #DB3F29; stroke: #fff; opacity: 1;" id="p-type-functions"></path><path d="M36.697749067576396,-193.5517378205972A197,197,0,0,1,38.251483938566956,-193.25067652274222L33.12675682325142,-167.3599951672238A170.6070045455344,170.6070045455344,0,0,0,31.781182954227855,-167.6207218992625Z" fill-rule="evenodd" style="fill: #DB3F29; stroke: #fff; opacity: 1;" id="p-type-functions"></path><path d="M38.251483938566956,-193.25067652274222A197,197,0,0,1,39.80275006164795,-192.937142840693L34.47019269386975,-167.0884670336271A170.6070045455344,170.6070045455344,0,0,0,33.12675682325142,-167.3599951672238Z" fill-rule="evenodd" style="fill: #DB3F29; stroke: #fff; opacity: 1;" id="p-type-functions"></path><path d="M39.80275006164795,-192.937142840693A197,197,0,0,1,41.351447318219996,-192.61115700988995L35.811403860832414,-166.80615502287785A170.6070045455344,170.6070045455344,0,0,0,34.47019269386975,-167.0884670336271Z" fill-rule="evenodd" style="fill: #DB3F29; stroke: #fff; opacity: 1;" id="p-type-functions"></path><path d="M41.351447318219996,-192.61115700988995A197,197,0,0,1,42.89747575547804,-192.2727400694341L37.15030376247103,-166.51307735537208A170.6070045455344,170.6070045455344,0,0,0,35.811403860832414,-166.80615502287785Z" fill-rule="evenodd" style="fill: #DB3F29; stroke: #fff; opacity: 1;" id="p-type-functions"></path><path d="M42.89747575547804,-192.2727400694341A197,197,0,0,1,44.440735592862566,-191.92191386072952L38.48680598628628,-166.20925294632053A170.6070045455344,170.6070045455344,0,0,0,37.15030376247103,-166.51307735537208Z" fill-rule="evenodd" style="fill: #DB3F29; stroke: #fff; opacity: 1;" id="p-type-functions"></path><path d="M44.440735592862566,-191.92191386072952A197,197,0,0,1,45.98112722849914,-191.55870102607338L39.82082427452461,-165.89470140452778A170.6070045455344,170.6070045455344,0,0,0,38.48680598628628,-166.20925294632053Z" fill-rule="evenodd" style="fill: #DB3F29; stroke: #fff; opacity: 1;" id="p-type-functions"></path><path d="M45.98112722849914,-191.55870102607338A197,197,0,0,1,47.518551245627,-191.18312500719495L41.15227252974566,-165.5694430311268A170.6070045455344,170.6070045455344,0,0,0,39.82082427452461,-165.89470140452778Z" fill-rule="evenodd" style="fill: #DB3F29; stroke: #fff; opacity: 1;" id="p-type-functions"></path><path d="M47.518551245627,-191.18312500719495A197,197,0,0,1,49.052908419015104,-190.79521004374223L42.48106482037865,-165.23349881826863A170.6070045455344,170.6070045455344,0,0,0,41.15227252974566,-165.5694430311268Z" fill-rule="evenodd" style="fill: #DB3F29; stroke: #fff; opacity: 1;" id="p-type-functions"></path><path d="M49.052908419015104,-190.79521004374223A197,197,0,0,1,50.58409972136645,-190.39498117171803L43.80711538626869,-164.88689044776768A170.6070045455344,170.6070045455344,0,0,0,42.48106482037865,-165.23349881826863Z" fill-rule="evenodd" style="fill: #DB3F29; stroke: #fff; opacity: 1;" id="p-type-functions"></path><path d="M50.58409972136645,-190.39498117171803A197,197,0,0,1,52.11202632970892,-189.9824642218637L45.13033864421146,-164.52964028970217A170.6070045455344,170.6070045455344,0,0,0,43.80711538626869,-164.88689044776768Z" fill-rule="evenodd" style="fill: #DB3F29; stroke: #fff; opacity: 1;" id="p-type-functions"></path><path d="M52.11202632970892,-189.9824642218637A197,197,0,0,1,53.63658963177367,-189.55768581799236L46.45064919347702,-164.1617714009706A170.6070045455344,170.6070045455344,0,0,0,45.13033864421146,-164.52964028970217Z" fill-rule="evenodd" style="fill: #DB3F29; stroke: #fff; opacity: 1;" id="p-type-functions"></path><path d="M53.63658963177367,-189.55768581799236A197,197,0,0,1,55.157691232359355,-189.1206733752704L47.7679618213214,-163.78330752380347A170.6070045455344,170.6070045455344,0,0,0,46.45064919347702,-164.1617714009706Z" fill-rule="evenodd" style="fill: #DB3F29; stroke: #fff; opacity: 1;" id="p-type-functions"></path><path d="M55.157691232359355,-189.1206733752704A197,197,0,0,1,56.67523295968252,-188.6714550984481L49.082191508486176,-163.3942730842311A170.6070045455344,170.6070045455344,0,0,0,47.7679618213214,-163.78330752380347Z" fill-rule="evenodd" style="fill: #DB3F29; stroke: #fff; opacity: 1;" id="p-type-functions"></path><path d="M56.67523295968252,-188.6714550984481A197,197,0,0,1,58.18911687171366,-188.21005998003946L50.39325343468571,-162.9946931905071A170.6070045455344,170.6070045455344,0,0,0,49.082191508486176,-163.3942730842311Z" fill-rule="evenodd" style="fill: #DB3F29; stroke: #fff; opacity: 1;" id="p-type-functions"></path><path d="M58.18911687171366,-188.21005998003946A197,197,0,0,1,59.69924526249848,-187.73651779845085L51.701062984081474,-162.58459363148785A170.6070045455344,170.6070045455344,0,0,0,50.39325343468571,-162.9946931905071Z" fill-rule="evenodd" style="fill: #DB3F29; stroke: #fff; opacity: 1;" id="p-type-functions"></path><path d="M59.69924526249848,-187.73651779845085A197,197,0,0,1,61.20552066846374,-187.25085911605922L53.005535750743114,-162.16400087496822A170.6070045455344,170.6070045455344,0,0,0,51.701062984081474,-162.58459363148785Z" fill-rule="evenodd" style="fill: #DB3F29; stroke: #fff; opacity: 1;" id="p-type-functions"></path><path d="M61.20552066846374,-187.25085911605922A197,197,0,0,1,62.707845874707466,-186.75311527723957L54.306587544095876,-161.73294206597322A170.6070045455344,170.6070045455344,0,0,0,53.005535750743114,-162.16400087496822Z" fill-rule="evenodd" style="fill: #DB3F29; stroke: #fff; opacity: 1;" id="p-type-functions"></path><path d="M62.707845874707466,-186.75311527723957A197,197,0,0,1,64.20612392127329,-186.243318406342L55.6041343943544,-161.2914450250061A170.6070045455344,170.6070045455344,0,0,0,54.306587544095876,-161.73294206597322Z" fill-rule="evenodd" style="fill: #DB3F29; stroke: #fff; opacity: 1;" id="p-type-functions"></path><path d="M64.20612392127329,-186.243318406342A197,197,0,0,1,65.7002581094083,-185.72150140561843L56.898092557942164,-160.83953824625289A170.6070045455344,170.6070045455344,0,0,0,55.6041343943544,-161.2914450250061Z" fill-rule="evenodd" style="fill: #DB3F29; stroke: #fff; opacity: 1;" id="p-type-functions"></path><path d="M65.7002581094083,-185.72150140561843A197,197,0,0,1,67.1901520078039,-185.18769795309893L58.18837852289618,-160.37725089574317A170.6070045455344,170.6070045455344,0,0,0,56.898092557942164,-160.83953824625289Z" fill-rule="evenodd" style="fill: #DB3F29; stroke: #fff; opacity: 1;" id="p-type-functions"></path><path d="M67.1901520078039,-185.18769795309893A197,197,0,0,1,68.6757094588194,-184.64194250041842L59.47490901425685,-159.90461280946798A170.6070045455344,170.6070045455344,0,0,0,58.18837852289618,-160.37725089574317Z" fill-rule="evenodd" style="fill: #DB3F29; stroke: #fff; opacity: 1;" id="p-type-functions"></path><path d="M68.6757094588194,-184.64194250041842A197,197,0,0,1,70.15683458468808,-184.08427027059298L60.757600999442566,-159.421654491454A170.6070045455344,170.6070045455344,0,0,0,59.47490901425685,-159.90461280946798Z" fill-rule="evenodd" style="fill: #DB3F29; stroke: #fff; opacity: 1;" id="p-type-functions"></path><path d="M70.15683458468808,-184.08427027059298A197,197,0,0,1,71.63343179370527,-183.5147172557465L62.03637169360864,-158.92840711179494A170.6070045455344,170.6070045455344,0,0,0,60.757600999442566,-159.421654491454Z" fill-rule="evenodd" style="fill: #DB3F29; stroke: #fff; opacity: 1;" id="p-type-functions"></path><path d="M71.63343179370527,-183.5147172557465A197,197,0,0,1,73.10540578639767,-182.93332021478793L63.31113856499027,-158.42490250463973A170.6070045455344,170.6070045455344,0,0,0,62.03637169360864,-158.92840711179494Z" fill-rule="evenodd" style="fill: #DB3F29; stroke: #fff; opacity: 1;" id="p-type-functions"></path><path d="M73.10540578639767,-182.93332021478793A197,197,0,0,1,74.57266156167395,-182.34011667103877L64.58181934022898,-157.911173166138A170.6070045455344,170.6070045455344,0,0,0,63.31113856499027,-158.42490250463973Z" fill-rule="evenodd" style="fill: #DB3F29; stroke: #fff; opacity: 1;" id="p-type-functions"></path><path d="M74.57266156167395,-182.34011667103877A197,197,0,0,1,76.03510442295622,-181.7351449098114L65.84833200968261,-157.38725225234288A170.6070045455344,170.6070045455344,0,0,0,64.58181934022898,-157.911173166138Z" fill-rule="evenodd" style="fill: #DB3F29; stroke: #fff; opacity: 1;" id="p-type-functions"></path><path d="M76.03510442295622,-181.7351449098114A197,197,0,0,1,77.49263998429171,-181.1184439759379L67.11059483271836,-156.85317357707083A170.6070045455344,170.6070045455344,0,0,0,65.84833200968261,-157.38725225234288Z" fill-rule="evenodd" style="fill: #DB3F29; stroke: #fff; opacity: 1;" id="p-type-functions"></path><path d="M77.49263998429171,-181.1184439759379A197,197,0,0,1,78.9451741764445,-180.49005367125037L68.36852634298818,-156.3089716097196A170.6070045455344,170.6070045455344,0,0,0,67.11059483271836,-156.85317357707083Z" fill-rule="evenodd" style="fill: #DB3F29; stroke: #fff; opacity: 1;" id="p-type-functions"></path><path d="M78.9451741764445,-180.49005367125037A197,197,0,0,1,80.39261325296648,-179.85001455201208L69.62204535368652,-155.75468147304343A170.6070045455344,170.6070045455344,0,0,0,68.36852634298818,-156.3089716097196Z" fill-rule="evenodd" style="fill: #DB3F29; stroke: #fff; opacity: 1;" id="p-type-functions"></path><path d="M80.39261325296648,-179.85001455201208A197,197,0,0,1,81.83486379624803,-179.19836792629985L70.87107096279024,-155.19033894088622A170.6070045455344,170.6070045455344,0,0,0,69.62204535368652,-155.75468147304343Z" fill-rule="evenodd" style="fill: #DB3F29; stroke: #fff; opacity: 1;" id="p-type-functions"></path><path d="M81.83486379624803,-179.19836792629985A197,197,0,0,1,83.27183272354709,-178.53515585133812L72.11552255828009,-154.61598043587279A170.6070045455344,170.6070045455344,0,0,0,70.87107096279024,-155.19033894088622Z" fill-rule="evenodd" style="fill: #DB3F29; stroke: #fff; opacity: 1;" id="p-type-functions"></path><path d="M83.27183272354709,-178.53515585133812A197,197,0,0,1,84.70342729299671,-177.86042113078452L73.35531982334331,-154.03164302705795A170.6070045455344,170.6070045455344,0,0,0,72.11552255828009,-154.61598043587279Z" fill-rule="evenodd" style="fill: #DB3F29; stroke: #fff; opacity: 1;" id="p-type-functions"></path><path d="M84.70342729299671,-177.86042113078452A197,197,0,0,1,86.12955510959051,-177.17420731196742L74.59038274155718,-153.43736442753442A170.6070045455344,170.6070045455344,0,0,0,73.35531982334331,-154.03164302705795Z" fill-rule="evenodd" style="fill: #DB3F29; stroke: #fff; opacity: 1;" id="p-type-functions"></path><path d="M86.12955510959051,-177.17420731196742A197,197,0,0,1,87.55012413114596,-176.47655868307535L75.82063160205341,-152.8331829919985A170.6070045455344,170.6070045455344,0,0,0,74.59038274155718,-153.43736442753442Z" fill-rule="evenodd" style="fill: #DB3F29; stroke: #fff; opacity: 1;" id="p-type-functions"></path><path d="M87.55012413114596,-176.47655868307535A197,197,0,0,1,88.96504267424481,-175.76752027029852L77.04598700466268,-152.21913771427478A170.6070045455344,170.6070045455344,0,0,0,75.82063160205341,-152.8331829919985Z" fill-rule="evenodd" style="fill: #DB3F29; stroke: #fff; opacity: 1;" id="p-type-functions"></path><path d="M88.96504267424481,-175.76752027029852A197,197,0,0,1,90.37421942015025,-175.047137834923L78.26636986503908,-151.5952682247995A170.6070045455344,170.6070045455344,0,0,0,77.04598700466268,-152.21913771427478Z" fill-rule="evenodd" style="fill: #DB3F29; stroke: #fff; opacity: 1;" id="p-type-functions"></path><path d="M90.37421942015025,-175.047137834923A197,197,0,0,1,91.77756342070057,-174.31545787037732L79.48170141976414,-150.9616147880628A170.6070045455344,170.6070045455344,0,0,0,78.26636986503908,-151.5952682247995Z" fill-rule="evenodd" style="fill: #DB3F29; stroke: #fff; opacity: 1;" id="p-type-functions"></path><path d="M91.77756342070057,-174.31545787037732A197,197,0,0,1,93.17498410417899,-173.57252759923153L80.69190323143026,-150.3182183000101A170.6070045455344,170.6070045455344,0,0,0,79.48170141976414,-150.9616147880628Z" fill-rule="evenodd" style="fill: #DB3F29; stroke: #fff; opacity: 1;" id="p-type-functions"></path><path d="M93.17498410417899,-173.57252759923153A197,197,0,0,1,94.56639128115927,-172.81839497014977L81.89689719370317,-149.66512028540254A170.6070045455344,170.6070045455344,0,0,0,80.69190323143026,-150.3182183000101Z" fill-rule="evenodd" style="fill: #DB3F29; stroke: #fff; opacity: 1;" id="p-type-functions"></path><path d="M94.56639128115927,-172.81839497014977A197,197,0,0,1,95.95169515032643,-172.05310865479538L83.0966055363628,-149.00236289513705A170.6070045455344,170.6070045455344,0,0,0,81.89689719370317,-149.66512028540254Z" fill-rule="evenodd" style="fill: #DB3F29; stroke: #fff; opacity: 1;" id="p-type-functions"></path><path d="M95.95169515032643,-172.05310865479538A197,197,0,0,1,97.33080630427241,-171.27671804468991L84.2909508303225,-148.32998890352602A170.6070045455344,170.6070045455344,0,0,0,83.0966055363628,-149.00236289513705Z" fill-rule="evenodd" style="fill: #DB3F29; stroke: #fff; opacity: 1;" id="p-type-functions"></path><path d="M97.33080630427241,-171.27671804468991A197,197,0,0,1,98.70363573526657,-170.4892732480252L85.47985599262637,-147.6480417055365A170.6070045455344,170.6070045455344,0,0,0,84.2909508303225,-148.32998890352602Z" fill-rule="evenodd" style="fill: #DB3F29; stroke: #fff; opacity: 1;" id="p-type-functions"></path><path d="M98.70363573526657,-170.4892732480252A197,197,0,0,1,100.07009484100024,-169.6908250864295L86.6632442914243,-146.95656531398964A170.6070045455344,170.6070045455344,0,0,0,85.47985599262637,-147.6480417055365Z" fill-rule="evenodd" style="fill: #DB3F29; stroke: #fff; opacity: 1;" id="p-type-functions"></path><path d="M100.07009484100024,-169.6908250864295A197,197,0,0,1,101.43009543030509,-168.88142509168733L87.8410393509241,-146.25560435671994A170.6070045455344,170.6070045455344,0,0,0,86.6632442914243,-146.95656531398964Z" fill-rule="evenodd" style="fill: #DB3F29; stroke: #fff; opacity: 1;" id="p-type-functions"></path><path d="M101.43009543030509,-168.88142509168733A197,197,0,0,1,102.78354972884487,-168.06112550241377L89.01316515632081,-145.5452040736951A170.6070045455344,170.6070045455344,0,0,0,87.8410393509241,-146.25560435671994Z" fill-rule="evenodd" style="fill: #DB3F29; stroke: #fff; opacity: 1;" id="p-type-functions"></path><path d="M102.78354972884487,-168.06112550241377A197,197,0,0,1,104.13037038478043,-167.22997926068294L90.17954605870263,-144.82541031409622A170.6070045455344,170.6070045455344,0,0,0,89.01316515632081,-145.5452040736951Z" fill-rule="evenodd" style="fill: #DB3F29; stroke: #fff; opacity: 1;" id="p-type-functions"></path><path d="M104.13037038478043,-167.22997926068294A197,197,0,0,1,105.47047047440755,-166.38804000861097L91.34010677993352,-144.09626953335865A170.6070045455344,170.6070045455344,0,0,0,90.17954605870263,-144.82541031409622Z" fill-rule="evenodd" style="fill: #DB3F29; stroke: #fff; opacity: 1;" id="p-type-functions"></path><path d="M105.47047047440755,-166.38804000861097A197,197,0,0,1,106.80376350776676,-165.5353620848942L92.4947724175114,-143.35782879017376A170.6070045455344,170.6070045455344,0,0,0,91.34010677993352,-144.09626953335865Z" fill-rule="evenodd" style="fill: #DB3F29; stroke: #fff; opacity: 1;" id="p-type-functions"></path><path d="M106.80376350776676,-165.5353620848942A197,197,0,0,1,108.13016343422551,-164.672000521302L93.64346844940248,-142.61013574345185A170.6070045455344,170.6070045455344,0,0,0,92.4947724175114,-143.35782879017376Z" fill-rule="evenodd" style="fill: #DB3F29; stroke: #fff; opacity: 1;" id="p-type-functions"></path><path d="M108.13016343422551,-164.672000521302A197,197,0,0,1,109.44958464803182,-163.79801103912502L94.78612073885084,-141.85323864924618A170.6070045455344,170.6070045455344,0,0,0,93.64346844940248,-142.61013574345185Z" fill-rule="evenodd" style="fill: #DB3F29; stroke: #fff; opacity: 1;" id="p-type-functions"></path><path d="M109.44958464803182,-163.79801103912502A197,197,0,0,1,110.76194199383934,-162.91345004557903L95.92265553916329,-141.08718635763853A170.6070045455344,170.6070045455344,0,0,0,94.78612073885084,-141.85323864924618Z" fill-rule="evenodd" style="fill: #DB3F29; stroke: #fff; opacity: 1;" id="p-type-functions"></path><path d="M110.76194199383934,-162.91345004557903A197,197,0,0,1,112.06715077220326,-162.0183746301643L97.05299949846889,-140.31202830958645A170.6070045455344,170.6070045455344,0,0,0,95.92265553916329,-141.08718635763853Z" fill-rule="evenodd" style="fill: #DB3F29; stroke: #fff; opacity: 1;" id="p-type-functions"></path><path d="M112.06715077220326,-162.0183746301643A197,197,0,0,1,113.36512674504675,-161.11284256098114L98.17707966445317,-139.52781453373237A170.6070045455344,170.6070045455344,0,0,0,97.05299949846889,-140.31202830958645Z" fill-rule="evenodd" style="fill: #DB3F29; stroke: #fff; opacity: 1;" id="p-type-functions"></path><path d="M113.36512674504675,-161.11284256098114A197,197,0,0,1,114.65578614109765,-160.19691228100146L99.29482348906633,-138.73459564317457A170.6070045455344,170.6070045455344,0,0,0,98.17707966445317,-139.52781453373237Z" fill-rule="evenodd" style="fill: #DB3F29; stroke: #fff; opacity: 1;" id="p-type-functions"></path><path d="M114.65578614109765,-160.19691228100146A197,197,0,0,1,115.93904566129522,-159.27064290429703L100.40615883320567,-137.93242283220096A170.6070045455344,170.6070045455344,0,0,0,99.29482348906633,-138.73459564317457Z" fill-rule="evenodd" style="fill: #DB3F29; stroke: #fff; opacity: 1;" id="p-type-functions"></path><path d="M115.93904566129522,-159.27064290429703A197,197,0,0,1,117.21482248416606,-158.33409421222402L101.51101397137121,-137.12134787298464A170.6070045455344,170.6070045455344,0,0,0,100.40615883320567,-137.93242283220096Z" fill-rule="evenodd" style="fill: #DB3F29; stroke: #fff; opacity: 1;" id="p-type-functions"></path><path d="M117.21482248416606,-158.33409421222402A197,197,0,0,1,118.4830342711696,-157.38732664956493L102.60931759629513,-136.3014231122428A170.6070045455344,170.6070045455344,0,0,0,101.51101397137121,-137.12134787298464Z" fill-rule="evenodd" style="fill: #DB3F29; stroke: #fff; opacity: 1;" id="p-type-functions"></path><path d="M118.4830342711696,-157.38732664956493A197,197,0,0,1,119.74359917201198,-156.43040132062734L103.70099882354366,-135.4727014678581A170.6070045455344,170.6070045455344,0,0,0,102.60931759629513,-136.3014231122428Z" fill-rule="evenodd" style="fill: #DB3F29; stroke: #fff; opacity: 1;" id="p-type-functions"></path><path d="M119.74359917201198,-156.43040132062734A197,197,0,0,1,120.99643582992894,-155.46337998530035L104.78598719609214,-134.63523642546335A170.6070045455344,170.6070045455344,0,0,0,103.70099882354366,-135.4727014678581Z" fill-rule="evenodd" style="fill: #DB3F29; stroke: #fff; opacity: 1;" id="p-type-functions"></path><path d="M120.99643582992894,-155.46337998530035A197,197,0,0,1,122.24146338693635,-154.48632505506853L105.86421268887221,-133.78908203498978A170.6070045455344,170.6070045455344,0,0,0,104.78598719609214,-134.63523642546335Z" fill-rule="evenodd" style="fill: #DB3F29; stroke: #fff; opacity: 1;" id="p-type-functions"></path><path d="M122.24146338693635,-154.48632505506853A197,197,0,0,1,123.47860148904888,-153.49929958898397L106.93560571329134,-132.93429290717836A170.6070045455344,170.6070045455344,0,0,0,105.86421268887221,-133.78908203498978Z" fill-rule="evenodd" style="fill: #DB3F29; stroke: #fff; opacity: 1;" id="p-type-functions"></path><path d="M123.47860148904888,-153.49929958898397A197,197,0,0,1,124.70777029146608,-152.5023672895963L108.00009712172393,-132.07092421005538A170.6070045455344,170.6070045455344,0,0,0,106.93560571329134,-132.93429290717836Z" fill-rule="evenodd" style="fill: #DB3F29; stroke: #fff; opacity: 1;" id="p-type-functions"></path><path d="M196.17025363637782,-18.061882189827156A197,197,0,0,1,196.30902534043722,-16.48534409369675L170.00860293698173,-14.276726775269138A170.6070045455344,170.6070045455344,0,0,0,169.88842311593984,-15.642048816552023Z" fill-rule="evenodd" style="fill: #1DC690; stroke: #fff; opacity: 1;" id="p-type-logs"></path><path d="M196.30902534043722,-16.48534409369675A197,197,0,0,1,196.43512727469863,-14.90774203469278L170.11781041551848,-12.910483315109063A170.6070045455344,170.6070045455344,0,0,0,170.00860293698173,-14.276726775269138Z" fill-rule="evenodd" style="fill: #1DC690; stroke: #fff; opacity: 1;" id="p-type-logs"></path><path d="M196.43512727469863,-14.90774203469278A197,197,0,0,1,196.5485513005527,-13.329177831134027L170.2160385033076,-11.543406613322434A170.6070045455344,170.6070045455344,0,0,0,170.11781041551848,-12.910483315109063Z" fill-rule="evenodd" style="fill: #1DC690; stroke: #fff; opacity: 1;" id="p-type-logs"></path><path d="M196.5485513005527,-13.329177831134027A197,197,0,0,1,196.6492900976213,-11.749753363435994L170.30328086071572,-10.175584900937222A170.6070045455344,170.6070045455344,0,0,0,170.2160385033076,-11.543406613322434Z" fill-rule="evenodd" style="fill: #1DC690; stroke: #fff; opacity: 1;" id="p-type-logs"></path><path d="M196.6492900976213,-11.749753363435994A197,197,0,0,1,196.73733716422998,-10.169570567535581L170.37953185712752,-8.807106457064345A170.6070045455344,170.6070045455344,0,0,0,170.30328086071572,-10.175584900937222Z" fill-rule="evenodd" style="fill: #1DC690; stroke: #fff; opacity: 1;" id="p-type-logs"></path><path d="M196.73733716422998,-10.169570567535581A197,197,0,0,1,196.81268681782768,-8.58873142831213L170.44478657130946,-7.43805960320011A170.6070045455344,170.6070045455344,0,0,0,170.37953185712752,-8.807106457064345Z" fill-rule="evenodd" style="fill: #1DC690; stroke: #fff; opacity: 1;" id="p-type-logs"></path><path d="M196.81268681782768,-8.58873142831213A197,197,0,0,1,196.87533419535336,-7.007337973005327L170.4990407917272,-6.068532697525968A170.6070045455344,170.6070045455344,0,0,0,170.44478657130946,-7.43805960320011Z" fill-rule="evenodd" style="fill: #1DC690; stroke: #fff; opacity: 1;" id="p-type-logs"></path><path d="M196.87533419535336,-7.007337973005327A197,197,0,0,1,196.92527525355,-5.425492264630381L170.54229101681736,-4.698614129205874A170.6070045455344,170.6070045455344,0,0,0,170.4990407917272,-6.068532697525968Z" fill-rule="evenodd" style="fill: #1DC690; stroke: #fff; opacity: 1;" id="p-type-logs"></path><path d="M196.92527525355,-5.425492264630381A197,197,0,0,1,196.96250676922546,-3.843296395390878L170.5745344552137,-3.3283923126816624A170.6070045455344,170.6070045455344,0,0,0,170.54229101681736,-4.698614129205874Z" fill-rule="evenodd" style="fill: #1DC690; stroke: #fff; opacity: 1;" id="p-type-logs"></path><path d="M196.96250676922546,-3.843296395390878A197,197,0,0,1,196.9870263394604,-2.260852480089761L170.59576902592704,-1.9579556819667847A170.6070045455344,170.6070045455344,0,0,0,170.5745344552137,-3.3283923126816624Z" fill-rule="evenodd" style="fill: #1DC690; stroke: #fff; opacity: 1;" id="p-type-logs"></path><path d="M196.9870263394604,-2.260852480089761A197,197,0,0,1,196.99883238176372,-0.6782626495388476L170.60599335847988,-0.5873926849387836A170.6070045455344,170.6070045455344,0,0,0,170.59576902592704,-1.9579556819667847Z" fill-rule="evenodd" style="fill: #1DC690; stroke: #fff; opacity: 1;" id="p-type-logs"></path><path d="M196.99883238176372,-0.6782626495388476A197,197,0,0,1,196.9979241341743,0.904370956032686L170.6052067929945,0.7832082223691257A170.6070045455344,170.6070045455344,0,0,0,170.60599335847988,-0.5873926849387836Z" fill-rule="evenodd" style="fill: #1DC690; stroke: #fff; opacity: 1;" id="p-type-logs"></path><path d="M196.9979241341743,0.904370956032686A197,197,0,0,1,196.9843016553103,2.486946193570427L170.59340938023576,2.1537585814770015A170.6070045455344,170.6070045455344,0,0,0,170.6052067929945,0.7832082223691257Z" fill-rule="evenodd" style="fill: #1DC690; stroke: #fff; opacity: 1;" id="p-type-logs"></path><path d="M196.9843016553103,2.486946193570427A197,197,0,0,1,196.95796582436557,4.0693609237870305L170.57060188160787,3.524169937167279A170.6070045455344,170.6070045455344,0,0,0,170.59340938023576,2.1537585814770015Z" fill-rule="evenodd" style="fill: #1DC690; stroke: #fff; opacity: 1;" id="p-type-logs"></path><path d="M196.95796582436557,4.0693609237870305A197,197,0,0,1,196.91891834105263,5.651513017754283L170.536785769105,4.894353843193664A170.6070045455344,170.6070045455344,0,0,0,170.57060188160787,3.524169937167279Z" fill-rule="evenodd" style="fill: #1DC690; stroke: #fff; opacity: 1;" id="p-type-logs"></path><path d="M196.91891834105263,5.651513017754283A197,197,0,0,1,196.86716172549316,7.233300363494494L170.49196322521658,6.264221867989446A170.6070045455344,170.6070045455344,0,0,0,170.536785769105,4.894353843193664Z" fill-rule="evenodd" style="fill: #1DC690; stroke: #fff; opacity: 1;" id="p-type-logs"></path><path d="M196.86716172549316,7.233300363494494A197,197,0,0,1,196.80269931805518,8.814620872570798L170.4361371427862,7.633685600374866A170.6070045455344,170.6070045455344,0,0,0,170.49196322521658,6.264221867989446Z" fill-rule="evenodd" style="fill: #1DC690; stroke: #fff; opacity: 1;" id="p-type-logs"></path><path d="M196.80269931805518,8.814620872570798A197,197,0,0,1,196.72553527913772,10.39537248667593L170.36931112482506,9.002656655263166A170.6070045455344,170.6070045455344,0,0,0,170.4361371427862,7.633685600374866Z" fill-rule="evenodd" style="fill: #1DC690; stroke: #fff; opacity: 1;" id="p-type-logs"></path><path d="M196.72553527913772,10.39537248667593A197,197,0,0,1,196.63567458890202,11.975453184219067L170.29148948427937,10.371046679364959A170.6070045455344,170.6070045455344,0,0,0,170.36931112482506,9.002656655263166Z" fill-rule="evenodd" style="fill: #1DC690; stroke: #fff; opacity: 1;" id="p-type-logs"></path><path d="M196.63567458890202,11.975453184219067A197,197,0,0,1,196.53312304695038,13.554760986910285L170.20267724375196,11.738767356890536A170.6070045455344,170.6070045455344,0,0,0,170.29148948427937,10.371046679364959Z" fill-rule="evenodd" style="fill: #1DC690; stroke: #fff; opacity: 1;" id="p-type-logs"></path><path d="M196.53312304695038,13.554760986910285A197,197,0,0,1,196.41788727195154,15.133193966342246L170.1028801351782,13.105730415249774A170.6070045455344,170.6070045455344,0,0,0,170.20267724375196,11.738767356890536Z" fill-rule="evenodd" style="fill: #1DC690; stroke: #fff; opacity: 1;" id="p-type-logs"></path><path d="M196.41788727195154,15.133193966342246A197,197,0,0,1,196.28997470121385,16.71065025056863L169.99210459945596,14.47184763074923A170.6070045455344,170.6070045455344,0,0,0,170.1028801351782,13.105730415249774Z" fill-rule="evenodd" style="fill: #1DC690; stroke: #fff; opacity: 1;" id="p-type-logs"></path><path d="M196.28997470121385,16.71065025056863A197,197,0,0,1,196.14939359020502,18.287028030678957L169.8703577860301,15.837030834286091A170.6070045455344,170.6070045455344,0,0,0,169.99210459945596,14.47184763074923Z" fill-rule="evenodd" style="fill: #1DC690; stroke: #fff; opacity: 1;" id="p-type-logs"></path><path d="M196.14939359020502,18.287028030678957A197,197,0,0,1,195.99615301201945,19.862225567369318L169.73764755243076,17.201191917038614A170.6070045455344,170.6070045455344,0,0,0,169.8703577860301,15.837030834286091Z" fill-rule="evenodd" style="fill: #1DC690; stroke: #fff; opacity: 1;" id="p-type-logs"></path><path d="M195.99615301201945,19.862225567369318A197,197,0,0,1,195.83026285679256,21.436141197508636L169.59398246376654,18.564242836152655A170.6070045455344,170.6070045455344,0,0,0,169.73764755243076,17.201191917038614Z" fill-rule="evenodd" style="fill: #1DC690; stroke: #fff; opacity: 1;" id="p-type-logs"></path><path d="M195.83026285679256,21.436141197508636A197,197,0,0,1,195.65173383106261,23.00867334069997L169.4393717921715,19.92609562042394A170.6070045455344,170.6070045455344,0,0,0,169.59398246376654,18.564242836152655Z" fill-rule="evenodd" style="fill: #1DC690; stroke: #fff; opacity: 1;" id="p-type-logs"></path><path d="M195.65173383106261,23.00867334069997A197,197,0,0,1,195.46057745707944,24.579720505836544L169.27382551620678,21.286662375975737A170.6070045455344,170.6070045455344,0,0,0,169.4393717921715,19.92609562042394Z" fill-rule="evenodd" style="fill: #1DC690; stroke: #fff; opacity: 1;" id="p-type-logs"></path><path d="M195.46057745707944,24.579720505836544A197,197,0,0,1,195.25680607206124,26.149181297651936L169.09735432021665,22.645855291931507A170.6070045455344,170.6070045455344,0,0,0,169.27382551620678,21.286662375975737Z" fill-rule="evenodd" style="fill: #1DC690; stroke: #fff; opacity: 1;" id="p-type-logs"></path><path d="M195.25680607206124,26.149181297651936A197,197,0,0,1,195.04043282739786,27.716954423264145L168.90996959363892,24.003586646082216A170.6070045455344,170.6070045455344,0,0,0,169.09735432021665,22.645855291931507Z" fill-rule="evenodd" style="fill: #1DC690; stroke: #fff; opacity: 1;" id="p-type-logs"></path><path d="M195.04043282739786,27.716954423264145A197,197,0,0,1,194.81147168780234,29.282938698713025L168.71168343026977,25.359768810547912A170.6070045455344,170.6070045455344,0,0,0,168.90996959363892,24.003586646082216Z" fill-rule="evenodd" style="fill: #1DC690; stroke: #fff; opacity: 1;" id="p-type-logs"></path><path d="M194.81147168780234,29.282938698713025A197,197,0,0,1,194.56993743040948,30.847033055490687L168.50250862748334,26.714314257433248A170.6070045455344,170.6070045455344,0,0,0,168.71168343026977,25.359768810547912Z" fill-rule="evenodd" style="fill: #1DC690; stroke: #fff; opacity: 1;" id="p-type-logs"></path><path d="M194.56993743040948,30.847033055490687A197,197,0,0,1,194.3158456438222,32.40913654706444L168.28245868540577,28.067135564476487A170.6070045455344,170.6070045455344,0,0,0,168.50250862748334,26.714314257433248Z" fill-rule="evenodd" style="fill: #1DC690; stroke: #fff; opacity: 1;" id="p-type-logs"></path><path d="M194.3158456438222,32.40913654706444A197,197,0,0,1,194.04921272710533,33.969148355391894L168.0515478060438,29.41814542069176A170.6070045455344,170.6070045455344,0,0,0,168.28245868540577,28.067135564476487Z" fill-rule="evenodd" style="fill: #1DC690; stroke: #fff; opacity: 1;" id="p-type-logs"></path><path d="M194.04921272710533,33.969148355391894A197,197,0,0,1,193.77005588872737,35.52696779742773L167.80979089236837,30.767256632004102A170.6070045455344,170.6070045455344,0,0,0,168.0515478060438,29.41814542069176Z" fill-rule="evenodd" style="fill: #1DC690; stroke: #fff; opacity: 1;" id="p-type-logs"></path><path d="M193.77005588872737,35.52696779742773A197,197,0,0,1,193.4783931454498,37.08249433162181L167.55720354735251,32.11438212687693A170.6070045455344,170.6070045455344,0,0,0,167.80979089236837,30.767256632004102Z" fill-rule="evenodd" style="fill: #1DC690; stroke: #fff; opacity: 1;" id="p-type-logs"></path><path d="M193.4783931454498,37.08249433162181A197,197,0,0,1,193.1742433211642,38.63562756440806L167.2938020729646,33.45943496193168A170.6070045455344,170.6070045455344,0,0,0,167.55720354735251,32.11438212687693Z" fill-rule="evenodd" style="fill: #1DC690; stroke: #fff; opacity: 1;" id="p-type-logs"></path><path d="M193.1742433211642,38.63562756440806A197,197,0,0,1,192.85762604567748,40.186267256683934L167.0196034691161,34.80232832755907A170.6070045455344,170.6070045455344,0,0,0,167.2938020729646,33.45943496193168Z" fill-rule="evenodd" style="fill: #1DC690; stroke: #fff; opacity: 1;" id="p-type-logs"></path><path d="M192.85762604567748,40.186267256683934A197,197,0,0,1,192.52856175344485,41.73431333027977L166.73462543256431,36.142975553521815A170.6070045455344,170.6070045455344,0,0,0,167.0196034691161,34.80232832755907Z" fill-rule="evenodd" style="fill: #1DC690; stroke: #fff; opacity: 1;" id="p-type-logs"></path><path d="M192.52856175344485,41.73431333027977A197,197,0,0,1,192.18707168225114,43.27966587441789L166.4388863557704,37.48129011454834A170.6070045455344,170.6070045455344,0,0,0,166.73462543256431,36.142975553521815Z" fill-rule="evenodd" style="fill: #1DC690; stroke: #fff; opacity: 1;" id="p-type-logs"></path><path d="M192.18707168225114,43.27966587441789A197,197,0,0,1,191.83317787184,44.82222515216079L166.13240532571228,38.81718563591706A170.6070045455344,170.6070045455344,0,0,0,166.4388863557704,37.48129011454834Z" fill-rule="evenodd" style="fill: #1DC690; stroke: #fff; opacity: 1;" id="p-type-logs"></path><path d="M191.83317787184,44.82222515216079A197,197,0,0,1,191.4669031624914,46.361891606848175L165.8152021226526,40.15057589903107A170.6070045455344,170.6070045455344,0,0,0,166.13240532571228,38.81718563591706Z" fill-rule="evenodd" style="fill: #1DC690; stroke: #fff; opacity: 1;" id="p-type-logs"></path><path d="M191.4669031624914,46.361891606848175A197,197,0,0,1,191.08827119354768,47.89856586852234L165.48729721886244,41.48137484698259A170.6070045455344,170.6070045455344,0,0,0,165.8152021226526,40.15057589903107Z" fill-rule="evenodd" style="fill: #1DC690; stroke: #fff; opacity: 1;" id="p-type-logs"></path><path d="M191.08827119354768,47.89856586852234A197,197,0,0,1,190.69730640188777,49.43214876034149L165.14871177729967,42.80949659010717A170.6070045455344,170.6070045455344,0,0,0,165.48729721886244,41.48137484698259Z" fill-rule="evenodd" style="fill: #1DC690; stroke: #fff; opacity: 1;" id="p-type-logs"></path><path d="M190.69730640188777,49.43214876034149A197,197,0,0,1,190.29403402035007,50.96254130498058L164.79946765024337,44.13485541152694A170.6070045455344,170.6070045455344,0,0,0,165.14871177729967,42.80949659010717Z" fill-rule="evenodd" style="fill: #1DC690; stroke: #fff; opacity: 1;" id="p-type-logs"></path><path d="M190.29403402035007,50.96254130498058A197,197,0,0,1,189.87848007610384,52.48964473101939L164.43958737788333,45.4573657726828A170.6070045455344,170.6070045455344,0,0,0,164.79946765024337,44.13485541152694Z" fill-rule="evenodd" style="fill: #1DC690; stroke: #fff; opacity: 1;" id="p-type-logs"></path><path d="M189.87848007610384,52.48964473101939A197,197,0,0,1,189.4506713889696,54.013360479317114L164.06909418686539,46.77694231885504A170.6070045455344,170.6070045455344,0,0,0,164.43958737788333,45.4573657726828Z" fill-rule="evenodd" style="fill: #1DC690; stroke: #fff; opacity: 1;" id="p-type-logs"></path><path d="M189.4506713889696,54.013360479317114A197,197,0,0,1,189.01063556968793,55.53359020937345L163.68801198879237,48.093499884672184A170.6070045455344,170.6070045455344,0,0,0,164.06909418686539,46.77694231885504Z" fill-rule="evenodd" style="fill: #1DC690; stroke: #fff; opacity: 1;" id="p-type-logs"></path><path d="M189.01063556968793,55.53359020937345A197,197,0,0,1,188.5584010181377,57.05023580567543L163.2963653786808,49.4069534996075A170.6070045455344,170.6070045455344,0,0,0,163.68801198879237,48.093499884672184Z" fill-rule="evenodd" style="fill: #1DC690; stroke: #fff; opacity: 1;" id="p-type-logs"></path><path d="M188.5584010181377,57.05023580567543A197,197,0,0,1,188.09399692150296,58.563199384029815L162.89417963337357,50.71721839346301A170.6070045455344,170.6070045455344,0,0,0,163.2963653786808,49.4069534996075Z" fill-rule="evenodd" style="fill: #1DC690; stroke: #fff; opacity: 1;" id="p-type-logs"></path><path d="M188.09399692150296,58.563199384029815A197,197,0,0,1,187.6174532523894,60.07238329788055L162.48148070990857,52.02421000184057A170.6070045455344,170.6070045455344,0,0,0,162.89417963337357,50.71721839346301Z" fill-rule="evenodd" style="fill: #1DC690; stroke: #fff; opacity: 1;" id="p-type-logs"></path><path d="M187.6174532523894,60.07238329788055A197,197,0,0,1,187.1288007668897,61.57769014461082L162.05829524384342,53.32784397159963A170.6070045455344,170.6070045455344,0,0,0,162.48148070990857,52.02421000184057Z" fill-rule="evenodd" style="fill: #1DC690; stroke: #fff; opacity: 1;" id="p-type-logs"></path><path d="M187.1288007668897,61.57769014461082A197,197,0,0,1,186.62807100259872,63.079022771829415L161.62465054753645,54.628036166301364A170.6070045455344,170.6070045455344,0,0,0,162.05829524384342,53.32784397159963Z" fill-rule="evenodd" style="fill: #1DC690; stroke: #fff; opacity: 1;" id="p-type-logs"></path><path d="M186.62807100259872,63.079022771829415A197,197,0,0,1,186.1152962765779,64.57628428364102L161.1805746083838,55.924702671638904A170.6070045455344,170.6070045455344,0,0,0,161.62465054753645,54.628036166301364Z" fill-rule="evenodd" style="fill: #1DC690; stroke: #fff; opacity: 1;" id="p-type-logs"></path><path d="M186.1152962765779,64.57628428364102A197,197,0,0,1,185.59050968326977,66.06937804689973L160.72609608701347,57.21775980085306A170.6070045455344,170.6070045455344,0,0,0,161.1805746083838,55.924702671638904Z" fill-rule="evenodd" style="fill: #1DC690; stroke: #fff; opacity: 1;" id="p-type-logs"></path><path d="M185.59050968326977,66.06937804689973A197,197,0,0,1,185.05374509236165,67.55820769744584L160.26124431543508,58.50712410013351A170.6070045455344,170.6070045455344,0,0,0,160.72609608701347,57.21775980085306Z" fill-rule="evenodd" style="fill: #1DC690; stroke: #fff; opacity: 1;" id="p-type-logs"></path><path d="M185.05374509236165,67.55820769744584A197,197,0,0,1,184.50503714660013,69.04267714632522L159.78604929514725,59.792712354004934A170.6070045455344,170.6070045455344,0,0,0,160.26124431543508,58.50712410013351Z" fill-rule="evenodd" style="fill: #1DC690; stroke: #fff; opacity: 1;" id="p-type-logs"></path><path d="M184.50503714660013,69.04267714632522A197,197,0,0,1,183.94442125955496,70.52269058599073L159.30054169520096,61.07444159069765A170.6070045455344,170.6070045455344,0,0,0,159.78604929514725,59.792712354004934Z" fill-rule="evenodd" style="fill: #1DC690; stroke: #fff; opacity: 1;" id="p-type-logs"></path><path d="M183.94442125955496,70.52269058599073A197,197,0,0,1,183.37193361333345,71.99815249648582L158.80475285022038,62.35222908750272A170.6070045455344,170.6070045455344,0,0,0,159.30054169520096,61.07444159069765Z" fill-rule="evenodd" style="fill: #1DC690; stroke: #fff; opacity: 1;" id="p-type-logs"></path><path d="M183.37193361333345,71.99815249648582A197,197,0,0,1,182.78761115624548,73.46896765160923L158.29871475838044,63.625992376110744A170.6070045455344,170.6070045455344,0,0,0,158.80475285022038,62.35222908750272Z" fill-rule="evenodd" style="fill: #1DC690; stroke: #fff; opacity: 1;" id="p-type-logs"></path><path d="M182.78761115624548,73.46896765160923A197,197,0,0,1,182.19149160041863,74.93504112506098L157.78246007934172,64.89564924793444A170.6070045455344,170.6070045455344,0,0,0,158.29871475838044,63.625992376110744Z" fill-rule="evenodd" style="fill: #1DC690; stroke: #fff; opacity: 1;" id="p-type-logs"></path><path d="M182.19149160041863,74.93504112506098A197,197,0,0,1,181.58361341936447,76.39627829656884L157.25602213214253,66.16111775941437A170.6070045455344,170.6070045455344,0,0,0,157.78246007934172,64.89564924793444Z" fill-rule="evenodd" style="fill: #1DC690; stroke: #fff; opacity: 1;" id="p-type-logs"></path><path d="M181.58361341936447,76.39627829656884A197,197,0,0,1,180.96401584549525,77.85258485799518L156.71943489304857,67.42231623730754A170.6070045455344,170.6070045455344,0,0,0,157.25602213214253,66.16111775941437Z" fill-rule="evenodd" style="fill: #1DC690; stroke: #fff; opacity: 1;" id="p-type-logs"></path><path d="M180.96401584549525,77.85258485799518A197,197,0,0,1,180.332738867592,79.30386681942356L156.1727329933601,68.67916328395863A170.6070045455344,170.6070045455344,0,0,0,156.71943489304857,67.42231623730754Z" fill-rule="evenodd" style="fill: #1DC690; stroke: #fff; opacity: 1;" id="p-type-logs"></path><path d="M180.332738867592,79.30386681942356A197,197,0,0,1,179.68982322822364,80.75003051522482L155.61595171717678,69.93157778255332A170.6070045455344,170.6070045455344,0,0,0,156.1727329933601,68.67916328395863Z" fill-rule="evenodd" style="fill: #1DC690; stroke: #fff; opacity: 1;" id="p-type-logs"></path><path d="M179.68982322822364,80.75003051522482A197,197,0,0,1,179.03531042111734,82.19098261010238L155.04912699912046,71.17947890235368A170.6070045455344,170.6070045455344,0,0,0,155.61595171717678,69.93157778255332Z" fill-rule="evenodd" style="fill: #1DC690; stroke: #fff; opacity: 1;" id="p-type-logs"></path><path d="M179.03531042111734,82.19098261010238A197,197,0,0,1,178.3692426884807,83.62663010511586L154.47229542201603,72.42278610391486A170.6070045455344,170.6070045455344,0,0,0,155.04912699912046,71.17947890235368Z" fill-rule="evenodd" style="fill: #1DC690; stroke: #fff; opacity: 1;" id="p-type-logs"></path><path d="M178.3692426884807,83.62663010511586A197,197,0,0,1,177.69166301827534,85.05688034368342L153.8854942145303,73.6614191442831A170.6070045455344,170.6070045455344,0,0,0,154.47229542201603,72.42278610391486Z" fill-rule="evenodd" style="fill: #1DC690; stroke: #fff; opacity: 1;" id="p-type-logs"></path><path d="M177.69166301827534,85.05688034368342A197,197,0,0,1,177.00261514144242,86.48164101756174L153.28876124876928,74.89529808217478A170.6070045455344,170.6070045455344,0,0,0,153.8854942145303,73.6614191442831Z" fill-rule="evenodd" style="fill: #1DC690; stroke: #fff; opacity: 1;" id="p-type-logs"></path><path d="M177.00261514144242,86.48164101756174A197,197,0,0,1,176.30214352908035,87.9008201728036L152.68213503783386,76.12434328313557A170.6070045455344,170.6070045455344,0,0,0,153.28876124876928,74.89529808217478Z" fill-rule="evenodd" style="fill: #1DC690; stroke: #fff; opacity: 1;" id="p-type-logs"></path><path d="M176.30214352908035,87.9008201728036A197,197,0,0,1,175.5902933895745,89.31432621569259L152.0656547333343,77.34847542468025A170.6070045455344,170.6070045455344,0,0,0,152.68213503783386,76.12434328313557Z" fill-rule="evenodd" style="fill: #1DC690; stroke: #fff; opacity: 1;" id="p-type-logs"></path><path d="M175.5902933895745,89.31432621569259A197,197,0,0,1,174.8671106656796,90.72206791865453L151.4393601228633,78.56761550141205A170.6070045455344,170.6070045455344,0,0,0,152.0656547333343,77.34847542468025Z" fill-rule="evenodd" style="fill: #1DC690; stroke: #fff; opacity: 1;" id="p-type-logs"></path><path d="M174.8671106656796,90.72206791865453A197,197,0,0,1,174.13264203155452,92.12395442614527L150.8032916274281,79.78168483012169A170.6070045455344,170.6070045455344,0,0,0,151.4393601228633,78.56761550141205Z" fill-rule="evenodd" style="fill: #1DC690; stroke: #fff; opacity: 1;" id="p-type-logs"></path><path d="M174.13264203155452,92.12395442614527A197,197,0,0,1,173.3869348897499,93.51989526051462L150.15749029884185,80.99060505486558A170.6070045455344,170.6070045455344,0,0,0,150.8032916274281,79.78168483012169Z" fill-rule="evenodd" style="fill: #1DC690; stroke: #fff; opacity: 1;" id="p-type-logs"></path><path d="M173.3869348897499,93.51989526051462A197,197,0,0,1,172.6300373681489,94.9098003278456L149.50199781707386,82.19429815202294A170.6070045455344,170.6070045455344,0,0,0,150.15749029884185,80.99060505486558Z" fill-rule="evenodd" style="fill: #1DC690; stroke: #fff; opacity: 1;" id="p-type-logs"></path><path d="M172.6300373681489,94.9098003278456A197,197,0,0,1,171.8619983168608,96.29357992376927L148.83685648755988,83.3926864353314A170.6070045455344,170.6070045455344,0,0,0,149.50199781707386,82.19429815202294Z" fill-rule="evenodd" style="fill: #1DC690; stroke: #fff; opacity: 1;" id="p-type-logs"></path><path d="M171.8619983168608,96.29357992376927A197,197,0,0,1,171.0828673050685,97.67114473925409L148.1621092384715,84.58569256090087A170.6070045455344,170.6070045455344,0,0,0,148.83685648755988,83.3926864353314Z" fill-rule="evenodd" style="fill: #1DC690; stroke: #fff; opacity: 1;" id="p-type-logs"></path><path d="M171.0828673050685,97.67114473925409A197,197,0,0,1,170.29269461782923,99.04240586637002L147.47779961794564,85.77323953220534A170.6070045455344,170.6070045455344,0,0,0,148.1621092384715,84.58569256090087Z" fill-rule="evenodd" style="fill: #1DC690; stroke: #fff; opacity: 1;" id="p-type-logs"></path><path d="M170.29269461782923,99.04240586637002A197,197,0,0,1,169.49153125282896,100.40727480402654L146.783971791274,86.95525070505218A170.6070045455344,170.6070045455344,0,0,0,147.47779961794564,85.77323953220534Z" fill-rule="evenodd" style="fill: #1DC690; stroke: #fff; opacity: 1;" id="p-type-logs"></path><path d="M169.49153125282896,100.40727480402654A197,197,0,0,1,168.67942891709137,101.76566346368465L146.08067053805257,88.13164979252878A170.6070045455344,170.6070045455344,0,0,0,146.783971791274,86.95525070505218Z" fill-rule="evenodd" style="fill: #1DC690; stroke: #fff; opacity: 1;" id="p-type-logs"></path><path d="M168.67942891709137,101.76566346368465A197,197,0,0,1,167.85644002364037,103.11748417504191L145.36794124929156,89.30236086992613A170.6070045455344,170.6070045455344,0,0,0,146.08067053805257,88.13164979252878Z" fill-rule="evenodd" style="fill: #1DC690; stroke: #fff; opacity: 1;" id="p-type-logs"></path><path d="M167.85644002364037,103.11748417504191A197,197,0,0,1,167.02261768811755,104.46264969169084L144.64582992448592,90.46730837963894A170.6070045455344,170.6070045455344,0,0,0,145.36794124929156,89.30236086992613Z" fill-rule="evenodd" style="fill: #1DC690; stroke: #fff; opacity: 1;" id="p-type-logs"></path><path d="M167.02261768811755,104.46264969169084A197,197,0,0,1,166.17801572535402,105.80107319674974L143.91438316864648,91.62641713604214A170.6070045455344,170.6070045455344,0,0,0,144.64582992448592,90.46730837963894Z" fill-rule="evenodd" style="fill: #1DC690; stroke: #fff; opacity: 1;" id="p-type-logs"></path><path d="M166.17801572535402,105.80107319674974A197,197,0,0,1,165.32268864589716,107.13266830846577L143.1736481892921,92.7796123303434A170.6070045455344,170.6070045455344,0,0,0,143.91438316864648,91.62641713604214Z" fill-rule="evenodd" style="fill: #1DC690; stroke: #fff; opacity: 1;" id="p-type-logs"></path><path d="M165.32268864589716,107.13266830846577A197,197,0,0,1,164.4566916524927,108.45734908579011L142.42367279340291,93.9268195354112A170.6070045455344,170.6070045455344,0,0,0,143.1736481892921,92.7796123303434Z" fill-rule="evenodd" style="fill: #1DC690; stroke: #fff; opacity: 1;" id="p-type-logs"></path><path d="M164.4566916524927,108.45734908579011A197,197,0,0,1,163.58008063652176,109.77503003392458L141.66450538433477,95.06796471057841A170.6070045455344,170.6070045455344,0,0,0,142.42367279340291,93.9268195354112Z" fill-rule="evenodd" style="fill: #1DC690; stroke: #fff; opacity: 1;" id="p-type-logs"></path><path d="M57.63031527867809,188.3819172874089A197,197,0,0,1,56.11506876463294,188.83881766612637L48.59707508528278,163.53921331948308A170.6070045455344,170.6070045455344,0,0,0,49.9093170594417,163.143525984515Z" fill-rule="evenodd" style="fill: #D7A449; stroke: #fff; opacity: 1;" id="p-type-tokenTransfers"></path><path d="M56.11506876463294,188.83881766612637A197,197,0,0,1,54.596200588251,189.2835304016899L47.28169665953628,163.92434584586755A170.6070045455344,170.6070045455344,0,0,0,48.59707508528278,163.53921331948308Z" fill-rule="evenodd" style="fill: #D7A449; stroke: #fff; opacity: 1;" id="p-type-tokenTransfers"></path><path d="M54.596200588251,189.2835304016899A197,197,0,0,1,53.07380877717068,189.71602679237282L45.96326667662733,164.29889870724404A170.6070045455344,170.6070045455344,0,0,0,47.28169665953628,163.92434584586755Z" fill-rule="evenodd" style="fill: #D7A449; stroke: #fff; opacity: 1;" id="p-type-tokenTransfers"></path><path d="M53.07380877717068,189.71602679237282A197,197,0,0,1,51.547991586445484,190.13627892489046L44.6418702279283,164.66284772999893A170.6070045455344,170.6070045455344,0,0,0,45.96326667662733,164.29889870724404Z" fill-rule="evenodd" style="fill: #D7A449; stroke: #fff; opacity: 1;" id="p-type-tokenTransfers"></path><path d="M51.547991586445484,190.13627892489046A197,197,0,0,1,50.01884749220265,190.54425967620168L43.31759259626706,165.01616942488948A170.6070045455344,170.6070045455344,0,0,0,44.6418702279283,164.66284772999893Z" fill-rule="evenodd" style="fill: #D7A449; stroke: #fff; opacity: 1;" id="p-type-tokenTransfers"></path><path d="M50.01884749220265,190.54425967620168A197,197,0,0,1,48.48647518528755,190.93994271525926L41.990519250422814,165.35884098856A170.6070045455344,170.6070045455344,0,0,0,43.31759259626706,165.01616942488948Z" fill-rule="evenodd" style="fill: #D7A449; stroke: #fff; opacity: 1;" id="p-type-tokenTransfers"></path><path d="M48.48647518528755,190.93994271525926A197,197,0,0,1,46.95097356489414,191.32330250470957L40.660735839609956,165.6908403050134A170.6070045455344,170.6070045455344,0,0,0,41.990519250422814,165.35884098856Z" fill-rule="evenodd" style="fill: #D7A449; stroke: #fff; opacity: 1;" id="p-type-tokenTransfers"></path><path d="M46.95097356489414,191.32330250470957A197,197,0,0,1,45.41244173218204,191.69431430254048L39.32832818795024,166.0121459470387A170.6070045455344,170.6070045455344,0,0,0,40.660735839609956,165.6908403050134Z" fill-rule="evenodd" style="fill: #D7A449; stroke: #fff; opacity: 1;" id="p-type-tokenTransfers"></path><path d="M45.41244173218204,191.69431430254048A197,197,0,0,1,43.87097898388053,192.0529541636783L37.99338228893376,166.32273717759378A170.6070045455344,170.6070045455344,0,0,0,39.32832818795024,166.0121459470387Z" fill-rule="evenodd" style="fill: #D7A449; stroke: #fff; opacity: 1;" id="p-type-tokenTransfers"></path><path d="M43.87097898388053,192.0529541636783A197,197,0,0,1,42.32668480588,192.39919894153326L36.65598429986889,166.62259395114387A170.6070045455344,170.6070045455344,0,0,0,37.99338228893376,166.32273717759378Z" fill-rule="evenodd" style="fill: #D7A449; stroke: #fff; opacity: 1;" id="p-type-tokenTransfers"></path><path d="M42.32668480588,192.39919894153326A197,197,0,0,1,40.77965886681106,192.7330262894933L35.316220536321715,166.91169691495526A170.6070045455344,170.6070045455344,0,0,0,36.65598429986889,166.62259395114387Z" fill-rule="evenodd" style="fill: #D7A449; stroke: #fff; opacity: 1;" id="p-type-tokenTransfers"></path><path d="M40.77965886681106,192.7330262894933A197,197,0,0,1,39.230001011612,193.0544146623664L33.97417746654522,167.19002741034433A170.6070045455344,170.6070045455344,0,0,0,35.316220536321715,166.91169691495526Z" fill-rule="evenodd" style="fill: #D7A449; stroke: #fff; opacity: 1;" id="p-type-tokenTransfers"></path><path d="M39.230001011612,193.0544146623664A197,197,0,0,1,37.67781125508478,193.36334331777107L32.62994170589866,167.45756747388174A170.6070045455344,170.6070045455344,0,0,0,33.97417746654522,167.19002741034433Z" fill-rule="evenodd" style="fill: #D7A449; stroke: #fff; opacity: 1;" id="p-type-tokenTransfers"></path><path d="M37.67781125508478,193.36334331777107A197,197,0,0,1,36.12318977544007,193.659792317475L31.283600011257388,167.7142998385518A170.6070045455344,170.6070045455344,0,0,0,32.62994170589866,167.45756747388174Z" fill-rule="evenodd" style="fill: #D7A449; stroke: #fff; opacity: 1;" id="p-type-tokenTransfers"></path><path d="M36.12318977544007,193.659792317475A197,197,0,0,1,34.56623690783175,193.9437425286819L29.93523927541356,167.96020793486693A170.6070045455344,170.6070045455344,0,0,0,31.283600011257388,167.7142998385518Z" fill-rule="evenodd" style="fill: #D7A449; stroke: #fff; opacity: 1;" id="p-type-tokenTransfers"></path><path d="M34.56623690783175,193.9437425286819A197,197,0,0,1,33.007053137881364,194.2151756252664L28.58494652146813,168.195275891937A170.6070045455344,170.6070045455344,0,0,0,29.93523927541356,167.96020793486693Z" fill-rule="evenodd" style="fill: #D7A449; stroke: #fff; opacity: 1;" id="p-type-tokenTransfers"></path><path d="M33.007053137881364,194.2151756252664A197,197,0,0,1,31.445739095192675,194.47407408895685L27.232808897214344,168.41948853849368A170.6070045455344,170.6070045455344,0,0,0,28.58494652146813,168.195275891937Z" fill-rule="evenodd" style="fill: #D7A449; stroke: #fff; opacity: 1;" id="p-type-tokenTransfers"></path><path d="M31.445739095192675,194.47407408895685A197,197,0,0,1,29.88239554685709,194.72042121046567L25.878913669513224,168.63283140386952A170.6070045455344,170.6070045455344,0,0,0,27.232808897214344,168.41948853849368Z" fill-rule="evenodd" style="fill: #D7A449; stroke: #fff; opacity: 1;" id="p-type-tokenTransfers"></path><path d="M29.88239554685709,194.72042121046567A197,197,0,0,1,28.317123390950194,194.9542010905682L24.523348218661415,168.83529071893196A170.6070045455344,170.6070045455344,0,0,0,25.878913669513224,168.63283140386952Z" fill-rule="evenodd" style="fill: #D7A449; stroke: #fff; opacity: 1;" id="p-type-tokenTransfers"></path><path d="M28.317123390950194,194.9542010905682A197,197,0,0,1,26.750023650019724,195.1753986411284L23.166200032751615,169.026853416972A170.6070045455344,170.6070045455344,0,0,0,24.523348218661415,168.83529071893196Z" fill-rule="evenodd" style="fill: #D7A449; stroke: #fff; opacity: 1;" id="p-type-tokenTransfers"></path><path d="M26.750023650019724,195.1753986411284A197,197,0,0,1,25.18119746456564,195.38399958607295L21.80755670202614,169.2075071345474A170.6070045455344,170.6070045455344,0,0,0,23.166200032751615,169.026853416972Z" fill-rule="evenodd" style="fill: #D7A449; stroke: #fff; opacity: 1;" id="p-type-tokenTransfers"></path><path d="M25.18119746456564,195.38399958607295A197,197,0,0,1,23.61074608651249,195.57999046231248L20.447505913223832,169.3772402122808A170.6070045455344,170.6070045455344,0,0,0,21.80755670202614,169.2075071345474Z" fill-rule="evenodd" style="fill: #D7A449; stroke: #fff; opacity: 1;" id="p-type-tokenTransfers"></path><path d="M23.61074608651249,195.57999046231248A197,197,0,0,1,22.038770872674636,195.7633586206105L19.086135443920778,169.53604169561206A170.6070045455344,170.6070045455344,0,0,0,20.447505913223832,169.3772402122808Z" fill-rule="evenodd" style="fill: #D7A449; stroke: #fff; opacity: 1;" id="p-type-tokenTransfers"></path><path d="M22.038770872674636,195.7633586206105A197,197,0,0,1,20.465373278214685,195.9340922263998L17.72353315686513,169.6839013355053A170.6070045455344,170.6070045455344,0,0,0,19.086135443920778,169.53604169561206Z" fill-rule="evenodd" style="fill: #D7A449; stroke: #fff; opacity: 1;" id="p-type-tokenTransfers"></path><path d="M20.465373278214685,195.9340922263998A197,197,0,0,1,18.890654850095586,196.09218026054623L16.359786994306496,169.82080958911047A170.6070045455344,170.6070045455344,0,0,0,17.72353315686513,169.6839013355053Z" fill-rule="evenodd" style="fill: #D7A449; stroke: #fff; opacity: 1;" id="p-type-tokenTransfers"></path><path d="M18.890654850095586,196.09218026054623A197,197,0,0,1,17.31471722052679,196.23761252005994L14.994984972320088,169.94675762037912A170.6070045455344,170.6070045455344,0,0,0,16.359786994306496,169.82080958911047Z" fill-rule="evenodd" style="fill: #D7A449; stroke: #fff; opacity: 1;" id="p-type-tokenTransfers"></path><path d="M17.31471722052679,196.23761252005994A197,197,0,0,1,15.737662100404927,196.3703796187538L13.629215175126234,170.06173730063475A170.6070045455344,170.6070045455344,0,0,0,14.994984972320088,169.94675762037912Z" fill-rule="evenodd" style="fill: #D7A449; stroke: #fff; opacity: 1;" id="p-type-tokenTransfers"></path><path d="M15.737662100404927,196.3703796187538A197,197,0,0,1,14.159591272749369,196.49047298784916L12.262565749405384,170.1657412090974A170.6070045455344,170.6070045455344,0,0,0,13.629215175126234,170.06173730063475Z" fill-rule="evenodd" style="fill: #D7A449; stroke: #fff; opacity: 1;" id="p-type-tokenTransfers"></path><path d="M14.159591272749369,196.49047298784916A197,197,0,0,1,12.580606586133184,196.59788487652898L10.895124898609158,170.2587626333626A170.6070045455344,170.6070045455344,0,0,0,12.262565749405384,170.1657412090974Z" fill-rule="evenodd" style="fill: #D7A449; stroke: #fff; opacity: 1;" id="p-type-tokenTransfers"></path><path d="M12.580606586133184,196.59788487652898A197,197,0,0,1,11.000809948109833,196.69260835243801L9.526980877267688,170.34079556983457A170.6070045455344,170.6070045455344,0,0,0,10.895124898609158,170.2587626333626Z" fill-rule="evenodd" style="fill: #D7A449; stroke: #fff; opacity: 1;" id="p-type-tokenTransfers"></path><path d="M11.000809948109833,196.69260835243801A197,197,0,0,1,9.420303318636051,196.77463730213023L8.158221985293673,170.4118347241138A170.6070045455344,170.6070045455344,0,0,0,9.526980877267688,170.34079556983457Z" fill-rule="evenodd" style="fill: #D7A449; stroke: #fff; opacity: 1;" id="p-type-tokenTransfers"></path><path d="M9.420303318636051,196.77463730213023A197,197,0,0,1,7.839188703491377,196.84396643146331L6.7889365622835305,170.47187551133848A170.6070045455344,170.6070045455344,0,0,0,8.158221985293673,170.4118347241138Z" fill-rule="evenodd" style="fill: #D7A449; stroke: #fff; opacity: 1;" id="p-type-tokenTransfers"></path><path d="M7.839188703491377,196.84396643146331A197,197,0,0,1,6.257568147694696,196.90059126594048L5.4192129818159405,170.52091405648082A170.6070045455344,170.6070045455344,0,0,0,6.7889365622835305,170.47187551133848Z" fill-rule="evenodd" style="fill: #D7A449; stroke: #fff; opacity: 1;" id="p-type-tokenTransfers"></path><path d="M6.257568147694696,196.90059126594048A197,197,0,0,1,4.67554372891826,196.94450815099916L4.049139645748236,170.55894719459673A170.6070045455344,170.6070045455344,0,0,0,5.4192129818159405,170.52091405648082Z" fill-rule="evenodd" style="fill: #D7A449; stroke: #fff; opacity: 1;" id="p-type-tokenTransfers"></path><path d="M4.67554372891826,196.94450815099916A197,197,0,0,1,3.0932175508996154,196.97571425224686L2.678804978510952,170.5859724710303A170.6070045455344,170.6070045455344,0,0,0,4.049139645748236,170.55894719459673Z" fill-rule="evenodd" style="fill: #D7A449; stroke: #fff; opacity: 1;" id="p-type-tokenTransfers"></path><path d="M3.0932175508996154,196.97571425224686A197,197,0,0,1,1.5106917368518222,196.99420755564415L1.3082974214009142,170.60198814157224A170.6070045455344,170.6070045455344,0,0,0,2.678804978510952,170.5859724710303Z" fill-rule="evenodd" style="fill: #D7A449; stroke: #fff; opacity: 1;" id="p-type-tokenTransfers"></path><path d="M1.5106917368518222,196.99420755564415A197,197,0,0,1,-0.0719315771275629,196.99998686763462L-0.06229457312674916,170.60699317257237A170.6070045455344,170.6070045455344,0,0,0,1.3082974214009142,170.60198814157224Z" fill-rule="evenodd" style="fill: #D7A449; stroke: #fff; opacity: 1;" id="p-type-tokenTransfers"></path><path d="M-0.0719315771275629,196.99998686763462A197,197,0,0,1,-1.6545502486483457,196.9930518152219L-1.432882547167327,170.60098724100638A170.6070045455344,170.6070045455344,0,0,0,-0.06229457312674916,170.60699317257237Z" fill-rule="evenodd" style="fill: #D7A449; stroke: #fff; opacity: 1;" id="p-type-tokenTransfers"></path><path d="M-1.6545502486483457,196.9930518152219A197,197,0,0,1,-3.2370621356199556,196.97340284599375L-2.8033780430755892,170.58397073449663A170.6070045455344,170.6070045455344,0,0,0,-1.432882547167327,170.60098724100638Z" fill-rule="evenodd" style="fill: #D7A449; stroke: #fff; opacity: 1;" id="p-type-tokenTransfers"></path><path d="M-3.2370621356199556,196.97340284599375A197,197,0,0,1,-4.819365102843689,196.94104122809318L-4.1736926091748385,170.55594475128717A170.6070045455344,170.6070045455344,0,0,0,-2.8033780430755892,170.58397073449663Z" fill-rule="evenodd" style="fill: #D7A449; stroke: #fff; opacity: 1;" id="p-type-tokenTransfers"></path><path d="M-4.819365102843689,196.94104122809318A197,197,0,0,1,-6.401357028604508,196.89596905013656L-5.5437378054655735,170.51691110017285A170.6070045455344,170.6070045455344,0,0,0,-4.1736926091748385,170.55594475128717Z" fill-rule="evenodd" style="fill: #D7A449; stroke: #fff; opacity: 1;" id="p-type-tokenTransfers"></path><path d="M-6.401357028604508,196.89596905013656A197,197,0,0,1,-7.982935811261965,196.83818922107892L-6.913425209333398,170.46687230038262A170.6070045455344,170.6070045455344,0,0,0,-5.5437378054655735,170.51691110017285Z" fill-rule="evenodd" style="fill: #D7A449; stroke: #fff; opacity: 1;" id="p-type-tokenTransfers"></path><path d="M-7.982935811261965,196.83818922107892A197,197,0,0,1,-9.56399937583984,196.76770547002607L-8.282666421255817,170.40583158141683A170.6070045455344,170.6070045455344,0,0,0,-6.913425209333398,170.46687230038262Z" fill-rule="evenodd" style="fill: #D7A449; stroke: #fff; opacity: 1;" id="p-type-tokenTransfers"></path><path d="M-9.56399937583984,196.76770547002607A197,197,0,0,1,-11.144445680614048,196.68452234599408L-9.651373070507525,170.33379288283896A170.6070045455344,170.6070045455344,0,0,0,-8.282666421255817,170.40583158141683Z" fill-rule="evenodd" style="fill: #D7A449; stroke: #fff; opacity: 1;" id="p-type-tokenTransfers"></path><path d="M-11.144445680614048,196.68452234599408A197,197,0,0,1,-12.724172723698405,196.58864521761546L-11.019456820863851,170.2507608540212A170.6070045455344,170.6070045455344,0,0,0,-9.651373070507525,170.33379288283896Z" fill-rule="evenodd" style="fill: #D7A449; stroke: #fff; opacity: 1;" id="p-type-tokenTransfers"></path><path d="M-12.724172723698405,196.58864521761546A197,197,0,0,1,-14.303078549627825,196.48008027279297L-12.38682937630198,170.15674085384447A170.6070045455344,170.6070045455344,0,0,0,-11.019456820863851,170.2507608540212Z" fill-rule="evenodd" style="fill: #D7A449; stroke: #fff; opacity: 1;" id="p-type-tokenTransfers"></path><path d="M-14.303078549627825,196.48008027279297A197,197,0,0,1,-15.881061255938514,196.3588345183L-13.753402486699555,170.05173895035253A170.6070045455344,170.6070045455344,0,0,0,-12.38682937630198,170.15674085384447Z" fill-rule="evenodd" style="fill: #D7A449; stroke: #fff; opacity: 1;" id="p-type-tokenTransfers"></path><path d="M-15.881061255938514,196.3588345183A197,197,0,0,1,-17.45801899974475,196.22491577932846L-15.119087953530347,169.9357619203604A170.6070045455344,170.6070045455344,0,0,0,-13.753402486699555,170.05173895035253Z" fill-rule="evenodd" style="fill: #D7A449; stroke: #fff; opacity: 1;" id="p-type-tokenTransfers"></path><path d="M-17.45801899974475,196.22491577932846A197,197,0,0,1,-19.033850004311805,196.07833269898373L-16.48379763555657,169.8088172490169A170.6070045455344,170.6070045455344,0,0,0,-15.119087953530347,169.9357619203604Z" fill-rule="evenodd" style="fill: #D7A449; stroke: #fff; opacity: 1;" id="p-type-tokenTransfers"></path><path d="M-19.033850004311805,196.07833269898373A197,197,0,0,1,-20.60845256562464,195.91909473772688L-17.847443454517528,169.6709131293216A170.6070045455344,170.6070045455344,0,0,0,-16.48379763555657,169.8088172490169Z" fill-rule="evenodd" style="fill: #D7A449; stroke: #fff; opacity: 1;" id="p-type-tokenTransfers"></path><path d="M-20.60845256562464,195.91909473772688A197,197,0,0,1,-22.181725058951823,195.74721217276394L-19.209937400814155,169.5220584615961A170.6070045455344,170.6070045455344,0,0,0,-17.847443454517528,169.6709131293216Z" fill-rule="evenodd" style="fill: #D7A449; stroke: #fff; opacity: 1;" id="p-type-tokenTransfers"></path><path d="M-22.181725058951823,195.74721217276394A197,197,0,0,1,-23.753565945404436,195.56269609738285L-20.571191539189165,169.36226285290942A170.6070045455344,170.6070045455344,0,0,0,-19.209937400814155,169.5220584615961Z" fill-rule="evenodd" style="fill: #D7A449; stroke: #fff; opacity: 1;" id="p-type-tokenTransfers"></path><path d="M-23.753565945404436,195.56269609738285A197,197,0,0,1,-25.32387377848934,195.36555842023725L-21.93111801440239,169.1915366164583A170.6070045455344,170.6070045455344,0,0,0,-20.571191539189165,169.36226285290942Z" fill-rule="evenodd" style="fill: #D7A449; stroke: #fff; opacity: 1;" id="p-type-tokenTransfers"></path><path d="M-25.32387377848934,195.36555842023725A197,197,0,0,1,-26.892547210656566,195.1558118645781L-23.28962905690093,169.0098907709012A170.6070045455344,170.6070045455344,0,0,0,-21.93111801440239,169.1915366164583Z" fill-rule="evenodd" style="fill: #D7A449; stroke: #fff; opacity: 1;" id="p-type-tokenTransfers"></path><path d="M-26.892547210656566,195.1558118645781A197,197,0,0,1,-28.45948499984024,194.93346996743242L-24.646636988483817,168.81733703964738A170.6070045455344,170.6070045455344,0,0,0,-23.28962905690093,169.0098907709012Z" fill-rule="evenodd" style="fill: #D7A449; stroke: #fff; opacity: 1;" id="p-type-tokenTransfers"></path><path d="M-28.45948499984024,194.93346996743242A197,197,0,0,1,-30.024586015992767,194.6985470787295L-26.002054227960745,168.61388785010024A170.6070045455344,170.6070045455344,0,0,0,-24.646636988483817,168.81733703964738Z" fill-rule="evenodd" style="fill: #D7A449; stroke: #fff; opacity: 1;" id="p-type-tokenTransfers"></path><path d="M-30.024586015992767,194.6985470787295A197,197,0,0,1,-31.587749247611736,194.4510583603751L-27.35579329680455,168.3995563328553A170.6070045455344,170.6070045455344,0,0,0,-26.002054227960745,168.61388785010024Z" fill-rule="evenodd" style="fill: #D7A449; stroke: #fff; opacity: 1;" id="p-type-tokenTransfers"></path><path d="M-31.587749247611736,194.4510583603751A197,197,0,0,1,-33.14887380825922,194.19101978527254L-28.70776682479709,168.17435632085255A170.6070045455344,170.6070045455344,0,0,0,-27.35579329680455,168.3995563328553Z" fill-rule="evenodd" style="fill: #D7A449; stroke: #fff; opacity: 1;" id="p-type-tokenTransfers"></path><path d="M-33.14887380825922,194.19101978527254A197,197,0,0,1,-34.70785894307295,193.91844813629194L-30.05788755566809,167.93830234848394A170.6070045455344,170.6070045455344,0,0,0,-28.70776682479709,168.17435632085255Z" fill-rule="evenodd" style="fill: #D7A449; stroke: #fff; opacity: 1;" id="p-type-tokenTransfers"></path><path d="M-34.70785894307295,193.91844813629194A197,197,0,0,1,-36.264604035269045,193.63336100518717L-31.406068352726656,167.6914096506552A170.6070045455344,170.6070045455344,0,0,0,-30.05788755566809,167.93830234848394Z" fill-rule="evenodd" style="fill: #D7A449; stroke: #fff; opacity: 1;" id="p-type-tokenTransfers"></path><path d="M-36.264604035269045,193.63336100518717A197,197,0,0,1,-37.819008612635805,193.33577679146035L-32.752222204485086,167.43369416180255A170.6070045455344,170.6070045455344,0,0,0,-31.406068352726656,167.6914096506552Z" fill-rule="evenodd" style="fill: #D7A449; stroke: #fff; opacity: 1;" id="p-type-tokenTransfers"></path><path d="M-37.819008612635805,193.33577679146035A197,197,0,0,1,-39.3709723540182,193.0257147011743L-34.09626223027458,167.16517251486434A170.6070045455344,170.6070045455344,0,0,0,-32.752222204485086,167.43369416180255Z" fill-rule="evenodd" style="fill: #D7A449; stroke: #fff; opacity: 1;" id="p-type-tokenTransfers"></path><path d="M-39.3709723540182,193.0257147011743A197,197,0,0,1,-40.920395095792536,192.70319474571312L-35.438101685852494,166.8858620402075A170.6070045455344,170.6070045455344,0,0,0,-34.09626223027458,167.16517251486434Z" fill-rule="evenodd" style="fill: #D7A449; stroke: #fff; opacity: 1;" id="p-type-tokenTransfers"></path><path d="M-40.920395095792536,192.70319474571312A197,197,0,0,1,-42.46717683833107,192.3682377404906L-36.77765396900082,166.59578076450927A170.6070045455344,170.6070045455344,0,0,0,-35.438101685852494,166.8858620402075Z" fill-rule="evenodd" style="fill: #D7A449; stroke: #fff; opacity: 1;" id="p-type-tokenTransfers"></path><path d="M-42.46717683833107,192.3682377404906A197,197,0,0,1,-44.01121775245594,192.0208653036068L-38.11483262511551,166.2949474095934A170.6070045455344,170.6070045455344,0,0,0,-36.77765396900082,166.59578076450927Z" fill-rule="evenodd" style="fill: #D7A449; stroke: #fff; opacity: 1;" id="p-type-tokenTransfers"></path><path d="M-44.01121775245594,192.0208653036068A197,197,0,0,1,-45.55241818588216,191.66109985445274L-39.4495513527862,165.98338139122205A170.6070045455344,170.6070045455344,0,0,0,-38.11483262511551,166.2949474095934Z" fill-rule="evenodd" style="fill: #D7A449; stroke: #fff; opacity: 1;" id="p-type-tokenTransfers"></path><path d="M-45.55241818588216,191.66109985445274A197,197,0,0,1,-47.090678669649144,191.28896461226364L-40.78172400936615,165.66110281784282A170.6070045455344,170.6070045455344,0,0,0,-39.4495513527862,165.98338139122205Z" fill-rule="evenodd" style="fill: #D7A449; stroke: #fff; opacity: 1;" id="p-type-tokenTransfers"></path><path d="M-47.090678669649144,191.28896461226364A197,197,0,0,1,-48.62589992454042,190.9044835946201L-42.11126461653182,165.32813248929062A170.6070045455344,170.6070045455344,0,0,0,-40.78172400936615,165.66110281784282Z" fill-rule="evenodd" style="fill: #D7A449; stroke: #fff; opacity: 1;" id="p-type-tokenTransfers"></path><path d="M-141.8659044671555,136.68600934154125A197,197,0,0,1,-152.38479097989168,124.85141360038631L-131.96910013896797,108.1244958763325A170.6070045455344,170.6070045455344,0,0,0,-122.85947719941295,118.37355643169181Z" fill-rule="evenodd" style="fill: #414552; stroke: #fff; opacity: 1;" id="p-type-ether"></path><path d="M-152.38479097989168,124.85141360038631A197,197,0,0,1,-154.68906558162718,121.98480638785738L-133.96466048136617,105.64194120761076A170.6070045455344,170.6070045455344,0,0,0,-131.96910013896797,108.1244958763325Z" fill-rule="evenodd" style="fill: #414552; stroke: #fff; opacity: 1;" id="p-type-ether"></path><path d="M-154.68906558162718,121.98480638785738A197,197,0,0,1,-155.57660147783253,120.8508215636438L-134.7332891142506,104.65988154233577A170.6070045455344,170.6070045455344,0,0,0,-133.96466048136617,105.64194120761076Z" fill-rule="evenodd" style="fill: #414552; stroke: #fff; opacity: 1;" id="p-type-ether"></path></g></svg>