<svg xmlns="http://www.w3.org/2000/svg" width="400" height="400" id="block-7824914"><g id="burst-container" transform="translate(200,200)"><circle r="197" style="fill: #f9f9f9; stroke: #f9f9f9; stroke-width: 3; opacity: 1;" id="circle-base"></circle><path display="none" d="M6.031385485800715e-15,-98.5A98.5,98.5,0,1,1,-6.031385485800715e-15,98.5A98.5,98.5,0,1,1,6.031385485800715e-15,-98.5Z" fill-rule="evenodd" id="p-type-root" style="stroke: #fff; opacity: 1;"></path><path d="M8.529667153919608e-15,-139.30003589374985A139.30003589374985,139.30003589374985,0,1,1,-77.02753325126902,-116.06575343840508L-54.466691100044606,-82.07088131982209A98.5,98.5,0,1,0,6.031385485800715e-15,-98.5Z" fill-rule="evenodd" style="fill: #0B1F65; stroke: #fff; opacity: 1;" id="p-type-data"></path><path d="M-77.02753325126902,-116.06575343840508A139.30003589374985,139.30003589374985,0,0,1,-2.4731388166962343,-139.27808005710497L-1.748773228101581,-98.48447487902179A98.5,98.5,0,0,0,-54.466691100044606,-82.07088131982209Z" fill-rule="evenodd" style="fill: #D7A449; stroke: #fff; opacity: 1;" id="p-type-value"></path><path d="M1.0446666101440332e-14,-170.6070045455344A170.6070045455344,170.6070045455344,0,0,1,163.4383959496932,48.9350664594554L133.44689148523636,39.955314451616374A139.30003589374985,139.30003589374985,0,0,0,8.529667153919608e-15,-139.30003589374985Z" fill-rule="evenodd" style="fill: #414552; stroke: #fff; opacity: 1;" id="p-type-ether"></path><path d="M163.4383959496932,48.9350664594554A170.6070045455344,170.6070045455344,0,0,1,7.807761973362295,170.42825133459334L6.375010955947829,139.15408450818663A139.30003589374985,139.30003589374985,0,0,0,133.44689148523636,39.955314451616374Z" fill-rule="evenodd" style="fill: #DB3F29; stroke: #fff; opacity: 1;" id="p-type-functions"></path><path d="M7.807761973362295,170.42825133459334A170.6070045455344,170.6070045455344,0,0,1,-148.4134200250747,84.14396446840826L-121.179050014264,68.7032592941594A139.30003589374985,139.30003589374985,0,0,0,6.375010955947829,139.15408450818663Z" fill-rule="evenodd" style="fill: #1DC690; stroke: #fff; opacity: 1;" id="p-type-logs"></path><path d="M-148.4134200250747,84.14396446840826A170.6070045455344,170.6070045455344,0,0,1,-165.0068530980101,-43.353067142841326L-134.7275313841688,-35.39763109486008A139.30003589374985,139.30003589374985,0,0,0,-121.179050014264,68.7032592941594Z" fill-rule="evenodd" style="fill: #D7A449; stroke: #fff; opacity: 1;" id="p-type-tokenTransfers"></path><path d="M-94.33907630543683,-142.15093626788732A170.6070045455344,170.6070045455344,0,0,1,-33.10893088539297,-167.36352259565484L-27.03332886609575,-136.65174397137238A139.30003589374985,139.30003589374985,0,0,0,-77.02753325126902,-116.06575343840508Z" fill-rule="evenodd" style="fill: #D7A449; stroke: #fff; opacity: 1;" id="p-type-tokenTransfers"></path><path d="M-33.10893088539297,-167.36352259565484A170.6070045455344,170.6070045455344,0,0,1,-6.056973340954768,-170.49945182887527L-4.945498023659953,-139.2122194683282A139.30003589374985,139.30003589374985,0,0,0,-27.03332886609575,-136.65174397137238Z" fill-rule="evenodd" style="fill: #414552; stroke: #fff; opacity: 1;" id="p-type-ether"></path><path d="M1.206277097160143e-14,-197A197,197,0,0,1,196.16770975126914,18.08949006859569L169.88622004681142,15.665957940910177A170.6070045455344,170.6070045455344,0,0,0,1.0446666101440332e-14,-170.6070045455344Z" fill-rule="evenodd" style="fill: #414552; stroke: #fff; opacity: 1;" id="p-type-ether"></path><path d="M196.16770975126914,18.08949006859569A197,197,0,0,1,195.83466027351912,21.395930350310802L169.59779073836276,18.529419220971636A170.6070045455344,170.6070045455344,0,0,0,169.88622004681142,15.665957940910177Z" fill-rule="evenodd" style="fill: #414552; stroke: #fff; opacity: 1;" id="p-type-ether"></path><path d="M195.83466027351912,21.395930350310802A197,197,0,0,1,195.53458993212737,23.9838308048316L169.33792219979526,20.770606757051944A170.6070045455344,170.6070045455344,0,0,0,169.59779073836276,18.529419220971636Z" fill-rule="evenodd" style="fill: #414552; stroke: #fff; opacity: 1;" id="p-type-ether"></path><path d="M195.53458993212737,23.9838308048316A197,197,0,0,1,195.36324286890087,25.341731111880414L169.18953129017723,21.946582918762907A170.6070045455344,170.6070045455344,0,0,0,169.33792219979526,20.770606757051944Z" fill-rule="evenodd" style="fill: #414552; stroke: #fff; opacity: 1;" id="p-type-ether"></path><path d="M188.722403794952,56.50534758635761A197,197,0,0,1,188.21334830781132,58.178479859502104L162.99754096589348,50.38404151189014A170.6070045455344,170.6070045455344,0,0,0,163.4383959496932,48.9350664594554Z" fill-rule="evenodd" style="fill: #DB3F29; stroke: #fff; opacity: 1;" id="p-type-functions"></path><path d="M188.21334830781132,58.178479859502104A197,197,0,0,1,187.68945986344127,59.8470271289198L162.54384026431993,51.82904583462102A170.6070045455344,170.6070045455344,0,0,0,162.99754096589348,50.38404151189014Z" fill-rule="evenodd" style="fill: #DB3F29; stroke: #fff; opacity: 1;" id="p-type-functions"></path><path d="M187.68945986344127,59.8470271289198A197,197,0,0,1,187.15077974910952,61.51085789761269L162.0773296007951,53.26996554790725A170.6070045455344,170.6070045455344,0,0,0,162.54384026431993,51.82904583462102Z" fill-rule="evenodd" style="fill: #DB3F29; stroke: #fff; opacity: 1;" id="p-type-functions"></path><path d="M187.15077974910952,61.51085789761269A197,197,0,0,1,186.59735041780442,63.1698410402868L161.59804574068545,54.706687093913175A170.6070045455344,170.6070045455344,0,0,0,162.0773296007951,53.26996554790725Z" fill-rule="evenodd" style="fill: #DB3F29; stroke: #fff; opacity: 1;" id="p-type-functions"></path><path d="M186.59735041780442,63.1698410402868A197,197,0,0,1,186.0292154848895,64.82384581368603L161.10602645600378,56.139097245657645A170.6070045455344,170.6070045455344,0,0,0,161.59804574068545,54.706687093913175Z" fill-rule="evenodd" style="fill: #DB3F29; stroke: #fff; opacity: 1;" id="p-type-functions"></path><path d="M186.0292154848895,64.82384581368603A197,197,0,0,1,185.44641972466607,66.47274186689596L160.6013105224324,57.567083115937336A170.6070045455344,170.6070045455344,0,0,0,161.10602645600378,56.139097245657645Z" fill-rule="evenodd" style="fill: #DB3F29; stroke: #fff; opacity: 1;" id="p-type-functions"></path><path d="M185.44641972466607,66.47274186689596A197,197,0,0,1,184.84900906684447,68.11639925161664L160.08393771626734,58.99053216622334A170.6070045455344,170.6070045455344,0,0,0,160.6013105224324,57.567083115937336Z" fill-rule="evenodd" style="fill: #DB3F29; stroke: #fff; opacity: 1;" id="p-type-functions"></path><path d="M184.84900906684447,68.11639925161664A197,197,0,0,1,184.23703059292467,69.75468843240387L159.55394881128356,60.40933221553026A170.6070045455344,170.6070045455344,0,0,0,160.08393771626734,58.99053216622334Z" fill-rule="evenodd" style="fill: #DB3F29; stroke: #fff; opacity: 1;" id="p-type-functions"></path><path d="M184.23703059292467,69.75468843240387A197,197,0,0,1,183.61053253248548,71.3874802968776L159.01138557552156,61.823371449257074A170.6070045455344,170.6070045455344,0,0,0,159.55394881128356,60.40933221553026Z" fill-rule="evenodd" style="fill: #DB3F29; stroke: #fff; opacity: 1;" id="p-type-functions"></path><path d="M183.61053253248548,71.3874802968776A197,197,0,0,1,182.9695642593839,73.01464616589736L158.45629076799574,63.232538427999174A170.6070045455344,170.6070045455344,0,0,0,159.01138557552156,61.823371449257074Z" fill-rule="evenodd" style="fill: #DB3F29; stroke: #fff; opacity: 1;" id="p-type-functions"></path><path d="M182.9695642593839,73.01464616589736A197,197,0,0,1,182.31417628786377,74.63605780370325L157.88870813532455,64.63672209633081A170.6070045455344,170.6070045455344,0,0,0,158.45629076799574,63.232538427999174Z" fill-rule="evenodd" style="fill: #DB3F29; stroke: #fff; opacity: 1;" id="p-type-functions"></path><path d="M182.31417628786377,74.63605780370325A197,197,0,0,1,181.64442026857498,76.2515874280222L157.3086824082829,66.03581179155735A170.6070045455344,170.6070045455344,0,0,0,157.88870813532455,64.63672209633081Z" fill-rule="evenodd" style="fill: #DB3F29; stroke: #fff; opacity: 1;" id="p-type-functions"></path><path d="M181.64442026857498,76.2515874280222A197,197,0,0,1,180.96034898450273,77.86110772013829L156.7162592982769,67.42969725243644A170.6070045455344,170.6070045455344,0,0,0,157.3086824082829,66.03581179155735Z" fill-rule="evenodd" style="fill: #DB3F29; stroke: #fff; opacity: 1;" id="p-type-functions"></path><path d="M180.96034898450273,77.86110772013829A197,197,0,0,1,180.26201634680797,79.46449183492673L156.11148549374144,68.81826862786765A170.6070045455344,170.6070045455344,0,0,0,156.7162592982769,67.42969725243644Z" fill-rule="evenodd" style="fill: #DB3F29; stroke: #fff; opacity: 1;" id="p-type-functions"></path><path d="M180.26201634680797,79.46449183492673A197,197,0,0,1,179.54947739057843,81.06161341085044L155.49440865646062,70.20141648554981A170.6070045455344,170.6070045455344,0,0,0,156.11148549374144,68.81826862786765Z" fill-rule="evenodd" style="fill: #DB3F29; stroke: #fff; opacity: 1;" id="p-type-functions"></path><path d="M179.54947739057843,81.06161341085044A197,197,0,0,1,178.82278827049154,82.65234657991846L154.8650774178116,71.57903182060524A170.6070045455344,170.6070045455344,0,0,0,155.49440865646062,70.20141648554981Z" fill-rule="evenodd" style="fill: #DB3F29; stroke: #fff; opacity: 1;" id="p-type-functions"></path><path d="M178.82278827049154,82.65234657991846A197,197,0,0,1,178.0820062563889,84.23656597760544L154.2235413749321,72.95100606417024A170.6070045455344,170.6070045455344,0,0,0,154.8650774178116,71.57903182060524Z" fill-rule="evenodd" style="fill: #DB3F29; stroke: #fff; opacity: 1;" id="p-type-functions"></path><path d="M178.0820062563889,84.23656597760544A197,197,0,0,1,177.32718972876276,85.81414675273173L153.56985108681152,74.31723109195157A170.6070045455344,170.6070045455344,0,0,0,154.2235413749321,72.95100606417024Z" fill-rule="evenodd" style="fill: #DB3F29; stroke: #fff; opacity: 1;" id="p-type-functions"></path><path d="M177.32718972876276,85.81414675273173A197,197,0,0,1,176.55839817415526,87.38496457730271L152.90405807030652,75.67759923274744A170.6070045455344,170.6070045455344,0,0,0,153.56985108681152,74.31723109195157Z" fill-rule="evenodd" style="fill: #DB3F29; stroke: #fff; opacity: 1;" id="p-type-functions"></path><path d="M176.55839817415526,87.38496457730271A197,197,0,0,1,175.77569218047023,88.9488956563069L152.2262147960809,77.03200327693308A170.6070045455344,170.6070045455344,0,0,0,152.90405807030652,75.67759923274744Z" fill-rule="evenodd" style="fill: #DB3F29; stroke: #fff; opacity: 1;" id="p-type-functions"></path><path d="M175.77569218047023,88.9488956563069A197,197,0,0,1,174.97913343219835,90.5058167374723L151.53637468447076,78.38033648490986A170.6070045455344,170.6070045455344,0,0,0,152.2262147960809,77.03200327693308Z" fill-rule="evenodd" style="fill: #DB3F29; stroke: #fff; opacity: 1;" id="p-type-functions"></path><path d="M174.97913343219835,90.5058167374723A197,197,0,0,1,174.16878470555582,92.0556051209797L150.83459210127396,79.72249259551728A170.6070045455344,170.6070045455344,0,0,0,151.53637468447076,78.38033648490986Z" fill-rule="evenodd" style="fill: #DB3F29; stroke: #fff; opacity: 1;" id="p-type-functions"></path><path d="M174.16878470555582,92.0556051209797A197,197,0,0,1,173.344709863537,93.59813866913264L150.12092235346597,81.05836583440748A170.6070045455344,170.6070045455344,0,0,0,150.83459210127396,79.72249259551728Z" fill-rule="evenodd" style="fill: #DB3F29; stroke: #fff; opacity: 1;" id="p-type-functions"></path><path d="M173.344709863537,93.59813866913264A197,197,0,0,1,172.5069738508814,95.13329581598296L149.39542168484115,82.38785092238109A170.6070045455344,170.6070045455344,0,0,0,150.12092235346597,81.05836583440748Z" fill-rule="evenodd" style="fill: #DB3F29; stroke: #fff; opacity: 1;" id="p-type-functions"></path><path d="M172.5069738508814,95.13329581598296A197,197,0,0,1,171.65564268895554,96.6609555769113L148.65814727158005,83.7108430836843A170.6070045455344,170.6070045455344,0,0,0,149.39542168484115,82.38785092238109Z" fill-rule="evenodd" style="fill: #DB3F29; stroke: #fff; opacity: 1;" id="p-type-functions"></path><path d="M171.65564268895554,96.6609555769113A197,197,0,0,1,170.79078347054974,98.18099755816189L147.90915721774346,85.02723805426614A170.6070045455344,170.6070045455344,0,0,0,148.65814727158005,83.7108430836843Z" fill-rule="evenodd" style="fill: #DB3F29; stroke: #fff; opacity: 1;" id="p-type-functions"></path><path d="M170.79078347054974,98.18099755816189A197,197,0,0,1,169.9124643545906,99.69330196633058L147.14851055069337,86.33693208999541A170.6070045455344,170.6070045455344,0,0,0,147.90915721774346,85.02723805426614Z" fill-rule="evenodd" style="fill: #DB3F29; stroke: #fff; opacity: 1;" id="p-type-functions"></path><path d="M169.9124643545906,99.69330196633058A197,197,0,0,1,169.02075456076952,101.19774961780577L146.3762672164409,87.63982197483676A170.6070045455344,170.6070045455344,0,0,0,147.14851055069337,86.33693208999541Z" fill-rule="evenodd" style="fill: #DB3F29; stroke: #fff; opacity: 1;" id="p-type-functions"></path><path d="M169.02075456076952,101.19774961780577A197,197,0,0,1,168.1157243640874,102.69422194816116L145.5924880749222,88.93580502898503A170.6070045455344,170.6070045455344,0,0,0,146.3762672164409,87.63982197483676Z" fill-rule="evenodd" style="fill: #DB3F29; stroke: #fff; opacity: 1;" id="p-type-functions"></path><path d="M168.1157243640874,102.69422194816116A197,197,0,0,1,167.19744508931655,104.18260102149964L144.79723489520185,90.2247791169573A170.6070045455344,170.6070045455344,0,0,0,145.5924880749222,88.93580502898503Z" fill-rule="evenodd" style="fill: #DB3F29; stroke: #fff; opacity: 1;" id="p-type-functions"></path><path d="M167.19744508931655,104.18260102149964A197,197,0,0,1,166.26598910537933,105.6627695397479L143.99057035060522,91.50664265564225A170.6070045455344,170.6070045455344,0,0,0,144.79723489520185,90.2247791169573Z" fill-rule="evenodd" style="fill: #DB3F29; stroke: #fff; opacity: 1;" id="p-type-functions"></path><path d="M166.26598910537933,105.6627695397479A197,197,0,0,1,165.32142981964515,107.13461085190046L143.1725580137789,92.7812946223058A170.6070045455344,170.6070045455344,0,0,0,143.99057035060522,91.50664265564225Z" fill-rule="evenodd" style="fill: #DB3F29; stroke: #fff; opacity: 1;" id="p-type-functions"></path><path d="M165.32142981964515,107.13461085190046A197,197,0,0,1,164.36384167214493,108.59800896321289L142.34326235168086,94.04863456255252A170.6070045455344,170.6070045455344,0,0,0,143.1725580137789,92.7812946223058Z" fill-rule="evenodd" style="fill: #DB3F29; stroke: #fff; opacity: 1;" id="p-type-functions"></path><path d="M164.36384167214493,108.59800896321289A197,197,0,0,1,163.3933001297049,110.05284854434333L141.50274872049965,95.3085625982426A170.6070045455344,170.6070045455344,0,0,0,142.34326235168086,94.04863456255252Z" fill-rule="evenodd" style="fill: #DB3F29; stroke: #fff; opacity: 1;" id="p-type-functions"></path><path d="M163.3933001297049,110.05284854434333A197,197,0,0,1,162.40988167999882,111.49901494044146L140.6510833605039,96.56097943536297A170.6070045455344,170.6070045455344,0,0,0,141.50274872049965,95.3085625982426Z" fill-rule="evenodd" style="fill: #DB3F29; stroke: #fff; opacity: 1;" id="p-type-functions"></path><path d="M162.40988167999882,111.49901494044146A197,197,0,0,1,161.4136638255202,112.93639418018427L139.78833339082175,97.8057863718526A170.6070045455344,170.6070045455344,0,0,0,140.6510833605039,96.56097943536297Z" fill-rule="evenodd" style="fill: #DB3F29; stroke: #fff; opacity: 1;" id="p-type-functions"></path><path d="M161.4136638255202,112.93639418018427A197,197,0,0,1,160.40472507747427,114.36487298475829L138.91456680415152,99.04288530538133A170.6070045455344,170.6070045455344,0,0,0,139.78833339082175,97.8057863718526Z" fill-rule="evenodd" style="fill: #DB3F29; stroke: #fff; opacity: 1;" id="p-type-functions"></path><path d="M160.40472507747427,114.36487298475829A197,197,0,0,1,159.38314494959076,115.78433877678683L138.02985246140307,100.27217874108104A170.6070045455344,170.6070045455344,0,0,0,138.91456680415152,99.04288530538133Z" fill-rule="evenodd" style="fill: #DB3F29; stroke: #fff; opacity: 1;" id="p-type-functions"></path><path d="M159.38314494959076,115.78433877678683A197,197,0,0,1,158.34900395185727,117.19467968920215L137.13426008627087,101.49356979922923A170.6070045455344,170.6070045455344,0,0,0,138.02985246140307,100.27217874108104Z" fill-rule="evenodd" style="fill: #DB3F29; stroke: #fff; opacity: 1;" id="p-type-functions"></path><path d="M158.34900395185727,117.19467968920215A197,197,0,0,1,157.30238358417446,118.59578457406164L136.22786025973934,102.70696222288403A170.6070045455344,170.6070045455344,0,0,0,137.13426008627087,101.49356979922923Z" fill-rule="evenodd" style="fill: #DB3F29; stroke: #fff; opacity: 1;" id="p-type-functions"></path><path d="M157.30238358417446,118.59578457406164A197,197,0,0,1,156.24336632993308,119.98754301130738L135.31072441452025,103.91226038547018A170.6070045455344,170.6070045455344,0,0,0,136.22786025973934,102.70696222288403Z" fill-rule="evenodd" style="fill: #DB3F29; stroke: #fff; opacity: 1;" id="p-type-functions"></path><path d="M156.24336632993308,119.98754301130738A197,197,0,0,1,155.17203564951342,121.3698453174681L134.38292482942316,105.10936929831517A170.6070045455344,170.6070045455344,0,0,0,135.31072441452025,103.91226038547018Z" fill-rule="evenodd" style="fill: #DB3F29; stroke: #fff; opacity: 1;" id="p-type-functions"></path><path d="M155.17203564951342,121.3698453174681A197,197,0,0,1,154.08847597370806,122.74258255430341L133.4445346236593,106.29819461813541A170.6070045455344,170.6070045455344,0,0,0,134.38292482942316,105.10936929831517Z" fill-rule="evenodd" style="fill: #DB3F29; stroke: #fff; opacity: 1;" id="p-type-functions"></path><path d="M154.08847597370806,122.74258255430341A197,197,0,0,1,152.99277269706775,124.1056465373891L132.49562775107893,107.47864265447122A170.6070045455344,170.6070045455344,0,0,0,133.4445346236593,106.29819461813541Z" fill-rule="evenodd" style="fill: #DB3F29; stroke: #fff; opacity: 1;" id="p-type-functions"></path><path d="M152.99277269706775,124.1056465373891A197,197,0,0,1,151.88501217117164,125.45892984464298L131.5362789943433,108.6506203770705A170.6070045455344,170.6070045455344,0,0,0,132.49562775107893,107.47864265447122Z" fill-rule="evenodd" style="fill: #DB3F29; stroke: #fff; opacity: 1;" id="p-type-functions"></path><path d="M151.88501217117164,125.45892984464298A197,197,0,0,1,150.76528169782185,126.80232582479088L130.5665639590308,109.81403542322047A170.6070045455344,170.6070045455344,0,0,0,131.5362789943433,108.6506203770705Z" fill-rule="evenodd" style="fill: #DB3F29; stroke: #fff; opacity: 1;" id="p-type-functions"></path><path d="M150.76528169782185,126.80232582479088A197,197,0,0,1,149.63366952216344,128.13572860577167L129.58655906767885,110.96879610502667A170.6070045455344,170.6070045455344,0,0,0,130.5665639590308,109.81403542322047Z" fill-rule="evenodd" style="fill: #DB3F29; stroke: #fff; opacity: 1;" id="p-type-functions"></path><path d="M149.63366952216344,128.13572860577167A197,197,0,0,1,148.4902648257298,129.45903310308105L128.59634155376088,112.11481141663877A170.6070045455344,170.6070045455344,0,0,0,129.58655906767885,110.96879610502667Z" fill-rule="evenodd" style="fill: #DB3F29; stroke: #fff; opacity: 1;" id="p-type-functions"></path><path d="M148.4902648257298,129.45903310308105A197,197,0,0,1,147.33515771941427,130.772135028053L127.59598945559969,113.25199104142273A170.6070045455344,170.6070045455344,0,0,0,128.59634155376088,112.11481141663877Z" fill-rule="evenodd" style="fill: #DB3F29; stroke: #fff; opacity: 1;" id="p-type-functions"></path><path d="M147.33515771941427,130.772135028053A197,197,0,0,1,146.1684392363686,132.07493089607888L126.5855816102173,114.38024535907854A170.6070045455344,170.6070045455344,0,0,0,127.59598945559969,113.25199104142273Z" fill-rule="evenodd" style="fill: #DB3F29; stroke: #fff; opacity: 1;" id="p-type-functions"></path><path d="M146.1684392363686,132.07493089607888A197,197,0,0,1,144.99020132482883,133.36731803476297L125.56519764712192,115.49948545270324A170.6070045455344,170.6070045455344,0,0,0,126.5855816102173,114.38024535907854Z" fill-rule="evenodd" style="fill: #DB3F29; stroke: #fff; opacity: 1;" id="p-type-functions"></path><path d="M144.99020132482883,133.36731803476297A197,197,0,0,1,143.80053684086857,134.64919459201383L124.53491798203224,116.60962311579821A170.6070045455344,170.6070045455344,0,0,0,125.56519764712192,115.49948545270324Z" fill-rule="evenodd" style="fill: #DB3F29; stroke: #fff; opacity: 1;" id="p-type-functions"></path><path d="M143.80053684086857,134.64919459201383A197,197,0,0,1,142.5995395410815,135.92045954407132L123.49482381054013,117.71057085922082A170.6070045455344,170.6070045455344,0,0,0,124.53491798203224,116.60962311579821Z" fill-rule="evenodd" style="fill: #DB3F29; stroke: #fff; opacity: 1;" id="p-type-functions"></path><path d="M142.5995395410815,135.92045954407132A197,197,0,0,1,141.38730407519216,137.18101270346833L122.44499710171151,118.80224191807937A170.6070045455344,170.6070045455344,0,0,0,123.49482381054013,117.71057085922082Z" fill-rule="evenodd" style="fill: #DB3F29; stroke: #fff; opacity: 1;" id="p-type-functions"></path><path d="M141.38730407519216,137.18101270346833A197,197,0,0,1,140.1639259785969,138.43075472692624L121.38552059162654,119.88455025857087A170.6070045455344,170.6070045455344,0,0,0,122.44499710171151,118.80224191807937Z" fill-rule="evenodd" style="fill: #DB3F29; stroke: #fff; opacity: 1;" id="p-type-functions"></path><path d="M140.1639259785969,138.43075472692624A197,197,0,0,1,138.9295016648346,139.66958712318413L120.3164777768592,120.95741058476138A170.6070045455344,170.6070045455344,0,0,0,121.38552059162654,119.88455025857087Z" fill-rule="evenodd" style="fill: #DB3F29; stroke: #fff; opacity: 1;" id="p-type-functions"></path><path d="M138.9295016648346,139.66958712318413A197,197,0,0,1,137.6841284179885,140.89741226076103L119.237952907897,122.02073834530808A170.6070045455344,170.6070045455344,0,0,0,120.3164777768592,120.95741058476138Z" fill-rule="evenodd" style="fill: #DB3F29; stroke: #fff; opacity: 1;" id="p-type-functions"></path><path d="M137.6841284179885,140.89741226076103A197,197,0,0,1,136.42790438501936,142.1141333756499L118.15003098250118,123.07444974012279A170.6070045455344,170.6070045455344,0,0,0,119.237952907897,122.02073834530808Z" fill-rule="evenodd" style="fill: #DB3F29; stroke: #fff; opacity: 1;" id="p-type-functions"></path><path d="M136.42790438501936,142.1141333756499A197,197,0,0,1,135.1609285680305,143.31965457894378L117.05279773900828,124.11846172697605A170.6070045455344,170.6070045455344,0,0,0,118.15003098250118,123.07444974012279Z" fill-rule="evenodd" style="fill: #DB3F29; stroke: #fff; opacity: 1;" id="p-type-functions"></path><path d="M135.1609285680305,143.31965457894378A197,197,0,0,1,133.88330081646546,144.51388086439246L115.94633964957296,125.15269202804174A170.6070045455344,170.6070045455344,0,0,0,117.05279773900828,124.11846172697605Z" fill-rule="evenodd" style="fill: #DB3F29; stroke: #fff; opacity: 1;" id="p-type-functions"></path><path d="M133.88330081646546,144.51388086439246A197,197,0,0,1,132.5951218192391,145.69671811589012L114.83074391335337,126.17705913638127A170.6070045455344,170.6070045455344,0,0,0,115.94633964957296,125.15269202804174Z" fill-rule="evenodd" style="fill: #DB3F29; stroke: #fff; opacity: 1;" id="p-type-functions"></path><path d="M132.5951218192391,145.69671811589012A197,197,0,0,1,131.29649309680218,146.86807311489238L113.70609844963887,127.19148232236712A170.6070045455344,170.6070045455344,0,0,0,114.83074391335337,126.17705913638127Z" fill-rule="evenodd" style="fill: #DB3F29; stroke: #fff; opacity: 1;" id="p-type-functions"></path><path d="M131.29649309680218,146.86807311489238A197,197,0,0,1,129.98751699314084,148.02785354776285L112.57249189092137,128.19588164004506A170.6070045455344,170.6070045455344,0,0,0,113.70609844963887,127.19148232236712Z" fill-rule="evenodd" style="fill: #DB3F29; stroke: #fff; opacity: 1;" id="p-type-functions"></path><path d="M129.98751699314084,148.02785354776285A197,197,0,0,1,128.66829666771065,149.17596801304825L111.43001357591005,129.19017793343463A170.6070045455344,170.6070045455344,0,0,0,112.57249189092137,128.19588164004506Z" fill-rule="evenodd" style="fill: #DB3F29; stroke: #fff; opacity: 1;" id="p-type-functions"></path><path d="M128.66829666771065,149.17596801304825A197,197,0,0,1,127.62878935080057,150.0662924472014L110.52977383204613,129.96122151102122A170.6070045455344,170.6070045455344,0,0,0,111.43001357591005,129.19017793343463Z" fill-rule="evenodd" style="fill: #DB3F29; stroke: #fff; opacity: 1;" id="p-type-functions"></path><path d="M9.01562695417849,196.79359357108933A197,197,0,0,1,7.268261902585296,196.8658740587495L6.294499448997483,170.49084807310498A170.6070045455344,170.6070045455344,0,0,0,7.807761973362295,170.42825133459334Z" fill-rule="evenodd" style="fill: #1DC690; stroke: #fff; opacity: 1;" id="p-type-logs"></path><path d="M7.268261902585296,196.8658740587495A197,197,0,0,1,5.520324044552484,196.9226396899126L4.78074085970451,170.54000855175406A170.6070045455344,170.6070045455344,0,0,0,6.294499448997483,170.49084807310498Z" fill-rule="evenodd" style="fill: #1DC690; stroke: #fff; opacity: 1;" id="p-type-logs"></path><path d="M5.520324044552484,196.9226396899126A197,197,0,0,1,3.7719511337926384,196.96388599092037L3.2666055036979404,170.57572889623896A170.6070045455344,170.6070045455344,0,0,0,4.78074085970451,170.54000855175406Z" fill-rule="evenodd" style="fill: #1DC690; stroke: #fff; opacity: 1;" id="p-type-logs"></path><path d="M3.7719511337926384,196.96388599092037A197,197,0,0,1,2.0232809583045364,196.98960971118188L1.752212708885052,170.59800629146525A170.6070045455344,170.6070045455344,0,0,0,3.2666055036979404,170.57572889623896Z" fill-rule="evenodd" style="fill: #1DC690; stroke: #fff; opacity: 1;" id="p-type-logs"></path><path d="M2.0232809583045364,196.98960971118188A197,197,0,0,1,0.2744513295141725,196.9998088234294L0.23768182346168726,170.60683898176765A170.6070045455344,170.6070045455344,0,0,0,1.752212708885052,170.59800629146525Z" fill-rule="evenodd" style="fill: #1DC690; stroke: #fff; opacity: 1;" id="p-type-logs"></path><path d="M0.2744513295141725,196.9998088234294A197,197,0,0,1,-1.4743999285860616,196.99448252387828L-1.2768677934934916,170.6022262710482A170.6070045455344,170.6070045455344,0,0,0,0.23768182346168726,170.60683898176765Z" fill-rule="evenodd" style="fill: #1DC690; stroke: #fff; opacity: 1;" id="p-type-logs"></path><path d="M-1.4743999285860616,196.99448252387828A197,197,0,0,1,-3.223134990299183,196.97363123229033L-2.7913167814256026,170.58416852283136A170.6070045455344,170.6070045455344,0,0,0,-1.2768677934934916,170.6022262710482Z" fill-rule="evenodd" style="fill: #1DC690; stroke: #fff; opacity: 1;" id="p-type-logs"></path><path d="M-3.223134990299183,196.97363123229033A197,197,0,0,1,-4.971616039085562,196.93725659194075L-4.305545787710265,170.55266716023507A170.6070045455344,170.6070045455344,0,0,0,-2.7913167814256026,170.58416852283136Z" fill-rule="evenodd" style="fill: #1DC690; stroke: #fff; opacity: 1;" id="p-type-logs"></path><path d="M-4.971616039085562,196.93725659194075A197,197,0,0,1,-6.719705278424144,196.88536146948843L-5.8194354770596926,170.50772466585886A170.6070045455344,170.6070045455344,0,0,0,-4.305545787710265,170.55266716023507Z" fill-rule="evenodd" style="fill: #1DC690; stroke: #fff; opacity: 1;" id="p-type-logs"></path><path d="M-6.719705278424144,196.88536146948843A197,197,0,0,1,-8.467264942672088,196.8179499547503L-7.332866540927417,170.44934458158806A170.6070045455344,170.6070045455344,0,0,0,-5.8194354770596926,170.50772466585886Z" fill-rule="evenodd" style="fill: #1DC690; stroke: #fff; opacity: 1;" id="p-type-logs"></path><path d="M-8.467264942672088,196.8179499547503A197,197,0,0,1,-10.214157307921989,196.7350273603789L-8.845719706910915,170.3775315083147A170.6070045455344,170.6070045455344,0,0,0,-7.332866540927417,170.44934458158806Z" fill-rule="evenodd" style="fill: #1DC690; stroke: #fff; opacity: 1;" id="p-type-logs"></path><path d="M-10.214157307921989,196.7350273603789A197,197,0,0,1,-11.960244702855784,196.63660022144353L-10.357875748151372,170.29229110557486A170.6070045455344,170.6070045455344,0,0,0,-8.845719706910915,170.3775315083147Z" fill-rule="evenodd" style="fill: #1DC690; stroke: #fff; opacity: 1;" id="p-type-logs"></path><path d="M-11.960244702855784,196.63660022144353A197,197,0,0,1,-13.705389519594537,196.5226762949156L-11.869215492729872,170.19363009110282A170.6070045455344,170.6070045455344,0,0,0,-10.357875748151372,170.29229110557486Z" fill-rule="evenodd" style="fill: #1DC690; stroke: #fff; opacity: 1;" id="p-type-logs"></path><path d="M-13.705389519594537,196.5226762949156A197,197,0,0,1,-15.449454224543219,196.39326455905697L-13.379619833059241,170.08155624030138A170.6070045455344,170.6070045455344,0,0,0,-11.869215492729872,170.19363009110282Z" fill-rule="evenodd" style="fill: #1DC690; stroke: #fff; opacity: 1;" id="p-type-logs"></path><path d="M-15.449454224543219,196.39326455905697A197,197,0,0,1,-17.19230136922962,196.2483752127125L-14.888969735270841,169.95607838562935A170.6070045455344,170.6070045455344,0,0,0,-13.379619833059241,170.08155624030138Z" fill-rule="evenodd" style="fill: #1DC690; stroke: #fff; opacity: 1;" id="p-type-logs"></path><path d="M-17.19230136922962,196.2483752127125A197,197,0,0,1,-18.93379360113658,196.08801967450628L-16.397146248595526,169.81720641590525A170.6070045455344,170.6070045455344,0,0,0,-14.888969735270841,169.95607838562935Z" fill-rule="evenodd" style="fill: #1DC690; stroke: #fff; opacity: 1;" id="p-type-logs"></path><path d="M-18.93379360113658,196.08801967450628A197,197,0,0,1,-20.673793674526614,195.9122105819418L-17.904030514738086,169.66495127552813A170.6070045455344,170.6070045455344,0,0,0,-16.397146248595526,169.81720641590525Z" fill-rule="evenodd" style="fill: #1DC690; stroke: #fff; opacity: 1;" id="p-type-logs"></path><path d="M-20.673793674526614,195.9122105819418A197,197,0,0,1,-22.412164461258186,195.72096179040588L-19.409503777244364,169.49932496361492A170.6070045455344,170.6070045455344,0,0,0,-17.904030514738086,169.66495127552813Z" fill-rule="evenodd" style="fill: #1DC690; stroke: #fff; opacity: 1;" id="p-type-logs"></path><path d="M-22.412164461258186,195.72096179040588A197,197,0,0,1,-24.148768961592634,195.51428837207683L-20.91344739086038,169.32034053305503A170.6070045455344,170.6070045455344,0,0,0,-19.409503777244364,169.49932496361492Z" fill-rule="evenodd" style="fill: #1DC690; stroke: #fff; opacity: 1;" id="p-type-logs"></path><path d="M-24.148768961592634,195.51428837207683A197,197,0,0,1,-25.883470314991072,195.2922066147366L-22.415742830882674,169.1280120894813A170.6070045455344,170.6070045455344,0,0,0,-20.91344739086038,169.32034053305503Z" fill-rule="evenodd" style="fill: #1DC690; stroke: #fff; opacity: 1;" id="p-type-logs"></path><path d="M-25.883470314991072,195.2922066147366A197,197,0,0,1,-27.616131810900214,195.05473402048716L-23.916271702499138,168.92235479015866A170.6070045455344,170.6070045455344,0,0,0,-22.415742830882674,169.1280120894813Z" fill-rule="evenodd" style="fill: #1DC690; stroke: #fff; opacity: 1;" id="p-type-logs"></path><path d="M-27.616131810900214,195.05473402048716A197,197,0,0,1,-29.346616899526477,194.80188930437103L-25.414915750119647,168.70338484278943A170.6070045455344,170.6070045455344,0,0,0,-23.916271702499138,168.92235479015866Z" fill-rule="evenodd" style="fill: #1DC690; stroke: #fff; opacity: 1;" id="p-type-logs"></path><path d="M-29.346616899526477,194.80188930437103A197,197,0,0,1,-31.074789202597348,194.53369239289665L-26.911556866695683,168.4711195042361A170.6070045455344,170.6070045455344,0,0,0,-25.414915750119647,168.70338484278943Z" fill-rule="evenodd" style="fill: #1DC690; stroke: #fff; opacity: 1;" id="p-type-logs"></path><path d="M-31.074789202597348,194.53369239289665A197,197,0,0,1,-32.800512524109266,194.25016442246775L-28.406077103028267,168.2255770791612A170.6070045455344,170.6070045455344,0,0,0,-26.911556866695683,168.4711195042361Z" fill-rule="evenodd" style="fill: #1DC690; stroke: #fff; opacity: 1;" id="p-type-logs"></path><path d="M-32.800512524109266,194.25016442246775A197,197,0,0,1,-34.523650861061135,193.95132773771763L-29.89835867706345,167.9667769185849A170.6070045455344,170.6070045455344,0,0,0,-28.406077103028267,168.2255770791612Z" fill-rule="evenodd" style="fill: #1DC690; stroke: #fff; opacity: 1;" id="p-type-logs"></path><path d="M-34.523650861061135,193.95132773771763A197,197,0,0,1,-36.244068414172595,193.6372058897483L-31.388283983174638,167.69473941835975A170.6070045455344,170.6070045455344,0,0,0,-29.89835867706345,167.9667769185849Z" fill-rule="evenodd" style="fill: #1DC690; stroke: #fff; opacity: 1;" id="p-type-logs"></path><path d="M-36.244068414172595,193.6372058897483A197,197,0,0,1,-37.9616295985863,193.3078236342744L-32.875735601430996,167.40948601756355A170.6070045455344,170.6070045455344,0,0,0,-31.388283983174638,167.69473941835975Z" fill-rule="evenodd" style="fill: #1DC690; stroke: #fff; opacity: 1;" id="p-type-logs"></path><path d="M-37.9616295985863,193.3078236342744A197,197,0,0,1,-39.67619905455324,192.96320692967214L-34.36059630685123,167.11103919680951A170.6070045455344,170.6070045455344,0,0,0,-32.875735601430996,167.40948601756355Z" fill-rule="evenodd" style="fill: #1DC690; stroke: #fff; opacity: 1;" id="p-type-logs"></path><path d="M-39.67619905455324,192.96320692967214A197,197,0,0,1,-41.38764165810034,192.60338293493362L-35.842749078642,166.79942247647475A170.6070045455344,170.6070045455344,0,0,0,-34.36059630685123,167.11103919680951Z" fill-rule="evenodd" style="fill: #1DC690; stroke: #fff; opacity: 1;" id="p-type-logs"></path><path d="M-41.38764165810034,192.60338293493362A197,197,0,0,1,-43.09582253167952,192.22838000752643L-37.32207710942026,166.47466041484657A170.6070045455344,170.6070045455344,0,0,0,-35.842749078642,166.79942247647475Z" fill-rule="evenodd" style="fill: #1DC690; stroke: #fff; opacity: 1;" id="p-type-logs"></path><path d="M-43.09582253167952,192.22838000752643A197,197,0,0,1,-44.80060705479723,191.83822770115881L-38.79846381441874,166.13677860618714A170.6070045455344,170.6070045455344,0,0,0,-37.32207710942026,166.47466041484657Z" fill-rule="evenodd" style="fill: #1DC690; stroke: #fff; opacity: 1;" id="p-type-logs"></path><path d="M-44.80060705479723,191.83822770115881A197,197,0,0,1,-46.50186087462387,191.43295676345053L-40.27179284067393,165.78580367871623A170.6070045455344,170.6070045455344,0,0,0,-38.79846381441874,166.13677860618714Z" fill-rule="evenodd" style="fill: #1DC690; stroke: #fff; opacity: 1;" id="p-type-logs"></path><path d="M-46.50186087462387,191.43295676345053A197,197,0,0,1,-48.19944991658199,191.0125991335098L-41.74194807619574,165.42176329251294A170.6070045455344,170.6070045455344,0,0,0,-40.27179284067393,165.78580367871623Z" fill-rule="evenodd" style="fill: #1DC690; stroke: #fff; opacity: 1;" id="p-type-logs"></path><path d="M-48.19944991658199,191.0125991335098A197,197,0,0,1,-49.893240394912596,190.57718793941592L-43.20881365911825,165.04468613733553A170.6070045455344,170.6070045455344,0,0,0,-41.74194807619574,165.42176329251294Z" fill-rule="evenodd" style="fill: #1DC690; stroke: #fff; opacity: 1;" id="p-type-logs"></path><path d="M-49.893240394912596,190.57718793941592A197,197,0,0,1,-51.58309882321877,190.12675749560884L-44.67227398683064,164.65460193036068A170.6070045455344,170.6070045455344,0,0,0,-43.20881365911825,165.04468613733553Z" fill-rule="evenodd" style="fill: #1DC690; stroke: #fff; opacity: 1;" id="p-type-logs"></path><path d="M-51.58309882321877,190.12675749560884A197,197,0,0,1,-53.26889202498558,189.66134330018448L-46.1322137250878,164.2515414138413A170.6070045455344,170.6070045455344,0,0,0,-44.67227398683064,164.65460193036068Z" fill-rule="evenodd" style="fill: #1DC690; stroke: #fff; opacity: 1;" id="p-type-logs"></path><path d="M-53.26889202498558,189.66134330018448A197,197,0,0,1,-54.95048714407564,189.18098203209746L-47.58851781709971,163.83553635268382A170.6070045455344,170.6070045455344,0,0,0,-46.1322137250878,164.2515414138413Z" fill-rule="evenodd" style="fill: #1DC690; stroke: #fff; opacity: 1;" id="p-type-logs"></path><path d="M-54.95048714407564,189.18098203209746A197,197,0,0,1,-56.627751655199425,188.6857115482703L-49.041071492598995,163.4066195319449A170.6070045455344,170.6070045455344,0,0,0,-47.58851781709971,163.83553635268382Z" fill-rule="evenodd" style="fill: #1DC690; stroke: #fff; opacity: 1;" id="p-type-logs"></path><path d="M-56.627751655199425,188.6857115482703A197,197,0,0,1,-58.30055337435946,188.17557088060997L-50.48976027688586,162.9648247542475A170.6070045455344,170.6070045455344,0,0,0,-49.041071492598995,163.4066195319449Z" fill-rule="evenodd" style="fill: #1DC690; stroke: #fff; opacity: 1;" id="p-type-logs"></path><path d="M-58.30055337435946,188.17557088060997A197,197,0,0,1,-59.968760469267664,187.65060023293182L-51.93446999984981,162.51018683711706A170.6070045455344,170.6070045455344,0,0,0,-50.48976027688586,162.9648247542475Z" fill-rule="evenodd" style="fill: #1DC690; stroke: #fff; opacity: 1;" id="p-type-logs"></path><path d="M-59.968760469267664,187.65060023293182A197,197,0,0,1,-61.63224146973498,187.11084097779124L-53.37508680496726,162.04274161023753A170.6070045455344,170.6070045455344,0,0,0,-51.93446999984981,162.51018683711706Z" fill-rule="evenodd" style="fill: #1DC690; stroke: #fff; opacity: 1;" id="p-type-logs"></path><path d="M-61.63224146973498,187.11084097779124A197,197,0,0,1,-63.29086527803239,186.55633565322287L-54.811497158274506,161.5625259126276A170.6070045455344,170.6070045455344,0,0,0,-53.37508680496726,162.04274161023753Z" fill-rule="evenodd" style="fill: #1DC690; stroke: #fff; opacity: 1;" id="p-type-logs"></path><path d="M-63.29086527803239,186.55633565322287A197,197,0,0,1,-64.94450117922268,185.9871279593885L-56.243587857315276,161.06957758973746A170.6070045455344,170.6070045455344,0,0,0,-54.811497158274506,161.5625259126276Z" fill-rule="evenodd" style="fill: #1DC690; stroke: #fff; opacity: 1;" id="p-type-logs"></path><path d="M-64.94450117922268,185.9871279593885A197,197,0,0,1,-66.59301885146196,185.40326275513283L-57.67124604006207,160.5639354904663A170.6070045455344,170.6070045455344,0,0,0,-56.243587857315276,161.06957758973746Z" fill-rule="evenodd" style="fill: #1DC690; stroke: #fff; opacity: 1;" id="p-type-logs"></path><path d="M-66.59301885146196,185.40326275513283A197,197,0,0,1,-68.23628837627025,184.80478605444853L-59.09435919381084,160.04563946410056A170.6070045455344,170.6070045455344,0,0,0,-57.67124604006207,160.5639354904663Z" fill-rule="evenodd" style="fill: #1DC690; stroke: #fff; opacity: 1;" id="p-type-logs"></path><path d="M-68.23628837627025,184.80478605444853A197,197,0,0,1,-69.87418024877024,184.1917450228494L-60.5128151640479,159.5147303571735A170.6070045455344,170.6070045455344,0,0,0,-59.09435919381084,160.04563946410056Z" fill-rule="evenodd" style="fill: #1DC690; stroke: #fff; opacity: 1;" id="p-type-logs"></path><path d="M-69.87418024877024,184.1917450228494A197,197,0,0,1,-71.50656538789356,183.5641879736538L-61.92650216328888,158.9712500102461A170.6070045455344,170.6070045455344,0,0,0,-60.5128151640479,159.5147303571735Z" fill-rule="evenodd" style="fill: #1DC690; stroke: #fff; opacity: 1;" id="p-type-logs"></path><path d="M-71.50656538789356,183.5641879736538A197,197,0,0,1,-73.13331514655337,182.92216436417678L-63.33530877988848,158.41524125460964A170.6070045455344,170.6070045455344,0,0,0,-61.92650216328888,158.9712500102461Z" fill-rule="evenodd" style="fill: #1DC690; stroke: #fff; opacity: 1;" id="p-type-logs"></path><path d="M-73.13331514655337,182.92216436417678A197,197,0,0,1,-74.75430132178319,182.26572479183255L-64.73912398682089,157.84674790891015A170.6070045455344,170.6070045455344,0,0,0,-63.33530877988848,158.41524125460964Z" fill-rule="evenodd" style="fill: #1DC690; stroke: #fff; opacity: 1;" id="p-type-logs"></path><path d="M-74.75430132178319,182.26572479183255A197,197,0,0,1,-76.36939616484031,181.59492099014685L-66.13783715042959,157.26581477569516A170.6070045455344,170.6070045455344,0,0,0,-64.73912398682089,157.84674790891015Z" fill-rule="evenodd" style="fill: #1DC690; stroke: #fff; opacity: 1;" id="p-type-logs"></path><path d="M-76.36939616484031,181.59492099014685A197,197,0,0,1,-77.97847239127361,180.90980582467986L-67.53133803914643,156.67248763788277A170.6070045455344,170.6070045455344,0,0,0,-66.13783715042959,157.26581477569516Z" fill-rule="evenodd" style="fill: #1DC690; stroke: #fff; opacity: 1;" id="p-type-logs"></path><path d="M-77.97847239127361,180.90980582467986A197,197,0,0,1,-79.58140319095483,180.21043328886006L-68.91951683217887,156.06681325515368A170.6070045455344,170.6070045455344,0,0,0,-67.53133803914643,156.67248763788277Z" fill-rule="evenodd" style="fill: #1DC690; stroke: #fff; opacity: 1;" id="p-type-logs"></path><path d="M-79.58140319095483,180.21043328886006A197,197,0,0,1,-81.17806223807226,179.4968584997288L-70.30226412816482,155.44883936026588A170.6070045455344,170.6070045455344,0,0,0,-68.91951683217887,156.06681325515368Z" fill-rule="evenodd" style="fill: #1DC690; stroke: #fff; opacity: 1;" id="p-type-logs"></path><path d="M-81.17806223807226,179.4968584997288A197,197,0,0,1,-82.76832370108652,178.76913769359678L-71.67947095379456,154.81861465529303A170.6070045455344,170.6070045455344,0,0,0,-70.30226412816482,155.44883936026588Z" fill-rule="evenodd" style="fill: #1DC690; stroke: #fff; opacity: 1;" id="p-type-logs"></path><path d="M-82.76832370108652,178.76913769359678A197,197,0,0,1,-84.3520622526471,178.02732822161192L-73.05102877239881,154.17618880778627A170.6070045455344,170.6070045455344,0,0,0,-71.67947095379456,154.81861465529303Z" fill-rule="evenodd" style="fill: #1DC690; stroke: #fff; opacity: 1;" id="p-type-logs"></path><path d="M-84.3520622526471,178.02732822161192A197,197,0,0,1,-85.92915307946951,177.27148854523983L-74.41682949250243,153.52161244685982A170.6070045455344,170.6070045455344,0,0,0,-73.05102877239881,154.17618880778627Z" fill-rule="evenodd" style="fill: #1DC690; stroke: #fff; opacity: 1;" id="p-type-logs"></path><path d="M-85.92915307946951,177.27148854523983A197,197,0,0,1,-87.49947189217154,176.50167823165614L-75.776765476343,152.85493715920109A170.6070045455344,170.6070045455344,0,0,0,-74.41682949250243,153.52161244685982Z" fill-rule="evenodd" style="fill: #1DC690; stroke: #fff; opacity: 1;" id="p-type-logs"></path><path d="M-87.49947189217154,176.50167823165614A197,197,0,0,1,-89.0628949350685,175.71795794905242L-77.13072954835373,152.17621548500512A170.6070045455344,170.6070045455344,0,0,0,-75.776765476343,152.85493715920109Z" fill-rule="evenodd" style="fill: #1DC690; stroke: #fff; opacity: 1;" id="p-type-logs"></path><path d="M-89.0628949350685,175.71795794905242A197,197,0,0,1,-90.61929899592633,174.92038946185463L-78.47861500360986,151.4855009138339A170.6070045455344,170.6070045455344,0,0,0,-77.13072954835373,152.17621548500512Z" fill-rule="evenodd" style="fill: #1DC690; stroke: #fff; opacity: 1;" id="p-type-logs"></path><path d="M-90.61929899592633,174.92038946185463A197,197,0,0,1,-92.16856141567183,174.10903562585582L-79.82031561623802,150.782847880401A170.6070045455344,170.6070045455344,0,0,0,-78.47861500360986,151.4855009138339Z" fill-rule="evenodd" style="fill: #1DC690; stroke: #fff; opacity: 1;" id="p-type-logs"></path><path d="M-92.16856141567183,174.10903562585582A197,197,0,0,1,-93.71056009805935,173.28396038326227L-81.15572564778775,150.06831176028138A170.6070045455344,170.6070045455344,0,0,0,-79.82031561623802,150.782847880401Z" fill-rule="evenodd" style="fill: #1DC690; stroke: #fff; opacity: 1;" id="p-type-logs"></path><path d="M-93.71056009805935,173.28396038326227A197,197,0,0,1,-95.24517351929312,172.44522875765438L-82.48473985556474,149.34194886554752A170.6070045455344,170.6070045455344,0,0,0,-81.15572564778775,150.06831176028138Z" fill-rule="evenodd" style="fill: #1DC690; stroke: #fff; opacity: 1;" id="p-type-logs"></path><path d="M-171.37305600565978,97.16108107303563A197,197,0,0,1,-172.2288381025229,95.63591023174794L-149.1545490610621,82.82312777474183A170.6070045455344,170.6070045455344,0,0,0,-148.4134200250747,84.14396446840826Z" fill-rule="evenodd" style="fill: #D7A449; stroke: #fff; opacity: 1;" id="p-type-tokenTransfers"></path><path d="M-172.2288381025229,95.63591023174794A197,197,0,0,1,-173.07104696979204,94.10320239386137L-149.8839233354097,81.49576385055254A170.6070045455344,170.6070045455344,0,0,0,-149.1545490610621,82.82312777474183Z" fill-rule="evenodd" style="fill: #D7A449; stroke: #fff; opacity: 1;" id="p-type-tokenTransfers"></path><path d="M-173.07104696979204,94.10320239386137A197,197,0,0,1,-173.89961623359824,92.56307835096699L-150.60148536666082,80.16197730442681A170.6070045455344,170.6070045455344,0,0,0,-149.8839233354097,81.49576385055254Z" fill-rule="evenodd" style="fill: #D7A449; stroke: #fff; opacity: 1;" id="p-type-tokenTransfers"></path><path d="M-173.89961623359824,92.56307835096699A197,197,0,0,1,-174.71448059499986,91.01565947912161L-151.30717860427322,78.82187325111326A170.6070045455344,170.6070045455344,0,0,0,-150.60148536666082,80.16197730442681Z" fill-rule="evenodd" style="fill: #D7A449; stroke: #fff; opacity: 1;" id="p-type-tokenTransfers"></path><path d="M-174.71448059499986,91.01565947912161A197,197,0,0,1,-175.51557583512863,89.4610677292822L-152.0009474330755,77.47555730323863A170.6070045455344,170.6070045455344,0,0,0,-151.30717860427322,78.82187325111326Z" fill-rule="evenodd" style="fill: #D7A449; stroke: #fff; opacity: 1;" id="p-type-tokenTransfers"></path><path d="M-175.51557583512863,89.4610677292822A197,197,0,0,1,-176.30283882025068,87.89942561769506L-152.6827371776504,76.12313556298459A170.6070045455344,170.6070045455344,0,0,0,-152.0009474330755,77.47555730323863Z" fill-rule="evenodd" style="fill: #D7A449; stroke: #fff; opacity: 1;" id="p-type-tokenTransfers"></path><path d="M-176.30283882025068,87.89942561769506A197,197,0,0,1,-177.07620750674224,86.33085621624033L-153.3524941066435,74.76471461372586A170.6070045455344,170.6070045455344,0,0,0,-152.6827371776504,76.12313556298459Z" fill-rule="evenodd" style="fill: #D7A449; stroke: #fff; opacity: 1;" id="p-type-tokenTransfers"></path><path d="M-177.07620750674224,86.33085621624033A197,197,0,0,1,-177.83562094597897,84.7554831427329L-154.01016543699782,73.40040151163043A170.6070045455344,170.6070045455344,0,0,0,-153.3524941066435,74.76471461372586Z" fill-rule="evenodd" style="fill: #D7A449; stroke: #fff; opacity: 1;" id="p-type-tokenTransfers"></path><path d="M-177.83562094597897,84.7554831427329A197,197,0,0,1,-178.58101928913956,83.17343055118002L-154.6556993381137,72.03030377722264A170.6070045455344,170.6070045455344,0,0,0,-154.01016543699782,73.40040151163043Z" fill-rule="evenodd" style="fill: #D7A449; stroke: #fff; opacity: 1;" id="p-type-tokenTransfers"></path><path d="M-178.58101928913956,83.17343055118002A197,197,0,0,1,-179.3123437919221,81.58482312199699L-155.28904493593342,70.65452938690945A170.6070045455344,170.6070045455344,0,0,0,-154.6556993381137,72.03030377722264Z" fill-rule="evenodd" style="fill: #D7A449; stroke: #fff; opacity: 1;" id="p-type-tokenTransfers"></path><path d="M-179.3123437919221,81.58482312199699A197,197,0,0,1,-180.02953681917393,79.98978605218103L-155.91015231695056,69.27318676447094A170.6070045455344,170.6070045455344,0,0,0,-155.28904493593342,70.65452938690945Z" fill-rule="evenodd" style="fill: #D7A449; stroke: #fff; opacity: 1;" id="p-type-tokenTransfers"></path><path d="M-180.02953681917393,79.98978605218103A197,197,0,0,1,-180.73254184943366,78.38844504544475L-156.51897253214375,67.88638477251557A170.6070045455344,170.6070045455344,0,0,0,-155.91015231695056,69.27318676447094Z" fill-rule="evenodd" style="fill: #D7A449; stroke: #fff; opacity: 1;" id="p-type-tokenTransfers"></path><path d="M-180.73254184943366,78.38844504544475A197,197,0,0,1,-181.4213034793856,76.78092630230937L-157.1154576008341,66.49423270390069A170.6070045455344,170.6070045455344,0,0,0,-156.51897253214375,67.88638477251557Z" fill-rule="evenodd" style="fill: #D7A449; stroke: #fff; opacity: 1;" id="p-type-tokenTransfers"></path><path d="M-181.4213034793856,76.78092630230937A197,197,0,0,1,-182.0957674282262,75.16735651015904L-157.69956051446684,65.09684027311933A170.6070045455344,170.6070045455344,0,0,0,-157.1154576008341,66.49423270390069Z" fill-rule="evenodd" style="fill: #D7A449; stroke: #fff; opacity: 1;" id="p-type-tokenTransfers"></path><path d="M-182.0957674282262,75.16735651015904A197,197,0,0,1,-182.75588054194168,73.54786283325673L-158.27123524031566,63.694317607653666A170.6070045455344,170.6070045455344,0,0,0,-157.69956051446684,65.09684027311933Z" fill-rule="evenodd" style="fill: #D7A449; stroke: #fff; opacity: 1;" id="p-type-tokenTransfers"></path><path d="M-182.75588054194168,73.54786283325673A197,197,0,0,1,-183.4015907974971,71.92257290272242L-158.83043672511081,62.28677523929591A170.6070045455344,170.6070045455344,0,0,0,-158.27123524031566,63.694317607653666Z" fill-rule="evenodd" style="fill: #D7A449; stroke: #fff; opacity: 1;" id="p-type-tokenTransfers"></path><path d="M-183.4015907974971,71.92257290272242A197,197,0,0,1,-184.03284730693647,70.29161480647466L-159.3771208985896,60.87432409543744A170.6070045455344,170.6070045455344,0,0,0,-158.83043672511081,62.28677523929591Z" fill-rule="evenodd" style="fill: #D7A449; stroke: #fff; opacity: 1;" id="p-type-tokenTransfers"></path><path d="M-184.03284730693647,70.29161480647466A197,197,0,0,1,-184.64960032139288,68.65511707913599L-159.91124467696946,59.45707549032665A170.6070045455344,170.6070045455344,0,0,0,-159.3771208985896,60.87432409543744Z" fill-rule="evenodd" style="fill: #D7A449; stroke: #fff; opacity: 1;" id="p-type-tokenTransfers"></path><path d="M-184.64960032139288,68.65511707913599A197,197,0,0,1,-185.25180123500937,67.01320869190327L-160.43276596634357,58.03514111629638A170.6070045455344,170.6070045455344,0,0,0,-159.91124467696946,59.45707549032665Z" fill-rule="evenodd" style="fill: #D7A449; stroke: #fff; opacity: 1;" id="p-type-tokenTransfers"></path><path d="M-185.25180123500937,67.01320869190327A197,197,0,0,1,-185.8394025887695,65.36601904238354L-160.94164366599796,56.608633034961514A170.6070045455344,170.6070045455344,0,0,0,-160.43276596634357,58.03514111629638Z" fill-rule="evenodd" style="fill: #D7A449; stroke: #fff; opacity: 1;" id="p-type-tokenTransfers"></path><path d="M-185.8394025887695,65.36601904238354A197,197,0,0,1,-186.41235807423755,63.713677944396274L-161.43783767165093,55.17766366838747A170.6070045455344,170.6070045455344,0,0,0,-160.94164366599796,56.608633034961514Z" fill-rule="evenodd" style="fill: #D7A449; stroke: #fff; opacity: 1;" id="p-type-tokenTransfers"></path><path d="M-186.41235807423755,63.713677944396274A197,197,0,0,1,-186.97062253720793,62.05631561774285L-161.92130887861336,53.74234579023032A170.6070045455344,170.6070045455344,0,0,0,-161.43783767165093,55.17766366838747Z" fill-rule="evenodd" style="fill: #D7A449; stroke: #fff; opacity: 1;" id="p-type-tokenTransfers"></path><path d="M-186.97062253720793,62.05631561774285A197,197,0,0,1,-187.51415198126398,60.39406267794404L-162.39201918487072,52.30279251684918A170.6070045455344,170.6070045455344,0,0,0,-161.92130887861336,53.74234579023032Z" fill-rule="evenodd" style="fill: #D7A449; stroke: #fff; opacity: 1;" id="p-type-tokenTransfers"></path><path d="M-187.51415198126398,60.39406267794404A197,197,0,0,1,-188.04290357124512,58.72705012594627L-162.8499314940858,50.85911729839159A170.6070045455344,170.6070045455344,0,0,0,-162.39201918487072,52.30279251684918Z" fill-rule="evenodd" style="fill: #D7A449; stroke: #fff; opacity: 1;" id="p-type-tokenTransfers"></path><path d="M-188.04290357124512,58.72705012594627A197,197,0,0,1,-188.55683563662274,57.055409337797585L-163.29500971852224,49.41143390985258A170.6070045455344,170.6070045455344,0,0,0,-162.8499314940858,50.85911729839159Z" fill-rule="evenodd" style="fill: #D7A449; stroke: #fff; opacity: 1;" id="p-type-tokenTransfers"></path><path d="M-188.55683563662274,57.055409337797585A197,197,0,0,1,-189.05590767478412,55.3792720542939L-163.72721878188847,47.959856442108155A170.6070045455344,170.6070045455344,0,0,0,-163.29500971852224,49.41143390985258Z" fill-rule="evenodd" style="fill: #D7A449; stroke: #fff; opacity: 1;" id="p-type-tokenTransfers"></path><path d="M-189.05590767478412,55.3792720542939A197,197,0,0,1,-189.5400803542246,53.698770370596705L-164.1465246221023,46.50449929292386A170.6070045455344,170.6070045455344,0,0,0,-163.72721878188847,47.959856442108155Z" fill-rule="evenodd" style="fill: #D7A449; stroke: #fff; opacity: 1;" id="p-type-tokenTransfers"></path><path d="M-189.5400803542246,53.698770370596705A197,197,0,0,1,-190.0093155176471,52.014036725822685L-164.55289419397513,45.04547715793921A170.6070045455344,170.6070045455344,0,0,0,-164.1465246221023,46.50449929292386Z" fill-rule="evenodd" style="fill: #D7A449; stroke: #fff; opacity: 1;" id="p-type-tokenTransfers"></path><path d="M-190.0093155176471,52.014036725822685A197,197,0,0,1,-190.4635761849693,50.325203892606304L-164.94629547181623,43.58290502162858A170.6070045455344,170.6070045455344,0,0,0,-164.55289419397513,45.04547715793921Z" fill-rule="evenodd" style="fill: #D7A449; stroke: #fff; opacity: 1;" id="p-type-tokenTransfers"></path><path d="M-190.4635761849693,50.325203892606304A197,197,0,0,1,-190.90282655623807,48.63240496663608L-165.32669745195673,42.11689814823935A170.6070045455344,170.6070045455344,0,0,0,-164.94629547181623,43.58290502162858Z" fill-rule="evenodd" style="fill: #D7A449; stroke: #fff; opacity: 1;" id="p-type-tokenTransfers"></path><path d="M-190.90282655623807,48.63240496663608A197,197,0,0,1,-191.32703201445077,46.935773356165434L-165.69407015519295,40.647572072708066A170.6070045455344,170.6070045455344,0,0,0,-165.32669745195673,42.11689814823935Z" fill-rule="evenodd" style="fill: #D7A449; stroke: #fff; opacity: 1;" id="p-type-tokenTransfers"></path><path d="M-191.32703201445077,46.935773356165434A197,197,0,0,1,-191.7361591282835,45.23544277149886L-166.0483846291491,39.17504259155516A170.6070045455344,170.6070045455344,0,0,0,-165.69407015519295,40.647572072708066Z" fill-rule="evenodd" style="fill: #D7A449; stroke: #fff; opacity: 1;" id="p-type-tokenTransfers"></path><path d="M-191.7361591282835,45.23544277149886A197,197,0,0,1,-192.13017565472566,43.531547214454314L-166.3896129505589,37.69942575375915A170.6070045455344,170.6070045455344,0,0,0,-166.0483846291491,39.17504259155516Z" fill-rule="evenodd" style="fill: #D7A449; stroke: #fff; opacity: 1;" id="p-type-tokenTransfers"></path><path d="M-192.13017565472566,43.531547214454314A197,197,0,0,1,-192.50905054162106,41.824220967802646L-166.7177282274663,36.220837851610874A170.6070045455344,170.6070045455344,0,0,0,-166.3896129505589,37.69942575375915Z" fill-rule="evenodd" style="fill: #D7A449; stroke: #fff; opacity: 1;" id="p-type-tokenTransfers"></path><path d="M-192.50905054162106,41.824220967802646A197,197,0,0,1,-192.87275393011518,40.11359858468486L-167.03270460134468,34.73939541154859A170.6070045455344,170.6070045455344,0,0,0,-166.7177282274663,36.220837851610874Z" fill-rule="evenodd" style="fill: #D7A449; stroke: #fff; opacity: 1;" id="p-type-tokenTransfers"></path><path d="M-192.87275393011518,40.11359858468486A197,197,0,0,1,-193.22125715700824,38.39981487800808L-167.3345172491349,33.25521518497464A170.6070045455344,170.6070045455344,0,0,0,-167.03270460134468,34.73939541154859Z" fill-rule="evenodd" style="fill: #D7A449; stroke: #fff; opacity: 1;" id="p-type-tokenTransfers"></path><path d="M-193.22125715700824,38.39981487800808A197,197,0,0,1,-193.5545327570141,36.68300490982103L-167.62314238520148,31.768414139054304A170.6070045455344,170.6070045455344,0,0,0,-167.3345172491349,33.25521518497464Z" fill-rule="evenodd" style="fill: #D7A449; stroke: #fff; opacity: 1;" id="p-type-tokenTransfers"></path><path d="M-193.5545327570141,36.68300490982103A197,197,0,0,1,-193.8725544649249,34.96330398066992L-167.89855726320715,30.27910944749774A170.6070045455344,170.6070045455344,0,0,0,-167.62314238520148,31.768414139054304Z" fill-rule="evenodd" style="fill: #D7A449; stroke: #fff; opacity: 1;" id="p-type-tokenTransfers"></path><path d="M-193.8725544649249,34.96330398066992A197,197,0,0,1,-194.17529721768088,33.2408476189355L-168.16074017790547,28.787418481325606A170.6070045455344,170.6070045455344,0,0,0,-167.89855726320715,30.27910944749774Z" fill-rule="evenodd" style="fill: #D7A449; stroke: #fff; opacity: 1;" id="p-type-tokenTransfers"></path><path d="M-194.17529721768088,33.2408476189355A197,197,0,0,1,-194.4627371563457,31.51577157015212L-168.40967046685142,27.29345879961912A170.6070045455344,170.6070045455344,0,0,0,-168.16074017790547,28.787418481325606Z" fill-rule="evenodd" style="fill: #D7A449; stroke: #fff; opacity: 1;" id="p-type-tokenTransfers"></path><path d="M-194.4627371563457,31.51577157015212A197,197,0,0,1,-194.7348516279866,29.788211786309816L-168.64532851202983,25.79734814025533A170.6070045455344,170.6070045455344,0,0,0,-168.40967046685142,27.29345879961912Z" fill-rule="evenodd" style="fill: #D7A449; stroke: #fff; opacity: 1;" id="p-type-tokenTransfers"></path><path d="M-194.7348516279866,29.788211786309816A197,197,0,0,1,-194.9916191874598,28.058304415139943L-168.86769574140138,24.299204410628267A170.6070045455344,170.6070045455344,0,0,0,-168.64532851202983,25.79734814025533Z" fill-rule="evenodd" style="fill: #D7A449; stroke: #fff; opacity: 1;" id="p-type-tokenTransfers"></path><path d="M-194.9916191874598,28.058304415139943A197,197,0,0,1,-195.2330195991005,26.326185789385526L-169.07675463036622,22.799145678356748A170.6070045455344,170.6070045455344,0,0,0,-168.86769574140138,24.299204410628267Z" fill-rule="evenodd" style="fill: #D7A449; stroke: #fff; opacity: 1;" id="p-type-tokenTransfers"></path></g></svg>