<svg xmlns="http://www.w3.org/2000/svg" width="400" height="400" id="block-7824852"><g id="burst-container" transform="translate(200,200)"><circle r="197" style="fill: #f9f9f9; stroke: #f9f9f9; stroke-width: 3; opacity: 1;" id="circle-base"></circle><path display="none" d="M6.031385485800715e-15,-98.5A98.5,98.5,0,1,1,-6.031385485800715e-15,98.5A98.5,98.5,0,1,1,6.031385485800715e-15,-98.5Z" fill-rule="evenodd" id="p-type-root" style="stroke: #fff; opacity: 1;"></path><path d="M8.529667153919608e-15,-139.30003589374985A139.30003589374985,139.30003589374985,0,1,1,-106.38221327593186,-89.9295540882648L-75.22358440504499,-63.58979752489444A98.5,98.5,0,1,0,6.031385485800715e-15,-98.5Z" fill-rule="evenodd" style="fill: #0B1F65; stroke: #fff; opacity: 1;" id="p-type-data"></path><path d="M-106.38221327593186,-89.9295540882648A139.30003589374985,139.30003589374985,0,0,1,-1.9214207497106106,-139.28678380342689L-1.358649641632913,-98.49062935706773A98.5,98.5,0,0,0,-75.22358440504499,-63.58979752489444Z" fill-rule="evenodd" style="fill: #D7A449; stroke: #fff; opacity: 1;" id="p-type-value"></path><path d="M1.0446666101440332e-14,-170.6070045455344A170.6070045455344,170.6070045455344,0,0,1,168.65762998716747,25.716800872420176L137.70837823189575,20.997679984730233A139.30003589374985,139.30003589374985,0,0,0,8.529667153919608e-15,-139.30003589374985Z" fill-rule="evenodd" style="fill: #DB3F29; stroke: #fff; opacity: 1;" id="p-type-functions"></path><path d="M168.65762998716747,25.716800872420176A170.6070045455344,170.6070045455344,0,0,1,50.77331576543614,162.8767030799166L41.456238724842414,132.9882711775323A139.30003589374985,139.30003589374985,0,0,0,137.70837823189575,20.997679984730233Z" fill-rule="evenodd" style="fill: #1DC690; stroke: #fff; opacity: 1;" id="p-type-logs"></path><path d="M50.77331576543614,162.8767030799166A170.6070045455344,170.6070045455344,0,0,1,-103.19371527553838,135.85951246648546L-84.25731569570634,110.92882741539313A139.30003589374985,139.30003589374985,0,0,0,41.456238724842414,132.9882711775323Z" fill-rule="evenodd" style="fill: #D7A449; stroke: #fff; opacity: 1;" id="p-type-tokenTransfers"></path><path d="M-103.19371527553838,135.85951246648546A170.6070045455344,170.6070045455344,0,0,1,-159.6500774890886,60.15482322913101L-130.35374241468736,49.11620749289722A139.30003589374985,139.30003589374985,0,0,0,-84.25731569570634,110.92882741539313Z" fill-rule="evenodd" style="fill: #414552; stroke: #fff; opacity: 1;" id="p-type-ether"></path><path d="M-130.29107011698378,-110.14076015613482A170.6070045455344,170.6070045455344,0,0,1,-65.35548992402678,-157.59254403933718L-53.36253406782432,-128.67377338782092A139.30003589374985,139.30003589374985,0,0,0,-106.38221327593186,-89.9295540882648Z" fill-rule="evenodd" style="fill: #D7A449; stroke: #fff; opacity: 1;" id="p-type-tokenTransfers"></path><path d="M-65.35548992402678,-157.59254403933718A170.6070045455344,170.6070045455344,0,0,1,-4.7060526724551215,-170.54208591501418L-3.842475916725394,-139.24703005389156A139.30003589374985,139.30003589374985,0,0,0,-53.36253406782432,-128.67377338782092Z" fill-rule="evenodd" style="fill: #414552; stroke: #fff; opacity: 1;" id="p-type-ether"></path><path d="M1.206277097160143e-14,-197A197,197,0,0,1,15.038919808100253,-196.42512795211698L13.024086599291813,-170.10915074814213A170.6070045455344,170.6070045455344,0,0,0,1.0446666101440332e-14,-170.6070045455344Z" fill-rule="evenodd" style="fill: #DB3F29; stroke: #fff; opacity: 1;" id="p-type-functions"></path><path d="M15.038919808100253,-196.42512795211698A197,197,0,0,1,16.393279270277368,-196.3167348820948L14.196996299393025,-170.01527959590874A170.6070045455344,170.6070045455344,0,0,0,13.024086599291813,-170.10915074814213Z" fill-rule="evenodd" style="fill: #DB3F29; stroke: #fff; opacity: 1;" id="p-type-functions"></path><path d="M16.393279270277368,-196.3167348820948A197,197,0,0,1,17.746858948732033,-196.19900355876888L15.369230686981139,-169.91332127908734A170.6070045455344,170.6070045455344,0,0,0,14.196996299393025,-170.01527959590874Z" fill-rule="evenodd" style="fill: #DB3F29; stroke: #fff; opacity: 1;" id="p-type-functions"></path><path d="M17.746858948732033,-196.19900355876888A197,197,0,0,1,19.09959445735927,-196.07193958229823L16.540734002053586,-169.80328064755787A170.6070045455344,170.6070045455344,0,0,0,15.369230686981139,-169.91332127908734Z" fill-rule="evenodd" style="fill: #DB3F29; stroke: #fff; opacity: 1;" id="p-type-functions"></path><path d="M19.09959445735927,-196.07193958229823A197,197,0,0,1,20.451421450208933,-195.9355489967707L17.71145051938292,-169.685162935654A170.6070045455344,170.6070045455344,0,0,0,16.540734002053586,-169.80328064755787Z" fill-rule="evenodd" style="fill: #DB3F29; stroke: #fff; opacity: 1;" id="p-type-functions"></path><path d="M20.451421450208933,-195.9355489967707A197,197,0,0,1,21.802275624546525,-195.7898382899156L18.881324551167527,-169.5589737619141A170.6070045455344,170.6070045455344,0,0,0,17.71145051938292,-169.685162935654Z" fill-rule="evenodd" style="fill: #DB3F29; stroke: #fff; opacity: 1;" id="p-type-functions"></path><path d="M21.802275624546525,-195.7898382899156A197,197,0,0,1,23.152092723911874,-195.6348143927951L20.05030044968054,-169.42471912881408A170.6070045455344,170.6070045455344,0,0,0,18.881324551167527,-169.5589737619141Z" fill-rule="evenodd" style="fill: #DB3F29; stroke: #fff; opacity: 1;" id="p-type-functions"></path><path d="M23.152092723911874,-195.6348143927951A197,197,0,0,1,24.500808541175683,-195.47048467947445L21.218322609916893,-169.2824054224818A170.6070045455344,170.6070045455344,0,0,0,20.05030044968054,-169.42471912881408Z" fill-rule="evenodd" style="fill: #DB3F29; stroke: #fff; opacity: 1;" id="p-type-functions"></path><path d="M24.500808541175683,-195.47048467947445A197,197,0,0,1,25.848358921593523,-195.29685696667133L22.385335472238125,-169.13203941239328A170.6070045455344,170.6070045455344,0,0,0,21.218322609916893,-169.2824054224818Z" fill-rule="evenodd" style="fill: #DB3F29; stroke: #fff; opacity: 1;" id="p-type-functions"></path><path d="M25.848358921593523,-195.29685696667133A197,197,0,0,1,27.194679765857764,-195.11393951338394L23.55128352501547,-168.97362825105085A170.6070045455344,170.6070045455344,0,0,0,22.385335472238125,-169.13203941239328Z" fill-rule="evenodd" style="fill: #DB3F29; stroke: #fff; opacity: 1;" id="p-type-functions"></path><path d="M27.194679765857764,-195.11393951338394A197,197,0,0,1,28.539707033146406,-194.92174102049822L24.7161113072702,-168.80717947364272A170.6070045455344,170.6070045455344,0,0,0,23.55128352501547,-168.97362825105085Z" fill-rule="evenodd" style="fill: #DB3F29; stroke: #fff; opacity: 1;" id="p-type-functions"></path><path d="M28.539707033146406,-194.92174102049822A197,197,0,0,1,29.883376744169414,-194.72027063037388L25.87976341131182,-168.63270099768468A170.6070045455344,170.6070045455344,0,0,0,24.7161113072702,-168.80717947364272Z" fill-rule="evenodd" style="fill: #DB3F29; stroke: #fff; opacity: 1;" id="p-type-functions"></path><path d="M29.883376744169414,-194.72027063037388A197,197,0,0,1,31.225624984211994,-194.50953792640954L27.04218448537365,-168.4502011226434A170.6070045455344,170.6070045455344,0,0,0,25.87976341131182,-168.63270099768468Z" fill-rule="evenodd" style="fill: #DB3F29; stroke: #fff; opacity: 1;" id="p-type-functions"></path><path d="M31.225624984211994,-194.50953792640954A197,197,0,0,1,32.566387906174874,-194.28955293258707L28.203319236245754,-168.25968852954176A170.6070045455344,170.6070045455344,0,0,0,27.04218448537365,-168.4502011226434Z" fill-rule="evenodd" style="fill: #DB3F29; stroke: #fff; opacity: 1;" id="p-type-functions"></path><path d="M32.566387906174874,-194.28955293258707A197,197,0,0,1,33.905601733611306,-194.0603261129944L29.363112431905094,-168.0611722805458A170.6070045455344,170.6070045455344,0,0,0,28.203319236245754,-168.25968852954176Z" fill-rule="evenodd" style="fill: #DB3F29; stroke: #fff; opacity: 1;" id="p-type-functions"></path><path d="M33.905601733611306,-194.0603261129944A197,197,0,0,1,35.243202763760785,-193.82186837132812L30.521508904142777,-167.85466181853374A170.6070045455344,170.6070045455344,0,0,0,29.363112431905094,-168.0611722805458Z" fill-rule="evenodd" style="fill: #DB3F29; stroke: #fff; opacity: 1;" id="p-type-functions"></path><path d="M35.243202763760785,-193.82186837132812A197,197,0,0,1,36.57912737057915,-193.57419105037465L31.678453551188223,-167.64016696664677A170.6070045455344,170.6070045455344,0,0,0,30.521508904142777,-167.85466181853374Z" fill-rule="evenodd" style="fill: #DB3F29; stroke: #fff; opacity: 1;" id="p-type-functions"></path><path d="M36.57912737057915,-193.57419105037465A197,197,0,0,1,37.913312007765185,-193.31730593147074L32.833891340330254,-167.4176979278218A170.6070045455344,170.6070045455344,0,0,0,31.678453551188223,-167.64016696664677Z" fill-rule="evenodd" style="fill: #DB3F29; stroke: #fff; opacity: 1;" id="p-type-functions"></path><path d="M37.913312007765185,-193.31730593147074A197,197,0,0,1,39.24569321178327,-193.051225233943L33.98776731053481,-167.1872652843061A170.6070045455344,170.6070045455344,0,0,0,32.833891340330254,-167.4176979278218Z" fill-rule="evenodd" style="fill: #DB3F29; stroke: #fff; opacity: 1;" id="p-type-functions"></path><path d="M39.24569321178327,-193.051225233943A197,197,0,0,1,40.57620760488219,-192.77596161452678L35.14002657505931,-166.948879997154A170.6070045455344,170.6070045455344,0,0,0,33.98776731053481,-167.1872652843061Z" fill-rule="evenodd" style="fill: #DB3F29; stroke: #fff; opacity: 1;" id="p-type-functions"></path><path d="M40.57620760488219,-192.77596161452678A197,197,0,0,1,41.90479189810988,-192.49152816676403L36.290614324063476,-166.70255340570546A170.6070045455344,170.6070045455344,0,0,0,35.14002657505931,-166.948879997154Z" fill-rule="evenodd" style="fill: #DB3F29; stroke: #fff; opacity: 1;" id="p-type-functions"></path><path d="M41.90479189810988,-192.49152816676403A197,197,0,0,1,43.231382894323836,-192.19793842038047L37.43947582721647,-166.44829722704668A170.6070045455344,170.6070045455344,0,0,0,36.290614324063476,-166.70255340570546Z" fill-rule="evenodd" style="fill: #DB3F29; stroke: #fff; opacity: 1;" id="p-type-functions"></path><path d="M43.231382894323836,-192.19793842038047A197,197,0,0,1,44.55591749119732,-191.89520634064212L38.58655643630029,-166.18612355545275A170.6070045455344,170.6070045455344,0,0,0,37.43947582721647,-166.44829722704668Z" fill-rule="evenodd" style="fill: #DB3F29; stroke: #fff; opacity: 1;" id="p-type-functions"></path><path d="M44.55591749119732,-191.89520634064212A197,197,0,0,1,45.878332684220894,-191.5833463276909L39.73180158780921,-165.91604486181245A170.6070045455344,170.6070045455344,0,0,0,38.58655643630029,-166.18612355545275Z" fill-rule="evenodd" style="fill: #DB3F29; stroke: #fff; opacity: 1;" id="p-type-functions"></path><path d="M45.878332684220894,-191.5833463276909A197,197,0,0,1,47.19856556969939,-191.26237321585964L40.87515680554522,-165.63807399303485A170.6070045455344,170.6070045455344,0,0,0,39.73180158780921,-165.91604486181245Z" fill-rule="evenodd" style="fill: #DB3F29; stroke: #fff; opacity: 1;" id="p-type-functions"></path><path d="M47.19856556969939,-191.26237321585964A197,197,0,0,1,48.5165533477441,-190.93230227296664L42.01656770320935,-165.35222417143842A170.6070045455344,170.6070045455344,0,0,0,40.87515680554522,-165.63807399303485Z" fill-rule="evenodd" style="fill: #DB3F29; stroke: #fff; opacity: 1;" id="p-type-functions"></path><path d="M48.5165533477441,-190.93230227296664A197,197,0,0,1,49.832233325259956,-190.59314919958916L43.15597998698861,-165.05850899412195A170.6070045455344,170.6070045455344,0,0,0,42.01656770320935,-165.35222417143842Z" fill-rule="evenodd" style="fill: #DB3F29; stroke: #fff; opacity: 1;" id="p-type-functions"></path><path d="M49.832233325259956,-190.59314919958916A197,197,0,0,1,51.14554291892769,-190.24493012831675L44.29333945813869,-164.75694243231783A170.6070045455344,170.6070045455344,0,0,0,43.15597998698861,-165.05850899412195Z" fill-rule="evenodd" style="fill: #DB3F29; stroke: #fff; opacity: 1;" id="p-type-functions"></path><path d="M51.14554291892769,-190.24493012831675A197,197,0,0,1,52.45641965818075,-189.88766162298387L45.42859201556195,-164.44753883072747A170.6070045455344,170.6070045455344,0,0,0,44.29333945813869,-164.75694243231783Z" fill-rule="evenodd" style="fill: #DB3F29; stroke: #fff; opacity: 1;" id="p-type-functions"></path><path d="M52.45641965818075,-189.88766162298387A197,197,0,0,1,53.76480118817685,-189.52136067788194L46.56168365838092,-164.13031290683895A170.6070045455344,170.6070045455344,0,0,0,45.42859201556195,-164.44753883072747Z" fill-rule="evenodd" style="fill: #DB3F29; stroke: #fff; opacity: 1;" id="p-type-functions"></path><path d="M53.76480118817685,-189.52136067788194A197,197,0,0,1,55.070625272764026,-189.14604471695094L47.69256048850698,-163.80527975022693A170.6070045455344,170.6070045455344,0,0,0,46.56168365838092,-164.13031290683895Z" fill-rule="evenodd" style="fill: #DB3F29; stroke: #fff; opacity: 1;" id="p-type-functions"></path><path d="M55.070625272764026,-189.14604471695094A197,197,0,0,1,56.37382979744104,-188.76173159295067L48.821168713204095,-163.47245482183493A170.6070045455344,170.6070045455344,0,0,0,47.69256048850698,-163.80527975022693Z" fill-rule="evenodd" style="fill: #DB3F29; stroke: #fff; opacity: 1;" id="p-type-functions"></path><path d="M56.37382979744104,-188.76173159295067A197,197,0,0,1,57.67435277231201,-188.3684395866115L49.94745464764767,-163.13185395323984A170.6070045455344,170.6070045455344,0,0,0,48.821168713204095,-163.47245482183493Z" fill-rule="evenodd" style="fill: #DB3F29; stroke: #fff; opacity: 1;" id="p-type-functions"></path><path d="M57.67435277231201,-188.3684395866115A197,197,0,0,1,58.972132335035056,-187.96618740576486L51.07136471747808,-162.78349334589896A170.6070045455344,170.6070045455344,0,0,0,49.94745464764767,-163.13185395323984Z" fill-rule="evenodd" style="fill: #DB3F29; stroke: #fff; opacity: 1;" id="p-type-functions"></path><path d="M58.972132335035056,-187.96618740576486A197,197,0,0,1,60.267106753764985,-187.55499418445325L52.192845461349194,-162.42738957037918A170.6070045455344,170.6070045455344,0,0,0,51.07136471747808,-162.78349334589896Z" fill-rule="evenodd" style="fill: #DB3F29; stroke: #fff; opacity: 1;" id="p-type-functions"></path><path d="M60.267106753764985,-187.55499418445325A197,197,0,0,1,61.55921443008966,-187.13487948202024L53.31184353347124,-162.06355956556885A170.6070045455344,170.6070045455344,0,0,0,52.192845461349194,-162.42738957037918Z" fill-rule="evenodd" style="fill: #DB3F29; stroke: #fff; opacity: 1;" id="p-type-functions"></path><path d="M61.55921443008966,-187.13487948202024A197,197,0,0,1,62.84839390196008,-186.70586328217993L54.42830570614843,-161.69202063787208A170.6070045455344,170.6070045455344,0,0,0,53.31184353347124,-162.06355956556885Z" fill-rule="evenodd" style="fill: #DB3F29; stroke: #fff; opacity: 1;" id="p-type-functions"></path><path d="M62.84839390196008,-186.70586328217993A197,197,0,0,1,64.13458384661398,-186.2679659920665L55.54217887231081,-161.31279046038546A170.6070045455344,170.6070045455344,0,0,0,54.42830570614843,-161.69202063787208Z" fill-rule="evenodd" style="fill: #DB3F29; stroke: #fff; opacity: 1;" id="p-type-functions"></path><path d="M64.13458384661398,-186.2679659920665A197,197,0,0,1,65.41772308349279,-185.8212084412634L56.65341004804043,-160.92588707205746A170.6070045455344,170.6070045455344,0,0,0,55.54217887231081,-161.31279046038546Z" fill-rule="evenodd" style="fill: #DB3F29; stroke: #fff; opacity: 1;" id="p-type-functions"></path><path d="M65.41772308349279,-185.8212084412634A197,197,0,0,1,66.69775057715177,-185.3656118808126L57.76194637509164,-160.53132887683026A170.6070045455344,170.6070045455344,0,0,0,56.65341004804043,-160.92588707205746Z" fill-rule="evenodd" style="fill: #DB3F29; stroke: #fff; opacity: 1;" id="p-type-functions"></path><path d="M66.69775057715177,-185.3656118808126A197,197,0,0,1,67.9746054401634,-184.90119798220374L58.86773512340541,-160.12913464276443A170.6070045455344,170.6070045455344,0,0,0,57.76194637509164,-160.53132887683026Z" fill-rule="evenodd" style="fill: #DB3F29; stroke: #fff; opacity: 1;" id="p-type-functions"></path><path d="M67.9746054401634,-184.90119798220374A197,197,0,0,1,69.24822693601354,-184.4279888363433L59.970723693617565,-159.71932350114614A170.6070045455344,170.6070045455344,0,0,0,58.86773512340541,-160.12913464276443Z" fill-rule="evenodd" style="fill: #DB3F29; stroke: #fff; opacity: 1;" id="p-type-functions"></path><path d="M69.24822693601354,-184.4279888363433A197,197,0,0,1,70.51855448199053,-183.9460069525037L61.07085961956078,-159.30191494557715A170.6070045455344,170.6070045455344,0,0,0,59.970723693617565,-159.71932350114614Z" fill-rule="evenodd" style="fill: #DB3F29; stroke: #fff; opacity: 1;" id="p-type-functions"></path><path d="M70.51855448199053,-183.9460069525037A197,197,0,0,1,71.78552765206697,-183.45527525725262L62.168090570760285,-158.87692883104754A170.6070045455344,170.6070045455344,0,0,0,61.07085961956078,-159.30191494557715Z" fill-rule="evenodd" style="fill: #DB3F29; stroke: #fff; opacity: 1;" id="p-type-functions"></path><path d="M71.78552765206697,-183.45527525725262A197,197,0,0,1,73.04908617977398,-182.9558170933626L63.262364354923015,-158.44438537299123A170.6070045455344,170.6070045455344,0,0,0,62.168090570760285,-158.87692883104754Z" fill-rule="evenodd" style="fill: #DB3F29; stroke: #fff; opacity: 1;" id="p-type-functions"></path><path d="M73.04908617977398,-182.9558170933626A197,197,0,0,1,74.30916996106797,-182.44765621870047L64.35362892042036,-158.00430514632453A170.6070045455344,170.6070045455344,0,0,0,63.262364354923015,-158.44438537299123Z" fill-rule="evenodd" style="fill: #DB3F29; stroke: #fff; opacity: 1;" id="p-type-functions"></path><path d="M74.30916996106797,-182.44765621870047A197,197,0,0,1,75.56571905718953,-181.93081680509738L65.441832358764,-157.5567090844672A170.6070045455344,170.6070045455344,0,0,0,64.35362892042036,-158.00430514632453Z" fill-rule="evenodd" style="fill: #DB3F29; stroke: #fff; opacity: 1;" id="p-type-functions"></path><path d="M75.56571905718953,-181.93081680509738A197,197,0,0,1,76.81867369751467,-181.40532343719894L66.52692290707517,-157.10161847834692A170.6070045455344,170.6070045455344,0,0,0,65.441832358764,-157.5567090844672Z" fill-rule="evenodd" style="fill: #DB3F29; stroke: #fff; opacity: 1;" id="p-type-functions"></path><path d="M76.81867369751467,-181.40532343719894A197,197,0,0,1,78.06797428239786,-180.87120111129596L67.60884895054677,-156.63905497538647A170.6070045455344,170.6070045455344,0,0,0,66.52692290707517,-157.10161847834692Z" fill-rule="evenodd" style="fill: #DB3F29; stroke: #fff; opacity: 1;" id="p-type-functions"></path><path d="M78.06797428239786,-180.87120111129596A197,197,0,0,1,79.31356138600704,-180.32847523413514L68.6875590248986,-156.16904057847404A170.6070045455344,170.6070045455344,0,0,0,67.60884895054677,-156.63905497538647Z" fill-rule="evenodd" style="fill: #DB3F29; stroke: #fff; opacity: 1;" id="p-type-functions"></path><path d="M79.31356138600704,-180.32847523413514A197,197,0,0,1,80.55537575915041,-179.77717162171086L69.76300181882542,-155.69159764491647A170.6070045455344,170.6070045455344,0,0,0,68.6875590248986,-156.16904057847404Z" fill-rule="evenodd" style="fill: #DB3F29; stroke: #fff; opacity: 1;" id="p-type-functions"></path><path d="M80.55537575915041,-179.77717162171086A197,197,0,0,1,81.79335833209464,-179.21731649803698L70.83512617643754,-155.20674888537602A170.6070045455344,170.6070045455344,0,0,0,69.76300181882542,-155.69159764491647Z" fill-rule="evenodd" style="fill: #DB3F29; stroke: #fff; opacity: 1;" id="p-type-functions"></path><path d="M81.79335833209464,-179.21731649803698A197,197,0,0,1,83.02745021737476,-178.64893649389955L71.90388109969435,-154.7145173627899A170.6070045455344,170.6070045455344,0,0,0,70.83512617643754,-155.20674888537602Z" fill-rule="evenodd" style="fill: #DB3F29; stroke: #fff; opacity: 1;" id="p-type-functions"></path><path d="M83.02745021737476,-178.64893649389955A197,197,0,0,1,84.25759271259521,-178.07205864558995L72.96921575083005,-154.21492649127327A170.6070045455344,170.6070045455344,0,0,0,71.90388109969435,-154.7145173627899Z" fill-rule="evenodd" style="fill: #DB3F29; stroke: #fff; opacity: 1;" id="p-type-functions"></path><path d="M84.25759271259521,-178.07205864558995A197,197,0,0,1,85.48372730322217,-177.4867103936189L74.03107945477183,-153.7080000350055A170.6070045455344,170.6070045455344,0,0,0,72.96921575083005,-154.21492649127327Z" fill-rule="evenodd" style="fill: #DB3F29; stroke: #fff; opacity: 1;" id="p-type-functions"></path><path d="M85.48372730322217,-177.4867103936189A197,197,0,0,1,86.70579566536699,-176.89291958141126L75.08942170155048,-153.1937621070999A170.6070045455344,170.6070045455344,0,0,0,74.03107945477183,-153.7080000350055Z" fill-rule="evenodd" style="fill: #DB3F29; stroke: #fff; opacity: 1;" id="p-type-functions"></path><path d="M86.70579566536699,-176.89291958141126A197,197,0,0,1,87.92373966856037,-176.29071445398145L76.14419214870287,-152.67223716845646A170.6070045455344,170.6070045455344,0,0,0,75.08942170155048,-153.1937621070999Z" fill-rule="evenodd" style="fill: #DB3F29; stroke: #fff; opacity: 1;" id="p-type-functions"></path><path d="M87.92373966856037,-176.29071445398145A197,197,0,0,1,89.13750137851765,-175.68012365659004L77.19534062366671,-152.1434500265985A170.6070045455344,170.6070045455344,0,0,0,76.14419214870287,-152.67223716845646Z" fill-rule="evenodd" style="fill: #DB3F29; stroke: #fff; opacity: 1;" id="p-type-functions"></path><path d="M89.13750137851765,-175.68012365659004A197,197,0,0,1,90.34702305989444,-175.06117623338105L78.24281712616707,-151.6074258344926A170.6070045455344,170.6070045455344,0,0,0,77.19534062366671,-152.1434500265985Z" fill-rule="evenodd" style="fill: #DB3F29; stroke: #fff; opacity: 1;" id="p-type-functions"></path><path d="M90.34702305989444,-175.06117623338105A197,197,0,0,1,91.55224717903295,-174.4339016260006L79.28657183059474,-151.06419008935222A170.6070045455344,170.6070045455344,0,0,0,78.24281712616707,-151.6074258344926Z" fill-rule="evenodd" style="fill: #DB3F29; stroke: #fff; opacity: 1;" id="p-type-functions"></path><path d="M91.55224717903295,-174.4339016260006A197,197,0,0,1,92.75311640669878,-173.79832967219616L80.32655508837635,-150.51376863142468A170.6070045455344,170.6070045455344,0,0,0,79.28657183059474,-151.06419008935222Z" fill-rule="evenodd" style="fill: #DB3F29; stroke: #fff; opacity: 1;" id="p-type-functions"></path><path d="M92.75311640669878,-173.79832967219616A197,197,0,0,1,93.94957362080788,-173.15449060439755L81.36271743033599,-149.9561876427622A170.6070045455344,170.6070045455344,0,0,0,80.32655508837635,-150.51376863142468Z" fill-rule="evenodd" style="fill: #DB3F29; stroke: #fff; opacity: 1;" id="p-type-functions"></path><path d="M93.94957362080788,-173.15449060439755A197,197,0,0,1,95.14156190914368,-172.5024150482786L82.39500956904831,-149.3914736459763A170.6070045455344,170.6070045455344,0,0,0,81.36271743033599,-149.9561876427622Z" fill-rule="evenodd" style="fill: #DB3F29; stroke: #fff; opacity: 1;" id="p-type-functions"></path><path d="M95.14156190914368,-172.5024150482786A197,197,0,0,1,96.32902457206424,-171.84213402130064L83.42338240118305,-148.81965350297648A170.6070045455344,170.6070045455344,0,0,0,82.39500956904831,-149.3914736459763Z" fill-rule="evenodd" style="fill: #DB3F29; stroke: #fff; opacity: 1;" id="p-type-functions"></path><path d="M96.32902457206424,-171.84213402130064A197,197,0,0,1,97.51190512519933,-171.17367893123676L84.44778700984062,-148.24075441369217A170.6070045455344,170.6070045455344,0,0,0,83.42338240118305,-148.81965350297648Z" fill-rule="evenodd" style="fill: #DB3F29; stroke: #fff; opacity: 1;" id="p-type-functions"></path><path d="M97.51190512519933,-171.17367893123676A197,197,0,0,1,98.69014730213726,-170.49708157467813L85.46817466687915,-147.654803914779A170.6070045455344,170.6070045455344,0,0,0,84.44778700984062,-148.24075441369217Z" fill-rule="evenodd" style="fill: #DB3F29; stroke: #fff; opacity: 1;" id="p-type-functions"></path><path d="M98.69014730213726,-170.49708157467813A197,197,0,0,1,99.86369505710121,-169.8123741355214L86.48449683523212,-147.06182987830908A170.6070045455344,170.6070045455344,0,0,0,85.46817466687915,-147.654803914779Z" fill-rule="evenodd" style="fill: #DB3F29; stroke: #fff; opacity: 1;" id="p-type-functions"></path><path d="M99.86369505710121,-169.8123741355214A197,197,0,0,1,101.03249256761532,-169.11958918343774L87.49670517121736,-146.46186051044504A170.6070045455344,170.6070045455344,0,0,0,86.48449683523212,-147.06182987830908Z" fill-rule="evenodd" style="fill: #DB3F29; stroke: #fff; opacity: 1;" id="p-type-functions"></path><path d="M101.03249256761532,-169.11958918343774A197,197,0,0,1,102.1964842371599,-168.41875967232372L88.50475152683642,-145.85492435009849A170.6070045455344,170.6070045455344,0,0,0,87.49670517121736,-146.46186051044504Z" fill-rule="evenodd" style="fill: #DB3F29; stroke: #fff; opacity: 1;" id="p-type-functions"></path><path d="M102.1964842371599,-168.41875967232372A197,197,0,0,1,103.35561469781605,-167.70991893873358L89.508587952065,-145.24105026757223A170.6070045455344,170.6070045455344,0,0,0,88.50475152683642,-145.85492435009849Z" fill-rule="evenodd" style="fill: #DB3F29; stroke: #fff; opacity: 1;" id="p-type-functions"></path><path d="M103.35561469781605,-167.70991893873358A197,197,0,0,1,104.50982881289937,-166.9931007002938L90.50816669713373,-144.62026746318736A170.6070045455344,170.6070045455344,0,0,0,89.508587952065,-145.24105026757223Z" fill-rule="evenodd" style="fill: #DB3F29; stroke: #fff; opacity: 1;" id="p-type-functions"></path><path d="M104.50982881289937,-166.9931007002938A197,197,0,0,1,105.65907167958268,-166.26833905409896L91.50344021479953,-143.992605465894A170.6070045455344,170.6070045455344,0,0,0,90.50816669713373,-144.62026746318736Z" fill-rule="evenodd" style="fill: #DB3F29; stroke: #fff; opacity: 1;" id="p-type-functions"></path><path d="M105.65907167958268,-166.26833905409896A197,197,0,0,1,106.80328863150748,-165.53566847509L92.4943611626072,-143.35809413186678A170.6070045455344,170.6070045455344,0,0,0,91.50344021479953,-143.992605465894Z" fill-rule="evenodd" style="fill: #DB3F29; stroke: #fff; opacity: 1;" id="p-type-functions"></path><path d="M106.80328863150748,-165.53566847509A197,197,0,0,1,107.94242524138451,-164.7951238144142L93.4808824051416,-142.71676364308462A170.6070045455344,170.6070045455344,0,0,0,92.4943611626072,-143.35809413186678Z" fill-rule="evenodd" style="fill: #DB3F29; stroke: #fff; opacity: 1;" id="p-type-functions"></path><path d="M107.94242524138451,-164.7951238144142A197,197,0,0,1,109.07642732358246,-164.04674029776768L94.46295701626947,-142.0686445058952A170.6070045455344,170.6070045455344,0,0,0,93.4808824051416,-142.71676364308462Z" fill-rule="evenodd" style="fill: #DB3F29; stroke: #fff; opacity: 1;" id="p-type-functions"></path><path d="M109.07642732358246,-164.04674029776768A197,197,0,0,1,110.20524093670556,-163.29055352371944L95.44053828137177,-141.4137675495636A170.6070045455344,170.6070045455344,0,0,0,94.46295701626947,-142.0686445058952Z" fill-rule="evenodd" style="fill: #DB3F29; stroke: #fff; opacity: 1;" id="p-type-functions"></path><path d="M110.20524093670556,-163.29055352371944A197,197,0,0,1,111.32881238615941,-162.52659946201828L96.41357969956572,-140.7521639248061A170.6070045455344,170.6070045455344,0,0,0,95.44053828137177,-141.4137675495636Z" fill-rule="evenodd" style="fill: #DB3F29; stroke: #fff; opacity: 1;" id="p-type-functions"></path><path d="M111.32881238615941,-162.52659946201828A197,197,0,0,1,112.44708822670509,-161.7549144518818L97.38203498591668,-140.08386510230827A170.6070045455344,170.6070045455344,0,0,0,96.41357969956572,-140.7521639248061Z" fill-rule="evenodd" style="fill: #DB3F29; stroke: #fff; opacity: 1;" id="p-type-functions"></path><path d="M112.44708822670509,-161.7549144518818A197,197,0,0,1,113.56001526500141,-160.97553520026776L98.34585807363986,-139.408902871228A170.6070045455344,170.6070045455344,0,0,0,97.38203498591668,-140.08386510230827Z" fill-rule="evenodd" style="fill: #DB3F29; stroke: #fff; opacity: 1;" id="p-type-functions"></path><path d="M113.56001526500141,-160.97553520026776A197,197,0,0,1,114.66754056213516,-160.18849878012804L99.3050031162916,-138.72730933768347A170.6070045455344,170.6070045455344,0,0,0,98.34585807363986,-139.408902871228Z" fill-rule="evenodd" style="fill: #DB3F29; stroke: #fff; opacity: 1;" id="p-type-functions"></path><path d="M114.66754056213516,-160.18849878012804A197,197,0,0,1,115.76961143613924,-159.3938426286453L100.25942448995005,-138.0391169232258A170.6070045455344,170.6070045455344,0,0,0,99.3050031162916,-138.72730933768347Z" fill-rule="evenodd" style="fill: #DB3F29; stroke: #fff; opacity: 1;" id="p-type-functions"></path><path d="M115.76961143613924,-159.3938426286453A197,197,0,0,1,116.86617546449864,-158.59160454545193L101.2090767953855,-137.34435836329703A170.6070045455344,170.6070045455344,0,0,0,100.25942448995005,-138.0391169232258Z" fill-rule="evenodd" style="fill: #DB3F29; stroke: #fff; opacity: 1;" id="p-type-functions"></path><path d="M116.86617546449864,-158.59160454545193A197,197,0,0,1,117.95718048664405,-157.78182269083243L102.15391486021981,-136.64306670567285A170.6070045455344,170.6070045455344,0,0,0,101.2090767953855,-137.34435836329703Z" fill-rule="evenodd" style="fill: #DB3F29; stroke: #fff; opacity: 1;" id="p-type-functions"></path><path d="M117.95718048664405,-157.78182269083243A197,197,0,0,1,119.04257460643291,-156.9645355839078L103.09389374107522,-135.93527530889062A170.6070045455344,170.6070045455344,0,0,0,102.15391486021981,-136.64306670567285Z" fill-rule="evenodd" style="fill: #DB3F29; stroke: #fff; opacity: 1;" id="p-type-functions"></path><path d="M119.04257460643291,-156.9645355839078A197,197,0,0,1,120.1223061946181,-156.13978210080353L104.02896872571212,-135.22101784066265A170.6070045455344,170.6070045455344,0,0,0,103.09389374107522,-135.93527530889062Z" fill-rule="evenodd" style="fill: #DB3F29; stroke: #fff; opacity: 1;" id="p-type-functions"></path><path d="M120.1223061946181,-156.13978210080353A197,197,0,0,1,121.19632389130373,-155.30760147280043L104.95909533515592,-134.50032827627467A170.6070045455344,170.6070045455344,0,0,0,104.02896872571212,-135.22101784066265Z" fill-rule="evenodd" style="fill: #DB3F29; stroke: #fff; opacity: 1;" id="p-type-functions"></path><path d="M121.19632389130373,-155.30760147280043A197,197,0,0,1,122.2645766083881,-154.46803328446828L105.88422932581274,-133.77324089696972A170.6070045455344,170.6070045455344,0,0,0,104.95909533515592,-134.50032827627467Z" fill-rule="evenodd" style="fill: #DB3F29; stroke: #fff; opacity: 1;" id="p-type-functions"></path><path d="M122.2645766083881,-154.46803328446828A197,197,0,0,1,123.32701353199403,-153.62111747178304L106.80432669157406,-133.0397902883176A170.6070045455344,170.6070045455344,0,0,0,105.88422932581274,-133.77324089696972Z" fill-rule="evenodd" style="fill: #DB3F29; stroke: #fff; opacity: 1;" id="p-type-functions"></path><path d="M123.32701353199403,-153.62111747178304A197,197,0,0,1,124.38358412488576,-152.7668943202272L107.71934366590988,-132.30001133856945A170.6070045455344,170.6070045455344,0,0,0,106.80432669157406,-133.0397902883176Z" fill-rule="evenodd" style="fill: #DB3F29; stroke: #fff; opacity: 1;" id="p-type-functions"></path><path d="M124.38358412488576,-152.7668943202272A197,197,0,0,1,125.4342381288729,-151.90540446287355L108.6292367239506,-131.55393923699853A170.6070045455344,170.6070045455344,0,0,0,107.71934366590988,-132.30001133856945Z" fill-rule="evenodd" style="fill: #DB3F29; stroke: #fff; opacity: 1;" id="p-type-functions"></path><path d="M125.4342381288729,-151.90540446287355A197,197,0,0,1,126.47892556720126,-151.0366888784522L109.53396258455743,-130.8016094722262A170.6070045455344,170.6070045455344,0,0,0,108.6292367239506,-131.55393923699853Z" fill-rule="evenodd" style="fill: #DB3F29; stroke: #fff; opacity: 1;" id="p-type-functions"></path><path d="M126.47892556720126,-151.0366888784522A197,197,0,0,1,127.51759674692973,-150.16078888940154L110.43347821238103,-130.04305783053383A170.6070045455344,170.6070045455344,0,0,0,109.53396258455743,-130.8016094722262Z" fill-rule="evenodd" style="fill: #DB3F29; stroke: #fff; opacity: 1;" id="p-type-functions"></path><path d="M127.51759674692973,-150.16078888940154A197,197,0,0,1,128.55020226129446,-149.2777461599025L111.32774081990878,-129.27832039416052A170.6070045455344,170.6070045455344,0,0,0,110.43347821238103,-130.04305783053383Z" fill-rule="evenodd" style="fill: #DB3F29; stroke: #fff; opacity: 1;" id="p-type-functions"></path><path d="M128.55020226129446,-149.2777461599025A197,197,0,0,1,129.57669299205867,-148.3876026938968L112.21670786949986,-128.50743353958686A170.6070045455344,170.6070045455344,0,0,0,111.32774081990878,-129.27832039416052Z" fill-rule="evenodd" style="fill: #DB3F29; stroke: #fff; opacity: 1;" id="p-type-functions"></path><path d="M129.57669299205867,-148.3876026938968A197,197,0,0,1,130.5970201118493,-147.49040083308887L113.10033707540875,-127.7304339358045A170.6070045455344,170.6070045455344,0,0,0,112.21670786949986,-128.50743353958686Z" fill-rule="evenodd" style="fill: #DB3F29; stroke: #fff; opacity: 1;" id="p-type-functions"></path><path d="M130.5970201118493,-147.49040083308887A197,197,0,0,1,131.61113508647952,-146.58618325493177L113.97858640579673,-126.947358542572A170.6070045455344,170.6070045455344,0,0,0,113.10033707540875,-127.7304339358045Z" fill-rule="evenodd" style="fill: #DB3F29; stroke: #fff; opacity: 1;" id="p-type-functions"></path><path d="M131.61113508647952,-146.58618325493177A197,197,0,0,1,132.61898967725725,-145.67499297059717L114.851414084731,-126.15824460865669A170.6070045455344,170.6070045455344,0,0,0,113.97858640579673,-126.947358542572Z" fill-rule="evenodd" style="fill: #DB3F29; stroke: #fff; opacity: 1;" id="p-type-functions"></path><path d="M132.61898967725725,-145.67499297059717A197,197,0,0,1,133.62053594327992,-144.75687332292944L115.7187785941721,-125.36312967006279A170.6070045455344,170.6070045455344,0,0,0,114.851414084731,-126.15824460865669Z" fill-rule="evenodd" style="fill: #DB3F29; stroke: #fff; opacity: 1;" id="p-type-functions"></path><path d="M133.62053594327992,-144.75687332292944A197,197,0,0,1,134.61572624371482,-143.83186798438388L116.58063867594858,-124.5620515482461A170.6070045455344,170.6070045455344,0,0,0,115.7187785941721,-125.36312967006279Z" fill-rule="evenodd" style="fill: #DB3F29; stroke: #fff; opacity: 1;" id="p-type-functions"></path><path d="M134.61572624371482,-143.83186798438388A197,197,0,0,1,135.60451324006524,-142.90002095494938L117.43695333371976,-123.75504834831479A170.6070045455344,170.6070045455344,0,0,0,116.58063867594858,-124.5620515482461Z" fill-rule="evenodd" style="fill: #DB3F29; stroke: #fff; opacity: 1;" id="p-type-functions"></path><path d="M135.60451324006524,-142.90002095494938A197,197,0,0,1,136.58684989842217,-141.96137656005556L118.28768183492556,-122.94215845721685A170.6070045455344,170.6070045455344,0,0,0,117.43695333371976,-123.75504834831479Z" fill-rule="evenodd" style="fill: #DB3F29; stroke: #fff; opacity: 1;" id="p-type-functions"></path><path d="M136.58684989842217,-141.96137656005556A197,197,0,0,1,137.56268949170175,-141.0159794484641L119.13278371272436,-122.12342054191421A170.6070045455344,170.6070045455344,0,0,0,118.28768183492556,-122.94215845721685Z" fill-rule="evenodd" style="fill: #DB3F29; stroke: #fff; opacity: 1;" id="p-type-functions"></path><path d="M194.74905614795085,29.69520381277558A197,197,0,0,1,194.5396205622378,31.037655058018604L168.47625344948347,26.879397754142687A170.6070045455344,170.6070045455344,0,0,0,168.65762998716747,25.716800872420176Z" fill-rule="evenodd" style="fill: #1DC690; stroke: #fff; opacity: 1;" id="p-type-logs"></path><path d="M194.5396205622378,31.037655058018604A197,197,0,0,1,194.3209312557173,32.37862992640023L168.28686295450072,28.040716055997667A170.6070045455344,170.6070045455344,0,0,0,168.47625344948347,26.879397754142687Z" fill-rule="evenodd" style="fill: #1DC690; stroke: #fff; opacity: 1;" id="p-type-logs"></path><path d="M194.3209312557173,32.37862992640023A197,197,0,0,1,194.0929986308452,33.718064631392004L168.08946751101018,29.200700537231057A170.6070045455344,170.6070045455344,0,0,0,168.28686295450072,28.040716055997667Z" fill-rule="evenodd" style="fill: #1DC690; stroke: #fff; opacity: 1;" id="p-type-logs"></path><path d="M194.0929986308452,33.718064631392004A197,197,0,0,1,193.8558335297566,35.05589545972686L167.88407650857638,30.359296020535027A170.6070045455344,170.6070045455344,0,0,0,168.08946751101018,29.200700537231057Z" fill-rule="evenodd" style="fill: #1DC690; stroke: #fff; opacity: 1;" id="p-type-logs"></path><path d="M193.8558335297566,35.05589545972686A197,197,0,0,1,193.60944723375056,36.392058774429806L167.6706997170908,31.516447394672596A170.6070045455344,170.6070045455344,0,0,0,167.88407650857638,30.359296020535027Z" fill-rule="evenodd" style="fill: #1DC690; stroke: #fff; opacity: 1;" id="p-type-logs"></path><path d="M193.60944723375056,36.392058774429806A197,197,0,0,1,193.3538514627533,37.72649101784489L167.4493472863073,32.67209961709912A170.6070045455344,170.6070045455344,0,0,0,167.6706997170908,31.516447394672596Z" fill-rule="evenodd" style="fill: #1DC690; stroke: #fff; opacity: 1;" id="p-type-logs"></path><path d="M193.3538514627533,37.72649101784489A197,197,0,0,1,193.08905837476067,39.05912871465856L167.22002974535917,33.826197716580545A170.6070045455344,170.6070045455344,0,0,0,167.4493472863073,32.67209961709912Z" fill-rule="evenodd" style="fill: #1DC690; stroke: #fff; opacity: 1;" id="p-type-logs"></path><path d="M193.08905837476067,39.05912871465856A197,197,0,0,1,192.8150805652599,40.38990847491895L166.98275800225827,34.9786867958082A170.6070045455344,170.6070045455344,0,0,0,167.22002974535917,33.826197716580545Z" fill-rule="evenodd" style="fill: #1DC690; stroke: #fff; opacity: 1;" id="p-type-logs"></path><path d="M192.8150805652599,40.38990847491895A197,197,0,0,1,192.53193106663048,41.71876699705116L166.73754334337636,36.12951203401015A170.6070045455344,170.6070045455344,0,0,0,166.98275800225827,34.9786867958082Z" fill-rule="evenodd" style="fill: #1DC690; stroke: #fff; opacity: 1;" id="p-type-logs"></path><path d="M192.53193106663048,41.71876699705116A197,197,0,0,1,192.2396233475242,43.045641070868406L166.48439743290803,37.278618689558826A170.6070045455344,170.6070045455344,0,0,0,166.73754334337636,36.12951203401015Z" fill-rule="evenodd" style="fill: #1DC690; stroke: #fff; opacity: 1;" id="p-type-logs"></path><path d="M192.2396233475242,43.045641070868406A197,197,0,0,1,191.93817131222443,44.3704675805787L166.22333231231593,38.42595210257501A170.6070045455344,170.6070045455344,0,0,0,166.48439743290803,37.278618689558826Z" fill-rule="evenodd" style="fill: #1DC690; stroke: #fff; opacity: 1;" id="p-type-logs"></path><path d="M191.93817131222443,44.3704675805787A197,197,0,0,1,191.62758929998492,45.6931835077871L165.954360399758,39.57145769752777A170.6070045455344,170.6070045455344,0,0,0,166.22333231231593,38.42595210257501Z" fill-rule="evenodd" style="fill: #1DC690; stroke: #fff; opacity: 1;" id="p-type-logs"></path><path d="M191.62758929998492,45.6931835077871A197,197,0,0,1,191.30789208434751,47.01372593449333L165.67749448949687,40.71508098583052A170.6070045455344,170.6070045455344,0,0,0,165.954360399758,39.57145769752777Z" fill-rule="evenodd" style="fill: #1DC690; stroke: #fff; opacity: 1;" id="p-type-logs"></path><path d="M191.30789208434751,47.01372593449333A197,197,0,0,1,190.9790948724395,48.332032046084656L165.39274775129104,41.856767568432886A170.6070045455344,170.6070045455344,0,0,0,165.67749448949687,40.71508098583052Z" fill-rule="evenodd" style="fill: #1DC690; stroke: #fff; opacity: 1;" id="p-type-logs"></path><path d="M190.9790948724395,48.332032046084656A197,197,0,0,1,190.6412133042503,49.648039134323746L165.10013372976866,42.99646313840833A170.6070045455344,170.6070045455344,0,0,0,165.39274775129104,41.856767568432886Z" fill-rule="evenodd" style="fill: #1DC690; stroke: #fff; opacity: 1;" id="p-type-logs"></path><path d="M190.6412133042503,49.648039134323746A197,197,0,0,1,190.29426345188742,50.96168460033155L164.79966634378314,44.13411348353734A170.6070045455344,170.6070045455344,0,0,0,165.10013372976866,42.99646313840833Z" fill-rule="evenodd" style="fill: #1DC690; stroke: #fff; opacity: 1;" id="p-type-logs"></path><path d="M190.29426345188742,50.96168460033155A197,197,0,0,1,189.93826181881198,52.272905957565L164.49135988575108,45.26966448888622A170.6070045455344,170.6070045455344,0,0,0,164.79966634378314,44.13411348353734Z" fill-rule="evenodd" style="fill: #1DC690; stroke: #fff; opacity: 1;" id="p-type-logs"></path><path d="M189.93826181881198,52.272905957565A197,197,0,0,1,189.57322533905372,53.581640834789276L164.17522902097238,46.40306213938115A170.6070045455344,170.6070045455344,0,0,0,164.49135988575108,45.26966448888622Z" fill-rule="evenodd" style="fill: #1DC690; stroke: #fff; opacity: 1;" id="p-type-logs"></path><path d="M189.57322533905372,53.581640834789276A197,197,0,0,1,189.1991713764055,54.88782697904463L163.85128878693277,47.534252522377535A170.6070045455344,170.6070045455344,0,0,0,164.17522902097238,46.40306213938115Z" fill-rule="evenodd" style="fill: #1DC690; stroke: #fff; opacity: 1;" id="p-type-logs"></path><path d="M189.1991713764055,54.88782697904463A197,197,0,0,1,188.81611772359727,56.19140225860764L163.51955459258843,48.663181830224495A170.6070045455344,170.6070045455344,0,0,0,163.85128878693277,47.534252522377535Z" fill-rule="evenodd" style="fill: #1DC690; stroke: #fff; opacity: 1;" id="p-type-logs"></path><path d="M188.81611772359727,56.19140225860764A197,197,0,0,1,188.42408260144978,57.49230466594661L163.18004221763297,49.789796362824376A170.6070045455344,170.6070045455344,0,0,0,163.51955459258843,48.663181830224495Z" fill-rule="evenodd" style="fill: #1DC690; stroke: #fff; opacity: 1;" id="p-type-logs"></path><path d="M188.42408260144978,57.49230466594661A197,197,0,0,1,188.0230846580079,58.79047232067109L162.83276781174698,50.91404253018705A170.6070045455344,170.6070045455344,0,0,0,163.18004221763297,49.789796362824376Z" fill-rule="evenodd" style="fill: #1DC690; stroke: #fff; opacity: 1;" id="p-type-logs"></path><path d="M188.0230846580079,58.79047232067109A197,197,0,0,1,187.6131429676535,60.085843472475425L162.4777478938297,52.035866854979105A170.6070045455344,170.6070045455344,0,0,0,162.83276781174698,50.91404253018705Z" fill-rule="evenodd" style="fill: #1DC690; stroke: #fff; opacity: 1;" id="p-type-logs"></path><path d="M187.6131429676535,60.085843472475425A197,197,0,0,1,187.19427703019812,61.37835650407594L162.11499935121338,53.15521597506759A170.6070045455344,170.6070045455344,0,0,0,162.4777478938297,52.035866854979105Z" fill-rule="evenodd" style="fill: #1DC690; stroke: #fff; opacity: 1;" id="p-type-logs"></path><path d="M187.19427703019812,61.37835650407594A197,197,0,0,1,186.7665067699556,62.66794993414201L161.7445394388599,54.27203664605832A170.6070045455344,170.6070045455344,0,0,0,162.11499935121338,53.15521597506759Z" fill-rule="evenodd" style="fill: #1DC690; stroke: #fff; opacity: 1;" id="p-type-logs"></path><path d="M186.7665067699556,62.66794993414201A197,197,0,0,1,186.32985253479413,63.95456242022049L161.36638577853998,55.386275743828534A170.6070045455344,170.6070045455344,0,0,0,161.7445394388599,54.27203664605832Z" fill-rule="evenodd" style="fill: #1DC690; stroke: #fff; opacity: 1;" id="p-type-logs"></path><path d="M186.32985253479413,63.95456242022049A197,197,0,0,1,185.8843350951684,65.23813276165366L160.9805563579951,56.49788026705392A170.6070045455344,170.6070045455344,0,0,0,161.36638577853998,55.386275743828534Z" fill-rule="evenodd" style="fill: #1DC690; stroke: #fff; opacity: 1;" id="p-type-logs"></path><path d="M185.8843350951684,65.23813276165366A197,197,0,0,1,185.4299756431317,66.51859990249032L160.58706953008175,57.606797339729695A170.6070045455344,170.6070045455344,0,0,0,160.9805563579951,56.49788026705392Z" fill-rule="evenodd" style="fill: #1DC690; stroke: #fff; opacity: 1;" id="p-type-logs"></path><path d="M185.4299756431317,66.51859990249032A197,197,0,0,1,184.96679579132777,67.79590293439011L160.18594401189844,58.71297421368581A170.6070045455344,170.6070045455344,0,0,0,160.58706953008175,57.606797339729695Z" fill-rule="evenodd" style="fill: #1DC690; stroke: #fff; opacity: 1;" id="p-type-logs"></path><path d="M184.96679579132777,67.79590293439011A197,197,0,0,1,184.49481757196284,69.06998109952073L159.77719888389547,59.816358271095986A170.6070045455344,170.6070045455344,0,0,0,160.18594401189844,58.71297421368581Z" fill-rule="evenodd" style="fill: #1DC690; stroke: #fff; opacity: 1;" id="p-type-logs"></path><path d="M184.49481757196284,69.06998109952073A197,197,0,0,1,184.0140634357575,70.34077379344802L159.3608535889672,60.91689702698068A170.6070045455344,170.6070045455344,0,0,0,159.77719888389547,59.816358271095986Z" fill-rule="evenodd" style="fill: #1DC690; stroke: #fff; opacity: 1;" id="p-type-logs"></path><path d="M184.0140634357575,70.34077379344802A197,197,0,0,1,183.5245562508788,71.60822056801872L158.93692793152724,62.01453813170356A170.6070045455344,170.6070045455344,0,0,0,159.3608535889672,60.91689702698068Z" fill-rule="evenodd" style="fill: #1DC690; stroke: #fff; opacity: 1;" id="p-type-logs"></path><path d="M183.5245562508788,71.60822056801872A197,197,0,0,1,183.02631930185268,72.8722611342359L158.50544207656657,63.1092293734617A170.6070045455344,170.6070045455344,0,0,0,158.93692793152724,62.01453813170356Z" fill-rule="evenodd" style="fill: #1DC690; stroke: #fff; opacity: 1;" id="p-type-logs"></path><path d="M183.02631930185268,72.8722611342359A197,197,0,0,1,182.51937628845607,74.13283536512668L158.06641654869406,64.20091868076913A170.6070045455344,170.6070045455344,0,0,0,158.50544207656657,63.1092293734617Z" fill-rule="evenodd" style="fill: #1DC690; stroke: #fff; opacity: 1;" id="p-type-logs"></path><path d="M182.51937628845607,74.13283536512668A197,197,0,0,1,182.00375132458979,75.38988329860233L157.61987223116043,65.28955412493379A170.6070045455344,170.6070045455344,0,0,0,158.06641654869406,64.20091868076913Z" fill-rule="evenodd" style="fill: #1DC690; stroke: #fff; opacity: 1;" id="p-type-logs"></path><path d="M182.00375132458979,75.38988329860233A197,197,0,0,1,181.4794689371314,76.6433451403105L157.16583036486472,66.3750839225275A170.6070045455344,170.6070045455344,0,0,0,157.61987223116043,65.28955412493379Z" fill-rule="evenodd" style="fill: #1DC690; stroke: #fff; opacity: 1;" id="p-type-logs"></path><path d="M181.4794689371314,76.6433451403105A197,197,0,0,1,180.94655406476858,77.89316126647948L156.70431254734396,67.45745643784929A170.6070045455344,170.6070045455344,0,0,0,157.16583036486472,66.3750839225275Z" fill-rule="evenodd" style="fill: #1DC690; stroke: #fff; opacity: 1;" id="p-type-logs"></path><path d="M180.94655406476858,77.89316126647948A197,197,0,0,1,180.40503205681284,79.13927222675433L156.23534073174594,68.53662018538152A170.6070045455344,170.6070045455344,0,0,0,156.70431254734396,67.45745643784929Z" fill-rule="evenodd" style="fill: #1DC690; stroke: #fff; opacity: 1;" id="p-type-logs"></path><path d="M180.40503205681284,79.13927222675433A197,197,0,0,1,179.85492867199375,80.38161874702477L155.7589372257848,69.61252383223894A170.6070045455344,170.6070045455344,0,0,0,156.23534073174594,68.53662018538152Z" fill-rule="evenodd" style="fill: #1DC690; stroke: #fff; opacity: 1;" id="p-type-logs"></path><path d="M179.85492867199375,80.38161874702477A197,197,0,0,1,179.29627007723357,81.6201417322447L155.27512469067997,70.68511620061034A170.6070045455344,170.6070045455344,0,0,0,155.7589372257848,69.61252383223894Z" fill-rule="evenodd" style="fill: #1DC690; stroke: #fff; opacity: 1;" id="p-type-logs"></path><path d="M179.29627007723357,81.6201417322447A197,197,0,0,1,178.72908284640275,82.85478226924323L154.78392614007834,71.75434627019311A170.6070045455344,170.6070045455344,0,0,0,155.27512469067997,70.68511620061034Z" fill-rule="evenodd" style="fill: #1DC690; stroke: #fff; opacity: 1;" id="p-type-logs"></path><path d="M178.72908284640275,82.85478226924323A197,197,0,0,1,178.15339395905568,84.08548162952688L154.28536493895936,72.82016318062001A170.6070045455344,170.6070045455344,0,0,0,154.78392614007834,71.75434627019311Z" fill-rule="evenodd" style="fill: #1DC690; stroke: #fff; opacity: 1;" id="p-type-logs"></path><path d="M178.15339395905568,84.08548162952688A197,197,0,0,1,177.56923079914748,85.31218127207332L153.77946480252385,73.88251623387852A170.6070045455344,170.6070045455344,0,0,0,154.28536493895936,72.82016318062001Z" fill-rule="evenodd" style="fill: #1DC690; stroke: #fff; opacity: 1;" id="p-type-logs"></path><path d="M177.56923079914748,85.31218127207332A197,197,0,0,1,176.97662115373132,86.53482284611587L153.2662497950658,74.94135489672236A170.6070045455344,170.6070045455344,0,0,0,153.77946480252385,73.88251623387852Z" fill-rule="evenodd" style="fill: #1DC690; stroke: #fff; opacity: 1;" id="p-type-logs"></path><path d="M176.97662115373132,86.53482284611587A197,197,0,0,1,176.3755932116368,87.75334819391917L152.74574432882767,75.99662880307528A170.6070045455344,170.6070045455344,0,0,0,153.2662497950658,74.94135489672236Z" fill-rule="evenodd" style="fill: #1DC690; stroke: #fff; opacity: 1;" id="p-type-logs"></path><path d="M176.3755932116368,87.75334819391917A197,197,0,0,1,175.76617556212895,88.96769935354551L152.21797316283926,77.04828775642679A170.6070045455344,170.6070045455344,0,0,0,152.74574432882767,75.99662880307528Z" fill-rule="evenodd" style="fill: #1DC690; stroke: #fff; opacity: 1;" id="p-type-logs"></path><path d="M175.76617556212895,88.96769935354551A197,197,0,0,1,175.1483971935484,90.17781856161199L151.68296140173996,78.09628173221986A170.6070045455344,170.6070045455344,0,0,0,152.21797316283926,77.04828775642679Z" fill-rule="evenodd" style="fill: #1DC690; stroke: #fff; opacity: 1;" id="p-type-logs"></path><path d="M175.1483971935484,90.17781856161199A197,197,0,0,1,174.5222874919324,91.38364825603813L151.14073449458465,79.14056088023054A170.6070045455344,170.6070045455344,0,0,0,151.68296140173996,78.09628173221986Z" fill-rule="evenodd" style="fill: #1DC690; stroke: #fff; opacity: 1;" id="p-type-logs"></path><path d="M174.5222874919324,91.38364825603813A197,197,0,0,1,173.8878762396171,92.58513107878396L150.5913182336329,80.18107552693905A170.6070045455344,170.6070045455344,0,0,0,151.14073449458465,79.14056088023054Z" fill-rule="evenodd" style="fill: #1DC690; stroke: #fff; opacity: 1;" id="p-type-logs"></path><path d="M173.8878762396171,92.58513107878396A197,197,0,0,1,173.2451936138209,93.78220987857834L150.03473875312247,81.21777617789279A170.6070045455344,170.6070045455344,0,0,0,150.5913182336329,80.18107552693905Z" fill-rule="evenodd" style="fill: #1DC690; stroke: #fff; opacity: 1;" id="p-type-logs"></path><path d="M173.2451936138209,93.78220987857834A197,197,0,0,1,172.5942701852088,94.97482771363758L149.47102252802597,82.25061352006048A170.6070045455344,170.6070045455344,0,0,0,150.03473875312247,81.21777617789279Z" fill-rule="evenodd" style="fill: #1DC690; stroke: #fff; opacity: 1;" id="p-type-logs"></path><path d="M172.5942701852088,94.97482771363758A197,197,0,0,1,171.93513691643855,96.16292785437395L148.90019637279144,83.27953842417804A170.6070045455344,170.6070045455344,0,0,0,149.47102252802597,82.25061352006048Z" fill-rule="evenodd" style="fill: #1DC690; stroke: #fff; opacity: 1;" id="p-type-logs"></path><path d="M171.93513691643855,96.16292785437395A197,197,0,0,1,171.26782516068755,97.3464537860941L148.32228744006707,84.30450194708534A170.6070045455344,170.6070045455344,0,0,0,148.90019637279144,83.27953842417804Z" fill-rule="evenodd" style="fill: #1DC690; stroke: #fff; opacity: 1;" id="p-type-logs"></path><path d="M171.26782516068755,97.3464537860941A197,197,0,0,1,170.5923666601617,98.52534921168741L147.73732321940952,85.32545533405441A170.6070045455344,170.6070045455344,0,0,0,148.32228744006707,84.30450194708534Z" fill-rule="evenodd" style="fill: #1DC690; stroke: #fff; opacity: 1;" id="p-type-logs"></path><path d="M170.5923666601617,98.52534921168741A197,197,0,0,1,169.90879354458525,99.69955805430386L147.14533153597625,86.34235002110857A170.6070045455344,170.6070045455344,0,0,0,147.73732321940952,85.32545533405441Z" fill-rule="evenodd" style="fill: #1DC690; stroke: #fff; opacity: 1;" id="p-type-logs"></path><path d="M169.90879354458525,99.69955805430386A197,197,0,0,1,169.21713832967276,100.86902446002138L146.54634054920206,87.35513763733243A170.6070045455344,170.6070045455344,0,0,0,147.14533153597625,86.34235002110857Z" fill-rule="evenodd" style="fill: #1DC690; stroke: #fff; opacity: 1;" id="p-type-logs"></path><path d="M169.21713832967276,100.86902446002138A197,197,0,0,1,168.51743391558225,102.0336928005028L145.94037875145955,88.36377000717282A170.6070045455344,170.6070045455344,0,0,0,146.54634054920206,87.35513763733243Z" fill-rule="evenodd" style="fill: #1DC690; stroke: #fff; opacity: 1;" id="p-type-logs"></path><path d="M168.51743391558225,102.0336928005028A197,197,0,0,1,167.80971358535018,103.19350767564183L145.32747496670387,89.36819915273027A170.6070045455344,170.6070045455344,0,0,0,145.94037875145955,88.36377000717282Z" fill-rule="evenodd" style="fill: #1DC690; stroke: #fff; opacity: 1;" id="p-type-logs"></path><path d="M167.80971358535018,103.19350767564183A197,197,0,0,1,167.09401100330842,104.3484139161983L144.7076583491016,90.36837729604136A170.6070045455344,170.6070045455344,0,0,0,145.32747496670387,89.36819915273027Z" fill-rule="evenodd" style="fill: #1DC690; stroke: #fff; opacity: 1;" id="p-type-logs"></path><path d="M167.09401100330842,104.3484139161983A197,197,0,0,1,166.37036021348288,105.49835658642249L144.08095838164402,91.36425686135122A170.6070045455344,170.6070045455344,0,0,0,144.7076583491016,90.36837729604136Z" fill-rule="evenodd" style="fill: #1DC690; stroke: #fff; opacity: 1;" id="p-type-logs"></path><path d="M166.37036021348288,105.49835658642249A197,197,0,0,1,165.63879563797403,106.64328098666823L143.44740487474456,92.3557904773767A170.6070045455344,170.6070045455344,0,0,0,144.08095838164402,91.36425686135122Z" fill-rule="evenodd" style="fill: #1DC690; stroke: #fff; opacity: 1;" id="p-type-logs"></path><path d="M165.63879563797403,106.64328098666823A197,197,0,0,1,164.89935207531965,107.78313265599478L142.80702796482103,93.34293097955958A170.6070045455344,170.6070045455344,0,0,0,143.44740487474456,92.3557904773767Z" fill-rule="evenodd" style="fill: #1DC690; stroke: #fff; opacity: 1;" id="p-type-logs"></path><path d="M164.89935207531965,107.78313265599478A197,197,0,0,1,164.15206469883952,108.91785737475743L142.1598581128618,94.3256314123102A170.6070045455344,170.6070045455344,0,0,0,142.80702796482103,93.34293097955958Z" fill-rule="evenodd" style="fill: #1DC690; stroke: #fff; opacity: 1;" id="p-type-logs"></path><path d="M164.15206469883952,108.91785737475743A197,197,0,0,1,163.39696905496228,110.04740116718655L141.50592610297716,95.30384503124084A170.6070045455344,170.6070045455344,0,0,0,142.1598581128618,94.3256314123102Z" fill-rule="evenodd" style="fill: #1DC690; stroke: #fff; opacity: 1;" id="p-type-logs"></path><path d="M163.39696905496228,110.04740116718655A197,197,0,0,1,162.63410106153472,111.1717103039551L140.8452630409348,96.27752530538935A170.6070045455344,170.6070045455344,0,0,0,141.50592610297716,95.30384503124084Z" fill-rule="evenodd" style="fill: #1DC690; stroke: #fff; opacity: 1;" id="p-type-logs"></path><path d="M162.63410106153472,111.1717103039551A197,197,0,0,1,161.86349700611296,112.2907313047344L140.17790035268027,97.2466259194325A170.6070045455344,170.6070045455344,0,0,0,140.8452630409348,96.27752530538935Z" fill-rule="evenodd" style="fill: #1DC690; stroke: #fff; opacity: 1;" id="p-type-logs"></path><path d="M161.86349700611296,112.2907313047344A197,197,0,0,1,161.0851935442368,113.40441094073798L139.50386978284212,98.21110077588901A170.6070045455344,170.6070045455344,0,0,0,140.17790035268027,97.2466259194325Z" fill-rule="evenodd" style="fill: #1DC690; stroke: #fff; opacity: 1;" id="p-type-logs"></path><path d="M161.0851935442368,113.40441094073798A197,197,0,0,1,160.2992276976857,114.5126962372536L138.82320339322192,99.17090399731232A170.6070045455344,170.6070045455344,0,0,0,139.50386978284212,98.21110077588901Z" fill-rule="evenodd" style="fill: #1DC690; stroke: #fff; opacity: 1;" id="p-type-logs"></path><path d="M160.2992276976857,114.5126962372536A197,197,0,0,1,159.50563685271797,115.61553447616308L138.13593356126913,100.12598992847282A170.6070045455344,170.6070045455344,0,0,0,138.82320339322192,99.17090399731232Z" fill-rule="evenodd" style="fill: #1DC690; stroke: #fff; opacity: 1;" id="p-type-logs"></path><path d="M159.50563685271797,115.61553447616308A197,197,0,0,1,158.70445875829242,116.71287319844994L137.44209297854098,101.0763131385296A170.6070045455344,170.6070045455344,0,0,0,138.13593356126913,100.12598992847282Z" fill-rule="evenodd" style="fill: #1DC690; stroke: #fff; opacity: 1;" id="p-type-logs"></path><path d="M158.70445875829242,116.71287319844994A197,197,0,0,1,157.89573152427263,117.80466020669476L136.74171464914753,102.02182842319142A170.6070045455344,170.6070045455344,0,0,0,137.44209297854098,101.0763131385296Z" fill-rule="evenodd" style="fill: #1DC690; stroke: #fff; opacity: 1;" id="p-type-logs"></path><path d="M157.89573152427263,117.80466020669476A197,197,0,0,1,157.07949361961423,118.89084356755811L136.03483188818157,102.96249080686704A170.6070045455344,170.6070045455344,0,0,0,136.74171464914753,102.02182842319142Z" fill-rule="evenodd" style="fill: #1DC690; stroke: #fff; opacity: 1;" id="p-type-logs"></path><path d="M157.07949361961423,118.89084356755811A197,197,0,0,1,156.25578387053503,119.97137161425071L135.32147832013408,103.89825554480441A170.6070045455344,170.6070045455344,0,0,0,136.03483188818157,102.96249080686704Z" fill-rule="evenodd" style="fill: #1DC690; stroke: #fff; opacity: 1;" id="p-type-logs"></path><path d="M156.25578387053503,119.97137161425071A197,197,0,0,1,155.42464145866816,121.04619294899138L134.6016878772947,104.82907812521933A170.6070045455344,170.6070045455344,0,0,0,135.32147832013408,103.89825554480441Z" fill-rule="evenodd" style="fill: #1DC690; stroke: #fff; opacity: 1;" id="p-type-logs"></path><path d="M155.42464145866816,121.04619294899138A197,197,0,0,1,154.58610591919836,122.11525644545151L133.87549479813774,105.75491427141242A170.6070045455344,170.6070045455344,0,0,0,134.6016878772947,104.82907812521933Z" fill-rule="evenodd" style="fill: #1DC690; stroke: #fff; opacity: 1;" id="p-type-logs"></path><path d="M154.58610591919836,122.11525644545151A197,197,0,0,1,153.74021713898125,123.17851125118736L133.14293362569353,106.67571994387555A170.6070045455344,170.6070045455344,0,0,0,133.87549479813774,105.75491427141242Z" fill-rule="evenodd" style="fill: #1DC690; stroke: #fff; opacity: 1;" id="p-type-logs"></path><path d="M153.74021713898125,123.17851125118736A197,197,0,0,1,152.88701535464625,124.2359067900587L132.4040392059052,107.59145134238648A170.6070045455344,170.6070045455344,0,0,0,133.14293362569353,106.67571994387555Z" fill-rule="evenodd" style="fill: #1DC690; stroke: #fff; opacity: 1;" id="p-type-logs"></path><path d="M152.88701535464625,124.2359067900587A197,197,0,0,1,152.0265411506824,125.28739276463482L131.6588466859713,108.50206490809242A170.6070045455344,170.6070045455344,0,0,0,132.4040392059052,107.59145134238648Z" fill-rule="evenodd" style="fill: #1DC690; stroke: #fff; opacity: 1;" id="p-type-logs"></path><path d="M152.0265411506824,125.28739276463482A197,197,0,0,1,151.158835457508,126.3329191585868L130.90739151267385,109.40751732558198A170.6070045455344,170.6070045455344,0,0,0,131.6588466859713,108.50206490809242Z" fill-rule="evenodd" style="fill: #1DC690; stroke: #fff; opacity: 1;" id="p-type-logs"></path><path d="M151.158835457508,126.3329191585868A197,197,0,0,1,150.28393954952358,127.3724362390668L130.14970943069233,110.3077655249455A170.6070045455344,170.6070045455344,0,0,0,130.90739151267385,109.40751732558198Z" fill-rule="evenodd" style="fill: #1DC690; stroke: #fff; opacity: 1;" id="p-type-logs"></path><path d="M150.28393954952358,127.3724362390668A197,197,0,0,1,149.40189504314876,128.40589455907374L129.38583648090324,111.20276668382388A170.6070045455344,170.6070045455344,0,0,0,130.14970943069233,110.3077655249455Z" fill-rule="evenodd" style="fill: #1DC690; stroke: #fff; opacity: 1;" id="p-type-logs"></path><path d="M58.62797504964885,188.0738167358172A197,197,0,0,1,57.32946136752484,188.4736927512948L49.64876992955507,163.22300586768432A170.6070045455344,170.6070045455344,0,0,0,50.77331576543614,162.8767030799166Z" fill-rule="evenodd" style="fill: #D7A449; stroke: #fff; opacity: 1;" id="p-type-tokenTransfers"></path><path d="M57.32946136752484,188.4736927512948A197,197,0,0,1,56.02822067879929,188.86460358565807L48.52186243668079,163.5615445808575A170.6070045455344,170.6070045455344,0,0,0,49.64876992955507,163.22300586768432Z" fill-rule="evenodd" style="fill: #D7A449; stroke: #fff; opacity: 1;" id="p-type-tokenTransfers"></path><path d="M56.02822067879929,188.86460358565807A197,197,0,0,1,54.72431487995377,189.24653064434148L47.39264689073873,163.89230311606997A170.6070045455344,170.6070045455344,0,0,0,48.52186243668079,163.5615445808575Z" fill-rule="evenodd" style="fill: #D7A449; stroke: #fff; opacity: 1;" id="p-type-tokenTransfers"></path><path d="M54.72431487995377,189.24653064434148A197,197,0,0,1,53.41780599424189,189.61945576011323L46.261177005442136,164.21526574003755A170.6070045455344,170.6070045455344,0,0,0,47.39264689073873,163.89230311606997Z" fill-rule="evenodd" style="fill: #D7A449; stroke: #fff; opacity: 1;" id="p-type-tokenTransfers"></path><path d="M53.41780599424189,189.61945576011323A197,197,0,0,1,52.108756168738985,189.98336119393957L45.12750660173703,164.53041709030637A170.6070045455344,170.6070045455344,0,0,0,46.261177005442136,164.21526574003755Z" fill-rule="evenodd" style="fill: #D7A449; stroke: #fff; opacity: 1;" id="p-type-tokenTransfers"></path><path d="M52.108756168738985,189.98336119393957A197,197,0,0,1,50.79722767138604,190.33822963582847L43.99168960524216,164.83774217598355A170.6070045455344,170.6070045455344,0,0,0,45.12750660173703,164.53041709030637Z" fill-rule="evenodd" style="fill: #D7A449; stroke: #fff; opacity: 1;" id="p-type-tokenTransfers"></path><path d="M50.79722767138604,190.33822963582847A197,197,0,0,1,49.48328288802771,190.68404420565298L42.8537800436838,165.13722637845038A170.6070045455344,170.6070045455344,0,0,0,43.99168960524216,164.83774217598355Z" fill-rule="evenodd" style="fill: #D7A449; stroke: #fff; opacity: 1;" id="p-type-tokenTransfers"></path><path d="M49.48328288802771,190.68404420565298A197,197,0,0,1,48.166984319444765,191.0207884539543L41.713832044325876,165.4288554520576A170.6070045455344,170.6070045455344,0,0,0,42.8537800436838,165.13722637845038Z" fill-rule="evenodd" style="fill: #D7A449; stroke: #fff; opacity: 1;" id="p-type-tokenTransfers"></path><path d="M48.166984319444765,191.0207884539543A197,197,0,0,1,46.84839457838119,191.3484463627241L40.57189983139528,165.71261552480314A170.6070045455344,170.6070045455344,0,0,0,41.713832044325876,165.4288554520576Z" fill-rule="evenodd" style="fill: #D7A449; stroke: #fff; opacity: 1;" id="p-type-tokenTransfers"></path><path d="M46.84839457838119,191.3484463627241A197,197,0,0,1,45.527576386565784,191.66700234616656L39.428037723502506,165.98849309899182A170.6070045455344,170.6070045455344,0,0,0,40.57189983139528,165.71261552480314Z" fill-rule="evenodd" style="fill: #D7A449; stroke: #fff; opacity: 1;" id="p-type-tokenTransfers"></path><path d="M45.527576386565784,191.66700234616656A197,197,0,0,1,44.204592571728696,191.97644125143967L38.28230013105794,166.2564750518776A170.6070045455344,170.6070045455344,0,0,0,39.428037723502506,165.98849309899182Z" fill-rule="evenodd" style="fill: #D7A449; stroke: #fff; opacity: 1;" id="p-type-tokenTransfers"></path><path d="M44.204592571728696,191.97644125143967A197,197,0,0,1,42.879506064612876,192.27674835937609L37.134741553683654,166.51654863628755A170.6070045455344,170.6070045455344,0,0,0,38.28230013105794,166.2564750518776Z" fill-rule="evenodd" style="fill: #D7A449; stroke: #fff; opacity: 1;" id="p-type-tokenTransfers"></path><path d="M42.879506064612876,192.27674835937609A197,197,0,0,1,41.55237989598064,192.56790938518313L35.985416577621024,166.76870148122842A170.6070045455344,170.6070045455344,0,0,0,37.134741553683654,166.51654863628755Z" fill-rule="evenodd" style="fill: #D7A449; stroke: #fff; opacity: 1;" id="p-type-tokenTransfers"></path><path d="M41.55237989598064,192.56790938518313A197,197,0,0,1,40.22327719361543,192.84991047912254L34.83437987313421,167.01292159247492A170.6070045455344,170.6070045455344,0,0,0,35.985416577621024,166.76870148122842Z" fill-rule="evenodd" style="fill: #D7A449; stroke: #fff; opacity: 1;" id="p-type-tokenTransfers"></path><path d="M40.22327719361543,192.84991047912254A197,197,0,0,1,38.89226117931905,193.12273822716898L33.68168619190963,167.24919735314043A170.6070045455344,170.6070045455344,0,0,0,34.83437987313421,167.01292159247492Z" fill-rule="evenodd" style="fill: #D7A449; stroke: #fff; opacity: 1;" id="p-type-tokenTransfers"></path><path d="M38.89226117931905,193.12273822716898A197,197,0,0,1,37.559395165904334,193.38637965164827L32.5273903644516,167.47751752422943A170.6070045455344,170.6070045455344,0,0,0,33.68168619190963,167.24919735314043Z" fill-rule="evenodd" style="fill: #D7A449; stroke: #fff; opacity: 1;" id="p-type-tokenTransfers"></path><path d="M37.559395165904334,193.38637965164827A197,197,0,0,1,36.22474255418356,193.64082221185473L31.371547297474148,167.69787124517217A170.6070045455344,170.6070045455344,0,0,0,32.5273903644516,167.47751752422943Z" fill-rule="evenodd" style="fill: #D7A449; stroke: #fff; opacity: 1;" id="p-type-tokenTransfers"></path><path d="M36.22474255418356,193.64082221185473A197,197,0,0,1,34.888366829952595,193.8860538046475L30.21421197128931,167.91024803434124A170.6070045455344,170.6070045455344,0,0,0,31.371547297474148,167.69787124517217Z" fill-rule="evenodd" style="fill: #D7A449; stroke: #fff; opacity: 1;" id="p-type-tokenTransfers"></path><path d="M34.888366829952595,193.8860538046475A197,197,0,0,1,33.550331560971124,194.12206276502656L29.055439437191815,168.11463778955027A170.6070045455344,170.6070045455344,0,0,0,30.21421197128931,167.91024803434124Z" fill-rule="evenodd" style="fill: #D7A449; stroke: #fff; opacity: 1;" id="p-type-tokenTransfers"></path><path d="M33.550331560971124,194.12206276502656A197,197,0,0,1,32.21070039393885,194.3488378666873L27.89528481484047,168.31103078853425A170.6070045455344,170.6070045455344,0,0,0,29.055439437191815,168.11463778955027Z" fill-rule="evenodd" style="fill: #D7A449; stroke: #fff; opacity: 1;" id="p-type-tokenTransfers"></path><path d="M32.21070039393885,194.3488378666873A197,197,0,0,1,30.86953705146799,194.56636832255478L26.733803289636253,168.4994176894123A170.6070045455344,170.6070045455344,0,0,0,27.89528481484047,168.31103078853425Z" fill-rule="evenodd" style="fill: #D7A449; stroke: #fff; opacity: 1;" id="p-type-tokenTransfers"></path><path d="M30.86953705146799,194.56636832255478A197,197,0,0,1,29.5269053290522,194.77464378529663L25.571050110097328,168.6797895311317A170.6070045455344,170.6070045455344,0,0,0,26.733803289636253,168.4994176894123Z" fill-rule="evenodd" style="fill: #D7A449; stroke: #fff; opacity: 1;" id="p-type-tokenTransfers"></path><path d="M29.5269053290522,194.77464378529663A197,197,0,0,1,28.18286909203198,194.97365434781537L24.40708058523097,168.85213773389438A170.6070045455344,170.6070045455344,0,0,0,25.571050110097328,168.6797895311317Z" fill-rule="evenodd" style="fill: #D7A449; stroke: #fff; opacity: 1;" id="p-type-tokenTransfers"></path><path d="M28.18286909203198,194.97365434781537A197,197,0,0,1,26.837492272556755,195.1633905437197L23.241950081902715,169.01645409956495A170.6070045455344,170.6070045455344,0,0,0,24.40708058523097,168.85213773389438Z" fill-rule="evenodd" style="fill: #D7A449; stroke: #fff; opacity: 1;" id="p-type-tokenTransfers"></path><path d="M26.837492272556755,195.1633905437197A197,197,0,0,1,25.490838866543818,195.3438433477746L22.07571402220267,169.17273081206062A170.6070045455344,170.6070045455344,0,0,0,23.241950081902715,169.01645409956495Z" fill-rule="evenodd" style="fill: #D7A449; stroke: #fff; opacity: 1;" id="p-type-tokenTransfers"></path><path d="M25.490838866543818,195.3438433477746A197,197,0,0,1,24.142972930634222,195.51500417633082L20.908427880809274,169.3209604377231A170.6070045455344,170.6070045455344,0,0,0,22.07571402220267,169.17273081206062Z" fill-rule="evenodd" style="fill: #D7A449; stroke: #fff; opacity: 1;" id="p-type-tokenTransfers"></path><path d="M24.142972930634222,195.51500417633082A197,197,0,0,1,22.793958579145762,195.6768648877332L19.740147182350476,169.46113592567218A170.6070045455344,170.6070045455344,0,0,0,20.908427880809274,169.3209604377231Z" fill-rule="evenodd" style="fill: #D7A449; stroke: #fff; opacity: 1;" id="p-type-tokenTransfers"></path><path d="M22.793958579145762,195.6768648877332A197,197,0,0,1,21.443859981023238,195.82941778270768L18.57092749876261,169.59325060814095A170.6070045455344,170.6070045455344,0,0,0,19.740147182350476,169.46113592567218Z" fill-rule="evenodd" style="fill: #D7A449; stroke: #fff; opacity: 1;" id="p-type-tokenTransfers"></path><path d="M21.443859981023238,195.82941778270768A197,197,0,0,1,20.092741356786114,195.97265560472792L17.400824446646983,169.7172982007932A170.6070045455344,170.6070045455344,0,0,0,18.57092749876261,169.59325060814095Z" fill-rule="evenodd" style="fill: #D7A449; stroke: #fff; opacity: 1;" id="p-type-tokenTransfers"></path><path d="M20.092741356786114,195.97265560472792A197,197,0,0,1,18.74066697547373,196.10657154036014L16.229893684624333,169.83327280302228A170.6070045455344,170.6070045455344,0,0,0,17.400824446646983,169.7172982007932Z" fill-rule="evenodd" style="fill: #D7A449; stroke: #fff; opacity: 1;" id="p-type-tokenTransfers"></path><path d="M18.74066697547373,196.10657154036014A197,197,0,0,1,17.387701151588193,196.2311592195874L15.058190910687312,169.94116889823164A170.6070045455344,170.6070045455344,0,0,0,16.229893684624333,169.83327280302228Z" fill-rule="evenodd" style="fill: #D7A449; stroke: #fff; opacity: 1;" id="p-type-tokenTransfers"></path><path d="M17.387701151588193,196.2311592195874A197,197,0,0,1,16.033908242035096,196.34641271611252L13.885771859551081,170.0409813540974A170.6070045455344,170.6070045455344,0,0,0,15.058190910687312,169.94116889823164Z" fill-rule="evenodd" style="fill: #D7A449; stroke: #fff; opacity: 1;" id="p-type-tokenTransfers"></path><path d="M16.033908242035096,196.34641271611252A197,197,0,0,1,14.67935264306226,196.45232654764013L12.712692300002159,170.13270542281242A170.6070045455344,170.6070045455344,0,0,0,13.885771859551081,170.0409813540974Z" fill-rule="evenodd" style="fill: #D7A449; stroke: #fff; opacity: 1;" id="p-type-tokenTransfers"></path><path d="M14.67935264306226,196.45232654764013A197,197,0,0,1,13.32409878719656,196.5488956761371L11.539008032245649,170.21633674131212A170.6070045455344,170.6070045455344,0,0,0,12.712692300002159,170.13270542281242Z" fill-rule="evenodd" style="fill: #D7A449; stroke: #fff; opacity: 1;" id="p-type-tokenTransfers"></path><path d="M13.32409878719656,196.5488956761371A197,197,0,0,1,11.968211140179061,196.63611550807266L10.36477488525099,170.29187133148216A170.6070045455344,170.6070045455344,0,0,0,11.539008032245649,170.21633674131212Z" fill-rule="evenodd" style="fill: #D7A449; stroke: #fff; opacity: 1;" id="p-type-tokenTransfers"></path><path d="M11.968211140179061,196.63611550807266A197,197,0,0,1,10.611754197898549,196.71398189463653L9.190048714096303,170.35930560034734A170.6070045455344,170.6070045455344,0,0,0,10.36477488525099,170.29187133148216Z" fill-rule="evenodd" style="fill: #D7A449; stroke: #fff; opacity: 1;" id="p-type-tokenTransfers"></path><path d="M10.611754197898549,196.71398189463653A197,197,0,0,1,9.254792483323628,196.78249113193635L8.014885397311533,170.4186363402429A170.6070045455344,170.6070045455344,0,0,0,9.190048714096303,170.35930560034734Z" fill-rule="evenodd" style="fill: #D7A449; stroke: #fff; opacity: 1;" id="p-type-tokenTransfers"></path><path d="M9.254792483323628,196.78249113193635A197,197,0,0,1,7.897390543433561,196.84163996117408L6.839340834220457,170.46986072896686A170.6070045455344,170.6070045455344,0,0,0,8.014885397311533,170.4186363402429Z" fill-rule="evenodd" style="fill: #D7A449; stroke: #fff; opacity: 1;" id="p-type-tokenTransfers"></path><path d="M7.897390543433561,196.84163996117408A197,197,0,0,1,6.539612946147922,196.89142556880066L5.6634709422816965,170.51297632991435A170.6070045455344,170.6070045455344,0,0,0,6.839340834220457,170.46986072896686Z" fill-rule="evenodd" style="fill: #D7A449; stroke: #fff; opacity: 1;" id="p-type-tokenTransfers"></path><path d="M6.539612946147922,196.89142556880066A197,197,0,0,1,5.18152427725529,196.93184558665013L4.487331654428885,170.5479810921934A170.6070045455344,170.6070045455344,0,0,0,5.6634709422816965,170.51297632991435Z" fill-rule="evenodd" style="fill: #D7A449; stroke: #fff; opacity: 1;" id="p-type-tokenTransfers"></path><path d="M5.18152427725529,196.93184558665013A197,197,0,0,1,3.823189137341075,196.96289809205214L3.3109789164100842,170.5748733507227A170.6070045455344,170.6070045455344,0,0,0,4.487331654428885,170.5479810921934Z" fill-rule="evenodd" style="fill: #D7A449; stroke: #fff; opacity: 1;" id="p-type-tokenTransfers"></path><path d="M3.823189137341075,196.96289809205214A197,197,0,0,1,2.4646721387146417,196.98458160792345L2.1344686841266034,170.5936518263106A170.6070045455344,170.6070045455344,0,0,0,3.3109789164100842,170.5748733507227Z" fill-rule="evenodd" style="fill: #D7A449; stroke: #fff; opacity: 1;" id="p-type-tokenTransfers"></path><path d="M2.4646721387146417,196.98458160792345A197,197,0,0,1,1.106037902335881,196.9968951028381L0.9578569209713248,170.60431562571605A170.6070045455344,170.6070045455344,0,0,0,2.1344686841266034,170.5936518263106Z" fill-rule="evenodd" style="fill: #D7A449; stroke: #fff; opacity: 1;" id="p-type-tokenTransfers"></path><path d="M1.106037902335881,196.9968951028381A197,197,0,0,1,-0.2526489452586363,196.99983799107667L-0.21880040483332305,170.60686424169117A170.6070045455344,170.6070045455344,0,0,0,0.9578569209713248,170.60431562571605Z" fill-rule="evenodd" style="fill: #D7A449; stroke: #fff; opacity: 1;" id="p-type-tokenTransfers"></path><path d="M-0.2526489452586363,196.99983799107667A197,197,0,0,1,-1.6113237750297666,196.993410132654L-1.3954473228976196,170.6012975530052A170.6070045455344,170.6070045455344,0,0,0,-0.21880040483332305,170.60686424169117Z" fill-rule="evenodd" style="fill: #D7A449; stroke: #fff; opacity: 1;" id="p-type-tokenTransfers"></path><path d="M-1.6113237750297666,196.993410132654A197,197,0,0,1,-2.9699219585100214,196.97761183332577L-2.572027863326912,170.58761582445038A170.6070045455344,170.6070045455344,0,0,0,-1.3954473228976196,170.6012975530052Z" fill-rule="evenodd" style="fill: #D7A449; stroke: #fff; opacity: 1;" id="p-type-tokenTransfers"></path><path d="M-2.9699219585100214,196.97761183332577A197,197,0,0,1,-4.328378870877768,196.95244384457416L-3.7484860593839513,170.5658197068293A170.6070045455344,170.6070045455344,0,0,0,-2.572027863326912,170.58761582445038Z" fill-rule="evenodd" style="fill: #D7A449; stroke: #fff; opacity: 1;" id="p-type-tokenTransfers"></path><path d="M-4.328378870877768,196.95244384457416A197,197,0,0,1,-5.686629894031256,196.91790736357194L-4.924765950151078,170.53591023692408A170.6070045455344,170.6070045455344,0,0,0,-3.7484860593839513,170.5658197068293Z" fill-rule="evenodd" style="fill: #D7A449; stroke: #fff; opacity: 1;" id="p-type-tokenTransfers"></path><path d="M-5.686629894031256,196.91790736357194A197,197,0,0,1,-7.044610419662326,196.8740040331257L-6.1008115831921295,170.49788883744685A170.6070045455344,170.6070045455344,0,0,0,-4.924765950151078,170.53591023692408Z" fill-rule="evenodd" style="fill: #D7A449; stroke: #fff; opacity: 1;" id="p-type-tokenTransfers"></path><path d="M-7.044610419662326,196.8740040331257A197,197,0,0,1,-8.402255852329649,196.82073594159735L-7.276567017213947,170.45175731697222A170.6070045455344,170.6070045455344,0,0,0,-6.1008115831921295,170.49788883744685Z" fill-rule="evenodd" style="fill: #D7A449; stroke: #fff; opacity: 1;" id="p-type-tokenTransfers"></path><path d="M-8.402255852329649,196.82073594159735A197,197,0,0,1,-9.759501612531357,196.75810562280526L-8.45197632472735,170.39751786985116A170.6070045455344,170.6070045455344,0,0,0,-7.276567017213947,170.45175731697222Z" fill-rule="evenodd" style="fill: #D7A449; stroke: #fff; opacity: 1;" id="p-type-tokenTransfers"></path><path d="M-9.759501612531357,196.75810562280526A197,197,0,0,1,-11.116283139776918,196.68611605590343L-9.626983594707452,170.33517307610674A170.6070045455344,170.6070045455344,0,0,0,-8.45197632472735,170.39751786985116Z" fill-rule="evenodd" style="fill: #D7A449; stroke: #fff; opacity: 1;" id="p-type-tokenTransfers"></path><path d="M-11.116283139776918,196.68611605590343A197,197,0,0,1,-12.472535895658096,196.60477066523976L-10.801532935253206,170.2647259013112A170.6070045455344,170.6070045455344,0,0,0,-9.626983594707452,170.33517307610674Z" fill-rule="evenodd" style="fill: #D7A449; stroke: #fff; opacity: 1;" id="p-type-tokenTransfers"></path><path d="M-12.472535895658096,196.60477066523976A197,197,0,0,1,-13.828195366918871,196.51407332019335L-11.975568476246018,170.1861796964452A170.6070045455344,170.6070045455344,0,0,0,-10.801532935253206,170.2647259013112Z" fill-rule="evenodd" style="fill: #D7A449; stroke: #fff; opacity: 1;" id="p-type-tokenTransfers"></path><path d="M-13.828195366918871,196.51407332019335A197,197,0,0,1,-15.183197068524159,196.41402833499026L-13.149034372007339,170.0995381977381A170.6070045455344,170.6070045455344,0,0,0,-11.975568476246018,170.1861796964452Z" fill-rule="evenodd" style="fill: #D7A449; stroke: #fff; opacity: 1;" id="p-type-tokenTransfers"></path><path d="M-15.183197068524159,196.41402833499026A197,197,0,0,1,-16.537476546727195,196.30464046849846L-14.321874803955101,170.00480552649043A170.6070045455344,170.6070045455344,0,0,0,-13.149034372007339,170.0995381977381Z" fill-rule="evenodd" style="fill: #D7A449; stroke: #fff; opacity: 1;" id="p-type-tokenTransfers"></path><path d="M-16.537476546727195,196.30464046849846A197,197,0,0,1,-17.890969382135413,196.18591492400134L-15.494033983258849,169.90198618887777A170.6070045455344,170.6070045455344,0,0,0,-14.321874803955101,170.00480552649043Z" fill-rule="evenodd" style="fill: #D7A449; stroke: #fff; opacity: 1;" id="p-type-tokenTransfers"></path><path d="M-17.890969382135413,196.18591492400134A197,197,0,0,1,-19.2436111927747,196.05785734895022L-16.66545615349345,169.79108507573648A170.6070045455344,170.6070045455344,0,0,0,-15.494033983258849,169.90198618887777Z" fill-rule="evenodd" style="fill: #D7A449; stroke: #fff; opacity: 1;" id="p-type-tokenTransfers"></path><path d="M-19.2436111927747,196.05785734895022A197,197,0,0,1,-20.595337637151896,195.92047383469577L-17.836085593291315,169.67210746233096A170.6070045455344,170.6070045455344,0,0,0,-16.66545615349345,169.79108507573648Z" fill-rule="evenodd" style="fill: #D7A449; stroke: #fff; opacity: 1;" id="p-type-tokenTransfers"></path><path d="M-20.595337637151896,195.92047383469577A197,197,0,0,1,-21.946084417315305,195.77377091619826L-19.00586661899286,169.54505900810278A170.6070045455344,170.6070045455344,0,0,0,-17.836085593291315,169.67210746233096Z" fill-rule="evenodd" style="fill: #D7A449; stroke: #fff; opacity: 1;" id="p-type-tokenTransfers"></path><path d="M-21.946084417315305,195.77377091619826A197,197,0,0,1,-23.295787281913203,195.61775557171657L-20.17474358729527,169.40994575640147A170.6070045455344,170.6070045455344,0,0,0,-19.00586661899286,169.54505900810278Z" fill-rule="evenodd" style="fill: #D7A449; stroke: #fff; opacity: 1;" id="p-type-tokenTransfers"></path><path d="M-23.295787281913203,195.61775557171657A197,197,0,0,1,-24.644382029250096,195.4524352224765L-21.342660897899275,169.26677413419705A170.6070045455344,170.6070045455344,0,0,0,-20.17474358729527,169.40994575640147Z" fill-rule="evenodd" style="fill: #D7A449; stroke: #fff; opacity: 1;" id="p-type-tokenTransfers"></path><path d="M-24.644382029250096,195.4524352224765A197,197,0,0,1,-25.991804510340607,195.27781773231757L-22.509562996153917,169.11555095177434A170.6070045455344,170.6070045455344,0,0,0,-21.342660897899275,169.26677413419705Z" fill-rule="evenodd" style="fill: #D7A449; stroke: #fff; opacity: 1;" id="p-type-tokenTransfers"></path><path d="M-25.991804510340607,195.27781773231757A197,197,0,0,1,-27.337990631960874,195.09391140731896L-23.675394375699117,168.9562834024089A170.6070045455344,170.6070045455344,0,0,0,-22.509562996153917,169.11555095177434Z" fill-rule="evenodd" style="fill: #D7A449; stroke: #fff; opacity: 1;" id="p-type-tokenTransfers"></path><path d="M-27.337990631960874,195.09391140731896A197,197,0,0,1,-28.682876359697307,194.90072499540454L-24.84009958110599,168.78897906202505A170.6070045455344,170.6070045455344,0,0,0,-23.675394375699117,168.9562834024089Z" fill-rule="evenodd" style="fill: #D7A449; stroke: #fff; opacity: 1;" id="p-type-tokenTransfers"></path><path d="M-28.682876359697307,194.90072499540454A197,197,0,0,1,-30.026397720992506,194.6982676859267L-26.003623210514682,168.6136458888354A170.6070045455344,170.6070045455344,0,0,0,-24.84009958110599,168.78897906202505Z" fill-rule="evenodd" style="fill: #D7A449; stroke: #fff; opacity: 1;" id="p-type-tokenTransfers"></path><path d="M-30.026397720992506,194.6982676859267A197,197,0,0,1,-31.368490808188277,194.48654910922917L-27.1659099182697,168.43029222296224A170.6070045455344,170.6070045455344,0,0,0,-26.003623210514682,168.6136458888354Z" fill-rule="evenodd" style="fill: #D7A449; stroke: #fff; opacity: 1;" id="p-type-tokenTransfers"></path><path d="M-31.368490808188277,194.48654910922917A197,197,0,0,1,-32.70909178156554,194.26557933618895L-28.32690441755256,168.2389267860409A170.6070045455344,170.6070045455344,0,0,0,-27.1659099182697,168.43029222296224Z" fill-rule="evenodd" style="fill: #D7A449; stroke: #fff; opacity: 1;" id="p-type-tokenTransfers"></path><path d="M-32.70909178156554,194.26557933618895A197,197,0,0,1,-34.048136872381015,194.03536887773737L-29.486551483011603,168.039558680805A170.6070045455344,170.6070045455344,0,0,0,-28.32690441755256,168.2389267860409Z" fill-rule="evenodd" style="fill: #D7A449; stroke: #fff; opacity: 1;" id="p-type-tokenTransfers"></path><path d="M-119.15783858601937,156.8770521889934A197,197,0,0,1,-130.78606648912688,147.3227912181333L-113.26405604062454,127.58527975133443A170.6070045455344,170.6070045455344,0,0,0,-103.19371527553838,135.85951246648546Z" fill-rule="evenodd" style="fill: #414552; stroke: #fff; opacity: 1;" id="p-type-ether"></path><path d="M-130.78606648912688,147.3227912181333A197,197,0,0,1,-136.09226478218488,142.4355835683474L-117.8593585599304,123.35283377305022A170.6070045455344,170.6070045455344,0,0,0,-113.26405604062454,127.58527975133443Z" fill-rule="evenodd" style="fill: #414552; stroke: #fff; opacity: 1;" id="p-type-ether"></path><path d="M-136.09226478218488,142.4355835683474A197,197,0,0,1,-140.93315302121164,137.64754403729745L-122.05169075180888,119.20626990483683A170.6070045455344,170.6070045455344,0,0,0,-117.8593585599304,123.35283377305022Z" fill-rule="evenodd" style="fill: #414552; stroke: #fff; opacity: 1;" id="p-type-ether"></path><path d="M-140.93315302121164,137.64754403729745A197,197,0,0,1,-142.6685505235652,135.8480205652807L-123.55458907451113,117.64783686336396A170.6070045455344,170.6070045455344,0,0,0,-122.05169075180888,119.20626990483683Z" fill-rule="evenodd" style="fill: #414552; stroke: #fff; opacity: 1;" id="p-type-ether"></path><path d="M-142.6685505235652,135.8480205652807A197,197,0,0,1,-143.81583024270327,134.6328599250642L-124.54816245653137,116.5954768792575A170.6070045455344,170.6070045455344,0,0,0,-123.55458907451113,117.64783686336396Z" fill-rule="evenodd" style="fill: #414552; stroke: #fff; opacity: 1;" id="p-type-ether"></path></g></svg>