<svg xmlns="http://www.w3.org/2000/svg" width="400" height="400" id="block-7824846"><g id="burst-container" transform="translate(200,200)"><circle r="197" style="fill: #f9f9f9; stroke: #f9f9f9; stroke-width: 3; opacity: 1;" id="circle-base"></circle><path display="none" d="M6.031385485800715e-15,-98.5A98.5,98.5,0,1,1,-6.031385485800715e-15,98.5A98.5,98.5,0,1,1,6.031385485800715e-15,-98.5Z" fill-rule="evenodd" id="p-type-root" style="stroke: #fff; opacity: 1;"></path><path d="M8.529667153919608e-15,-139.30003589374985A139.30003589374985,139.30003589374985,0,0,1,23.17356615119461,137.35896706016757L16.386185769784753,97.12745706502412A98.5,98.5,0,0,0,6.031385485800715e-15,-98.5Z" fill-rule="evenodd" style="fill: #0B1F65; stroke: #fff; opacity: 1;" id="p-type-data"></path><path d="M23.17356615119461,137.35896706016757A139.30003589374985,139.30003589374985,0,0,1,-135.06190436025437,-34.09958930224083L-95.50318845310481,-24.112050831290748A98.5,98.5,0,0,0,16.386185769784753,97.12745706502412Z" fill-rule="evenodd" style="fill: #D7A449; stroke: #fff; opacity: 1;" id="p-type-value"></path><path d="M1.0446666101440332e-14,-170.6070045455344A170.6070045455344,170.6070045455344,0,0,1,156.1637633020433,-68.69955626744172L127.50717880092505,-56.09295280361809A139.30003589374985,139.30003589374985,0,0,0,8.529667153919608e-15,-139.30003589374985Z" fill-rule="evenodd" style="fill: #DB3F29; stroke: #fff; opacity: 1;" id="p-type-functions"></path><path d="M156.1637633020433,-68.69955626744172A170.6070045455344,170.6070045455344,0,0,1,125.7671837388225,115.2795102973866L102.68847551565767,94.12532600883873A139.30003589374985,139.30003589374985,0,0,0,127.50717880092505,-56.09295280361809Z" fill-rule="evenodd" style="fill: #414552; stroke: #fff; opacity: 1;" id="p-type-ether"></path><path d="M28.381706295529323,168.22969044658646A170.6070045455344,170.6070045455344,0,0,1,-80.9853408070475,150.160329562659L-66.12425387422094,122.60539567889161A139.30003589374985,139.30003589374985,0,0,0,23.17356615119461,137.35896706016757Z" fill-rule="evenodd" style="fill: #414552; stroke: #fff; opacity: 1;" id="p-type-ether"></path><path d="M1.206277097160143e-14,-197A197,197,0,0,1,93.51381663072492,-173.39021338920818L80.9853408070475,-150.160329562659A170.6070045455344,170.6070045455344,0,0,0,1.0446666101440332e-14,-170.6070045455344Z" fill-rule="evenodd" style="fill: #DB3F29; stroke: #fff; opacity: 1;" id="p-type-functions"></path><path d="M180.3223815601994,-79.32741460843064A197,197,0,0,1,196.3672361474897,15.7768364318077L170.05901497466397,13.663141141297306A170.6070045455344,170.6070045455344,0,0,0,156.1637633020433,-68.69955626744172Z" fill-rule="evenodd" style="fill: #414552; stroke: #fff; opacity: 1;" id="p-type-ether"></path></g></svg>