<svg xmlns="http://www.w3.org/2000/svg" width="400" height="400" id="block-7824871"><g id="burst-container" transform="translate(200,200)"><circle r="197" style="fill: #f9f9f9; stroke: #f9f9f9; stroke-width: 3; opacity: 1;" id="circle-base"></circle><path display="none" d="M6.031385485800715e-15,-98.5A98.5,98.5,0,1,1,-6.031385485800715e-15,98.5A98.5,98.5,0,1,1,6.031385485800715e-15,-98.5Z" fill-rule="evenodd" id="p-type-root" style="stroke: #fff; opacity: 1;"></path><path d="M8.529667153919608e-15,-139.30003589374985A139.30003589374985,139.30003589374985,0,1,1,-97.88331453221954,-99.11284849194163L-69.21395547074818,-70.08336727136681A98.5,98.5,0,1,0,6.031385485800715e-15,-98.5Z" fill-rule="evenodd" style="fill: #0B1F65; stroke: #fff; opacity: 1;" id="p-type-data"></path><path d="M-97.88331453221954,-99.11284849194163A139.30003589374985,139.30003589374985,0,0,1,-3.1919728030987256,-139.26346006625096L-2.2570656144341417,-98.47413698434802A98.5,98.5,0,0,0,-69.21395547074818,-70.08336727136681Z" fill-rule="evenodd" style="fill: #D7A449; stroke: #fff; opacity: 1;" id="p-type-value"></path><path d="M1.0446666101440332e-14,-170.6070045455344A170.6070045455344,170.6070045455344,0,0,1,170.2849265721916,10.47825282684639L139.03706032972332,8.555457607216356A139.30003589374985,139.30003589374985,0,0,0,8.529667153919608e-15,-139.30003589374985Z" fill-rule="evenodd" style="fill: #DB3F29; stroke: #fff; opacity: 1;" id="p-type-functions"></path><path d="M170.2849265721916,10.47825282684639A170.6070045455344,170.6070045455344,0,0,1,18.973310192855042,169.54870539265613L15.491642901347314,138.43593825382604A139.30003589374985,139.30003589374985,0,0,0,139.03706032972332,8.555457607216356Z" fill-rule="evenodd" style="fill: #1DC690; stroke: #fff; opacity: 1;" id="p-type-logs"></path><path d="M18.973310192855042,169.54870539265613A170.6070045455344,170.6070045455344,0,0,1,-140.30834182661854,97.05832892577929L-114.56128137707269,79.2477937184574A139.30003589374985,139.30003589374985,0,0,0,15.491642901347314,138.43593825382604Z" fill-rule="evenodd" style="fill: #D7A449; stroke: #fff; opacity: 1;" id="p-type-tokenTransfers"></path><path d="M-140.30834182661854,97.05832892577929A170.6070045455344,170.6070045455344,0,0,1,-169.90664789826937,15.442830050658475L-138.72819708582793,12.609017936210586A139.30003589374985,139.30003589374985,0,0,0,-114.56128137707269,79.2477937184574Z" fill-rule="evenodd" style="fill: #414552; stroke: #fff; opacity: 1;" id="p-type-ether"></path><path d="M-119.88208746814568,-121.38795287951712A170.6070045455344,170.6070045455344,0,0,1,-40.65679515788678,-165.69180730346818L-33.19613423789348,-135.2867941510174A139.30003589374985,139.30003589374985,0,0,0,-97.88331453221954,-99.11284849194163Z" fill-rule="evenodd" style="fill: #D7A449; stroke: #fff; opacity: 1;" id="p-type-tokenTransfers"></path><path d="M-40.65679515788678,-165.69180730346818A170.6070045455344,170.6070045455344,0,0,1,-7.816651693423078,-170.4278438410335L-6.382269381982863,-139.15375179108827A139.30003589374985,139.30003589374985,0,0,0,-33.19613423789348,-135.2867941510174Z" fill-rule="evenodd" style="fill: #414552; stroke: #fff; opacity: 1;" id="p-type-ether"></path><path d="M1.206277097160143e-14,-197A197,197,0,0,1,21.401677214725606,-195.83403231409164L18.53439615154696,-169.59724690954602A170.6070045455344,170.6070045455344,0,0,0,1.0446666101440332e-14,-170.6070045455344Z" fill-rule="evenodd" style="fill: #DB3F29; stroke: #fff; opacity: 1;" id="p-type-functions"></path><path d="M21.401677214725606,-195.83403231409164A197,197,0,0,1,25.889038990883165,-195.2914684775772L22.42056544567067,-169.12737284394976A170.6070045455344,170.6070045455344,0,0,0,18.53439615154696,-169.59724690954602Z" fill-rule="evenodd" style="fill: #DB3F29; stroke: #fff; opacity: 1;" id="p-type-functions"></path><path d="M25.889038990883165,-195.2914684775772A197,197,0,0,1,28.124977061802948,-194.9820136968358L24.35694461637597,-168.85937714250514A170.6070045455344,170.6070045455344,0,0,0,22.42056544567067,-169.12737284394976Z" fill-rule="evenodd" style="fill: #DB3F29; stroke: #fff; opacity: 1;" id="p-type-functions"></path><path d="M28.124977061802948,-194.9820136968358A197,197,0,0,1,30.357222642380155,-194.6469599902371L26.290125996641375,-168.56921212095855A170.6070045455344,170.6070045455344,0,0,0,24.35694461637597,-168.85937714250514Z" fill-rule="evenodd" style="fill: #DB3F29; stroke: #fff; opacity: 1;" id="p-type-functions"></path><path d="M30.357222642380155,-194.6469599902371A197,197,0,0,1,32.58548266410031,-194.2863513465308L28.2198557816883,-168.25691587468467A170.6070045455344,170.6070045455344,0,0,0,26.290125996641375,-168.56921212095855Z" fill-rule="evenodd" style="fill: #DB3F29; stroke: #fff; opacity: 1;" id="p-type-functions"></path><path d="M32.58548266410031,-194.2863513465308A197,197,0,0,1,34.80946458170759,-193.9002351095399L30.14588061989343,-167.92252940463686A170.6070045455344,170.6070045455344,0,0,0,28.2198557816883,-168.25691587468467Z" fill-rule="evenodd" style="fill: #DB3F29; stroke: #fff; opacity: 1;" id="p-type-functions"></path><path d="M34.80946458170759,-193.9002351095399A197,197,0,0,1,37.028876411612565,-193.48866197194482L32.06794764605085,-167.56609661196427A170.6070045455344,170.6070045455344,0,0,0,30.14588061989343,-167.92252940463686Z" fill-rule="evenodd" style="fill: #DB3F29; stroke: #fff; opacity: 1;" id="p-type-functions"></path><path d="M37.028876411612565,-193.48866197194482A197,197,0,0,1,39.243426770226634,-193.05168596862828L33.98580451457057,-167.18766429224794A170.6070045455344,170.6070045455344,0,0,0,32.06794764605085,-167.56609661196427Z" fill-rule="evenodd" style="fill: #DB3F29; stroke: #fff; opacity: 1;" id="p-type-functions"></path><path d="M39.243426770226634,-193.05168596862828A197,197,0,0,1,41.45282491221703,-192.58936446958091L35.89919943260839,-166.78728212935724A170.6070045455344,170.6070045455344,0,0,0,33.98580451457057,-167.18766429224794Z" fill-rule="evenodd" style="fill: #DB3F29; stroke: #fff; opacity: 1;" id="p-type-functions"></path><path d="M41.45282491221703,-192.58936446958091A197,197,0,0,1,43.656780768678715,-192.1017581723695L37.8078811931237,-166.36500268892686A170.6070045455344,170.6070045455344,0,0,0,35.89919943260839,-166.78728212935724Z" fill-rule="evenodd" style="fill: #DB3F29; stroke: #fff; opacity: 1;" id="p-type-functions"></path><path d="M43.656780768678715,-192.1017581723695A197,197,0,0,1,45.85500498521696,-191.58893109416766L39.71159920785996,-165.92088141145555A170.6070045455344,170.6070045455344,0,0,0,37.8078811931237,-166.36500268892686Z" fill-rule="evenodd" style="fill: #DB3F29; stroke: #fff; opacity: 1;" id="p-type-functions"></path><path d="M45.85500498521696,-191.58893109416766A197,197,0,0,1,48.047208959936206,-191.05095056335162L41.610103540244054,-165.4549766050274A170.6070045455344,170.6070045455344,0,0,0,39.71159920785996,-165.92088141145555Z" fill-rule="evenodd" style="fill: #DB3F29; stroke: #fff; opacity: 1;" id="p-type-functions"></path><path d="M48.047208959936206,-191.05095056335162A197,197,0,0,1,50.233104881330505,-190.48788721066032L43.50314493820031,-164.9673494376567A170.6070045455344,170.6070045455344,0,0,0,41.610103540244054,-165.4549766050274Z" fill-rule="evenodd" style="fill: #DB3F29; stroke: #fff; opacity: 1;" id="p-type-functions"></path><path d="M50.233104881330505,-190.48788721066032A197,197,0,0,1,52.412405766069554,-189.8998149599227L45.39047486687422,-164.45806392925724A170.6070045455344,170.6070045455344,0,0,0,43.50314493820031,-164.9673494376567Z" fill-rule="evenodd" style="fill: #DB3F29; stroke: #fff; opacity: 1;" id="p-type-functions"></path><path d="M52.412405766069554,-189.8998149599227A197,197,0,0,1,54.584825496676636,-189.28681101835215L47.27184554126251,-163.92718694323716A170.6070045455344,170.6070045455344,0,0,0,45.39047486687422,-164.45806392925724Z" fill-rule="evenodd" style="fill: #DB3F29; stroke: #fff; opacity: 1;" id="p-type-functions"></path><path d="M54.584825496676636,-189.28681101835215A197,197,0,0,1,56.75007885909252,-188.64895586641018L49.147009958744334,-163.37478817772063A170.6070045455344,170.6070045455344,0,0,0,47.27184554126251,-163.92718694323716Z" fill-rule="evenodd" style="fill: #DB3F29; stroke: #fff; opacity: 1;" id="p-type-functions"></path><path d="M56.75007885909252,-188.64895586641018A197,197,0,0,1,58.907881580120694,-187.98633324724028L51.015721931509916,-162.8009401563973A170.6070045455344,170.6070045455344,0,0,0,49.147009958744334,-163.37478817772063Z" fill-rule="evenodd" style="fill: #DB3F29; stroke: #fff; opacity: 1;" id="p-type-functions"></path><path d="M58.907881580120694,-187.98633324724028A197,197,0,0,1,61.057950364749324,-187.29903015567328L52.87773611888225,-162.2057182190007A170.6070045455344,170.6070045455344,0,0,0,51.015721931509916,-162.8009401563973Z" fill-rule="evenodd" style="fill: #DB3F29; stroke: #fff; opacity: 1;" id="p-type-functions"></path><path d="M61.057950364749324,-187.29903015567328A197,197,0,0,1,63.20000293334475,-186.587136826806L54.73280805952759,-161.58920051141695A170.6070045455344,170.6070045455344,0,0,0,52.87773611888225,-162.2057182190007Z" fill-rule="evenodd" style="fill: #DB3F29; stroke: #fff; opacity: 1;" id="p-type-functions"></path><path d="M63.20000293334475,-186.587136826806A197,197,0,0,1,65.3337580587115,-185.8507467241543L56.58069420355044,-160.95146797542515A170.6070045455344,170.6070045455344,0,0,0,54.73280805952759,-161.58920051141695Z" fill-rule="evenodd" style="fill: #DB3F29; stroke: #fff; opacity: 1;" id="p-type-functions"></path><path d="M65.3337580587115,-185.8507467241543A197,197,0,0,1,67.45893560301415,-185.08995652738264L58.421151944468775,-160.29260433807073A170.6070045455344,170.6070045455344,0,0,0,56.58069420355044,-160.95146797542515Z" fill-rule="evenodd" style="fill: #DB3F29; stroke: #fff; opacity: 1;" id="p-type-functions"></path><path d="M67.45893560301415,-185.08995652738264A197,197,0,0,1,69.57525655455639,-184.3048661196108L60.253939651065615,-159.61269610067285A170.6070045455344,170.6070045455344,0,0,0,58.421151944468775,-160.29260433807073Z" fill-rule="evenodd" style="fill: #DB3F29; stroke: #fff; opacity: 1;" id="p-type-functions"></path><path d="M69.57525655455639,-184.3048661196108A197,197,0,0,1,71.68244306441208,-183.4955785743006L62.07881669911251,-158.91183252746785A170.6070045455344,170.6070045455344,0,0,0,60.253939651065615,-159.61269610067285Z" fill-rule="evenodd" style="fill: #DB3F29; stroke: #fff; opacity: 1;" id="p-type-functions"></path><path d="M71.68244306441208,-183.4955785743006A197,197,0,0,1,73.78021848290362,-182.6622001417234L63.895543502960706,-158.19010563388994A170.6070045455344,170.6070045455344,0,0,0,62.07881669911251,-158.91183252746785Z" fill-rule="evenodd" style="fill: #DB3F29; stroke: #fff; opacity: 1;" id="p-type-functions"></path><path d="M73.78021848290362,-182.6622001417234A197,197,0,0,1,75.86830739592284,-181.8048402350107L65.70388154699599,-157.44761017449048A170.6070045455344,170.6070045455344,0,0,0,63.895543502960706,-158.19010563388994Z" fill-rule="evenodd" style="fill: #DB3F29; stroke: #fff; opacity: 1;" id="p-type-functions"></path><path d="M75.86830739592284,-181.8048402350107A197,197,0,0,1,77.94643566108984,-180.92361141578948L67.5035934169531,-156.68444363049795A170.6070045455344,170.6070045455344,0,0,0,65.70388154699599,-157.44761017449048Z" fill-rule="evenodd" style="fill: #DB3F29; stroke: #fff; opacity: 1;" id="p-type-functions"></path><path d="M77.94643566108984,-180.92361141578948A197,197,0,0,1,80.01433044374478,-180.018629379404L69.29444283108558,-155.90070619701956A170.6070045455344,170.6070045455344,0,0,0,67.5035934169531,-156.68444363049795Z" fill-rule="evenodd" style="fill: #DB3F29; stroke: #fff; opacity: 1;" id="p-type-functions"></path><path d="M80.01433044374478,-180.018629379404A197,197,0,0,1,82.07172025276806,-179.09001293972645L71.07619467118694,-155.09650076988692A170.6070045455344,170.6070045455344,0,0,0,69.29444283108558,-155.90070619701956Z" fill-rule="evenodd" style="fill: #DB3F29; stroke: #fff; opacity: 1;" id="p-type-functions"></path><path d="M82.07172025276806,-179.09001293972645A197,197,0,0,1,84.1183349762237,-178.13788401355794L72.8486150134588,-154.271932932147A170.6070045455344,170.6070045455344,0,0,0,71.07619467118694,-155.09650076988692Z" fill-rule="evenodd" style="fill: #DB3F29; stroke: #fff; opacity: 1;" id="p-type-functions"></path><path d="M84.1183349762237,-178.13788401355794A197,197,0,0,1,86.15390591682227,-177.16236760462232L74.61147115922253,-153.4271109402002A170.6070045455344,170.6070045455344,0,0,0,72.8486150134588,-154.271932932147Z" fill-rule="evenodd" style="fill: #DB3F29; stroke: #fff; opacity: 1;" id="p-type-functions"></path><path d="M86.15390591682227,-177.16236760462232A197,197,0,0,1,88.17816582719777,-176.1635917871545L76.36453166547014,-152.5621457095875A170.6070045455344,170.6070045455344,0,0,0,74.61147115922253,-153.4271109402002Z" fill-rule="evenodd" style="fill: #DB3F29; stroke: #fff; opacity: 1;" id="p-type-functions"></path><path d="M88.17816582719777,-176.1635917871545A197,197,0,0,1,90.19084894499414,-175.14168768908573L78.10756637524986,-151.6771508004285A170.6070045455344,170.6070045455344,0,0,0,76.36453166547014,-152.5621457095875Z" fill-rule="evenodd" style="fill: #DB3F29; stroke: #fff; opacity: 1;" id="p-type-functions"></path><path d="M90.19084894499414,-175.14168768908573A197,197,0,0,1,92.19169102775669,-174.0967894748282L79.84034644788319,-150.7722424025125A170.6070045455344,170.6070045455344,0,0,0,78.10756637524986,-151.6771508004285Z" fill-rule="evenodd" style="fill: #DB3F29; stroke: #fff; opacity: 1;" id="p-type-functions"></path><path d="M92.19169102775669,-174.0967894748282A197,197,0,0,1,94.18042938762429,-173.0290343276605L81.56264438900914,-149.84753932004367A170.6070045455344,170.6070045455344,0,0,0,79.84034644788319,-150.7722424025125Z" fill-rule="evenodd" style="fill: #DB3F29; stroke: #fff; opacity: 1;" id="p-type-functions"></path><path d="M94.18042938762429,-173.0290343276605A197,197,0,0,1,96.15680292581739,-171.93856243171723L83.27423408045169,-148.90316295604381A170.6070045455344,170.6070045455344,0,0,0,81.56264438900914,-149.84753932004367Z" fill-rule="evenodd" style="fill: #DB3F29; stroke: #fff; opacity: 1;" id="p-type-functions"></path><path d="M96.15680292581739,-171.93856243171723A197,197,0,0,1,98.12055216691714,-170.8255169535842L84.97489080990648,-147.93923729641324A170.6070045455344,170.6070045455344,0,0,0,83.27423408045169,-148.90316295604381Z" fill-rule="evenodd" style="fill: #DB3F29; stroke: #fff; opacity: 1;" id="p-type-functions"></path><path d="M98.12055216691714,-170.8255169535842A197,197,0,0,1,100.07141929293165,-169.69004402350265L86.664391300443,-146.95588889365305A170.6070045455344,170.6070045455344,0,0,0,84.97489080990648,-147.93923729641324Z" fill-rule="evenodd" style="fill: #DB3F29; stroke: #fff; opacity: 1;" id="p-type-functions"></path><path d="M100.07141929293165,-169.69004402350265A197,197,0,0,1,102.00914817714452,-168.53229271618352L88.34251373981822,-145.95324685025005A170.6070045455344,170.6070045455344,0,0,0,86.664391300443,-146.95588889365305Z" fill-rule="evenodd" style="fill: #DB3F29; stroke: #fff; opacity: 1;" id="p-type-functions"></path><path d="M102.00914817714452,-168.53229271618352A197,197,0,0,1,103.93348441774154,-167.35241503123603L90.00903780959827,-144.93144280172714A170.6070045455344,170.6070045455344,0,0,0,88.34251373981822,-145.95324685025005Z" fill-rule="evenodd" style="fill: #DB3F29; stroke: #fff; opacity: 1;" id="p-type-functions"></path><path d="M103.93348441774154,-167.35241503123603A197,197,0,0,1,105.84417537121051,-166.15056587321163L91.66374471408352,-143.89061089936106A170.6070045455344,170.6070045455344,0,0,0,90.00903780959827,-144.93144280172714Z" fill-rule="evenodd" style="fill: #DB3F29; stroke: #fff; opacity: 1;" id="p-type-functions"></path><path d="M105.84417537121051,-166.15056587321163A197,197,0,0,1,107.74097018551062,-164.92690303126687L93.306417209034,-142.83088779256985A170.6070045455344,170.6070045455344,0,0,0,91.66374471408352,-143.89061089936106Z" fill-rule="evenodd" style="fill: #DB3F29; stroke: #fff; opacity: 1;" id="p-type-functions"></path><path d="M107.74097018551062,-164.92690303126687A197,197,0,0,1,109.6236198330065,-163.68158715844757L94.93683963019124,-141.75241261097233A170.6070045455344,170.6070045455344,0,0,0,93.306417209034,-142.83088779256985Z" fill-rule="evenodd" style="fill: #DB3F29; stroke: #fff; opacity: 1;" id="p-type-functions"></path><path d="M109.6236198330065,-163.68158715844757A197,197,0,0,1,111.4918771431626,-162.41478175059663L96.55479792159241,-140.65532694612193A170.6070045455344,170.6070045455344,0,0,0,94.93683963019124,-141.75241261097233Z" fill-rule="evenodd" style="fill: #DB3F29; stroke: #fff; opacity: 1;" id="p-type-functions"></path><path d="M111.4918771431626,-162.41478175059663A197,197,0,0,1,113.34549683499402,-161.1266531248892L98.1600796636735,-139.53977483291735A170.6070045455344,170.6070045455344,0,0,0,96.55479792159241,-140.65532694612193Z" fill-rule="evenodd" style="fill: #DB3F29; stroke: #fff; opacity: 1;" id="p-type-functions"></path><path d="M113.34549683499402,-161.1266531248892A197,197,0,0,1,115.18423554926896,-159.81737039799688L99.75247410115755,-138.40590273069242A170.6070045455344,170.6070045455344,0,0,0,98.1600796636735,-139.53977483291735Z" fill-rule="evenodd" style="fill: #DB3F29; stroke: #fff; opacity: 1;" id="p-type-functions"></path><path d="M115.18423554926896,-159.81737039799688A197,197,0,0,1,117.00785188045919,-158.48710546388475L101.33177217072445,-137.25385950398768A170.6070045455344,170.6070045455344,0,0,0,99.75247410115755,-138.40590273069242Z" fill-rule="evenodd" style="fill: #DB3F29; stroke: #fff; opacity: 1;" id="p-type-functions"></path><path d="M117.00785188045919,-158.48710546388475A197,197,0,0,1,118.81610640843375,-157.13603297124357L102.89776652845866,-136.08379640300606A170.6070045455344,170.6070045455344,0,0,0,101.33177217072445,-137.25385950398768Z" fill-rule="evenodd" style="fill: #DB3F29; stroke: #fff; opacity: 1;" id="p-type-functions"></path><path d="M118.81610640843375,-157.13603297124357A197,197,0,0,1,120.60876172989214,-155.7643303005605L104.45025157707099,-134.89586704375557A170.6070045455344,170.6070045455344,0,0,0,102.89776652845866,-136.08379640300606Z" fill-rule="evenodd" style="fill: #DB3F29; stroke: #fff; opacity: 1;" id="p-type-functions"></path><path d="M120.60876172989214,-155.7643303005605A197,197,0,0,1,122.38558248953258,-154.3721775408309L105.98902349289118,-133.69022738788112A170.6070045455344,170.6070045455344,0,0,0,104.45025157707099,-134.89586704375557Z" fill-rule="evenodd" style="fill: #DB3F29; stroke: #fff; opacity: 1;" id="p-type-functions"></path><path d="M122.38558248953258,-154.3721775408309A197,197,0,0,1,124.14633541095174,-152.95975746591478L107.51388025262783,-132.46703572218865A170.6070045455344,170.6070045455344,0,0,0,105.98902349289118,-133.69022738788112Z" fill-rule="evenodd" style="fill: #DB3F29; stroke: #fff; opacity: 1;" id="p-type-functions"></path><path d="M124.14633541095174,-152.95975746591478A197,197,0,0,1,125.89078932727097,-151.52725551054067L109.02462165989154,-131.2264526378638A170.6070045455344,170.6070045455344,0,0,0,107.51388025262783,-132.46703572218865Z" fill-rule="evenodd" style="fill: #DB3F29; stroke: #fff; opacity: 1;" id="p-type-functions"></path><path d="M125.89078932727097,-151.52725551054067A197,197,0,0,1,127.61871521148609,-150.07485974596017L110.52104937147853,-129.96864100938814A170.6070045455344,170.6070045455344,0,0,0,109.02462165989154,-131.2264526378638Z" fill-rule="evenodd" style="fill: #DB3F29; stroke: #fff; opacity: 1;" id="p-type-functions"></path><path d="M127.61871521148609,-150.07485974596017A197,197,0,0,1,129.32988620653603,-148.60276085525615L112.00296692341085,-128.69376597315556A170.6070045455344,170.6070045455344,0,0,0,110.52104937147853,-129.96864100938814Z" fill-rule="evenodd" style="fill: #DB3F29; stroke: #fff; opacity: 1;" id="p-type-functions"></path><path d="M129.32988620653603,-148.60276085525615A197,197,0,0,1,131.02407765508644,-147.1111521083085L113.47017975672988,-127.40199490579182A170.6070045455344,170.6070045455344,0,0,0,112.00296692341085,-128.69376597315556Z" fill-rule="evenodd" style="fill: #DB3F29; stroke: #fff; opacity: 1;" id="p-type-functions"></path><path d="M131.02407765508644,-147.1111521083085A197,197,0,0,1,132.70106712902484,-145.6002293364198L114.92249524303963,-126.09349740217982A170.6070045455344,170.6070045455344,0,0,0,113.47017975672988,-127.40199490579182Z" fill-rule="evenodd" style="fill: #DB3F29; stroke: #fff; opacity: 1;" id="p-type-functions"></path><path d="M132.70106712902484,-145.6002293364198A197,197,0,0,1,134.36063445866282,-144.07019090660492L116.35972270979683,-124.76844525319369A170.6070045455344,170.6070045455344,0,0,0,114.92249524303963,-126.09349740217982Z" fill-rule="evenodd" style="fill: #DB3F29; stroke: #fff; opacity: 1;" id="p-type-functions"></path><path d="M134.36063445866282,-144.07019090660492A197,197,0,0,1,136.00256176164177,-142.52123769554774L117.78167346534387,-123.42701242314467A170.6070045455344,170.6070045455344,0,0,0,116.35972270979683,-124.76844525319369Z" fill-rule="evenodd" style="fill: #DB3F29; stroke: #fff; opacity: 1;" id="p-type-functions"></path><path d="M136.00256176164177,-142.52123769554774A197,197,0,0,1,137.62663347153844,-140.95357306322825L119.188160823682,-122.0693750269416A170.6070045455344,170.6070045455344,0,0,0,117.78167346534387,-123.42701242314467Z" fill-rule="evenodd" style="fill: #DB3F29; stroke: #fff; opacity: 1;" id="p-type-functions"></path><path d="M137.62663347153844,-140.95357306322825A197,197,0,0,1,139.2326363661663,-139.36740282622372L120.57900012898108,-120.6957113069689A170.6070045455344,170.6070045455344,0,0,0,119.188160823682,-122.0693750269416Z" fill-rule="evenodd" style="fill: #DB3F29; stroke: #fff; opacity: 1;" id="p-type-functions"></path><path d="M139.2326363661663,-139.36740282622372A197,197,0,0,1,140.8203595955693,-137.76293523068733L121.95400877982276,-119.30620160968547A170.6070045455344,170.6070045455344,0,0,0,120.57900012898108,-120.6957113069689Z" fill-rule="evenodd" style="fill: #DB3F29; stroke: #fff; opacity: 1;" id="p-type-functions"></path><path d="M140.8203595955693,-137.76293523068733A197,197,0,0,1,142.38959470970394,-136.1403809250079L123.31300625317391,-117.90102836194724A170.6070045455344,170.6070045455344,0,0,0,121.95400877982276,-119.30620160968547Z" fill-rule="evenodd" style="fill: #DB3F29; stroke: #fff; opacity: 1;" id="p-type-functions"></path><path d="M142.38959470970394,-136.1403809250079A197,197,0,0,1,143.9401356858065,-134.4999529321539L124.65581412808746,-116.48037604705657A170.6070045455344,170.6070045455344,0,0,0,123.31300625317391,-117.90102836194724Z" fill-rule="evenodd" style="fill: #DB3F29; stroke: #fff; opacity: 1;" id="p-type-functions"></path><path d="M143.9401356858065,-134.4999529321539A197,197,0,0,1,145.0601091145375,-133.29127782296365L125.62573956893208,-115.43363269757587A170.6070045455344,170.6070045455344,0,0,0,124.65581412808746,-116.48037604705657Z" fill-rule="evenodd" style="fill: #DB3F29; stroke: #fff; opacity: 1;" id="p-type-functions"></path><path d="M196.62809639078097,12.099244180433441A197,197,0,0,1,196.4765564820914,14.351402472913424L170.15368916157928,12.428679121477838A170.6070045455344,170.6070045455344,0,0,0,170.2849265721916,10.47825282684639Z" fill-rule="evenodd" style="fill: #1DC690; stroke: #fff; opacity: 1;" id="p-type-logs"></path><path d="M196.4765564820914,14.351402472913424A197,197,0,0,1,196.29922143103607,16.60167658909998L170.00011250238393,14.377473671573973A170.6070045455344,170.6070045455344,0,0,0,170.15368916157928,12.428679121477838Z" fill-rule="evenodd" style="fill: #1DC690; stroke: #fff; opacity: 1;" id="p-type-logs"></path><path d="M196.29922143103607,16.60167658909998A197,197,0,0,1,196.09611451969485,18.849771093536447L169.82421675747824,16.32438062252414A170.6070045455344,170.6070045455344,0,0,0,170.00011250238393,14.377473671573973Z" fill-rule="evenodd" style="fill: #1DC690; stroke: #fff; opacity: 1;" id="p-type-logs"></path><path d="M196.09611451969485,18.849771093536447A197,197,0,0,1,195.86726241370047,21.095390836924434L169.62602501997756,18.26914436753803A170.6070045455344,170.6070045455344,0,0,0,169.82421675747824,16.32438062252414Z" fill-rule="evenodd" style="fill: #1DC690; stroke: #fff; opacity: 1;" id="p-type-logs"></path><path d="M195.86726241370047,21.095390836924434A197,197,0,0,1,195.6126951587376,23.338240994873615L169.40556331020804,20.21150958120396A170.6070045455344,170.6070045455344,0,0,0,169.62602501997756,18.26914436753803Z" fill-rule="evenodd" style="fill: #1DC690; stroke: #fff; opacity: 1;" id="p-type-logs"></path><path d="M195.6126951587376,23.338240994873615A197,197,0,0,1,195.3324461765981,25.578027106608786L169.16286057229047,22.151221253010192A170.6070045455344,170.6070045455344,0,0,0,169.40556331020804,20.21150958120396Z" fill-rule="evenodd" style="fill: #1DC690; stroke: #fff; opacity: 1;" id="p-type-logs"></path><path d="M195.3324461765981,25.578027106608786A197,197,0,0,1,195.0265522607932,27.814455113629258L168.89794867034036,24.088024720824922A170.6070045455344,170.6070045455344,0,0,0,169.16286057229047,22.151221253010192Z" fill-rule="evenodd" style="fill: #1DC690; stroke: #fff; opacity: 1;" id="p-type-logs"></path><path d="M195.0265522607932,27.814455113629258A197,197,0,0,1,194.695053571723,30.047231398315375L168.61086238428433,26.021665704330534A170.6070045455344,170.6070045455344,0,0,0,168.89794867034036,24.088024720824922Z" fill-rule="evenodd" style="fill: #1DC690; stroke: #fff; opacity: 1;" id="p-type-logs"></path><path d="M194.695053571723,30.047231398315375A197,197,0,0,1,194.33799363140372,32.276062822477186L168.30163940529405,27.951890338407715A170.6070045455344,170.6070045455344,0,0,0,168.61086238428433,26.021665704330534Z" fill-rule="evenodd" style="fill: #1DC690; stroke: #fff; opacity: 1;" id="p-type-logs"></path><path d="M194.33799363140372,32.276062822477186A197,197,0,0,1,193.95541931775375,34.50065676584017L167.9703203308378,29.878445206465056A170.6070045455344,170.6070045455344,0,0,0,168.30163940529405,27.951890338407715Z" fill-rule="evenodd" style="fill: #1DC690; stroke: #fff; opacity: 1;" id="p-type-logs"></path><path d="M193.95541931775375,34.50065676584017A197,197,0,0,1,193.5473808584393,36.720721164462944L167.61694865935044,31.801077373709802A170.6070045455344,170.6070045455344,0,0,0,167.9703203308378,29.878445206465056Z" fill-rule="evenodd" style="fill: #1DC690; stroke: #fff; opacity: 1;" id="p-type-logs"></path><path d="M193.5473808584393,36.720721164462944A197,197,0,0,1,193.11393182427992,38.93596454908195L167.24157078452257,33.71953442035528A170.6070045455344,170.6070045455344,0,0,0,167.61694865935044,31.801077373709802Z" fill-rule="evenodd" style="fill: #1DC690; stroke: #fff; opacity: 1;" id="p-type-logs"></path><path d="M193.11393182427992,38.93596454908195A197,197,0,0,1,192.65512912221524,41.146096083378076L166.8442359892096,35.6335644747608A170.6070045455344,170.6070045455344,0,0,0,167.24157078452257,33.71953442035528Z" fill-rule="evenodd" style="fill: #1DC690; stroke: #fff; opacity: 1;" id="p-type-logs"></path><path d="M192.65512912221524,41.146096083378076A197,197,0,0,1,192.17103298783377,43.35082560216013L166.42499643896141,37.5429162464995A170.6070045455344,170.6070045455344,0,0,0,166.8442359892096,35.6335644747608Z" fill-rule="evenodd" style="fill: #1DC690; stroke: #fff; opacity: 1;" id="p-type-logs"></path><path d="M192.17103298783377,43.35082560216013A197,197,0,0,1,191.6617069774648,45.549863649460264L165.9839071751737,39.44733905934995A170.6070045455344,170.6070045455344,0,0,0,166.42499643896141,37.5429162464995Z" fill-rule="evenodd" style="fill: #1DC690; stroke: #fff; opacity: 1;" id="p-type-logs"></path><path d="M191.6617069774648,45.549863649460264A197,197,0,0,1,191.1272179598339,47.74292151653627L165.52102610786156,41.34658288420709A170.6070045455344,170.6070045455344,0,0,0,165.9839071751737,39.44733905934995Z" fill-rule="evenodd" style="fill: #1DC690; stroke: #fff; opacity: 1;" id="p-type-logs"></path><path d="M191.1272179598339,47.74292151653627A197,197,0,0,1,190.56763610728405,49.929711279775724L165.03641400805662,43.24039837190821A170.6070045455344,170.6070045455344,0,0,0,165.52102610786156,41.34658288420709Z" fill-rule="evenodd" style="fill: #1DC690; stroke: #fff; opacity: 1;" id="p-type-logs"></path><path d="M190.56763610728405,49.929711279775724A197,197,0,0,1,189.98303488656268,52.109945838497126L164.53013449982853,45.1285368859697A170.6070045455344,170.6070045455344,0,0,0,165.03641400805662,43.24039837190821Z" fill-rule="evenodd" style="fill: #1DC690; stroke: #fff; opacity: 1;" id="p-type-logs"></path><path d="M189.98303488656268,52.109945838497126A197,197,0,0,1,189.37349104917638,54.283338952642914L164.00225405193174,47.01075053523012A170.6070045455344,170.6070045455344,0,0,0,164.53013449982853,45.1285368859697Z" fill-rule="evenodd" style="fill: #1DC690; stroke: #fff; opacity: 1;" id="p-type-logs"></path><path d="M189.37349104917638,54.283338952642914A197,197,0,0,1,188.7390846213142,56.4496052803596L163.45284196907895,48.886792206395604A170.6070045455344,170.6070045455344,0,0,0,164.00225405193174,47.01075053523012Z" fill-rule="evenodd" style="fill: #1DC690; stroke: #fff; opacity: 1;" id="p-type-logs"></path><path d="M188.7390846213142,56.4496052803596A197,197,0,0,1,188.07989889334127,58.60846041545988L162.88197038284227,50.75641559648293A170.6070045455344,170.6070045455344,0,0,0,163.45284196907895,48.886792206395604Z" fill-rule="evenodd" style="fill: #1DC690; stroke: #fff; opacity: 1;" id="p-type-logs"></path><path d="M188.07989889334127,58.60846041545988A197,197,0,0,1,187.39602040886362,60.75962092476191L162.28971424218304,52.61937524515636A170.6070045455344,170.6070045455344,0,0,0,162.88197038284227,50.75641559648293Z" fill-rule="evenodd" style="fill: #1DC690; stroke: #fff; opacity: 1;" id="p-type-logs"></path><path d="M187.39602040886362,60.75962092476191A197,197,0,0,1,186.68753895336604,62.902804385300925L161.67615130361196,54.47542656695379A170.6070045455344,170.6070045455344,0,0,0,162.28971424218304,52.61937524515636Z" fill-rule="evenodd" style="fill: #1DC690; stroke: #fff; opacity: 1;" id="p-type-logs"></path><path d="M186.68753895336604,62.902804385300925A197,197,0,0,1,185.9545475424242,65.03772942140816L161.0413621209805,56.32432588339807A170.6070045455344,170.6070045455344,0,0,0,161.67615130361196,54.47542656695379Z" fill-rule="evenodd" style="fill: #1DC690; stroke: #fff; opacity: 1;" id="p-type-logs"></path><path d="M185.9545475424242,65.03772942140816A197,197,0,0,1,185.19714240949276,67.16411574165224L160.38543003490517,58.16583045498915A170.6070045455344,170.6070045455344,0,0,0,161.0413621209805,56.32432588339807Z" fill-rule="evenodd" style="fill: #1DC690; stroke: #fff; opacity: 1;" id="p-type-logs"></path><path d="M185.19714240949276,67.16411574165224A197,197,0,0,1,184.41542299327114,69.28168417563828L159.70844116182568,59.999698513073085A170.6070045455344,170.6070045455344,0,0,0,160.38543003490517,58.16583045498915Z" fill-rule="evenodd" style="fill: #1DC690; stroke: #fff; opacity: 1;" id="p-type-logs"></path><path d="M184.41542299327114,69.28168417563828A197,197,0,0,1,183.60949192464815,71.39015671065982L159.01048438269902,61.82568929158353A170.6070045455344,170.6070045455344,0,0,0,159.70844116182568,59.999698513073085Z" fill-rule="evenodd" style="fill: #1DC690; stroke: #fff; opacity: 1;" id="p-type-logs"></path><path d="M183.60949192464815,71.39015671065982A197,197,0,0,1,182.7794550132279,73.48925652819874L158.2916513313303,63.64356305865151A170.6070045455344,170.6070045455344,0,0,0,159.01048438269902,61.82568929158353Z" fill-rule="evenodd" style="fill: #1DC690; stroke: #fff; opacity: 1;" id="p-type-logs"></path><path d="M182.7794550132279,73.48925652819874A197,197,0,0,1,181.92542123343807,75.57870804026834L157.5520363823423,65.45308114807958A170.6070045455344,170.6070045455344,0,0,0,158.2916513313303,63.64356305865151Z" fill-rule="evenodd" style="fill: #1DC690; stroke: #fff; opacity: 1;" id="p-type-logs"></path><path d="M181.92542123343807,75.57870804026834A197,197,0,0,1,181.0475027102229,77.65823692559493L156.791736638785,67.25400599067595A170.6070045455344,170.6070045455344,0,0,0,157.5520363823423,65.45308114807958Z" fill-rule="evenodd" style="fill: #1DC690; stroke: #fff; opacity: 1;" id="p-type-logs"></path><path d="M181.0475027102229,77.65823692559493A197,197,0,0,1,180.14581470432233,79.72757016563315L156.01085191938742,69.04610114544462A170.6070045455344,170.6070045455344,0,0,0,156.791736638785,67.25400599067595Z" fill-rule="evenodd" style="fill: #1DC690; stroke: #fff; opacity: 1;" id="p-type-logs"></path><path d="M180.14581470432233,79.72757016563315A197,197,0,0,1,179.2204755971398,81.78643608041018L155.20948474545213,70.8291313306274A170.6070045455344,170.6070045455344,0,0,0,156.01085191938742,69.04610114544462Z" fill-rule="evenodd" style="fill: #1DC690; stroke: #fff; opacity: 1;" id="p-type-logs"></path><path d="M179.2204755971398,81.78643608041018A197,197,0,0,1,178.27160687519978,83.83456436419421L154.3877403273956,72.60286245459379A170.6070045455344,170.6070045455344,0,0,0,155.20948474545213,70.8291313306274Z" fill-rule="evenodd" style="fill: #1DC690; stroke: #fff; opacity: 1;" id="p-type-logs"></path><path d="M178.27160687519978,83.83456436419421A197,197,0,0,1,177.29933311419833,85.87168612098247L153.5457265509353,74.36706164657441A170.6070045455344,170.6070045455344,0,0,0,154.3877403273956,72.60286245459379Z" fill-rule="evenodd" style="fill: #1DC690; stroke: #fff; opacity: 1;" id="p-type-logs"></path><path d="M177.29933311419833,85.87168612098247A197,197,0,0,1,176.30378196264746,87.8975338998044L152.6835539629254,76.12149728723448A170.6070045455344,170.6070045455344,0,0,0,153.5457265509353,74.36706164657441Z" fill-rule="evenodd" style="fill: #1DC690; stroke: #fff; opacity: 1;" id="p-type-logs"></path><path d="M176.30378196264746,87.8975338998044A197,197,0,0,1,175.28508412511644,89.91184172983475L151.80133575684326,77.86593903908268A170.6070045455344,170.6070045455344,0,0,0,152.6835539629254,76.12149728723448Z" fill-rule="evenodd" style="fill: #1DC690; stroke: #fff; opacity: 1;" id="p-type-logs"></path><path d="M175.28508412511644,89.91184172983475A197,197,0,0,1,174.24337334507175,91.91434515531263L150.89918775792844,79.60015787671189A170.6070045455344,170.6070045455344,0,0,0,151.80133575684326,77.86593903908268Z" fill-rule="evenodd" style="fill: #1DC690; stroke: #fff; opacity: 1;" id="p-type-logs"></path><path d="M174.24337334507175,91.91434515531263A197,197,0,0,1,173.17878638731807,93.90478127026152L149.97722840797618,81.32392611686763A170.6070045455344,170.6070045455344,0,0,0,150.89918775792844,79.60015787671189Z" fill-rule="evenodd" style="fill: #1DC690; stroke: #fff; opacity: 1;" id="p-type-logs"></path><path d="M173.17878638731807,93.90478127026152A197,197,0,0,1,172.09146302004268,95.88288875300579L149.03557874978725,83.03701744834025A170.6070045455344,170.6070045455344,0,0,0,149.97722840797618,81.32392611686763Z" fill-rule="evenodd" style="fill: #1DC690; stroke: #fff; opacity: 1;" id="p-type-logs"></path><path d="M172.09146302004268,95.88288875300579A197,197,0,0,1,170.98154599646537,97.84840790047937L148.0743624112765,84.7392069616771A170.6070045455344,170.6070045455344,0,0,0,149.03557874978725,83.03701744834025Z" fill-rule="evenodd" style="fill: #1DC690; stroke: #fff; opacity: 1;" id="p-type-logs"></path><path d="M170.98154599646537,97.84840790047937A197,197,0,0,1,169.84918103609667,99.80108066232177L147.09370558924184,86.43027117871053A170.6070045455344,170.6070045455344,0,0,0,148.0743624112765,84.7392069616771Z" fill-rule="evenodd" style="fill: #1DC690; stroke: #fff; opacity: 1;" id="p-type-logs"></path><path d="M169.84918103609667,99.80108066232177A197,197,0,0,1,168.69451680560647,101.7406506747571L146.0937370327961,88.10998808189805A170.6070045455344,170.6070045455344,0,0,0,147.09370558924184,86.43027117871053Z" fill-rule="evenodd" style="fill: #1DC690; stroke: #fff; opacity: 1;" id="p-type-logs"></path><path d="M168.69451680560647,101.7406506747571A197,197,0,0,1,167.51770489930578,103.66686329425188L145.07458802646372,89.77813714347069A170.6070045455344,170.6070045455344,0,0,0,146.0937370327961,88.10998808189805Z" fill-rule="evenodd" style="fill: #1DC690; stroke: #fff; opacity: 1;" id="p-type-logs"></path><path d="M167.51770489930578,103.66686329425188A197,197,0,0,1,166.31889981924408,105.57946563094666L144.03639237294445,91.43449935438584A170.6070045455344,170.6070045455344,0,0,0,145.07458802646372,89.77813714347069Z" fill-rule="evenodd" style="fill: #1DC690; stroke: #fff; opacity: 1;" id="p-type-logs"></path><path d="M166.31889981924408,105.57946563094666A197,197,0,0,1,165.09825895492511,107.47820658185773L142.97928637554685,93.07885725308066A170.6070045455344,170.6070045455344,0,0,0,144.03639237294445,91.43449935438584Z" fill-rule="evenodd" style="fill: #1DC690; stroke: #fff; opacity: 1;" id="p-type-logs"></path><path d="M165.09825895492511,107.47820658185773A197,197,0,0,1,163.85594256264324,109.36283686384402L141.9034088202929,94.71099495402221A170.6070045455344,170.6070045455344,0,0,0,142.97928637554685,93.07885725308066Z" fill-rule="evenodd" style="fill: #1DC690; stroke: #fff; opacity: 1;" id="p-type-logs"></path><path d="M163.85594256264324,109.36283686384402A197,197,0,0,1,162.59211374444368,111.23310904633519L140.8089009576972,96.33069817605092A170.6070045455344,170.6070045455344,0,0,0,141.9034088202929,94.71099495402221Z" fill-rule="evenodd" style="fill: #1DC690; stroke: #fff; opacity: 1;" id="p-type-logs"></path><path d="M162.59211374444368,111.23310904633519A197,197,0,0,1,161.30693842670905,113.0887775838164L139.6959064842223,97.93775427051317A170.6070045455344,170.6070045455344,0,0,0,140.8089009576972,96.33069817605092Z" fill-rule="evenodd" style="fill: #1DC690; stroke: #fff; opacity: 1;" id="p-type-logs"></path><path d="M161.30693842670905,113.0887775838164A197,197,0,0,1,160.00058533837517,114.92959884806577L138.5645715234129,99.5319522491797A170.6070045455344,170.6070045455344,0,0,0,139.6959064842223,97.93775427051317Z" fill-rule="evenodd" style="fill: #1DC690; stroke: #fff; opacity: 1;" id="p-type-logs"></path><path d="M160.00058533837517,114.92959884806577A197,197,0,0,1,158.67322598877885,116.75533116013979L137.4150446067117,101.11308281194592A170.6070045455344,170.6070045455344,0,0,0,138.5645715234129,99.5319522491797Z" fill-rule="evenodd" style="fill: #1DC690; stroke: #fff; opacity: 1;" id="p-type-logs"></path><path d="M158.67322598877885,116.75533116013979A197,197,0,0,1,157.3250346451406,118.56573482210328L136.24747665395867,102.68093837431067A170.6070045455344,170.6070045455344,0,0,0,137.4150446067117,101.11308281194592Z" fill-rule="evenodd" style="fill: #1DC690; stroke: #fff; opacity: 1;" id="p-type-logs"></path><path d="M157.3250346451406,118.56573482210328A197,197,0,0,1,155.95618830968527,120.36057214849879L135.06202095357713,104.23531309462972A170.6070045455344,170.6070045455344,0,0,0,136.24747665395867,102.68093837431067Z" fill-rule="evenodd" style="fill: #1DC690; stroke: #fff; opacity: 1;" id="p-type-logs"></path><path d="M155.95618830968527,120.36057214849879A197,197,0,0,1,154.56686669640393,122.13960749755213L133.85883314244873,105.77600290114043A170.6070045455344,170.6070045455344,0,0,0,135.06202095357713,104.23531309462972Z" fill-rule="evenodd" style="fill: #1DC690; stroke: #fff; opacity: 1;" id="p-type-logs"></path><path d="M154.56686669640393,122.13960749755213A197,197,0,0,1,153.1572522074592,123.90260730210942L132.63807118547996,107.30280551875404A170.6070045455344,170.6070045455344,0,0,0,133.85883314244873,105.77600290114043Z" fill-rule="evenodd" style="fill: #1DC690; stroke: #fff; opacity: 1;" id="p-type-logs"></path><path d="M153.1572522074592,123.90260730210942A197,197,0,0,1,151.72752990923794,125.64934010030179L131.39989535486328,108.8155204956121A170.6070045455344,170.6070045455344,0,0,0,132.63807118547996,107.30280551875404Z" fill-rule="evenodd" style="fill: #1DC690; stroke: #fff; opacity: 1;" id="p-type-logs"></path><path d="M151.72752990923794,125.64934010030179A197,197,0,0,1,150.2778875080543,127.37957656593373L130.14446820903518,110.31394922940358A170.6070045455344,170.6070045455344,0,0,0,131.39989535486328,108.8155204956121Z" fill-rule="evenodd" style="fill: #1DC690; stroke: #fff; opacity: 1;" id="p-type-logs"></path><path d="M150.2778875080543,127.37957656593373A197,197,0,0,1,148.80851532550588,129.09308953859102L128.87195457133404,111.79789499343899A170.6070045455344,170.6070045455344,0,0,0,130.14446820903518,110.31394922940358Z" fill-rule="evenodd" style="fill: #1DC690; stroke: #fff; opacity: 1;" id="p-type-logs"></path><path d="M148.80851532550588,129.09308953859102A197,197,0,0,1,147.31960627348664,130.78965405346432L127.58252150836078,113.26716296247847A170.6070045455344,170.6070045455344,0,0,0,128.87195457133404,111.79789499343899Z" fill-rule="evenodd" style="fill: #1DC690; stroke: #fff; opacity: 1;" id="p-type-logs"></path><path d="M147.31960627348664,130.78965405346432A197,197,0,0,1,145.8113558288599,132.46904737088437L126.27633830804483,114.72156023831008A170.6070045455344,170.6070045455344,0,0,0,127.58252150836078,113.26716296247847Z" fill-rule="evenodd" style="fill: #1DC690; stroke: #fff; opacity: 1;" id="p-type-logs"></path><path d="M145.8113558288599,132.46904737088437A197,197,0,0,1,144.28396200779423,134.13104900556542L124.9535764574186,116.16089587507511A170.6070045455344,170.6070045455344,0,0,0,126.27633830804483,114.72156023831008Z" fill-rule="evenodd" style="fill: #1DC690; stroke: #fff; opacity: 1;" id="p-type-logs"></path><path d="M144.28396200779423,134.13104900556542A197,197,0,0,1,142.73762533976642,135.7754407555522L123.61440962010313,117.58498090433723A170.6070045455344,170.6070045455344,0,0,0,124.9535764574186,116.16089587507511Z" fill-rule="evenodd" style="fill: #1DC690; stroke: #fff; opacity: 1;" id="p-type-logs"></path><path d="M21.908491494526256,195.77798139840516A197,197,0,0,1,19.663841352031998,196.01615582212125L17.02938614684665,169.75497049412598A170.6070045455344,170.6070045455344,0,0,0,18.973310192855042,169.54870539265613Z" fill-rule="evenodd" style="fill: #D7A449; stroke: #fff; opacity: 1;" id="p-type-tokenTransfers"></path><path d="M19.663841352031998,196.01615582212125A197,197,0,0,1,17.41660957030191,196.22859554885386L15.083226335676631,169.93894869424946A170.6070045455344,170.6070045455344,0,0,0,17.02938614684665,169.75497049412598Z" fill-rule="evenodd" style="fill: #D7A449; stroke: #fff; opacity: 1;" id="p-type-tokenTransfers"></path><path d="M17.41660957030191,196.22859554885386A197,197,0,0,1,15.16709118536868,196.4152726876775L13.135086268044311,170.10061583877652A170.6070045455344,170.6070045455344,0,0,0,15.083226335676631,169.93894869424946Z" fill-rule="evenodd" style="fill: #D7A449; stroke: #fff; opacity: 1;" id="p-type-tokenTransfers"></path><path d="M15.16709118536868,196.4152726876775A197,197,0,0,1,12.915581533470032,196.57616273000215L11.185221712634224,170.23995070264564A170.6070045455344,170.6070045455344,0,0,0,13.135086268044311,170.10061583877652Z" fill-rule="evenodd" style="fill: #D7A449; stroke: #fff; opacity: 1;" id="p-type-tokenTransfers"></path><path d="M12.915581533470032,196.57616273000215A197,197,0,0,1,10.662376212274458,196.71124455279096L9.23388866453658,170.35693499277025A170.6070045455344,170.6070045455344,0,0,0,11.185221712634224,170.23995070264564Z" fill-rule="evenodd" style="fill: #D7A449; stroke: #fff; opacity: 1;" id="p-type-tokenTransfers"></path><path d="M10.662376212274458,196.71124455279096A197,197,0,0,1,8.40777104207258,196.82050042133338L7.281343311638017,170.4515533504405A170.6070045455344,170.6070045455344,0,0,0,9.23388866453658,170.35693499277025Z" fill-rule="evenodd" style="fill: #D7A449; stroke: #fff; opacity: 1;" id="p-type-tokenTransfers"></path><path d="M8.40777104207258,196.82050042133338A197,197,0,0,1,6.152062026939316,196.90391599157365L5.327842000987032,170.52379335333976A170.6070045455344,170.6070045455344,0,0,0,7.281343311638017,170.4515533504405Z" fill-rule="evenodd" style="fill: #D7A449; stroke: #fff; opacity: 1;" id="p-type-tokenTransfers"></path><path d="M6.152062026939316,196.90391599157365A197,197,0,0,1,3.8955453158718916,196.96148031199397L3.3736412051385334,170.57364551717535A170.6070045455344,170.6070045455344,0,0,0,5.327842000987032,170.52379335333976Z" fill-rule="evenodd" style="fill: #D7A449; stroke: #fff; opacity: 1;" id="p-type-tokenTransfers"></path><path d="M3.8955453158718916,196.96148031199397A197,197,0,0,1,1.6385171639088494,196.99318582505228L1.4189974884818946,170.60110329692384A170.6070045455344,170.6070045455344,0,0,0,3.3736412051385334,170.57364551717535Z" fill-rule="evenodd" style="fill: #D7A449; stroke: #fff; opacity: 1;" id="p-type-tokenTransfers"></path><path d="M1.6385171639088494,196.99318582505228A197,197,0,0,1,-0.6187261067648859,196.99902836817446L-0.535832526443034,170.60616308769036A170.6070045455344,170.6070045455344,0,0,0,1.4189974884818946,170.60110329692384Z" fill-rule="evenodd" style="fill: #D7A449; stroke: #fff; opacity: 1;" id="p-type-tokenTransfers"></path><path d="M-0.6187261067648859,196.99902836817446A197,197,0,0,1,-2.875888145721743,196.97900717430093L-2.490592192637553,170.58882422518178A170.6070045455344,170.6070045455344,0,0,0,-0.535832526443034,170.60616308769036Z" fill-rule="evenodd" style="fill: #D7A449; stroke: #fff; opacity: 1;" id="p-type-tokenTransfers"></path><path d="M-2.875888145721743,196.97900717430093A197,197,0,0,1,-5.132672613198952,196.93312487198725L-4.445024872338952,170.54908898579401A170.6070045455344,170.6070045455344,0,0,0,-2.490592192637553,170.58882422518178Z" fill-rule="evenodd" style="fill: #D7A449; stroke: #fff; opacity: 1;" id="p-type-tokenTransfers"></path><path d="M-5.132672613198952,196.93312487198725A197,197,0,0,1,-7.388783219004595,196.86138748505903L-6.398873970714138,170.48696258631307A170.6070045455344,170.6070045455344,0,0,0,-4.445024872338952,170.54908898579401Z" fill-rule="evenodd" style="fill: #D7A449; stroke: #fff; opacity: 1;" id="p-type-tokenTransfers"></path><path d="M-7.388783219004595,196.86138748505903A197,197,0,0,1,-9.643923761417147,196.76380443182117L-8.351882969547628,170.40245318323025A170.6070045455344,170.6070045455344,0,0,0,-6.398873970714138,170.48696258631307Z" fill-rule="evenodd" style="fill: #D7A449; stroke: #fff; opacity: 1;" id="p-type-tokenTransfers"></path><path d="M-9.643923761417147,196.76380443182117A197,197,0,0,1,-11.897798166073395,196.6403885238213L-10.303795460919465,170.2955718716712A170.6070045455344,170.6070045455344,0,0,0,-8.351882969547628,170.40245318323025Z" fill-rule="evenodd" style="fill: #D7A449; stroke: #fff; opacity: 1;" id="p-type-tokenTransfers"></path><path d="M-11.897798166073395,196.6403885238213A197,197,0,0,1,-14.150110524839647,196.49115596416758L-12.254355180868691,170.16633268393932A170.6070045455344,170.6070045455344,0,0,0,-10.303795460919465,170.2955718716712Z" fill-rule="evenodd" style="fill: #D7A449; stroke: #fff; opacity: 1;" id="p-type-tokenTransfers"></path><path d="M-14.150110524839647,196.49115596416758A197,197,0,0,1,-16.400565134661115,196.31612634540176L-14.203306043037877,170.01475258767343A170.6070045455344,170.6070045455344,0,0,0,-12.254355180868691,170.16633268393932Z" fill-rule="evenodd" style="fill: #D7A449; stroke: #fff; opacity: 1;" id="p-type-tokenTransfers"></path><path d="M-16.400565134661115,196.31612634540176A197,197,0,0,1,-18.648866536384357,196.11532264692661L-16.150392172294367,169.84085148362007A170.6070045455344,170.6070045455344,0,0,0,-14.203306043037877,170.01475258767343Z" fill-rule="evenodd" style="fill: #D7A449; stroke: #fff; opacity: 1;" id="p-type-tokenTransfers"></path><path d="M-18.648866536384357,196.11532264692661A197,197,0,0,1,-20.894719553547734,195.88877123198915L-18.09535793832378,169.64465220302094A170.6070045455344,170.6070045455344,0,0,0,-16.150392172294367,169.84085148362007Z" fill-rule="evenodd" style="fill: #D7A449; stroke: #fff; opacity: 1;" id="p-type-tokenTransfers"></path><path d="M-20.894719553547734,195.88877123198915A197,197,0,0,1,-23.137829331134707,195.63650184421945L-20.037947989191363,169.42618050461522A170.6070045455344,170.6070045455344,0,0,0,-18.09535793832378,169.64465220302094Z" fill-rule="evenodd" style="fill: #D7A449; stroke: #fff; opacity: 1;" id="p-type-tokenTransfers"></path><path d="M-23.137829331134707,195.63650184421945A197,197,0,0,1,-25.37790137428497,195.35854760372544L-21.977907284866802,169.18546507125782A170.6070045455344,170.6070045455344,0,0,0,-20.037947989191363,169.42618050461522Z" fill-rule="evenodd" style="fill: #D7A449; stroke: #fff; opacity: 1;" id="p-type-tokenTransfers"></path><path d="M-25.37790137428497,195.35854760372544A197,197,0,0,1,-27.614641586958278,195.0549450027449L-23.914981130708096,168.92253750615362A170.6070045455344,170.6070045455344,0,0,0,-21.977907284866802,169.18546507125782Z" fill-rule="evenodd" style="fill: #D7A449; stroke: #fff; opacity: 1;" id="p-type-tokenTransfers"></path><path d="M-27.614641586958278,195.0549450027449A197,197,0,0,1,-29.84775631054592,194.72573390085415L-25.848915210900053,168.63743232870837A170.6070045455344,170.6070045455344,0,0,0,-23.914981130708096,168.92253750615362Z" fill-rule="evenodd" style="fill: #D7A449; stroke: #fff; opacity: 1;" id="p-type-tokenTransfers"></path><path d="M-29.84775631054592,194.72573390085415A197,197,0,0,1,-32.07695236242475,194.37095751973527L-27.7794556218431,168.3301869699967A170.6070045455344,170.6070045455344,0,0,0,-25.848915210900053,168.63743232870837Z" fill-rule="evenodd" style="fill: #D7A449; stroke: #fff; opacity: 1;" id="p-type-tokenTransfers"></path><path d="M-32.07695236242475,194.37095751973527A197,197,0,0,1,-34.30193707444877,193.99066243750124L-29.706348905487904,168.00084176784776A170.6070045455344,170.6070045455344,0,0,0,-27.7794556218431,168.3301869699967Z" fill-rule="evenodd" style="fill: #D7A449; stroke: #fff; opacity: 1;" id="p-type-tokenTransfers"></path><path d="M-34.30193707444877,193.99066243750124A197,197,0,0,1,-36.5224183313731,193.58489858258105L-31.629342082611576,167.64943996154935A170.6070045455344,170.6070045455344,0,0,0,-29.706348905487904,168.00084176784776Z" fill-rule="evenodd" style="fill: #D7A449; stroke: #fff; opacity: 1;" id="p-type-tokenTransfers"></path><path d="M-36.5224183313731,193.58489858258105A197,197,0,0,1,-38.73810460920544,193.1537192271644L-33.54818268603096,167.27602768617112A170.6070045455344,170.6070045455344,0,0,0,-31.629342082611576,167.64943996154935Z" fill-rule="evenodd" style="fill: #D7A449; stroke: #fff; opacity: 1;" id="p-type-tokenTransfers"></path><path d="M-38.73810460920544,193.1537192271644A197,197,0,0,1,-40.94870501347979,192.69718098020795L-35.4626187937487,166.88065396650762A170.6070045455344,170.6070045455344,0,0,0,-33.54818268603096,167.27602768617112Z" fill-rule="evenodd" style="fill: #D7A449; stroke: #fff; opacity: 1;" id="p-type-tokenTransfers"></path><path d="M-40.94870501347979,192.69718098020795A197,197,0,0,1,-43.15392931744768,192.21534378000297L-37.372399062027746,166.46337071064175A170.6070045455344,170.6070045455344,0,0,0,-35.4626187937487,166.88065396650762Z" fill-rule="evenodd" style="fill: #D7A449; stroke: #fff; opacity: 1;" id="p-type-tokenTransfers"></path><path d="M-43.15392931744768,192.21534378000297A197,197,0,0,1,-45.35348800018157,191.70827088630628L-39.277272758389934,166.02423270312994A170.6070045455344,170.6070045455344,0,0,0,-37.372399062027746,166.46337071064175Z" fill-rule="evenodd" style="fill: #D7A449; stroke: #fff; opacity: 1;" id="p-type-tokenTransfers"></path><path d="M-45.35348800018157,191.70827088630628A197,197,0,0,1,-47.547092284585716,191.17602887203483L-41.176989794534315,165.56329759780945A170.6070045455344,170.6070045455344,0,0,0,-39.277272758389934,166.02423270312994Z" fill-rule="evenodd" style="fill: #D7A449; stroke: #fff; opacity: 1;" id="p-type-tokenTransfers"></path><path d="M-47.547092284585716,191.17602887203483A197,197,0,0,1,-49.734454175309324,190.6186876145255L-43.07130075917092,165.0806259102292A170.6070045455344,170.6070045455344,0,0,0,-41.176989794534315,165.56329759780945Z" fill-rule="evenodd" style="fill: #D7A449; stroke: #fff; opacity: 1;" id="p-type-tokenTransfers"></path><path d="M-49.734454175309324,190.6186876145255A197,197,0,0,1,-51.915286496557016,190.03632028636108L-44.9599569507656,164.57628100970476A170.6070045455344,170.6070045455344,0,0,0,-43.07130075917092,165.0806259102292Z" fill-rule="evenodd" style="fill: #D7A449; stroke: #fff; opacity: 1;" id="p-type-tokenTransfers"></path><path d="M-51.915286496557016,190.03632028636108A197,197,0,0,1,-54.08930292979183,189.42900334576333L-46.842710410191785,164.05032911099846A170.6070045455344,170.6070045455344,0,0,0,-44.9599569507656,164.57628100970476Z" fill-rule="evenodd" style="fill: #D7A449; stroke: #fff; opacity: 1;" id="p-type-tokenTransfers"></path><path d="M-54.08930292979183,189.42900334576333A197,197,0,0,1,-56.25621805132552,188.79681652655512L-48.719313953284605,163.50283926562648A170.6070045455344,170.6070045455344,0,0,0,-46.842710410191785,164.05032911099846Z" fill-rule="evenodd" style="fill: #D7A449; stroke: #fff; opacity: 1;" id="p-type-tokenTransfers"></path><path d="M-56.25621805132552,188.79681652655512A197,197,0,0,1,-58.41574736979153,188.13984282769212L-50.589521203293465,162.9338833527929A170.6070045455344,170.6070045455344,0,0,0,-48.719313953284605,163.50283926562648Z" fill-rule="evenodd" style="fill: #D7A449; stroke: #fff; opacity: 1;" id="p-type-tokenTransfers"></path><path d="M-58.41574736979153,188.13984282769212A197,197,0,0,1,-60.5676073634954,187.45816850236602L-52.453086623228444,162.34353606995288A170.6070045455344,170.6070045455344,0,0,0,-50.589521203293465,162.9338833527929Z" fill-rule="evenodd" style="fill: #D7A449; stroke: #fff; opacity: 1;" id="p-type-tokenTransfers"></path><path d="M-60.5676073634954,187.45816850236602A197,197,0,0,1,-62.711515517638,186.75188304668055L-54.309765548096536,161.73187492300576A170.6070045455344,170.6070045455344,0,0,0,-52.453086623228444,162.34353606995288Z" fill-rule="evenodd" style="fill: #D7A449; stroke: #fff; opacity: 1;" id="p-type-tokenTransfers"></path><path d="M-62.711515517638,186.75188304668055A197,197,0,0,1,-64.8471903614065,186.02107918790145L-56.15931421702342,161.0989802161194A170.6070045455344,170.6070045455344,0,0,0,-54.309765548096536,161.73187492300576Z" fill-rule="evenodd" style="fill: #D7A449; stroke: #fff; opacity: 1;" id="p-type-tokenTransfers"></path><path d="M-64.8471903614065,186.02107918790145A197,197,0,0,1,-66.9743515049283,185.26585287228272L-58.001489805256455,160.44493504118705A170.6070045455344,170.6070045455344,0,0,0,-56.15931421702342,161.0989802161194Z" fill-rule="evenodd" style="fill: #D7A449; stroke: #fff; opacity: 1;" id="p-type-tokenTransfers"></path><path d="M-66.9743515049283,185.26585287228272A197,197,0,0,1,-69.09271967608301,184.4863032524697L-59.836050456044816,159.76982526691847A170.6070045455344,170.6070045455344,0,0,0,-58.001489805256455,160.44493504118705Z" fill-rule="evenodd" style="fill: #D7A449; stroke: #fff; opacity: 1;" id="p-type-tokenTransfers"></path><path d="M-69.09271967608301,184.4863032524697A197,197,0,0,1,-71.20201675716777,183.6825326744816L-61.66275531239258,159.07373952756626A170.6070045455344,170.6070045455344,0,0,0,-59.836050456044816,159.76982526691847Z" fill-rule="evenodd" style="fill: #D7A449; stroke: #fff; opacity: 1;" id="p-type-tokenTransfers"></path><path d="M-71.20201675716777,183.6825326744816A197,197,0,0,1,-73.30196582141087,182.85464666427458L-63.481364548680475,158.35676921128925A170.6070045455344,170.6070045455344,0,0,0,-61.66275531239258,159.07373952756626Z" fill-rule="evenodd" style="fill: #D7A449; stroke: #fff; opacity: 1;" id="p-type-tokenTransfers"></path><path d="M-73.30196582141087,182.85464666427458A197,197,0,0,1,-75.39229116932921,182.0027539138875L-65.2916394021523,157.61900844815423A170.6070045455344,170.6070045455344,0,0,0,-63.481364548680475,158.35676921128925Z" fill-rule="evenodd" style="fill: #D7A449; stroke: #fff; opacity: 1;" id="p-type-tokenTransfers"></path><path d="M-75.39229116932921,182.0027539138875A197,197,0,0,1,-77.47271836492433,181.12696626717158L-67.09334220426169,156.86055409777765A170.6070045455344,170.6070045455344,0,0,0,-65.2916394021523,157.61900844815423Z" fill-rule="evenodd" style="fill: #D7A449; stroke: #fff; opacity: 1;" id="p-type-tokenTransfers"></path><path d="M-77.47271836492433,181.12696626717158A197,197,0,0,1,-79.54297427171296,180.22739870510702L-68.88623641187543,156.08150573660933A170.6070045455344,170.6070045455344,0,0,0,-67.09334220426169,156.86055409777765Z" fill-rule="evenodd" style="fill: #D7A449; stroke: #fff; opacity: 1;" id="p-type-tokenTransfers"></path><path d="M-79.54297427171296,180.22739870510702A197,197,0,0,1,-81.60278708858657,179.30416933070688L-70.67008663832875,155.2819656448588A170.6070045455344,170.6070045455344,0,0,0,-68.88623641187543,156.08150573660933Z" fill-rule="evenodd" style="fill: #D7A449; stroke: #fff; opacity: 1;" id="p-type-tokenTransfers"></path><path d="M-162.0141178462965,112.07330466478784A197,197,0,0,1,-175.84640295876125,88.80902300140995L-152.28745212640231,76.91087000449755A170.6070045455344,170.6070045455344,0,0,0,-140.30834182661854,97.05832892577929Z" fill-rule="evenodd" style="fill: #414552; stroke: #fff; opacity: 1;" id="p-type-ether"></path><path d="M-175.84640295876125,88.80902300140995A197,197,0,0,1,-184.4536660069754,69.17980266369057L-159.74156058321083,59.9114665355504A170.6070045455344,170.6070045455344,0,0,0,-152.28745212640231,76.91087000449755Z" fill-rule="evenodd" style="fill: #414552; stroke: #fff; opacity: 1;" id="p-type-ether"></path><path d="M-184.4536660069754,69.17980266369057A197,197,0,0,1,-185.99229705351271,64.92969610862107L-161.0740541565636,56.23076629006946A170.6070045455344,170.6070045455344,0,0,0,-159.74156058321083,59.9114665355504Z" fill-rule="evenodd" style="fill: #414552; stroke: #fff; opacity: 1;" id="p-type-ether"></path><path d="M-185.99229705351271,64.92969610862107A197,197,0,0,1,-187.43113855305486,60.65120197247162L-162.3201274471864,52.525481678221276A170.6070045455344,170.6070045455344,0,0,0,-161.0740541565636,56.23076629006946Z" fill-rule="evenodd" style="fill: #414552; stroke: #fff; opacity: 1;" id="p-type-ether"></path><path d="M-187.43113855305486,60.65120197247162A197,197,0,0,1,-188.11377247459131,58.49964619873947L-162.91130576472196,50.662179720510146A170.6070045455344,170.6070045455344,0,0,0,-162.3201274471864,52.525481678221276Z" fill-rule="evenodd" style="fill: #414552; stroke: #fff; opacity: 1;" id="p-type-ether"></path><path d="M-188.11377247459131,58.49964619873947A197,197,0,0,1,-188.5965051556395,56.924144640730795L-163.32936452974667,49.297755347572675A170.6070045455344,170.6070045455344,0,0,0,-162.91130576472196,50.662179720510146Z" fill-rule="evenodd" style="fill: #414552; stroke: #fff; opacity: 1;" id="p-type-ether"></path></g></svg>