<svg xmlns="http://www.w3.org/2000/svg" width="400" height="400" id="block-7824861"><g id="burst-container" transform="translate(200,200)"><circle r="197" style="fill: #f9f9f9; stroke: #f9f9f9; stroke-width: 3; opacity: 1;" id="circle-base"></circle><path display="none" d="M6.031385485800715e-15,-98.5A98.5,98.5,0,1,1,-6.031385485800715e-15,98.5A98.5,98.5,0,1,1,6.031385485800715e-15,-98.5Z" fill-rule="evenodd" id="p-type-root" style="stroke: #fff; opacity: 1;"></path><path d="M8.529667153919608e-15,-139.30003589374985A139.30003589374985,139.30003589374985,0,1,1,-103.9130869993709,-92.77160314590436L-73.47764847128285,-65.59942968601622A98.5,98.5,0,1,0,6.031385485800715e-15,-98.5Z" fill-rule="evenodd" style="fill: #0B1F65; stroke: #fff; opacity: 1;" id="p-type-data"></path><path d="M-103.9130869993709,-92.77160314590436A139.30003589374985,139.30003589374985,0,0,1,-2.151995437561523,-139.28341220560586L-1.5216905669822645,-98.48824527738505A98.5,98.5,0,0,0,-73.47764847128285,-65.59942968601622Z" fill-rule="evenodd" style="fill: #D7A449; stroke: #fff; opacity: 1;" id="p-type-value"></path><path d="M1.0446666101440332e-14,-170.6070045455344A170.6070045455344,170.6070045455344,0,0,1,170.60229475309282,1.2676848894098918L139.29619036432442,1.0350603778969192A139.30003589374985,139.30003589374985,0,0,0,8.529667153919608e-15,-139.30003589374985Z" fill-rule="evenodd" style="fill: #DB3F29; stroke: #fff; opacity: 1;" id="p-type-functions"></path><path d="M170.60229475309282,1.2676848894098918A170.6070045455344,170.6070045455344,0,0,1,24.15074493791977,168.88899170444336L19.719000668669082,137.8972842830091A139.30003589374985,139.30003589374985,0,0,0,139.29619036432442,1.0350603778969192Z" fill-rule="evenodd" style="fill: #1DC690; stroke: #fff; opacity: 1;" id="p-type-logs"></path><path d="M24.15074493791977,168.88899170444336A170.6070045455344,170.6070045455344,0,0,1,-157.16303664783337,66.38169861966315L-128.32308207117484,54.200429959129714A139.30003589374985,139.30003589374985,0,0,0,19.719000668669082,137.8972842830091Z" fill-rule="evenodd" style="fill: #D7A449; stroke: #fff; opacity: 1;" id="p-type-tokenTransfers"></path><path d="M-157.16303664783337,66.38169861966315A170.6070045455344,170.6070045455344,0,0,1,-168.44092658891097,27.099893908816313L-137.5314406481439,22.12697072005263A139.30003589374985,139.30003589374985,0,0,0,-128.32308207117484,54.200429959129714Z" fill-rule="evenodd" style="fill: #414552; stroke: #fff; opacity: 1;" id="p-type-ether"></path><path d="M-127.26702037294753,-113.62154516372219A170.6070045455344,170.6070045455344,0,0,1,-31.448133259430698,-167.6835260677002L-25.67729328288467,-136.91302571218242A139.30003589374985,139.30003589374985,0,0,0,-103.9130869993709,-92.77160314590436Z" fill-rule="evenodd" style="fill: #D7A449; stroke: #fff; opacity: 1;" id="p-type-tokenTransfers"></path><path d="M-31.448133259430698,-167.6835260677002A170.6070045455344,170.6070045455344,0,0,1,-5.2706616892941955,-170.52557029770347L-4.303477248535463,-139.23354510882547A139.30003589374985,139.30003589374985,0,0,0,-25.67729328288467,-136.91302571218242Z" fill-rule="evenodd" style="fill: #414552; stroke: #fff; opacity: 1;" id="p-type-ether"></path><path d="M1.206277097160143e-14,-197A197,197,0,0,1,3.4998434034037307,-196.96890895811867L3.03095329661502,-170.58007891343507A170.6070045455344,170.6070045455344,0,0,0,1.0446666101440332e-14,-170.6070045455344Z" fill-rule="evenodd" style="fill: #DB3F29; stroke: #fff; opacity: 1;" id="p-type-functions"></path><path d="M3.4998434034037307,-196.96890895811867A197,197,0,0,1,6.542326561393083,-196.89133541922075L5.6658210020201025,-170.512898258088A170.6070045455344,170.6070045455344,0,0,0,3.03095329661502,-170.58007891343507Z" fill-rule="evenodd" style="fill: #DB3F29; stroke: #fff; opacity: 1;" id="p-type-functions"></path><path d="M6.542326561393083,-196.89133541922075A197,197,0,0,1,8.063027955451165,-196.83492469627845L6.982787040844812,-170.46404513897411A170.6070045455344,170.6070045455344,0,0,0,5.6658210020201025,-170.512898258088Z" fill-rule="evenodd" style="fill: #DB3F29; stroke: #fff; opacity: 1;" id="p-type-functions"></path><path d="M8.063027955451165,-196.83492469627845A197,197,0,0,1,9.583248232397958,-196.76676892533516L8.299336420028949,-170.4050205099227A170.6070045455344,170.6070045455344,0,0,0,6.982787040844812,-170.46404513897411Z" fill-rule="evenodd" style="fill: #DB3F29; stroke: #fff; opacity: 1;" id="p-type-functions"></path><path d="M9.583248232397958,-196.76676892533516A197,197,0,0,1,11.102896681399741,-196.68687217321386L9.615390581686114,-170.3358278929058A170.6070045455344,170.6070045455344,0,0,0,8.299336420028949,-170.4050205099227Z" fill-rule="evenodd" style="fill: #DB3F29; stroke: #fff; opacity: 1;" id="p-type-functions"></path><path d="M11.102896681399741,-196.68687217321386A197,197,0,0,1,12.621882625743497,-196.59523920731638L10.930870997479303,-170.25647141661446A170.6070045455344,170.6070045455344,0,0,0,9.615390581686114,-170.3358278929058Z" fill-rule="evenodd" style="fill: #DB3F29; stroke: #fff; opacity: 1;" id="p-type-functions"></path><path d="M12.621882625743497,-196.59523920731638A197,197,0,0,1,14.140115428247558,-196.4918754953391L12.245699173306662,-170.16695581621266A170.6070045455344,170.6070045455344,0,0,0,10.930870997479303,-170.25647141661446Z" fill-rule="evenodd" style="fill: #DB3F29; stroke: #fff; opacity: 1;" id="p-type-functions"></path><path d="M14.140115428247558,-196.4918754953391A197,197,0,0,1,15.657504496669869,-196.3767872049463L13.559796653985186,-170.0672864330544A170.6070045455344,170.6070045455344,0,0,0,12.245699173306662,-170.16695581621266Z" fill-rule="evenodd" style="fill: #DB3F29; stroke: #fff; opacity: 1;" id="p-type-functions"></path><path d="M15.657504496669869,-196.3767872049463A197,197,0,0,1,17.1739592891136,-196.2499812034026L14.873085027932115,-169.9574692143652A170.6070045455344,170.6070045455344,0,0,0,13.559796653985186,-170.0672864330544Z" fill-rule="evenodd" style="fill: #DB3F29; stroke: #fff; opacity: 1;" id="p-type-functions"></path><path d="M17.1739592891136,-196.2499812034026A197,197,0,0,1,18.689389319429726,-196.1114650571628L16.185485931843704,-169.83751071288725A170.6070045455344,170.6070045455344,0,0,0,14.873085027932115,-169.9574692143652Z" fill-rule="evenodd" style="fill: #DB3F29; stroke: #fff; opacity: 1;" id="p-type-functions"></path><path d="M18.689389319429726,-196.1114650571628A197,197,0,0,1,20.203704162616308,-195.96124703142067L17.496921055371132,-169.70741808648822A170.6070045455344,170.6070045455344,0,0,0,16.185485931843704,-169.83751071288725Z" fill-rule="evenodd" style="fill: #DB3F29; stroke: #fff; opacity: 1;" id="p-type-functions"></path><path d="M20.203704162616308,-195.96124703142067A197,197,0,0,1,21.716813460214095,-195.79933608961565L18.807312145793244,-169.56719909773437A170.6070045455344,170.6070045455344,0,0,0,17.496921055371132,-169.70741808648822Z" fill-rule="evenodd" style="fill: #DB3F29; stroke: #fff; opacity: 1;" id="p-type-functions"></path><path d="M21.716813460214095,-195.79933608961565A197,197,0,0,1,23.22862692569818,-195.62574189289796L20.11658101268585,-169.41686211342733A170.6070045455344,170.6070045455344,0,0,0,18.807312145793244,-169.56719909773437Z" fill-rule="evenodd" style="fill: #DB3F29; stroke: #fff; opacity: 1;" id="p-type-functions"></path><path d="M23.22862692569818,-195.62574189289796A197,197,0,0,1,24.739054349865352,-195.44047479955222L21.424649532587313,-169.25641610410463A170.6070045455344,170.6070045455344,0,0,0,20.11658101268585,-169.41686211342733Z" fill-rule="evenodd" style="fill: #DB3F29; stroke: #fff; opacity: 1;" id="p-type-functions"></path><path d="M24.739054349865352,-195.44047479955222A197,197,0,0,1,26.248005606216847,-195.24354586437937L22.731439653660154,-169.0858706435047A170.6070045455344,170.6070045455344,0,0,0,21.424649532587313,-169.25641610410463Z" fill-rule="evenodd" style="fill: #DB3F29; stroke: #fff; opacity: 1;" id="p-type-functions"></path><path d="M26.248005606216847,-195.24354586437937A197,197,0,0,1,27.75539065633613,-195.03496683803695L24.03687340034833,-168.90523590799555A170.6070045455344,170.6070045455344,0,0,0,22.731439653660154,-169.0858706435047Z" fill-rule="evenodd" style="fill: #DB3F29; stroke: #fff; opacity: 1;" id="p-type-functions"></path><path d="M27.75539065633613,-195.03496683803695A197,197,0,0,1,29.261119555261462,-194.814750166338L25.34087287803004,-168.7145226759674A170.6070045455344,170.6070045455344,0,0,0,24.03687340034833,-168.90523590799555Z" fill-rule="evenodd" style="fill: #DB3F29; stroke: #fff; opacity: 1;" id="p-type-functions"></path><path d="M29.261119555261462,-194.814750166338A197,197,0,0,1,30.76510245685289,-194.5829089895085L26.64336027766565,-168.51374232718976A170.6070045455344,170.6070045455344,0,0,0,25.34087287803004,-168.7145226759674Z" fill-rule="evenodd" style="fill: #DB3F29; stroke: #fff; opacity: 1;" id="p-type-functions"></path><path d="M30.76510245685289,-194.5829089895085A197,197,0,0,1,32.26724961915328,-194.3394571414031L27.944257880440492,-168.30290684213222A170.6070045455344,170.6070045455344,0,0,0,26.64336027766565,-168.51374232718976Z" fill-rule="evenodd" style="fill: #DB3F29; stroke: #fff; opacity: 1;" id="p-type-functions"></path><path d="M32.26724961915328,-194.3394571414031A197,197,0,0,1,33.76747140974324,-194.08440914867987L29.24348806240237,-168.0820288012497A170.6070045455344,170.6070045455344,0,0,0,27.944257880440492,-168.30290684213222Z" fill-rule="evenodd" style="fill: #DB3F29; stroke: #fff; opacity: 1;" id="p-type-functions"></path><path d="M33.76747140974324,-194.08440914867987A197,197,0,0,1,35.26567831108935,-193.8177802299334L30.540973299093277,-167.85112138423165A170.6070045455344,170.6070045455344,0,0,0,29.24348806240237,-168.0820288012497Z" fill-rule="evenodd" style="fill: #DB3F29; stroke: #fff; opacity: 1;" id="p-type-functions"></path><path d="M35.26567831108935,-193.8177802299334A197,197,0,0,1,36.76178092588576,-193.5395862947867L31.83663617017529,-167.61019836921585A170.6070045455344,170.6070045455344,0,0,0,30.540973299093277,-167.85112138423165Z" fill-rule="evenodd" style="fill: #DB3F29; stroke: #fff; opacity: 1;" id="p-type-functions"></path><path d="M36.76178092588576,-193.5395862947867A197,197,0,0,1,38.25568998238837,-193.24984394294188L33.130399364050184,-167.359274131966A170.6070045455344,170.6070045455344,0,0,0,31.83663617017529,-167.61019836921585Z" fill-rule="evenodd" style="fill: #DB3F29; stroke: #fff; opacity: 1;" id="p-type-functions"></path><path d="M38.25568998238837,-193.24984394294188A197,197,0,0,1,39.74731633974168,-192.94857046318978L34.4221856824726,-167.09836364501413A170.6070045455344,170.6070045455344,0,0,0,33.130399364050184,-167.359274131966Z" fill-rule="evenodd" style="fill: #DB3F29; stroke: #fff; opacity: 1;" id="p-type-functions"></path><path d="M39.74731633974168,-192.94857046318978A197,197,0,0,1,41.236570993297796,-192.63578383237814L35.711918045156395,-166.8274824767671A170.6070045455344,170.6070045455344,0,0,0,34.4221856824726,-167.09836364501413Z" fill-rule="evenodd" style="fill: #DB3F29; stroke: #fff; opacity: 1;" id="p-type-functions"></path><path d="M41.236570993297796,-192.63578383237814A197,197,0,0,1,42.723365079927284,-192.31150271433907L36.99951949437401,-166.54664679057765A170.6070045455344,170.6070045455344,0,0,0,35.711918045156395,-166.8274824767671Z" fill-rule="evenodd" style="fill: #DB3F29; stroke: #fff; opacity: 1;" id="p-type-functions"></path><path d="M42.723365079927284,-192.31150271433907A197,197,0,0,1,44.20760988332158,-191.9757464587755L38.28491319954851,-166.25587334378005A170.6070045455344,170.6070045455344,0,0,0,36.99951949437401,-166.54664679057765Z" fill-rule="evenodd" style="fill: #DB3F29; stroke: #fff; opacity: 1;" id="p-type-functions"></path><path d="M44.20760988332158,-191.9757464587755A197,197,0,0,1,45.68921683928666,-191.62853510010623L39.568022461838,-165.95517948668996A170.6070045455344,170.6070045455344,0,0,0,38.28491319954851,-166.25587334378005Z" fill-rule="evenodd" style="fill: #DB3F29; stroke: #fff; opacity: 1;" id="p-type-functions"></path><path d="M45.68921683928666,-191.62853510010623A197,197,0,0,1,47.16809754102763,-191.26988935627088L40.84877071871224,-165.6445831615694A170.6070045455344,170.6070045455344,0,0,0,39.568022461838,-165.95517948668996Z" fill-rule="evenodd" style="fill: #DB3F29; stroke: #fff; opacity: 1;" id="p-type-functions"></path><path d="M47.16809754102763,-191.26988935627088A197,197,0,0,1,48.64416374442389,-190.89983062749343L42.127081548521055,-165.32410290155593A170.6070045455344,170.6070045455344,0,0,0,40.84877071871224,-165.6445831615694Z" fill-rule="evenodd" style="fill: #DB3F29; stroke: #fff; opacity: 1;" id="p-type-functions"></path><path d="M48.64416374442389,-190.89983062749343A197,197,0,0,1,50.117327373294685,-190.51838099500532L43.402878675054424,-164.99375782955698A170.6070045455344,170.6070045455344,0,0,0,42.127081548521055,-165.32410290155593Z" fill-rule="evenodd" style="fill: #DB3F29; stroke: #fff; opacity: 1;" id="p-type-functions"></path><path d="M50.117327373294685,-190.51838099500532A197,197,0,0,1,51.58750052465449,-190.12556321972798L44.676085972093844,-164.65356765710874A170.6070045455344,170.6070045455344,0,0,0,43.402878675054424,-164.99375782955698Z" fill-rule="evenodd" style="fill: #DB3F29; stroke: #fff; opacity: 1;" id="p-type-functions"></path><path d="M51.58750052465449,-190.12556321972798A197,197,0,0,1,53.054595473958166,-189.72140074091445L45.94662746795467,-164.30355268319974A170.6070045455344,170.6070045455344,0,0,0,44.676085972093844,-164.65356765710874Z" fill-rule="evenodd" style="fill: #DB3F29; stroke: #fff; opacity: 1;" id="p-type-functions"></path><path d="M53.054595473958166,-189.72140074091445A197,197,0,0,1,54.51852468033551,-189.3059176747511L47.21442735001944,-163.94373379306003A170.6070045455344,170.6070045455344,0,0,0,45.94662746795467,-164.30355268319974Z" fill-rule="evenodd" style="fill: #DB3F29; stroke: #fff; opacity: 1;" id="p-type-functions"></path><path d="M54.51852468033551,-189.3059176747511A197,197,0,0,1,55.97920079181465,-188.8791388129184L48.47940996926145,-163.5741324569147A170.6070045455344,170.6070045455344,0,0,0,47.21442735001944,-163.94373379306003Z" fill-rule="evenodd" style="fill: #DB3F29; stroke: #fff; opacity: 1;" id="p-type-functions"></path><path d="M55.97920079181465,-188.8791388129184A197,197,0,0,1,57.436536650534414,-188.4410896211116L49.74149984475878,-163.19477072870276A170.6070045455344,170.6070045455344,0,0,0,48.47940996926145,-163.5741324569147Z" fill-rule="evenodd" style="fill: #DB3F29; stroke: #fff; opacity: 1;" id="p-type-functions"></path><path d="M57.436536650534414,-188.4410896211116A197,197,0,0,1,58.89044529794494,-187.99179623752136L51.000621668198164,-162.80567124476136A170.6070045455344,170.6070045455344,0,0,0,49.74149984475878,-163.19477072870276Z" fill-rule="evenodd" style="fill: #DB3F29; stroke: #fff; opacity: 1;" id="p-type-functions"></path><path d="M58.89044529794494,-187.99179623752136A197,197,0,0,1,60.34083997999645,-187.531285471274L52.25670030836863,-162.40685722247488A170.6070045455344,170.6070045455344,0,0,0,51.000621668198164,-162.80567124476136Z" fill-rule="evenodd" style="fill: #DB3F29; stroke: #fff; opacity: 1;" id="p-type-functions"></path><path d="M60.34083997999645,-187.531285471274A197,197,0,0,1,61.78763415231586,-187.05958480083174L53.50966081564451,-161.99835245888977A170.6070045455344,170.6070045455344,0,0,0,52.25670030836863,-162.40685722247488Z" fill-rule="evenodd" style="fill: #DB3F29; stroke: #fff; opacity: 1;" id="p-type-functions"></path><path d="M61.78763415231586,-187.05958480083174A197,197,0,0,1,63.23074148537081,-186.57672237235332L54.75942842645771,-161.5801813292944A170.6070045455344,170.6070045455344,0,0,0,53.50966081564451,-161.99835245888977Z" fill-rule="evenodd" style="fill: #DB3F29; stroke: #fff; opacity: 1;" id="p-type-functions"></path><path d="M63.23074148537081,-186.57672237235332A197,197,0,0,1,64.6700758696209,-186.08272699801418L56.00592856775872,-161.15236878576468A170.6070045455344,170.6070045455344,0,0,0,54.75942842645771,-161.5801813292944Z" fill-rule="evenodd" style="fill: #DB3F29; stroke: #fff; opacity: 1;" id="p-type-functions"></path><path d="M64.6700758696209,-186.08272699801418A197,197,0,0,1,66.10555142065586,-185.57762815428757L57.24908686146645,-160.71494035567528A170.6070045455344,170.6070045455344,0,0,0,56.00592856775872,-161.15236878576468Z" fill-rule="evenodd" style="fill: #DB3F29; stroke: #fff; opacity: 1;" id="p-type-functions"></path><path d="M66.10555142065586,-185.57762815428757A197,197,0,0,1,67.53708248432014,-185.0614559801855L58.48882912890629,-160.26792214017627A170.6070045455344,170.6070045455344,0,0,0,57.24908686146645,-160.71494035567528Z" fill-rule="evenodd" style="fill: #DB3F29; stroke: #fff; opacity: 1;" id="p-type-functions"></path><path d="M67.53708248432014,-185.0614559801855A197,197,0,0,1,68.96458364182396,-184.5342412754605L59.725081395236295,-159.8113408126357A170.6070045455344,170.6070045455344,0,0,0,58.48882912890629,-160.26792214017627Z" fill-rule="evenodd" style="fill: #DB3F29; stroke: #fff; opacity: 1;" id="p-type-functions"></path><path d="M68.96458364182396,-184.5342412754605A197,197,0,0,1,70.38796971484017,-183.99601549876763L60.95776989386129,-159.34522361704808A170.6070045455344,170.6070045455344,0,0,0,59.725081395236295,-159.8113408126357Z" fill-rule="evenodd" style="fill: #DB3F29; stroke: #fff; opacity: 1;" id="p-type-functions"></path><path d="M70.38796971484017,-183.99601549876763A197,197,0,0,1,71.80715577058669,-183.44681076578763L62.18682107083443,-158.86959836640872A170.6070045455344,170.6070045455344,0,0,0,60.95776989386129,-159.34522361704808Z" fill-rule="evenodd" style="fill: #DB3F29; stroke: #fff; opacity: 1;" id="p-type-functions"></path><path d="M71.80715577058669,-183.44681076578763A197,197,0,0,1,73.22205712689464,-182.88665984731028L63.41216158924615,-158.38449344105416A170.6070045455344,170.6070045455344,0,0,0,62.18682107083443,-158.86959836640872Z" fill-rule="evenodd" style="fill: #DB3F29; stroke: #fff; opacity: 1;" id="p-type-functions"></path><path d="M73.22205712689464,-182.88665984731028A197,197,0,0,1,74.63258935726105,-182.31559616727924L64.6337183336002,-157.88993778696866A170.6070045455344,170.6070045455344,0,0,0,63.41216158924615,-158.38449344105416Z" fill-rule="evenodd" style="fill: #DB3F29; stroke: #fff; opacity: 1;" id="p-type-functions"></path><path d="M74.63258935726105,-182.31559616727924A197,197,0,0,1,76.03866829588671,-181.7336538007975L65.85141841417628,-157.38596091405702A170.6070045455344,170.6070045455344,0,0,0,64.6337183336002,-157.88993778696866Z" fill-rule="evenodd" style="fill: #DB3F29; stroke: #fff; opacity: 1;" id="p-type-functions"></path><path d="M76.03866829588671,-181.7336538007975A197,197,0,0,1,77.44021004269824,-181.14086747209416L67.06518917137949,-156.8725928943838A170.6070045455344,170.6070045455344,0,0,0,65.85141841417628,-157.38596091405702Z" fill-rule="evenodd" style="fill: #DB3F29; stroke: #fff; opacity: 1;" id="p-type-functions"></path><path d="M77.44021004269824,-181.14086747209416A197,197,0,0,1,78.83713096835434,-180.53727255245258L68.27495818007574,-156.34986436037897A170.6070045455344,170.6070045455344,0,0,0,67.06518917137949,-156.8725928943838Z" fill-rule="evenodd" style="fill: #DB3F29; stroke: #fff; opacity: 1;" id="p-type-functions"></path><path d="M78.83713096835434,-180.53727255245258A197,197,0,0,1,80.22934771923602,-179.9229050580996L69.4806532539135,-155.8178065030099A170.6070045455344,170.6070045455344,0,0,0,68.27495818007574,-156.34986436037897Z" fill-rule="evenodd" style="fill: #DB3F29; stroke: #fff; opacity: 1;" id="p-type-functions"></path><path d="M80.22934771923602,-179.9229050580996A197,197,0,0,1,81.61677722242011,-179.29780164805658L70.68220244963095,-155.2764510699204A170.6070045455344,170.6070045455344,0,0,0,69.4806532539135,-155.8178065030099Z" fill-rule="evenodd" style="fill: #DB3F29; stroke: #fff; opacity: 1;" id="p-type-functions"></path><path d="M81.61677722242011,-179.29780164805658A197,197,0,0,1,82.99933669063637,-178.66199962195202L71.87953407134893,-154.72583036353623A170.6070045455344,170.6070045455344,0,0,0,70.68220244963095,-155.2764510699204Z" fill-rule="evenodd" style="fill: #DB3F29; stroke: #fff; opacity: 1;" id="p-type-functions"></path><path d="M82.99933669063637,-178.66199962195202A197,197,0,0,1,84.37694362720718,-178.01553691779577L73.07257667484892,-154.1659772391377A170.6070045455344,170.6070045455344,0,0,0,71.87953407134893,-154.72583036353623Z" fill-rule="evenodd" style="fill: #DB3F29; stroke: #fff; opacity: 1;" id="p-type-functions"></path><path d="M84.37694362720718,-178.01553691779577A197,197,0,0,1,85.74951583097022,-177.35845210971533L74.26125907183611,-153.59692510289923A170.6070045455344,170.6070045455344,0,0,0,73.07257667484892,-154.1659772391377Z" fill-rule="evenodd" style="fill: #DB3F29; stroke: #fff; opacity: 1;" id="p-type-functions"></path><path d="M85.74951583097022,-177.35845210971533A197,197,0,0,1,87.11697140118336,-176.69078440565428L75.4455103341872,-153.01870790989594A170.6070045455344,170.6070045455344,0,0,0,74.26125907183611,-153.59692510289923Z" fill-rule="evenodd" style="fill: #DB3F29; stroke: #fff; opacity: 1;" id="p-type-functions"></path><path d="M87.11697140118336,-176.69078440565428A197,197,0,0,1,88.47922874241151,-176.01257364503257L76.62525979818264,-152.43136016207757A170.6070045455344,170.6070045455344,0,0,0,75.4455103341872,-153.01870790989594Z" fill-rule="evenodd" style="fill: #DB3F29; stroke: #fff; opacity: 1;" id="p-type-functions"></path><path d="M88.47922874241151,-176.01257364503257A197,197,0,0,1,89.83620656939556,-175.3238602963695L77.80043706872303,-151.8349169062099A170.6070045455344,170.6070045455344,0,0,0,76.62525979818264,-152.43136016207757Z" fill-rule="evenodd" style="fill: #DB3F29; stroke: #fff; opacity: 1;" id="p-type-functions"></path><path d="M89.83620656939556,-175.3238602963695A197,197,0,0,1,91.18782391190248,-174.6246854548688L78.97097202352964,-151.22941373178332A170.6070045455344,170.6070045455344,0,0,0,77.80043706872303,-151.8349169062099Z" fill-rule="evenodd" style="fill: #DB3F29; stroke: #fff; opacity: 1;" id="p-type-functions"></path><path d="M91.18782391190248,-174.6246854548688A197,197,0,0,1,92.53400011955694,-173.9150908399666L80.13679481732858,-150.6148867688894A170.6070045455344,170.6070045455344,0,0,0,78.97097202352964,-151.22941373178332Z" fill-rule="evenodd" style="fill: #DB3F29; stroke: #fff; opacity: 1;" id="p-type-functions"></path><path d="M92.53400011955694,-173.9150908399666A197,197,0,0,1,93.87465486665346,-173.19511879284212L81.29783588601838,-149.99137268606492A170.6070045455344,170.6070045455344,0,0,0,80.13679481732858,-150.6148867688894Z" fill-rule="evenodd" style="fill: #DB3F29; stroke: #fff; opacity: 1;" id="p-type-functions"></path><path d="M93.87465486665346,-173.19511879284212A197,197,0,0,1,95.20970815694962,-172.46481227389106L82.45402595082085,-149.35890868810392A170.6070045455344,170.6070045455344,0,0,0,81.29783588601838,-149.99137268606492Z" fill-rule="evenodd" style="fill: #DB3F29; stroke: #fff; opacity: 1;" id="p-type-functions"></path><path d="M95.20970815694962,-172.46481227389106A197,197,0,0,1,96.5390803284393,-171.72421486016216L83.60529602241499,-148.71753251383765A170.6070045455344,170.6070045455344,0,0,0,82.45402595082085,-149.35890868810392Z" fill-rule="evenodd" style="fill: #DB3F29; stroke: #fff; opacity: 1;" id="p-type-functions"></path><path d="M96.5390803284393,-171.72421486016216A197,197,0,0,1,97.86269205810605,-170.97337074275723L84.75157740505347,-148.06728243388284A170.6070045455344,170.6070045455344,0,0,0,83.60529602241499,-148.71753251383765Z" fill-rule="evenodd" style="fill: #DB3F29; stroke: #fff; opacity: 1;" id="p-type-functions"></path><path d="M97.86269205810605,-170.97337074275723A197,197,0,0,1,99.18046436665634,-170.21232472419385L85.89280170066168,-147.40819724835796A170.6070045455344,170.6070045455344,0,0,0,84.75157740505347,-148.06728243388284Z" fill-rule="evenodd" style="fill: #DB3F29; stroke: #fff; opacity: 1;" id="p-type-functions"></path><path d="M99.18046436665634,-170.21232472419385A197,197,0,0,1,100.49231862323211,-169.44112221573252L87.02890081291905,-146.74031628456817A170.6070045455344,170.6070045455344,0,0,0,85.89280170066168,-147.40819724835796Z" fill-rule="evenodd" style="fill: #DB3F29; stroke: #fff; opacity: 1;" id="p-type-functions"></path><path d="M100.49231862323211,-169.44112221573252A197,197,0,0,1,101.79817655010275,-168.65980923466654L88.15980695132231,-146.0636793946585A170.6070045455344,170.6070045455344,0,0,0,87.02890081291905,-146.74031628456817Z" fill-rule="evenodd" style="fill: #DB3F29; stroke: #fff; opacity: 1;" id="p-type-functions"></path><path d="M101.79817655010275,-168.65980923466654A197,197,0,0,1,103.0979602273358,-167.86843240157657L89.28545263523048,-145.3783269532361A170.6070045455344,170.6070045455344,0,0,0,88.15980695132231,-146.0636793946585Z" fill-rule="evenodd" style="fill: #DB3F29; stroke: #fff; opacity: 1;" id="p-type-functions"></path><path d="M103.0979602273358,-167.86843240157657A197,197,0,0,1,104.39159209744652,-167.0670389375485L90.40577069789154,-144.68429985496095A170.6070045455344,170.6070045455344,0,0,0,89.28545263523048,-145.3783269532361Z" fill-rule="evenodd" style="fill: #DB3F29; stroke: #fff; opacity: 1;" id="p-type-functions"></path><path d="M104.39159209744652,-167.0670389375485A197,197,0,0,1,105.67899497002553,-166.2556766613559L91.52069429045001,-143.9816395121058A170.6070045455344,170.6070045455344,0,0,0,90.40577069789154,-144.68429985496095Z" fill-rule="evenodd" style="fill: #DB3F29; stroke: #fff; opacity: 1;" id="p-type-functions"></path><path d="M105.67899497002553,-166.2556766613559A197,197,0,0,1,106.96009202634484,-165.43439398660678L92.630156885936,-143.27038785208507A170.6070045455344,170.6070045455344,0,0,0,91.52069429045001,-143.9816395121058Z" fill-rule="evenodd" style="fill: #DB3F29; stroke: #fff; opacity: 1;" id="p-type-functions"></path><path d="M106.96009202634484,-165.43439398660678A197,197,0,0,1,108.23480682394161,-164.6032399188547L93.73409228323474,-142.55058731495296A170.6070045455344,170.6070045455344,0,0,0,92.630156885936,-143.27038785208507Z" fill-rule="evenodd" style="fill: #DB3F29; stroke: #fff; opacity: 1;" id="p-type-functions"></path><path d="M108.23480682394161,-164.6032399188547A197,197,0,0,1,109.50306330117941,-163.76226405267454L94.83243461103683,-141.82228085087132A170.6070045455344,170.6070045455344,0,0,0,93.73409228323474,-142.55058731495296Z" fill-rule="evenodd" style="fill: #DB3F29; stroke: #fff; opacity: 1;" id="p-type-functions"></path><path d="M109.50306330117941,-163.76226405267454A197,197,0,0,1,110.76478578178667,-162.91151656870335L95.92511833176864,-141.0855119175466A170.6070045455344,170.6070045455344,0,0,0,94.83243461103683,-141.82228085087132Z" fill-rule="evenodd" style="fill: #DB3F29; stroke: #fff; opacity: 1;" id="p-type-functions"></path><path d="M110.76478578178667,-162.91151656870335A197,197,0,0,1,112.01989897937246,-162.0510482306461L97.01207824550306,-140.34032447763684A170.6070045455344,170.6070045455344,0,0,0,95.92511833176864,-141.0855119175466Z" fill-rule="evenodd" style="fill: #DB3F29; stroke: #fff; opacity: 1;" id="p-type-functions"></path><path d="M112.01989897937246,-162.0510482306461A197,197,0,0,1,113.26832800191863,-161.18091038224648L98.09324949384983,-139.58676299612844A170.6070045455344,170.6070045455344,0,0,0,97.01207824550306,-140.34032447763684Z" fill-rule="evenodd" style="fill: #DB3F29; stroke: #fff; opacity: 1;" id="p-type-functions"></path><path d="M113.26832800191863,-161.18091038224648A197,197,0,0,1,114.50999835624862,-160.30115494422347L99.1685675638256,-138.82487243768298A170.6070045455344,170.6070045455344,0,0,0,98.09324949384983,-139.58676299612844Z" fill-rule="evenodd" style="fill: #DB3F29; stroke: #fff; opacity: 1;" id="p-type-functions"></path><path d="M114.50999835624862,-160.30115494422347A197,197,0,0,1,115.74483595247246,-159.41183441117298L100.23796829170357,-138.05469826395415A170.6070045455344,170.6070045455344,0,0,0,99.1685675638256,-138.82487243768298Z" fill-rule="evenodd" style="fill: #DB3F29; stroke: #fff; opacity: 1;" id="p-type-functions"></path><path d="M115.74483595247246,-159.41183441117298A197,197,0,0,1,116.97276710840768,-158.51300184843583L101.30138786684186,-137.2762864308751A170.6070045455344,170.6070045455344,0,0,0,100.23796829170357,-138.05469826395415Z" fill-rule="evenodd" style="fill: #DB3F29; stroke: #fff; opacity: 1;" id="p-type-functions"></path><path d="M116.97276710840768,-158.51300184843583A197,197,0,0,1,118.19371855397584,-157.60471088893107L102.35876283549122,-136.48968338591624A170.6070045455344,170.6070045455344,0,0,0,101.30138786684186,-137.2762864308751Z" fill-rule="evenodd" style="fill: #DB3F29; stroke: #fff; opacity: 1;" id="p-type-functions"></path><path d="M118.19371855397584,-157.60471088893107A197,197,0,0,1,119.40761743557461,-156.68701572995593L103.41003010458127,-135.69493606531378A170.6070045455344,170.6070045455344,0,0,0,102.35876283549122,-136.48968338591624Z" fill-rule="evenodd" style="fill: #DB3F29; stroke: #fff; opacity: 1;" id="p-type-functions"></path><path d="M119.40761743557461,-156.68701572995593A197,197,0,0,1,120.61439132042474,-155.75997112995188L104.45512694548513,-134.89209189126908A170.6070045455344,170.6070045455344,0,0,0,103.41003010458127,-135.69493606531378Z" fill-rule="evenodd" style="fill: #DB3F29; stroke: #fff; opacity: 1;" id="p-type-functions"></path><path d="M120.61439132042474,-155.75997112995188A197,197,0,0,1,121.81396820089242,-154.82363240523708L105.49399099776262,-134.08119876911894A170.6070045455344,170.6070045455344,0,0,0,104.45512694548513,-134.89209189126908Z" fill-rule="evenodd" style="fill: #DB3F29; stroke: #fff; opacity: 1;" id="p-type-functions"></path><path d="M121.81396820089242,-154.82363240523708A197,197,0,0,1,123.00627649878548,-153.87805542670577L106.526560272881,-133.2623050844771A170.6070045455344,170.6070045455344,0,0,0,105.49399099776262,-134.08119876911894Z" fill-rule="evenodd" style="fill: #DB3F29; stroke: #fff; opacity: 1;" id="p-type-functions"></path><path d="M123.00627649878548,-153.87805542670577A197,197,0,0,1,124.19124506962487,-152.92329661649455L107.55277315791405,-132.4354597003472A170.6070045455344,170.6070045455344,0,0,0,106.526560272881,-133.2623050844771Z" fill-rule="evenodd" style="fill: #DB3F29; stroke: #fff; opacity: 1;" id="p-type-functions"></path><path d="M124.19124506962487,-152.92329661649455A197,197,0,0,1,125.36880320688952,-151.95941294461562L108.57256841921831,-131.600711954207A170.6070045455344,170.6070045455344,0,0,0,107.55277315791405,-132.4354597003472Z" fill-rule="evenodd" style="fill: #DB3F29; stroke: #fff; opacity: 1;" id="p-type-functions"></path><path d="M125.36880320688952,-151.95941294461562A197,197,0,0,1,126.53888064623551,-150.9864619255573L109.585885206087,-130.75811165506454A170.6070045455344,170.6070045455344,0,0,0,108.57256841921831,-131.600711954207Z" fill-rule="evenodd" style="fill: #DB3F29; stroke: #fff; opacity: 1;" id="p-type-functions"></path><path d="M126.53888064623551,-150.9864619255573A197,197,0,0,1,127.70140756968867,-150.00450161485244L110.5926630543808,-129.90770908048606A170.6070045455344,170.6070045455344,0,0,0,109.585885206087,-130.75811165506454Z" fill-rule="evenodd" style="fill: #DB3F29; stroke: #fff; opacity: 1;" id="p-type-functions"></path><path d="M127.70140756968867,-150.00450161485244A197,197,0,0,1,128.85631460981057,-149.01359060561398L111.59284189013584,-129.04955497359586A170.6070045455344,170.6070045455344,0,0,0,110.5926630543808,-129.90770908048606Z" fill-rule="evenodd" style="fill: #DB3F29; stroke: #fff; opacity: 1;" id="p-type-functions"></path><path d="M128.85631460981057,-149.01359060561398A197,197,0,0,1,130.0035328538376,-148.01378802503896L112.58636203314826,-128.18370054004868A170.6070045455344,170.6070045455344,0,0,0,111.59284189013584,-129.04955497359586Z" fill-rule="evenodd" style="fill: #DB3F29; stroke: #fff; opacity: 1;" id="p-type-functions"></path><path d="M130.0035328538376,-148.01378802503896A197,197,0,0,1,131.14299384779324,-147.00515353088022L113.57316420053527,-127.31019744497395A170.6070045455344,170.6070045455344,0,0,0,112.58636203314826,-128.18370054004868Z" fill-rule="evenodd" style="fill: #DB3F29; stroke: #fff; opacity: 1;" id="p-type-functions"></path><path d="M131.14299384779324,-147.00515353088022A197,197,0,0,1,132.27462960057213,-145.9877473078869L114.55318951027255,-126.42909780989336A170.6070045455344,170.6070045455344,0,0,0,113.57316420053527,-127.31019744497395Z" fill-rule="evenodd" style="fill: #DB3F29; stroke: #fff; opacity: 1;" id="p-type-functions"></path><path d="M132.27462960057213,-145.9877473078869A197,197,0,0,1,133.3983725879977,-144.96163006421298L115.52637948470769,-125.54045420961047A170.6070045455344,170.6070045455344,0,0,0,114.55318951027255,-126.42909780989336Z" fill-rule="evenodd" style="fill: #DB3F29; stroke: #fff; opacity: 1;" id="p-type-functions"></path><path d="M133.3983725879977,-144.96163006421298A197,197,0,0,1,134.5141557568508,-143.92686302779506L116.49267605404958,-124.64431966907381A170.6070045455344,170.6070045455344,0,0,0,115.52637948470769,-125.54045420961047Z" fill-rule="evenodd" style="fill: #DB3F29; stroke: #fff; opacity: 1;" id="p-type-functions"></path><path d="M134.5141557568508,-143.92686302779506A197,197,0,0,1,135.62191252887104,-142.88350794269874L117.45202155983337,-123.7407476602127A170.6070045455344,170.6070045455344,0,0,0,116.49267605404958,-124.64431966907381Z" fill-rule="evenodd" style="fill: #DB3F29; stroke: #fff; opacity: 1;" id="p-type-functions"></path><path d="M135.62191252887104,-142.88350794269874A197,197,0,0,1,136.72157680472932,-141.83162706543453L118.40435875836086,-122.82979209874685A170.6070045455344,170.6070045455344,0,0,0,117.45202155983337,-123.7407476602127Z" fill-rule="evenodd" style="fill: #DB3F29; stroke: #fff; opacity: 1;" id="p-type-functions"></path><path d="M136.72157680472932,-141.83162706543453A197,197,0,0,1,137.48278600205006,-141.0938820541646L119.06358526083498,-122.19088617747184A170.6070045455344,170.6070045455344,0,0,0,118.40435875836086,-122.82979209874685Z" fill-rule="evenodd" style="fill: #DB3F29; stroke: #fff; opacity: 1;" id="p-type-functions"></path><path d="M196.99456160013204,1.4637964242968442A197,197,0,0,1,196.97737714757375,2.9854467107106877L170.58741258062722,2.5854726931201473A170.6070045455344,170.6070045455344,0,0,0,170.60229475309282,1.2676848894098918Z" fill-rule="evenodd" style="fill: #1DC690; stroke: #fff; opacity: 1;" id="p-type-logs"></path><path d="M196.97737714757375,2.9854467107106877A197,197,0,0,1,196.94843914694323,4.506918856914018L170.56235153694644,3.9031062228826627A170.6070045455344,170.6070045455344,0,0,0,170.58741258062722,2.5854726931201473Z" fill-rule="evenodd" style="fill: #1DC690; stroke: #fff; opacity: 1;" id="p-type-logs"></path><path d="M196.94843914694323,4.506918856914018A197,197,0,0,1,196.90774932495742,6.028122077374658L170.52711311743127,5.220506856120277A170.6070045455344,170.6070045455344,0,0,0,170.56235153694644,3.9031062228826627Z" fill-rule="evenodd" style="fill: #1DC690; stroke: #fff; opacity: 1;" id="p-type-logs"></path><path d="M196.90774932495742,6.028122077374658A197,197,0,0,1,196.85531010955904,7.548965602607107L170.48169942474175,6.537595984152658A170.6070045455344,170.6070045455344,0,0,0,170.52711311743127,5.220506856120277Z" fill-rule="evenodd" style="fill: #1DC690; stroke: #fff; opacity: 1;" id="p-type-logs"></path><path d="M196.85531010955904,7.548965602607107A197,197,0,0,1,196.79112462977156,9.069358684588709L170.4261131686917,7.854295016886841A170.6070045455344,170.6070045455344,0,0,0,170.48169942474175,6.537595984152658Z" fill-rule="evenodd" style="fill: #1DC690; stroke: #fff; opacity: 1;" id="p-type-logs"></path><path d="M196.79112462977156,9.069358684588709A197,197,0,0,1,196.71519671551255,10.589210602174543L170.36035766608703,9.170525387506666A170.6070045455344,170.6070045455344,0,0,0,170.4261131686917,7.854295016886841Z" fill-rule="evenodd" style="fill: #1DC690; stroke: #fff; opacity: 1;" id="p-type-logs"></path><path d="M196.71519671551255,10.589210602174543A197,197,0,0,1,196.6275308973652,12.108430666510719L170.2844368405279,10.486208557160825A170.6070045455344,170.6070045455344,0,0,0,170.36035766608703,9.170525387506666Z" fill-rule="evenodd" style="fill: #1DC690; stroke: #fff; opacity: 1;" id="p-type-logs"></path><path d="M196.6275308973652,12.108430666510719A197,197,0,0,1,196.52813240630792,13.626928226445735L170.19835522217443,11.801266019649232A170.6070045455344,170.6070045455344,0,0,0,170.2844368405279,10.486208557160825Z" fill-rule="evenodd" style="fill: #1DC690; stroke: #fff; opacity: 1;" id="p-type-logs"></path><path d="M196.52813240630792,13.626928226445735A197,197,0,0,1,196.41700717340223,15.144612673939589L170.10211794747664,13.115619306107458A170.6070045455344,170.6070045455344,0,0,0,170.19835522217443,11.801266019649232Z" fill-rule="evenodd" style="fill: #1DC690; stroke: #fff; opacity: 1;" id="p-type-logs"></path><path d="M196.41700717340223,15.144612673939589A197,197,0,0,1,196.2941618294389,16.661393449470314L169.99573075886778,14.429189989688927A170.6070045455344,170.6070045455344,0,0,0,170.10211794747664,13.115619306107458Z" fill-rule="evenodd" style="fill: #1DC690; stroke: #fff; opacity: 1;" id="p-type-logs"></path><path d="M196.2941618294389,16.661393449470314A197,197,0,0,1,196.15960370454218,18.17718004743763L169.8792000044216,15.741899690244615A170.6070045455344,170.6070045455344,0,0,0,169.99573075886778,14.429189989688927Z" fill-rule="evenodd" style="fill: #1DC690; stroke: #fff; opacity: 1;" id="p-type-logs"></path><path d="M196.15960370454218,18.17718004743763A197,197,0,0,1,196.01334082773252,19.691882021563373L169.75253263747382,17.05367007899995A170.6070045455344,170.6070045455344,0,0,0,169.8792000044216,15.741899690244615Z" fill-rule="evenodd" style="fill: #1DC690; stroke: #fff; opacity: 1;" id="p-type-logs"></path><path d="M196.01334082773252,19.691882021563373A197,197,0,0,1,195.85538192644745,21.20540899028837L169.6157362162071,18.364422883228652A170.6070045455344,170.6070045455344,0,0,0,169.75253263747382,17.05367007899995Z" fill-rule="evenodd" style="fill: #1DC690; stroke: #fff; opacity: 1;" id="p-type-logs"></path><path d="M195.85538192644745,21.20540899028837A197,197,0,0,1,195.6857364260208,22.717670642165473L169.46881890319992,19.67407989092324A170.6070045455344,170.6070045455344,0,0,0,169.6157362162071,18.364422883228652Z" fill-rule="evenodd" style="fill: #1DC690; stroke: #fff; opacity: 1;" id="p-type-logs"></path><path d="M195.6857364260208,22.717670642165473A197,197,0,0,1,195.5044144491204,24.228576741248396L169.31178946493972,20.9825629554619A170.6070045455344,170.6070045455344,0,0,0,169.46881890319992,19.67407989092324Z" fill-rule="evenodd" style="fill: #1DC690; stroke: #fff; opacity: 1;" id="p-type-logs"></path><path d="M195.5044144491204,24.228576741248396A197,197,0,0,1,195.31142681514385,25.738037132476066L169.14465727129976,22.28979400027146A170.6070045455344,170.6070045455344,0,0,0,169.31178946493972,20.9825629554619Z" fill-rule="evenodd" style="fill: #1DC690; stroke: #fff; opacity: 1;" id="p-type-logs"></path><path d="M195.31142681514385,25.738037132476066A197,197,0,0,1,195.10678503957308,27.245961747052107L168.96743229497994,23.595695023486172A170.6070045455344,170.6070045455344,0,0,0,169.14465727129976,22.28979400027146Z" fill-rule="evenodd" style="fill: #1DC690; stroke: #fff; opacity: 1;" id="p-type-logs"></path><path d="M195.10678503957308,27.245961747052107A197,197,0,0,1,194.89050133328726,28.752260607819235L168.7801251109118,24.900188102602062A170.6070045455344,170.6070045455344,0,0,0,168.96743229497994,23.595695023486172Z" fill-rule="evenodd" style="fill: #1DC690; stroke: #fff; opacity: 1;" id="p-type-logs"></path><path d="M194.89050133328726,28.752260607819235A197,197,0,0,1,194.66258860183413,30.256843834628118L168.58274689562748,26.203195399126518A170.6070045455344,170.6070045455344,0,0,0,168.7801251109118,24.900188102602062Z" fill-rule="evenodd" style="fill: #1DC690; stroke: #fff; opacity: 1;" id="p-type-logs"></path><path d="M194.66258860183413,30.256843834628118A197,197,0,0,1,194.42306044465988,31.759621649700517L168.3753094265929,27.504639163222887A170.6070045455344,170.6070045455344,0,0,0,168.58274689562748,26.203195399126518Z" fill-rule="evenodd" style="fill: #1DC690; stroke: #fff; opacity: 1;" id="p-type-logs"></path><path d="M194.42306044465988,31.759621649700517A197,197,0,0,1,194.17193115429777,33.260504382986255L168.15782508150494,28.804441738349762A170.6070045455344,170.6070045455344,0,0,0,168.3753094265929,27.504639163222887Z" fill-rule="evenodd" style="fill: #1DC690; stroke: #fff; opacity: 1;" id="p-type-logs"></path><path d="M194.17193115429777,33.260504382986255A197,197,0,0,1,193.90921571551522,34.75940247751382L167.93030683755288,30.102525565894716A170.6070045455344,170.6070045455344,0,0,0,168.15782508150494,28.804441738349762Z" fill-rule="evenodd" style="fill: #1DC690; stroke: #fff; opacity: 1;" id="p-type-logs"></path><path d="M193.90921571551522,34.75940247751382A197,197,0,0,1,193.63492980441967,36.25622649473413L167.69276827064397,31.398813189802183A170.6070045455344,170.6070045455344,0,0,0,167.93030683755288,30.102525565894716Z" fill-rule="evenodd" style="fill: #1DC690; stroke: #fff; opacity: 1;" id="p-type-logs"></path><path d="M193.63492980441967,36.25622649473413A197,197,0,0,1,193.3490897875234,37.75088711985737L167.44522355459364,32.69322726119524A170.6070045455344,170.6070045455344,0,0,0,167.69276827064397,31.398813189802183Z" fill-rule="evenodd" style="fill: #1DC690; stroke: #fff; opacity: 1;" id="p-type-logs"></path><path d="M193.3490897875234,37.75088711985737A197,197,0,0,1,193.05171272076663,39.243295167182296L167.18768746027936,33.98569054299096A170.6070045455344,170.6070045455344,0,0,0,167.44522355459364,32.69322726119524Z" fill-rule="evenodd" style="fill: #1DC690; stroke: #fff; opacity: 1;" id="p-type-logs"></path><path d="M193.05171272076663,39.243295167182296A197,197,0,0,1,192.7428163485,40.733361585417924L166.9201753547596,35.2761259145091A170.6070045455344,170.6070045455344,0,0,0,167.18768746027936,33.98569054299096Z" fill-rule="evenodd" style="fill: #1DC690; stroke: #fff; opacity: 1;" id="p-type-logs"></path><path d="M192.7428163485,40.733361585417924A197,197,0,0,1,192.42241910242575,42.22099746299722L166.64270320035675,36.56445637607392A170.6070045455344,170.6070045455344,0,0,0,166.9201753547596,35.2761259145091Z" fill-rule="evenodd" style="fill: #1DC690; stroke: #fff; opacity: 1;" id="p-type-logs"></path><path d="M192.42241910242575,42.22099746299722A197,197,0,0,1,192.09054010049786,43.70611403338232L166.35528755370456,37.850605053608646A170.6070045455344,170.6070045455344,0,0,0,166.64270320035675,36.56445637607392Z" fill-rule="evenodd" style="fill: #1DC690; stroke: #fff; opacity: 1;" id="p-type-logs"></path><path d="M192.09054010049786,43.70611403338232A197,197,0,0,1,191.74719914578137,45.18862268036129L166.05794556476047,39.13449520322253A170.6070045455344,170.6070045455344,0,0,0,166.35528755370456,37.850605053608646Z" fill-rule="evenodd" style="fill: #1DC690; stroke: #fff; opacity: 1;" id="p-type-logs"></path><path d="M191.74719914578137,45.18862268036129A197,197,0,0,1,191.3924167252706,46.66843494333575L165.750694975782,40.41605021579014A170.6070045455344,170.6070045455344,0,0,0,166.05794556476047,39.13449520322253Z" fill-rule="evenodd" style="fill: #1DC690; stroke: #fff; opacity: 1;" id="p-type-logs"></path><path d="M191.3924167252706,46.66843494333575A197,197,0,0,1,191.02621400866687,48.14546252259928L165.4335541202683,41.6951936215226A170.6070045455344,170.6070045455344,0,0,0,165.750694975782,40.41605021579014Z" fill-rule="evenodd" style="fill: #1DC690; stroke: #fff; opacity: 1;" id="p-type-logs"></path><path d="M191.02621400866687,48.14546252259928A197,197,0,0,1,190.64861284711515,49.61961728460627L165.106541921866,42.971849094530455A170.6070045455344,170.6070045455344,0,0,0,165.4335541202683,41.6951936215226Z" fill-rule="evenodd" style="fill: #1DC690; stroke: #fff; opacity: 1;" id="p-type-logs"></path><path d="M190.64861284711515,49.61961728460627A197,197,0,0,1,190.2596357719004,51.09081126723074L164.76967789324027,44.24594045737805A170.6070045455344,170.6070045455344,0,0,0,165.106541921866,42.971849094530455Z" fill-rule="evenodd" style="fill: #1DC690; stroke: #fff; opacity: 1;" id="p-type-logs"></path><path d="M190.2596357719004,51.09081126723074A197,197,0,0,1,189.859305993103,52.55895668501505L164.42298213491028,45.51739168562898A170.6070045455344,170.6070045455344,0,0,0,164.76967789324027,44.24594045737805Z" fill-rule="evenodd" style="fill: #1DC690; stroke: #fff; opacity: 1;" id="p-type-logs"></path><path d="M189.859305993103,52.55895668501505A197,197,0,0,1,189.44764739821375,54.02396593440799L164.06647533405,46.786126912382436A170.6070045455344,170.6070045455344,0,0,0,164.42298213491028,45.51739168562898Z" fill-rule="evenodd" style="fill: #1DC690; stroke: #fff; opacity: 1;" id="p-type-logs"></path><path d="M189.44764739821375,54.02396593440799A197,197,0,0,1,189.02468455070874,55.48575159899207L163.7001787632537,48.05207043280017A170.6070045455344,170.6070045455344,0,0,0,164.06647533405,46.786126912382436Z" fill-rule="evenodd" style="fill: #1DC690; stroke: #fff; opacity: 1;" id="p-type-logs"></path><path d="M189.02468455070874,55.48575159899207A197,197,0,0,1,188.59044268858347,56.94422645469958L163.32411427926652,49.315146708623715A170.6070045455344,170.6070045455344,0,0,0,163.7001787632537,48.05207043280017Z" fill-rule="evenodd" style="fill: #1DC690; stroke: #fff; opacity: 1;" id="p-type-logs"></path><path d="M188.59044268858347,56.94422645469958A197,197,0,0,1,188.144947722847,58.39930347501724L162.93830432168068,50.575280372681775A170.6070045455344,170.6070045455344,0,0,0,163.32411427926652,49.315146708623715Z" fill-rule="evenodd" style="fill: #1DC690; stroke: #fff; opacity: 1;" id="p-type-logs"></path><path d="M188.144947722847,58.39930347501724A197,197,0,0,1,187.68822623597583,59.85089583617903L162.54277191159605,51.83239623338732A170.6070045455344,170.6070045455344,0,0,0,162.93830432168068,50.575280372681775Z" fill-rule="evenodd" style="fill: #1DC690; stroke: #fff; opacity: 1;" id="p-type-logs"></path><path d="M187.68822623597583,59.85089583617903A197,197,0,0,1,187.22030548032768,61.298916922346876L162.1375406502467,53.08641927922421A170.6070045455344,170.6070045455344,0,0,0,162.54277191159605,51.83239623338732Z" fill-rule="evenodd" style="fill: #1DC690; stroke: #fff; opacity: 1;" id="p-type-logs"></path><path d="M187.22030548032768,61.298916922346876A197,197,0,0,1,186.74121337651545,62.74328033077906L161.7226347175928,54.337274683223164A170.6070045455344,170.6070045455344,0,0,0,162.1375406502467,53.08641927922421Z" fill-rule="evenodd" style="fill: #1DC690; stroke: #fff; opacity: 1;" id="p-type-logs"></path><path d="M186.74121337651545,62.74328033077906A197,197,0,0,1,186.25097851174118,64.18389987698575L161.29807887087745,55.58488780742657A170.6070045455344,170.6070045455344,0,0,0,161.7226347175928,54.337274683223164Z" fill-rule="evenodd" style="fill: #1DC690; stroke: #fff; opacity: 1;" id="p-type-logs"></path><path d="M186.25097851174118,64.18389987698575A197,197,0,0,1,185.74963013809017,65.62068959987167L160.86389844314968,56.82918420734217A170.6070045455344,170.6070045455344,0,0,0,161.29807887087745,55.58488780742657Z" fill-rule="evenodd" style="fill: #1DC690; stroke: #fff; opacity: 1;" id="p-type-logs"></path><path d="M185.74963013809017,65.62068959987167A197,197,0,0,1,185.23719817078572,67.05356376686524L160.42011934175278,58.07008963638508A170.6070045455344,170.6070045455344,0,0,0,160.86389844314968,56.82918420734217Z" fill-rule="evenodd" style="fill: #1DC690; stroke: #fff; opacity: 1;" id="p-type-logs"></path><path d="M185.23719817078572,67.05356376686524A197,197,0,0,1,184.71371318640388,68.48243687903434L159.9667680467784,59.30753005030805A170.6070045455344,170.6070045455344,0,0,0,160.42011934175278,58.07008963638508Z" fill-rule="evenodd" style="fill: #1DC690; stroke: #fff; opacity: 1;" id="p-type-logs"></path><path d="M184.71371318640388,68.48243687903434A197,197,0,0,1,184.17920642104914,69.9072236761879L159.50387160948657,60.54143161161969A170.6070045455344,170.6070045455344,0,0,0,159.9667680467784,59.30753005030805Z" fill-rule="evenodd" style="fill: #1DC690; stroke: #fff; opacity: 1;" id="p-type-logs"></path><path d="M184.17920642104914,69.9072236761879A197,197,0,0,1,183.63370976849052,71.32783914196334L159.0314576506914,61.77172069399029A170.6070045455344,170.6070045455344,0,0,0,159.50387160948657,60.54143161161969Z" fill-rule="evenodd" style="fill: #1DC690; stroke: #fff; opacity: 1;" id="p-type-logs"></path><path d="M183.63370976849052,71.32783914196334A197,197,0,0,1,183.07725577825832,72.74419850889949L158.54955435911313,62.99832388664504A170.6070045455344,170.6070045455344,0,0,0,159.0314576506914,61.77172069399029Z" fill-rule="evenodd" style="fill: #1DC690; stroke: #fff; opacity: 1;" id="p-type-logs"></path><path d="M183.07725577825832,72.74419850889949A197,197,0,0,1,182.50987765370232,74.1562172634946L158.05819048969602,64.22116799874446A170.6070045455344,170.6070045455344,0,0,0,158.54955435911313,62.99832388664504Z" fill-rule="evenodd" style="fill: #1DC690; stroke: #fff; opacity: 1;" id="p-type-logs"></path><path d="M182.50987765370232,74.1562172634946A197,197,0,0,1,181.93160925001004,75.56381115124925L157.55739536189265,65.44018006375171A170.6070045455344,170.6070045455344,0,0,0,158.05819048969602,64.22116799874446Z" fill-rule="evenodd" style="fill: #1DC690; stroke: #fff; opacity: 1;" id="p-type-logs"></path><path d="M181.93160925001004,75.56381115124925A197,197,0,0,1,181.34248507218703,76.96689618169376L157.0471988579143,66.6552873437863A170.6070045455344,170.6070045455344,0,0,0,157.55739536189265,65.44018006375171Z" fill-rule="evenodd" style="fill: #1DC690; stroke: #fff; opacity: 1;" id="p-type-logs"></path><path d="M181.34248507218703,76.96689618169376A197,197,0,0,1,180.74254027299776,78.36538863339979L156.52763142094804,67.86641733396452A170.6070045455344,170.6070045455344,0,0,0,157.0471988579143,66.6552873437863Z" fill-rule="evenodd" style="fill: #1DC690; stroke: #fff; opacity: 1;" id="p-type-logs"></path><path d="M180.74254027299776,78.36538863339979A197,197,0,0,1,180.1318106508681,79.75920505897614L155.99872405334008,69.07349776672565A170.6070045455344,170.6070045455344,0,0,0,156.52763142094804,67.86641733396452Z" fill-rule="evenodd" style="fill: #1DC690; stroke: #fff; opacity: 1;" id="p-type-logs"></path><path d="M180.1318106508681,79.75920505897614A197,197,0,0,1,179.51033264774927,81.14826229004782L155.46050831474597,70.2764566161442A170.6070045455344,170.6070045455344,0,0,0,155.99872405334008,69.07349776672565Z" fill-rule="evenodd" style="fill: #1DC690; stroke: #fff; opacity: 1;" id="p-type-logs"></path><path d="M179.51033264774927,81.14826229004782A197,197,0,0,1,178.87814334694346,82.53247744221878L154.91301632024738,71.47522210222759A170.6070045455344,170.6070045455344,0,0,0,155.46050831474597,70.2764566161442Z" fill-rule="evenodd" style="fill: #1DC690; stroke: #fff; opacity: 1;" id="p-type-logs"></path><path d="M178.87814334694346,82.53247744221878A197,197,0,0,1,178.2352804708908,83.91176792001757L154.35628073843588,72.66972269519931A170.6070045455344,170.6070045455344,0,0,0,154.91301632024738,71.47522210222759Z" fill-rule="evenodd" style="fill: #1DC690; stroke: #fff; opacity: 1;" id="p-type-logs"></path><path d="M178.2352804708908,83.91176792001757A197,197,0,0,1,177.58178237891886,85.28605142182572L153.79033478946351,73.85988711976702A170.6070045455344,170.6070045455344,0,0,0,154.35628073843588,72.66972269519931Z" fill-rule="evenodd" style="fill: #1DC690; stroke: #fff; opacity: 1;" id="p-type-logs"></path><path d="M177.58178237891886,85.28605142182572A197,197,0,0,1,176.91768806495347,86.65524594478873L153.21521224306068,75.0456443593755A170.6070045455344,170.6070045455344,0,0,0,153.79033478946351,73.85988711976702Z" fill-rule="evenodd" style="fill: #1DC690; stroke: #fff; opacity: 1;" id="p-type-logs"></path><path d="M176.91768806495347,86.65524594478873A197,197,0,0,1,176.24303715519207,88.01926978970904L152.63094741652105,76.22692366044421A170.6070045455344,170.6070045455344,0,0,0,153.21521224306068,75.0456443593755Z" fill-rule="evenodd" style="fill: #1DC690; stroke: #fff; opacity: 1;" id="p-type-logs"></path><path d="M176.24303715519207,88.01926978970904A197,197,0,0,1,175.5578699057393,89.37804156592107L152.03757517265382,77.40365453658913A170.6070045455344,170.6070045455344,0,0,0,152.63094741652105,76.22692366044421Z" fill-rule="evenodd" style="fill: #1DC690; stroke: #fff; opacity: 1;" id="p-type-logs"></path><path d="M175.5578699057393,89.37804156592107A197,197,0,0,1,174.86222720020484,90.7314801961477L151.43513091770365,78.57576677282862A170.6070045455344,170.6070045455344,0,0,0,152.03757517265382,77.40365453658913Z" fill-rule="evenodd" style="fill: #1DC690; stroke: #fff; opacity: 1;" id="p-type-logs"></path><path d="M174.86222720020484,90.7314801961477A197,197,0,0,1,174.15615054726393,92.07950492133817L150.82365059923774,79.74319042977308A170.6070045455344,170.6070045455344,0,0,0,151.43513091770365,78.57576677282862Z" fill-rule="evenodd" style="fill: #1DC690; stroke: #fff; opacity: 1;" id="p-type-logs"></path><path d="M174.15615054726393,92.07950492133817A197,197,0,0,1,173.4396820781806,93.42203530548687L150.20317070400102,80.90585584779835A170.6070045455344,170.6070045455344,0,0,0,150.82365059923774,79.74319042977308Z" fill-rule="evenodd" style="fill: #1DC690; stroke: #fff; opacity: 1;" id="p-type-logs"></path><path d="M173.4396820781806,93.42203530548687A197,197,0,0,1,172.7128645442937,94.75899124043298L149.573728255739,82.06369365120206A170.6070045455344,170.6070045455344,0,0,0,150.20317070400102,80.90585584779835Z" fill-rule="evenodd" style="fill: #1DC690; stroke: #fff; opacity: 1;" id="p-type-logs"></path><path d="M172.7128645442937,94.75899124043298A197,197,0,0,1,171.97574131446592,96.09029295064043L148.9353608129885,83.21663475234338A170.6070045455344,170.6070045455344,0,0,0,149.573728255739,82.06369365120206Z" fill-rule="evenodd" style="fill: #1DC690; stroke: #fff; opacity: 1;" id="p-type-logs"></path><path d="M171.97574131446592,96.09029295064043A197,197,0,0,1,171.22835637249602,97.41586099795815L148.2881064668366,84.36461035576545A170.6070045455344,170.6070045455344,0,0,0,148.9353608129885,83.21663475234338Z" fill-rule="evenodd" style="fill: #1DC690; stroke: #fff; opacity: 1;" id="p-type-logs"></path><path d="M171.22835637249602,97.41586099795815A197,197,0,0,1,170.47075431449431,98.73561628636L147.63200383864776,85.50755196230031A170.6070045455344,170.6070045455344,0,0,0,148.2881064668366,84.36461035576545Z" fill-rule="evenodd" style="fill: #1DC690; stroke: #fff; opacity: 1;" id="p-type-logs"></path><path d="M170.47075431449431,98.73561628636A197,197,0,0,1,169.7029803462217,100.04948006666449L146.9670920777593,86.64539137315626A170.6070045455344,170.6070045455344,0,0,0,147.63200383864776,85.50755196230031Z" fill-rule="evenodd" style="fill: #1DC690; stroke: #fff; opacity: 1;" id="p-type-logs"></path><path d="M169.7029803462217,100.04948006666449A197,197,0,0,1,168.92508028039214,101.35737394123362L146.29341085914533,87.77806069398717A170.6070045455344,170.6070045455344,0,0,0,146.9670920777593,86.64539137315626Z" fill-rule="evenodd" style="fill: #1DC690; stroke: #fff; opacity: 1;" id="p-type-logs"></path><path d="M168.92508028039214,101.35737394123362A197,197,0,0,1,168.13710053393922,102.65921986865094L145.61100038104945,88.90549233894389A170.6070045455344,170.6070045455344,0,0,0,146.29341085914533,87.77806069398717Z" fill-rule="evenodd" style="fill: #1DC690; stroke: #fff; opacity: 1;" id="p-type-logs"></path><path d="M168.13710053393922,102.65921986865094A197,197,0,0,1,167.33908812524623,103.9549401683781L144.91990136258613,90.0276190347068A170.6070045455344,170.6070045455344,0,0,0,145.61100038104945,88.90549233894389Z" fill-rule="evenodd" style="fill: #1DC690; stroke: #fff; opacity: 1;" id="p-type-logs"></path><path d="M167.33908812524623,103.9549401683781A197,197,0,0,1,166.53109067134082,105.24445752539019L144.2201550413109,91.14437382450024A170.6070045455344,170.6070045455344,0,0,0,144.91990136258613,90.0276190347068Z" fill-rule="evenodd" style="fill: #1DC690; stroke: #fff; opacity: 1;" id="p-type-logs"></path><path d="M166.53109067134082,105.24445752539019A197,197,0,0,1,165.7131563850536,106.5276949947889L143.51180317075986,92.25569007208757A170.6070045455344,170.6070045455344,0,0,0,144.2201550413109,91.14437382450024Z" fill-rule="evenodd" style="fill: #1DC690; stroke: #fff; opacity: 1;" id="p-type-logs"></path><path d="M165.7131563850536,106.5276949947889A197,197,0,0,1,164.88533407214126,107.80457600639397L142.7948880179582,93.36150146574754A170.6070045455344,170.6070045455344,0,0,0,143.51180317075986,92.25569007208757Z" fill-rule="evenodd" style="fill: #1DC690; stroke: #fff; opacity: 1;" id="p-type-logs"></path><path d="M164.88533407214126,107.80457600639397A197,197,0,0,1,164.04767312837453,109.07502436931189L142.06945236089817,94.46174202223082A170.6070045455344,170.6070045455344,0,0,0,142.7948880179582,93.36150146574754Z" fill-rule="evenodd" style="fill: #1DC690; stroke: #fff; opacity: 1;" id="p-type-logs"></path><path d="M164.04767312837453,109.07502436931189A197,197,0,0,1,163.20022353659058,110.33896427648244L141.3355394859865,95.55634609069746A170.6070045455344,170.6070045455344,0,0,0,142.06945236089817,94.46174202223082Z" fill-rule="evenodd" style="fill: #1DC690; stroke: #fff; opacity: 1;" id="p-type-logs"></path><path d="M163.20022353659058,110.33896427648244A197,197,0,0,1,162.3430358637106,111.59632030920179L140.5931931854616,96.64524835663403A170.6070045455344,170.6070045455344,0,0,0,141.3355394859865,95.55634609069746Z" fill-rule="evenodd" style="fill: #1DC690; stroke: #fff; opacity: 1;" id="p-type-logs"></path><path d="M162.3430358637106,111.59632030920179A197,197,0,0,1,161.47616125772268,112.84701744162288L139.8424577547804,97.72838384575104A170.6070045455344,170.6070045455344,0,0,0,140.5931931854616,96.64524835663403Z" fill-rule="evenodd" style="fill: #1DC690; stroke: #fff; opacity: 1;" id="p-type-logs"></path><path d="M161.47616125772268,112.84701744162288A197,197,0,0,1,160.5996514446295,114.09098104523207L139.08337798997536,98.80568792785984A170.6070045455344,170.6070045455344,0,0,0,139.8424577547804,97.72838384575104Z" fill-rule="evenodd" style="fill: #1DC690; stroke: #fff; opacity: 1;" id="p-type-logs"></path><path d="M160.5996514446295,114.09098104523207A197,197,0,0,1,159.7135587253622,115.32813689330236L138.31599918498142,99.87709632072918A170.6070045455344,170.6070045455344,0,0,0,139.08337798997536,98.80568792785984Z" fill-rule="evenodd" style="fill: #1DC690; stroke: #fff; opacity: 1;" id="p-type-logs"></path><path d="M159.7135587253622,115.32813689330236A197,197,0,0,1,158.81793597265928,116.55841116532218L137.54036712893335,100.94254509392077A170.6070045455344,170.6070045455344,0,0,0,138.31599918498142,99.87709632072918Z" fill-rule="evenodd" style="fill: #1DC690; stroke: #fff; opacity: 1;" id="p-type-logs"></path><path d="M158.81793597265928,116.55841116532218A197,197,0,0,1,157.91283662791201,117.7817304514005L136.7565281034336,102.00197067260403A170.6070045455344,170.6070045455344,0,0,0,137.54036712893335,100.94254509392077Z" fill-rule="evenodd" style="fill: #1DC690; stroke: #fff; opacity: 1;" id="p-type-logs"></path><path d="M157.91283662791201,117.7817304514005A197,197,0,0,1,156.99831469797553,118.99802175664703L135.9645288797906,103.05530984134967A170.6070045455344,170.6070045455344,0,0,0,136.7565281034336,102.00197067260403Z" fill-rule="evenodd" style="fill: #1DC690; stroke: #fff; opacity: 1;" id="p-type-logs"></path><path d="M156.99831469797553,118.99802175664703A197,197,0,0,1,156.07442475194608,120.20721250552778L135.1644167162281,104.10249974790152A170.6070045455344,170.6070045455344,0,0,0,135.9645288797906,103.05530984134967Z" fill-rule="evenodd" style="fill: #1DC690; stroke: #fff; opacity: 1;" id="p-type-logs"></path><path d="M156.07442475194608,120.20721250552778A197,197,0,0,1,155.1412219179052,121.40923054619567L134.35623935506504,105.1434779069271A170.6070045455344,170.6070045455344,0,0,0,135.1644167162281,104.10249974790152Z" fill-rule="evenodd" style="fill: #1DC690; stroke: #fff; opacity: 1;" id="p-type-logs"></path><path d="M155.1412219179052,121.40923054619567A197,197,0,0,1,154.19876187962996,122.60400415479579L133.54004501986705,106.178182203746A170.6070045455344,170.6070045455344,0,0,0,134.35623935506504,105.1434779069271Z" fill-rule="evenodd" style="fill: #1DC690; stroke: #fff; opacity: 1;" id="p-type-logs"></path><path d="M154.19876187962996,122.60400415479579A197,197,0,0,1,153.2471008732706,123.79146203974501L132.71588241256876,107.20655089803618A170.6070045455344,170.6070045455344,0,0,0,133.54004501986705,106.178182203746Z" fill-rule="evenodd" style="fill: #1DC690; stroke: #fff; opacity: 1;" id="p-type-logs"></path><path d="M153.2471008732706,123.79146203974501A197,197,0,0,1,152.28629568399472,124.97153334598616L131.88380071056795,108.2285226275181A170.6070045455344,170.6070045455344,0,0,0,132.71588241256876,107.20655089803618Z" fill-rule="evenodd" style="fill: #1DC690; stroke: #fff; opacity: 1;" id="p-type-logs"></path><path d="M152.28629568399472,124.97153334598616A197,197,0,0,1,151.31640364259917,126.14414765921563L131.04384956379104,109.24403641161607A170.6070045455344,170.6070045455344,0,0,0,131.88380071056795,108.2285226275181Z" fill-rule="evenodd" style="fill: #1DC690; stroke: #fff; opacity: 1;" id="p-type-logs"></path><path d="M151.31640364259917,126.14414765921563A197,197,0,0,1,150.33748262208894,127.3092350100852L130.1960790917306,110.25303165509702A170.6070045455344,170.6070045455344,0,0,0,131.04384956379104,109.24403641161607Z" fill-rule="evenodd" style="fill: #1DC690; stroke: #fff; opacity: 1;" id="p-type-logs"></path><path d="M150.33748262208894,127.3092350100852A197,197,0,0,1,149.349591034224,128.4667258783769L129.34053988045463,111.25544815168615A170.6070045455344,170.6070045455344,0,0,0,130.1960790917306,110.25303165509702Z" fill-rule="evenodd" style="fill: #1DC690; stroke: #fff; opacity: 1;" id="p-type-logs"></path><path d="M149.349591034224,128.4667258783769A197,197,0,0,1,148.35278782603385,129.61655119715144L128.47728297958813,112.25122608765943A170.6070045455344,170.6070045455344,0,0,0,129.34053988045463,111.25544815168615Z" fill-rule="evenodd" style="fill: #1DC690; stroke: #fff; opacity: 1;" id="p-type-logs"></path><path d="M27.886878182075947,195.0162096474497A197,197,0,0,1,26.37963409987719,195.22580491512025L22.84543327303189,169.07050653075908A170.6070045455344,170.6070045455344,0,0,0,24.15074493791977,168.88899170444336Z" fill-rule="evenodd" style="fill: #D7A449; stroke: #fff; opacity: 1;" id="p-type-tokenTransfers"></path><path d="M26.37963409987719,195.22580491512025A197,197,0,0,1,24.8708159572355,195.4237511502154L21.538758431813335,169.24193299893494A170.6070045455344,170.6070045455344,0,0,0,22.84543327303189,169.07050653075908Z" fill-rule="evenodd" style="fill: #D7A449; stroke: #fff; opacity: 1;" id="p-type-tokenTransfers"></path><path d="M24.8708159572355,195.4237511502154A197,197,0,0,1,23.360513784624573,195.61003654137576L20.23079838294144,169.40326088003374A170.6070045455344,170.6070045455344,0,0,0,21.538758431813335,169.24193299893494Z" fill-rule="evenodd" style="fill: #D7A449; stroke: #fff; opacity: 1;" id="p-type-tokenTransfers"></path><path d="M23.360513784624573,195.61003654137576A197,197,0,0,1,21.848817701069475,195.78464997303908L18.921631171781282,169.55448054769616A170.6070045455344,170.6070045455344,0,0,0,20.23079838294144,169.40326088003374Z" fill-rule="evenodd" style="fill: #D7A449; stroke: #fff; opacity: 1;" id="p-type-tokenTransfers"></path><path d="M21.848817701069475,195.78464997303908A197,197,0,0,1,20.335817908769293,195.94758102610345L17.611334915728744,169.69558297871524A170.6070045455344,170.6070045455344,0,0,0,18.921631171781282,169.55448054769616Z" fill-rule="evenodd" style="fill: #D7A449; stroke: #fff; opacity: 1;" id="p-type-tokenTransfers"></path><path d="M20.335817908769293,195.94758102610345A197,197,0,0,1,18.821604687714803,196.09881997854907L16.299987799549296,169.82655975357488A170.6070045455344,170.6070045455344,0,0,0,17.611334915728744,169.69558297871524Z" fill-rule="evenodd" style="fill: #D7A449; stroke: #fff; opacity: 1;" id="p-type-tokenTransfers"></path><path d="M18.821604687714803,196.09881997854907A197,197,0,0,1,17.306268390301508,196.23835780601829L14.98766807071273,169.9474030569521A170.6070045455344,170.6070045455344,0,0,0,16.299987799549296,169.82655975357488Z" fill-rule="evenodd" style="fill: #D7A449; stroke: #fff; opacity: 1;" id="p-type-tokenTransfers"></path><path d="M17.306268390301508,196.23835780601829A197,197,0,0,1,15.789899435938354,196.36618618235408L13.674454034724192,170.05810567818347A170.6070045455344,170.6070045455344,0,0,0,14.98766807071273,169.9474030569521Z" fill-rule="evenodd" style="fill: #D7A449; stroke: #fff; opacity: 1;" id="p-type-tokenTransfers"></path><path d="M15.789899435938354,196.36618618235408A197,197,0,0,1,14.272588305652443,196.48229748009706L12.360424050451714,170.15866101169524A170.6070045455344,170.6070045455344,0,0,0,13.674454034724192,170.05810567818347Z" fill-rule="evenodd" style="fill: #D7A449; stroke: #fff; opacity: 1;" id="p-type-tokenTransfers"></path><path d="M14.272588305652443,196.48229748009706A197,197,0,0,1,12.754425536690077,196.58668477094025L11.045656525450578,170.24906305739768A170.6070045455344,170.6070045455344,0,0,0,12.360424050451714,170.15866101169524Z" fill-rule="evenodd" style="fill: #D7A449; stroke: #fff; opacity: 1;" id="p-type-tokenTransfers"></path><path d="M12.754425536690077,196.58668477094025A197,197,0,0,1,11.235501717114436,196.67934182614277L9.730229911284782,170.32930642104293A170.6070045455344,170.6070045455344,0,0,0,11.045656525450578,170.24906305739768Z" fill-rule="evenodd" style="fill: #D7A449; stroke: #fff; opacity: 1;" id="p-type-tokenTransfers"></path><path d="M11.235501717114436,196.67934182614277A197,197,0,0,1,9.715907480400238,196.76026311690148L8.414222698845863,170.399386314547A170.6070045455344,170.6070045455344,0,0,0,9.730229911284782,170.32930642104293Z" fill-rule="evenodd" style="fill: #D7A449; stroke: #fff; opacity: 1;" id="p-type-tokenTransfers"></path><path d="M9.715907480400238,196.76026311690148A197,197,0,0,1,8.195733500025677,196.82944381468073L7.0977134136693865,170.45929855627534A170.6070045455344,170.6070045455344,0,0,0,8.414222698845863,170.399386314547Z" fill-rule="evenodd" style="fill: #D7A449; stroke: #fff; opacity: 1;" id="p-type-tokenTransfers"></path><path d="M8.195733500025677,196.82944381468073A197,197,0,0,1,6.675070484061979,196.88687979150058L5.780780611249363,170.50903957129253A170.6070045455344,170.6070045455344,0,0,0,7.0977134136693865,170.45929855627534Z" fill-rule="evenodd" style="fill: #D7A449; stroke: #fff; opacity: 1;" id="p-type-tokenTransfers"></path><path d="M6.675070484061979,196.88687979150058A197,197,0,0,1,5.154009169760898,196.93256762018316L4.463502872350881,170.5486063915754A170.6070045455344,170.6070045455344,0,0,0,5.780780611249363,170.50903957129253Z" fill-rule="evenodd" style="fill: #D7A449; stroke: #fff; opacity: 1;" id="p-type-tokenTransfers"></path><path d="M5.154009169760898,196.93256762018316A197,197,0,0,1,3.6326403181404623,196.9665045745571L3.1459587983212254,170.57799665619027A170.6070045455344,170.6070045455344,0,0,0,4.463502872350881,170.5486063915754Z" fill-rule="evenodd" style="fill: #D7A449; stroke: #fff; opacity: 1;" id="p-type-tokenTransfers"></path><path d="M3.6326403181404623,196.9665045745571A197,197,0,0,1,2.111054708569308,196.98868862962013L1.828227006399775,170.5972086114338A170.6070045455344,170.6070045455344,0,0,0,3.1459587983212254,170.57799665619027Z" fill-rule="evenodd" style="fill: #D7A449; stroke: #fff; opacity: 1;" id="p-type-tokenTransfers"></path><path d="M2.111054708569308,196.98868862962013A197,197,0,0,1,0.5893431333499173,196.99911846166006L0.5103861250269484,170.60624111093762A170.6070045455344,170.6070045455344,0,0,0,1.828227006399775,170.5972086114338Z" fill-rule="evenodd" style="fill: #D7A449; stroke: #fff; opacity: 1;" id="p-type-tokenTransfers"></path><path d="M0.5893431333499173,196.99911846166006A197,197,0,0,1,-0.9324036076989163,196.9977934483337L-0.8074852108475212,170.60509361573662A170.6070045455344,170.6070045455344,0,0,0,0.5103861250269484,170.60624111093762Z" fill-rule="evenodd" style="fill: #D7A449; stroke: #fff; opacity: 1;" id="p-type-tokenTransfers"></path><path d="M-0.9324036076989163,196.9977934483337A197,197,0,0,1,-2.4540947126600705,196.98471366870396L-2.1253083644566932,170.5937661943014A170.6070045455344,170.6070045455344,0,0,0,-0.8074852108475212,170.60509361573662Z" fill-rule="evenodd" style="fill: #D7A449; stroke: #fff; opacity: 1;" id="p-type-tokenTransfers"></path><path d="M-2.4540947126600705,196.98471366870396A197,197,0,0,1,-3.9756393829362024,196.95987990323525L-3.443004701908641,170.57225952253384A170.6070045455344,170.6070045455344,0,0,0,-2.1253083644566932,170.5937661943014Z" fill-rule="evenodd" style="fill: #D7A449; stroke: #fff; opacity: 1;" id="p-type-tokenTransfers"></path><path d="M-3.9756393829362024,196.95987990323525A197,197,0,0,1,-5.496946828667659,196.92329363374662L-4.760495596878499,170.540574883727A170.6070045455344,170.6070045455344,0,0,0,-3.443004701908641,170.57225952253384Z" fill-rule="evenodd" style="fill: #D7A449; stroke: #fff; opacity: 1;" id="p-type-tokenTransfers"></path><path d="M-5.496946828667659,196.92329363374662A197,197,0,0,1,-7.017926274149864,196.8749570433238L-6.077702435300057,170.4987141684885A170.6070045455344,170.6070045455344,0,0,0,-4.760495596878499,170.540574883727Z" fill-rule="evenodd" style="fill: #D7A449; stroke: #fff; opacity: 1;" id="p-type-tokenTransfers"></path><path d="M-7.017926274149864,196.8749570433238A197,197,0,0,1,-8.538486963249865,196.8148730161885L-7.394546620056628,170.44667987462768A170.6070045455344,170.6070045455344,0,0,0,-6.077702435300057,170.4987141684885Z" fill-rule="evenodd" style="fill: #D7A449; stroke: #fff; opacity: 1;" id="p-type-tokenTransfers"></path><path d="M-8.538486963249865,196.8148730161885A197,197,0,0,1,-10.058538164821702,196.7430451375266L-8.7109495756709,170.3844751070065A170.6070045455344,170.6070045455344,0,0,0,-7.394546620056628,170.44667987462768Z" fill-rule="evenodd" style="fill: #D7A449; stroke: #fff; opacity: 1;" id="p-type-tokenTransfers"></path><path d="M-10.058538164821702,196.7430451375266A197,197,0,0,1,-11.577989178120303,196.65947769327397L-10.026832752993496,170.3121035773544A170.6070045455344,170.6070045455344,0,0,0,-8.7109495756709,170.3844751070065Z" fill-rule="evenodd" style="fill: #D7A449; stroke: #fff; opacity: 1;" id="p-type-tokenTransfers"></path><path d="M-11.577989178120303,196.65947769327397A197,197,0,0,1,-13.096749338213549,196.56417566986107L-11.342117633889968,170.22956960404676A170.6070045455344,170.6070045455344,0,0,0,-10.026832752993496,170.3121035773544Z" fill-rule="evenodd" style="fill: #D7A449; stroke: #fff; opacity: 1;" id="p-type-tokenTransfers"></path><path d="M-13.096749338213549,196.56417566986107A197,197,0,0,1,-14.61472802139221,196.45714475391506L-12.656725735925939,170.1368781118472A170.6070045455344,170.6070045455344,0,0,0,-11.342117633889968,170.22956960404676Z" fill-rule="evenodd" style="fill: #D7A449; stroke: #fff; opacity: 1;" id="p-type-tokenTransfers"></path><path d="M-14.61472802139221,196.45714475391506A197,197,0,0,1,-16.131834650577414,196.3383913319207L-13.970578617050101,170.03403463161374A170.6070045455344,170.6070045455344,0,0,0,-12.656725735925939,170.1368781118472Z" fill-rule="evenodd" style="fill: #D7A449; stroke: #fff; opacity: 1;" id="p-type-tokenTransfers"></path><path d="M-16.131834650577414,196.3383913319207A197,197,0,0,1,-17.647978700725343,196.2079224898392L-15.283597880274838,169.92104529996882A170.6070045455344,170.6070045455344,0,0,0,-13.970578617050101,170.03403463161374Z" fill-rule="evenodd" style="fill: #D7A449; stroke: #fff; opacity: 1;" id="p-type-tokenTransfers"></path><path d="M-17.647978700725343,196.2079224898392A197,197,0,0,1,-19.16306970422883,196.0657460126854L-16.595705178354116,169.79791685893306A170.6070045455344,170.6070045455344,0,0,0,-15.283597880274838,169.92104529996882Z" fill-rule="evenodd" style="fill: #D7A449; stroke: #fff; opacity: 1;" id="p-type-tokenTransfers"></path><path d="M-19.16306970422883,196.0657460126854A197,197,0,0,1,-20.677017256315498,195.91187038406332L-17.906822218458437,169.66465665552303A170.6070045455344,170.6070045455344,0,0,0,-16.595705178354116,169.79791685893306Z" fill-rule="evenodd" style="fill: #D7A449; stroke: #fff; opacity: 1;" id="p-type-tokenTransfers"></path><path d="M-20.677017256315498,195.91187038406332A197,197,0,0,1,-22.189731020442192,195.74630478565982L-19.216870766846533,169.52127264131283A170.6070045455344,170.6070045455344,0,0,0,-17.906822218458437,169.66465665552303Z" fill-rule="evenodd" style="fill: #D7A449; stroke: #fff; opacity: 1;" id="p-type-tokenTransfers"></path><path d="M-22.189731020442192,195.74630478565982A197,197,0,0,1,-23.701120733685297,195.56905909669678L-20.52577265353354,169.36777337195954A170.6070045455344,170.6070045455344,0,0,0,-19.216870766846533,169.52127264131283Z" fill-rule="evenodd" style="fill: #D7A449; stroke: #fff; opacity: 1;" id="p-type-tokenTransfers"></path><path d="M-23.701120733685297,195.56905909669678A197,197,0,0,1,-25.211096212126705,195.38014389334165L-21.833449776955362,169.20416800669292A170.6070045455344,170.6070045455344,0,0,0,-20.52577265353354,169.36777337195954Z" fill-rule="evenodd" style="fill: #D7A449; stroke: #fff; opacity: 1;" id="p-type-tokenTransfers"></path><path d="M-25.211096212126705,195.38014389334165A197,197,0,0,1,-26.71956735623503,195.1795704480764L-23.139824108628947,169.03046630776865A170.6070045455344,170.6070045455344,0,0,0,-21.833449776955362,169.20416800669292Z" fill-rule="evenodd" style="fill: #D7A449; stroke: #fff; opacity: 1;" id="p-type-tokenTransfers"></path><path d="M-26.71956735623503,195.1795704480764A197,197,0,0,1,-28.22644415624183,194.9673507290248L-24.444817697808237,168.84667863988597A170.6070045455344,170.6070045455344,0,0,0,-23.139824108628947,169.03046630776865Z" fill-rule="evenodd" style="fill: #D7A449; stroke: #fff; opacity: 1;" id="p-type-tokenTransfers"></path><path d="M-28.22644415624183,194.9673507290248A197,197,0,0,1,-29.731636697512396,194.7434973992383L-25.748352676135404,168.65281596956913A170.6070045455344,170.6070045455344,0,0,0,-24.444817697808237,168.84667863988597Z" fill-rule="evenodd" style="fill: #D7A449; stroke: #fff; opacity: 1;" id="p-type-tokenTransfers"></path><path d="M-29.731636697512396,194.7434973992383A197,197,0,0,1,-31.235055165910993,194.50802381594053L-27.050351262287283,168.44888986451312A170.6070045455344,170.6070045455344,0,0,0,-25.748352676135404,168.65281596956913Z" fill-rule="evenodd" style="fill: #D7A449; stroke: #fff; opacity: 1;" id="p-type-tokenTransfers"></path><path d="M-31.235055165910993,194.50802381594053A197,197,0,0,1,-32.736609853159955,194.26094402973027L-28.35073576661648,168.2349124928934A170.6070045455344,170.6070045455344,0,0,0,-27.050351262287283,168.44888986451312Z" fill-rule="evenodd" style="fill: #D7A449; stroke: #fff; opacity: 1;" id="p-type-tokenTransfers"></path><path d="M-32.736609853159955,194.26094402973027A197,197,0,0,1,-34.23621116219258,194.0022727837428L-29.649428595787136,168.01089662263968A170.6070045455344,170.6070045455344,0,0,0,-28.35073576661648,168.2349124928934Z" fill-rule="evenodd" style="fill: #D7A449; stroke: #fff; opacity: 1;" id="p-type-tokenTransfers"></path><path d="M-34.23621116219258,194.0022727837428A197,197,0,0,1,-35.73376961249934,193.73202551277063L-30.94635225740484,167.77685562067435A170.6070045455344,170.6070045455344,0,0,0,-29.649428595787136,168.01089662263968Z" fill-rule="evenodd" style="fill: #D7A449; stroke: #fff; opacity: 1;" id="p-type-tokenTransfers"></path><path d="M-35.73376961249934,193.73202551277063A197,197,0,0,1,-37.229195845467096,193.45021834234214L-32.24142936464059,167.53280345211468A170.6070045455344,170.6070045455344,0,0,0,-30.94635225740484,167.77685562067435Z" fill-rule="evenodd" style="fill: #D7A449; stroke: #fff; opacity: 1;" id="p-type-tokenTransfers"></path><path d="M-37.229195845467096,193.45021834234214A197,197,0,0,1,-38.72240062971117,193.15686808775953L-33.53458264084841,167.27875467943952A170.6070045455344,170.6070045455344,0,0,0,-32.24142936464059,167.53280345211468Z" fill-rule="evenodd" style="fill: #D7A449; stroke: #fff; opacity: 1;" id="p-type-tokenTransfers"></path><path d="M-38.72240062971117,193.15686808775953A197,197,0,0,1,-40.21329486639965,192.85199225309546L-34.82573492417645,167.01472446162043A170.6070045455344,170.6070045455344,0,0,0,-33.53458264084841,167.27875467943952Z" fill-rule="evenodd" style="fill: #D7A449; stroke: #fff; opacity: 1;" id="p-type-tokenTransfers"></path><path d="M-40.21329486639965,192.85199225309546A197,197,0,0,1,-41.70178959456995,192.53560903014852L-36.11480917217114,166.7407285532172A170.6070045455344,170.6070045455344,0,0,0,-34.82573492417645,167.01472446162043Z" fill-rule="evenodd" style="fill: #D7A449; stroke: #fff; opacity: 1;" id="p-type-tokenTransfers"></path><path d="M-41.70178959456995,192.53560903014852A197,197,0,0,1,-43.18779599643702,192.20773729735788L-37.40172846637433,166.45678330343765A170.6070045455344,170.6070045455344,0,0,0,-36.11480917217114,166.7407285532172Z" fill-rule="evenodd" style="fill: #D7A449; stroke: #fff; opacity: 1;" id="p-type-tokenTransfers"></path><path d="M-43.18779599643702,192.20773729735788A197,197,0,0,1,-44.67122540269307,191.8683966186766L-38.686416016912936,166.1629056551622A170.6070045455344,170.6070045455344,0,0,0,-37.40172846637433,166.45678330343765Z" fill-rule="evenodd" style="fill: #D7A449; stroke: #fff; opacity: 1;" id="p-type-tokenTransfers"></path><path d="M-44.67122540269307,191.8683966186766A197,197,0,0,1,-46.15198929779846,191.51760724240447L-39.968795167081,165.85911314393286A170.6070045455344,170.6070045455344,0,0,0,-38.686416016912936,166.1629056551622Z" fill-rule="evenodd" style="fill: #D7A449; stroke: #fff; opacity: 1;" id="p-type-tokenTransfers"></path><path d="M-46.15198929779846,191.51760724240447A197,197,0,0,1,-47.62999932526332,191.15539009997968L-41.248789397913704,165.54542389690678A170.6070045455344,170.6070045455344,0,0,0,-39.968795167081,165.85911314393286Z" fill-rule="evenodd" style="fill: #D7A449; stroke: #fff; opacity: 1;" id="p-type-tokenTransfers"></path><path d="M-47.62999932526332,191.15539009997968A197,197,0,0,1,-49.10516729291981,190.78176680472995L-42.52632233275329,165.22185663177487A170.6070045455344,170.6070045455344,0,0,0,-41.248789397913704,165.54542389690678Z" fill-rule="evenodd" style="fill: #D7A449; stroke: #fff; opacity: 1;" id="p-type-tokenTransfers"></path><path d="M-49.10516729291981,190.78176680472995A197,197,0,0,1,-50.577405178184456,190.3967596505827L-43.80131774180635,164.8884306556446A170.6070045455344,170.6070045455344,0,0,0,-42.52632233275329,165.22185663177487Z" fill-rule="evenodd" style="fill: #D7A449; stroke: #fff; opacity: 1;" id="p-type-tokenTransfers"></path><path d="M-50.577405178184456,190.3967596505827A197,197,0,0,1,-52.04662513331042,190.00039161073502L-45.073699546692474,164.54516586388826A170.6070045455344,170.6070045455344,0,0,0,-43.80131774180635,164.8884306556446Z" fill-rule="evenodd" style="fill: #D7A449; stroke: #fff; opacity: 1;" id="p-type-tokenTransfers"></path><path d="M-52.04662513331042,190.00039161073502A197,197,0,0,1,-53.512739490629365,189.59268633628258L-46.34339182498377,164.19208273895555A170.6070045455344,170.6070045455344,0,0,0,-45.073699546692474,164.54516586388826Z" fill-rule="evenodd" style="fill: #D7A449; stroke: #fff; opacity: 1;" id="p-type-tokenTransfers"></path><path d="M-53.512739490629365,189.59268633628258A197,197,0,0,1,-54.975660767782514,189.17366815480872L-47.61031881473517,163.82920234915161A170.6070045455344,170.6070045455344,0,0,0,-46.34339182498377,164.19208273895555Z" fill-rule="evenodd" style="fill: #D7A449; stroke: #fff; opacity: 1;" id="p-type-tokenTransfers"></path><path d="M-54.975660767782514,189.17366815480872A197,197,0,0,1,-56.435301672940696,188.74336206893258L-48.87440491900507,163.45654634737983A170.6070045455344,170.6070045455344,0,0,0,-47.61031881473517,163.82920234915161Z" fill-rule="evenodd" style="fill: #D7A449; stroke: #fff; opacity: 1;" id="p-type-tokenTransfers"></path><path d="M-56.435301672940696,188.74336206893258A197,197,0,0,1,-57.891575110013,188.30179375481723L-50.135574710366164,163.0741369698497A170.6070045455344,170.6070045455344,0,0,0,-48.87440491900507,163.45654634737983Z" fill-rule="evenodd" style="fill: #D7A449; stroke: #fff; opacity: 1;" id="p-type-tokenTransfers"></path><path d="M-57.891575110013,188.30179375481723A197,197,0,0,1,-59.34439418384377,187.8489895606377L-51.39375293540619,162.68199703475005A170.6070045455344,170.6070045455344,0,0,0,-50.135574710366164,163.0741369698497Z" fill-rule="evenodd" style="fill: #D7A449; stroke: #fff; opacity: 1;" id="p-type-tokenTransfers"></path><path d="M-59.34439418384377,187.8489895606377A197,197,0,0,1,-60.793672205397584,187.38497650500872L-52.64886451921824,162.28014994088772A170.6070045455344,170.6070045455344,0,0,0,-51.39375293540619,162.68199703475005Z" fill-rule="evenodd" style="fill: #D7A449; stroke: #fff; opacity: 1;" id="p-type-tokenTransfers"></path><path d="M-60.793672205397584,187.38497650500872A197,197,0,0,1,-62.23932269693194,186.90978227537255L-53.90083456988046,161.868619666291A170.6070045455344,170.6070045455344,0,0,0,-52.64886451921824,162.28014994088772Z" fill-rule="evenodd" style="fill: #D7A449; stroke: #fff; opacity: 1;" id="p-type-tokenTransfers"></path><path d="M-62.23932269693194,186.90978227537255A197,197,0,0,1,-63.6812593971574,186.4234352263469L-55.14958838292481,161.4474307667792A170.6070045455344,170.6070045455344,0,0,0,-53.90083456988046,161.868619666291Z" fill-rule="evenodd" style="fill: #D7A449; stroke: #fff; opacity: 1;" id="p-type-tokenTransfers"></path><path d="M-63.6812593971574,186.4234352263469A197,197,0,0,1,-65.11939626638468,185.92596437803292L-56.395051445794664,161.0166083744971A170.6070045455344,170.6070045455344,0,0,0,-55.14958838292481,161.4474307667792Z" fill-rule="evenodd" style="fill: #D7A449; stroke: #fff; opacity: 1;" id="p-type-tokenTransfers"></path><path d="M-65.11939626638468,185.92596437803292A197,197,0,0,1,-66.55364749165865,185.41739941428375L-57.63714944229087,160.5761781964156A170.6070045455344,170.6070045455344,0,0,0,-56.395051445794664,161.0166083744971Z" fill-rule="evenodd" style="fill: #D7A449; stroke: #fff; opacity: 1;" id="p-type-tokenTransfers"></path><path d="M-66.55364749165865,185.41739941428375A197,197,0,0,1,-67.98392749187875,184.89777068093323L-58.875808257006284,160.12616651279774A170.6070045455344,170.6070045455344,0,0,0,-57.63714944229087,160.5761781964156Z" fill-rule="evenodd" style="fill: #D7A449; stroke: #fff; opacity: 1;" id="p-type-tokenTransfers"></path><path d="M-67.98392749187875,184.89777068093323A197,197,0,0,1,-69.41015092290553,184.36710918398506L-60.11095397974808,159.66660017563035A170.6070045455344,170.6070045455344,0,0,0,-58.875808257006284,160.12616651279774Z" fill-rule="evenodd" style="fill: #D7A449; stroke: #fff; opacity: 1;" id="p-type-tokenTransfers"></path><path d="M-69.41015092290553,184.36710918398506A197,197,0,0,1,-70.83223268265316,183.82544658776294L-61.34251290994801,159.19750660702215A170.6070045455344,170.6070045455344,0,0,0,-60.11095397974808,159.66660017563035Z" fill-rule="evenodd" style="fill: #D7A449; stroke: #fff; opacity: 1;" id="p-type-tokenTransfers"></path><path d="M-70.83223268265316,183.82544658776294A197,197,0,0,1,-72.2500879161674,183.27281521302083L-62.57041156106007,158.71891379756715A170.6070045455344,170.6070045455344,0,0,0,-61.34251290994801,159.19750660702215Z" fill-rule="evenodd" style="fill: #D7A449; stroke: #fff; opacity: 1;" id="p-type-tokenTransfers"></path><path d="M-72.2500879161674,183.27281521302083A197,197,0,0,1,-73.66363202068885,182.70924803501475L-63.79457666494536,158.2308503046748A170.6070045455344,170.6070045455344,0,0,0,-62.57041156106007,158.71891379756715Z" fill-rule="evenodd" style="fill: #D7A449; stroke: #fff; opacity: 1;" id="p-type-tokenTransfers"></path><path d="M-73.66363202068885,182.70924803501475A197,197,0,0,1,-75.07278065070113,182.13477868153493L-65.01493517624405,157.73334525086565A170.6070045455344,170.6070045455344,0,0,0,-63.79457666494536,158.2308503046748Z" fill-rule="evenodd" style="fill: #D7A449; stroke: #fff; opacity: 1;" id="p-type-tokenTransfers"></path><path d="M-75.07278065070113,182.13477868153493A197,197,0,0,1,-76.47744972296385,181.54944143089932L-66.23141427673387,157.22642832203385A170.6070045455344,170.6070045455344,0,0,0,-65.01493517624405,157.73334525086565Z" fill-rule="evenodd" style="fill: #D7A449; stroke: #fff; opacity: 1;" id="p-type-tokenTransfers"></path><path d="M-76.47744972296385,181.54944143089932A197,197,0,0,1,-77.87755542152966,180.95327120990817L-67.44394137967522,156.71012976567573A170.6070045455344,170.6070045455344,0,0,0,-66.23141427673387,157.22642832203385Z" fill-rule="evenodd" style="fill: #D7A449; stroke: #fff; opacity: 1;" id="p-type-tokenTransfers"></path><path d="M-77.87755542152966,180.95327120990817A197,197,0,0,1,-79.27301420274561,180.34630359176006L-68.6524441341423,156.18448038908497A170.6070045455344,170.6070045455344,0,0,0,-67.44394137967522,156.71012976567573Z" fill-rule="evenodd" style="fill: #D7A449; stroke: #fff; opacity: 1;" id="p-type-tokenTransfers"></path><path d="M-79.27301420274561,180.34630359176006A197,197,0,0,1,-80.66374280023814,179.72857479392928L-69.85685042934034,155.64951155751427A170.6070045455344,170.6070045455344,0,0,0,-68.6524441341423,156.18448038908497Z" fill-rule="evenodd" style="fill: #D7A449; stroke: #fff; opacity: 1;" id="p-type-tokenTransfers"></path><path d="M-80.66374280023814,179.72857479392928A197,197,0,0,1,-82.04965822988157,179.10012167600453L-71.05708839890838,155.1052551923039A170.6070045455344,170.6070045455344,0,0,0,-69.85685042934034,155.64951155751427Z" fill-rule="evenodd" style="fill: #D7A449; stroke: #fff; opacity: 1;" id="p-type-tokenTransfers"></path><path d="M-82.04965822988157,179.10012167600453A197,197,0,0,1,-83.43067779474967,178.4609817374898L-72.25308642520747,154.5517437689769A170.6070045455344,170.6070045455344,0,0,0,-71.05708839890838,155.1052551923039Z" fill-rule="evenodd" style="fill: #D7A449; stroke: #fff; opacity: 1;" id="p-type-tokenTransfers"></path><path d="M-83.43067779474967,178.4609817374898A197,197,0,0,1,-84.80671909005015,177.8111931155666L-73.44477314359415,153.98901031530136A170.6070045455344,170.6070045455344,0,0,0,-72.25308642520747,154.5517437689769Z" fill-rule="evenodd" style="fill: #D7A449; stroke: #fff; opacity: 1;" id="p-type-tokenTransfers"></path><path d="M-84.80671909005015,177.8111931155666A197,197,0,0,1,-86.17770000804178,177.1507945828185L-74.63207744667861,153.41708840931952A170.6070045455344,170.6070045455344,0,0,0,-73.44477314359415,153.98901031530136Z" fill-rule="evenodd" style="fill: #D7A449; stroke: #fff; opacity: 1;" id="p-type-tokenTransfers"></path><path d="M-86.17770000804178,177.1507945828185A197,197,0,0,1,-87.54353874293368,176.4798255449174L-75.81492848856779,152.83601217734434A170.6070045455344,170.6070045455344,0,0,0,-74.63207744667861,153.41708840931952Z" fill-rule="evenodd" style="fill: #D7A449; stroke: #fff; opacity: 1;" id="p-type-tokenTransfers"></path><path d="M-87.54353874293368,176.4798255449174A197,197,0,0,1,-88.9041537957666,175.79832603827228L-76.9932556890926,152.24581629192312A170.6070045455344,170.6070045455344,0,0,0,-75.81492848856779,152.83601217734434Z" fill-rule="evenodd" style="fill: #D7A449; stroke: #fff; opacity: 1;" id="p-type-tokenTransfers"></path><path d="M-88.9041537957666,175.79832603827228A197,197,0,0,1,-90.259463979276,175.10633672764038L-78.1669887380195,151.64653596976865A170.6070045455344,170.6070045455344,0,0,0,-76.9932556890926,152.24581629192312Z" fill-rule="evenodd" style="fill: #D7A449; stroke: #fff; opacity: 1;" id="p-type-tokenTransfers"></path><path d="M-90.259463979276,175.10633672764038A197,197,0,0,1,-91.60938842273636,174.4038989037006L-79.33605759924573,151.03820696965772A170.6070045455344,170.6070045455344,0,0,0,-78.1669887380195,151.64653596976865Z" fill-rule="evenodd" style="fill: #D7A449; stroke: #fff; opacity: 1;" id="p-type-tokenTransfers"></path><path d="M-91.60938842273636,174.4038989037006A197,197,0,0,1,-92.95384657678682,173.69105448058968L-80.50039251497857,150.4208655902976A170.6070045455344,170.6070045455344,0,0,0,-79.33605759924573,151.03820696965772Z" fill-rule="evenodd" style="fill: #D7A449; stroke: #fff; opacity: 1;" id="p-type-tokenTransfers"></path><path d="M-92.95384657678682,173.69105448058968A197,197,0,0,1,-94.2927582182374,172.9678459934014L-81.65992400989748,149.79454866816002A170.6070045455344,170.6070045455344,0,0,0,-80.50039251497857,150.4208655902976Z" fill-rule="evenodd" style="fill: #D7A449; stroke: #fff; opacity: 1;" id="p-type-tokenTransfers"></path><path d="M-94.2927582182374,172.9678459934014A197,197,0,0,1,-95.62604345485595,172.23431659564827L-82.81458289529989,149.15929357528313A170.6070045455344,170.6070045455344,0,0,0,-81.65992400989748,149.79454866816002Z" fill-rule="evenodd" style="fill: #D7A449; stroke: #fff; opacity: 1;" id="p-type-tokenTransfers"></path><path d="M-95.62604345485595,172.23431659564827A197,197,0,0,1,-96.9536227301353,171.4905100566868L-83.96430027322954,148.5151382170415A170.6070045455344,170.6070045455344,0,0,0,-82.81458289529989,149.15929357528313Z" fill-rule="evenodd" style="fill: #D7A449; stroke: #fff; opacity: 1;" id="p-type-tokenTransfers"></path><path d="M-181.47624303057123,76.65098313465427A197,197,0,0,1,-184.30066610986256,69.5863813648975L-159.60905878553473,60.26357401943329A170.6070045455344,170.6070045455344,0,0,0,-157.16303664783337,66.38169861966315Z" fill-rule="evenodd" style="fill: #414552; stroke: #fff; opacity: 1;" id="p-type-ether"></path><path d="M-184.30066610986256,69.5863813648975A197,197,0,0,1,-185.5078302624407,66.30116825005035L-160.6544936082053,57.41849600512985A170.6070045455344,170.6070045455344,0,0,0,-159.60905878553473,60.26357401943329Z" fill-rule="evenodd" style="fill: #414552; stroke: #fff; opacity: 1;" id="p-type-ether"></path><path d="M-185.5078302624407,66.30116825005035A197,197,0,0,1,-186.50995482303327,63.42741325255261L-161.5223589354348,54.92975117304433A170.6070045455344,170.6070045455344,0,0,0,-160.6544936082053,57.41849600512985Z" fill-rule="evenodd" style="fill: #414552; stroke: #fff; opacity: 1;" id="p-type-ether"></path><path d="M-186.50995482303327,63.42741325255261A197,197,0,0,1,-186.8485542380364,62.42289467139101L-161.81559463053404,54.059812563184884A170.6070045455344,170.6070045455344,0,0,0,-161.5223589354348,54.92975117304433Z" fill-rule="evenodd" style="fill: #414552; stroke: #fff; opacity: 1;" id="p-type-ether"></path></g></svg>