<svg xmlns="http://www.w3.org/2000/svg" width="400" height="400" id="block-7824835"><g id="burst-container" transform="translate(200,200)"><circle r="197" style="fill: #f9f9f9; stroke: #f9f9f9; stroke-width: 3; opacity: 1;" id="circle-base"></circle><path display="none" d="M6.031385485800715e-15,-98.5A98.5,98.5,0,1,1,-6.031385485800715e-15,98.5A98.5,98.5,0,1,1,6.031385485800715e-15,-98.5Z" fill-rule="evenodd" id="p-type-root" style="stroke: #fff; opacity: 1;"></path><path d="M8.529667153919608e-15,-139.30003589374985A139.30003589374985,139.30003589374985,0,1,1,-102.01447309486295,-94.85540195042915L-72.1351257045502,-67.07289795132414A98.5,98.5,0,1,0,6.031385485800715e-15,-98.5Z" fill-rule="evenodd" style="fill: #0B1F65; stroke: #fff; opacity: 1;" id="p-type-data"></path><path d="M-102.01447309486295,-94.85540195042915A139.30003589374985,139.30003589374985,0,0,1,-1.9735431963611263,-139.28605503514015L-1.3955057771115267,-98.49011404007028A98.5,98.5,0,0,0,-72.1351257045502,-67.07289795132414Z" fill-rule="evenodd" style="fill: #D7A449; stroke: #fff; opacity: 1;" id="p-type-value"></path><path d="M1.0446666101440332e-14,-170.6070045455344A170.6070045455344,170.6070045455344,0,0,1,170.07699615751713,13.437461740816087L138.86728585707073,10.971641567723463A139.30003589374985,139.30003589374985,0,0,0,8.529667153919608e-15,-139.30003589374985Z" fill-rule="evenodd" style="fill: #DB3F29; stroke: #fff; opacity: 1;" id="p-type-functions"></path><path d="M170.07699615751713,13.437461740816087A170.6070045455344,170.6070045455344,0,0,1,27.20703275408183,168.42365442157558L22.214449220896466,137.51733798256933A139.30003589374985,139.30003589374985,0,0,0,138.86728585707073,10.971641567723463Z" fill-rule="evenodd" style="fill: #1DC690; stroke: #fff; opacity: 1;" id="p-type-logs"></path><path d="M27.20703275408183,168.42365442157558A170.6070045455344,170.6070045455344,0,0,1,-128.91086592053693,111.75302522803288L-105.25528126855092,91.24596300701874A139.30003589374985,139.30003589374985,0,0,0,22.214449220896466,137.51733798256933Z" fill-rule="evenodd" style="fill: #D7A449; stroke: #fff; opacity: 1;" id="p-type-tokenTransfers"></path><path d="M-128.91086592053693,111.75302522803288A170.6070045455344,170.6070045455344,0,0,1,-167.66303996040128,31.557170837020358L-136.89629887561634,25.766322092179266A139.30003589374985,139.30003589374985,0,0,0,-105.25528126855092,91.24596300701874Z" fill-rule="evenodd" style="fill: #414552; stroke: #fff; opacity: 1;" id="p-type-ether"></path><path d="M-124.94170273064866,-116.17366706257586A170.6070045455344,170.6070045455344,0,0,1,-52.32078437880614,-162.38622331339096L-42.719741556751984,-132.5877961251499A139.30003589374985,139.30003589374985,0,0,0,-102.01447309486295,-94.85540195042915Z" fill-rule="evenodd" style="fill: #D7A449; stroke: #fff; opacity: 1;" id="p-type-tokenTransfers"></path><path d="M-52.32078437880614,-162.38622331339096A170.6070045455344,170.6070045455344,0,0,1,-4.8336886342063545,-170.53851604311427L-3.9466902430986983,-139.24411526569094A139.30003589374985,139.30003589374985,0,0,0,-42.719741556751984,-132.5877961251499Z" fill-rule="evenodd" style="fill: #414552; stroke: #fff; opacity: 1;" id="p-type-ether"></path><path d="M1.206277097160143e-14,-197A197,197,0,0,1,22.55835768885635,-195.70416576655086L19.53611082620562,-169.4847791802739A170.6070045455344,170.6070045455344,0,0,0,1.0446666101440332e-14,-170.6070045455344Z" fill-rule="evenodd" style="fill: #DB3F29; stroke: #fff; opacity: 1;" id="p-type-functions"></path><path d="M22.55835768885635,-195.70416576655086A197,197,0,0,1,32.18266030957145,-194.35348305445604L27.87100138945404,-168.31505363914735A170.6070045455344,170.6070045455344,0,0,0,19.53611082620562,-169.4847791802739Z" fill-rule="evenodd" style="fill: #DB3F29; stroke: #fff; opacity: 1;" id="p-type-functions"></path><path d="M32.18266030957145,-194.35348305445604A197,197,0,0,1,39.04505754508357,-193.09190423552488L33.814011726267644,-167.22249433307658A170.6070045455344,170.6070045455344,0,0,0,27.87100138945404,-168.31505363914735Z" fill-rule="evenodd" style="fill: #DB3F29; stroke: #fff; opacity: 1;" id="p-type-functions"></path><path d="M39.04505754508357,-193.09190423552488A197,197,0,0,1,40.50726686944994,-192.7904596466515L35.080322146819405,-166.9614356612789A170.6070045455344,170.6070045455344,0,0,0,33.814011726267644,-167.22249433307658Z" fill-rule="evenodd" style="fill: #DB3F29; stroke: #fff; opacity: 1;" id="p-type-functions"></path><path d="M40.50726686944994,-192.7904596466515A197,197,0,0,1,41.871971041543155,-192.4986702320205L36.262190628502736,-166.70873861565306A170.6070045455344,170.6070045455344,0,0,0,35.080322146819405,-166.9614356612789Z" fill-rule="evenodd" style="fill: #DB3F29; stroke: #fff; opacity: 1;" id="p-type-functions"></path><path d="M41.871971041543155,-192.4986702320205A197,197,0,0,1,43.23457394550829,-192.19722062441585L37.44223935860699,-166.44767559750656A170.6070045455344,170.6070045455344,0,0,0,36.262190628502736,-166.70873861565306Z" fill-rule="evenodd" style="fill: #DB3F29; stroke: #fff; opacity: 1;" id="p-type-functions"></path><path d="M43.23457394550829,-192.19722062441585A197,197,0,0,1,44.595007201615935,-191.88612595153361L38.62040911854939,-166.17825970780854A170.6070045455344,170.6070045455344,0,0,0,37.44223935860699,-166.44767559750656Z" fill-rule="evenodd" style="fill: #DB3F29; stroke: #fff; opacity: 1;" id="p-type-functions"></path><path d="M44.595007201615935,-191.88612595153361A197,197,0,0,1,45.95320253901631,-191.56540182508988L39.79664078403969,-165.9005044667017A170.6070045455344,170.6070045455344,0,0,0,38.62040911854939,-166.17825970780854Z" fill-rule="evenodd" style="fill: #DB3F29; stroke: #fff; opacity: 1;" id="p-type-functions"></path><path d="M45.95320253901631,-191.56540182508988A197,197,0,0,1,47.30909179916565,-191.23506434003707L40.970875328047505,-165.6144238128237A170.6070045455344,170.6070045455344,0,0,0,39.79664078403969,-165.9005044667017Z" fill-rule="evenodd" style="fill: #DB3F29; stroke: #fff; opacity: 1;" id="p-type-functions"></path><path d="M47.30909179916565,-191.23506434003707A197,197,0,0,1,48.66260693924629,-190.89513007375652L42.14305382376419,-165.32003210260794A170.6070045455344,170.6070045455344,0,0,0,40.970875328047505,-165.6144238128237Z" fill-rule="evenodd" style="fill: #DB3F29; stroke: #fff; opacity: 1;" id="p-type-functions"></path><path d="M48.66260693924629,-190.89513007375652A197,197,0,0,1,50.01368003558159,-190.54561608522636L43.31311744756026,-165.01734410956277A170.6070045455344,170.6070045455344,0,0,0,42.14305382376419,-165.32003210260794Z" fill-rule="evenodd" style="fill: #DB3F29; stroke: #fff; opacity: 1;" id="p-type-functions"></path><path d="M50.01368003558159,-190.54561608522636A197,197,0,0,1,51.362243287044244,-190.18653991416554L44.48100748193706,-164.70637502353046A170.6070045455344,170.6070045455344,0,0,0,43.31311744756026,-165.01734410956277Z" fill-rule="evenodd" style="fill: #DB3F29; stroke: #fff; opacity: 1;" id="p-type-functions"></path><path d="M51.362243287044244,-190.18653991416554A197,197,0,0,1,52.708229018459065,-189.81791958015364L45.64666531847367,-164.38714044992466A170.6070045455344,170.6070045455344,0,0,0,44.48100748193706,-164.70637502353046Z" fill-rule="evenodd" style="fill: #DB3F29; stroke: #fff; opacity: 1;" id="p-type-functions"></path><path d="M52.708229018459065,-189.81791958015364A197,197,0,0,1,54.05156968399882,-189.43977358172654L46.8100324607678,-164.05965640894738A170.6070045455344,170.6070045455344,0,0,0,45.64666531847367,-164.38714044992466Z" fill-rule="evenodd" style="fill: #DB3F29; stroke: #fff; opacity: 1;" id="p-type-functions"></path><path d="M54.05156968399882,-189.43977358172654A197,197,0,0,1,55.39219787057424,-189.05212089544816L47.97105052737158,-163.723939334785A170.6070045455344,170.6070045455344,0,0,0,46.8100324607678,-164.05965640894738Z" fill-rule="evenodd" style="fill: #DB3F29; stroke: #fff; opacity: 1;" id="p-type-functions"></path><path d="M55.39219787057424,-189.05212089544816A197,197,0,0,1,56.73004630121666,-188.6549809749581L49.12966125472106,-163.3800060747837A170.6070045455344,170.6070045455344,0,0,0,47.97105052737158,-163.723939334785Z" fill-rule="evenodd" style="fill: #DB3F29; stroke: #fff; opacity: 1;" id="p-type-functions"></path><path d="M56.73004630121666,-188.6549809749581A197,197,0,0,1,58.06504783845454,-188.24837374999547L50.28580650006034,-163.02787388860375A170.6070045455344,170.6070045455344,0,0,0,49.12966125472106,-163.3800060747837Z" fill-rule="evenodd" style="fill: #DB3F29; stroke: #fff; opacity: 1;" id="p-type-functions"></path><path d="M58.06504783845454,-188.24837374999547A197,197,0,0,1,59.397135487682306,-187.83231962539864L51.43942824435908,-162.6675604473536A170.6070045455344,170.6070045455344,0,0,0,50.28580650006034,-163.02787388860375Z" fill-rule="evenodd" style="fill: #DB3F29; stroke: #fff; opacity: 1;" id="p-type-functions"></path><path d="M59.397135487682306,-187.83231962539864A197,197,0,0,1,60.726242400522686,-187.40683948008132L52.59046859522436,-162.2990838327029A170.6070045455344,170.6070045455344,0,0,0,51.43942824435908,-162.6675604473536Z" fill-rule="evenodd" style="fill: #DB3F29; stroke: #fff; opacity: 1;" id="p-type-functions"></path><path d="M60.726242400522686,-187.40683948008132A197,197,0,0,1,62.05230187818102,-186.97195466598484L53.7388697898056,-161.92246253597526A170.6070045455344,170.6070045455344,0,0,0,52.59046859522436,-162.2990838327029Z" fill-rule="evenodd" style="fill: #DB3F29; stroke: #fff; opacity: 1;" id="p-type-functions"></path><path d="M62.05230187818102,-186.97195466598484A197,197,0,0,1,63.37524737479278,-186.52768700700662L54.8845741976936,-161.5377154572203A170.6070045455344,170.6070045455344,0,0,0,53.7388697898056,-161.92246253597526Z" fill-rule="evenodd" style="fill: #DB3F29; stroke: #fff; opacity: 1;" id="p-type-functions"></path><path d="M63.37524737479278,-186.52768700700662A197,197,0,0,1,64.6950125007627,-186.07405879790488L56.027524323812315,-161.14486190426493A170.6070045455344,170.6070045455344,0,0,0,54.8845741976936,-161.5377154572203Z" fill-rule="evenodd" style="fill: #DB3F29; stroke: #fff; opacity: 1;" id="p-type-functions"></path><path d="M64.6950125007627,-186.07405879790488A197,197,0,0,1,66.01153102609672,-185.61109280317993L57.16766281130441,-160.7439215917448A170.6070045455344,170.6070045455344,0,0,0,56.027524323812315,-161.14486190426493Z" fill-rule="evenodd" style="fill: #DB3F29; stroke: #fff; opacity: 1;" id="p-type-functions"></path><path d="M66.01153102609672,-185.61109280317993A197,197,0,0,1,67.32473688372536,-185.13881225593175L58.304932444409346,-160.33491464011468A170.6070045455344,170.6070045455344,0,0,0,57.16766281130441,-160.7439215917448Z" fill-rule="evenodd" style="fill: #DB3F29; stroke: #fff; opacity: 1;" id="p-type-functions"></path><path d="M67.32473688372536,-185.13881225593175A197,197,0,0,1,68.63456417281947,-184.65724085669407L59.439276151334944,-159.9178615746388A170.6070045455344,170.6070045455344,0,0,0,58.304932444409346,-160.33491464011468Z" fill-rule="evenodd" style="fill: #DB3F29; stroke: #fff; opacity: 1;" id="p-type-functions"></path><path d="M68.63456417281947,-184.65724085669407A197,197,0,0,1,69.94094716209695,-184.16640277224496L60.57063700712109,-159.492783324361A170.6070045455344,170.6070045455344,0,0,0,59.439276151334944,-159.9178615746388Z" fill-rule="evenodd" style="fill: #DB3F29; stroke: #fff; opacity: 1;" id="p-type-functions"></path><path d="M69.94094716209695,-184.16640277224496A197,197,0,0,1,71.24382029312177,-183.66632263439416L61.698958236496765,-159.05970122105418A170.6070045455344,170.6070045455344,0,0,0,60.57063700712109,-159.492783324361Z" fill-rule="evenodd" style="fill: #DB3F29; stroke: #fff; opacity: 1;" id="p-type-functions"></path><path d="M71.24382029312177,-183.66632263439416A197,197,0,0,1,72.54311818359356,-183.15702553874686L62.82418321672886,-158.61863699815A170.6070045455344,170.6070045455344,0,0,0,61.698958236496765,-159.05970122105418Z" fill-rule="evenodd" style="fill: #DB3F29; stroke: #fff; opacity: 1;" id="p-type-functions"></path><path d="M72.54311818359356,-183.15702553874686A197,197,0,0,1,73.83877563062899,-182.63853704344444L63.94625548046404,-158.16961278964814A170.6070045455344,170.6070045455344,0,0,0,62.82418321672886,-158.61863699815Z" fill-rule="evenodd" style="fill: #DB3F29; stroke: #fff; opacity: 1;" id="p-type-functions"></path><path d="M73.83877563062899,-182.63853704344444A197,197,0,0,1,75.13072761403353,-182.1108831678818L65.06511871856206,-157.71265112900556A170.6070045455344,170.6070045455344,0,0,0,63.94625548046404,-158.16961278964814Z" fill-rule="evenodd" style="fill: #DB3F29; stroke: #fff; opacity: 1;" id="p-type-functions"></path><path d="M75.13072761403353,-182.1108831678818A197,197,0,0,1,76.41890929956476,-181.57409039140165L66.18071678292196,-157.24777494800577A170.6070045455344,170.6070045455344,0,0,0,65.06511871856206,-157.71265112900556Z" fill-rule="evenodd" style="fill: #DB3F29; stroke: #fff; opacity: 1;" id="p-type-functions"></path><path d="M76.41890929956476,-181.57409039140165A197,197,0,0,1,77.70325604218553,-181.02818565196569L67.29299368929934,-156.7750075756079A170.6070045455344,170.6070045455344,0,0,0,66.18071678292196,-157.24777494800577Z" fill-rule="evenodd" style="fill: #DB3F29; stroke: #fff; opacity: 1;" id="p-type-functions"></path><path d="M77.70325604218553,-181.02818565196569A197,197,0,0,1,78.98370338930846,-180.4731963448028L68.4018936201162,-156.29437273677613A170.6070045455344,170.6070045455344,0,0,0,67.29299368929934,-156.7750075756079Z" fill-rule="evenodd" style="fill: #DB3F29; stroke: #fff; opacity: 1;" id="p-type-functions"></path><path d="M78.98370338930846,-180.4731963448028A197,197,0,0,1,80.26018708403006,-179.90915032103425L69.50736092726171,-155.80589455128896A170.6070045455344,170.6070045455344,0,0,0,68.4018936201162,-156.29437273677613Z" fill-rule="evenodd" style="fill: #DB3F29; stroke: #fff; opacity: 1;" id="p-type-functions"></path><path d="M80.26018708403006,-179.90915032103425A197,197,0,0,1,81.53264306835558,-179.33607588627595L70.60934013488514,-155.30959753252887A170.6070045455344,170.6070045455344,0,0,0,69.50736092726171,-155.80589455128896Z" fill-rule="evenodd" style="fill: #DB3F29; stroke: #fff; opacity: 1;" id="p-type-functions"></path><path d="M81.53264306835558,-179.33607588627595A197,197,0,0,1,82.8010074864134,-178.75400179921823L71.70777594217948,-154.80550658625225A170.6070045455344,170.6070045455344,0,0,0,70.60934013488514,-155.30959753252887Z" fill-rule="evenodd" style="fill: #DB3F29; stroke: #fff; opacity: 1;" id="p-type-functions"></path><path d="M82.8010074864134,-178.75400179921823A197,197,0,0,1,84.06521668765978,-178.16295727018232L72.8026132261569,-154.2936470093393A170.6070045455344,170.6070045455344,0,0,0,71.70777594217948,-154.80550658625225Z" fill-rule="evenodd" style="fill: #DB3F29; stroke: #fff; opacity: 1;" id="p-type-functions"></path><path d="M84.06521668765978,-178.16295727018232A197,197,0,0,1,85.32520723007283,-177.56297195965473L73.89379704441473,-153.77404448852494A170.6070045455344,170.6070045455344,0,0,0,72.8026132261569,-154.2936470093393Z" fill-rule="evenodd" style="fill: #DB3F29; stroke: #fff; opacity: 1;" id="p-type-functions"></path><path d="M85.32520723007283,-177.56297195965473A197,197,0,0,1,86.58091588333642,-176.95407597679863L74.98127263789294,-153.24672509910926A170.6070045455344,170.6070045455344,0,0,0,73.89379704441473,-153.77404448852494Z" fill-rule="evenodd" style="fill: #DB3F29; stroke: #fff; opacity: 1;" id="p-type-functions"></path><path d="M86.58091588333642,-176.95407597679863A197,197,0,0,1,87.83227963201305,-176.33629987794308L76.06498543362183,-152.7117153036495A170.6070045455344,170.6070045455344,0,0,0,74.98127263789294,-153.24672509910926Z" fill-rule="evenodd" style="fill: #DB3F29; stroke: #fff; opacity: 1;" id="p-type-functions"></path><path d="M87.83227963201305,-176.33629987794308A197,197,0,0,1,89.07923567870643,-175.7096746650493L77.1448810474609,-152.16904195063168A170.6070045455344,170.6070045455344,0,0,0,76.06498543362183,-152.7117153036495Z" fill-rule="evenodd" style="fill: #DB3F29; stroke: #fff; opacity: 1;" id="p-type-functions"></path><path d="M89.07923567870643,-175.7096746650493A197,197,0,0,1,90.32172144721258,-175.0742317841553L78.22090528682787,-151.6187322731235A170.6070045455344,170.6070045455344,0,0,0,77.1448810474609,-152.16904195063168Z" fill-rule="evenodd" style="fill: #DB3F29; stroke: #fff; opacity: 1;" id="p-type-functions"></path><path d="M90.32172144721258,-175.0742317841553A197,197,0,0,1,91.5596745856604,-174.4300031237974L79.29300415341835,-151.06081388740753A170.6070045455344,170.6070045455344,0,0,0,78.22090528682787,-151.6187322731235Z" fill-rule="evenodd" style="fill: #DB3F29; stroke: #fff; opacity: 1;" id="p-type-functions"></path><path d="M91.5596745856604,-174.4300031237974A197,197,0,0,1,92.79303296964034,-173.7770210134103L80.3611238459155,-150.49531479159552A170.6070045455344,170.6070045455344,0,0,0,79.29300415341835,-151.06081388740753Z" fill-rule="evenodd" style="fill: #DB3F29; stroke: #fff; opacity: 1;" id="p-type-functions"></path><path d="M92.79303296964034,-173.7770210134103A197,197,0,0,1,94.02173470532234,-173.11531822170443L81.42521076269014,-149.92226336422314A170.6070045455344,170.6070045455344,0,0,0,80.3611238459155,-150.49531479159552Z" fill-rule="evenodd" style="fill: #DB3F29; stroke: #fff; opacity: 1;" id="p-type-functions"></path><path d="M94.02173470532234,-173.11531822170443A197,197,0,0,1,95.24571813256159,-172.4449279550217L82.48521150449048,-149.3416883628261A170.6070045455344,170.6070045455344,0,0,0,81.42521076269014,-149.92226336422314Z" fill-rule="evenodd" style="fill: #DB3F29; stroke: #fff; opacity: 1;" id="p-type-functions"></path><path d="M95.24571813256159,-172.4449279550217A197,197,0,0,1,96.46492182799302,-171.76588385566905L83.54107287712198,-148.75361892249677A170.6070045455344,170.6070045455344,0,0,0,82.48521150449048,-149.3416883628261Z" fill-rule="evenodd" style="fill: #DB3F29; stroke: #fff; opacity: 1;" id="p-type-functions"></path><path d="M96.46492182799302,-171.76588385566905A197,197,0,0,1,97.6792846081136,-171.07822000023015L84.59274189411668,-148.15808455442232A170.6070045455344,170.6070045455344,0,0,0,83.54107287712198,-148.75361892249677Z" fill-rule="evenodd" style="fill: #DB3F29; stroke: #fff; opacity: 1;" id="p-type-functions"></path><path d="M97.6792846081136,-171.07822000023015A197,197,0,0,1,98.88874553235273,-170.38197089785524L85.64016577939238,-147.55511514440354A170.6070045455344,170.6070045455344,0,0,0,84.59274189411668,-148.15808455442232Z" fill-rule="evenodd" style="fill: #DB3F29; stroke: #fff; opacity: 1;" id="p-type-functions"></path><path d="M98.88874553235273,-170.38197089785524A197,197,0,0,1,100.09324390613052,-169.67717148852955L86.68329196990099,-146.94474095135524A170.6070045455344,170.6070045455344,0,0,0,85.64016577939238,-147.55511514440354Z" fill-rule="evenodd" style="fill: #DB3F29; stroke: #fff; opacity: 1;" id="p-type-functions"></path><path d="M100.09324390613052,-169.67717148852955A197,197,0,0,1,101.29271928390364,-168.9638571413197L87.72206811826645,-146.3269926057876A170.6070045455344,170.6070045455344,0,0,0,86.68329196990099,-146.94474095135524Z" fill-rule="evenodd" style="fill: #DB3F29; stroke: #fff; opacity: 1;" id="p-type-functions"></path><path d="M101.29271928390364,-168.9638571413197A197,197,0,0,1,102.48711147219848,-168.24206365259897L88.75644209541146,-145.70190110826925A170.6070045455344,170.6070045455344,0,0,0,87.72206811826645,-146.3269926057876Z" fill-rule="evenodd" style="fill: #DB3F29; stroke: #fff; opacity: 1;" id="p-type-functions"></path><path d="M102.48711147219848,-168.24206365259897A197,197,0,0,1,103.67636053263195,-167.51182724425078L89.78636199317363,-145.0694978278714A170.6070045455344,170.6070045455344,0,0,0,88.75644209541146,-145.70190110826925Z" fill-rule="evenodd" style="fill: #DB3F29; stroke: #fff; opacity: 1;" id="p-type-functions"></path><path d="M103.67636053263195,-167.51182724425078A197,197,0,0,1,104.86040678491959,-166.77318456185094L90.81177612691047,-144.42981450059366A170.6070045455344,170.6070045455344,0,0,0,89.78636199317363,-145.0694978278714Z" fill-rule="evenodd" style="fill: #DB3F29; stroke: #fff; opacity: 1;" id="p-type-functions"></path><path d="M104.86040678491959,-166.77318456185094A197,197,0,0,1,106.03919080987022,-166.02617267282872L91.832633038093,-143.78288322777144A170.6070045455344,170.6070045455344,0,0,0,90.81177612691047,-144.42981450059366Z" fill-rule="evenodd" style="fill: #DB3F29; stroke: #fff; opacity: 1;" id="p-type-functions"></path><path d="M106.03919080987022,-166.02617267282872A197,197,0,0,1,107.21265345236786,-165.27082906460677L92.84888149688797,-143.12873647446503A170.6070045455344,170.6070045455344,0,0,0,91.832633038093,-143.78288322777144Z" fill-rule="evenodd" style="fill: #DB3F29; stroke: #fff; opacity: 1;" id="p-type-functions"></path><path d="M107.21265345236786,-165.27082906460677A197,197,0,0,1,108.3807358243404,-164.50719164271976L93.86047050472898,-142.4674070678304A170.6070045455344,170.6070045455344,0,0,0,92.84888149688797,-143.12873647446503Z" fill-rule="evenodd" style="fill: #DB3F29; stroke: #fff; opacity: 1;" id="p-type-functions"></path><path d="M108.3807358243404,-164.50719164271976A197,197,0,0,1,109.5433793077148,-163.73529872891223L94.86734929687563,-141.7989281954719A170.6070045455344,170.6070045455344,0,0,0,93.86047050472898,-142.4674070678304Z" fill-rule="evenodd" style="fill: #DB3F29; stroke: #fff; opacity: 1;" id="p-type-functions"></path><path d="M109.5433793077148,-163.73529872891223A197,197,0,0,1,110.70052555735857,-162.9551890592153L95.86946734496102,-141.12333340377646A170.6070045455344,170.6070045455344,0,0,0,94.86734929687563,-141.7989281954719Z" fill-rule="evenodd" style="fill: #DB3F29; stroke: #fff; opacity: 1;" id="p-type-functions"></path><path d="M110.70052555735857,-162.9551890592153A197,197,0,0,1,111.8521165040079,-162.1669017820031L96.86677435952751,-140.44065659623064A170.6070045455344,170.6070045455344,0,0,0,95.86946734496102,-141.12333340377646Z" fill-rule="evenodd" style="fill: #DB3F29; stroke: #fff; opacity: 1;" id="p-type-functions"></path><path d="M111.8521165040079,-162.1669017820031A197,197,0,0,1,112.99809435718163,-161.37047645602797L97.85922029255032,-139.75093203171886A170.6070045455344,170.6070045455344,0,0,0,96.86677435952751,-140.44065659623064Z" fill-rule="evenodd" style="fill: #DB3F29; stroke: #fff; opacity: 1;" id="p-type-functions"></path><path d="M112.99809435718163,-161.37047645602797A197,197,0,0,1,114.13840160808144,-160.56595304843523L98.84675533994914,-139.05419432280434A170.6070045455344,170.6070045455344,0,0,0,97.85922029255032,-139.75093203171886Z" fill-rule="evenodd" style="fill: #DB3F29; stroke: #fff; opacity: 1;" id="p-type-functions"></path><path d="M114.13840160808144,-160.56595304843523A197,197,0,0,1,115.27298103247777,-159.75337193275772L99.8293299440875,-138.3504784339921A170.6070045455344,170.6070045455344,0,0,0,98.84675533994914,-139.05419432280434Z" fill-rule="evenodd" style="fill: #DB3F29; stroke: #fff; opacity: 1;" id="p-type-functions"></path><path d="M115.27298103247777,-159.75337193275772A197,197,0,0,1,116.40177569358157,-158.93277388688944L100.80689479625963,-137.63981967997432A170.6070045455344,170.6070045455344,0,0,0,99.8293299440875,-138.3504784339921Z" fill-rule="evenodd" style="fill: #DB3F29; stroke: #fff; opacity: 1;" id="p-type-functions"></path><path d="M116.40177569358157,-158.93277388688944A197,197,0,0,1,117.5247289449015,-158.10420009103944L101.77940083916502,-136.9222537238581A170.6070045455344,170.6070045455344,0,0,0,100.80689479625963,-137.63981967997432Z" fill-rule="evenodd" style="fill: #DB3F29; stroke: #fff; opacity: 1;" id="p-type-functions"></path><path d="M117.5247289449015,-158.10420009103944A197,197,0,0,1,118.64178443308667,-157.26769212566512L102.74679926937021,-136.19781657537592A170.6070045455344,170.6070045455344,0,0,0,101.77940083916502,-136.9222537238581Z" fill-rule="evenodd" style="fill: #DB3F29; stroke: #fff; opacity: 1;" id="p-type-functions"></path><path d="M118.64178443308667,-157.26769212566512A197,197,0,0,1,119.75288610075465,-156.4232919693857L103.70904153975793,-135.46654458907838A170.6070045455344,170.6070045455344,0,0,0,102.74679926937021,-136.19781657537592Z" fill-rule="evenodd" style="fill: #DB3F29; stroke: #fff; opacity: 1;" id="p-type-functions"></path><path d="M119.75288610075465,-156.4232919693857A197,197,0,0,1,120.85797818930453,-155.57104199687546L104.66607936196333,-134.72847446250992A170.6070045455344,170.6070045455344,0,0,0,103.70904153975793,-135.46654458907838Z" fill-rule="evenodd" style="fill: #DB3F29; stroke: #fff; opacity: 1;" id="p-type-functions"></path><path d="M120.85797818930453,-155.57104199687546A197,197,0,0,1,121.95700524171518,-154.71098497673736L105.61786470879728,-133.98364323436718A170.6070045455344,170.6070045455344,0,0,0,104.66607936196333,-134.72847446250992Z" fill-rule="evenodd" style="fill: #DB3F29; stroke: #fff; opacity: 1;" id="p-type-functions"></path><path d="M121.95700524171518,-154.71098497673736A197,197,0,0,1,123.04991210532816,-153.84316406935673L106.5643498166565,-133.2320882826403A170.6070045455344,170.6070045455344,0,0,0,105.61786470879728,-133.98364323436718Z" fill-rule="evenodd" style="fill: #DB3F29; stroke: #fff; opacity: 1;" id="p-type-functions"></path><path d="M123.04991210532816,-153.84316406935673A197,197,0,0,1,124.13664393461545,-152.96762282473534L107.50548718792044,-132.47384732273716A170.6070045455344,170.6070045455344,0,0,0,106.5643498166565,-133.2320882826403Z" fill-rule="evenodd" style="fill: #DB3F29; stroke: #fff; opacity: 1;" id="p-type-functions"></path><path d="M124.13664393461545,-152.96762282473534A197,197,0,0,1,125.2171461939319,-152.084405180306L108.44122959333495,-131.70895840559066A170.6070045455344,170.6070045455344,0,0,0,107.50548718792044,-132.47384732273716Z" fill-rule="evenodd" style="fill: #DB3F29; stroke: #fff; opacity: 1;" id="p-type-functions"></path><path d="M125.2171461939319,-152.084405180306A197,197,0,0,1,126.29136466025183,-151.19355545872747L109.37153007438238,-130.93745991574937A170.6070045455344,170.6070045455344,0,0,0,108.44122959333495,-131.70895840559066Z" fill-rule="evenodd" style="fill: #DB3F29; stroke: #fff; opacity: 1;" id="p-type-functions"></path><path d="M126.29136466025183,-151.19355545872747A197,197,0,0,1,127.35924542589021,-150.29511836566036L110.29634194563799,-130.15939056945103A170.6070045455344,170.6070045455344,0,0,0,109.37153007438238,-130.93745991574937Z" fill-rule="evenodd" style="fill: #DB3F29; stroke: #fff; opacity: 1;" id="p-type-functions"></path><path d="M127.35924542589021,-150.29511836566036A197,197,0,0,1,128.42073490120796,-149.38913898752367L111.21561879711297,-129.3747894126798A170.6070045455344,170.6070045455344,0,0,0,110.29634194563799,-130.15939056945103Z" fill-rule="evenodd" style="fill: #DB3F29; stroke: #fff; opacity: 1;" id="p-type-functions"></path><path d="M128.42073490120796,-149.38913898752367A197,197,0,0,1,129.47577981730112,-148.4756627892321L112.12931449658326,-128.5836958192069A170.6070045455344,170.6070045455344,0,0,0,111.21561879711297,-129.3747894126798Z" fill-rule="evenodd" style="fill: #DB3F29; stroke: #fff; opacity: 1;" id="p-type-functions"></path><path d="M129.47577981730112,-148.4756627892321A197,197,0,0,1,130.52432722867417,-147.5547356119145L113.03738319190474,-127.78614948861434A170.6070045455344,170.6070045455344,0,0,0,112.12931449658326,-128.5836958192069Z" fill-rule="evenodd" style="fill: #DB3F29; stroke: #fff; opacity: 1;" id="p-type-functions"></path><path d="M130.52432722867417,-147.5547356119145A197,197,0,0,1,131.56632451589692,-146.6264036706135L113.9397793133141,-126.98219044430316A170.6070045455344,170.6070045455344,0,0,0,113.03738319190474,-127.78614948861434Z" fill-rule="evenodd" style="fill: #DB3F29; stroke: #fff; opacity: 1;" id="p-type-functions"></path><path d="M131.56632451589692,-146.6264036706135A197,197,0,0,1,132.60171938824521,-145.69071355196624L114.83645757571588,-126.17185903148453A170.6070045455344,170.6070045455344,0,0,0,113.9397793133141,-126.98219044430316Z" fill-rule="evenodd" style="fill: #DB3F29; stroke: #fff; opacity: 1;" id="p-type-functions"></path><path d="M132.60171938824521,-145.69071355196624A197,197,0,0,1,133.6304598863249,-144.74771221186643L115.72737298095475,-125.35519591515535A170.6070045455344,170.6070045455344,0,0,0,114.83645757571588,-126.17185903148453Z" fill-rule="evenodd" style="fill: #DB3F29; stroke: #fff; opacity: 1;" id="p-type-functions"></path><path d="M133.6304598863249,-144.74771221186643A197,197,0,0,1,134.65249438467953,-143.79744697310815L116.61248082007394,-124.5322420780574A170.6070045455344,170.6070045455344,0,0,0,115.72737298095475,-125.35519591515535Z" fill-rule="evenodd" style="fill: #DB3F29; stroke: #fff; opacity: 1;" id="p-type-functions"></path><path d="M134.65249438467953,-143.79744697310815A197,197,0,0,1,135.66777159438078,-142.83996552301085L117.49173667555861,-123.70303881862077A170.6070045455344,170.6070045455344,0,0,0,116.61248082007394,-124.5322420780574Z" fill-rule="evenodd" style="fill: #DB3F29; stroke: #fff; opacity: 1;" id="p-type-functions"></path><path d="M135.66777159438078,-142.83996552301085A197,197,0,0,1,136.67624056560265,-141.87531591102626L118.36509642356512,-122.86762774889131A170.6070045455344,170.6070045455344,0,0,0,117.49173667555861,-123.70303881862077Z" fill-rule="evenodd" style="fill: #DB3F29; stroke: #fff; opacity: 1;" id="p-type-functions"></path><path d="M136.67624056560265,-141.87531591102626A197,197,0,0,1,137.67785069017805,-140.90354654632736L119.2325162361351,-122.02605079244259A170.6070045455344,170.6070045455344,0,0,0,118.36509642356512,-122.86762774889131Z" fill-rule="evenodd" style="fill: #DB3F29; stroke: #fff; opacity: 1;" id="p-type-functions"></path><path d="M137.67785069017805,-140.90354654632736A197,197,0,0,1,138.67255170413847,-139.92470619537866L120.09395258339497,-121.17835018227174A170.6070045455344,170.6070045455344,0,0,0,119.2325162361351,-122.02605079244259Z" fill-rule="evenodd" style="fill: #DB3F29; stroke: #fff; opacity: 1;" id="p-type-functions"></path><path d="M138.67255170413847,-139.92470619537866A197,197,0,0,1,139.66029369023656,-138.9388439794893L120.94936223574041,-120.32456845868033A170.6070045455344,170.6070045455344,0,0,0,120.09395258339497,-121.17835018227174Z" fill-rule="evenodd" style="fill: #DB3F29; stroke: #fff; opacity: 1;" id="p-type-functions"></path><path d="M139.66029369023656,-138.9388439794893A197,197,0,0,1,140.64102708045095,-137.94600937234776L121.79870226600572,-119.46474846713943A170.6070045455344,170.6070045455344,0,0,0,120.94936223574041,-120.32456845868033Z" fill-rule="evenodd" style="fill: #DB3F29; stroke: #fff; opacity: 1;" id="p-type-functions"></path><path d="M140.64102708045095,-137.94600937234776A197,197,0,0,1,141.61470265847385,-136.94625219753928L122.64193005161803,-118.59893335613953A170.6070045455344,170.6070045455344,0,0,0,121.79870226600572,-119.46474846713943Z" fill-rule="evenodd" style="fill: #DB3F29; stroke: #fff; opacity: 1;" id="p-type-functions"></path><path d="M141.61470265847385,-136.94625219753928A197,197,0,0,1,142.58127156218086,-135.9396226260454L123.47900327673636,-117.72716657502518A170.6070045455344,170.6070045455344,0,0,0,122.64193005161803,-118.59893335613953Z" fill-rule="evenodd" style="fill: #DB3F29; stroke: #fff; opacity: 1;" id="p-type-functions"></path><path d="M142.58127156218086,-135.9396226260454A197,197,0,0,1,143.54068528608292,-134.92617117372632L124.30987993437499,-116.84949187181462A170.6070045455344,170.6070045455344,0,0,0,123.47900327673636,-117.72716657502518Z" fill-rule="evenodd" style="fill: #DB3F29; stroke: #fff; opacity: 1;" id="p-type-functions"></path><path d="M143.54068528608292,-134.92617117372632A197,197,0,0,1,144.49289568376062,-133.90594869878583L125.13451832851158,-115.96595329100433A170.6070045455344,170.6070045455344,0,0,0,124.30987993437499,-116.84949187181462Z" fill-rule="evenodd" style="fill: #DB3F29; stroke: #fff; opacity: 1;" id="p-type-functions"></path><path d="M144.49289568376062,-133.90594869878583A197,197,0,0,1,145.43785497028034,-132.87900639921907L125.95287707617965,-115.07659517135869A170.6070045455344,170.6070045455344,0,0,0,125.13451832851158,-115.96595329100433Z" fill-rule="evenodd" style="fill: #DB3F29; stroke: #fff; opacity: 1;" id="p-type-functions"></path><path d="M145.43785497028034,-132.87900639921907A197,197,0,0,1,146.37551572459202,-131.84539581024328L126.76491510954526,-114.18146214368505A170.6070045455344,170.6070045455344,0,0,0,125.95287707617965,-115.07659517135869Z" fill-rule="evenodd" style="fill: #DB3F29; stroke: #fff; opacity: 1;" id="p-type-functions"></path><path d="M146.37551572459202,-131.84539581024328A197,197,0,0,1,147.3058308919092,-130.80516880171152L127.5705916779679,-113.28059912859388A170.6070045455344,170.6070045455344,0,0,0,126.76491510954526,-114.18146214368505Z" fill-rule="evenodd" style="fill: #DB3F29; stroke: #fff; opacity: 1;" id="p-type-functions"></path><path d="M147.3058308919092,-130.80516880171152A197,197,0,0,1,148.22875378607017,-129.75837757550988L128.36986635004556,-112.37405133424458A170.6070045455344,170.6070045455344,0,0,0,127.5705916779679,-113.28059912859388Z" fill-rule="evenodd" style="fill: #DB3F29; stroke: #fff; opacity: 1;" id="p-type-functions"></path><path d="M148.22875378607017,-129.75837757550988A197,197,0,0,1,149.14423809188096,-128.7050746629375L129.16269901564368,-111.46186425407677A170.6070045455344,170.6070045455344,0,0,0,128.36986635004556,-112.37405133424458Z" fill-rule="evenodd" style="fill: #DB3F29; stroke: #fff; opacity: 1;" id="p-type-functions"></path><path d="M196.38799902901096,15.516244306570929A197,197,0,0,1,196.27315483604536,16.90706038037847L169.97753816893183,14.641943792725149A170.6070045455344,170.6070045455344,0,0,0,170.07699615751713,13.437461740816087Z" fill-rule="evenodd" style="fill: #1DC690; stroke: #fff; opacity: 1;" id="p-type-logs"></path><path d="M196.27315483604536,16.90706038037847A197,197,0,0,1,196.14846103451376,18.297028004346355L169.86955016911102,15.845691065519235A170.6070045455344,170.6070045455344,0,0,0,169.97753816893183,14.641943792725149Z" fill-rule="evenodd" style="fill: #1DC690; stroke: #fff; opacity: 1;" id="p-type-logs"></path><path d="M196.14846103451376,18.297028004346355A197,197,0,0,1,196.01392388194606,19.686077425496773L169.75303757723455,17.048643151347566A170.6070045455344,170.6070045455344,0,0,0,169.86955016911102,15.845691065519235Z" fill-rule="evenodd" style="fill: #1DC690; stroke: #fff; opacity: 1;" id="p-type-logs"></path><path d="M196.01392388194606,19.686077425496773A197,197,0,0,1,195.8695501298427,21.074138936930233L169.62800624027338,18.250739682264363A170.6070045455344,170.6070045455344,0,0,0,169.75303757723455,17.048643151347566Z" fill-rule="evenodd" style="fill: #1DC690; stroke: #fff; opacity: 1;" id="p-type-logs"></path><path d="M195.8695501298427,21.074138936930233A197,197,0,0,1,195.71534702333582,22.46114288132367L169.49446243269594,19.4519203332583A170.6070045455344,170.6070045455344,0,0,0,169.62800624027338,18.250739682264363Z" fill-rule="evenodd" style="fill: #1DC690; stroke: #fff; opacity: 1;" id="p-type-logs"></path><path d="M195.71534702333582,22.46114288132367A197,197,0,0,1,195.55132230082572,23.84701965442611L169.3524128561535,20.652124825279817A170.6070045455344,170.6070045455344,0,0,0,169.49446243269594,19.4519203332583Z" fill-rule="evenodd" style="fill: #1DC690; stroke: #fff; opacity: 1;" id="p-type-logs"></path><path d="M195.55132230082572,23.84701965442611A197,197,0,0,1,195.37748419359247,25.231699708551574L169.2018646391437,21.85129292826608A170.6070045455344,170.6070045455344,0,0,0,169.3524128561535,20.652124825279817Z" fill-rule="evenodd" style="fill: #1DC690; stroke: #fff; opacity: 1;" id="p-type-logs"></path><path d="M195.37748419359247,25.231699708551574A197,197,0,0,1,195.1938414253829,26.615113556069254L169.04282533665292,23.04936446416356A170.6070045455344,170.6070045455344,0,0,0,169.2018646391437,21.85129292826608Z" fill-rule="evenodd" style="fill: #1DC690; stroke: #fff; opacity: 1;" id="p-type-logs"></path><path d="M195.1938414253829,26.615113556069254A197,197,0,0,1,195.00040321197284,27.99719177289059L168.87530292977712,24.246279309947937A170.6070045455344,170.6070045455344,0,0,0,169.04282533665292,23.04936446416356Z" fill-rule="evenodd" style="fill: #1DC690; stroke: #fff; opacity: 1;" id="p-type-logs"></path><path d="M195.00040321197284,27.99719177289059A197,197,0,0,1,194.79717926070444,29.377865001953204L168.69930582532123,25.441977400641253A170.6070045455344,170.6070045455344,0,0,0,168.87530292977712,24.246279309947937Z" fill-rule="evenodd" style="fill: #1DC690; stroke: #fff; opacity: 1;" id="p-type-logs"></path><path d="M194.79717926070444,29.377865001953204A197,197,0,0,1,194.58417976999922,30.757063956701458L168.51484285537737,26.63639873232618A170.6070045455344,170.6070045455344,0,0,0,168.69930582532123,25.441977400641253Z" fill-rule="evenodd" style="fill: #1DC690; stroke: #fff; opacity: 1;" id="p-type-logs"></path><path d="M194.58417976999922,30.757063956701458A197,197,0,0,1,194.36141542884633,32.13471942456345L168.32192327688165,27.829483365157206A170.6070045455344,170.6070045455344,0,0,0,168.51484285537737,26.63639873232618Z" fill-rule="evenodd" style="fill: #1DC690; stroke: #fff; opacity: 1;" id="p-type-logs"></path><path d="M194.36141542884633,32.13471942456345A197,197,0,0,1,194.12889741626594,33.51076227042436L168.12055677114958,29.02117142636859A170.6070045455344,170.6070045455344,0,0,0,168.32192327688165,27.829483365157206Z" fill-rule="evenodd" style="fill: #1DC690; stroke: #fff; opacity: 1;" id="p-type-logs"></path><path d="M194.12889741626594,33.51076227042436A197,197,0,0,1,193.88663740074836,34.885123440095846L167.91075344339015,30.21140311327899A170.6070045455344,170.6070045455344,0,0,0,168.12055677114958,29.02117142636859Z" fill-rule="evenodd" style="fill: #1DC690; stroke: #fff; opacity: 1;" id="p-type-logs"></path><path d="M193.88663740074836,34.885123440095846A197,197,0,0,1,193.63464753966852,36.257733963781384L167.6925238221989,31.400118696292527A170.6070045455344,170.6070045455344,0,0,0,167.91075344339015,30.21140311327899Z" fill-rule="evenodd" style="fill: #1DC690; stroke: #fff; opacity: 1;" id="p-type-logs"></path><path d="M193.63464753966852,36.257733963781384A197,197,0,0,1,193.37294047867573,37.62852495953743L167.46587885902937,32.58725852189623A170.6070045455344,170.6070045455344,0,0,0,167.6925238221989,31.400118696292527Z" fill-rule="evenodd" style="fill: #1DC690; stroke: #fff; opacity: 1;" id="p-type-logs"></path><path d="M193.37294047867573,37.62852495953743A197,197,0,0,1,193.10152935105924,38.997427636730116L167.23082992764373,33.772763015653624A170.6070045455344,170.6070045455344,0,0,0,167.46587885902937,32.58725852189623Z" fill-rule="evenodd" style="fill: #1DC690; stroke: #fff; opacity: 1;" id="p-type-logs"></path><path d="M193.10152935105924,38.997427636730116A197,197,0,0,1,192.8204277770891,40.364373299487355L166.98738882354178,34.95657268519435A170.6070045455344,170.6070045455344,0,0,0,167.23082992764373,33.772763015653624Z" fill-rule="evenodd" style="fill: #1DC690; stroke: #fff; opacity: 1;" id="p-type-logs"></path><path d="M192.8204277770891,40.364373299487355A197,197,0,0,1,192.52964986333257,41.72929335014627L166.73556776336918,36.138628123199716A170.6070045455344,170.6070045455344,0,0,0,166.98738882354178,34.95657268519435Z" fill-rule="evenodd" style="fill: #1DC690; stroke: #fff; opacity: 1;" id="p-type-logs"></path><path d="M192.52964986333257,41.72929335014627A197,197,0,0,1,192.2292102019464,43.09211929269561L166.47537938430435,37.31887001038391A170.6070045455344,170.6070045455344,0,0,0,166.73556776336918,36.138628123199716Z" fill-rule="evenodd" style="fill: #1DC690; stroke: #fff; opacity: 1;" id="p-type-logs"></path><path d="M192.2292102019464,43.09211929269561A197,197,0,0,1,191.91912386994434,44.45278273621309L166.20683674342422,38.497239118470866A170.6070045455344,170.6070045455344,0,0,0,166.47537938430435,37.31887001038391Z" fill-rule="evenodd" style="fill: #1DC690; stroke: #fff; opacity: 1;" id="p-type-logs"></path><path d="M191.91912386994434,44.45278273621309A197,197,0,0,1,191.5994064284407,45.811215398297485L165.9299533170491,39.67367631316647A170.6070045455344,170.6070045455344,0,0,0,166.20683674342422,38.497239118470866Z" fill-rule="evenodd" style="fill: #1DC690; stroke: #fff; opacity: 1;" id="p-type-logs"></path><path d="M191.5994064284407,45.811215398297485A197,197,0,0,1,191.27007392186925,47.16734910849524L165.64474300006626,40.84812255712617A170.6070045455344,170.6070045455344,0,0,0,165.9299533170491,39.67367631316647Z" fill-rule="evenodd" style="fill: #1DC690; stroke: #fff; opacity: 1;" id="p-type-logs"></path><path d="M191.27007392186925,47.16734910849524A197,197,0,0,1,190.9311428771784,48.521115811721494L165.35122010523276,42.020518912917616A170.6070045455344,170.6070045455344,0,0,0,165.64474300006626,40.84812255712617Z" fill-rule="evenodd" style="fill: #1DC690; stroke: #fff; opacity: 1;" id="p-type-logs"></path><path d="M190.9311428771784,48.521115811721494A197,197,0,0,1,190.58263030300137,49.8724475716753L165.04939936245717,43.19080654597835A170.6070045455344,170.6070045455344,0,0,0,165.35122010523276,42.020518912917616Z" fill-rule="evenodd" style="fill: #1DC690; stroke: #fff; opacity: 1;" id="p-type-logs"></path><path d="M190.58263030300137,49.8724475716753A197,197,0,0,1,190.224553688803,51.22127657424886L164.73929591806026,44.358926727568274A170.6070045455344,170.6070045455344,0,0,0,165.04939936245717,43.19080654597835Z" fill-rule="evenodd" style="fill: #1DC690; stroke: #fff; opacity: 1;" id="p-type-logs"></path><path d="M190.224553688803,51.22127657424886A197,197,0,0,1,189.85693100400198,52.56753513093067L164.42092533401512,45.5248208377169A170.6070045455344,170.6070045455344,0,0,0,164.73929591806026,44.358926727568274Z" fill-rule="evenodd" style="fill: #1DC690; stroke: #fff; opacity: 1;" id="p-type-logs"></path><path d="M189.85693100400198,52.56753513093067A197,197,0,0,1,189.47978069706895,53.91115568220237L164.094303587166,46.68843036816504A170.6070045455344,170.6070045455344,0,0,0,164.42092533401512,45.5248208377169Z" fill-rule="evenodd" style="fill: #1DC690; stroke: #fff; opacity: 1;" id="p-type-logs"></path><path d="M189.47978069706895,53.91115568220237A197,197,0,0,1,189.09312169460085,55.252070800929026L163.75944706842668,47.84969692530095A170.6070045455344,170.6070045455344,0,0,0,164.094303587166,46.68843036816504Z" fill-rule="evenodd" style="fill: #1DC690; stroke: #fff; opacity: 1;" id="p-type-logs"></path><path d="M189.09312169460085,55.252070800929026A197,197,0,0,1,188.69697340037112,56.59021319574289L163.41637258195786,49.00856223309071A170.6070045455344,170.6070045455344,0,0,0,163.75944706842668,47.84969692530095Z" fill-rule="evenodd" style="fill: #1DC690; stroke: #fff; opacity: 1;" id="p-type-logs"></path><path d="M188.69697340037112,56.59021319574289A197,197,0,0,1,188.29135569435587,57.92551571442032L163.0650973443239,50.164968136002706A170.6070045455344,170.6070045455344,0,0,0,163.41637258195786,49.00856223309071Z" fill-rule="evenodd" style="fill: #1DC690; stroke: #fff; opacity: 1;" id="p-type-logs"></path><path d="M188.29135569435587,57.92551571442032A197,197,0,0,1,187.87628893173633,59.2579113472516L162.70563898362883,51.31885660192603A170.6070045455344,170.6070045455344,0,0,0,163.0650973443239,50.164968136002706Z" fill-rule="evenodd" style="fill: #1DC690; stroke: #fff; opacity: 1;" id="p-type-logs"></path><path d="M187.87628893173633,59.2579113472516A197,197,0,0,1,187.45179394187724,60.58733323040377L162.33801553863162,52.47016972508276A170.6070045455344,170.6070045455344,0,0,0,162.70563898362883,51.31885660192603Z" fill-rule="evenodd" style="fill: #1DC690; stroke: #fff; opacity: 1;" id="p-type-logs"></path><path d="M187.45179394187724,60.58733323040377A197,197,0,0,1,187.01789202728173,61.91371464927607L161.96224545784122,53.618849728933824A170.6070045455344,170.6070045455344,0,0,0,162.33801553863162,52.47016972508276Z" fill-rule="evenodd" style="fill: #1DC690; stroke: #fff; opacity: 1;" id="p-type-logs"></path><path d="M187.01789202728173,61.91371464927607A197,197,0,0,1,186.5746049625222,63.23698904184785L161.57834759859043,54.764838969078404A170.6070045455344,170.6070045455344,0,0,0,161.96224545784122,53.618849728933824Z" fill-rule="evenodd" style="fill: #1DC690; stroke: #fff; opacity: 1;" id="p-type-logs"></path><path d="M186.5746049625222,63.23698904184785A197,197,0,0,1,186.1219549931475,64.55709000201887L161.1863412260897,55.908079936146734A170.6070045455344,170.6070045455344,0,0,0,161.57834759859043,54.764838969078404Z" fill-rule="evenodd" style="fill: #1DC690; stroke: #fff; opacity: 1;" id="p-type-logs"></path><path d="M186.1219549931475,64.55709000201887A197,197,0,0,1,185.6599648345669,65.87395128294179L160.78624601246048,57.04851525868611A170.6070045455344,170.6070045455344,0,0,0,161.1863412260897,55.908079936146734Z" fill-rule="evenodd" style="fill: #1DC690; stroke: #fff; opacity: 1;" id="p-type-logs"></path><path d="M185.6599648345669,65.87395128294179A197,197,0,0,1,185.18865767090966,67.18750680034664L160.37808203574772,58.18608770603992A170.6070045455344,170.6070045455344,0,0,0,160.78624601246048,57.04851525868611Z" fill-rule="evenodd" style="fill: #1DC690; stroke: #fff; opacity: 1;" id="p-type-logs"></path><path d="M185.18865767090966,67.18750680034664A197,197,0,0,1,184.70805715386217,68.49769063585714L159.96186977891264,59.320740191219734A170.6070045455344,170.6070045455344,0,0,0,160.37808203574772,58.18608770603992Z" fill-rule="evenodd" style="fill: #1DC690; stroke: #fff; opacity: 1;" id="p-type-logs"></path><path d="M184.70805715386217,68.49769063585714A197,197,0,0,1,184.21818740148046,69.80443704029867L159.5376301288045,60.45241577377008A170.6070045455344,170.6070045455344,0,0,0,159.96186977891264,59.320740191219734Z" fill-rule="evenodd" style="fill: #1DC690; stroke: #fff; opacity: 1;" id="p-type-logs"></path><path d="M184.21818740148046,69.80443704029867A197,197,0,0,1,183.71907299698037,71.10768043699778L159.1053843751127,61.58105766262583A170.6070045455344,170.6070045455344,0,0,0,159.5376301288045,60.45241577377008Z" fill-rule="evenodd" style="fill: #1DC690; stroke: #fff; opacity: 1;" id="p-type-logs"></path><path d="M183.71907299698037,71.10768043699778A197,197,0,0,1,183.21073898750353,72.40735542507308L158.66515420929812,62.70660921896227A170.6070045455344,170.6070045455344,0,0,0,159.1053843751127,61.58105766262583Z" fill-rule="evenodd" style="fill: #1DC690; stroke: #fff; opacity: 1;" id="p-type-logs"></path><path d="M183.21073898750353,72.40735542507308A197,197,0,0,1,182.69321088286054,73.70339678271719L158.2169617235049,63.82901395903735A170.6070045455344,170.6070045455344,0,0,0,158.66515420929812,62.70660921896227Z" fill-rule="evenodd" style="fill: #1DC690; stroke: #fff; opacity: 1;" id="p-type-logs"></path><path d="M182.69321088286054,73.70339678271719A197,197,0,0,1,182.1665146542509,74.99573947046983L157.7608294094515,64.9482155570262A170.6070045455344,170.6070045455344,0,0,0,158.2169617235049,63.82901395903735Z" fill-rule="evenodd" style="fill: #1DC690; stroke: #fff; opacity: 1;" id="p-type-logs"></path><path d="M182.1665146542509,74.99573947046983A197,197,0,0,1,181.63067673295959,76.28431863448169L157.29678015730218,66.06415784784778A170.6070045455344,170.6070045455344,0,0,0,157.7608294094515,64.9482155570262Z" fill-rule="evenodd" style="fill: #1DC690; stroke: #fff; opacity: 1;" id="p-type-logs"></path><path d="M181.63067673295959,76.28431863448169A197,197,0,0,1,181.08572400903063,77.56906960976902L156.82483725451814,67.17678482998345A170.6070045455344,170.6070045455344,0,0,0,157.29678015730218,66.06415784784778Z" fill-rule="evenodd" style="fill: #1DC690; stroke: #fff; opacity: 1;" id="p-type-logs"></path><path d="M181.08572400903063,77.56906960976902A197,197,0,0,1,180.5316838299177,78.84992792345867L156.34502438468908,68.28604066828717A170.6070045455344,170.6070045455344,0,0,0,156.82483725451814,67.17678482998345Z" fill-rule="evenodd" style="fill: #1DC690; stroke: #fff; opacity: 1;" id="p-type-logs"></path><path d="M180.5316838299177,78.84992792345867A197,197,0,0,1,179.9685839991119,80.12682929802358L155.85736562634455,69.39186969678767A170.6070045455344,170.6070045455344,0,0,0,156.34502438468908,68.28604066828717Z" fill-rule="evenodd" style="fill: #1DC690; stroke: #fff; opacity: 1;" id="p-type-logs"></path><path d="M179.9685839991119,80.12682929802358A197,197,0,0,1,179.39645277474614,81.39970965450847L155.3618854517455,70.49421642148177A170.6070045455344,170.6070045455344,0,0,0,155.85736562634455,69.39186969678767Z" fill-rule="evenodd" style="fill: #1DC690; stroke: #fff; opacity: 1;" id="p-type-logs"></path><path d="M179.39645277474614,81.39970965450847A197,197,0,0,1,178.81531886817746,82.6685051157454L154.85860872565652,71.59302552311934A170.6070045455344,170.6070045455344,0,0,0,155.3618854517455,70.49421642148177Z" fill-rule="evenodd" style="fill: #1DC690; stroke: #fff; opacity: 1;" id="p-type-logs"></path><path d="M178.81531886817746,82.6685051157454A197,197,0,0,1,178.22521144254583,83.93315200955954L154.3475607040977,72.68824185997947A170.6070045455344,170.6070045455344,0,0,0,154.85860872565652,71.59302552311934Z" fill-rule="evenodd" style="fill: #1DC690; stroke: #fff; opacity: 1;" id="p-type-logs"></path><path d="M178.22521144254583,83.93315200955954A197,197,0,0,1,177.62616011131098,85.19358687196421L153.82876703307744,73.77981047063746A170.6070045455344,170.6070045455344,0,0,0,154.3475607040977,72.68824185997947Z" fill-rule="evenodd" style="fill: #1DC690; stroke: #fff; opacity: 1;" id="p-type-logs"></path><path d="M177.62616011131098,85.19358687196421A197,197,0,0,1,177.01819493676606,86.44974645034584L153.30225374730531,74.8676765767231A170.6070045455344,170.6070045455344,0,0,0,153.82876703307744,73.77981047063746Z" fill-rule="evenodd" style="fill: #1DC690; stroke: #fff; opacity: 1;" id="p-type-logs"></path><path d="M177.01819493676606,86.44974645034584A197,197,0,0,1,176.4013464285292,87.70156770663814L152.76804726888562,75.95178558566958A170.6070045455344,170.6070045455344,0,0,0,153.30225374730531,74.8676765767231Z" fill-rule="evenodd" style="fill: #1DC690; stroke: #fff; opacity: 1;" id="p-type-logs"></path><path d="M176.4013464285292,87.70156770663814A197,197,0,0,1,175.77564554201217,88.9489878204856L152.22617440599146,77.03208309345315A170.6070045455344,170.6070045455344,0,0,0,152.76804726888562,75.95178558566958Z" fill-rule="evenodd" style="fill: #1DC690; stroke: #fff; opacity: 1;" id="p-type-logs"></path><path d="M175.77564554201217,88.9489878204856A197,197,0,0,1,175.14112367686732,90.19194419239592L151.67666235151933,78.10851488732322A170.6070045455344,170.6070045455344,0,0,0,152.22617440599146,77.03208309345315Z" fill-rule="evenodd" style="fill: #1DC690; stroke: #fff; opacity: 1;" id="p-type-logs"></path><path d="M175.14112367686732,90.19194419239592A197,197,0,0,1,174.49781267541158,91.43037444688154L151.11953868172466,79.18102694852301A170.6070045455344,170.6070045455344,0,0,0,151.67666235151933,78.10851488732322Z" fill-rule="evenodd" style="fill: #1DC690; stroke: #fff; opacity: 1;" id="p-type-logs"></path><path d="M174.49781267541158,91.43037444688154A197,197,0,0,1,173.84574482102852,92.66421643558982L150.55483135483772,80.24956545500028A170.6070045455344,170.6070045455344,0,0,0,151.11953868172466,79.18102694852301Z" fill-rule="evenodd" style="fill: #1DC690; stroke: #fff; opacity: 1;" id="p-type-logs"></path><path d="M173.84574482102852,92.66421643558982A197,197,0,0,1,173.18495283654838,93.8934082404218L149.98256870966077,81.31407678410844A170.6070045455344,170.6070045455344,0,0,0,150.55483135483772,80.24956545500028Z" fill-rule="evenodd" style="fill: #1DC690; stroke: #fff; opacity: 1;" id="p-type-logs"></path><path d="M173.18495283654838,93.8934082404218A197,197,0,0,1,172.51546988260588,95.11788817663954L149.40277946414594,82.37450751529734A170.6070045455344,170.6070045455344,0,0,0,149.98256870966077,81.31407678410844Z" fill-rule="evenodd" style="fill: #1DC690; stroke: #fff; opacity: 1;" id="p-type-logs"></path><path d="M172.51546988260588,95.11788817663954A197,197,0,0,1,171.83732955597608,96.3375947959615L148.81549271395383,83.43080443279418A170.6070045455344,170.6070045455344,0,0,0,149.40277946414594,82.37450751529734Z" fill-rule="evenodd" style="fill: #1DC690; stroke: #fff; opacity: 1;" id="p-type-logs"></path><path d="M171.83732955597608,96.3375947959615A197,197,0,0,1,171.1505658878885,97.55246688964633L148.22073793099378,84.48291452827404A170.6070045455344,170.6070045455344,0,0,0,148.81549271395383,83.43080443279418Z" fill-rule="evenodd" style="fill: #1DC690; stroke: #fff; opacity: 1;" id="p-type-logs"></path><path d="M171.1505658878885,97.55246688964633A197,197,0,0,1,170.4552133423191,98.76244349156453L147.61854496194454,85.53078500351997A170.6070045455344,170.6070045455344,0,0,0,148.22073793099378,84.48291452827404Z" fill-rule="evenodd" style="fill: #1DC690; stroke: #fff; opacity: 1;" id="p-type-logs"></path><path d="M170.4552133423191,98.76244349156453A197,197,0,0,1,169.7513068142611,99.96746388125786L147.0089440267566,86.57436327307262A170.6070045455344,170.6070045455344,0,0,0,147.61854496194454,85.53078500351997Z" fill-rule="evenodd" style="fill: #1DC690; stroke: #fff; opacity: 1;" id="p-type-logs"></path><path d="M169.7513068142611,99.96746388125786A197,197,0,0,1,169.0388816279735,101.16746758698648L146.3919657171357,87.61359696686907A170.6070045455344,170.6070045455344,0,0,0,147.0089440267566,86.57436327307262Z" fill-rule="evenodd" style="fill: #1DC690; stroke: #fff; opacity: 1;" id="p-type-logs"></path><path d="M169.0388816279735,101.16746758698648A197,197,0,0,1,168.31797353520867,102.36239438876369L145.76764099500753,88.64843393287103A170.6070045455344,170.6070045455344,0,0,0,146.3919657171357,87.61359696686907Z" fill-rule="evenodd" style="fill: #1DC690; stroke: #fff; opacity: 1;" id="p-type-logs"></path><path d="M168.31797353520867,102.36239438876369A197,197,0,0,1,167.588618713418,103.55218432137785L145.13600119096412,89.67882223968186A170.6070045455344,170.6070045455344,0,0,0,145.76764099500753,88.64843393287103Z" fill-rule="evenodd" style="fill: #1DC690; stroke: #fff; opacity: 1;" id="p-type-logs"></path><path d="M167.588618713418,103.55218432137785A197,197,0,0,1,166.8508537639365,104.73677767740173L144.49707800269144,90.70471017915281A170.6070045455344,170.6070045455344,0,0,0,145.13600119096412,89.67882223968186Z" fill-rule="evenodd" style="fill: #1DC690; stroke: #fff; opacity: 1;" id="p-type-logs"></path><path d="M166.8508537639365,104.73677767740173A197,197,0,0,1,166.10471571014614,105.91611501018876L143.8509034933787,91.72604626897777A170.6070045455344,170.6070045455344,0,0,0,144.49707800269144,90.70471017915281Z" fill-rule="evenodd" style="fill: #1DC690; stroke: #fff; opacity: 1;" id="p-type-logs"></path><path d="M166.10471571014614,105.91611501018876A197,197,0,0,1,165.35024199561764,107.09013713685628L143.1975100901094,92.74277925527687A170.6070045455344,170.6070045455344,0,0,0,143.8509034933787,91.72604626897777Z" fill-rule="evenodd" style="fill: #1DC690; stroke: #fff; opacity: 1;" id="p-type-logs"></path><path d="M165.35024199561764,107.09013713685628A197,197,0,0,1,164.58747048223168,108.25878514125547L142.53693058223405,93.75485811516856A170.6070045455344,170.6070045455344,0,0,0,143.1975100901094,92.74277925527687Z" fill-rule="evenodd" style="fill: #1DC690; stroke: #fff; opacity: 1;" id="p-type-logs"></path><path d="M164.58747048223168,108.25878514125547A197,197,0,0,1,163.81643944827871,109.42200037692804L141.86919811972462,94.7622320593301A170.6070045455344,170.6070045455344,0,0,0,142.53693058223405,93.75485811516856Z" fill-rule="evenodd" style="fill: #1DC690; stroke: #fff; opacity: 1;" id="p-type-logs"></path><path d="M163.81643944827871,109.42200037692804A197,197,0,0,1,163.0371875865381,110.57972447004916L141.19434621151092,95.7648505345463A170.6070045455344,170.6070045455344,0,0,0,141.86919811972462,94.7622320593301Z" fill-rule="evenodd" style="fill: #1DC690; stroke: #fff; opacity: 1;" id="p-type-logs"></path><path d="M163.0371875865381,110.57972447004916A197,197,0,0,1,162.2497540023364,111.731899322357L140.51240872379924,96.76266322624646A170.6070045455344,170.6070045455344,0,0,0,141.19434621151092,95.7648505345463Z" fill-rule="evenodd" style="fill: #1DC690; stroke: #fff; opacity: 1;" id="p-type-logs"></path><path d="M162.2497540023364,111.731899322357A197,197,0,0,1,161.45417821158492,112.87846711406821L139.82341987837256,97.7556200610294A170.6070045455344,170.6070045455344,0,0,0,140.51240872379924,96.76266322624646Z" fill-rule="evenodd" style="fill: #1DC690; stroke: #fff; opacity: 1;" id="p-type-logs"></path><path d="M161.45417821158492,112.87846711406821A197,197,0,0,1,160.65050013879667,114.01937030677942L139.1274142508734,98.74367120917609A170.6070045455344,170.6070045455344,0,0,0,139.82341987837256,97.7556200610294Z" fill-rule="evenodd" style="fill: #1DC690; stroke: #fff; opacity: 1;" id="p-type-logs"></path><path d="M160.65050013879667,114.01937030677942A197,197,0,0,1,159.83876011508278,115.1545516463549L138.4244267690686,99.7267670871505A170.6070045455344,170.6070045455344,0,0,0,139.1274142508734,98.74367120917609Z" fill-rule="evenodd" style="fill: #1DC690; stroke: #fff; opacity: 1;" id="p-type-logs"></path><path d="M159.83876011508278,115.1545516463549A197,197,0,0,1,159.01899887612873,116.28395416579953L137.71449271109657,100.70485836008768A170.6070045455344,170.6070045455344,0,0,0,138.4244267690686,99.7267670871505Z" fill-rule="evenodd" style="fill: #1DC690; stroke: #fff; opacity: 1;" id="p-type-logs"></path><path d="M159.01899887612873,116.28395416579953A197,197,0,0,1,158.19125756014992,117.40752118811771L136.99764770369697,101.67789594426968A170.6070045455344,170.6070045455344,0,0,0,137.71449271109657,100.70485836008768Z" fill-rule="evenodd" style="fill: #1DC690; stroke: #fff; opacity: 1;" id="p-type-logs"></path><path d="M158.19125756014992,117.40752118811771A197,197,0,0,1,157.35557770582724,118.52519632915764L136.27392772042265,102.6458310095886A170.6070045455344,170.6070045455344,0,0,0,136.99764770369697,101.67789594426968Z" fill-rule="evenodd" style="fill: #1DC690; stroke: #fff; opacity: 1;" id="p-type-logs"></path><path d="M157.35557770582724,118.52519632915764A197,197,0,0,1,156.51200125022268,119.63692350044066L135.54336907983466,103.60861498199712A170.6070045455344,170.6070045455344,0,0,0,136.27392772042265,102.6458310095886Z" fill-rule="evenodd" style="fill: #1DC690; stroke: #fff; opacity: 1;" id="p-type-logs"></path><path d="M156.51200125022268,119.63692350044066A197,197,0,0,1,155.66057052667463,120.7426469119762L134.80600844367947,104.56619954594608A170.6070045455344,170.6070045455344,0,0,0,135.54336907983466,103.60861498199712Z" fill-rule="evenodd" style="fill: #1DC690; stroke: #fff; opacity: 1;" id="p-type-logs"></path><path d="M155.66057052667463,120.7426469119762A197,197,0,0,1,154.80132826267354,121.84231107506126L134.06188281504927,105.5185366468091A170.6070045455344,170.6070045455344,0,0,0,134.80600844367947,104.56619954594608Z" fill-rule="evenodd" style="fill: #1DC690; stroke: #fff; opacity: 1;" id="p-type-logs"></path><path d="M154.80132826267354,121.84231107506126A197,197,0,0,1,153.93431757771765,122.93586080506519L133.31102953652493,106.46557849329413A170.6070045455344,170.6070045455344,0,0,0,134.06188281504927,105.5185366468091Z" fill-rule="evenodd" style="fill: #1DC690; stroke: #fff; opacity: 1;" id="p-type-logs"></path><path d="M153.93431757771765,122.93586080506519A197,197,0,0,1,153.05958198114928,124.02324122419894L132.5534862883022,107.40727755984173A170.6070045455344,170.6070045455344,0,0,0,133.31102953652493,106.46557849329413Z" fill-rule="evenodd" style="fill: #1DC690; stroke: #fff; opacity: 1;" id="p-type-logs"></path><path d="M153.05958198114928,124.02324122419894A197,197,0,0,1,152.17716536997116,125.10439776426902L131.78929108630058,108.3435865890101A170.6070045455344,170.6070045455344,0,0,0,132.5534862883022,107.40727755984173Z" fill-rule="evenodd" style="fill: #1DC690; stroke: #fff; opacity: 1;" id="p-type-logs"></path><path d="M152.17716536997116,125.10439776426902A197,197,0,0,1,151.2871120266438,126.1792761694159L131.0184822802558,109.2744585938466A170.6070045455344,170.6070045455344,0,0,0,131.78929108630058,108.3435865890101Z" fill-rule="evenodd" style="fill: #1DC690; stroke: #fff; opacity: 1;" id="p-type-logs"></path><path d="M151.2871120266438,126.1792761694159A197,197,0,0,1,150.38946661686296,127.24782249883673L130.2410985517951,110.19984686024564A170.6070045455344,170.6070045455344,0,0,0,131.0184822802558,109.2744585938466Z" fill-rule="evenodd" style="fill: #1DC690; stroke: #fff; opacity: 1;" id="p-type-logs"></path><path d="M150.38946661686296,127.24782249883673A197,197,0,0,1,149.48427418731845,128.3099831294923L129.4571789124962,111.11970494929307A170.6070045455344,170.6070045455344,0,0,0,130.2410985517951,110.19984686024564Z" fill-rule="evenodd" style="fill: #1DC690; stroke: #fff; opacity: 1;" id="p-type-logs"></path><path d="M149.48427418731845,128.3099831294923A197,197,0,0,1,148.5715801634334,129.365704758798L128.66676270192949,112.03398669959648A170.6070045455344,170.6070045455344,0,0,0,129.4571789124962,111.11970494929307Z" fill-rule="evenodd" style="fill: #1DC690; stroke: #fff; opacity: 1;" id="p-type-logs"></path><path d="M148.5715801634334,129.365704758798A197,197,0,0,1,147.65143034708467,130.41493440729863L127.86988958568392,112.94264622960186A170.6070045455344,170.6070045455344,0,0,0,128.66676270192949,112.03398669959648Z" fill-rule="evenodd" style="fill: #1DC690; stroke: #fff; opacity: 1;" id="p-type-logs"></path><path d="M147.65143034708467,130.41493440729863A197,197,0,0,1,146.72387091430448,131.45761942132722L127.0665995533764,113.84563793989597A170.6070045455344,170.6070045455344,0,0,0,127.86988958568392,112.94264622960186Z" fill-rule="evenodd" style="fill: #1DC690; stroke: #fff; opacity: 1;" id="p-type-logs"></path><path d="M146.72387091430448,131.45761942132722A197,197,0,0,1,145.78894841296304,132.4937074756473L126.25693291664501,114.74291651549476A170.6070045455344,170.6070045455344,0,0,0,127.0665995533764,113.84563793989597Z" fill-rule="evenodd" style="fill: #1DC690; stroke: #fff; opacity: 1;" id="p-type-logs"></path><path d="M145.78894841296304,132.4937074756473A197,197,0,0,1,144.84670976043262,133.5231465760787L125.44093030712605,115.63443692811732A170.6070045455344,170.6070045455344,0,0,0,126.25693291664501,114.74291651549476Z" fill-rule="evenodd" style="fill: #1DC690; stroke: #fff; opacity: 1;" id="p-type-logs"></path><path d="M31.41597536884022,194.47888443639434A197,197,0,0,1,30.037505789252545,194.6965542734658L26.01324307981485,168.6121620301171A170.6070045455344,170.6070045455344,0,0,0,27.20703275408183,168.42365442157558Z" fill-rule="evenodd" style="fill: #D7A449; stroke: #fff; opacity: 1;" id="p-type-tokenTransfers"></path><path d="M30.037505789252545,194.6965542734658A197,197,0,0,1,28.65752883248652,194.90445362078108L24.81814797861833,168.79220814632234A170.6070045455344,170.6070045455344,0,0,0,26.01324307981485,168.6121620301171Z" fill-rule="evenodd" style="fill: #D7A449; stroke: #fff; opacity: 1;" id="p-type-tokenTransfers"></path><path d="M28.65752883248652,194.90445362078108A197,197,0,0,1,27.276113750156636,195.10257204529242L23.62180742414968,168.96378373490688A170.6070045455344,170.6070045455344,0,0,0,24.81814797861833,168.79220814632234Z" fill-rule="evenodd" style="fill: #D7A449; stroke: #fff; opacity: 1;" id="p-type-tokenTransfers"></path><path d="M27.276113750156636,195.10257204529242A197,197,0,0,1,25.89332986604708,195.29089960478976L22.424281452567083,169.12688018566433A170.6070045455344,170.6070045455344,0,0,0,23.62180742414968,168.96378373490688Z" fill-rule="evenodd" style="fill: #D7A449; stroke: #fff; opacity: 1;" id="p-type-tokenTransfers"></path><path d="M25.89332986604708,195.29089960478976A197,197,0,0,1,24.509246572632854,195.4694268483997L21.225630159516736,169.28148931389813A170.6070045455344,170.6070045455344,0,0,0,22.424281452567083,169.12688018566433Z" fill-rule="evenodd" style="fill: #D7A449; stroke: #fff; opacity: 1;" id="p-type-tokenTransfers"></path><path d="M24.509246572632854,195.4694268483997A197,197,0,0,1,23.123933327597427,195.63814481705973L20.025913697117,169.42760336083262A170.6070045455344,170.6070045455344,0,0,0,21.225630159516736,169.28148931389813Z" fill-rule="evenodd" style="fill: #D7A449; stroke: #fff; opacity: 1;" id="p-type-tokenTransfers"></path><path d="M23.123933327597427,195.63814481705973A197,197,0,0,1,21.737459650347148,195.79704504396773L18.82519227093983,169.56521499400208A170.6070045455344,170.6070045455344,0,0,0,20.025913697117,169.42760336083262Z" fill-rule="evenodd" style="fill: #D7A449; stroke: #fff; opacity: 1;" id="p-type-tokenTransfers"></path><path d="M21.737459650347148,195.79704504396773A197,197,0,0,1,20.349895118522515,195.94611955500707L17.623526136989437,169.6943173076189A170.6070045455344,170.6070045455344,0,0,0,18.82519227093983,169.56521499400208Z" fill-rule="evenodd" style="fill: #D7A449; stroke: #fff; opacity: 1;" id="p-type-tokenTransfers"></path><path d="M20.349895118522515,195.94611955500707A197,197,0,0,1,18.961309364506576,196.08536086914668L16.420975598678464,169.81490382292012A170.6070045455344,170.6070045455344,0,0,0,17.623526136989437,169.6943173076189Z" fill-rule="evenodd" style="fill: #D7A449; stroke: #fff; opacity: 1;" id="p-type-tokenTransfers"></path><path d="M18.961309364506576,196.08536086914668A197,197,0,0,1,17.571772071930532,196.2147619988163L15.21760100380176,169.9269684884924A170.6070045455344,170.6070045455344,0,0,0,16.420975598678464,169.81490382292012Z" fill-rule="evenodd" style="fill: #D7A449; stroke: #fff; opacity: 1;" id="p-type-tokenTransfers"></path><path d="M17.571772071930532,196.2147619988163A197,197,0,0,1,16.18135297217681,196.33431645025743L14.013462741507947,170.03050568057594A170.6070045455344,170.6070045455344,0,0,0,15.21760100380176,169.9269684884924Z" fill-rule="evenodd" style="fill: #D7A449; stroke: #fff; opacity: 1;" id="p-type-tokenTransfers"></path><path d="M16.18135297217681,196.33431645025743A197,197,0,0,1,14.790121840879715,196.44401822384904L12.8086212392689,170.1255102033465A170.6070045455344,170.6070045455344,0,0,0,14.013462741507947,170.03050568057594Z" fill-rule="evenodd" style="fill: #D7A449; stroke: #fff; opacity: 1;" id="p-type-tokenTransfers"></path><path d="M14.790121840879715,196.44401822384904A197,197,0,0,1,13.398148494423866,196.54386181440867L11.603136959847298,170.21197728917616A170.6070045455344,170.6070045455344,0,0,0,12.8086212392689,170.1255102033465Z" fill-rule="evenodd" style="fill: #D7A449; stroke: #fff; opacity: 1;" id="p-type-tokenTransfers"></path><path d="M13.398148494423866,196.54386181440867A197,197,0,0,1,12.005502786440585,196.6338422114687L10.39707039826241,170.28990259887277A170.6070045455344,170.6070045455344,0,0,0,11.603136959847298,170.21197728917616Z" fill-rule="evenodd" style="fill: #D7A449; stroke: #fff; opacity: 1;" id="p-type-tokenTransfers"></path><path d="M12.005502786440585,196.6338422114687A197,197,0,0,1,10.612254604302429,196.7139548995278L9.190482078754279,170.35928222189742A170.6070045455344,170.6070045455344,0,0,0,10.39707039826241,170.28990259887277Z" fill-rule="evenodd" style="fill: #D7A449; stroke: #fff; opacity: 1;" id="p-type-tokenTransfers"></path><path d="M10.612254604302429,196.7139548995278A197,197,0,0,1,9.218473865616014,196.7841958582776L7.983432551746404,170.4201126765609A170.6070045455344,170.6070045455344,0,0,0,9.190482078754279,170.35928222189742Z" fill-rule="evenodd" style="fill: #D7A449; stroke: #fff; opacity: 1;" id="p-type-tokenTransfers"></path><path d="M9.218473865616014,196.7841958582776A197,197,0,0,1,7.824230514713332,196.84456156280424L6.7759823908071395,170.47239091019833A170.6070045455344,170.6070045455344,0,0,0,7.983432551746404,170.4201126765609Z" fill-rule="evenodd" style="fill: #D7A449; stroke: #fff; opacity: 1;" id="p-type-tokenTransfers"></path><path d="M7.824230514713332,196.84456156280424A197,197,0,0,1,6.429594519141723,196.89504898376552L5.568192189609924,170.51611429932234A170.6070045455344,170.6070045455344,0,0,0,6.7759823908071395,170.47239091019833Z" fill-rule="evenodd" style="fill: #D7A449; stroke: #fff; opacity: 1;" id="p-type-tokenTransfers"></path><path d="M6.429594519141723,196.89504898376552A197,197,0,0,1,5.0346358661526756,196.93565558754273L4.360122558892488,170.55128064975483A170.6070045455344,170.6070045455344,0,0,0,5.568192189609924,170.51611429932234Z" fill-rule="evenodd" style="fill: #D7A449; stroke: #fff; opacity: 1;" id="p-type-tokenTransfers"></path><path d="M5.0346358661526756,196.93565558754273A197,197,0,0,1,3.6394245591896532,196.96637933636788L3.151834123415222,170.57788819673692A170.6070045455344,170.6070045455344,0,0,0,4.360122558892488,170.55128064975483Z" fill-rule="evenodd" style="fill: #D7A449; stroke: #fff; opacity: 1;" id="p-type-tokenTransfers"></path><path d="M3.6394245591896532,196.96637933636788A197,197,0,0,1,2.2440306143750948,196.98721868842594L1.9433875189188334,170.5959356050176A170.6070045455344,170.6070045455344,0,0,0,3.151834123415222,170.57788819673692Z" fill-rule="evenodd" style="fill: #D7A449; stroke: #fff; opacity: 1;" id="p-type-tokenTransfers"></path><path d="M2.2440306143750948,196.98721868842594A197,197,0,0,1,0.848524056996784,196.99817259793224L0.7348433890814499,170.6054219689208A170.6070045455344,170.6070045455344,0,0,0,1.9433875189188334,170.5959356050176Z" fill-rule="evenodd" style="fill: #D7A449; stroke: #fff; opacity: 1;" id="p-type-tokenTransfers"></path><path d="M0.848524056996784,196.99817259793224A197,197,0,0,1,-0.5470250820062385,196.99924051518485L-0.4737376175246683,170.6063468123907A170.6070045455344,170.6070045455344,0,0,0,0.7348433890814499,170.6054219689208Z" fill-rule="evenodd" style="fill: #D7A449; stroke: #fff; opacity: 1;" id="p-type-tokenTransfers"></path><path d="M-0.5470250820062385,196.99924051518485A197,197,0,0,1,-1.9425467695580523,196.9904223865924L-1.682294850476669,170.59871008901578A170.6070045455344,170.6070045455344,0,0,0,-0.4737376175246683,170.6063468123907Z" fill-rule="evenodd" style="fill: #D7A449; stroke: #fff; opacity: 1;" id="p-type-tokenTransfers"></path><path d="M-1.9425467695580523,196.9904223865924A197,197,0,0,1,-3.3379709739603376,196.9717186546764L-2.8907676605447374,170.582512182031A170.6070045455344,170.6070045455344,0,0,0,-1.682294850476669,170.59871008901578Z" fill-rule="evenodd" style="fill: #D7A449; stroke: #fff; opacity: 1;" id="p-type-tokenTransfers"></path><path d="M-3.3379709739603376,196.9717186546764A197,197,0,0,1,-4.733227668406788,196.94313025804942L-4.099095402735665,170.55775390429855A170.6070045455344,170.6070045455344,0,0,0,-2.8907676605447374,170.582512182031Z" fill-rule="evenodd" style="fill: #D7A449; stroke: #fff; opacity: 1;" id="p-type-tokenTransfers"></path><path d="M-4.733227668406788,196.94313025804942A197,197,0,0,1,-6.128246834497277,196.90465863136777L-5.307217439336212,170.52443649826733A170.6070045455344,170.6070045455344,0,0,0,-4.099095402735665,170.55775390429855Z" fill-rule="evenodd" style="fill: #D7A449; stroke: #fff; opacity: 1;" id="p-type-tokenTransfers"></path><path d="M-6.128246834497277,196.90465863136777A197,197,0,0,1,-7.522958465751603,196.85630570525947L-6.515073142956092,170.48256163591023A170.6070045455344,170.6070045455344,0,0,0,-5.307217439336212,170.52443649826733Z" fill-rule="evenodd" style="fill: #D7A449; stroke: #fff; opacity: 1;" id="p-type-tokenTransfers"></path><path d="M-7.522958465751603,196.85630570525947A197,197,0,0,1,-8.917292571122635,196.79807390622753L-7.7226018995704555,170.4321314186405A170.6070045455344,170.6070045455344,0,0,0,-6.515073142956092,170.48256163591023Z" fill-rule="evenodd" style="fill: #D7A449; stroke: #fff; opacity: 1;" id="p-type-tokenTransfers"></path><path d="M-8.917292571122635,196.79807390622753A197,197,0,0,1,-10.311179178508693,196.7299661565281L-8.929743111561686,170.37314837720618A170.6070045455344,170.6070045455344,0,0,0,-7.7226018995704555,170.4321314186405Z" fill-rule="evenodd" style="fill: #D7A449; stroke: #fff; opacity: 1;" id="p-type-tokenTransfers"></path><path d="M-10.311179178508693,196.7299661565281A197,197,0,0,1,-11.704548338264955,196.6519858740237L-10.136436200760388,170.3056154715631A170.6070045455344,170.6070045455344,0,0,0,-8.929743111561686,170.37314837720618Z" fill-rule="evenodd" style="fill: #D7A449; stroke: #fff; opacity: 1;" id="p-type-tokenTransfers"></path><path d="M-11.704548338264955,196.6519858740237A197,197,0,0,1,-13.097330126713766,196.56413697201194L-11.342620611485382,170.22953609072636A170.6070045455344,170.6070045455344,0,0,0,-10.136436200760388,170.3056154715631Z" fill-rule="evenodd" style="fill: #D7A449; stroke: #fff; opacity: 1;" id="p-type-tokenTransfers"></path><path d="M-13.097330126713766,196.56413697201194A197,197,0,0,1,-14.489454649653617,196.46642385902896L-12.548235813582584,170.14491405260023A170.6070045455344,170.6070045455344,0,0,0,-11.342620611485382,170.22953609072636Z" fill-rule="evenodd" style="fill: #D7A449; stroke: #fff; opacity: 1;" id="p-type-tokenTransfers"></path><path d="M-14.489454649653617,196.46642385902896A197,197,0,0,1,-15.880852045866675,196.35885143862828L-13.753221305462615,170.05175360378666A170.6070045455344,170.6070045455344,0,0,0,-12.548235813582584,170.14491405260023Z" fill-rule="evenodd" style="fill: #D7A449; stroke: #fff; opacity: 1;" id="p-type-tokenTransfers"></path><path d="M-15.880852045866675,196.35885143862828A197,197,0,0,1,-17.271452490624615,196.24142510913464L-14.957516617136932,169.950059419372A170.6070045455344,170.6070045455344,0,0,0,-13.753221305462615,170.05175360378666Z" fill-rule="evenodd" style="fill: #D7A449; stroke: #fff; opacity: 1;" id="p-type-tokenTransfers"></path><path d="M-17.271452490624615,196.24142510913464A197,197,0,0,1,-18.661186199192674,196.11415076337317L-16.16106131325243,169.83983660269251A170.6070045455344,170.6070045455344,0,0,0,-14.957516617136932,169.950059419372Z" fill-rule="evenodd" style="fill: #D7A449; stroke: #fff; opacity: 1;" id="p-type-tokenTransfers"></path><path d="M-18.661186199192674,196.11415076337317A197,197,0,0,1,-20.049983430331643,195.9770347883737L-17.363794996124266,169.72109068507828A170.6070045455344,170.6070045455344,0,0,0,-16.16106131325243,169.83983660269251Z" fill-rule="evenodd" style="fill: #D7A449; stroke: #fff; opacity: 1;" id="p-type-tokenTransfers"></path><path d="M-20.049983430331643,195.9770347883737A197,197,0,0,1,-21.437774489797732,195.83008406505007L-18.56565730876682,169.59382762557556A170.6070045455344,170.6070045455344,0,0,0,-17.363794996124266,169.72109068507828Z" fill-rule="evenodd" style="fill: #D7A449; stroke: #fff; opacity: 1;" id="p-type-tokenTransfers"></path><path d="M-21.437774489797732,195.83008406505007A197,197,0,0,1,-22.824489733840018,195.6733059678551L-19.766587937922576,169.4580538106477A170.6070045455344,170.6070045455344,0,0,0,-18.56565730876682,169.59382762557556Z" fill-rule="evenodd" style="fill: #D7A449; stroke: #fff; opacity: 1;" id="p-type-tokenTransfers"></path><path d="M-22.824489733840018,195.6733059678551A197,197,0,0,1,-24.210059572695407,195.5067083644102L-20.966526617088856,169.31377605385484A170.6070045455344,170.6070045455344,0,0,0,-19.766587937922576,169.4580538106477Z" fill-rule="evenodd" style="fill: #D7A449; stroke: #fff; opacity: 1;" id="p-type-tokenTransfers"></path><path d="M-24.210059572695407,195.5067083644102A197,197,0,0,1,-25.594414474080878,195.33029961511082L-22.165413129542173,169.16100159551172A170.6070045455344,170.6070045455344,0,0,0,-20.966526617088856,169.31377605385484Z" fill-rule="evenodd" style="fill: #D7A449; stroke: #fff; opacity: 1;" id="p-type-tokenTransfers"></path><path d="M-25.594414474080878,195.33029961511082A197,197,0,0,1,-26.9774849666828,195.14408857270672L-23.363187311360093,168.99973810232459A170.6070045455344,170.6070045455344,0,0,0,-22.165413129542173,169.16100159551172Z" fill-rule="evenodd" style="fill: #D7A449; stroke: #fff; opacity: 1;" id="p-type-tokenTransfers"></path><path d="M-26.9774849666828,195.14408857270672A197,197,0,0,1,-28.359201643643246,194.94808458185778L-24.559789054440458,168.82999366700628A170.6070045455344,170.6070045455344,0,0,0,-23.363187311360093,168.99973810232459Z" fill-rule="evenodd" style="fill: #D7A449; stroke: #fff; opacity: 1;" id="p-type-tokenTransfers"></path><path d="M-28.359201643643246,194.94808458185778A197,197,0,0,1,-29.739495166043067,194.74229747866514L-25.755158309517807,168.65177680787025A170.6070045455344,170.6070045455344,0,0,0,-24.559789054440458,168.82999366700628Z" fill-rule="evenodd" style="fill: #D7A449; stroke: #fff; opacity: 1;" id="p-type-tokenTransfers"></path><path d="M-29.739495166043067,194.74229747866514A197,197,0,0,1,-31.1182962663815,194.52673759017733L-26.949235089176824,168.46509646840286A170.6070045455344,170.6070045455344,0,0,0,-25.755158309517807,168.65177680787025Z" fill-rule="evenodd" style="fill: #D7A449; stroke: #fff; opacity: 1;" id="p-type-tokenTransfers"></path><path d="M-31.1182962663815,194.52673759017733A197,197,0,0,1,-32.49553575205224,194.30141573387235L-28.1419594708627,168.26996201681487A170.6070045455344,170.6070045455344,0,0,0,-26.949235089176824,168.46509646840286Z" fill-rule="evenodd" style="fill: #D7A449; stroke: #fff; opacity: 1;" id="p-type-tokenTransfers"></path><path d="M-32.49553575205224,194.30141573387235A197,197,0,0,1,-33.871144508815775,194.0663432171146L-29.333271599888253,168.0663832455711A170.6070045455344,170.6070045455344,0,0,0,-28.1419594708627,168.26996201681487Z" fill-rule="evenodd" style="fill: #D7A449; stroke: #fff; opacity: 1;" id="p-type-tokenTransfers"></path><path d="M-33.871144508815775,194.0663432171146A197,197,0,0,1,-35.245053504267716,193.82153183658752L-30.52311169243759,167.85437037089912A170.6070045455344,170.6070045455344,0,0,0,-29.333271599888253,168.0663832455711Z" fill-rule="evenodd" style="fill: #D7A449; stroke: #fff; opacity: 1;" id="p-type-tokenTransfers"></path><path d="M-35.245053504267716,193.82153183658752A197,197,0,0,1,-36.61719379130309,193.56699387770155L-31.711420038566295,167.63393403227644A170.6070045455344,170.6070045455344,0,0,0,-30.52311169243759,167.85437037089912Z" fill-rule="evenodd" style="fill: #D7A449; stroke: #fff; opacity: 1;" id="p-type-tokenTransfers"></path><path d="M-36.61719379130309,193.56699387770155A197,197,0,0,1,-37.9874965115763,193.30274211397773L-32.898137005197825,167.40508529189677A170.6070045455344,170.6070045455344,0,0,0,-31.711420038566295,167.63393403227644Z" fill-rule="evenodd" style="fill: #D7A449; stroke: #fff; opacity: 1;" id="p-type-tokenTransfers"></path><path d="M-37.9874965115763,193.30274211397773A197,197,0,0,1,-39.3558928989567,193.02878980640648L-34.08320303911609,167.16783563411468A170.6070045455344,170.6070045455344,0,0,0,-32.898137005197825,167.40508529189677Z" fill-rule="evenodd" style="fill: #D7A449; stroke: #fff; opacity: 1;" id="p-type-tokenTransfers"></path><path d="M-39.3558928989567,193.02878980640648A197,197,0,0,1,-40.72231428297943,192.74515070278227L-35.26655866995407,166.9221969648695A170.6070045455344,170.6070045455344,0,0,0,-34.08320303911609,167.16783563411468Z" fill-rule="evenodd" style="fill: #D7A449; stroke: #fff; opacity: 1;" id="p-type-tokenTransfers"></path><path d="M-40.72231428297943,192.74515070278227A197,197,0,0,1,-42.08669209229158,192.45183903701374L-36.44814451317815,166.6681816110876A170.6070045455344,170.6070045455344,0,0,0,-35.26655866995407,166.9221969648695Z" fill-rule="evenodd" style="fill: #D7A449; stroke: #fff; opacity: 1;" id="p-type-tokenTransfers"></path><path d="M-42.08669209229158,192.45183903701374A197,197,0,0,1,-43.44895785809327,192.14886952840922L-37.62790127306829,166.40580232006403A170.6070045455344,170.6070045455344,0,0,0,-36.44814451317815,166.6681816110876Z" fill-rule="evenodd" style="fill: #D7A449; stroke: #fff; opacity: 1;" id="p-type-tokenTransfers"></path><path d="M-43.44895785809327,192.14886952840922A197,197,0,0,1,-44.80904321757369,191.83625738093832L-38.80576974569362,166.1350722588226A170.6070045455344,170.6070045455344,0,0,0,-37.62790127306829,166.40580232006403Z" fill-rule="evenodd" style="fill: #D7A449; stroke: #fff; opacity: 1;" id="p-type-tokenTransfers"></path><path d="M-44.80904321757369,191.83625738093832A197,197,0,0,1,-46.166879917341674,191.5140182824687L-39.98169082188352,165.8560050134553A170.6070045455344,170.6070045455344,0,0,0,-38.80576974569362,166.1350722588226Z" fill-rule="evenodd" style="fill: #D7A449; stroke: #fff; opacity: 1;" id="p-type-tokenTransfers"></path><path d="M-46.166879917341674,191.5140182824687A197,197,0,0,1,-47.522399816850964,191.18216840397892L-41.155605490193885,165.5686145884404A170.6070045455344,170.6070045455344,0,0,0,-39.98169082188352,165.8560050134553Z" fill-rule="evenodd" style="fill: #D7A449; stroke: #fff; opacity: 1;" id="p-type-tokenTransfers"></path><path d="M-47.522399816850964,191.18216840397892A197,197,0,0,1,-48.875534891819655,190.84072439874703L-42.32745483986854,165.27291540593967A170.6070045455344,170.6070045455344,0,0,0,-41.155605490193885,165.5686145884404Z" fill-rule="evenodd" style="fill: #D7A449; stroke: #fff; opacity: 1;" id="p-type-tokenTransfers"></path><path d="M-48.875534891819655,190.84072439874703A197,197,0,0,1,-50.2262172376439,190.4897034015146L-43.49718006379549,164.9689223050746A170.6070045455344,170.6070045455344,0,0,0,-42.32745483986854,165.27291540593967Z" fill-rule="evenodd" style="fill: #D7A449; stroke: #fff; opacity: 1;" id="p-type-tokenTransfers"></path><path d="M-50.2262172376439,190.4897034015146A197,197,0,0,1,-51.57437907280556,190.1291230276271L-44.66472246145814,164.65665054118196A170.6070045455344,170.6070045455344,0,0,0,-43.49718006379549,164.9689223050746Z" fill-rule="evenodd" style="fill: #D7A449; stroke: #fff; opacity: 1;" id="p-type-tokenTransfers"></path><path d="M-51.57437907280556,190.1291230276271A197,197,0,0,1,-52.91995274227373,189.7590013721497L-45.83002344188102,164.33611578504778A170.6070045455344,170.6070045455344,0,0,0,-44.66472246145814,164.65665054118196Z" fill-rule="evenodd" style="fill: #D7A449; stroke: #fff; opacity: 1;" id="p-type-tokenTransfers"></path><path d="M-52.91995274227373,189.7590013721497A197,197,0,0,1,-54.262870720899826,189.37935700895943L-46.99302452657006,164.00733412212145A170.6070045455344,170.6070045455344,0,0,0,-45.83002344188102,164.33611578504778Z" fill-rule="evenodd" style="fill: #D7A449; stroke: #fff; opacity: 1;" id="p-type-tokenTransfers"></path><path d="M-54.262870720899826,189.37935700895943A197,197,0,0,1,-55.603065616806255,188.99020898981286L-48.15366735244727,163.67032205170813A170.6070045455344,170.6070045455344,0,0,0,-46.99302452657006,164.00733412212145Z" fill-rule="evenodd" style="fill: #D7A449; stroke: #fff; opacity: 1;" id="p-type-tokenTransfers"></path><path d="M-55.603065616806255,188.99020898981286A197,197,0,0,1,-56.94047017476833,188.5915768433901L-49.311893674779526,163.3250964861409A170.6070045455344,170.6070045455344,0,0,0,-48.15366735244727,163.67032205170813Z" fill-rule="evenodd" style="fill: #D7A449; stroke: #fff; opacity: 1;" id="p-type-tokenTransfers"></path><path d="M-56.94047017476833,188.5915768433901A197,197,0,0,1,-58.27501727958937,188.1834805743149L-50.46764537010152,162.97167474993213A170.6070045455344,170.6070045455344,0,0,0,-49.311893674779526,163.3250964861409Z" fill-rule="evenodd" style="fill: #D7A449; stroke: #fff; opacity: 1;" id="p-type-tokenTransfers"></path><path d="M-58.27501727958937,188.1834805743149A197,197,0,0,1,-59.60663995946876,187.7659406621506L-51.62086443913258,162.61007457890392A170.6070045455344,170.6070045455344,0,0,0,-50.46764537010152,162.97167474993213Z" fill-rule="evenodd" style="fill: #D7A449; stroke: #fff; opacity: 1;" id="p-type-tokenTransfers"></path><path d="M-59.60663995946876,187.7659406621506A197,197,0,0,1,-60.93527138936275,187.33897806037245L-52.77149300968723,162.24031411929815A170.6070045455344,170.6070045455344,0,0,0,-51.62086443913258,162.61007457890392Z" fill-rule="evenodd" style="fill: #D7A449; stroke: #fff; opacity: 1;" id="p-type-tokenTransfers"></path><path d="M-60.93527138936275,187.33897806037245A197,197,0,0,1,-62.26084489433802,186.90261419531612L-53.91947333957939,161.8624119268658A170.6070045455344,170.6070045455344,0,0,0,-52.77149300968723,162.24031411929815Z" fill-rule="evenodd" style="fill: #D7A449; stroke: #fff; opacity: 1;" id="p-type-tokenTransfers"></path><path d="M-62.26084489433802,186.90261419531612A197,197,0,0,1,-63.583293952917614,186.45687096510247L-55.06474781952013,161.47638696593583A170.6070045455344,170.6070045455344,0,0,0,-53.91947333957939,161.8624119268658Z" fill-rule="evenodd" style="fill: #D7A449; stroke: #fff; opacity: 1;" id="p-type-tokenTransfers"></path><path d="M-63.583293952917614,186.45687096510247A197,197,0,0,1,-64.90255220041915,186.00177073853857L-56.2072589760086,161.08225860846346A170.6070045455344,170.6070045455344,0,0,0,-55.06474781952013,161.47638696593583Z" fill-rule="evenodd" style="fill: #D7A449; stroke: #fff; opacity: 1;" id="p-type-tokenTransfers"></path><path d="M-64.90255220041915,186.00177073853857A197,197,0,0,1,-66.2185534322853,185.53733635399527L-57.34694947421631,160.68004663305794A170.6070045455344,170.6070045455344,0,0,0,-56.2072589760086,161.08225860846346Z" fill-rule="evenodd" style="fill: #D7A449; stroke: #fff; opacity: 1;" id="p-type-tokenTransfers"></path><path d="M-148.8534462813795,129.04127839631965A197,197,0,0,1,-162.65075553637018,111.1473424038917L-140.859686239229,96.25642208489757A170.6070045455344,170.6070045455344,0,0,0,-128.91086592053693,111.75302522803288Z" fill-rule="evenodd" style="fill: #414552; stroke: #fff; opacity: 1;" id="p-type-ether"></path><path d="M-162.65075553637018,111.1473424038917A197,197,0,0,1,-167.9344029339445,102.99046708904457L-145.4354591101679,89.19236084673776A170.6070045455344,170.6070045455344,0,0,0,-140.859686239229,96.25642208489757Z" fill-rule="evenodd" style="fill: #414552; stroke: #fff; opacity: 1;" id="p-type-ether"></path><path d="M-167.9344029339445,102.99046708904457A197,197,0,0,1,-171.47624129526614,96.97885682584463L-148.50278110717068,83.98615364115535A170.6070045455344,170.6070045455344,0,0,0,-145.4354591101679,89.19236084673776Z" fill-rule="evenodd" style="fill: #414552; stroke: #fff; opacity: 1;" id="p-type-ether"></path><path d="M-171.47624129526614,96.97885682584463A197,197,0,0,1,-172.38639136971352,95.35162332403137L-149.2909941928984,82.57692809069596A170.6070045455344,170.6070045455344,0,0,0,-148.50278110717068,83.98615364115535Z" fill-rule="evenodd" style="fill: #414552; stroke: #fff; opacity: 1;" id="p-type-ether"></path><path d="M-172.38639136971352,95.35162332403137A197,197,0,0,1,-173.19546823771182,93.87401015147778L-149.99167531419928,81.29727754629803A170.6070045455344,170.6070045455344,0,0,0,-149.2909941928984,82.57692809069596Z" fill-rule="evenodd" style="fill: #414552; stroke: #fff; opacity: 1;" id="p-type-ether"></path><path d="M-173.19546823771182,93.87401015147778A197,197,0,0,1,-173.90191085095032,92.55876729077653L-150.60347256357971,80.15824381678463A170.6070045455344,170.6070045455344,0,0,0,-149.99167531419928,81.29727754629803Z" fill-rule="evenodd" style="fill: #414552; stroke: #fff; opacity: 1;" id="p-type-ether"></path></g></svg>