<svg xmlns="http://www.w3.org/2000/svg" width="400" height="400" id="block-7824884"><g id="burst-container" transform="translate(200,200)"><circle r="197" style="fill: #f9f9f9; stroke: #f9f9f9; stroke-width: 3; opacity: 1;" id="circle-base"></circle><path display="none" d="M6.031385485800715e-15,-98.5A98.5,98.5,0,1,1,-6.031385485800715e-15,98.5A98.5,98.5,0,1,1,6.031385485800715e-15,-98.5Z" fill-rule="evenodd" id="p-type-root" style="stroke: #fff; opacity: 1;"></path><path d="M8.529667153919608e-15,-139.30003589374985A139.30003589374985,139.30003589374985,0,1,1,-105.98970150669294,-90.39183134842511L-74.94603667132063,-63.916676910342154A98.5,98.5,0,1,0,6.031385485800715e-15,-98.5Z" fill-rule="evenodd" style="fill: #0B1F65; stroke: #fff; opacity: 1;" id="p-type-data"></path><path d="M-105.98970150669294,-90.39183134842511A139.30003589374985,139.30003589374985,0,0,1,-1.8111806734337657,-139.28826090007792L-1.2806981361390337,-98.49167382212615A98.5,98.5,0,0,0,-74.94603667132063,-63.916676910342154Z" fill-rule="evenodd" style="fill: #D7A449; stroke: #fff; opacity: 1;" id="p-type-value"></path><path d="M1.0446666101440332e-14,-170.6070045455344A170.6070045455344,170.6070045455344,0,0,1,170.02505930546351,-14.079389481565185L138.8248795949448,-11.495773373247761A139.30003589374985,139.30003589374985,0,0,0,8.529667153919608e-15,-139.30003589374985Z" fill-rule="evenodd" style="fill: #DB3F29; stroke: #fff; opacity: 1;" id="p-type-functions"></path><path d="M170.02505930546351,-14.079389481565185A170.6070045455344,170.6070045455344,0,0,1,71.30588449780535,154.99103469551275L58.2210108924854,126.54964990333671A139.30003589374985,139.30003589374985,0,0,0,138.8248795949448,-11.495773373247761Z" fill-rule="evenodd" style="fill: #1DC690; stroke: #fff; opacity: 1;" id="p-type-logs"></path><path d="M71.30588449780535,154.99103469551275A170.6070045455344,170.6070045455344,0,0,1,-92.32208803102233,143.4690979325937L-75.38066922143827,117.14202793074784A139.30003589374985,139.30003589374985,0,0,0,58.2210108924854,126.54964990333671Z" fill-rule="evenodd" style="fill: #D7A449; stroke: #fff; opacity: 1;" id="p-type-tokenTransfers"></path><path d="M-92.32208803102233,143.4690979325937A170.6070045455344,170.6070045455344,0,0,1,-164.1713771513198,46.416687992995655L-134.04536813024882,37.899067044269984A139.30003589374985,139.30003589374985,0,0,0,-75.38066922143827,117.14202793074784Z" fill-rule="evenodd" style="fill: #414552; stroke: #fff; opacity: 1;" id="p-type-ether"></path><path d="M-129.81034334064756,-110.70693185967714A170.6070045455344,170.6070045455344,0,0,1,-60.74926625259237,-159.4248307189681L-49.601568189109756,-130.16982919701897A139.30003589374985,139.30003589374985,0,0,0,-105.98970150669294,-90.39183134842511Z" fill-rule="evenodd" style="fill: #D7A449; stroke: #fff; opacity: 1;" id="p-type-tokenTransfers"></path><path d="M-60.74926625259237,-159.4248307189681A170.6070045455344,170.6070045455344,0,0,1,-4.43609346844395,-170.54932153116067L-3.622055149660302,-139.2529379097361A139.30003589374985,139.30003589374985,0,0,0,-49.601568189109756,-130.16982919701897Z" fill-rule="evenodd" style="fill: #414552; stroke: #fff; opacity: 1;" id="p-type-ether"></path><path d="M1.206277097160143e-14,-197A197,197,0,0,1,5.429625444688335,-196.92516133681443L4.7021935681344775,-170.54219236203045A170.6070045455344,170.6070045455344,0,0,0,1.0446666101440332e-14,-170.6070045455344Z" fill-rule="evenodd" style="fill: #DB3F29; stroke: #fff; opacity: 1;" id="p-type-functions"></path><path d="M5.429625444688335,-196.92516133681443A197,197,0,0,1,9.595304986550456,-196.76618134785022L8.309777875412195,-170.40451165289406A170.6070045455344,170.6070045455344,0,0,0,4.7021935681344775,-170.54219236203045Z" fill-rule="evenodd" style="fill: #DB3F29; stroke: #fff; opacity: 1;" id="p-type-functions"></path><path d="M9.595304986550456,-196.76618134785022A197,197,0,0,1,10.874307325018346,-196.6996427048129L9.417426392025092,-170.3468874976904A170.6070045455344,170.6070045455344,0,0,0,8.309777875412195,-170.40451165289406Z" fill-rule="evenodd" style="fill: #DB3F29; stroke: #fff; opacity: 1;" id="p-type-functions"></path><path d="M10.874307325018346,-196.6996427048129A197,197,0,0,1,12.152850057528106,-196.62479049061753L10.524676878202516,-170.2820635786677A170.6070045455344,170.6070045455344,0,0,0,9.417426392025092,-170.3468874976904Z" fill-rule="evenodd" style="fill: #DB3F29; stroke: #fff; opacity: 1;" id="p-type-functions"></path><path d="M12.152850057528106,-196.62479049061753A197,197,0,0,1,13.430879146076299,-196.5416278689161L11.631482535660723,-170.21004263562892A170.6070045455344,170.6070045455344,0,0,0,10.524676878202516,-170.2820635786677Z" fill-rule="evenodd" style="fill: #DB3F29; stroke: #fff; opacity: 1;" id="p-type-functions"></path><path d="M13.430879146076299,-196.5416278689161A197,197,0,0,1,14.708340574368679,-196.45015835460245L12.737796584916676,-170.13082771256148A170.6070045455344,170.6070045455344,0,0,0,11.631482535660723,-170.21004263562892Z" fill-rule="evenodd" style="fill: #DB3F29; stroke: #fff; opacity: 1;" id="p-type-functions"></path><path d="M14.708340574368679,-196.45015835460245A197,197,0,0,1,15.985180350103384,-196.3503858136639L13.843572267265357,-170.0444221575086A170.6070045455344,170.6070045455344,0,0,0,12.737796584916676,-170.13082771256148Z" fill-rule="evenodd" style="fill: #DB3F29; stroke: #fff; opacity: 1;" id="p-type-functions"></path><path d="M15.985180350103384,-196.3503858136639A197,197,0,0,1,17.261344507252883,-196.24231446301772L14.948762846755978,-169.95082962242768A170.6070045455344,170.6070045455344,0,0,0,13.843572267265357,-170.0444221575086Z" fill-rule="evenodd" style="fill: #DB3F29; stroke: #fff; opacity: 1;" id="p-type-functions"></path><path d="M17.261344507252883,-196.24231446301772A197,197,0,0,1,18.53677910834483,-196.12594887033288L16.053321612167277,-169.8500540630362A170.6070045455344,170.6070045455344,0,0,0,14.948762846755978,-169.95082962242768Z" fill-rule="evenodd" style="fill: #DB3F29; stroke: #fff; opacity: 1;" id="p-type-functions"></path><path d="M18.53677910834483,-196.12594887033288A197,197,0,0,1,19.81143024674193,-196.00129395383715L17.15720187898192,-169.74209973864427A170.6070045455344,170.6070045455344,0,0,0,16.053321612167277,-169.8500540630362Z" fill-rule="evenodd" style="fill: #DB3F29; stroke: #fff; opacity: 1;" id="p-type-functions"></path><path d="M19.81143024674193,-196.00129395383715A197,197,0,0,1,21.085244048920043,-195.86835498210903L18.260356991359412,-169.62697121197473A170.6070045455344,170.6070045455344,0,0,0,17.15720187898192,-169.74209973864427Z" fill-rule="evenodd" style="fill: #DB3F29; stroke: #fff; opacity: 1;" id="p-type-functions"></path><path d="M21.085244048920043,-195.86835498210903A197,197,0,0,1,22.358166676745345,-195.7271375738553L19.362740324108167,-169.50467334897039A170.6070045455344,170.6070045455344,0,0,0,18.260356991359412,-169.62697121197473Z" fill-rule="evenodd" style="fill: #DB3F29; stroke: #fff; opacity: 1;" id="p-type-functions"></path><path d="M22.358166676745345,-195.7271375738553A197,197,0,0,1,23.630144329749776,-195.57764769767326L20.464305284656113,-169.37521131858816A170.6070045455344,170.6070045455344,0,0,0,19.362740324108167,-169.50467334897039Z" fill-rule="evenodd" style="fill: #DB3F29; stroke: #fff; opacity: 1;" id="p-type-functions"></path><path d="M23.630144329749776,-195.57764769767326A197,197,0,0,1,24.90112324740493,-195.41989167179872L21.565005315019924,-169.23859059258075A170.6070045455344,170.6070045455344,0,0,0,20.464305284656113,-169.37521131858816Z" fill-rule="evenodd" style="fill: #DB3F29; stroke: #fff; opacity: 1;" id="p-type-functions"></path><path d="M24.90112324740493,-195.41989167179872A197,197,0,0,1,26.171049711394247,-195.25387616383887L22.66479389377282,-169.09481694526534A170.6070045455344,170.6070045455344,0,0,0,21.565005315019924,-169.23859059258075Z" fill-rule="evenodd" style="fill: #DB3F29; stroke: #fff; opacity: 1;" id="p-type-functions"></path><path d="M26.171049711394247,-195.25387616383887A197,197,0,0,1,27.43987004788342,-195.07960819049046L23.763624538010763,-168.94389645327956A170.6070045455344,170.6070045455344,0,0,0,22.66479389377282,-169.09481694526534Z" fill-rule="evenodd" style="fill: #DB3F29; stroke: #fff; opacity: 1;" id="p-type-functions"></path><path d="M27.43987004788342,-195.07960819049046A197,197,0,0,1,28.707530629789087,-194.89709511724314L24.861450805317233,-168.78583549532462A170.6070045455344,170.6070045455344,0,0,0,23.763624538010763,-168.94389645327956Z" fill-rule="evenodd" style="fill: #DB3F29; stroke: #fff; opacity: 1;" id="p-type-functions"></path><path d="M28.707530629789087,-194.89709511724314A197,197,0,0,1,29.97397787904513,-194.70634465806836L25.95822629572589,-168.62064075189573A170.6070045455344,170.6070045455344,0,0,0,24.861450805317233,-168.78583549532462Z" fill-rule="evenodd" style="fill: #DB3F29; stroke: #fff; opacity: 1;" id="p-type-functions"></path><path d="M29.97397787904513,-194.70634465806836A197,197,0,0,1,31.239158268867364,-194.50736487509323L27.053904653681844,-168.44831920499976A170.6070045455344,170.6070045455344,0,0,0,25.95822629572589,-168.62064075189573Z" fill-rule="evenodd" style="fill: #DB3F29; stroke: #fff; opacity: 1;" id="p-type-functions"></path><path d="M31.239158268867364,-194.50736487509323A197,197,0,0,1,32.50301832601581,-194.30016417825973L28.148439570000853,-168.2688781378601A170.6070045455344,170.6070045455344,0,0,0,27.053904653681844,-168.44831920499976Z" fill-rule="evenodd" style="fill: #DB3F29; stroke: #fff; opacity: 1;" id="p-type-functions"></path><path d="M32.50301832601581,-194.30016417825973A197,197,0,0,1,33.76550463305477,-194.08475132496926L29.24178478382659,-168.08232513460885A170.6070045455344,170.6070045455344,0,0,0,28.148439570000853,-168.2688781378601Z" fill-rule="evenodd" style="fill: #DB3F29; stroke: #fff; opacity: 1;" id="p-type-functions"></path><path d="M33.76550463305477,-194.08475132496926A197,197,0,0,1,35.02656383061048,-193.86113541971267L30.33389408458585,-167.8886680799664A170.6070045455344,170.6070045455344,0,0,0,29.24178478382659,-168.08232513460885Z" fill-rule="evenodd" style="fill: #DB3F29; stroke: #fff; opacity: 1;" id="p-type-functions"></path><path d="M35.02656383061048,-193.86113541971267A197,197,0,0,1,36.28614261962639,-193.62932591368522L31.42472131394167,-167.6879151589079A170.6070045455344,170.6070045455344,0,0,0,30.33389408458585,-167.8886680799664Z" fill-rule="evenodd" style="fill: #DB3F29; stroke: #fff; opacity: 1;" id="p-type-functions"></path><path d="M36.28614261962639,-193.62932591368522A197,197,0,0,1,37.54418776361599,-193.38933260438733L32.514220367744315,-167.48007485631763A170.6070045455344,170.6070045455344,0,0,0,31.42472131394167,-167.6879151589079Z" fill-rule="evenodd" style="fill: #DB3F29; stroke: #fff; opacity: 1;" id="p-type-functions"></path><path d="M37.54418776361599,-193.38933260438733A197,197,0,0,1,38.800646090912636,-193.1411656352103L33.602345197979716,-167.26515595663014A170.6070045455344,170.6070045455344,0,0,0,32.514220367744315,-167.48007485631763Z" fill-rule="evenodd" style="fill: #DB3F29; stroke: #fff; opacity: 1;" id="p-type-functions"></path><path d="M38.800646090912636,-193.1411656352103A197,197,0,0,1,40.055464496917004,-192.88483549500782L34.689049814715794,-167.04316754345916A170.6070045455344,170.6070045455344,0,0,0,33.602345197979716,-167.26515595663014Z" fill-rule="evenodd" style="fill: #DB3F29; stroke: #fff; opacity: 1;" id="p-type-functions"></path><path d="M40.055464496917004,-192.88483549500782A197,197,0,0,1,41.308589946341556,-192.62035301765235L35.77428828804625,-166.81411899921346A170.6070045455344,170.6070045455344,0,0,0,34.689049814715794,-167.04316754345916Z" fill-rule="evenodd" style="fill: #DB3F29; stroke: #fff; opacity: 1;" id="p-type-functions"></path><path d="M41.308589946341556,-192.62035301765235A197,197,0,0,1,42.55996947545211,-192.34772938157752L36.85801475003179,-166.57802000470062A170.6070045455344,170.6070045455344,0,0,0,35.77428828804625,-166.81411899921346Z" fill-rule="evenodd" style="fill: #DB3F29; stroke: #fff; opacity: 1;" id="p-type-functions"></path><path d="M42.55996947545211,-192.34772938157752A197,197,0,0,1,43.809550194306304,-192.06697610930556L37.94018339663875,-166.33488053871747A170.6070045455344,170.6070045455344,0,0,0,36.85801475003179,-166.57802000470062Z" fill-rule="evenodd" style="fill: #DB3F29; stroke: #fff; opacity: 1;" id="p-type-functions"></path><path d="M43.809550194306304,-192.06697610930556A197,197,0,0,1,45.05727928898908,-191.77810506696022L39.02074848967499,-166.0847108776287A170.6070045455344,170.6070045455344,0,0,0,37.94018339663875,-166.33488053871747Z" fill-rule="evenodd" style="fill: #DB3F29; stroke: #fff; opacity: 1;" id="p-type-functions"></path><path d="M45.05727928898908,-191.77810506696022A197,197,0,0,1,46.30310402384483,-191.48112846376534L40.09966435872308,-165.82752159493234A170.6070045455344,170.6070045455344,0,0,0,39.02074848967499,-166.0847108776287Z" fill-rule="evenodd" style="fill: #DB3F29; stroke: #fff; opacity: 1;" id="p-type-functions"></path><path d="M46.30310402384483,-191.48112846376534A197,197,0,0,1,47.54697174370627,-191.17605885152878L41.17688540307052,-165.56332356081282A170.6070045455344,170.6070045455344,0,0,0,40.09966435872308,-165.82752159493234Z" fill-rule="evenodd" style="fill: #DB3F29; stroke: #fff; opacity: 1;" id="p-type-functions"></path><path d="M47.54697174370627,-191.17605885152878A197,197,0,0,1,48.78882987612009,-190.86290912411192L42.252366093637185,-165.29212794168166A170.6070045455344,170.6070045455344,0,0,0,41.17688540307052,-165.56332356081282Z" fill-rule="evenodd" style="fill: #DB3F29; stroke: #fff; opacity: 1;" id="p-type-functions"></path><path d="M48.78882987612009,-190.86290912411192A197,197,0,0,1,50.02862593356868,-190.54169251688475L43.32606097489945,-165.01394619970546A170.6070045455344,170.6070045455344,0,0,0,42.252366093637185,-165.29212794168166Z" fill-rule="evenodd" style="fill: #DB3F29; stroke: #fff; opacity: 1;" id="p-type-functions"></path><path d="M50.02862593356868,-190.54169251688475A197,197,0,0,1,51.266307515688695,-190.2124226061664L44.3979246668115,-164.72879009232153A170.6070045455344,170.6070045455344,0,0,0,43.32606097489945,-165.01394619970546Z" fill-rule="evenodd" style="fill: #DB3F29; stroke: #fff; opacity: 1;" id="p-type-functions"></path><path d="M51.266307515688695,-190.2124226061664A197,197,0,0,1,52.50182231148575,-189.87511330865132L45.4679118667233,-164.43667167174078A170.6070045455344,170.6070045455344,0,0,0,44.3979246668115,-164.72879009232153Z" fill-rule="evenodd" style="fill: #DB3F29; stroke: #fff; opacity: 1;" id="p-type-functions"></path><path d="M52.50182231148575,-189.87511330865132A197,197,0,0,1,53.735118101545346,-189.5297788808212L46.53597735129531,-164.13760328443854A170.6070045455344,170.6070045455344,0,0,0,45.4679118667233,-164.43667167174078Z" fill-rule="evenodd" style="fill: #DB3F29; stroke: #fff; opacity: 1;" id="p-type-functions"></path><path d="M53.735118101545346,-189.5297788808212A197,197,0,0,1,54.96614276024002,-189.17643391834224L47.602075978409964,-163.8315975706325A170.6070045455344,170.6070045455344,0,0,0,46.53597735129531,-164.13760328443854Z" fill-rule="evenodd" style="fill: #DB3F29; stroke: #fff; opacity: 1;" id="p-type-functions"></path><path d="M54.96614276024002,-189.17643391834224A197,197,0,0,1,56.19484425793228,-188.8150933554485L48.66616268907945,-163.51866746374876A170.6070045455344,170.6070045455344,0,0,0,47.602075978409964,-163.8315975706325Z" fill-rule="evenodd" style="fill: #DB3F29; stroke: #fff; opacity: 1;" id="p-type-functions"></path><path d="M56.19484425793228,-188.8150933554485A197,197,0,0,1,57.42117066317376,-188.44577246431047L49.728192509350215,-163.19882618987492A170.6070045455344,170.6070045455344,0,0,0,48.66616268907945,-163.51866746374876Z" fill-rule="evenodd" style="fill: #DB3F29; stroke: #fff; opacity: 1;" id="p-type-functions"></path><path d="M57.42117066317376,-188.44577246431047A197,197,0,0,1,58.6450701449002,-188.06848685438965L50.78812055220393,-162.87208726720118A170.6070045455344,170.6070045455344,0,0,0,49.728192509350215,-163.19882618987492Z" fill-rule="evenodd" style="fill: #DB3F29; stroke: #fff; opacity: 1;" id="p-type-functions"></path><path d="M58.6450701449002,-188.06848685438965A197,197,0,0,1,59.86649097462193,-187.68325247177893L51.84590201945441,-162.53846450544907A170.6070045455344,170.6070045455344,0,0,0,50.78812055220393,-162.87208726720118Z" fill-rule="evenodd" style="fill: #DB3F29; stroke: #fff; opacity: 1;" id="p-type-functions"></path><path d="M59.86649097462193,-187.68325247177893A197,197,0,0,1,61.085381528610284,-187.29008559852846L52.90149220364121,-162.19797200528768A170.6070045455344,170.6070045455344,0,0,0,51.84590201945441,-162.53846450544907Z" fill-rule="evenodd" style="fill: #DB3F29; stroke: #fff; opacity: 1;" id="p-type-functions"></path><path d="M61.085381528610284,-187.29008559852846A197,197,0,0,1,62.30169029007949,-186.8890028519576L53.954846489919134,-161.85062415773768A170.6070045455344,170.6070045455344,0,0,0,52.90149220364121,-162.19797200528768Z" fill-rule="evenodd" style="fill: #DB3F29; stroke: #fff; opacity: 1;" id="p-type-functions"></path><path d="M62.30169029007949,-186.8890028519576A197,197,0,0,1,63.515365851363995,-186.48002118395254L55.00592035794385,-161.49643564356316A170.6070045455344,170.6070045455344,0,0,0,53.954846489919134,-161.85062415773768Z" fill-rule="evenodd" style="fill: #DB3F29; stroke: #fff; opacity: 1;" id="p-type-functions"></path><path d="M63.515365851363995,-186.48002118395254A197,197,0,0,1,64.72635691609139,-186.06315788024975L56.05466938375374,-161.13542143265104A170.6070045455344,170.6070045455344,0,0,0,55.00592035794385,-161.49643564356316Z" fill-rule="evenodd" style="fill: #DB3F29; stroke: #fff; opacity: 1;" id="p-type-functions"></path><path d="M64.72635691609139,-186.06315788024975A197,197,0,0,1,65.93461230135021,-185.6384305597056L57.10104924164724,-160.7675967833785A170.6070045455344,170.6070045455344,0,0,0,56.05466938375374,-161.13542143265104Z" fill-rule="evenodd" style="fill: #DB3F29; stroke: #fff; opacity: 1;" id="p-type-functions"></path><path d="M65.93461230135021,-185.6384305597056A197,197,0,0,1,67.14008093985336,-185.20585717355146L58.1450157060564,-160.39297724196797A170.6070045455344,170.6070045455344,0,0,0,57.10104924164724,-160.7675967833785Z" fill-rule="evenodd" style="fill: #DB3F29; stroke: #fff; opacity: 1;" id="p-type-functions"></path><path d="M67.14008093985336,-185.20585717355146A197,197,0,0,1,68.34271188209652,-184.7654560046351L59.18652465341619,-160.01157864183003A170.6070045455344,170.6070045455344,0,0,0,58.1450157060564,-160.39297724196797Z" fill-rule="evenodd" style="fill: #DB3F29; stroke: #fff; opacity: 1;" id="p-type-functions"></path><path d="M68.34271188209652,-184.7654560046351A197,197,0,0,1,69.54245429851142,-184.31724566664795L60.22553206402921,-159.62341710289436A170.6070045455344,170.6070045455344,0,0,0,59.18652465341619,-160.01157864183003Z" fill-rule="evenodd" style="fill: #DB3F29; stroke: #fff; opacity: 1;" id="p-type-functions"></path><path d="M69.54245429851142,-184.31724566664795A197,197,0,0,1,70.7392574816142,-183.8612451033384L61.26199402392631,-159.22850903092828A170.6070045455344,170.6070045455344,0,0,0,60.22553206402921,-159.62341710289436Z" fill-rule="evenodd" style="fill: #DB3F29; stroke: #fff; opacity: 1;" id="p-type-functions"></path><path d="M70.7392574816142,-183.8612451033384A197,197,0,0,1,71.93307084814869,-183.3974735877112L62.2958667267226,-158.8268711168435A170.6070045455344,170.6070045455344,0,0,0,61.26199402392631,-159.22850903092828Z" fill-rule="evenodd" style="fill: #DB3F29; stroke: #fff; opacity: 1;" id="p-type-functions"></path><path d="M71.93307084814869,-183.3974735877112A197,197,0,0,1,73.12384394122412,-182.9259507212126L63.327106475468895,-158.41852033599045A170.6070045455344,170.6070045455344,0,0,0,62.2958667267226,-158.8268711168435Z" fill-rule="evenodd" style="fill: #DB3F29; stroke: #fff; opacity: 1;" id="p-type-functions"></path><path d="M73.12384394122412,-182.9259507212126A197,197,0,0,1,74.31152643244798,-182.44669643290226L64.35566968449875,-158.00347394744108A170.6070045455344,170.6070045455344,0,0,0,63.327106475468895,-158.41852033599045Z" fill-rule="evenodd" style="fill: #DB3F29; stroke: #fff; opacity: 1;" id="p-type-functions"></path><path d="M74.31152643244798,-182.44669643290226A197,197,0,0,1,75.49606812405287,-181.95973097861068L65.38151288127038,-157.58174949325914A170.6070045455344,170.6070045455344,0,0,0,64.35566968449875,-158.00347394744108Z" fill-rule="evenodd" style="fill: #DB3F29; stroke: #fff; opacity: 1;" id="p-type-functions"></path><path d="M75.49606812405287,-181.95973097861068A197,197,0,0,1,76.67741895101827,-181.46507494008324L66.40459270820416,-157.153364797759A170.6070045455344,170.6070045455344,0,0,0,65.38151288127038,-157.58174949325914Z" fill-rule="evenodd" style="fill: #DB3F29; stroke: #fff; opacity: 1;" id="p-type-functions"></path><path d="M76.67741895101827,-181.46507494008324A197,197,0,0,1,77.85552898318663,-180.96274922411018L67.42486592451526,-156.71833796675213A170.6070045455344,170.6070045455344,0,0,0,66.40459270820416,-157.153364797759Z" fill-rule="evenodd" style="fill: #DB3F29; stroke: #fff; opacity: 1;" id="p-type-functions"></path><path d="M77.85552898318663,-180.96274922411018A197,197,0,0,1,79.0303484273735,-180.45277506164305L68.442289408041,-156.2766873867819A170.6070045455344,170.6070045455344,0,0,0,67.42486592451526,-156.71833796675213Z" fill-rule="evenodd" style="fill: #DB3F29; stroke: #fff; opacity: 1;" id="p-type-functions"></path><path d="M79.0303484273735,-180.45277506164305A197,197,0,0,1,80.20182762947216,-179.93517400689737L69.45682015706358,-155.82843172434653A170.6070045455344,170.6070045455344,0,0,0,68.442289408041,-156.2766873867819Z" fill-rule="evenodd" style="fill: #DB3F29; stroke: #fff; opacity: 1;" id="p-type-functions"></path><path d="M80.20182762947216,-179.93517400689737A197,197,0,0,1,81.3699170765523,-179.4099679364416L70.46841529212749,-155.37358992511002A170.6070045455344,170.6070045455344,0,0,0,69.45682015706358,-155.82843172434653Z" fill-rule="evenodd" style="fill: #DB3F29; stroke: #fff; opacity: 1;" id="p-type-functions"></path><path d="M81.3699170765523,-179.4099679364416A197,197,0,0,1,82.53456739895257,-178.87717904827255L71.47703205785187,-154.91218121310155A170.6070045455344,170.6070045455344,0,0,0,70.46841529212749,-155.37358992511002Z" fill-rule="evenodd" style="fill: #DB3F29; stroke: #fff; opacity: 1;" id="p-type-functions"></path><path d="M82.53456739895257,-178.87717904827255A197,197,0,0,1,83.69572937236742,-178.33682986087712L72.4826278247376,-154.44422508990283A170.6070045455344,170.6070045455344,0,0,0,71.47703205785187,-154.91218121310155Z" fill-rule="evenodd" style="fill: #DB3F29; stroke: #fff; opacity: 1;" id="p-type-functions"></path><path d="M83.69572937236742,-178.33682986087712A197,197,0,0,1,84.85335391992734,-177.78894321228063L73.48516009096896,-153.96974133382398A170.6070045455344,170.6070045455344,0,0,0,72.4826278247376,-154.44422508990283Z" fill-rule="evenodd" style="fill: #DB3F29; stroke: #fff; opacity: 1;" id="p-type-functions"></path><path d="M84.85335391992734,-177.78894321228063A197,197,0,0,1,86.0073921142732,-177.2335422590816L74.48458648421,-153.4887499990675A170.6070045455344,170.6070045455344,0,0,0,73.48516009096896,-153.96974133382398Z" fill-rule="evenodd" style="fill: #DB3F29; stroke: #fff; opacity: 1;" id="p-type-functions"></path><path d="M86.0073921142732,-177.2335422590816A197,197,0,0,1,87.15779517962433,-176.67065047547274L75.48086476339556,-153.0012714148807A170.6070045455344,170.6070045455344,0,0,0,74.48458648421,-153.4887499990675Z" fill-rule="evenodd" style="fill: #DB3F29; stroke: #fff; opacity: 1;" id="p-type-functions"></path><path d="M87.15779517962433,-176.67065047547274A197,197,0,0,1,88.30451449383975,-176.10029165224924L76.47395282051637,-152.50732618469655A170.6070045455344,170.6070045455344,0,0,0,75.48086476339556,-153.0012714148807Z" fill-rule="evenodd" style="fill: #DB3F29; stroke: #fff; opacity: 1;" id="p-type-functions"></path><path d="M88.30451449383975,-176.10029165224924A197,197,0,0,1,89.44750159047346,-175.52248989580295L77.46380868239899,-152.0069351852628A170.6070045455344,170.6070045455344,0,0,0,76.47395282051637,-152.50732618469655Z" fill-rule="evenodd" style="fill: #DB3F29; stroke: #fff; opacity: 1;" id="p-type-functions"></path><path d="M89.44750159047346,-175.52248989580295A197,197,0,0,1,90.58670816082275,-174.93726962710355L78.45039051247961,-151.50011956575958A170.6070045455344,170.6070045455344,0,0,0,77.46380868239899,-152.0069351852628Z" fill-rule="evenodd" style="fill: #DB3F29; stroke: #fff; opacity: 1;" id="p-type-functions"></path><path d="M90.58670816082275,-174.93726962710355A197,197,0,0,1,91.72208605597,-174.34465558066654L79.43365661257245,-150.9869007469056A170.6070045455344,170.6070045455344,0,0,0,78.45039051247961,-151.50011956575958Z" fill-rule="evenodd" style="fill: #DB3F29; stroke: #fff; opacity: 1;" id="p-type-functions"></path><path d="M91.72208605597,-174.34465558066654A197,197,0,0,1,92.85358728881782,-173.7446728035075L80.41356542463207,-150.46730042005277A170.6070045455344,170.6070045455344,0,0,0,79.43365661257245,-150.9869007469056Z" fill-rule="evenodd" style="fill: #DB3F29; stroke: #fff; opacity: 1;" id="p-type-functions"></path><path d="M92.85358728881782,-173.7446728035075A197,197,0,0,1,93.98116403611708,-173.13734665408398L81.39007553250985,-149.9413405462694A170.6070045455344,170.6070045455344,0,0,0,80.41356542463207,-150.46730042005277Z" fill-rule="evenodd" style="fill: #DB3F29; stroke: #fff; opacity: 1;" id="p-type-functions"></path><path d="M93.98116403611708,-173.13734665408398A197,197,0,0,1,95.1047686404882,-172.5227028012233L82.36314566370442,-149.40904335541208A170.6070045455344,170.6070045455344,0,0,0,81.39007553250985,-149.9413405462694Z" fill-rule="evenodd" style="fill: #DB3F29; stroke: #fff; opacity: 1;" id="p-type-functions"></path><path d="M95.1047686404882,-172.5227028012233A197,197,0,0,1,96.22435361243562,-171.90076722303758L83.33273469110617,-148.8704313451859A170.6070045455344,170.6070045455344,0,0,0,82.36314566370442,-149.40904335541208Z" fill-rule="evenodd" style="fill: #DB3F29; stroke: #fff; opacity: 1;" id="p-type-functions"></path><path d="M96.22435361243562,-171.90076722303758A197,197,0,0,1,97.33987163235453,-171.2715662058263L84.29880163473526,-148.32552728019394A170.6070045455344,170.6070045455344,0,0,0,83.33273469110617,-148.8704313451859Z" fill-rule="evenodd" style="fill: #DB3F29; stroke: #fff; opacity: 1;" id="p-type-functions"></path><path d="M97.33987163235453,-171.2715662058263A197,197,0,0,1,98.45127555253136,-170.63512634296475L85.261305663474,-147.77435419097475A170.6070045455344,170.6070045455344,0,0,0,84.29880163473526,-148.32552728019394Z" fill-rule="evenodd" style="fill: #DB3F29; stroke: #fff; opacity: 1;" id="p-type-functions"></path><path d="M98.45127555253136,-170.63512634296475A197,197,0,0,1,99.55851839913602,-169.99147453378038L86.22020609679223,-147.21693537302926A170.6070045455344,170.6070045455344,0,0,0,85.261305663474,-147.77435419097475Z" fill-rule="evenodd" style="fill: #DB3F29; stroke: #fff; opacity: 1;" id="p-type-functions"></path><path d="M99.55851839913602,-169.99147453378038A197,197,0,0,1,100.66155337420766,-169.34063798241561L87.175462406467,-146.65329438583595A170.6070045455344,170.6070045455344,0,0,0,86.22020609679223,-147.21693537302926Z" fill-rule="evenodd" style="fill: #DB3F29; stroke: #fff; opacity: 1;" id="p-type-functions"></path><path d="M100.66155337420766,-169.34063798241561A197,197,0,0,1,101.76033385763225,-168.68264419667847L88.12703421829525,-146.08345505185525A170.6070045455344,170.6070045455344,0,0,0,87.175462406467,-146.65329438583595Z" fill-rule="evenodd" style="fill: #DB3F29; stroke: #fff; opacity: 1;" id="p-type-functions"></path><path d="M101.76033385763225,-168.68264419667847A197,197,0,0,1,102.85481340911339,-168.01752098687942L89.0748813138005,-145.50744145552264A170.6070045455344,170.6070045455344,0,0,0,88.12703421829525,-146.08345505185525Z" fill-rule="evenodd" style="fill: #DB3F29; stroke: #fff; opacity: 1;" id="p-type-functions"></path><path d="M102.85481340911339,-168.01752098687942A197,197,0,0,1,103.94494577013457,-167.3452964646565L90.01896363193237,-144.92527794223074A170.6070045455344,170.6070045455344,0,0,0,89.0748813138005,-145.50744145552264Z" fill-rule="evenodd" style="fill: #DB3F29; stroke: #fff; opacity: 1;" id="p-type-functions"></path><path d="M103.94494577013457,-167.3452964646565A197,197,0,0,1,105.03068486591502,-166.6659990417867L90.95924127076019,-144.3369891173002A170.6070045455344,170.6070045455344,0,0,0,90.01896363193237,-144.92527794223074Z" fill-rule="evenodd" style="fill: #DB3F29; stroke: #fff; opacity: 1;" id="p-type-functions"></path><path d="M105.03068486591502,-166.6659990417867A197,197,0,0,1,106.1119848073563,-165.97965742898552L91.89567448915896,-143.74259984493997A170.6070045455344,170.6070045455344,0,0,0,90.95924127076019,-144.3369891173002Z" fill-rule="evenodd" style="fill: #DB3F29; stroke: #fff; opacity: 1;" id="p-type-functions"></path><path d="M106.1119848073563,-165.97965742898552A197,197,0,0,1,107.18879989298252,-165.28630063469313L92.82822370848957,-143.14213524719622A170.6070045455344,170.6070045455344,0,0,0,91.89567448915896,-143.74259984493997Z" fill-rule="evenodd" style="fill: #DB3F29; stroke: #fff; opacity: 1;" id="p-type-functions"></path><path d="M107.18879989298252,-165.28630063469313A197,197,0,0,1,108.2610846108714,-164.58595796384864L93.75684951427117,-142.53562070289064A170.6070045455344,170.6070045455344,0,0,0,92.82822370848957,-143.14213524719622Z" fill-rule="evenodd" style="fill: #DB3F29; stroke: #fff; opacity: 1;" id="p-type-functions"></path><path d="M108.2610846108714,-164.58595796384864A197,197,0,0,1,109.32879364057808,-163.87865901665137L94.68151265784721,-141.92308184654783A170.6070045455344,170.6070045455344,0,0,0,93.75684951427117,-142.53562070289064Z" fill-rule="evenodd" style="fill: #DB3F29; stroke: #fff; opacity: 1;" id="p-type-functions"></path><path d="M109.32879364057808,-163.87865901665137A197,197,0,0,1,110.3918818550507,-163.16443368730984L95.60217405804433,-141.30454456731178A170.6070045455344,170.6070045455344,0,0,0,94.68151265784721,-141.92308184654783Z" fill-rule="evenodd" style="fill: #DB3F29; stroke: #fff; opacity: 1;" id="p-type-functions"></path><path d="M110.3918818550507,-163.16443368730984A197,197,0,0,1,111.45030432253742,-162.44331216277817L96.51879480282403,-140.6800350078516A170.6070045455344,170.6070045455344,0,0,0,95.60217405804433,-141.30454456731178Z" fill-rule="evenodd" style="fill: #DB3F29; stroke: #fff; opacity: 1;" id="p-type-functions"></path><path d="M111.45030432253742,-162.44331216277817A197,197,0,0,1,112.50401630848576,-161.71532492148037L97.43133615092745,-140.0495795632567A170.6070045455344,170.6070045455344,0,0,0,96.51879480282403,-140.6800350078516Z" fill-rule="evenodd" style="fill: #DB3F29; stroke: #fff; opacity: 1;" id="p-type-functions"></path><path d="M112.50401630848576,-161.71532492148037A197,197,0,0,1,113.55297327743314,-160.98050273202205L98.3397595335126,-139.4132048799213A170.6070045455344,170.6070045455344,0,0,0,97.43133615092745,-140.0495795632567Z" fill-rule="evenodd" style="fill: #DB3F29; stroke: #fff; opacity: 1;" id="p-type-functions"></path><path d="M113.55297327743314,-160.98050273202205A197,197,0,0,1,114.59713089488925,-160.23887665189002L99.24402655578463,-138.7709378544179A170.6070045455344,170.6070045455344,0,0,0,98.3397595335126,-139.4132048799213Z" fill-rule="evenodd" style="fill: #DB3F29; stroke: #fff; opacity: 1;" id="p-type-functions"></path><path d="M114.59713089488925,-160.23887665189002A197,197,0,0,1,115.63644502920982,-159.49047802613964L100.14409899861847,-138.12280563236072A170.6070045455344,170.6070045455344,0,0,0,99.24402655578463,-138.7709378544179Z" fill-rule="evenodd" style="fill: #DB3F29; stroke: #fff; opacity: 1;" id="p-type-functions"></path><path d="M115.63644502920982,-159.49047802613964A197,197,0,0,1,116.67087175346198,-158.73533848607005L101.03993882017437,-137.46883560725834A170.6070045455344,170.6070045455344,0,0,0,100.14409899861847,-138.12280563236072Z" fill-rule="evenodd" style="fill: #DB3F29; stroke: #fff; opacity: 1;" id="p-type-functions"></path><path d="M116.67087175346198,-158.73533848607005A197,197,0,0,1,117.70036734728068,-157.9734899478871L101.9315081575055,-136.80905541935587A170.6070045455344,170.6070045455344,0,0,0,101.03993882017437,-137.46883560725834Z" fill-rule="evenodd" style="fill: #DB3F29; stroke: #fff; opacity: 1;" id="p-type-functions"></path><path d="M117.70036734728068,-157.9734899478871A197,197,0,0,1,118.72488829871662,-157.20496461135465L102.81876932815844,-136.14349295446678A170.6070045455344,170.6070045455344,0,0,0,101.9315081575055,-136.80905541935587Z" fill-rule="evenodd" style="fill: #DB3F29; stroke: #fff; opacity: 1;" id="p-type-functions"></path><path d="M118.72488829871662,-157.20496461135465A197,197,0,0,1,119.74439130607536,-156.42979495843338L103.70168483176573,-135.4721763427942A170.6070045455344,170.6070045455344,0,0,0,102.81876932815844,-136.14349295446678Z" fill-rule="evenodd" style="fill: #DB3F29; stroke: #fff; opacity: 1;" id="p-type-functions"></path><path d="M119.74439130607536,-156.42979495843338A197,197,0,0,1,120.75883327974735,-155.64801375190814L104.5802173516309,-134.79513395774208A170.6070045455344,170.6070045455344,0,0,0,103.70168483176573,-135.4721763427942Z" fill-rule="evenodd" style="fill: #DB3F29; stroke: #fff; opacity: 1;" id="p-type-functions"></path><path d="M120.75883327974735,-155.64801375190814A197,197,0,0,1,121.76817134402923,-154.8596540340031L105.45432975630563,-134.11239441471602A170.6070045455344,170.6070045455344,0,0,0,104.5802173516309,-134.79513395774208Z" fill-rule="evenodd" style="fill: #DB3F29; stroke: #fff; opacity: 1;" id="p-type-functions"></path><path d="M121.76817134402923,-154.8596540340031A197,197,0,0,1,122.77236283893595,-154.0647491249853L106.32398510115911,-133.42398656991364A170.6070045455344,170.6070045455344,0,0,0,105.45432975630563,-134.11239441471602Z" fill-rule="evenodd" style="fill: #DB3F29; stroke: #fff; opacity: 1;" id="p-type-functions"></path><path d="M122.77236283893595,-154.0647491249853A197,197,0,0,1,123.77136532200375,-153.2633326217562L107.18914662993956,-132.72993951910516A170.6070045455344,170.6070045455344,0,0,0,106.32398510115911,-133.42398656991364Z" fill-rule="evenodd" style="fill: #DB3F29; stroke: #fff; opacity: 1;" id="p-type-functions"></path><path d="M123.77136532200375,-153.2633326217562A197,197,0,0,1,124.76513657008414,-152.45543839643193L108.04977777632774,-132.03028259640357A170.6070045455344,170.6070045455344,0,0,0,107.18914662993956,-132.72993951910516Z" fill-rule="evenodd" style="fill: #DB3F29; stroke: #fff; opacity: 1;" id="p-type-functions"></path><path d="M124.76513657008414,-152.45543839643193A197,197,0,0,1,125.75363458112834,-151.64110059491142L108.90584216548241,-131.32504537302484A170.6070045455344,170.6070045455344,0,0,0,108.04977777632774,-132.03028259640357Z" fill-rule="evenodd" style="fill: #DB3F29; stroke: #fff; opacity: 1;" id="p-type-functions"></path><path d="M196.32802751798292,-16.25747861441449A197,197,0,0,1,196.42957078140836,-14.980778438775555L170.11299835117313,-12.973734696445812A170.6070045455344,170.6070045455344,0,0,0,170.02505930546351,-14.079389481565185Z" fill-rule="evenodd" style="fill: #1DC690; stroke: #fff; opacity: 1;" id="p-type-logs"></path><path d="M196.42957078140836,-14.980778438775555A197,197,0,0,1,196.52281188834905,-13.703445095908446L170.19374751846075,-11.867531572421997A170.6070045455344,170.6070045455344,0,0,0,170.11299835117313,-12.973734696445812Z" fill-rule="evenodd" style="fill: #1DC690; stroke: #fff; opacity: 1;" id="p-type-logs"></path><path d="M196.52281188834905,-13.703445095908446A197,197,0,0,1,196.60774689794076,-12.425532572701464L170.26730339443787,-10.760826863510479A170.6070045455344,170.6070045455344,0,0,0,170.19374751846075,-11.867531572421997Z" fill-rule="evenodd" style="fill: #1DC690; stroke: #fff; opacity: 1;" id="p-type-logs"></path><path d="M196.60774689794076,-12.425532572701464A197,197,0,0,1,196.6843722203791,-11.147094880522138L170.33366287024265,-9.653667344927634A170.6070045455344,170.6070045455344,0,0,0,170.26730339443787,-10.760826863510479Z" fill-rule="evenodd" style="fill: #1DC690; stroke: #fff; opacity: 1;" id="p-type-logs"></path><path d="M196.6843722203791,-11.147094880522138A197,197,0,0,1,196.75268461707117,-9.868186052934428L170.39282314117136,-8.546099811112503A170.6070045455344,170.6070045455344,0,0,0,170.33366287024265,-9.653667344927634Z" fill-rule="evenodd" style="fill: #1DC690; stroke: #fff; opacity: 1;" id="p-type-logs"></path><path d="M196.75268461707117,-9.868186052934428A197,197,0,0,1,196.81268120077237,-8.58886014341498L170.44478170679687,-7.438171073749029A170.6070045455344,170.6070045455344,0,0,0,170.39282314117136,-8.546099811112503Z" fill-rule="evenodd" style="fill: #1DC690; stroke: #fff; opacity: 1;" id="p-type-logs"></path><path d="M196.81268120077237,-8.58886014341498A197,197,0,0,1,196.8643594357086,-7.30917122306853L170.4895363710744,-6.329927959787523A170.6070045455344,170.6070045455344,0,0,0,170.44478170679687,-7.438171073749029Z" fill-rule="evenodd" style="fill: #1DC690; stroke: #fff; opacity: 1;" id="p-type-logs"></path><path d="M196.8643594357086,-7.30917122306853A197,197,0,0,1,196.90771713768328,-6.029173378342588L170.5270852424342,-5.221417309465528A170.6070045455344,170.6070045455344,0,0,0,170.4895363710744,-6.329927959787523Z" fill-rule="evenodd" style="fill: #1DC690; stroke: #fff; opacity: 1;" id="p-type-logs"></path><path d="M196.90771713768328,-6.029173378342588A197,197,0,0,1,196.94275247416974,-4.748920708741442L170.5574267338616,-4.112685974328089A170.6070045455344,170.6070045455344,0,0,0,170.5270852424342,-5.221417309465528Z" fill-rule="evenodd" style="fill: #1DC690; stroke: #fff; opacity: 1;" id="p-type-logs"></path><path d="M196.94275247416974,-4.748920708741442A197,197,0,0,1,196.96946396438867,-3.4684673245396325L170.5805595629641,-3.0037808152475667A170.6070045455344,170.6070045455344,0,0,0,170.5574267338616,-4.112685974328089Z" fill-rule="evenodd" style="fill: #1DC690; stroke: #fff; opacity: 1;" id="p-type-logs"></path><path d="M196.96946396438867,-3.4684673245396325A197,197,0,0,1,196.98785047937065,-2.187867344494966L170.5964827520256,-1.8947487004430403A170.6070045455344,170.6070045455344,0,0,0,170.5805595629641,-3.0037808152475667Z" fill-rule="evenodd" style="fill: #1DC690; stroke: #fff; opacity: 1;" id="p-type-logs"></path><path d="M196.98785047937065,-2.187867344494966A197,197,0,0,1,196.99791124200402,-0.9071748935611685L170.60519562804754,-0.7856365034994162A170.6070045455344,170.6070045455344,0,0,0,170.5964827520256,-1.8947487004430403Z" fill-rule="evenodd" style="fill: #1DC690; stroke: #fff; opacity: 1;" id="p-type-logs"></path><path d="M196.99791124200402,-0.9071748935611685A197,197,0,0,1,196.99964582706747,0.3735558993997254L170.6066978227775,0.3235088986137063A170.6070045455344,170.6070045455344,0,0,0,170.60519562804754,-0.7856365034994162Z" fill-rule="evenodd" style="fill: #1DC690; stroke: #fff; opacity: 1;" id="p-type-logs"></path><path d="M196.99964582706747,0.3735558993997254A197,197,0,0,1,196.99305416124827,1.6542709039051424L170.60098927272483,1.4326406275232992A170.6070045455344,170.6070045455344,0,0,0,170.6066978227775,0.3235088986137063Z" fill-rule="evenodd" style="fill: #1DC690; stroke: #fff; opacity: 1;" id="p-type-logs"></path><path d="M196.99305416124827,1.6542709039051424A197,197,0,0,1,196.97813652314517,2.9349159901398134L170.5880702191631,2.5417118054342374A170.6070045455344,170.6070045455344,0,0,0,170.60098927272483,1.4326406275232992Z" fill-rule="evenodd" style="fill: #1DC690; stroke: #fff; opacity: 1;" id="p-type-logs"></path><path d="M196.97813652314517,2.9349159901398134A197,197,0,0,1,196.95489354325682,4.215437031243586L170.5679412081201,3.650675557110602A170.6070045455344,170.6070045455344,0,0,0,170.5880702191631,2.5417118054342374Z" fill-rule="evenodd" style="fill: #1DC690; stroke: #fff; opacity: 1;" id="p-type-logs"></path><path d="M196.95489354325682,4.215437031243586A197,197,0,0,1,196.92332620395484,5.4957799055991154L170.54060309035472,4.759485011856878A170.6070045455344,170.6070045455344,0,0,0,170.5679412081201,3.650675557110602Z" fill-rule="evenodd" style="fill: #1DC690; stroke: #fff; opacity: 1;" id="p-type-logs"></path><path d="M196.92332620395484,5.4957799055991154A197,197,0,0,1,196.88343583944268,6.775890499119327L170.50605702132097,5.868093305498957A170.6070045455344,170.6070045455344,0,0,0,170.54060309035472,4.759485011856878Z" fill-rule="evenodd" style="fill: #1DC690; stroke: #fff; opacity: 1;" id="p-type-logs"></path><path d="M196.88343583944268,6.775890499119327A197,197,0,0,1,196.83522413569887,8.055714707534568L170.4643044611191,6.976453582364866A170.6070045455344,170.6070045455344,0,0,0,170.50605702132097,5.868093305498957Z" fill-rule="evenodd" style="fill: #1DC690; stroke: #fff; opacity: 1;" id="p-type-logs"></path><path d="M196.83522413569887,8.055714707534568A197,197,0,0,1,196.77869313040597,9.335198438679344L170.41534717443398,8.08451899726514A170.6070045455344,170.6070045455344,0,0,0,170.4643044611191,6.976453582364866Z" fill-rule="evenodd" style="fill: #1DC690; stroke: #fff; opacity: 1;" id="p-type-logs"></path><path d="M196.77869313040597,9.335198438679344A197,197,0,0,1,196.71384521286436,10.614287614778533L170.3591872304604,9.192242717472745A170.6070045455344,170.6070045455344,0,0,0,170.41534717443398,8.08451899726514Z" fill-rule="evenodd" style="fill: #1DC690; stroke: #fff; opacity: 1;" id="p-type-logs"></path><path d="M196.71384521286436,10.614287614778533A197,197,0,0,1,196.64068312389134,11.892928174733003L170.29582700281583,10.299577924702476A170.6070045455344,170.6070045455344,0,0,0,170.3591872304604,9.192242717472745Z" fill-rule="evenodd" style="fill: #1DC690; stroke: #fff; opacity: 1;" id="p-type-logs"></path><path d="M196.64068312389134,11.892928174733003A197,197,0,0,1,196.55920995570517,13.171066076404532L170.2252691694398,11.406477817089756A170.6070045455344,170.6070045455344,0,0,0,170.29582700281583,10.299577924702476Z" fill-rule="evenodd" style="fill: #1DC690; stroke: #fff; opacity: 1;" id="p-type-logs"></path><path d="M196.55920995570517,13.171066076404532A197,197,0,0,1,196.4694291517945,14.448647298899887L170.14751671248098,12.512895611168714A170.6070045455344,170.6070045455344,0,0,0,170.2252691694398,11.406477817089756Z" fill-rule="evenodd" style="fill: #1DC690; stroke: #fff; opacity: 1;" id="p-type-logs"></path><path d="M196.4694291517945,14.448647298899887A197,197,0,0,1,196.3713445067727,15.725617844854076L170.06257291817093,13.618784543849523A170.6070045455344,170.6070045455344,0,0,0,170.14751671248098,12.512895611168714Z" fill-rule="evenodd" style="fill: #1DC690; stroke: #fff; opacity: 1;" id="p-type-logs"></path><path d="M196.3713445067727,15.725617844854076A197,197,0,0,1,196.2649601662176,17.001923742712517L169.97044137668536,14.724097874394841A170.6070045455344,170.6070045455344,0,0,0,170.06257291817093,13.618784543849523Z" fill-rule="evenodd" style="fill: #1DC690; stroke: #fff; opacity: 1;" id="p-type-logs"></path><path d="M196.2649601662176,17.001923742712517A197,197,0,0,1,196.15028062649628,18.277511049012197L169.87112598199238,15.828788886395328A170.6070045455344,170.6070045455344,0,0,0,169.97044137668536,14.724097874394841Z" fill-rule="evenodd" style="fill: #1DC690; stroke: #fff; opacity: 1;" id="p-type-logs"></path><path d="M196.15028062649628,18.277511049012197A197,197,0,0,1,196.0273107345748,19.552325850661603L169.76463093168778,16.932810889744133A170.6070045455344,170.6070045455344,0,0,0,169.87112598199238,15.828788886395328Z" fill-rule="evenodd" style="fill: #1DC690; stroke: #fff; opacity: 1;" id="p-type-logs"></path><path d="M196.0273107345748,19.552325850661603A197,197,0,0,1,195.8960556878137,20.826314267219356L169.65096072681774,18.036117222610258A170.6070045455344,170.6070045455344,0,0,0,169.76463093168778,16.932810889744133Z" fill-rule="evenodd" style="fill: #1DC690; stroke: #fff; opacity: 1;" id="p-type-logs"></path><path d="M195.8960556878137,20.826314267219356A197,197,0,0,1,195.7565210337481,22.099422453171503L169.53012017168865,19.13866125341074A170.6070045455344,170.6070045455344,0,0,0,169.65096072681774,18.036117222610258Z" fill-rule="evenodd" style="fill: #1DC690; stroke: #fff; opacity: 1;" id="p-type-logs"></path><path d="M195.7565210337481,22.099422453171503A197,197,0,0,1,195.60871266985316,23.37159660020731L169.40211437366384,20.24039638278155A170.6070045455344,170.6070045455344,0,0,0,169.53012017168865,19.13866125341074Z" fill-rule="evenodd" style="fill: #1DC690; stroke: #fff; opacity: 1;" id="p-type-logs"></path><path d="M195.60871266985316,23.37159660020731A197,197,0,0,1,195.45263684329512,24.642782939493497L169.2669487429479,21.34127604554713A170.6070045455344,170.6070045455344,0,0,0,169.40211437366384,20.24039638278155Z" fill-rule="evenodd" style="fill: #1DC690; stroke: #fff; opacity: 1;" id="p-type-logs"></path><path d="M195.45263684329512,24.642782939493497A197,197,0,0,1,195.28830015066697,25.912927743946756L169.124628992358,22.44125371268847A170.6070045455344,170.6070045455344,0,0,0,169.2669487429479,21.34127604554713Z" fill-rule="evenodd" style="fill: #1DC690; stroke: #fff; opacity: 1;" id="p-type-logs"></path><path d="M195.28830015066697,25.912927743946756A197,197,0,0,1,195.1157095377098,27.181977330504605L168.97516113708235,23.54028289330971A170.6070045455344,170.6070045455344,0,0,0,169.124628992358,22.44125371268847Z" fill-rule="evenodd" style="fill: #1DC690; stroke: #fff; opacity: 1;" id="p-type-logs"></path><path d="M195.1157095377098,27.181977330504605A197,197,0,0,1,194.93487229901913,28.449878062394262L168.81855149442603,24.638317136603032A170.6070045455344,170.6070045455344,0,0,0,168.97516113708235,23.54028289330971Z" fill-rule="evenodd" style="fill: #1DC690; stroke: #fff; opacity: 1;" id="p-type-logs"></path><path d="M194.93487229901913,28.449878062394262A197,197,0,0,1,194.74579607773677,29.716576351399645L168.65480668354394,25.735310033811977A170.6070045455344,170.6070045455344,0,0,0,168.81855149442603,24.638317136603032Z" fill-rule="evenodd" style="fill: #1DC690; stroke: #fff; opacity: 1;" id="p-type-logs"></path><path d="M194.74579607773677,29.716576351399645A197,197,0,0,1,194.5484888652276,30.9820186601263L168.4839336251611,26.83121522019289A170.6070045455344,170.6070045455344,0,0,0,168.65480668354394,25.735310033811977Z" fill-rule="evenodd" style="fill: #1DC690; stroke: #fff; opacity: 1;" id="p-type-logs"></path><path d="M194.5484888652276,30.9820186601263A197,197,0,0,1,194.3429590007419,32.246151504264155L168.3059395412801,27.92598637697455A170.6070045455344,170.6070045455344,0,0,0,168.4839336251611,26.83121522019289Z" fill-rule="evenodd" style="fill: #1DC690; stroke: #fff; opacity: 1;" id="p-type-logs"></path><path d="M194.3429590007419,32.246151504264155A197,197,0,0,1,194.12921517106287,33.50892145484808L168.12083195487588,29.019577233315843A170.6070045455344,170.6070045455344,0,0,0,168.3059395412801,27.92598637697455Z" fill-rule="evenodd" style="fill: #1DC690; stroke: #fff; opacity: 1;" id="p-type-logs"></path><path d="M194.12921517106287,33.50892145484808A197,197,0,0,1,193.9072664101395,34.77027514051604L167.92861868957777,30.111941568261436A170.6070045455344,170.6070045455344,0,0,0,168.12083195487588,29.019577233315843Z" fill-rule="evenodd" style="fill: #1DC690; stroke: #fff; opacity: 1;" id="p-type-logs"></path><path d="M193.9072664101395,34.77027514051604A197,197,0,0,1,193.67712209870473,36.03015924976491L167.72930786933878,31.203033212695278A170.6070045455344,170.6070045455344,0,0,0,167.92861868957777,30.111941568261436Z" fill-rule="evenodd" style="fill: #1DC690; stroke: #fff; opacity: 1;" id="p-type-logs"></path><path d="M193.67712209870473,36.03015924976491A197,197,0,0,1,193.438791963879,37.288520533203624L167.52290791809233,32.292806051292A170.6070045455344,170.6070045455344,0,0,0,167.72930786933878,31.203033212695278Z" fill-rule="evenodd" style="fill: #1DC690; stroke: #fff; opacity: 1;" id="p-type-logs"></path><path d="M193.438791963879,37.288520533203624A197,197,0,0,1,193.192286078759,38.545305805803835L167.30942755939606,33.38121402446593A170.6070045455344,170.6070045455344,0,0,0,167.52290791809233,32.292806051292Z" fill-rule="evenodd" style="fill: #1DC690; stroke: #fff; opacity: 1;" id="p-type-logs"></path><path d="M193.192286078759,38.545305805803835A197,197,0,0,1,192.93761486199222,39.8004619491478L167.0888758160633,34.46821113031791A170.6070045455344,170.6070045455344,0,0,0,167.30942755939606,33.38121402446593Z" fill-rule="evenodd" style="fill: #1DC690; stroke: #fff; opacity: 1;" id="p-type-logs"></path><path d="M192.93761486199222,39.8004619491478A197,197,0,0,1,192.67478907733621,41.05393591367341L166.86126200978163,35.55375142657948A170.6070045455344,170.6070045455344,0,0,0,167.0888758160633,34.46821113031791Z" fill-rule="evenodd" style="fill: #1DC690; stroke: #fff; opacity: 1;" id="p-type-logs"></path><path d="M192.67478907733621,41.05393591367341A197,197,0,0,1,192.40381983320398,42.30567472091636L166.62659576071886,36.63778903255471A170.6070045455344,170.6070045455344,0,0,0,166.86126200978163,35.55375142657948Z" fill-rule="evenodd" style="fill: #1DC690; stroke: #fff; opacity: 1;" id="p-type-logs"></path><path d="M192.40381983320398,42.30567472091636A197,197,0,0,1,192.12471858219433,43.5556254657493L166.3848869871165,37.72027813105932A170.6070045455344,170.6070045455344,0,0,0,166.62659576071886,36.63778903255471Z" fill-rule="evenodd" style="fill: #1DC690; stroke: #fff; opacity: 1;" id="p-type-logs"></path><path d="M192.12471858219433,43.5556254657493A197,197,0,0,1,191.83749712060788,44.80373531861791L166.13614590487052,38.80117297035719A170.6070045455344,170.6070045455344,0,0,0,166.3848869871165,37.72027813105932Z" fill-rule="evenodd" style="fill: #1DC690; stroke: #fff; opacity: 1;" id="p-type-logs"></path><path d="M191.83749712060788,44.80373531861791A197,197,0,0,1,191.54216758794834,46.04995152777373L165.88038302709958,39.88042786609407A170.6070045455344,170.6070045455344,0,0,0,166.13614590487052,38.80117297035719Z" fill-rule="evenodd" style="fill: #1DC690; stroke: #fff; opacity: 1;" id="p-type-logs"></path><path d="M191.54216758794834,46.04995152777373A197,197,0,0,1,191.23874246640972,47.29422142150372L165.61760916370073,40.95799720322841A170.6070045455344,170.6070045455344,0,0,0,165.88038302709958,39.88042786609407Z" fill-rule="evenodd" style="fill: #1DC690; stroke: #fff; opacity: 1;" id="p-type-logs"></path><path d="M191.23874246640972,47.29422142150372A197,197,0,0,1,190.92723458034845,48.53649241035649L165.3478354208925,42.03383543795932A170.6070045455344,170.6070045455344,0,0,0,165.61760916370073,40.95799720322841Z" fill-rule="evenodd" style="fill: #1DC690; stroke: #fff; opacity: 1;" id="p-type-logs"></path><path d="M190.92723458034845,48.53649241035649A197,197,0,0,1,190.6076570957416,49.77671198936495L165.07107320074545,43.10789709965149A170.6070045455344,170.6070045455344,0,0,0,165.3478354208925,42.03383543795932Z" fill-rule="evenodd" style="fill: #1DC690; stroke: #fff; opacity: 1;" id="p-type-logs"></path><path d="M190.6076570957416,49.77671198936495A197,197,0,0,1,190.28002351963025,51.01482774026552L164.78733420070026,44.180136792757025A170.6070045455344,170.6070045455344,0,0,0,165.07107320074545,43.10789709965149Z" fill-rule="evenodd" style="fill: #1DC690; stroke: #fff; opacity: 1;" id="p-type-logs"></path><path d="M190.28002351963025,51.01482774026552A197,197,0,0,1,189.94434769954867,52.25078733371352L164.49663041307346,45.25050919873408A170.6070045455344,170.6070045455344,0,0,0,164.78733420070026,44.180136792757025Z" fill-rule="evenodd" style="fill: #1DC690; stroke: #fff; opacity: 1;" id="p-type-logs"></path><path d="M189.94434769954867,52.25078733371352A197,197,0,0,1,189.60064382293913,53.48453853149498L164.1989741245504,46.3189690779623A170.6070045455344,170.6070045455344,0,0,0,164.49663041307346,45.25050919873408Z" fill-rule="evenodd" style="fill: #1DC690; stroke: #fff; opacity: 1;" id="p-type-logs"></path><path d="M189.60064382293913,53.48453853149498A197,197,0,0,1,189.24892641655214,54.71602918873439L163.8943779156661,47.38547127165483A170.6070045455344,170.6070045455344,0,0,0,164.1989741245504,46.3189690779623Z" fill-rule="evenodd" style="fill: #1DC690; stroke: #fff; opacity: 1;" id="p-type-logs"></path><path d="M189.24892641655214,54.71602918873439A197,197,0,0,1,188.88921034583248,55.945207256098755L163.58285466027334,48.44997070376703A170.6070045455344,170.6070045455344,0,0,0,163.8943779156661,47.38547127165483Z" fill-rule="evenodd" style="fill: #1DC690; stroke: #fff; opacity: 1;" id="p-type-logs"></path><path d="M188.88921034583248,55.945207256098755A197,197,0,0,1,188.52151081429105,57.172020781997375L163.26441752499883,49.51242238290159A170.6070045455344,170.6070045455344,0,0,0,163.58285466027334,48.44997070376703Z" fill-rule="evenodd" style="fill: #1DC690; stroke: #fff; opacity: 1;" id="p-type-logs"></path><path d="M188.52151081429105,57.172020781997375A197,197,0,0,1,188.1458433628621,58.3964179147776L162.9390799686864,50.5727814042101A170.6070045455344,170.6070045455344,0,0,0,163.26441752499883,49.51242238290159Z" fill-rule="evenodd" style="fill: #1DC690; stroke: #fff; opacity: 1;" id="p-type-logs"></path><path d="M188.1458433628621,58.3964179147776A197,197,0,0,1,187.7622238692465,59.61834690491643L162.60685574182835,51.63100295129099A170.6070045455344,170.6070045455344,0,0,0,162.9390799686864,50.5727814042101Z" fill-rule="evenodd" style="fill: #1DC690; stroke: #fff; opacity: 1;" id="p-type-logs"></path><path d="M187.7622238692465,59.61834690491643A197,197,0,0,1,187.37066854724065,60.83775610720764L162.2677588859843,52.68704229808369A170.6070045455344,170.6070045455344,0,0,0,162.60685574182835,51.63100295129099Z" fill-rule="evenodd" style="fill: #1DC690; stroke: #fff; opacity: 1;" id="p-type-logs"></path><path d="M187.37066854724065,60.83775610720764A197,197,0,0,1,186.9711939460512,62.05459398294463L161.92180373318757,53.740854810759025A170.6070045455344,170.6070045455344,0,0,0,162.2677588859843,52.68704229808369Z" fill-rule="evenodd" style="fill: #1DC690; stroke: #fff; opacity: 1;" id="p-type-logs"></path><path d="M186.9711939460512,62.05459398294463A197,197,0,0,1,186.56381694959555,63.26880910209871L161.56900490533957,54.7923959496056A170.6070045455344,170.6070045455344,0,0,0,161.92180373318757,53.740854810759025Z" fill-rule="evenodd" style="fill: #1DC690; stroke: #fff; opacity: 1;" id="p-type-logs"></path><path d="M186.56381694959555,63.26880910209871A197,197,0,0,1,186.14855477578828,64.48035014549279L161.20937731359174,55.841621270912384A170.6070045455344,170.6070045455344,0,0,0,161.56900490533957,54.7923959496056Z" fill-rule="evenodd" style="fill: #1DC690; stroke: #fff; opacity: 1;" id="p-type-logs"></path><path d="M186.14855477578828,64.48035014549279A197,197,0,0,1,185.72542497581344,65.68916590697047L160.8429361577153,56.88848642884708A170.6070045455344,170.6070045455344,0,0,0,161.20937731359174,55.841621270912384Z" fill-rule="evenodd" style="fill: #1DC690; stroke: #fff; opacity: 1;" id="p-type-logs"></path><path d="M185.72542497581344,65.68916590697047A197,197,0,0,1,185.29444543338275,66.89520529556016L160.46969692545892,57.93294717733041A170.6070045455344,170.6070045455344,0,0,0,160.8429361577153,56.88848642884708Z" fill-rule="evenodd" style="fill: #1DC690; stroke: #fff; opacity: 1;" id="p-type-logs"></path><path d="M185.29444543338275,66.89520529556016A197,197,0,0,1,184.85563436397968,68.0984173376346L160.08967539189405,58.974959371906216A170.6070045455344,170.6070045455344,0,0,0,160.46969692545892,57.93294717733041Z" fill-rule="evenodd" style="fill: #1DC690; stroke: #fff; opacity: 1;" id="p-type-logs"></path><path d="M184.85563436397968,68.0984173376346A197,197,0,0,1,184.40901031408964,69.29875117906514L159.70288761874818,60.014478971607225A170.6070045455344,170.6070045455344,0,0,0,160.08967539189405,58.974959371906216Z" fill-rule="evenodd" style="fill: #1DC690; stroke: #fff; opacity: 1;" id="p-type-logs"></path><path d="M184.40901031408964,69.29875117906514A197,197,0,0,1,183.954592160416,70.4961560873712L159.309349953726,61.05146204081645A170.6070045455344,170.6070045455344,0,0,0,159.70288761874818,60.014478971607225Z" fill-rule="evenodd" style="fill: #1DC690; stroke: #fff; opacity: 1;" id="p-type-logs"></path><path d="M183.954592160416,70.4961560873712A197,197,0,0,1,183.4923991090825,71.69058145386447L158.90907902981854,62.08586475112416A170.6070045455344,170.6070045455344,0,0,0,159.309349953726,61.05146204081645Z" fill-rule="evenodd" style="fill: #1DC690; stroke: #fff; opacity: 1;" id="p-type-logs"></path><path d="M183.4923991090825,71.69058145386447A197,197,0,0,1,183.02245069482115,72.88197679578789L158.50209176459998,63.117643383180294A170.6070045455344,170.6070045455344,0,0,0,158.90907902981854,62.08586475112416Z" fill-rule="evenodd" style="fill: #1DC690; stroke: #fff; opacity: 1;" id="p-type-logs"></path><path d="M183.02245069482115,72.88197679578789A197,197,0,0,1,182.54476678014683,74.0702917584493L158.08840535951285,64.14675432854224A170.6070045455344,170.6070045455344,0,0,0,158.50209176459998,63.117643383180294Z" fill-rule="evenodd" style="fill: #1DC690; stroke: #fff; opacity: 1;" id="p-type-logs"></path><path d="M182.54476678014683,74.0702917584493A197,197,0,0,1,182.05936755451776,75.25547611734977L157.6680372991408,65.17315409151801A170.6070045455344,170.6070045455344,0,0,0,158.08840535951285,64.14675432854224Z" fill-rule="evenodd" style="fill: #1DC690; stroke: #fff; opacity: 1;" id="p-type-logs"></path><path d="M182.05936755451776,75.25547611734977A197,197,0,0,1,181.5662735334822,76.43747978030625L157.24100535046975,66.19679929100458A170.6070045455344,170.6070045455344,0,0,0,157.6680372991408,65.17315409151801Z" fill-rule="evenodd" style="fill: #1DC690; stroke: #fff; opacity: 1;" id="p-type-logs"></path><path d="M181.5662735334822,76.43747978030625A197,197,0,0,1,181.06550555781118,77.61625278956882L156.80732756213695,67.2176466623214A170.6070045455344,170.6070045455344,0,0,0,157.24100535046975,66.19679929100458Z" fill-rule="evenodd" style="fill: #1DC690; stroke: #fff; opacity: 1;" id="p-type-logs"></path><path d="M181.06550555781118,77.61625278956882A197,197,0,0,1,180.55708479261793,78.79174532393213L156.36702226366808,68.23565305903898A170.6070045455344,170.6070045455344,0,0,0,156.80732756213695,67.2176466623214Z" fill-rule="evenodd" style="fill: #1DC690; stroke: #fff; opacity: 1;" id="p-type-logs"></path><path d="M180.55708479261793,78.79174532393213A197,197,0,0,1,180.0410327264631,79.96390770084113L155.92010806470256,69.25077545480252A170.6070045455344,170.6070045455344,0,0,0,156.36702226366808,68.23565305903898Z" fill-rule="evenodd" style="fill: #1DC690; stroke: #fff; opacity: 1;" id="p-type-logs"></path><path d="M180.0410327264631,79.96390770084113A197,197,0,0,1,179.51737117044672,81.13269037849085L155.46660385420705,70.26297094515037A170.6070045455344,170.6070045455344,0,0,0,155.92010806470256,69.25077545480252Z" fill-rule="evenodd" style="fill: #1DC690; stroke: #fff; opacity: 1;" id="p-type-logs"></path><path d="M179.51737117044672,81.13269037849085A197,197,0,0,1,178.98612225728618,82.29804395792043L155.00652879967717,71.27219674932752A170.6070045455344,170.6070045455344,0,0,0,155.46660385420705,70.26297094515037Z" fill-rule="evenodd" style="fill: #1DC690; stroke: #fff; opacity: 1;" id="p-type-logs"></path><path d="M178.98612225728618,82.29804395792043A197,197,0,0,1,178.4473084403809,83.4599191851008L154.53990234632712,72.27841021209355A170.6070045455344,170.6070045455344,0,0,0,155.00652879967717,71.27219674932752Z" fill-rule="evenodd" style="fill: #1DC690; stroke: #fff; opacity: 1;" id="p-type-logs"></path><path d="M178.4473084403809,83.4599191851008A197,197,0,0,1,177.9009524928633,84.61826695301664L154.06674421626818,73.28156880552567A170.6070045455344,170.6070045455344,0,0,0,154.53990234632712,72.27841021209355Z" fill-rule="evenodd" style="fill: #1DC690; stroke: #fff; opacity: 1;" id="p-type-logs"></path><path d="M177.9009524928633,84.61826695301664A197,197,0,0,1,177.34707750663625,85.77303830374176L153.5870744076748,74.28163013081607A170.6070045455344,170.6070045455344,0,0,0,154.06674421626818,73.28156880552567Z" fill-rule="evenodd" style="fill: #1DC690; stroke: #fff; opacity: 1;" id="p-type-logs"></path><path d="M177.34707750663625,85.77303830374176A197,197,0,0,1,176.78570689139715,86.92418443050825L153.10091319393962,75.27855192006392A170.6070045455344,170.6070045455344,0,0,0,153.5870744076748,74.28163013081607Z" fill-rule="evenodd" style="fill: #1DC690; stroke: #fff; opacity: 1;" id="p-type-logs"></path><path d="M176.78570689139715,86.92418443050825A197,197,0,0,1,176.21686437364843,88.07165667976955L152.60828112281655,76.27229203806186A170.6070045455344,170.6070045455344,0,0,0,153.10091319393962,75.27855192006392Z" fill-rule="evenodd" style="fill: #1DC690; stroke: #fff; opacity: 1;" id="p-type-logs"></path><path d="M176.21686437364843,88.07165667976955A197,197,0,0,1,175.6405739956948,89.21540655325656L152.10919901555218,77.26280848407686A170.6070045455344,170.6070045455344,0,0,0,152.60828112281655,76.27229203806186Z" fill-rule="evenodd" style="fill: #1DC690; stroke: #fff; opacity: 1;" id="p-type-logs"></path><path d="M175.6405739956948,89.21540655325656A197,197,0,0,1,175.05686011462717,90.35538571002759L151.60368796600596,78.25005939362534A170.6070045455344,170.6070045455344,0,0,0,152.10919901555218,77.26280848407686Z" fill-rule="evenodd" style="fill: #1DC690; stroke: #fff; opacity: 1;" id="p-type-logs"></path><path d="M175.05686011462717,90.35538571002759A197,197,0,0,1,174.46574740129293,91.49154596851146L151.09176933975857,79.23400304024265A170.6070045455344,170.6070045455344,0,0,0,151.60368796600596,78.25005939362534Z" fill-rule="evenodd" style="fill: #1DC690; stroke: #fff; opacity: 1;" id="p-type-logs"></path><path d="M174.46574740129293,91.49154596851146A197,197,0,0,1,173.8672608392536,92.62383930854388L150.5734647732089,80.21459783724667A170.6070045455344,170.6070045455344,0,0,0,151.09176933975857,79.23400304024265Z" fill-rule="evenodd" style="fill: #1DC690; stroke: #fff; opacity: 1;" id="p-type-logs"></path><path d="M173.8672608392536,92.62383930854388A197,197,0,0,1,173.2614257237285,93.75221787339707L150.04879617265948,81.19180233949537A170.6070045455344,170.6070045455344,0,0,0,150.5734647732089,80.21459783724667Z" fill-rule="evenodd" style="fill: #1DC690; stroke: #fff; opacity: 1;" id="p-type-logs"></path><path d="M173.2614257237285,93.75221787339707A197,197,0,0,1,172.64826766052596,94.87663397180248L149.51778571339082,82.16557524513863A170.6070045455344,170.6070045455344,0,0,0,150.04879617265948,81.19180233949537Z" fill-rule="evenodd" style="fill: #1DC690; stroke: #fff; opacity: 1;" id="p-type-logs"></path><path d="M172.64826766052596,94.87663397180248A197,197,0,0,1,172.02781256496095,95.99704007996633L148.98045583872403,83.13587539736378A170.6070045455344,170.6070045455344,0,0,0,149.51778571339082,82.16557524513863Z" fill-rule="evenodd" style="fill: #1DC690; stroke: #fff; opacity: 1;" id="p-type-logs"></path><path d="M172.02781256496095,95.99704007996633A197,197,0,0,1,171.40008666075974,97.11338884357839L148.43682925907223,84.10266178613517A170.6070045455344,170.6070045455344,0,0,0,148.98045583872403,83.13587539736378Z" fill-rule="evenodd" style="fill: #1DC690; stroke: #fff; opacity: 1;" id="p-type-logs"></path><path d="M171.40008666075974,97.11338884357839A197,197,0,0,1,170.7651164789515,98.22563307981336L147.88692895098066,85.06589354992748A170.6070045455344,170.6070045455344,0,0,0,148.43682925907223,84.10266178613517Z" fill-rule="evenodd" style="fill: #1DC690; stroke: #fff; opacity: 1;" id="p-type-logs"></path><path d="M170.7651164789515,98.22563307981336A197,197,0,0,1,170.12292885674717,99.33372577932502L147.3307781561558,86.02552997745265A170.6070045455344,170.6070045455344,0,0,0,147.88692895098066,85.06589354992748Z" fill-rule="evenodd" style="fill: #1DC690; stroke: #fff; opacity: 1;" id="p-type-logs"></path><path d="M82.33694321922457,178.96823120686585A197,197,0,0,1,78.53157820211379,180.6703938809159L68.01034172231482,156.46515081261376A170.6070045455344,170.6070045455344,0,0,0,71.30588449780535,154.99103469551275Z" fill-rule="evenodd" style="fill: #D7A449; stroke: #fff; opacity: 1;" id="p-type-tokenTransfers"></path><path d="M78.53157820211379,180.6703938809159A197,197,0,0,1,77.35535452716877,181.1771208678845L66.99170213927974,156.90398925611171A170.6070045455344,170.6070045455344,0,0,0,68.01034172231482,156.46515081261376Z" fill-rule="evenodd" style="fill: #D7A449; stroke: #fff; opacity: 1;" id="p-type-tokenTransfers"></path><path d="M77.35535452716877,181.1771208678845A197,197,0,0,1,76.17586140427014,181.67619034787535L65.97023113126048,157.33619610403727A170.6070045455344,170.6070045455344,0,0,0,66.99170213927974,156.90398925611171Z" fill-rule="evenodd" style="fill: #D7A449; stroke: #fff; opacity: 1;" id="p-type-tokenTransfers"></path><path d="M76.17586140427014,181.67619034787535A197,197,0,0,1,74.99314868505907,182.1675812275626L64.94597187104473,157.76175308903444A170.6070045455344,170.6070045455344,0,0,0,65.97023113126048,157.33619610403727Z" fill-rule="evenodd" style="fill: #D7A449; stroke: #fff; opacity: 1;" id="p-type-tokenTransfers"></path><path d="M74.99314868505907,182.1675812275626A197,197,0,0,1,73.807266357254,182.65127273815904L63.9189676492665,158.1806422248058A170.6070045455344,170.6070045455344,0,0,0,64.94597187104473,157.76175308903444Z" fill-rule="evenodd" style="fill: #D7A449; stroke: #fff; opacity: 1;" id="p-type-tokenTransfers"></path><path d="M73.807266357254,182.65127273815904A197,197,0,0,1,72.61826454253777,183.12724443629352L62.88926187257646,158.5928458068727A170.6070045455344,170.6070045455344,0,0,0,63.9189676492665,158.1806422248058Z" fill-rule="evenodd" style="fill: #D7A449; stroke: #fff; opacity: 1;" id="p-type-tokenTransfers"></path><path d="M72.61826454253777,183.12724443629352A197,197,0,0,1,71.4261934944394,183.5954762048752L61.856898061807335,158.99834641332336A170.6070045455344,170.6070045455344,0,0,0,62.88926187257646,158.5928458068727Z" fill-rule="evenodd" style="fill: #D7A449; stroke: #fff; opacity: 1;" id="p-type-tokenTransfers"></path><path d="M71.4261934944394,183.5954762048752A197,197,0,0,1,70.23110359620996,184.05594825394377L60.82191985013447,159.39712690554938A170.6070045455344,170.6070045455344,0,0,0,61.856898061807335,158.99834641332336Z" fill-rule="evenodd" style="fill: #D7A449; stroke: #fff; opacity: 1;" id="p-type-tokenTransfers"></path><path d="M70.23110359620996,184.05594825394377A197,197,0,0,1,69.03304535869313,184.50864112150578L59.78437098123168,159.78917042897012A170.6070045455344,170.6070045455344,0,0,0,60.82191985013447,159.39712690554938Z" fill-rule="evenodd" style="fill: #D7A449; stroke: #fff; opacity: 1;" id="p-type-tokenTransfers"></path><path d="M69.03304535869313,184.50864112150578A197,197,0,0,1,67.83206941819039,184.9535356743574L58.744295307422405,160.17446041374495A170.6070045455344,170.6070045455344,0,0,0,59.78437098123168,159.78917042897012Z" fill-rule="evenodd" style="fill: #D7A449; stroke: #fff; opacity: 1;" id="p-type-tokenTransfers"></path><path d="M67.83206941819039,184.9535356743574A197,197,0,0,1,66.62822653432086,185.39061310889292L57.70173678782626,160.55298057547364A170.6070045455344,170.6070045455344,0,0,0,58.744295307422405,160.17446041374495Z" fill-rule="evenodd" style="fill: #D7A449; stroke: #fff; opacity: 1;" id="p-type-tokenTransfers"></path><path d="M66.62822653432086,185.39061310889292A197,197,0,0,1,65.42156758787586,185.81985495189957L56.65673948650113,160.92471491588464A170.6070045455344,170.6070045455344,0,0,0,57.70173678782626,160.55298057547364Z" fill-rule="evenodd" style="fill: #D7A449; stroke: #fff; opacity: 1;" id="p-type-tokenTransfers"></path><path d="M65.42156758787586,185.81985495189957A197,197,0,0,1,64.21214357866852,186.24124306133822L55.609347570580745,161.28964772351122A170.6070045455344,170.6070045455344,0,0,0,56.65673948650113,160.92471491588464Z" fill-rule="evenodd" style="fill: #D7A449; stroke: #fff; opacity: 1;" id="p-type-tokenTransfers"></path><path d="M64.21214357866852,186.24124306133822A197,197,0,0,1,63.00000562337813,186.6547596271103L54.55960530840795,161.64776357435554A170.6070045455344,170.6070045455344,0,0,0,55.609347570580745,161.28964772351122Z" fill-rule="evenodd" style="fill: #D7A449; stroke: #fff; opacity: 1;" id="p-type-tokenTransfers"></path><path d="M63.00000562337813,186.6547596271103A197,197,0,0,1,61.78520495338983,187.0603871718104L53.507557067663726,161.99904733254053A170.6070045455344,170.6070045455344,0,0,0,54.55960530840795,161.64776357435554Z" fill-rule="evenodd" style="fill: #D7A449; stroke: #fff; opacity: 1;" id="p-type-tokenTransfers"></path><path d="M61.78520495338983,187.0603871718104A197,197,0,0,1,60.567792912629166,187.4581085514651L52.453247313491936,162.34348415094968A170.6070045455344,170.6070045455344,0,0,0,53.507557067663726,161.99904733254053Z" fill-rule="evenodd" style="fill: #D7A449; stroke: #fff; opacity: 1;" id="p-type-tokenTransfers"></path><path d="M60.567792912629166,187.4581085514651A197,197,0,0,1,59.34782095539209,187.84790695625736L51.39672060662,162.68105947185444A170.6070045455344,170.6070045455344,0,0,0,52.453247313491936,162.34348415094968Z" fill-rule="evenodd" style="fill: #D7A449; stroke: #fff; opacity: 1;" id="p-type-tokenTransfers"></path><path d="M59.34782095539209,187.84790695625736A197,197,0,0,1,58.125340644170215,188.22976591123725L50.33802160147555,163.01175902752962A170.6070045455344,170.6070045455344,0,0,0,51.39672060662,162.68105947185444Z" fill-rule="evenodd" style="fill: #D7A449; stroke: #fff; opacity: 1;" id="p-type-tokenTransfers"></path><path d="M58.125340644170215,188.22976591123725A197,197,0,0,1,56.90040364747151,188.60366927701807L49.277195044299056,163.3355688408563A170.6070045455344,170.6070045455344,0,0,0,50.33802160147555,163.01175902752962Z" fill-rule="evenodd" style="fill: #D7A449; stroke: #fff; opacity: 1;" id="p-type-tokenTransfers"></path><path d="M56.90040364747151,188.60366927701807A197,197,0,0,1,55.67306173763651,188.96960125045857L48.21428577125264,163.65247522591272A170.6070045455344,170.6070045455344,0,0,0,49.277195044299056,163.3355688408563Z" fill-rule="evenodd" style="fill: #D7A449; stroke: #fff; opacity: 1;" id="p-type-tokenTransfers"></path><path d="M55.67306173763651,188.96960125045857A197,197,0,0,1,54.44336678865017,189.32754636533085L47.14933870652506,163.96246478855267A170.6070045455344,170.6070045455344,0,0,0,48.21428577125264,163.65247522591272Z" fill-rule="evenodd" style="fill: #D7A449; stroke: #fff; opacity: 1;" id="p-type-tokenTransfers"></path><path d="M54.44336678865017,189.32754636533085A197,197,0,0,1,53.21137077394933,189.67748949297408L46.08239886043294,164.2655244269715A170.6070045455344,170.6070045455344,0,0,0,47.14933870652506,163.96246478855267Z" fill-rule="evenodd" style="fill: #D7A449; stroke: #fff; opacity: 1;" id="p-type-tokenTransfers"></path><path d="M53.21137077394933,189.67748949297408A197,197,0,0,1,51.97712576422611,190.01941584293385L45.013511327518465,164.56164133225994A170.6070045455344,170.6070045455344,0,0,0,46.08239886043294,164.2655244269715Z" fill-rule="evenodd" style="fill: #D7A449; stroke: #fff; opacity: 1;" id="p-type-tokenTransfers"></path><path d="M51.97712576422611,190.01941584293385A197,197,0,0,1,50.74068392522712,190.35331096358738L43.94272128464338,164.85080298894556A170.6070045455344,170.6070045455344,0,0,0,45.013511327518465,164.56164133225994Z" fill-rule="evenodd" style="fill: #D7A449; stroke: #fff; opacity: 1;" id="p-type-tokenTransfers"></path><path d="M50.74068392522712,190.35331096358738A197,197,0,0,1,49.50209751554858,190.67916074275425L42.870073989079614,165.13299717552164A170.6070045455344,170.6070045455344,0,0,0,43.94272128464338,164.85080298894556Z" fill-rule="evenodd" style="fill: #D7A449; stroke: #fff; opacity: 1;" id="p-type-tokenTransfers"></path><path d="M49.50209751554858,190.67916074275425A197,197,0,0,1,48.2614188844277,190.99695140829292L41.79561477659643,165.40821196496367A170.6070045455344,170.6070045455344,0,0,0,42.870073989079614,165.13299717552164Z" fill-rule="evenodd" style="fill: #D7A449; stroke: #fff; opacity: 1;" id="p-type-tokenTransfers"></path><path d="M48.2614188844277,190.99695140829292A197,197,0,0,1,47.01870046953006,191.3066695286827L40.71938905954435,165.6764357252336A170.6070045455344,170.6070045455344,0,0,0,41.79561477659643,165.40821196496367Z" fill-rule="evenodd" style="fill: #D7A449; stroke: #fff; opacity: 1;" id="p-type-tokenTransfers"></path><path d="M47.01870046953006,191.3066695286827A197,197,0,0,1,45.77399479473334,191.60830201359158L39.64144232493574,165.93765711977133A170.6070045455344,170.6070045455344,0,0,0,40.71938905954435,165.6764357252336Z" fill-rule="evenodd" style="fill: #D7A449; stroke: #fff; opacity: 1;" id="p-type-tokenTransfers"></path><path d="M45.77399479473334,191.60830201359158A197,197,0,0,1,44.52735446790736,191.90183611442941L38.5618201325223,166.1918651079739A170.6070045455344,170.6070045455344,0,0,0,39.64144232493574,165.93765711977133Z" fill-rule="evenodd" style="fill: #D7A449; stroke: #fff; opacity: 1;" id="p-type-tokenTransfers"></path><path d="M44.52735446790736,191.90183611442941A197,197,0,0,1,43.27883217869061,192.1872594248868L37.48056811286949,166.43904894566225A170.6070045455344,170.6070045455344,0,0,0,38.5618201325223,166.1918651079739Z" fill-rule="evenodd" style="fill: #D7A449; stroke: #fff; opacity: 1;" id="p-type-tokenTransfers"></path><path d="M43.27883217869061,192.1872594248868A197,197,0,0,1,42.0284806962633,192.46455988145928L36.39773196542791,166.67919818553503A170.6070045455344,170.6070045455344,0,0,0,37.48056811286949,166.43904894566225Z" fill-rule="evenodd" style="fill: #D7A449; stroke: #fff; opacity: 1;" id="p-type-tokenTransfers"></path><path d="M42.0284806962633,192.46455988145928A197,197,0,0,1,40.776352867117076,192.73372576395747L35.313357456601814,166.9123026776105A170.6070045455344,170.6070045455344,0,0,0,36.39773196542791,166.67919818553503Z" fill-rule="evenodd" style="fill: #D7A449; stroke: #fff; opacity: 1;" id="p-type-tokenTransfers"></path><path d="M40.776352867117076,192.73372576395747A197,197,0,0,1,39.522501612821394,192.99474569600213L34.22749041781477,167.1383525696553A170.6070045455344,170.6070045455344,0,0,0,35.313357456601814,166.9123026776105Z" fill-rule="evenodd" style="fill: #D7A449; stroke: #fff; opacity: 1;" id="p-type-tokenTransfers"></path><path d="M39.522501612821394,192.99474569600213A197,197,0,0,1,38.26697992778682,193.24760864550527L33.14017674357259,167.35733830760088A170.6070045455344,170.6070045455344,0,0,0,34.22749041781477,167.1383525696553Z" fill-rule="evenodd" style="fill: #D7A449; stroke: #fff; opacity: 1;" id="p-type-tokenTransfers"></path><path d="M38.26697992778682,193.24760864550527A197,197,0,0,1,37.009840877025205,193.49230392513618L32.05146238952358,167.56925063594738A170.6070045455344,170.6070045455344,0,0,0,33.14017674357259,167.35733830760088Z" fill-rule="evenodd" style="fill: #D7A449; stroke: #fff; opacity: 1;" id="p-type-tokenTransfers"></path><path d="M37.009840877025205,193.49230392513618A197,197,0,0,1,35.75113759390685,193.72882119277332L30.961393370516202,167.77408059815482A170.6070045455344,170.6070045455344,0,0,0,32.05146238952358,167.56925063594738Z" fill-rule="evenodd" style="fill: #D7A449; stroke: #fff; opacity: 1;" id="p-type-tokenTransfers"></path><path d="M35.75113759390685,193.72882119277332A197,197,0,0,1,34.49092327791482,193.95715045194132L29.870015758654272,167.9718195370216A170.6070045455344,170.6070045455344,0,0,0,30.961393370516202,167.77408059815482Z" fill-rule="evenodd" style="fill: #D7A449; stroke: #fff; opacity: 1;" id="p-type-tokenTransfers"></path><path d="M34.49092327791482,193.95715045194132A197,197,0,0,1,33.22925119239644,194.17728205223344L28.777375681349664,168.16245909505028A170.6070045455344,170.6070045455344,0,0,0,29.870015758654272,167.9718195370216Z" fill-rule="evenodd" style="fill: #D7A449; stroke: #fff; opacity: 1;" id="p-type-tokenTransfers"></path><path d="M33.22925119239644,194.17728205223344A197,197,0,0,1,31.966174662312135,194.38920668971966L27.68351931937276,168.34599121480116A170.6070045455344,170.6070045455344,0,0,0,28.777375681349664,168.16245909505028Z" fill-rule="evenodd" style="fill: #D7A449; stroke: #fff; opacity: 1;" id="p-type-tokenTransfers"></path><path d="M31.966174662312135,194.38920668971966A197,197,0,0,1,30.701747071981604,194.59291540733972L26.588492904900576,168.52240813923248A170.6070045455344,170.6070045455344,0,0,0,27.68351931937276,168.34599121480116Z" fill-rule="evenodd" style="fill: #D7A449; stroke: #fff; opacity: 1;" id="p-type-tokenTransfers"></path><path d="M30.701747071981604,194.59291540733972A197,197,0,0,1,29.436021862827527,194.7883995952817L25.49234271956277,168.6917024120284A170.6070045455344,170.6070045455344,0,0,0,26.588492904900576,168.52240813923248Z" fill-rule="evenodd" style="fill: #D7A449; stroke: #fff; opacity: 1;" id="p-type-tokenTransfers"></path><path d="M29.436021862827527,194.7883995952817A197,197,0,0,1,28.16905253111684,194.97565099134604L24.395115092485526,168.85386687791424A170.6070045455344,170.6070045455344,0,0,0,25.49234271956277,168.6917024120284Z" fill-rule="evenodd" style="fill: #D7A449; stroke: #fff; opacity: 1;" id="p-type-tokenTransfers"></path><path d="M28.16905253111684,194.97565099134604A197,197,0,0,1,26.900892625699704,195.15466168129464L23.296856398333414,169.00889468295873A170.6070045455344,170.6070045455344,0,0,0,24.395115092485526,168.85386687791424Z" fill-rule="evenodd" style="fill: #D7A449; stroke: #fff; opacity: 1;" id="p-type-tokenTransfers"></path><path d="M26.900892625699704,195.15466168129464A197,197,0,0,1,25.631595745746253,195.32542409918543L22.197613055349397,169.15677927486377A170.6070045455344,170.6070045455344,0,0,0,23.296856398333414,169.00889468295873Z" fill-rule="evenodd" style="fill: #D7A449; stroke: #fff; opacity: 1;" id="p-type-tokenTransfers"></path><path d="M25.631595745746253,195.32542409918543A197,197,0,0,1,24.36121553848119,195.48793102769199L21.097431523392913,169.29751440324145A170.6070045455344,170.6070045455344,0,0,0,22.197613055349397,169.15677927486377Z" fill-rule="evenodd" style="fill: #D7A449; stroke: #fff; opacity: 1;" id="p-type-tokenTransfers"></path><path d="M24.36121553848119,195.48793102769199A197,197,0,0,1,23.089805696916386,195.64217559840887L19.996358301976244,169.43109411987808A170.6070045455344,170.6070045455344,0,0,0,21.097431523392913,169.29751440324145Z" fill-rule="evenodd" style="fill: #D7A449; stroke: #fff; opacity: 1;" id="p-type-tokenTransfers"></path><path d="M23.089805696916386,195.64217559840887A197,197,0,0,1,21.817419957581528,195.78815129214158L18.89443992829921,169.55751277898568A170.6070045455344,170.6070045455344,0,0,0,19.996358301976244,169.43109411987808Z" fill-rule="evenodd" style="fill: #D7A449; stroke: #fff; opacity: 1;" id="p-type-tokenTransfers"></path><path d="M21.817419957581528,195.78815129214158A197,197,0,0,1,20.544112098252914,195.9258519391824L17.79172297528225,169.67676503744056A170.6070045455344,170.6070045455344,0,0,0,18.89443992829921,169.55751277898568Z" fill-rule="evenodd" style="fill: #D7A449; stroke: #fff; opacity: 1;" id="p-type-tokenTransfers"></path><path d="M20.544112098252914,195.9258519391824A197,197,0,0,1,19.26993593568054,196.05527171957087L16.688254049598,169.78884585500919A170.6070045455344,170.6070045455344,0,0,0,17.79172297528225,169.67676503744056Z" fill-rule="evenodd" style="fill: #D7A449; stroke: #fff; opacity: 1;" id="p-type-tokenTransfers"></path><path d="M19.26993593568054,196.05527171957087A197,197,0,0,1,17.994945323313495,196.17640516334006L15.584079789701464,169.8937504945612A170.6070045455344,170.6070045455344,0,0,0,16.688254049598,169.78884585500919Z" fill-rule="evenodd" style="fill: #D7A449; stroke: #fff; opacity: 1;" id="p-type-tokenTransfers"></path><path d="M17.994945323313495,196.17640516334006A197,197,0,0,1,16.719194149023853,196.28924715074754L14.479246863858805,169.9914745222696A170.6070045455344,170.6070045455344,0,0,0,15.584079789701464,169.8937504945612Z" fill-rule="evenodd" style="fill: #D7A449; stroke: #fff; opacity: 1;" id="p-type-tokenTransfers"></path><path d="M16.719194149023853,196.28924715074754A197,197,0,0,1,15.44273633282906,196.39379291249182L13.373801968174908,170.08201380779815A170.6070045455344,170.6070045455344,0,0,0,14.479246863858805,169.9914745222696Z" fill-rule="evenodd" style="fill: #D7A449; stroke: #fff; opacity: 1;" id="p-type-tokenTransfers"></path><path d="M15.44273633282906,196.39379291249182A197,197,0,0,1,14.165625824613008,196.49003802991402L12.267791824619753,170.165364524476A170.6070045455344,170.6070045455344,0,0,0,13.373801968174908,170.08201380779815Z" fill-rule="evenodd" style="fill: #D7A449; stroke: #fff; opacity: 1;" id="p-type-tokenTransfers"></path><path d="M14.165625824613008,196.49003802991402A197,197,0,0,1,12.887916601845822,196.57797843518452L11.161263179053698,170.24152314945934A170.6070045455344,170.6070045455344,0,0,0,12.267791824619753,170.165364524476Z" fill-rule="evenodd" style="fill: #D7A449; stroke: #fff; opacity: 1;" id="p-type-tokenTransfers"></path><path d="M12.887916601845822,196.57797843518452A197,197,0,0,1,11.609662667302471,196.6576104114749L10.054262799251745,170.31048646388038A170.6070045455344,170.6070045455344,0,0,0,11.161263179053698,170.24152314945934Z" fill-rule="evenodd" style="fill: #D7A449; stroke: #fff; opacity: 1;" id="p-type-tokenTransfers"></path><path d="M11.609662667302471,196.6576104114749A197,197,0,0,1,10.330918046780345,196.72893059311514L8.946837472926893,170.37225155298333A170.6070045455344,170.6070045455344,0,0,0,10.054262799251745,170.31048646388038Z" fill-rule="evenodd" style="fill: #D7A449; stroke: #fff; opacity: 1;" id="p-type-tokenTransfers"></path><path d="M10.330918046780345,196.72893059311514A197,197,0,0,1,9.051736786815825,196.79193596573566L7.839034005752631,170.42681580624762A170.6070045455344,170.6070045455344,0,0,0,8.946837472926893,170.37225155298333Z" fill-rule="evenodd" style="fill: #D7A449; stroke: #fff; opacity: 1;" id="p-type-tokenTransfers"></path><path d="M9.051736786815825,196.79193596573566A197,197,0,0,1,7.772172952399993,196.84662386639496L6.730899219384696,170.47417691749823A170.6070045455344,170.6070045455344,0,0,0,7.839034005752631,170.42681580624762Z" fill-rule="evenodd" style="fill: #D7A449; stroke: #fff; opacity: 1;" id="p-type-tokenTransfers"></path><path d="M7.772172952399993,196.84662386639496A197,197,0,0,1,6.492280624693559,196.89299198369207L5.622479949482127,170.51433288500317A170.6070045455344,170.6070045455344,0,0,0,6.730899219384696,170.47417691749823Z" fill-rule="evenodd" style="fill: #D7A449; stroke: #fff; opacity: 1;" id="p-type-tokenTransfers"></path><path d="M6.492280624693559,196.89299198369207A197,197,0,0,1,5.212113898741102,196.9310383578641L4.513823043727748,170.54728201155805A170.6070045455344,170.6070045455344,0,0,0,5.622479949482127,170.51433288500317Z" fill-rule="evenodd" style="fill: #D7A449; stroke: #fff; opacity: 1;" id="p-type-tokenTransfers"></path><path d="M5.212113898741102,196.9310383578641A197,197,0,0,1,3.9317268811847312,196.9607613808694L3.4049753598481387,170.5730229045579A170.6070045455344,170.6070045455344,0,0,0,4.513823043727748,170.54728201155805Z" fill-rule="evenodd" style="fill: #D7A449; stroke: #fff; opacity: 1;" id="p-type-tokenTransfers"></path><path d="M3.9317268811847312,196.9607613808694A197,197,0,0,1,2.651173687977245,196.9821597964551L2.295983763633173,170.59155447605585A170.6070045455344,170.6070045455344,0,0,0,3.4049753598481387,170.5730229045579Z" fill-rule="evenodd" style="fill: #D7A449; stroke: #fff; opacity: 1;" id="p-type-tokenTransfers"></path><path d="M2.651173687977245,196.9821597964551A197,197,0,0,1,1.3705084420949072,196.99523270021066L1.186895126955224,170.6028759428094A170.6070045455344,170.6070045455344,0,0,0,2.295983763633173,170.59155447605585Z" fill-rule="evenodd" style="fill: #D7A449; stroke: #fff; opacity: 1;" id="p-type-tokenTransfers"></path><path d="M1.3705084420949072,196.99523270021066A197,197,0,0,1,0.08978527124992408,196.9999795396057L0.07775632578811084,170.60698682631318A170.6070045455344,170.6070045455344,0,0,0,1.186895126955224,170.6028759428094Z" fill-rule="evenodd" style="fill: #D7A449; stroke: #fff; opacity: 1;" id="p-type-tokenTransfers"></path><path d="M0.08978527124992408,196.9999795396057A197,197,0,0,1,-1.1909416943972824,196.99640011401362L-1.03138576177413,170.60388695281947A170.6070045455344,170.6070045455344,0,0,0,0.07775632578811084,170.60698682631318Z" fill-rule="evenodd" style="fill: #D7A449; stroke: #fff; opacity: 1;" id="p-type-tokenTransfers"></path><path d="M-1.1909416943972824,196.99640011401362A197,197,0,0,1,-2.471618324525902,196.98449457471995L-2.140484257498562,170.5935764533454A170.6070045455344,170.6070045455344,0,0,0,-1.03138576177413,170.60388695281947Z" fill-rule="evenodd" style="fill: #D7A449; stroke: #fff; opacity: 1;" id="p-type-tokenTransfers"></path><path d="M-2.471618324525902,196.98449457471995A197,197,0,0,1,-3.7521904909425703,196.96426342491594L-3.24949228499467,170.57605576366737A170.6070045455344,170.6070045455344,0,0,0,-2.140484257498562,170.5935764533454Z" fill-rule="evenodd" style="fill: #D7A449; stroke: #fff; opacity: 1;" id="p-type-tokenTransfers"></path><path d="M-3.7521904909425703,196.96426342491594A197,197,0,0,1,-5.032604069869114,196.93570751967744L-4.358362971695608,170.55132562430276A170.6070045455344,170.6070045455344,0,0,0,-3.24949228499467,170.57605576366737Z" fill-rule="evenodd" style="fill: #D7A449; stroke: #fff; opacity: 1;" id="p-type-tokenTransfers"></path><path d="M-5.032604069869114,196.93570751967744A197,197,0,0,1,-6.312804944230108,196.89882806592857L-5.46704945083928,170.51938708047857A170.6070045455344,170.6070045455344,0,0,0,-4.358362971695608,170.55132562430276Z" fill-rule="evenodd" style="fill: #D7A449; stroke: #fff; opacity: 1;" id="p-type-tokenTransfers"></path><path d="M-6.312804944230108,196.89882806592857A197,197,0,0,1,-7.592739005940155,196.85362662239086L-6.57550486344918,170.48024148208717A170.6070045455344,170.6070045455344,0,0,0,-5.46704945083928,170.51938708047857Z" fill-rule="evenodd" style="fill: #D7A449; stroke: #fff; opacity: 1;" id="p-type-tokenTransfers"></path><path d="M-7.592739005940155,196.85362662239086A197,197,0,0,1,-8.872352158190774,196.80010509951728L-7.6836823603149,170.4338904836294A170.6070045455344,170.6070045455344,0,0,0,-6.57550486344918,170.48024148208717Z" fill-rule="evenodd" style="fill: #D7A449; stroke: #fff; opacity: 1;" id="p-type-tokenTransfers"></path><path d="M-8.872352158190774,196.80010509951728A197,197,0,0,1,-10.151590317736817,196.7382657594115L-8.791535103972226,170.38033604414454A170.6070045455344,170.6070045455344,0,0,0,-7.6836823603149,170.4338904836294Z" fill-rule="evenodd" style="fill: #D7A449; stroke: #fff; opacity: 1;" id="p-type-tokenTransfers"></path><path d="M-10.151590317736817,196.7382657594115A197,197,0,0,1,-11.430399417182329,196.66811121573238L-9.899016270682738,170.3195804271275A170.6070045455344,170.6070045455344,0,0,0,-8.791535103972226,170.38033604414454Z" fill-rule="evenodd" style="fill: #D7A449; stroke: #fff; opacity: 1;" id="p-type-tokenTransfers"></path><path d="M-11.430399417182329,196.66811121573238A197,197,0,0,1,-12.708725407265707,196.58964443358335L-11.006079052412838,170.2516262004332A170.6070045455344,170.6070045455344,0,0,0,-9.899016270682738,170.3195804271275Z" fill-rule="evenodd" style="fill: #D7A449; stroke: #fff; opacity: 1;" id="p-type-tokenTransfers"></path><path d="M-12.708725407265707,196.58964443358335A197,197,0,0,1,-13.98651425914411,196.50286872938716L-12.112676658812088,170.17647623616804A170.6070045455344,170.6070045455344,0,0,0,-11.006079052412838,170.2516262004332Z" fill-rule="evenodd" style="fill: #D7A449; stroke: #fff; opacity: 1;" id="p-type-tokenTransfers"></path><path d="M-106.60436475371814,165.6638446235515A197,197,0,0,1,-146.4852289522833,131.7234895483609L-126.85992955185709,114.07588822401452A170.6070045455344,170.6070045455344,0,0,0,-92.32208803102233,143.4690979325937Z" fill-rule="evenodd" style="fill: #414552; stroke: #fff; opacity: 1;" id="p-type-ether"></path><path d="M-146.4852289522833,131.7234895483609A197,197,0,0,1,-150.06008403758128,127.63608885669463L-129.95584487057312,110.53609538958544A170.6070045455344,170.6070045455344,0,0,0,-126.85992955185709,114.07588822401452Z" fill-rule="evenodd" style="fill: #414552; stroke: #fff; opacity: 1;" id="p-type-ether"></path><path d="M-150.06008403758128,127.63608885669463A197,197,0,0,1,-153.32811927221692,123.6910984689069L-132.7860464042302,107.11963349607586A170.6070045455344,170.6070045455344,0,0,0,-129.95584487057312,110.53609538958544Z" fill-rule="evenodd" style="fill: #414552; stroke: #fff; opacity: 1;" id="p-type-ether"></path><path d="M-153.32811927221692,123.6910984689069A197,197,0,0,1,-155.91106786907534,120.41901393021193L-135.02294550577898,104.28592516223573A170.6070045455344,170.6070045455344,0,0,0,-132.7860464042302,107.11963349607586Z" fill-rule="evenodd" style="fill: #414552; stroke: #fff; opacity: 1;" id="p-type-ether"></path><path d="M-155.91106786907534,120.41901393021193A197,197,0,0,1,-157.46405115406446,118.38104828962348L-136.36786848223218,102.5209951454463A170.6070045455344,170.6070045455344,0,0,0,-135.02294550577898,104.28592516223573Z" fill-rule="evenodd" style="fill: #414552; stroke: #fff; opacity: 1;" id="p-type-ether"></path><path d="M-157.46405115406446,118.38104828962348A197,197,0,0,1,-158.7195283876097,116.69237896458691L-137.45514366035536,101.05856461137311A170.6070045455344,170.6070045455344,0,0,0,-136.36786848223218,102.5209951454463Z" fill-rule="evenodd" style="fill: #414552; stroke: #fff; opacity: 1;" id="p-type-ether"></path><path d="M-158.7195283876097,116.69237896458691A197,197,0,0,1,-159.32590213199114,115.86309554740532L-137.9802787271776,100.34038410515669A170.6070045455344,170.6070045455344,0,0,0,-137.45514366035536,101.05856461137311Z" fill-rule="evenodd" style="fill: #414552; stroke: #fff; opacity: 1;" id="p-type-ether"></path></g></svg>