<svg xmlns="http://www.w3.org/2000/svg" width="400" height="400" id="block-7824849"><g id="burst-container" transform="translate(200,200)"><circle r="197" style="fill: #f9f9f9; stroke: #f9f9f9; stroke-width: 3; opacity: 1;" id="circle-base"></circle><path display="none" d="M6.031385485800715e-15,-98.5A98.5,98.5,0,1,1,-6.031385485800715e-15,98.5A98.5,98.5,0,1,1,6.031385485800715e-15,-98.5Z" fill-rule="evenodd" id="p-type-root" style="stroke: #fff; opacity: 1;"></path><path d="M8.529667153919608e-15,-139.30003589374985A139.30003589374985,139.30003589374985,0,1,1,-52.39255075741538,-129.07176540642672L-37.0471279242288,-91.26752057860357A98.5,98.5,0,1,0,6.031385485800715e-15,-98.5Z" fill-rule="evenodd" style="fill: #0B1F65; stroke: #fff; opacity: 1;" id="p-type-data"></path><path d="M-52.39255075741538,-129.07176540642672A139.30003589374985,139.30003589374985,0,0,1,-0.5398355025784543,-139.29898986579246L-0.381721344598473,-98.49926034653802A98.5,98.5,0,0,0,-37.0471279242288,-91.26752057860357Z" fill-rule="evenodd" style="fill: #D7A449; stroke: #fff; opacity: 1;" id="p-type-value"></path><path d="M1.0446666101440332e-14,-170.6070045455344A170.6070045455344,170.6070045455344,0,1,1,-119.60344194663543,121.66251137683211L-97.65580141661559,99.33702456626399A139.30003589374985,139.30003589374985,0,1,0,8.529667153919608e-15,-139.30003589374985Z" fill-rule="evenodd" style="fill: #414552; stroke: #fff; opacity: 1;" id="p-type-ether"></path><path d="M-119.60344194663543,121.66251137683211A170.6070045455344,170.6070045455344,0,0,1,-170.03316007519817,13.981218646528504L-138.83149384573602,11.415617222093491A139.30003589374985,139.30003589374985,0,0,0,-97.65580141661559,99.33702456626399Z" fill-rule="evenodd" style="fill: #DB3F29; stroke: #fff; opacity: 1;" id="p-type-functions"></path><path d="M-170.03316007519817,13.981218646528504A170.6070045455344,170.6070045455344,0,0,1,-158.49199066461637,-63.14300353298977L-129.4081684820883,-51.556046494193474A139.30003589374985,139.30003589374985,0,0,0,-138.83149384573602,11.415617222093491Z" fill-rule="evenodd" style="fill: #1DC690; stroke: #fff; opacity: 1;" id="p-type-logs"></path><path d="M-158.49199066461637,-63.14300353298977A170.6070045455344,170.6070045455344,0,0,1,-121.49223510669837,-119.7764033888926L-99.19799457388666,-97.79702384285089A139.30003589374985,139.30003589374985,0,0,0,-129.4081684820883,-51.556046494193474Z" fill-rule="evenodd" style="fill: #D7A449; stroke: #fff; opacity: 1;" id="p-type-tokenTransfers"></path><path d="M-64.167507839268,-158.07998272297945A170.6070045455344,170.6070045455344,0,0,1,-31.55309048813429,-167.66380790333852L-25.7629905012648,-136.89692589839896A139.30003589374985,139.30003589374985,0,0,0,-52.39255075741538,-129.07176540642672Z" fill-rule="evenodd" style="fill: #D7A449; stroke: #fff; opacity: 1;" id="p-type-tokenTransfers"></path><path d="M-31.55309048813429,-167.66380790333852A170.6070045455344,170.6070045455344,0,0,1,-1.322311596815894,-170.60188009527013L-1.0796628977212592,-139.29585179762992A139.30003589374985,139.30003589374985,0,0,0,-25.7629905012648,-136.89692589839896Z" fill-rule="evenodd" style="fill: #414552; stroke: #fff; opacity: 1;" id="p-type-ether"></path><path d="M1.206277097160143e-14,-197A197,197,0,1,1,-74.90793672139853,182.20263723706898L-64.87217614580834,157.79211248382225A170.6070045455344,170.6070045455344,0,1,0,1.0446666101440332e-14,-170.6070045455344Z" fill-rule="evenodd" style="fill: #414552; stroke: #fff; opacity: 1;" id="p-type-ether"></path><path d="M-74.90793672139853,182.20263723706898A197,197,0,0,1,-92.01281769312112,174.19139295663393L-79.68543759602916,150.8541714210427A170.6070045455344,170.6070045455344,0,0,0,-64.87217614580834,157.79211248382225Z" fill-rule="evenodd" style="fill: #414552; stroke: #fff; opacity: 1;" id="p-type-ether"></path><path d="M-92.01281769312112,174.19139295663393A197,197,0,0,1,-98.53562686609177,170.586430404374L-85.33435604385991,147.73218227109405A170.6070045455344,170.6070045455344,0,0,0,-79.68543759602916,150.8541714210427Z" fill-rule="evenodd" style="fill: #414552; stroke: #fff; opacity: 1;" id="p-type-ether"></path><path d="M-98.53562686609177,170.586430404374A197,197,0,0,1,-101.14934268070402,169.0497278177682L-87.59790033758725,146.40135879303216A170.6070045455344,170.6070045455344,0,0,0,-85.33435604385991,147.73218227109405Z" fill-rule="evenodd" style="fill: #414552; stroke: #fff; opacity: 1;" id="p-type-ether"></path><path d="M-101.14934268070402,169.0497278177682A197,197,0,0,1,-102.88332126187022,168.00006608965012L-89.09956983849528,145.49232507110162A170.6070045455344,170.6070045455344,0,0,0,-87.59790033758725,146.40135879303216Z" fill-rule="evenodd" style="fill: #414552; stroke: #fff; opacity: 1;" id="p-type-ether"></path><path d="M-102.88332126187022,168.00006608965012A197,197,0,0,1,-104.40706412347387,167.0573702687697L-90.41916986547923,144.67592654217773A170.6070045455344,170.6070045455344,0,0,0,-89.09956983849528,145.49232507110162Z" fill-rule="evenodd" style="fill: #414552; stroke: #fff; opacity: 1;" id="p-type-ether"></path><path d="M-104.40706412347387,167.0573702687697A197,197,0,0,1,-105.33717314919058,166.47246004350822L-91.22466791003909,144.169379428168A170.6070045455344,170.6070045455344,0,0,0,-90.41916986547923,144.67592654217773Z" fill-rule="evenodd" style="fill: #414552; stroke: #fff; opacity: 1;" id="p-type-ether"></path><path d="M-138.1061588077915,140.48376738739987A197,197,0,0,1,-150.9252280622984,126.61190913315863L-130.70508157391046,109.64912973096236A170.6070045455344,170.6070045455344,0,0,0,-119.60344194663543,121.66251137683211Z" fill-rule="evenodd" style="fill: #DB3F29; stroke: #fff; opacity: 1;" id="p-type-functions"></path></g></svg>