<svg xmlns="http://www.w3.org/2000/svg" width="400" height="400" id="block-7824915"><g id="burst-container" transform="translate(200,200)"><circle r="197" style="fill: #f9f9f9; stroke: #f9f9f9; stroke-width: 3; opacity: 1;" id="circle-base"></circle><path display="none" d="M6.031385485800715e-15,-98.5A98.5,98.5,0,1,1,-6.031385485800715e-15,98.5A98.5,98.5,0,1,1,6.031385485800715e-15,-98.5Z" fill-rule="evenodd" id="p-type-root" style="stroke: #fff; opacity: 1;"></path><path d="M8.529667153919608e-15,-139.30003589374985A139.30003589374985,139.30003589374985,0,1,1,-54.06236764379689,-128.38130862686725L-38.22786676792897,-90.77929390766086A98.5,98.5,0,1,0,6.031385485800715e-15,-98.5Z" fill-rule="evenodd" style="fill: #0B1F65; stroke: #fff; opacity: 1;" id="p-type-data"></path><path d="M-54.06236764379689,-128.38130862686725A139.30003589374985,139.30003589374985,0,0,1,-0.6455874096229949,-139.29853989506327L-0.4564992351930771,-98.49894216918406A98.5,98.5,0,0,0,-38.22786676792897,-90.77929390766086Z" fill-rule="evenodd" style="fill: #D7A449; stroke: #fff; opacity: 1;" id="p-type-value"></path><path d="M1.0446666101440332e-14,-170.6070045455344A170.6070045455344,170.6070045455344,0,0,1,1.3992757093486796,170.60126619544542L1.1425038324584154,139.29535055052202A139.30003589374985,139.30003589374985,0,0,0,8.529667153919608e-15,-139.30003589374985Z" fill-rule="evenodd" style="fill: #414552; stroke: #fff; opacity: 1;" id="p-type-ether"></path><path d="M1.3992757093486796,170.60126619544542A170.6070045455344,170.6070045455344,0,0,1,-150.96225743449278,79.4804808131023L-123.26016704439455,64.89554083438976A139.30003589374985,139.30003589374985,0,0,0,1.1425038324584154,139.29535055052202Z" fill-rule="evenodd" style="fill: #DB3F29; stroke: #fff; opacity: 1;" id="p-type-functions"></path><path d="M-150.96225743449278,79.4804808131023A170.6070045455344,170.6070045455344,0,0,1,-168.5630451664337,-26.329637373477592L-137.63115004915898,-21.498058892511324A139.30003589374985,139.30003589374985,0,0,0,-123.26016704439455,64.89554083438976Z" fill-rule="evenodd" style="fill: #1DC690; stroke: #fff; opacity: 1;" id="p-type-logs"></path><path d="M-168.5630451664337,-26.329637373477592A170.6070045455344,170.6070045455344,0,0,1,-126.11451205969944,-114.8994336276029L-102.97206790211305,-93.81499470746995A139.30003589374985,139.30003589374985,0,0,0,-137.63115004915898,-21.498058892511324Z" fill-rule="evenodd" style="fill: #D7A449; stroke: #fff; opacity: 1;" id="p-type-tokenTransfers"></path><path d="M-66.21260750702683,-157.23434932329644A170.6070045455344,170.6070045455344,0,0,1,-18.93728028013064,-169.5527334359189L-15.462224600796716,-138.4392271373779A139.30003589374985,139.30003589374985,0,0,0,-54.06236764379689,-128.38130862686725Z" fill-rule="evenodd" style="fill: #D7A449; stroke: #fff; opacity: 1;" id="p-type-tokenTransfers"></path><path d="M-18.93728028013064,-169.5527334359189A170.6070045455344,170.6070045455344,0,0,1,-1.5813427550881884,-170.59967571801224L-1.2911609528043362,-139.29405193113578A139.30003589374985,139.30003589374985,0,0,0,-15.462224600796716,-138.4392271373779Z" fill-rule="evenodd" style="fill: #414552; stroke: #fff; opacity: 1;" id="p-type-ether"></path><path d="M1.206277097160143e-14,-197A197,197,0,0,1,144.61623191579002,133.77273812880725L125.24133063865607,115.85058955335026A170.6070045455344,170.6070045455344,0,0,0,1.0446666101440332e-14,-170.6070045455344Z" fill-rule="evenodd" style="fill: #414552; stroke: #fff; opacity: 1;" id="p-type-ether"></path><path d="M144.61623191579002,133.77273812880725A197,197,0,0,1,82.81094678219866,178.74939746202185L71.71638362482524,154.80151911327258A170.6070045455344,170.6070045455344,0,0,0,125.24133063865607,115.85058955335026Z" fill-rule="evenodd" style="fill: #414552; stroke: #fff; opacity: 1;" id="p-type-ether"></path><path d="M82.81094678219866,178.74939746202185A197,197,0,0,1,62.97155997416597,186.66435823268463L54.53497065356308,161.6560762106238A170.6070045455344,170.6070045455344,0,0,0,71.71638362482524,154.80151911327258Z" fill-rule="evenodd" style="fill: #414552; stroke: #fff; opacity: 1;" id="p-type-ether"></path><path d="M62.97155997416597,186.66435823268463A197,197,0,0,1,52.94272757836322,189.75264845730933L45.84974702850154,164.33061399940794A170.6070045455344,170.6070045455344,0,0,0,54.53497065356308,161.6560762106238Z" fill-rule="evenodd" style="fill: #414552; stroke: #fff; opacity: 1;" id="p-type-ether"></path><path d="M52.94272757836322,189.75264845730933A197,197,0,0,1,43.04428347788771,192.23992733008208L37.27744297954954,166.48466068952547A170.6070045455344,170.6070045455344,0,0,0,45.84974702850154,164.33061399940794Z" fill-rule="evenodd" style="fill: #414552; stroke: #fff; opacity: 1;" id="p-type-ether"></path><path d="M43.04428347788771,192.23992733008208A197,197,0,0,1,39.50170878335002,192.9990025963746L34.209483299276,167.14203915351922A170.6070045455344,170.6070045455344,0,0,0,37.27744297954954,166.48466068952547Z" fill-rule="evenodd" style="fill: #414552; stroke: #fff; opacity: 1;" id="p-type-ether"></path><path d="M39.50170878335002,192.9990025963746A197,197,0,0,1,36.50525796968195,193.58813533005315L31.614480773448907,167.65224306708583A170.6070045455344,170.6070045455344,0,0,0,34.209483299276,167.14203915351922Z" fill-rule="evenodd" style="fill: #414552; stroke: #fff; opacity: 1;" id="p-type-ether"></path><path d="M36.50525796968195,193.58813533005315A197,197,0,0,1,34.259884494809356,193.99809358445336L29.6699303032255,168.00727732988753A170.6070045455344,170.6070045455344,0,0,0,31.614480773448907,167.65224306708583Z" fill-rule="evenodd" style="fill: #414552; stroke: #fff; opacity: 1;" id="p-type-ether"></path><path d="M34.259884494809356,193.99809358445336A197,197,0,0,1,32.00991193097584,194.38200929656833L27.721396905127673,168.33975808949108A170.6070045455344,170.6070045455344,0,0,0,29.6699303032255,168.00727732988753Z" fill-rule="evenodd" style="fill: #414552; stroke: #fff; opacity: 1;" id="p-type-ether"></path><path d="M32.00991193097584,194.38200929656833A197,197,0,0,1,30.321153878652773,194.65258186694328L26.258889530970364,168.57408080900305A170.6070045455344,170.6070045455344,0,0,0,27.721396905127673,168.33975808949108Z" fill-rule="evenodd" style="fill: #414552; stroke: #fff; opacity: 1;" id="p-type-ether"></path><path d="M30.321153878652773,194.65258186694328A197,197,0,0,1,28.967390494117407,194.85864180980354L25.086496049249536,168.7525339542224A170.6070045455344,170.6070045455344,0,0,0,26.258889530970364,168.57408080900305Z" fill-rule="evenodd" style="fill: #414552; stroke: #fff; opacity: 1;" id="p-type-ether"></path><path d="M1.6157444149259295,196.99337392406284A197,197,0,0,1,-73.4892348611986,182.77946372477297L-63.64354429447896,158.29165887574965A170.6070045455344,170.6070045455344,0,0,0,1.3992757093486796,170.60126619544542Z" fill-rule="evenodd" style="fill: #DB3F29; stroke: #fff; opacity: 1;" id="p-type-functions"></path><path d="M-73.4892348611986,182.77946372477297A197,197,0,0,1,-75.60199555012966,181.91574497233103L-65.47324872321036,157.54365649440993A170.6070045455344,170.6070045455344,0,0,0,-63.64354429447896,158.29165887574965Z" fill-rule="evenodd" style="fill: #DB3F29; stroke: #fff; opacity: 1;" id="p-type-functions"></path><path d="M-194.63983900452712,-30.40284645048504A197,197,0,0,1,-194.27452553939105,-32.655914111298316L-168.24667442528138,-28.28085120418707A170.6070045455344,170.6070045455344,0,0,0,-168.5630451664337,-26.329637373477592Z" fill-rule="evenodd" style="fill: #D7A449; stroke: #fff; opacity: 1;" id="p-type-tokenTransfers"></path></g></svg>