<svg xmlns="http://www.w3.org/2000/svg" width="400" height="400" id="block-7824885"><g id="burst-container" transform="translate(200,200)"><circle r="197" style="fill: #f9f9f9; stroke: #f9f9f9; stroke-width: 3; opacity: 1;" id="circle-base"></circle><path display="none" d="M6.031385485800715e-15,-98.5A98.5,98.5,0,1,1,-6.031385485800715e-15,98.5A98.5,98.5,0,1,1,6.031385485800715e-15,-98.5Z" fill-rule="evenodd" id="p-type-root" style="stroke: #fff; opacity: 1;"></path><path d="M8.529667153919608e-15,-139.30003589374985A139.30003589374985,139.30003589374985,0,1,1,-77.51552181970449,-115.74041591863627L-54.81175112592684,-81.84083295341914A98.5,98.5,0,1,0,6.031385485800715e-15,-98.5Z" fill-rule="evenodd" style="fill: #0B1F65; stroke: #fff; opacity: 1;" id="p-type-data"></path><path d="M-77.51552181970449,-115.74041591863627A139.30003589374985,139.30003589374985,0,0,1,-1.644049136898298,-139.2903338442243L-1.1625182933046772,-98.49313961498909A98.5,98.5,0,0,0,-54.81175112592684,-81.84083295341914Z" fill-rule="evenodd" style="fill: #D7A449; stroke: #fff; opacity: 1;" id="p-type-value"></path><path d="M1.0446666101440332e-14,-170.6070045455344A170.6070045455344,170.6070045455344,0,0,1,138.88059352376595,99.09051792420149L113.3955297693682,80.90706908746807A139.30003589374985,139.30003589374985,0,0,0,8.529667153919608e-15,-139.30003589374985Z" fill-rule="evenodd" style="fill: #DB3F29; stroke: #fff; opacity: 1;" id="p-type-functions"></path><path d="M138.88059352376595,99.09051792420149A170.6070045455344,170.6070045455344,0,0,1,-45.12569628438248,164.53091361458388L-36.84497672818128,134.3389284232228A139.30003589374985,139.30003589374985,0,0,0,113.3955297693682,80.90706908746807Z" fill-rule="evenodd" style="fill: #414552; stroke: #fff; opacity: 1;" id="p-type-ether"></path><path d="M-45.12569628438248,164.53091361458388A170.6070045455344,170.6070045455344,0,0,1,-154.24573565404597,72.90406732509626L-125.94111578421038,59.52592170666585A139.30003589374985,139.30003589374985,0,0,0,-36.84497672818128,134.3389284232228Z" fill-rule="evenodd" style="fill: #1DC690; stroke: #fff; opacity: 1;" id="p-type-logs"></path><path d="M-154.24573565404597,72.90406732509626A170.6070045455344,170.6070045455344,0,0,1,-166.06697877446373,-39.09614508774249L-135.59312037434688,-31.921868791596054A139.30003589374985,139.30003589374985,0,0,0,-125.94111578421038,59.52592170666585Z" fill-rule="evenodd" style="fill: #D7A449; stroke: #fff; opacity: 1;" id="p-type-tokenTransfers"></path><path d="M-94.9367378019259,-141.7524808090792A170.6070045455344,170.6070045455344,0,0,1,-42.82902178282147,-165.14364926671144L-34.96974985015283,-134.83922498819746A139.30003589374985,139.30003589374985,0,0,0,-77.51552181970449,-115.74041591863627Z" fill-rule="evenodd" style="fill: #D7A449; stroke: #fff; opacity: 1;" id="p-type-tokenTransfers"></path><path d="M-42.82902178282147,-165.14364926671144A170.6070045455344,170.6070045455344,0,0,1,-4.0268010169609125,-170.55947605914423L-3.287869262424875,-139.26122904711562A139.30003589374985,139.30003589374985,0,0,0,-34.96974985015283,-134.83922498819746Z" fill-rule="evenodd" style="fill: #414552; stroke: #fff; opacity: 1;" id="p-type-ether"></path><path d="M1.206277097160143e-14,-197A197,197,0,0,1,149.0748370052089,-128.78545326188976L129.10259591153542,-111.53147416269003A170.6070045455344,170.6070045455344,0,0,0,1.0446666101440332e-14,-170.6070045455344Z" fill-rule="evenodd" style="fill: #DB3F29; stroke: #fff; opacity: 1;" id="p-type-functions"></path><path d="M149.0748370052089,-128.78545326188976A197,197,0,0,1,160.7545219466743,-113.87266429523908L139.217499779043,-98.61662007629424A170.6070045455344,170.6070045455344,0,0,0,129.10259591153542,-111.53147416269003Z" fill-rule="evenodd" style="fill: #DB3F29; stroke: #fff; opacity: 1;" id="p-type-functions"></path><path d="M160.7545219466743,-113.87266429523908A197,197,0,0,1,161.62250087494775,-112.63732601108529L139.9691915808774,-97.5467857399496A170.6070045455344,170.6070045455344,0,0,0,139.217499779043,-98.61662007629424Z" fill-rule="evenodd" style="fill: #DB3F29; stroke: #fff; opacity: 1;" id="p-type-functions"></path><path d="M161.62250087494775,-112.63732601108529A197,197,0,0,1,162.28442520149264,-111.68153534502088L140.5424348630482,-96.71904674243775A170.6070045455344,170.6070045455344,0,0,0,139.9691915808774,-97.5467857399496Z" fill-rule="evenodd" style="fill: #DB3F29; stroke: #fff; opacity: 1;" id="p-type-functions"></path><path d="M162.28442520149264,-111.68153534502088A197,197,0,0,1,162.94065574416783,-110.72191610363592L141.11074718374414,-95.88799210143803A170.6070045455344,170.6070045455344,0,0,0,140.5424348630482,-96.71904674243775Z" fill-rule="evenodd" style="fill: #DB3F29; stroke: #fff; opacity: 1;" id="p-type-functions"></path><path d="M162.94065574416783,-110.72191610363592A197,197,0,0,1,163.59121194489143,-109.75844101663257L141.67414538016027,-95.05359820017972A170.6070045455344,170.6070045455344,0,0,0,141.11074718374414,-95.88799210143803Z" fill-rule="evenodd" style="fill: #DB3F29; stroke: #fff; opacity: 1;" id="p-type-functions"></path><path d="M163.59121194489143,-109.75844101663257A197,197,0,0,1,164.2360711483088,-108.79114363663822L142.23260983218393,-94.21589409609048A170.6070045455344,170.6070045455344,0,0,0,141.67414538016027,-95.05359820017972Z" fill-rule="evenodd" style="fill: #DB3F29; stroke: #fff; opacity: 1;" id="p-type-functions"></path><path d="M164.2360711483088,-108.79114363663822A197,197,0,0,1,164.8752108974609,-107.82005764939002L142.78612109151805,-93.37490896187444A170.6070045455344,170.6070045455344,0,0,0,142.23260983218393,-94.21589409609048Z" fill-rule="evenodd" style="fill: #DB3F29; stroke: #fff; opacity: 1;" id="p-type-functions"></path><path d="M164.8752108974609,-107.82005764939002A197,197,0,0,1,165.50860893456638,-106.84521687256185L143.3346598823586,-92.53067208449629A170.6070045455344,170.6070045455344,0,0,0,142.78612109151805,-93.37490896187444Z" fill-rule="evenodd" style="fill: #DB3F29; stroke: #fff; opacity: 1;" id="p-type-functions"></path><path d="M165.50860893456638,-106.84521687256185A197,197,0,0,1,166.13624320179662,-105.86665525458659L143.87820710206563,-91.6832128641613A170.6070045455344,170.6070045455344,0,0,0,143.3346598823586,-92.53067208449629Z" fill-rule="evenodd" style="fill: #DB3F29; stroke: #fff; opacity: 1;" id="p-type-functions"></path><path d="M166.13624320179662,-105.86665525458659A197,197,0,0,1,166.75809184204402,-104.88440687347386L144.41674382182867,-90.83256081329155A170.6070045455344,170.6070045455344,0,0,0,143.87820710206563,-91.6832128641613Z" fill-rule="evenodd" style="fill: #DB3F29; stroke: #fff; opacity: 1;" id="p-type-functions"></path><path d="M166.75809184204402,-104.88440687347386A197,197,0,0,1,167.374133199683,-103.89850593562342L144.9502512873259,-89.97874555549816A170.6070045455344,170.6070045455344,0,0,0,144.41674382182867,-90.83256081329155Z" fill-rule="evenodd" style="fill: #DB3F29; stroke: #fff; opacity: 1;" id="p-type-functions"></path><path d="M167.374133199683,-103.89850593562342A197,197,0,0,1,167.98434582132427,-102.9089867746337L145.47871091937714,-89.1217968245496A170.6070045455344,170.6070045455344,0,0,0,144.9502512873259,-89.97874555549816Z" fill-rule="evenodd" style="fill: #DB3F29; stroke: #fff; opacity: 1;" id="p-type-functions"></path><path d="M167.98434582132427,-102.9089867746337A197,197,0,0,1,168.5887084565619,-101.91588385010638L146.002104314591,-88.26174446333633A170.6070045455344,170.6070045455344,0,0,0,145.47871091937714,-89.1217968245496Z" fill-rule="evenodd" style="fill: #DB3F29; stroke: #fff; opacity: 1;" id="p-type-functions"></path><path d="M168.5887084565619,-101.91588385010638A197,197,0,0,1,169.18720005871333,-100.91923174644619L146.5204132460058,-87.3986184228314A170.6070045455344,170.6070045455344,0,0,0,146.002104314591,-88.26174446333633Z" fill-rule="evenodd" style="fill: #DB3F29; stroke: #fff; opacity: 1;" id="p-type-functions"></path><path d="M169.18720005871333,-100.91923174644619A197,197,0,0,1,169.77979978555237,-99.91906517165658L147.03361966372412,-86.53244876104753A170.6070045455344,170.6070045455344,0,0,0,146.5204132460058,-87.3986184228314Z" fill-rule="evenodd" style="fill: #DB3F29; stroke: #fff; opacity: 1;" id="p-type-functions"></path><path d="M169.77979978555237,-99.91906517165658A197,197,0,0,1,170.36648700003494,-98.91541895613103L147.54170569554157,-85.6632656419903A170.6070045455344,170.6070045455344,0,0,0,147.03361966372412,-86.53244876104753Z" fill-rule="evenodd" style="fill: #DB3F29; stroke: #fff; opacity: 1;" id="p-type-functions"></path><path d="M170.36648700003494,-98.91541895613103A197,197,0,0,1,170.94724127101784,-97.90832805144011L148.04465364756908,-84.7910993346077A170.6070045455344,170.6070045455344,0,0,0,147.54170569554157,-85.6632656419903Z" fill-rule="evenodd" style="fill: #DB3F29; stroke: #fff; opacity: 1;" id="p-type-functions"></path><path d="M170.94724127101784,-97.90832805144011A197,197,0,0,1,171.5220423739702,-96.89782752911425L148.54244600484913,-83.91598021173606A170.6070045455344,170.6070045455344,0,0,0,148.04465364756908,-84.7910993346077Z" fill-rule="evenodd" style="fill: #DB3F29; stroke: #fff; opacity: 1;" id="p-type-functions"></path><path d="M171.5220423739702,-96.89782752911425A197,197,0,0,1,172.09087029167776,-95.88395257942246L149.0350654319657,-83.0379387490423A170.6070045455344,170.6070045455344,0,0,0,148.54244600484913,-83.91598021173606Z" fill-rule="evenodd" style="fill: #DB3F29; stroke: #fff; opacity: 1;" id="p-type-functions"></path><path d="M172.09087029167776,-95.88395257942246A197,197,0,0,1,172.65370521494012,-94.86673851014677L149.52249477364794,-82.15700552396261A170.6070045455344,170.6070045455344,0,0,0,149.0350654319657,-83.0379387490423Z" fill-rule="evenodd" style="fill: #DB3F29; stroke: #fff; opacity: 1;" id="p-type-functions"></path><path d="M172.65370521494012,-94.86673851014677A197,197,0,0,1,173.21052754326027,-93.84622074535275L150.0047170553676,-81.27321121463768A170.6070045455344,170.6070045455344,0,0,0,149.52249477364794,-82.15700552396261Z" fill-rule="evenodd" style="fill: #DB3F29; stroke: #fff; opacity: 1;" id="p-type-functions"></path><path d="M173.21052754326027,-93.84622074535275A197,197,0,0,1,173.76131788552755,-92.82243482415576L150.48171548393017,-80.38658659884423A170.6070045455344,170.6070045455344,0,0,0,150.0047170553676,-81.27321121463768Z" fill-rule="evenodd" style="fill: #DB3F29; stroke: #fff; opacity: 1;" id="p-type-functions"></path><path d="M173.76131788552755,-92.82243482415576A197,197,0,0,1,174.3060570606927,-91.7954163994834L150.95347344805978,-79.4971625529233A170.6070045455344,170.6070045455344,0,0,0,150.48171548393017,-80.38658659884423Z" fill-rule="evenodd" style="fill: #DB3F29; stroke: #fff; opacity: 1;" id="p-type-functions"></path><path d="M174.3060570606927,-91.7954163994834A197,197,0,0,1,174.84472609843584,-90.76520123683389L151.41997451897745,-78.6049700507049A170.6070045455344,170.6070045455344,0,0,0,150.95347344805978,-79.4971625529233Z" fill-rule="evenodd" style="fill: #DB3F29; stroke: #fff; opacity: 1;" id="p-type-functions"></path><path d="M174.84472609843584,-90.76520123683389A197,197,0,0,1,175.3773062398272,-89.73182521303055L151.8812024509735,-77.71004016242945A170.6070045455344,170.6070045455344,0,0,0,151.41997451897745,-78.6049700507049Z" fill-rule="evenodd" style="fill: #DB3F29; stroke: #fff; opacity: 1;" id="p-type-functions"></path><path d="M175.3773062398272,-89.73182521303055A197,197,0,0,1,175.90377893798038,-88.69532431497238L152.3371411819731,-76.81240405366569A170.6070045455344,170.6070045455344,0,0,0,151.8812024509735,-77.71004016242945Z" fill-rule="evenodd" style="fill: #DB3F29; stroke: #fff; opacity: 1;" id="p-type-functions"></path><path d="M175.90377893798038,-88.69532431497238A197,197,0,0,1,176.42412585869815,-87.65573463838086L152.78777483409567,-75.9120929842254A170.6070045455344,170.6070045455344,0,0,0,152.3371411819731,-76.81240405366569Z" fill-rule="evenodd" style="fill: #DB3F29; stroke: #fff; opacity: 1;" id="p-type-functions"></path><path d="M176.42412585869815,-87.65573463838086A197,197,0,0,1,176.93832888111095,-86.61309238654296L153.2330877142079,-75.00913830707475A170.6070045455344,170.6070045455344,0,0,0,152.78777483409567,-75.9120929842254Z" fill-rule="evenodd" style="fill: #DB3F29; stroke: #fff; opacity: 1;" id="p-type-functions"></path><path d="M176.93832888111095,-86.61309238654296A197,197,0,0,1,177.44637009830802,-85.56743386905028L153.67306431447014,-74.10357146724252A170.6070045455344,170.6070045455344,0,0,0,153.2330877142079,-75.00913830707475Z" fill-rule="evenodd" style="fill: #DB3F29; stroke: #fff; opacity: 1;" id="p-type-functions"></path><path d="M177.44637009830802,-85.56743386905028A197,197,0,0,1,177.94823181796102,-84.51879550053471L154.1076893128766,-73.19542400072496A170.6070045455344,170.6070045455344,0,0,0,153.67306431447014,-74.10357146724252Z" fill-rule="evenodd" style="fill: #DB3F29; stroke: #fff; opacity: 1;" id="p-type-functions"></path><path d="M177.94823181796102,-84.51879550053471A197,197,0,0,1,178.44389656293998,-83.46721379940016L154.5369475737887,-72.28472753338758A170.6070045455344,170.6070045455344,0,0,0,154.1076893128766,-73.19542400072496Z" fill-rule="evenodd" style="fill: #DB3F29; stroke: #fff; opacity: 1;" id="p-type-functions"></path><path d="M178.44389656293998,-83.46721379940016A197,197,0,0,1,178.9333470719221,-82.41272538655096L154.96082414846245,-71.37151377986386A170.6070045455344,170.6070045455344,0,0,0,154.5369475737887,-72.28472753338758Z" fill-rule="evenodd" style="fill: #DB3F29; stroke: #fff; opacity: 1;" id="p-type-functions"></path><path d="M178.9333470719221,-82.41272538655096A197,197,0,0,1,179.41656629999284,-81.35536698411649L155.3793042755688,-70.45581454245067A170.6070045455344,170.6070045455344,0,0,0,154.96082414846245,-71.37151377986386Z" fill-rule="evenodd" style="fill: #DB3F29; stroke: #fff; opacity: 1;" id="p-type-functions"></path><path d="M179.41656629999284,-81.35536698411649A197,197,0,0,1,179.89353741923944,-80.29517541417228L155.79237338170785,-69.53766171000088A170.6070045455344,170.6070045455344,0,0,0,155.3793042755688,-70.45581454245067Z" fill-rule="evenodd" style="fill: #DB3F29; stroke: #fff; opacity: 1;" id="p-type-functions"></path><path d="M179.89353741923944,-80.29517541417228A197,197,0,0,1,180.364243819337,-79.23218759745787L156.20001708191626,-68.61708725681284A170.6070045455344,170.6070045455344,0,0,0,155.79237338170785,-69.53766171000088Z" fill-rule="evenodd" style="fill: #DB3F29; stroke: #fff; opacity: 1;" id="p-type-functions"></path><path d="M180.364243819337,-79.23218759745787A197,197,0,0,1,180.8286691081269,-78.16644055209086L156.60222118016824,-67.6941232415168A170.6070045455344,170.6070045455344,0,0,0,156.20001708191626,-68.61708725681284Z" fill-rule="evenodd" style="fill: #DB3F29; stroke: #fff; opacity: 1;" id="p-type-functions"></path><path d="M180.8286691081269,-78.16644055209086A197,197,0,0,1,181.28679711218768,-77.09797139227791L156.99897166986992,-66.76880180595859A170.6070045455344,170.6070045455344,0,0,0,156.60222118016824,-67.6941232415168Z" fill-rule="evenodd" style="fill: #DB3F29; stroke: #fff; opacity: 1;" id="p-type-functions"></path><path d="M181.28679711218768,-77.09797139227791A197,197,0,0,1,181.73861187739823,-76.02681732702223L157.39025473434717,-65.84115517408017A170.6070045455344,170.6070045455344,0,0,0,156.99897166986992,-66.76880180595859Z" fill-rule="evenodd" style="fill: #DB3F29; stroke: #fff; opacity: 1;" id="p-type-functions"></path><path d="M181.73861187739823,-76.02681732702223A197,197,0,0,1,182.18409766949347,-74.95301565882768L157.77605674732666,-64.9112156507976A170.6070045455344,170.6070045455344,0,0,0,157.39025473434717,-65.84115517408017Z" fill-rule="evenodd" style="fill: #DB3F29; stroke: #fff; opacity: 1;" id="p-type-functions"></path><path d="M182.18409766949347,-74.95301565882768A197,197,0,0,1,182.62323897461215,-73.87660378239993L158.1563642734105,-63.97901562087588A170.6070045455344,170.6070045455344,0,0,0,157.77605674732666,-64.9112156507976Z" fill-rule="evenodd" style="fill: #DB3F29; stroke: #fff; opacity: 1;" id="p-type-functions"></path><path d="M182.62323897461215,-73.87660378239993A197,197,0,0,1,183.05602049983722,-72.79761918334398L158.531164068544,-63.044587547801264A170.6070045455344,170.6070045455344,0,0,0,158.1563642734105,-63.97901562087588Z" fill-rule="evenodd" style="fill: #DB3F29; stroke: #fff; opacity: 1;" id="p-type-functions"></path><path d="M183.05602049983722,-72.79761918334398A197,197,0,0,1,183.48242717372847,-71.71609943685891L158.90044308047703,-62.107963972650694A170.6070045455344,170.6070045455344,0,0,0,158.531164068544,-63.044587547801264Z" fill-rule="evenodd" style="fill: #DB3F29; stroke: #fff; opacity: 1;" id="p-type-functions"></path><path d="M183.48242717372847,-71.71609943685891A197,197,0,0,1,183.9024441468471,-70.63208220642929L159.2641884492184,-61.16917751295858A170.6070045455344,170.6070045455344,0,0,0,158.90044308047703,-62.107963972650694Z" fill-rule="evenodd" style="fill: #DB3F29; stroke: #fff; opacity: 1;" id="p-type-functions"></path><path d="M183.9024441468471,-70.63208220642929A197,197,0,0,1,184.3160567922732,-69.54560524251349L159.62238750748392,-60.228260861580914A170.6070045455344,170.6070045455344,0,0,0,159.2641884492184,-61.16917751295858Z" fill-rule="evenodd" style="fill: #DB3F29; stroke: #fff; opacity: 1;" id="p-type-functions"></path><path d="M184.3160567922732,-69.54560524251349A197,197,0,0,1,184.72325070611492,-68.45670638122913L159.97502778113724,-59.285246785556716A170.6070045455344,170.6070045455344,0,0,0,159.62238750748392,-60.228260861580914Z" fill-rule="evenodd" style="fill: #DB3F29; stroke: #fff; opacity: 1;" id="p-type-functions"></path><path d="M184.72325070611492,-68.45670638122913A197,197,0,0,1,185.12401170801004,-67.36542354303545L160.32209698962455,-58.34016812496699A170.6070045455344,170.6070045455344,0,0,0,159.97502778113724,-59.285246785556716Z" fill-rule="evenodd" style="fill: #DB3F29; stroke: #fff; opacity: 1;" id="p-type-functions"></path><path d="M185.12401170801004,-67.36542354303545A197,197,0,0,1,185.51832584162005,-66.27179473141264L160.66358304640207,-57.393057791791065A170.6070045455344,170.6070045455344,0,0,0,160.32209698962455,-58.34016812496699Z" fill-rule="evenodd" style="fill: #DB3F29; stroke: #fff; opacity: 1;" id="p-type-functions"></path><path d="M185.51832584162005,-66.27179473141264A197,197,0,0,1,185.9061793751158,-65.17585803153854L160.99947405935694,-56.443948768760414A170.6070045455344,170.6070045455344,0,0,0,160.66358304640207,-57.393057791791065Z" fill-rule="evenodd" style="fill: #DB3F29; stroke: #fff; opacity: 1;" id="p-type-functions"></path><path d="M185.9061793751158,-65.17585803153854A197,197,0,0,1,186.28755880165605,-64.07765160896221L161.32975833122154,-55.49287410821009A170.6070045455344,170.6070045455344,0,0,0,160.99947405935694,-56.443948768760414Z" fill-rule="evenodd" style="fill: #DB3F29; stroke: #fff; opacity: 1;" id="p-type-functions"></path><path d="M186.28755880165605,-64.07765160896221A197,197,0,0,1,186.66245083985763,-62.97721370827488L161.65442435998062,-54.53986693092764A170.6070045455344,170.6070045455344,0,0,0,161.32975833122154,-55.49287410821009Z" fill-rule="evenodd" style="fill: #DB3F29; stroke: #fff; opacity: 1;" id="p-type-functions"></path><path d="M186.66245083985763,-62.97721370827488A197,197,0,0,1,187.0308424342581,-61.87458265177811L161.9734608392721,-53.584960424999764A170.6070045455344,170.6070045455344,0,0,0,161.65442435998062,-54.53986693092764Z" fill-rule="evenodd" style="fill: #DB3F29; stroke: #fff; opacity: 1;" id="p-type-functions"></path><path d="M187.0308424342581,-61.87458265177811A197,197,0,0,1,187.3927207557702,-60.76979683814922L162.28685665878044,-52.62818784465648A170.6070045455344,170.6070045455344,0,0,0,161.9734608392721,-53.584960424999764Z" fill-rule="evenodd" style="fill: #DB3F29; stroke: #fff; opacity: 1;" id="p-type-functions"></path><path d="M187.3927207557702,-60.76979683814922A197,197,0,0,1,187.74807320212886,-59.66289474110405L162.59460090462397,-51.66958250911309A170.6070045455344,170.6070045455344,0,0,0,162.28685665878044,-52.62818784465648Z" fill-rule="evenodd" style="fill: #DB3F29; stroke: #fff; opacity: 1;" id="p-type-functions"></path><path d="M187.74807320212886,-59.66289474110405A197,197,0,0,1,188.0968873983299,-58.553914908057166L162.89668285973474,-50.70917780140987A170.6070045455344,170.6070045455344,0,0,0,162.59460090462397,-51.66958250911309Z" fill-rule="evenodd" style="fill: #DB3F29; stroke: #fff; opacity: 1;" id="p-type-functions"></path><path d="M188.0968873983299,-58.553914908057166A197,197,0,0,1,188.43915119706105,-57.44289595877943L163.1930920042317,-49.74700716724946A170.6070045455344,170.6070045455344,0,0,0,162.89668285973474,-50.70917780140987Z" fill-rule="evenodd" style="fill: #DB3F29; stroke: #fff; opacity: 1;" id="p-type-functions"></path><path d="M188.43915119706105,-57.44289595877943A197,197,0,0,1,188.774852679125,-56.32987658405311L163.48381801578714,-48.78310411383219A170.6070045455344,170.6070045455344,0,0,0,163.1930920042317,-49.74700716724946Z" fill-rule="evenodd" style="fill: #DB3F29; stroke: #fff; opacity: 1;" id="p-type-functions"></path><path d="M188.774852679125,-56.32987658405311A197,197,0,0,1,189.10398015385434,-55.21489554432448L163.7688507699862,-47.817502208689206A170.6070045455344,170.6070045455344,0,0,0,163.48381801578714,-48.78310411383219Z" fill-rule="evenodd" style="fill: #DB3F29; stroke: #fff; opacity: 1;" id="p-type-functions"></path><path d="M189.10398015385434,-55.21489554432448A197,197,0,0,1,189.4265221595189,-54.097991668353956L164.04818034067927,-46.85023507851343A170.6070045455344,170.6070045455344,0,0,0,163.7688507699862,-47.817502208689206Z" fill-rule="evenodd" style="fill: #DB3F29; stroke: #fff; opacity: 1;" id="p-type-functions"></path><path d="M189.4265221595189,-54.097991668353956A197,197,0,0,1,189.74246746372472,-52.979203851864L164.32179700032793,-45.881336407988606A170.6070045455344,170.6070045455344,0,0,0,164.04818034067927,-46.85023507851343Z" fill-rule="evenodd" style="fill: #DB3F29; stroke: #fff; opacity: 1;" id="p-type-functions"></path><path d="M189.74246746372472,-52.979203851864A197,197,0,0,1,190.05180506380532,-51.858571056184495L164.58969122034344,-44.91083993861618A170.6070045455344,170.6070045455344,0,0,0,164.32179700032793,-45.881336407988606Z" fill-rule="evenodd" style="fill: #DB3F29; stroke: #fff; opacity: 1;" id="p-type-functions"></path><path d="M190.05180506380532,-51.858571056184495A197,197,0,0,1,190.35452418720482,-50.736132306895996L164.85185367141875,-43.93877946754031A170.6070045455344,170.6070045455344,0,0,0,164.58969122034344,-44.91083993861618Z" fill-rule="evenodd" style="fill: #DB3F29; stroke: #fff; opacity: 1;" id="p-type-functions"></path><path d="M190.35452418720482,-50.736132306895996A197,197,0,0,1,190.65061429185303,-49.61192669247064L165.1082752238533,-42.96518884637086A170.6070045455344,170.6070045455344,0,0,0,164.85185367141875,-43.93877946754031Z" fill-rule="evenodd" style="fill: #DB3F29; stroke: #fff; opacity: 1;" id="p-type-functions"></path><path d="M190.65061429185303,-49.61192669247064A197,197,0,0,1,190.94006506653272,-48.48599336291094L165.358946947871,-41.99010198000456A170.6070045455344,170.6070045455344,0,0,0,165.1082752238533,-42.96518884637086Z" fill-rule="evenodd" style="fill: #DB3F29; stroke: #fff; opacity: 1;" id="p-type-functions"></path><path d="M190.94006506653272,-48.48599336291094A197,197,0,0,1,191.22286643123863,-47.358371528386364L165.6038601139312,-41.01355282544426A170.6070045455344,170.6070045455344,0,0,0,165.358946947871,-41.99010198000456Z" fill-rule="evenodd" style="fill: #DB3F29; stroke: #fff; opacity: 1;" id="p-type-functions"></path><path d="M191.22286643123863,-47.358371528386364A197,197,0,0,1,191.49900853752837,-46.22910045786789L165.84300619303266,-40.03557539061641A170.6070045455344,170.6070045455344,0,0,0,165.6038601139312,-41.01355282544426Z" fill-rule="evenodd" style="fill: #DB3F29; stroke: #fff; opacity: 1;" id="p-type-functions"></path><path d="M191.49900853752837,-46.22910045786789A197,197,0,0,1,191.76848176886563,-45.09821947776046L166.07637685701062,-39.056203733186734A170.6070045455344,170.6070045455344,0,0,0,165.84300619303266,-40.03557539061641Z" fill-rule="evenodd" style="fill: #DB3F29; stroke: #fff; opacity: 1;" id="p-type-functions"></path><path d="M191.76848176886563,-45.09821947776046A197,197,0,0,1,192.03127674095492,-43.96576797053348L166.30396397882677,-38.07547195937419A170.6070045455344,170.6070045455344,0,0,0,166.07637685701062,-39.056203733186734Z" fill-rule="evenodd" style="fill: #DB3F29; stroke: #fff; opacity: 1;" id="p-type-functions"></path><path d="M192.03127674095492,-43.96576797053348A197,197,0,0,1,192.2873843020684,-42.83178537334929L166.5257596328523,-37.093414222763236A170.6070045455344,170.6070045455344,0,0,0,166.30396397882677,-38.07547195937419Z" fill-rule="evenodd" style="fill: #DB3F29; stroke: #fff; opacity: 1;" id="p-type-functions"></path><path d="M192.2873843020684,-42.83178537334929A197,197,0,0,1,192.5367955333646,-41.69631117668985L166.74175609514398,-36.110064723114434A170.6070045455344,170.6070045455344,0,0,0,166.5257596328523,-37.093414222763236Z" fill-rule="evenodd" style="fill: #DB3F29; stroke: #fff; opacity: 1;" id="p-type-functions"></path><path d="M192.5367955333646,-41.69631117668985A197,197,0,0,1,192.779501749199,-40.55938492298145L166.95194584371296,-35.12545770517348A170.6070045455344,170.6070045455344,0,0,0,166.74175609514398,-36.110064723114434Z" fill-rule="evenodd" style="fill: #DB3F29; stroke: #fff; opacity: 1;" id="p-type-functions"></path><path d="M192.779501749199,-40.55938492298145A197,197,0,0,1,193.01549449742654,-39.42104620521767L167.1563215587869,-34.139627457478646A170.6070045455344,170.6070045455344,0,0,0,166.95194584371296,-35.12545770517348Z" fill-rule="evenodd" style="fill: #DB3F29; stroke: #fff; opacity: 1;" id="p-type-functions"></path><path d="M193.01549449742654,-39.42104620521767A197,197,0,0,1,193.24476555969588,-38.281334665580566L167.3548761230648,-33.15260831116664A170.6070045455344,170.6070045455344,0,0,0,167.1563215587869,-34.139627457478646Z" fill-rule="evenodd" style="fill: #DB3F29; stroke: #fff; opacity: 1;" id="p-type-functions"></path><path d="M193.24476555969588,-38.281334665580566A197,197,0,0,1,193.46730695173568,-37.14028999406018L167.5476026219648,-32.16443463877712A170.6070045455344,170.6070045455344,0,0,0,167.3548761230648,-33.15260831116664Z" fill-rule="evenodd" style="fill: #DB3F29; stroke: #fff; opacity: 1;" id="p-type-functions"></path><path d="M193.46730695173568,-37.14028999406018A197,197,0,0,1,193.68311092363265,-35.997951927072315L167.73449434386518,-31.175140853055613A170.6070045455344,170.6070045455344,0,0,0,167.5476026219648,-32.16443463877712Z" fill-rule="evenodd" style="fill: #DB3F29; stroke: #fff; opacity: 1;" id="p-type-functions"></path><path d="M193.68311092363265,-35.997951927072315A197,197,0,0,1,193.89216996010137,-34.85436024607475L167.9155447803378,-30.184761405755168A170.6070045455344,170.6070045455344,0,0,0,167.73449434386518,-31.175140853055613Z" fill-rule="evenodd" style="fill: #DB3F29; stroke: #fff; opacity: 1;" id="p-type-functions"></path><path d="M193.89216996010137,-34.85436024607475A197,197,0,0,1,194.09447678074613,-33.70955477618185L168.09074762637502,-29.193330786436537A170.6070045455344,170.6070045455344,0,0,0,167.9155447803378,-30.184761405755168Z" fill-rule="evenodd" style="fill: #DB3F29; stroke: #fff; opacity: 1;" id="p-type-functions"></path><path d="M194.09447678074613,-33.70955477618185A197,197,0,0,1,194.29002434031423,-32.56357538477769L168.26009678060905,-28.20088352126711A170.6070045455344,170.6070045455344,0,0,0,168.09074762637502,-29.193330786436537Z" fill-rule="evenodd" style="fill: #DB3F29; stroke: #fff; opacity: 1;" id="p-type-functions"></path><path d="M194.29002434031423,-32.56357538477769A197,197,0,0,1,194.47880582894166,-31.4164619801277L168.42358634552463,-27.207454171818558A170.6070045455344,170.6070045455344,0,0,0,168.26009678060905,-28.20088352126711Z" fill-rule="evenodd" style="fill: #DB3F29; stroke: #fff; opacity: 1;" id="p-type-functions"></path><path d="M194.47880582894166,-31.4164619801277A197,197,0,0,1,194.66081467238993,-30.268254509988836L168.58121062766426,-26.213077333863236A170.6070045455344,170.6070045455344,0,0,0,168.42358634552463,-27.207454171818558Z" fill-rule="evenodd" style="fill: #DB3F29; stroke: #fff; opacity: 1;" id="p-type-functions"></path><path d="M194.66081467238993,-30.268254509988836A197,197,0,0,1,194.83604453227528,-29.11899296021844L168.73296413782654,-25.2177876361694A170.6070045455344,170.6070045455344,0,0,0,168.58121062766426,-26.213077333863236Z" fill-rule="evenodd" style="fill: #DB3F29; stroke: #fff; opacity: 1;" id="p-type-functions"></path><path d="M194.83604453227528,-29.11899296021844A197,197,0,0,1,195.00448930628917,-27.96871735338176L168.87884159125733,-24.221619739295274A170.6070045455344,170.6070045455344,0,0,0,168.73296413782654,-25.2177876361694Z" fill-rule="evenodd" style="fill: #DB3F29; stroke: #fff; opacity: 1;" id="p-type-functions"></path><path d="M195.00448930628917,-27.96871735338176A197,197,0,0,1,195.166143128411,-26.81746774735816L169.01883790783367,-23.22460833438201A170.6070045455344,170.6070045455344,0,0,0,168.87884159125733,-24.221619739295274Z" fill-rule="evenodd" style="fill: #DB3F29; stroke: #fff; opacity: 1;" id="p-type-functions"></path><path d="M195.166143128411,-26.81746774735816A197,197,0,0,1,195.32100036911226,-25.665284233946146L169.15294821224094,-22.226788141945597A170.6070045455344,170.6070045455344,0,0,0,169.01883790783367,-23.22460833438201Z" fill-rule="evenodd" style="fill: #DB3F29; stroke: #fff; opacity: 1;" id="p-type-functions"></path><path d="M195.32100036911226,-25.665284233946146A197,197,0,0,1,195.46905563555268,-24.512206937467138L169.28116783414242,-21.228193910667695A170.6070045455344,170.6070045455344,0,0,0,169.15294821224094,-22.226788141945597Z" fill-rule="evenodd" style="fill: #DB3F29; stroke: #fff; opacity: 1;" id="p-type-functions"></path><path d="M195.46905563555268,-24.512206937467138A197,197,0,0,1,195.6103037717679,-23.358276013368204L169.40349230834198,-20.22886041618557A170.6070045455344,170.6070045455344,0,0,0,169.28116783414242,-21.228193910667695Z" fill-rule="evenodd" style="fill: #DB3F29; stroke: #fff; opacity: 1;" id="p-type-functions"></path><path d="M195.6103037717679,-23.358276013368204A197,197,0,0,1,195.74473985884907,-22.203531646823652L169.51991737493967,-19.228822459881016A170.6070045455344,170.6070045455344,0,0,0,169.40349230834198,-20.22886041618557Z" fill-rule="evenodd" style="fill: #DB3F29; stroke: #fff; opacity: 1;" id="p-type-functions"></path><path d="M195.74473985884907,-22.203531646823652A197,197,0,0,1,195.8723592151143,-21.048014051335585L169.63043897947998,-18.228114867668438A170.6070045455344,170.6070045455344,0,0,0,169.51991737493967,-19.228822459881016Z" fill-rule="evenodd" style="fill: #DB3F29; stroke: #fff; opacity: 1;" id="p-type-functions"></path><path d="M195.8723592151143,-21.048014051335585A197,197,0,0,1,195.9931573962715,-19.891763467333487L169.73505327309306,-17.226772488782025A170.6070045455344,170.6070045455344,0,0,0,169.63043897947998,-18.228114867668438Z" fill-rule="evenodd" style="fill: #DB3F29; stroke: #fff; opacity: 1;" id="p-type-functions"></path><path d="M195.9931573962715,-19.891763467333487A197,197,0,0,1,196.1071301955732,-18.734820160772866L169.83375661262878,-16.224830194562163A170.6070045455344,170.6070045455344,0,0,0,169.73505327309306,-17.226772488782025Z" fill-rule="evenodd" style="fill: #DB3F29; stroke: #fff; opacity: 1;" id="p-type-functions"></path><path d="M196.1071301955732,-18.734820160772866A197,197,0,0,1,196.2142736439631,-17.577224421733025L169.92654556078347,-15.222322877241037A170.6070045455344,170.6070045455344,0,0,0,169.83375661262878,-16.224830194562163Z" fill-rule="evenodd" style="fill: #DB3F29; stroke: #fff; opacity: 1;" id="p-type-functions"></path><path d="M196.2142736439631,-17.577224421733025A197,197,0,0,1,196.31458401021428,-16.419016563013944L170.01341688621991,-14.219285448727536A170.6070045455344,170.6070045455344,0,0,0,169.92654556078347,-15.222322877241037Z" fill-rule="evenodd" style="fill: #DB3F29; stroke: #fff; opacity: 1;" id="p-type-functions"></path><path d="M160.36549611232255,114.41987439535434A197,197,0,0,1,18.251872988575357,196.15266792070128L15.806585674753263,169.87319343942022A170.6070045455344,170.6070045455344,0,0,0,138.88059352376595,99.09051792420149Z" fill-rule="evenodd" style="fill: #414552; stroke: #fff; opacity: 1;" id="p-type-ether"></path><path d="M18.251872988575357,196.15266792070128A197,197,0,0,1,-0.6714005395215026,196.99885588834147L-0.5814499233401992,170.60601371577337A170.6070045455344,170.6070045455344,0,0,0,15.806585674753263,169.87319343942022Z" fill-rule="evenodd" style="fill: #414552; stroke: #fff; opacity: 1;" id="p-type-ether"></path><path d="M-0.6714005395215026,196.99885588834147A197,197,0,0,1,-2.181145091581065,196.98792502610274L-1.8889270586489382,170.59654731138934A170.6070045455344,170.6070045455344,0,0,0,-0.5814499233401992,170.60601371577337Z" fill-rule="evenodd" style="fill: #414552; stroke: #fff; opacity: 1;" id="p-type-ether"></path><path d="M-2.181145091581065,196.98792502610274A197,197,0,0,1,-3.4591525238992196,196.96962776990873L-2.9957139612617816,170.58070142270577A170.6070045455344,170.6070045455344,0,0,0,-1.8889270586489382,170.59654731138934Z" fill-rule="evenodd" style="fill: #414552; stroke: #fff; opacity: 1;" id="p-type-ether"></path><path d="M-3.4591525238992196,196.96962776990873A197,197,0,0,1,-4.6215255473456285,196.94578315266168L-4.002358528240096,170.56005137842632A170.6070045455344,170.6070045455344,0,0,0,-2.9957139612617816,170.58070142270577Z" fill-rule="evenodd" style="fill: #414552; stroke: #fff; opacity: 1;" id="p-type-ether"></path><path d="M-52.106665794315035,189.98393453079015A197,197,0,0,1,-53.22689375177016,189.67313405313303L-46.095842153568164,164.26175250542448A170.6070045455344,170.6070045455344,0,0,0,-45.12569628438248,164.53091361458388Z" fill-rule="evenodd" style="fill: #1DC690; stroke: #fff; opacity: 1;" id="p-type-logs"></path><path d="M-53.22689375177016,189.67313405313303A197,197,0,0,1,-54.345268104335894,189.35572828585845L-47.06438275383106,163.98687104765702A170.6070045455344,170.6070045455344,0,0,0,-46.095842153568164,164.26175250542448Z" fill-rule="evenodd" style="fill: #1DC690; stroke: #fff; opacity: 1;" id="p-type-logs"></path><path d="M-54.345268104335894,189.35572828585845A197,197,0,0,1,-55.46174990508105,189.03172828249294L-48.031284356139366,163.70627881391624A170.6070045455344,170.6070045455344,0,0,0,-47.06438275383106,163.98687104765702Z" fill-rule="evenodd" style="fill: #1DC690; stroke: #fff; opacity: 1;" id="p-type-logs"></path><path d="M-55.46174990508105,189.03172828249294A197,197,0,0,1,-56.576300272981776,188.70114532620462L-48.99651328853869,163.4199855757124A170.6070045455344,170.6070045455344,0,0,0,-48.031284356139366,163.70627881391624Z" fill-rule="evenodd" style="fill: #1DC690; stroke: #fff; opacity: 1;" id="p-type-logs"></path><path d="M-56.576300272981776,188.70114532620462A197,197,0,0,1,-57.68888039427562,188.3639909294103L-49.960035937324726,163.12800130309088A170.6070045455344,170.6070045455344,0,0,0,-48.99651328853869,163.4199855757124Z" fill-rule="evenodd" style="fill: #1DC690; stroke: #fff; opacity: 1;" id="p-type-logs"></path><path d="M-57.68888039427562,188.3639909294103A197,197,0,0,1,-58.799451523813126,188.02027683337442L-50.92181874821379,162.830336164285A170.6070045455344,170.6070045455344,0,0,0,-49.960035937324726,163.12800130309088Z" fill-rule="evenodd" style="fill: #1DC690; stroke: #fff; opacity: 1;" id="p-type-logs"></path><path d="M-58.799451523813126,188.02027683337442A197,197,0,0,1,-59.90797498640718,187.67001500780034L-51.88182822751133,162.52700052536196A170.6070045455344,170.6070045455344,0,0,0,-50.92181874821379,162.830336164285Z" fill-rule="evenodd" style="fill: #1DC690; stroke: #fff; opacity: 1;" id="p-type-logs"></path><path d="M-59.90797498640718,187.67001500780034A197,197,0,0,1,-61.01441217817983,187.31321765041352L-52.84003094327836,162.21800494986178A170.6070045455344,170.6070045455344,0,0,0,-51.88182822751133,162.52700052536196Z" fill-rule="evenodd" style="fill: #1DC690; stroke: #fff; opacity: 1;" id="p-type-logs"></path><path d="M-61.01441217817983,187.31321765041352A197,197,0,0,1,-62.11872456790664,186.94989718653645L-53.79639352649568,161.9033601984295A170.6070045455344,170.6070045455344,0,0,0,-52.84003094327836,162.21800494986178Z" fill-rule="evenodd" style="fill: #1DC690; stroke: #fff; opacity: 1;" id="p-type-logs"></path><path d="M-62.11872456790664,186.94989718653645A197,197,0,0,1,-63.22087369835857,186.58006626865637L-54.75088267222598,161.58307722844043A170.6070045455344,170.6070045455344,0,0,0,-53.79639352649568,161.9033601984295Z" fill-rule="evenodd" style="fill: #1DC690; stroke: #fff; opacity: 1;" id="p-type-logs"></path><path d="M-63.22087369835857,186.58006626865637A197,197,0,0,1,-64.32082118764117,186.20373777598422L-55.703465140773616,161.25716719361847A170.6070045455344,170.6070045455344,0,0,0,-54.75088267222598,161.58307722844043Z" fill-rule="evenodd" style="fill: #1DC690; stroke: #fff; opacity: 1;" id="p-type-logs"></path><path d="M-64.32082118764117,186.20373777598422A197,197,0,0,1,-65.41852873053126,185.82092481400647L-56.65410775884224,160.92564144364778A170.6070045455344,170.6070045455344,0,0,0,-55.703465140773616,161.25716719361847Z" fill-rule="evenodd" style="fill: #1DC690; stroke: #fff; opacity: 1;" id="p-type-logs"></path><path d="M-65.41852873053126,185.82092481400647A197,197,0,0,1,-66.51395809981092,185.43164071402862L-57.60277742068998,160.58851152377758A170.6070045455344,170.6070045455344,0,0,0,-56.65410775884224,160.92564144364778Z" fill-rule="evenodd" style="fill: #1DC690; stroke: #fff; opacity: 1;" id="p-type-logs"></path><path d="M-66.51395809981092,185.43164071402862A197,197,0,0,1,-67.6070711475986,185.03589903271077L-58.549441089282354,160.24578917441997A170.6070045455344,170.6070045455344,0,0,0,-57.60277742068998,160.58851152377758Z" fill-rule="evenodd" style="fill: #1DC690; stroke: #fff; opacity: 1;" id="p-type-logs"></path><path d="M-67.6070711475986,185.03589903271077A197,197,0,0,1,-68.69782980667782,184.63371355159578L-59.49406579744281,159.89748633074112A170.6070045455344,170.6070045455344,0,0,0,-58.549441089282354,160.24578917441997Z" fill-rule="evenodd" style="fill: #1DC690; stroke: #fff; opacity: 1;" id="p-type-logs"></path><path d="M-68.69782980667782,184.63371355159578A197,197,0,0,1,-69.78619609182265,184.22509827662918L-60.436618649000714,159.54361512224565A170.6070045455344,170.6070045455344,0,0,0,-59.49406579744281,159.89748633074112Z" fill-rule="evenodd" style="fill: #1DC690; stroke: #fff; opacity: 1;" id="p-type-logs"></path><path d="M-69.78619609182265,184.22509827662918A197,197,0,0,1,-70.87213210112061,183.8100674376714L-61.37706681993705,159.18418787235427A170.6070045455344,170.6070045455344,0,0,0,-60.436618649000714,159.54361512224565Z" fill-rule="evenodd" style="fill: #1DC690; stroke: #fff; opacity: 1;" id="p-type-logs"></path><path d="M-70.87213210112061,183.8100674376714A197,197,0,0,1,-71.95560001729262,183.38863548800236L-62.3153775595274,158.81921709797447A170.6070045455344,170.6070045455344,0,0,0,-61.37706681993705,159.18418787235427Z" fill-rule="evenodd" style="fill: #1DC690; stroke: #fff; opacity: 1;" id="p-type-logs"></path><path d="M-71.95560001729262,183.38863548800236A197,197,0,0,1,-73.03656210900992,182.960817103818L-63.251518191482546,158.4487155090648A170.6070045455344,170.6070045455344,0,0,0,-62.3153775595274,158.81921709797447Z" fill-rule="evenodd" style="fill: #1DC690; stroke: #fff; opacity: 1;" id="p-type-logs"></path><path d="M-73.03656210900992,182.960817103818A197,197,0,0,1,-74.11498073220808,182.5266271837192L-64.1854561150864,158.0726960081921A170.6070045455344,170.6070045455344,0,0,0,-63.251518191482546,158.4487155090648Z" fill-rule="evenodd" style="fill: #1DC690; stroke: #fff; opacity: 1;" id="p-type-logs"></path><path d="M-74.11498073220808,182.5266271837192A197,197,0,0,1,-75.19081833139789,182.08608084819312L-65.11715880633123,157.69117169008237A170.6070045455344,170.6070045455344,0,0,0,-64.1854561150864,158.0726960081921Z" fill-rule="evenodd" style="fill: #1DC690; stroke: #fff; opacity: 1;" id="p-type-logs"></path><path d="M-75.19081833139789,182.08608084819312A197,197,0,0,1,-76.2640374409733,181.6391934390863L-66.04659381905044,157.3041558411645A170.6070045455344,170.6070045455344,0,0,0,-65.11715880633123,157.69117169008237Z" fill-rule="evenodd" style="fill: #1DC690; stroke: #fff; opacity: 1;" id="p-type-logs"></path><path d="M-76.2640374409733,181.6391934390863A197,197,0,0,1,-77.33460068651603,181.18598051907082L-66.97372878604837,156.91166193910774A170.6070045455344,170.6070045455344,0,0,0,-66.04659381905044,157.3041558411645Z" fill-rule="evenodd" style="fill: #1DC690; stroke: #fff; opacity: 1;" id="p-type-logs"></path><path d="M-77.33460068651603,181.18598051907082A197,197,0,0,1,-78.40247078609724,180.7264578711019L-67.89853142022751,156.51370365235235A170.6070045455344,170.6070045455344,0,0,0,-66.97372878604837,156.91166193910774Z" fill-rule="evenodd" style="fill: #1DC690; stroke: #fff; opacity: 1;" id="p-type-logs"></path><path d="M-78.40247078609724,180.7264578711019A197,197,0,0,1,-79.46761055157579,180.26064149786853L-68.82096951571293,156.11029483963353A170.6070045455344,170.6070045455344,0,0,0,-67.89853142022751,156.51370365235235Z" fill-rule="evenodd" style="fill: #1DC690; stroke: #fff; opacity: 1;" id="p-type-logs"></path><path d="M-79.46761055157579,180.26064149786853A197,197,0,0,1,-80.52998288989329,179.78854762123615L-69.74101094897377,155.7014495494988A170.6070045455344,170.6070045455344,0,0,0,-68.82096951571293,156.11029483963353Z" fill-rule="evenodd" style="fill: #1DC690; stroke: #fff; opacity: 1;" id="p-type-logs"></path><path d="M-80.52998288989329,179.78854762123615A197,197,0,0,1,-81.58955080436589,179.31019268168166L-70.65862367994193,155.28718201981886A170.6070045455344,170.6070045455344,0,0,0,-69.74101094897377,155.7014495494988Z" fill-rule="evenodd" style="fill: #1DC690; stroke: #fff; opacity: 1;" id="p-type-logs"></path><path d="M-81.58955080436589,179.31019268168166A197,197,0,0,1,-82.64627739597263,178.82559333772093L-71.57377575312792,154.8675066772916A170.6070045455344,170.6070045455344,0,0,0,-70.65862367994193,155.28718201981886Z" fill-rule="evenodd" style="fill: #1DC690; stroke: #fff; opacity: 1;" id="p-type-logs"></path><path d="M-82.64627739597263,178.82559333772093A197,197,0,0,1,-83.70012586464053,178.33476646532873L-72.48643529873364,154.44243813693987A170.6070045455344,170.6070045455344,0,0,0,-71.57377575312792,154.8675066772916Z" fill-rule="evenodd" style="fill: #1DC690; stroke: #fff; opacity: 1;" id="p-type-logs"></path><path d="M-83.70012586464053,178.33476646532873A197,197,0,0,1,-84.75105951052599,177.83772915735085L-73.39657053376226,154.0119912016024A170.6070045455344,170.6070045455344,0,0,0,-72.48643529873364,154.44243813693987Z" fill-rule="evenodd" style="fill: #1DC690; stroke: #fff; opacity: 1;" id="p-type-logs"></path><path d="M-84.75105951052599,177.83772915735085A197,197,0,0,1,-85.79904173529296,177.3344987229091L-74.30414976312498,153.57618086141838A170.6070045455344,170.6070045455344,0,0,0,-73.39657053376226,154.0119912016024Z" fill-rule="evenodd" style="fill: #1DC690; stroke: #fff; opacity: 1;" id="p-type-logs"></path><path d="M-85.79904173529296,177.3344987229091A197,197,0,0,1,-86.84403604338745,176.82509268679834L-75.20914138074495,153.13502229330533A170.6070045455344,170.6070045455344,0,0,0,-74.30414976312498,153.57618086141838Z" fill-rule="evenodd" style="fill: #1DC690; stroke: #fff; opacity: 1;" id="p-type-logs"></path><path d="M-86.84403604338745,176.82509268679834A197,197,0,0,1,-87.88600604330841,176.30952878887618L-76.11151387065779,152.6885308604306A170.6070045455344,170.6070045455344,0,0,0,-75.20914138074495,153.13502229330533Z" fill-rule="evenodd" style="fill: #1DC690; stroke: #fff; opacity: 1;" id="p-type-logs"></path><path d="M-87.88600604330841,176.30952878887618A197,197,0,0,1,-88.92491544887513,175.78782498344535L-77.01123580810913,152.23672211167647A170.6070045455344,170.6070045455344,0,0,0,-76.11151387065779,152.6885308604306Z" fill-rule="evenodd" style="fill: #1DC690; stroke: #fff; opacity: 1;" id="p-type-logs"></path><path d="M-88.92491544887513,175.78782498344535A197,197,0,0,1,-89.96072808049078,175.2599994386283L-77.90827586064913,151.77961178109857A170.6070045455344,170.6070045455344,0,0,0,-77.01123580810913,152.23672211167647Z" fill-rule="evenodd" style="fill: #1DC690; stroke: #fff; opacity: 1;" id="p-type-logs"></path><path d="M-89.96072808049078,175.2599994386283A197,197,0,0,1,-90.99340786640253,174.72607053573464L-78.80260278922337,151.3172157873779A170.6070045455344,170.6070045455344,0,0,0,-77.90827586064913,151.77961178109857Z" fill-rule="evenodd" style="fill: #1DC690; stroke: #fff; opacity: 1;" id="p-type-logs"></path><path d="M-90.99340786640253,174.72607053573464A197,197,0,0,1,-92.02291884395756,174.18605686862082L-79.69418544926096,150.84955023326654A170.6070045455344,170.6070045455344,0,0,0,-78.80260278922337,151.3172157873779Z" fill-rule="evenodd" style="fill: #1DC690; stroke: #fff; opacity: 1;" id="p-type-logs"></path><path d="M-92.02291884395756,174.18605686862082A197,197,0,0,1,-93.04922516085546,173.6399772430428L-80.582992791759,150.37663140502687A170.6070045455344,170.6070045455344,0,0,0,-79.69418544926096,150.84955023326654Z" fill-rule="evenodd" style="fill: #1DC690; stroke: #fff; opacity: 1;" id="p-type-logs"></path><path d="M-93.04922516085546,173.6399772430428A197,197,0,0,1,-94.07229107639694,173.0878506760011L-81.4689938643639,149.89847577186447A170.6070045455344,170.6070045455344,0,0,0,-80.582992791759,150.37663140502687Z" fill-rule="evenodd" style="fill: #1DC690; stroke: #fff; opacity: 1;" id="p-type-logs"></path><path d="M-94.07229107639694,173.0878506760011A197,197,0,0,1,-95.09208096272826,172.52969639507842L-82.35215781244926,149.41509998535437A170.6070045455344,170.6070045455344,0,0,0,-81.4689938643639,149.89847577186447Z" fill-rule="evenodd" style="fill: #1DC690; stroke: #fff; opacity: 1;" id="p-type-logs"></path><path d="M-95.09208096272826,172.52969639507842A197,197,0,0,1,-96.10855930608214,171.9655338377702L-83.23245388019046,148.9265208788615A170.6070045455344,170.6070045455344,0,0,0,-82.35215781244926,149.41509998535437Z" fill-rule="evenodd" style="fill: #1DC690; stroke: #fff; opacity: 1;" id="p-type-logs"></path><path d="M-96.10855930608214,171.9655338377702A197,197,0,0,1,-97.12169070801438,171.39538265080768L-84.10985141163552,148.4327554669541A170.6070045455344,170.6070045455344,0,0,0,-83.23245388019046,148.9265208788615Z" fill-rule="evenodd" style="fill: #1DC690; stroke: #fff; opacity: 1;" id="p-type-logs"></path><path d="M-97.12169070801438,171.39538265080768A197,197,0,0,1,-98.1314398866367,170.81926268947365L-84.98431985177292,147.93382094481152A170.6070045455344,170.6070045455344,0,0,0,-84.10985141163552,148.4327554669541Z" fill-rule="evenodd" style="fill: #1DC690; stroke: #fff; opacity: 1;" id="p-type-logs"></path><path d="M-98.1314398866367,170.81926268947365A197,197,0,0,1,-99.13777167784534,170.23719401691105L-85.8558287475955,147.4297346876252A170.6070045455344,170.6070045455344,0,0,0,-84.98431985177292,147.93382094481152Z" fill-rule="evenodd" style="fill: #1DC690; stroke: #fff; opacity: 1;" id="p-type-logs"></path><path d="M-99.13777167784534,170.23719401691105A197,197,0,0,1,-100.14065103654563,169.64919690342418L-86.724347749161,146.9205142499937A170.6070045455344,170.6070045455344,0,0,0,-85.8558287475955,147.4297346876252Z" fill-rule="evenodd" style="fill: #1DC690; stroke: #fff; opacity: 1;" id="p-type-logs"></path><path d="M-100.14065103654563,169.64919690342418A197,197,0,0,1,-101.14004303787253,169.05529182577305L-87.58984661064906,146.40617736531124A170.6070045455344,170.6070045455344,0,0,0,-86.724347749161,146.9205142499937Z" fill-rule="evenodd" style="fill: #1DC690; stroke: #fff; opacity: 1;" id="p-type-logs"></path><path d="M-101.14004303787253,169.05529182577305A197,197,0,0,1,-102.13591287840676,168.45549946646L-88.45229519141446,145.8867419451503A170.6070045455344,170.6070045455344,0,0,0,-87.58984661064906,146.40617736531124Z" fill-rule="evenodd" style="fill: #1DC690; stroke: #fff; opacity: 1;" id="p-type-logs"></path><path d="M-102.13591287840676,168.45549946646A197,197,0,0,1,-103.12822587738683,167.84984071300957L-89.31166345703672,145.3622260786378A170.6070045455344,170.6070045455344,0,0,0,-88.45229519141446,145.8867419451503Z" fill-rule="evenodd" style="fill: #1DC690; stroke: #fff; opacity: 1;" id="p-type-logs"></path><path d="M-103.12822587738683,167.84984071300957A197,197,0,0,1,-104.11694747791687,167.23833665724106L-90.16792148036615,144.8326480318251A170.6070045455344,170.6070045455344,0,0,0,-89.31166345703672,145.3622260786378Z" fill-rule="evenodd" style="fill: #1DC690; stroke: #fff; opacity: 1;" id="p-type-logs"></path><path d="M-104.11694747791687,167.23833665724106A197,197,0,0,1,-105.10204324816992,166.62100859453415L-91.0210394425659,144.29802624705184A170.6070045455344,170.6070045455344,0,0,0,-90.16792148036615,144.8326480318251Z" fill-rule="evenodd" style="fill: #1DC690; stroke: #fff; opacity: 1;" id="p-type-logs"></path><path d="M-105.10204324816992,166.62100859453415A197,197,0,0,1,-106.08347888258719,165.99787802308705L-91.87098763415054,143.75837934230395A170.6070045455344,170.6070045455344,0,0,0,-91.0210394425659,144.29802624705184Z" fill-rule="evenodd" style="fill: #1DC690; stroke: #fff; opacity: 1;" id="p-type-logs"></path><path d="M-106.08347888258719,165.99787802308705A197,197,0,0,1,-107.0612202030725,165.36896664316802L-92.71773645602056,143.21372611056495A170.6070045455344,170.6070045455344,0,0,0,-91.87098763415054,143.75837934230395Z" fill-rule="evenodd" style="fill: #1DC690; stroke: #fff; opacity: 1;" id="p-type-logs"></path><path d="M-107.0612202030725,165.36896664316802A197,197,0,0,1,-108.03523316018274,164.73429635635972L-93.56125642049324,142.6640855191618A170.6070045455344,170.6070045455344,0,0,0,-92.71773645602056,143.21372611056495Z" fill-rule="evenodd" style="fill: #1DC690; stroke: #fff; opacity: 1;" id="p-type-logs"></path><path d="M-108.03523316018274,164.73429635635972A197,197,0,0,1,-109.00548383431351,164.09388926479627L-94.40151815232944,142.10947670910414A170.6070045455344,170.6070045455344,0,0,0,-93.56125642049324,142.6640855191618Z" fill-rule="evenodd" style="fill: #1DC690; stroke: #fff; opacity: 1;" id="p-type-logs"></path><path d="M-109.00548383431351,164.09388926479627A197,197,0,0,1,-109.97193843688035,163.44776767039372L-95.23849238975673,141.54991899441782A170.6070045455344,170.6070045455344,0,0,0,-94.40151815232944,142.10947670910414Z" fill-rule="evenodd" style="fill: #1DC690; stroke: #fff; opacity: 1;" id="p-type-logs"></path><path d="M-109.97193843688035,163.44776767039372A197,197,0,0,1,-110.93456331149554,162.7959540740733L-96.0721499854883,140.98543186147228A170.6070045455344,170.6070045455344,0,0,0,-95.23849238975673,141.54991899441782Z" fill-rule="evenodd" style="fill: #1DC690; stroke: #fff; opacity: 1;" id="p-type-logs"></path><path d="M-110.93456331149554,162.7959540740733A197,197,0,0,1,-111.89332493513994,162.13847117497806L-96.90246190773796,140.41603496830194A170.6070045455344,170.6070045455344,0,0,0,-96.0721499854883,140.98543186147228Z" fill-rule="evenodd" style="fill: #1DC690; stroke: #fff; opacity: 1;" id="p-type-logs"></path><path d="M-111.89332493513994,162.13847117497806A197,197,0,0,1,-112.84818991933065,161.47534186968198L-97.72939924123135,139.84174814392162A170.6070045455344,170.6070045455344,0,0,0,-96.90246190773796,140.41603496830194Z" fill-rule="evenodd" style="fill: #1DC690; stroke: #fff; opacity: 1;" id="p-type-logs"></path><path d="M-112.84818991933065,161.47534186968198A197,197,0,0,1,-113.79912501128366,160.80658925139304L-98.55293318821275,139.262591387636A170.6070045455344,170.6070045455344,0,0,0,-97.72939924123135,139.84174814392162Z" fill-rule="evenodd" style="fill: #1DC690; stroke: #fff; opacity: 1;" id="p-type-logs"></path><path d="M-113.79912501128366,160.80658925139304A197,197,0,0,1,-114.74609709507176,160.13223660914863L-99.37303506944792,138.67858486834322A170.6070045455344,170.6070045455344,0,0,0,-98.55293318821275,139.262591387636Z" fill-rule="evenodd" style="fill: #1DC690; stroke: #fff; opacity: 1;" id="p-type-logs"></path><path d="M-114.74609709507176,160.13223660914863A197,197,0,0,1,-115.68907319277797,159.45230742700483L-100.18967632522302,138.0897489238323A170.6070045455344,170.6070045455344,0,0,0,-99.37303506944792,138.67858486834322Z" fill-rule="evenodd" style="fill: #1DC690; stroke: #fff; opacity: 1;" id="p-type-logs"></path><path d="M-115.68907319277797,159.45230742700483A197,197,0,0,1,-116.62802046564387,158.7668253832184L-101.002828516339,137.49610406007517A170.6070045455344,170.6070045455344,0,0,0,-100.18967632522302,138.0897489238323Z" fill-rule="evenodd" style="fill: #1DC690; stroke: #fff; opacity: 1;" id="p-type-logs"></path><path d="M-116.62802046564387,158.7668253832184A197,197,0,0,1,-117.56290621521322,158.07581434942216L-101.81246332510212,136.89767095051226A170.6070045455344,170.6070045455344,0,0,0,-101.002828516339,137.49610406007517Z" fill-rule="evenodd" style="fill: #1DC690; stroke: #fff; opacity: 1;" id="p-type-logs"></path><path d="M-117.56290621521322,158.07581434942216A197,197,0,0,1,-118.49369788447069,157.37929838979392L-102.61855255631001,136.29447043533293A170.6070045455344,170.6070045455344,0,0,0,-101.81246332510212,136.89767095051226Z" fill-rule="evenodd" style="fill: #1DC690; stroke: #fff; opacity: 1;" id="p-type-logs"></path><path d="M-118.49369788447069,157.37929838979392A197,197,0,0,1,-119.42036305897562,156.67730176021814L-103.42106813823362,135.68652352074923A170.6070045455344,170.6070045455344,0,0,0,-102.61855255631001,136.29447043533293Z" fill-rule="evenodd" style="fill: #1DC690; stroke: #fff; opacity: 1;" id="p-type-logs"></path><path d="M-119.42036305897562,156.67730176021814A197,197,0,0,1,-120.34286946799084,155.96984890744147L-104.21998212359475,135.0738513782649A170.6070045455344,170.6070045455344,0,0,0,-103.42106813823362,135.68652352074923Z" fill-rule="evenodd" style="fill: #1DC690; stroke: #fff; opacity: 1;" id="p-type-logs"></path><path d="M-120.34286946799084,155.96984890744147A197,197,0,0,1,-121.26118498560649,155.25696446822127L-105.01526669053936,134.45647534393757A170.6070045455344,170.6070045455344,0,0,0,-104.21998212359475,135.0738513782649Z" fill-rule="evenodd" style="fill: #1DC690; stroke: #fff; opacity: 1;" id="p-type-logs"></path><path d="M-121.26118498560649,155.25696446822127A197,197,0,0,1,-122.1752776318588,154.53867326846773L-105.80689414360641,133.8344169176362A170.6070045455344,170.6070045455344,0,0,0,-105.01526669053936,134.45647534393757Z" fill-rule="evenodd" style="fill: #1DC690; stroke: #fff; opacity: 1;" id="p-type-logs"></path><path d="M-122.1752776318588,154.53867326846773A197,197,0,0,1,-123.08511557384382,153.8150003223792L-106.5948369146924,133.20769776229199A170.6070045455344,170.6070045455344,0,0,0,-105.80689414360641,133.8344169176362Z" fill-rule="evenodd" style="fill: #1DC690; stroke: #fff; opacity: 1;" id="p-type-logs"></path><path d="M-123.08511557384382,153.8150003223792A197,197,0,0,1,-123.99066712682587,153.0859708315712L-107.3790675640113,132.5763397031442A170.6070045455344,170.6070045455344,0,0,0,-106.5948369146924,133.20769776229199Z" fill-rule="evenodd" style="fill: #1DC690; stroke: #fff; opacity: 1;" id="p-type-logs"></path><path d="M-123.99066712682587,153.0859708315712A197,197,0,0,1,-124.89190075534106,152.3516101841987L-108.15955878105028,131.94036472698008A170.6070045455344,170.6070045455344,0,0,0,-107.3790675640113,132.5763397031442Z" fill-rule="evenodd" style="fill: #1DC690; stroke: #fff; opacity: 1;" id="p-type-logs"></path><path d="M-124.89190075534106,152.3516101841987A197,197,0,0,1,-125.78878507429546,151.6119439540721L-108.9362833855207,131.299794981369A170.6070045455344,170.6070045455344,0,0,0,-108.15955878105028,131.94036472698008Z" fill-rule="evenodd" style="fill: #1DC690; stroke: #fff; opacity: 1;" id="p-type-logs"></path><path d="M-125.78878507429546,151.6119439540721A197,197,0,0,1,-126.68128885005807,150.86699789976652L-109.70921432830464,130.65465277389137A170.6070045455344,170.6070045455344,0,0,0,-108.9362833855207,131.299794981369Z" fill-rule="evenodd" style="fill: #1DC690; stroke: #fff; opacity: 1;" id="p-type-logs"></path><path d="M-178.10763400243061,84.18236579032586A197,197,0,0,1,-178.6013106291982,83.12984928130601L-154.67327215408133,71.99256129038257A170.6070045455344,170.6070045455344,0,0,0,-154.24573565404597,72.90406732509626Z" fill-rule="evenodd" style="fill: #D7A449; stroke: #fff; opacity: 1;" id="p-type-tokenTransfers"></path><path d="M-178.6013106291982,83.12984928130601A197,197,0,0,1,-179.08876753808823,82.0744378091534L-155.09542222043032,71.07854814405286A170.6070045455344,170.6070045455344,0,0,0,-154.67327215408133,71.99256129038257Z" fill-rule="evenodd" style="fill: #D7A449; stroke: #fff; opacity: 1;" id="p-type-tokenTransfers"></path><path d="M-179.08876753808823,82.0744378091534A197,197,0,0,1,-179.56998775361248,81.01616812814255L-155.51217115188896,70.16205971624262A170.6070045455344,170.6070045455344,0,0,0,-155.09542222043032,71.07854814405286Z" fill-rule="evenodd" style="fill: #D7A449; stroke: #fff; opacity: 1;" id="p-type-tokenTransfers"></path><path d="M-179.56998775361248,81.01616812814255A197,197,0,0,1,-180.04495451747297,79.95507709208397L-155.92350443534542,69.24312792328793A170.6070045455344,170.6070045455344,0,0,0,-155.51217115188896,70.16205971624262Z" fill-rule="evenodd" style="fill: #D7A449; stroke: #fff; opacity: 1;" id="p-type-tokenTransfers"></path><path d="M-180.04495451747297,79.95507709208397A197,197,0,0,1,-180.51365128914566,78.89120165304067L-156.3294077462857,68.32178476661412A170.6070045455344,170.6070045455344,0,0,0,-155.92350443534542,69.24312792328793Z" fill-rule="evenodd" style="fill: #D7A449; stroke: #fff; opacity: 1;" id="p-type-tokenTransfers"></path><path d="M-180.51365128914566,78.89120165304067A197,197,0,0,1,-180.97606174645642,77.82457886004136L-156.72986694929241,67.3980623316212A170.6070045455344,170.6070045455344,0,0,0,-156.3294077462857,68.32178476661412Z" fill-rule="evenodd" style="fill: #D7A449; stroke: #fff; opacity: 1;" id="p-type-tokenTransfers"></path><path d="M-180.97606174645642,77.82457886004136A197,197,0,0,1,-181.43216978614947,76.75524585779027L-157.12486809853692,66.47199278656667A170.6070045455344,170.6070045455344,0,0,0,-156.72986694929241,67.3980623316212Z" fill-rule="evenodd" style="fill: #D7A449; stroke: #fff; opacity: 1;" id="p-type-tokenTransfers"></path><path d="M-181.43216978614947,76.75524585779027A197,197,0,0,1,-181.88195952444818,75.68323988537354L-157.51439743826515,65.54360838144514A170.6070045455344,170.6070045455344,0,0,0,-157.12486809853692,66.47199278656667Z" fill-rule="evenodd" style="fill: #D7A449; stroke: #fff; opacity: 1;" id="p-type-tokenTransfers"></path><path d="M-181.88195952444818,75.68323988537354A197,197,0,0,1,-182.32541529760815,74.60859827496238L-157.89844140327656,64.61294144686526A170.6070045455344,170.6070045455344,0,0,0,-157.51439743826515,65.54360838144514Z" fill-rule="evenodd" style="fill: #D7A449; stroke: #fff; opacity: 1;" id="p-type-tokenTransfers"></path><path d="M-182.32541529760815,74.60859827496238A197,197,0,0,1,-182.76252166246272,73.53135845051307L-158.2769866193965,63.68002439292387A170.6070045455344,170.6070045455344,0,0,0,-157.89844140327656,64.61294144686526Z" fill-rule="evenodd" style="fill: #D7A449; stroke: #fff; opacity: 1;" id="p-type-tokenTransfers"></path><path d="M-182.76252166246272,73.53135845051307A197,197,0,0,1,-183.19326339696087,72.4515579264636L-158.65001990394208,62.74488970807728A170.6070045455344,170.6070045455344,0,0,0,-158.2769866193965,63.68002439292387Z" fill-rule="evenodd" style="fill: #D7A449; stroke: #fff; opacity: 1;" id="p-type-tokenTransfers"></path><path d="M-183.19326339696087,72.4515579264636A197,197,0,0,1,-183.6176255006972,71.3692343064273L-159.0175282661811,61.807569958009914A170.6070045455344,170.6070045455344,0,0,0,-158.65001990394208,62.74488970807728Z" fill-rule="evenodd" style="fill: #D7A449; stroke: #fff; opacity: 1;" id="p-type-tokenTransfers"></path><path d="M-183.6176255006972,71.3692343064273A197,197,0,0,1,-184.03559319543425,70.28442528188327L-159.37949890778464,60.868097784500165A170.6070045455344,170.6070045455344,0,0,0,-159.0175282661811,61.807569958009914Z" fill-rule="evenodd" style="fill: #D7A449; stroke: #fff; opacity: 1;" id="p-type-tokenTransfers"></path><path d="M-184.03559319543425,70.28442528188327A197,197,0,0,1,-184.44715192561742,69.19716863086383L-159.73591922327253,59.926505904283744A170.6070045455344,170.6070045455344,0,0,0,-159.37949890778464,60.868097784500165Z" fill-rule="evenodd" style="fill: #D7A449; stroke: #fff; opacity: 1;" id="p-type-tokenTransfers"></path><path d="M-184.44715192561742,69.19716863086383A197,197,0,0,1,-184.85228735888157,68.10750221663889L-160.0867768004525,58.98282710791425A170.6070045455344,170.6070045455344,0,0,0,-159.73591922327253,59.926505904283744Z" fill-rule="evenodd" style="fill: #D7A449; stroke: #fff; opacity: 1;" id="p-type-tokenTransfers"></path><path d="M-184.85228735888157,68.10750221663889A197,197,0,0,1,-185.2509853865503,67.01546398639736L-160.43205942085237,58.03709425862129A170.6070045455344,170.6070045455344,0,0,0,-160.0867768004525,58.98282710791425Z" fill-rule="evenodd" style="fill: #D7A449; stroke: #fff; opacity: 1;" id="p-type-tokenTransfers"></path><path d="M-185.2509853865503,67.01546398639736A197,197,0,0,1,-185.64323212412728,65.92109196992573L-160.77175506014558,57.08934029116604A170.6070045455344,170.6070045455344,0,0,0,-160.43205942085237,58.03709425862129Z" fill-rule="evenodd" style="fill: #D7A449; stroke: #fff; opacity: 1;" id="p-type-tokenTransfers"></path><path d="M-185.64323212412728,65.92109196992573A197,197,0,0,1,-186.0290139117796,64.82442427828356L-161.10585188856987,56.13959821069429A170.6070045455344,170.6070045455344,0,0,0,-160.77175506014558,57.08934029116604Z" fill-rule="evenodd" style="fill: #D7A449; stroke: #fff; opacity: 1;" id="p-type-tokenTransfers"></path><path d="M-186.0290139117796,64.82442427828356A197,197,0,0,1,-186.4083173148137,63.72549910247644L-161.4343382713393,55.18790109158704A170.6070045455344,170.6070045455344,0,0,0,-161.10585188856987,56.13959821069429Z" fill-rule="evenodd" style="fill: #D7A449; stroke: #fff; opacity: 1;" id="p-type-tokenTransfers"></path><path d="M-186.4083173148137,63.72549910247644A197,197,0,0,1,-186.78112912414315,62.62435471212588L-161.75720276904946,54.23428207630873A170.6070045455344,170.6070045455344,0,0,0,-161.4343382713393,55.18790109158704Z" fill-rule="evenodd" style="fill: #D7A449; stroke: #fff; opacity: 1;" id="p-type-tokenTransfers"></path><path d="M-186.78112912414315,62.62435471212588A197,197,0,0,1,-187.14743635674856,61.521029454136674L-162.0744341380757,53.27877437425306A170.6070045455344,170.6070045455344,0,0,0,-161.75720276904946,54.23428207630873Z" fill-rule="evenodd" style="fill: #D7A449; stroke: #fff; opacity: 1;" id="p-type-tokenTransfers"></path><path d="M-187.14743635674856,61.521029454136674A197,197,0,0,1,-187.50722625612974,60.41556175136141L-162.38602133096487,52.321411260586444A170.6070045455344,170.6070045455344,0,0,0,-162.0744341380757,53.27877437425306Z" fill-rule="evenodd" style="fill: #D7A449; stroke: #fff; opacity: 1;" id="p-type-tokenTransfers"></path><path d="M-187.50722625612974,60.41556175136141A197,197,0,0,1,-187.86048629275012,59.30799010126244L-162.6919534968199,51.36222607508929A170.6070045455344,170.6070045455344,0,0,0,-162.38602133096487,52.321411260586444Z" fill-rule="evenodd" style="fill: #D7A449; stroke: #fff; opacity: 1;" id="p-type-tokenTransfers"></path><path d="M-187.86048629275012,59.30799010126244A197,197,0,0,1,-188.2072041644728,58.19835307457124L-162.99221998167783,50.401252220994884A170.6070045455344,170.6070045455344,0,0,0,-162.6919534968199,51.36222607508929Z" fill-rule="evenodd" style="fill: #D7A449; stroke: #fff; opacity: 1;" id="p-type-tokenTransfers"></path><path d="M-188.2072041644728,58.19835307457124A197,197,0,0,1,-188.54736779698914,57.08668931394518L-163.2868103288806,49.43852316382617A170.6070045455344,170.6070045455344,0,0,0,-162.99221998167783,50.401252220994884Z" fill-rule="evenodd" style="fill: #D7A449; stroke: #fff; opacity: 1;" id="p-type-tokenTransfers"></path><path d="M-188.54736779698914,57.08668931394518A197,197,0,0,1,-188.88096534423926,55.97303753262182L-163.57571427943935,48.47407243023035A170.6070045455344,170.6070045455344,0,0,0,-163.2868103288806,49.43852316382617Z" fill-rule="evenodd" style="fill: #D7A449; stroke: #fff; opacity: 1;" id="p-type-tokenTransfers"></path><path d="M-188.88096534423926,55.97303753262182A197,197,0,0,1,-189.20798518882447,54.85743651307073L-163.8589217723918,47.507933606811285A170.6070045455344,170.6070045455344,0,0,0,-163.57571427943935,48.47407243023035Z" fill-rule="evenodd" style="fill: #D7A449; stroke: #fff; opacity: 1;" id="p-type-tokenTransfers"></path><path d="M-189.20798518882447,54.85743651307073A197,197,0,0,1,-189.5284159424119,53.739925105642875L-164.1364229451523,46.540140338959866A170.6070045455344,170.6070045455344,0,0,0,-163.8589217723918,47.507933606811285Z" fill-rule="evenodd" style="fill: #D7A449; stroke: #fff; opacity: 1;" id="p-type-tokenTransfers"></path><path d="M-189.5284159424119,53.739925105642875A197,197,0,0,1,-189.84224644613116,52.62054222721776L-164.40820813385562,45.570726329682365A170.6070045455344,170.6070045455344,0,0,0,-164.1364229451523,46.540140338959866Z" fill-rule="evenodd" style="fill: #D7A449; stroke: #fff; opacity: 1;" id="p-type-tokenTransfers"></path><path d="M-189.84224644613116,52.62054222721776A197,197,0,0,1,-190.14946577096276,51.499326859848054L-164.6742678736933,44.599725338426694A170.6070045455344,170.6070045455344,0,0,0,-164.40820813385562,45.570726329682365Z" fill-rule="evenodd" style="fill: #D7A449; stroke: #fff; opacity: 1;" id="p-type-tokenTransfers"></path><path d="M-190.14946577096276,51.499326859848054A197,197,0,0,1,-190.45006321811888,50.376318049402116L-164.93459289924328,43.627171179906775A170.6070045455344,170.6070045455344,0,0,0,-164.6742678736933,44.599725338426694Z" fill-rule="evenodd" style="fill: #D7A449; stroke: #fff; opacity: 1;" id="p-type-tokenTransfers"></path><path d="M-190.45006321811888,50.376318049402116A197,197,0,0,1,-190.74402831941595,49.251554904204255L-165.1891741447926,42.65309772292494A170.6070045455344,170.6070045455344,0,0,0,-164.93459289924328,43.627171179906775Z" fill-rule="evenodd" style="fill: #D7A449; stroke: #fff; opacity: 1;" id="p-type-tokenTransfers"></path><path d="M-190.74402831941595,49.251554904204255A197,197,0,0,1,-191.03135083763905,48.12507659367275L-165.43800274465312,41.677538889192476A170.6070045455344,170.6070045455344,0,0,0,-165.1891741447926,42.65309772292494Z" fill-rule="evenodd" style="fill: #D7A449; stroke: #fff; opacity: 1;" id="p-type-tokenTransfers"></path><path d="M-191.03135083763905,48.12507659367275A197,197,0,0,1,-191.3120207668985,46.996922346955806L-165.68107003347018,40.700528652148314A170.6070045455344,170.6070045455344,0,0,0,-165.43800274465312,41.677538889192476Z" fill-rule="evenodd" style="fill: #D7A449; stroke: #fff; opacity: 1;" id="p-type-tokenTransfers"></path><path d="M-191.3120207668985,46.996922346955806A197,197,0,0,1,-191.58602833297843,45.867131451565456L-165.91836754652454,39.7221010357759A170.6070045455344,170.6070045455344,0,0,0,-165.68107003347018,40.700528652148314Z" fill-rule="evenodd" style="fill: #D7A449; stroke: #fff; opacity: 1;" id="p-type-tokenTransfers"></path><path d="M-191.58602833297843,45.867131451565456A197,197,0,0,1,-191.85336399367696,44.73574325200933L-166.14988702002697,38.742290113418356A170.6070045455344,170.6070045455344,0,0,0,-165.91836754652454,39.7221010357759Z" fill-rule="evenodd" style="fill: #D7A449; stroke: #fff; opacity: 1;" id="p-type-tokenTransfers"></path><path d="M-191.85336399367696,44.73574325200933A197,197,0,0,1,-192.11401843913862,43.60279714842052L-166.3756203914061,37.76113000659185A170.6070045455344,170.6070045455344,0,0,0,-166.14988702002697,38.742290113418356Z" fill-rule="evenodd" style="fill: #D7A449; stroke: #fff; opacity: 1;" id="p-type-tokenTransfers"></path><path d="M-192.11401843913862,43.60279714842052A197,197,0,0,1,-192.36798259217855,42.46833259518552L-166.5955597995893,36.77865488379737A170.6070045455344,170.6070045455344,0,0,0,-166.3756203914061,37.76113000659185Z" fill-rule="evenodd" style="fill: #D7A449; stroke: #fff; opacity: 1;" id="p-type-tokenTransfers"></path><path d="M-192.36798259217855,42.46833259518552A197,197,0,0,1,-192.61524760859857,41.332389099570186L-166.80969758527618,35.7948989593308A170.6070045455344,170.6070045455344,0,0,0,-166.5955597995893,36.77865488379737Z" fill-rule="evenodd" style="fill: #D7A449; stroke: #fff; opacity: 1;" id="p-type-tokenTransfers"></path><path d="M-192.61524760859857,41.332389099570186A197,197,0,0,1,-192.85580487749522,40.19500622034395L-167.0180262912057,34.80989649209139A170.6070045455344,170.6070045455344,0,0,0,-166.80969758527618,35.7948989593308Z" fill-rule="evenodd" style="fill: #D7A449; stroke: #fff; opacity: 1;" id="p-type-tokenTransfers"></path><path d="M-192.85580487749522,40.19500622034395A197,197,0,0,1,-193.08964602155964,39.056223566402196L-167.22053866241552,33.82368178438877A170.6070045455344,170.6070045455344,0,0,0,-167.0180262912057,34.80989649209139Z" fill-rule="evenodd" style="fill: #D7A449; stroke: #fff; opacity: 1;" id="p-type-tokenTransfers"></path><path d="M-193.08964602155964,39.056223566402196A197,197,0,0,1,-193.31676289736927,37.9160807953869L-167.4172276464948,32.83628918074834A170.6070045455344,170.6070045455344,0,0,0,-167.22053866241552,33.82368178438877Z" fill-rule="evenodd" style="fill: #D7A449; stroke: #fff; opacity: 1;" id="p-type-tokenTransfers"></path><path d="M-193.31676289736927,37.9160807953869A197,197,0,0,1,-193.53714759567143,36.774617612305526L-167.60808639382984,31.847753066715224A170.6070045455344,170.6070045455344,0,0,0,-167.4172276464948,32.83628918074834Z" fill-rule="evenodd" style="fill: #D7A449; stroke: #fff; opacity: 1;" id="p-type-tokenTransfers"></path><path d="M-193.53714759567143,36.774617612305526A197,197,0,0,1,-193.75079244165877,35.631873768148395L-167.7931082578425,30.85810786765686A170.6070045455344,170.6070045455344,0,0,0,-167.60808639382984,31.847753066715224Z" fill-rule="evenodd" style="fill: #D7A449; stroke: #fff; opacity: 1;" id="p-type-tokenTransfers"></path><path d="M-193.75079244165877,35.631873768148395A197,197,0,0,1,-193.9576899952366,34.487889058504294L-167.97228679522175,29.867388047564102A170.6070045455344,170.6070045455344,0,0,0,-167.7931082578425,30.85810786765686Z" fill-rule="evenodd" style="fill: #D7A449; stroke: #fff; opacity: 1;" id="p-type-tokenTransfers"></path><path d="M-193.9576899952366,34.487889058504294A197,197,0,0,1,-194.15783305128187,33.342703322174664L-168.145615766148,28.87562810785106A170.6070045455344,170.6070045455344,0,0,0,-167.97228679522175,29.867388047564102Z" fill-rule="evenodd" style="fill: #D7A449; stroke: #fff; opacity: 1;" id="p-type-tokenTransfers"></path><path d="M-194.15783305128187,33.342703322174664A197,197,0,0,1,-194.3512146398942,32.19635643978621L-168.31308913451048,27.88286258615356A170.6070045455344,170.6070045455344,0,0,0,-168.145615766148,28.87562810785106Z" fill-rule="evenodd" style="fill: #D7A449; stroke: #fff; opacity: 1;" id="p-type-tokenTransfers"></path><path d="M-194.3512146398942,32.19635643978621A197,197,0,0,1,-194.53782802663864,31.048888332402054L-168.47470106811738,26.889126055126436A170.6070045455344,170.6070045455344,0,0,0,-168.31308913451048,27.88286258615356Z" fill-rule="evenodd" style="fill: #D7A449; stroke: #fff; opacity: 1;" id="p-type-tokenTransfers"></path><path d="M-194.53782802663864,31.048888332402054A197,197,0,0,1,-194.7176667127799,29.900338960131556L-168.63044593889896,25.894453121239515A170.6070045455344,170.6070045455344,0,0,0,-168.47470106811738,26.889126055126436Z" fill-rule="evenodd" style="fill: #D7A449; stroke: #fff; opacity: 1;" id="p-type-tokenTransfers"></path><path d="M-194.7176667127799,29.900338960131556A197,197,0,0,1,-194.8907244355091,28.750748320738662L-168.78031832310353,24.898878423572473A170.6070045455344,170.6070045455344,0,0,0,-168.63044593889896,25.894453121239515Z" fill-rule="evenodd" style="fill: #D7A449; stroke: #fff; opacity: 1;" id="p-type-tokenTransfers"></path><path d="M-194.8907244355091,28.750748320738662A197,197,0,0,1,-195.0569951681615,27.600156448249024L-168.92431300148635,23.902436632608538A170.6070045455344,170.6070045455344,0,0,0,-168.78031832310353,24.898878423572473Z" fill-rule="evenodd" style="fill: #D7A449; stroke: #fff; opacity: 1;" id="p-type-tokenTransfers"></path><path d="M-195.0569951681615,27.600156448249024A197,197,0,0,1,-195.2164731204266,26.448603411555833L-169.06242495949144,22.90516244902712A170.6070045455344,170.6070045455344,0,0,0,-168.92431300148635,23.902436632608538Z" fill-rule="evenodd" style="fill: #D7A449; stroke: #fff; opacity: 1;" id="p-type-tokenTransfers"></path><path d="M-195.2164731204266,26.448603411555833A197,197,0,0,1,-195.36915273854967,25.296129313024426L-169.19464938742613,21.90709060249535A170.6070045455344,170.6070045455344,0,0,0,-169.06242495949144,22.90516244902712Z" fill-rule="evenodd" style="fill: #D7A449; stroke: #fff; opacity: 1;" id="p-type-tokenTransfers"></path><path d="M-195.36915273854967,25.296129313024426A197,197,0,0,1,-195.51502870552522,24.142774287095754L-169.3209816806286,20.908255850458662A170.6070045455344,170.6070045455344,0,0,0,-169.19464938742613,21.90709060249535Z" fill-rule="evenodd" style="fill: #D7A449; stroke: #fff; opacity: 1;" id="p-type-tokenTransfers"></path><path d="M-195.51502870552522,24.142774287095754A197,197,0,0,1,-195.65409594128212,22.9885784988887L-169.44141743962814,19.90869297693035A170.6070045455344,170.6070045455344,0,0,0,-169.3209816806286,20.908255850458662Z" fill-rule="evenodd" style="fill: #D7A449; stroke: #fff; opacity: 1;" id="p-type-tokenTransfers"></path><path d="M-195.65409594128212,22.9885784988887A197,197,0,0,1,-195.78634960286058,21.83358214280134L-169.5559524702986,18.90843679128024A170.6070045455344,170.6070045455344,0,0,0,-169.44141743962814,19.90869297693035Z" fill-rule="evenodd" style="fill: #D7A449; stroke: #fff; opacity: 1;" id="p-type-tokenTransfers"></path><path d="M-195.78634960286058,21.83358214280134A197,197,0,0,1,-195.91178508458069,20.677825441111224L-169.66458278400415,17.907522127022485A170.6070045455344,170.6070045455344,0,0,0,-169.5559524702986,18.90843679128024Z" fill-rule="evenodd" style="fill: #D7A449; stroke: #fff; opacity: 1;" id="p-type-tokenTransfers"></path></g></svg>