<svg xmlns="http://www.w3.org/2000/svg" width="400" height="400" id="block-7824874"><g id="burst-container" transform="translate(200,200)"><circle r="197" style="fill: #f9f9f9; stroke: #f9f9f9; stroke-width: 3; opacity: 1;" id="circle-base"></circle><path display="none" d="M6.031385485800715e-15,-98.5A98.5,98.5,0,1,1,-6.031385485800715e-15,98.5A98.5,98.5,0,1,1,6.031385485800715e-15,-98.5Z" fill-rule="evenodd" id="p-type-root" style="stroke: #fff; opacity: 1;"></path><path d="M8.529667153919608e-15,-139.30003589374985A139.30003589374985,139.30003589374985,0,1,1,-105.21485404044165,-91.2925763096242L-74.39813677354911,-64.55359978052563A98.5,98.5,0,1,0,6.031385485800715e-15,-98.5Z" fill-rule="evenodd" style="fill: #0B1F65; stroke: #fff; opacity: 1;" id="p-type-data"></path><path d="M-105.21485404044165,-91.2925763096242A139.30003589374985,139.30003589374985,0,0,1,-2.3155970809054525,-139.28078837427256L-1.63737439840402,-98.48638994845659A98.5,98.5,0,0,0,-74.39813677354911,-64.55359978052563Z" fill-rule="evenodd" style="fill: #D7A449; stroke: #fff; opacity: 1;" id="p-type-value"></path><path d="M1.0446666101440332e-14,-170.6070045455344A170.6070045455344,170.6070045455344,0,0,1,170.25650043443827,10.930419013840273L139.01385048543875,8.92464975290799A139.30003589374985,139.30003589374985,0,0,0,8.529667153919608e-15,-139.30003589374985Z" fill-rule="evenodd" style="fill: #DB3F29; stroke: #fff; opacity: 1;" id="p-type-functions"></path><path d="M170.25650043443827,10.930419013840273A170.6070045455344,170.6070045455344,0,0,1,41.0956648767905,165.58350258505382L33.55446986285108,135.19836371873373A139.30003589374985,139.30003589374985,0,0,0,139.01385048543875,8.92464975290799Z" fill-rule="evenodd" style="fill: #1DC690; stroke: #fff; opacity: 1;" id="p-type-logs"></path><path d="M41.0956648767905,165.58350258505382A170.6070045455344,170.6070045455344,0,0,1,-128.68111071557638,112.01750642201232L-105.06768692925029,91.46191099762264A139.30003589374985,139.30003589374985,0,0,0,33.55446986285108,135.19836371873373Z" fill-rule="evenodd" style="fill: #D7A449; stroke: #fff; opacity: 1;" id="p-type-tokenTransfers"></path><path d="M-128.68111071557638,112.01750642201232A170.6070045455344,170.6070045455344,0,0,1,-166.32267004377204,37.99367617789219L-135.8018914215102,31.02170669612417A139.30003589374985,139.30003589374985,0,0,0,-105.06768692925029,91.46191099762264Z" fill-rule="evenodd" style="fill: #414552; stroke: #fff; opacity: 1;" id="p-type-ether"></path><path d="M-128.86135288024553,-111.81011463133753A170.6070045455344,170.6070045455344,0,0,1,-50.292205739667345,-163.02589991114593L-41.063414033752146,-133.11008988011633A139.30003589374985,139.30003589374985,0,0,0,-105.21485404044165,-91.2925763096242Z" fill-rule="evenodd" style="fill: #D7A449; stroke: #fff; opacity: 1;" id="p-type-tokenTransfers"></path><path d="M-50.292205739667345,-163.02589991114593A170.6070045455344,170.6070045455344,0,0,1,-5.671247575880067,-170.5127178568598L-4.630554255300729,-139.22305113482003A139.30003589374985,139.30003589374985,0,0,0,-41.063414033752146,-133.11008988011633Z" fill-rule="evenodd" style="fill: #414552; stroke: #fff; opacity: 1;" id="p-type-ether"></path><path d="M1.206277097160143e-14,-197A197,197,0,0,1,34.05032971225828,-194.03498407886786L29.488450538051744,-168.03922543520866A170.6070045455344,170.6070045455344,0,0,0,1.0446666101440332e-14,-170.6070045455344Z" fill-rule="evenodd" style="fill: #DB3F29; stroke: #fff; opacity: 1;" id="p-type-functions"></path><path d="M34.05032971225828,-194.03498407886786A197,197,0,0,1,35.66193972846928,-193.74526072862537L30.88414575308392,-167.78831765382913A170.6070045455344,170.6070045455344,0,0,0,29.488450538051744,-168.03922543520866Z" fill-rule="evenodd" style="fill: #DB3F29; stroke: #fff; opacity: 1;" id="p-type-functions"></path><path d="M35.66193972846928,-193.74526072862537A197,197,0,0,1,37.27108594152744,-193.4421519543744L32.277707251995814,-167.52581775521782A170.6070045455344,170.6070045455344,0,0,0,30.88414575308392,-167.78831765382913Z" fill-rule="evenodd" style="fill: #DB3F29; stroke: #fff; opacity: 1;" id="p-type-functions"></path><path d="M37.27108594152744,-193.4421519543744A197,197,0,0,1,38.877657179142545,-193.12567869721795L33.6690387567599,-167.25174387490193A170.6070045455344,170.6070045455344,0,0,0,32.277707251995814,-167.52581775521782Z" fill-rule="evenodd" style="fill: #DB3F29; stroke: #fff; opacity: 1;" id="p-type-functions"></path><path d="M38.877657179142545,-193.12567869721795A197,197,0,0,1,40.48154244692365,-192.7958628215811L35.058044143413944,-166.966114948029A170.6070045455344,170.6070045455344,0,0,0,33.6690387567599,-167.25174387490193Z" fill-rule="evenodd" style="fill: #DB3F29; stroke: #fff; opacity: 1;" id="p-type-functions"></path><path d="M40.48154244692365,-192.7958628215811A197,197,0,0,1,42.08263093604739,-192.4527271137004L36.44462744870195,-166.66895070805876A170.6070045455344,170.6070045455344,0,0,0,35.058044143413944,-166.966114948029Z" fill-rule="evenodd" style="fill: #DB3F29; stroke: #fff; opacity: 1;" id="p-type-functions"></path><path d="M42.08263093604739,-192.4527271137004A197,197,0,0,1,43.68081203091357,-192.09629528004956L37.82869287670409,-166.36027168539968A170.6070045455344,170.6070045455344,0,0,0,36.44462744870195,-166.66895070805876Z" fill-rule="evenodd" style="fill: #DB3F29; stroke: #fff; opacity: 1;" id="p-type-functions"></path><path d="M43.68081203091357,-192.09629528004956A197,197,0,0,1,45.275975316787274,-191.72659194570187L39.21014480545497,-166.04009920599074A170.6070045455344,170.6070045455344,0,0,0,37.82869287670409,-166.36027168539968Z" fill-rule="evenodd" style="fill: #DB3F29; stroke: #fff; opacity: 1;" id="p-type-functions"></path><path d="M45.275975316787274,-191.72659194570187A197,197,0,0,1,46.868010587427335,-191.34364265262852L40.5888877935501,-165.70845538982795A170.6070045455344,170.6070045455344,0,0,0,39.21014480545497,-166.04009920599074Z" fill-rule="evenodd" style="fill: #DB3F29; stroke: #fff; opacity: 1;" id="p-type-functions"></path><path d="M46.868010587427335,-191.34364265262852A197,197,0,0,1,48.4568078527,-190.9474738579343L41.96482658673948,-165.36536314943612A170.6070045455344,170.6070045455344,0,0,0,40.5888877935501,-165.70845538982795Z" fill-rule="evenodd" style="fill: #DB3F29; stroke: #fff; opacity: 1;" id="p-type-functions"></path><path d="M48.4568078527,-190.9474738579343A197,197,0,0,1,50.042257346178054,-190.53811293202966L43.33786612450864,-165.01084618828594A170.6070045455344,170.6070045455344,0,0,0,41.96482658673948,-165.36536314943612Z" fill-rule="evenodd" style="fill: #DB3F29; stroke: #fff; opacity: 1;" id="p-type-functions"></path><path d="M50.042257346178054,-190.53811293202966A197,197,0,0,1,51.624249532724306,-190.11558815673956L44.70791154664619,-164.64492899915643A170.6070045455344,170.6070045455344,0,0,0,43.33786612450864,-165.01084618828594Z" fill-rule="evenodd" style="fill: #DB3F29; stroke: #fff; opacity: 1;" id="p-type-functions"></path><path d="M51.624249532724306,-190.11558815673956A197,197,0,0,1,53.20267511605913,-189.6799287233498L46.074868199797415,-164.26763686244254A170.6070045455344,170.6070045455344,0,0,0,44.70791154664619,-164.64492899915643Z" fill-rule="evenodd" style="fill: #DB3F29; stroke: #fff; opacity: 1;" id="p-type-functions"></path><path d="M53.20267511605913,-189.6799287233498A197,197,0,0,1,54.777425046311414,-189.2311647305901L47.43864164400367,-163.87899584440893A170.6070045455344,170.6070045455344,0,0,0,46.074868199797415,-164.26763686244254Z" fill-rule="evenodd" style="fill: #DB3F29; stroke: #fff; opacity: 1;" id="p-type-functions"></path><path d="M54.777425046311414,-189.2311647305901A197,197,0,0,1,56.34839052755281,-188.76932718255472L48.799137659227156,-163.47903279538875A170.6070045455344,170.6070045455344,0,0,0,47.43864164400367,-163.87899584440893Z" fill-rule="evenodd" style="fill: #DB3F29; stroke: #fff; opacity: 1;" id="p-type-functions"></path><path d="M56.34839052755281,-188.76932718255472A197,197,0,0,1,57.91546302531388,-188.2944479865604L50.156262251860184,-163.06777534792894A170.6070045455344,170.6070045455344,0,0,0,48.799137659227156,-163.47903279538875Z" fill-rule="evenodd" style="fill: #DB3F29; stroke: #fff; opacity: 1;" id="p-type-functions"></path><path d="M57.91546302531388,-188.2944479865604A197,197,0,0,1,59.47853427408267,-187.806559950942L51.50992166121902,-162.64525191488093A170.6070045455344,170.6070045455344,0,0,0,50.156262251860184,-163.06777534792894Z" fill-rule="evenodd" style="fill: #DB3F29; stroke: #fff; opacity: 1;" id="p-type-functions"></path><path d="M59.47853427408267,-187.806559950942A197,197,0,0,1,61.03749628478464,-187.30569678278582L52.86002236602179,-162.2114916874377A170.6070045455344,170.6070045455344,0,0,0,51.50992166121902,-162.64525191488093Z" fill-rule="evenodd" style="fill: #DB3F29; stroke: #fff; opacity: 1;" id="p-type-functions"></path><path d="M61.03749628478464,-187.30569678278582A197,197,0,0,1,62.5922413522431,-186.7918930856009L54.20647109084937,-161.7665246331172A170.6070045455344,170.6070045455344,0,0,0,52.86002236602179,-162.2114916874377Z" fill-rule="evenodd" style="fill: #DB3F29; stroke: #fff; opacity: 1;" id="p-type-functions"></path><path d="M62.5922413522431,-186.7918930856009A197,197,0,0,1,64.14266206262057,-186.26518435692822L55.549174812589776,-161.31038149369166A170.6070045455344,170.6070045455344,0,0,0,54.20647109084937,-161.7665246331172Z" fill-rule="evenodd" style="fill: #DB3F29; stroke: #fff; opacity: 1;" id="p-type-functions"></path><path d="M64.14266206262057,-186.26518435692822A197,197,0,0,1,65.68865130083964,-185.72560698588845L56.88804076686483,-160.843093783064A170.6070045455344,170.6070045455344,0,0,0,55.549174812589776,-161.31038149369166Z" fill-rule="evenodd" style="fill: #DB3F29; stroke: #fff; opacity: 1;" id="p-type-functions"></path><path d="M65.68865130083964,-185.72560698588845A197,197,0,0,1,67.23010225798329,-185.17319825066778L58.22297645443908,-160.36469378509048A170.6070045455344,170.6070045455344,0,0,0,56.88804076686483,-160.843093783064Z" fill-rule="evenodd" style="fill: #DB3F29; stroke: #fff; opacity: 1;" id="p-type-functions"></path><path d="M67.23010225798329,-185.17319825066778A197,197,0,0,1,68.76690843867428,-184.60799631594236L59.55388964761041,-159.87521455135013A170.6070045455344,170.6070045455344,0,0,0,58.22297645443908,-160.36469378509048Z" fill-rule="evenodd" style="fill: #DB3F29; stroke: #fff; opacity: 1;" id="p-type-functions"></path><path d="M68.76690843867428,-184.60799631594236A197,197,0,0,1,70.29896366843235,-184.03004023024184L60.880688396581704,-159.37468989886167A170.6070045455344,170.6070045455344,0,0,0,59.55388964761041,-159.87521455135013Z" fill-rule="evenodd" style="fill: #DB3F29; stroke: #fff; opacity: 1;" id="p-type-functions"></path><path d="M70.29896366843235,-184.03004023024184A197,197,0,0,1,71.8261621010098,-183.43936992325138L62.20328103581355,-158.86315440774678A170.6070045455344,170.6070045455344,0,0,0,60.880688396581704,-159.37468989886167Z" fill-rule="evenodd" style="fill: #DB3F29; stroke: #fff; opacity: 1;" id="p-type-functions"></path><path d="M71.8261621010098,-183.43936992325138A197,197,0,0,1,73.34839822570419,-182.83602620305308L63.52157619035728,-158.34064341884124A170.6070045455344,170.6070045455344,0,0,0,62.20328103581355,-158.86315440774678Z" fill-rule="evenodd" style="fill: #DB3F29; stroke: #fff; opacity: 1;" id="p-type-functions"></path><path d="M73.34839822570419,-182.83602620305308A197,197,0,0,1,74.86556687464768,-182.22005075330668L64.83548278216766,-157.80719303125332A170.6070045455344,170.6070045455344,0,0,0,63.52157619035728,-158.34064341884124Z" fill-rule="evenodd" style="fill: #DB3F29; stroke: #fff; opacity: 1;" id="p-type-functions"></path><path d="M74.86556687464768,-182.22005075330668A197,197,0,0,1,76.37756323007297,-181.59148613036956L66.14491003639543,-157.2628400998696A170.6070045455344,170.6070045455344,0,0,0,64.83548278216766,-157.80719303125332Z" fill-rule="evenodd" style="fill: #DB3F29; stroke: #fff; opacity: 1;" id="p-type-functions"></path><path d="M76.37756323007297,-181.59148613036956A197,197,0,0,1,77.88428283155481,-180.95037576035696L67.44976748765869,-156.70762223280903A170.6070045455344,170.6070045455344,0,0,0,66.14491003639543,-157.2628400998696Z" fill-rule="evenodd" style="fill: #DB3F29; stroke: #fff; opacity: 1;" id="p-type-functions"></path><path d="M77.88428283155481,-180.95037576035696A197,197,0,0,1,79.38562158322705,-180.29676393614133L68.74996498629285,-156.1415777888244A170.6070045455344,170.6070045455344,0,0,0,67.44976748765869,-156.70762223280903Z" fill-rule="evenodd" style="fill: #DB3F29; stroke: #fff; opacity: 1;" id="p-type-functions"></path><path d="M79.38562158322705,-180.29676393614133A197,197,0,0,1,80.88147576097441,-179.63069581429258L70.04541270457915,-155.5647458746524A170.6070045455344,170.6070045455344,0,0,0,68.74996498629285,-156.1415777888244Z" fill-rule="evenodd" style="fill: #DB3F29; stroke: #fff; opacity: 1;" id="p-type-functions"></path><path d="M80.88147576097441,-179.63069581429258A197,197,0,0,1,82.37174201959837,-178.95221741195815L71.33602114295029,-154.9771663423117A170.6070045455344,170.6070045455344,0,0,0,70.04541270457915,-155.5647458746524Z" fill-rule="evenodd" style="fill: #DB3F29; stroke: #fff; opacity: 1;" id="p-type-functions"></path><path d="M82.37174201959837,-178.95221741195815A197,197,0,0,1,83.85631739995716,-178.2613756036838L72.62170113617395,-154.37887978634976A170.6070045455344,170.6070045455344,0,0,0,71.33602114295029,-154.9771663423117Z" fill-rule="evenodd" style="fill: #DB3F29; stroke: #fff; opacity: 1;" id="p-type-functions"></path><path d="M83.85631739995716,-178.2613756036838A197,197,0,0,1,85.33509933607914,-177.5582181181753L73.90236385951312,-153.7699275410382A170.6070045455344,170.6070045455344,0,0,0,72.62170113617395,-154.37887978634976Z" fill-rule="evenodd" style="fill: #DB3F29; stroke: #fff; opacity: 1;" id="p-type-functions"></path><path d="M85.33509933607914,-177.5582181181753A197,197,0,0,1,86.80798566224851,-176.84279353500062L75.17792083486253,-153.15035167751702A170.6070045455344,170.6070045455344,0,0,0,73.90236385951312,-153.7699275410382Z" fill-rule="evenodd" style="fill: #DB3F29; stroke: #fff; opacity: 1;" id="p-type-functions"></path><path d="M86.80798566224851,-176.84279353500062A197,197,0,0,1,88.27487462006398,-176.11515128123415L76.44828393686161,-152.5201950008883A170.6070045455344,170.6070045455344,0,0,0,75.17792083486253,-153.15035167751702Z" fill-rule="evenodd" style="fill: #DB3F29; stroke: #fff; opacity: 1;" id="p-type-functions"></path><path d="M88.27487462006398,-176.11515128123415A197,197,0,0,1,89.73566486546893,-175.37534162804144L77.71336539898279,-151.87950104725846A170.6070045455344,170.6070045455344,0,0,0,76.44828393686161,-152.5201950008883Z" fill-rule="evenodd" style="fill: #DB3F29; stroke: #fff; opacity: 1;" id="p-type-functions"></path><path d="M89.73566486546893,-175.37534162804144A197,197,0,0,1,91.19025547575302,-174.62341568720646L78.97307781959512,-151.22831408073085A170.6070045455344,170.6070045455344,0,0,0,77.71336539898279,-151.87950104725846Z" fill-rule="evenodd" style="fill: #DB3F29; stroke: #fff; opacity: 1;" id="p-type-functions"></path><path d="M91.19025547575302,-174.62341568720646A197,197,0,0,1,92.63854595652484,-173.85942540760004L80.2273341680027,-150.5666790903473A170.6070045455344,170.6070045455344,0,0,0,78.97307781959512,-151.22831408073085Z" fill-rule="evenodd" style="fill: #DB3F29; stroke: #fff; opacity: 1;" id="p-type-functions"></path><path d="M92.63854595652484,-173.85942540760004A197,197,0,0,1,94.08043624865465,-173.08342357159114L81.47604779045727,-149.89464178698023A170.6070045455344,170.6070045455344,0,0,0,80.2273341680027,-150.5666790903473Z" fill-rule="evenodd" style="fill: #DB3F29; stroke: #fff; opacity: 1;" id="p-type-functions"></path><path d="M94.08043624865465,-173.08342357159114A197,197,0,0,1,95.51582673518733,-172.29546379140012L82.71913241614509,-149.21224860017443A170.6070045455344,170.6070045455344,0,0,0,81.47604779045727,-149.89464178698023Z" fill-rule="evenodd" style="fill: #DB3F29; stroke: #fff; opacity: 1;" id="p-type-functions"></path><path d="M95.51582673518733,-172.29546379140012A197,197,0,0,1,96.94461824822484,-171.49560050539475L83.95650216314718,-148.51954667493928A170.6070045455344,170.6070045455344,0,0,0,82.71913241614509,-149.21224860017443Z" fill-rule="evenodd" style="fill: #DB3F29; stroke: #fff; opacity: 1;" id="p-type-functions"></path><path d="M96.94461824822484,-171.49560050539475A197,197,0,0,1,98.36671207577722,-170.68388897432922L85.18807154437258,-147.81658386849176A170.6070045455344,170.6070045455344,0,0,0,83.95650216314718,-148.51954667493928Z" fill-rule="evenodd" style="fill: #DB3F29; stroke: #fff; opacity: 1;" id="p-type-functions"></path><path d="M98.36671207577722,-170.68388897432922A197,197,0,0,1,99.7820099685826,-169.86038527752635L86.41375547346462,-147.10340874695007A170.6070045455344,170.6070045455344,0,0,0,85.18807154437258,-147.81658386849176Z" fill-rule="evenodd" style="fill: #DB3F29; stroke: #fff; opacity: 1;" id="p-type-functions"></path><path d="M99.7820099685826,-169.86038527752635A197,197,0,0,1,101.1904141468949,-169.02514630900305L87.63346927067923,-146.38007058197817A170.6070045455344,170.6070045455344,0,0,0,86.41375547346462,-147.10340874695007Z" fill-rule="evenodd" style="fill: #DB3F29; stroke: #fff; opacity: 1;" id="p-type-functions"></path><path d="M101.1904141468949,-169.02514630900305A197,197,0,0,1,102.59182730723929,-168.17822977353993L88.8471286687353,-145.646619347382A170.6070045455344,170.6070045455344,0,0,0,87.63346927067923,-146.38007058197817Z" fill-rule="evenodd" style="fill: #DB3F29; stroke: #fff; opacity: 1;" id="p-type-functions"></path><path d="M102.59182730723929,-168.17822977353993A197,197,0,0,1,103.98615262913462,-167.3196941826942L90.05464981863658,-144.90310571565655A170.6070045455344,170.6070045455344,0,0,0,88.8471286687353,-145.646619347382Z" fill-rule="evenodd" style="fill: #DB3F29; stroke: #fff; opacity: 1;" id="p-type-functions"></path><path d="M103.98615262913462,-167.3196941826942A197,197,0,0,1,105.37329378178259,-166.44959885075764L91.25594929546455,-144.1495810544852A170.6070045455344,170.6070045455344,0,0,0,90.05464981863658,-144.90310571565655Z" fill-rule="evenodd" style="fill: #DB3F29; stroke: #fff; opacity: 1;" id="p-type-functions"></path><path d="M105.37329378178259,-166.44959885075764A197,197,0,0,1,106.75315493072294,-165.56800389065836L92.45094410414207,-143.3860974231909A170.6070045455344,170.6070045455344,0,0,0,91.25594929546455,-144.1495810544852Z" fill-rule="evenodd" style="fill: #DB3F29; stroke: #fff; opacity: 1;" id="p-type-functions"></path><path d="M106.75315493072294,-165.56800389065836A197,197,0,0,1,108.12564074445447,-164.67497020980804L93.63955168516733,-142.61270756913942A170.6070045455344,170.6070045455344,0,0,0,92.45094410414207,-143.3860974231909Z" fill-rule="evenodd" style="fill: #DB3F29; stroke: #fff; opacity: 1;" id="p-type-functions"></path><path d="M108.12564074445447,-164.67497020980804A197,197,0,0,1,109.49065640102131,-163.77055950589377L94.82168992031771,-141.82946492409508A170.6070045455344,170.6070045455344,0,0,0,93.63955168516733,-142.61270756913942Z" fill-rule="evenodd" style="fill: #DB3F29; stroke: #fff; opacity: 1;" id="p-type-functions"></path><path d="M109.49065640102131,-163.77055950589377A197,197,0,0,1,110.84810759456396,-162.85483426261553L95.99727713832314,-141.03642360052945A170.6070045455344,170.6070045455344,0,0,0,94.82168992031771,-141.82946492409508Z" fill-rule="evenodd" style="fill: #DB3F29; stroke: #fff; opacity: 1;" id="p-type-functions"></path><path d="M110.84810759456396,-162.85483426261553A197,197,0,0,1,112.19790054183463,-161.9278577453694L97.16623212050861,-140.23363838788268A170.6070045455344,170.6070045455344,0,0,0,95.99727713832314,-141.03642360052945Z" fill-rule="evenodd" style="fill: #DB3F29; stroke: #fff; opacity: 1;" id="p-type-functions"></path><path d="M112.19790054183463,-161.9278577453694A197,197,0,0,1,113.53994198867646,-160.98969399687664L98.32847410640528,-139.42116474877832A170.6070045455344,170.6070045455344,0,0,0,97.16623212050861,-140.23363838788268Z" fill-rule="evenodd" style="fill: #DB3F29; stroke: #fff; opacity: 1;" id="p-type-functions"></path><path d="M113.53994198867646,-160.98969399687664A197,197,0,0,1,114.87413921646646,-160.04040783275917L99.48392279933019,-138.5990588151915A170.6070045455344,170.6070045455344,0,0,0,98.32847410640528,-139.42116474877832Z" fill-rule="evenodd" style="fill: #DB3F29; stroke: #fff; opacity: 1;" id="p-type-functions"></path><path d="M114.87413921646646,-160.04040783275917A197,197,0,0,1,116.20040004852093,-159.0800648370615L100.63249837193364,-137.7673773845709A170.6070045455344,170.6070045455344,0,0,0,99.48392279933019,-138.5990588151915Z" fill-rule="evenodd" style="fill: #DB3F29; stroke: #fff; opacity: 1;" id="p-type-functions"></path><path d="M116.20040004852093,-159.0800648370615A197,197,0,0,1,117.51863285646397,-158.10873135771988L101.7741214717144,-136.92617791591468A170.6070045455344,170.6070045455344,0,0,0,100.63249837193364,-137.7673773845709Z" fill-rule="evenodd" style="fill: #DB3F29; stroke: #fff; opacity: 1;" id="p-type-functions"></path><path d="M117.51863285646397,-158.10873135771988A197,197,0,0,1,118.82874656655775,-157.12647450197815L102.9087132265019,-136.07551852580093A170.6070045455344,170.6070045455344,0,0,0,101.7741214717144,-136.92617791591468Z" fill-rule="evenodd" style="fill: #DB3F29; stroke: #fff; opacity: 1;" id="p-type-functions"></path><path d="M118.82874656655775,-157.12647450197815A197,197,0,0,1,120.13065066599471,-156.1333621317518L104.0361952499054,-135.21545798437234A170.6070045455344,170.6070045455344,0,0,0,102.9087132265019,-136.07551852580093Z" fill-rule="evenodd" style="fill: #DB3F29; stroke: #fff; opacity: 1;" id="p-type-functions"></path><path d="M120.13065066599471,-156.1333621317518A197,197,0,0,1,121.42425520915073,-155.12946285893932L105.15648964672948,-134.346055711276A170.6070045455344,170.6070045455344,0,0,0,104.0361952499054,-135.21545798437234Z" fill-rule="evenodd" style="fill: #DB3F29; stroke: #fff; opacity: 1;" id="p-type-functions"></path><path d="M121.42425520915073,-155.12946285893932A197,197,0,0,1,122.70947082379942,-154.114846040682L106.26951901835568,-133.46737177155822A170.6070045455344,170.6070045455344,0,0,0,105.15648964672948,-134.346055711276Z" fill-rule="evenodd" style="fill: #DB3F29; stroke: #fff; opacity: 1;" id="p-type-functions"></path><path d="M122.70947082379942,-154.114846040682A197,197,0,0,1,123.98620871728653,-153.0895817745723L107.37520646808974,-132.57946687151482A170.6070045455344,170.6070045455344,0,0,0,106.26951901835568,-133.46737177155822Z" fill-rule="evenodd" style="fill: #DB3F29; stroke: #fff; opacity: 1;" id="p-type-functions"></path><path d="M123.98620871728653,-153.0895817745723A197,197,0,0,1,125.2543806826645,-152.05374089381084L108.47347560647432,-131.68240235449693A170.6070045455344,170.6070045455344,0,0,0,107.37520646808974,-132.57946687151482Z" fill-rule="evenodd" style="fill: #DB3F29; stroke: #fff; opacity: 1;" id="p-type-functions"></path><path d="M125.2543806826645,-152.05374089381084A197,197,0,0,1,126.51389910478649,-151.00739496231273L109.56425055656645,-130.7762401966731A170.6070045455344,170.6070045455344,0,0,0,108.47347560647432,-131.68240235449693Z" fill-rule="evenodd" style="fill: #DB3F29; stroke: #fff; opacity: 1;" id="p-type-functions"></path><path d="M126.51389910478649,-151.00739496231273A197,197,0,0,1,127.76467696635945,-149.95061626976337L110.6474559591798,-129.86104300274724A170.6070045455344,170.6070045455344,0,0,0,109.56425055656645,-130.7762401966731Z" fill-rule="evenodd" style="fill: #DB3F29; stroke: #fff; opacity: 1;" id="p-type-functions"></path><path d="M127.76467696635945,-149.95061626976337A197,197,0,0,1,129.00662785395602,-148.8834778266242L111.72301697809107,-128.93687400163373A170.6070045455344,170.6070045455344,0,0,0,110.6474559591798,-129.86104300274724Z" fill-rule="evenodd" style="fill: #DB3F29; stroke: #fff; opacity: 1;" id="p-type-functions"></path><path d="M129.00662785395602,-148.8834778266242A197,197,0,0,1,130.23966596398455,-147.8060533590885L112.79085930521013,-128.0037970420889A170.6070045455344,170.6070045455344,0,0,0,111.72301697809107,-128.93687400163373Z" fill-rule="evenodd" style="fill: #DB3F29; stroke: #fff; opacity: 1;" id="p-type-functions"></path><path d="M130.23966596398455,-147.8060533590885A197,197,0,0,1,131.46370610861723,-146.71841730398782L113.850909165714,-127.06187658829982A170.6070045455344,170.6070045455344,0,0,0,112.79085930521013,-128.0037970420889Z" fill-rule="evenodd" style="fill: #DB3F29; stroke: #fff; opacity: 1;" id="p-type-functions"></path><path d="M131.46370610861723,-146.71841730398782A197,197,0,0,1,132.67866372167535,-145.6206448036493L114.90309332314364,-126.1111777154307A170.6070045455344,170.6070045455344,0,0,0,113.850909165714,-127.06187658829982Z" fill-rule="evenodd" style="fill: #DB3F29; stroke: #fff; opacity: 1;" id="p-type-functions"></path><path d="M132.67866372167535,-145.6206448036493A197,197,0,0,1,133.88445486447185,-144.51281170070425L115.94733908446368,-125.15176610512695A170.6070045455344,170.6070045455344,0,0,0,114.90309332314364,-126.1111777154307Z" fill-rule="evenodd" style="fill: #DB3F29; stroke: #fff; opacity: 1;" id="p-type-functions"></path><path d="M133.88445486447185,-144.51281170070425A197,197,0,0,1,135.0809962316105,-143.39499453284841L116.98357430508472,-124.18370804097742A170.6070045455344,170.6070045455344,0,0,0,115.94733908446368,-125.15176610512695Z" fill-rule="evenodd" style="fill: #DB3F29; stroke: #fff; opacity: 1;" id="p-type-functions"></path><path d="M135.0809962316105,-143.39499453284841A197,197,0,0,1,136.26820515674132,-142.26727052755407L118.01172739384762,-123.20707040393499A170.6070045455344,170.6070045455344,0,0,0,116.98357430508472,-124.18370804097742Z" fill-rule="evenodd" style="fill: #DB3F29; stroke: #fff; opacity: 1;" id="p-type-functions"></path><path d="M136.26820515674132,-142.26727052755407A197,197,0,0,1,137.44599961827163,-141.12971759673465L119.0317273179695,-122.22192066769593A170.6070045455344,170.6070045455344,0,0,0,118.01172739384762,-123.20707040393499Z" fill-rule="evenodd" style="fill: #DB3F29; stroke: #fff; opacity: 1;" id="p-type-functions"></path><path d="M137.44599961827163,-141.12971759673465A197,197,0,0,1,138.61429824503293,-139.98241433136187L120.04350360795124,-121.22832689403826A170.6070045455344,170.6070045455344,0,0,0,119.0317273179695,-122.22192066769593Z" fill-rule="evenodd" style="fill: #DB3F29; stroke: #fff; opacity: 1;" id="p-type-functions"></path><path d="M138.61429824503293,-139.98241433136187A197,197,0,0,1,139.7730203219025,-138.82543999603612L121.04698636244616,-120.22635772811955A170.6070045455344,170.6070045455344,0,0,0,120.04350360795124,-121.22832689403826Z" fill-rule="evenodd" style="fill: #DB3F29; stroke: #fff; opacity: 1;" id="p-type-functions"></path><path d="M139.7730203219025,-138.82543999603612A197,197,0,0,1,140.92208579537999,-137.65887452351035L122.04210625308924,-119.21608239373441A170.6070045455344,170.6070045455344,0,0,0,121.04698636244616,-120.22635772811955Z" fill-rule="evenodd" style="fill: #DB3F29; stroke: #fff; opacity: 1;" id="p-type-functions"></path><path d="M140.92208579537999,-137.65887452351035A197,197,0,0,1,142.06141527911794,-136.48279850916742L123.02879452928693,-118.1975706885319A170.6070045455344,170.6070045455344,0,0,0,122.04210625308924,-119.21608239373441Z" fill-rule="evenodd" style="fill: #DB3F29; stroke: #fff; opacity: 1;" id="p-type-functions"></path><path d="M142.06141527911794,-136.48279850916742A197,197,0,0,1,143.1909300594066,-135.29729320545226L124.00698302296692,-117.1708929791934A170.6070045455344,170.6070045455344,0,0,0,123.02879452928693,-118.1975706885319Z" fill-rule="evenodd" style="fill: #DB3F29; stroke: #fff; opacity: 1;" id="p-type-functions"></path><path d="M143.1909300594066,-135.29729320545226A197,197,0,0,1,144.310552100612,-134.10244051625813L124.97660415328777,-116.13612019657111A170.6070045455344,170.6070045455344,0,0,0,124.00698302296692,-117.1708929791934Z" fill-rule="evenodd" style="fill: #DB3F29; stroke: #fff; opacity: 1;" id="p-type-functions"></path><path d="M144.310552100612,-134.10244051625813A197,197,0,0,1,145.42020405056712,-132.89832299126812L125.93759093130785,-115.09332383078771A170.6070045455344,170.6070045455344,0,0,0,124.97660415328777,-116.13612019657111Z" fill-rule="evenodd" style="fill: #DB3F29; stroke: #fff; opacity: 1;" id="p-type-functions"></path><path d="M145.42020405056712,-132.89832299126812A197,197,0,0,1,146.51980924591624,-131.68502382025193L126.88987696461353,-114.04257592629709A170.6070045455344,170.6070045455344,0,0,0,125.93759093130785,-115.09332383078771Z" fill-rule="evenodd" style="fill: #DB3F29; stroke: #fff; opacity: 1;" id="p-type-functions"></path><path d="M146.51980924591624,-131.68502382025193A197,197,0,0,1,147.60929171741125,-130.4626268273186L127.83339646190608,-112.98394907690711A170.6070045455344,170.6070045455344,0,0,0,126.88987696461353,-114.04257592629709Z" fill-rule="evenodd" style="fill: #DB3F29; stroke: #fff; opacity: 1;" id="p-type-functions"></path><path d="M196.59527271421314,12.621360719992172A197,197,0,0,1,196.4835749181449,14.25499166557959L170.15976730549644,12.34518491312737A170.6070045455344,170.6070045455344,0,0,0,170.25650043443827,10.930419013840273Z" fill-rule="evenodd" style="fill: #1DC690; stroke: #fff; opacity: 1;" id="p-type-logs"></path><path d="M196.4835749181449,14.25499166557959A197,197,0,0,1,196.3583025141038,15.887637765876015L170.0512782212037,13.759097911373672A170.6070045455344,170.6070045455344,0,0,0,170.15976730549644,12.34518491312737Z" fill-rule="evenodd" style="fill: #1DC690; stroke: #fff; opacity: 1;" id="p-type-logs"></path><path d="M196.3583025141038,15.887637765876015A197,197,0,0,1,196.2194641568784,17.519186225036908L169.93104067682677,15.172060324512362A170.6070045455344,170.6070045455344,0,0,0,170.0512782212037,13.759097911373672Z" fill-rule="evenodd" style="fill: #1DC690; stroke: #fff; opacity: 1;" id="p-type-logs"></path><path d="M196.2194641568784,17.519186225036908A197,197,0,0,1,196.06706943849818,19.149524323051295L169.79906297930694,16.583974534150425A170.6070045455344,170.6070045455344,0,0,0,169.93104067682677,15.172060324512362Z" fill-rule="evenodd" style="fill: #1DC690; stroke: #fff; opacity: 1;" id="p-type-logs"></path><path d="M196.06706943849818,19.149524323051295A197,197,0,0,1,195.90112888757133,20.778539423529324L169.65535424668633,17.994742994312862A170.6070045455344,170.6070045455344,0,0,0,169.79906297930694,16.583974534150425Z" fill-rule="evenodd" style="fill: #1DC690; stroke: #fff; opacity: 1;" id="p-type-logs"></path><path d="M195.90112888757133,20.778539423529324A197,197,0,0,1,195.72165396855704,22.406118981484067L169.49992440747778,19.404268238181913A170.6070045455344,170.6070045455344,0,0,0,169.65535424668633,17.994742994312862Z" fill-rule="evenodd" style="fill: #1DC690; stroke: #fff; opacity: 1;" id="p-type-logs"></path><path d="M195.72165396855704,22.406118981484067A197,197,0,0,1,195.5286570809735,24.032150551106998L169.3327841999791,20.812452884830858A170.6070045455344,170.6070045455344,0,0,0,169.49992440747778,19.404268238181913Z" fill-rule="evenodd" style="fill: #1DC690; stroke: #fff; opacity: 1;" id="p-type-logs"></path><path d="M195.5286570809735,24.032150551106998A197,197,0,0,1,195.3221515585413,25.656521793536623L169.15394517153106,22.219199645951804A170.6070045455344,170.6070045455344,0,0,0,169.3327841999791,20.812452884830858Z" fill-rule="evenodd" style="fill: #1DC690; stroke: #fff; opacity: 1;" id="p-type-logs"></path><path d="M195.3221515585413,25.656521793536623A197,197,0,0,1,195.10215166826222,27.27912048461971L168.9634196777196,23.624411332577136A170.6070045455344,170.6070045455344,0,0,0,169.15394517153106,22.219199645951804Z" fill-rule="evenodd" style="fill: #1DC690; stroke: #fff; opacity: 1;" id="p-type-logs"></path><path d="M195.10215166826222,27.27912048461971A197,197,0,0,1,194.86867260943356,28.899834522664612L168.7612208815223,25.02799086179408A170.6070045455344,170.6070045455344,0,0,0,168.9634196777196,23.624411332577136Z" fill-rule="evenodd" style="fill: #1DC690; stroke: #fff; opacity: 1;" id="p-type-logs"></path><path d="M194.86867260943356,28.899834522664612A197,197,0,0,1,194.62173051259796,30.518551936186128L168.54736275239887,26.42984126345195A170.6070045455344,170.6070045455344,0,0,0,168.7612208815223,25.02799086179408Z" fill-rule="evenodd" style="fill: #1DC690; stroke: #fff; opacity: 1;" id="p-type-logs"></path><path d="M194.62173051259796,30.518551936186128A197,197,0,0,1,194.36134243842918,32.13516089164135L168.32186006532618,27.8298656868616A170.6070045455344,170.6070045455344,0,0,0,168.54736275239887,26.42984126345195Z" fill-rule="evenodd" style="fill: #1DC690; stroke: #fff; opacity: 1;" id="p-type-logs"></path><path d="M194.36134243842918,32.13516089164135A197,197,0,0,1,194.08752637655311,33.74954970115597L168.0847283997773,29.22796740748658A170.6070045455344,170.6070045455344,0,0,0,168.32186006532618,27.8298656868616Z" fill-rule="evenodd" style="fill: #1DC690; stroke: #fff; opacity: 1;" id="p-type-logs"></path><path d="M194.08752637655311,33.74954970115597A197,197,0,0,1,193.8003012443053,35.361606830240596L167.83598413864533,30.624049833625676A170.6070045455344,170.6070045455344,0,0,0,168.0847283997773,29.22796740748658Z" fill-rule="evenodd" style="fill: #1DC690; stroke: #fff; opacity: 1;" id="p-type-logs"></path><path d="M193.8003012443053,35.361606830240596A197,197,0,0,1,193.49968688542364,36.971220905496374L167.57564446711146,32.018016513086174A170.6070045455344,170.6070045455344,0,0,0,167.83598413864533,30.624049833625676Z" fill-rule="evenodd" style="fill: #1DC690; stroke: #fff; opacity: 1;" id="p-type-logs"></path><path d="M193.49968688542364,36.971220905496374A197,197,0,0,1,193.1857040686776,38.57828072230954L167.3037273714576,33.40977113984754A170.6070045455344,170.6070045455344,0,0,0,167.57564446711146,32.018016513086174Z" fill-rule="evenodd" style="fill: #1DC690; stroke: #fff; opacity: 1;" id="p-type-logs"></path><path d="M193.1857040686776,38.57828072230954A197,197,0,0,1,192.85837448643335,40.18267525253431L167.02025163782392,34.79921756071499A170.6070045455344,170.6070045455344,0,0,0,167.3037273714576,33.40977113984754Z" fill-rule="evenodd" style="fill: #1DC690; stroke: #fff; opacity: 1;" id="p-type-logs"></path><path d="M192.85837448643335,40.18267525253431A197,197,0,0,1,192.51772075315498,41.784293652163534L166.72523685091085,36.186259781962484A170.6070045455344,170.6070045455344,0,0,0,167.02025163782392,34.79921756071499Z" fill-rule="evenodd" style="fill: #1DC690; stroke: #fff; opacity: 1;" id="p-type-logs"></path><path d="M192.51772075315498,41.784293652163534A197,197,0,0,1,192.1637664038423,43.38302526898668L166.41870339262604,37.57080197596469A170.6070045455344,170.6070045455344,0,0,0,166.72523685091085,36.186259781962484Z" fill-rule="evenodd" style="fill: #1DC690; stroke: #fff; opacity: 1;" id="p-type-logs"></path><path d="M192.1637664038423,43.38302526898668A197,197,0,0,1,191.79653589240456,44.97875965023456L166.10067244067625,38.952748487817594A170.6070045455344,170.6070045455344,0,0,0,166.41870339262604,37.57080197596469Z" fill-rule="evenodd" style="fill: #1DC690; stroke: #fff; opacity: 1;" id="p-type-logs"></path><path d="M191.79653589240456,44.97875965023456A197,197,0,0,1,191.41605458997137,46.57138655021022L165.77116596710408,40.33200384194698A170.6070045455344,170.6070045455344,0,0,0,166.10067244067625,38.952748487817594Z" fill-rule="evenodd" style="fill: #1DC690; stroke: #fff; opacity: 1;" id="p-type-logs"></path><path d="M191.41605458997137,46.57138655021022A197,197,0,0,1,191.02234878313953,48.16079593790562L165.4302067367703,41.708472748704665A170.6070045455344,170.6070045455344,0,0,0,165.77116596710408,40.33200384194698Z" fill-rule="evenodd" style="fill: #1DC690; stroke: #fff; opacity: 1;" id="p-type-logs"></path><path d="M191.02234878313953,48.16079593790562A197,197,0,0,1,190.6154456721572,49.746878004603374L165.07781830578065,43.08206011095184A170.6070045455344,170.6070045455344,0,0,0,165.4302067367703,41.708472748704665Z" fill-rule="evenodd" style="fill: #1DC690; stroke: #fff; opacity: 1;" id="p-type-logs"></path><path d="M190.6154456721572,49.746878004603374A197,197,0,0,1,190.19537336904443,51.32952317146324L164.71402501985878,44.45267103062915A170.6070045455344,170.6070045455344,0,0,0,165.07781830578065,43.08206011095184Z" fill-rule="evenodd" style="fill: #1DC690; stroke: #fff; opacity: 1;" id="p-type-logs"></path><path d="M190.19537336904443,51.32952317146324A197,197,0,0,1,189.76216089565128,52.90862209709263L164.338852012664,45.82021081531292A170.6070045455344,170.6070045455344,0,0,0,164.71402501985878,44.45267103062915Z" fill-rule="evenodd" style="fill: #1DC690; stroke: #fff; opacity: 1;" id="p-type-logs"></path><path d="M189.76216089565128,52.90862209709263A197,197,0,0,1,189.31583818165245,54.484065685100816L163.952325204055,47.18458498475731A170.6070045455344,170.6070045455344,0,0,0,164.338852012664,45.82021081531292Z" fill-rule="evenodd" style="fill: #1DC690; stroke: #fff; opacity: 1;" id="p-type-logs"></path><path d="M189.31583818165245,54.484065685100816A197,197,0,0,1,188.8564360624798,56.05574509163607L163.5544712982991,48.54569927742169A170.6070045455344,170.6070045455344,0,0,0,163.952325204055,47.18458498475731Z" fill-rule="evenodd" style="fill: #1DC690; stroke: #fff; opacity: 1;" id="p-type-logs"></path><path d="M188.8564360624798,56.05574509163607A197,197,0,0,1,188.38398627719172,57.623551732905526L163.1453177822271,49.903459656982996A170.6070045455344,170.6070045455344,0,0,0,163.5544712982991,48.54569927742169Z" fill-rule="evenodd" style="fill: #1DC690; stroke: #fff; opacity: 1;" id="p-type-logs"></path><path d="M188.38398627719172,57.623551732905526A197,197,0,0,1,187.8985214662806,59.187377292676935L162.72489292333466,51.25777231883245A170.6070045455344,170.6070045455344,0,0,0,163.1453177822271,49.903459656982996Z" fill-rule="evenodd" style="fill: #1DC690; stroke: #fff; opacity: 1;" id="p-type-logs"></path><path d="M187.8985214662806,59.187377292676935A197,197,0,0,1,187.4000751694176,60.74711372976202L162.293225767829,52.60854369655637A170.6070045455344,170.6070045455344,0,0,0,162.72489292333466,51.25777231883245Z" fill-rule="evenodd" style="fill: #1DC690; stroke: #fff; opacity: 1;" id="p-type-logs"></path><path d="M187.4000751694176,60.74711372976202A197,197,0,0,1,186.88868182313547,62.302653285480794L161.85034613862237,53.95568046840039A170.6070045455344,170.6070045455344,0,0,0,162.293225767829,52.60854369655637Z" fill-rule="evenodd" style="fill: #1DC690; stroke: #fff; opacity: 1;" id="p-type-logs"></path><path d="M186.88868182313547,62.302653285480794A197,197,0,0,1,186.36437675844962,63.85388849110633L161.3962846332716,55.29908956371688A170.6070045455344,170.6070045455344,0,0,0,161.85034613862237,53.95568046840039Z" fill-rule="evenodd" style="fill: #1DC690; stroke: #fff; opacity: 1;" id="p-type-logs"></path><path d="M186.36437675844962,63.85388849110633A197,197,0,0,1,185.82719619841689,65.4007121752896L160.9310726218641,56.63867816939502A170.6070045455344,170.6070045455344,0,0,0,161.3962846332716,55.29908956371688Z" fill-rule="evenodd" style="fill: #1DC690; stroke: #fff; opacity: 1;" id="p-type-logs"></path><path d="M185.82719619841689,65.4007121752896A197,197,0,0,1,185.27717725563318,66.94301747146362L160.45474224485073,57.97435373627301A170.6070045455344,170.6070045455344,0,0,0,160.9310726218641,56.63867816939502Z" fill-rule="evenodd" style="fill: #1DC690; stroke: #fff; opacity: 1;" id="p-type-logs"></path><path d="M185.27717725563318,66.94301747146362A197,197,0,0,1,184.71435792966932,68.48069782522668L159.9673264108252,59.30602398553207A170.6070045455344,170.6070045455344,0,0,0,160.45474224485073,57.97435373627301Z" fill-rule="evenodd" style="fill: #1DC690; stroke: #fff; opacity: 1;" id="p-type-logs"></path><path d="M184.71435792966932,68.48069782522668A197,197,0,0,1,184.13877710444584,70.01364700170397L159.46885879425045,60.63359691507184A170.6070045455344,170.6070045455344,0,0,0,159.9673264108252,59.30602398553207Z" fill-rule="evenodd" style="fill: #1DC690; stroke: #fff; opacity: 1;" id="p-type-logs"></path><path d="M184.13877710444584,70.01364700170397A197,197,0,0,1,183.5504745455465,71.54175909288703L158.95937383313222,61.95698080586652A170.6070045455344,170.6070045455344,0,0,0,159.46885879425045,60.63359691507184Z" fill-rule="evenodd" style="fill: #1DC690; stroke: #fff; opacity: 1;" id="p-type-logs"></path><path d="M183.5504745455465,71.54175909288703A197,197,0,0,1,182.94949089747104,73.06492852495073L158.43890672663983,63.276084228301606A170.6070045455344,170.6070045455344,0,0,0,158.95937383313222,61.95698080586652Z" fill-rule="evenodd" style="fill: #1DC690; stroke: #fff; opacity: 1;" id="p-type-logs"></path><path d="M182.94949089747104,73.06492852495073A197,197,0,0,1,182.33586768082708,74.58305006554716L157.90749343267424,64.59081604849048A170.6070045455344,170.6070045455344,0,0,0,158.43890672663983,63.276084228301606Z" fill-rule="evenodd" style="fill: #1DC690; stroke: #fff; opacity: 1;" id="p-type-logs"></path><path d="M182.33586768082708,74.58305006554716A197,197,0,0,1,181.70964728946163,76.09601883107587L157.36517066538394,65.90108543457072A170.6070045455344,170.6070045455344,0,0,0,157.90749343267424,64.59081604849048Z" fill-rule="evenodd" style="fill: #1DC690; stroke: #fff; opacity: 1;" id="p-type-logs"></path><path d="M181.70964728946163,76.09601883107587A197,197,0,0,1,181.07087298753208,77.60373029393L156.81197589262825,67.2068018629794A170.6070045455344,170.6070045455344,0,0,0,157.36517066538394,65.90108543457072Z" fill-rule="evenodd" style="fill: #1DC690; stroke: #fff; opacity: 1;" id="p-type-logs"></path><path d="M181.07087298753208,77.60373029393A197,197,0,0,1,180.41958890651728,79.10608028971795L156.24794733338905,68.50787512470721A170.6070045455344,170.6070045455344,0,0,0,156.81197589262825,67.2068018629794Z" fill-rule="evenodd" style="fill: #1DC690; stroke: #fff; opacity: 1;" id="p-type-logs"></path><path d="M180.41958890651728,79.10608028971795A197,197,0,0,1,179.75584004216861,80.6029650244598L155.67312395513005,69.80421533153078A170.6070045455344,170.6070045455344,0,0,0,156.24794733338905,68.50787512470721Z" fill-rule="evenodd" style="fill: #1DC690; stroke: #fff; opacity: 1;" id="p-type-logs"></path><path d="M179.75584004216861,80.6029650244598A197,197,0,0,1,179.0796722514012,82.09428108175821L155.08754547110465,71.09573292222287A170.6070045455344,170.6070045455344,0,0,0,155.67312395513005,69.80421533153078Z" fill-rule="evenodd" style="fill: #1DC690; stroke: #fff; opacity: 1;" id="p-type-logs"></path><path d="M179.0796722514012,82.09428108175821A197,197,0,0,1,178.39113224912592,83.57992542994323L154.49125233761245,72.38233866873985A170.6070045455344,170.6070045455344,0,0,0,155.08754547110465,71.09573292222287Z" fill-rule="evenodd" style="fill: #1DC690; stroke: #fff; opacity: 1;" id="p-type-logs"></path><path d="M178.39113224912592,83.57992542994323A197,197,0,0,1,177.6902676050218,85.05979542919052L153.88428575120395,73.66394368238647A170.6070045455344,170.6070045455344,0,0,0,154.49125233761245,72.38233866873985Z" fill-rule="evenodd" style="fill: #1DC690; stroke: #fff; opacity: 1;" id="p-type-logs"></path><path d="M177.6902676050218,85.05979542919052A197,197,0,0,1,176.97712674024973,86.53378883861254L153.26668764583454,74.94045941995677A170.6070045455344,170.6070045455344,0,0,0,153.88428575120395,73.66394368238647Z" fill-rule="evenodd" style="fill: #1DC690; stroke: #fff; opacity: 1;" id="p-type-logs"></path><path d="M176.97712674024973,86.53378883861254A197,197,0,0,1,176.251758924107,88.00180382332205L152.63850068996732,76.21179768985144A170.6070045455344,170.6070045455344,0,0,0,153.26668764583454,74.94045941995677Z" fill-rule="evenodd" style="fill: #1DC690; stroke: #fff; opacity: 1;" id="p-type-logs"></path><path d="M176.251758924107,88.00180382332205A197,197,0,0,1,175.51421427062354,89.46373896146781L151.99976828362523,77.47787065817077A170.6070045455344,170.6070045455344,0,0,0,152.63850068996732,76.21179768985144Z" fill-rule="evenodd" style="fill: #1DC690; stroke: #fff; opacity: 1;" id="p-type-logs"></path><path d="M175.51421427062354,89.46373896146781A197,197,0,0,1,174.76454373509938,90.91949325124142L151.35053455539264,78.7385908547829A170.6070045455344,170.6070045455344,0,0,0,151.99976828362523,77.47787065817077Z" fill-rule="evenodd" style="fill: #1DC690; stroke: #fff; opacity: 1;" id="p-type-logs"></path><path d="M174.76454373509938,90.91949325124142A197,197,0,0,1,174.00279911058465,92.36896611785544L150.69084435936662,79.99387117936689A170.6070045455344,170.6070045455344,0,0,0,151.35053455539264,78.7385908547829Z" fill-rule="evenodd" style="fill: #1DC690; stroke: #fff; opacity: 1;" id="p-type-logs"></path><path d="M174.00279911058465,92.36896611785544A197,197,0,0,1,173.22903302430097,93.81205742049175L150.0207432720581,81.24362490743032A170.6070045455344,170.6070045455344,0,0,0,150.69084435936662,79.99387117936689Z" fill-rule="evenodd" style="fill: #1DC690; stroke: #fff; opacity: 1;" id="p-type-logs"></path><path d="M173.22903302430097,93.81205742049175A197,197,0,0,1,172.44329893400578,95.24866745922021L149.34027758924302,82.48776569630091A170.6070045455344,170.6070045455344,0,0,0,150.0207432720581,81.24362490743032Z" fill-rule="evenodd" style="fill: #1DC690; stroke: #fff; opacity: 1;" id="p-type-logs"></path><path d="M172.44329893400578,95.24866745922021A197,197,0,0,1,171.645651124299,96.67869698188653L148.64949432276393,83.72620759109168A170.6070045455344,170.6070045455344,0,0,0,149.34027758924302,82.48776569630091Z" fill-rule="evenodd" style="fill: #1DC690; stroke: #fff; opacity: 1;" id="p-type-logs"></path><path d="M171.645651124299,96.67869698188653A197,197,0,0,1,170.83614470287247,98.10204719096954L147.94844119728194,84.95886503063944A170.6070045455344,170.6070045455344,0,0,0,148.64949432276393,83.72620759109168Z" fill-rule="evenodd" style="fill: #1DC690; stroke: #fff; opacity: 1;" id="p-type-logs"></path><path d="M170.83614470287247,98.10204719096954A197,197,0,0,1,170.01483559670302,99.51861975040673L147.2371666469797,86.18565285341599A170.6070045455344,170.6070045455344,0,0,0,147.94844119728194,84.95886503063944Z" fill-rule="evenodd" style="fill: #1DC690; stroke: #fff; opacity: 1;" id="p-type-logs"></path><path d="M170.01483559670302,99.51861975040673A197,197,0,0,1,169.18178054818824,100.92831679238822L146.515719812215,87.40648630341174A170.6070045455344,170.6070045455344,0,0,0,147.2371666469797,86.18565285341599Z" fill-rule="evenodd" style="fill: #1DC690; stroke: #fff; opacity: 1;" id="p-type-logs"></path><path d="M169.18178054818824,100.92831679238822A197,197,0,0,1,168.33703711122652,102.33104092411814L145.784150536126,88.62128103599133A170.6070045455344,170.6070045455344,0,0,0,146.515719812215,87.40648630341174Z" fill-rule="evenodd" style="fill: #1DC690; stroke: #fff; opacity: 1;" id="p-type-logs"></path><path d="M168.33703711122652,102.33104092411814A197,197,0,0,1,167.4806636472407,103.72669523454329L145.0425093611874,89.82995312372076A170.6070045455344,170.6070045455344,0,0,0,145.784150536126,88.62128103599133Z" fill-rule="evenodd" style="fill: #1DC690; stroke: #fff; opacity: 1;" id="p-type-logs"></path><path d="M167.4806636472407,103.72669523454329A197,197,0,0,1,166.612719321146,105.11518330104849L144.2908475257188,91.0324190621658A170.6070045455344,170.6070045455344,0,0,0,145.0425093611874,89.82995312372076Z" fill-rule="evenodd" style="fill: #1DC690; stroke: #fff; opacity: 1;" id="p-type-logs"></path><path d="M166.612719321146,105.11518330104849A197,197,0,0,1,165.73326409726243,106.49640919611826L143.5292169603447,92.22859577566112A170.6070045455344,170.6070045455344,0,0,0,144.2908475257188,91.0324190621658Z" fill-rule="evenodd" style="fill: #1DC690; stroke: #fff; opacity: 1;" id="p-type-logs"></path><path d="M165.73326409726243,106.49640919611826A197,197,0,0,1,164.8423587351721,107.87027749396417L142.7576702844067,93.41840062304975A170.6070045455344,170.6070045455344,0,0,0,143.5292169603447,92.22859577566112Z" fill-rule="evenodd" style="fill: #1DC690; stroke: #fff; opacity: 1;" id="p-type-logs"></path><path d="M164.8423587351721,107.87027749396417A197,197,0,0,1,163.94006478552132,109.23669327711764L141.9762608023281,94.60175140339267A170.6070045455344,170.6070045455344,0,0,0,142.7576702844067,93.41840062304975Z" fill-rule="evenodd" style="fill: #1DC690; stroke: #fff; opacity: 1;" id="p-type-logs"></path><path d="M163.94006478552132,109.23669327711764A197,197,0,0,1,163.02644458576827,110.59556214298755L141.1850424999314,95.77856636164776A170.6070045455344,170.6070045455344,0,0,0,141.9762608023281,94.60175140339267Z" fill-rule="evenodd" style="fill: #1DC690; stroke: #fff; opacity: 1;" id="p-type-logs"></path><path d="M163.02644458576827,110.59556214298755A197,197,0,0,1,162.1015612558764,111.94679021038233L140.38407004070825,96.9487641943182A170.6070045455344,170.6070045455344,0,0,0,141.1850424999314,95.77856636164776Z" fill-rule="evenodd" style="fill: #1DC690; stroke: #fff; opacity: 1;" id="p-type-logs"></path><path d="M162.1015612558764,111.94679021038233A197,197,0,0,1,161.16547869395328,113.29028412599597L139.57339876204324,98.11226405506943A170.6070045455344,170.6070045455344,0,0,0,140.38407004070825,96.9487641943182Z" fill-rule="evenodd" style="fill: #1DC690; stroke: #fff; opacity: 1;" id="p-type-logs"></path><path d="M161.16547869395328,113.29028412599597A197,197,0,0,1,160.21826157183636,114.62595107085754L138.75308467139038,99.2689855603147A170.6070045455344,170.6070045455344,0,0,0,139.57339876204324,98.11226405506943Z" fill-rule="evenodd" style="fill: #1DC690; stroke: #fff; opacity: 1;" id="p-type-logs"></path><path d="M160.21826157183636,114.62595107085754A197,197,0,0,1,159.2599753306247,115.95369876674398L137.923184442404,100.41884879476862A170.6070045455344,170.6070045455344,0,0,0,138.75308467139038,99.2689855603147Z" fill-rule="evenodd" style="fill: #1DC690; stroke: #fff; opacity: 1;" id="p-type-logs"></path><path d="M159.2599753306247,115.95369876674398A197,197,0,0,1,158.29068617615798,117.27343548255534L137.08375541102308,101.5617743169683A170.6070045455344,170.6070045455344,0,0,0,137.923184442404,100.41884879476862Z" fill-rule="evenodd" style="fill: #1DC690; stroke: #fff; opacity: 1;" id="p-type-logs"></path><path d="M158.29068617615798,117.27343548255534A197,197,0,0,1,157.3104610744423,118.58507004065216L136.2348555715101,102.69768316476173A170.6070045455344,170.6070045455344,0,0,0,137.08375541102308,101.5617743169683Z" fill-rule="evenodd" style="fill: #1DC690; stroke: #fff; opacity: 1;" id="p-type-logs"></path><path d="M157.3104610744423,118.58507004065216A197,197,0,0,1,156.3193677470238,119.88851182315487L135.3765435724444,103.82649686076314A170.6070045455344,170.6070045455344,0,0,0,136.2348555715101,102.69768316476173Z" fill-rule="evenodd" style="fill: #1DC690; stroke: #fff; opacity: 1;" id="p-type-logs"></path><path d="M156.3193677470238,119.88851182315487A197,197,0,0,1,155.3174746663098,121.18367077820434L134.50887871267025,104.94813741777489A170.6070045455344,170.6070045455344,0,0,0,135.3765435724444,103.82649686076314Z" fill-rule="evenodd" style="fill: #1DC690; stroke: #fff; opacity: 1;" id="p-type-logs"></path><path d="M155.3174746663098,121.18367077820434A197,197,0,0,1,154.30485105083838,122.4704574261833L133.63192093719996,106.0625273441753A170.6070045455344,170.6070045455344,0,0,0,134.50887871267025,104.94813741777489Z" fill-rule="evenodd" style="fill: #1DC690; stroke: #fff; opacity: 1;" id="p-type-logs"></path><path d="M154.30485105083838,122.4704574261833A197,197,0,0,1,153.28156686049607,123.74878286589839L132.74573083307254,107.16958964927248A170.6070045455344,170.6070045455344,0,0,0,133.63192093719996,106.0625273441753Z" fill-rule="evenodd" style="fill: #1DC690; stroke: #fff; opacity: 1;" id="p-type-logs"></path><path d="M153.28156686049607,123.74878286589839A197,197,0,0,1,152.2476927916845,125.01855878072209L131.85036962516773,108.26924784862342A170.6070045455344,170.6070045455344,0,0,0,132.74573083307254,107.16958964927248Z" fill-rule="evenodd" style="fill: #1DC690; stroke: #fff; opacity: 1;" id="p-type-logs"></path><path d="M152.2476927916845,125.01855878072209A197,197,0,0,1,151.20330027243614,126.27969744469422L130.94589917197624,109.36142596931806A170.6070045455344,170.6070045455344,0,0,0,131.85036962516773,108.26924784862342Z" fill-rule="evenodd" style="fill: #1DC690; stroke: #fff; opacity: 1;" id="p-type-logs"></path><path d="M47.45318635828329,191.19935958168386A197,197,0,0,1,45.86233013009307,191.58717774172246L39.71794296940908,165.91936296369622A170.6070045455344,170.6070045455344,0,0,0,41.0956648767905,165.58350258505382Z" fill-rule="evenodd" style="fill: #D7A449; stroke: #fff; opacity: 1;" id="p-type-tokenTransfers"></path><path d="M45.86233013009307,191.58717774172246A197,197,0,0,1,44.26830537673481,191.96175957484905L38.3374770387396,166.24376034698A170.6070045455344,170.6070045455344,0,0,0,39.71794296940908,165.91936296369622Z" fill-rule="evenodd" style="fill: #D7A449; stroke: #fff; opacity: 1;" id="p-type-tokenTransfers"></path><path d="M44.26830537673481,191.96175957484905A197,197,0,0,1,42.6712222257911,192.3230792020478L36.95436245806625,166.55667232302002A170.6070045455344,170.6070045455344,0,0,0,38.3374770387396,166.24376034698Z" fill-rule="evenodd" style="fill: #D7A449; stroke: #fff; opacity: 1;" id="p-type-tokenTransfers"></path><path d="M42.6712222257911,192.3230792020478A197,197,0,0,1,41.071191016142336,192.67111166055886L35.56869478366247,166.85807727343217A170.6070045455344,170.6070045455344,0,0,0,36.95436245806625,166.55667232302002Z" fill-rule="evenodd" style="fill: #D7A449; stroke: #fff; opacity: 1;" id="p-type-tokenTransfers"></path><path d="M41.071191016142336,192.67111166055886A197,197,0,0,1,39.468322290343664,193.00583290560303L34.180569748189235,167.14795437482675A170.6070045455344,170.6070045455344,0,0,0,35.56869478366247,166.85807727343217Z" fill-rule="evenodd" style="fill: #D7A449; stroke: #fff; opacity: 1;" id="p-type-tokenTransfers"></path><path d="M39.468322290343664,193.00583290560303A197,197,0,0,1,37.86272678698784,193.32721981204278L32.790083254081026,167.42628360024727A170.6070045455344,170.6070045455344,0,0,0,34.180569748189235,167.14795437482675Z" fill-rule="evenodd" style="fill: #D7A449; stroke: #fff; opacity: 1;" id="p-type-tokenTransfers"></path><path d="M37.86272678698784,193.32721981204278A197,197,0,0,1,36.25451543305454,193.6352501759801L31.397331366920223,167.69304572055398A170.6070045455344,170.6070045455344,0,0,0,32.790083254081026,167.42628360024727Z" fill-rule="evenodd" style="fill: #D7A449; stroke: #fff; opacity: 1;" id="p-type-tokenTransfers"></path><path d="M36.25451543305454,193.6352501759801A197,197,0,0,1,34.64379933624666,193.92990271629043L30.00241030880008,167.94822230575232A170.6070045455344,170.6070045455344,0,0,0,31.397331366920223,167.69304572055398Z" fill-rule="evenodd" style="fill: #D7A449; stroke: #fff; opacity: 1;" id="p-type-tokenTransfers"></path><path d="M34.64379933624666,193.92990271629043A197,197,0,0,1,33.030689777314144,194.21115707609292L28.605416451677012,168.1917957262664A170.6070045455344,170.6070045455344,0,0,0,30.00241030880008,167.94822230575232Z" fill-rule="evenodd" style="fill: #D7A449; stroke: #fff; opacity: 1;" id="p-type-tokenTransfers"></path><path d="M33.030689777314144,194.21115707609292A197,197,0,0,1,31.41529820236586,194.47899382415682L27.206446310712444,168.42374915415675A170.6070045455344,170.6070045455344,0,0,0,28.605416451677012,168.1917957262664Z" fill-rule="evenodd" style="fill: #D7A449; stroke: #fff; opacity: 1;" id="p-type-tokenTransfers"></path><path d="M31.41529820236586,194.47899382415682A197,197,0,0,1,29.797736215170023,194.73339445624404L25.80559653760481,168.64406656428312A170.6070045455344,170.6070045455344,0,0,0,27.206446310712444,168.42374915415675Z" fill-rule="evenodd" style="fill: #D7A449; stroke: #fff; opacity: 1;" id="p-type-tokenTransfers"></path><path d="M29.797736215170023,194.73339445624404A197,197,0,0,1,28.17811556944373,194.97434139638753L24.40296391391208,168.8527327354115A170.6070045455344,170.6070045455344,0,0,0,25.80559653760481,168.64406656428312Z" fill-rule="evenodd" style="fill: #D7A449; stroke: #fff; opacity: 1;" id="p-type-tokenTransfers"></path><path d="M28.17811556944373,194.97434139638753A197,197,0,0,1,26.556548161132177,195.2018179981054L22.998645344365386,169.04973325126574A170.6070045455344,170.6070045455344,0,0,0,24.40296391391208,168.8527327354115Z" fill-rule="evenodd" style="fill: #D7A449; stroke: #fff; opacity: 1;" id="p-type-tokenTransfers"></path><path d="M26.556548161132177,195.2018179981054A197,197,0,0,1,24.933146020678013,195.41580854555127L21.592737850174046,169.2350545015236A170.6070045455344,170.6070045455344,0,0,0,22.998645344365386,169.04973325126574Z" fill-rule="evenodd" style="fill: #D7A449; stroke: #fff; opacity: 1;" id="p-type-tokenTransfers"></path><path d="M24.933146020678013,195.41580854555127A197,197,0,0,1,23.308021305281382,195.6162982545998L20.185338562322606,169.40868368275696A170.6070045455344,170.6070045455344,0,0,0,21.592737850174046,169.2350545015236Z" fill-rule="evenodd" style="fill: #D7A449; stroke: #fff; opacity: 1;" id="p-type-tokenTransfers"></path><path d="M23.308021305281382,195.6162982545998A197,197,0,0,1,21.68128629115127,195.80327327386826L18.776544714860293,169.57060879931655A170.6070045455344,170.6070045455344,0,0,0,20.185338562322606,169.40868368275696Z" fill-rule="evenodd" style="fill: #D7A449; stroke: #fff; opacity: 1;" id="p-type-tokenTransfers"></path><path d="M21.68128629115127,195.80327327386826A197,197,0,0,1,20.05305336574856,195.9767206856734L17.366453638183295,169.72081866416045A170.6070045455344,170.6070045455344,0,0,0,18.776544714860293,169.57060879931655Z" fill-rule="evenodd" style="fill: #D7A449; stroke: #fff; opacity: 1;" id="p-type-tokenTransfers"></path><path d="M20.05305336574856,195.9767206856734A197,197,0,0,1,18.423435020021476,196.13662850692384L15.955162752310466,169.85930289962715A170.6070045455344,170.6070045455344,0,0,0,17.366453638183295,169.72081866416045Z" fill-rule="evenodd" style="fill: #D7A449; stroke: #fff; opacity: 1;" id="p-type-tokenTransfers"></path><path d="M18.423435020021476,196.13662850692384A197,197,0,0,1,16.792543840633797,196.28298568994813L14.542769560152774,169.98605193815254A170.6070045455344,170.6070045455344,0,0,0,15.955162752310466,169.85930289962715Z" fill-rule="evenodd" style="fill: #D7A449; stroke: #fff; opacity: 1;" id="p-type-tokenTransfers"></path><path d="M16.792543840633797,196.28298568994813A197,197,0,0,1,15.160492502186521,196.41578212325797L13.129371640777038,170.1010570229308A170.6070045455344,170.6070045455344,0,0,0,14.542769560152774,169.98605193815254Z" fill-rule="evenodd" style="fill: #D7A449; stroke: #fff; opacity: 1;" id="p-type-tokenTransfers"></path><path d="M15.160492502186521,196.41578212325797A197,197,0,0,1,13.52739375943343,196.5350086322466L11.71506664266443,170.20431020851947A170.6070045455344,170.6070045455344,0,0,0,13.129371640777038,170.1010570229308Z" fill-rule="evenodd" style="fill: #D7A449; stroke: #fff; opacity: 1;" id="p-type-tokenTransfers"></path><path d="M13.52739375943343,196.5350086322466A197,197,0,0,1,11.893360439491099,196.64065697982284L10.299952276964147,170.29580436138835A170.6070045455344,170.6070045455344,0,0,0,11.71506664266443,170.20431020851947Z" fill-rule="evenodd" style="fill: #D7A449; stroke: #fff; opacity: 1;" id="p-type-tokenTransfers"></path><path d="M11.893360439491099,196.64065697982284A197,197,0,0,1,10.258505434043947,196.73271986698018L8.884126310742767,170.37553316041235A170.6070045455344,170.6070045455344,0,0,0,10.299952276964147,170.29580436138835Z" fill-rule="evenodd" style="fill: #D7A449; stroke: #fff; opacity: 1;" id="p-type-tokenTransfers"></path><path d="M10.258505434043947,196.73271986698018A197,197,0,0,1,8.622941691544794,196.81119093330088L7.467686560229751,170.44349109730814A170.6070045455344,170.6070045455344,0,0,0,8.884126310742767,170.37553316041235Z" fill-rule="evenodd" style="fill: #D7A449; stroke: #fff; opacity: 1;" id="p-type-tokenTransfers"></path><path d="M8.622941691544794,196.81119093330088A197,197,0,0,1,6.986782209411507,196.87606475739565L6.050730884059532,170.49967347701485A170.6070045455344,170.6070045455344,0,0,0,7.467686560229751,170.44349109730814Z" fill-rule="evenodd" style="fill: #D7A449; stroke: #fff; opacity: 1;" id="p-type-tokenTransfers"></path><path d="M6.986782209411507,196.87606475739565A197,197,0,0,1,5.350140026220262,196.927336857278L4.633357176510689,170.54407641801834A170.6070045455344,170.6070045455344,0,0,0,6.050730884059532,170.49967347701485Z" fill-rule="evenodd" style="fill: #D7A449; stroke: #fff; opacity: 1;" id="p-type-tokenTransfers"></path><path d="M5.350140026220262,196.927336857278A197,197,0,0,1,3.7131282138959665,196.96500369067385L3.2156633607426457,170.57669685261928A170.6070045455344,170.6070045455344,0,0,0,4.633357176510689,170.54407641801834Z" fill-rule="evenodd" style="fill: #D7A449; stroke: #fff; opacity: 1;" id="p-type-tokenTransfers"></path><path d="M3.7131282138959665,196.96500369067385A197,197,0,0,1,2.075859869900372,196.98906265526657L1.797747382030382,170.59753252714532A170.6070045455344,170.6070045455344,0,0,0,3.2156633607426457,170.57669685261928Z" fill-rule="evenodd" style="fill: #D7A449; stroke: #fff; opacity: 1;" id="p-type-tokenTransfers"></path><path d="M2.075859869900372,196.98906265526657A197,197,0,0,1,0.4384481094184274,196.99951208887637L0.3797072009976173,170.60658200210656A170.6070045455344,170.6070045455344,0,0,0,1.797747382030382,170.59753252714532Z" fill-rule="evenodd" style="fill: #D7A449; stroke: #fff; opacity: 1;" id="p-type-tokenTransfers"></path><path d="M0.4384481094184274,196.99951208887637A197,197,0,0,1,-1.1989939424565985,196.99635126957543L-1.0383592131510717,170.60384465229515A170.6070045455344,170.6070045455344,0,0,0,0.3797072009976173,170.60658200210656Z" fill-rule="evenodd" style="fill: #D7A449; stroke: #fff; opacity: 1;" id="p-type-tokenTransfers"></path><path d="M-1.1989939424565985,196.99635126957543A197,197,0,0,1,-2.836353158538671,196.97958041573762L-2.45635388939872,170.58932066682848A170.6070045455344,170.6070045455344,0,0,0,-1.0383592131510717,170.60384465229515Z" fill-rule="evenodd" style="fill: #D7A449; stroke: #fff; opacity: 1;" id="p-type-tokenTransfers"></path><path d="M-2.836353158538671,196.97958041573762A197,197,0,0,1,-4.473516417364695,196.94920068602352L-3.874178861684575,170.56301104913595A170.6070045455344,170.6070045455344,0,0,0,-2.45635388939872,170.58932066682848Z" fill-rule="evenodd" style="fill: #D7A449; stroke: #fff; opacity: 1;" id="p-type-tokenTransfers"></path><path d="M-4.473516417364695,196.94920068602352A197,197,0,0,1,-6.110370611009819,196.90521417930026L-5.291736175672346,170.52491761688987A170.6070045455344,170.6070045455344,0,0,0,-3.874178861684575,170.56301104913595Z" fill-rule="evenodd" style="fill: #D7A449; stroke: #fff; opacity: 1;" id="p-type-tokenTransfers"></path><path d="M-6.110370611009819,196.90521417930026A197,197,0,0,1,-7.746802652901813,196.8476239344966L-6.708927895517653,170.47504300187973A170.6070045455344,170.6070045455344,0,0,0,-5.291736175672346,170.52491761688987Z" fill-rule="evenodd" style="fill: #D7A449; stroke: #fff; opacity: 1;" id="p-type-tokenTransfers"></path><path d="M-7.746802652901813,196.8476239344966A197,197,0,0,1,-9.382699485633959,196.7764339303929L-8.125656110634194,170.41339064983043A170.6070045455344,170.6070045455344,0,0,0,-6.708927895517653,170.47504300187973Z" fill-rule="evenodd" style="fill: #D7A449; stroke: #fff; opacity: 1;" id="p-type-tokenTransfers"></path><path d="M-9.382699485633959,196.7764339303929A197,197,0,0,1,-11.017948088775935,196.69164908534637L-9.541822942458163,170.3399648201642A170.6070045455344,170.6070045455344,0,0,0,-8.125656110634194,170.41339064983043Z" fill-rule="evenodd" style="fill: #D7A449; stroke: #fff; opacity: 1;" id="p-type-tokenTransfers"></path><path d="M-11.017948088775935,196.69164908534637A197,197,0,0,1,-12.652435486682142,196.59327525695113L-10.957330551210463,170.25477058570638A170.6070045455344,170.6070045455344,0,0,0,-9.541822942458163,170.3399648201642Z" fill-rule="evenodd" style="fill: #D7A449; stroke: #fff; opacity: 1;" id="p-type-tokenTransfers"></path><path d="M-12.652435486682142,196.59327525695113A197,197,0,0,1,-14.28604875629694,196.4813192416335L-12.372081142656235,170.15781383233485A170.6070045455344,170.6070045455344,0,0,0,-10.957330551210463,170.25477058570638Z" fill-rule="evenodd" style="fill: #D7A449; stroke: #fff; opacity: 1;" id="p-type-tokenTransfers"></path><path d="M-14.28604875629694,196.4813192416335A197,197,0,0,1,-15.918675034956246,196.3557887741827L-13.785976974861246,170.04910125857353A170.6070045455344,170.6070045455344,0,0,0,-12.372081142656235,170.15781383233485Z" fill-rule="evenodd" style="fill: #D7A449; stroke: #fff; opacity: 1;" id="p-type-tokenTransfers"></path><path d="M-15.918675034956246,196.3557887741827A197,197,0,0,1,-17.550201528184957,196.21669252721617L-15.198920364944648,169.92864037512942A170.6070045455344,170.6070045455344,0,0,0,-13.785976974861246,170.04910125857353Z" fill-rule="evenodd" style="fill: #D7A449; stroke: #fff; opacity: 1;" id="p-type-tokenTransfers"></path><path d="M-17.550201528184957,196.21669252721617A197,197,0,0,1,-19.18051551748967,196.06404011058055L-16.61081369582768,169.7964395043739A170.6070045455344,170.6070045455344,0,0,0,-15.198920364944648,169.92864037512942Z" fill-rule="evenodd" style="fill: #D7A449; stroke: #fff; opacity: 1;" id="p-type-tokenTransfers"></path><path d="M-19.18051551748967,196.06404011058055A197,197,0,0,1,-20.809504368146154,195.89784207068772L-18.021559422977813,169.65250777976752A170.6070045455344,170.6070045455344,0,0,0,-16.61081369582768,169.7964395043739Z" fill-rule="evenodd" style="fill: #D7A449; stroke: #fff; opacity: 1;" id="p-type-tokenTransfers"></path><path d="M-20.809504368146154,195.89784207068772A197,197,0,0,1,-22.437055536981017,195.7181098897862L-19.431060081147862,169.49685514522923A170.6070045455344,170.6070045455344,0,0,0,-18.021559422977813,169.65250777976752Z" fill-rule="evenodd" style="fill: #D7A449; stroke: #fff; opacity: 1;" id="p-type-tokenTransfers"></path><path d="M-22.437055536981017,195.7181098897862A197,197,0,0,1,-24.06305658014708,195.52485598516787L-20.839218291109667,169.32949235444923A170.6070045455344,170.6070045455344,0,0,0,-19.431060081147862,169.49685514522923Z" fill-rule="evenodd" style="fill: #D7A449; stroke: #fff; opacity: 1;" id="p-type-tokenTransfers"></path><path d="M-24.06305658014708,195.52485598516787A197,197,0,0,1,-25.687395160891846,195.31809370831007L-22.245936766381796,169.15043097014603A170.6070045455344,170.6070045455344,0,0,0,-20.839218291109667,169.32949235444923Z" fill-rule="evenodd" style="fill: #D7A449; stroke: #fff; opacity: 1;" id="p-type-tokenTransfers"></path><path d="M-25.687395160891846,195.31809370831007A197,197,0,0,1,-27.30995905731861,195.0978373439531L-23.651118319950836,168.95968336326771A170.6070045455344,170.6070045455344,0,0,0,-22.245936766381796,169.15043097014603Z" fill-rule="evenodd" style="fill: #D7A449; stroke: #fff; opacity: 1;" id="p-type-tokenTransfers"></path><path d="M-27.30995905731861,195.0978373439531A197,197,0,0,1,-28.930636170139614,194.8641021091135L-25.054665870985843,168.75726271213708A170.6070045455344,170.6070045455344,0,0,0,-23.651118319950836,168.95968336326771Z" fill-rule="evenodd" style="fill: #D7A449; stroke: #fff; opacity: 1;" id="p-type-tokenTransfers"></path><path d="M-28.930636170139614,194.8641021091135A197,197,0,0,1,-30.549314530420723,194.61690415203256L-26.456482451545423,168.5431830015414A170.6070045455344,170.6070045455344,0,0,0,-25.054665870985843,168.75726271213708Z" fill-rule="evenodd" style="fill: #D7A449; stroke: #fff; opacity: 1;" id="p-type-tokenTransfers"></path><path d="M-30.549314530420723,194.61690415203256A197,197,0,0,1,-32.16588230731714,194.35626055106076L-27.856471213277054,168.31745902176596A170.6070045455344,170.6070045455344,0,0,0,-26.456482451545423,168.5431830015414Z" fill-rule="evenodd" style="fill: #D7A449; stroke: #fff; opacity: 1;" id="p-type-tokenTransfers"></path><path d="M-32.16588230731714,194.35626055106076A197,197,0,0,1,-33.78022781579949,194.08218931347793L-29.25453543410808,168.08010636757257A170.6070045455344,170.6070045455344,0,0,0,-27.856471213277054,168.31745902176596Z" fill-rule="evenodd" style="fill: #D7A449; stroke: #fff; opacity: 1;" id="p-type-tokenTransfers"></path><path d="M-33.78022781579949,194.08218931347793A197,197,0,0,1,-35.392239524369955,193.79470937424898L-30.65057852492806,167.8311414371219A170.6070045455344,170.6070045455344,0,0,0,-29.25453543410808,168.08010636757257Z" fill-rule="evenodd" style="fill: #D7A449; stroke: #fff; opacity: 1;" id="p-type-tokenTransfers"></path><path d="M-35.392239524369955,193.79470937424898A197,197,0,0,1,-37.001806062767685,193.4938405947159L-32.04450403626187,167.57058143084063A170.6070045455344,170.6070045455344,0,0,0,-30.65057852492806,167.8311414371219Z" fill-rule="evenodd" style="fill: #D7A449; stroke: #fff; opacity: 1;" id="p-type-tokenTransfers"></path><path d="M-37.001806062767685,193.4938405947159A197,197,0,0,1,-38.60881622966312,193.17960376122554L-33.43621566493319,167.2984443502332A170.6070045455344,170.6070045455344,0,0,0,-32.04450403626187,167.57058143084063Z" fill-rule="evenodd" style="fill: #D7A449; stroke: #fff; opacity: 1;" id="p-type-tokenTransfers"></path><path d="M-38.60881622966312,193.17960376122554A197,197,0,0,1,-40.213159000340674,192.85202058369345L-34.82561726071786,167.014748996638A170.6070045455344,170.6070045455344,0,0,0,-33.43621566493319,167.2984443502332Z" fill-rule="evenodd" style="fill: #D7A449; stroke: #fff; opacity: 1;" id="p-type-tokenTransfers"></path><path d="M-40.213159000340674,192.85202058369345A197,197,0,0,1,-41.81472353436915,192.5111136941041L-36.21261283298671,166.71951496992847A170.6070045455344,170.6070045455344,0,0,0,-34.82561726071786,167.014748996638Z" fill-rule="evenodd" style="fill: #D7A449; stroke: #fff; opacity: 1;" id="p-type-tokenTransfers"></path><path d="M-41.81472353436915,192.5111136941041A197,197,0,0,1,-43.413399183259486,192.15690664494724L-37.59710655733731,166.41276266715911A170.6070045455344,170.6070045455344,0,0,0,-36.21261283298671,166.71951496992847Z" fill-rule="evenodd" style="fill: #D7A449; stroke: #fff; opacity: 1;" id="p-type-tokenTransfers"></path><path d="M-43.413399183259486,192.15690664494724A197,197,0,0,1,-45.00907549810917,191.78942390759067L-38.97900278221428,166.09451328115608A170.6070045455344,170.6070045455344,0,0,0,-37.59710655733731,166.41276266715911Z" fill-rule="evenodd" style="fill: #D7A449; stroke: #fff; opacity: 1;" id="p-type-tokenTransfers"></path><path d="M-45.00907549810917,191.78942390759067A197,197,0,0,1,-46.601642237232944,191.40869087058965L-40.35820603551761,165.76478879905318A170.6070045455344,170.6070045455344,0,0,0,-38.97900278221428,166.09451328115608Z" fill-rule="evenodd" style="fill: #D7A449; stroke: #fff; opacity: 1;" id="p-type-tokenTransfers"></path><path d="M-46.601642237232944,191.40869087058965A197,197,0,0,1,-48.190989373779125,191.0147338379328L-41.73462103119866,165.4236120007728A170.6070045455344,170.6070045455344,0,0,0,-40.35820603551761,165.76478879905318Z" fill-rule="evenodd" style="fill: #D7A449; stroke: #fff; opacity: 1;" id="p-type-tokenTransfers"></path><path d="M-48.190989373779125,191.0147338379328A197,197,0,0,1,-49.777007103331144,190.60758002722483L-43.10815267584322,165.07100645745209A170.6070045455344,170.6070045455344,0,0,0,-41.73462103119866,165.4236120007728Z" fill-rule="evenodd" style="fill: #D7A449; stroke: #fff; opacity: 1;" id="p-type-tokenTransfers"></path><path d="M-49.777007103331144,190.60758002722483A197,197,0,0,1,-51.35958585149365,190.1872575678062L-44.47870607524133,164.7069965298144A170.6070045455344,170.6070045455344,0,0,0,-43.10815267584322,165.07100645745209Z" fill-rule="evenodd" style="fill: #D7A449; stroke: #fff; opacity: 1;" id="p-type-tokenTransfers"></path><path d="M-51.35958585149365,190.1872575678062A197,197,0,0,1,-52.93861628146279,189.75379549880955L-45.84618654094327,164.33160736648634A170.6070045455344,170.6070045455344,0,0,0,-44.47870607524133,164.7069965298144Z" fill-rule="evenodd" style="fill: #D7A449; stroke: #fff; opacity: 1;" id="p-type-tokenTransfers"></path><path d="M-52.93861628146279,189.75379549880955A197,197,0,0,1,-54.51398930158001,189.30722376715374L-47.2104995968014,163.94486490226038A170.6070045455344,170.6070045455344,0,0,0,-45.84618654094327,164.33160736648634Z" fill-rule="evenodd" style="fill: #D7A449; stroke: #fff; opacity: 1;" id="p-type-tokenTransfers"></path><path d="M-54.51398930158001,189.30722376715374A197,197,0,0,1,-56.085596072869,188.84757322547458L-48.5715509854973,163.54679585630296A170.6070045455344,170.6070045455344,0,0,0,-47.2104995968014,163.94486490226038Z" fill-rule="evenodd" style="fill: #D7A449; stroke: #fff; opacity: 1;" id="p-type-tokenTransfers"></path><path d="M-56.085596072869,188.84757322547458A197,197,0,0,1,-57.65332801655508,188.37487562999345L-49.929246675053804,163.1374277303085A170.6070045455344,170.6070045455344,0,0,0,-48.5715509854973,163.54679585630296Z" fill-rule="evenodd" style="fill: #D7A449; stroke: #fff; opacity: 1;" id="p-type-tokenTransfers"></path><path d="M-148.58814782251613,129.3466749733989A197,197,0,0,1,-168.70860825928386,101.71728220521571L-146.105940589657,88.08975039362764A170.6070045455344,170.6070045455344,0,0,0,-128.68111071557638,112.01750642201232Z" fill-rule="evenodd" style="fill: #414552; stroke: #fff; opacity: 1;" id="p-type-ether"></path><path d="M-168.70860825928386,101.71728220521571A197,197,0,0,1,-172.8324849764234,94.54063748925317L-149.67732258877498,81.87459375566871A170.6070045455344,170.6070045455344,0,0,0,-146.105940589657,88.08975039362764Z" fill-rule="evenodd" style="fill: #414552; stroke: #fff; opacity: 1;" id="p-type-ether"></path></g></svg>