<svg xmlns="http://www.w3.org/2000/svg" width="400" height="400" id="block-7824855"><g id="burst-container" transform="translate(200,200)"><circle r="197" style="fill: #f9f9f9; stroke: #f9f9f9; stroke-width: 3; opacity: 1;" id="circle-base"></circle><path display="none" d="M6.031385485800715e-15,-98.5A98.5,98.5,0,1,1,-6.031385485800715e-15,98.5A98.5,98.5,0,1,1,6.031385485800715e-15,-98.5Z" fill-rule="evenodd" id="p-type-root" style="stroke: #fff; opacity: 1;"></path><path d="M8.529667153919608e-15,-139.30003589374985A139.30003589374985,139.30003589374985,0,1,1,-121.84656898466132,-67.51232203580444L-86.15853519336848,-47.738420725167316A98.5,98.5,0,1,0,6.031385485800715e-15,-98.5Z" fill-rule="evenodd" style="fill: #0B1F65; stroke: #fff; opacity: 1;" id="p-type-data"></path><path d="M-121.84656898466132,-67.51232203580444A139.30003589374985,139.30003589374985,0,0,1,-3.9029281825353213,-139.24534876110573L-2.7597869843548133,-98.46133035766368A98.5,98.5,0,0,0,-86.15853519336848,-47.738420725167316Z" fill-rule="evenodd" style="fill: #D7A449; stroke: #fff; opacity: 1;" id="p-type-value"></path><path d="M1.0446666101440332e-14,-170.6070045455344A170.6070045455344,170.6070045455344,0,0,1,170.60555781183194,0.7025978321005261L139.29885464062826,0.573668727677312A139.30003589374985,139.30003589374985,0,0,0,8.529667153919608e-15,-139.30003589374985Z" fill-rule="evenodd" style="fill: #DB3F29; stroke: #fff; opacity: 1;" id="p-type-functions"></path><path d="M170.60555781183194,0.7025978321005261A170.6070045455344,170.6070045455344,0,0,1,82.07010250588088,149.57021185608517L67.00995809243973,122.12356658912917A139.30003589374985,139.30003589374985,0,0,0,139.29885464062826,0.573668727677312Z" fill-rule="evenodd" style="fill: #1DC690; stroke: #fff; opacity: 1;" id="p-type-logs"></path><path d="M82.07010250588088,149.57021185608517A170.6070045455344,170.6070045455344,0,0,1,-76.49148305967329,152.4985344825704L-62.45503438831431,124.51453200150766A139.30003589374985,139.30003589374985,0,0,0,67.00995809243973,122.12356658912917Z" fill-rule="evenodd" style="fill: #D7A449; stroke: #fff; opacity: 1;" id="p-type-tokenTransfers"></path><path d="M-76.49148305967329,152.4985344825704A170.6070045455344,170.6070045455344,0,0,1,-144.65076904954608,90.4594108613077L-118.10685835752052,73.85979968099414A139.30003589374985,139.30003589374985,0,0,0,-62.45503438831431,124.51453200150766Z" fill-rule="evenodd" style="fill: #414552; stroke: #fff; opacity: 1;" id="p-type-ether"></path><path d="M-149.23096046062543,-82.68537016908887A170.6070045455344,170.6070045455344,0,0,1,-88.65360221314108,-145.76449778541462L-72.38536309395639,-119.01621406243812A139.30003589374985,139.30003589374985,0,0,0,-121.84656898466132,-67.51232203580444Z" fill-rule="evenodd" style="fill: #414552; stroke: #fff; opacity: 1;" id="p-type-ether"></path><path d="M-88.65360221314108,-145.76449778541462A170.6070045455344,170.6070045455344,0,0,1,-9.556429363748148,-170.339145993561L-7.802791901377686,-139.0813303018913A139.30003589374985,139.30003589374985,0,0,0,-72.38536309395639,-119.01621406243812Z" fill-rule="evenodd" style="fill: #D7A449; stroke: #fff; opacity: 1;" id="p-type-tokenTransfers"></path><path d="M1.206277097160143e-14,-197A197,197,0,0,1,2.760057887119917,-196.98066422991815L2.3902802461614505,-170.5902592774418A170.6070045455344,170.6070045455344,0,0,0,1.0446666101440332e-14,-170.6070045455344Z" fill-rule="evenodd" style="fill: #DB3F29; stroke: #fff; opacity: 1;" id="p-type-functions"></path><path d="M2.760057887119917,-196.98066422991815A197,197,0,0,1,5.51957396870969,-196.92266071532737L4.780091274969886,-170.5400267602974A170.6070045455344,170.6070045455344,0,0,0,2.3902802461614505,-170.5902592774418Z" fill-rule="evenodd" style="fill: #DB3F29; stroke: #fff; opacity: 1;" id="p-type-functions"></path><path d="M5.51957396870969,-196.92266071532737A197,197,0,0,1,8.27800654559688,-196.82600084244729L7.168963961180762,-170.45631685485665A170.6070045455344,170.6070045455344,0,0,0,4.780091274969886,-170.5400267602974Z" fill-rule="evenodd" style="fill: #DB3F29; stroke: #fff; opacity: 1;" id="p-type-functions"></path><path d="M8.27800654559688,-196.82600084244729A197,197,0,0,1,11.034814131303293,-196.69070358582684L9.556429363748164,-170.339145993561A170.6070045455344,170.6070045455344,0,0,0,7.168963961180762,-170.45631685485665Z" fill-rule="evenodd" style="fill: #DB3F29; stroke: #fff; opacity: 1;" id="p-type-functions"></path><path d="M11.034814131303293,-196.69070358582684A197,197,0,0,1,13.789455558340276,-196.5167955046198L11.942018817879209,-170.18853717731233A170.6070045455344,170.6070045455344,0,0,0,9.556429363748164,-170.339145993561Z" fill-rule="evenodd" style="fill: #DB3F29; stroke: #fff; opacity: 1;" id="p-type-functions"></path><path d="M13.789455558340276,-196.5167955046198A197,197,0,0,1,16.541390084440913,-196.30431073737114L14.32526402703385,-170.00451997095774A170.6070045455344,170.6070045455344,0,0,0,11.942018817879209,-170.18853717731233Z" fill-rule="evenodd" style="fill: #DB3F29; stroke: #fff; opacity: 1;" id="p-type-functions"></path><path d="M16.541390084440913,-196.30431073737114A197,197,0,0,1,19.290077498709028,-196.05329099531536L16.7056971548526,-169.78713049748603A170.6070045455344,170.6070045455344,0,0,0,14.32526402703385,-170.00451997095774Z" fill-rule="evenodd" style="fill: #DB3F29; stroke: #fff; opacity: 1;" id="p-type-functions"></path><path d="M19.290077498709028,-196.05329099531536A197,197,0,0,1,22.034978227663633,-195.76378555418873L19.082850916993713,-169.53641143093654A170.6070045455344,170.6070045455344,0,0,0,16.7056971548526,-169.78713049748603Z" fill-rule="evenodd" style="fill: #DB3F29; stroke: #fff; opacity: 1;" id="p-type-functions"></path><path d="M22.034978227663633,-195.76378555418873A197,197,0,0,1,24.775553441158653,-195.4358512445562L21.45625867286236,-169.25241198802226A170.6070045455344,170.6070045455344,0,0,0,19.082850916993713,-169.53641143093654Z" fill-rule="evenodd" style="fill: #DB3F29; stroke: #fff; opacity: 1;" id="p-type-functions"></path><path d="M24.775553441158653,-195.4358512445562A197,197,0,0,1,27.51126515815632,-195.06955244065543L23.825454517213085,-168.93518791846833A170.6070045455344,170.6070045455344,0,0,0,21.45625867286236,-169.25241198802226Z" fill-rule="evenodd" style="fill: #DB3F29; stroke: #fff; opacity: 1;" id="p-type-functions"></path><path d="M27.51126515815632,-195.06955244065543A197,197,0,0,1,30.241576352334135,-194.66496104776007L26.1899733716081,-168.58480149406844A170.6070045455344,170.6070045455344,0,0,0,23.825454517213085,-168.93518791846833Z" fill-rule="evenodd" style="fill: #DB3F29; stroke: #fff; opacity: 1;" id="p-type-functions"></path><path d="M30.241576352334135,-194.66496104776007A197,197,0,0,1,32.96595105750418,-194.22215648806454L28.549351075713098,-168.20132149646054A170.6070045455344,170.6070045455344,0,0,0,26.1899733716081,-168.58480149406844Z" fill-rule="evenodd" style="fill: #DB3F29; stroke: #fff; opacity: 1;" id="p-type-functions"></path><path d="M32.96595105750418,-194.22215648806454A197,197,0,0,1,35.683854472824684,-193.74122568509335L30.903124478413147,-167.78482320362502A170.6070045455344,170.6070045455344,0,0,0,28.549351075713098,-168.20132149646054Z" fill-rule="evenodd" style="fill: #DB3F29; stroke: #fff; opacity: 1;" id="p-type-functions"></path><path d="M35.683854472824684,-193.74122568509335A197,197,0,0,1,38.394753067782545,-193.22226304663758L33.25083152873019,-167.33538837510733A170.6070045455344,170.6070045455344,0,0,0,30.903124478413147,-167.78482320362502Z" fill-rule="evenodd" style="fill: #DB3F29; stroke: #fff; opacity: 1;" id="p-type-functions"></path><path d="M38.394753067782545,-193.22226304663758A197,197,0,0,1,41.09811468692654,-192.6653704462227L35.59201136652473,-166.85310523596848A170.6070045455344,170.6070045455344,0,0,0,33.25083152873019,-167.33538837510733Z" fill-rule="evenodd" style="fill: #DB3F29; stroke: #fff; opacity: 1;" id="p-type-functions"></path><path d="M41.09811468692654,-192.6653704462227A197,197,0,0,1,43.79340865433056,-192.07065720311056L37.92620441296355,-166.3380684594663A170.6070045455344,170.6070045455344,0,0,0,35.59201136652473,-166.85310523596848Z" fill-rule="evenodd" style="fill: #DB3F29; stroke: #fff; opacity: 1;" id="p-type-functions"></path><path d="M43.79340865433056,-192.07065720311056A197,197,0,0,1,46.48010587776664,-191.4382400608395L40.25295246073631,-165.7903791484708A170.6070045455344,170.6070045455344,0,0,0,37.92620441296355,-166.3380684594663Z" fill-rule="evenodd" style="fill: #DB3F29; stroke: #fff; opacity: 1;" id="p-type-functions"></path><path d="M46.48010587776664,-191.4382400608395A197,197,0,0,1,49.15767895256684,-190.76824316430753L42.5717987640025,-165.2101448156174A170.6070045455344,170.6070045455344,0,0,0,40.25295246073631,-165.7903791484708Z" fill-rule="evenodd" style="fill: #DB3F29; stroke: #fff; opacity: 1;" id="p-type-functions"></path><path d="M49.15767895256684,-190.76824316430753A197,197,0,0,1,51.82560226515404,-190.0607980354025L44.88228812805174,-164.5974793622021A170.6070045455344,170.6070045455344,0,0,0,42.5717987640025,-165.2101448156174Z" fill-rule="evenodd" style="fill: #DB3F29; stroke: #fff; opacity: 1;" id="p-type-functions"></path><path d="M51.82560226515404,-190.0607980354025A197,197,0,0,1,54.483352096220855,-189.31604354718388L47.18396699865941,-163.9525030558223A170.6070045455344,170.6070045455344,0,0,0,44.88228812805174,-164.5974793622021Z" fill-rule="evenodd" style="fill: #DB3F29; stroke: #fff; opacity: 1;" id="p-type-functions"></path><path d="M54.483352096220855,-189.31604354718388A197,197,0,0,1,57.13040672353719,-188.53412589662176L49.4763835511205,-163.27534250676803A170.6070045455344,170.6070045455344,0,0,0,47.18396699865941,-163.9525030558223Z" fill-rule="evenodd" style="fill: #DB3F29; stroke: #fff; opacity: 1;" id="p-type-functions"></path><path d="M57.13040672353719,-188.53412589662176A197,197,0,0,1,59.7662465243653,-187.71519857589794L51.759087778943766,-162.5661306431681A170.6070045455344,170.6070045455344,0,0,0,49.4763835511205,-163.27534250676803Z" fill-rule="evenodd" style="fill: #DB3F29; stroke: #fff; opacity: 1;" id="p-type-functions"></path><path d="M59.7662465243653,-187.71519857589794A197,197,0,0,1,62.39035407746294,-186.85942234227528L54.031631582188936,-161.8250066848959A170.6070045455344,170.6070045455344,0,0,0,51.759087778943766,-162.5661306431681Z" fill-rule="evenodd" style="fill: #DB3F29; stroke: #fff; opacity: 1;" id="p-type-functions"></path><path d="M62.39035407746294,-186.85942234227528A197,197,0,0,1,65.00221426465433,-185.9669651865405L56.29356885542987,-161.05211611624037A170.6070045455344,170.6070045455344,0,0,0,54.031631582188936,-161.8250066848959Z" fill-rule="evenodd" style="fill: #DB3F29; stroke: #fff; opacity: 1;" id="p-type-functions"></path><path d="M65.00221426465433,-185.9669651865405A197,197,0,0,1,67.6013143719489,-185.03800230002736L58.54445557532583,-160.24761065734708A170.6070045455344,170.6070045455344,0,0,0,56.29356885542987,-161.05211611624037Z" fill-rule="evenodd" style="fill: #DB3F29; stroke: #fff; opacity: 1;" id="p-type-functions"></path><path d="M67.6013143719489,-185.03800230002736A197,197,0,0,1,70.18714419018836,-184.07271604022608L60.7838498877845,-159.41164823443512A170.6070045455344,170.6070045455344,0,0,0,58.54445557532583,-160.24761065734708Z" fill-rule="evenodd" style="fill: #DB3F29; stroke: #fff; opacity: 1;" id="p-type-functions"></path><path d="M70.18714419018836,-184.07271604022608A197,197,0,0,1,72.75919611520182,-183.07129589498624L63.01131219469882,-158.5443929487959A170.6070045455344,170.6070045455344,0,0,0,60.7838498877845,-159.41164823443512Z" fill-rule="evenodd" style="fill: #DB3F29; stroke: #fff; opacity: 1;" id="p-type-functions"></path><path d="M72.75919611520182,-183.07129589498624A197,197,0,0,1,75.3169652474495,-182.0339384453198L65.226405240241,-157.64601504457974A170.6070045455344,170.6070045455344,0,0,0,63.01131219469882,-158.5443929487959Z" fill-rule="evenodd" style="fill: #DB3F29; stroke: #fff; opacity: 1;" id="p-type-functions"></path><path d="M75.3169652474495,-182.0339384453198A197,197,0,0,1,77.85994949113588,-180.96084732681203L67.42869419669695,-156.71669087537654A170.6070045455344,170.6070045455344,0,0,0,65.226405240241,-157.64601504457974Z" fill-rule="evenodd" style="fill: #DB3F29; stroke: #fff; opacity: 1;" id="p-type-functions"></path><path d="M77.85994949113588,-180.96084732681203A197,197,0,0,1,80.38764965277203,-179.85223318964705L69.61774674982388,-155.7566028695971A170.6070045455344,170.6070045455344,0,0,0,67.42869419669695,-156.71669087537654Z" fill-rule="evenodd" style="fill: #DB3F29; stroke: #fff; opacity: 1;" id="p-type-functions"></path><path d="M80.38764965277203,-179.85223318964705A197,197,0,0,1,82.89956953916851,-178.70831365725707L71.79313318371456,-154.76593949466215A170.6070045455344,170.6070045455344,0,0,0,69.61774674982388,-155.7566028695971Z" fill-rule="evenodd" style="fill: #DB3F29; stroke: #fff; opacity: 1;" id="p-type-functions"></path><path d="M82.89956953916851,-178.70831365725707A197,197,0,0,1,85.39521605483918,-177.52931328360208L73.95442646515147,-153.7448952200056A170.6070045455344,170.6070045455344,0,0,0,71.79313318371456,-154.76593949466215Z" fill-rule="evenodd" style="fill: #DB3F29; stroke: #fff; opacity: 1;" id="p-type-functions"></path><path d="M85.39521605483918,-177.52931328360208A197,197,0,0,1,87.87409929879684,-176.31546350908985L76.1012023274344,-152.6936704789A170.6070045455344,170.6070045455344,0,0,0,73.95442646515147,-153.7448952200056Z" fill-rule="evenodd" style="fill: #DB3F29; stroke: #fff; opacity: 1;" id="p-type-functions"></path><path d="M87.87409929879684,-176.31546350908985A197,197,0,0,1,90.33573266072207,-175.0670026151432L78.23303935366494,-151.61247162911076A170.6070045455344,170.6070045455344,0,0,0,76.1012023274344,-152.6936704789Z" fill-rule="evenodd" style="fill: #DB3F29; stroke: #fff; opacity: 1;" id="p-type-functions"></path><path d="M90.33573266072207,-175.0670026151432A197,197,0,0,1,92.77963291648588,-173.78417567742505L80.34951905947167,-150.50151091238783A170.6070045455344,170.6070045455344,0,0,0,78.23303935366494,-151.61247162911076Z" fill-rule="evenodd" style="fill: #DB3F29; stroke: #fff; opacity: 1;" id="p-type-functions"></path><path d="M92.77963291648588,-173.78417567742505A197,197,0,0,1,95.20532032300744,-172.46723451772962L82.45022597515934,-149.36100641280225A170.6070045455344,170.6070045455344,0,0,0,80.34951905947167,-150.50151091238783Z" fill-rule="evenodd" style="fill: #DB3F29; stroke: #fff; opacity: 1;" id="p-type-functions"></path><path d="M95.20532032300744,-172.46723451772962A197,197,0,0,1,97.6123187124292,-171.11643765454897L84.53474772726682,-148.19118201393547A170.6070045455344,170.6070045455344,0,0,0,82.45022597515934,-149.36100641280225Z" fill-rule="evenodd" style="fill: #DB3F29; stroke: #fff; opacity: 1;" id="p-type-functions"></path><path d="M97.6123187124292,-171.11643765454897A197,197,0,0,1,100.00015558558916,-169.73205025232554L86.60267511951653,-146.99226735493085A170.6070045455344,170.6070045455344,0,0,0,84.53474772726682,-148.19118201393547Z" fill-rule="evenodd" style="fill: #DB3F29; stroke: #fff; opacity: 1;" id="p-type-functions"></path><path d="M100.00015558558916,-169.73205025232554A197,197,0,0,1,102.368362204774,-168.31434406939948L88.65360221314107,-145.76449778541462A170.6070045455344,170.6070045455344,0,0,0,86.60267511951653,-146.99226735493085Z" fill-rule="evenodd" style="fill: #DB3F29; stroke: #fff; opacity: 1;" id="p-type-functions"></path><path d="M102.368362204774,-168.31434406939948A197,197,0,0,1,103.64193959439496,-167.53312614856736L89.75655258623829,-145.08794322008234A170.6070045455344,170.6070045455344,0,0,0,88.65360221314107,-145.76449778541462Z" fill-rule="evenodd" style="fill: #DB3F29; stroke: #fff; opacity: 1;" id="p-type-functions"></path><path d="M103.64193959439496,-167.53312614856736A197,197,0,0,1,104.63893557443544,-166.9122319120116L90.61997643242431,-144.5502330381617A170.6070045455344,170.6070045455344,0,0,0,89.75655258623829,-145.08794322008234Z" fill-rule="evenodd" style="fill: #DB3F29; stroke: #fff; opacity: 1;" id="p-type-functions"></path><path d="M196.99832945581485,0.8112900949905725A197,197,0,0,1,196.9676273135291,3.571244948011998L170.57896897666186,3.092788848115227A170.6070045455344,170.6070045455344,0,0,0,170.60555781183194,0.7025978321005261Z" fill-rule="evenodd" style="fill: #1DC690; stroke: #fff; opacity: 1;" id="p-type-logs"></path><path d="M196.9676273135291,3.571244948011998A197,197,0,0,1,196.8982599859103,6.330498757670776L170.51889510875134,5.482372742768721A170.6070045455344,170.6070045455344,0,0,0,170.57896897666186,3.092788848115227Z" fill-rule="evenodd" style="fill: #1DC690; stroke: #fff; opacity: 1;" id="p-type-logs"></path><path d="M196.8982599859103,6.330498757670776A197,197,0,0,1,196.79024108991985,9.088509876278977L170.42534800073486,7.870880435403358A170.6070045455344,170.6070045455344,0,0,0,170.51889510875134,5.482372742768721Z" fill-rule="evenodd" style="fill: #1DC690; stroke: #fff; opacity: 1;" id="p-type-logs"></path><path d="M196.79024108991985,9.088509876278977A197,197,0,0,1,196.64359182990836,11.844736900091698L170.29834601611873,10.257843056622352A170.6070045455344,170.6070045455344,0,0,0,170.42534800073486,7.870880435403358Z" fill-rule="evenodd" style="fill: #1DC690; stroke: #fff; opacity: 1;" id="p-type-logs"></path><path d="M196.64359182990836,11.844736900091698A197,197,0,0,1,196.45834099345328,14.598638775585837L170.1379140856763,12.642792040329887A170.6070045455344,170.6070045455344,0,0,0,170.29834601611873,10.257843056622352Z" fill-rule="evenodd" style="fill: #1DC690; stroke: #fff; opacity: 1;" id="p-type-logs"></path><path d="M196.45834099345328,14.598638775585837A197,197,0,0,1,196.23452494570768,17.349674905670096L169.94408370255397,15.025259215711689A170.6070045455344,170.6070045455344,0,0,0,170.1379140856763,12.642792040329887Z" fill-rule="evenodd" style="fill: #1DC690; stroke: #fff; opacity: 1;" id="p-type-logs"></path><path d="M196.23452494570768,17.349674905670096A197,197,0,0,1,195.9721876222618,20.097305255805413L169.71689291608902,17.404776899138003A170.6070045455344,170.6070045455344,0,0,0,169.94408370255397,15.025259215711689Z" fill-rule="evenodd" style="fill: #1DC690; stroke: #fff; opacity: 1;" id="p-type-logs"></path><path d="M195.9721876222618,20.097305255805413A197,197,0,0,1,195.6713805205184,22.840990460014925L169.45638632434049,19.780877985970935A170.6070045455344,170.6070045455344,0,0,0,169.71689291608902,17.404776899138003Z" fill-rule="evenodd" style="fill: #1DC690; stroke: #fff; opacity: 1;" id="p-type-logs"></path><path d="M195.6713805205184,22.840990460014925A197,197,0,0,1,195.33216268958367,25.58019192676274L169.16261506533436,22.15309604225814A170.6070045455344,170.6070045455344,0,0,0,169.45638632434049,19.780877985970935Z" fill-rule="evenodd" style="fill: #1DC690; stroke: #fff; opacity: 1;" id="p-type-logs"></path><path d="M195.33216268958367,25.58019192676274A197,197,0,0,1,194.95460071867575,28.314371944680648L168.83563680702517,24.520965396294837A170.6070045455344,170.6070045455344,0,0,0,169.16261506533436,22.15309604225814Z" fill-rule="evenodd" style="fill: #1DC690; stroke: #fff; opacity: 1;" id="p-type-logs"></path><path d="M194.95460071867575,28.314371944680648A197,197,0,0,1,194.53876872405309,31.04299378812206L168.4755157359756,26.88402123003623A170.6070045455344,170.6070045455344,0,0,0,168.83563680702517,24.520965396294837Z" fill-rule="evenodd" style="fill: #1DC690; stroke: #fff; opacity: 1;" id="p-type-logs"></path><path d="M194.53876872405309,31.04299378812206A197,197,0,0,1,194.0847483344654,33.76552182252245L168.08232254475652,29.24179967034228A170.6070045455344,170.6070045455344,0,0,0,168.4755157359756,26.88402123003623Z" fill-rule="evenodd" style="fill: #1DC690; stroke: #fff; opacity: 1;" id="p-type-logs"></path><path d="M194.0847483344654,33.76552182252245A197,197,0,0,1,193.5926286751295,36.48142160954564L167.6561344180699,31.59383788003711A170.6070045455344,170.6070045455344,0,0,0,168.08232254475652,29.24179967034228Z" fill-rule="evenodd" style="fill: #1DC690; stroke: #fff; opacity: 1;" id="p-type-logs"></path><path d="M193.5926286751295,36.48142160954564A197,197,0,0,1,193.0625063502342,39.190160011995204L167.1970350175973,33.93967414876491A170.6070045455344,170.6070045455344,0,0,0,167.6561344180699,31.59383788003711Z" fill-rule="evenodd" style="fill: #1DC690; stroke: #fff; opacity: 1;" id="p-type-logs"></path><path d="M193.0625063502342,39.190160011995204A197,197,0,0,1,192.49448542397622,41.891205298470524L166.70511446557674,36.27884798362475A170.6070045455344,170.6070045455344,0,0,0,167.1970350175973,33.93967414876491Z" fill-rule="evenodd" style="fill: #1DC690; stroke: #fff; opacity: 1;" id="p-type-logs"></path><path d="M192.49448542397622,41.891205298470524A197,197,0,0,1,191.88867740013262,44.58402724774682L166.18046932711175,38.61090019956635A170.6070045455344,170.6070045455344,0,0,0,166.70511446557674,36.27884798362475Z" fill-rule="evenodd" style="fill: #1DC690; stroke: #fff; opacity: 1;" id="p-type-logs"></path><path d="M191.88867740013262,44.58402724774682A197,197,0,0,1,191.24520120017203,47.26809725285878L165.6232025912152,40.93537300952914A170.6070045455344,170.6070045455344,0,0,0,166.18046932711175,38.61090019956635Z" fill-rule="evenodd" style="fill: #1DC690; stroke: #fff; opacity: 1;" id="p-type-logs"></path><path d="M191.24520120017203,47.26809725285878A197,197,0,0,1,190.56418313991026,49.942888424867306L165.03342365059248,43.25181011430687A170.6070045455344,170.6070045455344,0,0,0,165.6232025912152,40.93537300952914Z" fill-rule="evenodd" style="fill: #1DC690; stroke: #fff; opacity: 1;" id="p-type-logs"></path><path d="M190.56418313991026,49.942888424867306A197,197,0,0,1,189.84575690471414,52.607875696288936L164.41124828016743,45.55975679212018A170.6070045455344,170.6070045455344,0,0,0,165.03342365059248,43.25181011430687Z" fill-rule="evenodd" style="fill: #1DC690; stroke: #fff; opacity: 1;" id="p-type-logs"></path><path d="M189.84575690471414,52.607875696288936A197,197,0,0,1,189.09006352325883,55.26253592416786L163.75679861435538,47.858759987879516A170.6070045455344,170.6070045455344,0,0,0,164.41124828016743,45.55975679212018Z" fill-rule="evenodd" style="fill: #1DC690; stroke: #fff; opacity: 1;" id="p-type-logs"></path><path d="M189.09006352325883,55.26253592416786A197,197,0,0,1,188.2972513398436,57.9063479927699L163.070203123088,50.148368402120774A170.6070045455344,170.6070045455344,0,0,0,163.75679861435538,47.858759987879516Z" fill-rule="evenodd" style="fill: #1DC690; stroke: #fff; opacity: 1;" id="p-type-logs"></path><path d="M188.2972513398436,57.9063479927699A197,197,0,0,1,187.46747598527145,60.53879291587886L162.35159658659427,52.4281325795965A170.6070045455344,170.6070045455344,0,0,0,163.070203123088,50.148368402120774Z" fill-rule="evenodd" style="fill: #1DC690; stroke: #fff; opacity: 1;" id="p-type-logs"></path><path d="M187.46747598527145,60.53879291587886A197,197,0,0,1,186.60090034629852,63.15935393867457L161.60112006894298,54.69760499750492A170.6070045455344,170.6070045455344,0,0,0,162.35159658659427,52.4281325795965Z" fill-rule="evenodd" style="fill: #1DC690; stroke: #fff; opacity: 1;" id="p-type-logs"></path><path d="M186.60090034629852,63.15935393867457A197,197,0,0,1,185.69769453365893,65.76751663917304L160.8189208903513,56.95634015333962A170.6070045455344,170.6070045455344,0,0,0,161.60112006894298,54.69760499750492Z" fill-rule="evenodd" style="fill: #1DC690; stroke: #fff; opacity: 1;" id="p-type-logs"></path><path d="M185.69769453365893,65.76751663917304A197,197,0,0,1,184.75803584867174,68.36276902920866L160.0051525982657,59.20389465234275A170.6070045455344,170.6070045455344,0,0,0,160.8189208903513,56.95634015333962Z" fill-rule="evenodd" style="fill: #1DC690; stroke: #fff; opacity: 1;" id="p-type-logs"></path><path d="M184.75803584867174,68.36276902920866A197,197,0,0,1,183.78210874843634,70.94460165493861L159.1599749372202,61.43982729454436A170.6070045455344,170.6070045455344,0,0,0,160.0051525982657,59.20389465234275Z" fill-rule="evenodd" style="fill: #1DC690; stroke: #fff; opacity: 1;" id="p-type-logs"></path><path d="M183.78210874843634,70.94460165493861A197,197,0,0,1,182.77010480962306,73.51250769684978L158.28355381747798,63.66369916137098A170.6070045455344,170.6070045455344,0,0,0,159.1599749372202,61.43982729454436Z" fill-rule="evenodd" style="fill: #1DC690; stroke: #fff; opacity: 1;" id="p-type-logs"></path><path d="M182.77010480962306,73.51250769684978A197,197,0,0,1,181.72222269086626,76.06598306924857L157.37606128246313,65.87507370180627A170.6070045455344,170.6070045455344,0,0,0,158.28355381747798,63.66369916137098Z" fill-rule="evenodd" style="fill: #1DC690; stroke: #fff; opacity: 1;" id="p-type-logs"></path><path d="M181.72222269086626,76.06598306924857A197,197,0,0,1,180.63866809376714,78.60452651921409L156.43767547498788,68.073516818087A170.6070045455344,170.6070045455344,0,0,0,157.37606128246313,65.87507370180627Z" fill-rule="evenodd" style="fill: #1DC690; stroke: #fff; opacity: 1;" id="p-type-logs"></path><path d="M180.63866809376714,78.60452651921409A197,197,0,0,1,179.51965372251414,81.12763972499515L155.4685806022829,70.25859695091738A170.6070045455344,170.6070045455344,0,0,0,156.43767547498788,68.073516818087Z" fill-rule="evenodd" style="fill: #1DC690; stroke: #fff; opacity: 1;" id="p-type-logs"></path><path d="M179.51965372251414,81.12763972499515A197,197,0,0,1,178.3653992421286,83.634827393832L154.46896689983703,72.42988516418518A170.6070045455344,170.6070045455344,0,0,0,155.4685806022829,70.25859695091738Z" fill-rule="evenodd" style="fill: #1DC690; stroke: #fff; opacity: 1;" id="p-type-logs"></path><path d="M178.3653992421286,83.634827393832A197,197,0,0,1,177.176131235344,86.12559735918332L153.43903059405346,74.58695522916271A170.6070045455344,170.6070045455344,0,0,0,154.46896689983703,72.42988516418518Z" fill-rule="evenodd" style="fill: #1DC690; stroke: #fff; opacity: 1;" id="p-type-logs"></path><path d="M177.176131235344,86.12559735918332A197,197,0,0,1,175.95208315812727,88.5994606773397L152.3789738637303,76.72938370817661A170.6070045455344,170.6070045455344,0,0,0,153.43903059405346,74.58695522916271Z" fill-rule="evenodd" style="fill: #1DC690; stroke: #fff; opacity: 1;" id="p-type-logs"></path><path d="M175.95208315812727,88.5994606773397A197,197,0,0,1,174.69349529385093,91.05593172340437L151.2890048003722,78.85675003772954A170.6070045455344,170.6070045455344,0,0,0,152.3789738637303,76.72938370817661Z" fill-rule="evenodd" style="fill: #1DC690; stroke: #fff; opacity: 1;" id="p-type-logs"></path><path d="M174.69349529385093,91.05593172340437A197,197,0,0,1,173.40061470612486,93.4945282866224L150.16933736734165,80.96863661105779A170.6070045455344,170.6070045455344,0,0,0,151.2890048003722,78.85675003772954Z" fill-rule="evenodd" style="fill: #1DC690; stroke: #fff; opacity: 1;" id="p-type-logs"></path><path d="M173.40061470612486,93.4945282866224A197,197,0,0,1,172.07369519029712,95.91477166503978L149.0201913578575,83.06462886010831A170.6070045455344,170.6070045455344,0,0,0,150.16933736734165,80.96863661105779Z" fill-rule="evenodd" style="fill: #1DC690; stroke: #fff; opacity: 1;" id="p-type-logs"></path><path d="M172.07369519029712,95.91477166503978A197,197,0,0,1,170.71299722363347,98.31618675947371L147.8417923518489,85.1443153369195A170.6070045455344,170.6070045455344,0,0,0,149.0201913578575,83.06462886010831Z" fill-rule="evenodd" style="fill: #1DC690; stroke: #fff; opacity: 1;" id="p-type-logs"></path><path d="M170.71299722363347,98.31618675947371A197,197,0,0,1,169.318787914185,100.69830216677558L146.6343716716738,87.20728779438923A170.6070045455344,170.6070045455344,0,0,0,147.8417923518489,85.1443153369195Z" fill-rule="evenodd" style="fill: #1DC690; stroke: #fff; opacity: 1;" id="p-type-logs"></path><path d="M94.76639154838102,172.70880415572026A197,197,0,0,1,92.33736272480986,174.01957201713518L79.96650183814363,150.70537012253467A170.6070045455344,170.6070045455344,0,0,0,82.07010250588088,149.57021185608517Z" fill-rule="evenodd" style="fill: #D7A449; stroke: #fff; opacity: 1;" id="p-type-tokenTransfers"></path><path d="M92.33736272480986,174.01957201713518A197,197,0,0,1,89.89020787062333,175.29617944774532L77.84720356742369,151.81094458810304A170.6070045455344,170.6070045455344,0,0,0,79.96650183814363,150.70537012253467Z" fill-rule="evenodd" style="fill: #D7A449; stroke: #fff; opacity: 1;" id="p-type-tokenTransfers"></path><path d="M89.89020787062333,175.29617944774532A197,197,0,0,1,87.42540736778707,176.5383758466597L75.71262371670684,152.88671822605244A170.6070045455344,170.6070045455344,0,0,0,77.84720356742369,151.81094458810304Z" fill-rule="evenodd" style="fill: #D7A449; stroke: #fff; opacity: 1;" id="p-type-tokenTransfers"></path><path d="M87.42540736778707,176.5383758466597A197,197,0,0,1,84.94344506214699,177.74591736794974L73.56318130878712,153.93247985961412A170.6070045455344,170.6070045455344,0,0,0,75.71262371670684,152.88671822605244Z" fill-rule="evenodd" style="fill: #D7A449; stroke: #fff; opacity: 1;" id="p-type-tokenTransfers"></path><path d="M84.94344506214699,177.74591736794974A197,197,0,0,1,82.4448081684492,178.91856696851673L71.3992982840118,154.94802420344283A170.6070045455344,170.6070045455344,0,0,0,73.56318130878712,153.93247985961412Z" fill-rule="evenodd" style="fill: #D7A449; stroke: #fff; opacity: 1;" id="p-type-tokenTransfers"></path><path d="M82.4448081684492,178.91856696851673A197,197,0,0,1,79.92998717469874,180.05609445462406L69.22139941745348,155.93315190391482A170.6070045455344,170.6070045455344,0,0,0,71.3992982840118,154.94802420344283Z" fill-rule="evenodd" style="fill: #D7A449; stroke: #fff; opacity: 1;" id="p-type-tokenTransfers"></path><path d="M79.92998717469874,180.05609445462406A197,197,0,0,1,77.3994757458756,181.1582765270845L67.02991223552579,156.88766957826135A170.6070045455344,170.6070045455344,0,0,0,69.22139941745348,155.93315190391482Z" fill-rule="evenodd" style="fill: #D7A449; stroke: #fff; opacity: 1;" id="p-type-tokenTransfers"></path><path d="M77.3994757458756,181.1582765270845A197,197,0,0,1,74.8537706270273,182.22489682509465L64.82526693205907,157.81138985253025A170.6070045455344,170.6070045455344,0,0,0,67.02991223552579,156.88766957826135Z" fill-rule="evenodd" style="fill: #D7A449; stroke: #fff; opacity: 1;" id="p-type-tokenTransfers"></path><path d="M74.8537706270273,182.22489682509465A197,197,0,0,1,72.29337154575661,183.25574596870678L62.60789628385232,158.7041313983678A170.6070045455344,170.6070045455344,0,0,0,64.82526693205907,157.81138985253025Z" fill-rule="evenodd" style="fill: #D7A449; stroke: #fff; opacity: 1;" id="p-type-tokenTransfers"></path><path d="M72.29337154575661,183.25574596870678A197,197,0,0,1,69.71878111412397,184.25062159993075L60.3782355657181,159.56571896861385A170.6070045455344,170.6070045455344,0,0,0,62.60789628385232,158.7041313983678Z" fill-rule="evenodd" style="fill: #D7A449; stroke: #fff; opacity: 1;" id="p-type-tokenTransfers"></path><path d="M69.71878111412397,184.25062159993075A197,197,0,0,1,67.1305047299836,185.2093284224573L58.13672246503721,160.39598343170329A170.6070045455344,170.6070045455344,0,0,0,60.3782355657181,159.56571896861385Z" fill-rule="evenodd" style="fill: #D7A449; stroke: #fff; opacity: 1;" id="p-type-tokenTransfers"></path><path d="M67.1305047299836,185.2093284224573A197,197,0,0,1,64.52905047777278,186.13167823999507L55.883796995839596,161.19476180486694A170.6070045455344,170.6070045455344,0,0,0,58.13672246503721,160.39598343170329Z" fill-rule="evenodd" style="fill: #D7A449; stroke: #fff; opacity: 1;" id="p-type-tokenTransfers"></path><path d="M64.52905047777278,186.13167823999507A197,197,0,0,1,61.91492902877374,187.01748999321404L53.61990141242864,161.9618972861254A170.6070045455344,170.6070045455344,0,0,0,55.883796995839596,161.19476180486694Z" fill-rule="evenodd" style="fill: #D7A449; stroke: #fff; opacity: 1;" id="p-type-tokenTransfers"></path><path d="M61.91492902877374,187.01748999321404A197,197,0,0,1,59.28865354086774,187.86658979528784L51.34548012256567,162.69723928506966A170.6070045455344,170.6070045455344,0,0,0,53.61990141242864,161.9618972861254Z" fill-rule="evenodd" style="fill: #D7A449; stroke: #fff; opacity: 1;" id="p-type-tokenTransfers"></path><path d="M59.28865354086774,187.86658979528784A197,197,0,0,1,56.650739557801025,188.67881096602818L49.060979600231704,163.40064345242232A170.6070045455344,170.6070045455344,0,0,0,51.34548012256567,162.69723928506966Z" fill-rule="evenodd" style="fill: #D7A449; stroke: #fff; opacity: 1;" id="p-type-tokenTransfers"></path><path d="M56.650739557801025,188.67881096602818A197,197,0,0,1,54.00170490798245,189.45399406460447L46.76684829798361,164.07197170837372A170.6070045455344,170.6070045455344,0,0,0,49.060979600231704,163.40064345242232Z" fill-rule="evenodd" style="fill: #D7A449; stroke: #fff; opacity: 1;" id="p-type-tokenTransfers"></path><path d="M54.00170490798245,189.45399406460447A197,197,0,0,1,51.34206960283262,190.19198692084242L44.463536558921874,164.7110922696872A170.6070045455344,170.6070045455344,0,0,0,46.76684829798361,164.07197170837372Z" fill-rule="evenodd" style="fill: #D7A449; stroke: #fff; opacity: 1;" id="p-type-tokenTransfers"></path><path d="M51.34206960283262,190.19198692084242A197,197,0,0,1,48.67235573470443,190.89264466509542L42.15149652828725,165.31787967556863A170.6070045455344,170.6070045455344,0,0,0,44.463536558921874,164.7110922696872Z" fill-rule="evenodd" style="fill: #D7A449; stroke: #fff; opacity: 1;" id="p-type-tokenTransfers"></path><path d="M48.67235573470443,190.89264466509542A197,197,0,0,1,45.99308737439524,191.5558297566828L39.831182064703604,165.8922148122944A170.6070045455344,170.6070045455344,0,0,0,42.15149652828725,165.31787967556863Z" fill-rule="evenodd" style="fill: #D7A449; stroke: #fff; opacity: 1;" id="p-type-tokenTransfers"></path><path d="M45.99308737439524,191.5558297566828A197,197,0,0,1,43.30479046827054,192.1814120108893L37.503048651084505,166.43398493659396A170.6070045455344,170.6070045455344,0,0,0,39.831182064703604,165.8922148122944Z" fill-rule="evenodd" style="fill: #D7A449; stroke: #fff; opacity: 1;" id="p-type-tokenTransfers"></path><path d="M43.30479046827054,192.1814120108893A197,197,0,0,1,40.60799273501957,192.76926862452063L35.16755330522087,166.9430836977814A170.6070045455344,170.6070045455344,0,0,0,37.503048651084505,166.43398493659396Z" fill-rule="evenodd" style="fill: #D7A449; stroke: #fff; opacity: 1;" id="p-type-tokenTransfers"></path><path d="M40.60799273501957,192.76926862452063A197,197,0,0,1,37.903223562062905,193.3192842000101L32.825154490067376,167.41941115863239A170.6070045455344,170.6070045455344,0,0,0,35.16755330522087,166.9430836977814Z" fill-rule="evenodd" style="fill: #D7A449; stroke: #fff; opacity: 1;" id="p-type-tokenTransfers"></path><path d="M37.903223562062905,193.3192842000101A197,197,0,0,1,35.19101390163255,193.8313507680713L30.476312023745127,167.8628738150021A170.6070045455344,170.6070045455344,0,0,0,32.825154490067376,167.41941115863239Z" fill-rule="evenodd" style="fill: #D7A449; stroke: #fff; opacity: 1;" id="p-type-tokenTransfers"></path><path d="M35.19101390163255,193.8313507680713A197,197,0,0,1,32.471896166544845,194.30536780889284L28.121486989278367,168.2733846141803A170.6070045455344,170.6070045455344,0,0,0,30.476312023745127,167.8628738150021Z" fill-rule="evenodd" style="fill: #D7A449; stroke: #fff; opacity: 1;" id="p-type-tokenTransfers"></path><path d="M32.471896166544845,194.30536780889284A197,197,0,0,1,29.746404125686595,194.74124227187042L25.761141644082823,168.65086297197976A170.6070045455344,170.6070045455344,0,0,0,28.121486989278367,168.2733846141803Z" fill-rule="evenodd" style="fill: #D7A449; stroke: #fff; opacity: 1;" id="p-type-tokenTransfers"></path><path d="M29.746404125686595,194.74124227187042A197,197,0,0,1,27.015072799235075,195.13888859387313L23.39573932922356,168.99523478855556A170.6070045455344,170.6070045455344,0,0,0,25.761141644082823,168.65086297197976Z" fill-rule="evenodd" style="fill: #D7A449; stroke: #fff; opacity: 1;" id="p-type-tokenTransfers"></path><path d="M27.015072799235075,195.13888859387313A197,197,0,0,1,24.278438353632378,195.49822871603945L21.02574437846008,169.3064324629506A170.6070045455344,170.6070045455344,0,0,0,23.39573932922356,168.99523478855556Z" fill-rule="evenodd" style="fill: #D7A449; stroke: #fff; opacity: 1;" id="p-type-tokenTransfers"></path><path d="M24.278438353632378,195.49822871603945A197,197,0,0,1,21.537037996334725,195.81919209910055L18.65162202709658,169.5843949063661A170.6070045455344,170.6070045455344,0,0,0,21.02574437846008,169.3064324629506Z" fill-rule="evenodd" style="fill: #D7A449; stroke: #fff; opacity: 1;" id="p-type-tokenTransfers"></path><path d="M21.537037996334725,195.81919209910055A197,197,0,0,1,18.791409870357462,196.10171573722712L16.27383832065521,169.82906755415334A170.6070045455344,170.6070045455344,0,0,0,18.65162202709658,169.5843949063661Z" fill-rule="evenodd" style="fill: #D7A449; stroke: #fff; opacity: 1;" id="p-type-tokenTransfers"></path><path d="M18.791409870357462,196.10171573722712A197,197,0,0,1,16.04209294863637,196.34574417039784L13.892860023390309,170.04040237652487A170.6070045455344,170.6070045455344,0,0,0,16.27383832065521,169.82906755415334Z" fill-rule="evenodd" style="fill: #D7A449; stroke: #fff; opacity: 1;" id="p-type-tokenTransfers"></path><path d="M16.04209294863637,196.34574417039784A197,197,0,0,1,13.289626928226072,196.55122949528595L11.509154526661533,170.21835788798288A170.6070045455344,170.6070045455344,0,0,0,13.892860023390309,170.04040237652487Z" fill-rule="evenodd" style="fill: #D7A449; stroke: #fff; opacity: 1;" id="p-type-tokenTransfers"></path><path d="M13.289626928226072,196.55122949528595A197,197,0,0,1,10.5345521243563,196.71813137466313L9.12318975718388,170.36289915546288A170.6070045455344,170.6070045455344,0,0,0,11.509154526661533,170.21835788798288Z" fill-rule="evenodd" style="fill: #D7A449; stroke: #fff; opacity: 1;" id="p-type-tokenTransfers"></path><path d="M10.5345521243563,196.71813137466313A197,197,0,0,1,7.77740936436681,196.8464170453175L6.735434085172641,170.4739978051911A170.6070045455344,170.6070045455344,0,0,0,9.12318975718388,170.36289915546288Z" fill-rule="evenodd" style="fill: #D7A449; stroke: #fff; opacity: 1;" id="p-type-tokenTransfers"></path><path d="M7.77740936436681,196.8464170453175A197,197,0,0,1,5.0187398815417685,196.93606132448525L4.346356232401276,170.55163202825432A170.6070045455344,170.6070045455344,0,0,0,6.735434085172641,170.4739978051911Z" fill-rule="evenodd" style="fill: #D7A449; stroke: #fff; opacity: 1;" id="p-type-tokenTransfers"></path><path d="M-88.32475667043214,176.0901398690709A197,197,0,0,1,-89.65771077011246,175.41520714995852L-77.64585517207504,151.91402560197378A170.6070045455344,170.6070045455344,0,0,0,-76.49148305967329,152.4985344825704Z" fill-rule="evenodd" style="fill: #414552; stroke: #fff; opacity: 1;" id="p-type-ether"></path><path d="M-89.65771077011246,175.41520714995852A197,197,0,0,1,-90.85930827564627,174.79584119672606L-78.68646913699135,151.37763895223532A170.6070045455344,170.6070045455344,0,0,0,-77.64585517207504,151.91402560197378Z" fill-rule="evenodd" style="fill: #414552; stroke: #fff; opacity: 1;" id="p-type-ether"></path><path d="M-90.85930827564627,174.79584119672606A197,197,0,0,1,-91.89983198869803,174.2510283483259L-79.58758910573427,150.9058171852126A170.6070045455344,170.6070045455344,0,0,0,-78.68646913699135,151.37763895223532Z" fill-rule="evenodd" style="fill: #414552; stroke: #fff; opacity: 1;" id="p-type-ether"></path></g></svg>