<svg xmlns="http://www.w3.org/2000/svg" width="400" height="400" id="block-7824891"><g id="burst-container" transform="translate(200,200)"><circle r="197" style="fill: #f9f9f9; stroke: #f9f9f9; stroke-width: 3; opacity: 1;" id="circle-base"></circle><path display="none" d="M6.031385485800715e-15,-98.5A98.5,98.5,0,1,1,-6.031385485800715e-15,98.5A98.5,98.5,0,1,1,6.031385485800715e-15,-98.5Z" fill-rule="evenodd" id="p-type-root" style="stroke: #fff; opacity: 1;"></path><path d="M8.529667153919608e-15,-139.30003589374985A139.30003589374985,139.30003589374985,0,1,1,-106.30680190706654,-90.01868621731663L-75.17026051474176,-63.6528234577686A98.5,98.5,0,1,0,6.031385485800715e-15,-98.5Z" fill-rule="evenodd" style="fill: #0B1F65; stroke: #fff; opacity: 1;" id="p-type-data"></path><path d="M-106.30680190706654,-90.01868621731663A139.30003589374985,139.30003589374985,0,0,1,-2.1594954996257965,-139.28329612407617L-1.5269939117272322,-98.48816319534824A98.5,98.5,0,0,0,-75.17026051474176,-63.6528234577686Z" fill-rule="evenodd" style="fill: #D7A449; stroke: #fff; opacity: 1;" id="p-type-value"></path><path d="M1.0446666101440332e-14,-170.6070045455344A170.6070045455344,170.6070045455344,0,0,1,169.3414044422091,-20.74219712422399L138.26667773656297,-16.935933032857797A139.30003589374985,139.30003589374985,0,0,0,8.529667153919608e-15,-139.30003589374985Z" fill-rule="evenodd" style="fill: #DB3F29; stroke: #fff; opacity: 1;" id="p-type-functions"></path><path d="M169.3414044422091,-20.74219712422399A170.6070045455344,170.6070045455344,0,0,1,83.94692371713828,148.52496085988028L68.54237619444403,121.27012272451657A139.30003589374985,139.30003589374985,0,0,0,138.26667773656297,-16.935933032857797Z" fill-rule="evenodd" style="fill: #1DC690; stroke: #fff; opacity: 1;" id="p-type-logs"></path><path d="M83.94692371713828,148.52496085988028A170.6070045455344,170.6070045455344,0,0,1,-65.94846236996239,157.34532185939833L-53.84669404251508,128.4719173231713A139.30003589374985,139.30003589374985,0,0,0,68.54237619444403,121.27012272451657Z" fill-rule="evenodd" style="fill: #414552; stroke: #fff; opacity: 1;" id="p-type-ether"></path><path d="M-65.94846236996239,157.34532185939833A170.6070045455344,170.6070045455344,0,0,1,-164.23939008957652,46.17545606709173L-134.10090046179425,37.70210200155882A139.30003589374985,139.30003589374985,0,0,0,-53.84669404251508,128.4719173231713Z" fill-rule="evenodd" style="fill: #D7A449; stroke: #fff; opacity: 1;" id="p-type-tokenTransfers"></path><path d="M-130.19871042972136,-110.24992427406727A170.6070045455344,170.6070045455344,0,0,1,-68.13571277253757,-156.41059633214834L-55.63257651785052,-127.70871712606585A139.30003589374985,139.30003589374985,0,0,0,-106.30680190706654,-90.01868621731663Z" fill-rule="evenodd" style="fill: #D7A449; stroke: #fff; opacity: 1;" id="p-type-tokenTransfers"></path><path d="M-68.13571277253757,-156.41059633214834A170.6070045455344,170.6070045455344,0,0,1,-5.289026414024398,-170.52500168477275L-4.318471983487352,-139.23308083831168A139.30003589374985,139.30003589374985,0,0,0,-55.63257651785052,-127.70871712606585Z" fill-rule="evenodd" style="fill: #414552; stroke: #fff; opacity: 1;" id="p-type-ether"></path><path d="M1.206277097160143e-14,-197A197,197,0,0,1,7.72034000311026,-196.84866357239102L6.686010568546717,-170.47594335470703A170.6070045455344,170.6070045455344,0,0,0,1.0446666101440332e-14,-170.6070045455344Z" fill-rule="evenodd" style="fill: #DB3F29; stroke: #fff; opacity: 1;" id="p-type-functions"></path><path d="M7.72034000311026,-196.84866357239102A197,197,0,0,1,9.245974768951836,-196.7829056360636L8.007249032662246,-170.41899531134706A170.6070045455344,170.6070045455344,0,0,0,6.686010568546717,-170.47594335470703Z" fill-rule="evenodd" style="fill: #DB3F29; stroke: #fff; opacity: 1;" id="p-type-functions"></path><path d="M9.245974768951836,-196.7829056360636A197,197,0,0,1,10.771053979254427,-196.7053237616511L9.328006371567799,-170.35180743723262A170.6070045455344,170.6070045455344,0,0,0,8.007249032662246,-170.41899531134706Z" fill-rule="evenodd" style="fill: #DB3F29; stroke: #fff; opacity: 1;" id="p-type-functions"></path><path d="M10.771053979254427,-196.7053237616511A197,197,0,0,1,12.295485997795366,-196.615922610754L10.648203225966641,-170.2743837694282A170.6070045455344,170.6070045455344,0,0,0,9.328006371567799,-170.35180743723262Z" fill-rule="evenodd" style="fill: #DB3F29; stroke: #fff; opacity: 1;" id="p-type-functions"></path><path d="M12.295485997795366,-196.615922610754A197,197,0,0,1,13.819179227239243,-196.51470755514825L11.967760270239392,-170.18672896002815A170.6070045455344,170.6070045455344,0,0,0,10.648203225966641,-170.2743837694282Z" fill-rule="evenodd" style="fill: #DB3F29; stroke: #fff; opacity: 1;" id="p-type-functions"></path><path d="M13.819179227239243,-196.51470755514825A197,197,0,0,1,15.342042114641808,-196.40168467646237L13.286598217210534,-170.08884827587733A170.6070045455344,170.6070045455344,0,0,0,11.967760270239392,-170.18672896002815Z" fill-rule="evenodd" style="fill: #DB3F29; stroke: #fff; opacity: 1;" id="p-type-functions"></path><path d="M15.342042114641808,-196.40168467646237A197,197,0,0,1,16.863983156950795,-196.27686076581233L14.604637822912283,-169.98074759825468A170.6070045455344,170.6070045455344,0,0,0,13.286598217210534,-170.08884827587733Z" fill-rule="evenodd" style="fill: #DB3F29; stroke: #fff; opacity: 1;" id="p-type-functions"></path><path d="M16.863983156950795,-196.27686076581233A197,197,0,0,1,18.384910906504135,-196.14024332339324L15.921799891346172,-169.86243342251967A170.6070045455344,170.6070045455344,0,0,0,14.604637822912283,-169.98074759825468Z" fill-rule="evenodd" style="fill: #DB3F29; stroke: #fff; opacity: 1;" id="p-type-functions"></path><path d="M18.384910906504135,-196.14024332339324A197,197,0,0,1,19.904733976524692,-195.9918405580288L17.23800527924163,-169.7339128577222A170.6070045455344,170.6070045455344,0,0,0,15.921799891346172,-169.86243342251967Z" fill-rule="evenodd" style="fill: #DB3F29; stroke: #fff; opacity: 1;" id="p-type-functions"></path><path d="M19.904733976524692,-195.9918405580288A197,197,0,0,1,21.423361046611326,-195.83166138667806L18.55317490081139,-169.59519362617533A170.6070045455344,170.6070045455344,0,0,0,17.23800527924163,-169.7339128577222Z" fill-rule="evenodd" style="fill: #DB3F29; stroke: #fff; opacity: 1;" id="p-type-functions"></path><path d="M21.423361046611326,-195.83166138667806A197,197,0,0,1,22.940700868225996,-195.65971543389963L19.86722973250344,-169.44628406299128A170.6070045455344,170.6070045455344,0,0,0,18.55317490081139,-169.59519362617533Z" fill-rule="evenodd" style="fill: #DB3F29; stroke: #fff; opacity: 1;" id="p-type-functions"></path><path d="M22.940700868225996,-195.65971543389963A197,197,0,0,1,24.456662270176533,-195.4760130312733L21.180090817749278,-169.28719311558064A170.6070045455344,170.6070045455344,0,0,0,19.86722973250344,-169.44628406299128Z" fill-rule="evenodd" style="fill: #DB3F29; stroke: #fff; opacity: 1;" id="p-type-functions"></path><path d="M24.456662270176533,-195.4760130312733A197,197,0,0,1,25.971154164094777,-195.28056521677937L22.491679271708083,-169.11793034311475A170.6070045455344,170.6070045455344,0,0,0,21.180090817749278,-169.28719311558064Z" fill-rule="evenodd" style="fill: #DB3F29; stroke: #fff; opacity: 1;" id="p-type-functions"></path><path d="M25.971154164094777,-195.28056521677937A197,197,0,0,1,27.48408554990974,-195.0733837341354L23.801916286006637,-168.93850591595134A170.6070045455344,170.6070045455344,0,0,0,22.491679271708083,-169.11793034311475Z" fill-rule="evenodd" style="fill: #DB3F29; stroke: #fff; opacity: 1;" id="p-type-functions"></path><path d="M27.48408554990974,-195.0733837341354A197,197,0,0,1,28.995365521315424,-194.8544810320905L25.11072313347458,-168.7489306150234A170.6070045455344,170.6070045455344,0,0,0,23.801916286006637,-168.93850591595134Z" fill-rule="evenodd" style="fill: #DB3F29; stroke: #fff; opacity: 1;" id="p-type-functions"></path><path d="M28.995365521315424,-194.8544810320905A197,197,0,0,1,30.50490327123307,-194.62387026367733L26.41802117287486,-168.54921583119136A170.6070045455344,170.6070045455344,0,0,0,25.11072313347458,-168.7489306150234Z" fill-rule="evenodd" style="fill: #DB3F29; stroke: #fff; opacity: 1;" id="p-type-functions"></path><path d="M30.50490327123307,-194.62387026367733A197,197,0,0,1,32.01260809726739,-194.38156528542197L27.72373185362898,-168.3393735645588A170.6070045455344,170.6070045455344,0,0,0,26.41802117287486,-168.54921583119136Z" fill-rule="evenodd" style="fill: #DB3F29; stroke: #fff; opacity: 1;" id="p-type-functions"></path><path d="M32.01260809726739,-194.38156528542197A197,197,0,0,1,33.51838940715655,-194.1275806565111L29.027776720536803,-168.1194164237512A170.6070045455344,170.6070045455344,0,0,0,27.72373185362898,-168.3393735645588Z" fill-rule="evenodd" style="fill: #DB3F29; stroke: #fff; opacity: 1;" id="p-type-functions"></path><path d="M33.51838940715655,-194.1275806565111A197,197,0,0,1,35.022156724215485,-193.86193163791722L30.33007741849061,-167.88935762515848A170.6070045455344,170.6070045455344,0,0,0,29.027776720536803,-168.1194164237512Z" fill-rule="evenodd" style="fill: #DB3F29; stroke: #fff; opacity: 1;" id="p-type-functions"></path><path d="M35.022156724215485,-193.86193163791722A197,197,0,0,1,36.523819692772335,-193.58463419148188L31.630555697183194,-167.64921099214095A170.6070045455344,170.6070045455344,0,0,0,30.33007741849061,-167.88935762515848Z" fill-rule="evenodd" style="fill: #DB3F29; stroke: #fff; opacity: 1;" id="p-type-functions"></path><path d="M36.523819692772335,-193.58463419148188A197,197,0,0,1,38.02328808359754,-193.2957049789564L32.929133415809595,-167.39899095419844A170.6070045455344,170.6070045455344,0,0,0,31.630555697183194,-167.64921099214095Z" fill-rule="evenodd" style="fill: #DB3F29; stroke: #fff; opacity: 1;" id="p-type-functions"></path><path d="M38.02328808359754,-193.2957049789564A197,197,0,0,1,39.5204717993254,-192.99516136100078L34.2257325477623,-167.1387125461036A170.6070045455344,170.6070045455344,0,0,0,32.929133415809595,-167.39899095419844Z" fill-rule="evenodd" style="fill: #DB3F29; stroke: #fff; opacity: 1;" id="p-type-functions"></path><path d="M39.5204717993254,-192.99516136100078A197,197,0,0,1,41.01528087986766,-192.68302139614056L35.520275185319555,-166.86839140699826A170.6070045455344,170.6070045455344,0,0,0,34.2257325477623,-167.1387125461036Z" fill-rule="evenodd" style="fill: #DB3F29; stroke: #fff; opacity: 1;" id="p-type-functions"></path><path d="M41.01528087986766,-192.68302139614056A197,197,0,0,1,42.50762550781889,-192.35930383968181L36.81268354432655,-166.58804377945395A170.6070045455344,170.6070045455344,0,0,0,35.520275185319555,-166.86839140699826Z" fill-rule="evenodd" style="fill: #DB3F29; stroke: #fff; opacity: 1;" id="p-type-functions"></path><path d="M42.50762550781889,-192.35930383968181A197,197,0,0,1,43.99741601385327,-192.0240281425841L38.1028799688692,-166.2976865084958A170.6070045455344,170.6070045455344,0,0,0,36.81268354432655,-166.58804377945395Z" fill-rule="evenodd" style="fill: #DB3F29; stroke: #fff; opacity: 1;" id="p-type-functions"></path><path d="M43.99741601385327,-192.0240281425841A197,197,0,0,1,45.484562882112456,-191.6772144502918L39.390786935940135,-165.9973370405904A170.6070045455344,170.6070045455344,0,0,0,38.1028799688692,-166.2976865084958Z" fill-rule="evenodd" style="fill: #DB3F29; stroke: #fff; opacity: 1;" id="p-type-functions"></path><path d="M45.484562882112456,-191.6772144502918A197,197,0,0,1,46.96897675558429,-191.3188836015237L40.6763270600968,-165.6870134225976A170.6070045455344,170.6070045455344,0,0,0,39.390786935940135,-165.9973370405904Z" fill-rule="evenodd" style="fill: #DB3F29; stroke: #fff; opacity: 1;" id="p-type-functions"></path><path d="M46.96897675558429,-191.3188836015237A197,197,0,0,1,48.450568441471894,-190.94905712702078L41.95942309811127,-165.366734300686A170.6070045455344,170.6070045455344,0,0,0,40.6763270600968,-165.6870134225976Z" fill-rule="evenodd" style="fill: #DB3F29; stroke: #fff; opacity: 1;" id="p-type-functions"></path><path d="M48.450568441471894,-190.94905712702078A197,197,0,0,1,49.929248916552915,-190.56775724825252L43.23999795361148,-165.03651891921277A170.6070045455344,170.6070045455344,0,0,0,41.95942309811127,-165.366734300686Z" fill-rule="evenodd" style="fill: #DB3F29; stroke: #fff; opacity: 1;" id="p-type-functions"></path><path d="M49.929248916552915,-190.56775724825252A197,197,0,0,1,51.40492933252862,-190.17500687608174L44.517974681713625,-164.69638711956708A170.6070045455344,170.6070045455344,0,0,0,43.23999795361148,-165.03651891921277Z" fill-rule="evenodd" style="fill: #DB3F29; stroke: #fff; opacity: 1;" id="p-type-functions"></path><path d="M51.40492933252862,-190.17500687608174A197,197,0,0,1,52.87752102136246,-189.770829609388L45.793276493645564,-164.34635933897815A170.6070045455344,170.6070045455344,0,0,0,44.517974681713625,-164.69638711956708Z" fill-rule="evenodd" style="fill: #DB3F29; stroke: #fff; opacity: 1;" id="p-type-functions"></path><path d="M52.87752102136246,-189.770829609388A197,197,0,0,1,54.34693550060776,-189.35524973364954L47.065826761360675,-163.98645660928705A170.6070045455344,170.6070045455344,0,0,0,45.793276493645564,-164.34635933897815Z" fill-rule="evenodd" style="fill: #DB3F29; stroke: #fff; opacity: 1;" id="p-type-functions"></path><path d="M54.34693550060776,-189.35524973364954A197,197,0,0,1,55.81308447872431,-188.92829221948412L48.33554902214221,-163.61670055568317A170.6070045455344,170.6070045455344,0,0,0,47.065826761360675,-163.98645660928705Z" fill-rule="evenodd" style="fill: #DB3F29; stroke: #fff; opacity: 1;" id="p-type-functions"></path><path d="M55.81308447872431,-188.92829221948412A197,197,0,0,1,57.27587986038349,-188.48998272114864L49.60236698319761,-163.2371133954046A170.6070045455344,170.6070045455344,0,0,0,48.33554902214221,-163.61670055568317Z" fill-rule="evenodd" style="fill: #DB3F29; stroke: #fff; opacity: 1;" id="p-type-functions"></path><path d="M57.27587986038349,-188.48998272114864A197,197,0,0,1,58.735233751761555,-188.04034757499767L50.86620452624269,-162.84771793640354A170.6070045455344,170.6070045455344,0,0,0,49.60236698319761,-163.2371133954046Z" fill-rule="evenodd" style="fill: #DB3F29; stroke: #fff; opacity: 1;" id="p-type-functions"></path><path d="M58.735233751761555,-188.04034757499767A197,197,0,0,1,60.19105846582086,-187.5794137979009L52.12698571207526,-162.44853757597542A170.6070045455344,170.6070045455344,0,0,0,50.86620452624269,-162.84771793640354Z" fill-rule="evenodd" style="fill: #DB3F29; stroke: #fff; opacity: 1;" id="p-type-functions"></path><path d="M60.19105846582086,-187.5794137979009A197,197,0,0,1,61.64326652757861,-187.10720908561996L53.38463478513803,-162.0395962993534A170.6070045455344,170.6070045455344,0,0,0,52.12698571207526,-162.44853757597542Z" fill-rule="evenodd" style="fill: #DB3F29; stroke: #fff; opacity: 1;" id="p-type-functions"></path><path d="M61.64326652757861,-187.10720908561996A197,197,0,0,1,63.09177067936295,-186.6237618111442L54.6390761780705,-161.62091867826703A170.6070045455344,170.6070045455344,0,0,0,53.38463478513803,-162.0395962993534Z" fill-rule="evenodd" style="fill: #DB3F29; stroke: #fff; opacity: 1;" id="p-type-functions"></path><path d="M63.09177067936295,-186.6237618111442A197,197,0,0,1,64.53648388605589,-186.12910102298576L55.89023451624947,-161.19252986946583A170.6070045455344,170.6070045455344,0,0,0,54.6390761780705,-161.62091867826703Z" fill-rule="evenodd" style="fill: #DB3F29; stroke: #fff; opacity: 1;" id="p-type-functions"></path><path d="M64.53648388605589,-186.12910102298576A197,197,0,0,1,65.97731934032299,-185.62325644343449L57.138034622318074,-160.75445561320774A170.6070045455344,170.6070045455344,0,0,0,55.89023451624947,-161.19252986946583Z" fill-rule="evenodd" style="fill: #DB3F29; stroke: #fff; opacity: 1;" id="p-type-functions"></path><path d="M65.97731934032299,-185.62325644343449A197,197,0,0,1,67.41419046782923,-185.10625846677158L58.38240152070286,-160.3067222317125A170.6070045455344,170.6070045455344,0,0,0,57.138034622318074,-160.75445561320774Z" fill-rule="evenodd" style="fill: #DB3F29; stroke: #fff; opacity: 1;" id="p-type-functions"></path><path d="M67.41419046782923,-185.10625846677158A197,197,0,0,1,68.84701093244087,-184.57813815744368L59.62326044211876,-159.84935662758005A170.6070045455344,170.6070045455344,0,0,0,58.38240152070286,-160.3067222317125Z" fill-rule="evenodd" style="fill: #DB3F29; stroke: #fff; opacity: 1;" id="p-type-functions"></path><path d="M68.84701093244087,-184.57813815744368A197,197,0,0,1,70.27569464141322,-184.0389272481962L60.8605368280618,-159.38238628217402A170.6070045455344,170.6070045455344,0,0,0,59.62326044211876,-159.84935662758005Z" fill-rule="evenodd" style="fill: #DB3F29; stroke: #fff; opacity: 1;" id="p-type-functions"></path><path d="M70.27569464141322,-184.0389272481962A197,197,0,0,1,71.70015575056351,-183.4886581381665L62.09415633528891,-158.90583925397044A170.6070045455344,170.6070045455344,0,0,0,60.8605368280618,-159.38238628217402Z" fill-rule="evenodd" style="fill: #DB3F29; stroke: #fff; opacity: 1;" id="p-type-functions"></path><path d="M71.70015575056351,-183.4886581381665A197,197,0,0,1,73.12030866942897,-182.92736389093741L63.324044840285005,-158.419744176872A170.6070045455344,170.6070045455344,0,0,0,62.09415633528891,-158.90583925397044Z" fill-rule="evenodd" style="fill: #DB3F29; stroke: #fff; opacity: 1;" id="p-type-functions"></path><path d="M73.12030866942897,-182.92736389093741A197,197,0,0,1,74.53606806640961,-182.35507823255034L64.55012844371679,-157.9241302584873A170.6070045455344,170.6070045455344,0,0,0,63.324044840285005,-158.419744176872Z" fill-rule="evenodd" style="fill: #DB3F29; stroke: #fff; opacity: 1;" id="p-type-functions"></path><path d="M74.53606806640961,-182.35507823255034A197,197,0,0,1,75.94734887389554,-181.7718355494789L65.77233347487301,-157.41902727837603A170.6070045455344,170.6070045455344,0,0,0,64.55012844371679,-157.9241302584873Z" fill-rule="evenodd" style="fill: #DB3F29; stroke: #fff; opacity: 1;" id="p-type-functions"></path><path d="M75.94734887389554,-181.7718355494789A197,197,0,0,1,77.3540662933783,-181.17767088656274L66.99058649609117,-156.90446558625962A170.6070045455344,170.6070045455344,0,0,0,65.77233347487301,-157.41902727837603Z" fill-rule="evenodd" style="fill: #DB3F29; stroke: #fff; opacity: 1;" id="p-type-functions"></path><path d="M77.3540662933783,-181.17767088656274A197,197,0,0,1,78.75613580054609,-180.5726199449018L68.20481430717001,-156.38047610019754A170.6070045455344,170.6070045455344,0,0,0,66.99058649609117,-156.90446558625962Z" fill-rule="evenodd" style="fill: #DB3F29; stroke: #fff; opacity: 1;" id="p-type-functions"></path><path d="M78.75613580054609,-180.5726199449018A197,197,0,0,1,80.15347315036254,-179.95671907971123L69.41494394976789,-155.84709030472973A170.6070045455344,170.6070045455344,0,0,0,68.20481430717001,-156.38047610019754Z" fill-rule="evenodd" style="fill: #DB3F29; stroke: #fff; opacity: 1;" id="p-type-functions"></path><path d="M80.15347315036254,-179.95671907971123A197,197,0,0,1,81.54599438212865,-179.330005298137L70.62090271178653,-155.3043402489846A170.6070045455344,170.6070045455344,0,0,0,69.41494394976789,-155.84709030472973Z" fill-rule="evenodd" style="fill: #DB3F29; stroke: #fff; opacity: 1;" id="p-type-functions"></path><path d="M81.54599438212865,-179.330005298137A197,197,0,0,1,82.9336158245277,-178.69251625703203L71.82261813174011,-154.75225854475352A170.6070045455344,170.6070045455344,0,0,0,70.62090271178653,-155.3043402489846Z" fill-rule="evenodd" style="fill: #DB3F29; stroke: #fff; opacity: 1;" id="p-type-functions"></path><path d="M82.9336158245277,-178.69251625703203A197,197,0,0,1,84.31625410065267,-178.04429026069377L73.02001800310906,-154.19087836453113A170.6070045455344,170.6070045455344,0,0,0,71.82261813174011,-154.75225854475352Z" fill-rule="evenodd" style="fill: #DB3F29; stroke: #fff; opacity: 1;" id="p-type-functions"></path><path d="M84.31625410065267,-178.04429026069377A197,197,0,0,1,85.69382613301612,-177.3853662585626L74.21303037867877,-153.62023343952222A170.6070045455344,170.6070045455344,0,0,0,73.02001800310906,-154.19087836453113Z" fill-rule="evenodd" style="fill: #DB3F29; stroke: #fff; opacity: 1;" id="p-type-functions"></path><path d="M85.69382613301612,-177.3853662585626A197,197,0,0,1,87.066249148542,-176.71578384288148L75.40158357486263,-153.040358057615A170.6070045455344,170.6070045455344,0,0,0,74.21303037867877,-153.62023343952222Z" fill-rule="evenodd" style="fill: #DB3F29; stroke: #fff; opacity: 1;" id="p-type-functions"></path><path d="M87.066249148542,-176.71578384288148A197,197,0,0,1,88.4334406835391,-176.03558324631692L76.58560617600915,-152.45128706132076A170.6070045455344,170.6070045455344,0,0,0,75.40158357486263,-153.040358057615Z" fill-rule="evenodd" style="fill: #DB3F29; stroke: #fff; opacity: 1;" id="p-type-functions"></path><path d="M88.4334406835391,-176.03558324631692A197,197,0,0,1,89.79531858865604,-175.34480533954167L77.76502703869316,-151.85305584568036A170.6070045455344,170.6070045455344,0,0,0,76.58560617600915,-152.45128706132076Z" fill-rule="evenodd" style="fill: #DB3F29; stroke: #fff; opacity: 1;" id="p-type-functions"></path><path d="M89.79531858865604,-175.34480533954167A197,197,0,0,1,91.15180103381734,-174.64349162877895L78.93977529599047,-151.24570035613752A170.6070045455344,170.6070045455344,0,0,0,77.76502703869316,-151.85305584568036Z" fill-rule="evenodd" style="fill: #DB3F29; stroke: #fff; opacity: 1;" id="p-type-functions"></path><path d="M91.15180103381734,-174.64349162877895A197,197,0,0,1,92.50280651314013,-173.9316842533084L80.10978036173599,-150.62925708637889A170.6070045455344,170.6070045455344,0,0,0,78.93977529599047,-151.24570035613752Z" fill-rule="evenodd" style="fill: #DB3F29; stroke: #fff; opacity: 1;" id="p-type-functions"></path><path d="M92.50280651314013,-173.9316842533084A197,197,0,0,1,93.84825384983175,-173.20942598293414L81.27497193476503,-150.00376307614138A170.6070045455344,170.6070045455344,0,0,0,80.10978036173599,-150.62925708637889Z" fill-rule="evenodd" style="fill: #DB3F29; stroke: #fff; opacity: 1;" id="p-type-functions"></path><path d="M93.84825384983175,-173.20942598293414A197,197,0,0,1,95.18806220106715,-172.47676021541503L82.43528000313745,-149.3692559089866A170.6070045455344,170.6070045455344,0,0,0,81.27497193476503,-150.00376307614138Z" fill-rule="evenodd" style="fill: #DB3F29; stroke: #fff; opacity: 1;" id="p-type-functions"></path><path d="M95.18806220106715,-172.47676021541503A197,197,0,0,1,96.52215106284659,-171.7337309738568L83.5906348483443,-148.7257737100425A170.6070045455344,170.6070045455344,0,0,0,82.43528000313745,-149.3692559089866Z" fill-rule="evenodd" style="fill: #DB3F29; stroke: #fff; opacity: 1;" id="p-type-functions"></path><path d="M96.52215106284659,-171.7337309738568A197,197,0,0,1,97.85044027483269,-170.98038290406708L84.74096704949707,-148.07335514371263A170.6070045455344,170.6070045455344,0,0,0,83.5906348483443,-148.7257737100425Z" fill-rule="evenodd" style="fill: #DB3F29; stroke: #fff; opacity: 1;" id="p-type-functions"></path><path d="M97.85044027483269,-170.98038290406708A197,197,0,0,1,99.17285002516704,-170.21676127187277L85.88620748749885,-147.41203941135302A170.6070045455344,170.6070045455344,0,0,0,84.74096704949707,-148.07335514371263Z" fill-rule="evenodd" style="fill: #DB3F29; stroke: #fff; opacity: 1;" id="p-type-functions"></path><path d="M99.17285002516704,-170.21676127187277A197,197,0,0,1,100.48930085526581,-169.44291196040004L87.0262873491975,-146.74186624891652A170.6070045455344,170.6070045455344,0,0,0,85.88620748749885,-147.41203941135302Z" fill-rule="evenodd" style="fill: #DB3F29; stroke: #fff; opacity: 1;" id="p-type-functions"></path><path d="M100.48930085526581,-169.44291196040004A197,197,0,0,1,101.79971366459398,-168.65888146731757L88.16113813152023,-146.06287592456547A170.6070045455344,170.6070045455344,0,0,0,87.0262873491975,-146.74186624891652Z" fill-rule="evenodd" style="fill: #DB3F29; stroke: #fff; opacity: 1;" id="p-type-functions"></path><path d="M101.79971366459398,-168.65888146731757A197,197,0,0,1,103.10400971541841,-167.8647169020426L89.29069164558992,-145.37510923625192A170.6070045455344,170.6070045455344,0,0,0,88.16113813152023,-146.06287592456547Z" fill-rule="evenodd" style="fill: #DB3F29; stroke: #fff; opacity: 1;" id="p-type-functions"></path><path d="M103.10400971541841,-167.8647169020426A197,197,0,0,1,104.40211063753864,-167.06046598291033L90.41488002082204,-144.6786075092664A170.6070045455344,170.6070045455344,0,0,0,89.29069164558992,-145.37510923625192Z" fill-rule="evenodd" style="fill: #DB3F29; stroke: #fff; opacity: 1;" id="p-type-functions"></path><path d="M104.40211063753864,-167.06046598291033A197,197,0,0,1,105.6939384329961,-166.24617703430667L91.53363570900304,-143.9734125937547A170.6070045455344,170.6070045455344,0,0,0,90.41488002082204,-144.6786075092664Z" fill-rule="evenodd" style="fill: #DB3F29; stroke: #fff; opacity: 1;" id="p-type-functions"></path><path d="M105.6939384329961,-166.24617703430667A197,197,0,0,1,106.9794154807605,-165.42189898376458L92.64689148834883,-143.25956686220334A170.6070045455344,170.6070045455344,0,0,0,91.53363570900304,-143.9734125937547Z" fill-rule="evenodd" style="fill: #DB3F29; stroke: #fff; opacity: 1;" id="p-type-functions"></path><path d="M106.9794154807605,-165.42189898376458A197,197,0,0,1,108.25846454139398,-164.5876813590244L93.75458046754405,-142.53711320689362A170.6070045455344,170.6070045455344,0,0,0,92.64689148834883,-143.25956686220334Z" fill-rule="evenodd" style="fill: #DB3F29; stroke: #fff; opacity: 1;" id="p-type-functions"></path><path d="M108.25846454139398,-164.5876813590244A197,197,0,0,1,109.53100876169192,-163.74357428505758L94.85663608976112,-141.8060950373242A170.6070045455344,170.6070045455344,0,0,0,93.75458046754405,-142.53711320689362Z" fill-rule="evenodd" style="fill: #DB3F29; stroke: #fff; opacity: 1;" id="p-type-functions"></path><path d="M109.53100876169192,-163.74357428505758A197,197,0,0,1,110.79697167930095,-162.88962848105518L95.95299213665962,-141.066556277603A170.6070045455344,170.6070045455344,0,0,0,94.85663608976112,-141.8060950373242Z" fill-rule="evenodd" style="fill: #DB3F29; stroke: #fff; opacity: 1;" id="p-type-functions"></path><path d="M110.79697167930095,-162.88962848105518A197,197,0,0,1,112.05627722731323,-162.02589525738014L97.04358273236492,-140.3185413638078A170.6070045455344,170.6070045455344,0,0,0,95.95299213665962,-141.066556277603Z" fill-rule="evenodd" style="fill: #DB3F29; stroke: #fff; opacity: 1;" id="p-type-functions"></path><path d="M112.05627722731323,-162.02589525738014A197,197,0,0,1,113.3088497388369,-161.1524265124844L98.1283423474265,-139.56209524131637A170.6070045455344,170.6070045455344,0,0,0,97.04358273236492,-140.3185413638078Z" fill-rule="evenodd" style="fill: #DB3F29; stroke: #fff; opacity: 1;" id="p-type-functions"></path><path d="M113.3088497388369,-161.1524265124844A197,197,0,0,1,114.5546139515428,-160.26927472979028L99.20720580275534,-138.79726336210575A170.6070045455344,170.6070045455344,0,0,0,98.1283423474265,-139.56209524131637Z" fill-rule="evenodd" style="fill: #DB3F29; stroke: #fff; opacity: 1;" id="p-type-functions"></path><path d="M114.5546139515428,-160.26927472979028A197,197,0,0,1,115.79349501218657,-159.37649297453726L100.28010827354025,-138.02409168202135A170.6070045455344,170.6070045455344,0,0,0,99.20720580275534,-138.79726336210575Z" fill-rule="evenodd" style="fill: #DB3F29; stroke: #fff; opacity: 1;" id="p-type-functions"></path><path d="M115.79349501218657,-159.37649297453726A197,197,0,0,1,117.02541848110636,-158.4741348905932L101.34698529314305,-137.24262665801558A170.6070045455344,170.6070045455344,0,0,0,100.28010827354025,-138.02409168202135Z" fill-rule="evenodd" style="fill: #DB3F29; stroke: #fff; opacity: 1;" id="p-type-functions"></path><path d="M195.53861087931742,-23.951026186510006A197,197,0,0,1,195.71839197786662,-22.434594750031927L169.49709944067297,-19.428928977136646A170.6070045455344,170.6070045455344,0,0,0,169.3414044422091,-20.74219712422399Z" fill-rule="evenodd" style="fill: #1DC690; stroke: #fff; opacity: 1;" id="p-type-logs"></path><path d="M195.71839197786662,-22.434594750031927A197,197,0,0,1,195.88641310091703,-20.91681530388588L169.642610001607,-18.114493419432293A170.6070045455344,170.6070045455344,0,0,0,169.49709944067297,-19.428928977136646Z" fill-rule="evenodd" style="fill: #1DC690; stroke: #fff; opacity: 1;" id="p-type-logs"></path><path d="M195.88641310091703,-20.91681530388588A197,197,0,0,1,196.042664152717,-19.397779045679407L169.77792738183385,-16.798969430555832A170.6070045455344,170.6070045455344,0,0,0,169.642610001607,-18.114493419432293Z" fill-rule="evenodd" style="fill: #1DC690; stroke: #fff; opacity: 1;" id="p-type-logs"></path><path d="M196.042664152717,-19.397779045679407A197,197,0,0,1,196.18713574473375,-17.877577248537108L169.90304345064553,-15.482436055351842A170.6070045455344,170.6070045455344,0,0,0,169.77792738183385,-16.798969430555832Z" fill-rule="evenodd" style="fill: #1DC690; stroke: #fff; opacity: 1;" id="p-type-logs"></path><path d="M196.18713574473375,-17.877577248537108A197,197,0,0,1,196.31981919621748,-16.356301255616398L170.01795069029222,-14.164972399315111A170.6070045455344,170.6070045455344,0,0,0,169.90304345064553,-15.482436055351842Z" fill-rule="evenodd" style="fill: #1DC690; stroke: #fff; opacity: 1;" id="p-type-logs"></path><path d="M196.31981919621748,-16.356301255616398A197,197,0,0,1,196.4407065347231,-14.834042474619041L170.12264219643396,-12.84665762383747A170.6070045455344,170.6070045455344,0,0,0,170.01795069029222,-14.164972399315111Z" fill-rule="evenodd" style="fill: #1DC690; stroke: #fff; opacity: 1;" id="p-type-logs"></path><path d="M196.4407065347231,-14.834042474619041A197,197,0,0,1,196.5497904965891,-13.31089237229881L170.2171116785554,-11.527570941451282A170.6070045455344,170.6070045455344,0,0,0,170.12264219643396,-12.84665762383747Z" fill-rule="evenodd" style="fill: #1DC690; stroke: #fff; opacity: 1;" id="p-type-logs"></path><path d="M196.5497904965891,-13.31089237229881A197,197,0,0,1,196.64706452737425,-11.786942468965588L170.30135346034385,-10.20779161106987A170.6070045455344,170.6070045455344,0,0,0,170.2171116785554,-11.527570941451282Z" fill-rule="evenodd" style="fill: #1DC690; stroke: #fff; opacity: 1;" id="p-type-logs"></path><path d="M196.64706452737425,-11.786942468965588A197,197,0,0,1,196.7325227822511,-10.262284332986269L170.37536248003028,-8.887398933225152A170.6070045455344,170.6070045455344,0,0,0,170.30135346034385,-10.20779161106987Z" fill-rule="evenodd" style="fill: #1DC690; stroke: #fff; opacity: 1;" id="p-type-logs"></path><path d="M196.7325227822511,-10.262284332986269A197,197,0,0,1,196.80616012635736,-8.73700957528276L170.43913429069352,-7.566472245302759A170.6070045455344,170.6070045455344,0,0,0,170.37536248003028,-8.887398933225152Z" fill-rule="evenodd" style="fill: #1DC690; stroke: #fff; opacity: 1;" id="p-type-logs"></path><path d="M196.80616012635736,-8.73700957528276A197,197,0,0,1,196.8679721351045,-7.211209843827426L170.4926650605275,-6.245090916774965A170.6070045455344,170.6070045455344,0,0,0,170.43913429069352,-7.566472245302759Z" fill-rule="evenodd" style="fill: #1DC690; stroke: #fff; opacity: 1;" id="p-type-logs"></path><path d="M196.8679721351045,-7.211209843827426A197,197,0,0,1,196.91795509444347,-5.684976818136314L170.53595157307137,-4.923334344431675A170.6070045455344,170.6070045455344,0,0,0,170.4926650605275,-6.245090916774965Z" fill-rule="evenodd" style="fill: #1DC690; stroke: #fff; opacity: 1;" id="p-type-logs"></path><path d="M196.91795509444347,-5.684976818136314A197,197,0,0,1,196.95610600108787,-4.1584022037604775L170.56899122740282,-3.6012819476097673A170.6070045455344,170.6070045455344,0,0,0,170.53595157307137,-4.923334344431675Z" fill-rule="evenodd" style="fill: #1DC690; stroke: #fff; opacity: 1;" id="p-type-logs"></path><path d="M196.95610600108787,-4.1584022037604775A197,197,0,0,1,196.98242256269452,-2.631577726775736L170.59178203829444,-2.279013163421092A170.6070045455344,170.6070045455344,0,0,0,170.56899122740282,-3.6012819476097673Z" fill-rule="evenodd" style="fill: #1DC690; stroke: #fff; opacity: 1;" id="p-type-logs"></path><path d="M196.98242256269452,-2.631577726775736A197,197,0,0,1,196.99690319800106,-1.1045951282712072L170.60432263633282,-0.956607441979396A170.6070045455344,170.6070045455344,0,0,0,170.59178203829444,-2.279013163421092Z" fill-rule="evenodd" style="fill: #1DC690; stroke: #fff; opacity: 1;" id="p-type-logs"></path><path d="M196.99690319800106,-1.1045951282712072A197,197,0,0,1,196.9995470369211,0.4224538411630705L170.6066122680011,0.36585575837353523A170.6070045455344,170.6070045455344,0,0,0,170.60432263633282,-0.956607441979396Z" fill-rule="evenodd" style="fill: #1DC690; stroke: #fff; opacity: 1;" id="p-type-logs"></path><path d="M196.9995470369211,0.4224538411630705A197,197,0,0,1,196.99035392059636,1.9494774269490807L170.59865079572393,1.6882969758422262A170.6070045455344,170.6070045455344,0,0,0,170.6066122680011,0.36585575837353523Z" fill-rule="evenodd" style="fill: #1DC690; stroke: #fff; opacity: 1;" id="p-type-logs"></path><path d="M196.99035392059636,1.9494774269490807A197,197,0,0,1,196.96932440140634,3.4763838760340144L170.58043869787602,3.010636749952069A170.6070045455344,170.6070045455344,0,0,0,170.59865079572393,1.6882969758422262Z" fill-rule="evenodd" style="fill: #1DC690; stroke: #fff; opacity: 1;" id="p-type-logs"></path><path d="M196.96932440140634,3.4763838760340144A197,197,0,0,1,196.93645974293506,5.003081442403363L170.5519770687532,4.332795626323803A170.6070045455344,170.6070045455344,0,0,0,170.58043869787602,3.010636749952069Z" fill-rule="evenodd" style="fill: #1DC690; stroke: #fff; opacity: 1;" id="p-type-logs"></path><path d="M196.93645974293506,5.003081442403363A197,197,0,0,1,196.89176191989512,6.529478392593585L170.51326761850672,5.654694161447627A170.6070045455344,170.6070045455344,0,0,0,170.5519770687532,4.332795626323803Z" fill-rule="evenodd" style="fill: #1DC690; stroke: #fff; opacity: 1;" id="p-type-logs"></path><path d="M196.89176191989512,6.529478392593585A197,197,0,0,1,196.83523361800906,8.05548301120403L170.4643126730406,6.976252927456655A170.6070045455344,170.6070045455344,0,0,0,170.51326761850672,5.654694161447627Z" fill-rule="evenodd" style="fill: #1DC690; stroke: #fff; opacity: 1;" id="p-type-logs"></path><path d="M196.83523361800906,8.05548301120403A197,197,0,0,1,196.7668782338481,9.581003606407755L170.40511517387176,8.29739251689944A170.6070045455344,170.6070045455344,0,0,0,170.4643126730406,6.976252927456655Z" fill-rule="evenodd" style="fill: #1DC690; stroke: #fff; opacity: 1;" id="p-type-logs"></path><path d="M196.7668782338481,9.581003606407755A197,197,0,0,1,196.68669987462783,11.105948515460955L170.33567867795327,9.618033547511262A170.6070045455344,170.6070045455344,0,0,0,170.40511517387176,8.29739251689944Z" fill-rule="evenodd" style="fill: #1DC690; stroke: #fff; opacity: 1;" id="p-type-logs"></path><path d="M196.68669987462783,11.105948515460955A197,197,0,0,1,196.5947033579617,12.63022611021062L170.2560073574607,10.938096666983911A170.6070045455344,170.6070045455344,0,0,0,170.33567867795327,9.618033547511262Z" fill-rule="evenodd" style="fill: #1DC690; stroke: #fff; opacity: 1;" id="p-type-logs"></path><path d="M196.5947033579617,12.63022611021062A197,197,0,0,1,196.49089421157123,14.153744802600118L170.16610599954137,12.257502557733668A170.6070045455344,170.6070045455344,0,0,0,170.2560073574607,10.938096666983911Z" fill-rule="evenodd" style="fill: #1DC690; stroke: #fff; opacity: 1;" id="p-type-logs"></path><path d="M196.49089421157123,14.153744802600118A197,197,0,0,1,196.3752786729541,15.676413050172387L170.06598000602673,13.576171941667184A170.6070045455344,170.6070045455344,0,0,0,170.16610599954137,12.257502557733668Z" fill-rule="evenodd" style="fill: #1DC690; stroke: #fff; opacity: 1;" id="p-type-logs"></path><path d="M196.3752786729541,15.676413050172387A197,197,0,0,1,196.2478636890094,17.198139361570362L169.95563539310783,14.89402558494502A170.6070045455344,170.6070045455344,0,0,0,170.06598000602673,13.576171941667184Z" fill-rule="evenodd" style="fill: #1DC690; stroke: #fff; opacity: 1;" id="p-type-logs"></path><path d="M196.2478636890094,17.198139361570362A197,197,0,0,1,196.10865691561992,18.718832302034354L169.83507879097368,16.210984302742492A170.6070045455344,170.6070045455344,0,0,0,169.95563539310783,14.89402558494502Z" fill-rule="evenodd" style="fill: #1DC690; stroke: #fff; opacity: 1;" id="p-type-logs"></path><path d="M196.10865691561992,18.718832302034354A197,197,0,0,1,195.95766671719247,20.238400498896002L169.70431744341306,17.526968964007594A170.6070045455344,170.6070045455344,0,0,0,169.83507879097368,16.210984302742492Z" fill-rule="evenodd" style="fill: #1DC690; stroke: #fff; opacity: 1;" id="p-type-logs"></path><path d="M195.95766671719247,20.238400498896002A197,197,0,0,1,195.79490216615517,21.756752647068538L169.5633592073792,18.841900496215683A170.6070045455344,170.6070045455344,0,0,0,169.70431744341306,17.526968964007594Z" fill-rule="evenodd" style="fill: #1DC690; stroke: #fff; opacity: 1;" id="p-type-logs"></path><path d="M195.79490216615517,21.756752647068538A197,197,0,0,1,195.62037304241224,23.273797514532927L169.41221255251756,20.15569989012064A170.6070045455344,170.6070045455344,0,0,0,169.5633592073792,18.841900496215683Z" fill-rule="evenodd" style="fill: #1DC690; stroke: #fff; opacity: 1;" id="p-type-logs"></path><path d="M195.62037304241224,23.273797514532927A197,197,0,0,1,195.4340898327564,24.789443947819677L169.2508865606571,21.468288204502244A170.6070045455344,170.6070045455344,0,0,0,169.41221255251756,20.15569989012064Z" fill-rule="evenodd" style="fill: #1DC690; stroke: #fff; opacity: 1;" id="p-type-logs"></path><path d="M195.4340898327564,24.789443947819677A197,197,0,0,1,195.23606373023895,26.30360087748591L169.07939092526456,22.779586570909448A170.6070045455344,170.6070045455344,0,0,0,169.2508865606571,21.468288204502244Z" fill-rule="evenodd" style="fill: #1DC690; stroke: #fff; opacity: 1;" id="p-type-logs"></path><path d="M195.23606373023895,26.30360087748591A197,197,0,0,1,195.02630663349686,27.81617732358735L168.89773595086186,24.08951619839928A170.6070045455344,170.6070045455344,0,0,0,169.07939092526456,22.779586570909448Z" fill-rule="evenodd" style="fill: #1DC690; stroke: #fff; opacity: 1;" id="p-type-logs"></path><path d="M195.02630663349686,27.81617732358735A197,197,0,0,1,194.8048311460382,29.32708240114499L168.70593255240712,25.397998378271094A170.6070045455344,170.6070045455344,0,0,0,168.89773595086186,24.08951619839928Z" fill-rule="evenodd" style="fill: #1DC690; stroke: #fff; opacity: 1;" id="p-type-logs"></path><path d="M194.8048311460382,29.32708240114499A197,197,0,0,1,194.57165057548454,30.836225325606023L168.5039922546387,26.704954488795888A170.6070045455344,170.6070045455344,0,0,0,168.70593255240712,25.397998378271094Z" fill-rule="evenodd" style="fill: #1DC690; stroke: #fff; opacity: 1;" id="p-type-logs"></path><path d="M194.57165057548454,30.836225325606023A197,197,0,0,1,194.3267789327716,32.34351541829873L168.29192719138285,28.01030599994037A170.6070045455344,170.6070045455344,0,0,0,168.5039922546387,26.704954488795888Z" fill-rule="evenodd" style="fill: #1DC690; stroke: #fff; opacity: 1;" id="p-type-logs"></path><path d="M194.3267789327716,32.34351541829873A197,197,0,0,1,194.0702309313071,33.84886211188101L168.0697501048245,29.313974478085537A170.6070045455344,170.6070045455344,0,0,0,168.29192719138285,28.01030599994037Z" fill-rule="evenodd" style="fill: #1DC690; stroke: #fff; opacity: 1;" id="p-type-logs"></path><path d="M194.0702309313071,33.84886211188101A197,197,0,0,1,193.80202198608703,35.35217495578226L167.83747434474168,30.61588159073945A170.6070045455344,170.6070045455344,0,0,0,168.0697501048245,29.313974478085537Z" fill-rule="evenodd" style="fill: #1DC690; stroke: #fff; opacity: 1;" id="p-type-logs"></path><path d="M193.80202198608703,35.35217495578226A197,197,0,0,1,193.52216821276915,36.853363621638174L167.59511386770345,31.91594911124394A170.6070045455344,170.6070045455344,0,0,0,167.83747434474168,30.61588159073945Z" fill-rule="evenodd" style="fill: #1DC690; stroke: #fff; opacity: 1;" id="p-type-logs"></path><path d="M193.52216821276915,36.853363621638174A197,197,0,0,1,193.23068642670472,38.352337908718255L167.3426832362312,33.21409892347496A170.6070045455344,170.6070045455344,0,0,0,167.59511386770345,31.91594911124394Z" fill-rule="evenodd" style="fill: #1DC690; stroke: #fff; opacity: 1;" id="p-type-logs"></path><path d="M193.23068642670472,38.352337908718255A197,197,0,0,1,192.92759414192827,39.8490077493456L167.08019761792374,34.51025302653625A170.6070045455344,170.6070045455344,0,0,0,167.3426832362312,33.21409892347496Z" fill-rule="evenodd" style="fill: #1DC690; stroke: #fff; opacity: 1;" id="p-type-logs"></path><path d="M192.92759414192827,39.8490077493456A197,197,0,0,1,192.61290957010502,41.34328321430879L166.80767278454576,35.80433353944617A170.6070045455344,170.6070045455344,0,0,0,167.08019761792374,34.51025302653625Z" fill-rule="evenodd" style="fill: #1DC690; stroke: #fff; opacity: 1;" id="p-type-logs"></path><path d="M192.61290957010502,41.34328321430879A197,197,0,0,1,192.2866516194368,42.83507451826531L166.52512511108043,37.09626270581723A170.6070045455344,170.6070045455344,0,0,0,166.80767278454576,35.80433353944617Z" fill-rule="evenodd" style="fill: #1DC690; stroke: #fff; opacity: 1;" id="p-type-logs"></path><path d="M192.2866516194368,42.83507451826531A197,197,0,0,1,191.94883989352587,44.32429202513649L166.2325715747453,38.3859628985282A170.6070045455344,170.6070045455344,0,0,0,166.52512511108043,37.09626270581723Z" fill-rule="evenodd" style="fill: #1DC690; stroke: #fff; opacity: 1;" id="p-type-logs"></path><path d="M191.94883989352587,44.32429202513649A197,197,0,0,1,191.59949469019693,45.810846253493324L165.93002975397218,39.67335662438839A170.6070045455344,170.6070045455344,0,0,0,166.2325715747453,38.3859628985282Z" fill-rule="evenodd" style="fill: #1DC690; stroke: #fff; opacity: 1;" id="p-type-logs"></path><path d="M191.59949469019693,45.810846253493324A197,197,0,0,1,191.23863700027763,47.29464788193314L165.61751782735112,40.95836652879399A170.6070045455344,170.6070045455344,0,0,0,165.93002975397218,39.67335662438839Z" fill-rule="evenodd" style="fill: #1DC690; stroke: #fff; opacity: 1;" id="p-type-logs"></path><path d="M191.23863700027763,47.29464788193314A197,197,0,0,1,190.86628850633727,48.775607754446526L165.29505457253788,42.24091540037595A170.6070045455344,170.6070045455344,0,0,0,165.61751782735112,40.95836652879399Z" fill-rule="evenodd" style="fill: #1DC690; stroke: #fff; opacity: 1;" id="p-type-logs"></path><path d="M190.86628850633727,48.775607754446526A197,197,0,0,1,190.48247158138392,50.253636885774405L164.96265936512586,43.52092617563934A170.6070045455344,170.6070045455344,0,0,0,165.29505457253788,42.24091540037595Z" fill-rule="evenodd" style="fill: #1DC690; stroke: #fff; opacity: 1;" id="p-type-logs"></path><path d="M190.48247158138392,50.253636885774405A197,197,0,0,1,190.08720928752015,51.728646466754846L164.62035217748172,44.79832194359384A170.6070045455344,170.6070045455344,0,0,0,164.96265936512586,43.52092617563934Z" fill-rule="evenodd" style="fill: #1DC690; stroke: #fff; opacity: 1;" id="p-type-logs"></path><path d="M190.08720928752015,51.728646466754846A197,197,0,0,1,189.68052537455736,53.2005478696592L164.2681535775455,46.07302595037496A170.6070045455344,170.6070045455344,0,0,0,164.62035217748172,44.79832194359384Z" fill-rule="evenodd" style="fill: #1DC690; stroke: #fff; opacity: 1;" id="p-type-logs"></path><path d="M189.68052537455736,53.2005478696592A197,197,0,0,1,189.26244427858865,54.669252653517454L163.90608472759453,47.34496160385594A170.6070045455344,170.6070045455344,0,0,0,164.2681535775455,46.07302595037496Z" fill-rule="evenodd" style="fill: #1DC690; stroke: #fff; opacity: 1;" id="p-type-logs"></path><path d="M189.26244427858865,54.669252653517454A197,197,0,0,1,188.83299112052063,56.13467256943232L163.53416738297219,48.614052478249874A170.6070045455344,170.6070045455344,0,0,0,163.90608472759453,47.34496160385594Z" fill-rule="evenodd" style="fill: #1DC690; stroke: #fff; opacity: 1;" id="p-type-logs"></path><path d="M188.83299112052063,56.13467256943232A197,197,0,0,1,188.39219170456397,57.59671956588174L163.15242389078037,49.88022231870181A170.6070045455344,170.6070045455344,0,0,0,163.53416738297219,48.614052478249874Z" fill-rule="evenodd" style="fill: #1DC690; stroke: #fff; opacity: 1;" id="p-type-logs"></path><path d="M188.39219170456397,57.59671956588174A197,197,0,0,1,187.94007251668287,59.055305794009605L162.76087718853697,51.14339504587066A170.6070045455344,170.6070045455344,0,0,0,163.15242389078037,49.88022231870181Z" fill-rule="evenodd" style="fill: #1DC690; stroke: #fff; opacity: 1;" id="p-type-logs"></path><path d="M187.94007251668287,59.055305794009605A197,197,0,0,1,187.47666072300376,60.51034361290423L162.35955080279754,52.403494760500514A170.6070045455344,170.6070045455344,0,0,0,162.76087718853697,51.14339504587066Z" fill-rule="evenodd" style="fill: #1DC690; stroke: #fff; opacity: 1;" id="p-type-logs"></path><path d="M187.47666072300376,60.51034361290423A197,197,0,0,1,187.00198416818282,61.96174559486438L161.94846884774174,53.66044574798109A170.6070045455344,170.6070045455344,0,0,0,162.35955080279754,52.403494760500514Z" fill-rule="evenodd" style="fill: #1DC690; stroke: #fff; opacity: 1;" id="p-type-logs"></path><path d="M187.00198416818282,61.96174559486438A197,197,0,0,1,186.51607137373307,63.40942453065247L161.52765602372435,54.9141724828972A170.6070045455344,170.6070045455344,0,0,0,161.94846884774174,53.66044574798109Z" fill-rule="evenodd" style="fill: #1DC690; stroke: #fff; opacity: 1;" id="p-type-logs"></path><path d="M186.51607137373307,63.40942453065247A197,197,0,0,1,186.01895153631042,64.85329343473464L161.09713761579115,56.16459963356675A170.6070045455344,170.6070045455344,0,0,0,161.52765602372435,54.9141724828972Z" fill-rule="evenodd" style="fill: #1DC690; stroke: #fff; opacity: 1;" id="p-type-logs"></path><path d="M186.01895153631042,64.85329343473464A197,197,0,0,1,185.51065452595955,66.29326555050734L160.6569394921596,57.41165206656713A170.6070045455344,170.6070045455344,0,0,0,161.09713761579115,56.16459963356675Z" fill-rule="evenodd" style="fill: #1DC690; stroke: #fff; opacity: 1;" id="p-type-logs"></path><path d="M185.51065452595955,66.29326555050734A197,197,0,0,1,184.99121088431903,67.72925435551026L160.2070881026646,58.65525485124972A170.6070045455344,170.6070045455344,0,0,0,160.6569394921596,57.41165206656713Z" fill-rule="evenodd" style="fill: #1DC690; stroke: #fff; opacity: 1;" id="p-type-logs"></path><path d="M184.99121088431903,67.72925435551026A197,197,0,0,1,184.46065182278616,69.16117356662517L159.74761047716913,59.895333264242204A170.6070045455344,170.6070045455344,0,0,0,160.2070881026646,58.65525485124972Z" fill-rule="evenodd" style="fill: #1DC690; stroke: #fff; opacity: 1;" id="p-type-logs"></path><path d="M184.46065182278616,69.16117356662517A197,197,0,0,1,183.91900922064175,70.5889371452602L159.27853422394014,61.13181279393832A170.6070045455344,170.6070045455344,0,0,0,159.74761047716913,59.895333264242204Z" fill-rule="evenodd" style="fill: #1DC690; stroke: #fff; opacity: 1;" id="p-type-logs"></path><path d="M183.91900922064175,70.5889371452602A197,197,0,0,1,183.3663156231344,72.01245930251976L158.79988752798977,62.36461914497513A170.6070045455344,170.6070045455344,0,0,0,159.27853422394014,61.13181279393832Z" fill-rule="evenodd" style="fill: #1DC690; stroke: #fff; opacity: 1;" id="p-type-logs"></path><path d="M183.3663156231344,72.01245930251976A197,197,0,0,1,182.8026042395251,73.4316545043591L158.31169914938164,63.59367824269698A170.6070045455344,170.6070045455344,0,0,0,158.79988752798977,62.36461914497513Z" fill-rule="evenodd" style="fill: #1DC690; stroke: #fff; opacity: 1;" id="p-type-logs"></path><path d="M182.8026042395251,73.4316545043591A197,197,0,0,1,182.22790894109187,74.84643747672386L157.813998421503,64.81891623760652A170.6070045455344,170.6070045455344,0,0,0,158.31169914938164,63.59367824269698Z" fill-rule="evenodd" style="fill: #1DC690; stroke: #fff; opacity: 1;" id="p-type-logs"></path><path d="M182.22790894109187,74.84643747672386A197,197,0,0,1,181.64226425909442,76.25672321067377L157.30681524930196,66.04025950980193A170.6070045455344,170.6070045455344,0,0,0,157.813998421503,64.81891623760652Z" fill-rule="evenodd" style="fill: #1DC690; stroke: #fff; opacity: 1;" id="p-type-logs"></path><path d="M181.64226425909442,76.25672321067377A197,197,0,0,1,181.04570538269942,77.66242696749056L156.79018010749078,67.25763467340049A170.6070045455344,170.6070045455344,0,0,0,157.30681524930196,66.04025950980193Z" fill-rule="evenodd" style="fill: #1DC690; stroke: #fff; opacity: 1;" id="p-type-logs"></path><path d="M181.04570538269942,77.66242696749056A197,197,0,0,1,180.43826815686603,79.0634642837696L156.26412403871473,68.47096858094811A170.6070045455344,170.6070045455344,0,0,0,156.79018010749078,67.25763467340049Z" fill-rule="evenodd" style="fill: #1DC690; stroke: #fff; opacity: 1;" id="p-type-logs"></path><path d="M180.43826815686603,79.0634642837696A197,197,0,0,1,179.81998908019216,80.45975097649493L155.72867865168675,69.6801883278144A170.6070045455344,170.6070045455344,0,0,0,156.26412403871473,68.47096858094811Z" fill-rule="evenodd" style="fill: #1DC690; stroke: #fff; opacity: 1;" id="p-type-logs"></path><path d="M179.81998908019216,80.45975097649493A197,197,0,0,1,179.19090530272138,81.85120314809755L155.18387611928839,70.8852212565733A170.6070045455344,170.6070045455344,0,0,0,155.72867865168675,69.6801883278144Z" fill-rule="evenodd" style="fill: #1DC690; stroke: #fff; opacity: 1;" id="p-type-logs"></path><path d="M179.19090530272138,81.85120314809755A197,197,0,0,1,178.5510546237108,83.23773719149649L154.62974917663652,72.08599496136874A170.6070045455344,170.6070045455344,0,0,0,155.18387611928839,70.8852212565733Z" fill-rule="evenodd" style="fill: #1DC690; stroke: #fff; opacity: 1;" id="p-type-logs"></path><path d="M178.5510546237108,83.23773719149649A197,197,0,0,1,177.9004754893597,84.61926979512245L154.06633111911637,73.28243729226527A170.6070045455344,170.6070045455344,0,0,0,154.62974917663652,72.08599496136874Z" fill-rule="evenodd" style="fill: #1DC690; stroke: #fff; opacity: 1;" id="p-type-logs"></path><path d="M177.9004754893597,84.61926979512245A197,197,0,0,1,177.2392069904996,85.99571794792364L153.49365580038113,74.47447635958326A170.6070045455344,170.6070045455344,0,0,0,154.06633111911637,73.28243729226527Z" fill-rule="evenodd" style="fill: #1DC690; stroke: #fff; opacity: 1;" id="p-type-logs"></path><path d="M177.2392069904996,85.99571794792364A197,197,0,0,1,176.5672888602453,87.36699894435365L152.91175763031757,75.66204053821849A170.6070045455344,170.6070045455344,0,0,0,153.49365580038113,74.47447635958326Z" fill-rule="evenodd" style="fill: #1DC690; stroke: #fff; opacity: 1;" id="p-type-logs"></path><path d="M176.5672888602453,87.36699894435365A197,197,0,0,1,175.88476147160762,88.7330303893409L152.32067157297865,76.8450584719458A170.6070045455344,170.6070045455344,0,0,0,152.91175763031757,75.66204053821849Z" fill-rule="evenodd" style="fill: #1DC690; stroke: #fff; opacity: 1;" id="p-type-logs"></path><path d="M96.93355801146154,171.501852267661A197,197,0,0,1,23.806333088523374,195.55627963550103L20.616889225615296,169.35670603391736A170.6070045455344,170.6070045455344,0,0,0,83.94692371713828,148.52496085988028Z" fill-rule="evenodd" style="fill: #414552; stroke: #fff; opacity: 1;" id="p-type-ether"></path><path d="M23.806333088523374,195.55627963550103A197,197,0,0,1,14.674730244220623,196.4526718888276L12.708689185178878,170.13300449705378A170.6070045455344,170.6070045455344,0,0,0,20.616889225615296,169.35670603391736Z" fill-rule="evenodd" style="fill: #414552; stroke: #fff; opacity: 1;" id="p-type-ether"></path><path d="M14.674730244220623,196.4526718888276A197,197,0,0,1,6.964566575426282,196.87685189583985L6.031491580667152,170.50035515890383A170.6070045455344,170.6070045455344,0,0,0,12.708689185178878,170.13300449705378Z" fill-rule="evenodd" style="fill: #414552; stroke: #fff; opacity: 1;" id="p-type-ether"></path><path d="M6.964566575426282,196.87685189583985A197,197,0,0,1,-0.6568551182669805,196.99890492424979L-0.5688532190250369,170.60605618211565A170.6070045455344,170.6070045455344,0,0,0,6.031491580667152,170.50035515890383Z" fill-rule="evenodd" style="fill: #414552; stroke: #fff; opacity: 1;" id="p-type-ether"></path><path d="M-76.15072500387937,181.6867278625039A197,197,0,0,1,-77.55677660354397,181.09098929231124L-67.16613877430366,156.8293971235973A170.6070045455344,170.6070045455344,0,0,0,-65.94846236996239,157.34532185939833Z" fill-rule="evenodd" style="fill: #D7A449; stroke: #fff; opacity: 1;" id="p-type-tokenTransfers"></path><path d="M-77.55677660354397,181.09098929231124A197,197,0,0,1,-78.95816811080024,180.48436965174187L-68.37977942023537,156.30404910442965A170.6070045455344,170.6070045455344,0,0,0,-67.16613877430366,156.8293971235973Z" fill-rule="evenodd" style="fill: #D7A449; stroke: #fff; opacity: 1;" id="p-type-tokenTransfers"></path><path d="M-78.95816811080024,180.48436965174187A197,197,0,0,1,-80.35481532135032,179.8669053902682L-69.5893113846964,155.76930936806443A170.6070045455344,170.6070045455344,0,0,0,-68.37977942023537,156.30404910442965Z" fill-rule="evenodd" style="fill: #D7A449; stroke: #fff; opacity: 1;" id="p-type-tokenTransfers"></path><path d="M-80.35481532135032,179.8669053902682A197,197,0,0,1,-81.746634315963,179.23863360897454L-70.7946619915007,155.22521004498324A170.6070045455344,170.6070045455344,0,0,0,-69.5893113846964,155.76930936806443Z" fill-rule="evenodd" style="fill: #D7A449; stroke: #fff; opacity: 1;" id="p-type-tokenTransfers"></path><path d="M-81.746634315963,179.23863360897454A197,197,0,0,1,-83.13354146551632,178.59959205832828L-71.99575881570414,154.67178382804977A170.6070045455344,170.6070045455344,0,0,0,-70.7946619915007,155.22521004498324Z" fill-rule="evenodd" style="fill: #D7A449; stroke: #fff; opacity: 1;" id="p-type-tokenTransfers"></path><path d="M-83.13354146551632,178.59959205832828A197,197,0,0,1,-84.51545343602245,177.94981913591124L-73.19252968795627,154.10906397054535A170.6070045455344,170.6070045455344,0,0,0,-71.99575881570414,154.67178382804977Z" fill-rule="evenodd" style="fill: #D7A449; stroke: #fff; opacity: 1;" id="p-type-tokenTransfers"></path><path d="M-84.51545343602245,177.94981913591124A197,197,0,0,1,-85.89228719363489,177.2893538841127L-74.38490269883663,153.53708428417093A170.6070045455344,170.6070045455344,0,0,0,-73.19252968795627,154.10906397054535Z" fill-rule="evenodd" style="fill: #D7A449; stroke: #fff; opacity: 1;" id="p-type-tokenTransfers"></path><path d="M-85.89228719363489,177.2893538841127A197,197,0,0,1,-87.26396000963771,176.6182359877834L-75.5728062031756,152.95587913701542A170.6070045455344,170.6070045455344,0,0,0,-74.38490269883663,153.53708428417093Z" fill-rule="evenodd" style="fill: #D7A449; stroke: #fff; opacity: 1;" id="p-type-tokenTransfers"></path><path d="M-87.26396000963771,176.6182359877834A197,197,0,0,1,-88.63038946541634,175.93650577185116L-76.75616882435924,152.36548345149063A170.6070045455344,170.6070045455344,0,0,0,-75.5728062031756,152.95587913701542Z" fill-rule="evenodd" style="fill: #D7A449; stroke: #fff; opacity: 1;" id="p-type-tokenTransfers"></path><path d="M-88.63038946541634,175.93650577185116A197,197,0,0,1,-89.99149345740986,175.2442041988977L-77.93491945861804,151.765932702233A170.6070045455344,170.6070045455344,0,0,0,-76.75616882435924,152.36548345149063Z" fill-rule="evenodd" style="fill: #D7A449; stroke: #fff; opacity: 1;" id="p-type-tokenTransfers"></path><path d="M-89.99149345740986,175.2442041988977A197,197,0,0,1,-91.34719020204426,174.54137286669757L-79.1089872792993,151.15726291397203A170.6070045455344,170.6070045455344,0,0,0,-77.93491945861804,151.765932702233Z" fill-rule="evenodd" style="fill: #D7A449; stroke: #fff; opacity: 1;" id="p-type-tokenTransfers"></path><path d="M-91.34719020204426,174.54137286669757A197,197,0,0,1,-92.69739824064648,173.8280540057185L-80.27830174112277,150.5395106593656A170.6070045455344,170.6070045455344,0,0,0,-79.1089872792993,151.15726291397203Z" fill-rule="evenodd" style="fill: #D7A449; stroke: #fff; opacity: 1;" id="p-type-tokenTransfers"></path><path d="M-92.69739824064648,173.8280540057185A197,197,0,0,1,-94.04203644433902,173.10429047658414L-81.44279258441959,149.91271305680252A170.6070045455344,170.6070045455344,0,0,0,-80.27830174112277,150.5395106593656Z" fill-rule="evenodd" style="fill: #D7A449; stroke: #fff; opacity: 1;" id="p-type-tokenTransfers"></path><path d="M-94.04203644433902,173.10429047658414A197,197,0,0,1,-95.38102401891456,172.37012576749848L-82.60238983935372,149.27690776817235A170.6070045455344,170.6070045455344,0,0,0,-81.44279258441959,149.91271305680252Z" fill-rule="evenodd" style="fill: #D7A449; stroke: #fff; opacity: 1;" id="p-type-tokenTransfers"></path><path d="M-95.38102401891456,172.37012576749848A197,197,0,0,1,-96.71428050969071,171.62560399163308L-83.75702383012636,148.6321329966022A170.6070045455344,170.6070045455344,0,0,0,-82.60238983935372,149.27690776817235Z" fill-rule="evenodd" style="fill: #D7A449; stroke: #fff; opacity: 1;" id="p-type-tokenTransfers"></path><path d="M-96.71428050969071,171.62560399163308A197,197,0,0,1,-98.04172580634413,170.87076988447623L-84.90662517916239,147.97842748416144A170.6070045455344,170.6070045455344,0,0,0,-83.75702383012636,148.6321329966022Z" fill-rule="evenodd" style="fill: #D7A449; stroke: #fff; opacity: 1;" id="p-type-tokenTransfers"></path><path d="M-98.04172580634413,170.87076988447623A197,197,0,0,1,-99.36328014772407,170.10566880114519L-86.05112481127902,147.31583050953375A170.6070045455344,170.6070045455344,0,0,0,-84.90662517916239,147.97842748416144Z" fill-rule="evenodd" style="fill: #D7A449; stroke: #fff; opacity: 1;" id="p-type-tokenTransfers"></path><path d="M-99.36328014772407,170.10566880114519A197,197,0,0,1,-100.67886412664495,169.33034671366076L-87.19045395783633,146.64438188565705A170.6070045455344,170.6070045455344,0,0,0,-86.05112481127902,147.31583050953375Z" fill-rule="evenodd" style="fill: #D7A449; stroke: #fff; opacity: 1;" id="p-type-tokenTransfers"></path><path d="M-100.67886412664495,169.33034671366076A197,197,0,0,1,-101.9883986946576,168.54485020818512L-88.32454416086917,145.96412195733123A170.6070045455344,170.6070045455344,0,0,0,-87.19045395783633,146.64438188565705Z" fill-rule="evenodd" style="fill: #D7A449; stroke: #fff; opacity: 1;" id="p-type-tokenTransfers"></path><path d="M-101.9883986946576,168.54485020818512A197,197,0,0,1,-103.29180516679902,167.74922648222264L-89.45332727720069,145.27509159879412A170.6070045455344,170.6070045455344,0,0,0,-88.32454416086917,145.96412195733123Z" fill-rule="evenodd" style="fill: #D7A449; stroke: #fff; opacity: 1;" id="p-type-tokenTransfers"></path><path d="M-103.29180516679902,167.74922648222264A197,197,0,0,1,-104.5890052263202,166.94352334178396L-90.57673548253672,144.57733221126531A170.6070045455344,170.6070045455344,0,0,0,-89.45332727720069,145.27509159879412Z" fill-rule="evenodd" style="fill: #D7A449; stroke: #fff; opacity: 1;" id="p-type-tokenTransfers"></path><path d="M-104.5890052263202,166.94352334178396A197,197,0,0,1,-105.87992092939193,166.1277891985134L-91.69470127554108,143.8708857204587A170.6070045455344,170.6070045455344,0,0,0,-90.57673548253672,144.57733221126531Z" fill-rule="evenodd" style="fill: #D7A449; stroke: #fff; opacity: 1;" id="p-type-tokenTransfers"></path><path d="M-105.87992092939193,166.1277891985134A197,197,0,0,1,-107.16447470978817,165.3020730667803L-92.80715748189155,143.15579457406318A170.6070045455344,170.6070045455344,0,0,0,-91.69470127554108,143.8708857204587Z" fill-rule="evenodd" style="fill: #D7A449; stroke: #fff; opacity: 1;" id="p-type-tokenTransfers"></path><path d="M-107.16447470978817,165.3020730667803A197,197,0,0,1,-108.44258938354659,164.46642456073369L-93.91403725831601,142.43210173919232A170.6070045455344,170.6070045455344,0,0,0,-92.80715748189155,143.15579457406318Z" fill-rule="evenodd" style="fill: #D7A449; stroke: #fff; opacity: 1;" id="p-type-tokenTransfers"></path><path d="M-108.44258938354659,164.46642456073369A197,197,0,0,1,-109.71418815360641,163.62089389132137L-95.01527409660886,141.69985069980237A170.6070045455344,170.6070045455344,0,0,0,-93.91403725831601,142.43210173919232Z" fill-rule="evenodd" style="fill: #D7A449; stroke: #fff; opacity: 1;" id="p-type-tokenTransfers"></path><path d="M-109.71418815360641,163.62089389132137A197,197,0,0,1,-110.97919461442278,162.7655318632728L-96.11080182762728,140.95908545407974A170.6070045455344,170.6070045455344,0,0,0,-95.01527409660886,141.69985069980237Z" fill-rule="evenodd" style="fill: #D7A449; stroke: #fff; opacity: 1;" id="p-type-tokenTransfers"></path><path d="M-110.97919461442278,162.7655318632728A197,197,0,0,1,-112.23753275655767,161.90038987204647L-97.200554625267,140.20985051179707A170.6070045455344,170.6070045455344,0,0,0,-96.11080182762728,140.95908545407974Z" fill-rule="evenodd" style="fill: #D7A449; stroke: #fff; opacity: 1;" id="p-type-tokenTransfers"></path><path d="M-112.23753275655767,161.90038987204647A197,197,0,0,1,-113.489126971247,161.02551990074173L-98.28446701041761,139.45219089163902A170.6070045455344,170.6070045455344,0,0,0,-97.200554625267,140.20985051179707Z" fill-rule="evenodd" style="fill: #D7A449; stroke: #fff; opacity: 1;" id="p-type-tokenTransfers"></path><path d="M-113.489126971247,161.02551990074173A197,197,0,0,1,-114.73390205494374,160.14097451697543L-99.36247385489689,138.68615211849715A170.6070045455344,170.6070045455344,0,0,0,-98.28446701041761,139.45219089163902Z" fill-rule="evenodd" style="fill: #D7A449; stroke: #fff; opacity: 1;" id="p-type-tokenTransfers"></path><path d="M-114.73390205494374,160.14097451697543A197,197,0,0,1,-115.97178321383655,159.24680686972312L-100.43451038536418,137.91178022073447A170.6070045455344,170.6070045455344,0,0,0,-99.36247385489689,138.68615211849715Z" fill-rule="evenodd" style="fill: #D7A449; stroke: #fff; opacity: 1;" id="p-type-tokenTransfers"></path><path d="M-115.97178321383655,159.24680686972312A197,197,0,0,1,-117.20269606834387,158.34307068612574L-101.50051218721234,137.12912172741994A170.6070045455344,170.6070045455344,0,0,0,-100.43451038536418,137.91178022073447Z" fill-rule="evenodd" style="fill: #D7A449; stroke: #fff; opacity: 1;" id="p-type-tokenTransfers"></path><path d="M-117.20269606834387,158.34307068612574A197,197,0,0,1,-118.4265666575831,157.4298202682612L-102.56041520843814,136.33822366553252A170.6070045455344,170.6070045455344,0,0,0,-101.50051218721234,137.12912172741994Z" fill-rule="evenodd" style="fill: #D7A449; stroke: #fff; opacity: 1;" id="p-type-tokenTransfers"></path><path d="M-118.4265666575831,157.4298202682612A197,197,0,0,1,-119.64332144381464,156.5071104898817L-103.61415576349097,135.53913355713556A170.6070045455344,170.6070045455344,0,0,0,-102.56041520843814,136.33822366553252Z" fill-rule="evenodd" style="fill: #D7A449; stroke: #fff; opacity: 1;" id="p-type-tokenTransfers"></path><path d="M-119.64332144381464,156.5071104898817A197,197,0,0,1,-120.85288731686053,155.5749967931165L-104.6616705370994,134.73189941652146A170.6070045455344,170.6070045455344,0,0,0,-103.61415576349097,135.53913355713556Z" fill-rule="evenodd" style="fill: #D7A449; stroke: #fff; opacity: 1;" id="p-type-tokenTransfers"></path><path d="M-120.85288731686053,155.5749967931165A197,197,0,0,1,-122.05519159849725,154.63353518514063L-105.7028965880756,133.91656974732663A170.6070045455344,170.6070045455344,0,0,0,-104.6616705370994,134.73189941652146Z" fill-rule="evenodd" style="fill: #D7A449; stroke: #fff; opacity: 1;" id="p-type-tokenTransfers"></path><path d="M-122.05519159849725,154.63353518514063A197,197,0,0,1,-123.25016204682281,153.68278223480962L-106.73777135309722,133.09319353961695A170.6070045455344,170.6070045455344,0,0,0,-105.7028965880756,133.91656974732663Z" fill-rule="evenodd" style="fill: #D7A449; stroke: #fff; opacity: 1;" id="p-type-tokenTransfers"></path><path d="M-123.25016204682281,153.68278223480962A197,197,0,0,1,-124.43772686059742,152.72279506926054L-107.76623265046656,132.26182026694443A170.6070045455344,170.6070045455344,0,0,0,-106.73777135309722,133.09319353961695Z" fill-rule="evenodd" style="fill: #D7A449; stroke: #fff; opacity: 1;" id="p-type-tokenTransfers"></path><path d="M-124.43772686059742,152.72279506926054A197,197,0,0,1,-125.61781468355778,151.75363137047935L-108.78821868384692,131.42249988337423A170.6070045455344,170.6070045455344,0,0,0,-107.76623265046656,132.26182026694443Z" fill-rule="evenodd" style="fill: #D7A449; stroke: #fff; opacity: 1;" id="p-type-tokenTransfers"></path><path d="M-125.61781468355778,151.75363137047935A197,197,0,0,1,-126.79035460870456,150.77534937183515L-109.80366804597553,130.57528282048332A170.6070045455344,170.6070045455344,0,0,0,-108.78821868384692,131.42249988337423Z" fill-rule="evenodd" style="fill: #D7A449; stroke: #fff; opacity: 1;" id="p-type-tokenTransfers"></path><path d="M-126.79035460870456,150.77534937183515A197,197,0,0,1,-127.95527618256301,149.788007854581L-110.8125197223535,129.72021998433019A170.6070045455344,170.6070045455344,0,0,0,-109.80366804597553,130.57528282048332Z" fill-rule="evenodd" style="fill: #D7A449; stroke: #fff; opacity: 1;" id="p-type-tokenTransfers"></path><path d="M-127.95527618256301,149.788007854581A197,197,0,0,1,-129.11250940941616,148.79166614432214L-111.81471309491177,128.85736275239597A170.6070045455344,170.6070045455344,0,0,0,-110.8125197223535,129.72021998433019Z" fill-rule="evenodd" style="fill: #D7A449; stroke: #fff; opacity: 1;" id="p-type-tokenTransfers"></path><path d="M-129.11250940941616,148.79166614432214A197,197,0,0,1,-130.2619847555107,147.7863841074512L-112.81018794565354,127.98676297049755A170.6070045455344,170.6070045455344,0,0,0,-111.81471309491177,128.85736275239597Z" fill-rule="evenodd" style="fill: #D7A449; stroke: #fff; opacity: 1;" id="p-type-tokenTransfers"></path><path d="M-130.2619847555107,147.7863841074512A197,197,0,0,1,-131.4036331532348,146.77222214755108L-113.79888446027243,127.10847294967225A170.6070045455344,170.6070045455344,0,0,0,-112.81018794565354,127.98676297049755Z" fill-rule="evenodd" style="fill: #D7A449; stroke: #fff; opacity: 1;" id="p-type-tokenTransfers"></path><path d="M-131.4036331532348,146.77222214755108A197,197,0,0,1,-132.53738600526847,145.74924120176564L-114.78074323174664,126.22254546303463A170.6070045455344,170.6070045455344,0,0,0,-113.79888446027243,127.10847294967225Z" fill-rule="evenodd" style="fill: #D7A449; stroke: #fff; opacity: 1;" id="p-type-tokenTransfers"></path><path d="M-132.53738600526847,145.74924120176564A197,197,0,0,1,-133.66317518870494,144.71750273713812L-115.75570526390835,125.32903374260563A170.6070045455344,170.6070045455344,0,0,0,-114.78074323174664,126.22254546303463Z" fill-rule="evenodd" style="fill: #D7A449; stroke: #fff; opacity: 1;" id="p-type-tokenTransfers"></path><path d="M-133.66317518870494,144.71750273713812A197,197,0,0,1,-134.78093305914408,143.67706874691774L-116.72371197498865,124.42799147611397A170.6070045455344,170.6070045455344,0,0,0,-115.75570526390835,125.32903374260563Z" fill-rule="evenodd" style="fill: #D7A449; stroke: #fff; opacity: 1;" id="p-type-tokenTransfers"></path><path d="M-134.78093305914408,143.67706874691774A197,197,0,0,1,-135.89059245475693,142.62800174683497L-117.68470520113745,123.51947280377036A170.6070045455344,170.6070045455344,0,0,0,-116.72371197498865,124.42799147611397Z" fill-rule="evenodd" style="fill: #D7A449; stroke: #fff; opacity: 1;" id="p-type-tokenTransfers"></path><path d="M-135.89059245475693,142.62800174683497A197,197,0,0,1,-136.99208670032115,141.57036477134506L-118.63862719991845,122.60353231501436A170.6070045455344,170.6070045455344,0,0,0,-117.68470520113745,123.51947280377036Z" fill-rule="evenodd" style="fill: #D7A449; stroke: #fff; opacity: 1;" id="p-type-tokenTransfers"></path><path d="M-136.99208670032115,141.57036477134506A197,197,0,0,1,-138.08534961122723,140.50422136984054L-119.58542065377844,121.6802250452343A170.6070045455344,170.6070045455344,0,0,0,-118.63862719991845,122.60353231501436Z" fill-rule="evenodd" style="fill: #D7A449; stroke: #fff; opacity: 1;" id="p-type-tokenTransfers"></path><path d="M-138.08534961122723,140.50422136984054A197,197,0,0,1,-139.1703154974554,139.42963560283275L-120.52502867349152,120.74960647246037A170.6070045455344,170.6070045455344,0,0,0,-119.58542065377844,121.6802250452343Z" fill-rule="evenodd" style="fill: #D7A449; stroke: #fff; opacity: 1;" id="p-type-tokenTransfers"></path><path d="M-139.1703154974554,139.42963560283275A197,197,0,0,1,-140.24691916752255,138.34667203810287L-121.45739480157725,119.81173251403135A170.6070045455344,170.6070045455344,0,0,0,-120.52502867349152,120.74960647246037Z" fill-rule="evenodd" style="fill: #D7A449; stroke: #fff; opacity: 1;" id="p-type-tokenTransfers"></path><path d="M-140.24691916752255,138.34667203810287A197,197,0,0,1,-141.31509593239946,137.25539574682205L-122.38246301569292,118.86665952323449A170.6070045455344,170.6070045455344,0,0,0,-121.45739480157725,119.81173251403135Z" fill-rule="evenodd" style="fill: #D7A449; stroke: #fff; opacity: 1;" id="p-type-tokenTransfers"></path><path d="M-141.31509593239946,137.25539574682205A197,197,0,0,1,-142.37478160939764,136.15587229964166L-123.30017773199985,117.91444428591963A170.6070045455344,170.6070045455344,0,0,0,-122.38246301569292,118.86665952323449Z" fill-rule="evenodd" style="fill: #D7A449; stroke: #fff; opacity: 1;" id="p-type-tokenTransfers"></path><path d="M-142.37478160939764,136.15587229964166A197,197,0,0,1,-143.42591252602585,135.0481677627534L-124.2104838085031,116.95514401708711A170.6070045455344,170.6070045455344,0,0,0,-123.30017773199985,117.91444428591963Z" fill-rule="evenodd" style="fill: #D7A449; stroke: #fff; opacity: 1;" id="p-type-tokenTransfers"></path><path d="M-143.42591252602585,135.0481677627534A197,197,0,0,1,-144.46842552381594,133.93234869391952L-125.11332654836478,115.98881635744989A170.6070045455344,170.6070045455344,0,0,0,-124.2104838085031,116.95514401708711Z" fill-rule="evenodd" style="fill: #D7A449; stroke: #fff; opacity: 1;" id="p-type-tokenTransfers"></path><path d="M-144.46842552381594,133.93234869391952A197,197,0,0,1,-145.5022579621178,132.80848213847383L-126.00865170319062,115.01551936997022A170.6070045455344,170.6070045455344,0,0,0,-125.11332654836478,115.98881635744989Z" fill-rule="evenodd" style="fill: #D7A449; stroke: #fff; opacity: 1;" id="p-type-tokenTransfers"></path><path d="M-145.5022579621178,132.80848213847383A197,197,0,0,1,-146.52734772186324,131.67663562529302L-126.89640547628944,114.03531153637078A170.6070045455344,170.6070045455344,0,0,0,-126.00865170319062,115.01551936997022Z" fill-rule="evenodd" style="fill: #D7A449; stroke: #fff; opacity: 1;" id="p-type-tokenTransfers"></path></g></svg>