<svg xmlns="http://www.w3.org/2000/svg" width="400" height="400" id="block-7824902"><g id="burst-container" transform="translate(200,200)"><circle r="197" style="fill: #f9f9f9; stroke: #f9f9f9; stroke-width: 3; opacity: 1;" id="circle-base"></circle><path display="none" d="M6.031385485800715e-15,-98.5A98.5,98.5,0,1,1,-6.031385485800715e-15,98.5A98.5,98.5,0,1,1,6.031385485800715e-15,-98.5Z" fill-rule="evenodd" id="p-type-root" style="stroke: #fff; opacity: 1;"></path><path d="M8.529667153919608e-15,-139.30003589374985A139.30003589374985,139.30003589374985,0,1,1,-95.52853537388415,-101.38441166826664L-67.54887515969247,-71.68960499723988A98.5,98.5,0,1,0,6.031385485800715e-15,-98.5Z" fill-rule="evenodd" style="fill: #0B1F65; stroke: #fff; opacity: 1;" id="p-type-data"></path><path d="M-95.52853537388415,-101.38441166826664A139.30003589374985,139.30003589374985,0,0,1,-1.30761623005445,-139.2938984298842L-0.9246243034610903,-98.49566015768131A98.5,98.5,0,0,0,-67.54887515969247,-71.68960499723988Z" fill-rule="evenodd" style="fill: #D7A449; stroke: #fff; opacity: 1;" id="p-type-value"></path><path d="M1.0446666101440332e-14,-170.6070045455344A170.6070045455344,170.6070045455344,0,0,1,170.27628379339777,10.617776486169836L139.03000353038846,8.669378198012476A139.30003589374985,139.30003589374985,0,0,0,8.529667153919608e-15,-139.30003589374985Z" fill-rule="evenodd" style="fill: #DB3F29; stroke: #fff; opacity: 1;" id="p-type-functions"></path><path d="M170.27628379339777,10.617776486169836A170.6070045455344,170.6070045455344,0,0,1,54.79516443538587,161.5680660108891L44.740064412865095,131.9197734849961A139.30003589374985,139.30003589374985,0,0,0,139.03000353038846,8.669378198012476Z" fill-rule="evenodd" style="fill: #414552; stroke: #fff; opacity: 1;" id="p-type-ether"></path><path d="M54.79516443538587,161.5680660108891A170.6070045455344,170.6070045455344,0,0,1,-110.63935400755855,129.86794579414175L-90.33665426322386,106.03673371302398A139.30003589374985,139.30003589374985,0,0,0,44.740064412865095,131.9197734849961Z" fill-rule="evenodd" style="fill: #1DC690; stroke: #fff; opacity: 1;" id="p-type-logs"></path><path d="M-110.63935400755855,129.86794579414175A170.6070045455344,170.6070045455344,0,0,1,-170.6017750386308,-1.335797016171275L-139.2957660192431,-1.0906736965173045A139.30003589374985,139.30003589374985,0,0,0,-90.33665426322386,106.03673371302398Z" fill-rule="evenodd" style="fill: #D7A449; stroke: #fff; opacity: 1;" id="p-type-tokenTransfers"></path><path d="M-116.99808377071462,-124.17003822976315A170.6070045455344,170.6070045455344,0,0,1,-53.531908825675984,-161.9910020262839L-43.7086205266992,-132.26509929551713A139.30003589374985,139.30003589374985,0,0,0,-95.52853537388415,-101.38441166826664Z" fill-rule="evenodd" style="fill: #D7A449; stroke: #fff; opacity: 1;" id="p-type-tokenTransfers"></path><path d="M-53.531908825675984,-161.9910020262839A170.6070045455344,170.6070045455344,0,0,1,-3.2028514213645476,-170.57693789833567L-2.6151172347636606,-139.2754865791121A139.30003589374985,139.30003589374985,0,0,0,-43.7086205266992,-132.26509929551713Z" fill-rule="evenodd" style="fill: #414552; stroke: #fff; opacity: 1;" id="p-type-ether"></path><path d="M1.206277097160143e-14,-197A197,197,0,0,1,71.7367801715153,-183.47434254037728L62.12587401423205,-158.89344158261463A170.6070045455344,170.6070045455344,0,0,0,1.0446666101440332e-14,-170.6070045455344Z" fill-rule="evenodd" style="fill: #DB3F29; stroke: #fff; opacity: 1;" id="p-type-functions"></path><path d="M71.7367801715153,-183.47434254037728A197,197,0,0,1,74.74064469802266,-182.2713253096162L64.72729700371434,-157.85159809958515A170.6070045455344,170.6070045455344,0,0,0,62.12587401423205,-158.89344158261463Z" fill-rule="evenodd" style="fill: #DB3F29; stroke: #fff; opacity: 1;" id="p-type-functions"></path><path d="M74.74064469802266,-182.2713253096162A197,197,0,0,1,77.59232336364856,-181.07576136808316L67.19692317157649,-156.81620935436888A170.6070045455344,170.6070045455344,0,0,0,64.72729700371434,-157.85159809958515Z" fill-rule="evenodd" style="fill: #DB3F29; stroke: #fff; opacity: 1;" id="p-type-functions"></path><path d="M77.59232336364856,-181.07576136808316A197,197,0,0,1,80.40566626473347,-179.84417931232665L69.63334959347262,-155.74962800723867A170.6070045455344,170.6070045455344,0,0,0,67.19692317157649,-156.81620935436888Z" fill-rule="evenodd" style="fill: #DB3F29; stroke: #fff; opacity: 1;" id="p-type-functions"></path><path d="M80.40566626473347,-179.84417931232665A197,197,0,0,1,82.764549213866,-178.77088519506063L71.67620215197536,-154.8201280359539A170.6070045455344,170.6070045455344,0,0,0,69.63334959347262,-155.74962800723867Z" fill-rule="evenodd" style="fill: #DB3F29; stroke: #fff; opacity: 1;" id="p-type-functions"></path><path d="M196.61811656945463,12.260352224970868A197,197,0,0,1,178.6541191711668,83.0162978166006L154.71900569296295,71.89422283731074A170.6070045455344,170.6070045455344,0,0,0,170.27628379339777,10.617776486169836Z" fill-rule="evenodd" style="fill: #414552; stroke: #fff; opacity: 1;" id="p-type-ether"></path><path d="M178.6541191711668,83.0162978166006A197,197,0,0,1,170.1079485506069,99.35937721173617L147.31780483048183,86.04774476956418A170.6070045455344,170.6070045455344,0,0,0,154.71900569296295,71.89422283731074Z" fill-rule="evenodd" style="fill: #414552; stroke: #fff; opacity: 1;" id="p-type-ether"></path><path d="M170.1079485506069,99.35937721173617A197,197,0,0,1,161.59022500935333,112.68362428244208L139.9412398613435,97.58688121909587A170.6070045455344,170.6070045455344,0,0,0,147.31780483048183,86.04774476956418Z" fill-rule="evenodd" style="fill: #414552; stroke: #fff; opacity: 1;" id="p-type-ether"></path><path d="M161.59022500935333,112.68362428244208A197,197,0,0,1,154.23889780509376,122.55350832950414L133.57480375092308,106.1344515362584A170.6070045455344,170.6070045455344,0,0,0,139.9412398613435,97.58688121909587Z" fill-rule="evenodd" style="fill: #414552; stroke: #fff; opacity: 1;" id="p-type-ether"></path><path d="M154.23889780509376,122.55350832950414A197,197,0,0,1,150.14018340607774,127.5418571559523L130.02521295851815,110.45448834290079A170.6070045455344,170.6070045455344,0,0,0,133.57480375092308,106.1344515362584Z" fill-rule="evenodd" style="fill: #414552; stroke: #fff; opacity: 1;" id="p-type-ether"></path><path d="M150.14018340607774,127.5418571559523A197,197,0,0,1,146.37283478771351,131.84837214091317L126.7625933501025,114.18403972165527A170.6070045455344,170.6070045455344,0,0,0,130.02521295851815,110.45448834290079Z" fill-rule="evenodd" style="fill: #414552; stroke: #fff; opacity: 1;" id="p-type-ether"></path><path d="M146.37283478771351,131.84837214091317A197,197,0,0,1,142.94515526282171,135.55693485354334L123.79413580551444,117.39574924232072A170.6070045455344,170.6070045455344,0,0,0,126.7625933501025,114.18403972165527Z" fill-rule="evenodd" style="fill: #414552; stroke: #fff; opacity: 1;" id="p-type-ether"></path><path d="M142.94515526282171,135.55693485354334A197,197,0,0,1,140.69936777348275,137.88650372006043L121.84922678824563,119.41321506058983A170.6070045455344,170.6070045455344,0,0,0,123.79413580551444,117.39574924232072Z" fill-rule="evenodd" style="fill: #414552; stroke: #fff; opacity: 1;" id="p-type-ether"></path><path d="M140.69936777348275,137.88650372006043A197,197,0,0,1,138.51780311949852,140.07790053733618L119.95993637789707,121.311020374123A170.6070045455344,170.6070045455344,0,0,0,121.84922678824563,119.41321506058983Z" fill-rule="evenodd" style="fill: #414552; stroke: #fff; opacity: 1;" id="p-type-ether"></path><path d="M138.51780311949852,140.07790053733618A197,197,0,0,1,136.31731120757195,142.22021890412762L118.05425448134648,123.16632250275838A170.6070045455344,170.6070045455344,0,0,0,119.95993637789707,121.311020374123Z" fill-rule="evenodd" style="fill: #414552; stroke: #fff; opacity: 1;" id="p-type-ether"></path><path d="M136.31731120757195,142.22021890412762A197,197,0,0,1,134.13223967555638,144.28285511320843L116.16192702553481,124.95261785858798A170.6070045455344,170.6070045455344,0,0,0,118.05425448134648,123.16632250275838Z" fill-rule="evenodd" style="fill: #414552; stroke: #fff; opacity: 1;" id="p-type-ether"></path><path d="M134.13223967555638,144.28285511320843A197,197,0,0,1,132.13860468621422,146.11087964823292L114.435388478891,126.53573354466043A170.6070045455344,170.6070045455344,0,0,0,116.16192702553481,124.95261785858798Z" fill-rule="evenodd" style="fill: #414552; stroke: #fff; opacity: 1;" id="p-type-ether"></path><path d="M132.13860468621422,146.11087964823292A197,197,0,0,1,130.14111902078565,147.89282991415675L112.70551514893458,128.0789477432309A170.6070045455344,170.6070045455344,0,0,0,114.435388478891,126.53573354466043Z" fill-rule="evenodd" style="fill: #414552; stroke: #fff; opacity: 1;" id="p-type-ether"></path><path d="M130.14111902078565,147.89282991415675A197,197,0,0,1,128.18433572264507,149.59203212519114L111.01089110304375,129.55050002415337A170.6070045455344,170.6070045455344,0,0,0,112.70551514893458,128.0789477432309Z" fill-rule="evenodd" style="fill: #414552; stroke: #fff; opacity: 1;" id="p-type-ether"></path><path d="M128.18433572264507,149.59203212519114A197,197,0,0,1,126.22970453467524,151.24503857346394L109.31813083923251,130.9820456009771A170.6070045455344,170.6070045455344,0,0,0,111.01089110304375,129.55050002415337Z" fill-rule="evenodd" style="fill: #414552; stroke: #fff; opacity: 1;" id="p-type-ether"></path><path d="M126.22970453467524,151.24503857346394A197,197,0,0,1,124.61061464164908,152.58176404351352L107.91595786086123,132.13968381592574A170.6070045455344,170.6070045455344,0,0,0,109.31813083923251,130.9820456009771Z" fill-rule="evenodd" style="fill: #414552; stroke: #fff; opacity: 1;" id="p-type-ether"></path><path d="M124.61061464164908,152.58176404351352A197,197,0,0,1,123.10082357350738,153.80242922504252L106.60844044144366,133.196810872645A170.6070045455344,170.6070045455344,0,0,0,107.91595786086123,132.13968381592574Z" fill-rule="evenodd" style="fill: #414552; stroke: #fff; opacity: 1;" id="p-type-ether"></path><path d="M123.10082357350738,153.80242922504252A197,197,0,0,1,121.58635112213476,155.00244908002247L105.29686882522329,134.23605855210337A170.6070045455344,170.6070045455344,0,0,0,106.60844044144366,133.196810872645Z" fill-rule="evenodd" style="fill: #414552; stroke: #fff; opacity: 1;" id="p-type-ether"></path></g></svg>