<svg xmlns="http://www.w3.org/2000/svg" width="400" height="400" id="block-7824829"><g id="burst-container" transform="translate(200,200)"><circle r="197" style="fill: #f9f9f9; stroke: #f9f9f9; stroke-width: 3; opacity: 1;" id="circle-base"></circle><path display="none" d="M6.031385485800715e-15,-98.5A98.5,98.5,0,1,1,-6.031385485800715e-15,98.5A98.5,98.5,0,1,1,6.031385485800715e-15,-98.5Z" fill-rule="evenodd" id="p-type-root" style="stroke: #fff; opacity: 1;"></path><path d="M8.529667153919608e-15,-139.30003589374985A139.30003589374985,139.30003589374985,0,1,1,-127.75609495328047,-55.52369045991431L-90.3372010793771,-39.26117804070823A98.5,98.5,0,1,0,6.031385485800715e-15,-98.5Z" fill-rule="evenodd" style="fill: #0B1F65; stroke: #fff; opacity: 1;" id="p-type-data"></path><path d="M-127.75609495328047,-55.52369045991431A139.30003589374985,139.30003589374985,0,0,1,-1.6669891633454137,-139.29006119292677L-1.1787393415660314,-98.4929468214077A98.5,98.5,0,0,0,-90.3372010793771,-39.26117804070823Z" fill-rule="evenodd" style="fill: #D7A449; stroke: #fff; opacity: 1;" id="p-type-value"></path><path d="M1.0446666101440332e-14,-170.6070045455344A170.6070045455344,170.6070045455344,0,0,1,167.97705418444409,29.84056412865431L137.15269041590997,24.36471858400079A139.30003589374985,139.30003589374985,0,0,0,8.529667153919608e-15,-139.30003589374985Z" fill-rule="evenodd" style="fill: #414552; stroke: #fff; opacity: 1;" id="p-type-ether"></path><path d="M167.97705418444409,29.84056412865431A170.6070045455344,170.6070045455344,0,0,1,88.38066747609824,145.9301463594118L72.16251281434448,119.15146555674238A139.30003589374985,139.30003589374985,0,0,0,137.15269041590997,24.36471858400079Z" fill-rule="evenodd" style="fill: #DB3F29; stroke: #fff; opacity: 1;" id="p-type-functions"></path><path d="M88.38066747609824,145.9301463594118A170.6070045455344,170.6070045455344,0,0,1,-31.45705933234297,167.68185178534213L-25.68458139089865,136.91165866636157A139.30003589374985,139.30003589374985,0,0,0,72.16251281434448,119.15146555674238Z" fill-rule="evenodd" style="fill: #1DC690; stroke: #fff; opacity: 1;" id="p-type-logs"></path><path d="M-31.45705933234297,167.68185178534213A170.6070045455344,170.6070045455344,0,0,1,-116.8081183289578,124.34875750263124L-95.37342924019529,101.53033534350932A139.30003589374985,139.30003589374985,0,0,0,-25.68458139089865,136.91165866636157Z" fill-rule="evenodd" style="fill: #D7A449; stroke: #fff; opacity: 1;" id="p-type-tokenTransfers"></path><path d="M-156.46862208304714,-68.00235513151415A170.6070045455344,170.6070045455344,0,0,1,-53.20230717277642,-162.09955123779196L-43.43950190403858,-132.35372935557587A139.30003589374985,139.30003589374985,0,0,0,-127.75609495328047,-55.52369045991431Z" fill-rule="evenodd" style="fill: #414552; stroke: #fff; opacity: 1;" id="p-type-ether"></path><path d="M-53.20230717277642,-162.09955123779196A170.6070045455344,170.6070045455344,0,0,1,-4.082980470623281,-170.55814044036862L-3.333739594258586,-139.2601385189519A139.30003589374985,139.30003589374985,0,0,0,-43.43950190403858,-132.35372935557587Z" fill-rule="evenodd" style="fill: #D7A449; stroke: #fff; opacity: 1;" id="p-type-tokenTransfers"></path><path d="M1.206277097160143e-14,-197A197,197,0,0,1,24.68900960958661,-195.44680300403417L21.381309516180128,-169.26189648994634A170.6070045455344,170.6070045455344,0,0,0,1.0446666101440332e-14,-170.6070045455344Z" fill-rule="evenodd" style="fill: #414552; stroke: #fff; opacity: 1;" id="p-type-ether"></path><path d="M24.68900960958661,-195.44680300403417A197,197,0,0,1,40.95590685369337,-192.6956504277966L35.46885577032766,-166.87932846923758A170.6070045455344,170.6070045455344,0,0,0,21.381309516180128,-169.26189648994634Z" fill-rule="evenodd" style="fill: #414552; stroke: #fff; opacity: 1;" id="p-type-ether"></path><path d="M40.95590685369337,-192.6956504277966A197,197,0,0,1,54.99599907863831,-189.1677564632578L47.62793230860636,-163.8240826740892A170.6070045455344,170.6070045455344,0,0,0,35.46885577032766,-166.87932846923758Z" fill-rule="evenodd" style="fill: #414552; stroke: #fff; opacity: 1;" id="p-type-ether"></path><path d="M54.99599907863831,-189.1677564632578A197,197,0,0,1,68.42543466438912,-184.73483670111986L59.258164684353304,-159.98506154713965A170.6070045455344,170.6070045455344,0,0,0,47.62793230860636,-163.8240826740892Z" fill-rule="evenodd" style="fill: #414552; stroke: #fff; opacity: 1;" id="p-type-ether"></path><path d="M68.42543466438912,-184.73483670111986A197,197,0,0,1,81.50224270597556,-179.34989387757176L70.5830126487798,-155.3215642640203A170.6070045455344,170.6070045455344,0,0,0,59.258164684353304,-159.98506154713965Z" fill-rule="evenodd" style="fill: #414552; stroke: #fff; opacity: 1;" id="p-type-ether"></path><path d="M81.50224270597556,-179.34989387757176A197,197,0,0,1,92.07608760253144,-174.15795730259055L79.74023094487363,-150.825215295249A170.6070045455344,170.6070045455344,0,0,0,70.5830126487798,-155.3215642640203Z" fill-rule="evenodd" style="fill: #414552; stroke: #fff; opacity: 1;" id="p-type-ether"></path><path d="M92.07608760253144,-174.15795730259055A197,197,0,0,1,96.21766282717734,-171.9045123319211L83.32694030110122,-148.873674704619A170.6070045455344,170.6070045455344,0,0,0,79.74023094487363,-150.825215295249Z" fill-rule="evenodd" style="fill: #414552; stroke: #fff; opacity: 1;" id="p-type-ether"></path><path d="M96.21766282717734,-171.9045123319211A197,197,0,0,1,99.28779944385306,-170.14973664862728L85.98575660423121,-147.35399438494335A170.6070045455344,170.6070045455344,0,0,0,83.32694030110122,-148.873674704619Z" fill-rule="evenodd" style="fill: #414552; stroke: #fff; opacity: 1;" id="p-type-ether"></path><path d="M99.28779944385306,-170.14973664862728A197,197,0,0,1,102.28536825085372,-168.36479276198824L88.58172734068559,-145.8081876347842A170.6070045455344,170.6070045455344,0,0,0,85.98575660423121,-147.35399438494335Z" fill-rule="evenodd" style="fill: #414552; stroke: #fff; opacity: 1;" id="p-type-ether"></path><path d="M102.28536825085372,-168.36479276198824A197,197,0,0,1,104.51030580004466,-166.99280218494795L90.50857978011884,-144.62000894131444A170.6070045455344,170.6070045455344,0,0,0,88.58172734068559,-145.8081876347842Z" fill-rule="evenodd" style="fill: #414552; stroke: #fff; opacity: 1;" id="p-type-ether"></path><path d="M104.51030580004466,-166.99280218494795A197,197,0,0,1,106.51519504581164,-165.72119123501588L92.24486479872726,-143.5187615549428A170.6070045455344,170.6070045455344,0,0,0,90.50857978011884,-144.62000894131444Z" fill-rule="evenodd" style="fill: #414552; stroke: #fff; opacity: 1;" id="p-type-ether"></path><path d="M106.51519504581164,-165.72119123501588A197,197,0,0,1,108.48571301063065,-164.4379824510599L93.95138341487413,-142.40747014967758A170.6070045455344,170.6070045455344,0,0,0,92.24486479872726,-143.5187615549428Z" fill-rule="evenodd" style="fill: #414552; stroke: #fff; opacity: 1;" id="p-type-ether"></path><path d="M108.48571301063065,-164.4379824510599A197,197,0,0,1,110.31078576439664,-163.21927136230386L95.5319427833903,-141.35203538694105A170.6070045455344,170.6070045455344,0,0,0,93.95138341487413,-142.40747014967758Z" fill-rule="evenodd" style="fill: #414552; stroke: #fff; opacity: 1;" id="p-type-ether"></path><path d="M110.31078576439664,-163.21927136230386A197,197,0,0,1,111.91298901280899,-162.12489904459122L96.91949149854135,-140.40428115860345A170.6070045455344,170.6070045455344,0,0,0,95.5319427833903,-141.35203538694105Z" fill-rule="evenodd" style="fill: #414552; stroke: #fff; opacity: 1;" id="p-type-ether"></path><path d="M111.91298901280899,-162.12489904459122A197,197,0,0,1,113.50110845992769,-161.0170748037851L98.29484328399025,-139.44487722313715A170.6070045455344,170.6070045455344,0,0,0,96.91949149854135,-140.40428115860345Z" fill-rule="evenodd" style="fill: #414552; stroke: #fff; opacity: 1;" id="p-type-ether"></path><path d="M113.50110845992769,-161.0170748037851A197,197,0,0,1,115.03708437456663,-159.92332293508298L99.6250374456686,-138.49766031940442A170.6070045455344,170.6070045455344,0,0,0,98.29484328399025,-139.44487722313715Z" fill-rule="evenodd" style="fill: #414552; stroke: #fff; opacity: 1;" id="p-type-ether"></path><path d="M115.03708437456663,-159.92332293508298A197,197,0,0,1,116.25451681995858,-159.04052099687667L100.67936487076945,-137.7331314144076A170.6070045455344,170.6070045455344,0,0,0,99.6250374456686,-138.49766031940442Z" fill-rule="evenodd" style="fill: #414552; stroke: #fff; opacity: 1;" id="p-type-ether"></path><path d="M116.25451681995858,-159.04052099687667A197,197,0,0,1,117.30900615157378,-158.26432660498708L101.59257941996789,-137.0609273527562A170.6070045455344,170.6070045455344,0,0,0,100.67936487076945,-137.7331314144076Z" fill-rule="evenodd" style="fill: #414552; stroke: #fff; opacity: 1;" id="p-type-ether"></path><path d="M117.30900615157378,-158.26432660498708A197,197,0,0,1,118.30006641068131,-157.52490053076812L102.4508627810362,-136.420565588262A170.6070045455344,170.6070045455344,0,0,0,101.59257941996789,-137.0609273527562Z" fill-rule="evenodd" style="fill: #414552; stroke: #fff; opacity: 1;" id="p-type-ether"></path><path d="M118.30006641068131,-157.52490053076812A197,197,0,0,1,119.28090676995437,-156.7834981116873L103.30029544922371,-135.77849225891077A170.6070045455344,170.6070045455344,0,0,0,102.4508627810362,-136.420565588262Z" fill-rule="evenodd" style="fill: #414552; stroke: #fff; opacity: 1;" id="p-type-ether"></path><path d="M119.28090676995437,-156.7834981116873A197,197,0,0,1,120.21976858980803,-156.064753356461L104.11337363586026,-135.15604104204797A170.6070045455344,170.6070045455344,0,0,0,103.30029544922371,-135.77849225891077Z" fill-rule="evenodd" style="fill: #414552; stroke: #fff; opacity: 1;" id="p-type-ether"></path><path d="M120.21976858980803,-156.064753356461A197,197,0,0,1,121.15304788821247,-155.34136277050132L104.92161721710463,-134.52956641774836A170.6070045455344,170.6070045455344,0,0,0,104.11337363586026,-135.15604104204797Z" fill-rule="evenodd" style="fill: #414552; stroke: #fff; opacity: 1;" id="p-type-ether"></path><path d="M121.15304788821247,-155.34136277050132A197,197,0,0,1,122.08101094335515,-154.61315198600795L105.72525679663163,-133.8989173790673A170.6070045455344,170.6070045455344,0,0,0,104.92161721710463,-134.52956641774836Z" fill-rule="evenodd" style="fill: #414552; stroke: #fff; opacity: 1;" id="p-type-ether"></path><path d="M122.08101094335515,-154.61315198600795A197,197,0,0,1,123.0039483429576,-153.87991646749427L106.52454403079008,-133.2639167930774A170.6070045455344,170.6070045455344,0,0,0,105.72525679663163,-133.8989173790673Z" fill-rule="evenodd" style="fill: #414552; stroke: #fff; opacity: 1;" id="p-type-ether"></path><path d="M123.0039483429576,-153.87991646749427A197,197,0,0,1,123.92248193000042,-153.14117170868428L107.3200174513984,-132.62414506503535A170.6070045455344,170.6070045455344,0,0,0,106.52454403079008,-133.2639167930774Z" fill-rule="evenodd" style="fill: #414552; stroke: #fff; opacity: 1;" id="p-type-ether"></path><path d="M123.92248193000042,-153.14117170868428A197,197,0,0,1,124.81564374552487,-152.41409080655967L108.09351827333282,-131.99447453318894A170.6070045455344,170.6070045455344,0,0,0,107.3200174513984,-132.62414506503535Z" fill-rule="evenodd" style="fill: #414552; stroke: #fff; opacity: 1;" id="p-type-ether"></path><path d="M124.81564374552487,-152.41409080655967A197,197,0,0,1,125.63833329519372,-151.73664424523767L108.80598832277401,-131.40778860137766A170.6070045455344,170.6070045455344,0,0,0,108.09351827333282,-131.99447453318894Z" fill-rule="evenodd" style="fill: #414552; stroke: #fff; opacity: 1;" id="p-type-ether"></path><path d="M125.63833329519372,-151.73664424523767A197,197,0,0,1,126.45364460045386,-151.0578556953001L109.51206862512194,-130.81994047333373A170.6070045455344,170.6070045455344,0,0,0,108.80598832277401,-131.40778860137766Z" fill-rule="evenodd" style="fill: #414552; stroke: #fff; opacity: 1;" id="p-type-ether"></path><path d="M126.45364460045386,-151.0578556953001A197,197,0,0,1,127.25716323388951,-150.38156271851676L110.20793617409139,-130.23425357503837A170.6070045455344,170.6070045455344,0,0,0,109.51206862512194,-130.81994047333373Z" fill-rule="evenodd" style="fill: #414552; stroke: #fff; opacity: 1;" id="p-type-ether"></path><path d="M127.25716323388951,-150.38156271851676A197,197,0,0,1,128.0406350265329,-149.7150486157026L110.88644264966909,-129.65703543002073A170.6070045455344,170.6070045455344,0,0,0,110.20793617409139,-130.23425357503837Z" fill-rule="evenodd" style="fill: #414552; stroke: #fff; opacity: 1;" id="p-type-ether"></path><path d="M128.0406350265329,-149.7150486157026A197,197,0,0,1,128.79425344078533,-149.06723409465528L111.53909534117143,-129.09601159785328A170.6070045455344,170.6070045455344,0,0,0,110.88644264966909,-129.65703543002073Z" fill-rule="evenodd" style="fill: #414552; stroke: #fff; opacity: 1;" id="p-type-ether"></path><path d="M193.9631949021383,34.45691546489771A197,197,0,0,1,193.32259038412204,37.886357005826895L167.4222743980629,32.81054762389263A170.6070045455344,170.6070045455344,0,0,0,167.97705418444409,29.84056412865431Z" fill-rule="evenodd" style="fill: #DB3F29; stroke: #fff; opacity: 1;" id="p-type-functions"></path><path d="M193.32259038412204,37.886357005826895A197,197,0,0,1,193.0665099541221,39.17043188598857L167.20050224027094,33.922589090474105A170.6070045455344,170.6070045455344,0,0,0,167.4222743980629,32.81054762389263Z" fill-rule="evenodd" style="fill: #DB3F29; stroke: #fff; opacity: 1;" id="p-type-functions"></path><path d="M193.0665099541221,39.17043188598857A197,197,0,0,1,192.82867529404137,40.32495485856318L166.9945313827406,34.92243531397644A170.6070045455344,170.6070045455344,0,0,0,167.20050224027094,33.922589090474105Z" fill-rule="evenodd" style="fill: #DB3F29; stroke: #fff; opacity: 1;" id="p-type-functions"></path><path d="M192.82867529404137,40.32495485856318A197,197,0,0,1,192.58393673924857,41.478034066395914L166.78258157700455,35.921031200535225A170.6070045455344,170.6070045455344,0,0,0,166.9945313827406,34.92243531397644Z" fill-rule="evenodd" style="fill: #DB3F29; stroke: #fff; opacity: 1;" id="p-type-functions"></path><path d="M192.58393673924857,41.478034066395914A197,197,0,0,1,192.33230305218123,42.629628225495004L166.56466041155628,36.91834099716481A170.6070045455344,170.6070045455344,0,0,0,166.78258157700455,35.921031200535225Z" fill-rule="evenodd" style="fill: #DB3F29; stroke: #fff; opacity: 1;" id="p-type-functions"></path><path d="M192.33230305218123,42.629628225495004A197,197,0,0,1,192.073783242145,43.77969610503823L166.34077568868338,37.91432899692575A170.6070045455344,170.6070045455344,0,0,0,166.56466041155628,36.91834099716481Z" fill-rule="evenodd" style="fill: #DB3F29; stroke: #fff; opacity: 1;" id="p-type-functions"></path><path d="M192.073783242145,43.77969610503823A197,197,0,0,1,191.80838656499122,44.9281965288492L166.11093542418823,38.90895954020324A170.6070045455344,170.6070045455344,0,0,0,166.34077568868338,37.91432899692575Z" fill-rule="evenodd" style="fill: #DB3F29; stroke: #fff; opacity: 1;" id="p-type-functions"></path><path d="M191.80838656499122,44.9281965288492A197,197,0,0,1,191.53612252278546,46.0750883768715L165.87514784710098,39.90219701598384A170.6070045455344,170.6070045455344,0,0,0,166.11093542418823,38.90895954020324Z" fill-rule="evenodd" style="fill: #DB3F29; stroke: #fff; opacity: 1;" id="p-type-functions"></path><path d="M191.53612252278546,46.0750883768715A197,197,0,0,1,191.2570008634673,47.220330586641L165.633421399385,40.894005863130445A170.6070045455344,170.6070045455344,0,0,0,165.87514784710098,39.90219701598384Z" fill-rule="evenodd" style="fill: #DB3F29; stroke: #fff; opacity: 1;" id="p-type-functions"></path><path d="M191.2570008634673,47.220330586641A197,197,0,0,1,190.97103158050143,48.36388215475597L165.38576473563452,41.884350571655546A170.6070045455344,170.6070045455344,0,0,0,165.633421399385,40.894005863130445Z" fill-rule="evenodd" style="fill: #DB3F29; stroke: #fff; opacity: 1;" id="p-type-functions"></path><path d="M190.97103158050143,48.36388215475597A197,197,0,0,1,190.67822491251968,49.50570213834518L165.13218672276486,42.87319568399253A170.6070045455344,170.6070045455344,0,0,0,165.38576473563452,41.884350571655546Z" fill-rule="evenodd" style="fill: #DB3F29; stroke: #fff; opacity: 1;" id="p-type-functions"></path><path d="M190.67822491251968,49.50570213834518A197,197,0,0,1,190.3785913429546,50.64574965653375L164.8726964396949,43.86050579626524A170.6070045455344,170.6070045455344,0,0,0,165.13218672276486,42.87319568399253Z" fill-rule="evenodd" style="fill: #DB3F29; stroke: #fff; opacity: 1;" id="p-type-functions"></path><path d="M190.3785913429546,50.64574965653375A197,197,0,0,1,190.07214159966404,51.78398389190684L164.60730317702203,44.846245559555484A170.6070045455344,170.6070045455344,0,0,0,164.8726964396949,43.86050579626524Z" fill-rule="evenodd" style="fill: #DB3F29; stroke: #fff; opacity: 1;" id="p-type-functions"></path><path d="M190.07214159966404,51.78398389190684A197,197,0,0,1,189.758886654547,52.92036409197105L164.3360164366896,45.830379681168736A170.6070045455344,170.6070045455344,0,0,0,164.60730317702203,44.846245559555484Z" fill-rule="evenodd" style="fill: #DB3F29; stroke: #fff; opacity: 1;" id="p-type-functions"></path><path d="M189.758886654547,52.92036409197105A197,197,0,0,1,189.438837723151,54.05484957061346L164.0588459316466,46.812872925897615A170.6070045455344,170.6070045455344,0,0,0,164.3360164366896,45.830379681168736Z" fill-rule="evenodd" style="fill: #DB3F29; stroke: #fff; opacity: 1;" id="p-type-functions"></path><path d="M189.438837723151,54.05484957061346A197,197,0,0,1,189.11200626427035,55.18739970955839L163.77580158550003,47.79369011728352A170.6070045455344,170.6070045455344,0,0,0,164.0588459316466,46.812872925897615Z" fill-rule="evenodd" style="fill: #DB3F29; stroke: #fff; opacity: 1;" id="p-type-functions"></path><path d="M189.11200626427035,55.18739970955839A197,197,0,0,1,188.7784039795359,56.317973959821586L163.48689353215946,48.77279613887599A170.6070045455344,170.6070045455344,0,0,0,163.77580158550003,47.79369011728352Z" fill-rule="evenodd" style="fill: #DB3F29; stroke: #fff; opacity: 1;" id="p-type-functions"></path><path d="M188.7784039795359,56.317973959821586A197,197,0,0,1,188.43804281299614,57.44653184316206L163.19213211547432,49.750155935490035A170.6070045455344,170.6070045455344,0,0,0,163.48689353215946,48.77279613887599Z" fill-rule="evenodd" style="fill: #DB3F29; stroke: #fff; opacity: 1;" id="p-type-functions"></path><path d="M188.43804281299614,57.44653184316206A197,197,0,0,1,188.09093495068956,58.573032953531325L162.89152788886352,50.725734514461195A170.6070045455344,170.6070045455344,0,0,0,163.19213211547432,49.750155935490035Z" fill-rule="evenodd" style="fill: #DB3F29; stroke: #fff; opacity: 1;" id="p-type-functions"></path><path d="M188.09093495068956,58.573032953531325A197,197,0,0,1,187.73709282020835,59.69743695852007L162.58509161493757,51.699496946898414A170.6070045455344,170.6070045455344,0,0,0,162.89152788886352,50.725734514461195Z" fill-rule="evenodd" style="fill: #DB3F29; stroke: #fff; opacity: 1;" id="p-type-functions"></path><path d="M187.73709282020835,59.69743695852007A197,197,0,0,1,187.37652909025337,60.8197036008022L162.2728342651133,52.6714083689346A170.6070045455344,170.6070045455344,0,0,0,162.58509161493757,51.699496946898414Z" fill-rule="evenodd" style="fill: #DB3F29; stroke: #fff; opacity: 1;" id="p-type-functions"></path><path d="M187.37652909025337,60.8197036008022A197,197,0,0,1,187.00925667018072,61.939792699576145L161.95476701922098,53.64143398297486A170.6070045455344,170.6070045455344,0,0,0,162.2728342651133,52.6714083689346Z" fill-rule="evenodd" style="fill: #DB3F29; stroke: #fff; opacity: 1;" id="p-type-functions"></path><path d="M187.00925667018072,61.939792699576145A197,197,0,0,1,186.63528870953942,63.05766415200349L161.63090126510414,54.609539058942346A170.6070045455344,170.6070045455344,0,0,0,161.95476701922098,53.64143398297486Z" fill-rule="evenodd" style="fill: #DB3F29; stroke: #fff; opacity: 1;" id="p-type-functions"></path><path d="M186.63528870953942,63.05766415200349A197,197,0,0,1,186.25463859760066,64.17327793464479L161.3012485982118,55.57568893552176A170.6070045455344,170.6070045455344,0,0,0,161.63090126510414,54.609539058942346Z" fill-rule="evenodd" style="fill: #DB3F29; stroke: #fff; opacity: 1;" id="p-type-functions"></path><path d="M186.25463859760066,64.17327793464479A197,197,0,0,1,185.86731996287838,65.28659410489253L160.9658208211832,56.53984902140031A170.6070045455344,170.6070045455344,0,0,0,161.3012485982118,55.57568893552176Z" fill-rule="evenodd" style="fill: #DB3F29; stroke: #fff; opacity: 1;" id="p-type-functions"></path><path d="M185.86731996287838,65.28659410489253A197,197,0,0,1,185.47334667264144,66.39757280240123L160.62462994342548,57.501984796506186A170.6070045455344,170.6070045455344,0,0,0,160.9658208211832,56.53984902140031Z" fill-rule="evenodd" style="fill: #DB3F29; stroke: #fff; opacity: 1;" id="p-type-functions"></path><path d="M185.47334667264144,66.39757280240123A197,197,0,0,1,185.07273283241693,67.50617425051449L160.2776881806834,58.46206181324448A170.6070045455344,170.6070045455344,0,0,0,160.62462994342548,57.501984796506186Z" fill-rule="evenodd" style="fill: #DB3F29; stroke: #fff; opacity: 1;" id="p-type-functions"></path><path d="M185.07273283241693,67.50617425051449A197,197,0,0,1,184.66549278548538,68.61235875768922L159.9250079546023,59.42004569773057A170.6070045455344,170.6070045455344,0,0,0,160.2776881806834,58.46206181324448Z" fill-rule="evenodd" style="fill: #DB3F29; stroke: #fff; opacity: 1;" id="p-type-functions"></path><path d="M184.66549278548538,68.61235875768922A197,197,0,0,1,184.251641112367,69.71608671891669L159.5666018922831,60.37590215102077A170.6070045455344,170.6070045455344,0,0,0,159.9250079546023,59.42004569773057Z" fill-rule="evenodd" style="fill: #DB3F29; stroke: #fff; opacity: 1;" id="p-type-functions"></path><path d="M184.251641112367,69.71608671891669A197,197,0,0,1,183.83119263029982,70.81731861714053L159.20248282583034,61.32959695034037A170.6070045455344,170.6070045455344,0,0,0,159.5666018922831,60.37590215102077Z" fill-rule="evenodd" style="fill: #DB3F29; stroke: #fff; opacity: 1;" id="p-type-functions"></path><path d="M183.83119263029982,70.81731861714053A197,197,0,0,1,183.40416239270914,71.9160150246715L158.83266379189268,62.28109595030888A170.6070045455344,170.6070045455344,0,0,0,159.20248282583034,61.32959695034037Z" fill-rule="evenodd" style="fill: #DB3F29; stroke: #fff; opacity: 1;" id="p-type-functions"></path><path d="M183.40416239270914,71.9160150246715A197,197,0,0,1,182.97056568866847,73.01213660459923L158.45715803119626,63.23036508416264A170.6070045455344,170.6070045455344,0,0,0,158.83266379189268,62.28109595030888Z" fill-rule="evenodd" style="fill: #DB3F29; stroke: #fff; opacity: 1;" id="p-type-functions"></path><path d="M182.97056568866847,73.01213660459923A197,197,0,0,1,182.53041804235224,74.1056441122006L158.0759789880705,64.17737036497442A170.6070045455344,170.6070045455344,0,0,0,158.45715803119626,63.23036508416264Z" fill-rule="evenodd" style="fill: #DB3F29; stroke: #fff; opacity: 1;" id="p-type-functions"></path><path d="M182.53041804235224,74.1056441122006A197,197,0,0,1,182.08373521247998,75.19649839634471L157.6891403099668,65.12207788687031A170.6070045455344,170.6070045455344,0,0,0,158.0759789880705,64.17737036497442Z" fill-rule="evenodd" style="fill: #DB3F29; stroke: #fff; opacity: 1;" id="p-type-functions"></path><path d="M182.08373521247998,75.19649839634471A197,197,0,0,1,181.6305331917521,76.28466040089475L157.29665584697,66.06445382624365A170.6070045455344,170.6070045455344,0,0,0,157.6891403099668,65.12207788687031Z" fill-rule="evenodd" style="fill: #DB3F29; stroke: #fff; opacity: 1;" id="p-type-functions"></path><path d="M181.6305331917521,76.28466040089475A197,197,0,0,1,181.17082820627718,77.3700911661063L156.89853965130237,67.00446444296604A170.6070045455344,170.6070045455344,0,0,0,157.29665584697,66.06445382624365Z" fill-rule="evenodd" style="fill: #DB3F29; stroke: #fff; opacity: 1;" id="p-type-functions"></path><path d="M181.17082820627718,77.3700911661063A197,197,0,0,1,180.7046367149912,78.4527518300222L156.49480597682054,67.94207608159533A170.6070045455344,170.6070045455344,0,0,0,156.89853965130237,67.00446444296604Z" fill-rule="evenodd" style="fill: #DB3F29; stroke: #fff; opacity: 1;" id="p-type-functions"></path><path d="M180.7046367149912,78.4527518300222A197,197,0,0,1,180.23197540906818,79.5326036298639L156.0854692785053,68.87725517258059A170.6070045455344,170.6070045455344,0,0,0,156.49480597682054,67.94207608159533Z" fill-rule="evenodd" style="fill: #DB3F29; stroke: #fff; opacity: 1;" id="p-type-functions"></path><path d="M180.23197540906818,79.5326036298639A197,197,0,0,1,179.75286121132254,80.60960790341939L155.67054421194376,69.80996823346405A170.6070045455344,170.6070045455344,0,0,0,156.0854692785053,68.87725517258059Z" fill-rule="evenodd" style="fill: #DB3F29; stroke: #fff; opacity: 1;" id="p-type-functions"></path><path d="M179.75286121132254,80.60960790341939A197,197,0,0,1,179.26731127560328,81.68372609042734L155.25004563280498,70.74018187007982A170.6070045455344,170.6070045455344,0,0,0,155.67054421194376,69.80996823346405Z" fill-rule="evenodd" style="fill: #DB3F29; stroke: #fff; opacity: 1;" id="p-type-functions"></path><path d="M179.26731127560328,81.68372609042734A197,197,0,0,1,178.77534298617977,82.75491973395773L154.82398859630783,71.66786277774956A170.6070045455344,170.6070045455344,0,0,0,155.25004563280498,70.74018187007982Z" fill-rule="evenodd" style="fill: #DB3F29; stroke: #fff; opacity: 1;" id="p-type-functions"></path><path d="M178.77534298617977,82.75491973395773A197,197,0,0,1,178.2769739571193,83.82315048178874L154.3923883566821,72.59297774247486A170.6070045455344,170.6070045455344,0,0,0,154.82398859630783,71.66786277774956Z" fill-rule="evenodd" style="fill: #DB3F29; stroke: #fff; opacity: 1;" id="p-type-functions"></path><path d="M178.2769739571193,83.82315048178874A197,197,0,0,1,177.77222203165664,84.88838008777984L153.9552603666223,73.51549364212643A170.6070045455344,170.6070045455344,0,0,0,154.3923883566821,72.59297774247486Z" fill-rule="evenodd" style="fill: #DB3F29; stroke: #fff; opacity: 1;" id="p-type-functions"></path><path d="M177.77222203165664,84.88838008777984A197,197,0,0,1,177.26110528155485,85.95057041324117L153.51262027673442,74.43537744763A170.6070045455344,170.6070045455344,0,0,0,153.9552603666223,73.51549364212643Z" fill-rule="evenodd" style="fill: #DB3F29; stroke: #fff; opacity: 1;" id="p-type-functions"></path><path d="M177.26110528155485,85.95057041324117A197,197,0,0,1,176.7436420064586,87.00968342829898L153.06448393497556,75.35259622414881A170.6070045455344,170.6070045455344,0,0,0,153.51262027673442,74.43537744763Z" fill-rule="evenodd" style="fill: #DB3F29; stroke: #fff; opacity: 1;" id="p-type-functions"></path><path d="M176.7436420064586,87.00968342829898A197,197,0,0,1,176.21985073323873,88.06568121325734L152.61086738608657,76.26711713226284A170.6070045455344,170.6070045455344,0,0,0,153.06448393497556,75.35259622414881Z" fill-rule="evenodd" style="fill: #DB3F29; stroke: #fff; opacity: 1;" id="p-type-functions"></path><path d="M176.21985073323873,88.06568121325734A197,197,0,0,1,175.68975021532907,89.1185259599556L152.15178687101752,77.17890742914453A170.6070045455344,170.6070045455344,0,0,0,152.61086738608657,76.26711713226284Z" fill-rule="evenodd" style="fill: #DB3F29; stroke: #fff; opacity: 1;" id="p-type-functions"></path><path d="M175.68975021532907,89.1185259599556A197,197,0,0,1,175.15335943205497,90.16817997312225L151.68725882634632,78.08793446973114A170.6070045455344,170.6070045455344,0,0,0,152.15178687101752,77.17890742914453Z" fill-rule="evenodd" style="fill: #DB3F29; stroke: #fff; opacity: 1;" id="p-type-functions"></path><path d="M175.15335943205497,90.16817997312225A197,197,0,0,1,174.61069758795372,91.21460567172436L151.21729988369012,78.99416570789343A170.6070045455344,170.6070045455344,0,0,0,151.68725882634632,78.08793446973114Z" fill-rule="evenodd" style="fill: #DB3F29; stroke: #fff; opacity: 1;" id="p-type-functions"></path><path d="M174.61069758795372,91.21460567172436A197,197,0,0,1,174.0617841120871,92.25776559031318L150.74192686911005,79.89756869760107A170.6070045455344,170.6070045455344,0,0,0,151.21729988369012,78.99416570789343Z" fill-rule="evenodd" style="fill: #DB3F29; stroke: #fff; opacity: 1;" id="p-type-functions"></path><path d="M174.0617841120871,92.25776559031318A197,197,0,0,1,173.50663865734563,93.2976223803656L150.26115680250842,80.79811109408419A170.6070045455344,170.6070045455344,0,0,0,150.74192686911005,79.89756869760107Z" fill-rule="evenodd" style="fill: #DB3F29; stroke: #fff; opacity: 1;" id="p-type-functions"></path><path d="M173.50663865734563,93.2976223803656A197,197,0,0,1,172.94528109974493,94.33413881162117L149.77500689701984,81.6957606549915A170.6070045455344,170.6070045455344,0,0,0,150.26115680250842,80.79811109408419Z" fill-rule="evenodd" style="fill: #DB3F29; stroke: #fff; opacity: 1;" id="p-type-functions"></path><path d="M172.94528109974493,94.33413881162117A197,197,0,0,1,172.37773153771417,95.36727777341524L149.28349455839447,82.59048524154466A170.6070045455344,170.6070045455344,0,0,0,149.77500689701984,81.6957606549915Z" fill-rule="evenodd" style="fill: #DB3F29; stroke: #fff; opacity: 1;" id="p-type-functions"></path><path d="M172.37773153771417,95.36727777341524A197,197,0,0,1,171.80401029137647,96.39700227600756L148.78663738437515,83.48225281968888A170.6070045455344,170.6070045455344,0,0,0,149.28349455839447,82.59048524154466Z" fill-rule="evenodd" style="fill: #DB3F29; stroke: #fff; opacity: 1;" id="p-type-functions"></path><path d="M171.80401029137647,96.39700227600756A197,197,0,0,1,171.22413790182136,97.42327545190656L148.28445316406723,84.37103146123997A170.6070045455344,170.6070045455344,0,0,0,148.78663738437515,83.48225281968888Z" fill-rule="evenodd" style="fill: #DB3F29; stroke: #fff; opacity: 1;" id="p-type-functions"></path><path d="M171.22413790182136,97.42327545190656A197,197,0,0,1,170.63813513036928,98.44606055718954L147.77695987730166,85.25678934502737A170.6070045455344,170.6070045455344,0,0,0,148.28445316406723,84.37103146123997Z" fill-rule="evenodd" style="fill: #DB3F29; stroke: #fff; opacity: 1;" id="p-type-functions"></path><path d="M170.63813513036928,98.44606055718954A197,197,0,0,1,170.04602295782837,99.465320972818L147.26417569399123,86.1394947580335A170.6070045455344,170.6070045455344,0,0,0,147.77695987730166,85.25678934502737Z" fill-rule="evenodd" style="fill: #DB3F29; stroke: #fff; opacity: 1;" id="p-type-functions"></path><path d="M170.04602295782837,99.465320972818A197,197,0,0,1,169.44782258374318,100.48102020594885L146.7461189734801,87.01911609652919A170.6070045455344,170.6070045455344,0,0,0,147.26417569399123,86.1394947580335Z" fill-rule="evenodd" style="fill: #DB3F29; stroke: #fff; opacity: 1;" id="p-type-functions"></path><path d="M169.44782258374318,100.48102020594885A197,197,0,0,1,168.8435554256357,101.49312189124088L146.2228082638864,87.89562186720514A170.6070045455344,170.6070045455344,0,0,0,146.7461189734801,87.01911609652919Z" fill-rule="evenodd" style="fill: #DB3F29; stroke: #fff; opacity: 1;" id="p-type-functions"></path><path d="M168.8435554256357,101.49312189124088A197,197,0,0,1,168.23324311823868,102.50158979215689L145.69426230143827,88.76898068829956A170.6070045455344,170.6070045455344,0,0,0,146.2228082638864,87.89562186720514Z" fill-rule="evenodd" style="fill: #DB3F29; stroke: #fff; opacity: 1;" id="p-type-functions"></path><path d="M168.23324311823868,102.50158979215689A197,197,0,0,1,167.6169075127207,103.50638780226093L145.16050000980286,89.63916129072172A170.6070045455344,170.6070045455344,0,0,0,145.69426230143827,88.76898068829956Z" fill-rule="evenodd" style="fill: #DB3F29; stroke: #fff; opacity: 1;" id="p-type-functions"></path><path d="M167.6169075127207,103.50638780226093A197,197,0,0,1,166.9945706759042,104.50747994651113L144.62154049940892,90.50613251917143A170.6070045455344,170.6070045455344,0,0,0,145.16050000980286,89.63916129072172Z" fill-rule="evenodd" style="fill: #DB3F29; stroke: #fff; opacity: 1;" id="p-type-functions"></path><path d="M166.9945706759042,104.50747994651113A197,197,0,0,1,166.36625488947524,105.50483038254771L144.07740306676263,91.36986333325459A170.6070045455344,170.6070045455344,0,0,0,144.62154049940892,90.50613251917143Z" fill-rule="evenodd" style="fill: #DB3F29; stroke: #fff; opacity: 1;" id="p-type-functions"></path><path d="M166.36625488947524,105.50483038254771A197,197,0,0,1,165.7319826491856,106.49840340197616L143.52810719375654,92.23032280859444A170.6070045455344,170.6070045455344,0,0,0,144.07740306676263,91.36986333325459Z" fill-rule="evenodd" style="fill: #DB3F29; stroke: #fff; opacity: 1;" id="p-type-functions"></path><path d="M165.7319826491856,106.49840340197616A197,197,0,0,1,165.09177666404764,107.48816343164589L142.9736725469722,93.08748013793887A170.6070045455344,170.6070045455344,0,0,0,143.52810719375654,92.23032280859444Z" fill-rule="evenodd" style="fill: #DB3F29; stroke: #fff; opacity: 1;" id="p-type-functions"></path><path d="M165.09177666404764,107.48816343164589A197,197,0,0,1,164.44565985552111,108.47407503492366L142.41411897697614,93.94130463226325A170.6070045455344,170.6070045455344,0,0,0,142.9736725469722,93.08748013793887Z" fill-rule="evenodd" style="fill: #DB3F29; stroke: #fff; opacity: 1;" id="p-type-functions"></path><path d="M102.05320431696825,168.50561856697578A197,197,0,0,1,101.04311466925465,169.1132430590102L87.50590418107859,146.45636460547522A170.6070045455344,170.6070045455344,0,0,0,88.38066747609824,145.9301463594118Z" fill-rule="evenodd" style="fill: #1DC690; stroke: #fff; opacity: 1;" id="p-type-logs"></path><path d="M101.04311466925465,169.1132430590102A197,197,0,0,1,100.02940734888946,169.7148127460592L86.62800788964009,146.97733923660633A170.6070045455344,170.6070045455344,0,0,0,87.50590418107859,146.45636460547522Z" fill-rule="evenodd" style="fill: #1DC690; stroke: #fff; opacity: 1;" id="p-type-logs"></path><path d="M100.02940734888946,169.7148127460592A197,197,0,0,1,99.01211864989686,170.31030608996846L85.74701003332969,147.49305160021626A170.6070045455344,170.6070045455344,0,0,0,86.62800788964009,146.97733923660633Z" fill-rule="evenodd" style="fill: #1DC690; stroke: #fff; opacity: 1;" id="p-type-logs"></path><path d="M99.01211864989686,170.31030608996846A197,197,0,0,1,97.99128499452613,170.89970177013637L84.8629421547405,148.0034832321225A170.6070045455344,170.6070045455344,0,0,0,85.74701003332969,147.49305160021626Z" fill-rule="evenodd" style="fill: #1DC690; stroke: #fff; opacity: 1;" id="p-type-logs"></path><path d="M97.99128499452613,170.89970177013637A197,197,0,0,1,96.96694293194741,171.48297868427773L83.97583590638237,148.50861585720992A170.6070045455344,170.6070045455344,0,0,0,84.8629421547405,148.0034832321225Z" fill-rule="evenodd" style="fill: #1DC690; stroke: #fff; opacity: 1;" id="p-type-logs"></path><path d="M96.96694293194741,171.48297868427773A197,197,0,0,1,95.9391291369434,172.06011594917894L83.0857230495488,149.008431390085A170.6070045455344,170.6070045455344,0,0,0,83.97583590638237,148.50861585720992Z" fill-rule="evenodd" style="fill: #1DC690; stroke: #fff; opacity: 1;" id="p-type-logs"></path><path d="M95.9391291369434,172.06011594917894A197,197,0,0,1,94.90788040859597,172.6310929014459L82.19263545317953,149.50291193572363A170.6070045455344,170.6070045455344,0,0,0,83.0857230495488,149.008431390085Z" fill-rule="evenodd" style="fill: #1DC690; stroke: #fff; opacity: 1;" id="p-type-logs"></path><path d="M94.90788040859597,172.6310929014459A197,197,0,0,1,93.87323366896892,173.19588909824378L81.29660509271977,149.99203979011142A170.6070045455344,170.6070045455344,0,0,0,82.19263545317953,149.50291193572363Z" fill-rule="evenodd" style="fill: #1DC690; stroke: #fff; opacity: 1;" id="p-type-logs"></path><path d="M93.87323366896892,173.19588909824378A197,197,0,0,1,92.83522596178587,173.75448431802891L80.3976640489752,150.4757974408779A170.6070045455344,170.6070045455344,0,0,0,81.29660509271977,149.99203979011142Z" fill-rule="evenodd" style="fill: #1DC690; stroke: #fff; opacity: 1;" id="p-type-logs"></path><path d="M92.83522596178587,173.75448431802891A197,197,0,0,1,91.79389445110402,174.30685856127283L79.4958445069635,150.95416756792335A170.6070045455344,170.6070045455344,0,0,0,80.3976640489752,150.4757974408779Z" fill-rule="evenodd" style="fill: #1DC690; stroke: #fff; opacity: 1;" id="p-type-logs"></path><path d="M91.79389445110402,174.30685856127283A197,197,0,0,1,90.74927641998357,174.85299205117826L78.59117875476191,151.4271330440389A170.6070045455344,170.6070045455344,0,0,0,79.4958445069635,150.95416756792335Z" fill-rule="evenodd" style="fill: #1DC690; stroke: #fff; opacity: 1;" id="p-type-logs"></path><path d="M90.74927641998357,174.85299205117826A197,197,0,0,1,89.70140926915289,175.39286523438727L77.68369918235132,151.89467693551984A170.6070045455344,170.6070045455344,0,0,0,78.59117875476191,151.4271330440389Z" fill-rule="evenodd" style="fill: #1DC690; stroke: #fff; opacity: 1;" id="p-type-logs"></path><path d="M89.70140926915289,175.39286523438727A197,197,0,0,1,88.65033051566937,175.92645878168122L76.7734382804565,152.35678250277186A170.6070045455344,170.6070045455344,0,0,0,77.68369918235132,151.89467693551984Z" fill-rule="evenodd" style="fill: #1DC690; stroke: #fff; opacity: 1;" id="p-type-logs"></path><path d="M88.65033051566937,175.92645878168122A197,197,0,0,1,87.59607779157625,176.45375358867298L75.86042863938292,152.81343320091034A170.6070045455344,170.6070045455344,0,0,0,76.7734382804565,152.35678250277186Z" fill-rule="evenodd" style="fill: #1DC690; stroke: #fff; opacity: 1;" id="p-type-logs"></path><path d="M87.59607779157625,176.45375358867298A197,197,0,0,1,86.53868884255527,176.9747307764908L74.94470294784983,153.26461268035274A170.6070045455344,170.6070045455344,0,0,0,75.86042863938292,152.81343320091034Z" fill-rule="evenodd" style="fill: #1DC690; stroke: #fff; opacity: 1;" id="p-type-logs"></path><path d="M86.53868884255527,176.9747307764908A197,197,0,0,1,85.47820152657525,177.48937169245428L74.02629399181995,153.71030478740403A170.6070045455344,170.6070045455344,0,0,0,74.94470294784983,153.26461268035274Z" fill-rule="evenodd" style="fill: #1DC690; stroke: #fff; opacity: 1;" id="p-type-logs"></path><path d="M85.47820152657525,177.48937169245428A197,197,0,0,1,84.41465381253661,177.99765791074216L73.10523465332562,154.15049356483487A170.6070045455344,170.6070045455344,0,0,0,74.02629399181995,153.71030478740403Z" fill-rule="evenodd" style="fill: #1DC690; stroke: #fff; opacity: 1;" id="p-type-logs"></path><path d="M84.41465381253661,177.99765791074216A197,197,0,0,1,83.34808377891201,178.49957123305217L72.1815579092915,154.58516325245319A170.6070045455344,170.6070045455344,0,0,0,73.10523465332562,154.15049356483487Z" fill-rule="evenodd" style="fill: #1DC690; stroke: #fff; opacity: 1;" id="p-type-logs"></path><path d="M83.34808377891201,178.49957123305217A197,197,0,0,1,82.278529612383,178.99509368925231L71.25529683035387,155.01429828766817A170.6070045455344,170.6070045455344,0,0,0,72.1815579092915,154.58516325245319Z" fill-rule="evenodd" style="fill: #1DC690; stroke: #fff; opacity: 1;" id="p-type-logs"></path><path d="M82.278529612383,178.99509368925231A197,197,0,0,1,81.20602960647275,179.48420753802455L70.32648457967665,155.4378833060477A170.6070045455344,170.6070045455344,0,0,0,71.25529683035387,155.01429828766817Z" fill-rule="evenodd" style="fill: #1DC690; stroke: #fff; opacity: 1;" id="p-type-logs"></path><path d="M81.20602960647275,179.48420753802455A197,197,0,0,1,80.13062216017518,179.9668952674998L69.395154411764,155.85590314186828A170.6070045455344,170.6070045455344,0,0,0,70.32648457967665,155.4378833060477Z" fill-rule="evenodd" style="fill: #1DC690; stroke: #fff; opacity: 1;" id="p-type-logs"></path><path d="M80.13062216017518,179.9668952674998A197,197,0,0,1,79.05234577657997,180.443139595885L68.46133967126973,156.26834282865812A170.6070045455344,170.6070045455344,0,0,0,69.395154411764,155.85590314186828Z" fill-rule="evenodd" style="fill: #1DC690; stroke: #fff; opacity: 1;" id="p-type-logs"></path><path d="M79.05234577657997,180.443139595885A197,197,0,0,1,77.97123906149412,180.91292347208184L67.52507379180344,156.6751875997329A170.6070045455344,170.6070045455344,0,0,0,68.46133967126973,156.26834282865812Z" fill-rule="evenodd" style="fill: #1DC690; stroke: #fff; opacity: 1;" id="p-type-logs"></path><path d="M77.97123906149412,180.91292347208184A197,197,0,0,1,76.88734072205972,181.3762300762972L66.58639029473348,157.07642288872452A170.6070045455344,170.6070045455344,0,0,0,67.52507379180344,156.6751875997329Z" fill-rule="evenodd" style="fill: #1DC690; stroke: #fff; opacity: 1;" id="p-type-logs"></path><path d="M76.88734072205972,181.3762300762972A197,197,0,0,1,75.80068956536812,181.8330428206455L65.6453227879868,157.47203433010262A170.6070045455344,170.6070045455344,0,0,0,66.58639029473348,157.07642288872452Z" fill-rule="evenodd" style="fill: #1DC690; stroke: #fff; opacity: 1;" id="p-type-logs"></path><path d="M75.80068956536812,181.8330428206455A197,197,0,0,1,74.71132449707044,182.28334534974238L64.70190496484565,157.8620077596889A170.6070045455344,170.6070045455344,0,0,0,65.6453227879868,157.47203433010262Z" fill-rule="evenodd" style="fill: #1DC690; stroke: #fff; opacity: 1;" id="p-type-logs"></path><path d="M74.71132449707044,182.28334534974238A197,197,0,0,1,73.61928451998475,182.72712154129044L63.756170602741264,158.24632921516425A170.6070045455344,170.6070045455344,0,0,0,64.70190496484565,157.8620077596889Z" fill-rule="evenodd" style="fill: #1DC690; stroke: #fff; opacity: 1;" id="p-type-logs"></path><path d="M73.61928451998475,182.72712154129044A197,197,0,0,1,72.52460873269952,183.16435550665648L62.80815356204453,158.62498493656864A170.6070045455344,170.6070045455344,0,0,0,63.756170602741264,158.24632921516425Z" fill-rule="evenodd" style="fill: #1DC690; stroke: #fff; opacity: 1;" id="p-type-logs"></path><path d="M72.52460873269952,183.16435550665648A197,197,0,0,1,71.42733632817384,183.59503159144023L61.85788778485365,158.9979613667938A170.6070045455344,170.6070045455344,0,0,0,62.80815356204453,158.62498493656864Z" fill-rule="evenodd" style="fill: #1DC690; stroke: #fff; opacity: 1;" id="p-type-logs"></path><path d="M71.42733632817384,183.59503159144023A197,197,0,0,1,70.32750659233412,184.01913437603494L60.90540729377893,159.36524515206852A170.6070045455344,170.6070045455344,0,0,0,61.85788778485365,158.9979613667938Z" fill-rule="evenodd" style="fill: #1DC690; stroke: #fff; opacity: 1;" id="p-type-logs"></path><path d="M70.32750659233412,184.01913437603494A197,197,0,0,1,69.2251589026676,184.43664867617937L59.95074619072463,159.7268231424369A170.6070045455344,170.6070045455344,0,0,0,60.90540729377893,159.36524515206852Z" fill-rule="evenodd" style="fill: #1DC690; stroke: #fff; opacity: 1;" id="p-type-logs"></path><path d="M69.2251589026676,184.43664867617937A197,197,0,0,1,68.12033272681244,184.84755954350157L58.99393865566805,160.08268239222903A170.6070045455344,170.6070045455344,0,0,0,59.95074619072463,159.7268231424369Z" fill-rule="evenodd" style="fill: #1DC690; stroke: #fff; opacity: 1;" id="p-type-logs"></path><path d="M68.12033272681244,184.84755954350157A197,197,0,0,1,67.01306762114469,185.251852266054L58.035018945435716,160.43281016052458A170.6070045455344,170.6070045455344,0,0,0,58.99393865566805,160.08268239222903Z" fill-rule="evenodd" style="fill: #1DC690; stroke: #fff; opacity: 1;" id="p-type-logs"></path><path d="M67.01306762114469,185.251852266054A197,197,0,0,1,65.90340322936204,185.6495123688401L57.074021392476936,160.7771939116089A170.6070045455344,170.6070045455344,0,0,0,58.035018945435716,160.43281016052458Z" fill-rule="evenodd" style="fill: #1DC690; stroke: #fff; opacity: 1;" id="p-type-logs"></path><path d="M65.90340322936204,185.6495123688401A197,197,0,0,1,64.79137928106442,186.0405256143329L56.11098040363453,161.11582131542184A170.6070045455344,170.6070045455344,0,0,0,57.074021392476936,160.7771939116089Z" fill-rule="evenodd" style="fill: #1DC690; stroke: #fff; opacity: 1;" id="p-type-logs"></path><path d="M64.79137928106442,186.0405256143329A197,197,0,0,1,63.67703559033159,186.42487800298446L55.145930458912986,161.44868024799933A170.6070045455344,170.6070045455344,0,0,0,56.11098040363453,161.11582131542184Z" fill-rule="evenodd" style="fill: #1DC690; stroke: #fff; opacity: 1;" id="p-type-logs"></path><path d="M63.67703559033159,186.42487800298446A197,197,0,0,1,62.56041205429764,186.80255577372728L54.17890611024398,161.7757587919073A170.6070045455344,170.6070045455344,0,0,0,55.145930458912986,161.44868024799933Z" fill-rule="evenodd" style="fill: #1DC690; stroke: #fff; opacity: 1;" id="p-type-logs"></path><path d="M62.56041205429764,186.80255577372728A197,197,0,0,1,61.44154865172252,187.17354540446686L53.209941980249226,162.09704523666838A170.6070045455344,170.6070045455344,0,0,0,54.17890611024398,161.7757587919073Z" fill-rule="evenodd" style="fill: #1DC690; stroke: #fff; opacity: 1;" id="p-type-logs"></path><path d="M61.44154865172252,187.17354540446686A197,197,0,0,1,60.320485441560756,187.53783361256592L52.239072761001005,162.41252807918124A170.6070045455344,170.6070045455344,0,0,0,53.209941980249226,162.09704523666838Z" fill-rule="evenodd" style="fill: #1DC690; stroke: #fff; opacity: 1;" id="p-type-logs"></path><path d="M60.320485441560756,187.53783361256592A197,197,0,0,1,59.1972625615271,187.89540735531995L51.26633321277994,162.72219602413256A170.6070045455344,170.6070045455344,0,0,0,52.239072761001005,162.41252807918124Z" fill-rule="evenodd" style="fill: #1DC690; stroke: #fff; opacity: 1;" id="p-type-logs"></path><path d="M59.1972625615271,187.89540735531995A197,197,0,0,1,58.07192022665954,188.24625383042417L50.29175816283054,163.02603798440103A170.6070045455344,170.6070045455344,0,0,0,51.26633321277994,162.72219602413256Z" fill-rule="evenodd" style="fill: #1DC690; stroke: #fff; opacity: 1;" id="p-type-logs"></path><path d="M58.07192022665954,188.24625383042417A197,197,0,0,1,56.944498727879456,188.59036047643193L49.315382504114254,163.3240430814548A170.6070045455344,170.6070045455344,0,0,0,50.29175816283054,163.02603798440103Z" fill-rule="evenodd" style="fill: #1DC690; stroke: #fff; opacity: 1;" id="p-type-logs"></path><path d="M56.944498727879456,188.59036047643193A197,197,0,0,1,55.81503843054905,188.92771497320433L48.3372411940602,163.6162006457406A170.6070045455344,170.6070045455344,0,0,0,49.315382504114254,163.3240430814548Z" fill-rule="evenodd" style="fill: #1DC690; stroke: #fff; opacity: 1;" id="p-type-logs"></path><path d="M55.81503843054905,188.92771497320433A197,197,0,0,1,54.68357977302619,189.25830524235147L47.357369253313564,163.90250021706598A170.6070045455344,170.6070045455344,0,0,0,48.3372411940602,163.6162006457406Z" fill-rule="evenodd" style="fill: #1DC690; stroke: #fff; opacity: 1;" id="p-type-logs"></path><path d="M54.68357977302619,189.25830524235147A197,197,0,0,1,53.550163265216504,189.58211944766484L46.375801764481736,164.1829315449736A170.6070045455344,170.6070045455344,0,0,0,47.357369253313564,163.90250021706598Z" fill-rule="evenodd" style="fill: #1DC690; stroke: #fff; opacity: 1;" id="p-type-logs"></path><path d="M53.550163265216504,189.58211944766484A197,197,0,0,1,52.414829487123065,189.89914599554106L45.39257387087825,164.4574845891085A170.6070045455344,170.6070045455344,0,0,0,46.375801764481736,164.1829315449736Z" fill-rule="evenodd" style="fill: #1DC690; stroke: #fff; opacity: 1;" id="p-type-logs"></path><path d="M52.414829487123065,189.89914599554106A197,197,0,0,1,51.27761908739346,190.209373535397L44.407720775264565,164.7261495195773A170.6070045455344,170.6070045455344,0,0,0,45.39257387087825,164.4574845891085Z" fill-rule="evenodd" style="fill: #1DC690; stroke: #fff; opacity: 1;" id="p-type-logs"></path><path d="M51.27761908739346,190.209373535397A197,197,0,0,1,50.138572781864454,190.5127909600762L43.42127773858962,164.98891671730033A170.6070045455344,170.6070045455344,0,0,0,44.407720775264565,164.7261495195773Z" fill-rule="evenodd" style="fill: #1DC690; stroke: #fff; opacity: 1;" id="p-type-logs"></path><path d="M50.138572781864454,190.5127909600762A197,197,0,0,1,48.997731352104196,190.8093874062464L42.433280078727485,165.24577677435593A170.6070045455344,170.6070045455344,0,0,0,43.42127773858962,164.98891671730033Z" fill-rule="evenodd" style="fill: #1DC690; stroke: #fff; opacity: 1;" id="p-type-logs"></path><path d="M48.997731352104196,190.8093874062464A197,197,0,0,1,47.85513564395216,191.09915225478878L41.44376316921275,165.49672049431734A170.6070045455344,170.6070045455344,0,0,0,42.433280078727485,165.24577677435593Z" fill-rule="evenodd" style="fill: #1DC690; stroke: #fff; opacity: 1;" id="p-type-logs"></path><path d="M47.85513564395216,191.09915225478878A197,197,0,0,1,46.71082656605668,191.38207513117777L40.452762437974116,165.741738892582A170.6070045455344,170.6070045455344,0,0,0,41.44376316921275,165.49672049431734Z" fill-rule="evenodd" style="fill: #1DC690; stroke: #fff; opacity: 1;" id="p-type-logs"></path><path d="M46.71082656605668,191.38207513117777A197,197,0,0,1,45.56484508841031,191.65814590585285L39.46031336606593,165.98082319669305A170.6070045455344,170.6070045455344,0,0,0,40.452762437974116,165.741738892582Z" fill-rule="evenodd" style="fill: #1DC690; stroke: #fff; opacity: 1;" id="p-type-logs"></path><path d="M45.56484508841031,191.65814590585285A197,197,0,0,1,44.417232240882974,191.92735469458088L38.466451486397865,166.2139648466536A170.6070045455344,170.6070045455344,0,0,0,39.46031336606593,165.98082319669305Z" fill-rule="evenodd" style="fill: #1DC690; stroke: #fff; opacity: 1;" id="p-type-logs"></path><path d="M44.417232240882974,191.92735469458088A197,197,0,0,1,43.26802911175295,192.18969185881042L37.471212382462696,166.44115549523312A170.6070045455344,170.6070045455344,0,0,0,38.466451486397865,166.2139648466536Z" fill-rule="evenodd" style="fill: #1DC690; stroke: #fff; opacity: 1;" id="p-type-logs"></path><path d="M43.26802911175295,192.18969185881042A197,197,0,0,1,42.11727684623576,192.44514800601632L36.474631687062306,166.66238700826636A170.6070045455344,170.6070045455344,0,0,0,37.471212382462696,166.44115549523312Z" fill-rule="evenodd" style="fill: #1DC690; stroke: #fff; opacity: 1;" id="p-type-logs"></path><path d="M42.11727684623576,192.44514800601632A197,197,0,0,1,40.965016645011076,192.69371399003643L35.476745081031964,166.87765146494445A170.6070045455344,170.6070045455344,0,0,0,36.474631687062306,166.66238700826636Z" fill-rule="evenodd" style="fill: #1DC690; stroke: #fff; opacity: 1;" id="p-type-logs"></path><path d="M40.965016645011076,192.69371399003643A197,197,0,0,1,39.81128976274757,192.9353809113988L34.47758829196275,167.08694115809863A170.6070045455344,170.6070045455344,0,0,0,35.476745081031964,166.87765146494445Z" fill-rule="evenodd" style="fill: #1DC690; stroke: #fff; opacity: 1;" id="p-type-logs"></path><path d="M39.81128976274757,192.9353809113988A197,197,0,0,1,38.656137506625875,193.17014011764044L33.47719709292246,167.29024859447614A170.6070045455344,170.6070045455344,0,0,0,34.47758829196275,167.08694115809863Z" fill-rule="evenodd" style="fill: #1DC690; stroke: #fff; opacity: 1;" id="p-type-logs"></path><path d="M38.656137506625875,193.17014011764044A197,197,0,0,1,37.499601234859654,193.39798320361697L32.47560730117476,167.48756649500848A170.6070045455344,170.6070045455344,0,0,0,33.47719709292246,167.29024859447614Z" fill-rule="evenodd" style="fill: #1DC690; stroke: #fff; opacity: 1;" id="p-type-logs"></path><path d="M37.499601234859654,193.39798320361697A197,197,0,0,1,36.34172235521483,193.61890201180378L31.47285477689688,167.67888779507203A170.6070045455344,170.6070045455344,0,0,0,32.47560730117476,167.48756649500848Z" fill-rule="evenodd" style="fill: #1DC690; stroke: #fff; opacity: 1;" id="p-type-logs"></path><path d="M36.34172235521483,193.61890201180378A197,197,0,0,1,35.18254232352707,193.83288863258792L30.468975421895635,167.86420564474108A170.6070045455344,170.6070045455344,0,0,0,31.47285477689688,167.67888779507203Z" fill-rule="evenodd" style="fill: #1DC690; stroke: #fff; opacity: 1;" id="p-type-logs"></path><path d="M-36.32348334688449,193.62232453296443A197,197,0,0,1,-37.48138303188275,193.40151479762844L-32.459829874585466,167.49062494513825A170.6070045455344,170.6070045455344,0,0,0,-31.45705933234297,167.68185178534213Z" fill-rule="evenodd" style="fill: #D7A449; stroke: #fff; opacity: 1;" id="p-type-tokenTransfers"></path><path d="M-37.48138303188275,193.40151479762844A197,197,0,0,1,-38.63794076127343,193.17378065806014L-33.461438249181036,167.2934013949631A170.6070045455344,170.6070045455344,0,0,0,-32.459829874585466,167.49062494513825Z" fill-rule="evenodd" style="fill: #D7A449; stroke: #fff; opacity: 1;" id="p-type-tokenTransfers"></path><path d="M-38.63794076127343,193.17378065806014A197,197,0,0,1,-39.79311512652233,192.93913026788354L-34.46184859528716,167.09018819606226A170.6070045455344,170.6070045455344,0,0,0,-33.461438249181036,167.2934013949631Z" fill-rule="evenodd" style="fill: #D7A449; stroke: #fff; opacity: 1;" id="p-type-tokenTransfers"></path><path d="M-39.79311512652233,192.93913026788354A197,197,0,0,1,-40.94686476862423,192.69757202834705L-35.4610250949546,166.8809926241302A170.6070045455344,170.6070045455344,0,0,0,-34.46184859528716,167.09018819606226Z" fill-rule="evenodd" style="fill: #D7A449; stroke: #fff; opacity: 1;" id="p-type-tokenTransfers"></path><path d="M-40.94686476862423,192.69757202834705A197,197,0,0,1,-42.09914837958361,192.44911458802247L-36.458931974409886,166.66582216904985A170.6070045455344,170.6070045455344,0,0,0,-35.4610250949546,166.8809926241302Z" fill-rule="evenodd" style="fill: #D7A449; stroke: #fff; opacity: 1;" id="p-type-tokenTransfers"></path><path d="M-42.09914837958361,192.44911458802247A197,197,0,0,1,-43.249924703893655,192.19376684249553L-37.455533505336064,166.44468453462443A170.6070045455344,170.6070045455344,0,0,0,-36.458931974409886,166.66582216904985Z" fill-rule="evenodd" style="fill: #D7A449; stroke: #fff; opacity: 1;" id="p-type-tokenTransfers"></path><path d="M-43.249924703893655,192.19376684249553A197,197,0,0,1,-44.39915254001331,191.93153793404727L-38.45079400615191,166.21758763830158A170.6070045455344,170.6070045455344,0,0,0,-37.455533505336064,166.44468453462443Z" fill-rule="evenodd" style="fill: #D7A449; stroke: #fff; opacity: 1;" id="p-type-tokenTransfers"></path><path d="M-44.39915254001331,191.93153793404727A197,197,0,0,1,-45.546790741842464,191.66243725132688L-39.444677843289455,165.98453961089A170.6070045455344,170.6070045455344,0,0,0,-38.45079400615191,166.21758763830158Z" fill-rule="evenodd" style="fill: #D7A449; stroke: #fff; opacity: 1;" id="p-type-tokenTransfers"></path><path d="M-45.546790741842464,191.66243725132688A197,197,0,0,1,-46.692798220195066,191.38647442901535L-40.43714943246975,165.74554879626817A170.6070045455344,170.6070045455344,0,0,0,-39.444677843289455,165.98453961089Z" fill-rule="evenodd" style="fill: #D7A449; stroke: #fff; opacity: 1;" id="p-type-tokenTransfers"></path><path d="M-46.692798220195066,191.38647442901535A197,197,0,0,1,-47.8371339442703,191.1036593474807L-41.42817323997696,165.50062375108578A170.6070045455344,170.6070045455344,0,0,0,-40.43714943246975,165.74554879626817Z" fill-rule="evenodd" style="fill: #D7A449; stroke: #fff; opacity: 1;" id="p-type-tokenTransfers"></path><path d="M-47.8371339442703,191.1036593474807A197,197,0,0,1,-48.97975694312157,190.81400213242406L-42.417713783930516,165.2497732444573A170.6070045455344,170.6070045455344,0,0,0,-41.42817323997696,165.50062375108578Z" fill-rule="evenodd" style="fill: #D7A449; stroke: #fff; opacity: 1;" id="p-type-tokenTransfers"></path><path d="M-48.97975694312157,190.81400213242406A197,197,0,0,1,-50.120626307123445,190.51751315451733L-43.40573563555554,164.99300625764798A170.6070045455344,170.6070045455344,0,0,0,-42.417713783930516,165.2497732444573Z" fill-rule="evenodd" style="fill: #D7A449; stroke: #fff; opacity: 1;" id="p-type-tokenTransfers"></path><path d="M-50.120626307123445,190.51751315451733A197,197,0,0,1,-51.259701189436335,190.21420302903172L-44.392203420451274,164.7303319837524A170.6070045455344,170.6070045455344,0,0,0,-43.40573563555554,164.99300625764798Z" fill-rule="evenodd" style="fill: #D7A449; stroke: #fff; opacity: 1;" id="p-type-tokenTransfers"></path><path d="M-51.259701189436335,190.21420302903172A197,197,0,0,1,-52.39694080746894,189.90408261545772L-45.377081819857615,164.46175982736517A170.6070045455344,170.6070045455344,0,0,0,-44.392203420451274,164.7303319837524Z" fill-rule="evenodd" style="fill: #D7A449; stroke: #fff; opacity: 1;" id="p-type-tokenTransfers"></path><path d="M-52.39694080746894,189.90408261545772A197,197,0,0,1,-53.532304444338386,189.5871630171164L-46.36033557191965,164.1872994042444A170.6070045455344,170.6070045455344,0,0,0,-45.377081819857615,164.46175982736517Z" fill-rule="evenodd" style="fill: #D7A449; stroke: #fff; opacity: 1;" id="p-type-tokenTransfers"></path><path d="M-53.532304444338386,189.5871630171164A197,197,0,0,1,-54.66575145032803,189.2634555807617L-47.34192947295009,163.9069605409673A170.6070045455344,170.6070045455344,0,0,0,-46.36033557191965,164.1872994042444Z" fill-rule="evenodd" style="fill: #D7A449; stroke: #fff; opacity: 1;" id="p-type-tokenTransfers"></path><path d="M-54.66575145032803,189.2634555807617A197,197,0,0,1,-55.79724124434289,188.93297189617434L-48.32182837868979,163.62075327457836A170.6070045455344,170.6070045455344,0,0,0,-47.34192947295009,163.9069605409673Z" fill-rule="evenodd" style="fill: #D7A449; stroke: #fff; opacity: 1;" id="p-type-tokenTransfers"></path><path d="M-55.79724124434289,188.93297189617434A197,197,0,0,1,-56.926733315362526,188.59572379574675L-49.29999720556589,163.32868785223002A170.6070045455344,170.6070045455344,0,0,0,-48.32182837868979,163.62075327457836Z" fill-rule="evenodd" style="fill: #D7A449; stroke: #fff; opacity: 1;" id="p-type-tokenTransfers"></path><path d="M-56.926733315362526,188.59572379574675A197,197,0,0,1,-58.054187223891475,188.25172335405952L-50.27640093194802,163.03077473081584A170.6070045455344,170.6070045455344,0,0,0,-49.29999720556589,163.32868785223002Z" fill-rule="evenodd" style="fill: #D7A449; stroke: #fff; opacity: 1;" id="p-type-tokenTransfers"></path><path d="M-58.054187223891475,188.25172335405952A197,197,0,0,1,-59.17956260340717,187.90098288744903L-51.25100459940216,162.72702457659594A170.6070045455344,170.6070045455344,0,0,0,-50.27640093194802,163.03077473081584Z" fill-rule="evenodd" style="fill: #D7A449; stroke: #fff; opacity: 1;" id="p-type-tokenTransfers"></path><path d="M-59.17956260340717,187.90098288744903A197,197,0,0,1,-60.302819161805125,187.5435149535665L-52.22377331394227,162.41744826481533A170.6070045455344,170.6070045455344,0,0,0,-51.25100459940216,162.72702457659594Z" fill-rule="evenodd" style="fill: #D7A449; stroke: #fff; opacity: 1;" id="p-type-tokenTransfers"></path><path d="M-60.302819161805125,187.5435149535665A197,197,0,0,1,-61.42391668284155,187.1793323509285L-53.19467224727957,162.1020568793145A170.6070045455344,170.6070045455344,0,0,0,-52.22377331394227,162.41744826481533Z" fill-rule="evenodd" style="fill: #D7A449; stroke: #fff; opacity: 1;" id="p-type-tokenTransfers"></path><path d="M-61.42391668284155,187.1793323509285A197,197,0,0,1,-62.54281502757324,186.8084481184584L-54.16366663806957,161.7808617121323A170.6070045455344,170.6070045455344,0,0,0,-53.19467224727957,162.1020568793145Z" fill-rule="evenodd" style="fill: #D7A449; stroke: #fff; opacity: 1;" id="p-type-tokenTransfers"></path><path d="M-62.54281502757324,186.8084481184584A197,197,0,0,1,-63.659474135794646,186.4308755350199L-55.13072179315658,161.45387426310205A170.6070045455344,170.6070045455344,0,0,0,-54.16366663806957,161.7808617121323Z" fill-rule="evenodd" style="fill: #D7A449; stroke: #fff; opacity: 1;" id="p-type-tokenTransfers"></path><path d="M-63.659474135794646,186.4308755350199A197,197,0,0,1,-64.77385402747221,186.04662811894153L-56.09580308881591,161.12110623943963A170.6070045455344,170.6070045455344,0,0,0,-55.13072179315658,161.45387426310205Z" fill-rule="evenodd" style="fill: #D7A449; stroke: #fff; opacity: 1;" id="p-type-tokenTransfers"></path><path d="M-64.77385402747221,186.04662811894153A197,197,0,0,1,-65.88591480417573,185.65571962753233L-57.05887597199341,160.78256955532422A170.6070045455344,170.6070045455344,0,0,0,-56.09580308881591,161.12110623943963Z" fill-rule="evenodd" style="fill: #D7A449; stroke: #fff; opacity: 1;" id="p-type-tokenTransfers"></path><path d="M-65.88591480417573,185.65571962753233A197,197,0,0,1,-66.99561665050688,185.25816405658975L-58.01990596154268,160.4382763314719A170.6070045455344,170.6070045455344,0,0,0,-57.05887597199341,160.78256955532422Z" fill-rule="evenodd" style="fill: #D7A449; stroke: #fff; opacity: 1;" id="p-type-tokenTransfers"></path><path d="M-66.99561665050688,185.25816405658975A197,197,0,0,1,-68.10291983552472,184.85397563989824L-58.978858649459546,160.08823889470165A170.6070045455344,170.6070045455344,0,0,0,-58.01990596154268,160.4382763314719Z" fill-rule="evenodd" style="fill: #D7A449; stroke: #fff; opacity: 1;" id="p-type-tokenTransfers"></path><path d="M-68.10291983552472,184.85397563989824A197,197,0,0,1,-69.2077847141682,184.44316884871978L-59.93569970211401,159.73246977749392A170.6070045455344,170.6070045455344,0,0,0,-58.978858649459546,160.08823889470165Z" fill-rule="evenodd" style="fill: #D7A449; stroke: #fff; opacity: 1;" id="p-type-tokenTransfers"></path><path d="M-69.2077847141682,184.44316884871978A197,197,0,0,1,-70.31017172867558,184.02575839127562L-60.89039486147949,159.370981717542A170.6070045455344,170.6070045455344,0,0,0,-59.93569970211401,159.73246977749392Z" fill-rule="evenodd" style="fill: #D7A449; stroke: #fff; opacity: 1;" id="p-type-tokenTransfers"></path><path d="M-70.31017172867558,184.02575839127562A197,197,0,0,1,-71.41004141000074,183.60175921221992L-61.84290994635937,159.00378765729602A170.6070045455344,170.6070045455344,0,0,0,-60.89039486147949,159.370981717542Z" fill-rule="evenodd" style="fill: #D7A449; stroke: #fff; opacity: 1;" id="p-type-tokenTransfers"></path><path d="M-71.41004141000074,183.60175921221992A197,197,0,0,1,-72.50735437922629,183.17118649210443L-62.79321085361082,158.63090074349944A170.6070045455344,170.6070045455344,0,0,0,-61.84290994635937,159.00378765729602Z" fill-rule="evenodd" style="fill: #D7A449; stroke: #fff; opacity: 1;" id="p-type-tokenTransfers"></path><path d="M-72.50735437922629,183.17118649210443A197,197,0,0,1,-73.60207134897342,182.7340556468351L-63.74126355936578,158.25233432671845A170.6070045455344,170.6070045455344,0,0,0,-62.79321085361082,158.63090074349944Z" fill-rule="evenodd" style="fill: #D7A449; stroke: #fff; opacity: 1;" id="p-type-tokenTransfers"></path><path d="M-73.60207134897342,182.7340556468351A197,197,0,0,1,-74.69415312480862,182.29038232712017L-64.68703412024908,157.86810196086392A170.6070045455344,170.6070045455344,0,0,0,-63.74126355936578,158.25233432671845Z" fill-rule="evenodd" style="fill: #D7A449; stroke: #fff; opacity: 1;" id="p-type-tokenTransfers"></path><path d="M-74.69415312480862,182.29038232712017A197,197,0,0,1,-75.78356060664687,181.84018241790972L-65.63048867459383,157.47821740270624A170.6070045455344,170.6070045455344,0,0,0,-64.68703412024908,157.86810196086392Z" fill-rule="evenodd" style="fill: #D7A449; stroke: #fff; opacity: 1;" id="p-type-tokenTransfers"></path><path d="M-75.78356060664687,181.84018241790972A197,197,0,0,1,-76.87025479015158,181.38347203782703L-66.5715934436537,157.08269461138258A170.6070045455344,170.6070045455344,0,0,0,-65.63048867459383,157.47821740270624Z" fill-rule="evenodd" style="fill: #D7A449; stroke: #fff; opacity: 1;" id="p-type-tokenTransfers"></path><path d="M-76.87025479015158,181.38347203782703A197,197,0,0,1,-77.95419676813108,180.92026753859142L-67.5103147328123,156.6815477478973A170.6070045455344,170.6070045455344,0,0,0,-66.5715934436537,157.08269461138258Z" fill-rule="evenodd" style="fill: #D7A449; stroke: #fff; opacity: 1;" id="p-type-tokenTransfers"></path><path d="M-77.95419676813108,180.92026753859142A197,197,0,0,1,-79.03534773193167,180.45058550443287L-68.44661893278963,156.27479117461485A170.6070045455344,170.6070045455344,0,0,0,-67.5103147328123,156.6815477478973Z" fill-rule="evenodd" style="fill: #D7A449; stroke: #fff; opacity: 1;" id="p-type-tokenTransfers"></path><path d="M-79.03534773193167,180.45058550443287A197,197,0,0,1,-80.11366897282699,179.97444275149817L-69.38047252084533,155.86243945474556A170.6070045455344,170.6070045455344,0,0,0,-68.44661893278963,156.27479117461485Z" fill-rule="evenodd" style="fill: #D7A449; stroke: #fff; opacity: 1;" id="p-type-tokenTransfers"></path><path d="M-80.11366897282699,179.97444275149817A197,197,0,0,1,-81.18912188340398,179.4918563272489L-70.31184206197894,155.4445073518242A170.6070045455344,170.6070045455344,0,0,0,-69.38047252084533,155.86243945474556Z" fill-rule="evenodd" style="fill: #D7A449; stroke: #fff; opacity: 1;" id="p-type-tokenTransfers"></path><path d="M-81.18912188340398,179.4918563272489A197,197,0,0,1,-82.2616679589452,179.00284350985112L-71.24069421012693,155.02100982918148A170.6070045455344,170.6070045455344,0,0,0,-70.31184206197894,155.4445073518242Z" fill-rule="evenodd" style="fill: #D7A449; stroke: #fff; opacity: 1;" id="p-type-tokenTransfers"></path><path d="M-82.2616679589452,179.00284350985112A197,197,0,0,1,-83.33126879880734,178.50742180755657L-72.16699570935673,154.59196204940827A170.6070045455344,170.6070045455344,0,0,0,-71.24069421012693,155.02100982918148Z" fill-rule="evenodd" style="fill: #D7A449; stroke: #fff; opacity: 1;" id="p-type-tokenTransfers"></path><path d="M-83.33126879880734,178.50742180755657A197,197,0,0,1,-84.39788610779613,178.005608958076L-73.0907133950572,154.15737937381266A170.6070045455344,170.6070045455344,0,0,0,-72.16699570935673,154.59196204940827Z" fill-rule="evenodd" style="fill: #D7A449; stroke: #fff; opacity: 1;" id="p-type-tokenTransfers"></path><path d="M-84.39788610779613,178.005608958076A197,197,0,0,1,-85.46148169753738,177.49742292794417L-74.01181419512622,153.71727736187015A170.6070045455344,170.6070045455344,0,0,0,-73.0907133950572,154.15737937381266Z" fill-rule="evenodd" style="fill: #D7A449; stroke: #fff; opacity: 1;" id="p-type-tokenTransfers"></path><path d="M-85.46148169753738,177.49742292794417A197,197,0,0,1,-86.52201748784438,176.9828819118763L-74.93026513115468,153.27167177066627A170.6070045455344,170.6070045455344,0,0,0,-74.01181419512622,153.71727736187015Z" fill-rule="evenodd" style="fill: #D7A449; stroke: #fff; opacity: 1;" id="p-type-tokenTransfers"></path><path d="M-86.52201748784438,176.9828819118763A197,197,0,0,1,-87.57945550808111,176.4620043321169L-75.84603331960723,152.82057855433288A170.6070045455344,170.6070045455344,0,0,0,-74.93026513115468,153.27167177066627Z" fill-rule="evenodd" style="fill: #D7A449; stroke: #fff; opacity: 1;" id="p-type-tokenTransfers"></path></g></svg>