<svg xmlns="http://www.w3.org/2000/svg" width="400" height="400" id="block-7824901"><g id="burst-container" transform="translate(200,200)"><circle r="197" style="fill: #f9f9f9; stroke: #f9f9f9; stroke-width: 3; opacity: 1;" id="circle-base"></circle><path display="none" d="M6.031385485800715e-15,-98.5A98.5,98.5,0,1,1,-6.031385485800715e-15,98.5A98.5,98.5,0,1,1,6.031385485800715e-15,-98.5Z" fill-rule="evenodd" id="p-type-root" style="stroke: #fff; opacity: 1;"></path><path d="M8.529667153919608e-15,-139.30003589374985A139.30003589374985,139.30003589374985,0,1,1,-105.11259442085473,-91.410297527778L-74.32582830309765,-64.63684125217173A98.5,98.5,0,1,0,6.031385485800715e-15,-98.5Z" fill-rule="evenodd" style="fill: #0B1F65; stroke: #fff; opacity: 1;" id="p-type-data"></path><path d="M-105.11259442085473,-91.410297527778A139.30003589374985,139.30003589374985,0,0,1,-4.763183670524017,-139.21857663875483L-3.3680794734645625,-98.44239960840261A98.5,98.5,0,0,0,-74.32582830309765,-64.63684125217173Z" fill-rule="evenodd" style="fill: #D7A449; stroke: #fff; opacity: 1;" id="p-type-value"></path><path d="M1.0446666101440332e-14,-170.6070045455344A170.6070045455344,170.6070045455344,0,0,1,170.59549701177303,1.9815143971574953L139.29064003177876,1.617899730338159A139.30003589374985,139.30003589374985,0,0,0,8.529667153919608e-15,-139.30003589374985Z" fill-rule="evenodd" style="fill: #DB3F29; stroke: #fff; opacity: 1;" id="p-type-functions"></path><path d="M170.59549701177303,1.9815143971574953A170.6070045455344,170.6070045455344,0,0,1,60.44659149031562,159.53983695993583L49.354435280577675,130.26373139955444A139.30003589374985,139.30003589374985,0,0,0,139.29064003177876,1.617899730338159Z" fill-rule="evenodd" style="fill: #1DC690; stroke: #fff; opacity: 1;" id="p-type-logs"></path><path d="M60.44659149031562,159.53983695993583A170.6070045455344,170.6070045455344,0,0,1,-85.81155773466939,147.4555070492435L-70.06484349443973,120.39691734467151A139.30003589374985,139.30003589374985,0,0,0,49.354435280577675,130.26373139955444Z" fill-rule="evenodd" style="fill: #D7A449; stroke: #fff; opacity: 1;" id="p-type-tokenTransfers"></path><path d="M-85.81155773466939,147.4555070492435A170.6070045455344,170.6070045455344,0,0,1,-163.32992997973255,49.295881905243014L-133.3583293916165,40.249919029447874A139.30003589374985,139.30003589374985,0,0,0,-70.06484349443973,120.39691734467151Z" fill-rule="evenodd" style="fill: #414552; stroke: #fff; opacity: 1;" id="p-type-ether"></path><path d="M-128.736110935606,-111.95429308952536A170.6070045455344,170.6070045455344,0,0,1,-68.06881386552423,-156.4397218705678L-55.57795378900632,-127.73249802860302A139.30003589374985,139.30003589374985,0,0,0,-105.11259442085473,-91.410297527778Z" fill-rule="evenodd" style="fill: #D7A449; stroke: #fff; opacity: 1;" id="p-type-tokenTransfers"></path><path d="M-68.06881386552423,-156.4397218705678A170.6070045455344,170.6070045455344,0,0,1,-11.660546751507962,-170.20805400878038L-9.520796554354153,-138.9742941445309A139.30003589374985,139.30003589374985,0,0,0,-55.57795378900632,-127.73249802860302Z" fill-rule="evenodd" style="fill: #414552; stroke: #fff; opacity: 1;" id="p-type-ether"></path><path d="M1.206277097160143e-14,-197A197,197,0,0,1,3.368571974099033,-196.9711976986872L2.917268904046059,-170.58206102091006A170.6070045455344,170.6070045455344,0,0,0,1.0446666101440332e-14,-170.6070045455344Z" fill-rule="evenodd" style="fill: #DB3F29; stroke: #fff; opacity: 1;" id="p-type-functions"></path><path d="M3.368571974099033,-196.9711976986872A197,197,0,0,1,6.736158946929058,-196.88479921680522L5.833684771970397,-170.50723774075186A170.6070045455344,170.6070045455344,0,0,0,2.917268904046059,-170.58206102091006Z" fill-rule="evenodd" style="fill: #DB3F29; stroke: #fff; opacity: 1;" id="p-type-functions"></path><path d="M6.736158946929058,-196.88479921680522A197,197,0,0,1,10.101776205244605,-196.74082981806077L8.748394817086993,-170.3825565840716A170.6070045455344,170.6070045455344,0,0,0,5.833684771970397,-170.50723774075186Z" fill-rule="evenodd" style="fill: #DB3F29; stroke: #fff; opacity: 1;" id="p-type-functions"></path><path d="M10.101776205244605,-196.74082981806077A197,197,0,0,1,13.464439611762565,-196.53933160042345L11.660546751507864,-170.20805400878038A170.6070045455344,170.6070045455344,0,0,0,8.748394817086993,-170.3825565840716Z" fill-rule="evenodd" style="fill: #DB3F29; stroke: #fff; opacity: 1;" id="p-type-functions"></path><path d="M13.464439611762565,-196.53933160042345A197,197,0,0,1,16.823165892933297,-196.2803634838158L14.569289035360155,-169.98378104102795A170.6070045455344,170.6070045455344,0,0,0,11.660546751507864,-170.20805400878038Z" fill-rule="evenodd" style="fill: #DB3F29; stroke: #fff; opacity: 1;" id="p-type-functions"></path><path d="M16.823165892933297,-196.2803634838158A197,197,0,0,1,20.17697292645851,-195.9640011928848L17.47377112578392,-169.70980326028229A170.6070045455344,170.6070045455344,0,0,0,14.569289035360155,-169.98378104102795Z" fill-rule="evenodd" style="fill: #DB3F29; stroke: #fff; opacity: 1;" id="p-type-functions"></path><path d="M20.17697292645851,-195.9640011928848A197,197,0,0,1,23.52488002847294,-195.59033723485922L20.37314372563875,-169.38620078015347A170.6070045455344,170.6070045455344,0,0,0,17.47377112578392,-169.70980326028229Z" fill-rule="evenodd" style="fill: #DB3F29; stroke: #fff; opacity: 1;" id="p-type-functions"></path><path d="M23.52488002847294,-195.59033723485922A197,197,0,0,1,26.8659082403054,-195.15948087249947L23.266559031846164,-169.01306822496778A170.6070045455344,170.6070045455344,0,0,0,20.37314372563875,-169.38620078015347Z" fill-rule="evenodd" style="fill: #DB3F29; stroke: #fff; opacity: 1;" id="p-type-functions"></path><path d="M26.8659082403054,-195.15948087249947A197,197,0,0,1,30.19908061473503,-194.67155809214847L26.153170983294718,-168.5905147020987A170.6070045455344,170.6070045455344,0,0,0,23.266559031846164,-169.01306822496778Z" fill-rule="evenodd" style="fill: #DB3F29; stroke: #fff; opacity: 1;" id="p-type-functions"></path><path d="M30.19908061473503,-194.67155809214847A197,197,0,0,1,33.52342250165968,-194.12671156689186L29.032135508236163,-168.11866377006277A170.6070045455344,170.6070045455344,0,0,0,26.153170983294718,-168.5905147020987Z" fill-rule="evenodd" style="fill: #DB3F29; stroke: #fff; opacity: 1;" id="p-type-functions"></path><path d="M33.52342250165968,-194.12671156689186A197,197,0,0,1,36.83796183309271,-193.52510061483912L31.902610771099855,-167.59765340239016A170.6070045455344,170.6070045455344,0,0,0,29.032135508236163,-168.11866377006277Z" fill-rule="evenodd" style="fill: #DB3F29; stroke: #fff; opacity: 1;" id="p-type-functions"></path><path d="M36.83796183309271,-193.52510061483912A197,197,0,0,1,40.141729407404256,-192.86690115253768L34.76375741865294,-167.02763594727986A170.6070045455344,170.6070045455344,0,0,0,31.902610771099855,-167.59765340239016Z" fill-rule="evenodd" style="fill: #DB3F29; stroke: #fff; opacity: 1;" id="p-type-functions"></path><path d="M40.141729407404256,-192.86690115253768A197,197,0,0,1,43.4337591727248,-192.15230564353305L37.614738825435055,-166.40877808305157A170.6070045455344,170.6070045455344,0,0,0,34.76375741865294,-167.02763594727986Z" fill-rule="evenodd" style="fill: #DB3F29; stroke: #fff; opacity: 1;" id="p-type-functions"></path><path d="M43.4337591727248,-192.15230564353305A197,197,0,0,1,46.71308850942771,-191.38152304209092L40.45472133839536,-165.74126076940763A170.6070045455344,170.6070045455344,0,0,0,37.614738825435055,-166.40877808305157Z" fill-rule="evenodd" style="fill: #DB3F29; stroke: #fff; opacity: 1;" id="p-type-functions"></path><path d="M46.71308850942771,-191.38152304209092A197,197,0,0,1,49.97875851160773,-190.55477873209688L43.28287452066004,-165.02527919451856A170.6070045455344,170.6070045455344,0,0,0,40.45472133839536,-165.74126076940763Z" fill-rule="evenodd" style="fill: #DB3F29; stroke: #fff; opacity: 1;" id="p-type-functions"></path><path d="M49.97875851160773,-190.55477873209688A197,197,0,0,1,53.22981426747418,-189.67231446115218L46.09837139436,-164.26104271794836A170.6070045455344,170.6070045455344,0,0,0,43.28287452066004,-165.02527919451856Z" fill-rule="evenodd" style="fill: #DB3F29; stroke: #fff; opacity: 1;" id="p-type-functions"></path><path d="M53.22981426747418,-189.67231446115218A197,197,0,0,1,56.46530513857559,-188.7343882698846L48.90038868244646,-163.44877480943583A170.6070045455344,170.6070045455344,0,0,0,46.09837139436,-164.26104271794836Z" fill-rule="evenodd" style="fill: #DB3F29; stroke: #fff; opacity: 1;" id="p-type-functions"></path><path d="M56.46530513857559,-188.7343882698846A197,197,0,0,1,59.68428503777522,-187.7412744164948L51.68810704942481,-162.58871298355A170.6070045455344,170.6070045455344,0,0,0,48.90038868244646,-163.44877480943583Z" fill-rule="evenodd" style="fill: #DB3F29; stroke: #fff; opacity: 1;" id="p-type-functions"></path><path d="M59.68428503777522,-187.7412744164948A197,197,0,0,1,62.88581270589569,-186.69326329656087L54.460711340935894,-161.68110873023866A170.6070045455344,170.6070045455344,0,0,0,51.68810704942481,-162.58871298355Z" fill-rule="evenodd" style="fill: #DB3F29; stroke: #fff; opacity: 1;" id="p-type-functions"></path><path d="M62.88581270589569,-186.69326329656087A197,197,0,0,1,66.06895198695167,-185.59066135812404L57.21739082211451,-160.72622744129038A170.6070045455344,170.6070045455344,0,0,0,54.460711340935894,-161.68110873023866Z" fill-rule="evenodd" style="fill: #DB3F29; stroke: #fff; opacity: 1;" id="p-type-functions"></path><path d="M66.06895198695167,-185.59066135812404A197,197,0,0,1,69.2327721018904,-184.4337910120803L59.95733941465566,-159.72434833273158A170.6070045455344,170.6070045455344,0,0,0,57.21739082211451,-160.72622744129038Z" fill-rule="evenodd" style="fill: #DB3F29; stroke: #fff; opacity: 1;" id="p-type-functions"></path><path d="M69.2327721018904,-184.4337910120803A197,197,0,0,1,72.37634792076005,-183.22299053790465L62.67975593251924,-158.67576436318123A170.6070045455344,170.6070045455344,0,0,0,59.95733941465566,-159.72434833273158Z" fill-rule="evenodd" style="fill: #DB3F29; stroke: #fff; opacity: 1;" id="p-type-functions"></path><path d="M72.37634792076005,-183.22299053790465A197,197,0,0,1,75.4987602332263,-181.958613984735L65.38384431620433,-157.58078214818693A170.6070045455344,170.6070045455344,0,0,0,62.67975593251924,-158.67576436318123Z" fill-rule="evenodd" style="fill: #DB3F29; stroke: #fff; opacity: 1;" id="p-type-functions"></path><path d="M75.4987602332263,-181.958613984735A197,197,0,0,1,78.59909601735778,-180.6410310678451L68.06881386552413,-156.43972187056787A170.6070045455344,170.6070045455344,0,0,0,65.38384431620433,-157.58078214818693Z" fill-rule="evenodd" style="fill: #DB3F29; stroke: #fff; opacity: 1;" id="p-type-functions"></path><path d="M78.59909601735778,-180.6410310678451A197,197,0,0,1,81.67644870660189,-179.27062706053613L70.73387947081389,-155.2529171867903A170.6070045455344,170.6070045455344,0,0,0,68.06881386552413,-156.43972187056787Z" fill-rule="evenodd" style="fill: #DB3F29; stroke: #fff; opacity: 1;" id="p-type-functions"></path><path d="M81.67644870660189,-179.27062706053613A197,197,0,0,1,84.72991845487329,-177.84780268147966L73.37826184250419,-154.02071512940358A170.6070045455344,170.6070045455344,0,0,0,70.73387947081389,-155.2529171867903Z" fill-rule="evenodd" style="fill: #DB3F29; stroke: #fff; opacity: 1;" id="p-type-functions"></path><path d="M84.72991845487329,-177.84780268147966A197,197,0,0,1,87.75861239967719,-176.37297397754347L76.00118773899248,-152.74347600556436A170.6070045455344,170.6070045455344,0,0,0,73.37826184250419,-154.02071512940358Z" fill-rule="evenodd" style="fill: #DB3F29; stroke: #fff; opacity: 1;" id="p-type-functions"></path><path d="M87.75861239967719,-176.37297397754347A197,197,0,0,1,90.76164492319049,-174.84657220213583L78.60189019274588,-151.42157329167966A170.6070045455344,170.6070045455344,0,0,0,76.00118773899248,-152.74347600556436Z" fill-rule="evenodd" style="fill: #DB3F29; stroke: #fff; opacity: 1;" id="p-type-functions"></path><path d="M90.76164492319049,-174.84657220213583A197,197,0,0,1,93.73813791122436,-173.269043689103L81.17960873456946,-150.05539352419896A170.6070045455344,170.6070045455344,0,0,0,78.60189019274588,-151.42157329167966Z" fill-rule="evenodd" style="fill: #DB3F29; stroke: #fff; opacity: 1;" id="p-type-functions"></path><path d="M93.73813791122436,-173.269043689103A197,197,0,0,1,96.687221009993,-171.64084972221727L83.73358961597445,-148.64533618658734A170.6070045455344,170.6070045455344,0,0,0,81.17960873456946,-150.05539352419896Z" fill-rule="evenodd" style="fill: #DB3F29; stroke: #fff; opacity: 1;" id="p-type-functions"></path><path d="M96.687221009993,-171.64084972221727A197,197,0,0,1,99.60803188061314,-169.9624664002931L86.26308602958123,-147.19181359251291A170.6070045455344,170.6070045455344,0,0,0,83.73358961597445,-148.64533618658734Z" fill-rule="evenodd" style="fill: #DB3F29; stroke: #fff; opacity: 1;" id="p-type-functions"></path><path d="M99.60803188061314,-169.9624664002931A197,197,0,0,1,102.49971645125969,-168.23438449797163L88.76735832749264,-145.6952507652824A170.6070045455344,170.6070045455344,0,0,0,86.26308602958123,-147.19181359251291Z" fill-rule="evenodd" style="fill: #DB3F29; stroke: #fff; opacity: 1;" id="p-type-functions"></path><path d="M102.49971645125969,-168.23438449797163A197,197,0,0,1,105.36142916690417,-166.4571093222138L91.24567423757371,-144.15608531356065A170.6070045455344,170.6070045455344,0,0,0,88.76735832749264,-145.6952507652824Z" fill-rule="evenodd" style="fill: #DB3F29; stroke: #fff; opacity: 1;" id="p-type-functions"></path><path d="M105.36142916690417,-166.4571093222138A197,197,0,0,1,108.19233323656266,-164.63116056454373L93.69730907757472,-142.57476730340974A170.6070045455344,170.6070045455344,0,0,0,91.24567423757371,-144.15608531356065Z" fill-rule="evenodd" style="fill: #DB3F29; stroke: #fff; opacity: 1;" id="p-type-functions"></path><path d="M108.19233323656266,-164.63116056454373A197,197,0,0,1,110.99160087798145,-162.75707214908624L96.12154596703515,-140.95175912668543A170.6070045455344,170.6070045455344,0,0,0,93.69730907757472,-142.57476730340974Z" fill-rule="evenodd" style="fill: #DB3F29; stroke: #fff; opacity: 1;" id="p-type-functions"></path><path d="M110.99160087798145,-162.75707214908624A197,197,0,0,1,113.75841355968775,-160.8353920764427L98.51767603690574,-139.2875353658298A170.6070045455344,170.6070045455344,0,0,0,96.12154596703515,-140.95175912668543Z" fill-rule="evenodd" style="fill: #DB3F29; stroke: #fff; opacity: 1;" id="p-type-functions"></path><path d="M113.75841355968775,-160.8353920764427A197,197,0,0,1,116.49196224033606,-158.86668226345043L100.88499863682863,-137.58258265509878A170.6070045455344,170.6070045455344,0,0,0,98.51767603690574,-139.2875353658298Z" fill-rule="evenodd" style="fill: #DB3F29; stroke: #fff; opacity: 1;" id="p-type-functions"></path><path d="M116.49196224033606,-158.86668226345043A197,197,0,0,1,119.19144760527912,-156.8515183788732L103.22282154001361,-135.83739953826597A170.6070045455344,170.6070045455344,0,0,0,100.88499863682863,-137.58258265509878Z" fill-rule="evenodd" style="fill: #DB3F29; stroke: #fff; opacity: 1;" id="p-type-functions"></path><path d="M119.19144760527912,-156.8515183788732A197,197,0,0,1,121.8560803002949,-154.7904896750704L105.53046114565187,-134.0524963228438A170.6070045455344,170.6070045455344,0,0,0,103.22282154001361,-135.83739953826597Z" fill-rule="evenodd" style="fill: #DB3F29; stroke: #fff; opacity: 1;" id="p-type-functions"></path><path d="M196.9867122445703,2.288055741203998A197,197,0,0,1,196.9187876197699,5.656065979102929L170.53667256115332,4.89829682338404A170.6070045455344,170.6070045455344,0,0,0,170.59549701177303,1.9815143971574953Z" fill-rule="evenodd" style="fill: #1DC690; stroke: #fff; opacity: 1;" id="p-type-logs"></path><path d="M196.9187876197699,5.656065979102929A197,197,0,0,1,196.79328213958692,9.022422331554397L170.42798162700072,7.813646942798132A170.6070045455344,170.6070045455344,0,0,0,170.53667256115332,4.89829682338404Z" fill-rule="evenodd" style="fill: #1DC690; stroke: #fff; opacity: 1;" id="p-type-logs"></path><path d="M196.79328213958692,9.022422331554397A197,197,0,0,1,196.6102325029723,12.386140445157487L170.26945599153896,10.726712280348279A170.6070045455344,170.6070045455344,0,0,0,170.42798162700072,7.813646942798132Z" fill-rule="evenodd" style="fill: #1DC690; stroke: #fff; opacity: 1;" id="p-type-logs"></path><path d="M196.6102325029723,12.386140445157487A197,197,0,0,1,196.36969223531474,15.746236737956478L170.0611420091144,13.63664102907412A170.6070045455344,170.6070045455344,0,0,0,170.26945599153896,10.726712280348279Z" fill-rule="evenodd" style="fill: #1DC690; stroke: #fff; opacity: 1;" id="p-type-logs"></path><path d="M196.36969223531474,15.746236737956478A197,197,0,0,1,196.0717316727895,19.101728687049178L169.8031005926416,16.54258229918256A170.6070045455344,170.6070045455344,0,0,0,170.0611420091144,13.63664102907412Z" fill-rule="evenodd" style="fill: #1DC690; stroke: #fff; opacity: 1;" id="p-type-logs"></path><path d="M196.0717316727895,19.101728687049178A197,197,0,0,1,195.71643794179153,22.451635115885637L169.495407195792,19.44368636685574A170.6070045455344,170.6070045455344,0,0,0,169.8031005926416,16.54258229918256Z" fill-rule="evenodd" style="fill: #1DC690; stroke: #fff; opacity: 1;" id="p-type-logs"></path><path d="M195.71643794179153,22.451635115885637A197,197,0,0,1,195.30391493345883,25.794976481173126L169.13815179093035,22.339104922718057A170.6070045455344,170.6070045455344,0,0,0,169.495407195792,19.44368636685574Z" fill-rule="evenodd" style="fill: #1DC690; stroke: #fff; opacity: 1;" id="p-type-logs"></path><path d="M195.30391493345883,25.794976481173126A197,197,0,0,1,194.83428327329383,29.130775159303592L168.73143884280597,25.227991319889586A170.6070045455344,170.6070045455344,0,0,0,169.13815179093035,22.339104922718057Z" fill-rule="evenodd" style="fill: #1DC690; stroke: #fff; opacity: 1;" id="p-type-logs"></path><path d="M194.83428327329383,29.130775159303592A197,197,0,0,1,194.30768028589122,32.4580557322197L168.27538727800655,28.10950082155338A170.6070045455344,170.6070045455344,0,0,0,168.73143884280597,25.227991319889586Z" fill-rule="evenodd" style="fill: #1DC690; stroke: #fff; opacity: 1;" id="p-type-logs"></path><path d="M194.30768028589122,32.4580557322197A197,197,0,0,1,193.72425995478318,35.77584527263604L167.77013045018265,30.982790847964228A170.6070045455344,170.6070045455344,0,0,0,168.27538727800655,28.10950082155338Z" fill-rule="evenodd" style="fill: #1DC690; stroke: #fff; opacity: 1;" id="p-type-logs"></path><path d="M193.72425995478318,35.77584527263604A197,197,0,0,1,193.084192877413,39.083173628531945L167.215816101054,33.8470212228267A170.6070045455344,170.6070045455344,0,0,0,167.77013045018265,30.982790847964228Z" fill-rule="evenodd" style="fill: #1DC690; stroke: #fff; opacity: 1;" id="p-type-logs"></path><path d="M193.084192877413,39.083173628531945A197,197,0,0,1,192.387666215251,42.37907370683283L166.61260631720853,36.70135441897038A170.6070045455344,170.6070045455344,0,0,0,167.215816101054,33.8470212228267Z" fill-rule="evenodd" style="fill: #1DC690; stroke: #fff; opacity: 1;" id="p-type-logs"></path><path d="M192.387666215251,42.37907370683283A197,197,0,0,1,191.63488363906666,45.662581756197035L165.96067748270661,39.54495580325048A170.6070045455344,170.6070045455344,0,0,0,166.61260631720853,36.70135441897038Z" fill-rule="evenodd" style="fill: #1DC690; stroke: #fff; opacity: 1;" id="p-type-logs"></path><path d="M191.63488363906666,45.662581756197035A197,197,0,0,1,190.82606526937354,48.93273764882559L165.26022022750485,42.376993880602186A170.6070045455344,170.6070045455344,0,0,0,165.96067748270661,39.54495580325048Z" fill-rule="evenodd" style="fill: #1DC690; stroke: #fff; opacity: 1;" id="p-type-logs"></path><path d="M190.82606526937354,48.93273764882559A197,197,0,0,1,189.9614476120639,52.18858516121229L164.51143937171412,45.19664053717744A170.6070045455344,170.6070045455344,0,0,0,165.26022022750485,42.376993880602186Z" fill-rule="evenodd" style="fill: #1DC690; stroke: #fff; opacity: 1;" id="p-type-logs"></path><path d="M189.9614476120639,52.18858516121229A197,197,0,0,1,189.04128348925232,55.42917225375227L163.71455386570827,48.00307128249301A170.6070045455344,170.6070045455344,0,0,0,164.51143937171412,45.19664053717744Z" fill-rule="evenodd" style="fill: #1DC690; stroke: #fff; opacity: 1;" id="p-type-logs"></path><path d="M189.04128348925232,55.42917225375227A197,197,0,0,1,188.06584196534817,58.65355134912704L162.86979672610107,50.79546549051905A170.6070045455344,170.6070045455344,0,0,0,163.71455386570827,48.00307128249301Z" fill-rule="evenodd" style="fill: #1DC690; stroke: #fff; opacity: 1;" id="p-type-logs"></path><path d="M188.06584196534817,58.65355134912704A197,197,0,0,1,187.03540826837872,61.860779609384835L161.97741496761003,53.57300663963767A170.6070045455344,170.6070045455344,0,0,0,162.86979672610107,50.79546549051905Z" fill-rule="evenodd" style="fill: #1DC690; stroke: #fff; opacity: 1;" id="p-type-logs"></path><path d="M187.03540826837872,61.860779609384835A197,197,0,0,1,185.95028370658585,65.04991921163496L161.03766953082692,56.33488255140127A170.6070045455344,170.6070045455344,0,0,0,161.97741496761003,53.57300663963767Z" fill-rule="evenodd" style="fill: #1DC690; stroke: #fff; opacity: 1;" id="p-type-logs"></path><path d="M185.95028370658585,65.04991921163496A197,197,0,0,1,184.81078558032067,68.22003762227587L160.0508352059165,59.080285628021045A170.6070045455344,170.6070045455344,0,0,0,161.03766953082692,56.33488255140127Z" fill-rule="evenodd" style="fill: #1DC690; stroke: #fff; opacity: 1;" id="p-type-logs"></path><path d="M184.81078558032067,68.22003762227587A197,197,0,0,1,183.6172470892622,71.37020786967649L159.01720055226534,61.808413088515906A170.6070045455344,170.6070045455344,0,0,0,160.0508352059165,59.080285628021045Z" fill-rule="evenodd" style="fill: #1DC690; stroke: #fff; opacity: 1;" id="p-type-logs"></path><path d="M183.6172470892622,71.37020786967649A197,197,0,0,1,182.37001723498653,74.49950881523124L157.93706781410424,64.51846720345297A170.6070045455344,170.6070045455344,0,0,0,159.01720055226534,61.808413088515906Z" fill-rule="evenodd" style="fill: #1DC690; stroke: #fff; opacity: 1;" id="p-type-logs"></path><path d="M182.37001723498653,74.49950881523124A197,197,0,0,1,181.06946071891568,77.6070254227093L156.8107528321295,67.20965552821102A170.6070045455344,170.6070045455344,0,0,0,157.93706781410424,64.51846720345297Z" fill-rule="evenodd" style="fill: #1DC690; stroke: #fff; opacity: 1;" id="p-type-logs"></path><path d="M181.06946071891568,77.6070254227093A197,197,0,0,1,179.7159578356756,80.69184902581969L155.6385849511481,69.88119113469845A170.6070045455344,170.6070045455344,0,0,0,156.8107528321295,67.20965552821102Z" fill-rule="evenodd" style="fill: #1DC690; stroke: #fff; opacity: 1;" id="p-type-logs"></path><path d="M179.7159578356756,80.69184902581969A197,197,0,0,1,178.30990436189433,83.75307759391355L154.42090692377417,72.5322928414584A170.6070045455344,170.6070045455344,0,0,0,155.6385849511481,69.88119113469845Z" fill-rule="evenodd" style="fill: #1DC690; stroke: #fff; opacity: 1;" id="p-type-logs"></path><path d="M178.30990436189433,83.75307759391355A197,197,0,0,1,176.85171144047357,86.78981599574612L153.15807481020514,75.16218544209318A170.6070045455344,170.6070045455344,0,0,0,154.42090692377417,72.5322928414584Z" fill-rule="evenodd" style="fill: #1DC690; stroke: #fff; opacity: 1;" id="p-type-logs"></path><path d="M176.85171144047357,86.78981599574612A197,197,0,0,1,175.3418054603666,89.80117626122143L151.85045787410647,77.77009993194183A170.6070045455344,170.6070045455344,0,0,0,153.15807481020514,75.16218544209318Z" fill-rule="evenodd" style="fill: #1DC690; stroke: #fff; opacity: 1;" id="p-type-logs"></path><path d="M175.3418054603666,89.80117626122143A197,197,0,0,1,173.78062793189818,92.7862778410427L150.4984384746354,80.35527373294413A170.6070045455344,170.6070045455344,0,0,0,151.85045787410647,77.77009993194183Z" fill-rule="evenodd" style="fill: #1DC690; stroke: #fff; opacity: 1;" id="p-type-logs"></path><path d="M173.78062793189818,92.7862778410427A197,197,0,0,1,172.16863535766302,95.74424786419323L149.1024119546359,82.91695091662531A170.6070045455344,170.6070045455344,0,0,0,150.4984384746354,80.35527373294413Z" fill-rule="evenodd" style="fill: #1DC690; stroke: #fff; opacity: 1;" id="p-type-logs"></path><path d="M172.16863535766302,95.74424786419323A197,197,0,0,1,170.50629909904018,98.6742213931716L147.66278652503652,85.45438242513654A170.6070045455344,170.6070045455344,0,0,0,149.1024119546359,82.91695091662531Z" fill-rule="evenodd" style="fill: #1DC690; stroke: #fff; opacity: 1;" id="p-type-logs"></path><path d="M170.50629909904018,98.6742213931716A197,197,0,0,1,168.7941052383627,101.57534167690766L146.1799831454861,87.96682629028628A170.6070045455344,170.6070045455344,0,0,0,147.66278652503652,85.45438242513654Z" fill-rule="evenodd" style="fill: #1DC690; stroke: #fff; opacity: 1;" id="p-type-logs"></path><path d="M168.7941052383627,101.57534167690766A197,197,0,0,1,167.03255443678268,104.446760401284L144.65443540126094,90.4535478504985A170.6070045455344,170.6070045455344,0,0,0,146.1799831454861,87.96682629028628Z" fill-rule="evenodd" style="fill: #1DC690; stroke: #fff; opacity: 1;" id="p-type-logs"></path><path d="M167.03255443678268,104.446760401284A197,197,0,0,1,165.22216178787338,107.28763793719105L143.08658937648087,92.91381996563454A170.6070045455344,170.6070045455344,0,0,0,144.65443540126094,90.4535478504985Z" fill-rule="evenodd" style="fill: #1DC690; stroke: #fff; opacity: 1;" id="p-type-logs"></path><path d="M165.22216178787338,107.28763793719105A197,197,0,0,1,163.36345666701106,110.09714358604222L141.4769035236699,95.34692322961553A170.6070045455344,170.6070045455344,0,0,0,143.08658937648087,92.91381996563454Z" fill-rule="evenodd" style="fill: #1DC690; stroke: #fff; opacity: 1;" id="p-type-logs"></path><path d="M163.36345666701106,110.09714358604222A197,197,0,0,1,161.456982576581,112.8744558226777L139.82584852970064,97.75214618078323A170.6070045455344,170.6070045455344,0,0,0,141.4769035236699,95.34692322961553Z" fill-rule="evenodd" style="fill: #1DC690; stroke: #fff; opacity: 1;" id="p-type-logs"></path><path d="M69.79771173705812,184.22073563057592A197,197,0,0,1,66.63745213392382,185.3872972269109L57.709726391447575,160.55010893744125A170.6070045455344,170.6070045455344,0,0,0,60.44659149031562,159.53983695993583Z" fill-rule="evenodd" style="fill: #D7A449; stroke: #fff; opacity: 1;" id="p-type-tokenTransfers"></path><path d="M66.63745213392382,185.3872972269109A197,197,0,0,1,63.45770713002729,186.49964988117185L54.955986440516526,161.51343459399828A170.6070045455344,170.6070045455344,0,0,0,57.709726391447575,160.55010893744125Z" fill-rule="evenodd" style="fill: #D7A449; stroke: #fff; opacity: 1;" id="p-type-tokenTransfers"></path><path d="M63.45770713002729,186.49964988117185A197,197,0,0,1,60.25940651190356,187.55746833126415L52.18617685628191,162.4295322443701A170.6070045455344,170.6070045455344,0,0,0,54.955986440516526,161.51343459399828Z" fill-rule="evenodd" style="fill: #D7A449; stroke: #fff; opacity: 1;" id="p-type-tokenTransfers"></path><path d="M60.25940651190356,187.55746833126415A197,197,0,0,1,57.04348549191906,188.56044326139357L49.40110755641096,163.2981340132211A170.6070045455344,170.6070045455344,0,0,0,52.18617685628191,162.4295322443701Z" fill-rule="evenodd" style="fill: #D7A449; stroke: #fff; opacity: 1;" id="p-type-tokenTransfers"></path><path d="M57.04348549191906,188.56044326139357A197,197,0,0,1,53.810884434806916,189.5082813925129L46.60159292065143,164.118985913446A170.6070045455344,170.6070045455344,0,0,0,49.40110755641096,163.2981340132211Z" fill-rule="evenodd" style="fill: #D7A449; stroke: #fff; opacity: 1;" id="p-type-tokenTransfers"></path><path d="M53.810884434806916,189.5082813925129A197,197,0,0,1,50.562548582695804,190.40070556807956L43.78845155269943,164.89184792043812A170.6070045455344,170.6070045455344,0,0,0,46.60159292065143,164.118985913446Z" fill-rule="evenodd" style="fill: #D7A449; stroke: #fff; opacity: 1;" id="p-type-tokenTransfers"></path><path d="M50.562548582695804,190.40070556807956A197,197,0,0,1,47.29942777871238,191.2374548350986L40.96250604083228,165.61649404227458A170.6070045455344,170.6070045455344,0,0,0,43.78845155269943,164.89184792043812Z" fill-rule="evenodd" style="fill: #D7A449; stroke: #fff; opacity: 1;" id="p-type-tokenTransfers"></path><path d="M47.29942777871238,191.2374548350986A197,197,0,0,1,44.02247618923854,192.0182845204277L38.12458271737614,166.2927123857986A170.6070045455344,170.6070045455344,0,0,0,40.96250604083228,165.61649404227458Z" fill-rule="evenodd" style="fill: #D7A449; stroke: #fff; opacity: 1;" id="p-type-tokenTransfers"></path><path d="M44.02247618923854,192.0182845204277A197,197,0,0,1,40.73265202490441,192.74296630232206L35.275511417078874,166.9203052185789A170.6070045455344,170.6070045455344,0,0,0,38.12458271737614,166.2927123857986Z" fill-rule="evenodd" style="fill: #D7A449; stroke: #fff; opacity: 1;" id="p-type-tokenTransfers"></path><path d="M40.73265202490441,192.74296630232206A197,197,0,0,1,37.4309172603988,193.41128827719746L32.41612523445878,167.4990890267284A170.6070045455344,170.6070045455344,0,0,0,35.275511417078874,166.9203052185789Z" fill-rule="evenodd" style="fill: #D7A449; stroke: #fff; opacity: 1;" id="p-type-tokenTransfers"></path><path d="M37.4309172603988,193.41128827719746A197,197,0,0,1,34.11823735317899,194.0230550215931L29.547260280200152,168.02889456856553A170.6070045455344,170.6070045455344,0,0,0,32.41612523445878,167.4990890267284Z" fill-rule="evenodd" style="fill: #D7A449; stroke: #fff; opacity: 1;" id="p-type-tokenTransfers"></path><path d="M34.11823735317899,194.0230550215931A197,197,0,0,1,30.79558096116214,194.578087649315L26.669755436666815,168.5095669241019A170.6070045455344,170.6070045455344,0,0,0,29.547260280200152,168.02889456856553Z" fill-rule="evenodd" style="fill: #D7A449; stroke: #fff; opacity: 1;" id="p-type-tokenTransfers"></path><path d="M30.79558096116214,194.578087649315A197,197,0,0,1,27.46391965948086,195.07622386374405L23.784452112605297,168.9409655403425A170.6070045455344,170.6070045455344,0,0,0,26.669755436666815,168.5095669241019Z" fill-rule="evenodd" style="fill: #D7A449; stroke: #fff; opacity: 1;" id="p-type-tokenTransfers"></path><path d="M27.46391965948086,195.07622386374405A197,197,0,0,1,24.12422765638575,195.51731800529302L20.89219399710919,169.32296427238438A170.6070045455344,170.6070045455344,0,0,0,23.784452112605297,168.9409655403425Z" fill-rule="evenodd" style="fill: #D7A449; stroke: #fff; opacity: 1;" id="p-type-tokenTransfers"></path><path d="M24.12422765638575,195.51731800529302A197,197,0,0,1,20.777481508377964,195.90124109399872L17.993826812916733,169.6554514203029A170.6070045455344,170.6070045455344,0,0,0,20.89219399710919,169.32296427238438Z" fill-rule="evenodd" style="fill: #D7A449; stroke: #fff; opacity: 1;" id="p-type-tokenTransfers"></path><path d="M20.777481508377964,195.90124109399872A197,197,0,0,1,17.424659834655195,196.227880867237L15.090198069113754,169.93832976181363A170.6070045455344,170.6070045455344,0,0,0,17.993826812916733,169.6554514203029Z" fill-rule="evenodd" style="fill: #D7A449; stroke: #fff; opacity: 1;" id="p-type-tokenTransfers"></path><path d="M17.424659834655195,196.227880867237A197,197,0,0,1,14.066743030954449,196.49714181254927L12.182156813314265,170.17151658070108A170.6070045455344,170.6070045455344,0,0,0,15.090198069113754,169.93832976181363Z" fill-rule="evenodd" style="fill: #D7A449; stroke: #fff; opacity: 1;" id="p-type-tokenTransfers"></path><path d="M14.066743030954449,196.49714181254927A197,197,0,0,1,10.704712982875353,196.70894519557126L9.27055338339115,170.35494369100562A170.6070045455344,170.6070045455344,0,0,0,12.182156813314265,170.17151658070108Z" fill-rule="evenodd" style="fill: #D7A449; stroke: #fff; opacity: 1;" id="p-type-tokenTransfers"></path><path d="M10.704712982875353,196.70894519557126A197,197,0,0,1,7.339552778767833,196.86322908305573L6.35623915882961,170.4885574569618A170.6070045455344,170.6070045455344,0,0,0,9.27055338339115,170.35494369100562Z" fill-rule="evenodd" style="fill: #D7A449; stroke: #fff; opacity: 1;" id="p-type-tokenTransfers"></path><path d="M7.339552778767833,196.86322908305573A197,197,0,0,1,3.9722464222680745,196.9599483609822L3.440066311776001,170.57231880868179A170.6070045455344,170.6070045455344,0,0,0,6.35623915882961,170.4885574569618Z" fill-rule="evenodd" style="fill: #D7A449; stroke: #fff; opacity: 1;" id="p-type-tokenTransfers"></path><path d="M3.9722464222680745,196.9599483609822A197,197,0,0,1,0.603778544566866,196.9990747477488L0.5228875578549007,170.60620325357996A170.6070045455344,170.6070045455344,0,0,0,3.440066311776001,170.57231880868179Z" fill-rule="evenodd" style="fill: #D7A449; stroke: #fff; opacity: 1;" id="p-type-tokenTransfers"></path><path d="M0.603778544566866,196.9990747477488A197,197,0,0,1,-2.7648658835055793,196.98059680244202L-2.394444093172738,170.59020088353455A170.6070045455344,170.6070045455344,0,0,0,0.5228875578549007,170.60620325357996Z" fill-rule="evenodd" style="fill: #D7A449; stroke: #fff; opacity: 1;" id="p-type-tokenTransfers"></path><path d="M-2.7648658835055793,196.98059680244202A197,197,0,0,1,-6.1327018394941035,196.9045199281821L-5.31107558683745,170.52431637778497A170.6070045455344,170.6070045455344,0,0,0,-2.394444093172738,170.59020088353455Z" fill-rule="evenodd" style="fill: #D7A449; stroke: #fff; opacity: 1;" id="p-type-tokenTransfers"></path><path d="M-6.1327018394941035,196.9045199281821A197,197,0,0,1,-9.498744537348182,196.77086637054327L-8.22615407340219,170.40856900156356A170.6070045455344,170.6070045455344,0,0,0,-5.31107558683745,170.52431637778497Z" fill-rule="evenodd" style="fill: #D7A449; stroke: #fff; opacity: 1;" id="p-type-tokenTransfers"></path><path d="M-9.498744537348182,196.77086637054327A197,197,0,0,1,-12.862009715382385,196.57967521104874L-11.138827157243403,170.2429926004623A170.6070045455344,170.6070045455344,0,0,0,-8.22615407340219,170.40856900156356Z" fill-rule="evenodd" style="fill: #D7A449; stroke: #fff; opacity: 1;" id="p-type-tokenTransfers"></path><path d="M-12.862009715382385,196.57967521104874A197,197,0,0,1,-16.22151392408348,196.331002355743L-14.04824314609929,170.0276355905359A170.6070045455344,170.6070045455344,0,0,0,-11.138827157243403,170.2429926004623Z" fill-rule="evenodd" style="fill: #D7A449; stroke: #fff; opacity: 1;" id="p-type-tokenTransfers"></path><path d="M-99.08665191538498,170.26695337674698A197,197,0,0,1,-150.2339504022634,127.431393881297L-130.1064175592515,110.35882434086407A170.6070045455344,170.6070045455344,0,0,0,-85.81155773466939,147.4555070492435Z" fill-rule="evenodd" style="fill: #414552; stroke: #fff; opacity: 1;" id="p-type-ether"></path><path d="M-150.2339504022634,127.431393881297A197,197,0,0,1,-154.502965357823,122.22043076196118L-133.8034929599018,105.84599790133545A170.6070045455344,170.6070045455344,0,0,0,-130.1064175592515,110.35882434086407Z" fill-rule="evenodd" style="fill: #414552; stroke: #fff; opacity: 1;" id="p-type-ether"></path><path d="M-154.502965357823,122.22043076196118A197,197,0,0,1,-157.2927091244041,118.60861543878508L-136.21948193181032,102.71807407768705A170.6070045455344,170.6070045455344,0,0,0,-133.8034929599018,105.84599790133545Z" fill-rule="evenodd" style="fill: #414552; stroke: #fff; opacity: 1;" id="p-type-ether"></path></g></svg>