<svg xmlns="http://www.w3.org/2000/svg" width="400" height="400" id="block-7824870"><g id="burst-container" transform="translate(200,200)"><circle r="197" style="fill: #f9f9f9; stroke: #f9f9f9; stroke-width: 3; opacity: 1;" id="circle-base"></circle><path display="none" d="M6.031385485800715e-15,-98.5A98.5,98.5,0,1,1,-6.031385485800715e-15,98.5A98.5,98.5,0,1,1,6.031385485800715e-15,-98.5Z" fill-rule="evenodd" id="p-type-root" style="stroke: #fff; opacity: 1;"></path><path d="M8.529667153919608e-15,-139.30003589374985A139.30003589374985,139.30003589374985,0,1,1,-33.15890937125103,-135.2959228111075L-23.446889673161763,-95.66866448662581A98.5,98.5,0,1,0,6.031385485800715e-15,-98.5Z" fill-rule="evenodd" style="fill: #0B1F65; stroke: #fff; opacity: 1;" id="p-type-data"></path><path d="M-33.15890937125103,-135.2959228111075A139.30003589374985,139.30003589374985,0,0,1,-0.41333668105643606,-139.29942265777015L-0.2922731700881471,-98.49956637668029A98.5,98.5,0,0,0,-23.446889673161763,-95.66866448662581Z" fill-rule="evenodd" style="fill: #D7A449; stroke: #fff; opacity: 1;" id="p-type-value"></path><path d="M1.0446666101440332e-14,-170.6070045455344A170.6070045455344,170.6070045455344,0,0,1,70.88768417588905,155.1827510781382L57.87955175949787,126.70618567425824A139.30003589374985,139.30003589374985,0,0,0,8.529667153919608e-15,-139.30003589374985Z" fill-rule="evenodd" style="fill: #DB3F29; stroke: #fff; opacity: 1;" id="p-type-functions"></path><path d="M70.88768417588905,155.1827510781382A170.6070045455344,170.6070045455344,0,0,1,-161.47033400718348,-55.08249482012048L-131.83997563812324,-44.97466868959755A139.30003589374985,139.30003589374985,0,0,0,57.87955175949787,126.70618567425824Z" fill-rule="evenodd" style="fill: #414552; stroke: #fff; opacity: 1;" id="p-type-ether"></path><path d="M-161.47033400718348,-55.08249482012048A170.6070045455344,170.6070045455344,0,0,1,-128.54856077983476,-112.16959267748602L-104.95946035991506,-91.58608890522302A139.30003589374985,139.30003589374985,0,0,0,-131.83997563812324,-44.97466868959755Z" fill-rule="evenodd" style="fill: #1DC690; stroke: #fff; opacity: 1;" id="p-type-logs"></path><path d="M-128.54856077983476,-112.16959267748602A170.6070045455344,170.6070045455344,0,0,1,-83.56172924186768,-148.74201627687043L-68.22786622239335,-121.44734773036089A139.30003589374985,139.30003589374985,0,0,0,-104.95946035991506,-91.58608890522302Z" fill-rule="evenodd" style="fill: #D7A449; stroke: #fff; opacity: 1;" id="p-type-tokenTransfers"></path><path d="M-40.6112041933782,-165.70298758309622A170.6070045455344,170.6070045455344,0,0,1,-12.139318693017303,-170.1745778360251L-9.91171220764066,-138.94696096393366A139.30003589374985,139.30003589374985,0,0,0,-33.15890937125103,-135.2959228111075Z" fill-rule="evenodd" style="fill: #D7A449; stroke: #fff; opacity: 1;" id="p-type-tokenTransfers"></path><path d="M-12.139318693017303,-170.1745778360251A170.6070045455344,170.6070045455344,0,0,1,-1.0124595034268609,-170.6040003216628L-0.8266697228758152,-139.29758295523033A139.30003589374985,139.30003589374985,0,0,0,-9.91171220764066,-138.94696096393366Z" fill-rule="evenodd" style="fill: #414552; stroke: #fff; opacity: 1;" id="p-type-ether"></path><path d="M1.206277097160143e-14,-197A197,197,0,0,1,155.92041748798414,120.40690765223037L135.0310425132697,104.27544081795843A170.6070045455344,170.6070045455344,0,0,0,1.0446666101440332e-14,-170.6070045455344Z" fill-rule="evenodd" style="fill: #DB3F29; stroke: #fff; opacity: 1;" id="p-type-functions"></path><path d="M155.92041748798414,120.40690765223037A197,197,0,0,1,154.1247185415325,122.69707060273845L133.47592160809364,106.25878011190434A170.6070045455344,170.6070045455344,0,0,0,135.0310425132697,104.27544081795843Z" fill-rule="evenodd" style="fill: #DB3F29; stroke: #fff; opacity: 1;" id="p-type-functions"></path><path d="M81.85404708235744,179.1896062170996A197,197,0,0,1,-191.85335481667192,-44.735782608424216L-166.14987907250747,-38.74232419707345A170.6070045455344,170.6070045455344,0,0,0,70.88768417588905,155.1827510781382Z" fill-rule="evenodd" style="fill: #414552; stroke: #fff; opacity: 1;" id="p-type-ether"></path><path d="M-191.85335481667192,-44.735782608424216A197,197,0,0,1,-191.1715706485401,-47.5650141992015L-165.5594366630073,-41.19251062787604A170.6070045455344,170.6070045455344,0,0,0,-166.14987907250747,-38.74232419707345Z" fill-rule="evenodd" style="fill: #414552; stroke: #fff; opacity: 1;" id="p-type-ether"></path></g></svg>