<svg xmlns="http://www.w3.org/2000/svg" width="400" height="400" id="block-7824912"><g id="burst-container" transform="translate(200,200)"><circle r="197" style="fill: #f9f9f9; stroke: #f9f9f9; stroke-width: 3; opacity: 1;" id="circle-base"></circle><path display="none" d="M6.031385485800715e-15,-98.5A98.5,98.5,0,1,1,-6.031385485800715e-15,98.5A98.5,98.5,0,1,1,6.031385485800715e-15,-98.5Z" fill-rule="evenodd" id="p-type-root" style="stroke: #fff; opacity: 1;"></path><path d="M8.529667153919608e-15,-139.30003589374985A139.30003589374985,139.30003589374985,0,1,1,-96.66872680798673,-100.29784273513975L-68.35511225459722,-70.92128473639922A98.5,98.5,0,1,0,6.031385485800715e-15,-98.5Z" fill-rule="evenodd" style="fill: #0B1F65; stroke: #fff; opacity: 1;" id="p-type-data"></path><path d="M-96.66872680798673,-100.29784273513975A139.30003589374985,139.30003589374985,0,0,1,-1.3108969045432923,-139.29386759403897L-0.9269440906390164,-98.49563835344604A98.5,98.5,0,0,0,-68.35511225459722,-70.92128473639922Z" fill-rule="evenodd" style="fill: #D7A449; stroke: #fff; opacity: 1;" id="p-type-value"></path><path d="M1.0446666101440332e-14,-170.6070045455344A170.6070045455344,170.6070045455344,0,0,1,170.57128991910713,3.4907098607446962L139.27087502338287,2.850152666308743A139.30003589374985,139.30003589374985,0,0,0,8.529667153919608e-15,-139.30003589374985Z" fill-rule="evenodd" style="fill: #DB3F29; stroke: #fff; opacity: 1;" id="p-type-functions"></path><path d="M170.57128991910713,3.4907098607446962A170.6070045455344,170.6070045455344,0,0,1,20.407153447243815,169.38210675328327L16.662371016142032,138.29991103439087A139.30003589374985,139.30003589374985,0,0,0,139.27087502338287,2.850152666308743Z" fill-rule="evenodd" style="fill: #1DC690; stroke: #fff; opacity: 1;" id="p-type-logs"></path><path d="M20.407153447243815,169.38210675328327A170.6070045455344,170.6070045455344,0,0,1,-155.76206593772253,69.60552287579324L-127.17919427638947,56.8326714417718A139.30003589374985,139.30003589374985,0,0,0,16.662371016142032,138.29991103439087Z" fill-rule="evenodd" style="fill: #D7A449; stroke: #fff; opacity: 1;" id="p-type-tokenTransfers"></path><path d="M-155.76206593772253,69.60552287579324A170.6070045455344,170.6070045455344,0,0,1,-170.37143808777182,8.962314651055685L-139.10769668640543,7.317699269785432A139.30003589374985,139.30003589374985,0,0,0,-127.17919427638947,56.8326714417718Z" fill-rule="evenodd" style="fill: #414552; stroke: #fff; opacity: 1;" id="p-type-ether"></path><path d="M-118.39452738203636,-122.83926850150256A170.6070045455344,170.6070045455344,0,0,1,-22.412559768643415,-169.12843393296404L-18.299778420935652,-138.09278804392594A139.30003589374985,139.30003589374985,0,0,0,-96.66872680798673,-100.29784273513975Z" fill-rule="evenodd" style="fill: #D7A449; stroke: #fff; opacity: 1;" id="p-type-tokenTransfers"></path><path d="M-22.412559768643415,-169.12843393296404A170.6070045455344,170.6070045455344,0,0,1,-3.210886335012438,-170.5767868408349L-2.621677714285213,-139.2753632411792A139.30003589374985,139.30003589374985,0,0,0,-18.299778420935652,-138.09278804392594Z" fill-rule="evenodd" style="fill: #414552; stroke: #fff; opacity: 1;" id="p-type-ether"></path><path d="M1.206277097160143e-14,-197A197,197,0,0,1,7.506540270211918,-196.85693244885152L6.500854568534425,-170.4831044117826A170.6070045455344,170.6070045455344,0,0,0,1.0446666101440332e-14,-170.6070045455344Z" fill-rule="evenodd" style="fill: #DB3F29; stroke: #fff; opacity: 1;" id="p-type-functions"></path><path d="M7.506540270211918,-196.85693244885152A197,197,0,0,1,9.502612492476139,-196.77067961415855L8.2295038208037,-170.4084072657901A170.6070045455344,170.6070045455344,0,0,0,6.500854568534425,-170.4831044117826Z" fill-rule="evenodd" style="fill: #DB3F29; stroke: #fff; opacity: 1;" id="p-type-functions"></path><path d="M-179.8585413973527,80.37353473884777A197,197,0,0,1,-189.64074056845533,53.342192649419914L-164.2336989247765,46.195693927961194A170.6070045455344,170.6070045455344,0,0,0,-155.76206593772253,69.60552287579324Z" fill-rule="evenodd" style="fill: #414552; stroke: #fff; opacity: 1;" id="p-type-ether"></path><path d="M-189.64074056845533,53.342192649419914A197,197,0,0,1,-191.5355826033444,46.07733278736334L-165.87468026314903,39.90414073248629A170.6070045455344,170.6070045455344,0,0,0,-164.2336989247765,46.195693927961194Z" fill-rule="evenodd" style="fill: #414552; stroke: #fff; opacity: 1;" id="p-type-ether"></path><path d="M-191.5355826033444,46.07733278736334A197,197,0,0,1,-192.5716385689512,41.535093822805145L-166.77193104910694,35.97044639911937A170.6070045455344,170.6070045455344,0,0,0,-165.87468026314903,39.90414073248629Z" fill-rule="evenodd" style="fill: #414552; stroke: #fff; opacity: 1;" id="p-type-ether"></path><path d="M-192.5716385689512,41.535093822805145A197,197,0,0,1,-192.99200924220975,39.53586180488319L-167.13598273115483,34.239060683539726A170.6070045455344,170.6070045455344,0,0,0,-166.77193104910694,35.97044639911937Z" fill-rule="evenodd" style="fill: #414552; stroke: #fff; opacity: 1;" id="p-type-ether"></path><path d="M-192.99200924220975,39.53586180488319A197,197,0,0,1,-193.38304374420383,37.57656706282986L-167.47462854363786,32.54226166342027A170.6070045455344,170.6070045455344,0,0,0,-167.13598273115483,34.239060683539726Z" fill-rule="evenodd" style="fill: #414552; stroke: #fff; opacity: 1;" id="p-type-ether"></path><path d="M-193.38304374420383,37.57656706282986A197,197,0,0,1,-193.74802583306746,35.64691411313213L-167.7907123045201,30.87113318849445A170.6070045455344,170.6070045455344,0,0,0,-167.47462854363786,32.54226166342027Z" fill-rule="evenodd" style="fill: #414552; stroke: #fff; opacity: 1;" id="p-type-ether"></path><path d="M-193.74802583306746,35.64691411313213A197,197,0,0,1,-193.95826850172585,34.48463541655077L-167.9727877965377,29.864570310977534A170.6070045455344,170.6070045455344,0,0,0,-167.7907123045201,30.87113318849445Z" fill-rule="evenodd" style="fill: #414552; stroke: #fff; opacity: 1;" id="p-type-ether"></path></g></svg>