<svg xmlns="http://www.w3.org/2000/svg" width="400" height="400" id="block-7824865"><g id="burst-container" transform="translate(200,200)"><circle r="197" style="fill: #f9f9f9; stroke: #f9f9f9; stroke-width: 3; opacity: 1;" id="circle-base"></circle><path display="none" d="M6.031385485800715e-15,-98.5A98.5,98.5,0,1,1,-6.031385485800715e-15,98.5A98.5,98.5,0,1,1,6.031385485800715e-15,-98.5Z" fill-rule="evenodd" id="p-type-root" style="stroke: #fff; opacity: 1;"></path><path d="M8.529667153919608e-15,-139.30003589374985A139.30003589374985,139.30003589374985,0,1,1,-106.25550788114684,-90.07922648934957L-75.13399016117958,-63.695631894657964A98.5,98.5,0,1,0,6.031385485800715e-15,-98.5Z" fill-rule="evenodd" style="fill: #0B1F65; stroke: #fff; opacity: 1;" id="p-type-data"></path><path d="M-106.25550788114684,-90.07922648934957A139.30003589374985,139.30003589374985,0,0,1,-2.6560421977399025,-139.27471213340854L-1.8781054491395062,-98.48209339733752A98.5,98.5,0,0,0,-75.13399016117958,-63.695631894657964Z" fill-rule="evenodd" style="fill: #D7A449; stroke: #fff; opacity: 1;" id="p-type-value"></path><path d="M1.0446666101440332e-14,-170.6070045455344A170.6070045455344,170.6070045455344,0,0,1,170.60669298120462,0.326052169111505L139.29978150253984,0.26622048128361253A139.30003589374985,139.30003589374985,0,0,0,8.529667153919608e-15,-139.30003589374985Z" fill-rule="evenodd" style="fill: #DB3F29; stroke: #fff; opacity: 1;" id="p-type-functions"></path><path d="M170.60669298120462,0.326052169111505A170.6070045455344,170.6070045455344,0,0,1,58.26341399662486,160.35000651530356L47.57187832142082,130.92523207148395A139.30003589374985,139.30003589374985,0,0,0,139.29978150253984,0.26622048128361253Z" fill-rule="evenodd" style="fill: #1DC690; stroke: #fff; opacity: 1;" id="p-type-logs"></path><path d="M58.26341399662486,160.35000651530356A170.6070045455344,170.6070045455344,0,0,1,-125.223551035011,115.86980739684516L-102.24460127171508,94.6073015722782A139.30003589374985,139.30003589374985,0,0,0,47.57187832142082,130.92523207148395Z" fill-rule="evenodd" style="fill: #D7A449; stroke: #fff; opacity: 1;" id="p-type-tokenTransfers"></path><path d="M-125.223551035011,115.86980739684516A170.6070045455344,170.6070045455344,0,0,1,-167.43893879423885,32.72539954621078L-136.71332103966282,26.720176838974858A139.30003589374985,139.30003589374985,0,0,0,-102.24460127171508,94.6073015722782Z" fill-rule="evenodd" style="fill: #414552; stroke: #fff; opacity: 1;" id="p-type-ether"></path><path d="M-130.13588833454318,-110.32407066175226A170.6070045455344,170.6070045455344,0,0,1,-55.87981308327674,-161.19614291222373L-45.62567632537586,-131.61609954656777A139.30003589374985,139.30003589374985,0,0,0,-106.25550788114684,-90.07922648934957Z" fill-rule="evenodd" style="fill: #D7A449; stroke: #fff; opacity: 1;" id="p-type-tokenTransfers"></path><path d="M-55.87981308327674,-161.19614291222373A170.6070045455344,170.6070045455344,0,0,1,-6.504765384454284,-170.48295523979283L-5.311118696143948,-139.19875005974538A139.30003589374985,139.30003589374985,0,0,0,-45.62567632537586,-131.61609954656777Z" fill-rule="evenodd" style="fill: #414552; stroke: #fff; opacity: 1;" id="p-type-ether"></path><path d="M1.206277097160143e-14,-197A197,197,0,0,1,15.011189521262745,-196.42724910041562L13.000071466436303,-170.11098771645393A170.6070045455344,170.6070045455344,0,0,0,1.0446666101440332e-14,-170.6070045455344Z" fill-rule="evenodd" style="fill: #DB3F29; stroke: #fff; opacity: 1;" id="p-type-functions"></path><path d="M15.011189521262745,-196.42724910041562A197,197,0,0,1,24.354383317694186,-195.4887823206611L21.091514646627104,-169.29825164457876A170.6070045455344,170.6070045455344,0,0,0,13.000071466436303,-170.11098771645393Z" fill-rule="evenodd" style="fill: #DB3F29; stroke: #fff; opacity: 1;" id="p-type-functions"></path><path d="M24.354383317694186,-195.4887823206611A197,197,0,0,1,27.75876415519638,-195.0344867262613L24.03979493606095,-168.90482011900116A170.6070045455344,170.6070045455344,0,0,0,21.091514646627104,-169.29825164457876Z" fill-rule="evenodd" style="fill: #DB3F29; stroke: #fff; opacity: 1;" id="p-type-functions"></path><path d="M27.75876415519638,-195.0344867262613A197,197,0,0,1,29.616954219522533,-194.76097150804804L25.649034736827236,-168.66794899170685A170.6070045455344,170.6070045455344,0,0,0,24.03979493606095,-168.90482011900116Z" fill-rule="evenodd" style="fill: #DB3F29; stroke: #fff; opacity: 1;" id="p-type-functions"></path><path d="M29.616954219522533,-194.76097150804804A197,197,0,0,1,31.472452146369932,-194.46975280463144L27.25594307814644,-168.41574619649091A170.6070045455344,170.6070045455344,0,0,0,25.649034736827236,-168.66794899170685Z" fill-rule="evenodd" style="fill: #DB3F29; stroke: #fff; opacity: 1;" id="p-type-functions"></path><path d="M31.472452146369932,-194.46975280463144A197,197,0,0,1,33.325089273712265,-194.16085708736225L28.86037389441913,-168.14823465821556A170.6070045455344,170.6070045455344,0,0,0,27.25594307814644,-168.41574619649091Z" fill-rule="evenodd" style="fill: #DB3F29; stroke: #fff; opacity: 1;" id="p-type-functions"></path><path d="M33.325089273712265,-194.16085708736225A197,197,0,0,1,35.174697199565806,-193.83431243440583L30.462181345249338,-167.86543869328534A170.6070045455344,170.6070045455344,0,0,0,28.86037389441913,-168.14823465821556Z" fill-rule="evenodd" style="fill: #DB3F29; stroke: #fff; opacity: 1;" id="p-type-functions"></path><path d="M35.174697199565806,-193.83431243440583A197,197,0,0,1,37.0211077972966,-193.4901485281898L32.06121982870101,-167.56738400743657A170.6070045455344,170.6070045455344,0,0,0,30.462181345249338,-167.86543869328534Z" fill-rule="evenodd" style="fill: #DB3F29; stroke: #fff; opacity: 1;" id="p-type-functions"></path><path d="M37.0211077972966,-193.4901485281898A197,197,0,0,1,38.86415323090329,-193.12839665270582L33.65734399453331,-167.25409769340078A170.6070045455344,170.6070045455344,0,0,0,32.06121982870101,-167.56738400743657Z" fill-rule="evenodd" style="fill: #DB3F29; stroke: #fff; opacity: 1;" id="p-type-functions"></path><path d="M38.86415323090329,-193.12839665270582A197,197,0,0,1,40.703665970272844,-192.74908969066612L35.25040875741245,-166.9256082284421A170.6070045455344,170.6070045455344,0,0,0,33.65734399453331,-167.25409769340078Z" fill-rule="evenodd" style="fill: #DB3F29; stroke: #fff; opacity: 1;" id="p-type-functions"></path><path d="M40.703665970272844,-192.74908969066612A197,197,0,0,1,42.53947880640892,-192.3522621205144L36.840269310099856,-166.58194547176868A170.6070045455344,170.6070045455344,0,0,0,35.25040875741245,-166.9256082284421Z" fill-rule="evenodd" style="fill: #DB3F29; stroke: #fff; opacity: 1;" id="p-type-functions"></path><path d="M42.53947880640892,-192.3522621205144A197,197,0,0,1,44.37142486663107,-191.93795001329184L38.42678113661505,-166.22314066181846A170.6070045455344,170.6070045455344,0,0,0,36.840269310099856,-166.58194547176868Z" fill-rule="evenodd" style="fill: #DB3F29; stroke: #fff; opacity: 1;" id="p-type-functions"></path><path d="M44.37142486663107,-191.93795001329184A197,197,0,0,1,46.19933762974292,-191.50619102935818L40.00980002537172,-165.84922641341976A170.6070045455344,170.6070045455344,0,0,0,38.42678113661505,-166.22314066181846Z" fill-rule="evenodd" style="fill: #DB3F29; stroke: #fff; opacity: 1;" id="p-type-functions"></path><path d="M46.19933762974292,-191.50619102935818A197,197,0,0,1,48.02305094116889,-191.05702441496857L41.589182082286456,-165.4602367148265A170.6070045455344,170.6070045455344,0,0,0,40.00980002537172,-165.84922641341976Z" fill-rule="evenodd" style="fill: #DB3F29; stroke: #fff; opacity: 1;" id="p-type-functions"></path><path d="M48.02305094116889,-191.05702441496857A197,197,0,0,1,49.842399028057486,-190.59049099870617L43.16478374385859,-165.05620692462892A170.6070045455344,170.6070045455344,0,0,0,41.589182082286456,-165.4602367148265Z" fill-rule="evenodd" style="fill: #DB3F29; stroke: #fff; opacity: 1;" id="p-type-functions"></path><path d="M49.842399028057486,-190.59049099870617A197,197,0,0,1,51.65721651434954,-190.1066331877707L44.736461790219735,-164.6371737685393A170.6070045455344,170.6070045455344,0,0,0,43.16478374385859,-165.05620692462892Z" fill-rule="evenodd" style="fill: #DB3F29; stroke: #fff; opacity: 1;" id="p-type-functions"></path><path d="M51.65721651434954,-190.1066331877707A197,197,0,0,1,53.467338435810824,-189.60549496412403L46.30407335815231,-164.20317533605385A170.6070045455344,170.6070045455344,0,0,0,44.736461790219735,-164.6371737685393Z" fill-rule="evenodd" style="fill: #DB3F29; stroke: #fff; opacity: 1;" id="p-type-functions"></path><path d="M53.467338435810824,-189.60549496412403A197,197,0,0,1,55.272600255027164,-189.08712188049182L47.867475954075765,-163.7542510769903A170.6070045455344,170.6070045455344,0,0,0,46.30407335815231,-164.20317533605385Z" fill-rule="evenodd" style="fill: #DB3F29; stroke: #fff; opacity: 1;" id="p-type-functions"></path><path d="M55.272600255027164,-189.08712188049182A197,197,0,0,1,57.072837876360374,-188.55156105622325L49.42652746699879,-163.29044179790196A170.6070045455344,170.6070045455344,0,0,0,47.867475954075765,-163.7542510769903Z" fill-rule="evenodd" style="fill: #DB3F29; stroke: #fff; opacity: 1;" id="p-type-functions"></path><path d="M57.072837876360374,-188.55156105622325A197,197,0,0,1,58.86788766086447,-187.99886117300775L50.98108618143713,-162.81178965836867A170.6070045455344,170.6070045455344,0,0,0,49.42652746699879,-163.29044179790196Z" fill-rule="evenodd" style="fill: #DB3F29; stroke: #fff; opacity: 1;" id="p-type-functions"></path><path d="M58.86788766086447,-187.99886117300775A197,197,0,0,1,60.657586441160234,-187.42907247044994L52.53101079029528,-162.31833816716423A170.6070045455344,170.6070045455344,0,0,0,50.98108618143713,-162.81178965836867Z" fill-rule="evenodd" style="fill: #DB3F29; stroke: #fff; opacity: 1;" id="p-type-functions"></path><path d="M60.657586441160234,-187.42907247044994A197,197,0,0,1,62.441771536266764,-186.84224674150292L54.076160407711086,-161.81013217830179A170.6070045455344,170.6070045455344,0,0,0,52.53101079029528,-162.31833816716423Z" fill-rule="evenodd" style="fill: #DB3F29; stroke: #fff; opacity: 1;" id="p-type-functions"></path><path d="M62.441771536266764,-186.84224674150292A197,197,0,0,1,64.22028076638917,-186.2384373277604L55.61639458186219,-161.28721788695657A170.6070045455344,170.6070045455344,0,0,0,54.076160407711086,-161.81013217830179Z" fill-rule="evenodd" style="fill: #DB3F29; stroke: #fff; opacity: 1;" id="p-type-functions"></path><path d="M64.22028076638917,-186.2384373277604A197,197,0,0,1,65.99295246766016,-185.617699114608L57.15157330773265,-160.74964282526685A170.6070045455344,170.6070045455344,0,0,0,55.61639458186219,-161.28721788695657Z" fill-rule="evenodd" style="fill: #DB3F29; stroke: #fff; opacity: 1;" id="p-type-functions"></path><path d="M65.99295246766016,-185.617699114608A197,197,0,0,1,67.75962550683523,-184.9800885262342L58.68155703983933,-160.19745585801317A170.6070045455344,170.6070045455344,0,0,0,57.15157330773265,-160.74964282526685Z" fill-rule="evenodd" style="fill: #DB3F29; stroke: #fff; opacity: 1;" id="p-type-functions"></path><path d="M67.75962550683523,-184.9800885262342A197,197,0,0,1,69.52013929593957,-184.32566352050156L60.20620670491648,-159.63070717817692A170.6070045455344,170.6070045455344,0,0,0,58.68155703983933,-160.19745585801317Z" fill-rule="evenodd" style="fill: #DB3F29; stroke: #fff; opacity: 1;" id="p-type-functions"></path><path d="M69.52013929593957,-184.32566352050156A197,197,0,0,1,71.27433380686493,-183.65448358367837L61.72538371455706,-159.0494483023776A170.6070045455344,170.6070045455344,0,0,0,60.20620670491648,-159.63070717817692Z" fill-rule="evenodd" style="fill: #DB3F29; stroke: #fff; opacity: 1;" id="p-type-functions"></path><path d="M71.27433380686493,-183.65448358367837A197,197,0,0,1,73.02204958591622,-182.96660972503147L63.2389499778104,-158.45373206619018A170.6070045455344,170.6070045455344,0,0,0,61.72538371455706,-159.0494483023776Z" fill-rule="evenodd" style="fill: #DB3F29; stroke: #fff; opacity: 1;" id="p-type-functions"></path><path d="M73.02204958591622,-182.96660972503147A197,197,0,0,1,74.76312776830555,-182.26210447128065L64.74676791373439,-157.84361261934237A170.6070045455344,170.6070045455344,0,0,0,63.2389499778104,-158.45373206619018Z" fill-rule="evenodd" style="fill: #DB3F29; stroke: #fff; opacity: 1;" id="p-type-functions"></path><path d="M74.76312776830555,-182.26210447128065A197,197,0,0,1,76.49741009259267,-181.54103186091484L66.24870046390136,-157.21914542079242A170.6070045455344,170.6070045455344,0,0,0,64.74676791373439,-157.84361261934237Z" fill-rule="evenodd" style="fill: #DB3F29; stroke: #fff; opacity: 1;" id="p-type-functions"></path><path d="M76.49741009259267,-181.54103186091484A197,197,0,0,1,78.224738915071,-180.8034574383714L67.74461110485665,-156.58038723368816A170.6070045455344,170.6070045455344,0,0,0,66.24870046390136,-157.21914542079242Z" fill-rule="evenodd" style="fill: #DB3F29; stroke: #fff; opacity: 1;" id="p-type-functions"></path><path d="M78.224738915071,-180.8034574383714A197,197,0,0,1,79.94495722409685,-180.04944824807802L69.23436386052815,-155.92739612020713A170.6070045455344,170.6070045455344,0,0,0,67.74461110485665,-156.58038723368816Z" fill-rule="evenodd" style="fill: #DB3F29; stroke: #fff; opacity: 1;" id="p-type-functions"></path><path d="M79.94495722409685,-180.04944824807802A197,197,0,0,1,81.65790865436178,-179.2790728283586L70.71782331458645,-155.26023143627904A170.6070045455344,170.6070045455344,0,0,0,69.23436386052815,-155.92739612020713Z" fill-rule="evenodd" style="fill: #DB3F29; stroke: #fff; opacity: 1;" id="p-type-functions"></path><path d="M81.65790865436178,-179.2790728283586A197,197,0,0,1,83.36343750110596,-178.49240120520312L72.19485462275411,-154.57895382619006A170.6070045455344,170.6070045455344,0,0,0,70.71782331458645,-155.26023143627904Z" fill-rule="evenodd" style="fill: #DB3F29; stroke: #fff; opacity: 1;" id="p-type-functions"></path><path d="M83.36343750110596,-178.49240120520312A197,197,0,0,1,85.06138873427143,-177.6895048859025L73.6653235250625,-153.8836252170707A170.6070045455344,170.6070045455344,0,0,0,72.19485462275411,-154.57895382619006Z" fill-rule="evenodd" style="fill: #DB3F29; stroke: #fff; opacity: 1;" id="p-type-functions"></path><path d="M85.06138873427143,-177.6895048859025A197,197,0,0,1,86.7516080125941,-176.8704568525485L75.12909635805615,-153.17430881326644A170.6070045455344,170.6070045455344,0,0,0,73.6653235250625,-153.8836252170707Z" fill-rule="evenodd" style="fill: #DB3F29; stroke: #fff; opacity: 1;" id="p-type-functions"></path><path d="M86.7516080125941,-176.8704568525485A197,197,0,0,1,88.43394169763322,-176.0353315554L76.58604006694232,-152.45106909059282A170.6070045455344,170.6070045455344,0,0,0,75.12909635805615,-153.17430881326644Z" fill-rule="evenodd" style="fill: #DB3F29; stroke: #fff; opacity: 1;" id="p-type-functions"></path><path d="M88.43394169763322,-176.0353315554A197,197,0,0,1,90.10823686773679,-175.18420490611544L78.03602221768558,-151.71397179047446A170.6070045455344,170.6070045455344,0,0,0,76.58604006694232,-152.45106909059282Z" fill-rule="evenodd" style="fill: #DB3F29; stroke: #fff; opacity: 1;" id="p-type-functions"></path><path d="M90.10823686773679,-175.18420490611544A197,197,0,0,1,91.77434133194207,-174.31715427085248L79.47891100904602,-150.9630839139693A170.6070045455344,170.6070045455344,0,0,0,78.03602221768558,-151.71397179047446Z" fill-rule="evenodd" style="fill: #DB3F29; stroke: #fff; opacity: 1;" id="p-type-functions"></path><path d="M91.77434133194207,-174.31715427085248A197,197,0,0,1,93.43210364380933,-173.43425846323578L80.91457528455949,-150.19847371567846A170.6070045455344,170.6070045455344,0,0,0,79.47891100904602,-150.9630839139693Z" fill-rule="evenodd" style="fill: #DB3F29; stroke: #fff; opacity: 1;" id="p-type-functions"></path><path d="M93.43210364380933,-173.43425846323578A197,197,0,0,1,95.08137311518816,-172.5355977371927L82.3428845444597,-149.4202106975418A170.6070045455344,170.6070045455344,0,0,0,80.91457528455949,-150.19847371567846Z" fill-rule="evenodd" style="fill: #DB3F29; stroke: #fff; opacity: 1;" id="p-type-functions"></path><path d="M95.08137311518816,-172.5355977371927A197,197,0,0,1,96.72199982991495,-171.62125377965845L83.7637089575405,-148.62836560252032A170.6070045455344,170.6070045455344,0,0,0,82.3428845444597,-149.4202106975418Z" fill-rule="evenodd" style="fill: #DB3F29; stroke: #fff; opacity: 1;" id="p-type-functions"></path><path d="M96.72199982991495,-171.62125377965845A197,197,0,0,1,98.35383465743986,-170.69130970315092L85.17691937295727,-147.82301040816594A170.6070045455344,170.6070045455344,0,0,0,83.7637089575405,-148.62836560252032Z" fill-rule="evenodd" style="fill: #DB3F29; stroke: #fff; opacity: 1;" id="p-type-functions"></path><path d="M98.35383465743986,-170.69130970315092A197,197,0,0,1,99.97672926638255,-169.7458500382158L86.58238733196644,-147.0042183200786A170.6070045455344,170.6070045455344,0,0,0,85.17691937295727,-147.82301040816594Z" fill-rule="evenodd" style="fill: #DB3F29; stroke: #fff; opacity: 1;" id="p-type-functions"></path><path d="M99.97672926638255,-169.7458500382158A197,197,0,0,1,101.59053613801552,-168.78496072574288L87.9799850796025,-146.1720637652521A170.6070045455344,170.6070045455344,0,0,0,86.58238733196644,-147.0042183200786Z" fill-rule="evenodd" style="fill: #DB3F29; stroke: #fff; opacity: 1;" id="p-type-functions"></path><path d="M101.59053613801552,-168.78496072574288A197,197,0,0,1,103.19510857967315,-167.80872910915411L89.36958557629043,-145.32662238530867A170.6070045455344,170.6070045455344,0,0,0,87.9799850796025,-146.1720637652521Z" fill-rule="evenodd" style="fill: #DB3F29; stroke: #fff; opacity: 1;" id="p-type-functions"></path><path d="M103.19510857967315,-167.80872910915411A197,197,0,0,1,104.79030073808586,-166.81724392646439L90.75106250939356,-144.46797102962353A170.6070045455344,170.6070045455344,0,0,0,89.36958557629043,-145.32662238530867Z" fill-rule="evenodd" style="fill: #DB3F29; stroke: #fff; opacity: 1;" id="p-type-functions"></path><path d="M104.79030073808586,-166.81724392646439A197,197,0,0,1,106.37596761263795,-165.81059530221523L92.12429030469515,-143.5961877483391A170.6070045455344,170.6070045455344,0,0,0,90.75106250939356,-144.46797102962353Z" fill-rule="evenodd" style="fill: #DB3F29; stroke: #fff; opacity: 1;" id="p-type-functions"></path><path d="M106.37596761263795,-165.81059530221523A197,197,0,0,1,107.95196506854808,-164.78887473928262L93.48914413781296,-142.7113517852705A170.6070045455344,170.6070045455344,0,0,0,92.12429030469515,-143.5961877483391Z" fill-rule="evenodd" style="fill: #DB3F29; stroke: #fff; opacity: 1;" id="p-type-functions"></path><path d="M107.95196506854808,-164.78887473928262A197,197,0,0,1,109.51814984997075,-163.75217511055953L94.84549994554557,-141.81354357070242A170.6070045455344,170.6070045455344,0,0,0,93.48914413781296,-142.7113517852705Z" fill-rule="evenodd" style="fill: #DB3F29; stroke: #fff; opacity: 1;" id="p-type-functions"></path><path d="M109.51814984997075,-163.75217511055953A197,197,0,0,1,111.07437959301812,-162.700590650514L96.19323443714953,-140.90284471407804A170.6070045455344,170.6070045455344,0,0,0,94.84549994554557,-141.81354357070242Z" fill-rule="evenodd" style="fill: #DB3F29; stroke: #fff; opacity: 1;" id="p-type-functions"></path><path d="M111.07437959301812,-162.700590650514A197,197,0,0,1,112.62051283870068,-161.6342169466232L97.5322251055463,-139.97933799658094A170.6070045455344,170.6070045455344,0,0,0,96.19323443714953,-140.90284471407804Z" fill-rule="evenodd" style="fill: #DB3F29; stroke: #fff; opacity: 1;" id="p-type-functions"></path><path d="M112.62051283870068,-161.6342169466232A197,197,0,0,1,114.15640904578558,-160.5531509306849L98.86235023845799,-139.0431073636103A170.6070045455344,170.6070045455344,0,0,0,97.5322251055463,-139.97933799658094Z" fill-rule="evenodd" style="fill: #DB3F29; stroke: #fff; opacity: 1;" id="p-type-functions"></path><path d="M114.15640904578558,-160.5531509306849A197,197,0,0,1,115.68192860357178,-159.45749087000624L100.18348892947085,-138.0942379171506A170.6070045455344,170.6070045455344,0,0,0,98.86235023845799,-139.0431073636103Z" fill-rule="evenodd" style="fill: #DB3F29; stroke: #fff; opacity: 1;" id="p-type-functions"></path><path d="M115.68192860357178,-159.45749087000624A197,197,0,0,1,117.1969328445803,-158.34733635847158L101.4955210890254,-137.13281590803567A170.6070045455344,170.6070045455344,0,0,0,100.18348892947085,-138.0942379171506Z" fill-rule="evenodd" style="fill: #DB3F29; stroke: #fff; opacity: 1;" id="p-type-functions"></path><path d="M117.1969328445803,-158.34733635847158A197,197,0,0,1,118.70128405715899,-157.22278830748948L102.79832745533245,-136.1589287281089A170.6070045455344,170.6070045455344,0,0,0,101.4955210890254,-137.13281590803567Z" fill-rule="evenodd" style="fill: #DB3F29; stroke: #fff; opacity: 1;" id="p-type-functions"></path><path d="M118.70128405715899,-157.22278830748948A197,197,0,0,1,120.19484549800023,-156.08394893682006L104.09178960521388,-135.17266490227928A170.6070045455344,170.6070045455344,0,0,0,102.79832745533245,-136.1589287281089Z" fill-rule="evenodd" style="fill: #DB3F29; stroke: #fff; opacity: 1;" id="p-type-functions"></path><path d="M120.19484549800023,-156.08394893682006A197,197,0,0,1,121.67748140457084,-154.93092176528324L105.37578996486698,-134.17411408047468A170.6070045455344,170.6070045455344,0,0,0,104.09178960521388,-135.17266490227928Z" fill-rule="evenodd" style="fill: #DB3F29; stroke: #fff; opacity: 1;" id="p-type-functions"></path><path d="M121.67748140457084,-154.93092176528324A197,197,0,0,1,123.14905700745248,-153.7638116013492L106.65021182055189,-133.1633670294928A170.6070045455344,170.6070045455344,0,0,0,105.37578996486698,-134.17411408047468Z" fill-rule="evenodd" style="fill: #DB3F29; stroke: #fff; opacity: 1;" id="p-type-functions"></path><path d="M123.14905700745248,-153.7638116013492A197,197,0,0,1,124.6094385425922,-152.5827245336114L107.91493932920059,-132.14051562475058A170.6070045455344,170.6070045455344,0,0,0,106.65021182055189,-133.1633670294928Z" fill-rule="evenodd" style="fill: #DB3F29; stroke: #fff; opacity: 1;" id="p-type-functions"></path><path d="M124.6094385425922,-152.5827245336114A197,197,0,0,1,126.05849326346126,-151.38776792114314L109.16985752894698,-131.10565284193285A170.6070045455344,170.6070045455344,0,0,0,107.91493932920059,-132.14051562475058Z" fill-rule="evenodd" style="fill: #DB3F29; stroke: #fff; opacity: 1;" id="p-type-functions"></path><path d="M126.05849326346126,-151.38776792114314A197,197,0,0,1,127.49608945312166,-150.17905038373894L110.41485234957659,-130.05887274854106A170.6070045455344,170.6070045455344,0,0,0,109.16985752894698,-131.10565284193285Z" fill-rule="evenodd" style="fill: #DB3F29; stroke: #fff; opacity: 1;" id="p-type-functions"></path><path d="M127.49608945312166,-150.17905038373894A197,197,0,0,1,128.922096436199,-148.95668179204114L111.64981062289559,-129.00027049534256A170.6070045455344,170.6070045455344,0,0,0,110.41485234957659,-130.05887274854106Z" fill-rule="evenodd" style="fill: #DB3F29; stroke: #fff; opacity: 1;" id="p-type-functions"></path><path d="M128.922096436199,-148.95668179204114A197,197,0,0,1,130.33638459076067,-147.7207732575528L112.87462009301738,-127.92994230772166A170.6070045455344,170.6070045455344,0,0,0,111.64981062289559,-129.00027049534256Z" fill-rule="evenodd" style="fill: #DB3F29; stroke: #fff; opacity: 1;" id="p-type-functions"></path><path d="M130.33638459076067,-147.7207732575528A197,197,0,0,1,131.73882536009825,-146.47143712253776L114.08916942656674,-126.84798547693278A170.6070045455344,170.6070045455344,0,0,0,112.87462009301738,-127.92994230772166Z" fill-rule="evenodd" style="fill: #DB3F29; stroke: #fff; opacity: 1;" id="p-type-functions"></path><path d="M131.73882536009825,-146.47143712253776A197,197,0,0,1,133.12929126441327,-145.208786949809L115.29334822279964,-125.75449835125684A170.6070045455344,170.6070045455344,0,0,0,114.08916942656674,-126.84798547693278Z" fill-rule="evenodd" style="fill: #DB3F29; stroke: #fff; opacity: 1;" id="p-type-functions"></path><path d="M133.12929126441327,-145.208786949809A197,197,0,0,1,133.91645018358196,-144.48316292990063L115.97504784361523,-125.12608951642002A170.6070045455344,170.6070045455344,0,0,0,115.29334822279964,-125.75449835125684Z" fill-rule="evenodd" style="fill: #DB3F29; stroke: #fff; opacity: 1;" id="p-type-functions"></path><path d="M196.99964023650065,0.3764926152127776A197,197,0,0,1,196.98709728119996,2.2546628854563933L170.5958304632757,1.9525953357751604A170.6070045455344,170.6070045455344,0,0,0,170.60669298120462,0.326052169111505Z" fill-rule="evenodd" style="fill: #1DC690; stroke: #fff; opacity: 1;" id="p-type-logs"></path><path d="M196.98709728119996,2.2546628854563933A197,197,0,0,1,196.95664848914475,4.1326282101674305L170.56946103584133,3.578961014401211A170.6070045455344,170.6070045455344,0,0,0,170.5958304632757,1.9525953357751604Z" fill-rule="evenodd" style="fill: #1DC690; stroke: #fff; opacity: 1;" id="p-type-logs"></path><path d="M196.95664848914475,4.1326282101674305A197,197,0,0,1,196.9082966280853,6.010217885066273L170.5275870958436,5.205001370746973A170.6070045455344,170.6070045455344,0,0,0,170.56946103584133,3.578961014401211Z" fill-rule="evenodd" style="fill: #1DC690; stroke: #fff; opacity: 1;" id="p-type-logs"></path><path d="M196.9082966280853,6.010217885066273A197,197,0,0,1,196.8420460931345,7.887261240019318L170.47021244956187,6.830568600141082A170.6070045455344,170.6070045455344,0,0,0,170.5275870958436,5.205001370746973Z" fill-rule="evenodd" style="fill: #1DC690; stroke: #fff; opacity: 1;" id="p-type-logs"></path><path d="M196.8420460931345,7.887261240019318A197,197,0,0,1,196.75790290636834,9.763587654552643L170.397342312267,8.455514940918713A170.6070045455344,170.6070045455344,0,0,0,170.47021244956187,6.830568600141082Z" fill-rule="evenodd" style="fill: #1DC690; stroke: #fff; opacity: 1;" id="p-type-logs"></path><path d="M196.75790290636834,9.763587654552643A197,197,0,0,1,196.65587471627842,11.639026573361152L170.30898330774698,10.079692687852903A170.6070045455344,170.6070045455344,0,0,0,170.397342312267,8.455514940918713Z" fill-rule="evenodd" style="fill: #1DC690; stroke: #fff; opacity: 1;" id="p-type-logs"></path><path d="M196.65587471627842,11.639026573361152A197,197,0,0,1,196.53597079707683,13.5134075218118L170.2051434677051,11.702954205580733A170.6070045455344,170.6070045455344,0,0,0,170.30898330774698,10.079692687852903Z" fill-rule="evenodd" style="fill: #1DC690; stroke: #fff; opacity: 1;" id="p-type-logs"></path><path d="M196.53597079707683,13.5134075218118A197,197,0,0,1,196.3982020478531,15.38656012143949L170.08583223102974,13.325151942023176A170.6070045455344,170.6070045455344,0,0,0,170.2051434677051,11.702954205580733Z" fill-rule="evenodd" style="fill: #1DC690; stroke: #fff; opacity: 1;" id="p-type-logs"></path><path d="M196.3982020478531,15.38656012143949A197,197,0,0,1,196.2425809915834,17.258314105434224L169.9510604429364,14.946138441797347A170.6070045455344,170.6070045455344,0,0,0,170.08583223102974,13.325151942023176Z" fill-rule="evenodd" style="fill: #1DC690; stroke: #fff; opacity: 1;" id="p-type-logs"></path><path d="M196.2425809915834,17.258314105434224A197,197,0,0,1,196.06912177399235,19.1284993341181L169.800840353982,16.565766359619992A170.6070045455344,170.6070045455344,0,0,0,169.9510604429364,14.946138441797347Z" fill-rule="evenodd" style="fill: #1DC690; stroke: #fff; opacity: 1;" id="p-type-logs"></path><path d="M196.06912177399235,19.1284993341181A197,197,0,0,1,195.87784016226715,20.99694581041076L169.63518561895114,18.183888473700954A170.6070045455344,170.6070045455344,0,0,0,169.800840353982,16.565766359619992Z" fill-rule="evenodd" style="fill: #1DC690; stroke: #fff; opacity: 1;" id="p-type-logs"></path><path d="M195.87784016226715,20.99694581041076A197,197,0,0,1,195.6687535436243,22.863483695281875L169.45411129561504,19.800357699125414A170.6070045455344,170.6070045455344,0,0,0,169.63518561895114,18.183888473700954Z" fill-rule="evenodd" style="fill: #1DC690; stroke: #fff; opacity: 1;" id="p-type-logs"></path><path d="M195.6687535436243,22.863483695281875A197,197,0,0,1,195.4418809237292,24.727943323189272L169.25763384336275,21.415027101223703A170.6070045455344,170.6070045455344,0,0,0,169.45411129561504,19.800357699125414Z" fill-rule="evenodd" style="fill: #1DC690; stroke: #fff; opacity: 1;" id="p-type-logs"></path><path d="M195.4418809237292,24.727943323189272A197,197,0,0,1,195.19724292496858,26.590155217501263L169.04577112170506,23.02774990892743A170.6070045455344,170.6070045455344,0,0,0,169.25763384336275,21.415027101223703Z" fill-rule="evenodd" style="fill: #1DC690; stroke: #fff; opacity: 1;" id="p-type-logs"></path><path d="M195.19724292496858,26.590155217501263A197,197,0,0,1,194.93486178457587,28.44995010590183L168.81854238865105,24.638379528110768A170.6070045455344,170.6070045455344,0,0,0,169.04577112170506,23.02774990892743Z" fill-rule="evenodd" style="fill: #1DC690; stroke: #fff; opacity: 1;" id="p-type-logs"></path><path d="M194.93486178457587,28.44995010590183A197,197,0,0,1,194.65476135260997,30.307158935777235L168.57596829895758,26.246769554915637A170.6070045455344,170.6070045455344,0,0,0,168.81854238865105,24.638379528110768Z" fill-rule="evenodd" style="fill: #1DC690; stroke: #fff; opacity: 1;" id="p-type-logs"></path><path d="M194.65476135260997,30.307158935777235A197,197,0,0,1,194.35696708978722,32.16161288958264L168.3180709022518,27.85277378905961A170.6070045455344,170.6070045455344,0,0,0,168.57596829895758,26.246769554915637Z" fill-rule="evenodd" style="fill: #1DC690; stroke: #fff; opacity: 1;" id="p-type-logs"></path><path d="M194.35696708978722,32.16161288958264A197,197,0,0,1,194.0415060651671,34.013143400187396L168.04487364102695,29.4562462471253A170.6070045455344,170.6070045455344,0,0,0,168.3180709022518,27.85277378905961Z" fill-rule="evenodd" style="fill: #1DC690; stroke: #fff; opacity: 1;" id="p-type-logs"></path><path d="M194.0415060651671,34.013143400187396A197,197,0,0,1,193.7084069536918,35.86158216619751L167.75640134851128,31.05704117583002A170.6070045455344,170.6070045455344,0,0,0,168.04487364102695,29.4562462471253Z" fill-rule="evenodd" style="fill: #1DC690; stroke: #fff; opacity: 1;" id="p-type-logs"></path><path d="M193.7084069536918,35.86158216619751A197,197,0,0,1,193.3577000335794,37.70676116725402L167.45268024641095,32.65501306527456A170.6070045455344,170.6070045455344,0,0,0,167.75640134851128,31.05704117583002Z" fill-rule="evenodd" style="fill: #1DC690; stroke: #fff; opacity: 1;" id="p-type-logs"></path><path d="M193.3577000335794,37.70676116725402A197,197,0,0,1,192.989417183572,39.54851267930582L167.1337379425264,34.25001666216981A170.6070045455344,170.6070045455344,0,0,0,167.45268024641095,32.65501306527456Z" fill-rule="evenodd" style="fill: #1DC690; stroke: #fff; opacity: 1;" id="p-type-logs"></path><path d="M192.989417183572,39.54851267930582A197,197,0,0,1,192.60359188003773,41.38666928985546L166.7996034282429,35.841906983040104A170.6070045455344,170.6070045455344,0,0,0,167.1337379425264,34.25001666216981Z" fill-rule="evenodd" style="fill: #1DC690; stroke: #fff; opacity: 1;" id="p-type-logs"></path><path d="M192.60359188003773,41.38666928985546A197,197,0,0,1,192.20025919392796,43.22106391317677L166.45030707589524,37.430539327401945A170.6070045455344,170.6070045455344,0,0,0,166.7996034282429,35.841906983040104Z" fill-rule="evenodd" style="fill: #1DC690; stroke: #fff; opacity: 1;" id="p-type-logs"></path><path d="M192.20025919392796,43.22106391317677A197,197,0,0,1,191.77945578758926,45.05152980550266L166.0858806360069,39.01576929091711A170.6070045455344,170.6070045455344,0,0,0,166.45030707589524,37.430539327401945Z" fill-rule="evenodd" style="fill: #1DC690; stroke: #fff; opacity: 1;" id="p-type-logs"></path><path d="M191.77945578758926,45.05152980550266A197,197,0,0,1,191.34121991143095,46.87790058018189L165.70635723440407,40.59745277851879A170.6070045455344,170.6070045455344,0,0,0,166.0858806360069,39.01576929091711Z" fill-rule="evenodd" style="fill: #1DC690; stroke: #fff; opacity: 1;" id="p-type-logs"></path><path d="M191.34121991143095,46.87790058018189A197,197,0,0,1,190.88559140044813,48.700010222803385L165.31177136920448,42.17544601750959A170.6070045455344,170.6070045455344,0,0,0,165.70635723440407,40.59745277851879Z" fill-rule="evenodd" style="fill: #1DC690; stroke: #fff; opacity: 1;" id="p-type-logs"></path><path d="M190.88559140044813,48.700010222803385A197,197,0,0,1,190.41261167060082,50.51769310628671L164.9021589076816,43.749605570630294A170.6070045455344,170.6070045455344,0,0,0,165.31177136920448,42.17544601750959Z" fill-rule="evenodd" style="fill: #1DC690; stroke: #fff; opacity: 1;" id="p-type-logs"></path><path d="M190.41261167060082,50.51769310628671A197,197,0,0,1,189.9223237150492,52.33078400593726L164.47755708300437,45.319788349098054A170.6070045455344,170.6070045455344,0,0,0,164.9021589076816,43.749605570630294Z" fill-rule="evenodd" style="fill: #1DC690; stroke: #fff; opacity: 1;" id="p-type-logs"></path><path d="M189.9223237150492,52.33078400593726A197,197,0,0,1,189.41477210024567,54.139118114465035L164.03800449085267,46.885851625613A170.6070045455344,170.6070045455344,0,0,0,164.47755708300437,45.319788349098054Z" fill-rule="evenodd" style="fill: #1DC690; stroke: #fff; opacity: 1;" id="p-type-logs"></path><path d="M189.41477210024567,54.139118114465035A197,197,0,0,1,188.8900029618838,55.942531056965336L163.58354108590922,48.447653047331904A170.6070045455344,170.6070045455344,0,0,0,164.03800449085267,46.885851625613Z" fill-rule="evenodd" style="fill: #1DC690; stroke: #fff; opacity: 1;" id="p-type-logs"></path><path d="M188.8900029618838,55.942531056965336A197,197,0,0,1,188.34806400070468,57.74085890586018L163.11420817822756,50.00505064880787A170.6070045455344,170.6070045455344,0,0,0,163.58354108590922,48.447653047331904Z" fill-rule="evenodd" style="fill: #1DC690; stroke: #fff; opacity: 1;" id="p-type-logs"></path><path d="M188.34806400070468,57.74085890586018A197,197,0,0,1,187.789004478161,59.53393819579911L162.63004842947714,51.557902864894736A170.6070045455344,170.6070045455344,0,0,0,163.11420817822756,50.00505064880787Z" fill-rule="evenodd" style="fill: #1DC690; stroke: #fff; opacity: 1;" id="p-type-logs"></path><path d="M187.789004478161,59.53393819579911A197,197,0,0,1,187.2128752119392,61.321605938517926L162.13110584906536,53.106068543615216A170.6070045455344,170.6070045455344,0,0,0,162.63004842947714,51.557902864894736Z" fill-rule="evenodd" style="fill: #1DC690; stroke: #fff; opacity: 1;" id="p-type-logs"></path><path d="M187.2128752119392,61.321605938517926A197,197,0,0,1,186.61972857134032,63.10369963765412L161.61742579013733,54.649406958991335A170.6070045455344,170.6070045455344,0,0,0,162.13110584906536,53.106068543615216Z" fill-rule="evenodd" style="fill: #1DC690; stroke: #fff; opacity: 1;" id="p-type-logs"></path><path d="M186.61972857134032,63.10369963765412A197,197,0,0,1,186.00961847251958,64.88005730351749L161.08905494545314,56.18777782383624A170.6070045455344,170.6070045455344,0,0,0,161.61742579013733,54.649406958991335Z" fill-rule="evenodd" style="fill: #1DC690; stroke: #fff; opacity: 1;" id="p-type-logs"></path><path d="M186.00961847251958,64.88005730351749A197,197,0,0,1,185.38260037358552,66.65051746781484L160.54604134314363,57.72104130250612A170.6070045455344,170.6070045455344,0,0,0,161.08905494545314,56.18777782383624Z" fill-rule="evenodd" style="fill: #1DC690; stroke: #fff; opacity: 1;" id="p-type-logs"></path><path d="M185.38260037358552,66.65051746781484A197,197,0,0,1,184.73873126955908,68.41491919832715L159.9884343423448,59.24905802361101A170.6070045455344,170.6070045455344,0,0,0,160.54604134314363,57.72104130250612Z" fill-rule="evenodd" style="fill: #1DC690; stroke: #fff; opacity: 1;" id="p-type-logs"></path><path d="M184.73873126955908,68.41491919832715A197,197,0,0,1,184.07806968719265,70.1731021135381L159.41628462871105,60.77168909268349A170.6070045455344,170.6070045455344,0,0,0,159.9884343423448,59.24905802361101Z" fill-rule="evenodd" style="fill: #1DC690; stroke: #fff; opacity: 1;" id="p-type-logs"></path><path d="M184.07806968719265,70.1731021135381A197,197,0,0,1,183.40067567965013,71.92490639721257L158.82964420980787,62.288796104803964A170.6070045455344,170.6070045455344,0,0,0,159.41628462871105,60.77168909268349Z" fill-rule="evenodd" style="fill: #1DC690; stroke: #fff; opacity: 1;" id="p-type-logs"></path><path d="M183.40067567965013,71.92490639721257A197,197,0,0,1,182.70661082104826,73.67017281292352L158.2285664103846,63.80024115718147A170.6070045455344,170.6070045455344,0,0,0,158.82964420980787,62.288796104803964Z" fill-rule="evenodd" style="fill: #1DC690; stroke: #fff; opacity: 1;" id="p-type-logs"></path><path d="M182.70661082104826,73.67017281292352A197,197,0,0,1,181.99593820085948,75.4087427185266L157.61310586752705,65.30588686168885A170.6070045455344,170.6070045455344,0,0,0,158.2285664103846,63.80024115718147Z" fill-rule="evenodd" style="fill: #1DC690; stroke: #fff; opacity: 1;" id="p-type-logs"></path><path d="M181.99593820085948,75.4087427185266A197,197,0,0,1,181.26872241817736,77.14045808058027L156.98331852569137,66.80559635735109A170.6070045455344,170.6070045455344,0,0,0,157.61310586752705,65.30588686168885Z" fill-rule="evenodd" style="fill: #1DC690; stroke: #fff; opacity: 1;" id="p-type-logs"></path><path d="M181.26872241817736,77.14045808058027A197,197,0,0,1,180.5250295758445,78.86516148871095L156.33926163161848,68.29923332278585A170.6070045455344,170.6070045455344,0,0,0,156.98331852569137,66.80559635735109Z" fill-rule="evenodd" style="fill: #1DC690; stroke: #fff; opacity: 1;" id="p-type-logs"></path><path d="M180.5250295758445,78.86516148871095A197,197,0,0,1,179.76492727444403,80.58269616992129L155.68099372913062,69.78666198859483A170.6070045455344,170.6070045455344,0,0,0,156.33926163161848,68.29923332278585Z" fill-rule="evenodd" style="fill: #1DC690; stroke: #fff; opacity: 1;" id="p-type-logs"></path><path d="M179.76492727444403,80.58269616992129A197,197,0,0,1,178.98848460615457,82.29290600284065L155.0085746538098,71.26774714970493A170.6070045455344,170.6070045455344,0,0,0,155.68099372913062,69.78666198859483Z" fill-rule="evenodd" style="fill: #1DC690; stroke: #fff; opacity: 1;" id="p-type-logs"></path><path d="M178.98848460615457,82.29290600284065A197,197,0,0,1,178.1957721484701,83.99563553191634L154.32206552755864,72.74235417765838A170.6070045455344,170.6070045455344,0,0,0,155.0085746538098,71.26774714970493Z" fill-rule="evenodd" style="fill: #1DC690; stroke: #fff; opacity: 1;" id="p-type-logs"></path><path d="M178.1957721484701,83.99563553191634A197,197,0,0,1,177.38686195778445,85.69072998154425L153.62152875304474,74.21034903285016A170.6070045455344,170.6070045455344,0,0,0,154.32206552755864,72.74235417765838Z" fill-rule="evenodd" style="fill: #1DC690; stroke: #fff; opacity: 1;" id="p-type-logs"></path><path d="M177.38686195778445,85.69072998154425A197,197,0,0,1,176.56182756284147,87.37803527013774L152.90702800802822,75.67159827671196A170.6070045455344,170.6070045455344,0,0,0,153.62152875304474,74.21034903285016Z" fill-rule="evenodd" style="fill: #1DC690; stroke: #fff; opacity: 1;" id="p-type-logs"></path><path d="M176.56182756284147,87.37803527013774A197,197,0,0,1,175.72074395805146,89.05739802413342L152.17862823957347,77.12596908384161A170.6070045455344,170.6070045455344,0,0,0,152.90702800802822,75.67159827671196Z" fill-rule="evenodd" style="fill: #1DC690; stroke: #fff; opacity: 1;" id="p-type-logs"></path><path d="M175.72074395805146,89.05739802413342A197,197,0,0,1,174.8636875966742,90.72866559193257L151.4363956581457,78.5733292540767A170.6070045455344,170.6070045455344,0,0,0,152.17862823957347,77.12596908384161Z" fill-rule="evenodd" style="fill: #1DC690; stroke: #fff; opacity: 1;" id="p-type-logs"></path><path d="M174.8636875966742,90.72866559193257A197,197,0,0,1,173.99073638386952,92.39168605777698L150.68039773159242,80.0135472245114A170.6070045455344,170.6070045455344,0,0,0,151.4363956581457,78.5733292540767Z" fill-rule="evenodd" style="fill: #1DC690; stroke: #fff; opacity: 1;" id="p-type-logs"></path><path d="M173.99073638386952,92.39168605777698A197,197,0,0,1,173.1019696696158,94.04630825555783L149.91070317901068,81.44649208145526A170.6070045455344,170.6070045455344,0,0,0,150.68039773159242,80.0135472245114Z" fill-rule="evenodd" style="fill: #1DC690; stroke: #fff; opacity: 1;" id="p-type-logs"></path><path d="M173.1019696696158,94.04630825555783A197,197,0,0,1,172.19746824149723,95.69238178255651L149.12738196450067,82.87203357233317A170.6070045455344,170.6070045455344,0,0,0,149.91070317901068,81.44649208145526Z" fill-rule="evenodd" style="fill: #1DC690; stroke: #fff; opacity: 1;" id="p-type-logs"></path><path d="M172.19746824149723,95.69238178255651A197,197,0,0,1,171.2773143173602,97.329757013116L148.3305052908061,84.29004211752508A170.6070045455344,170.6070045455344,0,0,0,149.12738196450067,82.87203357233317Z" fill-rule="evenodd" style="fill: #1DC690; stroke: #fff; opacity: 1;" id="p-type-logs"></path><path d="M171.2773143173602,97.329757013116A197,197,0,0,1,170.34159153783997,98.95828511224154L147.52014559284177,85.70038882214457A170.6070045455344,170.6070045455344,0,0,0,148.3305052908061,84.29004211752508Z" fill-rule="evenodd" style="fill: #1DC690; stroke: #fff; opacity: 1;" id="p-type-logs"></path><path d="M170.34159153783997,98.95828511224154A197,197,0,0,1,169.39038495875783,100.57781804912962L146.69637653110976,87.10294548775528A170.6070045455344,170.6070045455344,0,0,0,147.52014559284177,85.70038882214457Z" fill-rule="evenodd" style="fill: #1DC690; stroke: #fff; opacity: 1;" id="p-type-logs"></path><path d="M169.39038495875783,100.57781804912962A197,197,0,0,1,168.42378104338962,102.18820861062373L145.85927298500337,88.49758462402386A170.6070045455344,170.6070045455344,0,0,0,146.69637653110976,87.10294548775528Z" fill-rule="evenodd" style="fill: #1DC690; stroke: #fff; opacity: 1;" id="p-type-logs"></path><path d="M168.42378104338962,102.18820861062373A197,197,0,0,1,167.44186765460626,103.78931041459576L145.00891104600092,89.88417946030873A170.6070045455344,170.6070045455344,0,0,0,145.85927298500337,88.49758462402386Z" fill-rule="evenodd" style="fill: #1DC690; stroke: #fff; opacity: 1;" id="p-type-logs"></path><path d="M167.44186765460626,103.78931041459576A197,197,0,0,1,166.4447340468874,105.380977923252L144.14536801074914,91.26260395718333A170.6070045455344,170.6070045455344,0,0,0,145.00891104600092,89.88417946030873Z" fill-rule="evenodd" style="fill: #1DC690; stroke: #fff; opacity: 1;" id="p-type-logs"></path><path d="M166.4447340468874,105.380977923252A197,197,0,0,1,165.43247085820795,106.96306645636228L143.2687223740369,92.63273281789289A170.6070045455344,170.6070045455344,0,0,0,144.14536801074914,91.26260395718333Z" fill-rule="evenodd" style="fill: #1DC690; stroke: #fff; opacity: 1;" id="p-type-logs"></path><path d="M165.43247085820795,106.96306645636228A197,197,0,0,1,164.4051701017996,108.53543220441117L142.3790538216603,93.99444149974374A170.6070045455344,170.6070045455344,0,0,0,143.2687223740369,92.63273281789289Z" fill-rule="evenodd" style="fill: #1DC690; stroke: #fff; opacity: 1;" id="p-type-logs"></path><path d="M164.4051701017996,108.53543220441117A197,197,0,0,1,163.36292515778672,110.09793224167007L141.47644322317927,95.34760622542409A170.6070045455344,170.6070045455344,0,0,0,142.3790538216603,93.99444149974374Z" fill-rule="evenodd" style="fill: #1DC690; stroke: #fff; opacity: 1;" id="p-type-logs"></path><path d="M163.36292515778672,110.09793224167007A197,197,0,0,1,162.30583076469827,111.65042453918896L140.56097262456657,96.6921039942551A170.6070045455344,170.6070045455344,0,0,0,141.47644322317927,95.34760622542409Z" fill-rule="evenodd" style="fill: #1DC690; stroke: #fff; opacity: 1;" id="p-type-logs"></path><path d="M162.30583076469827,111.65042453918896A197,197,0,0,1,161.23398301085626,113.19276797770657L139.63272524075012,98.0278125933716A170.6070045455344,170.6070045455344,0,0,0,140.56097262456657,96.6921039942551Z" fill-rule="evenodd" style="fill: #1DC690; stroke: #fff; opacity: 1;" id="p-type-logs"></path><path d="M67.27679550971595,185.15623885233754A197,197,0,0,1,52.97248973506631,189.74434202702406L45.87552181227783,164.32342041976614A170.6070045455344,170.6070045455344,0,0,0,58.26341399662486,160.35000651530356Z" fill-rule="evenodd" style="fill: #D7A449; stroke: #fff; opacity: 1;" id="p-type-tokenTransfers"></path><path d="M52.97248973506631,189.74434202702406A197,197,0,0,1,43.870521918569125,192.053058571303L37.99298645876289,166.32282759724913A170.6070045455344,170.6070045455344,0,0,0,45.87552181227783,164.32342041976614Z" fill-rule="evenodd" style="fill: #D7A449; stroke: #fff; opacity: 1;" id="p-type-tokenTransfers"></path><path d="M43.870521918569125,192.053058571303A197,197,0,0,1,42.03750118322501,192.46258985649746L36.40554393629126,166.67749209387202A170.6070045455344,170.6070045455344,0,0,0,37.99298645876289,166.32282759724913Z" fill-rule="evenodd" style="fill: #D7A449; stroke: #fff; opacity: 1;" id="p-type-tokenTransfers"></path><path d="M42.03750118322501,192.46258985649746A197,197,0,0,1,40.200659300992875,192.85462657599246L34.814792203543,167.017005852171A170.6070045455344,170.6070045455344,0,0,0,36.40554393629126,166.67749209387202Z" fill-rule="evenodd" style="fill: #D7A449; stroke: #fff; opacity: 1;" id="p-type-tokenTransfers"></path><path d="M40.200659300992875,192.85462657599246A197,197,0,0,1,38.36016323809204,193.22913309422813L33.22087585750564,167.34133801084596A170.6070045455344,170.6070045455344,0,0,0,34.814792203543,167.017005852171Z" fill-rule="evenodd" style="fill: #D7A449; stroke: #fff; opacity: 1;" id="p-type-tokenTransfers"></path><path d="M38.36016323809204,193.22913309422813A197,197,0,0,1,36.51618029290146,193.58607536911407L31.623939782825346,167.65045908858178A170.6070045455344,170.6070045455344,0,0,0,33.22087585750564,167.34133801084596Z" fill-rule="evenodd" style="fill: #D7A449; stroke: #fff; opacity: 1;" id="p-type-tokenTransfers"></path><path d="M36.51618029290146,193.58607536911407A197,197,0,0,1,34.668878080752535,193.92542095512366L30.02412913863719,167.9443409867282A170.6070045455344,170.6070045455344,0,0,0,31.623939782825346,167.65045908858178Z" fill-rule="evenodd" style="fill: #D7A449; stroke: #fff; opacity: 1;" id="p-type-tokenTransfers"></path><path d="M34.668878080752535,193.92542095512366A197,197,0,0,1,32.81842451869317,194.24713900624337L28.42158934537037,168.2229569918539A170.6070045455344,170.6070045455344,0,0,0,30.02412913863719,167.9443409867282Z" fill-rule="evenodd" style="fill: #D7A449; stroke: #fff; opacity: 1;" id="p-type-tokenTransfers"></path><path d="M32.81842451869317,194.24713900624337A197,197,0,0,1,30.96498781022429,194.55120027877663L26.81646607152971,168.4862817781747A170.6070045455344,170.6070045455344,0,0,0,28.42158934537037,168.2229569918539Z" fill-rule="evenodd" style="fill: #D7A449; stroke: #fff; opacity: 1;" id="p-type-tokenTransfers"></path><path d="M30.96498781022429,194.55120027877663A197,197,0,0,1,29.108736430010467,194.837577134002L25.208905220454614,168.73429140985579A170.6070045455344,170.6070045455344,0,0,0,26.81646607152971,168.4862817781747Z" fill-rule="evenodd" style="fill: #D7A449; stroke: #fff; opacity: 1;" id="p-type-tokenTransfers"></path><path d="M29.108736430010467,194.837577134002A197,197,0,0,1,27.249839108565773,195.10624354068548L23.59905291705666,168.96696334318716A170.6070045455344,170.6070045455344,0,0,0,25.208905220454614,168.73429140985579Z" fill-rule="evenodd" style="fill: #D7A449; stroke: #fff; opacity: 1;" id="p-type-tokenTransfers"></path><path d="M27.249839108565773,195.10624354068548A197,197,0,0,1,25.388464816916425,195.35717507744678L21.98705549453706,169.18427642863313A170.6070045455344,170.6070045455344,0,0,0,23.59905291705666,168.96696334318716Z" fill-rule="evenodd" style="fill: #D7A449; stroke: #fff; opacity: 1;" id="p-type-tokenTransfers"></path><path d="M25.388464816916425,195.35717507744678A197,197,0,0,1,23.524782751241602,195.59034893497912L20.373059481085203,169.38621091275454A170.6070045455344,170.6070045455344,0,0,0,21.98705549453706,169.18427642863313Z" fill-rule="evenodd" style="fill: #D7A449; stroke: #fff; opacity: 1;" id="p-type-tokenTransfers"></path><path d="M23.524782751241602,195.59034893497912A197,197,0,0,1,21.65896231749372,195.80574391812257L18.75721158655944,169.5727484400045A170.6070045455344,170.6070045455344,0,0,0,20.373059481085203,169.38621091275454Z" fill-rule="evenodd" style="fill: #D7A449; stroke: #fff; opacity: 1;" id="p-type-tokenTransfers"></path><path d="M21.65896231749372,195.80574391812257A197,197,0,0,1,19.791173115999715,196.00334044779066L17.139658689151382,169.7438720543967A170.6070045455344,170.6070045455344,0,0,0,18.75721158655944,169.5727484400045Z" fill-rule="evenodd" style="fill: #D7A449; stroke: #fff; opacity: 1;" id="p-type-tokenTransfers"></path><path d="M19.791173115999715,196.00334044779066A197,197,0,0,1,17.921584926044606,196.18312056275016L15.520547822034889,169.89956620104692A170.6070045455344,170.6070045455344,0,0,0,17.139658689151382,169.7438720543967Z" fill-rule="evenodd" style="fill: #D7A449; stroke: #fff; opacity: 1;" id="p-type-tokenTransfers"></path><path d="M17.921584926044606,196.18312056275016A197,197,0,0,1,16.0503676904388,196.34506792125367L13.90002616000097,170.03981672758675A170.6070045455344,170.6070045455344,0,0,0,15.520547822034889,169.89956620104692Z" fill-rule="evenodd" style="fill: #D7A449; stroke: #fff; opacity: 1;" id="p-type-tokenTransfers"></path><path d="M16.0503676904388,196.34506792125367A197,197,0,0,1,14.177691500070567,196.489167802525L12.278241006079817,170.16461088545003A170.6070045455344,170.6070045455344,0,0,0,13.90002616000097,170.03981672758675Z" fill-rule="evenodd" style="fill: #D7A449; stroke: #fff; opacity: 1;" id="p-type-tokenTransfers"></path><path d="M14.177691500070567,196.489167802525A197,197,0,0,1,12.303726578445008,196.61540710809737L10.655339778151168,170.27393733103182A170.6070045455344,170.6070045455344,0,0,0,12.278241006079817,170.16461088545003Z" fill-rule="evenodd" style="fill: #D7A449; stroke: #fff; opacity: 1;" id="p-type-tokenTransfers"></path><path d="M12.303726578445008,196.61540710809737A197,197,0,0,1,10.428643266210992,196.723774363004L9.031469995544242,170.36778612671932A170.6070045455344,170.6070045455344,0,0,0,10.655339778151168,170.27393733103182Z" fill-rule="evenodd" style="fill: #D7A449; stroke: #fff; opacity: 1;" id="p-type-tokenTransfers"></path><path d="M10.428643266210992,196.723774363004A197,197,0,0,1,8.552612005677451,196.8142597168212L7.406779265628452,170.44614874179544A170.6070045455344,170.6070045455344,0,0,0,9.031469995544242,170.36778612671932Z" fill-rule="evenodd" style="fill: #D7A449; stroke: #fff; opacity: 1;" id="p-type-tokenTransfers"></path><path d="M8.552612005677451,196.8142597168212A197,197,0,0,1,6.675803325320417,196.88685494456365L5.781415270396113,170.5090180532139A170.6070045455344,170.6070045455344,0,0,0,7.406779265628452,170.44614874179544Z" fill-rule="evenodd" style="fill: #D7A449; stroke: #fff; opacity: 1;" id="p-type-tokenTransfers"></path><path d="M6.675803325320417,196.88685494456365A197,197,0,0,1,4.798387824282241,196.94155344743217L4.155525753038361,170.55638834624705A170.6070045455344,170.6070045455344,0,0,0,5.781415270396113,170.5090180532139Z" fill-rule="evenodd" style="fill: #D7A449; stroke: #fff; opacity: 1;" id="p-type-tokenTransfers"></path><path d="M4.798387824282241,196.94155344743217A197,197,0,0,1,2.9205361568643746,196.9783502534135L2.5292585045155227,170.58825531500503A170.6070045455344,170.6070045455344,0,0,0,4.155525753038361,170.55638834624705Z" fill-rule="evenodd" style="fill: #D7A449; stroke: #fff; opacity: 1;" id="p-type-tokenTransfers"></path><path d="M2.9205361568643746,196.9783502534135A197,197,0,0,1,1.042419017015155,196.99724201773225L0.9027613501231273,170.60461606282735A170.6070045455344,170.6070045455344,0,0,0,2.5292585045155227,170.58825531500503Z" fill-rule="evenodd" style="fill: #D7A449; stroke: #fff; opacity: 1;" id="p-type-tokenTransfers"></path><path d="M1.042419017015155,196.99724201773225A197,197,0,0,1,-0.8357928771860303,196.9982270231548L-0.7238178639451897,170.60546910254615A170.6070045455344,170.6070045455344,0,0,0,0.9027613501231273,170.60461606282735Z" fill-rule="evenodd" style="fill: #D7A449; stroke: #fff; opacity: 1;" id="p-type-tokenTransfers"></path><path d="M-0.8357928771860303,196.9982270231548A197,197,0,0,1,-2.7139287990467627,196.9813051801457L-2.350331284036689,170.59081435662142A170.6070045455344,170.6070045455344,0,0,0,-0.7238178639451897,170.60546910254615Z" fill-rule="evenodd" style="fill: #D7A449; stroke: #fff; opacity: 1;" id="p-type-tokenTransfers"></path><path d="M-2.7139287990467627,196.9813051801457A197,197,0,0,1,-4.591818028780397,196.94647802687552L-3.9766310624792083,170.56065315714795A170.6070045455344,170.6070045455344,0,0,0,-2.350331284036689,170.59081435662142Z" fill-rule="evenodd" style="fill: #D7A449; stroke: #fff; opacity: 1;" id="p-type-tokenTransfers"></path><path d="M-4.591818028780397,196.94647802687552A197,197,0,0,1,-6.469289869024239,196.89374872908112L-5.602569371020294,170.5149882457343A170.6070045455344,170.6070045455344,0,0,0,-3.9766310624792083,170.56065315714795Z" fill-rule="evenodd" style="fill: #D7A449; stroke: #fff; opacity: 1;" id="p-type-tokenTransfers"></path><path d="M-6.469289869024239,196.89374872908112A197,197,0,0,1,-8.346173660355682,196.823122079778L-7.227998414264576,170.4538237732536A170.6070045455344,170.6070045455344,0,0,0,-5.602569371020294,170.5149882457343Z" fill-rule="evenodd" style="fill: #D7A449; stroke: #fff; opacity: 1;" id="p-type-tokenTransfers"></path><path d="M-8.346173660355682,196.823122079778A197,197,0,0,1,-10.222298796804903,196.73460449882435L-8.852770443108147,170.3771652994662A170.6070045455344,170.6070045455344,0,0,0,-7.227998414264576,170.4538237732536Z" fill-rule="evenodd" style="fill: #D7A449; stroke: #fff; opacity: 1;" id="p-type-tokenTransfers"></path><path d="M-10.222298796804903,196.73460449882435A197,197,0,0,1,-12.097494741362684,196.62820403233792L-10.476737768168743,170.28501979251442A170.6070045455344,170.6070045455344,0,0,0,-8.852770443108147,170.3771652994662Z" fill-rule="evenodd" style="fill: #D7A449; stroke: #fff; opacity: 1;" id="p-type-tokenTransfers"></path><path d="M-12.097494741362684,196.62820403233792A197,197,0,0,1,-13.971591041481984,196.50393035196416L-12.099752773210481,170.17739562828896A170.6070045455344,170.6070045455344,0,0,0,-10.476737768168743,170.28501979251442Z" fill-rule="evenodd" style="fill: #D7A449; stroke: #fff; opacity: 1;" id="p-type-tokenTransfers"></path><path d="M-13.971591041481984,196.50393035196416A197,197,0,0,1,-15.844417344571822,196.36179475399746L-13.721667928561974,170.0543025896677A170.6070045455344,170.6070045455344,0,0,0,-12.099752773210481,170.17739562828896Z" fill-rule="evenodd" style="fill: #D7A449; stroke: #fff; opacity: 1;" id="p-type-tokenTransfers"></path><path d="M-15.844417344571822,196.36179475399746A197,197,0,0,1,-17.715803413482067,196.2018101583542L-15.342335804526543,169.91575186562648A170.6070045455344,170.6070045455344,0,0,0,-13.721667928561974,170.0543025896677Z" fill-rule="evenodd" style="fill: #D7A449; stroke: #fff; opacity: 1;" id="p-type-tokenTransfers"></path><path d="M-17.715803413482067,196.2018101583542A197,197,0,0,1,-19.58557914197776,196.0239911073982L-16.96160908478337,169.76175605022172A170.6070045455344,170.6070045455344,0,0,0,-15.342335804526543,169.91575186562648Z" fill-rule="evenodd" style="fill: #D7A449; stroke: #fff; opacity: 1;" id="p-type-tokenTransfers"></path><path d="M-19.58557914197776,196.0239911073982A197,197,0,0,1,-21.453574570201507,195.8283537646191L-18.579340579778325,169.59232914144613A170.6070045455344,170.6070045455344,0,0,0,-16.96160908478337,169.76175605022172Z" fill-rule="evenodd" style="fill: #D7A449; stroke: #fff; opacity: 1;" id="p-type-tokenTransfers"></path><path d="M-21.453574570201507,195.8283537646191A197,197,0,0,1,-23.319619900122586,195.61491591316295L-20.195383240103293,169.40748653995595A170.6070045455344,170.6070045455344,0,0,0,-18.579340579778325,169.59232914144613Z" fill-rule="evenodd" style="fill: #D7A449; stroke: #fff; opacity: 1;" id="p-type-tokenTransfers"></path><path d="M-23.319619900122586,195.61491591316295A197,197,0,0,1,-25.18354551097134,195.3836969542158L-21.80959016986274,169.2072450476711A170.6070045455344,170.6070045455344,0,0,0,-20.195383240103293,169.40748653995595Z" fill-rule="evenodd" style="fill: #D7A449; stroke: #fff; opacity: 1;" id="p-type-tokenTransfers"></path><path d="M-25.18354551097134,195.3836969542158A197,197,0,0,1,-27.045181974657435,195.1347179052402L-23.421814640026327,168.99162286624815A170.6070045455344,170.6070045455344,0,0,0,-21.80959016986274,169.2072450476711Z" fill-rule="evenodd" style="fill: #D7A449; stroke: #fff; opacity: 1;" id="p-type-tokenTransfers"></path><path d="M-27.045181974657435,195.1347179052402A197,197,0,0,1,-28.904360071170665,194.86800139806462L-25.03191010176638,168.76063959542546A170.6070045455344,170.6070045455344,0,0,0,-23.421814640026327,168.99162286624815Z" fill-rule="evenodd" style="fill: #D7A449; stroke: #fff; opacity: 1;" id="p-type-tokenTransfers"></path><path d="M-28.904360071170665,194.86800139806462A197,197,0,0,1,-30.760910803962755,194.58357167682644L-26.639730199778946,168.51431623124188A170.6070045455344,170.6070045455344,0,0,0,-25.03191010176638,168.76063959542546Z" fill-rule="evenodd" style="fill: #D7A449; stroke: #fff; opacity: 1;" id="p-type-tokenTransfers"></path><path d="M-30.760910803962755,194.58357167682644A197,197,0,0,1,-32.614665415308934,194.28145459576797L-28.245128785587283,168.25267516412802A170.6070045455344,170.6070045455344,0,0,0,-26.639730199778946,168.51431623124188Z" fill-rule="evenodd" style="fill: #D7A449; stroke: #fff; opacity: 1;" id="p-type-tokenTransfers"></path><path d="M-32.614665415308934,194.28145459576797A197,197,0,0,1,-34.46545540164773,193.96167761688656L-29.847959930826537,167.97574017687128A170.6070045455344,170.6070045455344,0,0,0,-28.245128785587283,168.25267516412802Z" fill-rule="evenodd" style="fill: #D7A449; stroke: #fff; opacity: 1;" id="p-type-tokenTransfers"></path><path d="M-34.46545540164773,193.96167761688656A197,197,0,0,1,-36.313112528897726,193.62426980743817L-31.448077940508412,167.68353644245371A170.6070045455344,170.6070045455344,0,0,0,-29.847959930826537,167.97574017687128Z" fill-rule="evenodd" style="fill: #D7A449; stroke: #fff; opacity: 1;" id="p-type-tokenTransfers"></path><path d="M-36.313112528897726,193.62426980743817A197,197,0,0,1,-38.15746884774979,193.2692618372953L-33.04533736626465,167.37609052176404A170.6070045455344,170.6070045455344,0,0,0,-31.448077940508412,167.68353644245371Z" fill-rule="evenodd" style="fill: #D7A449; stroke: #fff; opacity: 1;" id="p-type-tokenTransfers"></path><path d="M-38.15746884774979,193.2692618372953A197,197,0,0,1,-39.99835670893338,192.8966859761591L-34.63959301956804,167.05343036118322A170.6070045455344,170.6070045455344,0,0,0,-33.04533736626465,167.37609052176404Z" fill-rule="evenodd" style="fill: #D7A449; stroke: #fff; opacity: 1;" id="p-type-tokenTransfers"></path><path d="M-39.99835670893338,192.8966859761591A197,197,0,0,1,-41.835608778455665,192.50657609062608L-36.23069998492987,166.7155852900442A170.6070045455344,170.6070045455344,0,0,0,-34.63959301956804,167.05343036118322Z" fill-rule="evenodd" style="fill: #D7A449; stroke: #fff; opacity: 1;" id="p-type-tokenTransfers"></path><path d="M-41.835608778455665,192.50657609062608A197,197,0,0,1,-43.6690580528119,192.0989676411098L-37.81851363307251,166.3625860179659A170.6070045455344,170.6070045455344,0,0,0,-36.23069998492987,166.7155852900442Z" fill-rule="evenodd" style="fill: #D7A449; stroke: #fff; opacity: 1;" id="p-type-tokenTransfers"></path><path d="M-43.6690580528119,192.0989676411098A197,197,0,0,1,-45.498537874165834,191.6738976786174L-39.40288963407604,165.9944646320618A170.6070045455344,170.6070045455344,0,0,0,-37.81851363307251,166.3625860179659Z" fill-rule="evenodd" style="fill: #D7A449; stroke: #fff; opacity: 1;" id="p-type-tokenTransfers"></path><path d="M-45.498537874165834,191.6738976786174A197,197,0,0,1,-47.32388194549863,191.23140484138193L-40.98368397049755,165.61125459402322A170.6070045455344,170.6070045455344,0,0,0,-39.40288963407604,165.9944646320618Z" fill-rule="evenodd" style="fill: #D7A449; stroke: #fff; opacity: 1;" id="p-type-tokenTransfers"></path><path d="M-47.32388194549863,191.23140484138193A197,197,0,0,1,-49.14492434572502,190.77152935134993L-42.5607529504622,165.2129907370777A170.6070045455344,170.6070045455344,0,0,0,-40.98368397049755,165.61125459402322Z" fill-rule="evenodd" style="fill: #D7A449; stroke: #fff; opacity: 1;" id="p-type-tokenTransfers"></path><path d="M-49.14492434572502,190.77152935134993A197,197,0,0,1,-50.96149954477533,190.2943130105255L-44.13395322072454,164.79970926282272A170.6070045455344,170.6070045455344,0,0,0,-42.5607529504622,165.2129907370777Z" fill-rule="evenodd" style="fill: #D7A449; stroke: #fff; opacity: 1;" id="p-type-tokenTransfers"></path><path d="M-50.96149954477533,190.2943130105255A197,197,0,0,1,-52.77344241864185,189.7997991971706L-45.70314177969913,164.37144773793506A170.6070045455344,170.6070045455344,0,0,0,-44.13395322072454,164.79970926282272Z" fill-rule="evenodd" style="fill: #D7A449; stroke: #fff; opacity: 1;" id="p-type-tokenTransfers"></path><path d="M-52.77344241864185,189.7997991971706A197,197,0,0,1,-54.58058826438844,189.2880328618619L-47.26817599045919,163.92824509075604A170.6070045455344,170.6070045455344,0,0,0,-45.70314177969913,164.37144773793506Z" fill-rule="evenodd" style="fill: #D7A449; stroke: #fff; opacity: 1;" id="p-type-tokenTransfers"></path><path d="M-54.58058826438844,189.2880328618619A197,197,0,0,1,-56.382772815121704,188.75906052340474L-48.82891359370204,163.47014160775288A170.6070045455344,170.6070045455344,0,0,0,-47.26817599045919,163.92824509075604Z" fill-rule="evenodd" style="fill: #D7A449; stroke: #fff; opacity: 1;" id="p-type-tokenTransfers"></path><path d="M-144.5957017978889,133.7949289830373A197,197,0,0,1,-154.37033995863757,122.38790030495115L-133.68863599502018,105.99103077992493A170.6070045455344,170.6070045455344,0,0,0,-125.223551035011,115.86980739684516Z" fill-rule="evenodd" style="fill: #414552; stroke: #fff; opacity: 1;" id="p-type-ether"></path><path d="M-154.37033995863757,122.38790030495115A197,197,0,0,1,-160.08767549656753,114.80825821388326L-138.63999381282707,99.42686817746635A170.6070045455344,170.6070045455344,0,0,0,-133.68863599502018,105.99103077992493Z" fill-rule="evenodd" style="fill: #414552; stroke: #fff; opacity: 1;" id="p-type-ether"></path><path d="M-160.08767549656753,114.80825821388326A197,197,0,0,1,-165.37671089367845,107.04925732572222L-143.22043282824026,92.70737630033287A170.6070045455344,170.6070045455344,0,0,0,-138.63999381282707,99.42686817746635Z" fill-rule="evenodd" style="fill: #414552; stroke: #fff; opacity: 1;" id="p-type-ether"></path><path d="M-165.37671089367845,107.04925732572222A197,197,0,0,1,-168.16696455516598,102.61029203886692L-145.63686338209098,88.86311959539889A170.6070045455344,170.6070045455344,0,0,0,-143.22043282824026,92.70737630033287Z" fill-rule="evenodd" style="fill: #414552; stroke: #fff; opacity: 1;" id="p-type-ether"></path><path d="M-168.16696455516598,102.61029203886692A197,197,0,0,1,-170.19713699897756,99.20652477206963L-147.39504429249496,85.9153706737825A170.6070045455344,170.6070045455344,0,0,0,-145.63686338209098,88.86311959539889Z" fill-rule="evenodd" style="fill: #414552; stroke: #fff; opacity: 1;" id="p-type-ether"></path><path d="M-170.19713699897756,99.20652477206963A197,197,0,0,1,-171.90080225305346,96.22429103275645L-148.87046168206956,83.33268049551425A170.6070045455344,170.6070045455344,0,0,0,-147.39504429249496,85.9153706737825Z" fill-rule="evenodd" style="fill: #414552; stroke: #fff; opacity: 1;" id="p-type-ether"></path><path d="M-171.90080225305346,96.22429103275645A197,197,0,0,1,-172.42118658240167,95.28868987197079L-149.32112773101645,82.52242612246366A170.6070045455344,170.6070045455344,0,0,0,-148.87046168206956,83.33268049551425Z" fill-rule="evenodd" style="fill: #414552; stroke: #fff; opacity: 1;" id="p-type-ether"></path></g></svg>