<svg xmlns="http://www.w3.org/2000/svg" width="400" height="400" id="block-7824907"><g id="burst-container" transform="translate(200,200)"><circle r="197" style="fill: #f9f9f9; stroke: #f9f9f9; stroke-width: 3; opacity: 1;" id="circle-base"></circle><path display="none" d="M6.031385485800715e-15,-98.5A98.5,98.5,0,1,1,-6.031385485800715e-15,98.5A98.5,98.5,0,1,1,6.031385485800715e-15,-98.5Z" fill-rule="evenodd" id="p-type-root" style="stroke: #fff; opacity: 1;"></path><path d="M8.529667153919608e-15,-139.30003589374985A139.30003589374985,139.30003589374985,0,1,1,-96.07042156546777,-100.87107662870118L-67.93204656039259,-71.32662230974248A98.5,98.5,0,1,0,6.031385485800715e-15,-98.5Z" fill-rule="evenodd" style="fill: #0B1F65; stroke: #fff; opacity: 1;" id="p-type-data"></path><path d="M-96.07042156546777,-100.87107662870118A139.30003589374985,139.30003589374985,0,0,1,-2.382155351053903,-139.2796659095772L-1.6844382025700353,-98.48559624605886A98.5,98.5,0,0,0,-67.93204656039259,-71.32662230974248Z" fill-rule="evenodd" style="fill: #D7A449; stroke: #fff; opacity: 1;" id="p-type-value"></path><path d="M1.0446666101440332e-14,-170.6070045455344A170.6070045455344,170.6070045455344,0,0,1,169.95813563746069,14.865467723503077L138.77023664883734,12.137603570131727A139.30003589374985,139.30003589374985,0,0,0,8.529667153919608e-15,-139.30003589374985Z" fill-rule="evenodd" style="fill: #DB3F29; stroke: #fff; opacity: 1;" id="p-type-functions"></path><path d="M169.95813563746069,14.865467723503077A170.6070045455344,170.6070045455344,0,0,1,-0.7331889120661815,170.60542908717537L-0.5986462398761564,139.2987495373863A139.30003589374985,139.30003589374985,0,0,0,138.77023664883734,12.137603570131727Z" fill-rule="evenodd" style="fill: #1DC690; stroke: #fff; opacity: 1;" id="p-type-logs"></path><path d="M-0.7331889120661815,170.60542908717537A170.6070045455344,170.6070045455344,0,0,1,-133.8858835300853,105.74176181324212L-109.31736613680239,86.33778698178617A139.30003589374985,139.30003589374985,0,0,0,-0.5986462398761564,139.2987495373863Z" fill-rule="evenodd" style="fill: #D7A449; stroke: #fff; opacity: 1;" id="p-type-tokenTransfers"></path><path d="M-133.8858835300853,105.74176181324212A170.6070045455344,170.6070045455344,0,0,1,-166.3110702914817,38.044420070515315L-135.79242026342553,31.06313891095391A139.30003589374985,139.30003589374985,0,0,0,-109.31736613680239,86.33778698178617Z" fill-rule="evenodd" style="fill: #414552; stroke: #fff; opacity: 1;" id="p-type-ether"></path><path d="M-117.66175610473456,-123.54133377274975A170.6070045455344,170.6070045455344,0,0,1,-51.69263026399993,-162.5872749522219L-42.20685586971703,-132.75195410084527A139.30003589374985,139.30003589374985,0,0,0,-96.07042156546777,-100.87107662870118Z" fill-rule="evenodd" style="fill: #D7A449; stroke: #fff; opacity: 1;" id="p-type-tokenTransfers"></path><path d="M-51.69263026399993,-162.5872749522219A170.6070045455344,170.6070045455344,0,0,1,-5.834211830691917,-170.50721970730334L-4.7636140121680395,-139.21856191450576A139.30003589374985,139.30003589374985,0,0,0,-42.20685586971703,-132.75195410084527Z" fill-rule="evenodd" style="fill: #414552; stroke: #fff; opacity: 1;" id="p-type-ether"></path><path d="M1.206277097160143e-14,-197A197,197,0,0,1,1.6844997852195769,-196.99279799138242L1.4588196066695842,-170.6007674231133A170.6070045455344,170.6070045455344,0,0,0,1.0446666101440332e-14,-170.6070045455344Z" fill-rule="evenodd" style="fill: #DB3F29; stroke: #fff; opacity: 1;" id="p-type-functions"></path><path d="M1.6844997852195769,-196.99279799138242A197,197,0,0,1,3.3688764051399596,-196.97119249211772L2.9175325490612014,-170.58205651188862A170.6070045455344,170.6070045455344,0,0,0,1.4588196066695842,-170.6007674231133Z" fill-rule="evenodd" style="fill: #DB3F29; stroke: #fff; opacity: 1;" id="p-type-functions"></path><path d="M3.3688764051399596,-196.97119249211772A197,197,0,0,1,5.0530067034674335,-196.93518508193176L4.37603217069586,-170.5508731799431A170.6070045455344,170.6070045455344,0,0,0,2.9175325490612014,-170.58205651188862Z" fill-rule="evenodd" style="fill: #DB3F29; stroke: #fff; opacity: 1;" id="p-type-functions"></path><path d="M5.0530067034674335,-196.93518508193176A197,197,0,0,1,6.736767541918531,-196.8847783935725L5.8342118306918955,-170.50721970730334A170.6070045455344,170.6070045455344,0,0,0,4.37603217069586,-170.5508731799431Z" fill-rule="evenodd" style="fill: #DB3F29; stroke: #fff; opacity: 1;" id="p-type-functions"></path><path d="M6.736767541918531,-196.8847783935725A197,197,0,0,1,8.42003580922352,-196.8199761126177L7.291964911562232,-170.4510992857733A170.6070045455344,170.6070045455344,0,0,0,5.8342118306918955,-170.50721970730334Z" fill-rule="evenodd" style="fill: #DB3F29; stroke: #fff; opacity: 1;" id="p-type-functions"></path><path d="M8.42003580922352,-196.8199761126177A197,197,0,0,1,10.102688430127916,-196.74078297720519L8.749184827009906,-170.38251601870076A170.6070045455344,170.6070045455344,0,0,0,7.291964911562232,-170.4510992857733Z" fill-rule="evenodd" style="fill: #DB3F29; stroke: #fff; opacity: 1;" id="p-type-functions"></path><path d="M10.102688430127916,-196.74078297720519A197,197,0,0,1,11.78460237439135,-196.6472047776868L10.205765029721324,-170.3014749206774A170.6070045455344,170.6070045455344,0,0,0,8.749184827009906,-170.38251601870076Z" fill-rule="evenodd" style="fill: #DB3F29; stroke: #fff; opacity: 1;" id="p-type-functions"></path><path d="M11.78460237439135,-196.6472047776868A197,197,0,0,1,13.465654665783157,-196.5392483562046L11.66159901915667,-170.20798191717216A170.6070045455344,170.6070045455344,0,0,0,10.205765029721324,-170.3014749206774Z" fill-rule="evenodd" style="fill: #DB3F29; stroke: #fff; opacity: 1;" id="p-type-functions"></path><path d="M13.465654665783157,-196.5392483562046A197,197,0,0,1,15.14572239107396,-196.41692160619084L13.11658034933684,-170.10204384409784A170.6070045455344,170.6070045455344,0,0,0,11.66159901915667,-170.20798191717216Z" fill-rule="evenodd" style="fill: #DB3F29; stroke: #fff; opacity: 1;" id="p-type-functions"></path><path d="M15.14572239107396,-196.41692160619084A197,197,0,0,1,16.824682709022877,-196.2802334717908L14.5706026366266,-169.98366844731152A170.6070045455344,170.6070045455344,0,0,0,13.11658034933684,-170.10204384409784Z" fill-rule="evenodd" style="fill: #DB3F29; stroke: #fff; opacity: 1;" id="p-type-functions"></path><path d="M16.824682709022877,-196.2802334717908A197,197,0,0,1,18.502412859359012,-196.12919394720873L16.02355956751278,-169.85286438204793A170.6070045455344,170.6070045455344,0,0,0,14.5706026366266,-169.98366844731152Z" fill-rule="evenodd" style="fill: #DB3F29; stroke: #fff; opacity: 1;" id="p-type-functions"></path><path d="M18.502412859359012,-196.12919394720873A197,197,0,0,1,20.17879017175749,-195.96381407597727L17.475344906377742,-169.70964121228687A170.6070045455344,170.6070045455344,0,0,0,16.02355956751278,-169.85286438204793Z" fill-rule="evenodd" style="fill: #DB3F29; stroke: #fff; opacity: 1;" id="p-type-functions"></path><path d="M20.17879017175749,-195.96381407597727A197,197,0,0,1,21.853692074808663,-195.7841059501497L18.92585250326696,-169.5540094100537A170.6070045455344,170.6070045455344,0,0,0,17.475344906377742,-169.70964121228687Z" fill-rule="evenodd" style="fill: #DB3F29; stroke: #fff; opacity: 1;" id="p-type-functions"></path><path d="M21.853692074808663,-195.7841059501497A197,197,0,0,1,23.52699610498015,-195.59008270941615L20.374976301650346,-169.38598035465387A170.6070045455344,170.6070045455344,0,0,0,18.92585250326696,-169.5540094100537Z" fill-rule="evenodd" style="fill: #DB3F29; stroke: #fff; opacity: 1;" id="p-type-functions"></path><path d="M23.52699610498015,-195.59008270941615A197,197,0,0,1,25.19857991557098,-195.38175854014258L21.822610346176802,-169.20556633184069A170.6070045455344,170.6070045455344,0,0,0,20.374976301650346,-169.38598035465387Z" fill-rule="evenodd" style="fill: #DB3F29; stroke: #fff; opacity: 1;" id="p-type-functions"></path><path d="M25.19857991557098,-195.38175854014258A197,197,0,0,1,26.868321285657217,-195.15914867433375L23.268648790421317,-169.01278053291716A170.6070045455344,170.6070045455344,0,0,0,21.822610346176802,-169.20556633184069Z" fill-rule="evenodd" style="fill: #DB3F29; stroke: #fff; opacity: 1;" id="p-type-functions"></path><path d="M26.868321285657217,-195.15914867433375A197,197,0,0,1,28.536098129028325,-194.92226938851925L24.71298590462412,-168.80763705377151A170.6070045455344,170.6070045455344,0,0,0,23.268648790421317,-169.01278053291716Z" fill-rule="evenodd" style="fill: #DB3F29; stroke: #fff; opacity: 1;" id="p-type-functions"></path><path d="M28.536098129028325,-194.92226938851925A197,197,0,0,1,30.20178850311377,-194.67113800256365L26.155516083421322,-168.59015089384636A170.6070045455344,170.6070045455344,0,0,0,24.71298590462412,-168.80763705377151Z" fill-rule="evenodd" style="fill: #DB3F29; stroke: #fff; opacity: 1;" id="p-type-functions"></path><path d="M30.20178850311377,-194.67113800256365A197,197,0,0,1,31.86527061789905,-194.40577287840003L27.596133853566432,-168.36033795504224A170.6070045455344,170.6070045455344,0,0,0,26.155516083421322,-168.59015089384636Z" fill-rule="evenodd" style="fill: #DB3F29; stroke: #fff; opacity: 1;" id="p-type-functions"></path><path d="M31.86527061789905,-194.40577287840003A197,197,0,0,1,33.526422844830606,-194.12619341868736L29.034733881642254,-168.11821504055476A170.6070045455344,170.6070045455344,0,0,0,27.596133853566432,-168.36033795504224Z" fill-rule="evenodd" style="fill: #DB3F29; stroke: #fff; opacity: 1;" id="p-type-functions"></path><path d="M33.526422844830606,-194.12619341868736A197,197,0,0,1,35.185123725708905,-193.83242006539194L30.471210981762486,-167.863799853646A170.6070045455344,170.6070045455344,0,0,0,29.034733881642254,-168.11821504055476Z" fill-rule="evenodd" style="fill: #DB3F29; stroke: #fff; opacity: 1;" id="p-type-functions"></path><path d="M35.185123725708905,-193.83242006539194A197,197,0,0,1,36.841251981569094,-193.52447429829266L31.905460123262625,-167.59711099635012A170.6070045455344,170.6070045455344,0,0,0,30.471210981762486,-167.863799853646Z" fill-rule="evenodd" style="fill: #DB3F29; stroke: #fff; opacity: 1;" id="p-type-functions"></path><path d="M36.841251981569094,-193.52447429829266A197,197,0,0,1,38.49468652154854,-193.2023786334105L33.33737643837946,-167.3181679681133A170.6070045455344,170.6070045455344,0,0,0,31.905460123262625,-167.59711099635012Z" fill-rule="evenodd" style="fill: #DB3F29; stroke: #fff; opacity: 1;" id="p-type-functions"></path><path d="M38.49468652154854,-193.2023786334105A197,197,0,0,1,40.14530645174056,-192.86615662136225L34.76685522991865,-167.02699116436804A170.6070045455344,170.6070045455344,0,0,0,33.33737643837946,-167.3181679681133Z" fill-rule="evenodd" style="fill: #DB3F29; stroke: #fff; opacity: 1;" id="p-type-functions"></path><path d="M40.14530645174056,-192.86615662136225A197,197,0,0,1,41.792991084033886,-192.5158328456386L36.19379197890989,-166.72360187504168A170.6070045455344,170.6070045455344,0,0,0,34.76685522991865,-167.02699116436804Z" fill-rule="evenodd" style="fill: #DB3F29; stroke: #fff; opacity: 1;" id="p-type-functions"></path><path d="M41.792991084033886,-192.5158328456386A197,197,0,0,1,43.43761994493695,-192.15143292080654L37.618082352249004,-166.40802228299995A170.6070045455344,170.6070045455344,0,0,0,36.19379197890989,-166.72360187504168Z" fill-rule="evenodd" style="fill: #DB3F29; stroke: #fff; opacity: 1;" id="p-type-functions"></path><path d="M43.43761994493695,-192.15143292080654A197,197,0,0,1,45.07907278438648,-191.77298349063662L39.0396222103264,-166.08027546242505A170.6070045455344,170.6070045455344,0,0,0,37.618082352249004,-166.40802228299995Z" fill-rule="evenodd" style="fill: #DB3F29; stroke: #fff; opacity: 1;" id="p-type-functions"></path><path d="M45.07907278438648,-191.77298349063662A197,197,0,0,1,46.717229584539915,-191.38051222615482L40.458307614641505,-165.7403853771284A170.6070045455344,170.6070045455344,0,0,0,39.0396222103264,-166.08027546242505Z" fill-rule="evenodd" style="fill: #DB3F29; stroke: #fff; opacity: 1;" id="p-type-functions"></path><path d="M46.717229584539915,-191.38051222615482A197,197,0,0,1,48.35197056855063,-190.97404782361926L41.87403483540235,-165.38837687879854A170.6070045455344,170.6070045455344,0,0,0,40.458307614641505,-165.7403853771284Z" fill-rule="evenodd" style="fill: #DB3F29; stroke: #fff; opacity: 1;" id="p-type-functions"></path><path d="M48.35197056855063,-190.97404782361926A197,197,0,0,1,49.98317620932567,-190.55362000242215L43.286700359110014,-165.02427570518412A170.6070045455344,170.6070045455344,0,0,0,41.87403483540235,-165.38837687879854Z" fill-rule="evenodd" style="fill: #DB3F29; stroke: #fff; opacity: 1;" id="p-type-functions"></path><path d="M49.98317620932567,-190.55362000242215A197,197,0,0,1,51.610727238265255,-190.11925950291672L44.696200896127195,-164.64810847821192A170.6070045455344,170.6070045455344,0,0,0,43.286700359110014,-165.02427570518412Z" fill-rule="evenodd" style="fill: #DB3F29; stroke: #fff; opacity: 1;" id="p-type-functions"></path><path d="M51.610727238265255,-190.11925950291672A197,197,0,0,1,53.2345046539832,-189.67099808416953L46.10243338823038,-164.2599027020404A170.6070045455344,170.6070045455344,0,0,0,44.696200896127195,-164.64810847821192Z" fill-rule="evenodd" style="fill: #DB3F29; stroke: #fff; opacity: 1;" id="p-type-functions"></path><path d="M53.2345046539832,-189.67099808416953A197,197,0,0,1,54.85438973100803,-189.2088685216385L47.50529501614519,-163.85968676104875A170.6070045455344,170.6070045455344,0,0,0,46.10243338823038,-164.2599027020404Z" fill-rule="evenodd" style="fill: #DB3F29; stroke: #fff; opacity: 1;" id="p-type-functions"></path><path d="M54.85438973100803,-189.2088685216385A197,197,0,0,1,56.470264028463774,-188.7329046047763L48.9046832070642,-163.44748991776132A170.6070045455344,170.6070045455344,0,0,0,47.50529501614519,-163.85968676104875Z" fill-rule="evenodd" style="fill: #DB3F29; stroke: #fff; opacity: 1;" id="p-type-functions"></path><path d="M56.470264028463774,-188.7329046047763A197,197,0,0,1,58.08200939872997,-188.24314113455992L50.30049564214668,-163.0233423107083A170.6070045455344,170.6070045455344,0,0,0,48.9046832070642,-163.44748991776132Z" fill-rule="evenodd" style="fill: #DB3F29; stroke: #fff; opacity: 1;" id="p-type-functions"></path><path d="M58.08200939872997,-188.24314113455992A197,197,0,0,1,59.689507996080245,-187.73961392094603L51.692630263999874,-162.5872749522219A170.6070045455344,170.6070045455344,0,0,0,50.30049564214668,-163.0233423107083Z" fill-rule="evenodd" style="fill: #DB3F29; stroke: #fff; opacity: 1;" id="p-type-functions"></path><path d="M59.689507996080245,-187.73961392094603A197,197,0,0,1,61.29264228529888,-187.2223597802527L53.08098528414112,-162.1393197261688A170.6070045455344,170.6070045455344,0,0,0,51.692630263999874,-162.5872749522219Z" fill-rule="evenodd" style="fill: #DB3F29; stroke: #fff; opacity: 1;" id="p-type-functions"></path><path d="M61.29264228529888,-187.2223597802527A197,197,0,0,1,62.89129505027452,-186.6914165324676L54.46545919044026,-161.67950938561907A170.6070045455344,170.6070045455344,0,0,0,53.08098528414112,-162.1393197261688Z" fill-rule="evenodd" style="fill: #DB3F29; stroke: #fff; opacity: 1;" id="p-type-functions"></path><path d="M62.89129505027452,-186.6914165324676A197,197,0,0,1,64.48534940257073,-186.1468229984825L55.845950754541924,-161.20787755045123A170.6070045455344,170.6070045455344,0,0,0,54.46545919044026,-161.67950938561907Z" fill-rule="evenodd" style="fill: #DB3F29; stroke: #fff; opacity: 1;" id="p-type-functions"></path><path d="M64.48534940257073,-186.1468229984825A197,197,0,0,1,66.07468878997247,-185.588618997255L57.22235903926703,-160.72445870489412A170.6070045455344,170.6070045455344,0,0,0,55.845950754541924,-161.20787755045123Z" fill-rule="evenodd" style="fill: #DB3F29; stroke: #fff; opacity: 1;" id="p-type-functions"></path><path d="M66.07468878997247,-185.588618997255A197,197,0,0,1,67.65919700500801,-185.01684534289714L58.59458340599294,-160.22928819500552A170.6070045455344,170.6070045455344,0,0,0,57.22235903926703,-160.72445870489412Z" fill-rule="evenodd" style="fill: #DB3F29; stroke: #fff; opacity: 1;" id="p-type-functions"></path><path d="M67.65919700500801,-185.01684534289714A197,197,0,0,1,69.23875819344569,-184.4315438416909L59.962523522011914,-159.72240222608778A170.6070045455344,170.6070045455344,0,0,0,58.59458340599294,-160.22928819500552Z" fill-rule="evenodd" style="fill: #DB3F29; stroke: #fff; opacity: 1;" id="p-type-functions"></path><path d="M69.23875819344569,-184.4315438416909A197,197,0,0,1,70.81325686276477,-183.83275728903186L61.32607936786703,-159.20383786004052A170.6070045455344,170.6070045455344,0,0,0,59.962523522011914,-159.72240222608778Z" fill-rule="evenodd" style="fill: #DB3F29; stroke: #fff; opacity: 1;" id="p-type-functions"></path><path d="M70.81325686276477,-183.83275728903186A197,197,0,0,1,72.38257789059995,-183.22052946629978L62.68515124466539,-158.67363301265092A170.6070045455344,170.6070045455344,0,0,0,61.32607936786703,-159.20383786004052Z" fill-rule="evenodd" style="fill: #DB3F29; stroke: #fff; opacity: 1;" id="p-type-functions"></path><path d="M72.38257789059995,-183.22052946629978A197,197,0,0,1,73.94660653315866,-182.5949051376577L64.03963978136773,-158.13182645082128A170.6070045455344,170.6070045455344,0,0,0,62.68515124466539,-158.67363301265092Z" fill-rule="evenodd" style="fill: #DB3F29; stroke: #fff; opacity: 1;" id="p-type-functions"></path><path d="M73.94660653315866,-182.5949051376577A197,197,0,0,1,75.50522843361082,-181.95593004677878L65.38944594205408,-157.57845778973464A170.6070045455344,170.6070045455344,0,0,0,64.03963978136773,-158.13182645082128Z" fill-rule="evenodd" style="fill: #DB3F29; stroke: #fff; opacity: 1;" id="p-type-functions"></path><path d="M75.50522843361082,-181.95593004677878A197,197,0,0,1,77.05832963045027,-181.30365091350166L66.73447103316508,-157.01356748995818A170.6070045455344,170.6070045455344,0,0,0,65.38944594205408,-157.57845778973464Z" fill-rule="evenodd" style="fill: #DB3F29; stroke: #fff; opacity: 1;" id="p-type-functions"></path><path d="M77.05832963045027,-181.30365091350166A197,197,0,0,1,78.60579656582723,-180.6381154304146L68.07461671071796,-156.43719685448482A170.6070045455344,170.6070045455344,0,0,0,66.73447103316508,-157.01356748995818Z" fill-rule="evenodd" style="fill: #DB3F29; stroke: #fff; opacity: 1;" id="p-type-functions"></path><path d="M78.60579656582723,-180.6381154304146A197,197,0,0,1,80.1475160938513,-179.95937225936817L69.40978498749736,-155.8493880257134A170.6070045455344,170.6070045455344,0,0,0,68.07461671071796,-156.43719685448482Z" fill-rule="evenodd" style="fill: #DB3F29; stroke: #fff; opacity: 1;" id="p-type-functions"></path><path d="M80.1475160938513,-179.95937225936817A197,197,0,0,1,81.68337548886433,-179.2674710279174L70.73987824021964,-155.2501839823673A170.6070045455344,170.6070045455344,0,0,0,69.40978498749736,-155.8493880257134Z" fill-rule="evenodd" style="fill: #DB3F29; stroke: #fff; opacity: 1;" id="p-type-functions"></path><path d="M81.68337548886433,-179.2674710279174A197,197,0,0,1,83.21326245368257,-178.56246232569302L72.06479921667092,-154.63962853635192A170.6070045455344,170.6070045455344,0,0,0,70.73987824021964,-155.2501839823673Z" fill-rule="evenodd" style="fill: #DB3F29; stroke: #fff; opacity: 1;" id="p-type-functions"></path><path d="M83.21326245368257,-178.56246232569302A197,197,0,0,1,84.73706512780754,-177.8443977007027L73.3844510428178,-154.01776632955134A170.6070045455344,170.6070045455344,0,0,0,72.06479921667092,-154.63962853635192Z" fill-rule="evenodd" style="fill: #DB3F29; stroke: #fff; opacity: 1;" id="p-type-functions"></path><path d="M84.73706512780754,-177.8443977007027A197,197,0,0,1,86.25467209560477,-177.11332965556178L74.69873722989048,-153.38464283056427A170.6070045455344,170.6070045455344,0,0,0,73.3844510428178,-154.01776632955134Z" fill-rule="evenodd" style="fill: #DB3F29; stroke: #fff; opacity: 1;" id="p-type-functions"></path><path d="M86.25467209560477,-177.11332965556178A197,197,0,0,1,87.76597239445034,-176.36931164365467L76.00756168143775,-152.74030433137952A170.6070045455344,170.6070045455344,0,0,0,74.69873722989048,-153.38464283056427Z" fill-rule="evenodd" style="fill: #DB3F29; stroke: #fff; opacity: 1;" id="p-type-functions"></path><path d="M87.76597239445034,-176.36931164365467A197,197,0,0,1,89.27085552284395,-175.61239806522636L77.31082870035321,-152.08479794399122A170.6070045455344,170.6070045455344,0,0,0,76.00756168143775,-152.74030433137952Z" fill-rule="evenodd" style="fill: #DB3F29; stroke: #fff; opacity: 1;" id="p-type-functions"></path><path d="M89.27085552284395,-175.61239806522636A197,197,0,0,1,90.76921144848858,-174.84264426340494L78.60844299587241,-151.41817159695424A170.6070045455344,170.6070045455344,0,0,0,77.31082870035321,-152.08479794399122Z" fill-rule="evenodd" style="fill: #DB3F29; stroke: #fff; opacity: 1;" id="p-type-functions"></path><path d="M90.76921144848858,-174.84264426340494A197,197,0,0,1,92.2609306163356,-174.06010652015502L79.90030969054011,-150.74047403187964A170.6070045455344,170.6070045455344,0,0,0,78.60844299587241,-151.41817159695424Z" fill-rule="evenodd" style="fill: #DB3F29; stroke: #fff; opacity: 1;" id="p-type-functions"></path><path d="M92.2609306163356,-174.06010652015502A197,197,0,0,1,93.74590395659513,-173.26484205216255L81.1863343271475,-150.05175479987105A170.6070045455344,170.6070045455344,0,0,0,79.90030969054011,-150.74047403187964Z" fill-rule="evenodd" style="fill: #DB3F29; stroke: #fff; opacity: 1;" id="p-type-functions"></path><path d="M93.74590395659513,-173.26484205216255A197,197,0,0,1,95.22402289271092,-172.45690900665147L82.4664228756386,-149.35206425790153A170.6070045455344,170.6070045455344,0,0,0,81.1863343271475,-150.05175479987105Z" fill-rule="evenodd" style="fill: #DB3F29; stroke: #fff; opacity: 1;" id="p-type-functions"></path><path d="M95.22402289271092,-172.45690900665147A197,197,0,0,1,96.69517934929904,-171.63636645713197L83.74048173998541,-148.64145356513157A170.6070045455344,170.6070045455344,0,0,0,82.4664228756386,-149.35206425790153Z" fill-rule="evenodd" style="fill: #DB3F29; stroke: #fff; opacity: 1;" id="p-type-functions"></path><path d="M96.69517934929904,-171.63636645713197A197,197,0,0,1,98.15926576005006,-170.80327439908132L85.00841776503137,-147.91997467916866A170.6070045455344,170.6070045455344,0,0,0,83.74048173998541,-148.64145356513157Z" fill-rule="evenodd" style="fill: #DB3F29; stroke: #fff; opacity: 1;" id="p-type-functions"></path><path d="M98.15926576005006,-170.80327439908132A197,197,0,0,1,99.61617507559397,-169.95769374555718L86.27013824330261,-147.18768035226813A170.6070045455344,170.6070045455344,0,0,0,85.00841776503137,-147.91997467916866Z" fill-rule="evenodd" style="fill: #DB3F29; stroke: #fff; opacity: 1;" id="p-type-functions"></path><path d="M99.61617507559397,-169.95769374555718A197,197,0,0,1,101.06580077132726,-169.09968632274393L87.52555092178632,-146.44462412747623A170.6070045455344,170.6070045455344,0,0,0,86.27013824330261,-147.18768035226813Z" fill-rule="evenodd" style="fill: #DB3F29; stroke: #fff; opacity: 1;" id="p-type-functions"></path><path d="M101.06580077132726,-169.09968632274393A197,197,0,0,1,102.50803685520167,-168.2293148654319L88.77456400867614,-145.6908603347151A170.6070045455344,170.6070045455344,0,0,0,87.52555092178632,-146.44462412747623Z" fill-rule="evenodd" style="fill: #DB3F29; stroke: #fff; opacity: 1;" id="p-type-functions"></path><path d="M102.50803685520167,-168.2293148654319A197,197,0,0,1,103.942777875474,-167.34664301243058L90.01708618008358,-144.92644408681048A170.6070045455344,170.6070045455344,0,0,0,88.77456400867614,-145.6908603347151Z" fill-rule="evenodd" style="fill: #DB3F29; stroke: #fff; opacity: 1;" id="p-type-functions"></path><path d="M103.942777875474,-167.34664301243058A197,197,0,0,1,105.36991892841642,-166.4517353019155L91.2530265867154,-144.15143127546187A170.6070045455344,170.6070045455344,0,0,0,90.01708618008358,-144.92644408681048Z" fill-rule="evenodd" style="fill: #DB3F29; stroke: #fff; opacity: 1;" id="p-type-functions"></path><path d="M105.36991892841642,-166.4517353019155A197,197,0,0,1,106.7893556659867,-165.54465716670953L92.48229486051616,-143.36587856715607A170.6070045455344,170.6070045455344,0,0,0,91.2530265867154,-144.15143127546187Z" fill-rule="evenodd" style="fill: #DB3F29; stroke: #fff; opacity: 1;" id="p-type-functions"></path><path d="M106.7893556659867,-165.54465716670953A197,197,0,0,1,108.20098430345774,-164.62547492949835L93.7048011212757,-142.5698433990238A170.6070045455344,170.6070045455344,0,0,0,92.48229486051616,-143.36587856715607Z" fill-rule="evenodd" style="fill: #DB3F29; stroke: #fff; opacity: 1;" id="p-type-functions"></path><path d="M108.20098430345774,-164.62547492949835A197,197,0,0,1,109.60470162700607,-163.6942557979814L94.92045598320085,-141.76338397464002A170.6070045455344,170.6070045455344,0,0,0,93.7048011212757,-142.5698433990238Z" fill-rule="evenodd" style="fill: #DB3F29; stroke: #fff; opacity: 1;" id="p-type-functions"></path><path d="M109.60470162700607,-163.6942557979814A197,197,0,0,1,111.0004050012585,-162.75106785995777L96.1291705614511,-140.9465592597685A170.6070045455344,170.6070045455344,0,0,0,94.92045598320085,-141.76338397464002Z" fill-rule="evenodd" style="fill: #DB3F29; stroke: #fff; opacity: 1;" id="p-type-functions"></path><path d="M111.0004050012585,-162.75106785995777A197,197,0,0,1,112.38799237679648,-161.79598007834787L97.33085647863759,-140.1194289780502A170.6070045455344,170.6070045455344,0,0,0,96.1291705614511,-140.9465592597685Z" fill-rule="evenodd" style="fill: #DB3F29; stroke: #fff; opacity: 1;" id="p-type-functions"></path><path d="M112.38799237679648,-161.79598007834787A197,197,0,0,1,113.76736229761757,-160.82906228615096L98.52542587128477,-139.2820536066365A170.6070045455344,170.6070045455344,0,0,0,97.33085647863759,-140.1194289780502Z" fill-rule="evenodd" style="fill: #DB3F29; stroke: #fff; opacity: 1;" id="p-type-functions"></path><path d="M113.76736229761757,-160.82906228615096A197,197,0,0,1,115.13841390855367,-159.8503851813394L99.71279139625501,-138.4344943717675A170.6070045455344,170.6070045455344,0,0,0,98.52542587128477,-139.2820536066365Z" fill-rule="evenodd" style="fill: #DB3F29; stroke: #fff; opacity: 1;" id="p-type-functions"></path><path d="M115.13841390855367,-159.8503851813394A197,197,0,0,1,116.50104696264528,-158.86002032168923L100.89286623713473,-137.57681324429507A170.6070045455344,170.6070045455344,0,0,0,99.71279139625501,-138.4344943717675Z" fill-rule="evenodd" style="fill: #DB3F29; stroke: #fff; opacity: 1;" id="p-type-functions"></path><path d="M116.50104696264528,-158.86002032168923A197,197,0,0,1,117.85516182847105,-157.85804011954824L102.065564110582,-136.70907293515188A170.6070045455344,170.6070045455344,0,0,0,100.89286623713473,-137.57681324429507Z" fill-rule="evenodd" style="fill: #DB3F29; stroke: #fff; opacity: 1;" id="p-type-functions"></path><path d="M117.85516182847105,-157.85804011954824A197,197,0,0,1,119.2006594974327,-156.84451783654126L103.23079927263552,-135.8313368907662A170.6070045455344,170.6070045455344,0,0,0,102.065564110582,-136.70907293515188Z" fill-rule="evenodd" style="fill: #DB3F29; stroke: #fff; opacity: 1;" id="p-type-functions"></path><path d="M119.2006594974327,-156.84451783654126A197,197,0,0,1,120.5374415909941,-155.81952757821364L104.38848652498386,-134.94366928842294A170.6070045455344,170.6070045455344,0,0,0,103.23079927263552,-135.8313368907662Z" fill-rule="evenodd" style="fill: #DB3F29; stroke: #fff; opacity: 1;" id="p-type-functions"></path><path d="M120.5374415909941,-155.81952757821364A197,197,0,0,1,121.86541036787449,-154.78314428861287L105.53854122119482,-134.046135031571A170.6070045455344,170.6070045455344,0,0,0,104.38848652498386,-134.94366928842294Z" fill-rule="evenodd" style="fill: #DB3F29; stroke: #fff; opacity: 1;" id="p-type-functions"></path><path d="M121.86541036787449,-154.78314428861287A197,197,0,0,1,123.18446873119488,-153.7354437448088L106.6808792729046,-133.13879974507788A170.6070045455344,170.6070045455344,0,0,0,105.53854122119482,-134.046135031571Z" fill-rule="evenodd" style="fill: #DB3F29; stroke: #fff; opacity: 1;" id="p-type-functions"></path><path d="M123.18446873119488,-153.7354437448088A197,197,0,0,1,124.49452023557767,-152.67650255135314L107.81541715596612,-132.22172977043147A170.6070045455344,170.6070045455344,0,0,0,106.6808792729046,-133.13879974507788Z" fill-rule="evenodd" style="fill: #DB3F29; stroke: #fff; opacity: 1;" id="p-type-functions"></path><path d="M124.49452023557767,-152.67650255135314A197,197,0,0,1,125.79546909419822,-151.60639813467841L108.94207191655589,-131.29499216088925A170.6070045455344,170.6070045455344,0,0,0,107.81541715596612,-132.22172977043147Z" fill-rule="evenodd" style="fill: #DB3F29; stroke: #fff; opacity: 1;" id="p-type-functions"></path><path d="M125.79546909419822,-151.60639813467841A197,197,0,0,1,127.08722018578861,-150.52520873743666L110.06076117723944,-130.3586546765755A170.6070045455344,170.6070045455344,0,0,0,108.94207191655589,-131.29499216088925Z" fill-rule="evenodd" style="fill: #DB3F29; stroke: #fff; opacity: 1;" id="p-type-functions"></path><path d="M127.08722018578861,-150.52520873743666A197,197,0,0,1,128.36967906159256,-149.43301341277876L111.17140314299449,-129.41278577952718A170.6070045455344,170.6070045455344,0,0,0,110.06076117723944,-130.3586546765755Z" fill-rule="evenodd" style="fill: #DB3F29; stroke: #fff; opacity: 1;" id="p-type-functions"></path><path d="M128.36967906159256,-149.43301341277876A197,197,0,0,1,129.64275195227123,-148.32989201857418L112.27391660719151,-128.45745462868788A170.6070045455344,170.6070045455344,0,0,0,111.17140314299449,-129.41278577952718Z" fill-rule="evenodd" style="fill: #DB3F29; stroke: #fff; opacity: 1;" id="p-type-functions"></path><path d="M129.64275195227123,-148.32989201857418A197,197,0,0,1,130.90634577475936,-147.21592521157194L113.3682209575313,-127.4927310748513A170.6070045455344,170.6070045455344,0,0,0,112.27391660719151,-128.45745462868788Z" fill-rule="evenodd" style="fill: #DB3F29; stroke: #fff; opacity: 1;" id="p-type-functions"></path><path d="M130.90634577475936,-147.21592521157194A197,197,0,0,1,132.16036813907115,-146.09119444150352L114.45423618193915,-126.51868565555401A170.6070045455344,170.6070045455344,0,0,0,113.3682209575313,-127.4927310748513Z" fill-rule="evenodd" style="fill: #DB3F29; stroke: #fff; opacity: 1;" id="p-type-functions"></path><path d="M132.16036813907115,-146.09119444150352A197,197,0,0,1,133.40472735505563,-144.95578194512723L115.53188287441499,-125.53538958991786A170.6070045455344,170.6070045455344,0,0,0,114.45423618193915,-126.51868565555401Z" fill-rule="evenodd" style="fill: #DB3F29; stroke: #fff; opacity: 1;" id="p-type-functions"></path><path d="M133.40472735505563,-144.95578194512723A197,197,0,0,1,134.6393324391006,-143.80977074021553L116.60108224083938,-124.5429147734427A170.6070045455344,170.6070045455344,0,0,0,115.53188287441499,-125.53538958991786Z" fill-rule="evenodd" style="fill: #DB3F29; stroke: #fff; opacity: 1;" id="p-type-functions"></path><path d="M134.6393324391006,-143.80977074021553A197,197,0,0,1,135.86409312078524,-142.6532446194849L117.66175610473461,-123.54133377274971A170.6070045455344,170.6070045455344,0,0,0,116.60108224083938,-124.5429147734427Z" fill-rule="evenodd" style="fill: #DB3F29; stroke: #fff; opacity: 1;" id="p-type-functions"></path><path d="M135.86409312078524,-142.6532446194849A197,197,0,0,1,136.6548660540687,-141.89590404146466L118.34658555358321,-122.8854575928674A170.6070045455344,170.6070045455344,0,0,0,117.66175610473461,-123.54133377274971Z" fill-rule="evenodd" style="fill: #DB3F29; stroke: #fff; opacity: 1;" id="p-type-functions"></path><path d="M196.25075072250974,17.165163583588388A197,197,0,0,1,196.09680090541465,18.84262918655892L169.8248111849484,16.318195549650138A170.6070045455344,170.6070045455344,0,0,0,169.95813563746069,14.865467723503077Z" fill-rule="evenodd" style="fill: #1DC690; stroke: #fff; opacity: 1;" id="p-type-logs"></path><path d="M196.09680090541465,18.84262918655892A197,197,0,0,1,195.92851311014698,20.51871707604945L169.6790696790997,17.769730240924382A170.6070045455344,170.6070045455344,0,0,0,169.8248111849484,16.318195549650138Z" fill-rule="evenodd" style="fill: #1DC690; stroke: #fff; opacity: 1;" id="p-type-logs"></path><path d="M195.92851311014698,20.51871707604945A197,197,0,0,1,195.74589964137826,22.19330470181203L169.5209217760728,19.219965665697842A170.6070045455344,170.6070045455344,0,0,0,169.6790696790997,17.769730240924382Z" fill-rule="evenodd" style="fill: #1DC690; stroke: #fff; opacity: 1;" id="p-type-logs"></path><path d="M195.74589964137826,22.19330470181203A197,197,0,0,1,195.54897385122806,23.86626962329323L169.3503790391424,20.6687957873408A170.6070045455344,170.6070045455344,0,0,0,169.5209217760728,19.219965665697842Z" fill-rule="evenodd" style="fill: #1DC690; stroke: #fff; opacity: 1;" id="p-type-logs"></path><path d="M195.54897385122806,23.86626962329323A197,197,0,0,1,195.3377501382876,25.537489518586646L169.1674539378543,22.11611467197487A170.6070045455344,170.6070045455344,0,0,0,169.3503790391424,20.6687957873408Z" fill-rule="evenodd" style="fill: #1DC690; stroke: #fff; opacity: 1;" id="p-type-logs"></path><path d="M195.3377501382876,25.537489518586646A197,197,0,0,1,195.11224394656708,27.20684219337667L168.97215984711363,23.56181649621853A170.6070045455344,170.6070045455344,0,0,0,169.1674539378543,22.11611467197487Z" fill-rule="evenodd" style="fill: #1DC690; stroke: #fff; opacity: 1;" id="p-type-logs"></path><path d="M195.11224394656708,27.20684219337667A197,197,0,0,1,194.8724717643663,28.87420558987294L168.76451104620696,25.005795554924607A170.6070045455344,170.6070045455344,0,0,0,168.97215984711363,23.56181649621853Z" fill-rule="evenodd" style="fill: #1DC690; stroke: #fff; opacity: 1;" id="p-type-logs"></path><path d="M194.8724717643663,28.87420558987294A197,197,0,0,1,194.61845112306935,30.539457795734847L168.54452271775816,26.447946268909096A170.6070045455344,170.6070045455344,0,0,0,168.76451104620696,25.005795554924607Z" fill-rule="evenodd" style="fill: #1DC690; stroke: #fff; opacity: 1;" id="p-type-logs"></path><path d="M194.61845112306935,30.539457795734847A197,197,0,0,1,194.3502005958624,32.20247705298537L168.3122109466184,27.888163192670778A170.6070045455344,170.6070045455344,0,0,0,168.54452271775816,26.447946268909096Z" fill-rule="evenodd" style="fill: #1DC690; stroke: #fff; opacity: 1;" id="p-type-logs"></path><path d="M194.3502005958624,32.20247705298537A197,197,0,0,1,194.06773979637603,33.86314176691362L168.06759271868992,29.32634102210106A170.6070045455344,170.6070045455344,0,0,0,168.3122109466184,27.888163192670778Z" fill-rule="evenodd" style="fill: #1DC690; stroke: #fff; opacity: 1;" id="p-type-logs"></path><path d="M194.06773979637603,33.86314176691362A197,197,0,0,1,193.77108937725095,35.52133051496549L167.81068591968432,30.762374602183492A170.6070045455344,170.6070045455344,0,0,0,168.06759271868992,29.32634102210106Z" fill-rule="evenodd" style="fill: #1DC690; stroke: #fff; opacity: 1;" id="p-type-logs"></path><path d="M193.77108937725095,35.52133051496549A197,197,0,0,1,193.46027102862809,37.17692205562165L167.54150933381456,32.196158934682344A170.6070045455344,170.6070045455344,0,0,0,167.81068591968432,30.762374602183492Z" fill-rule="evenodd" style="fill: #1DC690; stroke: #fff; opacity: 1;" id="p-type-logs"></path><path d="M193.46027102862809,37.17692205562165A197,197,0,0,1,193.13530747656245,38.829795337262375L167.2600826424217,33.62758918581976A170.6070045455344,170.6070045455344,0,0,0,167.54150933381456,32.196158934682344Z" fill-rule="evenodd" style="fill: #1DC690; stroke: #fff; opacity: 1;" id="p-type-logs"></path><path d="M193.13530747656245,38.829795337262375A197,197,0,0,1,192.7962224813617,40.479829507018444L166.96642642253573,35.05656069394088A170.6070045455344,170.6070045455344,0,0,0,167.2600826424217,33.62758918581976Z" fill-rule="evenodd" style="fill: #1DC690; stroke: #fff; opacity: 1;" id="p-type-logs"></path><path d="M192.7962224813617,40.479829507018444A197,197,0,0,1,192.44304083584876,42.12690391960753L166.66056214537113,36.48296897716636A170.6070045455344,170.6070045455344,0,0,0,166.96642642253573,35.05656069394088Z" fill-rule="evenodd" style="fill: #1DC690; stroke: #fff; opacity: 1;" id="p-type-logs"></path><path d="M192.44304083584876,42.12690391960753A197,197,0,0,1,192.07578836354907,43.77089814615537L166.34251217475696,37.90670974103174A170.6070045455344,170.6070045455344,0,0,0,166.66056214537113,36.48296897716636Z" fill-rule="evenodd" style="fill: #1DC690; stroke: #fff; opacity: 1;" id="p-type-logs"></path><path d="M192.07578836354907,43.77089814615537A197,197,0,0,1,191.6944919168024,45.4116919830012L166.0122997655016,39.32767888611317A170.6070045455344,170.6070045455344,0,0,0,166.34251217475696,37.90670974103174Z" fill-rule="evenodd" style="fill: #1DC690; stroke: #fff; opacity: 1;" id="p-type-logs"></path><path d="M191.6944919168024,45.4116919830012A197,197,0,0,1,191.29917937479962,47.04916546048661L165.6699490616926,40.74577251563878A170.6070045455344,170.6070045455344,0,0,0,166.0122997655016,39.32767888611317Z" fill-rule="evenodd" style="fill: #1DC690; stroke: #fff; opacity: 1;" id="p-type-logs"></path><path d="M191.29917937479962,47.04916546048661A197,197,0,0,1,190.88987964154404,48.68319885172738L165.31548509493106,42.16088694308532A170.6070045455344,170.6070045455344,0,0,0,165.6699490616926,40.74577251563878Z" fill-rule="evenodd" style="fill: #1DC690; stroke: #fff; opacity: 1;" id="p-type-logs"></path><path d="M190.88987964154404,48.68319885172738A197,197,0,0,1,190.46662264373833,50.31367268136752L164.9489337825018,43.572918699759384A170.6070045455344,170.6070045455344,0,0,0,165.31548509493106,42.16088694308532Z" fill-rule="evenodd" style="fill: #1DC690; stroke: #fff; opacity: 1;" id="p-type-logs"></path><path d="M190.46662264373833,50.31367268136752A197,197,0,0,1,190.0294393285961,51.94046773431492L164.57032192547794,44.98176454236269A170.6070045455344,170.6070045455344,0,0,0,164.9489337825018,43.572918699759384Z" fill-rule="evenodd" style="fill: #1DC690; stroke: #fff; opacity: 1;" id="p-type-logs"></path><path d="M190.0294393285961,51.94046773431492A197,197,0,0,1,189.57836166157935,53.56346506445802L164.1796772067616,46.38732146054093A170.6070045455344,170.6070045455344,0,0,0,164.57032192547794,44.98176454236269Z" fill-rule="evenodd" style="fill: #1DC690; stroke: #fff; opacity: 1;" id="p-type-logs"></path><path d="M189.57836166157935,53.56346506445802A197,197,0,0,1,189.11342262406114,55.18254600336272L163.77702818905973,47.78948668441556A170.6070045455344,170.6070045455344,0,0,0,164.1796772067616,46.38732146054093Z" fill-rule="evenodd" style="fill: #1DC690; stroke: #fff; opacity: 1;" id="p-type-logs"></path><path d="M189.11342262406114,55.18254600336272A197,197,0,0,1,188.63465621091405,56.79759216894906L163.3624043127956,49.18815769209798A170.6070045455344,170.6070045455344,0,0,0,163.77702818905973,47.78948668441556Z" fill-rule="evenodd" style="fill: #1DC690; stroke: #fff; opacity: 1;" id="p-type-logs"></path><path d="M188.63465621091405,56.79759216894906A197,197,0,0,1,188.14209742802475,58.40848547414699L162.93583589395635,50.58323221718567A170.6070045455344,170.6070045455344,0,0,0,163.3624043127956,49.18815769209798Z" fill-rule="evenodd" style="fill: #1DC690; stroke: #fff; opacity: 1;" id="p-type-logs"></path><path d="M188.14209742802475,58.40848547414699A197,197,0,0,1,187.63578228973435,60.01510813553044L162.4973541218762,51.9746082562395A170.6070045455344,170.6070045455344,0,0,0,162.93583589395635,50.58323221718567Z" fill-rule="evenodd" style="fill: #1DC690; stroke: #fff; opacity: 1;" id="p-type-logs"></path><path d="M187.63578228973435,60.01510813553044A197,197,0,0,1,187.11574781620516,61.61734268192936L162.04699105695627,53.362184076241995A170.6070045455344,170.6070045455344,0,0,0,162.4973541218762,51.9746082562395Z" fill-rule="evenodd" style="fill: #1DC690; stroke: #fff; opacity: 1;" id="p-type-logs"></path><path d="M187.11574781620516,61.61734268192936A197,197,0,0,1,186.58203203071395,63.21507196301874L161.5847796283201,54.74585822203564A170.6070045455344,170.6070045455344,0,0,0,162.04699105695627,53.362184076241995Z" fill-rule="evenodd" style="fill: #1DC690; stroke: #fff; opacity: 1;" id="p-type-logs"></path><path d="M186.58203203071395,63.21507196301874A197,197,0,0,1,186.0346739568717,64.80817915788435L161.1107536314062,56.125529523741044A170.6070045455344,170.6070045455344,0,0,0,161.5847796283201,54.74585822203564Z" fill-rule="evenodd" style="fill: #1DC690; stroke: #fff; opacity: 1;" id="p-type-logs"></path><path d="M186.0346739568717,64.80817915788435A197,197,0,0,1,185.4737136157705,66.39654778356433L160.62494772549698,57.50109710415408A170.6070045455344,170.6070045455344,0,0,0,161.1107536314062,56.125529523741044Z" fill-rule="evenodd" style="fill: #1DC690; stroke: #fff; opacity: 1;" id="p-type-logs"></path><path d="M185.4737136157705,66.39654778356433A197,197,0,0,1,184.89919202305714,67.980061703566L160.1273974311845,58.87246038612179A170.6070045455344,170.6070045455344,0,0,0,160.62494772549698,57.50109710415408Z" fill-rule="evenodd" style="fill: #1DC690; stroke: #fff; opacity: 1;" id="p-type-logs"></path><path d="M184.89919202305714,67.980061703566A197,197,0,0,1,184.31115118593428,69.55860513635734L159.61813912777345,60.23951909989619A170.6070045455344,170.6070045455344,0,0,0,160.1273974311845,58.87246038612179Z" fill-rule="evenodd" style="fill: #1DC690; stroke: #fff; opacity: 1;" id="p-type-logs"></path><path d="M184.31115118593428,69.55860513635734A197,197,0,0,1,183.70963410008898,71.13206266383276L159.09721005062102,61.60217329046575A170.6070045455344,170.6070045455344,0,0,0,159.61813912777345,60.23951909989619Z" fill-rule="evenodd" style="fill: #1DC690; stroke: #fff; opacity: 1;" id="p-type-logs"></path><path d="M183.70963410008898,71.13206266383276A197,197,0,0,1,183.094684746549,72.7003192397519L158.5646482884146,62.96032332486374A170.6070045455344,170.6070045455344,0,0,0,159.09721005062102,61.60217329046575Z" fill-rule="evenodd" style="fill: #1DC690; stroke: #fff; opacity: 1;" id="p-type-logs"></path><path d="M183.094684746549,72.7003192397519A197,197,0,0,1,182.46634808846707,74.2632601981516L158.02049278038663,64.31386989945307A170.6070045455344,170.6070045455344,0,0,0,158.5646482884146,62.96032332486374Z" fill-rule="evenodd" style="fill: #1DC690; stroke: #fff; opacity: 1;" id="p-type-logs"></path><path d="M182.46634808846707,74.2632601981516A197,197,0,0,1,181.82467006783335,75.82077126172979L157.4647833134677,65.6627140471871A170.6070045455344,170.6070045455344,0,0,0,158.02049278038663,64.31386989945307Z" fill-rule="evenodd" style="fill: #1DC690; stroke: #fff; opacity: 1;" id="p-type-logs"></path><path d="M181.82467006783335,75.82077126172979A197,197,0,0,1,181.16969760211614,77.37273855020118L156.8975605193773,67.00675714484578A170.6070045455344,170.6070045455344,0,0,0,157.4647833134677,65.6627140471871Z" fill-rule="evenodd" style="fill: #1DC690; stroke: #fff; opacity: 1;" id="p-type-logs"></path><path d="M181.16969760211614,77.37273855020118A197,197,0,0,1,180.50147858083167,78.91904858862378L156.31886587165295,68.34590092024663A170.6070045455344,170.6070045455344,0,0,0,156.8975605193773,67.00675714484578Z" fill-rule="evenodd" style="fill: #1DC690; stroke: #fff; opacity: 1;" id="p-type-logs"></path><path d="M180.50147858083167,78.91904858862378A197,197,0,0,1,179.82006186204234,80.45958831569585L155.72874168261797,69.6800474594302A170.6070045455344,170.6070045455344,0,0,0,156.31886587165295,68.34590092024663Z" fill-rule="evenodd" style="fill: #1DC690; stroke: #fff; opacity: 1;" id="p-type-logs"></path><path d="M179.82006186204234,80.45958831569585A197,197,0,0,1,179.12549726878456,81.99424509202251L155.1272311002875,71.00909921381903A170.6070045455344,170.6070045455344,0,0,0,155.72874168261797,69.6800474594302Z" fill-rule="evenodd" style="fill: #1DC690; stroke: #fff; opacity: 1;" id="p-type-logs"></path><path d="M179.12549726878456,81.99424509202251A197,197,0,0,1,178.41783558542562,83.52290670835175L154.5143781052138,72.33295900735033A170.6070045455344,170.6070045455344,0,0,0,155.1272311002875,71.00909921381903Z" fill-rule="evenodd" style="fill: #1DC690; stroke: #fff; opacity: 1;" id="p-type-logs"></path><path d="M178.41783558542562,83.52290670835175A197,197,0,0,1,177.69712855395076,85.04546139377867L153.89022750727048,73.65153004358106A170.6070045455344,170.6070045455344,0,0,0,154.5143781052138,72.33295900735033Z" fill-rule="evenodd" style="fill: #1DC690; stroke: #fff; opacity: 1;" id="p-type-logs"></path><path d="M177.69712855395076,85.04546139377867A197,197,0,0,1,176.96342887017977,86.5617978239178L153.25482494237622,74.96471591276536A170.6070045455344,170.6070045455344,0,0,0,153.89022750727048,73.65153004358106Z" fill-rule="evenodd" style="fill: #1DC690; stroke: #fff; opacity: 1;" id="p-type-logs"></path><path d="M176.96342887017977,86.5617978239178A197,197,0,0,1,176.21679017991417,88.07180512904291L152.60821686915787,76.27242059890378A170.6070045455344,170.6070045455344,0,0,0,153.25482494237622,74.96471591276536Z" fill-rule="evenodd" style="fill: #1DC690; stroke: #fff; opacity: 1;" id="p-type-logs"></path><path d="M176.21679017991417,88.07180512904291A197,197,0,0,1,175.4572670750146,89.57537290219332L151.95045056555364,77.57454848676363A170.6070045455344,170.6070045455344,0,0,0,152.60821686915787,76.27242059890378Z" fill-rule="evenodd" style="fill: #1DC690; stroke: #fff; opacity: 1;" id="p-type-logs"></path><path d="M175.4572670750146,89.57537290219332A197,197,0,0,1,174.68491508940957,91.07239120724662L151.2815741253563,78.87100436887012A170.6070045455344,170.6070045455344,0,0,0,151.95045056555364,77.57454848676363Z" fill-rule="evenodd" style="fill: #1DC690; stroke: #fff; opacity: 1;" id="p-type-logs"></path><path d="M174.68491508940957,91.07239120724662A197,197,0,0,1,173.89979069503457,92.56275058695678L150.60163645469666,80.16169345246753A170.6070045455344,170.6070045455344,0,0,0,151.2815741253563,78.87100436887012Z" fill-rule="evenodd" style="fill: #1DC690; stroke: #fff; opacity: 1;" id="p-type-logs"></path><path d="M173.89979069503457,92.56275058695678A197,197,0,0,1,173.1019512977034,94.04634207095735L149.91068726846783,81.44652136645027A170.6070045455344,170.6070045455344,0,0,0,150.60163645469666,80.16169345246753Z" fill-rule="evenodd" style="fill: #1DC690; stroke: #fff; opacity: 1;" id="p-type-logs"></path><path d="M173.1019512977034,94.04634207095735A197,197,0,0,1,172.2914552329106,95.523057183729L149.20877708668993,82.72539416826292A170.6070045455344,170.6070045455344,0,0,0,149.91068726846783,81.44652136645027Z" fill-rule="evenodd" style="fill: #1DC690; stroke: #fff; opacity: 1;" id="p-type-logs"></path><path d="M172.2914552329106,95.523057183729A197,197,0,0,1,171.4683617615663,96.99278795253092L148.49595723081666,83.99821835076902A170.6070045455344,170.6070045455344,0,0,0,149.20877708668993,82.72539416826292Z" fill-rule="evenodd" style="fill: #1DC690; stroke: #fff; opacity: 1;" id="p-type-logs"></path><path d="M171.4683617615663,96.99278795253092A197,197,0,0,1,170.63273106566308,98.45542691529549L147.7722798199824,85.26490084908806A170.6070045455344,170.6070045455344,0,0,0,148.49595723081666,83.99821835076902Z" fill-rule="evenodd" style="fill: #1DC690; stroke: #fff; opacity: 1;" id="p-type-logs"></path><path d="M170.63273106566308,98.45542691529549A197,197,0,0,1,169.78462424387584,99.91086712848552L147.03779776719176,86.52534904740007A170.6070045455344,170.6070045455344,0,0,0,147.7722798199824,85.26490084908806Z" fill-rule="evenodd" style="fill: #1DC690; stroke: #fff; opacity: 1;" id="p-type-logs"></path><path d="M169.78462424387584,99.91086712848552A197,197,0,0,1,168.92410330709427,101.35900217491363L146.29256477545053,87.77947078571736A170.6070045455344,170.6070045455344,0,0,0,147.03779776719176,86.52534904740007Z" fill-rule="evenodd" style="fill: #1DC690; stroke: #fff; opacity: 1;" id="p-type-logs"></path><path d="M168.92410330709427,101.35900217491363A197,197,0,0,1,168.05123117388897,102.79972617152309L145.53663533383923,89.02717436662302A170.6070045455344,170.6070045455344,0,0,0,146.29256477545053,87.77947078571736Z" fill-rule="evenodd" style="fill: #1DC690; stroke: #fff; opacity: 1;" id="p-type-logs"></path><path d="M168.05123117388897,102.79972617152309A197,197,0,0,1,167.16607166591095,104.2329337771298L144.77006471352894,90.26836856197549A170.6070045455344,170.6070045455344,0,0,0,145.53663533383923,89.02717436662302Z" fill-rule="evenodd" style="fill: #1DC690; stroke: #fff; opacity: 1;" id="p-type-logs"></path><path d="M167.16607166591095,104.2329337771298A197,197,0,0,1,166.26868950322526,105.6585202001243L143.9929089637401,91.50296261957892A170.6070045455344,170.6070045455344,0,0,0,144.77006471352894,90.26836856197549Z" fill-rule="evenodd" style="fill: #1DC690; stroke: #fff; opacity: 1;" id="p-type-logs"></path><path d="M166.26868950322526,105.6585202001243A197,197,0,0,1,165.35915029957874,107.076381206134L143.20522490764435,92.73086626981868A170.6070045455344,170.6070045455344,0,0,0,143.9929089637401,91.50296261957892Z" fill-rule="evenodd" style="fill: #1DC690; stroke: #fff; opacity: 1;" id="p-type-logs"></path><path d="M165.35915029957874,107.076381206134A197,197,0,0,1,164.43752055760274,108.48641312564433L142.40707013820983,93.95198973226155A170.6070045455344,170.6070045455344,0,0,0,143.20522490764435,92.73086626981868Z" fill-rule="evenodd" style="fill: #1DC690; stroke: #fff; opacity: 1;" id="p-type-logs"></path><path d="M164.43752055760274,108.48641312564433A197,197,0,0,1,163.50386766395047,109.88851286157879L141.59850301399013,95.16624372222026A170.6070045455344,170.6070045455344,0,0,0,142.40707013820983,93.95198973226155Z" fill-rule="evenodd" style="fill: #1DC690; stroke: #fff; opacity: 1;" id="p-type-logs"></path><path d="M163.50386766395047,109.88851286157879A197,197,0,0,1,162.55825988437005,111.28257789683708L140.77958265485728,96.37353945728158A170.6070045455344,170.6070045455344,0,0,0,141.59850301399013,95.16624372222026Z" fill-rule="evenodd" style="fill: #1DC690; stroke: #fff; opacity: 1;" id="p-type-logs"></path><path d="M162.55825988437005,111.28257789683708A197,197,0,0,1,161.60076635871297,112.66850630179079L139.95036893767912,97.57378866379793A170.6070045455344,170.6070045455344,0,0,0,140.77958265485728,96.37353945728158Z" fill-rule="evenodd" style="fill: #1DC690; stroke: #fff; opacity: 1;" id="p-type-logs"></path><path d="M161.60076635871297,112.66850630179079A197,197,0,0,1,160.63145709587897,114.04619674173618L139.1109224919413,98.7669035833416A170.6070045455344,170.6070045455344,0,0,0,139.95036893767912,97.57378866379793Z" fill-rule="evenodd" style="fill: #1DC690; stroke: #fff; opacity: 1;" id="p-type-logs"></path><path d="M160.63145709587897,114.04619674173618A197,197,0,0,1,159.65040296869714,115.41554848430354L138.2613046953143,99.95279697912143A170.6070045455344,170.6070045455344,0,0,0,139.1109224919413,98.7669035833416Z" fill-rule="evenodd" style="fill: #1DC690; stroke: #fff; opacity: 1;" id="p-type-logs"></path><path d="M159.65040296869714,115.41554848430354A197,197,0,0,1,158.6576757087439,116.77646140682229L137.40157766916548,101.13138214236119A170.6070045455344,170.6070045455344,0,0,0,138.2613046953143,99.95279697912143Z" fill-rule="evenodd" style="fill: #1DC690; stroke: #fff; opacity: 1;" id="p-type-logs"></path><path d="M158.6576757087439,116.77646140682229A197,197,0,0,1,157.65334790109827,118.1288360036417L136.53180427401722,102.30257289863953A170.6070045455344,170.6070045455344,0,0,0,137.40157766916548,101.13138214236119Z" fill-rule="evenodd" style="fill: #1DC690; stroke: #fff; opacity: 1;" id="p-type-logs"></path><path d="M157.65334790109827,118.1288360036417A197,197,0,0,1,156.63749297903462,119.47257339340644L135.6520481049506,103.46628361419079A170.6070045455344,170.6070045455344,0,0,0,136.53180427401722,102.30257289863953Z" fill-rule="evenodd" style="fill: #1DC690; stroke: #fff; opacity: 1;" id="p-type-logs"></path><path d="M156.63749297903462,119.47257339340644A197,197,0,0,1,155.61018521865344,120.80757532628644L134.76237348695562,104.6224292021662A170.6070045455344,170.6070045455344,0,0,0,135.6520481049506,103.46628361419079Z" fill-rule="evenodd" style="fill: #1DC690; stroke: #fff; opacity: 1;" id="p-type-logs"></path><path d="M155.61018521865344,120.80757532628644A197,197,0,0,1,154.57149973345065,122.13374419116064L133.86284547022785,105.77092512885524A170.6070045455344,170.6070045455344,0,0,0,134.76237348695562,104.6224292021662Z" fill-rule="evenodd" style="fill: #1DC690; stroke: #fff; opacity: 1;" id="p-type-logs"></path><path d="M154.57149973345065,122.13374419116064A197,197,0,0,1,153.52151246882536,123.45098302275402L132.9535298254122,106.91168741986642A170.6070045455344,170.6070045455344,0,0,0,133.86284547022785,105.77092512885524Z" fill-rule="evenodd" style="fill: #1DC690; stroke: #fff; opacity: 1;" id="p-type-logs"></path><path d="M153.52151246882536,123.45098302275402A197,197,0,0,1,152.4603001965271,124.75919550872729L132.03449303879412,108.04463266626726A170.6070045455344,170.6070045455344,0,0,0,132.9535298254122,106.91168741986642Z" fill-rule="evenodd" style="fill: #1DC690; stroke: #fff; opacity: 1;" id="p-type-logs"></path><path d="M152.4603001965271,124.75919550872729A197,197,0,0,1,151.3879405090425,126.05828599671904L131.1058023074381,109.16967803068285A170.6070045455344,170.6070045455344,0,0,0,132.03449303879412,108.04463266626726Z" fill-rule="evenodd" style="fill: #1DC690; stroke: #fff; opacity: 1;" id="p-type-logs"></path><path d="M151.3879405090425,126.05828599671904A197,197,0,0,1,150.3045118139219,127.34815950133955L130.16752553427463,110.28674125335267A170.6070045455344,170.6070045455344,0,0,0,131.1058023074381,109.16967803068285Z" fill-rule="evenodd" style="fill: #1DC690; stroke: #fff; opacity: 1;" id="p-type-logs"></path><path d="M150.3045118139219,127.34815950133955A197,197,0,0,1,149.21009332804647,128.62872171111576L129.21973132313522,111.3957406581452A170.6070045455344,170.6070045455344,0,0,0,130.16752553427463,110.28674125335267Z" fill-rule="evenodd" style="fill: #1DC690; stroke: #fff; opacity: 1;" id="p-type-logs"></path><path d="M149.21009332804647,128.62872171111576A197,197,0,0,1,148.10476507183623,129.89987899538704L128.2624889737364,112.49659515852979A170.6070045455344,170.6070045455344,0,0,0,129.21973132313522,111.3957406581452Z" fill-rule="evenodd" style="fill: #1DC690; stroke: #fff; opacity: 1;" id="p-type-logs"></path><path d="M148.10476507183623,129.89987899538704A197,197,0,0,1,146.98860786339907,131.16153841115124L127.29586847661268,113.58922426350541A170.6070045455344,170.6070045455344,0,0,0,128.2624889737364,112.49659515852979Z" fill-rule="evenodd" style="fill: #1DC690; stroke: #fff; opacity: 1;" id="p-type-logs"></path><path d="M146.98860786339907,131.16153841115124A197,197,0,0,1,145.86170331262156,132.41360770986026L126.31994050799908,114.67354808348598A170.6070045455344,170.6070045455344,0,0,0,127.29586847661268,113.58922426350541Z" fill-rule="evenodd" style="fill: #1DC690; stroke: #fff; opacity: 1;" id="p-type-logs"></path><path d="M145.86170331262156,132.41360770986026A197,197,0,0,1,144.7241338152021,133.6559953441651L125.33477642466352,115.74948733614163A170.6070045455344,170.6070045455344,0,0,0,126.31994050799908,114.67354808348598Z" fill-rule="evenodd" style="fill: #1DC690; stroke: #fff; opacity: 1;" id="p-type-logs"></path><path d="M144.7241338152021,133.6559953441651A197,197,0,0,1,143.57598254662616,134.88861047460938L124.34044825868943,116.81696335219544A170.6070045455344,170.6070045455344,0,0,0,125.33477642466352,115.74948733614163Z" fill-rule="evenodd" style="fill: #1DC690; stroke: #fff; opacity: 1;" id="p-type-logs"></path><path d="M143.57598254662616,134.88861047460938A197,197,0,0,1,142.41733345608495,136.1113629762714L123.337028712209,117.87589808117573A170.6070045455344,170.6070045455344,0,0,0,124.34044825868943,116.81696335219544Z" fill-rule="evenodd" style="fill: #1DC690; stroke: #fff; opacity: 1;" id="p-type-logs"></path><path d="M142.41733345608495,136.1113629762714A197,197,0,0,1,141.24827126033716,137.3241634453537L122.32459115208741,118.92621409712267A170.6070045455344,170.6070045455344,0,0,0,123.337028712209,117.87589808117573Z" fill-rule="evenodd" style="fill: #1DC690; stroke: #fff; opacity: 1;" id="p-type-logs"></path><path d="M141.24827126033716,137.3241634453537A197,197,0,0,1,140.0688814375149,138.5269232057198L121.3032096045585,119.96783460424943A170.6070045455344,170.6070045455344,0,0,0,122.32459115208741,118.92621409712267Z" fill-rule="evenodd" style="fill: #1DC690; stroke: #fff; opacity: 1;" id="p-type-logs"></path><path d="M140.0688814375149,138.5269232057198A197,197,0,0,1,138.87925022087364,139.71955431537836L120.27295874981219,121.00068344255735A170.6070045455344,170.6070045455344,0,0,0,121.3032096045585,119.96783460424943Z" fill-rule="evenodd" style="fill: #1DC690; stroke: #fff; opacity: 1;" id="p-type-logs"></path><path d="M138.87925022087364,139.71955431537836A197,197,0,0,1,137.67946459248725,140.9019695729128L119.2339139165341,122.0246850934045A170.6070045455344,170.6070045455344,0,0,0,120.27295874981219,121.00068344255735Z" fill-rule="evenodd" style="fill: #1DC690; stroke: #fff; opacity: 1;" id="p-type-logs"></path><path d="M137.67946459248725,140.9019695729128A197,197,0,0,1,136.46961227688809,142.07408252385738L118.18615107639778,123.03976468502724A170.6070045455344,170.6070045455344,0,0,0,119.2339139165341,122.0246850934045Z" fill-rule="evenodd" style="fill: #1DC690; stroke: #fff; opacity: 1;" id="p-type-logs"></path><path d="M136.46961227688809,142.07408252385738A197,197,0,0,1,135.24978173465277,143.23580746701847L117.12974683850986,124.04584799801479A170.6070045455344,170.6070045455344,0,0,0,118.18615107639778,123.03976468502724Z" fill-rule="evenodd" style="fill: #1DC690; stroke: #fff; opacity: 1;" id="p-type-logs"></path><path d="M135.24978173465277,143.23580746701847A197,197,0,0,1,134.0200621559344,144.38705946074074L116.06477844380865,125.04286147073574A170.6070045455344,170.6070045455344,0,0,0,117.12974683850986,124.04584799801479Z" fill-rule="evenodd" style="fill: #1DC690; stroke: #fff; opacity: 1;" id="p-type-logs"></path><path d="M134.0200621559344,144.38705946074074A197,197,0,0,1,132.78054345394114,145.52775432911776L114.99132375941656,126.0307322047168A170.6070045455344,170.6070045455344,0,0,0,116.06477844380865,125.04286147073574Z" fill-rule="evenodd" style="fill: #1DC690; stroke: #fff; opacity: 1;" id="p-type-logs"></path><path d="M-0.8466136314965176,196.99818081738462A197,197,0,0,1,-2.5310669104653045,196.98373968501753L-2.191968243141147,170.59292269968603A170.6070045455344,170.6070045455344,0,0,0,-0.7331889120661815,170.60542908717537Z" fill-rule="evenodd" style="fill: #D7A449; stroke: #fff; opacity: 1;" id="p-type-tokenTransfers"></path><path d="M-2.5310669104653045,196.98373968501753A197,197,0,0,1,-4.215335125822914,196.95489572431805L-3.6505873044275168,170.56794309697455A170.6070045455344,170.6070045455344,0,0,0,-2.191968243141147,170.59292269968603Z" fill-rule="evenodd" style="fill: #D7A449; stroke: #fff; opacity: 1;" id="p-type-tokenTransfers"></path><path d="M-4.215335125822914,196.95489572431805A197,197,0,0,1,-5.899295129201821,196.91165104426548L-5.10893944631058,170.53049210547047A170.6070045455344,170.6070045455344,0,0,0,-3.6505873044275168,170.56794309697455Z" fill-rule="evenodd" style="fill: #D7A449; stroke: #fff; opacity: 1;" id="p-type-tokenTransfers"></path><path d="M-5.899295129201821,196.91165104426548A197,197,0,0,1,-7.582823794769986,196.85400880677403L-6.566918038691926,170.48057246347193A170.6070045455344,170.6070045455344,0,0,0,-5.10893944631058,170.53049210547047Z" fill-rule="evenodd" style="fill: #D7A449; stroke: #fff; opacity: 1;" id="p-type-tokenTransfers"></path><path d="M-7.582823794769986,196.85400880677403A197,197,0,0,1,-9.265798028233423,196.78197322646193L-8.024416478785906,170.4181878209453A170.6070045455344,170.6070045455344,0,0,0,-6.566918038691926,170.48057246347193Z" fill-rule="evenodd" style="fill: #D7A449; stroke: #fff; opacity: 1;" id="p-type-tokenTransfers"></path><path d="M-9.265798028233423,196.78197322646193A197,197,0,0,1,-10.94809477583647,196.6955495703431L-9.481328198914081,170.34334273925845A170.6070045455344,170.6070045455344,0,0,0,-8.024416478785906,170.4181878209453Z" fill-rule="evenodd" style="fill: #D7A449; stroke: #fff; opacity: 1;" id="p-type-tokenTransfers"></path><path d="M-10.94809477583647,196.6955495703431A197,197,0,0,1,-12.629591033359095,196.59474415744205L-10.937546674297135,170.25604269084718A170.6070045455344,170.6070045455344,0,0,0,-9.481328198914081,170.34334273925845Z" fill-rule="evenodd" style="fill: #D7A449; stroke: #fff; opacity: 1;" id="p-type-tokenTransfers"></path><path d="M-12.629591033359095,196.59474415744205A197,197,0,0,1,-14.31016385511056,196.47956435833188L-12.392965430843601,170.15629405881498A170.6070045455344,170.6070045455344,0,0,0,-10.937546674297135,170.25604269084718Z" fill-rule="evenodd" style="fill: #D7A449; stroke: #fff; opacity: 1;" id="p-type-tokenTransfers"></path><path d="M-14.31016385511056,196.47956435833188A197,197,0,0,1,-15.989690362918843,196.35001859459544L-13.847478052934937,170.04410413646656A170.6070045455344,170.6070045455344,0,0,0,-12.392965430843601,170.15629405881498Z" fill-rule="evenodd" style="fill: #D7A449; stroke: #fff; opacity: 1;" id="p-type-tokenTransfers"></path><path d="M-15.989690362918843,196.35001859459544A197,197,0,0,1,-17.66804775511508,196.20611633820943L-15.30097819120628,169.91948112677437A170.6070045455344,170.6070045455344,0,0,0,-13.847478052934937,170.04410413646656Z" fill-rule="evenodd" style="fill: #D7A449; stroke: #fff; opacity: 1;" id="p-type-tokenTransfers"></path><path d="M-17.66804775511508,196.20611633820943A197,197,0,0,1,-19.345113315512446,196.0478681108519L-16.753359570322388,169.7824341417789A170.6070045455344,170.6070045455344,0,0,0,-15.30097819120628,169.91948112677437Z" fill-rule="evenodd" style="fill: #D7A449; stroke: #fff; opacity: 1;" id="p-type-tokenTransfers"></path><path d="M-19.345113315512446,196.0478681108519A197,197,0,0,1,-21.020764422378786,195.87528548313298L-18.20451599674815,169.63297320192245A170.6070045455344,170.6070045455344,0,0,0,-16.753359570322388,169.7824341417789Z" fill-rule="evenodd" style="fill: #D7A449; stroke: #fff; opacity: 1;" id="p-type-tokenTransfers"></path><path d="M-21.020764422378786,195.87528548313298A197,197,0,0,1,-22.694878557402294,195.68838107374887L-19.65434136651312,169.47110923531648A170.6070045455344,170.6070045455344,0,0,0,-18.20451599674815,169.63297320192245Z" fill-rule="evenodd" style="fill: #D7A449; stroke: #fff; opacity: 1;" id="p-type-tokenTransfers"></path><path d="M-22.694878557402294,195.68838107374887A197,197,0,0,1,-24.36733331464971,195.4871685485591L-21.102729672969517,169.29685407694254A170.6070045455344,170.6070045455344,0,0,0,-19.65434136651312,169.47110923531648Z" fill-rule="evenodd" style="fill: #D7A449; stroke: #fff; opacity: 1;" id="p-type-tokenTransfers"></path><path d="M-24.36733331464971,195.4871685485591A197,197,0,0,1,-26.038006409516207,195.27166261958746L-22.549575014543073,169.1102204677869A170.6070045455344,170.6070045455344,0,0,0,-21.102729672969517,169.29685407694254Z" fill-rule="evenodd" style="fill: #D7A449; stroke: #fff; opacity: 1;" id="p-type-tokenTransfers"></path><path d="M-26.038006409516207,195.27166261958746A197,197,0,0,1,-27.706775687666497,195.04187904394618L-23.994771602476245,168.9112220539091A170.6070045455344,170.6070045455344,0,0,0,-22.549575014543073,169.1102204677869Z" fill-rule="evenodd" style="fill: #D7A449; stroke: #fff; opacity: 1;" id="p-type-tokenTransfers"></path><path d="M-27.706775687666497,195.04187904394618A197,197,0,0,1,-29.37351913396635,194.79783462268392L-25.438213768563145,168.69987338544414A170.6070045455344,170.6070045455344,0,0,0,-23.994771602476245,168.9112220539091Z" fill-rule="evenodd" style="fill: #D7A449; stroke: #fff; opacity: 1;" id="p-type-tokenTransfers"></path><path d="M-29.37351913396635,194.79783462268392A197,197,0,0,1,-31.038114881403946,194.5395471995573L-26.879795972875648,168.47618991553844A170.6070045455344,170.6070045455344,0,0,0,-25.438213768563145,168.69987338544414Z" fill-rule="evenodd" style="fill: #D7A449; stroke: #fff; opacity: 1;" id="p-type-tokenTransfers"></path><path d="M-31.038114881403946,194.5395471995573A197,197,0,0,1,-32.70044122000043,194.2670356597261L-28.319412811480174,168.24018799922024A170.6070045455344,170.6070045455344,0,0,0,-26.879795972875648,168.47618991553844Z" fill-rule="evenodd" style="fill: #D7A449; stroke: #fff; opacity: 1;" id="p-type-tokenTransfers"></path><path d="M-32.70044122000043,194.2670356597261A197,197,0,0,1,-34.36037660570894,193.98031992837275L-29.756959024144464,167.99188489220361A170.6070045455344,170.6070045455344,0,0,0,-28.319412811480174,168.24018799922024Z" fill-rule="evenodd" style="fill: #D7A449; stroke: #fff; opacity: 1;" id="p-type-tokenTransfers"></path><path d="M-34.36037660570894,193.98031992837275A197,197,0,0,1,-36.017799669301525,193.67942096924511L-31.192329502033875,167.73129874962677A170.6070045455344,170.6070045455344,0,0,0,-29.756959024144464,167.99188489220361Z" fill-rule="evenodd" style="fill: #D7A449; stroke: #fff; opacity: 1;" id="p-type-tokenTransfers"></path><path d="M-36.017799669301525,193.67942096924511A197,197,0,0,1,-37.67258922524331,193.36436078312383L-32.625419295396625,167.4584486247247A170.6070045455344,170.6070045455344,0,0,0,-31.192329502033875,167.73129874962677Z" fill-rule="evenodd" style="fill: #D7A449; stroke: #fff; opacity: 1;" id="p-type-tokenTransfers"></path><path d="M-37.67258922524331,193.36436078312383A197,197,0,0,1,-39.324624280553124,193.0351624062138L-34.056123621237354,167.17335446743598A170.6070045455344,170.6070045455344,0,0,0,-32.625419295396625,167.4584486247247Z" fill-rule="evenodd" style="fill: #D7A449; stroke: #fff; opacity: 1;" id="p-type-tokenTransfers"></path><path d="M-39.324624280553124,193.0351624062138A197,197,0,0,1,-40.97378404365023,192.69184990845957L-35.48433787097858,166.87603712294415A170.6070045455344,170.6070045455344,0,0,0,-34.056123621237354,167.17335446743598Z" fill-rule="evenodd" style="fill: #D7A449; stroke: #fff; opacity: 1;" id="p-type-tokenTransfers"></path><path d="M-40.97378404365023,192.69184990845957A197,197,0,0,1,-42.61994793318614,192.33444839178577L-36.90995761810928,166.56651833015354A170.6070045455344,170.6070045455344,0,0,0,-35.48433787097858,166.87603712294415Z" fill-rule="evenodd" style="fill: #D7A449; stroke: #fff; opacity: 1;" id="p-type-tokenTransfers"></path><path d="M-42.61994793318614,192.33444839178577A197,197,0,0,1,-44.26299558686118,191.9629839882614L-38.33287862582028,166.2448207200998A170.6070045455344,170.6070045455344,0,0,0,-36.90995761810928,166.56651833015354Z" fill-rule="evenodd" style="fill: #D7A449; stroke: #fff; opacity: 1;" id="p-type-tokenTransfers"></path><path d="M-44.26299558686118,191.9629839882614A197,197,0,0,1,-45.90280687022497,191.57748385818942L-39.752996854625685,165.91096781429528A170.6070045455344,170.6070045455344,0,0,0,-38.33287862582028,166.2448207200998Z" fill-rule="evenodd" style="fill: #D7A449; stroke: #fff; opacity: 1;" id="p-type-tokenTransfers"></path><path d="M-45.90280687022497,191.57748385818942A197,197,0,0,1,-47.53926188546033,191.17797618812065L-41.17020846996995,165.56498402300898A170.6070045455344,170.6070045455344,0,0,0,-39.752996854625685,165.91096781429528Z" fill-rule="evenodd" style="fill: #D7A449; stroke: #fff; opacity: 1;" id="p-type-tokenTransfers"></path><path d="M-47.53926188546033,191.17797618812065A197,197,0,0,1,-49.172240980149766,190.76449018879293L-42.58440984981992,165.20689464348197A170.6070045455344,170.6070045455344,0,0,0,-41.17020846996995,165.56498402300898Z" fill-rule="evenodd" style="fill: #D7A449; stroke: #fff; opacity: 1;" id="p-type-tokenTransfers"></path><path d="M-49.172240980149766,190.76449018879293A197,197,0,0,1,-50.80162475602412,190.3370560929955L-43.99549759224132,164.83672585807778A170.6070045455344,170.6070045455344,0,0,0,-42.58440984981992,165.20689464348197Z" fill-rule="evenodd" style="fill: #D7A449; stroke: #fff; opacity: 1;" id="p-type-tokenTransfers"></path><path d="M-50.80162475602412,190.3370560929955A197,197,0,0,1,-52.42729407769258,189.89570515335816L-45.40336852295922,164.45450473236772A170.6070045455344,170.6070045455344,0,0,0,-43.99549759224132,164.83672585807778Z" fill-rule="evenodd" style="fill: #D7A449; stroke: #fff; opacity: 1;" id="p-type-tokenTransfers"></path><path d="M-52.42729407769258,189.89570515335816A197,197,0,0,1,-54.04913008135347,189.44046964006642L-46.807919702901785,164.06025921315222A170.6070045455344,170.6070045455344,0,0,0,-45.40336852295922,164.45450473236772Z" fill-rule="evenodd" style="fill: #D7A449; stroke: #fff; opacity: 1;" id="p-type-tokenTransfers"></path><path d="M-54.04913008135347,189.44046964006642A197,197,0,0,1,-55.667014183485236,188.9713828385019L-48.20904843572687,163.65401812641736A170.6070045455344,170.6070045455344,0,0,0,-46.807919702901785,164.06025921315222Z" fill-rule="evenodd" style="fill: #D7A449; stroke: #fff; opacity: 1;" id="p-type-tokenTransfers"></path><path d="M-55.667014183485236,188.9713828385019A197,197,0,0,1,-57.28082808951684,188.48847904680864L-49.60665227533084,163.23581117522716A170.6070045455344,170.6070045455344,0,0,0,-48.20904843572687,163.65401812641736Z" fill-rule="evenodd" style="fill: #D7A449; stroke: #fff; opacity: 1;" id="p-type-tokenTransfers"></path><path d="M-57.28082808951684,188.48847904680864A197,197,0,0,1,-58.89045380247715,187.99179357338528L-51.000629033339095,162.80566893755181A170.6070045455344,170.6070045455344,0,0,0,-49.60665227533084,163.23581117522716Z" fill-rule="evenodd" style="fill: #D7A449; stroke: #fff; opacity: 1;" id="p-type-tokenTransfers"></path><path d="M-58.89045380247715,187.99179357338528A197,197,0,0,1,-60.495773631622434,187.48136273430353L-52.39087678657781,162.363622864032A170.6070045455344,170.6070045455344,0,0,0,-51.000629033339095,162.80566893755181Z" fill-rule="evenodd" style="fill: #D7A449; stroke: #fff; opacity: 1;" id="p-type-tokenTransfers"></path><path d="M-60.495773631622434,187.48136273430353A197,197,0,0,1,-62.09667020104159,186.95722385065272L-53.77729388452616,161.90970527567922A170.6070045455344,170.6070045455344,0,0,0,-52.39087678657781,162.363622864032Z" fill-rule="evenodd" style="fill: #D7A449; stroke: #fff; opacity: 1;" id="p-type-tokenTransfers"></path><path d="M-62.09667020104159,186.95722385065272A197,197,0,0,1,-63.69302645823829,186.4194152458111L-55.15977895674875,161.4439493615125A170.6070045455344,170.6070045455344,0,0,0,-53.77729388452616,161.90970527567922Z" fill-rule="evenodd" style="fill: #D7A449; stroke: #fff; opacity: 1;" id="p-type-tokenTransfers"></path><path d="M-63.69302645823829,186.4194152458111A197,197,0,0,1,-65.28472568268948,185.86797624264375L-56.53823092030747,160.966389176132A170.6070045455344,170.6070045455344,0,0,0,-55.15977895674875,161.4439493615125Z" fill-rule="evenodd" style="fill: #D7A449; stroke: #fff; opacity: 1;" id="p-type-tokenTransfers"></path><path d="M-65.28472568268948,185.86797624264375A197,197,0,0,1,-66.87165149437962,185.3029471606273L-57.91254898715236,160.47705963722876A170.6070045455344,170.6070045455344,0,0,0,-56.53823092030747,160.966389176132Z" fill-rule="evenodd" style="fill: #D7A449; stroke: #fff; opacity: 1;" id="p-type-tokenTransfers"></path><path d="M-66.87165149437962,185.3029471606273A197,197,0,0,1,-68.45368786231,184.72436931290204L-59.282632671490944,159.97599652303177A170.6070045455344,170.6070045455344,0,0,0,-57.91254898715236,160.47705963722876Z" fill-rule="evenodd" style="fill: #D7A449; stroke: #fff; opacity: 1;" id="p-type-tokenTransfers"></path><path d="M-68.45368786231,184.72436931290204A197,197,0,0,1,-70.03071911298261,184.1322850032512L-60.64838179713537,159.46323646969196A170.6070045455344,170.6070045455344,0,0,0,-59.282632671490944,159.97599652303177Z" fill-rule="evenodd" style="fill: #D7A449; stroke: #fff; opacity: 1;" id="p-type-tokenTransfers"></path><path d="M-70.03071911298261,184.1322850032512A197,197,0,0,1,-71.60262993885777,183.52673752300777L-62.00969650482704,158.93881696860348A170.6070045455344,170.6070045455344,0,0,0,-60.64838179713537,159.46323646969196Z" fill-rule="evenodd" style="fill: #D7A449; stroke: #fff; opacity: 1;" id="p-type-tokenTransfers"></path><path d="M-71.60262993885777,183.52673752300777A197,197,0,0,1,-73.16930540678511,182.9077711478892L-63.36647725953798,158.40277636366244A170.6070045455344,170.6070045455344,0,0,0,-62.00969650482704,158.93881696860348Z" fill-rule="evenodd" style="fill: #D7A449; stroke: #fff; opacity: 1;" id="p-type-tokenTransfers"></path><path d="M-73.16930540678511,182.9077711478892A197,197,0,0,1,-74.73063096640703,182.27543113476014L-64.71862485774852,157.8551538484633A170.6070045455344,170.6070045455344,0,0,0,-63.36647725953798,158.40277636366244Z" fill-rule="evenodd" style="fill: #D7A449; stroke: #fff; opacity: 1;" id="p-type-tokenTransfers"></path><path d="M-74.73063096640703,182.27543113476014A197,197,0,0,1,-76.28649245853434,181.6297637183234L-66.06604043470072,157.2959894634332A170.6070045455344,170.6070045455344,0,0,0,-64.71862485774852,157.8551538484633Z" fill-rule="evenodd" style="fill: #D7A449; stroke: #fff; opacity: 1;" id="p-type-tokenTransfers"></path><path d="M-76.28649245853434,181.6297637183234A197,197,0,0,1,-77.83677612349321,180.97081610773932L-67.40862547162716,156.72532409290434A170.6070045455344,170.6070045455344,0,0,0,-66.06604043470072,157.2959894634332Z" fill-rule="evenodd" style="fill: #D7A449; stroke: #fff; opacity: 1;" id="p-type-tokenTransfers"></path><path d="M-77.83677612349321,180.97081610773932A197,197,0,0,1,-79.38136860944284,180.2986364831741L-68.7462818029541,156.14319946212458A170.6070045455344,170.6070045455344,0,0,0,-67.40862547162716,156.72532409290434Z" fill-rule="evenodd" style="fill: #D7A449; stroke: #fff; opacity: 1;" id="p-type-tokenTransfers"></path><path d="M-79.38136860944284,180.2986364831741A197,197,0,0,1,-80.92015698066355,179.61327399227702L-70.07891162347931,155.5496581342067A170.6070045455344,170.6070045455344,0,0,0,-68.7462818029541,156.14319946212458Z" fill-rule="evenodd" style="fill: #D7A449; stroke: #fff; opacity: 1;" id="p-type-tokenTransfers"></path><path d="M-80.92015698066355,179.61327399227702A197,197,0,0,1,-82.45302872581408,178.91477874658673L-71.40641749552306,154.94474350701626A170.6070045455344,170.6070045455344,0,0,0,-70.07891162347931,155.5496581342067Z" fill-rule="evenodd" style="fill: #D7A449; stroke: #fff; opacity: 1;" id="p-type-tokenTransfers"></path><path d="M-82.45302872581408,178.91477874658673A197,197,0,0,1,-83.9798717661582,178.20320181786752L-72.72870235605254,154.32849980999853A170.6070045455344,170.6070045455344,0,0,0,-71.40641749552306,154.94474350701626Z" fill-rule="evenodd" style="fill: #D7A449; stroke: #fff; opacity: 1;" id="p-type-tokenTransfers"></path><path d="M-83.9798717661582,178.20320181786752A197,197,0,0,1,-85.50057446375955,177.47859523437498L-74.04566952377883,153.70097210094454A170.6070045455344,170.6070045455344,0,0,0,-72.72870235605254,154.32849980999853Z" fill-rule="evenodd" style="fill: #D7A449; stroke: #fff; opacity: 1;" id="p-type-tokenTransfers"></path><path d="M-154.59810179357126,122.10006929492125A197,197,0,0,1,-166.94314015251996,104.58961686523227L-144.57700035962822,90.57726517737251A170.6070045455344,170.6070045455344,0,0,0,-133.8858835300853,105.74176181324212Z" fill-rule="evenodd" style="fill: #414552; stroke: #fff; opacity: 1;" id="p-type-ether"></path><path d="M-166.94314015251996,104.58961686523227A197,197,0,0,1,-170.4508795901243,98.76992278499036L-147.61479182245012,85.5372622616291A170.6070045455344,170.6070045455344,0,0,0,-144.57700035962822,90.57726517737251Z" fill-rule="evenodd" style="fill: #414552; stroke: #fff; opacity: 1;" id="p-type-ether"></path><path d="M-170.4508795901243,98.76992278499036A197,197,0,0,1,-170.99721333097943,97.82102551619214L-148.08793072097524,84.71549312126817A170.6070045455344,170.6070045455344,0,0,0,-147.61479182245012,85.5372622616291Z" fill-rule="evenodd" style="fill: #414552; stroke: #fff; opacity: 1;" id="p-type-ether"></path></g></svg>