<svg xmlns="http://www.w3.org/2000/svg" width="400" height="400" id="block-7824880"><g id="burst-container" transform="translate(200,200)"><circle r="197" style="fill: #f9f9f9; stroke: #f9f9f9; stroke-width: 3; opacity: 1;" id="circle-base"></circle><path display="none" d="M6.031385485800715e-15,-98.5A98.5,98.5,0,1,1,-6.031385485800715e-15,98.5A98.5,98.5,0,1,1,6.031385485800715e-15,-98.5Z" fill-rule="evenodd" id="p-type-root" style="stroke: #fff; opacity: 1;"></path><path d="M8.529667153919608e-15,-139.30003589374985A139.30003589374985,139.30003589374985,0,1,1,-105.84260037929363,-90.56403229179423L-74.84202046661638,-64.03844136512518A98.5,98.5,0,1,0,6.031385485800715e-15,-98.5Z" fill-rule="evenodd" style="fill: #0B1F65; stroke: #fff; opacity: 1;" id="p-type-data"></path><path d="M-105.84260037929363,-90.56403229179423A139.30003589374985,139.30003589374985,0,0,1,-2.247013409914423,-139.28191171410472L-1.5888784195675962,-98.48718426966948A98.5,98.5,0,0,0,-74.84202046661638,-64.03844136512518Z" fill-rule="evenodd" style="fill: #D7A449; stroke: #fff; opacity: 1;" id="p-type-value"></path><path d="M1.0446666101440332e-14,-170.6070045455344A170.6070045455344,170.6070045455344,0,0,1,170.1483294484899,-12.501839300204656L138.9255292452563,-10.207709043924975A139.30003589374985,139.30003589374985,0,0,0,8.529667153919608e-15,-139.30003589374985Z" fill-rule="evenodd" style="fill: #DB3F29; stroke: #fff; opacity: 1;" id="p-type-functions"></path><path d="M170.1483294484899,-12.501839300204656A170.6070045455344,170.6070045455344,0,0,1,59.081345393521886,160.05044400591763L48.23971651042067,130.6806403067962A139.30003589374985,139.30003589374985,0,0,0,138.9255292452563,-10.207709043924975Z" fill-rule="evenodd" style="fill: #1DC690; stroke: #fff; opacity: 1;" id="p-type-logs"></path><path d="M59.081345393521886,160.05044400591763A170.6070045455344,170.6070045455344,0,0,1,-100.56640493899566,137.8156311803779L-82.11212578888313,112.52599165717506A139.30003589374985,139.30003589374985,0,0,0,48.23971651042067,130.6806403067962Z" fill-rule="evenodd" style="fill: #D7A449; stroke: #fff; opacity: 1;" id="p-type-tokenTransfers"></path><path d="M-100.56640493899566,137.8156311803779A170.6070045455344,170.6070045455344,0,0,1,-164.508234830994,45.20830313991587L-134.32041127396207,36.91242494328549A139.30003589374985,139.30003589374985,0,0,0,-82.11212578888313,112.52599165717506Z" fill-rule="evenodd" style="fill: #414552; stroke: #fff; opacity: 1;" id="p-type-ether"></path><path d="M-129.63018198928933,-110.91783408191726A170.6070045455344,170.6070045455344,0,0,1,-61.85685068145787,-158.99836484622043L-50.50590708836723,-129.82162127003812A139.30003589374985,139.30003589374985,0,0,0,-105.84260037929363,-90.56403229179423Z" fill-rule="evenodd" style="fill: #D7A449; stroke: #fff; opacity: 1;" id="p-type-tokenTransfers"></path><path d="M-61.85685068145787,-158.99836484622043A170.6070045455344,170.6070045455344,0,0,1,-5.503320175167303,-170.51822033744546L-4.493442106774677,-139.22754389140485A139.30003589374985,139.30003589374985,0,0,0,-50.50590708836723,-129.82162127003812Z" fill-rule="evenodd" style="fill: #414552; stroke: #fff; opacity: 1;" id="p-type-ether"></path><path d="M1.206277097160143e-14,-197A197,197,0,0,1,3.3298275530784185,-196.97185648834903L2.8837152511872866,-170.58263154949296A170.6070045455344,170.6070045455344,0,0,0,1.0446666101440332e-14,-170.6070045455344Z" fill-rule="evenodd" style="fill: #DB3F29; stroke: #fff; opacity: 1;" id="p-type-functions"></path><path d="M3.3298275530784185,-196.97185648834903A197,197,0,0,1,6.4987567687951175,-196.89277833496087L5.628088454792645,-170.51414785977445A170.6070045455344,170.6070045455344,0,0,0,2.8837152511872866,-170.58263154949296Z" fill-rule="evenodd" style="fill: #DB3F29; stroke: #fff; opacity: 1;" id="p-type-functions"></path><path d="M6.4987567687951175,-196.89277833496087A197,197,0,0,1,8.150114572997687,-196.8313380344883L7.05820626396976,-170.46093899874907A170.6070045455344,170.6070045455344,0,0,0,5.628088454792645,-170.51414785977445Z" fill-rule="evenodd" style="fill: #DB3F29; stroke: #fff; opacity: 1;" id="p-type-functions"></path><path d="M8.150114572997687,-196.8313380344883A197,197,0,0,1,9.737419206049518,-196.75919970157852L8.432852399737381,-170.39846536986255A170.6070045455344,170.6070045455344,0,0,0,7.05820626396976,-170.46093899874907Z" fill-rule="evenodd" style="fill: #DB3F29; stroke: #fff; opacity: 1;" id="p-type-functions"></path><path d="M9.737419206049518,-196.75919970157852A197,197,0,0,1,11.324090366165874,-196.67426109529154L9.806949931850273,-170.32490637905596A170.6070045455344,170.6070045455344,0,0,0,8.432852399737381,-170.39846536986255Z" fill-rule="evenodd" style="fill: #DB3F29; stroke: #fff; opacity: 1;" id="p-type-functions"></path><path d="M11.324090366165874,-196.67426109529154A197,197,0,0,1,12.910024831618582,-196.57652774135317L11.180409467669612,-170.24026681174828A170.6070045455344,170.6070045455344,0,0,0,9.806949931850273,-170.32490637905596Z" fill-rule="evenodd" style="fill: #DB3F29; stroke: #fff; opacity: 1;" id="p-type-functions"></path><path d="M12.910024831618582,-196.57652774135317A197,197,0,0,1,14.495119428605667,-196.46600599785822L12.553141656061884,-170.1445521742111A170.6070045455344,170.6070045455344,0,0,0,11.180409467669612,-170.24026681174828Z" fill-rule="evenodd" style="fill: #DB3F29; stroke: #fff; opacity: 1;" id="p-type-functions"></path><path d="M14.495119428605667,-196.46600599785822A197,197,0,0,1,16.079271037963235,-196.3427030548569L13.92505719321154,-170.03776869321058A170.6070045455344,170.6070045455344,0,0,0,12.553141656061884,-170.1445521742111Z" fill-rule="evenodd" style="fill: #DB3F29; stroke: #fff; opacity: 1;" id="p-type-functions"></path><path d="M16.079271037963235,-196.3427030548569A197,197,0,0,1,17.662376601873817,-196.20662693388718L15.296066828430593,-169.91992331560235A170.6070045455344,170.6070045455344,0,0,0,13.92505719321154,-170.03776869321058Z" fill-rule="evenodd" style="fill: #DB3F29; stroke: #fff; opacity: 1;" id="p-type-functions"></path><path d="M17.662376601873817,-196.20662693388718A197,197,0,0,1,19.244333130571118,-196.05778648745274L16.666081369965102,-169.7910237078795A170.6070045455344,170.6070045455344,0,0,0,15.296066828430593,-169.91992331560235Z" fill-rule="evenodd" style="fill: #DB3F29; stroke: #fff; opacity: 1;" id="p-type-functions"></path><path d="M19.244333130571118,-196.05778648745274A197,197,0,0,1,20.825037709039925,-195.8961913984472L18.035011690797464,-169.65107825567392A170.6070045455344,170.6070045455344,0,0,0,16.666081369965102,-169.7910237078795Z" fill-rule="evenodd" style="fill: #DB3F29; stroke: #fff; opacity: 1;" id="p-type-functions"></path><path d="M20.825037709039925,-195.8961913984472A197,197,0,0,1,22.404387503711188,-195.72185217952426L19.40276873444451,-169.50009606321072A170.6070045455344,170.6070045455344,0,0,0,18.035011690797464,-169.65107825567392Z" fill-rule="evenodd" style="fill: #DB3F29; stroke: #fff; opacity: 1;" id="p-type-functions"></path><path d="M22.404387503711188,-195.72185217952426A197,197,0,0,1,23.982279769152147,-195.5347801724136L20.769263520751363,-169.33808695271594A170.6070045455344,170.6070045455344,0,0,0,19.40276873444451,-169.50009606321072Z" fill-rule="evenodd" style="fill: #DB3F29; stroke: #fff; opacity: 1;" id="p-type-functions"></path><path d="M23.982279769152147,-195.5347801724136A197,197,0,0,1,25.558611854750385,-195.3349875471832L22.13440715167994,-169.16506146377762A170.6070045455344,170.6070045455344,0,0,0,20.769263520751363,-169.33808695271594Z" fill-rule="evenodd" style="fill: #DB3F29; stroke: #fff; opacity: 1;" id="p-type-functions"></path><path d="M25.558611854750385,-195.3349875471832A197,197,0,0,1,27.13328121139167,-195.1224873014475L23.49811081709219,-168.98103085266007A170.6070045455344,170.6070045455344,0,0,0,22.13440715167994,-169.16506146377762Z" fill-rule="evenodd" style="fill: #DB3F29; stroke: #fff; opacity: 1;" id="p-type-functions"></path><path d="M27.13328121139167,-195.1224873014475A197,197,0,0,1,28.706185398131616,-194.89729325952192L24.86028580052789,-168.78600709157163A170.6070045455344,170.6070045455344,0,0,0,23.49811081709219,-168.98103085266007Z" fill-rule="evenodd" style="fill: #DB3F29; stroke: #fff; opacity: 1;" id="p-type-functions"></path><path d="M28.706185398131616,-194.89729325952192A197,197,0,0,1,30.277222088859837,-194.65942007152353L26.220843484975966,-168.5800028678858A170.6070045455344,170.6070045455344,0,0,0,24.86028580052789,-168.78600709157163Z" fill-rule="evenodd" style="fill: #DB3F29; stroke: #fff; opacity: 1;" id="p-type-functions"></path><path d="M30.277222088859837,-194.65942007152353A197,197,0,0,1,31.846289078956904,-194.40888321241783L27.57969535863961,-168.36303158331592A170.6070045455344,170.6070045455344,0,0,0,26.220843484975966,-168.5800028678858Z" fill-rule="evenodd" style="fill: #DB3F29; stroke: #fff; opacity: 1;" id="p-type-functions"></path><path d="M31.846289078956904,-194.40888321241783A197,197,0,0,1,33.41328429194332,-194.14569898101215L28.936753020694454,-168.1351073530431A170.6070045455344,170.6070045455344,0,0,0,27.57969535863961,-168.36303158331592Z" fill-rule="evenodd" style="fill: #DB3F29; stroke: #fff; opacity: 1;" id="p-type-functions"></path><path d="M33.41328429194332,-194.14569898101215A197,197,0,0,1,34.97810578612003,-193.8698844988953L30.291928187039407,-167.89624500479826A170.6070045455344,170.6070045455344,0,0,0,28.936753020694454,-168.1351073530431Z" fill-rule="evenodd" style="fill: #DB3F29; stroke: #fff; opacity: 1;" id="p-type-functions"></path><path d="M34.97810578612003,-193.8698844988953A197,197,0,0,1,36.540651761200515,-193.5814577093237L31.645132696040235,-167.64646007789727A170.6070045455344,170.6070045455344,0,0,0,30.291928187039407,-167.89624500479826Z" fill-rule="evenodd" style="fill: #DB3F29; stroke: #fff; opacity: 1;" id="p-type-functions"></path><path d="M36.540651761200515,-193.5814577093237A197,197,0,0,1,38.100820564933365,-193.28043737605404L32.99627851426486,-167.3857688222301A170.6070045455344,170.6070045455344,0,0,0,31.645132696040235,-167.64646007789727Z" fill-rule="evenodd" style="fill: #DB3F29; stroke: #fff; opacity: 1;" id="p-type-functions"></path><path d="M38.100820564933365,-193.28043737605404A197,197,0,0,1,39.658510699715166,-192.96684308212275L34.34527774221031,-167.11418819720376A170.6070045455344,170.6070045455344,0,0,0,32.99627851426486,-167.3857688222301Z" fill-rule="evenodd" style="fill: #DB3F29; stroke: #fff; opacity: 1;" id="p-type-functions"></path><path d="M39.658510699715166,-192.96684308212275A197,197,0,0,1,41.21362082919374,-192.6406952285717L35.69204262002126,-166.83173587063877A170.6070045455344,170.6070045455344,0,0,0,34.34527774221031,-167.11418819720376Z" fill-rule="evenodd" style="fill: #DB3F29; stroke: #fff; opacity: 1;" id="p-type-functions"></path><path d="M41.21362082919374,-192.6406952285717A197,197,0,0,1,42.766049784860485,-192.30201503312136L37.036485533199205,-166.53843021762012A170.6070045455344,170.6070045455344,0,0,0,35.69204262002126,-166.83173587063877Z" fill-rule="evenodd" style="fill: #DB3F29; stroke: #fff; opacity: 1;" id="p-type-functions"></path><path d="M42.766049784860485,-192.30201503312136A197,197,0,0,1,44.31569657263196,-191.9508245287902L38.378519018302256,-166.23429031930146A170.6070045455344,170.6070045455344,0,0,0,37.036485533199205,-166.53843021762012Z" fill-rule="evenodd" style="fill: #DB3F29; stroke: #fff; opacity: 1;" id="p-type-functions"></path><path d="M44.31569657263196,-191.9508245287902A197,197,0,0,1,45.86246037942018,-191.58714656246153L39.718055768635175,-165.91933596166416A170.6070045455344,170.6070045455344,0,0,0,38.378519018302256,-166.23429031930146Z" fill-rule="evenodd" style="fill: #DB3F29; stroke: #fff; opacity: 1;" id="p-type-functions"></path><path d="M45.86246037942018,-191.58714656246153A197,197,0,0,1,47.40624057969086,-191.21100479339697L41.055008639929014,-165.59358763422983A170.6070045455344,170.6070045455344,0,0,0,39.718055768635175,-165.91933596166416Z" fill-rule="evenodd" style="fill: #DB3F29; stroke: #fff; opacity: 1;" id="p-type-functions"></path><path d="M47.40624057969086,-191.21100479339697A197,197,0,0,1,48.94693674200995,-190.8224236916974L42.389290656010544,-165.25706652872745A170.6070045455344,170.6070045455344,0,0,0,41.055008639929014,-165.59358763422983Z" fill-rule="evenodd" style="fill: #DB3F29; stroke: #fff; opacity: 1;" id="p-type-functions"></path><path d="M48.94693674200995,-190.8224236916974A197,197,0,0,1,50.48444863557711,-190.42142853671112L43.72081501446042,-164.90979453771487A170.6070045455344,170.6070045455344,0,0,0,42.389290656010544,-165.25706652872745Z" fill-rule="evenodd" style="fill: #DB3F29; stroke: #fff; opacity: 1;" id="p-type-functions"></path><path d="M50.48444863557711,-190.42142853671112A197,197,0,0,1,52.01867623674615,-190.00804541538915L45.04949509226007,-164.55179425315433A170.6070045455344,170.6070045455344,0,0,0,43.72081501446042,-164.90979453771487Z" fill-rule="evenodd" style="fill: #DB3F29; stroke: #fff; opacity: 1;" id="p-type-functions"></path><path d="M52.01867623674615,-190.00804541538915A197,197,0,0,1,53.549519735532385,-189.58230122058816L46.3752444514272,-164.18308896494293A170.6070045455344,170.6070045455344,0,0,0,45.04949509226007,-164.55179425315433Z" fill-rule="evenodd" style="fill: #DB3F29; stroke: #fff; opacity: 1;" id="p-type-functions"></path><path d="M53.549519735532385,-189.58230122058816A197,197,0,0,1,55.07687954210566,-189.14422364932105L47.69797684463894,-163.80370265939743A170.6070045455344,170.6070045455344,0,0,0,46.3752444514272,-164.18308896494293Z" fill-rule="evenodd" style="fill: #DB3F29; stroke: #fff; opacity: 1;" id="p-type-functions"></path><path d="M55.07687954210566,-189.14422364932105A197,197,0,0,1,56.60065629326922,-188.69384120095495L49.0176062208427,-163.41366001769376A170.6070045455344,170.6070045455344,0,0,0,47.69797684463894,-163.80370265939743Z" fill-rule="evenodd" style="fill: #DB3F29; stroke: #fff; opacity: 1;" id="p-type-functions"></path><path d="M56.60065629326922,-188.69384120095495A197,197,0,0,1,58.12075085892393,-188.23118317535724L50.33404673085435,-163.0129864142614A170.6070045455344,170.6070045455344,0,0,0,49.0176062208427,-163.41366001769376Z" fill-rule="evenodd" style="fill: #DB3F29; stroke: #fff; opacity: 1;" id="p-type-functions"></path><path d="M58.12075085892393,-188.23118317535724A197,197,0,0,1,59.63706434851705,-187.75627967098953L51.647212732943025,-162.6017079151327A170.6070045455344,170.6070045455344,0,0,0,50.33404673085435,-163.0129864142614Z" fill-rule="evenodd" style="fill: #DB3F29; stroke: #fff; opacity: 1;" id="p-type-functions"></path><path d="M59.63706434851705,-187.75627967098953A197,197,0,0,1,61.149498117475865,-187.2691615829494L52.9570187984028,-162.17985127624704A170.6070045455344,170.6070045455344,0,0,0,51.647212732943025,-162.6017079151327Z" fill-rule="evenodd" style="fill: #DB3F29; stroke: #fff; opacity: 1;" id="p-type-functions"></path><path d="M61.149498117475865,-187.2691615829494A197,197,0,0,1,62.657953773624904,-186.76986060096067L54.2633797171102,-161.7474439417103A170.6070045455344,170.6070045455344,0,0,0,52.9570187984028,-162.17985127624704Z" fill-rule="evenodd" style="fill: #DB3F29; stroke: #fff; opacity: 1;" id="p-type-functions"></path><path d="M62.657953773624904,-186.76986060096067A197,197,0,0,1,64.16233318358682,-186.25840920731173L55.56621050306747,-161.30451404200934A170.6070045455344,170.6070045455344,0,0,0,54.2633797171102,-161.7474439417103Z" fill-rule="evenodd" style="fill: #DB3F29; stroke: #fff; opacity: 1;" id="p-type-functions"></path><path d="M64.16233318358682,-186.25840920731173A197,197,0,0,1,65.66253847916674,-185.7348406747424L56.865426399931614,-160.8510903921822A170.6070045455344,170.6070045455344,0,0,0,55.56621050306747,-161.30451404200934Z" fill-rule="evenodd" style="fill: #DB3F29; stroke: #fff; opacity: 1;" id="p-type-functions"></path><path d="M65.66253847916674,-185.7348406747424A197,197,0,0,1,67.15847206371892,-185.19918906427932L58.16094288652812,-160.3872024899431A170.6070045455344,170.6070045455344,0,0,0,56.865426399931614,-160.8510903921822Z" fill-rule="evenodd" style="fill: #DB3F29; stroke: #fff; opacity: 1;" id="p-type-functions"></path><path d="M67.15847206371892,-185.19918906427932A197,197,0,0,1,68.65003661849606,-184.6514892230202L59.45267568234955,-159.91288051376398A170.6070045455344,170.6070045455344,0,0,0,58.16094288652812,-160.3872024899431Z" fill-rule="evenodd" style="fill: #DB3F29; stroke: #fff; opacity: 1;" id="p-type-functions"></path><path d="M68.65003661849606,-184.6514892230202A197,197,0,0,1,70.13713510898043,-184.09177678186668L60.7405407530385,-159.42815532091083A170.6070045455344,170.6070045455344,0,0,0,59.45267568234955,-159.91288051376398Z" fill-rule="evenodd" style="fill: #DB3F29; stroke: #fff; opacity: 1;" id="p-type-functions"></path><path d="M70.13713510898043,-184.09177678186668A197,197,0,0,1,71.61967079119634,-183.52008815320642L62.02445431585437,-158.93305844543636A170.6070045455344,170.6070045455344,0,0,0,60.7405407530385,-159.42815532091083Z" fill-rule="evenodd" style="fill: #DB3F29; stroke: #fff; opacity: 1;" id="p-type-functions"></path><path d="M71.61967079119634,-183.52008815320642A197,197,0,0,1,73.09754721800411,-182.93646052854433L63.30433284512408,-158.42762209612863A170.6070045455344,170.6070045455344,0,0,0,62.02445431585437,-158.93305844543636Z" fill-rule="evenodd" style="fill: #DB3F29; stroke: #fff; opacity: 1;" id="p-type-functions"></path><path d="M73.09754721800411,-182.93646052854433A197,197,0,0,1,74.57066824537438,-182.34093187608292L64.58009307767577,-157.91187915441554A170.6070045455344,170.6070045455344,0,0,0,63.30433284512408,-158.42762209612863Z" fill-rule="evenodd" style="fill: #DB3F29; stroke: #fff; opacity: 1;" id="p-type-functions"></path><path d="M74.57066824537438,-182.34093187608292A197,197,0,0,1,76.0389380386427,-181.7335409382524L65.85165201825545,-157.38586317222584A170.6070045455344,170.6070045455344,0,0,0,64.58009307767577,-157.91187915441554Z" fill-rule="evenodd" style="fill: #DB3F29; stroke: #fff; opacity: 1;" id="p-type-functions"></path><path d="M76.0389380386427,-181.7335409382524A197,197,0,0,1,77.50226107874428,-181.1143272291901L67.1189269449265,-156.8496083698063A170.6070045455344,170.6070045455344,0,0,0,65.85165201825545,-157.38586317222584Z" fill-rule="evenodd" style="fill: #DB3F29; stroke: #fff; opacity: 1;" id="p-type-functions"></path><path d="M77.50226107874428,-181.1143272291901A197,197,0,0,1,78.96054216842799,-180.48333103217013L68.38183541445105,-156.30314963349562A170.6070045455344,170.6070045455344,0,0,0,67.1189269449265,-156.8496083698063Z" fill-rule="evenodd" style="fill: #DB3F29; stroke: #fff; opacity: 1;" id="p-type-functions"></path><path d="M78.96054216842799,-180.48333103217013A197,197,0,0,1,80.41368643844942,-179.84059339698237L69.64029526765339,-155.7465225134547A170.6070045455344,170.6070045455344,0,0,0,68.38183541445105,-156.30314963349562Z" fill-rule="evenodd" style="fill: #DB3F29; stroke: #fff; opacity: 1;" id="p-type-functions"></path><path d="M80.41368643844942,-179.84059339698237A197,197,0,0,1,81.86159935374265,-179.18615613726223L70.89422463476491,-155.179763221354A170.6070045455344,170.6070045455344,0,0,0,69.64029526765339,-155.7465225134547Z" fill-rule="evenodd" style="fill: #DB3F29; stroke: #fff; opacity: 1;" id="p-type-functions"></path><path d="M81.86159935374265,-179.18615613726223A197,197,0,0,1,83.30418671957025,-178.5200618277704L72.1435419407501,-154.60290862801781A170.6070045455344,170.6070045455344,0,0,0,70.89422463476491,-155.179763221354Z" fill-rule="evenodd" style="fill: #DB3F29; stroke: #fff; opacity: 1;" id="p-type-functions"></path><path d="M83.30418671957025,-178.5200618277704A197,197,0,0,1,84.74135468765132,-177.84235380162306L73.38816591061357,-154.0159962610256A170.6070045455344,170.6070045455344,0,0,0,72.1435419407501,-154.60290862801781Z" fill-rule="evenodd" style="fill: #DB3F29; stroke: #fff; opacity: 1;" id="p-type-functions"></path><path d="M84.74135468765132,-177.84235380162306A197,197,0,0,1,86.17300976226672,-177.15307614747277L74.6280155746874,-153.4190643022705A170.6070045455344,170.6070045455344,0,0,0,73.38816591061357,-154.0159962610256Z" fill-rule="evenodd" style="fill: #DB3F29; stroke: #fff; opacity: 1;" id="p-type-functions"></path><path d="M86.17300976226672,-177.15307614747277A197,197,0,0,1,87.59905880634138,-176.45227370664043L75.86301027389857,-152.81215158547553A170.6070045455344,170.6070045455344,0,0,0,74.6280155746874,-153.4190643022705Z" fill-rule="evenodd" style="fill: #DB3F29; stroke: #fff; opacity: 1;" id="p-type-functions"></path><path d="M87.59905880634138,-176.45227370664043A197,197,0,0,1,89.01940904750361,-175.73999207019793L77.09306966501643,-152.1952975936672A170.6070045455344,170.6070045455344,0,0,0,75.86301027389857,-152.81215158547553Z" fill-rule="evenodd" style="fill: #DB3F29; stroke: #fff; opacity: 1;" id="p-type-functions"></path><path d="M89.01940904750361,-175.73999207019793A197,197,0,0,1,90.43396808412034,-175.01627757600235L78.31811372587936,-151.56854245660682A170.6070045455344,170.6070045455344,0,0,0,77.09306966501643,-152.1952975936672Z" fill-rule="evenodd" style="fill: #DB3F29; stroke: #fff; opacity: 1;" id="p-type-functions"></path><path d="M90.43396808412034,-175.01627757600235A197,197,0,0,1,91.84264389130833,-174.28117730568133L79.5380627606007,-150.93192694818A170.6070045455344,170.6070045455344,0,0,0,78.31811372587936,-151.56854245660682Z" fill-rule="evenodd" style="fill: #DB3F29; stroke: #fff; opacity: 1;" id="p-type-functions"></path><path d="M91.84264389130833,-174.28117730568133A197,197,0,0,1,93.24534482692098,-173.53473908157005L80.75283740475345,-150.28549248374392A170.6070045455344,170.6070045455344,0,0,0,79.5380627606007,-150.93192694818Z" fill-rule="evenodd" style="fill: #DB3F29; stroke: #fff; opacity: 1;" id="p-type-functions"></path><path d="M93.24534482692098,-173.53473908157005A197,197,0,0,1,94.64197963750999,-172.77701146360053L81.96235863053322,-149.6292811174332A170.6070045455344,170.6070045455344,0,0,0,80.75283740475345,-150.28549248374392Z" fill-rule="evenodd" style="fill: #DB3F29; stroke: #fff; opacity: 1;" id="p-type-functions"></path><path d="M94.64197963750999,-172.77701146360053A197,197,0,0,1,96.03245746426218,-172.00804374614194L83.16654775189959,-148.96333553942395A170.6070045455344,170.6070045455344,0,0,0,81.96235863053322,-149.6292811174332Z" fill-rule="evenodd" style="fill: #DB3F29; stroke: #fff; opacity: 1;" id="p-type-functions"></path><path d="M96.03245746426218,-172.00804374614194A197,197,0,0,1,97.41668784891003,-171.22788595479423L84.36532642969492,-148.2876990731565A170.6070045455344,170.6070045455344,0,0,0,83.16654775189959,-148.96333553942395Z" fill-rule="evenodd" style="fill: #DB3F29; stroke: #fff; opacity: 1;" id="p-type-functions"></path><path d="M97.41668784891003,-171.22788595479423A197,197,0,0,1,98.79458073961676,-170.4365888431335L85.55861667674094,-147.60241567251705A170.6070045455344,170.6070045455344,0,0,0,84.36532642969492,-148.2876990731565Z" fill-rule="evenodd" style="fill: #DB3F29; stroke: #fff; opacity: 1;" id="p-type-functions"></path><path d="M98.79458073961676,-170.4365888431335A197,197,0,0,1,100.16604649683467,-169.63420388941012L86.74634086291209,-146.90752991897818A170.6070045455344,170.6070045455344,0,0,0,85.55861667674094,-147.60241567251705Z" fill-rule="evenodd" style="fill: #DB3F29; stroke: #fff; opacity: 1;" id="p-type-functions"></path><path d="M100.16604649683467,-169.63420388941012A197,197,0,0,1,101.53099589913641,-168.82078329319987L87.9284217201858,-146.20308701869862A170.6070045455344,170.6070045455344,0,0,0,86.74634086291209,-146.90752991897818Z" fill-rule="evenodd" style="fill: #DB3F29; stroke: #fff; opacity: 1;" id="p-type-functions"></path><path d="M101.53099589913641,-168.82078329319987A197,197,0,0,1,102.88934014901966,-167.9963799720081L89.1047823476692,-145.4891327995823A170.6070045455344,170.6070045455344,0,0,0,87.9284217201858,-146.20308701869862Z" fill-rule="evenodd" style="fill: #DB3F29; stroke: #fff; opacity: 1;" id="p-type-functions"></path><path d="M102.88934014901966,-167.9963799720081A197,197,0,0,1,104.24099087868376,-167.1610475578272L90.27534621660209,-144.76571370829706A170.6070045455344,170.6070045455344,0,0,0,89.1047823476692,-145.4891327995823Z" fill-rule="evenodd" style="fill: #DB3F29; stroke: #fff; opacity: 1;" id="p-type-functions"></path><path d="M104.24099087868376,-167.1610475578272A197,197,0,0,1,105.58586015577856,-166.3148403936473L91.4400371753354,-144.03287680725288A170.6070045455344,170.6070045455344,0,0,0,90.27534621660209,-144.76571370829706Z" fill-rule="evenodd" style="fill: #DB3F29; stroke: #fff; opacity: 1;" id="p-type-functions"></path><path d="M105.58586015577856,-166.3148403936473A197,197,0,0,1,106.92386048912483,-165.4578135299212L92.59877945428532,-143.29066977154034A170.6070045455344,170.6070045455344,0,0,0,91.4400371753354,-144.03287680725288Z" fill-rule="evenodd" style="fill: #DB3F29; stroke: #fff; opacity: 1;" id="p-type-functions"></path><path d="M106.92386048912483,-165.4578135299212A197,197,0,0,1,108.25490483440608,-164.59002272098294L93.7514976708625,-142.53914088582917A170.6070045455344,170.6070045455344,0,0,0,92.59877945428532,-143.29066977154034Z" fill-rule="evenodd" style="fill: #DB3F29; stroke: #fff; opacity: 1;" id="p-type-functions"></path><path d="M108.25490483440608,-164.59002272098294A197,197,0,0,1,109.57890659983134,-163.71152442142073L94.89811683437622,-141.77833904122687A170.6070045455344,170.6070045455344,0,0,0,93.7514976708625,-142.53914088582917Z" fill-rule="evenodd" style="fill: #DB3F29; stroke: #fff; opacity: 1;" id="p-type-functions"></path><path d="M109.57890659983134,-163.71152442142073A197,197,0,0,1,110.89577965176834,-162.82237578240418L96.03856235091281,-141.0083137320982A170.6070045455344,170.6070045455344,0,0,0,94.89811683437622,-141.77833904122687Z" fill-rule="evenodd" style="fill: #DB3F29; stroke: #fff; opacity: 1;" id="p-type-functions"></path><path d="M110.89577965176834,-162.82237578240418A197,197,0,0,1,112.20543832034707,-161.92263464796633L97.17276002818849,-140.22911505284517A170.6070045455344,170.6070045455344,0,0,0,96.03856235091281,-141.0083137320982Z" fill-rule="evenodd" style="fill: #DB3F29; stroke: #fff; opacity: 1;" id="p-type-functions"></path><path d="M112.20543832034707,-161.92263464796633A197,197,0,0,1,113.50779740503296,-161.01235955124062L98.30063608037592,-139.4407936946484A170.6070045455344,170.6070045455344,0,0,0,97.17276002818849,-140.22911505284517Z" fill-rule="evenodd" style="fill: #DB3F29; stroke: #fff; opacity: 1;" id="p-type-functions"></path><path d="M113.50779740503296,-161.01235955124062A197,197,0,0,1,114.80277218016978,-160.09160971065296L99.42211713290445,-138.643400942169A170.6070045455344,170.6070045455344,0,0,0,98.30063608037592,-139.4407936946484Z" fill-rule="evenodd" style="fill: #DB3F29; stroke: #fff; opacity: 1;" id="p-type-functions"></path><path d="M114.80277218016978,-160.09160971065296A197,197,0,0,1,116.09027840049141,-159.1604450260692L100.53713022723348,-137.83698867021252A170.6070045455344,170.6070045455344,0,0,0,99.42211713290445,-138.643400942169Z" fill-rule="evenodd" style="fill: #DB3F29; stroke: #fff; opacity: 1;" id="p-type-functions"></path><path d="M116.09027840049141,-159.1604450260692A197,197,0,0,1,117.37023230660252,-158.21892607489838L101.64560282559881,-137.0216093403541A170.6070045455344,170.6070045455344,0,0,0,100.53713022723348,-137.83698867021252Z" fill-rule="evenodd" style="fill: #DB3F29; stroke: #fff; opacity: 1;" id="p-type-functions"></path><path d="M117.37023230660252,-158.21892607489838A197,197,0,0,1,118.64255063042755,-157.2671141081518L102.74746281573172,-136.19731599752555A170.6070045455344,170.6070045455344,0,0,0,101.64560282559881,-137.0216093403541Z" fill-rule="evenodd" style="fill: #DB3F29; stroke: #fff; opacity: 1;" id="p-type-functions"></path><path d="M118.64255063042755,-157.2671141081518A197,197,0,0,1,119.90715060062773,-156.30507104645832L103.84263851555012,-135.36416226656442A170.6070045455344,170.6070045455344,0,0,0,102.74746281573172,-136.19731599752555Z" fill-rule="evenodd" style="fill: #DB3F29; stroke: #fff; opacity: 1;" id="p-type-functions"></path><path d="M119.90715060062773,-156.30507104645832A197,197,0,0,1,121.16394994798591,-155.33285947603605L104.93105867782201,-134.52220234872559A170.6070045455344,170.6070045455344,0,0,0,103.84263851555012,-135.36416226656442Z" fill-rule="evenodd" style="fill: #DB3F29; stroke: #fff; opacity: 1;" id="p-type-functions"></path><path d="M121.16394994798591,-155.33285947603605A197,197,0,0,1,122.41286691075857,-154.35054264462084L106.01265249480043,-133.67149101815497A170.6070045455344,170.6070045455344,0,0,0,104.93105867782201,-134.52220234872559Z" fill-rule="evenodd" style="fill: #DB3F29; stroke: #fff; opacity: 1;" id="p-type-functions"></path><path d="M122.41286691075857,-154.35054264462084A197,197,0,0,1,123.65382023999477,-153.35818445735154L107.08734960282987,-132.81208361832628A170.6070045455344,170.6070045455344,0,0,0,106.01265249480043,-133.67149101815497Z" fill-rule="evenodd" style="fill: #DB3F29; stroke: #fff; opacity: 1;" id="p-type-functions"></path><path d="M123.65382023999477,-153.35818445735154A197,197,0,0,1,124.53248089834706,-152.64554104625142L107.84829205426891,-132.194916320474A170.6070045455344,170.6070045455344,0,0,0,107.08734960282987,-132.81208361832628Z" fill-rule="evenodd" style="fill: #DB3F29; stroke: #fff; opacity: 1;" id="p-type-functions"></path><path d="M196.47036761850154,-14.4358805706772A197,197,0,0,1,196.5804114211142,-12.850752721357354L170.24363017708149,-11.129078314447476A170.6070045455344,170.6070045455344,0,0,0,170.1483294484899,-12.501839300204656Z" fill-rule="evenodd" style="fill: #1DC690; stroke: #fff; opacity: 1;" id="p-type-logs"></path><path d="M196.5804114211142,-12.850752721357354A197,197,0,0,1,196.6776665815154,-11.264788859550238L170.3278556166381,-9.75559332063844A170.6070045455344,170.6070045455344,0,0,0,170.24363017708149,-11.129078314447476Z" fill-rule="evenodd" style="fill: #1DC690; stroke: #fff; opacity: 1;" id="p-type-logs"></path><path d="M196.6776665815154,-11.264788859550238A197,197,0,0,1,196.76212677271957,-9.678092160970268L170.40100028782936,-8.381473671567287A170.6070045455344,170.6070045455344,0,0,0,170.3278556166381,-9.75559332063844Z" fill-rule="evenodd" style="fill: #1DC690; stroke: #fff; opacity: 1;" id="p-type-logs"></path><path d="M196.76212677271957,-9.678092160970268A197,197,0,0,1,196.83378650012438,-8.090765849006944L170.4630594321902,-7.006808761311586A170.6070045455344,170.6070045455344,0,0,0,170.40100028782936,-8.381473671567287Z" fill-rule="evenodd" style="fill: #1DC690; stroke: #fff; opacity: 1;" id="p-type-logs"></path><path d="M196.83378650012438,-8.090765849006944A197,197,0,0,1,196.89264110186852,-6.5029131880096L170.51402901243026,-5.631688019421165A170.6070045455344,170.6070045455344,0,0,0,170.4630594321902,-7.006808761311586Z" fill-rule="evenodd" style="fill: #1DC690; stroke: #fff; opacity: 1;" id="p-type-logs"></path><path d="M196.89264110186852,-6.5029131880096A197,197,0,0,1,196.93868674913494,-4.914637476569476L170.55390571269666,-4.256200905100215A170.6070045455344,170.6070045455344,0,0,0,170.51402901243026,-5.631688019421165Z" fill-rule="evenodd" style="fill: #1DC690; stroke: #fff; opacity: 1;" id="p-type-logs"></path><path d="M196.93868674913494,-4.914637476569476A197,197,0,0,1,196.97192044639976,-3.326042040799586L170.58268693878966,-2.8804369013874798A170.6070045455344,170.6070045455344,0,0,0,170.55390571269666,-4.256200905100215Z" fill-rule="evenodd" style="fill: #1DC690; stroke: #fff; opacity: 1;" id="p-type-logs"></path><path d="M196.97192044639976,-3.326042040799586A197,197,0,0,1,196.9923400316273,-1.7372302276127791L170.60037081833147,-1.5044855093348892A170.6070045455344,170.6070045455344,0,0,0,170.58268693878966,-2.8804369013874798Z" fill-rule="evenodd" style="fill: #1DC690; stroke: #fff; opacity: 1;" id="p-type-logs"></path><path d="M196.9923400316273,-1.7372302276127791A197,197,0,0,1,196.99994417641068,-0.1483053979984491L170.60695620088794,-0.12843624218501876A170.6070045455344,170.6070045455344,0,0,0,170.60037081833147,-1.5044855093348892Z" fill-rule="evenodd" style="fill: #1DC690; stroke: #fff; opacity: 1;" id="p-type-logs"></path><path d="M196.99994417641068,-0.1483053979984491A197,197,0,0,1,196.99473238605827,1.4406290797016659L170.60244265804354,1.2476213804522394A170.6070045455344,170.6070045455344,0,0,0,170.60695620088794,-0.12843624218501876Z" fill-rule="evenodd" style="fill: #1DC690; stroke: #fff; opacity: 1;" id="p-type-logs"></path><path d="M196.99473238605827,1.4406290797016659A197,197,0,0,1,196.97670499962584,3.0294698365181665L170.58683048342922,2.6235978384234224A170.6070045455344,170.6070045455344,0,0,0,170.60244265804354,1.2476213804522394Z" fill-rule="evenodd" style="fill: #1DC690; stroke: #fff; opacity: 1;" id="p-type-logs"></path><path d="M196.97670499962584,3.0294698365181665A197,197,0,0,1,196.9458631898945,4.618113509578715L170.5601206927032,3.9994036168552776A170.6070045455344,170.6070045455344,0,0,0,170.58683048342922,2.6235978384234224Z" fill-rule="evenodd" style="fill: #1DC690; stroke: #fff; opacity: 1;" id="p-type-logs"></path><path d="M196.9458631898945,4.618113509578715A197,197,0,0,1,196.90220896329444,6.206456748832361L170.522315023485,5.374949211978199A170.6070045455344,170.6070045455344,0,0,0,170.5601206927032,3.9994036168552776Z" fill-rule="evenodd" style="fill: #1DC690; stroke: #fff; opacity: 1;" id="p-type-logs"></path><path d="M196.90220896329444,6.206456748832361A197,197,0,0,1,196.84574515977437,7.794396223773034L170.47341593524231,6.750145136948945A170.6070045455344,170.6070045455344,0,0,0,170.522315023485,5.374949211978199Z" fill-rule="evenodd" style="fill: #1DC690; stroke: #fff; opacity: 1;" id="p-type-logs"></path><path d="M196.84574515977437,7.794396223773034A197,197,0,0,1,196.77647545261675,9.381828630161763L170.41342660913108,8.124901927672248A170.6070045455344,170.6070045455344,0,0,0,170.47341593524231,6.750145136948945Z" fill-rule="evenodd" style="fill: #1DC690; stroke: #fff; opacity: 1;" id="p-type-logs"></path><path d="M196.77647545261675,9.381828630161763A197,197,0,0,1,196.69440434819884,10.96865069674719L170.34235094778853,9.49913014862095A170.6070045455344,170.6070045455344,0,0,0,170.41342660913108,8.124901927672248Z" fill-rule="evenodd" style="fill: #1DC690; stroke: #fff; opacity: 1;" id="p-type-logs"></path><path d="M196.69440434819884,10.96865069674719A197,197,0,0,1,196.59953718569966,12.554759191983932L170.26019357507928,10.872740398654278A170.6070045455344,170.6070045455344,0,0,0,170.34235094778853,9.49913014862095Z" fill-rule="evenodd" style="fill: #1DC690; stroke: #fff; opacity: 1;" id="p-type-logs"></path><path d="M196.59953718569966,12.554759191983932A197,197,0,0,1,196.49188013675231,14.14005093074837L170.16695983579444,12.245643316833883A170.6070045455344,170.6070045455344,0,0,0,170.26019357507928,10.872740398654278Z" fill-rule="evenodd" style="fill: #1DC690; stroke: #fff; opacity: 1;" id="p-type-logs"></path><path d="M196.49188013675231,14.14005093074837A197,197,0,0,1,196.37144020504292,15.724422781051398L170.06265579530404,13.617749588237261A170.6070045455344,170.6070045455344,0,0,0,170.16695983579444,12.245643316833883Z" fill-rule="evenodd" style="fill: #1DC690; stroke: #fff; opacity: 1;" id="p-type-logs"></path><path d="M196.37144020504292,15.724422781051398A197,197,0,0,1,196.23822522585468,17.307771670747755L169.9472882391624,14.988969949768194A170.6070045455344,170.6070045455344,0,0,0,170.06265579530404,13.617749588237261Z" fill-rule="evenodd" style="fill: #1DC690; stroke: #fff; opacity: 1;" id="p-type-logs"></path><path d="M196.23822522585468,17.307771670747755A197,197,0,0,1,196.09224386555817,18.889994594241408L169.8208646726666,16.359215195963777A170.6070045455344,170.6070045455344,0,0,0,169.9472882391624,14.988969949768194Z" fill-rule="evenodd" style="fill: #1DC690; stroke: #fff; opacity: 1;" id="p-type-logs"></path><path d="M196.09224386555817,18.889994594241408A197,197,0,0,1,195.9335056210477,20.470988619186645L169.6833933203684,17.728396184797763A170.6070045455344,170.6070045455344,0,0,0,169.8208646726666,16.359215195963777Z" fill-rule="evenodd" style="fill: #1DC690; stroke: #fff; opacity: 1;" id="p-type-logs"></path><path d="M195.9335056210477,20.470988619186645A197,197,0,0,1,195.7620208191234,22.050650893184415L169.534883125539,19.096423843479723A170.6070045455344,170.6070045455344,0,0,0,169.6833933203684,17.728396184797763Z" fill-rule="evenodd" style="fill: #1DC690; stroke: #fff; opacity: 1;" id="p-type-logs"></path><path d="M195.7620208191234,22.050650893184415A197,197,0,0,1,195.57780061581937,23.628878650473407L169.37534374958742,20.463209174249734A170.6070045455344,170.6070045455344,0,0,0,169.534883125539,19.096423843479723Z" fill-rule="evenodd" style="fill: #1DC690; stroke: #fff; opacity: 1;" id="p-type-logs"></path><path d="M195.57780061581937,23.628878650473407A197,197,0,0,1,195.380856995678,25.205569218615558L169.2047855714317,21.828663260168156A170.6070045455344,170.6070045455344,0,0,0,169.37534374958742,20.463209174249734Z" fill-rule="evenodd" style="fill: #1DC690; stroke: #fff; opacity: 1;" id="p-type-logs"></path><path d="M195.380856995678,25.205569218615558A197,197,0,0,1,195.1712027709702,26.78062002517546L169.02321968682404,23.1926972709002A170.6070045455344,170.6070045455344,0,0,0,169.2047855714317,21.828663260168156Z" fill-rule="evenodd" style="fill: #1DC690; stroke: #fff; opacity: 1;" id="p-type-logs"></path><path d="M195.1712027709702,26.78062002517546A197,197,0,0,1,194.94885158086203,28.353928604393246L168.83065790762862,24.555222468494804A170.6070045455344,170.6070045455344,0,0,0,169.02321968682404,23.1926972709002Z" fill-rule="evenodd" style="fill: #1DC690; stroke: #fff; opacity: 1;" id="p-type-logs"></path><path d="M194.94885158086203,28.353928604393246A197,197,0,0,1,194.71381789052722,29.92539260385057L168.6271127610535,25.916150213157547A170.6070045455344,170.6070045455344,0,0,0,168.83065790762862,24.555222468494804Z" fill-rule="evenodd" style="fill: #1DC690; stroke: #fff; opacity: 1;" id="p-type-logs"></path><path d="M194.71381789052722,29.92539260385057A197,197,0,0,1,194.4661169902064,31.494909791129214L168.41259748883536,27.275391969017146A170.6070045455344,170.6070045455344,0,0,0,168.6271127610535,25.916150213157547Z" fill-rule="evenodd" style="fill: #1DC690; stroke: #fff; opacity: 1;" id="p-type-logs"></path><path d="M194.4661169902064,31.494909791129214A197,197,0,0,1,194.205764994212,33.06237806046182L168.1871260463782,28.63285930988521A170.6070045455344,170.6070045455344,0,0,0,168.41259748883536,27.275391969017146Z" fill-rule="evenodd" style="fill: #1DC690; stroke: #fff; opacity: 1;" id="p-type-logs"></path><path d="M194.205764994212,33.06237806046182A197,197,0,0,1,193.93277883988029,34.627695439374484L167.95071310184557,29.98846392500885A170.6070045455344,170.6070045455344,0,0,0,168.1871260463782,28.63285930988521Z" fill-rule="evenodd" style="fill: #1DC690; stroke: #fff; opacity: 1;" id="p-type-logs"></path><path d="M193.93277883988029,34.627695439374484A197,197,0,0,1,193.64717628646937,36.190760095320606L167.70337403520602,31.342117624815778A170.6070045455344,170.6070045455344,0,0,0,167.95071310184557,29.98846392500885Z" fill-rule="evenodd" style="fill: #1DC690; stroke: #fff; opacity: 1;" id="p-type-logs"></path><path d="M193.64717628646937,36.190760095320606A197,197,0,0,1,193.34897591400377,37.75147034230567L167.44512493723283,32.69373234665153A170.6070045455344,170.6070045455344,0,0,0,167.70337403520602,31.342117624815778Z" fill-rule="evenodd" style="fill: #1DC690; stroke: #fff; opacity: 1;" id="p-type-logs"></path><path d="M193.34897591400377,37.75147034230567A197,197,0,0,1,193.0381971220658,39.309724647502485L167.1759826084571,34.04322016050844A170.6070045455344,170.6070045455344,0,0,0,167.44512493723283,32.69373234665153Z" fill-rule="evenodd" style="fill: #1DC690; stroke: #fff; opacity: 1;" id="p-type-logs"></path><path d="M193.0381971220658,39.309724647502485A197,197,0,0,1,192.71486012853347,40.86542163785641L166.8959645580748,35.390493274745936A170.6070045455344,170.6070045455344,0,0,0,167.1759826084571,34.04322016050844Z" fill-rule="evenodd" style="fill: #1DC690; stroke: #fff; opacity: 1;" id="p-type-logs"></path><path d="M192.71486012853347,40.86542163785641A197,197,0,0,1,192.37898596826517,42.418460106680314L166.6050890028077,36.73546404180192A170.6070045455344,170.6070045455344,0,0,0,166.8959645580748,35.390493274745936Z" fill-rule="evenodd" style="fill: #1DC690; stroke: #fff; opacity: 1;" id="p-type-logs"></path><path d="M192.37898596826517,42.418460106680314A197,197,0,0,1,192.0305964917314,43.96873902023856L166.30337486571827,38.0780449638947A170.6070045455344,170.6070045455344,0,0,0,166.6050890028077,36.73546404180192Z" fill-rule="evenodd" style="fill: #1DC690; stroke: #fff; opacity: 1;" id="p-type-logs"></path><path d="M192.0305964917314,43.96873902023856A197,197,0,0,1,191.66971436359293,45.516157524319816L165.99084177497858,39.41814869871518A170.6070045455344,170.6070045455344,0,0,0,166.30337486571827,38.0780449638947Z" fill-rule="evenodd" style="fill: #1DC690; stroke: #fff; opacity: 1;" id="p-type-logs"></path><path d="M191.66971436359293,45.516157524319816A197,197,0,0,1,191.29636306122683,47.06061495079823L165.66751006259352,40.75568806510903A170.6070045455344,170.6070045455344,0,0,0,165.99084177497858,39.41814869871518Z" fill-rule="evenodd" style="fill: #1DC690; stroke: #fff; opacity: 1;" id="p-type-logs"></path><path d="M191.29636306122683,47.06061495079823A197,197,0,0,1,190.91056687319866,48.60201082418241L165.33340076307795,42.090576048748225A170.6070045455344,170.6070045455344,0,0,0,165.66751006259352,40.75568806510903Z" fill-rule="evenodd" style="fill: #1DC690; stroke: #fff; opacity: 1;" id="p-type-logs"></path><path d="M190.91056687319866,48.60201082418241A197,197,0,0,1,190.51235089768267,50.140244868151875L164.98853561208827,43.42272580779185A170.6070045455344,170.6070045455344,0,0,0,165.33340076307795,42.090576048748225Z" fill-rule="evenodd" style="fill: #1DC690; stroke: #fff; opacity: 1;" id="p-type-logs"></path><path d="M190.51235089768267,50.140244868151875A197,197,0,0,1,190.1017410408289,51.675217012080665L164.63293704500865,44.75205067853565A170.6070045455344,170.6070045455344,0,0,0,164.98853561208827,43.42272580779185Z" fill-rule="evenodd" style="fill: #1DC690; stroke: #fff; opacity: 1;" id="p-type-logs"></path><path d="M190.1017410408289,51.675217012080665A197,197,0,0,1,189.67876401507786,53.206827397547414L164.26662819549105,46.07846418104993A170.6070045455344,170.6070045455344,0,0,0,164.63293704500865,44.75205067853565Z" fill-rule="evenodd" style="fill: #1DC690; stroke: #fff; opacity: 1;" id="p-type-logs"></path><path d="M189.67876401507786,53.206827397547414A197,197,0,0,1,189.2434473374228,54.73497638483176L163.8896328939507,47.401880024805635A170.6070045455344,170.6070045455344,0,0,0,164.26662819549105,46.07846418104993Z" fill-rule="evenodd" style="fill: #1DC690; stroke: #fff; opacity: 1;" id="p-type-logs"></path><path d="M189.2434473374228,54.73497638483176A197,197,0,0,1,188.7958193276194,56.25956455939638L163.5019756660155,48.72221211428794A170.6070045455344,170.6070045455344,0,0,0,163.8896328939507,47.401880024805635Z" fill-rule="evenodd" style="fill: #1DC690; stroke: #fff; opacity: 1;" id="p-type-logs"></path><path d="M188.7958193276194,56.25956455939638A197,197,0,0,1,188.3359091063437,57.780492738354525L163.10368173093065,50.0393745545973A170.6070045455344,170.6070045455344,0,0,0,163.5019756660155,48.72221211428794Z" fill-rule="evenodd" style="fill: #1DC690; stroke: #fff; opacity: 1;" id="p-type-logs"></path><path d="M188.3359091063437,57.780492738354525A197,197,0,0,1,187.86374659329738,59.29766197692239L162.69477699991782,51.353281657037364A170.6070045455344,170.6070045455344,0,0,0,163.10368173093065,50.0393745545973Z" fill-rule="evenodd" style="fill: #1DC690; stroke: #fff; opacity: 1;" id="p-type-logs"></path><path d="M187.86374659329738,59.29766197692239A197,197,0,0,1,187.3793625052614,60.810973574856L162.2752880744897,52.6638479446895A170.6070045455344,170.6070045455344,0,0,0,162.69477699991782,51.353281657037364Z" fill-rule="evenodd" style="fill: #1DC690; stroke: #fff; opacity: 1;" id="p-type-logs"></path><path d="M187.3793625052614,60.810973574856A197,197,0,0,1,186.88278835409778,62.320329082872234L161.84524224471932,53.97098815797352A170.6070045455344,170.6070045455344,0,0,0,162.2752880744897,52.6638479446895Z" fill-rule="evenodd" style="fill: #1DC690; stroke: #fff; opacity: 1;" id="p-type-logs"></path><path d="M186.88278835409778,62.320329082872234A197,197,0,0,1,186.3740564446995,63.825630309053494L161.40466748746462,55.274617260194354A170.6070045455344,170.6070045455344,0,0,0,161.84524224471932,53.97098815797352Z" fill-rule="evenodd" style="fill: #1DC690; stroke: #fff; opacity: 1;" id="p-type-logs"></path><path d="M186.3740564446995,63.825630309053494A197,197,0,0,1,185.85319987288887,65.32677932523559L160.95359246454854,56.57465044307407A170.6070045455344,170.6070045455344,0,0,0,161.40466748746462,55.274617260194354Z" fill-rule="evenodd" style="fill: #1DC690; stroke: #fff; opacity: 1;" id="p-type-logs"></path><path d="M185.85319987288887,65.32677932523559A197,197,0,0,1,185.32025252326451,66.82367847337856L160.49204652089426,57.87100313226917A170.6070045455344,170.6070045455344,0,0,0,160.95359246454854,56.57465044307407Z" fill-rule="evenodd" style="fill: #1DC690; stroke: #fff; opacity: 1;" id="p-type-logs"></path><path d="M185.32025252326451,66.82367847337856A197,197,0,0,1,184.775249066997,68.31623037191989L160.02005968261628,59.16359099287265A170.6070045455344,170.6070045455344,0,0,0,160.49204652089426,57.87100313226917Z" fill-rule="evenodd" style="fill: #1DC690; stroke: #fff; opacity: 1;" id="p-type-logs"></path><path d="M184.775249066997,68.31623037191989A197,197,0,0,1,184.21822495957326,69.80433792210958L159.53766265506698,60.452329934900355A170.6070045455344,170.6070045455344,0,0,0,160.02005968261628,59.16359099287265Z" fill-rule="evenodd" style="fill: #1DC690; stroke: #fff; opacity: 1;" id="p-type-logs"></path><path d="M184.21822495957326,69.80433792210958A197,197,0,0,1,183.64921643848996,71.28790431432715L159.04488682083903,61.73713611876159A170.6070045455344,170.6070045455344,0,0,0,159.53766265506698,60.452329934900355Z" fill-rule="evenodd" style="fill: #1DC690; stroke: #fff; opacity: 1;" id="p-type-logs"></path><path d="M183.64921643848996,71.28790431432715A197,197,0,0,1,183.06826052089625,72.76683303437949L158.54176423772398,63.01792596071333A170.6070045455344,170.6070045455344,0,0,0,159.04488682083903,61.73713611876159Z" fill-rule="evenodd" style="fill: #1DC690; stroke: #fff; opacity: 1;" id="p-type-logs"></path><path d="M183.06826052089625,72.76683303437949A197,197,0,0,1,182.4753950011853,74.2410278697797L158.02832763662641,64.29461613829773A170.6070045455344,170.6070045455344,0,0,0,158.54176423772398,63.01792596071333Z" fill-rule="evenodd" style="fill: #1DC690; stroke: #fff; opacity: 1;" id="p-type-logs"></path><path d="M182.4753950011853,74.2410278697797A197,197,0,0,1,181.87065844853575,75.71039291600626L157.5046104194349,65.56712359576282A170.6070045455344,170.6070045455344,0,0,0,158.02832763662641,64.29461613829773Z" fill-rule="evenodd" style="fill: #1DC690; stroke: #fff; opacity: 1;" id="p-type-logs"></path><path d="M181.87065844853575,75.71039291600626A197,197,0,0,1,181.25409020440264,77.17483258274211L156.97064665684886,66.83536554946569A170.6070045455344,170.6070045455344,0,0,0,157.5046104194349,65.56712359576282Z" fill-rule="evenodd" style="fill: #1DC690; stroke: #fff; opacity: 1;" id="p-type-logs"></path><path d="M181.25409020440264,77.17483258274211A197,197,0,0,1,180.62573037995782,78.63425160009336L156.4264710861621,68.099259493258A170.6070045455344,170.6070045455344,0,0,0,156.97064665684886,66.83536554946569Z" fill-rule="evenodd" style="fill: #1DC690; stroke: #fff; opacity: 1;" id="p-type-logs"></path><path d="M180.62573037995782,78.63425160009336A197,197,0,0,1,179.98561985348064,80.08855502478711L155.87211910900305,69.35872320385349A170.6070045455344,170.6070045455344,0,0,0,156.4264710861621,68.099259493258Z" fill-rule="evenodd" style="fill: #1DC690; stroke: #fff; opacity: 1;" id="p-type-logs"></path><path d="M179.98561985348064,80.08855502478711A197,197,0,0,1,179.33380026769862,81.53764824634801L155.30762678903156,70.61367474617707A170.6070045455344,170.6070045455344,0,0,0,155.87211910900305,69.35872320385349Z" fill-rule="evenodd" style="fill: #1DC690; stroke: #fff; opacity: 1;" id="p-type-logs"></path><path d="M179.33380026769862,81.53764824634801A197,197,0,0,1,178.6703140270782,82.98143699325325L154.73303084959286,71.8640324786951A170.6070045455344,170.6070045455344,0,0,0,155.30762678903156,70.61367474617707Z" fill-rule="evenodd" style="fill: #1DC690; stroke: #fff; opacity: 1;" id="p-type-logs"></path><path d="M178.6703140270782,82.98143699325325A197,197,0,0,1,177.9952042950663,84.4198273390654L154.14836867132843,73.1097150587267A170.6070045455344,170.6070045455344,0,0,0,154.73303084959286,71.8640324786951Z" fill-rule="evenodd" style="fill: #1DC690; stroke: #fff; opacity: 1;" id="p-type-logs"></path><path d="M177.9952042950663,84.4198273390654A197,197,0,0,1,177.30851499128207,85.85272570854288L153.55367828974425,74.3506414477355A170.6070045455344,170.6070045455344,0,0,0,154.14836867132843,73.1097150587267Z" fill-rule="evenodd" style="fill: #1DC690; stroke: #fff; opacity: 1;" id="p-type-logs"></path><path d="M177.30851499128207,85.85272570854288A197,197,0,0,1,176.61029078865994,87.28003888372744L152.94899839273634,75.58673091660157A170.6070045455344,170.6070045455344,0,0,0,153.55367828974425,74.3506414477355Z" fill-rule="evenodd" style="fill: #1DC690; stroke: #fff; opacity: 1;" id="p-type-logs"></path><path d="M176.61029078865994,87.28003888372744A197,197,0,0,1,175.90057711054317,88.70167401000873L152.33436831807393,76.81790305087345A170.6070045455344,170.6070045455344,0,0,0,152.94899839273634,75.58673091660157Z" fill-rule="evenodd" style="fill: #1DC690; stroke: #fff; opacity: 1;" id="p-type-logs"></path><path d="M175.90057711054317,88.70167401000873A197,197,0,0,1,175.17942012772892,90.11753860216471L151.70982805084023,78.04407775599944A170.6070045455344,170.6070045455344,0,0,0,152.33436831807393,76.81790305087345Z" fill-rule="evenodd" style="fill: #1DC690; stroke: #fff; opacity: 1;" id="p-type-logs"></path><path d="M175.17942012772892,90.11753860216471A197,197,0,0,1,174.44686675546455,91.52754055037859L151.07541822083135,79.2651752625382A170.6070045455344,170.6070045455344,0,0,0,151.70982805084023,78.04407775599944Z" fill-rule="evenodd" style="fill: #1DC690; stroke: #fff; opacity: 1;" id="p-type-logs"></path><path d="M174.44686675546455,91.52754055037859A197,197,0,0,1,173.7029646503956,92.93158812623092L150.4311800999129,80.48111613134827A170.6070045455344,170.6070045455344,0,0,0,151.07541822083135,79.2651752625382Z" fill-rule="evenodd" style="fill: #1DC690; stroke: #fff; opacity: 1;" id="p-type-logs"></path><path d="M173.7029646503956,92.93158812623092A197,197,0,0,1,172.9477622074653,94.32958998866707L149.7771555993352,81.69182125875594A170.6070045455344,170.6070045455344,0,0,0,150.4311800999129,80.48111613134827Z" fill-rule="evenodd" style="fill: #1DC690; stroke: #fff; opacity: 1;" id="p-type-logs"></path><path d="M172.9477622074653,94.32958998866707A197,197,0,0,1,172.18130855676642,95.7214551899395L149.11338726700666,82.89721188170141A170.6070045455344,170.6070045455344,0,0,0,149.7771555993352,81.69182125875594Z" fill-rule="evenodd" style="fill: #1DC690; stroke: #fff; opacity: 1;" id="p-type-logs"></path><path d="M172.18130855676642,95.7214551899395A197,197,0,0,1,171.40365356034488,97.10709318152442L148.4399182847257,84.09720958286279A170.6070045455344,170.6070045455344,0,0,0,149.11338726700666,82.89721188170141Z" fill-rule="evenodd" style="fill: #1DC690; stroke: #fff; opacity: 1;" id="p-type-logs"></path><path d="M171.40365356034488,97.10709318152442A197,197,0,0,1,170.61484780895617,98.48641382001239L147.7567924653718,85.29173629575754A170.6070045455344,170.6070045455344,0,0,0,148.4399182847257,84.09720958286279Z" fill-rule="evenodd" style="fill: #1DC690; stroke: #fff; opacity: 1;" id="p-type-logs"></path><path d="M170.61484780895617,98.48641382001239A197,197,0,0,1,169.81494261877387,99.85932737297274L147.0640542500549,86.48071430982117A170.6070045455344,170.6070045455344,0,0,0,147.7567924653718,85.29173629575754Z" fill-rule="evenodd" style="fill: #1DC690; stroke: #fff; opacity: 1;" id="p-type-logs"></path><path d="M169.81494261877387,99.85932737297274A197,197,0,0,1,169.00399002805145,101.22574452479112L146.3617487052245,87.66406627546266A170.6070045455344,170.6070045455344,0,0,0,147.0640542500549,86.48071430982117Z" fill-rule="evenodd" style="fill: #1DC690; stroke: #fff; opacity: 1;" id="p-type-logs"></path><path d="M169.00399002805145,101.22574452479112A197,197,0,0,1,168.18204279373694,102.58557638247997L145.64992151973777,88.84171520909659A170.6070045455344,170.6070045455344,0,0,0,146.3617487052245,87.66406627546266Z" fill-rule="evenodd" style="fill: #1DC690; stroke: #fff; opacity: 1;" id="p-type-logs"></path><path d="M168.18204279373694,102.58557638247997A197,197,0,0,1,167.34915438804057,103.93873448146152L144.9286190018872,90.01358449815127A170.6070045455344,170.6070045455344,0,0,0,145.64992151973777,88.84171520909659Z" fill-rule="evenodd" style="fill: #1DC690; stroke: #fff; opacity: 1;" id="p-type-logs"></path><path d="M167.34915438804057,103.93873448146152A197,197,0,0,1,166.5053789949563,105.28513079132289L144.197888076388,91.17959790605283A170.6070045455344,170.6070045455344,0,0,0,144.9286190018872,90.01358449815127Z" fill-rule="evenodd" style="fill: #1DC690; stroke: #fff; opacity: 1;" id="p-type-logs"></path><path d="M166.5053789949563,105.28513079132289A197,197,0,0,1,165.65077150673676,106.62467772154292L143.4577762813255,92.33967957718484A170.6070045455344,170.6070045455344,0,0,0,144.197888076388,91.17959790605283Z" fill-rule="evenodd" style="fill: #1DC690; stroke: #fff; opacity: 1;" id="p-type-logs"></path><path d="M68.22126133407023,184.81033386147132A197,197,0,0,1,66.72842954351145,185.35457019090904L57.78851513932097,160.52176649287307A170.6070045455344,170.6070045455344,0,0,0,59.081345393521886,160.05044400591763Z" fill-rule="evenodd" style="fill: #D7A449; stroke: #fff; opacity: 1;" id="p-type-tokenTransfers"></path><path d="M66.72842954351145,185.35457019090904A197,197,0,0,1,65.23125669982029,185.88674818114967L56.49192542282823,160.9826461517564A170.6070045455344,170.6070045455344,0,0,0,57.78851513932097,160.52176649287307Z" fill-rule="evenodd" style="fill: #D7A449; stroke: #fff; opacity: 1;" id="p-type-tokenTransfers"></path><path d="M65.23125669982029,185.88674818114967A197,197,0,0,1,63.729840202364734,186.40683321107372L55.19166059437067,161.43305299979863A170.6070045455344,170.6070045455344,0,0,0,56.49192542282823,160.9826461517564Z" fill-rule="evenodd" style="fill: #D7A449; stroke: #fff; opacity: 1;" id="p-type-tokenTransfers"></path><path d="M63.729840202364734,186.40683321107372A197,197,0,0,1,62.224277726585875,186.91479144627564L53.88780524336158,161.872957735545A170.6070045455344,170.6070045455344,0,0,0,55.19166059437067,161.43305299979863Z" fill-rule="evenodd" style="fill: #D7A449; stroke: #fff; opacity: 1;" id="p-type-tokenTransfers"></path><path d="M62.224277726585875,186.91479144627564A197,197,0,0,1,60.714667217643594,187.41058984126482L52.580444192797614,162.30233174076116A170.6070045455344,170.6070045455344,0,0,0,53.88780524336158,161.872957735545Z" fill-rule="evenodd" style="fill: #D7A449; stroke: #fff; opacity: 1;" id="p-type-tokenTransfers"></path><path d="M60.714667217643594,187.41058984126482A197,197,0,0,1,59.20110688404475,187.8941961416156L51.26966249374056,162.72114708229515A170.6070045455344,170.6070045455344,0,0,0,52.580444192797614,162.30233174076116Z" fill-rule="evenodd" style="fill: #D7A449; stroke: #fff; opacity: 1;" id="p-type-tokenTransfers"></path><path d="M59.20110688404475,187.8941961416156A197,197,0,0,1,57.683695191254074,188.3655788860653L49.95554541978429,163.12937651389421A170.6070045455344,170.6070045455344,0,0,0,51.26966249374056,162.72114708229515Z" fill-rule="evenodd" style="fill: #D7A449; stroke: #fff; opacity: 1;" id="p-type-tokenTransfers"></path><path d="M57.683695191254074,188.3655788860653A197,197,0,0,1,56.162530855288516,188.82470740856124L48.63817846150723,163.52699347797773A170.6070045455344,170.6070045455344,0,0,0,49.95554541978429,163.12937651389421Z" fill-rule="evenodd" style="fill: #D7A449; stroke: #fff; opacity: 1;" id="p-type-tokenTransfers"></path><path d="M56.162530855288516,188.82470740856124A197,197,0,0,1,54.63771283629523,189.27155184025554L47.31764732091078,163.9139721073646A170.6070045455344,170.6070045455344,0,0,0,48.63817846150723,163.52699347797773Z" fill-rule="evenodd" style="fill: #D7A449; stroke: #fff; opacity: 1;" id="p-type-tokenTransfers"></path><path d="M54.63771283629523,189.27155184025554A197,197,0,0,1,53.10934033211361,189.7060831114483L45.99403790584386,164.29028722695628A170.6070045455344,170.6070045455344,0,0,0,47.31764732091078,163.9139721073646Z" fill-rule="evenodd" style="fill: #D7A449; stroke: #fff; opacity: 1;" id="p-type-tokenTransfers"></path><path d="M53.10934033211361,189.7060831114483A197,197,0,0,1,51.57751277182195,190.1282729534788L44.66743632441415,164.65591435537445A170.6070045455344,170.6070045455344,0,0,0,45.99403790584386,164.29028722695628Z" fill-rule="evenodd" style="fill: #D7A449; stroke: #fff; opacity: 1;" id="p-type-tokenTransfers"></path><path d="M51.57751277182195,190.1282729534788A197,197,0,0,1,50.042329809269084,190.5380939005645L43.33792887938631,165.01082970655366A170.6070045455344,170.6070045455344,0,0,0,44.66743632441415,164.65591435537445Z" fill-rule="evenodd" style="fill: #D7A449; stroke: #fff; opacity: 1;" id="p-type-tokenTransfers"></path><path d="M50.042329809269084,190.5380939005645A197,197,0,0,1,48.50389131659127,190.9355192915878L42.00560206256748,165.3550101912888A170.6070045455344,170.6070045455344,0,0,0,43.33792887938631,165.01082970655366Z" fill-rule="evenodd" style="fill: #D7A449; stroke: #fff; opacity: 1;" id="p-type-tokenTransfers"></path><path d="M48.50389131659127,190.9355192915878A197,197,0,0,1,46.96229737771501,191.32052327183055L40.670542549180524,165.68843341873716A170.6070045455344,170.6070045455344,0,0,0,42.00560206256748,165.3550101912888Z" fill-rule="evenodd" style="fill: #D7A449; stroke: #fff; opacity: 1;" id="p-type-tokenTransfers"></path><path d="M46.96229737771501,191.32052327183055A197,197,0,0,1,45.41764828184599,191.69308079465605L39.33283719222529,166.01107769787504A170.6070045455344,170.6070045455344,0,0,0,40.670542549180524,165.68843341873716Z" fill-rule="evenodd" style="fill: #D7A449; stroke: #fff; opacity: 1;" id="p-type-tokenTransfers"></path><path d="M45.41764828184599,191.69308079465605A197,197,0,0,1,43.870044516944795,192.05316762313836L37.99257301682841,166.32292203890887A170.6070045455344,170.6070045455344,0,0,0,39.33283719222529,166.01107769787504Z" fill-rule="evenodd" style="fill: #D7A449; stroke: #fff; opacity: 1;" id="p-type-tokenTransfers"></path><path d="M43.870044516944795,192.05316762313836A197,197,0,0,1,42.31958676318952,192.40076033163922L36.64983721458179,166.62394615464086A170.6070045455344,170.6070045455344,0,0,0,37.99257301682841,166.32292203890887Z" fill-rule="evenodd" style="fill: #D7A449; stroke: #fff; opacity: 1;" id="p-type-tokenTransfers"></path><path d="M42.31958676318952,192.40076033163922A197,197,0,0,1,40.766375886426026,192.73583630733185L35.3047171378703,166.91413046178855A170.6070045455344,170.6070045455344,0,0,0,36.64983721458179,166.62394615464086Z" fill-rule="evenodd" style="fill: #D7A449; stroke: #fff; opacity: 1;" id="p-type-tokenTransfers"></path><path d="M40.766375886426026,192.73583630733185A197,197,0,0,1,39.210512931606026,193.0583737516722L33.95730029418906,167.193456082259A170.6070045455344,170.6070045455344,0,0,0,35.3047171378703,166.91413046178855Z" fill-rule="evenodd" style="fill: #D7A449; stroke: #fff; opacity: 1;" id="p-type-tokenTransfers"></path><path d="M39.210512931606026,193.0583737516722A197,197,0,0,1,37.65209911621359,193.36835168181693L32.60767434045058,167.46190484437685A170.6070045455344,170.6070045455344,0,0,0,33.95730029418906,167.193456082259Z" fill-rule="evenodd" style="fill: #D7A449; stroke: #fff; opacity: 1;" id="p-type-tokenTransfers"></path><path d="M37.65209911621359,193.36835168181693A197,197,0,0,1,36.09123582368034,193.66574993198847L31.255927077282163,167.71945928406643A170.6070045455344,170.6070045455344,0,0,0,32.60767434045058,167.46190484437685Z" fill-rule="evenodd" style="fill: #D7A449; stroke: #fff; opacity: 1;" id="p-type-tokenTransfers"></path><path d="M36.09123582368034,193.66574993198847A197,197,0,0,1,34.52802459678996,193.95054915478704L29.902146443314056,167.96610264598806A170.6070045455344,170.6070045455344,0,0,0,31.255927077282163,167.71945928406643Z" fill-rule="evenodd" style="fill: #D7A449; stroke: #fff; opacity: 1;" id="p-type-tokenTransfers"></path><path d="M34.52802459678996,193.95054915478704A197,197,0,0,1,32.9625671310722,194.2227308224492L28.546420509458464,168.2018188846279A170.6070045455344,170.6070045455344,0,0,0,29.902146443314056,167.96610264598806Z" fill-rule="evenodd" style="fill: #D7A449; stroke: #fff; opacity: 1;" id="p-type-tokenTransfers"></path><path d="M32.9625671310722,194.2227308224492A197,197,0,0,1,31.394965268187086,194.48227722805316L27.188837473180147,168.42659266534187A170.6070045455344,170.6070045455344,0,0,0,28.546420509458464,168.2018188846279Z" fill-rule="evenodd" style="fill: #D7A449; stroke: #fff; opacity: 1;" id="p-type-tokenTransfers"></path><path d="M31.394965268187086,194.48227722805316A197,197,0,0,1,29.825320989299524,194.7291714866708L25.829485652758613,168.64040936535326A170.6070045455344,170.6070045455344,0,0,0,27.188837473180147,168.42659266534187Z" fill-rule="evenodd" style="fill: #D7A449; stroke: #fff; opacity: 1;" id="p-type-tokenTransfers"></path><path d="M29.825320989299524,194.7291714866708A197,197,0,0,1,28.25373640844487,194.9633975364661L24.46845348154256,168.84325507470408A170.6070045455344,170.6070045455344,0,0,0,25.829485652758613,168.64040936535326Z" fill-rule="evenodd" style="fill: #D7A449; stroke: #fff; opacity: 1;" id="p-type-tokenTransfers"></path><path d="M28.25373640844487,194.9633975364661A197,197,0,0,1,26.68031376588584,195.18494013973998L23.105829502196798,169.0351165971598A170.6070045455344,170.6070045455344,0,0,0,24.46845348154256,168.84325507470408Z" fill-rule="evenodd" style="fill: #D7A449; stroke: #fff; opacity: 1;" id="p-type-tokenTransfers"></path><path d="M26.68031376588584,195.18494013973998A197,197,0,0,1,25.105155421461223,195.39378488392174L21.741702360942046,169.21598145106805A170.6070045455344,170.6070045455344,0,0,0,23.105829502196798,169.0351165971598Z" fill-rule="evenodd" style="fill: #D7A449; stroke: #fff; opacity: 1;" id="p-type-tokenTransfers"></path><path d="M25.105155421461223,195.39378488392174A197,197,0,0,1,23.52836384792683,195.58991818250647L20.37616080178802,169.38583787017046A170.6070045455344,170.6070045455344,0,0,0,21.741702360942046,169.21598145106805Z" fill-rule="evenodd" style="fill: #D7A449; stroke: #fff; opacity: 1;" id="p-type-tokenTransfers"></path><path d="M23.52836384792683,195.58991818250647A197,197,0,0,1,21.950041624289014,195.77332727593915L19.00929366076013,169.54467480436824A170.6070045455344,170.6070045455344,0,0,0,20.37616080178802,169.38583787017046Z" fill-rule="evenodd" style="fill: #D7A449; stroke: #fff; opacity: 1;" id="p-type-tokenTransfers"></path><path d="M21.950041624289014,195.77332727593915A197,197,0,0,1,20.370291429131406,195.9440002324446L17.641189860120218,169.692481920441A170.6070045455344,170.6070045455344,0,0,0,19.00929366076013,169.54467480436824Z" fill-rule="evenodd" style="fill: #D7A449; stroke: #fff; opacity: 1;" id="p-type-tokenTransfers"></path><path d="M20.370291429131406,195.9440002324446A197,197,0,0,1,18.789216033935066,196.10192594880377L16.271938402581664,169.82924960271887A170.6070045455344,170.6070045455344,0,0,0,17.641189860120218,169.692481920441Z" fill-rule="evenodd" style="fill: #D7A449; stroke: #fff; opacity: 1;" id="p-type-tokenTransfers"></path><path d="M18.789216033935066,196.10192594880377A197,197,0,0,1,17.20691829639264,196.24709415107594L14.901628365519281,169.9549689537083A170.6070045455344,170.6070045455344,0,0,0,16.271938402581664,169.82924960271887Z" fill-rule="evenodd" style="fill: #D7A449; stroke: #fff; opacity: 1;" id="p-type-tokenTransfers"></path><path d="M17.20691829639264,196.24709415107594A197,197,0,0,1,15.623501153716902,196.37949539526727L13.530348895174322,170.06963179467064A170.6070045455344,170.6070045455344,0,0,0,14.901628365519281,169.9549689537083Z" fill-rule="evenodd" style="fill: #D7A449; stroke: #fff; opacity: 1;" id="p-type-tokenTransfers"></path><path d="M15.623501153716902,196.37949539526727A197,197,0,0,1,14.039067615944115,196.4991210679451L12.158189200855038,170.17323066615447A170.6070045455344,170.6070045455344,0,0,0,13.530348895174322,170.06963179467064Z" fill-rule="evenodd" style="fill: #D7A449; stroke: #fff; opacity: 1;" id="p-type-tokenTransfers"></path><path d="M14.039067615944115,196.4991210679451A197,197,0,0,1,12.453720759232658,196.60596338679827L10.785238549133108,170.26575882848053A170.6070045455344,170.6070045455344,0,0,0,12.158189200855038,170.17323066615447Z" fill-rule="evenodd" style="fill: #D7A449; stroke: #fff; opacity: 1;" id="p-type-tokenTransfers"></path><path d="M12.453720759232658,196.60596338679827A197,197,0,0,1,10.867563719157358,196.70001540114342L9.411586258036367,170.34721026218054A170.6070045455344,170.6070045455344,0,0,0,10.785238549133108,170.26575882848053Z" fill-rule="evenodd" style="fill: #D7A449; stroke: #fff; opacity: 1;" id="p-type-tokenTransfers"></path><path d="M10.867563719157358,196.70001540114342A197,197,0,0,1,9.280699683999948,196.78127099237722L8.037321691238168,170.41757966838853A170.6070045455344,170.6070045455344,0,0,0,9.411586258036367,170.34721026218054Z" fill-rule="evenodd" style="fill: #D7A449; stroke: #fff; opacity: 1;" id="p-type-tokenTransfers"></path><path d="M9.280699683999948,196.78127099237722A197,197,0,0,1,7.693231888036097,196.84972487437443L6.6625342522437805,170.47686246918576A170.6070045455344,170.6070045455344,0,0,0,8.037321691238168,170.41757966838853Z" fill-rule="evenodd" style="fill: #D7A449; stroke: #fff; opacity: 1;" id="p-type-tokenTransfers"></path><path d="M7.693231888036097,196.84972487437443A197,197,0,0,1,6.10526360481945,196.90537259383163L5.287313378574202,170.52505480789839A170.6070045455344,170.6070045455344,0,0,0,6.6625342522437805,170.47686246918576Z" fill-rule="evenodd" style="fill: #D7A449; stroke: #fff; opacity: 1;" id="p-type-tokenTransfers"></path><path d="M6.10526360481945,196.90537259383163A197,197,0,0,1,4.516898140463117,196.9482105305572L3.9117485359477504,170.56215354934844A170.6070045455344,170.6070045455344,0,0,0,5.287313378574202,170.52505480789839Z" fill-rule="evenodd" style="fill: #D7A449; stroke: #fff; opacity: 1;" id="p-type-tokenTransfers"></path><path d="M4.516898140463117,196.9482105305572A197,197,0,0,1,2.928238826919032,196.97823589770655L2.5359292124598256,170.58815628005772A170.6070045455344,170.6070045455344,0,0,0,3.9117485359477504,170.56215354934844Z" fill-rule="evenodd" style="fill: #D7A449; stroke: #fff; opacity: 1;" id="p-type-tokenTransfers"></path><path d="M2.928238826919032,196.97823589770655A197,197,0,0,1,1.339389015255647,196.9954467419636L1.1599449127612131,170.6030613084049A170.6070045455344,170.6070045455344,0,0,0,2.5359292124598256,170.58815628005772Z" fill-rule="evenodd" style="fill: #D7A449; stroke: #fff; opacity: 1;" id="p-type-tokenTransfers"></path><path d="M1.339389015255647,196.9954467419636A197,197,0,0,1,-0.24954793106563308,196.99984194366783L-0.21611484776468615,170.60686766473552A170.6070045455344,170.6070045455344,0,0,0,1.1599449127612131,170.6030613084049Z" fill-rule="evenodd" style="fill: #D7A449; stroke: #fff; opacity: 1;" id="p-type-tokenTransfers"></path><path d="M-0.24954793106563308,196.99984194366783A197,197,0,0,1,-1.838468642914811,196.99142121688706L-1.592160548825328,170.59957510142505A170.6070045455344,170.6070045455344,0,0,0,-0.21611484776468615,170.60686766473552Z" fill-rule="evenodd" style="fill: #D7A449; stroke: #fff; opacity: 1;" id="p-type-tokenTransfers"></path><path d="M-1.838468642914811,196.99142121688706A197,197,0,0,1,-3.4272697522180327,196.9701851094361L-2.9681026710428147,170.58118409289503A170.6070045455344,170.6070045455344,0,0,0,-1.592160548825328,170.59957510142505Z" fill-rule="evenodd" style="fill: #D7A449; stroke: #fff; opacity: 1;" id="p-type-tokenTransfers"></path><path d="M-3.4272697522180327,196.9701851094361A197,197,0,0,1,-5.0158478986822495,196.93613500284116L-4.3438517017776235,170.55169583558225A170.6070045455344,170.6070045455344,0,0,0,-2.9681026710428147,170.58118409289503Z" fill-rule="evenodd" style="fill: #D7A449; stroke: #fff; opacity: 1;" id="p-type-tokenTransfers"></path><path d="M-5.0158478986822495,196.93613500284116A197,197,0,0,1,-6.6040997365193785,196.8892731122498L-5.719318140951899,170.51111224786078A170.6070045455344,170.6070045455344,0,0,0,-4.3438517017776235,170.55169583558225Z" fill-rule="evenodd" style="fill: #D7A449; stroke: #fff; opacity: 1;" id="p-type-tokenTransfers"></path><path d="M-6.6040997365193785,196.8892731122498A197,197,0,0,1,-8.191921941169518,196.82960248628706L-7.094412506871933,170.4594359699173A170.6070045455344,170.6070045455344,0,0,0,-5.719318140951899,170.51111224786078Z" fill-rule="evenodd" style="fill: #D7A449; stroke: #fff; opacity: 1;" id="p-type-tokenTransfers"></path><path d="M-8.191921941169518,196.82960248628706A197,197,0,0,1,-9.779211216022775,196.7571270068569L-8.469045342049435,170.39667036357932A170.6070045455344,170.6070045455344,0,0,0,-7.094412506871933,170.4594359699173Z" fill-rule="evenodd" style="fill: #D7A449; stroke: #fff; opacity: 1;" id="p-type-tokenTransfers"></path><path d="M-9.779211216022775,196.7571270068569A197,197,0,0,1,-11.36586429913929,196.6718513888898L-9.84312721902124,170.32281951209637A170.6070045455344,170.6070045455344,0,0,0,-8.469045342049435,170.39667036357932Z" fill-rule="evenodd" style="fill: #D7A449; stroke: #fff; opacity: 1;" id="p-type-tokenTransfers"></path><path d="M-11.36586429913929,196.6718513888898A197,197,0,0,1,-12.951777969966992,196.573781180036L-11.216568746167061,170.23788821987458A170.6070045455344,170.6070045455344,0,0,0,-9.84312721902124,170.32281951209637Z" fill-rule="evenodd" style="fill: #D7A449; stroke: #fff; opacity: 1;" id="p-type-tokenTransfers"></path><path d="M-12.951777969966992,196.573781180036A197,197,0,0,1,-14.536849056056658,196.46292276030462L-12.589280573524903,170.1418820121638A170.6070045455344,170.6070045455344,0,0,0,-11.216568746167061,170.23788821987458Z" fill-rule="evenodd" style="fill: #D7A449; stroke: #fff; opacity: 1;" id="p-type-tokenTransfers"></path><path d="M-14.536849056056658,196.46292276030462A197,197,0,0,1,-16.12097443977387,196.33928334164855L-13.96117339860378,170.0348071346985A170.6070045455344,170.6070045455344,0,0,0,-12.589280573524903,170.1418820121638Z" fill-rule="evenodd" style="fill: #D7A449; stroke: #fff; opacity: 1;" id="p-type-tokenTransfers"></path><path d="M-16.12097443977387,196.33928334164855A197,197,0,0,1,-17.70405106500737,196.2028709674953L-15.332157972193327,169.91667055329123A170.6070045455344,170.6070045455344,0,0,0,-13.96117339860378,170.0348071346985Z" fill-rule="evenodd" style="fill: #D7A449; stroke: #fff; opacity: 1;" id="p-type-tokenTransfers"></path><path d="M-17.70405106500737,196.2028709674953A197,197,0,0,1,-19.285975943873435,196.0536945122237L-16.70214510416996,169.78747995337952A170.6070045455344,170.6070045455344,0,0,0,-15.332157972193327,169.91667055329123Z" fill-rule="evenodd" style="fill: #D7A449; stroke: #fff; opacity: 1;" id="p-type-tokenTransfers"></path><path d="M-19.285975943873435,196.0536945122237A197,197,0,0,1,-20.866646163415812,195.89176368058665L-18.071045669299185,169.64724373952586A170.6070045455344,170.6070045455344,0,0,0,-16.70214510416996,169.78747995337952Z" fill-rule="evenodd" style="fill: #D7A449; stroke: #fff; opacity: 1;" id="p-type-tokenTransfers"></path><path d="M-20.866646163415812,195.89176368058665A197,197,0,0,1,-22.445958892300766,195.71708900707966L-19.43877061303368,169.49597103487108A170.6070045455344,170.6070045455344,0,0,0,-18.071045669299185,169.64724373952586Z" fill-rule="evenodd" style="fill: #D7A449; stroke: #fff; opacity: 1;" id="p-type-tokenTransfers"></path><path d="M-22.445958892300766,195.71708900707966A197,197,0,0,1,-24.02381138750684,195.52968185525566L-20.805230957306804,169.33367168054062A170.6070045455344,170.6070045455344,0,0,0,-19.43877061303368,169.49597103487108Z" fill-rule="evenodd" style="fill: #D7A449; stroke: #fff; opacity: 1;" id="p-type-tokenTransfers"></path><path d="M-24.02381138750684,195.52968185525566A197,197,0,0,1,-25.600101001008838,195.32955441698562L-22.17033780632109,169.16035623500446A170.6070045455344,170.6070045455344,0,0,0,-20.805230957306804,169.33367168054062Z" fill-rule="evenodd" style="fill: #D7A449; stroke: #fff; opacity: 1;" id="p-type-tokenTransfers"></path><path d="M-25.600101001008838,195.32955441698562A197,197,0,0,1,-27.174725186455664,195.11671971166544L-23.53400235233142,168.9760359733902A170.6070045455344,170.6070045455344,0,0,0,-22.17033780632109,169.16035623500446Z" fill-rule="evenodd" style="fill: #D7A449; stroke: #fff; opacity: 1;" id="p-type-tokenTransfers"></path><path d="M-116.12408192592412,159.13578352105873A197,197,0,0,1,-135.34984564291057,143.14125640233945L-117.21640472506306,123.96396437404789A170.6070045455344,170.6070045455344,0,0,0,-100.56640493899566,137.8156311803779Z" fill-rule="evenodd" style="fill: #414552; stroke: #fff; opacity: 1;" id="p-type-ether"></path><path d="M-135.34984564291057,143.14125640233945A197,197,0,0,1,-140.4663042466234,138.12392034435973L-121.64738785328983,119.61882388851379A170.6070045455344,170.6070045455344,0,0,0,-117.21640472506306,123.96396437404789Z" fill-rule="evenodd" style="fill: #414552; stroke: #fff; opacity: 1;" id="p-type-ether"></path><path d="M-140.4663042466234,138.12392034435973A197,197,0,0,1,-145.10534154507988,133.24203486544968L-125.66491200285668,115.39098704541132A170.6070045455344,170.6070045455344,0,0,0,-121.64738785328983,119.61882388851379Z" fill-rule="evenodd" style="fill: #414552; stroke: #fff; opacity: 1;" id="p-type-ether"></path><path d="M-145.10534154507988,133.24203486544968A197,197,0,0,1,-148.2861896971383,129.69273667057965L-128.41960730812005,112.31720464304762A170.6070045455344,170.6070045455344,0,0,0,-125.66491200285668,115.39098704541132Z" fill-rule="evenodd" style="fill: #414552; stroke: #fff; opacity: 1;" id="p-type-ether"></path><path d="M-148.2861896971383,129.69273667057965A197,197,0,0,1,-151.2667538292559,126.20368134868055L-131.0008515641426,109.2955940990737A170.6070045455344,170.6070045455344,0,0,0,-128.41960730812005,112.31720464304762Z" fill-rule="evenodd" style="fill: #414552; stroke: #fff; opacity: 1;" id="p-type-ether"></path><path d="M-151.2667538292559,126.20368134868055A197,197,0,0,1,-153.37832397040293,123.62883860988956L-132.82952494824866,107.0657148765308A170.6070045455344,170.6070045455344,0,0,0,-131.0008515641426,109.2955940990737Z" fill-rule="evenodd" style="fill: #414552; stroke: #fff; opacity: 1;" id="p-type-ether"></path><path d="M-153.37832397040293,123.62883860988956A197,197,0,0,1,-155.3477079165705,121.14491175888445L-134.53506147543501,104.9145711224181A170.6070045455344,170.6070045455344,0,0,0,-132.82952494824866,107.0657148765308Z" fill-rule="evenodd" style="fill: #414552; stroke: #fff; opacity: 1;" id="p-type-ether"></path><path d="M-155.3477079165705,121.14491175888445A197,197,0,0,1,-156.801984592403,119.25660412691539L-135.79450202083711,103.27924874297285A170.6070045455344,170.6070045455344,0,0,0,-134.53506147543501,104.9145711224181Z" fill-rule="evenodd" style="fill: #414552; stroke: #fff; opacity: 1;" id="p-type-ether"></path><path d="M-156.801984592403,119.25660412691539A197,197,0,0,1,-157.79682255326395,117.93711371783581L-136.6560569675918,102.13653652866002A170.6070045455344,170.6070045455344,0,0,0,-135.79450202083711,103.27924874297285Z" fill-rule="evenodd" style="fill: #414552; stroke: #fff; opacity: 1;" id="p-type-ether"></path><path d="M-157.79682255326395,117.93711371783581A197,197,0,0,1,-158.47150539112218,117.02897922767477L-137.24034944467442,101.35006899012772A170.6070045455344,170.6070045455344,0,0,0,-136.6560569675918,102.13653652866002Z" fill-rule="evenodd" style="fill: #414552; stroke: #fff; opacity: 1;" id="p-type-ether"></path><path d="M-158.47150539112218,117.02897922767477A197,197,0,0,1,-159.06070569146692,116.22689837095605L-137.7506118726904,100.65544659232013A170.6070045455344,170.6070045455344,0,0,0,-137.24034944467442,101.35006899012772Z" fill-rule="evenodd" style="fill: #414552; stroke: #fff; opacity: 1;" id="p-type-ether"></path></g></svg>