<svg xmlns="http://www.w3.org/2000/svg" width="400" height="400" id="block-7824860"><g id="burst-container" transform="translate(200,200)"><circle r="197" style="fill: #f9f9f9; stroke: #f9f9f9; stroke-width: 3; opacity: 1;" id="circle-base"></circle><path display="none" d="M6.031385485800715e-15,-98.5A98.5,98.5,0,1,1,-6.031385485800715e-15,98.5A98.5,98.5,0,1,1,6.031385485800715e-15,-98.5Z" fill-rule="evenodd" id="p-type-root" style="stroke: #fff; opacity: 1;"></path><path d="M8.529667153919608e-15,-139.30003589374985A139.30003589374985,139.30003589374985,0,1,1,-111.76554138808568,-83.14423466619982L-79.03017221850112,-58.79185214903552A98.5,98.5,0,1,0,6.031385485800715e-15,-98.5Z" fill-rule="evenodd" style="fill: #0B1F65; stroke: #fff; opacity: 1;" id="p-type-data"></path><path d="M-111.76554138808568,-83.14423466619982A139.30003589374985,139.30003589374985,0,0,1,-2.4944088986320203,-139.27770074296325L-1.7638134472747693,-98.48420666341997A98.5,98.5,0,0,0,-79.03017221850112,-58.79185214903552Z" fill-rule="evenodd" style="fill: #D7A449; stroke: #fff; opacity: 1;" id="p-type-value"></path><path d="M1.0446666101440332e-14,-170.6070045455344A170.6070045455344,170.6070045455344,0,0,1,169.48589663065624,19.526413989837003L138.38465511440083,15.94325026048123A139.30003589374985,139.30003589374985,0,0,0,8.529667153919608e-15,-139.30003589374985Z" fill-rule="evenodd" style="fill: #DB3F29; stroke: #fff; opacity: 1;" id="p-type-functions"></path><path d="M169.48589663065624,19.526413989837003A170.6070045455344,170.6070045455344,0,0,1,65.67878643164654,157.45808017649065L53.62650456092173,128.56398410354836A139.30003589374985,139.30003589374985,0,0,0,138.38465511440083,15.94325026048123Z" fill-rule="evenodd" style="fill: #414552; stroke: #fff; opacity: 1;" id="p-type-ether"></path><path d="M65.67878643164654,157.45808017649065A170.6070045455344,170.6070045455344,0,0,1,-84.49209752715258,148.21550342478392L-68.98750874633205,121.01745178681773A139.30003589374985,139.30003589374985,0,0,0,53.62650456092173,128.56398410354836Z" fill-rule="evenodd" style="fill: #1DC690; stroke: #fff; opacity: 1;" id="p-type-logs"></path><path d="M-84.49209752715258,148.21550342478392A170.6070045455344,170.6070045455344,0,0,1,-162.02838668032942,53.41864758461827L-132.29562373772447,43.616143110623945A139.30003589374985,139.30003589374985,0,0,0,-68.98750874633205,121.01745178681773Z" fill-rule="evenodd" style="fill: #D7A449; stroke: #fff; opacity: 1;" id="p-type-tokenTransfers"></path><path d="M-136.88427361336232,-101.830474993207A170.6070045455344,170.6070045455344,0,0,1,-66.89654420710183,-156.94458376493046L-54.62079962097911,-128.1447160391908A139.30003589374985,139.30003589374985,0,0,0,-111.76554138808568,-83.14423466619982Z" fill-rule="evenodd" style="fill: #414552; stroke: #fff; opacity: 1;" id="p-type-ether"></path><path d="M-66.89654420710183,-156.94458376493046A170.6070045455344,170.6070045455344,0,0,1,-6.1090493389712375,-170.4975938720955L-4.9880178979888,-139.21070245296997A139.30003589374985,139.30003589374985,0,0,0,-54.62079962097911,-128.1447160391908Z" fill-rule="evenodd" style="fill: #D7A449; stroke: #fff; opacity: 1;" id="p-type-tokenTransfers"></path><path d="M1.206277097160143e-14,-197A197,197,0,0,1,28.99697265192397,-194.85424187587904L25.112114949408777,-168.7487234996688A170.6070045455344,170.6070045455344,0,0,0,1.0446666101440332e-14,-170.6070045455344Z" fill-rule="evenodd" style="fill: #DB3F29; stroke: #fff; opacity: 1;" id="p-type-functions"></path><path d="M28.99697265192397,-194.85424187587904A197,197,0,0,1,46.30274570803573,-191.48121510972553L40.099354048129825,-165.827596632535A170.6070045455344,170.6070045455344,0,0,0,25.112114949408777,-168.7487234996688Z" fill-rule="evenodd" style="fill: #DB3F29; stroke: #fff; opacity: 1;" id="p-type-functions"></path><path d="M46.30274570803573,-191.48121510972553A197,197,0,0,1,56.12816616301463,-188.83492516792813L48.60841776500481,-163.53584231715922A170.6070045455344,170.6070045455344,0,0,0,40.099354048129825,-165.827596632535Z" fill-rule="evenodd" style="fill: #DB3F29; stroke: #fff; opacity: 1;" id="p-type-functions"></path><path d="M56.12816616301463,-188.83492516792813A197,197,0,0,1,64.52143128111545,-186.1343195260785L55.877198577977914,-161.19704922571387A170.6070045455344,170.6070045455344,0,0,0,48.60841776500481,-163.53584231715922Z" fill-rule="evenodd" style="fill: #DB3F29; stroke: #fff; opacity: 1;" id="p-type-functions"></path><path d="M64.52143128111545,-186.1343195260785A197,197,0,0,1,72.2827247113376,-183.25994572820593L62.59867585477556,-158.70776849678387A170.6070045455344,170.6070045455344,0,0,0,55.877198577977914,-161.19704922571387Z" fill-rule="evenodd" style="fill: #DB3F29; stroke: #fff; opacity: 1;" id="p-type-functions"></path><path d="M72.2827247113376,-183.25994572820593A197,197,0,0,1,78.3617656246675,-180.74411107470328L67.86327971636422,-156.52899177512933A170.6070045455344,170.6070045455344,0,0,0,62.59867585477556,-158.70776849678387Z" fill-rule="evenodd" style="fill: #DB3F29; stroke: #fff; opacity: 1;" id="p-type-functions"></path><path d="M78.3617656246675,-180.74411107470328A197,197,0,0,1,83.69769526899816,-178.33590722750682L72.48433034116103,-154.44342606596578A170.6070045455344,170.6070045455344,0,0,0,67.86327971636422,-156.52899177512933Z" fill-rule="evenodd" style="fill: #DB3F29; stroke: #fff; opacity: 1;" id="p-type-functions"></path><path d="M83.69769526899816,-178.33590722750682A197,197,0,0,1,85.29111118036815,-177.57935227277432L73.86426899920177,-153.78823025580846A170.6070045455344,170.6070045455344,0,0,0,72.48433034116103,-154.44342606596578Z" fill-rule="evenodd" style="fill: #DB3F29; stroke: #fff; opacity: 1;" id="p-type-functions"></path><path d="M85.29111118036815,-177.57935227277432A197,197,0,0,1,86.87768923272874,-176.80856063432395L75.23828589763288,-153.1207051158858A170.6070045455344,170.6070045455344,0,0,0,73.86426899920177,-153.78823025580846Z" fill-rule="evenodd" style="fill: #DB3F29; stroke: #fff; opacity: 1;" id="p-type-functions"></path><path d="M86.87768923272874,-176.80856063432395A197,197,0,0,1,88.4573022288037,-176.02359410715962L76.60627088038184,-152.44090416224103A170.6070045455344,170.6070045455344,0,0,0,75.23828589763288,-153.1207051158858Z" fill-rule="evenodd" style="fill: #DB3F29; stroke: #fff; opacity: 1;" id="p-type-functions"></path><path d="M88.4573022288037,-176.02359410715962A197,197,0,0,1,90.02982352971112,-175.22451562269782L77.96811427495983,-151.74888189507956A170.6070045455344,170.6070045455344,0,0,0,76.60627088038184,-152.44090416224103Z" fill-rule="evenodd" style="fill: #DB3F29; stroke: #fff; opacity: 1;" id="p-type-functions"></path><path d="M90.02982352971112,-175.22451562269782A197,197,0,0,1,91.59512706511622,-174.4113892437223L79.32370690125424,-151.0446937943995A170.6070045455344,170.6070045455344,0,0,0,77.96811427495983,-151.74888189507956Z" fill-rule="evenodd" style="fill: #DB3F29; stroke: #fff; opacity: 1;" id="p-type-functions"></path><path d="M91.59512706511622,-174.4113892437223A197,197,0,0,1,93.1530873433383,-173.58428015924827L80.67294008028163,-150.3283963155441A170.6070045455344,170.6070045455344,0,0,0,79.32370690125424,-151.0446937943995Z" fill-rule="evenodd" style="fill: #DB3F29; stroke: #fff; opacity: 1;" id="p-type-functions"></path><path d="M93.1530873433383,-173.58428015924827A197,197,0,0,1,94.70357946141186,-172.7432546792958L82.01570564290088,-149.60004688467527A170.6070045455344,170.6070045455344,0,0,0,80.67294008028163,-150.3283963155441Z" fill-rule="evenodd" style="fill: #DB3F29; stroke: #fff; opacity: 1;" id="p-type-functions"></path><path d="M94.70357946141186,-172.7432546792958A197,197,0,0,1,96.24647911509983,-171.88838022957412L83.35189593848487,-148.85970389417005A170.6070045455344,170.6070045455344,0,0,0,82.01570564290088,-149.60004688467527Z" fill-rule="evenodd" style="fill: #DB3F29; stroke: #fff; opacity: 1;" id="p-type-functions"></path><path d="M96.24647911509983,-171.88838022957412A197,197,0,0,1,97.78166260885938,-171.01972534607577L84.6814038435512,-148.10742669793908A170.6070045455344,170.6070045455344,0,0,0,83.35189593848487,-148.85970389417005Z" fill-rule="evenodd" style="fill: #DB3F29; stroke: #fff; opacity: 1;" id="p-type-functions"></path><path d="M97.78166260885938,-171.01972534607577A197,197,0,0,1,99.30900686575866,-170.137359669582L86.00412277035022,-147.34327560666802A170.6070045455344,170.6070045455344,0,0,0,84.6814038435512,-148.10742669793908Z" fill-rule="evenodd" style="fill: #DB3F29; stroke: #fff; opacity: 1;" id="p-type-functions"></path><path d="M99.30900686575866,-170.137359669582A197,197,0,0,1,100.82838943734379,-169.24135394007973L87.31994667541028,-146.56731188298264A170.6070045455344,170.6070045455344,0,0,0,86.00412277035022,-147.34327560666802Z" fill-rule="evenodd" style="fill: #DB3F29; stroke: #fff; opacity: 1;" id="p-type-functions"></path><path d="M100.82838943734379,-169.24135394007973A197,197,0,0,1,102.33968851345583,-168.33177999109031L88.62877006803926,-145.77959773653728A170.6070045455344,170.6070045455344,0,0,0,87.31994667541028,-146.56731188298264Z" fill-rule="evenodd" style="fill: #DB3F29; stroke: #fff; opacity: 1;" id="p-type-functions"></path><path d="M102.33968851345583,-168.33177999109031A197,197,0,0,1,103.8427829319965,-167.4087107439104L89.93048801878207,-144.9801963190273A170.6070045455344,170.6070045455344,0,0,0,88.62877006803926,-145.77959773653728Z" fill-rule="evenodd" style="fill: #DB3F29; stroke: #fff; opacity: 1;" id="p-type-functions"></path><path d="M103.8427829319965,-167.4087107439104A197,197,0,0,1,105.33755218864155,-166.47222020176582L91.22499616783269,-144.16917171912624A170.6070045455344,170.6070045455344,0,0,0,89.93048801878207,-144.9801963190273Z" fill-rule="evenodd" style="fill: #DB3F29; stroke: #fff; opacity: 1;" id="p-type-functions"></path><path d="M105.33755218864155,-166.47222020176582A197,197,0,0,1,106.82387644650198,-165.52238344387894L92.51219073340086,-143.34658895734793A170.6070045455344,170.6070045455344,0,0,0,91.22499616783269,-144.16917171912624Z" fill-rule="evenodd" style="fill: #DB3F29; stroke: #fff; opacity: 1;" id="p-type-functions"></path><path d="M106.82387644650198,-165.52238344387894A197,197,0,0,1,108.30163654573121,-164.559276619449L93.79196852003238,-142.51251398083346A170.6070045455344,170.6070045455344,0,0,0,92.51219073340086,-143.34658895734793Z" fill-rule="evenodd" style="fill: #DB3F29; stroke: #fff; opacity: 1;" id="p-type-functions"></path><path d="M108.30163654573121,-164.559276619449A197,197,0,0,1,109.77071401307843,-163.58297694154777L95.06422692688238,-141.6670136580644A170.6070045455344,170.6070045455344,0,0,0,93.79196852003238,-142.51251398083346Z" fill-rule="evenodd" style="fill: #DB3F29; stroke: #fff; opacity: 1;" id="p-type-functions"></path><path d="M109.77071401307843,-163.58297694154777A197,197,0,0,1,111.2309910713866,-162.59356268092876L96.32886395594088,-140.81015577350178A170.6070045455344,170.6070045455344,0,0,0,95.06422692688238,-141.6670136580644Z" fill-rule="evenodd" style="fill: #DB3F29; stroke: #fff; opacity: 1;" id="p-type-functions"></path><path d="M111.2309910713866,-162.59356268092876A197,197,0,0,1,112.68235064903479,-161.5911131597526L97.58577822021005,-139.94200902215167A170.6070045455344,170.6070045455344,0,0,0,96.32886395594088,-140.81015577350178Z" fill-rule="evenodd" style="fill: #DB3F29; stroke: #fff; opacity: 1;" id="p-type-functions"></path><path d="M112.68235064903479,-161.5911131597526A197,197,0,0,1,114.12467638932381,-160.57570874522744L98.83486895183253,-139.06264300405803A170.6070045455344,170.6070045455344,0,0,0,97.58577822021005,-139.94200902215167Z" fill-rule="evenodd" style="fill: #DB3F29; stroke: #fff; opacity: 1;" id="p-type-functions"></path><path d="M114.12467638932381,-160.57570874522744A197,197,0,0,1,115.55785265980474,-159.54743084316607L100.07603601017007,-138.1721282187227A170.6070045455344,170.6070045455344,0,0,0,98.83486895183253,-139.06264300405803Z" fill-rule="evenodd" style="fill: #DB3F29; stroke: #fff; opacity: 1;" id="p-type-functions"></path><path d="M115.55785265980474,-159.54743084316607A197,197,0,0,1,116.98176456154924,-158.5063618914593L101.30917988983182,-137.27053605945338A170.6070045455344,170.6070045455344,0,0,0,100.07603601017007,-138.1721282187227Z" fill-rule="evenodd" style="fill: #DB3F29; stroke: #fff; opacity: 1;" id="p-type-functions"></path><path d="M116.98176456154924,-158.5063618914593A197,197,0,0,1,118.39629793836104,-157.4525853534671L102.53420172865182,-136.35793880764012A170.6070045455344,170.6070045455344,0,0,0,101.30917988983182,-137.27053605945338Z" fill-rule="evenodd" style="fill: #DB3F29; stroke: #fff; opacity: 1;" id="p-type-functions"></path><path d="M118.39629793836104,-157.4525853534671A197,197,0,0,1,119.80133938592802,-156.3861857113271L103.75100331561488,-135.43440962696025A170.6070045455344,170.6070045455344,0,0,0,102.53420172865182,-136.35793880764012Z" fill-rule="evenodd" style="fill: #DB3F29; stroke: #fff; opacity: 1;" id="p-type-functions"></path><path d="M119.80133938592802,-156.3861857113271A197,197,0,0,1,121.19677626091388,-155.30724845918166L104.95948709873021,-134.50002255751295A170.6070045455344,170.6070045455344,0,0,0,103.75100331561488,-135.43440962696025Z" fill-rule="evenodd" style="fill: #DB3F29; stroke: #fff; opacity: 1;" id="p-type-functions"></path><path d="M121.19677626091388,-155.30724845918166A197,197,0,0,1,122.5824966899888,-154.2158600963237L106.15955619285216,-133.5548525098832A170.6070045455344,170.6070045455344,0,0,0,104.95948709873021,-134.50002255751295Z" fill-rule="evenodd" style="fill: #DB3F29; stroke: #fff; opacity: 1;" id="p-type-functions"></path><path d="M122.5824966899888,-154.2158600963237A197,197,0,0,1,123.95838957879859,-153.112108120262L107.3511143874478,-132.59897525913652A170.6070045455344,170.6070045455344,0,0,0,106.15955619285216,-133.5548525098832Z" fill-rule="evenodd" style="fill: #DB3F29; stroke: #fff; opacity: 1;" id="p-type-functions"></path><path d="M123.95838957879859,-153.112108120262A197,197,0,0,1,125.32434462087099,-151.99608101970645L108.53406615430994,-131.63246743874353A170.6070045455344,170.6070045455344,0,0,0,107.3511143874478,-132.59897525913652Z" fill-rule="evenodd" style="fill: #DB3F29; stroke: #fff; opacity: 1;" id="p-type-functions"></path><path d="M125.32434462087099,-151.99608101970645A197,197,0,0,1,126.68025230645918,-150.86786826747382L109.70831665521588,-130.6554065344365A170.6070045455344,170.6070045455344,0,0,0,108.53406615430994,-131.63246743874353Z" fill-rule="evenodd" style="fill: #DB3F29; stroke: #fff; opacity: 1;" id="p-type-functions"></path><path d="M126.68025230645918,-150.86786826747382A197,197,0,0,1,128.02600393132127,-149.72756031331477L110.87377174953063,-129.6678708779973A170.6070045455344,170.6070045455344,0,0,0,109.70831665521588,-130.6554065344365Z" fill-rule="evenodd" style="fill: #DB3F29; stroke: #fff; opacity: 1;" id="p-type-functions"></path><path d="M128.02600393132127,-149.72756031331477A197,197,0,0,1,129.3614916054351,-148.57524857666212L112.03033800175422,-128.66993964097716A170.6070045455344,170.6070045455344,0,0,0,110.87377174953063,-129.6678708779973Z" fill-rule="evenodd" style="fill: #DB3F29; stroke: #fff; opacity: 1;" id="p-type-functions"></path><path d="M129.3614916054351,-148.57524857666212A197,197,0,0,1,130.68660826164802,-147.41102543930205L113.17792268901249,-127.6616928283497A170.6070045455344,170.6070045455344,0,0,0,112.03033800175422,-128.66993964097716Z" fill-rule="evenodd" style="fill: #DB3F29; stroke: #fff; opacity: 1;" id="p-type-functions"></path><path d="M130.68660826164802,-147.41102543930205A197,197,0,0,1,132.00124766426038,-146.23498423796747L114.31643380849079,-126.64321127209679A170.6070045455344,170.6070045455344,0,0,0,113.17792268901249,-127.6616928283497Z" fill-rule="evenodd" style="fill: #DB3F29; stroke: #fff; opacity: 1;" id="p-type-functions"></path><path d="M132.00124766426038,-146.23498423796747A197,197,0,0,1,133.3053044175427,-145.04721925685539L115.44578008480993,-125.61457662472819A170.6070045455344,170.6070045455344,0,0,0,114.31643380849079,-126.64321127209679Z" fill-rule="evenodd" style="fill: #DB3F29; stroke: #fff; opacity: 1;" id="p-type-functions"></path><path d="M133.3053044175427,-145.04721925685539A197,197,0,0,1,134.5986739741852,-143.8478257200678L116.56587097734375,-124.57587135273528A170.6070045455344,170.6070045455344,0,0,0,115.44578008480993,-125.61457662472819Z" fill-rule="evenodd" style="fill: #DB3F29; stroke: #fff; opacity: 1;" id="p-type-functions"></path><path d="M134.5986739741852,-143.8478257200678A197,197,0,0,1,135.88125264367957,-142.63689978397778L117.67661668747792,-123.52717872997987A170.6070045455344,170.6070045455344,0,0,0,116.56587097734375,-124.57587135273528Z" fill-rule="evenodd" style="fill: #DB3F29; stroke: #fff; opacity: 1;" id="p-type-functions"></path><path d="M135.88125264367957,-142.63689978397778A197,197,0,0,1,137.15293760063182,-141.41453852952034L118.77792816580909,-122.46858283101791A170.6070045455344,170.6070045455344,0,0,0,117.67661668747792,-123.52717872997987Z" fill-rule="evenodd" style="fill: #DB3F29; stroke: #fff; opacity: 1;" id="p-type-functions"></path><path d="M137.15293760063182,-141.41453852952034A197,197,0,0,1,138.41362689300593,-140.18083995440944L119.86971711928409,-121.40016852435919A170.6070045455344,170.6070045455344,0,0,0,118.77792816580909,-122.46858283101791Z" fill-rule="evenodd" style="fill: #DB3F29; stroke: #fff; opacity: 1;" id="p-type-functions"></path><path d="M138.41362689300593,-140.18083995440944A197,197,0,0,1,139.6632194502974,-138.93590296528134L120.95189601827845,-120.32202146566337A170.6070045455344,170.6070045455344,0,0,0,119.86971711928409,-121.40016852435919Z" fill-rule="evenodd" style="fill: #DB3F29; stroke: #fff; opacity: 1;" id="p-type-functions"></path><path d="M139.6632194502974,-138.93590296528134A197,197,0,0,1,140.90161509163613,-137.67982736976546L122.02437810361373,-119.23422809087293A170.6070045455344,170.6070045455344,0,0,0,120.95189601827845,-120.32202146566337Z" fill-rule="evenodd" style="fill: #DB3F29; stroke: #fff; opacity: 1;" id="p-type-functions"></path><path d="M140.90161509163613,-137.67982736976546A197,197,0,0,1,142.12871453381814,-136.4127138684823L123.08707739351306,-118.13687560928349A170.6070045455344,170.6070045455344,0,0,0,122.02437810361373,-119.23422809087293Z" fill-rule="evenodd" style="fill: #DB3F29; stroke: #fff; opacity: 1;" id="p-type-functions"></path><path d="M142.12871453381814,-136.4127138684823A197,197,0,0,1,143.34441939926504,-135.13466404697058L124.13990869049442,-117.03005199655217A170.6070045455344,170.6070045455344,0,0,0,123.08707739351306,-118.13687560928349Z" fill-rule="evenodd" style="fill: #DB3F29; stroke: #fff; opacity: 1;" id="p-type-functions"></path><path d="M143.34441939926504,-135.13466404697058A197,197,0,0,1,144.54863222391108,-133.84578036754274L125.18278758820091,-115.9138459876445A170.6070045455344,170.6070045455344,0,0,0,124.13990869049442,-117.03005199655217Z" fill-rule="evenodd" style="fill: #DB3F29; stroke: #fff; opacity: 1;" id="p-type-functions"></path><path d="M144.54863222391108,-133.84578036754274A197,197,0,0,1,145.74125646501696,-132.54616616107066L126.21563047816772,-114.78834706972052A170.6070045455344,170.6070045455344,0,0,0,125.18278758820091,-115.9138459876445Z" fill-rule="evenodd" style="fill: #DB3F29; stroke: #fff; opacity: 1;" id="p-type-functions"></path><path d="M145.74125646501696,-132.54616616107066A197,197,0,0,1,146.92219650890968,-131.23592561870143L127.23835455652512,-113.65364547496046A170.6070045455344,170.6070045455344,0,0,0,126.21563047816772,-114.78834706972052Z" fill-rule="evenodd" style="fill: #DB3F29; stroke: #fff; opacity: 1;" id="p-type-functions"></path><path d="M146.92219650890968,-131.23592561870143A197,197,0,0,1,148.09135767864805,-129.91516378350423L128.2508778306369,-112.50983217333072A170.6070045455344,170.6070045455344,0,0,0,127.23835455652512,-113.65364547496046Z" fill-rule="evenodd" style="fill: #DB3F29; stroke: #fff; opacity: 1;" id="p-type-functions"></path><path d="M148.09135767864805,-129.91516378350423A197,197,0,0,1,149.24864624161296,-128.58398654204913L129.2531191256737,-111.3569988652909A170.6070045455344,170.6070045455344,0,0,0,128.2508778306369,-112.50983217333072Z" fill-rule="evenodd" style="fill: #DB3F29; stroke: #fff; opacity: 1;" id="p-type-functions"></path><path d="M149.24864624161296,-128.58398654204913A197,197,0,0,1,150.39396941702202,-127.24250061591782L130.244998091121,-110.19523797444191A170.6070045455344,170.6070045455344,0,0,0,129.2531191256737,-111.3569988652909Z" fill-rule="evenodd" style="fill: #DB3F29; stroke: #fff; opacity: 1;" id="p-type-functions"></path><path d="M195.70545608710896,22.547160746680937A197,197,0,0,1,190.2550196613031,51.107998333696926L164.76568022419633,44.2608248935543A170.6070045455344,170.6070045455344,0,0,0,169.48589663065624,19.526413989837003Z" fill-rule="evenodd" style="fill: #414552; stroke: #fff; opacity: 1;" id="p-type-ether"></path><path d="M190.2550196613031,51.107998333696926A197,197,0,0,1,184.92346743487758,67.91399849708289L160.14842055450833,58.81524797105196A170.6070045455344,170.6070045455344,0,0,0,164.76568022419633,44.2608248935543Z" fill-rule="evenodd" style="fill: #414552; stroke: #fff; opacity: 1;" id="p-type-ether"></path><path d="M184.92346743487758,67.91399849708289A197,197,0,0,1,181.1700221841145,77.37197853103835L156.89784161563347,67.0060989489434A170.6070045455344,170.6070045455344,0,0,0,160.14842055450833,58.81524797105196Z" fill-rule="evenodd" style="fill: #414552; stroke: #fff; opacity: 1;" id="p-type-ether"></path><path d="M181.1700221841145,77.37197853103835A197,197,0,0,1,177.52653204880016,85.40099776188995L153.74248660001325,73.95943357033468A170.6070045455344,170.6070045455344,0,0,0,156.89784161563347,67.0060989489434Z" fill-rule="evenodd" style="fill: #414552; stroke: #fff; opacity: 1;" id="p-type-ether"></path><path d="M177.52653204880016,85.40099776188995A197,197,0,0,1,173.78274643635922,92.78230995742715L150.5002731533167,80.35183744493378A170.6070045455344,170.6070045455344,0,0,0,153.74248660001325,73.95943357033468Z" fill-rule="evenodd" style="fill: #414552; stroke: #fff; opacity: 1;" id="p-type-ether"></path><path d="M173.78274643635922,92.78230995742715A197,197,0,0,1,170.5876820659938,98.5334599379897L147.7332662418537,85.33247942907533A170.6070045455344,170.6070045455344,0,0,0,150.5002731533167,80.35183744493378Z" fill-rule="evenodd" style="fill: #414552; stroke: #fff; opacity: 1;" id="p-type-ether"></path><path d="M170.5876820659938,98.5334599379897A197,197,0,0,1,167.58459224015616,103.55870047321274L145.13251416283174,89.6844653927058A170.6070045455344,170.6070045455344,0,0,0,147.7332662418537,85.33247942907533Z" fill-rule="evenodd" style="fill: #414552; stroke: #fff; opacity: 1;" id="p-type-ether"></path><path d="M167.58459224015616,103.55870047321274A197,197,0,0,1,164.43523782097324,108.48987308850523L142.40509323029855,93.95498614799524A170.6070045455344,170.6070045455344,0,0,0,145.13251416283174,89.6844653927058Z" fill-rule="evenodd" style="fill: #414552; stroke: #fff; opacity: 1;" id="p-type-ether"></path><path d="M164.43523782097324,108.48987308850523A197,197,0,0,1,162.4661730686569,111.41697630264981L140.69983313309606,96.48993189094354A170.6070045455344,170.6070045455344,0,0,0,142.40509323029855,93.95498614799524Z" fill-rule="evenodd" style="fill: #414552; stroke: #fff; opacity: 1;" id="p-type-ether"></path><path d="M162.4661730686569,111.41697630264981A197,197,0,0,1,160.47145727725626,114.27121859555761L138.97235858441314,98.96177822515763A170.6070045455344,170.6070045455344,0,0,0,140.69983313309606,96.48993189094354Z" fill-rule="evenodd" style="fill: #414552; stroke: #fff; opacity: 1;" id="p-type-ether"></path><path d="M160.47145727725626,114.27121859555761A197,197,0,0,1,159.60677831308934,115.4758689792649L138.22352463532658,100.00503606012683A170.6070045455344,170.6070045455344,0,0,0,138.97235858441314,98.96177822515763Z" fill-rule="evenodd" style="fill: #414552; stroke: #fff; opacity: 1;" id="p-type-ether"></path><path d="M75.83933005271815,181.81692995195712A197,197,0,0,1,74.20835090764051,182.48868637690526L64.26631705896668,158.03983830565116A170.6070045455344,170.6070045455344,0,0,0,65.67878643164654,157.45808017649065Z" fill-rule="evenodd" style="fill: #1DC690; stroke: #fff; opacity: 1;" id="p-type-logs"></path><path d="M74.20835090764051,182.48868637690526A197,197,0,0,1,72.5714224176217,183.1458125327552L62.84869540243189,158.60892625010842A170.6070045455344,170.6070045455344,0,0,0,64.26631705896668,158.03983830565116Z" fill-rule="evenodd" style="fill: #1DC690; stroke: #fff; opacity: 1;" id="p-type-logs"></path><path d="M72.5714224176217,183.1458125327552A197,197,0,0,1,70.92867581657426,183.78825573715886L61.42603511394427,159.16529838561067A170.6070045455344,170.6070045455344,0,0,0,62.84869540243189,158.60892625010842Z" fill-rule="evenodd" style="fill: #1DC690; stroke: #fff; opacity: 1;" id="p-type-logs"></path><path d="M70.92867581657426,183.78825573715886A197,197,0,0,1,69.2802428048535,184.4159644849126L59.998450249357205,159.70891010734312A170.6070045455344,170.6070045455344,0,0,0,61.42603511394427,159.16529838561067Z" fill-rule="evenodd" style="fill: #1DC690; stroke: #fff; opacity: 1;" id="p-type-logs"></path><path d="M69.2802428048535,184.4159644849126A197,197,0,0,1,67.62625553869894,185.02888845208628L58.56605525933138,160.23971783350387A170.6070045455344,170.6070045455344,0,0,0,59.998450249357205,159.70891010734312Z" fill-rule="evenodd" style="fill: #1DC690; stroke: #fff; opacity: 1;" id="p-type-logs"></path><path d="M67.62625553869894,185.02888845208628A197,197,0,0,1,65.96684661963933,185.62697850005796L57.128964980159274,160.757679008798A170.6070045455344,170.6070045455344,0,0,0,58.56605525933138,160.23971783350387Z" fill-rule="evenodd" style="fill: #1DC690; stroke: #fff; opacity: 1;" id="p-type-logs"></path><path d="M65.96684661963933,185.62697850005796A197,197,0,0,1,64.30214908386179,186.21018667945322L55.687294624558575,161.26275210784917A170.6070045455344,170.6070045455344,0,0,0,57.128964980159274,160.757679008798Z" fill-rule="evenodd" style="fill: #1DC690; stroke: #fff; opacity: 1;" id="p-type-logs"></path><path d="M64.30214908386179,186.21018667945322A197,197,0,0,1,62.63229639154623,186.77846623398935L54.24115977243546,161.75489663852878A170.6070045455344,170.6070045455344,0,0,0,55.687294624558575,161.26275210784917Z" fill-rule="evenodd" style="fill: #1DC690; stroke: #fff; opacity: 1;" id="p-type-logs"></path><path d="M62.63229639154623,186.77846623398935A197,197,0,0,1,60.95742241616572,187.33177160422397L52.79067636161851,162.2340731452023A170.6070045455344,170.6070045455344,0,0,0,54.24115977243546,161.75489663852878Z" fill-rule="evenodd" style="fill: #1DC690; stroke: #fff; opacity: 1;" id="p-type-logs"></path><path d="M60.95742241616572,187.33177160422397A197,197,0,0,1,59.27766143375378,187.87005843120733L51.33596067856386,162.7002432118924A170.6070045455344,170.6070045455344,0,0,0,52.79067636161851,162.2340731452023Z" fill-rule="evenodd" style="fill: #1DC690; stroke: #fff; opacity: 1;" id="p-type-logs"></path><path d="M59.27766143375378,187.87005843120733A197,197,0,0,1,57.593148112139296,188.3932835600388L49.877129349032415,163.15336946535885A170.6070045455344,170.6070045455344,0,0,0,51.33596067856386,162.7002432118924Z" fill-rule="evenodd" style="fill: #1DC690; stroke: #fff; opacity: 1;" id="p-type-logs"></path><path d="M57.593148112139296,188.3932835600388A197,197,0,0,1,55.90401750015015,188.90140504332652L48.41429932873985,163.59341557809464A170.6070045455344,170.6070045455344,0,0,0,49.877129349032415,163.15336946535885Z" fill-rule="evenodd" style="fill: #1DC690; stroke: #fff; opacity: 1;" id="p-type-logs"></path><path d="M55.90401750015015,188.90140504332652A197,197,0,0,1,54.21040501678619,189.39438214455043L46.94758789398022,164.02034627123857A170.6070045455344,170.6070045455344,0,0,0,48.41429932873985,163.59341557809464Z" fill-rule="evenodd" style="fill: #1DC690; stroke: #fff; opacity: 1;" id="p-type-logs"></path><path d="M54.21040501678619,189.39438214455043A197,197,0,0,1,52.51244644036263,189.8721753413281L45.47711263222375,164.4341273174034A170.6070045455344,170.6070045455344,0,0,0,46.94758789398022,164.02034627123857Z" fill-rule="evenodd" style="fill: #1DC690; stroke: #fff; opacity: 1;" id="p-type-logs"></path><path d="M52.51244644036263,189.8721753413281A197,197,0,0,1,50.81027789762456,190.33474632858332L44.00299143268984,164.83472554342006A170.6070045455344,170.6070045455344,0,0,0,45.47711263222375,164.4341273174034Z" fill-rule="evenodd" style="fill: #1DC690; stroke: #fff; opacity: 1;" id="p-type-logs"></path><path d="M50.81027789762456,190.33474632858332A197,197,0,0,1,49.10403585283351,190.78205802161702L42.525342476895695,165.22210883299707A170.6070045455344,170.6070045455344,0,0,0,44.00299143268984,164.83472554342006Z" fill-rule="evenodd" style="fill: #1DC690; stroke: #fff; opacity: 1;" id="p-type-logs"></path><path d="M49.10403585283351,190.78205802161702A197,197,0,0,1,47.393857096827126,191.2140745590803L41.04428422918169,165.59624612929528A170.6070045455344,170.6070045455344,0,0,0,42.525342476895695,165.22210883299707Z" fill-rule="evenodd" style="fill: #1DC690; stroke: #fff; opacity: 1;" id="p-type-logs"></path><path d="M47.393857096827126,191.2140745590803A197,197,0,0,1,45.67987873605238,191.63076130584972L39.55993542721395,165.95710743741787A170.6070045455344,170.6070045455344,0,0,0,41.04428422918169,165.59624612929528Z" fill-rule="evenodd" style="fill: #1DC690; stroke: #fff; opacity: 1;" id="p-type-logs"></path><path d="M45.67987873605238,191.63076130584972A197,197,0,0,1,43.96223818157374,192.03208485580367L38.07241507246506,166.30466382681496A170.6070045455344,170.6070045455344,0,0,0,39.55993542721395,165.95710743741787Z" fill-rule="evenodd" style="fill: #1DC690; stroke: #fff; opacity: 1;" id="p-type-logs"></path><path d="M43.96223818157374,192.03208485580367A197,197,0,0,1,42.24107313805675,192.41801303450086L36.5818424206736,166.63888743360297A170.6070045455344,170.6070045455344,0,0,0,38.07241507246506,166.30466382681496Z" fill-rule="evenodd" style="fill: #1DC690; stroke: #fff; opacity: 1;" id="p-type-logs"></path><path d="M42.24107313805675,192.41801303450086A197,197,0,0,1,40.51652159272819,192.7885149017596L35.08833697228336,166.95975146279864A170.6070045455344,170.6070045455344,0,0,0,36.5818424206736,166.63888743360297Z" fill-rule="evenodd" style="fill: #1DC690; stroke: #fff; opacity: 1;" id="p-type-logs"></path><path d="M40.51652159272819,192.7885149017596A197,197,0,0,1,38.788721804313475,193.14356075413846L33.59201846286284,167.26723019046702A170.6070045455344,170.6070045455344,0,0,0,35.08833697228336,166.95975146279864Z" fill-rule="evenodd" style="fill: #1DC690; stroke: #fff; opacity: 1;" id="p-type-logs"></path><path d="M38.788721804313475,193.14356075413846A197,197,0,0,1,37.05781229195237,193.48312212731742L32.09300685350598,167.56129896578392A170.6070045455344,170.6070045455344,0,0,0,33.59201846286284,167.26723019046702Z" fill-rule="evenodd" style="fill: #1DC690; stroke: #fff; opacity: 1;" id="p-type-logs"></path><path d="M37.05781229195237,193.48312212731742A197,197,0,0,1,35.32393182409376,193.80717179837998L30.59142232121478,167.84193421301208A170.6070045455344,170.6070045455344,0,0,0,32.09300685350598,167.56129896578392Z" fill-rule="evenodd" style="fill: #1DC690; stroke: #fff; opacity: 1;" id="p-type-logs"></path><path d="M35.32393182409376,193.80717179837998A197,197,0,0,1,33.58721940737052,194.11568378799572L29.087385249264585,168.1091134333914A170.6070045455344,170.6070045455344,0,0,0,30.59142232121478,167.84193421301208Z" fill-rule="evenodd" style="fill: #1DC690; stroke: #fff; opacity: 1;" id="p-type-logs"></path><path d="M33.58721940737052,194.11568378799572A197,197,0,0,1,31.847814275455193,194.408633362503L27.581016217552893,168.36281520694254A170.6070045455344,170.6070045455344,0,0,0,29.087385249264585,168.1091134333914Z" fill-rule="evenodd" style="fill: #1DC690; stroke: #fff; opacity: 1;" id="p-type-logs"></path><path d="M31.847814275455193,194.408633362503A197,197,0,0,1,30.105855877897536,194.68599703589177L26.072435992932327,168.60301919418418A170.6070045455344,170.6070045455344,0,0,0,27.581016217552893,168.36281520694254Z" fill-rule="evenodd" style="fill: #1DC690; stroke: #fff; opacity: 1;" id="p-type-logs"></path><path d="M30.105855877897536,194.68599703589177A197,197,0,0,1,28.36148386894473,194.94775257168672L24.561765519528702,168.82970613776382A170.6070045455344,170.6070045455344,0,0,0,26.072435992932327,168.60301919418418Z" fill-rule="evenodd" style="fill: #1DC690; stroke: #fff; opacity: 1;" id="p-type-logs"></path><path d="M28.36148386894473,194.94775257168672A197,197,0,0,1,26.614838096345167,195.1938789847298L23.049125909044783,169.04285786400146A170.6070045455344,170.6070045455344,0,0,0,24.561765519528702,168.82970613776382Z" fill-rule="evenodd" style="fill: #1DC690; stroke: #fff; opacity: 1;" id="p-type-logs"></path><path d="M26.614838096345167,195.1938789847298A197,197,0,0,1,24.866058590136774,195.4243565428626L21.53463843105071,169.2424572843467A170.6070045455344,170.6070045455344,0,0,0,23.049125909044783,169.04285786400146Z" fill-rule="evenodd" style="fill: #1DC690; stroke: #fff; opacity: 1;" id="p-type-logs"></path><path d="M24.866058590136774,195.4243565428626A197,197,0,0,1,23.115285551420648,195.63916676850852L20.018424503261667,169.42848839674872A170.6070045455344,170.6070045455344,0,0,0,21.53463843105071,169.2424572843467Z" fill-rule="evenodd" style="fill: #1DC690; stroke: #fff; opacity: 1;" id="p-type-logs"></path><path d="M23.115285551420648,195.63916676850852A197,197,0,0,1,21.36265934112104,195.83829244015382L18.500605681803762,169.6009362869392A170.6070045455344,170.6070045455344,0,0,0,20.018424503261667,169.42848839674872Z" fill-rule="evenodd" style="fill: #1DC690; stroke: #fff; opacity: 1;" id="p-type-logs"></path><path d="M21.36265934112104,195.83829244015382A197,197,0,0,1,19.608320468732522,196.0217175937286L16.981303651468757,169.759787129628A170.6070045455344,170.6070045455344,0,0,0,18.500605681803762,169.6009362869392Z" fill-rule="evenodd" style="fill: #1DC690; stroke: #fff; opacity: 1;" id="p-type-logs"></path><path d="M19.608320468732522,196.0217175937286A197,197,0,0,1,17.852409581055177,196.18942752388634L15.46064021595849,169.90502818961153A170.6070045455344,170.6070045455344,0,0,0,16.981303651468757,169.759787129628Z" fill-rule="evenodd" style="fill: #1DC690; stroke: #fff; opacity: 1;" id="p-type-logs"></path><path d="M17.852409581055177,196.18942752388634A197,197,0,0,1,16.095067450918876,196.3414087851831L13.938737288119794,170.0366478227937A170.6070045455344,170.6070045455344,0,0,0,15.46064021595849,169.90502818961153Z" fill-rule="evenodd" style="fill: #1DC690; stroke: #fff; opacity: 1;" id="p-type-logs"></path><path d="M16.095067450918876,196.3414087851831A197,197,0,0,1,14.33643496589737,196.4776491931553L12.415716880170613,170.15463547711957A170.6070045455344,170.6070045455344,0,0,0,13.938737288119794,170.0366478227937Z" fill-rule="evenodd" style="fill: #1DC690; stroke: #fff; opacity: 1;" id="p-type-logs"></path><path d="M14.33643496589737,196.4776491931553A197,197,0,0,1,12.576653117013233,196.59813782529662L10.891701093918204,170.25898169342122A170.6070045455344,170.6070045455344,0,0,0,12.415716880170613,170.15463547711957Z" fill-rule="evenodd" style="fill: #1DC690; stroke: #fff; opacity: 1;" id="p-type-logs"></path><path d="M12.576653117013233,196.59813782529662A197,197,0,0,1,10.8158629874345,196.70286502193366L9.366812110970127,170.34967810617601A170.6070045455344,170.6070045455344,0,0,0,10.891701093918204,170.25898169342122Z" fill-rule="evenodd" style="fill: #1DC690; stroke: #fff; opacity: 1;" id="p-type-logs"></path><path d="M10.8158629874345,196.70286502193366A197,197,0,0,1,9.054205741163889,196.7918223870003L7.841172182938839,170.42671744417748A170.6070045455344,170.6070045455344,0,0,0,9.366812110970127,170.34967810617601Z" fill-rule="evenodd" style="fill: #1DC690; stroke: #fff; opacity: 1;" id="p-type-logs"></path><path d="M9.054205741163889,196.7918223870003A197,197,0,0,1,7.291822611721596,196.865002788711L6.314903621640695,170.49009353111808A170.6070045455344,170.6070045455344,0,0,0,7.841172182938839,170.42671744417748Z" fill-rule="evenodd" style="fill: #1DC690; stroke: #fff; opacity: 1;" id="p-type-logs"></path><path d="M7.291822611721596,196.865002788711A197,197,0,0,1,5.528854890822461,196.9224003601323L4.78812878929009,170.53980128608444A170.6070045455344,170.6070045455344,0,0,0,6.314903621640695,170.49009353111808Z" fill-rule="evenodd" style="fill: #1DC690; stroke: #fff; opacity: 1;" id="p-type-logs"></path><path d="M5.528854890822461,196.9224003601323A197,197,0,0,1,3.765443917048512,196.96401049965337L3.2609700886895956,170.57583672396473A170.6070045455344,170.6070045455344,0,0,0,4.78812878929009,170.53980128608444Z" fill-rule="evenodd" style="fill: #1DC690; stroke: #fff; opacity: 1;" id="p-type-logs"></path><path d="M3.765443917048512,196.96401049965337A197,197,0,0,1,2.001731064517724,196.98982987135489L1.7335499534168162,170.598196955768A170.6070045455344,170.6070045455344,0,0,0,3.2609700886895956,170.57583672396473Z" fill-rule="evenodd" style="fill: #1DC690; stroke: #fff; opacity: 1;" id="p-type-logs"></path><path d="M2.001731064517724,196.98982987135489A197,197,0,0,1,0.23785773154994228,196.99985640527646L0.20599083800878937,170.60688018885597A170.6070045455344,170.6070045455344,0,0,0,1.7335499534168162,170.598196955768Z" fill-rule="evenodd" style="fill: #1DC690; stroke: #fff; opacity: 1;" id="p-type-logs"></path><path d="M0.23785773154994228,196.99985640527646A197,197,0,0,1,-1.526034670669138,196.99408929758252L-1.321584791855293,170.60188572708668A170.6070045455344,170.6070045455344,0,0,0,0.20599083800878937,170.60688018885597Z" fill-rule="evenodd" style="fill: #1DC690; stroke: #fff; opacity: 1;" id="p-type-logs"></path><path d="M-1.526034670669138,196.99408929758252A197,197,0,0,1,-3.289804729425024,196.97252901062691L-2.849054469172262,170.58321397087022A170.6070045455344,170.6070045455344,0,0,0,-1.321584791855293,170.60188572708668Z" fill-rule="evenodd" style="fill: #1DC690; stroke: #fff; opacity: 1;" id="p-type-logs"></path><path d="M-3.289804729425024,196.97252901062691A197,197,0,0,1,-5.0533110418116,196.93517727291564L-4.376295735433254,170.55086641713675A170.6070045455344,170.6070045455344,0,0,0,-2.849054469172262,170.58321397087022Z" fill-rule="evenodd" style="fill: #1DC690; stroke: #fff; opacity: 1;" id="p-type-logs"></path><path d="M-5.0533110418116,196.93517727291564A197,197,0,0,1,-6.8164122260675155,196.88203707896847L-5.903186150441305,170.5048456592165A170.6070045455344,170.6070045455344,0,0,0,-4.376295735433254,170.55086641713675Z" fill-rule="evenodd" style="fill: #1DC690; stroke: #fff; opacity: 1;" id="p-type-logs"></path><path d="M-6.8164122260675155,196.88203707896847A197,197,0,0,1,-8.578966932910875,196.8131126890788L-7.429603302127488,170.44515538663168A170.6070045455344,170.6070045455344,0,0,0,-5.903186150441305,170.5048456592165Z" fill-rule="evenodd" style="fill: #1DC690; stroke: #fff; opacity: 1;" id="p-type-logs"></path><path d="M-8.578966932910875,196.8131126890788A197,197,0,0,1,-10.340833856871335,196.72840962897195L-8.955424816364792,170.37180038480088A170.6070045455344,170.6070045455344,0,0,0,-7.429603302127488,170.44515538663168Z" fill-rule="evenodd" style="fill: #1DC690; stroke: #fff; opacity: 1;" id="p-type-logs"></path><path d="M-10.340833856871335,196.72840962897195A197,197,0,0,1,-12.101871747618668,196.62793468936246L-10.480528366778948,170.28478653465535A170.6070045455344,170.6070045455344,0,0,0,-8.955424816364792,170.37180038480088Z" fill-rule="evenodd" style="fill: #1DC690; stroke: #fff; opacity: 1;" id="p-type-logs"></path><path d="M-97.56307050339532,171.14452160074978A197,197,0,0,1,-99.09154091420295,170.26410813571027L-85.81579173184483,147.4530429982258A170.6070045455344,170.6070045455344,0,0,0,-84.49209752715258,148.21550342478392Z" fill-rule="evenodd" style="fill: #D7A449; stroke: #fff; opacity: 1;" id="p-type-tokenTransfers"></path><path d="M-99.09154091420295,170.26410813571027A197,197,0,0,1,-100.61206707412187,169.3700444561328L-87.13260601345341,146.67876113911072A170.6070045455344,170.6070045455344,0,0,0,-85.81579173184483,147.4530429982258Z" fill-rule="evenodd" style="fill: #D7A449; stroke: #fff; opacity: 1;" id="p-type-tokenTransfers"></path><path d="M-100.61206707412187,169.3700444561328A197,197,0,0,1,-102.12452708131072,168.46240223984293L-88.44243480188695,145.89271992225648A170.6070045455344,170.6070045455344,0,0,0,-87.13260601345341,146.67876113911072Z" fill-rule="evenodd" style="fill: #D7A449; stroke: #fff; opacity: 1;" id="p-type-tokenTransfers"></path><path d="M-102.12452708131072,168.46240223984293A197,197,0,0,1,-103.62879968059835,167.54125425326868L-89.74517308708688,145.0949823652383A170.6070045455344,170.6070045455344,0,0,0,-88.44243480188695,145.89271992225648Z" fill-rule="evenodd" style="fill: #D7A449; stroke: #fff; opacity: 1;" id="p-type-tokenTransfers"></path><path d="M-103.62879968059835,167.54125425326868A197,197,0,0,1,-105.12476427320485,166.6066743456069L-91.04071642744616,144.28561242333672A170.6070045455344,170.6070045455344,0,0,0,-89.74517308708688,145.0949823652383Z" fill-rule="evenodd" style="fill: #D7A449; stroke: #fff; opacity: 1;" id="p-type-tokenTransfers"></path><path d="M-105.12476427320485,166.6066743456069A197,197,0,0,1,-106.61230092641006,165.65873744290275L-92.32896095818235,143.46467498441015A170.6070045455344,170.6070045455344,0,0,0,-91.04071642744616,144.28561242333672Z" fill-rule="evenodd" style="fill: #D7A449; stroke: #fff; opacity: 1;" id="p-type-tokenTransfers"></path><path d="M-106.61230092641006,165.65873744290275A197,197,0,0,1,-108.09129038316873,164.69751954204258L-93.60980339966471,142.6322358636929A170.6070045455344,170.6070045455344,0,0,0,-92.32896095818235,143.46467498441015Z" fill-rule="evenodd" style="fill: #D7A449; stroke: #fff; opacity: 1;" id="p-type-tokenTransfers"></path><path d="M-108.09129038316873,164.69751954204258A197,197,0,0,1,-109.56161407167144,163.72309770466148L-94.88314106569409,141.78836179851854A170.6070045455344,170.6070045455344,0,0,0,-93.60980339966471,142.6322358636929Z" fill-rule="evenodd" style="fill: #D7A449; stroke: #fff; opacity: 1;" id="p-type-tokenTransfers"></path><path d="M-109.56161407167144,163.72309770466148A197,197,0,0,1,-111.02315411485056,162.73555005096503L-96.14887187173541,140.9331204429697A170.6070045455344,170.6070045455344,0,0,0,-94.88314106569409,141.78836179851854Z" fill-rule="evenodd" style="fill: #D7A449; stroke: #fff; opacity: 1;" id="p-type-tokenTransfers"></path><path d="M-111.02315411485056,162.73555005096503A197,197,0,0,1,-112.47579333983056,161.73495575346638L-97.40689434310184,140.06658036245403A170.6070045455344,170.6070045455344,0,0,0,-96.14887187173541,140.9331204429697Z" fill-rule="evenodd" style="fill: #D7A449; stroke: #fff; opacity: 1;" id="p-type-tokenTransfers"></path><path d="M-112.47579333983056,161.73495575346638A197,197,0,0,1,-113.91941528732194,160.7213950306389L-98.65710762309014,139.1888110282073A170.6070045455344,170.6070045455344,0,0,0,-97.40689434310184,140.06658036245403Z" fill-rule="evenodd" style="fill: #D7A449; stroke: #fff; opacity: 1;" id="p-type-tokenTransfers"></path><path d="M-113.91941528732194,160.7213950306389A197,197,0,0,1,-115.35390422095774,159.69494914048505L-99.8994114810664,138.29988281172396A170.6070045455344,170.6070045455344,0,0,0,-98.65710762309014,139.1888110282073Z" fill-rule="evenodd" style="fill: #D7A449; stroke: #fff; opacity: 1;" id="p-type-tokenTransfers"></path><path d="M-115.35390422095774,159.69494914048505A197,197,0,0,1,-116.77914513657232,158.6557003740218L-101.13370632050162,137.39986697911513A170.6070045455344,170.6070045455344,0,0,0,-99.8994114810664,138.29988281172396Z" fill-rule="evenodd" style="fill: #D7A449; stroke: #fff; opacity: 1;" id="p-type-tokenTransfers"></path><path d="M-116.77914513657232,158.6557003740218A197,197,0,0,1,-118.19502377142133,157.60373204868327L-102.35989318695648,136.4888356853954A170.6070045455344,170.6070045455344,0,0,0,-101.13370632050162,137.39986697911513Z" fill-rule="evenodd" style="fill: #D7A449; stroke: #fff; opacity: 1;" id="p-type-tokenTransfers"></path><path d="M-118.19502377142133,157.60373204868327A197,197,0,0,1,-119.6014266133421,156.53912850164122L-103.5778737760145,135.56686196869796A170.6070045455344,170.6070045455344,0,0,0,-102.35989318695648,136.4888356853954Z" fill-rule="evenodd" style="fill: #D7A449; stroke: #fff; opacity: 1;" id="p-type-tokenTransfers"></path><path d="M-119.6014266133421,156.53912850164122A197,197,0,0,1,-120.99824090985429,155.4619750830436L-104.78755044116333,134.63401974441916A170.6070045455344,170.6070045455344,0,0,0,-103.5778737760145,135.56686196869796Z" fill-rule="evenodd" style="fill: #D7A449; stroke: #fff; opacity: 1;" id="p-type-tokenTransfers"></path><path d="M-120.99824090985429,155.4619750830436A197,197,0,0,1,-122.38535467719905,154.3723581491719L-105.98882620162304,133.69038379929256A170.6070045455344,170.6070045455344,0,0,0,-104.78755044116333,134.63401974441916Z" fill-rule="evenodd" style="fill: #D7A449; stroke: #fff; opacity: 1;" id="p-type-tokenTransfers"></path><path d="M-122.38535467719905,154.3723581491719A197,197,0,0,1,-123.76265670931706,153.27036505551797L-107.18160475012117,132.73602978539324A170.6070045455344,170.6070045455344,0,0,0,-105.98882620162304,133.69038379929256Z" fill-rule="evenodd" style="fill: #D7A449; stroke: #fff; opacity: 1;" id="p-type-tokenTransfers"></path><path d="M-123.76265670931706,153.27036505551797A197,197,0,0,1,-125.13003658676391,152.15608414978064L-108.3657904606138,131.7710342140728A170.6070045455344,170.6070045455344,0,0,0,-107.18160475012117,132.73602978539324Z" fill-rule="evenodd" style="fill: #D7A449; stroke: #fff; opacity: 1;" id="p-type-tokenTransfers"></path><path d="M-125.13003658676391,152.15608414978064A197,197,0,0,1,-126.48738468556256,151.02960476478282L-109.54128839595194,130.79547444982524A170.6070045455344,170.6070045455344,0,0,0,-108.3657904606138,131.7710342140728Z" fill-rule="evenodd" style="fill: #D7A449; stroke: #fff; opacity: 1;" id="p-type-tokenTransfers"></path><path d="M-126.48738468556256,151.02960476478282A197,197,0,0,1,-127.83459218599197,149.89101721130965L-110.70800431549273,129.80942870408467A170.6070045455344,170.6070045455344,0,0,0,-109.54128839595194,130.79547444982524Z" fill-rule="evenodd" style="fill: #D7A449; stroke: #fff; opacity: 1;" id="p-type-tokenTransfers"></path><path d="M-127.83459218599197,149.89101721130965A197,197,0,0,1,-129.17155108131126,148.74041277086803L-111.86584468265482,128.81297602895503A170.6070045455344,170.6070045455344,0,0,0,-110.70800431549273,129.80942870408467Z" fill-rule="evenodd" style="fill: #D7A449; stroke: #fff; opacity: 1;" id="p-type-tokenTransfers"></path><path d="M-129.17155108131126,148.74041277086803A197,197,0,0,1,-130.4981541864187,147.57788368836873L-113.01471667241718,127.80619631087244A170.6070045455344,170.6070045455344,0,0,0,-111.86584468265482,128.81297602895503Z" fill-rule="evenodd" style="fill: #D7A449; stroke: #fff; opacity: 1;" id="p-type-tokenTransfers"></path><path d="M-130.4981541864187,147.57788368836873A197,197,0,0,1,-131.8142951464449,146.40352316473098L-114.1545281787611,126.78917026420055A170.6070045455344,170.6070045455344,0,0,0,-113.01471667241718,127.80619631087244Z" fill-rule="evenodd" style="fill: #D7A449; stroke: #fff; opacity: 1;" id="p-type-tokenTransfers"></path><path d="M-131.8142951464449,146.40352316473098A197,197,0,0,1,-133.11986844527917,145.21742534941035L-115.28518782205423,125.76197942475967A170.6070045455344,170.6070045455344,0,0,0,-114.1545281787611,126.78917026420055Z" fill-rule="evenodd" style="fill: #D7A449; stroke: #fff; opacity: 1;" id="p-type-tokenTransfers"></path><path d="M-133.11986844527917,145.21742534941035A197,197,0,0,1,-134.41476941402908,144.0196853328509L-116.40660495637675,124.72470614328999A170.6070045455344,170.6070045455344,0,0,0,-115.28518782205423,125.76197942475967Z" fill-rule="evenodd" style="fill: #D7A449; stroke: #fff; opacity: 1;" id="p-type-tokenTransfers"></path><path d="M-134.41476941402908,144.0196853328509A197,197,0,0,1,-135.69889423941174,142.81039913886156L-117.51868967678838,123.67743357884942A170.6070045455344,170.6070045455344,0,0,0,-116.40660495637675,124.72470614328999Z" fill-rule="evenodd" style="fill: #D7A449; stroke: #fff; opacity: 1;" id="p-type-tokenTransfers"></path><path d="M-135.69889423941174,142.81039913886156A197,197,0,0,1,-136.97213997207655,141.58966371691778L-118.62135282653625,122.6202456921466A170.6070045455344,170.6070045455344,0,0,0,-117.51868967678838,123.67743357884942Z" fill-rule="evenodd" style="fill: #D7A449; stroke: #fff; opacity: 1;" id="p-type-tokenTransfers"></path><path d="M-136.97213997207655,141.58966371691778A197,197,0,0,1,-138.2344045348588,140.35757693438927L-119.71450600420253,121.55322723880987A170.6070045455344,170.6070045455344,0,0,0,-118.62135282653625,122.6202456921466Z" fill-rule="evenodd" style="fill: #D7A449; stroke: #fff; opacity: 1;" id="p-type-tokenTransfers"></path><path d="M-138.2344045348588,140.35757693438927A197,197,0,0,1,-139.4855867309633,139.1142375686936L-120.79806157079182,120.47646376259218A170.6070045455344,170.6070045455344,0,0,0,-119.71450600420253,121.55322723880987Z" fill-rule="evenodd" style="fill: #D7A449; stroke: #fff; opacity: 1;" id="p-type-tokenTransfers"></path><path d="M-139.4855867309633,139.1142375686936A197,197,0,0,1,-140.72558625207725,137.85974529937724L-121.87193265675705,119.39004158851303A170.6070045455344,170.6070045455344,0,0,0,-120.79806157079182,120.47646376259218Z" fill-rule="evenodd" style="fill: #D7A449; stroke: #fff; opacity: 1;" id="p-type-tokenTransfers"></path><path d="M-140.72558625207725,137.85974529937724A197,197,0,0,1,-141.95430368641232,136.59420070012425L-122.93603316896406,118.29404781593776A170.6070045455344,170.6070045455344,0,0,0,-121.87193265675705,119.39004158851303Z" fill-rule="evenodd" style="fill: #D7A449; stroke: #fff; opacity: 1;" id="p-type-tokenTransfers"></path><path d="M-141.95430368641232,136.59420070012425A197,197,0,0,1,-143.17164052667434,135.3177052306931L-123.99027779759363,117.18857031159462A170.6070045455344,170.6070045455344,0,0,0,-122.93603316896406,118.29404781593776Z" fill-rule="evenodd" style="fill: #D7A449; stroke: #fff; opacity: 1;" id="p-type-tokenTransfers"></path><path d="M-143.17164052667434,135.3177052306931A197,197,0,0,1,-144.37749917796077,134.03036122878257L-125.03458202298093,116.07369770253058A170.6070045455344,170.6070045455344,0,0,0,-123.99027779759363,117.18857031159462Z" fill-rule="evenodd" style="fill: #D7A449; stroke: #fff; opacity: 1;" id="p-type-tokenTransfers"></path><path d="M-144.37749917796077,134.03036122878257A197,197,0,0,1,-145.57178296558502,132.7322719018273L-126.06886212239144,114.94951936900587A170.6070045455344,170.6070045455344,0,0,0,-125.03458202298093,116.07369770253058Z" fill-rule="evenodd" style="fill: #D7A449; stroke: #fff; opacity: 1;" id="p-type-tokenTransfers"></path><path d="M-145.57178296558502,132.7322719018273A197,197,0,0,1,-146.75439614282692,131.42354131872352L-127.09303517673315,113.81612543732838A170.6070045455344,170.6070045455344,0,0,0,-126.06886212239144,114.94951936900587Z" fill-rule="evenodd" style="fill: #D7A449; stroke: #fff; opacity: 1;" id="p-type-tokenTransfers"></path><path d="M-146.75439614282692,131.42354131872352A197,197,0,0,1,-147.92524389860878,130.10427440148578L-128.10701907720423,112.67360677262812A170.6070045455344,170.6070045455344,0,0,0,-127.09303517673315,113.81612543732838Z" fill-rule="evenodd" style="fill: #D7A449; stroke: #fff; opacity: 1;" id="p-type-tokenTransfers"></path><path d="M-147.92524389860878,130.10427440148578A197,197,0,0,1,-149.08423236509645,128.77457691683526L-129.11073253187573,111.52205497157252A170.6070045455344,170.6070045455344,0,0,0,-128.10701907720423,112.67360677262812Z" fill-rule="evenodd" style="fill: #D7A449; stroke: #fff; opacity: 1;" id="p-type-tokenTransfers"></path><path d="M-149.08423236509645,128.77457691683526A197,197,0,0,1,-150.2312686252249,127.43455546772043L-130.10409507220888,110.36156235502303A170.6070045455344,170.6070045455344,0,0,0,-129.11073253187573,111.52205497157252Z" fill-rule="evenodd" style="fill: #D7A449; stroke: #fff; opacity: 1;" id="p-type-tokenTransfers"></path><path d="M-150.2312686252249,127.43455546772043A197,197,0,0,1,-151.3662607201474,126.08431748477032L-131.08702705950628,109.19222196063357A170.6070045455344,170.6070045455344,0,0,0,-130.10409507220888,110.36156235502303Z" fill-rule="evenodd" style="fill: #D7A449; stroke: #fff; opacity: 1;" id="p-type-tokenTransfers"></path><path d="M-151.3662607201474,126.08431748477032A197,197,0,0,1,-152.4891176566078,124.72397121768225L-132.05944969129652,108.01412753539196A170.6070045455344,170.6070045455344,0,0,0,-131.08702705950628,109.19222196063357Z" fill-rule="evenodd" style="fill: #D7A449; stroke: #fff; opacity: 1;" id="p-type-tokenTransfers"></path></g></svg>