<svg xmlns="http://www.w3.org/2000/svg" width="400" height="400" id="block-7824856"><g id="burst-container" transform="translate(200,200)"><circle r="197" style="fill: #f9f9f9; stroke: #f9f9f9; stroke-width: 3; opacity: 1;" id="circle-base"></circle><path display="none" d="M6.031385485800715e-15,-98.5A98.5,98.5,0,1,1,-6.031385485800715e-15,98.5A98.5,98.5,0,1,1,6.031385485800715e-15,-98.5Z" fill-rule="evenodd" id="p-type-root" style="stroke: #fff; opacity: 1;"></path><path d="M8.529667153919608e-15,-139.30003589374985A139.30003589374985,139.30003589374985,0,1,1,-111.5088333632761,-83.4882032502863L-78.84865223337327,-59.0350746673582A98.5,98.5,0,1,0,6.031385485800715e-15,-98.5Z" fill-rule="evenodd" style="fill: #0B1F65; stroke: #fff; opacity: 1;" id="p-type-data"></path><path d="M-111.5088333632761,-83.4882032502863A139.30003589374985,139.30003589374985,0,0,1,-9.9367070599714,-138.94517570899794L-7.026312944770019,-98.24907595698882A98.5,98.5,0,0,0,-78.84865223337327,-59.0350746673582Z" fill-rule="evenodd" style="fill: #D7A449; stroke: #fff; opacity: 1;" id="p-type-value"></path><path d="M1.0446666101440332e-14,-170.6070045455344A170.6070045455344,170.6070045455344,0,0,1,170.58458479143601,2.7657605705083177L139.28173024118325,2.258234049484758A139.30003589374985,139.30003589374985,0,0,0,8.529667153919608e-15,-139.30003589374985Z" fill-rule="evenodd" style="fill: #DB3F29; stroke: #fff; opacity: 1;" id="p-type-functions"></path><path d="M170.58458479143601,2.7657605705083177A170.6070045455344,170.6070045455344,0,0,1,33.577106278826555,167.27022428974138L27.415592474108763,136.57556622358769A139.30003589374985,139.30003589374985,0,0,0,139.28173024118325,2.258234049484758Z" fill-rule="evenodd" style="fill: #1DC690; stroke: #fff; opacity: 1;" id="p-type-logs"></path><path d="M33.577106278826555,167.27022428974138A170.6070045455344,170.6070045455344,0,0,1,-156.30235944841579,68.38364154429203L-127.62034208056795,55.83500951230164A139.30003589374985,139.30003589374985,0,0,0,27.415592474108763,136.57556622358769Z" fill-rule="evenodd" style="fill: #D7A449; stroke: #fff; opacity: 1;" id="p-type-tokenTransfers"></path><path d="M-156.30235944841579,68.38364154429203A170.6070045455344,170.6070045455344,0,0,1,-168.87400789374612,24.255297522458203L-137.88505005280552,19.804367496471865A139.30003589374985,139.30003589374985,0,0,0,-127.62034208056795,55.83500951230164Z" fill-rule="evenodd" style="fill: #414552; stroke: #fff; opacity: 1;" id="p-type-ether"></path><path d="M-136.56987177653173,-102.25174875248675A170.6070045455344,170.6070045455344,0,0,1,-42.18870795087163,-165.30838732936712L-34.446935795645054,-134.97373305310447A139.30003589374985,139.30003589374985,0,0,0,-111.5088333632761,-83.4882032502863Z" fill-rule="evenodd" style="fill: #D7A449; stroke: #fff; opacity: 1;" id="p-type-tokenTransfers"></path><path d="M-42.18870795087163,-165.30838732936712A170.6070045455344,170.6070045455344,0,0,1,-24.277857385065435,-168.8707660928629L-19.82278754715687,-137.88240313346833A139.30003589374985,139.30003589374985,0,0,0,-34.446935795645054,-134.97373305310447Z" fill-rule="evenodd" style="fill: #414552; stroke: #fff; opacity: 1;" id="p-type-ether"></path><path d="M1.206277097160143e-14,-197A197,197,0,0,1,30.81499026496334,-194.5750147757163L26.68656438682842,-168.50690573750282A170.6070045455344,170.6070045455344,0,0,0,1.0446666101440332e-14,-170.6070045455344Z" fill-rule="evenodd" style="fill: #DB3F29; stroke: #fff; opacity: 1;" id="p-type-functions"></path><path d="M30.81499026496334,-194.5750147757163A197,197,0,0,1,37.73960508195587,-193.35129223322508L32.683456729766085,-167.44713092852174A170.6070045455344,170.6070045455344,0,0,0,26.68656438682842,-168.50690573750282Z" fill-rule="evenodd" style="fill: #DB3F29; stroke: #fff; opacity: 1;" id="p-type-functions"></path><path d="M37.73960508195587,-193.35129223322508A197,197,0,0,1,44.61613466196637,-191.88121462984665L38.63870603593031,-166.17400637846148A170.6070045455344,170.6070045455344,0,0,0,32.683456729766085,-167.44713092852174Z" fill-rule="evenodd" style="fill: #DB3F29; stroke: #fff; opacity: 1;" id="p-type-functions"></path><path d="M44.61613466196637,-191.88121462984665A197,197,0,0,1,51.435817398884915,-190.16665503843876L44.54472453185196,-164.689154216A170.6070045455344,170.6070045455344,0,0,0,38.63870603593031,-166.17400637846148Z" fill-rule="evenodd" style="fill: #DB3F29; stroke: #fff; opacity: 1;" id="p-type-functions"></path><path d="M51.435817398884915,-190.16665503843876A197,197,0,0,1,58.18996411698134,-188.20979803417362L50.393987170610764,-162.99446633873285A170.6070045455344,170.6070045455344,0,0,0,44.54472453185196,-164.689154216Z" fill-rule="evenodd" style="fill: #DB3F29; stroke: #fff; opacity: 1;" id="p-type-functions"></path><path d="M58.18996411698134,-188.20979803417362A197,197,0,0,1,64.86996914206141,-186.013136911101L56.1790412197378,-161.0921020026463A170.6070045455344,170.6070045455344,0,0,0,50.393987170610764,-162.99446633873285Z" fill-rule="evenodd" style="fill: #DB3F29; stroke: #fff; opacity: 1;" id="p-type-functions"></path><path d="M64.86996914206141,-186.013136911101A197,197,0,0,1,71.46732126623166,-183.57947050536242L61.89251575698048,-158.98448507093994A170.6070045455344,170.6070045455344,0,0,0,56.1790412197378,-161.0921020026463Z" fill-rule="evenodd" style="fill: #DB3F29; stroke: #fff; opacity: 1;" id="p-type-functions"></path><path d="M71.46732126623166,-183.57947050536242A197,197,0,0,1,77.97361459230112,-180.9118996291048L67.52713106182976,-156.67430092570532A170.6070045455344,170.6070045455344,0,0,0,61.89251575698048,-158.98448507093994Z" fill-rule="evenodd" style="fill: #DB3F29; stroke: #fff; opacity: 1;" id="p-type-functions"></path><path d="M77.97361459230112,-180.9118996291048A197,197,0,0,1,84.38055924400376,-178.01382311963633L73.07570789084511,-154.16449304639468A170.6070045455344,170.6070045455344,0,0,0,67.52713106182976,-156.67430092570532Z" fill-rule="evenodd" style="fill: #DB3F29; stroke: #fff; opacity: 1;" id="p-type-functions"></path><path d="M84.38055924400376,-178.01382311963633A197,197,0,0,1,90.67999192839468,-174.88893350885948L78.53117662495765,-151.45825925943987A170.6070045455344,170.6070045455344,0,0,0,73.07570789084511,-154.16449304639468Z" fill-rule="evenodd" style="fill: #DB3F29; stroke: #fff; opacity: 1;" id="p-type-functions"></path><path d="M90.67999192839468,-174.88893350885948A197,197,0,0,1,96.86388633696266,-171.54121231849788L83.88658627709806,-148.55904766379925A170.6070045455344,170.6070045455344,0,0,0,78.53117662495765,-151.45825925943987Z" fill-rule="evenodd" style="fill: #DB3F29; stroke: #fff; opacity: 1;" id="p-type-functions"></path><path d="M96.86388633696266,-171.54121231849788A197,197,0,0,1,102.92436337220614,-167.9749249871125L89.13511334867111,-145.4705522376249A170.6070045455344,170.6070045455344,0,0,0,83.88658627709806,-148.55904766379925Z" fill-rule="evenodd" style="fill: #DB3F29; stroke: #fff; opacity: 1;" id="p-type-functions"></path><path d="M102.92436337220614,-167.9749249871125A197,197,0,0,1,108.85370118664343,-164.19461543536968L94.2700705235935,-142.19670813164663A170.6070045455344,170.6070045455344,0,0,0,89.13511334867111,-145.4705522376249Z" fill-rule="evenodd" style="fill: #DB3F29; stroke: #fff; opacity: 1;" id="p-type-functions"></path><path d="M108.85370118664343,-164.19461543536968A197,197,0,0,1,114.64434502146518,-160.20510027648697L99.28491518881688,-138.7416866552711A170.6070045455344,170.6070045455344,0,0,0,94.2700705235935,-142.19670813164663Z" fill-rule="evenodd" style="fill: #DB3F29; stroke: #fff; opacity: 1;" id="p-type-functions"></path><path d="M114.64434502146518,-160.20510027648697A197,197,0,0,1,120.28891683229409,-156.01146267923212L104.17325777048025,-135.10988996178287A170.6070045455344,170.6070045455344,0,0,0,99.28491518881688,-138.7416866552711Z" fill-rule="evenodd" style="fill: #DB3F29; stroke: #fff; opacity: 1;" id="p-type-functions"></path><path d="M120.28891683229409,-156.01146267923212A197,197,0,0,1,125.78022468978706,-151.6190458912952L108.92886987507026,-131.30594543942024A170.6070045455344,170.6070045455344,0,0,0,104.17325777048025,-135.10988996178287Z" fill-rule="evenodd" style="fill: #DB3F29; stroke: #fff; opacity: 1;" id="p-type-functions"></path><path d="M125.78022468978706,-151.6190458912952A197,197,0,0,1,131.1112719431022,-147.0334464312862L113.54569222521643,-127.33469981547225A170.6070045455344,170.6070045455344,0,0,0,108.92886987507026,-131.30594543942024Z" fill-rule="evenodd" style="fill: #DB3F29; stroke: #fff; opacity: 1;" id="p-type-functions"></path><path d="M131.1112719431022,-147.0334464312862A197,197,0,0,1,136.2752661345553,-142.2605069580315L118.0178423800101,-123.20121298090815A170.6070045455344,170.6070045455344,0,0,0,113.54569222521643,-127.33469981547225Z" fill-rule="evenodd" style="fill: #DB3F29; stroke: #fff; opacity: 1;" id="p-type-functions"></path><path d="M136.2752661345553,-142.2605069580315A197,197,0,0,1,141.2656276541072,-137.30630882625584L122.33962223001035,-118.91075154340903A170.6070045455344,170.6070045455344,0,0,0,118.0178423800101,-123.20121298090815Z" fill-rule="evenodd" style="fill: #DB3F29; stroke: #fff; opacity: 1;" id="p-type-functions"></path><path d="M141.2656276541072,-137.30630882625584A197,197,0,0,1,146.07599812265534,-132.17716433813365L126.50552525738749,-114.4687821170143A170.6070045455344,170.6070045455344,0,0,0,122.33962223001035,-118.91075154340903Z" fill-rule="evenodd" style="fill: #DB3F29; stroke: #fff; opacity: 1;" id="p-type-functions"></path><path d="M196.97411189787226,3.19362521979406A197,197,0,0,1,196.73464814495767,10.22145876476037L170.37720309812644,8.85204295401759A170.6070045455344,170.6070045455344,0,0,0,170.58458479143601,2.7657605705083177Z" fill-rule="evenodd" style="fill: #1DC690; stroke: #fff; opacity: 1;" id="p-type-logs"></path><path d="M196.73464814495767,10.22145876476037A197,197,0,0,1,196.24451848925767,17.236268822439555L169.95273836514212,14.927046666690346A170.6070045455344,170.6070045455344,0,0,0,170.37720309812644,8.85204295401759Z" fill-rule="evenodd" style="fill: #1DC690; stroke: #fff; opacity: 1;" id="p-type-logs"></path><path d="M196.24451848925767,17.236268822439555A197,197,0,0,1,195.50434742063095,24.22911759914577L169.3117314165651,20.983031352140863A170.6070045455344,170.6070045455344,0,0,0,169.95273836514212,14.927046666690346Z" fill-rule="evenodd" style="fill: #1DC690; stroke: #fff; opacity: 1;" id="p-type-logs"></path><path d="M195.50434742063095,24.22911759914577A197,197,0,0,1,194.51507801469168,31.19109528276314L168.45499897983493,27.012280886733844A170.6070045455344,170.6070045455344,0,0,0,169.3117314165651,20.983031352140863Z" fill-rule="evenodd" style="fill: #1DC690; stroke: #fff; opacity: 1;" id="p-type-logs"></path><path d="M194.51507801469168,31.19109528276314A197,197,0,0,1,193.27797073120678,38.113331395022115L167.38363264513026,33.00711321094415A170.6070045455344,170.6070045455344,0,0,0,168.45499897983493,27.012280886733844Z" fill-rule="evenodd" style="fill: #1DC690; stroke: #fff; opacity: 1;" id="p-type-logs"></path><path d="M193.27797073120678,38.113331395022115A197,197,0,0,1,191.7946018081037,44.98700609365935L166.09899747453863,38.95989011731434A170.6070045455344,170.6070045455344,0,0,0,167.38363264513026,33.00711321094415Z" fill-rule="evenodd" style="fill: #1DC690; stroke: #fff; opacity: 1;" id="p-type-logs"></path><path d="M191.7946018081037,44.98700609365935A197,197,0,0,1,190.06686125313547,51.80336141006061L164.6027302627875,44.86302698253895A170.6070045455344,170.6070045455344,0,0,0,166.09899747453863,38.95989011731434Z" fill-rule="evenodd" style="fill: #1DC690; stroke: #fff; opacity: 1;" id="p-type-logs"></path><path d="M190.06686125313547,51.80336141006061A197,197,0,0,1,188.09695043576122,58.553712408068456L162.89673745175165,50.70900243127538A170.6070045455344,170.6070045455344,0,0,0,164.6027302627875,44.86302698253895Z" fill-rule="evenodd" style="fill: #1DC690; stroke: #fff; opacity: 1;" id="p-type-logs"></path><path d="M188.09695043576122,58.553712408068456A197,197,0,0,1,185.8873792823112,65.22945824973702L160.98319270139464,56.49036791936869A170.6070045455344,170.6070045455344,0,0,0,162.89673745175165,50.70900243127538Z" fill-rule="evenodd" style="fill: #1DC690; stroke: #fff; opacity: 1;" id="p-type-logs"></path><path d="M185.8873792823112,65.22945824973702A197,197,0,0,1,183.44096307800925,71.82209315393447L158.86453412023926,62.19975722427967A170.6070045455344,170.6070045455344,0,0,0,160.98319270139464,56.49036791936869Z" fill-rule="evenodd" style="fill: #1DC690; stroke: #fff; opacity: 1;" id="p-type-logs"></path><path d="M183.44096307800925,71.82209315393447A197,197,0,0,1,180.7608188799281,78.32321723383063L156.54346115889552,67.82989583062448A170.6070045455344,170.6070045455344,0,0,0,158.86453412023926,62.19975722427967Z" fill-rule="evenodd" style="fill: #1DC690; stroke: #fff; opacity: 1;" id="p-type-logs"></path><path d="M180.7608188799281,78.32321723383063A197,197,0,0,1,177.85036154544716,84.7245471994612L154.02293117060427,73.37361019886711A170.6070045455344,170.6070045455344,0,0,0,156.54346115889552,67.82989583062448Z" fill-rule="evenodd" style="fill: #1DC690; stroke: #fff; opacity: 1;" id="p-type-logs"></path><path d="M177.85036154544716,84.7245471994612A197,197,0,0,1,174.71329938127369,91.01792691173225L151.30615564317904,78.82383690535544A170.6070045455344,170.6070045455344,0,0,0,154.02293117060427,73.37361019886711Z" fill-rule="evenodd" style="fill: #1DC690; stroke: #fff; opacity: 1;" id="p-type-logs"></path><path d="M174.71329938127369,91.01792691173225A197,197,0,0,1,171.35362941857065,97.19533777441774L148.3965961071467,84.17363164205503A170.6070045455344,170.6070045455344,0,0,0,151.30615564317904,78.82383690535544Z" fill-rule="evenodd" style="fill: #1DC690; stroke: #fff; opacity: 1;" id="p-type-logs"></path><path d="M171.35362941857065,97.19533777441774A197,197,0,0,1,167.77563232021168,103.24890895090921L145.29795972530084,89.41617806451389A170.6070045455344,170.6070045455344,0,0,0,148.3965961071467,84.17363164205503Z" fill-rule="evenodd" style="fill: #1DC690; stroke: #fff; opacity: 1;" id="p-type-logs"></path><path d="M167.77563232021168,103.24890895090921A197,197,0,0,1,163.98386692665156,109.17092739270028L142.01419456928707,94.5447964767849A170.6070045455344,170.6070045455344,0,0,0,145.29795972530084,89.41617806451389Z" fill-rule="evenodd" style="fill: #1DC690; stroke: #fff; opacity: 1;" id="p-type-logs"></path><path d="M163.98386692665156,109.17092739270028A197,197,0,0,1,159.98316444736196,114.95384766682818L138.5494845892389,99.55295234223972A170.6070045455344,170.6070045455344,0,0,0,142.01419456928707,94.5447964767849Z" fill-rule="evenodd" style="fill: #1DC690; stroke: #fff; opacity: 1;" id="p-type-logs"></path><path d="M159.98316444736196,114.95384766682818A197,197,0,0,1,155.77862230523309,120.59030156975119L134.90824428287303,104.434264609431A170.6070045455344,170.6070045455344,0,0,0,138.5494845892389,99.55295234223972Z" fill-rule="evenodd" style="fill: #1DC690; stroke: #fff; opacity: 1;" id="p-type-logs"></path><path d="M155.77862230523309,120.59030156975119A197,197,0,0,1,151.3755976417842,126.07310751541209L131.09511307083687,109.1825138423937A170.6070045455344,170.6070045455344,0,0,0,134.90824428287303,104.434264609431Z" fill-rule="evenodd" style="fill: #1DC690; stroke: #fff; opacity: 1;" id="p-type-logs"></path><path d="M38.77150269737837,193.1470180421825A197,197,0,0,1,31.853520896327076,194.40769842397512L27.585958296197706,168.36200552642643A170.6070045455344,170.6070045455344,0,0,0,33.577106278826555,167.27022428974138Z" fill-rule="evenodd" style="fill: #D7A449; stroke: #fff; opacity: 1;" id="p-type-tokenTransfers"></path><path d="M31.853520896327076,194.40769842397512A197,197,0,0,1,24.894953506272206,195.4206777439904L21.559662162464214,169.23927135106794A170.6070045455344,170.6070045455344,0,0,0,27.585958296197706,168.36200552642643Z" fill-rule="evenodd" style="fill: #D7A449; stroke: #fff; opacity: 1;" id="p-type-tokenTransfers"></path><path d="M24.894953506272206,195.4206777439904A197,197,0,0,1,17.90466666031929,196.18466533290223L15.505896174128788,169.9009040112416A170.6070045455344,170.6070045455344,0,0,0,21.559662162464214,169.23927135106794Z" fill-rule="evenodd" style="fill: #D7A449; stroke: #fff; opacity: 1;" id="p-type-tokenTransfers"></path><path d="M17.90466666031929,196.18466533290223A197,197,0,0,1,10.891566906346357,196.69868776970674L9.432373627913833,170.3460604996295A170.6070045455344,170.6070045455344,0,0,0,15.505896174128788,169.9009040112416Z" fill-rule="evenodd" style="fill: #D7A449; stroke: #fff; opacity: 1;" id="p-type-tokenTransfers"></path><path d="M10.891566906346357,196.69868776970674A197,197,0,0,1,3.8645898588866365,196.96209012198918L3.346832993003546,170.57417362812268A170.6070045455344,170.6070045455344,0,0,0,9.432373627913833,170.3460604996295Z" fill-rule="evenodd" style="fill: #D7A449; stroke: #fff; opacity: 1;" id="p-type-tokenTransfers"></path><path d="M3.8645898588866365,196.96209012198918A197,197,0,0,1,-3.167311186023496,196.97453678039426L-2.742971948786967,170.5849527504937A170.6070045455344,170.6070045455344,0,0,0,3.346832993003546,170.57417362812268Z" fill-rule="evenodd" style="fill: #D7A449; stroke: #fff; opacity: 1;" id="p-type-tokenTransfers"></path><path d="M-3.167311186023496,196.97453678039426A197,197,0,0,1,-10.19517665852514,196.7360118862367L-8.829281982352919,170.37838413271825A170.6070045455344,170.6070045455344,0,0,0,-2.742971948786967,170.5849527504937Z" fill-rule="evenodd" style="fill: #D7A449; stroke: #fff; opacity: 1;" id="p-type-tokenTransfers"></path><path d="M-10.19517665852514,196.7360118862367A197,197,0,0,1,-17.210052130611185,196.24681935170733L-14.904342345563789,169.95473097047412A170.6070045455344,170.6070045455344,0,0,0,-8.829281982352919,170.37838413271825Z" fill-rule="evenodd" style="fill: #D7A449; stroke: #fff; opacity: 1;" id="p-type-tokenTransfers"></path><path d="M-17.210052130611185,196.24681935170733A197,197,0,0,1,-24.202999725249196,195.50758247264883L-20.96041260985359,169.31453305379515A170.6070045455344,170.6070045455344,0,0,0,-14.904342345563789,169.95473097047412Z" fill-rule="evenodd" style="fill: #D7A449; stroke: #fff; opacity: 1;" id="p-type-tokenTransfers"></path><path d="M-24.202999725249196,195.50758247264883A197,197,0,0,1,-31.165109504416208,194.51924313439466L-26.98977654254829,168.45860607930751A170.6070045455344,170.6070045455344,0,0,0,-20.96041260985359,169.31453305379515Z" fill-rule="evenodd" style="fill: #D7A449; stroke: #fff; opacity: 1;" id="p-type-tokenTransfers"></path><path d="M-31.165109504416208,194.51924313439466A197,197,0,0,1,-38.08751082153552,193.2830606116827L-32.984751938364475,167.38804061092463A170.6070045455344,170.6070045455344,0,0,0,-26.98977654254829,168.45860607930751Z" fill-rule="evenodd" style="fill: #D7A449; stroke: #fff; opacity: 1;" id="p-type-tokenTransfers"></path><path d="M-38.08751082153552,193.2830606116827A197,197,0,0,1,-44.96138362385099,191.80060996417322L-38.937700407552605,166.10420069032475A170.6070045455344,170.6070045455344,0,0,0,-32.984751938364475,167.38804061092463Z" fill-rule="evenodd" style="fill: #D7A449; stroke: #fff; opacity: 1;" id="p-type-tokenTransfers"></path><path d="M-44.96138362385099,191.80060996417322A197,197,0,0,1,-51.77796969033815,190.07378002961488L-44.84103710821352,164.6087220989818A170.6070045455344,170.6070045455344,0,0,0,-38.937700407552605,166.10420069032475Z" fill-rule="evenodd" style="fill: #D7A449; stroke: #fff; opacity: 1;" id="p-type-tokenTransfers"></path><path d="M-51.77796969033815,190.07378002961488A197,197,0,0,1,-58.52858379083352,188.1047710172163L-50.68724041038795,162.90351027396412A170.6070045455344,170.6070045455344,0,0,0,-44.84103710821352,164.6087220989818Z" fill-rule="evenodd" style="fill: #D7A449; stroke: #fff; opacity: 1;" id="p-type-tokenTransfers"></path><path d="M-58.52858379083352,188.1047710172163A197,197,0,0,1,-65.20462475216392,185.89609170428918L-56.46886147960556,160.99073788015608A170.6070045455344,170.6070045455344,0,0,0,-50.68724041038795,162.90351027396412Z" fill-rule="evenodd" style="fill: #D7A449; stroke: #fff; opacity: 1;" id="p-type-tokenTransfers"></path><path d="M-65.20462475216392,185.89609170428918A197,197,0,0,1,-71.79758641717615,183.45055623973485L-62.17853376768309,158.87284204199625A170.6070045455344,170.6070045455344,0,0,0,-56.46886147960556,160.99073788015608Z" fill-rule="evenodd" style="fill: #D7A449; stroke: #fff; opacity: 1;" id="p-type-tokenTransfers"></path><path d="M-71.79758641717615,183.45055623973485A197,197,0,0,1,-78.29906848270359,180.77128055844736L-67.8089823986788,156.55252123825943A170.6070045455344,170.6070045455344,0,0,0,-62.17853376768309,158.87284204199625Z" fill-rule="evenodd" style="fill: #D7A449; stroke: #fff; opacity: 1;" id="p-type-tokenTransfers"></path><path d="M-78.29906848270359,180.77128055844736A197,197,0,0,1,-84.70078720266105,177.86167841120113L-73.35303343804435,154.03273186383842A170.6070045455344,170.6070045455344,0,0,0,-67.8089823986788,156.55252123825943Z" fill-rule="evenodd" style="fill: #D7A449; stroke: #fff; opacity: 1;" id="p-type-tokenTransfers"></path><path d="M-84.70078720266105,177.86167841120113A197,197,0,0,1,-90.9945859426303,174.72545701508201L-78.8036230331642,151.31668446290698A170.6070045455344,170.6070045455344,0,0,0,-73.35303343804435,154.03273186383842Z" fill-rule="evenodd" style="fill: #D7A449; stroke: #fff; opacity: 1;" id="p-type-tokenTransfers"></path><path d="M-180.48241860503302,78.96262770752776A197,197,0,0,1,-190.61219223824725,49.75934254116985L-165.0750007493651,43.09285471626482A170.6070045455344,170.6070045455344,0,0,0,-156.30235944841579,68.38364154429203Z" fill-rule="evenodd" style="fill: #414552; stroke: #fff; opacity: 1;" id="p-type-ether"></path></g></svg>