<svg xmlns="http://www.w3.org/2000/svg" width="400" height="400" id="block-7824882"><g id="burst-container" transform="translate(200,200)"><circle r="197" style="fill: #f9f9f9; stroke: #f9f9f9; stroke-width: 3; opacity: 1;" id="circle-base"></circle><path display="none" d="M6.031385485800715e-15,-98.5A98.5,98.5,0,1,1,-6.031385485800715e-15,98.5A98.5,98.5,0,1,1,6.031385485800715e-15,-98.5Z" fill-rule="evenodd" id="p-type-root" style="stroke: #fff; opacity: 1;"></path><path d="M8.529667153919608e-15,-139.30003589374985A139.30003589374985,139.30003589374985,0,1,1,-100.51931284196269,-96.43841426412834L-71.07788775076382,-68.19225669304262A98.5,98.5,0,1,0,6.031385485800715e-15,-98.5Z" fill-rule="evenodd" style="fill: #0B1F65; stroke: #fff; opacity: 1;" id="p-type-data"></path><path d="M-100.51931284196269,-96.43841426412834A139.30003589374985,139.30003589374985,0,0,1,-1.2205477497129575,-139.2946885677651L-0.8630575905840133,-98.49621886953496A98.5,98.5,0,0,0,-71.07788775076382,-68.19225669304262Z" fill-rule="evenodd" style="fill: #D7A449; stroke: #fff; opacity: 1;" id="p-type-value"></path><path d="M1.0446666101440332e-14,-170.6070045455344A170.6070045455344,170.6070045455344,0,0,1,170.60693409685422,0.1550421608680596L139.29997837264332,0.12659139424841714A139.30003589374985,139.30003589374985,0,0,0,8.529667153919608e-15,-139.30003589374985Z" fill-rule="evenodd" style="fill: #DB3F29; stroke: #fff; opacity: 1;" id="p-type-functions"></path><path d="M170.60693409685422,0.1550421608680596A170.6070045455344,170.6070045455344,0,0,1,21.124470984622395,169.2941426205285L17.248058332851137,138.22808862075235A139.30003589374985,139.30003589374985,0,0,0,139.29997837264332,0.12659139424841714Z" fill-rule="evenodd" style="fill: #1DC690; stroke: #fff; opacity: 1;" id="p-type-logs"></path><path d="M21.124470984622395,169.2941426205285A170.6070045455344,170.6070045455344,0,0,1,-164.96259478451967,43.52117096262885L-134.69139462252622,35.534887288957485A139.30003589374985,139.30003589374985,0,0,0,17.248058332851137,138.22808862075235Z" fill-rule="evenodd" style="fill: #D7A449; stroke: #fff; opacity: 1;" id="p-type-tokenTransfers"></path><path d="M-164.96259478451967,43.52117096262885A170.6070045455344,170.6070045455344,0,0,1,-170.5387375451818,4.825867434524303L-139.24429612137175,3.94030426029955A139.30003589374985,139.30003589374985,0,0,0,-134.69139462252622,35.534887288957485Z" fill-rule="evenodd" style="fill: #414552; stroke: #fff; opacity: 1;" id="p-type-ether"></path><path d="M-123.1105128790005,-118.11245327512866A170.6070045455344,170.6070045455344,0,0,1,-14.929666441965956,-169.95250824842697L-12.19002160425661,-138.76564190493175A139.30003589374985,139.30003589374985,0,0,0,-100.51931284196269,-96.43841426412834Z" fill-rule="evenodd" style="fill: #D7A449; stroke: #fff; opacity: 1;" id="p-type-tokenTransfers"></path><path d="M-14.929666441965956,-169.95250824842697A170.6070045455344,170.6070045455344,0,0,1,-2.9896044268154514,-170.58080860803528L-2.44100179282121,-139.2786470003476A139.30003589374985,139.30003589374985,0,0,0,-12.19002160425661,-138.76564190493175Z" fill-rule="evenodd" style="fill: #414552; stroke: #fff; opacity: 1;" id="p-type-ether"></path><path d="M1.206277097160143e-14,-197A197,197,0,0,1,12.074300943762735,-196.62962965107636L10.456651350236951,-170.28625441455804A170.6070045455344,170.6070045455344,0,0,0,1.0446666101440332e-14,-170.6070045455344Z" fill-rule="evenodd" style="fill: #DB3F29; stroke: #fff; opacity: 1;" id="p-type-functions"></path><path d="M12.074300943762735,-196.62962965107636A197,197,0,0,1,20.67442002744986,-195.91214448453312L17.90457295228135,-169.66489403349308A170.6070045455344,170.6070045455344,0,0,0,10.456651350236951,-170.28625441455804Z" fill-rule="evenodd" style="fill: #DB3F29; stroke: #fff; opacity: 1;" id="p-type-functions"></path><path d="M-190.48239701012315,50.25391954144298A197,197,0,0,1,-193.20438643297885,38.484608131773555L-167.31990677354523,33.328648296805085A170.6070045455344,170.6070045455344,0,0,0,-164.96259478451967,43.52117096262885Z" fill-rule="evenodd" style="fill: #414552; stroke: #fff; opacity: 1;" id="p-type-ether"></path><path d="M-193.20438643297885,38.484608131773555A197,197,0,0,1,-194.70449505295895,29.98599016494676L-168.619038946884,25.968629240474222A170.6070045455344,170.6070045455344,0,0,0,-167.31990677354523,33.328648296805085Z" fill-rule="evenodd" style="fill: #414552; stroke: #fff; opacity: 1;" id="p-type-ether"></path><path d="M-194.70449505295895,29.98599016494676A197,197,0,0,1,-195.31453535141415,25.714437198997658L-169.14734934267844,22.269355858351535A170.6070045455344,170.6070045455344,0,0,0,-168.619038946884,25.968629240474222Z" fill-rule="evenodd" style="fill: #414552; stroke: #fff; opacity: 1;" id="p-type-ether"></path><path d="M-195.31453535141415,25.714437198997658A197,197,0,0,1,-195.59476501229548,23.488037376181683L-169.39003534789558,20.341237052811728A170.6070045455344,170.6070045455344,0,0,0,-169.14734934267844,22.269355858351535Z" fill-rule="evenodd" style="fill: #414552; stroke: #fff; opacity: 1;" id="p-type-ether"></path><path d="M-195.59476501229548,23.488037376181683A197,197,0,0,1,-195.8402254486956,21.344931393754127L-169.6026103214421,18.48525282902706A170.6070045455344,170.6070045455344,0,0,0,-169.39003534789558,20.341237052811728Z" fill-rule="evenodd" style="fill: #414552; stroke: #fff; opacity: 1;" id="p-type-ether"></path></g></svg>