<svg xmlns="http://www.w3.org/2000/svg" width="400" height="400" id="block-7824841"><g id="burst-container" transform="translate(200,200)"><circle r="197" style="fill: #f9f9f9; stroke: #f9f9f9; stroke-width: 3; opacity: 1;" id="circle-base"></circle><path display="none" d="M6.031385485800715e-15,-98.5A98.5,98.5,0,1,1,-6.031385485800715e-15,98.5A98.5,98.5,0,1,1,6.031385485800715e-15,-98.5Z" fill-rule="evenodd" id="p-type-root" style="stroke: #fff; opacity: 1;"></path><path d="M8.529667153919608e-15,-139.30003589374985A139.30003589374985,139.30003589374985,0,1,1,-100.89818463175612,-96.04195092779015L-71.34579056252706,-67.91191477942606A98.5,98.5,0,1,0,6.031385485800715e-15,-98.5Z" fill-rule="evenodd" style="fill: #0B1F65; stroke: #fff; opacity: 1;" id="p-type-data"></path><path d="M-100.89818463175612,-96.04195092779015A139.30003589374985,139.30003589374985,0,0,1,-2.109082327769119,-139.28406862141372L-1.4913464160462528,-98.48870943345408A98.5,98.5,0,0,0,-71.34579056252706,-67.91191477942606Z" fill-rule="evenodd" style="fill: #D7A449; stroke: #fff; opacity: 1;" id="p-type-value"></path><path d="M1.0446666101440332e-14,-170.6070045455344A170.6070045455344,170.6070045455344,0,0,1,170.53851405231222,4.833758871655036L139.24411364020787,3.946747591735399A139.30003589374985,139.30003589374985,0,0,0,8.529667153919608e-15,-139.30003589374985Z" fill-rule="evenodd" style="fill: #DB3F29; stroke: #fff; opacity: 1;" id="p-type-functions"></path><path d="M170.53851405231222,4.833758871655036A170.6070045455344,170.6070045455344,0,0,1,33.040748849558994,167.37699637483152L26.977658466956616,136.66274526600233A139.30003589374985,139.30003589374985,0,0,0,139.24411364020787,3.946747591735399Z" fill-rule="evenodd" style="fill: #1DC690; stroke: #fff; opacity: 1;" id="p-type-logs"></path><path d="M33.040748849558994,167.37699637483152A170.6070045455344,170.6070045455344,0,0,1,-139.3857139851316,98.378720955576L-113.80795889902986,80.32588929627063A139.30003589374985,139.30003589374985,0,0,0,26.977658466956616,136.66274526600233Z" fill-rule="evenodd" style="fill: #D7A449; stroke: #fff; opacity: 1;" id="p-type-tokenTransfers"></path><path d="M-139.3857139851316,98.378720955576A170.6070045455344,170.6070045455344,0,0,1,-169.10970901716766,22.553410299306794L-138.07749921420003,18.414782397644156A139.30003589374985,139.30003589374985,0,0,0,-113.80795889902986,80.32588929627063Z" fill-rule="evenodd" style="fill: #414552; stroke: #fff; opacity: 1;" id="p-type-ether"></path><path d="M-123.57453416046496,-117.62688683725366A170.6070045455344,170.6070045455344,0,0,1,-39.672850254564175,-165.93015082461332L-32.39274658850931,-135.48140082111868A139.30003589374985,139.30003589374985,0,0,0,-100.89818463175612,-96.04195092779015Z" fill-rule="evenodd" style="fill: #D7A449; stroke: #fff; opacity: 1;" id="p-type-tokenTransfers"></path><path d="M-39.672850254564175,-165.93015082461332A170.6070045455344,170.6070045455344,0,0,1,-5.165583355473531,-170.52878568909605L-4.217681148241308,-139.23617046490386A139.30003589374985,139.30003589374985,0,0,0,-32.39274658850931,-135.48140082111868Z" fill-rule="evenodd" style="fill: #414552; stroke: #fff; opacity: 1;" id="p-type-ether"></path><path d="M1.206277097160143e-14,-197A197,197,0,0,1,14.895330402032293,-196.43606881684L12.899734525922641,-170.11862581493162A170.6070045455344,170.6070045455344,0,0,0,1.0446666101440332e-14,-170.6070045455344Z" fill-rule="evenodd" style="fill: #DB3F29; stroke: #fff; opacity: 1;" id="p-type-functions"></path><path d="M14.895330402032293,-196.43606881684A197,197,0,0,1,21.420895755168257,-195.8319310660195L18.551039895793956,-169.59542717533589A170.6070045455344,170.6070045455344,0,0,0,12.899734525922641,-170.11862581493162Z" fill-rule="evenodd" style="fill: #DB3F29; stroke: #fff; opacity: 1;" id="p-type-functions"></path><path d="M21.420895755168257,-195.8319310660195A197,197,0,0,1,23.862880540756162,-195.5493874505814L20.665860755768175,-169.35073722668938A170.6070045455344,170.6070045455344,0,0,0,18.551039895793956,-169.59542717533589Z" fill-rule="evenodd" style="fill: #DB3F29; stroke: #fff; opacity: 1;" id="p-type-functions"></path><path d="M23.862880540756162,-195.5493874505814A197,197,0,0,1,25.412316972417806,-195.3540737893463L22.007712067136275,-169.18159063435365A170.6070045455344,170.6070045455344,0,0,0,20.665860755768175,-169.35073722668938Z" fill-rule="evenodd" style="fill: #DB3F29; stroke: #fff; opacity: 1;" id="p-type-functions"></path><path d="M25.412316972417806,-195.3540737893463A197,197,0,0,1,26.89051740446427,-195.156091561909L23.287871193173643,-169.0101329958951A170.6070045455344,170.6070045455344,0,0,0,22.007712067136275,-169.18159063435365Z" fill-rule="evenodd" style="fill: #DB3F29; stroke: #fff; opacity: 1;" id="p-type-functions"></path><path d="M26.89051740446427,-195.156091561909A197,197,0,0,1,28.367176651097143,-194.94692428670282L24.566695613490904,-168.8289888219262A170.6070045455344,170.6070045455344,0,0,0,23.287871193173643,-169.0101329958951Z" fill-rule="evenodd" style="fill: #DB3F29; stroke: #fff; opacity: 1;" id="p-type-functions"></path><path d="M28.367176651097143,-194.94692428670282A197,197,0,0,1,29.842210080040296,-194.7265839518034L25.844112034386942,-168.63816849442492A170.6070045455344,170.6070045455344,0,0,0,24.566695613490904,-168.8289888219262Z" fill-rule="evenodd" style="fill: #DB3F29; stroke: #fff; opacity: 1;" id="p-type-functions"></path><path d="M29.842210080040296,-194.7265839518034A197,197,0,0,1,31.315533152198828,-194.4950831856516L27.120047242857964,-168.43768294994192A170.6070045455344,170.6070045455344,0,0,0,25.844112034386942,-168.63816849442492Z" fill-rule="evenodd" style="fill: #DB3F29; stroke: #fff; opacity: 1;" id="p-type-functions"></path><path d="M31.315533152198828,-194.4950831856516A197,197,0,0,1,32.78706142650391,-194.25243525632993L28.394428110793243,-168.22754367897366A170.6070045455344,170.6070045455344,0,0,0,27.120047242857964,-168.43768294994192Z" fill-rule="evenodd" style="fill: #DB3F29; stroke: #fff; opacity: 1;" id="p-type-functions"></path><path d="M32.78706142650391,-194.25243525632993A197,197,0,0,1,34.25671056475278,-193.99865407080213L29.66718159916667,-168.00776272530405A170.6070045455344,170.6070045455344,0,0,0,28.394428110793243,-168.22754367897366Z" fill-rule="evenodd" style="fill: #DB3F29; stroke: #fff; opacity: 1;" id="p-type-functions"></path><path d="M34.25671056475278,-193.99865407080213A197,197,0,0,1,35.72439633644203,-193.733754174116L30.938234762222525,-167.778352685314A170.6070045455344,170.6070045455344,0,0,0,29.66718159916667,-168.00776272530405Z" fill-rule="evenodd" style="fill: #DB3F29; stroke: #fff; opacity: 1;" id="p-type-functions"></path><path d="M35.72439633644203,-193.733754174116A197,197,0,0,1,37.190034623595544,-193.45775074856982L32.20751475165658,-167.53932670725948A170.6070045455344,170.6070045455344,0,0,0,30.938234762222525,-167.778352685314Z" fill-rule="evenodd" style="fill: #DB3F29; stroke: #fff; opacity: 1;" id="p-type-functions"></path><path d="M37.190034623595544,-193.45775074856982A197,197,0,0,1,38.653541425585225,-193.17065961284226L33.47494882079097,-167.29069849051808A170.6070045455344,170.6070045455344,0,0,0,32.20751475165658,-167.53932670725948Z" fill-rule="evenodd" style="fill: #DB3F29; stroke: #fff; opacity: 1;" id="p-type-functions"></path><path d="M38.653541425585225,-193.17065961284226A197,197,0,0,1,40.114832863945665,-192.8724972210857L34.74046432874381,-167.03248228480373A170.6070045455344,170.6070045455344,0,0,0,33.47494882079097,-167.29069849051808Z" fill-rule="evenodd" style="fill: #DB3F29; stroke: #fff; opacity: 1;" id="p-type-functions"></path><path d="M40.114832863945665,-192.8724972210857A197,197,0,0,1,41.573825187181185,-192.56328066198316L36.00398874459225,-166.76469288935013A170.6070045455344,170.6070045455344,0,0,0,34.74046432874381,-167.03248228480373Z" fill-rule="evenodd" style="fill: #DB3F29; stroke: #fff; opacity: 1;" id="p-type-functions"></path><path d="M41.573825187181185,-192.56328066198316A197,197,0,0,1,43.030434775566256,-192.243027657769L37.26544965152972,-166.4873456520624A170.6070045455344,170.6070045455344,0,0,0,36.00398874459225,-166.76469288935013Z" fill-rule="evenodd" style="fill: #DB3F29; stroke: #fff; opacity: 1;" id="p-type-functions"></path><path d="M43.030434775566256,-192.243027657769A197,197,0,0,1,44.48457814593767,-191.9117565632131L38.52477475101608,-166.2004564686375A170.6070045455344,170.6070045455344,0,0,0,37.26544965152972,-166.4873456520624Z" fill-rule="evenodd" style="fill: #DB3F29; stroke: #fff; opacity: 1;" id="p-type-functions"></path><path d="M44.48457814593767,-191.9117565632131A197,197,0,0,1,45.936171956479576,-191.56948636456886L39.78189186692163,-165.90404178165326A170.6070045455344,170.6070045455344,0,0,0,38.52477475101608,-166.2004564686375Z" fill-rule="evenodd" style="fill: #DB3F29; stroke: #fff; opacity: 1;" id="p-type-functions"></path><path d="M45.936171956479576,-191.56948636456886A197,197,0,0,1,47.385133011499754,-191.21623667848522L41.036728949663406,-165.59811857962595A170.6070045455344,170.6070045455344,0,0,0,39.78189186692163,-165.90404178165326Z" fill-rule="evenodd" style="fill: #DB3F29; stroke: #fff; opacity: 1;" id="p-type-functions"></path><path d="M47.385133011499754,-191.21623667848522A197,197,0,0,1,48.83137826619818,-190.85202775088212L42.289214080334936,-165.28270439603656A170.6070045455344,170.6070045455344,0,0,0,41.036728949663406,-165.59811857962595Z" fill-rule="evenodd" style="fill: #DB3F29; stroke: #fff; opacity: 1;" id="p-type-functions"></path><path d="M48.83137826619818,-190.85202775088212A197,197,0,0,1,50.27482483142627,-190.47688045579025L43.53927547482786,-164.95781730832599A170.6070045455344,170.6070045455344,0,0,0,42.289214080334936,-165.28270439603656Z" fill-rule="evenodd" style="fill: #DB3F29; stroke: #fff; opacity: 1;" id="p-type-functions"></path><path d="M50.27482483142627,-190.47688045579025A197,197,0,0,1,51.71538997843772,-190.0908162941548L44.78684148794624,-164.62347593685894A170.6070045455344,170.6070045455344,0,0,0,43.53927547482786,-164.95781730832599Z" fill-rule="evenodd" style="fill: #DB3F29; stroke: #fff; opacity: 1;" id="p-type-functions"></path><path d="M51.71538997843772,-190.0908162941548A197,197,0,0,1,53.15299114362999,-189.69385739260298L46.03184061751285,-164.2796994438567A170.6070045455344,170.6070045455344,0,0,0,44.78684148794624,-164.62347593685894Z" fill-rule="evenodd" style="fill: #DB3F29; stroke: #fff; opacity: 1;" id="p-type-functions"></path><path d="M53.15299114362999,-189.69385739260298A197,197,0,0,1,54.58754593327625,-189.28602650217596L47.27420150846716,-163.92650753229887A170.6070045455344,170.6070045455344,0,0,0,46.03184061751285,-164.2796994438567Z" fill-rule="evenodd" style="fill: #DB3F29; stroke: #fff; opacity: 1;" id="p-type-functions"></path><path d="M54.58754593327625,-189.28602650217596A197,197,0,0,1,56.01897212824755,-188.86734699702495L48.5138529569548,-163.5639204447942A170.6070045455344,170.6070045455344,0,0,0,47.27420150846716,-163.92650753229887Z" fill-rule="evenodd" style="fill: #DB3F29; stroke: #fff; opacity: 1;" id="p-type-functions"></path><path d="M56.01897212824755,-188.86734699702495A197,197,0,0,1,57.447187688725165,-188.4378428730715L49.750723914408645,-163.19195896242036A170.6070045455344,170.6070045455344,0,0,0,48.5138529569548,-163.5639204447942Z" fill-rule="evenodd" style="fill: #DB3F29; stroke: #fff; opacity: 1;" id="p-type-functions"></path><path d="M57.447187688725165,-188.4378428730715A197,197,0,0,1,58.87211075890264,-187.99753874663227L50.984743491620854,-162.81064440353285A170.6070045455344,170.6070045455344,0,0,0,49.750723914408645,-163.19195896242036Z" fill-rule="evenodd" style="fill: #DB3F29; stroke: #fff; opacity: 1;" id="p-type-functions"></path><path d="M58.87211075890264,-187.99753874663227A197,197,0,0,1,60.29365967167712,-187.5464598530081L52.2158409628057,-162.41999862254332A170.6070045455344,170.6070045455344,0,0,0,50.984743491620854,-162.81064440353285Z" fill-rule="evenodd" style="fill: #DB3F29; stroke: #fff; opacity: 1;" id="p-type-functions"></path><path d="M60.29365967167712,-187.5464598530081A197,197,0,0,1,61.71175295332994,-187.08463204503778L53.443945769653084,-162.02004400866696A170.6070045455344,170.6070045455344,0,0,0,52.2158409628057,-162.41999862254332Z" fill-rule="evenodd" style="fill: #DB3F29; stroke: #fff; opacity: 1;" id="p-type-functions"></path><path d="M61.71175295332994,-187.08463204503778A197,197,0,0,1,63.12630932819617,-186.6120817916163L54.668987525372465,-161.6108034846392A170.6070045455344,170.6070045455344,0,0,0,53.443945769653084,-162.02004400866696Z" fill-rule="evenodd" style="fill: #DB3F29; stroke: #fff; opacity: 1;" id="p-type-functions"></path><path d="M63.12630932819617,-186.6120817916163A197,197,0,0,1,64.53724772332293,-186.12883617617783L55.890896018727084,-161.19230050540205A170.6070045455344,170.6070045455344,0,0,0,54.668987525372465,-161.6108034846392Z" fill-rule="evenodd" style="fill: #DB3F29; stroke: #fff; opacity: 1;" id="p-type-functions"></path><path d="M64.53724772332293,-186.12883617617783A197,197,0,0,1,65.94448727311587,-185.63492289514346L57.10960121805794,-160.76455905675977A170.6070045455344,170.6070045455344,0,0,0,55.890896018727084,-161.19230050540205Z" fill-rule="evenodd" style="fill: #DB3F29; stroke: #fff; opacity: 1;" id="p-type-functions"></path><path d="M65.94448727311587,-185.63492289514346A197,197,0,0,1,67.34794732397367,-185.1303702563339L58.3250332752974,-160.32760365400418A170.6070045455344,170.6070045455344,0,0,0,57.10960121805794,-160.76455905675977Z" fill-rule="evenodd" style="fill: #DB3F29; stroke: #fff; opacity: 1;" id="p-type-functions"></path><path d="M67.34794732397367,-185.1303702563339A197,197,0,0,1,68.7475474389108,-184.61520717734686L59.53712252997257,-159.88145934050962A170.6070045455344,170.6070045455344,0,0,0,58.3250332752974,-160.32760365400418Z" fill-rule="evenodd" style="fill: #DB3F29; stroke: #fff; opacity: 1;" id="p-type-functions"></path><path d="M68.7475474389108,-184.61520717734686A197,197,0,0,1,70.1432074021676,-184.08946318390005L60.745799513197824,-159.4261516862976A170.6070045455344,170.6070045455344,0,0,0,59.53712252997257,-159.88145934050962Z" fill-rule="evenodd" style="fill: #DB3F29; stroke: #fff; opacity: 1;" id="p-type-functions"></path><path d="M70.1432074021676,-184.08946318390005A197,197,0,0,1,71.5348472238077,-183.55316840813862L61.9509949516562,-158.9617067865713A170.6070045455344,170.6070045455344,0,0,0,60.745799513197824,-159.4261516862976Z" fill-rule="evenodd" style="fill: #DB3F29; stroke: #fff; opacity: 1;" id="p-type-functions"></path><path d="M71.5348472238077,-183.55316840813862A197,197,0,0,1,72.92238714430236,-183.00635358690826L63.15263977156961,-158.48815126021998A170.6070045455344,170.6070045455344,0,0,0,61.9509949516562,-158.9617067865713Z" fill-rule="evenodd" style="fill: #DB3F29; stroke: #fff; opacity: 1;" id="p-type-functions"></path><path d="M72.92238714430236,-183.00635358690826A197,197,0,0,1,74.30574763910191,-182.44905005999374L64.35066510265783,-158.00551224829331A170.6070045455344,170.6070045455344,0,0,0,63.15263977156961,-158.48815126021998Z" fill-rule="evenodd" style="fill: #DB3F29; stroke: #fff; opacity: 1;" id="p-type-functions"></path><path d="M74.30574763910191,-182.44905005999374A197,197,0,0,1,75.6848494231936,-181.88128976832255L65.54500228208566,-157.51381741244603A170.6070045455344,170.6070045455344,0,0,0,64.35066510265783,-158.00551224829331Z" fill-rule="evenodd" style="fill: #DB3F29; stroke: #fff; opacity: 1;" id="p-type-functions"></path><path d="M75.6848494231936,-181.88128976832255A197,197,0,0,1,77.05961345564559,-181.3031052521343L66.73558285839823,-157.01309493335216A170.6070045455344,170.6070045455344,0,0,0,65.54500228208566,-157.51381741244603Z" fill-rule="evenodd" style="fill: #DB3F29; stroke: #fff; opacity: 1;" id="p-type-functions"></path><path d="M77.05961345564559,-181.3031052521343A197,197,0,0,1,78.42996094413706,-180.71452964911575L67.92233859544405,-156.50337350909038A170.6070045455344,170.6070045455344,0,0,0,66.73558285839823,-157.01309493335216Z" fill-rule="evenodd" style="fill: #DB3F29; stroke: #fff; opacity: 1;" id="p-type-functions"></path><path d="M78.42996094413706,-180.71452964911575A197,197,0,0,1,79.79581334947405,-180.1155966925016L69.10520147628596,-155.9846823534988A170.6070045455344,170.6070045455344,0,0,0,67.92233859544405,-156.50337350909038Z" fill-rule="evenodd" style="fill: #DB3F29; stroke: #fff; opacity: 1;" id="p-type-functions"></path><path d="M79.79581334947405,-180.1155966925016A197,197,0,0,1,81.15709239009092,-179.50634070914109L70.28410370709948,-155.45705119450093A170.6070045455344,170.6070045455344,0,0,0,69.10520147628596,-155.9846823534988Z" fill-rule="evenodd" style="fill: #DB3F29; stroke: #fff; opacity: 1;" id="p-type-functions"></path><path d="M81.15709239009092,-179.50634070914109A197,197,0,0,1,82.51372004653686,-178.88679661753056L71.45897772105822,-154.92051027240166A170.6070045455344,170.6070045455344,0,0,0,70.28410370709948,-155.45705119450093Z" fill-rule="evenodd" style="fill: #DB3F29; stroke: #fff; opacity: 1;" id="p-type-functions"></path><path d="M82.51372004653686,-178.88679661753056A197,197,0,0,1,83.86561856594733,-178.25699992581224L72.62975618220625,-154.3750903381542A170.6070045455344,170.6070045455344,0,0,0,71.45897772105822,-154.92051027240166Z" fill-rule="evenodd" style="fill: #DB3F29; stroke: #fff; opacity: 1;" id="p-type-functions"></path><path d="M83.86561856594733,-178.25699992581224A197,197,0,0,1,85.21271046650044,-177.61698672973924L73.7963719893175,-153.8208226515977A170.6070045455344,170.6070045455344,0,0,0,72.62975618220625,-154.3750903381542Z" fill-rule="evenodd" style="fill: #DB3F29; stroke: #fff; opacity: 1;" id="p-type-functions"></path><path d="M85.21271046650044,-177.61698672973924A197,197,0,0,1,86.55491854185779,-176.9667937106065L74.95875827974159,-153.25773897966545A170.6070045455344,170.6070045455344,0,0,0,73.7963719893175,-153.8208226515977Z" fill-rule="evenodd" style="fill: #DB3F29; stroke: #fff; opacity: 1;" id="p-type-functions"></path><path d="M86.55491854185779,-176.9667937106065A197,197,0,0,1,87.89216586558929,-176.30645813314877L76.11684843323583,-152.6858715945644A170.6070045455344,170.6070045455344,0,0,0,74.95875827974159,-153.25773897966545Z" fill-rule="evenodd" style="fill: #DB3F29; stroke: #fff; opacity: 1;" id="p-type-functions"></path><path d="M87.89216586558929,-176.30645813314877A197,197,0,0,1,89.22437579558205,-175.63601784340463L77.27057607578344,-152.10525327192536A170.6070045455344,170.6070045455344,0,0,0,76.11684843323583,-152.6858715945644Z" fill-rule="evenodd" style="fill: #DB3F29; stroke: #fff; opacity: 1;" id="p-type-functions"></path><path d="M89.22437579558205,-175.63601784340463A197,197,0,0,1,90.55147197843304,-174.95551126654757L78.41987508339776,-151.51591728892475A170.6070045455344,170.6070045455344,0,0,0,77.27057607578344,-152.10525327192536Z" fill-rule="evenodd" style="fill: #DB3F29; stroke: #fff; opacity: 1;" id="p-type-functions"></path><path d="M90.55147197843304,-174.95551126654757A197,197,0,0,1,91.87337835382526,-174.26497740468358L79.56467958591202,-150.91789742237717A170.6070045455344,170.6070045455344,0,0,0,78.41987508339776,-151.51591728892475Z" fill-rule="evenodd" style="fill: #DB3F29; stroke: #fff; opacity: 1;" id="p-type-functions"></path><path d="M91.87337835382526,-174.26497740468358A197,197,0,0,1,93.19001915888687,-173.56445583461579L80.70492397075458,-150.3112279467995A170.6070045455344,170.6070045455344,0,0,0,79.56467958591202,-150.91789742237717Z" fill-rule="evenodd" style="fill: #DB3F29; stroke: #fff; opacity: 1;" id="p-type-functions"></path><path d="M93.19001915888687,-173.56445583461579A197,197,0,0,1,94.50131893253347,-172.85398670557643L81.8405428867093,-149.6959436324468A170.6070045455344,170.6070045455344,0,0,0,80.70492397075458,-150.3112279467995Z" fill-rule="evenodd" style="fill: #DB3F29; stroke: #fff; opacity: 1;" id="p-type-functions"></path><path d="M94.50131893253347,-172.85398670557643A197,197,0,0,1,95.80720251979291,-172.13361073692548L82.97147124766114,-149.07207974331925A170.6070045455344,170.6070045455344,0,0,0,81.8405428867093,-149.6959436324468Z" fill-rule="evenodd" style="fill: #DB3F29; stroke: #fff; opacity: 1;" id="p-type-functions"></path><path d="M95.80720251979291,-172.13361073692548A197,197,0,0,1,97.10759507611296,-171.403369215817L84.09764423632649,-148.43967203514114A170.6070045455344,170.6070045455344,0,0,0,82.97147124766114,-149.07207974331925Z" fill-rule="evenodd" style="fill: #DB3F29; stroke: #fff; opacity: 1;" id="p-type-functions"></path><path d="M97.10759507611296,-171.403369215817A197,197,0,0,1,98.40242207165063,-170.66330399483283L85.218997307968,-147.7987567533115A170.6070045455344,170.6070045455344,0,0,0,84.09764423632649,-148.43967203514114Z" fill-rule="evenodd" style="fill: #DB3F29; stroke: #fff; opacity: 1;" id="p-type-functions"></path><path d="M98.40242207165063,-170.66330399483283A197,197,0,0,1,99.69160929554387,-169.9134574895839L86.33546619409387,-147.14937063082692A170.6070045455344,170.6070045455344,0,0,0,85.218997307968,-147.7987567533115Z" fill-rule="evenodd" style="fill: #DB3F29; stroke: #fff; opacity: 1;" id="p-type-functions"></path><path d="M99.69160929554387,-169.9134574895839A197,197,0,0,1,100.9750828601646,-169.15387267627924L87.4469869061412,-146.49155088617624A170.6070045455344,170.6070045455344,0,0,0,86.33546619409387,-147.14937063082692Z" fill-rule="evenodd" style="fill: #DB3F29; stroke: #fff; opacity: 1;" id="p-type-functions"></path><path d="M100.9750828601646,-169.15387267627924A197,197,0,0,1,102.25276920535394,-168.38459308926284L88.55349573914367,-145.82533522120724A170.6070045455344,170.6070045455344,0,0,0,87.4469869061412,-146.49155088617624Z" fill-rule="evenodd" style="fill: #DB3F29; stroke: #fff; opacity: 1;" id="p-type-functions"></path><path d="M102.25276920535394,-168.38459308926284A197,197,0,0,1,103.52459510263772,-167.6056628185185L89.65492927538236,-145.15076181896598A170.6070045455344,170.6070045455344,0,0,0,88.55349573914367,-145.82533522120724Z" fill-rule="evenodd" style="fill: #DB3F29; stroke: #fff; opacity: 1;" id="p-type-functions"></path><path d="M103.52459510263772,-167.6056628185185A197,197,0,0,1,104.79048765942363,-166.8171265071431L90.75122438802059,-144.46786934150836A170.6070045455344,170.6070045455344,0,0,0,89.65492927538236,-145.15076181896598Z" fill-rule="evenodd" style="fill: #DB3F29; stroke: #fff; opacity: 1;" id="p-type-functions"></path><path d="M104.79048765942363,-166.8171265071431A197,197,0,0,1,106.05037432317893,-166.01902934878768L91.8423182447219,-143.7766969276844A170.6070045455344,170.6070045455344,0,0,0,90.75122438802059,-144.46786934150836Z" fill-rule="evenodd" style="fill: #DB3F29; stroke: #fff; opacity: 1;" id="p-type-functions"></path><path d="M106.05037432317893,-166.01902934878768A197,197,0,0,1,107.30418288558873,-165.21141708506747L92.92814831125123,-143.07728419089486A170.6070045455344,170.6070045455344,0,0,0,91.8423182447219,-143.7766969276844Z" fill-rule="evenodd" style="fill: #DB3F29; stroke: #fff; opacity: 1;" id="p-type-functions"></path><path d="M107.30418288558873,-165.21141708506747A197,197,0,0,1,108.55184148669443,-164.3943360029401L94.00865235505891,-142.36967121682088A170.6070045455344,170.6070045455344,0,0,0,92.92814831125123,-143.07728419089486Z" fill-rule="evenodd" style="fill: #DB3F29; stroke: #fff; opacity: 1;" id="p-type-functions"></path><path d="M108.55184148669443,-164.3943360029401A197,197,0,0,1,109.79327861901223,-163.56783293205285L95.08376844884744,-141.65389856112665A170.6070045455344,170.6070045455344,0,0,0,94.00865235505891,-142.36967121682088Z" fill-rule="evenodd" style="fill: #DB3F29; stroke: #fff; opacity: 1;" id="p-type-functions"></path><path d="M109.79327861901223,-163.56783293205285A197,197,0,0,1,111.0284231316315,-162.73195524205872L96.15343497412067,-140.93000724713508A170.6070045455344,170.6070045455344,0,0,0,95.08376844884744,-141.65389856112665Z" fill-rule="evenodd" style="fill: #DB3F29; stroke: #fff; opacity: 1;" id="p-type-functions"></path><path d="M111.0284231316315,-162.73195524205872A197,197,0,0,1,112.2572042342927,-161.88675083990137L97.21759062471553,-140.19803876347638A170.6070045455344,170.6070045455344,0,0,0,96.15343497412067,-140.93000724713508Z" fill-rule="evenodd" style="fill: #DB3F29; stroke: #fff; opacity: 1;" id="p-type-functions"></path><path d="M112.2572042342927,-161.88675083990137A197,197,0,0,1,113.47955150144456,-161.0322681670695L98.27617441031552,-139.45803506171038A170.6070045455344,170.6070045455344,0,0,0,97.21759062471553,-140.19803876347638Z" fill-rule="evenodd" style="fill: #DB3F29; stroke: #fff; opacity: 1;" id="p-type-functions"></path><path d="M113.47955150144456,-161.0322681670695A197,197,0,0,1,114.69539487628045,-160.16855619682065L99.3291256599464,-138.71003855392215A170.6070045455344,170.6070045455344,0,0,0,98.27617441031552,-139.45803506171038Z" fill-rule="evenodd" style="fill: #DB3F29; stroke: #fff; opacity: 1;" id="p-type-functions"></path><path d="M114.69539487628045,-160.16855619682065A197,197,0,0,1,115.9046646747535,-159.29566443137412L100.37638402545336,-137.9540921102912A170.6070045455344,170.6070045455344,0,0,0,99.3291256599464,-138.71003855392215Z" fill-rule="evenodd" style="fill: #DB3F29; stroke: #fff; opacity: 1;" id="p-type-functions"></path><path d="M115.9046646747535,-159.29566443137412A197,197,0,0,1,117.10729158957051,-158.41364289907392L101.41788948495979,-137.19023905663437A170.6070045455344,170.6070045455344,0,0,0,100.37638402545336,-137.9540921102912Z" fill-rule="evenodd" style="fill: #DB3F29; stroke: #fff; opacity: 1;" id="p-type-functions"></path><path d="M117.10729158957051,-158.41364289907392A197,197,0,0,1,118.30320669416409,-157.52254215152155L102.45358234630736,-136.41852317192271A170.6070045455344,170.6070045455344,0,0,0,101.41788948495979,-137.19023905663437Z" fill-rule="evenodd" style="fill: #DB3F29; stroke: #fff; opacity: 1;" id="p-type-functions"></path><path d="M118.30320669416409,-157.52254215152155A197,197,0,0,1,119.4923414466432,-156.62241326067874L103.4834032504772,-135.63898868577252A170.6070045455344,170.6070045455344,0,0,0,102.45358234630736,-136.41852317192271Z" fill-rule="evenodd" style="fill: #DB3F29; stroke: #fff; opacity: 1;" id="p-type-functions"></path><path d="M119.4923414466432,-156.62241326067874A197,197,0,0,1,120.67462769372135,-155.71330781594017L104.50729317499183,-134.85168027591018A170.6070045455344,170.6070045455344,0,0,0,103.4834032504772,-135.63898868577252Z" fill-rule="evenodd" style="fill: #DB3F29; stroke: #fff; opacity: 1;" id="p-type-functions"></path><path d="M120.67462769372135,-155.71330781594017A197,197,0,0,1,121.84999767462287,-154.7952779211769L105.52519343729817,-134.05664306561164A170.6070045455344,170.6070045455344,0,0,0,104.50729317499183,-134.85168027591018Z" fill-rule="evenodd" style="fill: #DB3F29; stroke: #fff; opacity: 1;" id="p-type-functions"></path><path d="M121.84999767462287,-154.7952779211769A197,197,0,0,1,123.01838402496634,-153.86837619175003L106.5370456981306,-133.25392262111623A170.6070045455344,170.6070045455344,0,0,0,105.52519343729817,-134.05664306561164Z" fill-rule="evenodd" style="fill: #DB3F29; stroke: #fff; opacity: 1;" id="p-type-functions"></path><path d="M123.01838402496634,-153.86837619175003A197,197,0,0,1,124.17971978062558,-152.9326557514951L107.5427919648547,-132.4435649490151A170.6070045455344,170.6070045455344,0,0,0,106.5370456981306,-133.25392262111623Z" fill-rule="evenodd" style="fill: #DB3F29; stroke: #fff; opacity: 1;" id="p-type-functions"></path><path d="M124.17971978062558,-152.9326557514951A197,197,0,0,1,125.33393838156752,-151.98817022967754L108.54237459479096,-131.62561649361447A170.6070045455344,170.6070045455344,0,0,0,107.5427919648547,-132.4435649490151Z" fill-rule="evenodd" style="fill: #DB3F29; stroke: #fff; opacity: 1;" id="p-type-functions"></path><path d="M125.33393838156752,-151.98817022967754A197,197,0,0,1,126.48097367566709,-151.03497375791878L109.53573629851854,-130.8001241342737A170.6070045455344,170.6070045455344,0,0,0,108.54237459479096,-131.62561649361447Z" fill-rule="evenodd" style="fill: #DB3F29; stroke: #fff; opacity: 1;" id="p-type-functions"></path><path d="M126.48097367566709,-151.03497375791878A197,197,0,0,1,127.62075992249846,-150.07312096709393L110.52282014315864,-129.9671351827184A170.6070045455344,170.6070045455344,0,0,0,109.53573629851854,-130.8001241342737Z" fill-rule="evenodd" style="fill: #DB3F29; stroke: #fff; opacity: 1;" id="p-type-functions"></path><path d="M127.62075992249846,-150.07312096709393A197,197,0,0,1,128.75323179710298,-149.10266698420077L111.50356955563753,-129.12669738032915A170.6070045455344,170.6070045455344,0,0,0,110.52282014315864,-129.9671351827184Z" fill-rule="evenodd" style="fill: #DB3F29; stroke: #fff; opacity: 1;" id="p-type-functions"></path><path d="M128.75323179710298,-149.10266698420077A197,197,0,0,1,129.87832439373304,-148.1236674292L112.47792832592896,-128.27885889540482A170.6070045455344,170.6070045455344,0,0,0,111.50356955563753,-129.12669738032915Z" fill-rule="evenodd" style="fill: #DB3F29; stroke: #fff; opacity: 1;" id="p-type-functions"></path><path d="M129.87832439373304,-148.1236674292A197,197,0,0,1,130.9959732295722,-147.13617841182776L113.44584061027577,-127.42366832040233A170.6070045455344,170.6070045455344,0,0,0,112.47792832592896,-128.27885889540482Z" fill-rule="evenodd" style="fill: #DB3F29; stroke: #fff; opacity: 1;" id="p-type-functions"></path><path d="M130.9959732295722,-147.13617841182776A197,197,0,0,1,132.10611424843074,-146.14025652837947L114.40725093439042,-126.56117466915128A170.6070045455344,170.6070045455344,0,0,0,113.44584061027577,-127.42366832040233Z" fill-rule="evenodd" style="fill: #DB3F29; stroke: #fff; opacity: 1;" id="p-type-functions"></path><path d="M132.10611424843074,-146.14025652837947A197,197,0,0,1,133.20868382441714,-145.13595885846647L115.36210419663446,-125.69142737404509A170.6070045455344,170.6070045455344,0,0,0,114.40725093439042,-126.56117466915128Z" fill-rule="evenodd" style="fill: #DB3F29; stroke: #fff; opacity: 1;" id="p-type-functions"></path><path d="M133.20868382441714,-145.13595885846647A197,197,0,0,1,134.3036187655844,-144.1233429617443L116.31034567117653,-124.81447628320774A170.6070045455344,170.6070045455344,0,0,0,115.36210419663446,-125.69142737404509Z" fill-rule="evenodd" style="fill: #DB3F29; stroke: #fff; opacity: 1;" id="p-type-functions"></path><path d="M134.3036187655844,-144.1233429617443A197,197,0,0,1,135.3908563175521,-143.10246687461387L117.25192101112897,-123.93037165763673A170.6070045455344,170.6070045455344,0,0,0,116.31034567117653,-124.81447628320774Z" fill-rule="evenodd" style="fill: #DB3F29; stroke: #fff; opacity: 1;" id="p-type-functions"></path><path d="M135.3908563175521,-143.10246687461387A197,197,0,0,1,136.4703341671029,-142.07338910689526L118.18677625166255,-123.03916416832264A170.6070045455344,170.6070045455344,0,0,0,117.25192101112897,-123.93037165763673Z" fill-rule="evenodd" style="fill: #DB3F29; stroke: #fff; opacity: 1;" id="p-type-functions"></path><path d="M136.4703341671029,-142.07338910689526A197,197,0,0,1,137.54199044575387,-141.0361686384743L119.11485781309939,-122.14090489334488A170.6070045455344,170.6070045455344,0,0,0,118.18677625166255,-123.03916416832264Z" fill-rule="evenodd" style="fill: #DB3F29; stroke: #fff; opacity: 1;" id="p-type-functions"></path><path d="M137.54199044575387,-141.0361686384743A197,197,0,0,1,138.60576373330244,-139.9908649159221L120.03611250398374,-121.23564531494422A170.6070045455344,170.6070045455344,0,0,0,119.11485781309939,-122.14090489334488Z" fill-rule="evenodd" style="fill: #DB3F29; stroke: #fff; opacity: 1;" id="p-type-functions"></path><path d="M138.60576373330244,-139.9908649159221A197,197,0,0,1,139.6615930613467,-138.9375378490881L120.95048752413074,-120.32343731657225A170.6070045455344,170.6070045455344,0,0,0,120.03611250398374,-121.23564531494422Z" fill-rule="evenodd" style="fill: #DB3F29; stroke: #fff; opacity: 1;" id="p-type-functions"></path><path d="M139.6615930613467,-138.9375378490881A197,197,0,0,1,140.70941791677956,-137.87624780766654L121.85793046765234,-119.40433317991774A170.6070045455344,170.6070045455344,0,0,0,120.95048752413074,-120.32343731657225Z" fill-rule="evenodd" style="fill: #DB3F29; stroke: #fff; opacity: 1;" id="p-type-functions"></path><path d="M140.70941791677956,-137.87624780766654A197,197,0,0,1,141.74917824525696,-136.8070556177362L122.75838932596102,-118.47838558191016A170.6070045455344,170.6070045455344,0,0,0,121.85793046765234,-119.40433317991774Z" fill-rule="evenodd" style="fill: #DB3F29; stroke: #fff; opacity: 1;" id="p-type-functions"></path><path d="M141.74917824525696,-136.8070556177362A197,197,0,0,1,142.78081445463988,-135.73002255827447L123.65181249075052,-117.54564759170061A170.6070045455344,170.6070045455344,0,0,0,122.75838932596102,-118.47838558191016Z" fill-rule="evenodd" style="fill: #DB3F29; stroke: #fff; opacity: 1;" id="p-type-functions"></path><path d="M142.78081445463988,-135.73002255827447A197,197,0,0,1,143.8042674184097,-134.64521035764514L124.53814875695365,-116.60617266762033A170.6070045455344,170.6070045455344,0,0,0,123.65181249075052,-117.54564759170061Z" fill-rule="evenodd" style="fill: #DB3F29; stroke: #fff; opacity: 1;" id="p-type-functions"></path><path d="M196.9209139906025,5.581543971495553A197,197,0,0,1,196.87301579560847,7.072174456424611L170.49703299865197,6.124682739259117A170.6070045455344,170.6070045455344,0,0,0,170.53851405231222,4.833758871655036Z" fill-rule="evenodd" style="fill: #1DC690; stroke: #fff; opacity: 1;" id="p-type-logs"></path><path d="M196.87301579560847,7.072174456424611A197,197,0,0,1,196.81383415018024,8.562399611402185L170.44578019027338,7.415255580828298A170.6070045455344,170.6070045455344,0,0,0,170.49703299865197,6.124682739259117Z" fill-rule="evenodd" style="fill: #1DC690; stroke: #fff; opacity: 1;" id="p-type-logs"></path><path d="M196.81383415018024,8.562399611402185A197,197,0,0,1,196.74337244621574,10.052134026644696L170.3847585646462,8.705403429320269A170.6070045455344,170.6070045455344,0,0,0,170.44578019027338,7.415255580828298Z" fill-rule="evenodd" style="fill: #1DC690; stroke: #fff; opacity: 1;" id="p-type-logs"></path><path d="M196.74337244621574,10.052134026644696A197,197,0,0,1,196.6616347221107,11.541292320494497L170.3139716191237,9.995052342050487A170.6070045455344,170.6070045455344,0,0,0,170.3847585646462,8.705403429320269Z" fill-rule="evenodd" style="fill: #1DC690; stroke: #fff; opacity: 1;" id="p-type-logs"></path><path d="M196.6616347221107,11.541292320494497A197,197,0,0,1,196.56862566252715,13.029789144313382L170.23342341074226,11.284128404930092A170.6070045455344,170.6070045455344,0,0,0,170.3139716191237,9.995052342050487Z" fill-rule="evenodd" style="fill: #1DC690; stroke: #fff; opacity: 1;" id="p-type-logs"></path><path d="M196.56862566252715,13.029789144313382A197,197,0,0,1,196.46435059812518,14.517539187374208L170.14311855598888,12.57255773670216A170.6070045455344,170.6070045455344,0,0,0,170.23342341074226,11.284128404930092Z" fill-rule="evenodd" style="fill: #1DC690; stroke: #fff; opacity: 1;" id="p-type-logs"></path><path d="M196.46435059812518,14.517539187374208A197,197,0,0,1,196.3488155052572,16.00445718175033L170.0430622305366,13.860266493176088A170.6070045455344,170.6070045455344,0,0,0,170.14311855598888,12.57255773670216Z" fill-rule="evenodd" style="fill: #1DC690; stroke: #fff; opacity: 1;" id="p-type-logs"></path><path d="M196.3488155052572,16.00445718175033A197,197,0,0,1,196.2220270056254,17.49045790720259L169.93326016894775,15.147180871459849A170.6070045455344,170.6070045455344,0,0,0,170.0430622305366,13.860266493176088Z" fill-rule="evenodd" style="fill: #1DC690; stroke: #fff; opacity: 1;" id="p-type-logs"></path><path d="M196.2220270056254,17.49045790720259A197,197,0,0,1,196.08399236590242,18.975456196063583L169.8137186643454,16.43322711418989A170.6070045455344,170.6070045455344,0,0,0,169.93326016894775,15.147180871459849Z" fill-rule="evenodd" style="fill: #1DC690; stroke: #fff; opacity: 1;" id="p-type-logs"></path><path d="M196.08399236590242,18.975456196063583A197,197,0,0,1,195.93471949731475,20.45936693811889L169.68444456805273,17.718331513758404A170.6070045455344,170.6070045455344,0,0,0,169.8137186643454,16.43322711418989Z" fill-rule="evenodd" style="fill: #1DC690; stroke: #fff; opacity: 1;" id="p-type-logs"></path><path d="M195.93471949731475,20.45936693811889A197,197,0,0,1,195.7742169551893,21.942105085485036L169.5454452892001,19.002420416537763A170.6070045455344,170.6070045455344,0,0,0,169.68444456805273,17.718331513758404Z" fill-rule="evenodd" style="fill: #1DC690; stroke: #fff; opacity: 1;" id="p-type-logs"></path><path d="M195.7742169551893,21.942105085485036A197,197,0,0,1,195.60249393846314,23.423585657483873L169.39672879430077,20.285420227101856A170.6070045455344,170.6070045455344,0,0,0,169.5454452892001,19.002420416537763Z" fill-rule="evenodd" style="fill: #1DC690; stroke: #fff; opacity: 1;" id="p-type-logs"></path><path d="M195.60249393846314,23.423585657483873A197,197,0,0,1,195.4195602891562,24.903723745513087L169.23830360679398,21.567257412444082A170.6070045455344,170.6070045455344,0,0,0,169.39672879430077,20.285420227101856Z" fill-rule="evenodd" style="fill: #1DC690; stroke: #fff; opacity: 1;" id="p-type-logs"></path><path d="M195.4195602891562,24.903723745513087A197,197,0,0,1,195.2254264918073,26.382434517912614L169.07017880655667,22.847858506191784A170.6070045455344,170.6070045455344,0,0,0,169.23830360679398,21.567257412444082Z" fill-rule="evenodd" style="fill: #1DC690; stroke: #fff; opacity: 1;" id="p-type-logs"></path><path d="M195.2254264918073,26.382434517912614A197,197,0,0,1,195.020103672873,27.859633224826617L168.89236402938295,24.12715011281683A170.6070045455344,170.6070045455344,0,0,0,169.07017880655667,22.847858506191784Z" fill-rule="evenodd" style="fill: #1DC690; stroke: #fff; opacity: 1;" id="p-type-logs"></path><path d="M195.020103672873,27.859633224826617A197,197,0,0,1,194.80360360009027,29.335235203060783L168.70486946643192,25.405058911842193A170.6070045455344,170.6070045455344,0,0,0,168.89236402938295,24.12715011281683Z" fill-rule="evenodd" style="fill: #1DC690; stroke: #fff; opacity: 1;" id="p-type-logs"></path><path d="M194.80360360009027,29.335235203060783A197,197,0,0,1,194.57593868180172,30.809155880934664L168.5077058636435,26.681511662044155A170.6070045455344,170.6070045455344,0,0,0,168.70486946643192,25.405058911842193Z" fill-rule="evenodd" style="fill: #1DC690; stroke: #fff; opacity: 1;" id="p-type-logs"></path><path d="M194.57593868180172,30.809155880934664A197,197,0,0,1,194.33712196624467,32.281310783128745L168.30088452112273,27.95643520565002A170.6070045455344,170.6070045455344,0,0,0,168.5077058636435,26.681511662044155Z" fill-rule="evenodd" style="fill: #1DC690; stroke: #fff; opacity: 1;" id="p-type-logs"></path><path d="M194.33712196624467,32.281310783128745A197,197,0,0,1,194.0871671408031,33.751615535526014L168.08441729249182,29.229756472531047A170.6070045455344,170.6070045455344,0,0,0,168.30088452112273,27.95643520565002Z" fill-rule="evenodd" style="fill: #1DC690; stroke: #fff; opacity: 1;" id="p-type-logs"></path><path d="M194.0871671408031,33.751615535526014A197,197,0,0,1,193.82608853122338,35.219985870047736L167.85831658421108,30.501402484390315A170.6070045455344,170.6070045455344,0,0,0,168.08441729249182,29.229756472531047Z" fill-rule="evenodd" style="fill: #1DC690; stroke: #fff; opacity: 1;" id="p-type-logs"></path><path d="M193.82608853122338,35.219985870047736A197,197,0,0,1,193.55390110079304,36.68633762948313L167.6225953548676,31.771300358945368A170.6070045455344,170.6070045455344,0,0,0,167.85831658421108,30.501402484390315Z" fill-rule="evenodd" style="fill: #1DC690; stroke: #fff; opacity: 1;" id="p-type-logs"></path><path d="M193.55390110079304,36.68633762948313A197,197,0,0,1,193.27062044948332,38.15058677231268L167.37726711443275,33.03937731410535A170.6070045455344,170.6070045455344,0,0,0,167.6225953548676,31.771300358945368Z" fill-rule="evenodd" style="fill: #1DC690; stroke: #fff; opacity: 1;" id="p-type-logs"></path><path d="M193.27062044948332,38.15058677231268A197,197,0,0,1,192.976262813055,39.61264937752487L167.12234592348793,34.30556067214237A170.6070045455344,170.6070045455344,0,0,0,167.37726711443275,33.03937731410535Z" fill-rule="evenodd" style="fill: #1DC690; stroke: #fff; opacity: 1;" id="p-type-logs"></path><path d="M192.976262813055,39.61264937752487A197,197,0,0,1,192.6708450621279,41.07244164942596L166.85784639241834,35.56977786385691A170.6070045455344,170.6070045455344,0,0,0,167.12234592348793,34.30556067214237Z" fill-rule="evenodd" style="fill: #1DC690; stroke: #fff; opacity: 1;" id="p-type-logs"></path><path d="M192.6708450621279,41.07244164942596A197,197,0,0,1,192.35438470121397,42.5298799224426L166.58378368057606,36.831956432737044A170.6070045455344,170.6070045455344,0,0,0,166.85784639241834,35.56977786385691Z" fill-rule="evenodd" style="fill: #1DC690; stroke: #fff; opacity: 1;" id="p-type-logs"></path><path d="M192.35438470121397,42.5298799224426A197,197,0,0,1,192.02689986771395,43.98488066591699L166.30017349541095,38.09202403911111A170.6070045455344,170.6070045455344,0,0,0,166.58378368057606,36.831956432737044Z" fill-rule="evenodd" style="fill: #1DC690; stroke: #fff; opacity: 1;" id="p-type-logs"></path><path d="M192.02689986771395,43.98488066591699A197,197,0,0,1,191.6884093308781,45.43736048889426L166.00703209157047,39.34990846429375A170.6070045455344,170.6070045455344,0,0,0,166.30017349541095,38.09202403911111Z" fill-rule="evenodd" style="fill: #1DC690; stroke: #fff; opacity: 1;" id="p-type-logs"></path><path d="M191.6884093308781,45.43736048889426A197,197,0,0,1,191.33893249073017,46.887236144901955L165.70437626996804,40.605537614725044A170.6070045455344,170.6070045455344,0,0,0,166.00703209157047,39.34990846429375Z" fill-rule="evenodd" style="fill: #1DC690; stroke: #fff; opacity: 1;" id="p-type-logs"></path><path d="M191.33893249073017,46.887236144901955A197,197,0,0,1,190.9784893769558,48.33442453672112L165.39222337682025,41.85883952610239A170.6070045455344,170.6070045455344,0,0,0,165.70437626996804,40.605537614725044Z" fill-rule="evenodd" style="fill: #1DC690; stroke: #fff; opacity: 1;" id="p-type-logs"></path><path d="M190.9784893769558,48.33442453672112A197,197,0,0,1,190.60710064775427,49.7788427211489L165.07059130265253,43.109742367505035A170.6070045455344,170.6070045455344,0,0,0,165.39222337682025,41.85883952610239Z" fill-rule="evenodd" style="fill: #1DC690; stroke: #fff; opacity: 1;" id="p-type-logs"></path><path d="M190.60710064775427,49.7788427211489A197,197,0,0,1,190.22478758865478,51.22040791375223L164.73949848127384,44.35817444551093A170.6070045455344,170.6070045455344,0,0,0,165.07059130265253,43.109742367505035Z" fill-rule="evenodd" style="fill: #1DC690; stroke: #fff; opacity: 1;" id="p-type-logs"></path><path d="M190.22478758865478,51.22040791375223A197,197,0,0,1,189.83157211129634,52.65903749361264L164.39896388872017,45.60406420830577A170.6070045455344,170.6070045455344,0,0,0,164.73949848127384,44.35817444551093Z" fill-rule="evenodd" style="fill: #1DC690; stroke: #fff; opacity: 1;" id="p-type-logs"></path><path d="M189.83157211129634,52.65903749361264A197,197,0,0,1,189.42747675217197,54.094649008061324L164.0490070421671,46.84734024978379A170.6070045455344,170.6070045455344,0,0,0,164.39896388872017,45.60406420830577Z" fill-rule="evenodd" style="fill: #1DC690; stroke: #fff; opacity: 1;" id="p-type-logs"></path><path d="M189.42747675217197,54.094649008061324A197,197,0,0,1,189.0125246713371,55.52716017740498L163.68964799881087,48.08793131364035A170.6070045455344,170.6070045455344,0,0,0,164.0490070421671,46.84734024978379Z" fill-rule="evenodd" style="fill: #1DC690; stroke: #fff; opacity: 1;" id="p-type-logs"></path><path d="M189.0125246713371,55.52716017740498A197,197,0,0,1,188.5867396510821,56.9564888996414L163.3209073547192,49.325766297455836A170.6070045455344,170.6070045455344,0,0,0,163.68964799881087,48.08793131364035Z" fill-rule="evenodd" style="fill: #1DC690; stroke: #fff; opacity: 1;" id="p-type-logs"></path><path d="M188.5867396510821,56.9564888996414A197,197,0,0,1,188.1501460945694,58.382553255165064L162.94280624365058,50.56077425677082A170.6070045455344,170.6070045455344,0,0,0,163.3209073547192,49.325766297455836Z" fill-rule="evenodd" style="fill: #1DC690; stroke: #fff; opacity: 1;" id="p-type-logs"></path><path d="M188.1501460945694,58.382553255165064A197,197,0,0,1,187.7027690244347,59.805271511462216L162.5553663358433,51.79288440915205A170.6070045455344,170.6070045455344,0,0,0,162.94280624365058,50.56077425677082Z" fill-rule="evenodd" style="fill: #1DC690; stroke: #fff; opacity: 1;" id="p-type-logs"></path><path d="M187.7027690244347,59.805271511462216A197,197,0,0,1,187.2446340813529,61.22456212779523L162.15860983677308,53.02202613824931A170.6070045455344,170.6070045455344,0,0,0,162.5553663358433,51.79288440915205Z" fill-rule="evenodd" style="fill: #1DC690; stroke: #fff; opacity: 1;" id="p-type-logs"></path><path d="M187.2446340813529,61.22456212779523A197,197,0,0,1,186.77576752256854,62.64034375987599L161.75255948588085,54.24812899784264A170.6070045455344,170.6070045455344,0,0,0,162.15860983677308,53.02202613824931Z" fill-rule="evenodd" style="fill: #1DC690; stroke: #fff; opacity: 1;" id="p-type-logs"></path><path d="M186.77576752256854,62.64034375987599A197,197,0,0,1,186.29619622039095,64.05253526452796L161.33723855526907,55.471122715879815A170.6070045455344,170.6070045455344,0,0,0,161.75255948588085,54.24812899784264Z" fill-rule="evenodd" style="fill: #1DC690; stroke: #fff; opacity: 1;" id="p-type-logs"></path><path d="M186.29619622039095,64.05253526452796A197,197,0,0,1,185.80594766065403,65.46105570433684L160.91267084836818,56.690937198503946A170.6070045455344,170.6070045455344,0,0,0,161.33723855526907,55.471122715879815Z" fill-rule="evenodd" style="fill: #1DC690; stroke: #fff; opacity: 1;" id="p-type-logs"></path><path d="M185.80594766065403,65.46105570433684A197,197,0,0,1,185.30504994114108,66.86582435228934L160.47888069857228,57.907502534070716A170.6070045455344,170.6070045455344,0,0,0,160.91267084836818,56.690937198503946Z" fill-rule="evenodd" style="fill: #1DC690; stroke: #fff; opacity: 1;" id="p-type-logs"></path><path d="M185.30504994114108,66.86582435228934A197,197,0,0,1,184.79353176997427,68.26676069639981L160.03589296784443,59.120748997155296A170.6070045455344,170.6070045455344,0,0,0,160.47888069857228,57.907502534070716Z" fill-rule="evenodd" style="fill: #1DC690; stroke: #fff; opacity: 1;" id="p-type-logs"></path><path d="M184.79353176997427,68.26676069639981A197,197,0,0,1,184.2714224639693,69.66378444432486L159.58373304529186,60.33060705254853A170.6070045455344,170.6070045455344,0,0,0,160.03589296784443,59.120748997155296Z" fill-rule="evenodd" style="fill: #1DC690; stroke: #fff; opacity: 1;" id="p-type-logs"></path><path d="M184.2714224639693,69.66378444432486A197,197,0,0,1,183.73875194695526,71.05681552796497L159.12242684571075,61.53700735924223A170.6070045455344,170.6070045455344,0,0,0,159.58373304529186,60.33060705254853Z" fill-rule="evenodd" style="fill: #1DC690; stroke: #fff; opacity: 1;" id="p-type-logs"></path><path d="M183.73875194695526,71.05681552796497A197,197,0,0,1,183.19555074805956,72.4457741080536L158.65200080810092,62.739880774403346A170.6070045455344,170.6070045455344,0,0,0,159.12242684571075,61.53700735924223Z" fill-rule="evenodd" style="fill: #1DC690; stroke: #fff; opacity: 1;" id="p-type-logs"></path><path d="M183.19555074805956,72.4457741080536A197,197,0,0,1,182.64184999995814,73.83058057873298L158.17248189415062,63.93915835733675A170.6070045455344,170.6070045455344,0,0,0,158.65200080810092,62.739880774403346Z" fill-rule="evenodd" style="fill: #1DC690; stroke: #fff; opacity: 1;" id="p-type-logs"></path><path d="M182.64184999995814,73.83058057873298A197,197,0,0,1,182.07768143709123,75.21115557211658L157.68389758669133,65.1347713734365A170.6070045455344,170.6070045455344,0,0,0,158.17248189415062,63.93915835733675Z" fill-rule="evenodd" style="fill: #1DC690; stroke: #fff; opacity: 1;" id="p-type-logs"></path><path d="M182.07768143709123,75.21115557211658A197,197,0,0,1,181.50307739384442,76.58741996283806L157.1862758881223,66.3266512981252A170.6070045455344,170.6070045455344,0,0,0,157.68389758669133,65.1347713734365Z" fill-rule="evenodd" style="fill: #1DC690; stroke: #fff; opacity: 1;" id="p-type-logs"></path><path d="M181.50307739384442,76.58741996283806A197,197,0,0,1,180.9180708026956,77.95929487258603L156.67964531880614,67.51472982078143A170.6070045455344,170.6070045455344,0,0,0,157.1862758881223,66.3266512981252Z" fill-rule="evenodd" style="fill: #1DC690; stroke: #fff; opacity: 1;" id="p-type-logs"></path><path d="M180.9180708026956,77.95929487258603A197,197,0,0,1,180.3226951923275,79.32670167462496L156.1640349154337,68.69893884865478A170.6070045455344,170.6070045455344,0,0,0,156.67964531880614,67.51472982078143Z" fill-rule="evenodd" style="fill: #1DC690; stroke: #fff; opacity: 1;" id="p-type-logs"></path><path d="M180.3226951923275,79.32670167462496A197,197,0,0,1,179.71698468570594,80.6895619983015L155.63947422936025,69.87921051076856A170.6070045455344,170.6070045455344,0,0,0,156.1640349154337,68.69893884865478Z" fill-rule="evenodd" style="fill: #1DC690; stroke: #fff; opacity: 1;" id="p-type-logs"></path><path d="M179.71698468570594,80.6895619983015A197,197,0,0,1,179.10097399812415,82.04779773353616L155.1059933249117,71.05547716180959A170.6070045455344,170.6070045455344,0,0,0,155.63947422936025,69.87921051076856Z" fill-rule="evenodd" style="fill: #1DC690; stroke: #fff; opacity: 1;" id="p-type-logs"></path><path d="M179.10097399812415,82.04779773353616A197,197,0,0,1,178.47469843521318,83.40133103530007L154.5636227776614,72.22767138600538A170.6070045455344,170.6070045455344,0,0,0,155.1059933249117,71.05547716180959Z" fill-rule="evenodd" style="fill: #1DC690; stroke: #fff; opacity: 1;" id="p-type-logs"></path><path d="M178.47469843521318,83.40133103530007A197,197,0,0,1,177.83819389091843,84.75008432807661L154.01239367267792,73.39572600098778A170.6070045455344,170.6070045455344,0,0,0,154.5636227776614,72.22767138600538Z" fill-rule="evenodd" style="fill: #1DC690; stroke: #fff; opacity: 1;" id="p-type-logs"></path><path d="M177.83819389091843,84.75008432807661A197,197,0,0,1,177.19149684544237,86.09398031030734L153.4523376027433,74.55957406164343A170.6070045455344,170.6070045455344,0,0,0,154.01239367267792,73.39572600098778Z" fill-rule="evenodd" style="fill: #1DC690; stroke: #fff; opacity: 1;" id="p-type-logs"></path><path d="M177.19149684544237,86.09398031030734A197,197,0,0,1,176.53464436315372,87.43294195882258L152.88348666654247,75.7191488639507A170.6070045455344,170.6070045455344,0,0,0,153.4523376027433,74.55957406164343Z" fill-rule="evenodd" style="fill: #1DC690; stroke: #fff; opacity: 1;" id="p-type-logs"></path><path d="M176.53464436315372,87.43294195882258A197,197,0,0,1,175.8676740904633,88.76689253325578L152.30587346682356,76.87438394880272A170.6070045455344,170.6070045455344,0,0,0,152.88348666654247,75.7191488639507Z" fill-rule="evenodd" style="fill: #1DC690; stroke: #fff; opacity: 1;" id="p-type-logs"></path><path d="M175.8676740904633,88.76689253325578A197,197,0,0,1,175.1906242536663,90.0957555804418L151.71953110852922,78.0252131058162A170.6070045455344,170.6070045455344,0,0,0,152.30587346682356,76.87438394880272Z" fill-rule="evenodd" style="fill: #1DC690; stroke: #fff; opacity: 1;" id="p-type-logs"></path><path d="M175.1906242536663,90.0957555804418A197,197,0,0,1,174.50353365675136,91.41945493879871L151.12449319689946,79.17157037712644A170.6070045455344,170.6070045455344,0,0,0,151.71953110852922,78.0252131058162Z" fill-rule="evenodd" style="fill: #1DC690; stroke: #fff; opacity: 1;" id="p-type-logs"></path><path d="M174.50353365675136,91.41945493879871A197,197,0,0,1,173.8064416791767,92.7379147426928L150.52079383554548,80.31339006116737A170.6070045455344,170.6070045455344,0,0,0,151.12449319689946,79.17157037712644Z" fill-rule="evenodd" style="fill: #1DC690; stroke: #fff; opacity: 1;" id="p-type-logs"></path><path d="M173.8064416791767,92.7379147426928A197,197,0,0,1,173.09938827361302,94.05105942678675L149.90846762449502,81.45060671643722A170.6070045455344,170.6070045455344,0,0,0,150.52079383554548,80.31339006116737Z" fill-rule="evenodd" style="fill: #1DC690; stroke: #fff; opacity: 1;" id="p-type-logs"></path><path d="M173.09938827361302,94.05105942678675A197,197,0,0,1,172.3824139636538,95.35881373037053L149.2875496582095,82.58315516524921A170.6070045455344,170.6070045455344,0,0,0,149.90846762449502,81.45060671643722Z" fill-rule="evenodd" style="fill: #1DC690; stroke: #fff; opacity: 1;" id="p-type-logs"></path><path d="M172.3824139636538,95.35881373037053A197,197,0,0,1,171.65555984149267,96.66110270167482L148.65807552357256,83.71097049746703A170.6070045455344,170.6070045455344,0,0,0,149.2875496582095,82.58315516524921Z" fill-rule="evenodd" style="fill: #1DC690; stroke: #fff; opacity: 1;" id="p-type-logs"></path><path d="M171.65555984149267,96.66110270167482A197,197,0,0,1,170.9188675655684,97.95785170216678L148.02008129785037,84.83398807422513A170.6070045455344,170.6070045455344,0,0,0,148.65807552357256,83.71097049746703Z" fill-rule="evenodd" style="fill: #1DC690; stroke: #fff; opacity: 1;" id="p-type-logs"></path><path d="M170.9188675655684,97.95785170216678A197,197,0,0,1,170.17237935817707,99.24898641082777L147.37360354662397,85.95214353163338A170.6070045455344,170.6070045455344,0,0,0,148.02008129785037,84.83398807422513Z" fill-rule="evenodd" style="fill: #1DC690; stroke: #fff; opacity: 1;" id="p-type-logs"></path><path d="M170.17237935817707,99.24898641082777A197,197,0,0,1,169.41613800305245,100.53443282841299L146.71867932169368,87.06537278446588A170.6070045455344,170.6070045455344,0,0,0,147.37360354662397,85.95214353163338Z" fill-rule="evenodd" style="fill: #1DC690; stroke: #fff; opacity: 1;" id="p-type-logs"></path><path d="M169.41613800305245,100.53443282841299A197,197,0,0,1,168.65018684291383,101.81411728169263L146.05534615895544,88.17361202983406A170.6070045455344,170.6070045455344,0,0,0,146.71867932169368,87.06537278446588Z" fill-rule="evenodd" style="fill: #1DC690; stroke: #fff; opacity: 1;" id="p-type-logs"></path><path d="M168.65018684291383,101.81411728169263A197,197,0,0,1,167.87456977698167,103.0879664276743L145.3836420762495,89.2767977508433A170.6070045455344,170.6070045455344,0,0,0,146.05534615895544,88.17361202983406Z" fill-rule="evenodd" style="fill: #1DC690; stroke: #fff; opacity: 1;" id="p-type-logs"></path><path d="M167.87456977698167,103.0879664276743A197,197,0,0,1,167.08933125846207,104.35590725780659L144.70360557118144,90.37486672023338A170.6070045455344,170.6070045455344,0,0,0,145.3836420762495,89.2767977508433Z" fill-rule="evenodd" style="fill: #1DC690; stroke: #fff; opacity: 1;" id="p-type-logs"></path><path d="M167.08933125846207,104.35590725780659A197,197,0,0,1,166.29451629199852,105.61786710216334L144.01527561891592,91.46775600400218A170.6070045455344,170.6070045455344,0,0,0,144.70360557118144,90.37486672023338Z" fill-rule="evenodd" style="fill: #1DC690; stroke: #fff; opacity: 1;" id="p-type-logs"></path><path d="M166.29451629199852,105.61786710216334A197,197,0,0,1,165.49017043109282,106.87377363360876L143.31869166994272,92.55540296501272A170.6070045455344,170.6070045455344,0,0,0,144.01527561891592,91.46775600400218Z" fill-rule="evenodd" style="fill: #1DC690; stroke: #fff; opacity: 1;" id="p-type-logs"></path><path d="M165.49017043109282,106.87377363360876A197,197,0,0,1,164.6763397754942,108.12355487194263L142.61389364781576,93.63774526658302A170.6070045455344,170.6070045455344,0,0,0,143.31869166994272,92.55540296501272Z" fill-rule="evenodd" style="fill: #1DC690; stroke: #fff; opacity: 1;" id="p-type-logs"></path><path d="M164.6763397754942,108.12355487194263A197,197,0,0,1,163.85307096855712,109.36713918802567L141.90092194686494,94.71472087605885A170.6070045455344,170.6070045455344,0,0,0,142.61389364781576,93.63774526658302Z" fill-rule="evenodd" style="fill: #1DC690; stroke: #fff; opacity: 1;" id="p-type-logs"></path><path d="M163.85307096855712,109.36713918802567A197,197,0,0,1,163.02041119456806,110.60445530788509L141.179817429881,95.78626806836908A170.6070045455344,170.6070045455344,0,0,0,141.90092194686494,94.71472087605885Z" fill-rule="evenodd" style="fill: #1DC690; stroke: #fff; opacity: 1;" id="p-type-logs"></path><path d="M163.02041119456806,110.60445530788509A197,197,0,0,1,162.17840817604122,111.83543231679917L140.4506214257736,96.85232542956327A170.6070045455344,170.6070045455344,0,0,0,141.179817429881,95.78626806836908Z" fill-rule="evenodd" style="fill: #1DC690; stroke: #fff; opacity: 1;" id="p-type-logs"></path><path d="M162.17840817604122,111.83543231679917A197,197,0,0,1,161.32711017098333,113.05999966336196L139.71337572720245,97.91283186033154A170.6070045455344,170.6070045455344,0,0,0,140.4506214257736,96.85232542956327Z" fill-rule="evenodd" style="fill: #1DC690; stroke: #fff; opacity: 1;" id="p-type-logs"></path><path d="M161.32711017098333,113.05999966336196A197,197,0,0,1,160.46656597012787,114.27808716352665L138.96812258818227,98.96772657950645A170.6070045455344,170.6070045455344,0,0,0,139.71337572720245,97.91283186033154Z" fill-rule="evenodd" style="fill: #1DC690; stroke: #fff; opacity: 1;" id="p-type-logs"></path><path d="M160.46656597012787,114.27808716352665A197,197,0,0,1,159.59682489413876,115.48962500462805L138.21490472166087,100.01694912754641A170.6070045455344,170.6070045455344,0,0,0,138.96812258818227,98.96772657950645Z" fill-rule="evenodd" style="fill: #1DC690; stroke: #fff; opacity: 1;" id="p-type-logs"></path><path d="M159.59682489413876,115.48962500462805A197,197,0,0,1,158.71793679078345,116.69454374938388L137.45376529707124,101.06043937000102A170.6070045455344,170.6070045455344,0,0,0,138.21490472166087,100.01694912754641Z" fill-rule="evenodd" style="fill: #1DC690; stroke: #fff; opacity: 1;" id="p-type-logs"></path><path d="M158.71793679078345,116.69454374938388A197,197,0,0,1,157.8299520320762,117.8927743398743L136.68474793785737,102.09813750095735A170.6070045455344,170.6070045455344,0,0,0,137.45376529707124,101.06043937000102Z" fill-rule="evenodd" style="fill: #1DC690; stroke: #fff; opacity: 1;" id="p-type-logs"></path><path d="M157.8299520320762,117.8927743398743A197,197,0,0,1,156.93292151139096,119.08424810150002L135.90789671897394,103.12998404646783A170.6070045455344,170.6070045455344,0,0,0,136.68474793785737,102.09813750095735Z" fill-rule="evenodd" style="fill: #1DC690; stroke: #fff; opacity: 1;" id="p-type-logs"></path><path d="M156.93292151139096,119.08424810150002A197,197,0,0,1,156.02689664054446,120.26889674691814L135.12325616436038,104.15591986795874A170.6070045455344,170.6070045455344,0,0,0,135.90789671897394,103.12998404646783Z" fill-rule="evenodd" style="fill: #1DC690; stroke: #fff; opacity: 1;" id="p-type-logs"></path><path d="M156.02689664054446,120.26889674691814A197,197,0,0,1,155.1119293468498,121.446652379956L134.33087124438893,105.17588616561976A170.6070045455344,170.6070045455344,0,0,0,135.12325616436038,104.15591986795874Z" fill-rule="evenodd" style="fill: #1DC690; stroke: #fff; opacity: 1;" id="p-type-logs"></path><path d="M155.1119293468498,121.446652379956A197,197,0,0,1,154.18807207014015,122.61744749950257L133.53078737328724,106.18982448177393A170.6070045455344,170.6070045455344,0,0,0,134.33087124438893,105.17588616561976Z" fill-rule="evenodd" style="fill: #1DC690; stroke: #fff; opacity: 1;" id="p-type-logs"></path><path d="M154.18807207014015,122.61744749950257A197,197,0,0,1,153.25537775976332,123.78121500337699L132.72305040653572,107.19767670422796A170.6070045455344,170.6070045455344,0,0,0,133.53078737328724,106.18982448177393Z" fill-rule="evenodd" style="fill: #1DC690; stroke: #fff; opacity: 1;" id="p-type-logs"></path><path d="M153.25537775976332,123.78121500337699A197,197,0,0,1,152.31389987154708,124.93788819217463L131.90770663823912,108.19938506960308A170.6070045455344,170.6070045455344,0,0,0,132.72305040653572,107.19767670422796Z" fill-rule="evenodd" style="fill: #1DC690; stroke: #fff; opacity: 1;" id="p-type-logs"></path><path d="M152.31389987154708,124.93788819217463A197,197,0,0,1,151.36369236473539,126.08740077308973L131.0848027984735,109.19489216664536A170.6070045455344,170.6070045455344,0,0,0,131.90770663823912,108.19938506960308Z" fill-rule="evenodd" style="fill: #1DC690; stroke: #fff; opacity: 1;" id="p-type-logs"></path><path d="M151.36369236473539,126.08740077308973A197,197,0,0,1,150.4048096988958,127.22968686371487L130.25438605060788,110.18414093951637A170.6070045455344,170.6070045455344,0,0,0,131.0848027984735,109.19489216664536Z" fill-rule="evenodd" style="fill: #1DC690; stroke: #fff; opacity: 1;" id="p-type-logs"></path><path d="M38.15217048503941,193.27030782632A197,197,0,0,1,36.61885246246764,193.56668009844057L31.712856489931326,167.63366229146527A170.6070045455344,170.6070045455344,0,0,0,33.040748849558994,167.37699637483152Z" fill-rule="evenodd" style="fill: #D7A449; stroke: #fff; opacity: 1;" id="p-type-tokenTransfers"></path><path d="M36.61885246246764,193.56668009844057A197,197,0,0,1,35.152405893488385,193.83835626598633L30.44287650790276,167.86894075416268A170.6070045455344,170.6070045455344,0,0,0,31.712856489931326,167.63366229146527Z" fill-rule="evenodd" style="fill: #D7A449; stroke: #fff; opacity: 1;" id="p-type-tokenTransfers"></path><path d="M35.152405893488385,193.83835626598633A197,197,0,0,1,33.68394462265709,194.09892290957663L29.171151742889272,168.09459808689073A170.6070045455344,170.6070045455344,0,0,0,30.44287650790276,167.86894075416268Z" fill-rule="evenodd" style="fill: #D7A449; stroke: #fff; opacity: 1;" id="p-type-tokenTransfers"></path><path d="M33.68394462265709,194.09892290957663A197,197,0,0,1,32.21355281239639,194.34836509526636L27.89775508168692,168.31062135647355A170.6070045455344,170.6070045455344,0,0,0,29.171151742889272,168.09459808689073Z" fill-rule="evenodd" style="fill: #D7A449; stroke: #fff; opacity: 1;" id="p-type-tokenTransfers"></path><path d="M32.21355281239639,194.34836509526636A197,197,0,0,1,30.74131473577462,194.5866685266903L26.622759506913727,168.51699818189567A170.6070045455344,170.6070045455344,0,0,0,27.89775508168692,168.31062135647355Z" fill-rule="evenodd" style="fill: #D7A449; stroke: #fff; opacity: 1;" id="p-type-tokenTransfers"></path><path d="M30.74131473577462,194.5866685266903A197,197,0,0,1,29.267314771675785,194.81381954588244L25.346238092826788,168.71371673501162A170.6070045455344,170.6070045455344,0,0,0,26.622759506913727,168.51699818189567Z" fill-rule="evenodd" style="fill: #D7A449; stroke: #fff; opacity: 1;" id="p-type-tokenTransfers"></path><path d="M29.267314771675785,194.81381954588244A197,197,0,0,1,27.79163739996356,195.0298051340588L24.068264001134146,168.90076574122364A170.6070045455344,170.6070045455344,0,0,0,25.346238092826788,168.71371673501162Z" fill-rule="evenodd" style="fill: #D7A449; stroke: #fff; opacity: 1;" id="p-type-tokenTransfers"></path><path d="M27.79163739996356,195.0298051340588A197,197,0,0,1,26.314367196639445,195.23461291236353L22.78891047680166,169.0781344801282A170.6070045455344,170.6070045455344,0,0,0,24.068264001134146,168.90076574122364Z" fill-rule="evenodd" style="fill: #D7A449; stroke: #fff; opacity: 1;" id="p-type-tokenTransfers"></path><path d="M26.314367196639445,195.23461291236353A197,197,0,0,1,24.83558882899545,195.42823114257845L21.508250843855077,169.2458127861301A170.6070045455344,170.6070045455344,0,0,0,22.78891047680166,169.0781344801282Z" fill-rule="evenodd" style="fill: #D7A449; stroke: #fff; opacity: 1;" id="p-type-tokenTransfers"></path><path d="M24.83558882899545,195.42823114257845A197,197,0,0,1,23.355387050761525,195.6106487277958L20.2263585011776,169.40379104902536A170.6070045455344,170.6070045455344,0,0,0,21.508250843855077,169.2458127861301Z" fill-rule="evenodd" style="fill: #D7A449; stroke: #fff; opacity: 1;" id="p-type-tokenTransfers"></path><path d="M23.355387050761525,195.6106487277958A197,197,0,0,1,21.873846697248034,195.78185521305414L18.943306918303136,169.55206021455172A170.6070045455344,170.6070045455344,0,0,0,20.2263585011776,169.40379104902536Z" fill-rule="evenodd" style="fill: #D7A449; stroke: #fff; opacity: 1;" id="p-type-tokenTransfers"></path><path d="M21.873846697248034,195.78185521305414A197,197,0,0,1,20.391052680483558,195.94184078593764L17.659169631205533,169.69061178490784A170.6070045455344,170.6070045455344,0,0,0,18.943306918303136,169.55206021455172Z" fill-rule="evenodd" style="fill: #D7A449; stroke: #fff; opacity: 1;" id="p-type-tokenTransfers"></path><path d="M20.391052680483558,195.94184078593764A197,197,0,0,1,18.90708998434832,196.0905962771386L16.37402023808397,169.81943781924028A170.6070045455344,170.6070045455344,0,0,0,17.659169631205533,169.69061178490784Z" fill-rule="evenodd" style="fill: #D7A449; stroke: #fff; opacity: 1;" id="p-type-tokenTransfers"></path><path d="M18.90708998434832,196.0905962771386A197,197,0,0,1,17.42204365970345,196.2281131609826L15.0879323951448,169.93853093409845A170.6070045455344,170.6070045455344,0,0,0,16.37402023808397,169.81943781924028Z" fill-rule="evenodd" style="fill: #D7A449; stroke: #fff; opacity: 1;" id="p-type-tokenTransfers"></path><path d="M17.42204365970345,196.2281131609826A197,197,0,0,1,15.935998819516463,196.3543835559175L13.800979812380083,170.04788430385798A170.6070045455344,170.6070045455344,0,0,0,15.0879323951448,169.93853093409845Z" fill-rule="evenodd" style="fill: #D7A449; stroke: #fff; opacity: 1;" id="p-type-tokenTransfers"></path><path d="M15.935998819516463,196.3543835559175A197,197,0,0,1,14.449040633983124,196.46940022496506L12.513236249342997,170.14749166111184A170.6070045455344,170.6070045455344,0,0,0,13.800979812380083,170.04788430385798Z" fill-rule="evenodd" style="fill: #D7A449; stroke: #fff; opacity: 1;" id="p-type-tokenTransfers"></path><path d="M14.449040633983124,196.46940022496506A197,197,0,0,1,12.961254325646081,196.5731565761356L11.224775510920448,170.23734729702952A170.6070045455344,170.6070045455344,0,0,0,12.513236249342997,170.14749166111184Z" fill-rule="evenodd" style="fill: #D7A449; stroke: #fff; opacity: 1;" id="p-type-tokenTransfers"></path><path d="M12.961254325646081,196.5731565761356A197,197,0,0,1,11.472725164510457,196.6656466628059L9.93567144310306,170.3174460616842A170.6070045455344,170.6070045455344,0,0,0,11.224775510920448,170.23734729702952Z" fill-rule="evenodd" style="fill: #D7A449; stroke: #fff; opacity: 1;" id="p-type-tokenTransfers"></path><path d="M11.472725164510457,196.6656466628059A197,197,0,0,1,9.983538463156764,196.74686518405997L8.645997928752811,170.38778336434805A170.6070045455344,170.6070045455344,0,0,0,9.93567144310306,170.3174460616842Z" fill-rule="evenodd" style="fill: #D7A449; stroke: #fff; opacity: 1;" id="p-type-tokenTransfers"></path><path d="M9.983538463156764,196.74686518405997A197,197,0,0,1,8.493779571851334,196.816807484993L7.355828883368568,170.44835517375517A170.6070045455344,170.6070045455344,0,0,0,8.645997928752811,170.38778336434805Z" fill-rule="evenodd" style="fill: #D7A449; stroke: #fff; opacity: 1;" id="p-type-tokenTransfers"></path><path d="M8.493779571851334,196.816807484993A197,197,0,0,1,7.003533873654616,196.875469556978L6.065238250849733,170.49915801833282A170.6070045455344,170.6070045455344,0,0,0,7.355828883368568,170.44835517375517Z" fill-rule="evenodd" style="fill: #D7A449; stroke: #fff; opacity: 1;" id="p-type-tokenTransfers"></path><path d="M7.003533873654616,196.875469556978A197,197,0,0,1,5.5128867795275935,196.92284803789556L4.774299999258278,170.54018898640015A170.6070045455344,170.6070045455344,0,0,0,6.065238250849733,170.49915801833282Z" fill-rule="evenodd" style="fill: #D7A449; stroke: #fff; opacity: 1;" id="p-type-tokenTransfers"></path><path d="M5.5128867795275935,196.92284803789556A197,197,0,0,1,4.021923723436587,196.95894021232664L3.4830881165793834,170.57144572633527A170.6070045455344,170.6070045455344,0,0,0,4.774299999258278,170.54018898640015Z" fill-rule="evenodd" style="fill: #D7A449; stroke: #fff; opacity: 1;" id="p-type-tokenTransfers"></path><path d="M4.021923723436587,196.95894021232664A197,197,0,0,1,2.5307301574567584,196.98374401170807L2.191676606480945,170.59292644670998A170.6070045455344,170.6070045455344,0,0,0,3.4830881165793834,170.57144572633527Z" fill-rule="evenodd" style="fill: #D7A449; stroke: #fff; opacity: 1;" id="p-type-tokenTransfers"></path><path d="M2.5307301574567584,196.98374401170807A197,197,0,0,1,1.039391546874557,196.99725801445126L0.9001394840721704,170.60462991639238A170.6070045455344,170.6070045455344,0,0,0,2.191676606480945,170.59292644670998Z" fill-rule="evenodd" style="fill: #D7A449; stroke: #fff; opacity: 1;" id="p-type-tokenTransfers"></path><path d="M1.039391546874557,196.99725801445126A197,197,0,0,1,-0.4520066347105749,196.99948144602354L-0.39144922833847084,170.60655546461757A170.6070045455344,170.6070045455344,0,0,0,0.9001394840721704,170.60462991639238Z" fill-rule="evenodd" style="fill: #D7A449; stroke: #fff; opacity: 1;" id="p-type-tokenTransfers"></path><path d="M-0.4520066347105749,196.99948144602354A197,197,0,0,1,-1.9433789102849817,196.99041417899264L-1.6830155054857137,170.5987029810259A170.6070045455344,170.6070045455344,0,0,0,-0.39144922833847084,170.60655546461757Z" fill-rule="evenodd" style="fill: #D7A449; stroke: #fff; opacity: 1;" id="p-type-tokenTransfers"></path><path d="M-1.9433789102849817,196.99041417899264A197,197,0,0,1,-3.434639804319768,196.97005673303389L-2.9744853233901325,170.58107291566944A170.6070045455344,170.6070045455344,0,0,0,-1.6830155054857137,170.5987029810259Z" fill-rule="evenodd" style="fill: #D7A449; stroke: #fff; opacity: 1;" id="p-type-tokenTransfers"></path><path d="M-3.434639804319768,196.97005673303389A197,197,0,0,1,-4.925703847669688,196.93841027490055L-4.265784663600704,170.55366627898619A170.6070045455344,170.6070045455344,0,0,0,-2.9744853233901325,170.58107291566944Z" fill-rule="evenodd" style="fill: #D7A449; stroke: #fff; opacity: 1;" id="p-type-tokenTransfers"></path><path d="M-4.925703847669688,196.93841027490055A197,197,0,0,1,-6.416485582471664,196.8954766183569L-5.556839517437051,170.51648464174204A170.6070045455344,170.6070045455344,0,0,0,-4.265784663600704,170.55366627898619Z" fill-rule="evenodd" style="fill: #D7A449; stroke: #fff; opacity: 1;" id="p-type-tokenTransfers"></path><path d="M-6.416485582471664,196.8954766183569A197,197,0,0,1,-7.9068995670426645,196.84125822407432L-6.847575890231127,170.4695301349409A170.6070045455344,170.6070045455344,0,0,0,-5.556839517437051,170.51648464174204Z" fill-rule="evenodd" style="fill: #D7A449; stroke: #fff; opacity: 1;" id="p-type-tokenTransfers"></path><path d="M-7.9068995670426645,196.84125822407432A197,197,0,0,1,-9.396860380776658,196.77575819949007L-8.1379198055681,170.41280544970246A170.6070045455344,170.6070045455344,0,0,0,-6.847575890231127,170.4695301349409Z" fill-rule="evenodd" style="fill: #D7A449; stroke: #fff; opacity: 1;" id="p-type-tokenTransfers"></path><path d="M-9.396860380776658,196.77575819949007A197,197,0,0,1,-10.88628262904034,196.69898029862955L-9.42779730952618,170.346313837108A170.6070045455344,170.6070045455344,0,0,0,-8.1379198055681,170.41280544970246Z" fill-rule="evenodd" style="fill: #D7A449; stroke: #fff; opacity: 1;" id="p-type-tokenTransfers"></path><path d="M-10.88628262904034,196.69898029862955A197,197,0,0,1,-12.3750809480674,196.61092892189075L-10.717134474915184,170.270059108014A170.6070045455344,170.6070045455344,0,0,0,-9.42779730952618,170.346313837108Z" fill-rule="evenodd" style="fill: #D7A449; stroke: #fff; opacity: 1;" id="p-type-tokenTransfers"></path><path d="M-12.3750809480674,196.61092892189075A197,197,0,0,1,-13.863170009850991,196.51160911579234L-12.005857405513524,170.18404563283383A170.6070045455344,170.6070045455344,0,0,0,-10.717134474915184,170.270059108014Z" fill-rule="evenodd" style="fill: #D7A449; stroke: #fff; opacity: 1;" id="p-type-tokenTransfers"></path><path d="M-13.863170009850991,196.51160911579234A197,197,0,0,1,-15.350464527034175,196.40102657268434L-13.293892240303473,170.0882783412872A170.6070045455344,170.6070045455344,0,0,0,-12.005857405513524,170.18404563283383Z" fill-rule="evenodd" style="fill: #D7A449; stroke: #fff; opacity: 1;" id="p-type-tokenTransfers"></path><path d="M-15.350464527034175,196.40102657268434A197,197,0,0,1,-16.836879257798014,196.2791876304218L-14.581165157704365,169.98276272211766A170.6070045455344,170.6070045455344,0,0,0,-13.293892240303473,170.0882783412872Z" fill-rule="evenodd" style="fill: #D7A449; stroke: #fff; opacity: 1;" id="p-type-tokenTransfers"></path><path d="M-16.836879257798014,196.2791876304218A197,197,0,0,1,-18.322329010747076,196.14609927200166L-15.867602379803571,169.86750482277782A170.6070045455344,170.6070045455344,0,0,0,-14.581165157704365,169.98276272211766Z" fill-rule="evenodd" style="fill: #D7A449; stroke: #fff; opacity: 1;" id="p-type-tokenTransfers"></path><path d="M-18.322329010747076,196.14609927200166A197,197,0,0,1,-19.806728649792028,196.0017691251625L-17.15313017658495,169.74251124908318A170.6070045455344,170.6070045455344,0,0,0,-15.867602379803571,169.86750482277782Z" fill-rule="evenodd" style="fill: #D7A449; stroke: #fff; opacity: 1;" id="p-type-tokenTransfers"></path><path d="M-19.806728649792028,196.0017691251625A197,197,0,0,1,-21.289993099029072,195.84620546194733L-18.437674870154563,169.60778916483306A170.6070045455344,170.6070045455344,0,0,0,-17.15313017658495,169.74251124908318Z" fill-rule="evenodd" style="fill: #D7A449; stroke: #fff; opacity: 1;" id="p-type-tokenTransfers"></path><path d="M-21.289993099029072,195.84620546194733A197,197,0,0,1,-22.77203734761594,195.67941719822957L-19.72116283896341,169.4633462914004A170.6070045455344,170.6070045455344,0,0,0,-18.437674870154563,169.60778916483306Z" fill-rule="evenodd" style="fill: #D7A449; stroke: #fff; opacity: 1;" id="p-type-tokenTransfers"></path><path d="M-22.77203734761594,195.67941719822957A197,197,0,0,1,-24.252776454644124,195.50141389320197L-21.003520522026903,169.3091909072889A170.6070045455344,170.6070045455344,0,0,0,-19.72116283896341,169.4633462914004Z" fill-rule="evenodd" style="fill: #D7A449; stroke: #fff; opacity: 1;" id="p-type-tokenTransfers"></path><path d="M-24.252776454644124,195.50141389320197A197,197,0,0,1,-25.73212555400717,195.31220574882875L-22.28467442314093,169.14533184765875A170.6070045455344,170.6070045455344,0,0,0,-21.003520522026903,169.3091909072889Z" fill-rule="evenodd" style="fill: #D7A449; stroke: #fff; opacity: 1;" id="p-type-tokenTransfers"></path><path d="M-25.73212555400717,195.31220574882875A197,197,0,0,1,-27.20999985926457,195.11180360926096L-23.56455111509412,168.9717785038203A170.6070045455344,170.6070045455344,0,0,0,-22.28467442314093,169.14533184765875Z" fill-rule="evenodd" style="fill: #D7A449; stroke: #fff; opacity: 1;" id="p-type-tokenTransfers"></path><path d="M-27.20999985926457,195.11180360926096A197,197,0,0,1,-28.68631466850123,194.90021896021494L-24.84307724387624,168.78854082269564A170.6070045455344,170.6070045455344,0,0,0,-23.56455111509412,168.9717785038203Z" fill-rule="evenodd" style="fill: #D7A449; stroke: #fff; opacity: 1;" id="p-type-tokenTransfers"></path><path d="M-28.68631466850123,194.90021896021494A197,197,0,0,1,-30.160985369181958,194.67746392831398L-26.12017953288235,168.59562930624858A170.6070045455344,170.6070045455344,0,0,0,-24.84307724387624,168.78854082269564Z" fill-rule="evenodd" style="fill: #D7A449; stroke: #fff; opacity: 1;" id="p-type-tokenTransfers"></path><path d="M-30.160985369181958,194.67746392831398A197,197,0,0,1,-31.633927443000932,194.44355128039334L-27.395784787112515,168.39305501088282A170.6070045455344,170.6070045455344,0,0,0,-26.12017953288235,168.59562930624858Z" fill-rule="evenodd" style="fill: #D7A449; stroke: #fff; opacity: 1;" id="p-type-tokenTransfers"></path><path d="M-31.633927443000932,194.44355128039334A197,197,0,0,1,-33.105056470725714,194.19849442276853L-28.669819897366878,168.18082954680816A170.6070045455344,170.6070045455344,0,0,0,-27.395784787112515,168.39305501088282Z" fill-rule="evenodd" style="fill: #D7A449; stroke: #fff; opacity: 1;" id="p-type-tokenTransfers"></path><path d="M-33.105056470725714,194.19849442276853A197,197,0,0,1,-34.57428813703558,193.942307400467L-29.942211844435764,167.95896507737515A170.6070045455344,170.6070045455344,0,0,0,-28.669819897366878,168.18082954680816Z" fill-rule="evenodd" style="fill: #D7A449; stroke: #fff; opacity: 1;" id="p-type-tokenTransfers"></path><path d="M-34.57428813703558,193.942307400467A197,197,0,0,1,-36.04153823535395,193.6750048964231L-31.21288770328469,167.72747431837794A170.6070045455344,170.6070045455344,0,0,0,-29.942211844435764,167.95896507737515Z" fill-rule="evenodd" style="fill: #D7A449; stroke: #fff; opacity: 1;" id="p-type-tokenTransfers"></path><path d="M-36.04153823535395,193.6750048964231A197,197,0,0,1,-37.50672267267451,193.39660223063663L-32.481774647233905,167.48637053732554A170.6070045455344,170.6070045455344,0,0,0,-31.21288770328469,167.72747431837794Z" fill-rule="evenodd" style="fill: #D7A449; stroke: #fff; opacity: 1;" id="p-type-tokenTransfers"></path><path d="M-37.50672267267451,193.39660223063663A197,197,0,0,1,-38.96975747438089,193.10711535929465L-33.74879995213236,167.23566755268132A170.6070045455344,170.6070045455344,0,0,0,-32.481774647233905,167.48637053732554Z" fill-rule="evenodd" style="fill: #D7A449; stroke: #fff; opacity: 1;" id="p-type-tokenTransfers"></path><path d="M-38.96975747438089,193.10711535929465A197,197,0,0,1,-40.430558789059525,192.8065608738572L-35.01389100052576,166.97537973307112A170.6070045455344,170.6070045455344,0,0,0,-33.74879995213236,167.23566755268132Z" fill-rule="evenodd" style="fill: #D7A449; stroke: #fff; opacity: 1;" id="p-type-tokenTransfers"></path><path d="M-40.430558789059525,192.8065608738572A197,197,0,0,1,-41.88904289330544,192.49495600010619L-36.27697528581851,166.7055219964597A170.6070045455344,170.6070045455344,0,0,0,-35.01389100052576,166.97537973307112Z" fill-rule="evenodd" style="fill: #D7A449; stroke: #fff; opacity: 1;" id="p-type-tokenTransfers"></path><path d="M-41.88904289330544,192.49495600010619A197,197,0,0,1,-43.345126196520745,192.17231859715824L-37.53798041642933,166.42610980929575A170.6070045455344,170.6070045455344,0,0,0,-36.27697528581851,166.7055219964597Z" fill-rule="evenodd" style="fill: #D7A449; stroke: #fff; opacity: 1;" id="p-type-tokenTransfers"></path><path d="M-43.345126196520745,192.17231859715824A197,197,0,0,1,-44.798725245705484,191.8386671564411L-38.796834119940215,166.13715918562542A170.6070045455344,170.6070045455344,0,0,0,-37.53798041642933,166.42610980929575Z" fill-rule="evenodd" style="fill: #D7A449; stroke: #fff; opacity: 1;" id="p-type-tokenTransfers"></path><path d="M-44.798725245705484,191.8386671564411A197,197,0,0,1,-46.249756730240584,191.4940208006338L-40.05346424723866,165.83868668617455A170.6070045455344,170.6070045455344,0,0,0,-38.796834119940215,166.13715918562542Z" fill-rule="evenodd" style="fill: #D7A449; stroke: #fff; opacity: 1;" id="p-type-tokenTransfers"></path><path d="M-46.249756730240584,191.4940208006338A197,197,0,0,1,-47.698137486662695,191.1383992825707L-41.307798776652724,165.53070941739955A170.6070045455344,170.6070045455344,0,0,0,-40.05346424723866,165.83868668617455Z" fill-rule="evenodd" style="fill: #D7A449; stroke: #fff; opacity: 1;" id="p-type-tokenTransfers"></path><path d="M-47.698137486662695,191.1383992825707A197,197,0,0,1,-49.14378450343056,190.7718229841094L-42.55976581807889,165.2132450305068A170.6070045455344,170.6070045455344,0,0,0,-41.307798776652724,165.53070941739955Z" fill-rule="evenodd" style="fill: #D7A449; stroke: #fff; opacity: 1;" id="p-type-tokenTransfers"></path><path d="M-49.14378450343056,190.7718229841094A197,197,0,0,1,-50.58661492568266,190.3943129149626L-43.809293617102234,164.88631172044126A170.6070045455344,170.6070045455344,0,0,0,-42.55976581807889,165.2132450305068Z" fill-rule="evenodd" style="fill: #D7A449; stroke: #fff; opacity: 1;" id="p-type-tokenTransfers"></path><path d="M-50.58661492568266,190.3943129149626A197,197,0,0,1,-52.026546059985925,190.0058907114939L-45.05631055910901,164.54992822484343A170.6070045455344,170.6070045455344,0,0,0,-43.809293617102234,164.88631172044126Z" fill-rule="evenodd" style="fill: #D7A449; stroke: #fff; opacity: 1;" id="p-type-tokenTransfers"></path><path d="M-52.026546059985925,190.0058907114939A197,197,0,0,1,-53.463495379075184,189.60657863547775L-46.30074517339105,164.20411382297553A170.6070045455344,170.6070045455344,0,0,0,-45.05631055910901,164.54992822484343Z" fill-rule="evenodd" style="fill: #D7A449; stroke: #fff; opacity: 1;" id="p-type-tokenTransfers"></path><path d="M-53.463495379075184,189.60657863547775A197,197,0,0,1,-54.89738052658303,189.19639957282365L-47.54252613724205,163.8488883346166A170.6070045455344,170.6070045455344,0,0,0,-46.30074517339105,164.20411382297553Z" fill-rule="evenodd" style="fill: #D7A449; stroke: #fff; opacity: 1;" id="p-type-tokenTransfers"></path><path d="M-54.89738052658303,189.19639957282365A197,197,0,0,1,-56.328119321759985,188.7753770322644L-48.78158228004523,163.4842721189264A170.6070045455344,170.6070045455344,0,0,0,-47.54252613724205,163.8488883346166Z" fill-rule="evenodd" style="fill: #D7A449; stroke: #fff; opacity: 1;" id="p-type-tokenTransfers"></path><path d="M-56.328119321759985,188.7753770322644A197,197,0,0,1,-57.75562976418455,188.34353514400868L-50.01784258735246,163.11028607327873A170.6070045455344,170.6070045455344,0,0,0,-48.78158228004523,163.4842721189264Z" fill-rule="evenodd" style="fill: #D7A449; stroke: #fff; opacity: 1;" id="p-type-tokenTransfers"></path><path d="M-57.75562976418455,188.34353514400868A197,197,0,0,1,-59.17983003846288,187.90089865835833L-51.25123620495427,162.72695163206365A170.6070045455344,170.6070045455344,0,0,0,-50.01784258735246,163.11028607327873Z" fill-rule="evenodd" style="fill: #D7A449; stroke: #fff; opacity: 1;" id="p-type-tokenTransfers"></path><path d="M-59.17983003846288,187.90089865835833A197,197,0,0,1,-60.60063851891796,187.44749294428942L-52.48169244294073,162.33429076545897A170.6070045455344,170.6070045455344,0,0,0,-51.25123620495427,162.72695163206365Z" fill-rule="evenodd" style="fill: #D7A449; stroke: #fff; opacity: 1;" id="p-type-tokenTransfers"></path><path d="M-60.60063851891796,187.44749294428942A197,197,0,0,1,-62.01797377426779,186.98334398799867L-53.709140779752985,161.93232597817112A170.6070045455344,170.6070045455344,0,0,0,-52.48169244294073,162.33429076545897Z" fill-rule="evenodd" style="fill: #D7A449; stroke: #fff; opacity: 1;" id="p-type-tokenTransfers"></path><path d="M-62.01797377426779,186.98334398799867A197,197,0,0,1,-63.431754572292526,186.50847839141375L-54.93351086622504,161.52108030814532A170.6070045455344,170.6070045455344,0,0,0,-53.709140779752985,161.93232597817112Z" fill-rule="evenodd" style="fill: #D7A449; stroke: #fff; opacity: 1;" id="p-type-tokenTransfers"></path><path d="M-63.431754572292526,186.50847839141375A197,197,0,0,1,-64.84189988449013,186.0229233706689L-56.154732529615714,161.10057732524524A170.6070045455344,170.6070045455344,0,0,0,-54.93351086622504,161.52108030814532Z" fill-rule="evenodd" style="fill: #D7A449; stroke: #fff; opacity: 1;" id="p-type-tokenTransfers"></path><path d="M-64.84189988449013,186.0229233706689A197,197,0,0,1,-66.24832889072042,185.52670675454502L-57.372735777630446,160.670841129902A170.6070045455344,170.6070045455344,0,0,0,-56.154732529615714,161.10057732524524Z" fill-rule="evenodd" style="fill: #D7A449; stroke: #fff; opacity: 1;" id="p-type-tokenTransfers"></path><path d="M-66.24832889072042,185.52670675454502A197,197,0,0,1,-67.65096098383714,185.01985698287453L-58.58745080243286,160.231896351733A170.6070045455344,170.6070045455344,0,0,0,-57.372735777630446,160.670841129902Z" fill-rule="evenodd" style="fill: #D7A449; stroke: #fff; opacity: 1;" id="p-type-tokenTransfers"></path><path d="M-67.65096098383714,185.01985698287453A197,197,0,0,1,-69.04971577430777,184.50240310491165L-59.79880798464561,159.78376814813035A170.6070045455344,170.6070045455344,0,0,0,-58.58745080243286,160.231896351733Z" fill-rule="evenodd" style="fill: #D7A449; stroke: #fff; opacity: 1;" id="p-type-tokenTransfers"></path><path d="M-69.04971577430777,184.50240310491165A197,197,0,0,1,-70.44451309482103,183.97437477766732L-61.00673789734056,159.32648220281897A170.6070045455344,170.6070045455344,0,0,0,-59.79880798464561,159.78376814813035Z" fill-rule="evenodd" style="fill: #D7A449; stroke: #fff; opacity: 1;" id="p-type-tokenTransfers"></path><path d="M-70.44451309482103,183.97437477766732A197,197,0,0,1,-71.8352730048814,183.43580226420949L-62.2111713100178,158.86006472438444A170.6070045455344,170.6070045455344,0,0,0,-61.00673789734056,159.32648220281897Z" fill-rule="evenodd" style="fill: #D7A449; stroke: #fff; opacity: 1;" id="p-type-tokenTransfers"></path><path d="M-71.8352730048814,183.43580226420949A197,197,0,0,1,-73.22191579539086,182.88671643192868L-63.41203919257354,158.38454244477117A170.6070045455344,170.6070045455344,0,0,0,-62.2111713100178,158.86006472438444Z" fill-rule="evenodd" style="fill: #D7A449; stroke: #fff; opacity: 1;" id="p-type-tokenTransfers"></path><path d="M-160.9487589810078,113.59796205246576A197,197,0,0,1,-170.59106959061234,98.52759499719282L-147.7361999242293,85.32740024135354A170.6070045455344,170.6070045455344,0,0,0,-139.3857139851316,98.378720955576Z" fill-rule="evenodd" style="fill: #414552; stroke: #fff; opacity: 1;" id="p-type-ether"></path><path d="M-170.59106959061234,98.52759499719282A197,197,0,0,1,-177.55248815655162,85.34702074130998L-153.7649652487094,73.91268809929183A170.6070045455344,170.6070045455344,0,0,0,-147.7361999242293,85.32740024135354Z" fill-rule="evenodd" style="fill: #414552; stroke: #fff; opacity: 1;" id="p-type-ether"></path><path d="M-177.55248815655162,85.34702074130998A197,197,0,0,1,-180.29303513700324,79.39408971130861L-156.1383485540452,68.75729860033398A170.6070045455344,170.6070045455344,0,0,0,-153.7649652487094,73.91268809929183Z" fill-rule="evenodd" style="fill: #414552; stroke: #fff; opacity: 1;" id="p-type-ether"></path><path d="M-180.29303513700324,79.39408971130861A197,197,0,0,1,-181.62115980648687,76.30697419336293L-157.28853825721083,66.08377813737587A170.6070045455344,170.6070045455344,0,0,0,-156.1383485540452,68.75729860033398Z" fill-rule="evenodd" style="fill: #414552; stroke: #fff; opacity: 1;" id="p-type-ether"></path><path d="M-181.62115980648687,76.30697419336293A197,197,0,0,1,-182.55920176434034,74.03470707152745L-158.10090642252763,64.1159370856822A170.6070045455344,170.6070045455344,0,0,0,-157.28853825721083,66.08377813737587Z" fill-rule="evenodd" style="fill: #414552; stroke: #fff; opacity: 1;" id="p-type-ether"></path><path d="M-182.55920176434034,74.03470707152745A197,197,0,0,1,-183.3882781050279,71.9565108497692L-158.8189075952397,62.31616636359071A170.6070045455344,170.6070045455344,0,0,0,-158.10090642252763,64.1159370856822Z" fill-rule="evenodd" style="fill: #414552; stroke: #fff; opacity: 1;" id="p-type-ether"></path><path d="M-183.3882781050279,71.9565108497692A197,197,0,0,1,-184.06021718591307,70.21991490648865L-159.40082390908185,60.812230160600755A170.6070045455344,170.6070045455344,0,0,0,-158.8189075952397,62.31616636359071Z" fill-rule="evenodd" style="fill: #414552; stroke: #fff; opacity: 1;" id="p-type-ether"></path><path d="M-184.06021718591307,70.21991490648865A197,197,0,0,1,-184.62022022490973,68.73408386023515L-159.88580076704943,59.52546272881361A170.6070045455344,170.6070045455344,0,0,0,-159.40082390908185,60.812230160600755Z" fill-rule="evenodd" style="fill: #414552; stroke: #fff; opacity: 1;" id="p-type-ether"></path><path d="M-184.62022022490973,68.73408386023515A197,197,0,0,1,-185.1592974873536,67.26837707266087L-160.3526553709284,58.256123416275A170.6070045455344,170.6070045455344,0,0,0,-159.88580076704943,59.52546272881361Z" fill-rule="evenodd" style="fill: #414552; stroke: #fff; opacity: 1;" id="p-type-ether"></path></g></svg>