<svg xmlns="http://www.w3.org/2000/svg" width="400" height="400" id="block-7824872"><g id="burst-container" transform="translate(200,200)"><circle r="197" style="fill: #f9f9f9; stroke: #f9f9f9; stroke-width: 3; opacity: 1;" id="circle-base"></circle><path display="none" d="M6.031385485800715e-15,-98.5A98.5,98.5,0,1,1,-6.031385485800715e-15,98.5A98.5,98.5,0,1,1,6.031385485800715e-15,-98.5Z" fill-rule="evenodd" id="p-type-root" style="stroke: #fff; opacity: 1;"></path><path d="M8.529667153919608e-15,-139.30003589374985A139.30003589374985,139.30003589374985,0,1,1,-94.0764580310343,-102.73324702517213L-66.52210142375601,-72.64337562481192A98.5,98.5,0,1,0,6.031385485800715e-15,-98.5Z" fill-rule="evenodd" style="fill: #0B1F65; stroke: #fff; opacity: 1;" id="p-type-data"></path><path d="M-94.0764580310343,-102.73324702517213A139.30003589374985,139.30003589374985,0,0,1,-1.3413136410810027,-139.29357802036765L-0.948451971306396,-98.4954335939394A98.5,98.5,0,0,0,-66.52210142375601,-72.64337562481192Z" fill-rule="evenodd" style="fill: #D7A449; stroke: #fff; opacity: 1;" id="p-type-value"></path><path d="M1.0446666101440332e-14,-170.6070045455344A170.6070045455344,170.6070045455344,0,0,1,167.74602528918584,31.11303584801433L136.9640561128361,25.40368739218547A139.30003589374985,139.30003589374985,0,0,0,8.529667153919608e-15,-139.30003589374985Z" fill-rule="evenodd" style="fill: #DB3F29; stroke: #fff; opacity: 1;" id="p-type-functions"></path><path d="M167.74602528918584,31.11303584801433A170.6070045455344,170.6070045455344,0,0,1,37.61133099358872,166.4095483465138L30.709523160406203,135.87282725865563A139.30003589374985,139.30003589374985,0,0,0,136.9640561128361,25.40368739218547Z" fill-rule="evenodd" style="fill: #1DC690; stroke: #fff; opacity: 1;" id="p-type-logs"></path><path d="M37.61133099358872,166.4095483465138A170.6070045455344,170.6070045455344,0,0,1,-126.68993058159842,114.2646554680395L-103.44189515784606,93.29670051053886A139.30003589374985,139.30003589374985,0,0,0,30.709523160406203,135.87282725865563Z" fill-rule="evenodd" style="fill: #D7A449; stroke: #fff; opacity: 1;" id="p-type-tokenTransfers"></path><path d="M-126.68993058159842,114.2646554680395A170.6070045455344,170.6070045455344,0,0,1,-170.3098756541683,-10.064604048929192L-139.0574311698546,-8.217714794342033A139.30003589374985,139.30003589374985,0,0,0,-103.44189515784606,93.29670051053886Z" fill-rule="evenodd" style="fill: #414552; stroke: #fff; opacity: 1;" id="p-type-ether"></path><path d="M-115.21965949219535,-125.8220174154848A170.6070045455344,170.6070045455344,0,0,1,-35.871722845522406,-166.79319380626424L-29.289139055356042,-136.18607246483032A139.30003589374985,139.30003589374985,0,0,0,-94.0764580310343,-102.73324702517213Z" fill-rule="evenodd" style="fill: #D7A449; stroke: #fff; opacity: 1;" id="p-type-tokenTransfers"></path><path d="M-35.871722845522406,-166.79319380626424A170.6070045455344,170.6070045455344,0,0,1,-3.2853816901255724,-170.57536828965132L-2.6825029170300834,-139.27420499898795A139.30003589374985,139.30003589374985,0,0,0,-29.289139055356042,-136.18607246483032Z" fill-rule="evenodd" style="fill: #414552; stroke: #fff; opacity: 1;" id="p-type-ether"></path><path d="M1.206277097160143e-14,-197A197,197,0,0,1,73.49621709640722,-182.77665625707726L63.64959108754482,-158.28922753740488A170.6070045455344,170.6070045455344,0,0,0,1.0446666101440332e-14,-170.6070045455344Z" fill-rule="evenodd" style="fill: #DB3F29; stroke: #fff; opacity: 1;" id="p-type-functions"></path><path d="M73.49621709640722,-182.77665625707726A197,197,0,0,1,80.43031161699844,-179.83315871438316L69.6546930946193,-155.7400838894547A170.6070045455344,170.6070045455344,0,0,0,63.64959108754482,-158.28922753740488Z" fill-rule="evenodd" style="fill: #DB3F29; stroke: #fff; opacity: 1;" id="p-type-functions"></path><path d="M80.43031161699844,-179.83315871438316A197,197,0,0,1,85.16264813319432,-177.64099572717367L73.75301673690169,-153.8416150532953A170.6070045455344,170.6070045455344,0,0,0,69.6546930946193,-155.7400838894547Z" fill-rule="evenodd" style="fill: #DB3F29; stroke: #fff; opacity: 1;" id="p-type-functions"></path><path d="M85.16264813319432,-177.64099572717367A197,197,0,0,1,87.12474390431697,-176.68695197893697L75.45224151935192,-153.01538893100062A170.6070045455344,170.6070045455344,0,0,0,73.75301673690169,-153.8416150532953Z" fill-rule="evenodd" style="fill: #DB3F29; stroke: #fff; opacity: 1;" id="p-type-functions"></path><path d="M87.12474390431697,-176.68695197893697A197,197,0,0,1,88.2721022999032,-176.11654083462867L76.44588303717494,-152.52139838942784A170.6070045455344,170.6070045455344,0,0,0,75.45224151935192,-153.01538893100062Z" fill-rule="evenodd" style="fill: #DB3F29; stroke: #fff; opacity: 1;" id="p-type-functions"></path><path d="M-146.2889310498017,131.9414591866649A197,197,0,0,1,-184.95126798530336,67.83825226690695L-160.17249653741624,58.749649811478704A170.6070045455344,170.6070045455344,0,0,0,-126.68993058159842,114.2646554680395Z" fill-rule="evenodd" style="fill: #414552; stroke: #fff; opacity: 1;" id="p-type-ether"></path><path d="M-184.95126798530336,67.83825226690695A197,197,0,0,1,-190.3749295936892,50.659512257797005L-164.86952527180875,43.872424558581365A170.6070045455344,170.6070045455344,0,0,0,-160.17249653741624,58.749649811478704Z" fill-rule="evenodd" style="fill: #414552; stroke: #fff; opacity: 1;" id="p-type-ether"></path><path d="M-190.3749295936892,50.659512257797005A197,197,0,0,1,-192.17253762304537,43.344155125220794L-166.42629949127812,37.537139444014684A170.6070045455344,170.6070045455344,0,0,0,-164.86952527180875,43.872424558581365Z" fill-rule="evenodd" style="fill: #414552; stroke: #fff; opacity: 1;" id="p-type-ether"></path><path d="M-192.17253762304537,43.344155125220794A197,197,0,0,1,-193.252593823234,38.24179625216548L-167.36165559815635,33.11836704072384A170.6070045455344,170.6070045455344,0,0,0,-166.42629949127812,37.537139444014684Z" fill-rule="evenodd" style="fill: #414552; stroke: #fff; opacity: 1;" id="p-type-ether"></path><path d="M-193.252593823234,38.24179625216548A197,197,0,0,1,-194.12606465078187,33.52716843397983L-168.11810352427742,29.03537958078627A170.6070045455344,170.6070045455344,0,0,0,-167.36165559815635,33.11836704072384Z" fill-rule="evenodd" style="fill: #414552; stroke: #fff; opacity: 1;" id="p-type-ether"></path><path d="M-194.12606465078187,33.52716843397983A197,197,0,0,1,-194.4854625368571,31.37522688084896L-168.42935122368502,27.17174352831559A170.6070045455344,170.6070045455344,0,0,0,-168.11810352427742,29.03537958078627Z" fill-rule="evenodd" style="fill: #414552; stroke: #fff; opacity: 1;" id="p-type-ether"></path><path d="M-194.4854625368571,31.37522688084896A197,197,0,0,1,-194.68541840706368,30.109597467693916L-168.6025180869197,26.075676304746537A170.6070045455344,170.6070045455344,0,0,0,-168.42935122368502,27.17174352831559Z" fill-rule="evenodd" style="fill: #414552; stroke: #fff; opacity: 1;" id="p-type-ether"></path></g></svg>