<svg xmlns="http://www.w3.org/2000/svg" width="400" height="400" id="block-7824881"><g id="burst-container" transform="translate(200,200)"><circle r="197" style="fill: #f9f9f9; stroke: #f9f9f9; stroke-width: 3; opacity: 1;" id="circle-base"></circle><path display="none" d="M6.031385485800715e-15,-98.5A98.5,98.5,0,1,1,-6.031385485800715e-15,98.5A98.5,98.5,0,1,1,6.031385485800715e-15,-98.5Z" fill-rule="evenodd" id="p-type-root" style="stroke: #fff; opacity: 1;"></path><path d="M8.529667153919608e-15,-139.30003589374985A139.30003589374985,139.30003589374985,0,1,1,-99.70506604741178,-97.28000721875618L-70.50212832077747,-68.78735277825879A98.5,98.5,0,1,0,6.031385485800715e-15,-98.5Z" fill-rule="evenodd" style="fill: #0B1F65; stroke: #fff; opacity: 1;" id="p-type-data"></path><path d="M-99.70506604741178,-97.28000721875618A139.30003589374985,139.30003589374985,0,0,1,-2.0388411659082832,-139.28511451946397L-1.441678414176034,-98.48944899505784A98.5,98.5,0,0,0,-70.50212832077747,-68.78735277825879Z" fill-rule="evenodd" style="fill: #D7A449; stroke: #fff; opacity: 1;" id="p-type-value"></path><path d="M1.0446666101440332e-14,-170.6070045455344A170.6070045455344,170.6070045455344,0,0,1,169.8470257390062,-16.085330199077887L138.67951579664202,-13.133617110640595A139.30003589374985,139.30003589374985,0,0,0,8.529667153919608e-15,-139.30003589374985Z" fill-rule="evenodd" style="fill: #DB3F29; stroke: #fff; opacity: 1;" id="p-type-functions"></path><path d="M169.8470257390062,-16.085330199077887A170.6070045455344,170.6070045455344,0,0,1,67.44969941662883,156.707651531782L55.072448958280276,127.95126168091353A139.30003589374985,139.30003589374985,0,0,0,138.67951579664202,-13.133617110640595Z" fill-rule="evenodd" style="fill: #1DC690; stroke: #fff; opacity: 1;" id="p-type-logs"></path><path d="M67.44969941662883,156.707651531782A170.6070045455344,170.6070045455344,0,0,1,-95.79666874970752,141.17276032032103L-78.21765249840212,115.26707612167147A139.30003589374985,139.30003589374985,0,0,0,55.072448958280276,127.95126168091353Z" fill-rule="evenodd" style="fill: #D7A449; stroke: #fff; opacity: 1;" id="p-type-tokenTransfers"></path><path d="M-95.79666874970752,141.17276032032103A170.6070045455344,170.6070045455344,0,0,1,-170.20653285002086,11.682729782664715L-138.97305212360473,9.538908923448256A139.30003589374985,139.30003589374985,0,0,0,-78.21765249840212,115.26707612167147Z" fill-rule="evenodd" style="fill: #414552; stroke: #fff; opacity: 1;" id="p-type-ether"></path><path d="M-122.11326829332724,-119.14318993010839A170.6070045455344,170.6070045455344,0,0,1,-49.23272812291612,-163.34897759574446L-40.19835418210531,-133.37388170496507A139.30003589374985,139.30003589374985,0,0,0,-99.70506604741178,-97.28000721875618Z" fill-rule="evenodd" style="fill: #D7A449; stroke: #fff; opacity: 1;" id="p-type-tokenTransfers"></path><path d="M-49.23272812291612,-163.34897759574446A170.6070045455344,170.6070045455344,0,0,1,-4.9935855688398005,-170.53390895410413L-4.077245543527731,-139.24035359326615A139.30003589374985,139.30003589374985,0,0,0,-40.19835418210531,-133.37388170496507Z" fill-rule="evenodd" style="fill: #414552; stroke: #fff; opacity: 1;" id="p-type-ether"></path><path d="M1.206277097160143e-14,-197A197,197,0,0,1,33.587999502131964,-194.11554880906573L29.088060831145356,-168.10899653820906A170.6070045455344,170.6070045455344,0,0,0,1.0446666101440332e-14,-170.6070045455344Z" fill-rule="evenodd" style="fill: #DB3F29; stroke: #fff; opacity: 1;" id="p-type-functions"></path><path d="M33.587999502131964,-194.11554880906573A197,197,0,0,1,36.45990377380073,-193.59668234968592L31.57520288764756,-167.65964500321445A170.6070045455344,170.6070045455344,0,0,0,29.088060831145356,-168.10899653820906Z" fill-rule="evenodd" style="fill: #DB3F29; stroke: #fff; opacity: 1;" id="p-type-functions"></path><path d="M36.45990377380073,-193.59668234968592A197,197,0,0,1,37.87573771084697,-193.32467119552828L32.80135104466974,-167.42407643360121A170.6070045455344,170.6070045455344,0,0,0,31.57520288764756,-167.65964500321445Z" fill-rule="evenodd" style="fill: #DB3F29; stroke: #fff; opacity: 1;" id="p-type-functions"></path><path d="M37.87573771084697,-193.32467119552828A197,197,0,0,1,39.28954305679282,-193.04230574251963L34.02574239026509,-167.17954077814463A170.6070045455344,170.6070045455344,0,0,0,32.80135104466974,-167.42407643360121Z" fill-rule="evenodd" style="fill: #DB3F29; stroke: #fff; opacity: 1;" id="p-type-functions"></path><path d="M39.28954305679282,-193.04230574251963A197,197,0,0,1,40.70124408947118,-192.74960111390448L35.24831134711327,-166.92605113395862A170.6070045455344,170.6070045455344,0,0,0,34.02574239026509,-167.17954077814463Z" fill-rule="evenodd" style="fill: #DB3F29; stroke: #fff; opacity: 1;" id="p-type-functions"></path><path d="M40.70124408947118,-192.74960111390448A197,197,0,0,1,42.110765199420086,-192.44657298668457L36.468992435499466,-166.66362107772494A170.6070045455344,170.6070045455344,0,0,0,35.24831134711327,-166.92605113395862Z" fill-rule="evenodd" style="fill: #DB3F29; stroke: #fff; opacity: 1;" id="p-type-functions"></path><path d="M42.110765199420086,-192.44657298668457A197,197,0,0,1,43.51803089393223,-192.13323759077906L37.68772027682133,-166.39226466496592A170.6070045455344,170.6070045455344,0,0,0,36.468992435499466,-166.66362107772494Z" fill-rule="evenodd" style="fill: #DB3F29; stroke: #fff; opacity: 1;" id="p-type-functions"></path><path d="M43.51803089393223,-192.13323759077906A197,197,0,0,1,44.922965801098364,-191.80961170815542L38.90442959709074,-166.11199642929168A170.6070045455344,170.6070045455344,0,0,0,37.68772027682133,-166.39226466496592Z" fill-rule="evenodd" style="fill: #DB3F29; stroke: #fff; opacity: 1;" id="p-type-functions"></path><path d="M44.922965801098364,-191.80961170815542A197,197,0,0,1,46.325494673844254,-191.47571267193035L40.11905523042983,-165.82283138162163A170.6070045455344,170.6070045455344,0,0,0,38.90442959709074,-166.11199642929168Z" fill-rule="evenodd" style="fill: #DB3F29; stroke: #fff; opacity: 1;" id="p-type-functions"></path><path d="M46.325494673844254,-191.47571267193035A197,197,0,0,1,47.72554239396072,-191.13155836544172L41.33153212256118,-165.52478500938068A170.6070045455344,170.6070045455344,0,0,0,40.11905523042983,-165.82283138162163Z" fill-rule="evenodd" style="fill: #DB3F29; stroke: #fff; opacity: 1;" id="p-type-functions"></path><path d="M47.72554239396072,-191.13155836544172A197,197,0,0,1,49.123033976126884,-190.77716722129063L42.54179533429198,-165.21787327566958A170.6070045455344,170.6070045455344,0,0,0,41.33153212256118,-165.52478500938068Z" fill-rule="evenodd" style="fill: #DB3F29; stroke: #fff; opacity: 1;" id="p-type-functions"></path><path d="M49.123033976126884,-190.77716722129063A197,197,0,0,1,50.51789457192632,-190.4125582203541L43.74978004499219,-164.9021126184101A170.6070045455344,170.6070045455344,0,0,0,42.54179533429198,-165.21787327566958Z" fill-rule="evenodd" style="fill: #DB3F29; stroke: #fff; opacity: 1;" id="p-type-functions"></path><path d="M50.51789457192632,-190.4125582203541A197,197,0,0,1,51.910049473856006,-190.03775089076862L44.955421556066334,-164.57751994946446A170.6070045455344,170.6070045455344,0,0,0,43.74978004499219,-164.9021126184101Z" fill-rule="evenodd" style="fill: #DB3F29; stroke: #fff; opacity: 1;" id="p-type-functions"></path><path d="M51.910049473856006,-190.03775089076862A197,197,0,0,1,53.29942411932751,-189.65276530688405L46.15865529441866,-164.24411265372964A170.6070045455344,170.6070045455344,0,0,0,44.955421556066334,-164.57751994946446Z" fill-rule="evenodd" style="fill: #DB3F29; stroke: #fff; opacity: 1;" id="p-type-functions"></path><path d="M53.29942411932751,-189.65276530688405A197,197,0,0,1,54.6859440946604,-189.25762208818878L47.35941681591151,-163.90190858820637A170.6070045455344,170.6070045455344,0,0,0,46.15865529441866,-164.24411265372964Z" fill-rule="evenodd" style="fill: #DB3F29; stroke: #fff; opacity: 1;" id="p-type-functions"></path><path d="M54.6859440946604,-189.25762208818878A197,197,0,0,1,56.06953513906785,-188.85234239820494L48.55764180881701,-163.5509260810425A170.6070045455344,170.6070045455344,0,0,0,47.35941681591151,-163.90190858820637Z" fill-rule="evenodd" style="fill: #DB3F29; stroke: #fff; opacity: 1;" id="p-type-functions"></path><path d="M56.06953513906785,-188.85234239820494A197,197,0,0,1,57.45012314863406,-188.43694794335525L49.75326609726154,-163.1911839305515A170.6070045455344,170.6070045455344,0,0,0,48.55764180881701,-163.5509260810425Z" fill-rule="evenodd" style="fill: #DB3F29; stroke: #fff; opacity: 1;" id="p-type-functions"></path><path d="M57.45012314863406,-188.43694794335525A197,197,0,0,1,58.82763418028317,-188.0114609718003L50.946225644662974,-162.82270140420556A170.6070045455344,170.6070045455344,0,0,0,49.75326609726154,-163.1911839305515Z" fill-rule="evenodd" style="fill: #DB3F29; stroke: #fff; opacity: 1;" id="p-type-functions"></path><path d="M58.82763418028317,-188.0114609718003A197,197,0,0,1,60.201994455739396,-187.57590427224687L52.136456557160244,-162.4454982376038A170.6070045455344,170.6070045455344,0,0,0,50.946225644662974,-162.82270140420556Z" fill-rule="evenodd" style="fill: #DB3F29; stroke: #fff; opacity: 1;" id="p-type-functions"></path><path d="M60.201994455739396,-187.57590427224687A197,197,0,0,1,61.573130365478754,-187.13030117272768L53.323895087035616,-162.0595946334151A170.6070045455344,170.6070045455344,0,0,0,52.136456557160244,-162.4454982376038Z" fill-rule="evenodd" style="fill: #DB3F29; stroke: #fff; opacity: 1;" id="p-type-functions"></path><path d="M61.573130365478754,-187.13030117272768A197,197,0,0,1,62.94096847267144,-186.67467553935157L54.5084776361289,-161.665011260296A170.6070045455344,170.6070045455344,0,0,0,53.323895087035616,-162.0595946334151Z" fill-rule="evenodd" style="fill: #DB3F29; stroke: #fff; opacity: 1;" id="p-type-functions"></path><path d="M62.94096847267144,-186.67467553935157A197,197,0,0,1,64.30543551711513,-186.20905177502556L55.69014075924381,-161.26176925178396A170.6070045455344,170.6070045455344,0,0,0,54.5084776361289,-161.665011260296Z" fill-rule="evenodd" style="fill: #DB3F29; stroke: #fff; opacity: 1;" id="p-type-functions"></path><path d="M64.30543551711513,-186.20905177502556A197,197,0,0,1,65.66645841915849,-185.73345481814772L56.86882116754578,-160.84989020516517A170.6070045455344,170.6070045455344,0,0,0,55.69014075924381,-161.26176925178396Z" fill-rule="evenodd" style="fill: #DB3F29; stroke: #fff; opacity: 1;" id="p-type-functions"></path><path d="M65.66645841915849,-185.73345481814772A197,197,0,0,1,67.02396428361548,-185.2479101412716L58.04445573195189,-160.42939618031815A170.6070045455344,170.6070045455344,0,0,0,56.86882116754578,-160.84989020516517Z" fill-rule="evenodd" style="fill: #DB3F29; stroke: #fff; opacity: 1;" id="p-type-functions"></path><path d="M67.02396428361548,-185.2479101412716A197,197,0,0,1,68.37788040366954,-184.7524437497417L59.21698148651196,-160.00030969853182A170.6070045455344,170.6070045455344,0,0,0,58.04445573195189,-160.42939618031815Z" fill-rule="evenodd" style="fill: #DB3F29; stroke: #fff; opacity: 1;" id="p-type-functions"></path><path d="M68.37788040366954,-184.7524437497417A197,197,0,0,1,69.72813426476762,-184.24708218030088L60.38633563178093,-159.5626537412997A170.6070045455344,170.6070045455344,0,0,0,59.21698148651196,-160.00030969853182Z" fill-rule="evenodd" style="fill: #DB3F29; stroke: #fff; opacity: 1;" id="p-type-functions"></path><path d="M69.72813426476762,-184.24708218030088A197,197,0,0,1,71.07465354850402,-183.731852499669L61.55245553818228,-159.11645174908878A170.6070045455344,170.6070045455344,0,0,0,60.38633563178093,-159.5626537412997Z" fill-rule="evenodd" style="fill: #DB3F29; stroke: #fff; opacity: 1;" id="p-type-functions"></path><path d="M71.07465354850402,-183.731852499669A197,197,0,0,1,72.41736613649365,-183.20678230309332L62.715278749362454,-158.66172762008412A170.6070045455344,170.6070045455344,0,0,0,61.55245553818228,-159.11645174908878Z" fill-rule="evenodd" style="fill: #DB3F29; stroke: #fff; opacity: 1;" id="p-type-functions"></path><path d="M72.41736613649365,-183.20678230309332A197,197,0,0,1,73.75620011423483,-182.6718997128703L63.87474298553607,-158.19850570890898A170.6070045455344,170.6070045455344,0,0,0,62.715278749362454,-158.66172762008412Z" fill-rule="evenodd" style="fill: #DB3F29; stroke: #fff; opacity: 1;" id="p-type-functions"></path><path d="M73.75620011423483,-182.6718997128703A197,197,0,0,1,75.09108377496072,-182.1272333768397L65.03078614682147,-157.72681082532029A170.6070045455344,170.6070045455344,0,0,0,63.87474298553607,-158.19850570890898Z" fill-rule="evenodd" style="fill: #DB3F29; stroke: #fff; opacity: 1;" id="p-type-functions"></path><path d="M75.09108377496072,-182.1272333768397A197,197,0,0,1,76.42194562348001,-181.57281246684994L66.18334631656668,-157.24666823287987A170.6070045455344,170.6070045455344,0,0,0,65.03078614682147,-157.72681082532029Z" fill-rule="evenodd" style="fill: #DB3F29; stroke: #fff; opacity: 1;" id="p-type-functions"></path><path d="M76.42194562348001,-181.57281246684994A197,197,0,0,1,77.74871438000602,-181.008666677196L67.3323617646657,-156.75810364760153A170.6070045455344,170.6070045455344,0,0,0,66.18334631656668,-157.24666823287987Z" fill-rule="evenodd" style="fill: #DB3F29; stroke: #fff; opacity: 1;" id="p-type-functions"></path><path d="M77.74871438000602,-181.008666677196A197,197,0,0,1,79.07131898397459,-180.43482622302864L68.47777095086474,-156.2611432365734A170.6070045455344,170.6070045455344,0,0,0,67.3323617646657,-156.75810364760153Z" fill-rule="evenodd" style="fill: #DB3F29; stroke: #fff; opacity: 1;" id="p-type-functions"></path><path d="M79.07131898397459,-180.43482622302864A197,197,0,0,1,80.38968859784988,-179.85132183873637L69.61951252805822,-155.75581361655668A170.6070045455344,170.6070045455344,0,0,0,68.47777095086474,-156.2611432365734Z" fill-rule="evenodd" style="fill: #DB3F29; stroke: #fff; opacity: 1;" id="p-type-functions"></path><path d="M80.38968859784988,-179.85132183873637A197,197,0,0,1,81.70375261091831,-179.2581847762993L70.75752534557442,-155.2421418525601A170.6070045455344,170.6070045455344,0,0,0,69.61951252805822,-155.75581361655668Z" fill-rule="evenodd" style="fill: #DB3F29; stroke: #fff; opacity: 1;" id="p-type-functions"></path><path d="M81.70375261091831,-179.2581847762993A197,197,0,0,1,83.0134406430705,-178.6554468036153L71.89174845245066,-154.72015545639022A170.6070045455344,170.6070045455344,0,0,0,70.75752534557442,-155.2421418525601Z" fill-rule="evenodd" style="fill: #DB3F29; stroke: #fff; opacity: 1;" id="p-type-functions"></path><path d="M83.0134406430705,-178.6554468036153A197,197,0,0,1,84.31868254857078,-178.04314020279844L73.0221211006979,-154.18988238517795A170.6070045455344,170.6070045455344,0,0,0,71.89174845245066,-154.72015545639022Z" fill-rule="evenodd" style="fill: #DB3F29; stroke: #fff; opacity: 1;" id="p-type-functions"></path><path d="M84.31868254857078,-178.04314020279844A197,197,0,0,1,85.61940841981414,-177.42129776845016L74.1485827485543,-153.65135103988118A170.6070045455344,170.6070045455344,0,0,0,73.0221211006979,-154.18988238517795Z" fill-rule="evenodd" style="fill: #DB3F29; stroke: #fff; opacity: 1;" id="p-type-functions"></path><path d="M85.61940841981414,-177.42129776845016A197,197,0,0,1,86.91554859107029,-176.7899528059027L75.27107306372764,-153.10459026376373A170.6070045455344,170.6070045455344,0,0,0,74.1485827485543,-153.65135103988118Z" fill-rule="evenodd" style="fill: #DB3F29; stroke: #fff; opacity: 1;" id="p-type-functions"></path><path d="M86.91554859107029,-176.7899528059027A197,197,0,0,1,88.207033642215,-176.1491391294353L76.3895319266268,-152.54962934085046A170.6070045455344,170.6070045455344,0,0,0,75.27107306372764,-153.10459026376373Z" fill-rule="evenodd" style="fill: #DB3F29; stroke: #fff; opacity: 1;" id="p-type-functions"></path><path d="M88.207033642215,-176.1491391294353A197,197,0,0,1,89.4937944024482,-175.49889106046322L77.50389943358174,-151.98649799435884A170.6070045455344,170.6070045455344,0,0,0,76.3895319266268,-152.54962934085046Z" fill-rule="evenodd" style="fill: #DB3F29; stroke: #fff; opacity: 1;" id="p-type-functions"></path><path d="M89.4937944024482,-175.49889106046322A197,197,0,0,1,90.77576195399872,-174.83924342569935L78.61411590005183,-151.41522638510705A170.6070045455344,170.6070045455344,0,0,0,77.50389943358174,-151.98649799435884Z" fill-rule="evenodd" style="fill: #DB3F29; stroke: #fff; opacity: 1;" id="p-type-functions"></path><path d="M90.77576195399872,-174.83924342569935A197,197,0,0,1,92.05286763581535,-174.1702315552892L79.72012186382247,-150.83584510989851A170.6070045455344,170.6070045455344,0,0,0,78.61411590005183,-151.41522638510705Z" fill-rule="evenodd" style="fill: #DB3F29; stroke: #fff; opacity: 1;" id="p-type-functions"></path><path d="M92.05286763581535,-174.1702315552892A197,197,0,0,1,93.32504304724429,-173.4918912809184L80.82185808818986,-150.24838519988327A170.6070045455344,170.6070045455344,0,0,0,79.72012186382247,-150.83584510989851Z" fill-rule="evenodd" style="fill: #DB3F29; stroke: #fff; opacity: 1;" id="p-type-functions"></path><path d="M93.32504304724429,-173.4918912809184A197,197,0,0,1,94.59222005169276,-172.80425893389355L81.9192655651337,-149.65287811889584A170.6070045455344,170.6070045455344,0,0,0,80.82185808818986,-150.24838519988327Z" fill-rule="evenodd" style="fill: #DB3F29; stroke: #fff; opacity: 1;" id="p-type-functions"></path><path d="M94.59222005169276,-172.80425893389355A197,197,0,0,1,95.85433078027829,-172.1073713431967L83.01228551847765,-149.04935576177022A170.6070045455344,170.6070045455344,0,0,0,81.9192655651337,-149.65287811889584Z" fill-rule="evenodd" style="fill: #DB3F29; stroke: #fff; opacity: 1;" id="p-type-functions"></path><path d="M95.85433078027829,-172.1073713431967A197,197,0,0,1,97.11130763546353,-171.40126583351233L84.10085940703715,-148.4378504526314A170.6070045455344,170.6070045455344,0,0,0,83.01228551847765,-149.04935576177022Z" fill-rule="evenodd" style="fill: #DB3F29; stroke: #fff; opacity: 1;" id="p-type-functions"></path><path d="M97.11130763546353,-171.40126583351233A197,197,0,0,1,98.36308329467694,-170.68598022322877L85.18492892775497,-147.8183949431644A170.6070045455344,170.6070045455344,0,0,0,84.10085940703715,-148.4378504526314Z" fill-rule="evenodd" style="fill: #DB3F29; stroke: #fff; opacity: 1;" id="p-type-functions"></path><path d="M98.36308329467694,-170.68598022322877A197,197,0,0,1,99.60959071391848,-169.9615528224123L86.26443601882391,-147.1910224108598A170.6070045455344,170.6070045455344,0,0,0,85.18492892775497,-147.8183949431644Z" fill-rule="evenodd" style="fill: #DB3F29; stroke: #fff; opacity: 1;" id="p-type-functions"></path><path d="M99.60959071391848,-169.9615528224123A197,197,0,0,1,100.85076313135035,-169.22802243075543L87.33932286279646,-146.555766457237A170.6070045455344,170.6070045455344,0,0,0,86.26443601882391,-147.1910224108598Z" fill-rule="evenodd" style="fill: #DB3F29; stroke: #fff; opacity: 1;" id="p-type-functions"></path><path d="M100.85076313135035,-169.22802243075543A197,197,0,0,1,102.08653407087277,-168.4854283354989L88.40953188968145,-145.91266110604454A170.6070045455344,170.6070045455344,0,0,0,87.33932286279646,-146.555766457237Z" fill-rule="evenodd" style="fill: #DB3F29; stroke: #fff; opacity: 1;" id="p-type-functions"></path><path d="M102.08653407087277,-168.4854283354989A197,197,0,0,1,103.31683734568428,-167.7338103093274L89.47500578002739,-145.26174080143767A170.6070045455344,170.6070045455344,0,0,0,88.40953188968145,-145.91266110604454Z" fill-rule="evenodd" style="fill: #DB3F29; stroke: #fff; opacity: 1;" id="p-type-functions"></path><path d="M103.31683734568428,-167.7338103093274A197,197,0,0,1,104.54160706182681,-166.9732086082393L90.53568746799267,-144.60304040613374A170.6070045455344,170.6070045455344,0,0,0,89.47500578002739,-145.26174080143767Z" fill-rule="evenodd" style="fill: #DB3F29; stroke: #fff; opacity: 1;" id="p-type-functions"></path><path d="M104.54160706182681,-166.9732086082393A197,197,0,0,1,105.7607776217148,-166.20366396939085L91.59152014440177,-143.93659519954485A170.6070045455344,170.6070045455344,0,0,0,90.53568746799267,-144.60304040613374Z" fill-rule="evenodd" style="fill: #DB3F29; stroke: #fff; opacity: 1;" id="p-type-functions"></path><path d="M105.7607776217148,-166.20366396939085A197,197,0,0,1,106.97428372764847,-165.42521760891404L92.64244725978787,-143.26244087588842A170.6070045455344,170.6070045455344,0,0,0,91.59152014440177,-143.93659519954485Z" fill-rule="evenodd" style="fill: #DB3F29; stroke: #fff; opacity: 1;" id="p-type-functions"></path><path d="M106.97428372764847,-165.42521760891404A197,197,0,0,1,108.18206038531132,-164.63791121970922L93.68841252742176,-142.58061354227524A170.6070045455344,170.6070045455344,0,0,0,92.64244725978787,-143.26244087588842Z" fill-rule="evenodd" style="fill: #DB3F29; stroke: #fff; opacity: 1;" id="p-type-functions"></path><path d="M108.18206038531132,-164.63791121970922A197,197,0,0,1,109.38404290725093,-163.84178696921214L94.72935992632634,-141.8911497167759A170.6070045455344,170.6070045455344,0,0,0,93.68841252742176,-142.58061354227524Z" fill-rule="evenodd" style="fill: #DB3F29; stroke: #fff; opacity: 1;" id="p-type-functions"></path><path d="M109.38404290725093,-163.84178696921214A197,197,0,0,1,110.58016691634379,-163.03688749713527L95.76523370427725,-141.19408632646469A170.6070045455344,170.6070045455344,0,0,0,94.72935992632634,-141.8911497167759Z" fill-rule="evenodd" style="fill: #DB3F29; stroke: #fff; opacity: 1;" id="p-type-functions"></path><path d="M110.58016691634379,-163.03688749713527A197,197,0,0,1,111.77036834924307,-162.2232559131844L96.79597838078867,-140.48946070544184A170.6070045455344,170.6070045455344,0,0,0,95.76523370427725,-141.19408632646469Z" fill-rule="evenodd" style="fill: #DB3F29; stroke: #fff; opacity: 1;" id="p-type-functions"></path><path d="M111.77036834924307,-162.2232559131844A197,197,0,0,1,112.95458345980998,-161.40093579474942L97.82153875008501,-139.7773105928341A170.6070045455344,170.6070045455344,0,0,0,96.79597838078867,-140.48946070544184Z" fill-rule="evenodd" style="fill: #DB3F29; stroke: #fff; opacity: 1;" id="p-type-functions"></path><path d="M112.95458345980998,-161.40093579474942A197,197,0,0,1,114.1327488225278,-160.56997118457042L98.84185988405756,-139.05767413077328A170.6070045455344,170.6070045455344,0,0,0,97.82153875008501,-139.7773105928341Z" fill-rule="evenodd" style="fill: #DB3F29; stroke: #fff; opacity: 1;" id="p-type-functions"></path><path d="M114.1327488225278,-160.56997118457042A197,197,0,0,1,115.30480133589903,-159.73040658837897L99.85688713520643,-138.33058986235343A170.6070045455344,170.6070045455344,0,0,0,98.84185988405756,-139.05767413077328Z" fill-rule="evenodd" style="fill: #DB3F29; stroke: #fff; opacity: 1;" id="p-type-functions"></path><path d="M115.30480133589903,-159.73040658837897A197,197,0,0,1,116.47067822582494,-158.88228697251418L100.86656613956747,-137.59609672956665A170.6070045455344,170.6070045455344,0,0,0,99.85688713520643,-138.33058986235343Z" fill-rule="evenodd" style="fill: #DB3F29; stroke: #fff; opacity: 1;" id="p-type-functions"></path><path d="M116.47067822582494,-158.88228697251418A197,197,0,0,1,117.63031704896778,-158.02565776151454L101.87084281962385,-136.85423407121715A170.6070045455344,170.6070045455344,0,0,0,100.86656613956747,-137.59609672956665Z" fill-rule="evenodd" style="fill: #DB3F29; stroke: #fff; opacity: 1;" id="p-type-functions"></path><path d="M117.63031704896778,-158.02565776151454A197,197,0,0,1,118.7836556960951,-157.16056483568497L102.8696633872025,-136.10504162081452A170.6070045455344,170.6070045455344,0,0,0,101.87084281962385,-136.85423407121715Z" fill-rule="evenodd" style="fill: #DB3F29; stroke: #fff; opacity: 1;" id="p-type-functions"></path><path d="M118.7836556960951,-157.16056483568497A197,197,0,0,1,119.93063239540642,-156.28705452863937L103.86297434635492,-135.3485595044455A170.6070045455344,170.6070045455344,0,0,0,102.8696633872025,-136.10504162081452Z" fill-rule="evenodd" style="fill: #DB3F29; stroke: #fff; opacity: 1;" id="p-type-functions"></path><path d="M119.93063239540642,-156.28705452863937A197,197,0,0,1,121.07118571584147,-155.4051736248193L104.85072249622236,-134.5848282386249A170.6070045455344,170.6070045455344,0,0,0,103.86297434635492,-135.3485595044455Z" fill-rule="evenodd" style="fill: #DB3F29; stroke: #fff; opacity: 1;" id="p-type-functions"></path><path d="M121.07118571584147,-155.4051736248193A197,197,0,0,1,122.20525457037054,-154.51496935698796L105.83285493388526,-133.81388872812568A170.6070045455344,170.6070045455344,0,0,0,104.85072249622236,-134.5848282386249Z" fill-rule="evenodd" style="fill: #DB3F29; stroke: #fff; opacity: 1;" id="p-type-functions"></path><path d="M122.20525457037054,-154.51496935698796A197,197,0,0,1,123.33277821926617,-153.61648940370074L106.8093190571966,-133.0357822637879A170.6070045455344,170.6070045455344,0,0,0,105.83285493388526,-133.81388872812568Z" fill-rule="evenodd" style="fill: #DB3F29; stroke: #fff; opacity: 1;" id="p-type-functions"></path><path d="M123.33277821926617,-153.61648940370074A197,197,0,0,1,124.45369627335636,-152.70978188675133L107.78006256759933,-132.25055052030737A170.6070045455344,170.6070045455344,0,0,0,106.8093190571966,-133.0357822637879Z" fill-rule="evenodd" style="fill: #DB3F29; stroke: #fff; opacity: 1;" id="p-type-functions"></path><path d="M124.45369627335636,-152.70978188675133A197,197,0,0,1,125.56794869725896,-151.79489536859447L108.74503347292736,-131.45823555400364A170.6070045455344,170.6070045455344,0,0,0,107.78006256759933,-132.25055052030737Z" fill-rule="evenodd" style="fill: #DB3F29; stroke: #fff; opacity: 1;" id="p-type-functions"></path><path d="M125.56794869725896,-151.79489536859447A197,197,0,0,1,126.67547581259699,-150.8718788497451L109.70418009019019,-130.65887980056738A170.6070045455344,170.6070045455344,0,0,0,108.74503347292736,-131.45823555400364Z" fill-rule="evenodd" style="fill: #DB3F29; stroke: #fff; opacity: 1;" id="p-type-functions"></path><path d="M126.67547581259699,-150.8718788497451A197,197,0,0,1,127.77621830119523,-149.9407817661536L110.65745104834117,-129.85252607278758A170.6070045455344,170.6070045455344,0,0,0,109.70418009019019,-130.65887980056738Z" fill-rule="evenodd" style="fill: #DB3F29; stroke: #fff; opacity: 1;" id="p-type-functions"></path><path d="M127.77621830119523,-149.9407817661536A197,197,0,0,1,128.87011720825694,-149.00165398655855L111.60479529102864,-129.03921755825857A170.6070045455344,170.6070045455344,0,0,0,110.65745104834117,-129.85252607278758Z" fill-rule="evenodd" style="fill: #DB3F29; stroke: #fff; opacity: 1;" id="p-type-functions"></path><path d="M128.87011720825694,-149.00165398655855A197,197,0,0,1,129.95711394552163,-148.05454580981535L112.54616207933067,-128.218997817067A170.6070045455344,170.6070045455344,0,0,0,111.60479529102864,-129.03921755825857Z" fill-rule="evenodd" style="fill: #DB3F29; stroke: #fff; opacity: 1;" id="p-type-functions"></path><path d="M129.95711394552163,-148.05454580981535A197,197,0,0,1,131.03715029440292,-147.09950796220244L113.48150099447246,-127.39191077945861A170.6070045455344,170.6070045455344,0,0,0,112.54616207933067,-128.218997817067Z" fill-rule="evenodd" style="fill: #DB3F29; stroke: #fff; opacity: 1;" id="p-type-functions"></path><path d="M131.03715029440292,-147.09950796220244A197,197,0,0,1,132.11016840910673,-146.1365915947045L114.41076194052684,-126.55800074348556A170.6070045455344,170.6070045455344,0,0,0,113.48150099447246,-127.39191077945861Z" fill-rule="evenodd" style="fill: #DB3F29; stroke: #fff; opacity: 1;" id="p-type-functions"></path><path d="M132.11016840910673,-146.1365915947045A197,197,0,0,1,133.17611081972936,-145.16584828027274L115.33389514709725,-125.71731237263377A170.6070045455344,170.6070045455344,0,0,0,114.41076194052684,-126.55800074348556Z" fill-rule="evenodd" style="fill: #DB3F29; stroke: #fff; opacity: 1;" id="p-type-functions"></path><path d="M133.17611081972936,-145.16584828027274A197,197,0,0,1,134.2349204353356,-144.18733001106276L116.25085117198351,-124.86989069343073A170.6070045455344,170.6070045455344,0,0,0,115.33389514709725,-125.71731237263377Z" fill-rule="evenodd" style="fill: #DB3F29; stroke: #fff; opacity: 1;" id="p-type-functions"></path><path d="M134.2349204353356,-144.18733001106276A197,197,0,0,1,135.28654054701647,-143.20108919564987L117.16158090382976,-124.0157810930341A170.6070045455344,170.6070045455344,0,0,0,116.25085117198351,-124.86989069343073Z" fill-rule="evenodd" style="fill: #DB3F29; stroke: #fff; opacity: 1;" id="p-type-functions"></path><path d="M135.28654054701647,-143.20108919564987A197,197,0,0,1,136.33091483092642,-142.20717865622214L118.06603556475496,-123.1550293168006A170.6070045455344,170.6070045455344,0,0,0,117.16158090382976,-124.0157810930341Z" fill-rule="evenodd" style="fill: #DB3F29; stroke: #fff; opacity: 1;" id="p-type-functions"></path><path d="M196.12245206294506,-18.573739440883273A197,197,0,0,1,196.2531293116414,-17.13794723378952L169.9601955560739,-14.841897673178973A170.6070045455344,170.6070045455344,0,0,0,169.8470257390062,-16.085330199077887Z" fill-rule="evenodd" style="fill: #1DC690; stroke: #fff; opacity: 1;" id="p-type-logs"></path><path d="M196.2531293116414,-17.13794723378952A197,197,0,0,1,196.37329541585333,-15.701237133359887L170.06426245499523,-13.597670228333218A170.6070045455344,170.6070045455344,0,0,0,169.9601955560739,-14.841897673178973Z" fill-rule="evenodd" style="fill: #1DC690; stroke: #fff; opacity: 1;" id="p-type-logs"></path><path d="M196.37329541585333,-15.701237133359887A197,197,0,0,1,196.48294393959026,-14.263686088519977L170.15922086203886,-12.352714504264993A170.6070045455344,170.6070045455344,0,0,0,170.06426245499523,-13.597670228333218Z" fill-rule="evenodd" style="fill: #1DC690; stroke: #fff; opacity: 1;" id="p-type-logs"></path><path d="M196.48294393959026,-14.263686088519977A197,197,0,0,1,196.58206901017397,-12.825371093235644L170.24506569131628,-11.107097179704667A170.6070045455344,170.6070045455344,0,0,0,170.15922086203886,-12.352714504264993Z" fill-rule="evenodd" style="fill: #1DC690; stroke: #fff; opacity: 1;" id="p-type-logs"></path><path d="M196.58206901017397,-12.825371093235644A197,197,0,0,1,196.67066531855312,-11.386369182389247L170.32179234505418,-9.860884968817336A170.6070045455344,170.6070045455344,0,0,0,170.24506569131628,-11.107097179704667Z" fill-rule="evenodd" style="fill: #1DC690; stroke: #fff; opacity: 1;" id="p-type-logs"></path><path d="M196.67066531855312,-11.386369182389247A197,197,0,0,1,196.74872811958764,-9.946757427653742L170.38939671384063,-8.614144617629695A170.6070045455344,170.6070045455344,0,0,0,170.32179234505418,-9.860884968817336Z" fill-rule="evenodd" style="fill: #1DC690; stroke: #fff; opacity: 1;" id="p-type-logs"></path><path d="M196.74872811958764,-9.946757427653742A197,197,0,0,1,196.81625323230273,-8.506612933364778L170.4478751768453,-7.366942900455159A170.6070045455344,170.6070045455344,0,0,0,170.38939671384063,-8.614144617629695Z" fill-rule="evenodd" style="fill: #1DC690; stroke: #fff; opacity: 1;" id="p-type-logs"></path><path d="M196.81625323230273,-8.506612933364778A197,197,0,0,1,196.8732370401129,-7.066012832391071L170.4972246020133,-6.119346616317502A170.6070045455344,170.6070045455344,0,0,0,170.4478751768453,-7.366942900455159Z" fill-rule="evenodd" style="fill: #1DC690; stroke: #fff; opacity: 1;" id="p-type-logs"></path><path d="M196.8732370401129,-7.066012832391071A197,197,0,0,1,196.9196764910157,-5.625034282003231L170.5374423462329,-4.871422585373158A170.6070045455344,170.6070045455344,0,0,0,170.4972246020133,-6.119346616317502Z" fill-rule="evenodd" style="fill: #1DC690; stroke: #fff; opacity: 1;" id="p-type-logs"></path><path d="M196.9196764910157,-5.625034282003231A197,197,0,0,1,196.95556909775513,-4.183754459741277L170.56852625547728,-3.623237645332385A170.6070045455344,170.6070045455344,0,0,0,170.5374423462329,-4.871422585373158Z" fill-rule="evenodd" style="fill: #1DC690; stroke: #fff; opacity: 1;" id="p-type-logs"></path><path d="M196.95556909775513,-4.183754459741277A197,197,0,0,1,196.9809129379548,-2.7422505592810897L170.59047466491964,-2.3748586478795084A170.6070045455344,170.6070045455344,0,0,0,170.56852625547728,-3.623237645332385Z" fill-rule="evenodd" style="fill: #1DC690; stroke: #fff; opacity: 1;" id="p-type-logs"></path><path d="M196.9809129379548,-2.7422505592810897A197,197,0,0,1,196.99570665422095,-1.300599786299979L170.60328639902252,-1.1263524550923938A170.6070045455344,170.6070045455344,0,0,0,170.59047466491964,-2.3748586478795084Z" fill-rule="evenodd" style="fill: #1DC690; stroke: #fff; opacity: 1;" id="p-type-logs"></path><path d="M196.99570665422095,-1.300599786299979A197,197,0,0,1,196.99994945421525,0.14112064565838348L170.60696077160077,0.12221406413862224A170.6070045455344,170.6070045455344,0,0,0,170.60328639902252,-1.1263524550923938Z" fill-rule="evenodd" style="fill: #1DC690; stroke: #fff; opacity: 1;" id="p-type-logs"></path><path d="M196.99994945421525,0.14112064565838348A197,197,0,0,1,196.99364111069707,1.5828335193194516L170.60149758585823,1.370774037692172A170.6070045455344,170.6070045455344,0,0,0,170.60696077160077,0.12221406413862224Z" fill-rule="evenodd" style="fill: #1DC690; stroke: #fff; opacity: 1;" id="p-type-logs"></path><path d="M196.99364111069707,1.5828335193194516A197,197,0,0,1,196.9767819615357,3.0244616178134955L170.58689713439827,2.619260593797469A170.6070045455344,170.6070045455344,0,0,0,170.60149758585823,1.370774037692172Z" fill-rule="evenodd" style="fill: #1DC690; stroke: #fff; opacity: 1;" id="p-type-logs"></path><path d="M196.9767819615357,3.0244616178134955A197,197,0,0,1,196.9493729096923,4.465927728811269L170.56316019920826,3.8676068646158996A170.6070045455344,170.6070045455344,0,0,0,170.58689713439827,2.619260593797469Z" fill-rule="evenodd" style="fill: #1DC690; stroke: #fff; opacity: 1;" id="p-type-logs"></path><path d="M196.9493729096923,4.465927728811269A197,197,0,0,1,196.9114154231715,5.907154648659431L170.53028805161742,5.115745989822408A170.6070045455344,170.6070045455344,0,0,0,170.56316019920826,3.8676068646158996Z" fill-rule="evenodd" style="fill: #1DC690; stroke: #fff; opacity: 1;" id="p-type-logs"></path><path d="M196.9114154231715,5.907154648659431A197,197,0,0,1,196.8629115349428,7.348065186515511L170.48828245222907,6.363611120186472A170.6070045455344,170.6070045455344,0,0,0,170.53028805161742,5.115745989822408Z" fill-rule="evenodd" style="fill: #1DC690; stroke: #fff; opacity: 1;" id="p-type-logs"></path><path d="M196.8629115349428,7.348065186515511A197,197,0,0,1,196.8038638428317,8.788582168482177L170.43714565082598,7.611135421152494A170.6070045455344,170.6070045455344,0,0,0,170.48828245222907,6.363611120186472Z" fill-rule="evenodd" style="fill: #1DC690; stroke: #fff; opacity: 1;" id="p-type-logs"></path><path d="M196.8038638428317,8.788582168482177A197,197,0,0,1,196.73427550938044,10.228628441740602L170.3768803862502,8.858252076419397A170.6070045455344,170.6070045455344,0,0,0,170.43714565082598,7.611135421152494Z" fill-rule="evenodd" style="fill: #1DC690; stroke: #fff; opacity: 1;" id="p-type-logs"></path><path d="M196.73427550938044,10.228628441740602A197,197,0,0,1,196.65415026167884,11.668126878682703L170.3074898862561,10.10489429151925A170.6070045455344,170.6070045455344,0,0,0,170.3768803862502,8.858252076419397Z" fill-rule="evenodd" style="fill: #1DC690; stroke: #fff; opacity: 1;" id="p-type-logs"></path><path d="M196.65415026167884,11.668126878682703A197,197,0,0,1,196.56349239116446,13.10700038104203L170.22897786733762,11.350995297394714A170.6070045455344,170.6070045455344,0,0,0,170.3074898862561,10.10489429151925Z" fill-rule="evenodd" style="fill: #1DC690; stroke: #fff; opacity: 1;" id="p-type-logs"></path><path d="M196.56349239116446,13.10700038104203A197,197,0,0,1,196.46230675339282,14.545171884023071L170.14134853452927,12.596488353975145A170.6070045455344,170.6070045455344,0,0,0,170.22897786733762,11.350995297394714Z" fill-rule="evenodd" style="fill: #1DC690; stroke: #fff; opacity: 1;" id="p-type-logs"></path><path d="M196.46230675339282,14.545171884023071A197,197,0,0,1,196.3505987677775,15.98256436042879L170.0446065811808,13.841306753751121A170.6070045455344,170.6070045455344,0,0,0,170.14134853452927,12.596488353975145Z" fill-rule="evenodd" style="fill: #1DC690; stroke: #fff; opacity: 1;" id="p-type-logs"></path><path d="M196.3505987677775,15.98256436042879A197,197,0,0,1,196.22837441729962,17.41910082478612L169.93875718870592,15.085383825347249A170.6070045455344,170.6070045455344,0,0,0,170.0446065811808,13.841306753751121Z" fill-rule="evenodd" style="fill: #1DC690; stroke: #fff; opacity: 1;" id="p-type-logs"></path><path d="M196.22837441729962,17.41910082478612A197,197,0,0,1,196.09564024818764,18.85470433746925L169.8238060263047,16.328652937093015A170.6070045455344,170.6070045455344,0,0,0,169.93875718870592,15.085383825347249Z" fill-rule="evenodd" style="fill: #1DC690; stroke: #fff; opacity: 1;" id="p-type-logs"></path><path d="M196.09564024818764,18.85470433746925A197,197,0,0,1,195.95240336956644,20.28929800882043L169.69975925065998,17.571047500591522A170.6070045455344,170.6070045455344,0,0,0,169.8238060263047,16.328652937093015Z" fill-rule="evenodd" style="fill: #1DC690; stroke: #fff; opacity: 1;" id="p-type-logs"></path><path d="M195.95240336956644,20.28929800882043A197,197,0,0,1,195.79867145307702,21.72280500326813L169.56662350560765,18.812500974285907A170.6070045455344,170.6070045455344,0,0,0,169.69975925065998,17.571047500591522Z" fill-rule="evenodd" style="fill: #1DC690; stroke: #fff; opacity: 1;" id="p-type-logs"></path><path d="M195.79867145307702,21.72280500326813A197,197,0,0,1,195.6344527324651,23.155148543442273L169.42440592178076,20.052946867023252A170.6070045455344,170.6070045455344,0,0,0,169.56662350560765,18.812500974285907Z" fill-rule="evenodd" style="fill: #1DC690; stroke: #fff; opacity: 1;" id="p-type-logs"></path><path d="M195.6344527324651,23.155148543442273A197,197,0,0,1,195.45975600314057,24.58625191428636L169.27311411622767,21.292318741615773A170.6070045455344,170.6070045455344,0,0,0,169.42440592178076,20.052946867023252Z" fill-rule="evenodd" style="fill: #1DC690; stroke: #fff; opacity: 1;" id="p-type-logs"></path><path d="M195.45975600314057,24.58625191428636A197,197,0,0,1,195.27459062170612,26.01603846716628L169.112756192004,22.530550218399163A170.6070045455344,170.6070045455344,0,0,0,169.27311411622767,21.292318741615773Z" fill-rule="evenodd" style="fill: #1DC690; stroke: #fff; opacity: 1;" id="p-type-logs"></path><path d="M195.27459062170612,26.01603846716628A197,197,0,0,1,195.0789665054563,27.444431623975518L168.94334073773877,23.767574978787817A170.6070045455344,170.6070045455344,0,0,0,169.112756192004,22.530550218399163Z" fill-rule="evenodd" style="fill: #1DC690; stroke: #fff; opacity: 1;" id="p-type-logs"></path><path d="M195.0789665054563,27.444431623975518A197,197,0,0,1,194.8728941318461,28.87135488123663L168.76487682717416,25.003326768826774A170.6070045455344,170.6070045455344,0,0,0,168.94334073773877,23.767574978787817Z" fill-rule="evenodd" style="fill: #1DC690; stroke: #fff; opacity: 1;" id="p-type-logs"></path><path d="M194.8728941318461,28.87135488123663A197,197,0,0,1,194.6563845379301,30.296731814198694L168.57737401867988,26.237739402740274A170.6070045455344,170.6070045455344,0,0,0,168.76487682717416,25.003326768826774Z" fill-rule="evenodd" style="fill: #1DC690; stroke: #fff; opacity: 1;" id="p-type-logs"></path><path d="M194.6563845379301,30.296731814198694A197,197,0,0,1,194.42944931977124,31.720486080930556L168.38084235474093,27.47074676647655A170.6070045455344,170.6070045455344,0,0,0,168.57737401867988,26.237739402740274Z" fill-rule="evenodd" style="fill: #1DC690; stroke: #fff; opacity: 1;" id="p-type-logs"></path><path d="M194.42944931977124,31.720486080930556A197,197,0,0,1,194.19210063181953,33.14254142640963L168.17529236141985,28.70228282124888A170.6070045455344,170.6070045455344,0,0,0,168.38084235474093,27.47074676647655Z" fill-rule="evenodd" style="fill: #1DC690; stroke: #fff; opacity: 1;" id="p-type-logs"></path><path d="M194.19210063181953,33.14254142640963A197,197,0,0,1,193.94435118626134,34.56282168660605L167.96073504779295,29.932281607072554A170.6070045455344,170.6070045455344,0,0,0,168.17529236141985,28.70228282124888Z" fill-rule="evenodd" style="fill: #1DC690; stroke: #fff; opacity: 1;" id="p-type-logs"></path><path d="M193.94435118626134,34.56282168660605A197,197,0,0,1,193.68621425233846,35.98125079256196L167.7371819053607,31.16067724629762A170.6070045455344,170.6070045455344,0,0,0,167.96073504779295,29.932281607072554Z" fill-rule="evenodd" style="fill: #1DC690; stroke: #fff; opacity: 1;" id="p-type-logs"></path><path d="M193.68621425233846,35.98125079256196A197,197,0,0,1,193.41770365563735,37.397752774465694L167.5046449074322,32.387403947137265A170.6070045455344,170.6070045455344,0,0,0,167.7371819053607,31.16067724629762Z" fill-rule="evenodd" style="fill: #1DC690; stroke: #fff; opacity: 1;" id="p-type-logs"></path><path d="M193.41770365563735,37.397752774465694A197,197,0,0,1,193.13883377734868,38.81225176572064L167.26313650848397,33.612396007191506A170.6070045455344,170.6070045455344,0,0,0,167.5046449074322,32.387403947137265Z" fill-rule="evenodd" style="fill: #1DC690; stroke: #fff; opacity: 1;" id="p-type-logs"></path><path d="M193.13883377734868,38.81225176572064A197,197,0,0,1,192.84961955349712,40.2246720070086L167.01266964349273,34.835587816966225A170.6070045455344,170.6070045455344,0,0,0,167.26313650848397,33.612396007191506Z" fill-rule="evenodd" style="fill: #1DC690; stroke: #fff; opacity: 1;" id="p-type-logs"></path><path d="M192.84961955349712,40.2246720070086A197,197,0,0,1,192.55007647414143,41.634937850347406L166.75325772724287,36.056913863387116A170.6070045455344,170.6070045455344,0,0,0,167.01266964349273,34.835587816966225Z" fill-rule="evenodd" style="fill: #1DC690; stroke: #fff; opacity: 1;" id="p-type-logs"></path><path d="M192.55007647414143,41.634937850347406A197,197,0,0,1,192.24022058254465,43.04297376314252L166.48491465360777,37.2763087333085A170.6070045455344,170.6070045455344,0,0,0,166.75325772724287,36.056913863387116Z" fill-rule="evenodd" style="fill: #1DC690; stroke: #fff; opacity: 1;" id="p-type-logs"></path><path d="M192.24022058254465,43.04297376314252A197,197,0,0,1,191.92006847431503,44.44870433223253L166.2076547948058,38.493707117016804A170.6070045455344,170.6070045455344,0,0,0,166.48491465360777,37.2763087333085Z" fill-rule="evenodd" style="fill: #1DC690; stroke: #fff; opacity: 1;" id="p-type-logs"></path><path d="M191.92006847431503,44.44870433223253A197,197,0,0,1,191.58963729651708,45.8520542679282L165.92149300063033,39.70904381172851A170.6070045455344,170.6070045455344,0,0,0,166.2076547948058,38.493707117016804Z" fill-rule="evenodd" style="fill: #1DC690; stroke: #fff; opacity: 1;" id="p-type-logs"></path><path d="M191.58963729651708,45.8520542679282A197,197,0,0,1,191.24894474675318,47.25294840804492L165.6264445976547,40.92225372508235A170.6070045455344,170.6070045455344,0,0,0,165.92149300063033,39.70904381172851Z" fill-rule="evenodd" style="fill: #1DC690; stroke: #fff; opacity: 1;" id="p-type-logs"></path><path d="M191.24894474675318,47.25294840804492A197,197,0,0,1,190.89800907221576,48.65131172192832L165.32252538841107,42.133271878625564A170.6070045455344,170.6070045455344,0,0,0,165.6264445976547,40.92225372508235Z" fill-rule="evenodd" style="fill: #1DC690; stroke: #fff; opacity: 1;" id="p-type-logs"></path><path d="M190.89800907221576,48.65131172192832A197,197,0,0,1,190.53684906870993,50.04706931447285L165.00975165054416,43.34203341129413A170.6070045455344,170.6070045455344,0,0,0,165.32252538841107,42.133271878625564Z" fill-rule="evenodd" style="fill: #1DC690; stroke: #fff; opacity: 1;" id="p-type-logs"></path><path d="M190.53684906870993,50.04706931447285A197,197,0,0,1,190.16548407964697,51.4401464301331L164.6881401359395,44.548473582886665A170.6070045455344,170.6070045455344,0,0,0,165.00975165054416,43.34203341129413Z" fill-rule="evenodd" style="fill: #1DC690; stroke: #fff; opacity: 1;" id="p-type-logs"></path><path d="M190.16548407964697,51.4401464301331A197,197,0,0,1,189.78393399500808,52.83046845692762L164.35770806982612,45.75252777753179A170.6070045455344,170.6070045455344,0,0,0,164.6881401359395,44.548473582886665Z" fill-rule="evenodd" style="fill: #1DC690; stroke: #fff; opacity: 1;" id="p-type-logs"></path><path d="M189.78393399500808,52.83046845692762A197,197,0,0,1,189.39221925027917,54.21796093043512L164.01847314985395,46.95413150714899A170.6070045455344,170.6070045455344,0,0,0,164.35770806982612,45.75252777753179Z" fill-rule="evenodd" style="fill: #1DC690; stroke: #fff; opacity: 1;" id="p-type-logs"></path><path d="M189.39221925027917,54.21796093043512A197,197,0,0,1,188.99036082535645,55.60254953778267L163.67045354514607,48.153220414902485A170.6070045455344,170.6070045455344,0,0,0,164.01847314985395,46.95413150714899Z" fill-rule="evenodd" style="fill: #1DC690; stroke: #fff; opacity: 1;" id="p-type-logs"></path><path d="M188.99036082535645,55.60254953778267A197,197,0,0,1,188.57838024342269,56.984160121625855L163.31366789532552,49.34973027864814A170.6070045455344,170.6070045455344,0,0,0,163.67045354514607,48.153220414902485Z" fill-rule="evenodd" style="fill: #1DC690; stroke: #fff; opacity: 1;" id="p-type-logs"></path><path d="M188.57838024342269,56.984160121625855A197,197,0,0,1,188.15629956979438,58.36271868412057L162.94813530951697,50.54359701437312A170.6070045455344,170.6070045455344,0,0,0,163.31366789532552,49.34973027864814Z" fill-rule="evenodd" style="fill: #1DC690; stroke: #fff; opacity: 1;" id="p-type-logs"></path><path d="M188.15629956979438,58.36271868412057A197,197,0,0,1,187.72414141074012,59.73815139088627L162.57387536532326,51.734756679628205A170.6070045455344,170.6070045455344,0,0,0,162.94813530951697,50.54359701437312Z" fill-rule="evenodd" style="fill: #1DC690; stroke: #fff; opacity: 1;" id="p-type-logs"></path><path d="M187.72414141074012,59.73815139088627A197,197,0,0,1,187.28192891226968,61.11038457496051L162.19090810777686,52.923145476952506A170.6070045455344,170.6070045455344,0,0,0,162.57387536532326,51.734756679628205Z" fill-rule="evenodd" style="fill: #1DC690; stroke: #fff; opacity: 1;" id="p-type-logs"></path><path d="M187.28192891226968,61.11038457496051A197,197,0,0,1,186.82968575889436,62.47934474074443L161.79925404826628,54.10869975729034A170.6070045455344,170.6070045455344,0,0,0,162.19090810777686,52.923145476952506Z" fill-rule="evenodd" style="fill: #1DC690; stroke: #fff; opacity: 1;" id="p-type-logs"></path><path d="M186.82968575889436,62.47934474074443A197,197,0,0,1,186.36743617235854,63.84495856793917L161.3989341634374,55.291356023400276A170.6070045455344,170.6070045455344,0,0,0,161.79925404826628,54.10869975729034Z" fill-rule="evenodd" style="fill: #1DC690; stroke: #fff; opacity: 1;" id="p-type-logs"></path><path d="M186.36743617235854,63.84495856793917A197,197,0,0,1,185.8952049103423,65.20715291547279L160.98996989407013,56.47105093325596A170.6070045455344,170.6070045455344,0,0,0,161.3989341634374,55.291356023400276Z" fill-rule="evenodd" style="fill: #1DC690; stroke: #fff; opacity: 1;" id="p-type-logs"></path><path d="M185.8952049103423,65.20715291547279A197,197,0,0,1,185.41301726513544,66.56585482541767L160.57238314393,57.647721303438665A170.6070045455344,170.6070045455344,0,0,0,160.98996989407013,56.47105093325596Z" fill-rule="evenodd" style="fill: #1DC690; stroke: #fff; opacity: 1;" id="p-type-logs"></path><path d="M185.41301726513544,66.56585482541767A197,197,0,0,1,184.92089906228296,67.9209915268981L160.146196278595,58.82130411252136A170.6070045455344,170.6070045455344,0,0,0,160.57238314393,57.647721303438665Z" fill-rule="evenodd" style="fill: #1DC690; stroke: #fff; opacity: 1;" id="p-type-logs"></path><path d="M184.92089906228296,67.9209915268981A197,197,0,0,1,184.4188766592016,69.27249043998772L159.71143212425764,59.99173650444403A170.6070045455344,170.6070045455344,0,0,0,160.146196278595,58.82130411252136Z" fill-rule="evenodd" style="fill: #1DC690; stroke: #fff; opacity: 1;" id="p-type-logs"></path><path d="M184.4188766592016,69.27249043998772A197,197,0,0,1,183.90697694376846,70.62027917959696L159.2681139665025,61.158955791880246A170.6070045455344,170.6070045455344,0,0,0,159.71143212425764,59.99173650444403Z" fill-rule="evenodd" style="fill: #1DC690; stroke: #fff; opacity: 1;" id="p-type-logs"></path><path d="M183.90697694376846,70.62027917959696A197,197,0,0,1,183.38522733288073,71.96428555934986L158.81626554905912,62.322899459594616A170.6070045455344,170.6070045455344,0,0,0,159.2681139665025,61.158955791880246Z" fill-rule="evenodd" style="fill: #1DC690; stroke: #fff; opacity: 1;" id="p-type-logs"></path><path d="M183.38522733288073,71.96428555934986A197,197,0,0,1,182.85365577098733,73.30443759545032L158.35591107253003,63.483505167791044A170.6070045455344,170.6070045455344,0,0,0,158.81626554905912,62.322899459594616Z" fill-rule="evenodd" style="fill: #1DC690; stroke: #fff; opacity: 1;" id="p-type-logs"></path><path d="M182.85365577098733,73.30443759545032A197,197,0,0,1,182.3122907285922,74.64066351053748L157.887075193095,64.64071075545164A170.6070045455344,170.6070045455344,0,0,0,158.35591107253003,63.483505167791044Z" fill-rule="evenodd" style="fill: #1DC690; stroke: #fff; opacity: 1;" id="p-type-logs"></path><path d="M182.3122907285922,74.64066351053748A197,197,0,0,1,181.7611612007294,75.97289173753003L157.40978302119012,65.7944542436659A170.6070045455344,170.6070045455344,0,0,0,157.887075193095,64.64071075545164Z" fill-rule="evenodd" style="fill: #1DC690; stroke: #fff; opacity: 1;" id="p-type-logs"></path><path d="M181.7611612007294,75.97289173753003A197,197,0,0,1,181.20029670541032,77.30105092345939L156.92406012016306,66.94467383895037A170.6070045455344,170.6070045455344,0,0,0,157.40978302119012,65.7944542436659Z" fill-rule="evenodd" style="fill: #1DC690; stroke: #fff; opacity: 1;" id="p-type-logs"></path><path d="M181.20029670541032,77.30105092345939A197,197,0,0,1,180.62972728204258,78.62506993329112L156.42993250490395,68.09130793655815A170.6070045455344,170.6070045455344,0,0,0,156.92406012016306,66.94467383895037Z" fill-rule="evenodd" style="fill: #1DC690; stroke: #fff; opacity: 1;" id="p-type-logs"></path><path d="M180.62972728204258,78.62506993329112A197,197,0,0,1,180.04948348982117,79.94487785373502L155.92742664045198,69.2342951237785A170.6070045455344,170.6070045455344,0,0,0,156.42993250490395,68.09130793655815Z" fill-rule="evenodd" style="fill: #1DC690; stroke: #fff; opacity: 1;" id="p-type-logs"></path><path d="M180.04948348982117,79.94487785373502A197,197,0,0,1,179.45959640609175,81.26040399704316L155.416569440578,70.37357418322591A170.6070045455344,170.6070045455344,0,0,0,155.92742664045198,69.2342951237785Z" fill-rule="evenodd" style="fill: #1DC690; stroke: #fff; opacity: 1;" id="p-type-logs"></path><path d="M179.45959640609175,81.26040399704316A197,197,0,0,1,178.86009762468615,82.57157790479572L154.89738826634292,71.50908409611894A170.6070045455344,170.6070045455344,0,0,0,155.416569440578,70.37357418322591Z" fill-rule="evenodd" style="fill: #1DC690; stroke: #fff; opacity: 1;" id="p-type-logs"></path><path d="M178.86009762468615,82.57157790479572A197,197,0,0,1,178.25101925423021,83.87832935167486L154.36991092463248,72.64076404554835A170.6070045455344,170.6070045455344,0,0,0,154.89738826634292,71.50908409611894Z" fill-rule="evenodd" style="fill: #1DC690; stroke: #fff; opacity: 1;" id="p-type-logs"></path><path d="M178.25101925423021,83.87832935167486A197,197,0,0,1,177.6323939164243,85.18058834922584L153.83416566666781,73.76855341973436A170.6070045455344,170.6070045455344,0,0,0,154.36991092463248,72.64076404554835Z" fill-rule="evenodd" style="fill: #1DC690; stroke: #fff; opacity: 1;" id="p-type-logs"></path><path d="M177.6323939164243,85.18058834922584A197,197,0,0,1,177.00425474429568,86.4782851496055L153.2901811864923,74.89239181527292A170.6070045455344,170.6070045455344,0,0,0,153.83416566666781,73.76855341973436Z" fill-rule="evenodd" style="fill: #1DC690; stroke: #fff; opacity: 1;" id="p-type-logs"></path><path d="M177.00425474429568,86.4782851496055A197,197,0,0,1,176.36663538042436,87.77135024931793L152.73798661943488,76.01221904037095A170.6070045455344,170.6070045455344,0,0,0,153.2901811864923,74.89239181527292Z" fill-rule="evenodd" style="fill: #1DC690; stroke: #fff; opacity: 1;" id="p-type-logs"></path><path d="M176.36663538042436,87.77135024931793A197,197,0,0,1,175.719569975141,89.05971439293708L152.1776115405494,77.12797511807011A170.6070045455344,170.6070045455344,0,0,0,152.73798661943488,76.01221904037095Z" fill-rule="evenodd" style="fill: #1DC690; stroke: #fff; opacity: 1;" id="p-type-logs"></path><path d="M175.719569975141,89.05971439293708A197,197,0,0,1,175.06309318469792,90.3433085768159L151.60908596303082,78.23960028945913A170.6070045455344,170.6070045455344,0,0,0,152.1776115405494,77.12797511807011Z" fill-rule="evenodd" style="fill: #1DC690; stroke: #fff; opacity: 1;" id="p-type-logs"></path><path d="M175.06309318469792,90.3433085768159A197,197,0,0,1,174.39724016941287,91.6220640527822L151.0324403366075,79.34703501687441A170.6070045455344,170.6070045455344,0,0,0,151.60908596303082,78.23960028945913Z" fill-rule="evenodd" style="fill: #1DC690; stroke: #fff; opacity: 1;" id="p-type-logs"></path><path d="M174.39724016941287,91.6220640527822A197,197,0,0,1,173.722046591786,92.89591233182075L150.44770554591054,80.45021998708887A170.6070045455344,170.6070045455344,0,0,0,151.0324403366075,79.34703501687441Z" fill-rule="evenodd" style="fill: #1DC690; stroke: #fff; opacity: 1;" id="p-type-logs"></path><path d="M173.722046591786,92.89591233182075A197,197,0,0,1,173.03754861458975,94.1647851877414L149.85491290881953,81.54909611448866A170.6070045455344,170.6070045455344,0,0,0,150.44770554591054,80.45021998708887Z" fill-rule="evenodd" style="fill: #1DC690; stroke: #fff; opacity: 1;" id="p-type-logs"></path><path d="M173.03754861458975,94.1647851877414A197,197,0,0,1,172.34378289893195,95.42861466083332L149.25409417478517,82.64360454423777A170.6070045455344,170.6070045455344,0,0,0,149.85491290881953,81.54909611448866Z" fill-rule="evenodd" style="fill: #1DC690; stroke: #fff; opacity: 1;" id="p-type-logs"></path><path d="M172.34378289893195,95.42861466083332A197,197,0,0,1,171.6407866022923,96.68733306150479L148.64528152312886,83.73368665543018A170.6070045455344,170.6070045455344,0,0,0,149.25409417478517,82.64360454423777Z" fill-rule="evenodd" style="fill: #1DC690; stroke: #fff; opacity: 1;" id="p-type-logs"></path><path d="M171.6407866022923,96.68733306150479A197,197,0,0,1,170.92859737653234,97.94087297390863L148.02850756131915,84.81928406422963A170.6070045455344,170.6070045455344,0,0,0,148.64528152312886,83.73368665543018Z" fill-rule="evenodd" style="fill: #1DC690; stroke: #fff; opacity: 1;" id="p-type-logs"></path><path d="M170.92859737653234,97.94087297390863A197,197,0,0,1,170.20725336587873,99.18916725955292L147.40380532322538,85.90033862699653A170.6070045455344,170.6070045455344,0,0,0,148.02850756131915,84.81928406422963Z" fill-rule="evenodd" style="fill: #1DC690; stroke: #fff; opacity: 1;" id="p-type-logs"></path><path d="M170.20725336587873,99.18916725955292A197,197,0,0,1,169.47679320488038,100.43214906089688L146.77120826734833,86.97679244340215A170.6070045455344,170.6070045455344,0,0,0,147.40380532322538,85.90033862699653Z" fill-rule="evenodd" style="fill: #1DC690; stroke: #fff; opacity: 1;" id="p-type-logs"></path><path d="M77.8842042299,180.95040959189683A197,197,0,0,1,76.55785819136868,181.51554850521836L66.30105005305185,157.1970761873856A170.6070045455344,170.6070045455344,0,0,0,67.44969941662883,156.707651531782Z" fill-rule="evenodd" style="fill: #D7A449; stroke: #fff; opacity: 1;" id="p-type-tokenTransfers"></path><path d="M76.55785819136868,181.51554850521836A197,197,0,0,1,75.22741178148688,182.07096560588295L65.14884966372041,157.6780815062574A170.6070045455344,170.6070045455344,0,0,0,66.30105005305185,157.1970761873856Z" fill-rule="evenodd" style="fill: #D7A449; stroke: #fff; opacity: 1;" id="p-type-tokenTransfers"></path><path d="M75.22741178148688,182.07096560588295A197,197,0,0,1,73.8929362577907,182.61663114624056L63.99315995947098,158.15064172617687A170.6070045455344,170.6070045455344,0,0,0,65.14884966372041,157.6780815062574Z" fill-rule="evenodd" style="fill: #D7A449; stroke: #fff; opacity: 1;" id="p-type-tokenTransfers"></path><path d="M73.8929362577907,182.61663114624056A197,197,0,0,1,72.55450309361198,183.1525159009263L62.83404283802462,158.61473153723549A170.6070045455344,170.6070045455344,0,0,0,63.99315995947098,158.15064172617687Z" fill-rule="evenodd" style="fill: #D7A449; stroke: #fff; opacity: 1;" id="p-type-tokenTransfers"></path><path d="M72.55450309361198,183.1525159009263A197,197,0,0,1,71.21218397425034,183.6785911684253L61.67156038067187,159.07032608319236A170.6070045455344,170.6070045455344,0,0,0,62.83404283802462,158.61473153723549Z" fill-rule="evenodd" style="fill: #D7A449; stroke: #fff; opacity: 1;" id="p-type-tokenTransfers"></path><path d="M71.21218397425034,183.6785911684253A197,197,0,0,1,69.8660507931337,184.1948287726104L60.5057748489477,159.51740096280545A170.6070045455344,170.6070045455344,0,0,0,61.67156038067187,159.07032608319236Z" fill-rule="evenodd" style="fill: #D7A449; stroke: #fff; opacity: 1;" id="p-type-tokenTransfers"></path><path d="M69.8660507931337,184.1948287726104A197,197,0,0,1,68.51617564796774,184.70120106425088L59.33674868129679,159.95593223113863A170.6070045455344,170.6070045455344,0,0,0,60.5057748489477,159.51740096280545Z" fill-rule="evenodd" style="fill: #D7A449; stroke: #fff; opacity: 1;" id="p-type-tokenTransfers"></path><path d="M68.51617564796774,184.70120106425088A197,197,0,0,1,67.16263083687453,185.1976809224935L58.16454448972945,160.38589640084408A170.6070045455344,170.6070045455344,0,0,0,59.33674868129679,159.95593223113863Z" fill-rule="evenodd" style="fill: #D7A449; stroke: #fff; opacity: 1;" id="p-type-tokenTransfers"></path><path d="M67.16263083687453,185.1976809224935A197,197,0,0,1,65.80548885452009,185.684241756315L56.989225056468136,160.80727044342A170.6070045455344,170.6070045455344,0,0,0,58.16454448972945,160.38589640084408Z" fill-rule="evenodd" style="fill: #D7A449; stroke: #fff; opacity: 1;" id="p-type-tokenTransfers"></path><path d="M65.80548885452009,185.684241756315A197,197,0,0,1,64.44482238823184,186.16085750594632L55.810853330584905,161.22003179044452A170.6070045455344,170.6070045455344,0,0,0,56.989225056468136,160.80727044342Z" fill-rule="evenodd" style="fill: #D7A449; stroke: #fff; opacity: 1;" id="p-type-tokenTransfers"></path><path d="M64.44482238823184,186.16085750594632A197,197,0,0,1,63.08070431410541,186.6275026442684L54.629492424629916,161.6241583347839A170.6070045455344,170.6070045455344,0,0,0,55.810853330584905,161.22003179044452Z" fill-rule="evenodd" style="fill: #D7A449; stroke: #fff; opacity: 1;" id="p-type-tokenTransfers"></path><path d="M63.08070431410541,186.6275026442684A197,197,0,0,1,61.71320769310153,187.0841521781792L53.445205611251176,162.01962843177702A170.6070045455344,170.6070045455344,0,0,0,54.629492424629916,161.6241583347839Z" fill-rule="evenodd" style="fill: #D7A449; stroke: #fff; opacity: 1;" id="p-type-tokenTransfers"></path><path d="M61.71320769310153,187.0841521781792A197,197,0,0,1,60.342405767132895,187.53078164993255L52.2580563198057,162.40642090039424A170.6070045455344,170.6070045455344,0,0,0,53.445205611251176,162.01962843177702Z" fill-rule="evenodd" style="fill: #D7A449; stroke: #fff; opacity: 1;" id="p-type-tokenTransfers"></path><path d="M60.342405767132895,187.53078164993255A197,197,0,0,1,58.96837195514144,187.96736713844797L51.06810813296234,162.7845150243722A170.6070045455344,170.6070045455344,0,0,0,52.2580563198057,162.40642090039424Z" fill-rule="evenodd" style="fill: #D7A449; stroke: #fff; opacity: 1;" id="p-type-tokenTransfers"></path><path d="M58.96837195514144,187.96736713844797A197,197,0,0,1,57.59117984916605,188.39388526059176L49.87542478329625,163.15389055332318A170.6070045455344,170.6070045455344,0,0,0,51.06810813296234,162.7845150243722Z" fill-rule="evenodd" style="fill: #D7A449; stroke: #fff; opacity: 1;" id="p-type-tokenTransfers"></path><path d="M57.59117984916605,188.39388526059176A197,197,0,0,1,56.21090321040105,188.81031317242955L48.68007014987557,163.51452770381962A170.6070045455344,170.6070045455344,0,0,0,49.87542478329625,163.15389055332318Z" fill-rule="evenodd" style="fill: #D7A449; stroke: #fff; opacity: 1;" id="p-type-tokenTransfers"></path><path d="M56.21090321040105,188.81031317242955A197,197,0,0,1,54.82761596524563,189.21662857044976L47.48210825483998,163.8664071604539A170.6070045455344,170.6070045455344,0,0,0,48.68007014987557,163.51452770381962Z" fill-rule="evenodd" style="fill: #D7A449; stroke: #fff; opacity: 1;" id="p-type-tokenTransfers"></path><path d="M54.82761596524563,189.21662857044976A197,197,0,0,1,53.441392201344385,189.61280969275808L46.281603259971824,164.20951007687273A170.6070045455344,170.6070045455344,0,0,0,47.48210825483998,163.8664071604539Z" fill-rule="evenodd" style="fill: #D7A449; stroke: #fff; opacity: 1;" id="p-type-tokenTransfers"></path><path d="M53.441392201344385,189.61280969275808A197,197,0,0,1,52.05230616361929,189.99883532024307L45.07861946325962,164.54381807678655A170.6070045455344,170.6070045455344,0,0,0,46.281603259971824,164.20951007687273Z" fill-rule="evenodd" style="fill: #D7A449; stroke: #fff; opacity: 1;" id="p-type-tokenTransfers"></path><path d="M52.05230616361929,189.99883532024307A197,197,0,0,1,50.66043225029315,190.37468477771264L43.87322129545432,164.86931325495382A170.6070045455344,170.6070045455344,0,0,0,45.07861946325962,164.54381807678655Z" fill-rule="evenodd" style="fill: #D7A449; stroke: #fff; opacity: 1;" id="p-type-tokenTransfers"></path><path d="M50.66043225029315,190.37468477771264A197,197,0,0,1,49.265845008904954,190.74033793500146L42.66547331661849,165.18597817813992A170.6070045455344,170.6070045455344,0,0,0,43.87322129545432,164.86931325495382Z" fill-rule="evenodd" style="fill: #D7A449; stroke: #fff; opacity: 1;" id="p-type-tokenTransfers"></path><path d="M49.265845008904954,190.74033793500146A197,197,0,0,1,47.86861913231714,191.0957752080489L41.45544021266846,165.49379588605086A170.6070045455344,170.6070045455344,0,0,0,42.66547331661849,165.18597817813992Z" fill-rule="evenodd" style="fill: #D7A449; stroke: #fff; opacity: 1;" id="p-type-tokenTransfers"></path><path d="M47.86861913231714,191.0957752080489A197,197,0,0,1,46.46882945471512,191.4409775599482L40.24318679190988,165.7927498922418A170.6070045455344,170.6070045455344,0,0,0,41.45544021266846,165.49379588605086Z" fill-rule="evenodd" style="fill: #D7A449; stroke: #fff; opacity: 1;" id="p-type-tokenTransfers"></path><path d="M46.46882945471512,191.4409775599482A197,197,0,0,1,45.06655094759921,191.77592650196593L39.028777981566584,166.08282418499988A170.6070045455344,170.6070045455344,0,0,0,40.24318679190988,165.7927498922418Z" fill-rule="evenodd" style="fill: #D7A449; stroke: #fff; opacity: 1;" id="p-type-tokenTransfers"></path><path d="M45.06655094759921,191.77592650196593A197,197,0,0,1,43.66185871576928,192.1006040945322L37.8122788243032,166.36400322820182A170.6070045455344,170.6070045455344,0,0,0,39.028777981566584,166.08282418499988Z" fill-rule="evenodd" style="fill: #D7A449; stroke: #fff; opacity: 1;" id="p-type-tokenTransfers"></path><path d="M43.66185871576928,192.1006040945322A197,197,0,0,1,42.25482799330211,192.41499294820153L36.59375447474146,166.63627196214614A170.6070045455344,170.6070045455344,0,0,0,37.8122788243032,166.36400322820182Z" fill-rule="evenodd" style="fill: #D7A449; stroke: #fff; opacity: 1;" id="p-type-tokenTransfers"></path><path d="M42.25482799330211,192.41499294820153A197,197,0,0,1,40.84553413952202,192.7190762245843L35.37327019597063,166.89961580435963A170.6070045455344,170.6070045455344,0,0,0,36.59375447474146,166.63627196214614Z" fill-rule="evenodd" style="fill: #D7A449; stroke: #fff; opacity: 1;" id="p-type-tokenTransfers"></path><path d="M40.84553413952202,192.7190762245843A197,197,0,0,1,39.43405263496465,193.01283763724848L34.150891356052064,167.15402065037838A170.6070045455344,170.6070045455344,0,0,0,35.37327019597063,166.89961580435963Z" fill-rule="evenodd" style="fill: #D7A449; stroke: #fff; opacity: 1;" id="p-type-tokenTransfers"></path><path d="M39.43405263496465,193.01283763724848A197,197,0,0,1,38.02045907733424,193.29626145259186L32.92668342451811,167.3994728745033A170.6070045455344,170.6070045455344,0,0,0,34.150891356052064,167.15402065037838Z" fill-rule="evenodd" style="fill: #D7A449; stroke: #fff; opacity: 1;" id="p-type-tokenTransfers"></path><path d="M38.02045907733424,193.29626145259186A197,197,0,0,1,36.604829177454775,193.56933249068499L31.70071196886567,167.63595933052972A170.6070045455344,170.6070045455344,0,0,0,32.92668342451811,167.3994728745033Z" fill-rule="evenodd" style="fill: #D7A449; stroke: #fff; opacity: 1;" id="p-type-tokenTransfers"></path><path d="M36.604829177454775,193.56933249068499A197,197,0,0,1,35.18723875521491,193.83203612608392L30.473042651044445,167.86346735245172A170.6070045455344,170.6070045455344,0,0,0,31.70071196886567,167.63595933052972Z" fill-rule="evenodd" style="fill: #D7A449; stroke: #fff; opacity: 1;" id="p-type-tokenTransfers"></path><path d="M35.18723875521491,193.83203612608392A197,197,0,0,1,33.767763735507174,194.08435828861369L29.243741223940123,168.08198475514033A170.6070045455344,170.6070045455344,0,0,0,30.473042651044445,167.86346735245172Z" fill-rule="evenodd" style="fill: #D7A449; stroke: #fff; opacity: 1;" id="p-type-tokenTransfers"></path><path d="M33.767763735507174,194.08435828861369A197,197,0,0,1,32.34648014416143,194.32628546412184L28.01287352785273,168.29149983499622A170.6070045455344,170.6070045455344,0,0,0,29.243741223940123,168.08198475514033Z" fill-rule="evenodd" style="fill: #D7A449; stroke: #fff; opacity: 1;" id="p-type-tokenTransfers"></path><path d="M32.34648014416143,194.32628546412184A197,197,0,0,1,30.923464103873084,194.55780469520226L26.78050548697028,168.4920013705765A170.6070045455344,170.6070045455344,0,0,0,28.01287352785273,168.29149983499622Z" fill-rule="evenodd" style="fill: #D7A449; stroke: #fff; opacity: 1;" id="p-type-tokenTransfers"></path><path d="M30.923464103873084,194.55780469520226A197,197,0,0,1,29.498791830125963,194.7789035818892L25.54670310583794,168.68347862319584A170.6070045455344,170.6070045455344,0,0,0,26.78050548697028,168.4920013705765Z" fill-rule="evenodd" style="fill: #D7A449; stroke: #fff; opacity: 1;" id="p-type-tokenTransfers"></path><path d="M29.498791830125963,194.7789035818892A197,197,0,0,1,28.07253962711029,194.9895702823213L24.311532465822843,168.86592133750148A170.6070045455344,170.6070045455344,0,0,0,25.54670310583794,168.68347862319584Z" fill-rule="evenodd" style="fill: #D7A449; stroke: #fff; opacity: 1;" id="p-type-tokenTransfers"></path><path d="M28.07253962711029,194.9895702823213A197,197,0,0,1,26.644783883635927,195.18979351337592L23.075059721574906,169.0393197420226A170.6070045455344,170.6070045455344,0,0,0,24.311532465822843,168.86592133750148Z" fill-rule="evenodd" style="fill: #D7A449; stroke: #fff; opacity: 1;" id="p-type-tokenTransfers"></path><path d="M26.644783883635927,195.18979351337592A197,197,0,0,1,25.21560106904101,195.37956255127347L21.837351097483563,169.20366454969357A170.6070045455344,170.6070045455344,0,0,0,23.075059721574906,169.0393197420226Z" fill-rule="evenodd" style="fill: #D7A449; stroke: #fff; opacity: 1;" id="p-type-tokenTransfers"></path><path d="M25.21560106904101,195.37956255127347A197,197,0,0,1,23.785067729096365,195.55886723215158L20.5984728841309,169.3589469583515A170.6070045455344,170.6070045455344,0,0,0,21.837351097483563,169.20366454969357Z" fill-rule="evenodd" style="fill: #D7A449; stroke: #fff; opacity: 1;" id="p-type-tokenTransfers"></path><path d="M23.785067729096365,195.55886723215158A197,197,0,0,1,22.353260481905753,195.72769795260984L19.358491434741165,169.50515865120758A170.6070045455344,170.6070045455344,0,0,0,20.5984728841309,169.3589469583515Z" fill-rule="evenodd" style="fill: #D7A449; stroke: #fff; opacity: 1;" id="p-type-tokenTransfers"></path><path d="M22.353260481905753,195.72769795260984A197,197,0,0,1,20.920256013802295,195.8860456702237L18.117473161626965,169.64229179729247A170.6070045455344,170.6070045455344,0,0,0,19.358491434741165,169.50515865120758Z" fill-rule="evenodd" style="fill: #D7A449; stroke: #fff; opacity: 1;" id="p-type-tokenTransfers"></path><path d="M20.920256013802295,195.8860456702237A197,197,0,0,1,19.486131075241197,196.03390190402914L16.875484532632253,169.77033905187585A170.6070045455344,170.6070045455344,0,0,0,18.117473161626965,169.64229179729247Z" fill-rule="evenodd" style="fill: #D7A449; stroke: #fff; opacity: 1;" id="p-type-tokenTransfers"></path><path d="M19.486131075241197,196.03390190402914A197,197,0,0,1,18.05096247668908,196.17125873497667L15.63259206757241,169.88929355685977A170.6070045455344,170.6070045455344,0,0,0,16.875484532632253,169.77033905187585Z" fill-rule="evenodd" style="fill: #D7A449; stroke: #fff; opacity: 1;" id="p-type-tokenTransfers"></path><path d="M18.05096247668908,196.17125873497667A197,197,0,0,1,16.61482708451007,196.29810880635563L14.38886233467146,169.9991489411458A170.6070045455344,170.6070045455344,0,0,0,15.63259206757241,169.88929355685977Z" fill-rule="evenodd" style="fill: #D7A449; stroke: #fff; opacity: 1;" id="p-type-tokenTransfers"></path><path d="M16.61482708451007,196.29810880635563A197,197,0,0,1,15.17780181684891,196.41444532418805L13.144361946996764,170.0998993209765A170.6070045455344,170.6070045455344,0,0,0,14.38886233467146,169.9991489411458Z" fill-rule="evenodd" style="fill: #D7A449; stroke: #fff; opacity: 1;" id="p-type-tokenTransfers"></path><path d="M15.17780181684891,196.41444532418805A197,197,0,0,1,13.739963639511293,196.5202620575927L11.899157558891272,170.1915393002504A170.6070045455344,170.6070045455344,0,0,0,13.144361946996764,170.0998993209765Z" fill-rule="evenodd" style="fill: #D7A449; stroke: #fff; opacity: 1;" id="p-type-tokenTransfers"></path><path d="M13.739963639511293,196.5202620575927A197,197,0,0,1,12.301389561841624,196.61555333911866L10.65331586240357,170.27406397081106A170.6070045455344,170.6070045455344,0,0,0,11.899157558891272,170.1915393002504Z" fill-rule="evenodd" style="fill: #D7A449; stroke: #fff; opacity: 1;" id="p-type-tokenTransfers"></path><path d="M12.301389561841624,196.61555333911866A197,197,0,0,1,10.86215663259849,196.70031406504896L9.406903583715925,170.3474689127099A170.6070045455344,170.6070045455344,0,0,0,10.65331586240357,170.27406397081106Z" fill-rule="evenodd" style="fill: #D7A449; stroke: #fff; opacity: 1;" id="p-type-tokenTransfers"></path><path d="M10.86215663259849,196.70031406504896A197,197,0,0,1,9.422341935827989,196.7745396956739L8.159987479570484,170.41175019444304A170.6070045455344,170.6070045455344,0,0,0,9.406903583715925,170.3474689127099Z" fill-rule="evenodd" style="fill: #D7A449; stroke: #fff; opacity: 1;" id="p-type-tokenTransfers"></path><path d="M9.422341935827989,196.7745396956739A197,197,0,0,1,7.9820225867351695,196.83822625553412L6.912634333693834,170.46690437316164A170.6070045455344,170.6070045455344,0,0,0,8.159987479570484,170.41175019444304Z" fill-rule="evenodd" style="fill: #D7A449; stroke: #fff; opacity: 1;" id="p-type-tokenTransfers"></path><path d="M7.9820225867351695,196.83822625553412A197,197,0,0,1,6.541275727553813,196.89137033363374L5.664910953220139,170.5129284948566A170.6070045455344,170.6070045455344,0,0,0,6.912634333693834,170.46690437316164Z" fill-rule="evenodd" style="fill: #D7A449; stroke: #fff; opacity: 1;" id="p-type-tokenTransfers"></path><path d="M6.541275727553813,196.89137033363374A197,197,0,0,1,5.10017852341477,196.9339690836228L4.4168841651129975,170.54982009451658A170.6070045455344,170.6070045455344,0,0,0,5.664910953220139,170.5129284948566Z" fill-rule="evenodd" style="fill: #D7A449; stroke: #fff; opacity: 1;" id="p-type-tokenTransfers"></path><path d="M5.10017852341477,196.9339690836228A197,197,0,0,1,3.6588081582130503,196.96602022394978L3.1686208125862554,170.57757719626002A170.6070045455344,170.6070045455344,0,0,0,4.4168841651129975,170.54982009451658Z" fill-rule="evenodd" style="fill: #D7A449; stroke: #fff; opacity: 1;" id="p-type-tokenTransfers"></path><path d="M3.6588081582130503,196.96602022394978A197,197,0,0,1,2.217241830473934,196.98752203798392L1.9201877515239365,170.59619831344102A170.6070045455344,170.6070045455344,0,0,0,3.1686208125862554,170.57757719626002Z" fill-rule="evenodd" style="fill: #D7A449; stroke: #fff; opacity: 1;" id="p-type-tokenTransfers"></path><path d="M2.217241830473934,196.98752203798392A197,197,0,0,1,0.7755567492182815,196.998473374107L0.671651846899509,170.605682448729A170.6070045455344,170.6070045455344,0,0,0,1.9201877515239365,170.59619831344102Z" fill-rule="evenodd" style="fill: #D7A449; stroke: #fff; opacity: 1;" id="p-type-tokenTransfers"></path><path d="M0.7755567492182815,196.998473374107A197,197,0,0,1,-0.6661698701727146,196.99887364577515L-0.5769200308053523,170.606029094162A170.6070045455344,170.6070045455344,0,0,0,0.671651846899509,170.605682448729Z" fill-rule="evenodd" style="fill: #D7A449; stroke: #fff; opacity: 1;" id="p-type-tokenTransfers"></path><path d="M-0.6661698701727146,196.99887364577515A197,197,0,0,1,-2.107860810093115,196.98872283155012L-1.8254610091822838,170.59723823117406A170.6070045455344,170.6070045455344,0,0,0,-0.5769200308053523,170.606029094162Z" fill-rule="evenodd" style="fill: #D7A449; stroke: #fff; opacity: 1;" id="p-type-tokenTransfers"></path><path d="M-2.107860810093115,196.98872283155012A197,197,0,0,1,-3.549438854847942,196.9680214751006L-3.0739042174778644,170.579310330596A170.6070045455344,170.6070045455344,0,0,0,-1.8254610091822838,170.59723823117406Z" fill-rule="evenodd" style="fill: #D7A449; stroke: #fff; opacity: 1;" id="p-type-tokenTransfers"></path><path d="M-3.549438854847942,196.9680214751006A197,197,0,0,1,-4.9908267947887825,196.936770685173L-4.322182790175151,170.55224635263036A170.6070045455344,170.6070045455344,0,0,0,-3.0739042174778644,170.579310330596Z" fill-rule="evenodd" style="fill: #D7A449; stroke: #fff; opacity: 1;" id="p-type-tokenTransfers"></path><path d="M-4.9908267947887825,196.936770685173A197,197,0,0,1,-6.431947430449069,196.89497213553204L-5.570229870574938,170.51604774679993A170.6070045455344,170.6070045455344,0,0,0,-4.322182790175151,170.55224635263036Z" fill-rule="evenodd" style="fill: #D7A449; stroke: #fff; opacity: 1;" id="p-type-tokenTransfers"></path><path d="M-6.431947430449069,196.89497213553204A197,197,0,0,1,-7.872723576678819,196.84262806487115L-6.817978614376544,170.47071645187012A170.6070045455344,170.6070045455344,0,0,0,-5.570229870574938,170.51604774679993Z" fill-rule="evenodd" style="fill: #D7A449; stroke: #fff; opacity: 1;" id="p-type-tokenTransfers"></path><path d="M-7.872723576678819,196.84262806487115A197,197,0,0,1,-9.313078066778596,196.77974127669262L-8.065362193257933,170.41625489574508A170.6070045455344,170.6070045455344,0,0,0,-6.817978614376544,170.47071645187012Z" fill-rule="evenodd" style="fill: #D7A449; stroke: #fff; opacity: 1;" id="p-type-tokenTransfers"></path><path d="M-9.313078066778596,196.77974127669262A197,197,0,0,1,-10.752933756632494,196.7063151391573L-9.312313798454976,170.35266599533776A170.6070045455344,170.6070045455344,0,0,0,-8.065362193257933,170.41625489574508Z" fill-rule="evenodd" style="fill: #D7A449; stroke: #fff; opacity: 1;" id="p-type-tokenTransfers"></path><path d="M-10.752933756632494,196.7063151391573A197,197,0,0,1,-12.192213528839911,196.6223535849044L-10.558766644339679,170.2799531564135A170.6070045455344,170.6070045455344,0,0,0,-9.312313798454976,170.35266599533776Z" fill-rule="evenodd" style="fill: #D7A449; stroke: #fff; opacity: 1;" id="p-type-tokenTransfers"></path><path d="M-12.192213528839911,196.6223535849044A197,197,0,0,1,-13.630840296845882,196.5278611108407L-11.804653971997153,170.19812027340788A170.6070045455344,170.6070045455344,0,0,0,-10.558766644339679,170.2799531564135Z" fill-rule="evenodd" style="fill: #D7A449; stroke: #fff; opacity: 1;" id="p-type-tokenTransfers"></path><path d="M-13.630840296845882,196.5278611108407A197,197,0,0,1,-15.06873700906978,196.42284277789966L-13.04990905280117,170.10717172921787A170.6070045455344,170.6070045455344,0,0,0,-11.804653971997153,170.19812027340788Z" fill-rule="evenodd" style="fill: #D7A449; stroke: #fff; opacity: 1;" id="p-type-tokenTransfers"></path><path d="M-15.06873700906978,196.42284277789966A197,197,0,0,1,-16.50582665303211,196.30730421077067L-14.294465191988081,170.0071123949673A170.6070045455344,170.6070045455344,0,0,0,-13.04990905280117,170.10717172921787Z" fill-rule="evenodd" style="fill: #D7A449; stroke: #fff; opacity: 1;" id="p-type-tokenTransfers"></path><path d="M-16.50582665303211,196.30730421077067A197,197,0,0,1,-17.942032259479248,196.1812515975974L-15.538255732228938,169.89794762974583A170.6070045455344,170.6070045455344,0,0,0,-14.294465191988081,170.0071123949673Z" fill-rule="evenodd" style="fill: #D7A449; stroke: #fff; opacity: 1;" id="p-type-tokenTransfers"></path><path d="M-110.6164649802261,163.01226234635973A197,197,0,0,1,-153.8659029495846,123.02147743182493L-133.25178073057126,106.5397246670544A170.6070045455344,170.6070045455344,0,0,0,-95.79666874970752,141.17276032032103Z" fill-rule="evenodd" style="fill: #414552; stroke: #fff; opacity: 1;" id="p-type-ether"></path><path d="M-153.8659029495846,123.02147743182493A197,197,0,0,1,-172.5878655674758,94.98646566149777L-149.46547596636765,82.26069227855533A170.6070045455344,170.6070045455344,0,0,0,-133.25178073057126,106.5397246670544Z" fill-rule="evenodd" style="fill: #414552; stroke: #fff; opacity: 1;" id="p-type-ether"></path><path d="M-172.5878655674758,94.98646566149777A197,197,0,0,1,-182.1853753706428,74.94990994696384L-157.77716326898044,64.90852602542668A170.6070045455344,170.6070045455344,0,0,0,-149.46547596636765,82.26069227855533Z" fill-rule="evenodd" style="fill: #414552; stroke: #fff; opacity: 1;" id="p-type-ether"></path><path d="M-182.1853753706428,74.94990994696384A197,197,0,0,1,-183.27567744548736,72.24282702730886L-158.72139256359472,62.564123446854516A170.6070045455344,170.6070045455344,0,0,0,-157.77716326898044,64.90852602542668Z" fill-rule="evenodd" style="fill: #414552; stroke: #fff; opacity: 1;" id="p-type-ether"></path><path d="M-183.27567744548736,72.24282702730886A197,197,0,0,1,-184.3137618388572,69.55168723193582L-159.62040001952516,60.2335280189262A170.6070045455344,170.6070045455344,0,0,0,-158.72139256359472,62.564123446854516Z" fill-rule="evenodd" style="fill: #414552; stroke: #fff; opacity: 1;" id="p-type-ether"></path><path d="M-184.3137618388572,69.55168723193582A197,197,0,0,1,-185.19900764249294,67.15897235839626L-160.3870453740673,58.161376154428076A170.6070045455344,170.6070045455344,0,0,0,-159.62040001952516,60.2335280189262Z" fill-rule="evenodd" style="fill: #414552; stroke: #fff; opacity: 1;" id="p-type-ether"></path><path d="M-185.19900764249294,67.15897235839626A197,197,0,0,1,-185.5405227699076,66.20962475553995L-160.68280615018506,57.33921701333264A170.6070045455344,170.6070045455344,0,0,0,-160.3870453740673,58.161376154428076Z" fill-rule="evenodd" style="fill: #414552; stroke: #fff; opacity: 1;" id="p-type-ether"></path></g></svg>