<svg xmlns="http://www.w3.org/2000/svg" width="400" height="400" id="block-7824887"><g id="burst-container" transform="translate(200,200)"><circle r="197" style="fill: #f9f9f9; stroke: #f9f9f9; stroke-width: 3; opacity: 1;" id="circle-base"></circle><path display="none" d="M6.031385485800715e-15,-98.5A98.5,98.5,0,1,1,-6.031385485800715e-15,98.5A98.5,98.5,0,1,1,6.031385485800715e-15,-98.5Z" fill-rule="evenodd" id="p-type-root" style="stroke: #fff; opacity: 1;"></path><path d="M8.529667153919608e-15,-139.30003589374985A139.30003589374985,139.30003589374985,0,1,1,-95.7323974091463,-101.19193686404701L-67.69302738725283,-71.55350475796862A98.5,98.5,0,1,0,6.031385485800715e-15,-98.5Z" fill-rule="evenodd" style="fill: #0B1F65; stroke: #fff; opacity: 1;" id="p-type-data"></path><path d="M-95.7323974091463,-101.19193686404701A139.30003589374985,139.30003589374985,0,0,1,-2.24554147136818,-139.28193545288048L-1.5878376018400577,-98.4872010555188A98.5,98.5,0,0,0,-67.69302738725283,-71.55350475796862Z" fill-rule="evenodd" style="fill: #D7A449; stroke: #fff; opacity: 1;" id="p-type-value"></path><path d="M1.0446666101440332e-14,-170.6070045455344A170.6070045455344,170.6070045455344,0,0,1,166.44712683580005,37.444678768913086L135.90350996667428,30.573452188754548A139.30003589374985,139.30003589374985,0,0,0,8.529667153919608e-15,-139.30003589374985Z" fill-rule="evenodd" style="fill: #DB3F29; stroke: #fff; opacity: 1;" id="p-type-functions"></path><path d="M166.44712683580005,37.444678768913086A170.6070045455344,170.6070045455344,0,0,1,37.40703030523092,166.45559192692667L30.542712346880872,135.91042168463642A139.30003589374985,139.30003589374985,0,0,0,135.90350996667428,30.573452188754548Z" fill-rule="evenodd" style="fill: #1DC690; stroke: #fff; opacity: 1;" id="p-type-logs"></path><path d="M37.40703030523092,166.45559192692667A170.6070045455344,170.6070045455344,0,0,1,-115.32032881600463,125.72975686673608L-94.15865418972889,102.65791660256428A139.30003589374985,139.30003589374985,0,0,0,30.542712346880872,135.91042168463642Z" fill-rule="evenodd" style="fill: #D7A449; stroke: #fff; opacity: 1;" id="p-type-tokenTransfers"></path><path d="M-115.32032881600463,125.72975686673608A170.6070045455344,170.6070045455344,0,0,1,-170.56112395033776,-3.956386836182634L-139.26257454464087,-3.230376324570584A139.30003589374985,139.30003589374985,0,0,0,-94.15865418972889,102.65791660256428Z" fill-rule="evenodd" style="fill: #414552; stroke: #fff; opacity: 1;" id="p-type-ether"></path><path d="M-117.24776275287338,-123.93430570042307A170.6070045455344,170.6070045455344,0,0,1,-46.17260807420428,-164.24019076835586L-37.69977662510371,-134.10155421328002A139.30003589374985,139.30003589374985,0,0,0,-95.7323974091463,-101.19193686404701Z" fill-rule="evenodd" style="fill: #D7A449; stroke: #fff; opacity: 1;" id="p-type-tokenTransfers"></path><path d="M-46.17260807420428,-164.24019076835586A170.6070045455344,170.6070045455344,0,0,1,-5.499716083258176,-170.51833661809965L-4.490499378053525,-139.22763883416144A139.30003589374985,139.30003589374985,0,0,0,-37.69977662510371,-134.10155421328002Z" fill-rule="evenodd" style="fill: #414552; stroke: #fff; opacity: 1;" id="p-type-ether"></path><path d="M1.206277097160143e-14,-197A197,197,0,0,1,108.0186416926923,-164.74517609588986L93.54688778816045,-142.67350764998147A170.6070045455344,170.6070045455344,0,0,0,1.0446666101440332e-14,-170.6070045455344Z" fill-rule="evenodd" style="fill: #DB3F29; stroke: #fff; opacity: 1;" id="p-type-functions"></path><path d="M108.0186416926923,-164.74517609588986A197,197,0,0,1,109.3430366664102,-163.86915613552196L94.69384748004457,-141.91485211008063A170.6070045455344,170.6070045455344,0,0,0,93.54688778816045,-142.67350764998147Z" fill-rule="evenodd" style="fill: #DB3F29; stroke: #fff; opacity: 1;" id="p-type-functions"></path><path d="M109.3430366664102,-163.86915613552196A197,197,0,0,1,110.66032758841666,-162.98248954419708L95.8346548826768,-141.14697631730633A170.6070045455344,170.6070045455344,0,0,0,94.69384748004457,-141.91485211008063Z" fill-rule="evenodd" style="fill: #DB3F29; stroke: #fff; opacity: 1;" id="p-type-functions"></path><path d="M110.66032758841666,-162.98248954419708A197,197,0,0,1,111.97042887390336,-162.08523392892442L96.96923587743892,-140.36993016079197A170.6070045455344,170.6070045455344,0,0,0,95.8346548826768,-141.14697631730633Z" fill-rule="evenodd" style="fill: #DB3F29; stroke: #fff; opacity: 1;" id="p-type-functions"></path><path d="M111.97042887390336,-162.08523392892442A197,197,0,0,1,113.27325540517502,-161.17744758468532L98.09751675024454,-139.5837641254723A170.6070045455344,170.6070045455344,0,0,0,96.96923587743892,-140.36993016079197Z" fill-rule="evenodd" style="fill: #DB3F29; stroke: #fff; opacity: 1;" id="p-type-functions"></path><path d="M113.27325540517502,-161.17744758468532A197,197,0,0,1,114.56872253717938,-160.25918949064607L99.21942419632809,-138.78852928880363A170.6070045455344,170.6070045455344,0,0,0,98.09751675024454,-139.5837641254723Z" fill-rule="evenodd" style="fill: #DB3F29; stroke: #fff; opacity: 1;" id="p-type-functions"></path><path d="M114.56872253717938,-160.25918949064607A197,197,0,0,1,115.85674610300676,-159.3305193063257L100.3348853250076,-137.98427731744502A170.6070045455344,170.6070045455344,0,0,0,99.21942419632809,-138.78852928880363Z" fill-rule="evenodd" style="fill: #DB3F29; stroke: #fff; opacity: 1;" id="p-type-functions"></path><path d="M115.85674610300676,-159.3305193063257A197,197,0,0,1,117.13724241935822,-158.39149736772015L101.44382766442038,-137.17106046390168A170.6070045455344,170.6070045455344,0,0,0,100.3348853250076,-137.98427731744502Z" fill-rule="evenodd" style="fill: #DB3F29; stroke: #fff; opacity: 1;" id="p-type-functions"></path><path d="M117.13724241935822,-158.39149736772015A197,197,0,0,1,118.41012829198274,-157.44218468338207L102.54617916623154,-136.34893156313012A170.6070045455344,170.6070045455344,0,0,0,101.44382766442038,-137.17106046390168Z" fill-rule="evenodd" style="fill: #DB3F29; stroke: #fff; opacity: 1;" id="p-type-functions"></path><path d="M118.41012829198274,-157.44218468338207A197,197,0,0,1,119.67532102108213,-156.4826429304571L103.64186821031495,-135.51794402910525A170.6070045455344,170.6070045455344,0,0,0,102.54617916623154,-136.34893156313012Z" fill-rule="evenodd" style="fill: #DB3F29; stroke: #fff; opacity: 1;" id="p-type-functions"></path><path d="M119.67532102108213,-156.4826429304571A197,197,0,0,1,120.93273840668421,-155.51293445067677L104.73082360940658,-134.6781518513503A170.6070045455344,170.6070045455344,0,0,0,103.64186821031495,-135.51794402910525Z" fill-rule="evenodd" style="fill: #DB3F29; stroke: #fff; opacity: 1;" id="p-type-functions"></path><path d="M120.93273840668421,-155.51293445067677A197,197,0,0,1,122.1822987539833,-154.533122246308L105.8129746137293,-133.8296095914289A170.6070045455344,170.6070045455344,0,0,0,104.73082360940658,-134.6781518513503Z" fill-rule="evenodd" style="fill: #DB3F29; stroke: #fff; opacity: 1;" id="p-type-functions"></path><path d="M122.1822987539833,-154.533122246308A197,197,0,0,1,123.42392087864805,-153.54326997605995L106.88825091558978,-132.97237237940038A170.6070045455344,170.6070045455344,0,0,0,105.8129746137293,-133.8296095914289Z" fill-rule="evenodd" style="fill: #DB3F29; stroke: #fff; opacity: 1;" id="p-type-functions"></path><path d="M123.42392087864805,-153.54326997605995A197,197,0,0,1,124.65752411209589,-152.54344195094797L107.95658265394624,-132.10649591023778A170.6070045455344,170.6070045455344,0,0,0,106.88825091558978,-132.97237237940038Z" fill-rule="evenodd" style="fill: #DB3F29; stroke: #fff; opacity: 1;" id="p-type-functions"></path><path d="M124.65752411209589,-152.54344195094797A197,197,0,0,1,125.88302830673419,-151.53370313011544L109.01790041894739,-131.23203644020947A170.6070045455344,170.6070045455344,0,0,0,107.95658265394624,-132.10649591023778Z" fill-rule="evenodd" style="fill: #DB3F29; stroke: #fff; opacity: 1;" id="p-type-functions"></path><path d="M125.88302830673419,-151.53370313011544A197,197,0,0,1,127.10035384116736,-150.51411911661327L110.072135256442,-130.3490507832241A170.6070045455344,170.6070045455344,0,0,0,109.01790041894739,-131.23203644020947Z" fill-rule="evenodd" style="fill: #DB3F29; stroke: #fff; opacity: 1;" id="p-type-functions"></path><path d="M127.10035384116736,-150.51411911661327A197,197,0,0,1,128.30942162537008,-149.48475615313762L111.11921867245891,-129.45759630713934A170.6070045455344,170.6070045455344,0,0,0,110.072135256442,-130.3490507832241Z" fill-rule="evenodd" style="fill: #DB3F29; stroke: #fff; opacity: 1;" id="p-type-functions"></path><path d="M128.30942162537008,-149.48475615313762A197,197,0,0,1,129.51015310582557,-148.4456811177261L112.15908263765705,-128.55773093003475A170.6070045455344,170.6070045455344,0,0,0,111.11921867245891,-129.45759630713934Z" fill-rule="evenodd" style="fill: #DB3F29; stroke: #fff; opacity: 1;" id="p-type-functions"></path><path d="M129.51015310582557,-148.4456811177261A197,197,0,0,1,130.70247027062936,-147.39696151941274L113.19165959174539,-127.64951311644879A170.6070045455344,170.6070045455344,0,0,0,112.15908263765705,-128.55773093003475Z" fill-rule="evenodd" style="fill: #DB3F29; stroke: #fff; opacity: 1;" id="p-type-functions"></path><path d="M130.70247027062936,-147.39696151941274A197,197,0,0,1,131.8862956545578,-146.33866549384194L114.21688244787227,-126.73300187358036A170.6070045455344,170.6070045455344,0,0,0,113.19165959174539,-127.64951311644879Z" fill-rule="evenodd" style="fill: #DB3F29; stroke: #fff; opacity: 1;" id="p-type-functions"></path><path d="M131.8862956545578,-146.33866549384194A197,197,0,0,1,133.06155234410085,-145.2708617988415L115.23468459698414,-125.8082567474551A170.6070045455344,170.6070045455344,0,0,0,114.21688244787227,-126.73300187358036Z" fill-rule="evenodd" style="fill: #DB3F29; stroke: #fff; opacity: 1;" id="p-type-functions"></path><path d="M133.06155234410085,-145.2708617988415A197,197,0,0,1,134.22816398245928,-144.1936198099556L116.24499991215315,-124.87533781905664A170.6070045455344,170.6070045455344,0,0,0,115.23468459698414,-125.8082567474551Z" fill-rule="evenodd" style="fill: #DB3F29; stroke: #fff; opacity: 1;" id="p-type-functions"></path><path d="M134.22816398245928,-144.1936198099556A197,197,0,0,1,135.3860547745056,-143.10700951593728L117.24776275287334,-123.93430570042308A170.6070045455344,170.6070045455344,0,0,0,116.24499991215315,-124.87533781905664Z" fill-rule="evenodd" style="fill: #DB3F29; stroke: #fff; opacity: 1;" id="p-type-functions"></path><path d="M135.3860547745056,-143.10700951593728A197,197,0,0,1,136.53514949170847,-142.0111015142014L118.24290796932553,-122.98522153070918A170.6070045455344,170.6070045455344,0,0,0,117.24776275287334,-123.93430570042308Z" fill-rule="evenodd" style="fill: #DB3F29; stroke: #fff; opacity: 1;" id="p-type-functions"></path><path d="M136.53514949170847,-142.0111015142014A197,197,0,0,1,137.6753734770203,-140.90596700623783L119.23037090660988,-122.0281469722139A170.6070045455344,170.6070045455344,0,0,0,118.24290796932553,-122.98522153070918Z" fill-rule="evenodd" style="fill: #DB3F29; stroke: #fff; opacity: 1;" id="p-type-functions"></path><path d="M137.6753734770203,-140.90596700623783A197,197,0,0,1,138.80665264972768,-139.7916777929854L120.21008740894672,-121.06314420637432A170.6070045455344,170.6070045455344,0,0,0,119.23037090660988,-122.0281469722139Z" fill-rule="evenodd" style="fill: #DB3F29; stroke: #fff; opacity: 1;" id="p-type-functions"></path><path d="M138.80665264972768,-139.7916777929854A197,197,0,0,1,139.92891351026466,-138.66830627016714L121.18199382384473,-120.09027592972569A170.6070045455344,170.6070045455344,0,0,0,120.21008740894672,-121.06314420637432Z" fill-rule="evenodd" style="fill: #DB3F29; stroke: #fff; opacity: 1;" id="p-type-functions"></path><path d="M139.92891351026466,-138.66830627016714A197,197,0,0,1,141.0420831449878,-137.53592542358652L122.14602700623642,-119.10960534982794A170.6070045455344,170.6070045455344,0,0,0,121.18199382384473,-120.09027592972569Z" fill-rule="evenodd" style="fill: #DB3F29; stroke: #fff; opacity: 1;" id="p-type-functions"></path><path d="M141.0420831449878,-137.53592542358652A197,197,0,0,1,142.14608923091345,-136.39460882438567L123.10212432258066,-118.12119618115916A170.6070045455344,170.6070045455344,0,0,0,122.14602700623642,-119.10960534982794Z" fill-rule="evenodd" style="fill: #DB3F29; stroke: #fff; opacity: 1;" id="p-type-functions"></path><path d="M142.14608923091345,-136.39460882438567A197,197,0,0,1,143.24086004041672,-135.24443062426545L124.05022365493214,-117.12511264097597A170.6070045455344,170.6070045455344,0,0,0,123.10212432258066,-118.12119618115916Z" fill-rule="evenodd" style="fill: #DB3F29; stroke: #fff; opacity: 1;" id="p-type-functions"></path><path d="M143.24086004041672,-135.24443062426545A197,197,0,0,1,144.32632444589146,-134.0854655506676L124.99026340497704,-116.12141944514136A170.6070045455344,170.6070045455344,0,0,0,124.05022365493214,-117.12511264097597Z" fill-rule="evenodd" style="fill: #DB3F29; stroke: #fff; opacity: 1;" id="p-type-functions"></path><path d="M144.32632444589146,-134.0854655506676A197,197,0,0,1,145.40241192437162,-132.91778890191998L125.9221824980352,-115.11018180392001A170.6070045455344,170.6070045455344,0,0,0,124.99026340497704,-116.12141944514136Z" fill-rule="evenodd" style="fill: #DB3F29; stroke: #fff; opacity: 1;" id="p-type-functions"></path><path d="M145.40241192437162,-132.91778890191998A197,197,0,0,1,146.46905256211295,-131.7414765423441L126.84592038702803,-114.09146541774169A170.6070045455344,170.6070045455344,0,0,0,125.9221824980352,-115.11018180392001Z" fill-rule="evenodd" style="fill: #DB3F29; stroke: #fff; opacity: 1;" id="p-type-functions"></path><path d="M146.46905256211295,-131.7414765423441A197,197,0,0,1,147.52617705913556,-130.5566048973264L127.76141705641245,-113.0653364729325A170.6070045455344,170.6070045455344,0,0,0,126.84592038702803,-114.09146541774169Z" fill-rule="evenodd" style="fill: #DB3F29; stroke: #fff; opacity: 1;" id="p-type-functions"></path><path d="M147.52617705913556,-130.5566048973264A197,197,0,0,1,148.57371673372614,-129.3632509483528L128.66861302608,-112.0318616374149A170.6070045455344,170.6070045455344,0,0,0,127.76141705641245,-113.0653364729325Z" fill-rule="evenodd" style="fill: #DB3F29; stroke: #fff; opacity: 1;" id="p-type-functions"></path><path d="M148.57371673372614,-129.3632509483528A197,197,0,0,1,149.61160352690044,-128.1614922280072L129.5674493552213,-110.99110805637613A170.6070045455344,170.6070045455344,0,0,0,128.66861302608,-112.0318616374149Z" fill-rule="evenodd" style="fill: #DB3F29; stroke: #fff; opacity: 1;" id="p-type-functions"></path><path d="M149.61160352690044,-128.1614922280072A197,197,0,0,1,150.63977000682485,-126.95140681493417L130.45786764615545,-109.9431433479059A170.6070045455344,170.6070045455344,0,0,0,129.5674493552213,-110.99110805637613Z" fill-rule="evenodd" style="fill: #DB3F29; stroke: #fff; opacity: 1;" id="p-type-functions"></path><path d="M150.63977000682485,-126.95140681493417A197,197,0,0,1,151.65814937319763,-125.73307332876611L131.33981004812418,-108.88803559860311A170.6070045455344,170.6070045455344,0,0,0,130.45786764615545,-109.9431433479059Z" fill-rule="evenodd" style="fill: #DB3F29; stroke: #fff; opacity: 1;" id="p-type-functions"></path><path d="M151.65814937319763,-125.73307332876611A197,197,0,0,1,152.66667546158894,-124.50657092501535L132.2132192610504,-107.82585335915226A170.6070045455344,170.6070045455344,0,0,0,131.33981004812418,-108.88803559860311Z" fill-rule="evenodd" style="fill: #DB3F29; stroke: #fff; opacity: 1;" id="p-type-functions"></path><path d="M152.66667546158894,-124.50657092501535A197,197,0,0,1,153.66528274773947,-123.27197928993141L133.078038539261,-106.7566656398698A170.6070045455344,170.6070045455344,0,0,0,132.2132192610504,-107.82585335915226Z" fill-rule="evenodd" style="fill: #DB3F29; stroke: #fff; opacity: 1;" id="p-type-functions"></path><path d="M153.66528274773947,-123.27197928993141A197,197,0,0,1,154.65390635181774,-122.02937863532367L133.93421169517373,-105.68054190622033A170.6070045455344,170.6070045455344,0,0,0,133.078038539261,-106.7566656398698Z" fill-rule="evenodd" style="fill: #DB3F29; stroke: #fff; opacity: 1;" id="p-type-functions"></path><path d="M154.65390635181774,-122.02937863532367A197,197,0,0,1,155.6324820426351,-120.77884969335008L134.78168310294748,-104.59755207430354A170.6070045455344,170.6070045455344,0,0,0,133.93421169517373,-105.68054190622033Z" fill-rule="evenodd" style="fill: #DB3F29; stroke: #fff; opacity: 1;" id="p-type-functions"></path><path d="M155.6324820426351,-120.77884969335008A197,197,0,0,1,156.60094624181917,-119.52047371127199L135.62039770209662,-103.5077665063117A170.6070045455344,170.6070045455344,0,0,0,134.78168310294748,-104.59755207430354Z" fill-rule="evenodd" style="fill: #DB3F29; stroke: #fff; opacity: 1;" id="p-type-functions"></path><path d="M156.60094624181917,-119.52047371127199A197,197,0,0,1,157.55923602794425,-118.25433244617533L136.45030100106808,-102.41125600595822A170.6070045455344,170.6070045455344,0,0,0,135.62039770209662,-103.5077665063117Z" fill-rule="evenodd" style="fill: #DB3F29; stroke: #fff; opacity: 1;" id="p-type-functions"></path><path d="M157.55923602794425,-118.25433244617533A197,197,0,0,1,158.50728914061955,-116.98050815965895L137.27133908078181,-101.30809181387747A170.6070045455344,170.6070045455344,0,0,0,136.45030100106808,-102.41125600595822Z" fill-rule="evenodd" style="fill: #DB3F29; stroke: #fff; opacity: 1;" id="p-type-functions"></path><path d="M158.50728914061955,-116.98050815965895A197,197,0,0,1,159.44504398453415,-115.69908361249007L138.08345859813377,-100.19834560299624A170.6070045455344,170.6070045455344,0,0,0,137.27133908078181,-101.30809181387747Z" fill-rule="evenodd" style="fill: #DB3F29; stroke: #fff; opacity: 1;" id="p-type-functions"></path><path d="M159.44504398453415,-115.69908361249007A197,197,0,0,1,160.37243963345895,-114.41014205922724L138.8866067894618,-99.08208947387726A170.6070045455344,170.6070045455344,0,0,0,138.08345859813377,-100.19834560299624Z" fill-rule="evenodd" style="fill: #DB3F29; stroke: #fff; opacity: 1;" id="p-type-functions"></path><path d="M160.37243963345895,-114.41014205922724A197,197,0,0,1,161.28941583420504,-113.11376724281128L139.68073147397365,-97.95939595003465A170.6070045455344,170.6070045455344,0,0,0,138.8866067894618,-99.08208947387726Z" fill-rule="evenodd" style="fill: #DB3F29; stroke: #fff; opacity: 1;" id="p-type-functions"></path><path d="M161.28941583420504,-113.11376724281128A197,197,0,0,1,162.1959130105383,-111.81004338912443L140.46578105713712,-96.83033797322209A170.6070045455344,170.6070045455344,0,0,0,139.68073147397365,-97.95939595003465Z" fill-rule="evenodd" style="fill: #DB3F29; stroke: #fff; opacity: 1;" id="p-type-functions"></path><path d="M162.1959130105383,-111.81004338912443A197,197,0,0,1,163.0918722670502,-110.49905520151826L141.24170453403224,-95.69498889869382A170.6070045455344,170.6070045455344,0,0,0,140.46578105713712,-96.83033797322209Z" fill-rule="evenodd" style="fill: #DB3F29; stroke: #fff; opacity: 1;" id="p-type-functions"></path><path d="M163.0918722670502,-110.49905520151826A197,197,0,0,1,163.97723539298417,-109.18088785531039L142.00845149266505,-94.55342249043869A170.6070045455344,170.6070045455344,0,0,0,141.24170453403224,-95.69498889869382Z" fill-rule="evenodd" style="fill: #DB3F29; stroke: #fff; opacity: 1;" id="p-type-functions"></path><path d="M163.97723539298417,-109.18088785531039A197,197,0,0,1,164.85194486601756,-107.85562699225065L142.76597211724288,-93.40571291638766A170.6070045455344,170.6070045455344,0,0,0,142.00845149266505,-94.55342249043869Z" fill-rule="evenodd" style="fill: #DB3F29; stroke: #fff; opacity: 1;" id="p-type-functions"></path><path d="M164.85194486601756,-107.85562699225065A197,197,0,0,1,165.71594385599903,-106.52335871495688L143.51421719141092,-92.25193474359513A170.6070045455344,170.6070045455344,0,0,0,142.76597211724288,-93.40571291638766Z" fill-rule="evenodd" style="fill: #DB3F29; stroke: #fff; opacity: 1;" id="p-type-functions"></path><path d="M165.71594385599903,-106.52335871495688A197,197,0,0,1,166.5691762286406,-105.1841695813209L144.2531381014498,-91.0921629333943A170.6070045455344,170.6070045455344,0,0,0,143.51421719141092,-92.25193474359513Z" fill-rule="evenodd" style="fill: #DB3F29; stroke: #fff; opacity: 1;" id="p-type-functions"></path><path d="M166.5691762286406,-105.1841695813209A197,197,0,0,1,167.41158654916487,-103.83814659888473L144.982686839434,-89.92647283652688A170.6070045455344,170.6070045455344,0,0,0,144.2531381014498,-91.0921629333943Z" fill-rule="evenodd" style="fill: #DB3F29; stroke: #fff; opacity: 1;" id="p-type-functions"></path><path d="M167.41158654916487,-103.83814659888473A197,197,0,0,1,168.24312008590664,-102.48537721918768L145.7028160063511,-88.75494018824752A170.6070045455344,170.6070045455344,0,0,0,144.982686839434,-89.92647283652688Z" fill-rule="evenodd" style="fill: #DB3F29; stroke: #fff; opacity: 1;" id="p-type-functions"></path><path d="M168.24312008590664,-102.48537721918768A197,197,0,0,1,169.06372281386874,-101.12594933208467L146.41347881518107,-87.57764110340331A170.6070045455344,170.6070045455344,0,0,0,145.7028160063511,-88.75494018824752Z" fill-rule="evenodd" style="fill: #DB3F29; stroke: #fff; opacity: 1;" id="p-type-functions"></path><path d="M169.06372281386874,-101.12594933208467A197,197,0,0,1,169.87334141823212,-99.75995126003593L147.1146290939363,-86.39465207148854A170.6070045455344,170.6070045455344,0,0,0,146.41347881518107,-87.57764110340331Z" fill-rule="evenodd" style="fill: #DB3F29; stroke: #fff; opacity: 1;" id="p-type-functions"></path><path d="M169.87334141823212,-99.75995126003593A197,197,0,0,1,170.67192329781972,-98.38747175236868L147.80622128866105,-85.20604995167514A170.6070045455344,170.6070045455344,0,0,0,147.1146290939363,-86.39465207148854Z" fill-rule="evenodd" style="fill: #DB3F29; stroke: #fff; opacity: 1;" id="p-type-functions"></path><path d="M170.67192329781972,-98.38747175236868A197,197,0,0,1,171.45941656851394,-97.00859997951109L148.48821046639156,-84.01191196781917A170.6070045455344,170.6070045455344,0,0,0,147.80622128866105,-85.20604995167514Z" fill-rule="evenodd" style="fill: #DB3F29; stroke: #fff; opacity: 1;" id="p-type-functions"></path><path d="M171.45941656851394,-97.00859997951109A197,197,0,0,1,172.23577006662774,-95.6234255271988L149.16055231807502,-82.81231570344353A170.6070045455344,170.6070045455344,0,0,0,148.48821046639156,-84.01191196781917Z" fill-rule="evenodd" style="fill: #DB3F29; stroke: #fff; opacity: 1;" id="p-type-functions"></path><path d="M172.23577006662774,-95.6234255271988A197,197,0,0,1,173.00093335222851,-94.23203839065454L149.82320316144845,-81.60733909669732A170.6070045455344,170.6070045455344,0,0,0,149.16055231807502,-82.81231570344353Z" fill-rule="evenodd" style="fill: #DB3F29; stroke: #fff; opacity: 1;" id="p-type-functions"></path><path d="M173.00093335222851,-94.23203839065454A197,197,0,0,1,173.7548567124153,-92.83452896874108L150.47611994387674,-80.39706043529216A170.6070045455344,170.6070045455344,0,0,0,149.82320316144845,-81.60733909669732Z" fill-rule="evenodd" style="fill: #DB3F29; stroke: #fff; opacity: 1;" id="p-type-functions"></path><path d="M173.7548567124153,-92.83452896874108A197,197,0,0,1,174.4974911645487,-91.43098805808808L151.1192602451498,-79.18155835141592A170.6070045455344,170.6070045455344,0,0,0,150.47611994387674,-80.39706043529216Z" fill-rule="evenodd" style="fill: #DB3F29; stroke: #fff; opacity: 1;" id="p-type-functions"></path><path d="M174.4974911645487,-91.43098805808808A197,197,0,0,1,175.22878845943328,-90.02150684719284L151.75258228023867,-77.96091181662378A170.6070045455344,170.6070045455344,0,0,0,151.1192602451498,-79.18155835141592Z" fill-rule="evenodd" style="fill: #DB3F29; stroke: #fff; opacity: 1;" id="p-type-functions"></path><path d="M175.22878845943328,-90.02150684719284A197,197,0,0,1,175.94870108445218,-88.60617691049589L152.3760449020102,-76.7352001367076A170.6070045455344,170.6070045455344,0,0,0,151.75258228023867,-77.96091181662378Z" fill-rule="evenodd" style="fill: #DB3F29; stroke: #fff; opacity: 1;" id="p-type-functions"></path><path d="M175.94870108445218,-88.60617691049589A197,197,0,0,1,176.65718226665427,-87.18509020243135L152.98960760390042,-75.50450294654331A170.6070045455344,170.6070045455344,0,0,0,152.3760449020102,-76.7352001367076Z" fill-rule="evenodd" style="fill: #DB3F29; stroke: #fff; opacity: 1;" id="p-type-functions"></path><path d="M176.65718226665427,-87.18509020243135A197,197,0,0,1,177.35418597579283,-85.75833905145257L153.5932305225464,-74.268900204917A170.6070045455344,170.6070045455344,0,0,0,152.98960760390042,-75.50450294654331Z" fill-rule="evenodd" style="fill: #DB3F29; stroke: #fff; opacity: 1;" id="p-type-functions"></path><path d="M177.35418597579283,-85.75833905145257A197,197,0,0,1,178.03966692731618,-84.32601615403354L154.18687444037593,-73.02847218932999A170.6070045455344,170.6070045455344,0,0,0,153.5932305225464,-74.268900204917Z" fill-rule="evenodd" style="fill: #DB3F29; stroke: #fff; opacity: 1;" id="p-type-functions"></path><path d="M192.1965869689779,43.237390733902075A197,197,0,0,1,191.84183487851686,44.78515814914434L166.13990251341517,38.785084669662666A170.6070045455344,170.6070045455344,0,0,0,166.44712683580005,37.444678768913086Z" fill-rule="evenodd" style="fill: #1DC690; stroke: #fff; opacity: 1;" id="p-type-logs"></path><path d="M191.84183487851686,44.78515814914434A197,197,0,0,1,191.47461876330448,46.33001585848216L165.82188402896222,40.12297069118146A170.6070045455344,170.6070045455344,0,0,0,166.13990251341517,38.785084669662666Z" fill-rule="evenodd" style="fill: #1DC690; stroke: #fff; opacity: 1;" id="p-type-logs"></path><path d="M191.47461876330448,46.33001585848216A197,197,0,0,1,191.09496248148798,47.87186349202105L165.4930920442028,41.45824991059106A170.6070045455344,170.6070045455344,0,0,0,165.82188402896222,40.12297069118146Z" fill-rule="evenodd" style="fill: #1DC690; stroke: #fff; opacity: 1;" id="p-type-logs"></path><path d="M191.09496248148798,47.87186349202105A197,197,0,0,1,190.70289069945625,49.41060087543208L165.15354792085625,42.79083557437781A170.6070045455344,170.6070045455344,0,0,0,165.4930920442028,41.45824991059106Z" fill-rule="evenodd" style="fill: #1DC690; stroke: #fff; opacity: 1;" id="p-type-logs"></path><path d="M190.70289069945625,49.41060087543208A197,197,0,0,1,190.29842889023703,50.94612803646028L164.8032737192118,44.120641104029225A170.6070045455344,170.6070045455344,0,0,0,165.15354792085625,42.79083557437781Z" fill-rule="evenodd" style="fill: #1DC690; stroke: #fff; opacity: 1;" id="p-type-logs"></path><path d="M190.29842889023703,50.94612803646028A197,197,0,0,1,189.88160333184214,52.47834521141982L164.4422921966952,45.447580101659014A170.6070045455344,170.6070045455344,0,0,0,164.8032737192118,44.120641104029225Z" fill-rule="evenodd" style="fill: #1DC690; stroke: #fff; opacity: 1;" id="p-type-logs"></path><path d="M189.88160333184214,52.47834521141982A197,197,0,0,1,189.45244110556015,54.007152851675734L164.0706268063903,46.77156635562037A170.6070045455344,170.6070045455344,0,0,0,164.4422921966952,45.447580101659014Z" fill-rule="evenodd" style="fill: #1DC690; stroke: #fff; opacity: 1;" id="p-type-logs"></path><path d="M189.45244110556015,54.007152851675734A197,197,0,0,1,189.0109700941967,55.53245163011159L163.68830169551515,48.092513846107195A170.6070045455344,170.6070045455344,0,0,0,164.0706268063903,46.77156635562037Z" fill-rule="evenodd" style="fill: #1DC690; stroke: #fff; opacity: 1;" id="p-type-logs"></path><path d="M189.0109700941967,55.53245163011159A197,197,0,0,1,188.5572189802632,57.054142447582834L163.29534170385324,49.4103367507428A170.6070045455344,170.6070045455344,0,0,0,163.68830169551515,48.092513846107195Z" fill-rule="evenodd" style="fill: #1DC690; stroke: #fff; opacity: 1;" id="p-type-logs"></path><path d="M188.5572189802632,57.054142447582834A197,197,0,0,1,188.09121724411318,58.57212643935526L162.89177236213968,50.72494945015583A170.6070045455344,170.6070045455344,0,0,0,163.29534170385324,49.4103367507428Z" fill-rule="evenodd" style="fill: #1DC690; stroke: #fff; opacity: 1;" id="p-type-logs"></path><path d="M188.09121724411318,58.57212643935526A197,197,0,0,1,187.612995162027,60.08630498152832L162.47761989040237,52.03626653354299A170.6070045455344,170.6070045455344,0,0,0,162.89177236213968,50.72494945015583Z" fill-rule="evenodd" style="fill: #1DC690; stroke: #fff; opacity: 1;" id="p-type-logs"></path><path d="M187.612995162027,60.08630498152832A197,197,0,0,1,187.12258380424473,61.59657969744272L162.0529111962585,53.344202804218185A170.6070045455344,170.6070045455344,0,0,0,162.47761989040237,52.03626653354299Z" fill-rule="evenodd" style="fill: #1DC690; stroke: #fff; opacity: 1;" id="p-type-logs"></path><path d="M187.12258380424473,61.59657969744272A197,197,0,0,1,186.62001503294755,63.102852464072L161.61767387316638,54.64867328514781A170.6070045455344,170.6070045455344,0,0,0,162.0529111962585,53.344202804218185Z" fill-rule="evenodd" style="fill: #1DC690; stroke: #fff; opacity: 1;" id="p-type-logs"></path><path d="M186.62001503294755,63.102852464072A197,197,0,0,1,186.10532150018764,64.6050254183976L161.17193619863275,55.949593224471705A170.6070045455344,170.6070045455344,0,0,0,161.61767387316638,54.64867328514781Z" fill-rule="evenodd" style="fill: #1DC690; stroke: #fff; opacity: 1;" id="p-type-logs"></path><path d="M186.10532150018764,64.6050254183976A197,197,0,0,1,185.5785366457668,66.10300096376709L160.71572713237543,57.24687810100953A170.6070045455344,170.6070045455344,0,0,0,161.17193619863275,55.949593224471705Z" fill-rule="evenodd" style="fill: #1DC690; stroke: #fff; opacity: 1;" id="p-type-logs"></path><path d="M185.5785366457668,66.10300096376709A197,197,0,0,1,185.0396946950638,67.59668177623499L160.24907631444188,58.54044362975211A170.6070045455344,170.6070045455344,0,0,0,160.71572713237543,57.24687810100953Z" fill-rule="evenodd" style="fill: #1DC690; stroke: #fff; opacity: 1;" id="p-type-logs"></path><path d="M185.0396946950638,67.59668177623499A197,197,0,0,1,184.4888306568108,69.08597081088601L159.77201406328348,59.8302057673375A170.6070045455344,170.6070045455344,0,0,0,160.24907631444188,58.54044362975211Z" fill-rule="evenodd" style="fill: #1DC690; stroke: #fff; opacity: 1;" id="p-type-logs"></path><path d="M184.4888306568108,69.08597081088601A197,197,0,0,1,183.92598032081872,70.57077130814005L159.28457137378575,61.11608071751126A170.6070045455344,170.6070045455344,0,0,0,159.77201406328348,59.8302057673375Z" fill-rule="evenodd" style="fill: #1DC690; stroke: #fff; opacity: 1;" id="p-type-logs"></path><path d="M183.92598032081872,70.57077130814005A197,197,0,0,1,183.35118025565217,72.05098680003867L158.78677991525456,62.39798493657075A170.6070045455344,170.6070045455344,0,0,0,159.28457137378575,61.11608071751126Z" fill-rule="evenodd" style="fill: #1DC690; stroke: #fff; opacity: 1;" id="p-type-logs"></path><path d="M183.35118025565217,72.05098680003867A197,197,0,0,1,182.76446780625332,73.52652111651274L158.27867202935855,63.675835138793A170.6070045455344,170.6070045455344,0,0,0,158.78677991525456,62.39798493657075Z" fill-rule="evenodd" style="fill: #1DC690; stroke: #fff; opacity: 1;" id="p-type-logs"></path><path d="M182.76446780625332,73.52652111651274A197,197,0,0,1,182.16588109151579,74.99727839163053L157.760280728028,64.94954830184578A170.6070045455344,170.6070045455344,0,0,0,158.27867202935855,63.675835138793Z" fill-rule="evenodd" style="fill: #1DC690; stroke: #fff; opacity: 1;" id="p-type-logs"></path><path d="M182.16588109151579,74.99727839163053A197,197,0,0,1,181.55545900180795,76.46316306982622L157.2316396913098,66.21904167218163A170.6070045455344,170.6070045455344,0,0,0,157.760280728028,64.94954830184578Z" fill-rule="evenodd" style="fill: #1DC690; stroke: #fff; opacity: 1;" id="p-type-logs"></path><path d="M181.55545900180795,76.46316306982622A197,197,0,0,1,180.9332411964462,77.92407991210817L156.69278326517954,67.48423277041434A170.6070045455344,170.6070045455344,0,0,0,157.2316396913098,66.21904167218163Z" fill-rule="evenodd" style="fill: #1DC690; stroke: #fff; opacity: 1;" id="p-type-logs"></path><path d="M180.9332411964462,77.92407991210817A197,197,0,0,1,180.29926810111843,79.37993400224656L156.14374645930985,68.74503939667765A170.6070045455344,170.6070045455344,0,0,0,156.69278326517954,67.48423277041434Z" fill-rule="evenodd" style="fill: #1DC690; stroke: #fff; opacity: 1;" id="p-type-logs"></path><path d="M180.29926810111843,79.37993400224656A197,197,0,0,1,179.6535809052573,80.83063075294024L155.58456494479577,70.00137963596593A170.6070045455344,170.6070045455344,0,0,0,156.14374645930985,68.74503939667765Z" fill-rule="evenodd" style="fill: #1DC690; stroke: #fff; opacity: 1;" id="p-type-logs"></path><path d="M179.6535809052573,80.83063075294024A197,197,0,0,1,178.9962215593644,82.27607591196198L155.0152750518374,71.253171863456A170.6070045455344,170.6070045455344,0,0,0,155.58456494479577,70.00137963596593Z" fill-rule="evenodd" style="fill: #1DC690; stroke: #fff; opacity: 1;" id="p-type-logs"></path><path d="M178.9962215593644,82.27607591196198A197,197,0,0,1,178.3272327722845,83.71617556828224L154.43591376737928,72.50033474981059A170.6070045455344,170.6070045455344,0,0,0,155.0152750518374,71.253171863456Z" fill-rule="evenodd" style="fill: #1DC690; stroke: #fff; opacity: 1;" id="p-type-logs"></path><path d="M178.3272327722845,83.71617556828224A197,197,0,0,1,177.64665800843096,85.15083615817032L153.8465187327075,73.74278726646203A170.6070045455344,170.6070045455344,0,0,0,154.43591376737928,72.50033474981059Z" fill-rule="evenodd" style="fill: #1DC690; stroke: #fff; opacity: 1;" id="p-type-logs"></path><path d="M177.64665800843096,85.15083615817032A197,197,0,0,1,176.95454148496168,86.57996447127348L153.24712824100413,74.98044869087697A170.6070045455344,170.6070045455344,0,0,0,153.8465187327075,73.74278726646203Z" fill-rule="evenodd" style="fill: #1DC690; stroke: #fff; opacity: 1;" id="p-type-logs"></path><path d="M176.95454148496168,86.57996447127348A197,197,0,0,1,176.25092816890626,88.00346765667274L152.63778123485915,76.21323861180079A170.6070045455344,170.6070045455344,0,0,0,153.24712824100413,74.98044869087697Z" fill-rule="evenodd" style="fill: #1DC690; stroke: #fff; opacity: 1;" id="p-type-logs"></path><path d="M176.25092816890626,88.00346765667274A197,197,0,0,1,175.53586377424466,89.42125322891545L152.01851730374045,77.44107693448204A170.6070045455344,170.6070045455344,0,0,0,152.63778123485915,76.21323861180079Z" fill-rule="evenodd" style="fill: #1DC690; stroke: #fff; opacity: 1;" id="p-type-logs"></path><path d="M175.53586377424466,89.42125322891545A197,197,0,0,1,174.80939475893697,90.83322907402408L151.38937668142174,78.66388388587612A170.6070045455344,170.6070045455344,0,0,0,152.01851730374045,77.44107693448204Z" fill-rule="evenodd" style="fill: #1DC690; stroke: #fff; opacity: 1;" id="p-type-logs"></path><path d="M174.80939475893697,90.83322907402408A197,197,0,0,1,174.07156832190518,92.23930345548094L150.75040024336843,79.88158001982823A170.6070045455344,170.6070045455344,0,0,0,151.38937668142174,78.66388388587612Z" fill-rule="evenodd" style="fill: #1DC690; stroke: #fff; opacity: 1;" id="p-type-logs"></path><path d="M174.07156832190518,92.23930345548094A197,197,0,0,1,173.32243239996646,93.63938502018827L150.101629504082,81.09408622223506A170.6070045455344,170.6070045455344,0,0,0,150.75040024336843,79.88158001982823Z" fill-rule="evenodd" style="fill: #1DC690; stroke: #fff; opacity: 1;" id="p-type-logs"></path><path d="M173.32243239996646,93.63938502018827A197,197,0,0,1,172.56203566471882,95.03338280440354L149.44310661440284,82.3013237161847A170.6070045455344,170.6070045455344,0,0,0,150.101629504082,81.09408622223506Z" fill-rule="evenodd" style="fill: #1DC690; stroke: #fff; opacity: 1;" id="p-type-logs"></path><path d="M172.56203566471882,95.03338280440354A197,197,0,0,1,171.79042751937897,96.42120623964936L148.7748743587715,83.50321406707498A170.6070045455344,170.6070045455344,0,0,0,149.44310661440284,82.3013237161847Z" fill-rule="evenodd" style="fill: #1DC690; stroke: #fff; opacity: 1;" id="p-type-logs"></path><path d="M171.79042751937897,96.42120623964936A197,197,0,0,1,171.00765809557237,97.80276515859774L148.0969761524493,84.69967918770922A170.6070045455344,170.6070045455344,0,0,0,148.7748743587715,83.50321406707498Z" fill-rule="evenodd" style="fill: #1DC690; stroke: #fff; opacity: 1;" id="p-type-logs"></path><path d="M171.00765809557237,97.80276515859774A197,197,0,0,1,170.21377825007633,99.17796980092828L147.40945603869724,85.89064134336977A170.6070045455344,170.6070045455344,0,0,0,148.0969761524493,84.69967918770922Z" fill-rule="evenodd" style="fill: #1DC690; stroke: #fff; opacity: 1;" id="p-type-logs"></path><path d="M170.21377825007633,99.17796980092828A197,197,0,0,1,169.40883956151575,100.54673081916L146.71235868591486,87.0760231568683A170.6070045455344,170.6070045455344,0,0,0,147.40945603869724,85.89064134336977Z" fill-rule="evenodd" style="fill: #1DC690; stroke: #fff; opacity: 1;" id="p-type-logs"></path><path d="M169.40883956151575,100.54673081916A197,197,0,0,1,168.59289432701206,101.90895928445613L146.00572938473783,88.25574761357304A170.6070045455344,170.6070045455344,0,0,0,146.71235868591486,87.0760231568683Z" fill-rule="evenodd" style="fill: #1DC690; stroke: #fff; opacity: 1;" id="p-type-logs"></path><path d="M168.59289432701206,101.90895928445613A197,197,0,0,1,167.76599555878556,103.26456669240203L145.2896140450956,89.42973806641255A170.6070045455344,170.6070045455344,0,0,0,146.00572938473783,88.25574761357304Z" fill-rule="evenodd" style="fill: #1DC690; stroke: #fff; opacity: 1;" id="p-type-logs"></path><path d="M167.76599555878556,103.26456669240203A197,197,0,0,1,166.92819698071094,104.61346496875517L144.5640591932285,90.59791824085542A170.6070045455344,170.6070045455344,0,0,0,145.2896140450956,89.42973806641255Z" fill-rule="evenodd" style="fill: #1DC690; stroke: #fff; opacity: 1;" id="p-type-logs"></path><path d="M166.92819698071094,104.61346496875517A197,197,0,0,1,166.07955302482713,105.95556647516749L143.829111968665,91.76021223986585A170.6070045455344,170.6070045455344,0,0,0,144.5640591932285,90.59791824085542Z" fill-rule="evenodd" style="fill: #1DC690; stroke: #fff; opacity: 1;" id="p-type-logs"></path><path d="M166.07955302482713,105.95556647516749A197,197,0,0,1,165.2201188278006,107.29078401487916L143.08482012115894,92.91654454883472A170.6070045455344,170.6070045455344,0,0,0,143.829111968665,91.76021223986585Z" fill-rule="evenodd" style="fill: #1DC690; stroke: #fff; opacity: 1;" id="p-type-logs"></path><path d="M165.2201188278006,107.29078401487916A197,197,0,0,1,164.34995022734327,108.61903083838389L142.33123200758735,94.0668400404858A170.6070045455344,170.6070045455344,0,0,0,143.08482012115894,92.91654454883472Z" fill-rule="evenodd" style="fill: #1DC690; stroke: #fff; opacity: 1;" id="p-type-logs"></path><path d="M164.34995022734327,108.61903083838389A197,197,0,0,1,163.46910375858457,109.94022064906504L141.5683965888085,95.21102397975683A170.6070045455344,170.6070045455344,0,0,0,142.33123200758735,94.0668400404858Z" fill-rule="evenodd" style="fill: #1DC690; stroke: #fff; opacity: 1;" id="p-type-logs"></path><path d="M163.46910375858457,109.94022064906504A197,197,0,0,1,162.57763665039852,111.2542676088023L140.79636342648112,96.349022028655A170.6070045455344,170.6070045455344,0,0,0,141.5683965888085,95.21102397975683Z" fill-rule="evenodd" style="fill: #1DC690; stroke: #fff; opacity: 1;" id="p-type-logs"></path><path d="M162.57763665039852,111.2542676088023A197,197,0,0,1,161.67560682168536,112.56108634354864L140.0151826798442,97.48076025108676A170.6070045455344,170.6070045455344,0,0,0,140.79636342648112,96.349022028655Z" fill-rule="evenodd" style="fill: #1DC690; stroke: #fff; opacity: 1;" id="p-type-logs"></path><path d="M161.67560682168536,112.56108634354864A197,197,0,0,1,160.76307287760864,113.8605919488771L139.22490510245814,98.60616511766149A170.6070045455344,170.6070045455344,0,0,0,140.0151826798442,97.48076025108676Z" fill-rule="evenodd" style="fill: #1DC690; stroke: #fff; opacity: 1;" id="p-type-logs"></path><path d="M160.76307287760864,113.8605919488771A197,197,0,0,1,159.8400941057876,115.15269999549709L138.4255820389074,99.72516351046869A170.6070045455344,170.6070045455344,0,0,0,139.22490510245814,98.60616511766149Z" fill-rule="evenodd" style="fill: #1DC690; stroke: #fff; opacity: 1;" id="p-type-logs"></path><path d="M159.8400941057876,115.15269999549709A197,197,0,0,1,158.9067304724454,116.43732653473971L137.61726542146445,100.8376827278285A170.6070045455344,170.6070045455344,0,0,0,138.4255820389074,99.72516351046869Z" fill-rule="evenodd" style="fill: #1DC690; stroke: #fff; opacity: 1;" id="p-type-logs"></path><path d="M158.9067304724454,116.43732653473971A197,197,0,0,1,157.96304261851265,117.71438810401199L136.8000077667159,101.9436504890151A170.6070045455344,170.6070045455344,0,0,0,137.61726542146445,100.8376827278285Z" fill-rule="evenodd" style="fill: #1DC690; stroke: #fff; opacity: 1;" id="p-type-logs"></path><path d="M157.96304261851265,117.71438810401199A197,197,0,0,1,157.0090918556881,118.98380173221942L135.9738621721503,103.04299493895292A170.6070045455344,170.6070045455344,0,0,0,136.8000077667159,101.9436504890151Z" fill-rule="evenodd" style="fill: #1DC690; stroke: #fff; opacity: 1;" id="p-type-logs"></path><path d="M157.0090918556881,118.98380173221942A197,197,0,0,1,156.0449401624548,120.24548494515669L135.1388823127085,104.13564465288495A170.6070045455344,170.6070045455344,0,0,0,135.9738621721503,103.04299493895292Z" fill-rule="evenodd" style="fill: #1DC690; stroke: #fff; opacity: 1;" id="p-type-logs"></path><path d="M156.0449401624548,120.24548494515669A197,197,0,0,1,155.07065018005355,121.49935577086598L134.2951224372963,105.22152864101338A170.6070045455344,170.6070045455344,0,0,0,135.1388823127085,104.13564465288495Z" fill-rule="evenodd" style="fill: #1DC690; stroke: #fff; opacity: 1;" id="p-type-logs"></path><path d="M155.07065018005355,121.49935577086598A197,197,0,0,1,154.08628520841296,122.74533274496274L133.44263736526,106.30057635311162A170.6070045455344,170.6070045455344,0,0,0,134.2951224372963,105.22152864101338Z" fill-rule="evenodd" style="fill: #1DC690; stroke: #fff; opacity: 1;" id="p-type-logs"></path><path d="M154.08628520841296,122.74533274496274A197,197,0,0,1,153.0919092020369,123.9833349159285L132.5814824828246,107.37271768310826A170.6070045455344,170.6070045455344,0,0,0,133.44263736526,106.30057635311162Z" fill-rule="evenodd" style="fill: #1DC690; stroke: #fff; opacity: 1;" id="p-type-logs"></path><path d="M153.0919092020369,123.9833349159285A197,197,0,0,1,152.08758676584932,125.21328185037022L131.7117137394955,108.43788297364159A170.6070045455344,170.6070045455344,0,0,0,132.5814824828246,107.37271768310826Z" fill-rule="evenodd" style="fill: #1DC690; stroke: #fff; opacity: 1;" id="p-type-logs"></path><path d="M152.08758676584932,125.21328185037022A197,197,0,0,1,151.07338315099693,126.43509363824617L130.8333876444233,109.49600302058545A170.6070045455344,170.6070045455344,0,0,0,131.7117137394955,108.43788297364159Z" fill-rule="evenodd" style="fill: #1DC690; stroke: #fff; opacity: 1;" id="p-type-logs"></path><path d="M151.07338315099693,126.43509363824617A197,197,0,0,1,150.04936425060964,127.64869089805765L129.94656126273253,110.54700907754538A170.6070045455344,170.6070045455344,0,0,0,130.8333876444233,109.49600302058545Z" fill-rule="evenodd" style="fill: #1DC690; stroke: #fff; opacity: 1;" id="p-type-logs"></path><path d="M150.04936425060964,127.64869089805765A197,197,0,0,1,149.01559659551967,128.85399478200648L129.05129221181394,111.59083286032511A170.6070045455344,170.6070045455344,0,0,0,129.94656126273253,110.54700907754538Z" fill-rule="evenodd" style="fill: #1DC690; stroke: #fff; opacity: 1;" id="p-type-logs"></path><path d="M149.01559659551967,128.85399478200648A197,197,0,0,1,147.97214734993884,130.05092698111764L128.1476386575812,112.62740655136295A170.6070045455344,170.6070045455344,0,0,0,129.05129221181394,111.59083286032511Z" fill-rule="evenodd" style="fill: #1DC690; stroke: #fff; opacity: 1;" id="p-type-logs"></path><path d="M147.97214734993884,130.05092698111764A197,197,0,0,1,146.91908430709498,131.23940973032725L127.23565931069191,113.65666280413804A170.6070045455344,170.6070045455344,0,0,0,128.1476386575812,112.62740655136295Z" fill-rule="evenodd" style="fill: #1DC690; stroke: #fff; opacity: 1;" id="p-type-logs"></path><path d="M146.91908430709498,131.23940973032725A197,197,0,0,1,145.8564758848275,132.41936581353477L126.31541342273295,114.67853474754574A170.6070045455344,170.6070045455344,0,0,0,127.23565931069191,113.65666280413804Z" fill-rule="evenodd" style="fill: #1DC690; stroke: #fff; opacity: 1;" id="p-type-logs"></path><path d="M145.8564758848275,132.41936581353477A197,197,0,0,1,144.78439112114188,133.5907185686199L125.38696078237099,115.69295599024237A170.6070045455344,170.6070045455344,0,0,0,126.31541342273295,114.67853474754574Z" fill-rule="evenodd" style="fill: #1DC690; stroke: #fff; opacity: 1;" id="p-type-logs"></path><path d="M144.78439112114188,133.5907185686199A197,197,0,0,1,143.70289966972476,134.7533918924233L124.45036171146806,116.69986062495859A170.6070045455344,170.6070045455344,0,0,0,125.38696078237099,115.69295599024237Z" fill-rule="evenodd" style="fill: #1DC690; stroke: #fff; opacity: 1;" id="p-type-logs"></path><path d="M143.70289966972476,134.7533918924233A197,197,0,0,1,142.61207179541816,135.90731024569098L123.50567706116234,117.69918323278151A170.6070045455344,170.6070045455344,0,0,0,124.45036171146806,116.69986062495859Z" fill-rule="evenodd" style="fill: #1DC690; stroke: #fff; opacity: 1;" id="p-type-logs"></path><path d="M142.61207179541816,135.90731024569098A197,197,0,0,1,141.51197836965434,137.0523986579822L122.55296820791466,118.69085888740489A170.6070045455344,170.6070045455344,0,0,0,123.50567706116234,117.69918323278151Z" fill-rule="evenodd" style="fill: #1DC690; stroke: #fff; opacity: 1;" id="p-type-logs"></path><path d="M141.51197836965434,137.0523986579822A197,197,0,0,1,140.40269086585158,138.18858273254023L121.59229704952082,119.67482315934745A170.6070045455344,170.6070045455344,0,0,0,122.55296820791466,118.69085888740489Z" fill-rule="evenodd" style="fill: #1DC690; stroke: #fff; opacity: 1;" id="p-type-logs"></path><path d="M140.40269086585158,138.18858273254023A197,197,0,0,1,139.28428135477014,139.3157886511261L120.62372600109016,120.65101212013899A170.6070045455344,170.6070045455344,0,0,0,121.59229704952082,119.67482315934745Z" fill-rule="evenodd" style="fill: #1DC690; stroke: #fff; opacity: 1;" id="p-type-logs"></path><path d="M43.193918032619116,192.2063616142592A197,197,0,0,1,41.643264095555224,192.54827590884278L36.06412460325523,166.75169839195306A170.6070045455344,170.6070045455344,0,0,0,37.40703030523092,166.45559192692667Z" fill-rule="evenodd" style="fill: #D7A449; stroke: #fff; opacity: 1;" id="p-type-tokenTransfers"></path><path d="M41.643264095555224,192.54827590884278A197,197,0,0,1,40.08990458243831,192.87768028097756L34.718875803685755,167.03697094633944A170.6070045455344,170.6070045455344,0,0,0,36.06412460325523,166.75169839195306Z" fill-rule="evenodd" style="fill: #D7A449; stroke: #fff; opacity: 1;" id="p-type-tokenTransfers"></path><path d="M40.08990458243831,192.87768028097756A197,197,0,0,1,38.533940415527745,193.19455332915717L33.371371307762914,167.31139105583762A170.6070045455344,170.6070045455344,0,0,0,34.718875803685755,167.03697094633944Z" fill-rule="evenodd" style="fill: #D7A449; stroke: #fff; opacity: 1;" id="p-type-tokenTransfers"></path><path d="M38.533940415527745,193.19455332915717A197,197,0,0,1,36.97547268630811,193.4988744660394L32.02169866328046,167.5749408912862A170.6070045455344,170.6070045455344,0,0,0,33.371371307762914,167.31139105583762Z" fill-rule="evenodd" style="fill: #D7A449; stroke: #fff; opacity: 1;" id="p-type-tokenTransfers"></path><path d="M36.97547268630811,193.4988744660394A197,197,0,0,1,35.41460264892118,193.79062391978366L30.669945558897417,167.82760332976892A170.6070045455344,170.6070045455344,0,0,0,32.02169866328046,167.5749408912862Z" fill-rule="evenodd" style="fill: #D7A449; stroke: #fff; opacity: 1;" id="p-type-tokenTransfers"></path><path d="M35.41460264892118,193.79062391978366A197,197,0,0,1,33.85143171358749,194.06978273533548L29.316199818440957,168.0693619557272A170.6070045455344,170.6070045455344,0,0,0,30.669945558897417,167.82760332976892Z" fill-rule="evenodd" style="fill: #D7A449; stroke: #fff; opacity: 1;" id="p-type-tokenTransfers"></path><path d="M33.85143171358749,194.06978273533548A197,197,0,0,1,32.28606144001761,194.33633277565832L27.960549395200445,168.30020106202653A170.6070045455344,170.6070045455344,0,0,0,29.316199818440957,168.0693619557272Z" fill-rule="evenodd" style="fill: #D7A449; stroke: #fff; opacity: 1;" id="p-type-tokenTransfers"></path><path d="M32.28606144001761,194.33633277565832A197,197,0,0,1,30.71859353081384,194.59025672291162L26.6030823662131,168.5201056509771A170.6070045455344,170.6070045455344,0,0,0,27.960549395200445,168.30020106202653Z" fill-rule="evenodd" style="fill: #D7A449; stroke: #fff; opacity: 1;" id="p-type-tokenTransfers"></path><path d="M30.71859353081384,194.59025672291162A197,197,0,0,1,29.149129824862516,194.8315380795761L25.243886926541585,168.72906143530813A170.6070045455344,170.6070045455344,0,0,0,26.6030823662131,168.5201056509771Z" fill-rule="evenodd" style="fill: #D7A449; stroke: #fff; opacity: 1;" id="p-type-tokenTransfers"></path><path d="M29.149129824862516,194.8315380795761A197,197,0,0,1,27.577772290717522,195.06016116952568L23.883051383543947,168.92705483909614A170.6070045455344,170.6070045455344,0,0,0,25.243886926541585,168.72906143530813Z" fill-rule="evenodd" style="fill: #D7A449; stroke: #fff; opacity: 1;" id="p-type-tokenTransfers"></path><path d="M27.577772290717522,195.06016116952568A197,197,0,0,1,26.004623019975366,195.2761111390458L22.520664151136277,169.11407299864706A170.6070045455344,170.6070045455344,0,0,0,23.883051383543947,168.92705483909614Z" fill-rule="evenodd" style="fill: #D7A449; stroke: #fff; opacity: 1;" id="p-type-tokenTransfers"></path><path d="M26.004623019975366,195.2761111390458A197,197,0,0,1,24.42978422064224,195.47937395779857L21.156813744048403,169.29010376333179A170.6070045455344,170.6070045455344,0,0,0,22.520664151136277,169.11407299864706Z" fill-rule="evenodd" style="fill: #D7A449; stroke: #fff; opacity: 1;" id="p-type-tokenTransfers"></path><path d="M24.42978422064224,195.47937395779857A197,197,0,0,1,22.853358210493553,195.6699364197343L19.791588772073094,169.45513569637583A170.6070045455344,170.6070045455344,0,0,0,21.156813744048403,169.29010376333179Z" fill-rule="evenodd" style="fill: #D7A449; stroke: #fff; opacity: 1;" id="p-type-tokenTransfers"></path><path d="M22.853358210493553,195.6699364197343A197,197,0,0,1,21.275447410426292,195.84778614394952L18.42507793430902,169.60915807560227A170.6070045455344,170.6070045455344,0,0,0,19.791588772073094,169.45513569637583Z" fill-rule="evenodd" style="fill: #D7A449; stroke: #fff; opacity: 1;" id="p-type-tokenTransfers"></path><path d="M21.275447410426292,195.84778614394952A197,197,0,0,1,19.696154337804728,196.0129115754913L17.05737001339796,169.75216089412834A170.6070045455344,170.6070045455344,0,0,0,18.42507793430902,169.60915807560227Z" fill-rule="evenodd" style="fill: #D7A449; stroke: #fff; opacity: 1;" id="p-type-tokenTransfers"></path><path d="M19.696154337804728,196.0129115754913A197,197,0,0,1,18.115581599799807,196.16530198610812L15.688553869756575,169.88413486101564A170.6070045455344,170.6070045455344,0,0,0,17.05737001339796,169.75216089412834Z" fill-rule="evenodd" style="fill: #D7A449; stroke: #fff; opacity: 1;" id="p-type-tokenTransfers"></path><path d="M18.115581599799807,196.16530198610812A197,197,0,0,1,16.53383188672275,196.30494747494672L14.318718435803097,170.00507140187375A170.6070045455344,170.6070045455344,0,0,0,15.688553869756575,169.88413486101564Z" fill-rule="evenodd" style="fill: #D7A449; stroke: #fff; opacity: 1;" id="p-type-tokenTransfers"></path><path d="M16.53383188672275,196.30494747494672A197,197,0,0,1,14.951007965353213,196.43183896919547L12.947952710179376,170.11496265941733A170.6070045455344,170.6070045455344,0,0,0,14.318718435803097,170.00507140187375Z" fill-rule="evenodd" style="fill: #D7A449; stroke: #fff; opacity: 1;" id="p-type-tokenTransfers"></path><path d="M14.951007965353213,196.43183896919547A197,197,0,0,1,13.367212672262507,196.54596822467386L11.576345751968603,170.21380149397663A170.6070045455344,170.6070045455344,0,0,0,12.947952710179376,170.11496265941733Z" fill-rule="evenodd" style="fill: #D7A449; stroke: #fff; opacity: 1;" id="p-type-tokenTransfers"></path><path d="M13.367212672262507,196.54596822467386A197,197,0,0,1,11.782548907132272,196.64732782636796L10.203986674909123,170.3015814839612A170.6070045455344,170.6070045455344,0,0,0,11.576345751968603,170.21380149397663Z" fill-rule="evenodd" style="fill: #D7A449; stroke: #fff; opacity: 1;" id="p-type-tokenTransfers"></path><path d="M11.782548907132272,196.64732782636796A197,197,0,0,1,10.19711962606905,196.7359111889124L8.830964641604673,170.37829692627733A170.6070045455344,170.6070045455344,0,0,0,10.203986674909123,170.3015814839612Z" fill-rule="evenodd" style="fill: #D7A449; stroke: #fff; opacity: 1;" id="p-type-tokenTransfers"></path><path d="M10.19711962606905,196.7359111889124A197,197,0,0,1,8.6110278349152,196.8117125570181L7.457368857731476,170.44394283669848A170.6070045455344,170.6070045455344,0,0,0,8.830964641604673,170.37829692627733Z" fill-rule="evenodd" style="fill: #D7A449; stroke: #fff; opacity: 1;" id="p-type-tokenTransfers"></path><path d="M8.6110278349152,196.8117125570181A197,197,0,0,1,7.024376582556563,196.8747270058461L6.083288566242502,170.498514950189A170.6070045455344,170.6070045455344,0,0,0,7.457368857731476,170.44394283669848Z" fill-rule="evenodd" style="fill: #D7A449; stroke: #fff; opacity: 1;" id="p-type-tokenTransfers"></path><path d="M7.024376582556563,196.8747270058461A197,197,0,0,1,5.437268954227361,196.92495044132775L4.708813041569343,170.54200972118144A170.6070045455344,170.6070045455344,0,0,0,6.083288566242502,170.498514950189Z" fill-rule="evenodd" style="fill: #D7A449; stroke: #fff; opacity: 1;" id="p-type-tokenTransfers"></path><path d="M5.437268954227361,196.92495044132775A197,197,0,0,1,3.8498080648127013,196.96237960043055L3.334031583822008,170.57442432380674A170.6070045455344,170.6070045455344,0,0,0,4.708813041569343,170.54200972118144Z" fill-rule="evenodd" style="fill: #D7A449; stroke: #fff; opacity: 1;" id="p-type-tokenTransfers"></path><path d="M3.8498080648127013,196.96237960043055A197,197,0,0,1,2.2620970521491777,196.9870120513702L1.9590335129870797,170.59575665207794A170.6070045455344,170.6070045455344,0,0,0,3.334031583822008,170.57442432380674Z" fill-rule="evenodd" style="fill: #D7A449; stroke: #fff; opacity: 1;" id="p-type-tokenTransfers"></path><path d="M2.2620970521491777,196.9870120513702A197,197,0,0,1,0.6742390703239699,196.99884619376846L0.5839081631245605,170.60600532002687A170.6070045455344,170.6070045455344,0,0,0,1.9590335129870797,170.59575665207794Z" fill-rule="evenodd" style="fill: #D7A449; stroke: #fff; opacity: 1;" id="p-type-tokenTransfers"></path><path d="M0.6742390703239699,196.99884619376846A197,197,0,0,1,-0.9136627170271084,196.99788125875747L-0.7912551234361889,170.60516966179435A170.6070045455344,170.6070045455344,0,0,0,0.5839081631245605,170.60600532002687Z" fill-rule="evenodd" style="fill: #D7A449; stroke: #fff; opacity: 1;" id="p-type-tokenTransfers"></path><path d="M-0.9136627170271084,196.99788125875747A197,197,0,0,1,-2.5015051434221856,196.98411730902933L-2.1663670019010484,170.59324973167335A170.6070045455344,170.6070045455344,0,0,0,-0.7912551234361889,170.60516966179435Z" fill-rule="evenodd" style="fill: #D7A449; stroke: #fff; opacity: 1;" id="p-type-tokenTransfers"></path><path d="M-2.5015051434221856,196.98411730902933A197,197,0,0,1,-4.089185046236089,196.9575552388322L-3.5413381308158978,170.57024630410552A170.6070045455344,170.6070045455344,0,0,0,-2.1663670019010484,170.59324973167335Z" fill-rule="evenodd" style="fill: #D7A449; stroke: #fff; opacity: 1;" id="p-type-tokenTransfers"></path><path d="M-4.089185046236089,196.9575552388322A197,197,0,0,1,-5.676599273402856,196.91819677391217L-4.9160791778711594,170.53616087363085A170.6070045455344,170.6070045455344,0,0,0,-3.5413381308158978,170.57024630410552Z" fill-rule="evenodd" style="fill: #D7A449; stroke: #fff; opacity: 1;" id="p-type-tokenTransfers"></path><path d="M-5.676599273402856,196.91819677391217A197,197,0,0,1,-7.263644690117555,196.86604447140124L-6.29050082570575,170.4909956547905A170.6070045455344,170.6070045455344,0,0,0,-4.9160791778711594,170.53616087363085Z" fill-rule="evenodd" style="fill: #D7A449; stroke: #fff; opacity: 1;" id="p-type-tokenTransfers"></path><path d="M-7.263644690117555,196.86604447140124A197,197,0,0,1,-8.850218185536983,196.80110171965092L-7.664513777710047,170.43475358198307A170.6070045455344,170.6070045455344,0,0,0,-6.29050082570575,170.4909956547905Z" fill-rule="evenodd" style="fill: #D7A449; stroke: #fff; opacity: 1;" id="p-type-tokenTransfers"></path><path d="M-8.850218185536983,196.80110171965092A197,197,0,0,1,-10.436216679478816,196.72337273801242L-9.038028763827535,170.36743830927384A170.6070045455344,170.6070045455344,0,0,0,-7.664513777710047,170.43475358198307Z" fill-rule="evenodd" style="fill: #D7A449; stroke: #fff; opacity: 1;" id="p-type-tokenTransfers"></path><path d="M-10.436216679478816,196.72337273801242A197,197,0,0,1,-12.02153712911876,196.63286257656227L-10.410956546354695,170.28905421015736A170.6070045455344,170.6070045455344,0,0,0,-9.038028763827535,170.36743830927384Z" fill-rule="evenodd" style="fill: #D7A449; stroke: #fff; opacity: 1;" id="p-type-tokenTransfers"></path><path d="M-12.02153712911876,196.63286257656227A197,197,0,0,1,-13.60607653568527,196.5295771157743L-11.783207925738811,170.1996063772734A170.6070045455344,170.6070045455344,0,0,0,-10.410956546354695,170.28905421015736Z" fill-rule="evenodd" style="fill: #D7A449; stroke: #fff; opacity: 1;" id="p-type-tokenTransfers"></path><path d="M-13.60607653568527,196.5295771157743A197,197,0,0,1,-15.189731951151414,196.4135230661376L-13.154693746373292,170.09910062207598A170.6070045455344,170.6070045455344,0,0,0,-11.783207925738811,170.1996063772734Z" fill-rule="evenodd" style="fill: #D7A449; stroke: #fff; opacity: 1;" id="p-type-tokenTransfers"></path><path d="M-15.189731951151414,196.4135230661376A197,197,0,0,1,-16.772400484923452,196.28470796772055L-14.525324902390146,169.9875434744558A170.6070045455344,170.6070045455344,0,0,0,-13.154693746373292,170.09910062207598Z" fill-rule="evenodd" style="fill: #D7A449; stroke: #fff; opacity: 1;" id="p-type-tokenTransfers"></path><path d="M-16.772400484923452,196.28470796772055A197,197,0,0,1,-18.35397931052565,196.14314018968085L-15.895012343449208,169.86494218231613A170.6070045455344,170.6070045455344,0,0,0,-14.525324902390146,169.9875434744558Z" fill-rule="evenodd" style="fill: #D7A449; stroke: #fff; opacity: 1;" id="p-type-tokenTransfers"></path><path d="M-18.35397931052565,196.14314018968085A197,197,0,0,1,-19.93436567228096,195.98882892972188L-17.263667080523774,169.73130471110164A170.6070045455344,170.6070045455344,0,0,0,-15.895012343449208,169.86494218231613Z" fill-rule="evenodd" style="fill: #D7A449; stroke: #fff; opacity: 1;" id="p-type-tokenTransfers"></path><path d="M-19.93436567228096,195.98882892972188A197,197,0,0,1,-21.5134568919871,195.82178421349502L-18.631200191682243,169.58663974328124A170.6070045455344,170.6070045455344,0,0,0,-17.263667080523774,169.73130471110164Z" fill-rule="evenodd" style="fill: #D7A449; stroke: #fff; opacity: 1;" id="p-type-tokenTransfers"></path><path d="M-21.5134568919871,195.82178421349502A197,197,0,0,1,-23.09115037558756,195.64201689394844L-19.997522827865406,169.43095667778366A170.6070045455344,170.6070045455344,0,0,0,-18.631200191682243,169.58663974328124Z" fill-rule="evenodd" style="fill: #D7A449; stroke: #fff; opacity: 1;" id="p-type-tokenTransfers"></path><path d="M-23.09115037558756,195.64201689394844A197,197,0,0,1,-24.667343619837197,195.44953865062172L-21.362546218659006,169.26426562938693A170.6070045455344,170.6070045455344,0,0,0,-19.997522827865406,169.43095667778366Z" fill-rule="evenodd" style="fill: #D7A449; stroke: #fff; opacity: 1;" id="p-type-tokenTransfers"></path><path d="M-24.667343619837197,195.44953865062172A197,197,0,0,1,-26.241934218961887,195.24436198888736L-22.726181678061145,169.08657742806128A170.6070045455344,170.6070045455344,0,0,0,-21.362546218659006,169.26426562938693Z" fill-rule="evenodd" style="fill: #D7A449; stroke: #fff; opacity: 1;" id="p-type-tokenTransfers"></path><path d="M-26.241934218961887,195.24436198888736A197,197,0,0,1,-27.814819871311876,195.02650023913796L-24.088340610244295,168.89790361826536A170.6070045455344,170.6070045455344,0,0,0,-22.726181678061145,169.08657742806128Z" fill-rule="evenodd" style="fill: #D7A449; stroke: #fff; opacity: 1;" id="p-type-tokenTransfers"></path><path d="M-27.814819871311876,195.02650023913796A197,197,0,0,1,-29.385898386008343,194.79596755592038L-25.448934515311358,168.69825645819637A170.6070045455344,170.6070045455344,0,0,0,-24.088340610244295,168.89790361826536Z" fill-rule="evenodd" style="fill: #D7A449; stroke: #fff; opacity: 1;" id="p-type-tokenTransfers"></path><path d="M-29.385898386008343,194.79596755592038A197,197,0,0,1,-30.955067689582755,194.5527789170161L-26.807874995045534,168.4876489189935A170.6070045455344,170.6070045455344,0,0,0,-25.448934515311358,168.69825645819637Z" fill-rule="evenodd" style="fill: #D7A449; stroke: #fff; opacity: 1;" id="p-type-tokenTransfers"></path><path d="M-30.955067689582755,194.5527789170161A197,197,0,0,1,-32.52222583260865,194.29695012246796L-28.165073758653605,168.26609468389523A170.6070045455344,170.6070045455344,0,0,0,-26.807874995045534,168.4876489189935Z" fill-rule="evenodd" style="fill: #D7A449; stroke: #fff; opacity: 1;" id="p-type-tokenTransfers"></path><path d="M-32.52222583260865,194.29695012246796A197,197,0,0,1,-34.08727099632529,194.02849779355373L-29.520442628502188,168.0336081473504A170.6070045455344,170.6070045455344,0,0,0,-28.165073758653605,168.26609468389523Z" fill-rule="evenodd" style="fill: #D7A449; stroke: #fff; opacity: 1;" id="p-type-tokenTransfers"></path><path d="M-34.08727099632529,194.02849779355373A197,197,0,0,1,-35.65010149925288,193.74743937170618L-30.87389354584669,167.7902044140829A170.6070045455344,170.6070045455344,0,0,0,-29.520442628502188,168.0336081473504Z" fill-rule="evenodd" style="fill: #D7A449; stroke: #fff; opacity: 1;" id="p-type-tokenTransfers"></path><path d="M-35.65010149925288,193.74743937170618A197,197,0,0,1,-37.21061580379883,193.45379311738006L-32.225338576552495,167.5358992981103A170.6070045455344,170.6070045455344,0,0,0,-30.87389354584669,167.7902044140829Z" fill-rule="evenodd" style="fill: #D7A449; stroke: #fff; opacity: 1;" id="p-type-tokenTransfers"></path><path d="M-37.21061580379883,193.45379311738006A197,197,0,0,1,-38.768712522854706,193.14757810886536L-33.57468991680807,167.2707093217165A170.6070045455344,170.6070045455344,0,0,0,-32.225338576552495,167.5358992981103Z" fill-rule="evenodd" style="fill: #D7A449; stroke: #fff; opacity: 1;" id="p-type-tokenTransfers"></path><path d="M-38.768712522854706,193.14757810886536A197,197,0,0,1,-40.32429042638336,192.82881424104824L-34.921859898829624,166.9946517143783A170.6070045455344,170.6070045455344,0,0,0,-33.57468991680807,167.2707093217165Z" fill-rule="evenodd" style="fill: #D7A449; stroke: #fff; opacity: 1;" id="p-type-tokenTransfers"></path><path d="M-40.32429042638336,192.82881424104824A197,197,0,0,1,-41.877248447995875,192.49752222411806L-36.26676099655688,166.7077444116458A170.6070045455344,170.6070045455344,0,0,0,-34.921859898829624,166.9946517143783Z" fill-rule="evenodd" style="fill: #D7A449; stroke: #fff; opacity: 1;" id="p-type-tokenTransfers"></path><path d="M-41.877248447995875,192.49752222411806A197,197,0,0,1,-43.42748569151791,192.15372358222206L-37.609305831339725,166.41000605397727A170.6070045455344,170.6070045455344,0,0,0,-36.26676099655688,166.7077444116458Z" fill-rule="evenodd" style="fill: #D7A449; stroke: #fff; opacity: 1;" id="p-type-tokenTransfers"></path><path d="M-43.42748569151791,192.15372358222206A197,197,0,0,1,-44.97490143754493,191.79744065206688L-38.94940717761518,166.1014559855281A170.6070045455344,170.6070045455344,0,0,0,-37.609305831339725,166.41000605397727Z" fill-rule="evenodd" style="fill: #D7A449; stroke: #fff; opacity: 1;" id="p-type-tokenTransfers"></path><path d="M-44.97490143754493,191.79744065206688A197,197,0,0,1,-46.51939514998598,191.42869658146728L-40.28697796857447,165.78211425289396A170.6070045455344,170.6070045455344,0,0,0,-38.94940717761518,166.1014559855281Z" fill-rule="evenodd" style="fill: #D7A449; stroke: #fff; opacity: 1;" id="p-type-tokenTransfers"></path><path d="M-46.51939514998598,191.42869658146728A197,197,0,0,1,-48.06086648259557,191.04751532784226L-41.62193130181983,165.45200160380833A170.6070045455344,170.6070045455344,0,0,0,-40.28697796857447,165.78211425289396Z" fill-rule="evenodd" style="fill: #D7A449; stroke: #fff; opacity: 1;" id="p-type-tokenTransfers"></path><path d="M-48.06086648259557,191.04751532784226A197,197,0,0,1,-49.599215285493166,190.65392165665855L-42.95418044501052,165.11113948579447A170.6070045455344,170.6070045455344,0,0,0,-41.62193130181983,165.45200160380833Z" fill-rule="evenodd" style="fill: #D7A449; stroke: #fff; opacity: 1;" id="p-type-tokenTransfers"></path><path d="M-133.16044576991288,145.18021794431255A197,197,0,0,1,-190.9630001541379,48.395584221401236L-165.37880931637508,41.91180536672281A170.6070045455344,170.6070045455344,0,0,0,-115.32032881600463,125.72975686673608Z" fill-rule="evenodd" style="fill: #414552; stroke: #fff; opacity: 1;" id="p-type-ether"></path><path d="M-190.9630001541379,48.395584221401236A197,197,0,0,1,-191.2079364247227,47.41861499663606L-165.59093034900977,41.065725199360585A170.6070045455344,170.6070045455344,0,0,0,-165.37880931637508,41.91180536672281Z" fill-rule="evenodd" style="fill: #414552; stroke: #fff; opacity: 1;" id="p-type-ether"></path></g></svg>