<svg xmlns="http://www.w3.org/2000/svg" width="400" height="400" id="block-7824853"><g id="burst-container" transform="translate(200,200)"><circle r="197" style="fill: #f9f9f9; stroke: #f9f9f9; stroke-width: 3; opacity: 1;" id="circle-base"></circle><path display="none" d="M6.031385485800715e-15,-98.5A98.5,98.5,0,1,1,-6.031385485800715e-15,98.5A98.5,98.5,0,1,1,6.031385485800715e-15,-98.5Z" fill-rule="evenodd" id="p-type-root" style="stroke: #fff; opacity: 1;"></path><path d="M8.529667153919608e-15,-139.30003589374985A139.30003589374985,139.30003589374985,0,1,1,-118.83697287722799,-72.6792534178563L-84.03042937716975,-51.391992943341755A98.5,98.5,0,1,0,6.031385485800715e-15,-98.5Z" fill-rule="evenodd" style="fill: #0B1F65; stroke: #fff; opacity: 1;" id="p-type-data"></path><path d="M-118.83697287722799,-72.6792534178563A139.30003589374985,139.30003589374985,0,0,1,-1.4905546672255698,-139.29206096107563L-1.0539813129244584,-98.49436087102654A98.5,98.5,0,0,0,-84.03042937716975,-51.391992943341755Z" fill-rule="evenodd" style="fill: #D7A449; stroke: #fff; opacity: 1;" id="p-type-value"></path><path d="M1.0446666101440332e-14,-170.6070045455344A170.6070045455344,170.6070045455344,0,0,1,170.60154443502353,1.364930908395543L139.29557773218622,1.114461419907536A139.30003589374985,139.30003589374985,0,0,0,8.529667153919608e-15,-139.30003589374985Z" fill-rule="evenodd" style="fill: #DB3F29; stroke: #fff; opacity: 1;" id="p-type-functions"></path><path d="M170.60154443502353,1.364930908395543A170.6070045455344,170.6070045455344,0,0,1,88.62749824123638,145.78037095404733L72.36404929014756,119.02917445035521A139.30003589374985,139.30003589374985,0,0,0,139.29557773218622,1.114461419907536Z" fill-rule="evenodd" style="fill: #1DC690; stroke: #fff; opacity: 1;" id="p-type-logs"></path><path d="M88.62749824123638,145.78037095404733A170.6070045455344,170.6070045455344,0,0,1,-45.97940600764053,164.29438281080868L-37.54202779832624,134.14580183065627A139.30003589374985,139.30003589374985,0,0,0,72.36404929014756,119.02917445035521Z" fill-rule="evenodd" style="fill: #D7A449; stroke: #fff; opacity: 1;" id="p-type-tokenTransfers"></path><path d="M-45.97940600764053,164.29438281080868A170.6070045455344,170.6070045455344,0,0,1,-147.50137912195385,85.73268429905619L-120.43437173519958,70.00044360393552A139.30003589374985,139.30003589374985,0,0,0,-37.54202779832624,134.14580183065627Z" fill-rule="evenodd" style="fill: #414552; stroke: #fff; opacity: 1;" id="p-type-ether"></path><path d="M-145.54497306308636,-89.01354288008912A170.6070045455344,170.6070045455344,0,0,1,-71.64345719764015,-154.83528357829138L-58.496637847715064,-126.42247964864978A139.30003589374985,139.30003589374985,0,0,0,-118.83697287722799,-72.6792534178563Z" fill-rule="evenodd" style="fill: #414552; stroke: #fff; opacity: 1;" id="p-type-ether"></path><path d="M-71.64345719764015,-154.83528357829138A170.6070045455344,170.6070045455344,0,0,1,-3.650889342897871,-170.56793663231645L-2.9809386658215837,-139.2681370761834A139.30003589374985,139.30003589374985,0,0,0,-58.496637847715064,-126.42247964864978Z" fill-rule="evenodd" style="fill: #D7A449; stroke: #fff; opacity: 1;" id="p-type-tokenTransfers"></path><path d="M1.206277097160143e-14,-197A197,197,0,0,1,3.194538304242436,-196.97409709152808L2.7665513248364113,-170.58457196876583A170.6070045455344,170.6070045455344,0,0,0,1.0446666101440332e-14,-170.6070045455344Z" fill-rule="evenodd" style="fill: #DB3F29; stroke: #fff; opacity: 1;" id="p-type-functions"></path><path d="M3.194538304242436,-196.97409709152808A197,197,0,0,1,4.482281243268186,-196.9490014060905L3.881769423576747,-170.56283846765152A170.6070045455344,170.6070045455344,0,0,0,2.7665513248364113,-170.58457196876583Z" fill-rule="evenodd" style="fill: #DB3F29; stroke: #fff; opacity: 1;" id="p-type-functions"></path><path d="M4.482281243268186,-196.9490014060905A197,197,0,0,1,5.536390201278887,-196.92218865211504L4.794654559570757,-170.53961794156334A170.6070045455344,170.6070045455344,0,0,0,3.881769423576747,-170.56283846765152Z" fill-rule="evenodd" style="fill: #DB3F29; stroke: #fff; opacity: 1;" id="p-type-functions"></path><path d="M5.536390201278887,-196.92218865211504A197,197,0,0,1,6.589891050400071,-196.88974918960068L5.70701305781818,-170.51152454294078A170.6070045455344,170.6070045455344,0,0,0,4.794654559570757,-170.53961794156334Z" fill-rule="evenodd" style="fill: #DB3F29; stroke: #fff; opacity: 1;" id="p-type-functions"></path><path d="M6.589891050400071,-196.88974918960068A197,197,0,0,1,7.643203262407122,-196.85167371371148L6.619208191532666,-170.47855021355954A170.6070045455344,170.6070045455344,0,0,0,5.70701305781818,-170.51152454294078Z" fill-rule="evenodd" style="fill: #DB3F29; stroke: #fff; opacity: 1;" id="p-type-functions"></path><path d="M7.643203262407122,-196.85167371371148A197,197,0,0,1,8.696296686000862,-196.80796331436653L7.531213848923171,-170.44069589731726A170.6070045455344,170.6070045455344,0,0,0,6.619208191532666,-170.47855021355954Z" fill-rule="evenodd" style="fill: #DB3F29; stroke: #fff; opacity: 1;" id="p-type-functions"></path><path d="M8.696296686000862,-196.80796331436653A197,197,0,0,1,9.749141176145118,-196.7586192427859L8.443003923622573,-170.39796267780227A170.6070045455344,170.6070045455344,0,0,0,7.531213848923171,-170.44069589731726Z" fill-rule="evenodd" style="fill: #DB3F29; stroke: #fff; opacity: 1;" id="p-type-functions"></path><path d="M9.749141176145118,-196.7586192427859A197,197,0,0,1,10.80170659492945,-196.70364291145464L9.35455231543481,-170.35035177826254A170.6070045455344,170.6070045455344,0,0,0,8.443003923622573,-170.39796267780227Z" fill-rule="evenodd" style="fill: #DB3F29; stroke: #fff; opacity: 1;" id="p-type-functions"></path><path d="M10.80170659492945,-196.70364291145464A197,197,0,0,1,11.853962812431895,-196.64303589408266L10.26583293108205,-170.29786456157078A170.6070045455344,170.6070045455344,0,0,0,9.35455231543481,-170.35035177826254Z" fill-rule="evenodd" style="fill: #DB3F29; stroke: #fff; opacity: 1;" id="p-type-functions"></path><path d="M11.853962812431895,-196.64303589408266A197,197,0,0,1,12.905879707581446,-196.57679992555947L11.176819684951614,-170.24050253018544A170.6070045455344,170.6070045455344,0,0,0,10.26583293108205,-170.29786456157078Z" fill-rule="evenodd" style="fill: #DB3F29; stroke: #fff; opacity: 1;" id="p-type-functions"></path><path d="M12.905879707581446,-196.57679992555947A197,197,0,0,1,13.957427169020324,-196.50493690190456L12.08748649984272,-170.17826732610752A170.6070045455344,170.6070045455344,0,0,0,11.176819684951614,-170.24050253018544Z" fill-rule="evenodd" style="fill: #DB3F29; stroke: #fff; opacity: 1;" id="p-type-functions"></path><path d="M13.957427169020324,-196.50493690190456A197,197,0,0,1,15.008575095965732,-196.42744888021318L12.997807307712792,-170.11116073083377A170.6070045455344,170.6070045455344,0,0,0,12.08748649984272,-170.17826732610752Z" fill-rule="evenodd" style="fill: #DB3F29; stroke: #fff; opacity: 1;" id="p-type-functions"></path><path d="M15.008575095965732,-196.42744888021318A197,197,0,0,1,16.05929339907178,-196.34433807859733L13.907756050423908,-170.03918466530558A170.6070045455344,170.6070045455344,0,0,0,12.997807307712792,-170.11116073083377Z" fill-rule="evenodd" style="fill: #DB3F29; stroke: #fff; opacity: 1;" id="p-type-functions"></path><path d="M16.05929339907178,-196.34433807859733A197,197,0,0,1,17.109552001290606,-196.2556068761225L14.817306680488548,-169.96234118985402A170.6070045455344,170.6070045455344,0,0,0,13.907756050423908,-170.03918466530558Z" fill-rule="evenodd" style="fill: #DB3F29; stroke: #fff; opacity: 1;" id="p-type-functions"></path><path d="M17.109552001290606,-196.2556068761225A197,197,0,0,1,18.159320838733393,-196.16125781273922L15.726433161815258,-169.88063250414083A170.6070045455344,170.6070045455344,0,0,0,14.817306680488548,-169.96234118985402Z" fill-rule="evenodd" style="fill: #DB3F29; stroke: #fff; opacity: 1;" id="p-type-functions"></path><path d="M18.159320838733393,-196.16125781273922A197,197,0,0,1,19.20856986153095,-196.06129358921072L16.63510947045394,-169.7940609470956A170.6070045455344,170.6070045455344,0,0,0,15.726433161815258,-169.88063250414083Z" fill-rule="evenodd" style="fill: #DB3F29; stroke: #fff; opacity: 1;" id="p-type-functions"></path><path d="M19.20856986153095,-196.06129358921072A197,197,0,0,1,20.25726903469389,-195.9557170670354L17.543309595340784,-169.70262899684855A170.6070045455344,170.6070045455344,0,0,0,16.63510947045394,-169.7940609470956Z" fill-rule="evenodd" style="fill: #DB3F29; stroke: #fff; opacity: 1;" id="p-type-functions"></path><path d="M20.25726903469389,-195.9557170670354A197,197,0,0,1,21.305388338972413,-195.84453126836496L18.451007539042855,-169.60633927065987A170.6070045455344,170.6070045455344,0,0,0,17.543309595340784,-169.70262899684855Z" fill-rule="evenodd" style="fill: #DB3F29; stroke: #fff; opacity: 1;" id="p-type-functions"></path><path d="M21.305388338972413,-195.84453126836496A197,197,0,0,1,22.352897771715583,-195.72773937591788L19.358177318502264,-169.50519452484463A170.6070045455344,170.6070045455344,0,0,0,18.451007539042855,-169.60633927065987Z" fill-rule="evenodd" style="fill: #DB3F29; stroke: #fff; opacity: 1;" id="p-type-functions"></path><path d="M22.352897771715583,-195.72773937591788A197,197,0,0,1,23.39976734773021,-195.60534473288837L20.26479296577998,-169.39919765469398A170.6070045455344,170.6070045455344,0,0,0,19.358177318502264,-169.50519452484463Z" fill-rule="evenodd" style="fill: #DB3F29; stroke: #fff; opacity: 1;" id="p-type-functions"></path><path d="M23.39976734773021,-195.60534473288837A197,197,0,0,1,24.445967100139036,-195.47735084285065L21.17082852879901,-169.2883516943921A170.6070045455344,170.6070045455344,0,0,0,20.26479296577998,-169.39919765469398Z" fill-rule="evenodd" style="fill: #DB3F29; stroke: #fff; opacity: 1;" id="p-type-functions"></path><path d="M24.445967100139036,-195.47735084285065A197,197,0,0,1,25.49146708123877,-195.3437613696586L22.076258072087533,-169.1726598169296A170.6070045455344,170.6070045455344,0,0,0,21.17082852879901,-169.2883516943921Z" fill-rule="evenodd" style="fill: #DB3F29; stroke: #fff; opacity: 1;" id="p-type-functions"></path><path d="M25.49146708123877,-195.3437613696586A197,197,0,0,1,26.536237363357202,-195.20458013734094L22.98105567752113,-169.0521253340125A170.6070045455344,170.6070045455344,0,0,0,22.076258072087533,-169.1726598169296Z" fill-rule="evenodd" style="fill: #DB3F29; stroke: #fff; opacity: 1;" id="p-type-functions"></path><path d="M26.536237363357202,-195.20458013734094A197,197,0,0,1,27.5802480397099,-195.05981112999183L23.88519544506474,-168.92675169596748A170.6070045455344,170.6070045455344,0,0,0,22.98105567752113,-169.0521253340125Z" fill-rule="evenodd" style="fill: #DB3F29; stroke: #fff; opacity: 1;" id="p-type-functions"></path><path d="M27.5802480397099,-195.05981112999183A197,197,0,0,1,28.62346922525634,-194.90945849165658L24.788651493514074,-168.79654249164318A170.6070045455344,170.6070045455344,0,0,0,23.88519544506474,-168.92675169596748Z" fill-rule="evenodd" style="fill: #DB3F29; stroke: #fff; opacity: 1;" id="p-type-functions"></path><path d="M28.62346922525634,-194.90945849165658A197,197,0,0,1,29.665871057555332,-194.7535265262134L25.691397961236447,-168.66150144830732A170.6070045455344,170.6070045455344,0,0,0,24.788651493514074,-168.79654249164318Z" fill-rule="evenodd" style="fill: #DB3F29; stroke: #fff; opacity: 1;" id="p-type-functions"></path><path d="M29.665871057555332,-194.7535265262134A197,197,0,0,1,30.707423697619916,-194.59201969724978L26.593409006911127,-168.52163243154018A170.6070045455344,170.6070045455344,0,0,0,25.691397961236447,-168.66150144830732Z" fill-rule="evenodd" style="fill: #DB3F29; stroke: #fff; opacity: 1;" id="p-type-functions"></path><path d="M30.707423697619916,-194.59201969724978A197,197,0,0,1,31.748097330771298,-194.42494262793514L27.49465881026887,-168.37693944512384A170.6070045455344,170.6070045455344,0,0,0,26.593409006911127,-168.52163243154018Z" fill-rule="evenodd" style="fill: #DB3F29; stroke: #fff; opacity: 1;" id="p-type-functions"></path><path d="M31.748097330771298,-194.42494262793514A197,197,0,0,1,32.78786216749262,-194.25230010088816L28.39512157283131,-168.2274266309276A170.6070045455344,170.6070045455344,0,0,0,27.49465881026887,-168.37693944512384Z" fill-rule="evenodd" style="fill: #DB3F29; stroke: #fff; opacity: 1;" id="p-type-functions"></path><path d="M32.78786216749262,-194.25230010088816A197,197,0,0,1,33.82668844428144,-194.07409705803997L29.294771518649238,-168.0730982687894A170.6070045455344,170.6070045455344,0,0,0,28.39512157283131,-168.2274266309276Z" fill-rule="evenodd" style="fill: #DB3F29; stroke: #fff; opacity: 1;" id="p-type-functions"></path><path d="M33.82668844428144,-194.07409705803997A197,197,0,0,1,34.86454642450184,-193.89033860049284L30.193582895040514,-167.91395877639332A170.6070045455344,170.6070045455344,0,0,0,29.294771518649238,-168.0730982687894Z" fill-rule="evenodd" style="fill: #DB3F29; stroke: #fff; opacity: 1;" id="p-type-functions"></path><path d="M34.86454642450184,-193.89033860049284A197,197,0,0,1,35.9014063992356,-193.7010299883739L31.091529973327233,-167.75001270914316A170.6070045455344,170.6070045455344,0,0,0,30.193582895040514,-167.91395877639332Z" fill-rule="evenodd" style="fill: #DB3F29; stroke: #fff; opacity: 1;" id="p-type-functions"></path><path d="M35.9014063992356,-193.7010299883739A197,197,0,0,1,36.937238688132624,-193.50617664068483L31.988587049572242,-167.58126476003198A170.6070045455344,170.6070045455344,0,0,0,31.091529973327233,-167.75001270914316Z" fill-rule="evenodd" style="fill: #DB3F29; stroke: #fff; opacity: 1;" id="p-type-functions"></path><path d="M36.937238688132624,-193.50617664068483A197,197,0,0,1,37.97201364026055,-193.30578413514652L32.88472844531485,-167.40771975950778A170.6070045455344,170.6070045455344,0,0,0,31.988587049572242,-167.58126476003198Z" fill-rule="evenodd" style="fill: #DB3F29; stroke: #fff; opacity: 1;" id="p-type-functions"></path><path d="M37.97201364026055,-193.30578413514652A197,197,0,0,1,39.00570163495354,-193.09985820803956L33.77992850830597,-167.2293826753353A170.6070045455344,170.6070045455344,0,0,0,32.88472844531485,-167.40771975950778Z" fill-rule="evenodd" style="fill: #DB3F29; stroke: #fff; opacity: 1;" id="p-type-functions"></path><path d="M39.00570163495354,-193.09985820803956A197,197,0,0,1,40.03827308266018,-192.88840475403993L34.674161613242404,-167.04625861245364A170.6070045455344,170.6070045455344,0,0,0,33.77992850830597,-167.2293826753353Z" fill-rule="evenodd" style="fill: #DB3F29; stroke: #fff; opacity: 1;" id="p-type-functions"></path><path d="M40.03827308266018,-192.88840475403993A197,197,0,0,1,41.06969842579036,-192.6714298260503L35.567402162500215,-166.85835281283036A170.6070045455344,170.6070045455344,0,0,0,34.674161613242404,-167.04625861245364Z" fill-rule="evenodd" style="fill: #DB3F29; stroke: #fff; opacity: 1;" id="p-type-functions"></path><path d="M41.06969842579036,-192.6714298260503A197,197,0,0,1,42.099948139561555,-192.4489396350269L36.45962458686772,-166.66567065531123A170.6070045455344,170.6070045455344,0,0,0,35.567402162500215,-166.85835281283036Z" fill-rule="evenodd" style="fill: #DB3F29; stroke: #fff; opacity: 1;" id="p-type-functions"></path><path d="M42.099948139561555,-192.4489396350269A197,197,0,0,1,43.1289927328439,-192.22094054980144L37.35080334627726,-166.46821765546636A170.6070045455344,170.6070045455344,0,0,0,36.45962458686772,-166.66567065531123Z" fill-rule="evenodd" style="fill: #DB3F29; stroke: #fff; opacity: 1;" id="p-type-functions"></path><path d="M43.1289927328439,-192.22094054980144A197,197,0,0,1,44.156802749004356,-191.98743909689904L38.240912930536304,-166.26599946543232A170.6070045455344,170.6070045455344,0,0,0,37.35080334627726,-166.46821765546636Z" fill-rule="evenodd" style="fill: #DB3F29; stroke: #fff; opacity: 1;" id="p-type-functions"></path><path d="M44.156802749004356,-191.98743909689904A197,197,0,0,1,45.18334876674992,-191.74844196035139L39.12992786005772,-166.05902187375028A170.6070045455344,170.6070045455344,0,0,0,38.240912930536304,-166.26599946543232Z" fill-rule="evenodd" style="fill: #DB3F29; stroke: #fff; opacity: 1;" id="p-type-functions"></path><path d="M45.18334876674992,-191.74844196035139A197,197,0,0,1,46.20860140096986,-191.50395598150521L40.0178226865891,-165.84729080520043A170.6070045455344,170.6070045455344,0,0,0,39.12992786005772,-166.05902187375028Z" fill-rule="evenodd" style="fill: #DB3F29; stroke: #fff; opacity: 1;" id="p-type-functions"></path><path d="M46.20860140096986,-191.50395598150521A197,197,0,0,1,47.23253130357684,-191.25398815882673L40.90457199394127,-165.63081232063215A170.6070045455344,170.6070045455344,0,0,0,40.0178226865891,-165.84729080520043Z" fill-rule="evenodd" style="fill: #DB3F29; stroke: #fff; opacity: 1;" id="p-type-functions"></path><path d="M47.23253130357684,-191.25398815882673A197,197,0,0,1,48.25510916434692,-190.9985456477011L41.79015039871571,-165.40959261679086A170.6070045455344,170.6070045455344,0,0,0,40.90457199394127,-165.63081232063215Z" fill-rule="evenodd" style="fill: #DB3F29; stroke: #fff; opacity: 1;" id="p-type-functions"></path><path d="M48.25510916434692,-190.9985456477011A197,197,0,0,1,49.27630571175877,-190.7376357602277L42.674532551031334,-165.18363802614036A170.6070045455344,170.6070045455344,0,0,0,41.79015039871571,-165.40959261679086Z" fill-rule="evenodd" style="fill: #DB3F29; stroke: #fff; opacity: 1;" id="p-type-functions"></path><path d="M49.27630571175877,-190.7376357602277A197,197,0,0,1,50.29609171383144,-190.47126596501073L43.55769313525003,-164.9529550166816A170.6070045455344,170.6070045455344,0,0,0,42.674532551031334,-165.18363802614036Z" fill-rule="evenodd" style="fill: #DB3F29; stroke: #fff; opacity: 1;" id="p-type-functions"></path><path d="M50.29609171383144,-190.47126596501073A197,197,0,0,1,51.314437978961145,-190.19944388694557L44.439606870701354,-164.7175501917677A170.6070045455344,170.6070045455344,0,0,0,43.55769313525003,-164.9529550166816Z" fill-rule="evenodd" style="fill: #DB3F29; stroke: #fff; opacity: 1;" id="p-type-functions"></path><path d="M51.314437978961145,-190.19944388694557A197,197,0,0,1,52.331315356756924,-189.9221773070003L45.32024851240621,-164.47743028991468A170.6070045455344,170.6070045455344,0,0,0,44.439606870701354,-164.7175501917677Z" fill-rule="evenodd" style="fill: #DB3F29; stroke: #fff; opacity: 1;" id="p-type-functions"></path><path d="M52.331315356756924,-189.9221773070003A197,197,0,0,1,53.346694738874945,-189.6394741619932L46.19959285179936,-164.2326021846088A170.6070045455344,170.6070045455344,0,0,0,45.32024851240621,-164.47743028991468Z" fill-rule="evenodd" style="fill: #DB3F29; stroke: #fff; opacity: 1;" id="p-type-functions"></path><path d="M53.346694738874945,-189.6394741619932A197,197,0,0,1,54.36054705985197,-189.35134254436545L47.077614717451276,-163.98307288410962A170.6070045455344,170.6070045455344,0,0,0,46.19959285179936,-164.2326021846088Z" fill-rule="evenodd" style="fill: #DB3F29; stroke: #fff; opacity: 1;" id="p-type-functions"></path><path d="M54.36054705985197,-189.35134254436545A197,197,0,0,1,55.37284329793715,-189.0577907019494L47.954288975788465,-163.72884953124958A170.6070045455344,170.6070045455344,0,0,0,47.077614717451276,-163.98307288410962Z" fill-rule="evenodd" style="fill: #DB3F29; stroke: #fff; opacity: 1;" id="p-type-functions"></path><path d="M55.37284329793715,-189.0577907019494A197,197,0,0,1,56.38355447592289,-188.75882703773254L48.82959053181302,-163.46993940322935A170.6070045455344,170.6070045455344,0,0,0,47.954288975788465,-163.72884953124958Z" fill-rule="evenodd" style="fill: #DB3F29; stroke: #fff; opacity: 1;" id="p-type-functions"></path><path d="M56.38355447592289,-188.75882703773254A197,197,0,0,1,57.39265166197434,-188.45446010961714L49.70349432982096,-163.20634991140955A170.6070045455344,170.6070045455344,0,0,0,48.82959053181302,-163.46993940322935Z" fill-rule="evenodd" style="fill: #DB3F29; stroke: #fff; opacity: 1;" id="p-type-functions"></path><path d="M57.39265166197434,-188.45446010961714A197,197,0,0,1,58.400105970457396,-188.14469863017493L50.57597535411937,-162.93808860109877A170.6070045455344,170.6070045455344,0,0,0,49.70349432982096,-163.20634991140955Z" fill-rule="evenodd" style="fill: #DB3F29; stroke: #fff; opacity: 1;" id="p-type-functions"></path><path d="M58.400105970457396,-188.14469863017493A197,197,0,0,1,59.4058885627658,-187.829551466398L51.44700862974262,-162.6651631513373A170.6070045455344,170.6070045455344,0,0,0,50.57597535411937,-162.93808860109877Z" fill-rule="evenodd" style="fill: #DB3F29; stroke: #fff; opacity: 1;" id="p-type-functions"></path><path d="M59.4058885627658,-187.829551466398A197,197,0,0,1,60.40997064814659,-187.50902763944478L52.316569223167235,-162.3875813746776A170.6070045455344,170.6070045455344,0,0,0,51.44700862974262,-162.6651631513373Z" fill-rule="evenodd" style="fill: #DB3F29; stroke: #fff; opacity: 1;" id="p-type-functions"></path><path d="M60.40997064814659,-187.50902763944478A197,197,0,0,1,61.41232348452405,-187.18313632438202L53.184632243025504,-162.10535121696054A170.6070045455344,170.6070045455344,0,0,0,52.316569223167235,-162.3875813746776Z" fill-rule="evenodd" style="fill: #DB3F29; stroke: #fff; opacity: 1;" id="p-type-functions"></path><path d="M61.41232348452405,-187.18313632438202A197,197,0,0,1,62.41291837932271,-186.85188684992184L54.05117284081816,-161.8184807570878A170.6070045455344,170.6070045455344,0,0,0,53.184632243025504,-162.10535121696054Z" fill-rule="evenodd" style="fill: #DB3F29; stroke: #fff; opacity: 1;" id="p-type-functions"></path><path d="M62.41291837932271,-186.85188684992184A197,197,0,0,1,63.411726690288575,-186.5152886981551L54.91616621162563,-161.52697820679091A170.6070045455344,170.6070045455344,0,0,0,54.05117284081816,-161.8184807570878Z" fill-rule="evenodd" style="fill: #DB3F29; stroke: #fff; opacity: 1;" id="p-type-functions"></path><path d="M63.411726690288575,-186.5152886981551A197,197,0,0,1,64.40871982630898,-186.17335150427957L55.77958759481801,-161.23085191039593A170.6070045455344,170.6070045455344,0,0,0,54.91616621162563,-161.52697820679091Z" fill-rule="evenodd" style="fill: #DB3F29; stroke: #fff; opacity: 1;" id="p-type-functions"></path><path d="M64.40871982630898,-186.17335150427957A197,197,0,0,1,65.4038692482311,-185.82608505632433L56.64141227476397,-160.9301103445847A170.6070045455344,170.6070045455344,0,0,0,55.77958759481801,-161.23085191039593Z" fill-rule="evenodd" style="fill: #DB3F29; stroke: #fff; opacity: 1;" id="p-type-functions"></path><path d="M65.4038692482311,-185.82608505632433A197,197,0,0,1,66.39714646967875,-185.4734992948697L57.50161558153804,-160.62476211815232A170.6070045455344,170.6070045455344,0,0,0,56.64141227476397,-160.9301103445847Z" fill-rule="evenodd" style="fill: #DB3F29; stroke: #fff; opacity: 1;" id="p-type-functions"></path><path d="M66.39714646967875,-185.4734992948697A197,197,0,0,1,67.38852305786794,-185.11560431276237L58.36017289162704,-160.3148159717604A170.6070045455344,170.6070045455344,0,0,0,57.50161558153804,-160.62476211815232Z" fill-rule="evenodd" style="fill: #DB3F29; stroke: #fff; opacity: 1;" id="p-type-functions"></path><path d="M67.38852305786794,-185.11560431276237A197,197,0,0,1,68.37797063442085,-184.7524103548267L59.2170596286348,-160.0002807776871A170.6070045455344,170.6070045455344,0,0,0,58.36017289162704,-160.3148159717604Z" fill-rule="evenodd" style="fill: #DB3F29; stroke: #fff; opacity: 1;" id="p-type-functions"></path><path d="M68.37797063442085,-184.7524103548267A197,197,0,0,1,69.36546087617783,-184.3839278175716L60.07225126398559,-159.68116553957321A170.6070045455344,170.6070045455344,0,0,0,59.2170596286348,-160.0002807776871Z" fill-rule="evenodd" style="fill: #DB3F29; stroke: #fff; opacity: 1;" id="p-type-functions"></path><path d="M69.36546087617783,-184.3839278175716A197,197,0,0,1,70.3509655160086,-184.01016724889243L60.92572331762646,-159.35747939216415A170.6070045455344,170.6070045455344,0,0,0,60.07225126398559,-159.68116553957321Z" fill-rule="evenodd" style="fill: #DB3F29; stroke: #fff; opacity: 1;" id="p-type-functions"></path><path d="M70.3509655160086,-184.01016724889243A197,197,0,0,1,71.33445634362103,-183.63113934776973L61.77745135872781,-159.0292316010488A170.6070045455344,170.6070045455344,0,0,0,60.92572331762646,-159.35747939216415Z" fill-rule="evenodd" style="fill: #DB3F29; stroke: #fff; opacity: 1;" id="p-type-functions"></path><path d="M71.33445634362103,-183.63113934776973A197,197,0,0,1,72.3159052063689,-183.2468549639624L62.627411006382815,-158.696431562394A170.6070045455344,170.6070045455344,0,0,0,61.77745135872781,-159.0292316010488Z" fill-rule="evenodd" style="fill: #DB3F29; stroke: #fff; opacity: 1;" id="p-type-functions"></path><path d="M72.3159052063689,-183.2468549639624A197,197,0,0,1,73.29528401005771,-182.85732509769736L63.475577930305334,-158.3590888026757A170.6070045455344,170.6070045455344,0,0,0,62.627411006382815,-158.696431562394Z" fill-rule="evenodd" style="fill: #DB3F29; stroke: #fff; opacity: 1;" id="p-type-functions"></path><path d="M73.29528401005771,-182.85732509769736A197,197,0,0,1,74.27256471974873,-182.46256089935474L64.32192785152624,-158.0172129784064A170.6070045455344,170.6070045455344,0,0,0,63.475577930305334,-158.3590888026757Z" fill-rule="evenodd" style="fill: #DB3F29; stroke: #fff; opacity: 1;" id="p-type-functions"></path><path d="M74.27256471974873,-182.46256089935474A197,197,0,0,1,75.24771936056179,-182.06257366914852L65.16643654308864,-157.67081387585847A170.6070045455344,170.6070045455344,0,0,0,64.32192785152624,-158.0172129784064Z" fill-rule="evenodd" style="fill: #DB3F29; stroke: #fff; opacity: 1;" id="p-type-functions"></path><path d="M75.24771936056179,-182.06257366914852A197,197,0,0,1,76.22072001847589,-181.65737485680316L66.00907983074123,-157.3199014107841A170.6070045455344,170.6070045455344,0,0,0,65.16643654308864,-157.67081387585847Z" fill-rule="evenodd" style="fill: #DB3F29; stroke: #fff; opacity: 1;" id="p-type-functions"></path><path d="M76.22072001847589,-181.65737485680316A197,197,0,0,1,77.19153884112819,-181.24697606122592L66.84983359363022,-156.96448562813165A170.6070045455344,170.6070045455344,0,0,0,66.00907983074123,-157.3199014107841Z" fill-rule="evenodd" style="fill: #DB3F29; stroke: #fff; opacity: 1;" id="p-type-functions"></path><path d="M77.19153884112819,-181.24697606122592A197,197,0,0,1,78.16014803861147,-180.83138903017456L67.68867376499,-156.60457670175782A170.6070045455344,170.6070045455344,0,0,0,66.84983359363022,-156.96448562813165Z" fill-rule="evenodd" style="fill: #DB3F29; stroke: #fff; opacity: 1;" id="p-type-functions"></path><path d="M78.16014803861147,-180.83138903017456A197,197,0,0,1,79.1265198842695,-180.41062565992144L68.5255763328319,-156.24018493413666A170.6070045455344,170.6070045455344,0,0,0,67.68867376499,-156.60457670175782Z" fill-rule="evenodd" style="fill: #DB3F29; stroke: #fff; opacity: 1;" id="p-type-functions"></path><path d="M79.1265198842695,-180.41062565992144A197,197,0,0,1,80.09062671549074,-179.98469799491266L69.36051734063162,-155.87132075606448A170.6070045455344,170.6070045455344,0,0,0,68.5255763328319,-156.24018493413666Z" fill-rule="evenodd" style="fill: #DB3F29; stroke: #fff; opacity: 1;" id="p-type-functions"></path><path d="M80.09062671549074,-179.98469799491266A197,197,0,0,1,81.05244093450025,-179.5536182274235L70.19347288801494,-155.49799472636138A170.6070045455344,170.6070045455344,0,0,0,69.36051734063162,-155.87132075606448Z" fill-rule="evenodd" style="fill: #DB3F29; stroke: #fff; opacity: 1;" id="p-type-functions"></path><path d="M81.05244093450025,-179.5536182274235A197,197,0,0,1,82.01193500914948,-179.11739869720932L71.02441913144182,-155.12021753156898A170.6070045455344,170.6070045455344,0,0,0,70.19347288801494,-155.49799472636138Z" fill-rule="evenodd" style="fill: #DB3F29; stroke: #fff; opacity: 1;" id="p-type-functions"></path><path d="M82.01193500914948,-179.11739869720932A197,197,0,0,1,82.9690814737047,-178.6760518911523L71.8533322848891,-154.73799998564448A170.6070045455344,170.6070045455344,0,0,0,71.02441913144182,-155.12021753156898Z" fill-rule="evenodd" style="fill: #DB3F29; stroke: #fff; opacity: 1;" id="p-type-functions"></path><path d="M82.9690814737047,-178.6760518911523A197,197,0,0,1,83.92385292963301,-178.22959044290408L72.68018862053127,-154.35135302965114A170.6070045455344,170.6070045455344,0,0,0,71.8533322848891,-154.73799998564448Z" fill-rule="evenodd" style="fill: #DB3F29; stroke: #fff; opacity: 1;" id="p-type-functions"></path><path d="M83.92385292963301,-178.22959044290408A197,197,0,0,1,84.87622204638657,-177.77802713252413L73.5049644694196,-153.96028773144508A170.6070045455344,170.6070045455344,0,0,0,72.68018862053127,-154.35135302965114Z" fill-rule="evenodd" style="fill: #DB3F29; stroke: #fff; opacity: 1;" id="p-type-functions"></path><path d="M84.87622204638657,-177.77802713252413A197,197,0,0,1,85.82616156218516,-177.32137488611374L74.32763622215987,-153.56481528535846A170.6070045455344,170.6070045455344,0,0,0,73.5049644694196,-153.96028773144508Z" fill-rule="evenodd" style="fill: #DB3F29; stroke: #fff; opacity: 1;" id="p-type-functions"></path><path d="M85.82616156218516,-177.32137488611374A197,197,0,0,1,86.77364428479636,-176.8596467754463L75.14818032958802,-153.16494701187906A170.6070045455344,170.6070045455344,0,0,0,74.32763622215987,-153.56481528535846Z" fill-rule="evenodd" style="fill: #DB3F29; stroke: #fff; opacity: 1;" id="p-type-functions"></path><path d="M86.77364428479636,-176.8596467754463A197,197,0,0,1,87.71864309231404,-176.3928560175928L75.96657330344433,-152.76069435732614A170.6070045455344,170.6070045455344,0,0,0,75.14818032958802,-153.16494701187906Z" fill-rule="evenodd" style="fill: #DB3F29; stroke: #fff; opacity: 1;" id="p-type-functions"></path><path d="M87.71864309231404,-176.3928560175928A197,197,0,0,1,88.66113093393474,-175.92101597454376L76.78279171704581,-152.35206889352293A170.6070045455344,170.6070045455344,0,0,0,75.96657330344433,-152.76069435732614Z" fill-rule="evenodd" style="fill: #DB3F29; stroke: #fff; opacity: 1;" id="p-type-functions"></path><path d="M88.66113093393474,-175.92101597454376A197,197,0,0,1,89.60108083073185,-175.4441401528266L77.59681220595667,-151.9390823174653A170.6070045455344,170.6070045455344,0,0,0,76.78279171704581,-152.35206889352293Z" fill-rule="evenodd" style="fill: #DB3F29; stroke: #fff; opacity: 1;" id="p-type-functions"></path><path d="M89.60108083073185,-175.4441401528266A197,197,0,0,1,90.53846587642805,-174.962242203119L78.40861146865721,-151.52174645098688A170.6070045455344,170.6070045455344,0,0,0,77.59681220595667,-151.9390823174653Z" fill-rule="evenodd" style="fill: #DB3F29; stroke: #fff; opacity: 1;" id="p-type-functions"></path><path d="M90.53846587642805,-174.962242203119A197,197,0,0,1,91.47325923816557,-174.4753359198582L79.21816626721096,-151.10007324042076A170.6070045455344,170.6070045455344,0,0,0,78.40861146865721,-151.52174645098688Z" fill-rule="evenodd" style="fill: #DB3F29; stroke: #fff; opacity: 1;" id="p-type-functions"></path><path d="M91.47325923816557,-174.4753359198582A197,197,0,0,1,92.40543415727397,-173.98343524084615L80.02545342792955,-150.6740747562575A170.6070045455344,170.6070045455344,0,0,0,79.21816626721096,-151.10007324042076Z" fill-rule="evenodd" style="fill: #DB3F29; stroke: #fff; opacity: 1;" id="p-type-functions"></path><path d="M92.40543415727397,-173.98343524084615A197,197,0,0,1,93.3349639500365,-173.48655424685046L80.83044984203637,-150.24376319279958A170.6070045455344,170.6070045455344,0,0,0,80.02545342792955,-150.6740747562575Z" fill-rule="evenodd" style="fill: #DB3F29; stroke: #fff; opacity: 1;" id="p-type-functions"></path><path d="M93.3349639500365,-173.48655424685046A197,197,0,0,1,94.26182200845365,-172.98470716120138L81.63313246632796,-149.80915086781232A170.6070045455344,170.6070045455344,0,0,0,80.83044984203637,-150.24376319279958Z" fill-rule="evenodd" style="fill: #DB3F29; stroke: #fff; opacity: 1;" id="p-type-functions"></path><path d="M94.26182200845365,-172.98470716120138A197,197,0,0,1,95.18598180100496,-172.47790834938473L82.43347832383354,-149.3702502221713A170.6070045455344,170.6070045455344,0,0,0,81.63313246632796,-149.80915086781232Z" fill-rule="evenodd" style="fill: #DB3F29; stroke: #fff; opacity: 1;" id="p-type-functions"></path><path d="M95.18598180100496,-172.47790834938473A197,197,0,0,1,96.10741687340843,-171.96617231863038L83.23146450447291,-148.92707381950623A170.6070045455344,170.6070045455344,0,0,0,82.43347832383354,-149.3702502221713Z" fill-rule="evenodd" style="fill: #DB3F29; stroke: #fff; opacity: 1;" id="p-type-functions"></path><path d="M96.10741687340843,-171.96617231863038A197,197,0,0,1,97.02610084937767,-171.44951371749758L84.02706816571197,-148.4796343458415A170.6070045455344,170.6070045455344,0,0,0,83.23146450447291,-148.92707381950623Z" fill-rule="evenodd" style="fill: #DB3F29; stroke: #fff; opacity: 1;" id="p-type-functions"></path><path d="M196.99369520745347,1.5760864547748146A197,197,0,0,1,196.98244327928666,2.630026563101567L170.5917999793895,2.277669816273834A170.6070045455344,170.6070045455344,0,0,0,170.60154443502353,1.364930908395543Z" fill-rule="evenodd" style="fill: #1DC690; stroke: #fff; opacity: 1;" id="p-type-logs"></path><path d="M196.98244327928666,2.630026563101567A197,197,0,0,1,196.96555268435583,3.6838913863261404L170.57717229509439,3.1903435253411114A170.6070045455344,170.6070045455344,0,0,0,170.5917999793895,2.277669816273834Z" fill-rule="evenodd" style="fill: #1DC690; stroke: #fff; opacity: 1;" id="p-type-logs"></path><path d="M196.96555268435583,3.6838913863261404A197,197,0,0,1,196.9430239061581,4.737650757330829L170.5576618008589,4.102925910107082A170.6070045455344,170.6070045455344,0,0,0,170.57717229509439,3.1903435253411114Z" fill-rule="evenodd" style="fill: #1DC690; stroke: #fff; opacity: 1;" id="p-type-logs"></path><path d="M196.9430239061581,4.737650757330829A197,197,0,0,1,196.9148575895848,5.791274512016519L170.53326905517542,5.015390847695634A170.6070045455344,170.6070045455344,0,0,0,170.5576618008589,4.102925910107082Z" fill-rule="evenodd" style="fill: #1DC690; stroke: #fff; opacity: 1;" id="p-type-logs"></path><path d="M196.9148575895848,5.791274512016519A197,197,0,0,1,196.8810545409031,6.844732490166146L170.5039947562917,5.927712218592603A170.6070045455344,170.6070045455344,0,0,0,170.53326905517542,5.015390847695634Z" fill-rule="evenodd" style="fill: #1DC690; stroke: #fff; opacity: 1;" id="p-type-logs"></path><path d="M196.8810545409031,6.844732490166146A197,197,0,0,1,196.84161572773286,7.897994536308038L170.46983974219117,6.839863907393458A170.6070045455344,170.6070045455344,0,0,0,170.5039947562917,5.927712218592603Z" fill-rule="evenodd" style="fill: #1DC690; stroke: #fff; opacity: 1;" id="p-type-logs"></path><path d="M196.84161572773286,7.897994536308038A197,197,0,0,1,196.79654227901898,8.951030500579114L170.43080499056876,7.751819803550852A170.6070045455344,170.6070045455344,0,0,0,170.46983974219117,6.839863907393458Z" fill-rule="evenodd" style="fill: #1DC690; stroke: #fff; opacity: 1;" id="p-type-logs"></path><path d="M196.79654227901898,8.951030500579114A197,197,0,0,1,196.74583548499908,10.003810239587944L170.38689161880305,8.66355380212205A170.6070045455344,170.6070045455344,0,0,0,170.43080499056876,7.751819803550852Z" fill-rule="evenodd" style="fill: #1DC690; stroke: #fff; opacity: 1;" id="p-type-logs"></path><path d="M196.74583548499908,10.003810239587944A197,197,0,0,1,196.68949679716653,11.056303617277601L170.33810088392417,9.575039804516184A170.6070045455344,170.6070045455344,0,0,0,170.38689161880305,8.66355380212205Z" fill-rule="evenodd" style="fill: #1DC690; stroke: #fff; opacity: 1;" id="p-type-logs"></path><path d="M196.68949679716653,11.056303617277601A197,197,0,0,1,196.62752782822895,12.108480505788318L170.2844341825779,10.48625171924133A170.6070045455344,170.6070045455344,0,0,0,170.33810088392417,9.575039804516184Z" fill-rule="evenodd" style="fill: #1DC690; stroke: #fff; opacity: 1;" id="p-type-logs"></path><path d="M196.62752782822895,12.108480505788318A197,197,0,0,1,196.55993035206203,13.160310786319897L170.22589305098566,11.397163462651392A170.6070045455344,170.6070045455344,0,0,0,170.2844341825779,10.48625171924133Z" fill-rule="evenodd" style="fill: #1DC690; stroke: #fff; opacity: 1;" id="p-type-logs"></path><path d="M196.55993035206203,13.160310786319897A197,197,0,0,1,196.48670630365874,14.211764349993876L170.16247916490045,12.307748959692736A170.6070045455344,170.6070045455344,0,0,0,170.22589305098566,11.397163462651392Z" fill-rule="evenodd" style="fill: #1DC690; stroke: #fff; opacity: 1;" id="p-type-logs"></path><path d="M196.48670630365874,14.211764349993876A197,197,0,0,1,196.40785777907394,15.262811098715396L170.0941943395591,13.217982144650612A170.6070045455344,170.6070045455344,0,0,0,170.16247916490045,12.307748959692736Z" fill-rule="evenodd" style="fill: #1DC690; stroke: #fff; opacity: 1;" id="p-type-logs"></path><path d="M196.40785777907394,15.262811098715396A197,197,0,0,1,196.3233870353644,16.313420946034768L170.02104052963006,14.127836961895278A170.6070045455344,170.6070045455344,0,0,0,170.0941943395591,13.217982144650612Z" fill-rule="evenodd" style="fill: #1DC690; stroke: #fff; opacity: 1;" id="p-type-logs"></path><path d="M196.3233870353644,16.313420946034768A197,197,0,0,1,196.2332964905241,17.363563818008704L169.9430198291576,15.037287366627856A170.6070045455344,170.6070045455344,0,0,0,170.02104052963006,14.127836961895278Z" fill-rule="evenodd" style="fill: #1DC690; stroke: #fff; opacity: 1;" id="p-type-logs"></path><path d="M196.2332964905241,17.363563818008704A197,197,0,0,1,196.13758872341523,18.413209654061184L169.86013447150185,15.946307325625861A170.6070045455344,170.6070045455344,0,0,0,169.9430198291576,15.037287366627856Z" fill-rule="evenodd" style="fill: #1DC690; stroke: #fff; opacity: 1;" id="p-type-logs"></path><path d="M196.13758872341523,18.413209654061184A197,197,0,0,1,196.03626647369416,19.46232840784397L169.7723868292748,16.854870817988424A170.6070045455344,170.6070045455344,0,0,0,169.86013447150185,15.946307325625861Z" fill-rule="evenodd" style="fill: #1DC690; stroke: #fff; opacity: 1;" id="p-type-logs"></path><path d="M196.03626647369416,19.46232840784397A197,197,0,0,1,195.92933264173308,20.51089004809665L169.67977941427247,17.762951835881125A170.6070045455344,170.6070045455344,0,0,0,169.7723868292748,16.854870817988424Z" fill-rule="evenodd" style="fill: #1DC690; stroke: #fff; opacity: 1;" id="p-type-logs"></path><path d="M195.92933264173308,20.51089004809665A197,197,0,0,1,195.81679028853696,21.55886455950633L169.58231487740295,18.670524385280494A170.6070045455344,170.6070045455344,0,0,0,169.67977941427247,17.762951835881125Z" fill-rule="evenodd" style="fill: #1DC690; stroke: #fff; opacity: 1;" id="p-type-logs"></path><path d="M195.81679028853696,21.55886455950633A197,197,0,0,1,195.698642635656,22.606221943566805L169.47999600861056,19.57756248671808A170.6070045455344,170.6070045455344,0,0,0,169.58231487740295,18.670524385280494Z" fill-rule="evenodd" style="fill: #1DC690; stroke: #fff; opacity: 1;" id="p-type-logs"></path><path d="M195.698642635656,22.606221943566805A197,197,0,0,1,195.57489306509336,23.65293221943728L169.37282573679587,20.484040176024127A170.6070045455344,170.6070045455344,0,0,0,169.47999600861056,19.57756248671808Z" fill-rule="evenodd" style="fill: #1DC690; stroke: #fff; opacity: 1;" id="p-type-logs"></path><path d="M195.57489306509336,23.65293221943728A197,197,0,0,1,195.44554511920833,24.698965424800573L169.26080712973211,21.389931505070805A170.6070045455344,170.6070045455344,0,0,0,169.37282573679587,20.484040176024127Z" fill-rule="evenodd" style="fill: #1DC690; stroke: #fff; opacity: 1;" id="p-type-logs"></path><path d="M195.44554511920833,24.698965424800573A197,197,0,0,1,195.310602500615,25.7442916167208L169.1439433939771,22.295210542514972A170.6070045455344,170.6070045455344,0,0,0,169.26080712973211,21.389931505070805Z" fill-rule="evenodd" style="fill: #1DC690; stroke: #fff; opacity: 1;" id="p-type-logs"></path><path d="M195.310602500615,25.7442916167208A197,197,0,0,1,195.17006907207613,26.788880872500503L169.02223787478152,23.199851374540472A170.6070045455344,170.6070045455344,0,0,0,169.1439433939771,22.295210542514972Z" fill-rule="evenodd" style="fill: #1DC690; stroke: #fff; opacity: 1;" id="p-type-logs"></path><path d="M195.17006907207613,26.788880872500503A197,197,0,0,1,195.02394885639282,27.832703290537182L168.8956940559933,24.103828105599938A170.6070045455344,170.6070045455344,0,0,0,169.02223787478152,23.199851374540472Z" fill-rule="evenodd" style="fill: #1DC690; stroke: #fff; opacity: 1;" id="p-type-logs"></path><path d="M195.02394885639282,27.832703290537182A197,197,0,0,1,194.87224603628906,28.875728991179233L168.76431555995768,25.007114859156015A170.6070045455344,170.6070045455344,0,0,0,168.8956940559933,24.103828105599938Z" fill-rule="evenodd" style="fill: #1DC690; stroke: #fff; opacity: 1;" id="p-type-logs"></path><path d="M194.87224603628906,28.875728991179233A197,197,0,0,1,194.71496495429218,29.917928117581273L168.62810614741372,25.909685778422133A170.6070045455344,170.6070045455344,0,0,0,168.76431555995768,25.007114859156015Z" fill-rule="evenodd" style="fill: #1DC690; stroke: #fff; opacity: 1;" id="p-type-logs"></path><path d="M194.71496495429218,29.917928117581273A197,197,0,0,1,194.55211011260863,30.959270836558797L168.48706971738648,26.81151502710263A170.6070045455344,170.6070045455344,0,0,0,168.62810614741372,25.909685778422133Z" fill-rule="evenodd" style="fill: #1DC690; stroke: #fff; opacity: 1;" id="p-type-logs"></path><path d="M194.55211011260863,30.959270836558797A197,197,0,0,1,194.38368617299489,31.99972733944215L168.34121030707547,27.712576790132328A170.6070045455344,170.6070045455344,0,0,0,168.48706971738648,26.81151502710263Z" fill-rule="evenodd" style="fill: #1DC690; stroke: #fff; opacity: 1;" id="p-type-logs"></path><path d="M194.38368617299489,31.99972733944215A197,197,0,0,1,194.20969795662404,33.03926784292981L168.19053209173921,28.61284527441551A170.6070045455344,170.6070045455344,0,0,0,168.34121030707547,27.712576790132328Z" fill-rule="evenodd" style="fill: #1DC690; stroke: #fff; opacity: 1;" id="p-type-logs"></path><path d="M194.20969795662404,33.03926784292981A197,197,0,0,1,194.03015044394803,34.07786258994095L168.03503938457547,29.512294709564223A170.6070045455344,170.6070045455344,0,0,0,168.19053209173921,28.61284527441551Z" fill-rule="evenodd" style="fill: #1DC690; stroke: #fff; opacity: 1;" id="p-type-logs"></path><path d="M194.03015044394803,34.07786258994095A197,197,0,0,1,193.84504877455473,35.115481850467226L167.87473663659796,30.410899348636008A170.6070045455344,170.6070045455344,0,0,0,168.03503938457547,29.512294709564223Z" fill-rule="evenodd" style="fill: #1DC690; stroke: #fff; opacity: 1;" id="p-type-logs"></path><path d="M193.84504877455473,35.115481850467226A197,197,0,0,1,193.65439824702116,36.152095922423825L167.70962843650898,31.308633468870852A170.6070045455344,170.6070045455344,0,0,0,167.87473663659796,30.410899348636008Z" fill-rule="evenodd" style="fill: #1DC690; stroke: #fff; opacity: 1;" id="p-type-logs"></path><path d="M193.65439824702116,36.152095922423825A197,197,0,0,1,193.4582043187615,37.18767513249968L167.53971951056783,32.20547137242756A170.6070045455344,170.6070045455344,0,0,0,167.70962843650898,31.308633468870852Z" fill-rule="evenodd" style="fill: #1DC690; stroke: #fff; opacity: 1;" id="p-type-logs"></path><path d="M193.4582043187615,37.18767513249968A197,197,0,0,1,193.2564726058711,38.22218983700686L167.3650147224558,33.10138738711933A170.6070045455344,170.6070045455344,0,0,0,167.53971951056783,32.20547137242756Z" fill-rule="evenodd" style="fill: #1DC690; stroke: #fff; opacity: 1;" id="p-type-logs"></path><path d="M193.2564726058711,38.22218983700686A197,197,0,0,1,193.0492088829657,39.255610422729184L167.1855190731368,33.99635586714866A170.6070045455344,170.6070045455344,0,0,0,167.3650147224558,33.10138738711933Z" fill-rule="evenodd" style="fill: #1DC690; stroke: #fff; opacity: 1;" id="p-type-logs"></path><path d="M193.0492088829657,39.255610422729184A197,197,0,0,1,192.83641908301593,40.28790730776982L167.00123770071409,34.8903511938414A170.6070045455344,170.6070045455344,0,0,0,167.1855190731368,33.99635586714866Z" fill-rule="evenodd" style="fill: #1DC690; stroke: #fff; opacity: 1;" id="p-type-logs"></path><path d="M192.83641908301593,40.28790730776982A197,197,0,0,1,192.6181092971777,41.31905094239818L166.81217588028346,35.78334777638017A170.6070045455344,170.6070045455344,0,0,0,167.00123770071409,34.8903511938414Z" fill-rule="evenodd" style="fill: #1DC690; stroke: #fff; opacity: 1;" id="p-type-logs"></path><path d="M192.6181092971777,41.31905094239818A197,197,0,0,1,192.39428577461783,42.34901180989566L166.61833902378208,36.67532005253685A170.6070045455344,170.6070045455344,0,0,0,166.81217588028346,35.78334777638017Z" fill-rule="evenodd" style="fill: #1DC690; stroke: #fff; opacity: 1;" id="p-type-logs"></path><path d="M192.39428577461783,42.34901180989566A197,197,0,0,1,192.16495492233497,43.37776042740068L166.4197326798336,37.56624248940432A170.6070045455344,170.6070045455344,0,0,0,166.61833902378208,36.67532005253685Z" fill-rule="evenodd" style="fill: #1DC690; stroke: #fff; opacity: 1;" id="p-type-logs"></path><path d="M192.16495492233497,43.37776042740068A197,197,0,0,1,191.93012330497635,44.40526734675257L166.21636253358923,38.45608958412734A170.6070045455344,170.6070045455344,0,0,0,166.4197326798336,37.56624248940432Z" fill-rule="evenodd" style="fill: #1DC690; stroke: #fff; opacity: 1;" id="p-type-logs"></path><path d="M191.93012330497635,44.40526734675257A197,197,0,0,1,191.6897976446499,45.43150315533456L166.00823440656526,39.34483586463261A170.6070045455344,170.6070045455344,0,0,0,166.21636253358923,38.45608958412734Z" fill-rule="evenodd" style="fill: #1DC690; stroke: #fff; opacity: 1;" id="p-type-logs"></path><path d="M191.6897976446499,45.43150315533456A197,197,0,0,1,191.44398482073169,46.45643847691569L165.79535425647612,40.23245589035785A170.6070045455344,170.6070045455344,0,0,0,166.00823440656526,39.34483586463261Z" fill-rule="evenodd" style="fill: #1DC690; stroke: #fff; opacity: 1;" id="p-type-logs"></path><path d="M191.44398482073169,46.45643847691569A197,197,0,0,1,191.19269186966915,47.48004397249178L165.57772817706396,41.118924252980094A170.6070045455344,170.6070045455344,0,0,0,165.79535425647612,40.23245589035785Z" fill-rule="evenodd" style="fill: #1DC690; stroke: #fff; opacity: 1;" id="p-type-logs"></path><path d="M191.19269186966915,47.48004397249178A197,197,0,0,1,190.9359259847795,48.50229034112515L165.35536239792435,42.004215577142986A170.6070045455344,170.6070045455344,0,0,0,165.57772817706396,41.118924252980094Z" fill-rule="evenodd" style="fill: #1DC690; stroke: #fff; opacity: 1;" id="p-type-logs"></path><path d="M190.9359259847795,48.50229034112515A197,197,0,0,1,190.673694516044,49.5231483207835L165.12826328432772,42.88830452118317A170.6070045455344,170.6070045455344,0,0,0,165.35536239792435,42.004215577142986Z" fill-rule="evenodd" style="fill: #1DC690; stroke: #fff; opacity: 1;" id="p-type-logs"></path><path d="M190.673694516044,49.5231483207835A197,197,0,0,1,190.4060049698975,50.54258868917743L164.89643733703733,43.77116577785568A170.6070045455344,170.6070045455344,0,0,0,165.12826328432772,42.88830452118317Z" fill-rule="evenodd" style="fill: #1DC690; stroke: #fff; opacity: 1;" id="p-type-logs"></path><path d="M190.4060049698975,50.54258868917743A197,197,0,0,1,190.13286500901344,51.560582264597L164.659891192123,44.65277407505838A170.6070045455344,170.6070045455344,0,0,0,164.89643733703733,43.77116577785568Z" fill-rule="evenodd" style="fill: #1DC690; stroke: #fff; opacity: 1;" id="p-type-logs"></path><path d="M190.13286500901344,51.560582264597A197,197,0,0,1,189.85428245208465,52.57709990674705L164.41863162077146,45.53310417655538A170.6070045455344,170.6070045455344,0,0,0,164.659891192123,44.65277407505838Z" fill-rule="evenodd" style="fill: #1DC690; stroke: #fff; opacity: 1;" id="p-type-logs"></path><path d="M189.85428245208465,52.57709990674705A197,197,0,0,1,189.57026527359955,53.59211251758134L164.1726655290922,46.41213088269945A170.6070045455344,170.6070045455344,0,0,0,164.41863162077146,45.53310417655538Z" fill-rule="evenodd" style="fill: #1DC690; stroke: #fff; opacity: 1;" id="p-type-logs"></path><path d="M189.57026527359955,53.59211251758134A197,197,0,0,1,189.28082160361376,54.60559104213548L163.9219999579199,47.2898290311533A170.6070045455344,170.6070045455344,0,0,0,164.1726655290922,46.41213088269945Z" fill-rule="evenodd" style="fill: #1DC690; stroke: #fff; opacity: 1;" id="p-type-logs"></path><path d="M189.28082160361376,54.60559104213548A197,197,0,0,1,188.98595972751744,55.61750646935864L163.66664208261295,48.16617349760994A170.6070045455344,170.6070045455344,0,0,0,163.9219999579199,47.2898290311533Z" fill-rule="evenodd" style="fill: #1DC690; stroke: #fff; opacity: 1;" id="p-type-logs"></path><path d="M188.98595972751744,55.61750646935864A197,197,0,0,1,188.6856880857982,56.62782983294404L163.40659921284805,49.04113919651184A170.6070045455344,170.6070045455344,0,0,0,163.66664208261295,48.16617349760994Z" fill-rule="evenodd" style="fill: #1DC690; stroke: #fff; opacity: 1;" id="p-type-logs"></path><path d="M188.6856880857982,56.62782983294404A197,197,0,0,1,188.38001527379933,57.63653221215804L163.14187879241078,49.91470108176897A170.6070045455344,170.6070045455344,0,0,0,163.40659921284805,49.04113919651184Z" fill-rule="evenodd" style="fill: #1DC690; stroke: #fff; opacity: 1;" id="p-type-logs"></path><path d="M188.38001527379933,57.63653221215804A197,197,0,0,1,188.06895004147384,58.643584732668046L162.8724883989828,50.78683414747578A170.6070045455344,170.6070045455344,0,0,0,163.14187879241078,49.91470108176897Z" fill-rule="evenodd" style="fill: #1DC690; stroke: #fff; opacity: 1;" id="p-type-logs"></path><path d="M188.06895004147384,58.643584732668046A197,197,0,0,1,187.752501293134,59.64895856736907L162.5984357439247,51.65751342862705A170.6070045455344,170.6070045455344,0,0,0,162.8724883989828,50.78683414747578Z" fill-rule="evenodd" style="fill: #1DC690; stroke: #fff; opacity: 1;" id="p-type-logs"></path><path d="M187.752501293134,59.64895856736907A197,197,0,0,1,187.43067808719647,60.65262493720885L162.31972867205545,52.5267140018324A170.6070045455344,170.6070045455344,0,0,0,162.5984357439247,51.65751342862705Z" fill-rule="evenodd" style="fill: #1DC690; stroke: #fff; opacity: 1;" id="p-type-logs"></path><path d="M187.43067808719647,60.65262493720885A197,197,0,0,1,187.10348963592293,61.6545551120117L162.03637516142766,53.39441098602986A170.6070045455344,170.6070045455344,0,0,0,162.31972867205545,52.5267140018324Z" fill-rule="evenodd" style="fill: #1DC690; stroke: #fff; opacity: 1;" id="p-type-logs"></path><path d="M187.10348963592293,61.6545551120117A197,197,0,0,1,186.77094530515635,62.654720411300936L161.74838332309935,54.260579543198A170.6070045455344,170.6070045455344,0,0,0,162.03637516142766,53.39441098602986Z" fill-rule="evenodd" style="fill: #1DC690; stroke: #fff; opacity: 1;" id="p-type-logs"></path><path d="M186.77094530515635,62.654720411300936A197,197,0,0,1,186.43305461405313,63.65309220511978L161.45576140090168,55.12519487906696A170.6070045455344,170.6070045455344,0,0,0,161.74838332309935,54.260579543198Z" fill-rule="evenodd" style="fill: #1DC690; stroke: #fff; opacity: 1;" id="p-type-logs"></path><path d="M186.43305461405313,63.65309220511978A197,197,0,0,1,186.0898272348103,64.64964191485099L161.158517771203,55.9882322438282A170.6070045455344,170.6070045455344,0,0,0,161.45576140090168,55.12519487906696Z" fill-rule="evenodd" style="fill: #1DC690; stroke: #fff; opacity: 1;" id="p-type-logs"></path><path d="M186.0898272348103,64.64964191485099A197,197,0,0,1,185.7412729923888,65.64434101403488L160.85666094266915,56.84966693284294A170.6070045455344,170.6070045455344,0,0,0,161.158517771203,55.9882322438282Z" fill-rule="evenodd" style="fill: #1DC690; stroke: #fff; opacity: 1;" id="p-type-logs"></path><path d="M185.7412729923888,65.64434101403488A197,197,0,0,1,185.38740186423226,66.63716102918592L160.55019955601972,57.709474287349394A170.6070045455344,170.6070045455344,0,0,0,160.85666094266915,56.84966693284294Z" fill-rule="evenodd" style="fill: #1DC690; stroke: #fff; opacity: 1;" id="p-type-logs"></path><path d="M185.38740186423226,66.63716102918592A197,197,0,0,1,185.02822397998136,67.62807354060776L160.23914238378092,58.56762969516855A170.6070045455344,170.6070045455344,0,0,0,160.55019955601972,57.709474287349394Z" fill-rule="evenodd" style="fill: #1DC690; stroke: #fff; opacity: 1;" id="p-type-logs"></path><path d="M185.02822397998136,67.62807354060776A197,197,0,0,1,184.66374962118385,68.61705018320679L159.92349833003422,59.42410859140874A170.6070045455344,170.6070045455344,0,0,0,160.23914238378092,58.56762969516855Z" fill-rule="evenodd" style="fill: #1DC690; stroke: #fff; opacity: 1;" id="p-type-logs"></path><path d="M184.66374962118385,68.61705018320679A197,197,0,0,1,184.2939892210003,69.60406264730406L159.60327643016177,60.27888645916886A170.6070045455344,170.6070045455344,0,0,0,159.92349833003422,59.42410859140874Z" fill-rule="evenodd" style="fill: #1DC690; stroke: #fff; opacity: 1;" id="p-type-logs"></path><path d="M184.2939892210003,69.60406264730406A197,197,0,0,1,183.91895336390533,70.58908267944568L159.27848585058743,61.131938830240074A170.6070045455344,170.6070045455344,0,0,0,159.60327643016177,60.27888645916886Z" fill-rule="evenodd" style="fill: #1DC690; stroke: #fff; opacity: 1;" id="p-type-logs"></path><path d="M183.91895336390533,70.58908267944568A197,197,0,0,1,183.53865278538473,71.57208208321163L158.9491358885147,61.98324128580633A170.6070045455344,170.6070045455344,0,0,0,159.27848585058743,61.131938830240074Z" fill-rule="evenodd" style="fill: #1DC690; stroke: #fff; opacity: 1;" id="p-type-logs"></path><path d="M183.53865278538473,71.57208208321163A197,197,0,0,1,183.15309837162818,72.55303272002274L158.6152359716603,62.83276945714328A170.6070045455344,170.6070045455344,0,0,0,158.9491358885147,61.98324128580633Z" fill-rule="evenodd" style="fill: #1DC690; stroke: #fff; opacity: 1;" id="p-type-logs"></path><path d="M183.15309837162818,72.55303272002274A197,197,0,0,1,182.76230115921751,73.53190650994631L158.27679565798454,63.68049902631584A170.6070045455344,170.6070045455344,0,0,0,158.6152359716603,62.83276945714328Z" fill-rule="evenodd" style="fill: #1DC690; stroke: #fff; opacity: 1;" id="p-type-logs"></path><path d="M182.76230115921751,73.53190650994631A197,197,0,0,1,182.36627233481084,74.50867543249983L157.93382463541747,64.52640572687434A170.6070045455344,170.6070045455344,0,0,0,158.27679565798454,63.68049902631584Z" fill-rule="evenodd" style="fill: #1DC690; stroke: #fff; opacity: 1;" id="p-type-logs"></path><path d="M182.36627233481084,74.50867543249983A197,197,0,0,1,181.96502323482244,75.4833115274531L157.58633272158187,65.37046534454913A170.6070045455344,170.6070045455344,0,0,0,157.93382463541747,64.52640572687434Z" fill-rule="evenodd" style="fill: #1DC690; stroke: #fff; opacity: 1;" id="p-type-logs"></path><path d="M181.96502323482244,75.4833115274531A197,197,0,0,1,181.55856534509803,76.45578689562858L157.2343298635119,66.21265371794374A170.6070045455344,170.6070045455344,0,0,0,157.58633272158187,65.37046534454913Z" fill-rule="evenodd" style="fill: #1DC690; stroke: #fff; opacity: 1;" id="p-type-logs"></path><path d="M181.55856534509803,76.45578689562858A197,197,0,0,1,181.1469103005862,77.42607369970005L156.87782613736863,67.05294673922644A170.6070045455344,170.6070045455344,0,0,0,157.2343298635119,66.21265371794374Z" fill-rule="evenodd" style="fill: #1DC690; stroke: #fff; opacity: 1;" id="p-type-logs"></path><path d="M181.1469103005862,77.42607369970005A197,197,0,0,1,180.73006988500518,78.3941441649894L156.51683174815142,67.89132035482044A170.6070045455344,170.6070045455344,0,0,0,156.87782613736863,67.05294673922644Z" fill-rule="evenodd" style="fill: #1DC690; stroke: #fff; opacity: 1;" id="p-type-logs"></path><path d="M180.73006988500518,78.3941441649894A197,197,0,0,1,180.30805603050572,79.35997058026173L156.15135702940592,68.72775056609234A170.6070045455344,170.6070045455344,0,0,0,156.51683174815142,67.89132035482044Z" fill-rule="evenodd" style="fill: #1DC690; stroke: #fff; opacity: 1;" id="p-type-logs"></path><path d="M180.30805603050572,79.35997058026173A197,197,0,0,1,179.88088081732937,80.32352529851856L155.78141244292814,69.56221343003911A170.6070045455344,170.6070045455344,0,0,0,156.15135702940592,68.72775056609234Z" fill-rule="evenodd" style="fill: #1DC690; stroke: #fff; opacity: 1;" id="p-type-logs"></path><path d="M179.88088081732937,80.32352529851856A197,197,0,0,1,179.44855647346267,81.28478073778926L155.40700857846514,70.39468505997351A170.6070045455344,170.6070045455344,0,0,0,155.78141244292814,69.56221343003911Z" fill-rule="evenodd" style="fill: #1DC690; stroke: #fff; opacity: 1;" id="p-type-logs"></path><path d="M179.44855647346267,81.28478073778926A197,197,0,0,1,179.0110953742873,82.24370938192064L155.0281561534118,71.22514162620784A170.6070045455344,170.6070045455344,0,0,0,155.40700857846514,70.39468505997351Z" fill-rule="evenodd" style="fill: #1DC690; stroke: #fff; opacity: 1;" id="p-type-logs"></path><path d="M179.0110953742873,82.24370938192064A197,197,0,0,1,178.56851004222563,83.20028378136442L154.64486601250402,72.053559356736A170.6070045455344,170.6070045455344,0,0,0,155.0281561534118,71.22514162620784Z" fill-rule="evenodd" style="fill: #1DC690; stroke: #fff; opacity: 1;" id="p-type-logs"></path><path d="M178.56851004222563,83.20028378136442A197,197,0,0,1,178.12081314638237,84.15447655396318L154.25714912750834,72.87991453791403A170.6070045455344,170.6070045455344,0,0,0,154.64486601250402,72.053559356736Z" fill-rule="evenodd" style="fill: #1DC690; stroke: #fff; opacity: 1;" id="p-type-logs"></path><path d="M178.12081314638237,84.15447655396318A197,197,0,0,1,177.66801750218195,85.10626038573407L153.86501659690785,73.70418351513892A170.6070045455344,170.6070045455344,0,0,0,154.25714912750834,72.87991453791403Z" fill-rule="evenodd" style="fill: #1DC690; stroke: #fff; opacity: 1;" id="p-type-logs"></path><path d="M177.66801750218195,85.10626038573407A197,197,0,0,1,177.21013607100156,86.05560803165076L153.46847964558444,74.52634269352573A170.6070045455344,170.6070045455344,0,0,0,153.86501659690785,73.70418351513892Z" fill-rule="evenodd" style="fill: #1DC690; stroke: #fff; opacity: 1;" id="p-type-logs"></path><path d="M177.21013607100156,86.05560803165076A197,197,0,0,1,176.74718195980017,87.00249231642326L153.0675496244976,75.34636853858298A170.6070045455344,170.6070045455344,0,0,0,153.46847964558444,74.52634269352573Z" fill-rule="evenodd" style="fill: #1DC690; stroke: #fff; opacity: 1;" id="p-type-logs"></path><path d="M176.74718195980017,87.00249231642326A197,197,0,0,1,176.27916842074345,87.94688613527583L152.6622380103594,76.16423757688631A170.6070045455344,170.6070045455344,0,0,0,153.0675496244976,75.34636853858298Z" fill-rule="evenodd" style="fill: #1DC690; stroke: #fff; opacity: 1;" id="p-type-logs"></path><path d="M176.27916842074345,87.94688613527583A197,197,0,0,1,175.8061088508242,88.88876245472292L152.25255640530597,76.97992639675047A170.6070045455344,170.6070045455344,0,0,0,152.6622380103594,76.16423757688631Z" fill-rule="evenodd" style="fill: #1DC690; stroke: #fff; opacity: 1;" id="p-type-logs"></path><path d="M175.8061088508242,88.88876245472292A197,197,0,0,1,175.32801679147906,89.82809431334293L151.8385165365655,77.79341164889945A170.6070045455344,170.6070045455344,0,0,0,152.25255640530597,76.97992639675047Z" fill-rule="evenodd" style="fill: #1DC690; stroke: #fff; opacity: 1;" id="p-type-logs"></path><path d="M175.32801679147906,89.82809431334293A197,197,0,0,1,174.84490592820086,90.76485482255005L151.42013025612235,78.60467004713485A170.6070045455344,170.6070045455344,0,0,0,151.8385165365655,77.79341164889945Z" fill-rule="evenodd" style="fill: #1DC690; stroke: #fff; opacity: 1;" id="p-type-logs"></path><path d="M174.84490592820086,90.76485482255005A197,197,0,0,1,174.35679009014677,91.69901716736389L150.99740954037796,79.41367836900248A170.6070045455344,170.6070045455344,0,0,0,151.42013025612235,78.60467004713485Z" fill-rule="evenodd" style="fill: #1DC690; stroke: #fff; opacity: 1;" id="p-type-logs"></path><path d="M174.35679009014677,91.69901716736389A197,197,0,0,1,173.86368324974245,92.63055460717715L150.57036648980795,80.22041345645708A170.6070045455344,170.6070045455344,0,0,0,150.99740954037796,79.41367836900248Z" fill-rule="evenodd" style="fill: #1DC690; stroke: #fff; opacity: 1;" id="p-type-logs"></path><path d="M173.86368324974245,92.63055460717715A197,197,0,0,1,173.3655995222822,93.55944047652099L150.1390133286157,81.02485221652523A170.6070045455344,170.6070045455344,0,0,0,150.57036648980795,80.22041345645708Z" fill-rule="evenodd" style="fill: #1DC690; stroke: #fff; opacity: 1;" id="p-type-logs"></path><path d="M173.3655995222822,93.55944047652099A197,197,0,0,1,172.86255316552473,94.48564818582837L149.70336240438255,81.82697162196642A170.6070045455344,170.6070045455344,0,0,0,150.1390133286157,81.02485221652523Z" fill-rule="evenodd" style="fill: #1DC690; stroke: #fff; opacity: 1;" id="p-type-logs"></path><path d="M172.86255316552473,94.48564818582837A197,197,0,0,1,172.3545585792853,95.4091512221952L149.26342618771423,82.62674871193218A170.6070045455344,170.6070045455344,0,0,0,149.70336240438255,81.82697162196642Z" fill-rule="evenodd" style="fill: #1DC690; stroke: #fff; opacity: 1;" id="p-type-logs"></path><path d="M172.3545585792853,95.4091512221952A197,197,0,0,1,171.8416303050232,96.3299231501393L148.81921727188393,83.42416059262332A170.6070045455344,170.6070045455344,0,0,0,149.26342618771423,82.62674871193218Z" fill-rule="evenodd" style="fill: #1DC690; stroke: #fff; opacity: 1;" id="p-type-logs"></path><path d="M171.8416303050232,96.3299231501393A197,197,0,0,1,171.32378302542563,97.24793761235696L148.37074837247178,84.21918443794534A170.6070045455344,170.6070045455344,0,0,0,148.81921727188393,83.42416059262332Z" fill-rule="evenodd" style="fill: #1DC690; stroke: #fff; opacity: 1;" id="p-type-logs"></path><path d="M102.33821993436183,168.33267282576543A197,197,0,0,1,101.43613576095422,168.87779712527418L87.84627043071352,146.2524624456421A170.6070045455344,170.6070045455344,0,0,0,88.62749824123638,145.78037095404733Z" fill-rule="evenodd" style="fill: #D7A449; stroke: #fff; opacity: 1;" id="p-type-tokenTransfers"></path><path d="M101.43613576095422,168.87779712527418A197,197,0,0,1,100.53114795533523,169.4180872598392L87.06252800093233,146.7203674275895A170.6070045455344,170.6070045455344,0,0,0,87.84627043071352,146.2524624456421Z" fill-rule="evenodd" style="fill: #D7A449; stroke: #fff; opacity: 1;" id="p-type-tokenTransfers"></path><path d="M100.53114795533523,169.4180872598392A197,197,0,0,1,99.62328242298445,169.95352776353388L86.27629338669628,147.1840725060042A170.6070045455344,170.6070045455344,0,0,0,87.06252800093233,146.7203674275895Z" fill-rule="evenodd" style="fill: #D7A449; stroke: #fff; opacity: 1;" id="p-type-tokenTransfers"></path><path d="M99.62328242298445,169.95352776353388A197,197,0,0,1,98.71256515175699,170.48410330925324L85.48758909414805,147.64356440722398A170.6070045455344,170.6070045455344,0,0,0,86.27629338669628,147.1840725060042Z" fill-rule="evenodd" style="fill: #D7A449; stroke: #fff; opacity: 1;" id="p-type-tokenTransfers"></path><path d="M98.71256515175699,170.48410330925324A197,197,0,0,1,97.79902221113971,171.00979870915293L84.69643770012554,148.09882997818974A170.6070045455344,170.6070045455344,0,0,0,85.48758909414805,147.64356440722398Z" fill-rule="evenodd" style="fill: #D7A449; stroke: #fff; opacity: 1;" id="p-type-tokenTransfers"></path><path d="M97.79902221113971,171.00979870915293A197,197,0,0,1,96.88267975150482,171.53059891508383L83.90286185151542,148.54985618682207A170.6070045455344,170.6070045455344,0,0,0,84.69643770012554,148.09882997818974Z" fill-rule="evenodd" style="fill: #D7A449; stroke: #fff; opacity: 1;" id="p-type-tokenTransfers"></path><path d="M96.88267975150482,171.53059891508383A197,197,0,0,1,95.96356400336145,172.04648901902286L83.10688426460493,148.99663012239427A170.6070045455344,170.6070045455344,0,0,0,83.90286185151542,148.54985618682207Z" fill-rule="evenodd" style="fill: #D7A449; stroke: #fff; opacity: 1;" id="p-type-tokenTransfers"></path><path d="M95.96356400336145,172.04648901902286A197,197,0,0,1,95.0417012766047,172.55745425349969L82.30852772443158,149.43913899590186A170.6070045455344,170.6070045455344,0,0,0,83.10688426460493,148.99663012239427Z" fill-rule="evenodd" style="fill: #D7A449; stroke: #fff; opacity: 1;" id="p-type-tokenTransfers"></path><path d="M95.0417012766047,172.55745425349969A197,197,0,0,1,94.11711795976255,173.06347999201952L81.507815084131,149.87737014042884A170.6070045455344,170.6070045455344,0,0,0,82.30852772443158,149.43913899590186Z" fill-rule="evenodd" style="fill: #D7A449; stroke: #fff; opacity: 1;" id="p-type-tokenTransfers"></path><path d="M94.11711795976255,173.06347999201952A197,197,0,0,1,93.18984051924052,173.56455174948172L80.7047692642827,150.31131101151A170.6070045455344,170.6070045455344,0,0,0,81.507815084131,149.87737014042884Z" fill-rule="evenodd" style="fill: #D7A449; stroke: #fff; opacity: 1;" id="p-type-tokenTransfers"></path><path d="M93.18984051924052,173.56455174948172A197,197,0,0,1,92.25989549856396,174.06065518259447L79.89941325225396,150.74094918749032A170.6070045455344,170.6070045455344,0,0,0,80.7047692642827,150.31131101151Z" fill-rule="evenodd" style="fill: #D7A449; stroke: #fff; opacity: 1;" id="p-type-tokenTransfers"></path><path d="M92.25989549856396,174.06065518259447A197,197,0,0,1,91.32730951761839,174.55177609028541L79.09177010154187,151.16627236988035A170.6070045455344,170.6070045455344,0,0,0,79.89941325225396,150.74094918749032Z" fill-rule="evenodd" style="fill: #D7A449; stroke: #fff; opacity: 1;" id="p-type-tokenTransfers"></path><path d="M91.32730951761839,174.55177609028541A197,197,0,0,1,90.39210927188734,175.03790041410798L78.28186293111332,151.58726838370822A170.6070045455344,170.6070045455344,0,0,0,79.09177010154187,151.16627236988035Z" fill-rule="evenodd" style="fill: #D7A449; stroke: #fff; opacity: 1;" id="p-type-tokenTransfers"></path><path d="M90.39210927188734,175.03790041410798A197,197,0,0,1,89.45432153168828,175.51901423864402L77.46971492474334,152.00392517786833A170.6070045455344,170.6070045455344,0,0,0,78.28186293111332,151.58726838370822Z" fill-rule="evenodd" style="fill: #D7A449; stroke: #fff; opacity: 1;" id="p-type-tokenTransfers"></path><path d="M89.45432153168828,175.51901423864402A197,197,0,0,1,88.51397314140632,175.99510379190212L76.65534933035136,152.41623082546622A170.6070045455344,170.6070045455344,0,0,0,77.46971492474334,152.00392517786833Z" fill-rule="evenodd" style="fill: #D7A449; stroke: #fff; opacity: 1;" id="p-type-tokenTransfers"></path><path d="M88.51397314140632,175.99510379190212A197,197,0,0,1,87.57109101872571,176.46615544571162L75.83878945933576,152.82417352415993A170.6070045455344,170.6070045455344,0,0,0,76.65534933035136,152.41623082546622Z" fill-rule="evenodd" style="fill: #D7A449; stroke: #fff; opacity: 1;" id="p-type-tokenTransfers"></path><path d="M87.57109101872571,176.46615544571162A197,197,0,0,1,86.62570215385936,176.93215571611296L75.02005868590656,153.2277415964979A170.6070045455344,170.6070045455344,0,0,0,75.83878945933576,152.82417352415993Z" fill-rule="evenodd" style="fill: #D7A449; stroke: #fff; opacity: 1;" id="p-type-tokenTransfers"></path><path d="M86.62570215385936,176.93215571611296A197,197,0,0,1,85.67783360877631,177.39309126374354L74.19918044641645,153.62692349025326A170.6070045455344,170.6070045455344,0,0,0,75.02005868590656,153.2277415964979Z" fill-rule="evenodd" style="fill: #D7A449; stroke: #fff; opacity: 1;" id="p-type-tokenTransfers"></path><path d="M85.67783360877631,177.39309126374354A197,197,0,0,1,84.72751251642691,177.84894889421957L73.37617823868969,154.0217077787545A170.6070045455344,170.6070045455344,0,0,0,74.19918044641645,153.62692349025326Z" fill-rule="evenodd" style="fill: #D7A449; stroke: #fff; opacity: 1;" id="p-type-tokenTransfers"></path><path d="M84.72751251642691,177.84894889421957A197,197,0,0,1,83.77476607996628,178.2997155585138L72.5510756213497,154.41208316121248A170.6070045455344,170.6070045455344,0,0,0,73.37617823868969,154.0217077787545Z" fill-rule="evenodd" style="fill: #D7A449; stroke: #fff; opacity: 1;" id="p-type-tokenTransfers"></path><path d="M83.77476607996628,178.2997155585138A197,197,0,0,1,82.81962157197557,178.74537835332907L71.72389621314456,154.79803846304407A170.6070045455344,170.6070045455344,0,0,0,72.5510756213497,154.41208316121248Z" fill-rule="evenodd" style="fill: #D7A449; stroke: #fff; opacity: 1;" id="p-type-tokenTransfers"></path><path d="M82.81962157197557,178.74537835332907A197,197,0,0,1,81.86210633368124,179.18592452146757L70.89466369227094,155.1795626361919A170.6070045455344,170.6070045455344,0,0,0,71.72389621314456,154.79803846304407Z" fill-rule="evenodd" style="fill: #D7A449; stroke: #fff; opacity: 1;" id="p-type-tokenTransfers"></path><path d="M81.86210633368124,179.18592452146757A197,197,0,0,1,80.90224777417244,179.62134145219608L70.06340179569638,155.55664475944064A170.6070045455344,170.6070045455344,0,0,0,70.89466369227094,155.1795626361919Z" fill-rule="evenodd" style="fill: #D7A449; stroke: #fff; opacity: 1;" id="p-type-tokenTransfers"></path><path d="M80.90224777417244,179.62134145219608A197,197,0,0,1,79.94007336961641,180.05161668160702L69.2301343184797,155.92927403872966A170.6070045455344,170.6070045455344,0,0,0,70.06340179569638,155.55664475944064Z" fill-rule="evenodd" style="fill: #D7A449; stroke: #fff; opacity: 1;" id="p-type-tokenTransfers"></path><path d="M79.94007336961641,180.05161668160702A197,197,0,0,1,78.97561066247201,180.4767378929751L68.39488511308994,156.29743980746207A170.6070045455344,170.6070045455344,0,0,0,69.2301343184797,155.92927403872966Z" fill-rule="evenodd" style="fill: #D7A449; stroke: #fff; opacity: 1;" id="p-type-tokenTransfers"></path><path d="M78.97561066247201,180.4767378929751A197,197,0,0,1,78.00888726070126,180.89669291711002L67.55767808872356,156.6611315268098A170.6070045455344,170.6070045455344,0,0,0,68.39488511308994,156.29743980746207Z" fill-rule="evenodd" style="fill: #D7A449; stroke: #fff; opacity: 1;" id="p-type-tokenTransfers"></path><path d="M78.00888726070126,180.89669291711002A197,197,0,0,1,77.03993083697905,181.31146973270467L66.71853721062,157.02033878601557A170.6070045455344,170.6070045455344,0,0,0,67.55767808872356,156.6611315268098Z" fill-rule="evenodd" style="fill: #D7A449; stroke: #fff; opacity: 1;" id="p-type-tokenTransfers"></path><path d="M77.03993083697905,181.31146973270467A197,197,0,0,1,76.06876912790106,181.72105646667939L65.87748649937575,157.3750513026908A170.6070045455344,170.6070045455344,0,0,0,66.71853721062,157.02033878601557Z" fill-rule="evenodd" style="fill: #D7A449; stroke: #fff; opacity: 1;" id="p-type-tokenTransfers"></path><path d="M76.06876912790106,181.72105646667939A197,197,0,0,1,75.09542993318973,182.1254413945218L65.03455003025667,157.72525892310986A170.6070045455344,170.6070045455344,0,0,0,65.87748649937575,157.3750513026908Z" fill-rule="evenodd" style="fill: #D7A449; stroke: #fff; opacity: 1;" id="p-type-tokenTransfers"></path><path d="M75.09542993318973,182.1254413945218A197,197,0,0,1,74.11994111489855,182.52461294062226L64.18975193250884,158.07095162250076A170.6070045455344,170.6070045455344,0,0,0,65.03455003025667,157.72525892310986Z" fill-rule="evenodd" style="fill: #D7A449; stroke: #fff; opacity: 1;" id="p-type-tokenTransfers"></path><path d="M74.11994111489855,182.52461294062226A197,197,0,0,1,73.14233059661444,182.91855967860548L63.34311638866792,158.41211950533224A170.6070045455344,170.6070045455344,0,0,0,64.18975193250884,158.07095162250076Z" fill-rule="evenodd" style="fill: #D7A449; stroke: #fff; opacity: 1;" id="p-type-tokenTransfers"></path><path d="M73.14233059661444,182.91855967860548A197,197,0,0,1,72.16262636265846,183.30727033165746L62.49466763386687,158.74875280559692A170.6070045455344,170.6070045455344,0,0,0,63.34311638866792,158.41211950533224Z" fill-rule="evenodd" style="fill: #D7A449; stroke: #fff; opacity: 1;" id="p-type-tokenTransfers"></path><path d="M72.16262636265846,183.30727033165746A197,197,0,0,1,71.18085645728476,183.69073377284826L61.6444299551422,159.08084188709074A170.6070045455344,170.6070045455344,0,0,0,62.49466763386687,158.74875280559692Z" fill-rule="evenodd" style="fill: #D7A449; stroke: #fff; opacity: 1;" id="p-type-tokenTransfers"></path><path d="M71.18085645728476,183.69073377284826A197,197,0,0,1,70.19704898387782,184.06893902545062L60.792427690738805,159.40837724368907A170.6070045455344,170.6070045455344,0,0,0,61.6444299551422,159.08084188709074Z" fill-rule="evenodd" style="fill: #D7A449; stroke: #fff; opacity: 1;" id="p-type-tokenTransfers"></path><path d="M70.19704898387782,184.06893902545062A197,197,0,0,1,69.21123210414791,184.44187526325405L59.938685229413196,159.73134949961863A170.6070045455344,170.6070045455344,0,0,0,60.792427690738805,159.40837724368907Z" fill-rule="evenodd" style="fill: #D7A449; stroke: #fff; opacity: 1;" id="p-type-tokenTransfers"></path><path d="M69.21123210414791,184.44187526325405A197,197,0,0,1,68.22343403732508,184.80953181087483L59.08322700973546,160.04974940972593A170.6070045455344,170.6070045455344,0,0,0,59.938685229413196,159.73134949961863Z" fill-rule="evenodd" style="fill: #D7A449; stroke: #fff; opacity: 1;" id="p-type-tokenTransfers"></path><path d="M68.22343403732508,184.80953181087483A197,197,0,0,1,67.23368305935124,185.17189814406154L58.22607751938962,160.36356785974183A170.6070045455344,170.6070045455344,0,0,0,59.08322700973546,160.04974940972593Z" fill-rule="evenodd" style="fill: #D7A449; stroke: #fff; opacity: 1;" id="p-type-tokenTransfers"></path><path d="M67.23368305935124,185.17189814406154A197,197,0,0,1,66.24200750207085,185.5289638899964L57.36726129447271,160.67279586654266A170.6070045455344,170.6070045455344,0,0,0,58.22607751938962,160.36356785974183Z" fill-rule="evenodd" style="fill: #D7A449; stroke: #fff; opacity: 1;" id="p-type-tokenTransfers"></path><path d="M66.24200750207085,185.5289638899964A197,197,0,0,1,65.2484357524199,185.88071882759206L56.50680291879244,160.9774245784071A170.6070045455344,170.6070045455344,0,0,0,57.36726129447271,160.67279586654266Z" fill-rule="evenodd" style="fill: #D7A449; stroke: #fff; opacity: 1;" id="p-type-tokenTransfers"></path><path d="M65.2484357524199,185.88071882759206A197,197,0,0,1,64.25299625161328,186.22715288778426L55.64472702316341,161.27744527526974A170.6070045455344,170.6070045455344,0,0,0,56.50680291879244,160.9774245784071Z" fill-rule="evenodd" style="fill: #D7A449; stroke: #fff; opacity: 1;" id="p-type-tokenTransfers"></path><path d="M64.25299625161328,186.22715288778426A197,197,0,0,1,63.25571749433071,186.56825615382007L54.78105828470213,161.57284936897062A170.6070045455344,170.6070045455344,0,0,0,55.64472702316341,161.27744527526974Z" fill-rule="evenodd" style="fill: #D7A449; stroke: #fff; opacity: 1;" id="p-type-tokenTransfers"></path><path d="M63.25571749433071,186.56825615382007A197,197,0,0,1,62.25662802790102,186.90401886154177L53.91582142612058,161.86362840350105A170.6070045455344,170.6070045455344,0,0,0,54.78105828470213,161.57284936897062Z" fill-rule="evenodd" style="fill: #D7A449; stroke: #fff; opacity: 1;" id="p-type-tokenTransfers"></path><path d="M62.25662802790102,186.90401886154177A197,197,0,0,1,61.25575645148501,187.23443139966633L53.04904121501854,162.1497740552458A170.6070045455344,170.6070045455344,0,0,0,53.91582142612058,161.86362840350105Z" fill-rule="evenodd" style="fill: #D7A449; stroke: #fff; opacity: 1;" id="p-type-tokenTransfers"></path><path d="M61.25575645148501,187.23443139966633A197,197,0,0,1,60.25313141525676,187.5594843100604L52.18074246317458,162.43127813322116A170.6070045455344,170.6070045455344,0,0,0,53.04904121501854,162.1497740552458Z" fill-rule="evenodd" style="fill: #D7A449; stroke: #fff; opacity: 1;" id="p-type-tokenTransfers"></path><path d="M60.25313141525676,187.5594843100604A197,197,0,0,1,59.24878161958355,187.87916828801139L51.31095002583587,162.70813257930956A170.6070045455344,170.6070045455344,0,0,0,52.18074246317458,162.43127813322116Z" fill-rule="evenodd" style="fill: #D7A449; stroke: #fff; opacity: 1;" id="p-type-tokenTransfers"></path><path d="M59.24878161958355,187.87916828801139A197,197,0,0,1,58.24273581420428,188.1934741824934L50.439688801006646,162.98032946849017A170.6070045455344,170.6070045455344,0,0,0,51.31095002583587,162.70813257930956Z" fill-rule="evenodd" style="fill: #D7A449; stroke: #fff; opacity: 1;" id="p-type-tokenTransfers"></path><path d="M58.24273581420428,188.1934741824934A197,197,0,0,1,57.23502279740651,188.50239299642953L49.56698372873552,163.24786100906582A170.6070045455344,170.6070045455344,0,0,0,50.439688801006646,162.98032946849017Z" fill-rule="evenodd" style="fill: #D7A449; stroke: #fff; opacity: 1;" id="p-type-tokenTransfers"></path><path d="M57.23502279740651,188.50239299642953A197,197,0,0,1,56.225671415202086,188.80591588694918L48.692859790401556,163.5107195428859A170.6070045455344,170.6070045455344,0,0,0,49.56698372873552,163.24786100906582Z" fill-rule="evenodd" style="fill: #D7A449; stroke: #fff; opacity: 1;" id="p-type-tokenTransfers"></path><path d="M56.225671415202086,188.80591588694918A197,197,0,0,1,55.21471056050148,189.10403416564134L47.8173420079992,163.76889754556584A170.6070045455344,170.6070045455344,0,0,0,48.692859790401556,163.5107195428859Z" fill-rule="evenodd" style="fill: #D7A449; stroke: #fff; opacity: 1;" id="p-type-tokenTransfers"></path><path d="M55.21471056050148,189.10403416564134A197,197,0,0,1,54.202169172286624,189.3967392988032L46.940455443421975,164.02238762670208A170.6070045455344,170.6070045455344,0,0,0,47.8173420079992,163.76889754556584Z" fill-rule="evenodd" style="fill: #D7A449; stroke: #fff; opacity: 1;" id="p-type-tokenTransfers"></path><path d="M54.202169172286624,189.3967392988032A197,197,0,0,1,53.1880762347826,189.68402290768444L46.06222519774511,164.2711825300841A170.6070045455344,170.6070045455344,0,0,0,46.940455443421975,164.02238762670208Z" fill-rule="evenodd" style="fill: #D7A449; stroke: #fff; opacity: 1;" id="p-type-tokenTransfers"></path><path d="M53.1880762347826,189.68402290768444A197,197,0,0,1,52.172460776627936,189.96587676872713L45.18267641050699,164.5152751339018A170.6070045455344,170.6070045455344,0,0,0,46.06222519774511,164.2711825300841Z" fill-rule="evenodd" style="fill: #D7A449; stroke: #fff; opacity: 1;" id="p-type-tokenTransfers"></path><path d="M52.172460776627936,189.96587676872713A197,197,0,0,1,51.15535187004366,190.24229281380104L44.3018342589896,164.75465845094945A170.6070045455344,170.6070045455344,0,0,0,45.18267641050699,164.5152751339018Z" fill-rule="evenodd" style="fill: #D7A449; stroke: #fff; opacity: 1;" id="p-type-tokenTransfers"></path><path d="M51.15535187004366,190.24229281380104A197,197,0,0,1,50.136778630001096,190.51326313043475L43.41972395749771,164.98932562882575A170.6070045455344,170.6070045455344,0,0,0,44.3018342589896,164.75465845094945Z" fill-rule="evenodd" style="fill: #D7A449; stroke: #fff; opacity: 1;" id="p-type-tokenTransfers"></path><path d="M50.136778630001096,190.51326313043475A197,197,0,0,1,49.116770213388435,190.7787799620419L42.536370756637204,165.2192699501299A170.6070045455344,170.6070045455344,0,0,0,43.41972395749771,164.98932562882575Z" fill-rule="evenodd" style="fill: #D7A449; stroke: #fff; opacity: 1;" id="p-type-tokenTransfers"></path><path d="M49.116770213388435,190.7787799620419A197,197,0,0,1,48.095355818176124,191.03883570814347L41.65179994259223,165.44448483265398A170.6070045455344,170.6070045455344,0,0,0,42.536370756637204,165.2192699501299Z" fill-rule="evenodd" style="fill: #D7A449; stroke: #fff; opacity: 1;" id="p-type-tokenTransfers"></path><path d="M48.095355818176124,191.03883570814347A197,197,0,0,1,47.072564682581074,191.2934229245852L40.76603683640138,165.6649638295713A170.6070045455344,170.6070045455344,0,0,0,41.65179994259223,165.44448483265398Z" fill-rule="evenodd" style="fill: #D7A449; stroke: #fff; opacity: 1;" id="p-type-tokenTransfers"></path><path d="M47.072564682581074,191.2934229245852A197,197,0,0,1,46.04842608422968,191.54253432375074L39.879106793232886,165.88070062962095A170.6070045455344,170.6070045455344,0,0,0,40.76603683640138,165.6649638295713Z" fill-rule="evenodd" style="fill: #D7A449; stroke: #fff; opacity: 1;" id="p-type-tokenTransfers"></path><path d="M46.04842608422968,191.54253432375074A197,197,0,0,1,45.02296933931978,191.78616277477025L38.99103520165881,166.09168905728848A170.6070045455344,170.6070045455344,0,0,0,39.879106793232886,165.88070062962095Z" fill-rule="evenodd" style="fill: #D7A449; stroke: #fff; opacity: 1;" id="p-type-tokenTransfers"></path><path d="M45.02296933931978,191.78616277477025A197,197,0,0,1,43.99622380178144,192.02430130372449L38.10184748292831,166.2979230729827A170.6070045455344,170.6070045455344,0,0,0,38.99103520165881,166.09168905728848Z" fill-rule="evenodd" style="fill: #D7A449; stroke: #fff; opacity: 1;" id="p-type-tokenTransfers"></path><path d="M43.99622380178144,192.02430130372449A197,197,0,0,1,42.96821886243672,192.25694309384443L37.21156909023989,166.49939677320847A170.6070045455344,170.6070045455344,0,0,0,38.10184748292831,166.2979230729827Z" fill-rule="evenodd" style="fill: #D7A449; stroke: #fff; opacity: 1;" id="p-type-tokenTransfers"></path><path d="M42.96821886243672,192.25694309384443A197,197,0,0,1,41.93898394815832,192.48408148570655L36.320225508012896,166.6961043907358A170.6070045455344,170.6070045455344,0,0,0,37.21156909023989,166.49939677320847Z" fill-rule="evenodd" style="fill: #D7A449; stroke: #fff; opacity: 1;" id="p-type-tokenTransfers"></path><path d="M41.93898394815832,192.48408148570655A197,197,0,0,1,40.90854852102727,192.70570997742323L35.42784225115794,166.88804029476486A170.6070045455344,170.6070045455344,0,0,0,36.320225508012896,166.6961043907358Z" fill-rule="evenodd" style="fill: #D7A449; stroke: #fff; opacity: 1;" id="p-type-tokenTransfers"></path><path d="M40.90854852102727,192.70570997742323A197,197,0,0,1,39.87694207748953,192.92182222482904L34.53444486434654,167.07519899108726A170.6070045455344,170.6070045455344,0,0,0,35.42784225115794,166.88804029476486Z" fill-rule="evenodd" style="fill: #D7A449; stroke: #fff; opacity: 1;" id="p-type-tokenTransfers"></path><path d="M39.87694207748953,192.92182222482904A197,197,0,0,1,38.844194147511686,193.1324120416623L33.64005892127994,167.25757512224317A170.6070045455344,170.6070045455344,0,0,0,34.53444486434654,167.07519899108726Z" fill-rule="evenodd" style="fill: #D7A449; stroke: #fff; opacity: 1;" id="p-type-tokenTransfers"></path><path d="M38.844194147511686,193.1324120416623A197,197,0,0,1,37.81033429373563,193.33747339974204L32.744710023957005,167.43516346767476A170.6070045455344,170.6070045455344,0,0,0,33.64005892127994,167.25757512224317Z" fill-rule="evenodd" style="fill: #D7A449; stroke: #fff; opacity: 1;" id="p-type-tokenTransfers"></path><path d="M37.81033429373563,193.33747339974204A197,197,0,0,1,36.775392110632296,193.5370004291408L31.848423801941394,167.60795894387573A170.6070045455344,170.6070045455344,0,0,0,32.744710023957005,167.43516346767476Z" fill-rule="evenodd" style="fill: #D7A449; stroke: #fff; opacity: 1;" id="p-type-tokenTransfers"></path><path d="M36.775392110632296,193.5370004291408A197,197,0,0,1,35.739397223654585,193.73098741835244L30.951225911627905,167.77595660453667A170.6070045455344,170.6070045455344,0,0,0,31.848423801941394,167.60795894387573Z" fill-rule="evenodd" style="fill: #D7A449; stroke: #fff; opacity: 1;" id="p-type-tokenTransfers"></path><path d="M35.739397223654585,193.73098741835244A197,197,0,0,1,34.70237928838924,193.91942881445576L30.053142035508028,167.93915164068673A170.6070045455344,170.6070045455344,0,0,0,30.951225911627905,167.77595660453667Z" fill-rule="evenodd" style="fill: #D7A449; stroke: #fff; opacity: 1;" id="p-type-tokenTransfers"></path><path d="M34.70237928838924,193.91942881445576A197,197,0,0,1,33.66436798970801,194.10231922327338L29.154197881434808,168.09753938083134A170.6070045455344,170.6070045455344,0,0,0,30.053142035508028,167.93915164068673Z" fill-rule="evenodd" style="fill: #D7A449; stroke: #fff; opacity: 1;" id="p-type-tokenTransfers"></path><path d="M33.66436798970801,194.10231922327338A197,197,0,0,1,32.62539304091789,194.27965340952622L28.254419181886934,168.2511152910857A170.6070045455344,170.6070045455344,0,0,0,29.154197881434808,168.09753938083134Z" fill-rule="evenodd" style="fill: #D7A449; stroke: #fff; opacity: 1;" id="p-type-tokenTransfers"></path><path d="M32.62539304091789,194.27965340952622A197,197,0,0,1,31.585484182910598,194.45142629698321L27.35383169323215,168.3998749753049A170.6070045455344,170.6070045455344,0,0,0,28.254419181886934,168.2511152910857Z" fill-rule="evenodd" style="fill: #D7A449; stroke: #fff; opacity: 1;" id="p-type-tokenTransfers"></path><path d="M31.585484182910598,194.45142629698321A197,197,0,0,1,30.544671183311173,194.61763296860693L26.452461194989965,168.5438141752095A170.6070045455344,170.6070045455344,0,0,0,27.35383169323215,168.3998749753049Z" fill-rule="evenodd" style="fill: #D7A449; stroke: #fff; opacity: 1;" id="p-type-tokenTransfers"></path><path d="M30.544671183311173,194.61763296860693A197,197,0,0,1,29.502983835625944,194.77826866669392L25.550333489093724,168.68292877050746A170.6070045455344,170.6070045455344,0,0,0,26.452461194989965,168.5438141752095Z" fill-rule="evenodd" style="fill: #D7A449; stroke: #fff; opacity: 1;" id="p-type-tokenTransfers"></path><path d="M29.502983835625944,194.77826866669392A197,197,0,0,1,28.460451958389648,194.93332879301116L24.64747439915201,168.81721477901223A170.6070045455344,170.6070045455344,0,0,0,25.550333489093724,168.68292877050746Z" fill-rule="evenodd" style="fill: #D7A449; stroke: #fff; opacity: 1;" id="p-type-tokenTransfers"></path><path d="M28.460451958389648,194.93332879301116A197,197,0,0,1,27.417105394311843,195.0828089089277L23.743909769709425,168.9466683567566A170.6070045455344,170.6070045455344,0,0,0,24.64747439915201,168.81721477901223Z" fill-rule="evenodd" style="fill: #D7A449; stroke: #fff; opacity: 1;" id="p-type-tokenTransfers"></path><path d="M-53.092444871380714,189.71081228432766A197,197,0,0,1,-65.98714332590124,185.6197643455216L-57.14654244339524,160.75143136770268A170.6070045455344,170.6070045455344,0,0,0,-45.97940600764053,164.29438281080868Z" fill-rule="evenodd" style="fill: #414552; stroke: #fff; opacity: 1;" id="p-type-ether"></path><path d="M-65.98714332590124,185.6197643455216A197,197,0,0,1,-70.92851221119662,183.78831887665257L-61.425893427531044,159.1653530660162A170.6070045455344,170.6070045455344,0,0,0,-57.14654244339524,160.75143136770268Z" fill-rule="evenodd" style="fill: #414552; stroke: #fff; opacity: 1;" id="p-type-ether"></path><path d="M-70.92851221119662,183.78831887665257A197,197,0,0,1,-73.89948464654653,182.6139813074969L-63.99883103048738,158.14834689850895A170.6070045455344,170.6070045455344,0,0,0,-61.425893427531044,159.1653530660162Z" fill-rule="evenodd" style="fill: #414552; stroke: #fff; opacity: 1;" id="p-type-ether"></path><path d="M-73.89948464654653,182.6139813074969A197,197,0,0,1,-75.65468899797008,181.89383725849652L-65.51888258765317,157.52468385769043A170.6070045455344,170.6070045455344,0,0,0,-63.99883103048738,158.14834689850895Z" fill-rule="evenodd" style="fill: #414552; stroke: #fff; opacity: 1;" id="p-type-ether"></path><path d="M-75.65468899797008,181.89383725849652A197,197,0,0,1,-77.00575785695031,181.32598615994547L-66.6889425417921,157.0329103807783A170.6070045455344,170.6070045455344,0,0,0,-65.51888258765317,157.52468385769043Z" fill-rule="evenodd" style="fill: #414552; stroke: #fff; opacity: 1;" id="p-type-ether"></path><path d="M-77.00575785695031,181.32598615994547A197,197,0,0,1,-78.18961632798009,180.81864919991872L-67.71419405218928,156.59354368511637A170.6070045455344,170.6070045455344,0,0,0,-66.6889425417921,157.0329103807783Z" fill-rule="evenodd" style="fill: #414552; stroke: #fff; opacity: 1;" id="p-type-ether"></path><path d="M-78.18961632798009,180.81864919991872A197,197,0,0,1,-79.15633143301207,180.397547638728L-68.55139389136913,156.22885903555192A170.6070045455344,170.6070045455344,0,0,0,-67.71419405218928,156.59354368511637Z" fill-rule="evenodd" style="fill: #414552; stroke: #fff; opacity: 1;" id="p-type-ether"></path></g></svg>