<svg xmlns="http://www.w3.org/2000/svg" width="400" height="400" id="block-7824911"><g id="burst-container" transform="translate(200,200)"><circle r="197" style="fill: #f9f9f9; stroke: #f9f9f9; stroke-width: 3; opacity: 1;" id="circle-base"></circle><path display="none" d="M6.031385485800715e-15,-98.5A98.5,98.5,0,1,1,-6.031385485800715e-15,98.5A98.5,98.5,0,1,1,6.031385485800715e-15,-98.5Z" fill-rule="evenodd" id="p-type-root" style="stroke: #fff; opacity: 1;"></path><path d="M8.529667153919608e-15,-139.30003589374985A139.30003589374985,139.30003589374985,0,1,1,-102.81070587221028,-93.99180154703848L-72.69814730081549,-66.46224024985113A98.5,98.5,0,1,0,6.031385485800715e-15,-98.5Z" fill-rule="evenodd" style="fill: #0B1F65; stroke: #fff; opacity: 1;" id="p-type-data"></path><path d="M-102.81070587221028,-93.99180154703848A139.30003589374985,139.30003589374985,0,0,1,-0.823084065155949,-139.29760418837677L-0.5820083239583618,-98.49828052464085A98.5,98.5,0,0,0,-72.69814730081549,-66.46224024985113Z" fill-rule="evenodd" style="fill: #D7A449; stroke: #fff; opacity: 1;" id="p-type-value"></path><path d="M1.0446666101440332e-14,-170.6070045455344A170.6070045455344,170.6070045455344,0,0,1,156.77704799889062,67.28823983991217L128.00792365903618,54.940617765933084A139.30003589374985,139.30003589374985,0,0,0,8.529667153919608e-15,-139.30003589374985Z" fill-rule="evenodd" style="fill: #DB3F29; stroke: #fff; opacity: 1;" id="p-type-functions"></path><path d="M156.77704799889062,67.28823983991217A170.6070045455344,170.6070045455344,0,0,1,-116.11116697179564,124.99978761761075L-94.80437083999945,102.06189920647107A139.30003589374985,139.30003589374985,0,0,0,128.00792365903618,54.940617765933084Z" fill-rule="evenodd" style="fill: #414552; stroke: #fff; opacity: 1;" id="p-type-ether"></path><path d="M-116.11116697179564,124.99978761761075A170.6070045455344,170.6070045455344,0,0,1,-166.51151375015425,37.157311375181486L-135.95608166210096,30.33881769430258A139.30003589374985,139.30003589374985,0,0,0,-94.80437083999945,102.06189920647107Z" fill-rule="evenodd" style="fill: #1DC690; stroke: #fff; opacity: 1;" id="p-type-logs"></path><path d="M-166.51151375015425,37.157311375181486A170.6070045455344,170.6070045455344,0,0,1,-169.83008293124416,16.26323865552997L-138.66568205203302,13.278878757051848A139.30003589374985,139.30003589374985,0,0,0,-135.95608166210096,30.33881769430258Z" fill-rule="evenodd" style="fill: #D7A449; stroke: #fff; opacity: 1;" id="p-type-tokenTransfers"></path><path d="M-125.91688474113867,-115.11597689759141A170.6070045455344,170.6070045455344,0,0,1,-12.589469523629791,-170.14186803110394L-10.279258821737532,-138.92025352005274A139.30003589374985,139.30003589374985,0,0,0,-102.81070587221028,-93.99180154703848Z" fill-rule="evenodd" style="fill: #414552; stroke: #fff; opacity: 1;" id="p-type-ether"></path><path d="M-12.589469523629791,-170.14186803110394A170.6070045455344,170.6070045455344,0,0,1,-2.0161007801631805,-170.59509177477594L-1.646139393808958,-139.29030915715617A139.30003589374985,139.30003589374985,0,0,0,-10.279258821737532,-138.92025352005274Z" fill-rule="evenodd" style="fill: #D7A449; stroke: #fff; opacity: 1;" id="p-type-tokenTransfers"></path><path d="M1.206277097160143e-14,-197A197,197,0,0,1,152.62115486186585,-124.56236626136467L132.17379726529472,-107.87417353784348A170.6070045455344,170.6070045455344,0,0,0,1.0446666101440332e-14,-170.6070045455344Z" fill-rule="evenodd" style="fill: #DB3F29; stroke: #fff; opacity: 1;" id="p-type-functions"></path><path d="M152.62115486186585,-124.56236626136467A197,197,0,0,1,170.95960176291453,-97.88674356145307L148.05535814755487,-84.7724066179512A170.6070045455344,170.6070045455344,0,0,0,132.17379726529472,-107.87417353784348Z" fill-rule="evenodd" style="fill: #DB3F29; stroke: #fff; opacity: 1;" id="p-type-functions"></path><path d="M170.95960176291453,-97.88674356145307A197,197,0,0,1,171.60281061433088,-96.75471765894461L148.61239335282045,-83.79204342863686A170.6070045455344,170.6070045455344,0,0,0,148.05535814755487,-84.7724066179512Z" fill-rule="evenodd" style="fill: #DB3F29; stroke: #fff; opacity: 1;" id="p-type-functions"></path><path d="M181.03054172982877,77.69776676973879A197,197,0,0,1,54.27040481654191,189.37719810222313L46.99954924479066,164.00546445404342A170.6070045455344,170.6070045455344,0,0,0,156.77704799889062,67.28823983991217Z" fill-rule="evenodd" style="fill: #414552; stroke: #fff; opacity: 1;" id="p-type-ether"></path><path d="M54.27040481654191,189.37719810222313A197,197,0,0,1,22.52442106739251,195.7080745794072L19.506720849899313,169.48816431150615A170.6070045455344,170.6070045455344,0,0,0,46.99954924479066,164.00546445404342Z" fill-rule="evenodd" style="fill: #414552; stroke: #fff; opacity: 1;" id="p-type-ether"></path><path d="M22.52442106739251,195.7080745794072A197,197,0,0,1,8.309285091584002,196.82468285575052L7.196051976599051,170.45517544489542A170.6070045455344,170.6070045455344,0,0,0,19.506720849899313,169.48816431150615Z" fill-rule="evenodd" style="fill: #414552; stroke: #fff; opacity: 1;" id="p-type-ether"></path><path d="M8.309285091584002,196.82468285575052A197,197,0,0,1,7.008270843005422,196.87530098971553L6.069340586644478,170.49901203480127A170.6070045455344,170.6070045455344,0,0,0,7.196051976599051,170.45517544489542Z" fill-rule="evenodd" style="fill: #414552; stroke: #fff; opacity: 1;" id="p-type-ether"></path></g></svg>