<svg xmlns="http://www.w3.org/2000/svg" width="400" height="400"><g id="container" transform="translate(200,200)"><circle r="200" style="fill: #f9f9f9; stroke: #f9f9f9; opacity: 1;"></circle><path display="none" d="M7.070501591499379e-15,-115.47005383792515A115.47005383792515,115.47005383792515,0,1,1,-7.070501591499379e-15,115.47005383792515A115.47005383792515,115.47005383792515,0,1,1,7.070501591499379e-15,-115.47005383792515Z" fill-rule="evenodd" style="stroke: #fff; opacity: 1;"></path><path d="M9.999199243478977e-15,-163.29931618554522A163.29931618554522,163.29931618554522,0,1,1,-6.451401532423539,-163.17182993683105L-4.561829771733969,-115.37990744695132A115.47005383792515,115.47005383792515,0,1,0,7.070501591499379e-15,-115.47005383792515Z" fill-rule="evenodd" style="fill: #6c7074; stroke: #fff; opacity: 1;"></path><path d="M1.2246467991473532e-14,-200A200,200,0,0,1,194.85918678127956,-45.05438188387898L159.10185976927193,-36.78674876399927A163.29931618554522,163.29931618554522,0,0,0,9.999199243478977e-15,-163.29931618554522Z" fill-rule="evenodd" style="fill: #f44336; stroke: #fff; opacity: 1;"></path><path d="M194.85918678127956,-45.05438188387898A200,200,0,0,1,127.5456845663898,154.05225849850757L104.1406153605435,125.78314234822567A163.29931618554522,163.29931618554522,0,0,0,159.10185976927193,-36.78674876399927Z" fill-rule="evenodd" style="fill: #6bbc80; stroke: #fff; opacity: 1;"></path><path d="M127.5456845663898,154.05225849850757A200,200,0,0,1,-65.92258405380161,188.8232319172338L-53.825564485849654,154.1735232601445A163.29931618554522,163.29931618554522,0,0,0,104.1406153605435,125.78314234822567Z" fill-rule="evenodd" style="fill: b3daef; stroke: #fff; opacity: 1;"></path><path d="M-65.92258405380161,188.8232319172338A200,200,0,0,1,-169.11920070036527,106.76467559295801L-138.08524914107815,87.17299258550807A163.29931618554522,163.29931618554522,0,0,0,-53.825564485849654,154.1735232601445Z" fill-rule="evenodd" style="fill: #B3DAEF; stroke: #fff; opacity: 1;"></path></g></svg>