<svg xmlns="http://www.w3.org/2000/svg" width="400" height="400"><g id="container" transform="translate(200,200)"><circle r="200" style="fill: #f9f9f9; stroke: #f9f9f9; opacity: 1;"></circle><path display="none" d="M7.070501591499379e-15,-115.47005383792515A115.47005383792515,115.47005383792515,0,1,1,-7.070501591499379e-15,115.47005383792515A115.47005383792515,115.47005383792515,0,1,1,7.070501591499379e-15,-115.47005383792515Z" fill-rule="evenodd" style="stroke: #fff; opacity: 1;"></path><path d="M9.999199243478977e-15,-163.29931618554522A163.29931618554522,163.29931618554522,0,1,1,-1.6469060518967462,-163.29101128697468L-1.1645384372733534,-115.46418138782886A115.47005383792515,115.47005383792515,0,1,0,7.070501591499379e-15,-115.47005383792515Z" fill-rule="evenodd" style="fill: #6c7074; stroke: #fff; opacity: 1;"></path><path d="M1.2246467991473532e-14,-200A200,200,0,0,1,199.9688506873997,-3.5296961286257282L163.27388287830885,-2.8819848207367387A163.29931618554522,163.29931618554522,0,0,0,9.999199243478977e-15,-163.29931618554522Z" fill-rule="evenodd" style="fill: #f44336; stroke: #fff; opacity: 1;"></path><path d="M199.9688506873997,-3.5296961286257282A200,200,0,0,1,79.43883392063319,183.54691952013266L64.86153628908247,149.86543222800483A163.29931618554522,163.29931618554522,0,0,0,163.27388287830885,-2.8819848207367387Z" fill-rule="evenodd" style="fill: #6bbc80; stroke: #fff; opacity: 1;"></path><path d="M79.43883392063319,183.54691952013266A200,200,0,0,1,-116.24776064034148,162.74660717233363L-94.9158991033435,132.88204831379815A163.29931618554522,163.29931618554522,0,0,0,64.86153628908247,149.86543222800483Z" fill-rule="evenodd" style="fill: #B3DAEF; stroke: #fff; opacity: 1;"></path><path d="M-116.24776064034148,162.74660717233363A200,200,0,0,1,-191.3605992452718,58.14740799460007L-156.24527500804524,47.47715981740049A163.29931618554522,163.29931618554522,0,0,0,-94.9158991033435,132.88204831379815Z" fill-rule="evenodd" style="fill: b3daef; stroke: #fff; opacity: 1;"></path></g></svg>