<svg xmlns="http://www.w3.org/2000/svg" width="400" height="400"><g id="container" transform="translate(200,200)"><circle r="200" style="fill: #f9f9f9; stroke: #f9f9f9; opacity: 1;"></circle><path display="none" d="M7.070501591499379e-15,-115.47005383792515A115.47005383792515,115.47005383792515,0,1,1,-7.070501591499379e-15,115.47005383792515A115.47005383792515,115.47005383792515,0,1,1,7.070501591499379e-15,-115.47005383792515Z" fill-rule="evenodd" style="stroke: #fff; opacity: 1;"></path><path d="M9.999199243478977e-15,-163.29931618554522A163.29931618554522,163.29931618554522,0,1,1,-1.6363998270382631,-163.29111691170692L-1.1571094144312493,-115.46425607579329A115.47005383792515,115.47005383792515,0,1,0,7.070501591499379e-15,-115.47005383792515Z" fill-rule="evenodd" style="fill: #6c7074; stroke: #fff; opacity: 1;"></path><path d="M1.2246467991473532e-14,-200A200,200,0,0,1,199.9843094198243,2.505191784269882L163.286504880479,2.045480526424588A163.29931618554522,163.29931618554522,0,0,0,9.999199243478977e-15,-163.29931618554522Z" fill-rule="evenodd" style="fill: #f44336; stroke: #fff; opacity: 1;"></path><path d="M199.9843094198243,2.505191784269882A200,200,0,0,1,62.08924589933781,190.1181883556951L50.69565698919016,155.2308507645985A163.29931618554522,163.29931618554522,0,0,0,163.286504880479,2.045480526424588Z" fill-rule="evenodd" style="fill: #6bbc80; stroke: #fff; opacity: 1;"></path><path d="M62.08924589933781,190.1181883556951A200,200,0,0,1,-155.01845022944218,126.36961695147278L-126.57203459305443,103.18036017402395A163.29931618554522,163.29931618554522,0,0,0,50.69565698919016,155.2308507645985Z" fill-rule="evenodd" style="fill: #B3DAEF; stroke: #fff; opacity: 1;"></path><path d="M-155.01845022944218,126.36961695147278A200,200,0,0,1,-197.0192803146994,34.40062767273166L-160.8655687537933,28.087994876553118A163.29931618554522,163.29931618554522,0,0,0,-126.57203459305443,103.18036017402395Z" fill-rule="evenodd" style="fill: b3daef; stroke: #fff; opacity: 1;"></path></g></svg>