<svg xmlns="http://www.w3.org/2000/svg" width="400" height="400"><g id="container" transform="translate(200,200)"><circle r="200" style="fill: #f9f9f9; stroke: #f9f9f9; opacity: 1;"></circle><path display="none" d="M7.070501591499379e-15,-115.47005383792515A115.47005383792515,115.47005383792515,0,1,1,-7.070501591499379e-15,115.47005383792515A115.47005383792515,115.47005383792515,0,1,1,7.070501591499379e-15,-115.47005383792515Z" fill-rule="evenodd" style="stroke: #fff; opacity: 1;"></path><path d="M9.999199243478977e-15,-163.29931618554522A163.29931618554522,163.29931618554522,0,1,1,-2.644317062393939,-163.2779049778022L-1.8698145264260448,-115.45491382773668A115.47005383792515,115.47005383792515,0,1,0,7.070501591499379e-15,-115.47005383792515Z" fill-rule="evenodd" style="fill: #6c7074; stroke: #fff; opacity: 1;"></path><path d="M1.2246467991473532e-14,-200A200,200,0,0,1,199.76403185591815,-9.712444422889604L163.10664900269452,-7.930177663739923A163.29931618554522,163.29931618554522,0,0,0,9.999199243478977e-15,-163.29931618554522Z" fill-rule="evenodd" style="fill: #f44336; stroke: #fff; opacity: 1;"></path><path d="M199.76403185591815,-9.712444422889604A200,200,0,0,1,120.67890683658489,159.48856211254417L98.53391482216715,130.2218656619716A163.29931618554522,163.29931618554522,0,0,0,163.10664900269452,-7.930177663739923Z" fill-rule="evenodd" style="fill: #6bbc80; stroke: #fff; opacity: 1;"></path><path d="M120.67890683658489,159.48856211254417A200,200,0,0,1,-63.64859612548878,189.6018359912541L-51.9688611173113,154.80925082447845A163.29931618554522,163.29931618554522,0,0,0,98.53391482216715,130.2218656619716Z" fill-rule="evenodd" style="fill: b3daef; stroke: #fff; opacity: 1;"></path><path d="M-63.64859612548878,189.6018359912541A200,200,0,0,1,-179.79034821707904,87.6095353713365L-146.79820460305035,71.53288608736294A163.29931618554522,163.29931618554522,0,0,0,-51.9688611173113,154.80925082447845Z" fill-rule="evenodd" style="fill: #B3DAEF; stroke: #fff; opacity: 1;"></path></g></svg>