<svg xmlns="http://www.w3.org/2000/svg" width="400" height="400"><g id="container" transform="translate(200,200)"><circle r="200" style="fill: #f9f9f9; stroke: #f9f9f9; opacity: 1;"></circle><path display="none" d="M7.070501591499379e-15,-115.47005383792515A115.47005383792515,115.47005383792515,0,1,1,-7.070501591499379e-15,115.47005383792515A115.47005383792515,115.47005383792515,0,1,1,7.070501591499379e-15,-115.47005383792515Z" fill-rule="evenodd" style="stroke: #fff; opacity: 1;"></path><path d="M9.999199243478977e-15,-163.29931618554522A163.29931618554522,163.29931618554522,0,1,1,-1.3239079020498155,-163.29394947313133L-0.93614425520588,-115.4662589991846A115.47005383792515,115.47005383792515,0,1,0,7.070501591499379e-15,-115.47005383792515Z" fill-rule="evenodd" style="fill: #6c7074; stroke: #fff; opacity: 1;"></path><path d="M1.2246467991473532e-14,-200A200,200,0,0,1,199.8517175071922,-7.700065546828245L163.17824403715622,-6.287077191904644A163.29931618554522,163.29931618554522,0,0,0,9.999199243478977e-15,-163.29931618554522Z" fill-rule="evenodd" style="fill: #f44336; stroke: #fff; opacity: 1;"></path><path d="M199.8517175071922,-7.700065546828245A200,200,0,0,1,50.52282953166286,193.51341993803567L41.25171757139707,158.00304574303738A163.29931618554522,163.29931618554522,0,0,0,163.17824403715622,-6.287077191904644Z" fill-rule="evenodd" style="fill: #6bbc80; stroke: #fff; opacity: 1;"></path><path d="M50.52282953166286,193.51341993803567A200,200,0,0,1,-170.1563047051641,105.10391034154414L-138.93204101506285,85.81698343600506A163.29931618554522,163.29931618554522,0,0,0,41.25171757139707,158.00304574303738Z" fill-rule="evenodd" style="fill: #B3DAEF; stroke: #fff; opacity: 1;"></path><path d="M-170.1563047051641,105.10391034154414A200,200,0,0,1,-197.56927334541822,31.086688948220527L-161.3146361829093,25.382175238585788A163.29931618554522,163.29931618554522,0,0,0,-138.93204101506285,85.81698343600506Z" fill-rule="evenodd" style="fill: b3daef; stroke: #fff; opacity: 1;"></path></g></svg>