<svg xmlns="http://www.w3.org/2000/svg" width="400" height="400" id="block-7901155"><g id="burst-container" transform="translate(200,200)"><circle r="197" style="fill: #f9f9f9; stroke: #f9f9f9; stroke-width: 3; opacity: 1;" id="circle-base"></circle><path display="none" d="M6.031385485800715e-15,-98.5A98.5,98.5,0,1,1,-6.031385485800715e-15,98.5A98.5,98.5,0,1,1,6.031385485800715e-15,-98.5Z" fill-rule="evenodd" id="p-type-root" style="stroke: #fff; opacity: 1;"></path><path d="M8.529667153919608e-15,-139.30003589374985A139.30003589374985,139.30003589374985,0,1,1,-79.68828578630215,-114.25531544939443L-56.34812726062582,-80.79070834087491A98.5,98.5,0,1,0,6.031385485800715e-15,-98.5Z" fill-rule="evenodd" style="fill: #0B1F65; stroke: #fff; opacity: 1;" id="p-type-data"></path><path d="M-79.68828578630215,-114.25531544939443A139.30003589374985,139.30003589374985,0,0,1,-0.8317226561870563,-139.2975528766503L-0.5881167302563549,-98.4982442417711A98.5,98.5,0,0,0,-56.34812726062582,-80.79070834087491Z" fill-rule="evenodd" style="fill: #D7A449; stroke: #fff; opacity: 1;" id="p-type-value"></path><path d="M1.0446666101440332e-14,-170.6070045455344A170.6070045455344,170.6070045455344,0,0,1,165.04543739569533,43.20594397607365L134.75903533130628,35.27750553221902A139.30003589374985,139.30003589374985,0,0,0,8.529667153919608e-15,-139.30003589374985Z" fill-rule="evenodd" style="fill: #414552; stroke: #fff; opacity: 1;" id="p-type-ether"></path><path d="M165.04543739569533,43.20594397607365A170.6070045455344,170.6070045455344,0,0,1,-1.1842948273067542,170.60289401344284L-0.9669726773063564,139.29667965835128A139.30003589374985,139.30003589374985,0,0,0,134.75903533130628,35.27750553221902Z" fill-rule="evenodd" style="fill: #DB3F29; stroke: #fff; opacity: 1;" id="p-type-functions"></path><path d="M-1.1842948273067542,170.60289401344284A170.6070045455344,170.6070045455344,0,0,1,-142.2701454415388,94.15920409627196L-116.16308732110672,76.88066820748199A139.30003589374985,139.30003589374985,0,0,0,-0.9669726773063564,139.29667965835128Z" fill-rule="evenodd" style="fill: #1DC690; stroke: #fff; opacity: 1;" id="p-type-logs"></path><path d="M-142.2701454415388,94.15920409627196A170.6070045455344,170.6070045455344,0,0,1,-161.46340628967286,-55.102798743222L-131.83431918046216,-44.99124677338936A139.30003589374985,139.30003589374985,0,0,0,-116.16308732110672,76.88066820748199Z" fill-rule="evenodd" style="fill: #D7A449; stroke: #fff; opacity: 1;" id="p-type-tokenTransfers"></path><path d="M-97.59781932676081,-139.93361162587402A170.6070045455344,170.6070045455344,0,0,1,-25.8754371871959,-168.63336487887406L-21.127205993355584,-137.68856585393834A139.30003589374985,139.30003589374985,0,0,0,-79.68828578630215,-114.25531544939443Z" fill-rule="evenodd" style="fill: #D7A449; stroke: #fff; opacity: 1;" id="p-type-tokenTransfers"></path><path d="M-25.8754371871959,-168.63336487887406A170.6070045455344,170.6070045455344,0,0,1,-2.03725980045563,-170.59484040411493L-1.6634156615335234,-139.29010391387092A139.30003589374985,139.30003589374985,0,0,0,-21.127205993355584,-137.68856585393834Z" fill-rule="evenodd" style="fill: #414552; stroke: #fff; opacity: 1;" id="p-type-ether"></path><path d="M1.206277097160143e-14,-197A197,197,0,0,1,188.62648918526122,-56.824709217404106L163.3553314611069,-49.211641744935704A170.6070045455344,170.6070045455344,0,0,0,1.0446666101440332e-14,-170.6070045455344Z" fill-rule="evenodd" style="fill: #414552; stroke: #fff; opacity: 1;" id="p-type-ether"></path><path d="M188.62648918526122,-56.824709217404106A197,197,0,0,1,191.3503471894874,-46.84063012452579L165.71426168906834,-40.565175617109986A170.6070045455344,170.6070045455344,0,0,0,163.3553314611069,-49.211641744935704Z" fill-rule="evenodd" style="fill: #414552; stroke: #fff; opacity: 1;" id="p-type-ether"></path><path d="M191.3503471894874,-46.84063012452579A197,197,0,0,1,193.42248347181524,-37.37302352761092L167.5087843496677,-32.36598779114457A170.6070045455344,170.6070045455344,0,0,0,165.71426168906834,-40.565175617109986Z" fill-rule="evenodd" style="fill: #414552; stroke: #fff; opacity: 1;" id="p-type-ether"></path><path d="M193.42248347181524,-37.37302352761092A197,197,0,0,1,194.90161141455104,-28.67685247741364L168.7897467235243,-24.834882746018923A170.6070045455344,170.6070045455344,0,0,0,167.5087843496677,-32.36598779114457Z" fill-rule="evenodd" style="fill: #414552; stroke: #fff; opacity: 1;" id="p-type-ether"></path><path d="M194.90161141455104,-28.67685247741364A197,197,0,0,1,195.8675163823937,-21.093032645704145L169.62624496331765,-18.267102114034277A170.6070045455344,170.6070045455344,0,0,0,168.7897467235243,-24.834882746018923Z" fill-rule="evenodd" style="fill: #414552; stroke: #fff; opacity: 1;" id="p-type-ether"></path><path d="M195.8675163823937,-21.093032645704145A197,197,0,0,1,196.5383598451542,-13.478616745670806L170.20721244403097,-11.672824509625256A170.6070045455344,170.6070045455344,0,0,0,169.62624496331765,-18.267102114034277Z" fill-rule="evenodd" style="fill: #414552; stroke: #fff; opacity: 1;" id="p-type-ether"></path><path d="M196.5383598451542,-13.478616745670806A197,197,0,0,1,196.78600148601015,-9.179848536223966L170.42167639604708,-7.949982035263348A170.6070045455344,170.6070045455344,0,0,0,170.20721244403097,-11.672824509625256Z" fill-rule="evenodd" style="fill: #414552; stroke: #fff; opacity: 1;" id="p-type-ether"></path><path d="M196.78600148601015,-9.179848536223966A197,197,0,0,1,196.92357415236808,-5.486888285430444L170.5408178199794,-4.751784642910006A170.6070045455344,170.6070045455344,0,0,0,170.42167639604708,-7.949982035263348Z" fill-rule="evenodd" style="fill: #414552; stroke: #fff; opacity: 1;" id="p-type-ether"></path><path d="M196.92357415236808,-5.486888285430444A197,197,0,0,1,196.98742046690043,-2.226247469751753L170.59611035030244,-1.9279868639158466A170.6070045455344,170.6070045455344,0,0,0,170.5408178199794,-4.751784642910006Z" fill-rule="evenodd" style="fill: #414552; stroke: #fff; opacity: 1;" id="p-type-ether"></path><path d="M196.98742046690043,-2.226247469751753A197,197,0,0,1,196.99786616957957,0.9169103731624864L170.60515659418294,0.7940676761521825A170.6070045455344,170.6070045455344,0,0,0,170.59611035030244,-1.9279868639158466Z" fill-rule="evenodd" style="fill: #414552; stroke: #fff; opacity: 1;" id="p-type-ether"></path><path d="M196.99786616957957,0.9169103731624864A197,197,0,0,1,196.95852040139724,4.042430122140811L170.57108215940565,3.5008471787973736A170.6070045455344,170.6070045455344,0,0,0,170.60515659418294,0.7940676761521825Z" fill-rule="evenodd" style="fill: #414552; stroke: #fff; opacity: 1;" id="p-type-ether"></path><path d="M196.95852040139724,4.042430122140811A197,197,0,0,1,196.88560593382846,6.712538720127107L170.50793637818765,5.813229055516756A170.6070045455344,170.6070045455344,0,0,0,170.57108215940565,3.5008471787973736Z" fill-rule="evenodd" style="fill: #414552; stroke: #fff; opacity: 1;" id="p-type-ether"></path><path d="M196.88560593382846,6.712538720127107A197,197,0,0,1,196.81001515239424,8.649736164435717L170.4424728411737,7.4908912544343025A170.6070045455344,170.6070045455344,0,0,0,170.50793637818765,5.813229055516756Z" fill-rule="evenodd" style="fill: #414552; stroke: #fff; opacity: 1;" id="p-type-ether"></path><path d="M196.81001515239424,8.649736164435717A197,197,0,0,1,196.72469666502425,10.411230573481363L170.36858486369883,9.01639016129209A170.6070045455344,170.6070045455344,0,0,0,170.4424728411737,7.4908912544343025Z" fill-rule="evenodd" style="fill: #414552; stroke: #fff; opacity: 1;" id="p-type-ether"></path><path d="M196.72469666502425,10.411230573481363A197,197,0,0,1,196.62392776630307,12.166800308693999L170.2813164374949,10.536758150101353A170.6070045455344,170.6070045455344,0,0,0,170.36858486369883,9.01639016129209Z" fill-rule="evenodd" style="fill: #414552; stroke: #fff; opacity: 1;" id="p-type-ether"></path><path d="M196.62392776630307,12.166800308693999A197,197,0,0,1,196.5090197329095,13.899826028083206L170.18180316147718,12.037602448504208A170.6070045455344,170.6070045455344,0,0,0,170.2813164374949,10.536758150101353Z" fill-rule="evenodd" style="fill: #414552; stroke: #fff; opacity: 1;" id="p-type-ether"></path><path d="M196.5090197329095,13.899826028083206A197,197,0,0,1,196.42017737559505,15.10344065899504L170.10486342311074,13.079963295240487A170.6070045455344,170.6070045455344,0,0,0,170.18180316147718,12.037602448504208Z" fill-rule="evenodd" style="fill: #414552; stroke: #fff; opacity: 1;" id="p-type-ether"></path><path d="M196.42017737559505,15.10344065899504A197,197,0,0,1,196.32537962438073,16.289423419593323L170.02276616233752,14.107054494368999A170.6070045455344,170.6070045455344,0,0,0,170.10486342311074,13.079963295240487Z" fill-rule="evenodd" style="fill: #414552; stroke: #fff; opacity: 1;" id="p-type-ether"></path><path d="M190.57805541784845,49.88992677035603A197,197,0,0,1,187.89375958025124,59.20249243738591L162.72076900906333,51.2708624181323A170.6070045455344,170.6070045455344,0,0,0,165.04543739569533,43.20594397607365Z" fill-rule="evenodd" style="fill: #DB3F29; stroke: #fff; opacity: 1;" id="p-type-functions"></path><path d="M187.89375958025124,59.20249243738591A197,197,0,0,1,185.05515337890927,67.55435002950121L160.26246392736113,58.50378326169409A170.6070045455344,170.6070045455344,0,0,0,162.72076900906333,51.2708624181323Z" fill-rule="evenodd" style="fill: #DB3F29; stroke: #fff; opacity: 1;" id="p-type-functions"></path><path d="M185.05515337890927,67.55435002950121A197,197,0,0,1,182.294680817231,74.68366183941349L157.87182456249786,64.67794840057854A170.6070045455344,170.6070045455344,0,0,0,160.26246392736113,58.50378326169409Z" fill-rule="evenodd" style="fill: #DB3F29; stroke: #fff; opacity: 1;" id="p-type-functions"></path><path d="M182.294680817231,74.68366183941349A197,197,0,0,1,180.6188473450852,78.65006029071316L156.42051020310728,68.1129502209353A170.6070045455344,170.6070045455344,0,0,0,157.87182456249786,64.67794840057854Z" fill-rule="evenodd" style="fill: #DB3F29; stroke: #fff; opacity: 1;" id="p-type-functions"></path><path d="M180.6188473450852,78.65006029071316A197,197,0,0,1,179.29211793684462,81.62926219022563L155.27152883162304,70.69301474891596A170.6070045455344,170.6070045455344,0,0,0,156.42051020310728,68.1129502209353Z" fill-rule="evenodd" style="fill: #DB3F29; stroke: #fff; opacity: 1;" id="p-type-functions"></path><path d="M179.29211793684462,81.62926219022563A197,197,0,0,1,177.9669267799769,84.47942336741143L154.1238796249051,73.16132673323902A170.6070045455344,170.6070045455344,0,0,0,155.27152883162304,70.69301474891596Z" fill-rule="evenodd" style="fill: #DB3F29; stroke: #fff; opacity: 1;" id="p-type-functions"></path><path d="M177.9669267799769,84.47942336741143A197,197,0,0,1,176.6041453329088,87.29247305027414L152.94367627193802,75.59749922070588A170.6070045455344,170.6070045455344,0,0,0,154.1238796249051,73.16132673323902Z" fill-rule="evenodd" style="fill: #DB3F29; stroke: #fff; opacity: 1;" id="p-type-functions"></path><path d="M176.6041453329088,87.29247305027414A197,197,0,0,1,175.40434852673758,89.67895248000374L151.90462175841432,77.66425103246073A170.6070045455344,170.6070045455344,0,0,0,152.94367627193802,75.59749922070588Z" fill-rule="evenodd" style="fill: #DB3F29; stroke: #fff; opacity: 1;" id="p-type-functions"></path><path d="M175.40434852673758,89.67895248000374A197,197,0,0,1,174.51333756307523,91.40073857795765L151.13298362883225,79.15536153317169A170.6070045455344,170.6070045455344,0,0,0,151.90462175841432,77.66425103246073Z" fill-rule="evenodd" style="fill: #DB3F29; stroke: #fff; opacity: 1;" id="p-type-functions"></path><path d="M174.51333756307523,91.40073857795765A197,197,0,0,1,173.70073745044604,92.93575097437594L150.42925128817728,80.48472126359395A170.6070045455344,170.6070045455344,0,0,0,151.13298362883225,79.15536153317169Z" fill-rule="evenodd" style="fill: #DB3F29; stroke: #fff; opacity: 1;" id="p-type-functions"></path><path d="M173.70073745044604,92.93575097437594A197,197,0,0,1,173.12812441477664,93.99815177237062L149.93335385274946,81.40478734365821A170.6070045455344,170.6070045455344,0,0,0,150.42925128817728,80.48472126359395Z" fill-rule="evenodd" style="fill: #DB3F29; stroke: #fff; opacity: 1;" id="p-type-functions"></path><path d="M173.12812441477664,93.99815177237062A197,197,0,0,1,172.55727545727385,95.0420258978233L149.4389841538282,82.30880885465349A170.6070045455344,170.6070045455344,0,0,0,149.93335385274946,81.40478734365821Z" fill-rule="evenodd" style="fill: #DB3F29; stroke: #fff; opacity: 1;" id="p-type-functions"></path></g></svg>