<svg xmlns="http://www.w3.org/2000/svg" width="400" height="400"><g id="container" transform="translate(200,200)"><circle r="200" style="fill: #f9f9f9; stroke: #f9f9f9; opacity: 1;"></circle><path display="none" d="M7.070501591499379e-15,-115.47005383792515A115.47005383792515,115.47005383792515,0,1,1,-7.070501591499379e-15,115.47005383792515A115.47005383792515,115.47005383792515,0,1,1,7.070501591499379e-15,-115.47005383792515Z" fill-rule="evenodd" style="stroke: #fff; opacity: 1;"></path><path d="M9.999199243478977e-15,-163.29931618554522A163.29931618554522,163.29931618554522,0,1,1,-4.749514682198979,-163.23023242325624L-3.3584140391279678,-115.42120424114073A115.47005383792515,115.47005383792515,0,1,0,7.070501591499379e-15,-115.47005383792515Z" fill-rule="evenodd" style="fill: #6c7074; stroke: #fff; opacity: 1;"></path><path d="M1.2246467991473532e-14,-200A200,200,0,0,1,200,0L163.29931618554522,0A163.29931618554522,163.29931618554522,0,0,0,9.999199243478977e-15,-163.29931618554522Z" fill-rule="evenodd" style="fill: #f44336; stroke: #fff; opacity: 1;"></path><path d="M200,0A200,200,0,0,1,62.90895123032273,189.84852871460677L51.36494358930758,155.01067458963567A163.29931618554522,163.29931618554522,0,0,0,163.29931618554522,0Z" fill-rule="evenodd" style="fill: #6bbc80; stroke: #fff; opacity: 1;"></path><path d="M62.90895123032273,189.84852871460677A200,200,0,0,1,-89.75983604009244,178.72652806468244L-73.28859923136876,145.9295990858965A163.29931618554522,163.29931618554522,0,0,0,51.36494358930758,155.01067458963567Z" fill-rule="evenodd" style="fill: #B3DAEF; stroke: #fff; opacity: 1;"></path><path d="M-89.75983604009244,178.72652806468244A200,200,0,0,1,-183.6432213760548,79.21595320783136L-149.94406236410225,64.67955494912505A163.29931618554522,163.29931618554522,0,0,0,-73.28859923136876,145.9295990858965Z" fill-rule="evenodd" style="fill: b3daef; stroke: #fff; opacity: 1;"></path></g></svg>