<svg xmlns="http://www.w3.org/2000/svg" width="400" height="400" id="block-7901176"><g id="burst-container" transform="translate(200,200)"><circle r="197" style="fill: #f9f9f9; stroke: #f9f9f9; stroke-width: 3; opacity: 1;" id="circle-base"></circle><path display="none" d="M6.031385485800715e-15,-98.5A98.5,98.5,0,1,1,-6.031385485800715e-15,98.5A98.5,98.5,0,1,1,6.031385485800715e-15,-98.5Z" fill-rule="evenodd" id="p-type-root" style="stroke: #fff; opacity: 1;"></path><path d="M8.529667153919608e-15,-139.30003589374985A139.30003589374985,139.30003589374985,0,1,1,-93.33416129482598,-103.40809608242193L-65.99721836793044,-73.12056596947062A98.5,98.5,0,1,0,6.031385485800715e-15,-98.5Z" fill-rule="evenodd" style="fill: #0B1F65; stroke: #fff; opacity: 1;" id="p-type-data"></path><path d="M-93.33416129482598,-103.40809608242193A139.30003589374985,139.30003589374985,0,0,1,-1.4716206326896544,-139.29226228586222L-1.0405929287088922,-98.49450322914838A98.5,98.5,0,0,0,-65.99721836793044,-73.12056596947062Z" fill-rule="evenodd" style="fill: #D7A449; stroke: #fff; opacity: 1;" id="p-type-value"></path><path d="M1.0446666101440332e-14,-170.6070045455344A170.6070045455344,170.6070045455344,0,0,1,154.07131160387212,73.27196558481651L125.79869914361187,59.826309377856695A139.30003589374985,139.30003589374985,0,0,0,8.529667153919608e-15,-139.30003589374985Z" fill-rule="evenodd" style="fill: #414552; stroke: #fff; opacity: 1;" id="p-type-ether"></path><path d="M154.07131160387212,73.27196558481651A170.6070045455344,170.6070045455344,0,0,1,1.135497795331143,170.60322577476896L0.927130067538849,139.29695054033976A139.30003589374985,139.30003589374985,0,0,0,125.79869914361187,59.826309377856695Z" fill-rule="evenodd" style="fill: #DB3F29; stroke: #fff; opacity: 1;" id="p-type-functions"></path><path d="M1.135497795331143,170.60322577476896A170.6070045455344,170.6070045455344,0,0,1,-133.84222920489344,105.7970116849468L-109.28172252954052,86.38289831312974A139.30003589374985,139.30003589374985,0,0,0,0.927130067538849,139.29695054033976Z" fill-rule="evenodd" style="fill: #1DC690; stroke: #fff; opacity: 1;" id="p-type-logs"></path><path d="M-133.84222920489344,105.7970116849468A170.6070045455344,170.6070045455344,0,0,1,-170.39807353164593,-8.440766357611281L-139.12944443526015,-6.891856871399386A139.30003589374985,139.30003589374985,0,0,0,-109.28172252954052,86.38289831312974Z" fill-rule="evenodd" style="fill: #D7A449; stroke: #fff; opacity: 1;" id="p-type-tokenTransfers"></path><path d="M-114.31053537147346,-126.64853533731494A170.6070045455344,170.6070045455344,0,0,1,-62.49548631753335,-158.74843051172192L-51.02735090168146,-129.61755074046363A139.30003589374985,139.30003589374985,0,0,0,-93.33416129482598,-103.40809608242193Z" fill-rule="evenodd" style="fill: #D7A449; stroke: #fff; opacity: 1;" id="p-type-tokenTransfers"></path><path d="M-62.49548631753335,-158.74843051172192A170.6070045455344,170.6070045455344,0,0,1,-3.604518484453824,-170.56892286256377L-2.943077018447336,-139.26894232980834A139.30003589374985,139.30003589374985,0,0,0,-51.02735090168146,-129.61755074046363Z" fill-rule="evenodd" style="fill: #414552; stroke: #fff; opacity: 1;" id="p-type-ether"></path><path d="M1.206277097160143e-14,-197A197,197,0,0,1,160.9202398642719,-113.63835796959228L139.3610157055448,-98.41370484601673A170.6070045455344,170.6070045455344,0,0,0,1.0446666101440332e-14,-170.6070045455344Z" fill-rule="evenodd" style="fill: #414552; stroke: #fff; opacity: 1;" id="p-type-ether"></path><path d="M160.9202398642719,-113.63835796959228A197,197,0,0,1,180.63254890718375,-78.61858733972437L156.43237610395616,-68.08569384584695A170.6070045455344,170.6070045455344,0,0,0,139.3610157055448,-98.41370484601673Z" fill-rule="evenodd" style="fill: #414552; stroke: #fff; opacity: 1;" id="p-type-ether"></path><path d="M180.63254890718375,-78.61858733972437A197,197,0,0,1,186.78403425199343,-62.615689316257985L161.75971868356905,-54.22677762335328A170.6070045455344,170.6070045455344,0,0,0,156.43237610395616,-68.08569384584695Z" fill-rule="evenodd" style="fill: #414552; stroke: #fff; opacity: 1;" id="p-type-ether"></path><path d="M186.78403425199343,-62.615689316257985A197,197,0,0,1,191.08535331060992,-47.91020507323442L165.48477025811306,-41.491454693943105A170.6070045455344,170.6070045455344,0,0,0,161.75971868356905,-54.22677762335328Z" fill-rule="evenodd" style="fill: #414552; stroke: #fff; opacity: 1;" id="p-type-ether"></path><path d="M191.08535331060992,-47.91020507323442A197,197,0,0,1,193.31973221910368,-37.900938441337345L167.41979915454883,-32.82317551746833A170.6070045455344,170.6070045455344,0,0,0,165.48477025811306,-41.491454693943105Z" fill-rule="evenodd" style="fill: #414552; stroke: #fff; opacity: 1;" id="p-type-ether"></path><path d="M193.31973221910368,-37.900938441337345A197,197,0,0,1,194.99340883865622,-28.045864391754304L168.86924562480138,-24.28843103435263A170.6070045455344,170.6070045455344,0,0,0,167.41979915454883,-32.82317551746833Z" fill-rule="evenodd" style="fill: #414552; stroke: #fff; opacity: 1;" id="p-type-ether"></path><path d="M194.99340883865622,-28.045864391754304A197,197,0,0,1,195.66602364710295,-22.886834427927084L169.45174713587784,-19.820580026793145A170.6070045455344,170.6070045455344,0,0,0,168.86924562480138,-24.28843103435263Z" fill-rule="evenodd" style="fill: #414552; stroke: #fff; opacity: 1;" id="p-type-ether"></path><path d="M195.66602364710295,-22.886834427927084A197,197,0,0,1,196.1089650747272,-18.715603578816886L169.835345664589,-16.208188146414376A170.6070045455344,170.6070045455344,0,0,0,169.45174713587784,-19.820580026793145Z" fill-rule="evenodd" style="fill: #414552; stroke: #fff; opacity: 1;" id="p-type-ether"></path><path d="M196.1089650747272,-18.715603578816886A197,197,0,0,1,196.460607023847,-14.568112019804463L170.13987652556298,-12.616355094328092A170.6070045455344,170.6070045455344,0,0,0,169.835345664589,-16.208188146414376Z" fill-rule="evenodd" style="fill: #414552; stroke: #fff; opacity: 1;" id="p-type-ether"></path><path d="M196.460607023847,-14.568112019804463A197,197,0,0,1,196.66678913988102,-11.453124002191869L170.3184354758545,-9.918696338591458A170.6070045455344,170.6070045455344,0,0,0,170.13987652556298,-12.616355094328092Z" fill-rule="evenodd" style="fill: #414552; stroke: #fff; opacity: 1;" id="p-type-ether"></path><path d="M196.66678913988102,-11.453124002191869A197,197,0,0,1,196.81678573477106,-8.49428355031942L170.44833633751043,-7.35626534152489A170.6070045455344,170.6070045455344,0,0,0,170.3184354758545,-9.918696338591458Z" fill-rule="evenodd" style="fill: #414552; stroke: #fff; opacity: 1;" id="p-type-ether"></path><path d="M196.81678573477106,-8.49428355031942A197,197,0,0,1,196.91820889218826,-5.676178881299414L170.53617136836576,-4.915715107630028A170.6070045455344,170.6070045455344,0,0,0,170.44833633751043,-7.35626534152489Z" fill-rule="evenodd" style="fill: #414552; stroke: #fff; opacity: 1;" id="p-type-ether"></path><path d="M196.91820889218826,-5.676178881299414A197,197,0,0,1,196.9690571030028,-3.4914959478742946L170.58020721066816,-3.023724188069567A170.6070045455344,170.6070045455344,0,0,0,170.53617136836576,-4.915715107630028Z" fill-rule="evenodd" style="fill: #414552; stroke: #fff; opacity: 1;" id="p-type-ether"></path><path d="M196.9690571030028,-3.4914959478742946A197,197,0,0,1,196.99495083114715,-1.4104421412856987L170.60263183703987,-1.2214787249215355A170.6070045455344,170.6070045455344,0,0,0,170.58020721066816,-3.023724188069567Z" fill-rule="evenodd" style="fill: #414552; stroke: #fff; opacity: 1;" id="p-type-ether"></path><path d="M196.99495083114715,-1.4104421412856987A197,197,0,0,1,196.9997996206663,0.28097938950965284L170.606831011941,0.24333528925520218A170.6070045455344,170.6070045455344,0,0,0,170.60263183703987,-1.2214787249215355Z" fill-rule="evenodd" style="fill: #414552; stroke: #fff; opacity: 1;" id="p-type-ether"></path><path d="M196.9997996206663,0.28097938950965284A197,197,0,0,1,196.99264381233044,1.7024346766647334L170.60063390013755,1.474351678275206A170.6070045455344,170.6070045455344,0,0,0,170.606831011941,0.24333528925520218Z" fill-rule="evenodd" style="fill: #414552; stroke: #fff; opacity: 1;" id="p-type-ether"></path><path d="M196.99264381233044,1.7024346766647334A197,197,0,0,1,196.97789435693213,2.9511243127472215L170.58786049707064,2.5557486245649863A170.6070045455344,170.6070045455344,0,0,0,170.60063390013755,1.474351678275206Z" fill-rule="evenodd" style="fill: #414552; stroke: #fff; opacity: 1;" id="p-type-ether"></path><path d="M196.97789435693213,2.9511243127472215A197,197,0,0,1,196.9553724178981,4.1930031871035345L170.56835592572472,3.6312472781807763A170.6070045455344,170.6070045455344,0,0,0,170.58786049707064,2.5557486245649863Z" fill-rule="evenodd" style="fill: #414552; stroke: #fff; opacity: 1;" id="p-type-ether"></path><path d="M196.9553724178981,4.1930031871035345A197,197,0,0,1,196.92592209714462,5.401963179190066L170.54285119980258,4.678237343486747A170.6070045455344,170.6070045455344,0,0,0,170.56835592572472,3.6312472781807763Z" fill-rule="evenodd" style="fill: #414552; stroke: #fff; opacity: 1;" id="p-type-ether"></path><path d="M196.92592209714462,5.401963179190066A197,197,0,0,1,196.8897456080575,6.589998057238273L170.51152144123338,5.707105728458441A170.6070045455344,170.6070045455344,0,0,0,170.54285119980258,4.678237343486747Z" fill-rule="evenodd" style="fill: #414552; stroke: #fff; opacity: 1;" id="p-type-ether"></path><path d="M196.8897456080575,6.589998057238273A197,197,0,0,1,196.8518029406606,7.639874279811784L170.47866212738035,6.616325208036347A170.6070045455344,170.6070045455344,0,0,0,170.51152144123338,5.707105728458441Z" fill-rule="evenodd" style="fill: #414552; stroke: #fff; opacity: 1;" id="p-type-ether"></path><path d="M196.8518029406606,7.639874279811784A197,197,0,0,1,196.80870071494294,8.67959232314591L170.4413345049492,7.51674744633675A170.6070045455344,170.6070045455344,0,0,0,170.47866212738035,6.616325208036347Z" fill-rule="evenodd" style="fill: #414552; stroke: #fff; opacity: 1;" id="p-type-ether"></path><path d="M196.80870071494294,8.67959232314591A197,197,0,0,1,196.76024561304587,9.716261950660959L170.39937115576336,8.414529679096534A170.6070045455344,170.6070045455344,0,0,0,170.4413345049492,7.51674744633675Z" fill-rule="evenodd" style="fill: #414552; stroke: #fff; opacity: 1;" id="p-type-ether"></path><path d="M196.76024561304587,9.716261950660959A197,197,0,0,1,196.70782451475665,10.725286694149768L170.35397315295063,9.28837074000492A170.6070045455344,170.6070045455344,0,0,0,170.39937115576336,8.414529679096534Z" fill-rule="evenodd" style="fill: #414552; stroke: #fff; opacity: 1;" id="p-type-ether"></path><path d="M177.90622645778856,84.60717810889362A197,197,0,0,1,176.0789679184581,88.34702630406191L152.48885928952987,76.51076912812964A170.6070045455344,170.6070045455344,0,0,0,154.07131160387212,73.27196558481651Z" fill-rule="evenodd" style="fill: #DB3F29; stroke: #fff; opacity: 1;" id="p-type-functions"></path><path d="M176.0789679184581,88.34702630406191A197,197,0,0,1,174.7304623872897,90.98497411069557L151.32101924239421,78.79529894253183A170.6070045455344,170.6070045455344,0,0,0,152.48885928952987,76.51076912812964Z" fill-rule="evenodd" style="fill: #DB3F29; stroke: #fff; opacity: 1;" id="p-type-functions"></path><path d="M174.7304623872897,90.98497411069557A197,197,0,0,1,173.41020273310764,93.47674356791913L150.1776408422809,80.95323459286159A170.6070045455344,170.6070045455344,0,0,0,151.32101924239421,78.79529894253183Z" fill-rule="evenodd" style="fill: #DB3F29; stroke: #fff; opacity: 1;" id="p-type-functions"></path><path d="M173.41020273310764,93.47674356791913A197,197,0,0,1,172.3626341718438,95.39456138241394L149.2704198560205,82.61411354004444A170.6070045455344,170.6070045455344,0,0,0,150.1776408422809,80.95323459286159Z" fill-rule="evenodd" style="fill: #DB3F29; stroke: #fff; opacity: 1;" id="p-type-functions"></path><path d="M172.3626341718438,95.39456138241394A197,197,0,0,1,171.7737932839099,96.45083691112582L148.76046868828277,83.52887498130477A170.6070045455344,170.6070045455344,0,0,0,149.2704198560205,82.61411354004444Z" fill-rule="evenodd" style="fill: #DB3F29; stroke: #fff; opacity: 1;" id="p-type-functions"></path><path d="M171.7737932839099,96.45083691112582A197,197,0,0,1,171.18874015940935,97.48546169883092L148.25379781990182,84.42488633084247A170.6070045455344,170.6070045455344,0,0,0,148.76046868828277,83.52887498130477Z" fill-rule="evenodd" style="fill: #DB3F29; stroke: #fff; opacity: 1;" id="p-type-functions"></path><path d="M171.18874015940935,97.48546169883092A197,197,0,0,1,170.67140719853367,98.38836702005123L147.80577433356848,85.20682527623141A170.6070045455344,170.6070045455344,0,0,0,148.25379781990182,84.42488633084247Z" fill-rule="evenodd" style="fill: #DB3F29; stroke: #fff; opacity: 1;" id="p-type-functions"></path><path d="M170.67140719853367,98.38836702005123A197,197,0,0,1,170.14931206425453,99.28852705152255L147.35362668409047,85.98638673095698A170.6070045455344,170.6070045455344,0,0,0,147.80577433356848,85.20682527623141Z" fill-rule="evenodd" style="fill: #DB3F29; stroke: #fff; opacity: 1;" id="p-type-functions"></path><path d="M170.14931206425453,99.28852705152255A197,197,0,0,1,169.6224693243757,100.18591667645325L146.897367487556,86.76354894323954A170.6070045455344,170.6070045455344,0,0,0,147.35362668409047,85.98638673095698Z" fill-rule="evenodd" style="fill: #DB3F29; stroke: #fff; opacity: 1;" id="p-type-functions"></path><path d="M169.6224693243757,100.18591667645325A197,197,0,0,1,169.09089367917127,101.08051085535331L146.43700947477586,87.53829022824469A170.6070045455344,170.6070045455344,0,0,0,146.897367487556,86.76354894323954Z" fill-rule="evenodd" style="fill: #DB3F29; stroke: #fff; opacity: 1;" id="p-type-functions"></path><path d="M169.09089367917127,101.08051085535331A197,197,0,0,1,168.55459996097582,101.97228462673283L145.9725654909286,88.31058896868801A170.6070045455344,170.6070045455344,0,0,0,146.43700947477586,87.53829022824469Z" fill-rule="evenodd" style="fill: #DB3F29; stroke: #fff; opacity: 1;" id="p-type-functions"></path><path d="M168.55459996097582,101.97228462673283A197,197,0,0,1,168.01360313377023,102.86121310779859L145.50404849520177,89.08042361543846A170.6070045455344,170.6070045455344,0,0,0,145.9725654909286,88.31058896868801Z" fill-rule="evenodd" style="fill: #DB3F29; stroke: #fff; opacity: 1;" id="p-type-functions"></path><path d="M168.01360313377023,102.86121310779859A197,197,0,0,1,167.46791829276435,103.74727149514827L145.03147156043062,89.84777268811956A170.6070045455344,170.6070045455344,0,0,0,145.50404849520177,89.08042361543846Z" fill-rule="evenodd" style="fill: #DB3F29; stroke: #fff; opacity: 1;" id="p-type-functions"></path><path d="M167.46791829276435,103.74727149514827A197,197,0,0,1,166.91756066397568,104.63043506546266L144.55484787273306,90.61261477570878A170.6070045455344,170.6070045455344,0,0,0,145.03147156043062,89.84777268811956Z" fill-rule="evenodd" style="fill: #DB3F29; stroke: #fff; opacity: 1;" id="p-type-functions"></path><path d="M166.91756066397568,104.63043506546266A197,197,0,0,1,166.3625456038046,105.51067917619541L144.07419073114195,91.37492853713499A170.6070045455344,170.6070045455344,0,0,0,144.55484787273306,90.61261477570878Z" fill-rule="evenodd" style="fill: #DB3F29; stroke: #fff; opacity: 1;" id="p-type-functions"></path><path d="M166.3625456038046,105.51067917619541A197,197,0,0,1,165.80288859860588,106.38797926626056L143.58951354723393,92.13469270187379A170.6070045455344,170.6070045455344,0,0,0,144.07419073114195,91.37492853713499Z" fill-rule="evenodd" style="fill: #DB3F29; stroke: #fff; opacity: 1;" id="p-type-functions"></path><path d="M165.80288859860588,106.38797926626056A197,197,0,0,1,165.23860526425653,107.26231085671806L143.10082984475522,92.89188607054123A170.6070045455344,170.6070045455344,0,0,0,143.58951354723393,92.13469270187379Z" fill-rule="evenodd" style="fill: #DB3F29; stroke: #fff; opacity: 1;" id="p-type-functions"></path><path d="M165.23860526425653,107.26231085671806A197,197,0,0,1,164.6697113457201,108.13364955145657L142.6081532592442,93.64648751548516A170.6070045455344,170.6070045455344,0,0,0,143.10082984475522,92.89188607054123Z" fill-rule="evenodd" style="fill: #DB3F29; stroke: #fff; opacity: 1;" id="p-type-functions"></path><path d="M164.6697113457201,108.13364955145657A197,197,0,0,1,164.09622271660734,109.00197103787434L142.11149753765105,94.39847598137482A170.6070045455344,170.6070045455344,0,0,0,142.6081532592442,93.64648751548516Z" fill-rule="evenodd" style="fill: #DB3F29; stroke: #fff; opacity: 1;" id="p-type-functions"></path><path d="M164.09622271660734,109.00197103787434A197,197,0,0,1,163.51815537873338,109.86725108755749L141.61087653795417,95.14783048578828A170.6070045455344,170.6070045455344,0,0,0,142.11149753765105,94.39847598137482Z" fill-rule="evenodd" style="fill: #DB3F29; stroke: #fff; opacity: 1;" id="p-type-functions"></path><path d="M163.51815537873338,109.86725108755749A197,197,0,0,1,162.9355254616711,110.7294655569561L141.1063042287734,95.89453011979799A170.6070045455344,170.6070045455344,0,0,0,141.61087653795417,95.14783048578828Z" fill-rule="evenodd" style="fill: #DB3F29; stroke: #fff; opacity: 1;" id="p-type-functions"></path><path d="M162.9355254616711,110.7294655569561A197,197,0,0,1,162.3483492223011,111.58859038805788L140.59779468898037,96.63855404855416A170.6070045455344,170.6070045455344,0,0,0,141.1063042287734,95.89453011979799Z" fill-rule="evenodd" style="fill: #DB3F29; stroke: #fff; opacity: 1;" id="p-type-functions"></path><path d="M162.3483492223011,111.58859038805788A197,197,0,0,1,161.75664304435819,112.44460160905942L140.0853621073056,97.37988151186602A170.6070045455344,170.6070045455344,0,0,0,140.59779468898037,96.63855404855416Z" fill-rule="evenodd" style="fill: #DB3F29; stroke: #fff; opacity: 1;" id="p-type-functions"></path><path d="M161.75664304435819,112.44460160905942A197,197,0,0,1,161.16042343797415,113.29747533503507L139.56902078194267,98.11849182478122A170.6070045455344,170.6070045455344,0,0,0,140.0853621073056,97.37988151186602Z" fill-rule="evenodd" style="fill: #DB3F29; stroke: #fff; opacity: 1;" id="p-type-functions"></path><path d="M161.16042343797415,113.29747533503507A197,197,0,0,1,160.55970703921702,114.14718776860343L139.0487851201491,98.85436437816291A170.6070045455344,170.6070045455344,0,0,0,139.56902078194267,98.11849182478122Z" fill-rule="evenodd" style="fill: #DB3F29; stroke: #fff; opacity: 1;" id="p-type-functions"></path><path d="M160.55970703921702,114.14718776860343A197,197,0,0,1,159.95451060962708,114.99371520059128L138.52466963784457,99.5874786392648A170.6070045455344,170.6070045455344,0,0,0,139.0487851201491,98.85436437816291Z" fill-rule="evenodd" style="fill: #DB3F29; stroke: #fff; opacity: 1;" id="p-type-functions"></path><path d="M159.95451060962708,114.99371520059128A197,197,0,0,1,159.34485103574897,115.83703401069522L137.99668895920573,100.31781415230408A170.6070045455344,170.6070045455344,0,0,0,138.52466963784457,99.5874786392648Z" fill-rule="evenodd" style="fill: #DB3F29; stroke: #fff; opacity: 1;" id="p-type-functions"></path><path d="M159.34485103574897,115.83703401069522A197,197,0,0,1,158.73074532866067,116.6771206681407L137.46485781625825,101.04535053903223A170.6070045455344,170.6070045455344,0,0,0,137.99668895920573,100.31781415230408Z" fill-rule="evenodd" style="fill: #DB3F29; stroke: #fff; opacity: 1;" id="p-type-functions"></path><path d="M158.73074532866067,116.6771206681407A197,197,0,0,1,158.11221062349867,117.51395173233857L136.92919104846564,101.77006749930354A170.6070045455344,170.6070045455344,0,0,0,137.46485781625825,101.04535053903223Z" fill-rule="evenodd" style="fill: #DB3F29; stroke: #fff; opacity: 1;" id="p-type-functions"></path><path d="M158.11221062349867,117.51395173233857A197,197,0,0,1,157.48926417898,118.3475038535391L136.38970360231528,102.4919448116416A170.6070045455344,170.6070045455344,0,0,0,136.92919104846564,101.77006749930354Z" fill-rule="evenodd" style="fill: #DB3F29; stroke: #fff; opacity: 1;" id="p-type-functions"></path><path d="M157.48926417898,118.3475038535391A197,197,0,0,1,156.86192337692063,119.1777537734836L135.84641053090135,103.21096233380354A170.6070045455344,170.6070045455344,0,0,0,136.38970360231528,102.4919448116416Z" fill-rule="evenodd" style="fill: #DB3F29; stroke: #fff; opacity: 1;" id="p-type-functions"></path><path d="M156.86192337692063,119.1777537734836A197,197,0,0,1,156.23020572175045,120.00467832605334L135.29932699350485,103.927100003342A170.6070045455344,170.6070045455344,0,0,0,135.84641053090135,103.21096233380354Z" fill-rule="evenodd" style="fill: #DB3F29; stroke: #fff; opacity: 1;" id="p-type-functions"></path><path d="M156.23020572175045,120.00467832605334A197,197,0,0,1,155.5941288400249,120.82825443791589L134.7484682551705,104.640337838165A170.6070045455344,170.6070045455344,0,0,0,135.29932699350485,103.927100003342Z" fill-rule="evenodd" style="fill: #DB3F29; stroke: #fff; opacity: 1;" id="p-type-functions"></path><path d="M155.5941288400249,120.82825443791589A197,197,0,0,1,154.953710479933,121.648459129169L134.19384968628097,105.35065593709336A170.6070045455344,170.6070045455344,0,0,0,134.7484682551705,104.640337838165Z" fill-rule="evenodd" style="fill: #DB3F29; stroke: #fff; opacity: 1;" id="p-type-functions"></path><path d="M154.953710479933,121.648459129169A197,197,0,0,1,154.30896851080243,122.46526951398175L133.6354867621279,106.05803448041614A170.6070045455344,170.6070045455344,0,0,0,134.19384968628097,105.35065593709336Z" fill-rule="evenodd" style="fill: #DB3F29; stroke: #fff; opacity: 1;" id="p-type-functions"></path><path d="M154.30896851080243,122.46526951398175A197,197,0,0,1,153.65992092260052,123.27866280123317L133.07339506248002,106.76245373044361A170.6070045455344,170.6070045455344,0,0,0,133.6354867621279,106.05803448041614Z" fill-rule="evenodd" style="fill: #DB3F29; stroke: #fff; opacity: 1;" id="p-type-functions"></path><path d="M153.65992092260052,123.27866280123317A197,197,0,0,1,153.0065858254327,124.08861629514813L132.5075902711487,107.46389403205794A170.6070045455344,170.6070045455344,0,0,0,133.07339506248002,106.76245373044361Z" fill-rule="evenodd" style="fill: #DB3F29; stroke: #fff; opacity: 1;" id="p-type-functions"></path><path d="M153.0065858254327,124.08861629514813A197,197,0,0,1,152.3489814490368,124.89510739593061L131.93808817555004,108.16233581326163A170.6070045455344,170.6070045455344,0,0,0,132.5075902711487,107.46389403205794Z" fill-rule="evenodd" style="fill: #DB3F29; stroke: #fff; opacity: 1;" id="p-type-functions"></path><path d="M152.3489814490368,124.89510739593061A197,197,0,0,1,151.6871261422747,125.69811360039432L131.36490466626452,108.85775958572374A170.6070045455344,170.6070045455344,0,0,0,131.93808817555004,108.16233581326163Z" fill-rule="evenodd" style="fill: #DB3F29; stroke: #fff; opacity: 1;" id="p-type-functions"></path><path d="M151.6871261422747,125.69811360039432A197,197,0,0,1,151.0210383726202,126.4976125025906L130.78805573659363,109.55014594532348A170.6070045455344,170.6070045455344,0,0,0,131.36490466626452,108.85775958572374Z" fill-rule="evenodd" style="fill: #DB3F29; stroke: #fff; opacity: 1;" id="p-type-functions"></path><path d="M151.0210383726202,126.4976125025906A197,197,0,0,1,150.35073672564377,127.29358179443359L130.2075574821135,110.23947557269182A170.6070045455344,170.6070045455344,0,0,0,130.78805573659363,109.55014594532348Z" fill-rule="evenodd" style="fill: #DB3F29; stroke: #fff; opacity: 1;" id="p-type-functions"></path><path d="M150.35073672564377,127.29358179443359A197,197,0,0,1,149.67623990449385,128.08599926632263L129.6234261002258,110.92572923375036A170.6070045455344,170.6070045455344,0,0,0,130.2075574821135,110.23947557269182Z" fill-rule="evenodd" style="fill: #DB3F29; stroke: #fff; opacity: 1;" id="p-type-functions"></path><path d="M149.67623990449385,128.08599926632263A197,197,0,0,1,148.9975667293752,128.87484280776206L129.035677889706,111.6088877802482A170.6070045455344,170.6070045455344,0,0,0,129.6234261002258,110.92572923375036Z" fill-rule="evenodd" style="fill: #DB3F29; stroke: #fff; opacity: 1;" id="p-type-functions"></path><path d="M148.9975667293752,128.87484280776206A197,197,0,0,1,148.3147361370236,129.66009040797815L128.44432925024833,112.28893215029608A170.6070045455344,170.6070045455344,0,0,0,129.035677889706,111.6088877802482Z" fill-rule="evenodd" style="fill: #DB3F29; stroke: #fff; opacity: 1;" id="p-type-functions"></path><path d="M148.3147361370236,129.66009040797815A197,197,0,0,1,147.6277671801775,130.44172015653314L127.84939668200832,112.96584336889836A170.6070045455344,170.6070045455344,0,0,0,128.44432925024833,112.28893215029608Z" fill-rule="evenodd" style="fill: #DB3F29; stroke: #fff; opacity: 1;" id="p-type-functions"></path><path d="M147.6277671801775,130.44172015653314A197,197,0,0,1,146.93667902704647,131.21971024393676L127.25089678514237,113.63960254848236A170.6070045455344,170.6070045455344,0,0,0,127.84939668200832,112.96584336889836Z" fill-rule="evenodd" style="fill: #DB3F29; stroke: #fff; opacity: 1;" id="p-type-functions"></path><path d="M146.93667902704647,131.21971024393676A197,197,0,0,1,146.24149096077625,131.99403896225465L126.64884625934457,114.3101908894255A170.6070045455344,170.6070045455344,0,0,0,127.25089678514237,113.63960254848236Z" fill-rule="evenodd" style="fill: #DB3F29; stroke: #fff; opacity: 1;" id="p-type-functions"></path><path d="M146.24149096077625,131.99403896225465A197,197,0,0,1,145.54222237891076,132.76468470571413L126.04326190338077,114.97758968057975A170.6070045455344,170.6070045455344,0,0,0,126.64884625934457,114.3101908894255Z" fill-rule="evenodd" style="fill: #DB3F29; stroke: #fff; opacity: 1;" id="p-type-functions"></path><path d="M145.54222237891076,132.76468470571413A197,197,0,0,1,144.8388927928509,133.53162597130702L125.43416061461974,115.6417802997938A170.6070045455344,170.6070045455344,0,0,0,126.04326190338077,114.97758968057975Z" fill-rule="evenodd" style="fill: #DB3F29; stroke: #fff; opacity: 1;" id="p-type-functions"></path><path d="M144.8388927928509,133.53162597130702A197,197,0,0,1,144.13152182731005,134.2948413593897L124.82155938856182,116.30274421443258A170.6070045455344,170.6070045455344,0,0,0,125.43416061461974,115.6417802997938Z" fill-rule="evenodd" style="fill: #DB3F29; stroke: #fff; opacity: 1;" id="p-type-functions"></path><path d="M144.13152182731005,134.2948413593897A197,197,0,0,1,143.42012921976652,135.05430957428004L124.20547531836466,116.96046298189444A170.6070045455344,170.6070045455344,0,0,0,124.82155938856182,116.30274421443258Z" fill-rule="evenodd" style="fill: #DB3F29; stroke: #fff; opacity: 1;" id="p-type-functions"></path><path d="M143.42012921976652,135.05430957428004A197,197,0,0,1,142.7047348199128,135.8100094248519L123.58592559436623,117.61491825012577A170.6070045455344,170.6070045455344,0,0,0,124.20547531836466,116.96046298189444Z" fill-rule="evenodd" style="fill: #DB3F29; stroke: #fff; opacity: 1;" id="p-type-functions"></path><path d="M142.7047348199128,135.8100094248519A197,197,0,0,1,141.98535858910182,136.5619198251261L122.96292750360521,118.26609175813297A170.6070045455344,170.6070045455344,0,0,0,123.58592559436623,117.61491825012577Z" fill-rule="evenodd" style="fill: #DB3F29; stroke: #fff; opacity: 1;" id="p-type-functions"></path><path d="M141.98535858910182,136.5619198251261A197,197,0,0,1,141.2620205997898,137.310019794859L122.33649842933863,118.91396533649201A170.6070045455344,170.6070045455344,0,0,0,122.96292750360521,118.26609175813297Z" fill-rule="evenodd" style="fill: #DB3F29; stroke: #fff; opacity: 1;" id="p-type-functions"></path><path d="M141.2620205997898,137.310019794859A197,197,0,0,1,140.53474103497624,138.0542884601278L121.7066558505568,119.55852090785552A170.6070045455344,170.6070045455344,0,0,0,122.33649842933863,118.91396533649201Z" fill-rule="evenodd" style="fill: #DB3F29; stroke: #fff; opacity: 1;" id="p-type-functions"></path><path d="M140.53474103497624,138.0542884601278A197,197,0,0,1,139.80354018764086,138.79470505391293L121.07341734149568,120.199740487457A170.6070045455344,170.6070045455344,0,0,0,121.7066558505568,119.55852090785552Z" fill-rule="evenodd" style="fill: #DB3F29; stroke: #fff; opacity: 1;" id="p-type-functions"></path><path d="M139.80354018764086,138.79470505391293A197,197,0,0,1,139.06843846017733,139.53124891667773L120.43680057114642,120.83760618361283A170.6070045455344,170.6070045455344,0,0,0,121.07341734149568,120.199740487457Z" fill-rule="evenodd" style="fill: #DB3F29; stroke: #fff; opacity: 1;" id="p-type-functions"></path><path d="M139.06843846017733,139.53124891667773A197,197,0,0,1,138.32945636382382,140.26389949694456L119.7968233027624,121.47210019822133A170.6070045455344,170.6070045455344,0,0,0,120.43680057114642,120.83760618361283Z" fill-rule="evenodd" style="fill: #DB3F29; stroke: #fff; opacity: 1;" id="p-type-functions"></path><path d="M138.32945636382382,140.26389949694456A197,197,0,0,1,137.58661451809095,140.99263635186855L119.15350339336362,122.10320482725947A170.6070045455344,170.6070045455344,0,0,0,119.7968233027624,121.47210019822133Z" fill-rule="evenodd" style="fill: #DB3F29; stroke: #fff; opacity: 1;" id="p-type-functions"></path><path d="M137.58661451809095,140.99263635186855A197,197,0,0,1,136.83993365018623,141.71743914780788L118.50685879323832,122.73090246127693A170.6070045455344,170.6070045455344,0,0,0,119.15350339336362,122.10320482725947Z" fill-rule="evenodd" style="fill: #DB3F29; stroke: #fff; opacity: 1;" id="p-type-functions"></path><path d="M136.83993365018623,141.71743914780788A197,197,0,0,1,136.08943459443591,142.43828766089106L117.85690754544231,123.35517558588721A170.6070045455344,170.6070045455344,0,0,0,118.50685879323832,122.73090246127693Z" fill-rule="evenodd" style="fill: #DB3F29; stroke: #fff; opacity: 1;" id="p-type-functions"></path><path d="M136.08943459443591,142.43828766089106A197,197,0,0,1,135.3351382917035,143.15516177758138L117.20366778529535,123.97600678225655A170.6070045455344,170.6070045455344,0,0,0,117.85690754544231,123.35517558588721Z" fill-rule="evenodd" style="fill: #DB3F29; stroke: #fff; opacity: 1;" id="p-type-functions"></path><path d="M135.3351382917035,143.15516177758138A197,197,0,0,1,134.5770657888054,143.86804149523806L116.54715773987517,124.59337872758991A170.6070045455344,170.6070045455344,0,0,0,117.20366778529535,123.97600678225655Z" fill-rule="evenodd" style="fill: #DB3F29; stroke: #fff; opacity: 1;" id="p-type-functions"></path><path d="M134.5770657888054,143.86804149523806A197,197,0,0,1,133.81523823792404,144.5769069226743L115.887395727509,125.20727419561423A170.6070045455344,170.6070045455344,0,0,0,116.54715773987517,124.59337872758991Z" fill-rule="evenodd" style="fill: #DB3F29; stroke: #fff; opacity: 1;" id="p-type-functions"></path><path d="M133.81523823792404,144.5769069226743A197,197,0,0,1,133.0496768960171,145.28173828071255L115.2244001572623,125.81767605705922A170.6070045455344,170.6070045455344,0,0,0,115.887395727509,125.20727419561423Z" fill-rule="evenodd" style="fill: #DB3F29; stroke: #fff; opacity: 1;" id="p-type-functions"></path><path d="M133.0496768960171,145.28173828071255A197,197,0,0,1,132.28040312422482,145.982515902736L114.55818952842512,126.42456728013516A170.6070045455344,170.6070045455344,0,0,0,115.2244001572623,125.81767605705922Z" fill-rule="evenodd" style="fill: #DB3F29; stroke: #fff; opacity: 1;" id="p-type-functions"></path><path d="M132.28040312422482,145.982515902736A197,197,0,0,1,131.50743838727388,146.67922023523772L113.88878242999604,127.02793093100836A170.6070045455344,170.6070045455344,0,0,0,114.55818952842512,126.42456728013516Z" fill-rule="evenodd" style="fill: #DB3F29; stroke: #fff; opacity: 1;" id="p-type-functions"></path><path d="M131.50743838727388,146.67922023523772A197,197,0,0,1,130.73080425287824,147.371831838366L113.21619754016328,127.62775017427332A170.6070045455344,170.6070045455344,0,0,0,113.88878242999604,127.02793093100836Z" fill-rule="evenodd" style="fill: #DB3F29; stroke: #fff; opacity: 1;" id="p-type-functions"></path><path d="M130.73080425287824,147.371831838366A197,197,0,0,1,129.95052239113778,148.06033138646694L112.54045362578383,128.2240082734228A170.6070045455344,170.6070045455344,0,0,0,113.21619754016328,127.62775017427332Z" fill-rule="evenodd" style="fill: #DB3F29; stroke: #fff; opacity: 1;" id="p-type-functions"></path><path d="M129.95052239113778,148.06033138646694A197,197,0,0,1,129.16661457393317,148.74469966862347L111.86156954185944,128.8166885913147A170.6070045455344,170.6070045455344,0,0,0,112.54045362578383,128.2240082734228Z" fill-rule="evenodd" style="fill: #DB3F29; stroke: #fff; opacity: 1;" id="p-type-functions"></path><path d="M129.16661457393317,148.74469966862347A197,197,0,0,1,128.37910267431877,149.42491758919164L111.17956423101083,129.40577459063616A170.6070045455344,170.6070045455344,0,0,0,111.86156954185944,128.8166885913147Z" fill-rule="evenodd" style="fill: #DB3F29; stroke: #fff; opacity: 1;" id="p-type-functions"></path><path d="M128.37910267431877,149.42491758919164A197,197,0,0,1,127.58800866591213,150.1009661683333L110.494456722949,129.9912498343652A170.6070045455344,170.6070045455344,0,0,0,111.17956423101083,129.40577459063616Z" fill-rule="evenodd" style="fill: #DB3F29; stroke: #fff; opacity: 1;" id="p-type-functions"></path><path d="M127.58800866591213,150.1009661683333A197,197,0,0,1,126.79335462228079,150.7728265425456L109.80626613394423,130.5730979862292A170.6070045455344,170.6070045455344,0,0,0,110.494456722949,129.9912498343652Z" fill-rule="evenodd" style="fill: #DB3F29; stroke: #fff; opacity: 1;" id="p-type-functions"></path><path d="M126.79335462228079,150.7728265425456A197,197,0,0,1,125.99516271632659,151.4404799651876L109.11501166629279,131.15130281116078A170.6070045455344,170.6070045455344,0,0,0,109.80626613394423,130.5730979862292Z" fill-rule="evenodd" style="fill: #DB3F29; stroke: #fff; opacity: 1;" id="p-type-functions"></path><path d="M125.99516271632659,151.4404799651876A197,197,0,0,1,125.19345521966683,152.10390780700303L108.420712607781,131.72584817575083A170.6070045455344,170.6070045455344,0,0,0,109.11501166629279,131.15130281116078Z" fill-rule="evenodd" style="fill: #DB3F29; stroke: #fff; opacity: 1;" id="p-type-functions"></path><path d="M125.19345521966683,152.10390780700303A197,197,0,0,1,124.38825450201286,152.76309155664035L107.72338833114719,132.29671804869864A170.6070045455344,170.6070045455344,0,0,0,108.420712607781,131.72584817575083Z" fill-rule="evenodd" style="fill: #DB3F29; stroke: #fff; opacity: 1;" id="p-type-functions"></path><path d="M124.38825450201286,152.76309155664035A197,197,0,0,1,123.57958303054596,153.41801282116907L107.02305829354113,132.86389650125912A170.6070045455344,170.6070045455344,0,0,0,107.72338833114719,132.29671804869864Z" fill-rule="evenodd" style="fill: #DB3F29; stroke: #fff; opacity: 1;" id="p-type-functions"></path><path d="M123.57958303054596,153.41801282116907A197,197,0,0,1,122.76746336929038,154.06865332659314L106.31974203598098,133.42736770768752A170.6070045455344,170.6070045455344,0,0,0,107.02305829354113,132.86389650125912Z" fill-rule="evenodd" style="fill: #DB3F29; stroke: #fff; opacity: 1;" id="p-type-functions"></path><path d="M122.76746336929038,154.06865332659314A197,197,0,0,1,121.95191817848384,154.71499491836073L105.61345918280828,133.98711594568073A170.6070045455344,170.6070045455344,0,0,0,106.31974203598098,133.42736770768752Z" fill-rule="evenodd" style="fill: #DB3F29; stroke: #fff; opacity: 1;" id="p-type-functions"></path><path d="M121.95191817848384,154.71499491836073A197,197,0,0,1,121.13297021394507,155.35701956187077L104.90422944114015,134.54312559681605A170.6070045455344,170.6070045455344,0,0,0,105.61345918280828,133.98711594568073Z" fill-rule="evenodd" style="fill: #DB3F29; stroke: #fff; opacity: 1;" id="p-type-functions"></path><path d="M121.13297021394507,155.35701956187077A197,197,0,0,1,120.31064232643912,155.99470934297622L104.1920726003196,135.09538114698714A170.6070045455344,170.6070045455344,0,0,0,104.90422944114015,134.54312559681605Z" fill-rule="evenodd" style="fill: #DB3F29; stroke: #fff; opacity: 1;" id="p-type-functions"></path><path d="M120.31064232643912,155.99470934297622A197,197,0,0,1,119.48495746103953,156.62804646848397L103.47700853136323,135.64386718683664A170.6070045455344,170.6070045455344,0,0,0,104.1920726003196,135.09538114698714Z" fill-rule="evenodd" style="fill: #DB3F29; stroke: #fff; opacity: 1;" id="p-type-functions"></path><path d="M119.48495746103953,156.62804646848397A197,197,0,0,1,118.65593865648823,157.25701326665117L102.75905718640679,136.1885684121864A170.6070045455344,170.6070045455344,0,0,0,103.47700853136323,135.64386718683664Z" fill-rule="evenodd" style="fill: #DB3F29; stroke: #fff; opacity: 1;" id="p-type-functions"></path><path d="M118.65593865648823,157.25701326665117A197,197,0,0,1,117.82360904455267,157.88159218767845L102.03823859814855,136.7294696244643A170.6070045455344,170.6070045455344,0,0,0,102.75905718640679,136.1885684121864Z" fill-rule="evenodd" style="fill: #DB3F29; stroke: #fff; opacity: 1;" id="p-type-functions"></path><path d="M117.82360904455267,157.88159218767845A197,197,0,0,1,116.9879918493804,158.5017658041995L101.31457287929028,137.2665557311284A170.6070045455344,170.6070045455344,0,0,0,102.03823859814855,136.7294696244643Z" fill-rule="evenodd" style="fill: #DB3F29; stroke: #fff; opacity: 1;" id="p-type-functions"></path><path d="M116.9879918493804,158.5017658041995A197,197,0,0,1,116.14911038685104,159.11751681176744L100.588080221976,137.7998117460881A170.6070045455344,170.6070045455344,0,0,0,101.31457287929028,137.2665557311284Z" fill-rule="evenodd" style="fill: #DB3F29; stroke: #fff; opacity: 1;" id="p-type-functions"></path><path d="M116.14911038685104,159.11751681176744A197,197,0,0,1,115.30698806392566,159.7288280293376L99.85878089722866,138.32922279012226A170.6070045455344,170.6070045455344,0,0,0,100.588080221976,137.7998117460881Z" fill-rule="evenodd" style="fill: #DB3F29; stroke: #fff; opacity: 1;" id="p-type-functions"></path><path d="M115.30698806392566,159.7288280293376A197,197,0,0,1,114.46164837799377,160.33568239974693L99.12669525438449,138.85477409129436A170.6070045455344,170.6070045455344,0,0,0,99.85878089722866,138.32922279012226Z" fill-rule="evenodd" style="fill: #DB3F29; stroke: #fff; opacity: 1;" id="p-type-functions"></path><path d="M114.46164837799377,160.33568239974693A197,197,0,0,1,113.61311491621754,160.93806299018993L98.39184372052513,139.37645098536467A170.6070045455344,170.6070045455344,0,0,0,99.12669525438449,138.85477409129436Z" fill-rule="evenodd" style="fill: #DB3F29; stroke: #fff; opacity: 1;" id="p-type-functions"></path><path d="M113.61311491621754,160.93806299018993A197,197,0,0,1,112.76371520128696,161.5343447505918L97.65624198942797,139.89284613768598A170.6070045455344,170.6070045455344,0,0,0,98.39184372052513,139.37645098536467Z" fill-rule="evenodd" style="fill: #DB3F29; stroke: #fff; opacity: 1;" id="p-type-functions"></path><path d="M1.311159915597324,196.99563665136273A197,197,0,0,1,0.27055722508576036,196.9998142100341L0.23430943010169283,170.60684364670416A170.6070045455344,170.6070045455344,0,0,0,1.135497795331143,170.60322577476896Z" fill-rule="evenodd" style="fill: #1DC690; stroke: #fff; opacity: 1;" id="p-type-logs"></path><path d="M0.27055722508576036,196.9998142100341A197,197,0,0,1,-0.7700530146717056,196.99849496469406L-0.666885472966488,170.6057011467259A170.6070045455344,170.6070045455344,0,0,0,0.23430943010169283,170.60684364670416Z" fill-rule="evenodd" style="fill: #1DC690; stroke: #fff; opacity: 1;" id="p-type-logs"></path><path d="M-0.7700530146717056,196.99849496469406A197,197,0,0,1,-1.8106417679596687,196.991678952153L-1.5680617682062419,170.59979830671278A170.6070045455344,170.6070045455344,0,0,0,-0.666885472966488,170.6057011467259Z" fill-rule="evenodd" style="fill: #1DC690; stroke: #fff; opacity: 1;" id="p-type-logs"></path><path d="M-1.8106417679596687,196.991678952153A197,197,0,0,1,-2.8511799996622527,196.97936636259527L-2.469194310469618,170.58913529136944A170.6070045455344,170.6070045455344,0,0,0,-1.5680617682062419,170.59979830671278Z" fill-rule="evenodd" style="fill: #1DC690; stroke: #fff; opacity: 1;" id="p-type-logs"></path><path d="M-2.8511799996622527,196.97936636259527A197,197,0,0,1,-3.8916386760732635,196.96155753957393L-3.370257955829486,170.57371239822146A170.6070045455344,170.6070045455344,0,0,0,-2.469194310469618,170.58913529136944Z" fill-rule="evenodd" style="fill: #1DC690; stroke: #fff; opacity: 1;" id="p-type-logs"></path><path d="M-3.8916386760732635,196.96155753957393A197,197,0,0,1,-4.931988765706306,196.93825298000118L-4.271227562281118,170.55353005760745A170.6070045455344,170.6070045455344,0,0,0,-3.370257955829486,170.57371239822146Z" fill-rule="evenodd" style="fill: #1DC690; stroke: #fff; opacity: 1;" id="p-type-logs"></path><path d="M-4.931988765706306,196.93825298000118A197,197,0,0,1,-5.972201240104835,196.9094533341345L-5.172077990443714,170.52858883266688A170.6070045455344,170.6070045455344,0,0,0,-4.271227562281118,170.55353005760745Z" fill-rule="evenodd" style="fill: #1DC690; stroke: #fff; opacity: 1;" id="p-type-logs"></path><path d="M-5.972201240104835,196.9094533341345A197,197,0,0,1,-7.0122470746521275,196.8751594055584L-6.072784104261857,170.49888941932443A170.6070045455344,170.6070045455344,0,0,0,-5.172077990443714,170.52858883266688Z" fill-rule="evenodd" style="fill: #1DC690; stroke: #fff; opacity: 1;" id="p-type-logs"></path><path d="M-7.0122470746521275,196.8751594055584A197,197,0,0,1,-8.052097249381145,196.83537215116218L-6.973320771706875,170.46443264627047A170.6070045455344,170.6070045455344,0,0,0,-6.072784104261857,170.49888941932443Z" fill-rule="evenodd" style="fill: #1DC690; stroke: #fff; opacity: 1;" id="p-type-logs"></path><path d="M-8.052097249381145,196.83537215116218A197,197,0,0,1,-9.09172274978426,196.79009268111304L-7.87366286547808,170.42521947493802A170.6070045455344,170.6070045455344,0,0,0,-6.973320771706875,170.46443264627047Z" fill-rule="evenodd" style="fill: #1DC690; stroke: #fff; opacity: 1;" id="p-type-logs"></path><path d="M-9.09172274978426,196.79009268111304A197,197,0,0,1,-10.13109456762284,196.7393222588252L-8.773785263703903,170.3812509994759A170.6070045455344,170.6070045455344,0,0,0,-7.87366286547808,170.42521947493802Z" fill-rule="evenodd" style="fill: #1DC690; stroke: #fff; opacity: 1;" id="p-type-logs"></path><path d="M-10.13109456762284,196.7393222588252A197,197,0,0,1,-11.170183701736654,196.68306230092477L-9.673662850642842,170.33252844671827A170.6070045455344,170.6070045455344,0,0,0,-8.773785263703903,170.3812509994759Z" fill-rule="evenodd" style="fill: #1DC690; stroke: #fff; opacity: 1;" id="p-type-logs"></path><path d="M-11.170183701736654,196.68306230092477A197,197,0,0,1,-12.208961158853079,196.62131437720993L-10.573270517384264,170.27905317615028A170.6070045455344,170.6070045455344,0,0,0,-9.673662850642842,170.33252844671827Z" fill-rule="evenodd" style="fill: #1DC690; stroke: #fff; opacity: 1;" id="p-type-logs"></path><path d="M-12.208961158853079,196.62131437720993A197,197,0,0,1,-13.24739795439608,196.55408021060734L-11.472583162549011,170.22082667987016A170.6070045455344,170.6070045455344,0,0,0,-10.573270517384264,170.27905317615028Z" fill-rule="evenodd" style="fill: #1DC690; stroke: #fff; opacity: 1;" id="p-type-logs"></path><path d="M-13.24739795439608,196.55408021060734A197,197,0,0,1,-14.28546511329496,196.48136167712406L-12.37157569298978,170.15785058254767A170.6070045455344,170.6070045455344,0,0,0,-11.472583162549011,170.22082667987016Z" fill-rule="evenodd" style="fill: #1DC690; stroke: #fff; opacity: 1;" id="p-type-logs"></path><path d="M-14.28546511329496,196.48136167712406A197,197,0,0,1,-15.323133670792851,196.40316080579512L-13.270223024491306,170.09012664137876A170.6070045455344,170.6070045455344,0,0,0,-12.37157569298978,170.15785058254767Z" fill-rule="evenodd" style="fill: #1DC690; stroke: #fff; opacity: 1;" id="p-type-logs"></path><path d="M-15.323133670792851,196.40316080579512A197,197,0,0,1,-16.36037467325488,196.31947977862697L-14.168500082470262,170.01765674603635A170.6070045455344,170.6070045455344,0,0,0,-13.270223024491306,170.09012664137876Z" fill-rule="evenodd" style="fill: #1DC690; stroke: #fff; opacity: 1;" id="p-type-logs"></path><path d="M-16.36037467325488,196.31947977862697A197,197,0,0,1,-17.39715917897608,196.23032093053655L-15.066381802674911,169.9404429186179A170.6070045455344,170.6070045455344,0,0,0,-14.168500082470262,170.01765674603635Z" fill-rule="evenodd" style="fill: #1DC690; stroke: #fff; opacity: 1;" id="p-type-logs"></path><path d="M-17.39715917897608,196.23032093053655A197,197,0,0,1,-18.433458258988907,196.13568674928618L-15.963843131884463,169.85848731358874A170.6070045455344,170.6070045455344,0,0,0,-15.066381802674911,169.9404429186179Z" fill-rule="evenodd" style="fill: #1DC690; stroke: #fff; opacity: 1;" id="p-type-logs"></path><path d="M-18.433458258988907,196.13568674928618A197,197,0,0,1,-19.46924299787046,196.03557987541413L-16.860859028608118,169.7717922177221A170.6070045455344,170.6070045455344,0,0,0,-15.963843131884463,169.85848731358874Z" fill-rule="evenodd" style="fill: #1DC690; stroke: #fff; opacity: 1;" id="p-type-logs"></path><path d="M-19.46924299787046,196.03557987541413A197,197,0,0,1,-20.504484494549278,195.93000310216092L-17.757404463783796,169.68036005003523A170.6070045455344,170.6070045455344,0,0,0,-16.860859028608118,169.7717922177221Z" fill-rule="evenodd" style="fill: #1DC690; stroke: #fff; opacity: 1;" id="p-type-logs"></path><path d="M-20.504484494549278,195.93000310216092A197,197,0,0,1,-21.539153863111764,195.81895937539142L-18.653454421476518,169.58419336172193A170.6070045455344,170.6070045455344,0,0,0,-17.757404463783796,169.68036005003523Z" fill-rule="evenodd" style="fill: #1DC690; stroke: #fff; opacity: 1;" id="p-type-logs"></path><path d="M-21.539153863111764,195.81895937539142A197,197,0,0,1,-22.57322223360818,195.70245179351264L-19.548983899576392,169.4832948360814A170.6070045455344,170.6070045455344,0,0,0,-18.653454421476518,169.58419336172193Z" fill-rule="evenodd" style="fill: #1DC690; stroke: #fff; opacity: 1;" id="p-type-logs"></path><path d="M-22.57322223360818,195.70245179351264A197,197,0,0,1,-23.606660752858183,195.58048360738724L-20.44396791049627,169.3776672884433A170.6070045455344,170.6070045455344,0,0,0,-19.548983899576392,169.4832948360814Z" fill-rule="evenodd" style="fill: #1DC690; stroke: #fff; opacity: 1;" id="p-type-logs"></path><path d="M-23.606660752858183,195.58048360738724A197,197,0,0,1,-24.6394405852559,195.45305822024284L-21.338381481868925,169.2673136660892A170.6070045455344,170.6070045455344,0,0,0,-20.44396791049627,169.3776672884433Z" fill-rule="evenodd" style="fill: #1DC690; stroke: #fff; opacity: 1;" id="p-type-logs"></path><path d="M-24.6394405852559,195.45305822024284A197,197,0,0,1,-25.671532913574545,195.32017918757717L-22.2321996572439,169.15223704817043A170.6070045455344,170.6070045455344,0,0,0,-21.338381481868925,169.2673136660892Z" fill-rule="evenodd" style="fill: #1DC690; stroke: #fff; opacity: 1;" id="p-type-logs"></path><path d="M-25.671532913574545,195.32017918757717A197,197,0,0,1,-26.70290893977045,195.1818502170587L-23.125397496783798,169.03244064562207A170.6070045455344,170.6070045455344,0,0,0,-22.2321996572439,169.15223704817043Z" fill-rule="evenodd" style="fill: #1DC690; stroke: #fff; opacity: 1;" id="p-type-logs"></path><path d="M-26.70290893977045,195.1818502170587A197,197,0,0,1,-27.733539885786627,195.03807516842315L-24.017950077960197,168.90792780107336A170.6070045455344,170.6070045455344,0,0,0,-23.125397496783798,169.03244064562207Z" fill-rule="evenodd" style="fill: #1DC690; stroke: #fff; opacity: 1;" id="p-type-logs"></path><path d="M-27.733539885786627,195.03807516842315A197,197,0,0,1,-28.76339699435578,194.8888580533661L-24.90983249624907,168.77870198875453A170.6070045455344,170.6070045455344,0,0,0,-24.017950077960197,168.90792780107336Z" fill-rule="evenodd" style="fill: #1DC690; stroke: #fff; opacity: 1;" id="p-type-logs"></path><path d="M-28.76339699435578,194.8888580533661A197,197,0,0,1,-29.79245152980264,194.73420303543074L-25.801019865825648,168.64476681439976A170.6070045455344,170.6070045455344,0,0,0,-24.90983249624907,168.77870198875453Z" fill-rule="evenodd" style="fill: #1DC690; stroke: #fff; opacity: 1;" id="p-type-logs"></path><path d="M-29.79245152980264,194.73420303543074A197,197,0,0,1,-30.82067477884584,194.57411442989175L-26.691487320258833,168.50612601514658A170.6070045455344,170.6070045455344,0,0,0,-25.801019865825648,168.64476681439976Z" fill-rule="evenodd" style="fill: #1DC690; stroke: #fff; opacity: 1;" id="p-type-logs"></path><path d="M-30.82067477884584,194.57411442989175A197,197,0,0,1,-31.848038051399023,194.40859670363508L-27.581210013205006,168.36278345943165A170.6070045455344,170.6070045455344,0,0,0,-26.691487320258833,168.50612601514658Z" fill-rule="evenodd" style="fill: #1DC690; stroke: #fff; opacity: 1;" id="p-type-logs"></path><path d="M-31.848038051399023,194.40859670363508A197,197,0,0,1,-32.87451268137141,194.2376544750331L-28.47016311910132,168.21474314688282A170.6070045455344,170.6070045455344,0,0,0,-27.581210013205006,168.36278345943165Z" fill-rule="evenodd" style="fill: #1DC690; stroke: #fff; opacity: 1;" id="p-type-logs"></path><path d="M-32.87451268137141,194.2376544750331A197,197,0,0,1,-33.90007002746764,194.06129251381583L-29.358321833858408,168.0620092082074A170.6070045455344,170.6070045455344,0,0,0,-28.47016311910132,168.21474314688282Z" fill-rule="evenodd" style="fill: #1DC690; stroke: #fff; opacity: 1;" id="p-type-logs"></path><path d="M-33.90007002746764,194.06129251381583A197,197,0,0,1,-34.92468147398696,193.8795157409378L-30.24566137555246,167.90458590507708A170.6070045455344,170.6070045455344,0,0,0,-29.358321833858408,168.0620092082074Z" fill-rule="evenodd" style="fill: #1DC690; stroke: #fff; opacity: 1;" id="p-type-logs"></path><path d="M-34.92468147398696,193.8795157409378A197,197,0,0,1,-35.948318431621644,193.69232922844085L-31.13215698511671,167.74247763000892A170.6070045455344,170.6070045455344,0,0,0,-30.24566137555246,167.90458590507708Z" fill-rule="evenodd" style="fill: #1DC690; stroke: #fff; opacity: 1;" id="p-type-logs"></path><path d="M-35.948318431621644,193.69232922844085A197,197,0,0,1,-36.97095233825473,193.49973819931256L-32.01778392703229,167.57568890624282A170.6070045455344,170.6070045455344,0,0,0,-31.13215698511671,167.74247763000892Z" fill-rule="evenodd" style="fill: #1DC690; stroke: #fff; opacity: 1;" id="p-type-logs"></path><path d="M-36.97095233825473,193.49973819931256A197,197,0,0,1,-37.992554659756976,193.30174802734035L-32.90251749001839,167.40422438761524A170.6070045455344,170.6070045455344,0,0,0,-32.01778392703229,167.57568890624282Z" fill-rule="evenodd" style="fill: #1DC690; stroke: #fff; opacity: 1;" id="p-type-logs"></path><path d="M-37.992554659756976,193.30174802734035A197,197,0,0,1,-39.01309689078302,193.09836423696183L-33.78633298772179,167.22808885842946A170.6070045455344,170.6070045455344,0,0,0,-32.90251749001839,167.40422438761524Z" fill-rule="evenodd" style="fill: #1DC690; stroke: #fff; opacity: 1;" id="p-type-logs"></path><path d="M-39.01309689078302,193.09836423696183A197,197,0,0,1,-40.032550555566786,192.8895925031104L-34.66920575940568,167.047287233322A170.6070045455344,170.6070045455344,0,0,0,-33.78633298772179,167.22808885842946Z" fill-rule="evenodd" style="fill: #1DC690; stroke: #fff; opacity: 1;" id="p-type-logs"></path><path d="M-40.032550555566786,192.8895925031104A197,197,0,0,1,-41.05088720871597,192.67543865105714L-35.5511111706377,166.8618245571256A170.6070045455344,170.6070045455344,0,0,0,-34.66920575940568,167.047287233322Z" fill-rule="evenodd" style="fill: #1DC690; stroke: #fff; opacity: 1;" id="p-type-logs"></path><path d="M-41.05088720871597,192.67543865105714A197,197,0,0,1,-42.06807843600583,192.45590865624797L-36.43202461397738,166.67170600472818A170.6070045455344,170.6070045455344,0,0,0,-35.5511111706377,166.8618245571256Z" fill-rule="evenodd" style="fill: #1DC690; stroke: #fff; opacity: 1;" id="p-type-logs"></path><path d="M-42.06807843600583,192.45590865624797A197,197,0,0,1,-43.08409585517193,192.2310086441372L-37.311921509662724,166.47693688092883A170.6070045455344,170.6070045455344,0,0,0,-36.43202461397738,166.67170600472818Z" fill-rule="evenodd" style="fill: #1DC690; stroke: #fff; opacity: 1;" id="p-type-logs"></path><path d="M-43.08409585517193,192.2310086441372A197,197,0,0,1,-44.098911116702126,192.0007448900165L-38.19077730629603,166.27752262028955A170.6070045455344,170.6070045455344,0,0,0,-37.311921509662724,166.47693688092883Z" fill-rule="evenodd" style="fill: #1DC690; stroke: #fff; opacity: 1;" id="p-type-logs"></path><path d="M-44.098911116702126,192.0007448900165A197,197,0,0,1,-45.112495904627586,191.7651238188398L-39.06856748152894,166.0734687869836A170.6070045455344,170.6070045455344,0,0,0,-38.19077730629603,166.27752262028955Z" fill-rule="evenodd" style="fill: #1DC690; stroke: #fff; opacity: 1;" id="p-type-logs"></path><path d="M-45.112495904627586,191.7651238188398A197,197,0,0,1,-46.12482193731285,191.52415200504396L-39.94526754274669,165.8647810746404A170.6070045455344,170.6070045455344,0,0,0,-39.06856748152894,166.0734687869836Z" fill-rule="evenodd" style="fill: #1DC690; stroke: #fff; opacity: 1;" id="p-type-logs"></path><path d="M-46.12482193731285,191.52415200504396A197,197,0,0,1,-47.13586096824502,191.27783617236545L-40.820853027751554,165.65146530618648A170.6070045455344,170.6070045455344,0,0,0,-39.94526754274669,165.8647810746404Z" fill-rule="evenodd" style="fill: #1DC690; stroke: #fff; opacity: 1;" id="p-type-logs"></path><path d="M-47.13586096824502,191.27783617236545A197,197,0,0,1,-48.145584786821836,191.02618319365266L-41.695299505445305,165.4335274336832A170.6070045455344,170.6070045455344,0,0,0,-40.820853027751554,165.65146530618648Z" fill-rule="evenodd" style="fill: #1DC690; stroke: #fff; opacity: 1;" id="p-type-logs"></path><path d="M-48.145584786821836,191.02618319365266A197,197,0,0,1,-49.153965219138875,190.7692000906742L-42.568582576511,165.21097353816046A170.6070045455344,170.6070045455344,0,0,0,-41.695299505445305,165.4335274336832Z" fill-rule="evenodd" style="fill: #1DC690; stroke: #fff; opacity: 1;" id="p-type-logs"></path><path d="M-49.153965219138875,190.7692000906742A197,197,0,0,1,-50.16097412877568,190.50689403392283L-43.44067787409374,164.98380982944727A170.6070045455344,170.6070045455344,0,0,0,-42.568582576511,165.21097353816046Z" fill-rule="evenodd" style="fill: #1DC690; stroke: #fff; opacity: 1;" id="p-type-logs"></path><path d="M-50.16097412877568,190.50689403392283A197,197,0,0,1,-51.1665834175808,190.23927234241555L-44.31156106448057,164.75204264599822A170.6070045455344,170.6070045455344,0,0,0,-43.44067787409374,164.98380982944727Z" fill-rule="evenodd" style="fill: #1DC690; stroke: #fff; opacity: 1;" id="p-type-logs"></path><path d="M-51.1665834175808,190.23927234241555A197,197,0,0,1,-52.170765026455825,189.96634248348926L-45.181207847779476,164.51567845471675A170.6070045455344,170.6070045455344,0,0,0,-44.31156106448057,164.75204264599822Z" fill-rule="evenodd" style="fill: #1DC690; stroke: #fff; opacity: 1;" id="p-type-logs"></path><path d="M-52.170765026455825,189.96634248348926A197,197,0,0,1,-53.173490936138315,189.68811207259253L-46.04959395859737,164.2747238507748A170.6070045455344,170.6070045455344,0,0,0,-45.181207847779476,164.51567845471675Z" fill-rule="evenodd" style="fill: #1DC690; stroke: #fff; opacity: 1;" id="p-type-logs"></path><path d="M-53.173490936138315,189.68811207259253A197,197,0,0,1,-54.17473316798361,189.40458887307292L-46.916695166717226,164.02918555742858A170.6070045455344,170.6070045455344,0,0,0,-46.04959395859737,164.2747238507748Z" fill-rule="evenodd" style="fill: #1DC690; stroke: #fff; opacity: 1;" id="p-type-logs"></path><path d="M-54.17473316798361,189.40458887307292A197,197,0,0,1,-55.17446378474546,189.11578079596057L-47.782487277774074,163.77907042583115A170.6070045455344,170.6070045455344,0,0,0,-46.916695166717226,164.02918555742858Z" fill-rule="evenodd" style="fill: #1DC690; stroke: #fff; opacity: 1;" id="p-type-logs"></path><path d="M-55.17446378474546,189.11578079596057A197,197,0,0,1,-56.17265489135561,188.82169589974734L-48.646946133930165,163.52438543484118A170.6070045455344,170.6070045455344,0,0,0,-47.782487277774074,163.77907042583115Z" fill-rule="evenodd" style="fill: #1DC690; stroke: #fff; opacity: 1;" id="p-type-logs"></path><path d="M-56.17265489135561,188.82169589974734A197,197,0,0,1,-57.169278635702135,188.52234239016195L-49.510047614549016,163.2651376908282A170.6070045455344,170.6070045455344,0,0,0,-48.646946133930165,163.52438543484118Z" fill-rule="evenodd" style="fill: #1DC690; stroke: #fff; opacity: 1;" id="p-type-logs"></path><path d="M-57.169278635702135,188.52234239016195A197,197,0,0,1,-58.1643072094065,188.21772861994106L-50.371767636868405,163.00133442747435A170.6070045455344,170.6070045455344,0,0,0,-49.510047614549016,163.2651376908282Z" fill-rule="evenodd" style="fill: #1DC690; stroke: #fff; opacity: 1;" id="p-type-logs"></path><path d="M-58.1643072094065,188.21772861994106A197,197,0,0,1,-59.15771284859966,187.90786308859623L-51.23208215667239,162.73298300557258A170.6070045455344,170.6070045455344,0,0,0,-50.371767636868405,163.00133442747435Z" fill-rule="evenodd" style="fill: #1DC690; stroke: #fff; opacity: 1;" id="p-type-logs"></path><path d="M-59.15771284859966,187.90786308859623A197,197,0,0,1,-60.14946783469653,187.5927544421767L-52.090967168962166,162.4600909128211A170.6070045455344,170.6070045455344,0,0,0,-51.23208215667239,162.73298300557258Z" fill-rule="evenodd" style="fill: #1DC690; stroke: #fff; opacity: 1;" id="p-type-logs"></path><path d="M-60.14946783469653,187.5927544421767A197,197,0,0,1,-61.139544495169574,187.27241147302817L-52.94839870862588,162.18266576361478A170.6070045455344,170.6070045455344,0,0,0,-52.090967168962166,162.4600909128211Z" fill-rule="evenodd" style="fill: #1DC690; stroke: #fff; opacity: 1;" id="p-type-logs"></path><path d="M-61.139544495169574,187.27241147302817A197,197,0,0,1,-62.12791520432089,186.94684311954754L-53.80435285110736,161.90071529883224A170.6070045455344,170.6070045455344,0,0,0,-52.94839870862588,162.18266576361478Z" fill-rule="evenodd" style="fill: #1DC690; stroke: #fff; opacity: 1;" id="p-type-logs"></path><path d="M-62.12791520432089,186.94684311954754A197,197,0,0,1,-63.11455238405296,186.6160584659333L-54.65880571307357,161.61424738562027A170.6070045455344,170.6070045455344,0,0,0,-53.80435285110736,161.90071529883224Z" fill-rule="evenodd" style="fill: #1DC690; stroke: #fff; opacity: 1;" id="p-type-logs"></path><path d="M-63.11455238405296,186.6160584659333A197,197,0,0,1,-64.0994285046383,186.28006674193233L-55.51173345308114,161.32327001717414A170.6070045455344,170.6070045455344,0,0,0,-54.65880571307357,161.61424738562027Z" fill-rule="evenodd" style="fill: #1DC690; stroke: #fff; opacity: 1;" id="p-type-logs"></path><path d="M-64.0994285046383,186.28006674193233A197,197,0,0,1,-65.08251608548747,185.9388773225822L-56.36311227224151,161.02779131251444A170.6070045455344,170.6070045455344,0,0,0,-55.51173345308114,161.32327001717414Z" fill-rule="evenodd" style="fill: #1DC690; stroke: #fff; opacity: 1;" id="p-type-logs"></path><path d="M-65.08251608548747,185.9388773225822A197,197,0,0,1,-66.06378769591592,185.59249972794953L-57.21291841488502,160.7278195162608A170.6070045455344,170.6070045455344,0,0,0,-56.36311227224151,161.02779131251444Z" fill-rule="evenodd" style="fill: #1DC690; stroke: #fff; opacity: 1;" id="p-type-logs"></path><path d="M-66.06378769591592,185.59249972794953A197,197,0,0,1,-67.0432159559094,185.2409436228646L-58.06112816922376,160.42336299840173A170.6070045455344,170.6070045455344,0,0,0,-57.21291841488502,160.7278195162608Z" fill-rule="evenodd" style="fill: #1DC690; stroke: #fff; opacity: 1;" id="p-type-logs"></path><path d="M-67.0432159559094,185.2409436228646A197,197,0,0,1,-68.02077353688787,184.88421881665133L-58.90771786801318,160.11443025406098A170.6070045455344,170.6070045455344,0,0,0,-58.06112816922376,160.42336299840173Z" fill-rule="evenodd" style="fill: #1DC690; stroke: #fff; opacity: 1;" id="p-type-logs"></path><path d="M-68.02077353688787,184.88421881665133A197,197,0,0,1,-68.9964331624681,184.52233526285394L-59.752663889212464,159.80102990326066A170.6070045455344,170.6070045455344,0,0,0,-58.90771786801318,160.11443025406098Z" fill-rule="evenodd" style="fill: #1DC690; stroke: #fff; opacity: 1;" id="p-type-logs"></path><path d="M-68.9964331624681,184.52233526285394A197,197,0,0,1,-69.97016760922466,184.15530305895894L-60.595942656643636,159.48317069068057A170.6070045455344,170.6070045455344,0,0,0,-59.752663889212464,159.80102990326066Z" fill-rule="evenodd" style="fill: #1DC690; stroke: #fff; opacity: 1;" id="p-type-logs"></path><path d="M-69.97016760922466,184.15530305895894A197,197,0,0,1,-70.94194970744967,183.78313244611346L-61.43753064064943,159.16086148541436A170.6070045455344,170.6070045455344,0,0,0,-60.595942656643636,159.48317069068057Z" fill-rule="evenodd" style="fill: #1DC690; stroke: #fff; opacity: 1;" id="p-type-logs"></path><path d="M-70.94194970744967,183.78313244611346A197,197,0,0,1,-71.91175234191074,183.40583380883962L-62.277404358749806,158.83411128072197A170.6070045455344,170.6070045455344,0,0,0,-61.43753064064943,159.16086148541436Z" fill-rule="evenodd" style="fill: #1DC690; stroke: #fff; opacity: 1;" id="p-type-logs"></path><path d="M-71.91175234191074,183.40583380883962A197,197,0,0,1,-72.87954845260771,183.02341767474456L-63.11554037629715,158.50292919377864A170.6070045455344,170.6070045455344,0,0,0,-62.277404358749806,158.83411128072197Z" fill-rule="evenodd" style="fill: #1DC690; stroke: #fff; opacity: 1;" id="p-type-logs"></path><path d="M-72.87954845260771,183.02341767474456A197,197,0,0,1,-73.84531103552756,182.63589471422696L-63.95191530713021,158.16732446542062A170.6070045455344,170.6070045455344,0,0,0,-63.11554037629715,158.50292919377864Z" fill-rule="evenodd" style="fill: #1DC690; stroke: #fff; opacity: 1;" id="p-type-logs"></path><path d="M-73.84531103552756,182.63589471422696A197,197,0,0,1,-74.80901314339796,182.243275740179L-64.7865058142266,157.8273064598873A170.6070045455344,170.6070045455344,0,0,0,-63.95191530713021,158.16732446542062Z" fill-rule="evenodd" style="fill: #1DC690; stroke: #fff; opacity: 1;" id="p-type-logs"></path><path d="M-74.80901314339796,182.243275740179A197,197,0,0,1,-75.77062788643921,181.84557170768488L-65.61928861035396,157.4828846645599A170.6070045455344,170.6070045455344,0,0,0,-64.7865058142266,157.8273064598873Z" fill-rule="evenodd" style="fill: #1DC690; stroke: #fff; opacity: 1;" id="p-type-logs"></path><path d="M-75.77062788643921,181.84557170768488A197,197,0,0,1,-76.73012843311443,181.4427937137151L-66.45024045871976,157.1340686896967A170.6070045455344,170.6070045455344,0,0,0,-65.61928861035396,157.4828846645599Z" fill-rule="evenodd" style="fill: #1DC690; stroke: #fff; opacity: 1;" id="p-type-logs"></path><path d="M-76.73012843311443,181.4427937137151A197,197,0,0,1,-77.68748801087828,181.0349529968167L-67.27933817361959,156.78086826816508A170.6070045455344,170.6070045455344,0,0,0,-66.45024045871976,157.1340686896967Z" fill-rule="evenodd" style="fill: #1DC690; stroke: #fff; opacity: 1;" id="p-type-logs"></path><path d="M-77.68748801087828,181.0349529968167A197,197,0,0,1,-78.64267990692403,180.62206093679998L-68.10655862108425,156.42329325516968A170.6070045455344,170.6070045455344,0,0,0,-67.27933817361959,156.78086826816508Z" fill-rule="evenodd" style="fill: #1DC690; stroke: #fff; opacity: 1;" id="p-type-logs"></path><path d="M-78.64267990692403,180.62206093679998A197,197,0,0,1,-79.59567746892886,180.20412905442052L-68.93187871952506,156.06135362797764A170.6070045455344,170.6070045455344,0,0,0,-68.10655862108425,156.42329325516968Z" fill-rule="evenodd" style="fill: #1DC690; stroke: #fff; opacity: 1;" id="p-type-logs"></path><path d="M-79.59567746892886,180.20412905442052A197,197,0,0,1,-80.5464541057975,179.78116901105815L-69.75527544037803,155.69505948564006A170.6070045455344,170.6070045455344,0,0,0,-68.93187871952506,156.06135362797764Z" fill-rule="evenodd" style="fill: #1DC690; stroke: #fff; opacity: 1;" id="p-type-logs"></path><path d="M-80.5464541057975,179.78116901105815A197,197,0,0,1,-81.49498328840428,179.35319260839128L-70.5767258087464,155.32442104871026A170.6070045455344,170.6070045455344,0,0,0,-69.75527544037803,155.69505948564006Z" fill-rule="evenodd" style="fill: #1DC690; stroke: #fff; opacity: 1;" id="p-type-logs"></path><path d="M-81.49498328840428,179.35319260839128A197,197,0,0,1,-82.44123855033331,178.9202117880678L-71.39620690404163,154.9494486589587A170.6070045455344,170.6070045455344,0,0,0,-70.5767258087464,155.32442104871026Z" fill-rule="evenodd" style="fill: #1DC690; stroke: #fff; opacity: 1;" id="p-type-logs"></path><path d="M-82.44123855033331,178.9202117880678A197,197,0,0,1,-83.3851934886169,178.48223863137173L-72.213695860623,154.57015277908422A170.6070045455344,170.6070045455344,0,0,0,-71.39620690404163,154.9494486589587Z" fill-rule="evenodd" style="fill: #1DC690; stroke: #fff; opacity: 1;" id="p-type-logs"></path><path d="M-83.3851934886169,178.48223863137173A197,197,0,0,1,-84.32682176447246,178.03928535888616L-73.02916986843564,154.1865439924223A170.6070045455344,170.6070045455344,0,0,0,-72.213695860623,154.57015277908422Z" fill-rule="evenodd" style="fill: #1DC690; stroke: #fff; opacity: 1;" id="p-type-logs"></path><path d="M-84.32682176447246,178.03928535888616A197,197,0,0,1,-85.26609710403717,177.59136433015235L-73.84260617364694,153.79863300264952A170.6070045455344,170.6070045455344,0,0,0,-73.02916986843564,154.1865439924223Z" fill-rule="evenodd" style="fill: #1DC690; stroke: #fff; opacity: 1;" id="p-type-logs"></path><path d="M-154.54769412076962,122.16386635152404A197,197,0,0,1,-155.190840666094,121.34579915823632L-134.39921045150052,105.088544713557A170.6070045455344,170.6070045455344,0,0,0,-133.84222920489344,105.7970116849468Z" fill-rule="evenodd" style="fill: #D7A449; stroke: #fff; opacity: 1;" id="p-type-tokenTransfers"></path><path d="M-155.190840666094,121.34579915823632A197,197,0,0,1,-155.82965698583453,120.52434610350372L-134.95244161274792,104.37714550014223A170.6070045455344,170.6070045455344,0,0,0,-134.39921045150052,105.088544713557Z" fill-rule="evenodd" style="fill: #D7A449; stroke: #fff; opacity: 1;" id="p-type-tokenTransfers"></path><path d="M-155.82965698583453,120.52434610350372A197,197,0,0,1,-156.46412525536473,119.69953010798974L-135.5019072520562,103.66283389457938A170.6070045455344,170.6070045455344,0,0,0,-134.95244161274792,104.37714550014223Z" fill-rule="evenodd" style="fill: #D7A449; stroke: #fff; opacity: 1;" id="p-type-tokenTransfers"></path><path d="M-156.46412525536473,119.69953010798974A197,197,0,0,1,-157.0942277713799,118.87137418619257L-136.04759203791386,102.9456298280085A170.6070045455344,170.6070045455344,0,0,0,-135.5019072520562,103.66283389457938Z" fill-rule="evenodd" style="fill: #D7A449; stroke: #fff; opacity: 1;" id="p-type-tokenTransfers"></path><path d="M-157.0942277713799,118.87137418619257A197,197,0,0,1,-157.71994695239124,118.03990144580305L-136.58948074430486,102.22555331227693A170.6070045455344,170.6070045455344,0,0,0,-136.04759203791386,102.9456298280085Z" fill-rule="evenodd" style="fill: #D7A449; stroke: #fff; opacity: 1;" id="p-type-tokenTransfers"></path><path d="M-157.71994695239124,118.03990144580305A197,197,0,0,1,-158.34126533921622,117.20513508705974L-137.12755825113365,101.50262443938058A170.6070045455344,170.6070045455344,0,0,0,-136.58948074430486,102.22555331227693Z" fill-rule="evenodd" style="fill: #D7A449; stroke: #fff; opacity: 1;" id="p-type-tokenTransfers"></path><path d="M-158.34126533921622,117.20513508705974A197,197,0,0,1,-158.95816559546594,116.36709840210173L-137.66180954464704,100.77686338090366A170.6070045455344,170.6070045455344,0,0,0,-137.12755825113365,101.50262443938058Z" fill-rule="evenodd" style="fill: #D7A449; stroke: #fff; opacity: 1;" id="p-type-tokenTransfers"></path><path d="M-158.95816559546594,116.36709840210173A197,197,0,0,1,-159.57063050802867,115.52581477431868L-138.192219717853,100.0482903874556A170.6070045455344,170.6070045455344,0,0,0,-137.66180954464704,100.77686338090366Z" fill-rule="evenodd" style="fill: #D7A449; stroke: #fff; opacity: 1;" id="p-type-tokenTransfers"></path><path d="M-159.57063050802867,115.52581477431868A197,197,0,0,1,-160.17864298755035,114.68130767769824L-138.71877397093672,99.31692578810606A170.6070045455344,170.6070045455344,0,0,0,-138.192219717853,100.0482903874556Z" fill-rule="evenodd" style="fill: #D7A449; stroke: #fff; opacity: 1;" id="p-type-tokenTransfers"></path><path d="M-160.17864298755035,114.68130767769824A197,197,0,0,1,-160.7821860689112,113.83360067617127L-139.24145761167355,98.58278998981778A170.6070045455344,170.6070045455344,0,0,0,-138.71877397093672,99.31692578810606Z" fill-rule="evenodd" style="fill: #D7A449; stroke: #fff; opacity: 1;" id="p-type-tokenTransfers"></path><path d="M-160.7821860689112,113.83360067617127A197,197,0,0,1,-161.38124291169922,112.98271742295425L-139.76025605583888,97.84590347687708A170.6070045455344,170.6070045455344,0,0,0,-139.24145761167355,98.58278998981778Z" fill-rule="evenodd" style="fill: #D7A449; stroke: #fff; opacity: 1;" id="p-type-tokenTransfers"></path><path d="M-161.38124291169922,112.98271742295425A197,197,0,0,1,-161.97579680068011,112.12868165988924L-140.27515482761518,97.10628681032236A170.6070045455344,170.6070045455344,0,0,0,-139.76025605583888,97.84590347687708Z" fill-rule="evenodd" style="fill: #D7A449; stroke: #fff; opacity: 1;" id="p-type-tokenTransfers"></path><path d="M-161.97579680068011,112.12868165988924A197,197,0,0,1,-162.56583114626363,111.27151721678149L-140.78613955999583,96.3639606273703A170.6070045455344,170.6070045455344,0,0,0,-140.27515482761518,97.10628681032236Z" fill-rule="evenodd" style="fill: #D7A449; stroke: #fff; opacity: 1;" id="p-type-tokenTransfers"></path><path d="M-162.56583114626363,111.27151721678149A197,197,0,0,1,-163.1513294849664,110.41124801073455L-141.293195995186,95.61894564084018A170.6070045455344,170.6070045455344,0,0,0,-140.78613955999583,96.3639606273703Z" fill-rule="evenodd" style="fill: #D7A449; stroke: #fff; opacity: 1;" id="p-type-tokenTransfers"></path><path d="M-163.1513294849664,110.41124801073455A197,197,0,0,1,-163.73227547987142,109.5478980454828L-141.7963099850006,94.87126263857576A170.6070045455344,170.6070045455344,0,0,0,-141.293195995186,95.61894564084018Z" fill-rule="evenodd" style="fill: #D7A449; stroke: #fff; opacity: 1;" id="p-type-tokenTransfers"></path><path d="M-163.73227547987142,109.5478980454828A197,197,0,0,1,-164.30865292108385,108.68149141072185L-142.29546749125882,94.12093248286538A170.6070045455344,170.6070045455344,0,0,0,-141.7963099850006,94.87126263857576Z" fill-rule="evenodd" style="fill: #D7A449; stroke: #fff; opacity: 1;" id="p-type-tokenTransfers"></path><path d="M-164.30865292108385,108.68149141072185A197,197,0,0,1,-164.88044572618324,107.81205228143627L-142.79065458617606,93.36797610985984A170.6070045455344,170.6070045455344,0,0,0,-142.29546749125882,94.12093248286538Z" fill-rule="evenodd" style="fill: #D7A449; stroke: #fff; opacity: 1;" id="p-type-tokenTransfers"></path><path d="M-164.88044572618324,107.81205228143627A197,197,0,0,1,-165.44763794067242,106.93960491722498L-143.28185745275243,92.61241452898811A170.6070045455344,170.6070045455344,0,0,0,-142.79065458617606,93.36797610985984Z" fill-rule="evenodd" style="fill: #D7A449; stroke: #fff; opacity: 1;" id="p-type-tokenTransfers"></path><path d="M-165.44763794067242,106.93960491722498A197,197,0,0,1,-166.01021373842258,106.06417366162455L-143.76906238515838,91.85426882237121A170.6070045455344,170.6070045455344,0,0,0,-143.28185745275243,92.61241452898811Z" fill-rule="evenodd" style="fill: #D7A449; stroke: #fff; opacity: 1;" id="p-type-tokenTransfers"></path><path d="M-166.01021373842258,106.06417366162455A197,197,0,0,1,-166.5681574221148,105.18578294142976L-144.25225578911693,91.09356014423403A170.6070045455344,170.6070045455344,0,0,0,-143.76906238515838,91.85426882237121Z" fill-rule="evenodd" style="fill: #D7A449; stroke: #fff; opacity: 1;" id="p-type-tokenTransfers"></path><path d="M-166.5681574221148,105.18578294142976A197,197,0,0,1,-167.1214534236782,104.30445726601215L-144.73142418228318,90.3303097203149A170.6070045455344,170.6070045455344,0,0,0,-144.25225578911693,91.09356014423403Z" fill-rule="evenodd" style="fill: #D7A449; stroke: #fff; opacity: 1;" id="p-type-tokenTransfers"></path><path d="M-167.1214534236782,104.30445726601215A197,197,0,0,1,-167.6700863047242,103.42022122663604L-145.20655419462045,89.56453884727344A170.6070045455344,170.6070045455344,0,0,0,-144.73142418228318,90.3303097203149Z" fill-rule="evenodd" style="fill: #D7A449; stroke: #fff; opacity: 1;" id="p-type-tokenTransfers"></path><path d="M-167.6700863047242,103.42022122663604A197,197,0,0,1,-168.2140407569773,102.53309949577249L-145.67763256877328,88.79626889209639A170.6070045455344,170.6070045455344,0,0,0,-145.20655419462045,89.56453884727344Z" fill-rule="evenodd" style="fill: #D7A449; stroke: #fff; opacity: 1;" id="p-type-tokenTransfers"></path><path d="M-168.2140407569773,102.53309949577249A197,197,0,0,1,-168.75330160270235,101.64311682641072L-146.14464616043745,88.02552129150122A170.6070045455344,170.6070045455344,0,0,0,-145.67763256877328,88.79626889209639Z" fill-rule="evenodd" style="fill: #D7A449; stroke: #fff; opacity: 1;" id="p-type-tokenTransfers"></path><path d="M-168.75330160270235,101.64311682641072A197,197,0,0,1,-169.28785379512786,100.75029805136765L-146.6075819387266,87.25231755133821A170.6070045455344,170.6070045455344,0,0,0,-146.14464616043745,88.02552129150122Z" fill-rule="evenodd" style="fill: #D7A449; stroke: #fff; opacity: 1;" id="p-type-tokenTransfers"></path><path d="M-169.28785379512786,100.75029805136765A197,197,0,0,1,-169.81768241886599,99.85466808259477L-147.066426986536,86.47667924599024A170.6070045455344,170.6070045455344,0,0,0,-146.6075819387266,87.25231755133821Z" fill-rule="evenodd" style="fill: #D7A449; stroke: #fff; opacity: 1;" id="p-type-tokenTransfers"></path><path d="M-169.81768241886599,99.85466808259477A197,197,0,0,1,-170.3427726903287,98.9562519104832L-147.52116850090275,85.69862801777084A170.6070045455344,170.6070045455344,0,0,0,-147.066426986536,86.47667924599024Z" fill-rule="evenodd" style="fill: #D7A449; stroke: #fff; opacity: 1;" id="p-type-tokenTransfers"></path><path d="M-170.3427726903287,98.9562519104832A197,197,0,0,1,-170.86310995814014,98.05507460316633L-147.97179379336325,84.91818557632037A170.6070045455344,170.6070045455344,0,0,0,-147.52116850090275,85.69862801777084Z" fill-rule="evenodd" style="fill: #D7A449; stroke: #fff; opacity: 1;" id="p-type-tokenTransfers"></path><path d="M-170.86310995814014,98.05507460316633A197,197,0,0,1,-171.3786797035456,97.15116130582035L-148.41829029030706,84.1353736980002A170.6070045455344,170.6070045455344,0,0,0,-147.97179379336325,84.91818557632037Z" fill-rule="evenodd" style="fill: #D7A449; stroke: #fff; opacity: 1;" id="p-type-tokenTransfers"></path><path d="M-171.3786797035456,97.15116130582035A197,197,0,0,1,-171.8894675408166,96.24453723996264L-148.86064553332784,83.35021422528509A170.6070045455344,170.6070045455344,0,0,0,-148.41829029030706,84.1353736980002Z" fill-rule="evenodd" style="fill: #D7A449; stroke: #fff; opacity: 1;" id="p-type-tokenTransfers"></path><path d="M-171.8894675408166,96.24453723996264A197,197,0,0,1,-172.39545921765222,95.33522770274801L-149.29884717957097,82.56272906615375A170.6070045455344,170.6070045455344,0,0,0,-148.86064553332784,83.35021422528509Z" fill-rule="evenodd" style="fill: #D7A449; stroke: #fff; opacity: 1;" id="p-type-tokenTransfers"></path><path d="M-172.39545921765222,95.33522770274801A197,197,0,0,1,-172.89664061557679,94.42325806626293L-149.73288300207784,81.77294019347761A170.6070045455344,170.6070045455344,0,0,0,-149.29884717957097,82.56272906615375Z" fill-rule="evenodd" style="fill: #D7A449; stroke: #fff; opacity: 1;" id="p-type-tokenTransfers"></path><path d="M-172.89664061557679,94.42325806626293A197,197,0,0,1,-173.39299775033388,93.50865377681744L-150.16274089012714,80.9808696444076A170.6070045455344,170.6070045455344,0,0,0,-149.73288300207784,81.77294019347761Z" fill-rule="evenodd" style="fill: #D7A449; stroke: #fff; opacity: 1;" id="p-type-tokenTransfers"></path><path d="M-173.39299775033388,93.50865377681744A197,197,0,0,1,-173.88451677227647,92.59144035423525L-150.58840884957272,80.18653951975935A170.6070045455344,170.6070045455344,0,0,0,-150.16274089012714,80.9808696444076Z" fill-rule="evenodd" style="fill: #D7A449; stroke: #fff; opacity: 1;" id="p-type-tokenTransfers"></path><path d="M-173.88451677227647,92.59144035423525A197,197,0,0,1,-174.37118396675342,91.6716433911416L-151.00987500317825,79.38997198339648A170.6070045455344,170.6070045455344,0,0,0,-150.58840884957272,80.18653951975935Z" fill-rule="evenodd" style="fill: #D7A449; stroke: #fff; opacity: 1;" id="p-type-tokenTransfers"></path><path d="M-174.37118396675342,91.6716433911416A197,197,0,0,1,-174.85298575449207,90.74928855224923L-151.4271275909487,78.59118926161216A170.6070045455344,170.6070045455344,0,0,0,-151.00987500317825,79.38997198339648Z" fill-rule="evenodd" style="fill: #D7A449; stroke: #fff; opacity: 1;" id="p-type-tokenTransfers"></path><path d="M-174.85298575449207,90.74928855224923A197,197,0,0,1,-175.32990869197724,89.82440157364216L-151.84015497045834,77.79021364250902A170.6070045455344,170.6070045455344,0,0,0,-151.4271275909487,78.59118926161216Z" fill-rule="evenodd" style="fill: #D7A449; stroke: #fff; opacity: 1;" id="p-type-tokenTransfers"></path><path d="M-175.32990869197724,89.82440157364216A197,197,0,0,1,-175.8019394718262,88.89700826205774L-152.2489456171757,76.98706747537713A170.6070045455344,170.6070045455344,0,0,0,-151.84015497045834,77.79021364250902Z" fill-rule="evenodd" style="fill: #D7A449; stroke: #fff; opacity: 1;" id="p-type-tokenTransfers"></path><path d="M-175.8019394718262,88.89700826205774A197,197,0,0,1,-176.26906492316013,87.9671344941664L-152.65348812478518,76.18177317007047A170.6070045455344,170.6070045455344,0,0,0,-152.2489456171757,76.98706747537713Z" fill-rule="evenodd" style="fill: #D7A449; stroke: #fff; opacity: 1;" id="p-type-tokenTransfers"></path><path d="M-176.26906492316013,87.9671344941664A197,197,0,0,1,-176.73127201197153,87.03480621584978L-153.05377120550511,75.37435319638168A170.6070045455344,170.6070045455344,0,0,0,-152.65348812478518,76.18177317007047Z" fill-rule="evenodd" style="fill: #D7A449; stroke: #fff; opacity: 1;" id="p-type-tokenTransfers"></path><path d="M-176.73127201197153,87.03480621584978A197,197,0,0,1,-177.18854784148797,86.10004944147668L-153.44978369040294,74.56483008341498A170.6070045455344,170.6070045455344,0,0,0,-153.05377120550511,75.37435319638168Z" fill-rule="evenodd" style="fill: #D7A449; stroke: #fff; opacity: 1;" id="p-type-tokenTransfers"></path><path d="M-177.18854784148797,86.10004944147668A197,197,0,0,1,-177.64087965253182,85.1628902531772L-153.84151452970673,73.75322641895761A170.6070045455344,170.6070045455344,0,0,0,-153.44978369040294,74.56483008341498Z" fill-rule="evenodd" style="fill: #D7A449; stroke: #fff; opacity: 1;" id="p-type-tokenTransfers"></path><path d="M-177.64087965253182,85.1628902531772A197,197,0,0,1,-178.08825482387644,84.223354800115L-154.2289527931136,72.93956484884964A170.6070045455344,170.6070045455344,0,0,0,-153.84151452970673,73.75322641895761Z" fill-rule="evenodd" style="fill: #D7A449; stroke: #fff; opacity: 1;" id="p-type-tokenTransfers"></path><path d="M-178.08825482387644,84.223354800115A197,197,0,0,1,-178.5306608725981,83.28146929775774L-154.61208767009444,72.12386807635197A170.6070045455344,170.6070045455344,0,0,0,-154.2289527931136,72.93956484884964Z" fill-rule="evenodd" style="fill: #D7A449; stroke: #fff; opacity: 1;" id="p-type-tokenTransfers"></path><path d="M-178.5306608725981,83.28146929775774A197,197,0,0,1,-178.96808545442465,82.33726002714542L-154.99090847019602,71.30615886151293A170.6070045455344,170.6070045455344,0,0,0,-154.61208767009444,72.12386807635197Z" fill-rule="evenodd" style="fill: #D7A449; stroke: #fff; opacity: 1;" id="p-type-tokenTransfers"></path><path d="M-178.96808545442465,82.33726002714542A197,197,0,0,1,-179.40051636407955,81.39075333415725L-155.36540462333878,70.48646002053319A170.6070045455344,170.6070045455344,0,0,0,-154.99090847019602,71.30615886151293Z" fill-rule="evenodd" style="fill: #D7A449; stroke: #fff; opacity: 1;" id="p-type-tokenTransfers"></path><path d="M-179.40051636407955,81.39075333415725A197,197,0,0,1,-179.8279415356227,80.44197562877645L-155.73556568011207,69.6647944251291A170.6070045455344,170.6070045455344,0,0,0,-155.36540462333878,70.48646002053319Z" fill-rule="evenodd" style="fill: #D7A449; stroke: #fff; opacity: 1;" id="p-type-tokenTransfers"></path><path d="M-179.8279415356227,80.44197562877645A197,197,0,0,1,-180.25034904278704,79.49095338435335L-156.10138131206566,68.8411850018946A170.6070045455344,170.6070045455344,0,0,0,-155.73556568011207,69.6647944251291Z" fill-rule="evenodd" style="fill: #D7A449; stroke: #fff; opacity: 1;" id="p-type-tokenTransfers"></path><path d="M-180.25034904278704,79.49095338435335A197,197,0,0,1,-180.66772709931135,78.53771313686671L-156.46284131199786,68.0156547316614A170.6070045455344,170.6070045455344,0,0,0,-156.10138131206566,68.8411850018946Z" fill-rule="evenodd" style="fill: #D7A449; stroke: #fff; opacity: 1;" id="p-type-tokenTransfers"></path><path d="M-180.66772709931135,78.53771313686671A197,197,0,0,1,-181.08006405926892,77.58228148418335L-156.81993559424038,67.18822664885786A170.6070045455344,170.6070045455344,0,0,0,-156.46284131199786,68.0156547316614Z" fill-rule="evenodd" style="fill: #D7A449; stroke: #fff; opacity: 1;" id="p-type-tokenTransfers"></path><path d="M-181.08006405926892,77.58228148418335A197,197,0,0,1,-181.4873484173929,76.6246850853159L-157.17265419493978,66.35892384086615A170.6070045455344,170.6070045455344,0,0,0,-156.81993559424038,67.18822664885786Z" fill-rule="evenodd" style="fill: #D7A449; stroke: #fff; opacity: 1;" id="p-type-tokenTransfers"></path><path d="M-181.4873484173929,76.6246850853159A197,197,0,0,1,-181.88956880939693,75.66495065967905L-157.5209872723354,65.52776944737818A170.6070045455344,170.6070045455344,0,0,0,-157.17265419493978,66.35892384086615Z" fill-rule="evenodd" style="fill: #D7A449; stroke: #fff; opacity: 1;" id="p-type-tokenTransfers"></path><path d="M-181.88956880939693,75.66495065967905A197,197,0,0,1,-182.28671401229238,74.70310498634394L-157.864925107034,64.69478665974982A170.6070045455344,170.6070045455344,0,0,0,-157.5209872723354,65.52776944737818Z" fill-rule="evenodd" style="fill: #D7A449; stroke: #fff; opacity: 1;" id="p-type-tokenTransfers"></path><path d="M-182.28671401229238,74.70310498634394A197,197,0,0,1,-182.67877294470165,73.73917490329099L-158.20445810228102,63.85999872035392A170.6070045455344,170.6070045455344,0,0,0,-157.864925107034,64.69478665974982Z" fill-rule="evenodd" style="fill: #D7A449; stroke: #fff; opacity: 1;" id="p-type-tokenTransfers"></path><path d="M-182.67877294470165,73.73917490329099A197,197,0,0,1,-183.0657346671671,72.77318730666103L-158.5395767842283,63.023428921931696A170.6070045455344,170.6070045455344,0,0,0,-158.20445810228102,63.85999872035392Z" fill-rule="evenodd" style="fill: #D7A449; stroke: #fff; opacity: 1;" id="p-type-tokenTransfers"></path><path d="M-183.0657346671671,72.77318730666103A197,197,0,0,1,-183.4475883824565,71.80516915000484L-158.8702718021984,62.18510060694286A170.6070045455344,170.6070045455344,0,0,0,-158.5395767842283,63.023428921931696Z" fill-rule="evenodd" style="fill: #D7A449; stroke: #fff; opacity: 1;" id="p-type-tokenTransfers"></path><path d="M-183.4475883824565,71.80516915000484A197,197,0,0,1,-183.8243234358642,70.83514744353108L-159.19653392894554,61.345037166914246A170.6070045455344,170.6070045455344,0,0,0,-158.8702718021984,62.18510060694286Z" fill-rule="evenodd" style="fill: #D7A449; stroke: #fff; opacity: 1;" id="p-type-tokenTransfers"></path><path d="M-183.8243234358642,70.83514744353108A197,197,0,0,1,-184.1959293155084,69.86314925335262L-159.51835406091308,60.5032620417872A170.6070045455344,170.6070045455344,0,0,0,-159.19653392894554,61.345037166914246Z" fill-rule="evenodd" style="fill: #D7A449; stroke: #fff; opacity: 1;" id="p-type-tokenTransfers"></path><path d="M-184.1959293155084,69.86314925335262A197,197,0,0,1,-184.56239565262462,68.88920170073133L-159.83572321848754,59.6597987192635A170.6070045455344,170.6070045455344,0,0,0,-159.51835406091308,60.5032620417872Z" fill-rule="evenodd" style="fill: #D7A449; stroke: #fff; opacity: 1;" id="p-type-tokenTransfers"></path><path d="M-184.56239565262462,68.88920170073133A197,197,0,0,1,-184.9237122218548,67.91333196132136L-160.14863254624913,58.814670734149956A170.6070045455344,170.6070045455344,0,0,0,-159.83572321848754,59.6597987192635Z" fill-rule="evenodd" style="fill: #D7A449; stroke: #fff; opacity: 1;" id="p-type-tokenTransfers"></path><path d="M-184.9237122218548,67.91333196132136A197,197,0,0,1,-185.27986894153273,66.93556726441079L-160.45707331321873,57.96790166770181A170.6070045455344,170.6070045455344,0,0,0,-160.14863254624913,58.814670734149956Z" fill-rule="evenodd" style="fill: #D7A449; stroke: #fff; opacity: 1;" id="p-type-tokenTransfers"></path><path d="M-185.27986894153273,66.93556726441079A197,197,0,0,1,-185.63085587396534,65.95593489216195L-160.76103691310178,57.1195151469647A170.6070045455344,170.6070045455344,0,0,0,-160.45707331321873,57.96790166770181Z" fill-rule="evenodd" style="fill: #D7A449; stroke: #fff; opacity: 1;" id="p-type-tokenTransfers"></path><path d="M-185.63085587396534,65.95593489216195A197,197,0,0,1,-185.97666322571004,64.97446217885013L-161.0605148645281,56.26953484411542A170.6070045455344,170.6070045455344,0,0,0,-160.76103691310178,57.1195151469647Z" fill-rule="evenodd" style="fill: #D7A449; stroke: #fff; opacity: 1;" id="p-type-tokenTransfers"></path><path d="M-185.97666322571004,64.97446217885013A197,197,0,0,1,-186.3172813478479,63.991176510100885L-161.35549881128884,55.417984475801404A170.6070045455344,170.6070045455344,0,0,0,-161.0605148645281,56.26953484411542Z" fill-rule="evenodd" style="fill: #D7A449; stroke: #fff; opacity: 1;" id="p-type-tokenTransfers"></path><path d="M-186.3172813478479,63.991176510100885A197,197,0,0,1,-186.65270073625288,63.006105322125926L-161.64598052256937,54.56488780247898A170.6070045455344,170.6070045455344,0,0,0,-161.35549881128884,55.417984475801404Z" fill-rule="evenodd" style="fill: #D7A449; stroke: #fff; opacity: 1;" id="p-type-tokenTransfers"></path><path d="M-186.65270073625288,63.006105322125926A197,197,0,0,1,-186.98291203185707,62.01927610095756L-161.9319518931792,53.71026862775035A170.6070045455344,170.6070045455344,0,0,0,-161.64598052256937,54.56488780247898Z" fill-rule="evenodd" style="fill: #D7A449; stroke: #fff; opacity: 1;" id="p-type-tokenTransfers"></path><path d="M-186.98291203185707,62.01927610095756A197,197,0,0,1,-187.3079060209118,61.03071638168176L-162.21340494377782,52.8541507976995A170.6070045455344,170.6070045455344,0,0,0,-161.9319518931792,53.71026862775035Z" fill-rule="evenodd" style="fill: #D7A449; stroke: #fff; opacity: 1;" id="p-type-tokenTransfers"></path><path d="M-187.3079060209118,61.03071638168176A197,197,0,0,1,-187.62767363524475,60.04045374766987L-162.4903318210977,51.996558200226715A170.6070045455344,170.6070045455344,0,0,0,-162.21340494377782,52.8541507976995Z" fill-rule="evenodd" style="fill: #D7A449; stroke: #fff; opacity: 1;" id="p-type-tokenTransfers"></path></g></svg>