<svg xmlns="http://www.w3.org/2000/svg" width="400" height="400" id="block-7901132"><g id="burst-container" transform="translate(200,200)"><circle r="197" style="fill: #f9f9f9; stroke: #f9f9f9; stroke-width: 3; opacity: 1;" id="circle-base"></circle><path display="none" d="M6.031385485800715e-15,-98.5A98.5,98.5,0,1,1,-6.031385485800715e-15,98.5A98.5,98.5,0,1,1,6.031385485800715e-15,-98.5Z" fill-rule="evenodd" id="p-type-root" style="stroke: #fff; opacity: 1;"></path><path d="M8.529667153919608e-15,-139.30003589374985A139.30003589374985,139.30003589374985,0,1,1,-64.75466567393146,-123.33423398820523L-45.7884632115047,-87.2104732055083A98.5,98.5,0,1,0,6.031385485800715e-15,-98.5Z" fill-rule="evenodd" style="fill: #0B1F65; stroke: #fff; opacity: 1;" id="p-type-data"></path><path d="M-64.75466567393146,-123.33423398820523A139.30003589374985,139.30003589374985,0,0,1,-1.0441436640379393,-139.29612257349035L-0.7383210653741953,-98.49723286470756A98.5,98.5,0,0,0,-45.7884632115047,-87.2104732055083Z" fill-rule="evenodd" style="fill: #D7A449; stroke: #fff; opacity: 1;" id="p-type-value"></path><path d="M1.0446666101440332e-14,-170.6070045455344A170.6070045455344,170.6070045455344,0,0,1,127.48376258062174,113.37830603024402L104.09005627087963,92.57299922507161A139.30003589374985,139.30003589374985,0,0,0,8.529667153919608e-15,-139.30003589374985Z" fill-rule="evenodd" style="fill: #414552; stroke: #fff; opacity: 1;" id="p-type-ether"></path><path d="M127.48376258062174,113.37830603024402A170.6070045455344,170.6070045455344,0,0,1,-143.56526752601738,92.17246855858346L-117.22055007496748,75.25850543375172A139.30003589374985,139.30003589374985,0,0,0,104.09005627087963,92.57299922507161Z" fill-rule="evenodd" style="fill: #DB3F29; stroke: #fff; opacity: 1;" id="p-type-functions"></path><path d="M-143.56526752601738,92.17246855858346A170.6070045455344,170.6070045455344,0,0,1,-170.31123701573176,-10.041541025721045L-139.05854271691655,-8.198883914746725A139.30003589374985,139.30003589374985,0,0,0,-117.22055007496748,75.25850543375172Z" fill-rule="evenodd" style="fill: #1DC690; stroke: #fff; opacity: 1;" id="p-type-logs"></path><path d="M-170.31123701573176,-10.041541025721045A170.6070045455344,170.6070045455344,0,0,1,-144.98756119241332,-89.91861375419553L-118.38184799065492,-73.41824069206145A139.30003589374985,139.30003589374985,0,0,0,-139.05854271691655,-8.198883914746725Z" fill-rule="evenodd" style="fill: #D7A449; stroke: #fff; opacity: 1;" id="p-type-tokenTransfers"></path><path d="M-79.30794468282454,-151.05297054406458A170.6070045455344,170.6070045455344,0,0,1,-39.287675733509325,-166.0217712694893L-32.07825290900755,-135.55620860110298A139.30003589374985,139.30003589374985,0,0,0,-64.75466567393146,-123.33423398820523Z" fill-rule="evenodd" style="fill: #D7A449; stroke: #fff; opacity: 1;" id="p-type-tokenTransfers"></path><path d="M-39.287675733509325,-166.0217712694893A170.6070045455344,170.6070045455344,0,0,1,-2.557547344511279,-170.5878335391495L-2.0882286623542443,-139.28438283258365A139.30003589374985,139.30003589374985,0,0,0,-32.07825290900755,-135.55620860110298Z" fill-rule="evenodd" style="fill: #414552; stroke: #fff; opacity: 1;" id="p-type-ether"></path><path d="M1.206277097160143e-14,-197A197,197,0,0,1,155.74567936550184,-120.63284527432111L134.87971486019043,-104.47110853835964A170.6070045455344,170.6070045455344,0,0,0,1.0446666101440332e-14,-170.6070045455344Z" fill-rule="evenodd" style="fill: #414552; stroke: #fff; opacity: 1;" id="p-type-ether"></path><path d="M155.74567936550184,-120.63284527432111A197,197,0,0,1,196.65998559062885,11.569358992340907L170.31254342936623,10.019358792869161A170.6070045455344,170.6070045455344,0,0,0,134.87971486019043,-104.47110853835964Z" fill-rule="evenodd" style="fill: #414552; stroke: #fff; opacity: 1;" id="p-type-ether"></path><path d="M196.65998559062885,11.569358992340907A197,197,0,0,1,188.90260760972146,55.8999538304604L163.59445703114238,48.41078008755594A170.6070045455344,170.6070045455344,0,0,0,170.31254342936623,10.019358792869161Z" fill-rule="evenodd" style="fill: #414552; stroke: #fff; opacity: 1;" id="p-type-ether"></path><path d="M188.90260760972146,55.8999538304604A197,197,0,0,1,184.1613032816558,69.95437351304057L159.48836703596442,60.58226456811839A170.6070045455344,170.6070045455344,0,0,0,163.59445703114238,48.41078008755594Z" fill-rule="evenodd" style="fill: #414552; stroke: #fff; opacity: 1;" id="p-type-ether"></path><path d="M184.1613032816558,69.95437351304057A197,197,0,0,1,181.30827820434308,77.04744158358884L157.01757484137755,66.72504170798547A170.6070045455344,170.6070045455344,0,0,0,159.48836703596442,60.58226456811839Z" fill-rule="evenodd" style="fill: #414552; stroke: #fff; opacity: 1;" id="p-type-ether"></path><path d="M181.30827820434308,77.04744158358884A197,197,0,0,1,178.91463644974294,82.45333749495116L154.94462027433465,71.40668489743967A170.6070045455344,170.6070045455344,0,0,0,157.01757484137755,66.72504170798547Z" fill-rule="evenodd" style="fill: #414552; stroke: #fff; opacity: 1;" id="p-type-ether"></path><path d="M178.91463644974294,82.45333749495116A197,197,0,0,1,177.71778310070925,85.00229155598844L153.908114869467,73.61414386737746A170.6070045455344,170.6070045455344,0,0,0,154.94462027433465,71.40668489743967Z" fill-rule="evenodd" style="fill: #414552; stroke: #fff; opacity: 1;" id="p-type-ether"></path><path d="M177.71778310070925,85.00229155598844A197,197,0,0,1,177.0232507471734,86.43939318912051L153.30663220755477,74.85871038948994A170.6070045455344,170.6070045455344,0,0,0,153.908114869467,73.61414386737746Z" fill-rule="evenodd" style="fill: #414552; stroke: #fff; opacity: 1;" id="p-type-ether"></path><path d="M177.0232507471734,86.43939318912051A197,197,0,0,1,176.43991174225224,87.62395531124034L152.80144581027469,75.88457127960652A170.6070045455344,170.6070045455344,0,0,0,153.30663220755477,74.85871038948994Z" fill-rule="evenodd" style="fill: #414552; stroke: #fff; opacity: 1;" id="p-type-ether"></path><path d="M176.43991174225224,87.62395531124034A197,197,0,0,1,175.8715308036572,88.7592510827928L152.30921347842457,76.86776625858A170.6070045455344,170.6070045455344,0,0,0,152.80144581027469,75.88457127960652Z" fill-rule="evenodd" style="fill: #414552; stroke: #fff; opacity: 1;" id="p-type-ether"></path><path d="M175.8715308036572,88.7592510827928A197,197,0,0,1,175.37492511475187,89.73647887562325L151.87914033616866,77.71407035245537A170.6070045455344,170.6070045455344,0,0,0,152.30921347842457,76.86776625858Z" fill-rule="evenodd" style="fill: #414552; stroke: #fff; opacity: 1;" id="p-type-ether"></path><path d="M147.2055692864566,130.91799101365032A197,197,0,0,1,-13.360836489015986,196.54640176893034L-11.57082381529793,170.2141769543164A170.6070045455344,170.6070045455344,0,0,0,127.48376258062174,113.37830603024402Z" fill-rule="evenodd" style="fill: #DB3F29; stroke: #fff; opacity: 1;" id="p-type-functions"></path><path d="M-13.360836489015986,196.54640176893034A197,197,0,0,1,-28.110944842429593,194.98403724424693L-24.34479235792717,168.86112958596897A170.6070045455344,170.6070045455344,0,0,0,-11.57082381529793,170.2141769543164Z" fill-rule="evenodd" style="fill: #DB3F29; stroke: #fff; opacity: 1;" id="p-type-functions"></path><path d="M-28.110944842429593,194.98403724424693A197,197,0,0,1,-35.65546281775854,193.74645279656463L-30.87853658387038,167.78935001494756A170.6070045455344,170.6070045455344,0,0,0,-24.34479235792717,168.86112958596897Z" fill-rule="evenodd" style="fill: #DB3F29; stroke: #fff; opacity: 1;" id="p-type-functions"></path><path d="M-35.65546281775854,193.74645279656463A197,197,0,0,1,-37.2240504304077,193.45120849856295L-32.236973304486135,167.53366095255558A170.6070045455344,170.6070045455344,0,0,0,-30.87853658387038,167.78935001494756Z" fill-rule="evenodd" style="fill: #DB3F29; stroke: #fff; opacity: 1;" id="p-type-functions"></path><path d="M-37.2240504304077,193.45120849856295A197,197,0,0,1,-38.47002687548037,193.20729031845516L-33.316020558436094,167.3224216121374A170.6070045455344,170.6070045455344,0,0,0,-32.236973304486135,167.53366095255558Z" fill-rule="evenodd" style="fill: #DB3F29; stroke: #fff; opacity: 1;" id="p-type-functions"></path><path d="M-38.47002687548037,193.20729031845516A197,197,0,0,1,-39.54449454437023,192.990240559543L-34.24653685523976,167.13445100703416A170.6070045455344,170.6070045455344,0,0,0,-33.316020558436094,167.3224216121374Z" fill-rule="evenodd" style="fill: #DB3F29; stroke: #fff; opacity: 1;" id="p-type-functions"></path></g></svg>