<svg xmlns="http://www.w3.org/2000/svg" width="400" height="400"><g id="container" transform="translate(200,200)"><circle r="200" style="fill: #f9f9f9; stroke: #f9f9f9; opacity: 1;"></circle><path display="none" d="M7.070501591499379e-15,-115.47005383792515A115.47005383792515,115.47005383792515,0,1,1,-7.070501591499379e-15,115.47005383792515A115.47005383792515,115.47005383792515,0,1,1,7.070501591499379e-15,-115.47005383792515Z" fill-rule="evenodd" style="stroke: #fff; opacity: 1;"></path><path d="M9.999199243478977e-15,-163.29931618554522A163.29931618554522,163.29931618554522,0,1,1,-48.13331842345171,-156.04438575037963L-34.03539585823408,-110.34004333018288A115.47005383792515,115.47005383792515,0,1,0,7.070501591499379e-15,-115.47005383792515Z" fill-rule="evenodd" style="fill: #6c7074; stroke: #fff; opacity: 1;"></path><path d="M1.2246467991473532e-14,-200A200,200,0,0,1,199.44075943623602,-14.94601871728482L162.84269817731584,-12.203373181144855A163.29931618554522,163.29931618554522,0,0,0,9.999199243478977e-15,-163.29931618554522Z" fill-rule="evenodd" style="fill: #f44336; stroke: #fff; opacity: 1;"></path><path d="M199.44075943623602,-14.94601871728482A200,200,0,0,1,29.808453235234843,197.76616524502572L24.338500149313266,161.4753977457512A163.29931618554522,163.29931618554522,0,0,0,162.84269817731584,-12.203373181144855Z" fill-rule="evenodd" style="fill: #6bbc80; stroke: #fff; opacity: 1;"></path><path d="M29.808453235234843,197.76616524502572A200,200,0,0,1,-194.98558243636472,44.5041867912629L-159.20506138949307,36.33751635203503A163.29931618554522,163.29931618554522,0,0,0,24.338500149313266,161.4753977457512Z" fill-rule="evenodd" style="fill: #B3DAEF; stroke: #fff; opacity: 1;"></path></g></svg>