<svg xmlns="http://www.w3.org/2000/svg" width="400" height="400"><g id="container" transform="translate(200,200)"><circle r="200" style="fill: #f9f9f9; stroke: #f9f9f9; opacity: 1;"></circle><path display="none" d="M7.070501591499379e-15,-115.47005383792515A115.47005383792515,115.47005383792515,0,1,1,-7.070501591499379e-15,115.47005383792515A115.47005383792515,115.47005383792515,0,1,1,7.070501591499379e-15,-115.47005383792515Z" fill-rule="evenodd" style="stroke: #fff; opacity: 1;"></path><path d="M9.999199243478977e-15,-163.29931618554522A163.29931618554522,163.29931618554522,0,1,1,-6.838265618801016,-163.15607494051025L-4.835383990609021,-115.36876698221532A115.47005383792515,115.47005383792515,0,1,0,7.070501591499379e-15,-115.47005383792515Z" fill-rule="evenodd" style="fill: #6c7074; stroke: #fff; opacity: 1;"></path><path d="M1.2246467991473532e-14,-200A200,200,0,0,1,199.6053456856543,12.558103905862646L162.9770822872336,10.253648902071975A163.29931618554522,163.29931618554522,0,0,0,9.999199243478977e-15,-163.29931618554522Z" fill-rule="evenodd" style="fill: #f44336; stroke: #fff; opacity: 1;"></path><path d="M199.6053456856543,12.558103905862646A200,200,0,0,1,103.6054018746261,171.0728520321013L84.59345639627524,139.68039877376552A163.29931618554522,163.29931618554522,0,0,0,162.9770822872336,10.253648902071975Z" fill-rule="evenodd" style="fill: #6bbc80; stroke: #fff; opacity: 1;"></path><path d="M103.6054018746261,171.0728520321013A200,200,0,0,1,-73.62491053693552,185.95529717765032L-60.114487724517566,151.83186435095072A163.29931618554522,163.29931618554522,0,0,0,84.59345639627524,139.68039877376552Z" fill-rule="evenodd" style="fill: b3daef; stroke: #fff; opacity: 1;"></path><path d="M-73.62491053693552,185.95529717765032A200,200,0,0,1,-180.96541049320388,85.15585831301458L-147.7576389338834,69.52946715854229A163.29931618554522,163.29931618554522,0,0,0,-60.114487724517566,151.83186435095072Z" fill-rule="evenodd" style="fill: #B3DAEF; stroke: #fff; opacity: 1;"></path></g></svg>