<svg xmlns="http://www.w3.org/2000/svg" width="400" height="400" id="block-7901173"><g id="burst-container" transform="translate(200,200)"><circle r="197" style="fill: #f9f9f9; stroke: #f9f9f9; stroke-width: 3; opacity: 1;" id="circle-base"></circle><path display="none" d="M6.031385485800715e-15,-98.5A98.5,98.5,0,1,1,-6.031385485800715e-15,98.5A98.5,98.5,0,1,1,6.031385485800715e-15,-98.5Z" fill-rule="evenodd" id="p-type-root" style="stroke: #fff; opacity: 1;"></path><path d="M8.529667153919608e-15,-139.30003589374985A139.30003589374985,139.30003589374985,0,1,1,-96.16711999251267,-100.7788917995513L-68.00042267388612,-71.26143779192809A98.5,98.5,0,1,0,6.031385485800715e-15,-98.5Z" fill-rule="evenodd" style="fill: #0B1F65; stroke: #fff; opacity: 1;" id="p-type-data"></path><path d="M-96.16711999251267,-100.7788917995513A139.30003589374985,139.30003589374985,0,0,1,-8.486316227408158,-139.0412975949535L-6.000731751693748,-98.31704439436844A98.5,98.5,0,0,0,-68.00042267388612,-71.26143779192809Z" fill-rule="evenodd" style="fill: #D7A449; stroke: #fff; opacity: 1;" id="p-type-value"></path><path d="M1.0446666101440332e-14,-170.6070045455344A170.6070045455344,170.6070045455344,0,0,1,169.00443640730168,23.329176467469313L137.9915444881791,19.04819282154826A139.30003589374985,139.30003589374985,0,0,0,8.529667153919608e-15,-139.30003589374985Z" fill-rule="evenodd" style="fill: #DB3F29; stroke: #fff; opacity: 1;" id="p-type-functions"></path><path d="M169.00443640730168,23.329176467469313A170.6070045455344,170.6070045455344,0,0,1,-35.94263518369521,166.77792712482005L-29.347038737019727,136.17360727162904A139.30003589374985,139.30003589374985,0,0,0,137.9915444881791,19.04819282154826Z" fill-rule="evenodd" style="fill: #1DC690; stroke: #fff; opacity: 1;" id="p-type-logs"></path><path d="M-35.94263518369521,166.77792712482005A170.6070045455344,170.6070045455344,0,0,1,-146.71959061050185,87.06383710293692L-119.79604408859045,71.08732531699648A139.30003589374985,139.30003589374985,0,0,0,-29.347038737019727,136.17360727162904Z" fill-rule="evenodd" style="fill: #D7A449; stroke: #fff; opacity: 1;" id="p-type-tokenTransfers"></path><path d="M-146.71959061050185,87.06383710293692A170.6070045455344,170.6070045455344,0,0,1,-166.21138329039985,38.477604716143446L-135.71102616787925,31.41683269301967A139.30003589374985,139.30003589374985,0,0,0,-119.79604408859045,71.08732531699648Z" fill-rule="evenodd" style="fill: #414552; stroke: #fff; opacity: 1;" id="p-type-ether"></path><path d="M-117.78018700732945,-123.42843087602834A170.6070045455344,170.6070045455344,0,0,1,-56.13444417839501,-161.1076477911047L-45.83358174393782,-131.54384358274532A139.30003589374985,139.30003589374985,0,0,0,-96.16711999251267,-100.7788917995513Z" fill-rule="evenodd" style="fill: #D7A449; stroke: #fff; opacity: 1;" id="p-type-tokenTransfers"></path><path d="M-56.13444417839501,-161.1076477911047A170.6070045455344,170.6070045455344,0,0,1,-20.748534150806485,-169.34062811562032L-16.941107193395652,-138.26604386855755A139.30003589374985,139.30003589374985,0,0,0,-45.83358174393782,-131.54384358274532Z" fill-rule="evenodd" style="fill: #414552; stroke: #fff; opacity: 1;" id="p-type-ether"></path><path d="M1.206277097160143e-14,-197A197,197,0,0,1,6.0035201598243555,-196.90850094825916L5.199200970539905,-170.52776404230465A170.6070045455344,170.6070045455344,0,0,0,1.0446666101440332e-14,-170.6070045455344Z" fill-rule="evenodd" style="fill: #DB3F29; stroke: #fff; opacity: 1;" id="p-type-functions"></path><path d="M6.0035201598243555,-196.90850094825916A197,197,0,0,1,12.001463503387471,-196.63408878873688L10.393572276525338,-170.29011614105102A170.6070045455344,170.6070045455344,0,0,0,5.199200970539905,-170.52776404230465Z" fill-rule="evenodd" style="fill: #DB3F29; stroke: #fff; opacity: 1;" id="p-type-functions"></path><path d="M12.001463503387471,-196.63408878873688A197,197,0,0,1,17.988258394868737,-196.17701842957914L15.578288739795017,-169.89428159870354A170.6070045455344,170.6070045455344,0,0,0,10.393572276525338,-170.29011614105102Z" fill-rule="evenodd" style="fill: #DB3F29; stroke: #fff; opacity: 1;" id="p-type-functions"></path><path d="M17.988258394868737,-196.17701842957914A197,197,0,0,1,23.95834355451651,-195.53771445458742L20.748534150806464,-169.34062811562032A170.6070045455344,170.6070045455344,0,0,0,15.578288739795017,-169.89428159870354Z" fill-rule="evenodd" style="fill: #DB3F29; stroke: #fff; opacity: 1;" id="p-type-functions"></path><path d="M23.95834355451651,-195.53771445458742A197,197,0,0,1,29.906173224656428,-194.71677072881226L25.89950574253045,-168.6296699940216A170.6070045455344,170.6070045455344,0,0,0,20.748534150806464,-169.34062811562032Z" fill-rule="evenodd" style="fill: #DB3F29; stroke: #fff; opacity: 1;" id="p-type-functions"></path><path d="M29.906173224656428,-194.71677072881226A197,197,0,0,1,35.82622232128113,-193.7149498468978L31.026418651858556,-167.76206766024197A170.6070045455344,170.6070045455344,0,0,0,25.89950574253045,-168.6296699940216Z" fill-rule="evenodd" style="fill: #DB3F29; stroke: #fff; opacity: 1;" id="p-type-functions"></path><path d="M35.82622232128113,-193.7149498468978A197,197,0,0,1,41.712991566435235,-192.53318242468882L36.124510364378956,-166.73862705124412A170.6070045455344,170.6070045455344,0,0,0,31.026418651858556,-167.76206766024197Z" fill-rule="evenodd" style="fill: #DB3F29; stroke: #fff; opacity: 1;" id="p-type-functions"></path><path d="M41.712991566435235,-192.53318242468882A197,197,0,0,1,47.56101259662892,-191.17256623475896L41.18904513839233,-165.56029886596446A170.6070045455344,170.6070045455344,0,0,0,36.124510364378956,-166.73862705124412Z" fill-rule="evenodd" style="fill: #DB3F29; stroke: #fff; opacity: 1;" id="p-type-functions"></path><path d="M47.56101259662892,-191.17256623475896A197,197,0,0,1,53.364853042534016,-189.63436518666322L46.21531840405775,-164.2281776821857A170.6070045455344,170.6070045455344,0,0,0,41.18904513839233,-165.56029886596446Z" fill-rule="evenodd" style="fill: #DB3F29; stroke: #fff; opacity: 1;" id="p-type-functions"></path><path d="M53.364853042534016,-189.63436518666322A197,197,0,0,1,59.119121575244385,-187.92000815286133L51.19866113358234,-162.74350093975673A170.6070045455344,170.6070045455344,0,0,0,46.21531840405775,-164.2281776821857Z" fill-rule="evenodd" style="fill: #DB3F29; stroke: #fff; opacity: 1;" id="p-type-functions"></path><path d="M59.119121575244385,-187.92000815286133A197,197,0,0,1,64.81847291441278,-186.03108764140347L56.13444417839503,-161.1076477911047A170.6070045455344,170.6070045455344,0,0,0,51.19866113358234,-162.74350093975673Z" fill-rule="evenodd" style="fill: #DB3F29; stroke: #fff; opacity: 1;" id="p-type-functions"></path><path d="M64.81847291441278,-186.03108764140347A197,197,0,0,1,70.45761279361206,-183.9693583166105L61.01808256927551,-159.3221378201067A170.6070045455344,170.6070045455344,0,0,0,56.13444417839503,-161.1076477911047Z" fill-rule="evenodd" style="fill: #DB3F29; stroke: #fff; opacity: 1;" id="p-type-functions"></path><path d="M70.45761279361206,-183.9693583166105A197,197,0,0,1,76.03130287830841,-181.73673536912378L65.845039775444,-157.3886296305111A170.6070045455344,170.6070045455344,0,0,0,61.01808256927551,-159.3221378201067Z" fill-rule="evenodd" style="fill: #DB3F29; stroke: #fff; opacity: 1;" id="p-type-functions"></path><path d="M76.03130287830841,-181.73673536912378A197,197,0,0,1,81.53436563187802,-179.33529273683757L70.61083191865521,-155.30891930522026A170.6070045455344,170.6070045455344,0,0,0,65.845039775444,-157.3886296305111Z" fill-rule="evenodd" style="fill: #DB3F29; stroke: #fff; opacity: 1;" id="p-type-functions"></path><path d="M81.53436563187802,-179.33529273683757A197,197,0,0,1,86.96168912514703,-176.76726117836776L75.31103193838229,-153.0849387378653A170.6070045455344,170.6070045455344,0,0,0,70.61083191865521,-155.30891930522026Z" fill-rule="evenodd" style="fill: #DB3F29; stroke: #fff; opacity: 1;" id="p-type-functions"></path><path d="M86.96168912514703,-176.76726117836776A197,197,0,0,1,92.30823178498731,-174.03502620084572L79.94127370422119,-150.71875383822277A170.6070045455344,170.6070045455344,0,0,0,75.31103193838229,-153.0849387378653Z" fill-rule="evenodd" style="fill: #DB3F29; stroke: #fff; opacity: 1;" id="p-type-functions"></path><path d="M92.30823178498731,-174.03502620084572A197,197,0,0,1,97.56902707755653,-171.14112584396258L84.49725607169572,-148.21256261314113A170.6070045455344,170.6070045455344,0,0,0,79.94127370422119,-150.71875383822277Z" fill-rule="evenodd" style="fill: #DB3F29; stroke: #fff; opacity: 1;" id="p-type-functions"></path><path d="M97.56902707755653,-171.14112584396258A197,197,0,0,1,102.73918812183263,-168.0882483223223L88.97474687769551,-145.56869312475814A170.6070045455344,170.6070045455344,0,0,0,84.49725607169572,-148.21256261314113Z" fill-rule="evenodd" style="fill: #DB3F29; stroke: #fff; opacity: 1;" id="p-type-functions"></path><path d="M102.73918812183263,-168.0882483223223A197,197,0,0,1,107.81391222915676,-164.87922952829348L93.36958687183551,-142.7896013279075A170.6070045455344,170.6070045455344,0,0,0,88.97474687769551,-145.56869312475814Z" fill-rule="evenodd" style="fill: #DB3F29; stroke: #fff; opacity: 1;" id="p-type-functions"></path><path d="M107.81391222915676,-164.87922952829348A197,197,0,0,1,112.78848536456782,-161.51705039767992L97.67769358008509,-139.87786878872228A170.6070045455344,170.6070045455344,0,0,0,93.36958687183551,-142.7896013279075Z" fill-rule="evenodd" style="fill: #DB3F29; stroke: #fff; opacity: 1;" id="p-type-functions"></path><path d="M112.78848536456782,-161.51705039767992A197,197,0,0,1,117.65828652578453,-158.00483414065656L101.89506509707773,-136.83620028655534A170.6070045455344,170.6070045455344,0,0,0,97.67769358008509,-139.87786878872228Z" fill-rule="evenodd" style="fill: #DB3F29; stroke: #fff; opacity: 1;" id="p-type-functions"></path><path d="M117.65828652578453,-158.00483414065656A197,197,0,0,1,122.41879203576713,-154.3458433405435L106.01778380357844,-133.66742130144388A170.6070045455344,170.6070045455344,0,0,0,101.89506509707773,-136.83620028655534Z" fill-rule="evenodd" style="fill: #DB3F29; stroke: #fff; opacity: 1;" id="p-type-functions"></path><path d="M122.41879203576713,-154.3458433405435A197,197,0,0,1,127.06557974487126,-150.54347692311268L110.04202000565591,-130.374475389452A170.6070045455344,170.6070045455344,0,0,0,106.01778380357844,-133.66742130144388Z" fill-rule="evenodd" style="fill: #DB3F29; stroke: #fff; opacity: 1;" id="p-type-functions"></path><path d="M127.06557974487126,-150.54347692311268A197,197,0,0,1,131.59433313869056,-146.60126699924297L113.96403549217843,-126.96042144832968A170.6070045455344,170.6070045455344,0,0,0,110.04202000565591,-130.374475389452Z" fill-rule="evenodd" style="fill: #DB3F29; stroke: #fff; opacity: 1;" id="p-type-functions"></path><path d="M131.59433313869056,-146.60126699924297A197,197,0,0,1,136.00084534777224,-142.52287558385615L117.78018700732945,-123.42843087602833A170.6070045455344,170.6070045455344,0,0,0,113.96403549217843,-126.96042144832968Z" fill-rule="evenodd" style="fill: #DB3F29; stroke: #fff; opacity: 1;" id="p-type-functions"></path><path d="M136.00084534777224,-142.52287558385615A197,197,0,0,1,140.2810230554806,-138.31209119418202L121.48692963491673,-119.78178462471158A170.6070045455344,170.6070045455344,0,0,0,117.78018700732945,-123.42843087602833Z" fill-rule="evenodd" style="fill: #DB3F29; stroke: #fff; opacity: 1;" id="p-type-functions"></path><path d="M140.2810230554806,-138.31209119418202A197,197,0,0,1,144.43089030037868,-133.9728253305124L125.0808200913314,-116.02387015299905A170.6070045455344,170.6070045455344,0,0,0,121.48692963491673,-119.78178462471158Z" fill-rule="evenodd" style="fill: #DB3F29; stroke: #fff; opacity: 1;" id="p-type-functions"></path><path d="M195.14951370799324,26.938212626931385A197,197,0,0,1,194.2379396063314,32.872827950864874L168.21499007783055,28.468704099684132A170.6070045455344,170.6070045455344,0,0,0,169.00443640730168,23.329176467469313Z" fill-rule="evenodd" style="fill: #1DC690; stroke: #fff; opacity: 1;" id="p-type-logs"></path><path d="M194.2379396063314,32.872827950864874A197,197,0,0,1,193.1459331464353,38.776906903371525L167.2692847424638,33.581786458503906A170.6070045455344,170.6070045455344,0,0,0,168.21499007783055,28.468704099684132Z" fill-rule="evenodd" style="fill: #1DC690; stroke: #fff; opacity: 1;" id="p-type-logs"></path><path d="M193.1459331464353,38.776906903371525A197,197,0,0,1,191.87450871973218,44.644965041552275L166.16819888994684,38.66367387705246A170.6070045455344,170.6070045455344,0,0,0,167.2692847424638,33.581786458503906Z" fill-rule="evenodd" style="fill: #1DC690; stroke: #fff; opacity: 1;" id="p-type-logs"></path><path d="M191.87450871973218,44.644965041552275A197,197,0,0,1,190.42484738337325,50.4715513831208L164.91275534577593,43.70964566619423A170.6070045455344,170.6070045455344,0,0,0,166.16819888994684,38.66367387705246Z" fill-rule="evenodd" style="fill: #1DC690; stroke: #fff; opacity: 1;" id="p-type-logs"></path><path d="M190.42484738337325,50.4715513831208A197,197,0,0,1,188.79829576312125,56.251253469953845L163.50412032207095,48.71501449969759A170.6070045455344,170.6070045455344,0,0,0,164.91275534577593,43.70964566619423Z" fill-rule="evenodd" style="fill: #1DC690; stroke: #fff; opacity: 1;" id="p-type-logs"></path><path d="M188.79829576312125,56.251253469953845A197,197,0,0,1,186.99636480243663,61.9787023958556L161.94360233425238,53.6751307684064A170.6070045455344,170.6070045455344,0,0,0,163.50412032207095,48.71501449969759Z" fill-rule="evenodd" style="fill: #1DC690; stroke: #fff; opacity: 1;" id="p-type-logs"></path><path d="M186.99636480243663,61.9787023958556A197,197,0,0,1,185.0207283589256,67.64857779386548L160.23265098552946,58.585386899375365A170.6070045455344,170.6070045455344,0,0,0,161.94360233425238,53.6751307684064Z" fill-rule="evenodd" style="fill: #1DC690; stroke: #fff; opacity: 1;" id="p-type-logs"></path><path d="M185.0207283589256,67.64857779386548A197,197,0,0,1,182.87322164945272,73.25561277847684L158.37285562032844,63.44122163595689A170.6070045455344,170.6070045455344,0,0,0,160.23265098552946,58.585386899375365Z" fill-rule="evenodd" style="fill: #1DC690; stroke: #fff; opacity: 1;" id="p-type-logs"></path><path d="M182.87322164945272,73.25561277847684A197,197,0,0,1,180.55583954536345,78.79459883817528L156.3659438479117,68.23812427486361A170.6070045455344,170.6070045455344,0,0,0,158.37285562032844,63.44122163595689Z" fill-rule="evenodd" style="fill: #1DC690; stroke: #fff; opacity: 1;" id="p-type-logs"></path><path d="M180.55583954536345,78.79459883817528A197,197,0,0,1,178.07073471939935,84.26039067375193L154.21377993755948,72.97163885627056A170.6070045455344,170.6070045455344,0,0,0,156.3659438479117,68.23812427486361Z" fill-rule="evenodd" style="fill: #1DC690; stroke: #fff; opacity: 1;" id="p-type-logs"></path><path d="M178.07073471939935,84.26039067375193A197,197,0,0,1,175.42021564602797,89.64791097789754L151.91836308680467,77.63736830306513A170.6070045455344,170.6070045455344,0,0,0,154.21377993755948,72.97163885627056Z" fill-rule="evenodd" style="fill: #1DC690; stroke: #fff; opacity: 1;" id="p-type-logs"></path><path d="M175.42021564602797,89.64791097789754A197,197,0,0,1,172.60674445704458,94.95215515163683L149.48182556432943,82.23097850539895A170.6070045455344,170.6070045455344,0,0,0,151.91836308680467,77.63736830306513Z" fill-rule="evenodd" style="fill: #1DC690; stroke: #fff; opacity: 1;" id="p-type-logs"></path><path d="M172.60674445704458,94.95215515163683A197,197,0,0,1,169.63293465443792,100.16819595322258L146.90643072924888,86.74820234674836A170.6070045455344,170.6070045455344,0,0,0,149.48182556432943,82.23097850539895Z" fill-rule="evenodd" style="fill: #1DC690; stroke: #fff; opacity: 1;" id="p-type-logs"></path><path d="M169.63293465443792,100.16819595322258A197,197,0,0,1,166.5015486826445,105.29118807517068L144.19457092862157,91.18484366774295A170.6070045455344,170.6070045455344,0,0,0,146.90643072924888,86.74820234674836Z" fill-rule="evenodd" style="fill: #1DC690; stroke: #fff; opacity: 1;" id="p-type-logs"></path><path d="M166.5015486826445,105.29118807517068A197,197,0,0,1,163.2154953624466,110.31637264518432L141.34876527514,95.53678116408034A170.6070045455344,170.6070045455344,0,0,0,144.19457092862157,91.18484366774295Z" fill-rule="evenodd" style="fill: #1DC690; stroke: #fff; opacity: 1;" id="p-type-logs"></path><path d="M163.2154953624466,110.31637264518432A197,197,0,0,1,159.7778271888977,115.23908164678654L138.3716573070654,99.7999722149062A170.6070045455344,170.6070045455344,0,0,0,141.34876527514,95.53678116408034Z" fill-rule="evenodd" style="fill: #1DC690; stroke: #fff; opacity: 1;" id="p-type-logs"></path><path d="M159.7778271888977,115.23908164678654A197,197,0,0,1,156.19173749578545,120.05474225555464L135.26601253258062,103.97045663810341A170.6070045455344,170.6070045455344,0,0,0,138.3716573070654,99.7999722149062Z" fill-rule="evenodd" style="fill: #1DC690; stroke: #fff; opacity: 1;" id="p-type-logs"></path><path d="M156.19173749578545,120.05474225555464A197,197,0,0,1,152.46055748926585,124.75888108692808L132.03471586084208,108.04436036900165A170.6070045455344,170.6070045455344,0,0,0,135.26601253258062,103.97045663810341Z" fill-rule="evenodd" style="fill: #1DC690; stroke: #fff; opacity: 1;" id="p-type-logs"></path><path d="M152.46055748926585,124.75888108692808A197,197,0,0,1,148.587753153425,129.34712835164464L128.6807689221174,112.01789905909065A170.6070045455344,170.6070045455344,0,0,0,132.03471586084208,108.04436036900165Z" fill-rule="evenodd" style="fill: #1DC690; stroke: #fff; opacity: 1;" id="p-type-logs"></path><path d="M148.587753153425,129.34712835164464A197,197,0,0,1,144.57692203064164,133.8152219149442L125.20728727949772,115.88738159139382A170.6070045455344,170.6070045455344,0,0,0,128.6807689221174,112.01789905909065Z" fill-rule="evenodd" style="fill: #1DC690; stroke: #fff; opacity: 1;" id="p-type-logs"></path><path d="M144.57692203064164,133.8152219149442A197,197,0,0,1,140.4317898797424,138.1590112557696L121.61749753477537,119.64921350923667A170.6070045455344,170.6070045455344,0,0,0,125.20728727949772,115.88738159139382Z" fill-rule="evenodd" style="fill: #1DC690; stroke: #fff; opacity: 1;" id="p-type-logs"></path><path d="M140.4317898797424,138.1590112557696A197,197,0,0,1,136.1562072150537,142.37446132228686L117.91473433117459,123.29990035522543A170.6070045455344,170.6070045455344,0,0,0,121.61749753477537,119.64921350923667Z" fill-rule="evenodd" style="fill: #1DC690; stroke: #fff; opacity: 1;" id="p-type-logs"></path><path d="M136.1562072150537,142.37446132228686A197,197,0,0,1,131.75414572956495,146.45765628014317L114.10243725572026,126.83605091733352A170.6070045455344,170.6070045455344,0,0,0,117.91473433117459,123.29990035522543Z" fill-rule="evenodd" style="fill: #1DC690; stroke: #fff; opacity: 1;" id="p-type-logs"></path><path d="M131.75414572956495,146.45765628014317A197,197,0,0,1,127.22969460552616,150.40480314998103L110.18414764412161,130.25438037908134A170.6070045455344,170.6070045455344,0,0,0,114.10243725572026,126.83605091733352Z" fill-rule="evenodd" style="fill: #1DC690; stroke: #fff; opacity: 1;" id="p-type-logs"></path><path d="M127.22969460552616,150.40480314998103A197,197,0,0,1,122.58705671590685,154.21223533082917L106.16350529113912,133.55171337088223A170.6070045455344,170.6070045455344,0,0,0,110.18414764412161,130.25438037908134Z" fill-rule="evenodd" style="fill: #1DC690; stroke: #fff; opacity: 1;" id="p-type-logs"></path><path d="M122.58705671590685,154.21223533082917A197,197,0,0,1,117.83054472024484,157.87641600609757L102.0442450694904,136.72498691972066A170.6070045455344,170.6070045455344,0,0,0,106.16350529113912,133.55171337088223Z" fill-rule="evenodd" style="fill: #1DC690; stroke: #fff; opacity: 1;" id="p-type-logs"></path><path d="M117.83054472024484,157.87641600609757A197,197,0,0,1,112.9645770585117,161.39394142901267L97.83019346043592,139.77125329442273A170.6070045455344,170.6070045455344,0,0,0,102.0442450694904,136.72498691972066Z" fill-rule="evenodd" style="fill: #1DC690; stroke: #fff; opacity: 1;" id="p-type-logs"></path><path d="M-41.50298019738189,192.5785622408053A197,197,0,0,1,-47.35248170717978,191.22432501167629L-41.00845209065561,165.6051232816437A170.6070045455344,170.6070045455344,0,0,0,-35.94263518369521,166.77792712482005Z" fill-rule="evenodd" style="fill: #D7A449; stroke: #fff; opacity: 1;" id="p-type-tokenTransfers"></path><path d="M-47.35248170717978,191.22432501167629A197,197,0,0,1,-53.157996342116924,189.69245484439142L-46.03617524655352,164.27848480147549A170.6070045455344,170.6070045455344,0,0,0,-41.00845209065561,165.6051232816437Z" fill-rule="evenodd" style="fill: #D7A449; stroke: #fff; opacity: 1;" id="p-type-tokenTransfers"></path><path d="M-53.157996342116924,189.69245484439142A197,197,0,0,1,-58.914131218092194,187.98437473050097L-51.02113427675769,162.79924403114734A170.6070045455344,170.6070045455344,0,0,0,-46.03617524655352,164.27848480147549Z" fill-rule="evenodd" style="fill: #D7A449; stroke: #fff; opacity: 1;" id="p-type-tokenTransfers"></path><path d="M-58.914131218092194,187.98437473050097A197,197,0,0,1,-64.61553932106654,186.1016713472711L-55.95869853127592,161.16877507347934A170.6070045455344,170.6070045455344,0,0,0,-51.02113427675769,162.79924403114734Z" fill-rule="evenodd" style="fill: #D7A449; stroke: #fff; opacity: 1;" id="p-type-tokenTransfers"></path><path d="M-64.61553932106654,186.1016713472711A197,197,0,0,1,-70.25692447403479,184.0460935837807L-60.84428138627879,159.38859251084227A170.6070045455344,170.6070045455344,0,0,0,-55.95869853127592,161.16877507347934Z" fill-rule="evenodd" style="fill: #D7A449; stroke: #fff; opacity: 1;" id="p-type-tokenTransfers"></path><path d="M-70.25692447403479,184.0460935837807A197,197,0,0,1,-75.8330462567736,181.81955091633583L-65.67334450472637,157.46034999822504A170.6070045455344,170.6070045455344,0,0,0,-60.84428138627879,159.38859251084227Z" fill-rule="evenodd" style="fill: #D7A449; stroke: #fff; opacity: 1;" id="p-type-tokenTransfers"></path><path d="M-75.8330462567736,181.81955091633583A197,197,0,0,1,-81.33872487379551,179.42411163471033L-70.44140205214012,155.38583872711422A170.6070045455344,170.6070045455344,0,0,0,-65.67334450472637,157.46034999822504Z" fill-rule="evenodd" style="fill: #D7A449; stroke: #fff; opacity: 1;" id="p-type-tokenTransfers"></path><path d="M-81.33872487379551,179.42411163471033A197,197,0,0,1,-86.76884596598737,176.86200092086133L-75.14402486360397,153.1669857616127A170.6070045455344,170.6070045455344,0,0,0,-70.44140205214012,155.38583872711422Z" fill-rule="evenodd" style="fill: #D7A449; stroke: #fff; opacity: 1;" id="p-type-tokenTransfers"></path><path d="M-86.76884596598737,176.86200092086133A197,197,0,0,1,-92.11836536146315,174.13559878190327L-79.77684455812357,150.80585224834277A170.6070045455344,170.6070045455344,0,0,0,-75.14402486360397,153.1669857616127Z" fill-rule="evenodd" style="fill: #D7A449; stroke: #fff; opacity: 1;" id="p-type-tokenTransfers"></path><path d="M-92.11836536146315,174.13559878190327A197,197,0,0,1,-97.38231376121823,171.24743783926124L-84.33555759652191,148.30463150179676A170.6070045455344,170.6070045455344,0,0,0,-79.77684455812357,150.80585224834277Z" fill-rule="evenodd" style="fill: #D7A449; stroke: #fff; opacity: 1;" id="p-type-tokenTransfers"></path><path d="M-97.38231376121823,171.24743783926124A197,197,0,0,1,-102.5558013552324,168.20020097605743L-88.81592927910182,145.66564696691387A170.6070045455344,170.6070045455344,0,0,0,-84.33555759652191,148.30463150179676Z" fill-rule="evenodd" style="fill: #D7A449; stroke: #fff; opacity: 1;" id="p-type-tokenTransfers"></path><path d="M-102.5558013552324,168.20020097605743A197,197,0,0,1,-107.63402236473362,164.99671884491528L-93.21379767936173,142.89135006077524A170.6070045455344,170.6070045455344,0,0,0,-88.81592927910182,145.66564696691387Z" fill-rule="evenodd" style="fill: #D7A449; stroke: #fff; opacity: 1;" id="p-type-tokenTransfers"></path><path d="M-107.63402236473362,164.99671884491528A197,197,0,0,1,-112.61225950640313,161.6399672384974L-97.52507751011076,139.98431789542315A170.6070045455344,170.6070045455344,0,0,0,-93.21379767936173,142.89135006077524Z" fill-rule="evenodd" style="fill: #D7A449; stroke: #fff; opacity: 1;" id="p-type-tokenTransfers"></path><path d="M-169.41719026872988,100.53265957612471A197,197,0,0,1,-178.04366592717292,84.31757244615882L-154.19033767584165,73.02115972380835A170.6070045455344,170.6070045455344,0,0,0,-146.71959061050185,87.06383710293692Z" fill-rule="evenodd" style="fill: #414552; stroke: #fff; opacity: 1;" id="p-type-ether"></path></g></svg>