<svg xmlns="http://www.w3.org/2000/svg" width="400" height="400"><g id="container" transform="translate(200,200)"><circle r="200" style="fill: #f9f9f9; stroke: #f9f9f9; opacity: 1;"></circle><path display="none" d="M7.070501591499379e-15,-115.47005383792515A115.47005383792515,115.47005383792515,0,1,1,-7.070501591499379e-15,115.47005383792515A115.47005383792515,115.47005383792515,0,1,1,7.070501591499379e-15,-115.47005383792515Z" fill-rule="evenodd" style="stroke: #fff; opacity: 1;"></path><path d="M9.999199243478977e-15,-163.29931618554522A163.29931618554522,163.29931618554522,0,1,1,-23.776571126943164,-161.5590954793697L-16.812574677225783,-114.23953197582718A115.47005383792515,115.47005383792515,0,1,0,7.070501591499379e-15,-115.47005383792515Z" fill-rule="evenodd" style="fill: #6c7074; stroke: #fff; opacity: 1;"></path><path d="M1.2246467991473532e-14,-200A200,200,0,0,1,189.28795463152187,64.57608095428925L154.55296776744015,52.72614930888923A163.29931618554522,163.29931618554522,0,0,0,9.999199243478977e-15,-163.29931618554522Z" fill-rule="evenodd" style="fill: #f44336; stroke: #fff; opacity: 1;"></path><path d="M189.28795463152187,64.57608095428925A200,200,0,0,1,-43.48603511631141,195.21517551118544L-35.5061989905713,159.39252335008888A163.29931618554522,163.29931618554522,0,0,0,154.55296776744015,52.72614930888923Z" fill-rule="evenodd" style="fill: #6bbc80; stroke: #fff; opacity: 1;"></path><path d="M-43.48603511631141,195.21517551118544A200,200,0,0,1,-162.65794814711307,116.37178311159056L-132.8096585228372,95.01716302707659A163.29931618554522,163.29931618554522,0,0,0,-35.5061989905713,159.39252335008888Z" fill-rule="evenodd" style="fill: #B3DAEF; stroke: #fff; opacity: 1;"></path><path d="M-162.65794814711307,116.37178311159056A200,200,0,0,1,-177.86842977650377,91.44846466092773L-145.22896476749867,74.66735872673748A163.29931618554522,163.29931618554522,0,0,0,-132.8096585228372,95.01716302707659Z" fill-rule="evenodd" style="fill: b3daef; stroke: #fff; opacity: 1;"></path></g></svg>