<svg xmlns="http://www.w3.org/2000/svg" width="400" height="400" id="block-7901163"><g id="burst-container" transform="translate(200,200)"><circle r="197" style="fill: #f9f9f9; stroke: #f9f9f9; stroke-width: 3; opacity: 1;" id="circle-base"></circle><path display="none" d="M6.031385485800715e-15,-98.5A98.5,98.5,0,1,1,-6.031385485800715e-15,98.5A98.5,98.5,0,1,1,6.031385485800715e-15,-98.5Z" fill-rule="evenodd" id="p-type-root" style="stroke: #fff; opacity: 1;"></path><path d="M8.529667153919608e-15,-139.30003589374985A139.30003589374985,139.30003589374985,0,1,1,-134.01701712077121,-37.9991989659112L-94.76434160049098,-26.869491268452656A98.5,98.5,0,1,0,6.031385485800715e-15,-98.5Z" fill-rule="evenodd" style="fill: #0B1F65; stroke: #fff; opacity: 1;" id="p-type-data"></path><path d="M-134.01701712077121,-37.9991989659112A139.30003589374985,139.30003589374985,0,0,1,-29.82154513536711,-136.07047969982048L-21.087016790678785,-96.21635891504954A98.5,98.5,0,0,0,-94.76434160049098,-26.869491268452656Z" fill-rule="evenodd" style="fill: #D7A449; stroke: #fff; opacity: 1;" id="p-type-value"></path><path d="M1.0446666101440332e-14,-170.6070045455344A170.6070045455344,170.6070045455344,0,0,1,164.13665439786337,-46.539324050488304L134.01701712077124,-37.99919896591119A139.30003589374985,139.30003589374985,0,0,0,8.529667153919608e-15,-139.30003589374985Z" fill-rule="evenodd" style="fill: #DB3F29; stroke: #fff; opacity: 1;" id="p-type-functions"></path><path d="M164.13665439786337,-46.539324050488304A170.6070045455344,170.6070045455344,0,0,1,89.54859699850599,145.2163860437215L73.11612327615497,118.56868269937937A139.30003589374985,139.30003589374985,0,0,0,134.01701712077124,-37.99919896591119Z" fill-rule="evenodd" style="fill: #1DC690; stroke: #fff; opacity: 1;" id="p-type-logs"></path><path d="M89.54859699850599,145.2163860437215A170.6070045455344,170.6070045455344,0,0,1,-85.68455902997677,147.52934062022518L-69.96114948627594,120.45720220293575A139.30003589374985,139.30003589374985,0,0,0,73.11612327615497,118.56868269937937Z" fill-rule="evenodd" style="fill: #D7A449; stroke: #fff; opacity: 1;" id="p-type-tokenTransfers"></path><path d="M-85.68455902997677,147.52934062022518A170.6070045455344,170.6070045455344,0,0,1,-131.07984937806373,109.20083830733226L-107.02624884571034,89.16211111237824A139.30003589374985,139.30003589374985,0,0,0,-69.96114948627594,120.45720220293575Z" fill-rule="evenodd" style="fill: #414552; stroke: #fff; opacity: 1;" id="p-type-ether"></path><path d="M-164.13665439786337,-46.53932405048832A170.6070045455344,170.6070045455344,0,0,1,-116.93115055495434,-124.23307140167871L-95.47388463206539,-101.43587803762072A139.30003589374985,139.30003589374985,0,0,0,-134.01701712077121,-37.9991989659112Z" fill-rule="evenodd" style="fill: #D7A449; stroke: #fff; opacity: 1;" id="p-type-tokenTransfers"></path><path d="M-116.93115055495434,-124.23307140167871A170.6070045455344,170.6070045455344,0,0,1,-71.35402141492196,-154.9688795465685L-58.26031452072752,-126.5315602999738A139.30003589374985,139.30003589374985,0,0,0,-95.47388463206539,-101.43587803762072Z" fill-rule="evenodd" style="fill: #414552; stroke: #fff; opacity: 1;" id="p-type-ether"></path><path d="M1.206277097160143e-14,-197A197,197,0,0,1,21.21031102401014,-195.854851117517L18.36866816896191,-169.61527652218876A170.6070045455344,170.6070045455344,0,0,0,1.0446666101440332e-14,-170.6070045455344Z" fill-rule="evenodd" style="fill: #DB3F29; stroke: #fff; opacity: 1;" id="p-type-functions"></path><path d="M21.21031102401014,-195.854851117517A197,197,0,0,1,42.17403358135772,-192.43271783009902L36.52378446151379,-166.65162216014843A170.6070045455344,170.6070045455344,0,0,0,18.36866816896191,-169.61527652218876Z" fill-rule="evenodd" style="fill: #DB3F29; stroke: #fff; opacity: 1;" id="p-type-functions"></path><path d="M42.17403358135772,-192.43271783009902A197,197,0,0,1,62.64744601255812,-186.7733854383531L54.25427972908947,-161.75049654043633A170.6070045455344,170.6070045455344,0,0,0,36.52378446151379,-166.65162216014843Z" fill-rule="evenodd" style="fill: #DB3F29; stroke: #fff; opacity: 1;" id="p-type-functions"></path><path d="M62.64744601255812,-186.7733854383531A197,197,0,0,1,82.39252694333527,-178.9426486444519L71.35402141492217,-154.9688795465684A170.6070045455344,170.6070045455344,0,0,0,54.25427972908947,-161.75049654043633Z" fill-rule="evenodd" style="fill: #DB3F29; stroke: #fff; opacity: 1;" id="p-type-functions"></path><path d="M82.39252694333527,-178.9426486444519A197,197,0,0,1,101.1797224918372,-169.03154663102038L87.62421002579076,-146.38561342343758A170.6070045455344,170.6070045455344,0,0,0,71.35402141492217,-154.9688795465684Z" fill-rule="evenodd" style="fill: #DB3F29; stroke: #fff; opacity: 1;" id="p-type-functions"></path><path d="M101.1797224918372,-169.03154663102038A197,197,0,0,1,118.7906150338268,-157.1553046507981L102.87569035047166,-136.10048616707388A170.6070045455344,170.6070045455344,0,0,0,87.62421002579076,-146.38561342343758Z" fill-rule="evenodd" style="fill: #DB3F29; stroke: #fff; opacity: 1;" id="p-type-functions"></path><path d="M189.528683200982,-53.7389825369053A197,197,0,0,1,194.21285565760905,-33.02070104217523L168.19326674100978,-28.59676595329504A170.6070045455344,170.6070045455344,0,0,0,164.13665439786337,-46.539324050488304Z" fill-rule="evenodd" style="fill: #1DC690; stroke: #fff; opacity: 1;" id="p-type-logs"></path><path d="M194.21285565760905,-33.02070104217523A197,197,0,0,1,196.63913334651895,-11.91852493935125L170.29448485624116,-10.321745373116569A170.6070045455344,170.6070045455344,0,0,0,168.19326674100978,-28.59676595329504Z" fill-rule="evenodd" style="fill: #1DC690; stroke: #fff; opacity: 1;" id="p-type-logs"></path><path d="M196.63913334651895,-11.91852493935125A197,197,0,0,1,196.77930866178227,9.322214468195005L170.41588024024267,8.073274548983715A170.6070045455344,170.6070045455344,0,0,0,170.29448485624116,-10.321745373116569Z" fill-rule="evenodd" style="fill: #1DC690; stroke: #fff; opacity: 1;" id="p-type-logs"></path><path d="M196.77930866178227,9.322214468195005A197,197,0,0,1,194.63175194242817,30.4545749571573L168.55604156521403,26.3744355743556A170.6070045455344,170.6070045455344,0,0,0,170.41588024024267,8.073274548983715Z" fill-rule="evenodd" style="fill: #1DC690; stroke: #fff; opacity: 1;" id="p-type-logs"></path><path d="M194.63175194242817,30.4545749571573A197,197,0,0,1,190.2214304186824,51.23287430420403L164.7365910867929,44.368970656335684A170.6070045455344,170.6070045455344,0,0,0,168.55604156521403,26.3744355743556Z" fill-rule="evenodd" style="fill: #1DC690; stroke: #fff; opacity: 1;" id="p-type-logs"></path><path d="M190.2214304186824,51.23287430420403A197,197,0,0,1,183.5996179460202,71.41554655728272L159.0019332663708,61.84767754375715A170.6070045455344,170.6070045455344,0,0,0,164.7365910867929,44.368970656335684Z" fill-rule="evenodd" style="fill: #1DC690; stroke: #fff; opacity: 1;" id="p-type-logs"></path><path d="M103.4018131652815,167.68143914617448A197,197,0,0,1,84.74706216001792,177.83963409556955L73.39310872667443,154.01364092649243A170.6070045455344,170.6070045455344,0,0,0,89.54859699850599,145.2163860437215Z" fill-rule="evenodd" style="fill: #D7A449; stroke: #fff; opacity: 1;" id="p-type-tokenTransfers"></path><path d="M84.74706216001792,177.83963409556955A197,197,0,0,1,65.107052235706,185.93028733688618L56.38436120164182,161.02035216668355A170.6070045455344,170.6070045455344,0,0,0,73.39310872667443,154.01364092649243Z" fill-rule="evenodd" style="fill: #D7A449; stroke: #fff; opacity: 1;" id="p-type-tokenTransfers"></path><path d="M65.107052235706,185.93028733688618A197,197,0,0,1,44.71011573160241,191.8593379308568L38.72009602970996,166.15506060138534A170.6070045455344,170.6070045455344,0,0,0,56.38436120164182,161.02035216668355Z" fill-rule="evenodd" style="fill: #D7A449; stroke: #fff; opacity: 1;" id="p-type-tokenTransfers"></path><path d="M44.71011573160241,191.8593379308568A197,197,0,0,1,23.79338492226298,195.5578554646707L20.605675784701372,169.3580707420103A170.6070045455344,170.6070045455344,0,0,0,38.72009602970996,166.15506060138534Z" fill-rule="evenodd" style="fill: #D7A449; stroke: #fff; opacity: 1;" id="p-type-tokenTransfers"></path><path d="M23.79338492226298,195.5578554646707A197,197,0,0,1,2.6000351468908933,196.98284142847297L2.251696487939918,170.59214478669935A170.6070045455344,170.6070045455344,0,0,0,20.605675784701372,169.3580707420103Z" fill-rule="evenodd" style="fill: #D7A449; stroke: #fff; opacity: 1;" id="p-type-tokenTransfers"></path><path d="M-98.94000644270294,170.35220904091003A197,197,0,0,1,-101.69179985159276,168.72396937881587L-88.06768202804194,146.11924370940227A170.6070045455344,170.6070045455344,0,0,0,-85.68455902997677,147.52934062022518Z" fill-rule="evenodd" style="fill: #414552; stroke: #fff; opacity: 1;" id="p-type-ether"></path><path d="M-101.69179985159276,168.72396937881587A197,197,0,0,1,-103.34754151391601,167.71489398091452L-89.50159636971814,145.24535878048582A170.6070045455344,170.6070045455344,0,0,0,-88.06768202804194,146.11924370940227Z" fill-rule="evenodd" style="fill: #414552; stroke: #fff; opacity: 1;" id="p-type-ether"></path></g></svg>