<svg xmlns="http://www.w3.org/2000/svg" width="400" height="400"><g id="container" transform="translate(200,200)"><circle r="200" style="fill: #f9f9f9; stroke: #f9f9f9; opacity: 1;"></circle><path display="none" d="M7.070501591499379e-15,-115.47005383792515A115.47005383792515,115.47005383792515,0,1,1,-7.070501591499379e-15,115.47005383792515A115.47005383792515,115.47005383792515,0,1,1,7.070501591499379e-15,-115.47005383792515Z" fill-rule="evenodd" style="stroke: #fff; opacity: 1;"></path><path d="M9.999199243478977e-15,-163.29931618554522A163.29931618554522,163.29931618554522,0,1,1,-2.906475033839074,-163.27344875865253L-2.0551882057770094,-115.4517628049575A115.47005383792515,115.47005383792515,0,1,0,7.070501591499379e-15,-115.47005383792515Z" fill-rule="evenodd" style="fill: #6c7074; stroke: #fff; opacity: 1;"></path><path d="M1.2246467991473532e-14,-200A200,200,0,0,1,196.99579687618987,34.53485215134038L160.84639460654185,28.197588704413945A163.29931618554522,163.29931618554522,0,0,0,9.999199243478977e-15,-163.29931618554522Z" fill-rule="evenodd" style="fill: #f44336; stroke: #fff; opacity: 1;"></path><path d="M196.99579687618987,34.53485215134038A200,200,0,0,1,54.480787806525335,192.43659672728668L44.483376970276886,157.12382327319722A163.29931618554522,163.29931618554522,0,0,0,160.84639460654185,28.197588704413945Z" fill-rule="evenodd" style="fill: b3daef; stroke: #fff; opacity: 1;"></path><path d="M54.480787806525335,192.43659672728668A200,200,0,0,1,-106.35258430129223,169.3786521744595L-86.83652145483286,138.29709038259273A163.29931618554522,163.29931618554522,0,0,0,44.483376970276886,157.12382327319722Z" fill-rule="evenodd" style="fill: #6bbc80; stroke: #fff; opacity: 1;"></path><path d="M-106.35258430129223,169.3786521744595A200,200,0,0,1,-185.1987666684035,75.50772691918516L-151.2141597767832,61.65180086313911A163.29931618554522,163.29931618554522,0,0,0,-86.83652145483286,138.29709038259273Z" fill-rule="evenodd" style="fill: #B3DAEF; stroke: #fff; opacity: 1;"></path></g></svg>