<svg xmlns="http://www.w3.org/2000/svg" width="400" height="400" id="block-7901160"><g id="burst-container" transform="translate(200,200)"><circle r="197" style="fill: #f9f9f9; stroke: #f9f9f9; stroke-width: 3; opacity: 1;" id="circle-base"></circle><path display="none" d="M6.031385485800715e-15,-98.5A98.5,98.5,0,1,1,-6.031385485800715e-15,98.5A98.5,98.5,0,1,1,6.031385485800715e-15,-98.5Z" fill-rule="evenodd" id="p-type-root" style="stroke: #fff; opacity: 1;"></path><path d="M8.529667153919608e-15,-139.30003589374985A139.30003589374985,139.30003589374985,0,1,1,-103.42370843726808,-93.31686092600287L-73.13160557145261,-65.9849851598186A98.5,98.5,0,1,0,6.031385485800715e-15,-98.5Z" fill-rule="evenodd" style="fill: #0B1F65; stroke: #fff; opacity: 1;" id="p-type-data"></path><path d="M-103.42370843726808,-93.31686092600287A139.30003589374985,139.30003589374985,0,0,1,-5.975384010748467,-139.17181749881723L-4.225234554193912,-98.40933590347029A98.5,98.5,0,0,0,-73.13160557145261,-65.9849851598186Z" fill-rule="evenodd" style="fill: #D7A449; stroke: #fff; opacity: 1;" id="p-type-value"></path><path d="M1.0446666101440332e-14,-170.6070045455344A170.6070045455344,170.6070045455344,0,0,1,170.08091920897124,13.3877153028962L138.8704890151698,10.931023771248544A139.30003589374985,139.30003589374985,0,0,0,8.529667153919608e-15,-139.30003589374985Z" fill-rule="evenodd" style="fill: #DB3F29; stroke: #fff; opacity: 1;" id="p-type-functions"></path><path d="M170.08091920897124,13.3877153028962A170.6070045455344,170.6070045455344,0,0,1,-16.24895407916242,169.83145024209523L-13.267215449287741,138.66679845666798A139.30003589374985,139.30003589374985,0,0,0,138.8704890151698,10.931023771248544Z" fill-rule="evenodd" style="fill: #1DC690; stroke: #fff; opacity: 1;" id="p-type-logs"></path><path d="M-16.24895407916242,169.83145024209523A170.6070045455344,170.6070045455344,0,0,1,-130.17068605927062,110.28301088952372L-106.28392010441087,90.04570132571129A139.30003589374985,139.30003589374985,0,0,0,-13.267215449287741,138.66679845666798Z" fill-rule="evenodd" style="fill: #D7A449; stroke: #fff; opacity: 1;" id="p-type-tokenTransfers"></path><path d="M-130.17068605927062,110.28301088952372A170.6070045455344,170.6070045455344,0,0,1,-165.18296354865888,42.67714321838362L-134.87132496498916,34.84574152157312A139.30003589374985,139.30003589374985,0,0,0,-106.28392010441087,90.04570132571129Z" fill-rule="evenodd" style="fill: #414552; stroke: #fff; opacity: 1;" id="p-type-ether"></path><path d="M-126.6676564888431,-114.2893468334842A170.6070045455344,170.6070045455344,0,0,1,-67.63530986125396,-156.62763121484076L-55.223999251701166,-127.88592536572625A139.30003589374985,139.30003589374985,0,0,0,-103.42370843726808,-93.31686092600287Z" fill-rule="evenodd" style="fill: #D7A449; stroke: #fff; opacity: 1;" id="p-type-tokenTransfers"></path><path d="M-67.63530986125396,-156.62763121484076A170.6070045455344,170.6070045455344,0,0,1,-14.623169580483701,-169.97915434376185L-11.93976796479127,-138.7873983506678A139.30003589374985,139.30003589374985,0,0,0,-55.223999251701166,-127.88592536572625Z" fill-rule="evenodd" style="fill: #414552; stroke: #fff; opacity: 1;" id="p-type-ether"></path><path d="M1.206277097160143e-14,-197A197,197,0,0,1,4.226207166757649,-196.95466273481227L3.6600027680679816,-170.56774132214372A170.6070045455344,170.6070045455344,0,0,0,1.0446666101440332e-14,-170.6070045455344Z" fill-rule="evenodd" style="fill: #DB3F29; stroke: #fff; opacity: 1;" id="p-type-functions"></path><path d="M4.226207166757649,-196.95466273481227A197,197,0,0,1,8.450469108387798,-196.81867180694059L7.318320921759468,-170.4499697239226A170.6070045455344,170.6070045455344,0,0,0,3.6600027680679816,-170.56774132214372Z" fill-rule="evenodd" style="fill: #DB3F29; stroke: #fff; opacity: 1;" id="p-type-functions"></path><path d="M8.450469108387798,-196.81867180694059A197,197,0,0,1,12.670841495104977,-196.59208980985457L10.973270622086908,-170.25374395840592A170.6070045455344,170.6070045455344,0,0,0,7.318320921759468,-170.4499697239226Z" fill-rule="evenodd" style="fill: #DB3F29; stroke: #fff; opacity: 1;" id="p-type-functions"></path><path d="M12.670841495104977,-196.59208980985457A197,197,0,0,1,16.8853817873956,-196.2750210339917L14.62316958048368,-169.97915434376185A170.6070045455344,170.6070045455344,0,0,0,10.973270622086908,-170.25374395840592Z" fill-rule="evenodd" style="fill: #DB3F29; stroke: #fff; opacity: 1;" id="p-type-functions"></path><path d="M16.8853817873956,-196.2750210339917A197,197,0,0,1,21.092150130123876,-195.86761141875476L18.266337833122527,-169.62632726722063A170.6070045455344,170.6070045455344,0,0,0,14.62316958048368,-169.97915434376185Z" fill-rule="evenodd" style="fill: #DB3F29; stroke: #fff; opacity: 1;" id="p-type-functions"></path><path d="M21.092150130123876,-195.86761141875476A197,197,0,0,1,25.289210245402067,-195.37004848533937L21.901098514163888,-169.19542512690137A170.6070045455344,170.6070045455344,0,0,0,18.266337833122527,-169.62632726722063Z" fill-rule="evenodd" style="fill: #DB3F29; stroke: #fff; opacity: 1;" id="p-type-functions"></path><path d="M25.289210245402067,-195.37004848533937A197,197,0,0,1,29.474630323814477,-194.78256125042222L25.52577862757849,-168.68664625706404A170.6070045455344,170.6070045455344,0,0,0,21.901098514163888,-169.19542512690137Z" fill-rule="evenodd" style="fill: #DB3F29; stroke: #fff; opacity: 1;" id="p-type-functions"></path><path d="M29.474630323814477,-194.78256125042222A197,197,0,0,1,33.64648391358423,-194.10542012075015L29.1387098171884,-168.10022483682076A170.6070045455344,170.6070045455344,0,0,0,25.52577862757849,-168.68664625706404Z" fill-rule="evenodd" style="fill: #DB3F29; stroke: #fff; opacity: 1;" id="p-type-functions"></path><path d="M33.64648391358423,-194.10542012075015A197,197,0,0,1,37.80285080727454,-193.3389367686782L32.738229134572826,-167.43643078234857A170.6070045455344,170.6070045455344,0,0,0,29.1387098171884,-168.10022483682076Z" fill-rule="evenodd" style="fill: #DB3F29; stroke: #fff; opacity: 1;" id="p-type-functions"></path><path d="M37.80285080727454,-193.3389367686782A197,197,0,0,1,41.94181792561559,-192.48346398871388L36.32267980448465,-166.69556962265338A170.6070045455344,170.6070045455344,0,0,0,32.738229134572826,-167.43643078234857Z" fill-rule="evenodd" style="fill: #DB3F29; stroke: #fff; opacity: 1;" id="p-type-functions"></path><path d="M41.94181792561559,-192.48346398871388A197,197,0,0,1,46.06148019805056,-191.53939553513422L39.89041198742566,-165.87798235894192A170.6070045455344,170.6070045455344,0,0,0,36.32267980448465,-166.69556962265338Z" fill-rule="evenodd" style="fill: #DB3F29; stroke: #fff; opacity: 1;" id="p-type-functions"></path><path d="M46.06148019805056,-191.53939553513422A197,197,0,0,1,50.15994143959539,-190.50716594074976L43.4397835390294,-164.98404530766686A170.6070045455344,170.6070045455344,0,0,0,39.89041198742566,-165.87798235894192Z" fill-rule="evenodd" style="fill: #DB3F29; stroke: #fff; opacity: 1;" id="p-type-functions"></path><path d="M50.15994143959539,-190.50716594074976A197,197,0,0,1,54.23531522360876,-189.38725031689907L46.96916076590209,-164.01416992731708A170.6070045455344,170.6070045455344,0,0,0,43.4397835390294,-164.98404530766686Z" fill-rule="evenodd" style="fill: #DB3F29; stroke: #fff; opacity: 1;" id="p-type-functions"></path><path d="M54.23531522360876,-189.38725031689907A197,197,0,0,1,58.285725750070526,-188.18016413476624L50.47691917757388,-162.9688026290329A170.6070045455344,170.6070045455344,0,0,0,46.96916076590209,-164.01416992731708Z" fill-rule="evenodd" style="fill: #DB3F29; stroke: #fff; opacity: 1;" id="p-type-functions"></path><path d="M58.285725750070526,-188.18016413476624A197,197,0,0,1,62.30930870896894,-186.88646298812122L53.96144423421406,-161.84842457113325A170.6070045455344,170.6070045455344,0,0,0,50.47691917757388,-162.9688026290329Z" fill-rule="evenodd" style="fill: #DB3F29; stroke: #fff; opacity: 1;" id="p-type-functions"></path><path d="M62.30930870896894,-186.88646298812122A197,197,0,0,1,66.3042121383993,-185.50674233759307L57.42113208976633,-160.65355143764984A170.6070045455344,170.6070045455344,0,0,0,53.96144423421406,-161.84842457113325Z" fill-rule="evenodd" style="fill: #DB3F29; stroke: #fff; opacity: 1;" id="p-type-functions"></path><path d="M66.3042121383993,-185.50674233759307A197,197,0,0,1,70.26859727697908,-184.0416372365931L60.85439033016191,-159.38473320096972A170.6070045455344,170.6070045455344,0,0,0,57.42113208976633,-160.65355143764984Z" fill-rule="evenodd" style="fill: #DB3F29; stroke: #fff; opacity: 1;" id="p-type-functions"></path><path d="M70.26859727697908,-184.0416372365931A197,197,0,0,1,74.20063941018711,-182.49182203901464L64.25963870627082,-158.04255386869556A170.6070045455344,170.6070045455344,0,0,0,60.85439033016191,-159.38473320096972Z" fill-rule="evenodd" style="fill: #DB3F29; stroke: #fff; opacity: 1;" id="p-type-functions"></path><path d="M74.20063941018711,-182.49182203901464A197,197,0,0,1,78.09852871023737,-180.85801008884354L67.6353098612539,-156.6276312148408A170.6070045455344,170.6070045455344,0,0,0,64.25963870627082,-158.04255386869556Z" fill-rule="evenodd" style="fill: #DB3F29; stroke: #fff; opacity: 1;" id="p-type-functions"></path><path d="M78.09852871023737,-180.85801008884354A197,197,0,0,1,81.96047106910076,-179.14095339182242L70.97985005198079,-155.14061649548233A170.6070045455344,170.6070045455344,0,0,0,67.6353098612539,-156.6276312148408Z" fill-rule="evenodd" style="fill: #DB3F29; stroke: #fff; opacity: 1;" id="p-type-functions"></path><path d="M81.96047106910076,-179.14095339182242A197,197,0,0,1,85.78468892429134,-177.34144226932003L74.29171986418187,-153.5821941490026A170.6070045455344,170.6070045455344,0,0,0,70.97985005198079,-155.14061649548233Z" fill-rule="evenodd" style="fill: #DB3F29; stroke: #fff; opacity: 1;" id="p-type-functions"></path><path d="M85.78468892429134,-177.34144226932003A197,197,0,0,1,89.56942207703717,-175.4603049945644L77.56939492100493,-151.9530814810584A170.6070045455344,170.6070045455344,0,0,0,74.29171986418187,-153.5821941490026Z" fill-rule="evenodd" style="fill: #DB3F29; stroke: #fff; opacity: 1;" id="p-type-functions"></path><path d="M89.56942207703717,-175.4603049945644A197,197,0,0,1,93.31292850245896,-173.49840741140818L80.81136658465047,-150.25402833442183A170.6070045455344,170.6070045455344,0,0,0,77.56939492100493,-151.9530814810584Z" fill-rule="evenodd" style="fill: #DB3F29; stroke: #fff; opacity: 1;" id="p-type-functions"></path><path d="M93.31292850245896,-173.49840741140818A197,197,0,0,1,97.01348515138363,-171.45665253580063L84.01614265076265,-148.48581674384494A170.6070045455344,170.6070045455344,0,0,0,80.81136658465047,-150.25402833442183Z" fill-rule="evenodd" style="fill: #DB3F29; stroke: #fff; opacity: 1;" id="p-type-functions"></path><path d="M97.01348515138363,-171.45665253580063A197,197,0,0,1,100.66938874342414,-169.33598014015024L87.1822480352565,-146.64926057610728A170.6070045455344,170.6070045455344,0,0,0,84.01614265076265,-148.48581674384494Z" fill-rule="evenodd" style="fill: #DB3F29; stroke: #fff; opacity: 1;" id="p-type-functions"></path><path d="M100.66938874342414,-169.33598014015024A197,197,0,0,1,104.27895655095959,-167.13736632076944L90.30822545326471,-144.745205155412A170.6070045455344,170.6070045455344,0,0,0,87.1822480352565,-146.64926057610728Z" fill-rule="evenodd" style="fill: #DB3F29; stroke: #fff; opacity: 1;" id="p-type-functions"></path><path d="M104.27895655095959,-167.13736632076944A197,197,0,0,1,107.84052717365596,-164.8618230486002L93.39263608989212,-142.77452687430267A170.6070045455344,170.6070045455344,0,0,0,90.30822545326471,-144.745205155412Z" fill-rule="evenodd" style="fill: #DB3F29; stroke: #fff; opacity: 1;" id="p-type-functions"></path><path d="M107.84052717365596,-164.8618230486002A197,197,0,0,1,111.35246130316999,-162.51039770342703L96.43406026246888,-140.7381327902801A170.6070045455344,170.6070045455344,0,0,0,93.39263608989212,-142.77452687430267Z" fill-rule="evenodd" style="fill: #DB3F29; stroke: #fff; opacity: 1;" id="p-type-functions"></path><path d="M111.35246130316999,-162.51039770342703A197,197,0,0,1,114.81314247768495,-160.0841725917925L99.43109807399739,-138.63696020830488A170.6070045455344,170.6070045455344,0,0,0,96.43406026246888,-140.7381327902801Z" fill-rule="evenodd" style="fill: #DB3F29; stroke: #fff; opacity: 1;" id="p-type-functions"></path><path d="M114.81314247768495,-160.0841725917925A197,197,0,0,1,118.2209778259304,-157.58426444883662L102.38237005749255,-136.4719762493775A170.6070045455344,170.6070045455344,0,0,0,99.43109807399739,-138.63696020830488Z" fill-rule="evenodd" style="fill: #DB3F29; stroke: #fff; opacity: 1;" id="p-type-functions"></path><path d="M118.2209778259304,-157.58426444883662A197,197,0,0,1,121.57439880034389,-155.01182392428953L105.28651781091818,-134.24417740539513A170.6070045455344,170.6070045455344,0,0,0,102.38237005749255,-136.4719762493775Z" fill-rule="evenodd" style="fill: #DB3F29; stroke: #fff; opacity: 1;" id="p-type-functions"></path><path d="M121.57439880034389,-155.01182392428953A197,197,0,0,1,124.32051974782365,-152.8182200185272L107.66472831330026,-132.34446069716418A170.6070045455344,170.6070045455344,0,0,0,105.28651781091818,-134.24417740539513Z" fill-rule="evenodd" style="fill: #DB3F29; stroke: #fff; opacity: 1;" id="p-type-functions"></path><path d="M124.32051974782365,-152.8182200185272A197,197,0,0,1,125.62737957311593,-151.745713289016L108.79650212118867,-131.41564262367774A170.6070045455344,170.6070045455344,0,0,0,107.66472831330026,-132.34446069716418Z" fill-rule="evenodd" style="fill: #DB3F29; stroke: #fff; opacity: 1;" id="p-type-functions"></path><path d="M125.62737957311593,-151.745713289016A197,197,0,0,1,126.6014580306293,-150.93399492665264L109.6400788106744,-130.71267390115275A170.6070045455344,170.6070045455344,0,0,0,108.79650212118867,-131.41564262367774Z" fill-rule="evenodd" style="fill: #DB3F29; stroke: #fff; opacity: 1;" id="p-type-functions"></path><path d="M196.39252897863707,15.458802067922388A197,197,0,0,1,196.01569649002724,19.66841959918297L169.7545727008638,17.0333510251842A170.6070045455344,170.6070045455344,0,0,0,170.08091920897124,13.3877153028962Z" fill-rule="evenodd" style="fill: #1DC690; stroke: #fff; opacity: 1;" id="p-type-logs"></path><path d="M196.01569649002724,19.66841959918297A197,197,0,0,1,195.5486425231156,23.868984213131963L169.35009210058004,20.671146691102A170.6070045455344,170.6070045455344,0,0,0,169.7545727008638,17.0333510251842Z" fill-rule="evenodd" style="fill: #1DC690; stroke: #fff; opacity: 1;" id="p-type-logs"></path><path d="M195.5486425231156,23.868984213131963A197,197,0,0,1,194.99158205200933,28.05856248731412L168.86766358115787,24.299427907687114A170.6070045455344,170.6070045455344,0,0,0,169.35009210058004,20.671146691102Z" fill-rule="evenodd" style="fill: #1DC690; stroke: #fff; opacity: 1;" id="p-type-logs"></path><path d="M194.99158205200933,28.05856248731412A197,197,0,0,1,194.34477147872167,32.23522605603157L168.3075091932544,27.916524661257398A170.6070045455344,170.6070045455344,0,0,0,168.86766358115787,24.299427907687114Z" fill-rule="evenodd" style="fill: #1DC690; stroke: #fff; opacity: 1;" id="p-type-logs"></path><path d="M194.34477147872167,32.23522605603157A197,197,0,0,1,193.60850851515602,36.397052497925785L167.6698867629409,31.52077208607959A170.6070045455344,170.6070045455344,0,0,0,168.3075091932544,27.916524661257398Z" fill-rule="evenodd" style="fill: #1DC690; stroke: #fff; opacity: 1;" id="p-type-logs"></path><path d="M193.60850851515602,36.397052497925785A197,197,0,0,1,192.7831320460761,40.54212622082354L166.9550897730318,35.110511230668386A170.6070045455344,170.6070045455344,0,0,0,167.6698867629409,31.52077208607959Z" fill-rule="evenodd" style="fill: #1DC690; stroke: #fff; opacity: 1;" id="p-type-logs"></path><path d="M192.7831320460761,40.54212622082354A197,197,0,0,1,191.86902197312517,44.6685393434396L166.16344722800105,38.68408982136336A170.6070045455344,170.6070045455344,0,0,0,166.9550897730318,35.110511230668386Z" fill-rule="evenodd" style="fill: #1DC690; stroke: #fff; opacity: 1;" id="p-type-logs"></path><path d="M191.86902197312517,44.6685393434396A197,197,0,0,1,190.86659903996605,48.77439257353014L165.29532350254914,42.23986302283217A170.6070045455344,170.6070045455344,0,0,0,166.16344722800105,38.68408982136336Z" fill-rule="evenodd" style="fill: #1DC690; stroke: #fff; opacity: 1;" id="p-type-logs"></path><path d="M190.86659903996605,48.77439257353014A197,197,0,0,1,189.7763246386226,52.857796082093L164.35111817388986,45.77619419515011A170.6070045455344,170.6070045455344,0,0,0,165.29532350254914,42.23986302283217Z" fill-rule="evenodd" style="fill: #1DC690; stroke: #fff; opacity: 1;" id="p-type-logs"></path><path d="M189.7763246386226,52.857796082093A197,197,0,0,1,188.59870059711167,56.916870373212085L163.33126583783408,49.29145564710755A170.6070045455344,170.6070045455344,0,0,0,164.35111817388986,45.77619419515011Z" fill-rule="evenodd" style="fill: #1DC690; stroke: #fff; opacity: 1;" id="p-type-logs"></path><path d="M188.59870059711167,56.916870373212085A197,197,0,0,1,187.33426894846338,60.94974714914571L162.23623590875562,52.78402938539835A170.6070045455344,170.6070045455344,0,0,0,163.33126583783408,49.29145564710755Z" fill-rule="evenodd" style="fill: #1DC690; stroke: #fff; opacity: 1;" id="p-type-logs"></path><path d="M187.33426894846338,60.94974714914571A197,197,0,0,1,185.9836116812357,64.9545701702608L161.06653240353037,56.25230785934476A170.6070045455344,170.6070045455344,0,0,0,162.23623590875562,52.78402938539835Z" fill-rule="evenodd" style="fill: #1DC690; stroke: #fff; opacity: 1;" id="p-type-logs"></path><path d="M185.9836116812357,64.9545701702608A197,197,0,0,1,184.54735047163882,68.92949610941685L159.82269370954933,59.69469470081562A170.6070045455344,170.6070045455344,0,0,0,161.06653240353037,56.25230785934476Z" fill-rule="evenodd" style="fill: #1DC690; stroke: #fff; opacity: 1;" id="p-type-logs"></path><path d="M184.54735047163882,68.92949610941685A197,197,0,0,1,183.02614639739193,72.87269540040671L158.5052923369111,63.10960545899763A170.6070045455344,170.6070045455344,0,0,0,159.82269370954933,59.69469470081562Z" fill-rule="evenodd" style="fill: #1DC690; stroke: #fff; opacity: 1;" id="p-type-logs"></path><path d="M183.02614639739193,72.87269540040671A197,197,0,0,1,181.42069963344446,76.78235308006344L157.1149346549091,66.49546832968129A170.6070045455344,170.6070045455344,0,0,0,158.5052923369111,63.10960545899763Z" fill-rule="evenodd" style="fill: #1DC690; stroke: #fff; opacity: 1;" id="p-type-logs"></path><path d="M181.42069963344446,76.78235308006344A197,197,0,0,1,179.7317491297018,80.65666962364578L155.65226061293342,69.8507248787259A170.6070045455344,170.6070045455344,0,0,0,157.1149346549091,66.49546832968129Z" fill-rule="evenodd" style="fill: #1DC690; stroke: #fff; opacity: 1;" id="p-type-logs"></path><path d="M179.7317491297018,80.65666962364578A197,197,0,0,1,177.96007227090382,84.49386177311754L154.11794344591735,73.17383075937067A170.6070045455344,170.6070045455344,0,0,0,155.65226061293342,69.8507248787259Z" fill-rule="evenodd" style="fill: #1DC690; stroke: #fff; opacity: 1;" id="p-type-logs"></path><path d="M177.96007227090382,84.49386177311754A197,197,0,0,1,176.10648451881266,88.29216335794017L152.51268936446274,76.46325642306175A170.6070045455344,170.6070045455344,0,0,0,154.11794344591735,73.17383075937067Z" fill-rule="evenodd" style="fill: #1DC690; stroke: #fff; opacity: 1;" id="p-type-logs"></path><path d="M176.10648451881266,88.29216335794017A197,197,0,0,1,174.17183903687473,92.04982610799976L150.8372372297877,79.71748782346785A170.6070045455344,170.6070045455344,0,0,0,152.51268936446274,76.46325642306175Z" fill-rule="evenodd" style="fill: #1DC690; stroke: #fff; opacity: 1;" id="p-type-logs"></path><path d="M174.17183903687473,92.04982610799976A197,197,0,0,1,172.1570262975292,95.76512045829547L149.09235821364595,82.93502711336073A170.6070045455344,170.6070045455344,0,0,0,150.8372372297877,79.71748782346785Z" fill-rule="evenodd" style="fill: #1DC690; stroke: #fff; opacity: 1;" id="p-type-logs"></path><path d="M172.1570262975292,95.76512045829547A197,197,0,0,1,170.06297367234424,99.43633634501805L147.27885544337425,86.1143933340395A170.6070045455344,170.6070045455344,0,0,0,149.09235821364595,82.93502711336073Z" fill-rule="evenodd" style="fill: #1DC690; stroke: #fff; opacity: 1;" id="p-type-logs"></path><path d="M170.06297367234424,99.43633634501805A197,197,0,0,1,167.8906450051694,103.0617839926526L145.39756363223168,89.25412309698154A170.6070045455344,170.6070045455344,0,0,0,147.27885544337425,86.1143933340395Z" fill-rule="evenodd" style="fill: #1DC690; stroke: #fff; opacity: 1;" id="p-type-logs"></path><path d="M167.8906450051694,103.0617839926526A197,197,0,0,1,165.6410401685008,106.639794691743L143.44934869520034,92.35277125740637A170.6070045455344,170.6070045455344,0,0,0,145.39756363223168,89.25412309698154Z" fill-rule="evenodd" style="fill: #1DC690; stroke: #fff; opacity: 1;" id="p-type-logs"></path><path d="M165.6410401685008,106.639794691743A197,197,0,0,1,163.31519460326274,110.16872156696027L141.43510735042477,95.40891157944216A170.6070045455344,170.6070045455344,0,0,0,143.44934869520034,92.35277125740637Z" fill-rule="evenodd" style="fill: #1DC690; stroke: #fff; opacity: 1;" id="p-type-logs"></path><path d="M163.31519460326274,110.16872156696027A197,197,0,0,1,160.91417884221843,113.64694033512096L139.3557667064736,98.42113739258913A170.6070045455344,170.6070045455344,0,0,0,141.43510735042477,95.40891157944216Z" fill-rule="evenodd" style="fill: #1DC690; stroke: #fff; opacity: 1;" id="p-type-logs"></path><path d="M160.91417884221843,113.64694033512096A197,197,0,0,1,158.43909801722856,117.07285005280701L137.21228383561262,101.38806223917723A170.6070045455344,170.6070045455344,0,0,0,139.3557667064736,98.42113739258913Z" fill-rule="evenodd" style="fill: #1DC690; stroke: #fff; opacity: 1;" id="p-type-logs"></path><path d="M158.43909801722856,117.07285005280701A197,197,0,0,1,155.89109135058476,120.44487385324307L135.005645333287,104.3083205125206A170.6070045455344,170.6070045455344,0,0,0,137.21228383561262,101.38806223917723Z" fill-rule="evenodd" style="fill: #1DC690; stroke: #fff; opacity: 1;" id="p-type-logs"></path><path d="M155.89109135058476,120.44487385324307A197,197,0,0,1,153.27133163065196,123.76145967209139L132.73686686401396,107.18056808547446A170.6070045455344,170.6070045455344,0,0,0,135.005645333287,104.3083205125206Z" fill-rule="evenodd" style="fill: #1DC690; stroke: #fff; opacity: 1;" id="p-type-logs"></path><path d="M153.27133163065196,123.76145967209139A197,197,0,0,1,150.58102467206115,127.02108096183136L130.40699269389626,110.00348292910587A170.6070045455344,170.6070045455344,0,0,0,132.73686686401396,107.18056808547446Z" fill-rule="evenodd" style="fill: #1DC690; stroke: #fff; opacity: 1;" id="p-type-logs"></path><path d="M150.58102467206115,127.02108096183136A197,197,0,0,1,147.82140876070076,130.22223739439366L128.01709520997045,112.7757657211928A170.6070045455344,170.6070045455344,0,0,0,130.40699269389626,110.00348292910587Z" fill-rule="evenodd" style="fill: #1DC690; stroke: #fff; opacity: 1;" id="p-type-logs"></path><path d="M147.82140876070076,130.22223739439366A197,197,0,0,1,144.99375408376264,133.36345555172662L125.56827442661212,115.49614044427209A170.6070045455344,170.6070045455344,0,0,0,128.01709520997045,112.7757657211928Z" fill-rule="evenodd" style="fill: #1DC690; stroke: #fff; opacity: 1;" id="p-type-logs"></path><path d="M144.99375408376264,133.36345555172662A197,197,0,0,1,142.09936214510412,136.44328960397632L123.06165747922496,118.16335497296069A170.6070045455344,170.6070045455344,0,0,0,125.56827442661212,115.49614044427209Z" fill-rule="evenodd" style="fill: #1DC690; stroke: #fff; opacity: 1;" id="p-type-logs"></path><path d="M142.09936214510412,136.44328960397632A197,197,0,0,1,139.139565166196,139.46032197496854L120.49839810544611,120.77618165027995A170.6070045455344,170.6070045455344,0,0,0,123.06165747922496,118.16335497296069Z" fill-rule="evenodd" style="fill: #1DC690; stroke: #fff; opacity: 1;" id="p-type-logs"></path><path d="M139.139565166196,139.46032197496854A197,197,0,0,1,136.11572547293213,142.41316399468616L117.87967611410785,123.33341785271757A170.6070045455344,170.6070045455344,0,0,0,120.49839810544611,120.77618165027995Z" fill-rule="evenodd" style="fill: #1DC690; stroke: #fff; opacity: 1;" id="p-type-logs"></path><path d="M136.11572547293213,142.41316399468616A197,197,0,0,1,133.02923486858208,145.30045653844186L115.20669684219871,125.83388654376738A170.6070045455344,170.6070045455344,0,0,0,117.87967611410785,123.33341785271757Z" fill-rule="evenodd" style="fill: #1DC690; stroke: #fff; opacity: 1;" id="p-type-logs"></path><path d="M133.02923486858208,145.30045653844186A197,197,0,0,1,129.8815139931766,148.12087065245152L112.480690600075,128.2764368156919A170.6070045455344,170.6070045455344,0,0,0,115.20669684219871,125.83388654376738Z" fill-rule="evenodd" style="fill: #1DC690; stroke: #fff; opacity: 1;" id="p-type-logs"></path><path d="M129.8815139931766,148.12087065245152A197,197,0,0,1,126.67401166961992,150.873108165521L109.70291210517728,130.65994441925858A170.6070045455344,170.6070045455344,0,0,0,112.480690600075,128.2764368156919Z" fill-rule="evenodd" style="fill: #1DC690; stroke: #fff; opacity: 1;" id="p-type-logs"></path><path d="M-18.76267602330858,196.10446702827645A197,197,0,0,1,-22.965353462748116,195.65682339323368L-19.888579505628794,169.4437794823058A170.6070045455344,170.6070045455344,0,0,0,-16.24895407916242,169.83145024209523Z" fill-rule="evenodd" style="fill: #D7A449; stroke: #fff; opacity: 1;" id="p-type-tokenTransfers"></path><path d="M-22.965353462748116,195.65682339323368A197,197,0,0,1,-27.157460482694546,195.11912346085117L-23.519050680285478,168.9781176812494A170.6070045455344,170.6070045455344,0,0,0,-19.888579505628794,169.4437794823058Z" fill-rule="evenodd" style="fill: #D7A449; stroke: #fff; opacity: 1;" id="p-type-tokenTransfers"></path><path d="M-27.157460482694546,195.11912346085117A197,197,0,0,1,-31.337067553526975,194.4916147219352L-27.138696581463428,168.4346791722514A170.6070045455344,170.6070045455344,0,0,0,-23.519050680285478,168.9781176812494Z" fill-rule="evenodd" style="fill: #D7A449; stroke: #fff; opacity: 1;" id="p-type-tokenTransfers"></path><path d="M-31.337067553526975,194.4916147219352A197,197,0,0,1,-35.502250899061124,193.7745860042026L-30.74585117011586,167.81371408745198A170.6070045455344,170.6070045455344,0,0,0,-27.138696581463428,168.4346791722514Z" fill-rule="evenodd" style="fill: #D7A449; stroke: #fff; opacity: 1;" id="p-type-tokenTransfers"></path><path d="M-35.502250899061124,193.7745860042026A197,197,0,0,1,-39.65109338201891,192.96836733933986L-34.338854156657405,167.1155082426757A170.6070045455344,170.6070045455344,0,0,0,-30.74585117011586,167.81371408745198Z" fill-rule="evenodd" style="fill: #D7A449; stroke: #fff; opacity: 1;" id="p-type-tokenTransfers"></path><path d="M-39.65109338201891,192.96836733933986A197,197,0,0,1,-43.78168538644223,192.07332981109738L-37.91605176515689,166.34038300587727A170.6070045455344,170.6070045455344,0,0,0,-34.338854156657405,167.1155082426757Z" fill-rule="evenodd" style="fill: #D7A449; stroke: #fff; opacity: 1;" id="p-type-tokenTransfers"></path><path d="M-43.78168538644223,192.07332981109738A197,197,0,0,1,-47.892125696644925,191.089885384488L-41.47579749453201,165.48869514922333A170.6070045455344,170.6070045455344,0,0,0,-37.91605176515689,166.34038300587727Z" fill-rule="evenodd" style="fill: #D7A449; stroke: #fff; opacity: 1;" id="p-type-tokenTransfers"></path><path d="M-47.892125696644925,191.089885384488A197,197,0,0,1,-51.98052237229826,190.0184867161693L-45.01645287639565,164.5608366848785A170.6070045455344,170.6070045455344,0,0,0,-41.47579749453201,165.48869514922333Z" fill-rule="evenodd" style="fill: #D7A449; stroke: #fff; opacity: 1;" id="p-type-tokenTransfers"></path><path d="M-51.98052237229826,190.0184867161693A197,197,0,0,1,-56.044993619247116,188.859626946096L-48.53638822920477,163.55723468457123A170.6070045455344,170.6070045455344,0,0,0,-45.01645287639565,164.5608366848785Z" fill-rule="evenodd" style="fill: #D7A449; stroke: #fff; opacity: 1;" id="p-type-tokenTransfers"></path><path d="M-56.044993619247116,188.859626946096A197,197,0,0,1,-60.08366865565627,187.61383947053935L-52.03398340836514,162.4783510830227A170.6070045455344,170.6070045455344,0,0,0,-48.53638822920477,163.55723468457123Z" fill-rule="evenodd" style="fill: #D7A449; stroke: #fff; opacity: 1;" id="p-type-tokenTransfers"></path><path d="M-60.08366865565627,187.61383947053935A197,197,0,0,1,-64.09468857308784,186.28169769657697L-55.50762855194623,161.3246824653288A170.6070045455344,170.6070045455344,0,0,0,-52.03398340836514,162.4783510830227Z" fill-rule="evenodd" style="fill: #D7A449; stroke: #fff; opacity: 1;" id="p-type-tokenTransfers"></path><path d="M-64.09468857308784,186.28169769657697A197,197,0,0,1,-68.07620719211367,184.86381477816693L-58.955724821663345,160.0967598383937A170.6070045455344,170.6070045455344,0,0,0,-55.50762855194623,161.3246824653288Z" fill-rule="evenodd" style="fill: #D7A449; stroke: #fff; opacity: 1;" id="p-type-tokenTransfers"></path><path d="M-68.07620719211367,184.86381477816693A197,197,0,0,1,-72.026391912069,183.3608433339273L-62.37668513878578,158.7951483865196A170.6070045455344,170.6070045455344,0,0,0,-58.955724821663345,160.0967598383937Z" fill-rule="evenodd" style="fill: #D7A449; stroke: #fff; opacity: 1;" id="p-type-tokenTransfers"></path><path d="M-72.026391912069,183.3608433339273A197,197,0,0,1,-75.94342455455599,181.77347514675088L-65.7689349146324,157.42044721126555A170.6070045455344,170.6070045455344,0,0,0,-62.37668513878578,158.7951483865196Z" fill-rule="evenodd" style="fill: #D7A449; stroke: #fff; opacity: 1;" id="p-type-tokenTransfers"></path><path d="M-75.94342455455599,181.77347514675088A197,197,0,0,1,-79.825502200309,180.1024408453935L-69.1309127753182,155.97328905569486A170.6070045455344,170.6070045455344,0,0,0,-65.7689349146324,157.42044721126555Z" fill-rule="evenodd" style="fill: #D7A449; stroke: #fff; opacity: 1;" id="p-type-tokenTransfers"></path><path d="M-79.825502200309,180.1024408453935A197,197,0,0,1,-83.67083801903664,178.34850956818264L-72.46107128041857,154.4543400131382A170.6070045455344,170.6070045455344,0,0,0,-69.1309127753182,155.97328905569486Z" fill-rule="evenodd" style="fill: #D7A449; stroke: #fff; opacity: 1;" id="p-type-tokenTransfers"></path><path d="M-150.30816127383633,127.34385204821791A197,197,0,0,1,-160.66998515591177,113.99191142357027L-139.14428877068823,98.71989111875742A170.6070045455344,170.6070045455344,0,0,0,-130.17068605927062,110.28301088952372Z" fill-rule="evenodd" style="fill: #414552; stroke: #fff; opacity: 1;" id="p-type-ether"></path><path d="M-160.66998515591177,113.99191142357027A197,197,0,0,1,-162.6780731421918,111.10735582644247L-140.8833439798411,96.22179269301614A170.6070045455344,170.6070045455344,0,0,0,-139.14428877068823,98.71989111875742Z" fill-rule="evenodd" style="fill: #414552; stroke: #fff; opacity: 1;" id="p-type-ether"></path><path d="M-162.6780731421918,111.10735582644247A197,197,0,0,1,-163.62557104584204,109.70721261577155L-141.7039012344347,95.00923310363882A170.6070045455344,170.6070045455344,0,0,0,-140.8833439798411,96.22179269301614Z" fill-rule="evenodd" style="fill: #414552; stroke: #fff; opacity: 1;" id="p-type-ether"></path><path d="M-163.62557104584204,109.70721261577155A197,197,0,0,1,-164.32829013079308,108.65179732839164L-142.31247381372646,94.09521665322536A170.6070045455344,170.6070045455344,0,0,0,-141.7039012344347,95.00923310363882Z" fill-rule="evenodd" style="fill: #414552; stroke: #fff; opacity: 1;" id="p-type-ether"></path></g></svg>