<svg xmlns="http://www.w3.org/2000/svg" width="400" height="400" id="block-7901140"><g id="burst-container" transform="translate(200,200)"><circle r="197" style="fill: #f9f9f9; stroke: #f9f9f9; stroke-width: 3; opacity: 1;" id="circle-base"></circle><path display="none" d="M6.031385485800715e-15,-98.5A98.5,98.5,0,1,1,-6.031385485800715e-15,98.5A98.5,98.5,0,1,1,6.031385485800715e-15,-98.5Z" fill-rule="evenodd" id="p-type-root" style="stroke: #fff; opacity: 1;"></path><path d="M8.529667153919608e-15,-139.30003589374985A139.30003589374985,139.30003589374985,0,1,1,-104.20481170160458,-92.44380573209398L-73.68392898647191,-65.36764191185549A98.5,98.5,0,1,0,6.031385485800715e-15,-98.5Z" fill-rule="evenodd" style="fill: #0B1F65; stroke: #fff; opacity: 1;" id="p-type-data"></path><path d="M-104.20481170160458,-92.44380573209398A139.30003589374985,139.30003589374985,0,0,1,-7.591542142914432,-139.0930209891652L-5.36803092891825,-98.35361835716151A98.5,98.5,0,0,0,-73.68392898647191,-65.36764191185549Z" fill-rule="evenodd" style="fill: #D7A449; stroke: #fff; opacity: 1;" id="p-type-value"></path><path d="M1.0446666101440332e-14,-170.6070045455344A170.6070045455344,170.6070045455344,0,0,1,167.8692623164615,-30.44110328695461L137.06467872425037,-24.8550567534662A139.30003589374985,139.30003589374985,0,0,0,8.529667153919608e-15,-139.30003589374985Z" fill-rule="evenodd" style="fill: #DB3F29; stroke: #fff; opacity: 1;" id="p-type-functions"></path><path d="M167.8692623164615,-30.44110328695461A170.6070045455344,170.6070045455344,0,0,1,97.05788579134294,140.30864836393596L79.24743190070524,114.56153166374429A139.30003589374985,139.30003589374985,0,0,0,137.06467872425037,-24.8550567534662Z" fill-rule="evenodd" style="fill: #1DC690; stroke: #fff; opacity: 1;" id="p-type-logs"></path><path d="M97.05788579134294,140.30864836393596A170.6070045455344,170.6070045455344,0,0,1,-81.3648785357743,149.95501505737877L-66.43414513205943,122.43775708731543A139.30003589374985,139.30003589374985,0,0,0,79.24743190070524,114.56153166374429Z" fill-rule="evenodd" style="fill: #414552; stroke: #fff; opacity: 1;" id="p-type-ether"></path><path d="M-81.3648785357743,149.95501505737877A170.6070045455344,170.6070045455344,0,0,1,-167.16340734211795,34.10491527292132L-136.48835055106804,27.84654671317004A139.30003589374985,139.30003589374985,0,0,0,-66.43414513205943,122.43775708731543Z" fill-rule="evenodd" style="fill: #D7A449; stroke: #fff; opacity: 1;" id="p-type-tokenTransfers"></path><path d="M-127.62430870586647,-113.22007696230249A170.6070045455344,170.6070045455344,0,0,1,-67.83901034379943,-156.5395115476405L-55.39031999923287,-127.81397595874475A139.30003589374985,139.30003589374985,0,0,0,-104.20481170160458,-92.44380573209398Z" fill-rule="evenodd" style="fill: #D7A449; stroke: #fff; opacity: 1;" id="p-type-tokenTransfers"></path><path d="M-67.83901034379943,-156.5395115476405A170.6070045455344,170.6070045455344,0,0,1,-18.56776983050605,-169.59359635175306L-15.160520582061174,-138.47259156844325A139.30003589374985,139.30003589374985,0,0,0,-55.39031999923287,-127.81397595874475Z" fill-rule="evenodd" style="fill: #414552; stroke: #fff; opacity: 1;" id="p-type-ether"></path><path d="M1.206277097160143e-14,-197A197,197,0,0,1,5.622957087297659,-196.9197358153682L4.869623681989527,-170.53749372262925A170.6070045455344,170.6070045455344,0,0,0,1.0446666101440332e-14,-170.6070045455344Z" fill-rule="evenodd" style="fill: #DB3F29; stroke: #fff; opacity: 1;" id="p-type-functions"></path><path d="M5.622957087297659,-196.9197358153682A197,197,0,0,1,10.988706105376085,-196.69328493400496L9.51649864197685,-170.3413815066593A170.6070045455344,170.6070045455344,0,0,0,4.869623681989527,-170.53749372262925Z" fill-rule="evenodd" style="fill: #DB3F29; stroke: #fff; opacity: 1;" id="p-type-functions"></path><path d="M10.988706105376085,-196.69328493400496A197,197,0,0,1,16.346288403797754,-196.3206531555452L14.156301015275837,-170.01867292025574A170.6070045455344,170.6070045455344,0,0,0,9.51649864197685,-170.3413815066593Z" fill-rule="evenodd" style="fill: #DB3F29; stroke: #fff; opacity: 1;" id="p-type-functions"></path><path d="M16.346288403797754,-196.3206531555452A197,197,0,0,1,21.69172226967955,-195.8021174169858L18.78558253737913,-169.56960779789318A170.6070045455344,170.6070045455344,0,0,0,14.156301015275837,-170.01867292025574Z" fill-rule="evenodd" style="fill: #DB3F29; stroke: #fff; opacity: 1;" id="p-type-functions"></path><path d="M21.69172226967955,-195.8021174169858A197,197,0,0,1,27.021035018757548,-195.13806308999554L23.400902762792963,-168.99451988122664A170.6070045455344,170.6070045455344,0,0,0,18.78558253737913,-169.56960779789318Z" fill-rule="evenodd" style="fill: #DB3F29; stroke: #fff; opacity: 1;" id="p-type-functions"></path><path d="M27.021035018757548,-195.13806308999554A197,197,0,0,1,32.330265947854485,-194.32898369450967L27.998831621948966,-168.2938365710573A170.6070045455344,170.6070045455344,0,0,0,23.400902762792963,-168.99451988122664Z" fill-rule="evenodd" style="fill: #DB3F29; stroke: #fff; opacity: 1;" id="p-type-functions"></path><path d="M32.330265947854485,-194.32898369450967A197,197,0,0,1,37.615469278443385,-193.37548053194976L32.57595197040508,-167.46807860969164A170.6070045455344,170.6070045455344,0,0,0,27.998831621948966,-168.2938365710573Z" fill-rule="evenodd" style="fill: #DB3F29; stroke: #fff; opacity: 1;" id="p-type-functions"></path><path d="M37.615469278443385,-193.37548053194976A197,197,0,0,1,42.87271708911871,-192.2782622383414L37.12886212844003,-166.51785969392978A170.6070045455344,170.6070045455344,0,0,0,32.57595197040508,-167.46807860969164Z" fill-rule="evenodd" style="fill: #DB3F29; stroke: #fff; opacity: 1;" id="p-type-functions"></path><path d="M42.87271708911871,-192.2782622383414A197,197,0,0,1,48.09810223479681,-191.03814425766137L41.65417840915512,-165.44388601897103A170.6070045455344,170.6070045455344,0,0,0,37.12886212844003,-166.51785969392978Z" fill-rule="evenodd" style="fill: #DB3F29; stroke: #fff; opacity: 1;" id="p-type-functions"></path><path d="M48.09810223479681,-191.03814425766137A197,197,0,0,1,53.28774125047518,-189.65604823580608L46.14853763320345,-164.24695575357495A170.6070045455344,170.6070045455344,0,0,0,41.65417840915512,-165.44388601897103Z" fill-rule="evenodd" style="fill: #DB3F29; stroke: #fff; opacity: 1;" id="p-type-functions"></path><path d="M53.28774125047518,-189.65604823580608A197,197,0,0,1,58.43777723739306,-188.13300133563177L50.6085996282784,-162.92795844686881A170.6070045455344,170.6070045455344,0,0,0,46.14853763320345,-164.24695575357495Z" fill-rule="evenodd" style="fill: #DB3F29; stroke: #fff; opacity: 1;" id="p-type-functions"></path><path d="M58.43777723739306,-188.13300133563177A197,197,0,0,1,63.54438272944803,-186.47013547357503L55.03104971150314,-161.4878743672418A170.6070045455344,170.6070045455344,0,0,0,50.6085996282784,-162.92795844686881Z" fill-rule="evenodd" style="fill: #DB3F29; stroke: #fff; opacity: 1;" id="p-type-functions"></path><path d="M63.54438272944803,-186.47013547357503A197,197,0,0,1,68.60376253773875,-184.66868647842153L59.412601152876945,-159.9277737738169A170.6070045455344,170.6070045455344,0,0,0,55.03104971150314,-161.4878743672418Z" fill-rule="evenodd" style="fill: #DB3F29; stroke: #fff; opacity: 1;" id="p-type-functions"></path><path d="M68.60376253773875,-184.66868647842153A197,197,0,0,1,73.6121565711194,-182.7299931728478L63.749997617946995,-158.24881612104323A170.6070045455344,170.6070045455344,0,0,0,59.412601152876945,-159.9277737738169Z" fill-rule="evenodd" style="fill: #DB3F29; stroke: #fff; opacity: 1;" id="p-type-functions"></path><path d="M73.6121565711194,-182.7299931728478A197,197,0,0,1,78.5658426306697,-180.6554963784187L68.0400155878904,-156.45224919699822A170.6070045455344,170.6070045455344,0,0,0,63.749997617946995,-158.24881612104323Z" fill-rule="evenodd" style="fill: #DB3F29; stroke: #fff; opacity: 1;" id="p-type-functions"></path><path d="M78.5658426306697,-180.6554963784187A197,197,0,0,1,83.46113917600373,-178.44673784478027L72.27946675520786,-154.5394081960417A170.6070045455344,170.6070045455344,0,0,0,68.0400155878904,-156.45224919699822Z" fill-rule="evenodd" style="fill: #DB3F29; stroke: #fff; opacity: 1;" id="p-type-functions"></path><path d="M83.46113917600373,-178.44673784478027A197,197,0,0,1,88.29440806136171,-176.1053591038437L76.46520039324876,-152.5117147265098A170.6070045455344,170.6070045455344,0,0,0,72.27946675520786,-154.5394081960417Z" fill-rule="evenodd" style="fill: #DB3F29; stroke: #fff; opacity: 1;" id="p-type-functions"></path><path d="M88.29440806136171,-176.1053591038437A197,197,0,0,1,93.06205723945133,-173.6331002498115L80.59410569780638,-150.3706757541869A170.6070045455344,170.6070045455344,0,0,0,76.46520039324876,-152.5117147265098Z" fill-rule="evenodd" style="fill: #DB3F29; stroke: #fff; opacity: 1;" id="p-type-functions"></path><path d="M93.06205723945133,-173.6331002498115A197,197,0,0,1,97.76054343102886,-171.0317986459533L84.66311409904293,-148.11788248234052A170.6070045455344,170.6070045455344,0,0,0,80.59410569780638,-150.3706757541869Z" fill-rule="evenodd" style="fill: #DB3F29; stroke: #fff; opacity: 1;" id="p-type-functions"></path><path d="M97.76054343102886,-171.0317986459533A197,197,0,0,1,102.38637475823624,-168.30338755909224L88.6692015420264,-145.75500916915172A170.6070045455344,170.6070045455344,0,0,0,84.66311409904293,-148.11788248234052Z" fill-rule="evenodd" style="fill: #DB3F29; stroke: #fff; opacity: 1;" id="p-type-functions"></path><path d="M102.38637475823624,-168.30338755909224A197,197,0,0,1,106.93611333973728,-165.4498947228159L92.60939073418447,-143.2838118834195A170.6070045455344,170.6070045455344,0,0,0,88.6692015420264,-145.75500916915172Z" fill-rule="evenodd" style="fill: #DB3F29; stroke: #fff; opacity: 1;" id="p-type-functions"></path><path d="M106.93611333973728,-165.4498947228159A197,197,0,0,1,111.4063778457239,-162.47344083048097L96.48075335800478,-140.70612719946436A170.6070045455344,170.6070045455344,0,0,0,92.60939073418447,-143.2838118834195Z" fill-rule="evenodd" style="fill: #DB3F29; stroke: #fff; opacity: 1;" id="p-type-functions"></path><path d="M111.4063778457239,-162.47344083048097A197,197,0,0,1,115.79384601089374,-159.37623795913063L100.28041224733737,-138.02387083220088A170.6070045455344,170.6070045455344,0,0,0,96.48075335800478,-140.70612719946436Z" fill-rule="evenodd" style="fill: #DB3F29; stroke: #fff; opacity: 1;" id="p-type-functions"></path><path d="M115.79384601089374,-159.37623795913063A197,197,0,0,1,120.0952571035315,-156.16058792549632L104.00554352568184,-135.2390362133933A170.6070045455344,170.6070045455344,0,0,0,100.28041224733737,-138.02387083220088Z" fill-rule="evenodd" style="fill: #DB3F29; stroke: #fff; opacity: 1;" id="p-type-functions"></path><path d="M120.0952571035315,-156.16058792549632A197,197,0,0,1,124.26574491791361,-152.86276407286383L107.61729191911019,-132.3830369798073A170.6070045455344,170.6070045455344,0,0,0,104.00554352568184,-135.2390362133933Z" fill-rule="evenodd" style="fill: #DB3F29; stroke: #fff; opacity: 1;" id="p-type-functions"></path><path d="M193.8387275741459,-35.15035835430489A197,197,0,0,1,194.72486209458728,-29.853443390067557L168.63667732233407,-25.853840366239137A170.6070045455344,170.6070045455344,0,0,0,167.8692623164615,-30.44110328695461Z" fill-rule="evenodd" style="fill: #1DC690; stroke: #fff; opacity: 1;" id="p-type-logs"></path><path d="M194.72486209458728,-29.853443390067557A197,197,0,0,1,195.46627863425192,-24.53434158230047L169.2787628804696,-21.24736307539711A170.6070045455344,170.6070045455344,0,0,0,168.63667732233407,-25.853840366239137Z" fill-rule="evenodd" style="fill: #1DC690; stroke: #fff; opacity: 1;" id="p-type-logs"></path><path d="M195.46627863425192,-24.53434158230047A197,197,0,0,1,196.06242617821863,-19.19700604548983L169.79504179794847,-16.62509491199764A170.6070045455344,170.6070045455344,0,0,0,169.2787628804696,-21.24736307539711Z" fill-rule="evenodd" style="fill: #1DC690; stroke: #fff; opacity: 1;" id="p-type-logs"></path><path d="M196.06242617821863,-19.19700604548983A197,197,0,0,1,196.51286167433744,-13.845403445285335L170.1851303803536,-11.99047110926169A170.6070045455344,170.6070045455344,0,0,0,169.79504179794847,-16.62509491199764Z" fill-rule="evenodd" style="fill: #1DC690; stroke: #fff; opacity: 1;" id="p-type-logs"></path><path d="M196.51286167433744,-13.845403445285335A197,197,0,0,1,196.8172503625024,-8.483511050505623L170.44873871692909,-7.346936083023879A170.6070045455344,170.6070045455344,0,0,0,170.1851303803536,-11.99047110926169Z" fill-rule="evenodd" style="fill: #1DC690; stroke: #fff; opacity: 1;" id="p-type-logs"></path><path d="M196.8172503625024,-8.483511050505623A197,197,0,0,1,196.97536602344263,-3.115313777263445L170.5856708960395,-2.6979408718698A170.6070045455344,170.6070045455344,0,0,0,170.44873871692909,-7.346936083023879Z" fill-rule="evenodd" style="fill: #1DC690; stroke: #fff; opacity: 1;" id="p-type-logs"></path><path d="M196.97536602344263,-3.115313777263445A197,197,0,0,1,196.98709114684672,2.255198772592524L170.59582515076994,1.9530594276486113A170.6070045455344,170.6070045455344,0,0,0,170.5856708960395,-2.6979408718698Z" fill-rule="evenodd" style="fill: #1DC690; stroke: #fff; opacity: 1;" id="p-type-logs"></path><path d="M196.98709114684672,2.255198772592524A197,197,0,0,1,196.85241701869552,7.624035276518307L170.47919393455848,6.602608228813571A170.6070045455344,170.6070045455344,0,0,0,170.59582515076994,1.9530594276486113Z" fill-rule="evenodd" style="fill: #1DC690; stroke: #fff; opacity: 1;" id="p-type-logs"></path><path d="M196.85241701869552,7.624035276518307A197,197,0,0,1,196.57144372773823,12.987205657594034L170.23586392680457,11.247250023649418A170.6070045455344,170.6070045455344,0,0,0,170.47919393455848,6.602608228813571Z" fill-rule="evenodd" style="fill: #1DC690; stroke: #fff; opacity: 1;" id="p-type-logs"></path><path d="M196.57144372773823,12.987205657594034A197,197,0,0,1,196.1443800911073,18.340724049917615L169.8660159684496,15.883532951028869A170.6070045455344,170.6070045455344,0,0,0,170.23586392680457,11.247250023649418Z" fill-rule="evenodd" style="fill: #1DC690; stroke: #fff; opacity: 1;" id="p-type-logs"></path><path d="M196.1443800911073,18.340724049917615A197,197,0,0,1,195.5715434991272,23.680611760868842L169.36992492757753,20.508011362068963A170.6070045455344,170.6070045455344,0,0,0,169.8660159684496,15.883532951028869Z" fill-rule="evenodd" style="fill: #1DC690; stroke: #fff; opacity: 1;" id="p-type-logs"></path><path d="M195.5715434991272,23.680611760868842A197,197,0,0,1,194.85335967943232,29.002900228042318L168.74795949513484,25.117248380910137A170.6070045455344,170.6070045455344,0,0,0,169.36992492757753,20.508011362068963Z" fill-rule="evenodd" style="fill: #1DC690; stroke: #fff; opacity: 1;" id="p-type-logs"></path><path d="M194.85335967943232,29.002900228042318A197,197,0,0,1,193.9903623805697,34.303633968651745L168.00058191092245,29.70781845897521A170.6070045455344,170.6070045455344,0,0,0,168.74795949513484,25.117248380910137Z" fill-rule="evenodd" style="fill: #1DC690; stroke: #fff; opacity: 1;" id="p-type-logs"></path><path d="M193.9903623805697,34.303633968651745A197,197,0,0,1,192.98319297532132,39.57887351921348L167.12834762006287,34.27630992081008A170.6070045455344,170.6070045455344,0,0,0,168.00058191092245,29.70781845897521Z" fill-rule="evenodd" style="fill: #1DC690; stroke: #fff; opacity: 1;" id="p-type-logs"></path><path d="M192.98319297532132,39.57887351921348A197,197,0,0,1,191.83259998404063,44.82469836332476L166.1319048601975,38.81932749961399A170.6070045455344,170.6070045455344,0,0,0,167.12834762006287,34.27630992081008Z" fill-rule="evenodd" style="fill: #1DC690; stroke: #fff; opacity: 1;" id="p-type-logs"></path><path d="M191.83259998404063,44.82469836332476A197,197,0,0,1,190.5394385183586,50.03720984536049L165.01199417972174,43.33349486057501A170.6070045455344,170.6070045455344,0,0,0,166.1319048601975,38.81932749961399Z" fill-rule="evenodd" style="fill: #1DC690; stroke: #fff; opacity: 1;" id="p-type-logs"></path><path d="M190.5394385183586,50.03720984536049A197,197,0,0,1,189.1046696456711,55.2125340679234L163.76944788741517,47.81545711013543A170.6070045455344,170.6070045455344,0,0,0,165.01199417972174,43.33349486057501Z" fill-rule="evenodd" style="fill: #1DC690; stroke: #fff; opacity: 1;" id="p-type-logs"></path><path d="M189.1046696456711,55.2125340679234A197,197,0,0,1,187.52935967488136,60.34682477089395L162.40518943387636,52.2618832893222A170.6070045455344,170.6070045455344,0,0,0,163.76944788741517,47.81545711013543Z" fill-rule="evenodd" style="fill: #1DC690; stroke: #fff; opacity: 1;" id="p-type-logs"></path><path d="M187.52935967488136,60.34682477089395A197,197,0,0,1,185.81467936392767,65.43626618994054L160.92023272522144,56.66946884928927A170.6070045455344,170.6070045455344,0,0,0,162.40518943387636,52.2618832893222Z" fill-rule="evenodd" style="fill: #1DC690; stroke: #fff; opacity: 1;" id="p-type-logs"></path><path d="M185.81467936392767,65.43626618994054A197,197,0,0,1,183.96190304968516,70.47707589236546L159.31568136955732,61.03493810723233A170.6070045455344,170.6070045455344,0,0,0,160.92023272522144,56.66946884928927Z" fill-rule="evenodd" style="fill: #1DC690; stroke: #fff; opacity: 1;" id="p-type-logs"></path><path d="M183.96190304968516,70.47707589236546A197,197,0,0,1,181.97240770088882,75.465507588179L157.5927278567887,65.35504668085034A170.6070045455344,170.6070045455344,0,0,0,159.31568136955732,61.03493810723233Z" fill-rule="evenodd" style="fill: #1DC690; stroke: #fff; opacity: 1;" id="p-type-logs"></path><path d="M112.07279297721561,162.01447180510195A197,197,0,0,1,53.951831725636154,189.4682027503524L46.72365685510413,164.0842767911858A170.6070045455344,170.6070045455344,0,0,0,97.05788579134294,140.30864836393596Z" fill-rule="evenodd" style="fill: #414552; stroke: #fff; opacity: 1;" id="p-type-ether"></path><path d="M53.951831725636154,189.4682027503524A197,197,0,0,1,-6.451553131576133,196.8943307009891L-5.58720890580998,170.51549224819087A170.6070045455344,170.6070045455344,0,0,0,46.72365685510413,164.0842767911858Z" fill-rule="evenodd" style="fill: #414552; stroke: #fff; opacity: 1;" id="p-type-ether"></path><path d="M-6.451553131576133,196.8943307009891A197,197,0,0,1,-18.657522461017635,196.11449935080432L-16.15788842292003,169.84013848826334A170.6070045455344,170.6070045455344,0,0,0,-5.58720890580998,170.51549224819087Z" fill-rule="evenodd" style="fill: #414552; stroke: #fff; opacity: 1;" id="p-type-ether"></path><path d="M-18.657522461017635,196.11449935080432A197,197,0,0,1,-25.156604413868596,195.38716757853913L-21.786258495365942,169.21025069650213A170.6070045455344,170.6070045455344,0,0,0,-16.15788842292003,169.84013848826334Z" fill-rule="evenodd" style="fill: #414552; stroke: #fff; opacity: 1;" id="p-type-ether"></path><path d="M-25.156604413868596,195.38716757853913A197,197,0,0,1,-30.72327692331725,194.58951733095276L-26.60713830309695,168.51946531875737A170.6070045455344,170.6070045455344,0,0,0,-21.786258495365942,169.21025069650213Z" fill-rule="evenodd" style="fill: #414552; stroke: #fff; opacity: 1;" id="p-type-ether"></path><path d="M-30.72327692331725,194.58951733095276A197,197,0,0,1,-35.96337622832725,193.6895339719206L-31.145197419588786,167.74005686685229A170.6070045455344,170.6070045455344,0,0,0,-26.60713830309695,168.51946531875737Z" fill-rule="evenodd" style="fill: #414552; stroke: #fff; opacity: 1;" id="p-type-ether"></path><path d="M-35.96337622832725,193.6895339719206A197,197,0,0,1,-38.60017356799782,193.1813308798768L-33.428730900374724,167.29994007886054A170.6070045455344,170.6070045455344,0,0,0,-31.145197419588786,167.74005686685229Z" fill-rule="evenodd" style="fill: #414552; stroke: #fff; opacity: 1;" id="p-type-ether"></path><path d="M-93.95206905042099,173.15313661942403A197,197,0,0,1,-98.63714118021382,170.52775252079812L-85.42227001873735,147.681365733277A170.6070045455344,170.6070045455344,0,0,0,-81.3648785357743,149.95501505737877Z" fill-rule="evenodd" style="fill: #D7A449; stroke: #fff; opacity: 1;" id="p-type-tokenTransfers"></path><path d="M-98.63714118021382,170.52775252079812A197,197,0,0,1,-103.24890696510725,167.77563354227166L-89.41617634475895,145.2979607836358A170.6070045455344,170.6070045455344,0,0,0,-85.42227001873735,147.681365733277Z" fill-rule="evenodd" style="fill: #D7A449; stroke: #fff; opacity: 1;" id="p-type-tokenTransfers"></path><path d="M-103.24890696510725,167.77563354227166A197,197,0,0,1,-107.78393897716514,164.89882503695029L-93.34362927417673,142.80657153620436A170.6070045455344,170.6070045455344,0,0,0,-89.41617634475895,145.2979607836358Z" fill-rule="evenodd" style="fill: #D7A449; stroke: #fff; opacity: 1;" id="p-type-tokenTransfers"></path><path d="M-107.78393897716514,164.89882503695029A197,197,0,0,1,-112.23886681638577,161.8994650262119L-97.20170995496832,140.20904957180977A170.6070045455344,170.6070045455344,0,0,0,-93.34362927417673,142.80657153620436Z" fill-rule="evenodd" style="fill: #D7A449; stroke: #fff; opacity: 1;" id="p-type-tokenTransfers"></path><path d="M-112.23886681638577,161.8994650262119A197,197,0,0,1,-116.61037961555645,158.7797826107462L-100.98755109201895,137.50732534827685A170.6070045455344,170.6070045455344,0,0,0,-97.20170995496832,140.20904957180977Z" fill-rule="evenodd" style="fill: #D7A449; stroke: #fff; opacity: 1;" id="p-type-tokenTransfers"></path><path d="M-116.61037961555645,158.7797826107462A197,197,0,0,1,-120.89522850086402,155.5420963139043L-104.69833907807273,134.703406765727A170.6070045455344,170.6070045455344,0,0,0,-100.98755109201895,137.50732534827685Z" fill-rule="evenodd" style="fill: #D7A449; stroke: #fff; opacity: 1;" id="p-type-tokenTransfers"></path><path d="M-120.89522850086402,155.5420963139043A197,197,0,0,1,-125.09022900643214,152.18881235859084L-108.33131608478328,131.79937767432278A170.6070045455344,170.6070045455344,0,0,0,-104.69833907807273,134.703406765727Z" fill-rule="evenodd" style="fill: #D7A449; stroke: #fff; opacity: 1;" id="p-type-tokenTransfers"></path><path d="M-125.09022900643214,152.18881235859084A197,197,0,0,1,-129.19226344099118,148.72242287897794L-111.88378211230996,128.7973963255669A170.6070045455344,170.6070045455344,0,0,0,-108.33131608478328,131.79937767432278Z" fill-rule="evenodd" style="fill: #D7A449; stroke: #fff; opacity: 1;" id="p-type-tokenTransfers"></path><path d="M-129.19226344099118,148.72242287897794A197,197,0,0,1,-133.19828320492192,145.1455040683707L-115.35309699593651,125.69969376830663A170.6070045455344,170.6070045455344,0,0,0,-111.88378211230996,128.7973963255669Z" fill-rule="evenodd" style="fill: #D7A449; stroke: #fff; opacity: 1;" id="p-type-tokenTransfers"></path><path d="M-133.19828320492192,145.1455040683707A197,197,0,0,1,-137.1053110559505,141.46071426460088L-118.7366823682206,122.50857219063607A170.6070045455344,170.6070045455344,0,0,0,-115.35309699593651,125.69969376830663Z" fill-rule="evenodd" style="fill: #D7A449; stroke: #fff; opacity: 1;" id="p-type-tokenTransfers"></path><path d="M-137.1053110559505,141.46071426460088A197,197,0,0,1,-140.91044332181164,137.6707919743709L-122.03202357521617,119.22640320892802A170.6070045455344,170.6070045455344,0,0,0,-118.7366823682206,122.50857219063607Z" fill-rule="evenodd" style="fill: #D7A449; stroke: #fff; opacity: 1;" id="p-type-tokenTransfers"></path><path d="M-140.91044332181164,137.6707919743709A197,197,0,0,1,-144.61085205823466,133.77855383801756L-125.2366715453444,115.85562610526742A170.6070045455344,170.6070045455344,0,0,0,-122.03202357521617,119.22640320892802Z" fill-rule="evenodd" style="fill: #D7A449; stroke: #fff; opacity: 1;" id="p-type-tokenTransfers"></path><path d="M-144.61085205823466,133.77855383801756A197,197,0,0,1,-148.20378715064965,129.78689253620698L-128.34824460952436,112.39874601459618A170.6070045455344,170.6070045455344,0,0,0,-125.2366715453444,115.85562610526742Z" fill-rule="evenodd" style="fill: #D7A449; stroke: #fff; opacity: 1;" id="p-type-tokenTransfers"></path><path d="M-148.20378715064965,129.78689253620698A197,197,0,0,1,-151.68657835805064,125.69877464011716L-131.3644302712107,108.85833206291663A170.6070045455344,170.6070045455344,0,0,0,-128.34824460952436,112.39874601459618Z" fill-rule="evenodd" style="fill: #D7A449; stroke: #fff; opacity: 1;" id="p-type-tokenTransfers"></path><path d="M-151.68657835805064,125.69877464011716A197,197,0,0,1,-155.05663729749784,121.5172384067059L-134.2829869250228,105.23701545793737A170.6070045455344,170.6070045455344,0,0,0,-131.3644302712107,108.85833206291663Z" fill-rule="evenodd" style="fill: #D7A449; stroke: #fff; opacity: 1;" id="p-type-tokenTransfers"></path><path d="M-155.05663729749784,121.5172384067059A197,197,0,0,1,-158.31145936778333,117.24539152070194L-137.1017455226883,101.53748753358049A170.6070045455344,170.6070045455344,0,0,0,-134.2829869250228,105.23701545793737Z" fill-rule="evenodd" style="fill: #D7A449; stroke: #fff; opacity: 1;" id="p-type-tokenTransfers"></path></g></svg>