<svg xmlns="http://www.w3.org/2000/svg" width="400" height="400" id="block-7901154"><g id="burst-container" transform="translate(200,200)"><circle r="197" style="fill: #f9f9f9; stroke: #f9f9f9; stroke-width: 3; opacity: 1;" id="circle-base"></circle><path display="none" d="M6.031385485800715e-15,-98.5A98.5,98.5,0,1,1,-6.031385485800715e-15,98.5A98.5,98.5,0,1,1,6.031385485800715e-15,-98.5Z" fill-rule="evenodd" id="p-type-root" style="stroke: #fff; opacity: 1;"></path><path d="M8.529667153919608e-15,-139.30003589374985A139.30003589374985,139.30003589374985,0,1,1,-99.35246763802176,-97.64008999502117L-70.25280359446221,-69.04196975114425A98.5,98.5,0,1,0,6.031385485800715e-15,-98.5Z" fill-rule="evenodd" style="fill: #0B1F65; stroke: #fff; opacity: 1;" id="p-type-data"></path><path d="M-99.35246763802176,-97.64008999502117A139.30003589374985,139.30003589374985,0,0,1,-3.88079050315077,-139.245967500214L-2.7441332811422634,-98.46176787228293A98.5,98.5,0,0,0,-70.25280359446221,-69.04196975114425Z" fill-rule="evenodd" style="fill: #D7A449; stroke: #fff; opacity: 1;" id="p-type-value"></path><path d="M1.0446666101440332e-14,-170.6070045455344A170.6070045455344,170.6070045455344,0,0,1,162.15002601887704,53.048271056439674L132.39494184175493,43.31373194171024A139.30003589374985,139.30003589374985,0,0,0,8.529667153919608e-15,-139.30003589374985Z" fill-rule="evenodd" style="fill: #DB3F29; stroke: #fff; opacity: 1;" id="p-type-functions"></path><path d="M162.15002601887704,53.048271056439674A170.6070045455344,170.6070045455344,0,0,1,42.46573761655488,165.23743864113214L34.673129570490985,134.9158036917393A139.30003589374985,139.30003589374985,0,0,0,132.39494184175493,43.31373194171024Z" fill-rule="evenodd" style="fill: #1DC690; stroke: #fff; opacity: 1;" id="p-type-logs"></path><path d="M42.46573761655488,165.23743864113214A170.6070045455344,170.6070045455344,0,0,1,-101.89339929614923,136.83744070931573L-83.1956121444094,111.7273024820567A139.30003589374985,139.30003589374985,0,0,0,34.673129570490985,134.9158036917393Z" fill-rule="evenodd" style="fill: #D7A449; stroke: #fff; opacity: 1;" id="p-type-tokenTransfers"></path><path d="M-101.89339929614923,136.83744070931573A170.6070045455344,170.6070045455344,0,0,1,-169.48197424185597,19.560429624189567L-138.38145249735632,15.971023909628185A139.30003589374985,139.30003589374985,0,0,0,-83.1956121444094,111.7273024820567Z" fill-rule="evenodd" style="fill: #414552; stroke: #fff; opacity: 1;" id="p-type-ether"></path><path d="M-121.681425199766,-119.5841994636154A170.6070045455344,170.6070045455344,0,0,1,-58.2258822952623,-160.36363874313358L-47.54123381558188,-130.9363627388976A139.30003589374985,139.30003589374985,0,0,0,-99.35246763802176,-97.64008999502117Z" fill-rule="evenodd" style="fill: #D7A449; stroke: #fff; opacity: 1;" id="p-type-tokenTransfers"></path><path d="M-58.2258822952623,-160.36363874313358A170.6070045455344,170.6070045455344,0,0,1,-9.5022668567981,-170.34217600049084L-7.758568399638498,-139.0838042921897A139.30003589374985,139.30003589374985,0,0,0,-47.54123381558188,-130.9363627388976Z" fill-rule="evenodd" style="fill: #414552; stroke: #fff; opacity: 1;" id="p-type-ether"></path><path d="M1.206277097160143e-14,-197A197,197,0,0,1,36.589877116464905,-193.57215939437674L31.68776310420951,-167.63840750094084A170.6070045455344,170.6070045455344,0,0,0,1.0446666101440332e-14,-170.6070045455344Z" fill-rule="evenodd" style="fill: #DB3F29; stroke: #fff; opacity: 1;" id="p-type-functions"></path><path d="M36.589877116464905,-193.57215939437674A197,197,0,0,1,69.0574925480986,-184.4994924734735L59.805542868307946,-159.78124746736387A170.6070045455344,170.6070045455344,0,0,0,31.68776310420951,-167.63840750094084Z" fill-rule="evenodd" style="fill: #DB3F29; stroke: #fff; opacity: 1;" id="p-type-functions"></path><path d="M69.0574925480986,-184.4994924734735A197,197,0,0,1,94.87486449318962,-172.64924004292317L82.16404283170844,-149.518627821249A170.6070045455344,170.6070045455344,0,0,0,59.805542868307946,-159.78124746736387Z" fill-rule="evenodd" style="fill: #DB3F29; stroke: #fff; opacity: 1;" id="p-type-functions"></path><path d="M94.87486449318962,-172.64924004292317A197,197,0,0,1,97.33048699267954,-171.27689949834988L84.29067429837134,-148.33014604700514A170.6070045455344,170.6070045455344,0,0,0,82.16404283170844,-149.518627821249Z" fill-rule="evenodd" style="fill: #DB3F29; stroke: #fff; opacity: 1;" id="p-type-functions"></path><path d="M97.33048699267954,-171.27689949834988A197,197,0,0,1,99.70709403966492,-169.90437133330448L86.34887637587381,-147.1415017886662A170.6070045455344,170.6070045455344,0,0,0,84.29067429837134,-148.33014604700514Z" fill-rule="evenodd" style="fill: #DB3F29; stroke: #fff; opacity: 1;" id="p-type-functions"></path><path d="M99.70709403966492,-169.90437133330448A197,197,0,0,1,102.06434982105331,-168.49886793567978L88.3903197657739,-145.92430014121788A170.6070045455344,170.6070045455344,0,0,0,86.34887637587381,-147.1415017886662Z" fill-rule="evenodd" style="fill: #DB3F29; stroke: #fff; opacity: 1;" id="p-type-functions"></path><path d="M102.06434982105331,-168.49886793567978A197,197,0,0,1,104.40179683797616,-167.06066208716507L90.41460826242924,-144.67877734053278A170.6070045455344,170.6070045455344,0,0,0,88.3903197657739,-145.92430014121788Z" fill-rule="evenodd" style="fill: #DB3F29; stroke: #fff; opacity: 1;" id="p-type-functions"></path><path d="M104.40179683797616,-167.06066208716507A197,197,0,0,1,106.7189814360724,-165.59003291637828L92.4213489896386,-143.405175119085A170.6070045455344,170.6070045455344,0,0,0,90.41460826242924,-144.67877734053278Z" fill-rule="evenodd" style="fill: #DB3F29; stroke: #fff; opacity: 1;" id="p-type-functions"></path><path d="M106.7189814360724,-165.59003291637828A197,197,0,0,1,109.01545389353407,-164.08726584469238L94.4101524768917,-142.10374065903423A170.6070045455344,170.6070045455344,0,0,0,92.4213489896386,-143.405175119085Z" fill-rule="evenodd" style="fill: #DB3F29; stroke: #fff; opacity: 1;" id="p-type-functions"></path><path d="M109.01545389353407,-164.08726584469238A197,197,0,0,1,111.29076850838895,-162.55265253084053L96.38063273495803,-140.77472654425273A170.6070045455344,170.6070045455344,0,0,0,94.4101524768917,-142.10374065903423Z" fill-rule="evenodd" style="fill: #DB3F29; stroke: #fff; opacity: 1;" id="p-type-functions"></path><path d="M111.29076850838895,-162.55265253084053A197,197,0,0,1,113.5444836850028,-160.98649081431066L98.33240733080015,-139.4183907113032A170.6070045455344,170.6070045455344,0,0,0,96.38063273495803,-140.77472654425273Z" fill-rule="evenodd" style="fill: #DB3F29; stroke: #fff; opacity: 1;" id="p-type-functions"></path><path d="M113.5444836850028,-160.98649081431066A197,197,0,0,1,115.77616201978483,-159.38908465754025L100.26509746179674,-138.03499639937837A170.6070045455344,170.6070045455344,0,0,0,98.33240733080015,-139.4183907113032Z" fill-rule="evenodd" style="fill: #DB3F29; stroke: #fff; opacity: 1;" id="p-type-functions"></path><path d="M115.77616201978483,-159.38908465754025A197,197,0,0,1,117.98537038607938,-157.76074408692315L102.17832802926095,-136.6248120992111A170.6070045455344,170.6070045455344,0,0,0,100.26509746179674,-138.03499639937837Z" fill-rule="evenodd" style="fill: #DB3F29; stroke: #fff; opacity: 1;" id="p-type-functions"></path><path d="M117.98537038607938,-157.76074408692315A197,197,0,0,1,120.17168001822776,-156.10178513263926L104.07172771124006,-135.1881115009656A170.6070045455344,170.6070045455344,0,0,0,102.17832802926095,-136.6248120992111Z" fill-rule="evenodd" style="fill: #DB3F29; stroke: #fff; opacity: 1;" id="p-type-functions"></path><path d="M120.17168001822776,-156.10178513263926A197,197,0,0,1,122.33466659478347,-154.412529767319L105.94492903458203,-133.72517344111907A170.6070045455344,170.6070045455344,0,0,0,104.07172771124006,-135.1881115009656Z" fill-rule="evenodd" style="fill: #DB3F29; stroke: #fff; opacity: 1;" id="p-type-functions"></path><path d="M122.33466659478347,-154.412529767319A197,197,0,0,1,124.47391032086499,-152.69330584355444L107.7975684462551,-132.23628184834502A170.6070045455344,170.6070045455344,0,0,0,105.94492903458203,-133.72517344111907Z" fill-rule="evenodd" style="fill: #DB3F29; stroke: #fff; opacity: 1;" id="p-type-functions"></path><path d="M124.47391032086499,-152.69330584355444A197,197,0,0,1,126.58899600963015,-150.94444703026952L109.62928638390665,-130.721725688408A170.6070045455344,170.6070045455344,0,0,0,107.7975684462551,-132.23628184834502Z" fill-rule="evenodd" style="fill: #DB3F29; stroke: #fff; opacity: 1;" id="p-type-functions"></path><path d="M126.58899600963015,-150.94444703026952A197,197,0,0,1,128.6795131628559,-149.16629274796097L111.43972734564727,-129.18179890808068A170.6070045455344,170.6070045455344,0,0,0,109.62928638390665,-130.721725688408Z" fill-rule="evenodd" style="fill: #DB3F29; stroke: #fff; opacity: 1;" id="p-type-functions"></path><path d="M128.6795131628559,-149.16629274796097A197,197,0,0,1,130.7450560506085,-147.35918810282325L113.22853995904727,-127.61680037809455A170.6070045455344,170.6070045455344,0,0,0,111.43972734564727,-129.18179890808068Z" fill-rule="evenodd" style="fill: #DB3F29; stroke: #fff; opacity: 1;" id="p-type-functions"></path><path d="M130.7450560506085,-147.35918810282325A197,197,0,0,1,132.7852237899877,-145.5234838197701L114.99537704933114,-126.0270338351346A170.6070045455344,170.6070045455344,0,0,0,113.22853995904727,-127.61680037809455Z" fill-rule="evenodd" style="fill: #DB3F29; stroke: #fff; opacity: 1;" id="p-type-functions"></path><path d="M132.7852237899877,-145.5234838197701A197,197,0,0,1,134.79962042293093,-143.6595361743652L116.73989570675782,-124.41280782288977A170.6070045455344,170.6070045455344,0,0,0,114.99537704933114,-126.0270338351346Z" fill-rule="evenodd" style="fill: #DB3F29; stroke: #fff; opacity: 1;" id="p-type-functions"></path><path d="M134.79962042293093,-143.6595361743652A197,197,0,0,1,136.78785499306105,-141.76770692367606L118.46175735317294,-122.77443563217051A170.6070045455344,170.6070045455344,0,0,0,116.73989570675782,-124.41280782288977Z" fill-rule="evenodd" style="fill: #DB3F29; stroke: #fff; opacity: 1;" id="p-type-functions"></path><path d="M136.78785499306105,-141.76770692367606A197,197,0,0,1,138.74954162156362,-139.8483632360636L120.1606278077204,-121.11223524010482A170.6070045455344,170.6070045455344,0,0,0,118.46175735317294,-122.77443563217051Z" fill-rule="evenodd" style="fill: #DB3F29; stroke: #fff; opacity: 1;" id="p-type-functions"></path><path d="M138.74954162156362,-139.8483632360636A197,197,0,0,1,140.68429958207878,-137.90187761992186L121.83617735170071,-119.42652924842508A170.6070045455344,170.6070045455344,0,0,0,120.1606278077204,-121.11223524010482Z" fill-rule="evenodd" style="fill: #DB3F29; stroke: #fff; opacity: 1;" id="p-type-functions"></path><path d="M140.68429958207878,-137.90187761992186A197,197,0,0,1,142.59175337459303,-135.928627851381L123.48808079256303,-117.71764482085693A170.6070045455344,170.6070045455344,0,0,0,121.83617735170071,-119.42652924842508Z" fill-rule="evenodd" style="fill: #DB3F29; stroke: #fff; opacity: 1;" id="p-type-functions"></path><path d="M142.59175337459303,-135.928627851381A197,197,0,0,1,144.47153279831664,-133.92899690098824L125.11601752701894,-115.98591361962316A170.6070045455344,170.6070045455344,0,0,0,123.48808079256303,-117.71764482085693Z" fill-rule="evenodd" style="fill: #DB3F29; stroke: #fff; opacity: 1;" id="p-type-functions"></path><path d="M144.47153279831664,-133.92899690098824A197,197,0,0,1,146.32327302353272,-131.90337285938028L126.7196716032656,-114.23167174107417A170.6070045455344,170.6070045455344,0,0,0,125.11601752701894,-115.98591361962316Z" fill-rule="evenodd" style="fill: #DB3F29; stroke: #fff; opacity: 1;" id="p-type-functions"></path><path d="M146.32327302353272,-131.90337285938028A197,197,0,0,1,148.14661466240375,-129.85214886196246L128.29873178230585,-112.45525965045807A170.6070045455344,170.6070045455344,0,0,0,126.7196716032656,-114.23167174107417Z" fill-rule="evenodd" style="fill: #DB3F29; stroke: #fff; opacity: 1;" id="p-type-functions"></path><path d="M148.14661466240375,-129.85214886196246A197,197,0,0,1,149.94120383872186,-127.77572301260852L129.85289159835392,-110.65702211584289A170.6070045455344,170.6070045455344,0,0,0,128.29873178230585,-112.45525965045807Z" fill-rule="evenodd" style="fill: #DB3F29; stroke: #fff; opacity: 1;" id="p-type-functions"></path><path d="M149.94120383872186,-127.77572301260852A197,197,0,0,1,151.70669225658983,-125.67449830639606L131.38184941831477,-108.8373081412034A170.6070045455344,170.6070045455344,0,0,0,129.85289159835392,-110.65702211584289Z" fill-rule="evenodd" style="fill: #DB3F29; stroke: #fff; opacity: 1;" id="p-type-functions"></path><path d="M151.70669225658983,-125.67449830639606A197,197,0,0,1,153.4427372680184,-123.54888255139294L132.88530850032515,-106.99647089868624A170.6070045455344,170.6070045455344,0,0,0,131.38184941831477,-108.8373081412034Z" fill-rule="evenodd" style="fill: #DB3F29; stroke: #fff; opacity: 1;" id="p-type-functions"></path><path d="M153.4427372680184,-123.54888255139294A197,197,0,0,1,155.14900193942793,-121.39928828950927L134.36297705134572,-105.13486766006574A170.6070045455344,170.6070045455344,0,0,0,132.88530850032515,-106.99647089868624Z" fill-rule="evenodd" style="fill: #DB3F29; stroke: #fff; opacity: 1;" id="p-type-functions"></path><path d="M155.14900193942793,-121.39928828950927A197,197,0,0,1,156.82515511704102,-119.22613271643102L135.81456828379265,-103.25285972740424A170.6070045455344,170.6070045455344,0,0,0,134.36297705134572,-105.13486766006574Z" fill-rule="evenodd" style="fill: #DB3F29; stroke: #fff; opacity: 1;" id="p-type-functions"></path><path d="M156.82515511704102,-119.22613271643102A197,197,0,0,1,158.47087149115288,-117.02983760065001L137.23980047119755,-101.3508123629302A170.6070045455344,170.6070045455344,0,0,0,135.81456828379265,-103.25285972740424Z" fill-rule="evenodd" style="fill: #DB3F29; stroke: #fff; opacity: 1;" id="p-type-functions"></path><path d="M158.47087149115288,-117.02983760065001A197,197,0,0,1,160.08583165926805,-114.81082920160667L138.63839700288528,-99.42909471814762A170.6070045455344,170.6070045455344,0,0,0,137.23980047119755,-101.3508123629302Z" fill-rule="evenodd" style="fill: #DB3F29; stroke: #fff; opacity: 1;" id="p-type-functions"></path><path d="M160.08583165926805,-114.81082920160667A197,197,0,0,1,161.6697221880903,-112.56953818696117L140.0100864376589,-97.48807976219082A170.6070045455344,170.6070045455344,0,0,0,138.63839700288528,-99.42909471814762Z" fill-rule="evenodd" style="fill: #DB3F29; stroke: #fff; opacity: 1;" id="p-type-functions"></path><path d="M161.6697221880903,-112.56953818696117A197,197,0,0,1,163.22223567435415,-110.30639954900892L141.35460255648135,-95.52814420943807A170.6070045455344,170.6070045455344,0,0,0,140.0100864376589,-97.48807976219082Z" fill-rule="evenodd" style="fill: #DB3F29; stroke: #fff; opacity: 1;" id="p-type-functions"></path><path d="M163.22223567435415,-110.30639954900892A197,197,0,0,1,164.74307080448602,-108.02185252025676L142.67168441414339,-93.54966844639844A170.6070045455344,170.6070045455344,0,0,0,141.35460255648135,-95.52814420943807Z" fill-rule="evenodd" style="fill: #DB3F29; stroke: #fff; opacity: 1;" id="p-type-functions"></path><path d="M164.74307080448602,-108.02185252025676A197,197,0,0,1,166.23193241308354,-105.71634048817629L143.9610763899082,-91.55303645788607A170.6070045455344,170.6070045455344,0,0,0,142.67168441414339,-93.54966844639844Z" fill-rule="evenodd" style="fill: #DB3F29; stroke: #fff; opacity: 1;" id="p-type-functions"></path><path d="M166.23193241308354,-105.71634048817629A197,197,0,0,1,167.68853154020158,-103.39031090915059L145.22252823712265,-89.5386357524958A170.6070045455344,170.6070045455344,0,0,0,143.9610763899082,-91.55303645788607Z" fill-rule="evenodd" style="fill: #DB3F29; stroke: #fff; opacity: 1;" id="p-type-functions"></path><path d="M167.68853154020158,-103.39031090915059A197,197,0,0,1,169.11258548743382,-101.04421522163148L146.45579513178527,-87.50685728739512A170.6070045455344,170.6070045455344,0,0,0,145.22252823712265,-89.5386357524958Z" fill-rule="evenodd" style="fill: #DB3F29; stroke: #fff; opacity: 1;" id="p-type-functions"></path><path d="M169.11258548743382,-101.04421522163148A197,197,0,0,1,170.5038178727794,-98.67850875852386L147.66063772006214,-85.4580953924469A170.6070045455344,170.6070045455344,0,0,0,146.45579513178527,-87.50685728739512Z" fill-rule="evenodd" style="fill: #DB3F29; stroke: #fff; opacity: 1;" id="p-type-functions"></path><path d="M170.5038178727794,-98.67850875852386A197,197,0,0,1,171.86195868428322,-96.2936506588141L148.83682216474088,-83.39274769367715A170.6070045455344,170.6070045455344,0,0,0,147.66063772006214,-85.4580953924469Z" fill-rule="evenodd" style="fill: #DB3F29; stroke: #fff; opacity: 1;" id="p-type-functions"></path><path d="M171.86195868428322,-96.2936506588141A197,197,0,0,1,173.18674433244027,-93.89010377845987L149.98412019061394,-81.31121503610356A170.6070045455344,170.6070045455344,0,0,0,148.83682216474088,-83.39274769367715Z" fill-rule="evenodd" style="fill: #DB3F29; stroke: #fff; opacity: 1;" id="p-type-functions"></path><path d="M173.18674433244027,-93.89010377845987A197,197,0,0,1,174.47791770135345,-91.46833460055855L151.10230912878268,-79.21390140593886A170.6070045455344,170.6070045455344,0,0,0,149.98412019061394,-81.31121503610356Z" fill-rule="evenodd" style="fill: #DB3F29; stroke: #fff; opacity: 1;" id="p-type-functions"></path><path d="M174.47791770135345,-91.46833460055855A197,197,0,0,1,175.73522819863473,-89.02881314481158L152.19117195987312,-77.10121385218478A170.6070045455344,170.6070045455344,0,0,0,151.10230912878268,-79.21390140593886Z" fill-rule="evenodd" style="fill: #DB3F29; stroke: #fff; opacity: 1;" id="p-type-functions"></path><path d="M175.73522819863473,-89.02881314481158A197,197,0,0,1,176.9584318040406,-86.57201287630265L153.2504973561553,-74.97356240763162A170.6070045455344,170.6070045455344,0,0,0,152.19117195987312,-77.10121385218478Z" fill-rule="evenodd" style="fill: #DB3F29; stroke: #fff; opacity: 1;" id="p-type-functions"></path><path d="M187.234722342207,61.254867148959356A197,197,0,0,1,186.36321372578465,63.85728282504285L161.39527741743828,55.30202914313483A170.6070045455344,170.6070045455344,0,0,0,162.15002601887704,53.048271056439674Z" fill-rule="evenodd" style="fill: #1DC690; stroke: #fff; opacity: 1;" id="p-type-logs"></path><path d="M186.36321372578465,63.85728282504285A197,197,0,0,1,185.4555355260337,66.44730500744214L160.60920503799264,57.54505414945783A170.6070045455344,170.6070045455344,0,0,0,161.39527741743828,55.30202914313483Z" fill-rule="evenodd" style="fill: #1DC690; stroke: #fff; opacity: 1;" id="p-type-logs"></path><path d="M185.4555355260337,66.44730500744214A197,197,0,0,1,184.51186390616593,69.02443102172231L159.79196144235675,59.776910746578196A170.6070045455344,170.6070045455344,0,0,0,160.60920503799264,57.54505414945783Z" fill-rule="evenodd" style="fill: #1DC690; stroke: #fff; opacity: 1;" id="p-type-logs"></path><path d="M184.51186390616593,69.02443102172231A197,197,0,0,1,183.53238201503672,71.58816069635134L158.94370524209202,61.99716577324295A170.6070045455344,170.6070045455344,0,0,0,159.79196144235675,59.776910746578196Z" fill-rule="evenodd" style="fill: #1DC690; stroke: #fff; opacity: 1;" id="p-type-logs"></path><path d="M183.53238201503672,71.58816069635134A197,197,0,0,1,182.5172799515995,74.13799645977396L158.06460106772138,64.20538831984501A170.6070045455344,170.6070045455344,0,0,0,158.94370524209202,61.99716577324295Z" fill-rule="evenodd" style="fill: #1DC690; stroke: #fff; opacity: 1;" id="p-type-logs"></path><path d="M182.5172799515995,74.13799645977396A197,197,0,0,1,181.46675472801095,76.67344343698088L157.15481953677738,66.40114981205468A170.6070045455344,170.6070045455344,0,0,0,158.06460106772138,64.20538831984501Z" fill-rule="evenodd" style="fill: #1DC690; stroke: #fff; opacity: 1;" id="p-type-logs"></path><path d="M181.46675472801095,76.67344343698088A197,197,0,0,1,180.38101023139487,79.19400954555478L156.2145372206887,68.58402409399775A170.6070045455344,170.6070045455344,0,0,0,157.15481953677738,66.40114981205468Z" fill-rule="evenodd" style="fill: #1DC690; stroke: #fff; opacity: 1;" id="p-type-logs"></path><path d="M180.38101023139487,79.19400954555478A197,197,0,0,1,179.26025718427124,81.69920559117408L155.24393661051081,70.7535875109644A170.6070045455344,170.6070045455344,0,0,0,156.2145372206887,68.58402409399775Z" fill-rule="evenodd" style="fill: #1DC690; stroke: #fff; opacity: 1;" id="p-type-logs"></path><path d="M179.26025718427124,81.69920559117408A197,197,0,0,1,178.1047131036593,84.18854536255643L154.24320608150813,72.90941899163245A170.6070045455344,170.6070045455344,0,0,0,155.24393661051081,70.7535875109644Z" fill-rule="evenodd" style="fill: #1DC690; stroke: #fff; opacity: 1;" id="p-type-logs"></path><path d="M178.1047131036593,84.18854536255643A197,197,0,0,1,176.9146022588612,86.66154572582315L153.21253985659365,75.05110012978957A170.6070045455344,170.6070045455344,0,0,0,154.24320608150813,72.90941899163245Z" fill-rule="evenodd" style="fill: #1DC690; stroke: #fff; opacity: 1;" id="p-type-logs"></path><path d="M176.9146022588612,86.66154572582315A197,197,0,0,1,175.69015562793606,89.11772671826634L152.1521379686342,77.17821526553786A170.6070045455344,170.6070045455344,0,0,0,153.21253985659365,75.05110012978957Z" fill-rule="evenodd" style="fill: #1DC690; stroke: #fff; opacity: 1;" id="p-type-logs"></path><path d="M175.69015562793606,89.11772671826634A197,197,0,0,1,174.43161085287102,91.55661164150067L151.0622062216277,79.29035156596565A170.6070045455344,170.6070045455344,0,0,0,152.1521379686342,77.17821526553786Z" fill-rule="evenodd" style="fill: #1DC690; stroke: #fff; opacity: 1;" id="p-type-logs"></path><path d="M174.43161085287102,91.55661164150067A197,197,0,0,1,173.1392121934596,93.97772715398139L149.94295615076047,81.38709910527054A170.6070045455344,170.6070045455344,0,0,0,151.0622062216277,79.29035156596565Z" fill-rule="evenodd" style="fill: #1DC690; stroke: #fff; opacity: 1;" id="p-type-logs"></path><path d="M173.1392121934596,93.97772715398139A197,197,0,0,1,171.8132104798956,96.38060336287118L148.7946049813523,83.46805094431834A170.6070045455344,170.6070045455344,0,0,0,149.94295615076047,81.38709910527054Z" fill-rule="evenodd" style="fill: #1DC690; stroke: #fff; opacity: 1;" id="p-type-logs"></path><path d="M171.8132104798956,96.38060336287118A197,197,0,0,1,170.45386306409148,98.76477391523733L147.61737558669725,85.5328032096222A170.6070045455344,170.6070045455344,0,0,0,148.7946049813523,83.46805094431834Z" fill-rule="evenodd" style="fill: #1DC690; stroke: #fff; opacity: 1;" id="p-type-logs"></path><path d="M170.45386306409148,98.76477391523733A197,197,0,0,1,169.06143376973142,101.12977608856217L146.4114964448078,87.58095517172693A170.6070045455344,170.6070045455344,0,0,0,147.61737558669725,85.5328032096222Z" fill-rule="evenodd" style="fill: #1DC690; stroke: #fff; opacity: 1;" id="p-type-logs"></path><path d="M169.06143376973142,101.12977608856217A197,197,0,0,1,167.6361928410679,103.47515088054863L145.17720159407185,89.61210932298283A170.6070045455344,170.6070045455344,0,0,0,146.4114964448078,87.58095517172693Z" fill-rule="evenodd" style="fill: #1DC690; stroke: #fff; opacity: 1;" id="p-type-logs"></path><path d="M167.6361928410679,103.47515088054863A197,197,0,0,1,166.1784168904725,105.80044309820408L143.91473058783023,91.62587145469472A170.6070045455344,170.6070045455344,0,0,0,145.17720159407185,89.61210932298283Z" fill-rule="evenodd" style="fill: #1DC690; stroke: #fff; opacity: 1;" id="p-type-logs"></path><path d="M166.1784168904725,105.80044309820408A197,197,0,0,1,164.68838884475082,108.10520144618461L142.62432844788395,93.62185073363011A170.6070045455344,170.6070045455344,0,0,0,143.91473058783023,91.62587145469472Z" fill-rule="evenodd" style="fill: #1DC690; stroke: #fff; opacity: 1;" id="p-type-logs"></path><path d="M164.68838884475082,108.10520144618461A197,197,0,0,1,163.16639789023137,110.388978614383L141.30624561693998,95.5996597778728A170.6070045455344,170.6070045455344,0,0,0,142.62432844788395,93.62185073363011Z" fill-rule="evenodd" style="fill: #1DC690; stroke: #fff; opacity: 1;" id="p-type-logs"></path><path d="M163.16639789023137,110.388978614383A197,197,0,0,1,161.61273941664024,112.65133136474306L139.96073791000512,97.5589147320062A170.6070045455344,170.6070045455344,0,0,0,141.30624561693998,95.5996597778728Z" fill-rule="evenodd" style="fill: #1DC690; stroke: #fff; opacity: 1;" id="p-type-logs"></path><path d="M161.61273941664024,112.65133136474306A197,197,0,0,1,160.02771495977143,114.89182061728393L138.5880664647371,99.4992353416126A170.6070045455344,170.6070045455344,0,0,0,139.96073791000512,97.5589147320062Z" fill-rule="evenodd" style="fill: #1DC690; stroke: #fff; opacity: 1;" id="p-type-logs"></path><path d="M160.02771495977143,114.89182061728393A197,197,0,0,1,158.41163214296452,117.11001153531704L137.1884976907628,101.42024502707321A170.6070045455344,170.6070045455344,0,0,0,138.5880664647371,99.4992353416126Z" fill-rule="evenodd" style="fill: #1DC690; stroke: #fff; opacity: 1;" id="p-type-logs"></path><path d="M158.41163214296452,117.11001153531704A197,197,0,0,1,156.7648046174006,119.30547360983992L135.762303217973,103.32157095665531A170.6070045455344,170.6070045455344,0,0,0,137.1884976907628,101.42024502707321Z" fill-rule="evenodd" style="fill: #1DC690; stroke: #fff; opacity: 1;" id="p-type-logs"></path><path d="M156.7648046174006,119.30547360983992A197,197,0,0,1,155.08755200122872,121.4777807430897L134.30975984380422,105.20284411887175A170.6070045455344,170.6070045455344,0,0,0,135.762303217973,103.32157095665531Z" fill-rule="evenodd" style="fill: #1DC690; stroke: #fff; opacity: 1;" id="p-type-logs"></path><path d="M155.08755200122872,121.4777807430897A197,197,0,0,1,153.38019981753388,123.62651133124066L132.83114947951765,107.06369939409917A170.6070045455344,170.6070045455344,0,0,0,134.30975984380422,105.20284411887175Z" fill-rule="evenodd" style="fill: #1DC690; stroke: #fff; opacity: 1;" id="p-type-logs"></path><path d="M153.38019981753388,123.62651133124066A197,197,0,0,1,151.64307943115918,125.75124834622974L131.32675909548533,108.90377562544083A170.6070045455344,170.6070045455344,0,0,0,132.83114947951765,107.06369939409917Z" fill-rule="evenodd" style="fill: #1DC690; stroke: #fff; opacity: 1;" id="p-type-logs"></path><path d="M151.64307943115918,125.75124834622974A197,197,0,0,1,149.8765279843942,127.85157941669358L129.79688066549468,110.72271568882029A170.6070045455344,170.6070045455344,0,0,0,131.32675909548533,108.90377562544083Z" fill-rule="evenodd" style="fill: #1DC690; stroke: #fff; opacity: 1;" id="p-type-logs"></path><path d="M149.8765279843942,127.85157941669358A197,197,0,0,1,148.08088833154196,129.9270969080022L128.241811110082,112.5201665622925A170.6070045455344,170.6070045455344,0,0,0,129.79688066549468,110.72271568882029Z" fill-rule="evenodd" style="fill: #1DC690; stroke: #fff; opacity: 1;" id="p-type-logs"></path><path d="M148.08088833154196,129.9270969080022A197,197,0,0,1,146.25650897237753,131.97739800137313L126.66185223890562,114.29577939455872A170.6070045455344,170.6070045455344,0,0,0,128.241811110082,112.5201665622925Z" fill-rule="evenodd" style="fill: #1DC690; stroke: #fff; opacity: 1;" id="p-type-logs"></path><path d="M146.25650897237753,131.97739800137313A197,197,0,0,1,144.40374398451058,134.0020847720509L125.05731069217049,116.04920957267196A170.6070045455344,170.6070045455344,0,0,0,126.66185223890562,114.29577939455872Z" fill-rule="evenodd" style="fill: #1DC690; stroke: #fff; opacity: 1;" id="p-type-logs"></path><path d="M144.40374398451058,134.0020847720509A197,197,0,0,1,142.52295295466578,136.00076426653686L123.42849788111498,117.78011678891983A170.6070045455344,170.6070045455344,0,0,0,125.05731069217049,116.04920957267196Z" fill-rule="evenodd" style="fill: #1DC690; stroke: #fff; opacity: 1;" id="p-type-logs"></path><path d="M142.52295295466578,136.00076426653686A197,197,0,0,1,140.61450090889366,137.97304857885376L121.77572992757196,119.4881651068718A170.6070045455344,170.6070045455344,0,0,0,123.42849788111498,117.78011678891983Z" fill-rule="evenodd" style="fill: #1DC690; stroke: #fff; opacity: 1;" id="p-type-logs"></path><path d="M140.61450090889366,137.97304857885376A197,197,0,0,1,138.67875824172606,139.91855492583136L120.09932760261536,121.17302302657826A170.6070045455344,170.6070045455344,0,0,0,121.77572992757196,119.4881651068718Z" fill-rule="evenodd" style="fill: #1DC690; stroke: #fff; opacity: 1;" id="p-type-logs"></path><path d="M138.67875824172606,139.91855492583136A197,197,0,0,1,136.7161006442895,141.83690572139713L118.39961626430477,122.83436354890831A170.6070045455344,170.6070045455344,0,0,0,120.09932760261536,121.17302302657826Z" fill-rule="evenodd" style="fill: #1DC690; stroke: #fff; opacity: 1;" id="p-type-logs"></path><path d="M136.7161006442895,141.83690572139713A197,197,0,0,1,134.7269090313906,143.72772864985865L116.67692579453937,124.47186423901408A170.6070045455344,170.6070045455344,0,0,0,118.39961626430477,122.83436354890831Z" fill-rule="evenodd" style="fill: #1DC690; stroke: #fff; opacity: 1;" id="p-type-logs"></path><path d="M49.03521008850796,190.79975935932384A197,197,0,0,1,46.372427404194454,191.46435171238198L40.159700167182066,165.8129925020414A170.6070045455344,170.6070045455344,0,0,0,42.46573761655488,165.23743864113214Z" fill-rule="evenodd" style="fill: #D7A449; stroke: #fff; opacity: 1;" id="p-type-tokenTransfers"></path><path d="M46.372427404194454,191.46435171238198A197,197,0,0,1,43.70064470671518,192.09178444748085L37.8458684777733,166.35636518980294A170.6070045455344,170.6070045455344,0,0,0,40.159700167182066,165.8129925020414Z" fill-rule="evenodd" style="fill: #D7A449; stroke: #fff; opacity: 1;" id="p-type-tokenTransfers"></path><path d="M43.70064470671518,192.09178444748085A197,197,0,0,1,41.02038053867832,192.68193579176543L35.524691619400215,166.86745124603092A170.6070045455344,170.6070045455344,0,0,0,37.8458684777733,166.35636518980294Z" fill-rule="evenodd" style="fill: #D7A449; stroke: #fff; opacity: 1;" id="p-type-tokenTransfers"></path><path d="M41.02038053867832,192.68193579176543A197,197,0,0,1,38.332155088785434,193.2346912079953L33.19662008869313,167.34615147856545A170.6070045455344,170.6070045455344,0,0,0,35.524691619400215,166.86745124603092Z" fill-rule="evenodd" style="fill: #D7A449; stroke: #fff; opacity: 1;" id="p-type-tokenTransfers"></path><path d="M38.332155088785434,193.2346912079953A197,197,0,0,1,35.63649009087269,193.74994341677402L30.862105720408167,167.79237298072385A170.6070045455344,170.6070045455344,0,0,0,33.19662008869313,167.34615147856545Z" fill-rule="evenodd" style="fill: #D7A449; stroke: #fff; opacity: 1;" id="p-type-tokenTransfers"></path><path d="M35.63649009087269,193.74994341677402A197,197,0,0,1,32.933908722652134,194.22759241737003L28.52160159973466,168.20602914933224A170.6070045455344,170.6070045455344,0,0,0,30.862105720408167,167.79237298072385Z" fill-rule="evenodd" style="fill: #D7A449; stroke: #fff; opacity: 1;" id="p-type-tokenTransfers"></path><path d="M32.933908722652134,194.22759241737003A197,197,0,0,1,30.2249355041728,194.66754550712503L26.175561974359866,168.58703970153354A170.6070045455344,170.6070045455344,0,0,0,28.52160159973466,168.20602914933224Z" fill-rule="evenodd" style="fill: #D7A449; stroke: #fff; opacity: 1;" id="p-type-tokenTransfers"></path><path d="M30.2249355041728,194.66754550712503A197,197,0,0,1,27.510096196021244,195.06971729944567L23.824442166308046,168.93533069036874A170.6070045455344,170.6070045455344,0,0,0,26.175561974359866,168.58703970153354Z" fill-rule="evenodd" style="fill: #D7A449; stroke: #fff; opacity: 1;" id="p-type-tokenTransfers"></path><path d="M27.510096196021244,195.06971729944567A197,197,0,0,1,24.78991769728133,195.43402974037562L21.468698483571064,169.25083451912877A170.6070045455344,170.6070045455344,0,0,0,23.824442166308046,168.93533069036874Z" fill-rule="evenodd" style="fill: #D7A449; stroke: #fff; opacity: 1;" id="p-type-tokenTransfers"></path><path d="M24.78991769728133,195.43402974037562A197,197,0,0,1,22.06492794327309,195.76041212374417L19.10878813154762,169.53348995447368A170.6070045455344,170.6070045455344,0,0,0,21.468698483571064,169.25083451912877Z" fill-rule="evenodd" style="fill: #D7A449; stroke: #fff; opacity: 1;" id="p-type-tokenTransfers"></path><path d="M22.06492794327309,195.76041212374417A197,197,0,0,1,19.335655803090408,196.04880110488924L16.745169124308294,169.78324213831678A170.6070045455344,170.6070045455344,0,0,0,19.10878813154762,169.53348995447368Z" fill-rule="evenodd" style="fill: #D7A449; stroke: #fff; opacity: 1;" id="p-type-tokenTransfers"></path><path d="M19.335655803090408,196.04880110488924A197,197,0,0,1,16.60263097695752,196.2991407129511L14.378300195703666,170.0000425984718A170.6070045455344,170.6070045455344,0,0,0,16.745169124308294,169.78324213831678Z" fill-rule="evenodd" style="fill: #D7A449; stroke: #fff; opacity: 1;" id="p-type-tokenTransfers"></path><path d="M16.60263097695752,196.2991407129511A197,197,0,0,1,13.866383893424212,196.51138236173543L12.008640710332738,170.18384925806015A170.6070045455344,170.6070045455344,0,0,0,14.378300195703666,170.0000425984718Z" fill-rule="evenodd" style="fill: #D7A449; stroke: #fff; opacity: 1;" id="p-type-tokenTransfers"></path><path d="M13.866383893424212,196.51138236173543A197,197,0,0,1,11.127445606419611,196.685484859143L9.636650574388922,170.33462644367742A170.6070045455344,170.6070045455344,0,0,0,12.008640710332738,170.18384925806015Z" fill-rule="evenodd" style="fill: #D7A449; stroke: #fff; opacity: 1;" id="p-type-tokenTransfers"></path><path d="M11.127445606419611,196.685484859143A197,197,0,0,1,8.386347692184671,196.82141441516416L7.262790146400925,170.4523448923169A170.6070045455344,170.6070045455344,0,0,0,9.636650574388922,170.33462644367742Z" fill-rule="evenodd" style="fill: #D7A449; stroke: #fff; opacity: 1;" id="p-type-tokenTransfers"></path><path d="M8.386347692184671,196.82141441516416A197,197,0,0,1,5.643622146103237,196.9191446484369L4.887520147885856,170.53698175704884A170.6070045455344,170.6070045455344,0,0,0,7.262790146400925,170.4523448923169Z" fill-rule="evenodd" style="fill: #D7A449; stroke: #fff; opacity: 1;" id="p-type-tokenTransfers"></path><path d="M5.643622146103237,196.9191446484369A197,197,0,0,1,2.899801279451784,196.978656591367L2.511301573931863,170.58852061145487A170.6070045455344,170.6070045455344,0,0,0,4.887520147885856,170.53698175704884Z" fill-rule="evenodd" style="fill: #D7A449; stroke: #fff; opacity: 1;" id="p-type-tokenTransfers"></path><path d="M2.899801279451784,196.978656591367A197,197,0,0,1,0.1554176160878435,196.99993869380927L0.13459560372768953,170.60695145281582A170.6070045455344,170.6070045455344,0,0,0,2.511301573931863,170.58852061145487Z" fill-rule="evenodd" style="fill: #D7A449; stroke: #fff; opacity: 1;" id="p-type-tokenTransfers"></path><path d="M0.1554176160878435,196.99993869380927A197,197,0,0,1,-2.5889962109028315,196.98298682530918L-2.2421364889435065,170.59227070405313A170.6070045455344,170.6070045455344,0,0,0,0.13459560372768953,170.60695145281582Z" fill-rule="evenodd" style="fill: #D7A449; stroke: #fff; opacity: 1;" id="p-type-tokenTransfers"></path><path d="M-2.5889962109028315,196.98298682530918A197,197,0,0,1,-5.332907562580296,196.92780427590455L-4.618433425228687,170.54448121442314A170.6070045455344,170.6070045455344,0,0,0,-2.2421364889435065,170.59227070405313Z" fill-rule="evenodd" style="fill: #D7A449; stroke: #fff; opacity: 1;" id="p-type-tokenTransfers"></path><path d="M-5.332907562580296,196.92780427590455A197,197,0,0,1,-8.075783897525584,196.83440175548702L-6.9938340107304615,170.46359225896407A170.6070045455344,170.6070045455344,0,0,0,-4.618433425228687,170.54448121442314Z" fill-rule="evenodd" style="fill: #D7A449; stroke: #fff; opacity: 1;" id="p-type-tokenTransfers"></path><path d="M-8.075783897525584,196.83440175548702A197,197,0,0,1,-10.817092875196945,196.70279739172332L-9.367877225016208,170.34961953669583A170.6070045455344,170.6070045455344,0,0,0,-6.9938340107304615,170.46359225896407Z" fill-rule="evenodd" style="fill: #D7A449; stroke: #fff; opacity: 1;" id="p-type-tokenTransfers"></path><path d="M-10.817092875196945,196.70279739172332A197,197,0,0,1,-13.556302459247107,196.53301672653737L-11.740102311093453,170.20258516757335A170.6070045455344,170.6070045455344,0,0,0,-9.367877225016208,170.34961953669583Z" fill-rule="evenodd" style="fill: #D7A449; stroke: #fff; opacity: 1;" id="p-type-tokenTransfers"></path><path d="M-13.556302459247107,196.53301672653737A197,197,0,0,1,-16.292881020781476,196.3250927111526L-14.110048864834095,170.02251768819326A170.6070045455344,170.6070045455344,0,0,0,-11.740102311093453,170.20258516757335Z" fill-rule="evenodd" style="fill: #D7A449; stroke: #fff; opacity: 1;" id="p-type-tokenTransfers"></path><path d="M-16.292881020781476,196.3250927111526A197,197,0,0,1,-19.02629744153729,196.07906569969717L-16.477256924330167,169.8094520462557A170.6070045455344,170.6070045455344,0,0,0,-14.110048864834095,170.02251768819326Z" fill-rule="evenodd" style="fill: #D7A449; stroke: #fff; opacity: 1;" id="p-type-tokenTransfers"></path><path d="M-19.02629744153729,196.07906569969717A197,197,0,0,1,-21.75602121696366,195.79498344137173L-18.841267059163766,169.56342959378142A170.6070045455344,170.6070045455344,0,0,0,-16.477256924330167,169.8094520462557Z" fill-rule="evenodd" style="fill: #D7A449; stroke: #fff; opacity: 1;" id="p-type-tokenTransfers"></path><path d="M-21.75602121696366,195.79498344137173A197,197,0,0,1,-24.481522559182455,195.47290107118235L-21.201620459573828,169.28449807908632A170.6070045455344,170.6070045455344,0,0,0,-18.841267059163766,169.56342959378142Z" fill-rule="evenodd" style="fill: #D7A449; stroke: #fff; opacity: 1;" id="p-type-tokenTransfers"></path><path d="M-24.481522559182455,195.47290107118235A197,197,0,0,1,-27.202272499810164,195.11288109923976L-23.557859025502427,168.9727116375143A170.6070045455344,170.6070045455344,0,0,0,-21.201620459573828,169.28449807908632Z" fill-rule="evenodd" style="fill: #D7A449; stroke: #fff; opacity: 1;" id="p-type-tokenTransfers"></path><path d="M-27.202272499810164,195.11288109923976A197,197,0,0,1,-29.91774299262069,194.71499339862734L-25.909525455503392,168.62813078093055A170.6070045455344,170.6070045455344,0,0,0,-23.557859025502427,168.9727116375143Z" fill-rule="evenodd" style="fill: #D7A449; stroke: #fff; opacity: 1;" id="p-type-tokenTransfers"></path><path d="M-29.91774299262069,194.71499339862734A197,197,0,0,1,-32.62740701602911,194.27931519184017L-28.256163335495838,168.2508223859776A170.6070045455344,170.6070045455344,0,0,0,-25.909525455503392,168.62813078093055Z" fill-rule="evenodd" style="fill: #D7A449; stroke: #fff; opacity: 1;" id="p-type-tokenTransfers"></path><path d="M-32.62740701602911,194.27931519184017A197,197,0,0,1,-35.330738675376686,193.80593103579736L-30.597317227345574,167.84085968109548A170.6070045455344,170.6070045455344,0,0,0,-28.256163335495838,168.2508223859776Z" fill-rule="evenodd" style="fill: #D7A449; stroke: #fff; opacity: 1;" id="p-type-tokenTransfers"></path><path d="M-35.330738675376686,193.80593103579736A197,197,0,0,1,-38.02721330499703,193.29493280543144L-32.93253275725703,167.3983222323097A170.6070045455344,170.6070045455344,0,0,0,-30.597317227345574,167.84085968109548Z" fill-rule="evenodd" style="fill: #D7A449; stroke: #fff; opacity: 1;" id="p-type-tokenTransfers"></path><path d="M-117.65636302455556,158.00626645748576A197,197,0,0,1,-144.95647781960778,133.40397122324939L-125.53599223489586,115.53122804506218A170.6070045455344,170.6070045455344,0,0,0,-101.89339929614923,136.83744070931573Z" fill-rule="evenodd" style="fill: #414552; stroke: #fff; opacity: 1;" id="p-type-ether"></path><path d="M-144.95647781960778,133.40397122324939A197,197,0,0,1,-165.57896361799985,106.73615510776604L-143.39558882548718,92.43622182560155A170.6070045455344,170.6070045455344,0,0,0,-125.53599223489586,115.53122804506218Z" fill-rule="evenodd" style="fill: #414552; stroke: #fff; opacity: 1;" id="p-type-ether"></path><path d="M-165.57896361799985,106.73615510776604A197,197,0,0,1,-179.20865371387097,81.81233668623501L-155.19924669422076,70.85156191324512A170.6070045455344,170.6070045455344,0,0,0,-143.39558882548718,92.43622182560155Z" fill-rule="evenodd" style="fill: #414552; stroke: #fff; opacity: 1;" id="p-type-ether"></path><path d="M-179.20865371387097,81.81233668623501A197,197,0,0,1,-180.35859861573783,79.24503710244048L-156.19512819218986,68.62821525455384A170.6070045455344,170.6070045455344,0,0,0,-155.19924669422076,70.85156191324512Z" fill-rule="evenodd" style="fill: #414552; stroke: #fff; opacity: 1;" id="p-type-ether"></path></g></svg>