<svg xmlns="http://www.w3.org/2000/svg" width="400" height="400" id="block-7901177"><g id="burst-container" transform="translate(200,200)"><circle r="197" style="fill: #f9f9f9; stroke: #f9f9f9; stroke-width: 3; opacity: 1;" id="circle-base"></circle><path display="none" d="M6.031385485800715e-15,-98.5A98.5,98.5,0,1,1,-6.031385485800715e-15,98.5A98.5,98.5,0,1,1,6.031385485800715e-15,-98.5Z" fill-rule="evenodd" id="p-type-root" style="stroke: #fff; opacity: 1;"></path><path d="M8.529667153919608e-15,-139.30003589374985A139.30003589374985,139.30003589374985,0,1,1,-102.23544387334847,-94.6171972530333L-72.29137564046138,-66.90446179448503A98.5,98.5,0,1,0,6.031385485800715e-15,-98.5Z" fill-rule="evenodd" style="fill: #0B1F65; stroke: #fff; opacity: 1;" id="p-type-data"></path><path d="M-102.23544387334847,-94.6171972530333A139.30003589374985,139.30003589374985,0,0,1,-2.46856431994515,-139.27816121057273L-1.745538570428374,-98.48453226318917A98.5,98.5,0,0,0,-72.29137564046138,-66.90446179448503Z" fill-rule="evenodd" style="fill: #D7A449; stroke: #fff; opacity: 1;" id="p-type-value"></path><path d="M1.0446666101440332e-14,-170.6070045455344A170.6070045455344,170.6070045455344,0,0,1,169.35614768729997,20.62147522650694L138.27871554577143,16.83736401612872A139.30003589374985,139.30003589374985,0,0,0,8.529667153919608e-15,-139.30003589374985Z" fill-rule="evenodd" style="fill: #DB3F29; stroke: #fff; opacity: 1;" id="p-type-functions"></path><path d="M169.35614768729997,20.62147522650694A170.6070045455344,170.6070045455344,0,0,1,38.36309384810337,166.2378507753322L31.32333496078588,135.73263677883224A139.30003589374985,139.30003589374985,0,0,0,138.27871554577143,16.83736401612872Z" fill-rule="evenodd" style="fill: #1DC690; stroke: #fff; opacity: 1;" id="p-type-logs"></path><path d="M38.36309384810337,166.2378507753322A170.6070045455344,170.6070045455344,0,0,1,-99.78663567770528,138.38127525111523L-81.475446853127,112.98783810695413A139.30003589374985,139.30003589374985,0,0,0,31.32333496078588,135.73263677883224Z" fill-rule="evenodd" style="fill: #D7A449; stroke: #fff; opacity: 1;" id="p-type-tokenTransfers"></path><path d="M-99.78663567770528,138.38127525111523A170.6070045455344,170.6070045455344,0,0,1,-163.9076840129004,47.33942460071937L-133.83006358431527,38.65247832957324A139.30003589374985,139.30003589374985,0,0,0,-81.475446853127,112.98783810695413Z" fill-rule="evenodd" style="fill: #414552; stroke: #fff; opacity: 1;" id="p-type-ether"></path><path d="M-125.2123355583262,-115.88192708109888A170.6070045455344,170.6070045455344,0,0,1,-66.24069951811055,-157.22251660417916L-54.08530467479813,-128.3716472521649A139.30003589374985,139.30003589374985,0,0,0,-102.23544387334847,-94.6171972530333Z" fill-rule="evenodd" style="fill: #D7A449; stroke: #fff; opacity: 1;" id="p-type-tokenTransfers"></path><path d="M-66.24069951811055,-157.22251660417916A170.6070045455344,170.6070045455344,0,0,1,-6.045773446896605,-170.49984933550175L-4.936353348454711,-139.2125440311296A139.30003589374985,139.30003589374985,0,0,0,-54.08530467479813,-128.3716472521649Z" fill-rule="evenodd" style="fill: #414552; stroke: #fff; opacity: 1;" id="p-type-ether"></path><path d="M1.206277097160143e-14,-197A197,197,0,0,1,5.236273068224229,-196.93039746152698L4.534745498234469,-170.54672697904888A170.6070045455344,170.6070045455344,0,0,0,1.0446666101440332e-14,-170.6070045455344Z" fill-rule="evenodd" style="fill: #DB3F29; stroke: #fff; opacity: 1;" id="p-type-functions"></path><path d="M5.236273068224229,-196.93039746152698A197,197,0,0,1,10.10703611601218,-196.74055967428177L8.752950033433352,-170.38232263269632A170.6070045455344,170.6070045455344,0,0,0,4.534745498234469,-170.54672697904888Z" fill-rule="evenodd" style="fill: #DB3F29; stroke: #fff; opacity: 1;" id="p-type-functions"></path><path d="M10.10703611601218,-196.74055967428177A197,197,0,0,1,12.954206147276926,-196.5736211781577L11.218671609402357,-170.2377496541833A170.6070045455344,170.6070045455344,0,0,0,8.752950033433352,-170.38232263269632Z" fill-rule="evenodd" style="fill: #DB3F29; stroke: #fff; opacity: 1;" id="p-type-functions"></path><path d="M12.954206147276926,-196.5736211781577A197,197,0,0,1,15.524289817471264,-196.38736320258278L13.4444293576422,-170.07644551567796A170.6070045455344,170.6070045455344,0,0,0,11.218671609402357,-170.2377496541833Z" fill-rule="evenodd" style="fill: #DB3F29; stroke: #fff; opacity: 1;" id="p-type-functions"></path><path d="M15.524289817471264,-196.38736320258278A197,197,0,0,1,17.43774351488581,-196.22671862187642L15.10152886856846,-169.93732322780593A170.6070045455344,170.6070045455344,0,0,0,13.4444293576422,-170.07644551567796Z" fill-rule="evenodd" style="fill: #DB3F29; stroke: #fff; opacity: 1;" id="p-type-functions"></path><path d="M17.43774351488581,-196.22671862187642A197,197,0,0,1,19.17581402051626,-196.06449999082082L16.606742080012893,-169.79683777234465A170.6070045455344,170.6070045455344,0,0,0,15.10152886856846,-169.93732322780593Z" fill-rule="evenodd" style="fill: #DB3F29; stroke: #fff; opacity: 1;" id="p-type-functions"></path><path d="M19.17581402051626,-196.06449999082082A197,197,0,0,1,20.91237888012259,-195.8868867728879L18.11065136375133,-169.64302021356684A170.6070045455344,170.6070045455344,0,0,0,16.606742080012893,-169.79683777234465Z" fill-rule="evenodd" style="fill: #DB3F29; stroke: #fff; opacity: 1;" id="p-type-functions"></path><path d="M20.91237888012259,-195.8868867728879A197,197,0,0,1,22.64730174215416,-195.6938929139073L19.61313863587708,-169.47588262891526A170.6070045455344,170.6070045455344,0,0,0,18.11065136375133,-169.64302021356684Z" fill-rule="evenodd" style="fill: #DB3F29; stroke: #fff; opacity: 1;" id="p-type-functions"></path><path d="M22.64730174215416,-195.6938929139073A197,197,0,0,1,24.38044638398665,-195.48553356736542L21.114085924136894,-169.29543814169406A170.6070045455344,170.6070045455344,0,0,0,19.61313863587708,-169.47588262891526Z" fill-rule="evenodd" style="fill: #DB3F29; stroke: #fff; opacity: 1;" id="p-type-functions"></path><path d="M24.38044638398665,-195.48553356736542A197,197,0,0,1,26.111676722617986,-195.26182509321552L22.613375377193968,-169.1017009200384A170.6070045455344,170.6070045455344,0,0,0,21.114085924136894,-169.29543814169406Z" fill-rule="evenodd" style="fill: #DB3F29; stroke: #fff; opacity: 1;" id="p-type-functions"></path><path d="M26.111676722617986,-195.26182509321552A197,197,0,0,1,27.84085682535329,-195.02278505659328L24.110889273881327,-168.89468617580198A170.6070045455344,170.6070045455344,0,0,0,22.613375377193968,-169.1017009200384Z" fill-rule="evenodd" style="fill: #DB3F29; stroke: #fff; opacity: 1;" id="p-type-functions"></path><path d="M27.84085682535329,-195.02278505659328A197,197,0,0,1,29.56785092047805,-194.76843222643754L25.60651003244509,-168.67441016336264A170.6070045455344,170.6070045455344,0,0,0,24.110889273881327,-168.89468617580198Z" fill-rule="evenodd" style="fill: #DB3F29; stroke: #fff; opacity: 1;" id="p-type-functions"></path><path d="M29.56785092047805,-194.76843222643754A197,197,0,0,1,31.292523407918647,-194.4987865740166L27.100120219776745,-168.44089017834608A170.6070045455344,170.6070045455344,0,0,0,25.60651003244509,-168.67441016336264Z" fill-rule="evenodd" style="fill: #DB3F29; stroke: #fff; opacity: 1;" id="p-type-functions"></path><path d="M31.292523407918647,-194.4987865740166A197,197,0,0,1,33.014738869889385,-194.21386927136027L28.591602560633753,-168.19414455626793A170.6070045455344,170.6070045455344,0,0,0,27.100120219776745,-168.44089017834608Z" fill-rule="evenodd" style="fill: #DB3F29; stroke: #fff; opacity: 1;" id="p-type-functions"></path><path d="M33.014738869889385,-194.21386927136027A197,197,0,0,1,34.73436208152521,-193.91370268959722L30.080839946847767,-167.93419267109402A170.6070045455344,170.6070045455344,0,0,0,28.591602560633753,-168.19414455626793Z" fill-rule="evenodd" style="fill: #DB3F29; stroke: #fff; opacity: 1;" id="p-type-functions"></path><path d="M34.73436208152521,-193.91370268959722A197,197,0,0,1,36.45125802149938,-193.59831039719865L31.567715446519752,-167.66105493371904A170.6070045455344,170.6070045455344,0,0,0,30.080839946847767,-167.93419267109402Z" fill-rule="evenodd" style="fill: #DB3F29; stroke: #fff; opacity: 1;" id="p-type-functions"></path><path d="M36.45125802149938,-193.59831039719865A197,197,0,0,1,38.16529188262483,-193.2677171581277L33.05211231320113,-167.37475279036423A170.6070045455344,170.6070045455344,0,0,0,31.567715446519752,-167.66105493371904Z" fill-rule="evenodd" style="fill: #DB3F29; stroke: #fff; opacity: 1;" id="p-type-functions"></path><path d="M38.16529188262483,-193.2677171581277A197,197,0,0,1,39.87632908243926,-192.92194892989497L34.533913995060615,-167.07530872089313A170.6070045455344,170.6070045455344,0,0,0,33.05211231320113,-167.37475279036423Z" fill-rule="evenodd" style="fill: #DB3F29; stroke: #fff; opacity: 1;" id="p-type-functions"></path><path d="M39.87632908243926,-192.92194892989497A197,197,0,0,1,41.58423527377213,-192.56103286152046L36.013004144035605,-166.76274623704683A170.6070045455344,170.6070045455344,0,0,0,34.533913995060615,-167.07530872089313Z" fill-rule="evenodd" style="fill: #DB3F29; stroke: #fff; opacity: 1;" id="p-type-functions"></path><path d="M41.58423527377213,-192.56103286152046A197,197,0,0,1,43.288876355293276,-192.18499729140186L37.4892666249675,-166.4370898805975A170.6070045455344,170.6070045455344,0,0,0,36.013004144035605,-166.76274623704683Z" fill-rule="evenodd" style="fill: #DB3F29; stroke: #fff; opacity: 1;" id="p-type-functions"></path><path d="M43.288876355293276,-192.18499729140186A197,197,0,0,1,44.99011848204238,-191.79387174508938L38.96258552472049,-166.09836522142186A170.6070045455344,170.6070045455344,0,0,0,37.4892666249675,-166.4370898805975Z" fill-rule="evenodd" style="fill: #DB3F29; stroke: #fff; opacity: 1;" id="p-type-functions"></path><path d="M44.99011848204238,-191.79387174508938A197,197,0,0,1,46.687828075938135,-191.38768693296768L40.43284516128278,-165.74659885549306A170.6070045455344,170.6070045455344,0,0,0,38.96258552472049,-166.09836522142186Z" fill-rule="evenodd" style="fill: #DB3F29; stroke: #fff; opacity: 1;" id="p-type-functions"></path><path d="M46.687828075938135,-191.38768693296768A197,197,0,0,1,48.38187183626661,-190.96647474784436L41.89993009284975,-165.3818184027927A170.6070045455344,170.6070045455344,0,0,0,40.43284516128278,-165.74659885549306Z" fill-rule="evenodd" style="fill: #DB3F29; stroke: #fff; opacity: 1;" id="p-type-functions"></path><path d="M48.38187183626661,-190.96647474784436A197,197,0,0,1,50.0721167501475,-190.5302682624459L43.36372512688804,-165.00405250514214A170.6070045455344,170.6070045455344,0,0,0,41.89993009284975,-165.3818184027927Z" fill-rule="evenodd" style="fill: #DB3F29; stroke: #fff; opacity: 1;" id="p-type-functions"></path><path d="M50.0721167501475,-190.5302682624459A197,197,0,0,1,51.75843010297853,-190.0791017268208L44.82411532918063,-164.61333082395336A170.6070045455344,170.6070045455344,0,0,0,43.36372512688804,-165.00405250514214Z" fill-rule="evenodd" style="fill: #DB3F29; stroke: #fff; opacity: 1;" id="p-type-functions"></path><path d="M51.75843010297853,-190.0791017268208A197,197,0,0,1,53.44067948885528,-189.61301056565037L46.28098603285066,-164.2096840379004A170.6070045455344,170.6070045455344,0,0,0,44.82411532918063,-164.61333082395336Z" fill-rule="evenodd" style="fill: #DB3F29; stroke: #fff; opacity: 1;" id="p-type-functions"></path><path d="M53.44067948885528,-189.61301056565037A197,197,0,0,1,55.11873282096811,-189.13203137546725L47.7342228473655,-163.79314384051014A170.6070045455344,170.6070045455344,0,0,0,46.28098603285066,-164.2096840379004Z" fill-rule="evenodd" style="fill: #DB3F29; stroke: #fff; opacity: 1;" id="p-type-functions"></path><path d="M55.11873282096811,-189.13203137546725A197,197,0,0,1,56.792458341972676,-188.63620192178197L49.1837116675178,-163.36374293767412A170.6070045455344,170.6070045455344,0,0,0,47.7342228473655,-163.79314384051014Z" fill-rule="evenodd" style="fill: #DB3F29; stroke: #fff; opacity: 1;" id="p-type-functions"></path><path d="M56.792458341972676,-188.63620192178197A197,197,0,0,1,58.46172463433594,-188.12556113611748L50.62933868238544,-162.92151504508024A170.6070045455344,170.6070045455344,0,0,0,49.1837116675178,-163.36374293767412Z" fill-rule="evenodd" style="fill: #DB3F29; stroke: #fff; opacity: 1;" id="p-type-functions"></path><path d="M58.46172463433594,-188.12556113611748A197,197,0,0,1,60.12640063065407,-187.6001491129527L52.07099038426711,-162.46649488556574A170.6070045455344,170.6070045455344,0,0,0,50.62933868238544,-162.92151504508024Z" fill-rule="evenodd" style="fill: #DB3F29; stroke: #fff; opacity: 1;" id="p-type-functions"></path><path d="M60.12640063065407,-187.6001491129527A197,197,0,0,1,61.78635562394433,-187.06000710657392L53.50855357759531,-161.99871818639062A170.6070045455344,170.6070045455344,0,0,0,52.07099038426711,-162.46649488556574Z" fill-rule="evenodd" style="fill: #DB3F29; stroke: #fff; opacity: 1;" id="p-type-functions"></path><path d="M61.78635562394433,-187.06000710657392A197,197,0,0,1,63.44145927790726,-186.50517752783603L54.941915387823656,-161.5182216764326A170.6070045455344,170.6070045455344,0,0,0,53.50855357759531,-161.99871818639062Z" fill-rule="evenodd" style="fill: #DB3F29; stroke: #fff; opacity: 1;" id="p-type-functions"></path><path d="M63.44145927790726,-186.50517752783603A197,197,0,0,1,65.09158163716103,-185.9357039408322L56.370963270290126,-161.02504308330305A170.6070045455344,170.6070045455344,0,0,0,54.941915387823656,-161.5182216764326Z" fill-rule="evenodd" style="fill: #DB3F29; stroke: #fff; opacity: 1;" id="p-type-functions"></path><path d="M65.09158163716103,-185.9357039408322A197,197,0,0,1,66.7365931374446,-185.3516310594735L57.795585019053256,-160.51922113038484A170.6070045455344,170.6070045455344,0,0,0,56.370963270290126,-161.02504308330305Z" fill-rule="evenodd" style="fill: #DB3F29; stroke: #fff; opacity: 1;" id="p-type-functions"></path><path d="M66.7365931374446,-185.3516310594735A197,197,0,0,1,68.37636461579162,-184.7530047439779L59.21566877570293,-160.00079553379177A170.6070045455344,170.6070045455344,0,0,0,57.795585019053256,-160.51922113038484Z" fill-rule="evenodd" style="fill: #DB3F29; stroke: #fff; opacity: 1;" id="p-type-functions"></path><path d="M68.37636461579162,-184.7530047439779A197,197,0,0,1,70.01076732067123,-184.13987199726958L60.63110303814268,-159.46980699925024A170.6070045455344,170.6070045455344,0,0,0,59.21566877570293,-160.00079553379177Z" fill-rule="evenodd" style="fill: #DB3F29; stroke: #fff; opacity: 1;" id="p-type-functions"></path><path d="M70.01076732067123,-184.13987199726958A197,197,0,0,1,71.63967292209816,-183.51228096128824L62.041776669345175,-158.926297218903A170.6070045455344,170.6070045455344,0,0,0,60.63110303814268,-159.46980699925024Z" fill-rule="evenodd" style="fill: #DB3F29; stroke: #fff; opacity: 1;" id="p-type-functions"></path><path d="M71.63967292209816,-183.51228096128824A197,197,0,0,1,73.2629535217082,-182.87028091320914L63.4475789060779,-158.37030886803566A170.6070045455344,170.6070045455344,0,0,0,62.041776669345175,-158.926297218903Z" fill-rule="evenodd" style="fill: #DB3F29; stroke: #fff; opacity: 1;" id="p-type-functions"></path><path d="M73.2629535217082,-182.87028091320914A197,197,0,0,1,74.8804816628012,-182.2139222615739L64.84839936760066,-157.80188560172584A170.6070045455344,170.6070045455344,0,0,0,63.4475789060779,-158.37030886803566Z" fill-rule="evenodd" style="fill: #DB3F29; stroke: #fff; opacity: 1;" id="p-type-functions"></path><path d="M74.8804816628012,-182.2139222615739A197,197,0,0,1,76.49213034034804,-181.54325654233267L66.24412806433183,-157.22107205141558A170.6070045455344,170.6070045455344,0,0,0,64.84839936760066,-157.80188560172584Z" fill-rule="evenodd" style="fill: #DB3F29; stroke: #fff; opacity: 1;" id="p-type-functions"></path><path d="M76.49213034034804,-181.54325654233267A197,197,0,0,1,78.09777301096352,-180.85833641479735L67.63465540648512,-156.62791382140674A170.6070045455344,170.6070045455344,0,0,0,66.24412806433183,-157.22107205141558Z" fill-rule="evenodd" style="fill: #DB3F29; stroke: #fff; opacity: 1;" id="p-type-functions"></path><path d="M78.09777301096352,-180.85833641479735A197,197,0,0,1,79.6972836028416,-180.15921565750733L69.01987221267382,-156.02245748528054A170.6070045455344,170.6070045455344,0,0,0,67.63465540648512,-156.62791382140674Z" fill-rule="evenodd" style="fill: #DB3F29; stroke: #fff; opacity: 1;" id="p-type-functions"></path><path d="M79.6972836028416,-180.15921565750733A197,197,0,0,1,81.29053652565487,-179.4459491640064L70.39966971848392,-155.4047505822405A170.6070045455344,170.6070045455344,0,0,0,69.01987221267382,-156.02245748528054Z" fill-rule="evenodd" style="fill: #DB3F29; stroke: #fff; opacity: 1;" id="p-type-functions"></path><path d="M81.29053652565487,-179.4459491640064A197,197,0,0,1,82.87740668041519,-178.71859293853305L71.7739395850137,-154.7748416133798A170.6070045455344,170.6070045455344,0,0,0,70.39966971848392,-155.4047505822405Z" fill-rule="evenodd" style="fill: #DB3F29; stroke: #fff; opacity: 1;" id="p-type-functions"></path><path d="M82.87740668041519,-178.71859293853305A197,197,0,0,1,84.45776946929666,-177.97720409162275L73.14257390738068,-154.13278003787303A170.6070045455344,170.6070045455344,0,0,0,71.7739395850137,-154.7748416133798Z" fill-rule="evenodd" style="fill: #DB3F29; stroke: #fff; opacity: 1;" id="p-type-functions"></path><path d="M84.45776946929666,-177.97720409162275A197,197,0,0,1,86.03150080541829,-177.2218408356242L74.50546522319362,-153.47861626909295A170.6070045455344,170.6070045455344,0,0,0,73.14257390738068,-154.13278003787303Z" fill-rule="evenodd" style="fill: #DB3F29; stroke: #fff; opacity: 1;" id="p-type-functions"></path><path d="M86.03150080541829,-177.2218408356242A197,197,0,0,1,87.59847712258757,-176.45256248012808L75.8625065209908,-152.8124016706518A170.6070045455344,170.6070045455344,0,0,0,74.50546522319362,-153.47861626909295Z" fill-rule="evenodd" style="fill: #DB3F29; stroke: #fff; opacity: 1;" id="p-type-functions"></path><path d="M87.59847712258757,-176.45256248012808A197,197,0,0,1,89.15857538500208,-175.66942942731072L77.21359124864175,-152.1341885523687A170.6070045455344,170.6070045455344,0,0,0,75.8625065209908,-152.8124016706518Z" fill-rule="evenodd" style="fill: #DB3F29; stroke: #fff; opacity: 1;" id="p-type-functions"></path><path d="M89.15857538500208,-175.66942942731072A197,197,0,0,1,90.71167309691069,-174.87250316719096L78.55861332171408,-151.44403016616207A170.6070045455344,170.6070045455344,0,0,0,77.21359124864175,-152.1341885523687Z" fill-rule="evenodd" style="fill: #DB3F29; stroke: #fff; opacity: 1;" id="p-type-functions"></path><path d="M90.71167309691069,-174.87250316719096A197,197,0,0,1,92.25764831223088,-174.06184627280248L79.89746713180249,-150.74198070186864A170.6070045455344,170.6070045455344,0,0,0,78.55861332171408,-151.44403016616207Z" fill-rule="evenodd" style="fill: #DB3F29; stroke: #fff; opacity: 1;" id="p-type-functions"></path><path d="M92.25764831223088,-174.06184627280248A197,197,0,0,1,93.7963796441245,-173.23752239528037L81.23004755482141,-150.02809528298843A170.6070045455344,170.6070045455344,0,0,0,79.89746713180249,-150.74198070186864Z" fill-rule="evenodd" style="fill: #DB3F29; stroke: #fff; opacity: 1;" id="p-type-functions"></path><path d="M93.7963796441245,-173.23752239528037A197,197,0,0,1,95.3277462745281,-172.39959625886365L82.55624995925871,-149.3024299623566A170.6070045455344,170.6070045455344,0,0,0,81.23004755482141,-150.02809528298843Z" fill-rule="evenodd" style="fill: #DB3F29; stroke: #fff; opacity: 1;" id="p-type-functions"></path><path d="M95.3277462745281,-172.39959625886365A197,197,0,0,1,96.85162796363994,-171.548133655813L83.8759702143915,-148.5650417177423A170.6070045455344,170.6070045455344,0,0,0,82.55624995925871,-149.3024299623566Z" fill-rule="evenodd" style="fill: #DB3F29; stroke: #fff; opacity: 1;" id="p-type-functions"></path><path d="M96.85162796363994,-171.548133655813A197,197,0,0,1,98.36790505936042,-170.6832014412451L85.18910469846193,-147.81598844737496A170.6070045455344,170.6070045455344,0,0,0,83.8759702143915,-148.5650417177423Z" fill-rule="evenodd" style="fill: #DB3F29; stroke: #fff; opacity: 1;" id="p-type-functions"></path><path d="M98.36790505936042,-170.6832014412451A197,197,0,0,1,99.8764585066875,-169.80486752788312L86.49555030681378,-147.05532896539808A170.6070045455344,170.6070045455344,0,0,0,85.18910469846193,-147.81598844737496Z" fill-rule="evenodd" style="fill: #DB3F29; stroke: #fff; opacity: 1;" id="p-type-functions"></path><path d="M99.8764585066875,-169.80486752788312A197,197,0,0,1,101.37716985706399,-168.91320088072453L87.79520445998747,-146.28312299725147A170.6070045455344,170.6070045455344,0,0,0,86.49555030681378,-147.05532896539808Z" fill-rule="evenodd" style="fill: #DB3F29; stroke: #fff; opacity: 1;" id="p-type-functions"></path><path d="M101.37716985706399,-168.91320088072453A197,197,0,0,1,102.8699212776786,-168.00827151162588L89.08796511177503,-145.4994311749814A170.6070045455344,170.6070045455344,0,0,0,87.79520445998747,-146.28312299725147Z" fill-rule="evenodd" style="fill: #DB3F29; stroke: #fff; opacity: 1;" id="p-type-functions"></path><path d="M102.8699212776786,-168.00827151162588A197,197,0,0,1,104.35459556071729,-167.09015047380598L90.37373075723197,-144.70431503248042A170.6070045455344,170.6070045455344,0,0,0,89.08796511177503,-145.4994311749814Z" fill-rule="evenodd" style="fill: #DB3F29; stroke: #fff; opacity: 1;" id="p-type-functions"></path><path d="M104.35459556071729,-167.09015047380598A197,197,0,0,1,105.83107613256668,-166.15890985626643L91.65240044064772,-143.89783700065527A170.6070045455344,170.6070045455344,0,0,0,90.37373075723197,-144.70431503248042Z" fill-rule="evenodd" style="fill: #DB3F29; stroke: #fff; opacity: 1;" id="p-type-functions"></path><path d="M105.83107613256668,-166.15890985626643A197,197,0,0,1,107.29924706296684,-165.21462277813185L92.92387376347209,-143.08006040252536A170.6070045455344,170.6070045455344,0,0,0,91.65240044064772,-143.89783700065527Z" fill-rule="evenodd" style="fill: #DB3F29; stroke: #fff; opacity: 1;" id="p-type-functions"></path><path d="M107.29924706296684,-165.21462277813185A197,197,0,0,1,108.7589930741141,-164.25736338290835L94.18805089219863,-142.25104944825046A170.6070045455344,170.6070045455344,0,0,0,92.92387376347209,-143.08006040252536Z" fill-rule="evenodd" style="fill: #DB3F29; stroke: #fff; opacity: 1;" id="p-type-functions"></path><path d="M108.7589930741141,-164.25736338290835A197,197,0,0,1,110.21019954971239,-163.28720683266212L95.44483256620322,-141.41086923008936A170.6070045455344,170.6070045455344,0,0,0,94.18805089219863,-142.25104944825046Z" fill-rule="evenodd" style="fill: #DB3F29; stroke: #fff; opacity: 1;" id="p-type-functions"></path><path d="M110.21019954971239,-163.28720683266212A197,197,0,0,1,111.65275254397255,-162.3042293021178L96.69412010553783,-140.55958571728866A170.6070045455344,170.6070045455344,0,0,0,95.44483256620322,-141.41086923008936Z" fill-rule="evenodd" style="fill: #DB3F29; stroke: #fff; opacity: 1;" id="p-type-functions"></path><path d="M111.65275254397255,-162.3042293021178A197,197,0,0,1,113.08653879055935,-161.30850797267735L97.93581541867873,-139.69726575090326A170.6070045455344,170.6070045455344,0,0,0,96.69412010553783,-140.55958571728866Z" fill-rule="evenodd" style="fill: #DB3F29; stroke: #fff; opacity: 1;" id="p-type-functions"></path><path d="M113.08653879055935,-161.30850797267735A197,197,0,0,1,114.51144571148468,-160.3001210263601L99.16982101022835,-138.8239770385479A170.6070045455344,170.6070045455344,0,0,0,97.93581541867873,-139.69726575090326Z" fill-rule="evenodd" style="fill: #DB3F29; stroke: #fff; opacity: 1;" id="p-type-functions"></path><path d="M114.51144571148468,-160.3001210263601A197,197,0,0,1,115.92736142594721,-159.27914763966376L100.3960399885705,-137.93978814908104A170.6070045455344,170.6070045455344,0,0,0,99.16982101022835,-138.8239770385479Z" fill-rule="evenodd" style="fill: #DB3F29; stroke: #fff; opacity: 1;" id="p-type-functions"></path><path d="M115.92736142594721,-159.27914763966376A197,197,0,0,1,117.33417475911675,-158.24566797734795L101.61437607347797,-137.04476850722097A170.6070045455344,170.6070045455344,0,0,0,100.3960399885705,-137.93978814908104Z" fill-rule="evenodd" style="fill: #DB3F29; stroke: #fff; opacity: 1;" id="p-type-functions"></path><path d="M117.33417475911675,-158.24566797734795A197,197,0,0,1,118.73177525086376,-157.19976318613962L102.8247336036725,-136.1389883880947A170.6070045455344,170.6070045455344,0,0,0,101.61437607347797,-137.04476850722097Z" fill-rule="evenodd" style="fill: #DB3F29; stroke: #fff; opacity: 1;" id="p-type-functions"></path><path d="M118.73177525086376,-157.19976318613962A197,197,0,0,1,120.12005316443224,-156.14151538836163L104.02701754433566,-135.22251891172002A170.6070045455344,170.6070045455344,0,0,0,102.8247336036725,-136.1389883880947Z" fill-rule="evenodd" style="fill: #DB3F29; stroke: #fff; opacity: 1;" id="p-type-functions"></path><path d="M120.12005316443224,-156.14151538836163A197,197,0,0,1,121.4988994950562,-155.0710076754847L105.22113349457096,-134.29543203742142A170.6070045455344,170.6070045455344,0,0,0,104.02701754433566,-135.22251891172002Z" fill-rule="evenodd" style="fill: #DB3F29; stroke: #fff; opacity: 1;" id="p-type-functions"></path><path d="M121.4988994950562,-155.0710076754847A197,197,0,0,1,122.86820597851828,-153.98832410160327L106.40698769481587,-133.35780055817997A170.6070045455344,170.6070045455344,0,0,0,105.22113349457096,-134.29543203742142Z" fill-rule="evenodd" style="fill: #DB3F29; stroke: #fff; opacity: 1;" id="p-type-functions"></path><path d="M122.86820597851828,-153.98832410160327A197,197,0,0,1,124.2278650996507,-152.89354967683556L107.58448703420378,-132.40969809491764A170.6070045455344,170.6070045455344,0,0,0,106.40698769481587,-133.35780055817997Z" fill-rule="evenodd" style="fill: #DB3F29; stroke: #fff; opacity: 1;" id="p-type-functions"></path><path d="M124.2278650996507,-152.89354967683556A197,197,0,0,1,125.57777010077697,-151.78677036064903L108.75353905787479,-131.45119909071693A170.6070045455344,170.6070045455344,0,0,0,107.58448703420378,-132.40969809491764Z" fill-rule="evenodd" style="fill: #DB3F29; stroke: #fff; opacity: 1;" id="p-type-functions"></path><path d="M125.57777010077697,-151.78677036064903A197,197,0,0,1,126.9178149900943,-150.66807305511077L109.9140519742351,-130.4823788049756A170.6070045455344,170.6070045455344,0,0,0,108.75353905787479,-131.45119909071693Z" fill-rule="evenodd" style="fill: #DB3F29; stroke: #fff; opacity: 1;" id="p-type-functions"></path><path d="M126.9178149900943,-150.66807305511077A197,197,0,0,1,128.24789454999586,-149.53754559806424L111.06593466216427,-129.50331330749748A170.6070045455344,170.6070045455344,0,0,0,109.9140519742351,-130.4823788049756Z" fill-rule="evenodd" style="fill: #DB3F29; stroke: #fff; opacity: 1;" id="p-type-functions"></path><path d="M128.24789454999586,-149.53754559806424A197,197,0,0,1,129.56790434533232,-148.39527675623242L112.20909667816996,-128.51407947251968A170.6070045455344,170.6070045455344,0,0,0,111.06593466216427,-129.50331330749748Z" fill-rule="evenodd" style="fill: #DB3F29; stroke: #fff; opacity: 1;" id="p-type-functions"></path><path d="M129.56790434533232,-148.39527675623242A197,197,0,0,1,130.87774073161182,-147.241356218248L113.3434482634892,-127.51475497267657A170.6070045455344,170.6070045455344,0,0,0,112.20909667816996,-128.51407947251968Z" fill-rule="evenodd" style="fill: #DB3F29; stroke: #fff; opacity: 1;" id="p-type-functions"></path><path d="M130.87774073161182,-147.241356218248A197,197,0,0,1,132.17730086313796,-146.07587458761117L114.46890035113627,-126.50541827290098A170.6070045455344,170.6070045455344,0,0,0,113.3434482634892,-127.51475497267657Z" fill-rule="evenodd" style="fill: #DB3F29; stroke: #fff; opacity: 1;" id="p-type-functions"></path><path d="M132.17730086313796,-146.07587458761117A197,197,0,0,1,133.466482701085,-144.89892337557578L115.58536457289593,-125.48614862426345A170.6070045455344,170.6070045455344,0,0,0,114.46890035113627,-126.50541827290098Z" fill-rule="evenodd" style="fill: #DB3F29; stroke: #fff; opacity: 1;" id="p-type-functions"></path><path d="M133.466482701085,-144.89892337557578A197,197,0,0,1,134.7451850215097,-143.71059499396387L116.69275326626185,-124.45702605774947A170.6070045455344,170.6070045455344,0,0,0,115.58536457289593,-125.48614862426345Z" fill-rule="evenodd" style="fill: #DB3F29; stroke: #fff; opacity: 1;" id="p-type-functions"></path><path d="M195.5556349123613,23.811628546221964A197,197,0,0,1,195.33696395238232,25.54350238056034L169.16677308088822,22.121321963193537A170.6070045455344,170.6070045455344,0,0,0,169.35614768729997,20.62147522650694Z" fill-rule="evenodd" style="fill: #1DC690; stroke: #fff; opacity: 1;" id="p-type-logs"></path><path d="M195.33696395238232,25.54350238056034A197,197,0,0,1,195.10295553018014,27.273370590899635L168.96411584256163,23.619431778546492A170.6070045455344,170.6070045455344,0,0,0,169.16677308088822,22.121321963193537Z" fill-rule="evenodd" style="fill: #1DC690; stroke: #fff; opacity: 1;" id="p-type-logs"></path><path d="M195.10295553018014,27.273370590899635A197,197,0,0,1,194.85362801962148,29.001097351496536L168.7481918845555,25.115687044021602A170.6070045455344,170.6070045455344,0,0,0,168.96411584256163,23.619431778546492Z" fill-rule="evenodd" style="fill: #1DC690; stroke: #fff; opacity: 1;" id="p-type-logs"></path><path d="M194.85362801962148,29.001097351496536A197,197,0,0,1,194.5890009973968,30.726547004750007L168.5190181607811,26.609970276690156A170.6070045455344,170.6070045455344,0,0,0,168.7481918845555,25.115687044021602Z" fill-rule="evenodd" style="fill: #1DC690; stroke: #fff; opacity: 1;" id="p-type-logs"></path><path d="M194.5890009973968,30.726547004750007A197,197,0,0,1,194.3090952414831,32.44958407185287L168.27661266549435,28.102164148463466A170.6070045455344,170.6070045455344,0,0,0,168.5190181607811,26.609970276690156Z" fill-rule="evenodd" style="fill: #1DC690; stroke: #fff; opacity: 1;" id="p-type-logs"></path><path d="M194.3090952414831,32.44958407185287A197,197,0,0,1,194.0139327295127,34.17007326342931L168.02099443188314,29.59215149530522A170.6070045455344,170.6070045455344,0,0,0,168.27661266549435,28.102164148463466Z" fill-rule="evenodd" style="fill: #1DC690; stroke: #fff; opacity: 1;" id="p-type-logs"></path><path d="M194.0139327295127,34.17007326342931A197,197,0,0,1,193.7035366370473,35.88787949015754L167.7521835305727,31.079815326430953A170.6070045455344,170.6070045455344,0,0,0,168.02099443188314,29.59215149530522Z" fill-rule="evenodd" style="fill: #1DC690; stroke: #fff; opacity: 1;" id="p-type-logs"></path><path d="M193.7035366370473,35.88787949015754A197,197,0,0,1,193.3779313357586,37.60286787337672L167.4702010680498,32.565038833493965A170.6070045455344,170.6070045455344,0,0,0,167.7521835305727,31.079815326430953Z" fill-rule="evenodd" style="fill: #1DC690; stroke: #fff; opacity: 1;" id="p-type-logs"></path><path d="M193.3779313357586,37.60286787337672A197,197,0,0,1,193.03714239151444,39.31490375567737L167.17506918500547,34.047705399756836A170.6070045455344,170.6070045455344,0,0,0,167.4702010680498,32.565038833493965Z" fill-rule="evenodd" style="fill: #1DC690; stroke: #fff; opacity: 1;" id="p-type-logs"></path><path d="M193.03714239151444,39.31490375567737A197,197,0,0,1,192.68119656237153,41.02385271147441L166.86681105459658,35.52769860924796A170.6070045455344,170.6070045455344,0,0,0,167.17506918500547,34.047705399756836Z" fill-rule="evenodd" style="fill: #1DC690; stroke: #fff; opacity: 1;" id="p-type-logs"></path><path d="M192.68119656237153,41.02385271147441A197,197,0,0,1,192.31012179647442,42.72958055756195L166.54545088062633,37.00490225590229A170.6070045455344,170.6070045455344,0,0,0,166.86681105459658,35.52769860924796Z" fill-rule="evenodd" style="fill: #1DC690; stroke: #fff; opacity: 1;" id="p-type-logs"></path><path d="M192.31012179647442,42.72958055756195A197,197,0,0,1,191.9239472298611,44.43195336364911L166.21101389564376,38.47920035268557A170.6070045455344,170.6070045455344,0,0,0,166.54545088062633,37.00490225590229Z" fill-rule="evenodd" style="fill: #1DC690; stroke: #fff; opacity: 1;" id="p-type-logs"></path><path d="M191.9239472298611,44.43195336364911A197,197,0,0,1,191.52270318417533,46.13083746287593L165.86352635896262,39.95047714070144A170.6070045455344,170.6070045455344,0,0,0,166.21101389564376,38.47920035268557Z" fill-rule="evenodd" style="fill: #1DC690; stroke: #fff; opacity: 1;" id="p-type-logs"></path><path d="M191.52270318417533,46.13083746287593A197,197,0,0,1,191.10642116428573,47.82609946230867L165.50301555459953,41.41861709828059A170.6070045455344,170.6070045455344,0,0,0,165.86352635896262,39.95047714070144Z" fill-rule="evenodd" style="fill: #1DC690; stroke: #fff; opacity: 1;" id="p-type-logs"></path><path d="M191.10642116428573,47.82609946230867A197,197,0,0,1,190.67513385581222,49.51760625341348L165.12950978913165,42.883504950051254A170.6070045455344,170.6070045455344,0,0,0,165.50301555459953,41.41861709828059Z" fill-rule="evenodd" style="fill: #1DC690; stroke: #fff; opacity: 1;" id="p-type-logs"></path><path d="M190.67513385581222,49.51760625341348A197,197,0,0,1,190.2288751225595,51.20522502250789L164.74303838947412,44.345025675990435A170.6070045455344,170.6070045455344,0,0,0,165.12950978913165,42.883504950051254Z" fill-rule="evenodd" style="fill: #1DC690; stroke: #fff; opacity: 1;" id="p-type-logs"></path><path d="M190.2288751225595,51.20522502250789A197,197,0,0,1,189.76768000385817,52.88882326118899L164.34363170057742,45.80306452045501A170.6070045455344,170.6070045455344,0,0,0,164.74303838947412,44.345025675990435Z" fill-rule="evenodd" style="fill: #1DC690; stroke: #fff; opacity: 1;" id="p-type-logs"></path><path d="M189.76768000385817,52.88882326118899A197,197,0,0,1,189.29158471181358,54.56826877673781L163.93132108304462,47.25750700119213A170.6070045455344,170.6070045455344,0,0,0,164.34363170057742,45.80306452045501Z" fill-rule="evenodd" style="fill: #1DC690; stroke: #fff; opacity: 1;" id="p-type-logs"></path><path d="M189.29158471181358,54.56826877673781A197,197,0,0,1,188.80062662846245,56.24342970249874L163.50613891066922,48.708238918328156A170.6070045455344,170.6070045455344,0,0,0,163.93132108304462,47.25750700119213Z" fill-rule="evenodd" style="fill: #1DC690; stroke: #fff; opacity: 1;" id="p-type-logs"></path><path d="M188.80062662846245,56.24342970249874A197,197,0,0,1,188.29484430283767,57.91417450823348L163.06811856789298,50.15514636333534A170.6070045455344,170.6070045455344,0,0,0,163.50613891066922,48.708238918328156Z" fill-rule="evenodd" style="fill: #1DC690; stroke: #fff; opacity: 1;" id="p-type-logs"></path><path d="M188.29484430283767,57.91417450823348A197,197,0,0,1,187.77427744794164,59.58037201044853L162.61729444718486,51.59811572797575A170.6070045455344,170.6070045455344,0,0,0,163.06811856789298,50.15514636333534Z" fill-rule="evenodd" style="fill: #1DC690; stroke: #fff; opacity: 1;" id="p-type-logs"></path><path d="M187.77427744794164,59.58037201044853A197,197,0,0,1,187.23896693762794,61.241891382695435L162.1537019463404,53.03703371322155A170.6070045455344,170.6070045455344,0,0,0,162.61729444718486,51.59811572797575Z" fill-rule="evenodd" style="fill: #1DC690; stroke: #fff; opacity: 1;" id="p-type-logs"></path><path d="M187.23896693762794,61.241891382695435A197,197,0,0,1,186.6889548033922,62.89860216584301L161.67737746570253,54.47178733815096A170.6070045455344,170.6070045455344,0,0,0,162.1537019463404,53.03703371322155Z" fill-rule="evenodd" style="fill: #1DC690; stroke: #fff; opacity: 1;" id="p-type-logs"></path><path d="M186.6889548033922,62.89860216584301A197,197,0,0,1,186.12428423107156,64.55037427832073L161.18835840530335,55.90226394881935A170.6070045455344,170.6070045455344,0,0,0,161.67737746570253,54.47178733815096Z" fill-rule="evenodd" style="fill: #1DC690; stroke: #fff; opacity: 1;" id="p-type-logs"></path><path d="M186.12428423107156,64.55037427832073A197,197,0,0,1,185.5449995574541,66.1970780263325L160.68668316192768,57.3283512271046A170.6070045455344,170.6070045455344,0,0,0,161.18835840530335,55.90226394881935Z" fill-rule="evenodd" style="fill: #1DC690; stroke: #fff; opacity: 1;" id="p-type-logs"></path><path d="M185.5449995574541,66.1970780263325A197,197,0,0,1,184.95114626679754,67.83858411403988L160.1723911260981,58.74993719952599A170.6070045455344,170.6070045455344,0,0,0,160.68668316192768,57.3283512271046Z" fill-rule="evenodd" style="fill: #1DC690; stroke: #fff; opacity: 1;" id="p-type-logs"></path><path d="M184.95114626679754,67.83858411403988A197,197,0,0,1,184.34277098725775,69.4747636537142L159.6455226789822,60.16691024603628A170.6070045455344,170.6070045455344,0,0,0,160.1723911260981,58.74993719952599Z" fill-rule="evenodd" style="fill: #1DC690; stroke: #fff; opacity: 1;" id="p-type-logs"></path><path d="M184.34277098725775,69.4747636537142A197,197,0,0,1,183.71992148722774,71.10548817585656L159.10611918922174,61.57915910878581A170.6070045455344,170.6070045455344,0,0,0,159.6455226789822,60.16691024603628Z" fill-rule="evenodd" style="fill: #1DC690; stroke: #fff; opacity: 1;" id="p-type-logs"></path><path d="M183.71992148722774,71.10548817585656A197,197,0,0,1,183.082646671587,72.73062963928494L158.55422300968485,62.9865729008582A170.6070045455344,170.6070045455344,0,0,0,159.10611918922174,61.57915910878581Z" fill-rule="evenodd" style="fill: #1DC690; stroke: #fff; opacity: 1;" id="p-type-logs"></path><path d="M183.082646671587,72.73062963928494A197,197,0,0,1,182.43099657786152,74.35006044118776L157.98987747414006,64.38904111497705A170.6070045455344,170.6070045455344,0,0,0,158.55422300968485,62.9865729008582Z" fill-rule="evenodd" style="fill: #1DC690; stroke: #fff; opacity: 1;" id="p-type-logs"></path><path d="M182.43099657786152,74.35006044118776A197,197,0,0,1,181.765022372295,75.96365342714303L157.4131268938543,65.7864536321827A170.6070045455344,170.6070045455344,0,0,0,157.98987747414006,64.38904111497705Z" fill-rule="evenodd" style="fill: #1DC690; stroke: #fff; opacity: 1;" id="p-type-logs"></path><path d="M181.765022372295,75.96365342714303A197,197,0,0,1,181.08477634583124,77.57128190110222L156.82401655411329,67.17870073047857A170.6070045455344,170.6070045455344,0,0,0,157.4131268938543,65.7864536321827Z" fill-rule="evenodd" style="fill: #1DC690; stroke: #fff; opacity: 1;" id="p-type-logs"></path><path d="M181.08477634583124,77.57128190110222A197,197,0,0,1,180.39031191000865,79.17281963533817L156.22259271066608,68.56567309344628A170.6070045455344,170.6070045455344,0,0,0,156.82401655411329,67.17870073047857Z" fill-rule="evenodd" style="fill: #1DC690; stroke: #fff; opacity: 1;" id="p-type-logs"></path><path d="M180.39031191000865,79.17281963533817A197,197,0,0,1,179.68168359276615,80.76814088035627L155.60890258609305,69.94726181882896A170.6070045455344,170.6070045455344,0,0,0,156.22259271066608,68.56567309344628Z" fill-rule="evenodd" style="fill: #1DC690; stroke: #fff; opacity: 1;" id="p-type-logs"></path><path d="M179.68168359276615,80.76814088035627A197,197,0,0,1,178.95894703416192,82.357120374768L154.98299436609804,71.32335842708208A170.6070045455344,170.6070045455344,0,0,0,155.60890258609305,69.94726181882896Z" fill-rule="evenodd" style="fill: #1DC690; stroke: #fff; opacity: 1;" id="p-type-logs"></path><path d="M178.95894703416192,82.357120374768A197,197,0,0,1,178.22215898200471,83.93963335512632L154.34491719572503,72.69385486989101A170.6070045455344,170.6070045455344,0,0,0,154.98299436609804,71.32335842708208Z" fill-rule="evenodd" style="fill: #1DC690; stroke: #fff; opacity: 1;" id="p-type-logs"></path><path d="M178.22215898200471,83.93963335512632A197,197,0,0,1,177.471377287398,85.51555556572166L153.69472117549932,74.05864353865469A170.6070045455344,170.6070045455344,0,0,0,154.34491719572503,72.69385486989101Z" fill-rule="evenodd" style="fill: #1DC690; stroke: #fff; opacity: 1;" id="p-type-logs"></path><path d="M177.471377287398,85.51555556572166A197,197,0,0,1,176.70666090019773,87.08476326833835L153.03245735749363,75.41761727293496A170.6070045455344,170.6070045455344,0,0,0,153.69472117549932,74.05864353865469Z" fill-rule="evenodd" style="fill: #1DC690; stroke: #fff; opacity: 1;" id="p-type-logs"></path><path d="M176.70666090019773,87.08476326833835A197,197,0,0,1,175.92806986438356,88.64713325197027L152.3581777413197,76.77066936887049A170.6070045455344,170.6070045455344,0,0,0,153.03245735749363,75.41761727293496Z" fill-rule="evenodd" style="fill: #1DC690; stroke: #fff; opacity: 1;" id="p-type-logs"></path><path d="M175.92806986438356,88.64713325197027A197,197,0,0,1,175.13566531334453,90.20254284249515L151.67193527004548,78.11769358755498A170.6070045455344,170.6070045455344,0,0,0,152.3581777413197,76.77066936887049Z" fill-rule="evenodd" style="fill: #1DC690; stroke: #fff; opacity: 1;" id="p-type-logs"></path><path d="M175.13566531334453,90.20254284249515A197,197,0,0,1,174.32950946507876,91.75086991230665L150.97378382603793,79.45858416337887A170.6070045455344,170.6070045455344,0,0,0,151.67193527004548,78.11769358755498Z" fill-rule="evenodd" style="fill: #1DC690; stroke: #fff; opacity: 1;" id="p-type-logs"></path><path d="M174.32950946507876,91.75086991230665A197,197,0,0,1,173.5096656173084,93.29199288990361L150.26377822673243,80.79323581233376A170.6070045455344,170.6070045455344,0,0,0,150.97378382603793,79.45858416337887Z" fill-rule="evenodd" style="fill: #1DC690; stroke: #fff; opacity: 1;" id="p-type-logs"></path><path d="M173.5096656173084,93.29199288990361A197,197,0,0,1,172.6761981425096,94.82579076943556L149.5419742203286,82.12154374027912A170.6070045455344,170.6070045455344,0,0,0,150.26377822673243,80.79323581233376Z" fill-rule="evenodd" style="fill: #1DC690; stroke: #fff; opacity: 1;" id="p-type-logs"></path><path d="M172.6761981425096,94.82579076943556A197,197,0,0,1,171.82917248285796,96.35214312020386L148.80842848141302,83.44340365117057A170.6070045455344,170.6070045455344,0,0,0,149.5419742203286,82.12154374027912Z" fill-rule="evenodd" style="fill: #1DC690; stroke: #fff; opacity: 1;" id="p-type-logs"></path><path d="M171.82917248285796,96.35214312020386A197,197,0,0,1,170.9686551450904,97.87093009611773L148.06319860650933,84.75871175524892A170.6070045455344,170.6070045455344,0,0,0,148.80842848141302,83.44340365117057Z" fill-rule="evenodd" style="fill: #1DC690; stroke: #fff; opacity: 1;" id="p-type-logs"></path><path d="M170.9686551450904,97.87093009611773A197,197,0,0,1,170.09471369528288,99.38203244510423L147.30634310955583,86.06736477718957A170.6070045455344,170.6070045455344,0,0,0,148.06319860650933,84.75871175524892Z" fill-rule="evenodd" style="fill: #1DC690; stroke: #fff; opacity: 1;" id="p-type-logs"></path><path d="M170.09471369528288,99.38203244510423A197,197,0,0,1,169.20741675354554,100.88533151847179L146.53792141731105,87.36925996421148A170.6070045455344,170.6070045455344,0,0,0,147.30634310955583,86.06736477718957Z" fill-rule="evenodd" style="fill: #1DC690; stroke: #fff; opacity: 1;" id="p-type-logs"></path><path d="M169.20741675354554,100.88533151847179A197,197,0,0,1,168.3068339886346,102.38070928022618L145.75799386468776,88.6642950941451A170.6070045455344,170.6070045455344,0,0,0,146.53792141731105,87.36925996421148Z" fill-rule="evenodd" style="fill: #1DC690; stroke: #fff; opacity: 1;" id="p-type-logs"></path><path d="M168.3068339886346,102.38070928022618A197,197,0,0,1,167.3930361124822,103.86804831633852L144.96662169001553,89.95236848345864A170.6070045455344,170.6070045455344,0,0,0,145.75799386468776,88.6642950941451Z" fill-rule="evenodd" style="fill: #1DC690; stroke: #fff; opacity: 1;" id="p-type-logs"></path><path d="M167.3930361124822,103.86804831633852A197,197,0,0,1,166.46609487464417,105.34723184396431L144.16386703023238,91.23337899524206A170.6070045455344,170.6070045455344,0,0,0,144.96662169001553,89.95236848345864Z" fill-rule="evenodd" style="fill: #1DC690; stroke: #fff; opacity: 1;" id="p-type-logs"></path><path d="M166.46609487464417,105.34723184396431A197,197,0,0,1,165.52608305666647,106.8181437206131L143.34979291600612,92.50722604714815A170.6070045455344,170.6070045455344,0,0,0,144.16386703023238,91.23337899524206Z" fill-rule="evenodd" style="fill: #1DC690; stroke: #fff; opacity: 1;" id="p-type-logs"></path><path d="M165.52608305666647,106.8181437206131A197,197,0,0,1,164.57307446637049,108.28066845326765L142.52446326678498,93.77380961929005A170.6070045455344,170.6070045455344,0,0,0,143.34979291600612,92.50722604714815Z" fill-rule="evenodd" style="fill: #1DC690; stroke: #fff; opacity: 1;" id="p-type-logs"></path><path d="M164.57307446637049,108.28066845326765A197,197,0,0,1,163.60714393205785,109.73469120745229L141.68794288577917,95.03303026209456A170.6070045455344,170.6070045455344,0,0,0,142.52446326678498,93.77380961929005Z" fill-rule="evenodd" style="fill: #1DC690; stroke: #fff; opacity: 1;" id="p-type-logs"></path><path d="M163.60714393205785,109.73469120745229A197,197,0,0,1,162.62836729663496,111.18009781624943L140.84029745487229,96.2847891041108A170.6070045455344,170.6070045455344,0,0,0,141.68794288577917,95.03303026209456Z" fill-rule="evenodd" style="fill: #1DC690; stroke: #fff; opacity: 1;" id="p-type-logs"></path><path d="M162.62836729663496,111.18009781624943A197,197,0,0,1,161.6368214116581,112.61677478926376L139.9815935294644,97.52898785977332A170.6070045455344,170.6070045455344,0,0,0,140.84029745487229,96.2847891041108Z" fill-rule="evenodd" style="fill: #1DC690; stroke: #fff; opacity: 1;" id="p-type-logs"></path><path d="M161.6368214116581,112.61677478926376A197,197,0,0,1,160.63258413129904,114.04460932153323L139.11189853324603,98.76552883711936A170.6070045455344,170.6070045455344,0,0,0,139.9815935294644,97.52898785977332Z" fill-rule="evenodd" style="fill: #1DC690; stroke: #fff; opacity: 1;" id="p-type-logs"></path><path d="M160.63258413129904,114.04460932153323A197,197,0,0,1,159.6157343062322,115.46348930238636L138.2312807529044,99.99431494545935A170.6070045455344,170.6070045455344,0,0,0,139.11189853324603,98.76552883711936Z" fill-rule="evenodd" style="fill: #1DC690; stroke: #fff; opacity: 1;" id="p-type-logs"></path><path d="M159.6157343062322,115.46348930238636A197,197,0,0,1,158.5863517774435,116.87330332424483L137.33980933276155,101.2152497030003A170.6070045455344,170.6070045455344,0,0,0,138.2312807529044,99.99431494545935Z" fill-rule="evenodd" style="fill: #1DC690; stroke: #fff; opacity: 1;" id="p-type-logs"></path><path d="M158.5863517774435,116.87330332424483A197,197,0,0,1,157.54451736996128,118.2739406913711L136.43755426934524,102.4282372444214A170.6070045455344,170.6070045455344,0,0,0,137.33980933276155,101.2152497030003Z" fill-rule="evenodd" style="fill: #1DC690; stroke: #fff; opacity: 1;" id="p-type-logs"></path><path d="M157.54451736996128,118.2739406913711A197,197,0,0,1,156.49031288651014,119.66529142855984L135.52458640589307,103.63318232840105A170.6070045455344,170.6070045455344,0,0,0,136.43755426934524,102.4282372444214Z" fill-rule="evenodd" style="fill: #1DC690; stroke: #fff; opacity: 1;" id="p-type-logs"></path><path d="M156.49031288651014,119.66529142855984A197,197,0,0,1,155.42382110108795,121.04724628977317L134.60097742679005,104.82999034509521A170.6070045455344,170.6070045455344,0,0,0,135.52458640589307,103.63318232840105Z" fill-rule="evenodd" style="fill: #1DC690; stroke: #fff; opacity: 1;" id="p-type-logs"></path><path d="M155.42382110108795,121.04724628977317A197,197,0,0,1,154.34512575246663,122.41969676671832L133.66679985193989,106.01856732356576A170.6070045455344,170.6070045455344,0,0,0,134.60097742679005,104.82999034509521Z" fill-rule="evenodd" style="fill: #1DC690; stroke: #fff; opacity: 1;" id="p-type-logs"></path><path d="M154.34512575246663,122.41969676671832A197,197,0,0,1,153.25431153761713,123.78253509736741L132.722127031071,107.19881993915905A170.6070045455344,170.6070045455344,0,0,0,133.66679985193989,106.01856732356576Z" fill-rule="evenodd" style="fill: #1DC690; stroke: #fff; opacity: 1;" id="p-type-logs"></path><path d="M153.25431153761713,123.78253509736741A197,197,0,0,1,152.15146410505915,125.13565427441891L131.76703313797736,108.37065552083355A170.6070045455344,170.6070045455344,0,0,0,132.722127031071,107.19881993915905Z" fill-rule="evenodd" style="fill: #1DC690; stroke: #fff; opacity: 1;" id="p-type-logs"></path><path d="M152.15146410505915,125.13565427441891A197,197,0,0,1,151.03667004813633,126.47894805369944L130.8015931646943,109.5339820584361A170.6070045455344,170.6070045455344,0,0,0,131.76703313797736,108.37065552083355Z" fill-rule="evenodd" style="fill: #1DC690; stroke: #fff; opacity: 1;" id="p-type-logs"></path><path d="M151.03667004813633,126.47894805369944A197,197,0,0,1,149.91001689821695,127.81231096250592L129.82588291561035,110.68870820992642A170.6070045455344,170.6070045455344,0,0,0,130.8015931646943,109.5339820584361Z" fill-rule="evenodd" style="fill: #1DC690; stroke: #fff; opacity: 1;" id="p-type-logs"></path><path d="M149.91001689821695,127.81231096250592A197,197,0,0,1,148.77159311782123,129.13563830788715L128.83997900151533,111.83474330854919A170.6070045455344,170.6070045455344,0,0,0,129.82588291561035,110.68870820992642Z" fill-rule="evenodd" style="fill: #1DC690; stroke: #fff; opacity: 1;" id="p-type-logs"></path><path d="M148.77159311782123,129.13563830788715A197,197,0,0,1,147.62148809367542,130.44882618486395L127.84395883358496,112.97199736995283A170.6070045455344,170.6070045455344,0,0,0,128.83997900151533,111.83474330854919Z" fill-rule="evenodd" style="fill: #1DC690; stroke: #fff; opacity: 1;" id="p-type-logs"></path><path d="M147.62148809367542,130.44882618486395A197,197,0,0,1,146.45979212969343,131.7517714845876L126.83790061730268,114.10038109925507A170.6070045455344,170.6070045455344,0,0,0,127.84395883358496,112.97199736995283Z" fill-rule="evenodd" style="fill: #1DC690; stroke: #fff; opacity: 1;" id="p-type-logs"></path><path d="M44.29788512029871,191.95493578928574A197,197,0,0,1,42.4247926212234,192.37758957593317L36.74094816026607,166.60387969157452A170.6070045455344,170.6070045455344,0,0,0,38.36309384810337,166.2378507753322Z" fill-rule="evenodd" style="fill: #D7A449; stroke: #fff; opacity: 1;" id="p-type-tokenTransfers"></path><path d="M42.4247926212234,192.37758957593317A197,197,0,0,1,40.71847891219744,192.7459609825247L35.263237141423936,166.9228986877106A170.6070045455344,170.6070045455344,0,0,0,36.74094816026607,166.60387969157452Z" fill-rule="evenodd" style="fill: #D7A449; stroke: #fff; opacity: 1;" id="p-type-tokenTransfers"></path><path d="M40.71847891219744,192.7459609825247A197,197,0,0,1,39.008968070793316,193.09919836719112L33.78275732472306,167.2288112363981A170.6070045455344,170.6070045455344,0,0,0,35.263237141423936,166.9228986877106Z" fill-rule="evenodd" style="fill: #D7A449; stroke: #fff; opacity: 1;" id="p-type-tokenTransfers"></path><path d="M39.008968070793316,193.09919836719112A197,197,0,0,1,37.296394324335054,193.43727399444944L32.29962495443591,167.52159331800416A170.6070045455344,170.6070045455344,0,0,0,33.78275732472306,167.2288112363981Z" fill-rule="evenodd" style="fill: #D7A449; stroke: #fff; opacity: 1;" id="p-type-tokenTransfers"></path><path d="M37.296394324335054,193.43727399444944A197,197,0,0,1,35.580892140639754,193.7601613192871L30.8139564831081,167.80122194387357A170.6070045455344,170.6070045455344,0,0,0,32.29962495443591,167.52159331800416Z" fill-rule="evenodd" style="fill: #D7A449; stroke: #fff; opacity: 1;" id="p-type-tokenTransfers"></path><path d="M35.580892140639754,193.7601613192871A197,197,0,0,1,33.86259621745944,194.06783498924622L29.325868562414712,168.06767515813377A170.6070045455344,170.6070045455344,0,0,0,30.8139564831081,167.80122194387357Z" fill-rule="evenodd" style="fill: #D7A449; stroke: #fff; opacity: 1;" id="p-type-tokenTransfers"></path><path d="M33.86259621745944,194.06783498924622A197,197,0,0,1,32.14164147190493,194.3602708464143L27.835478034001127,168.3209320394188A170.6070045455344,170.6070045455344,0,0,0,29.325868562414712,168.06767515813377Z" fill-rule="evenodd" style="fill: #D7A449; stroke: #fff; opacity: 1;" id="p-type-tokenTransfers"></path><path d="M32.14164147190493,194.3602708464143A197,197,0,0,1,30.41816302985238,194.63744592932093L26.34290192030879,168.560972702512A170.6070045455344,170.6070045455344,0,0,0,27.835478034001127,168.3209320394188Z" fill-rule="evenodd" style="fill: #D7A449; stroke: #fff; opacity: 1;" id="p-type-tokenTransfers"></path><path d="M30.41816302985238,194.63744592932093A197,197,0,0,1,28.692296215333453,194.89933847474074L24.848257415386872,168.78777829990733A170.6070045455344,170.6070045455344,0,0,0,26.34290192030879,168.560972702512Z" fill-rule="evenodd" style="fill: #D7A449; stroke: #fff; opacity: 1;" id="p-type-tokenTransfers"></path><path d="M28.692296215333453,194.89933847474074A197,197,0,0,1,26.964176539909992,195.14592791940234L23.35166187569044,169.00133102328937A170.6070045455344,170.6070045455344,0,0,0,24.848257415386872,168.78777829990733Z" fill-rule="evenodd" style="fill: #D7A449; stroke: #fff; opacity: 1;" id="p-type-tokenTransfers"></path><path d="M26.964176539909992,195.14592791940234A197,197,0,0,1,25.233939692033903,195.37719490160256L21.853232810865833,169.2016141049313A170.6070045455344,170.6070045455344,0,0,0,23.35166187569044,169.00133102328937Z" fill-rule="evenodd" style="fill: #D7A449; stroke: #fff; opacity: 1;" id="p-type-tokenTransfers"></path><path d="M25.233939692033903,195.37719490160256A197,197,0,0,1,23.501721526393183,195.5931212627271L20.35308787452409,169.3886118190119A170.6070045455344,170.6070045455344,0,0,0,21.853232810865833,169.2016141049313Z" fill-rule="evenodd" style="fill: #D7A449; stroke: #fff; opacity: 1;" id="p-type-tokenTransfers"></path><path d="M23.501721526393183,195.5931212627271A197,197,0,0,1,21.767658053244872,195.79369004867598L18.851344855002978,169.56230948284983A170.6070045455344,170.6070045455344,0,0,0,20.35308787452409,169.3886118190119Z" fill-rule="evenodd" style="fill: #D7A449; stroke: #fff; opacity: 1;" id="p-type-tokenTransfers"></path><path d="M21.767658053244872,195.79369004867598A197,197,0,0,1,20.031885427735823,195.97888551119496L17.34812166611853,169.72269345805688A170.6070045455344,170.6070045455344,0,0,0,18.851344855002978,169.56230948284983Z" fill-rule="evenodd" style="fill: #D7A449; stroke: #fff; opacity: 1;" id="p-type-tokenTransfers"></path><path d="M20.031885427735823,195.97888551119496A197,197,0,0,1,18.294539939212065,196.14869310911195L15.843536337906666,169.8697511516086A170.6070045455344,170.6070045455344,0,0,0,17.34812166611853,169.72269345805688Z" fill-rule="evenodd" style="fill: #D7A449; stroke: #fff; opacity: 1;" id="p-type-tokenTransfers"></path><path d="M18.294539939212065,196.14869310911195A197,197,0,0,1,16.555758000517635,196.3030995094787L14.337707007355734,170.00347101683312A170.6070045455344,170.6070045455344,0,0,0,15.843536337906666,169.8697511516086Z" fill-rule="evenodd" style="fill: #D7A449; stroke: #fff; opacity: 1;" id="p-type-tokenTransfers"></path><path d="M16.555758000517635,196.3030995094787A197,197,0,0,1,14.815676137283722,196.4420925886179L12.830751909130608,170.1238425543179A170.6070045455344,170.6070045455344,0,0,0,14.337707007355734,170.00347101683312Z" fill-rule="evenodd" style="fill: #D7A449; stroke: #fff; opacity: 1;" id="p-type-tokenTransfers"></path><path d="M14.815676137283722,196.4420925886179A197,197,0,0,1,13.074430977208964,196.56566143307484L11.322789366289166,170.2308563127339A170.6070045455344,170.6070045455344,0,0,0,12.830751909130608,170.1238425543179Z" fill-rule="evenodd" style="fill: #D7A449; stroke: #fff; opacity: 1;" id="p-type-tokenTransfers"></path><path d="M13.074430977208964,196.56566143307484A197,197,0,0,1,11.332159239331702,196.67379634047447L9.813937780991793,170.32450388957784A170.6070045455344,170.6070045455344,0,0,0,11.322789366289166,170.2308563127339Z" fill-rule="evenodd" style="fill: #D7A449; stroke: #fff; opacity: 1;" id="p-type-tokenTransfers"></path><path d="M11.332159239331702,196.67379634047447A197,197,0,0,1,9.588997723295078,196.76648882028323L8.304315625204683,170.404777931832A170.6070045455344,170.6070045455344,0,0,0,9.813937780991793,170.32450388957784Z" fill-rule="evenodd" style="fill: #D7A449; stroke: #fff; opacity: 1;" id="p-type-tokenTransfers"></path><path d="M9.588997723295078,196.76648882028323A197,197,0,0,1,7.845083298605821,196.84373159447557L6.794041431397662,170.47167213654134A170.6070045455344,170.6070045455344,0,0,0,8.304315625204683,170.404777931832Z" fill-rule="evenodd" style="fill: #D7A449; stroke: #fff; opacity: 1;" id="p-type-tokenTransfers"></path><path d="M7.845083298605821,196.84373159447557A197,197,0,0,1,6.100552893887514,196.90551859810554L5.28323378323726,170.52518125130862A170.6070045455344,170.6070045455344,0,0,0,6.794041431397662,170.47167213654134Z" fill-rule="evenodd" style="fill: #D7A449; stroke: #fff; opacity: 1;" id="p-type-tokenTransfers"></path><path d="M6.100552893887514,196.90551859810554A197,197,0,0,1,4.355543486129243,196.9518449797829L3.772011306275759,170.56530107470664A170.6070045455344,170.6070045455344,0,0,0,5.28323378323726,170.52518125130862Z" fill-rule="evenodd" style="fill: #D7A449; stroke: #fff; opacity: 1;" id="p-type-tokenTransfers"></path><path d="M4.355543486129243,196.9518449797829A197,197,0,0,1,2.6101920899304423,196.98270710205418L2.260492658636959,170.5920284566083A170.6070045455344,170.6070045455344,0,0,0,3.772011306275759,170.56530107470664Z" fill-rule="evenodd" style="fill: #D7A449; stroke: #fff; opacity: 1;" id="p-type-tokenTransfers"></path><path d="M2.6101920899304423,196.98270710205418A197,197,0,0,1,0.864635746742784,196.9981025416881L0.7487965216993792,170.60536129843368A170.6070045455344,170.6070045455344,0,0,0,2.260492658636959,170.5920284566083Z" fill-rule="evenodd" style="fill: #D7A449; stroke: #fff; opacity: 1;" id="p-type-tokenTransfers"></path><path d="M0.864635746742784,196.9981025416881A197,197,0,0,1,-0.8809884858900366,196.99803008986595L-0.7629584092223602,170.60529855331515A170.6070045455344,170.6070045455344,0,0,0,0.7487965216993792,170.60536129843368Z" fill-rule="evenodd" style="fill: #D7A449; stroke: #fff; opacity: 1;" id="p-type-tokenTransfers"></path><path d="M-0.8809884858900366,196.99803008986595A197,197,0,0,1,-2.6265435450937837,196.9824897522765L-2.274653434197255,170.5918402261793A170.6070045455344,170.6070045455344,0,0,0,-0.7629584092223602,170.60529855331515Z" fill-rule="evenodd" style="fill: #D7A449; stroke: #fff; opacity: 1;" id="p-type-tokenTransfers"></path><path d="M-2.6265435450937837,196.9824897522765A197,197,0,0,1,-4.371892373425579,196.9514827491156L-3.786169857997995,170.56498737374673A170.6070045455344,170.6070045455344,0,0,0,-2.274653434197255,170.5918402261793Z" fill-rule="evenodd" style="fill: #D7A449; stroke: #fff; opacity: 1;" id="p-type-tokenTransfers"></path><path d="M-4.371892373425579,196.9514827491156A197,197,0,0,1,-6.116897929635373,196.9050115149902L-5.29738899942067,170.52474210444893A170.6070045455344,170.6070045455344,0,0,0,-3.786169857997995,170.56498737374673Z" fill-rule="evenodd" style="fill: #D7A449; stroke: #fff; opacity: 1;" id="p-type-tokenTransfers"></path><path d="M-6.116897929635373,196.9050115149902A197,197,0,0,1,-7.861423199426148,196.84307969872734L-6.808192200603383,170.47110757826277A170.6070045455344,170.6070045455344,0,0,0,-5.29738899942067,170.52474210444893Z" fill-rule="evenodd" style="fill: #D7A449; stroke: #fff; opacity: 1;" id="p-type-tokenTransfers"></path><path d="M-7.861423199426148,196.84307969872734A197,197,0,0,1,-9.605331206212,196.76569216308764L-8.318460836343016,170.40408800646253A170.6070045455344,170.6070045455344,0,0,0,-6.808192200603383,170.47110757826277Z" fill-rule="evenodd" style="fill: #D7A449; stroke: #fff; opacity: 1;" id="p-type-tokenTransfers"></path><path d="M-9.605331206212,196.76569216308764A197,197,0,0,1,-11.348485021873268,196.67285498438343L-9.82807632340945,170.32368865128902A170.6070045455344,170.6070045455344,0,0,0,-8.318460836343016,170.40408800646253Z" fill-rule="evenodd" style="fill: #D7A449; stroke: #fff; opacity: 1;" id="p-type-tokenTransfers"></path><path d="M-11.348485021873268,196.67285498438343A197,197,0,0,1,-13.090747777507842,196.5645754520017L-11.336920129856471,170.22991582553652A170.6070045455344,170.6070045455344,0,0,0,-9.82807632340945,170.32368865128902Z" fill-rule="evenodd" style="fill: #D7A449; stroke: #fff; opacity: 1;" id="p-type-tokenTransfers"></path><path d="M-13.090747777507842,196.5645754520017A197,197,0,0,1,-14.831982674177846,196.44086206783172L-12.844873784328666,170.12277689205717A170.6070045455344,170.6070045455344,0,0,0,-11.336920129856471,170.22991582553652Z" fill-rule="evenodd" style="fill: #D7A449; stroke: #fff; opacity: 1;" id="p-type-tokenTransfers"></path><path d="M-14.831982674177846,196.44086206783172A197,197,0,0,1,-16.5720529936508,196.3017245455975L-14.351818885363548,170.0022802631827A170.6070045455344,170.6070045455344,0,0,0,-12.844873784328666,170.12277689205717Z" fill-rule="evenodd" style="fill: #D7A449; stroke: #fff; opacity: 1;" id="p-type-tokenTransfers"></path><path d="M-16.5720529936508,196.3017245455975A197,197,0,0,1,-18.310822109134463,196.14717381009504L-15.8576371106882,169.86843540006402A170.6070045455344,170.6070045455344,0,0,0,-14.351818885363548,170.0022802631827Z" fill-rule="evenodd" style="fill: #D7A449; stroke: #fff; opacity: 1;" id="p-type-tokenTransfers"></path><path d="M-18.310822109134463,196.14717381009504A197,197,0,0,1,-20.0481534960045,195.97722199633466L-17.3622102265097,169.7212528119283A170.6070045455344,170.6070045455344,0,0,0,-15.8576371106882,169.86843540006402Z" fill-rule="evenodd" style="fill: #D7A449; stroke: #fff; opacity: 1;" id="p-type-tokenTransfers"></path><path d="M-20.0481534960045,195.97722199633466A197,197,0,0,1,-21.783910742524096,195.7918824485881L-18.865420096798598,169.56074405525385A170.6070045455344,170.6070045455344,0,0,0,-17.3622102265097,169.7212528119283Z" fill-rule="evenodd" style="fill: #D7A449; stroke: #fff; opacity: 1;" id="p-type-tokenTransfers"></path><path d="M-21.783910742524096,195.7918824485881A197,197,0,0,1,-23.517957560554752,195.5911697193407L-20.367148692564722,169.3869217328627A170.6070045455344,170.6070045455344,0,0,0,-18.865420096798598,169.56074405525385Z" fill-rule="evenodd" style="fill: #D7A449; stroke: #fff; opacity: 1;" id="p-type-tokenTransfers"></path><path d="M-23.517957560554752,195.5911697193407A197,197,0,0,1,-25.250157796257355,195.37509956814893L-21.867278101124565,169.19979949293108A170.6070045455344,170.6070045455344,0,0,0,-20.367148692564722,169.3869217328627Z" fill-rule="evenodd" style="fill: #D7A449; stroke: #fff; opacity: 1;" id="p-type-tokenTransfers"></path><path d="M-25.250157796257355,195.37509956814893A197,197,0,0,1,-26.98037544078267,195.14368896040273L-23.365690535359562,168.99939202791768A170.6070045455344,170.6070045455344,0,0,0,-21.867278101124565,169.19979949293108Z" fill-rule="evenodd" style="fill: #D7A449; stroke: #fff; opacity: 1;" id="p-type-tokenTransfers"></path><path d="M-26.98037544078267,195.14368896040273A197,197,0,0,1,-28.708474640950516,194.89695606599378L-24.862268342964487,168.78571507341024A170.6070045455344,170.6070045455344,0,0,0,-23.365690535359562,168.99939202791768Z" fill-rule="evenodd" style="fill: #D7A449; stroke: #fff; opacity: 1;" id="p-type-tokenTransfers"></path><path d="M-28.708474640950516,194.89695606599378A197,197,0,0,1,-30.43431970991666,194.6349202578884L-26.356894015685278,168.55878540688983A170.6070045455344,170.6070045455344,0,0,0,-24.862268342964487,168.78571507341024Z" fill-rule="evenodd" style="fill: #D7A449; stroke: #fff; opacity: 1;" id="p-type-tokenTransfers"></path><path d="M-30.43431970991666,194.6349202578884A197,197,0,0,1,-32.15777513782669,194.35760211060688L-27.84945019854554,168.31862084641358A170.6070045455344,170.6070045455344,0,0,0,-26.356894015685278,168.55878540688983Z" fill-rule="evenodd" style="fill: #D7A449; stroke: #fff; opacity: 1;" id="p-type-tokenTransfers"></path><path d="M-32.15777513782669,194.35760211060688A197,197,0,0,1,-33.878705602455945,194.06502339860762L-29.339819699061028,168.0652402492157A170.6070045455344,170.6070045455344,0,0,0,-27.84945019854554,168.31862084641358Z" fill-rule="evenodd" style="fill: #D7A449; stroke: #fff; opacity: 1;" id="p-type-tokenTransfers"></path><path d="M-33.878705602455945,194.06502339860762A197,197,0,0,1,-35.59697597983476,193.7572070945777L-30.82788549644136,167.79866351022673A170.6070045455344,170.6070045455344,0,0,0,-29.339819699061028,168.0652402492157Z" fill-rule="evenodd" style="fill: #D7A449; stroke: #fff; opacity: 1;" id="p-type-tokenTransfers"></path><path d="M-35.59697597983476,193.7572070945777A197,197,0,0,1,-37.31245135485814,193.434177367629L-32.31353075077825,167.5189115605116A170.6070045455344,170.6070045455344,0,0,0,-30.82788549644136,167.79866351022673Z" fill-rule="evenodd" style="fill: #D7A449; stroke: #fff; opacity: 1;" id="p-type-tokenTransfers"></path><path d="M-37.31245135485814,193.434177367629A197,197,0,0,1,-39.02499703187901,193.09595958140045L-33.79663881221954,167.22600636562598A170.6070045455344,170.6070045455344,0,0,0,-32.31353075077825,167.5189115605116Z" fill-rule="evenodd" style="fill: #D7A449; stroke: #fff; opacity: 1;" id="p-type-tokenTransfers"></path><path d="M-115.2236819401005,159.78893303407017A197,197,0,0,1,-137.98917110805246,140.59867942805374L-119.50212762673112,121.76202812323909A170.6070045455344,170.6070045455344,0,0,0,-99.78663567770528,138.38127525111523Z" fill-rule="evenodd" style="fill: #414552; stroke: #fff; opacity: 1;" id="p-type-ether"></path><path d="M-137.98917110805246,140.59867942805374A197,197,0,0,1,-141.6775400518398,136.88124285255205L-122.69634883058053,118.54263361189719A170.6070045455344,170.6070045455344,0,0,0,-119.50212762673112,121.76202812323909Z" fill-rule="evenodd" style="fill: #414552; stroke: #fff; opacity: 1;" id="p-type-ether"></path><path d="M-141.6775400518398,136.88124285255205A197,197,0,0,1,-145.02082580523572,133.3340169752921L-125.591719225132,115.47064588922852A170.6070045455344,170.6070045455344,0,0,0,-122.69634883058053,118.54263361189719Z" fill-rule="evenodd" style="fill: #414552; stroke: #fff; opacity: 1;" id="p-type-ether"></path><path d="M-145.02082580523572,133.3340169752921A197,197,0,0,1,-148.1641007732699,129.83219647702307L-128.3138751985293,112.43798037823449A170.6070045455344,170.6070045455344,0,0,0,-125.591719225132,115.47064588922852Z" fill-rule="evenodd" style="fill: #414552; stroke: #fff; opacity: 1;" id="p-type-ether"></path><path d="M-148.1641007732699,129.83219647702307A197,197,0,0,1,-150.02816477239162,127.6736064150618L-129.92820197604874,110.56858654821939A170.6070045455344,170.6070045455344,0,0,0,-128.3138751985293,112.43798037823449Z" fill-rule="evenodd" style="fill: #414552; stroke: #fff; opacity: 1;" id="p-type-ether"></path><path d="M-150.02816477239162,127.6736064150618A197,197,0,0,1,-151.68530680055747,125.70030907209717L-131.36332907011925,108.85966091999168A170.6070045455344,170.6070045455344,0,0,0,-129.92820197604874,110.56858654821939Z" fill-rule="evenodd" style="fill: #414552; stroke: #fff; opacity: 1;" id="p-type-ether"></path><path d="M-151.68530680055747,125.70030907209717A197,197,0,0,1,-152.90330441448248,124.21585848486536L-132.41814594552713,107.57408900078622A170.6070045455344,170.6070045455344,0,0,0,-131.36332907011925,108.85966091999168Z" fill-rule="evenodd" style="fill: #414552; stroke: #fff; opacity: 1;" id="p-type-ether"></path><path d="M-152.90330441448248,124.21585848486536A197,197,0,0,1,-153.78000312778772,123.12883755651067L-133.1773893027146,106.63270126238571A170.6070045455344,170.6070045455344,0,0,0,-132.41814594552713,107.57408900078622Z" fill-rule="evenodd" style="fill: #414552; stroke: #fff; opacity: 1;" id="p-type-ether"></path></g></svg>