<svg xmlns="http://www.w3.org/2000/svg" width="400" height="400"><g id="container" transform="translate(200,200)"><circle r="200" style="fill: #f9f9f9; stroke: #f9f9f9; opacity: 1;"></circle><path display="none" d="M7.070501591499379e-15,-115.47005383792515A115.47005383792515,115.47005383792515,0,1,1,-7.070501591499379e-15,115.47005383792515A115.47005383792515,115.47005383792515,0,1,1,7.070501591499379e-15,-115.47005383792515Z" fill-rule="evenodd" style="stroke: #fff; opacity: 1;"></path><path d="M9.999199243478977e-15,-163.29931618554522A163.29931618554522,163.29931618554522,0,1,1,-1.339462608892503,-163.29382262224757L-0.9471430938937131,-115.4661693020645A115.47005383792515,115.47005383792515,0,1,0,7.070501591499379e-15,-115.47005383792515Z" fill-rule="evenodd" style="fill: #6c7074; stroke: #fff; opacity: 1;"></path><path d="M1.2246467991473532e-14,-200A200,200,0,0,1,199.9579499035986,-4.101008455239737L163.2649824256058,-3.3484593820589406A163.29931618554522,163.29931618554522,0,0,0,9.999199243478977e-15,-163.29931618554522Z" fill-rule="evenodd" style="fill: #f44336; stroke: #fff; opacity: 1;"></path><path d="M199.9579499035986,-4.101008455239737A200,200,0,0,1,48.720350531243305,193.97506913032092L39.779999630360486,158.37998073012633A163.29931618554522,163.29931618554522,0,0,0,163.2649824256058,-3.3484593820589406Z" fill-rule="evenodd" style="fill: #6bbc80; stroke: #fff; opacity: 1;"></path><path d="M48.720350531243305,193.97506913032092A200,200,0,0,1,-169.2512592743426,106.55520275448431L-138.19307451521283,87.00195872909707A163.29931618554522,163.29931618554522,0,0,0,39.779999630360486,158.37998073012633Z" fill-rule="evenodd" style="fill: #B3DAEF; stroke: #fff; opacity: 1;"></path><path d="M-169.2512592743426,106.55520275448431A200,200,0,0,1,-196.89791830978749,35.088598793229906L-160.7664770917282,28.649720944216952A163.29931618554522,163.29931618554522,0,0,0,-138.19307451521283,87.00195872909707Z" fill-rule="evenodd" style="fill: b3daef; stroke: #fff; opacity: 1;"></path></g></svg>