<svg xmlns="http://www.w3.org/2000/svg" width="400" height="400" id="block-7901134"><g id="burst-container" transform="translate(200,200)"><circle r="197" style="fill: #f9f9f9; stroke: #f9f9f9; stroke-width: 3; opacity: 1;" id="circle-base"></circle><path display="none" d="M6.031385485800715e-15,-98.5A98.5,98.5,0,1,1,-6.031385485800715e-15,98.5A98.5,98.5,0,1,1,6.031385485800715e-15,-98.5Z" fill-rule="evenodd" id="p-type-root" style="stroke: #fff; opacity: 1;"></path><path d="M8.529667153919608e-15,-139.30003589374985A139.30003589374985,139.30003589374985,0,1,1,-39.8338176943738,-133.48320856156923L-28.1667626122404,-94.38688194842383A98.5,98.5,0,1,0,6.031385485800715e-15,-98.5Z" fill-rule="evenodd" style="fill: #0B1F65; stroke: #fff; opacity: 1;" id="p-type-data"></path><path d="M-39.8338176943738,-133.48320856156923A139.30003589374985,139.30003589374985,0,0,1,-1.2058864828839457,-139.29481626317036L-0.8526905093884337,-98.49630916382196A98.5,98.5,0,0,0,-28.1667626122404,-94.38688194842383Z" fill-rule="evenodd" style="fill: #D7A449; stroke: #fff; opacity: 1;" id="p-type-value"></path><path d="M1.0446666101440332e-14,-170.6070045455344A170.6070045455344,170.6070045455344,0,0,1,82.034701756746,149.5896310165973L66.98105350180883,122.1394222672918A139.30003589374985,139.30003589374985,0,0,0,8.529667153919608e-15,-139.30003589374985Z" fill-rule="evenodd" style="fill: #DB3F29; stroke: #fff; opacity: 1;" id="p-type-functions"></path><path d="M82.034701756746,149.5896310165973A170.6070045455344,170.6070045455344,0,0,1,-159.99828347769133,-59.22245591152332L-130.63805141384003,-48.354932765901786A139.30003589374985,139.30003589374985,0,0,0,66.98105350180883,122.1394222672918Z" fill-rule="evenodd" style="fill: #414552; stroke: #fff; opacity: 1;" id="p-type-ether"></path><path d="M-159.99828347769133,-59.22245591152332A170.6070045455344,170.6070045455344,0,0,1,-127.50083133331292,-113.35911083505414L-104.10399284909268,-92.55732641382885A139.30003589374985,139.30003589374985,0,0,0,-130.63805141384003,-48.354932765901786Z" fill-rule="evenodd" style="fill: #1DC690; stroke: #fff; opacity: 1;" id="p-type-logs"></path><path d="M-127.50083133331292,-113.35911083505414A170.6070045455344,170.6070045455344,0,0,1,-98.98501542785803,-138.9558085174805L-80.82092665992428,-113.45694255457062A139.30003589374985,139.30003589374985,0,0,0,-104.10399284909268,-92.55732641382885Z" fill-rule="evenodd" style="fill: #D7A449; stroke: #fff; opacity: 1;" id="p-type-tokenTransfers"></path><path d="M-48.78626392913185,-163.48287510267576A170.6070045455344,170.6070045455344,0,0,1,-22.091619581800874,-169.17065450087077L-18.037731855696414,-138.1272609932666A139.30003589374985,139.30003589374985,0,0,0,-39.8338176943738,-133.48320856156923Z" fill-rule="evenodd" style="fill: #414552; stroke: #fff; opacity: 1;" id="p-type-ether"></path><path d="M-22.091619581800874,-169.17065450087077A170.6070045455344,170.6070045455344,0,0,1,-2.953695890418027,-170.5814341614788L-2.4116825956265946,-139.27915776259545A139.30003589374985,139.30003589374985,0,0,0,-18.037731855696414,-138.1272609932666Z" fill-rule="evenodd" style="fill: #D7A449; stroke: #fff; opacity: 1;" id="p-type-tokenTransfers"></path><path d="M1.206277097160143e-14,-197A197,197,0,0,1,183.4925999669254,-71.69006735509377L158.90925297781305,-62.08541952852869A170.6070045455344,170.6070045455344,0,0,0,1.0446666101440332e-14,-170.6070045455344Z" fill-rule="evenodd" style="fill: #DB3F29; stroke: #fff; opacity: 1;" id="p-type-functions"></path><path d="M183.4925999669254,-71.69006735509377A197,197,0,0,1,157.10146971286193,118.86180300693208L136.05386374321,102.93734094362476A170.6070045455344,170.6070045455344,0,0,0,158.90925297781305,-62.08541952852869Z" fill-rule="evenodd" style="fill: #DB3F29; stroke: #fff; opacity: 1;" id="p-type-functions"></path><path d="M94.72551428429594,172.7312274708185A197,197,0,0,1,-126.41636307011079,151.08905700985073L-109.4797818727529,130.84696160436604A170.6070045455344,170.6070045455344,0,0,0,82.034701756746,149.5896310165973Z" fill-rule="evenodd" style="fill: #414552; stroke: #fff; opacity: 1;" id="p-type-ether"></path><path d="M-126.41636307011079,151.08905700985073A197,197,0,0,1,-194.9013965460029,-28.67831278889551L-168.78956064190317,-24.836147412859663A170.6070045455344,170.6070045455344,0,0,0,-109.4797818727529,130.84696160436604Z" fill-rule="evenodd" style="fill: #414552; stroke: #fff; opacity: 1;" id="p-type-ether"></path><path d="M-194.9013965460029,-28.67831278889551A197,197,0,0,1,-194.512581738717,-31.20665866988876L-168.452837141426,-27.025759175353567A170.6070045455344,170.6070045455344,0,0,0,-168.78956064190317,-24.836147412859663Z" fill-rule="evenodd" style="fill: #414552; stroke: #fff; opacity: 1;" id="p-type-ether"></path><path d="M-194.512581738717,-31.20665866988876A197,197,0,0,1,-194.12875084598917,-33.51161134555987L-168.12042983756646,-29.021906747005662A170.6070045455344,170.6070045455344,0,0,0,-168.452837141426,-27.025759175353567Z" fill-rule="evenodd" style="fill: #414552; stroke: #fff; opacity: 1;" id="p-type-ether"></path><path d="M-194.12875084598917,-33.51161134555987A197,197,0,0,1,-193.9361831387071,-34.6086242082787L-167.95366131111166,-29.971947754398457A170.6070045455344,170.6070045455344,0,0,0,-168.12042983756646,-29.021906747005662Z" fill-rule="evenodd" style="fill: #414552; stroke: #fff; opacity: 1;" id="p-type-ether"></path></g></svg>