<svg xmlns="http://www.w3.org/2000/svg" width="400" height="400"><g id="container" transform="translate(200,200)"><circle r="200" style="fill: #f9f9f9; stroke: #f9f9f9; opacity: 1;"></circle><path display="none" d="M7.070501591499379e-15,-115.47005383792515A115.47005383792515,115.47005383792515,0,1,1,-7.070501591499379e-15,115.47005383792515A115.47005383792515,115.47005383792515,0,1,1,7.070501591499379e-15,-115.47005383792515Z" fill-rule="evenodd" style="stroke: #fff; opacity: 1;"></path><path d="M9.999199243478977e-15,-163.29931618554522A163.29931618554522,163.29931618554522,0,1,1,-3.1961817666019248,-163.26803449782054L-2.2600418010690198,-115.44793434440805A115.47005383792515,115.47005383792515,0,1,0,7.070501591499379e-15,-115.47005383792515Z" fill-rule="evenodd" style="fill: #6c7074; stroke: #fff; opacity: 1;"></path><path d="M1.2246467991473532e-14,-200A200,200,0,0,1,199.97844915025212,2.9359624418633072L163.28171999040998,2.3972032955136084A163.29931618554522,163.29931618554522,0,0,0,9.999199243478977e-15,-163.29931618554522Z" fill-rule="evenodd" style="fill: #f44336; stroke: #fff; opacity: 1;"></path><path d="M199.97844915025212,2.9359624418633072A200,200,0,0,1,59.75212158618353,190.8656175584014L48.787402978296626,155.84112415309372A163.29931618554522,163.29931618554522,0,0,0,163.28171999040998,2.3972032955136084Z" fill-rule="evenodd" style="fill: #6bbc80; stroke: #fff; opacity: 1;"></path><path d="M59.75212158618353,190.8656175584014A200,200,0,0,1,-109.17392891150044,167.57402318386536L-89.14013968268674,136.82361698192958A163.29931618554522,163.29931618554522,0,0,0,48.787402978296626,155.84112415309372Z" fill-rule="evenodd" style="fill: #B3DAEF; stroke: #fff; opacity: 1;"></path><path d="M-109.17392891150044,167.57402318386536A200,200,0,0,1,-188.04985124034266,68.0973820971482L-153.5420605817073,55.60127965245045A163.29931618554522,163.29931618554522,0,0,0,-89.14013968268674,136.82361698192958Z" fill-rule="evenodd" style="fill: b3daef; stroke: #fff; opacity: 1;"></path></g></svg>