<svg xmlns="http://www.w3.org/2000/svg" width="400" height="400" id="block-7901150"><g id="burst-container" transform="translate(200,200)"><circle r="197" style="fill: #f9f9f9; stroke: #f9f9f9; stroke-width: 3; opacity: 1;" id="circle-base"></circle><path display="none" d="M6.031385485800715e-15,-98.5A98.5,98.5,0,1,1,-6.031385485800715e-15,98.5A98.5,98.5,0,1,1,6.031385485800715e-15,-98.5Z" fill-rule="evenodd" id="p-type-root" style="stroke: #fff; opacity: 1;"></path><path d="M8.529667153919608e-15,-139.30003589374985A139.30003589374985,139.30003589374985,0,1,1,-76.32600737595605,-116.52828239550044L-53.97063739643298,-82.39793868187935A98.5,98.5,0,1,0,6.031385485800715e-15,-98.5Z" fill-rule="evenodd" style="fill: #0B1F65; stroke: #fff; opacity: 1;" id="p-type-data"></path><path d="M-76.32600737595605,-116.52828239550044A139.30003589374985,139.30003589374985,0,0,1,-1.0628526758708763,-139.29598107694778L-0.7515503345105644,-98.49713281154278A98.5,98.5,0,0,0,-53.97063739643298,-82.39793868187935Z" fill-rule="evenodd" style="fill: #D7A449; stroke: #fff; opacity: 1;" id="p-type-value"></path><path d="M1.0446666101440332e-14,-170.6070045455344A170.6070045455344,170.6070045455344,0,0,1,131.6304815101831,108.53647468661099L107.47583809893474,88.61966048756655A139.30003589374985,139.30003589374985,0,0,0,8.529667153919608e-15,-139.30003589374985Z" fill-rule="evenodd" style="fill: #414552; stroke: #fff; opacity: 1;" id="p-type-ether"></path><path d="M131.6304815101831,108.53647468661099A170.6070045455344,170.6070045455344,0,0,1,-69.79853488502486,155.67567095697376L-56.99026508738741,127.10865306999877A139.30003589374985,139.30003589374985,0,0,0,107.47583809893474,88.61966048756655Z" fill-rule="evenodd" style="fill: #DB3F29; stroke: #fff; opacity: 1;" id="p-type-functions"></path><path d="M-69.79853488502486,155.67567095697376A170.6070045455344,170.6070045455344,0,0,1,-160.3712036503146,58.20504307832196L-130.94253945974592,47.52421866620088A139.30003589374985,139.30003589374985,0,0,0,-56.99026508738741,127.10865306999877Z" fill-rule="evenodd" style="fill: #1DC690; stroke: #fff; opacity: 1;" id="p-type-logs"></path><path d="M-160.3712036503146,58.20504307832196A170.6070045455344,170.6070045455344,0,0,1,-159.58401844356985,-60.329852124817556L-130.29980542988196,-49.25911798778884A139.30003589374985,139.30003589374985,0,0,0,-130.94253945974592,47.52421866620088Z" fill-rule="evenodd" style="fill: #D7A449; stroke: #fff; opacity: 1;" id="p-type-tokenTransfers"></path><path d="M-93.47988608749878,-142.71741623595997A170.6070045455344,170.6070045455344,0,0,1,-38.07777490088878,-166.30343670110142L-31.09037301591127,-135.7861874629798A139.30003589374985,139.30003589374985,0,0,0,-76.32600737595605,-116.52828239550044Z" fill-rule="evenodd" style="fill: #D7A449; stroke: #fff; opacity: 1;" id="p-type-tokenTransfers"></path><path d="M-38.07777490088878,-166.30343670110142A170.6070045455344,170.6070045455344,0,0,1,-2.603370945174355,-170.58714037031578L-2.1256434756214433,-139.2838168626009A139.30003589374985,139.30003589374985,0,0,0,-31.09037301591127,-135.7861874629798Z" fill-rule="evenodd" style="fill: #414552; stroke: #fff; opacity: 1;" id="p-type-ether"></path><path d="M1.206277097160143e-14,-197A197,197,0,0,1,194.50755328102252,-31.23798515637934L168.44848236932074,-27.05288870846572A170.6070045455344,170.6070045455344,0,0,0,1.0446666101440332e-14,-170.6070045455344Z" fill-rule="evenodd" style="fill: #414552; stroke: #fff; opacity: 1;" id="p-type-ether"></path><path d="M194.50755328102252,-31.23798515637934A197,197,0,0,1,196.78160364601976,-9.273643647498085L170.41786775489362,-8.031210984377523A170.6070045455344,170.6070045455344,0,0,0,168.44848236932074,-27.05288870846572Z" fill-rule="evenodd" style="fill: #414552; stroke: #fff; opacity: 1;" id="p-type-ether"></path><path d="M196.78160364601976,-9.273643647498085A197,197,0,0,1,196.9832694413875,2.567403392872547L170.59251545675647,2.223436559989985A170.6070045455344,170.6070045455344,0,0,0,170.41786775489362,-8.031210984377523Z" fill-rule="evenodd" style="fill: #414552; stroke: #fff; opacity: 1;" id="p-type-ether"></path><path d="M196.9832694413875,2.567403392872547A197,197,0,0,1,196.50123991347658,14.009379446153778L170.17506564021141,12.13247849162474A170.6070045455344,170.6070045455344,0,0,0,170.59251545675647,2.223436559989985Z" fill-rule="evenodd" style="fill: #414552; stroke: #fff; opacity: 1;" id="p-type-ether"></path><path d="M196.50123991347658,14.009379446153778A197,197,0,0,1,195.49362115272584,24.315511275613737L169.30244219607147,21.057850470688457A170.6070045455344,170.6070045455344,0,0,0,170.17506564021141,12.13247849162474Z" fill-rule="evenodd" style="fill: #414552; stroke: #fff; opacity: 1;" id="p-type-ether"></path><path d="M195.49362115272584,24.315511275613737A197,197,0,0,1,194.0607549637888,33.90314709410191L168.0615436762282,29.360986651732823A170.6070045455344,170.6070045455344,0,0,0,169.30244219607147,21.057850470688457Z" fill-rule="evenodd" style="fill: #414552; stroke: #fff; opacity: 1;" id="p-type-ether"></path><path d="M194.0607549637888,33.90314709410191A197,197,0,0,1,192.1877348336174,43.27672098857715L166.43946066170014,37.47873976859902A170.6070045455344,170.6070045455344,0,0,0,168.0615436762282,29.360986651732823Z" fill-rule="evenodd" style="fill: #414552; stroke: #fff; opacity: 1;" id="p-type-ether"></path><path d="M192.1877348336174,43.27672098857715A197,197,0,0,1,189.86677701946755,52.531961549515614L164.42945223353436,45.494013212507866A170.6070045455344,170.6070045455344,0,0,0,166.43946066170014,37.47873976859902Z" fill-rule="evenodd" style="fill: #414552; stroke: #fff; opacity: 1;" id="p-type-ether"></path><path d="M189.86677701946755,52.531961549515614A197,197,0,0,1,187.45216233523183,60.586193442449385L162.33833457663528,52.46918263975933A170.6070045455344,170.6070045455344,0,0,0,164.42945223353436,45.494013212507866Z" fill-rule="evenodd" style="fill: #414552; stroke: #fff; opacity: 1;" id="p-type-ether"></path><path d="M187.45216233523183,60.586193442449385A197,197,0,0,1,185.15937733564826,67.26815728615607L160.35272452158,58.25593307557843A170.6070045455344,170.6070045455344,0,0,0,162.33833457663528,52.46918263975933Z" fill-rule="evenodd" style="fill: #414552; stroke: #fff; opacity: 1;" id="p-type-ether"></path><path d="M185.15937733564826,67.26815728615607A197,197,0,0,1,182.74103934973004,73.58473032756467L158.25838239083794,63.72624579429822A170.6070045455344,170.6070045455344,0,0,0,160.35272452158,58.25593307557843Z" fill-rule="evenodd" style="fill: #414552; stroke: #fff; opacity: 1;" id="p-type-ether"></path><path d="M182.74103934973004,73.58473032756467A197,197,0,0,1,181.4123937607607,76.80197516985304L157.10774155816435,66.5124615579144A170.6070045455344,170.6070045455344,0,0,0,158.25838239083794,63.72624579429822Z" fill-rule="evenodd" style="fill: #414552; stroke: #fff; opacity: 1;" id="p-type-ether"></path><path d="M181.4123937607607,76.80197516985304A197,197,0,0,1,180.11229832358757,79.80325803245755L155.98182588222818,69.1116487608728A170.6070045455344,170.6070045455344,0,0,0,157.10774155816435,66.5124615579144Z" fill-rule="evenodd" style="fill: #414552; stroke: #fff; opacity: 1;" id="p-type-ether"></path><path d="M180.11229832358757,79.80325803245755A197,197,0,0,1,179.2774944976699,81.6613737738837L155.25886456180703,70.7208241961196A170.6070045455344,170.6070045455344,0,0,0,155.98182588222818,69.1116487608728Z" fill-rule="evenodd" style="fill: #414552; stroke: #fff; opacity: 1;" id="p-type-ether"></path><path d="M179.2774944976699,81.6613737738837A197,197,0,0,1,178.59468435990655,83.14408408531155L154.66753363654243,72.00488899226924A170.6070045455344,170.6070045455344,0,0,0,155.25886456180703,70.7208241961196Z" fill-rule="evenodd" style="fill: #414552; stroke: #fff; opacity: 1;" id="p-type-ether"></path><path d="M178.59468435990655,83.14408408531155A197,197,0,0,1,177.96154749605134,84.49075459960493L154.1192210283714,73.17113986817478A170.6070045455344,170.6070045455344,0,0,0,154.66753363654243,72.00488899226924Z" fill-rule="evenodd" style="fill: #414552; stroke: #fff; opacity: 1;" id="p-type-ether"></path><path d="M151.99378786692853,125.32712575441572A197,197,0,0,1,144.1884387702827,134.23372946092363L124.87085090708187,116.24981975788748A170.6070045455344,170.6070045455344,0,0,0,131.6304815101831,108.53647468661099Z" fill-rule="evenodd" style="fill: #DB3F29; stroke: #fff; opacity: 1;" id="p-type-functions"></path><path d="M144.1884387702827,134.23372946092363A197,197,0,0,1,136.1447428806962,142.38542406422474L117.90480592638352,123.30939436823876A170.6070045455344,170.6070045455344,0,0,0,124.87085090708187,116.24981975788748Z" fill-rule="evenodd" style="fill: #DB3F29; stroke: #fff; opacity: 1;" id="p-type-functions"></path><path d="M136.1447428806962,142.38542406422474A197,197,0,0,1,128.47477455326052,149.34266739110055L111.26241850860217,129.33454382962296A170.6070045455344,170.6070045455344,0,0,0,117.90480592638352,123.30939436823876Z" fill-rule="evenodd" style="fill: #DB3F29; stroke: #fff; opacity: 1;" id="p-type-functions"></path><path d="M128.47477455326052,149.34266739110055A197,197,0,0,1,120.97248933359505,155.482014472521L104.76524892193535,134.65137436478292A170.6070045455344,170.6070045455344,0,0,0,111.26241850860217,129.33454382962296Z" fill-rule="evenodd" style="fill: #DB3F29; stroke: #fff; opacity: 1;" id="p-type-functions"></path><path d="M120.97248933359505,155.482014472521A197,197,0,0,1,113.2879701684602,161.16710525138208L98.11026010906019,139.5748074020973A170.6070045455344,170.6070045455344,0,0,0,104.76524892193535,134.65137436478292Z" fill-rule="evenodd" style="fill: #DB3F29; stroke: #fff; opacity: 1;" id="p-type-functions"></path><path d="M113.2879701684602,161.16710525138208A197,197,0,0,1,105.35114155221247,166.46362057111966L91.23676490190635,144.1617242205235A170.6070045455344,170.6070045455344,0,0,0,98.11026010906019,139.5748074020973Z" fill-rule="evenodd" style="fill: #DB3F29; stroke: #fff; opacity: 1;" id="p-type-functions"></path><path d="M105.35114155221247,166.46362057111966A197,197,0,0,1,98.15176667907676,170.8075838415147L85.00192337040346,147.92370676579213A170.6070045455344,170.6070045455344,0,0,0,91.23676490190635,144.1617242205235Z" fill-rule="evenodd" style="fill: #DB3F29; stroke: #fff; opacity: 1;" id="p-type-functions"></path></g></svg>