<svg xmlns="http://www.w3.org/2000/svg" width="400" height="400"><g id="container" transform="translate(200,200)"><circle r="200" style="fill: #f9f9f9; stroke: #f9f9f9; opacity: 1;"></circle><path display="none" d="M7.070501591499379e-15,-115.47005383792515A115.47005383792515,115.47005383792515,0,1,1,-7.070501591499379e-15,115.47005383792515A115.47005383792515,115.47005383792515,0,1,1,7.070501591499379e-15,-115.47005383792515Z" fill-rule="evenodd" style="stroke: #fff; opacity: 1;"></path><path d="M9.999199243478977e-15,-163.29931618554522A163.29931618554522,163.29931618554522,0,1,1,-1.3447290534163223,-163.29377933785344L-0.9508670325292484,-115.46613869537589A115.47005383792515,115.47005383792515,0,1,0,7.070501591499379e-15,-115.47005383792515Z" fill-rule="evenodd" style="fill: #6c7074; stroke: #fff; opacity: 1;"></path><path d="M1.2246467991473532e-14,-200A200,200,0,0,1,199.84701723502977,-7.821106204477952L163.17440628100616,-6.385906475028873A163.29931618554522,163.29931618554522,0,0,0,9.999199243478977e-15,-163.29931618554522Z" fill-rule="evenodd" style="fill: #f44336; stroke: #fff; opacity: 1;"></path><path d="M199.84701723502977,-7.821106204477952A200,200,0,0,1,41.689730452566664,195.6066623987852L34.03952237431918,159.71217105529215A163.29931618554522,163.29931618554522,0,0,0,163.17440628100616,-6.385906475028873Z" fill-rule="evenodd" style="fill: #6bbc80; stroke: #fff; opacity: 1;"></path><path d="M41.689730452566664,195.6066623987852A200,200,0,0,1,-185.0504488111995,75.8704909353672L-151.0930587534856,61.94799644203536A163.29931618554522,163.29931618554522,0,0,0,34.03952237431918,159.71217105529215Z" fill-rule="evenodd" style="fill: #B3DAEF; stroke: #fff; opacity: 1;"></path><path d="M-185.0504488111995,75.8704909353672A200,200,0,0,1,-198.42500378914843,25.050306810025713L-162.0133371644108,20.45348986157653A163.29931618554522,163.29931618554522,0,0,0,-151.0930587534856,61.94799644203536Z" fill-rule="evenodd" style="fill: b3daef; stroke: #fff; opacity: 1;"></path></g></svg>