<svg xmlns="http://www.w3.org/2000/svg" width="400" height="400" id="block-7901161"><g id="burst-container" transform="translate(200,200)"><circle r="197" style="fill: #f9f9f9; stroke: #f9f9f9; stroke-width: 3; opacity: 1;" id="circle-base"></circle><path display="none" d="M6.031385485800715e-15,-98.5A98.5,98.5,0,1,1,-6.031385485800715e-15,98.5A98.5,98.5,0,1,1,6.031385485800715e-15,-98.5Z" fill-rule="evenodd" id="p-type-root" style="stroke: #fff; opacity: 1;"></path><path d="M8.529667153919608e-15,-139.30003589374985A139.30003589374985,139.30003589374985,0,1,1,-101.80834959238086,-95.07660045077107L-71.9893743781832,-67.2293089109042A98.5,98.5,0,1,0,6.031385485800715e-15,-98.5Z" fill-rule="evenodd" style="fill: #0B1F65; stroke: #fff; opacity: 1;" id="p-type-data"></path><path d="M-101.80834959238086,-95.07660045077107A139.30003589374985,139.30003589374985,0,0,1,-2.1540082015552358,-139.28338109289146L-1.523113806051147,-98.4882232773737A98.5,98.5,0,0,0,-71.9893743781832,-67.2293089109042Z" fill-rule="evenodd" style="fill: #D7A449; stroke: #fff; opacity: 1;" id="p-type-value"></path><path d="M1.0446666101440332e-14,-170.6070045455344A170.6070045455344,170.6070045455344,0,0,1,169.28279630697045,21.21520385225532L138.21882439452605,17.32214140905119A139.30003589374985,139.30003589374985,0,0,0,8.529667153919608e-15,-139.30003589374985Z" fill-rule="evenodd" style="fill: #DB3F29; stroke: #fff; opacity: 1;" id="p-type-functions"></path><path d="M169.28279630697045,21.21520385225532A170.6070045455344,170.6070045455344,0,0,1,45.65110036041543,164.38590887263808L37.273967359867676,134.22053254720575A139.30003589374985,139.30003589374985,0,0,0,138.21882439452605,17.32214140905119Z" fill-rule="evenodd" style="fill: #1DC690; stroke: #fff; opacity: 1;" id="p-type-logs"></path><path d="M45.65110036041543,164.38590887263808A170.6070045455344,170.6070045455344,0,0,1,-120.0632785965648,121.20874198111152L-98.03125646906818,98.96652340612847A139.30003589374985,139.30003589374985,0,0,0,37.273967359867676,134.22053254720575Z" fill-rule="evenodd" style="fill: #D7A449; stroke: #fff; opacity: 1;" id="p-type-tokenTransfers"></path><path d="M-120.0632785965648,121.20874198111152A170.6070045455344,170.6070045455344,0,0,1,-170.00803581799485,14.283478473655581L-138.81097997563117,11.662411337494557A139.30003589374985,139.30003589374985,0,0,0,-98.03125646906818,98.96652340612847Z" fill-rule="evenodd" style="fill: #414552; stroke: #fff; opacity: 1;" id="p-type-ether"></path><path d="M-124.68925402811044,-116.44457879142911A170.6070045455344,170.6070045455344,0,0,1,-49.40801854370579,-163.29604313511342L-40.34147821134947,-133.3306608988466A139.30003589374985,139.30003589374985,0,0,0,-101.80834959238086,-95.07660045077107Z" fill-rule="evenodd" style="fill: #D7A449; stroke: #fff; opacity: 1;" id="p-type-tokenTransfers"></path><path d="M-49.40801854370579,-163.29604313511342A170.6070045455344,170.6070045455344,0,0,1,-5.275590167243507,-170.52541789536033L-4.3075013339302535,-139.23342067283338A139.30003589374985,139.30003589374985,0,0,0,-40.34147821134947,-133.3306608988466Z" fill-rule="evenodd" style="fill: #414552; stroke: #fff; opacity: 1;" id="p-type-ether"></path><path d="M1.206277097160143e-14,-197A197,197,0,0,1,13.885464157377,-196.51003507488923L12.025164703626766,-170.18268247342513A170.6070045455344,170.6070045455344,0,0,0,1.0446666101440332e-14,-170.6070045455344Z" fill-rule="evenodd" style="fill: #DB3F29; stroke: #fff; opacity: 1;" id="p-type-functions"></path><path d="M13.885464157377,-196.51003507488923A197,197,0,0,1,23.918653804258902,-195.54257337007718L20.714161818813515,-169.3448360598693A170.6070045455344,170.6070045455344,0,0,0,12.025164703626766,-170.18268247342513Z" fill-rule="evenodd" style="fill: #DB3F29; stroke: #fff; opacity: 1;" id="p-type-functions"></path><path d="M23.918653804258902,-195.54257337007718A197,197,0,0,1,33.26140337447914,-194.1717771602253L28.805220287820383,-168.15769171872614A170.6070045455344,170.6070045455344,0,0,0,20.714161818813515,-169.3448360598693Z" fill-rule="evenodd" style="fill: #DB3F29; stroke: #fff; opacity: 1;" id="p-type-functions"></path><path d="M33.26140337447914,-194.1717771602253A197,197,0,0,1,40.74121717243227,-192.7411560183987L35.28292905242516,-166.91873746671322A170.6070045455344,170.6070045455344,0,0,0,28.805220287820383,-168.15769171872614Z" fill-rule="evenodd" style="fill: #DB3F29; stroke: #fff; opacity: 1;" id="p-type-functions"></path><path d="M40.74121717243227,-192.7411560183987A197,197,0,0,1,48.10136408071763,-191.03732298578268L41.65700325058578,-165.44317477666064A170.6070045455344,170.6070045455344,0,0,0,35.28292905242516,-166.91873746671322Z" fill-rule="evenodd" style="fill: #DB3F29; stroke: #fff; opacity: 1;" id="p-type-functions"></path><path d="M48.10136408071763,-191.03732298578268A197,197,0,0,1,54.834929847523526,-189.21450913874753L47.48844226269293,-163.86457167875818A170.6070045455344,170.6070045455344,0,0,0,41.65700325058578,-165.44317477666064Z" fill-rule="evenodd" style="fill: #DB3F29; stroke: #fff; opacity: 1;" id="p-type-functions"></path><path d="M54.834929847523526,-189.21450913874753A197,197,0,0,1,59.74672088057037,-187.7214141860731L51.742178075392104,-162.57151351947982A170.6070045455344,170.6070045455344,0,0,0,47.48844226269293,-163.86457167875818Z" fill-rule="evenodd" style="fill: #DB3F29; stroke: #fff; opacity: 1;" id="p-type-functions"></path><path d="M59.74672088057037,-187.7214141860731A197,197,0,0,1,64.16190005112257,-186.25855841230424L55.56583539935023,-161.30464325732325A170.6070045455344,170.6070045455344,0,0,0,51.742178075392104,-162.57151351947982Z" fill-rule="evenodd" style="fill: #DB3F29; stroke: #fff; opacity: 1;" id="p-type-functions"></path><path d="M64.16190005112257,-186.25855841230424A197,197,0,0,1,68.03596991712742,-184.87862720562302L58.920878319346194,-160.10958777686238A170.6070045455344,170.6070045455344,0,0,0,55.56583539935023,-161.30464325732325Z" fill-rule="evenodd" style="fill: #DB3F29; stroke: #fff; opacity: 1;" id="p-type-functions"></path><path d="M68.03596991712742,-184.87862720562302A197,197,0,0,1,69.54176353960246,-184.3175062868474L60.224933849266165,-159.6236428066078A170.6070045455344,170.6070045455344,0,0,0,58.920878319346194,-160.10958777686238Z" fill-rule="evenodd" style="fill: #DB3F29; stroke: #fff; opacity: 1;" id="p-type-functions"></path><path d="M69.54176353960246,-184.3175062868474A197,197,0,0,1,70.96478606248748,-183.77431577645822L61.45730750424201,-159.15322602551618A170.6070045455344,170.6070045455344,0,0,0,60.224933849266165,-159.6236428066078Z" fill-rule="evenodd" style="fill: #DB3F29; stroke: #fff; opacity: 1;" id="p-type-functions"></path><path d="M70.96478606248748,-183.77431577645822A197,197,0,0,1,72.38356622449861,-183.22013901485727L62.68600716692906,-158.67329487178276A170.6070045455344,170.6070045455344,0,0,0,61.45730750424201,-159.15322602551618Z" fill-rule="evenodd" style="fill: #DB3F29; stroke: #fff; opacity: 1;" id="p-type-functions"></path><path d="M72.38356622449861,-183.22013901485727A197,197,0,0,1,73.79801920923913,-182.6550091314026L63.91095938417308,-158.18387803627328A170.6070045455344,170.6070045455344,0,0,0,62.68600716692906,-158.67329487178276Z" fill-rule="evenodd" style="fill: #DB3F29; stroke: #fff; opacity: 1;" id="p-type-functions"></path><path d="M73.79801920923913,-182.6550091314026A197,197,0,0,1,75.20806045899624,-182.07895991024324L65.13209092684669,-157.68500477691902A170.6070045455344,170.6070045455344,0,0,0,63.91095938417308,-158.18387803627328Z" fill-rule="evenodd" style="fill: #DB3F29; stroke: #fff; opacity: 1;" id="p-type-functions"></path><path d="M75.20806045899624,-182.07895991024324A197,197,0,0,1,76.61360567979594,-181.4920257882994L66.34932879422703,-157.17670491696774A170.6070045455344,170.6070045455344,0,0,0,65.13209092684669,-157.68500477691902Z" fill-rule="evenodd" style="fill: #DB3F29; stroke: #fff; opacity: 1;" id="p-type-functions"></path><path d="M76.61360567979594,-181.4920257882994A197,197,0,0,1,78.01457084644235,-180.8942418532039L67.56260021835993,-156.6590088432008A170.6070045455344,170.6070045455344,0,0,0,66.34932879422703,-157.17670491696774Z" fill-rule="evenodd" style="fill: #DB3F29; stroke: #fff; opacity: 1;" id="p-type-functions"></path><path d="M78.01457084644235,-180.8942418532039A197,197,0,0,1,79.41087220754075,-180.28564384120446L68.77183266840993,-156.1319475041166A170.6070045455344,170.6070045455344,0,0,0,67.56260021835993,-156.6590088432008Z" fill-rule="evenodd" style="fill: #DB3F29; stroke: #fff; opacity: 1;" id="p-type-functions"></path><path d="M79.41087220754075,-180.28564384120446A197,197,0,0,1,80.80242629050436,-179.66626813502754L69.97695385499638,-155.59555240808044A170.6070045455344,170.6070045455344,0,0,0,68.77183266840993,-156.1319475041166Z" fill-rule="evenodd" style="fill: #DB3F29; stroke: #fff; opacity: 1;" id="p-type-functions"></path><path d="M80.80242629050436,-179.66626813502754A197,197,0,0,1,82.18914990654443,-179.03615176170305L71.1778917345149,-155.0498556214409A170.6070045455344,170.6070045455344,0,0,0,69.97695385499638,-155.59555240808044Z" fill-rule="evenodd" style="fill: #DB3F29; stroke: #fff; opacity: 1;" id="p-type-functions"></path><path d="M82.18914990654443,-179.03615176170305A197,197,0,0,1,83.57096015564342,-178.39533239035111L72.37457451344433,-154.49488976661297A170.6070045455344,170.6070045455344,0,0,0,71.1778917345149,-155.0498556214409Z" fill-rule="evenodd" style="fill: #DB3F29; stroke: #fff; opacity: 1;" id="p-type-functions"></path><path d="M83.57096015564342,-178.39533239035111A197,197,0,0,1,84.94777443151075,-177.74384832993002L73.56693065263852,-153.93068802012766A170.6070045455344,170.6070045455344,0,0,0,72.37457451344433,-154.49488976661297Z" fill-rule="evenodd" style="fill: #DB3F29; stroke: #fff; opacity: 1;" id="p-type-functions"></path><path d="M84.94777443151075,-177.74384832993002A197,197,0,0,1,86.31951042652125,-177.08173852694605L74.75488887160311,-153.35728411064883A170.6070045455344,170.6070045455344,0,0,0,73.56693065263852,-153.93068802012766Z" fill-rule="evenodd" style="fill: #DB3F29; stroke: #fff; opacity: 1;" id="p-type-functions"></path><path d="M86.31951042652125,-177.08173852694605A197,197,0,0,1,87.68608613663545,-176.40904256312527L75.93837815275678,-152.7747123169568A170.6070045455344,170.6070045455344,0,0,0,74.75488887160311,-153.35728411064883Z" fill-rule="evenodd" style="fill: #DB3F29; stroke: #fff; opacity: 1;" id="p-type-functions"></path><path d="M87.68608613663545,-176.40904256312527A197,197,0,0,1,89.04741986630201,-175.72580065304732L77.11732774567663,-152.18300746589907A170.6070045455344,170.6070045455344,0,0,0,75.93837815275678,-152.7747123169568Z" fill-rule="evenodd" style="fill: #DB3F29; stroke: #fff; opacity: 1;" id="p-type-functions"></path><path d="M89.04741986630201,-175.72580065304732A197,197,0,0,1,90.40343023334152,-175.03205364174116L78.29166717132792,-151.5822049303084A170.6070045455344,170.6070045455344,0,0,0,77.11732774567663,-152.18300746589907Z" fill-rule="evenodd" style="fill: #DB3F29; stroke: #fff; opacity: 1;" id="p-type-functions"></path><path d="M90.40343023334152,-175.03205364174116A197,197,0,0,1,91.75403617381166,-174.32784300224353L79.46132622627722,-150.97234062688815A170.6070045455344,170.6070045455344,0,0,0,78.29166717132792,-151.5822049303084Z" fill-rule="evenodd" style="fill: #DB3F29; stroke: #fff; opacity: 1;" id="p-type-functions"></path><path d="M91.75403617381166,-174.32784300224353A197,197,0,0,1,93.09915694685321,-173.61321083311947L80.62623498688939,-150.35345101406514A170.6070045455344,170.6070045455344,0,0,0,79.46132622627722,-150.97234062688815Z" fill-rule="evenodd" style="fill: #DB3F29; stroke: #fff; opacity: 1;" id="p-type-functions"></path><path d="M93.09915694685321,-173.61321083311947A197,197,0,0,1,94.438712139517,-172.88819985594574L81.78632381350758,-149.72557308981015A170.6070045455344,170.6070045455344,0,0,0,80.62623498688939,-150.35345101406514Z" fill-rule="evenodd" style="fill: #DB3F29; stroke: #fff; opacity: 1;" id="p-type-functions"></path><path d="M94.438712139517,-172.88819985594574A197,197,0,0,1,95.7726216715709,-172.15285341275685L82.94152335461646,-149.088744389426A170.6070045455344,170.6070045455344,0,0,0,81.78632381350758,-149.72557308981015Z" fill-rule="evenodd" style="fill: #DB3F29; stroke: #fff; opacity: 1;" id="p-type-functions"></path><path d="M95.7726216715709,-172.15285341275685A197,197,0,0,1,97.10080580028733,-171.40721546345384L84.09176455098819,-148.44300298330387A170.6070045455344,170.6070045455344,0,0,0,82.94152335461646,-149.088744389426Z" fill-rule="evenodd" style="fill: #DB3F29; stroke: #fff; opacity: 1;" id="p-type-functions"></path><path d="M97.10080580028733,-171.40721546345384A197,197,0,0,1,98.42318512521004,-170.65133058317662L85.23697863981059,-147.78838747464724A170.6070045455344,170.6070045455344,0,0,0,84.09176455098819,-148.44300298330387Z" fill-rule="evenodd" style="fill: #DB3F29; stroke: #fff; opacity: 1;" id="p-type-functions"></path><path d="M98.42318512521004,-170.65133058317662A197,197,0,0,1,99.7396805929013,-169.88524395963893L86.37709715879828,-147.12493699716416A170.6070045455344,170.6070045455344,0,0,0,85.23697863981059,-147.78838747464724Z" fill-rule="evenodd" style="fill: #DB3F29; stroke: #fff; opacity: 1;" id="p-type-functions"></path><path d="M99.7396805929013,-169.88524395963893A197,197,0,0,1,101.05021350166712,-169.10900139042712L87.512051950285,-146.45269121272784A170.6070045455344,170.6070045455344,0,0,0,86.37709715879828,-147.12493699716416Z" fill-rule="evenodd" style="fill: #DB3F29; stroke: #fff; opacity: 1;" id="p-type-functions"></path><path d="M101.05021350166712,-169.10900139042712A197,197,0,0,1,102.35470550626293,-168.3226492802623L88.64177516529865,-145.77169030900563A170.6070045455344,170.6070045455344,0,0,0,87.512051950285,-146.45269121272784Z" fill-rule="evenodd" style="fill: #DB3F29; stroke: #fff; opacity: 1;" id="p-type-functions"></path><path d="M102.35470550626293,-168.3226492802623A197,197,0,0,1,103.65307862257627,-167.5262346382262L89.76619926761677,-145.08197499705645A170.6070045455344,170.6070045455344,0,0,0,88.64177516529865,-145.77169030900563Z" fill-rule="evenodd" style="fill: #DB3F29; stroke: #fff; opacity: 1;" id="p-type-functions"></path><path d="M103.65307862257627,-167.5262346382262A197,197,0,0,1,104.94525523228967,-166.71980507495078L90.88525703780464,-144.38358650889714A170.6070045455344,170.6070045455344,0,0,0,89.76619926761677,-145.08197499705645Z" fill-rule="evenodd" style="fill: #DB3F29; stroke: #fff; opacity: 1;" id="p-type-functions"></path><path d="M104.94525523228967,-166.71980507495078A197,197,0,0,1,106.23115808751993,-165.90340879977225L91.99888157723298,-143.67656659503754A170.6070045455344,170.6070045455344,0,0,0,90.88525703780464,-144.38358650889714Z" fill-rule="evenodd" style="fill: #DB3F29; stroke: #fff; opacity: 1;" id="p-type-functions"></path><path d="M106.23115808751993,-165.90340879977225A197,197,0,0,1,107.51071031543687,-165.07709461784884L93.10700631207803,-142.9609575219845A170.6070045455344,170.6070045455344,0,0,0,91.99888157723298,-143.67656659503754Z" fill-rule="evenodd" style="fill: #DB3F29; stroke: #fff; opacity: 1;" id="p-type-functions"></path><path d="M107.51071031543687,-165.07709461784884A197,197,0,0,1,108.7838354228582,-164.24091192724333L94.20956499730069,-142.2368020697153A170.6070045455344,170.6070045455344,0,0,0,93.10700631207803,-142.9609575219845Z" fill-rule="evenodd" style="fill: #DB3F29; stroke: #fff; opacity: 1;" id="p-type-functions"></path><path d="M108.7838354228582,-164.24091192724333A197,197,0,0,1,110.05045730082286,-163.39491071596987L95.30649172060724,-141.50414352912009A170.6070045455344,170.6070045455344,0,0,0,94.20956499730069,-142.2368020697153Z" fill-rule="evenodd" style="fill: #DB3F29; stroke: #fff; opacity: 1;" id="p-type-functions"></path><path d="M110.05045730082286,-163.39491071596987A197,197,0,0,1,111.31050022914064,-162.53914155900566L96.39772090638937,-140.7630256994139A170.6070045455344,170.6070045455344,0,0,0,95.30649172060724,-141.50414352912009Z" fill-rule="evenodd" style="fill: #DB3F29; stroke: #fff; opacity: 1;" id="p-type-functions"></path><path d="M111.31050022914064,-162.53914155900566A197,197,0,0,1,112.56388888091894,-161.67365561526753L97.4831873196445,-140.01349288551836A170.6070045455344,170.6070045455344,0,0,0,96.39772090638937,-140.7630256994139Z" fill-rule="evenodd" style="fill: #DB3F29; stroke: #fff; opacity: 1;" id="p-type-functions"></path><path d="M112.56388888091894,-161.67365561526753A197,197,0,0,1,113.81054832706587,-160.79850462455366L98.5628260698756,-139.255589895413A170.6070045455344,170.6070045455344,0,0,0,97.4831873196445,-140.01349288551836Z" fill-rule="evenodd" style="fill: #DB3F29; stroke: #fff; opacity: 1;" id="p-type-functions"></path><path d="M113.81054832706587,-160.79850462455366A197,197,0,0,1,115.0504040407696,-159.91374090445032L99.6365726149703,-138.4893620374567A170.6070045455344,170.6070045455344,0,0,0,98.5628260698756,-139.255589895413Z" fill-rule="evenodd" style="fill: #DB3F29; stroke: #fff; opacity: 1;" id="p-type-functions"></path><path d="M115.0504040407696,-159.91374090445032A197,197,0,0,1,116.28338190195365,-159.01941734720447L100.70436276505949,-137.71485511767892A170.6070045455344,170.6070045455344,0,0,0,99.6365726149703,-138.4893620374567Z" fill-rule="evenodd" style="fill: #DB3F29; stroke: #fff; opacity: 1;" id="p-type-functions"></path><path d="M116.28338190195365,-159.01941734720447A197,197,0,0,1,117.50940820170794,-158.1155874165617L101.76613268635455,-136.93211543704157A170.6070045455344,170.6070045455344,0,0,0,100.70436276505949,-137.71485511767892Z" fill-rule="evenodd" style="fill: #DB3F29; stroke: #fff; opacity: 1;" id="p-type-functions"></path><path d="M117.50940820170794,-158.1155874165617A197,197,0,0,1,118.72840964669511,-157.20230514457015L102.82181890496338,-136.1411897886709A170.6070045455344,170.6070045455344,0,0,0,101.76613268635455,-136.93211543704157Z" fill-rule="evenodd" style="fill: #DB3F29; stroke: #fff; opacity: 1;" id="p-type-functions"></path><path d="M118.72840964669511,-157.20230514457015A197,197,0,0,1,119.94031336353217,-156.27962512835035L103.87135831068504,-135.3421254550603A170.6070045455344,170.6070045455344,0,0,0,102.82181890496338,-136.1411897886709Z" fill-rule="evenodd" style="fill: #DB3F29; stroke: #fff; opacity: 1;" id="p-type-functions"></path><path d="M119.94031336353217,-156.27962512835035A197,197,0,0,1,121.14504690314683,-155.34760252683125L104.91468816078249,-134.53497020524352A170.6070045455344,170.6070045455344,0,0,0,103.87135831068504,-135.3421254550603Z" fill-rule="evenodd" style="fill: #DB3F29; stroke: #fff; opacity: 1;" id="p-type-functions"></path><path d="M121.14504690314683,-155.34760252683125A197,197,0,0,1,122.3425382451088,-154.4062930574531L105.95174608373347,-133.7197722919392A170.6070045455344,170.6070045455344,0,0,0,104.91468816078249,-134.53497020524352Z" fill-rule="evenodd" style="fill: #DB3F29; stroke: #fff; opacity: 1;" id="p-type-functions"></path><path d="M122.3425382451088,-154.4062930574531A197,197,0,0,1,123.53271580193505,-153.45575299283615L106.98247008295911,-132.89658044866601A170.6070045455344,170.6070045455344,0,0,0,105.95174608373347,-133.7197722919392Z" fill-rule="evenodd" style="fill: #DB3F29; stroke: #fff; opacity: 1;" id="p-type-functions"></path><path d="M123.53271580193505,-153.45575299283615A197,197,0,0,1,124.71550842336953,-152.49603915741696L108.00679854053016,-132.0654438868296A170.6070045455344,170.6070045455344,0,0,0,106.98247008295911,-132.89658044866601Z" fill-rule="evenodd" style="fill: #DB3F29; stroke: #fff; opacity: 1;" id="p-type-functions"></path><path d="M124.71550842336953,-152.49603915741696A197,197,0,0,1,125.89084540063652,-151.52720892405108L109.02467022085058,-131.22641229278034A170.6070045455344,170.6070045455344,0,0,0,108.00679854053016,-132.0654438868296Z" fill-rule="evenodd" style="fill: #DB3F29; stroke: #fff; opacity: 1;" id="p-type-functions"></path><path d="M125.89084540063652,-151.52720892405108A197,197,0,0,1,127.05865647066781,-150.54932021058355L110.03602427431838,-130.37953582484337A170.6070045455344,170.6070045455344,0,0,0,109.02467022085058,-131.22641229278034Z" fill-rule="evenodd" style="fill: #DB3F29; stroke: #fff; opacity: 1;" id="p-type-functions"></path><path d="M127.05865647066781,-150.54932021058355A197,197,0,0,1,128.21887182030304,-149.56243147638614L111.04080024096312,-129.52486511031975A170.6070045455344,170.6070045455344,0,0,0,110.03602427431838,-130.37953582484337Z" fill-rule="evenodd" style="fill: #DB3F29; stroke: #fff; opacity: 1;" id="p-type-functions"></path><path d="M128.21887182030304,-149.56243147638614A197,197,0,0,1,129.37142209046308,-148.56660171886287L112.03893805406034,-128.6624512424601A170.6070045455344,170.6070045455344,0,0,0,111.04080024096312,-129.52486511031975Z" fill-rule="evenodd" style="fill: #DB3F29; stroke: #fff; opacity: 1;" id="p-type-functions"></path><path d="M129.37142209046308,-148.56660171886287A197,197,0,0,1,130.51623838029676,-147.561890469923L113.03037804372254,-127.79234577741016A170.6070045455344,170.6070045455344,0,0,0,112.03893805406034,-128.6624512424601Z" fill-rule="evenodd" style="fill: #DB3F29; stroke: #fff; opacity: 1;" id="p-type-functions"></path><path d="M130.51623838029676,-147.561890469923A197,197,0,0,1,131.65325225129942,-146.54835779242197L114.01506094046613,-126.91460073112862A170.6070045455344,170.6070045455344,0,0,0,113.03037804372254,-127.79234577741016Z" fill-rule="evenodd" style="fill: #DB3F29; stroke: #fff; opacity: 1;" id="p-type-functions"></path><path d="M131.65325225129942,-146.54835779242197A197,197,0,0,1,132.78239573140456,-145.52606427657102L114.99292787875476,-126.02926857627757A170.6070045455344,170.6070045455344,0,0,0,114.01506094046613,-126.91460073112862Z" fill-rule="evenodd" style="fill: #DB3F29; stroke: #fff; opacity: 1;" id="p-type-functions"></path><path d="M132.78239573140456,-145.52606427657102A197,197,0,0,1,133.90360131904717,-144.49507103631484L115.9639204005183,-125.13640223908571A170.6070045455344,170.6070045455344,0,0,0,114.99292787875476,-126.02926857627757Z" fill-rule="evenodd" style="fill: #DB3F29; stroke: #fff; opacity: 1;" id="p-type-functions"></path><path d="M133.90360131904717,-144.49507103631484A197,197,0,0,1,135.016801987199,-143.4554397056783L116.92798045864761,-124.23605509618423A170.6070045455344,170.6070045455344,0,0,0,115.9639204005183,-125.13640223908571Z" fill-rule="evenodd" style="fill: #DB3F29; stroke: #fff; opacity: 1;" id="p-type-functions"></path><path d="M135.016801987199,-143.4554397056783A197,197,0,0,1,136.1219311873757,-142.4072324350816L117.88505042046461,-123.32828097141595A170.6070045455344,170.6070045455344,0,0,0,116.92798045864761,-124.23605509618423Z" fill-rule="evenodd" style="fill: #DB3F29; stroke: #fff; opacity: 1;" id="p-type-functions"></path><path d="M136.1219311873757,-142.4072324350816A197,197,0,0,1,137.2189228536149,-141.35051188762523L118.8350730711676,-122.41313413261773A170.6070045455344,170.6070045455344,0,0,0,117.88505042046461,-123.32828097141595Z" fill-rule="evenodd" style="fill: #DB3F29; stroke: #fff; opacity: 1;" id="p-type-functions"></path><path d="M137.2189228536149,-141.35051188762523A197,197,0,0,1,138.30771140642608,-140.28534123534348L119.77799161725174,-121.4906692883761A170.6070045455344,170.6070045455344,0,0,0,118.8350730711676,-122.41313413261773Z" fill-rule="evenodd" style="fill: #DB3F29; stroke: #fff; opacity: 1;" id="p-type-functions"></path><path d="M138.30771140642608,-140.28534123534348A197,197,0,0,1,139.38823175671052,-139.2117841554283L120.71374968990413,-120.5609415847569A170.6070045455344,170.6070045455344,0,0,0,119.77799161725174,-121.4906692883761Z" fill-rule="evenodd" style="fill: #DB3F29; stroke: #fff; opacity: 1;" id="p-type-functions"></path><path d="M139.38823175671052,-139.2117841554283A197,197,0,0,1,140.46041930965288,-138.12990482642235L121.64229134837367,-119.62400660200849A170.6070045455344,170.6070045455344,0,0,0,120.71374968990413,-120.5609415847569Z" fill-rule="evenodd" style="fill: #DB3F29; stroke: #fff; opacity: 1;" id="p-type-functions"></path><path d="M140.46041930965288,-138.12990482642235A197,197,0,0,1,141.52420996858243,-137.03976792438243L122.56356108331526,-118.67992035123906A170.6070045455344,170.6070045455344,0,0,0,121.64229134837367,-119.62400660200849Z" fill-rule="evenodd" style="fill: #DB3F29; stroke: #fff; opacity: 1;" id="p-type-functions"></path><path d="M141.52420996858243,-137.03976792438243A197,197,0,0,1,142.5795401388049,-135.94143861901316L123.4775038201081,-117.72873927106833A170.6070045455344,170.6070045455344,0,0,0,122.56356108331526,-118.67992035123906Z" fill-rule="evenodd" style="fill: #DB3F29; stroke: #fff; opacity: 1;" id="p-type-functions"></path><path d="M142.5795401388049,-135.94143861901316A197,197,0,0,1,143.62634673140445,-134.83498256977077L124.38406492214831,-116.77052022425347A170.6070045455344,170.6070045455344,0,0,0,123.4775038201081,-117.72873927106833Z" fill-rule="evenodd" style="fill: #DB3F29; stroke: #fff; opacity: 1;" id="p-type-functions"></path><path d="M143.62634673140445,-134.83498256977077A197,197,0,0,1,144.66456716701484,-133.72046592193826L125.28319019411508,-115.80532049428984A170.6070045455344,170.6070045455344,0,0,0,124.38406492214831,-116.77052022425347Z" fill-rule="evenodd" style="fill: #DB3F29; stroke: #fff; opacity: 1;" id="p-type-functions"></path><path d="M144.66456716701484,-133.72046592193826A197,197,0,0,1,145.69413937956082,-132.59795530267087L126.17482588521045,-114.83319778198648A170.6070045455344,170.6070045455344,0,0,0,125.28319019411508,-115.80532049428984Z" fill-rule="evenodd" style="fill: #DB3F29; stroke: #fff; opacity: 1;" id="p-type-functions"></path><path d="M145.69413937956082,-132.59795530267087A197,197,0,0,1,146.71500181996836,-131.4675178170132L127.05891869237274,-113.85421020201673A170.6070045455344,170.6070045455344,0,0,0,126.17482588521045,-114.83319778198648Z" fill-rule="evenodd" style="fill: #DB3F29; stroke: #fff; opacity: 1;" id="p-type-functions"></path><path d="M146.71500181996836,-131.4675178170132A197,197,0,0,1,147.72709345984413,-130.3292210438875L127.93541576346303,-112.868416279444A170.6070045455344,170.6070045455344,0,0,0,127.05891869237274,-113.85421020201673Z" fill-rule="evenodd" style="fill: #DB3F29; stroke: #fff; opacity: 1;" id="p-type-functions"></path><path d="M147.72709345984413,-130.3292210438875A197,197,0,0,1,148.7303537951239,-129.18313303205366L128.8042647004246,-111.87587494622312A170.6070045455344,170.6070045455344,0,0,0,127.93541576346303,-112.868416279444Z" fill-rule="evenodd" style="fill: #DB3F29; stroke: #fff; opacity: 1;" id="p-type-functions"></path><path d="M148.7303537951239,-129.18313303205366A197,197,0,0,1,149.72472284968956,-128.0293222960414L129.66541356241555,-110.8766455376773A170.6070045455344,170.6070045455344,0,0,0,128.8042647004246,-111.87587494622312Z" fill-rule="evenodd" style="fill: #DB3F29; stroke: #fff; opacity: 1;" id="p-type-functions"></path><path d="M149.72472284968956,-128.0293222960414A197,197,0,0,1,150.71014117895447,-126.86785781205424L130.5188108689138,-109.87078778895102A170.6070045455344,170.6070045455344,0,0,0,129.66541356241555,-110.8766455376773Z" fill-rule="evenodd" style="fill: #DB3F29; stroke: #fff; opacity: 1;" id="p-type-functions"></path><path d="M150.71014117895447,-126.86785781205424A197,197,0,0,1,151.68654987341725,-125.69880901384589L131.36440560279456,-108.85836183143893A170.6070045455344,170.6070045455344,0,0,0,130.5188108689138,-109.87078778895102Z" fill-rule="evenodd" style="fill: #DB3F29; stroke: #fff; opacity: 1;" id="p-type-functions"></path><path d="M151.68654987341725,-125.69880901384589A197,197,0,0,1,152.65389056218334,-124.52224578856966L132.20214721338033,-107.83942818919115A170.6070045455344,170.6070045455344,0,0,0,131.36440560279456,-108.85836183143893Z" fill-rule="evenodd" style="fill: #DB3F29; stroke: #fff; opacity: 1;" id="p-type-functions"></path><path d="M152.65389056218334,-124.52224578856966A197,197,0,0,1,153.6121054164546,-123.33823847260038L133.03198561946283,-106.81404777529514A170.6070045455344,170.6070045455344,0,0,0,132.20214721338033,-107.83942818919115Z" fill-rule="evenodd" style="fill: #DB3F29; stroke: #fff; opacity: 1;" id="p-type-functions"></path><path d="M153.6121054164546,-123.33823847260038A197,197,0,0,1,154.5611371529863,-122.14685784732966L133.85387121229695,-105.78228188823408A170.6070045455344,170.6070045455344,0,0,0,133.03198561946283,-106.81404777529514Z" fill-rule="evenodd" style="fill: #DB3F29; stroke: #fff; opacity: 1;" id="p-type-functions"></path><path d="M154.5611371529863,-122.14685784732966A197,197,0,0,1,155.50092903751167,-120.9481751349344L134.66775485856635,-104.74419220822257A170.6070045455344,170.6070045455344,0,0,0,133.85387121229695,-105.78228188823408Z" fill-rule="evenodd" style="fill: #DB3F29; stroke: #fff; opacity: 1;" id="p-type-functions"></path><path d="M155.50092903751167,-120.9481751349344A197,197,0,0,1,156.43142488813334,-119.74226199411926L135.47358790332078,-103.69984079351917A170.6070045455344,170.6070045455344,0,0,0,134.66775485856635,-104.74419220822257Z" fill-rule="evenodd" style="fill: #DB3F29; stroke: #fff; opacity: 1;" id="p-type-functions"></path><path d="M156.43142488813334,-119.74226199411926A197,197,0,0,1,157.35256907868228,-118.5291905158325L136.2713221728846,-102.6492900767165A170.6070045455344,170.6070045455344,0,0,0,135.47358790332078,-103.69984079351917Z" fill-rule="evenodd" style="fill: #DB3F29; stroke: #fff; opacity: 1;" id="p-type-functions"></path><path d="M157.35256907868228,-118.5291905158325A197,197,0,0,1,158.26430654204296,-117.30903321895659L137.0609099777369,-101.592602861009A170.6070045455344,170.6070045455344,0,0,0,136.2713221728846,-102.6492900767165Z" fill-rule="evenodd" style="fill: #DB3F29; stroke: #fff; opacity: 1;" id="p-type-functions"></path><path d="M158.26430654204296,-117.30903321895659A197,197,0,0,1,159.06662902940033,-116.21879163553174L137.75574163381592,-100.64842595350092A170.6070045455344,170.6070045455344,0,0,0,137.0609099777369,-101.592602861009Z" fill-rule="evenodd" style="fill: #DB3F29; stroke: #fff; opacity: 1;" id="p-type-functions"></path><path d="M195.47093603400396,24.49720731002479A197,197,0,0,1,195.2756864366629,26.007812031966647L169.1137051955944,22.523425916533697A170.6070045455344,170.6070045455344,0,0,0,169.28279630697045,21.21520385225532Z" fill-rule="evenodd" style="fill: #1DC690; stroke: #fff; opacity: 1;" id="p-type-logs"></path><path d="M195.2756864366629,26.007812031966647A197,197,0,0,1,195.06876302223978,27.516861975400715L168.93450426206618,23.830301503127068A170.6070045455344,170.6070045455344,0,0,0,169.1137051955944,22.523425916533697Z" fill-rule="evenodd" style="fill: #1DC690; stroke: #fff; opacity: 1;" id="p-type-logs"></path><path d="M195.06876302223978,27.516861975400715A197,197,0,0,1,194.85017816086702,29.02426692749339L168.74520421923467,25.13575248542979A170.6070045455344,170.6070045455344,0,0,0,168.93450426206618,23.830301503127068Z" fill-rule="evenodd" style="fill: #1DC690; stroke: #fff; opacity: 1;" id="p-type-logs"></path><path d="M194.85017816086702,29.02426692749339A197,197,0,0,1,194.61994491981233,30.529936773750634L168.5458163836857,26.439700822000777A170.6070045455344,170.6070045455344,0,0,0,168.74520421923467,25.13575248542979Z" fill-rule="evenodd" style="fill: #1DC690; stroke: #fff; opacity: 1;" id="p-type-logs"></path><path d="M194.61994491981233,30.529936773750634A197,197,0,0,1,194.37807706269783,32.03378150340517L168.33635267506563,27.742068561228944A170.6070045455344,170.6070045455344,0,0,0,168.5458163836857,26.439700822000777Z" fill-rule="evenodd" style="fill: #1DC690; stroke: #fff; opacity: 1;" id="p-type-logs"></path><path d="M194.37807706269783,32.03378150340517A197,197,0,0,1,194.12458904867697,33.53571121479736L168.1168256153687,29.04277784599321A170.6070045455344,170.6070045455344,0,0,0,168.33635267506563,27.742068561228944Z" fill-rule="evenodd" style="fill: #1DC690; stroke: #fff; opacity: 1;" id="p-type-logs"></path><path d="M194.12458904867697,33.53571121479736A197,197,0,0,1,193.85949603157027,35.03563612074971L167.88724832818843,30.34175091831693A170.6070045455344,170.6070045455344,0,0,0,168.1168256153687,29.04277784599321Z" fill-rule="evenodd" style="fill: #1DC690; stroke: #fff; opacity: 1;" id="p-type-logs"></path><path d="M193.85949603157027,35.03563612074971A197,197,0,0,1,193.58281385895947,36.533466553934396L167.64763453793321,31.63891012401632A170.6070045455344,170.6070045455344,0,0,0,167.88724832818843,30.34175091831693Z" fill-rule="evenodd" style="fill: #1DC690; stroke: #fff; opacity: 1;" id="p-type-logs"></path><path d="M193.58281385895947,36.533466553934396A197,197,0,0,1,193.29455907123997,38.02911297223374L167.39799856900564,32.93417791734276A170.6070045455344,170.6070045455344,0,0,0,167.64763453793321,31.63891012401632Z" fill-rule="evenodd" style="fill: #1DC690; stroke: #fff; opacity: 1;" id="p-type-logs"></path><path d="M193.29455907123997,38.02911297223374A197,197,0,0,1,192.99474890063217,39.52248596409311L167.13835534494632,34.22747686561854A170.6070045455344,170.6070045455344,0,0,0,167.39799856900564,32.93417791734276Z" fill-rule="evenodd" style="fill: #1DC690; stroke: #fff; opacity: 1;" id="p-type-logs"></path><path d="M192.99474890063217,39.52248596409311A197,197,0,0,1,192.68340127015122,41.013496253866045L166.86872038754174,35.5187296538659A170.6070045455344,170.6070045455344,0,0,0,167.13835534494632,34.22747686561854Z" fill-rule="evenodd" style="fill: #1DC690; stroke: #fff; opacity: 1;" id="p-type-logs"></path><path d="M192.68340127015122,41.013496253866045A197,197,0,0,1,192.36053479253565,42.502054707151295L166.58910981589625,36.807859089429A170.6070045455344,170.6070045455344,0,0,0,166.86872038754174,35.5187296538659Z" fill-rule="evenodd" style="fill: #1DC690; stroke: #fff; opacity: 1;" id="p-type-logs"></path><path d="M192.36053479253565,42.502054707151295A197,197,0,0,1,192.02616876913459,43.98807233612137L166.29954034546853,38.0947881065886A170.6070045455344,170.6070045455344,0,0,0,166.58910981589625,36.807859089429Z" fill-rule="evenodd" style="fill: #1DC690; stroke: #fff; opacity: 1;" id="p-type-logs"></path><path d="M192.02616876913459,43.98807233612137A197,197,0,0,1,191.6803231887539,45.4714603048423L166.0000292870723,39.379439771169125A170.6070045455344,170.6070045455344,0,0,0,166.29954034546853,38.0947881065886Z" fill-rule="evenodd" style="fill: #1DC690; stroke: #fff; opacity: 1;" id="p-type-logs"></path><path d="M191.6803231887539,45.4714603048423A197,197,0,0,1,191.32301872646138,46.95212993458445L165.69059454584144,40.661737285137924A170.6070045455344,170.6070045455344,0,0,0,166.0000292870723,39.379439771169125Z" fill-rule="evenodd" style="fill: #1DC690; stroke: #fff; opacity: 1;" id="p-type-logs"></path><path d="M191.32301872646138,46.95212993458445A197,197,0,0,1,190.9542767423506,48.42999270912372L165.37125462015962,41.94160399119629A170.6070045455344,170.6070045455344,0,0,0,165.69059454584144,40.661737285137924Z" fill-rule="evenodd" style="fill: #1DC690; stroke: #fff; opacity: 1;" id="p-type-logs"></path><path d="M190.9542767423506,48.42999270912372A197,197,0,0,1,190.57411928026403,49.90496028003325L165.04202860055443,43.21896337736217A170.6070045455344,170.6070045455344,0,0,0,165.37125462015962,41.94160399119629Z" fill-rule="evenodd" style="fill: #1DC690; stroke: #fff; opacity: 1;" id="p-type-logs"></path><path d="M190.57411928026403,49.90496028003325A197,197,0,0,1,190.18256906647525,51.376944471964954L164.7029361685561,44.49373908154413A170.6070045455344,170.6070045455344,0,0,0,165.04202860055443,43.21896337736217Z" fill-rule="evenodd" style="fill: #1DC690; stroke: #fff; opacity: 1;" id="p-type-logs"></path><path d="M190.18256906647525,51.376944471964954A197,197,0,0,1,189.77964950833035,52.84585728792076L164.35399759552104,45.76585489610639A170.6070045455344,170.6070045455344,0,0,0,164.7029361685561,44.49373908154413Z" fill-rule="evenodd" style="fill: #1DC690; stroke: #fff; opacity: 1;" id="p-type-logs"></path><path d="M189.77964950833035,52.84585728792076A197,197,0,0,1,189.3653846928486,54.311610914513146L163.99523374141975,47.03523477242457A170.6070045455344,170.6070045455344,0,0,0,164.35399759552104,45.76585489610639Z" fill-rule="evenodd" style="fill: #1DC690; stroke: #fff; opacity: 1;" id="p-type-logs"></path><path d="M189.3653846928486,54.311610914513146A197,197,0,0,1,188.93979938528247,55.77411772721479L163.62666605359007,48.301802825432006A170.6070045455344,170.6070045455344,0,0,0,163.99523374141975,47.03523477242457Z" fill-rule="evenodd" style="fill: #1DC690; stroke: #fff; opacity: 1;" id="p-type-logs"></path><path d="M188.93979938528247,55.77411772721479A197,197,0,0,1,188.5029190276372,57.23329029559682L163.24831656545484,49.56548333815623A170.6070045455344,170.6070045455344,0,0,0,163.62666605359007,48.301802825432006Z" fill-rule="evenodd" style="fill: #1DC690; stroke: #fff; opacity: 1;" id="p-type-logs"></path><path d="M188.5029190276372,57.23329029559682A197,197,0,0,1,188.05476973714974,58.68904138855553L162.86020789520475,50.82620076624543A170.6070045455344,170.6070045455344,0,0,0,163.24831656545484,49.56548333815623Z" fill-rule="evenodd" style="fill: #1DC690; stroke: #fff; opacity: 1;" id="p-type-logs"></path><path d="M188.05476973714974,58.68904138855553A197,197,0,0,1,187.59537830472763,60.14128397952716L162.46236324444627,52.0838797424846A170.6070045455344,170.6070045455344,0,0,0,162.86020789520475,50.82620076624543Z" fill-rule="evenodd" style="fill: #1DC690; stroke: #fff; opacity: 1;" id="p-type-logs"></path><path d="M187.59537830472763,60.14128397952716A197,197,0,0,1,187.12477219334707,61.58993125169046L162.05480639681448,53.338445081301046A170.6070045455344,170.6070045455344,0,0,0,162.46236324444627,52.0838797424846Z" fill-rule="evenodd" style="fill: #1DC690; stroke: #fff; opacity: 1;" id="p-type-logs"></path><path d="M187.12477219334707,61.58993125169046A197,197,0,0,1,186.64297953641156,63.034896603156675L161.63756171655155,54.5898217832591A170.6070045455344,170.6070045455344,0,0,0,162.05480639681448,53.338445081301046Z" fill-rule="evenodd" style="fill: #1DC690; stroke: #fff; opacity: 1;" id="p-type-logs"></path><path d="M186.64297953641156,63.034896603156675A197,197,0,0,1,186.15002913606972,64.47609365214674L161.21065414704978,55.837935039543666A170.6070045455344,170.6070045455344,0,0,0,161.63756171655155,54.5898217832591Z" fill-rule="evenodd" style="fill: #1DC690; stroke: #fff; opacity: 1;" id="p-type-logs"></path><path d="M186.15002913606972,64.47609365214674A197,197,0,0,1,185.64595046149358,65.91343624215529L160.7741092093609,57.08271023643238A170.6070045455344,170.6070045455344,0,0,0,161.21065414704978,55.837935039543666Z" fill-rule="evenodd" style="fill: #1DC690; stroke: #fff; opacity: 1;" id="p-type-logs"></path><path d="M185.64595046149358,65.91343624215529A197,197,0,0,1,185.13077364711697,67.34683844710113L160.32795300067,58.32407295975612A170.6070045455344,170.6070045455344,0,0,0,160.7741092093609,57.08271023643238Z" fill-rule="evenodd" style="fill: #1DC690; stroke: #fff; opacity: 1;" id="p-type-logs"></path><path d="M185.13077364711697,67.34683844710113A197,197,0,0,1,184.6045294908339,68.77621457646414L159.87221219273573,59.56194899934756A170.6070045455344,170.6070045455344,0,0,0,160.32795300067,58.32407295975612Z" fill-rule="evenodd" style="fill: #1DC690; stroke: #fff; opacity: 1;" id="p-type-logs"></path><path d="M184.6045294908339,68.77621457646414A197,197,0,0,1,184.06724945215748,70.20147918040783L159.40691403029567,60.796264353477554A170.6070045455344,170.6070045455344,0,0,0,159.87221219273573,59.56194899934756Z" fill-rule="evenodd" style="fill: #1DC690; stroke: #fff; opacity: 1;" id="p-type-logs"></path><path d="M184.06724945215748,70.20147918040783A197,197,0,0,1,183.51896565033925,71.62254705488766L158.9320863294376,62.02694523327905A170.6070045455344,170.6070045455344,0,0,0,159.40691403029567,60.796264353477554Z" fill-rule="evenodd" style="fill: #1DC690; stroke: #fff; opacity: 1;" id="p-type-logs"></path><path d="M183.51896565033925,71.62254705488766A197,197,0,0,1,182.9597108624491,73.03933324674472L158.4477574759366,63.25391806715827A170.6070045455344,170.6070045455344,0,0,0,158.9320863294376,62.02694523327905Z" fill-rule="evenodd" style="fill: #1DC690; stroke: #fff; opacity: 1;" id="p-type-logs"></path><path d="M182.9597108624491,73.03933324674472A197,197,0,0,1,182.38951852141562,74.4517530587842L157.9539564235583,64.4771095051929A170.6070045455344,170.6070045455344,0,0,0,158.4477574759366,63.25391806715827Z" fill-rule="evenodd" style="fill: #1DC690; stroke: #fff; opacity: 1;" id="p-type-logs"></path><path d="M182.38951852141562,74.4517530587842A197,197,0,0,1,181.80842271402773,75.85972205483883L157.45071269232778,65.69644642351709A170.6070045455344,170.6070045455344,0,0,0,157.9539564235583,64.4771095051929Z" fill-rule="evenodd" style="fill: #1DC690; stroke: #fff; opacity: 1;" id="p-type-logs"></path><path d="M181.80842271402773,75.85972205483883A197,197,0,0,1,181.2164581788967,77.26315606481649L156.93805636676484,66.91185592869279A170.6070045455344,170.6070045455344,0,0,0,157.45071269232778,65.69644642351709Z" fill-rule="evenodd" style="fill: #1DC690; stroke: #fff; opacity: 1;" id="p-type-logs"></path><path d="M181.2164581788967,77.26315606481649A197,197,0,0,1,180.61366030437944,78.66197118973199L156.41601809408564,68.12326536206753A170.6070045455344,170.6070045455344,0,0,0,156.93805636676484,66.91185592869279Z" fill-rule="evenodd" style="fill: #1DC690; stroke: #fff; opacity: 1;" id="p-type-logs"></path><path d="M180.61366030437944,78.66197118973199A197,197,0,0,1,180.00006512646317,80.05608380672273L155.8846290823705,69.3306023041179A170.6070045455344,170.6070045455344,0,0,0,156.41601809408564,68.12326536206753Z" fill-rule="evenodd" style="fill: #1DC690; stroke: #fff; opacity: 1;" id="p-type-logs"></path><path d="M180.00006512646317,80.05608380672273A197,197,0,0,1,179.3757093266109,81.44541057404771L155.3439210986983,70.53379457877905A170.6070045455344,170.6070045455344,0,0,0,155.8846290823705,69.3306023041179Z" fill-rule="evenodd" style="fill: #1DC690; stroke: #fff; opacity: 1;" id="p-type-logs"></path><path d="M179.3757093266109,81.44541057404771A197,197,0,0,1,178.74063022956858,82.82986843606986L154.79392646724716,71.73277025775933A170.6070045455344,170.6070045455344,0,0,0,155.3439210986983,70.53379457877905Z" fill-rule="evenodd" style="fill: #1DC690; stroke: #fff; opacity: 1;" id="p-type-logs"></path><path d="M178.74063022956858,82.82986843606986A197,197,0,0,1,178.09486580113398,84.20937462822106L154.23467806736247,72.9274576648402A170.6070045455344,170.6070045455344,0,0,0,154.79392646724716,71.73277025775933Z" fill-rule="evenodd" style="fill: #1DC690; stroke: #fff; opacity: 1;" id="p-type-logs"></path><path d="M178.09486580113398,84.20937462822106A197,197,0,0,1,177.43845464588688,85.58384668195012L153.66620933159098,74.11778538016135A170.6070045455344,170.6070045455344,0,0,0,154.23467806736247,72.9274576648402Z" fill-rule="evenodd" style="fill: #1DC690; stroke: #fff; opacity: 1;" id="p-type-logs"></path><path d="M177.43845464588688,85.58384668195012A197,197,0,0,1,176.77143600488128,86.9532024296527L153.08855424368238,75.30368224449A170.6070045455344,170.6070045455344,0,0,0,153.66620933159098,74.11778538016135Z" fill-rule="evenodd" style="fill: #1DC690; stroke: #fff; opacity: 1;" id="p-type-logs"></path><path d="M176.77143600488128,86.9532024296527A197,197,0,0,1,176.09384975329954,88.31736000958341L152.50174733655751,76.48507736347511A170.6070045455344,170.6070045455344,0,0,0,153.08855424368238,75.30368224449Z" fill-rule="evenodd" style="fill: #1DC690; stroke: #fff; opacity: 1;" id="p-type-logs"></path><path d="M176.09384975329954,88.31736000958341A197,197,0,0,1,175.40573639806857,89.67623787074967L151.90582369024415,77.66190011188536A170.6070045455344,170.6070045455344,0,0,0,152.50174733655751,76.48507736347511Z" fill-rule="evenodd" style="fill: #1DC690; stroke: #fff; opacity: 1;" id="p-type-logs"></path><path d="M175.40573639806857,89.67623787074967A197,197,0,0,1,174.7071370754383,91.02975477778686L151.30081892977972,78.8340801378313A170.6070045455344,170.6070045455344,0,0,0,151.90582369024415,77.66190011188536Z" fill-rule="evenodd" style="fill: #1DC690; stroke: #fff; opacity: 1;" id="p-type-logs"></path><path d="M174.7071370754383,91.02975477778686A197,197,0,0,1,173.99809354852246,92.3778298158147L150.6867692230817,80.00154736697108A170.6070045455344,170.6070045455344,0,0,0,151.30081892977972,78.8340801378313Z" fill-rule="evenodd" style="fill: #1DC690; stroke: #fff; opacity: 1;" id="p-type-logs"></path><path d="M173.99809354852246,92.3778298158147A197,197,0,0,1,173.278648204802,93.72038239527443L150.06371127878535,81.16423200669952A170.6070045455344,170.6070045455344,0,0,0,150.6867692230817,80.00154736697108Z" fill-rule="evenodd" style="fill: #1DC690; stroke: #fff; opacity: 1;" id="p-type-logs"></path><path d="M173.278648204802,93.72038239527443A197,197,0,0,1,172.54884405359107,95.05733225674653L149.43168234404934,82.32206455032046A170.6070045455344,170.6070045455344,0,0,0,150.06371127878535,81.16423200669952Z" fill-rule="evenodd" style="fill: #1DC690; stroke: #fff; opacity: 1;" id="p-type-logs"></path><path d="M172.54884405359107,95.05733225674653A197,197,0,0,1,171.80872472346587,96.3885994757488L148.790720202329,83.47497578120189A170.6070045455344,170.6070045455344,0,0,0,149.43168234404934,82.32206455032046Z" fill-rule="evenodd" style="fill: #1DC690; stroke: #fff; opacity: 1;" id="p-type-logs"></path><path d="M171.80872472346587,96.3885994757488A197,197,0,0,1,171.05833445965652,97.71410446751426L148.1408631711176,84.62289677691385A170.6070045455344,170.6070045455344,0,0,0,148.790720202329,83.47497578120189Z" fill-rule="evenodd" style="fill: #1DC690; stroke: #fff; opacity: 1;" id="p-type-logs"></path><path d="M171.05833445965652,97.71410446751426A197,197,0,0,1,170.29771812140194,99.03376799174882L147.48215009965563,85.76575891334869A170.6070045455344,170.6070045455344,0,0,0,148.1408631711176,84.62289677691385Z" fill-rule="evenodd" style="fill: #1DC690; stroke: #fff; opacity: 1;" id="p-type-logs"></path><path d="M170.29771812140194,99.03376799174882A197,197,0,0,1,169.5269211792682,100.34751115736846L146.81462036660844,86.90349386882347A170.6070045455344,170.6070045455344,0,0,0,147.48215009965563,85.76575891334869Z" fill-rule="evenodd" style="fill: #1DC690; stroke: #fff; opacity: 1;" id="p-type-logs"></path><path d="M169.5269211792682,100.34751115736846A197,197,0,0,1,168.74598971243023,101.65525542721532L146.1383138777121,88.03603362816439A170.6070045455344,170.6070045455344,0,0,0,146.81462036660844,86.90349386882347Z" fill-rule="evenodd" style="fill: #1DC690; stroke: #fff; opacity: 1;" id="p-type-logs"></path><path d="M168.74598971243023,101.65525542721532A197,197,0,0,1,167.9549704059171,102.95692262275281L145.45327106338777,89.16331048677272A170.6070045455344,170.6070045455344,0,0,0,146.1383138777121,88.03603362816439Z" fill-rule="evenodd" style="fill: #1DC690; stroke: #fff; opacity: 1;" id="p-type-logs"></path><path d="M167.9549704059171,102.95692262275281A197,197,0,0,1,167.1539105478211,104.25243492873926L144.75953287632473,90.28525705467233A170.6070045455344,170.6070045455344,0,0,0,145.45327106338777,89.16331048677272Z" fill-rule="evenodd" style="fill: #1DC690; stroke: #fff; opacity: 1;" id="p-type-logs"></path><path d="M167.1539105478211,104.25243492873926A197,197,0,0,1,166.342858026471,105.54171489787963L144.0571407890321,91.40180626053831A170.6070045455344,170.6070045455344,0,0,0,144.75953287632473,90.28525705467233Z" fill-rule="evenodd" style="fill: #1DC690; stroke: #fff; opacity: 1;" id="p-type-logs"></path><path d="M166.342858026471,105.54171489787963A197,197,0,0,1,165.52186132756893,106.82468545545565L143.34613679135973,92.51289135570663A170.6070045455344,170.6070045455344,0,0,0,144.0571407890321,91.40180626053831Z" fill-rule="evenodd" style="fill: #1DC690; stroke: #fff; opacity: 1;" id="p-type-logs"></path><path d="M165.52186132756893,106.82468545545565A197,197,0,0,1,164.6909695312921,108.10126990393324L142.62656338798791,93.61844591816437A170.6070045455344,170.6070045455344,0,0,0,143.34613679135973,92.51289135570663Z" fill-rule="evenodd" style="fill: #1DC690; stroke: #fff; opacity: 1;" id="p-type-logs"></path><path d="M164.6909695312921,108.10126990393324A197,197,0,0,1,163.85023230935852,109.37139192754768L141.89846359588628,94.71840385652057A170.6070045455344,170.6070045455344,0,0,0,142.62656338798791,93.61844591816437Z" fill-rule="evenodd" style="fill: #1DC690; stroke: #fff; opacity: 1;" id="p-type-logs"></path><path d="M163.85023230935852,109.37139192754768A197,197,0,0,1,162.99969992205783,110.63497559686586L141.16188094174245,95.81269941395726A170.6070045455344,170.6070045455344,0,0,0,141.89846359588628,94.71840385652057Z" fill-rule="evenodd" style="fill: #1DC690; stroke: #fff; opacity: 1;" id="p-type-logs"></path><path d="M162.99969992205783,110.63497559686586A197,197,0,0,1,162.13942321524638,111.89194537332537L140.41685945935973,96.90126717216044A170.6070045455344,170.6070045455344,0,0,0,141.16188094174245,95.81269941395726Z" fill-rule="evenodd" style="fill: #1DC690; stroke: #fff; opacity: 1;" id="p-type-logs"></path><path d="M162.13942321524638,111.89194537332537A197,197,0,0,1,161.2694536173078,113.14222611375033L139.6634436870248,97.98404205523089A170.6070045455344,170.6070045455344,0,0,0,140.41685945935973,96.90126717216044Z" fill-rule="evenodd" style="fill: #1DC690; stroke: #fff; opacity: 1;" id="p-type-logs"></path><path d="M161.2694536173078,113.14222611375033A197,197,0,0,1,160.38984313607853,114.38574307484359L138.90167866484518,99.06095933357447A170.6070045455344,170.6070045455344,0,0,0,139.6634436870248,97.98404205523089Z" fill-rule="evenodd" style="fill: #1DC690; stroke: #fff; opacity: 1;" id="p-type-logs"></path><path d="M160.38984313607853,114.38574307484359A197,197,0,0,1,159.50064435573861,115.62242191765483L138.13160993205668,100.13195462777175A170.6070045455344,170.6070045455344,0,0,0,138.90167866484518,99.06095933357447Z" fill-rule="evenodd" style="fill: #1DC690; stroke: #fff; opacity: 1;" id="p-type-logs"></path><path d="M159.50064435573861,115.62242191765483A197,197,0,0,1,158.60191043366825,116.85218871202486L137.35328352430093,101.19696391242674A170.6070045455344,170.6070045455344,0,0,0,138.13160993205668,100.13195462777175Z" fill-rule="evenodd" style="fill: #1DC690; stroke: #fff; opacity: 1;" id="p-type-logs"></path><path d="M158.60191043366825,116.85218871202486A197,197,0,0,1,157.69369509727008,118.07496994100497L136.56674597087346,102.25592351999428A170.6070045455344,170.6070045455344,0,0,0,137.35328352430093,101.19696391242674Z" fill-rule="evenodd" style="fill: #1DC690; stroke: #fff; opacity: 1;" id="p-type-logs"></path><path d="M157.69369509727008,118.07496994100497A197,197,0,0,1,156.77605264075694,119.29069250525208L135.77204429194194,103.30877014458625A170.6070045455344,170.6070045455344,0,0,0,136.56674597087346,102.25592351999428Z" fill-rule="evenodd" style="fill: #1DC690; stroke: #fff; opacity: 1;" id="p-type-logs"></path><path d="M156.77605264075694,119.29069250525208A197,197,0,0,1,155.84903792190659,120.49928372739866L134.96922599573543,104.35544084575606A170.6070045455344,170.6070045455344,0,0,0,135.77204429194194,103.30877014458625Z" fill-rule="evenodd" style="fill: #1DC690; stroke: #fff; opacity: 1;" id="p-type-logs"></path><path d="M155.84903792190659,120.49928372739866A197,197,0,0,1,154.91270635878178,121.70067135639742L134.15833907570416,105.39587305226135A170.6070045455344,170.6070045455344,0,0,0,134.96922599573543,104.35544084575606Z" fill-rule="evenodd" style="fill: #1DC690; stroke: #fff; opacity: 1;" id="p-type-logs"></path><path d="M154.91270635878178,121.70067135639742A197,197,0,0,1,153.9671139264176,122.8947835718406L133.33943200765046,106.43000456580445A170.6070045455344,170.6070045455344,0,0,0,134.15833907570416,105.39587305226135Z" fill-rule="evenodd" style="fill: #1DC690; stroke: #fff; opacity: 1;" id="p-type-logs"></path><path d="M153.9671139264176,122.8947835718406A197,197,0,0,1,153.01231715347512,124.08154898825346L132.51255374683086,107.45777356475081A170.6070045455344,170.6070045455344,0,0,0,133.33943200765046,106.43000456580445Z" fill-rule="evenodd" style="fill: #1DC690; stroke: #fff; opacity: 1;" id="p-type-logs"></path><path d="M153.01231715347512,124.08154898825346A197,197,0,0,1,152.04837311886197,125.26089665936185L131.67775372502942,108.47911860782469A170.6070045455344,170.6070045455344,0,0,0,132.51255374683086,107.45777356475081Z" fill-rule="evenodd" style="fill: #1DC690; stroke: #fff; opacity: 1;" id="p-type-logs"></path><path d="M152.04837311886197,125.26089665936185A197,197,0,0,1,151.07533944832028,126.43275608233337L130.83508184760268,109.49397863778219A170.6070045455344,170.6070045455344,0,0,0,131.67775372502942,108.47911860782469Z" fill-rule="evenodd" style="fill: #1DC690; stroke: #fff; opacity: 1;" id="p-type-logs"></path><path d="M151.07533944832028,126.43275608233337A197,197,0,0,1,150.09327431098149,127.59705720199219L129.98458849049624,110.50229298506139A170.6070045455344,170.6070045455344,0,0,0,130.83508184760268,109.49397863778219Z" fill-rule="evenodd" style="fill: #1DC690; stroke: #fff; opacity: 1;" id="p-type-logs"></path><path d="M150.09327431098149,127.59705720199219A197,197,0,0,1,149.10223641588917,128.753730415007L129.12632449723324,111.50400137140919A170.6070045455344,170.6070045455344,0,0,0,129.98458849049624,110.50229298506139Z" fill-rule="evenodd" style="fill: #1DC690; stroke: #fff; opacity: 1;" id="p-type-logs"></path><path d="M52.71335016377694,189.8164974771978A197,197,0,0,1,51.24415640839854,190.21839141889404L44.37874124517627,164.7339592357741A170.6070045455344,170.6070045455344,0,0,0,45.65110036041543,164.38590887263808Z" fill-rule="evenodd" style="fill: #D7A449; stroke: #fff; opacity: 1;" id="p-type-tokenTransfers"></path><path d="M51.24415640839854,190.21839141889404A197,197,0,0,1,49.77189921527554,190.60891387473055L43.103729115027384,165.0721616032768A170.6070045455344,170.6070045455344,0,0,0,44.37874124517627,164.7339592357741Z" fill-rule="evenodd" style="fill: #D7A449; stroke: #fff; opacity: 1;" id="p-type-tokenTransfers"></path><path d="M49.77189921527554,190.60891387473055A197,197,0,0,1,48.29666659772634,190.98804149880186L41.82614019173837,165.400495756999A170.6070045455344,170.6070045455344,0,0,0,43.103729115027384,165.0721616032768Z" fill-rule="evenodd" style="fill: #D7A449; stroke: #fff; opacity: 1;" id="p-type-tokenTransfers"></path><path d="M48.29666659772634,190.98804149880186A197,197,0,0,1,46.81854674694385,191.35575162639935L40.546050851122665,165.71894206872724A170.6070045455344,170.6070045455344,0,0,0,41.82614019173837,165.400495756999Z" fill-rule="evenodd" style="fill: #D7A449; stroke: #fff; opacity: 1;" id="p-type-tokenTransfers"></path><path d="M46.81854674694385,191.35575162639935A197,197,0,0,1,45.33762802672326,191.7120222753661L39.263537618471695,166.02748150135523A170.6070045455344,170.6070045455344,0,0,0,40.546050851122665,165.71894206872724Z" fill-rule="evenodd" style="fill: #D7A449; stroke: #fff; opacity: 1;" id="p-type-tokenTransfers"></path><path d="M45.33762802672326,191.7120222753661A197,197,0,0,1,43.853998968179575,192.05683214741126L37.97867716398007,166.32609561002198A170.6070045455344,170.6070045455344,0,0,0,39.263537618471695,166.02748150135523Z" fill-rule="evenodd" style="fill: #D7A449; stroke: #fff; opacity: 1;" id="p-type-tokenTransfers"></path><path d="M43.853998968179575,192.05683214741126A197,197,0,0,1,42.3677482644551,192.3901606293829L36.69154629816218,166.61476654321433A170.6070045455344,170.6070045455344,0,0,0,37.97867716398007,166.32609561002198Z" fill-rule="evenodd" style="fill: #D7A449; stroke: #fff; opacity: 1;" id="p-type-tokenTransfers"></path><path d="M42.3677482644551,192.3901606293829A197,197,0,0,1,40.87896476541729,192.71198779450066L35.402221967260346,166.89347704383425A170.6070045455344,170.6070045455344,0,0,0,36.69154629816218,166.61476654321433Z" fill-rule="evenodd" style="fill: #D7A449; stroke: #fff; opacity: 1;" id="p-type-tokenTransfers"></path><path d="M40.87896476541729,192.71198779450066A197,197,0,0,1,39.38773747234713,193.0222944035467L34.11078124864489,167.16221045023033A170.6070045455344,170.6070045455344,0,0,0,35.402221967260346,166.89347704383425Z" fill-rule="evenodd" style="fill: #D7A449; stroke: #fff; opacity: 1;" id="p-type-tokenTransfers"></path><path d="M39.38773747234713,193.0222944035467A197,197,0,0,1,37.89415553261861,193.3210619060161L32.81730134620636,167.42095069719406A170.6070045455344,170.6070045455344,0,0,0,34.11078124864489,167.16221045023033Z" fill-rule="evenodd" style="fill: #D7A449; stroke: #fff; opacity: 1;" id="p-type-tokenTransfers"></path><path d="M37.89415553261861,193.3210619060161A197,197,0,0,1,36.39830823436933,193.6082724412256L31.521859585740156,167.66968231692002A170.6070045455344,170.6070045455344,0,0,0,32.81730134620636,167.42095069719406Z" fill-rule="evenodd" style="fill: #D7A449; stroke: #fff; opacity: 1;" id="p-type-tokenTransfers"></path><path d="M36.39830823436933,193.6082724412256A197,197,0,0,1,34.90028500116277,193.88390883938155L30.224533410323975,167.90839043993068A170.6070045455344,170.6070045455344,0,0,0,31.521859585740156,167.66968231692002Z" fill-rule="evenodd" style="fill: #D7A449; stroke: #fff; opacity: 1;" id="p-type-tokenTransfers"></path><path d="M34.90028500116277,193.88390883938155A197,197,0,0,1,33.400175386642445,194.1479546226061L28.925400375688092,168.1370607959653A170.6070045455344,170.6070045455344,0,0,0,30.224533410323975,167.90839043993068Z" fill-rule="evenodd" style="fill: #D7A449; stroke: #fff; opacity: 1;" id="p-type-tokenTransfers"></path><path d="M33.400175386642445,194.1479546226061A197,197,0,0,1,31.898069069178256,194.40039400592255L27.62453814557901,168.35567971483306A170.6070045455344,170.6070045455344,0,0,0,28.925400375688092,168.1370607959653Z" fill-rule="evenodd" style="fill: #D7A449; stroke: #fff; opacity: 1;" id="p-type-tokenTransfers"></path><path d="M31.898069069178256,194.40039400592255A197,197,0,0,1,30.394055846505445,194.64121189819875L26.322024487116654,168.56423412723004A170.6070045455344,170.6070045455344,0,0,0,27.62453814557901,168.35567971483306Z" fill-rule="evenodd" style="fill: #D7A449; stroke: #fff; opacity: 1;" id="p-type-tokenTransfers"></path><path d="M30.394055846505445,194.64121189819875A197,197,0,0,1,28.888225630356338,194.87039390304938L25.017937266145317,168.76271156552093A170.6070045455344,170.6070045455344,0,0,0,26.322024487116654,168.56423412723004Z" fill-rule="evenodd" style="fill: #D7A449; stroke: #fff; opacity: 1;" id="p-type-tokenTransfers"></path><path d="M28.888225630356338,194.87039390304938A197,197,0,0,1,27.38066844108535,195.08792631969658L23.71235444257878,168.95110016448402A170.6070045455344,170.6070045455344,0,0,0,25.017937266145317,168.76271156552093Z" fill-rule="evenodd" style="fill: #D7A449; stroke: #fff; opacity: 1;" id="p-type-tokenTransfers"></path><path d="M27.38066844108535,195.08792631969658A197,197,0,0,1,25.871474402287426,195.2937961437889L22.405354065739736,169.12938866202063A170.6070045455344,170.6070045455344,0,0,0,23.71235444257878,168.95110016448402Z" fill-rule="evenodd" style="fill: #D7A449; stroke: #fff; opacity: 1;" id="p-type-tokenTransfers"></path><path d="M25.871474402287426,195.2937961437889A197,197,0,0,1,24.36073373541037,195.487991068179L21.09701426969396,169.29756639982847A170.6070045455344,170.6070045455344,0,0,0,22.405354065739736,169.12938866202063Z" fill-rule="evenodd" style="fill: #D7A449; stroke: #fff; opacity: 1;" id="p-type-tokenTransfers"></path><path d="M24.36073373541037,195.487991068179A197,197,0,0,1,22.848536754361277,195.67049948365903L19.78741326857931,169.45562332403858A170.6070045455344,170.6070045455344,0,0,0,21.09701426969396,169.29756639982847Z" fill-rule="evenodd" style="fill: #D7A449; stroke: #fff; opacity: 1;" id="p-type-tokenTransfers"></path><path d="M22.848536754361277,195.67049948365903A197,197,0,0,1,21.334973860107475,195.84131047965477L18.47662935193002,169.6035499858166A170.6070045455344,170.6070045455344,0,0,0,19.78741326857931,169.45562332403858Z" fill-rule="evenodd" style="fill: #D7A449; stroke: #fff; opacity: 1;" id="p-type-tokenTransfers"></path><path d="M21.334973860107475,195.84131047965477A197,197,0,0,1,19.820135535272232,196.00041384487798L17.164740879996433,169.74133754192755A170.6070045455344,170.6070045455344,0,0,0,18.47662935193002,169.6035499858166Z" fill-rule="evenodd" style="fill: #D7A449; stroke: #fff; opacity: 1;" id="p-type-tokenTransfers"></path><path d="M19.820135535272232,196.00041384487798A197,197,0,0,1,18.304112338725602,196.1478000679368L15.851826279060564,169.86897775526432A170.6070045455344,170.6070045455344,0,0,0,17.164740879996433,169.74133754192755Z" fill-rule="evenodd" style="fill: #D7A449; stroke: #fff; opacity: 1;" id="p-type-tokenTransfers"></path><path d="M18.304112338725602,196.1478000679368A197,197,0,0,1,16.786994900170704,196.28346033790427L14.537964036747647,169.9864629953404A170.6070045455344,170.6070045455344,0,0,0,15.851826279060564,169.86897775526432Z" fill-rule="evenodd" style="fill: #D7A449; stroke: #fff; opacity: 1;" id="p-type-tokenTransfers"></path><path d="M16.786994900170704,196.28346033790427A197,197,0,0,1,15.268873914725784,196.40738654484514L13.22323269733408,170.09378623874582A170.6070045455344,170.6070045455344,0,0,0,14.537964036747647,169.9864629953404Z" fill-rule="evenodd" style="fill: #D7A449; stroke: #fff; opacity: 1;" id="p-type-tokenTransfers"></path><path d="M15.268873914725784,196.40738654484514A197,197,0,0,1,13.749840137502312,196.51957128030054L11.907710857051923,170.19094106956706A170.6070045455344,170.6070045455344,0,0,0,13.22323269733408,170.09378623874582Z" fill-rule="evenodd" style="fill: #D7A449; stroke: #fff; opacity: 1;" id="p-type-tokenTransfers"></path><path d="M13.749840137502312,196.51957128030054A197,197,0,0,1,12.229984378179578,196.6200078377312L10.591477159390347,170.27792167977066A170.6070045455344,170.6070045455344,0,0,0,11.907710857051923,170.19094106956706Z" fill-rule="evenodd" style="fill: #D7A449; stroke: #fff; opacity: 1;" id="p-type-tokenTransfers"></path><path d="M12.229984378179578,196.6200078377312A197,197,0,0,1,10.709397495575947,196.70869021291804L9.274610290394216,170.3547228695504A170.6070045455344,170.6070045455344,0,0,0,10.591477159390347,170.27792167977066Z" fill-rule="evenodd" style="fill: #D7A449; stroke: #fff; opacity: 1;" id="p-type-tokenTransfers"></path><path d="M10.709397495575947,196.70869021291804A197,197,0,0,1,9.18817039221722,196.7856131043212L7.957188973960141,170.42134004763807A170.6070045455344,170.6070045455344,0,0,0,9.274610290394216,170.3547228695504Z" fill-rule="evenodd" style="fill: #D7A449; stroke: #fff; opacity: 1;" id="p-type-tokenTransfers"></path><path d="M9.18817039221722,196.7856131043212A197,197,0,0,1,7.666394008902371,196.85077191339704L6.639291967130276,170.47776923157812A170.6070045455344,170.6070045455344,0,0,0,7.957188973960141,170.42134004763807Z" fill-rule="evenodd" style="fill: #D7A449; stroke: #fff; opacity: 1;" id="p-type-tokenTransfers"></path><path d="M7.666394008902371,196.85077191339704A197,197,0,0,1,6.144159319266996,196.90416274487308L5.320998055384122,170.5240070479655A170.6070045455344,170.6070045455344,0,0,0,6.639291967130276,170.47776923157812Z" fill-rule="evenodd" style="fill: #D7A449; stroke: #fff; opacity: 1;" id="p-type-tokenTransfers"></path><path d="M6.144159319266996,196.90416274487308A197,197,0,0,1,4.621557324344798,196.94578240698073L4.002386047928634,170.56005073264768A170.6070045455344,170.6070045455344,0,0,0,5.320998055384122,170.5240070479655Z" fill-rule="evenodd" style="fill: #D7A449; stroke: #fff; opacity: 1;" id="p-type-tokenTransfers"></path><path d="M4.621557324344798,196.94578240698073A197,197,0,0,1,3.098679047127437,196.97562841164614L2.683534772986918,170.58589813088938A170.6070045455344,170.6070045455344,0,0,0,4.002386047928634,170.56005073264768Z" fill-rule="evenodd" style="fill: #D7A449; stroke: #fff; opacity: 1;" id="p-type-tokenTransfers"></path><path d="M3.098679047127437,196.97562841164614A197,197,0,0,1,1.5756155271230583,196.993698974639L1.3645230730857776,170.6015476975019A170.6070045455344,170.6070045455344,0,0,0,2.683534772986918,170.58589813088938Z" fill-rule="evenodd" style="fill: #D7A449; stroke: #fff; opacity: 1;" id="p-type-tokenTransfers"></path><path d="M1.5756155271230583,196.993698974639A197,197,0,0,1,0.052457814913849383,196.9999930156792L0.045429800342415755,170.60699849693518A170.6070045455344,170.6070045455344,0,0,0,1.3645230730857776,170.6015476975019Z" fill-rule="evenodd" style="fill: #D7A449; stroke: #fff; opacity: 1;" id="p-type-tokenTransfers"></path><path d="M0.052457814913849383,196.9999930156792A197,197,0,0,1,-1.47070303328708,196.99451015850133L-1.2736661882494422,170.6022502033338A170.6070045455344,170.6070045455344,0,0,0,0.045429800342415755,170.60699849693518Z" fill-rule="evenodd" style="fill: #D7A449; stroke: #fff; opacity: 1;" id="p-type-tokenTransfers"></path><path d="M-1.47070303328708,196.99451015850133A197,197,0,0,1,-2.9937759610791455,196.97725073087722L-2.592686035533713,170.58730310055654A170.6070045455344,170.6070045455344,0,0,0,-1.2736661882494422,170.6022502033338Z" fill-rule="evenodd" style="fill: #D7A449; stroke: #fff; opacity: 1;" id="p-type-tokenTransfers"></path><path d="M-2.9937759610791455,196.97725073087722A197,197,0,0,1,-4.516669917317753,196.94821576459634L-3.9115508889061337,170.5621580821593A170.6070045455344,170.6070045455344,0,0,0,-2.592686035533713,170.58730310055654Z" fill-rule="evenodd" style="fill: #D7A449; stroke: #fff; opacity: 1;" id="p-type-tokenTransfers"></path><path d="M-4.516669917317753,196.94821576459634A197,197,0,0,1,-6.039293861557442,196.9074069954042L-5.230181905028165,170.5268166513417A170.6070045455344,170.6070045455344,0,0,0,-3.9115508889061337,170.5621580821593Z" fill-rule="evenodd" style="fill: #D7A449; stroke: #fff; opacity: 1;" id="p-type-tokenTransfers"></path><path d="M-6.039293861557442,196.9074069954042A197,197,0,0,1,-7.5615567694944,196.85482686289842L-6.548500254540343,170.48128092085736A170.6070045455344,170.6070045455344,0,0,0,-5.230181905028165,170.5268166513417Z" fill-rule="evenodd" style="fill: #D7A449; stroke: #fff; opacity: 1;" id="p-type-tokenTransfers"></path><path d="M-7.5615567694944,196.85482686289842A197,197,0,0,1,-9.083367638408,196.79047851038302L-7.86642712677479,170.42555361288734A170.6070045455344,170.6070045455344,0,0,0,-6.548500254540343,170.48128092085736Z" fill-rule="evenodd" style="fill: #D7A449; stroke: #fff; opacity: 1;" id="p-type-tokenTransfers"></path><path d="M-9.083367638408,196.79047851038302A197,197,0,0,1,-10.604635492601052,196.71436578468047L-9.183883734466615,170.35963805887766A170.6070045455344,170.6070045455344,0,0,0,-7.86642712677479,170.42555361288734Z" fill-rule="evenodd" style="fill: #D7A449; stroke: #fff; opacity: 1;" id="p-type-tokenTransfers"></path><path d="M-10.604635492601052,196.71436578468047A197,197,0,0,1,-12.125269388838449,196.6264932359017L-10.50079131846391,170.28353819933994A170.6070045455344,170.6070045455344,0,0,0,-9.183883734466615,170.35963805887766Z" fill-rule="evenodd" style="fill: #D7A449; stroke: #fff; opacity: 1;" id="p-type-tokenTransfers"></path><path d="M-12.125269388838449,196.6264932359017A197,197,0,0,1,-13.645178421783857,196.52686611717414L-11.817071152436075,170.19725858361605A170.6070045455344,170.6070045455344,0,0,0,-10.50079131846391,170.28353819933994Z" fill-rule="evenodd" style="fill: #D7A449; stroke: #fff; opacity: 1;" id="p-type-tokenTransfers"></path><path d="M-13.645178421783857,196.52686611717414A197,197,0,0,1,-15.164271729434152,196.4154903843276L-13.13264454758016,170.10080436960584A170.6070045455344,170.6070045455344,0,0,0,-11.817071152436075,170.19725858361605Z" fill-rule="evenodd" style="fill: #D7A449; stroke: #fff; opacity: 1;" id="p-type-tokenTransfers"></path><path d="M-15.164271729434152,196.4154903843276A197,197,0,0,1,-16.68245849855124,196.29237269553832L-14.44743285732498,169.9941813234591A170.6070045455344,170.6070045455344,0,0,0,-13.13264454758016,170.10080436960584Z" fill-rule="evenodd" style="fill: #D7A449; stroke: #fff; opacity: 1;" id="p-type-tokenTransfers"></path><path d="M-16.68245849855124,196.29237269553832A197,197,0,0,1,-18.199647970091025,196.15752041093089L-15.761357482032718,169.87739581923068A170.6070045455344,170.6070045455344,0,0,0,-14.44743285732498,169.9941813234591Z" fill-rule="evenodd" style="fill: #D7A449; stroke: #fff; opacity: 1;" id="p-type-tokenTransfers"></path><path d="M-18.199647970091025,196.15752041093089A197,197,0,0,1,-19.71574944462904,196.01094159213818L-17.074339873697685,169.75045483849948A170.6070045455344,170.6070045455344,0,0,0,-15.761357482032718,169.87739581923068Z" fill-rule="evenodd" style="fill: #D7A449; stroke: #fff; opacity: 1;" id="p-type-tokenTransfers"></path><path d="M-19.71574944462904,196.01094159213818A197,197,0,0,1,-21.23067228778262,195.8526450018196L-18.386301540642034,169.61336596995116A170.6070045455344,170.6070045455344,0,0,0,-17.074339873697685,169.75045483849948Z" fill-rule="evenodd" style="fill: #D7A449; stroke: #fff; opacity: 1;" id="p-type-tokenTransfers"></path><path d="M-21.23067228778262,195.8526450018196A197,197,0,0,1,-22.744325935629096,195.6826401031371L-19.697164052208066,169.46613740892428A170.6070045455344,170.6070045455344,0,0,0,-18.386301540642034,169.61336596995116Z" fill-rule="evenodd" style="fill: #D7A449; stroke: #fff; opacity: 1;" id="p-type-tokenTransfers"></path><path d="M-22.744325935629096,195.6826401031371A197,197,0,0,1,-24.25661990011984,195.50093705918934L-21.006849043446934,169.30877795692058A170.6070045455344,170.6070045455344,0,0,0,-19.697164052208066,169.46613740892428Z" fill-rule="evenodd" style="fill: #D7A449; stroke: #fff; opacity: 1;" id="p-type-tokenTransfers"></path><path d="M-24.25661990011984,195.50093705918934A197,197,0,0,1,-25.76746377448974,195.3075467324045L-22.31527821980337,169.1412970210787A170.6070045455344,170.6070045455344,0,0,0,-21.006849043446934,169.30877795692058Z" fill-rule="evenodd" style="fill: #D7A449; stroke: #fff; opacity: 1;" id="p-type-tokenTransfers"></path><path d="M-25.76746377448974,195.3075467324045A197,197,0,0,1,-27.276767238661833,195.1024806838905L-23.62237336179626,168.9637046136119A170.6070045455344,170.6070045455344,0,0,0,-22.31527821980337,169.1412970210787Z" fill-rule="evenodd" style="fill: #D7A449; stroke: #fff; opacity: 1;" id="p-type-tokenTransfers"></path><path d="M-27.276767238661833,195.1024806838905A197,197,0,0,1,-28.784440064646727,194.88575117274416L-24.928056329694655,168.7760113512094A170.6070045455344,170.6070045455344,0,0,0,-23.62237336179626,168.9637046136119Z" fill-rule="evenodd" style="fill: #D7A449; stroke: #fff; opacity: 1;" id="p-type-tokenTransfers"></path><path d="M-28.784440064646727,194.88575117274416A197,197,0,0,1,-30.29039212193658,194.65737115531823L-26.232249068189105,168.57822845440182A170.6070045455344,170.6070045455344,0,0,0,-24.928056329694655,168.7760113512094Z" fill-rule="evenodd" style="fill: #D7A449; stroke: #fff; opacity: 1;" id="p-type-tokenTransfers"></path><path d="M-30.29039212193658,194.65737115531823A197,197,0,0,1,-31.79453338289317,194.4173542844468L-27.534873611057872,168.37036774689028A170.6070045455344,170.6070045455344,0,0,0,-26.232249068189105,168.57822845440182Z" fill-rule="evenodd" style="fill: #D7A449; stroke: #fff; opacity: 1;" id="p-type-tokenTransfers"></path><path d="M-31.79453338289317,194.4173542844468A197,197,0,0,1,-33.29677392812987,194.16571490862904L-28.83585208582784,168.15244165483966A170.6070045455344,170.6070045455344,0,0,0,-27.534873611057872,168.37036774689028Z" fill-rule="evenodd" style="fill: #D7A449; stroke: #fff; opacity: 1;" id="p-type-tokenTransfers"></path><path d="M-33.29677392812987,194.16571490862904A197,197,0,0,1,-34.79702395188716,193.90246807117177L-30.135106718429864,167.92446320613575A170.6070045455344,170.6070045455344,0,0,0,-28.83585208582784,168.15244165483966Z" fill-rule="evenodd" style="fill: #D7A449; stroke: #fff; opacity: 1;" id="p-type-tokenTransfers"></path><path d="M-34.79702395188716,193.90246807117177A197,197,0,0,1,-36.2951937674013,193.62762950928982L-31.43255983784815,167.6864460296064A170.6070045455344,170.6070045455344,0,0,0,-30.135106718429864,167.92446320613575Z" fill-rule="evenodd" style="fill: #D7A449; stroke: #fff; opacity: 1;" id="p-type-tokenTransfers"></path><path d="M-36.2951937674013,193.62762950928982A197,197,0,0,1,-37.791193812265895,193.34121565316528L-32.72813388076355,167.43840435420668A170.6070045455344,170.6070045455344,0,0,0,-31.43255983784815,167.6864460296064Z" fill-rule="evenodd" style="fill: #D7A449; stroke: #fff; opacity: 1;" id="p-type-tokenTransfers"></path><path d="M-37.791193812265895,193.34121565316528A197,197,0,0,1,-39.284934653786095,193.04324362496544L-34.02175139619039,167.18035300816845A170.6070045455344,170.6070045455344,0,0,0,-32.72813388076355,167.43840435420668Z" fill-rule="evenodd" style="fill: #D7A449; stroke: #fff; opacity: 1;" id="p-type-tokenTransfers"></path><path d="M-39.284934653786095,193.04324362496544A197,197,0,0,1,-40.77632699432496,192.73373123781911L-35.31333505010658,166.91230741811376A170.6070045455344,170.6070045455344,0,0,0,-34.02175139619039,167.18035300816845Z" fill-rule="evenodd" style="fill: #D7A449; stroke: #fff; opacity: 1;" id="p-type-tokenTransfers"></path><path d="M-40.77632699432496,192.73373123781911A197,197,0,0,1,-42.26528167664177,192.4126969947517L-36.602807630076725,166.63428360813268A170.6070045455344,170.6070045455344,0,0,0,-35.31333505010658,166.91230741811376Z" fill-rule="evenodd" style="fill: #D7A449; stroke: #fff; opacity: 1;" id="p-type-tokenTransfers"></path><path d="M-42.26528167664177,192.4126969947517A197,197,0,0,1,-43.751709689221975,192.08016008757915L-37.890092049867995,166.34629819882534A170.6070045455344,170.6070045455344,0,0,0,-36.602807630076725,166.63428360813268Z" fill-rule="evenodd" style="fill: #D7A449; stroke: #fff; opacity: 1;" id="p-type-tokenTransfers"></path><path d="M-43.751709689221975,192.08016008757915A197,197,0,0,1,-45.2355221715984,191.73614039576063L-39.17511135405843,166.0483684063084A170.6070045455344,170.6070045455344,0,0,0,-37.890092049867995,166.34629819882534Z" fill-rule="evenodd" style="fill: #D7A449; stroke: #fff; opacity: 1;" id="p-type-tokenTransfers"></path><path d="M-45.2355221715984,191.73614039576063A197,197,0,0,1,-46.71663041966343,191.38065848521L-40.45778872263741,165.74051204118572A170.6070045455344,170.6070045455344,0,0,0,-39.17511135405843,166.0483684063084Z" fill-rule="evenodd" style="fill: #D7A449; stroke: #fff; opacity: 1;" id="p-type-tokenTransfers"></path><path d="M-46.71663041966343,191.38065848521A197,197,0,0,1,-48.194945890971866,191.01373560706648L-41.73804747559809,165.42274750748373A170.6070045455344,170.6070045455344,0,0,0,-40.45778872263741,165.74051204118572Z" fill-rule="evenodd" style="fill: #D7A449; stroke: #fff; opacity: 1;" id="p-type-tokenTransfers"></path><path d="M-48.194945890971866,191.01373560706648A197,197,0,0,1,-49.670380210034075,190.63539369642422L-43.01581107752135,165.0950938015512A170.6070045455344,170.6070045455344,0,0,0,-41.73804747559809,165.42274750748373Z" fill-rule="evenodd" style="fill: #D7A449; stroke: #fff; opacity: 1;" id="p-type-tokenTransfers"></path><path d="M-138.63713243503145,139.95979962186126A197,197,0,0,1,-148.15733268331533,129.83991979420438L-128.30801386069356,112.44466896711496A170.6070045455344,170.6070045455344,0,0,0,-120.0632785965648,121.20874198111152Z" fill-rule="evenodd" style="fill: #414552; stroke: #fff; opacity: 1;" id="p-type-ether"></path><path d="M-148.15733268331533,129.83991979420438A197,197,0,0,1,-154.6046275871218,122.09180614868212L-133.89153503307992,105.73460571868384A170.6070045455344,170.6070045455344,0,0,0,-128.30801386069356,112.44466896711496Z" fill-rule="evenodd" style="fill: #414552; stroke: #fff; opacity: 1;" id="p-type-ether"></path><path d="M-154.6046275871218,122.09180614868212A197,197,0,0,1,-160.27755196315525,114.54303268509209L-138.80443165647284,99.19717613180103A170.6070045455344,170.6070045455344,0,0,0,-133.89153503307992,105.73460571868384Z" fill-rule="evenodd" style="fill: #414552; stroke: #fff; opacity: 1;" id="p-type-ether"></path><path d="M-160.27755196315525,114.54303268509209A197,197,0,0,1,-164.5848414436963,108.26278200265017L-142.5346537680749,93.75831949867177A170.6070045455344,170.6070045455344,0,0,0,-138.80443165647284,99.19717613180103Z" fill-rule="evenodd" style="fill: #414552; stroke: #fff; opacity: 1;" id="p-type-ether"></path><path d="M-164.5848414436963,108.26278200265017A197,197,0,0,1,-168.61484225933646,101.8726409290497L-146.02473685169127,88.22429499516738A170.6070045455344,170.6070045455344,0,0,0,-142.5346537680749,93.75831949867177Z" fill-rule="evenodd" style="fill: #414552; stroke: #fff; opacity: 1;" id="p-type-ether"></path><path d="M-168.61484225933646,101.8726409290497A197,197,0,0,1,-172.11595307531087,95.83892057498029L-149.0567877597896,82.99893988921205A170.6070045455344,170.6070045455344,0,0,0,-146.02473685169127,88.22429499516738Z" fill-rule="evenodd" style="fill: #414552; stroke: #fff; opacity: 1;" id="p-type-ether"></path><path d="M-172.11595307531087,95.83892057498029A197,197,0,0,1,-174.98481528426822,90.49483090171799L-151.5412953127038,78.37082247206482A170.6070045455344,170.6070045455344,0,0,0,-149.0567877597896,82.99893988921205Z" fill-rule="evenodd" style="fill: #414552; stroke: #fff; opacity: 1;" id="p-type-ether"></path><path d="M-174.98481528426822,90.49483090171799A197,197,0,0,1,-177.2834461676351,85.90448017959964L-153.53196805162298,74.39546213443008A170.6070045455344,170.6070045455344,0,0,0,-151.5412953127038,78.37082247206482Z" fill-rule="evenodd" style="fill: #414552; stroke: #fff; opacity: 1;" id="p-type-ether"></path><path d="M-177.2834461676351,85.90448017959964A197,197,0,0,1,-179.26211444839225,81.6951303535989L-155.24554504842115,70.75005825169784A170.6070045455344,170.6070045455344,0,0,0,-153.53196805162298,74.39546213443008Z" fill-rule="evenodd" style="fill: #414552; stroke: #fff; opacity: 1;" id="p-type-ether"></path><path d="M-179.26211444839225,81.6951303535989A197,197,0,0,1,-180.92839733408945,77.93532599609665L-156.68858835732615,67.49397216484145A170.6070045455344,170.6070045455344,0,0,0,-155.24554504842115,70.75005825169784Z" fill-rule="evenodd" style="fill: #414552; stroke: #fff; opacity: 1;" id="p-type-ether"></path><path d="M-180.92839733408945,77.93532599609665A197,197,0,0,1,-182.1568364579321,75.01924374211046L-157.7524478455766,64.96857085336444A170.6070045455344,170.6070045455344,0,0,0,-156.68858835732615,67.49397216484145Z" fill-rule="evenodd" style="fill: #414552; stroke: #fff; opacity: 1;" id="p-type-ether"></path><path d="M-182.1568364579321,75.01924374211046A197,197,0,0,1,-182.76270912960055,73.53089249838484L-158.2771489707002,63.679620866543885A170.6070045455344,170.6070045455344,0,0,0,-157.7524478455766,64.96857085336444Z" fill-rule="evenodd" style="fill: #414552; stroke: #fff; opacity: 1;" id="p-type-ether"></path><path d="M-182.76270912960055,73.53089249838484A197,197,0,0,1,-183.26364310845443,72.27334996122045L-158.71097052200648,62.59055708301999A170.6070045455344,170.6070045455344,0,0,0,-158.2771489707002,63.679620866543885Z" fill-rule="evenodd" style="fill: #414552; stroke: #fff; opacity: 1;" id="p-type-ether"></path></g></svg>