<svg xmlns="http://www.w3.org/2000/svg" width="400" height="400" id="block-7901181"><g id="burst-container" transform="translate(200,200)"><circle r="197" style="fill: #f9f9f9; stroke: #f9f9f9; stroke-width: 3; opacity: 1;" id="circle-base"></circle><path display="none" d="M6.031385485800715e-15,-98.5A98.5,98.5,0,1,1,-6.031385485800715e-15,98.5A98.5,98.5,0,1,1,6.031385485800715e-15,-98.5Z" fill-rule="evenodd" id="p-type-root" style="stroke: #fff; opacity: 1;"></path><path d="M8.529667153919608e-15,-139.30003589374985A139.30003589374985,139.30003589374985,0,1,1,-98.16558909080047,-98.83327940757664L-69.41355372527718,-69.88568207600221A98.5,98.5,0,1,0,6.031385485800715e-15,-98.5Z" fill-rule="evenodd" style="fill: #0B1F65; stroke: #fff; opacity: 1;" id="p-type-data"></path><path d="M-98.16558909080047,-98.83327940757664A139.30003589374985,139.30003589374985,0,0,1,-3.75588488273261,-139.24939256150333L-2.65581166993627,-98.4641897563466A98.5,98.5,0,0,0,-69.41355372527718,-69.88568207600221Z" fill-rule="evenodd" style="fill: #D7A449; stroke: #fff; opacity: 1;" id="p-type-value"></path><path d="M1.0446666101440332e-14,-170.6070045455344A170.6070045455344,170.6070045455344,0,0,1,169.75166756233673,17.06227885734832L138.60165617142792,13.931292349860332A139.30003589374985,139.30003589374985,0,0,0,8.529667153919608e-15,-139.30003589374985Z" fill-rule="evenodd" style="fill: #DB3F29; stroke: #fff; opacity: 1;" id="p-type-functions"></path><path d="M169.75166756233673,17.06227885734832A170.6070045455344,170.6070045455344,0,0,1,-25.04465738202864,168.7587483261736L-20.448877122932718,137.79094100996335A139.30003589374985,139.30003589374985,0,0,0,138.60165617142792,13.931292349860332Z" fill-rule="evenodd" style="fill: #1DC690; stroke: #fff; opacity: 1;" id="p-type-logs"></path><path d="M-25.04465738202864,168.7587483261736A170.6070045455344,170.6070045455344,0,0,1,-159.7783594364134,59.81325819421879L-130.4584841860728,48.83732080972693A139.30003589374985,139.30003589374985,0,0,0,-20.448877122932718,137.79094100996335Z" fill-rule="evenodd" style="fill: #D7A449; stroke: #fff; opacity: 1;" id="p-type-tokenTransfers"></path><path d="M-159.7783594364134,59.81325819421879A170.6070045455344,170.6070045455344,0,0,1,-168.1907924993696,28.61131451775678L-137.3272070192599,23.36104047959622A139.30003589374985,139.30003589374985,0,0,0,-130.4584841860728,48.83732080972693Z" fill-rule="evenodd" style="fill: #414552; stroke: #fff; opacity: 1;" id="p-type-ether"></path><path d="M-120.227801786092,-121.04555207724144A170.6070045455344,170.6070045455344,0,0,1,-38.76323609728114,-166.1450015115304L-31.650049739124256,-135.65682567239642A139.30003589374985,139.30003589374985,0,0,0,-98.16558909080047,-98.83327940757664Z" fill-rule="evenodd" style="fill: #D7A449; stroke: #fff; opacity: 1;" id="p-type-tokenTransfers"></path><path d="M-38.76323609728114,-166.1450015115304A170.6070045455344,170.6070045455344,0,0,1,-9.196656781671608,-170.35894899898898L-7.509038818200652,-139.09749938811535A139.30003589374985,139.30003589374985,0,0,0,-31.650049739124256,-135.65682567239642Z" fill-rule="evenodd" style="fill: #414552; stroke: #fff; opacity: 1;" id="p-type-ether"></path><path d="M1.206277097160143e-14,-197A197,197,0,0,1,2.6560530867662693,-196.98209406441055L2.300209446939663,-170.5914975504354A170.6070045455344,170.6070045455344,0,0,0,1.0446666101440332e-14,-170.6070045455344Z" fill-rule="evenodd" style="fill: #DB3F29; stroke: #fff; opacity: 1;" id="p-type-functions"></path><path d="M2.6560530867662693,-196.98209406441055A197,197,0,0,1,5.311623339872734,-196.9283795126932L4.600000747664133,-170.54497938409529A170.6070045455344,170.6070045455344,0,0,0,2.300209446939663,-170.5914975504354Z" fill-rule="evenodd" style="fill: #DB3F29; stroke: #fff; opacity: 1;" id="p-type-functions"></path><path d="M5.311623339872734,-196.9283795126932A197,197,0,0,1,7.966228013431954,-196.83886610940942L6.898955831971315,-170.46745850287235A170.6070045455344,170.6070045455344,0,0,0,4.600000747664133,-170.54497938409529Z" fill-rule="evenodd" style="fill: #DB3F29; stroke: #fff; opacity: 1;" id="p-type-functions"></path><path d="M7.966228013431954,-196.83886610940942A197,197,0,0,1,10.619384537085597,-196.71357012685604L9.196656781671779,-170.35894899898898A170.6070045455344,170.6070045455344,0,0,0,6.898955831971315,-170.46745850287235Z" fill-rule="evenodd" style="fill: #DB3F29; stroke: #fff; opacity: 1;" id="p-type-functions"></path><path d="M10.619384537085597,-196.71357012685604A197,197,0,0,1,13.270610603728919,-196.55251434210703L11.49268590656039,-170.21947059796992A170.6070045455344,170.6070045455344,0,0,0,9.196656781671779,-170.35894899898898Z" fill-rule="evenodd" style="fill: #DB3F29; stroke: #fff; opacity: 1;" id="p-type-functions"></path><path d="M13.270610603728919,-196.55251434210703A197,197,0,0,1,15.91942425718739,-196.35572803287323L13.786625820346497,-170.04904865505645A170.6070045455344,170.6070045455344,0,0,0,11.49268590656039,-170.21947059796992Z" fill-rule="evenodd" style="fill: #DB3F29; stroke: #fff; opacity: 1;" id="p-type-functions"></path><path d="M15.91942425718739,-196.35572803287323A197,197,0,0,1,18.56534397982992,-196.1232469721797L16.0780595165292,-169.8477141505971A170.6070045455344,170.6070045455344,0,0,0,13.786625820346497,-170.04904865505645Z" fill-rule="evenodd" style="fill: #DB3F29; stroke: #fff; opacity: 1;" id="p-type-functions"></path><path d="M18.56534397982992,-196.1232469721797A197,197,0,0,1,21.20788878010194,-195.85511342186302L18.366570444203248,-169.61550368441593A170.6070045455344,170.6070045455344,0,0,0,16.0780595165292,-169.8477141505971Z" fill-rule="evenodd" style="fill: #DB3F29; stroke: #fff; opacity: 1;" id="p-type-functions"></path><path d="M21.20788878010194,-195.85511342186302A197,197,0,0,1,23.846578279962905,-195.55137612488846L20.6517425837821,-169.35245946915916A170.6070045455344,170.6070045455344,0,0,0,18.366570444203248,-169.61550368441593Z" fill-rule="evenodd" style="fill: #DB3F29; stroke: #fff; opacity: 1;" id="p-type-functions"></path><path d="M23.846578279962905,-195.55137612488846A197,197,0,0,1,26.480932802212596,-195.21209029648932L22.933160522624746,-169.05862932262144A170.6070045455344,170.6070045455344,0,0,0,20.6517425837821,-169.35245946915916Z" fill-rule="evenodd" style="fill: #DB3F29; stroke: #fff; opacity: 1;" id="p-type-functions"></path><path d="M26.480932802212596,-195.21209029648932A197,197,0,0,1,29.110473457689686,-194.8373176141294L25.210409530551896,-168.73406665905333A170.6070045455344,170.6070045455344,0,0,0,22.933160522624746,-169.05862932262144Z" fill-rule="evenodd" style="fill: #DB3F29; stroke: #fff; opacity: 1;" id="p-type-functions"></path><path d="M29.110473457689686,-194.8373176141294A197,197,0,0,1,31.734722232327016,-194.4271262062911L27.483075635238006,-168.37883047945127A170.6070045455344,170.6070045455344,0,0,0,25.210409530551896,-168.73406665905333Z" fill-rule="evenodd" style="fill: #DB3F29; stroke: #fff; opacity: 1;" id="p-type-functions"></path><path d="M31.734722232327016,-194.4271262062911A197,197,0,0,1,34.353202074048184,-193.9815906400904L29.75074569746599,-167.99298536083197A170.6070045455344,170.6070045455344,0,0,0,27.483075635238006,-168.37883047945127Z" fill-rule="evenodd" style="fill: #DB3F29; stroke: #fff; opacity: 1;" id="p-type-functions"></path><path d="M34.353202074048184,-193.9815906400904A197,197,0,0,1,36.96543697948889,-193.50079190772175L32.01300748623009,-167.57660144449338A170.6070045455344,170.6070045455344,0,0,0,29.75074569746599,-167.99298536083197Z" fill-rule="evenodd" style="fill: #DB3F29; stroke: #fff; opacity: 1;" id="p-type-functions"></path><path d="M36.96543697948889,-193.50079190772175A197,197,0,0,1,39.57095208052761,-192.98481741173472L34.2694497536736,-167.12975442326373A170.6070045455344,170.6070045455344,0,0,0,32.01300748623009,-167.57660144449338Z" fill-rule="evenodd" style="fill: #DB3F29; stroke: #fff; opacity: 1;" id="p-type-functions"></path><path d="M39.57095208052761,-192.98481741173472A197,197,0,0,1,42.169273730610364,-192.43376094914547L36.51966230984836,-166.65252552774183A170.6070045455344,170.6070045455344,0,0,0,34.2694497536736,-167.12975442326373Z" fill-rule="evenodd" style="fill: #DB3F29; stroke: #fff; opacity: 1;" id="p-type-functions"></path><path d="M42.169273730610364,-192.43376094914547A197,197,0,0,1,44.759929590852714,-191.84772269438568L38.763236097281265,-166.14500151153038A170.6070045455344,170.6070045455344,0,0,0,36.51966230984836,-166.65252552774183Z" fill-rule="evenodd" style="fill: #DB3F29; stroke: #fff; opacity: 1;" id="p-type-functions"></path><path d="M44.759929590852714,-191.84772269438568A197,197,0,0,1,47.34244871590478,-191.22680918109242L40.99976326533552,-165.60727463546536A170.6070045455344,170.6070045455344,0,0,0,38.763236097281265,-166.14500151153038Z" fill-rule="evenodd" style="fill: #DB3F29; stroke: #fff; opacity: 1;" id="p-type-functions"></path><path d="M47.34244871590478,-191.22680918109242A197,197,0,0,1,49.916361639562375,-190.5711332827415L43.22883724435207,-165.03944265084428A170.6070045455344,170.6070045455344,0,0,0,40.99976326533552,-165.60727463546536Z" fill-rule="evenodd" style="fill: #DB3F29; stroke: #fff; opacity: 1;" id="p-type-functions"></path><path d="M49.916361639562375,-190.5711332827415A197,197,0,0,1,52.48120046010959,-189.88081419212892L45.45005281955847,-164.4416087816564A170.6070045455344,170.6070045455344,0,0,0,43.22883724435207,-165.03944265084428Z" fill-rule="evenodd" style="fill: #DB3F29; stroke: #fff; opacity: 1;" id="p-type-functions"></path><path d="M52.48120046010959,-189.88081419212892A197,197,0,0,1,55.03649892537658,-189.15597739970318L47.663006204731076,-163.8138817058181A170.6070045455344,170.6070045455344,0,0,0,45.45005281955847,-164.4416087816564Z" fill-rule="evenodd" style="fill: #DB3F29; stroke: #fff; opacity: 1;" id="p-type-functions"></path><path d="M55.03649892537658,-189.15597739970318A197,197,0,0,1,57.581792517498116,-188.39675467075276L49.867295115598075,-163.1563755354165A170.6070045455344,170.6070045455344,0,0,0,47.663006204731076,-163.8138817058181Z" fill-rule="evenodd" style="fill: #DB3F29; stroke: #fff; opacity: 1;" id="p-type-functions"></path><path d="M57.581792517498116,-188.39675467075276A197,197,0,0,1,60.116618537356295,-187.60328402145308L52.062518842969055,-162.4692097959656A170.6070045455344,170.6070045455344,0,0,0,49.867295115598075,-163.1563755354165Z" fill-rule="evenodd" style="fill: #DB3F29; stroke: #fff; opacity: 1;" id="p-type-functions"></path><path d="M60.116618537356295,-187.60328402145308A197,197,0,0,1,62.64051618869275,-186.77570969377715L54.248278325578305,-161.75250940467845A170.6070045455344,170.6070045455344,0,0,0,52.062518842969055,-162.4692097959656Z" fill-rule="evenodd" style="fill: #DB3F29; stroke: #fff; opacity: 1;" id="p-type-functions"></path><path d="M62.64051618869275,-186.77570969377715A197,197,0,0,1,65.15302666187523,-185.9141821292743L56.424176222628795,-161.00640464775844A170.6070045455344,170.6070045455344,0,0,0,54.248278325578305,-161.75250940467845Z" fill-rule="evenodd" style="fill: #DB3F29; stroke: #fff; opacity: 1;" id="p-type-functions"></path><path d="M65.15302666187523,-185.9141821292743A197,197,0,0,1,67.65369321730273,-185.01885794172193L58.58981698602313,-160.23103115671543A170.6070045455344,170.6070045455344,0,0,0,56.424176222628795,-161.00640464775844Z" fill-rule="evenodd" style="fill: #DB3F29; stroke: #fff; opacity: 1;" id="p-type-functions"></path><path d="M67.65369321730273,-185.01885794172193A197,197,0,0,1,70.1420612684344,-184.08989988865548L60.74480693226873,-159.42652988370975A170.6070045455344,170.6070045455344,0,0,0,58.58981698602313,-160.23103115671543Z" fill-rule="evenodd" style="fill: #DB3F29; stroke: #fff; opacity: 1;" id="p-type-functions"></path><path d="M70.1420612684344,-184.08989988865548A197,197,0,0,1,72.61767846442719,-183.1274768417811L62.888754314044085,-158.5930470759289A170.6070045455344,170.6070045455344,0,0,0,60.74480693226873,-159.42652988370975Z" fill-rule="evenodd" style="fill: #DB3F29; stroke: #fff; opacity: 1;" id="p-type-functions"></path><path d="M72.61767846442719,-183.1274768417811A197,197,0,0,1,75.08009477236672,-182.1317637562774L65.02126939141282,-157.7307342490021A170.6070045455344,170.6070045455344,0,0,0,62.888754314044085,-158.5930470759289Z" fill-rule="evenodd" style="fill: #DB3F29; stroke: #fff; opacity: 1;" id="p-type-functions"></path><path d="M75.08009477236672,-182.1317637562774A197,197,0,0,1,77.52886255907737,-181.10294163899076L67.14196450267322,-156.8397481594566A170.6070045455344,170.6070045455344,0,0,0,65.02126939141282,-157.7307342490021Z" fill-rule="evenodd" style="fill: #DB3F29; stroke: #fff; opacity: 1;" id="p-type-functions"></path><path d="M77.52886255907737,-181.10294163899076A197,197,0,0,1,79.9635366724956,-180.04119751553102L69.25045413482977,-155.92025077622162A170.6070045455344,170.6070045455344,0,0,0,67.14196450267322,-156.8397481594566Z" fill-rule="evenodd" style="fill: #DB3F29; stroke: #fff; opacity: 1;" id="p-type-functions"></path><path d="M79.9635366724956,-180.04119751553102A197,197,0,0,1,82.38367452259233,-178.94672439627269L71.34635499367378,-154.9724092511847A170.6070045455344,170.6070045455344,0,0,0,69.25045413482977,-155.92025077622162Z" fill-rule="evenodd" style="fill: #DB3F29; stroke: #fff; opacity: 1;" id="p-type-functions"></path><path d="M82.38367452259233,-178.94672439627269A197,197,0,0,1,84.78883616182992,-177.8197212412683L73.42928607346137,-153.9963958888057A170.6070045455344,170.6070045455344,0,0,0,71.34635499367378,-154.9724092511847Z" fill-rule="evenodd" style="fill: #DB3F29; stroke: #fff; opacity: 1;" id="p-type-functions"></path><path d="M84.78883616182992,-177.8197212412683A197,197,0,0,1,87.17858436513838,-176.66039292408033L75.4988687261747,-152.99238811479424A170.6070045455344,170.6070045455344,0,0,0,73.42928607346137,-153.9963958888057Z" fill-rule="evenodd" style="fill: #DB3F29; stroke: #fff; opacity: 1;" id="p-type-functions"></path><path d="M87.17858436513838,-176.66039292408033A197,197,0,0,1,89.55248470939686,-175.46895019453794L77.55472673035518,-151.9605684438563A170.6070045455344,170.6070045455344,0,0,0,75.4988687261747,-152.99238811479424Z" fill-rule="evenodd" style="fill: #DB3F29; stroke: #fff; opacity: 1;" id="p-type-functions"></path><path d="M89.55248470939686,-175.46895019453794A197,197,0,0,1,91.9101056524058,-174.24560964042567L79.59648635949515,-150.9011244465153A170.6070045455344,170.6070045455344,0,0,0,77.55472673035518,-151.9605684438563Z" fill-rule="evenodd" style="fill: #DB3F29; stroke: #fff; opacity: 1;" id="p-type-functions"></path><path d="M91.9101056524058,-174.24560964042567A197,197,0,0,1,94.25101861133518,-172.9905936481107L81.62377644997619,-149.8142487150148A170.6070045455344,170.6070045455344,0,0,0,79.59648635949515,-150.9011244465153Z" fill-rule="evenodd" style="fill: #DB3F29; stroke: #fff; opacity: 1;" id="p-type-functions"></path><path d="M94.25101861133518,-172.9905936481107A197,197,0,0,1,96.57479804063519,-171.704130362116L83.6362284685417,-148.7001388283074A170.6070045455344,170.6070045455344,0,0,0,81.62377644997619,-149.8142487150148Z" fill-rule="evenodd" style="fill: #DB3F29; stroke: #fff; opacity: 1;" id="p-type-functions"></path><path d="M96.57479804063519,-171.704130362116A197,197,0,0,1,98.88102150939423,-170.38645364364714L85.6334765792909,-147.55899731613803A170.6070045455344,170.6070045455344,0,0,0,83.6362284685417,-148.7001388283074Z" fill-rule="evenodd" style="fill: #DB3F29; stroke: #fff; opacity: 1;" id="p-type-functions"></path><path d="M98.88102150939423,-170.38645364364714A197,197,0,0,1,101.16926977813128,-169.03780302807917L87.61515771018296,-146.39103162222668A170.6070045455344,170.6070045455344,0,0,0,85.6334765792909,-147.55899731613803Z" fill-rule="evenodd" style="fill: #DB3F29; stroke: #fff; opacity: 1;" id="p-type-functions"></path><path d="M101.16926977813128,-169.03780302807917A197,197,0,0,1,103.43912687500764,-167.65842368141267L89.58091161903828,-145.1964540665579A170.6070045455344,170.6070045455344,0,0,0,87.61515771018296,-146.39103162222668Z" fill-rule="evenodd" style="fill: #DB3F29; stroke: #fff; opacity: 1;" id="p-type-functions"></path><path d="M103.43912687500764,-167.65842368141267A197,197,0,0,1,105.69018017144487,-166.24856635570583L91.5303809590256,-143.97548180678416A170.6070045455344,170.6070045455344,0,0,0,89.58091161903828,-145.1964540665579Z" fill-rule="evenodd" style="fill: #DB3F29; stroke: #fff; opacity: 1;" id="p-type-functions"></path><path d="M105.69018017144487,-166.24856635570583A197,197,0,0,1,107.92202045713496,-164.80848734349132L93.46321134362275,-142.7283367987496A170.6070045455344,170.6070045455344,0,0,0,91.5303809590256,-143.97548180678416Z" fill-rule="evenodd" style="fill: #DB3F29; stroke: #fff; opacity: 1;" id="p-type-functions"></path><path d="M107.92202045713496,-164.80848734349132A197,197,0,0,1,110.13424201442923,-163.33844843118575L95.37905141103917,-141.45524575614135A170.6070045455344,170.6070045455344,0,0,0,93.46321134362275,-142.7283367987496Z" fill-rule="evenodd" style="fill: #DB3F29; stroke: #fff; opacity: 1;" id="p-type-functions"></path><path d="M110.13424201442923,-163.33844843118575A197,197,0,0,1,112.32644269209197,-161.83871685150058L97.27755288808856,-140.15644010927622A170.6070045455344,170.6070045455344,0,0,0,95.37905141103917,-141.45524575614135Z" fill-rule="evenodd" style="fill: #DB3F29; stroke: #fff; opacity: 1;" id="p-type-functions"></path><path d="M112.32644269209197,-161.83871685150058A197,197,0,0,1,114.4982239784061,-160.30956523486284L99.15837065350024,-138.8321559630299A170.6070045455344,170.6070045455344,0,0,0,97.27755288808856,-140.15644010927622Z" fill-rule="evenodd" style="fill: #DB3F29; stroke: #fff; opacity: 1;" id="p-type-functions"></path><path d="M114.4982239784061,-160.30956523486284A197,197,0,0,1,116.64919107361702,-158.75127155985487L101.02116280065732,-137.48263405391637A170.6070045455344,170.6070045455344,0,0,0,99.15837065350024,-138.8321559630299Z" fill-rule="evenodd" style="fill: #DB3F29; stroke: #fff; opacity: 1;" id="p-type-functions"></path><path d="M116.64919107361702,-158.75127155985487A197,197,0,0,1,118.77895296170179,-157.1641191026814L102.86559069975063,-136.10811970632528A170.6070045455344,170.6070045455344,0,0,0,101.02116280065732,-137.48263405391637Z" fill-rule="evenodd" style="fill: #DB3F29; stroke: #fff; opacity: 1;" id="p-type-functions"></path><path d="M118.77895296170179,-157.1641191026814A197,197,0,0,1,120.88712248145033,-155.5483963856742L104.69131905933692,-134.70886278792543A170.6070045455344,170.6070045455344,0,0,0,102.86559069975063,-136.10811970632528Z" fill-rule="evenodd" style="fill: #DB3F29; stroke: #fff; opacity: 1;" id="p-type-functions"></path><path d="M120.88712248145033,-155.5483963856742A197,197,0,0,1,122.97331639684609,-153.90439712484235L106.49801598729016,-133.2851176642422A170.6070045455344,170.6070045455344,0,0,0,104.69131905933692,-134.70886278792543Z" fill-rule="evenodd" style="fill: #DB3F29; stroke: #fff; opacity: 1;" id="p-type-functions"></path><path d="M122.97331639684609,-153.90439712484235A197,197,0,0,1,125.03715546673298,-152.232420176479L108.28535305113506,-131.83714315241755A170.6070045455344,170.6070045455344,0,0,0,106.49801598729016,-133.2851176642422Z" fill-rule="evenodd" style="fill: #DB3F29; stroke: #fff; opacity: 1;" id="p-type-functions"></path><path d="M125.03715546673298,-152.232420176479A197,197,0,0,1,127.07826451375612,-150.5327694828333L110.05300533775134,-130.36520247416053A170.6070045455344,170.6070045455344,0,0,0,108.28535305113506,-131.83714315241755Z" fill-rule="evenodd" style="fill: #DB3F29; stroke: #fff; opacity: 1;" id="p-type-functions"></path><path d="M127.07826451375612,-150.5327694828333A197,197,0,0,1,129.096272492564,-148.80575401685803L111.80065151243866,-128.86956320789733A170.6070045455344,170.6070045455344,0,0,0,110.05300533775134,-130.36520247416053Z" fill-rule="evenodd" style="fill: #DB3F29; stroke: #fff; opacity: 1;" id="p-type-functions"></path><path d="M129.096272492564,-148.80575401685803A197,197,0,0,1,131.09081255725926,-147.05168772604247L113.52797387733061,-127.35049724012912A170.6070045455344,170.6070045455344,0,0,0,111.80065151243866,-128.86956320789733Z" fill-rule="evenodd" style="fill: #DB3F29; stroke: #fff; opacity: 1;" id="p-type-functions"></path><path d="M131.09081255725926,-147.05168772604247A197,197,0,0,1,133.0615221280863,-145.27088947534122L115.23465842914796,-125.80828071600693A170.6070045455344,170.6070045455344,0,0,0,113.52797387733061,-127.35049724012912Z" fill-rule="evenodd" style="fill: #DB3F29; stroke: #fff; opacity: 1;" id="p-type-functions"></path><path d="M133.0615221280863,-145.27088947534122A197,197,0,0,1,135.00804295734315,-143.46368298920876L116.92039491627995,-124.24319398913221A170.6070045455344,170.6070045455344,0,0,0,115.23465842914796,-125.80828071600693Z" fill-rule="evenodd" style="fill: #DB3F29; stroke: #fff; opacity: 1;" id="p-type-functions"></path><path d="M135.00804295734315,-143.46368298920876A197,197,0,0,1,136.93002119450608,-141.6303967927511L118.58487689518387,-122.65552157059253A170.6070045455344,170.6070045455344,0,0,0,116.92039491627995,-124.24319398913221Z" fill-rule="evenodd" style="fill: #DB3F29; stroke: #fff; opacity: 1;" id="p-type-functions"></path><path d="M136.93002119450608,-141.6303967927511A197,197,0,0,1,138.82710745055454,-139.7713641520043L120.22780178609213,-121.04555207724133A170.6070045455344,170.6070045455344,0,0,0,118.58487689518387,-122.65552157059253Z" fill-rule="evenodd" style="fill: #DB3F29; stroke: #fff; opacity: 1;" id="p-type-functions"></path><path d="M138.82710745055454,-139.7713641520043A197,197,0,0,1,139.80659265779877,-138.79163032912442L121.07606085819673,-120.19707769768051A170.6070045455344,170.6070045455344,0,0,0,120.22780178609213,-121.04555207724133Z" fill-rule="evenodd" style="fill: #DB3F29; stroke: #fff; opacity: 1;" id="p-type-functions"></path><path d="M196.01234192500596,19.70182258255703A197,197,0,0,1,195.72889587904365,22.34276880716635L169.50619608593112,19.3494053778886A170.6070045455344,170.6070045455344,0,0,0,169.75166756233673,17.06227885734832Z" fill-rule="evenodd" style="fill: #1DC690; stroke: #fff; opacity: 1;" id="p-type-logs"></path><path d="M195.72889587904365,22.34276880716635A197,197,0,0,1,195.40986903102444,24.979653425895965L169.2299107310572,21.63301444455689A170.6070045455344,170.6070045455344,0,0,0,169.50619608593112,19.3494053778886Z" fill-rule="evenodd" style="fill: #1DC690; stroke: #fff; opacity: 1;" id="p-type-logs"></path><path d="M195.40986903102444,24.979653425895965A197,197,0,0,1,195.05531937561014,27.611997089648003L168.92286172256541,23.912690928857156A170.6070045455344,170.6070045455344,0,0,0,169.2299107310572,21.63301444455689Z" fill-rule="evenodd" style="fill: #1DC690; stroke: #fff; opacity: 1;" id="p-type-logs"></path><path d="M195.05531937561014,27.611997089648003A197,197,0,0,1,194.66531136501692,30.23932127480731L168.58510487771224,26.18802041718237A170.6070045455344,170.6070045455344,0,0,0,168.92286172256541,23.912690928857156Z" fill-rule="evenodd" style="fill: #1DC690; stroke: #fff; opacity: 1;" id="p-type-logs"></path><path d="M194.66531136501692,30.23932127480731A197,197,0,0,1,194.23991589729877,32.86114837023042L168.21670159601356,28.45858928614914A170.6070045455344,170.6070045455344,0,0,0,168.58510487771224,26.18802041718237Z" fill-rule="evenodd" style="fill: #1DC690; stroke: #fff; opacity: 1;" id="p-type-logs"></path><path d="M194.23991589729877,32.86114837023042A197,197,0,0,1,193.77921030345922,35.47700176406861L167.8177188480829,30.72398477778876A170.6070045455344,170.6070045455344,0,0,0,168.21670159601356,28.45858928614914Z" fill-rule="evenodd" style="fill: #1DC690; stroke: #fff; opacity: 1;" id="p-type-logs"></path><path d="M193.77921030345922,35.47700176406861A197,197,0,0,1,193.28327833339355,38.086405930409406L167.3882291634572,32.98379507458084A170.6070045455344,170.6070045455344,0,0,0,167.8177188480829,30.72398477778876Z" fill-rule="evenodd" style="fill: #1DC690; stroke: #fff; opacity: 1;" id="p-type-logs"></path><path d="M193.28327833339355,38.086405930409406A197,197,0,0,1,192.75221014066432,40.68888651572051L166.92831061741177,35.23760937431605A170.6070045455344,170.6070045455344,0,0,0,167.3882291634572,32.98379507458084Z" fill-rule="evenodd" style="fill: #1DC690; stroke: #fff; opacity: 1;" id="p-type-logs"></path><path d="M192.75221014066432,40.68888651572051A197,197,0,0,1,192.18610226611273,43.283970425080774L166.43804681676767,37.48501796477428A170.6070045455344,170.6070045455344,0,0,0,166.92831061741177,35.23760937431605Z" fill-rule="evenodd" style="fill: #1DC690; stroke: #fff; opacity: 1;" id="p-type-logs"></path><path d="M192.18610226611273,43.283970425080774A197,197,0,0,1,191.58505762030865,45.87118590818228L165.91752688469273,39.72561229820461A170.6070045455344,170.6070045455344,0,0,0,166.43804681676767,37.48501796477428Z" fill-rule="evenodd" style="fill: #1DC690; stroke: #fff; opacity: 1;" id="p-type-logs"></path><path d="M191.58505762030865,45.87118590818228A197,197,0,0,1,190.9491854648431,48.450062645088L165.3668454445004,41.95898506559368A170.6070045455344,170.6070045455344,0,0,0,165.91752688469273,39.72561229820461Z" fill-rule="evenodd" style="fill: #1DC690; stroke: #fff; opacity: 1;" id="p-type-logs"></path><path d="M190.9491854648431,48.450062645088A197,197,0,0,1,190.27860139246596,51.02013183172948L164.78610260244858,44.18473027070881A170.6070045455344,170.6070045455344,0,0,0,165.3668454445004,41.95898506559368Z" fill-rule="evenodd" style="fill: #1DC690; stroke: #fff; opacity: 1;" id="p-type-logs"></path><path d="M190.27860139246596,51.02013183172948A197,197,0,0,1,189.5734273060727,53.58092626512887L164.17540392954152,46.402443303902466A170.6070045455344,170.6070045455344,0,0,0,164.78610260244858,44.18473027070881Z" fill-rule="evenodd" style="fill: #1DC690; stroke: #fff; opacity: 1;" id="p-type-logs"></path><path d="M189.5734273060727,53.58092626512887A197,197,0,0,1,188.8337913965442,56.13198042833002L163.53486044233864,48.611721015664706A170.6070045455344,170.6070045455344,0,0,0,164.17540392954152,46.402443303902466Z" fill-rule="evenodd" style="fill: #1DC690; stroke: #fff; opacity: 1;" id="p-type-logs"></path><path d="M188.8337913965442,56.13198042833002A197,197,0,0,1,188.05982811944355,58.67283057502295L162.86458858277322,50.812161789910206A170.6070045455344,170.6070045455344,0,0,0,163.53486044233864,48.611721015664706Z" fill-rule="evenodd" style="fill: #1DC690; stroke: #fff; opacity: 1;" id="p-type-logs"></path><path d="M188.05982811944355,58.67283057502295A197,197,0,0,1,187.25167817057363,61.20301481384656L162.16471019698477,53.00336561698644A170.6070045455344,170.6070045455344,0,0,0,162.86458858277322,50.812161789910206Z" fill-rule="evenodd" style="fill: #1DC690; stroke: #fff; opacity: 1;" id="p-type-logs"></path><path d="M187.25167817057363,61.20301481384656A197,197,0,0,1,186.40948846040072,63.72207319235405L161.4353525131692,55.18493416638997A170.6070045455344,170.6070045455344,0,0,0,162.16471019698477,53.00336561698644Z" fill-rule="evenodd" style="fill: #1DC690; stroke: #fff; opacity: 1;" id="p-type-logs"></path><path d="M186.40948846040072,63.72207319235405A197,197,0,0,1,185.53341208734827,66.22954778062592L160.67664811845043,57.35647085917733A170.6070045455344,170.6070045455344,0,0,0,161.4353525131692,55.18493416638997Z" fill-rule="evenodd" style="fill: #1DC690; stroke: #fff; opacity: 1;" id="p-type-logs"></path><path d="M185.53341208734827,66.22954778062592A197,197,0,0,1,184.62360830996556,68.72498275451525L159.88873493477794,59.51758094005765A170.6070045455344,170.6070045455344,0,0,0,160.67664811845043,57.35647085917733Z" fill-rule="evenodd" style="fill: #1DC690; stroke: #fff; opacity: 1;" id="p-type-logs"></path><path d="M184.62360830996556,68.72498275451525A197,197,0,0,1,183.6802425179768,71.20792447851026L159.0717561938545,61.667871549153666A170.6070045455344,170.6070045455344,0,0,0,159.88873493477794,59.51758094005765Z" fill-rule="evenodd" style="fill: #1DC690; stroke: #fff; opacity: 1;" id="p-type-logs"></path><path d="M183.6802425179768,71.20792447851026A197,197,0,0,1,182.70348620221566,73.67792158819897L158.2258604110984,63.80695179341822A170.6070045455344,170.6070045455344,0,0,0,159.0717561938545,61.667871549153666Z" fill-rule="evenodd" style="fill: #1DC690; stroke: #fff; opacity: 1;" id="p-type-logs"></path><path d="M182.70348620221566,73.67792158819897A197,197,0,0,1,181.69351692345035,76.13452507232094L157.35120135864582,65.9344328176932A170.6070045455344,170.6070045455344,0,0,0,158.2258604110984,63.80695179341822Z" fill-rule="evenodd" style="fill: #1DC690; stroke: #fff; opacity: 1;" id="p-type-logs"></path><path d="M181.69351692345035,76.13452507232094A197,197,0,0,1,180.65051828010579,78.57728835439133L156.44793803739674,68.04992787539803A170.6070045455344,170.6070045455344,0,0,0,157.35120135864582,65.9344328176932Z" fill-rule="evenodd" style="fill: #1DC690; stroke: #fff; opacity: 1;" id="p-type-logs"></path><path d="M180.65051828010579,78.57728835439133A197,197,0,0,1,179.57467987488786,81.00576737388235L155.51623464811107,70.15305239883476A170.6070045455344,170.6070045455344,0,0,0,156.44793803739674,68.04992787539803Z" fill-rule="evenodd" style="fill: #1DC690; stroke: #fff; opacity: 1;" id="p-type-logs"></path><path d="M179.57467987488786,81.00576737388235A197,197,0,0,1,178.46619728031627,83.41952066694725L154.55626056155916,72.24342406909732A170.6070045455344,170.6070045455344,0,0,0,155.51623464811107,70.15305239883476Z" fill-rule="evenodd" style="fill: #1DC690; stroke: #fff; opacity: 1;" id="p-type-logs"></path><path d="M178.46619728031627,83.41952066694725A197,197,0,0,1,177.32527200317205,85.8181094466724L153.56819028773248,74.32066288557161A170.6070045455344,170.6070045455344,0,0,0,154.55626056155916,72.24342406909732Z" fill-rule="evenodd" style="fill: #1DC690; stroke: #fff; opacity: 1;" id="p-type-logs"></path><path d="M177.32527200317205,85.8181094466724A197,197,0,0,1,176.15211144786673,88.20109768284259L152.5522034441202,76.38439123501448A170.6070045455344,170.6070045455344,0,0,0,153.56819028773248,74.32066288557161Z" fill-rule="evenodd" style="fill: #1DC690; stroke: #fff; opacity: 1;" id="p-type-logs"></path><path d="M176.15211144786673,88.20109768284259A197,197,0,0,1,174.9469288787387,90.56805218120539L151.50848472305714,78.43423396019851A170.6070045455344,170.6070045455344,0,0,0,152.5522034441202,76.38439123501448Z" fill-rule="evenodd" style="fill: #1DC690; stroke: #fff; opacity: 1;" id="p-type-logs"></path><path d="M174.9469288787387,90.56805218120539A197,197,0,0,1,173.70994338128503,92.91854266221976L150.43722385814934,80.46981842811046A170.6070045455344,170.6070045455344,0,0,0,151.50848472305714,78.43423396019851Z" fill-rule="evenodd" style="fill: #1DC690; stroke: #fff; opacity: 1;" id="p-type-logs"></path><path d="M173.70994338128503,92.91854266221976A197,197,0,0,1,172.44137982233454,95.25214183927498L149.33861558978302,82.49077459769073A170.6070045455344,170.6070045455344,0,0,0,150.43722385814934,80.46981842811046Z" fill-rule="evenodd" style="fill: #1DC690; stroke: #fff; opacity: 1;" id="p-type-logs"></path><path d="M172.44137982233454,95.25214183927498A197,197,0,0,1,171.14146880917025,97.56842549636539L148.21285962972357,84.49673508710175A170.6070045455344,170.6070045455344,0,0,0,149.33861558978302,82.49077459769073Z" fill-rule="evenodd" style="fill: #1DC690; stroke: #fff; opacity: 1;" id="p-type-logs"></path><path d="M171.14146880917025,97.56842549636539A197,197,0,0,1,169.8104466476082,99.86697256520704L147.06016062481075,86.48733524051288A170.6070045455344,170.6070045455344,0,0,0,148.21285962972357,84.49673508710175Z" fill-rule="evenodd" style="fill: #1DC690; stroke: #fff; opacity: 1;" id="p-type-logs"></path><path d="M169.8104466476082,99.86697256520704A197,197,0,0,1,168.44855529904012,102.147365201782L145.88072811975655,88.46221319438978A170.6070045455344,170.6070045455344,0,0,0,147.06016062481075,86.48733524051288Z" fill-rule="evenodd" style="fill: #1DC690; stroke: #fff; opacity: 1;" id="p-type-logs"></path><path d="M168.44855529904012,102.147365201782A197,197,0,0,1,167.05604233644846,104.40918886229669L144.67477651905307,90.4210099432762A170.6070045455344,170.6070045455344,0,0,0,145.88072811975655,88.46221319438978Z" fill-rule="evenodd" style="fill: #1DC690; stroke: #fff; opacity: 1;" id="p-type-logs"></path><path d="M167.05604233644846,104.40918886229669A197,197,0,0,1,165.63316089940088,106.65203237854017L143.44252504799655,92.36336940505628A170.6070045455344,170.6070045455344,0,0,0,144.67477651905307,90.4210099432762Z" fill-rule="evenodd" style="fill: #1DC690; stroke: #fff; opacity: 1;" id="p-type-logs"></path><path d="M165.63316089940088,106.65203237854017A197,197,0,0,1,164.18016964803306,108.87548803262874L142.18419771283547,94.28893848568512A170.6070045455344,170.6070045455344,0,0,0,143.44252504799655,92.36336940505628Z" fill-rule="evenodd" style="fill: #1DC690; stroke: #fff; opacity: 1;" id="p-type-logs"></path><path d="M164.18016964803306,108.87548803262874A197,197,0,0,1,162.6973327160278,111.07915163112357L140.90002326004915,96.19736714337667A170.6070045455344,170.6070045455344,0,0,0,142.18419771283547,94.28893848568512Z" fill-rule="evenodd" style="fill: #1DC690; stroke: #fff; opacity: 1;" id="p-type-logs"></path><path d="M162.6973327160278,111.07915163112357A197,197,0,0,1,161.18491966259933,113.26262257850733L139.59023513476487,98.08830845223629A170.6070045455344,170.6070045455344,0,0,0,140.90002326004915,96.19736714337667Z" fill-rule="evenodd" style="fill: #1DC690; stroke: #fff; opacity: 1;" id="p-type-logs"></path><path d="M161.18491966259933,113.26262257850733A197,197,0,0,1,159.6432054234909,115.42550395000701L138.25507143832078,99.96141866532713A170.6070045455344,170.6070045455344,0,0,0,139.59023513476487,98.08830845223629Z" fill-rule="evenodd" style="fill: #1DC690; stroke: #fff; opacity: 1;" id="p-type-logs"></path><path d="M159.6432054234909,115.42550395000701A197,197,0,0,1,158.0724702609956,117.5674025637492L136.89477488498238,101.81635727715855A170.6070045455344,170.6070045455344,0,0,0,138.25507143832078,99.96141866532713Z" fill-rule="evenodd" style="fill: #1DC690; stroke: #fff; opacity: 1;" id="p-type-logs"></path><path d="M158.0724702609956,117.5674025637492A197,197,0,0,1,156.4729997130083,119.68792905223526L135.50959275782037,103.65278708558529A170.6070045455344,170.6070045455344,0,0,0,136.89477488498238,101.81635727715855Z" fill-rule="evenodd" style="fill: #1DC690; stroke: #fff; opacity: 1;" id="p-type-logs"></path><path d="M156.4729997130083,119.68792905223526A197,197,0,0,1,154.84508454111895,121.78669793312291L134.09977686375808,105.47037425310623A170.6070045455344,170.6070045455344,0,0,0,135.50959275782037,103.65278708558529Z" fill-rule="evenodd" style="fill: #1DC690; stroke: #fff; opacity: 1;" id="p-type-logs"></path><path d="M154.84508454111895,121.78669793312291A197,197,0,0,1,153.1890206777561,123.86332767930149L132.66558348779645,107.26878836755131A170.6070045455344,170.6070045455344,0,0,0,134.09977686375808,105.47037425310623Z" fill-rule="evenodd" style="fill: #1DC690; stroke: #fff; opacity: 1;" id="p-type-logs"></path><path d="M153.1890206777561,123.86332767930149A197,197,0,0,1,151.50510917239052,125.91744078824834L131.20727334642496,109.04770250214591A170.6070045455344,170.6070045455344,0,0,0,132.66558348779645,107.26878836755131Z" fill-rule="evenodd" style="fill: #1DC690; stroke: #fff; opacity: 1;" id="p-type-logs"></path><path d="M151.50510917239052,125.91744078824834A197,197,0,0,1,149.79365613680852,127.94866385065365L129.72511154022698,110.80679327494173A170.6070045455344,170.6070045455344,0,0,0,131.20727334642496,109.04770250214591Z" fill-rule="evenodd" style="fill: #1DC690; stroke: #fff; opacity: 1;" id="p-type-logs"></path><path d="M149.79365613680852,127.94866385065365A197,197,0,0,1,148.05497268946516,129.95662761830087L128.2193675056881,112.54574090760295A170.6070045455344,170.6070045455344,0,0,0,129.72511154022698,110.80679327494173Z" fill-rule="evenodd" style="fill: #1DC690; stroke: #fff; opacity: 1;" id="p-type-logs"></path><path d="M148.05497268946516,129.95662761830087A197,197,0,0,1,146.2893748989271,131.94096707119118L126.69031496621646,114.26422928353766A170.6070045455344,170.6070045455344,0,0,0,128.2193675056881,112.54574090760295Z" fill-rule="evenodd" style="fill: #1DC690; stroke: #fff; opacity: 1;" id="p-type-logs"></path><path d="M146.2893748989271,131.94096707119118A197,197,0,0,1,144.4971837264158,133.90132148389887L125.13823188238347,115.96194600536343A170.6070045455344,170.6070045455344,0,0,0,126.69031496621646,114.26422928353766Z" fill-rule="evenodd" style="fill: #1DC690; stroke: #fff; opacity: 1;" id="p-type-logs"></path><path d="M144.4971837264158,133.90132148389887A197,197,0,0,1,142.67872496746122,135.83733449114627L123.56340040139446,117.6385824516968A170.6070045455344,170.6070045455344,0,0,0,125.13823188238347,115.96194600536343Z" fill-rule="evenodd" style="fill: #1DC690; stroke: #fff; opacity: 1;" id="p-type-logs"></path><path d="M142.67872496746122,135.83733449114627A197,197,0,0,1,140.83432919267662,137.74865415258614L121.96610680579833,119.29383383325641A170.6070045455344,170.6070045455344,0,0,0,123.56340040139446,117.6385824516968Z" fill-rule="evenodd" style="fill: #1DC690; stroke: #fff; opacity: 1;" id="p-type-logs"></path><path d="M140.83432919267662,137.74865415258614A197,197,0,0,1,138.96433168766555,139.63493301677943L120.34664146144522,120.92739924826944A170.6070045455344,170.6070045455344,0,0,0,121.96610680579833,119.29383383325641Z" fill-rule="evenodd" style="fill: #1DC690; stroke: #fff; opacity: 1;" id="p-type-logs"></path><path d="M138.96433168766555,139.63493301677943A197,197,0,0,1,137.06907239207138,141.49582818435707L118.70529876470206,122.53898173717138A170.6070045455344,170.6070045455344,0,0,0,120.34664146144522,120.92739924826944Z" fill-rule="evenodd" style="fill: #1DC690; stroke: #fff; opacity: 1;" id="p-type-logs"></path><path d="M137.06907239207138,141.49582818435707A197,197,0,0,1,135.1488958377812,143.33100137035453L117.04237708893548,124.12828833658922A170.6070045455344,170.6070045455344,0,0,0,118.70529876470206,122.53898173717138Z" fill-rule="evenodd" style="fill: #1DC690; stroke: #fff; opacity: 1;" id="p-type-logs"></path><path d="M135.1488958377812,143.33100137035453A197,197,0,0,1,133.20415108629444,145.14011896570722L115.35817873027152,125.69503013259805A170.6070045455344,170.6070045455344,0,0,0,117.04237708893548,124.12828833658922Z" fill-rule="evenodd" style="fill: #1DC690; stroke: #fff; opacity: 1;" id="p-type-logs"></path><path d="M133.20415108629444,145.14011896570722A197,197,0,0,1,131.23519166526862,146.92285209789597L113.65300985264244,127.2389223132417A170.6070045455344,170.6070045455344,0,0,0,115.35817873027152,125.69503013259805Z" fill-rule="evenodd" style="fill: #1DC690; stroke: #fff; opacity: 1;" id="p-type-logs"></path><path d="M131.23519166526862,146.92285209789597A197,197,0,0,1,129.24237550425264,148.67887669073156L111.92718043213041,128.75968422030758A170.6070045455344,170.6070045455344,0,0,0,113.65300985264244,127.2389223132417Z" fill-rule="evenodd" style="fill: #1DC690; stroke: #fff; opacity: 1;" id="p-type-logs"></path><path d="M129.24237550425264,148.67887669073156A197,197,0,0,1,127.22606486962032,150.40787352326726L110.18100420061812,130.25703940034632A170.6070045455344,170.6070045455344,0,0,0,111.92718043213041,128.75968422030758Z" fill-rule="evenodd" style="fill: #1DC690; stroke: #fff; opacity: 1;" id="p-type-logs"></path><path d="M127.22606486962032,150.40787352326726A197,197,0,0,1,125.18662629871534,152.10952828782882L108.41479858875658,131.73071565492745A170.6070045455344,170.6070045455344,0,0,0,110.18100420061812,130.25703940034632Z" fill-rule="evenodd" style="fill: #1DC690; stroke: #fff; opacity: 1;" id="p-type-logs"></path><path d="M125.18662629871534,152.10952828782882A197,197,0,0,1,123.12443053321984,153.78353164715108L106.62888466826077,133.18044509012103A170.6070045455344,170.6070045455344,0,0,0,108.41479858875658,131.73071565492745Z" fill-rule="evenodd" style="fill: #1DC690; stroke: #fff; opacity: 1;" id="p-type-logs"></path><path d="M123.12443053321984,153.78353164715108A197,197,0,0,1,121.03985245175868,155.4295792906115L104.82358709354318,134.60596416519726A170.6070045455344,170.6070045455344,0,0,0,106.62888466826077,133.18044509012103Z" fill-rule="evenodd" style="fill: #1DC690; stroke: #fff; opacity: 1;" id="p-type-logs"></path><path d="M-28.919079362552367,194.86581754844127A197,197,0,0,1,-31.543729784036607,194.45820402161405L-27.317671323087524,168.40574465701508A170.6070045455344,170.6070045455344,0,0,0,-25.04465738202864,168.7587483261736Z" fill-rule="evenodd" style="fill: #D7A449; stroke: #fff; opacity: 1;" id="p-type-tokenTransfers"></path><path d="M-31.543729784036607,194.45820402161405A197,197,0,0,1,-34.16264599238618,194.01524068690813L-29.58571928990108,168.02212715621468A170.6070045455344,170.6070045455344,0,0,0,-27.317671323087524,168.40574465701508Z" fill-rule="evenodd" style="fill: #D7A449; stroke: #fff; opacity: 1;" id="p-type-tokenTransfers"></path><path d="M-34.16264599238618,194.01524068690813A197,197,0,0,1,-36.77535190491133,193.5370080689219L-31.848388982765663,167.60796556012022A170.6070045455344,170.6070045455344,0,0,0,-29.58571928990108,168.02212715621468Z" fill-rule="evenodd" style="fill: #D7A449; stroke: #fff; opacity: 1;" id="p-type-tokenTransfers"></path><path d="M-36.77535190491133,193.5370080689219A197,197,0,0,1,-39.38137256786807,193.0235931037208L-34.105269079673356,167.163335157573A170.6070045455344,170.6070045455344,0,0,0,-31.848388982765663,167.60796556012022Z" fill-rule="evenodd" style="fill: #D7A449; stroke: #fff; opacity: 1;" id="p-type-tokenTransfers"></path><path d="M-39.38137256786807,193.0235931037208A197,197,0,0,1,-41.980234242798154,192.4750891230338L-36.355949311084586,166.68831677622114A170.6070045455344,170.6070045455344,0,0,0,-34.105269079673356,167.163335157573Z" fill-rule="evenodd" style="fill: #D7A449; stroke: #fff; opacity: 1;" id="p-type-tokenTransfers"></path><path d="M-41.980234242798154,192.4750891230338A197,197,0,0,1,-44.57146449264821,191.89159583728673L-38.60002053450943,166.18299676782655A170.6070045455344,170.6070045455344,0,0,0,-36.355949311084586,166.68831677622114Z" fill-rule="evenodd" style="fill: #D7A449; stroke: #fff; opacity: 1;" id="p-type-tokenTransfers"></path><path d="M-44.57146449264821,191.89159583728673A197,197,0,0,1,-47.154592267652255,191.2732193174765L-40.83707480888411,165.64746699256708A170.6070045455344,170.6070045455344,0,0,0,-38.60002053450943,166.18299676782655Z" fill-rule="evenodd" style="fill: #D7A449; stroke: #fff; opacity: 1;" id="p-type-tokenTransfers"></path><path d="M-47.154592267652255,191.2732193174765A197,197,0,0,1,-49.72914799096195,190.62007197588875L-43.06670546872893,165.0818248023378A170.6070045455344,170.6070045455344,0,0,0,-40.83707480888411,165.64746699256708Z" fill-rule="evenodd" style="fill: #D7A449; stroke: #fff; opacity: 1;" id="p-type-tokenTransfers"></path><path d="M-49.72914799096195,190.62007197588875A197,197,0,0,1,-52.29466364400926,189.9322725456628L-45.28850719807453,164.48617302305368A170.6070045455344,170.6070045455344,0,0,0,-43.06670546872893,165.0818248023378Z" fill-rule="evenodd" style="fill: #D7A449; stroke: #fff; opacity: 1;" id="p-type-tokenTransfers"></path><path d="M-52.29466364400926,189.9322725456628A197,197,0,0,1,-54.850672851585685,189.2099460592078L-47.50207610414264,163.8606199359573A170.6070045455344,170.6070045455344,0,0,0,-45.28850719807453,164.48617302305368Z" fill-rule="evenodd" style="fill: #D7A449; stroke: #fff; opacity: 1;" id="p-type-tokenTransfers"></path><path d="M-54.850672851585685,189.2099460592078A197,197,0,0,1,-57.39671096662282,188.45322382547334L-49.70700979076825,163.20527925793476A170.6070045455344,170.6070045455344,0,0,0,-47.50207610414264,163.8606199359573Z" fill-rule="evenodd" style="fill: #D7A449; stroke: #fff; opacity: 1;" id="p-type-tokenTransfers"></path><path d="M-57.39671096662282,188.45322382547334A197,197,0,0,1,-59.932315154658795,187.66224340607957L-51.90290743154961,162.52027012084366A170.6070045455344,170.6070045455344,0,0,0,-49.70700979076825,163.20527925793476Z" fill-rule="evenodd" style="fill: #D7A449; stroke: #fff; opacity: 1;" id="p-type-tokenTransfers"></path><path d="M-59.932315154658795,187.66224340607957A197,197,0,0,1,-62.45702447797508,186.83714859031014L-54.08936984271294,161.80571704985647A170.6070045455344,170.6070045455344,0,0,0,-51.90290743154961,162.52027012084366Z" fill-rule="evenodd" style="fill: #D7A449; stroke: #fff; opacity: 1;" id="p-type-tokenTransfers"></path><path d="M-62.45702447797508,186.83714859031014A197,197,0,0,1,-64.97037997938872,185.97808936897337L-56.265999555678526,161.06174994082357A170.6070045455344,170.6070045455344,0,0,0,-54.08936984271294,161.80571704985647Z" fill-rule="evenodd" style="fill: #D7A449; stroke: #fff; opacity: 1;" id="p-type-tokenTransfers"></path><path d="M-64.97037997938872,185.97808936897337A197,197,0,0,1,-67.47192476568425,185.08522190713617L-58.43240088931497,160.28850403666004A170.6070045455344,170.6070045455344,0,0,0,-56.265999555678526,161.06174994082357Z" fill-rule="evenodd" style="fill: #D7A449; stroke: #fff; opacity: 1;" id="p-type-tokenTransfers"></path><path d="M-67.47192476568425,185.08522190713617A197,197,0,0,1,-69.96120409067062,184.15870851573524L-60.588180021868546,159.48611990276035A170.6070045455344,170.6070045455344,0,0,0,-58.43240088931497,160.28850403666004Z" fill-rule="evenodd" style="fill: #D7A449; stroke: #fff; opacity: 1;" id="p-type-tokenTransfers"></path><path d="M-69.96120409067062,184.15870851573524A197,197,0,0,1,-72.43776543784777,183.19871762207111L-62.73294506255456,158.65474340144547A170.6070045455344,170.6070045455344,0,0,0,-60.588180021868546,159.48611990276035Z" fill-rule="evenodd" style="fill: #D7A449; stroke: #fff; opacity: 1;" id="p-type-tokenTransfers"></path><path d="M-72.43776543784777,183.19871762207111A197,197,0,0,1,-74.90115860266779,182.2054237391906L-64.86630612279765,157.79452566544728A170.6070045455344,170.6070045455344,0,0,0,-62.73294506255456,158.65474340144547Z" fill-rule="evenodd" style="fill: #D7A449; stroke: #fff; opacity: 1;" id="p-type-tokenTransfers"></path><path d="M-74.90115860266779,182.2054237391906A197,197,0,0,1,-77.350935774376,181.17900743416263L-66.98787538710815,156.9056230704345A170.6070045455344,170.6070045455344,0,0,0,-64.86630612279765,157.79452566544728Z" fill-rule="evenodd" style="fill: #D7A449; stroke: #fff; opacity: 1;" id="p-type-tokenTransfers"></path><path d="M-77.350935774376,181.17900743416263A197,197,0,0,1,-79.78665161741658,180.11965529525364L-69.09726718358152,155.98819720658594A170.6070045455344,170.6070045455344,0,0,0,-66.98787538710815,156.9056230704345Z" fill-rule="evenodd" style="fill: #D7A449; stroke: #fff; opacity: 1;" id="p-type-tokenTransfers"></path><path d="M-79.78665161741658,180.11965529525364A197,197,0,0,1,-82.20786335238851,179.0275598980085L-71.19409805400822,155.0424148492156A170.6070045455344,170.6070045455344,0,0,0,-69.09726718358152,155.98819720658594Z" fill-rule="evenodd" style="fill: #D7A449; stroke: #fff; opacity: 1;" id="p-type-tokenTransfers"></path><path d="M-82.20786335238851,179.0275598980085A197,197,0,0,1,-84.61413083653675,177.9029197702428L-73.27798682358106,154.0684479284551A170.6070045455344,170.6070045455344,0,0,0,-71.19409805400822,155.0424148492156Z" fill-rule="evenodd" style="fill: #D7A449; stroke: #fff; opacity: 1;" id="p-type-tokenTransfers"></path><path d="M-84.61413083653675,177.9029197702428A197,197,0,0,1,-87.00501664376398,176.7459393559534L-75.34855467018751,153.06647349799943A170.6070045455344,170.6070045455344,0,0,0,-73.27798682358106,154.0684479284551Z" fill-rule="evenodd" style="fill: #D7A449; stroke: #fff; opacity: 1;" id="p-type-tokenTransfers"></path><path d="M-87.00501664376398,176.7459393559534A197,197,0,0,1,-89.38008614414873,175.55682897815325L-77.40542519327431,152.0366737029208A170.6070045455344,170.6070045455344,0,0,0,-75.34855467018751,153.06647349799943Z" fill-rule="evenodd" style="fill: #D7A449; stroke: #fff; opacity: 1;" id="p-type-tokenTransfers"></path><path d="M-89.38008614414873,175.55682897815325A197,197,0,0,1,-91.73890758295504,174.33580480063765L-79.44822448227194,150.9792357465573A170.6070045455344,170.6070045455344,0,0,0,-77.40542519327431,152.0366737029208Z" fill-rule="evenodd" style="fill: #D7A449; stroke: #fff; opacity: 1;" id="p-type-tokenTransfers"></path><path d="M-91.73890758295504,174.33580480063765A197,197,0,0,1,-94.08105215911942,173.08308878868854L-81.47658118456623,149.89435185648185A170.6070045455344,170.6070045455344,0,0,0,-79.44822448227194,150.9792357465573Z" fill-rule="evenodd" style="fill: #D7A449; stroke: #fff; opacity: 1;" id="p-type-tokenTransfers"></path><path d="M-94.08105215911942,173.08308878868854A197,197,0,0,1,-96.40609410320108,171.7989086687245L-83.4901265730053,148.782219249558A170.6070045455344,170.6070045455344,0,0,0,-81.47658118456623,149.89435185648185Z" fill-rule="evenodd" style="fill: #D7A449; stroke: #fff; opacity: 1;" id="p-type-tokenTransfers"></path><path d="M-96.40609410320108,171.7989086687245A197,197,0,0,1,-98.71361075478076,170.4834978869029L-85.48849461292892,147.64304009608858A170.6070045455344,170.6070045455344,0,0,0,-83.4901265730053,148.782219249558Z" fill-rule="evenodd" style="fill: #D7A449; stroke: #fff; opacity: 1;" id="p-type-tokenTransfers"></path><path d="M-98.71361075478076,170.4834978869029A197,197,0,0,1,-101.00318263929465,169.1370955666831L-87.47132202870854,146.4770214830639A170.6070045455344,170.6070045455344,0,0,0,-85.48849461292892,147.64304009608858Z" fill-rule="evenodd" style="fill: #D7A449; stroke: #fff; opacity: 1;" id="p-type-tokenTransfers"></path><path d="M-101.00318263929465,169.1370955666831A197,197,0,0,1,-103.27439354428907,167.7599464653566L-89.43824836978595,145.28437537651624A170.6070045455344,170.6070045455344,0,0,0,-87.47132202870854,146.4770214830639Z" fill-rule="evenodd" style="fill: #D7A449; stroke: #fff; opacity: 1;" id="p-type-tokenTransfers"></path><path d="M-103.27439354428907,167.7599464653566A197,197,0,0,1,-105.52683059508198,166.35230092955393L-91.38891607619793,144.06531858298737A170.6070045455344,170.6070045455344,0,0,0,-89.43824836978595,145.28437537651624Z" fill-rule="evenodd" style="fill: #D7A449; stroke: #fff; opacity: 1;" id="p-type-tokenTransfers"></path><path d="M-105.52683059508198,166.35230092955393A197,197,0,0,1,-107.76008432981811,164.91441484973498L-93.32297054357589,142.82007271011616A170.6070045455344,170.6070045455344,0,0,0,-91.38891607619793,144.06531858298737Z" fill-rule="evenodd" style="fill: #D7A449; stroke: #fff; opacity: 1;" id="p-type-tokenTransfers"></path><path d="M-107.76008432981811,164.91441484973498A197,197,0,0,1,-109.9737487739032,163.44654961367164L-95.24006018760794,141.54886412635327A170.6070045455344,170.6070045455344,0,0,0,-93.32297054357589,142.82007271011616Z" fill-rule="evenodd" style="fill: #D7A449; stroke: #fff; opacity: 1;" id="p-type-tokenTransfers"></path><path d="M-109.9737487739032,163.44654961367164A197,197,0,0,1,-112.16742151380477,161.9489720589311L-97.1398365079521,140.25192391981057A170.6070045455344,170.6070045455344,0,0,0,-95.24006018760794,141.54886412635327Z" fill-rule="evenodd" style="fill: #D7A449; stroke: #fff; opacity: 1;" id="p-type-tokenTransfers"></path><path d="M-112.16742151380477,161.9489720589311A197,197,0,0,1,-114.3407037702052,160.42195442436855L-99.02195415158883,138.9294878562526A170.6070045455344,170.6070045455344,0,0,0,-97.1398365079521,140.25192391981057Z" fill-rule="evenodd" style="fill: #D7A449; stroke: #fff; opacity: 1;" id="p-type-tokenTransfers"></path><path d="M-114.3407037702052,160.42195442436855A197,197,0,0,1,-116.4932004704943,158.86577430063792L-100.88607097560138,137.58179633623743A170.6070045455344,170.6070045455344,0,0,0,-99.02195415158883,138.9294878562526Z" fill-rule="evenodd" style="fill: #D7A449; stroke: #fff; opacity: 1;" id="p-type-tokenTransfers"></path><path d="M-116.4932004704943,158.86577430063792A197,197,0,0,1,-118.62452032058815,157.2807145797296L-102.73184810937269,136.20909435141536A170.6070045455344,170.6070045455344,0,0,0,-100.88607097560138,137.58179633623743Z" fill-rule="evenodd" style="fill: #D7A449; stroke: #fff; opacity: 1;" id="p-type-tokenTransfers"></path><path d="M-118.62452032058815,157.2807145797296A197,197,0,0,1,-120.73427587606074,155.66706340354486L-104.55895001618731,134.81163143999274A170.6070045455344,170.6070045455344,0,0,0,-102.73184810937269,136.20909435141536Z" fill-rule="evenodd" style="fill: #D7A449; stroke: #fff; opacity: 1;" id="p-type-tokenTransfers"></path><path d="M-184.49615766258012,69.06640143908162A197,197,0,0,1,-184.97729315507513,67.7672562305823L-160.1950349955764,58.68816544045356A170.6070045455344,170.6070045455344,0,0,0,-159.7783594364134,59.81325819421879Z" fill-rule="evenodd" style="fill: #414552; stroke: #fff; opacity: 1;" id="p-type-ether"></path></g></svg>