<svg xmlns="http://www.w3.org/2000/svg" width="400" height="400" id="block-7901133"><g id="burst-container" transform="translate(200,200)"><circle r="197" style="fill: #f9f9f9; stroke: #f9f9f9; stroke-width: 3; opacity: 1;" id="circle-base"></circle><path display="none" d="M6.031385485800715e-15,-98.5A98.5,98.5,0,1,1,-6.031385485800715e-15,98.5A98.5,98.5,0,1,1,6.031385485800715e-15,-98.5Z" fill-rule="evenodd" id="p-type-root" style="stroke: #fff; opacity: 1;"></path><path d="M8.529667153919608e-15,-139.30003589374985A139.30003589374985,139.30003589374985,0,1,1,-108.01358233397062,-87.96343576385898L-76.37713652860211,-62.19954192509197A98.5,98.5,0,1,0,6.031385485800715e-15,-98.5Z" fill-rule="evenodd" style="fill: #0B1F65; stroke: #fff; opacity: 1;" id="p-type-data"></path><path d="M-108.01358233397062,-87.96343576385898A139.30003589374985,139.30003589374985,0,0,1,-2.2889373279138923,-139.2812290508268L-1.6185231062789296,-98.4867015538364A98.5,98.5,0,0,0,-76.37713652860211,-62.19954192509197Z" fill-rule="evenodd" style="fill: #D7A449; stroke: #fff; opacity: 1;" id="p-type-value"></path><path d="M1.0446666101440332e-14,-170.6070045455344A170.6070045455344,170.6070045455344,0,0,1,169.72488172513738,-17.32669972580251L138.57978562693737,-14.147191084879116A139.30003589374985,139.30003589374985,0,0,0,8.529667153919608e-15,-139.30003589374985Z" fill-rule="evenodd" style="fill: #DB3F29; stroke: #fff; opacity: 1;" id="p-type-functions"></path><path d="M169.72488172513738,-17.32669972580251A170.6070045455344,170.6070045455344,0,0,1,89.91827270142828,144.98777270649953L73.41796222364307,118.38202069118314A139.30003589374985,139.30003589374985,0,0,0,138.57978562693737,-14.147191084879116Z" fill-rule="evenodd" style="fill: #1DC690; stroke: #fff; opacity: 1;" id="p-type-logs"></path><path d="M89.91827270142828,144.98777270649953A170.6070045455344,170.6070045455344,0,0,1,-71.2485660281946,155.01739205304025L-58.17421055802422,126.57117059564021A139.30003589374985,139.30003589374985,0,0,0,73.41796222364307,118.38202069118314Z" fill-rule="evenodd" style="fill: #D7A449; stroke: #fff; opacity: 1;" id="p-type-tokenTransfers"></path><path d="M-71.2485660281946,155.01739205304025A170.6070045455344,170.6070045455344,0,0,1,-165.16710928594958,42.73846054928967L-134.85838001369387,34.895806912609515A139.30003589374985,139.30003589374985,0,0,0,-58.17421055802422,126.57117059564021Z" fill-rule="evenodd" style="fill: #414552; stroke: #fff; opacity: 1;" id="p-type-ether"></path><path d="M-132.28908100416368,-107.73276682176979A170.6070045455344,170.6070045455344,0,0,1,-65.55312515912715,-157.51043705695128L-53.52390256155461,-128.60673331743251A139.30003589374985,139.30003589374985,0,0,0,-108.01358233397062,-87.96343576385898Z" fill-rule="evenodd" style="fill: #D7A449; stroke: #fff; opacity: 1;" id="p-type-tokenTransfers"></path><path d="M-65.55312515912715,-157.51043705695128A170.6070045455344,170.6070045455344,0,0,1,-5.605971544393367,-170.5148764273764L-4.577256598775308,-139.22481360026654A139.30003589374985,139.30003589374985,0,0,0,-53.52390256155461,-128.60673331743251Z" fill-rule="evenodd" style="fill: #414552; stroke: #fff; opacity: 1;" id="p-type-ether"></path><path d="M1.206277097160143e-14,-197A197,197,0,0,1,5.659451278842588,-196.91869035523877L4.901228578958009,-170.53658832759848A170.6070045455344,170.6070045455344,0,0,0,1.0446666101440332e-14,-170.6070045455344Z" fill-rule="evenodd" style="fill: #DB3F29; stroke: #fff; opacity: 1;" id="p-type-functions"></path><path d="M5.659451278842588,-196.91869035523877A197,197,0,0,1,9.022220938745512,-196.79329137278145L7.8134725315094995,-170.42798962318176A170.6070045455344,170.6070045455344,0,0,0,4.901228578958009,-170.53658832759848Z" fill-rule="evenodd" style="fill: #DB3F29; stroke: #fff; opacity: 1;" id="p-type-functions"></path><path d="M9.022220938745512,-196.79329137278145A197,197,0,0,1,12.326083109714356,-196.61400681327976L10.674701102170923,-170.27272464014695A170.6070045455344,170.6070045455344,0,0,0,7.8134725315094995,-170.42798962318176Z" fill-rule="evenodd" style="fill: #DB3F29; stroke: #fff; opacity: 1;" id="p-type-functions"></path><path d="M12.326083109714356,-196.61400681327976A197,197,0,0,1,13.941073435422094,-196.50609779716294L12.07332375109993,-170.17927269089242A170.6070045455344,170.6070045455344,0,0,0,10.674701102170923,-170.27272464014695Z" fill-rule="evenodd" style="fill: #DB3F29; stroke: #fff; opacity: 1;" id="p-type-functions"></path><path d="M13.941073435422094,-196.50609779716294A197,197,0,0,1,15.555122655833356,-196.38492345178125L13.471131378934551,-170.0743326295049A170.6070045455344,170.6070045455344,0,0,0,12.07332375109993,-170.17927269089242Z" fill-rule="evenodd" style="fill: #DB3F29; stroke: #fff; opacity: 1;" id="p-type-functions"></path><path d="M15.555122655833356,-196.38492345178125A197,197,0,0,1,17.16812181303488,-196.250491957123L14.86802962535396,-169.95791154006216A170.6070045455344,170.6070045455344,0,0,0,13.471131378934551,-170.0743326295049Z" fill-rule="evenodd" style="fill: #DB3F29; stroke: #fff; opacity: 1;" id="p-type-functions"></path><path d="M17.16812181303488,-196.250491957123A197,197,0,0,1,18.779962019998916,-196.10281238811288L16.263924191425982,-169.83001728167946A170.6070045455344,170.6070045455344,0,0,0,14.86802962535396,-169.95791154006216Z" fill-rule="evenodd" style="fill: #DB3F29; stroke: #fff; opacity: 1;" id="p-type-functions"></path><path d="M18.779962019998916,-196.10281238811288A197,197,0,0,1,20.39053446793374,-195.94189471399935L17.65872084597283,-169.69065848797925A170.6070045455344,170.6070045455344,0,0,0,16.263924191425982,-169.83001728167946Z" fill-rule="evenodd" style="fill: #DB3F29; stroke: #fff; opacity: 1;" id="p-type-functions"></path><path d="M20.39053446793374,-195.94189471399935A197,197,0,0,1,21.999730433628898,-195.7677497976816L19.052325431932267,-169.53984456650815A170.6070045455344,170.6070045455344,0,0,0,17.65872084597283,-169.69065848797925Z" fill-rule="evenodd" style="fill: #DB3F29; stroke: #fff; opacity: 1;" id="p-type-functions"></path><path d="M21.999730433628898,-195.7677497976816A197,197,0,0,1,23.607441286794657,-195.58038939497627L20.444643872713772,-169.37758569810205A170.6070045455344,170.6070045455344,0,0,0,19.052325431932267,-169.53984456650815Z" fill-rule="evenodd" style="fill: #DB3F29; stroke: #fff; opacity: 1;" id="p-type-functions"></path><path d="M23.607441286794657,-195.58038939497627A197,197,0,0,1,25.21355849739522,-195.37982615382384L21.835582178549256,-169.20389283619872A170.6070045455344,170.6070045455344,0,0,0,20.444643872713772,-169.37758569810205Z" fill-rule="evenodd" style="fill: #DB3F29; stroke: #fff; opacity: 1;" id="p-type-functions"></path><path d="M25.21355849739522,-195.37982615382384A197,197,0,0,1,26.817973642975115,-195.16607361343492L23.225046452837955,-169.01877770609843A170.6070045455344,170.6070045455344,0,0,0,21.835582178549256,-169.20389283619872Z" fill-rule="evenodd" style="fill: #DB3F29; stroke: #fff; opacity: 1;" id="p-type-functions"></path><path d="M26.817973642975115,-195.16607361343492A197,197,0,0,1,28.420578415978383,-194.93914620337605L24.61294289848498,-168.82225280417245A170.6070045455344,170.6070045455344,0,0,0,23.225046452837955,-169.01877770609843Z" fill-rule="evenodd" style="fill: #DB3F29; stroke: #fff; opacity: 1;" id="p-type-functions"></path><path d="M28.420578415978383,-194.93914620337605A197,197,0,0,1,30.021264631059974,-194.6990592425959L25.9991778242332,-168.61433139701944A170.6070045455344,170.6070045455344,0,0,0,24.61294289848498,-168.82225280417245Z" fill-rule="evenodd" style="fill: #DB3F29; stroke: #fff; opacity: 1;" id="p-type-functions"></path><path d="M30.021264631059974,-194.6990592425959A197,197,0,0,1,31.619924232388897,-194.44582893839092L27.38365765098795,-168.39502752056987A170.6070045455344,170.6070045455344,0,0,0,25.9991778242332,-168.61433139701944Z" fill-rule="evenodd" style="fill: #DB3F29; stroke: #fff; opacity: 1;" id="p-type-functions"></path><path d="M31.619924232388897,-194.44582893839092A197,197,0,0,1,33.21644930094262,-194.17947238531139L28.766288918134165,-168.16435597913855A170.6070045455344,170.6070045455344,0,0,0,27.38365765098795,-168.39502752056987Z" fill-rule="evenodd" style="fill: #DB3F29; stroke: #fff; opacity: 1;" id="p-type-functions"></path><path d="M33.21644930094262,-194.17947238531139A197,197,0,0,1,34.810732061792265,-193.90000756400735L30.146978289845553,-167.92233234442517A170.6070045455344,170.6070045455344,0,0,0,28.766288918134165,-168.16435597913855Z" fill-rule="evenodd" style="fill: #DB3F29; stroke: #fff; opacity: 1;" id="p-type-functions"></path><path d="M34.810732061792265,-193.90000756400735A197,197,0,0,1,36.402664891378066,-193.60745334001487L31.525632561385294,-167.66897295446324A170.6070045455344,170.6070045455344,0,0,0,30.146978289845553,-167.92233234442517Z" fill-rule="evenodd" style="fill: #DB3F29; stroke: #fff; opacity: 1;" id="p-type-functions"></path><path d="M36.402664891378066,-193.60745334001487A197,197,0,0,1,37.99214032477454,-193.30182946248243L32.90215866539793,-167.40429491251706A170.6070045455344,170.6070045455344,0,0,0,31.525632561385294,-167.66897295446324Z" fill-rule="evenodd" style="fill: #DB3F29; stroke: #fff; opacity: 1;" id="p-type-functions"></path><path d="M37.99214032477454,-193.30182946248243A197,197,0,0,1,39.57905106294509,-192.98315656283785L34.27646367819194,-167.12831608592717A170.6070045455344,170.6070045455344,0,0,0,32.90215866539793,-167.40429491251706Z" fill-rule="evenodd" style="fill: #DB3F29; stroke: #fff; opacity: 1;" id="p-type-functions"></path><path d="M39.57905106294509,-192.98315656283785A197,197,0,0,1,41.163289979985265,-192.65145615339543L35.648454826012674,-166.84105510490437A170.6070045455344,170.6070045455344,0,0,0,34.27646367819194,-167.12831608592717Z" fill-rule="evenodd" style="fill: #DB3F29; stroke: #fff; opacity: 1;" id="p-type-functions"></path><path d="M41.163289979985265,-192.65145615339543A197,197,0,0,1,42.74475013035441,-192.30675062590382L37.01803949130512,-166.5425313612717A170.6070045455344,170.6070045455344,0,0,0,35.648454826012674,-166.84105510490437Z" fill-rule="evenodd" style="fill: #DB3F29; stroke: #fff; opacity: 1;" id="p-type-functions"></path><path d="M42.74475013035441,-192.30675062590382A197,197,0,0,1,44.32332475609517,-191.94906325003444L38.38512521896612,-166.23276500715582A170.6070045455344,170.6070045455344,0,0,0,37.01803949130512,-166.5425313612717Z" fill-rule="evenodd" style="fill: #DB3F29; stroke: #fff; opacity: 1;" id="p-type-functions"></path><path d="M44.32332475609517,-191.94906325003444A197,197,0,0,1,45.898907294040185,-191.57841817181054L39.74961972258567,-165.91177695362626A170.6070045455344,170.6070045455344,0,0,0,38.38512521896612,-166.23276500715582Z" fill-rule="evenodd" style="fill: #DB3F29; stroke: #fff; opacity: 1;" id="p-type-functions"></path><path d="M45.898907294040185,-191.57841817181054A197,197,0,0,1,47.471391383005866,-191.19484041197734L41.11143089067677,-165.57958886928398A170.6070045455344,170.6070045455344,0,0,0,39.74961972258567,-165.91177695362626Z" fill-rule="evenodd" style="fill: #DB3F29; stroke: #fff; opacity: 1;" id="p-type-functions"></path><path d="M47.471391383005866,-191.19484041197734A197,197,0,0,1,49.040670870972335,-190.79835586431284L42.470466792893575,-165.23622317879855A170.6070045455344,170.6070045455344,0,0,0,41.11143089067677,-165.57958886928398Z" fill-rule="evenodd" style="fill: #DB3F29; stroke: #fff; opacity: 1;" id="p-type-functions"></path><path d="M49.040670870972335,-190.79835586431284A197,197,0,0,1,50.60663982224919,-190.38899129388008L43.82663568623701,-164.88170306139446A170.6070045455344,170.6070045455344,0,0,0,42.470466792893575,-165.23622317879855Z" fill-rule="evenodd" style="fill: #DB3F29; stroke: #fff; opacity: 1;" id="p-type-functions"></path><path d="M50.60663982224919,-190.38899129388008A197,197,0,0,1,52.169192524627206,-189.96677433521995L45.179846021248395,-164.51605244928618A170.6070045455344,170.6070045455344,0,0,0,43.82663568623701,-164.88170306139446Z" fill-rule="evenodd" style="fill: #DB3F29; stroke: #fff; opacity: 1;" id="p-type-functions"></path><path d="M52.169192524627206,-189.96677433521995A197,197,0,0,1,53.728223496513905,-189.5317334904861L46.53000644818902,-164.13929602606282A170.6070045455344,170.6070045455344,0,0,0,45.179846021248395,-164.51605244928618Z" fill-rule="evenodd" style="fill: #DB3F29; stroke: #fff; opacity: 1;" id="p-type-functions"></path><path d="M53.728223496513905,-189.5317334904861A197,197,0,0,1,55.28362749405492,-189.08389812752057L47.877025823207404,-163.75145922502168A170.6070045455344,170.6070045455344,0,0,0,46.53000644818902,-164.13929602606282Z" fill-rule="evenodd" style="fill: #DB3F29; stroke: #fff; opacity: 1;" id="p-type-functions"></path><path d="M55.28362749405492,-189.08389812752057A197,197,0,0,1,56.835299518237825,-188.6232984778715L49.22081321449142,-163.35256822745134A170.6070045455344,170.6070045455344,0,0,0,47.877025823207404,-163.75145922502168Z" fill-rule="evenodd" style="fill: #DB3F29; stroke: #fff; opacity: 1;" id="p-type-functions"></path><path d="M56.835299518237825,-188.6232984778715A197,197,0,0,1,58.383134821980946,-188.1499656347521L50.56127790840736,-162.94264996086443A170.6070045455344,170.6070045455344,0,0,0,49.22081321449142,-163.35256822745134Z" fill-rule="evenodd" style="fill: #DB3F29; stroke: #fff; opacity: 1;" id="p-type-functions"></path><path d="M58.383134821980946,-188.1499656347521A197,197,0,0,1,59.92702891720366,-187.66393155094198L51.898329415623024,-162.52173209717978A170.6070045455344,170.6070045455344,0,0,0,50.56127790840736,-162.94264996086443Z" fill-rule="evenodd" style="fill: #DB3F29; stroke: #fff; opacity: 1;" id="p-type-functions"></path><path d="M59.92702891720366,-187.66393155094198A197,197,0,0,1,61.46687758188072,-187.1652290366298L53.23187747721691,-162.08984305085426A170.6070045455344,170.6070045455344,0,0,0,51.898329415623024,-162.52173209717978Z" fill-rule="evenodd" style="fill: #DB3F29; stroke: #fff; opacity: 1;" id="p-type-functions"></path><path d="M61.46687758188072,-187.1652290366298A197,197,0,0,1,63.00257686707712,-186.65389175719866L54.56183207077059,-161.64701197696488A170.6070045455344,170.6070045455344,0,0,0,53.23187747721691,-162.08984305085426Z" fill-rule="evenodd" style="fill: #DB3F29; stroke: #fff; opacity: 1;" id="p-type-functions"></path><path d="M63.00257686707712,-186.65389175719866A197,197,0,0,1,64.53402310396595,-186.12995423095333L55.8881034164464,-161.19326876924043A170.6070045455344,170.6070045455344,0,0,0,54.56183207077059,-161.64701197696488Z" fill-rule="evenodd" style="fill: #DB3F29; stroke: #fff; opacity: 1;" id="p-type-functions"></path><path d="M64.53402310396595,-186.12995423095333A197,197,0,0,1,66.06111291082601,-185.59345182679021L57.21060198304749,-160.72864405804376A170.6070045455344,170.6070045455344,0,0,0,55.8881034164464,-161.19326876924043Z" fill-rule="evenodd" style="fill: #DB3F29; stroke: #fff; opacity: 1;" id="p-type-functions"></path><path d="M66.06111291082601,-185.59345182679021A197,197,0,0,1,67.58374320002136,-185.04442076180942L58.5292384940623,-160.25316920830358A170.6070045455344,170.6070045455344,0,0,0,57.21060198304749,-160.72864405804376Z" fill-rule="evenodd" style="fill: #DB3F29; stroke: #fff; opacity: 1;" id="p-type-functions"></path><path d="M67.58374320002136,-185.04442076180942A197,197,0,0,1,69.10181118495963,-184.48289809887035L59.843923933690704,-159.76687631739765A170.6070045455344,170.6070045455344,0,0,0,58.5292384940623,-160.25316920830358Z" fill-rule="evenodd" style="fill: #DB3F29; stroke: #fff; opacity: 1;" id="p-type-functions"></path><path d="M69.10181118495963,-184.48289809887035A197,197,0,0,1,70.61521438703149,-183.90892174408935L61.15456955285364,-159.2697982129857A170.6070045455344,170.6070045455344,0,0,0,59.843923933690704,-159.76687631739765Z" fill-rule="evenodd" style="fill: #DB3F29; stroke: #fff; opacity: 1;" id="p-type-functions"></path><path d="M70.61521438703149,-183.90892174408935A197,197,0,0,1,72.12385064252777,-183.32253044428103L62.46108687518365,-158.76196845079352A170.6070045455344,170.6070045455344,0,0,0,61.15456955285364,-159.2697982129857Z" fill-rule="evenodd" style="fill: #DB3F29; stroke: #fff; opacity: 1;" id="p-type-functions"></path><path d="M72.12385064252777,-183.32253044428103A197,197,0,0,1,73.6276181095369,-182.72376378434248L63.76338770299814,-158.24342131234758A170.6070045455344,170.6070045455344,0,0,0,62.46108687518365,-158.76196845079352Z" fill-rule="evenodd" style="fill: #DB3F29; stroke: #fff; opacity: 1;" id="p-type-functions"></path><path d="M73.6276181095369,-182.72376378434248A197,197,0,0,1,75.12641527481912,-182.1126621845813L65.06138412325265,-157.71419180266108A170.6070045455344,170.6070045455344,0,0,0,63.76338770299814,-158.24342131234758Z" fill-rule="evenodd" style="fill: #DB3F29; stroke: #fff; opacity: 1;" id="p-type-functions"></path><path d="M75.12641527481912,-182.1126621845813A197,197,0,0,1,76.62014096065991,-181.48926689798657L66.3549885134761,-157.17431564787057A170.6070045455344,170.6070045455344,0,0,0,65.06138412325265,-157.71419180266108Z" fill-rule="evenodd" style="fill: #DB3F29; stroke: #fff; opacity: 1;" id="p-type-functions"></path><path d="M76.62014096065991,-181.48926689798657A197,197,0,0,1,78.1086943316994,-180.85362000744456L67.64411354768525,-156.6238292928246A170.6070045455344,170.6070045455344,0,0,0,66.3549885134761,-157.17431564787057Z" fill-rule="evenodd" style="fill: #DB3F29; stroke: #fff; opacity: 1;" id="p-type-functions"></path><path d="M78.1086943316994,-180.85362000744456A197,197,0,0,1,79.59197490174003,-180.20576442289737L68.92867220228031,-156.06276989862312A170.6070045455344,170.6070045455344,0,0,0,67.64411354768525,-156.6238292928246Z" fill-rule="evenodd" style="fill: #DB3F29; stroke: #fff; opacity: 1;" id="p-type-functions"></path><path d="M79.59197490174003,-180.20576442289737A197,197,0,0,1,81.06988254052932,-179.5457438784467L70.20857776191892,-155.4911753401092A170.6070045455344,170.6070045455344,0,0,0,68.92867220228031,-156.06276989862312Z" fill-rule="evenodd" style="fill: #DB3F29; stroke: #fff; opacity: 1;" id="p-type-functions"></path><path d="M81.06988254052932,-179.5457438784467A197,197,0,0,1,82.54231748051993,-178.8736029294011L71.4837438253706,-154.90908420331195A170.6070045455344,170.6070045455344,0,0,0,70.20857776191892,-155.4911753401092Z" fill-rule="evenodd" style="fill: #DB3F29; stroke: #fff; opacity: 1;" id="p-type-functions"></path><path d="M82.54231748051993,-178.8736029294011A197,197,0,0,1,84.00918032360383,-178.1893869492687L72.75408431134872,-154.316535782842A170.6070045455344,170.6070045455344,0,0,0,71.4837438253706,-154.90908420331195Z" fill-rule="evenodd" style="fill: #DB3F29; stroke: #fff; opacity: 1;" id="p-type-functions"></path><path d="M84.00918032360383,-178.1893869492687A197,197,0,0,1,85.47037204782302,-177.49314212669378L74.01951346432212,-153.71357007923874A170.6070045455344,170.6070045455344,0,0,0,72.75408431134872,-154.316535782842Z" fill-rule="evenodd" style="fill: #DB3F29; stroke: #fff; opacity: 1;" id="p-type-functions"></path><path d="M85.47037204782302,-177.49314212669378A197,197,0,0,1,86.92579401405334,-176.78491546233906L75.27994586030349,-153.10022779627002A170.6070045455344,170.6070045455344,0,0,0,74.01951346432212,-153.71357007923874Z" fill-rule="evenodd" style="fill: #DB3F29; stroke: #fff; opacity: 1;" id="p-type-functions"></path><path d="M86.92579401405334,-176.78491546233906A197,197,0,0,1,88.37534797266395,-176.06475476571273L76.53529641261656,-152.47655033818452A170.6070045455344,170.6070045455344,0,0,0,75.27994586030349,-153.10022779627002Z" fill-rule="evenodd" style="fill: #DB3F29; stroke: #fff; opacity: 1;" id="p-type-functions"></path><path d="M88.37534797266395,-176.06475476571273A197,197,0,0,1,89.81893607014905,-175.33270865194115L77.78548037763952,-151.84257980691666A170.6070045455344,170.6070045455344,0,0,0,76.53529641261656,-152.47655033818452Z" fill-rule="evenodd" style="fill: #DB3F29; stroke: #fff; opacity: 1;" id="p-type-functions"></path><path d="M89.81893607014905,-175.33270865194115A197,197,0,0,1,91.25646085573425,-174.5888265384868L79.03041336052607,-151.19835899924436A170.6070045455344,170.6070045455344,0,0,0,77.78548037763952,-151.84257980691666Z" fill-rule="evenodd" style="fill: #DB3F29; stroke: #fff; opacity: 1;" id="p-type-functions"></path><path d="M91.25646085573425,-174.5888265384868A197,197,0,0,1,92.6878252879544,-173.83315864181276L80.27001132090221,-150.54393140390027A170.6070045455344,170.6070045455344,0,0,0,79.03041336052607,-151.19835899924436Z" fill-rule="evenodd" style="fill: #DB3F29; stroke: #fff; opacity: 1;" id="p-type-functions"></path><path d="M92.6878252879544,-173.83315864181276A197,197,0,0,1,94.11293274120514,-173.06575597399214L81.50419057853989,-149.87934119863567A170.6070045455344,170.6070045455344,0,0,0,80.27001132090221,-150.54393140390027Z" fill-rule="evenodd" style="fill: #DB3F29; stroke: #fff; opacity: 1;" id="p-type-functions"></path><path d="M94.11293274120514,-173.06575597399214A197,197,0,0,1,95.53168701226508,-172.28667033926516L82.73286781900548,-149.20463324723858A170.6070045455344,170.6070045455344,0,0,0,81.50419057853989,-149.87934119863567Z" fill-rule="evenodd" style="fill: #DB3F29; stroke: #fff; opacity: 1;" id="p-type-functions"></path><path d="M95.53168701226508,-172.28667033926516A197,197,0,0,1,96.94399232679062,-171.49595433054145L83.95596009928437,-148.51985309650482A170.6070045455344,170.6070045455344,0,0,0,82.73286781900548,-149.20463324723858Z" fill-rule="evenodd" style="fill: #DB3F29; stroke: #fff; opacity: 1;" id="p-type-functions"></path><path d="M96.94399232679062,-171.49595433054145A197,197,0,0,1,98.34975334578081,-170.6936613258503L85.17338485337977,-147.8250469731637A170.6070045455344,170.6070045455344,0,0,0,83.95596009928437,-148.51985309650482Z" fill-rule="evenodd" style="fill: #DB3F29; stroke: #fff; opacity: 1;" id="p-type-functions"></path><path d="M98.34975334578081,-170.6936613258503A197,197,0,0,1,99.74887517201381,-169.87984548473668L86.38505989788682,-147.12026178075712A170.6070045455344,170.6070045455344,0,0,0,85.17338485337977,-147.8250469731637Z" fill-rule="evenodd" style="fill: #DB3F29; stroke: #fff; opacity: 1;" id="p-type-functions"></path><path d="M99.74887517201381,-169.87984548473668A197,197,0,0,1,101.14126335645244,-169.05456174460576L87.59090343753998,-146.40554509647353A170.6070045455344,170.6070045455344,0,0,0,86.38505989788682,-147.12026178075712Z" fill-rule="evenodd" style="fill: #DB3F29; stroke: #fff; opacity: 1;" id="p-type-functions"></path><path d="M101.14126335645244,-169.05456174460576A197,197,0,0,1,102.52682390462066,-168.21786581701394L88.79083407073514,-145.68094516793602A170.6070045455344,170.6070045455344,0,0,0,87.59090343753998,-146.40554509647353Z" fill-rule="evenodd" style="fill: #DB3F29; stroke: #fff; opacity: 1;" id="p-type-functions"></path><path d="M102.52682390462066,-168.21786581701394A197,197,0,0,1,103.90546328294815,-167.36981418390806L89.98477079502433,-144.94651090994543A170.6070045455344,170.6070045455344,0,0,0,88.79083407073514,-145.68094516793602Z" fill-rule="evenodd" style="fill: #DB3F29; stroke: #fff; opacity: 1;" id="p-type-functions"></path><path d="M103.90546328294815,-167.36981418390806A197,197,0,0,1,105.277088425085,-166.51046409381254L91.17263301258428,-144.20229190117828A170.6070045455344,170.6070045455344,0,0,0,89.98477079502433,-144.94651090994543Z" fill-rule="evenodd" style="fill: #DB3F29; stroke: #fff; opacity: 1;" id="p-type-functions"></path><path d="M105.277088425085,-166.51046409381254A197,197,0,0,1,106.64160673818354,-165.6398735579649L92.3543405356567,-143.4483383808399A170.6070045455344,170.6070045455344,0,0,0,91.17263301258428,-144.20229190117828Z" fill-rule="evenodd" style="fill: #DB3F29; stroke: #fff; opacity: 1;" id="p-type-functions"></path><path d="M106.64160673818354,-165.6398735579649A197,197,0,0,1,107.99892610914966,-164.75810134639946L93.52981359196208,-142.68470124527306A170.6070045455344,170.6070045455344,0,0,0,92.3543405356567,-143.4483383808399Z" fill-rule="evenodd" style="fill: #DB3F29; stroke: #fff; opacity: 1;" id="p-type-functions"></path><path d="M107.99892610914966,-164.75810134639946A197,197,0,0,1,109.34895491086037,-163.86520698398004L94.69897283008423,-141.91143204452194A170.6070045455344,170.6070045455344,0,0,0,93.52981359196208,-142.68470124527306Z" fill-rule="evenodd" style="fill: #DB3F29; stroke: #fff; opacity: 1;" id="p-type-functions"></path><path d="M109.34895491086037,-163.86520698398004A197,197,0,0,1,110.69160200834959,-162.96125074638184L95.86173932482733,-141.12858297885248A170.6070045455344,170.6070045455344,0,0,0,94.69897283008423,-141.91143204452194Z" fill-rule="evenodd" style="fill: #DB3F29; stroke: #fff; opacity: 1;" id="p-type-functions"></path><path d="M110.69160200834959,-162.96125074638184A197,197,0,0,1,112.02677676496,-162.0462936560223L97.01803458254366,-140.33620689522843A170.6070045455344,170.6070045455344,0,0,0,95.86173932482733,-141.12858297885248Z" fill-rule="evenodd" style="fill: #DB3F29; stroke: #fff; opacity: 1;" id="p-type-functions"></path><path d="M112.02677676496,-162.0462936560223A197,197,0,0,1,113.35438904846181,-161.12039747794182L98.16778054643248,-139.53435728374382A170.6070045455344,170.6070045455344,0,0,0,97.01803458254366,-140.33620689522843Z" fill-rule="evenodd" style="fill: #DB3F29; stroke: #fff; opacity: 1;" id="p-type-functions"></path><path d="M113.35438904846181,-161.12039747794182A197,197,0,0,1,114.674349237137,-160.1836247156342L99.3108996018093,-138.7230882740121A170.6070045455344,170.6070045455344,0,0,0,98.16778054643248,-139.53435728374382Z" fill-rule="evenodd" style="fill: #DB3F29; stroke: #fff; opacity: 1;" id="p-type-functions"></path><path d="M114.674349237137,-160.1836247156342A197,197,0,0,1,115.98656822582946,-159.23603860682732L100.4473145813453,-137.9024546315121A170.6070045455344,170.6070045455344,0,0,0,99.3108996018093,-138.7230882740121Z" fill-rule="evenodd" style="fill: #DB3F29; stroke: #fff; opacity: 1;" id="p-type-functions"></path><path d="M115.98656822582946,-159.23603860682732A197,197,0,0,1,117.29095743196015,-158.2777031192142L101.5769487702767,-137.07251175389098A170.6070045455344,170.6070045455344,0,0,0,100.4473145813453,-137.9024546315121Z" fill-rule="evenodd" style="fill: #DB3F29; stroke: #fff; opacity: 1;" id="p-type-functions"></path><path d="M117.29095743196015,-158.2777031192142A197,197,0,0,1,118.27379433357295,-157.54462724555125L102.42811049485017,-136.4376494243974A170.6070045455344,170.6070045455344,0,0,0,101.5769487702767,-137.07251175389098Z" fill-rule="evenodd" style="fill: #DB3F29; stroke: #fff; opacity: 1;" id="p-type-functions"></path><path d="M118.27379433357295,-157.54462724555125A197,197,0,0,1,119.24038755554552,-156.81431687063304L103.26520478020427,-135.80518208707088A170.6070045455344,170.6070045455344,0,0,0,102.42811049485017,-136.4376494243974Z" fill-rule="evenodd" style="fill: #DB3F29; stroke: #fff; opacity: 1;" id="p-type-functions"></path><path d="M195.98141230437093,-20.007149501719788A197,197,0,0,1,196.13917870367663,-18.396265312481162L169.86151143479972,-15.93163309536716A170.6070045455344,170.6070045455344,0,0,0,169.72488172513738,-17.32669972580251Z" fill-rule="evenodd" style="fill: #1DC690; stroke: #fff; opacity: 1;" id="p-type-logs"></path><path d="M196.13917870367663,-18.396265312481162A197,197,0,0,1,196.28370454293653,-16.78413926602105L169.98667448310206,-14.535490985030131A170.6070045455344,170.6070045455344,0,0,0,169.86151143479972,-15.93163309536716Z" fill-rule="evenodd" style="fill: #1DC690; stroke: #fff; opacity: 1;" id="p-type-logs"></path><path d="M196.28370454293653,-16.78413926602105A197,197,0,0,1,196.4149800657977,-15.170880190427047L170.1003624207949,-13.138367642679924A170.6070045455344,170.6070045455344,0,0,0,169.98667448310206,-14.535490985030131Z" fill-rule="evenodd" style="fill: #1DC690; stroke: #fff; opacity: 1;" id="p-type-logs"></path><path d="M196.4149800657977,-15.170880190427047A197,197,0,0,1,196.53299641038225,-13.556596990272942L170.20256757326692,-11.74035738244403A170.6070045455344,170.6070045455344,0,0,0,170.1003624207949,-13.138367642679924Z" fill-rule="evenodd" style="fill: #1DC690; stroke: #fff; opacity: 1;" id="p-type-logs"></path><path d="M196.53299641038225,-13.556596990272942A197,197,0,0,1,196.63774560988568,-11.941398639267012L170.29328304106295,-10.34155457832216A170.6070045455344,170.6070045455344,0,0,0,170.20256757326692,-11.74035738244403Z" fill-rule="evenodd" style="fill: #1DC690; stroke: #fff; opacity: 1;" id="p-type-logs"></path><path d="M196.63774560988568,-11.941398639267012A197,197,0,0,1,196.72922059311455,-10.325394172895662L170.37250270034994,-8.942053657815455A170.6070045455344,170.6070045455344,0,0,0,170.29328304106295,-10.34155457832216Z" fill-rule="evenodd" style="fill: #1DC690; stroke: #fff; opacity: 1;" id="p-type-logs"></path><path d="M196.72922059311455,-10.325394172895662A197,197,0,0,1,196.80741518496401,-8.708692681062868L170.4402212033301,-7.541949095552055A170.6070045455344,170.6070045455344,0,0,0,170.37250270034994,-8.942053657815455Z" fill-rule="evenodd" style="fill: #1DC690; stroke: #fff; opacity: 1;" id="p-type-logs"></path><path d="M196.80741518496401,-8.708692681062868A197,197,0,0,1,196.8723241068344,-7.091403300725969L170.49643397860214,-6.1413354069095085A170.6070045455344,170.6070045455344,0,0,0,170.4402212033301,-7.541949095552055Z" fill-rule="evenodd" style="fill: #1DC690; stroke: #fff; opacity: 1;" id="p-type-logs"></path><path d="M196.8723241068344,-7.091403300725969A197,197,0,0,1,196.92394297698786,-5.473635208528276L170.54113723146966,-4.74030714163442A170.6070045455344,170.6070045455344,0,0,0,170.49643397860214,-6.1413354069095085Z" fill-rule="evenodd" style="fill: #1DC690; stroke: #fff; opacity: 1;" id="p-type-logs"></path><path d="M196.92394297698786,-5.473635208528276A197,197,0,0,1,196.96226831084385,-3.855497613428988L170.57432794419748,-3.3389588774597785A170.6070045455344,170.6070045455344,0,0,0,170.54113723146966,-4.74030714163442Z" fill-rule="evenodd" style="fill: #1DC690; stroke: #fff; opacity: 1;" id="p-type-logs"></path><path d="M196.96226831084385,-3.855497613428988A197,197,0,0,1,196.98729752121466,-2.2370997493309486L170.59600387621526,-1.937385213720401A170.6070045455344,170.6070045455344,0,0,0,170.57432794419748,-3.3389588774597785Z" fill-rule="evenodd" style="fill: #1DC690; stroke: #fff; opacity: 1;" id="p-type-logs"></path><path d="M196.98729752121466,-2.2370997493309486A197,197,0,0,1,196.99902891847984,-0.6185508677067052L170.6061635642688,-0.5356807649669143A170.6070045455344,170.6070045455344,0,0,0,170.59600387621526,-1.937385213720401Z" fill-rule="evenodd" style="fill: #1DC690; stroke: #fff; opacity: 1;" id="p-type-logs"></path><path d="M196.99902891847984,-0.6185508677067052A197,197,0,0,1,196.99746171070038,1.0000397697766141L170.60480632251878,0.8660598454212893A170.6070045455344,170.6070045455344,0,0,0,170.6061635642688,-0.5356807649669143Z" fill-rule="evenodd" style="fill: #1DC690; stroke: #fff; opacity: 1;" id="p-type-logs"></path><path d="M196.99746171070038,1.0000397697766141A197,197,0,0,1,196.9825960036721,2.618562898633113L170.5919322425871,2.267741991623692A170.6070045455344,170.6070045455344,0,0,0,170.60480632251878,0.8660598454212893Z" fill-rule="evenodd" style="fill: #1DC690; stroke: #fff; opacity: 1;" id="p-type-logs"></path><path d="M196.9825960036721,2.618562898633113A197,197,0,0,1,196.9544328009186,4.23690925893413L170.5675421935506,3.669271051766456A170.6070045455344,170.6070045455344,0,0,0,170.5919322425871,2.267741991623692Z" fill-rule="evenodd" style="fill: #1DC690; stroke: #fff; opacity: 1;" id="p-type-logs"></path><path d="M196.9544328009186,4.23690925893413A197,197,0,0,1,196.91297400362336,5.854969602683928L170.53163782188258,5.0705524143099625A170.6070045455344,170.6070045455344,0,0,0,170.5675421935506,3.669271051766456Z" fill-rule="evenodd" style="fill: #1DC690; stroke: #fff; opacity: 1;" id="p-type-logs"></path><path d="M196.91297400362336,5.854969602683928A197,197,0,0,1,196.85822241050158,7.47263470119459L170.48422155134145,6.471491484435652A170.6070045455344,170.6070045455344,0,0,0,170.53163782188258,5.0705524143099625Z" fill-rule="evenodd" style="fill: #1DC690; stroke: #fff; opacity: 1;" id="p-type-logs"></path><path d="M196.85822241050158,7.47263470119459A197,197,0,0,1,196.79018171761112,9.089795352459598L170.42529658280722,7.871993690431737A170.6070045455344,170.6070045455344,0,0,0,170.48422155134145,6.471491484435652Z" fill-rule="evenodd" style="fill: #1DC690; stroke: #fff; opacity: 1;" id="p-type-logs"></path><path d="M196.79018171761112,9.089795352459598A197,197,0,0,1,196.70885651810306,10.706342388525627L170.35486689406542,9.271964490077357A170.6070045455344,170.6070045455344,0,0,0,170.42529658280722,7.871993690431737Z" fill-rule="evenodd" style="fill: #1DC690; stroke: #fff; opacity: 1;" id="p-type-logs"></path><path d="M196.70885651810306,10.706342388525627A197,197,0,0,1,196.61425230191165,12.322166682862015L170.27293723953852,10.671309377024734A170.6070045455344,170.6070045455344,0,0,0,170.35486689406542,9.271964490077357Z" fill-rule="evenodd" style="fill: #1DC690; stroke: #fff; opacity: 1;" id="p-type-logs"></path><path d="M196.61425230191165,12.322166682862015A197,197,0,0,1,196.50637545538356,13.937159157727466L170.17951314996506,12.069933887178916A170.6070045455344,170.6070045455344,0,0,0,170.27293723953852,10.671309377024734Z" fill-rule="evenodd" style="fill: #1DC690; stroke: #fff; opacity: 1;" id="p-type-logs"></path><path d="M196.50637545538356,13.937159157727466A197,197,0,0,1,196.38523326084703,15.551210791533446L170.07460093202621,13.467743605074672A170.6070045455344,170.6070045455344,0,0,0,170.17951314996506,12.069933887178916Z" fill-rule="evenodd" style="fill: #1DC690; stroke: #fff; opacity: 1;" id="p-type-logs"></path><path d="M196.38523326084703,15.551210791533446A197,197,0,0,1,196.25083389611996,17.164212626203778L169.95820766792008,14.864644170250084A170.6070045455344,170.6070045455344,0,0,0,170.07460093202621,13.467743605074672Z" fill-rule="evenodd" style="fill: #1DC690; stroke: #fff; opacity: 1;" id="p-type-logs"></path><path d="M196.25083389611996,17.164212626203778A197,197,0,0,1,196.10318643395811,18.776055774529958L169.83034121488365,16.260541283616448A170.6070045455344,170.6070045455344,0,0,0,169.95820766792008,14.864644170250084Z" fill-rule="evenodd" style="fill: #1DC690; stroke: #fff; opacity: 1;" id="p-type-logs"></path><path d="M196.10318643395811,18.776055774529958A197,197,0,0,1,195.94230084144257,20.386631427521706L169.69101020466226,17.65534071382401A170.6070045455344,170.6070045455344,0,0,0,169.83034121488365,16.260541283616448Z" fill-rule="evenodd" style="fill: #1DC690; stroke: #fff; opacity: 1;" id="p-type-logs"></path><path d="M195.94230084144257,20.386631427521706A197,197,0,0,1,195.76818797930676,21.995830861752204L169.540224042927,19.04894830362317A170.6070045455344,170.6070045455344,0,0,0,169.69101020466226,17.65534071382401Z" fill-rule="evenodd" style="fill: #1DC690; stroke: #fff; opacity: 1;" id="p-type-logs"></path><path d="M195.76818797930676,21.995830861752204A197,197,0,0,1,195.5808596012035,23.60354544669758L169.3779929086399,20.44126997622062A170.6070045455344,170.6070045455344,0,0,0,169.540224042927,19.04894830362317Z" fill-rule="evenodd" style="fill: #1DC690; stroke: #fff; opacity: 1;" id="p-type-logs"></path><path d="M195.5808596012035,23.60354544669758A197,197,0,0,1,195.38032835291148,25.209666652070116L169.20432775336636,21.83221174163012A170.6070045455344,170.6070045455344,0,0,0,169.3779929086399,20.44126997622062Z" fill-rule="evenodd" style="fill: #1DC690; stroke: #fff; opacity: 1;" id="p-type-logs"></path><path d="M195.38032835291148,25.209666652070116A197,197,0,0,1,195.1666077714815,26.814086055144667L169.0192403005364,23.221679703017347A170.6070045455344,170.6070045455344,0,0,0,169.20432775336636,21.83221174163012Z" fill-rule="evenodd" style="fill: #1DC690; stroke: #fff; opacity: 1;" id="p-type-logs"></path><path d="M195.1666077714815,26.814086055144667A197,197,0,0,1,194.93971228432275,28.416695348077877L168.8227430446529,24.60958006303852A170.6070045455344,170.6070045455344,0,0,0,169.0192403005364,23.221679703017347Z" fill-rule="evenodd" style="fill: #1DC690; stroke: #fff; opacity: 1;" id="p-type-logs"></path><path d="M194.93971228432275,28.416695348077877A197,197,0,0,1,194.69965720822887,30.017386345219563L168.61484925044817,25.99581913017227A170.6070045455344,170.6070045455344,0,0,0,168.8227430446529,24.60958006303852Z" fill-rule="evenodd" style="fill: #1DC690; stroke: #fff; opacity: 1;" id="p-type-logs"></path><path d="M194.69965720822887,30.017386345219563A197,197,0,0,1,194.44645874834393,31.616050990415918L168.39557295198875,27.380303325044345A170.6070045455344,170.6070045455344,0,0,0,168.61484925044817,25.99581913017227Z" fill-rule="evenodd" style="fill: #1DC690; stroke: #fff; opacity: 1;" id="p-type-logs"></path><path d="M194.44645874834393,31.616050990415918A197,197,0,0,1,194.18013399706854,33.21258136430392L168.1649289517277,28.762939186744827A170.6070045455344,170.6070045455344,0,0,0,168.39557295198875,27.380303325044345Z" fill-rule="evenodd" style="fill: #1DC690; stroke: #fff; opacity: 1;" id="p-type-logs"></path><path d="M194.18013399706854,33.21258136430392A197,197,0,0,1,193.90070093290592,34.80686969159656L167.92293281950552,30.143633379137253A170.6070045455344,170.6070045455344,0,0,0,168.1649289517277,28.762939186744827Z" fill-rule="evenodd" style="fill: #1DC690; stroke: #fff; opacity: 1;" id="p-type-logs"></path><path d="M193.90070093290592,34.80686969159656A197,197,0,0,1,193.6081784192483,36.39880834835829L167.66960089149913,31.522292697159383A170.6070045455344,170.6070045455344,0,0,0,167.92293281950552,30.143633379137253Z" fill-rule="evenodd" style="fill: #1DC690; stroke: #fff; opacity: 1;" id="p-type-logs"></path><path d="M193.6081784192483,36.39880834835829A197,197,0,0,1,193.3025862031036,37.98828986927026L167.40495026911904,32.89882407311508A170.6070045455344,170.6070045455344,0,0,0,167.66960089149913,31.522292697159383Z" fill-rule="evenodd" style="fill: #1DC690; stroke: #fff; opacity: 1;" id="p-type-logs"></path><path d="M193.3025862031036,37.98828986927026A197,197,0,0,1,192.98394491376226,39.57520695488494L167.1289988178548,34.273134582956956A170.6070045455344,170.6070045455344,0,0,0,167.40495026911904,32.89882407311508Z" fill-rule="evenodd" style="fill: #1DC690; stroke: #fff; opacity: 1;" id="p-type-logs"></path><path d="M192.98394491376226,39.57520695488494A197,197,0,0,1,192.65227606140473,41.159452478869376L166.84176516606917,35.64513145255926A170.6070045455344,170.6070045455344,0,0,0,167.1289988178548,34.273134582956956Z" fill-rule="evenodd" style="fill: #1DC690; stroke: #fff; opacity: 1;" id="p-type-logs"></path><path d="M192.65227606140473,41.159452478869376A197,197,0,0,1,192.30760203564932,42.740919495236916L166.54326870374035,37.014722063980734A170.6070045455344,170.6070045455344,0,0,0,166.84176516606917,35.64513145255926Z" fill-rule="evenodd" style="fill: #1DC690; stroke: #fff; opacity: 1;" id="p-type-logs"></path><path d="M192.30760203564932,42.740919495236916A197,197,0,0,1,191.94994610404092,44.319501245566684L166.23352958115328,38.381813961716816A170.6070045455344,170.6070045455344,0,0,0,166.54326870374035,37.014722063980734Z" fill-rule="evenodd" style="fill: #1DC690; stroke: #fff; opacity: 1;" id="p-type-logs"></path><path d="M191.94994610404092,44.319501245566684A197,197,0,0,1,191.5793324104801,45.89509116621041L165.91256870753924,39.746314858941A170.6070045455344,170.6070045455344,0,0,0,166.23352958115328,38.381813961716816Z" fill-rule="evenodd" style="fill: #1DC690; stroke: #fff; opacity: 1;" id="p-type-logs"></path><path d="M191.5793324104801,45.89509116621041A197,197,0,0,1,191.19578597359344,47.467582895486096L165.58040774966437,41.108132643734656A170.6070045455344,170.6070045455344,0,0,0,165.91256870753924,39.746314858941Z" fill-rule="evenodd" style="fill: #1DC690; stroke: #fff; opacity: 1;" id="p-type-logs"></path><path d="M191.19578597359344,47.467582895486096A197,197,0,0,1,190.79933268504453,49.03687028085807L165.23706913036713,42.46717538530525A170.6070045455344,170.6070045455344,0,0,0,165.58040774966437,41.108132643734656Z" fill-rule="evenodd" style="fill: #1DC690; stroke: #fff; opacity: 1;" id="p-type-logs"></path><path d="M190.79933268504453,49.03687028085807A197,197,0,0,1,190.38999930778607,50.60284738610293L164.88257602704442,43.82335134019211A170.6070045455344,170.6070045455344,0,0,0,165.23706913036713,42.46717538530525Z" fill-rule="evenodd" style="fill: #1DC690; stroke: #fff; opacity: 1;" id="p-type-logs"></path><path d="M190.38999930778607,50.60284738610293A197,197,0,0,1,189.96781347425335,52.165408498460835L164.51695237008718,45.17656895845973A170.6070045455344,170.6070045455344,0,0,0,164.88257602704442,43.82335134019211Z" fill-rule="evenodd" style="fill: #1DC690; stroke: #fff; opacity: 1;" id="p-type-logs"></path><path d="M189.96781347425335,52.165408498460835A197,197,0,0,1,189.53280368449882,53.72444813577177L164.14022284126483,46.52673688987788A170.6070045455344,170.6070045455344,0,0,0,164.51695237008718,45.17656895845973Z" fill-rule="evenodd" style="fill: #1DC690; stroke: #fff; opacity: 1;" id="p-type-logs"></path><path d="M189.53280368449882,53.72444813577177A197,197,0,0,1,189.08499930426817,55.27986105359621L163.75241287205915,47.87376399008832A170.6070045455344,170.6070045455344,0,0,0,164.14022284126483,46.52673688987788Z" fill-rule="evenodd" style="fill: #1DC690; stroke: #fff; opacity: 1;" id="p-type-logs"></path><path d="M189.08499930426817,55.27986105359621A197,197,0,0,1,188.624430563018,56.83154225231974L163.35354864194747,49.21755932675759A170.6070045455344,170.6070045455344,0,0,0,163.75241287205915,47.87376399008832Z" fill-rule="evenodd" style="fill: #1DC690; stroke: #fff; opacity: 1;" id="p-type-logs"></path><path d="M188.624430563018,56.83154225231974A197,197,0,0,1,188.15112855187505,58.37938698424117L162.94365707663542,50.55803218571546A170.6070045455344,170.6070045455344,0,0,0,163.35354864194747,49.21755932675759Z" fill-rule="evenodd" style="fill: #1DC690; stroke: #fff; opacity: 1;" id="p-type-logs"></path><path d="M188.15112855187505,58.37938698424117A197,197,0,0,1,187.66512522153752,59.92329076064362L162.52276584623928,51.89509207707871A170.6070045455344,170.6070045455344,0,0,0,162.94365707663542,50.55803218571546Z" fill-rule="evenodd" style="fill: #1DC690; stroke: #fff; opacity: 1;" id="p-type-logs"></path><path d="M187.66512522153752,59.92329076064362A197,197,0,0,1,187.16645338011813,61.46314935884809L162.0909033634181,53.22864874135968A170.6070045455344,170.6070045455344,0,0,0,162.52276584623928,51.89509207707871Z" fill-rule="evenodd" style="fill: #1DC690; stroke: #fff; opacity: 1;" id="p-type-logs"></path><path d="M187.16645338011813,61.46314935884809A197,197,0,0,1,186.65514669092929,62.998858829249194L161.64809878145564,54.55861215555938A170.6070045455344,170.6070045455344,0,0,0,162.0909033634181,53.22864874135968Z" fill-rule="evenodd" style="fill: #1DC690; stroke: #fff; opacity: 1;" id="p-type-logs"></path><path d="M186.65514669092929,62.998858829249194A197,197,0,0,1,186.1312396702108,64.5303155023323L161.19438199229242,55.88489253924455A170.6070045455344,170.6070045455344,0,0,0,161.64809878145564,54.55861215555938Z" fill-rule="evenodd" style="fill: #1DC690; stroke: #fff; opacity: 1;" id="p-type-logs"></path><path d="M186.1312396702108,64.5303155023323A197,197,0,0,1,185.59476768479965,66.05741599567185L160.72978362450772,57.20740036060835A170.6070045455344,170.6070045455344,0,0,0,161.19438199229242,55.88489253924455Z" fill-rule="evenodd" style="fill: #1DC690; stroke: #fff; opacity: 1;" id="p-type-logs"></path><path d="M185.59476768479965,66.05741599567185A197,197,0,0,1,185.04576694974267,67.58005722091035L160.25433504125203,58.52604634251435A170.6070045455344,170.6070045455344,0,0,0,160.72978362450772,57.20740036060835Z" fill-rule="evenodd" style="fill: #1DC690; stroke: #fff; opacity: 1;" id="p-type-logs"></path><path d="M185.04576694974267,67.58005722091035A197,197,0,0,1,184.48427452585173,69.09813639071734L159.76806833812995,59.840741468523206A170.6070045455344,170.6070045455344,0,0,0,160.25433504125203,58.52604634251435Z" fill-rule="evenodd" style="fill: #1DC690; stroke: #fff; opacity: 1;" id="p-type-logs"></path><path d="M184.48427452585173,69.09813639071734A197,197,0,0,1,183.91032831720185,70.61155102572829L159.2710163410334,61.15139698890184A170.6070045455344,170.6070045455344,0,0,0,159.76806833812995,59.840741468523206Z" fill-rule="evenodd" style="fill: #1DC690; stroke: #fff; opacity: 1;" id="p-type-logs"></path><path d="M183.91032831720185,70.61155102572829A197,197,0,0,1,183.32396706857256,72.1201989614624L158.7632126039257,62.45792442661453A170.6070045455344,170.6070045455344,0,0,0,159.2710163410334,61.15139698890184Z" fill-rule="evenodd" style="fill: #1DC690; stroke: #fff; opacity: 1;" id="p-type-logs"></path><path d="M183.32396706857256,72.1201989614624A197,197,0,0,1,182.72523036283243,73.62397835521946L158.24469140657652,63.7602355832957A170.6070045455344,170.6070045455344,0,0,0,158.7632126039257,62.45792442661453Z" fill-rule="evenodd" style="fill: #1DC690; stroke: #fff; opacity: 1;" id="p-type-logs"></path><path d="M182.72523036283243,73.62397835521946A197,197,0,0,1,182.11415861826683,75.12278769295473L157.71548775224784,65.05824254520378A170.6070045455344,170.6070045455344,0,0,0,158.24469140657652,63.7602355832957Z" fill-rule="evenodd" style="fill: #1DC690; stroke: #fff; opacity: 1;" id="p-type-logs"></path><path d="M182.11415861826683,75.12278769295473A197,197,0,0,1,181.4907930858496,76.61652579613181L157.17563736533089,66.3518576891559A170.6070045455344,170.6070045455344,0,0,0,157.71548775224784,65.05824254520378Z" fill-rule="evenodd" style="fill: #1DC690; stroke: #fff; opacity: 1;" id="p-type-logs"></path><path d="M181.4907930858496,76.61652579613181A197,197,0,0,1,180.85517584645825,78.10509182855274L156.62517668893466,67.64099368844305A170.6070045455344,170.6070045455344,0,0,0,157.17563736533089,66.3518576891559Z" fill-rule="evenodd" style="fill: #1DC690; stroke: #fff; opacity: 1;" id="p-type-logs"></path><path d="M180.85517584645825,78.10509182855274A197,197,0,0,1,180.20734980803343,79.58838530316514L156.06414288242573,68.92556351872507A170.6070045455344,170.6070045455344,0,0,0,156.62517668893466,67.64099368844305Z" fill-rule="evenodd" style="fill: #1DC690; stroke: #fff; opacity: 1;" id="p-type-logs"></path><path d="M180.20734980803343,79.58838530316514A197,197,0,0,1,179.54735870268215,81.06630608884551L155.49257381891974,70.20548046390532A170.6070045455344,170.6070045455344,0,0,0,156.06414288242573,68.92556351872507Z" fill-rule="evenodd" style="fill: #1DC690; stroke: #fff; opacity: 1;" id="p-type-logs"></path><path d="M179.54735870268215,81.06630608884551A197,197,0,0,1,178.87524708372578,82.53875441715883L154.91050808272485,71.48065812198459A170.6070045455344,170.6070045455344,0,0,0,155.49257381891974,70.20548046390532Z" fill-rule="evenodd" style="fill: #1DC690; stroke: #fff; opacity: 1;" id="p-type-logs"></path><path d="M178.87524708372578,82.53875441715883A197,197,0,0,1,178.19106032269232,84.00563088909354L154.31798496673687,72.75101041089374A170.6070045455344,170.6070045455344,0,0,0,154.91050808272485,71.48065812198459Z" fill-rule="evenodd" style="fill: #1DC690; stroke: #fff; opacity: 1;" id="p-type-logs"></path><path d="M178.19106032269232,84.00563088909354A197,197,0,0,1,177.49484460625374,85.46683648177134L153.71504446978707,74.01645157430461A170.6070045455344,170.6070045455344,0,0,0,154.31798496673687,72.75101041089374Z" fill-rule="evenodd" style="fill: #1DC690; stroke: #fff; opacity: 1;" id="p-type-logs"></path><path d="M177.49484460625374,85.46683648177134A197,197,0,0,1,176.78664693310785,86.9222725551321L153.1017272939417,75.27689618741931A170.6070045455344,170.6070045455344,0,0,0,153.71504446978707,74.01645157430461Z" fill-rule="evenodd" style="fill: #1DC690; stroke: #fff; opacity: 1;" id="p-type-logs"></path><path d="M103.8286778984716,167.41745920260357A197,197,0,0,1,102.44964965418045,168.26487834879768L88.7239992093359,145.72165921475695A170.6070045455344,170.6070045455344,0,0,0,89.91827270142828,144.98777270649953Z" fill-rule="evenodd" style="fill: #D7A449; stroke: #fff; opacity: 1;" id="p-type-tokenTransfers"></path><path d="M102.44964965418045,168.26487834879768A197,197,0,0,1,101.06370544976916,169.10093861585244L87.5237363200879,146.4457086451212A170.6070045455344,170.6070045455344,0,0,0,88.7239992093359,145.72165921475695Z" fill-rule="evenodd" style="fill: #D7A449; stroke: #fff; opacity: 1;" id="p-type-tokenTransfers"></path><path d="M101.06370544976916,169.10093861585244A197,197,0,0,1,99.67093884470691,169.92558356473194L86.31756505856139,147.15987211995335A170.6070045455344,170.6070045455344,0,0,0,87.5237363200879,146.4457086451212Z" fill-rule="evenodd" style="fill: #D7A449; stroke: #fff; opacity: 1;" id="p-type-tokenTransfers"></path><path d="M99.67093884470691,169.92558356473194A197,197,0,0,1,98.27144385901558,170.7387575270019L85.10556684848376,147.86410142897518A170.6070045455344,170.6070045455344,0,0,0,86.31756505856139,147.15987211995335Z" fill-rule="evenodd" style="fill: #D7A449; stroke: #fff; opacity: 1;" id="p-type-tokenTransfers"></path><path d="M98.27144385901558,170.7387575270019A197,197,0,0,1,96.86531496692267,171.54040560858795L83.88782350693603,148.55834903252375A170.6070045455344,170.6070045455344,0,0,0,85.10556684848376,147.86410142897518Z" fill-rule="evenodd" style="fill: #D7A449; stroke: #fff; opacity: 1;" id="p-type-tokenTransfers"></path><path d="M96.86531496692267,171.54040560858795A197,197,0,0,1,95.45264709048378,172.33047369348103L82.66441723882973,149.2425680647605A170.6070045455344,170.6070045455344,0,0,0,83.88782350693603,148.55834903252375Z" fill-rule="evenodd" style="fill: #D7A449; stroke: #fff; opacity: 1;" id="p-type-tokenTransfers"></path><path d="M95.45264709048378,172.33047369348103A197,197,0,0,1,94.0335355931748,173.10890844739077L81.43543063135759,149.91671233683502A170.6070045455344,170.6070045455344,0,0,0,82.66441723882973,149.2425680647605Z" fill-rule="evenodd" style="fill: #D7A449; stroke: #fff; opacity: 1;" id="p-type-tokenTransfers"></path><path d="M94.0335355931748,173.10890844739077A197,197,0,0,1,92.60807627345437,173.87565732134576L80.20094664841841,150.58073634000314A170.6070045455344,170.6070045455344,0,0,0,81.43543063135759,149.91671233683502Z" fill-rule="evenodd" style="fill: #D7A449; stroke: #fff; opacity: 1;" id="p-type-tokenTransfers"></path><path d="M92.60807627345437,173.87565732134576A197,197,0,0,1,91.17636535829683,174.63066855524082L78.96104862501652,151.2345952486989A170.6070045455344,170.6070045455344,0,0,0,80.20094664841841,150.58073634000314Z" fill-rule="evenodd" style="fill: #D7A449; stroke: #fff; opacity: 1;" id="p-type-tokenTransfers"></path><path d="M91.17636535829683,174.63066855524082A197,197,0,0,1,89.7384994966963,175.37389118133132L77.71582026163607,151.87824492356066A170.6070045455344,170.6070045455344,0,0,0,78.96104862501652,151.2345952486989Z" fill-rule="evenodd" style="fill: #D7A449; stroke: #fff; opacity: 1;" id="p-type-tokenTransfers"></path><path d="M89.7384994966963,175.37389118133132A197,197,0,0,1,88.2945757531425,176.10527502767366L76.46534561859094,152.5116419144107A170.6070045455344,170.6070045455344,0,0,0,77.71582026163607,151.87824492356066Z" fill-rule="evenodd" style="fill: #D7A449; stroke: #fff; opacity: 1;" id="p-type-tokenTransfers"></path><path d="M88.2945757531425,176.10527502767366A197,197,0,0,1,86.84469160106802,176.82477072151227L75.20970911034998,153.13474346318844A170.6070045455344,170.6070045455344,0,0,0,76.46534561859094,152.5116419144107Z" fill-rule="evenodd" style="fill: #D7A449; stroke: #fff; opacity: 1;" id="p-type-tokenTransfers"></path><path d="M86.84469160106802,176.82477072151227A197,197,0,0,1,85.38894491626854,177.53232969261248L73.94899549983866,153.74750750683683A170.6070045455344,170.6070045455344,0,0,0,75.20970911034998,153.13474346318844Z" fill-rule="evenodd" style="fill: #D7A449; stroke: #fff; opacity: 1;" id="p-type-tokenTransfers"></path><path d="M85.38894491626854,177.53232969261248A197,197,0,0,1,83.92743397029554,178.2279041765393L72.683289892717,154.3498926801417A170.6070045455344,170.6070045455344,0,0,0,73.94899549983866,153.74750750683683Z" fill-rule="evenodd" style="fill: #D7A449; stroke: #fff; opacity: 1;" id="p-type-tokenTransfers"></path><path d="M83.92743397029554,178.2279041765393A197,197,0,0,1,82.46025742382231,178.91144721788194L71.41267773163447,154.94185831852448A170.6070045455344,170.6070045455344,0,0,0,72.683289892717,154.3498926801417Z" fill-rule="evenodd" style="fill: #D7A449; stroke: #fff; opacity: 1;" id="p-type-tokenTransfers"></path><path d="M82.46025742382231,178.91144721788194A197,197,0,0,1,80.98751431998392,179.58291267342335L70.13724479046208,155.52336446078704A170.6070045455344,170.6070045455344,0,0,0,71.41267773163447,154.94185831852448Z" fill-rule="evenodd" style="fill: #D7A449; stroke: #fff; opacity: 1;" id="p-type-tokenTransfers"></path><path d="M80.98751431998392,179.58291267342335A197,197,0,0,1,79.50930407769106,180.2422552152554L68.85707716850212,156.09437185180937A170.6070045455344,170.6070045455344,0,0,0,70.13724479046208,155.52336446078704Z" fill-rule="evenodd" style="fill: #D7A449; stroke: #fff; opacity: 1;" id="p-type-tokenTransfers"></path><path d="M79.50930407769106,180.2422552152554A197,197,0,0,1,78.02572648491882,180.8894303338386L67.57226128467599,156.65484194519965A170.6070045455344,170.6070045455344,0,0,0,68.85707716850212,156.09437185180937Z" fill-rule="evenodd" style="fill: #D7A449; stroke: #fff; opacity: 1;" id="p-type-tokenTransfers"></path><path d="M78.02572648491882,180.8894303338386A197,197,0,0,1,76.5368816919703,181.5243943410068L66.28288387169039,157.20473690589608A170.6070045455344,170.6070045455344,0,0,0,67.57226128467599,156.65484194519965Z" fill-rule="evenodd" style="fill: #D7A449; stroke: #fff; opacity: 1;" id="p-type-tokenTransfers"></path><path d="M76.5368816919703,181.5243943410068A197,197,0,0,1,75.04287020471595,182.14710437291654L64.98903197018235,157.74401961272136A170.6070045455344,170.6070045455344,0,0,0,66.28288387169039,157.20473690589608Z" fill-rule="evenodd" style="fill: #D7A449; stroke: #fff; opacity: 1;" id="p-type-tokenTransfers"></path><path d="M75.04287020471595,182.14710437291654A197,197,0,0,1,73.54379287780874,182.75751839294045L63.69079292284343,158.27265366088824A170.6070045455344,170.6070045455344,0,0,0,64.98903197018235,157.74401961272136Z" fill-rule="evenodd" style="fill: #D7A449; stroke: #fff; opacity: 1;" id="p-type-tokenTransfers"></path><path d="M73.54379287780874,182.75751839294045A197,197,0,0,1,72.03975090787593,183.355595194505L62.38825436852363,158.7906033644573A170.6070045455344,170.6070045455344,0,0,0,63.69079292284343,158.27265366088824Z" fill-rule="evenodd" style="fill: #D7A449; stroke: #fff; opacity: 1;" id="p-type-tokenTransfers"></path><path d="M72.03975090787593,183.355595194505A197,197,0,0,1,70.53084582668772,183.94129440387226L61.08150423631522,159.29783375874578A170.6070045455344,170.6070045455344,0,0,0,62.38825436852363,158.7906033644573Z" fill-rule="evenodd" style="fill: #D7A449; stroke: #fff; opacity: 1;" id="p-type-tokenTransfers"></path><path d="M70.53084582668772,183.94129440387226A197,197,0,0,1,69.01717949430316,184.51457648286527L59.77063073961698,159.79431060268806A170.6070045455344,170.6070045455344,0,0,0,61.08150423631522,159.29783375874578Z" fill-rule="evenodd" style="fill: #D7A449; stroke: #fff; opacity: 1;" id="p-type-tokenTransfers"></path><path d="M69.01717949430316,184.51457648286527A197,197,0,0,1,67.49885409219412,185.07540273153722L58.45572237017932,160.28000038114712A170.6070045455344,170.6070045455344,0,0,0,59.77063073961698,159.79431060268806Z" fill-rule="evenodd" style="fill: #D7A449; stroke: #fff; opacity: 1;" id="p-type-tokenTransfers"></path><path d="M67.49885409219412,185.07540273153722A197,197,0,0,1,65.9759721163473,185.62373529078377L57.13686789213053,160.75487030717676A170.6070045455344,170.6070045455344,0,0,0,58.45572237017932,160.28000038114712Z" fill-rule="evenodd" style="fill: #D7A449; stroke: #fff; opacity: 1;" id="p-type-tokenTransfers"></path><path d="M65.9759721163473,185.62373529078377A197,197,0,0,1,64.44863637034523,186.15953714489896L55.81415633598468,161.21888832423534A170.6070045455344,170.6070045455344,0,0,0,57.13686789213053,160.75487030717676Z" fill-rule="evenodd" style="fill: #D7A449; stroke: #fff; opacity: 1;" id="p-type-tokenTransfers"></path><path d="M64.44863637034523,186.15953714489896A197,197,0,0,1,62.91694995842634,186.6827721240738L54.48767699263149,161.67202310834938A170.6070045455344,170.6070045455344,0,0,0,55.81415633598468,161.21888832423534Z" fill-rule="evenodd" style="fill: #D7A449; stroke: #fff; opacity: 1;" id="p-type-tokenTransfers"></path><path d="M62.91694995842634,186.6827721240738A197,197,0,0,1,61.38101627852497,187.19340490683814L53.15751940730878,162.1142440702284A170.6070045455344,170.6070045455344,0,0,0,54.48767699263149,161.67202310834938Z" fill-rule="evenodd" style="fill: #D7A449; stroke: #fff; opacity: 1;" id="p-type-tokenTransfers"></path><path d="M61.38101627852497,187.19340490683814A197,197,0,0,1,59.840939015291184,187.6914010224448L51.823773373557515,162.54552135732976A170.6070045455344,170.6070045455344,0,0,0,53.15751940730878,162.1142440702284Z" fill-rule="evenodd" style="fill: #D7A449; stroke: #fff; opacity: 1;" id="p-type-tokenTransfers"></path><path d="M59.840939015291184,187.6914010224448A197,197,0,0,1,58.296822133091574,188.17672685319693L50.48652892716023,162.96582585587387A170.6070045455344,170.6070045455344,0,0,0,51.823773373557515,162.54552135732976Z" fill-rule="evenodd" style="fill: #D7A449; stroke: #fff; opacity: 1;" id="p-type-tokenTransfers"></path><path d="M58.296822133091574,188.17672685319693A197,197,0,0,1,56.748769868991054,188.649349636717L49.14587634006316,163.37512919280957A170.6070045455344,170.6070045455344,0,0,0,50.48652892716023,162.96582585587387Z" fill-rule="evenodd" style="fill: #D7A449; stroke: #fff; opacity: 1;" id="p-type-tokenTransfers"></path><path d="M56.748769868991054,188.649349636717A197,197,0,0,1,55.19688672571615,189.10923746815877L47.80190611428225,163.77340373772947A170.6070045455344,170.6070045455344,0,0,0,49.14587634006316,163.37512919280957Z" fill-rule="evenodd" style="fill: #D7A449; stroke: #fff; opacity: 1;" id="p-type-tokenTransfers"></path><path d="M55.19688672571615,189.10923746815877A197,197,0,0,1,53.641277464600506,189.5563593023609L46.454708975793764,164.16062260473524A170.6070045455344,170.6070045455344,0,0,0,47.80190611428225,163.77340373772947Z" fill-rule="evenodd" style="fill: #D7A449; stroke: #fff; opacity: 1;" id="p-type-tokenTransfers"></path><path d="M53.641277464600506,189.5563593023609A197,197,0,0,1,52.08204709851288,189.99068495594275L45.10437586840977,164.5367596542524A170.6070045455344,170.6070045455344,0,0,0,46.454708975793764,164.16062260473524Z" fill-rule="evenodd" style="fill: #D7A449; stroke: #fff; opacity: 1;" id="p-type-tokenTransfers"></path><path d="M52.08204709851288,189.99068495594275A197,197,0,0,1,50.519300884768136,190.41218510934183L43.75099794763887,164.90178949479505A170.6070045455344,170.6070045455344,0,0,0,45.10437586840977,164.5367596542524Z" fill-rule="evenodd" style="fill: #D7A449; stroke: #fff; opacity: 1;" id="p-type-tokenTransfers"></path><path d="M50.519300884768136,190.41218510934183A197,197,0,0,1,48.95314431802172,190.82083130879326L42.39466657453266,165.25568748467992A170.6070045455344,170.6070045455344,0,0,0,43.75099794763887,164.90178949479505Z" fill-rule="evenodd" style="fill: #D7A449; stroke: #fff; opacity: 1;" id="p-type-tokenTransfers"></path><path d="M48.95314431802172,190.82083130879326A197,197,0,0,1,47.38368312314818,191.21659596825032L41.035473309518295,165.59842973368984A170.6070045455344,170.6070045455344,0,0,0,42.39466657453266,165.25568748467992Z" fill-rule="evenodd" style="fill: #D7A449; stroke: #fff; opacity: 1;" id="p-type-tokenTransfers"></path><path d="M47.38368312314818,191.21659596825032A197,197,0,0,1,45.81102324810411,191.5994523712468L39.67350990621767,165.9299931046863A170.6070045455344,170.6070045455344,0,0,0,41.035473309518295,165.59842973368984Z" fill-rule="evenodd" style="fill: #D7A449; stroke: #fff; opacity: 1;" id="p-type-tokenTransfers"></path><path d="M45.81102324810411,191.5994523712468A197,197,0,0,1,44.23527085677602,191.9693746727005L38.30886830525346,166.25035521517162A170.6070045455344,170.6070045455344,0,0,0,39.67350990621767,165.9299931046863Z" fill-rule="evenodd" style="fill: #D7A449; stroke: #fff; opacity: 1;" id="p-type-tokenTransfers"></path><path d="M44.23527085677602,191.9693746727005A197,197,0,0,1,42.65653232181362,192.326337900658L36.9416406280426,166.5594944387997A170.6070045455344,170.6070045455344,0,0,0,38.30886830525346,166.25035521517162Z" fill-rule="evenodd" style="fill: #D7A449; stroke: #fff; opacity: 1;" id="p-type-tokenTransfers"></path><path d="M42.65653232181362,192.326337900658A197,197,0,0,1,41.074914217449106,192.67031795798025L35.57191917057754,166.857389906836A170.6070045455344,170.6070045455344,0,0,0,36.9416406280426,166.5594944387997Z" fill-rule="evenodd" style="fill: #D7A449; stroke: #fff; opacity: 1;" id="p-type-tokenTransfers"></path><path d="M41.074914217449106,192.67031795798025A197,197,0,0,1,39.49052331230268,193.0012916239694L34.19979639719571,167.14402150956627A170.6070045455344,170.6070045455344,0,0,0,35.57191917057754,166.857389906836Z" fill-rule="evenodd" style="fill: #D7A449; stroke: #fff; opacity: 1;" id="p-type-tokenTransfers"></path><path d="M39.49052331230268,193.0012916239694A197,197,0,0,1,37.90346656217509,193.31923655593636L32.82536493433765,167.41936989765418A170.6070045455344,170.6070045455344,0,0,0,34.19979639719571,167.14402150956627Z" fill-rule="evenodd" style="fill: #D7A449; stroke: #fff; opacity: 1;" id="p-type-tokenTransfers"></path><path d="M37.90346656217509,193.31923655593636A197,197,0,0,1,36.313851102827456,193.6241312907089L31.448717564294128,167.68341648344733A170.6070045455344,170.6070045455344,0,0,0,32.82536493433765,167.41936989765418Z" fill-rule="evenodd" style="fill: #D7A449; stroke: #fff; opacity: 1;" id="p-type-tokenTransfers"></path><path d="M36.313851102827456,193.6241312907089A197,197,0,0,1,34.72178424274897,193.91595524608076L30.069947218942833,167.9361434422322A170.6070045455344,170.6070045455344,0,0,0,31.448717564294128,167.68341648344733Z" fill-rule="evenodd" style="fill: #D7A449; stroke: #fff; opacity: 1;" id="p-type-tokenTransfers"></path><path d="M34.72178424274897,193.91595524608076A197,197,0,0,1,33.12737345591295,194.19468872220082L28.68914697347491,168.17753371343733A170.6070045455344,170.6070045455344,0,0,0,30.069947218942833,167.9361434422322Z" fill-rule="evenodd" style="fill: #D7A449; stroke: #fff; opacity: 1;" id="p-type-tokenTransfers"></path><path d="M33.12737345591295,194.19468872220082A197,197,0,0,1,31.53072637452171,194.46031290290324L27.30641004011181,168.40757100178507A170.6070045455344,170.6070045455344,0,0,0,28.68914697347491,168.17753371343733Z" fill-rule="evenodd" style="fill: #D7A449; stroke: #fff; opacity: 1;" id="p-type-tokenTransfers"></path><path d="M31.53072637452171,194.46031290290324A197,197,0,0,1,29.931950781740696,194.71280985697743L25.921829761812926,168.6262397783915A170.6070045455344,170.6070045455344,0,0,0,27.30641004011181,168.40757100178507Z" fill-rule="evenodd" style="fill: #D7A449; stroke: #fff; opacity: 1;" id="p-type-tokenTransfers"></path><path d="M29.931950781740696,194.71280985697743A197,197,0,0,1,28.331154604422554,194.95216253937863L24.535499605974397,168.8335252818149A170.6070045455344,170.6070045455344,0,0,0,25.921829761812926,168.6262397783915Z" fill-rule="evenodd" style="fill: #D7A449; stroke: #fff; opacity: 1;" id="p-type-tokenTransfers"></path><path d="M28.331154604422554,194.95216253937863A197,197,0,0,1,26.728445905821378,195.17835479237849L23.147513158119484,169.029413519052A170.6070045455344,170.6070045455344,0,0,0,24.535499605974397,168.8335252818149Z" fill-rule="evenodd" style="fill: #D7A449; stroke: #fff; opacity: 1;" id="p-type-tokenTransfers"></path><path d="M26.728445905821378,195.17835479237849A197,197,0,0,1,25.123932878297822,195.39137134665592L21.757964115581004,169.21389126648288A170.6070045455344,170.6070045455344,0,0,0,23.147513158119484,169.029413519052Z" fill-rule="evenodd" style="fill: #D7A449; stroke: #fff; opacity: 1;" id="p-type-tokenTransfers"></path><path d="M25.123932878297822,195.39137134665592A197,197,0,0,1,23.517723836015456,195.59119782232764L20.366946281176205,169.38694607076332A170.6070045455344,170.6070045455344,0,0,0,21.757964115581004,169.21389126648288Z" fill-rule="evenodd" style="fill: #D7A449; stroke: #fff; opacity: 1;" id="p-type-tokenTransfers"></path><path d="M23.517723836015456,195.59119782232764A197,197,0,0,1,21.909927207628932,195.77782072991926L18.974553556874504,169.54856624966575A170.6070045455344,170.6070045455344,0,0,0,20.366946281176205,169.38694607076332Z" fill-rule="evenodd" style="fill: #D7A449; stroke: #fff; opacity: 1;" id="p-type-tokenTransfers"></path><path d="M21.909927207628932,195.77782072991926A197,197,0,0,1,20.300651528964387,195.9512274712755L17.580879937458565,169.69874089286776A170.6070045455344,170.6070045455344,0,0,0,18.974553556874504,169.54856624966575Z" fill-rule="evenodd" style="fill: #D7A449; stroke: #fff; opacity: 1;" id="p-type-tokenTransfers"></path><path d="M20.300651528964387,195.9512274712755A197,197,0,0,1,18.690005435692647,196.11140634041095L16.18601950417908,169.83745986268852A170.6070045455344,170.6070045455344,0,0,0,17.580879937458565,169.69874089286776Z" fill-rule="evenodd" style="fill: #D7A449; stroke: #fff; opacity: 1;" id="p-type-tokenTransfers"></path><path d="M18.690005435692647,196.11140634041095A197,197,0,0,1,17.07809765599567,196.25834652430015L14.790066418403725,169.9647137947733A170.6070045455344,170.6070045455344,0,0,0,16.18601950417908,169.83745986268852Z" fill-rule="evenodd" style="fill: #D7A449; stroke: #fff; opacity: 1;" id="p-type-tokenTransfers"></path><path d="M17.07809765599567,196.25834652430015A197,197,0,0,1,15.465037003226742,196.39203810360752L13.393114915260725,170.08049409872555A170.6070045455344,170.6070045455344,0,0,0,14.790066418403725,169.9647137947733Z" fill-rule="evenodd" style="fill: #D7A449; stroke: #fff; opacity: 1;" id="p-type-tokenTransfers"></path><path d="M15.465037003226742,196.39203810360752A197,197,0,0,1,13.850932368564928,196.51247205335707L11.995259297277393,170.18479295868676A170.6070045455344,170.6070045455344,0,0,0,13.393114915260725,170.08049409872555Z" fill-rule="evenodd" style="fill: #D7A449; stroke: #fff; opacity: 1;" id="p-type-tokenTransfers"></path><path d="M13.850932368564928,196.51247205335707A197,197,0,0,1,12.23589271366428,196.61964024354154L10.596593928014178,170.2776033338641A170.6070045455344,170.6070045455344,0,0,0,11.995259297277393,170.18479295868676Z" fill-rule="evenodd" style="fill: #D7A449; stroke: #fff; opacity: 1;" id="p-type-tokenTransfers"></path><path d="M-82.27075755150595,178.9986660617931A197,197,0,0,1,-123.44694313716474,153.52476096737493L-106.90818877631773,132.9563431076803A170.6070045455344,170.6070045455344,0,0,0,-71.2485660281946,155.01739205304025Z" fill-rule="evenodd" style="fill: #414552; stroke: #fff; opacity: 1;" id="p-type-ether"></path><path d="M-123.44694313716474,153.52476096737493A197,197,0,0,1,-146.88744764937806,131.27481755101098L-127.20826116141822,113.6873268763428A170.6070045455344,170.6070045455344,0,0,0,-106.90818877631773,132.9563431076803Z" fill-rule="evenodd" style="fill: #414552; stroke: #fff; opacity: 1;" id="p-type-ether"></path><path d="M-146.88744764937806,131.27481755101098A197,197,0,0,1,-150.598107892427,127.00082637219694L-130.42178719671156,109.98594193993924A170.6070045455344,170.6070045455344,0,0,0,-127.20826116141822,113.6873268763428Z" fill-rule="evenodd" style="fill: #414552; stroke: #fff; opacity: 1;" id="p-type-ether"></path><path d="M-150.598107892427,127.00082637219694A197,197,0,0,1,-152.74545528886782,124.40991073301389L-132.28144459277968,107.74214317734432A170.6070045455344,170.6070045455344,0,0,0,-130.42178719671156,109.98594193993924Z" fill-rule="evenodd" style="fill: #414552; stroke: #fff; opacity: 1;" id="p-type-ether"></path><path d="M-152.74545528886782,124.40991073301389A197,197,0,0,1,-154.81337027546408,121.82701007556595L-134.0723115040386,105.50528559254288A170.6070045455344,170.6070045455344,0,0,0,-132.28144459277968,107.74214317734432Z" fill-rule="evenodd" style="fill: #414552; stroke: #fff; opacity: 1;" id="p-type-ether"></path><path d="M-154.81337027546408,121.82701007556595A197,197,0,0,1,-155.5686140016526,120.86110349324477L-134.72637175696667,104.66878595457013A170.6070045455344,170.6070045455344,0,0,0,-134.0723115040386,105.50528559254288Z" fill-rule="evenodd" style="fill: #414552; stroke: #fff; opacity: 1;" id="p-type-ether"></path><path d="M-155.5686140016526,120.86110349324477A197,197,0,0,1,-156.30891461583184,119.90214014612333L-135.3674908952831,103.8382993346648A170.6070045455344,170.6070045455344,0,0,0,-134.72637175696667,104.66878595457013Z" fill-rule="evenodd" style="fill: #414552; stroke: #fff; opacity: 1;" id="p-type-ether"></path></g></svg>