<svg xmlns="http://www.w3.org/2000/svg" width="400" height="400"><g id="container" transform="translate(200,200)"><circle r="200" style="fill: #f9f9f9; stroke: #f9f9f9; opacity: 1;"></circle><path display="none" d="M7.070501591499379e-15,-115.47005383792515A115.47005383792515,115.47005383792515,0,1,1,-7.070501591499379e-15,115.47005383792515A115.47005383792515,115.47005383792515,0,1,1,7.070501591499379e-15,-115.47005383792515Z" fill-rule="evenodd" style="stroke: #fff; opacity: 1;"></path><path d="M9.999199243478977e-15,-163.29931618554522A163.29931618554522,163.29931618554522,0,1,1,-6.5335413872773715,-163.16856162756173L-4.619911420106792,-115.37759640330397A115.47005383792515,115.47005383792515,0,1,0,7.070501591499379e-15,-115.47005383792515Z" fill-rule="evenodd" style="fill: #6c7074; stroke: #fff; opacity: 1;"></path><path d="M1.2246467991473532e-14,-200A200,200,0,0,1,199.74979851315396,-10.0008996572503L163.0950275269924,-8.165700376346138A163.29931618554522,163.29931618554522,0,0,0,9.999199243478977e-15,-163.29931618554522Z" fill-rule="evenodd" style="fill: #f44336; stroke: #fff; opacity: 1;"></path><path d="M199.74979851315396,-10.0008996572503A200,200,0,0,1,109.6539974708987,167.26027872346782L89.53211402004632,136.56744570272997A163.29931618554522,163.29931618554522,0,0,0,163.0950275269924,-8.165700376346138Z" fill-rule="evenodd" style="fill: #6bbc80; stroke: #fff; opacity: 1;"></path><path d="M109.6539974708987,167.26027872346782A200,200,0,0,1,-66.72993359829965,188.53942813630923L-54.48476262854586,153.94179844336523A163.29931618554522,163.29931618554522,0,0,0,89.53211402004632,136.56744570272997Z" fill-rule="evenodd" style="fill: b3daef; stroke: #fff; opacity: 1;"></path><path d="M-66.72993359829965,188.53942813630923A200,200,0,0,1,-181.77496151987353,83.41380799632933L-148.41863457924572,68.10708903116472A163.29931618554522,163.29931618554522,0,0,0,-54.48476262854586,153.94179844336523Z" fill-rule="evenodd" style="fill: #B3DAEF; stroke: #fff; opacity: 1;"></path></g></svg>