<svg xmlns="http://www.w3.org/2000/svg" width="400" height="400"><g id="container" transform="translate(200,200)"><circle r="200" style="fill: #f9f9f9; stroke: #f9f9f9; opacity: 1;"></circle><path display="none" d="M7.070501591499379e-15,-115.47005383792515A115.47005383792515,115.47005383792515,0,1,1,-7.070501591499379e-15,115.47005383792515A115.47005383792515,115.47005383792515,0,1,1,7.070501591499379e-15,-115.47005383792515Z" fill-rule="evenodd" style="stroke: #fff; opacity: 1;"></path><path d="M9.999199243478977e-15,-163.29931618554522A163.29931618554522,163.29931618554522,0,1,1,-18.614719286151615,-162.23488802524705L-13.162594237121814,-114.71738946769239A115.47005383792515,115.47005383792515,0,1,0,7.070501591499379e-15,-115.47005383792515Z" fill-rule="evenodd" style="fill: #6c7074; stroke: #fff; opacity: 1;"></path><path d="M1.2246467991473532e-14,-200A200,200,0,0,1,199.91843856563784,5.711210158739238L163.23272155325296,4.663183567570284A163.29931618554522,163.29931618554522,0,0,0,9.999199243478977e-15,-163.29931618554522Z" fill-rule="evenodd" style="fill: #f44336; stroke: #fff; opacity: 1;"></path><path d="M199.91843856563784,5.711210158739238A200,200,0,0,1,77.85402126347832,184.22473062297001L63.56754217310453,150.4188626759864A163.29931618554522,163.29931618554522,0,0,0,163.23272155325296,4.663183567570284Z" fill-rule="evenodd" style="fill: b3daef; stroke: #fff; opacity: 1;"></path><path d="M77.85402126347832,184.22473062297001A200,200,0,0,1,-77.85402126347829,184.22473062297001L-63.56754217310451,150.4188626759864A163.29931618554522,163.29931618554522,0,0,0,63.56754217310453,150.4188626759864Z" fill-rule="evenodd" style="fill: #6bbc80; stroke: #fff; opacity: 1;"></path><path d="M-77.85402126347829,184.22473062297001A200,200,0,0,1,-176.88658619956286,93.33346464513477L-144.42729284392058,76.20645476889135A163.29931618554522,163.29931618554522,0,0,0,-63.56754217310451,150.4188626759864Z" fill-rule="evenodd" style="fill: #B3DAEF; stroke: #fff; opacity: 1;"></path></g></svg>