<svg xmlns="http://www.w3.org/2000/svg" width="400" height="400" id="block-7901147"><g id="burst-container" transform="translate(200,200)"><circle r="197" style="fill: #f9f9f9; stroke: #f9f9f9; stroke-width: 3; opacity: 1;" id="circle-base"></circle><path display="none" d="M6.031385485800715e-15,-98.5A98.5,98.5,0,1,1,-6.031385485800715e-15,98.5A98.5,98.5,0,1,1,6.031385485800715e-15,-98.5Z" fill-rule="evenodd" id="p-type-root" style="stroke: #fff; opacity: 1;"></path><path d="M8.529667153919608e-15,-139.30003589374985A139.30003589374985,139.30003589374985,0,1,1,-91.23949150074746,-105.26089107871465L-64.51606315219091,-74.43068987549769A98.5,98.5,0,1,0,6.031385485800715e-15,-98.5Z" fill-rule="evenodd" style="fill: #0B1F65; stroke: #fff; opacity: 1;" id="p-type-data"></path><path d="M-91.23949150074746,-105.26089107871465A139.30003589374985,139.30003589374985,0,0,1,-4.144512278615834,-139.23836762176006L-2.930612736920166,-98.45639394669196A98.5,98.5,0,0,0,-64.51606315219091,-74.43068987549769Z" fill-rule="evenodd" style="fill: #D7A449; stroke: #fff; opacity: 1;" id="p-type-value"></path><path d="M1.0446666101440332e-14,-170.6070045455344A170.6070045455344,170.6070045455344,0,0,1,155.31546973410286,70.596422439632L126.8145500030787,57.64173754768891A139.30003589374985,139.30003589374985,0,0,0,8.529667153919608e-15,-139.30003589374985Z" fill-rule="evenodd" style="fill: #DB3F29; stroke: #fff; opacity: 1;" id="p-type-functions"></path><path d="M155.31546973410286,70.596422439632A170.6070045455344,170.6070045455344,0,0,1,-10.506925783091454,170.28315979740512L-8.578868977955542,139.03561776415089A139.30003589374985,139.30003589374985,0,0,0,126.8145500030787,57.64173754768891Z" fill-rule="evenodd" style="fill: #414552; stroke: #fff; opacity: 1;" id="p-type-ether"></path><path d="M-10.506925783091454,170.28315979740512A170.6070045455344,170.6070045455344,0,0,1,-144.8230240060677,90.18337827858265L-118.24750394056827,73.63442002097449A139.30003589374985,139.30003589374985,0,0,0,-8.578868977955542,139.03561776415089Z" fill-rule="evenodd" style="fill: #1DC690; stroke: #fff; opacity: 1;" id="p-type-logs"></path><path d="M-144.8230240060677,90.18337827858265A170.6070045455344,170.6070045455344,0,0,1,-170.48175255869012,-6.536210256528654L-139.1977680747371,-5.336793326680381A139.30003589374985,139.30003589374985,0,0,0,-118.24750394056827,73.63442002097449Z" fill-rule="evenodd" style="fill: #D7A449; stroke: #fff; opacity: 1;" id="p-type-tokenTransfers"></path><path d="M-111.74509928391694,-128.91773650676444A170.6070045455344,170.6070045455344,0,0,1,-62.00577721838142,-158.94034601555532L-50.627505096574716,-129.77424909317062A139.30003589374985,139.30003589374985,0,0,0,-91.23949150074746,-105.26089107871465Z" fill-rule="evenodd" style="fill: #414552; stroke: #fff; opacity: 1;" id="p-type-ether"></path><path d="M-62.00577721838142,-158.94034601555532A170.6070045455344,170.6070045455344,0,0,1,-10.147446040683171,-170.30495981870703L-8.2853549973664,-139.05341740700806A139.30003589374985,139.30003589374985,0,0,0,-50.627505096574716,-129.77424909317062Z" fill-rule="evenodd" style="fill: #D7A449; stroke: #fff; opacity: 1;" id="p-type-tokenTransfers"></path><path d="M1.206277097160143e-14,-197A197,197,0,0,1,76.90972713631044,-181.36673860390795L66.60577749817423,-157.06820303251612A170.6070045455344,170.6070045455344,0,0,0,1.0446666101440332e-14,-170.6070045455344Z" fill-rule="evenodd" style="fill: #DB3F29; stroke: #fff; opacity: 1;" id="p-type-functions"></path><path d="M76.90972713631044,-181.36673860390795A197,197,0,0,1,92.47211304011378,-173.94800461602432L80.0831990343648,-150.64339093508985A170.6070045455344,170.6070045455344,0,0,0,66.60577749817423,-157.06820303251612Z" fill-rule="evenodd" style="fill: #DB3F29; stroke: #fff; opacity: 1;" id="p-type-functions"></path><path d="M92.47211304011378,-173.94800461602432A197,197,0,0,1,105.14476244159901,-166.594054308969L91.05803534930467,-144.27468315101157A170.6070045455344,170.6070045455344,0,0,0,80.0831990343648,-150.64339093508985Z" fill-rule="evenodd" style="fill: #DB3F29; stroke: #fff; opacity: 1;" id="p-type-functions"></path><path d="M105.14476244159901,-166.594054308969A197,197,0,0,1,117.06494709910594,-158.44493731477675L101.38121808050717,-137.2173408156296A170.6070045455344,170.6070045455344,0,0,0,91.05803534930467,-144.27468315101157Z" fill-rule="evenodd" style="fill: #DB3F29; stroke: #fff; opacity: 1;" id="p-type-functions"></path><path d="M117.06494709910594,-158.44493731477675A197,197,0,0,1,123.99545182625478,-153.08209538154009L107.3832112352662,-132.5729834649662A170.6070045455344,170.6070045455344,0,0,0,101.38121808050717,-137.2173408156296Z" fill-rule="evenodd" style="fill: #DB3F29; stroke: #fff; opacity: 1;" id="p-type-functions"></path><path d="M123.99545182625478,-153.08209538154009A197,197,0,0,1,129.09708335157157,-148.80505055312264L111.8013537369381,-128.86895399043183A170.6070045455344,170.6070045455344,0,0,0,107.3832112352662,-132.5729834649662Z" fill-rule="evenodd" style="fill: #DB3F29; stroke: #fff; opacity: 1;" id="p-type-functions"></path><path d="M129.09708335157157,-148.80505055312264A197,197,0,0,1,132.71795175931226,-145.58483877386706L114.93711776180204,-126.08016878403062A170.6070045455344,170.6070045455344,0,0,0,111.8013537369381,-128.86895399043183Z" fill-rule="evenodd" style="fill: #DB3F29; stroke: #fff; opacity: 1;" id="p-type-functions"></path><path d="M132.71795175931226,-145.58483877386706A197,197,0,0,1,135.9497673545018,-142.57159870134313L117.73595216758292,-123.47062633352364A170.6070045455344,170.6070045455344,0,0,0,114.93711776180204,-126.08016878403062Z" fill-rule="evenodd" style="fill: #DB3F29; stroke: #fff; opacity: 1;" id="p-type-functions"></path><path d="M135.9497673545018,-142.57159870134313A197,197,0,0,1,138.05587960264478,-140.5331779585876L119.5598988776963,-121.7053021866962A170.6070045455344,170.6070045455344,0,0,0,117.73595216758292,-123.47062633352364Z" fill-rule="evenodd" style="fill: #DB3F29; stroke: #fff; opacity: 1;" id="p-type-functions"></path><path d="M138.05587960264478,-140.5331779585876A197,197,0,0,1,140.13143141820478,-138.46364840161107L121.35737947684217,-119.91303701647176A170.6070045455344,170.6070045455344,0,0,0,119.5598988776963,-121.7053021866962Z" fill-rule="evenodd" style="fill: #DB3F29; stroke: #fff; opacity: 1;" id="p-type-functions"></path><path d="M140.13143141820478,-138.46364840161107A197,197,0,0,1,142.17596335127274,-136.36346814721878L123.12799606972753,-118.09422756364157A170.6070045455344,170.6070045455344,0,0,0,121.35737947684217,-119.91303701647176Z" fill-rule="evenodd" style="fill: #DB3F29; stroke: #fff; opacity: 1;" id="p-type-functions"></path><path d="M142.17596335127274,-136.36346814721878A197,197,0,0,1,144.18902281858686,-134.23310209713935L124.87135670775032,-116.2492764449129A170.6070045455344,170.6070045455344,0,0,0,123.12799606972753,-118.09422756364157Z" fill-rule="evenodd" style="fill: #DB3F29; stroke: #fff; opacity: 1;" id="p-type-functions"></path><path d="M144.18902281858686,-134.23310209713935A197,197,0,0,1,146.17016420371763,-132.07302183511294L126.58707547576225,-114.37859206378467A170.6070045455344,170.6070045455344,0,0,0,124.87135670775032,-116.2492764449129Z" fill-rule="evenodd" style="fill: #DB3F29; stroke: #fff; opacity: 1;" id="p-type-functions"></path><path d="M146.17016420371763,-132.07302183511294A197,197,0,0,1,148.11894895571083,-129.88370552250012L128.27477257749615,-112.48258852014227A170.6070045455344,170.6070045455344,0,0,0,126.58707547576225,-114.37859206378467Z" fill-rule="evenodd" style="fill: #DB3F29; stroke: #fff; opacity: 1;" id="p-type-functions"></path><path d="M148.11894895571083,-129.88370552250012A197,197,0,0,1,150.03494568616634,-127.66563779243464L129.93407441963853,-110.5616855185911A170.6070045455344,170.6070045455344,0,0,0,128.27477257749615,-112.48258852014227Z" fill-rule="evenodd" style="fill: #DB3F29; stroke: #fff; opacity: 1;" id="p-type-functions"></path><path d="M150.03494568616634,-127.66563779243464A197,197,0,0,1,151.9177302647314,-125.41930964254392L131.56461369452944,-108.61630827554964A170.6070045455344,170.6070045455344,0,0,0,129.93407441963853,-110.5616855185911Z" fill-rule="evenodd" style="fill: #DB3F29; stroke: #fff; opacity: 1;" id="p-type-functions"></path><path d="M151.9177302647314,-125.41930964254392A197,197,0,0,1,153.76688591298745,-123.14521832626025L133.16602946147066,-106.64688742512239A170.6070045455344,170.6070045455344,0,0,0,131.56461369452944,-108.61630827554964Z" fill-rule="evenodd" style="fill: #DB3F29; stroke: #fff; opacity: 1;" id="p-type-functions"></path><path d="M153.76688591298745,-123.14521832626025A197,197,0,0,1,155.58200329670913,-120.84386724274754L134.7379672266244,-104.65385892377353A170.6070045455344,170.6070045455344,0,0,0,133.16602946147066,-106.64688742512239Z" fill-rule="evenodd" style="fill: #DB3F29; stroke: #fff; opacity: 1;" id="p-type-functions"></path><path d="M155.58200329670913,-120.84386724274754A197,197,0,0,1,157.3626806164759,-118.5157658254673L136.2800790214852,-102.6376639538223A170.6070045455344,170.6070045455344,0,0,0,134.7379672266244,-104.65385892377353Z" fill-rule="evenodd" style="fill: #DB3F29; stroke: #fff; opacity: 1;" id="p-type-functions"></path><path d="M157.3626806164759,-118.5157658254673A197,197,0,0,1,159.10852369661524,-116.16142942940927L137.79202347990713,-100.59874882578174A170.6070045455344,170.6070045455344,0,0,0,136.2800790214852,-102.6376639538223Z" fill-rule="evenodd" style="fill: #DB3F29; stroke: #fff; opacity: 1;" id="p-type-functions"></path><path d="M159.10852369661524,-116.16142942940927A197,197,0,0,1,160.8191460724586,-113.78137921701082L139.27346591366958,-98.53756487956213A170.6070045455344,170.6070045455344,0,0,0,137.79202347990713,-100.59874882578174Z" fill-rule="evenodd" style="fill: #DB3F29; stroke: #fff; opacity: 1;" id="p-type-functions"></path><path d="M160.8191460724586,-113.78137921701082A197,197,0,0,1,162.4941690758903,-111.37614204279109L140.72407838656474,-96.45456838456114A170.6070045455344,170.6070045455344,0,0,0,139.27346591366958,-98.53756487956213Z" fill-rule="evenodd" style="fill: #DB3F29; stroke: #fff; opacity: 1;" id="p-type-functions"></path><path d="M162.4941690758903,-111.37614204279109A197,197,0,0,1,164.1332219191705,-108.94625033672493L142.1435397869905,-94.35022043866273A170.6070045455344,170.6070045455344,0,0,0,140.72407838656474,-96.45456838456114Z" fill-rule="evenodd" style="fill: #DB3F29; stroke: #fff; opacity: 1;" id="p-type-functions"></path><path d="M164.1332219191705,-108.94625033672493A197,197,0,0,1,165.73594177701372,-106.49224198638281L143.53153589903252,-92.22498686616731A170.6070045455344,170.6070045455344,0,0,0,142.1435397869905,-94.35022043866273Z" fill-rule="evenodd" style="fill: #DB3F29; stroke: #fff; opacity: 1;" id="p-type-functions"></path><path d="M165.73594177701372,-106.49224198638281A197,197,0,0,1,167.30197386690514,-104.0146602178625L144.88775947202012,-90.07933811467556A170.6070045455344,170.6070045455344,0,0,0,143.53153589903252,-92.22498686616731Z" fill-rule="evenodd" style="fill: #DB3F29; stroke: #fff; opacity: 1;" id="p-type-functions"></path><path d="M167.30197386690514,-104.0146602178625A197,197,0,0,1,168.8309715276359,-101.514053475539L146.21191028853994,-87.91374915094876A170.6070045455344,170.6070045455344,0,0,0,144.88775947202012,-90.07933811467556Z" fill-rule="evenodd" style="fill: #DB3F29; stroke: #fff; opacity: 1;" id="p-type-functions"></path><path d="M168.8309715276359,-101.514053475539A197,197,0,0,1,170.32259629604124,-98.99097530065941L147.50369523089304,-85.72869935576895A170.6070045455344,170.6070045455344,0,0,0,146.21191028853994,-87.91374915094876Z" fill-rule="evenodd" style="fill: #DB3F29; stroke: #fff; opacity: 1;" id="p-type-functions"></path><path d="M170.32259629604124,-98.99097530065941A197,197,0,0,1,171.77651798192343,-96.4459842088095L148.76282834598013,-83.52467241782185A170.6070045455344,170.6070045455344,0,0,0,147.50369523089304,-85.72869935576895Z" fill-rule="evenodd" style="fill: #DB3F29; stroke: #fff; opacity: 1;" id="p-type-functions"></path><path d="M171.77651798192343,-96.4459842088095A197,197,0,0,1,173.19241474114384,-93.87964356627916L149.98903090860105,-81.30215622662608A170.6070045455344,170.6070045455344,0,0,0,148.76282834598013,-83.52467241782185Z" fill-rule="evenodd" style="fill: #DB3F29; stroke: #fff; opacity: 1;" id="p-type-functions"></path><path d="M173.19241474114384,-93.87964356627916A197,197,0,0,1,174.56997314686703,-91.29252146535401L151.18203148315413,-79.06164276453273A170.6070045455344,170.6070045455344,0,0,0,149.98903090860105,-81.30215622662608Z" fill-rule="evenodd" style="fill: #DB3F29; stroke: #fff; opacity: 1;" id="p-type-functions"></path><path d="M174.56997314686703,-91.29252146535401A197,197,0,0,1,175.9088882589419,-88.68519059856104L152.34156598372184,-76.80362799781872A170.6070045455344,170.6070045455344,0,0,0,151.18203148315413,-79.06164276453273Z" fill-rule="evenodd" style="fill: #DB3F29; stroke: #fff; opacity: 1;" id="p-type-functions"></path><path d="M175.9088882589419,-88.68519059856104A197,197,0,0,1,177.20886369140402,-86.05822813189562L153.4673777325297,-74.52861176689824A170.6070045455344,170.6070045455344,0,0,0,152.34156598372184,-76.80362799781872Z" fill-rule="evenodd" style="fill: #DB3F29; stroke: #fff; opacity: 1;" id="p-type-functions"></path><path d="M177.20886369140402,-86.05822813189562A197,197,0,0,1,178.46961167808456,-83.41221557705865L154.55921751676513,-72.23709767567685A170.6070045455344,170.6070045455344,0,0,0,153.4673777325297,-74.52861176689824Z" fill-rule="evenodd" style="fill: #DB3F29; stroke: #fff; opacity: 1;" id="p-type-functions"></path><path d="M178.46961167808456,-83.41221557705865A197,197,0,0,1,179.6908531363109,-80.74773866273134L155.6168436437439,-69.92959298007223A170.6070045455344,170.6070045455344,0,0,0,154.55921751676513,-72.23709767567685Z" fill-rule="evenodd" style="fill: #DB3F29; stroke: #fff; opacity: 1;" id="p-type-functions"></path><path d="M179.6908531363109,-80.74773866273134A197,197,0,0,1,180.87231772868512,-78.06538720491677L156.6400219944118,-67.60660847572659A170.6070045455344,170.6070045455344,0,0,0,155.6168436437439,-69.92959298007223Z" fill-rule="evenodd" style="fill: #DB3F29; stroke: #fff; opacity: 1;" id="p-type-functions"></path><path d="M180.87231772868512,-78.06538720491677A197,197,0,0,1,182.01374392292678,-75.36575497637658L157.62852607517007,-65.26865838493559A170.6070045455344,170.6070045455344,0,0,0,156.6400219944118,-67.60660847572659Z" fill-rule="evenodd" style="fill: #DB3F29; stroke: #fff; opacity: 1;" id="p-type-functions"></path><path d="M182.01374392292678,-75.36575497637658A197,197,0,0,1,183.11487904976636,-72.64943957519175L158.58213706801254,-62.91626024281861A170.6070045455344,170.6070045455344,0,0,0,157.62852607517007,-65.26865838493559Z" fill-rule="evenodd" style="fill: #DB3F29; stroke: #fff; opacity: 1;" id="p-type-functions"></path><path d="M183.11487904976636,-72.64943957519175A197,197,0,0,1,184.17547935887674,-69.91704229247664L159.50064387896379,-60.549934782755756A170.6070045455344,170.6070045455344,0,0,0,158.58213706801254,-62.91626024281861Z" fill-rule="evenodd" style="fill: #DB3F29; stroke: #fff; opacity: 1;" id="p-type-functions"></path><path d="M184.17547935887674,-69.91704229247664A197,197,0,0,1,185.19531007283058,-67.16916797927556L160.3838431848074,-58.1702058211169A170.6070045455344,170.6070045455344,0,0,0,159.50064387896379,-60.549934782755756Z" fill-rule="evenodd" style="fill: #DB3F29; stroke: #fff; opacity: 1;" id="p-type-functions"></path><path d="M185.19531007283058,-67.16916797927556A197,197,0,0,1,186.17414543907122,-64.4064249126712L161.23153947809448,-55.7776001413082A170.6070045455344,170.6070045455344,0,0,0,160.3838431848074,-58.1702058211169Z" fill-rule="evenodd" style="fill: #DB3F29; stroke: #fff; opacity: 1;" id="p-type-functions"></path><path d="M179.34285652059492,81.51772699869213A197,197,0,0,1,133.2859027350622,145.06504793402004L115.42897773490566,125.63001671206867A170.6070045455344,170.6070045455344,0,0,0,155.31546973410286,70.596422439632Z" fill-rule="evenodd" style="fill: #414552; stroke: #fff; opacity: 1;" id="p-type-ether"></path><path d="M133.2859027350622,145.06504793402004A197,197,0,0,1,120.09246481268656,156.1627352962724L104.00312533087536,135.2408958910367A170.6070045455344,170.6070045455344,0,0,0,115.42897773490566,125.63001671206867Z" fill-rule="evenodd" style="fill: #414552; stroke: #fff; opacity: 1;" id="p-type-ether"></path><path d="M120.09246481268656,156.1627352962724A197,197,0,0,1,108.15376415767021,164.65650093004848L93.66390727545328,142.596712703678A170.6070045455344,170.6070045455344,0,0,0,104.00312533087536,135.2408958910367Z" fill-rule="evenodd" style="fill: #414552; stroke: #fff; opacity: 1;" id="p-type-ether"></path><path d="M108.15376415767021,164.65650093004848A197,197,0,0,1,95.8025343173473,172.13620891135454L82.96742846575323,149.0743298283783A170.6070045455344,170.6070045455344,0,0,0,93.66390727545328,142.596712703678Z" fill-rule="evenodd" style="fill: #414552; stroke: #fff; opacity: 1;" id="p-type-ether"></path><path d="M95.8025343173473,172.13620891135454A197,197,0,0,1,84.46293567662644,177.97475241417268L73.14704797416948,154.13065682291938A170.6070045455344,170.6070045455344,0,0,0,82.96742846575323,149.0743298283783Z" fill-rule="evenodd" style="fill: #414552; stroke: #fff; opacity: 1;" id="p-type-ether"></path><path d="M84.46293567662644,177.97475241417268A197,197,0,0,1,76.46452269895889,181.55488637990553L66.22021914555023,157.23114378619556A170.6070045455344,170.6070045455344,0,0,0,73.14704797416948,154.13065682291938Z" fill-rule="evenodd" style="fill: #414552; stroke: #fff; opacity: 1;" id="p-type-ether"></path><path d="M76.46452269895889,181.55488637990553A197,197,0,0,1,69.8329180207635,184.2073927960149L60.47708102637731,159.52828172624749A170.6070045455344,170.6070045455344,0,0,0,66.22021914555023,157.23114378619556Z" fill-rule="evenodd" style="fill: #414552; stroke: #fff; opacity: 1;" id="p-type-ether"></path><path d="M69.8329180207635,184.2073927960149A197,197,0,0,1,63.56892995556896,186.46176858622778L55.0523082329163,161.4806284302485A170.6070045455344,170.6070045455344,0,0,0,60.47708102637731,159.52828172624749Z" fill-rule="evenodd" style="fill: #414552; stroke: #fff; opacity: 1;" id="p-type-ether"></path><path d="M63.56892995556896,186.46176858622778A197,197,0,0,1,58.96359497743299,187.96886568614826L51.0639711489135,162.78581280474944A170.6070045455344,170.6070045455344,0,0,0,55.0523082329163,161.4806284302485Z" fill-rule="evenodd" style="fill: #414552; stroke: #fff; opacity: 1;" id="p-type-ether"></path><path d="M58.96359497743299,187.96886568614826A197,197,0,0,1,54.732967599253584,189.24402832792126L47.40014036546418,163.89013604648173A170.6070045455344,170.6070045455344,0,0,0,51.0639711489135,162.78581280474944Z" fill-rule="evenodd" style="fill: #414552; stroke: #fff; opacity: 1;" id="p-type-ether"></path><path d="M-12.132352858446541,196.6260562949838A197,197,0,0,1,-15.056383690252693,196.42379008198546L-13.039210764884524,170.10799211862127A170.6070045455344,170.6070045455344,0,0,0,-10.506925783091454,170.28315979740512Z" fill-rule="evenodd" style="fill: #1DC690; stroke: #fff; opacity: 1;" id="p-type-logs"></path><path d="M-15.056383690252693,196.42379008198546A197,197,0,0,1,-17.97708159918708,196.1780429537826L-15.568609350801793,169.89516886269053A170.6070045455344,170.6070045455344,0,0,0,-13.039210764884524,170.10799211862127Z" fill-rule="evenodd" style="fill: #1DC690; stroke: #fff; opacity: 1;" id="p-type-logs"></path><path d="M-17.97708159918708,196.1780429537826A197,197,0,0,1,-20.893800051456303,195.8888693096414L-18.09456162615377,169.6447371407593A170.6070045455344,170.6070045455344,0,0,0,-15.568609350801793,169.89516886269053Z" fill-rule="evenodd" style="fill: #1DC690; stroke: #fff; opacity: 1;" id="p-type-logs"></path><path d="M-20.893800051456303,195.8888693096414A197,197,0,0,1,-23.80589339417052,195.5563331618421L-20.616508439135828,169.3567523890885A170.6070045455344,170.6070045455344,0,0,0,-18.09456162615377,169.6447371407593Z" fill-rule="evenodd" style="fill: #1DC690; stroke: #fff; opacity: 1;" id="p-type-logs"></path><path d="M-23.80589339417052,195.5563331618421A197,197,0,0,1,-26.71271699826699,195.18050812150915L-23.13389152460361,169.03127835678185A170.6070045455344,170.6070045455344,0,0,0,-20.616508439135828,169.3567523890885Z" fill-rule="evenodd" style="fill: #1DC690; stroke: #fff; opacity: 1;" id="p-type-logs"></path><path d="M-26.71271699826699,195.18050812150915A197,197,0,0,1,-29.613627401206923,194.76147738231626L-25.64615362765214,168.66838709167425A170.6070045455344,170.6070045455344,0,0,0,-23.13389152460361,169.03127835678185Z" fill-rule="evenodd" style="fill: #1DC690; stroke: #fff; opacity: 1;" id="p-type-logs"></path><path d="M-29.613627401206923,194.76147738231626A197,197,0,0,1,-32.50798244941415,194.29933370207058L-28.152738626971335,168.26815892438307A170.6070045455344,170.6070045455344,0,0,0,-25.64615362765214,168.66838709167425Z" fill-rule="evenodd" style="fill: #1DC690; stroke: #fff; opacity: 1;" id="p-type-logs"></path><path d="M-32.50798244941415,194.29933370207058A197,197,0,0,1,-35.39514144042401,193.79417938217952L-30.65309165795052,167.83068245052596A170.6070045455344,170.6070045455344,0,0,0,-28.152738626971335,168.26815892438307Z" fill-rule="evenodd" style="fill: #1DC690; stroke: #fff; opacity: 1;" id="p-type-logs"></path><path d="M-35.39514144042401,193.79417938217952A197,197,0,0,1,-38.27446526471104,193.24612624500503L-33.14665923550485,167.35605451110908A170.6070045455344,170.6070045455344,0,0,0,-30.65309165795052,167.83068245052596Z" fill-rule="evenodd" style="fill: #1DC690; stroke: #fff; opacity: 1;" id="p-type-logs"></path><path d="M-38.27446526471104,193.24612624500503A197,197,0,0,1,-41.14531654716401,192.65529560911028L-35.63288937659625,166.8443801710901A170.6070045455344,170.6070045455344,0,0,0,-33.14665923550485,167.35605451110908Z" fill-rule="evenodd" style="fill: #1DC690; stroke: #fff; opacity: 1;" id="p-type-logs"></path><path d="M-41.14531654716401,192.65529560911028A197,197,0,0,1,-44.007059788177074,192.02181826240425L-38.111231722421984,166.29577269612074A170.6070045455344,170.6070045455344,0,0,0,-35.63288937659625,166.8443801710901Z" fill-rule="evenodd" style="fill: #1DC690; stroke: #fff; opacity: 1;" id="p-type-logs"></path><path d="M-44.007059788177074,192.02181826240425A197,197,0,0,1,-46.859061504325695,191.34583443319016L-40.581137660243506,165.71035352747387A170.6070045455344,170.6070045455344,0,0,0,-38.111231722421984,166.29577269612074Z" fill-rule="evenodd" style="fill: #1DC690; stroke: #fff; opacity: 1;" id="p-type-logs"></path><path d="M-46.859061504325695,191.34583443319016A197,197,0,0,1,-49.700690368596334,190.62749375912415L-43.042060444829,165.08825225516102A170.6070045455344,170.6070045455344,0,0,0,-40.581137660243506,165.71035352747387Z" fill-rule="evenodd" style="fill: #1DC690; stroke: #fff; opacity: 1;" id="p-type-logs"></path><path d="M-49.700690368596334,190.62749375912415A197,197,0,0,1,-52.531317350138714,189.86695525409104L-45.493455319482365,164.42960658924613A170.6070045455344,170.6070045455344,0,0,0,-43.042060444829,165.08825225516102Z" fill-rule="evenodd" style="fill: #1DC690; stroke: #fff; opacity: 1;" id="p-type-logs"></path><path d="M-52.531317350138714,189.86695525409104A197,197,0,0,1,-55.35031585350984,189.0643872730047L-47.93477963663207,163.73456232936138A170.6070045455344,170.6070045455344,0,0,0,-45.493455319482365,164.42960658924613Z" fill-rule="evenodd" style="fill: #1DC690; stroke: #fff; opacity: 1;" id="p-type-logs"></path><path d="M-55.35031585350984,189.0643872730047A197,197,0,0,1,-58.157061857378906,188.21996747454028L-50.365492977953146,163.00327333243266A170.6070045455344,170.6070045455344,0,0,0,-47.93477963663207,163.73456232936138Z" fill-rule="evenodd" style="fill: #1DC690; stroke: #fff; opacity: 1;" id="p-type-logs"></path><path d="M-58.157061857378906,188.21996747454028A197,197,0,0,1,-60.950934052662426,187.33388278180752L-52.78505727399566,162.23590147862154A170.6070045455344,170.6070045455344,0,0,0,-50.365492977953146,163.00327333243266Z" fill-rule="evenodd" style="fill: #1DC690; stroke: #fff; opacity: 1;" id="p-type-logs"></path><path d="M-60.950934052662426,187.33388278180752A197,197,0,0,1,-63.73131398005886,186.40632934097263L-55.19293692329331,161.43261663549086A170.6070045455344,170.6070045455344,0,0,0,-52.78505727399566,162.23590147862154Z" fill-rule="evenodd" style="fill: #1DC690; stroke: #fff; opacity: 1;" id="p-type-logs"></path><path d="M-63.73131398005886,186.40632934097263A197,197,0,0,1,-66.49758616695257,185.43751247783905L-57.5885989109256,160.59359662040245A170.6070045455344,170.6070045455344,0,0,0,-55.19293692329331,161.43261663549086Z" fill-rule="evenodd" style="fill: #1DC690; stroke: #fff; opacity: 1;" id="p-type-logs"></path><path d="M-66.49758616695257,185.43751247783905A197,197,0,0,1,-69.24913826365648,184.42764665239588L-59.971512926507515,159.7190271611549A170.6070045455344,170.6070045455344,0,0,0,-57.5885989109256,160.59359662040245Z" fill-rule="evenodd" style="fill: #1DC690; stroke: #fff; opacity: 1;" id="p-type-logs"></path><path d="M-69.24913826365648,184.42764665239588A197,197,0,0,1,-71.98536117896349,183.37695541134437L-62.34115148158051,158.8091018548705A170.6070045455344,170.6070045455344,0,0,0,-59.971512926507515,159.7190271611549Z" fill-rule="evenodd" style="fill: #1DC690; stroke: #fff; opacity: 1;" id="p-type-logs"></path><path d="M-71.98536117896349,183.37695541134437A197,197,0,0,1,-74.7056492149767,182.28567133861304L-64.69699002637883,157.86402212513983A170.6070045455344,170.6070045455344,0,0,0,-62.34115148158051,158.8091018548705Z" fill-rule="evenodd" style="fill: #1DC690; stroke: #fff; opacity: 1;" id="p-type-logs"></path><path d="M-74.7056492149767,182.28567133861304A197,197,0,0,1,-77.40940020118825,181.15403600387233L-67.03850706594527,156.88399717743428A170.6070045455344,170.6070045455344,0,0,0,-64.69699002637883,157.86402212513983Z" fill-rule="evenodd" style="fill: #1DC690; stroke: #fff; opacity: 1;" id="p-type-logs"></path><path d="M-77.40940020118825,181.15403600387233A197,197,0,0,1,-80.09601562777755,179.98229990905998L-69.36518427557075,155.8692439527956A170.6070045455344,170.6070045455344,0,0,0,-67.03850706594527,156.88399717743428Z" fill-rule="evenodd" style="fill: #1DC690; stroke: #fff; opacity: 1;" id="p-type-logs"></path><path d="M-80.09601562777755,179.98229990905998A197,197,0,0,1,-82.76490077809899,178.77072243292923L-71.67650661553218,154.81998707981333A170.6070045455344,170.6070045455344,0,0,0,-69.36518427557075,155.8692439527956Z" fill-rule="evenodd" style="fill: #1DC690; stroke: #fff; opacity: 1;" id="p-type-logs"></path><path d="M-82.76490077809899,178.77072243292923A197,197,0,0,1,-85.41546486033015,177.51957177363207L-73.97196244510295,153.73645882490035A170.6070045455344,170.6070045455344,0,0,0,-71.67650661553218,154.81998707981333Z" fill-rule="evenodd" style="fill: #1DC690; stroke: #fff; opacity: 1;" id="p-type-logs"></path><path d="M-85.41546486033015,177.51957177363207A197,197,0,0,1,-88.04712113825107,176.22912488935006L-76.25104363581127,152.61889904087766A170.6070045455344,170.6070045455344,0,0,0,-73.97196244510295,153.73645882490035Z" fill-rule="evenodd" style="fill: #1DC690; stroke: #fff; opacity: 1;" id="p-type-logs"></path><path d="M-88.04712113825107,176.22912488935006A197,197,0,0,1,-90.6592870611258,174.89966743698625L-78.5132456839208,151.46755511388005A170.6070045455344,170.6070045455344,0,0,0,-76.25104363581127,152.61889904087766Z" fill-rule="evenodd" style="fill: #1DC690; stroke: #fff; opacity: 1;" id="p-type-logs"></path><path d="M-90.6592870611258,174.89966743698625A197,197,0,0,1,-93.25138439265749,173.53149370893124L-80.7580678221091,150.28268190859393A170.6070045455344,170.6070045455344,0,0,0,-78.5132456839208,151.46755511388005Z" fill-rule="evenodd" style="fill: #1DC690; stroke: #fff; opacity: 1;" id="p-type-logs"></path><path d="M-93.25138439265749,173.53149370893124A197,197,0,0,1,-95.82283933898832,172.1249065679178L-82.98501313031875,149.06454171183978A170.6070045455344,170.6070045455344,0,0,0,-80.7580678221091,150.28268190859393Z" fill-rule="evenodd" style="fill: #1DC690; stroke: #fff; opacity: 1;" id="p-type-logs"></path><path d="M-95.82283933898832,172.1249065679178A197,197,0,0,1,-98.37308267571619,170.68021737997847L-85.19358864575707,147.81340417451162A170.6070045455344,170.6070045455344,0,0,0,-82.98501313031875,149.06454171183978Z" fill-rule="evenodd" style="fill: #1DC690; stroke: #fff; opacity: 1;" id="p-type-logs"></path><path d="M-98.37308267571619,170.68021737997847A197,197,0,0,1,-100.90154987389971,169.19774594552058L-87.38330547201967,146.52954625188633A170.6070045455344,170.6070045455344,0,0,0,-85.19358864575707,147.81340417451162Z" fill-rule="evenodd" style="fill: #1DC690; stroke: #fff; opacity: 1;" id="p-type-logs"></path><path d="M-167.22722378951767,104.13479545113908A197,197,0,0,1,-168.75801707809015,101.63528753278082L-146.14872988191422,88.01874092432404A170.6070045455344,170.6070045455344,0,0,0,-144.8230240060677,90.18337827858265Z" fill-rule="evenodd" style="fill: #D7A449; stroke: #fff; opacity: 1;" id="p-type-tokenTransfers"></path><path d="M-168.75801707809015,101.63528753278082A197,197,0,0,1,-170.25145362373655,99.1132813451592L-147.44208386938408,85.83461949734216A170.6070045455344,170.6070045455344,0,0,0,-146.14872988191422,88.01874092432404Z" fill-rule="evenodd" style="fill: #D7A449; stroke: #fff; opacity: 1;" id="p-type-tokenTransfers"></path><path d="M-170.25145362373655,99.1132813451592A197,197,0,0,1,-171.7072028351992,96.56933516656183L-148.7027996680499,83.63149748081649A170.6070045455344,170.6070045455344,0,0,0,-147.44208386938408,85.83461949734216Z" fill-rule="evenodd" style="fill: #D7A449; stroke: #fff; opacity: 1;" id="p-type-tokenTransfers"></path><path d="M-171.7072028351992,96.56933516656183A197,197,0,0,1,-173.12494246379327,94.00401213197375L-149.93059820236428,81.40986256394984A170.6070045455344,170.6070045455344,0,0,0,-148.7027996680499,83.63149748081649Z" fill-rule="evenodd" style="fill: #D7A449; stroke: #fff; opacity: 1;" id="p-type-tokenTransfers"></path><path d="M-173.12494246379327,94.00401213197375A197,197,0,0,1,-174.50435867474064,91.41788010842009L-151.12520768343677,79.17020653401191A170.6070045455344,170.6070045455344,0,0,0,-149.93059820236428,81.40986256394984Z" fill-rule="evenodd" style="fill: #D7A449; stroke: #fff; opacity: 1;" id="p-type-tokenTransfers"></path><path d="M-174.50435867474064,91.41788010842009A197,197,0,0,1,-175.8451461166413,88.81151156926151L-152.2863636691979,76.91302516747604A170.6070045455344,170.6070045455344,0,0,0,-151.12520768343677,79.17020653401191Z" fill-rule="evenodd" style="fill: #D7A449; stroke: #fff; opacity: 1;" id="p-type-tokenTransfers"></path><path d="M-175.8451461166413,88.81151156926151A197,197,0,0,1,-177.1470079890667,86.18548346746991L-153.41380912293667,74.63881812027269A170.6070045455344,170.6070045455344,0,0,0,-152.2863636691979,76.91302516747604Z" fill-rule="evenodd" style="fill: #D7A449; stroke: #fff; opacity: 1;" id="p-type-tokenTransfers"></path><path d="M-177.1470079890667,86.18548346746991A197,197,0,0,1,-178.40965610826046,83.54037710791258L-154.5072944701991,72.34808881718426A170.6070045455344,170.6070045455344,0,0,0,-153.41380912293667,74.63881812027269Z" fill-rule="evenodd" style="fill: #D7A449; stroke: #fff; opacity: 1;" id="p-type-tokenTransfers"></path><path d="M-178.40965610826046,83.54037710791258A197,197,0,0,1,-179.63281097093125,80.87677801867281L-155.5665776540345,70.04134434040553A170.6070045455344,170.6070045455344,0,0,0,-154.5072944701991,72.34808881718426Z" fill-rule="evenodd" style="fill: #D7A449; stroke: #fff; opacity: 1;" id="p-type-tokenTransfers"></path><path d="M-179.63281097093125,80.87677801867281A197,197,0,0,1,-180.81620181612476,78.1952758214359L-156.591424188578,67.71909531729457A170.6070045455344,170.6070045455344,0,0,0,-155.5665776540345,70.04134434040553Z" fill-rule="evenodd" style="fill: #D7A449; stroke: #fff; opacity: 1;" id="p-type-tokenTransfers"></path><path d="M-180.81620181612476,78.1952758214359A197,197,0,0,1,-181.95956668515984,75.4964641009688L-157.58160721095703,65.38185580733888A170.6070045455344,170.6070045455344,0,0,0,-156.591424188578,67.71909531729457Z" fill-rule="evenodd" style="fill: #D7A449; stroke: #fff; opacity: 1;" id="p-type-tokenTransfers"></path><path d="M-181.95956668515984,75.4964641009688A197,197,0,0,1,-183.06265247961647,72.78094027372254L-158.53690753151022,63.03014318836167A170.6070045455344,170.6070045455344,0,0,0,-157.58160721095703,65.38185580733888Z" fill-rule="evenodd" style="fill: #D7A449; stroke: #fff; opacity: 1;" id="p-type-tokenTransfers"></path><path d="M-183.06265247961647,72.78094027372254A197,197,0,0,1,-184.12521501736242,70.04930545558649L-159.45711368230786,60.664478041993775A170.6070045455344,170.6070045455344,0,0,0,-158.53690753151022,63.03014318836167Z" fill-rule="evenodd" style="fill: #D7A449; stroke: #fff; opacity: 1;" id="p-type-tokenTransfers"></path><path d="M-184.12521501736242,70.04930545558649A197,197,0,0,1,-185.1470190866059,67.3021643288237L-160.34202196396305,58.28538403843618A170.6070045455344,170.6070045455344,0,0,0,-159.45711368230786,60.664478041993775Z" fill-rule="evenodd" style="fill: #D7A449; stroke: #fff; opacity: 1;" id="p-type-tokenTransfers"></path><path d="M-185.1470190866059,67.3021643288237A197,197,0,0,1,-186.12783849796293,64.54012500821663L-161.19143649072313,55.89338782053896A170.6070045455344,170.6070045455344,0,0,0,-160.34202196396305,58.28538403843618Z" fill-rule="evenodd" style="fill: #D7A449; stroke: #fff; opacity: 1;" id="p-type-tokenTransfers"></path><path d="M-186.12783849796293,64.54012500821663A197,197,0,0,1,-187.067456134527,61.763798906453395L-162.0051692338315,53.48901888722217A170.6070045455344,170.6070045455344,0,0,0,-161.19143649072313,55.89338782053896Z" fill-rule="evenodd" style="fill: #D7A449; stroke: #fff; opacity: 1;" id="p-type-tokenTransfers"></path><path d="M-187.067456134527,61.763798906453395A197,197,0,0,1,-187.9656639999309,58.97380059878352L-162.78304006315028,51.07280947626447A170.6070045455344,170.6070045455344,0,0,0,-162.0051692338315,53.48901888722217Z" fill-rule="evenodd" style="fill: #D7A449; stroke: #fff; opacity: 1;" id="p-type-tokenTransfers"></path><path d="M-187.9656639999309,58.97380059878352A197,197,0,0,1,-188.8222632643892,56.17074768697403L-163.52487678703423,48.64529444648551A170.6070045455344,170.6070045455344,0,0,0,-162.78304006315028,51.07280947626447Z" fill-rule="evenodd" style="fill: #D7A449; stroke: #fff; opacity: 1;" id="p-type-tokenTransfers"></path><path d="M-188.8222632643892,56.17074768697403A197,197,0,0,1,-189.63706430871184,53.35526066259531L-164.2305151904477,46.20701115934808A170.6070045455344,170.6070045455344,0,0,0,-163.52487678703423,48.64529444648551Z" fill-rule="evenodd" style="fill: #D7A449; stroke: #fff; opacity: 1;" id="p-type-tokenTransfers"></path></g></svg>