<svg xmlns="http://www.w3.org/2000/svg" width="400" height="400" id="block-7901179"><g id="burst-container" transform="translate(200,200)"><circle r="197" style="fill: #f9f9f9; stroke: #f9f9f9; stroke-width: 3; opacity: 1;" id="circle-base"></circle><path display="none" d="M6.031385485800715e-15,-98.5A98.5,98.5,0,1,1,-6.031385485800715e-15,98.5A98.5,98.5,0,1,1,6.031385485800715e-15,-98.5Z" fill-rule="evenodd" id="p-type-root" style="stroke: #fff; opacity: 1;"></path><path d="M8.529667153919608e-15,-139.30003589374985A139.30003589374985,139.30003589374985,0,1,1,-110.30918877315052,-85.06693171973137L-78.00037540868172,-60.15140427375508A98.5,98.5,0,1,0,6.031385485800715e-15,-98.5Z" fill-rule="evenodd" style="fill: #0B1F65; stroke: #fff; opacity: 1;" id="p-type-data"></path><path d="M-110.30918877315052,-85.06693171973137A139.30003589374985,139.30003589374985,0,0,1,-1.6750144885268134,-139.28996491658407L-1.1844141034230264,-98.4928787437529A98.5,98.5,0,0,0,-78.00037540868172,-60.15140427375508Z" fill-rule="evenodd" style="fill: #D7A449; stroke: #fff; opacity: 1;" id="p-type-value"></path><path d="M1.0446666101440332e-14,-170.6070045455344A170.6070045455344,170.6070045455344,0,0,1,170.58831253580283,2.5253962436136437L139.28477393171335,2.061977398398263A139.30003589374985,139.30003589374985,0,0,0,8.529667153919608e-15,-139.30003589374985Z" fill-rule="evenodd" style="fill: #DB3F29; stroke: #fff; opacity: 1;" id="p-type-functions"></path><path d="M170.58831253580283,2.5253962436136437A170.6070045455344,170.6070045455344,0,0,1,88.5785248753378,145.81013315578983L72.32406270433485,119.05347518631885A139.30003589374985,139.30003589374985,0,0,0,139.28477393171335,2.061977398398263Z" fill-rule="evenodd" style="fill: #1DC690; stroke: #fff; opacity: 1;" id="p-type-logs"></path><path d="M88.5785248753378,145.81013315578983A170.6070045455344,170.6070045455344,0,0,1,-74.69083954688165,153.38848877207826L-60.98481511665025,125.2411766360728A139.30003589374985,139.30003589374985,0,0,0,72.32406270433485,119.05347518631885Z" fill-rule="evenodd" style="fill: #414552; stroke: #fff; opacity: 1;" id="p-type-ether"></path><path d="M-74.69083954688165,153.38848877207826A170.6070045455344,170.6070045455344,0,0,1,-164.74122434467955,44.35176435516356L-134.5106464152783,36.213063954103234A139.30003589374985,139.30003589374985,0,0,0,-60.98481511665025,125.2411766360728Z" fill-rule="evenodd" style="fill: #D7A449; stroke: #fff; opacity: 1;" id="p-type-tokenTransfers"></path><path d="M-135.10061321728278,-104.1852883487595A170.6070045455344,170.6070045455344,0,0,1,-75.27287040197616,-153.10370662216934L-61.460041319829365,-125.00865298436291A139.30003589374985,139.30003589374985,0,0,0,-110.30918877315052,-85.06693171973137Z" fill-rule="evenodd" style="fill: #414552; stroke: #fff; opacity: 1;" id="p-type-ether"></path><path d="M-75.27287040197616,-153.10370662216934A170.6070045455344,170.6070045455344,0,0,1,-4.102634178998163,-170.5576688184771L-3.349786779949228,-139.25975344128997A139.30003589374985,139.30003589374985,0,0,0,-61.460041319829365,-125.00865298436291Z" fill-rule="evenodd" style="fill: #D7A449; stroke: #fff; opacity: 1;" id="p-type-tokenTransfers"></path><path d="M1.206277097160143e-14,-197A197,197,0,0,1,45.408216620491345,-191.6953151836177L39.32466913389228,-166.01301273547776A170.6070045455344,170.6070045455344,0,0,0,1.0446666101440332e-14,-170.6070045455344Z" fill-rule="evenodd" style="fill: #DB3F29; stroke: #fff; opacity: 1;" id="p-type-functions"></path><path d="M45.408216620491345,-191.6953151836177A197,197,0,0,1,50.95535618623878,-190.29595811770028L44.128632916167334,-164.801133967428A170.6070045455344,170.6070045455344,0,0,0,39.32466913389228,-166.01301273547776Z" fill-rule="evenodd" style="fill: #DB3F29; stroke: #fff; opacity: 1;" id="p-type-functions"></path><path d="M50.95535618623878,-190.29595811770028A197,197,0,0,1,55.55675616680653,-189.00382759145913L48.11356219231222,-163.6821161066978A170.6070045455344,170.6070045455344,0,0,0,44.128632916167334,-164.801133967428Z" fill-rule="evenodd" style="fill: #DB3F29; stroke: #fff; opacity: 1;" id="p-type-functions"></path><path d="M55.55675616680653,-189.00382759145913A197,197,0,0,1,56.6921116310433,-188.66638407202626L49.09680886666675,-163.38988144652652A170.6070045455344,170.6070045455344,0,0,0,48.11356219231222,-163.6821161066978Z" fill-rule="evenodd" style="fill: #DB3F29; stroke: #fff; opacity: 1;" id="p-type-functions"></path><path d="M56.6921116310433,-188.66638407202626A197,197,0,0,1,57.82541774145958,-188.32212048250116L50.07828074855138,-163.09174043239977A170.6070045455344,170.6070045455344,0,0,0,49.09680886666675,-163.38988144652652Z" fill-rule="evenodd" style="fill: #DB3F29; stroke: #fff; opacity: 1;" id="p-type-functions"></path><path d="M57.82541774145958,-188.32212048250116A197,197,0,0,1,58.95663353035913,-187.9710492676118L51.05794235890044,-162.7877038417681A170.6070045455344,170.6070045455344,0,0,0,50.07828074855138,-163.09174043239977Z" fill-rule="evenodd" style="fill: #DB3F29; stroke: #fff; opacity: 1;" id="p-type-functions"></path><path d="M58.95663353035913,-187.9710492676118A197,197,0,0,1,60.085718105608414,-187.61318311817365L52.035758284087485,-162.47778266520015A170.6070045455344,170.6070045455344,0,0,0,51.05794235890044,-162.7877038417681Z" fill-rule="evenodd" style="fill: #DB3F29; stroke: #fff; opacity: 1;" id="p-type-functions"></path><path d="M60.085718105608414,-187.61318311817365A197,197,0,0,1,61.21263065211479,-187.24853497063143L53.01169317720541,-162.16198810598564A170.6070045455344,170.6070045455344,0,0,0,52.035758284087485,-162.47778266520015Z" fill-rule="evenodd" style="fill: #DB3F29; stroke: #fff; opacity: 1;" id="p-type-functions"></path><path d="M61.21263065211479,-187.24853497063143A197,197,0,0,1,62.33733043330197,-186.87711800659096L53.98571175934432,-161.84033157973013A170.6070045455344,170.6070045455344,0,0,0,53.01169317720541,-162.16198810598564Z" fill-rule="evenodd" style="fill: #DB3F29; stroke: #fff; opacity: 1;" id="p-type-functions"></path><path d="M62.33733043330197,-186.87711800659096A197,197,0,0,1,63.45977679258252,-186.49894565234305L54.95777882086662,-161.51282471394245A170.6070045455344,170.6070045455344,0,0,0,53.98571175934432,-161.84033157973013Z" fill-rule="evenodd" style="fill: #DB3F29; stroke: #fff; opacity: 1;" id="p-type-functions"></path><path d="M63.45977679258252,-186.49894565234305A197,197,0,0,1,64.5799291548275,-186.11403157837796L55.92785922267993,-161.17947934761452A170.6070045455344,170.6070045455344,0,0,0,54.95777882086662,-161.51282471394245Z" fill-rule="evenodd" style="fill: #DB3F29; stroke: #fff; opacity: 1;" id="p-type-functions"></path><path d="M64.5799291548275,-186.11403157837796A197,197,0,0,1,65.69774702783349,-185.72238969889116L56.895917897507395,-160.84030753079307A170.6070045455344,170.6070045455344,0,0,0,55.92785922267993,-161.17947934761452Z" fill-rule="evenodd" style="fill: #DB3F29; stroke: #fff; opacity: 1;" id="p-type-functions"></path><path d="M65.69774702783349,-185.72238969889116A197,197,0,0,1,66.81319000378595,-185.32403417128066L57.86191985115514,-160.49532152414443A170.6070045455344,170.6070045455344,0,0,0,56.895917897507395,-160.84030753079307Z" fill-rule="evenodd" style="fill: #DB3F29; stroke: #fff; opacity: 1;" id="p-type-functions"></path><path d="M66.81319000378595,-185.32403417128066A197,197,0,0,1,67.92621776072019,-184.91897939563484L58.82583016377741,-160.14453379851093A170.6070045455344,170.6070045455344,0,0,0,57.86191985115514,-160.49532152414443Z" fill-rule="evenodd" style="fill: #DB3F29; stroke: #fff; opacity: 1;" id="p-type-functions"></path><path d="M67.92621776072019,-184.91897939563484A197,197,0,0,1,69.03679006397886,-184.50724001421221L59.78761399113881,-159.78795703446045A170.6070045455344,170.6070045455344,0,0,0,58.82583016377741,-160.14453379851093Z" fill-rule="evenodd" style="fill: #DB3F29; stroke: #fff; opacity: 1;" id="p-type-functions"></path><path d="M69.03679006397886,-184.50724001421221A197,197,0,0,1,70.14486676766634,-184.08883091091198L60.7472365658739,-159.4256041218278A170.6070045455344,170.6070045455344,0,0,0,59.78761399113881,-159.78795703446045Z" fill-rule="evenodd" style="fill: #DB3F29; stroke: #fff; opacity: 1;" id="p-type-functions"></path><path d="M70.14486676766634,-184.08883091091198A197,197,0,0,1,71.25040781610019,-183.66376721073595L61.70466319874409,-159.05748815924875A170.6070045455344,170.6070045455344,0,0,0,60.7472365658739,-159.4256041218278Z" fill-rule="evenodd" style="fill: #DB3F29; stroke: #fff; opacity: 1;" id="p-type-functions"></path><path d="M71.25040781610019,-183.66376721073595A197,197,0,0,1,72.35337324525882,-183.23206427924197L62.65985927989147,-158.68362245368675A170.6070045455344,170.6070045455344,0,0,0,61.70466319874409,-159.05748815924875Z" fill-rule="evenodd" style="fill: #DB3F29; stroke: #fff; opacity: 1;" id="p-type-functions"></path><path d="M72.35337324525882,-183.23206427924197A197,197,0,0,1,73.45372318422625,-182.79373772198835L63.61279028008992,-158.3040205199517A170.6070045455344,170.6070045455344,0,0,0,62.65985927989147,-158.68362245368675Z" fill-rule="evenodd" style="fill: #DB3F29; stroke: #fff; opacity: 1;" id="p-type-functions"></path><path d="M73.45372318422625,-182.79373772198835A197,197,0,0,1,74.55141785663356,-182.34880338396965L64.56342175199349,-157.91869608021153A170.6070045455344,170.6070045455344,0,0,0,63.61279028008992,-158.3040205199517Z" fill-rule="evenodd" style="fill: #DB3F29; stroke: #fff; opacity: 1;" id="p-type-functions"></path><path d="M74.55141785663356,-182.34880338396965A197,197,0,0,1,75.64641758209655,-181.89727734904412L65.51171933138141,-157.52766306349594A170.6070045455344,170.6070045455344,0,0,0,64.56342175199349,-157.91869608021153Z" fill-rule="evenodd" style="fill: #DB3F29; stroke: #fff; opacity: 1;" id="p-type-functions"></path><path d="M75.64641758209655,-181.89727734904412A197,197,0,0,1,76.73868277765015,-181.43917593935214L66.45764873840042,-157.13093560519323A170.6070045455344,170.6070045455344,0,0,0,65.51171933138141,-157.52766306349594Z" fill-rule="evenodd" style="fill: #DB3F29; stroke: #fff; opacity: 1;" id="p-type-functions"></path><path d="M76.73868277765015,-181.43917593935214A197,197,0,0,1,77.82817395917948,-180.97451571472624L67.40117577880393,-156.72852804653903A170.6070045455344,170.6070045455344,0,0,0,66.45764873840042,-157.13093560519323Z" fill-rule="evenodd" style="fill: #DB3F29; stroke: #fff; opacity: 1;" id="p-type-functions"></path><path d="M77.82817395917948,-180.97451571472624A197,197,0,0,1,78.91485174284692,-180.50331347209251L68.34226634518811,-156.32045493409802A170.6070045455344,170.6070045455344,0,0,0,67.40117577880393,-156.72852804653903Z" fill-rule="evenodd" style="fill: #DB3F29; stroke: #fff; opacity: 1;" id="p-type-functions"></path><path d="M78.91485174284692,-180.50331347209251A197,197,0,0,1,79.99867684651603,-180.02558624486326L69.28088641822488,-155.90673101923798A170.6070045455344,170.6070045455344,0,0,0,68.34226634518811,-156.32045493409802Z" fill-rule="evenodd" style="fill: #DB3F29; stroke: #fff; opacity: 1;" id="p-type-functions"></path><path d="M79.99867684651603,-180.02558624486326A197,197,0,0,1,81.07961009117139,-179.5413513023215L70.21700206789154,-155.4873712575967A170.6070045455344,170.6070045455344,0,0,0,69.28088641822488,-155.90673101923798Z" fill-rule="evenodd" style="fill: #DB3F29; stroke: #fff; opacity: 1;" id="p-type-functions"></path><path d="M81.07961009117139,-179.5413513023215A197,197,0,0,1,82.15761240233479,-179.05062614899654L71.1505794546974,-155.0623908085413A170.6070045455344,170.6070045455344,0,0,0,70.21700206789154,-155.4873712575967Z" fill-rule="evenodd" style="fill: #DB3F29; stroke: #fff; opacity: 1;" id="p-type-functions"></path><path d="M82.15761240233479,-179.05062614899654A197,197,0,0,1,83.23264481147808,-178.55342852403123L72.08158483090706,-154.63180503462004A170.6070045455344,170.6070045455344,0,0,0,71.1505794546974,-155.0623908085413Z" fill-rule="evenodd" style="fill: #DB3F29; stroke: #fff; opacity: 1;" id="p-type-functions"></path><path d="M83.23264481147808,-178.55342852403123A197,197,0,0,1,84.30466845743142,-178.04977640054076L73.00998454176028,-154.19562950100735A170.6070045455344,170.6070045455344,0,0,0,72.08158483090706,-154.63180503462004Z" fill-rule="evenodd" style="fill: #DB3F29; stroke: #fff; opacity: 1;" id="p-type-functions"></path><path d="M84.30466845743142,-178.04977640054076A197,197,0,0,1,85.37364458778833,-177.53968798496294L73.93574502668855,-153.7538799749408A170.6070045455344,170.6070045455344,0,0,0,73.00998454176028,-154.19562950100735Z" fill-rule="evenodd" style="fill: #DB3F29; stroke: #fff; opacity: 1;" id="p-type-functions"></path><path d="M85.37364458778833,-177.53968798496294A197,197,0,0,1,86.43953456030648,-177.02318171640002L74.85883282052836,-153.3065724251514A170.6070045455344,170.6070045455344,0,0,0,73.93574502668855,-153.7538799749408Z" fill-rule="evenodd" style="fill: #DB3F29; stroke: #fff; opacity: 1;" id="p-type-functions"></path><path d="M86.43953456030648,-177.02318171640002A197,197,0,0,1,87.50229984430449,-176.50027626595215L75.77921455473081,-152.85372302128619A170.6070045455344,170.6070045455344,0,0,0,74.85883282052836,-153.3065724251514Z" fill-rule="evenodd" style="fill: #DB3F29; stroke: #fff; opacity: 1;" id="p-type-functions"></path><path d="M87.50229984430449,-176.50027626595215A197,197,0,0,1,88.56190202205495,-175.97099053604245L76.69685695856802,-152.39534813332378A170.6070045455344,170.6070045455344,0,0,0,75.77921455473081,-152.85372302128619Z" fill-rule="evenodd" style="fill: #DB3F29; stroke: #fff; opacity: 1;" id="p-type-functions"></path><path d="M88.56190202205495,-175.97099053604245A197,197,0,0,1,89.61830279017293,-175.43534365973375L77.6117268603356,-151.9314643309827A170.6070045455344,170.6070045455344,0,0,0,76.69685695856802,-152.39534813332378Z" fill-rule="evenodd" style="fill: #DB3F29; stroke: #fff; opacity: 1;" id="p-type-functions"></path><path d="M89.61830279017293,-175.43534365973375A197,197,0,0,1,90.67146396100077,-174.8933550000369L78.52379118855187,-151.46208838312214A170.6070045455344,170.6070045455344,0,0,0,77.6117268603356,-151.9314643309827Z" fill-rule="evenodd" style="fill: #DB3F29; stroke: #fff; opacity: 1;" id="p-type-functions"></path><path d="M90.67146396100077,-174.8933550000369A197,197,0,0,1,91.72134746398858,-174.34504414921082L79.4330169731535,-150.9872372571361A170.6070045455344,170.6070045455344,0,0,0,78.52379118855187,-151.46208838312214Z" fill-rule="evenodd" style="fill: #DB3F29; stroke: #fff; opacity: 1;" id="p-type-functions"></path><path d="M91.72134746398858,-174.34504414921082A197,197,0,0,1,92.76791534707019,-173.79043092805432L80.33937134668709,-150.50692811833983A170.6070045455344,170.6070045455344,0,0,0,79.4330169731535,-150.9872372571361Z" fill-rule="evenodd" style="fill: #DB3F29; stroke: #fff; opacity: 1;" id="p-type-functions"></path><path d="M92.76791534707019,-173.79043092805432A197,197,0,0,1,93.81112977803532,-173.22953538518948L81.24282154549742,-150.02117832934942A170.6070045455344,170.6070045455344,0,0,0,80.33937134668709,-150.50692811833983Z" fill-rule="evenodd" style="fill: #DB3F29; stroke: #fff; opacity: 1;" id="p-type-functions"></path><path d="M93.81112977803532,-173.22953538518948A197,197,0,0,1,94.85095304589706,-172.66237779633707L82.14333491091183,-149.5300054494541A170.6070045455344,170.6070045455344,0,0,0,81.24282154549742,-150.02117832934942Z" fill-rule="evenodd" style="fill: #DB3F29; stroke: #fff; opacity: 1;" id="p-type-functions"></path><path d="M94.85095304589706,-172.66237779633707A197,197,0,0,1,95.88734756225506,-172.0889786635835L83.04087889042074,-149.03342723398154A170.6070045455344,170.6070045455344,0,0,0,82.14333491091183,-149.5300054494541Z" fill-rule="evenodd" style="fill: #DB3F29; stroke: #fff; opacity: 1;" id="p-type-functions"></path><path d="M95.88734756225506,-172.0889786635835A197,197,0,0,1,96.92027586265448,-171.5093587146397L83.93542103885451,-148.53146163365597A170.6070045455344,170.6070045455344,0,0,0,83.04087889042074,-149.03342723398154Z" fill-rule="evenodd" style="fill: #DB3F29; stroke: #fff; opacity: 1;" id="p-type-functions"></path><path d="M96.92027586265448,-171.5093587146397A197,197,0,0,1,97.9497006079399,-170.92353890209196L84.82692901955602,-148.0241267939494A170.6070045455344,170.6070045455344,0,0,0,83.93542103885451,-148.53146163365597Z" fill-rule="evenodd" style="fill: #DB3F29; stroke: #fff; opacity: 1;" id="p-type-functions"></path><path d="M97.9497006079399,-170.92353890209196A197,197,0,0,1,98.97558458560565,-170.33154040264424L85.71537060554999,-147.51144105442538A170.6070045455344,170.6070045455344,0,0,0,84.82692901955602,-148.0241267939494Z" fill-rule="evenodd" style="fill: #DB3F29; stroke: #fff; opacity: 1;" id="p-type-functions"></path><path d="M98.97558458560565,-170.33154040264424A197,197,0,0,1,99.99789071114036,-169.73338461635305L86.6007136807075,-146.99342294807656A170.6070045455344,170.6070045455344,0,0,0,85.71537060554999,-147.51144105442538Z" fill-rule="evenodd" style="fill: #DB3F29; stroke: #fff; opacity: 1;" id="p-type-functions"></path><path d="M99.99789071114036,-169.73338461635305A197,197,0,0,1,101.0165820293682,-169.12909316585342L87.48292624090746,-146.47009120065417A170.6070045455344,170.6070045455344,0,0,0,86.6007136807075,-146.99342294807656Z" fill-rule="evenodd" style="fill: #DB3F29; stroke: #fff; opacity: 1;" id="p-type-functions"></path><path d="M101.0165820293682,-169.12909316585342A197,197,0,0,1,102.03162171578403,-168.51868789557776L88.36197639519295,-145.94146472999154A170.6070045455344,170.6070045455344,0,0,0,87.48292624090746,-146.47009120065417Z" fill-rule="evenodd" style="fill: #DB3F29; stroke: #fff; opacity: 1;" id="p-type-functions"></path><path d="M102.03162171578403,-168.51868789557776A197,197,0,0,1,103.04297307788532,-167.9021908709657L89.23783236692466,-145.40756264531998A170.6070045455344,170.6070045455344,0,0,0,88.36197639519295,-145.94146472999154Z" fill-rule="evenodd" style="fill: #DB3F29; stroke: #fff; opacity: 1;" id="p-type-functions"></path><path d="M103.04297307788532,-167.9021908709657A197,197,0,0,1,104.05059955649783,-167.2796243776669L90.11046249492897,-144.8684042465782A170.6070045455344,170.6070045455344,0,0,0,89.23783236692466,-145.40756264531998Z" fill-rule="evenodd" style="fill: #DB3F29; stroke: #fff; opacity: 1;" id="p-type-functions"></path><path d="M104.05059955649783,-167.2796243776669A197,197,0,0,1,105.05446472709787,-166.65101092073505L90.97983523464299,-144.32400902371447A170.6070045455344,170.6070045455344,0,0,0,90.11046249492897,-144.8684042465782Z" fill-rule="evenodd" style="fill: #DB3F29; stroke: #fff; opacity: 1;" id="p-type-functions"></path><path d="M105.05446472709787,-166.65101092073505A197,197,0,0,1,106.05453230112826,-166.0163732238147L91.8459191592544,-143.7743966559822A170.6070045455344,170.6070045455344,0,0,0,90.97983523464299,-144.32400902371447Z" fill-rule="evenodd" style="fill: #DB3F29; stroke: #fff; opacity: 1;" id="p-type-functions"></path><path d="M106.05453230112826,-166.0163732238147A197,197,0,0,1,107.05076612731094,-165.37573422831952L92.70868296083796,-143.2195870112284A170.6070045455344,170.6070045455344,0,0,0,91.8459191592544,-143.7743966559822Z" fill-rule="evenodd" style="fill: #DB3F29; stroke: #fff; opacity: 1;" id="p-type-functions"></path><path d="M107.05076612731094,-165.37573422831952A197,197,0,0,1,108.04313019295302,-164.7291170926033L93.56809545148681,-142.65960014517583A170.6070045455344,170.6070045455344,0,0,0,92.70868296083796,-143.2195870112284Z" fill-rule="evenodd" style="fill: #DB3F29; stroke: #fff; opacity: 1;" id="p-type-functions"></path><path d="M108.04313019295302,-164.7291170926033A197,197,0,0,1,109.03158862524909,-164.07654519112245L94.42412556444015,-142.09445630069752A170.6070045455344,170.6070045455344,0,0,0,93.56809545148681,-142.65960014517583Z" fill-rule="evenodd" style="fill: #DB3F29; stroke: #fff; opacity: 1;" id="p-type-functions"></path><path d="M109.03158862524909,-164.07654519112245A197,197,0,0,1,110.0161056925779,-163.4180421135914L95.27674235520624,-141.52417590708538A170.6070045455344,170.6070045455344,0,0,0,94.42412556444015,-142.09445630069752Z" fill-rule="evenodd" style="fill: #DB3F29; stroke: #fff; opacity: 1;" id="p-type-functions"></path><path d="M110.0161056925779,-163.4180421135914A197,197,0,0,1,110.99664580579379,-162.75363166412959L96.12591500268088,-140.9487795793116A170.6070045455344,170.6070045455344,0,0,0,95.27674235520624,-141.52417590708538Z" fill-rule="evenodd" style="fill: #DB3F29; stroke: #fff; opacity: 1;" id="p-type-functions"></path><path d="M110.99664580579379,-162.75363166412959A197,197,0,0,1,111.97317351951354,-162.08333786040106L96.97161281026172,-140.3682881172834A170.6070045455344,170.6070045455344,0,0,0,96.12591500268088,-140.9487795793116Z" fill-rule="evenodd" style="fill: #DB3F29; stroke: #fff; opacity: 1;" id="p-type-functions"></path><path d="M111.97317351951354,-162.08333786040106A197,197,0,0,1,112.94565353339735,-161.4071849327463L97.81380520695774,-139.7827225050912A170.6070045455344,170.6070045455344,0,0,0,96.97161281026172,-140.3682881172834Z" fill-rule="evenodd" style="fill: #DB3F29; stroke: #fff; opacity: 1;" id="p-type-functions"></path><path d="M112.94565353339735,-161.4071849327463A197,197,0,0,1,113.91405069342517,-160.72519732330636L98.65246174849455,-139.19210391024995A170.6070045455344,170.6070045455344,0,0,0,97.81380520695774,-139.7827225050912Z" fill-rule="evenodd" style="fill: #DB3F29; stroke: #fff; opacity: 1;" id="p-type-functions"></path><path d="M113.91405069342517,-160.72519732330636A197,197,0,0,1,114.87832999316727,-160.03739968513912L99.48755211841467,-138.5964536829342A170.6070045455344,170.6070045455344,0,0,0,98.65246174849455,-139.19210391024995Z" fill-rule="evenodd" style="fill: #DB3F29; stroke: #fff; opacity: 1;" id="p-type-functions"></path><path d="M114.87832999316727,-160.03739968513912A197,197,0,0,1,115.83845657504983,-159.34381688132834L100.31904612917369,-137.99579335520602A170.6070045455344,170.6070045455344,0,0,0,99.48755211841467,-138.5964536829342Z" fill-rule="evenodd" style="fill: #DB3F29; stroke: #fff; opacity: 1;" id="p-type-functions"></path><path d="M115.83845657504983,-159.34381688132834A197,197,0,0,1,116.79439573161496,-158.6444739840847L101.14691372323136,-137.39014464023683A170.6070045455344,170.6070045455344,0,0,0,100.31904612917369,-137.99579335520602Z" fill-rule="evenodd" style="fill: #DB3F29; stroke: #fff; opacity: 1;" id="p-type-functions"></path><path d="M116.79439573161496,-158.6444739840847A197,197,0,0,1,117.74611290677525,-157.9393962738396L101.97112497413814,-136.7795294315224A170.6070045455344,170.6070045455344,0,0,0,101.14691372323136,-137.39014464023683Z" fill-rule="evenodd" style="fill: #DB3F29; stroke: #fff; opacity: 1;" id="p-type-functions"></path><path d="M117.74611290677525,-157.9393962738396A197,197,0,0,1,118.69357369706304,-157.22860923833125L102.79165008761704,-136.16396980209154A170.6070045455344,170.6070045455344,0,0,0,101.97112497413814,-136.7795294315224Z" fill-rule="evenodd" style="fill: #DB3F29; stroke: #fff; opacity: 1;" id="p-type-functions"></path><path d="M118.69357369706304,-157.22860923833125A197,197,0,0,1,119.63674385287408,-156.5121385716833L103.60845940264072,-135.54348800370803A170.6070045455344,170.6070045455344,0,0,0,102.79165008761704,-136.16396980209154Z" fill-rule="evenodd" style="fill: #DB3F29; stroke: #fff; opacity: 1;" id="p-type-functions"></path><path d="M119.63674385287408,-156.5121385716833A197,197,0,0,1,120.57558927970545,-155.79001017347605L104.42152339250354,-134.9181064660664A170.6070045455344,170.6070045455344,0,0,0,103.60845940264072,-135.54348800370803Z" fill-rule="evenodd" style="fill: #DB3F29; stroke: #fff; opacity: 1;" id="p-type-functions"></path><path d="M120.57558927970545,-155.79001017347605A197,197,0,0,1,121.51007603938827,-155.06225014781026L105.23081266588906,-134.287847795981A170.6070045455344,170.6070045455344,0,0,0,104.42152339250354,-134.9181064660664Z" fill-rule="evenodd" style="fill: #DB3F29; stroke: #fff; opacity: 1;" id="p-type-functions"></path><path d="M121.51007603938827,-155.06225014781026A197,197,0,0,1,122.44017035131426,-154.32888480236338L106.03629796793238,-133.65273477656885A170.6070045455344,170.6070045455344,0,0,0,105.23081266588906,-134.287847795981Z" fill-rule="evenodd" style="fill: #DB3F29; stroke: #fff; opacity: 1;" id="p-type-functions"></path><path d="M122.44017035131426,-154.32888480236338A197,197,0,0,1,123.36583859365714,-153.58994064743868L106.8379501812778,-133.01279036642603A170.6070045455344,170.6070045455344,0,0,0,106.03629796793238,-133.65273477656885Z" fill-rule="evenodd" style="fill: #DB3F29; stroke: #fff; opacity: 1;" id="p-type-functions"></path><path d="M123.36583859365714,-153.58994064743868A197,197,0,0,1,124.28704730458786,-152.8454443950069L107.63574032713132,-132.36803769879782A170.6070045455344,170.6070045455344,0,0,0,106.8379501812778,-133.01279036642603Z" fill-rule="evenodd" style="fill: #DB3F29; stroke: #fff; opacity: 1;" id="p-type-functions"></path><path d="M124.28704730458786,-152.8454443950069A197,197,0,0,1,125.20376318348416,-152.09542295774065L108.4296395663081,-131.7185000807423A170.6070045455344,170.6070045455344,0,0,0,107.63574032713132,-132.36803769879782Z" fill-rule="evenodd" style="fill: #DB3F29; stroke: #fff; opacity: 1;" id="p-type-functions"></path><path d="M125.20376318348416,-152.09542295774065A197,197,0,0,1,126.11595309213449,-151.33990344804153L109.21961920027509,-131.0642009922881A170.6070045455344,170.6070045455344,0,0,0,108.4296395663081,-131.7185000807423Z" fill-rule="evenodd" style="fill: #DB3F29; stroke: #fff; opacity: 1;" id="p-type-functions"></path><path d="M126.11595309213449,-151.33990344804153A197,197,0,0,1,127.02358405593591,-150.57891317706003L110.00565067218848,-130.40516408558534A170.6070045455344,170.6070045455344,0,0,0,109.21961920027509,-131.0642009922881Z" fill-rule="evenodd" style="fill: #DB3F29; stroke: #fff; opacity: 1;" id="p-type-functions"></path><path d="M127.02358405593591,-150.57891317706003A197,197,0,0,1,127.92662326508592,-149.81247965370835L110.7877055679258,-129.74141318405077A170.6070045455344,170.6070045455344,0,0,0,110.00565067218848,-130.40516408558534Z" fill-rule="evenodd" style="fill: #DB3F29; stroke: #fff; opacity: 1;" id="p-type-functions"></path><path d="M127.92662326508592,-149.81247965370835A197,197,0,0,1,128.82503807576865,-149.04063058366586L111.56575561711323,-129.0729722815066A170.6070045455344,170.6070045455344,0,0,0,110.7877055679258,-129.74141318405077Z" fill-rule="evenodd" style="fill: #DB3F29; stroke: #fff; opacity: 1;" id="p-type-functions"></path><path d="M128.82503807576865,-149.04063058366586A197,197,0,0,1,129.71879601133486,-148.26339386837768L112.3397726941475,-128.39986554131303A170.6070045455344,170.6070045455344,0,0,0,111.56575561711323,-129.0729722815066Z" fill-rule="evenodd" style="fill: #DB3F29; stroke: #fff; opacity: 1;" id="p-type-functions"></path><path d="M129.71879601133486,-148.26339386837768A197,197,0,0,1,130.60786476347593,-147.480797604046L113.1097288192126,-127.72211729549501A170.6070045455344,170.6070045455344,0,0,0,112.3397726941475,-128.39986554131303Z" fill-rule="evenodd" style="fill: #DB3F29; stroke: #fff; opacity: 1;" id="p-type-functions"></path><path d="M130.60786476347593,-147.480797604046A197,197,0,0,1,131.4922121933917,-146.6928700806145L113.87559615929113,-127.03975204386238A170.6070045455344,170.6070045455344,0,0,0,113.1097288192126,-127.72211729549501Z" fill-rule="evenodd" style="fill: #DB3F29; stroke: #fff; opacity: 1;" id="p-type-functions"></path><path d="M131.4922121933917,-146.6928700806145A197,197,0,0,1,132.37180633295242,-145.89963978074567L114.63734702917063,-126.3527944531244A170.6070045455344,170.6070045455344,0,0,0,113.87559615929113,-127.03975204386238Z" fill-rule="evenodd" style="fill: #DB3F29; stroke: #fff; opacity: 1;" id="p-type-functions"></path><path d="M132.37180633295242,-145.89963978074567A197,197,0,0,1,133.2466153858541,-145.1011353787911L115.39495389244411,-125.66126935599806A170.6070045455344,170.6070045455344,0,0,0,114.63734702917063,-126.3527944531244Z" fill-rule="evenodd" style="fill: #DB3F29; stroke: #fff; opacity: 1;" id="p-type-functions"></path><path d="M133.2466153858541,-145.1011353787911A197,197,0,0,1,134.11660772876823,-144.2973857397552L116.14838936250567,-124.9652017503104A170.6070045455344,170.6070045455344,0,0,0,115.39495389244411,-125.66126935599806Z" fill-rule="evenodd" style="fill: #DB3F29; stroke: #fff; opacity: 1;" id="p-type-functions"></path><path d="M134.11660772876823,-144.2973857397552A197,197,0,0,1,134.9817519124846,-143.48841991825145L116.8976262035404,-124.26461679809479A170.6070045455344,170.6070045455344,0,0,0,116.14838936250567,-124.9652017503104Z" fill-rule="evenodd" style="fill: #DB3F29; stroke: #fff; opacity: 1;" id="p-type-functions"></path><path d="M196.97841632629954,2.916076402121614A197,197,0,0,1,196.95732354623863,4.100329438262476L170.5700456524336,3.5509894574204814A170.6070045455344,170.6070045455344,0,0,0,170.58831253580283,2.5253962436136437Z" fill-rule="evenodd" style="fill: #1DC690; stroke: #fff; opacity: 1;" id="p-type-logs"></path><path d="M196.95732354623863,4.100329438262476A197,197,0,0,1,196.92911098827784,5.284434252268761L170.54561286053385,4.576454307093371A170.6070045455344,170.6070045455344,0,0,0,170.5700456524336,3.5509894574204814Z" fill-rule="evenodd" style="fill: #1DC690; stroke: #fff; opacity: 1;" id="p-type-logs"></path><path d="M196.92911098827784,5.284434252268761A197,197,0,0,1,196.89377967226832,6.468348040130269L170.51501504332046,5.601753723272098A170.6070045455344,170.6070045455344,0,0,0,170.54561286053385,4.576454307093371Z" fill-rule="evenodd" style="fill: #1DC690; stroke: #fff; opacity: 1;" id="p-type-logs"></path><path d="M196.89377967226832,6.468348040130269A197,197,0,0,1,196.85133087539603,7.652028004742174L170.47825330686896,6.626850642576674A170.6070045455344,170.6070045455344,0,0,0,170.51501504332046,5.601753723272098Z" fill-rule="evenodd" style="fill: #1DC690; stroke: #fff; opacity: 1;" id="p-type-logs"></path><path d="M196.85133087539603,7.652028004742174A197,197,0,0,1,196.8017661321355,8.835431357452089L170.4353289800733,7.6517080089471365A170.6070045455344,170.6070045455344,0,0,0,170.47825330686896,6.626850642576674Z" fill-rule="evenodd" style="fill: #1DC690; stroke: #fff; opacity: 1;" id="p-type-logs"></path><path d="M196.8017661321355,8.835431357452089A197,197,0,0,1,196.7450872341945,10.018515319606824L170.3862436145979,8.676288774983083A170.6070045455344,170.6070045455344,0,0,0,170.4353289800733,7.6517080089471365Z" fill-rule="evenodd" style="fill: #1DC690; stroke: #fff; opacity: 1;" id="p-type-logs"></path><path d="M196.7450872341945,10.018515319606824A197,197,0,0,1,196.6812962304492,11.201237124098782L170.33099898482155,9.700555903282892A170.6070045455344,170.6070045455344,0,0,0,170.3862436145979,8.676288774983083Z" fill-rule="evenodd" style="fill: #1DC690; stroke: #fff; opacity: 1;" id="p-type-logs"></path><path d="M196.6812962304492,11.201237124098782A197,197,0,0,1,196.6103954268701,12.38355401691195L170.26959708777332,10.724472367782578A170.6070045455344,170.6070045455344,0,0,0,170.33099898482155,9.700555903282892Z" fill-rule="evenodd" style="fill: #1DC690; stroke: #fff; opacity: 1;" id="p-type-logs"></path><path d="M196.6103954268701,12.38355401691195A197,197,0,0,1,196.53238738643867,13.565423258667398L170.20204014306026,11.748001155094249A170.6070045455344,170.6070045455344,0,0,0,170.26959708777332,10.724472367782578Z" fill-rule="evenodd" style="fill: #1DC690; stroke: #fff; opacity: 1;" id="p-type-logs"></path><path d="M196.53238738643867,13.565423258667398A197,197,0,0,1,196.4472749290548,14.746802126168262L170.1283305927873,12.771105265844087A170.6070045455344,170.6070045455344,0,0,0,170.20204014306026,11.748001155094249Z" fill-rule="evenodd" style="fill: #1DC690; stroke: #fff; opacity: 1;" id="p-type-logs"></path><path d="M196.4472749290548,14.746802126168262A197,197,0,0,1,196.35506113143464,15.927647913944133L170.0484711014688,13.79374771600984A170.6070045455344,170.6070045455344,0,0,0,170.1283305927873,12.771105265844087Z" fill-rule="evenodd" style="fill: #1DC690; stroke: #fff; opacity: 1;" id="p-type-logs"></path><path d="M196.35506113143464,15.927647913944133A197,197,0,0,1,196.25574932699962,17.107917935794816L169.96246455593243,14.815891538257745A170.6070045455344,170.6070045455344,0,0,0,170.0484711014688,13.79374771600984Z" fill-rule="evenodd" style="fill: #1DC690; stroke: #fff; opacity: 1;" id="p-type-logs"></path><path d="M196.25574932699962,17.107917935794816A197,197,0,0,1,196.14934310575583,18.287569526333378L169.8703140652146,15.83749978327886A170.6070045455344,170.6070045455344,0,0,0,169.96246455593243,14.815891538257745Z" fill-rule="evenodd" style="fill: #1DC690; stroke: #fff; opacity: 1;" id="p-type-logs"></path><path d="M196.14934310575583,18.287569526333378A197,197,0,0,1,196.03584631416427,19.466560042528474L169.77202296044825,16.85853552112474A170.6070045455344,170.6070045455344,0,0,0,169.8703140652146,15.83749978327886Z" fill-rule="evenodd" style="fill: #1DC690; stroke: #fff; opacity: 1;" id="p-type-logs"></path><path d="M196.03584631416427,19.466560042528474A197,197,0,0,1,195.9152630550018,20.644846865245803L169.66759479474243,17.8789618425424A170.6070045455344,170.6070045455344,0,0,0,169.77202296044825,16.85853552112474Z" fill-rule="evenodd" style="fill: #1DC690; stroke: #fff; opacity: 1;" id="p-type-logs"></path><path d="M195.9152630550018,20.644846865245803A197,197,0,0,1,195.7875976872128,21.82238740078878L169.5570333430537,18.89874186030855A170.6070045455344,170.6070045455344,0,0,0,169.66759479474243,17.8789618425424Z" fill-rule="evenodd" style="fill: #1DC690; stroke: #fff; opacity: 1;" id="p-type-logs"></path><path d="M195.7875976872128,21.82238740078878A197,197,0,0,1,195.6528548257517,22.999139082438237L169.44034260204975,19.91783871056304A170.6070045455344,170.6070045455344,0,0,0,169.5570333430537,18.89874186030855Z" fill-rule="evenodd" style="fill: #1DC690; stroke: #fff; opacity: 1;" id="p-type-logs"></path><path d="M195.6528548257517,22.999139082438237A197,197,0,0,1,195.51103934141597,24.175059371991136L169.31752678996503,20.936215554141402A170.6070045455344,170.6070045455344,0,0,0,169.44034260204975,19.91783871056304Z" fill-rule="evenodd" style="fill: #1DC690; stroke: #fff; opacity: 1;" id="p-type-logs"></path><path d="M195.51103934141597,24.175059371991136A197,197,0,0,1,195.3621563606703,25.350105761298316L169.18859034644814,21.9538355779066A170.6070045455344,170.6070045455344,0,0,0,169.31752678996503,20.936215554141402Z" fill-rule="evenodd" style="fill: #1DC690; stroke: #fff; opacity: 1;" id="p-type-logs"></path><path d="M195.3621563606703,25.350105761298316A197,197,0,0,1,195.20621126546104,26.524235773801074L169.05353793240133,22.970661996079727A170.6070045455344,170.6070045455344,0,0,0,169.18859034644814,21.9538355779066Z" fill-rule="evenodd" style="fill: #1DC690; stroke: #fff; opacity: 1;" id="p-type-logs"></path><path d="M195.20621126546104,26.524235773801074A197,197,0,0,1,195.04320969302182,27.697406966066673L168.91237442981216,23.986658051569812A170.6070045455344,170.6070045455344,0,0,0,169.05353793240133,22.970661996079727Z" fill-rule="evenodd" style="fill: #1DC690; stroke: #fff; opacity: 1;" id="p-type-logs"></path><path d="M195.04320969302182,27.697406966066673A197,197,0,0,1,194.87315753566966,28.869576929322605L168.76510494157682,25.001787017302522A170.6070045455344,170.6070045455344,0,0,0,168.91237442981216,23.986658051569812Z" fill-rule="evenodd" style="fill: #1DC690; stroke: #fff; opacity: 1;" id="p-type-logs"></path><path d="M194.87315753566966,28.869576929322605A197,197,0,0,1,194.69606094059202,30.04070329098964L168.61173479131588,26.016012197547816A170.6070045455344,170.6070045455344,0,0,0,168.76510494157682,25.001787017302522Z" fill-rule="evenodd" style="fill: #1DC690; stroke: #fff; opacity: 1;" id="p-type-logs"></path><path d="M194.69606094059202,30.04070329098964A197,197,0,0,1,194.5119263096246,31.210743716213504L168.45226952318163,27.029296929246428A170.6070045455344,170.6070045455344,0,0,0,168.61173479131588,26.016012197547816Z" fill-rule="evenodd" style="fill: #1DC690; stroke: #fff; opacity: 1;" id="p-type-logs"></path><path d="M194.5119263096246,31.210743716213504A197,197,0,0,1,194.32076029901992,32.37965590939529L168.28671490165786,28.041604583335236A170.6070045455344,170.6070045455344,0,0,0,168.45226952318163,27.029296929246428Z" fill-rule="evenodd" style="fill: #1DC690; stroke: #fff; opacity: 1;" id="p-type-logs"></path><path d="M194.32076029901992,32.37965590939529A197,197,0,0,1,194.12256981920663,33.54739761572033L168.1150769113513,29.05289856607131A170.6070045455344,170.6070045455344,0,0,0,168.28671490165786,28.041604583335236Z" fill-rule="evenodd" style="fill: #1DC690; stroke: #fff; opacity: 1;" id="p-type-logs"></path><path d="M194.12256981920663,33.54739761572033A197,197,0,0,1,193.91736203453982,34.713926622685726L167.93736175677552,30.063142320354782A170.6070045455344,170.6070045455344,0,0,0,168.1150769113513,29.05289856607131Z" fill-rule="evenodd" style="fill: #1DC690; stroke: #fff; opacity: 1;" id="p-type-logs"></path><path d="M193.91736203453982,34.713926622685726A197,197,0,0,1,193.70514436304194,35.879200761626244L167.75357586212638,31.072299327050306A170.6070045455344,170.6070045455344,0,0,0,167.93736175677552,30.063142320354782Z" fill-rule="evenodd" style="fill: #1DC690; stroke: #fff; opacity: 1;" id="p-type-logs"></path><path d="M193.70514436304194,35.879200761626244A197,197,0,0,1,193.48592447613467,37.04317790923866L167.56372587104994,32.0803331063072A170.6070045455344,170.6070045455344,0,0,0,167.75357586212638,31.072299327050306Z" fill-rule="evenodd" style="fill: #1DC690; stroke: #fff; opacity: 1;" id="p-type-logs"></path><path d="M193.48592447613467,37.04317790923866A197,197,0,0,1,193.25971029836168,38.20581598910446L167.36781864640233,33.08720721887815A170.6070045455344,170.6070045455344,0,0,0,167.56372587104994,32.0803331063072Z" fill-rule="evenodd" style="fill: #1DC690; stroke: #fff; opacity: 1;" id="p-type-logs"></path><path d="M193.25971029836168,38.20581598910446A197,197,0,0,1,193.0265100071021,39.367072973210895L167.16586127000159,34.09288526743643A170.6070045455344,170.6070045455344,0,0,0,167.36781864640233,33.08720721887815Z" fill-rule="evenodd" style="fill: #1DC690; stroke: #fff; opacity: 1;" id="p-type-logs"></path><path d="M193.0265100071021,39.367072973210895A197,197,0,0,1,192.78633203227488,40.526906883470225L166.9578610423717,35.097330897891645A170.6070045455344,170.6070045455344,0,0,0,167.16586127000159,34.09288526743643Z" fill-rule="evenodd" style="fill: #1DC690; stroke: #fff; opacity: 1;" id="p-type-logs"></path><path d="M192.78633203227488,40.526906883470225A197,197,0,0,1,192.53918505603414,41.685275793237146L166.7438254824787,36.10050780070389A170.6070045455344,170.6070045455344,0,0,0,166.9578610423717,35.097330897891645Z" fill-rule="evenodd" style="fill: #1DC690; stroke: #fff; opacity: 1;" id="p-type-logs"></path><path d="M192.53918505603414,41.685275793237146A197,197,0,0,1,192.28507801245527,42.842137828824434L166.52376232745885,37.10237971219625A170.6070045455344,170.6070045455344,0,0,0,166.7438254824787,36.10050780070389Z" fill-rule="evenodd" style="fill: #1DC690; stroke: #fff; opacity: 1;" id="p-type-logs"></path><path d="M192.28507801245527,42.842137828824434A197,197,0,0,1,192.02402008721202,43.9974511710166L166.29767953233895,38.10291041586577A170.6070045455344,170.6070045455344,0,0,0,166.52376232745885,37.10237971219625Z" fill-rule="evenodd" style="fill: #1DC690; stroke: #fff; opacity: 1;" id="p-type-logs"></path><path d="M192.02402008721202,43.9974511710166A197,197,0,0,1,191.7560207172444,45.15117405658164L166.06558526974877,39.10206374369258A170.6070045455344,170.6070045455344,0,0,0,166.29767953233895,38.10291041586577Z" fill-rule="evenodd" style="fill: #1DC690; stroke: #fff; opacity: 1;" id="p-type-logs"></path><path d="M191.7560207172444,45.15117405658164A197,197,0,0,1,191.48108959041758,46.30326477978067L165.82748792962565,40.09980357744733A170.6070045455344,170.6070045455344,0,0,0,166.06558526974877,39.10206374369258Z" fill-rule="evenodd" style="fill: #1DC690; stroke: #fff; opacity: 1;" id="p-type-logs"></path><path d="M191.48108959041758,46.30326477978067A197,197,0,0,1,191.19923664517162,47.45368169387561L165.58339611891117,41.09609384999685A170.6070045455344,170.6070045455344,0,0,0,165.82748792962565,40.09980357744733Z" fill-rule="evenodd" style="fill: #1DC690; stroke: #fff; opacity: 1;" id="p-type-logs"></path><path d="M191.19923664517162,47.45368169387561A197,197,0,0,1,190.91047207016229,48.60238321263461L165.33331866124007,42.09089854660791A170.6070045455344,170.6070045455344,0,0,0,165.58339611891117,41.09609384999685Z" fill-rule="evenodd" style="fill: #1DC690; stroke: #fff; opacity: 1;" id="p-type-logs"></path><path d="M190.91047207016229,48.60238321263461A197,197,0,0,1,190.61480630389272,49.749327811835364L165.07726459662126,43.084181706249126A170.6070045455344,170.6070045455344,0,0,0,165.33331866124007,42.09089854660791Z" fill-rule="evenodd" style="fill: #1DC690; stroke: #fff; opacity: 1;" id="p-type-logs"></path><path d="M190.61480630389272,49.749327811835364A197,197,0,0,1,190.3122500343361,50.894474030766176L164.81524318111096,44.07590742289091A170.6070045455344,170.6070045455344,0,0,0,165.07726459662126,43.084181706249126Z" fill-rule="evenodd" style="fill: #1DC690; stroke: #fff; opacity: 1;" id="p-type-logs"></path><path d="M190.3122500343361,50.894474030766176A197,197,0,0,1,190.00281419854926,52.03778047372469L164.5472638864783,45.0660398468034A170.6070045455344,170.6070045455344,0,0,0,164.81524318111096,44.07590742289091Z" fill-rule="evenodd" style="fill: #1DC690; stroke: #fff; opacity: 1;" id="p-type-logs"></path><path d="M190.00281419854926,52.03778047372469A197,197,0,0,1,189.68650998227733,53.179205811514315L164.27333639986267,46.054543185852445A170.6070045455344,170.6070045455344,0,0,0,164.5472638864783,45.0660398468034Z" fill-rule="evenodd" style="fill: #1DC690; stroke: #fff; opacity: 1;" id="p-type-logs"></path><path d="M189.68650998227733,53.179205811514315A197,197,0,0,1,189.36334881954943,54.3187087829382L163.9934706234238,47.04138170679339A170.6070045455344,170.6070045455344,0,0,0,164.27333639986267,46.054543185852445Z" fill-rule="evenodd" style="fill: #1DC690; stroke: #fff; opacity: 1;" id="p-type-logs"></path><path d="M189.36334881954943,54.3187087829382A197,197,0,0,1,189.03334239226527,55.45624819629086L163.70767667398357,48.02651973656283A170.6070045455344,170.6070045455344,0,0,0,163.9934706234238,47.04138170679339Z" fill-rule="evenodd" style="fill: #1DC690; stroke: #fff; opacity: 1;" id="p-type-logs"></path><path d="M189.03334239226527,55.45624819629086A197,197,0,0,1,188.69650262977288,56.59178293084706L163.41596488266046,49.00992166356812A170.6070045455344,170.6070045455344,0,0,0,163.70767667398357,48.02651973656283Z" fill-rule="evenodd" style="fill: #1DC690; stroke: #fff; opacity: 1;" id="p-type-logs"></path><path d="M188.69650262977288,56.59178293084706A197,197,0,0,1,188.35284170843752,57.72527193834844L163.11834579449607,49.99155193897474A170.6070045455344,170.6070045455344,0,0,0,163.41596488266046,49.00992166356812Z" fill-rule="evenodd" style="fill: #1DC690; stroke: #fff; opacity: 1;" id="p-type-logs"></path><path d="M188.35284170843752,57.72527193834844A197,197,0,0,1,188.0023720512013,58.85667424448727L162.81483016807385,50.97137507799126A170.6070045455344,170.6070045455344,0,0,0,163.11834579449607,49.99155193897474Z" fill-rule="evenodd" style="fill: #1DC690; stroke: #fff; opacity: 1;" id="p-type-logs"></path><path d="M188.0023720512013,58.85667424448727A197,197,0,0,1,187.6451063271342,59.98594895038763L162.5054289751303,51.94935566115217A170.6070045455344,170.6070045455344,0,0,0,162.81483016807385,50.97137507799126Z" fill-rule="evenodd" style="fill: #1DC690; stroke: #fff; opacity: 1;" id="p-type-logs"></path><path d="M187.6451063271342,59.98594895038763A197,197,0,0,1,187.2810574509761,61.113055234083895L162.19015340015824,52.9254583355982A170.6070045455344,170.6070045455344,0,0,0,162.5054289751303,51.94935566115217Z" fill-rule="evenodd" style="fill: #1DC690; stroke: #fff; opacity: 1;" id="p-type-logs"></path><path d="M187.2810574509761,61.113055234083895A197,197,0,0,1,186.91023858267005,62.23795235199635L161.86901484000256,53.89964781635429A170.6070045455344,170.6070045455344,0,0,0,162.19015340015824,52.9254583355982Z" fill-rule="evenodd" style="fill: #1DC690; stroke: #fff; opacity: 1;" id="p-type-logs"></path><path d="M186.91023858267005,62.23795235199635A197,197,0,0,1,186.53266312688623,63.360599640404075L161.54202490344832,54.871888887605095A170.6070045455344,170.6070045455344,0,0,0,161.86901484000256,53.89964781635429Z" fill-rule="evenodd" style="fill: #1DC690; stroke: #fff; opacity: 1;" id="p-type-logs"></path><path d="M186.53266312688623,63.360599640404075A197,197,0,0,1,186.14834473253782,64.48095651691486L161.20919541080093,55.842146403968016A170.6070045455344,170.6070045455344,0,0,0,161.54202490344832,54.871888887605095Z" fill-rule="evenodd" style="fill: #1DC690; stroke: #fff; opacity: 1;" id="p-type-logs"></path><path d="M186.14834473253782,64.48095651691486A197,197,0,0,1,185.75729729228715,65.59898248193221L160.870538393459,56.81038529176365A170.6070045455344,170.6070045455344,0,0,0,161.20919541080093,55.842146403968016Z" fill-rule="evenodd" style="fill: #1DC690; stroke: #fff; opacity: 1;" id="p-type-logs"></path><path d="M185.75729729228715,65.59898248193221A197,197,0,0,1,185.3595349420439,66.71463712011935L160.52606609347933,57.77657055028366A170.6070045455344,170.6070045455344,0,0,0,160.870538393459,56.81038529176365Z" fill-rule="evenodd" style="fill: #1DC690; stroke: #fff; opacity: 1;" id="p-type-logs"></path><path d="M185.3595349420439,66.71463712011935A197,197,0,0,1,184.95507206045383,67.82788010186026L160.17579096313446,58.740667253056024A170.6070045455344,170.6070045455344,0,0,0,160.52606609347933,57.77657055028366Z" fill-rule="evenodd" style="fill: #1DC690; stroke: #fff; opacity: 1;" id="p-type-logs"></path><path d="M184.95507206045383,67.82788010186026A197,197,0,0,1,184.54392326837913,68.93867118471746L159.8197256644625,59.702640549107585A170.6070045455344,170.6070045455344,0,0,0,160.17579096313446,58.740667253056024Z" fill-rule="evenodd" style="fill: #1DC690; stroke: #fff; opacity: 1;" id="p-type-logs"></path><path d="M184.54392326837913,68.93867118471746A197,197,0,0,1,184.1261034283699,70.04697021488676L159.45788306880934,60.66245566422385A170.6070045455344,170.6070045455344,0,0,0,159.8197256644625,59.702640549107585Z" fill-rule="evenodd" style="fill: #1DC690; stroke: #fff; opacity: 1;" id="p-type-logs"></path><path d="M184.1261034283699,70.04697021488676A197,197,0,0,1,183.70162764412677,71.15273712864877L159.0902762563635,61.62007790220606A170.6070045455344,170.6070045455344,0,0,0,159.45788306880934,60.66245566422385Z" fill-rule="evenodd" style="fill: #1DC690; stroke: #fff; opacity: 1;" id="p-type-logs"></path><path d="M183.70162764412677,71.15273712864877A197,197,0,0,1,183.27051125995513,72.25593195381715L158.71691851568315,62.57547264612542A170.6070045455344,170.6070045455344,0,0,0,159.0902762563635,61.62007790220606Z" fill-rule="evenodd" style="fill: #1DC690; stroke: #fff; opacity: 1;" id="p-type-logs"></path><path d="M183.27051125995513,72.25593195381715A197,197,0,0,1,182.83276986021022,73.35651481118362L158.33782334321592,63.52860535957444A170.6070045455344,170.6070045455344,0,0,0,158.71691851568315,62.57547264612542Z" fill-rule="evenodd" style="fill: #1DC690; stroke: #fff; opacity: 1;" id="p-type-logs"></path><path d="M182.83276986021022,73.35651481118362A197,197,0,0,1,182.38841926873394,74.45444591595943L157.9530044428108,64.4794415879154A170.6070045455344,170.6070045455344,0,0,0,158.33782334321592,63.52860535957444Z" fill-rule="evenodd" style="fill: #1DC690; stroke: #fff; opacity: 1;" id="p-type-logs"></path><path d="M182.38841926873394,74.45444591595943A197,197,0,0,1,181.9374755482827,75.5496855792136L157.56247572522295,65.42794695952584A170.6070045455344,170.6070045455344,0,0,0,157.9530044428108,64.4794415879154Z" fill-rule="evenodd" style="fill: #1DC690; stroke: #fff; opacity: 1;" id="p-type-logs"></path><path d="M181.9374755482827,75.5496855792136A197,197,0,0,1,181.47995499994693,76.6421942093077L157.1662513076108,66.37408718704106A170.6070045455344,170.6070045455344,0,0,0,157.56247572522295,65.42794695952584Z" fill-rule="evenodd" style="fill: #1DC690; stroke: #fff; opacity: 1;" id="p-type-logs"></path><path d="M181.47995499994693,76.6421942093077A197,197,0,0,1,181.0158741625617,77.73193231332691L156.76434551302563,67.31782806859358A170.6070045455344,170.6070045455344,0,0,0,157.1662513076108,66.37408718704106Z" fill-rule="evenodd" style="fill: #1DC690; stroke: #fff; opacity: 1;" id="p-type-logs"></path><path d="M181.0158741625617,77.73193231332691A197,197,0,0,1,180.54524981210884,78.81886049850768L156.3567728698939,68.25913548904946A170.6070045455344,170.6070045455344,0,0,0,156.76434551302563,67.31782806859358Z" fill-rule="evenodd" style="fill: #1DC690; stroke: #fff; opacity: 1;" id="p-type-logs"></path><path d="M180.54524981210884,78.81886049850768A197,197,0,0,1,180.06809896111065,79.90293947366182L155.9435481114921,69.19797542124154A170.6070045455344,170.6070045455344,0,0,0,156.3567728698939,68.25913548904946Z" fill-rule="evenodd" style="fill: #1DC690; stroke: #fff; opacity: 1;" id="p-type-logs"></path><path d="M180.06809896111065,79.90293947366182A197,197,0,0,1,179.58443885801475,80.98413005059672L155.52468617541405,70.13431392719951A170.6070045455344,170.6070045455344,0,0,0,155.9435481114921,69.19797542124154Z" fill-rule="evenodd" style="fill: #1DC690; stroke: #fff; opacity: 1;" id="p-type-logs"></path><path d="M179.58443885801475,80.98413005059672A197,197,0,0,1,179.0942869865707,82.062393145532L155.10020220303102,71.0681171593767A170.6070045455344,170.6070045455344,0,0,0,155.52468617541405,70.13431392719951Z" fill-rule="evenodd" style="fill: #1DC690; stroke: #fff; opacity: 1;" id="p-type-logs"></path><path d="M179.0942869865707,82.062393145532A197,197,0,0,1,178.59766106519788,83.13768978051235L154.6701115389443,71.9993513618736A170.6070045455344,170.6070045455344,0,0,0,155.10020220303102,71.0681171593767Z" fill-rule="evenodd" style="fill: #1DC690; stroke: #fff; opacity: 1;" id="p-type-logs"></path><path d="M178.59766106519788,83.13768978051235A197,197,0,0,1,178.09457904634505,84.20998108481655L154.23442973043058,72.92798287165819A170.6070045455344,170.6070045455344,0,0,0,154.6701115389443,71.9993513618736Z" fill-rule="evenodd" style="fill: #1DC690; stroke: #fff; opacity: 1;" id="p-type-logs"></path><path d="M178.09457904634505,84.20998108481655A197,197,0,0,1,177.58505911584135,85.27922829636259L153.7931725268799,73.85397811978274A170.6070045455344,170.6070045455344,0,0,0,154.23442973043058,72.92798287165819Z" fill-rule="evenodd" style="fill: #1DC690; stroke: #fff; opacity: 1;" id="p-type-logs"></path><path d="M177.58505911584135,85.27922829636259A197,197,0,0,1,177.06911969223904,86.34539276310883L153.3463558792264,74.77730363259728A170.6070045455344,170.6070045455344,0,0,0,153.7931725268799,73.85397811978274Z" fill-rule="evenodd" style="fill: #1DC690; stroke: #fff; opacity: 1;" id="p-type-logs"></path><path d="M177.06911969223904,86.34539276310883A197,197,0,0,1,176.5467794261474,87.40843594445134L152.89399593937154,75.69792603295971A170.6070045455344,170.6070045455344,0,0,0,153.3463558792264,74.77730363259728Z" fill-rule="evenodd" style="fill: #1DC690; stroke: #fff; opacity: 1;" id="p-type-logs"></path><path d="M176.5467794261474,87.40843594445134A197,197,0,0,1,176.01805719955888,88.46831941261694L152.4361090596004,76.61581204144227A170.6070045455344,170.6070045455344,0,0,0,152.89399593937154,75.69792603295971Z" fill-rule="evenodd" style="fill: #1DC690; stroke: #fff; opacity: 1;" id="p-type-logs"></path><path d="M176.01805719955888,88.46831941261694A197,197,0,0,1,175.4829721251663,89.52500485405243L151.97271179199052,77.53092847753457A170.6070045455344,170.6070045455344,0,0,0,152.4361090596004,76.61581204144227Z" fill-rule="evenodd" style="fill: #1DC690; stroke: #fff; opacity: 1;" id="p-type-logs"></path><path d="M175.4829721251663,89.52500485405243A197,197,0,0,1,174.94154354567198,90.57845407080956L151.5038208878135,78.44324226084306A170.6070045455344,170.6070045455344,0,0,0,151.97271179199052,77.53092847753457Z" fill-rule="evenodd" style="fill: #1DC690; stroke: #fff; opacity: 1;" id="p-type-logs"></path><path d="M174.94154354567198,90.57845407080956A197,197,0,0,1,174.39379103308863,91.62862898192583L151.02945329692957,79.35272041228683A170.6070045455344,170.6070045455344,0,0,0,151.5038208878135,78.44324226084306Z" fill-rule="evenodd" style="fill: #1DC690; stroke: #fff; opacity: 1;" id="p-type-logs"></path><path d="M174.39379103308863,91.62862898192583A197,197,0,0,1,173.83973438803176,92.67549162480107L150.54962616717475,80.25933005528971A170.6070045455344,170.6070045455344,0,0,0,151.02945329692957,79.35272041228683Z" fill-rule="evenodd" style="fill: #1DC690; stroke: #fff; opacity: 1;" id="p-type-logs"></path><path d="M173.83973438803176,92.67549162480107A197,197,0,0,1,173.27939363900387,93.71900415656978L150.06435684374102,81.16303841696883A170.6070045455344,170.6070045455344,0,0,0,150.54962616717475,80.25933005528971Z" fill-rule="evenodd" style="fill: #1DC690; stroke: #fff; opacity: 1;" id="p-type-logs"></path><path d="M173.27939363900387,93.71900415656978A197,197,0,0,1,172.71278904167062,94.75912885546903L149.57366286854938,82.06381282931922A170.6070045455344,170.6070045455344,0,0,0,150.06435684374102,81.16303841696883Z" fill-rule="evenodd" style="fill: #1DC690; stroke: #fff; opacity: 1;" id="p-type-logs"></path><path d="M172.71278904167062,94.75912885546903A197,197,0,0,1,172.13994107812837,95.79582812220214L149.0775619796156,82.96162073039478A170.6070045455344,170.6070045455344,0,0,0,149.57366286854938,82.06381282931922Z" fill-rule="evenodd" style="fill: #1DC690; stroke: #fff; opacity: 1;" id="p-type-logs"></path><path d="M172.13994107812837,95.79582812220214A197,197,0,0,1,171.56087045616397,96.82906448129778L148.57607211040917,83.85642966548535A170.6070045455344,170.6070045455344,0,0,0,149.0775619796156,82.96162073039478Z" fill-rule="evenodd" style="fill: #1DC690; stroke: #fff; opacity: 1;" id="p-type-logs"></path><path d="M171.56087045616397,96.82906448129778A197,197,0,0,1,170.97559810850612,97.85880058246472L148.06921138920492,84.74820728828988A170.6070045455344,170.6070045455344,0,0,0,148.57607211040917,83.85642966548535Z" fill-rule="evenodd" style="fill: #1DC690; stroke: #fff; opacity: 1;" id="p-type-logs"></path><path d="M102.28167036239249,168.36703925614088A197,197,0,0,1,60.71913729610207,187.4091416287293L52.58431539429956,162.3010775519153A170.6070045455344,170.6070045455344,0,0,0,88.5785248753378,145.81013315578983Z" fill-rule="evenodd" style="fill: #414552; stroke: #fff; opacity: 1;" id="p-type-ether"></path><path d="M60.71913729610207,187.4091416287293A197,197,0,0,1,39.77496452271554,192.9428728852577L34.44612971129645,167.09342939778492A170.6070045455344,170.6070045455344,0,0,0,52.58431539429956,162.3010775519153Z" fill-rule="evenodd" style="fill: #414552; stroke: #fff; opacity: 1;" id="p-type-ether"></path><path d="M39.77496452271554,192.9428728852577A197,197,0,0,1,33.55568697349604,194.1211371070568L29.060077360486133,168.11383614623324A170.6070045455344,170.6070045455344,0,0,0,34.44612971129645,167.09342939778492Z" fill-rule="evenodd" style="fill: #414552; stroke: #fff; opacity: 1;" id="p-type-ether"></path><path d="M33.55568697349604,194.1211371070568A197,197,0,0,1,27.90481195798175,195.01364431646746L24.166276043439975,168.88677006264362A170.6070045455344,170.6070045455344,0,0,0,29.060077360486133,168.11383614623324Z" fill-rule="evenodd" style="fill: #414552; stroke: #fff; opacity: 1;" id="p-type-ether"></path><path d="M27.90481195798175,195.01364431646746A197,197,0,0,1,23.165757429718692,195.63319678088234L20.062134432044488,169.42331823580417A170.6070045455344,170.6070045455344,0,0,0,24.166276043439975,168.88677006264362Z" fill-rule="evenodd" style="fill: #414552; stroke: #fff; opacity: 1;" id="p-type-ether"></path><path d="M23.165757429718692,195.63319678088234A197,197,0,0,1,18.418348492280792,196.1371062262745L15.950757690069981,169.85971661672073A170.6070045455344,170.6070045455344,0,0,0,20.062134432044488,169.42331823580417Z" fill-rule="evenodd" style="fill: #414552; stroke: #fff; opacity: 1;" id="p-type-ether"></path><path d="M18.418348492280792,196.1371062262745A197,197,0,0,1,13.696458669915822,196.52329892382554L11.861481150030725,170.19416930355595A170.6070045455344,170.6070045455344,0,0,0,15.950757690069981,169.85971661672073Z" fill-rule="evenodd" style="fill: #414552; stroke: #fff; opacity: 1;" id="p-type-ether"></path><path d="M13.696458669915822,196.52329892382554A197,197,0,0,1,12.210140436639533,196.62124114784126L10.574291801905453,170.2789897576567A170.6070045455344,170.6070045455344,0,0,0,11.861481150030725,170.19416930355595Z" fill-rule="evenodd" style="fill: #414552; stroke: #fff; opacity: 1;" id="p-type-ether"></path><path d="M12.210140436639533,196.62124114784126A197,197,0,0,1,10.799042153731142,196.70378920743224L9.352244841670185,170.3504784742956A170.6070045455344,170.6070045455344,0,0,0,10.574291801905453,170.2789897576567Z" fill-rule="evenodd" style="fill: #414552; stroke: #fff; opacity: 1;" id="p-type-ether"></path><path d="M10.799042153731142,196.70378920743224A197,197,0,0,1,9.616192382736529,196.7651616624706L8.327866891128245,170.40362857945146A170.6070045455344,170.6070045455344,0,0,0,9.352244841670185,170.3504784742956Z" fill-rule="evenodd" style="fill: #414552; stroke: #fff; opacity: 1;" id="p-type-ether"></path><path d="M9.616192382736529,196.7651616624706A197,197,0,0,1,8.433492007471065,196.81939999034628L7.303618321082965,170.45060034925058A170.6070045455344,170.6070045455344,0,0,0,8.327866891128245,170.40362857945146Z" fill-rule="evenodd" style="fill: #414552; stroke: #fff; opacity: 1;" id="p-type-ether"></path><path d="M-86.24555263678253,177.11777056629856A197,197,0,0,1,-87.30889012939241,176.59602969595235L-75.61171682827825,152.93664792416584A170.6070045455344,170.6070045455344,0,0,0,-74.69083954688165,153.38848877207826Z" fill-rule="evenodd" style="fill: #D7A449; stroke: #fff; opacity: 1;" id="p-type-tokenTransfers"></path><path d="M-87.30889012939241,176.59602969595235A197,197,0,0,1,-88.36907150729067,176.06790508476934L-76.52986083415733,152.47927859451758A170.6070045455344,170.6070045455344,0,0,0,-75.61171682827825,152.93664792416584Z" fill-rule="evenodd" style="fill: #D7A449; stroke: #fff; opacity: 1;" id="p-type-tokenTransfers"></path><path d="M-88.36907150729067,176.06790508476934A197,197,0,0,1,-89.42605844615504,175.53341582383928L-77.44523837468222,152.01639731650218A170.6070045455344,170.6070045455344,0,0,0,-76.52986083415733,152.47927859451758Z" fill-rule="evenodd" style="fill: #D7A449; stroke: #fff; opacity: 1;" id="p-type-tokenTransfers"></path><path d="M-89.42605844615504,175.53341582383928A197,197,0,0,1,-90.47981273713846,174.9925812343265L-78.35781636002072,151.54802082273878A170.6070045455344,170.6070045455344,0,0,0,-77.44523837468222,152.01639731650218Z" fill-rule="evenodd" style="fill: #D7A449; stroke: #fff; opacity: 1;" id="p-type-tokenTransfers"></path><path d="M-90.47981273713846,174.9925812343265A197,197,0,0,1,-91.53029628825038,174.44542086677168L-79.26756180154135,151.07416604449227A170.6070045455344,170.6070045455344,0,0,0,-78.35781636002072,151.54802082273878Z" fill-rule="evenodd" style="fill: #D7A449; stroke: #fff; opacity: 1;" id="p-type-tokenTransfers"></path><path d="M-91.53029628825038,174.44542086677168A197,197,0,0,1,-92.57747112573365,173.89195450038494L-80.1744418130057,150.5948501110611A170.6070045455344,170.6070045455344,0,0,0,-79.26756180154135,151.07416604449227Z" fill-rule="evenodd" style="fill: #D7A449; stroke: #fff; opacity: 1;" id="p-type-tokenTransfers"></path><path d="M-92.57747112573365,173.89195450038494A197,197,0,0,1,-93.62129939543729,173.332202142331L-81.0784236117574,150.11009034915813A170.6070045455344,170.6070045455344,0,0,0,-80.1744418130057,150.5948501110611Z" fill-rule="evenodd" style="fill: #D7A449; stroke: #fff; opacity: 1;" id="p-type-tokenTransfers"></path><path d="M-93.62129939543729,173.332202142331A197,197,0,0,1,-94.66174336418482,172.76618402700575L-81.97947451990706,149.61990428228427A170.6070045455344,170.6070045455344,0,0,0,-81.0784236117574,150.11009034915813Z" fill-rule="evenodd" style="fill: #D7A449; stroke: #fff; opacity: 1;" id="p-type-tokenTransfers"></path><path d="M-94.66174336418482,172.76618402700575A197,197,0,0,1,-95.69876542113829,172.19392061530496L-82.87756196551356,149.12430963009504A170.6070045455344,170.6070045455344,0,0,0,-81.97947451990706,149.61990428228427Z" fill-rule="evenodd" style="fill: #D7A449; stroke: #fff; opacity: 1;" id="p-type-tokenTransfers"></path><path d="M-95.69876542113829,172.19392061530496A197,197,0,0,1,-96.73232807915794,171.61543259388463L-83.77265348376154,148.62332430776004A170.6070045455344,170.6070045455344,0,0,0,-82.87756196551356,149.12430963009504Z" fill-rule="evenodd" style="fill: #D7A449; stroke: #fff; opacity: 1;" id="p-type-tokenTransfers"></path><path d="M-96.73232807915794,171.61543259388463A197,197,0,0,1,-97.76239397615717,171.03074087441306L-84.66471671813488,148.11696642531527A170.6070045455344,170.6070045455344,0,0,0,-83.77265348376154,148.62332430776004Z" fill-rule="evenodd" style="fill: #D7A449; stroke: #fff; opacity: 1;" id="p-type-tokenTransfers"></path><path d="M-97.76239397615717,171.03074087441306A197,197,0,0,1,-98.78892587645328,170.43986659281512L-85.55371942158644,147.60525428700856A170.6070045455344,170.6070045455344,0,0,0,-84.66471671813488,148.11696642531527Z" fill-rule="evenodd" style="fill: #D7A449; stroke: #fff; opacity: 1;" id="p-type-tokenTransfers"></path><path d="M-98.78892587645328,170.43986659281512A197,197,0,0,1,-99.81188667211345,169.84283110850805L-86.43962945770367,147.08820639063788A170.6070045455344,170.6070045455344,0,0,0,-85.55371942158644,147.60525428700856Z" fill-rule="evenodd" style="fill: #D7A449; stroke: #fff; opacity: 1;" id="p-type-tokenTransfers"></path><path d="M-99.81188667211345,169.84283110850805A197,197,0,0,1,-100.83123938429603,169.23965600362934L-87.32241480187035,146.5658414268826A170.6070045455344,170.6070045455344,0,0,0,-86.43962945770367,147.08820639063788Z" fill-rule="evenodd" style="fill: #D7A449; stroke: #fff; opacity: 1;" id="p-type-tokenTransfers"></path><path d="M-100.83123938429603,169.23965600362934A197,197,0,0,1,-101.8469471645875,168.6303630822567L-88.20204354242428,146.03817827862784A170.6070045455344,170.6070045455344,0,0,0,-87.32241480187035,146.5658414268826Z" fill-rule="evenodd" style="fill: #D7A449; stroke: #fff; opacity: 1;" id="p-type-tokenTransfers"></path><path d="M-101.8469471645875,168.6303630822567A197,197,0,0,1,-102.85897329633436,168.01497436961975L-89.07848388181074,145.50523602028204A170.6070045455344,170.6070045455344,0,0,0,-88.20204354242428,146.03817827862784Z" fill-rule="evenodd" style="fill: #D7A449; stroke: #fff; opacity: 1;" id="p-type-tokenTransfers"></path><path d="M-102.85897329633436,168.01497436961975A197,197,0,0,1,-103.86728119597035,167.39351211130383L-89.95170413773205,144.96703391708724A170.6070045455344,170.6070045455344,0,0,0,-89.07848388181074,145.50523602028204Z" fill-rule="evenodd" style="fill: #D7A449; stroke: #fff; opacity: 1;" id="p-type-tokenTransfers"></path><path d="M-103.86728119597035,167.39351211130383A197,197,0,0,1,-104.87183441433905,166.76599877244598L-90.82167274429275,144.42359142442274A170.6070045455344,170.6070045455344,0,0,0,-89.95170413773205,144.96703391708724Z" fill-rule="evenodd" style="fill: #D7A449; stroke: #fff; opacity: 1;" id="p-type-tokenTransfers"></path><path d="M-104.87183441433905,166.76599877244598A197,197,0,0,1,-105.87259663801134,166.13245703692266L-91.68835825314078,143.87492818710183A170.6070045455344,170.6070045455344,0,0,0,-90.82167274429275,144.42359142442274Z" fill-rule="evenodd" style="fill: #D7A449; stroke: #fff; opacity: 1;" id="p-type-tokenTransfers"></path><path d="M-105.87259663801134,166.13245703692266A197,197,0,0,1,-106.8695316905982,165.49290980652987L-92.55172933460416,143.32106403866172A170.6070045455344,170.6070045455344,0,0,0,-91.68835825314078,143.87492818710183Z" fill-rule="evenodd" style="fill: #D7A449; stroke: #fff; opacity: 1;" id="p-type-tokenTransfers"></path><path d="M-106.8695316905982,165.49290980652987A197,197,0,0,1,-107.86260353405835,164.84738020015527L-93.41175477882369,142.76201900064635A170.6070045455344,170.6070045455344,0,0,0,-92.55172933460416,143.32106403866172Z" fill-rule="evenodd" style="fill: #D7A449; stroke: #fff; opacity: 1;" id="p-type-tokenTransfers"></path><path d="M-107.86260353405835,164.84738020015527A197,197,0,0,1,-108.85177627000101,164.1958915529425L-94.26840349688099,142.19781328188293A170.6070045455344,170.6070045455344,0,0,0,-93.41175477882369,142.76201900064635Z" fill-rule="evenodd" style="fill: #D7A449; stroke: #fff; opacity: 1;" id="p-type-tokenTransfers"></path><path d="M-108.85177627000101,164.1958915529425A197,197,0,0,1,-109.83701414098361,163.53846741544746L-95.12164452192243,141.62846727775113A170.6070045455344,170.6070045455344,0,0,0,-94.26840349688099,142.19781328188293Z" fill-rule="evenodd" style="fill: #D7A449; stroke: #fff; opacity: 1;" id="p-type-tokenTransfers"></path><path d="M-109.83701414098361,163.53846741544746A197,197,0,0,1,-110.8182815318044,162.8751315527872L-95.9714470102785,141.0540015694461A170.6070045455344,170.6070045455344,0,0,0,-95.12164452192243,141.62846727775113Z" fill-rule="evenodd" style="fill: #D7A449; stroke: #fff; opacity: 1;" id="p-type-tokenTransfers"></path><path d="M-110.8182815318044,162.8751315527872A197,197,0,0,1,-111.79554297078982,162.20590794378077L-96.8177802425788,140.47443692323424A170.6070045455344,170.6070045455344,0,0,0,-95.9714470102785,141.0540015694461Z" fill-rule="evenodd" style="fill: #D7A449; stroke: #fff; opacity: 1;" id="p-type-tokenTransfers"></path><path d="M-111.79554297078982,162.20590794378077A197,197,0,0,1,-112.76876313107682,161.53082078008237L-97.66061362486252,139.88979428970262A170.6070045455344,170.6070045455344,0,0,0,-96.8177802425788,140.47443692323424Z" fill-rule="evenodd" style="fill: #D7A449; stroke: #fff; opacity: 1;" id="p-type-tokenTransfers"></path><path d="M-112.76876313107682,161.53082078008237A197,197,0,0,1,-113.73790683188989,160.84989446530682L-98.4999166896843,139.30009480300166A170.6070045455344,170.6070045455344,0,0,0,-97.66061362486252,139.88979428970262Z" fill-rule="evenodd" style="fill: #D7A449; stroke: #fff; opacity: 1;" id="p-type-tokenTransfers"></path><path d="M-113.73790683188989,160.84989446530682A197,197,0,0,1,-114.7029390398127,160.1631536141475L-99.33565909721565,138.70535978008115A170.6070045455344,170.6070045455344,0,0,0,-98.4999166896843,139.30009480300166Z" fill-rule="evenodd" style="fill: #D7A449; stroke: #fff; opacity: 1;" id="p-type-tokenTransfers"></path><path d="M-114.7029390398127,160.1631536141475A197,197,0,0,1,-115.66382487005475,159.4706230514865L-100.16781063634177,138.1056107199196A170.6070045455344,170.6070045455344,0,0,0,-99.33565909721565,138.70535978008115Z" fill-rule="evenodd" style="fill: #D7A449; stroke: #fff; opacity: 1;" id="p-type-tokenTransfers"></path><path d="M-115.66382487005475,159.4706230514865A197,197,0,0,1,-116.62052958771213,158.77232781149732L-100.99634122575347,137.50086930274722A170.6070045455344,170.6070045455344,0,0,0,-100.16781063634177,138.1056107199196Z" fill-rule="evenodd" style="fill: #D7A449; stroke: #fff; opacity: 1;" id="p-type-tokenTransfers"></path><path d="M-116.62052958771213,158.77232781149732A197,197,0,0,1,-117.57301860902331,158.06829313673967L-101.82122091503471,136.891157389262A170.6070045455344,170.6070045455344,0,0,0,-100.99634122575347,137.50086930274722Z" fill-rule="evenodd" style="fill: #D7A449; stroke: #fff; opacity: 1;" id="p-type-tokenTransfers"></path><path d="M-117.57301860902331,158.06829313673967A197,197,0,0,1,-118.52125750261932,157.35854447724728L-102.64241988574531,136.2764970198396A170.6070045455344,170.6070045455344,0,0,0,-101.82122091503471,136.891157389262Z" fill-rule="evenodd" style="fill: #D7A449; stroke: #fff; opacity: 1;" id="p-type-tokenTransfers"></path><path d="M-118.52125750261932,157.35854447724728A197,197,0,0,1,-119.46521199076832,156.64310748960767L-103.4599084524987,135.6569104137367A170.6070045455344,170.6070045455344,0,0,0,-102.64241988574531,136.2764970198396Z" fill-rule="evenodd" style="fill: #D7A449; stroke: #fff; opacity: 1;" id="p-type-tokenTransfers"></path><path d="M-119.46521199076832,156.64310748960767A197,197,0,0,1,-120.40484795061475,155.92200803603492L-104.27365706403508,135.03241996828763A170.6070045455344,170.6070045455344,0,0,0,-103.4599084524987,135.6569104137367Z" fill-rule="evenodd" style="fill: #D7A449; stroke: #fff; opacity: 1;" id="p-type-tokenTransfers"></path><path d="M-120.40484795061475,155.92200803603492A197,197,0,0,1,-121.34013141541283,155.19527218343458L-105.08363630428974,134.4030482580948A170.6070045455344,170.6070045455344,0,0,0,-104.27365706403508,135.03241996828763Z" fill-rule="evenodd" style="fill: #D7A449; stroke: #fff; opacity: 1;" id="p-type-tokenTransfers"></path><path d="M-121.34013141541283,155.19527218343458A197,197,0,0,1,-122.27102857575437,154.4629262024615L-105.88981689345631,133.76881803421264A170.6070045455344,170.6070045455344,0,0,0,-105.08363630428974,134.4030482580948Z" fill-rule="evenodd" style="fill: #D7A449; stroke: #fff; opacity: 1;" id="p-type-tokenTransfers"></path><path d="M-122.27102857575437,154.4629262024615A197,197,0,0,1,-123.19750578079103,153.72499656656998L-106.69216968904526,133.12975222332523A170.6070045455344,170.6070045455344,0,0,0,-105.88981689345631,133.76881803421264Z" fill-rule="evenodd" style="fill: #D7A449; stroke: #fff; opacity: 1;" id="p-type-tokenTransfers"></path><path d="M-123.19750578079103,153.72499656656998A197,197,0,0,1,-124.11952953945068,152.98150995105723L-107.49066568693733,132.48587392691746A170.6070045455344,170.6070045455344,0,0,0,-106.69216968904526,133.12975222332523Z" fill-rule="evenodd" style="fill: #D7A449; stroke: #fff; opacity: 1;" id="p-type-tokenTransfers"></path><path d="M-124.11952953945068,152.98150995105723A197,197,0,0,1,-125.03706652164807,152.23249323209862L-108.28527602243199,131.83720642044003A170.6070045455344,170.6070045455344,0,0,0,-107.49066568693733,132.48587392691746Z" fill-rule="evenodd" style="fill: #D7A449; stroke: #fff; opacity: 1;" id="p-type-tokenTransfers"></path><path d="M-125.03706652164807,152.23249323209862A197,197,0,0,1,-125.95008355948973,151.47797348577632L-109.07597197129087,131.18377315246792A170.6070045455344,170.6070045455344,0,0,0,-108.28527602243199,131.83720642044003Z" fill-rule="evenodd" style="fill: #D7A449; stroke: #fff; opacity: 1;" id="p-type-tokenTransfers"></path><path d="M-125.95008355948973,151.47797348577632A197,197,0,0,1,-126.8585476484729,150.71797798710057L-109.8627249507762,130.5255977438529A170.6070045455344,170.6070045455344,0,0,0,-109.07597197129087,131.18377315246792Z" fill-rule="evenodd" style="fill: #D7A449; stroke: #fff; opacity: 1;" id="p-type-tokenTransfers"></path><path d="M-126.8585476484729,150.71797798710057A197,197,0,0,1,-127.76242594867863,149.95253420902367L-110.64550652068384,129.86270398686958A170.6070045455344,170.6070045455344,0,0,0,-109.8627249507762,130.5255977438529Z" fill-rule="evenodd" style="fill: #D7A449; stroke: #fff; opacity: 1;" id="p-type-tokenTransfers"></path><path d="M-127.76242594867863,149.95253420902367A197,197,0,0,1,-128.6616857859589,149.18166982144686L-111.42428838437161,129.1951158443553A170.6070045455344,170.6070045455344,0,0,0,-110.64550652068384,129.86270398686958Z" fill-rule="evenodd" style="fill: #D7A449; stroke: #fff; opacity: 1;" id="p-type-tokenTransfers"></path><path d="M-128.6616857859589,149.18166982144686A197,197,0,0,1,-129.55629465311765,148.40541269022015L-112.19904238978192,128.52285744884415A170.6070045455344,170.6070045455344,0,0,0,-111.42428838437161,129.1951158443553Z" fill-rule="evenodd" style="fill: #D7A449; stroke: #fff; opacity: 1;" id="p-type-tokenTransfers"></path><path d="M-129.55629465311765,148.40541269022015A197,197,0,0,1,-130.44622021108617,147.6237908761349L-112.96974053045969,127.84595310169426A170.6070045455344,170.6070045455344,0,0,0,-112.19904238978192,128.52285744884415Z" fill-rule="evenodd" style="fill: #D7A449; stroke: #fff; opacity: 1;" id="p-type-tokenTransfers"></path><path d="M-130.44622021108617,147.6237908761349A197,197,0,0,1,-131.33143029009173,146.83683263390958L-113.73635494656455,127.16442727220958A170.6070045455344,170.6070045455344,0,0,0,-112.96974053045969,127.84595310169426Z" fill-rule="evenodd" style="fill: #D7A449; stroke: #fff; opacity: 1;" id="p-type-tokenTransfers"></path><path d="M-131.33143029009173,146.83683263390958A197,197,0,0,1,-132.21189289082082,146.04456641116823L-114.49885792587804,126.47830459675522A170.6070045455344,170.6070045455344,0,0,0,-113.73635494656455,127.16442727220958Z" fill-rule="evenodd" style="fill: #D7A449; stroke: #fff; opacity: 1;" id="p-type-tokenTransfers"></path><path d="M-132.21189289082082,146.04456641116823A197,197,0,0,1,-133.08757618557559,145.24702084741227L-115.25722190480533,125.78760987786698A170.6070045455344,170.6070045455344,0,0,0,-114.49885792587804,126.47830459675522Z" fill-rule="evenodd" style="fill: #D7A449; stroke: #fff; opacity: 1;" id="p-type-tokenTransfers"></path><path d="M-133.08757618557559,145.24702084741227A197,197,0,0,1,-133.9584485194247,144.4442247729851L-116.0114194693717,125.09236808335464A170.6070045455344,170.6070045455344,0,0,0,-115.25722190480533,125.78760987786698Z" fill-rule="evenodd" style="fill: #D7A449; stroke: #fff; opacity: 1;" id="p-type-tokenTransfers"></path><path d="M-133.9584485194247,144.4442247729851A197,197,0,0,1,-134.82447841134734,143.63620720803002L-116.76142335621341,124.39260434539949A170.6070045455344,170.6070045455344,0,0,0,-116.0114194693717,125.09236808335464Z" fill-rule="evenodd" style="fill: #D7A449; stroke: #fff; opacity: 1;" id="p-type-tokenTransfers"></path><path d="M-134.82447841134734,143.63620720803002A197,197,0,0,1,-135.68563455537134,142.82299736144114L-117.50720645356324,123.68834395964588A170.6070045455344,170.6070045455344,0,0,0,-116.76142335621341,124.39260434539949Z" fill-rule="evenodd" style="fill: #D7A449; stroke: #fff; opacity: 1;" id="p-type-tokenTransfers"></path><path d="M-135.68563455537134,142.82299736144114A197,197,0,0,1,-136.54188582170488,142.0046246298074L-118.2487418022307,122.9796123842866A170.6070045455344,170.6070045455344,0,0,0,-117.50720645356324,123.68834395964588Z" fill-rule="evenodd" style="fill: #D7A449; stroke: #fff; opacity: 1;" id="p-type-tokenTransfers"></path><path d="M-136.54188582170488,142.0046246298074A197,197,0,0,1,-137.3932012578618,141.18111859635016L-118.98600259657638,122.26643523914287A170.6070045455344,170.6070045455344,0,0,0,-118.2487418022307,122.9796123842866Z" fill-rule="evenodd" style="fill: #D7A449; stroke: #fff; opacity: 1;" id="p-type-tokenTransfers"></path><path d="M-137.3932012578618,141.18111859635016A197,197,0,0,1,-138.23955008978027,140.35250902985356L-119.71896218548108,121.54883830473801A170.6070045455344,170.6070045455344,0,0,0,-118.98600259657638,122.26643523914287Z" fill-rule="evenodd" style="fill: #D7A449; stroke: #fff; opacity: 1;" id="p-type-tokenTransfers"></path><path d="M-138.23955008978027,140.35250902985356A197,197,0,0,1,-139.08090172293564,139.51882588358865L-120.44759407330916,120.82684752136564A170.6070045455344,170.6070045455344,0,0,0,-119.71896218548108,121.54883830473801Z" fill-rule="evenodd" style="fill: #D7A449; stroke: #fff; opacity: 1;" id="p-type-tokenTransfers"></path><path d="M-139.08090172293564,139.51882588358865A197,197,0,0,1,-139.91722574344604,138.68009929423025L-121.1718719208663,120.1004889881518A170.6070045455344,170.6070045455344,0,0,0,-120.44759407330916,120.82684752136564Z" fill-rule="evenodd" style="fill: #D7A449; stroke: #fff; opacity: 1;" id="p-type-tokenTransfers"></path><path d="M-139.91722574344604,138.68009929423025A197,197,0,0,1,-140.748491919172,137.83635958076798L-121.89176954635174,119.36978896211167A170.6070045455344,170.6070045455344,0,0,0,-121.1718719208663,120.1004889881518Z" fill-rule="evenodd" style="fill: #D7A449; stroke: #fff; opacity: 1;" id="p-type-tokenTransfers"></path><path d="M-140.748491919172,137.83635958076798A197,197,0,0,1,-141.57467020080924,136.98763724341L-122.60726092630455,118.63477385720036A170.6070045455344,170.6070045455344,0,0,0,-121.89176954635174,119.36978896211167Z" fill-rule="evenodd" style="fill: #D7A449; stroke: #fff; opacity: 1;" id="p-type-tokenTransfers"></path><path d="M-141.57467020080924,136.98763724341A197,197,0,0,1,-142.39573072297492,136.13396296248052L-123.31832019654455,117.895470243358A170.6070045455344,170.6070045455344,0,0,0,-122.60726092630455,118.63477385720036Z" fill-rule="evenodd" style="fill: #D7A449; stroke: #fff; opacity: 1;" id="p-type-tokenTransfers"></path><path d="M-142.39573072297492,136.13396296248052A197,197,0,0,1,-143.21164380528722,135.27536759731072L-124.02492165310706,117.15190484554938A170.6070045455344,170.6070045455344,0,0,0,-123.31832019654455,117.895470243358Z" fill-rule="evenodd" style="fill: #D7A449; stroke: #fff; opacity: 1;" id="p-type-tokenTransfers"></path><path d="M-143.21164380528722,135.27536759731072A197,197,0,0,1,-144.0223799534383,134.41188218512323L-124.72703975317225,116.40410454279775A170.6070045455344,170.6070045455344,0,0,0,-124.02492165310706,117.15190484554938Z" fill-rule="evenodd" style="fill: #D7A449; stroke: #fff; opacity: 1;" id="p-type-tokenTransfers"></path><path d="M-144.0223799534383,134.41188218512323A197,197,0,0,1,-144.8279098602605,133.54353793991027L-125.42464911598837,115.6520963672133A170.6070045455344,170.6070045455344,0,0,0,-124.72703975317225,116.40410454279775Z" fill-rule="evenodd" style="fill: #D7A449; stroke: #fff; opacity: 1;" id="p-type-tokenTransfers"></path><path d="M-144.8279098602605,133.54353793991027A197,197,0,0,1,-145.62820440678567,132.67036625130515L-126.11772452378933,114.8959075030159A170.6070045455344,170.6070045455344,0,0,0,-125.42464911598837,115.6520963672133Z" fill-rule="evenodd" style="fill: #D7A449; stroke: #fff; opacity: 1;" id="p-type-tokenTransfers"></path><path d="M-145.62820440678567,132.67036625130515A197,197,0,0,1,-146.42323466329785,131.79239868344763L-126.80624092270614,114.13556528555246A170.6070045455344,170.6070045455344,0,0,0,-126.11772452378933,114.8959075030159Z" fill-rule="evenodd" style="fill: #D7A449; stroke: #fff; opacity: 1;" id="p-type-tokenTransfers"></path><path d="M-146.42323466329785,131.79239868344763A197,197,0,0,1,-147.212971890379,130.90966697384297L-127.4901734236727,113.37109720030874A170.6070045455344,170.6070045455344,0,0,0,-126.80624092270614,114.13556528555246Z" fill-rule="evenodd" style="fill: #D7A449; stroke: #fff; opacity: 1;" id="p-type-tokenTransfers"></path><path d="M-147.212971890379,130.90966697384297A197,197,0,0,1,-147.99738753994805,130.02220303221455L-128.16949730332556,112.60253088191588A170.6070045455344,170.6070045455344,0,0,0,-127.4901734236727,113.37109720030874Z" fill-rule="evenodd" style="fill: #D7A449; stroke: #fff; opacity: 1;" id="p-type-tokenTransfers"></path><path d="M-147.99738753994805,130.02220303221455A197,197,0,0,1,-148.77645325629263,129.1300389393505L-128.8441880048975,111.82989411315128A170.6070045455344,170.6070045455344,0,0,0,-128.16949730332556,112.60253088191588Z" fill-rule="evenodd" style="fill: #D7A449; stroke: #fff; opacity: 1;" id="p-type-tokenTransfers"></path><path d="M-148.77645325629263,129.1300389393505A197,197,0,0,1,-149.55014087709426,128.23320694594383L-129.51422113910522,111.0532148239345A170.6070045455344,170.6070045455344,0,0,0,-128.8441880048975,111.82989411315128Z" fill-rule="evenodd" style="fill: #D7A449; stroke: #fff; opacity: 1;" id="p-type-tokenTransfers"></path><path d="M-149.55014087709426,128.23320694594383A197,197,0,0,1,-150.31842243444646,127.33173947142679L-130.17957248503131,110.27252109031733A170.6070045455344,170.6070045455344,0,0,0,-129.51422113910522,111.0532148239345Z" fill-rule="evenodd" style="fill: #D7A449; stroke: #fff; opacity: 1;" id="p-type-tokenTransfers"></path><path d="M-150.31842243444646,127.33173947142679A197,197,0,0,1,-151.08127015586547,126.42566910279889L-130.84021799099924,109.48784113346925A170.6070045455344,170.6070045455344,0,0,0,-130.17957248503131,110.27252109031733Z" fill-rule="evenodd" style="fill: #D7A449; stroke: #fff; opacity: 1;" id="p-type-tokenTransfers"></path></g></svg>