<svg xmlns="http://www.w3.org/2000/svg" width="400" height="400" id="block-7901148"><g id="burst-container" transform="translate(200,200)"><circle r="197" style="fill: #f9f9f9; stroke: #f9f9f9; stroke-width: 3; opacity: 1;" id="circle-base"></circle><path display="none" d="M6.031385485800715e-15,-98.5A98.5,98.5,0,1,1,-6.031385485800715e-15,98.5A98.5,98.5,0,1,1,6.031385485800715e-15,-98.5Z" fill-rule="evenodd" id="p-type-root" style="stroke: #fff; opacity: 1;"></path><path d="M8.529667153919608e-15,-139.30003589374985A139.30003589374985,139.30003589374985,0,1,1,-114.77100267999451,-78.94375810555695L-81.15535427860354,-55.821666688789804A98.5,98.5,0,1,0,6.031385485800715e-15,-98.5Z" fill-rule="evenodd" style="fill: #0B1F65; stroke: #fff; opacity: 1;" id="p-type-data"></path><path d="M-114.77100267999451,-78.94375810555695A139.30003589374985,139.30003589374985,0,0,1,-4.214402146761208,-139.23626975233634L-2.980032336621994,-98.45491052899641A98.5,98.5,0,0,0,-81.15535427860354,-55.821666688789804Z" fill-rule="evenodd" style="fill: #D7A449; stroke: #fff; opacity: 1;" id="p-type-value"></path><path d="M1.0446666101440332e-14,-170.6070045455344A170.6070045455344,170.6070045455344,0,0,1,170.0392262475999,13.907247647091438L138.83644685476136,11.35522015396532A139.30003589374985,139.30003589374985,0,0,0,8.529667153919608e-15,-139.30003589374985Z" fill-rule="evenodd" style="fill: #DB3F29; stroke: #fff; opacity: 1;" id="p-type-functions"></path><path d="M170.0392262475999,13.907247647091438A170.6070045455344,170.6070045455344,0,0,1,66.41776078905525,157.14780002204242L54.229874597139194,128.31064141831163A139.30003589374985,139.30003589374985,0,0,0,138.83644685476136,11.35522015396532Z" fill-rule="evenodd" style="fill: #1DC690; stroke: #fff; opacity: 1;" id="p-type-logs"></path><path d="M66.41776078905525,157.14780002204242A170.6070045455344,170.6070045455344,0,0,1,-80.90374962018504,150.20430518928012L-66.05763494911389,122.64130162767192A139.30003589374985,139.30003589374985,0,0,0,54.229874597139194,128.31064141831163Z" fill-rule="evenodd" style="fill: #D7A449; stroke: #fff; opacity: 1;" id="p-type-tokenTransfers"></path><path d="M-80.90374962018504,150.20430518928012A170.6070045455344,170.6070045455344,0,0,1,-160.22641572834118,58.60243768691521L-130.824320616495,47.848690005396385A139.30003589374985,139.30003589374985,0,0,0,-66.05763494911389,122.64130162767192Z" fill-rule="evenodd" style="fill: #414552; stroke: #fff; opacity: 1;" id="p-type-ether"></path><path d="M-140.5651969167936,-96.68596286815908A170.6070045455344,170.6070045455344,0,0,1,-81.68394928579299,-149.78144888161552L-66.69466530852374,-122.29604089824004A139.30003589374985,139.30003589374985,0,0,0,-114.77100267999451,-78.94375810555695Z" fill-rule="evenodd" style="fill: #D7A449; stroke: #fff; opacity: 1;" id="p-type-tokenTransfers"></path><path d="M-81.68394928579299,-149.78144888161552A170.6070045455344,170.6070045455344,0,0,1,-10.318409300621411,-170.2946870266505L-8.42494591457023,-139.0450297074173A139.30003589374985,139.30003589374985,0,0,0,-66.69466530852374,-122.29604089824004Z" fill-rule="evenodd" style="fill: #414552; stroke: #fff; opacity: 1;" id="p-type-ether"></path><path d="M1.206277097160143e-14,-197A197,197,0,0,1,42.87125391436564,-192.27858847986687L37.1275949819337,-166.5181422273786A170.6070045455344,170.6070045455344,0,0,0,1.0446666101440332e-14,-170.6070045455344Z" fill-rule="evenodd" style="fill: #DB3F29; stroke: #fff; opacity: 1;" id="p-type-functions"></path><path d="M42.87125391436564,-192.27858847986687A197,197,0,0,1,51.11173772344108,-190.25401511371626L44.264063300067384,-164.76481026046682A170.6070045455344,170.6070045455344,0,0,0,37.1275949819337,-166.5181422273786Z" fill-rule="evenodd" style="fill: #DB3F29; stroke: #fff; opacity: 1;" id="p-type-functions"></path><path d="M51.11173772344108,-190.25401511371626A197,197,0,0,1,53.98420292760137,-189.45898193084315L46.75169113835705,-164.0762913272471A170.6070045455344,170.6070045455344,0,0,0,44.264063300067384,-164.76481026046682Z" fill-rule="evenodd" style="fill: #DB3F29; stroke: #fff; opacity: 1;" id="p-type-functions"></path><path d="M53.98420292760137,-189.45898193084315A197,197,0,0,1,56.8443114898879,-188.62058278788294L49.228617810878575,-163.35021637093246A170.6070045455344,170.6070045455344,0,0,0,46.75169113835705,-164.0762913272471Z" fill-rule="evenodd" style="fill: #DB3F29; stroke: #fff; opacity: 1;" id="p-type-functions"></path><path d="M56.8443114898879,-188.62058278788294A197,197,0,0,1,59.69140874957939,-187.73900958908524L51.69427636481646,-162.58675158547814A170.6070045455344,170.6070045455344,0,0,0,49.228617810878575,-163.35021637093246Z" fill-rule="evenodd" style="fill: #DB3F29; stroke: #fff; opacity: 1;" id="p-type-functions"></path><path d="M59.69140874957939,-187.73900958908524A197,197,0,0,1,62.52484302415924,-186.81446412096747L54.14810242655614,-161.78607172313437A170.6070045455344,170.6070045455344,0,0,0,51.69427636481646,-162.58675158547814Z" fill-rule="evenodd" style="fill: #DB3F29; stroke: #fff; opacity: 1;" id="p-type-functions"></path><path d="M62.52484302415924,-186.81446412096747A197,197,0,0,1,65.34396575848169,-185.8471580061271L56.58953433086563,-160.9483600544466A170.6070045455344,170.6070045455344,0,0,0,54.14810242655614,-161.78607172313437Z" fill-rule="evenodd" style="fill: #DB3F29; stroke: #fff; opacity: 1;" id="p-type-functions"></path><path d="M65.34396575848169,-185.8471580061271A197,197,0,0,1,68.14813167322166,-184.8373126548026L59.01801324945687,-160.07380832630594A170.6070045455344,170.6070045455344,0,0,0,56.58953433086563,-160.9483600544466Z" fill-rule="evenodd" style="fill: #DB3F29; stroke: #fff; opacity: 1;" id="p-type-functions"></path><path d="M68.14813167322166,-184.8373126548026A197,197,0,0,1,70.93669891257534,-183.78515921419398L61.43298331889821,-159.1626167180597A170.6070045455344,170.6070045455344,0,0,0,59.01801324945687,-160.07380832630594Z" fill-rule="evenodd" style="fill: #DB3F29; stroke: #fff; opacity: 1;" id="p-type-functions"></path><path d="M70.93669891257534,-183.78515921419398A197,197,0,0,1,73.70902919117688,-182.69093851555485L63.83389176784792,-158.2149937956914A170.6070045455344,170.6070045455344,0,0,0,61.43298331889821,-159.1626167180597Z" fill-rule="evenodd" style="fill: #DB3F29; stroke: #fff; opacity: 1;" id="p-type-functions"></path><path d="M73.70902919117688,-182.69093851555485A197,197,0,0,1,76.4644879401977,-181.5549010190674L66.22018904358005,-157.2311564640816A170.6070045455344,170.6070045455344,0,0,0,63.83389176784792,-158.2149937956914Z" fill-rule="evenodd" style="fill: #DB3F29; stroke: #fff; opacity: 1;" id="p-type-functions"></path><path d="M76.4644879401977,-181.5549010190674A197,197,0,0,1,79.20244445259563,-180.37730675651386L68.59132893777371,-156.21132991735948A170.6070045455344,170.6070045455344,0,0,0,66.22018904358005,-157.2311564640816Z" fill-rule="evenodd" style="fill: #DB3F29; stroke: #fff; opacity: 1;" id="p-type-functions"></path><path d="M79.20244445259563,-180.37730675651386A197,197,0,0,1,81.92227202747932,-179.15842527175684L70.94676871153641,-155.15574758735738A170.6070045455344,170.6070045455344,0,0,0,68.59132893777371,-156.21132991735948Z" fill-rule="evenodd" style="fill: #DB3F29; stroke: #fff; opacity: 1;" id="p-type-functions"></path><path d="M81.92227202747932,-179.15842527175684A197,197,0,0,1,84.62334811355633,-177.89853555904236L73.28596921963374,-154.06465109017998A170.6070045455344,170.6070045455344,0,0,0,70.94676871153641,-155.15574758735738Z" fill-rule="evenodd" style="fill: #DB3F29; stroke: #fff; opacity: 1;" id="p-type-functions"></path><path d="M84.62334811355633,-177.89853555904236A197,197,0,0,1,87.30505445163132,-176.5979259991399L75.60839503389641,-152.93829017089953A170.6070045455344,170.6070045455344,0,0,0,73.28596921963374,-154.06465109017998Z" fill-rule="evenodd" style="fill: #DB3F29; stroke: #fff; opacity: 1;" id="p-type-functions"></path><path d="M87.30505445163132,-176.5979259991399A197,197,0,0,1,89.96677721612129,-175.25689429333386L77.91351456577607,-151.77692264639114A170.6070045455344,170.6070045455344,0,0,0,75.60839503389641,-152.93829017089953Z" fill-rule="evenodd" style="fill: #DB3F29; stroke: #fff; opacity: 1;" id="p-type-functions"></path><path d="M89.96677721612129,-175.25689429333386A197,197,0,0,1,92.60790715555667,-173.87574739528165L80.20080018802277,-150.58081434631984A170.6070045455344,170.6070045455344,0,0,0,77.91351456577607,-151.77692264639114Z" fill-rule="evenodd" style="fill: #DB3F29; stroke: #fff; opacity: 1;" id="p-type-functions"></path><path d="M92.60790715555667,-173.87574739528165A197,197,0,0,1,95.22783973203501,-172.4548014407539L82.46972835545543,-149.35023905229409A170.6070045455344,170.6070045455344,0,0,0,80.20080018802277,-150.58081434631984Z" fill-rule="evenodd" style="fill: #DB3F29; stroke: #fff; opacity: 1;" id="p-type-functions"></path><path d="M95.22783973203501,-172.4548014407539A197,197,0,0,1,97.82597525959582,-170.99438167527302L84.71977972479797,-148.08547843519872A170.6070045455344,170.6070045455344,0,0,0,82.46972835545543,-149.35023905229409Z" fill-rule="evenodd" style="fill: #DB3F29; stroke: #fff; opacity: 1;" id="p-type-functions"></path><path d="M97.82597525959582,-170.99438167527302A197,197,0,0,1,100.40171904148505,-169.49482237966652L86.95043927355385,-146.7868219907224A170.6070045455344,170.6070045455344,0,0,0,84.71977972479797,-148.08547843519872Z" fill-rule="evenodd" style="fill: #DB3F29; stroke: #fff; opacity: 1;" id="p-type-functions"></path><path d="M100.40171904148505,-169.49482237966652A197,197,0,0,1,102.95448150627729,-167.95646679355224L89.1611964178913,-145.45456697309373A170.6070045455344,170.6070045455344,0,0,0,86.95043927355385,-146.7868219907224Z" fill-rule="evenodd" style="fill: #DB3F29; stroke: #fff; opacity: 1;" id="p-type-functions"></path><path d="M102.95448150627729,-167.95646679355224A197,197,0,0,1,105.48367834282487,-166.37966703677304L91.35154512951276,-144.08901832704183A170.6070045455344,170.6070045455344,0,0,0,89.1611964178913,-145.45456697309373Z" fill-rule="evenodd" style="fill: #DB3F29; stroke: #fff; opacity: 1;" id="p-type-functions"></path><path d="M105.48367834282487,-166.37966703677304A197,197,0,0,1,107.98873063400308,-164.76478402879886L93.52098405148149,-142.69048861799635A170.6070045455344,170.6070045455344,0,0,0,91.35154512951276,-144.08901832704183Z" fill-rule="evenodd" style="fill: #DB3F29; stroke: #fff; opacity: 1;" id="p-type-functions"></path><path d="M107.98873063400308,-164.76478402879886A197,197,0,0,1,110.46906498922066,-163.1121874061143L95.6690166129792,-141.25929796054314A170.6070045455344,170.6070045455344,0,0,0,93.52098405148149,-142.69048861799635Z" fill-rule="evenodd" style="fill: #DB3F29; stroke: #fff; opacity: 1;" id="p-type-functions"></path><path d="M110.46906498922066,-163.1121874061143A197,197,0,0,1,112.92411367566515,-161.42225543761137L97.79515114296777,-139.79577394515218A170.6070045455344,170.6070045455344,0,0,0,95.6690166129792,-141.25929796054314Z" fill-rule="evenodd" style="fill: #DB3F29; stroke: #fff; opacity: 1;" id="p-type-functions"></path><path d="M112.92411367566515,-161.42225543761137A197,197,0,0,1,115.35331474825351,-159.69537493800615L99.89890098272969,-138.30025156319408A170.6070045455344,170.6070045455344,0,0,0,97.79515114296777,-139.79577394515218Z" fill-rule="evenodd" style="fill: #DB3F29; stroke: #fff; opacity: 1;" id="p-type-functions"></path><path d="M115.35331474825351,-159.69537493800615A197,197,0,0,1,117.7561121782575,-157.93194117929923L101.9797845972611,-136.77307313026284A170.6070045455344,170.6070045455344,0,0,0,99.89890098272969,-138.30025156319408Z" fill-rule="evenodd" style="fill: #DB3F29; stroke: #fff; opacity: 1;" id="p-type-functions"></path><path d="M117.7561121782575,-157.93194117929923A197,197,0,0,1,120.13195598057547,-156.13235780030055L104.03732568549228,-135.21458820782175A170.6070045455344,170.6070045455344,0,0,0,101.9797845972611,-136.77307313026284Z" fill-rule="evenodd" style="fill: #DB3F29; stroke: #fff; opacity: 1;" id="p-type-functions"></path><path d="M120.13195598057547,-156.13235780030055A197,197,0,0,1,122.48030233962025,-154.29703671423897L106.07105328930975,-133.62515352319116A170.6070045455344,170.6070045455344,0,0,0,104.03732568549228,-135.21458820782175Z" fill-rule="evenodd" style="fill: #DB3F29; stroke: #fff; opacity: 1;" id="p-type-functions"></path><path d="M122.48030233962025,-154.29703671423897A197,197,0,0,1,124.8006137337951,-152.42639801447802L108.08050190135566,-132.00513288789588A170.6070045455344,170.6070045455344,0,0,0,106.07105328930975,-133.62515352319116Z" fill-rule="evenodd" style="fill: #DB3F29; stroke: #fff; opacity: 1;" id="p-type-functions"></path><path d="M124.8006137337951,-152.42639801447802A197,197,0,0,1,127.09235905852913,-150.5208698783591L110.06521157157954,-130.3548971143909A170.6070045455344,170.6070045455344,0,0,0,108.08050190135566,-132.00513288789588Z" fill-rule="evenodd" style="fill: #DB3F29; stroke: #fff; opacity: 1;" id="p-type-functions"></path><path d="M127.09235905852913,-150.5208698783591A197,197,0,0,1,129.35501374784357,-148.58088846919446L112.02472801251783,-128.6748239311848A170.6070045455344,170.6070045455344,0,0,0,110.06521157157954,-130.3548971143909Z" fill-rule="evenodd" style="fill: #DB3F29; stroke: #fff; opacity: 1;" id="p-type-functions"></path><path d="M129.35501374784357,-148.58088846919446A197,197,0,0,1,131.58805989442178,-146.60689783643218L113.95860270327752,-126.96529789638012A170.6070045455344,170.6070045455344,0,0,0,112.02472801251783,-128.6748239311848Z" fill-rule="evenodd" style="fill: #DB3F29; stroke: #fff; opacity: 1;" id="p-type-functions"></path><path d="M131.58805989442178,-146.60689783643218A197,197,0,0,1,133.7909863681549,-144.59934981401608L115.86639299219968,-125.22671030965056A170.6070045455344,170.6070045455344,0,0,0,113.95860270327752,-126.96529789638012Z" fill-rule="evenodd" style="fill: #DB3F29; stroke: #fff; opacity: 1;" id="p-type-functions"></path><path d="M133.7909863681549,-144.59934981401608A197,197,0,0,1,135.96328893313623,-142.55870391696368L117.74766219817958,-123.45945912267472A170.6070045455344,170.6070045455344,0,0,0,115.86639299219968,-125.22671030965056Z" fill-rule="evenodd" style="fill: #DB3F29; stroke: #fff; opacity: 1;" id="p-type-functions"></path><path d="M135.96328893313623,-142.55870391696368A197,197,0,0,1,138.10447036307764,-140.48542723618635L119.60197971062034,-121.66394884804767A170.6070045455344,170.6070045455344,0,0,0,117.74766219817958,-123.45945912267472Z" fill-rule="evenodd" style="fill: #DB3F29; stroke: #fff; opacity: 1;" id="p-type-functions"></path><path d="M196.34438609369496,16.05870634547006A197,197,0,0,1,196.07896615819016,19.02732325723517L169.8093658407819,16.47814530678413A170.6070045455344,170.6070045455344,0,0,0,170.0392262475999,13.907247647091438Z" fill-rule="evenodd" style="fill: #1DC690; stroke: #fff; opacity: 1;" id="p-type-logs"></path><path d="M196.07896615819016,19.02732325723517A197,197,0,0,1,195.76866499016901,21.991584935310485L169.54063714645162,19.04527122346204A170.6070045455344,170.6070045455344,0,0,0,169.8093658407819,16.47814530678413Z" fill-rule="evenodd" style="fill: #1DC690; stroke: #fff; opacity: 1;" id="p-type-logs"></path><path d="M195.76866499016901,21.991584935310485A197,197,0,0,1,195.4135536156021,24.950812878986742L169.23310167490385,21.608037798274463A170.6070045455344,170.6070045455344,0,0,0,169.54063714645162,19.04527122346204Z" fill-rule="evenodd" style="fill: #1DC690; stroke: #fff; opacity: 1;" id="p-type-logs"></path><path d="M195.4135536156021,24.950812878986742A197,197,0,0,1,195.01371331723215,27.904329739744544L168.88682981905873,24.165858430196387A170.6070045455344,170.6070045455344,0,0,0,169.23310167490385,21.608037798274463Z" fill-rule="evenodd" style="fill: #1DC690; stroke: #fff; opacity: 1;" id="p-type-logs"></path><path d="M195.01371331723215,27.904329739744544A197,197,0,0,1,194.56923561596915,30.8514594762952L168.50190083834926,26.718147650297794A170.6070045455344,170.6070045455344,0,0,0,168.88682981905873,24.165858430196387Z" fill-rule="evenodd" style="fill: #1DC690; stroke: #fff; opacity: 1;" id="p-type-logs"></path><path d="M194.56923561596915,30.8514594762952A197,197,0,0,1,194.08022224994158,33.79152750932225L168.07840284057926,29.264321255753767A170.6070045455344,170.6070045455344,0,0,0,168.50190083834926,26.718147650297794Z" fill-rule="evenodd" style="fill: #1DC690; stroke: #fff; opacity: 1;" id="p-type-logs"></path><path d="M194.08022224994158,33.79152750932225A197,197,0,0,1,193.54678515120935,36.72386087588843L167.61643276175607,31.803796443564824A170.6070045455344,170.6070045455344,0,0,0,168.07840284057926,29.264321255753767Z" fill-rule="evenodd" style="fill: #1DC690; stroke: #fff; opacity: 1;" id="p-type-logs"></path><path d="M193.54678515120935,36.72386087588843A197,197,0,0,1,192.96904642014317,39.64778838347258L167.11609634390257,34.33599194395681A170.6070045455344,170.6070045455344,0,0,0,167.61643276175607,31.803796443564824Z" fill-rule="evenodd" style="fill: #1DC690; stroke: #fff; opacity: 1;" id="p-type-logs"></path><path d="M192.96904642014317,39.64778838347258A197,197,0,0,1,192.34713829747668,42.56264076360139L166.5775081108535,36.8603281534299A170.6070045455344,170.6070045455344,0,0,0,167.11609634390257,34.33599194395681Z" fill-rule="evenodd" style="fill: #1DC690; stroke: #fff; opacity: 1;" id="p-type-logs"></path><path d="M192.34713829747668,42.56264076360139A197,197,0,0,1,191.68120313403713,45.4677508250407L166.0007913420415,39.37622726742612A170.6070045455344,170.6070045455344,0,0,0,166.5775081108535,36.8603281534299Z" fill-rule="evenodd" style="fill: #1DC690; stroke: #fff; opacity: 1;" id="p-type-logs"></path><path d="M191.68120313403713,45.4677508250407A197,197,0,0,1,190.97139335816252,48.362453606511366L165.38607804427954,41.88311341258519A170.6070045455344,170.6070045455344,0,0,0,166.0007913420415,39.37622726742612Z" fill-rule="evenodd" style="fill: #1DC690; stroke: #fff; opacity: 1;" id="p-type-logs"></path><path d="M190.97139335816252,48.362453606511366A197,197,0,0,1,190.2178714408114,51.24608652889464L164.7335089215451,44.38041277855826A170.6070045455344,170.6070045455344,0,0,0,165.38607804427954,41.88311341258519Z" fill-rule="evenodd" style="fill: #1DC690; stroke: #fff; opacity: 1;" id="p-type-logs"></path><path d="M190.2178714408114,51.24608652889464A197,197,0,0,1,189.42080985837447,54.117989546892346L164.0432333427741,46.86755374934947A170.6070045455344,170.6070045455344,0,0,0,164.7335089215451,44.38041277855826Z" fill-rule="evenodd" style="fill: #1DC690; stroke: #fff; opacity: 1;" id="p-type-logs"></path><path d="M189.42080985837447,54.117989546892346A197,197,0,0,1,188.58039105319585,56.97750530010709L163.31540930767127,49.343967034155234A170.6070045455344,170.6070045455344,0,0,0,164.0432333427741,46.86755374934947Z" fill-rule="evenodd" style="fill: #1DC690; stroke: #fff; opacity: 1;" id="p-type-logs"></path><path d="M188.58039105319585,56.97750530010709A197,197,0,0,1,187.69680739181308,59.82397926350789L162.55020341054492,51.8090857976713A170.6070045455344,170.6070045455344,0,0,0,163.31540930767127,49.343967034155234Z" fill-rule="evenodd" style="fill: #1DC690; stroke: #fff; opacity: 1;" id="p-type-logs"></path><path d="M187.69680739181308,59.82397926350789A197,197,0,0,1,186.7702611209257,62.65675989724674L161.74779080217473,54.262345789837724A170.6070045455344,170.6070045455344,0,0,0,162.55020341054492,51.8090857976713Z" fill-rule="evenodd" style="fill: #1DC690; stroke: #fff; opacity: 1;" id="p-type-logs"></path><path d="M186.7702611209257,62.65675989724674A197,197,0,0,1,185.80096432110224,65.47519879579202L160.90835514972065,56.70318547499218A170.6070045455344,170.6070045455344,0,0,0,161.74779080217473,54.262345789837724Z" fill-rule="evenodd" style="fill: #1DC690; stroke: #fff; opacity: 1;" id="p-type-logs"></path><path d="M185.80096432110224,65.47519879579202A197,197,0,0,1,184.78913885823636,68.27865083634444L160.03208859468285,59.13104616040189A170.6070045455344,170.6070045455344,0,0,0,160.90835514972065,56.70318547499218Z" fill-rule="evenodd" style="fill: #1DC690; stroke: #fff; opacity: 1;" id="p-type-logs"></path><path d="M184.78913885823636,68.27865083634444A197,197,0,0,1,183.73501633276308,71.0664743265014L159.11919170892156,61.54537212414482A170.6070045455344,170.6070045455344,0,0,0,160.03208859468285,59.13104616040189Z" fill-rule="evenodd" style="fill: #1DC690; stroke: #fff; opacity: 1;" id="p-type-logs"></path><path d="M183.73501633276308,71.0664743265014A197,197,0,0,1,182.638838026647,73.83803115113653L158.16987344874764,63.94561074231098A170.6070045455344,170.6070045455344,0,0,0,159.11919170892156,61.54537212414482Z" fill-rule="evenodd" style="fill: #1DC690; stroke: #fff; opacity: 1;" id="p-type-logs"></path><path d="M182.638838026647,73.83803115113653A197,197,0,0,1,181.50085484815426,76.59268691846007L157.18435110709356,66.33121261549448A170.6070045455344,170.6070045455344,0,0,0,158.16987344874764,63.94561074231098Z" fill-rule="evenodd" style="fill: #1DC690; stroke: #fff; opacity: 1;" id="p-type-logs"></path><path d="M181.50085484815426,76.59268691846007A197,197,0,0,1,180.3213272744214,79.32981110522711L156.1628502637767,68.70163169454754A170.6070045455344,170.6070045455344,0,0,0,157.18435110709356,66.33121261549448Z" fill-rule="evenodd" style="fill: #1DC690; stroke: #fff; opacity: 1;" id="p-type-logs"></path><path d="M180.3213272744214,79.32981110522711A197,197,0,0,1,179.1005252918337,82.04877720106037L155.10560473386533,71.05632540556776A170.6070045455344,170.6070045455344,0,0,0,156.1628502637767,68.70163169454754Z" fill-rule="evenodd" style="fill: #1DC690; stroke: #fff; opacity: 1;" id="p-type-logs"></path><path d="M179.1005252918337,82.04877720106037A197,197,0,0,1,177.8387283342269,84.74896285185469L154.01285651415992,73.39475477408983A170.6070045455344,170.6070045455344,0,0,0,155.10560473386533,71.05632540556776Z" fill-rule="evenodd" style="fill: #1DC690; stroke: #fff; opacity: 1;" id="p-type-logs"></path><path d="M177.8387283342269,84.74896285185469A197,197,0,0,1,176.5362252189268,87.4297500022295L152.8848557278017,75.71638454845333A170.6070045455344,170.6070045455344,0,0,0,154.01285651415992,73.39475477408983Z" fill-rule="evenodd" style="fill: #1DC690; stroke: #fff; opacity: 1;" id="p-type-logs"></path><path d="M176.5362252189268,87.4297500022295A197,197,0,0,1,175.19331408064068,90.09052503699817L151.7218605670208,78.02068332231842A170.6070045455344,170.6070045455344,0,0,0,152.8848557278017,75.71638454845333Z" fill-rule="evenodd" style="fill: #1DC690; stroke: #fff; opacity: 1;" id="p-type-logs"></path><path d="M175.19331408064068,90.09052503699817A197,197,0,0,1,173.81030230321605,92.73067892162041L150.52413723403802,80.30712365630146A170.6070045455344,170.6070045455344,0,0,0,151.7218605670208,78.02068332231842Z" fill-rule="evenodd" style="fill: #1DC690; stroke: #fff; opacity: 1;" id="p-type-logs"></path><path d="M173.81030230321605,92.73067892162041A197,197,0,0,1,172.3875064492826,95.34960734160654L149.29195988013248,82.57518219870248A170.6070045455344,170.6070045455344,0,0,0,150.52413723403802,80.30712365630146Z" fill-rule="evenodd" style="fill: #1DC690; stroke: #fff; opacity: 1;" id="p-type-logs"></path><path d="M172.3875064492826,95.34960734160654A197,197,0,0,1,170.92525218779303,97.94671084084118L148.02561054289046,84.82433980529713A170.6070045455344,170.6070045455344,0,0,0,149.29195988013248,82.57518219870248Z" fill-rule="evenodd" style="fill: #1DC690; stroke: #fff; opacity: 1;" id="p-type-logs"></path><path d="M170.92525218779303,97.94671084084118A197,197,0,0,1,169.42387421947933,100.52139495879496L146.72537908164853,87.05408165816544A170.6070045455344,170.6070045455344,0,0,0,148.02561054289046,84.82433980529713Z" fill-rule="evenodd" style="fill: #1DC690; stroke: #fff; opacity: 1;" id="p-type-logs"></path><path d="M169.42387421947933,100.52139495879496A197,197,0,0,1,167.88371620024205,103.07307036659279L145.39156311114672,89.26389738353038A170.6070045455344,170.6070045455344,0,0,0,146.72537908164853,87.05408165816544Z" fill-rule="evenodd" style="fill: #1DC690; stroke: #fff; opacity: 1;" id="p-type-logs"></path><path d="M167.88371620024205,103.07307036659279A197,197,0,0,1,166.30513066248955,105.60115300190752L144.02446793340633,91.45328116857924A170.6070045455344,170.6070045455344,0,0,0,145.39156311114672,89.26389738353038Z" fill-rule="evenodd" style="fill: #1DC690; stroke: #fff; opacity: 1;" id="p-type-logs"></path><path d="M166.30513066248955,105.60115300190752A197,197,0,0,1,164.68847893444564,108.10506420264802L142.6244064678483,93.62173187724092A170.6070045455344,170.6070045455344,0,0,0,144.02446793340633,91.45328116857924Z" fill-rule="evenodd" style="fill: #1DC690; stroke: #fff; opacity: 1;" id="p-type-logs"></path><path d="M164.68847893444564,108.10506420264802A197,197,0,0,1,163.0341310574438,110.58423083941143L141.19169917966786,95.76875316489286A170.6070045455344,170.6070045455344,0,0,0,142.6244064678483,93.62173187724092Z" fill-rule="evenodd" style="fill: #1DC690; stroke: #fff; opacity: 1;" id="p-type-logs"></path><path d="M163.0341310574438,110.58423083941143A197,197,0,0,1,161.3424657012271,113.03808544666863L139.72667400648214,97.89385359197108A170.6070045455344,170.6070045455344,0,0,0,141.19169917966786,95.76875316489286Z" fill-rule="evenodd" style="fill: #1DC690; stroke: #fff; opacity: 1;" id="p-type-logs"></path><path d="M161.3424657012271,113.03808544666863A197,197,0,0,1,159.613870077273,115.46606635265366L138.22966628326728,99.99654673645766A170.6070045455344,170.6070045455344,0,0,0,139.72667400648214,97.89385359197108Z" fill-rule="evenodd" style="fill: #1DC690; stroke: #fff; opacity: 1;" id="p-type-logs"></path><path d="M76.69262414106643,181.45864929056734A197,197,0,0,1,73.93859545564791,182.59814922951998L64.03270198473174,158.1346359167862A170.6070045455344,170.6070045455344,0,0,0,66.41776078905525,157.14780002204242Z" fill-rule="evenodd" style="fill: #D7A449; stroke: #fff; opacity: 1;" id="p-type-tokenTransfers"></path><path d="M73.93859545564791,182.59814922951998A197,197,0,0,1,71.16764269438588,183.69585360950373L61.632986500792185,159.08527579569758A170.6070045455344,170.6070045455344,0,0,0,64.03270198473174,158.1346359167862Z" fill-rule="evenodd" style="fill: #D7A449; stroke: #fff; opacity: 1;" id="p-type-tokenTransfers"></path><path d="M71.16764269438588,183.69585360950373A197,197,0,0,1,68.38040011080386,184.7515111729438L59.21916361690038,159.9995020633339A170.6070045455344,170.6070045455344,0,0,0,61.632986500792185,159.08527579569758Z" fill-rule="evenodd" style="fill: #D7A449; stroke: #fff; opacity: 1;" id="p-type-tokenTransfers"></path><path d="M68.38040011080386,184.7515111729438A197,197,0,0,1,65.57750568706243,185.7648802865151L56.79178584181456,160.87710545909715A170.6070045455344,170.6070045455344,0,0,0,59.21916361690038,159.9995020633339Z" fill-rule="evenodd" style="fill: #D7A449; stroke: #fff; opacity: 1;" id="p-type-tokenTransfers"></path><path d="M65.57750568706243,185.7648802865151A197,197,0,0,1,62.75960098792915,186.73572899645083L54.351408786921596,161.71788510513284A170.6070045455344,170.6070045455344,0,0,0,56.79178584181456,160.87710545909715Z" fill-rule="evenodd" style="fill: #D7A449; stroke: #fff; opacity: 1;" id="p-type-tokenTransfers"></path><path d="M62.75960098792915,186.73572899645083A197,197,0,0,1,59.927331013928516,187.66383508163486L51.89859103906115,162.5216485523091A170.6070045455344,170.6070045455344,0,0,0,54.351408786921596,161.71788510513284Z" fill-rule="evenodd" style="fill: #D7A449; stroke: #fff; opacity: 1;" id="p-type-tokenTransfers"></path><path d="M59.927331013928516,187.66383508163486A197,197,0,0,1,57.08134405370535,188.54898610446708L49.43389403266864,163.2882118242676A170.6070045455344,170.6070045455344,0,0,0,51.89859103906115,162.5216485523091Z" fill-rule="evenodd" style="fill: #D7A449; stroke: #fff; opacity: 1;" id="p-type-tokenTransfers"></path><path d="M57.08134405370535,188.54898610446708A197,197,0,0,1,54.22229153563571,189.39097945948885L46.95788192126646,164.01739945953415A170.6070045455344,170.6070045455344,0,0,0,49.43389403266864,163.2882118242676Z" fill-rule="evenodd" style="fill: #D7A449; stroke: #fff; opacity: 1;" id="p-type-tokenTransfers"></path><path d="M54.22229153563571,189.39097945948885A197,197,0,0,1,51.35082787871901,190.18962241975817L44.47112144833284,164.709044551681A170.6070045455344,170.6070045455344,0,0,0,46.95788192126646,164.01739945953415Z" fill-rule="evenodd" style="fill: #D7A449; stroke: #fff; opacity: 1;" id="p-type-tokenTransfers"></path><path d="M51.35082787871901,190.18962241975817A197,197,0,0,1,48.46761034278566,190.94473218096354L41.97418181757779,165.36298878753044A170.6070045455344,170.6070045455344,0,0,0,44.47112144833284,164.709044551681Z" fill-rule="evenodd" style="fill: #D7A449; stroke: #fff; opacity: 1;" id="p-type-tokenTransfers"></path><path d="M48.46761034278566,190.94473218096354A197,197,0,0,1,45.57329887805453,191.65613590326691L39.46763456265608,165.97908248339198A170.6070045455344,170.6070045455344,0,0,0,41.97418181757779,165.36298878753044Z" fill-rule="evenodd" style="fill: #D7A449; stroke: #fff; opacity: 1;" id="p-type-tokenTransfers"></path><path d="M45.57329887805453,191.65613590326691A197,197,0,0,1,42.66855597407441,192.3236707508654L36.952053416346715,166.55718461932364A170.6070045455344,170.6070045455344,0,0,0,39.46763456265608,165.97908248339198Z" fill-rule="evenodd" style="fill: #D7A449; stroke: #fff; opacity: 1;" id="p-type-tokenTransfers"></path><path d="M42.66855597407441,192.3236707508654A197,197,0,0,1,39.75404650808446,192.94718392926356L34.428014179229194,167.0971628714108A170.6070045455344,170.6070045455344,0,0,0,36.952053416346715,166.55718461932364Z" fill-rule="evenodd" style="fill: #D7A449; stroke: #fff; opacity: 1;" id="p-type-tokenTransfers"></path><path d="M39.75404650808446,192.94718392926356A197,197,0,0,1,36.83043759282796,193.5265327202469L31.896094587886402,167.5988936420542A170.6070045455344,170.6070045455344,0,0,0,34.428014179229194,167.0971628714108Z" fill-rule="evenodd" style="fill: #D7A449; stroke: #fff; opacity: 1;" id="p-type-tokenTransfers"></path><path d="M36.83043759282796,193.5265327202469A197,197,0,0,1,33.89839842385446,194.06158451454948L29.356874182664335,168.06226208826067A170.6070045455344,170.6070045455344,0,0,0,31.896094587886402,167.5988936420542Z" fill-rule="evenodd" style="fill: #D7A449; stroke: #fff; opacity: 1;" id="p-type-tokenTransfers"></path><path d="M33.89839842385446,194.06158451454948A197,197,0,0,1,30.958600126345136,194.55221684220683L26.810934175019018,168.48716214792984A170.6070045455344,170.6070045455344,0,0,0,29.356874182664335,168.06226208826067Z" fill-rule="evenodd" style="fill: #D7A449; stroke: #fff; opacity: 1;" id="p-type-tokenTransfers"></path><path d="M30.958600126345136,194.55221684220683A197,197,0,0,1,28.01171560149652,194.99831740058906L24.258857314480885,168.87349656413127A170.6070045455344,170.6070045455344,0,0,0,26.810934175019018,168.48716214792984Z" fill-rule="evenodd" style="fill: #D7A449; stroke: #fff; opacity: 1;" id="p-type-tokenTransfers"></path><path d="M28.01171560149652,194.99831740058906A197,197,0,0,1,25.058419372497667,195.39978408010597L21.70122775526709,169.2211769073659A170.6070045455344,170.6070045455344,0,0,0,24.258857314480885,168.87349656413127Z" fill-rule="evenodd" style="fill: #D7A449; stroke: #fff; opacity: 1;" id="p-type-tokenTransfers"></path><path d="M25.058419372497667,195.39978408010597A197,197,0,0,1,22.09938743013606,195.75652498757927L19.13863092257233,169.53012359580688A170.6070045455344,170.6070045455344,0,0,0,21.70122775526709,169.2211769073659Z" fill-rule="evenodd" style="fill: #D7A449; stroke: #fff; opacity: 1;" id="p-type-tokenTransfers"></path><path d="M22.09938743013606,195.75652498757927A197,197,0,0,1,19.13529707806762,196.0684584672764L16.571653378568698,169.8002659135155A170.6070045455344,170.6070045455344,0,0,0,19.13863092257233,169.53012359580688Z" fill-rule="evenodd" style="fill: #D7A449; stroke: #fff; opacity: 1;" id="p-type-tokenTransfers"></path><path d="M19.13529707806762,196.0684584672764A197,197,0,0,1,16.166826777786188,196.3355131196011L14.000882688145358,170.03154202662748A170.6070045455344,170.6070045455344,0,0,0,16.571653378568698,169.8002659135155Z" fill-rule="evenodd" style="fill: #D7A449; stroke: #fff; opacity: 1;" id="p-type-tokenTransfers"></path><path d="M16.166826777786188,196.3355131196011A197,197,0,0,1,13.194655993327991,196.5576278174361L11.426907284418638,170.2238989975065A170.6070045455344,170.6070045455344,0,0,0,14.000882688145358,170.03154202662748Z" fill-rule="evenodd" style="fill: #D7A449; stroke: #fff; opacity: 1;" id="p-type-tokenTransfers"></path><path d="M13.194655993327991,196.5576278174361A197,197,0,0,1,10.219465035746628,196.73475172013497L8.850316334043425,170.37729279686116A170.6070045455344,170.6070045455344,0,0,0,11.426907284418638,170.2238989975065Z" fill-rule="evenodd" style="fill: #D7A449; stroke: #fff; opacity: 1;" id="p-type-tokenTransfers"></path><path d="M10.219465035746628,196.73475172013497A197,197,0,0,1,7.24193490739418,196.86684428515906L6.271699602356666,170.4916883138231A170.6070045455344,170.6070045455344,0,0,0,8.850316334043425,170.37729279686116Z" fill-rule="evenodd" style="fill: #D7A449; stroke: #fff; opacity: 1;" id="p-type-tokenTransfers"></path><path d="M7.24193490739418,196.86684428515906A197,197,0,0,1,4.262747146044092,196.9538752773575L3.691647318383799,170.56705936398347A170.6070045455344,170.6070045455344,0,0,0,6.271699602356666,170.4916883138231Z" fill-rule="evenodd" style="fill: #D7A449; stroke: #fff; opacity: 1;" id="p-type-tokenTransfers"></path><path d="M4.262747146044092,196.9538752773575A197,197,0,0,1,1.2825836688914987,196.9958247758878L1.1107500397390868,170.60338869538674A170.6070045455344,170.6070045455344,0,0,0,3.691647318383799,170.56705936398347Z" fill-rule="evenodd" style="fill: #D7A449; stroke: #fff; opacity: 1;" id="p-type-tokenTransfers"></path><path d="M1.2825836688914987,196.9958247758878A197,197,0,0,1,-1.6978733835333086,196.99268317877568L-1.4704014825492846,170.6006679924792A170.6070045455344,170.6070045455344,0,0,0,1.1107500397390868,170.60338869538674Z" fill-rule="evenodd" style="fill: #D7A449; stroke: #fff; opacity: 1;" id="p-type-tokenTransfers"></path><path d="M-1.6978733835333086,196.99268317877568A197,197,0,0,1,-4.677941803502516,196.94445120511276L-4.051216439258371,170.55889787801246A170.6070045455344,170.6070045455344,0,0,0,-1.4704014825492846,170.6006679924792Z" fill-rule="evenodd" style="fill: #D7A449; stroke: #fff; opacity: 1;" id="p-type-tokenTransfers"></path><path d="M-93.41960324332783,173.4409920689432A197,197,0,0,1,-128.92498608184474,148.95418075299577L-111.65231312943273,128.99810453199342A170.6070045455344,170.6070045455344,0,0,0,-80.90374962018504,150.20430518928012Z" fill-rule="evenodd" style="fill: #414552; stroke: #fff; opacity: 1;" id="p-type-ether"></path><path d="M-128.92498608184474,148.95418075299577A197,197,0,0,1,-135.21992438829807,143.26399424985667L-117.10388961807709,124.0702584680036A170.6070045455344,170.6070045455344,0,0,0,-111.65231312943273,128.99810453199342Z" fill-rule="evenodd" style="fill: #414552; stroke: #fff; opacity: 1;" id="p-type-ether"></path><path d="M-135.21992438829807,143.26399424985667A197,197,0,0,1,-136.08720501917034,142.4404178246831L-117.85497667662267,123.35702036184531A170.6070045455344,170.6070045455344,0,0,0,-117.10388961807709,124.0702584680036Z" fill-rule="evenodd" style="fill: #414552; stroke: #fff; opacity: 1;" id="p-type-ether"></path><path d="M-136.08720501917034,142.4404178246831A197,197,0,0,1,-136.86949909763354,141.68888529719925L-118.53246322180195,122.706174101274A170.6070045455344,170.6070045455344,0,0,0,-117.85497667662267,123.35702036184531Z" fill-rule="evenodd" style="fill: #414552; stroke: #fff; opacity: 1;" id="p-type-ether"></path></g></svg>