<svg xmlns="http://www.w3.org/2000/svg" width="400" height="400" id="block-7907922"><g id="burst-container" transform="translate(200,200)"><circle r="197" style="fill: #f9f9f9; stroke: #f9f9f9; stroke-width: 3; opacity: 1;" id="circle-base"></circle><path display="none" d="M6.031385485800715e-15,-98.5A98.5,98.5,0,1,1,-6.031385485800715e-15,98.5A98.5,98.5,0,1,1,6.031385485800715e-15,-98.5Z" fill-rule="evenodd" id="p-type-root" style="stroke: #fff; opacity: 1;"></path><path d="M8.529667153919608e-15,-139.30003589374985A139.30003589374985,139.30003589374985,0,1,1,-110.76984455211372,-84.46621536389895L-78.32610823377937,-59.726633664976305A98.5,98.5,0,1,0,6.031385485800715e-15,-98.5Z" fill-rule="evenodd" style="fill: #0B1F65; stroke: #fff; opacity: 1;" id="p-type-data"></path><path d="M-110.76984455211372,-84.46621536389895A139.30003589374985,139.30003589374985,0,0,1,-3.012969255749375,-139.26744779834198L-2.1304909922469686,-98.47695673675113A98.5,98.5,0,0,0,-78.32610823377937,-59.726633664976305Z" fill-rule="evenodd" style="fill: #D7A449; stroke: #fff; opacity: 1;" id="p-type-value"></path><path d="M1.0446666101440332e-14,-170.6070045455344A170.6070045455344,170.6070045455344,0,0,1,169.78934847285265,-16.68313954758526L138.63242250603042,-13.621726399743494A139.30003589374985,139.30003589374985,0,0,0,8.529667153919608e-15,-139.30003589374985Z" fill-rule="evenodd" style="fill: #DB3F29; stroke: #fff; opacity: 1;" id="p-type-functions"></path><path d="M169.78934847285265,-16.68313954758526A170.6070045455344,170.6070045455344,0,0,1,47.8615613740585,163.75597986894167L39.07880121978128,133.7061976694604A139.30003589374985,139.30003589374985,0,0,0,138.63242250603042,-13.621726399743494Z" fill-rule="evenodd" style="fill: #1DC690; stroke: #fff; opacity: 1;" id="p-type-logs"></path><path d="M47.8615613740585,163.75597986894167A170.6070045455344,170.6070045455344,0,0,1,-136.84163650725057,101.8877643194584L-111.73072833672478,83.19101120520773A139.30003589374985,139.30003589374985,0,0,0,39.07880121978128,133.7061976694604Z" fill-rule="evenodd" style="fill: #D7A449; stroke: #fff; opacity: 1;" id="p-type-tokenTransfers"></path><path d="M-136.84163650725057,101.8877643194584A170.6070045455344,170.6070045455344,0,0,1,-162.97255078297798,50.464816370315454L-133.0665304993717,41.2043500235081A139.30003589374985,139.30003589374985,0,0,0,-111.73072833672478,83.19101120520773Z" fill-rule="evenodd" style="fill: #414552; stroke: #fff; opacity: 1;" id="p-type-ether"></path><path d="M-135.66479902004482,-103.4495640727927A170.6070045455344,170.6070045455344,0,0,1,-50.879603946731464,-162.8435319631202L-41.54302266146307,-132.9611870740825A139.30003589374985,139.30003589374985,0,0,0,-110.76984455211372,-84.46621536389895Z" fill-rule="evenodd" style="fill: #D7A449; stroke: #fff; opacity: 1;" id="p-type-tokenTransfers"></path><path d="M-50.879603946731464,-162.8435319631202A170.6070045455344,170.6070045455344,0,0,1,-7.378510741587555,-170.44737480887252L-6.024528792844738,-139.16969875955104A139.30003589374985,139.30003589374985,0,0,0,-41.54302266146307,-132.9611870740825Z" fill-rule="evenodd" style="fill: #414552; stroke: #fff; opacity: 1;" id="p-type-ether"></path><path d="M1.206277097160143e-14,-197A197,197,0,0,1,2.1306156058818218,-196.988478031432L1.845167240393231,-170.59702622805293A170.6070045455344,170.6070045455344,0,0,0,1.0446666101440332e-14,-170.6070045455344Z" fill-rule="evenodd" style="fill: #DB3F29; stroke: #fff; opacity: 1;" id="p-type-functions"></path><path d="M2.1306156058818218,-196.988478031432A197,197,0,0,1,4.26098198449422,-196.95391347350224L3.690118643639825,-170.56709244281518A170.6070045455344,170.6070045455344,0,0,0,1.845167240393231,-170.59702622805293Z" fill-rule="evenodd" style="fill: #DB3F29; stroke: #fff; opacity: 1;" id="p-type-functions"></path><path d="M4.26098198449422,-196.95391347350224A197,197,0,0,1,6.390849937720846,-196.89631036937573L5.53463839784045,-170.51720669130475A170.6070045455344,170.6070045455344,0,0,0,3.690118643639825,-170.56709244281518Z" fill-rule="evenodd" style="fill: #DB3F29; stroke: #fff; opacity: 1;" id="p-type-functions"></path><path d="M6.390849937720846,-196.89631036937573A197,197,0,0,1,8.51997032574848,-196.8156754571352L7.378510741587762,-170.44737480887252A170.6070045455344,170.6070045455344,0,0,0,5.53463839784045,-170.51720669130475Z" fill-rule="evenodd" style="fill: #DB3F29; stroke: #fff; opacity: 1;" id="p-type-functions"></path><path d="M8.51997032574848,-196.8156754571352A197,197,0,0,1,10.648094096209638,-196.7120181689931L9.22151998920465,-170.35760496405408A170.6070045455344,170.6070045455344,0,0,0,7.378510741587762,-170.44737480887252Z" fill-rule="evenodd" style="fill: #DB3F29; stroke: #fff; opacity: 1;" id="p-type-functions"></path><path d="M10.648094096209638,-196.7120181689931A197,197,0,0,1,12.774972313315615,-196.58535063018815L11.06345055597418,-170.24790765761415A170.6070045455344,170.6070045455344,0,0,0,9.22151998920465,-170.35760496405408Z" fill-rule="evenodd" style="fill: #DB3F29; stroke: #fff; opacity: 1;" id="p-type-functions"></path><path d="M12.774972313315615,-196.58535063018815A197,197,0,0,1,14.90035618697543,-196.43568765756712L12.904086983357354,-170.11829572131842A170.6070045455344,170.6070045455344,0,0,0,11.06345055597418,-170.24790765761415Z" fill-rule="evenodd" style="fill: #DB3F29; stroke: #fff; opacity: 1;" id="p-type-functions"></path><path d="M14.90035618697543,-196.43568765756712A197,197,0,0,1,17.023997101897763,-196.26304675785144L14.743213964196123,-169.96878431643245A170.6070045455344,170.6070045455344,0,0,0,12.904086983357354,-170.11829572131842Z" fill-rule="evenodd" style="fill: #DB3F29; stroke: #fff; opacity: 1;" id="p-type-functions"></path><path d="M17.023997101897763,-196.26304675785144A197,197,0,0,1,19.145646646672787,-196.06744812558955L16.580616367898987,-169.79939093194815A170.6070045455344,170.6070045455344,0,0,0,14.743213964196123,-169.96878431643245Z" fill-rule="evenodd" style="fill: #DB3F29; stroke: #fff; opacity: 1;" id="p-type-functions"></path><path d="M19.145646646672787,-196.06744812558955A197,197,0,0,1,21.26505664282982,-195.84891464079456L18.416079265605653,-169.61013538253818A170.6070045455344,170.6070045455344,0,0,0,16.580616367898987,-169.79939093194815Z" fill-rule="evenodd" style="fill: #DB3F29; stroke: #fff; opacity: 1;" id="p-type-functions"></path><path d="M21.26505664282982,-195.84891464079456A197,197,0,0,1,23.381979173867666,-195.60747186626799L20.24938795532808,-169.40103980623795A170.6070045455344,170.6070045455344,0,0,0,18.416079265605653,-169.61013538253818Z" fill-rule="evenodd" style="fill: #DB3F29; stroke: #fff; opacity: 1;" id="p-type-functions"></path><path d="M23.381979173867666,-195.60747186626799A197,197,0,0,1,25.496166614254815,-195.34314804460934L22.08032798706535,-169.17212866185616A170.6070045455344,170.6070045455344,0,0,0,20.24938795532808,-169.40103980623795Z" fill-rule="evenodd" style="fill: #DB3F29; stroke: #fff; opacity: 1;" id="p-type-functions"></path><path d="M25.496166614254815,-195.34314804460934A197,197,0,0,1,27.60737165839487,-195.0559740949127L23.908685187888484,-168.92342872611377A170.6070045455344,170.6070045455344,0,0,0,22.08032798706535,-169.17212866185616Z" fill-rule="evenodd" style="fill: #DB3F29; stroke: #fff; opacity: 1;" id="p-type-functions"></path><path d="M27.60737165839487,-195.0559740949127A197,197,0,0,1,29.715347349555312,-194.74598360914987L25.734245686993486,-168.65496909051168A170.6070045455344,170.6070045455344,0,0,0,23.908685187888484,-168.92342872611377Z" fill-rule="evenodd" style="fill: #DB3F29; stroke: #fff; opacity: 1;" id="p-type-functions"></path><path d="M29.715347349555312,-194.74598360914987A197,197,0,0,1,31.819847108754892,-194.41321284824102L27.55679594071856,-168.36678115792793A170.6070045455344,170.6070045455344,0,0,0,25.734245686993486,-168.65496909051168Z" fill-rule="evenodd" style="fill: #DB3F29; stroke: #fff; opacity: 1;" id="p-type-functions"></path><path d="M31.819847108754892,-194.41321284824102A197,197,0,0,1,33.920624763606966,-194.05770073781295L29.376122757523152,-168.0588986389442A170.6070045455344,170.6070045455344,0,0,0,27.55679594071856,-168.36678115792793Z" fill-rule="evenodd" style="fill: #DB3F29; stroke: #fff; opacity: 1;" id="p-type-functions"></path><path d="M33.920624763606966,-194.05770073781295A197,197,0,0,1,36.01743457711561,-193.67948886364607L31.192013322926147,-167.73135754790277A170.6070045455344,170.6070045455344,0,0,0,29.376122757523152,-168.0588986389442Z" fill-rule="evenodd" style="fill: #DB3F29; stroke: #fff; opacity: 1;" id="p-type-functions"></path><path d="M36.01743457711561,-193.67948886364607A197,197,0,0,1,38.11003127642017,-193.2786214668096L33.004255224399365,-167.38419619869345A170.6070045455344,170.6070045455344,0,0,0,31.192013322926147,-167.73135754790277Z" fill-rule="evenodd" style="fill: #DB3F29; stroke: #fff; opacity: 1;" id="p-type-functions"></path><path d="M38.11003127642017,-193.2786214668096A197,197,0,0,1,40.19817008148624,-192.8551454384868L34.812636476214664,-167.01745520027217A170.6070045455344,170.6070045455344,0,0,0,33.004255224399365,-167.38419619869345Z" fill-rule="evenodd" style="fill: #DB3F29; stroke: #fff; opacity: 1;" id="p-type-functions"></path><path d="M40.19817008148624,-192.8551454384868A197,197,0,0,1,42.28160673373846,-192.40911031448974L36.616945544240686,-166.63117745191056A170.6070045455344,170.6070045455344,0,0,0,34.812636476214664,-167.01745520027217Z" fill-rule="evenodd" style="fill: #DB3F29; stroke: #fff; opacity: 1;" id="p-type-functions"></path><path d="M42.28160673373846,-192.40911031448974A197,197,0,0,1,44.360097524632344,-191.94056826946488L38.4169713706868,-166.22540813817793A170.6070045455344,170.6070045455344,0,0,0,36.616945544240686,-166.63117745191056Z" fill-rule="evenodd" style="fill: #DB3F29; stroke: #fff; opacity: 1;" id="p-type-functions"></path><path d="M44.360097524632344,-191.94056826946488A197,197,0,0,1,46.43339932416226,-191.44957411079005L40.212503398791696,-165.80019472365575A170.6070045455344,170.6070045455344,0,0,0,38.4169713706868,-166.22540813817793Z" fill-rule="evenodd" style="fill: #DB3F29; stroke: #fff; opacity: 1;" id="p-type-functions"></path><path d="M46.43339932416226,-191.44957411079005A197,197,0,0,1,48.50126960930117,-190.93618527216333L42.00333159745296,-165.35558694738563A170.6070045455344,170.6070045455344,0,0,0,40.212503398791696,-165.80019472365575Z" fill-rule="evenodd" style="fill: #DB3F29; stroke: #fff; opacity: 1;" id="p-type-functions"></path><path d="M48.50126960930117,-190.93618527216333A197,197,0,0,1,50.56346649236953,-190.40046180688486L43.78924648579525,-164.89163681705105A170.6070045455344,170.6070045455344,0,0,0,42.00333159745296,-165.35558694738563Z" fill-rule="evenodd" style="fill: #DB3F29; stroke: #fff; opacity: 1;" id="p-type-functions"></path><path d="M50.56346649236953,-190.40046180688486A197,197,0,0,1,52.61974874933017,-189.8424663808321L45.570039157674366,-164.40839860289384A170.6070045455344,170.6070045455344,0,0,0,43.78924648579525,-164.89163681705105Z" fill-rule="evenodd" style="fill: #DB3F29; stroke: #fff; opacity: 1;" id="p-type-functions"></path><path d="M52.61974874933017,-189.8424663808321A197,197,0,0,1,54.66987584800504,-189.2622642651295L47.3455013061137,-163.90592883136588A170.6070045455344,170.6070045455344,0,0,0,45.570039157674366,-164.40839860289384Z" fill-rule="evenodd" style="fill: #DB3F29; stroke: #fff; opacity: 1;" id="p-type-functions"></path><path d="M54.66987584800504,-189.2622642651295A197,197,0,0,1,56.713607976211556,-188.6599233285135L49.11542524767097,-163.38428627851712A170.6070045455344,170.6070045455344,0,0,0,47.3455013061137,-163.90592883136588Z" fill-rule="evenodd" style="fill: #DB3F29; stroke: #fff; opacity: 1;" id="p-type-functions"></path><path d="M56.713607976211556,-188.6599233285135A197,197,0,0,1,58.750706069814186,-188.03551402939365L50.8796039467317,-162.8435319631201A170.6070045455344,170.6070045455344,0,0,0,49.11542524767097,-163.38428627851712Z" fill-rule="evenodd" style="fill: #DB3F29; stroke: #fff; opacity: 1;" id="p-type-functions"></path><path d="M58.750706069814186,-188.03551402939365A197,197,0,0,1,60.78093184068909,-187.38910940761073L52.63783103972722,-162.28372913953243A170.6070045455344,170.6070045455344,0,0,0,50.8796039467317,-162.8435319631201Z" fill-rule="evenodd" style="fill: #DB3F29; stroke: #fff; opacity: 1;" id="p-type-functions"></path><path d="M60.78093184068909,-187.38910940761073A197,197,0,0,1,62.80404780459747,-186.72078507589305L54.38990085927371,-161.70494329029765A170.6070045455344,170.6070045455344,0,0,0,52.63783103972722,-162.28372913953243Z" fill-rule="evenodd" style="fill: #DB3F29; stroke: #fff; opacity: 1;" id="p-type-functions"></path><path d="M62.80404780459747,-186.72078507589305A197,197,0,0,1,64.8198173089653,-186.0306192110115L56.135608458230216,-161.10724211848537A170.6070045455344,170.6070045455344,0,0,0,54.38990085927371,-161.70494329029765Z" fill-rule="evenodd" style="fill: #DB3F29; stroke: #fff; opacity: 1;" id="p-type-functions"></path><path d="M64.8198173089653,-186.0306192110115A197,197,0,0,1,66.8280045605654,-185.31869254463527L57.87474963367196,-160.490695539772A170.6070045455344,170.6070045455344,0,0,0,56.135608458230216,-161.10724211848537Z" fill-rule="evenodd" style="fill: #DB3F29; stroke: #fff; opacity: 1;" id="p-type-functions"></path><path d="M66.8280045605654,-185.31869254463527A197,197,0,0,1,68.82837465309947,-184.5850883538878L59.60712095077709,-159.85537567426198A170.6070045455344,170.6070045455344,0,0,0,57.87474963367196,-160.490695539772Z" fill-rule="evenodd" style="fill: #DB3F29; stroke: #fff; opacity: 1;" id="p-type-functions"></path><path d="M68.82837465309947,-184.5850883538878A197,197,0,0,1,70.82069359467575,-183.82989245160607L61.33251976662307,-159.20135683805205A170.6070045455344,170.6070045455344,0,0,0,59.60712095077709,-159.85537567426198Z" fill-rule="evenodd" style="fill: #DB3F29; stroke: #fff; opacity: 1;" id="p-type-functions"></path><path d="M70.82069359467575,-183.82989245160607A197,197,0,0,1,72.80472833518039,-183.0531931763021L63.050744253890954,-158.5287155345379A170.6070045455344,170.6070045455344,0,0,0,61.33251976662307,-159.20135683805205Z" fill-rule="evenodd" style="fill: #DB3F29; stroke: #fff; opacity: 1;" id="p-type-functions"></path><path d="M72.80472833518039,-183.0531931763021A197,197,0,0,1,74.780246793538,-182.2550813818302L64.76159342447372,-157.8375304454652A170.6070045455344,170.6070045455344,0,0,0,63.050744253890954,-158.5287155345379Z" fill-rule="evenodd" style="fill: #DB3F29; stroke: #fff; opacity: 1;" id="p-type-functions"></path><path d="M74.780246793538,-182.2550813818302A197,197,0,0,1,76.74701788485949,-181.4356504267589L66.46486715298697,-157.12788242172613A170.6070045455344,170.6070045455344,0,0,0,64.76159342447372,-157.8375304454652Z" fill-rule="evenodd" style="fill: #DB3F29; stroke: #fff; opacity: 1;" id="p-type-functions"></path><path d="M76.74701788485949,-181.4356504267589A197,197,0,0,1,78.70481154747274,-180.5949961634508L68.16036620017823,-156.3998544739016A170.6070045455344,170.6070045455344,0,0,0,66.46486715298697,-157.12788242172613Z" fill-rule="evenodd" style="fill: #DB3F29; stroke: #fff; opacity: 1;" id="p-type-functions"></path><path d="M78.70481154747274,-180.5949961634508A197,197,0,0,1,80.6533987698343,-179.73321692684993L69.84789223623308,-155.6535317625513A170.6070045455344,170.6070045455344,0,0,0,68.16036620017823,-156.3998544739016Z" fill-rule="evenodd" style="fill: #DB3F29; stroke: #fff; opacity: 1;" id="p-type-functions"></path><path d="M80.6533987698343,-179.73321692684993A197,197,0,0,1,82.59255161731733,-178.85041352297952L71.52724786397432,-154.88900158825214A170.6070045455344,170.6070045455344,0,0,0,69.84789223623308,-155.6535317625513Z" fill-rule="evenodd" style="fill: #DB3F29; stroke: #fff; opacity: 1;" id="p-type-functions"></path><path d="M82.59255161731733,-178.85041352297952A197,197,0,0,1,84.52204325887469,-177.94668921714987L73.19823664195273,-154.1063533813862A170.6070045455344,170.6070045455344,0,0,0,71.52724786397432,-154.88900158825214Z" fill-rule="evenodd" style="fill: #DB3F29; stroke: #fff; opacity: 1;" id="p-type-functions"></path><path d="M84.52204325887469,-177.94668921714987A197,197,0,0,1,86.44164799357179,-177.02214972187923L74.86066310742531,-153.30567869167982A170.6070045455344,170.6070045455344,0,0,0,73.19823664195273,-154.1063533813862Z" fill-rule="evenodd" style="fill: #DB3F29; stroke: #fff; opacity: 1;" id="p-type-functions"></path><path d="M86.44164799357179,-177.02214972187923A197,197,0,0,1,88.35114127698824,-176.07690318452805L76.51433279921973,-152.4870711774944A170.6070045455344,170.6070045455344,0,0,0,74.86066310742531,-153.30567869167982Z" fill-rule="evenodd" style="fill: #DB3F29; stroke: #fff; opacity: 1;" id="p-type-functions"></path><path d="M88.35114127698824,-176.07690318452805A197,197,0,0,1,90.25029974748345,-175.11106017464854L78.15905228048098,-151.65062659487114A170.6070045455344,170.6070045455344,0,0,0,76.51433279921973,-152.4870711774944Z" fill-rule="evenodd" style="fill: #DB3F29; stroke: #fff; opacity: 1;" id="p-type-functions"></path><path d="M90.25029974748345,-175.11106017464854A197,197,0,0,1,92.13890125232447,-174.12473367105088L79.79462916129881,-150.79644278632966A170.6070045455344,170.6070045455344,0,0,0,78.15905228048098,-151.65062659487114Z" fill-rule="evenodd" style="fill: #DB3F29; stroke: #fff; opacity: 1;" id="p-type-functions"></path><path d="M92.13890125232447,-174.12473367105088A197,197,0,0,1,94.01672487367186,-173.11803904858758L81.42087212121216,-149.92461966942327A170.6070045455344,170.6070045455344,0,0,0,79.79462916129881,-150.79644278632966Z" fill-rule="evenodd" style="fill: #DB3F29; stroke: #fff; opacity: 1;" id="p-type-functions"></path><path d="M94.01672487367186,-173.11803904858758A197,197,0,0,1,95.88355095442174,-172.09109406465754L83.03759093158888,-149.03525922505085A170.6070045455344,170.6070045455344,0,0,0,81.42087212121216,-149.92461966942327Z" fill-rule="evenodd" style="fill: #DB3F29; stroke: #fff; opacity: 1;" id="p-type-functions"></path><path d="M95.88355095442174,-172.09109406465754A197,197,0,0,1,97.73916112389966,-171.04401884543168L84.64459647787751,-148.1284654855281A170.6070045455344,170.6070045455344,0,0,0,83.03759093158888,-149.03525922505085Z" fill-rule="evenodd" style="fill: #DB3F29; stroke: #fff; opacity: 1;" id="p-type-functions"></path><path d="M97.73916112389966,-171.04401884543168A197,197,0,0,1,99.58333832340467,-169.97693587180092L86.2417007817289,-147.204344522418A170.6070045455344,170.6070045455344,0,0,0,84.64459647787751,-148.1284654855281Z" fill-rule="evenodd" style="fill: #DB3F29; stroke: #fff; opacity: 1;" id="p-type-functions"></path><path d="M99.58333832340467,-169.97693587180092A197,197,0,0,1,101.41586683159952,-168.88996996504935L87.82871702298482,-146.2630044341236A170.6070045455344,170.6070045455344,0,0,0,86.2417007817289,-147.204344522418Z" fill-rule="evenodd" style="fill: #DB3F29; stroke: #fff; opacity: 1;" id="p-type-functions"></path><path d="M101.41586683159952,-168.88996996504935A197,197,0,0,1,103.23653228974429,-167.78324827225327L89.40545956153103,-145.30455533324286A170.6070045455344,170.6070045455344,0,0,0,87.82871702298482,-146.2630044341236Z" fill-rule="evenodd" style="fill: #DB3F29; stroke: #fff; opacity: 1;" id="p-type-functions"></path><path d="M103.23653228974429,-167.78324827225327A197,197,0,0,1,105.04512172677116,-166.65690025140822L90.9717439590125,-144.3291093336887A170.6070045455344,170.6070045455344,0,0,0,89.40545956153103,-145.30455533324286Z" fill-rule="evenodd" style="fill: #DB3F29; stroke: #fff; opacity: 1;" id="p-type-functions"></path><path d="M105.04512172677116,-166.65690025140822A197,197,0,0,1,106.84142358419648,-165.51105765628563L92.527387000408,-143.33678053757427A170.6070045455344,170.6070045455344,0,0,0,90.9717439590125,-144.3291093336887Z" fill-rule="evenodd" style="fill: #DB3F29; stroke: #fff; opacity: 1;" id="p-type-functions"></path><path d="M106.84142358419648,-165.51105765628563A197,197,0,0,1,108.62522774086752,-164.3458545210212L94.07220671546139,-142.32768502186602A170.6070045455344,170.6070045455344,0,0,0,92.527387000408,-143.33678053757427Z" fill-rule="evenodd" style="fill: #DB3F29; stroke: #fff; opacity: 1;" id="p-type-functions"></path><path d="M108.62522774086752,-164.3458545210212A197,197,0,0,1,110.39632553754137,-163.1614271444363L95.6060223999676,-141.3019408248057A170.6070045455344,170.6070045455344,0,0,0,94.07220671546139,-142.32768502186602Z" fill-rule="evenodd" style="fill: #DB3F29; stroke: #fff; opacity: 1;" id="p-type-functions"></path><path d="M110.39632553754137,-163.1614271444363A197,197,0,0,1,112.15450980129276,-161.95791407409433L97.12865463691034,-140.25966793210296A170.6070045455344,170.6070045455344,0,0,0,95.6060223999676,-141.3019408248057Z" fill-rule="evenodd" style="fill: #DB3F29; stroke: #fff; opacity: 1;" id="p-type-functions"></path><path d="M112.15450980129276,-161.95791407409433A197,197,0,0,1,113.89957486974781,-160.73545609009454L98.63992531744924,-139.20098826290004A170.6070045455344,170.6070045455344,0,0,0,97.12865463691034,-140.25966793210296Z" fill-rule="evenodd" style="fill: #DB3F29; stroke: #fff; opacity: 1;" id="p-type-functions"></path><path d="M113.89957486974781,-160.73545609009454A197,197,0,0,1,115.63131661514139,-159.49419618860406L100.13965766175409,-138.12602565551032A170.6070045455344,170.6070045455344,0,0,0,98.63992531744924,-139.20098826290004Z" fill-rule="evenodd" style="fill: #DB3F29; stroke: #fff; opacity: 1;" id="p-type-functions"></path><path d="M115.63131661514139,-159.49419618860406A197,197,0,0,1,117.3495324681947,-158.23427956513126L101.62767623968341,-137.03490585293255A170.6070045455344,170.6070045455344,0,0,0,100.13965766175409,-138.12602565551032Z" fill-rule="evenodd" style="fill: #DB3F29; stroke: #fff; opacity: 1;" id="p-type-functions"></path><path d="M117.3495324681947,-158.23427956513126A197,197,0,0,1,119.05402144181079,-156.95585359754142L103.1038069913054,-135.92775648814205A170.6070045455344,170.6070045455344,0,0,0,101.62767623968341,-137.03490585293255Z" fill-rule="evenodd" style="fill: #DB3F29; stroke: #fff; opacity: 1;" id="p-type-functions"></path><path d="M119.05402144181079,-156.95585359754142A197,197,0,0,1,120.7445841545848,-155.65906782881743L104.56787724725844,-134.80470706916094A170.6070045455344,170.6070045455344,0,0,0,103.1038069913054,-135.92775648814205Z" fill-rule="evenodd" style="fill: #DB3F29; stroke: #fff; opacity: 1;" id="p-type-functions"></path><path d="M120.7445841545848,-155.65906782881743A197,197,0,0,1,122.4210228541265,-154.3440739495671L106.0197157489489,-133.6658889639091A170.6070045455344,170.6070045455344,0,0,0,104.56787724725844,-134.80470706916094Z" fill-rule="evenodd" style="fill: #DB3F29; stroke: #fff; opacity: 1;" id="p-type-functions"></path><path d="M122.4210228541265,-154.3440739495671A197,197,0,0,1,124.0831414401922,-153.01102578027917L107.45915266858405,-132.51143538483743A170.6070045455344,170.6070045455344,0,0,0,106.0197157489489,-133.6658889639091Z" fill-rule="evenodd" style="fill: #DB3F29; stroke: #fff; opacity: 1;" id="p-type-functions"></path><path d="M124.0831414401922,-153.01102578027917A197,197,0,0,1,125.73074548762345,-151.6600792533304L108.88601962903759,-131.3414813733454A170.6070045455344,170.6070045455344,0,0,0,107.45915266858405,-132.51143538483743Z" fill-rule="evenodd" style="fill: #DB3F29; stroke: #fff; opacity: 1;" id="p-type-functions"></path><path d="M125.73074548762345,-151.6600792533304A197,197,0,0,1,127.19237232891403,-150.43636668486414L110.15182560444843,-130.28171520212334A170.6070045455344,170.6070045455344,0,0,0,108.88601962903759,-131.3414813733454Z" fill-rule="evenodd" style="fill: #DB3F29; stroke: #fff; opacity: 1;" id="p-type-functions"></path><path d="M127.19237232891403,-150.43636668486414A197,197,0,0,1,128.63452953181357,-149.2050864150716L111.40077037841016,-129.21539520930443A170.6070045455344,170.6070045455344,0,0,0,110.15182560444843,-130.28171520212334Z" fill-rule="evenodd" style="fill: #DB3F29; stroke: #fff; opacity: 1;" id="p-type-functions"></path><path d="M196.05585209266533,-19.264030217452884A197,197,0,0,1,196.2527317578841,-17.14249916342371L169.9598512644207,-14.845839759878421A170.6070045455344,170.6070045455344,0,0,0,169.78934847285265,-16.68313954758526Z" fill-rule="evenodd" style="fill: #1DC690; stroke: #fff; opacity: 1;" id="p-type-logs"></path><path d="M196.2527317578841,-17.14249916342371A197,197,0,0,1,196.42665489714662,-15.01896287755152L170.11047312132797,-13.006803390455048A170.6070045455344,170.6070045455344,0,0,0,169.9598512644207,-14.845839759878421Z" fill-rule="evenodd" style="fill: #1DC690; stroke: #fff; opacity: 1;" id="p-type-logs"></path><path d="M196.42665489714662,-15.01896287755152A197,197,0,0,1,196.5776011659153,-12.893669759007253L170.24119642468813,-11.166245559307463A170.6070045455344,170.6070045455344,0,0,0,170.11047312132797,-13.006803390455048Z" fill-rule="evenodd" style="fill: #1DC690; stroke: #fff; opacity: 1;" id="p-type-logs"></path><path d="M196.5776011659153,-12.893669759007253A197,197,0,0,1,196.705552907356,-10.766868412466144L170.35200588323426,-9.32438156439991A170.6070045455344,170.6070045455344,0,0,0,170.24119642468813,-11.166245559307463Z" fill-rule="evenodd" style="fill: #1DC690; stroke: #fff; opacity: 1;" id="p-type-logs"></path><path d="M196.705552907356,-10.766868412466144A197,197,0,0,1,196.81049515440338,-8.638807619027327L170.4428885351075,-7.481426856484226A170.6070045455344,170.6070045455344,0,0,0,170.35200588323426,-9.32438156439991Z" fill-rule="evenodd" style="fill: #1DC690; stroke: #fff; opacity: 1;" id="p-type-logs"></path><path d="M196.81049515440338,-8.638807619027327A197,197,0,0,1,196.89241563151145,-6.509736307112862L170.51383374937322,-5.637597013897637A170.6070045455344,170.6070045455344,0,0,0,170.4428885351075,-7.481426856484226Z" fill-rule="evenodd" style="fill: #1DC690; stroke: #fff; opacity: 1;" id="p-type-logs"></path><path d="M196.89241563151145,-6.509736307112862A197,197,0,0,1,196.95130475608977,-4.379903523349501L170.56483322726467,-3.793107717345637A170.6070045455344,170.6070045455344,0,0,0,170.51383374937322,-5.637597013897637Z" fill-rule="evenodd" style="fill: #1DC690; stroke: #fff; opacity: 1;" id="p-type-logs"></path><path d="M196.95130475608977,-4.379903523349501A197,197,0,0,1,196.98715563962418,-2.249558403436628L170.59588100315358,-1.9481747246728827A170.6070045455344,170.6070045455344,0,0,0,170.56483322726467,-3.793107717345637Z" fill-rule="evenodd" style="fill: #1DC690; stroke: #fff; opacity: 1;" id="p-type-logs"></path><path d="M196.98715563962418,-2.249558403436628A197,197,0,0,1,196.9999640884827,-0.11895014300379288L170.60697344524814,-0.10301384562507646A170.6070045455344,170.6070045455344,0,0,0,170.59588100315358,-1.9481747246728827Z" fill-rule="evenodd" style="fill: #1DC690; stroke: #fff; opacity: 1;" id="p-type-logs"></path><path d="M196.9999640884827,-0.11895014300379288A197,197,0,0,1,196.989728604406,2.011672031538777L170.59810925601766,1.742159083395231A170.6070045455344,170.6070045455344,0,0,0,170.60697344524814,-0.10301384562507646Z" fill-rule="evenodd" style="fill: #1DC690; stroke: #fff; opacity: 1;" id="p-type-logs"></path><path d="M196.989728604406,2.011672031538777A197,197,0,0,1,196.9564503846826,4.14205889215326L170.5692894723445,3.5871282245759515A170.6070045455344,170.6070045455344,0,0,0,170.59810925601766,1.742159083395231Z" fill-rule="evenodd" style="fill: #1DC690; stroke: #fff; opacity: 1;" id="p-type-logs"></path><path d="M196.9564503846826,4.14205889215326A197,197,0,0,1,196.900133322009,6.271961238327518L170.52051746540263,5.431677763942937A170.6070045455344,170.6070045455344,0,0,0,170.5692894723445,3.5871282245759515Z" fill-rule="evenodd" style="fill: #1DC690; stroke: #fff; opacity: 1;" id="p-type-logs"></path><path d="M196.900133322009,6.271961238327518A197,197,0,0,1,196.8207840040342,8.40112992622515L170.4517989402635,7.275591936604668A170.6070045455344,170.6070045455344,0,0,0,170.52051746540263,5.431677763942937Z" fill-rule="evenodd" style="fill: #1DC690; stroke: #fff; opacity: 1;" id="p-type-logs"></path><path d="M196.8207840040342,8.40112992622515A197,197,0,0,1,196.71841171258913,10.529315897828921L170.36314193522844,9.118655051991201A170.6070045455344,170.6070045455344,0,0,0,170.4517989402635,7.275591936604668Z" fill-rule="evenodd" style="fill: #1DC690; stroke: #fff; opacity: 1;" id="p-type-logs"></path><path d="M196.71841171258913,10.529315897828921A197,197,0,0,1,196.59302842260098,12.65627021007414L170.25455682088864,10.96065151908442A170.6070045455344,170.6070045455344,0,0,0,170.36314193522844,9.118655051991201Z" fill-rule="evenodd" style="fill: #1DC690; stroke: #fff; opacity: 1;" id="p-type-logs"></path><path d="M196.59302842260098,12.65627021007414A197,197,0,0,1,196.44464880069228,14.781744063968615L170.12605629891175,12.80136587163665A170.6070045455344,170.6070045455344,0,0,0,170.25455682088864,10.96065151908442Z" fill-rule="evenodd" style="fill: #1DC690; stroke: #fff; opacity: 1;" id="p-type-logs"></path><path d="M196.44464880069228,14.781744063968615A197,197,0,0,1,196.2732902034655,16.905488833695728L169.97765540055653,14.64058279337466A170.6070045455344,170.6070045455344,0,0,0,170.12605629891175,12.80136587163665Z" fill-rule="evenodd" style="fill: #1DC690; stroke: #fff; opacity: 1;" id="p-type-logs"></path><path d="M196.2732902034655,16.905488833695728A197,197,0,0,1,196.07897267547264,19.027256095697275L169.80937148491412,16.47808714318615A170.6070045455344,170.6070045455344,0,0,0,169.97765540055653,14.64058279337466Z" fill-rule="evenodd" style="fill: #1DC690; stroke: #fff; opacity: 1;" id="p-type-logs"></path><path d="M196.07897267547264,19.027256095697275A197,197,0,0,1,195.86171894687055,21.14679765773263L169.6212242368778,18.313663980285725A170.6070045455344,170.6070045455344,0,0,0,169.80937148491412,16.47808714318615Z" fill-rule="evenodd" style="fill: #1DC690; stroke: #fff; opacity: 1;" id="p-type-logs"></path><path d="M195.86171894687055,21.14679765773263A197,197,0,0,1,195.62155443076207,23.26386558791087L169.41323566484027,20.14709858935742A170.6070045455344,170.6070045455344,0,0,0,169.6212242368778,18.313663980285725Z" fill-rule="evenodd" style="fill: #1DC690; stroke: #fff; opacity: 1;" id="p-type-logs"></path><path d="M195.62155443076207,23.26386558791087A197,197,0,0,1,195.35850722022346,25.378212243692424L169.18543009811918,21.978176505670916A170.6070045455344,170.6070045455344,0,0,0,169.41323566484027,20.14709858935742Z" fill-rule="evenodd" style="fill: #1DC690; stroke: #fff; opacity: 1;" id="p-type-logs"></path><path d="M195.35850722022346,25.378212243692424A197,197,0,0,1,195.072608085018,27.489590300856882L168.93783418411127,23.80668354016837A170.6070045455344,170.6070045455344,0,0,0,169.18543009811918,21.978176505670916Z" fill-rule="evenodd" style="fill: #1DC690; stroke: #fff; opacity: 1;" id="p-type-logs"></path><path d="M195.072608085018,27.489590300856882A197,197,0,0,1,194.76389046799704,29.597752782433595L168.6704768851753,25.632405804519045A170.6070045455344,170.6070045455344,0,0,0,168.93783418411127,23.80668354016837Z" fill-rule="evenodd" style="fill: #1DC690; stroke: #fff; opacity: 1;" id="p-type-logs"></path><path d="M194.76389046799704,29.597752782433595A197,197,0,0,1,194.43239048118772,31.702453087591604L168.38338947524423,27.455129736138744A170.6070045455344,170.6070045455344,0,0,0,168.6704768851753,25.632405804519045Z" fill-rule="evenodd" style="fill: #1DC690; stroke: #fff; opacity: 1;" id="p-type-logs"></path><path d="M194.43239048118772,31.702453087591604A197,197,0,0,1,194.07814690156903,33.80344502048562L168.0766055361669,29.27464212317113A170.6070045455344,170.6070045455344,0,0,0,168.38338947524423,27.455129736138744Z" fill-rule="evenodd" style="fill: #1DC690; stroke: #fff; opacity: 1;" id="p-type-logs"></path><path d="M194.07814690156903,33.80344502048562A197,197,0,0,1,193.70120116653578,35.9004828190546L167.75016095377993,31.090730129428064A170.6070045455344,170.6070045455344,0,0,0,168.0766055361669,29.27464212317113Z" fill-rule="evenodd" style="fill: #1DC690; stroke: #fff; opacity: 1;" id="p-type-logs"></path><path d="M193.70120116653578,35.9004828190546A197,197,0,0,1,193.30159736905156,37.99332118376961L167.40409391370986,32.90318131928594A170.6070045455344,170.6070045455344,0,0,0,167.75016095377993,31.090730129428064Z" fill-rule="evenodd" style="fill: #1DC690; stroke: #fff; opacity: 1;" id="p-type-logs"></path><path d="M193.30159736905156,37.99332118376961A197,197,0,0,1,192.8793822524909,40.08171530632753L167.03844489690653,34.71178368253521A170.6070045455344,170.6070045455344,0,0,0,167.40409391370986,32.90318131928594Z" fill-rule="evenodd" style="fill: #1DC690; stroke: #fff; opacity: 1;" id="p-type-logs"></path><path d="M192.8793822524909,40.08171530632753A197,197,0,0,1,192.43460520517164,42.16542089828738L166.6532566749078,36.51632565918013A170.6070045455344,170.6070045455344,0,0,0,167.03844489690653,34.71178368253521Z" fill-rule="evenodd" style="fill: #1DC690; stroke: #fff; opacity: 1;" id="p-type-logs"></path><path d="M192.43460520517164,42.16542089828738A197,197,0,0,1,191.96731825457755,44.24419421964574L166.24857430483635,38.316596164185825A170.6070045455344,170.6070045455344,0,0,0,166.6532566749078,36.51632565918013Z" fill-rule="evenodd" style="fill: #1DC690; stroke: #fff; opacity: 1;" id="p-type-logs"></path><path d="M191.96731825457755,44.24419421964574A197,197,0,0,1,191.4775760612727,46.31779210734812L165.82444512412928,40.11238461216983A170.6070045455344,170.6070045455344,0,0,0,166.24857430483635,38.316596164185825Z" fill-rule="evenodd" style="fill: #1DC690; stroke: #fff; opacity: 1;" id="p-type-logs"></path><path d="M191.4775760612727,46.31779210734812A197,197,0,0,1,190.96543591250747,48.38597200373273L165.38091874500063,41.90348094203519A170.6070045455344,170.6070045455344,0,0,0,165.82444512412928,40.11238461216983Z" fill-rule="evenodd" style="fill: #1DC690; stroke: #fff; opacity: 1;" id="p-type-logs"></path><path d="M190.96543591250747,48.38597200373273A197,197,0,0,1,190.43095771551725,50.448491984903555L164.9180470486382,43.68967564154212A170.6070045455344,170.6070045455344,0,0,0,165.38091874500063,41.90348094203519Z" fill-rule="evenodd" style="fill: #1DC690; stroke: #fff; opacity: 1;" id="p-type-logs"></path><path d="M190.43095771551725,50.448491984903555A197,197,0,0,1,189.87420399051518,52.50511078902918L164.43588417913477,45.47075977181568A170.6070045455344,170.6070045455344,0,0,0,164.9180470486382,43.68967564154212Z" fill-rule="evenodd" style="fill: #1DC690; stroke: #fff; opacity: 1;" id="p-type-logs"></path><path d="M189.87420399051518,52.50511078902918A197,197,0,0,1,189.29523986337858,54.55558784456425L163.9344865371546,47.24652499178617A170.6070045455344,170.6070045455344,0,0,0,164.43588417913477,45.47075977181568Z" fill-rule="evenodd" style="fill: #1DC690; stroke: #fff; opacity: 1;" id="p-type-logs"></path><path d="M189.29523986337858,54.55558784456425A197,197,0,0,1,188.69413305803107,56.59968329839015L163.41391277333594,49.016763582559676A170.6070045455344,170.6070045455344,0,0,0,163.9344865371546,47.24652499178617Z" fill-rule="evenodd" style="fill: #1DC690; stroke: #fff; opacity: 1;" id="p-type-logs"></path><path d="M188.69413305803107,56.59968329839015A197,197,0,0,1,188.07095388852053,58.63715804387165L162.87422378143054,50.78126847171589A170.6070045455344,170.6070045455344,0,0,0,163.41391277333594,49.016763582559676Z" fill-rule="evenodd" style="fill: #1DC690; stroke: #fff; opacity: 1;" id="p-type-logs"></path><path d="M188.07095388852053,58.63715804387165A197,197,0,0,1,187.4257752507942,60.66777374882629L162.3154826911805,52.539833257530255A170.6070045455344,170.6070045455344,0,0,0,162.87422378143054,50.78126847171589Z" fill-rule="evenodd" style="fill: #1DC690; stroke: #fff; opacity: 1;" id="p-type-logs"></path><path d="M187.4257752507942,60.66777374882629A197,197,0,0,1,186.75867261417176,62.691292883403015L161.73775486093388,54.2922522331176A170.6070045455344,170.6070045455344,0,0,0,162.3154826911805,52.539833257530255Z" fill-rule="evenodd" style="fill: #1DC690; stroke: #fff; opacity: 1;" id="p-type-logs"></path><path d="M186.75867261417176,62.691292883403015A197,197,0,0,1,186.06972401251718,64.70747874786716L161.14110786999925,56.038320410494634A170.6070045455344,170.6070045455344,0,0,0,161.73775486093388,54.2922522331176Z" fill-rule="evenodd" style="fill: #1DC690; stroke: #fff; opacity: 1;" id="p-type-logs"></path><path d="M186.06972401251718,64.70747874786716A197,197,0,0,1,185.3590100351111,66.71609550028819L160.52561151074093,57.77783354455825A170.6070045455344,170.6070045455344,0,0,0,161.14110786999925,56.038320410494634Z" fill-rule="evenodd" style="fill: #1DC690; stroke: #fff; opacity: 1;" id="p-type-logs"></path><path d="M185.3590100351111,66.71609550028819A197,197,0,0,1,184.62661381722364,68.71690818412718L159.89133778041472,59.51058815697693A170.6070045455344,170.6070045455344,0,0,0,160.52561151074093,57.77783354455825Z" fill-rule="evenodd" style="fill: #1DC690; stroke: #fff; opacity: 1;" id="p-type-logs"></path><path d="M184.62661381722364,68.71690818412718A197,197,0,0,1,183.8726210303898,70.70968275572059L159.2383608727464,61.23638155999249A170.6070045455344,170.6070045455344,0,0,0,159.89133778041472,59.51058815697693Z" fill-rule="evenodd" style="fill: #1DC690; stroke: #fff; opacity: 1;" id="p-type-logs"></path><path d="M183.8726210303898,70.70968275572059A197,197,0,0,1,183.09711987238822,72.69418611165753L158.56675716925275,62.95501188012935A170.6070045455344,170.6070045455344,0,0,0,159.2383608727464,61.23638155999249Z" fill-rule="evenodd" style="fill: #1DC690; stroke: #fff; opacity: 1;" id="p-type-logs"></path><path d="M183.09711987238822,72.69418611165753A197,197,0,0,1,182.30020105692407,74.67018611604671L157.876605230307,64.66627808180854A170.6070045455344,170.6070045455344,0,0,0,158.56675716925275,62.95501188012935Z" fill-rule="evenodd" style="fill: #1DC690; stroke: #fff; opacity: 1;" id="p-type-logs"></path><path d="M182.30020105692407,74.67018611604671A197,197,0,0,1,181.4819578030182,76.63745162767047L157.16798578594927,66.3699799908637A170.6070045455344,170.6070045455344,0,0,0,157.876605230307,64.66627808180854Z" fill-rule="evenodd" style="fill: #1DC690; stroke: #fff; opacity: 1;" id="p-type-logs"></path><path d="M181.4819578030182,76.63745162767047A197,197,0,0,1,180.6424858241025,78.5957525270223L156.44098172644308,68.06591831795629A170.6070045455344,170.6070045455344,0,0,0,157.16798578594927,66.3699799908637Z" fill-rule="evenodd" style="fill: #1DC690; stroke: #fff; opacity: 1;" id="p-type-logs"></path><path d="M180.6424858241025,78.5957525270223A197,197,0,0,1,179.7818833168243,80.54485974322495L155.69567809257958,69.75389468188736A170.6070045455344,170.6070045455344,0,0,0,156.44098172644308,68.06591831795629Z" fill-rule="evenodd" style="fill: #1DC690; stroke: #fff; opacity: 1;" id="p-type-logs"></path><path d="M179.7818833168243,80.54485974322495A197,197,0,0,1,178.90025094955956,82.48454528082583L154.93216206572973,71.433711632803A170.6070045455344,170.6070045455344,0,0,0,155.69567809257958,69.75389468188736Z" fill-rule="evenodd" style="fill: #1DC690; stroke: #fff; opacity: 1;" id="p-type-logs"></path><path d="M178.90025094955956,82.48454528082583A197,197,0,0,1,177.99769185063755,84.41458224646665L154.15052295764647,73.10517267529097A170.6070045455344,170.6070045455344,0,0,0,154.93216206572973,71.433711632803Z" fill-rule="evenodd" style="fill: #1DC690; stroke: #fff; opacity: 1;" id="p-type-logs"></path><path d="M177.99769185063755,84.41458224646665A197,197,0,0,1,177.07431159627714,86.33474487542398L153.3508522000174,74.76808229136554A170.6070045455344,170.6070045455344,0,0,0,154.15052295764647,73.10517267529097Z" fill-rule="evenodd" style="fill: #1DC690; stroke: #fff; opacity: 1;" id="p-type-logs"></path><path d="M177.07431159627714,86.33474487542398A197,197,0,0,1,176.13021819823746,88.24480855801805L152.5332433337699,76.42224596333807A170.6070045455344,170.6070045455344,0,0,0,153.3508522000174,74.76808229136554Z" fill-rule="evenodd" style="fill: #1DC690; stroke: #fff; opacity: 1;" id="p-type-logs"></path><path d="M176.13021819823746,88.24480855801805A197,197,0,0,1,175.16552209118305,90.14454986588632L151.6977919981288,78.06747019657067A170.6070045455344,170.6070045455344,0,0,0,152.5332433337699,76.42224596333807Z" fill-rule="evenodd" style="fill: #1DC690; stroke: #fff; opacity: 1;" id="p-type-logs"></path><path d="M175.16552209118305,90.14454986588632A197,197,0,0,1,174.18033611976588,92.03374657811874L150.84459591942948,79.70356254210998A170.6070045455344,170.6070045455344,0,0,0,151.6977919981288,78.06747019657067Z" fill-rule="evenodd" style="fill: #1DC690; stroke: #fff; opacity: 1;" id="p-type-logs"></path><path d="M174.18033611976588,92.03374657811874A197,197,0,0,1,173.17477552542553,93.912177707252L149.97375489968616,81.33033161919887A170.6070045455344,170.6070045455344,0,0,0,150.84459591942948,79.70356254210998Z" fill-rule="evenodd" style="fill: #1DC690; stroke: #fff; opacity: 1;" id="p-type-logs"></path><path d="M173.17477552542553,93.912177707252A197,197,0,0,1,172.14895793290881,95.77962352511933L149.0853708049177,82.94758713766298A170.6070045455344,170.6070045455344,0,0,0,149.97375489968616,81.33033161919887Z" fill-rule="evenodd" style="fill: #1DC690; stroke: #fff; opacity: 1;" id="p-type-logs"></path><path d="M172.14895793290881,95.77962352511933A197,197,0,0,1,171.10300333651074,97.63586558855306L148.17954755323186,84.55513992016985A170.6070045455344,170.6070045455344,0,0,0,149.0853708049177,82.94758713766298Z" fill-rule="evenodd" style="fill: #1DC690; stroke: #fff; opacity: 1;" id="p-type-logs"></path><path d="M171.10300333651074,97.63586558855306A197,197,0,0,1,170.0370340860382,99.48068676493685L147.2563911026696,86.15280192435769A170.6070045455344,170.6070045455344,0,0,0,148.17954755323186,84.55513992016985Z" fill-rule="evenodd" style="fill: #1DC690; stroke: #fff; opacity: 1;" id="p-type-logs"></path><path d="M170.0370340860382,99.48068676493685A197,197,0,0,1,168.95117487249837,101.31387125760462L146.31600943881068,87.74038626483167A170.6070045455344,170.6070045455344,0,0,0,147.2563911026696,86.15280192435769Z" fill-rule="evenodd" style="fill: #1DC690; stroke: #fff; opacity: 1;" id="p-type-logs"></path><path d="M168.95117487249837,101.31387125760462A197,197,0,0,1,167.84555271351275,103.13520463108323L145.35851256214215,89.31770723502456A170.6070045455344,170.6070045455344,0,0,0,146.31600943881068,87.74038626483167Z" fill-rule="evenodd" style="fill: #1DC690; stroke: #fff; opacity: 1;" id="p-type-logs"></path><path d="M167.84555271351275,103.13520463108323A197,197,0,0,1,166.72029693845974,104.94447383617593L144.3840124751911,90.88458032891971A170.6070045455344,170.6070045455344,0,0,0,145.35851256214215,89.31770723502456Z" fill-rule="evenodd" style="fill: #1DC690; stroke: #fff; opacity: 1;" id="p-type-logs"></path><path d="M166.72029693845974,104.94447383617593A197,197,0,0,1,165.57553917334607,106.74146723488361L143.3926231694232,92.4408222626335A170.6070045455344,170.6070045455344,0,0,0,144.3840124751911,90.88458032891971Z" fill-rule="evenodd" style="fill: #1DC690; stroke: #fff; opacity: 1;" id="p-type-logs"></path><path d="M165.57553917334607,106.74146723488361A197,197,0,0,1,164.41141332541028,108.52597462516106L142.38446061190868,93.98625099585485A170.6070045455344,170.6070045455344,0,0,0,143.3926231694232,92.4408222626335Z" fill-rule="evenodd" style="fill: #1DC690; stroke: #fff; opacity: 1;" id="p-type-logs"></path><path d="M164.41141332541028,108.52597462516106A197,197,0,0,1,163.22805556745874,110.29778726550505L141.35964273175722,95.52068575313912A170.6070045455344,170.6070045455344,0,0,0,142.38446061190868,93.98625099585485Z" fill-rule="evenodd" style="fill: #1DC690; stroke: #fff; opacity: 1;" id="p-type-logs"></path><path d="M55.26577068629694,189.08911811748882A197,197,0,0,1,53.217481364285305,189.6757751460158L46.08769078689602,164.2640397589547A170.6070045455344,170.6070045455344,0,0,0,47.8615613740585,163.75597986894167Z" fill-rule="evenodd" style="fill: #D7A449; stroke: #fff; opacity: 1;" id="p-type-tokenTransfers"></path><path d="M53.217481364285305,189.6757751460158A197,197,0,0,1,51.162966964633604,190.24024498348348L44.308429124356714,164.75288497787182A170.6070045455344,170.6070045455344,0,0,0,46.08769078689602,164.2640397589547Z" fill-rule="evenodd" style="fill: #D7A449; stroke: #fff; opacity: 1;" id="p-type-tokenTransfers"></path><path d="M51.162966964633604,190.24024498348348A197,197,0,0,1,49.10246781272595,190.78246160142763L42.52398451432839,165.22245834336553A170.6070045455344,170.6070045455344,0,0,0,44.308429124356714,164.75288497787182Z" fill-rule="evenodd" style="fill: #D7A449; stroke: #fff; opacity: 1;" id="p-type-tokenTransfers"></path><path d="M49.10246781272595,190.78246160142763A197,197,0,0,1,47.03622493400866,191.30236157443886L40.73456569097053,165.67270492742009A170.6070045455344,170.6070045455344,0,0,0,42.52398451432839,165.22245834336553Z" fill-rule="evenodd" style="fill: #D7A449; stroke: #fff; opacity: 1;" id="p-type-tokenTransfers"></path><path d="M47.03622493400866,191.30236157443886A197,197,0,0,1,44.96448002579648,191.79988408758163L38.94038197029772,166.1035720627564A170.6070045455344,170.6070045455344,0,0,0,40.73456569097053,165.67270492742009Z" fill-rule="evenodd" style="fill: #D7A449; stroke: #fff; opacity: 1;" id="p-type-tokenTransfers"></path><path d="M44.96448002579648,191.79988408758163A197,197,0,0,1,42.88747542900021,192.27497094350815L37.1416432256951,166.51500934899286A170.6070045455344,170.6070045455344,0,0,0,38.94038197029772,166.1035720627564Z" fill-rule="evenodd" style="fill: #D7A449; stroke: #fff; opacity: 1;" id="p-type-tokenTransfers"></path><path d="M42.88747542900021,192.27497094350815A197,197,0,0,1,40.805454099779034,192.72756656926592L35.338559863368516,166.9069686585408A170.6070045455344,170.6070045455344,0,0,0,37.1416432256951,166.51500934899286Z" fill-rule="evenodd" style="fill: #D7A449; stroke: #fff; opacity: 1;" id="p-type-tokenTransfers"></path><path d="M40.805454099779034,192.72756656926592A197,197,0,0,1,38.7186595811209,193.15761802279835L33.53134279773246,167.2794041422343A170.6070045455344,170.6070045455344,0,0,0,35.338559863368516,166.9069686585408Z" fill-rule="evenodd" style="fill: #D7A449; stroke: #fff; opacity: 1;" id="p-type-tokenTransfers"></path><path d="M38.7186595811209,193.15761802279835A197,197,0,0,1,36.62733597435426,193.56507499913764L31.720203426738443,167.63227223469332A170.6070045455344,170.6070045455344,0,0,0,33.53134279773246,167.2794041422343Z" fill-rule="evenodd" style="fill: #D7A449; stroke: #fff; opacity: 1;" id="p-type-tokenTransfers"></path><path d="M36.62733597435426,193.56507499913764A197,197,0,0,1,34.53172791059447,193.9498898362891L29.905353607146942,167.96553165941964A170.6070045455344,170.6070045455344,0,0,0,31.720203426738443,167.63227223469332Z" fill-rule="evenodd" style="fill: #D7A449; stroke: #fff; opacity: 1;" id="p-type-tokenTransfers"></path><path d="M34.53172791059447,193.9498898362891A197,197,0,0,1,32.43208052212824,194.31201752080645L28.087005629745533,168.2791434336253A170.6070045455344,170.6070045455344,0,0,0,29.905353607146942,167.96553165941964Z" fill-rule="evenodd" style="fill: #D7A449; stroke: #fff; opacity: 1;" id="p-type-tokenTransfers"></path><path d="M32.43208052212824,194.31201752080645A197,197,0,0,1,30.32863941373946,194.65141569305723L26.265372194516356,168.5730708727925A170.6070045455344,170.6070045455344,0,0,0,28.087005629745533,168.2791434336253Z" fill-rule="evenodd" style="fill: #D7A449; stroke: #fff; opacity: 1;" id="p-type-tokenTransfers"></path><path d="M30.32863941373946,194.65141569305723A197,197,0,0,1,28.22165063397977,194.96804465217778L24.44066638575569,168.8472795949647A170.6070045455344,170.6070045455344,0,0,0,26.265372194516356,168.5730708727925Z" fill-rule="evenodd" style="fill: #D7A449; stroke: #fff; opacity: 1;" id="p-type-tokenTransfers"></path><path d="M28.22165063397977,194.96804465217778A197,197,0,0,1,26.111360646387173,195.26186736071716L22.613101647148554,169.1017375247686A170.6070045455344,170.6070045455344,0,0,0,24.44066638575569,168.8472795949647Z" fill-rule="evenodd" style="fill: #D7A449; stroke: #fff; opacity: 1;" id="p-type-tokenTransfers"></path><path d="M26.111360646387173,195.26186736071716A197,197,0,0,1,23.99801630065615,195.53284944896967L20.782891756801284,169.3364148971658A170.6070045455344,170.6070045455344,0,0,0,22.613101647148554,169.1017375247686Z" fill-rule="evenodd" style="fill: #D7A449; stroke: #fff; opacity: 1;" id="p-type-tokenTransfers"></path><path d="M23.99801630065615,195.53284944896967A197,197,0,0,1,21.88186480376259,195.78095921899518L18.95025080223499,169.551284260935A170.6070045455344,170.6070045455344,0,0,0,20.782891756801284,169.3364148971658Z" fill-rule="evenodd" style="fill: #D7A449; stroke: #fff; opacity: 1;" id="p-type-tokenTransfers"></path><path d="M21.88186480376259,195.78095921899518A197,197,0,0,1,19.763153691046917,196.00616764832697L17.115393155342822,169.74632048188272A170.6070045455344,170.6070045455344,0,0,0,18.95025080223499,169.551284260935Z" fill-rule="evenodd" style="fill: #D7A449; stroke: #fff; opacity: 1;" id="p-type-tokenTransfers"></path><path d="M19.763153691046917,196.00616764832697A197,197,0,0,1,17.64213079725883,196.2084483933666L15.278533447313958,169.9215007457835A170.6070045455344,170.6070045455344,0,0,0,17.115393155342822,169.74632048188272Z" fill-rule="evenodd" style="fill: #D7A449; stroke: #fff; opacity: 1;" id="p-type-tokenTransfers"></path><path d="M17.64213079725883,196.2084483933666A197,197,0,0,1,15.519044227567004,196.38777779246553L13.439886543527276,170.0768045610486A170.6070045455344,170.6070045455344,0,0,0,15.278533447313958,169.9215007457835Z" fill-rule="evenodd" style="fill: #D7A449; stroke: #fff; opacity: 1;" id="p-type-tokenTransfers"></path><path d="M15.519044227567004,196.38777779246553A197,197,0,0,1,13.394142328537155,196.54413486869274L11.59966751841763,170.2122137611228A170.6070045455344,170.6070045455344,0,0,0,13.439886543527276,170.0768045610486Z" fill-rule="evenodd" style="fill: #D7A449; stroke: #fff; opacity: 1;" id="p-type-tokenTransfers"></path><path d="M13.394142328537155,196.54413486869274A197,197,0,0,1,11.267673659081881,196.67750133228873L9.758091630317669,170.3277125066098A170.6070045455344,170.6070045455344,0,0,0,11.59966751841763,170.2122137611228Z" fill-rule="evenodd" style="fill: #D7A449; stroke: #fff; opacity: 1;" id="p-type-tokenTransfers"></path><path d="M11.267673659081881,196.67750133228873A197,197,0,0,1,9.13988696138565,196.78786158280468L7.9153742962781335,170.42328728712462A170.6070045455344,170.6070045455344,0,0,0,9.758091630317669,170.3277125066098Z" fill-rule="evenodd" style="fill: #D7A449; stroke: #fff; opacity: 1;" id="p-type-tokenTransfers"></path><path d="M9.13988696138565,196.78786158280468A197,197,0,0,1,7.011031131808362,196.87520271092754L6.071731066869606,170.49892692287423A170.6070045455344,170.6070045455344,0,0,0,7.9153742962781335,170.42328728712462Z" fill-rule="evenodd" style="fill: #D7A449; stroke: #fff; opacity: 1;" id="p-type-tokenTransfers"></path><path d="M7.011031131808362,196.87520271092754A197,197,0,0,1,4.881355191770872,196.93951449999L4.2273776009686355,170.55462256596516A170.6070045455344,170.6070045455344,0,0,0,6.071731066869606,170.49892692287423Z" fill-rule="evenodd" style="fill: #D7A449; stroke: #fff; opacity: 1;" id="p-type-tokenTransfers"></path><path d="M4.881355191770872,196.93951449999A197,197,0,0,1,2.751108258625882,196.98078942716552L2.382529640531183,170.59036770143848A170.6070045455344,170.6070045455344,0,0,0,4.2273776009686355,170.55462256596516Z" fill-rule="evenodd" style="fill: #D7A449; stroke: #fff; opacity: 1;" id="p-type-tokenTransfers"></path><path d="M2.751108258625882,196.98078942716552A197,197,0,0,1,0.6205395165176125,196.99902266434836L0.5374029853563657,170.60615814803205A170.6070045455344,170.6070045455344,0,0,0,2.382529640531183,170.59036770143848Z" fill-rule="evenodd" style="fill: #D7A449; stroke: #fff; opacity: 1;" id="p-type-tokenTransfers"></path><path d="M0.6205395165176125,196.99902266434836A197,197,0,0,1,-1.510101812766337,196.9942120787184L-1.3077865321565798,170.60199205866942A170.6070045455344,170.6070045455344,0,0,0,0.5374029853563657,170.60615814803205Z" fill-rule="evenodd" style="fill: #D7A449; stroke: #fff; opacity: 1;" id="p-type-tokenTransfers"></path><path d="M-1.510101812766337,196.9942120787184A197,197,0,0,1,-3.6405664989475337,196.9663582329905L-3.152823072255138,170.577869920676A170.6070045455344,170.6070045455344,0,0,0,-1.3077865321565798,170.60199205866942Z" fill-rule="evenodd" style="fill: #D7A449; stroke: #fff; opacity: 1;" id="p-type-tokenTransfers"></path><path d="M-3.6405664989475337,196.9663582329905A197,197,0,0,1,-5.770605332410248,196.91546438534877L-4.99749081308122,170.5337945557219A170.6070045455344,170.6070045455344,0,0,0,-3.152823072255138,170.577869920676Z" fill-rule="evenodd" style="fill: #D7A449; stroke: #fff; opacity: 1;" id="p-type-tokenTransfers"></path><path d="M-5.770605332410248,196.91546438534877A197,197,0,0,1,-7.899969153352574,196.84153648906545L-6.841573975916772,170.4697711194922A170.6070045455344,170.6070045455344,0,0,0,-4.99749081308122,170.5337945557219Z" fill-rule="evenodd" style="fill: #D7A449; stroke: #fff; opacity: 1;" id="p-type-tokenTransfers"></path><path d="M-7.899969153352574,196.84153648906545A197,197,0,0,1,-10.028408880931721,196.74458319180442L-8.684856850424344,170.38580710108351A170.6070045455344,170.6070045455344,0,0,0,-6.841573975916772,170.4697711194922Z" fill-rule="evenodd" style="fill: #D7A449; stroke: #fff; opacity: 1;" id="p-type-tokenTransfers"></path><path d="M-10.028408880931721,196.74458319180442A197,197,0,0,1,-12.155675542400077,196.62461583460984L-10.527123819879652,170.2819123221281A170.6070045455344,170.6070045455344,0,0,0,-8.684856850424344,170.38580710108351Z" fill-rule="evenodd" style="fill: #D7A449; stroke: #fff; opacity: 1;" id="p-type-tokenTransfers"></path><path d="M-12.155675542400077,196.62461583460984A197,197,0,0,1,-14.281520302228614,196.4816484505793L-12.368159386393193,170.15809893564506A170.6070045455344,170.6070045455344,0,0,0,-10.527123819879652,170.2819123221281Z" fill-rule="evenodd" style="fill: #D7A449; stroke: #fff; opacity: 1;" id="p-type-tokenTransfers"></path><path d="M-14.281520302228614,196.4816484505793A197,197,0,0,1,-16.405694491214252,196.31569776322254L-14.207748196117963,170.01438142461862A170.6070045455344,170.6070045455344,0,0,0,-12.368159386393193,170.15809893564506Z" fill-rule="evenodd" style="fill: #D7A449; stroke: #fff; opacity: 1;" id="p-type-tokenTransfers"></path><path d="M-16.405694491214252,196.31569776322254A197,197,0,0,1,-18.527949635567772,196.1267831845051L-16.045675064440324,169.85077660030407A170.6070045455344,170.6070045455344,0,0,0,-14.207748196117963,170.01438142461862Z" fill-rule="evenodd" style="fill: #D7A449; stroke: #fff; opacity: 1;" id="p-type-tokenTransfers"></path><path d="M-18.527949635567772,196.1267831845051A197,197,0,0,1,-20.648037485978854,195.91492681257753L-17.88172500115106,169.66730360026122A170.6070045455344,170.6070045455344,0,0,0,-16.045675064440324,169.85077660030407Z" fill-rule="evenodd" style="fill: #D7A449; stroke: #fff; opacity: 1;" id="p-type-tokenTransfers"></path><path d="M-20.648037485978854,195.91492681257753A197,197,0,0,1,-22.765710046654867,195.68015342919077L-19.715683235593733,169.46398388611584A170.6070045455344,170.6070045455344,0,0,0,-17.88172500115106,169.66730360026122Z" fill-rule="evenodd" style="fill: #D7A449; stroke: #fff; opacity: 1;" id="p-type-tokenTransfers"></path><path d="M-22.765710046654867,195.68015342919077A197,197,0,0,1,-24.880719604330015,195.422490496797L-21.547335241787298,169.24084124104922A170.6070045455344,170.6070045455344,0,0,0,-19.715683235593733,169.46398388611584Z" fill-rule="evenodd" style="fill: #D7A449; stroke: #fff; opacity: 1;" id="p-type-tokenTransfers"></path><path d="M-24.880719604330015,195.422490496797A197,197,0,0,1,-26.992818757241405,195.1419681553374L-23.376466763520156,168.99790176701612A170.6070045455344,170.6070045455344,0,0,0,-21.547335241787298,169.24084124104922Z" fill-rule="evenodd" style="fill: #D7A449; stroke: #fff; opacity: 1;" id="p-type-tokenTransfers"></path><path d="M-26.992818757241405,195.1419681553374A197,197,0,0,1,-29.10176044406871,194.8386192187166L-25.202863839412608,168.73519388169152A170.6070045455344,170.6070045455344,0,0,0,-23.376466763520156,168.99790176701612Z" fill-rule="evenodd" style="fill: #D7A449; stroke: #fff; opacity: 1;" id="p-type-tokenTransfers"></path><path d="M-29.10176044406871,194.8386192187166A197,197,0,0,1,-31.20729797283399,194.51247917096413L-27.02631282794485,168.4527483151464A170.6070045455344,170.6070045455344,0,0,0,-25.202863839412608,168.73519388169152Z" fill-rule="evenodd" style="fill: #D7A449; stroke: #fff; opacity: 1;" id="p-type-tokenTransfers"></path><path d="M-31.20729797283399,194.51247917096413A197,197,0,0,1,-33.309185049758305,194.16358616208385L-28.846600432447527,168.1505981062533A170.6070045455344,170.6070045455344,0,0,0,-27.02631282794485,168.4527483151464Z" fill-rule="evenodd" style="fill: #D7A449; stroke: #fff; opacity: 1;" id="p-type-tokenTransfers"></path><path d="M-33.309185049758305,194.16358616208385A197,197,0,0,1,-35.40717580807178,193.79198100359133L-30.663513726051967,167.82877859882143A170.6070045455344,170.6070045455344,0,0,0,-28.846600432447527,168.1505981062533Z" fill-rule="evenodd" style="fill: #D7A449; stroke: #fff; opacity: 1;" id="p-type-tokenTransfers"></path><path d="M-35.40717580807178,193.79198100359133A197,197,0,0,1,-37.50102483677365,193.39770716373988L-32.47684017659716,167.48732743746245A170.6070045455344,170.6070045455344,0,0,0,-30.663513726051967,167.82877859882143Z" fill-rule="evenodd" style="fill: #D7A449; stroke: #fff; opacity: 1;" id="p-type-tokenTransfers"></path><path d="M-37.50102483677365,193.39770716373988A197,197,0,0,1,-39.590487209339116,192.98081076243605L-34.28636767149056,167.12628456318703A170.6070045455344,170.6070045455344,0,0,0,-32.47684017659716,167.48732743746245Z" fill-rule="evenodd" style="fill: #D7A449; stroke: #fff; opacity: 1;" id="p-type-tokenTransfers"></path><path d="M-39.590487209339116,192.98081076243605A197,197,0,0,1,-41.67531851236937,192.54134056584462L-36.09188454251978,166.7456922087327A170.6070045455344,170.6070045455344,0,0,0,-34.28636767149056,167.12628456318703Z" fill-rule="evenodd" style="fill: #D7A449; stroke: #fff; opacity: 1;" id="p-type-tokenTransfers"></path><path d="M-41.67531851236937,192.54134056584462A197,197,0,0,1,-43.755274874181765,192.07934798068428L-37.89317959061236,166.3455948936238A170.6070045455344,170.6070045455344,0,0,0,-36.09188454251978,166.7456922087327Z" fill-rule="evenodd" style="fill: #D7A449; stroke: #fff; opacity: 1;" id="p-type-tokenTransfers"></path><path d="M-43.755274874181765,192.07934798068428A197,197,0,0,1,-45.83011299333645,191.59488704821433L-39.690042110540645,165.92603941896374A170.6070045455344,170.6070045455344,0,0,0,-37.89317959061236,166.3455948936238Z" fill-rule="evenodd" style="fill: #D7A449; stroke: #fff; opacity: 1;" id="p-type-tokenTransfers"></path><path d="M-45.83011299333645,191.59488704821433A197,197,0,0,1,-47.899590167096456,191.0880144379134L-41.482261915568834,165.4870748619606A170.6070045455344,170.6070045455344,0,0,0,-39.690042110540645,165.92603941896374Z" fill-rule="evenodd" style="fill: #D7A449; stroke: #fff; opacity: 1;" id="p-type-tokenTransfers"></path><path d="M-47.899590167096456,191.0880144379134A197,197,0,0,1,-49.963464319817625,190.5587894408503L-43.26962936203945,165.02875257018619A170.6070045455344,170.6070045455344,0,0,0,-41.482261915568834,165.4870748619606Z" fill-rule="evenodd" style="fill: #D7A449; stroke: #fff; opacity: 1;" id="p-type-tokenTransfers"></path><path d="M-49.963464319817625,190.5587894408503A197,197,0,0,1,-52.021494031265284,190.00727396274866L-45.05193537389628,164.55112615556988A170.6070045455344,170.6070045455344,0,0,0,-43.26962936203945,165.02875257018619Z" fill-rule="evenodd" style="fill: #D7A449; stroke: #fff; opacity: 1;" id="p-type-tokenTransfers"></path><path d="M-52.021494031265284,190.00727396274866A197,197,0,0,1,-54.07343856485418,189.4335325167457L-46.828971467140875,164.05425148812725A170.6070045455344,170.6070045455344,0,0,0,-45.05193537389628,164.55112615556988Z" fill-rule="evenodd" style="fill: #D7A449; stroke: #fff; opacity: 1;" id="p-type-tokenTransfers"></path><path d="M-54.07343856485418,189.4335325167457A197,197,0,0,1,-56.11905789580849,188.83763221584542L-48.60052977421984,163.53818668942483A170.6070045455344,170.6070045455344,0,0,0,-46.828971467140875,164.05425148812725Z" fill-rule="evenodd" style="fill: #D7A449; stroke: #fff; opacity: 1;" id="p-type-tokenTransfers"></path><path d="M-56.11905789580849,188.83763221584542A197,197,0,0,1,-58.158112739238526,188.21964276506856L-50.36640306833995,163.0029921257813A170.6070045455344,170.6070045455344,0,0,0,-48.60052977421984,163.53818668942483Z" fill-rule="evenodd" style="fill: #D7A449; stroke: #fff; opacity: 1;" id="p-type-tokenTransfers"></path><path d="M-58.158112739238526,188.21964276506856A197,197,0,0,1,-60.19036457813095,187.57963645329863L-52.12638478770843,162.44873040120615A170.6070045455344,170.6070045455344,0,0,0,-50.36640306833995,163.0029921257813Z" fill-rule="evenodd" style="fill: #D7A449; stroke: #fff; opacity: 1;" id="p-type-tokenTransfers"></path><path d="M-158.0111113476201,117.64985631393691A197,197,0,0,1,-164.13924541498562,108.93717508086537L-142.148756287386,94.34236103654251A170.6070045455344,170.6070045455344,0,0,0,-136.84163650725057,101.8877643194584Z" fill-rule="evenodd" style="fill: #414552; stroke: #fff; opacity: 1;" id="p-type-ether"></path><path d="M-164.13924541498562,108.93717508086537A197,197,0,0,1,-165.18567312467084,107.34380929680756L-143.05498926719736,92.96246579002755A170.6070045455344,170.6070045455344,0,0,0,-142.148756287386,94.34236103654251Z" fill-rule="evenodd" style="fill: #414552; stroke: #fff; opacity: 1;" id="p-type-ether"></path><path d="M-165.18567312467084,107.34380929680756A197,197,0,0,1,-166.21127575545265,105.74881470609911L-143.94318719964255,91.58115995557527A170.6070045455344,170.6070045455344,0,0,0,-143.05498926719736,92.96246579002755Z" fill-rule="evenodd" style="fill: #414552; stroke: #fff; opacity: 1;" id="p-type-ether"></path></g></svg>