<svg xmlns="http://www.w3.org/2000/svg" width="400" height="400" id="block-7907926"><g id="burst-container" transform="translate(200,200)"><circle r="197" style="fill: #f9f9f9; stroke: #f9f9f9; stroke-width: 3; opacity: 1;" id="circle-base"></circle><path display="none" d="M6.031385485800715e-15,-98.5A98.5,98.5,0,1,1,-6.031385485800715e-15,98.5A98.5,98.5,0,1,1,6.031385485800715e-15,-98.5Z" fill-rule="evenodd" id="p-type-root" style="stroke: #fff; opacity: 1;"></path><path d="M8.529667153919608e-15,-139.30003589374985A139.30003589374985,139.30003589374985,0,1,1,-86.7394811933062,-108.99891009691828L-61.33407534838983,-77.07386847147377A98.5,98.5,0,1,0,6.031385485800715e-15,-98.5Z" fill-rule="evenodd" style="fill: #0B1F65; stroke: #fff; opacity: 1;" id="p-type-data"></path><path d="M-86.7394811933062,-108.99891009691828A139.30003589374985,139.30003589374985,0,0,1,-0.737260441107228,-139.298084864947L-0.5213218574075063,-98.4986204143032A98.5,98.5,0,0,0,-61.33407534838983,-77.07386847147377Z" fill-rule="evenodd" style="fill: #D7A449; stroke: #fff; opacity: 1;" id="p-type-value"></path><path d="M1.0446666101440332e-14,-170.6070045455344A170.6070045455344,170.6070045455344,0,0,1,145.87345037388116,88.47421362192955L119.10517347840428,72.23889292257472A139.30003589374985,139.30003589374985,0,0,0,8.529667153919608e-15,-139.30003589374985Z" fill-rule="evenodd" style="fill: #DB3F29; stroke: #fff; opacity: 1;" id="p-type-functions"></path><path d="M145.87345037388116,88.47421362192955A170.6070045455344,170.6070045455344,0,0,1,-97.9747907433997,139.66993369650837L-79.99608165909527,114.04002332160127A139.30003589374985,139.30003589374985,0,0,0,119.10517347840428,72.23889292257472Z" fill-rule="evenodd" style="fill: #414552; stroke: #fff; opacity: 1;" id="p-type-ether"></path><path d="M-97.9747907433997,139.66993369650837A170.6070045455344,170.6070045455344,0,0,1,-160.5461807848572,57.720653456071936L-131.0854076918405,47.12871619579686A139.30003589374985,139.30003589374985,0,0,0,-79.99608165909527,114.04002332160127Z" fill-rule="evenodd" style="fill: #1DC690; stroke: #fff; opacity: 1;" id="p-type-logs"></path><path d="M-160.5461807848572,57.720653456071936A170.6070045455344,170.6070045455344,0,0,1,-166.4510761994878,-37.427118938442256L-135.90673460862217,-30.559114647213445A139.30003589374985,139.30003589374985,0,0,0,-131.0854076918405,47.12871619579686Z" fill-rule="evenodd" style="fill: #D7A449; stroke: #fff; opacity: 1;" id="p-type-tokenTransfers"></path><path d="M-106.23373473866897,-133.49585612847358A170.6070045455344,170.6070045455344,0,0,1,-49.396716131338295,-163.29946244688003L-40.33224983029516,-133.33345275521313A139.30003589374985,139.30003589374985,0,0,0,-86.7394811933062,-108.99891009691828Z" fill-rule="evenodd" style="fill: #414552; stroke: #fff; opacity: 1;" id="p-type-ether"></path><path d="M-49.396716131338295,-163.29946244688003A170.6070045455344,170.6070045455344,0,0,1,-1.8058865947470966,-170.59744656238823L-1.4745002301542183,-139.29223183319044A139.30003589374985,139.30003589374985,0,0,0,-40.33224983029516,-133.33345275521313Z" fill-rule="evenodd" style="fill: #D7A449; stroke: #fff; opacity: 1;" id="p-type-tokenTransfers"></path><path d="M1.206277097160143e-14,-197A197,197,0,0,1,88.66214161878283,-175.9205066033261L76.78366699579948,-152.35162776510847A170.6070045455344,170.6070045455344,0,0,0,1.0446666101440332e-14,-170.6070045455344Z" fill-rule="evenodd" style="fill: #DB3F29; stroke: #fff; opacity: 1;" id="p-type-functions"></path><path d="M88.66214161878283,-175.9205066033261A197,197,0,0,1,115.97519356736485,-159.24432321753972L100.43746383815558,-137.90962931484947A170.6070045455344,170.6070045455344,0,0,0,76.78366699579948,-152.35162776510847Z" fill-rule="evenodd" style="fill: #DB3F29; stroke: #fff; opacity: 1;" id="p-type-functions"></path><path d="M115.97519356736485,-159.24432321753972A197,197,0,0,1,131.38545891137179,-146.78849132901476L113.78314510512453,-127.12256247411857A170.6070045455344,170.6070045455344,0,0,0,100.43746383815558,-137.90962931484947Z" fill-rule="evenodd" style="fill: #DB3F29; stroke: #fff; opacity: 1;" id="p-type-functions"></path><path d="M131.38545891137179,-146.78849132901476A197,197,0,0,1,140.80296548083228,-137.78071313432645L121.93894503458414,-119.32159772586296A170.6070045455344,170.6070045455344,0,0,0,113.78314510512453,-127.12256247411857Z" fill-rule="evenodd" style="fill: #DB3F29; stroke: #fff; opacity: 1;" id="p-type-functions"></path><path d="M140.80296548083228,-137.78071313432645A197,197,0,0,1,148.37212660977087,-129.5944136345935L128.4940308575827,-112.2320543961064A170.6070045455344,170.6070045455344,0,0,0,121.93894503458414,-119.32159772586296Z" fill-rule="evenodd" style="fill: #DB3F29; stroke: #fff; opacity: 1;" id="p-type-functions"></path><path d="M148.37212660977087,-129.5944136345935A197,197,0,0,1,152.97179937823634,-124.13149719142442L132.47746432416926,-107.50102997757024A170.6070045455344,170.6070045455344,0,0,0,128.4940308575827,-112.2320543961064Z" fill-rule="evenodd" style="fill: #DB3F29; stroke: #fff; opacity: 1;" id="p-type-functions"></path><path d="M152.97179937823634,-124.13149719142442A197,197,0,0,1,157.20597383083964,-118.72355196799565L136.1443669641788,-102.81761203180622A170.6070045455344,170.6070045455344,0,0,0,132.47746432416926,-107.50102997757024Z" fill-rule="evenodd" style="fill: #DB3F29; stroke: #fff; opacity: 1;" id="p-type-functions"></path><path d="M157.20597383083964,-118.72355196799565A197,197,0,0,1,161.19636526533748,-113.24633250239899L139.60014731749774,-98.07420083249687A170.6070045455344,170.6070045455344,0,0,0,136.1443669641788,-102.81761203180622Z" fill-rule="evenodd" style="fill: #DB3F29; stroke: #fff; opacity: 1;" id="p-type-functions"></path><path d="M161.19636526533748,-113.24633250239899A197,197,0,0,1,164.13631092574894,-108.94159644362598L142.1462149451599,-94.34619004901256A170.6070045455344,170.6070045455344,0,0,0,139.60014731749774,-98.07420083249687Z" fill-rule="evenodd" style="fill: #DB3F29; stroke: #fff; opacity: 1;" id="p-type-functions"></path><path d="M164.13631092574894,-108.94159644362598A197,197,0,0,1,165.72015493460842,-106.51680735193573L143.51786409246398,-92.2462610967894A170.6070045455344,170.6070045455344,0,0,0,142.1462149451599,-94.34619004901256Z" fill-rule="evenodd" style="fill: #DB3F29; stroke: #fff; opacity: 1;" id="p-type-functions"></path><path d="M165.72015493460842,-106.51680735193573A197,197,0,0,1,167.11590393346785,-104.31334839079773L144.72661818278294,-90.33800966024742A170.6070045455344,170.6070045455344,0,0,0,143.51786409246398,-92.2462610967894Z" fill-rule="evenodd" style="fill: #DB3F29; stroke: #fff; opacity: 1;" id="p-type-functions"></path><path d="M167.11590393346785,-104.31334839079773A197,197,0,0,1,168.48017486547798,-102.09520398773863L145.9081114675484,-88.41704025793598A170.6070045455344,170.6070045455344,0,0,0,144.72661818278294,-90.33800966024742Z" fill-rule="evenodd" style="fill: #DB3F29; stroke: #fff; opacity: 1;" id="p-type-functions"></path><path d="M168.48017486547798,-102.09520398773863A197,197,0,0,1,169.78337671267047,-99.91298710399678L147.0367173734759,-86.52718500004823A170.6070045455344,170.6070045455344,0,0,0,145.9081114675484,-88.41704025793598Z" fill-rule="evenodd" style="fill: #DB3F29; stroke: #fff; opacity: 1;" id="p-type-functions"></path><path d="M169.78337671267047,-99.91298710399678A197,197,0,0,1,170.83121340493386,-98.11063411576723L147.94417056799344,-84.96630152565463A170.6070045455344,170.6070045455344,0,0,0,147.0367173734759,-86.52718500004823Z" fill-rule="evenodd" style="fill: #DB3F29; stroke: #fff; opacity: 1;" id="p-type-functions"></path><path d="M170.83121340493386,-98.11063411576723A197,197,0,0,1,171.68895664948974,-96.60177102211753L148.68699800770332,-83.65958775572122A170.6070045455344,170.6070045455344,0,0,0,147.94417056799344,-84.96630152565463Z" fill-rule="evenodd" style="fill: #DB3F29; stroke: #fff; opacity: 1;" id="p-type-functions"></path><path d="M171.68895664948974,-96.60177102211753A197,197,0,0,1,172.45034875464964,-95.23590296941437L149.34638291301272,-82.47671132386269A170.6070045455344,170.6070045455344,0,0,0,148.68699800770332,-83.65958775572122Z" fill-rule="evenodd" style="fill: #DB3F29; stroke: #fff; opacity: 1;" id="p-type-functions"></path><path d="M172.45034875464964,-95.23590296941437A197,197,0,0,1,173.17443756126795,-93.91280091307313L149.97346221414014,-81.33087133127175A170.6070045455344,170.6070045455344,0,0,0,149.34638291301272,-82.47671132386269Z" fill-rule="evenodd" style="fill: #DB3F29; stroke: #fff; opacity: 1;" id="p-type-functions"></path><path d="M173.17443756126795,-93.91280091307313A197,197,0,0,1,173.81393637601616,-92.72386705414205L150.52728443340212,-80.30122440601798A170.6070045455344,170.6070045455344,0,0,0,149.97346221414014,-81.33087133127175Z" fill-rule="evenodd" style="fill: #DB3F29; stroke: #fff; opacity: 1;" id="p-type-functions"></path><path d="M173.81393637601616,-92.72386705414205A197,197,0,0,1,174.43548093000584,-91.54923807830171L151.06555780674105,-79.28396587291896A170.6070045455344,170.6070045455344,0,0,0,150.52728443340212,-80.30122440601798Z" fill-rule="evenodd" style="fill: #DB3F29; stroke: #fff; opacity: 1;" id="p-type-functions"></path><path d="M174.43548093000584,-91.54923807830171A197,197,0,0,1,175.0359244591923,-90.395935465683L151.5855571565545,-78.28517651214017A170.6070045455344,170.6070045455344,0,0,0,151.06555780674105,-79.28396587291896Z" fill-rule="evenodd" style="fill: #DB3F29; stroke: #fff; opacity: 1;" id="p-type-functions"></path><path d="M175.0359244591923,-90.395935465683A197,197,0,0,1,175.52605653743043,-89.440502438318L152.0100239875184,-77.45774723882742A170.6070045455344,170.6070045455344,0,0,0,151.5855571565545,-78.28517651214017Z" fill-rule="evenodd" style="fill: #DB3F29; stroke: #fff; opacity: 1;" id="p-type-functions"></path><path d="M175.52605653743043,-89.440502438318A197,197,0,0,1,175.9992154496766,-88.50579733044789L152.41979162555057,-76.64826887036483A170.6070045455344,170.6070045455344,0,0,0,152.0100239875184,-77.45774723882742Z" fill-rule="evenodd" style="fill: #DB3F29; stroke: #fff; opacity: 1;" id="p-type-functions"></path><path d="M168.4401516819596,102.16122210192297A197,197,0,0,1,104.43778717910057,167.038165127413L90.44577681213383,144.65929440187958A170.6070045455344,170.6070045455344,0,0,0,145.87345037388116,88.47421362192955Z" fill-rule="evenodd" style="fill: #414552; stroke: #fff; opacity: 1;" id="p-type-ether"></path><path d="M104.43778717910057,167.038165127413A197,197,0,0,1,76.01507842083416,181.74352217527434L65.83098898310867,157.394507177048A170.6070045455344,170.6070045455344,0,0,0,90.44577681213383,144.65929440187958Z" fill-rule="evenodd" style="fill: #414552; stroke: #fff; opacity: 1;" id="p-type-ether"></path><path d="M76.01507842083416,181.74352217527434A197,197,0,0,1,57.37348576557131,188.4602959010406L49.68689617664963,163.2114038550335A170.6070045455344,170.6070045455344,0,0,0,65.83098898310867,157.394507177048Z" fill-rule="evenodd" style="fill: #414552; stroke: #fff; opacity: 1;" id="p-type-ether"></path><path d="M57.37348576557131,188.4602959010406A197,197,0,0,1,44.78782329998894,191.8412126839511L38.787392757999015,166.13936367711514A170.6070045455344,170.6070045455344,0,0,0,49.68689617664963,163.2114038550335Z" fill-rule="evenodd" style="fill: #414552; stroke: #fff; opacity: 1;" id="p-type-ether"></path><path d="M44.78782329998894,191.8412126839511A197,197,0,0,1,33.86307060624425,194.0677522132838L29.32627939515363,168.06760347204747A170.6070045455344,170.6070045455344,0,0,0,38.787392757999015,166.13936367711514Z" fill-rule="evenodd" style="fill: #414552; stroke: #fff; opacity: 1;" id="p-type-ether"></path><path d="M33.86307060624425,194.0677522132838A197,197,0,0,1,26.806813420413615,195.16760682614094L23.21538141658781,169.02010550725126A170.6070045455344,170.6070045455344,0,0,0,29.32627939515363,168.06760347204747Z" fill-rule="evenodd" style="fill: #414552; stroke: #fff; opacity: 1;" id="p-type-ether"></path><path d="M26.806813420413615,195.16760682614094A197,197,0,0,1,19.987099966643292,195.98345806450965L17.309336319092196,169.72665340538757A170.6070045455344,170.6070045455344,0,0,0,23.21538141658781,169.02010550725126Z" fill-rule="evenodd" style="fill: #414552; stroke: #fff; opacity: 1;" id="p-type-ether"></path><path d="M19.987099966643292,195.98345806450965A197,197,0,0,1,13.234358950808288,196.5549585819731L11.461291054201947,170.22158737178688A170.6070045455344,170.6070045455344,0,0,0,17.309336319092196,169.72665340538757Z" fill-rule="evenodd" style="fill: #414552; stroke: #fff; opacity: 1;" id="p-type-ether"></path><path d="M13.234358950808288,196.5549585819731A197,197,0,0,1,6.466175385090548,196.89385103626077L5.59987214881404,170.51507684635087A170.6070045455344,170.6070045455344,0,0,0,11.461291054201947,170.22158737178688Z" fill-rule="evenodd" style="fill: #414552; stroke: #fff; opacity: 1;" id="p-type-ether"></path><path d="M6.466175385090548,196.89385103626077A197,197,0,0,1,1.2543045876782715,196.99600686308676L1.0862596370127489,170.60354638752676A170.6070045455344,170.6070045455344,0,0,0,5.59987214881404,170.51507684635087Z" fill-rule="evenodd" style="fill: #414552; stroke: #fff; opacity: 1;" id="p-type-ether"></path><path d="M1.2543045876782715,196.99600686308676A197,197,0,0,1,-2.400202846431724,196.98537769666046L-2.0786366392455924,170.59434125938054A170.6070045455344,170.6070045455344,0,0,0,1.0862596370127489,170.60354638752676Z" fill-rule="evenodd" style="fill: #414552; stroke: #fff; opacity: 1;" id="p-type-ether"></path><path d="M-2.400202846431724,196.98537769666046A197,197,0,0,1,-5.2958829628934225,196.92880343830694L-4.586369181334905,170.54534651444612A170.6070045455344,170.6070045455344,0,0,0,-2.0786366392455924,170.59434125938054Z" fill-rule="evenodd" style="fill: #414552; stroke: #fff; opacity: 1;" id="p-type-ether"></path><path d="M-5.2958829628934225,196.92880343830694A197,197,0,0,1,-7.902741552313818,196.8414252030231L-6.843974943846635,170.46967474295246A170.6070045455344,170.6070045455344,0,0,0,-4.586369181334905,170.54534651444612Z" fill-rule="evenodd" style="fill: #414552; stroke: #fff; opacity: 1;" id="p-type-ether"></path><path d="M-7.902741552313818,196.8414252030231A197,197,0,0,1,-10.504010176988325,196.71976456421893L-9.096739654882166,170.3643135391074A170.6070045455344,170.6070045455344,0,0,0,-6.843974943846635,170.46967474295246Z" fill-rule="evenodd" style="fill: #414552; stroke: #fff; opacity: 1;" id="p-type-ether"></path><path d="M-10.504010176988325,196.71976456421893A197,197,0,0,1,-13.041200217064029,196.56786893309507L-11.294010683816584,170.23276806383026A170.6070045455344,170.6070045455344,0,0,0,-9.096739654882166,170.3643135391074Z" fill-rule="evenodd" style="fill: #414552; stroke: #fff; opacity: 1;" id="p-type-ether"></path><path d="M-13.041200217064029,196.56786893309507A197,197,0,0,1,-15.418318884635275,196.3957113655278L-13.3526558377435,170.08367523686326A170.6070045455344,170.6070045455344,0,0,0,-11.294010683816584,170.23276806383026Z" fill-rule="evenodd" style="fill: #414552; stroke: #fff; opacity: 1;" id="p-type-ether"></path><path d="M-15.418318884635275,196.3957113655278A197,197,0,0,1,-17.495842600019166,196.22154696086602L-15.15184415223058,169.93284443799118A170.6070045455344,170.6070045455344,0,0,0,-13.3526558377435,170.08367523686326Z" fill-rule="evenodd" style="fill: #414552; stroke: #fff; opacity: 1;" id="p-type-ether"></path><path d="M-17.495842600019166,196.22154696086602A197,197,0,0,1,-19.223912603318578,196.05978981989136L-16.64839667460573,169.79275864466356A170.6070045455344,170.6070045455344,0,0,0,-15.15184415223058,169.93284443799118Z" fill-rule="evenodd" style="fill: #414552; stroke: #fff; opacity: 1;" id="p-type-ether"></path><path d="M-19.223912603318578,196.05978981989136A197,197,0,0,1,-20.77958130323113,195.90101837627697L-17.99564528860231,169.655258541098A170.6070045455344,170.6070045455344,0,0,0,-16.64839667460573,169.79275864466356Z" fill-rule="evenodd" style="fill: #414552; stroke: #fff; opacity: 1;" id="p-type-ether"></path><path d="M-20.77958130323113,195.90101837627697A197,197,0,0,1,-22.27882559648262,195.73618451896294L-19.294028933036945,169.5125082332603A170.6070045455344,170.6070045455344,0,0,0,-17.99564528860231,169.655258541098Z" fill-rule="evenodd" style="fill: #414552; stroke: #fff; opacity: 1;" id="p-type-ether"></path><path d="M-22.27882559648262,195.73618451896294A197,197,0,0,1,-23.619642199642563,195.5789163032684L-20.455210173189414,169.37630996326095A170.6070045455344,170.6070045455344,0,0,0,-19.294028933036945,169.5125082332603Z" fill-rule="evenodd" style="fill: #414552; stroke: #fff; opacity: 1;" id="p-type-ether"></path><path d="M-23.619642199642563,195.5789163032684A197,197,0,0,1,-24.938446814561846,195.41513214302844L-21.597328472337672,169.23446871975563A170.6070045455344,170.6070045455344,0,0,0,-20.455210173189414,169.37630996326095Z" fill-rule="evenodd" style="fill: #414552; stroke: #fff; opacity: 1;" id="p-type-ether"></path><path d="M-24.938446814561846,195.41513214302844A197,197,0,0,1,-26.23060869542209,195.2458838681821L-22.716373486964525,169.087895414192A170.6070045455344,170.6070045455344,0,0,0,-21.597328472337672,169.23446871975563Z" fill-rule="evenodd" style="fill: #414552; stroke: #fff; opacity: 1;" id="p-type-ether"></path><path d="M-26.23060869542209,195.2458838681821A197,197,0,0,1,-27.51869863997144,195.06850392916442L-23.83189210130355,168.93427988088098A170.6070045455344,170.6070045455344,0,0,0,-22.716373486964525,169.087895414192Z" fill-rule="evenodd" style="fill: #414552; stroke: #fff; opacity: 1;" id="p-type-ether"></path><path d="M-27.51869863997144,195.06850392916442A197,197,0,0,1,-28.750166369789824,194.8908102854247L-24.89837443926702,168.78039267131135A170.6070045455344,170.6070045455344,0,0,0,-23.83189210130355,168.93427988088098Z" fill-rule="evenodd" style="fill: #414552; stroke: #fff; opacity: 1;" id="p-type-ether"></path><path d="M-28.750166369789824,194.8908102854247A197,197,0,0,1,-29.812054879575953,194.7312029025065L-25.817996864728606,168.64216862307265A170.6070045455344,170.6070045455344,0,0,0,-24.89837443926702,168.78039267131135Z" fill-rule="evenodd" style="fill: #414552; stroke: #fff; opacity: 1;" id="p-type-ether"></path><path d="M-29.812054879575953,194.7312029025065A197,197,0,0,1,-30.84720588507995,194.56991003000306L-26.714463932248076,168.5024848980353A170.6070045455344,170.6070045455344,0,0,0,-25.817996864728606,168.64216862307265Z" fill-rule="evenodd" style="fill: #414552; stroke: #fff; opacity: 1;" id="p-type-ether"></path></g></svg>