<svg xmlns="http://www.w3.org/2000/svg" width="400" height="400" id="block-7907924"><g id="burst-container" transform="translate(200,200)"><circle r="197" style="fill: #f9f9f9; stroke: #f9f9f9; stroke-width: 3; opacity: 1;" id="circle-base"></circle><path display="none" d="M6.031385485800715e-15,-98.5A98.5,98.5,0,1,1,-6.031385485800715e-15,98.5A98.5,98.5,0,1,1,6.031385485800715e-15,-98.5Z" fill-rule="evenodd" id="p-type-root" style="stroke: #fff; opacity: 1;"></path><path d="M8.529667153919608e-15,-139.30003589374985A139.30003589374985,139.30003589374985,0,1,1,-113.05964261271079,-81.37577779834801L-79.94523996997536,-57.541364305541585A98.5,98.5,0,1,0,6.031385485800715e-15,-98.5Z" fill-rule="evenodd" style="fill: #0B1F65; stroke: #fff; opacity: 1;" id="p-type-data"></path><path d="M-113.05964261271079,-81.37577779834801A139.30003589374985,139.30003589374985,0,0,1,-3.996651362233984,-139.24269021348573L-2.8260592802741034,-98.45945048061347A98.5,98.5,0,0,0,-79.94523996997536,-57.541364305541585Z" fill-rule="evenodd" style="fill: #D7A449; stroke: #fff; opacity: 1;" id="p-type-value"></path><path d="M1.0446666101440332e-14,-170.6070045455344A170.6070045455344,170.6070045455344,0,0,1,170.14002676549816,-12.614328846021477L138.91875013298102,-10.299556373474523A139.30003589374985,139.30003589374985,0,0,0,8.529667153919608e-15,-139.30003589374985Z" fill-rule="evenodd" style="fill: #DB3F29; stroke: #fff; opacity: 1;" id="p-type-functions"></path><path d="M170.14002676549816,-12.614328846021477A170.6070045455344,170.6070045455344,0,0,1,49.78859559633084,163.18040859289763L40.65221807359737,133.23624569049025A139.30003589374985,139.30003589374985,0,0,0,138.91875013298102,-10.299556373474523Z" fill-rule="evenodd" style="fill: #1DC690; stroke: #fff; opacity: 1;" id="p-type-logs"></path><path d="M49.78859559633084,163.18040859289763A170.6070045455344,170.6070045455344,0,0,1,-141.76428392987086,94.91911188928684L-115.75005312640693,77.50113032229898A139.30003589374985,139.30003589374985,0,0,0,40.65221807359737,133.23624569049025Z" fill-rule="evenodd" style="fill: #D7A449; stroke: #fff; opacity: 1;" id="p-type-tokenTransfers"></path><path d="M-141.76428392987086,94.91911188928684A170.6070045455344,170.6070045455344,0,0,1,-163.26827336995345,49.49970616876572L-133.3079869805403,40.41634084372428A139.30003589374985,139.30003589374985,0,0,0,-115.75005312640693,77.50113032229898Z" fill-rule="evenodd" style="fill: #414552; stroke: #fff; opacity: 1;" id="p-type-ether"></path><path d="M-138.4692174512835,-99.66456651402827A170.6070045455344,170.6070045455344,0,0,1,-50.6290706737036,-162.92159833096753L-41.338463100627195,-133.02492799651532A139.30003589374985,139.30003589374985,0,0,0,-113.05964261271079,-81.37577779834801Z" fill-rule="evenodd" style="fill: #D7A449; stroke: #fff; opacity: 1;" id="p-type-tokenTransfers"></path><path d="M-50.6290706737036,-162.92159833096753A170.6070045455344,170.6070045455344,0,0,1,-9.785726365783477,-170.3261270606891L-7.990012119556511,-139.07070038771408A139.30003589374985,139.30003589374985,0,0,0,-41.338463100627195,-133.02492799651532Z" fill-rule="evenodd" style="fill: #414552; stroke: #fff; opacity: 1;" id="p-type-ether"></path><path d="M1.206277097160143e-14,-197A197,197,0,0,1,2.826350176313274,-196.97972419688492L2.4476910526779223,-170.58944518495463A170.6070045455344,170.6070045455344,0,0,0,1.0446666101440332e-14,-170.6070045455344Z" fill-rule="evenodd" style="fill: #DB3F29; stroke: #fff; opacity: 1;" id="p-type-functions"></path><path d="M2.826350176313274,-196.97972419688492A197,197,0,0,1,5.65211856054827,-196.91890096122694L4.894878258636336,-170.53677071773444A170.6070045455344,170.6070045455344,0,0,0,2.4476910526779223,-170.58944518495463Z" fill-rule="evenodd" style="fill: #DB3F29; stroke: #fff; opacity: 1;" id="p-type-functions"></path><path d="M5.65211856054827,-196.91890096122694A197,197,0,0,1,8.476723480386099,-196.8175428132286L7.341057874870402,-170.44899198668733A170.6070045455344,170.6070045455344,0,0,0,4.894878258636336,-170.53677071773444Z" fill-rule="evenodd" style="fill: #DB3F29; stroke: #fff; opacity: 1;" id="p-type-functions"></path><path d="M8.476723480386099,-196.8175428132286A197,197,0,0,1,11.29958350300215,-196.6756706170305L9.78572636578342,-170.3261270606891A170.6070045455344,170.6070045455344,0,0,0,7.341057874870402,-170.44899198668733Z" fill-rule="evenodd" style="fill: #DB3F29; stroke: #fff; opacity: 1;" id="p-type-functions"></path><path d="M11.29958350300215,-196.6756706170305A197,197,0,0,1,14.120117554751308,-196.49331357641665L12.228380506837242,-170.16820123095854A170.6070045455344,170.6070045455344,0,0,0,9.78572636578342,-170.3261270606891Z" fill-rule="evenodd" style="fill: #DB3F29; stroke: #fff; opacity: 1;" id="p-type-functions"></path><path d="M14.120117554751308,-196.49331357641665A197,197,0,0,1,16.937745040779635,-196.27050922880275L14.668517488139056,-169.9752470058513A170.6070045455344,170.6070045455344,0,0,0,12.228380506837242,-170.16820123095854Z" fill-rule="evenodd" style="fill: #DB3F29; stroke: #fff; opacity: 1;" id="p-type-functions"></path><path d="M16.937745040779635,-196.27050922880275A197,197,0,0,1,19.751885964537255,-196.00730343750948L17.105635017942564,-169.74730410416814A170.6070045455344,170.6070045455344,0,0,0,14.668517488139056,-169.9752470058513Z" fill-rule="evenodd" style="fill: #DB3F29; stroke: #fff; opacity: 1;" id="p-type-functions"></path><path d="M19.751885964537255,-196.00730343750948A197,197,0,0,1,22.561961047168342,-195.70375038232163L19.53923142604274,-169.48441944697908A170.6070045455344,170.6070045455344,0,0,0,17.105635017942564,-169.74730410416814Z" fill-rule="evenodd" style="fill: #DB3F29; stroke: #fff; opacity: 1;" id="p-type-functions"></path><path d="M22.561961047168342,-195.70375038232163A197,197,0,0,1,25.367391846752906,-195.3599125483355L21.968805767042262,-169.18664714796486A170.6070045455344,170.6070045455344,0,0,0,19.53923142604274,-169.48441944697908Z" fill-rule="evenodd" style="fill: #DB3F29; stroke: #fff; opacity: 1;" id="p-type-functions"></path><path d="M25.367391846752906,-195.3599125483355A197,197,0,0,1,28.16760087737678,-194.9758607130965L24.393857923469135,-168.85404850227783A170.6070045455344,170.6070045455344,0,0,0,21.968805767042262,-169.18664714796486Z" fill-rule="evenodd" style="fill: #DB3F29; stroke: #fff; opacity: 1;" id="p-type-functions"></path><path d="M28.16760087737678,-194.9758607130965A197,197,0,0,1,30.96201172800454,-194.55167393202998L26.813888708723656,-168.4866919739247A170.6070045455344,170.6070045455344,0,0,0,24.393857923469135,-168.85404850227783Z" fill-rule="evenodd" style="fill: #DB3F29; stroke: #fff; opacity: 1;" id="p-type-functions"></path><path d="M30.96201172800454,-194.55167393202998A197,197,0,0,1,33.750049181131395,-194.08743952216798L29.228399969833976,-168.08465318167333A170.6070045455344,170.6070045455344,0,0,0,26.813888708723656,-168.4866919739247Z" fill-rule="evenodd" style="fill: #DB3F29; stroke: #fff; opacity: 1;" id="p-type-functions"></path><path d="M33.750049181131395,-194.08743952216798A197,197,0,0,1,36.531139331188996,-193.58325304417545L31.636894689998535,-167.64801488348718A170.6070045455344,170.6070045455344,0,0,0,29.228399969833976,-168.08465318167333Z" fill-rule="evenodd" style="fill: #DB3F29; stroke: #fff; opacity: 1;" id="p-type-functions"></path><path d="M36.531139331188996,-193.58325304417545A197,197,0,0,1,39.30470970268164,-193.03921828267934L34.038877090895014,-167.1768669594898A170.6070045455344,170.6070045455344,0,0,0,31.636894689998535,-167.64801488348718Z" fill-rule="evenodd" style="fill: #DB3F29; stroke: #fff; opacity: 1;" id="p-type-functions"></path><path d="M39.30470970268164,-193.03921828267934A197,197,0,0,1,42.07018936802778,-192.4554472249052L36.43385273473406,-166.67130639346325A170.6070045455344,170.6070045455344,0,0,0,34.038877090895014,-167.1768669594898Z" fill-rule="evenodd" style="fill: #DB3F29; stroke: #fff; opacity: 1;" id="p-type-functions"></path><path d="M42.07018936802778,-192.4554472249052A197,197,0,0,1,44.82700906508321,-191.83206003762496L38.82132862603738,-166.13143725288484A170.6070045455344,170.6070045455344,0,0,0,36.43385273473406,-166.67130639346325Z" fill-rule="evenodd" style="fill: #DB3F29; stroke: #fff; opacity: 1;" id="p-type-functions"></path><path d="M44.82700906508321,-191.83206003762496A197,197,0,0,1,47.57460131432096,-191.16918504242102L41.200813313118495,-165.55737066750473A170.6070045455344,170.6070045455344,0,0,0,38.82132862603738,-166.13143725288484Z" fill-rule="evenodd" style="fill: #DB3F29; stroke: #fff; opacity: 1;" id="p-type-functions"></path><path d="M47.57460131432096,-191.16918504242102A197,197,0,0,1,50.31240053564472,-190.46695868927202L43.57181698924612,-164.9492248064708A170.6070045455344,170.6070045455344,0,0,0,41.200813313118495,-165.55737066750473Z" fill-rule="evenodd" style="fill: #DB3F29; stroke: #fff; opacity: 1;" id="p-type-functions"></path><path d="M50.31240053564472,-190.46695868927202A197,197,0,0,1,53.03984316481102,-189.72552552846506L45.93385159346876,-164.30712485400377A170.6070045455344,170.6070045455344,0,0,0,43.57181698924612,-164.9492248064708Z" fill-rule="evenodd" style="fill: #DB3F29; stroke: #fff; opacity: 1;" id="p-type-functions"></path><path d="M53.03984316481102,-189.72552552846506A197,197,0,0,1,55.756367769436594,-188.94503818084064L48.28643091107998,-163.6312029836287A170.6070045455344,170.6070045455344,0,0,0,45.93385159346876,-164.30712485400377Z" fill-rule="evenodd" style="fill: #DB3F29; stroke: #fff; opacity: 1;" id="p-type-functions"></path><path d="M55.756367769436594,-188.94503818084064A197,197,0,0,1,58.4614151645667,-188.12565730637638L50.62907067370358,-162.92159833096753A170.6070045455344,170.6070045455344,0,0,0,48.28643091107998,-163.6312029836287Z" fill-rule="evenodd" style="fill: #DB3F29; stroke: #fff; opacity: 1;" id="p-type-functions"></path><path d="M58.4614151645667,-188.12565730637638A197,197,0,0,1,61.154428527781015,-187.26755157111583L52.96128865897815,-162.17845696509875A170.6070045455344,170.6070045455344,0,0,0,50.62907067370358,-162.92159833096753Z" fill-rule="evenodd" style="fill: #DB3F29; stroke: #fff; opacity: 1;" id="p-type-functions"></path><path d="M61.154428527781015,-187.26755157111583A197,197,0,0,1,63.83485351381316,-186.37089761244917L55.28260478982053,-161.40193185848958A170.6070045455344,170.6070045455344,0,0,0,52.96128865897815,-162.17845696509875Z" fill-rule="evenodd" style="fill: #DB3F29; stroke: #fff; opacity: 1;" id="p-type-functions"></path><path d="M63.83485351381316,-186.37089761244917A197,197,0,0,1,66.50213836866023,-185.4358800027534L57.59254123324758,-160.59218285550725A170.6070045455344,170.6070045455344,0,0,0,55.28260478982053,-161.40193185848958Z" fill-rule="evenodd" style="fill: #DB3F29; stroke: #fff; opacity: 1;" id="p-type-functions"></path><path d="M66.50213836866023,-185.4358800027534A197,197,0,0,1,69.15573404315917,-184.46269121139872L59.89062249873617,-159.7493766395158A170.6070045455344,170.6070045455344,0,0,0,57.59254123324758,-160.59218285550725Z" fill-rule="evenodd" style="fill: #DB3F29; stroke: #fff; opacity: 1;" id="p-type-functions"></path><path d="M69.15573404315917,-184.46269121139872A197,197,0,0,1,71.79509430600596,-183.45153156512953L62.176375536100664,-158.873686698565A170.6070045455344,170.6070045455344,0,0,0,59.89062249873617,-159.7493766395158Z" fill-rule="evenodd" style="fill: #DB3F29; stroke: #fff; opacity: 1;" id="p-type-functions"></path><path d="M71.79509430600596,-183.45153156512953A197,197,0,0,1,74.4196758561951,-182.40260920682812L64.44932983286839,-157.96529328967847A170.6070045455344,170.6070045455344,0,0,0,62.176375536100664,-158.873686698565Z" fill-rule="evenodd" style="fill: #DB3F29; stroke: #fff; opacity: 1;" id="p-type-functions"></path><path d="M74.4196758561951,-182.40260920682812A197,197,0,0,1,77.02893843485586,-181.31614005266928L66.70901751113271,-157.02438340174874A170.6070045455344,170.6070045455344,0,0,0,64.44932983286839,-157.96529328967847Z" fill-rule="evenodd" style="fill: #DB3F29; stroke: #fff; opacity: 1;" id="p-type-functions"></path><path d="M77.02893843485586,-181.31614005266928A197,197,0,0,1,79.62234493646211,-180.19234774767503L68.95497342386346,-156.05115071704623A170.6070045455344,170.6070045455344,0,0,0,66.70901751113271,-157.02438340174874Z" fill-rule="evenodd" style="fill: #DB3F29; stroke: #fff; opacity: 1;" id="p-type-functions"></path><path d="M79.62234493646211,-180.19234774767503A197,197,0,0,1,82.19936151939334,-179.03146361967796L71.18673525065566,-155.04579557135065A170.6070045455344,170.6070045455344,0,0,0,68.95497342386346,-156.05115071704623Z" fill-rule="evenodd" style="fill: #DB3F29; stroke: #fff; opacity: 1;" id="p-type-functions"></path><path d="M82.19936151939334,-179.03146361967796A197,197,0,0,1,84.75945771582352,-177.8337266317037L73.40384359289611,-154.0085249127127A170.6070045455344,170.6070045455344,0,0,0,71.18673525065566,-155.04579557135065Z" fill-rule="evenodd" style="fill: #DB3F29; stroke: #fff; opacity: 1;" id="p-type-functions"></path><path d="M84.75945771582352,-177.8337266317037A197,197,0,0,1,87.30210654091574,-176.5993833327812L75.60584206832863,-152.9395522588547A170.6070045455344,170.6070045455344,0,0,0,73.40384359289611,-154.0085249127127Z" fill-rule="evenodd" style="fill: #DB3F29; stroke: #fff; opacity: 1;" id="p-type-functions"></path><path d="M87.30210654091574,-176.5993833327812A197,197,0,0,1,89.82678460129982,-175.3286878071917L77.79227740499847,-151.83909765321897A170.6070045455344,170.6070045455344,0,0,0,75.60584206832863,-152.9395522588547Z" fill-rule="evenodd" style="fill: #DB3F29; stroke: #fff; opacity: 1;" id="p-type-functions"></path><path d="M89.82678460129982,-175.3286878071917A197,197,0,0,1,92.33297220281045,-174.0219016221666L79.96269953455626,-150.7073876196727A170.6070045455344,170.6070045455344,0,0,0,77.79227740499847,-151.83909765321897Z" fill-rule="evenodd" style="fill: #DB3F29; stroke: #fff; opacity: 1;" id="p-type-functions"></path><path d="M92.33297220281045,-174.0219016221666A197,197,0,0,1,94.82015345746404,-172.6792937740451L82.11666168490274,-149.5446551158791A170.6070045455344,170.6070045455344,0,0,0,79.96269953455626,-150.7073876196727Z" fill-rule="evenodd" style="fill: #DB3F29; stroke: #fff; opacity: 1;" id="p-type-functions"></path><path d="M94.82015345746404,-172.6792937740451A197,197,0,0,1,97.28781638965229,-171.3011406329021L84.25372047215495,-148.35113948534394A170.6070045455344,170.6070045455344,0,0,0,82.11666168490274,-149.5446551158791Z" fill-rule="evenodd" style="fill: #DB3F29; stroke: #fff; opacity: 1;" id="p-type-functions"></path><path d="M97.28781638965229,-171.3011406329021A197,197,0,0,1,99.73545304152968,-169.88772588565902L86.37343599191466,-147.1270864081479A170.6070045455344,170.6070045455344,0,0,0,84.25372047215495,-148.35113948534394Z" fill-rule="evenodd" style="fill: #DB3F29; stroke: #fff; opacity: 1;" id="p-type-functions"></path><path d="M99.73545304152968,-169.88772588565902A197,197,0,0,1,102.16255957757504,-168.43934047768778L88.47537190982119,-145.8727478503741A170.6070045455344,170.6070045455344,0,0,0,86.37343599191466,-147.1270864081479Z" fill-rule="evenodd" style="fill: #DB3F29; stroke: #fff; opacity: 1;" id="p-type-functions"></path><path d="M102.16255957757504,-168.43934047768778A197,197,0,0,1,104.56863638830332,-166.95628255292104L90.55909555136851,-144.58838201224228A170.6070045455344,170.6070045455344,0,0,0,88.47537190982119,-145.8727478503741Z" fill-rule="evenodd" style="fill: #DB3F29; stroke: #fff; opacity: 1;" id="p-type-functions"></path><path d="M104.56863638830332,-166.95628255292104A197,197,0,0,1,106.95318819310859,-165.4388573924805L92.62417799096991,-143.27425327495908A170.6070045455344,170.6070045455344,0,0,0,90.55909555136851,-144.58838201224228Z" fill-rule="evenodd" style="fill: #DB3F29; stroke: #fff; opacity: 1;" id="p-type-functions"></path><path d="M106.95318819310859,-165.4388573924805A197,197,0,0,1,109.31572414221502,-163.8873773518362L94.67019414025008,-141.9306321462966A170.6070045455344,170.6070045455344,0,0,0,92.62417799096991,-143.27425327495908Z" fill-rule="evenodd" style="fill: #DB3F29; stroke: #fff; opacity: 1;" id="p-type-functions"></path><path d="M109.31572414221502,-163.8873773518362A197,197,0,0,1,111.6557579177165,-162.30216179650932L96.69672283554796,-140.55779520490927A170.6070045455344,170.6070045455344,0,0,0,94.67019414025008,-141.9306321462966Z" fill-rule="evenodd" style="fill: #DB3F29; stroke: #fff; opacity: 1;" id="p-type-functions"></path><path d="M111.6557579177165,-162.30216179650932A197,197,0,0,1,113.97280783368292,-160.68353703633235L98.70334692461148,-139.1560250434015A170.6070045455344,170.6070045455344,0,0,0,96.69672283554796,-140.55779520490927Z" fill-rule="evenodd" style="fill: #DB3F29; stroke: #fff; opacity: 1;" id="p-type-functions"></path><path d="M113.97280783368292,-160.68353703633235A197,197,0,0,1,116.26639693531322,-159.03183625827938L100.68965335246645,-137.72561021015713A170.6070045455344,170.6070045455344,0,0,0,98.70334692461148,-139.1560250434015Z" fill-rule="evenodd" style="fill: #DB3F29; stroke: #fff; opacity: 1;" id="p-type-functions"></path><path d="M116.26639693531322,-159.03183625827938A197,197,0,0,1,118.53605309711449,-157.34739945788127L102.65523324644224,-136.26684514994298A170.6070045455344,170.6070045455344,0,0,0,100.68965335246645,-137.72561021015713Z" fill-rule="evenodd" style="fill: #DB3F29; stroke: #fff; opacity: 1;" id="p-type-functions"></path><path d="M118.53605309711449,-157.34739945788127A197,197,0,0,1,120.78130912008699,-155.6305733692387L104.59968200033644,-134.78003014329866A170.6070045455344,170.6070045455344,0,0,0,102.65523324644224,-136.26684514994298Z" fill-rule="evenodd" style="fill: #DB3F29; stroke: #fff; opacity: 1;" id="p-type-functions"></path><path d="M120.78130912008699,-155.6305733692387A197,197,0,0,1,123.00170282789502,-153.88171139364874L106.52259935770131,-133.26547124472512A170.6070045455344,170.6070045455344,0,0,0,104.59968200033644,-134.78003014329866Z" fill-rule="evenodd" style="fill: #DB3F29; stroke: #fff; opacity: 1;" id="p-type-functions"></path><path d="M196.46078050598098,-14.565772309793923A197,197,0,0,1,196.64953468380105,-11.745659140487868L170.3034926785608,-10.172039199855389A170.6070045455344,170.6070045455344,0,0,0,170.14002676549816,-12.614328846021477Z" fill-rule="evenodd" style="fill: #1DC690; stroke: #fff; opacity: 1;" id="p-type-logs"></path><path d="M196.64953468380105,-11.745659140487868A197,197,0,0,1,196.79780939717526,-8.923128177555526L170.4319023470817,-7.727655682987827A170.6070045455344,170.6070045455344,0,0,0,170.3034926785608,-10.172039199855389Z" fill-rule="evenodd" style="fill: #1DC690; stroke: #fff; opacity: 1;" id="p-type-logs"></path><path d="M196.79780939717526,-8.923128177555526A197,197,0,0,1,196.90557412438886,-6.098760426906448L170.52522933848059,-5.281681461296212A170.6070045455344,170.6070045455344,0,0,0,170.4319023470817,-7.727655682987827Z" fill-rule="evenodd" style="fill: #1DC690; stroke: #fff; opacity: 1;" id="p-type-logs"></path><path d="M196.90557412438886,-6.098760426906448A197,197,0,0,1,196.9728066825344,-3.273137272545065L170.58345444179605,-2.834620028097736A170.6070045455344,170.6070045455344,0,0,0,170.52522933848059,-5.281681461296212Z" fill-rule="evenodd" style="fill: #1DC690; stroke: #fff; opacity: 1;" id="p-type-logs"></path><path d="M196.9728066825344,-3.273137272545065A197,197,0,0,1,196.99949323207775,-0.44684035689528884L170.6065656716399,-0.3869751005074252A170.6070045455344,170.6070045455344,0,0,0,170.58345444179605,-2.834620028097736Z" fill-rule="evenodd" style="fill: #1DC690; stroke: #fff; opacity: 1;" id="p-type-logs"></path><path d="M196.99949323207775,-0.44684035689528884A197,197,0,0,1,196.98562827970696,2.3795485389280944L170.59455827066455,2.060749484249874A170.6070045455344,170.6070045455344,0,0,0,170.6065656716399,-0.3869751005074252Z" fill-rule="evenodd" style="fill: #1DC690; stroke: #fff; opacity: 1;" id="p-type-logs"></path><path d="M196.98562827970696,2.3795485389280944A197,197,0,0,1,196.9312146794631,5.205447614876573L170.54743471054198,4.508049872552227A170.6070045455344,170.6070045455344,0,0,0,170.59455827066455,2.060749484249874Z" fill-rule="evenodd" style="fill: #1DC690; stroke: #fff; opacity: 1;" id="p-type-logs"></path><path d="M196.9312146794631,5.205447614876573A197,197,0,0,1,196.83626363215268,8.030275171728961L170.46520469145523,6.954422298096725A170.6070045455344,170.6070045455344,0,0,0,170.54743471054198,4.508049872552227Z" fill-rule="evenodd" style="fill: #1DC690; stroke: #fff; opacity: 1;" id="p-type-logs"></path><path d="M196.83626363215268,8.030275171728961A197,197,0,0,1,196.70079468304218,10.853449730831683L170.34788514010154,9.399363185597615A170.6070045455344,170.6070045455344,0,0,0,170.46520469145523,6.954422298096725Z" fill-rule="evenodd" style="fill: #1DC690; stroke: #fff; opacity: 1;" id="p-type-logs"></path><path d="M196.70079468304218,10.853449730831683A197,197,0,0,1,196.5248357178345,13.67439015379368L170.19550020620807,11.842369254445124A170.6070045455344,170.6070045455344,0,0,0,170.34788514010154,9.399363185597615Z" fill-rule="evenodd" style="fill: #1DC690; stroke: #fff; opacity: 1;" id="p-type-logs"></path><path d="M196.5248357178345,13.67439015379368A197,197,0,0,1,196.30842295692895,16.49251576211124L170.00808125756075,14.282937622303605A170.6070045455344,170.6070045455344,0,0,0,170.19550020620807,11.842369254445124Z" fill-rule="evenodd" style="fill: #1DC690; stroke: #fff; opacity: 1;" id="p-type-logs"></path><path d="M196.30842295692895,16.49251576211124A197,197,0,0,1,196.0516009479655,19.307246456698195L169.78566687354748,16.720565908627727A170.6070045455344,170.6070045455344,0,0,0,170.00808125756075,14.282937622303605Z" fill-rule="evenodd" style="fill: #1DC690; stroke: #fff; opacity: 1;" id="p-type-logs"></path><path d="M196.0516009479655,19.307246456698195A197,197,0,0,1,195.75442255665473,22.11800283729682L169.52830283721653,19.154752338075337A170.6070045455344,170.6070045455344,0,0,0,169.78566687354748,16.720565908627727Z" fill-rule="evenodd" style="fill: #1DC690; stroke: #fff; opacity: 1;" id="p-type-logs"></path><path d="M195.75442255665473,22.11800283729682A197,197,0,0,1,195.41694895589558,24.92420632174491L169.2360421258525,21.584995843795795A170.6070045455344,170.6070045455344,0,0,0,169.52830283721653,19.154752338075337Z" fill-rule="evenodd" style="fill: #1DC690; stroke: #fff; opacity: 1;" id="p-type-logs"></path><path d="M195.41694895589558,24.92420632174491A197,197,0,0,1,195.03924961318333,27.725279265074434L168.90894490007102,24.01079617057241A170.6070045455344,170.6070045455344,0,0,0,169.2360421258525,21.584995843795795Z" fill-rule="evenodd" style="fill: #1DC690; stroke: #fff; opacity: 1;" id="p-type-logs"></path><path d="M195.03924961318333,27.725279265074434A197,197,0,0,1,194.62140227631,30.520645078417267L168.54707849143503,26.431653977797854A170.6070045455344,170.6070045455344,0,0,0,168.90894490007102,24.01079617057241Z" fill-rule="evenodd" style="fill: #1DC690; stroke: #fff; opacity: 1;" id="p-type-logs"></path><path d="M194.62140227631,30.520645078417267A197,197,0,0,1,194.1634929573602,33.30972834769355L168.15051738859486,28.847070942261272A170.6070045455344,170.6070045455344,0,0,0,168.54707849143503,26.431653977797854Z" fill-rule="evenodd" style="fill: #1DC690; stroke: #fff; opacity: 1;" id="p-type-logs"></path><path d="M194.1634929573602,33.30972834769355A197,197,0,0,1,193.66561591500593,36.09195495205822L167.719343221955,31.256549860725986A170.6070045455344,170.6070045455344,0,0,0,168.15051738859486,28.847070942261272Z" fill-rule="evenodd" style="fill: #1DC690; stroke: #fff; opacity: 1;" id="p-type-logs"></path><path d="M193.66561591500593,36.09195495205822A197,197,0,0,1,193.12787363510395,38.866752182081306L167.25364474687095,33.659594752276675A170.6070045455344,170.6070045455344,0,0,0,167.719343221955,31.256549860725986Z" fill-rule="evenodd" style="fill: #1DC690; stroke: #fff; opacity: 1;" id="p-type-logs"></path><path d="M193.12787363510395,38.866752182081306A197,197,0,0,1,192.55037680959936,41.63354885763773L166.75351782537908,36.055710960414864A170.6070045455344,170.6070045455344,0,0,0,167.25364474687095,33.659594752276675Z" fill-rule="evenodd" style="fill: #1DC690; stroke: #fff; opacity: 1;" id="p-type-logs"></path><path d="M192.55037680959936,41.63354885763773A197,197,0,0,1,191.93324431374018,44.391775445482274L166.21906540646415,38.444405254881914A170.6070045455344,170.6070045455344,0,0,0,166.75351782537908,36.055710960414864Z" fill-rule="evenodd" style="fill: #1DC690; stroke: #fff; opacity: 1;" id="p-type-logs"></path><path d="M191.93324431374018,44.391775445482274A197,197,0,0,1,191.2766031816075,47.1408641764856L165.65039750486747,40.82518593318832A170.6070045455344,170.6070045455344,0,0,0,166.21906540646415,38.444405254881914Z" fill-rule="evenodd" style="fill: #1DC690; stroke: #fff; opacity: 1;" id="p-type-logs"></path><path d="M191.2766031816075,47.1408641764856A197,197,0,0,1,190.58058857996588,49.88024916250703L165.04763117844092,43.197562921828556A170.6070045455344,170.6070045455344,0,0,0,165.65039750486747,40.82518593318832Z" fill-rule="evenodd" style="fill: #1DC690; stroke: #fff; opacity: 1;" id="p-type-logs"></path><path d="M190.58058857996588,49.88024916250703A197,197,0,0,1,189.84534378043995,52.60936651288024L164.41089050405108,45.56104787716063A170.6070045455344,170.6070045455344,0,0,0,165.04763117844092,43.197562921828556Z" fill-rule="evenodd" style="fill: #1DC690; stroke: #fff; opacity: 1;" id="p-type-logs"></path><path d="M189.84534378043995,52.60936651288024A197,197,0,0,1,189.07102013002265,55.32765445048772L163.7403065520386,47.915154285929525A170.6070045455344,170.6070045455344,0,0,0,164.41089050405108,45.56104787716063Z" fill-rule="evenodd" style="fill: #1DC690; stroke: #fff; opacity: 1;" id="p-type-logs"></path><path d="M189.07102013002265,55.32765445048772A197,197,0,0,1,188.2577770199208,58.03455342740022L163.03601735923775,50.25939756541385A170.6070045455344,170.6070045455344,0,0,0,163.7403065520386,47.915154285929525Z" fill-rule="evenodd" style="fill: #1DC690; stroke: #fff; opacity: 1;" id="p-type-logs"></path><path d="M188.2577770199208,58.03455342740022A197,197,0,0,1,187.40578185274555,60.72950624005722L162.2981679005624,52.59329516317514A170.6070045455344,170.6070045455344,0,0,0,163.03601735923775,50.25939756541385Z" fill-rule="evenodd" style="fill: #1DC690; stroke: #fff; opacity: 1;" id="p-type-logs"></path><path d="M187.40578185274555,60.72950624005722A197,197,0,0,1,186.51521000805278,63.41195814396501L161.52691005916327,54.916366656389215A170.6070045455344,170.6070045455344,0,0,0,162.2981679005624,52.59329516317514Z" fill-rule="evenodd" style="fill: #1DC690; stroke: #fff; opacity: 1;" id="p-type-logs"></path><path d="M186.51521000805278,63.41195814396501A197,197,0,0,1,185.58624480624235,66.08135696788834L160.72240259516371,57.22813385073913A170.6070045455344,170.6070045455344,0,0,0,161.52691005916327,54.916366656389215Z" fill-rule="evenodd" style="fill: #1DC690; stroke: #fff; opacity: 1;" id="p-type-logs"></path><path d="M185.58624480624235,66.08135696788834A197,197,0,0,1,184.61907747082222,68.73715322751262L159.88481111297938,59.52812087884944A170.6070045455344,170.6070045455344,0,0,0,160.72240259516371,57.22813385073913Z" fill-rule="evenodd" style="fill: #1DC690; stroke: #fff; opacity: 1;" id="p-type-logs"></path><path d="M184.61907747082222,68.73715322751262A197,197,0,0,1,183.61390708904588,71.3788002385528L159.01430802722936,61.815854298241476A170.6070045455344,170.6070045455344,0,0,0,159.88481111297938,59.52812087884944Z" fill-rule="evenodd" style="fill: #1DC690; stroke: #fff; opacity: 1;" id="p-type-logs"></path><path d="M183.61390708904588,71.3788002385528A197,197,0,0,1,182.5709405709312,74.00575422928613L158.11107252724545,64.09086318878944A170.6070045455344,170.6070045455344,0,0,0,159.01430802722936,61.815854298241476Z" fill-rule="evenodd" style="fill: #1DC690; stroke: #fff; opacity: 1;" id="p-type-logs"></path><path d="M182.5709405709312,74.00575422928613A197,197,0,0,1,181.49039260666882,76.61747445248508L157.17529054018667,66.35267924965731A170.6070045455344,170.6070045455344,0,0,0,158.11107252724545,64.09086318878944Z" fill-rule="evenodd" style="fill: #1DC690; stroke: #fff; opacity: 1;" id="p-type-logs"></path><path d="M181.49039260666882,76.61747445248508A197,197,0,0,1,180.3724856224291,79.21342329672797L156.207154692767,68.6008368956965A170.6070045455344,170.6070045455344,0,0,0,157.17529054018667,66.35267924965731Z" fill-rule="evenodd" style="fill: #1DC690; stroke: #fff; opacity: 1;" id="p-type-logs"></path><path d="M180.3724856224291,79.21342329672797A197,197,0,0,1,179.2174497345766,81.79306639706391L155.20686427160405,70.83487335328466A170.6070045455344,170.6070045455344,0,0,0,156.207154692767,68.6008368956965Z" fill-rule="evenodd" style="fill: #1DC690; stroke: #fff; opacity: 1;" id="p-type-logs"></path><path d="M179.2174497345766,81.79306639706391A197,197,0,0,1,178.02552270230177,84.35587274500949L154.17462518219662,73.05432875558557A170.6070045455344,170.6070045455344,0,0,0,155.20686427160405,70.83487335328466Z" fill-rule="evenodd" style="fill: #1DC690; stroke: #fff; opacity: 1;" id="p-type-logs"></path><path d="M178.02552270230177,84.35587274500949A197,197,0,0,1,176.79694987867902,86.90131479785481L153.11064990654015,75.25874623721081A170.6070045455344,170.6070045455344,0,0,0,154.17462518219662,73.05432875558557Z" fill-rule="evenodd" style="fill: #1DC690; stroke: #fff; opacity: 1;" id="p-type-logs"></path><path d="M176.79694987867902,86.90131479785481A197,197,0,0,1,175.53198416016198,89.42886858725562L152.01515745938798,77.44767202826355A170.6070045455344,170.6070045455344,0,0,0,153.11064990654015,75.25874623721081Z" fill-rule="evenodd" style="fill: #1DC690; stroke: #fff; opacity: 1;" id="p-type-logs"></path><path d="M175.53198416016198,89.42886858725562A197,197,0,0,1,174.2308859345259,91.93801382709017L150.88837334316827,79.62065554774506A170.6070045455344,170.6070045455344,0,0,0,152.01515745938798,77.44767202826355Z" fill-rule="evenodd" style="fill: #1DC690; stroke: #fff; opacity: 1;" id="p-type-logs"></path><path d="M174.2308859345259,91.93801382709017A197,197,0,0,1,172.89392302726776,94.42823402055771L149.7305295015652,81.77724949630496A170.6070045455344,170.6070045455344,0,0,0,150.88837334316827,79.62065554774506Z" fill-rule="evenodd" style="fill: #1DC690; stroke: #fff; opacity: 1;" id="p-type-logs"></path><path d="M172.89392302726776,94.42823402055771A197,197,0,0,1,171.52137064647565,96.89901656649728L148.54186427177444,83.91700994831582A170.6070045455344,170.6070045455344,0,0,0,149.7305295015652,81.77724949630496Z" fill-rule="evenodd" style="fill: #1DC690; stroke: #fff; opacity: 1;" id="p-type-logs"></path><path d="M171.52137064647565,96.89901656649728A197,197,0,0,1,170.11351132617844,99.34985286490442L147.32262233544236,86.03949644325341A170.6070045455344,170.6070045455344,0,0,0,148.54186427177444,83.91700994831582Z" fill-rule="evenodd" style="fill: #1DC690; stroke: #fff; opacity: 1;" id="p-type-logs"></path><path d="M170.11351132617844,99.34985286490442A197,197,0,0,1,168.6706348681872,101.78023842162425L146.07305466829942,88.14427207636358A170.6070045455344,170.6070045455344,0,0,0,147.32262233544236,86.03949644325341Z" fill-rule="evenodd" style="fill: #1DC690; stroke: #fff; opacity: 1;" id="p-type-logs"></path><path d="M168.6706348681872,101.78023842162425A197,197,0,0,1,167.19303828244077,104.18967295219949L144.79341848849788,90.23090358859717A170.6070045455344,170.6070045455344,0,0,0,146.07305466829942,88.14427207636358Z" fill-rule="evenodd" style="fill: #1DC690; stroke: #fff; opacity: 1;" id="p-type-logs"></path><path d="M167.19303828244077,104.18967295219949A197,197,0,0,1,165.68102572586773,106.57766048485185L143.48397720366458,92.29896145579463A170.6070045455344,170.6070045455344,0,0,0,144.79341848849788,90.23090358859717Z" fill-rule="evenodd" style="fill: #1DC690; stroke: #fff; opacity: 1;" id="p-type-logs"></path><path d="M165.68102572586773,106.57766048485185A197,197,0,0,1,164.13490843977672,108.94370946257575L142.14500035667947,94.34801997710173A170.6070045455344,170.6070045455344,0,0,0,143.48397720366458,92.29896145579463Z" fill-rule="evenodd" style="fill: #1DC690; stroke: #fff; opacity: 1;" id="p-type-logs"></path><path d="M164.13490843977672,108.94370946257575A197,197,0,0,1,162.55500468578887,111.28733284432309L140.77676357019163,96.37765736259811A170.6070045455344,170.6070045455344,0,0,0,142.14500035667947,94.34801997710173Z" fill-rule="evenodd" style="fill: #1DC690; stroke: #fff; opacity: 1;" id="p-type-logs"></path><path d="M57.49091814023006,188.42450565516515A197,197,0,0,1,54.78168306755328,189.22993209396378L47.44232919856898,163.87792834977688A170.6070045455344,170.6070045455344,0,0,0,49.78859559633084,163.18040859289763Z" fill-rule="evenodd" style="fill: #D7A449; stroke: #fff; opacity: 1;" id="p-type-tokenTransfers"></path><path d="M54.78168306755328,189.22993209396378A197,197,0,0,1,52.06117142005226,189.9964063617308L45.086297000541634,164.5417145370102A170.6070045455344,170.6070045455344,0,0,0,47.44232919856898,163.87792834977688Z" fill-rule="evenodd" style="fill: #D7A449; stroke: #fff; opacity: 1;" id="p-type-tokenTransfers"></path><path d="M52.06117142005226,189.9964063617308A197,197,0,0,1,49.32994320339739,190.72377068302103L42.72098398138565,165.17163051705396A170.6070045455344,170.6070045455344,0,0,0,45.086297000541634,164.5417145370102Z" fill-rule="evenodd" style="fill: #D7A449; stroke: #fff; opacity: 1;" id="p-type-tokenTransfers"></path><path d="M49.32994320339739,190.72377068302103A197,197,0,0,1,46.58856062921898,191.4118753330043L40.346877030655165,165.7675466244017A170.6070045455344,170.6070045455344,0,0,0,42.72098398138565,165.17163051705396Z" fill-rule="evenodd" style="fill: #D7A449; stroke: #fff; opacity: 1;" id="p-type-tokenTransfers"></path><path d="M46.58856062921898,191.4118753330043A197,197,0,0,1,43.8375879993783,192.06057866828573L37.96446484809746,166.32934019227508A170.6070045455344,170.6070045455344,0,0,0,40.346877030655165,165.7675466244017Z" fill-rule="evenodd" style="fill: #D7A449; stroke: #fff; opacity: 1;" id="p-type-tokenTransfers"></path><path d="M43.8375879993783,192.06057866828573A197,197,0,0,1,41.07759158980854,192.6697471560621L35.5742378430562,166.85689557787435A170.6070045455344,170.6070045455344,0,0,0,37.96446484809746,166.32934019227508Z" fill-rule="evenodd" style="fill: #D7A449; stroke: #fff; opacity: 1;" id="p-type-tokenTransfers"></path><path d="M41.07759158980854,192.6697471560621A197,197,0,0,1,38.30913953394928,193.23925540160934L33.17668803352282,167.350104186183A170.6070045455344,170.6070045455344,0,0,0,35.5742378430562,166.85689557787435Z" fill-rule="evenodd" style="fill: #D7A449; stroke: #fff; opacity: 1;" id="p-type-tokenTransfers"></path><path d="M38.30913953394928,193.23925540160934A197,197,0,0,1,35.532801705798654,193.7689861740944L30.772308944856672,167.80886449232142A170.6070045455344,170.6070045455344,0,0,0,33.17668803352282,167.350104186183Z" fill-rule="evenodd" style="fill: #D7A449; stroke: #fff; opacity: 1;" id="p-type-tokenTransfers"></path><path d="M35.532801705798654,193.7689861740944A197,197,0,0,1,32.74914960260729,194.25883043070667L28.361595508194966,168.23308206244553A170.6070045455344,170.6070045455344,0,0,0,30.772308944856672,167.80886449232142Z" fill-rule="evenodd" style="fill: #D7A449; stroke: #fff; opacity: 1;" id="p-type-tokenTransfers"></path><path d="M32.74914960260729,194.25883043070667A197,197,0,0,1,29.958756227237973,194.70868733910393L25.945043958573333,168.6226695731855A170.6070045455344,170.6070045455344,0,0,0,28.361595508194966,168.23308206244553Z" fill-rule="evenodd" style="fill: #D7A449; stroke: #fff; opacity: 1;" id="p-type-tokenTransfers"></path><path d="M29.958756227237973,194.70868733910393A197,197,0,0,1,27.1621959702155,195.1184642981684L23.52315173277793,168.97754682962085A170.6070045455344,170.6070045455344,0,0,0,25.945043958573333,168.6226695731855Z" fill-rule="evenodd" style="fill: #D7A449; stroke: #fff; opacity: 1;" id="p-type-tokenTransfers"></path><path d="M27.1621959702155,195.1184642981684A197,197,0,0,1,24.360044491490843,195.48807695706813L21.096417366950245,169.29764078178835A170.6070045455344,170.6070045455344,0,0,0,23.52315173277793,168.97754682962085Z" fill-rule="evenodd" style="fill: #D7A449; stroke: #fff; opacity: 1;" id="p-type-tokenTransfers"></path><path d="M24.360044491490843,195.48807695706813A197,197,0,0,1,21.552878601944013,195.8174492326204L18.66534039396555,169.5828855397189A170.6070045455344,170.6070045455344,0,0,0,21.096417366950245,169.29764078178835Z" fill-rule="evenodd" style="fill: #D7A449; stroke: #fff; opacity: 1;" id="p-type-tokenTransfers"></path><path d="M21.552878601944013,195.8174492326204A197,197,0,0,1,18.74127614465002,196.106513324953L16.230421240606198,169.83322238700083A170.6070045455344,170.6070045455344,0,0,0,18.66534039396555,169.5828855397189Z" fill-rule="evenodd" style="fill: #D7A449; stroke: #fff; opacity: 1;" id="p-type-tokenTransfers"></path><path d="M18.74127614465002,196.106513324953A197,197,0,0,1,15.925815875932326,196.35520973146066L13.792161124550915,170.04859979286636A170.6070045455344,170.6070045455344,0,0,0,16.230421240606198,169.83322238700083Z" fill-rule="evenodd" style="fill: #D7A449; stroke: #fff; opacity: 1;" id="p-type-tokenTransfers"></path><path d="M15.925815875932326,196.35520973146066A197,197,0,0,1,13.107077346228364,196.56348725905323L11.351061951201288,170.22897342279893A170.6070045455344,170.6070045455344,0,0,0,13.792161124550915,170.04859979286636Z" fill-rule="evenodd" style="fill: #D7A449; stroke: #fff; opacity: 1;" id="p-type-tokenTransfers"></path><path d="M13.107077346228364,196.56348725905323A197,197,0,0,1,10.285640780791553,196.7313030346938L8.907626210366693,170.37430614765947A170.6070045455344,170.6070045455344,0,0,0,11.351061951201288,170.22897342279893Z" fill-rule="evenodd" style="fill: #D7A449; stroke: #fff; opacity: 1;" id="p-type-tokenTransfers"></path><path d="M10.285640780791553,196.7313030346938A197,197,0,0,1,7.462086960254396,196.85862251422367L6.462356872828908,170.48456805132892A170.6070045455344,170.6070045455344,0,0,0,8.907626210366693,170.37430614765947Z" fill-rule="evenodd" style="fill: #D7A449; stroke: #fff; opacity: 1;" id="p-type-tokenTransfers"></path><path d="M7.462086960254396,196.85862251422367A197,197,0,0,1,4.636997101077306,196.94541948947327L4.015757286807745,170.55973643686673A170.6070045455344,170.6070045455344,0,0,0,6.462356872828908,170.48456805132892Z" fill-rule="evenodd" style="fill: #D7A449; stroke: #fff; opacity: 1;" id="p-type-tokenTransfers"></path><path d="M4.636997101077306,196.94541948947327A197,197,0,0,1,1.810952735907661,196.99167609365708L1.5683310743489658,170.59979583118272A170.6070045455344,170.6070045455344,0,0,0,4.015757286807745,170.55973643686673Z" fill-rule="evenodd" style="fill: #D7A449; stroke: #fff; opacity: 1;" id="p-type-tokenTransfers"></path><path d="M1.810952735907661,196.99167609365708A197,197,0,0,1,-1.0154644061261866,196.99738280505125L-0.879417972344156,170.60473798822213A170.6070045455344,170.6070045455344,0,0,0,1.5683310743489658,170.59979583118272Z" fill-rule="evenodd" style="fill: #D7A449; stroke: #fff; opacity: 1;" id="p-type-tokenTransfers"></path><path d="M-1.0154644061261866,196.99738280505125A197,197,0,0,1,-3.8416725191613645,196.96253844895358L-3.326985994614302,170.57456189066306A170.6070045455344,170.6070045455344,0,0,0,-0.879417972344156,170.60473798822213Z" fill-rule="evenodd" style="fill: #D7A449; stroke: #fff; opacity: 1;" id="p-type-tokenTransfers"></path><path d="M-3.8416725191613645,196.96253844895358A197,197,0,0,1,-6.667089840362724,196.88715019792565L-5.773869171067256,170.50927375012597A170.6070045455344,170.6070045455344,0,0,0,-3.326985994614302,170.57456189066306Z" fill-rule="evenodd" style="fill: #D7A449; stroke: #fff; opacity: 1;" id="p-type-tokenTransfers"></path><path d="M-6.667089840362724,196.88715019792565A197,197,0,0,1,-9.49113476967623,196.77123357031599L-8.219563821281382,170.40888700589497A170.6070045455344,170.6070045455344,0,0,0,-5.773869171067256,170.50927375012597Z" fill-rule="evenodd" style="fill: #D7A449; stroke: #fff; opacity: 1;" id="p-type-tokenTransfers"></path><path d="M-9.49113476967623,196.77123357031599A197,197,0,0,1,-12.313225989548837,196.61481242706589L-10.663566509488074,170.2734223221514A170.6070045455344,170.6070045455344,0,0,0,-8.219563821281382,170.40888700589497Z" fill-rule="evenodd" style="fill: #D7A449; stroke: #fff; opacity: 1;" id="p-type-tokenTransfers"></path><path d="M-12.313225989548837,196.61481242706589A197,197,0,0,1,-15.132782584590219,196.41791896679774L-13.105374148201864,170.10290758372014A170.6070045455344,170.6070045455344,0,0,0,-10.663566509488074,170.2734223221514Z" fill-rule="evenodd" style="fill: #D7A449; stroke: #fff; opacity: 1;" id="p-type-tokenTransfers"></path><path d="M-15.132782584590219,196.41791896679774A197,197,0,0,1,-17.94922416115172,196.18059371918704L-15.544484101778819,169.89737789032986A170.6070045455344,170.6070045455344,0,0,0,-13.105374148201864,170.10290758372014Z" fill-rule="evenodd" style="fill: #D7A449; stroke: #fff; opacity: 1;" id="p-type-tokenTransfers"></path><path d="M-17.94922416115172,196.18059371918704A197,197,0,0,1,-20.761970966797893,195.9028855366195L-17.98039428988194,169.65687554938756A170.6070045455344,170.6070045455344,0,0,0,-15.544484101778819,169.89737789032986Z" fill-rule="evenodd" style="fill: #D7A449; stroke: #fff; opacity: 1;" id="p-type-tokenTransfers"></path><path d="M-20.761970966797893,195.9028855366195A197,197,0,0,1,-23.570444009646064,195.58485158413507L-20.412603290832234,169.38145006727007A170.6070045455344,170.6070045455344,0,0,0,-17.98039428988194,169.65687554938756Z" fill-rule="evenodd" style="fill: #D7A449; stroke: #fff; opacity: 1;" id="p-type-tokenTransfers"></path><path d="M-23.570444009646064,195.58485158413507A197,197,0,0,1,-26.374065177549312,195.2265573276607L-22.840610444824243,169.0711581391332A170.6070045455344,170.6070045455344,0,0,0,-20.412603290832234,169.38145006727007Z" fill-rule="evenodd" style="fill: #D7A449; stroke: #fff; opacity: 1;" id="p-type-tokenTransfers"></path><path d="M-26.374065177549312,195.2265573276607A197,197,0,0,1,-29.17225735709841,194.8280765205344L-25.26391595698471,168.7260636372413A170.6070045455344,170.6070045455344,0,0,0,-22.840610444824243,169.0711581391332Z" fill-rule="evenodd" style="fill: #D7A449; stroke: #fff; opacity: 1;" id="p-type-tokenTransfers"></path><path d="M-29.17225735709841,194.8280765205344A197,197,0,0,1,-31.96444455241812,194.38949118832372L-27.6820210002532,168.34623759781962A170.6070045455344,170.6070045455344,0,0,0,-25.26391595698471,168.7260636372413Z" fill-rule="evenodd" style="fill: #D7A449; stroke: #fff; opacity: 1;" id="p-type-tokenTransfers"></path><path d="M-31.96444455241812,194.38949118832372A197,197,0,0,1,-34.750052003733494,193.9108916119407L-30.09442781806354,167.93175820643148A170.6070045455344,170.6070045455344,0,0,0,-27.6820210002532,168.34623759781962Z" fill-rule="evenodd" style="fill: #D7A449; stroke: #fff; opacity: 1;" id="p-type-tokenTransfers"></path><path d="M-34.750052003733494,193.9108916119407A197,197,0,0,1,-37.528506305681695,193.39237630905828L-32.50063982680484,167.4827107818843A170.6070045455344,170.6070045455344,0,0,0,-30.09442781806354,167.93175820643148Z" fill-rule="evenodd" style="fill: #D7A449; stroke: #fff; opacity: 1;" id="p-type-tokenTransfers"></path><path d="M-37.528506305681695,193.39237630905828A197,197,0,0,1,-40.299235525345054,192.8340520138307L-34.90016171804115,166.99918775866718A170.6070045455344,170.6070045455344,0,0,0,-32.50063982680484,167.4827107818843Z" fill-rule="evenodd" style="fill: #D7A449; stroke: #fff; opacity: 1;" id="p-type-tokenTransfers"></path><path d="M-40.299235525345054,192.8340520138307A197,197,0,0,1,-43.06166931998101,192.23603365492278L-37.29249956046853,166.48128866792342A170.6070045455344,170.6070045455344,0,0,0,-34.90016171804115,166.99918775866718Z" fill-rule="evenodd" style="fill: #D7A449; stroke: #fff; opacity: 1;" id="p-type-tokenTransfers"></path><path d="M-43.06166931998101,192.23603365492278A197,197,0,0,1,-45.815239054424694,191.59844433185233L-39.67716090158873,165.9291201169627A170.6070045455344,170.6070045455344,0,0,0,-37.29249956046853,166.48128866792342Z" fill-rule="evenodd" style="fill: #D7A449; stroke: #fff; opacity: 1;" id="p-type-tokenTransfers"></path><path d="M-45.815239054424694,191.59844433185233A197,197,0,0,1,-48.559377918140086,190.92141528965064L-42.05365486907842,165.3427957673162A170.6070045455344,170.6070045455344,0,0,0,-39.67716090158873,165.9291201169627Z" fill-rule="evenodd" style="fill: #D7A449; stroke: #fff; opacity: 1;" id="p-type-tokenTransfers"></path><path d="M-48.559377918140086,190.92141528965064A197,197,0,0,1,-51.29352104189549,190.2050858918463L-44.42149227183314,164.72243631134A170.6070045455344,170.6070045455344,0,0,0,-42.05365486907842,165.3427957673162Z" fill-rule="evenodd" style="fill: #D7A449; stroke: #fff; opacity: 1;" id="p-type-tokenTransfers"></path><path d="M-51.29352104189549,190.2050858918463A197,197,0,0,1,-54.01710561403948,189.4496035917777L-46.78018570066521,164.0681694473711A170.6070045455344,170.6070045455344,0,0,0,-44.42149227183314,164.72243631134Z" fill-rule="evenodd" style="fill: #D7A449; stroke: #fff; opacity: 1;" id="p-type-tokenTransfers"></path><path d="M-54.01710561403948,189.4496035917777A197,197,0,0,1,-56.72957099635326,188.65512390224052L-49.12924962863481,163.38012985344113A170.6070045455344,170.6070045455344,0,0,0,-46.78018570066521,164.0681694473711Z" fill-rule="evenodd" style="fill: #D7A449; stroke: #fff; opacity: 1;" id="p-type-tokenTransfers"></path><path d="M-56.72957099635326,188.65512390224052A197,197,0,0,1,-59.430358839455614,187.821810363476L-51.46820051099363,162.65845915955356A170.6070045455344,170.6070045455344,0,0,0,-49.12924962863481,163.38012985344113Z" fill-rule="evenodd" style="fill: #D7A449; stroke: #fff; opacity: 1;" id="p-type-tokenTransfers"></path><path d="M-59.430358839455614,187.821810363476A197,197,0,0,1,-62.1189131977368,186.94983450950696L-53.7965568847205,161.90330591852975A170.6070045455344,170.6070045455344,0,0,0,-51.46820051099363,162.65845915955356Z" fill-rule="evenodd" style="fill: #D7A449; stroke: #fff; opacity: 1;" id="p-type-tokenTransfers"></path><path d="M-62.1189131977368,186.94983450950696A197,197,0,0,1,-64.79468064379748,186.0393758328282L-56.11383946762845,161.11482557542996A170.6070045455344,170.6070045455344,0,0,0,-53.7965568847205,161.90330591852975Z" fill-rule="evenodd" style="fill: #D7A449; stroke: #fff; opacity: 1;" id="p-type-tokenTransfers"></path><path d="M-163.69529497677095,109.60314960103993A197,197,0,0,1,-168.25980365056913,102.45798395182254L-145.7172643971745,88.73121692281666A170.6070045455344,170.6070045455344,0,0,0,-141.76428392987086,94.91911188928684Z" fill-rule="evenodd" style="fill: #414552; stroke: #fff; opacity: 1;" id="p-type-ether"></path></g></svg>