<svg xmlns="http://www.w3.org/2000/svg" width="400" height="400" id="block-7907798"><g id="burst-container" transform="translate(200,200)"><circle r="197" style="fill: #f9f9f9; stroke: #f9f9f9; stroke-width: 3; opacity: 1;" id="circle-base"></circle><path display="none" d="M6.031385485800715e-15,-98.5A98.5,98.5,0,1,1,-6.031385485800715e-15,98.5A98.5,98.5,0,1,1,6.031385485800715e-15,-98.5Z" fill-rule="evenodd" id="p-type-root" style="stroke: #fff; opacity: 1;"></path><path d="M8.529667153919608e-15,-139.30003589374985A139.30003589374985,139.30003589374985,0,1,1,-113.81825412863547,-80.31130074347787L-80.4816593171719,-56.788665361625426A98.5,98.5,0,1,0,6.031385485800715e-15,-98.5Z" fill-rule="evenodd" style="fill: #0B1F65; stroke: #fff; opacity: 1;" id="p-type-data"></path><path d="M-113.81825412863547,-80.31130074347787A139.30003589374985,139.30003589374985,0,0,1,-4.932847589896831,-139.2126682980211L-3.4880499813757666,-98.43822178060424A98.5,98.5,0,0,0,-80.4816593171719,-56.788665361625426Z" fill-rule="evenodd" style="fill: #D7A449; stroke: #fff; opacity: 1;" id="p-type-value"></path><path d="M1.0446666101440332e-14,-170.6070045455344A170.6070045455344,170.6070045455344,0,0,1,162.04737480891902,53.361018707833075L132.3111274797961,43.56908932976613A139.30003589374985,139.30003589374985,0,0,0,8.529667153919608e-15,-139.30003589374985Z" fill-rule="evenodd" style="fill: #414552; stroke: #fff; opacity: 1;" id="p-type-ether"></path><path d="M162.04737480891902,53.361018707833075A170.6070045455344,170.6070045455344,0,0,1,11.22749306378097,170.23716809058692L9.167209698966921,138.9980656927828A139.30003589374985,139.30003589374985,0,0,0,132.3111274797961,43.56908932976613Z" fill-rule="evenodd" style="fill: #DB3F29; stroke: #fff; opacity: 1;" id="p-type-functions"></path><path d="M11.22749306378097,170.23716809058692A170.6070045455344,170.6070045455344,0,0,1,-111.64189758623466,129.0071188087878L-91.15522766744395,105.33387142271218A139.30003589374985,139.30003589374985,0,0,0,9.167209698966921,138.9980656927828Z" fill-rule="evenodd" style="fill: #1DC690; stroke: #fff; opacity: 1;" id="p-type-logs"></path><path d="M-111.64189758623466,129.0071188087878A170.6070045455344,170.6070045455344,0,0,1,-158.6099234670839,62.846178704562355L-129.50446021208228,51.313690036648026A139.30003589374985,139.30003589374985,0,0,0,-91.15522766744395,105.33387142271218Z" fill-rule="evenodd" style="fill: #D7A449; stroke: #fff; opacity: 1;" id="p-type-tokenTransfers"></path><path d="M-139.39832301479086,-98.36085370036204A170.6070045455344,170.6070045455344,0,0,1,-56.32892683357623,-161.0397528617627L-45.99237616694303,-131.48840760507522A139.30003589374985,139.30003589374985,0,0,0,-113.81825412863547,-80.31130074347787Z" fill-rule="evenodd" style="fill: #414552; stroke: #fff; opacity: 1;" id="p-type-ether"></path><path d="M-56.32892683357623,-161.0397528617627A170.6070045455344,170.6070045455344,0,0,1,-12.075381262210428,-170.1791267088072L-9.859507513993544,-138.95067510300734A139.30003589374985,139.30003589374985,0,0,0,-45.99237616694303,-131.48840760507522Z" fill-rule="evenodd" style="fill: #D7A449; stroke: #fff; opacity: 1;" id="p-type-tokenTransfers"></path><path d="M1.206277097160143e-14,-197A197,197,0,0,1,176.17546826135725,-88.15443484528448L152.57243103795446,-76.34398003227648A170.6070045455344,170.6070045455344,0,0,0,1.0446666101440332e-14,-170.6070045455344Z" fill-rule="evenodd" style="fill: #414552; stroke: #fff; opacity: 1;" id="p-type-ether"></path><path d="M176.17546826135725,-88.15443484528448A197,197,0,0,1,183.38949654975363,-71.95340544566251L158.8199627993253,-62.313477004745295A170.6070045455344,170.6070045455344,0,0,0,152.57243103795446,-76.34398003227648Z" fill-rule="evenodd" style="fill: #414552; stroke: #fff; opacity: 1;" id="p-type-ether"></path><path d="M183.38949654975363,-71.95340544566251A197,197,0,0,1,185.30350950028281,-66.87009321721175L160.477546637656,-57.91119947953886A170.6070045455344,170.6070045455344,0,0,0,158.8199627993253,-62.313477004745295Z" fill-rule="evenodd" style="fill: #414552; stroke: #fff; opacity: 1;" id="p-type-ether"></path><path d="M185.30350950028281,-66.87009321721175A197,197,0,0,1,186.71371925262125,-62.82505107720431L161.69882410784564,-54.40809022691384A170.6070045455344,170.6070045455344,0,0,0,160.477546637656,-57.91119947953886Z" fill-rule="evenodd" style="fill: #414552; stroke: #fff; opacity: 1;" id="p-type-ether"></path><path d="M186.71371925262125,-62.82505107720431A197,197,0,0,1,187.16566569615523,-61.46554794773293L162.0902212090961,-53.23072598026718A170.6070045455344,170.6070045455344,0,0,0,161.69882410784564,-54.40809022691384Z" fill-rule="evenodd" style="fill: #414552; stroke: #fff; opacity: 1;" id="p-type-ether"></path><path d="M187.16566569615523,-61.46554794773293A197,197,0,0,1,187.54097956797347,-60.31070371571667L162.41525255648335,-52.23060153792717A170.6070045455344,170.6070045455344,0,0,0,162.0902212090961,-53.23072598026718Z" fill-rule="evenodd" style="fill: #414552; stroke: #fff; opacity: 1;" id="p-type-ether"></path><path d="M187.11619093480317,61.615997030400166A197,197,0,0,1,185.99571535183313,64.91990350239186L161.0770144897468,56.2222856443057A170.6070045455344,170.6070045455344,0,0,0,162.04737480891902,53.361018707833075Z" fill-rule="evenodd" style="fill: #DB3F29; stroke: #fff; opacity: 1;" id="p-type-functions"></path><path d="M185.99571535183313,64.91990350239186A197,197,0,0,1,184.8169078648498,68.20344981946015L160.05613725984793,59.06592016938968A170.6070045455344,170.6070045455344,0,0,0,161.0770144897468,56.2222856443057Z" fill-rule="evenodd" style="fill: #DB3F29; stroke: #fff; opacity: 1;" id="p-type-functions"></path><path d="M184.8169078648498,68.20344981946015A197,197,0,0,1,183.5801381709995,71.46560619708433L158.98506328634286,61.89103046352963A170.6070045455344,170.6070045455344,0,0,0,160.05613725984793,59.06592016938968Z" fill-rule="evenodd" style="fill: #DB3F29; stroke: #fff; opacity: 1;" id="p-type-functions"></path><path d="M183.5801381709995,71.46560619708433A197,197,0,0,1,182.28579414551322,74.70534955904814L157.86412847903514,64.69673051673232A170.6070045455344,170.6070045455344,0,0,0,158.98506328634286,61.89103046352963Z" fill-rule="evenodd" style="fill: #DB3F29; stroke: #fff; opacity: 1;" id="p-type-functions"></path><path d="M182.28579414551322,74.70534955904814A197,197,0,0,1,180.9342817200616,77.92166385829668L156.69368438506373,67.48214040643667A170.6070045455344,170.6070045455344,0,0,0,157.86412847903514,64.69673051673232Z" fill-rule="evenodd" style="fill: #DB3F29; stroke: #fff; opacity: 1;" id="p-type-functions"></path><path d="M180.9342817200616,77.92166385829668A197,197,0,0,1,179.5260247554466,81.1135403955885L155.47409807865077,70.24638657347491A170.6070045455344,170.6070045455344,0,0,0,156.69368438506373,67.48214040643667Z" fill-rule="evenodd" style="fill: #DB3F29; stroke: #fff; opacity: 1;" id="p-type-functions"></path><path d="M179.5260247554466,81.1135403955885A197,197,0,0,1,178.06146490867056,84.27997813584362L154.20575204598006,72.98860209603762A170.6070045455344,170.6070045455344,0,0,0,155.47409807865077,70.24638657347491Z" fill-rule="evenodd" style="fill: #DB3F29; stroke: #fff; opacity: 1;" id="p-type-functions"></path><path d="M178.06146490867056,84.27997813584362A197,197,0,0,1,176.54106149442381,87.41998402208769L152.8890440652418,75.70792696155767A170.6070045455344,170.6070045455344,0,0,0,154.20575204598006,72.98860209603762Z" fill-rule="evenodd" style="fill: #DB3F29; stroke: #fff; opacity: 1;" id="p-type-functions"></path><path d="M176.54106149442381,87.41998402208769A197,197,0,0,1,174.96529134103466,90.53257328689418L151.52438708188149,78.40350833642681A170.6070045455344,170.6070045455344,0,0,0,152.8890440652418,75.70792696155767Z" fill-rule="evenodd" style="fill: #DB3F29; stroke: #fff; opacity: 1;" id="p-type-functions"></path><path d="M174.96529134103466,90.53257328689418A197,197,0,0,1,173.33464864092662,93.61676976122666L150.11220907909225,81.07450083346114A170.6070045455344,170.6070045455344,0,0,0,151.52438708188149,78.40350833642681Z" fill-rule="evenodd" style="fill: #DB3F29; stroke: #fff; opacity: 1;" id="p-type-functions"></path><path d="M173.33464864092662,93.61676976122666A197,197,0,0,1,171.64964479562997,96.6716061805847L148.65295294359092,83.7200667770311A170.6070045455344,170.6070045455344,0,0,0,150.11220907909225,81.07450083346114Z" fill-rule="evenodd" style="fill: #DB3F29; stroke: #fff; opacity: 1;" id="p-type-functions"></path><path d="M171.64964479562997,96.6716061805847A197,197,0,0,1,169.91080825539632,99.69612448835684L147.1470763267199,86.33937646577289A170.6070045455344,170.6070045455344,0,0,0,148.65295294359092,83.7200667770311Z" fill-rule="evenodd" style="fill: #DB3F29; stroke: #fff; opacity: 1;" id="p-type-functions"></path><path d="M169.91080825539632,99.69612448835684A197,197,0,0,1,168.11868435346608,102.68937613628606L145.59505150091903,88.93160843279924A170.6070045455344,170.6070045455344,0,0,0,147.1470763267199,86.33937646577289Z" fill-rule="evenodd" style="fill: #DB3F29; stroke: #fff; opacity: 1;" id="p-type-functions"></path><path d="M168.11868435346608,102.68937613628606A197,197,0,0,1,166.27383513504137,105.65042238195302L143.99736521161137,91.49594970332735A170.6070045455344,170.6070045455344,0,0,0,145.59505150091903,88.93160843279924Z" fill-rule="evenodd" style="fill: #DB3F29; stroke: #fff; opacity: 1;" id="p-type-functions"></path><path d="M166.27383513504137,105.65042238195302A197,197,0,0,1,164.37683918101757,108.57833458318414L142.35451852455049,94.03159604964392A170.6070045455344,170.6070045455344,0,0,0,143.99736521161137,91.49594970332735Z" fill-rule="evenodd" style="fill: #DB3F29; stroke: #fff; opacity: 1;" id="p-type-functions"></path><path d="M164.37683918101757,108.57833458318414A197,197,0,0,1,162.42829142652909,111.47219448929198L140.6670266686763,96.53775224332657A170.6070045455344,170.6070045455344,0,0,0,142.35451852455049,94.03159604964392Z" fill-rule="evenodd" style="fill: #DB3F29; stroke: #fff; opacity: 1;" id="p-type-functions"></path><path d="M162.42829142652909,111.47219448929198A197,197,0,0,1,160.42880297436588,114.33109452905668L138.93541887452935,99.01363230464314A170.6070045455344,170.6070045455344,0,0,0,140.6670266686763,96.53775224332657Z" fill-rule="evenodd" style="fill: #DB3F29; stroke: #fff; opacity: 1;" id="p-type-functions"></path><path d="M160.42880297436588,114.33109452905668A197,197,0,0,1,158.3790009033198,117.15413809535809L137.16023820827348,101.45845974905038A170.6070045455344,170.6070045455344,0,0,0,138.93541887452935,99.01363230464314Z" fill-rule="evenodd" style="fill: #DB3F29; stroke: #fff; opacity: 1;" id="p-type-functions"></path><path d="M158.3790009033198,117.15413809535809A197,197,0,0,1,156.27952807152022,119.94043982636934L135.34204140137982,103.87146783071468A170.6070045455344,170.6070045455344,0,0,0,137.16023820827348,101.45845974905038Z" fill-rule="evenodd" style="fill: #DB3F29; stroke: #fff; opacity: 1;" id="p-type-functions"></path><path d="M156.27952807152022,119.94043982636934A197,197,0,0,1,154.13104291482136,122.68912588322365L133.4813986760248,106.25189978297858A170.6070045455344,170.6070045455344,0,0,0,135.34204140137982,103.87146783071468Z" fill-rule="evenodd" style="fill: #DB3F29; stroke: #fff; opacity: 1;" id="p-type-functions"></path><path d="M154.13104291482136,122.68912588322365A197,197,0,0,1,151.9342192403036,125.39933422406739L131.57889356625736,108.59900905569773A170.6070045455344,170.6070045455344,0,0,0,133.4813986760248,106.25189978297858Z" fill-rule="evenodd" style="fill: #DB3F29; stroke: #fff; opacity: 1;" id="p-type-functions"></path><path d="M151.9342192403036,125.39933422406739A197,197,0,0,1,151.01825753033367,126.50093237799403L130.78564745652957,109.55302104176025A170.6070045455344,170.6070045455344,0,0,0,131.57889356625736,108.59900905569773Z" fill-rule="evenodd" style="fill: #DB3F29; stroke: #fff; opacity: 1;" id="p-type-functions"></path><path d="M151.01825753033367,126.50093237799403A197,197,0,0,1,150.2356453768422,127.42939558125398L130.1078854502955,110.35709376226244A170.6070045455344,170.6070045455344,0,0,0,130.78564745652957,109.55302104176025Z" fill-rule="evenodd" style="fill: #DB3F29; stroke: #fff; opacity: 1;" id="p-type-functions"></path><path d="M12.9643922853972,196.5729496463599A197,197,0,0,1,9.481324783984263,196.77170650360435L8.211068124461377,170.409296578137A170.6070045455344,170.6070045455344,0,0,0,11.22749306378097,170.23716809058692Z" fill-rule="evenodd" style="fill: #1DC690; stroke: #fff; opacity: 1;" id="p-type-logs"></path><path d="M9.481324783984263,196.77170650360435A197,197,0,0,1,5.995283753174848,196.90875189467562L5.1920680331455324,170.5279813682763A170.6070045455344,170.6070045455344,0,0,0,8.211068124461377,170.409296578137Z" fill-rule="evenodd" style="fill: #1DC690; stroke: #fff; opacity: 1;" id="p-type-logs"></path><path d="M5.995283753174848,196.90875189467562A197,197,0,0,1,2.5073624838031576,196.98404283945138L2.1714396074695825,170.59318523912702A170.6070045455344,170.6070045455344,0,0,0,5.1920680331455324,170.5279813682763Z" fill-rule="evenodd" style="fill: #1DC690; stroke: #fff; opacity: 1;" id="p-type-logs"></path><path d="M2.5073624838031576,196.98404283945138A197,197,0,0,1,-0.9813451436169155,196.99755572521477L-0.8498698242527372,170.60488774147657A170.6070045455344,170.6070045455344,0,0,0,2.1714396074695825,170.59318523912702Z" fill-rule="evenodd" style="fill: #1DC690; stroke: #fff; opacity: 1;" id="p-type-logs"></path><path d="M-0.9813451436169155,196.99755572521477A197,197,0,0,1,-4.469745001954173,196.9492863140598L-3.8709127201308395,170.56308520519065A170.6070045455344,170.6070045455344,0,0,0,-0.8498698242527372,170.60488774147657Z" fill-rule="evenodd" style="fill: #1DC690; stroke: #fff; opacity: 1;" id="p-type-logs"></path><path d="M-4.469745001954173,196.9492863140598A197,197,0,0,1,-7.956743060599839,196.83924974422047L-6.890741621865006,170.46779074036448A170.6070045455344,170.6070045455344,0,0,0,-3.8709127201308395,170.56308520519065Z" fill-rule="evenodd" style="fill: #1DC690; stroke: #fff; opacity: 1;" id="p-type-logs"></path><path d="M-7.956743060599839,196.83924974422047A197,197,0,0,1,-11.44124572857701,196.66748052532304L-9.908409451887888,170.3190342332111A170.6070045455344,170.6070045455344,0,0,0,-6.890741621865006,170.46779074036448Z" fill-rule="evenodd" style="fill: #1DC690; stroke: #fff; opacity: 1;" id="p-type-logs"></path><path d="M-11.44124572857701,196.66748052532304A197,197,0,0,1,-14.922160197512236,196.43403252756326L-12.922969810386611,170.11686233668854A170.6070045455344,170.6070045455344,0,0,0,-9.908409451887888,170.3190342332111Z" fill-rule="evenodd" style="fill: #1DC690; stroke: #fff; opacity: 1;" id="p-type-logs"></path><path d="M-14.922160197512236,196.43403252756326A197,197,0,0,1,-18.398394784361656,196.1389789648115L-15.933477272112311,169.8613384558684A170.6070045455344,170.6070045455344,0,0,0,-12.922969810386611,170.11686233668854Z" fill-rule="evenodd" style="fill: #1DC690; stroke: #fff; opacity: 1;" id="p-type-logs"></path><path d="M-18.398394784361656,196.1389789648115A197,197,0,0,1,-21.86885927378421,195.78241237165156L-18.938987682884036,169.552542728051A170.6070045455344,170.6070045455344,0,0,0,-15.933477272112311,169.8613384558684Z" fill-rule="evenodd" style="fill: #1DC690; stroke: #fff; opacity: 1;" id="p-type-logs"></path><path d="M-21.86885927378421,195.78241237165156A197,197,0,0,1,-25.332465260054555,195.36444457435988L-21.93855845569401,169.1905719976326A170.6070045455344,170.6070045455344,0,0,0,-18.938987682884036,169.552542728051Z" fill-rule="evenodd" style="fill: #1DC690; stroke: #fff; opacity: 1;" id="p-type-logs"></path><path d="M-25.332465260054555,195.36444457435988A197,197,0,0,1,-28.788126488408444,194.88520665583468L-24.931248866321415,168.775539785733A170.6070045455344,170.6070045455344,0,0,0,-21.93855845569401,169.1905719976326Z" fill-rule="evenodd" style="fill: #1DC690; stroke: #fff; opacity: 1;" id="p-type-logs"></path><path d="M-28.788126488408444,194.88520665583468A197,197,0,0,1,-32.234759195713515,194.34484891448594L-27.916120348361947,168.30757625459339A170.6070045455344,170.6070045455344,0,0,0,-24.931248866321415,168.775539785733Z" fill-rule="evenodd" style="fill: #1DC690; stroke: #fff; opacity: 1;" id="p-type-logs"></path><path d="M-32.234759195713515,194.34484891448594A197,197,0,0,1,-35.67128245035869,193.74354081709856L-30.892236787580643,167.78682816675465A170.6070045455344,170.6070045455344,0,0,0,-27.916120348361947,168.30757625459339Z" fill-rule="evenodd" style="fill: #1DC690; stroke: #fff; opacity: 1;" id="p-type-logs"></path><path d="M-35.67128245035869,193.74354081709856A197,197,0,0,1,-39.09661849125548,193.08147094568452L-33.85866481549567,167.21345883902978A170.6070045455344,170.6070045455344,0,0,0,-30.892236787580643,167.78682816675465Z" fill-rule="evenodd" style="fill: #1DC690; stroke: #fff; opacity: 1;" id="p-type-logs"></path><path d="M-39.09661849125548,193.08147094568452A197,197,0,0,1,-42.509693065845035,192.3588469383398L-36.814474102100995,166.58764809128476A170.6070045455344,170.6070045455344,0,0,0,-33.85866481549567,167.21345883902978Z" fill-rule="evenodd" style="fill: #1DC690; stroke: #fff; opacity: 1;" id="p-type-logs"></path><path d="M-42.509693065845035,192.3588469383398A197,197,0,0,1,-45.90943576700483,191.57589542412495L-39.75873764763611,165.90959219004318A170.6070045455344,170.6070045455344,0,0,0,-36.814474102100995,166.58764809128476Z" fill-rule="evenodd" style="fill: #1DC690; stroke: #fff; opacity: 1;" id="p-type-logs"></path><path d="M-45.90943576700483,191.57589542412495A197,197,0,0,1,-49.29478036874928,190.73286195198972L-42.69053207331131,165.17950378693348A170.6070045455344,170.6070045455344,0,0,0,-39.75873764763611,165.90959219004318Z" fill-rule="evenodd" style="fill: #1DC690; stroke: #fff; opacity: 1;" id="p-type-logs"></path><path d="M-49.29478036874928,190.73286195198972A197,197,0,0,1,-52.66466516061916,189.83001091376428L-45.60893791089746,164.3976118519971A170.6070045455344,170.6070045455344,0,0,0,-42.69053207331131,165.17950378693348Z" fill-rule="evenodd" style="fill: #1DC690; stroke: #fff; opacity: 1;" id="p-type-logs"></path><path d="M-52.66466516061916,189.83001091376428A197,197,0,0,1,-56.0180332806548,188.86762546124058L-48.51303989108919,163.564161601879A170.6070045455344,170.6070045455344,0,0,0,-45.60893791089746,164.3976118519971Z" fill-rule="evenodd" style="fill: #1DC690; stroke: #fff; opacity: 1;" id="p-type-logs"></path><path d="M-56.0180332806548,188.86762546124058A197,197,0,0,1,-59.353833046848756,187.84600741737046L-51.40192723055135,162.67941442292292A170.6070045455344,170.6070045455344,0,0,0,-48.51303989108919,163.564161601879Z" fill-rule="evenodd" style="fill: #1DC690; stroke: #fff; opacity: 1;" id="p-type-logs"></path><path d="M-59.353833046848756,187.84600741737046A197,197,0,0,1,-62.67101828697389,186.76547718160813L-54.2746939175585,161.74364778919553A170.6070045455344,170.6070045455344,0,0,0,-51.40192723055135,162.67941442292292Z" fill-rule="evenodd" style="fill: #1DC690; stroke: #fff; opacity: 1;" id="p-type-logs"></path><path d="M-128.91295924850644,148.96458954326334A197,197,0,0,1,-131.53070090091757,146.6583605544306L-113.90892835776737,127.00986591751455A170.6070045455344,170.6070045455344,0,0,0,-111.64189758623466,129.0071188087878Z" fill-rule="evenodd" style="fill: #D7A449; stroke: #fff; opacity: 1;" id="p-type-tokenTransfers"></path><path d="M-131.53070090091757,146.6583605544306A197,197,0,0,1,-134.10719194599488,144.30613662751867L-116.14023505542744,124.97278024141922A170.6070045455344,170.6070045455344,0,0,0,-113.90892835776737,127.00986591751455Z" fill-rule="evenodd" style="fill: #D7A449; stroke: #fff; opacity: 1;" id="p-type-tokenTransfers"></path><path d="M-134.10719194599488,144.30613662751867A197,197,0,0,1,-136.6416243456175,141.90865546608197L-118.33511789767496,122.89650065052042A170.6070045455344,170.6070045455344,0,0,0,-116.14023505542744,124.97278024141922Z" fill-rule="evenodd" style="fill: #D7A449; stroke: #fff; opacity: 1;" id="p-type-tokenTransfers"></path><path d="M-136.6416243456175,141.90865546608197A197,197,0,0,1,-139.13320325208048,139.46666896723121L-120.49288852620538,120.78167830681706A170.6070045455344,170.6070045455344,0,0,0,-118.33511789767496,122.89650065052042Z" fill-rule="evenodd" style="fill: #D7A449; stroke: #fff; opacity: 1;" id="p-type-tokenTransfers"></path><path d="M-139.13320325208048,139.46666896723121A197,197,0,0,1,-141.5811472573749,136.98094298582384L-122.61287022183217,118.62897646007126A170.6070045455344,170.6070045455344,0,0,0,-120.49288852620538,120.78167830681706Z" fill-rule="evenodd" style="fill: #D7A449; stroke: #fff; opacity: 1;" id="p-type-tokenTransfers"></path><path d="M-141.5811472573749,136.98094298582384A197,197,0,0,1,-143.98468863825252,134.4522570942767L-124.6943981167193,116.43907023980012A170.6070045455344,170.6070045455344,0,0,0,-122.61287022183217,118.62897646007126Z" fill-rule="evenodd" style="fill: #D7A449; stroke: #fff; opacity: 1;" id="p-type-tokenTransfers"></path><path d="M-143.98468863825252,134.4522570942767A197,197,0,0,1,-146.3430735969989,131.881404338077L-126.7368194028968,114.21264644354196A170.6070045455344,170.6070045455344,0,0,0,-124.6943981167193,116.43907023980012Z" fill-rule="evenodd" style="fill: #D7A449; stroke: #fff; opacity: 1;" id="p-type-tokenTransfers"></path><path d="M-146.3430735969989,131.881404338077A197,197,0,0,1,-148.65556249783924,129.2691909870678L-128.73949353699408,111.9504033214631A170.6070045455344,170.6070045455344,0,0,0,-126.7368194028968,114.21264644354196Z" fill-rule="evenodd" style="fill: #D7A449; stroke: #fff; opacity: 1;" id="p-type-tokenTransfers"></path><path d="M-148.65556249783924,129.2691909870678A197,197,0,0,1,-150.92143009890253,126.6164362825857L-130.701792441127,109.65305035737292A170.6070045455344,170.6070045455344,0,0,0,-128.73949353699408,111.9504033214631Z" fill-rule="evenodd" style="fill: #D7A449; stroke: #fff; opacity: 1;" id="p-type-tokenTransfers"></path><path d="M-150.92143009890253,126.6164362825857A197,197,0,0,1,-153.1399657796717,123.92397218053084L-132.6231006998753,107.32130804621576A170.6070045455344,170.6070045455344,0,0,0,-130.701792441127,109.65305035737292Z" fill-rule="evenodd" style="fill: #D7A449; stroke: #fff; opacity: 1;" id="p-type-tokenTransfers"></path><path d="M-153.1399657796717,123.92397218053084A197,197,0,0,1,-155.31047376384822,121.19264309044924L-134.50281575328913,104.95590766810966A170.6070045455344,170.6070045455344,0,0,0,-132.6231006998753,107.32130804621576Z" fill-rule="evenodd" style="fill: #D7A449; stroke: #fff; opacity: 1;" id="p-type-tokenTransfers"></path><path d="M-155.31047376384822,121.19264309044924A197,197,0,0,1,-157.43227333756107,118.42330561070935L-136.34034808586344,102.55759105900253A170.6070045455344,170.6070045455344,0,0,0,-134.50281575328913,104.95590766810966Z" fill-rule="evenodd" style="fill: #D7A449; stroke: #fff; opacity: 1;" id="p-type-tokenTransfers"></path></g></svg>