<svg xmlns="http://www.w3.org/2000/svg" width="400" height="400" id="block-7907812"><g id="burst-container" transform="translate(200,200)"><circle r="197" style="fill: #f9f9f9; stroke: #f9f9f9; stroke-width: 3; opacity: 1;" id="circle-base"></circle><path display="none" d="M6.031385485800715e-15,-98.5A98.5,98.5,0,1,1,-6.031385485800715e-15,98.5A98.5,98.5,0,1,1,6.031385485800715e-15,-98.5Z" fill-rule="evenodd" id="p-type-root" style="stroke: #fff; opacity: 1;"></path><path d="M8.529667153919608e-15,-139.30003589374985A139.30003589374985,139.30003589374985,0,1,1,-112.21174811005983,-82.5410418281989L-79.34568801742007,-58.365330402921906A98.5,98.5,0,1,0,6.031385485800715e-15,-98.5Z" fill-rule="evenodd" style="fill: #0B1F65; stroke: #fff; opacity: 1;" id="p-type-data"></path><path d="M-112.21174811005983,-82.5410418281989A139.30003589374985,139.30003589374985,0,0,1,-8.412071812962932,-139.04580917026428L-5.948233022774305,-98.32023455986452A98.5,98.5,0,0,0,-79.34568801742007,-58.365330402921906Z" fill-rule="evenodd" style="fill: #D7A449; stroke: #fff; opacity: 1;" id="p-type-value"></path><path d="M1.0446666101440332e-14,-170.6070045455344A170.6070045455344,170.6070045455344,0,0,1,170.59290336453662,2.1934725113084568L139.28852232767812,1.7909628058423075A139.30003589374985,139.30003589374985,0,0,0,8.529667153919608e-15,-139.30003589374985Z" fill-rule="evenodd" style="fill: #DB3F29; stroke: #fff; opacity: 1;" id="p-type-functions"></path><path d="M170.59290336453662,2.1934725113084568A170.6070045455344,170.6070045455344,0,0,1,28.555267680551022,168.20031714504012L23.315278428645907,137.33498385988443A139.30003589374985,139.30003589374985,0,0,0,139.28852232767812,1.7909628058423075Z" fill-rule="evenodd" style="fill: #1DC690; stroke: #fff; opacity: 1;" id="p-type-logs"></path><path d="M28.555267680551022,168.20031714504012A170.6070045455344,170.6070045455344,0,0,1,-114.81224942312696,126.1938880548566L-93.74380910260444,103.03687813076662A139.30003589374985,139.30003589374985,0,0,0,23.315278428645907,137.33498385988443Z" fill-rule="evenodd" style="fill: #D7A449; stroke: #fff; opacity: 1;" id="p-type-tokenTransfers"></path><path d="M-114.81224942312696,126.1938880548566A170.6070045455344,170.6070045455344,0,0,1,-153.36652076244752,74.73593720039742L-125.2232398313195,61.02163719655374A139.30003589374985,139.30003589374985,0,0,0,-93.74380910260444,103.03687813076662Z" fill-rule="evenodd" style="fill: #414552; stroke: #fff; opacity: 1;" id="p-type-ether"></path><path d="M-137.4307630076806,-101.09171765840523A170.6070045455344,170.6070045455344,0,0,1,-79.29671779177778,-151.05886451132602L-64.74549895577734,-123.3390463923223A139.30003589374985,139.30003589374985,0,0,0,-112.21174811005983,-82.5410418281989Z" fill-rule="evenodd" style="fill: #D7A449; stroke: #fff; opacity: 1;" id="p-type-tokenTransfers"></path><path d="M-79.29671779177778,-151.05886451132602A170.6070045455344,170.6070045455344,0,0,1,-20.567678363750257,-169.36268953558016L-16.79343906162325,-138.28405694252515A139.30003589374985,139.30003589374985,0,0,0,-64.74549895577734,-123.3390463923223Z" fill-rule="evenodd" style="fill: #414552; stroke: #fff; opacity: 1;" id="p-type-ether"></path><path d="M1.206277097160143e-14,-197A197,197,0,0,1,5.950948807265176,-196.91009676574058L5.153672843712347,-170.52914606078335A170.6070045455344,170.6070045455344,0,0,0,1.0446666101440332e-14,-170.6070045455344Z" fill-rule="evenodd" style="fill: #DB3F29; stroke: #fff; opacity: 1;" id="p-type-functions"></path><path d="M5.950948807265176,-196.91009676574058A197,197,0,0,1,11.896466045548717,-196.64046911972903L10.302641810704191,-170.29564166977477A170.6070045455344,170.6070045455344,0,0,0,5.153672843712347,-170.52914606078335Z" fill-rule="evenodd" style="fill: #DB3F29; stroke: #fff; opacity: 1;" id="p-type-functions"></path><path d="M11.896466045548717,-196.64046911972903A197,197,0,0,1,17.831125103388114,-196.19136315737072L15.442207317592532,-169.9067044973814A170.6070045455344,170.6070045455344,0,0,0,10.302641810704191,-170.29564166977477Z" fill-rule="evenodd" style="fill: #DB3F29; stroke: #fff; opacity: 1;" id="p-type-functions"></path><path d="M17.831125103388114,-196.19136315737072A197,197,0,0,1,23.749509279833767,-195.56318878809245L20.56767836375031,-169.36268953558016A170.6070045455344,170.6070045455344,0,0,0,15.442207317592532,-169.9067044973814Z" fill-rule="evenodd" style="fill: #DB3F29; stroke: #fff; opacity: 1;" id="p-type-functions"></path><path d="M23.749509279833767,-195.56318878809245A197,197,0,0,1,29.646216728397928,-194.75651936120872L25.674376812891794,-168.6640933194426A170.6070045455344,170.6070045455344,0,0,0,20.56767836375031,-169.36268953558016Z" fill-rule="evenodd" style="fill: #DB3F29; stroke: #fff; opacity: 1;" id="p-type-functions"></path><path d="M29.646216728397928,-194.75651936120872A197,197,0,0,1,35.51586538744489,-193.7720911426124L30.757641662915727,-167.81155347393596A170.6070045455344,170.6070045455344,0,0,0,25.674376812891794,-168.6640933194426Z" fill-rule="evenodd" style="fill: #DB3F29; stroke: #fff; opacity: 1;" id="p-type-functions"></path><path d="M35.51586538744489,-193.7720911426124A197,197,0,0,1,41.35309789252383,-192.61080264276805L35.81283330011037,-166.805848131948A170.6070045455344,170.6070045455344,0,0,0,30.757641662915727,-167.81155347393596Z" fill-rule="evenodd" style="fill: #DB3F29; stroke: #fff; opacity: 1;" id="p-type-functions"></path><path d="M41.35309789252383,-192.61080264276805A197,197,0,0,1,47.15258646615922,-191.2737137966202L40.8353377338362,-165.64789522406716A170.6070045455344,170.6070045455344,0,0,0,35.81283330011037,-166.805848131948Z" fill-rule="evenodd" style="fill: #DB3F29; stroke: #fff; opacity: 1;" id="p-type-functions"></path><path d="M47.15258646615922,-191.2737137966202A197,197,0,0,1,52.90903778063725,-189.76204499616645L45.82057080782249,-164.33875164076585A170.6070045455344,170.6070045455344,0,0,0,40.8353377338362,-165.64789522406716Z" fill-rule="evenodd" style="fill: #DB3F29; stroke: #fff; opacity: 1;" id="p-type-functions"></path><path d="M52.90903778063725,-189.76204499616645A197,197,0,0,1,58.61719778934837,-188.07717597657725L50.763982384232726,-162.87961226775224A170.6070045455344,170.6070045455344,0,0,0,45.82057080782249,-164.33875164076585Z" fill-rule="evenodd" style="fill: #DB3F29; stroke: #fff; opacity: 1;" id="p-type-functions"></path><path d="M58.61719778934837,-188.07717597657725A197,197,0,0,1,64.27185652227794,-186.22064455687968L55.66106049668126,-161.27180889537013A170.6070045455344,170.6070045455344,0,0,0,50.763982384232726,-162.87961226775224Z" fill-rule="evenodd" style="fill: #DB3F29; stroke: #fff; opacity: 1;" id="p-type-functions"></path><path d="M64.27185652227794,-186.22064455687968A197,197,0,0,1,69.86785284126623,-184.19414523635425L60.50733546840932,-159.51680900304322A170.6070045455344,170.6070045455344,0,0,0,55.66106049668126,-161.27180889537013Z" fill-rule="evenodd" style="fill: #DB3F29; stroke: #fff; opacity: 1;" id="p-type-functions"></path><path d="M69.86785284126623,-184.19414523635425A197,197,0,0,1,75.4000791506993,-181.99952764792627L65.29838399186299,-157.61621441987245A170.6070045455344,170.6070045455344,0,0,0,60.50733546840932,-159.51680900304322Z" fill-rule="evenodd" style="fill: #DB3F29; stroke: #fff; opacity: 1;" id="p-type-functions"></path><path d="M75.4000791506993,-181.99952764792627A197,197,0,0,1,80.86348605932965,-179.63879486996288L70.02983316594828,-155.57175986260953A170.6070045455344,170.6070045455344,0,0,0,65.29838399186299,-157.61621441987245Z" fill-rule="evenodd" style="fill: #DB3F29; stroke: #fff; opacity: 1;" id="p-type-functions"></path><path d="M80.86348605932965,-179.63879486996288A197,197,0,0,1,86.25308698897295,-177.11410159801696L74.6973644872796,-153.38531135234072A170.6070045455344,170.6070045455344,0,0,0,70.02983316594828,-155.57175986260953Z" fill-rule="evenodd" style="fill: #DB3F29; stroke: #fff; opacity: 1;" id="p-type-functions"></path><path d="M86.25308698897295,-177.11410159801696A197,197,0,0,1,91.56396272587337,-174.42775217818658L79.29671779177777,-151.05886451132602A170.6070045455344,170.6070045455344,0,0,0,74.6973644872796,-153.38531135234072Z" fill-rule="evenodd" style="fill: #DB3F29; stroke: #fff; opacity: 1;" id="p-type-functions"></path><path d="M91.56396272587337,-174.42775217818658A197,197,0,0,1,96.7912659105843,-171.58219850388488L83.82369514302074,-148.59454274154862A170.6070045455344,170.6070045455344,0,0,0,79.29671779177777,-151.05886451132602Z" fill-rule="evenodd" style="fill: #DB3F29; stroke: #fff; opacity: 1;" id="p-type-functions"></path><path d="M96.7912659105843,-171.58219850388488A197,197,0,0,1,101.93022546226553,-168.58003777794013L88.27416466379736,-145.99459528663652A170.6070045455344,170.6070045455344,0,0,0,83.82369514302074,-148.59454274154862Z" fill-rule="evenodd" style="fill: #DB3F29; stroke: #fff; opacity: 1;" id="p-type-functions"></path><path d="M101.93022546226553,-168.58003777794013A197,197,0,0,1,106.97615093335939,-165.42401014206828L92.64406430736761,-143.26139517892577A170.6070045455344,170.6070045455344,0,0,0,88.27416466379736,-145.99459528663652Z" fill-rule="evenodd" style="fill: #DB3F29; stroke: #fff; opacity: 1;" id="p-type-functions"></path><path d="M106.97615093335939,-165.42401014206828A197,197,0,0,1,111.92443679067118,-162.11699617588235L96.92940556498688,-140.3974370735388A170.6070045455344,170.6070045455344,0,0,0,92.64406430736761,-143.26139517892577Z" fill-rule="evenodd" style="fill: #DB3F29; stroke: #fff; opacity: 1;" id="p-type-functions"></path><path d="M111.92443679067118,-162.11699617588235A197,197,0,0,1,116.77056661894594,-158.6620142677204L101.12627710631034,-137.40533497145492A170.6070045455344,170.6070045455344,0,0,0,96.92940556498688,-140.3974370735388Z" fill-rule="evenodd" style="fill: #DB3F29; stroke: #fff; opacity: 1;" id="p-type-functions"></path><path d="M116.77056661894594,-158.6620142677204A197,197,0,0,1,121.51011724310544,-155.0622178596926L105.23084834935487,-134.28781983365087A170.6070045455344,170.6070045455344,0,0,0,101.12627710631034,-137.40533497145492Z" fill-rule="evenodd" style="fill: #DB3F29; stroke: #fff; opacity: 1;" id="p-type-functions"></path><path d="M121.51011724310544,-155.0622178596926A197,197,0,0,1,126.13876276538272,-151.32089256946145L109.23937295676009,-131.0477370884895A170.6070045455344,170.6070045455344,0,0,0,105.23084834935487,-134.28781983365087Z" fill-rule="evenodd" style="fill: #DB3F29; stroke: #fff; opacity: 1;" id="p-type-functions"></path><path d="M126.13876276538272,-151.32089256946145A197,197,0,0,1,130.65227851366924,-147.4414531913824L113.14819225515734,-127.68804403463136A170.6070045455344,170.6070045455344,0,0,0,109.23937295676009,-131.0477370884895Z" fill-rule="evenodd" style="fill: #DB3F29; stroke: #fff; opacity: 1;" id="p-type-functions"></path><path d="M130.65227851366924,-147.4414531913824A197,197,0,0,1,131.5619707272802,-146.6303101625113L113.93600882176932,-126.98557356552632A170.6070045455344,170.6070045455344,0,0,0,113.14819225515734,-127.68804403463136Z" fill-rule="evenodd" style="fill: #DB3F29; stroke: #fff; opacity: 1;" id="p-type-functions"></path><path d="M196.98371735871007,2.5328038897279637A197,197,0,0,1,196.81731096493542,8.482104958789092L170.4487912001756,7.345718371877314A170.6070045455344,170.6070045455344,0,0,0,170.59290336453662,2.1934725113084568Z" fill-rule="evenodd" style="fill: #1DC690; stroke: #fff; opacity: 1;" id="p-type-logs"></path><path d="M196.81731096493542,8.482104958789092A197,197,0,0,1,196.4712648471608,14.423664213950495L170.1491064713018,12.491259624937635A170.6070045455344,170.6070045455344,0,0,0,170.4487912001756,7.345718371877314Z" fill-rule="evenodd" style="fill: #1DC690; stroke: #fff; opacity: 1;" id="p-type-logs"></path><path d="M196.4712648471608,14.423664213950495A197,197,0,0,1,195.9458948497029,20.35205865629254L169.69412270711712,17.625399815660327A170.6070045455344,170.6070045455344,0,0,0,170.1491064713018,12.491259624937635Z" fill-rule="evenodd" style="fill: #1DC690; stroke: #fff; opacity: 1;" id="p-type-logs"></path><path d="M195.9458948497029,20.35205865629254A197,197,0,0,1,195.24168048994196,26.26187730272557L169.08425518185433,22.743452895230295A170.6070045455344,170.6070045455344,0,0,0,169.69412270711712,17.625399815660327Z" fill-rule="evenodd" style="fill: #1DC690; stroke: #fff; opacity: 1;" id="p-type-logs"></path><path d="M195.24168048994196,26.26187730272557A197,197,0,0,1,194.3592645206552,32.14772612471961L168.32006053574693,27.840747497911845A170.6070045455344,170.6070045455344,0,0,0,169.08425518185433,22.743452895230295Z" fill-rule="evenodd" style="fill: #1DC690; stroke: #fff; opacity: 1;" id="p-type-logs"></path><path d="M194.3592645206552,32.14772612471961A197,197,0,0,1,193.2994523433614,38.00423297155935L167.4022362669704,32.91263120471256A170.6070045455344,170.6070045455344,0,0,0,168.32006053574693,27.840747497911845Z" fill-rule="evenodd" style="fill: #1DC690; stroke: #fff; opacity: 1;" id="p-type-logs"></path><path d="M193.2994523433614,38.00423297155935A197,197,0,0,1,192.0632112732123,43.82605247363063L166.33162009501962,37.95447478975396A170.6070045455344,170.6070045455344,0,0,0,167.4022362669704,32.91263120471256Z" fill-rule="evenodd" style="fill: #1DC690; stroke: #fff; opacity: 1;" id="p-type-logs"></path><path d="M192.0632112732123,43.82605247363063A197,197,0,0,1,190.65166965610157,49.607870921263306L165.10918919610276,42.961676445473366A170.6070045455344,170.6070045455344,0,0,0,166.33162009501962,37.95447478975396Z" fill-rule="evenodd" style="fill: #1DC690; stroke: #fff; opacity: 1;" id="p-type-logs"></path><path d="M190.65166965610157,49.607870921263306A197,197,0,0,1,189.0661158387975,55.344411114677236L163.73605931125005,47.92966598280032A170.6070045455344,170.6070045455344,0,0,0,165.10918919610276,42.961676445473366Z" fill-rule="evenodd" style="fill: #1DC690; stroke: #fff; opacity: 1;" id="p-type-logs"></path><path d="M189.0661158387975,55.344411114677236A197,197,0,0,1,187.3079969930388,61.03043718060493L162.21348372795086,52.8539090024742A170.6070045455344,170.6070045455344,0,0,0,163.73605931125005,47.92966598280032Z" fill-rule="evenodd" style="fill: #1DC690; stroke: #fff; opacity: 1;" id="p-type-logs"></path><path d="M187.3079969930388,61.03043718060493A197,197,0,0,1,185.37891779466761,66.6607593511945L160.54285213624928,57.72991103369551A170.6070045455344,170.6070045455344,0,0,0,162.21348372795086,52.8539090024742Z" fill-rule="evenodd" style="fill: #1DC690; stroke: #fff; opacity: 1;" id="p-type-logs"></path><path d="M185.37891779466761,66.6607593511945A197,197,0,0,1,183.28063895900448,72.23023870083117L158.72568936034176,62.55322163633369A170.6070045455344,170.6070045455344,0,0,0,160.54285213624928,57.72991103369551Z" fill-rule="evenodd" style="fill: #1DC690; stroke: #fff; opacity: 1;" id="p-type-logs"></path><path d="M183.28063895900448,72.23023870083117A197,197,0,0,1,181.01507563380275,77.73379183655373L156.76365396683474,67.31943846294695A170.6070045455344,170.6070045455344,0,0,0,158.72568936034176,62.55322163633369Z" fill-rule="evenodd" style="fill: #1DC690; stroke: #fff; opacity: 1;" id="p-type-logs"></path><path d="M181.01507563380275,77.73379183655373A197,197,0,0,1,178.5842956512488,83.16639553778535L154.65853675093229,72.02421127690688A170.6070045455344,170.6070045455344,0,0,0,156.76365396683474,67.31943846294695Z" fill-rule="evenodd" style="fill: #1DC690; stroke: #fff; opacity: 1;" id="p-type-logs"></path><path d="M178.5842956512488,83.16639553778535A197,197,0,0,1,175.9905176406035,88.52309134114343L152.41225910193603,76.66324592296048A170.6070045455344,170.6070045455344,0,0,0,154.65853675093229,72.02421127690688Z" fill-rule="evenodd" style="fill: #1DC690; stroke: #fff; opacity: 1;" id="p-type-logs"></path><path d="M175.9905176406035,88.52309134114343A197,197,0,0,1,173.23610900320816,93.79899006614401L150.02687124954835,81.23230824660492A170.6070045455344,170.6070045455344,0,0,0,152.41225910193603,76.66324592296048Z" fill-rule="evenodd" style="fill: #1DC690; stroke: #fff; opacity: 1;" id="p-type-logs"></path><path d="M173.23610900320816,93.79899006614401A197,197,0,0,1,170.32358375170205,98.98927627767033L147.5045503925804,85.72722795869879A170.6070045455344,170.6070045455344,0,0,0,150.02687124954835,81.23230824660492Z" fill-rule="evenodd" style="fill: #1DC690; stroke: #fff; opacity: 1;" id="p-type-logs"></path><path d="M170.32358375170205,98.98927627767033A197,197,0,0,1,167.25560021542498,104.08921268113201L144.84759871177206,90.14390244178166A170.6070045455344,170.6070045455344,0,0,0,147.5045503925804,85.72722795869879Z" fill-rule="evenodd" style="fill: #1DC690; stroke: #fff; opacity: 1;" id="p-type-logs"></path><path d="M167.25560021542498,104.08921268113201A197,197,0,0,1,164.03495861409846,109.09414444630384L142.0584412685383,94.47830049462816A170.6070045455344,170.6070045455344,0,0,0,144.84759871177206,90.14390244178166Z" fill-rule="evenodd" style="fill: #1DC690; stroke: #fff; opacity: 1;" id="p-type-logs"></path><path d="M164.03495861409846,109.09414444630384A197,197,0,0,1,160.66459850200013,113.9995034558971L139.1396237915594,98.7264660116188A170.6070045455344,170.6070045455344,0,0,0,142.0584412685383,94.47830049462816Z" fill-rule="evenodd" style="fill: #1DC690; stroke: #fff; opacity: 1;" id="p-type-logs"></path><path d="M160.66459850200013,113.9995034558971A197,197,0,0,1,157.1475960849645,118.80081247498623L136.09381035323526,102.88452159356932A170.6070045455344,170.6070045455344,0,0,0,139.1396237915594,98.7264660116188Z" fill-rule="evenodd" style="fill: #1DC690; stroke: #fff; opacity: 1;" id="p-type-logs"></path><path d="M157.1475960849645,118.80081247498623A197,197,0,0,1,153.4871614126585,123.49368923748499L132.92378093812488,106.94867208672291A170.6070045455344,170.6070045455344,0,0,0,136.09381035323526,102.88452159356932Z" fill-rule="evenodd" style="fill: #1DC690; stroke: #fff; opacity: 1;" id="p-type-logs"></path><path d="M153.4871614126585,123.49368923748499A197,197,0,0,1,149.68663544869463,128.07385044594233L129.63242890558982,110.915208046675A170.6070045455344,170.6070045455344,0,0,0,132.92378093812488,106.94867208672291Z" fill-rule="evenodd" style="fill: #1DC690; stroke: #fff; opacity: 1;" id="p-type-logs"></path><path d="M32.97278296429591,194.22099676293868A197,197,0,0,1,27.090734391385826,195.1283990354438L23.46126419011689,168.98615056448128A170.6070045455344,170.6070045455344,0,0,0,28.555267680551022,168.20031714504012Z" fill-rule="evenodd" style="fill: #D7A449; stroke: #fff; opacity: 1;" id="p-type-tokenTransfers"></path><path d="M27.090734391385826,195.1283990354438A197,197,0,0,1,21.183959476950374,195.85770309303365L18.345847059779132,169.61774640543717A170.6070045455344,170.6070045455344,0,0,0,23.46126419011689,168.98615056448128Z" fill-rule="evenodd" style="fill: #D7A449; stroke: #fff; opacity: 1;" id="p-type-tokenTransfers"></path><path d="M21.183959476950374,195.85770309303365A197,197,0,0,1,15.25784947143473,196.408243282982L13.213685249381445,170.09452819573673A170.6070045455344,170.6070045455344,0,0,0,18.345847059779132,169.61774640543717Z" fill-rule="evenodd" style="fill: #D7A449; stroke: #fff; opacity: 1;" id="p-type-tokenTransfers"></path><path d="M15.25784947143473,196.408243282982A197,197,0,0,1,9.317813272870092,196.77951711449018L8.069463002025323,170.4160607655832A170.6070045455344,170.6070045455344,0,0,0,13.213685249381445,170.09452819573673Z" fill-rule="evenodd" style="fill: #D7A449; stroke: #fff; opacity: 1;" id="p-type-tokenTransfers"></path><path d="M9.317813272870092,196.77951711449018A197,197,0,0,1,3.3692724900470123,196.97118571732213L2.917875568652765,170.58205064474356A170.6070045455344,170.6070045455344,0,0,0,8.069463002025323,170.4160607655832Z" fill-rule="evenodd" style="fill: #D7A449; stroke: #fff; opacity: 1;" id="p-type-tokenTransfers"></path><path d="M3.3692724900470123,196.97118571732213A197,197,0,0,1,-2.5823435059126822,196.98307415109926L-2.2363750774181534,170.59234633040575A170.6070045455344,170.6070045455344,0,0,0,2.917875568652765,170.58205064474356Z" fill-rule="evenodd" style="fill: #D7A449; stroke: #fff; opacity: 1;" id="p-type-tokenTransfers"></path><path d="M-2.5823435059126822,196.98307415109926A197,197,0,0,1,-8.531602537068819,196.8151715649723L-7.388584532093366,170.4469384254587A170.6070045455344,170.6070045455344,0,0,0,-2.2363750774181534,170.59234633040575Z" fill-rule="evenodd" style="fill: #D7A449; stroke: #fff; opacity: 1;" id="p-type-tokenTransfers"></path><path d="M-8.531602537068819,196.8151715649723A197,197,0,0,1,-14.473074576737663,196.46763120752536L-12.534050254321528,170.1459596470693A170.6070045455344,170.6070045455344,0,0,0,-7.388584532093366,170.4469384254587Z" fill-rule="evenodd" style="fill: #D7A449; stroke: #fff; opacity: 1;" id="p-type-tokenTransfers"></path><path d="M-14.473074576737663,196.46763120752536A197,197,0,0,1,-20.401336705603185,195.94077028690228L-17.668075858212287,169.6896847055485A170.6070045455344,170.6070045455344,0,0,0,-12.534050254321528,170.1459596470693Z" fill-rule="evenodd" style="fill: #D7A449; stroke: #fff; opacity: 1;" id="p-type-tokenTransfers"></path><path d="M-20.401336705603185,195.94077028690228A197,197,0,0,1,-26.310978061341302,195.23506968128348L-22.785975399536607,169.07853005361653A170.6070045455344,170.6070045455344,0,0,0,-17.668075858212287,169.6896847055485Z" fill-rule="evenodd" style="fill: #D7A449; stroke: #fff; opacity: 1;" id="p-type-tokenTransfers"></path><path d="M-26.310978061341302,195.23506968128348A197,197,0,0,1,-32.19660477723938,194.35117349997722L-27.88307765269672,168.31305350629725A170.6070045455344,170.6070045455344,0,0,0,-22.785975399536607,169.07853005361653Z" fill-rule="evenodd" style="fill: #D7A449; stroke: #fff; opacity: 1;" id="p-type-tokenTransfers"></path><path d="M-32.19660477723938,194.35117349997722A197,197,0,0,1,-38.05284490530348,193.28988849552613L-32.95473037426206,167.39395373178712A170.6070045455344,170.6070045455344,0,0,0,-27.88307765269672,168.31305350629725Z" fill-rule="evenodd" style="fill: #D7A449; stroke: #fff; opacity: 1;" id="p-type-tokenTransfers"></path><path d="M-38.05284490530348,193.28988849552613A197,197,0,0,1,-43.87435331935986,192.0521833273654L-37.99630454917975,166.32206961376465A170.6070045455344,170.6070045455344,0,0,0,-32.95473037426206,167.39395373178712Z" fill-rule="evenodd" style="fill: #D7A449; stroke: #fff; opacity: 1;" id="p-type-tokenTransfers"></path><path d="M-43.87435331935986,192.0521833273654A197,197,0,0,1,-49.655816593675624,190.63918767770505L-43.00319861578396,165.0983794857219A170.6070045455344,170.6070045455344,0,0,0,-37.99630454917975,166.32206961376465Z" fill-rule="evenodd" style="fill: #D7A449; stroke: #fff; opacity: 1;" id="p-type-tokenTransfers"></path><path d="M-49.655816593675624,190.63918767770505A197,197,0,0,1,-55.39195785264553,189.05219122044247L-47.97084266574796,163.72400023801657A170.6070045455344,170.6070045455344,0,0,0,-43.00319861578396,165.0983794857219Z" fill-rule="evenodd" style="fill: #D7A449; stroke: #fff; opacity: 1;" id="p-type-tokenTransfers"></path><path d="M-132.57376622141763,145.71615047711393A197,197,0,0,1,-133.47274753530303,144.89315258278168L-115.59079007847924,125.48115097110377A170.6070045455344,170.6070045455344,0,0,0,-114.81224942312696,126.1938880548566Z" fill-rule="evenodd" style="fill: #414552; stroke: #fff; opacity: 1;" id="p-type-ether"></path></g></svg>