<svg xmlns="http://www.w3.org/2000/svg" width="400" height="400" id="block-7907791"><g id="burst-container" transform="translate(200,200)"><circle r="197" style="fill: #f9f9f9; stroke: #f9f9f9; stroke-width: 3; opacity: 1;" id="circle-base"></circle><path display="none" d="M6.031385485800715e-15,-98.5A98.5,98.5,0,1,1,-6.031385485800715e-15,98.5A98.5,98.5,0,1,1,6.031385485800715e-15,-98.5Z" fill-rule="evenodd" id="p-type-root" style="stroke: #fff; opacity: 1;"></path><path d="M8.529667153919608e-15,-139.30003589374985A139.30003589374985,139.30003589374985,0,1,1,-128.46234638072244,-53.86952350224836L-90.83659625294398,-38.09150536772792A98.5,98.5,0,1,0,6.031385485800715e-15,-98.5Z" fill-rule="evenodd" style="fill: #0B1F65; stroke: #fff; opacity: 1;" id="p-type-data"></path><path d="M-128.46234638072244,-53.86952350224836A139.30003589374985,139.30003589374985,0,0,1,-3.441764420769728,-139.25751059699408L-2.433694961172865,-98.46993007429204A98.5,98.5,0,0,0,-90.83659625294398,-38.09150536772792Z" fill-rule="evenodd" style="fill: #D7A449; stroke: #fff; opacity: 1;" id="p-type-value"></path><path d="M1.0446666101440332e-14,-170.6070045455344A170.6070045455344,170.6070045455344,0,0,1,168.45744080550608,26.99704867683518L137.54492444953053,22.042997939775315A139.30003589374985,139.30003589374985,0,0,0,8.529667153919608e-15,-139.30003589374985Z" fill-rule="evenodd" style="fill: #1DC690; stroke: #fff; opacity: 1;" id="p-type-logs"></path><path d="M168.45744080550608,26.99704867683518A170.6070045455344,170.6070045455344,0,0,1,35.645349410841774,166.8417185999323L29.10430591992644,136.22569279295053A139.30003589374985,139.30003589374985,0,0,0,137.54492444953053,22.042997939775315Z" fill-rule="evenodd" style="fill: #D7A449; stroke: #fff; opacity: 1;" id="p-type-tokenTransfers"></path><path d="M35.645349410841774,166.8417185999323A170.6070045455344,170.6070045455344,0,0,1,-97.56868340403919,139.95392820068454L-79.66449640501777,114.27190386326338A139.30003589374985,139.30003589374985,0,0,0,29.10430591992644,136.22569279295053Z" fill-rule="evenodd" style="fill: #414552; stroke: #fff; opacity: 1;" id="p-type-ether"></path><path d="M-157.33359989671968,-65.97642263368736A170.6070045455344,170.6070045455344,0,0,1,-91.82526661319598,-143.78758782111714L-74.97501623245138,-117.40207383578729A139.30003589374985,139.30003589374985,0,0,0,-128.46234638072244,-53.86952350224836Z" fill-rule="evenodd" style="fill: #D7A449; stroke: #fff; opacity: 1;" id="p-type-tokenTransfers"></path><path d="M-91.82526661319598,-143.78758782111714A170.6070045455344,170.6070045455344,0,0,1,-8.42799297557167,-170.39870578852327L-6.881427448637159,-139.12996067083876A139.30003589374985,139.30003589374985,0,0,0,-74.97501623245138,-117.40207383578729Z" fill-rule="evenodd" style="fill: #414552; stroke: #fff; opacity: 1;" id="p-type-ether"></path><path d="M1.206277097160143e-14,-197A197,197,0,0,1,2.433880721085163,-196.984964463371L2.107802534240939,-170.59398338885416A170.6070045455344,170.6070045455344,0,0,0,1.0446666101440332e-14,-170.6070045455344Z" fill-rule="evenodd" style="fill: #1DC690; stroke: #fff; opacity: 1;" id="p-type-logs"></path><path d="M2.433880721085163,-196.984964463371A197,197,0,0,1,4.867389922345619,-196.93986014858407L4.215283322875671,-170.55492190642838A170.6070045455344,170.6070045455344,0,0,0,2.107802534240939,-170.59398338885416Z" fill-rule="evenodd" style="fill: #1DC690; stroke: #fff; opacity: 1;" id="p-type-logs"></path><path d="M4.867389922345619,-196.93986014858407A197,197,0,0,1,7.300156140667385,-196.86469394058926L6.322120669410921,-170.48982606079875A170.6070045455344,170.6070045455344,0,0,0,4.215283322875671,-170.55492190642838Z" fill-rule="evenodd" style="fill: #1DC690; stroke: #fff; opacity: 1;" id="p-type-logs"></path><path d="M7.300156140667385,-196.86469394058926A197,197,0,0,1,9.731808026349,-196.7594773131355L8.427992975571534,-170.39870578852327A170.6070045455344,170.6070045455344,0,0,0,6.322120669410921,-170.48982606079875Z" fill-rule="evenodd" style="fill: #1DC690; stroke: #fff; opacity: 1;" id="p-type-logs"></path><path d="M9.731808026349,-196.7594773131355A197,197,0,0,1,12.161974399786487,-196.62422632701936L10.5325787903911,-170.2815749986598A170.6070045455344,170.6070045455344,0,0,0,8.427992975571534,-170.39870578852327Z" fill-rule="evenodd" style="fill: #1DC690; stroke: #fff; opacity: 1;" id="p-type-logs"></path><path d="M12.161974399786487,-196.62422632701936A197,197,0,0,1,14.590284308131904,-196.45896162763327L12.63555685927969,-170.13845157064262A170.6070045455344,170.6070045455344,0,0,0,10.5325787903911,-170.2815749986598Z" fill-rule="evenodd" style="fill: #1DC690; stroke: #fff; opacity: 1;" id="p-type-logs"></path><path d="M14.590284308131904,-196.45896162763327A197,197,0,0,1,17.016367081917494,-196.26370844181415L14.736606173061826,-169.96935735155344A170.6070045455344,170.6070045455344,0,0,0,12.63555685927969,-170.13845157064262Z" fill-rule="evenodd" style="fill: #1DC690; stroke: #fff; opacity: 1;" id="p-type-logs"></path><path d="M17.016367081917494,-196.26370844181415A197,197,0,0,1,19.439852391636556,-196.0384965739928L16.835406016976936,-169.7743181527864A170.6070045455344,170.6070045455344,0,0,0,14.736606173061826,-169.96935735155344Z" fill-rule="evenodd" style="fill: #1DC690; stroke: #fff; opacity: 1;" id="p-type-logs"></path><path d="M19.439852391636556,-196.0384965739928A197,197,0,0,1,21.860370304272447,-195.78336040164416L18.931636019634897,-169.55336374610815A170.6070045455344,170.6070045455344,0,0,0,16.835406016976936,-169.7743181527864Z" fill-rule="evenodd" style="fill: #1DC690; stroke: #fff; opacity: 1;" id="p-type-logs"></path><path d="M21.860370304272447,-195.78336040164416A197,197,0,0,1,24.27755133976683,-195.49833887004L21.024976201919007,-169.30652785911337A170.6070045455344,170.6070045455344,0,0,0,18.931636019634897,-169.55336374610815Z" fill-rule="evenodd" style="fill: #1DC690; stroke: #fff; opacity: 1;" id="p-type-logs"></path><path d="M24.27755133976683,-195.49833887004A197,197,0,0,1,26.691026527419268,-195.18347548630393L23.115107025829435,-169.03384817007642A170.6070045455344,170.6070045455344,0,0,0,21.024976201919007,-169.30652785911337Z" fill-rule="evenodd" style="fill: #1DC690; stroke: #fff; opacity: 1;" id="p-type-logs"></path><path d="M26.691026527419268,-195.18347548630393A197,197,0,0,1,29.100427462208568,-194.83881831277037L25.20170944325894,-168.73536630219982A170.6070045455344,170.6070045455344,0,0,0,23.115107025829435,-169.03384817007642Z" fill-rule="evenodd" style="fill: #1DC690; stroke: #fff; opacity: 1;" id="p-type-logs"></path><path d="M29.100427462208568,-194.83881831277037A197,197,0,0,1,31.50538636102804,-194.464419959648L27.284464944694054,-168.41112781726082A170.6070045455344,170.6070045455344,0,0,0,25.20170944325894,-168.73536630219982Z" fill-rule="evenodd" style="fill: #1DC690; stroke: #fff; opacity: 1;" id="p-type-logs"></path><path d="M31.50538636102804,-194.464419959648A197,197,0,0,1,33.905536118825765,-194.06033757698918L29.36305560783395,-168.06118220865653A170.6070045455344,170.6070045455344,0,0,0,27.284464944694054,-168.41112781726082Z" fill-rule="evenodd" style="fill: #1DC690; stroke: #fff; opacity: 1;" id="p-type-logs"></path><path d="M33.905536118825765,-194.06033757698918A197,197,0,0,1,36.30051036464139,-193.6266328459661L31.43716414611976,-167.68558289384904A170.6070045455344,170.6070045455344,0,0,0,29.36305560783395,-168.06118220865653Z" fill-rule="evenodd" style="fill: #1DC690; stroke: #fff; opacity: 1;" id="p-type-logs"></path><path d="M36.30051036464139,-193.6266328459661A197,197,0,0,1,38.68994351753068,-193.16337196945565L33.506473957166634,-167.28438720621156A170.6070045455344,170.6070045455344,0,0,0,31.43716414611976,-167.68558289384904Z" fill-rule="evenodd" style="fill: #1DC690; stroke: #fff; opacity: 1;" id="p-type-logs"></path><path d="M38.68994351753068,-193.16337196945565A197,197,0,0,1,41.07347084236989,-192.6706256619337L35.57066917109175,-166.85765638627657A170.6070045455344,170.6070045455344,0,0,0,33.506473957166634,-167.28438720621156Z" fill-rule="evenodd" style="fill: #1DC690; stroke: #fff; opacity: 1;" id="p-type-logs"></path><path d="M41.07347084236989,-192.6706256619337A197,197,0,0,1,43.45072850553062,-192.14846913868107L37.62943469873017,-166.405455572388A170.6070045455344,170.6070045455344,0,0,0,35.57066917109175,-166.85765638627657Z" fill-rule="evenodd" style="fill: #1DC690; stroke: #fff; opacity: 1;" id="p-type-logs"></path><path d="M43.45072850553062,-192.14846913868107A197,197,0,0,1,45.821353630417214,-191.5969821043021L39.68245627973162,-165.92785379075806A170.6070045455344,170.6070045455344,0,0,0,37.62943469873017,-166.405455572388Z" fill-rule="evenodd" style="fill: #1DC690; stroke: #fff; opacity: 1;" id="p-type-logs"></path><path d="M45.821353630417214,-191.5969821043021A197,197,0,0,1,48.18498435285811,-191.01624874055824L41.7294205305308,-165.42492394493073A170.6070045455344,170.6070045455344,0,0,0,39.68245627973162,-165.92785379075806Z" fill-rule="evenodd" style="fill: #1DC690; stroke: #fff; opacity: 1;" id="p-type-logs"></path><path d="M48.18498435285811,-191.01624874055824A197,197,0,0,1,50.54125987634259,-190.4063576935182L43.77001499218384,-164.89674280465337A170.6070045455344,170.6070045455344,0,0,0,41.7294205305308,-165.42492394493073Z" fill-rule="evenodd" style="fill: #1DC690; stroke: #fff; opacity: 1;" id="p-type-logs"></path><path d="M50.54125987634259,-190.4063576935182A197,197,0,0,1,52.88982052709468,-189.76740206002643L45.80392817806366,-164.34339099415828A170.6070045455344,170.6070045455344,0,0,0,43.77001499218384,-164.89674280465337Z" fill-rule="evenodd" style="fill: #1DC690; stroke: #fff; opacity: 1;" id="p-type-logs"></path><path d="M52.88982052709468,-189.76740206002643A197,197,0,0,1,55.230307808975255,-189.0994793734923L47.83084962140663,-163.7649529798558A170.6070045455344,170.6070045455344,0,0,0,45.80392817806366,-164.34339099415828Z" fill-rule="evenodd" style="fill: #1DC690; stroke: #fff; opacity: 1;" id="p-type-logs"></path><path d="M55.230307808975255,-189.0994793734923A197,197,0,0,1,57.562364458205145,-188.40269158900242L49.85046992270413,-163.16151705744088A170.6070045455344,170.6070045455344,0,0,0,47.83084962140663,-163.7649529798558Z" fill-rule="evenodd" style="fill: #1DC690; stroke: #fff; opacity: 1;" id="p-type-logs"></path><path d="M57.562364458205145,-188.40269158900242A197,197,0,0,1,59.88563449789937,-187.67714506775727L51.862480796930605,-162.53317533841513A170.6070045455344,170.6070045455344,0,0,0,49.85046992270413,-163.16151705744088Z" fill-rule="evenodd" style="fill: #1DC690; stroke: #fff; opacity: 1;" id="p-type-logs"></path><path d="M59.88563449789937,-187.67714506775727A197,197,0,0,1,62.19976329240531,-186.92295056083603L53.86657512060181,-161.8800237360267A170.6070045455344,170.6070045455344,0,0,0,51.862480796930605,-162.53317533841513Z" fill-rule="evenodd" style="fill: #1DC690; stroke: #fff; opacity: 1;" id="p-type-logs"></path><path d="M62.19976329240531,-186.92295056083603A197,197,0,0,1,64.50439760143617,-186.14022319229082L55.86244697865573,-161.20216195062918A170.6070045455344,170.6070045455344,0,0,0,53.86657512060181,-161.8800237360267Z" fill-rule="evenodd" style="fill: #1DC690; stroke: #fff; opacity: 1;" id="p-type-logs"></path><path d="M64.50439760143617,-186.14022319229082A197,197,0,0,1,66.79918563399117,-185.32908244157363L57.849791711148875,-160.4996934544633A170.6070045455344,170.6070045455344,0,0,0,55.86244697865573,-161.20216195062918Z" fill-rule="evenodd" style="fill: #1DC690; stroke: #fff; opacity: 1;" id="p-type-logs"></path><path d="M66.79918563399117,-185.32908244157363A197,197,0,0,1,69.08377710205491,-184.4896521252983L59.828305959761266,-159.7727254758621A170.6070045455344,170.6070045455344,0,0,0,57.849791711148875,-160.4996934544633Z" fill-rule="evenodd" style="fill: #1DC690; stroke: #fff; opacity: 1;" id="p-type-logs"></path><path d="M69.08377710205491,-184.4896521252983A197,197,0,0,1,71.35782327406704,-183.62206037834073L61.79768771410252,-159.0213689828831A170.6070045455344,170.6070045455344,0,0,0,59.828305959761266,-159.7727254758621Z" fill-rule="evenodd" style="fill: #1DC690; stroke: #fff; opacity: 1;" id="p-type-logs"></path><path d="M71.35782327406704,-183.62206037834073A197,197,0,0,1,73.62097702815421,-182.7264396342795L63.75763635781214,-158.24573866636976A170.6070045455344,170.6070045455344,0,0,0,61.79768771410252,-159.0213689828831Z" fill-rule="evenodd" style="fill: #1DC690; stroke: #fff; opacity: 1;" id="p-type-logs"></path><path d="M73.62097702815421,-182.7264396342795A197,197,0,0,1,75.87289290511681,-181.80292660518057L65.70785271444726,-157.44595292244418A170.6070045455344,170.6070045455344,0,0,0,63.75763635781214,-158.24573866636976Z" fill-rule="evenodd" style="fill: #1DC690; stroke: #fff; opacity: 1;" id="p-type-logs"></path><path d="M75.87289290511681,-181.80292660518057A197,197,0,0,1,78.1132271611614,-180.851662260729L67.64803909315039,-156.62213383443475A170.6070045455344,170.6070045455344,0,0,0,65.70785271444726,-157.44595292244418Z" fill-rule="evenodd" style="fill: #1DC690; stroke: #fff; opacity: 1;" id="p-type-logs"></path><path d="M78.1132271611614,-180.851662260729A197,197,0,0,1,80.34163782037156,-179.87279180671055L69.5778993340904,-155.77440715424078A170.6070045455344,170.6070045455344,0,0,0,67.64803909315039,-156.62213383443475Z" fill-rule="evenodd" style="fill: #1DC690; stroke: #fff; opacity: 1;" id="p-type-logs"></path><path d="M80.34163782037156,-179.87279180671055A197,197,0,0,1,82.55778472690882,-178.86646466284668L71.49713885366997,-154.90290228313683A170.6070045455344,170.6070045455344,0,0,0,69.5778993340904,-155.77440715424078Z" fill-rule="evenodd" style="fill: #1DC690; stroke: #fff; opacity: 1;" id="p-type-logs"></path><path d="M82.55778472690882,-178.86646466284668A197,197,0,0,1,84.76132959693567,-177.83283443998647L73.4054646894921,-154.0077522520205A170.6070045455344,170.6070045455344,0,0,0,71.49713885366997,-154.90290228313683Z" fill-rule="evenodd" style="fill: #1DC690; stroke: #fff; opacity: 1;" id="p-type-logs"></path><path d="M84.76132959693567,-177.83283443998647A197,197,0,0,1,86.95193607025308,-176.7720589166586L75.30258554507962,-153.08909370110584A170.6070045455344,170.6070045455344,0,0,0,73.4054646894921,-154.0077522520205Z" fill-rule="evenodd" style="fill: #1DC690; stroke: #fff; opacity: 1;" id="p-type-logs"></path><path d="M86.95193607025308,-176.7720589166586A197,197,0,0,1,89.12926976164417,-175.6843000149873L77.18821183434005,-152.1470668590658A170.6070045455344,170.6070045455344,0,0,0,75.30258554507962,-153.08909370110584Z" fill-rule="evenodd" style="fill: #1DC690; stroke: #fff; opacity: 1;" id="p-type-logs"></path><path d="M89.12926976164417,-175.6843000149873A197,197,0,0,1,91.29299831191625,-174.56972377597572L79.06205572576934,-151.18181552162727A170.6070045455344,170.6070045455344,0,0,0,77.18821183434005,-152.1470668590658Z" fill-rule="evenodd" style="fill: #1DC690; stroke: #fff; opacity: 1;" id="p-type-logs"></path><path d="M91.29299831191625,-174.56972377597572A197,197,0,0,1,93.44279143863409,-173.42850033416056L80.92383118638817,-150.19348702962105A170.6070045455344,170.6070045455344,0,0,0,79.06205572576934,-151.18181552162727Z" fill-rule="evenodd" style="fill: #1DC690; stroke: #fff; opacity: 1;" id="p-type-logs"></path><path d="M93.44279143863409,-173.42850033416056A197,197,0,0,1,95.57832098653576,-172.26080389164198L82.77325402540332,-149.18223224649125A170.6070045455344,170.6070045455344,0,0,0,80.92383118638817,-150.19348702962105Z" fill-rule="evenodd" style="fill: #1DC690; stroke: #fff; opacity: 1;" id="p-type-logs"></path><path d="M95.57832098653576,-172.26080389164198A197,197,0,0,1,97.69926097762392,-171.06681269149237L84.610041937588,-148.1482055352666A170.6070045455344,170.6070045455344,0,0,0,82.77325402540332,-149.18223224649125Z" fill-rule="evenodd" style="fill: #1DC690; stroke: #fff; opacity: 1;" id="p-type-logs"></path><path d="M97.69926097762392,-171.06681269149237A197,197,0,0,1,99.80528766092468,-169.84670899054854L86.43391454637434,-147.09156473499783A170.6070045455344,170.6070045455344,0,0,0,84.610041937588,-148.1482055352666Z" fill-rule="evenodd" style="fill: #1DC690; stroke: #fff; opacity: 1;" id="p-type-logs"></path><path d="M99.80528766092468,-169.84670899054854A197,197,0,0,1,101.89607956190672,-168.60067903159103L88.24459344665155,-146.01247113666415A170.6070045455344,170.6070045455344,0,0,0,86.43391454637434,-147.09156473499783Z" fill-rule="evenodd" style="fill: #1DC690; stroke: #fff; opacity: 1;" id="p-type-logs"></path><path d="M101.89607956190672,-168.60067903159103A197,197,0,0,1,103.97131753155266,-167.3289130149152L90.04180224726298,-144.91108945855314A170.6070045455344,170.6070045455344,0,0,0,88.24459344665155,-146.01247113666415Z" fill-rule="evenodd" style="fill: #1DC690; stroke: #fff; opacity: 1;" id="p-type-logs"></path><path d="M103.97131753155266,-167.3289130149152A197,197,0,0,1,106.03068479507562,-166.03160506929794L91.8252666131959,-143.7875878211172A170.6070045455344,170.6070045455344,0,0,0,90.04180224726298,-144.91108945855314Z" fill-rule="evenodd" style="fill: #1DC690; stroke: #fff; opacity: 1;" id="p-type-logs"></path><path d="M106.03068479507562,-166.03160506929794A197,197,0,0,1,108.07386700027332,-164.708953222365L93.59471430745742,-142.6421377213109A170.6070045455344,170.6070045455344,0,0,0,91.8252666131959,-143.7875878211172Z" fill-rule="evenodd" style="fill: #1DC690; stroke: #fff; opacity: 1;" id="p-type-logs"></path><path d="M108.07386700027332,-164.708953222365A197,197,0,0,1,110.10055226551246,-163.36115937036305L95.34987523263011,-141.4749140064127A170.6070045455344,170.6070045455344,0,0,0,93.59471430745742,-142.6421377213109Z" fill-rule="evenodd" style="fill: #1DC690; stroke: #fff; opacity: 1;" id="p-type-logs"></path><path d="M110.10055226551246,-163.36115937036305A197,197,0,0,1,112.11043122733572,-161.9884292473411L97.09048147210095,-140.28609484733553A170.6070045455344,170.6070045455344,0,0,0,95.34987523263011,-141.4749140064127Z" fill-rule="evenodd" style="fill: #1DC690; stroke: #fff; opacity: 1;" id="p-type-logs"></path><path d="M112.11043122733572,-161.9884292473411A197,197,0,0,1,114.10319708768473,-160.59097239374626L98.81626733095754,-139.07586171142972A170.6070045455344,170.6070045455344,0,0,0,97.09048147210095,-140.28609484733553Z" fill-rule="evenodd" style="fill: #1DC690; stroke: #fff; opacity: 1;" id="p-type-logs"></path><path d="M114.10319708768473,-160.59097239374626A197,197,0,0,1,116.07854566073122,-159.16900212443858L100.52696937654515,-137.8443993347831A170.6070045455344,170.6070045455344,0,0,0,98.81626733095754,-139.07586171142972Z" fill-rule="evenodd" style="fill: #1DC690; stroke: #fff; opacity: 1;" id="p-type-logs"></path><path d="M116.07854566073122,-159.16900212443858A197,197,0,0,1,118.03617541930944,-157.72273549612945L102.2223264786783,-136.59189569402173A170.6070045455344,170.6070045455344,0,0,0,100.52696937654515,-137.8443993347831Z" fill-rule="evenodd" style="fill: #1DC690; stroke: #fff; opacity: 1;" id="p-type-logs"></path><path d="M118.03617541930944,-157.72273549612945A197,197,0,0,1,119.97578754094282,-156.2523932742489L103.90207984950102,-135.31854197761632A170.6070045455344,170.6070045455344,0,0,0,102.2223264786783,-136.59189569402173Z" fill-rule="evenodd" style="fill: #1DC690; stroke: #fff; opacity: 1;" id="p-type-logs"></path><path d="M119.97578754094282,-156.2523932742489A197,197,0,0,1,121.89708595345776,-154.7581998992471L105.56597308298967,-134.02453255669835A170.6070045455344,170.6070045455344,0,0,0,103.90207984950102,-135.31854197761632Z" fill-rule="evenodd" style="fill: #1DC690; stroke: #fff; opacity: 1;" id="p-type-logs"></path><path d="M121.89708595345776,-154.7581998992471A197,197,0,0,1,123.79977738017755,-153.2403834523344L107.21375219409187,-132.71006495539012A170.6070045455344,170.6070045455344,0,0,0,105.56597308298967,-134.02453255669835Z" fill-rule="evenodd" style="fill: #1DC690; stroke: #fff; opacity: 1;" id="p-type-logs"></path><path d="M123.79977738017755,-153.2403834523344A197,197,0,0,1,125.68357138468956,-151.69917562066593L108.84516565749608,-131.37533982065366A170.6070045455344,170.6070045455344,0,0,0,107.21375219409187,-132.71006495539012Z" fill-rule="evenodd" style="fill: #1DC690; stroke: #fff; opacity: 1;" id="p-type-logs"></path><path d="M125.68357138468956,-151.69917562066593A197,197,0,0,1,127.54818041517906,-150.13481166197576L110.45996444602588,-130.0205608916632A170.6070045455344,170.6070045455344,0,0,0,108.84516565749608,-131.37533982065366Z" fill-rule="evenodd" style="fill: #1DC690; stroke: #fff; opacity: 1;" id="p-type-logs"></path><path d="M127.54818041517906,-150.13481166197576A197,197,0,0,1,129.3933198483224,-148.54753036866597L112.05790206865241,-128.64593496870512A170.6070045455344,170.6070045455344,0,0,0,110.45996444602588,-130.0205608916632Z" fill-rule="evenodd" style="fill: #1DC690; stroke: #fff; opacity: 1;" id="p-type-logs"></path><path d="M129.3933198483224,-148.54753036866597A197,197,0,0,1,131.21870803273345,-146.93757403135612L113.63873460812033,-127.25167188161102A170.6070045455344,170.6070045455344,0,0,0,112.05790206865241,-128.64593496870512Z" fill-rule="evenodd" style="fill: #1DC690; stroke: #fff; opacity: 1;" id="p-type-logs"></path><path d="M131.21870803273345,-146.93757403135612A197,197,0,0,1,133.02406633195628,-145.30518840189876L115.20222075818039,-125.8379844577283A170.6070045455344,170.6070045455344,0,0,0,113.63873460812033,-127.25167188161102Z" fill-rule="evenodd" style="fill: #1DC690; stroke: #fff; opacity: 1;" id="p-type-logs"></path><path d="M133.02406633195628,-145.30518840189876A197,197,0,0,1,134.80911916699768,-143.65062265586675L116.74812186042367,-124.40508848943304A170.6070045455344,170.6070045455344,0,0,0,115.20222075818039,-125.8379844577283Z" fill-rule="evenodd" style="fill: #1DC690; stroke: #fff; opacity: 1;" id="p-type-logs"></path><path d="M134.80911916699768,-143.65062265586675A197,197,0,0,1,136.57359405839276,-141.9741293545178L118.27620194071159,-122.95320270119039A170.6070045455344,170.6070045455344,0,0,0,116.74812186042367,-124.40508848943304Z" fill-rule="evenodd" style="fill: #1DC690; stroke: #fff; opacity: 1;" id="p-type-logs"></path><path d="M136.57359405839276,-141.9741293545178A197,197,0,0,1,138.31722166779778,-140.27596440624208L119.78622774519627,-121.48254871616734A170.6070045455344,170.6070045455344,0,0,0,118.27620194071159,-122.95320270119039Z" fill-rule="evenodd" style="fill: #1DC690; stroke: #fff; opacity: 1;" id="p-type-logs"></path><path d="M138.31722166779778,-140.27596440624208A197,197,0,0,1,140.0397358391032,-138.55638702749937L121.27796877592547,-119.99335102240309A170.6070045455344,170.6070045455344,0,0,0,119.78622774519627,-121.48254871616734Z" fill-rule="evenodd" style="fill: #1DC690; stroke: #fff; opacity: 1;" id="p-type-logs"></path><path d="M140.0397358391032,-138.55638702749937A197,197,0,0,1,141.74087363906114,-136.8156597032507L122.75119732602703,-118.48583693854204A170.6070045455344,170.6070045455344,0,0,0,121.27796877592547,-119.99335102240309Z" fill-rule="evenodd" style="fill: #1DC690; stroke: #fff; opacity: 1;" id="p-type-logs"></path><path d="M141.74087363906114,-136.8156597032507A197,197,0,0,1,143.42037539742086,-135.05404814689146L124.20568851446717,-116.96023657913469A170.6070045455344,170.6070045455344,0,0,0,122.75119732602703,-118.48583693854204Z" fill-rule="evenodd" style="fill: #1DC690; stroke: #fff; opacity: 1;" id="p-type-logs"></path><path d="M143.42037539742086,-135.05404814689146A197,197,0,0,1,145.077984746566,-133.27182125969154L125.64122032037743,-115.41678281951188A170.6070045455344,170.6070045455344,0,0,0,124.20568851446717,-116.96023657913469Z" fill-rule="evenodd" style="fill: #1DC690; stroke: #fff; opacity: 1;" id="p-type-logs"></path><path d="M145.077984746566,-133.27182125969154A197,197,0,0,1,146.71344866064794,-131.4692510897488L127.05757361694515,-113.85571126023746A170.6070045455344,170.6070045455344,0,0,0,125.64122032037743,-115.41678281951188Z" fill-rule="evenodd" style="fill: #1DC690; stroke: #fff; opacity: 1;" id="p-type-logs"></path><path d="M146.71344866064794,-131.4692510897488A197,197,0,0,1,148.32651749420904,-129.64661279046243L128.454532204862,-112.27726019114498A170.6070045455344,170.6070045455344,0,0,0,127.05757361694515,-113.85571126023746Z" fill-rule="evenodd" style="fill: #1DC690; stroke: #fff; opacity: 1;" id="p-type-logs"></path><path d="M148.32651749420904,-129.64661279046243A197,197,0,0,1,149.91694502028955,-127.80418457853199L129.83188284532574,-110.6816705549641A170.6070045455344,170.6070045455344,0,0,0,128.454532204862,-112.27726019114498Z" fill-rule="evenodd" style="fill: #1DC690; stroke: #fff; opacity: 1;" id="p-type-logs"></path><path d="M194.5178975921088,31.173506641792446A197,197,0,0,1,194.1179114103914,33.57434243090149L168.1110426109761,29.076233460518473A170.6070045455344,170.6070045455344,0,0,0,168.45744080550608,26.99704867683518Z" fill-rule="evenodd" style="fill: #D7A449; stroke: #fff; opacity: 1;" id="p-type-tokenTransfers"></path><path d="M194.1179114103914,33.57434243090149A197,197,0,0,1,193.6882940919496,35.97005326310277L167.73898309929973,31.15097990132634A170.6070045455344,170.6070045455344,0,0,0,168.1110426109761,29.076233460518473Z" fill-rule="evenodd" style="fill: #D7A449; stroke: #fff; opacity: 1;" id="p-type-tokenTransfers"></path><path d="M193.6882940919496,35.97005326310277A197,197,0,0,1,193.22911121573688,38.36027344501587L167.34131906351672,33.22097129950135A170.6070045455344,170.6070045455344,0,0,0,167.73898309929973,31.15097990132634Z" fill-rule="evenodd" style="fill: #D7A449; stroke: #fff; opacity: 1;" id="p-type-tokenTransfers"></path><path d="M193.22911121573688,38.36027344501587A197,197,0,0,1,192.7404328737427,40.744638121380945L166.9181112050705,35.285891681119764A170.6070045455344,170.6070045455344,0,0,0,167.34131906351672,33.22097129950135Z" fill-rule="evenodd" style="fill: #D7A449; stroke: #fff; opacity: 1;" id="p-type-tokenTransfers"></path><path d="M192.7404328737427,40.744638121380945A197,197,0,0,1,192.22233366029303,43.12278333075201L166.46942412454234,37.345425846323366A170.6070045455344,170.6070045455344,0,0,0,166.9181112050705,35.285891681119764Z" fill-rule="evenodd" style="fill: #D7A449; stroke: #fff; opacity: 1;" id="p-type-tokenTransfers"></path><path d="M192.22233366029303,43.12278333075201A197,197,0,0,1,191.674892660664,45.49434606105388L165.99532631179048,39.39925941743317A170.6070045455344,170.6070045455344,0,0,0,166.46942412454234,37.345425846323366Z" fill-rule="evenodd" style="fill: #D7A449; stroke: #fff; opacity: 1;" id="p-type-tokenTransfers"></path><path d="M191.674892660664,45.49434606105388A197,197,0,0,1,191.09819343901,47.858964304994196L165.49589013549542,41.44707888693763A170.6070045455344,170.6070045455344,0,0,0,165.99532631179048,39.39925941743317Z" fill-rule="evenodd" style="fill: #D7A449; stroke: #fff; opacity: 1;" id="p-type-tokenTransfers"></path><path d="M191.09819343901,47.858964304994196A197,197,0,0,1,190.4923240256079,50.21627711532197L164.9711918321132,43.488571665347976A170.6070045455344,170.6070045455344,0,0,0,165.49589013549542,41.44707888693763Z" fill-rule="evenodd" style="fill: #D7A449; stroke: #fff; opacity: 1;" id="p-type-tokenTransfers"></path><path d="M190.4923240256079,50.21627711532197A197,197,0,0,1,189.85737690341966,52.56592465992448L164.42131149423835,45.52342612891348A170.6070045455344,170.6070045455344,0,0,0,164.9711918321132,43.488571665347976Z" fill-rule="evenodd" style="fill: #D7A449; stroke: #fff; opacity: 1;" id="p-type-tokenTransfers"></path><path d="M189.85737690341966,52.56592465992448A197,197,0,0,1,189.19344899397535,54.90754827675376L163.8463330583781,47.55133166718923A170.6070045455344,170.6070045455344,0,0,0,164.42131149423835,45.52342612891348Z" fill-rule="evenodd" style="fill: #D7A449; stroke: #fff; opacity: 1;" id="p-type-tokenTransfers"></path><path d="M189.19344899397535,54.90754827675376A197,197,0,0,1,188.5006416425786,57.240790528574664L163.2463442921399,49.571978730449345A170.6070045455344,170.6070045455344,0,0,0,163.8463330583781,47.55133166718923Z" fill-rule="evenodd" style="fill: #D7A449; stroke: #fff; opacity: 1;" id="p-type-tokenTransfers"></path><path d="M188.5006416425786,57.240790528574664A197,197,0,0,1,187.77906060283655,59.56529525752586L162.6214367808341,51.58505887693814A170.6070045455344,170.6070045455344,0,0,0,163.2463442921399,49.571978730449345Z" fill-rule="evenodd" style="fill: #D7A449; stroke: #fff; opacity: 1;" id="p-type-tokenTransfers"></path><path d="M187.77906060283655,59.56529525752586A197,197,0,0,1,187.0288160205173,61.88070763948557L161.971705913494,53.59026481995229A170.6070045455344,170.6070045455344,0,0,0,162.6214367808341,51.58505887693814Z" fill-rule="evenodd" style="fill: #D7A449; stroke: #fff; opacity: 1;" id="p-type-tokenTransfers"></path><path d="M187.0288160205173,61.88070763948557A197,197,0,0,1,186.25002241673656,64.18667423823366L161.29725086831502,55.58729047474654A170.6070045455344,170.6070045455344,0,0,0,161.971705913494,53.59026481995229Z" fill-rule="evenodd" style="fill: #D7A449; stroke: #fff; opacity: 1;" id="p-type-tokenTransfers"></path><path d="M186.25002241673656,64.18667423823366A197,197,0,0,1,185.4427986704766,66.48284305940203L160.59817459751585,57.57583100525611A170.6070045455344,170.6070045455344,0,0,0,161.29725086831502,55.58729047474654Z" fill-rule="evenodd" style="fill: #D7A449; stroke: #fff; opacity: 1;" id="p-type-tokenTransfers"></path><path d="M185.4427986704766,66.48284305940203A197,197,0,0,1,184.60726800044003,68.76886360420471L159.87458381162315,59.55558287062837A170.6070045455344,170.6070045455344,0,0,0,160.59817459751585,57.57583100525611Z" fill-rule="evenodd" style="fill: #D7A449; stroke: #fff; opacity: 1;" id="p-type-tokenTransfers"></path><path d="M184.60726800044003,68.76886360420471A197,197,0,0,1,183.74355794624097,71.04438692293981L159.12658896318274,61.52624387155684A170.6070045455344,170.6070045455344,0,0,0,159.87458381162315,59.55558287062837Z" fill-rule="evenodd" style="fill: #D7A449; stroke: #fff; opacity: 1;" id="p-type-tokenTransfers"></path><path d="M183.74355794624097,71.04438692293981A197,197,0,0,1,182.8518003489369,73.30906566825495L158.35430422989964,63.48751319641042A170.6070045455344,170.6070045455344,0,0,0,159.12658896318274,61.52624387155684Z" fill-rule="evenodd" style="fill: #D7A449; stroke: #fff; opacity: 1;" id="p-type-tokenTransfers"></path><path d="M182.8518003489369,73.30906566825495A197,197,0,0,1,181.93213133090362,75.56255414816813L157.5578474972093,65.43909146715082A170.6070045455344,170.6070045455344,0,0,0,158.35430422989964,63.48751319641042Z" fill-rule="evenodd" style="fill: #D7A449; stroke: #fff; opacity: 1;" id="p-type-tokenTransfers"></path><path d="M181.93213133090362,75.56255414816813A197,197,0,0,1,180.98469127505692,77.80450837883585L156.73734034028314,67.38068078503106A170.6070045455344,170.6070045455344,0,0,0,157.5578474972093,65.43909146715082Z" fill-rule="evenodd" style="fill: #D7A449; stroke: #fff; opacity: 1;" id="p-type-tokenTransfers"></path><path d="M180.98469127505692,77.80450837883585A197,197,0,0,1,180.00962480342386,80.0345861370606L155.89290800547045,69.31198477606834A170.6070045455344,170.6070045455344,0,0,0,156.73734034028314,67.38068078503106Z" fill-rule="evenodd" style="fill: #D7A449; stroke: #fff; opacity: 1;" id="p-type-tokenTransfers"></path><path d="M180.00962480342386,80.0345861370606A197,197,0,0,1,179.00708075506685,82.2524470125295L155.02467939118037,71.232708636284A170.6070045455344,170.6070045455344,0,0,0,155.89290800547045,69.31198477606834Z" fill-rule="evenodd" style="fill: #D7A449; stroke: #fff; opacity: 1;" id="p-type-tokenTransfers"></path><path d="M179.00708075506685,82.2524470125295A197,197,0,0,1,177.97721216336421,84.45775245977627L154.1327870282062,73.14255917670391A170.6070045455344,170.6070045455344,0,0,0,155.02467939118037,71.232708636284Z" fill-rule="evenodd" style="fill: #D7A449; stroke: #fff; opacity: 1;" id="p-type-tokenTransfers"></path><path d="M177.97721216336421,84.45775245977627A197,197,0,0,1,176.92017623265025,86.65016584985845L153.217367059495,75.04124486811224A170.6070045455344,170.6070045455344,0,0,0,154.1327870282062,73.14255917670391Z" fill-rule="evenodd" style="fill: #D7A449; stroke: #fff; opacity: 1;" id="p-type-tokenTransfers"></path><path d="M176.92017623265025,86.65016584985845A197,197,0,0,1,175.83613431421898,88.8293525217422L152.2785592193663,76.92847588555202A170.6070045455344,170.6070045455344,0,0,0,153.217367059495,75.04124486811224Z" fill-rule="evenodd" style="fill: #D7A449; stroke: #fff; opacity: 1;" id="p-type-tokenTransfers"></path><path d="M175.83613431421898,88.8293525217422A197,197,0,0,1,174.72525188169442,90.99497983338661L151.31650681218215,78.8039641525655A170.6070045455344,170.6070045455344,0,0,0,152.2785592193663,76.92847588555202Z" fill-rule="evenodd" style="fill: #D7A449; stroke: #fff; opacity: 1;" id="p-type-tokenTransfers"></path><path d="M174.72525188169442,90.99497983338661A197,197,0,0,1,173.5876985057721,93.14671721251996L150.3313566904727,80.66742338516752A170.6070045455344,170.6070045455344,0,0,0,151.31650681218215,78.8039641525655Z" fill-rule="evenodd" style="fill: #D7A449; stroke: #fff; opacity: 1;" id="p-type-tokenTransfers"></path><path d="M173.5876985057721,93.14671721251996A197,197,0,0,1,172.42364782833477,95.2842362070998L149.32325923251946,82.51856913554542A170.6070045455344,170.6070045455344,0,0,0,150.3313566904727,80.66742338516752Z" fill-rule="evenodd" style="fill: #D7A449; stroke: #fff; opacity: 1;" id="p-type-tokenTransfers"></path><path d="M172.42364782833477,95.2842362070998A197,197,0,0,1,171.23327753594683,97.40721053544958L148.2923683194012,84.35711883547854A170.6070045455344,170.6070045455344,0,0,0,149.32325923251946,82.51856913554542Z" fill-rule="evenodd" style="fill: #D7A449; stroke: #fff; opacity: 1;" id="p-type-tokenTransfers"></path><path d="M171.23327753594683,97.40721053544958A197,197,0,0,1,170.01676933273154,99.51531613606397L147.23884131150461,86.18279183947085A170.6070045455344,170.6070045455344,0,0,0,148.2923683194012,84.35711883547854Z" fill-rule="evenodd" style="fill: #D7A449; stroke: #fff; opacity: 1;" id="p-type-tokenTransfers"></path><path d="M170.01676933273154,99.51531613606397A197,197,0,0,1,168.77430891263452,101.60823121707519L146.16283902450388,87.99530946759015A170.6070045455344,170.6070045455344,0,0,0,147.23884131150461,86.18279183947085Z" fill-rule="evenodd" style="fill: #D7A449; stroke: #fff; opacity: 1;" id="p-type-tokenTransfers"></path><path d="M168.77430891263452,101.60823121707519A197,197,0,0,1,167.50608593107867,103.68563630537298L145.0645257048133,89.79439504800709A170.6070045455344,170.6070045455344,0,0,0,146.16283902450388,87.99530946759015Z" fill-rule="evenodd" style="fill: #D7A449; stroke: #fff; opacity: 1;" id="p-type-tokenTransfers"></path><path d="M167.50608593107867,103.68563630537298A197,197,0,0,1,166.21229397601422,105.74721429537055L143.94406900451554,91.57977395922784A170.6070045455344,170.6070045455344,0,0,0,145.0645257048133,89.79439504800709Z" fill-rule="evenodd" style="fill: #D7A449; stroke: #fff; opacity: 1;" id="p-type-tokenTransfers"></path><path d="M166.21229397601422,105.74721429537055A197,197,0,0,1,164.89313053836835,107.79265049740918L142.8016399557706,93.35117367201366A170.6070045455344,170.6070045455344,0,0,0,143.94406900451554,91.57977395922784Z" fill-rule="evenodd" style="fill: #D7A449; stroke: #fff; opacity: 1;" id="p-type-tokenTransfers"></path><path d="M164.89313053836835,107.79265049740918A197,197,0,0,1,163.54879698189933,109.8216326857941L141.63741294470853,95.10832379098113A170.6070045455344,170.6070045455344,0,0,0,142.8016399557706,93.35117367201366Z" fill-rule="evenodd" style="fill: #D7A449; stroke: #fff; opacity: 1;" id="p-type-tokenTransfers"></path><path d="M163.54879698189933,109.8216326857941A197,197,0,0,1,162.1794985124592,111.83385114645407L140.45156568481022,96.85095609587668A170.6070045455344,170.6070045455344,0,0,0,141.63741294470853,95.10832379098113Z" fill-rule="evenodd" style="fill: #D7A449; stroke: #fff; opacity: 1;" id="p-type-tokenTransfers"></path><path d="M162.1794985124592,111.83385114645407A197,197,0,0,1,160.78544414667024,113.82899872421784L139.2442791897804,98.57880458251911A170.6070045455344,170.6070045455344,0,0,0,140.45156568481022,96.85095609587668Z" fill-rule="evenodd" style="fill: #D7A449; stroke: #fff; opacity: 1;" id="p-type-tokenTransfers"></path><path d="M160.78544414667024,113.82899872421784A197,197,0,0,1,159.36684668001956,115.80677086969978L138.01573774591665,100.29160550340372A170.6070045455344,170.6070045455344,0,0,0,139.2442791897804,98.57880458251911Z" fill-rule="evenodd" style="fill: #D7A449; stroke: #fff; opacity: 1;" id="p-type-tokenTransfers"></path><path d="M159.36684668001956,115.80677086969978A197,197,0,0,1,157.9239226543769,117.76686568578779L136.7661288839792,101.98909740796212A170.6070045455344,170.6070045455344,0,0,0,138.01573774591665,100.29160550340372Z" fill-rule="evenodd" style="fill: #D7A449; stroke: #fff; opacity: 1;" id="p-type-tokenTransfers"></path><path d="M157.9239226543769,117.76686568578779A197,197,0,0,1,156.45689232494067,119.70898397372653L135.4956433505652,103.67102118247142A170.6070045455344,170.6070045455344,0,0,0,136.7661288839792,101.98909740796212Z" fill-rule="evenodd" style="fill: #D7A449; stroke: #fff; opacity: 1;" id="p-type-tokenTransfers"></path><path d="M156.45689232494067,119.70898397372653A197,197,0,0,1,154.965979626617,121.63282927878856L134.2044750789921,105.33712008960656A170.6070045455344,170.6070045455344,0,0,0,135.4956433505652,103.67102118247142Z" fill-rule="evenodd" style="fill: #D7A449; stroke: #fff; opacity: 1;" id="p-type-tokenTransfers"></path><path d="M154.965979626617,121.63282927878856A197,197,0,0,1,153.45141213983723,123.53810793552658L132.89282115969485,106.98713980762997A170.6070045455344,170.6070045455344,0,0,0,134.2044750789921,105.33712008960656Z" fill-rule="evenodd" style="fill: #D7A449; stroke: #fff; opacity: 1;" id="p-type-tokenTransfers"></path><path d="M153.45141213983723,123.53810793552658A197,197,0,0,1,151.91342105581882,125.42452911260021L131.56088181014093,108.62082846921268A170.6070045455344,170.6070045455344,0,0,0,132.89282115969485,106.98713980762997Z" fill-rule="evenodd" style="fill: #D7A449; stroke: #fff; opacity: 1;" id="p-type-tokenTransfers"></path><path d="M151.91342105581882,125.42452911260021A197,197,0,0,1,150.35224114127533,127.29180485716978L130.20886034426826,110.23793669988042A170.6070045455344,170.6070045455344,0,0,0,131.56088181014093,108.62082846921268Z" fill-rule="evenodd" style="fill: #D7A449; stroke: #fff; opacity: 1;" id="p-type-tokenTransfers"></path><path d="M150.35224114127533,127.29180485716978A197,197,0,0,1,148.76811070258023,129.139650138851L128.8369631414501,111.83821765607956A170.6070045455344,170.6070045455344,0,0,0,130.20886034426826,110.23793669988042Z" fill-rule="evenodd" style="fill: #D7A449; stroke: #fff; opacity: 1;" id="p-type-tokenTransfers"></path><path d="M148.76811070258023,129.139650138851A197,197,0,0,1,147.1612715493907,130.9677828932234L127.4453996149925,113.42142706285647A170.6070045455344,170.6070045455344,0,0,0,128.8369631414501,111.83821765607956Z" fill-rule="evenodd" style="fill: #D7A449; stroke: #fff; opacity: 1;" id="p-type-tokenTransfers"></path><path d="M147.1612715493907,130.9677828932234A197,197,0,0,1,145.53196895773667,132.77592406488597L126.0343821801683,114.98732325114484A170.6070045455344,170.6070045455344,0,0,0,127.4453996149925,113.42142706285647Z" fill-rule="evenodd" style="fill: #D7A449; stroke: #fff; opacity: 1;" id="p-type-tokenTransfers"></path><path d="M145.53196895773667,132.77592406488597A197,197,0,0,1,143.88045163258056,134.56379765005386L124.60412622179297,116.53566719465539A170.6070045455344,170.6070045455344,0,0,0,126.0343821801683,114.98732325114484Z" fill-rule="evenodd" style="fill: #D7A449; stroke: #fff; opacity: 1;" id="p-type-tokenTransfers"></path><path d="M41.15970415541553,192.65222229146144A197,197,0,0,1,18.432572610309744,196.1357699833604L15.96307613762948,169.85855939641147A170.6070045455344,170.6070045455344,0,0,0,35.645349410841774,166.8417185999323Z" fill-rule="evenodd" style="fill: #414552; stroke: #fff; opacity: 1;" id="p-type-ether"></path><path d="M18.432572610309744,196.1357699833604A197,197,0,0,1,10.913629813142833,196.69746486495873L9.45148066568091,170.34500143305132A170.6070045455344,170.6070045455344,0,0,0,15.96307613762948,169.85855939641147Z" fill-rule="evenodd" style="fill: #414552; stroke: #fff; opacity: 1;" id="p-type-ether"></path><path d="M10.913629813142833,196.69746486495873A197,197,0,0,1,5.531155702583495,196.92233574837005L4.790121350724473,170.53974533065696A170.6070045455344,170.6070045455344,0,0,0,9.45148066568091,170.34500143305132Z" fill-rule="evenodd" style="fill: #414552; stroke: #fff; opacity: 1;" id="p-type-ether"></path><path d="M5.531155702583495,196.92233574837005A197,197,0,0,1,0.7756168713087379,196.99847313740514L0.6717039141571728,170.60568224373918A170.6070045455344,170.6070045455344,0,0,0,4.790121350724473,170.53974533065696Z" fill-rule="evenodd" style="fill: #414552; stroke: #fff; opacity: 1;" id="p-type-ether"></path><path d="M0.7756168713087379,196.99847313740514A197,197,0,0,1,-3.7628711604939062,196.96405966731476L-3.2587420161555545,170.57587930440852A170.6070045455344,170.6070045455344,0,0,0,0.6717039141571728,170.60568224373918Z" fill-rule="evenodd" style="fill: #414552; stroke: #fff; opacity: 1;" id="p-type-ether"></path><path d="M-3.7628711604939062,196.96405966731476A197,197,0,0,1,-8.140974746048215,196.83171627099176L-7.050290941645323,170.4612665611697A170.6070045455344,170.6070045455344,0,0,0,-3.2587420161555545,170.57587930440852Z" fill-rule="evenodd" style="fill: #414552; stroke: #fff; opacity: 1;" id="p-type-ether"></path><path d="M-8.140974746048215,196.83171627099176A197,197,0,0,1,-12.355631834226648,196.61215212182853L-10.700291048247996,170.27111843023403A170.6070045455344,170.6070045455344,0,0,0,-7.050290941645323,170.4612665611697Z" fill-rule="evenodd" style="fill: #414552; stroke: #fff; opacity: 1;" id="p-type-ether"></path></g></svg>