<svg xmlns="http://www.w3.org/2000/svg" width="400" height="400" id="block-7907880"><g id="burst-container" transform="translate(200,200)"><circle r="197" style="fill: #f9f9f9; stroke: #f9f9f9; stroke-width: 3; opacity: 1;" id="circle-base"></circle><path display="none" d="M6.031385485800715e-15,-98.5A98.5,98.5,0,1,1,-6.031385485800715e-15,98.5A98.5,98.5,0,1,1,6.031385485800715e-15,-98.5Z" fill-rule="evenodd" id="p-type-root" style="stroke: #fff; opacity: 1;"></path><path d="M8.529667153919608e-15,-139.30003589374985A139.30003589374985,139.30003589374985,0,1,1,-123.54733519959538,-64.34715195778922L-87.36115851716134,-45.500307499394A98.5,98.5,0,1,0,6.031385485800715e-15,-98.5Z" fill-rule="evenodd" style="fill: #0B1F65; stroke: #fff; opacity: 1;" id="p-type-data"></path><path d="M-123.54733519959538,-64.34715195778922A139.30003589374985,139.30003589374985,0,0,1,-25.18145481681274,-137.00508871318908L-17.80597746111094,-96.87722728616055A98.5,98.5,0,0,0,-87.36115851716134,-45.500307499394Z" fill-rule="evenodd" style="fill: #D7A449; stroke: #fff; opacity: 1;" id="p-type-value"></path><path d="M1.0446666101440332e-14,-170.6070045455344A170.6070045455344,170.6070045455344,0,0,1,168.5104395533717,26.664241251711225L137.58819774595622,21.771261815054242A139.30003589374985,139.30003589374985,0,0,0,8.529667153919608e-15,-139.30003589374985Z" fill-rule="evenodd" style="fill: #DB3F29; stroke: #fff; opacity: 1;" id="p-type-functions"></path><path d="M168.5104395533717,26.664241251711225A170.6070045455344,170.6070045455344,0,0,1,24.05499187675701,168.9026564794324L19.640818621616322,137.9084415250668A139.30003589374985,139.30003589374985,0,0,0,137.58819774595622,21.771261815054242Z" fill-rule="evenodd" style="fill: #1DC690; stroke: #fff; opacity: 1;" id="p-type-logs"></path><path d="M24.05499187675701,168.9026564794324A170.6070045455344,170.6070045455344,0,0,1,-129.2018846200778,111.41643958868949L-105.49289704171208,90.9711419833055A139.30003589374985,139.30003589374985,0,0,0,19.640818621616322,137.9084415250668Z" fill-rule="evenodd" style="fill: #D7A449; stroke: #fff; opacity: 1;" id="p-type-tokenTransfers"></path><path d="M-129.2018846200778,111.41643958868949A170.6070045455344,170.6070045455344,0,0,1,-148.0927849646421,84.70700703847511L-120.91725258369523,69.16298162753576A139.30003589374985,139.30003589374985,0,0,0,-105.49289704171208,90.9711419833055Z" fill-rule="evenodd" style="fill: #414552; stroke: #fff; opacity: 1;" id="p-type-ether"></path><path d="M-151.313965159802,-78.8088443489576A170.6070045455344,170.6070045455344,0,0,1,-88.49126830916435,-145.86310511241518L-72.25281801639073,-119.09672660778851A139.30003589374985,139.30003589374985,0,0,0,-123.54733519959538,-64.34715195778922Z" fill-rule="evenodd" style="fill: #D7A449; stroke: #fff; opacity: 1;" id="p-type-tokenTransfers"></path><path d="M-88.49126830916435,-145.86310511241518A170.6070045455344,170.6070045455344,0,0,1,-60.6655182821137,-159.4567179254688L-49.533188257554286,-130.19586499210212A139.30003589374985,139.30003589374985,0,0,0,-72.25281801639073,-119.09672660778851Z" fill-rule="evenodd" style="fill: #414552; stroke: #fff; opacity: 1;" id="p-type-ether"></path><path d="M1.206277097160143e-14,-197A197,197,0,0,1,17.87977138070774,-196.18693579179433L15.48433622955087,-169.9028702863204A170.6070045455344,170.6070045455344,0,0,0,1.0446666101440332e-14,-170.6070045455344Z" fill-rule="evenodd" style="fill: #DB3F29; stroke: #fff; opacity: 1;" id="p-type-functions"></path><path d="M17.87977138070774,-196.18693579179433A197,197,0,0,1,35.61195492222199,-193.75445457232107L30.840857641070524,-167.796279756028A170.6070045455344,170.6070045455344,0,0,0,15.48433622955087,-169.9028702863204Z" fill-rule="evenodd" style="fill: #DB3F29; stroke: #fff; opacity: 1;" id="p-type-functions"></path><path d="M35.61195492222199,-193.75445457232107A197,197,0,0,1,53.050181043111934,-189.72263515799332L45.94280445869858,-164.30462171974892A170.6070045455344,170.6070045455344,0,0,0,30.840857641070524,-167.796279756028Z" fill-rule="evenodd" style="fill: #DB3F29; stroke: #fff; opacity: 1;" id="p-type-functions"></path><path d="M53.050181043111934,-189.72263515799332A197,197,0,0,1,70.05050662141323,-184.1247580367272L60.66551828211389,-159.45671792546872A170.6070045455344,170.6070045455344,0,0,0,45.94280445869858,-164.30462171974892Z" fill-rule="evenodd" style="fill: #DB3F29; stroke: #fff; opacity: 1;" id="p-type-functions"></path><path d="M70.05050662141323,-184.1247580367272A197,197,0,0,1,86.47260316722169,-177.00703065552003L74.88747107418469,-153.29258519613123A170.6070045455344,170.6070045455344,0,0,0,60.66551828211389,-159.45671792546872Z" fill-rule="evenodd" style="fill: #DB3F29; stroke: #fff; opacity: 1;" id="p-type-functions"></path><path d="M86.47260316722169,-177.00703065552003A197,197,0,0,1,102.18091515845506,-168.4282060029751L88.49126830916451,-145.8631051124151A170.6070045455344,170.6070045455344,0,0,0,74.88747107418469,-153.29258519613123Z" fill-rule="evenodd" style="fill: #DB3F29; stroke: #fff; opacity: 1;" id="p-type-functions"></path><path d="M102.18091515845506,-168.4282060029751A197,197,0,0,1,117.04577897834791,-158.45909763516806L101.3646180009879,-137.2296040128142A170.6070045455344,170.6070045455344,0,0,0,88.49126830916451,-145.8631051124151Z" fill-rule="evenodd" style="fill: #DB3F29; stroke: #fff; opacity: 1;" id="p-type-functions"></path><path d="M117.04577897834791,-158.45909763516806A197,197,0,0,1,130.94449321845553,-147.18199514805423L113.40125761286164,-127.46334677789295A170.6070045455344,170.6070045455344,0,0,0,101.3646180009879,-137.2296040128142Z" fill-rule="evenodd" style="fill: #DB3F29; stroke: #fff; opacity: 1;" id="p-type-functions"></path><path d="M130.94449321845553,-147.18199514805423A197,197,0,0,1,143.76233151239504,-134.68998492137501L124.50183119701423,-116.64494857725374A170.6070045455344,170.6070045455344,0,0,0,113.40125761286164,-127.46334677789295Z" fill-rule="evenodd" style="fill: #DB3F29; stroke: #fff; opacity: 1;" id="p-type-functions"></path><path d="M194.57909527480263,30.7892137288252A197,197,0,0,1,190.98158562761418,48.32218901459528L165.39490480854693,41.84824325311285A170.6070045455344,170.6070045455344,0,0,0,168.5104395533717,26.664241251711225Z" fill-rule="evenodd" style="fill: #1DC690; stroke: #fff; opacity: 1;" id="p-type-logs"></path><path d="M190.98158562761418,48.32218901459528A197,197,0,0,1,185.80762631849495,65.45629077397028L160.91412460870268,56.68681064775923A170.6070045455344,170.6070045455344,0,0,0,165.39490480854693,41.84824325311285Z" fill-rule="evenodd" style="fill: #1DC690; stroke: #fff; opacity: 1;" id="p-type-logs"></path><path d="M185.80762631849495,65.45629077397028A197,197,0,0,1,179.09992558225665,82.05008626704867L155.10508537013672,71.05745908996884A170.6070045455344,170.6070045455344,0,0,0,160.91412460870268,56.68681064775923Z" fill-rule="evenodd" style="fill: #1DC690; stroke: #fff; opacity: 1;" id="p-type-logs"></path><path d="M179.09992558225665,82.05008626704867A197,197,0,0,1,170.91385185938654,97.9666026898334L148.01573756887896,84.84156665185263A170.6070045455344,170.6070045455344,0,0,0,155.10508537013672,71.05745908996884Z" fill-rule="evenodd" style="fill: #1DC690; stroke: #fff; opacity: 1;" id="p-type-logs"></path><path d="M170.91385185938654,97.9666026898334A197,197,0,0,1,161.31697675952722,113.07445781062206L139.70459993545447,97.92535298315045A170.6070045455344,170.6070045455344,0,0,0,148.01573756887896,84.84156665185263Z" fill-rule="evenodd" style="fill: #1DC690; stroke: #fff; opacity: 1;" id="p-type-logs"></path><path d="M161.31697675952722,113.07445781062206A197,197,0,0,1,150.38851729439767,127.2489444592475L130.2402764144238,110.20081850646342A170.6070045455344,170.6070045455344,0,0,0,139.70459993545447,97.92535298315045Z" fill-rule="evenodd" style="fill: #1DC690; stroke: #fff; opacity: 1;" id="p-type-logs"></path><path d="M150.38851729439767,127.2489444592475A197,197,0,0,1,138.2186819842204,140.3730599172966L119.7008898759374,121.56663589533397A170.6070045455344,170.6070045455344,0,0,0,130.2402764144238,110.20081850646342Z" fill-rule="evenodd" style="fill: #1DC690; stroke: #fff; opacity: 1;" id="p-type-logs"></path><path d="M27.776312070799847,195.03198837048637A197,197,0,0,1,9.960518724759925,196.74803192594763L8.626062250512675,170.38879379246242A170.6070045455344,170.6070045455344,0,0,0,24.05499187675701,168.9026564794324Z" fill-rule="evenodd" style="fill: #D7A449; stroke: #fff; opacity: 1;" id="p-type-tokenTransfers"></path><path d="M9.960518724759925,196.74803192594763A197,197,0,0,1,-7.93749331437913,196.84002692512564L-6.874070852621467,170.4684637987717A170.6070045455344,170.6070045455344,0,0,0,8.626062250512675,170.38879379246242Z" fill-rule="evenodd" style="fill: #D7A449; stroke: #fff; opacity: 1;" id="p-type-tokenTransfers"></path><path d="M-7.93749331437913,196.84002692512564A197,197,0,0,1,-25.769985640657335,195.30721399907458L-22.317462219969453,169.14100886556233A170.6070045455344,170.6070045455344,0,0,0,-6.874070852621467,170.4684637987717Z" fill-rule="evenodd" style="fill: #D7A449; stroke: #fff; opacity: 1;" id="p-type-tokenTransfers"></path><path d="M-25.769985640657335,195.30721399907458A197,197,0,0,1,-43.38976067789602,192.16224568919594L-37.576635011185054,166.41738641511043A170.6070045455344,170.6070045455344,0,0,0,-22.317462219969453,169.14100886556233Z" fill-rule="evenodd" style="fill: #D7A449; stroke: #fff; opacity: 1;" id="p-type-tokenTransfers"></path><path d="M-43.38976067789602,192.16224568919594A197,197,0,0,1,-60.651376716050365,187.43108200735475L-52.52563301059961,162.3200784771736A170.6070045455344,170.6070045455344,0,0,0,-37.576635011185054,166.41738641511043Z" fill-rule="evenodd" style="fill: #D7A449; stroke: #fff; opacity: 1;" id="p-type-tokenTransfers"></path><path d="M-149.1894857304178,128.6526227773591A197,197,0,0,1,-150.38851729439773,127.24894445924743L-130.24027641442382,110.20081850646336A170.6070045455344,170.6070045455344,0,0,0,-129.2018846200778,111.41643958868949Z" fill-rule="evenodd" style="fill: #414552; stroke: #fff; opacity: 1;" id="p-type-ether"></path></g></svg>