<svg xmlns="http://www.w3.org/2000/svg" width="400" height="400" id="block-7907824"><g id="burst-container" transform="translate(200,200)"><circle r="197" style="fill: #f9f9f9; stroke: #f9f9f9; stroke-width: 3; opacity: 1;" id="circle-base"></circle><path display="none" d="M6.031385485800715e-15,-98.5A98.5,98.5,0,1,1,-6.031385485800715e-15,98.5A98.5,98.5,0,1,1,6.031385485800715e-15,-98.5Z" fill-rule="evenodd" id="p-type-root" style="stroke: #fff; opacity: 1;"></path><path d="M8.529667153919608e-15,-139.30003589374985A139.30003589374985,139.30003589374985,0,1,1,-133.79355089828223,-38.77867633157116L-94.60632711920287,-27.420664999492242A98.5,98.5,0,1,0,6.031385485800715e-15,-98.5Z" fill-rule="evenodd" style="fill: #0B1F65; stroke: #fff; opacity: 1;" id="p-type-data"></path><path d="M-133.79355089828223,-38.77867633157116A139.30003589374985,139.30003589374985,0,0,1,-23.817613343882773,-137.24875698745433L-16.84159590713871,-97.04952677525351A98.5,98.5,0,0,0,-94.60632711920287,-27.420664999492242Z" fill-rule="evenodd" style="fill: #D7A449; stroke: #fff; opacity: 1;" id="p-type-value"></path><path d="M1.0446666101440332e-14,-170.6070045455344A170.6070045455344,170.6070045455344,0,0,1,150.4435457706,80.45799858292142L122.83664074433874,65.69368075124316A139.30003589374985,139.30003589374985,0,0,0,8.529667153919608e-15,-139.30003589374985Z" fill-rule="evenodd" style="fill: #1DC690; stroke: #fff; opacity: 1;" id="p-type-logs"></path><path d="M150.4435457706,80.45799858292142A170.6070045455344,170.6070045455344,0,0,1,-76.76783497122126,152.35960591256244L-62.680674779226074,124.40109729910299A139.30003589374985,139.30003589374985,0,0,0,122.83664074433874,65.69368075124316Z" fill-rule="evenodd" style="fill: #D7A449; stroke: #fff; opacity: 1;" id="p-type-tokenTransfers"></path><path d="M-76.76783497122126,152.35960591256244A170.6070045455344,170.6070045455344,0,0,1,-103.26689484251148,135.80389696023335L-84.31706656193364,110.88341754469172A139.30003589374985,139.30003589374985,0,0,0,-62.680674779226074,124.40109729910299Z" fill-rule="evenodd" style="fill: #414552; stroke: #fff; opacity: 1;" id="p-type-ether"></path><path d="M-163.8629652879407,-47.49398495644619A170.6070045455344,170.6070045455344,0,0,1,-84.10037239784155,-148.43812637777523L-68.66766651758613,-121.19922266677116A139.30003589374985,139.30003589374985,0,0,0,-133.79355089828223,-38.77867633157116Z" fill-rule="evenodd" style="fill: #D7A449; stroke: #fff; opacity: 1;" id="p-type-tokenTransfers"></path><path d="M-84.10037239784155,-148.43812637777523A170.6070045455344,170.6070045455344,0,0,1,-57.481892397622744,-160.6318214003319L-46.933768607914416,-131.1553329615641A139.30003589374985,139.30003589374985,0,0,0,-68.66766651758613,-121.19922266677116Z" fill-rule="evenodd" style="fill: #414552; stroke: #fff; opacity: 1;" id="p-type-ether"></path><path d="M1.206277097160143e-14,-197A197,197,0,0,1,16.90394111664666,-196.27342350589635L14.639242431092299,-169.97777084384802A170.6070045455344,170.6070045455344,0,0,0,1.0446666101440332e-14,-170.6070045455344Z" fill-rule="evenodd" style="fill: #1DC690; stroke: #fff; opacity: 1;" id="p-type-logs"></path><path d="M16.90394111664666,-196.27342350589635A197,197,0,0,1,33.68319181427739,-194.09905355050705L29.170499791708277,-168.09471122525522A170.6070045455344,170.6070045455344,0,0,0,14.639242431092299,-169.97777084384802Z" fill-rule="evenodd" style="fill: #1DC690; stroke: #fff; opacity: 1;" id="p-type-logs"></path><path d="M33.68319181427739,-194.09905355050705A197,197,0,0,1,50.21398144166814,-190.49292918052313L43.486583553644955,-164.97171591164303A170.6070045455344,170.6070045455344,0,0,0,29.170499791708277,-168.09471122525522Z" fill-rule="evenodd" style="fill: #1DC690; stroke: #fff; opacity: 1;" id="p-type-logs"></path><path d="M50.21398144166814,-190.49292918052313A197,197,0,0,1,66.37437209859317,-185.481650651803L57.48189239762272,-160.6318214003319A170.6070045455344,170.6070045455344,0,0,0,43.486583553644955,-164.97171591164303Z" fill-rule="evenodd" style="fill: #1DC690; stroke: #fff; opacity: 1;" id="p-type-logs"></path><path d="M66.37437209859317,-185.481650651803A197,197,0,0,1,82.04515809990674,-179.1021832149494L71.05319117202984,-155.10704053740105A170.6070045455344,170.6070045455344,0,0,0,57.48189239762272,-160.6318214003319Z" fill-rule="evenodd" style="fill: #1DC690; stroke: #fff; opacity: 1;" id="p-type-logs"></path><path d="M82.04515809990674,-179.1021832149494A197,197,0,0,1,97.11074528568317,-171.40158444442443L84.10037239784154,-148.43812637777523A170.6070045455344,170.6070045455344,0,0,0,71.05319117202984,-155.10704053740105Z" fill-rule="evenodd" style="fill: #1DC690; stroke: #fff; opacity: 1;" id="p-type-logs"></path><path d="M97.11074528568317,-171.40158444442443A197,197,0,0,1,111.46000369126199,-162.43665712253457L96.52719470254019,-140.6742715739374A170.6070045455344,170.6070045455344,0,0,0,84.10037239784154,-148.43812637777523Z" fill-rule="evenodd" style="fill: #1DC690; stroke: #fff; opacity: 1;" id="p-type-logs"></path><path d="M111.46000369126199,-162.43665712253457A197,197,0,0,1,124.9870872875537,-152.2735302387563L108.24199273604458,-131.87274551070084A170.6070045455344,170.6070045455344,0,0,0,96.52719470254019,-140.6742715739374Z" fill-rule="evenodd" style="fill: #1DC690; stroke: #fff; opacity: 1;" id="p-type-logs"></path><path d="M124.9870872875537,-152.2735302387563A197,197,0,0,1,137.59221474486452,-140.98717119512358L119.15835333201649,-122.09847186268267A170.6070045455344,170.6070045455344,0,0,0,108.24199273604458,-131.87274551070084Z" fill-rule="evenodd" style="fill: #1DC690; stroke: #fff; opacity: 1;" id="p-type-logs"></path><path d="M137.59221474486452,-140.98717119512358A197,197,0,0,1,149.18240546100498,-128.66083281585082L129.19575292690067,-111.42354969058935A170.6070045455344,170.6070045455344,0,0,0,119.15835333201649,-122.09847186268267Z" fill-rule="evenodd" style="fill: #1DC690; stroke: #fff; opacity: 1;" id="p-type-logs"></path><path d="M149.18240546100498,-128.66083281585082A197,197,0,0,1,159.6721654244367,-115.38543924027553L138.2801515348335,-99.92672160890442A170.6070045455344,170.6070045455344,0,0,0,129.19575292690067,-111.42354969058935Z" fill-rule="evenodd" style="fill: #1DC690; stroke: #fff; opacity: 1;" id="p-type-logs"></path><path d="M159.6721654244367,-115.38543924027553A197,197,0,0,1,168.98411785324893,-101.25891522902702L146.34453889701706,-87.69279294799237A170.6070045455344,170.6070045455344,0,0,0,138.2801515348335,-99.92672160890442Z" fill-rule="evenodd" style="fill: #1DC690; stroke: #fff; opacity: 1;" id="p-type-logs"></path><path d="M173.71724329699538,92.90489428061643A197,197,0,0,1,165.1046659976659,107.46836402308905L142.9848350373235,93.07033334714873A170.6070045455344,170.6070045455344,0,0,0,150.4435457706,80.45799858292142Z" fill-rule="evenodd" style="fill: #D7A449; stroke: #fff; opacity: 1;" id="p-type-tokenTransfers"></path><path d="M165.1046659976659,107.46836402308905A197,197,0,0,1,155.2742088061462,121.23910293146066L134.471409378652,104.99614307068134A170.6070045455344,170.6070045455344,0,0,0,142.9848350373235,93.07033334714873Z" fill-rule="evenodd" style="fill: #D7A449; stroke: #fff; opacity: 1;" id="p-type-tokenTransfers"></path><path d="M155.2742088061462,121.23910293146066A197,197,0,0,1,144.29838521605706,134.11553237428694L124.96606732217828,116.1474580782068A170.6070045455344,170.6070045455344,0,0,0,134.471409378652,104.99614307068134Z" fill-rule="evenodd" style="fill: #D7A449; stroke: #fff; opacity: 1;" id="p-type-tokenTransfers"></path><path d="M144.29838521605706,134.11553237428694A197,197,0,0,1,132.258157414444,146.00267051439897L114.53892417862971,126.44202168583871A170.6070045455344,170.6070045455344,0,0,0,124.96606732217828,116.1474580782068Z" fill-rule="evenodd" style="fill: #D7A449; stroke: #fff; opacity: 1;" id="p-type-tokenTransfers"></path><path d="M132.258157414444,146.00267051439897A197,197,0,0,1,119.24233907140159,156.8128329339818L103.2668948425115,135.80389696023332A170.6070045455344,170.6070045455344,0,0,0,114.53892417862971,126.44202168583871Z" fill-rule="evenodd" style="fill: #D7A449; stroke: #fff; opacity: 1;" id="p-type-tokenTransfers"></path><path d="M119.24233907140159,156.8128329339818A197,197,0,0,1,105.34694021393054,166.4662794308882L91.23312643622431,144.16402686062813A170.6070045455344,170.6070045455344,0,0,0,103.2668948425115,135.80389696023332Z" fill-rule="evenodd" style="fill: #D7A449; stroke: #fff; opacity: 1;" id="p-type-tokenTransfers"></path><path d="M105.34694021393054,166.4662794308882A197,197,0,0,1,90.67445901650838,174.89180221515113L78.5263849827072,151.46074363196445A170.6070045455344,170.6070045455344,0,0,0,91.23312643622431,144.16402686062813Z" fill-rule="evenodd" style="fill: #D7A449; stroke: #fff; opacity: 1;" id="p-type-tokenTransfers"></path><path d="M90.67445901650838,174.89180221515113A197,197,0,0,1,75.33312573241656,182.0272511669171L65.24040063075994,157.6402236916008A170.6070045455344,170.6070045455344,0,0,0,78.5263849827072,151.46074363196445Z" fill-rule="evenodd" style="fill: #D7A449; stroke: #fff; opacity: 1;" id="p-type-tokenTransfers"></path><path d="M75.33312573241656,182.0272511669171A197,197,0,0,1,59.436104342898055,187.81999228128015L51.47317626293231,162.6568846541858A170.6070045455344,170.6070045455344,0,0,0,65.24040063075994,157.6402236916008Z" fill-rule="evenodd" style="fill: #D7A449; stroke: #fff; opacity: 1;" id="p-type-tokenTransfers"></path><path d="M-88.64386037147872,175.92971897448646A197,197,0,0,1,-90.66995137118548,174.89413917666556L-78.5224812473463,151.4627675000036A170.6070045455344,170.6070045455344,0,0,0,-76.76783497122126,152.35960591256244Z" fill-rule="evenodd" style="fill: #414552; stroke: #fff; opacity: 1;" id="p-type-ether"></path></g></svg>