<svg xmlns="http://www.w3.org/2000/svg" width="400" height="400" id="block-7907903"><g id="burst-container" transform="translate(200,200)"><circle r="197" style="fill: #f9f9f9; stroke: #f9f9f9; stroke-width: 3; opacity: 1;" id="circle-base"></circle><path display="none" d="M6.031385485800715e-15,-98.5A98.5,98.5,0,1,1,-6.031385485800715e-15,98.5A98.5,98.5,0,1,1,6.031385485800715e-15,-98.5Z" fill-rule="evenodd" id="p-type-root" style="stroke: #fff; opacity: 1;"></path><path d="M8.529667153919608e-15,-139.30003589374985A139.30003589374985,139.30003589374985,0,1,1,-104.04881078991987,-92.61935528389004L-73.57361968394837,-65.49177419036475A98.5,98.5,0,1,0,6.031385485800715e-15,-98.5Z" fill-rule="evenodd" style="fill: #0B1F65; stroke: #fff; opacity: 1;" id="p-type-data"></path><path d="M-104.04881078991987,-92.61935528389004A139.30003589374985,139.30003589374985,0,0,1,-1.666518806769197,-139.29006682124424L-1.178406749241413,-98.49295080122914A98.5,98.5,0,0,0,-73.57361968394837,-65.49177419036475Z" fill-rule="evenodd" style="fill: #D7A449; stroke: #fff; opacity: 1;" id="p-type-value"></path><path d="M1.0446666101440332e-14,-170.6070045455344A170.6070045455344,170.6070045455344,0,0,1,159.9420151834564,59.37425181890714L130.5921085439826,48.478873605279496A139.30003589374985,139.30003589374985,0,0,0,8.529667153919608e-15,-139.30003589374985Z" fill-rule="evenodd" style="fill: #DB3F29; stroke: #fff; opacity: 1;" id="p-type-functions"></path><path d="M159.9420151834564,59.37425181890714A170.6070045455344,170.6070045455344,0,0,1,6.95536778598366,170.46516611601825L5.6790340163505055,139.18422530100577A139.30003589374985,139.30003589374985,0,0,0,130.5921085439826,48.478873605279496Z" fill-rule="evenodd" style="fill: #414552; stroke: #fff; opacity: 1;" id="p-type-ether"></path><path d="M6.95536778598366,170.46516611601825A170.6070045455344,170.6070045455344,0,0,1,-119.10303465854462,122.1524340122845L-97.24722057681812,99.73704472302997A139.30003589374985,139.30003589374985,0,0,0,5.6790340163505055,139.18422530100577Z" fill-rule="evenodd" style="fill: #1DC690; stroke: #fff; opacity: 1;" id="p-type-logs"></path><path d="M-119.10303465854462,122.1524340122845A170.6070045455344,170.6070045455344,0,0,1,-168.3190586539818,27.846804014777476L-137.43193589594952,22.736820267830282A139.30003589374985,139.30003589374985,0,0,0,-97.24722057681812,99.73704472302997Z" fill-rule="evenodd" style="fill: #D7A449; stroke: #fff; opacity: 1;" id="p-type-tokenTransfers"></path><path d="M-127.43324738934821,-113.43508037553981A170.6070045455344,170.6070045455344,0,0,1,-57.05097515627279,-160.7853731958176L-46.58192615368937,-131.28070747757351A139.30003589374985,139.30003589374985,0,0,0,-104.04881078991987,-92.61935528389004Z" fill-rule="evenodd" style="fill: #414552; stroke: #fff; opacity: 1;" id="p-type-ether"></path><path d="M-57.05097515627279,-160.7853731958176A170.6070045455344,170.6070045455344,0,0,1,-4.081828584449065,-170.5581680114065L-3.332799083135721,-139.26016103061005A139.30003589374985,139.30003589374985,0,0,0,-46.58192615368937,-131.28070747757351Z" fill-rule="evenodd" style="fill: #D7A449; stroke: #fff; opacity: 1;" id="p-type-tokenTransfers"></path><path d="M1.206277097160143e-14,-197A197,197,0,0,1,108.97951636144548,-164.11113616578686L94.37902966115365,-142.12441296349857A170.6070045455344,170.6070045455344,0,0,0,1.0446666101440332e-14,-170.6070045455344Z" fill-rule="evenodd" style="fill: #DB3F29; stroke: #fff; opacity: 1;" id="p-type-functions"></path><path d="M108.97951636144548,-164.11113616578686A197,197,0,0,1,110.99368955905105,-162.75564776089647L96.12335481790181,-140.95052557032824A170.6070045455344,170.6070045455344,0,0,0,94.37902966115365,-142.12441296349857Z" fill-rule="evenodd" style="fill: #DB3F29; stroke: #fff; opacity: 1;" id="p-type-functions"></path><path d="M110.99368955905105,-162.75564776089647A197,197,0,0,1,112.11474736493355,-161.98544201037674L97.0942193569069,-140.2835078242373A170.6070045455344,170.6070045455344,0,0,0,96.12335481790181,-140.95052557032824Z" fill-rule="evenodd" style="fill: #DB3F29; stroke: #fff; opacity: 1;" id="p-type-functions"></path><path d="M112.11474736493355,-161.98544201037674A197,197,0,0,1,113.0819735195258,-161.31170839380897L97.93186177798853,-139.70003739690605A170.6070045455344,170.6070045455344,0,0,0,97.0942193569069,-140.2835078242373Z" fill-rule="evenodd" style="fill: #DB3F29; stroke: #fff; opacity: 1;" id="p-type-functions"></path><path d="M113.0819735195258,-161.31170839380897A197,197,0,0,1,114.04491359090478,-160.63236810818378L98.76579234212473,-139.11171145174043A170.6070045455344,170.6070045455344,0,0,0,97.93186177798853,-139.70003739690605Z" fill-rule="evenodd" style="fill: #DB3F29; stroke: #fff; opacity: 1;" id="p-type-functions"></path><path d="M114.04491359090478,-160.63236810818378A197,197,0,0,1,115.00375464293352,-159.94729262487675L99.596173051373,-138.51841867968665A170.6070045455344,170.6070045455344,0,0,0,98.76579234212473,-139.11171145174043Z" fill-rule="evenodd" style="fill: #DB3F29; stroke: #fff; opacity: 1;" id="p-type-functions"></path><path d="M115.00375464293352,-159.94729262487675A197,197,0,0,1,115.95848050928645,-159.2564937388031L100.42298990528474,-137.9201692954409A170.6070045455344,170.6070045455344,0,0,0,99.596173051373,-138.51841867968665Z" fill-rule="evenodd" style="fill: #DB3F29; stroke: #fff; opacity: 1;" id="p-type-functions"></path><path d="M115.95848050928645,-159.2564937388031A197,197,0,0,1,116.90905702695544,-158.55999616885745L101.24621331782704,-137.3169847061938A170.6070045455344,170.6070045455344,0,0,0,100.42298990528474,-137.9201692954409Z" fill-rule="evenodd" style="fill: #DB3F29; stroke: #fff; opacity: 1;" id="p-type-functions"></path><path d="M116.90905702695544,-158.55999616885745A197,197,0,0,1,117.85545018140866,-157.85782483785053L102.06581383155122,-136.70888649573268A170.6070045455344,170.6070045455344,0,0,0,101.24621331782704,-137.3169847061938Z" fill-rule="evenodd" style="fill: #DB3F29; stroke: #fff; opacity: 1;" id="p-type-functions"></path><path d="M117.85545018140866,-157.85782483785053A197,197,0,0,1,118.79762610780783,-157.15000487161777L102.88176211864705,-136.09589642366927A170.6070045455344,170.6070045455344,0,0,0,102.06581383155122,-136.70888649573268Z" fill-rule="evenodd" style="fill: #DB3F29; stroke: #fff; opacity: 1;" id="p-type-functions"></path><path d="M118.79762610780783,-157.15000487161777A197,197,0,0,1,119.73555109222004,-156.43656159811994L103.69402898199213,-135.478036424661A170.6070045455344,170.6070045455344,0,0,0,102.88176211864705,-136.09589642366927Z" fill-rule="evenodd" style="fill: #DB3F29; stroke: #fff; opacity: 1;" id="p-type-functions"></path><path d="M119.73555109222004,-156.43656159811994A197,197,0,0,1,120.6691915728239,-155.71752054653686L104.5025853561966,-134.8553286076262A170.6070045455344,170.6070045455344,0,0,0,103.69402898199213,-135.478036424661Z" fill-rule="evenodd" style="fill: #DB3F29; stroke: #fff; opacity: 1;" id="p-type-functions"></path><path d="M120.6691915728239,-155.71752054653686A197,197,0,0,1,121.59851414111081,-154.99290744635405L105.30740230864326,-134.2277952549529A170.6070045455344,170.6070045455344,0,0,0,104.5025853561966,-134.8553286076262Z" fill-rule="evenodd" style="fill: #DB3F29; stroke: #fff; opacity: 1;" id="p-type-functions"></path><path d="M121.59851414111081,-154.99290744635405A197,197,0,0,1,122.52348554308021,-154.26274822644194L106.10845104052287,-133.59545882170156A170.6070045455344,170.6070045455344,0,0,0,105.30740230864326,-134.2277952549529Z" fill-rule="evenodd" style="fill: #DB3F29; stroke: #fff; opacity: 1;" id="p-type-functions"></path><path d="M122.52348554308021,-154.26274822644194A197,197,0,0,1,123.44407268042958,-153.527069014128L106.90570288786462,-132.95834193480158A170.6070045455344,170.6070045455344,0,0,0,106.10845104052287,-133.59545882170156Z" fill-rule="evenodd" style="fill: #DB3F29; stroke: #fff; opacity: 1;" id="p-type-functions"></path><path d="M123.44407268042958,-153.527069014128A197,197,0,0,1,124.36024261173873,-152.78589613426195L107.69912932256179,-132.31646739224152A170.6070045455344,170.6070045455344,0,0,0,106.90570288786462,-132.95834193480158Z" fill-rule="evenodd" style="fill: #DB3F29; stroke: #fff; opacity: 1;" id="p-type-functions"></path><path d="M124.36024261173873,-152.78589613426195A197,197,0,0,1,125.27196255364863,-152.03925610827375L108.48870195339263,-131.66985816225343A170.6070045455344,170.6070045455344,0,0,0,107.69912932256179,-132.31646739224152Z" fill-rule="evenodd" style="fill: #DB3F29; stroke: #fff; opacity: 1;" id="p-type-functions"></path><path d="M125.27196255364863,-152.03925610827375A197,197,0,0,1,126.17919988203451,-151.28717565322444L109.27439252703633,-131.018537382491A170.6070045455344,170.6070045455344,0,0,0,108.48870195339263,-131.66985816225343Z" fill-rule="evenodd" style="fill: #DB3F29; stroke: #fff; opacity: 1;" id="p-type-functions"></path><path d="M126.17919988203451,-151.28717565322444A197,197,0,0,1,127.08192213317314,-150.5296816808503L110.05617292908386,-130.3625283592014A170.6070045455344,170.6070045455344,0,0,0,109.27439252703633,-131.018537382491Z" fill-rule="evenodd" style="fill: #DB3F29; stroke: #fff; opacity: 1;" id="p-type-functions"></path><path d="M127.08192213317314,-150.5296816808503A197,197,0,0,1,127.98009700490458,-149.76680129659982L110.83401518504411,-129.70185456639166A170.6070045455344,170.6070045455344,0,0,0,110.05617292908386,-130.3625283592014Z" fill-rule="evenodd" style="fill: #DB3F29; stroke: #fff; opacity: 1;" id="p-type-functions"></path><path d="M127.98009700490458,-149.76680129659982A197,197,0,0,1,128.87369235778797,-148.99856179866373L111.60789146134486,-129.03653964498838A170.6070045455344,170.6070045455344,0,0,0,110.83401518504411,-129.70185456639166Z" fill-rule="evenodd" style="fill: #DB3F29; stroke: #fff; opacity: 1;" id="p-type-functions"></path><path d="M128.87369235778797,-148.99856179866373A197,197,0,0,1,129.76267621625172,-148.22499067699823L112.37777406632877,-128.36660740199204A170.6070045455344,170.6070045455344,0,0,0,111.60789146134486,-129.03653964498838Z" fill-rule="evenodd" style="fill: #DB3F29; stroke: #fff; opacity: 1;" id="p-type-functions"></path><path d="M129.76267621625172,-148.22499067699823A197,197,0,0,1,130.64701676973752,-147.44611561234132L113.14363545124426,-127.6920818096249A170.6070045455344,170.6070045455344,0,0,0,112.37777406632877,-128.36660740199204Z" fill-rule="evenodd" style="fill: #DB3F29; stroke: #fff; opacity: 1;" id="p-type-functions"></path><path d="M130.64701676973752,-147.44611561234132A197,197,0,0,1,131.52668237383872,-146.6619644752222L113.9054482112313,-127.0129870044733A170.6070045455344,170.6070045455344,0,0,0,113.14363545124426,-127.6920818096249Z" fill-rule="evenodd" style="fill: #DB3F29; stroke: #fff; opacity: 1;" id="p-type-functions"></path><path d="M131.52668237383872,-146.6619644752222A197,197,0,0,1,132.40164155143268,-145.87256532496417L114.663185086302,-126.329347286624A170.6070045455344,170.6070045455344,0,0,0,113.9054482112313,-127.0129870044733Z" fill-rule="evenodd" style="fill: #DB3F29; stroke: #fff; opacity: 1;" id="p-type-functions"></path><path d="M132.40164155143268,-145.87256532496417A197,197,0,0,1,133.27186299380693,-145.07794640868045L115.41681896231603,-125.64118711879462A170.6070045455344,170.6070045455344,0,0,0,114.663185086302,-126.329347286624Z" fill-rule="evenodd" style="fill: #DB3F29; stroke: #fff; opacity: 1;" id="p-type-functions"></path><path d="M133.27186299380693,-145.07794640868045A197,197,0,0,1,134.13731556177987,-144.27813616026333L116.16632287195108,-124.94853112545827A170.6070045455344,170.6070045455344,0,0,0,115.41681896231603,-125.64118711879462Z" fill-rule="evenodd" style="fill: #DB3F29; stroke: #fff; opacity: 1;" id="p-type-functions"></path><path d="M134.13731556177987,-144.27813616026333A197,197,0,0,1,134.9979682868146,-143.473163199367L116.91166999566747,-124.25140409196247A170.6070045455344,170.6070045455344,0,0,0,116.16632287195108,-124.94853112545827Z" fill-rule="evenodd" style="fill: #DB3F29; stroke: #fff; opacity: 1;" id="p-type-functions"></path><path d="M134.9979682868146,-143.473163199367A197,197,0,0,1,135.85379037212735,-142.66305633038314L117.65283366266807,-123.54983096364218A170.6070045455344,170.6070045455344,0,0,0,116.91166999566747,-124.25140409196247Z" fill-rule="evenodd" style="fill: #DB3F29; stroke: #fff; opacity: 1;" id="p-type-functions"></path><path d="M135.85379037212735,-142.66305633038314A197,197,0,0,1,136.7047511937894,-141.8478445414104L118.3897873518527,-122.84383684492722A170.6070045455344,170.6070045455344,0,0,0,117.65283366266807,-123.54983096364218Z" fill-rule="evenodd" style="fill: #DB3F29; stroke: #fff; opacity: 1;" id="p-type-functions"></path><path d="M136.7047511937894,-141.8478445414104A197,197,0,0,1,137.55082030182288,-141.02755700321703L119.12250469276692,-122.13344699844396A170.6070045455344,170.6070045455344,0,0,0,118.3897873518527,-122.84383684492722Z" fill-rule="evenodd" style="fill: #DB3F29; stroke: #fff; opacity: 1;" id="p-type-functions"></path><path d="M137.55082030182288,-141.02755700321703A197,197,0,0,1,138.3919674212904,-140.20222306819713L119.85095946654589,-121.41868684411135A170.6070045455344,170.6070045455344,0,0,0,119.12250469276692,-122.13344699844396Z" fill-rule="evenodd" style="fill: #DB3F29; stroke: #fff; opacity: 1;" id="p-type-functions"></path><path d="M138.3919674212904,-140.20222306819713A197,197,0,0,1,139.22816245337827,-139.37187226932022L120.57512560685234,-120.69958195823124A170.6070045455344,170.6070045455344,0,0,0,119.85095946654589,-121.41868684411135Z" fill-rule="evenodd" style="fill: #DB3F29; stroke: #fff; opacity: 1;" id="p-type-functions"></path><path d="M139.22816245337827,-139.37187226932022A197,197,0,0,1,140.05937547647372,-138.53653431907466L121.29497720080946,-119.97615807257337A170.6070045455344,170.6070045455344,0,0,0,120.57512560685234,-120.69958195823124Z" fill-rule="evenodd" style="fill: #DB3F29; stroke: #fff; opacity: 1;" id="p-type-functions"></path><path d="M140.05937547647372,-138.53653431907466A197,197,0,0,1,140.88557674723543,-137.69623910840423L122.0104884899281,-119.24844107345439A170.6070045455344,170.6070045455344,0,0,0,121.29497720080946,-119.97615807257337Z" fill-rule="evenodd" style="fill: #DB3F29; stroke: #fff; opacity: 1;" id="p-type-functions"></path><path d="M140.88557674723543,-137.69623910840423A197,197,0,0,1,141.70673670165792,-136.8510167056387L122.72163387102843,-118.5164570008117A170.6070045455344,170.6070045455344,0,0,0,122.0104884899281,-119.24844107345439Z" fill-rule="evenodd" style="fill: #DB3F29; stroke: #fff; opacity: 1;" id="p-type-functions"></path><path d="M141.70673670165792,-136.8510167056387A197,197,0,0,1,142.52282595612937,-136.0008973554177L123.4283878971562,-117.7802320472716A170.6070045455344,170.6070045455344,0,0,0,122.72163387102843,-118.5164570008117Z" fill-rule="evenodd" style="fill: #DB3F29; stroke: #fff; opacity: 1;" id="p-type-functions"></path><path d="M142.52282595612937,-136.0008973554177A197,197,0,0,1,143.3338153084831,-135.14591147760873L124.13072527849323,-117.0397925572121A170.6070045455344,170.6070045455344,0,0,0,123.4283878971562,-117.7802320472716Z" fill-rule="evenodd" style="fill: #DB3F29; stroke: #fff; opacity: 1;" id="p-type-functions"></path><path d="M143.3338153084831,-135.14591147760873A197,197,0,0,1,144.13967573904256,-134.28608966621843L124.82862088326239,-116.29516502582015A170.6070045455344,170.6070045455344,0,0,0,124.13072527849323,-117.0397925572121Z" fill-rule="evenodd" style="fill: #DB3F29; stroke: #fff; opacity: 1;" id="p-type-functions"></path><path d="M144.13967573904256,-134.28608966621843A197,197,0,0,1,144.94037841165965,-133.42146268829805L125.52204973862688,-115.54637609814372A170.6070045455344,170.6070045455344,0,0,0,124.82862088326239,-116.29516502582015Z" fill-rule="evenodd" style="fill: #DB3F29; stroke: #fff; opacity: 1;" id="p-type-functions"></path><path d="M144.94037841165965,-133.42146268829805A197,197,0,0,1,145.7358946747466,-132.55206148284216L126.21098703158383,-114.79345256813812A170.6070045455344,170.6070045455344,0,0,0,125.52204973862688,-115.54637609814372Z" fill-rule="evenodd" style="fill: #DB3F29; stroke: #fff; opacity: 1;" id="p-type-functions"></path><path d="M145.7358946747466,-132.55206148284216A197,197,0,0,1,146.52619606230118,-131.67791715968198L126.89540810985221,-114.03642137770744A170.6070045455344,170.6070045455344,0,0,0,126.21098703158383,-114.79345256813812Z" fill-rule="evenodd" style="fill: #DB3F29; stroke: #fff; opacity: 1;" id="p-type-functions"></path><path d="M146.52619606230118,-131.67791715968198A197,197,0,0,1,147.31125429492548,-130.79906099837186L127.57528848275494,-113.2753096157404A170.6070045455344,170.6070045455344,0,0,0,126.89540810985221,-114.03642137770744Z" fill-rule="evenodd" style="fill: #DB3F29; stroke: #fff; opacity: 1;" id="p-type-functions"></path><path d="M147.31125429492548,-130.79906099837186A197,197,0,0,1,148.09104128083752,-129.91552444707014L128.2506038220953,-112.51014451714101A170.6070045455344,170.6070045455344,0,0,0,127.57528848275494,-113.2753096157404Z" fill-rule="evenodd" style="fill: #DB3F29; stroke: #fff; opacity: 1;" id="p-type-functions"></path><path d="M148.09104128083752,-129.91552444707014A197,197,0,0,1,148.86552911687673,-129.02733912141383L128.92132996302726,-111.7409534618541A170.6070045455344,170.6070045455344,0,0,0,128.2506038220953,-112.51014451714101Z" fill-rule="evenodd" style="fill: #DB3F29; stroke: #fff; opacity: 1;" id="p-type-functions"></path><path d="M148.86552911687673,-129.02733912141383A197,197,0,0,1,149.6346900895023,-128.13453680338725L129.58744290492058,-110.96776397388545A170.6070045455344,170.6070045455344,0,0,0,128.92132996302726,-111.7409534618541Z" fill-rule="evenodd" style="fill: #DB3F29; stroke: #fff; opacity: 1;" id="p-type-functions"></path><path d="M149.6346900895023,-128.13453680338725A197,197,0,0,1,150.39849667578486,-127.23714944018487L130.24891881221913,-110.19060372031706A170.6070045455344,170.6070045455344,0,0,0,129.58744290492058,-110.96776397388545Z" fill-rule="evenodd" style="fill: #DB3F29; stroke: #fff; opacity: 1;" id="p-type-functions"></path><path d="M150.39849667578486,-127.23714944018487A197,197,0,0,1,151.15692154439128,-126.33520914306801L130.90573401529417,-109.40950051031697A170.6070045455344,170.6070045455344,0,0,0,130.24891881221913,-110.19060372031706Z" fill-rule="evenodd" style="fill: #DB3F29; stroke: #fff; opacity: 1;" id="p-type-functions"></path><path d="M151.15692154439128,-126.33520914306801A197,197,0,0,1,151.90993755656285,-125.42874818621597L131.5578650112912,-108.62448229414436A170.6070045455344,170.6070045455344,0,0,0,130.90573401529417,-109.40950051031697Z" fill-rule="evenodd" style="fill: #DB3F29; stroke: #fff; opacity: 1;" id="p-type-functions"></path><path d="M151.90993755656285,-125.42874818621597A197,197,0,0,1,152.65751776708618,-124.51779900557096L132.20528846497092,-107.83557716214916A170.6070045455344,170.6070045455344,0,0,0,131.5578650112912,-108.62448229414436Z" fill-rule="evenodd" style="fill: #DB3F29; stroke: #fff; opacity: 1;" id="p-type-functions"></path><path d="M152.65751776708618,-124.51779900557096A197,197,0,0,1,153.3996354252575,-123.60239419767761L132.8479812095443,-107.04281334376711A170.6070045455344,170.6070045455344,0,0,0,132.20528846497092,-107.83557716214916Z" fill-rule="evenodd" style="fill: #DB3F29; stroke: #fff; opacity: 1;" id="p-type-functions"></path><path d="M153.3996354252575,-123.60239419767761A197,197,0,0,1,154.1362639758398,-122.6825665185165L133.4859202475015,-106.2462192065095A170.6070045455344,170.6070045455344,0,0,0,132.8479812095443,-107.04281334376711Z" fill-rule="evenodd" style="fill: #DB3F29; stroke: #fff; opacity: 1;" id="p-type-functions"></path><path d="M154.1362639758398,-122.6825665185165A197,197,0,0,1,154.86737706001324,-121.75834888233206L134.11908275143486,-105.44582325494817A170.6070045455344,170.6070045455344,0,0,0,133.4859202475015,-106.2462192065095Z" fill-rule="evenodd" style="fill: #DB3F29; stroke: #fff; opacity: 1;" id="p-type-functions"></path><path d="M154.86737706001324,-121.75834888233206A197,197,0,0,1,155.59294851631802,-120.82977436045476L134.7474460648557,-104.64165412969544A170.6070045455344,170.6070045455344,0,0,0,134.11908275143486,-105.44582325494817Z" fill-rule="evenodd" style="fill: #DB3F29; stroke: #fff; opacity: 1;" id="p-type-functions"></path><path d="M155.59294851631802,-120.82977436045476A197,197,0,0,1,156.3129523815909,-119.89687618011779L135.370987703005,-103.83374060637934A170.6070045455344,170.6070045455344,0,0,0,134.7474460648557,-104.64165412969544Z" fill-rule="evenodd" style="fill: #DB3F29; stroke: #fff; opacity: 1;" id="p-type-functions"></path><path d="M156.3129523815909,-119.89687618011779A197,197,0,0,1,157.02736289189397,-118.95968772326802L135.98968535365805,-103.02211159461392A170.6070045455344,170.6070045455344,0,0,0,135.370987703005,-103.83374060637934Z" fill-rule="evenodd" style="fill: #DB3F29; stroke: #fff; opacity: 1;" id="p-type-functions"></path><path d="M157.02736289189397,-118.95968772326802A197,197,0,0,1,157.73615448343662,-118.01824252537153L136.6035168779228,-102.2067961369647A170.6070045455344,170.6070045455344,0,0,0,135.98968535365805,-103.02211159461392Z" fill-rule="evenodd" style="fill: #DB3F29; stroke: #fff; opacity: 1;" id="p-type-functions"></path><path d="M157.73615448343662,-118.01824252537153A197,197,0,0,1,158.4393017934904,-117.07257427421364L137.21246031103206,-101.38782340790954A170.6070045455344,170.6070045455344,0,0,0,136.6035168779228,-102.2067961369647Z" fill-rule="evenodd" style="fill: #DB3F29; stroke: #fff; opacity: 1;" id="p-type-functions"></path><path d="M158.4393017934904,-117.07257427421364A197,197,0,0,1,159.13677966129643,-116.12271680869333L137.8164938631295,-100.56522271279465A170.6070045455344,170.6070045455344,0,0,0,137.21246031103206,-101.38782340790954Z" fill-rule="evenodd" style="fill: #DB3F29; stroke: #fff; opacity: 1;" id="p-type-functions"></path><path d="M159.13677966129643,-116.12271680869333A197,197,0,0,1,159.82856312896584,-115.16870411761252L138.41559592004927,-99.73902348678592A170.6070045455344,170.6070045455344,0,0,0,137.8164938631295,-100.56522271279465Z" fill-rule="evenodd" style="fill: #DB3F29; stroke: #fff; opacity: 1;" id="p-type-functions"></path><path d="M159.82856312896584,-115.16870411761252A197,197,0,0,1,160.51462744237276,-114.21057033845982L139.00974504408958,-98.90925529381569A170.6070045455344,170.6070045455344,0,0,0,138.41559592004927,-99.73902348678592Z" fill-rule="evenodd" style="fill: #DB3F29; stroke: #fff; opacity: 1;" id="p-type-functions"></path><path d="M160.51462744237276,-114.21057033845982A197,197,0,0,1,161.1949480520401,-113.2483497561889L139.59891997477962,-98.07594782552484A170.6070045455344,170.6070045455344,0,0,0,139.00974504408958,-98.90925529381569Z" fill-rule="evenodd" style="fill: #DB3F29; stroke: #fff; opacity: 1;" id="p-type-functions"></path><path d="M161.1949480520401,-113.2483497561889A197,197,0,0,1,161.86950061401814,-112.2820768019918L140.18309962964048,-97.23913090020031A170.6070045455344,170.6070045455344,0,0,0,139.59891997477962,-98.07594782552484Z" fill-rule="evenodd" style="fill: #DB3F29; stroke: #fff; opacity: 1;" id="p-type-functions"></path><path d="M161.86950061401814,-112.2820768019918A197,197,0,0,1,162.5382609907554,-111.31178605206675L140.76226310493942,-96.39883446170816A170.6070045455344,170.6070045455344,0,0,0,140.18309962964048,-97.23913090020031Z" fill-rule="evenodd" style="fill: #DB3F29; stroke: #fff; opacity: 1;" id="p-type-functions"></path><path d="M162.5382609907554,-111.31178605206675A197,197,0,0,1,163.20120525196262,-110.337512226381L141.33638967643796,-95.55508857842203A170.6070045455344,170.6070045455344,0,0,0,140.76226310493942,-96.39883446170816Z" fill-rule="evenodd" style="fill: #DB3F29; stroke: #fff; opacity: 1;" id="p-type-functions"></path><path d="M163.20120525196262,-110.337512226381A197,197,0,0,1,163.85830967546877,-109.3592901874284L141.90545880013343,-94.70792344214728A170.6070045455344,170.6070045455344,0,0,0,141.33638967643796,-95.55508857842203Z" fill-rule="evenodd" style="fill: #DB3F29; stroke: #fff; opacity: 1;" id="p-type-functions"></path><path d="M163.85830967546877,-109.3592901874284A197,197,0,0,1,164.5095507480702,-108.37715493898202L142.4694501129941,-93.85736936704058A170.6070045455344,170.6070045455344,0,0,0,141.90545880013343,-94.70792344214728Z" fill-rule="evenodd" style="fill: #DB3F29; stroke: #fff; opacity: 1;" id="p-type-functions"></path><path d="M164.5095507480702,-108.37715493898202A197,197,0,0,1,165.15490516637178,-107.39114162484141L143.0283434336878,-93.00345678852511A170.6070045455344,170.6070045455344,0,0,0,142.4694501129941,-93.85736936704058Z" fill-rule="evenodd" style="fill: #DB3F29; stroke: #fff; opacity: 1;" id="p-type-functions"></path><path d="M165.15490516637178,-107.39114162484141A197,197,0,0,1,165.79434983762087,-106.40128552757521L143.5821187633041,-92.14621626220166A170.6070045455344,170.6070045455344,0,0,0,143.0283434336878,-93.00345678852511Z" fill-rule="evenodd" style="fill: #DB3F29; stroke: #fff; opacity: 1;" id="p-type-functions"></path><path d="M165.79434983762087,-106.40128552757521A197,197,0,0,1,166.42786188053367,-105.40762206725856L144.13075628606995,-91.2856784627551A170.6070045455344,170.6070045455344,0,0,0,143.5821187633041,-92.14621626220166Z" fill-rule="evenodd" style="fill: #DB3F29; stroke: #fff; opacity: 1;" id="p-type-functions"></path><path d="M184.68513104179954,68.55948054115733A197,197,0,0,1,115.92541957781573,159.2805609473654L100.39435829875833,137.941012109454A170.6070045455344,170.6070045455344,0,0,0,159.9420151834564,59.37425181890714Z" fill-rule="evenodd" style="fill: #414552; stroke: #fff; opacity: 1;" id="p-type-ether"></path><path d="M115.92541957781573,159.2805609473654A197,197,0,0,1,113.95369763958945,160.6970901860548L98.68679701105528,139.16776241536243A170.6070045455344,170.6070045455344,0,0,0,100.39435829875833,137.941012109454Z" fill-rule="evenodd" style="fill: #414552; stroke: #fff; opacity: 1;" id="p-type-ether"></path><path d="M113.95369763958945,160.6970901860548A197,197,0,0,1,112.84149108734682,161.48002318919893L97.72359788255767,139.84580228554654A170.6070045455344,170.6070045455344,0,0,0,98.68679701105528,139.16776241536243Z" fill-rule="evenodd" style="fill: #414552; stroke: #fff; opacity: 1;" id="p-type-ether"></path><path d="M112.84149108734682,161.48002318919893A197,197,0,0,1,111.8732621330943,162.1523148761681L96.88508701149533,140.42802396521492A170.6070045455344,170.6070045455344,0,0,0,97.72359788255767,139.84580228554654Z" fill-rule="evenodd" style="fill: #414552; stroke: #fff; opacity: 1;" id="p-type-ether"></path><path d="M111.8732621330943,162.1523148761681A197,197,0,0,1,110.9012686267051,162.81863719177665L96.04331594264879,141.0050760176404A170.6070045455344,170.6070045455344,0,0,0,96.88508701149533,140.42802396521492Z" fill-rule="evenodd" style="fill: #414552; stroke: #fff; opacity: 1;" id="p-type-ether"></path><path d="M8.031366927101034,196.83621908907483A197,197,0,0,1,6.853775116218235,196.8807399586265L5.935543362470634,170.50372232004858A170.6070045455344,170.6070045455344,0,0,0,6.95536778598366,170.46516611601825Z" fill-rule="evenodd" style="fill: #1DC690; stroke: #fff; opacity: 1;" id="p-type-logs"></path><path d="M6.853775116218235,196.8807399586265A197,197,0,0,1,5.6759380563235995,196.9182158338349L4.915506547083107,170.5361773800081A170.6070045455344,170.6070045455344,0,0,0,5.935543362470634,170.50372232004858Z" fill-rule="evenodd" style="fill: #1DC690; stroke: #fff; opacity: 1;" id="p-type-logs"></path><path d="M5.6759380563235995,196.9182158338349A197,197,0,0,1,4.497897894025409,196.9486453736987L3.895293839854531,170.5625301345556A170.6070045455344,170.6070045455344,0,0,0,4.915506547083107,170.5361773800081Z" fill-rule="evenodd" style="fill: #1DC690; stroke: #fff; opacity: 1;" id="p-type-logs"></path><path d="M4.497897894025409,196.9486453736987A197,197,0,0,1,3.3196967831995625,196.972027489356L2.8749417471123033,170.58277964070908A170.6070045455344,170.6070045455344,0,0,0,3.895293839854531,170.5625301345556Z" fill-rule="evenodd" style="fill: #1DC690; stroke: #fff; opacity: 1;" id="p-type-logs"></path><path d="M3.3196967831995625,196.972027489356A197,197,0,0,1,2.141376883481192,196.9883613441233L1.8544867801714617,170.59692517387927A170.6070045455344,170.6070045455344,0,0,0,2.8749417471123033,170.58277964070908Z" fill-rule="evenodd" style="fill: #1DC690; stroke: #fff; opacity: 1;" id="p-type-logs"></path><path d="M2.141376883481192,196.9883613441233A197,197,0,0,1,0.9629803587560576,196.99764635352537L0.8339654540281983,170.60496622789586A170.6070045455344,170.6070045455344,0,0,0,1.8544867801714617,170.59692517387927Z" fill-rule="evenodd" style="fill: #1DC690; stroke: #fff; opacity: 1;" id="p-type-logs"></path><path d="M0.9629803587560576,196.99764635352537A197,197,0,0,1,-0.21545062434820283,196.9998821853162L-0.18658571394676177,170.6069025150253A170.6070045455344,170.6070045455344,0,0,0,0.8339654540281983,170.60496622789586Z" fill-rule="evenodd" style="fill: #1DC690; stroke: #fff; opacity: 1;" id="p-type-logs"></path><path d="M-0.21545062434820283,196.9998821853162A197,197,0,0,1,-1.3938738979709258,196.99506875949092L-1.2071302053148605,170.60273396598137A170.6070045455344,170.6070045455344,0,0,0,-0.18658571394676177,170.6069025150253Z" fill-rule="evenodd" style="fill: #1DC690; stroke: #fff; opacity: 1;" id="p-type-logs"></path><path d="M-1.3938738979709258,196.99506875949092A197,197,0,0,1,-2.5722472945273163,196.98320624828858L-2.227631501876449,170.59246072992747A170.6070045455344,170.6070045455344,0,0,0,-1.2071302053148605,170.60273396598137Z" fill-rule="evenodd" style="fill: #1DC690; stroke: #fff; opacity: 1;" id="p-type-logs"></path><path d="M-2.5722472945273163,196.98320624828858A197,197,0,0,1,-3.750528648217334,196.96429507618606L-3.2480530869775213,170.57608317447136A170.6070045455344,170.6070045455344,0,0,0,-2.227631501876449,170.59246072992747Z" fill-rule="evenodd" style="fill: #1DC690; stroke: #fff; opacity: 1;" id="p-type-logs"></path><path d="M-3.750528648217334,196.96429507618606A197,197,0,0,1,-4.928675796534512,196.93833591988295L-4.268358446816391,170.55360188565203A170.6070045455344,170.6070045455344,0,0,0,-3.2480530869775213,170.57608317447136Z" fill-rule="evenodd" style="fill: #1DC690; stroke: #fff; opacity: 1;" id="p-type-logs"></path><path d="M-4.928675796534512,196.93833591988295A197,197,0,0,1,-6.106646581774664,196.90532970827707L-5.288511071750265,170.52501766791866A170.6070045455344,170.6070045455344,0,0,0,-4.268358446816391,170.55360188565203Z" fill-rule="evenodd" style="fill: #1DC690; stroke: #fff; opacity: 1;" id="p-type-logs"></path><path d="M-6.106646581774664,196.90532970827707A197,197,0,0,1,-7.2843988525444106,196.86527762243156L-6.308474457601675,170.4903315441019A170.6070045455344,170.6070045455344,0,0,0,-5.288511071750265,170.52501766791866Z" fill-rule="evenodd" style="fill: #1DC690; stroke: #fff; opacity: 1;" id="p-type-logs"></path><path d="M-7.2843988525444106,196.86527762243156A197,197,0,0,1,-8.461890465269489,196.81818109553237L-7.328212106964701,170.4495447553772A170.6070045455344,170.6070045455344,0,0,0,-6.308474457601675,170.4903315441019Z" fill-rule="evenodd" style="fill: #1DC690; stroke: #fff; opacity: 1;" id="p-type-logs"></path><path d="M-8.461890465269489,196.81818109553237A197,197,0,0,1,-9.639079285702778,196.76404181283718L-8.347687530510967,170.4026587612205A170.6070045455344,170.6070045455344,0,0,0,-7.328212106964701,170.4495447553772Z" fill-rule="evenodd" style="fill: #1DC690; stroke: #fff; opacity: 1;" id="p-type-logs"></path><path d="M-9.639079285702778,196.76404181283718A197,197,0,0,1,-10.81592319043199,196.70286171161484L-9.366864248295338,170.34967523935586A170.6070045455344,170.6070045455344,0,0,0,-8.347687530510967,170.4026587612205Z" fill-rule="evenodd" style="fill: #1DC690; stroke: #fff; opacity: 1;" id="p-type-logs"></path><path d="M-10.81592319043199,196.70286171161484A197,197,0,0,1,-11.992380068386971,196.63464298107633L-10.38570579106128,170.29059608569557A170.6070045455344,170.6070045455344,0,0,0,-9.366864248295338,170.34967523935586Z" fill-rule="evenodd" style="fill: #1DC690; stroke: #fff; opacity: 1;" id="p-type-logs"></path><path d="M-11.992380068386971,196.63464298107633A197,197,0,0,1,-13.168407822346575,196.55938806229622L-11.404175701545853,170.22542341427226A170.6070045455344,170.6070045455344,0,0,0,-10.38570579106128,170.29059608569557Z" fill-rule="evenodd" style="fill: #1DC690; stroke: #fff; opacity: 1;" id="p-type-logs"></path><path d="M-13.168407822346575,196.55938806229622A197,197,0,0,1,-14.343964370445018,196.47709964812543L-12.422237535784248,170.1541595571632A170.6070045455344,170.6070045455344,0,0,0,-11.404175701545853,170.22542341427226Z" fill-rule="evenodd" style="fill: #1DC690; stroke: #fff; opacity: 1;" id="p-type-logs"></path><path d="M-14.343964370445018,196.47709964812543A197,197,0,0,1,-15.519007647677697,196.38778068309475L-13.439854864413869,170.07680706440692A170.6070045455344,170.6070045455344,0,0,0,-12.422237535784248,170.1541595571632Z" fill-rule="evenodd" style="fill: #1DC690; stroke: #fff; opacity: 1;" id="p-type-logs"></path><path d="M-15.519007647677697,196.38778068309475A197,197,0,0,1,-16.69349560740642,196.29143436330966L-14.456991273977899,169.99336870391187A170.6070045455344,170.6070045455344,0,0,0,-13.439854864413869,170.07680706440692Z" fill-rule="evenodd" style="fill: #1DC690; stroke: #fff; opacity: 1;" id="p-type-logs"></path><path d="M-16.69349560740642,196.29143436330966A197,197,0,0,1,-17.867386222863946,196.1880641363358L-15.473610368228265,169.90384746135757A170.6070045455344,170.6070045455344,0,0,0,-14.456991273977899,169.99336870391187Z" fill-rule="evenodd" style="fill: #1DC690; stroke: #fff; opacity: 1;" id="p-type-logs"></path><path d="M-17.867386222863946,196.1880641363358A197,197,0,0,1,-19.040637488657833,196.07767370107572L-16.48967576942802,169.8082465400875A170.6070045455344,170.6070045455344,0,0,0,-15.473610368228265,169.90384746135757Z" fill-rule="evenodd" style="fill: #1DC690; stroke: #fff; opacity: 1;" id="p-type-logs"></path><path d="M-19.040637488657833,196.07767370107572A197,197,0,0,1,-20.213207422273527,195.9602670076364L-17.505151119653043,169.7065693609947A170.6070045455344,170.6070045455344,0,0,0,-16.48967576942802,169.8082465400875Z" fill-rule="evenodd" style="fill: #1DC690; stroke: #fff; opacity: 1;" id="p-type-logs"></path><path d="M-20.213207422273527,195.9602670076364A197,197,0,0,1,-21.385054065576625,195.835848257188L-18.52000008209305,169.59881956239929A170.6070045455344,170.6070045455344,0,0,0,-17.505151119653043,169.7065693609947Z" fill-rule="evenodd" style="fill: #1DC690; stroke: #fff; opacity: 1;" id="p-type-logs"></path><path d="M-21.385054065576625,195.835848257188A197,197,0,0,1,-22.55613548631425,195.70442190181356L-19.534186342351802,169.4850009999182A170.6070045455344,170.6070045455344,0,0,0,-18.52000008209305,169.59881956239929Z" fill-rule="evenodd" style="fill: #1DC690; stroke: #fff; opacity: 1;" id="p-type-logs"></path><path d="M-22.55613548631425,195.70442190181356A197,197,0,0,1,-23.726409779615537,195.5659926443495L-20.547673609746596,169.36511774632731A170.6070045455344,170.6070045455344,0,0,0,-19.534186342351802,169.4850009999182Z" fill-rule="evenodd" style="fill: #1DC690; stroke: #fff; opacity: 1;" id="p-type-logs"></path><path d="M-23.726409779615537,195.5659926443495A197,197,0,0,1,-24.8958350694911,195.4205654382176L-21.560425618606818,169.23917409141572A170.6070045455344,170.6070045455344,0,0,0,-20.547673609746596,169.36511774632731Z" fill-rule="evenodd" style="fill: #1DC690; stroke: #fff; opacity: 1;" id="p-type-logs"></path><path d="M-24.8958350694911,195.4205654382176A197,197,0,0,1,-26.064369510331492,195.2681454872476L-22.57240612957164,169.10717454183214A170.6070045455344,170.6070045455344,0,0,0,-21.560425618606818,169.23917409141572Z" fill-rule="evenodd" style="fill: #1DC690; stroke: #fff; opacity: 1;" id="p-type-logs"></path><path d="M-26.064369510331492,195.2681454872476A197,197,0,0,1,-27.231971288404566,195.10873824549097L-23.583578930886805,168.96912382092364A170.6070045455344,170.6070045455344,0,0,0,-22.57240612957164,169.10717454183214Z" fill-rule="evenodd" style="fill: #1DC690; stroke: #fff; opacity: 1;" id="p-type-logs"></path><path d="M-27.231971288404566,195.10873824549097A197,197,0,0,1,-28.3985986233517,194.94234941702578L-24.593907839700357,168.82502686856688A170.6070045455344,170.6070045455344,0,0,0,-23.583578930886805,168.96912382092364Z" fill-rule="evenodd" style="fill: #1DC690; stroke: #fff; opacity: 1;" id="p-type-logs"></path><path d="M-28.3985986233517,194.94234941702578A197,197,0,0,1,-29.56420976968282,194.76898495575261L-25.60335670335741,168.67488884099092A170.6070045455344,170.6070045455344,0,0,0,-24.593907839700357,168.82502686856688Z" fill-rule="evenodd" style="fill: #1DC690; stroke: #fff; opacity: 1;" id="p-type-logs"></path><path d="M-29.56420976968282,194.76898495575261A197,197,0,0,1,-30.728763018270183,194.58865106518158L-26.61188940069376,168.5187151105931A170.6070045455344,170.6070045455344,0,0,0,-25.60335670335741,168.67488884099092Z" fill-rule="evenodd" style="fill: #1DC690; stroke: #fff; opacity: 1;" id="p-type-logs"></path><path d="M-30.728763018270183,194.58865106518158A197,197,0,0,1,-31.892216697840865,194.40135419821016L-27.61946984332845,168.3565112657466A170.6070045455344,170.6070045455344,0,0,0,-26.61188940069376,168.5187151105931Z" fill-rule="evenodd" style="fill: #1DC690; stroke: #fff; opacity: 1;" id="p-type-logs"></path><path d="M-31.892216697840865,194.40135419821016A197,197,0,0,1,-33.054529176467874,194.20710105689244L-28.6260619769551,168.18828311060054A170.6070045455344,170.6070045455344,0,0,0,-27.61946984332845,168.3565112657466Z" fill-rule="evenodd" style="fill: #1DC690; stroke: #fff; opacity: 1;" id="p-type-logs"></path><path d="M-33.054529176467874,194.20710105689244A197,197,0,0,1,-34.21565886305989,194.0058985921993L-29.631629782632046,168.01403666487224A170.6070045455344,170.6070045455344,0,0,0,-28.6260619769551,168.18828311060054Z" fill-rule="evenodd" style="fill: #1DC690; stroke: #fff; opacity: 1;" id="p-type-logs"></path><path d="M-34.21565886305989,194.0058985921993A197,197,0,0,1,-35.37556420884949,193.79775400376954L-30.636137278071214,167.83377816363182A170.6070045455344,170.6070045455344,0,0,0,-29.631629782632046,168.01403666487224Z" fill-rule="evenodd" style="fill: #1DC690; stroke: #fff; opacity: 1;" id="p-type-logs"></path><path d="M-35.37556420884949,193.79775400376954A197,197,0,0,1,-36.5342037088799,193.58267473965245L-31.63954851892565,167.64751405707915A170.6070045455344,170.6070045455344,0,0,0,-30.636137278071214,167.83377816363182Z" fill-rule="evenodd" style="fill: #1DC690; stroke: #fff; opacity: 1;" id="p-type-logs"></path><path d="M-36.5342037088799,193.58267473965245A197,197,0,0,1,-37.691535903490184,193.36066849604114L-32.64182760007575,167.455251010313A170.6070045455344,170.6070045455344,0,0,0,-31.63954851892565,167.64751405707915Z" fill-rule="evenodd" style="fill: #1DC690; stroke: #fff; opacity: 1;" id="p-type-logs"></path><path d="M-37.691535903490184,193.36066849604114A197,197,0,0,1,-38.8475193797988,193.13174321699722L-33.64293865691406,167.25699590309253A170.6070045455344,170.6070045455344,0,0,0,-32.64182760007575,167.455251010313Z" fill-rule="evenodd" style="fill: #1DC690; stroke: #fff; opacity: 1;" id="p-type-logs"></path><path d="M-38.8475193797988,193.13174321699722A197,197,0,0,1,-40.00211277318544,192.8959070941666L-34.64284586662857,167.0527558295912A170.6070045455344,170.6070045455344,0,0,0,-33.64293865691406,167.25699590309253Z" fill-rule="evenodd" style="fill: #1DC690; stroke: #fff; opacity: 1;" id="p-type-logs"></path><path d="M-40.00211277318544,192.8959070941666A197,197,0,0,1,-41.15527476877124,192.6531685664862L-35.641513449484634,166.84253809814274A170.6070045455344,170.6070045455344,0,0,0,-34.64284586662857,167.0527558295912Z" fill-rule="evenodd" style="fill: #1DC690; stroke: #fff; opacity: 1;" id="p-type-logs"></path><path d="M-41.15527476877124,192.6531685664862A197,197,0,0,1,-42.30696410289709,192.40353631988208L-36.6389056701052,166.62635023097977A170.6070045455344,170.6070045455344,0,0,0,-35.641513449484634,166.84253809814274Z" fill-rule="evenodd" style="fill: #1DC690; stroke: #fff; opacity: 1;" id="p-type-logs"></path><path d="M-42.30696410289709,192.40353631988208A197,197,0,0,1,-43.45713956460023,192.14701928695865L-37.63498683874962,166.4041999639647A170.6070045455344,170.6070045455344,0,0,0,-36.6389056701052,166.62635023097977Z" fill-rule="evenodd" style="fill: #1DC690; stroke: #fff; opacity: 1;" id="p-type-logs"></path><path d="M-43.45713956460023,192.14701928695865A197,197,0,0,1,-44.605759997088875,191.883626646679L-38.629721312590654,166.17609524631266A170.6070045455344,170.6070045455344,0,0,0,-37.63498683874962,166.4041999639647Z" fill-rule="evenodd" style="fill: #1DC690; stroke: #fff; opacity: 1;" id="p-type-logs"></path><path d="M-44.605759997088875,191.883626646679A197,197,0,0,1,-45.75278429921493,191.61336782403652L-39.62307349698993,165.94204424030738A170.6070045455344,170.6070045455344,0,0,0,-38.629721312590654,166.17609524631266Z" fill-rule="evenodd" style="fill: #1DC690; stroke: #fff; opacity: 1;" id="p-type-logs"></path><path d="M-45.75278429921493,191.61336782403652A197,197,0,0,1,-46.89817142694472,191.33625248971742L-40.615007846771626,165.70205532100886A170.6070045455344,170.6070045455344,0,0,0,-39.62307349698993,165.94204424030738Z" fill-rule="evenodd" style="fill: #1DC690; stroke: #fff; opacity: 1;" id="p-type-logs"></path><path d="M-46.89817142694472,191.33625248971742A197,197,0,0,1,-48.04188039482768,191.05229055975508L-41.60548886749435,165.45613707595376A170.6070045455344,170.6070045455344,0,0,0,-40.615007846771626,165.70205532100886Z" fill-rule="evenodd" style="fill: #1DC690; stroke: #fff; opacity: 1;" id="p-type-logs"></path><path d="M-48.04188039482768,191.05229055975508A197,197,0,0,1,-49.18387027746293,190.7614921951747L-42.59448111672128,165.2042983048482A170.6070045455344,170.6070045455344,0,0,0,-41.60548886749435,165.45613707595376Z" fill-rule="evenodd" style="fill: #1DC690; stroke: #fff; opacity: 1;" id="p-type-logs"></path><path d="M-49.18387027746293,190.7614921951747A197,197,0,0,1,-50.3241002109637,190.46386780163024L-43.58194920528839,164.94654801925276A170.6070045455344,170.6070045455344,0,0,0,-42.59448111672128,165.2042983048482Z" fill-rule="evenodd" style="fill: #1DC690; stroke: #fff; opacity: 1;" id="p-type-logs"></path><path d="M-50.3241002109637,190.46386780163024A197,197,0,0,1,-51.46252939441958,190.15942802903174L-44.56785779857076,164.6828954422601A170.6070045455344,170.6070045455344,0,0,0,-43.58194920528839,164.94654801925276Z" fill-rule="evenodd" style="fill: #1DC690; stroke: #fff; opacity: 1;" id="p-type-logs"></path><path d="M-51.46252939441958,190.15942802903174A197,197,0,0,1,-52.59911709135652,189.8481837711643L-45.55217161774699,164.41335000816485A170.6070045455344,170.6070045455344,0,0,0,-44.56785779857076,164.6828954422601Z" fill-rule="evenodd" style="fill: #1DC690; stroke: #fff; opacity: 1;" id="p-type-logs"></path><path d="M-52.59911709135652,189.8481837711643A197,197,0,0,1,-53.73382263119445,189.53014616529828L-46.53485544106158,164.13792136212612A170.6070045455344,170.6070045455344,0,0,0,-45.55217161774699,164.41335000816485Z" fill-rule="evenodd" style="fill: #1DC690; stroke: #fff; opacity: 1;" id="p-type-logs"></path><path d="M-53.73382263119445,189.53014616529828A197,197,0,0,1,-54.86660541070266,189.2053265917909L-47.51587410508523,163.8566193598223A170.6070045455344,170.6070045455344,0,0,0,-46.53485544106158,164.13792136212612Z" fill-rule="evenodd" style="fill: #1DC690; stroke: #fff; opacity: 1;" id="p-type-logs"></path><path d="M-54.86660541070266,189.2053265917909A197,197,0,0,1,-55.99742489545265,188.87373667367874L-48.49519250597316,163.56945406709838A170.6070045455344,170.6070045455344,0,0,0,-47.51587410508523,163.8566193598223Z" fill-rule="evenodd" style="fill: #1DC690; stroke: #fff; opacity: 1;" id="p-type-logs"></path><path d="M-55.99742489545265,188.87373667367874A197,197,0,0,1,-57.12624062126865,188.53538827626213L-49.47277560072118,163.27643575960582A170.6070045455344,170.6070045455344,0,0,0,-48.49519250597316,163.56945406709838Z" fill-rule="evenodd" style="fill: #1DC690; stroke: #fff; opacity: 1;" id="p-type-logs"></path><path d="M-57.12624062126865,188.53538827626213A197,197,0,0,1,-58.25301219567544,188.19029350668032L-50.448588408419646,162.97757492243485A170.6070045455344,170.6070045455344,0,0,0,-49.47277560072118,163.27643575960582Z" fill-rule="evenodd" style="fill: #1DC690; stroke: #fff; opacity: 1;" id="p-type-logs"></path><path d="M-58.25301219567544,188.19029350668032A197,197,0,0,1,-59.37769929934383,187.8384647134785L-51.42259601150521,162.67288224973925A170.6070045455344,170.6070045455344,0,0,0,-50.448588408419646,162.97757492243485Z" fill-rule="evenodd" style="fill: #1DC690; stroke: #fff; opacity: 1;" id="p-type-logs"></path><path d="M-59.37769929934383,187.8384647134785A197,197,0,0,1,-60.50026168753335,187.47991448616565L-52.39476355701028,162.36236864435364A170.6070045455344,170.6070045455344,0,0,0,-51.42259601150521,162.67288224973925Z" fill-rule="evenodd" style="fill: #1DC690; stroke: #fff; opacity: 1;" id="p-type-logs"></path><path d="M-60.50026168753335,187.47991448616565A197,197,0,0,1,-61.62065919153236,187.1146556547643L-53.36505625781009,162.04604521740345A170.6070045455344,170.6070045455344,0,0,0,-52.39476355701028,162.36236864435364Z" fill-rule="evenodd" style="fill: #1DC690; stroke: #fff; opacity: 1;" id="p-type-logs"></path><path d="M-61.62065919153236,187.1146556547643A197,197,0,0,1,-62.738851720095354,186.7427012893513L-54.3334393938676,161.72392328790727A170.6070045455344,170.6070045455344,0,0,0,-53.36505625781009,162.04604521740345Z" fill-rule="evenodd" style="fill: #1DC690; stroke: #fff; opacity: 1;" id="p-type-logs"></path><path d="M-62.738851720095354,186.7427012893513A197,197,0,0,1,-63.854799260877584,186.36406469959016L-55.29987831347578,161.39601438237182A170.6070045455344,170.6070045455344,0,0,0,-54.3334393938676,161.72392328790727Z" fill-rule="evenodd" style="fill: #1DC690; stroke: #fff; opacity: 1;" id="p-type-logs"></path><path d="M-63.854799260877584,186.36406469959016A197,197,0,0,1,-64.96846188186687,185.97875943425478L-56.26433843449767,161.06233023437946A170.6070045455344,170.6070045455344,0,0,0,-55.29987831347578,161.39601438237182Z" fill-rule="evenodd" style="fill: #1DC690; stroke: #fff; opacity: 1;" id="p-type-logs"></path><path d="M-64.96846188186687,185.97875943425478A197,197,0,0,1,-66.07979973281238,185.58679928074466L-57.22678524560368,160.72288278416846A170.6070045455344,170.6070045455344,0,0,0,-56.26433843449767,161.06233023437946Z" fill-rule="evenodd" style="fill: #1DC690; stroke: #fff; opacity: 1;" id="p-type-logs"></path><path d="M-66.07979973281238,185.58679928074466A197,197,0,0,1,-67.18877304665071,185.18819826459153L-58.18718430750668,160.37768417820556A170.6070045455344,170.6070045455344,0,0,0,-57.22678524560368,160.72288278416846Z" fill-rule="evenodd" style="fill: #1DC690; stroke: #fff; opacity: 1;" id="p-type-logs"></path><path d="M-67.18877304665071,185.18819826459153A197,197,0,0,1,-68.29534214092878,184.78297064895747L-59.14550125419424,160.02674676875145A170.6070045455344,170.6070045455344,0,0,0,-58.18718430750668,160.37768417820556Z" fill-rule="evenodd" style="fill: #1DC690; stroke: #fff; opacity: 1;" id="p-type-logs"></path><path d="M-68.29534214092878,184.78297064895747A197,197,0,0,1,-69.39946741922387,184.37113093412452L-60.10170179415834,159.6700831134188A170.6070045455344,170.6070045455344,0,0,0,-59.14550125419424,160.02674676875145Z" fill-rule="evenodd" style="fill: #1DC690; stroke: #fff; opacity: 1;" id="p-type-logs"></path><path d="M-69.39946741922387,184.37113093412452A197,197,0,0,1,-70.50110937256039,183.95269385697583L-61.055751711622484,159.30770597472272A170.6070045455344,170.6070045455344,0,0,0,-60.10170179415834,159.6700831134188Z" fill-rule="evenodd" style="fill: #1DC690; stroke: #fff; opacity: 1;" id="p-type-logs"></path><path d="M-137.5283382428241,141.04948131832091A197,197,0,0,1,-138.36961691287078,140.22428147573223L-119.831603358467,121.43778998540378A170.6070045455344,170.6070045455344,0,0,0,-119.10303465854462,122.1524340122845Z" fill-rule="evenodd" style="fill: #D7A449; stroke: #fff; opacity: 1;" id="p-type-tokenTransfers"></path><path d="M-138.36961691287078,140.22428147573223A197,197,0,0,1,-139.20594429530732,139.3940639799694L-120.55588411753759,120.71880054340686A170.6070045455344,170.6070045455344,0,0,0,-119.831603358467,121.43778998540378Z" fill-rule="evenodd" style="fill: #D7A449; stroke: #fff; opacity: 1;" id="p-type-tokenTransfers"></path><path d="M-139.20594429530732,139.3940639799694A197,197,0,0,1,-140.03729046378498,138.55885853875066L-121.27585101877811,119.99549141393244A170.6070045455344,170.6070045455344,0,0,0,-120.55588411753759,120.71880054340686Z" fill-rule="evenodd" style="fill: #D7A449; stroke: #fff; opacity: 1;" id="p-type-tokenTransfers"></path><path d="M-140.03729046378498,138.55885853875066A197,197,0,0,1,-140.86362567019813,137.7186950382783L-121.99147829957336,119.26788847919092A170.6070045455344,170.6070045455344,0,0,0,-121.27585101877811,119.99549141393244Z" fill-rule="evenodd" style="fill: #D7A449; stroke: #fff; opacity: 1;" id="p-type-tokenTransfers"></path><path d="M-140.86362567019813,137.7186950382783A197,197,0,0,1,-141.68492034574868,136.873603542169L-122.70274035259301,118.53601777503808A170.6070045455344,170.6070045455344,0,0,0,-121.99147829957336,119.26788847919092Z" fill-rule="evenodd" style="fill: #D7A449; stroke: #fff; opacity: 1;" id="p-type-tokenTransfers"></path><path d="M-141.68492034574868,136.873603542169A197,197,0,0,1,-142.501145102004,136.02361429037828L-123.4096117267079,117.79990549004357A170.6070045455344,170.6070045455344,0,0,0,-122.70274035259301,118.53601777503808Z" fill-rule="evenodd" style="fill: #D7A449; stroke: #fff; opacity: 1;" id="p-type-tokenTransfers"></path><path d="M-142.501145102004,136.02361429037828A197,197,0,0,1,-143.31227073194884,135.16875769811824L-124.11206712790079,117.05957796455378A170.6070045455344,170.6070045455344,0,0,0,-123.4096117267079,117.79990549004357Z" fill-rule="evenodd" style="fill: #D7A449; stroke: #fff; opacity: 1;" id="p-type-tokenTransfers"></path><path d="M-143.31227073194884,135.16875769811824A197,197,0,0,1,-144.11826821103017,134.3090643547693L-124.81008142017143,116.31506168974924A170.6070045455344,170.6070045455344,0,0,0,-124.11206712790079,117.05957796455378Z" fill-rule="evenodd" style="fill: #D7A449; stroke: #fff; opacity: 1;" id="p-type-tokenTransfers"></path><path d="M-144.11826821103017,134.3090643547693A197,197,0,0,1,-144.91910869819588,133.44456502278572L-125.50362962643605,115.56638330669678A170.6070045455344,170.6070045455344,0,0,0,-124.81008142017143,116.31506168974924Z" fill-rule="evenodd" style="fill: #D7A449; stroke: #fff; opacity: 1;" id="p-type-tokenTransfers"></path><path d="M-144.91910869819588,133.44456502278572A197,197,0,0,1,-145.71476353692674,132.5752906365946L-126.19268692942099,114.81356960539613A170.6070045455344,170.6070045455344,0,0,0,-125.50362962643605,115.56638330669678Z" fill-rule="evenodd" style="fill: #D7A449; stroke: #fff; opacity: 1;" id="p-type-tokenTransfers"></path><path d="M-145.71476353692674,132.5752906365946A197,197,0,0,1,-146.50520425626198,131.701272301489L-126.87722867255093,114.05664752382133A170.6070045455344,170.6070045455344,0,0,0,-126.19268692942099,114.81356960539613Z" fill-rule="evenodd" style="fill: #D7A449; stroke: #fff; opacity: 1;" id="p-type-tokenTransfers"></path><path d="M-146.50520425626198,131.701272301489A197,197,0,0,1,-147.2904025718178,130.82254129251518L-127.55723036083103,113.29564414695686A170.6070045455344,170.6070045455344,0,0,0,-126.87722867255093,114.05664752382133Z" fill-rule="evenodd" style="fill: #D7A449; stroke: #fff; opacity: 1;" id="p-type-tokenTransfers"></path><path d="M-147.2904025718178,130.82254129251518A197,197,0,0,1,-148.07033038679978,129.93912905335313L-128.2326676617235,112.53058670582843A170.6070045455344,170.6070045455344,0,0,0,-127.55723036083103,113.29564414695686Z" fill-rule="evenodd" style="fill: #D7A449; stroke: #fff; opacity: 1;" id="p-type-tokenTransfers"></path><path d="M-148.07033038679978,129.93912905335313A197,197,0,0,1,-148.84495979300797,129.05106719519154L-128.90351640601827,111.76150257652847A170.6070045455344,170.6070045455344,0,0,0,-128.2326676617235,112.53058670582843Z" fill-rule="evenodd" style="fill: #D7A449; stroke: #fff; opacity: 1;" id="p-type-tokenTransfers"></path><path d="M-148.84495979300797,129.05106719519154A197,197,0,0,1,-149.61426307183575,128.15838749559674L-129.56975258869778,110.98841927923671A170.6070045455344,170.6070045455344,0,0,0,-128.90351640601827,111.76150257652847Z" fill-rule="evenodd" style="fill: #D7A449; stroke: #fff; opacity: 1;" id="p-type-tokenTransfers"></path><path d="M-149.61426307183575,128.15838749559674A197,197,0,0,1,-150.37821269526162,127.26112189737547L-130.23135236979616,110.21136447723526A170.6070045455344,170.6070045455344,0,0,0,-129.56975258869778,110.98841927923671Z" fill-rule="evenodd" style="fill: #D7A449; stroke: #fff; opacity: 1;" id="p-type-tokenTransfers"></path><path d="M-150.37821269526162,127.26112189737547A197,197,0,0,1,-151.13678132683415,126.35930250743199L-130.88829207525197,109.43036597591882A170.6070045455344,170.6070045455344,0,0,0,-130.23135236979616,110.21136447723526Z" fill-rule="evenodd" style="fill: #D7A449; stroke: #fff; opacity: 1;" id="p-type-tokenTransfers"></path><path d="M-151.13678132683415,126.35930250743199A197,197,0,0,1,-151.88994182265037,125.45296159561914L-131.54054819775567,108.64545172179973A170.6070045455344,170.6070045455344,0,0,0,-130.88829207525197,109.43036597591882Z" fill-rule="evenodd" style="fill: #D7A449; stroke: #fff; opacity: 1;" id="p-type-tokenTransfers"></path><path d="M-151.88994182265037,125.45296159561914A197,197,0,0,1,-152.63766723232675,124.54213159358353L-132.18809739759055,107.85664980150787A170.6070045455344,170.6070045455344,0,0,0,-131.54054819775567,108.64545172179973Z" fill-rule="evenodd" style="fill: #D7A449; stroke: #fff; opacity: 1;" id="p-type-tokenTransfers"></path><path d="M-152.63766723232675,124.54213159358353A197,197,0,0,1,-153.37993079996392,123.6268450936053L-132.830916503468,107.06398844078576A170.6070045455344,170.6070045455344,0,0,0,-132.18809739759055,107.85664980150787Z" fill-rule="evenodd" style="fill: #D7A449; stroke: #fff; opacity: 1;" id="p-type-tokenTransfers"></path><path d="M-153.37993079996392,123.6268450936053A197,197,0,0,1,-154.11670596510376,122.70713484743153L-133.4689825133566,106.26749600347844A170.6070045455344,170.6070045455344,0,0,0,-132.830916503468,107.06398844078576Z" fill-rule="evenodd" style="fill: #D7A449; stroke: #fff; opacity: 1;" id="p-type-tokenTransfers"></path><path d="M-154.11670596510376,122.70713484743153A197,197,0,0,1,-154.8479663636801,121.78303376510458L-134.1022725953052,105.46720099051862A170.6070045455344,170.6070045455344,0,0,0,-133.4689825133566,106.26749600347844Z" fill-rule="evenodd" style="fill: #D7A449; stroke: #fff; opacity: 1;" id="p-type-tokenTransfers"></path><path d="M-154.8479663636801,121.78303376510458A197,197,0,0,1,-155.57368582896183,120.85457491378423L-134.73076408826006,104.66313203890668A170.6070045455344,170.6070045455344,0,0,0,-134.1022725953052,105.46720099051862Z" fill-rule="evenodd" style="fill: #D7A449; stroke: #fff; opacity: 1;" id="p-type-tokenTransfers"></path><path d="M-155.57368582896183,120.85457491378423A197,197,0,0,1,-156.29383839248942,119.92179151656467L-135.35443450287545,103.85531792068618A170.6070045455344,170.6070045455344,0,0,0,-134.73076408826006,104.66313203890668Z" fill-rule="evenodd" style="fill: #D7A449; stroke: #fff; opacity: 1;" id="p-type-tokenTransfers"></path><path d="M-156.29383839248942,119.92179151656467A197,197,0,0,1,-157.00839828500412,118.98471695128544L-135.97326152231867,103.0437875419141A170.6070045455344,170.6070045455344,0,0,0,-135.35443450287545,103.85531792068618Z" fill-rule="evenodd" style="fill: #D7A449; stroke: #fff; opacity: 1;" id="p-type-tokenTransfers"></path><path d="M-157.00839828500412,118.98471695128544A197,197,0,0,1,-157.71733993737,118.04338474933726L-136.58722300306843,102.22856994162666A170.6070045455344,170.6070045455344,0,0,0,-135.97326152231867,103.0437875419141Z" fill-rule="evenodd" style="fill: #D7A449; stroke: #fff; opacity: 1;" id="p-type-tokenTransfers"></path><path d="M-157.71733993737,118.04338474933726A197,197,0,0,1,-158.42063798148894,117.09782859446209L-137.19629697570733,101.4096942908A170.6070045455344,170.6070045455344,0,0,0,-136.58722300306843,102.22856994162666Z" fill-rule="evenodd" style="fill: #D7A449; stroke: #fff; opacity: 1;" id="p-type-tokenTransfers"></path><path d="M-158.42063798148894,117.09782859446209A197,197,0,0,1,-159.11826725120835,116.14808232154775L-137.80046164570794,100.58718989130661A170.6070045455344,170.6070045455344,0,0,0,-137.19629697570733,101.4096942908Z" fill-rule="evenodd" style="fill: #D7A449; stroke: #fff; opacity: 1;" id="p-type-tokenTransfers"></path><path d="M-159.11826725120835,116.14808232154775A197,197,0,0,1,-159.8102027832217,115.19417991541742L-138.3996953942126,99.76108617486663A170.6070045455344,170.6070045455344,0,0,0,-137.80046164570794,100.58718989130661Z" fill-rule="evenodd" style="fill: #D7A449; stroke: #fff; opacity: 1;" id="p-type-tokenTransfers"></path><path d="M-159.8102027832217,115.19417991541742A197,197,0,0,1,-160.49641981796185,114.23615550961327L-138.99397677880717,98.93141270199476A170.6070045455344,170.6070045455344,0,0,0,-138.3996953942126,99.76108617486663Z" fill-rule="evenodd" style="fill: #D7A449; stroke: #fff; opacity: 1;" id="p-type-tokenTransfers"></path><path d="M-160.49641981796185,114.23615550961327A197,197,0,0,1,-161.17689380048682,113.27404338517536L-139.5832845342882,98.09819916094251A170.6070045455344,170.6070045455344,0,0,0,-138.99397677880717,98.93141270199476Z" fill-rule="evenodd" style="fill: #D7A449; stroke: #fff; opacity: 1;" id="p-type-tokenTransfers"></path><path d="M-161.17689380048682,113.27404338517536A197,197,0,0,1,-161.85160038135876,112.30787796941472L-140.16759757342382,97.26147536663584A170.6070045455344,170.6070045455344,0,0,0,-139.5832845342882,98.09819916094251Z" fill-rule="evenodd" style="fill: #D7A449; stroke: #fff; opacity: 1;" id="p-type-tokenTransfers"></path><path d="M-161.85160038135876,112.30787796941472A197,197,0,0,1,-162.52051541751496,111.33769383468152L-140.7468949877085,96.42127125960826A170.6070045455344,170.6070045455344,0,0,0,-140.16759757342382,97.26147536663584Z" fill-rule="evenodd" style="fill: #D7A449; stroke: #fff; opacity: 1;" id="p-type-tokenTransfers"></path><path d="M-162.52051541751496,111.33769383468152A197,197,0,0,1,-163.18361497313194,110.363525697128L-141.32115604811094,95.57761690492954A170.6070045455344,170.6070045455344,0,0,0,-140.7468949877085,96.42127125960826Z" fill-rule="evenodd" style="fill: #D7A449; stroke: #fff; opacity: 1;" id="p-type-tokenTransfers"></path><path d="M-163.18361497313194,110.363525697128A197,197,0,0,1,-163.84087532048179,109.38540841546622L-141.89036020581608,94.73054249112985A170.6070045455344,170.6070045455344,0,0,0,-141.32115604811094,95.57761690492954Z" fill-rule="evenodd" style="fill: #D7A449; stroke: #fff; opacity: 1;" id="p-type-tokenTransfers"></path><path d="M-163.84087532048179,109.38540841546622A197,197,0,0,1,-164.49227294078136,108.40337698972061L-142.45448709296025,93.88007832911951A170.6070045455344,170.6070045455344,0,0,0,-141.89036020581608,94.73054249112985Z" fill-rule="evenodd" style="fill: #D7A449; stroke: #fff; opacity: 1;" id="p-type-tokenTransfers"></path><path d="M-164.49227294078136,108.40337698972061A197,197,0,0,1,-165.1377845250338,107.41746655997574L-143.01351652336,93.02625485110443A170.6070045455344,170.6070045455344,0,0,0,-142.45448709296025,93.88007832911951Z" fill-rule="evenodd" style="fill: #D7A449; stroke: #fff; opacity: 1;" id="p-type-tokenTransfers"></path><path d="M-165.1377845250338,107.41746655997574A197,197,0,0,1,-165.77738697486262,106.42771240511867L-143.56742849323453,92.169102609497A170.6070045455344,170.6070045455344,0,0,0,-143.01351652336,93.02625485110443Z" fill-rule="evenodd" style="fill: #D7A449; stroke: #fff; opacity: 1;" id="p-type-tokenTransfers"></path><path d="M-165.77738697486262,106.42771240511867A197,197,0,0,1,-166.41105740333816,105.43414994157675L-144.11620318192135,91.30865227582305A170.6070045455344,170.6070045455344,0,0,0,-143.56742849323453,92.169102609497Z" fill-rule="evenodd" style="fill: #D7A449; stroke: #fff; opacity: 1;" id="p-type-tokenTransfers"></path><path d="M-166.41105740333816,105.43414994157675A197,197,0,0,1,-167.03877313579667,104.43681472205024L-144.65982095258556,90.44493463962417A170.6070045455344,170.6070045455344,0,0,0,-144.11620318192135,91.30865227582305Z" fill-rule="evenodd" style="fill: #D7A449; stroke: #fff; opacity: 1;" id="p-type-tokenTransfers"></path><path d="M-167.03877313579667,104.43681472205024A197,197,0,0,1,-167.66051171065155,103.43574243424018L-145.19826235292263,89.57798060735604A170.6070045455344,170.6070045455344,0,0,0,-144.65982095258556,90.44493463962417Z" fill-rule="evenodd" style="fill: #D7A449; stroke: #fff; opacity: 1;" id="p-type-tokenTransfers"></path><path d="M-167.66051171065155,103.43574243424018A197,197,0,0,1,-168.2762508801972,102.43096889957124L-145.73150811585427,88.70782120128246A170.6070045455344,170.6070045455344,0,0,0,-145.19826235292263,89.57798060735604Z" fill-rule="evenodd" style="fill: #D7A449; stroke: #fff; opacity: 1;" id="p-type-tokenTransfers"></path><path d="M-168.2762508801972,102.43096889957124A197,197,0,0,1,-168.88596861140505,101.42253007191009L-146.25953916021808,87.8344875583653A170.6070045455344,170.6070045455344,0,0,0,-145.73150811585427,88.70782120128246Z" fill-rule="evenodd" style="fill: #D7A449; stroke: #fff; opacity: 1;" id="p-type-tokenTransfers"></path><path d="M-168.88596861140505,101.42253007191009A197,197,0,0,1,-169.48964308671202,100.41046203627873L-146.78233659145016,86.95801092915033A170.6070045455344,170.6070045455344,0,0,0,-146.25953916021808,87.8344875583653Z" fill-rule="evenodd" style="fill: #D7A449; stroke: #fff; opacity: 1;" id="p-type-tokenTransfers"></path><path d="M-169.48964308671202,100.41046203627873A197,197,0,0,1,-170.08725270480116,99.39480100756332L-147.29988170226127,86.07842267664894A170.6070045455344,170.6070045455344,0,0,0,-146.78233659145016,86.95801092915033Z" fill-rule="evenodd" style="fill: #D7A449; stroke: #fff; opacity: 1;" id="p-type-tokenTransfers"></path><path d="M-170.08725270480116,99.39480100756332A197,197,0,0,1,-170.67877608137465,98.37558332921832L-147.81215597330626,85.19575427521598A170.6070045455344,170.6070045455344,0,0,0,-147.29988170226127,86.07842267664894Z" fill-rule="evenodd" style="fill: #D7A449; stroke: #fff; opacity: 1;" id="p-type-tokenTransfers"></path><path d="M-170.67877608137465,98.37558332921832A197,197,0,0,1,-171.26419204991896,97.35284547196592L-148.3191410738467,84.31003730942335A170.6070045455344,170.6070045455344,0,0,0,-147.81215597330626,85.19575427521598Z" fill-rule="evenodd" style="fill: #D7A449; stroke: #fff; opacity: 1;" id="p-type-tokenTransfers"></path><path d="M-171.26419204991896,97.35284547196592A197,197,0,0,1,-171.8434796624623,96.32662403249115L-148.8208188624069,83.42130347292996A170.6070045455344,170.6070045455344,0,0,0,-148.3191410738467,84.31003730942335Z" fill-rule="evenodd" style="fill: #D7A449; stroke: #fff; opacity: 1;" id="p-type-tokenTransfers"></path><path d="M-171.8434796624623,96.32662403249115A197,197,0,0,1,-172.41661819032421,95.29695573213218L-149.31717138742292,82.52958456734754A170.6070045455344,170.6070045455344,0,0,0,-148.8208188624069,83.42130347292996Z" fill-rule="evenodd" style="fill: #D7A449; stroke: #fff; opacity: 1;" id="p-type-tokenTransfers"></path><path d="M-172.41661819032421,95.29695573213218A197,197,0,0,1,-172.98358712485722,94.2638774155664L-149.8081808878851,81.63491250110272A170.6070045455344,170.6070045455344,0,0,0,-149.31717138742292,82.52958456734754Z" fill-rule="evenodd" style="fill: #D7A449; stroke: #fff; opacity: 1;" id="p-type-tokenTransfers"></path><path d="M-172.98358712485722,94.2638774155664A197,197,0,0,1,-173.54436617818078,93.22742604949202L-150.2938297939735,80.73731928829523A170.6070045455344,170.6070045455344,0,0,0,-149.8081808878851,81.63491250110272Z" fill-rule="evenodd" style="fill: #D7A449; stroke: #fff; opacity: 1;" id="p-type-tokenTransfers"></path><path d="M-173.54436617818078,93.22742604949202A197,197,0,0,1,-174.09893528390717,92.1876387213053L-150.77410072768654,79.83683704755236A170.6070045455344,170.6070045455344,0,0,0,-150.2938297939735,80.73731928829523Z" fill-rule="evenodd" style="fill: #D7A449; stroke: #fff; opacity: 1;" id="p-type-tokenTransfers"></path><path d="M-174.09893528390717,92.1876387213053A197,197,0,0,1,-174.64727459785956,91.14455263777333L-151.24897650346307,78.93349800087967A170.6070045455344,170.6070045455344,0,0,0,-150.77410072768654,79.83683704755236Z" fill-rule="evenodd" style="fill: #D7A449; stroke: #fff; opacity: 1;" id="p-type-tokenTransfers"></path></g></svg>