<svg xmlns="http://www.w3.org/2000/svg" width="400" height="400" id="block-7907836"><g id="burst-container" transform="translate(200,200)"><circle r="197" style="fill: #f9f9f9; stroke: #f9f9f9; stroke-width: 3; opacity: 1;" id="circle-base"></circle><path display="none" d="M6.031385485800715e-15,-98.5A98.5,98.5,0,1,1,-6.031385485800715e-15,98.5A98.5,98.5,0,1,1,6.031385485800715e-15,-98.5Z" fill-rule="evenodd" id="p-type-root" style="stroke: #fff; opacity: 1;"></path><path d="M8.529667153919608e-15,-139.30003589374985A139.30003589374985,139.30003589374985,0,1,1,-82.77366996692754,-112.0402586582437L-58.52982333731174,-79.22442666313893A98.5,98.5,0,1,0,6.031385485800715e-15,-98.5Z" fill-rule="evenodd" style="fill: #0B1F65; stroke: #fff; opacity: 1;" id="p-type-data"></path><path d="M-82.77366996692754,-112.0402586582437A139.30003589374985,139.30003589374985,0,0,1,-1.1897103630732309,-139.29495536182205L-0.841252265376991,-98.4964075214218A98.5,98.5,0,0,0,-58.52982333731174,-79.22442666313893Z" fill-rule="evenodd" style="fill: #D7A449; stroke: #fff; opacity: 1;" id="p-type-value"></path><path d="M1.0446666101440332e-14,-170.6070045455344A170.6070045455344,170.6070045455344,0,0,1,167.61848540355743,31.79297644161995L136.85992023228857,25.95885656209843A139.30003589374985,139.30003589374985,0,0,0,8.529667153919608e-15,-139.30003589374985Z" fill-rule="evenodd" style="fill: #414552; stroke: #fff; opacity: 1;" id="p-type-ether"></path><path d="M167.61848540355743,31.79297644161995A170.6070045455344,170.6070045455344,0,0,1,-46.520829195037,164.14189730536867L-37.98409797967045,134.02129793682343A139.30003589374985,139.30003589374985,0,0,0,136.85992023228857,25.95885656209843Z" fill-rule="evenodd" style="fill: #DB3F29; stroke: #fff; opacity: 1;" id="p-type-functions"></path><path d="M-46.520829195037,164.14189730536867A170.6070045455344,170.6070045455344,0,0,1,-152.40266701129806,76.68231274448759L-124.4362565389916,62.6108461735047A139.30003589374985,139.30003589374985,0,0,0,-37.98409797967045,134.02129793682343Z" fill-rule="evenodd" style="fill: #1DC690; stroke: #fff; opacity: 1;" id="p-type-logs"></path><path d="M-152.40266701129806,76.68231274448759A170.6070045455344,170.6070045455344,0,0,1,-165.60647604939263,-41.002988799622145L-135.21712147381842,-33.47880016270933A139.30003589374985,139.30003589374985,0,0,0,-124.4362565389916,62.6108461735047Z" fill-rule="evenodd" style="fill: #D7A449; stroke: #fff; opacity: 1;" id="p-type-tokenTransfers"></path><path d="M-101.37662777825452,-137.22073218107107A170.6070045455344,170.6070045455344,0,0,1,-47.45052346789436,-163.87555590332198L-38.74319017476656,-133.8038310926928A139.30003589374985,139.30003589374985,0,0,0,-82.77366996692754,-112.0402586582437Z" fill-rule="evenodd" style="fill: #D7A449; stroke: #fff; opacity: 1;" id="p-type-tokenTransfers"></path><path d="M-47.45052346789436,-163.87555590332198A170.6070045455344,170.6070045455344,0,0,1,-2.9140770455333342,-170.58211557772606L-2.3793339442379366,-139.27971413663153A139.30003589374985,139.30003589374985,0,0,0,-38.74319017476656,-133.8038310926928Z" fill-rule="evenodd" style="fill: #414552; stroke: #fff; opacity: 1;" id="p-type-ether"></path><path d="M1.206277097160143e-14,-197A197,197,0,0,1,120.80612206857005,-155.61131344074488L104.62117064406556,-134.76335055594794A170.6070045455344,170.6070045455344,0,0,0,1.0446666101440332e-14,-170.6070045455344Z" fill-rule="evenodd" style="fill: #414552; stroke: #fff; opacity: 1;" id="p-type-ether"></path><path d="M120.80612206857005,-155.61131344074488A197,197,0,0,1,185.47132394081103,-66.40322278054529L160.62287820627532,-57.506877821109775A170.6070045455344,170.6070045455344,0,0,0,104.62117064406556,-134.76335055594794Z" fill-rule="evenodd" style="fill: #414552; stroke: #fff; opacity: 1;" id="p-type-ether"></path><path d="M185.47132394081103,-66.40322278054529A197,197,0,0,1,188.34435357905775,-57.752960745635164L163.11099485882258,-50.015531149485525A170.6070045455344,170.6070045455344,0,0,0,160.62287820627532,-57.506877821109775Z" fill-rule="evenodd" style="fill: #414552; stroke: #fff; opacity: 1;" id="p-type-ether"></path><path d="M188.34435357905775,-57.752960745635164A197,197,0,0,1,190.48183491255213,-50.25605006710371L164.96210799374376,-43.52301605197445A170.6070045455344,170.6070045455344,0,0,0,163.11099485882258,-50.015531149485525Z" fill-rule="evenodd" style="fill: #414552; stroke: #fff; opacity: 1;" id="p-type-ether"></path><path d="M190.48183491255213,-50.25605006710371A197,197,0,0,1,191.82529107950145,-44.85596618360305L166.12557516319274,-38.846406226295954A170.6070045455344,170.6070045455344,0,0,0,164.96210799374376,-43.52301605197445Z" fill-rule="evenodd" style="fill: #414552; stroke: #fff; opacity: 1;" id="p-type-ether"></path><path d="M191.82529107950145,-44.85596618360305A197,197,0,0,1,192.73751034000628,-40.758460568769884L166.91558021661135,-35.29786227170106A170.6070045455344,170.6070045455344,0,0,0,166.12557516319274,-38.846406226295954Z" fill-rule="evenodd" style="fill: #414552; stroke: #fff; opacity: 1;" id="p-type-ether"></path><path d="M192.73751034000628,-40.758460568769884A197,197,0,0,1,193.34875546261406,-37.75259939472076L167.44493402072902,-32.6947101347252A170.6070045455344,170.6070045455344,0,0,0,166.91558021661135,-35.29786227170106Z" fill-rule="evenodd" style="fill: #414552; stroke: #fff; opacity: 1;" id="p-type-ether"></path><path d="M193.34875546261406,-37.75259939472076A197,197,0,0,1,193.8149684196077,-35.28112833380574L167.848686285059,-30.55435341125471A170.6070045455344,170.6070045455344,0,0,0,167.44493402072902,-32.6947101347252Z" fill-rule="evenodd" style="fill: #414552; stroke: #fff; opacity: 1;" id="p-type-ether"></path><path d="M193.8149684196077,-35.28112833380574A197,197,0,0,1,194.20651239311266,-33.057987599123166L168.18777331281296,-28.629057058831602A170.6070045455344,170.6070045455344,0,0,0,167.848686285059,-30.55435341125471Z" fill-rule="evenodd" style="fill: #414552; stroke: #fff; opacity: 1;" id="p-type-ether"></path><path d="M194.20651239311266,-33.057987599123166A197,197,0,0,1,194.4817654308898,-31.39813553197645L168.42614943599682,-27.191583002158435A170.6070045455344,170.6070045455344,0,0,0,168.18777331281296,-28.629057058831602Z" fill-rule="evenodd" style="fill: #414552; stroke: #fff; opacity: 1;" id="p-type-ether"></path><path d="M194.4817654308898,-31.39813553197645A197,197,0,0,1,194.7428322437703,-29.735993167788237L168.65223992803635,-25.75212549006512A170.6070045455344,170.6070045455344,0,0,0,168.42614943599682,-27.191583002158435Z" fill-rule="evenodd" style="fill: #414552; stroke: #fff; opacity: 1;" id="p-type-ether"></path><path d="M194.7428322437703,-29.735993167788237A197,197,0,0,1,194.98455982133999,-28.10731988785649L168.86158215100698,-24.3416530551793A170.6070045455344,170.6070045455344,0,0,0,168.65223992803635,-25.75212549006512Z" fill-rule="evenodd" style="fill: #414552; stroke: #fff; opacity: 1;" id="p-type-ether"></path><path d="M194.98455982133999,-28.10731988785649A197,197,0,0,1,195.2016599695306,-26.55770971186626L169.04959639450544,-22.999651276808883A170.6070045455344,170.6070045455344,0,0,0,168.86158215100698,-24.3416530551793Z" fill-rule="evenodd" style="fill: #414552; stroke: #fff; opacity: 1;" id="p-type-ether"></path><path d="M195.2016599695306,-26.55770971186626A197,197,0,0,1,195.40002970551114,-25.05650396773994L169.2213896252066,-21.69956896608837A170.6070045455344,170.6070045455344,0,0,0,169.04959639450544,-22.999651276808883Z" fill-rule="evenodd" style="fill: #414552; stroke: #fff; opacity: 1;" id="p-type-ether"></path><path d="M195.40002970551114,-25.05650396773994A197,197,0,0,1,195.57184950805112,-23.678084381981005L169.3701899390794,-20.505822587747108A170.6070045455344,170.6070045455344,0,0,0,169.2213896252066,-21.69956896608837Z" fill-rule="evenodd" style="fill: #414552; stroke: #fff; opacity: 1;" id="p-type-ether"></path><path d="M195.57184950805112,-23.678084381981005A197,197,0,0,1,195.72618508415263,-22.366503356671974L169.50384846869107,-19.36996010070785A170.6070045455344,170.6070045455344,0,0,0,169.3701899390794,-20.505822587747108Z" fill-rule="evenodd" style="fill: #414552; stroke: #fff; opacity: 1;" id="p-type-ether"></path><path d="M193.5491553378025,36.711367013817416A197,197,0,0,1,143.56438650050384,134.90095228994474L124.33040578816406,116.82765167780468A170.6070045455344,170.6070045455344,0,0,0,167.61848540355743,31.79297644161995Z" fill-rule="evenodd" style="fill: #DB3F29; stroke: #fff; opacity: 1;" id="p-type-functions"></path><path d="M143.56438650050384,134.90095228994474A197,197,0,0,1,140.6573877015312,137.92932713886898L121.81287097948288,119.45030122915495A170.6070045455344,170.6070045455344,0,0,0,124.33040578816406,116.82765167780468Z" fill-rule="evenodd" style="fill: #DB3F29; stroke: #fff; opacity: 1;" id="p-type-functions"></path><path d="M140.6573877015312,137.92932713886898A197,197,0,0,1,138.49277949781208,140.10264104209597L119.93826528582193,121.33244627974743A170.6070045455344,170.6070045455344,0,0,0,121.81287097948288,119.45030122915495Z" fill-rule="evenodd" style="fill: #DB3F29; stroke: #fff; opacity: 1;" id="p-type-functions"></path><path d="M138.49277949781208,140.10264104209597A197,197,0,0,1,136.87832437560778,141.6803596696659L118.5401061367231,122.69879069124691A170.6070045455344,170.6070045455344,0,0,0,119.93826528582193,121.33244627974743Z" fill-rule="evenodd" style="fill: #DB3F29; stroke: #fff; opacity: 1;" id="p-type-functions"></path><path d="M136.87832437560778,141.6803596696659A197,197,0,0,1,135.68939795708795,142.8194219356843L117.51046565505446,123.6852475501111A170.6070045455344,170.6070045455344,0,0,0,118.5401061367231,122.69879069124691Z" fill-rule="evenodd" style="fill: #DB3F29; stroke: #fff; opacity: 1;" id="p-type-functions"></path><path d="M135.68939795708795,142.8194219356843A197,197,0,0,1,134.58760532039943,143.85818188104696L116.5562852419796,124.5848400512289A170.6070045455344,170.6070045455344,0,0,0,117.51046565505446,123.6852475501111Z" fill-rule="evenodd" style="fill: #DB3F29; stroke: #fff; opacity: 1;" id="p-type-functions"></path><path d="M134.58760532039943,143.85818188104696A197,197,0,0,1,133.620203496098,144.75718019380372L115.71849068646712,125.36339542803562A170.6070045455344,170.6070045455344,0,0,0,116.5562852419796,124.5848400512289Z" fill-rule="evenodd" style="fill: #DB3F29; stroke: #fff; opacity: 1;" id="p-type-functions"></path></g></svg>