<svg xmlns="http://www.w3.org/2000/svg" width="400" height="400" id="block-7907892"><g id="burst-container" transform="translate(200,200)"><circle r="197" style="fill: #f9f9f9; stroke: #f9f9f9; stroke-width: 3; opacity: 1;" id="circle-base"></circle><path display="none" d="M6.031385485800715e-15,-98.5A98.5,98.5,0,1,1,-6.031385485800715e-15,98.5A98.5,98.5,0,1,1,6.031385485800715e-15,-98.5Z" fill-rule="evenodd" id="p-type-root" style="stroke: #fff; opacity: 1;"></path><path d="M8.529667153919608e-15,-139.30003589374985A139.30003589374985,139.30003589374985,0,1,1,-95.35493149013769,-101.54770819920627L-67.42611867625503,-71.80507308161154A98.5,98.5,0,1,0,6.031385485800715e-15,-98.5Z" fill-rule="evenodd" style="fill: #0B1F65; stroke: #fff; opacity: 1;" id="p-type-data"></path><path d="M-95.35493149013769,-101.54770819920627A139.30003589374985,139.30003589374985,0,0,1,-1.9270269070211843,-139.28670635527143L-1.362613793483618,-98.49057459295183A98.5,98.5,0,0,0,-67.42611867625503,-71.80507308161154Z" fill-rule="evenodd" style="fill: #D7A449; stroke: #fff; opacity: 1;" id="p-type-value"></path><path d="M1.0446666101440332e-14,-170.6070045455344A170.6070045455344,170.6070045455344,0,0,1,165.87733461263167,39.89310544203132L135.4382765646181,32.57258419600783A139.30003589374985,139.30003589374985,0,0,0,8.529667153919608e-15,-139.30003589374985Z" fill-rule="evenodd" style="fill: #DB3F29; stroke: #fff; opacity: 1;" id="p-type-functions"></path><path d="M165.87733461263167,39.89310544203132A170.6070045455344,170.6070045455344,0,0,1,47.56626017255082,163.84199978392965L38.83768879840641,133.77643263593978A139.30003589374985,139.30003589374985,0,0,0,135.4382765646181,32.57258419600783Z" fill-rule="evenodd" style="fill: #414552; stroke: #fff; opacity: 1;" id="p-type-ether"></path><path d="M47.56626017255082,163.84199978392965A170.6070045455344,170.6070045455344,0,0,1,-115.18576887477904,125.85304385959834L-94.04878645778837,102.75858001070918A139.30003589374985,139.30003589374985,0,0,0,38.83768879840641,133.77643263593978Z" fill-rule="evenodd" style="fill: #1DC690; stroke: #fff; opacity: 1;" id="p-type-logs"></path><path d="M-115.18576887477904,125.85304385959834A170.6070045455344,170.6070045455344,0,0,1,-170.60363042622498,1.0729796792300628L-139.29728093687007,0.8760842394962745A139.30003589374985,139.30003589374985,0,0,0,-94.04878645778837,102.75858001070918Z" fill-rule="evenodd" style="fill: #D7A449; stroke: #fff; opacity: 1;" id="p-type-tokenTransfers"></path><path d="M-116.78546330444247,-124.37003481854751A170.6070045455344,170.6070045455344,0,0,1,-56.72391510654301,-160.90104864476706L-46.314882741326954,-131.37515608613802A139.30003589374985,139.30003589374985,0,0,0,-95.35493149013769,-101.54770819920627Z" fill-rule="evenodd" style="fill: #D7A449; stroke: #fff; opacity: 1;" id="p-type-tokenTransfers"></path><path d="M-56.72391510654301,-160.90104864476706A170.6070045455344,170.6070045455344,0,0,1,-4.71978096653108,-170.54170653429023L-3.8536850219003846,-139.2467202908276A139.30003589374985,139.30003589374985,0,0,0,-46.314882741326954,-131.37515608613802Z" fill-rule="evenodd" style="fill: #414552; stroke: #fff; opacity: 1;" id="p-type-ether"></path><path d="M1.206277097160143e-14,-197A197,197,0,0,1,109.26537972912409,-163.92094677816596L94.62659459957472,-141.95970412228866A170.6070045455344,170.6070045455344,0,0,0,1.0446666101440332e-14,-170.6070045455344Z" fill-rule="evenodd" style="fill: #DB3F29; stroke: #fff; opacity: 1;" id="p-type-functions"></path><path d="M109.26537972912409,-163.92094677816596A197,197,0,0,1,111.52254797725205,-162.39372307038693L96.58135964306912,-140.63708959409013A170.6070045455344,170.6070045455344,0,0,0,94.62659459957472,-141.95970412228866Z" fill-rule="evenodd" style="fill: #DB3F29; stroke: #fff; opacity: 1;" id="p-type-functions"></path><path d="M111.52254797725205,-162.39372307038693A197,197,0,0,1,112.87049802427694,-161.4597493982686L97.74871862682512,-139.82824466756983A170.6070045455344,170.6070045455344,0,0,0,96.58135964306912,-140.63708959409013Z" fill-rule="evenodd" style="fill: #DB3F29; stroke: #fff; opacity: 1;" id="p-type-functions"></path><path d="M112.87049802427694,-161.4597493982686A197,197,0,0,1,113.9846128128393,-160.67516311461182L98.71357033645205,-139.14877301446222A170.6070045455344,170.6070045455344,0,0,0,97.74871862682512,-139.82824466756983Z" fill-rule="evenodd" style="fill: #DB3F29; stroke: #fff; opacity: 1;" id="p-type-functions"></path><path d="M113.9846128128393,-160.67516311461182A197,197,0,0,1,115.0932739759001,-159.8828892830887L99.67369906785191,-138.46264374960958A170.6070045455344,170.6070045455344,0,0,0,98.71357033645205,-139.14877301446222Z" fill-rule="evenodd" style="fill: #DB3F29; stroke: #fff; opacity: 1;" id="p-type-functions"></path><path d="M115.0932739759001,-159.8828892830887A197,197,0,0,1,116.19642846925768,-159.08296581026104L100.62905888339853,-137.76988970105737A170.6070045455344,170.6070045455344,0,0,0,99.67369906785191,-138.46264374960958Z" fill-rule="evenodd" style="fill: #DB3F29; stroke: #fff; opacity: 1;" id="p-type-functions"></path><path d="M116.19642846925768,-159.08296581026104A197,197,0,0,1,117.29402351217851,-158.27543096868988L101.57960407363582,-137.0705440138157A170.6070045455344,170.6070045455344,0,0,0,100.62905888339853,-137.76988970105737Z" fill-rule="evenodd" style="fill: #DB3F29; stroke: #fff; opacity: 1;" id="p-type-functions"></path><path d="M117.29402351217851,-158.27543096868988A197,197,0,0,1,118.38600658992246,-157.46032339510433L102.5252891594648,-136.3646401482735A170.6070045455344,170.6070045455344,0,0,0,101.57960407363582,-137.0705440138157Z" fill-rule="evenodd" style="fill: #DB3F29; stroke: #fff; opacity: 1;" id="p-type-functions"></path><path d="M118.38600658992246,-157.46032339510433A197,197,0,0,1,119.47232545625548,-156.6376820885529L103.4660688943195,-135.65221187859757A170.6070045455344,170.6070045455344,0,0,0,102.5252891594648,-136.3646401482735Z" fill-rule="evenodd" style="fill: #DB3F29; stroke: #fff; opacity: 1;" id="p-type-functions"></path><path d="M119.47232545625548,-156.6376820885529A197,197,0,0,1,120.55292813594929,-155.80754640853775L104.4018982663319,-134.93329329111657A170.6070045455344,170.6070045455344,0,0,0,103.4660688943195,-135.65221187859757Z" fill-rule="evenodd" style="fill: #DB3F29; stroke: #fff; opacity: 1;" id="p-type-functions"></path><path d="M120.55292813594929,-155.80754640853775A197,197,0,0,1,121.62776292726814,-154.96995607313136L105.33273250048536,-134.20791878269029A170.6070045455344,170.6070045455344,0,0,0,104.4018982663319,-134.93329329111657Z" fill-rule="evenodd" style="fill: #DB3F29; stroke: #fff; opacity: 1;" id="p-type-functions"></path><path d="M121.62776292726814,-154.96995607313136A197,197,0,0,1,122.69677840444253,-154.12495115707623L106.25852706075713,-133.4761230590638A170.6070045455344,170.6070045455344,0,0,0,105.33273250048536,-134.20791878269029Z" fill-rule="evenodd" style="fill: #DB3F29; stroke: #fff; opacity: 1;" id="p-type-functions"></path><path d="M122.69677840444253,-154.12495115707623A197,197,0,0,1,123.75992342012958,-153.27257208986762L107.17923765224893,-132.73794113320707A170.6070045455344,170.6070045455344,0,0,0,106.25852706075713,-133.4761230590638Z" fill-rule="evenodd" style="fill: #DB3F29; stroke: #fff; opacity: 1;" id="p-type-functions"></path><path d="M123.75992342012958,-153.27257208986762A197,197,0,0,1,124.81714710786038,-152.41285965381905L108.09482022330646,-131.9934083236396A170.6070045455344,170.6070045455344,0,0,0,107.17923765224893,-132.73794113320707Z" fill-rule="evenodd" style="fill: #DB3F29; stroke: #fff; opacity: 1;" id="p-type-functions"></path><path d="M124.81714710786038,-152.41285965381905A197,197,0,0,1,125.86839888447356,-151.54585498211114L109.005230967627,-131.2425602527408A170.6070045455344,170.6070045455344,0,0,0,108.09482022330646,-131.9934083236396Z" fill-rule="evenodd" style="fill: #DB3F29; stroke: #fff; opacity: 1;" id="p-type-functions"></path><path d="M125.86839888447356,-151.54585498211114A197,197,0,0,1,126.91362845253545,-150.67159955682354L109.91042632635524,-130.48543284504535A170.6070045455344,170.6070045455344,0,0,0,109.005230967627,-131.2425602527408Z" fill-rule="evenodd" style="fill: #DB3F29; stroke: #fff; opacity: 1;" id="p-type-functions"></path><path d="M126.91362845253545,-150.67159955682354A197,197,0,0,1,127.95278580274672,-149.7901352069502L110.8103629901675,-129.7220623255247A170.6070045455344,170.6070045455344,0,0,0,109.91042632635524,-130.48543284504535Z" fill-rule="evenodd" style="fill: #DB3F29; stroke: #fff; opacity: 1;" id="p-type-functions"></path><path d="M127.95278580274672,-149.7901352069502A197,197,0,0,1,128.98582121633487,-148.90150410639814L111.70499790134382,-128.95248521785368A170.6070045455344,170.6070045455344,0,0,0,110.8103629901675,-129.7220623255247Z" fill-rule="evenodd" style="fill: #DB3F29; stroke: #fff; opacity: 1;" id="p-type-functions"></path><path d="M128.98582121633487,-148.90150410639814A197,197,0,0,1,130.01268526743328,-148.00574877196945L112.59428825582806,-128.17673834266301A170.6070045455344,170.6070045455344,0,0,0,111.70499790134382,-128.95248521785368Z" fill-rule="evenodd" style="fill: #DB3F29; stroke: #fff; opacity: 1;" id="p-type-functions"></path><path d="M130.01268526743328,-148.00574877196945A197,197,0,0,1,131.03332882544584,-147.1029120613273L113.47819150527584,-127.39485881577772A170.6070045455344,170.6070045455344,0,0,0,112.59428825582806,-128.17673834266301Z" fill-rule="evenodd" style="fill: #DB3F29; stroke: #fff; opacity: 1;" id="p-type-functions"></path><path d="M131.03332882544584,-147.1029120613273A197,197,0,0,1,132.04770305739763,-146.19303717094513L114.35666535909041,-126.60688404644121A170.6070045455344,170.6070045455344,0,0,0,113.47819150527584,-127.39485881577772Z" fill-rule="evenodd" style="fill: #DB3F29; stroke: #fff; opacity: 1;" id="p-type-functions"></path><path d="M132.04770305739763,-146.19303717094513A197,197,0,0,1,133.0557594302714,-145.2761676340402L115.2296677864459,-125.81285173552546A170.6070045455344,170.6070045455344,0,0,0,114.35666535909041,-126.60688404644121Z" fill-rule="evenodd" style="fill: #DB3F29; stroke: #fff; opacity: 1;" id="p-type-functions"></path><path d="M133.0557594302714,-145.2761676340402A197,197,0,0,1,134.0574497133296,-144.35234731849047L116.09715701829835,-125.01279987372723A170.6070045455344,170.6070045455344,0,0,0,115.2296677864459,-125.81285173552546Z" fill-rule="evenodd" style="fill: #DB3F29; stroke: #fff; opacity: 1;" id="p-type-functions"></path><path d="M134.0574497133296,-144.35234731849047A197,197,0,0,1,135.05272598042214,-143.4216204247359L116.95909154938421,-124.20676673975039A170.6070045455344,170.6070045455344,0,0,0,116.09715701829835,-125.01279987372723Z" fill-rule="evenodd" style="fill: #DB3F29; stroke: #fff; opacity: 1;" id="p-type-functions"></path><path d="M135.05272598042214,-143.4216204247359A197,197,0,0,1,136.0415406122791,-142.4840314836635L117.81543014020612,-123.39479089847435A170.6070045455344,170.6070045455344,0,0,0,116.95909154938421,-124.20676673975039Z" fill-rule="evenodd" style="fill: #DB3F29; stroke: #fff; opacity: 1;" id="p-type-functions"></path><path d="M136.0415406122791,-142.4840314836635A197,197,0,0,1,137.0238462987895,-141.539625354477L118.66613181900603,-122.57691119910912A170.6070045455344,170.6070045455344,0,0,0,117.81543014020612,-123.39479089847435Z" fill-rule="evenodd" style="fill: #DB3F29; stroke: #fff; opacity: 1;" id="p-type-functions"></path><path d="M137.0238462987895,-141.539625354477A197,197,0,0,1,137.9995960412645,-140.5884472225503L119.51115588372552,-121.75316677333635A170.6070045455344,170.6070045455344,0,0,0,118.66613181900603,-122.57691119910912Z" fill-rule="evenodd" style="fill: #DB3F29; stroke: #fff; opacity: 1;" id="p-type-functions"></path><path d="M137.9995960412645,-140.5884472225503A197,197,0,0,1,138.9687431546864,-139.63054259726562L120.35046190395322,-120.92359703343722A170.6070045455344,170.6070045455344,0,0,0,119.51115588372552,-121.75316677333635Z" fill-rule="evenodd" style="fill: #DB3F29; stroke: #fff; opacity: 1;" id="p-type-functions"></path><path d="M138.9687431546864,-139.63054259726562A197,197,0,0,1,139.93124126994186,-138.66595730983622L121.18400972285912,-120.08824167040663A170.6070045455344,170.6070045455344,0,0,0,120.35046190395322,-120.92359703343722Z" fill-rule="evenodd" style="fill: #DB3F29; stroke: #fff; opacity: 1;" id="p-type-functions"></path><path d="M139.93124126994186,-138.66595730983622A197,197,0,0,1,140.887044336041,-137.69473751111337L122.011759459116,-119.24714065205426A170.6070045455344,170.6070045455344,0,0,0,121.18400972285912,-120.08824167040663Z" fill-rule="evenodd" style="fill: #DB3F29; stroke: #fff; opacity: 1;" id="p-type-functions"></path><path d="M140.887044336041,-137.69473751111337A197,197,0,0,1,141.83610662232022,-136.71692966937857L122.83367150880757,-118.40033422109228A170.6070045455344,170.6070045455344,0,0,0,122.011759459116,-119.24714065205426Z" fill-rule="evenodd" style="fill: #DB3F29; stroke: #fff; opacity: 1;" id="p-type-functions"></path><path d="M141.83610662232022,-136.71692966937857A197,197,0,0,1,142.77838272063053,-135.73258056811986L123.64970654732316,-117.54786289320985A170.6070045455344,170.6070045455344,0,0,0,122.83367150880757,-118.40033422109228Z" fill-rule="evenodd" style="fill: #DB3F29; stroke: #fff; opacity: 1;" id="p-type-functions"></path><path d="M142.77838272063053,-135.73258056811986A197,197,0,0,1,143.71382754750988,-134.74173730379383L124.45982553123943,-116.6897674551348A170.6070045455344,170.6070045455344,0,0,0,123.64970654732316,-117.54786289320985Z" fill-rule="evenodd" style="fill: #DB3F29; stroke: #fff; opacity: 1;" id="p-type-functions"></path><path d="M143.71382754750988,-134.74173730379383A197,197,0,0,1,144.64239634634043,-133.744447283572L125.26398970018829,-115.826088962682A170.6070045455344,170.6070045455344,0,0,0,124.45982553123943,-116.6897674551348Z" fill-rule="evenodd" style="fill: #DB3F29; stroke: #fff; opacity: 1;" id="p-type-functions"></path><path d="M144.64239634634043,-133.744447283572A197,197,0,0,1,145.5640446894897,-132.7407582230727L126.06216057871139,-114.95686873878908A170.6070045455344,170.6070045455344,0,0,0,125.26398970018829,-115.826088962682Z" fill-rule="evenodd" style="fill: #DB3F29; stroke: #fff; opacity: 1;" id="p-type-functions"></path><path d="M145.5640446894897,-132.7407582230727A197,197,0,0,1,146.47872848043636,-131.73071814407828L126.85429997810105,-114.08214837153946A170.6070045455344,170.6070045455344,0,0,0,126.06216057871139,-114.95686873878908Z" fill-rule="evenodd" style="fill: #DB3F29; stroke: #fff; opacity: 1;" id="p-type-functions"></path><path d="M146.47872848043636,-131.73071814407828A197,197,0,0,1,147.38640395588013,-130.71437537223719L127.64036999822746,-113.20196971217239A170.6070045455344,170.6070045455344,0,0,0,126.85429997810105,-114.08214837153946Z" fill-rule="evenodd" style="fill: #DB3F29; stroke: #fff; opacity: 1;" id="p-type-functions"></path><path d="M147.38640395588013,-130.71437537223719A197,197,0,0,1,148.28702768783535,-129.69177853475196L128.42033302935184,-112.31637487308056A170.6070045455344,170.6070045455344,0,0,0,127.64036999822746,-113.20196971217239Z" fill-rule="evenodd" style="fill: #DB3F29; stroke: #fff; opacity: 1;" id="p-type-functions"></path><path d="M148.28702768783535,-129.69177853475196A197,197,0,0,1,149.18055658570913,-128.6629765580528L129.19415175392604,-111.42540622579543A170.6070045455344,170.6070045455344,0,0,0,128.42033302935184,-112.31637487308056Z" fill-rule="evenodd" style="fill: #DB3F29; stroke: #fff; opacity: 1;" id="p-type-functions"></path><path d="M149.18055658570913,-128.6629765580528A197,197,0,0,1,150.0669478983628,-127.6280186654563L129.96178914837796,-110.52910639895966A170.6070045455344,170.6070045455344,0,0,0,129.19415175392604,-111.42540622579543Z" fill-rule="evenodd" style="fill: #DB3F29; stroke: #fff; opacity: 1;" id="p-type-functions"></path><path d="M150.0669478983628,-127.6280186654563A197,197,0,0,1,150.94615921615753,-126.58695437481076L130.723208484883,-109.6275182762878A170.6070045455344,170.6070045455344,0,0,0,129.96178914837796,-110.52910639895966Z" fill-rule="evenodd" style="fill: #DB3F29; stroke: #fff; opacity: 1;" id="p-type-functions"></path><path d="M150.94615921615753,-126.58695437481076A197,197,0,0,1,151.81814847298327,-125.53983349612666L131.4783733331212,-108.72068499451429A170.6070045455344,170.6070045455344,0,0,0,130.723208484883,-109.6275182762878Z" fill-rule="evenodd" style="fill: #DB3F29; stroke: #fff; opacity: 1;" id="p-type-functions"></path><path d="M151.81814847298327,-125.53983349612666A197,197,0,0,1,152.68287394827155,-124.48670612919369L132.2272475620204,-107.8086499413297A170.6070045455344,170.6070045455344,0,0,0,131.4783733331212,-108.72068499451429Z" fill-rule="evenodd" style="fill: #DB3F29; stroke: #fff; opacity: 1;" id="p-type-functions"></path><path d="M152.68287394827155,-124.48670612919369A197,197,0,0,1,153.54029426899143,-123.42762266118358L132.96979534148483,-106.89145675330484A170.6070045455344,170.6070045455344,0,0,0,132.2272475620204,-107.8086499413297Z" fill-rule="evenodd" style="fill: #DB3F29; stroke: #fff; opacity: 1;" id="p-type-functions"></path><path d="M153.54029426899143,-123.42762266118358A197,197,0,0,1,154.39036841162923,-122.36263376423946L133.70598114410944,-105.96914931380287A170.6070045455344,170.6070045455344,0,0,0,132.96979534148483,-106.89145675330484Z" fill-rule="evenodd" style="fill: #DB3F29; stroke: #fff; opacity: 1;" id="p-type-functions"></path><path d="M154.39036841162923,-122.36263376423946A197,197,0,0,1,155.2330557041512,-121.29179039305129L134.4357697468798,-105.04177175087973A170.6070045455344,170.6070045455344,0,0,0,133.70598114410944,-105.96914931380287Z" fill-rule="evenodd" style="fill: #DB3F29; stroke: #fff; opacity: 1;" id="p-type-functions"></path><path d="M155.2330557041512,-121.29179039305129A197,197,0,0,1,156.06831582794945,-120.21514378241797L135.15912623285723,-104.10936843517287A170.6070045455344,170.6070045455344,0,0,0,134.4357697468798,-105.04177175087973Z" fill-rule="evenodd" style="fill: #DB3F29; stroke: #fff; opacity: 1;" id="p-type-functions"></path><path d="M156.06831582794945,-120.21514378241797A197,197,0,0,1,156.89610881977103,-119.132745444796L135.87601599284943,-103.1719839777782A170.6070045455344,170.6070045455344,0,0,0,135.15912623285723,-104.10936843517287Z" fill-rule="evenodd" style="fill: #DB3F29; stroke: #fff; opacity: 1;" id="p-type-functions"></path><path d="M156.89610881977103,-119.132745444796A197,197,0,0,1,157.71639507363003,-118.04464716783495L136.5864047270665,-102.22966322811585A170.6070045455344,170.6070045455344,0,0,0,135.87601599284943,-103.1719839777782Z" fill-rule="evenodd" style="fill: #DB3F29; stroke: #fff; opacity: 1;" id="p-type-functions"></path><path d="M157.71639507363003,-118.04464716783495A197,197,0,0,1,158.52913534270255,-116.95090101189945L137.29025844676187,-101.28245127178413A170.6070045455344,170.6070045455344,0,0,0,136.5864047270665,-102.22966322811585Z" fill-rule="evenodd" style="fill: #DB3F29; stroke: #fff; opacity: 1;" id="p-type-functions"></path><path d="M158.52913534270255,-116.95090101189945A197,197,0,0,1,159.33429074120426,-115.85155930757855L137.98754347585856,-100.33039342840256A170.6070045455344,170.6070045455344,0,0,0,137.29025844676187,-101.28245127178413Z" fill-rule="evenodd" style="fill: #DB3F29; stroke: #fff; opacity: 1;" id="p-type-functions"></path><path d="M159.33429074120426,-115.85155930757855A197,197,0,0,1,160.13182274625126,-114.74667465318183L138.6782264525604,-99.3735352494434A170.6070045455344,170.6070045455344,0,0,0,137.98754347585856,-100.33039342840256Z" fill-rule="evenodd" style="fill: #DB3F29; stroke: #fff; opacity: 1;" id="p-type-functions"></path><path d="M160.13182274625126,-114.74667465318183A197,197,0,0,1,160.921693199703,-113.63629991222288L139.36227433094834,-98.4119225160524A170.6070045455344,170.6070045455344,0,0,0,138.6782264525604,-99.3735352494434Z" fill-rule="evenodd" style="fill: #DB3F29; stroke: #fff; opacity: 1;" id="p-type-functions"></path><path d="M160.921693199703,-113.63629991222288A197,197,0,0,1,161.70386430998786,-112.52048821089L140.0396543825613,-97.44560123685817A170.6070045455344,170.6070045455344,0,0,0,139.36227433094834,-98.4119225160524Z" fill-rule="evenodd" style="fill: #DB3F29; stroke: #fff; opacity: 1;" id="p-type-functions"></path><path d="M161.70386430998786,-112.52048821089A197,197,0,0,1,162.4782986539116,-111.39929293550433L140.7103341979624,-96.4746176457711A170.6070045455344,170.6070045455344,0,0,0,140.0396543825613,-97.44560123685817Z" fill-rule="evenodd" style="fill: #DB3F29; stroke: #fff; opacity: 1;" id="p-type-functions"></path><path d="M162.4782986539116,-111.39929293550433A197,197,0,0,1,163.24495917844763,-110.27276772996572L141.3742816882893,-95.49901819977117A170.6070045455344,170.6070045455344,0,0,0,140.7103341979624,-96.4746176457711Z" fill-rule="evenodd" style="fill: #DB3F29; stroke: #fff; opacity: 1;" id="p-type-functions"></path><path d="M163.24495917844763,-110.27276772996572A197,197,0,0,1,164.0038092025099,-109.1409664931859L142.03146508678967,-94.5188495766852A170.6070045455344,170.6070045455344,0,0,0,141.3742816882893,-95.49901819977117Z" fill-rule="evenodd" style="fill: #DB3F29; stroke: #fff; opacity: 1;" id="p-type-functions"></path><path d="M164.0038092025099,-109.1409664931859A197,197,0,0,1,164.754812418708,-108.00394337650981L142.68185295034104,-93.53415867295355A170.6070045455344,170.6070045455344,0,0,0,142.03146508678967,-94.5188495766852Z" fill-rule="evenodd" style="fill: #DB3F29; stroke: #fff; opacity: 1;" id="p-type-functions"></path><path d="M164.754812418708,-108.00394337650981A197,197,0,0,1,165.49793289508415,-106.86175278112472L143.32541416095518,-92.5449926013864A170.6070045455344,170.6070045455344,0,0,0,142.68185295034104,-93.53415867295355Z" fill-rule="evenodd" style="fill: #DB3F29; stroke: #fff; opacity: 1;" id="p-type-functions"></path><path d="M165.49793289508415,-106.86175278112472A197,197,0,0,1,166.2331350768325,-105.71444935545736L143.962117927267,-91.55139868890954A170.6070045455344,170.6070045455344,0,0,0,143.32541416095518,-92.5449926013864Z" fill-rule="evenodd" style="fill: #DB3F29; stroke: #fff; opacity: 1;" id="p-type-functions"></path><path d="M166.2331350768325,-105.71444935545736A197,197,0,0,1,166.96038378800017,-104.56208799255917L144.5919337860077,-90.55342447430006A170.6070045455344,170.6070045455344,0,0,0,143.962117927267,-91.55139868890954Z" fill-rule="evenodd" style="fill: #DB3F29; stroke: #fff; opacity: 1;" id="p-type-functions"></path><path d="M166.96038378800017,-104.56208799255917A197,197,0,0,1,167.67964423317034,-103.40472382748007L145.21483160346236,-89.55111770591179A170.6070045455344,170.6070045455344,0,0,0,144.5919337860077,-90.55342447430006Z" fill-rule="evenodd" style="fill: #DB3F29; stroke: #fff; opacity: 1;" id="p-type-functions"></path><path d="M167.67964423317034,-103.40472382748007A197,197,0,0,1,168.39088199912695,-102.24241223463042L145.83078157691168,-88.54452633939083A170.6070045455344,170.6070045455344,0,0,0,145.21483160346236,-89.55111770591179Z" fill-rule="evenodd" style="fill: #DB3F29; stroke: #fff; opacity: 1;" id="p-type-functions"></path><path d="M168.39088199912695,-102.24241223463042A197,197,0,0,1,169.09406305650128,-101.07520882513165L146.43975423605784,-87.53369853538109A170.6070045455344,170.6070045455344,0,0,0,145.83078157691168,-88.54452633939083Z" fill-rule="evenodd" style="fill: #DB3F29; stroke: #fff; opacity: 1;" id="p-type-functions"></path><path d="M169.09406305650128,-101.07520882513165A197,197,0,0,1,169.78915376140006,-99.90316944415551L147.04172044443462,-86.51868265721997A170.6070045455344,170.6070045455344,0,0,0,146.43975423605784,-87.53369853538109Z" fill-rule="evenodd" style="fill: #DB3F29; stroke: #fff; opacity: 1;" id="p-type-functions"></path><path d="M169.78915376140006,-99.90316944415551A197,197,0,0,1,170.47612085701522,-98.72635016825215L147.63665140080136,-85.49952726862446A170.6070045455344,170.6070045455344,0,0,0,147.04172044443462,-86.51868265721997Z" fill-rule="evenodd" style="fill: #DB3F29; stroke: #fff; opacity: 1;" id="p-type-functions"></path><path d="M170.47612085701522,-98.72635016825215A197,197,0,0,1,171.15493147521497,-97.54480730266714L148.22451864052096,-84.47628113136756A170.6070045455344,170.6070045455344,0,0,0,147.63665140080136,-85.49952726862446Z" fill-rule="evenodd" style="fill: #DB3F29; stroke: #fff; opacity: 1;" id="p-type-functions"></path><path d="M171.15493147521497,-97.54480730266714A197,197,0,0,1,171.82555313811656,-96.35859737864747L148.8052940369219,-83.44899320294532A170.6070045455344,170.6070045455344,0,0,0,148.22451864052096,-84.47628113136756Z" fill-rule="evenodd" style="fill: #DB3F29; stroke: #fff; opacity: 1;" id="p-type-functions"></path><path d="M171.82555313811656,-96.35859737864747A197,197,0,0,1,172.48795375963994,-95.16777715073687L149.37894980264375,-82.41771263423438A170.6070045455344,170.6070045455344,0,0,0,148.8052940369219,-83.44899320294532Z" fill-rule="evenodd" style="fill: #DB3F29; stroke: #fff; opacity: 1;" id="p-type-functions"></path><path d="M172.48795375963994,-95.16777715073687A197,197,0,0,1,173.14210164704318,-93.97240359406034L149.9454584909669,-81.38248876714034A170.6070045455344,170.6070045455344,0,0,0,149.37894980264375,-82.41771263423438Z" fill-rule="evenodd" style="fill: #DB3F29; stroke: #fff; opacity: 1;" id="p-type-functions"></path><path d="M173.14210164704318,-93.97240359406034A197,197,0,0,1,173.78796550243868,-92.77253390159817L150.50479299712555,-80.34337113223707A170.6070045455344,170.6070045455344,0,0,0,149.9454584909669,-81.38248876714034Z" fill-rule="evenodd" style="fill: #DB3F29; stroke: #fff; opacity: 1;" id="p-type-functions"></path><path d="M173.78796550243868,-92.77253390159817A197,197,0,0,1,174.42551442429064,-91.56822548144949L151.05692655960473,-79.30040944639681A170.6070045455344,170.6070045455344,0,0,0,150.50479299712555,-80.34337113223707Z" fill-rule="evenodd" style="fill: #DB3F29; stroke: #fff; opacity: 1;" id="p-type-functions"></path><path d="M174.42551442429064,-91.56822548144949A197,197,0,0,1,175.0547179088936,-90.3595359540856L151.60183276142058,-78.25365361041149A170.6070045455344,170.6070045455344,0,0,0,151.05692655960473,-79.30040944639681Z" fill-rule="evenodd" style="fill: #DB3F29; stroke: #fff; opacity: 1;" id="p-type-functions"></path><path d="M175.0547179088936,-90.3595359540856A197,197,0,0,1,175.6755458518318,-89.14652314959312L152.13948553138428,-77.20315370660518A170.6070045455344,170.6070045455344,0,0,0,151.60183276142058,-78.25365361041149Z" fill-rule="evenodd" style="fill: #DB3F29; stroke: #fff; opacity: 1;" id="p-type-functions"></path><path d="M175.6755458518318,-89.14652314959312A197,197,0,0,1,176.28796854941967,-87.92924510490701L152.6698591453496,-76.14895999643797A170.6070045455344,170.6070045455344,0,0,0,152.13948553138428,-77.20315370660518Z" fill-rule="evenodd" style="fill: #DB3F29; stroke: #fff; opacity: 1;" id="p-type-functions"></path><path d="M176.28796854941967,-87.92924510490701A197,197,0,0,1,176.89195670012293,-86.70776006103392L153.1929282274434,-75.09112291810112A170.6070045455344,170.6070045455344,0,0,0,152.6698591453496,-76.14895999643797Z" fill-rule="evenodd" style="fill: #DB3F29; stroke: #fff; opacity: 1;" id="p-type-functions"></path><path d="M176.89195670012293,-86.70776006103392A197,197,0,0,1,177.48748140596052,-85.48212646026545L153.70866775128,-74.02969308410384A170.6070045455344,170.6070045455344,0,0,0,153.1929282274434,-75.09112291810112Z" fill-rule="evenodd" style="fill: #DB3F29; stroke: #fff; opacity: 1;" id="p-type-functions"></path><path d="M191.53864758212103,46.06459033153382A197,197,0,0,1,133.8270634600465,144.5659610200848L115.89763667027246,125.19779476590436A170.6070045455344,170.6070045455344,0,0,0,165.87733461263167,39.89310544203132Z" fill-rule="evenodd" style="fill: #414552; stroke: #fff; opacity: 1;" id="p-type-ether"></path><path d="M133.8270634600465,144.5659610200848A197,197,0,0,1,121.91370411592783,154.7451089654662L105.58036483385297,134.01319547548482A170.6070045455344,170.6070045455344,0,0,0,115.89763667027246,125.19779476590436Z" fill-rule="evenodd" style="fill: #414552; stroke: #fff; opacity: 1;" id="p-type-ether"></path><path d="M121.91370411592783,154.7451089654662A197,197,0,0,1,119.76134973789219,156.4168121045761L103.71637126452745,135.4609328615402A170.6070045455344,170.6070045455344,0,0,0,105.58036483385297,134.01319547548482Z" fill-rule="evenodd" style="fill: #414552; stroke: #fff; opacity: 1;" id="p-type-ether"></path><path d="M119.76134973789219,156.4168121045761A197,197,0,0,1,118.41072897537197,157.44173291577113L102.54669937330623,136.34854032090243A170.6070045455344,170.6070045455344,0,0,0,103.71637126452745,135.4609328615402Z" fill-rule="evenodd" style="fill: #414552; stroke: #fff; opacity: 1;" id="p-type-ether"></path><path d="M118.41072897537197,157.44173291577113A197,197,0,0,1,117.09603414646794,158.42196434575987L101.40814025325132,137.19744564086062A170.6070045455344,170.6070045455344,0,0,0,102.54669937330623,136.34854032090243Z" fill-rule="evenodd" style="fill: #414552; stroke: #fff; opacity: 1;" id="p-type-ether"></path><path d="M117.09603414646794,158.42196434575987A197,197,0,0,1,115.99726836650572,159.22824413874838L100.45658117499501,137.89570442414674A170.6070045455344,170.6070045455344,0,0,0,101.40814025325132,137.19744564086062Z" fill-rule="evenodd" style="fill: #414552; stroke: #fff; opacity: 1;" id="p-type-ether"></path><path d="M115.99726836650572,159.22824413874838A197,197,0,0,1,115.11438613450483,159.86768937116756L99.69198273353233,138.44948023975059A170.6070045455344,170.6070045455344,0,0,0,100.45658117499501,137.89570442414674Z" fill-rule="evenodd" style="fill: #414552; stroke: #fff; opacity: 1;" id="p-type-ether"></path><path d="M54.92478622993198,189.18844535963677A197,197,0,0,1,53.61485831253105,189.56383349185367L46.43182931895517,164.16709544270864A170.6070045455344,170.6070045455344,0,0,0,47.56626017255082,163.84199978392965Z" fill-rule="evenodd" style="fill: #1DC690; stroke: #fff; opacity: 1;" id="p-type-logs"></path><path d="M53.61485831253105,189.56383349185367A197,197,0,0,1,52.30236517732274,189.93015188973544L45.295176921572086,164.4843364811479A170.6070045455344,170.6070045455344,0,0,0,46.43182931895517,164.16709544270864Z" fill-rule="evenodd" style="fill: #1DC690; stroke: #fff; opacity: 1;" id="p-type-logs"></path><path d="M52.30236517732274,189.93015188973544A197,197,0,0,1,50.987369620906136,190.2873830266765L44.156357363851654,164.79370772076166A170.6070045455344,170.6070045455344,0,0,0,45.295176921572086,164.4843364811479Z" fill-rule="evenodd" style="fill: #1DC690; stroke: #fff; opacity: 1;" id="p-type-logs"></path><path d="M50.987369620906136,190.2873830266765A197,197,0,0,1,49.669934559609366,190.63550981085376L43.01542513293234,165.09519435959695A170.6070045455344,170.6070045455344,0,0,0,44.156357363851654,164.79370772076166Z" fill-rule="evenodd" style="fill: #1DC690; stroke: #fff; opacity: 1;" id="p-type-logs"></path><path d="M49.669934559609366,190.63550981085376A197,197,0,0,1,48.35012302647934,190.9745155860444L41.872434817034055,165.38878197294164A170.6070045455344,170.6070045455344,0,0,0,43.01542513293234,165.09519435959695Z" fill-rule="evenodd" style="fill: #1DC690; stroke: #fff; opacity: 1;" id="p-type-logs"></path><path d="M48.35012302647934,190.9745155860444A197,197,0,0,1,47.02799816826594,191.3043841324228L40.72744110284635,165.6744565140148A170.6070045455344,170.6070045455344,0,0,0,41.872434817034055,165.38878197294164Z" fill-rule="evenodd" style="fill: #1DC690; stroke: #fff; opacity: 1;" id="p-type-logs"></path><path d="M47.02799816826594,191.3043841324228A197,197,0,0,1,45.703623242400695,191.6250996673366L39.580498772911916,165.9522043146385A170.6070045455344,170.6070045455344,0,0,0,40.72744110284635,165.6744565140148Z" fill-rule="evenodd" style="fill: #1DC690; stroke: #fff; opacity: 1;" id="p-type-logs"></path><path d="M45.703623242400695,191.6250996673366A197,197,0,0,1,44.37706161397029,191.9366468460619L38.431662703005536,166.22201208589195A170.6070045455344,170.6070045455344,0,0,0,39.580498772911916,165.9522043146385Z" fill-rule="evenodd" style="fill: #1DC690; stroke: #fff; opacity: 1;" id="p-type-logs"></path><path d="M44.37706161397029,191.9366468460619A197,197,0,0,1,43.048376752684774,192.23901076253725L37.28098785950847,166.48386691874737A170.6070045455344,170.6070045455344,0,0,0,38.431662703005536,166.22201208589195Z" fill-rule="evenodd" style="fill: #1DC690; stroke: #fff; opacity: 1;" id="p-type-logs"></path><path d="M43.048376752684774,192.23901076253725A197,197,0,0,1,41.717632229840866,192.53217695007697L36.12852929677865,166.73775628468738A170.6070045455344,170.6070045455344,0,0,0,37.28098785950847,166.48386691874737Z" fill-rule="evenodd" style="fill: #1DC690; stroke: #fff; opacity: 1;" id="p-type-logs"></path><path d="M41.717632229840866,192.53217695007697A197,197,0,0,1,40.38489171528038,192.81613138206325L34.97434215451652,166.9836680363047A170.6070045455344,170.6070045455344,0,0,0,36.12852929677865,166.73775628468738Z" fill-rule="evenodd" style="fill: #1DC690; stroke: #fff; opacity: 1;" id="p-type-logs"></path><path d="M40.38489171528038,192.81613138206325A197,197,0,0,1,39.05021897434389,193.09086047261738L33.81848165512692,167.22159040788318A170.6070045455344,170.6070045455344,0,0,0,34.97434215451652,166.9836680363047Z" fill-rule="evenodd" style="fill: #1DC690; stroke: #fff; opacity: 1;" id="p-type-logs"></path><path d="M39.05021897434389,193.09086047261738A197,197,0,0,1,37.71367786481989,193.35635107724957L32.66100310107689,167.45151201596073A170.6070045455344,170.6070045455344,0,0,0,33.81848165512692,167.22159040788318Z" fill-rule="evenodd" style="fill: #1DC690; stroke: #fff; opacity: 1;" id="p-type-logs"></path><path d="M37.71367786481989,193.35635107724957A197,197,0,0,1,36.37533233388948,193.61259049348803L31.501961872249787,167.67342185987414A170.6070045455344,170.6070045455344,0,0,0,32.66100310107689,167.45151201596073Z" fill-rule="evenodd" style="fill: #1DC690; stroke: #fff; opacity: 1;" id="p-type-logs"></path><path d="M36.37533233388948,193.61259049348803A197,197,0,0,1,35.03524641506682,193.85956646148662L30.341413423295553,167.88730932228518A170.6070045455344,170.6070045455344,0,0,0,31.501961872249787,167.67342185987414Z" fill-rule="evenodd" style="fill: #1DC690; stroke: #fff; opacity: 1;" id="p-type-logs"></path><path d="M35.03524641506682,193.85956646148662A197,197,0,0,1,33.69348422513539,194.09726716461145L29.179413280977492,168.0931641696887A170.6070045455344,170.6070045455344,0,0,0,30.341413423295553,167.88730932228518Z" fill-rule="evenodd" style="fill: #1DC690; stroke: #fff; opacity: 1;" id="p-type-logs"></path><path d="M33.69348422513539,194.09726716461145A197,197,0,0,1,32.35010996108035,194.32568123000627L28.0160170415156,168.29097655290226A170.6070045455344,170.6070045455344,0,0,0,29.179413280977492,168.0931641696887Z" fill-rule="evenodd" style="fill: #1DC690; stroke: #fff; opacity: 1;" id="p-type-logs"></path><path d="M32.35010996108035,194.32568123000627A197,197,0,0,1,31.00518789701698,194.5447977291366L26.85128036792652,168.48073700753747A170.6070045455344,170.6070045455344,0,0,0,28.0160170415156,168.29097655290226Z" fill-rule="evenodd" style="fill: #1DC690; stroke: #fff; opacity: 1;" id="p-type-logs"></path><path d="M31.00518789701698,194.5447977291366A197,197,0,0,1,29.658782381115483,194.7546061783126L25.685258987360328,168.6624364544525A170.6070045455344,170.6070045455344,0,0,0,26.85128036792652,168.48073700753747Z" fill-rule="evenodd" style="fill: #1DC690; stroke: #fff; opacity: 1;" id="p-type-logs"></path><path d="M29.658782381115483,194.7546061783126A197,197,0,0,1,28.310957832522227,194.95509653919066L24.518008688434275,168.8360662001868A170.6070045455344,170.6070045455344,0,0,0,25.685258987360328,168.6624364544525Z" fill-rule="evenodd" style="fill: #1DC690; stroke: #fff; opacity: 1;" id="p-type-logs"></path><path d="M28.310957832522227,194.95509653919066A197,197,0,0,1,26.961778738277612,195.14625921925372L23.34958531856356,169.00161793737692A170.6070045455344,170.6070045455344,0,0,0,24.518008688434275,168.8360662001868Z" fill-rule="evenodd" style="fill: #1DC690; stroke: #fff; opacity: 1;" id="p-type-logs"></path><path d="M26.961778738277612,195.14625921925372A197,197,0,0,1,25.611309650230623,195.32808507227014L22.180044781289265,169.15908374515394A170.6070045455344,170.6070045455344,0,0,0,23.34958531856356,169.00161793737692Z" fill-rule="evenodd" style="fill: #1DC690; stroke: #fff; opacity: 1;" id="p-type-logs"></path><path d="M25.611309650230623,195.32808507227014A197,197,0,0,1,24.25961518195038,195.50056539873148L21.009443033603674,169.30845608952248A170.6070045455344,170.6070045455344,0,0,0,22.180044781289265,169.15908374515394Z" fill-rule="evenodd" style="fill: #1DC690; stroke: #fff; opacity: 1;" id="p-type-logs"></path><path d="M24.25961518195038,195.50056539873148A197,197,0,0,1,22.90676000563465,195.6636919462685L19.837836083272975,169.4497278237212A170.6070045455344,170.6070045455344,0,0,0,21.009443033603674,169.30845608952248Z" fill-rule="evenodd" style="fill: #1DC690; stroke: #fff; opacity: 1;" id="p-type-logs"></path><path d="M22.90676000563465,195.6636919462685A197,197,0,0,1,21.552808849015594,195.8174569100462L18.665279986157554,169.58289218856467A170.6070045455344,170.6070045455344,0,0,0,19.837836083272975,169.4497278237212Z" fill-rule="evenodd" style="fill: #1DC690; stroke: #fff; opacity: 1;" id="p-type-logs"></path><path d="M21.552808849015594,195.8174569100462A197,197,0,0,1,20.197826492262877,195.96185293313707L17.49183084352999,169.70794281276682A170.6070045455344,170.6070045455344,0,0,0,18.665279986157554,169.58289218856467Z" fill-rule="evenodd" style="fill: #1DC690; stroke: #fff; opacity: 1;" id="p-type-logs"></path><path d="M20.197826492262877,195.96185293313707A197,197,0,0,1,18.8418777648842,196.0968731068733L16.317544799390873,169.82487371324575A170.6070045455344,170.6070045455344,0,0,0,17.49183084352999,169.70794281276682Z" fill-rule="evenodd" style="fill: #1DC690; stroke: #fff; opacity: 1;" id="p-type-logs"></path><path d="M18.8418777648842,196.0968731068733A197,197,0,0,1,17.485027542623534,196.22251097117703L15.142478037782578,169.93367929541003A170.6070045455344,170.6070045455344,0,0,0,16.317544799390873,169.82487371324575Z" fill-rule="evenodd" style="fill: #1DC690; stroke: #fff; opacity: 1;" id="p-type-logs"></path><path d="M17.485027542623534,196.22251097117703A197,197,0,0,1,16.127340744357145,196.33876051486982L13.966686780101126,170.03435435342632A170.6070045455344,170.6070045455344,0,0,0,15.142478037782578,169.93367929541003Z" fill-rule="evenodd" style="fill: #1DC690; stroke: #fff; opacity: 1;" id="p-type-logs"></path><path d="M16.127340744357145,196.33876051486982A197,197,0,0,1,14.76888232898749,196.4456161759598L12.790227282406251,170.12689407046844A170.6070045455344,170.6070045455344,0,0,0,13.966686780101126,170.03435435342632Z" fill-rule="evenodd" style="fill: #1DC690; stroke: #fff; opacity: 1;" id="p-type-logs"></path><path d="M14.76888232898749,196.4456161759598A197,197,0,0,1,13.409717292335268,196.54307284190824L11.613155832729818,170.2112940189479A170.6070045455344,170.6070045455344,0,0,0,12.790227282406251,170.12689407046844Z" fill-rule="evenodd" style="fill: #1DC690; stroke: #fff; opacity: 1;" id="p-type-logs"></path><path d="M13.409717292335268,196.54307284190824A197,197,0,0,1,12.049910664029671,196.6311258498738L10.435528748382708,170.28755016072571A170.6070045455344,170.6070045455344,0,0,0,11.613155832729818,170.2112940189479Z" fill-rule="evenodd" style="fill: #1DC690; stroke: #fff; opacity: 1;" id="p-type-logs"></path><path d="M12.049910664029671,196.6311258498738A197,197,0,0,1,10.68952750439702,196.70977098693584L9.257402373260293,170.35565884730556A170.6070045455344,170.6070045455344,0,0,0,10.435528748382708,170.28755016072571Z" fill-rule="evenodd" style="fill: #1DC690; stroke: #fff; opacity: 1;" id="p-type-logs"></path><path d="M10.68952750439702,196.70977098693584A197,197,0,0,1,9.328632901347943,196.7790044902959L8.078833075146651,170.41561682000835A170.6070045455344,170.6070045455344,0,0,0,9.257402373260293,170.35565884730556Z" fill-rule="evenodd" style="fill: #1DC690; stroke: #fff; opacity: 1;" id="p-type-logs"></path><path d="M9.328632901347943,196.7790044902959A197,197,0,0,1,7.967291967263209,196.83882304745774L6.899877243017635,170.46742121012826A170.6070045455344,170.6070045455344,0,0,0,8.078833075146651,170.41561682000835Z" fill-rule="evenodd" style="fill: #1DC690; stroke: #fff; opacity: 1;" id="p-type-logs"></path><path d="M7.967291967263209,196.83882304745774A197,197,0,0,1,6.605569835878433,196.88922379638592L5.720591284342928,170.5110695390698A170.6070045455344,170.6070045455344,0,0,0,6.899877243017635,170.46742121012826Z" fill-rule="evenodd" style="fill: #1DC690; stroke: #fff; opacity: 1;" id="p-type-logs"></path><path d="M6.605569835878433,196.88922379638592A197,197,0,0,1,5.2435316591677115,196.9302043256425L4.541031622387205,170.54655971846654A170.6070045455344,170.6070045455344,0,0,0,5.720591284342928,170.5110695390698Z" fill-rule="evenodd" style="fill: #1DC690; stroke: #fff; opacity: 1;" id="p-type-logs"></path><path d="M5.2435316591677115,196.9302043256425A197,197,0,0,1,3.8812426042264216,196.96176267450275L3.361254693510553,170.573890050281A170.6070045455344,170.6070045455344,0,0,0,4.541031622387205,170.54655971846654Z" fill-rule="evenodd" style="fill: #1DC690; stroke: #fff; opacity: 1;" id="p-type-logs"></path><path d="M3.8812426042264216,196.96176267450275A197,197,0,0,1,2.518767850153277,196.98389733304862L2.181316944468254,170.59305922688583A170.6070045455344,170.6070045455344,0,0,0,3.361254693510553,170.573890050281Z" fill-rule="evenodd" style="fill: #1DC690; stroke: #fff; opacity: 1;" id="p-type-logs"></path><path d="M2.518767850153277,196.98389733304862A197,197,0,0,1,1.1561725849318203,196.99660724224125L1.0012748297100778,170.60406633112643A170.6070045455344,170.6070045455344,0,0,0,2.181316944468254,170.59305922688583Z" fill-rule="evenodd" style="fill: #1DC690; stroke: #fff; opacity: 1;" id="p-type-logs"></path><path d="M1.1561725849318203,196.99660724224125A197,197,0,0,1,-0.20647799768851874,196.99989179397147L-0.17881519132080184,170.60691083636485A170.6070045455344,170.6070045455344,0,0,0,1.0012748297100778,170.60406633112643Z" fill-rule="evenodd" style="fill: #1DC690; stroke: #fff; opacity: 1;" id="p-type-logs"></path><path d="M-0.20647799768851874,196.99989179397147A197,197,0,0,1,-1.5691187013116326,196.99375083108905L-1.3588966568891205,170.601592606505A170.6070045455344,170.6070045455344,0,0,0,-0.17881519132080184,170.60691083636485Z" fill-rule="evenodd" style="fill: #1DC690; stroke: #fff; opacity: 1;" id="p-type-logs"></path><path d="M-1.5691187013116326,196.99375083108905A197,197,0,0,1,-2.9316843300140767,196.97818464741002L-2.5389131056689522,170.58811189599896A170.6070045455344,170.6070045455344,0,0,0,-1.3588966568891205,170.601592606505Z" fill-rule="evenodd" style="fill: #1DC690; stroke: #fff; opacity: 1;" id="p-type-logs"></path><path d="M-2.9316843300140767,196.97818464741002A197,197,0,0,1,-4.2941096914643895,196.95319398770275L-3.7188080794451186,170.56646934983513A170.6070045455344,170.6070045455344,0,0,0,-2.5389131056689522,170.58811189599896Z" fill-rule="evenodd" style="fill: #1DC690; stroke: #fff; opacity: 1;" id="p-type-logs"></path><path d="M-4.2941096914643895,196.95319398770275A197,197,0,0,1,-5.656329600042231,196.91878004765235L-4.898525125814446,170.53666600350718A170.6070045455344,170.6070045455344,0,0,0,-3.7188080794451186,170.56646934983513Z" fill-rule="evenodd" style="fill: #1DC690; stroke: #fff; opacity: 1;" id="p-type-logs"></path><path d="M-5.656329600042231,196.91878004765235A197,197,0,0,1,-7.018278879957216,196.87494447380334L-6.078007800886746,170.49870328296447A170.6070045455344,170.6070045455344,0,0,0,-4.898525125814446,170.53666600350718Z" fill-rule="evenodd" style="fill: #1DC690; stroke: #fff; opacity: 1;" id="p-type-logs"></path><path d="M-7.018278879957216,196.87494447380334A197,197,0,0,1,-8.379892368367258,196.82168936348094L-7.257199671985391,170.45258300454392A170.6070045455344,170.6070045455344,0,0,0,-6.078007800886746,170.49870328296447Z" fill-rule="evenodd" style="fill: #1DC690; stroke: #fff; opacity: 1;" id="p-type-logs"></path><path d="M-8.379892368367258,196.82168936348094A197,197,0,0,1,-9.741104918496314,196.7590172646907L-8.436044320347351,170.39830737488307A170.6070045455344,170.6070045455344,0,0,0,-7.257199671985391,170.45258300454392Z" fill-rule="evenodd" style="fill: #1DC690; stroke: #fff; opacity: 1;" id="p-type-logs"></path><path d="M-9.741104918496314,196.7590172646907A197,197,0,0,1,-11.101851402751336,196.68693117599662L-9.614485343822563,170.33587899081456A170.6070045455344,170.6070045455344,0,0,0,-8.436044320347351,170.39830737488307Z" fill-rule="evenodd" style="fill: #1DC690; stroke: #fff; opacity: 1;" id="p-type-logs"></path><path d="M-11.101851402751336,196.68693117599662A197,197,0,0,1,-12.46206671583834,196.60543454637767L-10.792466359572511,170.26530083924175A170.6070045455344,170.6070045455344,0,0,0,-9.614485343822563,170.33587899081456Z" fill-rule="evenodd" style="fill: #1DC690; stroke: #fff; opacity: 1;" id="p-type-logs"></path><path d="M-12.46206671583834,196.60543454637767A197,197,0,0,1,-13.821685777877361,196.51453127506275L-11.969931006767874,170.18657629699592A170.6070045455344,170.6070045455344,0,0,0,-10.792466359572511,170.26530083924175Z" fill-rule="evenodd" style="fill: #1DC690; stroke: #fff; opacity: 1;" id="p-type-logs"></path><path d="M-13.821685777877361,196.51453127506275A197,197,0,0,1,-15.18064353751624,196.4142257113442L-13.14682294928513,170.09970913067474A170.6070045455344,170.6070045455344,0,0,0,-11.969931006767874,170.18657629699592Z" fill-rule="evenodd" style="fill: #1DC690; stroke: #fff; opacity: 1;" id="p-type-logs"></path><path d="M-15.18064353751624,196.4142257113442A197,197,0,0,1,-16.538874975043008,196.30452265436958L-14.323085878401969,170.0047034964619A170.6070045455344,170.6070045455344,0,0,0,-13.14682294928513,170.09970913067474Z" fill-rule="evenodd" style="fill: #1DC690; stroke: #fff; opacity: 1;" id="p-type-logs"></path><path d="M-16.538874975043008,196.30452265436958A197,197,0,0,1,-17.89631510549679,196.18542735291214L-15.498663515491407,169.90156393992837A170.6070045455344,170.6070045455344,0,0,0,-14.323085878401969,170.0047034964619Z" fill-rule="evenodd" style="fill: #1DC690; stroke: #fff; opacity: 1;" id="p-type-logs"></path><path d="M-17.89631510549679,196.18542735291214A197,197,0,0,1,-19.25289898177701,196.05694550511973L-16.673499614714444,169.79029539581498A170.6070045455344,170.6070045455344,0,0,0,-15.498663515491407,169.90156393992837Z" fill-rule="evenodd" style="fill: #1DC690; stroke: #fff; opacity: 1;" id="p-type-logs"></path><path d="M-19.25289898177701,196.05694550511973A197,197,0,0,1,-20.60856169775081,195.9190832582421L-17.847537965711165,169.67090318779617A170.6070045455344,170.6070045455344,0,0,0,-16.673499614714444,169.79029539581498Z" fill-rule="evenodd" style="fill: #1DC690; stroke: #fff; opacity: 1;" id="p-type-logs"></path><path d="M-20.60856169775081,195.9190832582421A197,197,0,0,1,-21.963238391358516,195.77184720833677L-19.020722396290143,169.54339302822527A170.6070045455344,170.6070045455344,0,0,0,-17.847537965711165,169.67090318779617Z" fill-rule="evenodd" style="fill: #1DC690; stroke: #fff; opacity: 1;" id="p-type-logs"></path><path d="M-21.963238391358516,195.77184720833677A197,197,0,0,1,-23.316864247716946,195.6152443999535L-20.192996775116008,169.40777101786136A170.6070045455344,170.6070045455344,0,0,0,-19.020722396290143,169.54339302822527Z" fill-rule="evenodd" style="fill: #1DC690; stroke: #fff; opacity: 1;" id="p-type-logs"></path><path d="M-23.316864247716946,195.6152443999535A197,197,0,0,1,-24.669374502220535,195.44928232579724L-21.364305014395075,169.2640436455773A170.6070045455344,170.6070045455344,0,0,0,-20.192996775116008,169.40777101786136Z" fill-rule="evenodd" style="fill: #1DC690; stroke: #fff; opacity: 1;" id="p-type-logs"></path><path d="M-24.669374502220535,195.44928232579724A197,197,0,0,1,-26.020704443639993,195.27396892636952L-22.53459107255886,169.1122177880491A170.6070045455344,170.6070045455344,0,0,0,-21.364305014395075,169.2640436455773Z" fill-rule="evenodd" style="fill: #1DC690; stroke: #fff; opacity: 1;" id="p-type-logs"></path><path d="M-26.020704443639993,195.27396892636952A197,197,0,0,1,-27.370789417218447,195.0893125895888L-23.703798956945445,168.9523007094272A170.6070045455344,170.6070045455344,0,0,0,-22.53459107255886,169.1122177880491Z" fill-rule="evenodd" style="fill: #1DC690; stroke: #fff; opacity: 1;" id="p-type-logs"></path><path d="M-27.370789417218447,195.0893125895888A197,197,0,0,1,-28.71956482776484,194.89532215038875L-24.871872726478408,168.78430006098867A170.6070045455344,170.6070045455344,0,0,0,-23.703798956945445,168.9523007094272Z" fill-rule="evenodd" style="fill: #1DC690; stroke: #fff; opacity: 1;" id="p-type-logs"></path><path d="M-28.71956482776484,194.89532215038875A197,197,0,0,1,-30.06696614274454,194.69200689029597L-26.038756494343385,168.60822388077128A170.6070045455344,170.6070045455344,0,0,0,-24.871872726478408,168.78430006098867Z" fill-rule="evenodd" style="fill: #1DC690; stroke: #fff; opacity: 1;" id="p-type-logs"></path><path d="M-30.06696614274454,194.69200689029597A197,197,0,0,1,-31.412928895366893,194.4793765369856L-27.20439443066197,168.42408059318882A170.6070045455344,170.6070045455344,0,0,0,-26.038756494343385,168.60822388077128Z" fill-rule="evenodd" style="fill: #1DC690; stroke: #fff; opacity: 1;" id="p-type-logs"></path><path d="M-31.412928895366893,194.4793765369856A197,197,0,0,1,-32.757388687669646,194.25744126381602L-28.368730765162905,168.23187900862814A170.6070045455344,170.6070045455344,0,0,0,-27.20439443066197,168.42408059318882Z" fill-rule="evenodd" style="fill: #1DC690; stroke: #fff; opacity: 1;" id="p-type-logs"></path><path d="M-32.757388687669646,194.25744126381602A197,197,0,0,1,-34.10028119360012,194.02621168934212L-29.531709789850442,168.03162832302746A170.6070045455344,170.6070045455344,0,0,0,-28.368730765162905,168.23187900862814Z" fill-rule="evenodd" style="fill: #1DC690; stroke: #fff; opacity: 1;" id="p-type-logs"></path><path d="M-34.10028119360012,194.02621168934212A197,197,0,0,1,-35.44154216209289,193.78569887680717L-30.693275861669697,167.82333811743658A170.6070045455344,170.6070045455344,0,0,0,-29.531709789850442,168.03162832302746Z" fill-rule="evenodd" style="fill: #1DC690; stroke: #fff; opacity: 1;" id="p-type-logs"></path><path d="M-35.44154216209289,193.78569887680717A197,197,0,0,1,-36.781107420143876,193.53591433361365L-31.85337340516891,167.60701835755827A170.6070045455344,170.6070045455344,0,0,0,-30.693275861669697,167.82333811743658Z" fill-rule="evenodd" style="fill: #1DC690; stroke: #fff; opacity: 1;" id="p-type-logs"></path><path d="M-36.781107420143876,193.53591433361365A197,197,0,0,1,-38.118912875880746,193.2768700107724L-33.01194691515846,167.38267939327162A170.6070045455344,170.6070045455344,0,0,0,-31.85337340516891,167.60701835755827Z" fill-rule="evenodd" style="fill: #1DC690; stroke: #fff; opacity: 1;" id="p-type-logs"></path><path d="M-38.118912875880746,193.2768700107724A197,197,0,0,1,-39.454894521629406,193.00857830233116L-34.168940959366545,167.1503319581368A170.6070045455344,170.6070045455344,0,0,0,-33.01194691515846,167.38267939327162Z" fill-rule="evenodd" style="fill: #1DC690; stroke: #fff; opacity: 1;" id="p-type-logs"></path><path d="M-39.454894521629406,193.00857830233116A197,197,0,0,1,-40.788988436976446,192.7310520447813L-35.324300181091324,166.90998716888137A170.6070045455344,170.6070045455344,0,0,0,-34.168940959366545,167.1503319581368Z" fill-rule="evenodd" style="fill: #1DC690; stroke: #fff; opacity: 1;" id="p-type-logs"></path><path d="M-40.788988436976446,192.7310520447813A197,197,0,0,1,-42.12113079182745,192.44430451644385L-36.47796930184951,166.66165652486873A170.6070045455344,170.6070045455344,0,0,0,-35.324300181091324,166.90998716888137Z" fill-rule="evenodd" style="fill: #1DC690; stroke: #fff; opacity: 1;" id="p-type-logs"></path><path d="M-42.12113079182745,192.44430451644385A197,197,0,0,1,-43.45125784946094,192.148349436834L-37.629893124021166,166.40535190754755A170.6070045455344,170.6070045455344,0,0,0,-36.47796930184951,166.66165652486873Z" fill-rule="evenodd" style="fill: #1DC690; stroke: #fff; opacity: 1;" id="p-type-logs"></path><path d="M-43.45125784946094,192.148349436834A197,197,0,0,1,-44.779305969577926,191.84320096600484L-38.780016533490645,166.14108557988357A170.6070045455344,170.6070045455344,0,0,0,-37.629893124021166,166.40535190754755Z" fill-rule="evenodd" style="fill: #1DC690; stroke: #fff; opacity: 1;" id="p-type-logs"></path><path d="M-133.0050693333354,145.32257750134576A197,197,0,0,1,-134.00708184547216,144.39910669827887L-116.05353716519933,125.0532946844892A170.6070045455344,170.6070045455344,0,0,0,-115.18576887477904,125.85304385959834Z" fill-rule="evenodd" style="fill: #D7A449; stroke: #fff; opacity: 1;" id="p-type-tokenTransfers"></path><path d="M-134.00708184547216,144.39910669827887A197,197,0,0,1,-135.00268275150785,143.4687270797916L-116.91575284185704,124.24756229971595A170.6070045455344,170.6070045455344,0,0,0,-116.05353716519933,125.0532946844892Z" fill-rule="evenodd" style="fill: #D7A449; stroke: #fff; opacity: 1;" id="p-type-tokenTransfers"></path><path d="M-135.00268275150785,143.4687270797916A197,197,0,0,1,-135.9918244166402,142.53148316015552L-117.77237465180332,123.4358852557686A170.6070045455344,170.6070045455344,0,0,0,-116.91575284185704,124.24756229971595Z" fill-rule="evenodd" style="fill: #D7A449; stroke: #fff; opacity: 1;" id="p-type-tokenTransfers"></path><path d="M-135.9918244166402,142.53148316015552A197,197,0,0,1,-136.97445951511122,141.58741978206666L-118.62336160972943,122.61830238756109A170.6070045455344,170.6070045455344,0,0,0,-117.77237465180332,123.4358852557686Z" fill-rule="evenodd" style="fill: #D7A449; stroke: #fff; opacity: 1;" id="p-type-tokenTransfers"></path><path d="M-136.97445951511122,141.58741978206666A197,197,0,0,1,-137.9505410324712,140.6365821144999L-119.46867299992763,121.79485281257315A170.6070045455344,170.6070045455344,0,0,0,-118.62336160972943,122.61830238756109Z" fill-rule="evenodd" style="fill: #D7A449; stroke: #fff; opacity: 1;" id="p-type-tokenTransfers"></path><path d="M-137.9505410324712,140.6365821144999A197,197,0,0,1,-138.92002226782859,139.6790156505479L-120.30826837823946,120.96557592897867A170.6070045455344,170.6070045455344,0,0,0,-119.46867299992763,121.79485281257315Z" fill-rule="evenodd" style="fill: #D7A449; stroke: #fff; opacity: 1;" id="p-type-tokenTransfers"></path><path d="M-138.92002226782859,139.6790156505479A197,197,0,0,1,-139.88285683608402,138.71476620524444L-121.14210757399047,120.13051141376081A170.6070045455344,170.6070045455344,0,0,0,-120.30826837823946,120.96557592897867Z" fill-rule="evenodd" style="fill: #D7A449; stroke: #fff; opacity: 1;" id="p-type-tokenTransfers"></path><path d="M-139.88285683608402,138.71476620524444A197,197,0,0,1,-140.83899867014975,137.7438799133724L-121.97015069191244,119.28969922081357A170.6070045455344,170.6070045455344,0,0,0,-121.14210757399047,120.13051141376081Z" fill-rule="evenodd" style="fill: #D7A449; stroke: #fff; opacity: 1;" id="p-type-tokenTransfers"></path><path d="M-140.83899867014975,137.7438799133724A197,197,0,0,1,-141.78840202315382,136.76640322725646L-122.7923581140521,118.44317957903013A170.6070045455344,170.6070045455344,0,0,0,-121.97015069191244,119.28969922081357Z" fill-rule="evenodd" style="fill: #D7A449; stroke: #fff; opacity: 1;" id="p-type-tokenTransfers"></path><path d="M-141.78840202315382,136.76640322725646A197,197,0,0,1,-142.7310214706288,135.7823829145405L-123.60869050166667,117.59099299037821A170.6070045455344,170.6070045455344,0,0,0,-122.7923581140521,118.44317957903013Z" fill-rule="evenodd" style="fill: #D7A449; stroke: #fff; opacity: 1;" id="p-type-tokenTransfers"></path><path d="M-142.7310214706288,135.7823829145405A197,197,0,0,1,-143.666811912685,134.7918660559501L-124.41910879710602,116.73318022796214A170.6070045455344,170.6070045455344,0,0,0,-123.60869050166667,117.59099299037821Z" fill-rule="evenodd" style="fill: #D7A449; stroke: #fff; opacity: 1;" id="p-type-tokenTransfers"></path><path d="M-143.666811912685,134.7918660559501A197,197,0,0,1,-144.5957285761685,133.79490004303977L-125.22357422568142,115.86978233407213A170.6070045455344,170.6070045455344,0,0,0,-124.41910879710602,116.73318022796214Z" fill-rule="evenodd" style="fill: #D7A449; stroke: #fff; opacity: 1;" id="p-type-tokenTransfers"></path><path d="M-144.5957285761685,133.79490004303977A197,197,0,0,1,-145.5177270168032,132.79153257592571L-126.0220482975207,115.00084061822051A170.6070045455344,170.6070045455344,0,0,0,-125.22357422568142,115.86978233407213Z" fill-rule="evenodd" style="fill: #D7A449; stroke: #fff; opacity: 1;" id="p-type-tokenTransfers"></path><path d="M-145.5177270168032,132.79153257592571A197,197,0,0,1,-146.43276312131724,131.7818116610035L-126.8144928094098,114.1263966551654A170.6070045455344,170.6070045455344,0,0,0,-126.0220482975207,115.00084061822051Z" fill-rule="evenodd" style="fill: #D7A449; stroke: #fff; opacity: 1;" id="p-type-tokenTransfers"></path><path d="M-146.43276312131724,131.7818116610035A197,197,0,0,1,-147.3407931095537,130.76578560865107L-127.60086984662067,113.24649228292137A170.6070045455344,170.6070045455344,0,0,0,-126.8144928094098,114.1263966551654Z" fill-rule="evenodd" style="fill: #D7A449; stroke: #fff; opacity: 1;" id="p-type-tokenTransfers"></path><path d="M-147.3407931095537,130.76578560865107A197,197,0,0,1,-148.2417735365653,129.74350303091748L-128.3811417847253,112.36116960075785A170.6070045455344,170.6070045455344,0,0,0,-127.60086984662067,113.24649228292137Z" fill-rule="evenodd" style="fill: #D7A449; stroke: #fff; opacity: 1;" id="p-type-tokenTransfers"></path><path d="M-148.2417735365653,129.74350303091748A197,197,0,0,1,-149.13566129469288,128.715012839197L-129.15527129139568,111.47047096718477A170.6070045455344,170.6070045455344,0,0,0,-128.3811417847253,112.36116960075785Z" fill-rule="evenodd" style="fill: #D7A449; stroke: #fff; opacity: 1;" id="p-type-tokenTransfers"></path><path d="M-149.13566129469288,128.715012839197A197,197,0,0,1,-150.02241361562807,127.68036424188885L-129.92322132819038,110.574438997926A170.6070045455344,170.6070045455344,0,0,0,-129.15527129139568,111.47047096718477Z" fill-rule="evenodd" style="fill: #D7A449; stroke: #fff; opacity: 1;" id="p-type-tokenTransfers"></path><path d="M-150.02241361562807,127.68036424188885A197,197,0,0,1,-150.90198807245946,126.63960674204301L-130.68495515232624,109.67311656388031A170.6070045455344,170.6070045455344,0,0,0,-129.92322132819038,110.574438997926Z" fill-rule="evenodd" style="fill: #D7A449; stroke: #fff; opacity: 1;" id="p-type-tokenTransfers"></path><path d="M-150.90198807245946,126.63960674204301A197,197,0,0,1,-151.7743425817025,125.59279013499145L-131.44043631843664,108.76654678907022A170.6070045455344,170.6070045455344,0,0,0,-130.68495515232624,109.67311656388031Z" fill-rule="evenodd" style="fill: #D7A449; stroke: #fff; opacity: 1;" id="p-type-tokenTransfers"></path><path d="M-151.7743425817025,125.59279013499145A197,197,0,0,1,-152.63943540531312,124.53996450596588L-132.18962868031502,107.85477304857876A170.6070045455344,170.6070045455344,0,0,0,-131.44043631843664,108.76654678907022Z" fill-rule="evenodd" style="fill: #D7A449; stroke: #fff; opacity: 1;" id="p-type-tokenTransfers"></path><path d="M-152.63943540531312,124.53996450596588A197,197,0,0,1,-153.49722515268454,123.48118022770139L-132.9324963926445,106.93783896647413A170.6070045455344,170.6070045455344,0,0,0,-132.18962868031502,107.85477304857876Z" fill-rule="evenodd" style="fill: #D7A449; stroke: #fff; opacity: 1;" id="p-type-tokenTransfers"></path><path d="M-153.49722515268454,123.48118022770139A197,197,0,0,1,-154.34767078262774,122.41648795802618L-133.66900391271278,106.01578841372249A170.6070045455344,170.6070045455344,0,0,0,-132.9324963926445,106.93783896647413Z" fill-rule="evenodd" style="fill: #D7A449; stroke: #fff; opacity: 1;" id="p-type-tokenTransfers"></path><path d="M-154.34767078262774,122.41648795802618A197,197,0,0,1,-155.190731605335,121.34593863743802L-134.3991160021127,105.08866550608897A170.6070045455344,170.6070045455344,0,0,0,-133.66900391271278,106.01578841372249Z" fill-rule="evenodd" style="fill: #D7A449; stroke: #fff; opacity: 1;" id="p-type-tokenTransfers"></path><path d="M-155.190731605335,121.34593863743802A197,197,0,0,1,-156.02636728432685,120.26958348666692L-135.12279772842828,104.15651460202697A170.6070045455344,170.6070045455344,0,0,0,-134.3991160021127,105.08866550608897Z" fill-rule="evenodd" style="fill: #D7A449; stroke: #fff; opacity: 1;" id="p-type-tokenTransfers"></path><path d="M-156.02636728432685,120.26958348666692A197,197,0,0,1,-156.85453783838176,119.18747400422441L-135.84001446690607,103.21938030055573A170.6070045455344,170.6070045455344,0,0,0,-135.12279772842828,104.15651460202697Z" fill-rule="evenodd" style="fill: #D7A449; stroke: #fff; opacity: 1;" id="p-type-tokenTransfers"></path><path d="M-156.85453783838176,119.18747400422441A197,197,0,0,1,-157.67520364344924,118.09966196393964L-136.55073190211172,102.27730743912655A170.6070045455344,170.6070045455344,0,0,0,-135.84001446690607,103.21938030055573Z" fill-rule="evenodd" style="fill: #D7A449; stroke: #fff; opacity: 1;" id="p-type-tokenTransfers"></path><path d="M-157.67520364344924,118.09966196393964A197,197,0,0,1,-158.48832543454566,117.0061994124822L-137.25491602957192,101.33034109147744A170.6070045455344,170.6070045455344,0,0,0,-136.55073190211172,102.27730743912655Z" fill-rule="evenodd" style="fill: #D7A449; stroke: #fff; opacity: 1;" id="p-type-tokenTransfers"></path><path d="M-158.48832543454566,117.0061994124822A197,197,0,0,1,-159.29386430763273,115.907138666872L-137.9525331574012,100.37852656547675A170.6070045455344,170.6070045455344,0,0,0,-137.25491602957192,101.33034109147744Z" fill-rule="evenodd" style="fill: #D7A449; stroke: #fff; opacity: 1;" id="p-type-tokenTransfers"></path><path d="M-159.29386430763273,115.907138666872A197,197,0,0,1,-160.09178172147904,114.8025323119761L-138.6435499079141,99.42190940095516A170.6070045455344,170.6070045455344,0,0,0,-137.9525331574012,100.37852656547675Z" fill-rule="evenodd" style="fill: #D7A449; stroke: #fff; opacity: 1;" id="p-type-tokenTransfers"></path><path d="M-160.09178172147904,114.8025323119761A197,197,0,0,1,-160.882039499504,113.69243319799273L-139.32793321922196,98.46053536752697A170.6070045455344,170.6070045455344,0,0,0,-138.6435499079141,99.42190940095516Z" fill-rule="evenodd" style="fill: #D7A449; stroke: #fff; opacity: 1;" id="p-type-tokenTransfers"></path><path d="M-160.882039499504,113.69243319799273A197,197,0,0,1,-161.66459983160445,112.57689443792275L-140.00565034681492,97.49445046240017A170.6070045455344,170.6070045455344,0,0,0,-139.32793321922196,98.46053536752697Z" fill-rule="evenodd" style="fill: #D7A449; stroke: #fff; opacity: 1;" id="p-type-tokenTransfers"></path><path d="M-161.66459983160445,112.57689443792275A197,197,0,0,1,-162.43942527596363,111.45596940502841L-140.67666886512856,96.52370090817577A170.6070045455344,170.6070045455344,0,0,0,-140.00565034681492,97.49445046240017Z" fill-rule="evenodd" style="fill: #D7A449; stroke: #fff; opacity: 1;" id="p-type-tokenTransfers"></path><path d="M-162.43942527596363,111.45596940502841A197,197,0,0,1,-163.20647876084269,110.32971173027964L-141.3409566690952,95.54833315063614A170.6070045455344,170.6070045455344,0,0,0,-140.67666886512856,96.52370090817577Z" fill-rule="evenodd" style="fill: #D7A449; stroke: #fff; opacity: 1;" id="p-type-tokenTransfers"></path><path d="M-163.20647876084269,110.32971173027964A197,197,0,0,1,-163.9657235863543,109.19817529978813L-141.99848197568014,94.56839385652293A170.6070045455344,170.6070045455344,0,0,0,-141.3409566690952,95.54833315063614Z" fill-rule="evenodd" style="fill: #D7A449; stroke: #fff; opacity: 1;" id="p-type-tokenTransfers"></path><path d="M-163.9657235863543,109.19817529978813A197,197,0,0,1,-164.71712342621862,108.06141425222908L-142.6492133254022,93.5839299113042A170.6070045455344,170.6070045455344,0,0,0,-141.99848197568014,94.56839385652293Z" fill-rule="evenodd" style="fill: #D7A449; stroke: #fff; opacity: 1;" id="p-type-tokenTransfers"></path><path d="M-164.71712342621862,108.06141425222908A197,197,0,0,1,-165.46064232950133,106.91948297625102L-143.29311958383894,92.5949884169312A170.6070045455344,170.6070045455344,0,0,0,-142.6492133254022,93.5839299113042Z" fill-rule="evenodd" style="fill: #D7A449; stroke: #fff; opacity: 1;" id="p-type-tokenTransfers"></path><path d="M-165.46064232950133,106.91948297625102A197,197,0,0,1,-166.19624472233372,105.77243610787342L-143.93016994311643,91.60161668958482A170.6070045455344,170.6070045455344,0,0,0,-143.29311958383894,92.5949884169312Z" fill-rule="evenodd" style="fill: #D7A449; stroke: #fff; opacity: 1;" id="p-type-tokenTransfers"></path><path d="M-166.19624472233372,105.77243610787342A197,197,0,0,1,-166.9238954096147,104.6203285278727L-144.56033392338296,90.60386225741158A170.6070045455344,170.6070045455344,0,0,0,-143.93016994311643,91.60161668958482Z" fill-rule="evenodd" style="fill: #D7A449; stroke: #fff; opacity: 1;" id="p-type-tokenTransfers"></path><path d="M-166.9238954096147,104.6203285278727A197,197,0,0,1,-167.64355957669477,103.46321535915646L-145.1835813742677,89.6017728582498A170.6070045455344,170.6070045455344,0,0,0,-144.56033392338296,90.60386225741158Z" fill-rule="evenodd" style="fill: #D7A449; stroke: #fff; opacity: 1;" id="p-type-tokenTransfers"></path><path d="M-167.64355957669477,103.46321535915646A197,197,0,0,1,-168.35520279104173,102.30115196412606L-145.79988247632295,88.5953964373455A170.6070045455344,170.6070045455344,0,0,0,-145.1835813742677,89.6017728582498Z" fill-rule="evenodd" style="fill: #D7A449; stroke: #fff; opacity: 1;" id="p-type-tokenTransfers"></path><path d="M-168.35520279104173,102.30115196412606A197,197,0,0,1,-169.05879100388805,101.13419394202786L-146.40920774245114,87.5847811450584A170.6070045455344,170.6070045455344,0,0,0,-145.79988247632295,88.5953964373455Z" fill-rule="evenodd" style="fill: #D7A449; stroke: #fff; opacity: 1;" id="p-type-tokenTransfers"></path><path d="M-169.05879100388805,101.13419394202786A197,197,0,0,1,-169.75429055185998,99.96239712629296L-147.01152801931545,86.56997533455826A170.6070045455344,170.6070045455344,0,0,0,-146.40920774245114,87.5847811450584Z" fill-rule="evenodd" style="fill: #D7A449; stroke: #fff; opacity: 1;" id="p-type-tokenTransfers"></path><path d="M-169.75429055185998,99.96239712629296A197,197,0,0,1,-170.44166815858824,98.78581758186591L-147.60681448873467,85.55102755951133A170.6070045455344,170.6070045455344,0,0,0,-147.01152801931545,86.56997533455826Z" fill-rule="evenodd" style="fill: #D7A449; stroke: #fff; opacity: 1;" id="p-type-tokenTransfers"></path><path d="M-170.44166815858824,98.78581758186591A197,197,0,0,1,-171.12089093630007,97.60451160252227L-148.19503866906214,84.52798657175727A170.6070045455344,170.6070045455344,0,0,0,-147.60681448873467,85.55102755951133Z" fill-rule="evenodd" style="fill: #D7A449; stroke: #fff; opacity: 1;" id="p-type-tokenTransfers"></path><path d="M-171.12089093630007,97.60451160252227A197,197,0,0,1,-171.79192638739272,96.41853570817513L-148.77617241654832,83.50090131897669A170.6070045455344,170.6070045455344,0,0,0,-148.19503866906214,84.52798657175727Z" fill-rule="evenodd" style="fill: #D7A449; stroke: #fff; opacity: 1;" id="p-type-tokenTransfers"></path><path d="M-171.79192638739272,96.41853570817513A197,197,0,0,1,-172.45474240598844,95.22794664217103L-149.35018792668748,82.46982094234914A170.6070045455344,170.6070045455344,0,0,0,-148.77617241654832,83.50090131897669Z" fill-rule="evenodd" style="fill: #D7A449; stroke: #fff; opacity: 1;" id="p-type-tokenTransfers"></path><path d="M-172.45474240598844,95.22794664217103A197,197,0,0,1,-173.10930727947047,94.03280136857495L-149.91705773554787,81.43479477420203A170.6070045455344,170.6070045455344,0,0,0,-149.35018792668748,82.46982094234914Z" fill-rule="evenodd" style="fill: #D7A449; stroke: #fff; opacity: 1;" id="p-type-tokenTransfers"></path><path d="M-173.10930727947047,94.03280136857495A197,197,0,0,1,-173.75558969000042,92.83315706944488L-150.47675472108585,80.39587233565022A170.6070045455344,170.6070045455344,0,0,0,-149.91705773554787,81.43479477420203Z" fill-rule="evenodd" style="fill: #D7A449; stroke: #fff; opacity: 1;" id="p-type-tokenTransfers"></path><path d="M-173.75558969000042,92.83315706944488A197,197,0,0,1,-174.39355871601654,91.629071142096L-151.02925210444343,79.35310333422673A170.6070045455344,170.6070045455344,0,0,0,-150.47675472108585,80.39587233565022Z" fill-rule="evenodd" style="fill: #D7A449; stroke: #fff; opacity: 1;" id="p-type-tokenTransfers"></path><path d="M-174.39355871601654,91.629071142096A197,197,0,0,1,-175.02318383371343,90.42060119635435L-151.5745234512297,78.30653766150448A170.6070045455344,170.6070045455344,0,0,0,-151.02925210444343,79.35310333422673Z" fill-rule="evenodd" style="fill: #D7A449; stroke: #fff; opacity: 1;" id="p-type-tokenTransfers"></path><path d="M-175.02318383371343,90.42060119635435A197,197,0,0,1,-175.64443491850216,89.20780505180059L-152.1125426727854,77.25622539070909A170.6070045455344,170.6070045455344,0,0,0,-151.5745234512297,78.30653766150448Z" fill-rule="evenodd" style="fill: #D7A449; stroke: #fff; opacity: 1;" id="p-type-tokenTransfers"></path><path d="M-175.64443491850216,89.20780505180059A197,197,0,0,1,-176.2572822464518,87.99074073500358L-152.6432840274312,76.20221677432333A170.6070045455344,170.6070045455344,0,0,0,-152.1125426727854,77.25622539070909Z" fill-rule="evenodd" style="fill: #D7A449; stroke: #fff; opacity: 1;" id="p-type-tokenTransfers"></path><path d="M-176.2572822464518,87.99074073500358A197,197,0,0,1,-176.86169649571156,86.76946647674404L-153.16672212169945,75.14456224168256A170.6070045455344,170.6070045455344,0,0,0,-152.6432840274312,76.20221677432333Z" fill-rule="evenodd" style="fill: #D7A449; stroke: #fff; opacity: 1;" id="p-type-tokenTransfers"></path><path d="M-176.86169649571156,86.76946647674404A197,197,0,0,1,-177.45764874791354,85.54404070922851L-153.6828319115489,74.08331239656208A170.6070045455344,170.6070045455344,0,0,0,-153.16672212169945,75.14456224168256Z" fill-rule="evenodd" style="fill: #D7A449; stroke: #fff; opacity: 1;" id="p-type-tokenTransfers"></path><path d="M-177.45764874791354,85.54404070922851A197,197,0,0,1,-178.04511048955644,84.31452206329367L-154.1915887035631,73.01851801475586A170.6070045455344,170.6070045455344,0,0,0,-153.6828319115489,74.08331239656208Z" fill-rule="evenodd" style="fill: #D7A449; stroke: #fff; opacity: 1;" id="p-type-tokenTransfers"></path><path d="M-178.04511048955644,84.31452206329367A197,197,0,0,1,-178.62405361336994,83.08096936560106L-154.6929681561319,71.95023004164723A170.6070045455344,170.6070045455344,0,0,0,-154.1915887035631,73.01851801475586Z" fill-rule="evenodd" style="fill: #D7A449; stroke: #fff; opacity: 1;" id="p-type-tokenTransfers"></path><path d="M-178.62405361336994,83.08096936560106A197,197,0,0,1,-179.1944504196592,81.8434416358226L-155.18694628061593,70.8784995897714A170.6070045455344,170.6070045455344,0,0,0,-154.6929681561319,71.95023004164723Z" fill-rule="evenodd" style="fill: #D7A449; stroke: #fff; opacity: 1;" id="p-type-tokenTransfers"></path><path d="M-179.1944504196592,81.8434416358226A197,197,0,0,1,-179.7562736176304,80.6019980838167L-155.6734994424944,69.8033779363699A170.6070045455344,170.6070045455344,0,0,0,-155.18694628061593,70.8784995897714Z" fill-rule="evenodd" style="fill: #D7A449; stroke: #fff; opacity: 1;" id="p-type-tokenTransfers"></path></g></svg>