<svg xmlns="http://www.w3.org/2000/svg" width="400" height="400" id="block-7907792"><g id="burst-container" transform="translate(200,200)"><circle r="197" style="fill: #f9f9f9; stroke: #f9f9f9; stroke-width: 3; opacity: 1;" id="circle-base"></circle><path display="none" d="M6.031385485800715e-15,-98.5A98.5,98.5,0,1,1,-6.031385485800715e-15,98.5A98.5,98.5,0,1,1,6.031385485800715e-15,-98.5Z" fill-rule="evenodd" id="p-type-root" style="stroke: #fff; opacity: 1;"></path><path d="M8.529667153919608e-15,-139.30003589374985A139.30003589374985,139.30003589374985,0,1,1,-115.17559412464541,-78.35229746494319L-81.44144363272626,-55.40344085900687A98.5,98.5,0,1,0,6.031385485800715e-15,-98.5Z" fill-rule="evenodd" style="fill: #0B1F65; stroke: #fff; opacity: 1;" id="p-type-data"></path><path d="M-115.17559412464541,-78.35229746494319A139.30003589374985,139.30003589374985,0,0,1,-2.038995668338986,-139.2851122577876L-1.4417876638924936,-98.48944739581113A98.5,98.5,0,0,0,-81.44144363272626,-55.40344085900687Z" fill-rule="evenodd" style="fill: #D7A449; stroke: #fff; opacity: 1;" id="p-type-value"></path><path d="M1.0446666101440332e-14,-170.6070045455344A170.6070045455344,170.6070045455344,0,0,1,170.57564935061373,-3.2707565816592L139.2744344843028,-2.6705615659715933A139.30003589374985,139.30003589374985,0,0,0,8.529667153919608e-15,-139.30003589374985Z" fill-rule="evenodd" style="fill: #1DC690; stroke: #fff; opacity: 1;" id="p-type-logs"></path><path d="M170.57564935061373,-3.2707565816592A170.6070045455344,170.6070045455344,0,0,1,33.75324276179903,167.23477091521087L27.559407310232423,136.54661866450118A139.30003589374985,139.30003589374985,0,0,0,139.2744344843028,-2.6705615659715933Z" fill-rule="evenodd" style="fill: #414552; stroke: #fff; opacity: 1;" id="p-type-ether"></path><path d="M33.75324276179903,167.23477091521087A170.6070045455344,170.6070045455344,0,0,1,-149.68285128116617,81.86448578193288L-122.21553629458546,66.84207274035464A139.30003589374985,139.30003589374985,0,0,0,27.559407310232423,136.54661866450118Z" fill-rule="evenodd" style="fill: #D7A449; stroke: #fff; opacity: 1;" id="p-type-tokenTransfers"></path><path d="M-141.06071821363872,-95.96157448193738A170.6070045455344,170.6070045455344,0,0,1,-56.359819848484165,-161.02894369226425L-46.01760020798991,-131.47958195513706A139.30003589374985,139.30003589374985,0,0,0,-115.17559412464541,-78.35229746494319Z" fill-rule="evenodd" style="fill: #D7A449; stroke: #fff; opacity: 1;" id="p-type-tokenTransfers"></path><path d="M-56.359819848484165,-161.02894369226425A170.6070045455344,170.6070045455344,0,0,1,-4.993963899329891,-170.53389787538484L-4.077554449079351,-139.2403445475297A139.30003589374985,139.30003589374985,0,0,0,-46.01760020798991,-131.47958195513706Z" fill-rule="evenodd" style="fill: #414552; stroke: #fff; opacity: 1;" id="p-type-ether"></path><path d="M1.206277097160143e-14,-197A197,197,0,0,1,1.441826281216889,-196.99472362724538L1.2486581873778717,-170.60243507268908A170.6070045455344,170.6070045455344,0,0,0,1.0446666101440332e-14,-170.6070045455344Z" fill-rule="evenodd" style="fill: #1DC690; stroke: #fff; opacity: 1;" id="p-type-logs"></path><path d="M1.441826281216889,-196.99472362724538A197,197,0,0,1,2.8835753277849188,-196.97889479162225L2.4972494875877795,-170.58872689892712A170.6070045455344,170.6070045455344,0,0,0,1.2486581873778717,-170.60243507268908Z" fill-rule="evenodd" style="fill: #1DC690; stroke: #fff; opacity: 1;" id="p-type-logs"></path><path d="M2.8835753277849188,-196.97889479162225A197,197,0,0,1,4.325169909192633,-196.95251434103758L3.745707017044854,-170.5658807585575A170.6070045455344,170.6070045455344,0,0,0,2.4972494875877795,-170.58872689892712Z" fill-rule="evenodd" style="fill: #1DC690; stroke: #fff; opacity: 1;" id="p-type-logs"></path><path d="M4.325169909192633,-196.95251434103758A197,197,0,0,1,5.766532803202661,-196.9155836886192L4.993963899329795,-170.53389787538487A170.6070045455344,170.6070045455344,0,0,0,3.745707017044854,-170.5658807585575Z" fill-rule="evenodd" style="fill: #1DC690; stroke: #fff; opacity: 1;" id="p-type-logs"></path><path d="M5.766532803202661,-196.9155836886192A197,197,0,0,1,7.207586799988656,-196.86810481264007L6.2419532687715655,-170.4927799626438A170.6070045455344,170.6070045455344,0,0,0,4.993963899329795,-170.53389787538487Z" fill-rule="evenodd" style="fill: #1DC690; stroke: #fff; opacity: 1;" id="p-type-logs"></path><path d="M7.207586799988656,-196.86810481264007A197,197,0,0,1,8.648254706270915,-196.81008025641233L7.489608274028941,-170.44252922290727A170.6070045455344,170.6070045455344,0,0,0,6.2419532687715655,-170.4927799626438Z" fill-rule="evenodd" style="fill: #1DC690; stroke: #fff; opacity: 1;" id="p-type-logs"></path><path d="M8.648254706270915,-196.81008025641233A197,197,0,0,1,10.088459349451536,-196.74151312815113L8.736862081671662,-170.38314834796853A170.6070045455344,170.6070045455344,0,0,0,7.489608274028941,-170.44252922290727Z" fill-rule="evenodd" style="fill: #1DC690; stroke: #fff; opacity: 1;" id="p-type-logs"></path><path d="M10.088459349451536,-196.74151312815113A197,197,0,0,1,11.52812358174847,-196.662407100808L9.983647879760628,-170.3146405186969A170.6070045455344,170.6070045455344,0,0,0,8.736862081671662,-170.38314834796853Z" fill-rule="evenodd" style="fill: #1DC690; stroke: #fff; opacity: 1;" id="p-type-logs"></path><path d="M11.52812358174847,-196.662407100808A197,197,0,0,1,12.967170284327855,-196.57276641187417L11.229898881426605,-170.23700940486745A170.6070045455344,170.6070045455344,0,0,0,9.983647879760628,-170.3146405186969Z" fill-rule="evenodd" style="fill: #1DC690; stroke: #fff; opacity: 1;" id="p-type-logs"></path><path d="M12.967170284327855,-196.57276641187417A197,197,0,0,1,14.405522371435191,-196.4725958631536L12.475548328447925,-170.1502591649644A170.6070045455344,170.6070045455344,0,0,0,11.229898881426605,-170.23700940486745Z" fill-rule="evenodd" style="fill: #1DC690; stroke: #fff; opacity: 1;" id="p-type-logs"></path><path d="M14.405522371435191,-196.4725958631536A197,197,0,0,1,15.843102794524738,-196.36190082050572L13.720529494826653,-170.05439444595837A170.6070045455344,170.6070045455344,0,0,0,12.475548328447925,-170.1502591649644Z" fill-rule="evenodd" style="fill: #1DC690; stroke: #fff; opacity: 1;" id="p-type-logs"></path><path d="M15.843102794524738,-196.36190082050572A197,197,0,0,1,17.27983454638649,-196.240687213558L14.964775690362652,-169.9494203830573A170.6070045455344,170.6070045455344,0,0,0,13.720529494826653,-170.05439444595837Z" fill-rule="evenodd" style="fill: #1DC690; stroke: #fff; opacity: 1;" id="p-type-logs"></path><path d="M17.27983454638649,-196.240687213558A197,197,0,0,1,18.715640665271582,-196.10896153538837L16.208220264226284,-169.83534259943164A170.6070045455344,170.6070045455344,0,0,0,14.964775690362652,-169.9494203830573Z" fill-rule="evenodd" style="fill: #1DC690; stroke: #fff; opacity: 1;" id="p-type-logs"></path><path d="M18.715640665271582,-196.10896153538837A197,197,0,0,1,20.150444239014636,-195.9667308421773L17.450796608528467,-169.712167205913A170.6070045455344,170.6070045455344,0,0,0,16.208220264226284,-169.83534259943164Z" fill-rule="evenodd" style="fill: #1DC690; stroke: #fff; opacity: 1;" id="p-type-logs"></path><path d="M20.150444239014636,-195.9667308421773A197,197,0,0,1,21.584168409153826,-195.81400275282994L18.692438161888767,-169.5799008006667A170.6070045455344,170.6070045455344,0,0,0,17.450796608528467,-169.712167205913Z" fill-rule="evenodd" style="fill: #1DC690; stroke: #fff; opacity: 1;" id="p-type-logs"></path><path d="M21.584168409153826,-195.81400275282994A197,197,0,0,1,23.016736375048136,-195.65078544856786L19.933078413001038,-169.43855046883857A170.6070045455344,170.6070045455344,0,0,0,18.692438161888767,-169.5799008006667Z" fill-rule="evenodd" style="fill: #1DC690; stroke: #fff; opacity: 1;" id="p-type-logs"></path><path d="M23.016736375048136,-195.65078544856786A197,197,0,0,1,24.44807139799108,-195.477087672491L21.17265090419601,-169.28812378217512A170.6070045455344,170.6070045455344,0,0,0,19.933078413001038,-169.43855046883857Z" fill-rule="evenodd" style="fill: #1DC690; stroke: #fff; opacity: 1;" id="p-type-logs"></path><path d="M24.44807139799108,-195.477087672491A197,197,0,0,1,25.878096805321526,-195.2929187291091L22.411089235001366,-169.12862879861825A170.6070045455344,170.6070045455344,0,0,0,21.17265090419601,-169.28812378217512Z" fill-rule="evenodd" style="fill: #1DC690; stroke: #fff; opacity: 1;" id="p-type-logs"></path><path d="M25.878096805321526,-195.2929187291091A197,197,0,0,1,27.30673599453095,-195.09828848384342L23.64832706569873,-168.9600740618734A170.6070045455344,170.6070045455344,0,0,0,22.411089235001366,-169.12862879861825Z" fill-rule="evenodd" style="fill: #1DC690; stroke: #fff; opacity: 1;" id="p-type-logs"></path><path d="M27.30673599453095,-195.09828848384342A197,197,0,0,1,28.733912437366534,-194.8932073624983L24.884298120877055,-168.7824686009519A170.6070045455344,170.6070045455344,0,0,0,23.64832706569873,-168.9600740618734Z" fill-rule="evenodd" style="fill: #1DC690; stroke: #fff; opacity: 1;" id="p-type-logs"></path><path d="M28.733912437366534,-194.8932073624983A197,197,0,0,1,30.15954968393091,-194.67768635070252L26.118936192983103,-168.59582192968745A170.6070045455344,170.6070045455344,0,0,0,24.884298120877055,-168.7824686009519Z" fill-rule="evenodd" style="fill: #1DC690; stroke: #fff; opacity: 1;" id="p-type-logs"></path><path d="M30.15954968393091,-194.67768635070252A197,197,0,0,1,31.58357136677708,-194.45173699332102L27.352175145867754,-168.4001440462263A170.6070045455344,170.6070045455344,0,0,0,26.118936192983103,-168.59582192968745Z" fill-rule="evenodd" style="fill: #1DC690; stroke: #fff; opacity: 1;" id="p-type-logs"></path><path d="M31.58357136677708,-194.45173699332102A197,197,0,0,1,33.00590120499932,-194.21537139383645L28.583948918328826,-168.1954454324919A170.6070045455344,170.6070045455344,0,0,0,27.352175145867754,-168.4001440462263Z" fill-rule="evenodd" style="fill: #1DC690; stroke: #fff; opacity: 1;" id="p-type-logs"></path><path d="M33.00590120499932,-194.21537139383645A197,197,0,0,1,34.426463008319466,-193.9686022137006L29.814191527649907,-167.9817370536232A170.6070045455344,170.6070045455344,0,0,0,28.583948918328826,-168.1954454324919Z" fill-rule="evenodd" style="fill: #1DC690; stroke: #fff; opacity: 1;" id="p-type-logs"></path><path d="M34.426463008319466,-193.9686022137006A197,197,0,0,1,35.84518068116796,-193.7114426716564L31.042837073134642,-167.75903035738736A170.6070045455344,170.6070045455344,0,0,0,29.814191527649907,-167.9817370536232Z" fill-rule="evenodd" style="fill: #1DC690; stroke: #fff; opacity: 1;" id="p-type-logs"></path><path d="M35.84518068116796,-193.7114426716564A197,197,0,0,1,37.26197822676035,-193.44390654302975L32.26981973963709,-167.52733727356656A170.6070045455344,170.6070045455344,0,0,0,31.042837073134642,-167.75903035738736Z" fill-rule="evenodd" style="fill: #1DC690; stroke: #fff; opacity: 1;" id="p-type-logs"></path><path d="M37.26197822676035,-193.44390654302975A197,197,0,0,1,38.67677975116798,-193.16600815899167L33.495073801087045,-167.28667021331893A170.6070045455344,170.6070045455344,0,0,0,32.26981973963709,-167.52733727356656Z" fill-rule="evenodd" style="fill: #1DC690; stroke: #fff; opacity: 1;" id="p-type-logs"></path><path d="M38.67677975116798,-193.16600815899167A197,197,0,0,1,40.089509467383536,-192.8777624057905L34.7185336240109,-167.03704206851373A170.6070045455344,170.6070045455344,0,0,0,33.495073801087045,-167.28667021331893Z" fill-rule="evenodd" style="fill: #1DC690; stroke: #fff; opacity: 1;" id="p-type-logs"></path><path d="M40.089509467383536,-192.8777624057905A197,197,0,0,1,41.50009169938086,-192.57918472395446L35.94013367104754,-166.77846621104067A170.6070045455344,170.6070045455344,0,0,0,34.7185336240109,-167.03704206851373Z" fill-rule="evenodd" style="fill: #1DC690; stroke: #fff; opacity: 1;" id="p-type-logs"></path><path d="M41.50009169938086,-192.57918472395446A197,197,0,0,1,42.90845088616848,-192.27029110746483L37.15980850445881,-166.51095649209378A170.6070045455344,170.6070045455344,0,0,0,35.94013367104754,-166.77846621104067Z" fill-rule="evenodd" style="fill: #1DC690; stroke: #fff; opacity: 1;" id="p-type-logs"></path><path d="M42.90845088616848,-192.27029110746483A197,197,0,0,1,44.31451158583729,-191.95109810289884L38.37749278963492,-166.23452724142933A170.6070045455344,170.6070045455344,0,0,0,37.15980850445881,-166.51095649209378Z" fill-rule="evenodd" style="fill: #1DC690; stroke: #fff; opacity: 1;" id="p-type-logs"></path><path d="M44.31451158583729,-191.95109810289884A197,197,0,0,1,45.718198479601924,-191.62162280854352L39.59312129859436,-165.9491932665983A170.6070045455344,170.6070045455344,0,0,0,38.37749278963492,-166.23452724142933Z" fill-rule="evenodd" style="fill: #1DC690; stroke: #fff; opacity: 1;" id="p-type-logs"></path><path d="M45.718198479601924,-191.62162280854352A197,197,0,0,1,47.11943637583511,-191.28188287347976L40.806628913477766,-165.65496985215302A170.6070045455344,170.6070045455344,0,0,0,39.59312129859436,-165.9491932665983Z" fill-rule="evenodd" style="fill: #1DC690; stroke: #fff; opacity: 1;" id="p-type-logs"></path><path d="M47.11943637583511,-191.28188287347976A197,197,0,0,1,48.518150214095606,-190.93189649663685L42.01795063003619,-165.3518727588286A170.6070045455344,170.6070045455344,0,0,0,40.806628913477766,-165.65496985215302Z" fill-rule="evenodd" style="fill: #1DC690; stroke: #fff; opacity: 1;" id="p-type-logs"></path><path d="M48.518150214095606,-190.93189649663685A197,197,0,0,1,49.914265069149096,-190.57168242581773L43.22702156111335,-165.03991822269862A170.6070045455344,170.6070045455344,0,0,0,42.01795063003619,-165.3518727588286Z" fill-rule="evenodd" style="fill: #1DC690; stroke: #fff; opacity: 1;" id="p-type-logs"></path><path d="M49.914265069149096,-190.57168242581773A197,197,0,0,1,51.30770615498145,-190.20125995669449L44.43377694012114,-164.71912295430533A170.6070045455344,170.6070045455344,0,0,0,43.22702156111335,-165.03991822269862Z" fill-rule="evenodd" style="fill: #1DC690; stroke: #fff; opacity: 1;" id="p-type-logs"></path><path d="M51.30770615498145,-190.20125995669449A197,197,0,0,1,52.698398828805146,-189.82064893177503L45.63815212450936,-164.38950413776465A170.6070045455344,170.6070045455344,0,0,0,44.43377694012114,-164.71912295430533Z" fill-rule="evenodd" style="fill: #1DC690; stroke: #fff; opacity: 1;" id="p-type-logs"></path><path d="M52.698398828805146,-189.82064893177503A197,197,0,0,1,54.086268595057305,-189.42986973933998L46.840082599228104,-164.05107942984552A170.6070045455344,170.6070045455344,0,0,0,45.63815212450936,-164.38950413776465Z" fill-rule="evenodd" style="fill: #1DC690; stroke: #fff; opacity: 1;" id="p-type-logs"></path><path d="M54.086268595057305,-189.42986973933998A197,197,0,0,1,55.47124110939058,-189.0289433123506L48.03950398018393,-163.7038669590242A170.6070045455344,170.6070045455344,0,0,0,46.840082599228104,-164.05107942984552Z" fill-rule="evenodd" style="fill: #1DC690; stroke: #fff; opacity: 1;" id="p-type-logs"></path><path d="M55.47124110939058,-189.0289433123506A197,197,0,0,1,56.85324218265526,-188.61789112732745L49.236352017688496,-163.34788532451304A170.6070045455344,170.6070045455344,0,0,0,48.03950398018393,-163.7038669590242Z" fill-rule="evenodd" style="fill: #1DC690; stroke: #fff; opacity: 1;" id="p-type-logs"></path><path d="M56.85324218265526,-188.61789112732745A197,197,0,0,1,58.232197784873634,-188.19673520319995L50.430562599900476,-162.9831535952643A170.6070045455344,170.6070045455344,0,0,0,49.236352017688496,-163.34788532451304Z" fill-rule="evenodd" style="fill: #1DC690; stroke: #fff; opacity: 1;" id="p-type-logs"></path><path d="M58.232197784873634,-188.19673520319995A197,197,0,0,1,59.60803404920534,-187.76549810012696L51.622071756259615,-162.6096913089487A170.6070045455344,170.6070045455344,0,0,0,50.430562599900476,-162.9831535952643Z" fill-rule="evenodd" style="fill: #1DC690; stroke: #fff; opacity: 1;" id="p-type-logs"></path><path d="M59.60803404920534,-187.76549810012696A197,197,0,0,1,60.98067727590446,-187.32420291828814L52.810815660913704,-162.22751847090862A170.6070045455344,170.6070045455344,0,0,0,51.622071756259615,-162.6096913089487Z" fill-rule="evenodd" style="fill: #1DC690; stroke: #fff; opacity: 1;" id="p-type-logs"></path><path d="M60.98067727590446,-187.32420291828814A197,197,0,0,1,62.35005393626714,-186.87287329664673L53.99673063613727,-161.83665555308673A170.6070045455344,170.6070045455344,0,0,0,52.810815660913704,-162.22751847090862Z" fill-rule="evenodd" style="fill: #1DC690; stroke: #fff; opacity: 1;" id="p-type-logs"></path><path d="M62.35005393626714,-186.87287329664673A197,197,0,0,1,63.71609067657058,-186.41153341168305L55.179753155742944,-161.4371234929292A170.6070045455344,170.6070045455344,0,0,0,53.99673063613727,-161.83665555308673Z" fill-rule="evenodd" style="fill: #1DC690; stroke: #fff; opacity: 1;" id="p-type-logs"></path><path d="M63.71609067657058,-186.41153341168305A197,197,0,0,1,65.07871432200214,-185.94020797609977L56.35981984848403,-161.02894369226428A170.6070045455344,170.6070045455344,0,0,0,55.179753155742944,-161.4371234929292Z" fill-rule="evenodd" style="fill: #1DC690; stroke: #fff; opacity: 1;" id="p-type-logs"></path><path d="M65.07871432200214,-185.94020797609977A197,197,0,0,1,66.43785188057939,-185.45892223749763L57.53686750144949,-160.61213801615568A170.6070045455344,170.6070045455344,0,0,0,56.35981984848403,-161.02894369226428Z" fill-rule="evenodd" style="fill: #1DC690; stroke: #fff; opacity: 1;" id="p-type-logs"></path><path d="M66.43785188057939,-185.45892223749763A197,197,0,0,1,67.79343054705977,-184.9677019770235L58.71083306344973,-160.1867287917315A170.6070045455344,170.6070045455344,0,0,0,57.53686750144949,-160.61213801615568Z" fill-rule="evenodd" style="fill: #1DC690; stroke: #fff; opacity: 1;" id="p-type-logs"></path><path d="M67.79343054705977,-184.9677019770235A197,197,0,0,1,69.1453777068409,-184.46657350798898L59.88165364839442,-159.752738806988A170.6070045455344,170.6070045455344,0,0,0,58.71083306344973,-160.1867287917315Z" fill-rule="evenodd" style="fill: #1DC690; stroke: #fff; opacity: 1;" id="p-type-logs"></path><path d="M69.1453777068409,-184.46657350798898A197,197,0,0,1,70.49362093985003,-183.95556367446116L61.049266538660774,-159.31019130956923A170.6070045455344,170.6070045455344,0,0,0,59.88165364839442,-159.752738806988Z" fill-rule="evenodd" style="fill: #1DC690; stroke: #fff; opacity: 1;" id="p-type-logs"></path><path d="M70.49362093985003,-183.95556367446116A197,197,0,0,1,71.83808802442364,-183.4346998498244L62.213609188453525,-158.85911000552147A170.6070045455344,170.6070045455344,0,0,0,61.049266538660774,-159.31019130956923Z" fill-rule="evenodd" style="fill: #1DC690; stroke: #fff; opacity: 1;" id="p-type-logs"></path><path d="M71.83808802442364,-183.4346998498244A197,197,0,0,1,73.17870694117593,-182.90400993531412L63.37461922715499,-158.3995190580234A170.6070045455344,170.6070045455344,0,0,0,62.213609188453525,-158.85911000552147Z" fill-rule="evenodd" style="fill: #1DC690; stroke: #fff; opacity: 1;" id="p-type-logs"></path><path d="M73.17870694117593,-182.90400993531412A197,197,0,0,1,74.51540587685699,-182.36352235852232L64.5322344626664,-157.93144308609178A170.6070045455344,170.6070045455344,0,0,0,63.37461922715499,-158.3995190580234Z" fill-rule="evenodd" style="fill: #1DC690; stroke: #fff; opacity: 1;" id="p-type-logs"></path><path d="M74.51540587685699,-182.36352235852232A197,197,0,0,1,75.84811322819924,-181.8132660718746L65.68639288473906,-157.45490716326276A170.6070045455344,170.6070045455344,0,0,0,64.5322344626664,-157.93144308609178Z" fill-rule="evenodd" style="fill: #1DC690; stroke: #fff; opacity: 1;" id="p-type-logs"></path><path d="M75.84811322819924,-181.8132660718746A197,197,0,0,1,77.17675760575345,-181.25327055107937L66.83703266829637,-156.9699368162486A170.6070045455344,170.6070045455344,0,0,0,65.68639288473906,-157.45490716326276Z" fill-rule="evenodd" style="fill: #1DC690; stroke: #fff; opacity: 1;" id="p-type-logs"></path><path d="M77.17675760575345,-181.25327055107937A197,197,0,0,1,78.50126783771249,-180.68356579354892L67.98409217674532,-156.4765580235704A170.6070045455344,170.6070045455344,0,0,0,66.83703266829637,-156.9699368162486Z" fill-rule="evenodd" style="fill: #1DC690; stroke: #fff; opacity: 1;" id="p-type-logs"></path><path d="M78.50126783771249,-180.68356579354892A197,197,0,0,1,79.82157297372414,-180.1041823167925L69.12750996527848,-155.9747972141664A170.6070045455344,170.6070045455344,0,0,0,67.98409217674532,-156.4765580235704Z" fill-rule="evenodd" style="fill: #1DC690; stroke: #fff; opacity: 1;" id="p-type-logs"></path><path d="M79.82157297372414,-180.1041823167925A197,197,0,0,1,81.13760228869141,-179.51515115678157L70.26722478416517,-155.46468126597628A170.6070045455344,170.6070045455344,0,0,0,69.12750996527848,-155.9747972141664Z" fill-rule="evenodd" style="fill: #1DC690; stroke: #fff; opacity: 1;" id="p-type-logs"></path><path d="M81.13760228869141,-179.51515115678157A197,197,0,0,1,82.44928528656135,-178.91650386628737L71.40317558203266,-154.9462375045016A170.6070045455344,170.6070045455344,0,0,0,70.26722478416517,-155.46468126597628Z" fill-rule="evenodd" style="fill: #1DC690; stroke: #fff; opacity: 1;" id="p-type-logs"></path><path d="M82.44928528656135,-178.91650386628737A197,197,0,0,1,83.75655170410106,-178.30827251319062L72.53530150913633,-154.41949370134162A170.6070045455344,170.6070045455344,0,0,0,71.40317558203266,-154.9462375045016Z" fill-rule="evenodd" style="fill: #1DC690; stroke: #fff; opacity: 1;" id="p-type-logs"></path><path d="M83.75655170410106,-178.30827251319062A197,197,0,0,1,85.0593315146618,-177.69048967876378L73.66354192061941,-153.88447807270603A170.6070045455344,170.6070045455344,0,0,0,72.53530150913633,-154.41949370134162Z" fill-rule="evenodd" style="fill: #1DC690; stroke: #fff; opacity: 1;" id="p-type-logs"></path><path d="M85.0593315146618,-177.69048967876378A197,197,0,0,1,86.35755493192983,-177.06318845592588L74.78783637976136,-153.34121927790335A170.6070045455344,170.6070045455344,0,0,0,73.66354192061941,-153.88447807270603Z" fill-rule="evenodd" style="fill: #1DC690; stroke: #fff; opacity: 1;" id="p-type-logs"></path><path d="M86.35755493192983,-177.06318845592588A197,197,0,0,1,87.65115241366492,-176.42640244746954L75.90812466121554,-152.78974641780567A170.6070045455344,170.6070045455344,0,0,0,74.78783637976136,-153.34121927790335Z" fill-rule="evenodd" style="fill: #1DC690; stroke: #fff; opacity: 1;" id="p-type-logs"></path><path d="M87.65115241366492,-176.42640244746954A197,197,0,0,1,88.9400546654253,-175.78016576426126L77.02434675423498,-152.23008903328991A170.6070045455344,170.6070045455344,0,0,0,75.90812466121554,-152.78974641780567Z" fill-rule="evenodd" style="fill: #1DC690; stroke: #fff; opacity: 1;" id="p-type-logs"></path><path d="M88.9400546654253,-175.78016576426126A197,197,0,0,1,90.22419264427981,-175.12451302341395L78.1364428658874,-151.66227710365524A170.6070045455344,170.6070045455344,0,0,0,77.02434675423498,-152.23008903328991Z" fill-rule="evenodd" style="fill: #1DC690; stroke: #fff; opacity: 1;" id="p-type-logs"></path><path d="M90.22419264427981,-175.12451302341395A197,197,0,0,1,91.50349756250611,-174.4594793464329L79.24435342425775,-151.08634104501746A170.6070045455344,170.6070045455344,0,0,0,78.1364428658874,-151.66227710365524Z" fill-rule="evenodd" style="fill: #1DC690; stroke: #fff; opacity: 1;" id="p-type-logs"></path><path d="M91.50349756250611,-174.4594793464329A197,197,0,0,1,92.7779008912757,-173.7851003573339L80.34801908163968,-150.5023117086793A170.6070045455344,170.6070045455344,0,0,0,79.24435342425775,-151.08634104501746Z" fill-rule="evenodd" style="fill: #1DC690; stroke: #fff; opacity: 1;" id="p-type-logs"></path><path d="M92.7779008912757,-173.7851003573339A197,197,0,0,1,94.04733436432453,-173.10141218073565L81.44738071771425,-149.91022037947815A170.6070045455344,170.6070045455344,0,0,0,80.34801908163968,-150.5023117086793Z" fill-rule="evenodd" style="fill: #1DC690; stroke: #fff; opacity: 1;" id="p-type-logs"></path><path d="M94.04733436432453,-173.10141218073565A197,197,0,0,1,95.31172998161009,-172.40845143992405L82.54237944271726,-149.31009877411A170.6070045455344,170.6070045455344,0,0,0,81.44738071771425,-149.91022037947815Z" fill-rule="evenodd" style="fill: #1DC690; stroke: #fff; opacity: 1;" id="p-type-logs"></path><path d="M95.31172998161009,-172.40845143992405A197,197,0,0,1,96.57102001295382,-171.7062552548907L83.63295660059343,-148.7019790394306A170.6070045455344,170.6070045455344,0,0,0,82.54237944271726,-149.31009877411Z" fill-rule="evenodd" style="fill: #1DC690; stroke: #fff; opacity: 1;" id="p-type-logs"></path><path d="M96.57102001295382,-171.7062552548907A197,197,0,0,1,97.82513700166928,-170.9948612403444L84.71905377213866,-148.0858937507333A170.6070045455344,170.6070045455344,0,0,0,83.63295660059343,-148.7019790394306Z" fill-rule="evenodd" style="fill: #1DC690; stroke: #fff; opacity: 1;" id="p-type-logs"></path><path d="M97.82513700166928,-170.9948612403444A197,197,0,0,1,99.0740137681757,-170.27430750369632L85.80061277812939,-147.46187591000427A170.6070045455344,170.6070045455344,0,0,0,84.71905377213866,-148.0858937507333Z" fill-rule="evenodd" style="fill: #1DC690; stroke: #fff; opacity: 1;" id="p-type-logs"></path><path d="M99.0740137681757,-170.27430750369632A197,197,0,0,1,100.31758341359648,-169.54463264301856L86.87757568243899,-146.82995894415447A170.6070045455344,170.6070045455344,0,0,0,85.80061277812939,-147.46187591000427Z" fill-rule="evenodd" style="fill: #1DC690; stroke: #fff; opacity: 1;" id="p-type-logs"></path><path d="M100.31758341359648,-169.54463264301856A197,197,0,0,1,101.55577932334286,-168.80587574497665L87.94988479514134,-146.19017670322916A170.6070045455344,170.6070045455344,0,0,0,86.87757568243899,-146.82995894415447Z" fill-rule="evenodd" style="fill: #1DC690; stroke: #fff; opacity: 1;" id="p-type-logs"></path><path d="M101.55577932334286,-168.80587574497665A197,197,0,0,1,102.78853517068212,-168.05807638273575L89.01748267560096,-145.54256345859477A170.6070045455344,170.6070045455344,0,0,0,87.94988479514134,-146.19017670322916Z" fill-rule="evenodd" style="fill: #1DC690; stroke: #fff; opacity: 1;" id="p-type-logs"></path><path d="M102.78853517068212,-168.05807638273575A197,197,0,0,1,104.01578492029081,-167.3012746138409L90.08031213555017,-144.8871539011028A170.6070045455344,170.6070045455344,0,0,0,89.01748267560096,-145.54256345859477Z" fill-rule="evenodd" style="fill: #1DC690; stroke: #fff; opacity: 1;" id="p-type-logs"></path><path d="M104.01578492029081,-167.3012746138409A197,197,0,0,1,105.23746283179189,-166.53551097807104L91.13831624215243,-144.2239831392318A170.6070045455344,170.6070045455344,0,0,0,90.08031213555017,-144.8871539011028Z" fill-rule="evenodd" style="fill: #1DC690; stroke: #fff; opacity: 1;" id="p-type-logs"></path><path d="M105.23746283179189,-166.53551097807104A197,197,0,0,1,106.4535034632762,-165.76082649526768L92.19143832105192,-143.55308669720645A170.6070045455344,170.6070045455344,0,0,0,91.13831624215243,-144.2239831392318Z" fill-rule="evenodd" style="fill: #1DC690; stroke: #fff; opacity: 1;" id="p-type-logs"></path><path d="M106.4535034632762,-165.76082649526768A197,197,0,0,1,107.6638416748082,-164.97726266313742L93.23962195940963,-142.87450051309497A170.6070045455344,170.6070045455344,0,0,0,92.19143832105192,-143.55308669720645Z" fill-rule="evenodd" style="fill: #1DC690; stroke: #fff; opacity: 1;" id="p-type-logs"></path><path d="M107.6638416748082,-164.97726266313742A197,197,0,0,1,108.86841263191508,-164.18486145502902L94.28281100892514,-142.1882609368836A170.6070045455344,170.6070045455344,0,0,0,93.23962195940963,-142.87450051309497Z" fill-rule="evenodd" style="fill: #1DC690; stroke: #fff; opacity: 1;" id="p-type-logs"></path><path d="M108.86841263191508,-164.18486145502902A197,197,0,0,1,110.06715180906005,-163.3836653176851L95.32094958884433,-141.4944047285298A170.6070045455344,170.6070045455344,0,0,0,94.28281100892514,-142.1882609368836Z" fill-rule="evenodd" style="fill: #1DC690; stroke: #fff; opacity: 1;" id="p-type-logs"></path><path d="M110.06715180906005,-163.3836653176851A197,197,0,0,1,111.2599949930986,-162.57371716896822L96.35398208895283,-140.7929690559928A170.6070045455344,170.6070045455344,0,0,0,95.32094958884433,-141.4944047285298Z" fill-rule="evenodd" style="fill: #1DC690; stroke: #fff; opacity: 1;" id="p-type-logs"></path><path d="M111.2599949930986,-162.57371716896822A197,197,0,0,1,112.44687828671827,-161.7550603955622L97.38185317255481,-140.083991493243A170.6070045455344,170.6070045455344,0,0,0,96.35398208895283,-140.7929690559928Z" fill-rule="evenodd" style="fill: #1DC690; stroke: #fff; opacity: 1;" id="p-type-logs"></path><path d="M112.44687828671827,-161.7550603955622A197,197,0,0,1,113.62773811186145,-160.9277388506476L98.40450777943725,-139.36751001824877A170.6070045455344,170.6070045455344,0,0,0,97.38185317255481,-140.083991493243Z" fill-rule="evenodd" style="fill: #1DC690; stroke: #fff; opacity: 1;" id="p-type-logs"></path><path d="M113.62773811186145,-160.9277388506476A197,197,0,0,1,114.80251121313113,-160.09179685155297L99.42189112881942,-138.64356301094247A170.6070045455344,170.6070045455344,0,0,0,98.40450777943725,-139.36751001824877Z" fill-rule="evenodd" style="fill: #1DC690; stroke: #fff; opacity: 1;" id="p-type-logs"></path><path d="M114.80251121313113,-160.09179685155297A197,197,0,0,1,115.97113466117922,-159.24727917738073L100.43394872228724,-137.91218925116436A170.6070045455344,170.6070045455344,0,0,0,99.42189112881942,-138.64356301094247Z" fill-rule="evenodd" style="fill: #1DC690; stroke: #fff; opacity: 1;" id="p-type-logs"></path><path d="M115.97113466117922,-159.24727917738073A197,197,0,0,1,117.13354585607757,-158.3942310666085L101.44062634671263,-137.1734279165853A170.6070045455344,170.6070045455344,0,0,0,100.43394872228724,-137.91218925116436Z" fill-rule="evenodd" style="fill: #1DC690; stroke: #fff; opacity: 1;" id="p-type-logs"></path><path d="M117.13354585607757,-158.3942310666085A197,197,0,0,1,118.28968253067131,-157.53269821466588L102.44187007715767,-136.42731858060813A170.6070045455344,170.6070045455344,0,0,0,101.44062634671263,-137.1734279165853Z" fill-rule="evenodd" style="fill: #1DC690; stroke: #fff; opacity: 1;" id="p-type-logs"></path><path d="M118.28968253067131,-157.53269821466588A197,197,0,0,1,119.43948275391422,-156.6627267714865L103.43762627976305,-135.67390121024778A170.6070045455344,170.6070045455344,0,0,0,102.44187007715767,-136.42731858060813Z" fill-rule="evenodd" style="fill: #1DC690; stroke: #fff; opacity: 1;" id="p-type-logs"></path><path d="M119.43948275391422,-156.6627267714865A197,197,0,0,1,120.58288493418628,-155.78436333903605L104.42784161462117,-134.91321616399037A170.6070045455344,170.6070045455344,0,0,0,103.43762627976305,-135.67390121024778Z" fill-rule="evenodd" style="fill: #1DC690; stroke: #fff; opacity: 1;" id="p-type-logs"></path><path d="M120.58288493418628,-155.78436333903605A197,197,0,0,1,121.71982782259298,-154.89765496881586L105.41246303863343,-134.14530418963142A170.6070045455344,170.6070045455344,0,0,0,104.42784161462117,-134.91321616399037Z" fill-rule="evenodd" style="fill: #1DC690; stroke: #fff; opacity: 1;" id="p-type-logs"></path><path d="M121.71982782259298,-154.89765496881586A197,197,0,0,1,122.85025051624616,-154.00264915934258L106.39143780835153,-133.3702064220929A170.6070045455344,170.6070045455344,0,0,0,105.41246303863343,-134.14530418963142Z" fill-rule="evenodd" style="fill: #1DC690; stroke: #fff; opacity: 1;" id="p-type-logs"></path><path d="M122.85025051624616,-154.00264915934258A197,197,0,0,1,123.97409246152657,-153.0993938536037L107.36471348280288,-132.58796438121993A170.6070045455344,170.6070045455344,0,0,0,106.39143780835153,-133.3702064220929Z" fill-rule="evenodd" style="fill: #1DC690; stroke: #fff; opacity: 1;" id="p-type-logs"></path><path d="M123.97409246152657,-153.0993938536037A197,197,0,0,1,125.09129345732735,-152.1879374364894L108.33223792629963,-131.79861996955663A170.6070045455344,170.6070045455344,0,0,0,107.36471348280288,-132.58796438121993Z" fill-rule="evenodd" style="fill: #1DC690; stroke: #fff; opacity: 1;" id="p-type-logs"></path><path d="M125.09129345732735,-152.1879374364894A197,197,0,0,1,126.20179365827903,-151.26832873220079L109.2939593112315,-131.0022154701014A170.6070045455344,170.6070045455344,0,0,0,108.33223792629963,-131.79861996955663Z" fill-rule="evenodd" style="fill: #1DC690; stroke: #fff; opacity: 1;" id="p-type-logs"></path><path d="M126.20179365827903,-151.26832873220079A197,197,0,0,1,127.30553357795515,-150.34061700163446L110.249826120842,-130.1987935440421A170.6070045455344,170.6070045455344,0,0,0,109.2939593112315,-131.0022154701014Z" fill-rule="evenodd" style="fill: #1DC690; stroke: #fff; opacity: 1;" id="p-type-logs"></path><path d="M127.30553357795515,-150.34061700163446A197,197,0,0,1,128.40245409205886,-149.40485193974362L111.19978715198812,-129.38839722847075A170.6070045455344,170.6070045455344,0,0,0,110.249826120842,-130.1987935440421Z" fill-rule="evenodd" style="fill: #1DC690; stroke: #fff; opacity: 1;" id="p-type-logs"></path><path d="M128.40245409205886,-149.40485193974362A197,197,0,0,1,129.49249644159002,-148.46108367287636L112.14379151788297,-128.57106993407808A170.6070045455344,170.6070045455344,0,0,0,111.19978715198812,-129.38839722847075Z" fill-rule="evenodd" style="fill: #1DC690; stroke: #fff; opacity: 1;" id="p-type-logs"></path><path d="M129.49249644159002,-148.46108367287636A197,197,0,0,1,130.57560223599273,-147.50936275609018L113.08178865082186,-127.74685544282823A170.6070045455344,170.6070045455344,0,0,0,112.14379151788297,-128.57106993407808Z" fill-rule="evenodd" style="fill: #1DC690; stroke: #fff; opacity: 1;" id="p-type-logs"></path><path d="M130.57560223599273,-147.50936275609018A197,197,0,0,1,131.65171345628323,-146.54974017044415L114.0137283048909,-126.91579790561346A170.6070045455344,170.6070045455344,0,0,0,113.08178865082186,-127.74685544282823Z" fill-rule="evenodd" style="fill: #1DC690; stroke: #fff; opacity: 1;" id="p-type-logs"></path><path d="M131.65171345628323,-146.54974017044415A197,197,0,0,1,132.7207724581577,-145.58226732026785L114.93956055865863,-126.07794183988905A170.6070045455344,170.6070045455344,0,0,0,114.0137283048909,-126.91579790561346Z" fill-rule="evenodd" style="fill: #1DC690; stroke: #fff; opacity: 1;" id="p-type-logs"></path><path d="M132.7207724581577,-145.58226732026785A197,197,0,0,1,133.7827219750802,-144.60699603040786L115.8592358178501,-125.23333212728869A170.6070045455344,170.6070045455344,0,0,0,114.93956055865863,-126.07794183988905Z" fill-rule="evenodd" style="fill: #1DC690; stroke: #fff; opacity: 1;" id="p-type-logs"></path><path d="M133.7827219750802,-144.60699603040786A197,197,0,0,1,134.8375051213502,-143.6239785434516L116.77270481800363,-124.38201401122024A170.6070045455344,170.6070045455344,0,0,0,115.8592358178501,-125.23333212728869Z" fill-rule="evenodd" style="fill: #1DC690; stroke: #fff; opacity: 1;" id="p-type-logs"></path><path d="M134.8375051213502,-143.6239785434516A197,197,0,0,1,135.88506539514998,-142.63326751692892L117.6799186271096,-123.52403309444223A170.6070045455344,170.6070045455344,0,0,0,116.77270481800363,-124.38201401122024Z" fill-rule="evenodd" style="fill: #1DC690; stroke: #fff; opacity: 1;" id="p-type-logs"></path><path d="M135.88506539514998,-142.63326751692892A197,197,0,0,1,136.92534668157094,-141.63491602049123L118.58082864823173,-122.65943533662097A170.6070045455344,170.6070045455344,0,0,0,117.6799186271096,-123.52403309444223Z" fill-rule="evenodd" style="fill: #1DC690; stroke: #fff; opacity: 1;" id="p-type-logs"></path><path d="M136.92534668157094,-141.63491602049123A197,197,0,0,1,137.95829325561988,-140.62897753306885L119.47538662211021,-121.7882670518687A170.6070045455344,170.6070045455344,0,0,0,118.58082864823173,-122.65943533662097Z" fill-rule="evenodd" style="fill: #1DC690; stroke: #fff; opacity: 1;" id="p-type-logs"></path><path d="M196.9637941395441,-3.7767443857493586A197,197,0,0,1,165.02142596921675,107.59613827218111L142.91274705807479,93.18098909281193A170.6070045455344,170.6070045455344,0,0,0,170.57564935061373,-3.2707565816592Z" fill-rule="evenodd" style="fill: #414552; stroke: #fff; opacity: 1;" id="p-type-ether"></path><path d="M165.02142596921675,107.59613827218111A197,197,0,0,1,142.68901258512008,135.8265279225065L123.57230973963146,117.62922368872702A170.6070045455344,170.6070045455344,0,0,0,142.91274705807479,93.18098909281193Z" fill-rule="evenodd" style="fill: #414552; stroke: #fff; opacity: 1;" id="p-type-ether"></path><path d="M142.68901258512008,135.8265279225065A197,197,0,0,1,132.37476455394267,145.8969557917102L114.63990892369819,126.35047005043621A170.6070045455344,170.6070045455344,0,0,0,123.57230973963146,117.62922368872702Z" fill-rule="evenodd" style="fill: #414552; stroke: #fff; opacity: 1;" id="p-type-ether"></path><path d="M132.37476455394267,145.8969557917102A197,197,0,0,1,121.52203236224985,155.0528801749529L105.24116714522303,134.27973316145375A170.6070045455344,170.6070045455344,0,0,0,114.63990892369819,126.35047005043621Z" fill-rule="evenodd" style="fill: #414552; stroke: #fff; opacity: 1;" id="p-type-ether"></path><path d="M121.52203236224985,155.0528801749529A197,197,0,0,1,117.5106959389508,158.114630379176L101.76724789952026,136.93128661835317A170.6070045455344,170.6070045455344,0,0,0,105.24116714522303,134.27973316145375Z" fill-rule="evenodd" style="fill: #414552; stroke: #fff; opacity: 1;" id="p-type-ether"></path><path d="M117.5106959389508,158.114630379176A197,197,0,0,1,114.01343108992967,160.65471524702244L98.7385276965056,139.1310646416766A170.6070045455344,170.6070045455344,0,0,0,101.76724789952026,136.93128661835317Z" fill-rule="evenodd" style="fill: #414552; stroke: #fff; opacity: 1;" id="p-type-ether"></path><path d="M114.01343108992967,160.65471524702244A197,197,0,0,1,111.66879859096484,162.29318969460957L96.70801638986347,140.55002513673875A170.6070045455344,170.6070045455344,0,0,0,98.7385276965056,139.1310646416766Z" fill-rule="evenodd" style="fill: #414552; stroke: #fff; opacity: 1;" id="p-type-ether"></path><path d="M111.66879859096484,162.29318969460957A197,197,0,0,1,109.42878104708633,163.81191006318448L94.76810429194187,141.8652755571695A170.6070045455344,170.6070045455344,0,0,0,96.70801638986347,140.55002513673875Z" fill-rule="evenodd" style="fill: #414552; stroke: #fff; opacity: 1;" id="p-type-ether"></path><path d="M109.42878104708633,163.81191006318448A197,197,0,0,1,107.19032214760554,165.28531343677375L92.82954201966415,143.1412803087195A170.6070045455344,170.6070045455344,0,0,0,94.76810429194187,141.8652755571695Z" fill-rule="evenodd" style="fill: #414552; stroke: #fff; opacity: 1;" id="p-type-ether"></path><path d="M107.19032214760554,165.28531343677375A197,197,0,0,1,105.2498209204107,166.52770098761792L91.14901866083854,144.21721948909607A170.6070045455344,170.6070045455344,0,0,0,92.82954201966415,143.1412803087195Z" fill-rule="evenodd" style="fill: #414552; stroke: #fff; opacity: 1;" id="p-type-ether"></path><path d="M105.2498209204107,166.52770098761792A197,197,0,0,1,104.0281998385726,167.29355528036936L90.0910637701681,144.8804687622162A170.6070045455344,170.6070045455344,0,0,0,91.14901866083854,144.21721948909607Z" fill-rule="evenodd" style="fill: #414552; stroke: #fff; opacity: 1;" id="p-type-ether"></path><path d="M104.0281998385726,167.29355528036936A197,197,0,0,1,102.82403316527684,168.03635976664705L89.04822484070338,145.52375631737772A170.6070045455344,170.6070045455344,0,0,0,90.0910637701681,144.8804687622162Z" fill-rule="evenodd" style="fill: #414552; stroke: #fff; opacity: 1;" id="p-type-ether"></path><path d="M102.82403316527684,168.03635976664705A197,197,0,0,1,101.96697520185421,168.5578119464786L88.30599087186364,145.9753471519706A170.6070045455344,170.6070045455344,0,0,0,89.04822484070338,145.52375631737772Z" fill-rule="evenodd" style="fill: #414552; stroke: #fff; opacity: 1;" id="p-type-ether"></path><path d="M38.97488758909491,193.1060800115248A197,197,0,0,1,37.56051668930621,193.3861618266218L32.52836163220856,167.4773288822229A170.6070045455344,170.6070045455344,0,0,0,33.75324276179903,167.23477091521087Z" fill-rule="evenodd" style="fill: #D7A449; stroke: #fff; opacity: 1;" id="p-type-tokenTransfers"></path><path d="M37.56051668930621,193.3861618266218A197,197,0,0,1,36.14413377645244,193.65588447953218L31.30173804819099,167.71091555161945A170.6070045455344,170.6070045455344,0,0,0,32.52836163220856,167.4773288822229Z" fill-rule="evenodd" style="fill: #D7A449; stroke: #fff; opacity: 1;" id="p-type-tokenTransfers"></path><path d="M36.14413377645244,193.65588447953218A197,197,0,0,1,34.7258147222515,193.91523352195892L30.07343771658146,167.93551841080819A170.6070045455344,170.6070045455344,0,0,0,31.30173804819099,167.71091555161945Z" fill-rule="evenodd" style="fill: #D7A449; stroke: #fff; opacity: 1;" id="p-type-tokenTransfers"></path><path d="M34.7258147222515,193.91523352195892A197,197,0,0,1,33.305635502135,194.16419506129066L28.843526434033794,168.15112542843474A170.6070045455344,170.6070045455344,0,0,0,30.07343771658146,167.93551841080819Z" fill-rule="evenodd" style="fill: #D7A449; stroke: #fff; opacity: 1;" id="p-type-tokenTransfers"></path><path d="M33.305635502135,194.16419506129066A197,197,0,0,1,31.883672191178515,194.4027557613458L27.61207008349605,168.3577250550271A170.6070045455344,170.6070045455344,0,0,0,28.843526434033794,168.15112542843474Z" fill-rule="evenodd" style="fill: #D7A449; stroke: #fff; opacity: 1;" id="p-type-tokenTransfers"></path><path d="M31.883672191178515,194.4027557613458A197,197,0,0,1,30.460000960026427,194.63090284308706L26.379134630681275,168.5553062236143A170.6070045455344,170.6070045455344,0,0,0,27.61207008349605,168.3577250550271Z" fill-rule="evenodd" style="fill: #D7A449; stroke: #fff; opacity: 1;" id="p-type-tokenTransfers"></path><path d="M30.460000960026427,194.63090284308706A197,197,0,0,1,29.034698070811697,194.84862408530577L25.14478612053396,168.74385835031924A170.6070045455344,170.6070045455344,0,0,0,26.379134630681275,168.5553062236143Z" fill-rule="evenodd" style="fill: #D7A449; stroke: #fff; opacity: 1;" id="p-type-tokenTransfers"></path><path d="M29.034698070811697,194.84862408530577A197,197,0,0,1,27.607839873070677,195.05590782527682L23.909090673692155,168.9233713349256A170.6070045455344,170.6070045455344,0,0,0,25.14478612053396,168.74385835031924Z" fill-rule="evenodd" style="fill: #D7A449; stroke: #fff; opacity: 1;" id="p-type-tokenTransfers"></path><path d="M27.607839873070677,195.05590782527682A197,197,0,0,1,26.179502799653314,195.25274295938314L22.672114482945602,169.09383556141898A170.6070045455344,170.6070045455344,0,0,0,23.909090673692155,168.9233713349256Z" fill-rule="evenodd" style="fill: #D7A449; stroke: #fff; opacity: 1;" id="p-type-tokenTransfers"></path><path d="M26.179502799653314,195.25274295938314A197,197,0,0,1,24.749763362628826,195.43911894371064L21.433923809689936,169.25524189850194A170.6070045455344,170.6070045455344,0,0,0,22.672114482945602,169.09383556141898Z" fill-rule="evenodd" style="fill: #D7A449; stroke: #fff; opacity: 1;" id="p-type-tokenTransfers"></path><path d="M24.749763362628826,195.43911894371064A197,197,0,0,1,23.31869814918719,195.61502579461296L20.19458498037728,169.40758170008309A170.6070045455344,170.6070045455344,0,0,0,21.433923809689936,169.25524189850194Z" fill-rule="evenodd" style="fill: #D7A449; stroke: #fff; opacity: 1;" id="p-type-tokenTransfers"></path><path d="M23.31869814918719,195.61502579461296A197,197,0,0,1,21.88638381753654,195.7804540892463L18.954164382963285,169.55084680574026A170.6070045455344,170.6070045455344,0,0,0,20.19458498037728,169.40758170008309Z" fill-rule="evenodd" style="fill: #D7A449; stroke: #fff; opacity: 1;" id="p-type-tokenTransfers"></path><path d="M21.88638381753654,195.7804540892463A197,197,0,0,1,20.45289709279684,195.9353949660741L17.712728463350953,169.6850295411578A170.6070045455344,170.6070045455344,0,0,0,18.954164382963285,169.55084680574026Z" fill-rule="evenodd" style="fill: #D7A449; stroke: #fff; opacity: 1;" id="p-type-tokenTransfers"></path><path d="M20.45289709279684,195.9353949660741A197,197,0,0,1,19.018314762889894,196.07984012534192L16.47034372183127,169.8101227185374A170.6070045455344,170.6070045455344,0,0,0,17.712728463350953,169.6850295411578Z" fill-rule="evenodd" style="fill: #D7A449; stroke: #fff; opacity: 1;" id="p-type-tokenTransfers"></path><path d="M19.018314762889894,196.07984012534192A197,197,0,0,1,17.582713674426063,196.21378182952174L15.227076709521002,169.92611963698332A170.6070045455344,170.6070045455344,0,0,0,16.47034372183127,169.8101227185374Z" fill-rule="evenodd" style="fill: #D7A449; stroke: #fff; opacity: 1;" id="p-type-tokenTransfers"></path><path d="M17.582713674426063,196.21378182952174A197,197,0,0,1,16.146170728587776,196.33721290372668L13.982994024797712,170.0330140828612A170.6070045455344,170.6070045455344,0,0,0,15.227076709521002,169.92611963698332Z" fill-rule="evenodd" style="fill: #D7A449; stroke: #fff; opacity: 1;" id="p-type-tokenTransfers"></path><path d="M16.146170728587776,196.33721290372668A197,197,0,0,1,14.708762877010159,196.45012673609526L12.738162309732285,170.13080033013105A170.6070045455344,170.6070045455344,0,0,0,13.982994024797712,170.0330140828612Z" fill-rule="evenodd" style="fill: #D7A449; stroke: #fff; opacity: 1;" id="p-type-tokenTransfers"></path><path d="M14.708762877010159,196.45012673609526A197,197,0,0,1,13.270567117658958,196.55251727814556L11.492648246519092,170.21947314065386A170.6070045455344,170.6070045455344,0,0,0,12.738162309732285,170.13080033013105Z" fill-rule="evenodd" style="fill: #D7A449; stroke: #fff; opacity: 1;" id="p-type-tokenTransfers"></path><path d="M13.270567117658958,196.55251727814556A197,197,0,0,1,11.831660490705952,196.64437904509924L10.24651855390401,170.29902776447227A170.6070045455344,170.6070045455344,0,0,0,11.492648246519092,170.21947314065386Z" fill-rule="evenodd" style="fill: #D7A449; stroke: #fff; opacity: 1;" id="p-type-tokenTransfers"></path><path d="M11.831660490705952,196.64437904509924A197,197,0,0,1,10.392120074402131,196.72570711617536L8.999839983610476,170.36945994006496A170.6070045455344,170.6070045455344,0,0,0,10.24651855390401,170.29902776447227Z" fill-rule="evenodd" style="fill: #D7A449; stroke: #fff; opacity: 1;" id="p-type-tokenTransfers"></path><path d="M10.392120074402131,196.72570711617536A197,197,0,0,1,8.95202298094884,196.79649713485392L7.752679316763793,170.430765894575A170.6070045455344,170.6070045455344,0,0,0,8.999839983610476,170.36945994006496Z" fill-rule="evenodd" style="fill: #D7A449; stroke: #fff; opacity: 1;" id="p-type-tokenTransfers"></path><path d="M8.95202298094884,196.79649713485392A197,197,0,0,1,7.511446352367065,196.85674530910927L6.505103360313836,170.48294234401175A170.6070045455344,170.6070045455344,0,0,0,7.752679316763793,170.430765894575Z" fill-rule="evenodd" style="fill: #D7A449; stroke: #fff; opacity: 1;" id="p-type-tokenTransfers"></path><path d="M7.511446352367065,196.85674530910927A197,197,0,0,1,6.0704673563651745,196.90644841161324L5.257178943456404,170.52598649342707A170.6070045455344,170.6070045455344,0,0,0,6.505103360313836,170.48294234401175Z" fill-rule="evenodd" style="fill: #D7A449; stroke: #fff; opacity: 1;" id="p-type-tokenTransfers"></path><path d="M6.0704673563651745,196.90644841161324A197,197,0,0,1,4.629163182205246,196.945603779908L4.008972914053355,170.5598960370649A170.6070045455344,170.6070045455344,0,0,0,5.257178943456404,170.52598649342707Z" fill-rule="evenodd" style="fill: #D7A449; stroke: #fff; opacity: 1;" id="p-type-tokenTransfers"></path><path d="M4.629163182205246,196.945603779908A197,197,0,0,1,3.187611036568249,196.97420931654872L2.760552135051751,170.58466915848464A170.6070045455344,170.6070045455344,0,0,0,4.008972914053355,170.5598960370649Z" fill-rule="evenodd" style="fill: #D7A449; stroke: #fff; opacity: 1;" id="p-type-tokenTransfers"></path><path d="M3.187611036568249,196.97420931654872A197,197,0,0,1,1.7458881394183003,196.99226348921582L1.511983480902196,170.60030453065866A170.6070045455344,170.6070045455344,0,0,0,2.760552135051751,170.58466915848464Z" fill-rule="evenodd" style="fill: #D7A449; stroke: #fff; opacity: 1;" id="p-type-tokenTransfers"></path><path d="M1.7458881394183003,196.99226348921582A197,197,0,0,1,0.30407171986620585,196.99976533079723L0.26333383397655963,170.60680131604332A170.6070045455344,170.6070045455344,0,0,0,1.511983480902196,170.60030453065866Z" fill-rule="evenodd" style="fill: #D7A449; stroke: #fff; opacity: 1;" id="p-type-tokenTransfers"></path><path d="M0.30407171986620585,196.99976533079723A197,197,0,0,1,-1.1377609879674944,196.99671443943998L-0.9853299190147311,170.60415916662376A170.6070045455344,170.6070045455344,0,0,0,0.26333383397655963,170.60680131604332Z" fill-rule="evenodd" style="fill: #D7A449; stroke: #fff; opacity: 1;" id="p-type-tokenTransfers"></path><path d="M-1.1377609879674944,196.99671443943998A197,197,0,0,1,-2.579532749089741,196.98311097857191L-2.2339408906056257,170.59237822393263A170.6070045455344,170.6070045455344,0,0,0,-0.9853299190147311,170.60415916662376Z" fill-rule="evenodd" style="fill: #D7A449; stroke: #fff; opacity: 1;" id="p-type-tokenTransfers"></path><path d="M-2.579532749089741,196.98311097857191A197,197,0,0,1,-4.021166331772222,196.9589556768928L-3.4824321961574283,170.57145911904243A170.6070045455344,170.6070045455344,0,0,0,-2.2339408906056257,170.59237822393263Z" fill-rule="evenodd" style="fill: #D7A449; stroke: #fff; opacity: 1;" id="p-type-tokenTransfers"></path><path d="M-4.021166331772222,196.9589556768928A197,197,0,0,1,-5.462584511688462,196.92424982833543L-4.730736957441621,170.54140297253184A170.6070045455344,170.6070045455344,0,0,0,-3.4824321961574283,170.57145911904243Z" fill-rule="evenodd" style="fill: #D7A449; stroke: #fff; opacity: 1;" id="p-type-tokenTransfers"></path><path d="M-5.462584511688462,196.92424982833543A197,197,0,0,1,-6.903710076050516,196.87899529199615L-5.978788306222346,170.50221139442556A170.6070045455344,170.6070045455344,0,0,0,-4.730736957441621,170.54140297253184Z" fill-rule="evenodd" style="fill: #D7A449; stroke: #fff; opacity: 1;" id="p-type-tokenTransfers"></path><path d="M-6.903710076050516,196.87899529199615A197,197,0,0,1,-8.344465827745049,196.82319449203538L-7.226519387838356,170.45388648410804A170.6070045455344,170.6070045455344,0,0,0,-5.978788306222346,170.50221139442556Z" fill-rule="evenodd" style="fill: #D7A449; stroke: #fff; opacity: 1;" id="p-type-tokenTransfers"></path><path d="M-8.344465827745049,196.82319449203538A197,197,0,0,1,-9.784774589468563,196.75685041754784L-8.473863364784227,170.39643083021124A170.6070045455344,170.6070045455344,0,0,0,-7.226519387838356,170.45388648410804Z" fill-rule="evenodd" style="fill: #D7A449; stroke: #fff; opacity: 1;" id="p-type-tokenTransfers"></path><path d="M-9.784774589468563,196.75685041754784A197,197,0,0,1,-11.22455920786158,196.67996662240213L-9.720753420290663,170.3298475104757A170.6070045455344,170.6070045455344,0,0,0,-8.473863364784227,170.39643083021124Z" fill-rule="evenodd" style="fill: #D7A449; stroke: #fff; opacity: 1;" id="p-type-tokenTransfers"></path><path d="M-11.22455920786158,196.67996662240213A197,197,0,0,1,-12.66374255764153,196.59254722505068L-10.967122761903687,170.25414009158584A170.6070045455344,170.6070045455344,0,0,0,-9.720753420290663,170.3298475104757Z" fill-rule="evenodd" style="fill: #D7A449; stroke: #fff; opacity: 1;" id="p-type-tokenTransfers"></path><path d="M-12.66374255764153,196.59254722505068A197,197,0,0,1,-14.102247545734148,196.494596908309L-12.212904625062524,170.16931262897882A170.6070045455344,170.6070045455344,0,0,0,-10.967122761903687,170.25414009158584Z" fill-rule="evenodd" style="fill: #D7A449; stroke: #fff; opacity: 1;" id="p-type-tokenTransfers"></path><path d="M-14.102247545734148,196.494596908309A197,197,0,0,1,-15.53999711540312,196.38612091910483L-13.458032276675997,170.07536966662735A170.6070045455344,170.6070045455344,0,0,0,-12.212904625062524,170.16931262897882Z" fill-rule="evenodd" style="fill: #D7A449; stroke: #fff; opacity: 1;" id="p-type-tokenTransfers"></path><path d="M-15.53999711540312,196.38612091910483A197,197,0,0,1,-16.97691425037781,196.2671250681971L-14.702439018697234,169.9723162367963A170.6070045455344,170.6070045455344,0,0,0,-13.458032276675997,170.07536966662735Z" fill-rule="evenodd" style="fill: #D7A449; stroke: #fff; opacity: 1;" id="p-type-tokenTransfers"></path><path d="M-16.97691425037781,196.2671250681971A197,197,0,0,1,-18.41292197897882,196.13761572986462L-15.946058191696494,169.86015785977307A170.6070045455344,170.6070045455344,0,0,0,-14.702439018697234,169.9723162367963Z" fill-rule="evenodd" style="fill: #D7A449; stroke: #fff; opacity: 1;" id="p-type-tokenTransfers"></path><path d="M-18.41292197897882,196.13761572986462A197,197,0,0,1,-19.847943378241116,195.99759984156472L-17.188823178431935,169.73890054357193A170.6070045455344,170.6070045455344,0,0,0,-15.946058191696494,169.86015785977307Z" fill-rule="evenodd" style="fill: #D7A449; stroke: #fff; opacity: 1;" id="p-type-tokenTransfers"></path><path d="M-19.847943378241116,195.99759984156472A197,197,0,0,1,-21.28190157803462,195.84708490356155L-18.430667407418117,169.60855078361212A170.6070045455344,170.6070045455344,0,0,0,-17.188823178431935,169.73890054357193Z" fill-rule="evenodd" style="fill: #D7A449; stroke: #fff; opacity: 1;" id="p-type-tokenTransfers"></path><path d="M-21.28190157803462,195.84708490356155A197,197,0,0,1,-22.71471976518191,195.6860789785243L-19.671524356492032,169.46911556237006A170.6070045455344,170.6070045455344,0,0,0,-18.430667407418117,169.60855078361212Z" fill-rule="evenodd" style="fill: #D7A449; stroke: #fff; opacity: 1;" id="p-type-tokenTransfers"></path><path d="M-22.71471976518191,195.6860789785243A197,197,0,0,1,-24.146321187572873,195.5145906910954L-20.911327556376545,169.32060234900513A170.6070045455344,170.6070045455344,0,0,0,-19.671524356492032,169.46911556237006Z" fill-rule="evenodd" style="fill: #D7A449; stroke: #fff; opacity: 1;" id="p-type-tokenTransfers"></path><path d="M-24.146321187572873,195.5145906910954A197,197,0,0,1,-25.57662915827614,195.3326292274284L-22.15001059424094,169.16301909895972A170.6070045455344,170.6070045455344,0,0,0,-20.911327556376545,169.32060234900513Z" fill-rule="evenodd" style="fill: #D7A449; stroke: #fff; opacity: 1;" id="p-type-tokenTransfers"></path><path d="M-25.57662915827614,195.3326292274284A197,197,0,0,1,-27.005567059646967,195.140204334696L-23.3875071172585,168.99637425353296A170.6070045455344,170.6070045455344,0,0,0,-22.15001059424094,169.16301909895972Z" fill-rule="evenodd" style="fill: #D7A449; stroke: #fff; opacity: 1;" id="p-type-tokenTransfers"></path><path d="M-27.005567059646967,195.140204334696A197,197,0,0,1,-28.433058347431434,194.93732632056785L-24.62375083616081,168.82067673942865A170.6070045455344,170.6070045455344,0,0,0,-23.3875071172585,168.99637425353296Z" fill-rule="evenodd" style="fill: #D7A449; stroke: #fff; opacity: 1;" id="p-type-tokenTransfers"></path><path d="M-28.433058347431434,194.93732632056785A197,197,0,0,1,-29.859026554866716,194.72400605265844L-25.858675528788723,168.635935968277A170.6070045455344,170.6070045455344,0,0,0,-24.62375083616081,168.82067673942865Z" fill-rule="evenodd" style="fill: #D7A449; stroke: #fff; opacity: 1;" id="p-type-tokenTransfers"></path><path d="M-29.859026554866716,194.72400605265844A197,197,0,0,1,-31.283395296777194,194.50025495794492L-27.092215043639676,168.4421618361305A170.6070045455344,170.6070045455344,0,0,0,-25.858675528788723,168.635935968277Z" fill-rule="evenodd" style="fill: #D7A449; stroke: #fff; opacity: 1;" id="p-type-tokenTransfers"></path><path d="M-31.283395296777194,194.50025495794492A197,197,0,0,1,-32.70608827366619,194.266085022155L-28.324303303411256,168.23936472293389A170.6070045455344,170.6070045455344,0,0,0,-27.092215043639676,168.4421618361305Z" fill-rule="evenodd" style="fill: #D7A449; stroke: #fff; opacity: 1;" id="p-type-tokenTransfers"></path><path d="M-32.70608827366619,194.266085022155A197,197,0,0,1,-34.12702927580314,194.0215087891249L-29.554874308540768,168.02755549196792A170.6070045455344,170.6070045455344,0,0,0,-28.324303303411256,168.23936472293389Z" fill-rule="evenodd" style="fill: #D7A449; stroke: #fff; opacity: 1;" id="p-type-tokenTransfers"></path><path d="M-34.12702927580314,194.0215087891249A197,197,0,0,1,-35.546142187305904,193.76653936012747L-30.78386214074066,167.8067454892677A170.6070045455344,170.6070045455344,0,0,0,-29.554874308540768,168.02755549196792Z" fill-rule="evenodd" style="fill: #D7A449; stroke: #fff; opacity: 1;" id="p-type-tokenTransfers"></path><path d="M-35.546142187305904,193.76653936012747A197,197,0,0,1,-36.96335099021812,193.50119039317028L-32.01120096652958,167.57694654301483A170.6070045455344,170.6070045455344,0,0,0,-30.78386214074066,167.8067454892677Z" fill-rule="evenodd" style="fill: #D7A449; stroke: #fff; opacity: 1;" id="p-type-tokenTransfers"></path><path d="M-36.96335099021812,193.50119039317028A197,197,0,0,1,-38.37857976858127,193.2254761022641L-33.23682504075888,167.3381709629037A170.6070045455344,170.6070045455344,0,0,0,-32.01120096652958,167.57694654301483Z" fill-rule="evenodd" style="fill: #D7A449; stroke: #fff; opacity: 1;" id="p-type-tokenTransfers"></path><path d="M-38.37857976858127,193.2254761022641A197,197,0,0,1,-39.79175271250125,192.9394112566615L-34.46066871013442,167.09043153948213A170.6070045455344,170.6070045455344,0,0,0,-33.23682504075888,167.3381709629037Z" fill-rule="evenodd" style="fill: #D7A449; stroke: #fff; opacity: 1;" id="p-type-tokenTransfers"></path><path d="M-39.79175271250125,192.9394112566615A197,197,0,0,1,-41.20279412220935,192.64301118006549L-35.68266641673345,166.83374154346632A170.6070045455344,170.6070045455344,0,0,0,-34.46066871013442,167.09043153948213Z" fill-rule="evenodd" style="fill: #D7A449; stroke: #fff; opacity: 1;" id="p-type-tokenTransfers"></path><path d="M-41.20279412220935,192.64301118006549A197,197,0,0,1,-42.61162841211724,192.336291749809L-36.90275270151629,166.56811472502994A170.6070045455344,170.6070045455344,0,0,0,-35.68266641673345,166.83374154346632Z" fill-rule="evenodd" style="fill: #D7A449; stroke: #fff; opacity: 1;" id="p-type-tokenTransfers"></path><path d="M-42.61162841211724,192.336291749809A197,197,0,0,1,-44.018180114865906,192.01926939600418L-38.12086220783289,166.2935653130674A170.6070045455344,170.6070045455344,0,0,0,-36.90275270151629,166.56811472502994Z" fill-rule="evenodd" style="fill: #D7A449; stroke: #fff; opacity: 1;" id="p-type-tokenTransfers"></path><path d="M-44.018180114865906,192.01926939600418A197,197,0,0,1,-45.42237388536822,191.69196110066227L-39.33692968492376,166.01010801443195A170.6070045455344,170.6070045455344,0,0,0,-38.12086220783289,166.2935653130674Z" fill-rule="evenodd" style="fill: #D7A449; stroke: #fff; opacity: 1;" id="p-type-tokenTransfers"></path><path d="M-45.42237388536822,191.69196110066227A197,197,0,0,1,-46.82413450484498,191.35438439678404L-40.55088999141523,165.71775801314757A170.6070045455344,170.6070045455344,0,0,0,-39.33692968492376,166.01010801443195Z" fill-rule="evenodd" style="fill: #D7A449; stroke: #fff; opacity: 1;" id="p-type-tokenTransfers"></path><path d="M-46.82413450484498,191.35438439678404A197,197,0,0,1,-48.223386884854115,191.00655736742047L-41.76267809880899,165.41653096959584A170.6070045455344,170.6070045455344,0,0,0,-40.55088999141523,165.71775801314757Z" fill-rule="evenodd" style="fill: #D7A449; stroke: #fff; opacity: 1;" id="p-type-tokenTransfers"></path><path d="M-48.223386884854115,191.00655736742047A197,197,0,0,1,-49.62005607131305,190.64849864470412L-42.97222909496537,165.10644301967687A170.6070045455344,170.6070045455344,0,0,0,-41.76267809880899,165.41653096959584Z" fill-rule="evenodd" style="fill: #D7A449; stroke: #fff; opacity: 1;" id="p-type-tokenTransfers"></path><path d="M-49.62005607131305,190.64849864470412A197,197,0,0,1,-51.014067248513754,190.28022740885118L-44.17947818758063,164.78751077394514A170.6070045455344,170.6070045455344,0,0,0,-42.97222909496537,165.10644301967687Z" fill-rule="evenodd" style="fill: #D7A449; stroke: #fff; opacity: 1;" id="p-type-tokenTransfers"></path><path d="M-51.014067248513754,190.28022740885118A197,197,0,0,1,-52.40534574313037,189.90176338713385L-45.384360707657585,164.45975131671952A170.6070045455344,170.6070045455344,0,0,0,-44.17947818758063,164.78751077394514Z" fill-rule="evenodd" style="fill: #D7A449; stroke: #fff; opacity: 1;" id="p-type-tokenTransfers"></path><path d="M-52.40534574313037,189.90176338713385A197,197,0,0,1,-53.79381702821932,189.51312685282375L-46.58681211296985,164.1231822051682A170.6070045455344,170.6070045455344,0,0,0,-45.384360707657585,164.45975131671952Z" fill-rule="evenodd" style="fill: #D7A449; stroke: #fff; opacity: 1;" id="p-type-tokenTransfers"></path><path d="M-53.79381702821932,189.51312685282375A197,197,0,0,1,-55.17940672721147,189.11433862410584L-47.786767991519085,163.77782146836833A170.6070045455344,170.6070045455344,0,0,0,-46.58681211296985,164.1231822051682Z" fill-rule="evenodd" style="fill: #D7A449; stroke: #fff; opacity: 1;" id="p-type-tokenTransfers"></path><path d="M-55.17940672721147,189.11433862410584A197,197,0,0,1,-56.562040617896315,188.70542006296333L-48.98416406498547,163.42368760633994A170.6070045455344,170.6070045455344,0,0,0,-47.786767991519085,163.77782146836833Z" fill-rule="evenodd" style="fill: #D7A449; stroke: #fff; opacity: 1;" id="p-type-tokenTransfers"></path><path d="M-56.562040617896315,188.70542006296333A197,197,0,0,1,-57.94164463639779,188.28639307403336L-50.178936192170845,163.06079958905525A170.6070045455344,170.6070045455344,0,0,0,-48.98416406498547,163.42368760633994Z" fill-rule="evenodd" style="fill: #D7A449; stroke: #fff; opacity: 1;" id="p-type-tokenTransfers"></path><path d="M-57.94164463639779,188.28639307403336A197,197,0,0,1,-59.31814488114172,187.8572801034335L-51.371020372434586,162.6891768554224A170.6070045455344,170.6070045455344,0,0,0,-50.178936192170845,163.06079958905525Z" fill-rule="evenodd" style="fill: #D7A449; stroke: #fff; opacity: 1;" id="p-type-tokenTransfers"></path><path d="M-59.31814488114172,187.8572801034335A197,197,0,0,1,-60.69146761681454,187.41810413755965L-52.560352749121996,162.30883931224406A170.6070045455344,170.6070045455344,0,0,0,-51.371020372434586,162.6891768554224Z" fill-rule="evenodd" style="fill: #D7A449; stroke: #fff; opacity: 1;" id="p-type-tokenTransfers"></path><path d="M-60.69146761681454,187.41810413755965A197,197,0,0,1,-62.06153927831304,186.96888870185438L-53.746869612984845,161.9198073331512A170.6070045455344,170.6070045455344,0,0,0,-52.560352749121996,162.30883931224406Z" fill-rule="evenodd" style="fill: #D7A449; stroke: #fff; opacity: 1;" id="p-type-tokenTransfers"></path><path d="M-62.06153927831304,186.96888870185438A197,197,0,0,1,-63.42828647468506,186.509657859547L-54.93050740559418,161.52210175751168A170.6070045455344,170.6070045455344,0,0,0,-53.746869612984845,161.9198073331512Z" fill-rule="evenodd" style="fill: #D7A449; stroke: #fff; opacity: 1;" id="p-type-tokenTransfers"></path><path d="M-63.42828647468506,186.509657859547A197,197,0,0,1,-64.79163599306088,186.04043621036448L-56.11120272274492,161.115743889314A170.6070045455344,170.6070045455344,0,0,0,-54.93050740559418,161.52210175751168Z" fill-rule="evenodd" style="fill: #D7A449; stroke: #fff; opacity: 1;" id="p-type-tokenTransfers"></path><path d="M-64.79163599306088,186.04043621036448A197,197,0,0,1,-66.15151480257497,185.5612488892137L-57.28889231785225,160.700755496026A170.6070045455344,170.6070045455344,0,0,0,-56.11120272274492,161.115743889314Z" fill-rule="evenodd" style="fill: #D7A449; stroke: #fff; opacity: 1;" id="p-type-tokenTransfers"></path><path d="M-66.15151480257497,185.5612488892137A197,197,0,0,1,-67.5078500582781,185.07212156483493L-58.46351310533962,160.2771588074289A170.6070045455344,170.6070045455344,0,0,0,-57.28889231785225,160.700755496026Z" fill-rule="evenodd" style="fill: #D7A449; stroke: #fff; opacity: 1;" id="p-type-tokenTransfers"></path><path d="M-67.5078500582781,185.07212156483493A197,197,0,0,1,-68.86056910503937,184.57308043842713L-59.63500216401796,159.84497651442652A170.6070045455344,170.6070045455344,0,0,0,-58.46351310533962,160.2771588074289Z" fill-rule="evenodd" style="fill: #D7A449; stroke: #fff; opacity: 1;" id="p-type-tokenTransfers"></path><path d="M-68.86056910503937,184.57308043842713A197,197,0,0,1,-70.20959948143829,184.06415224224412L-60.80329674045631,159.40423176782986A170.6070045455344,170.6070045455344,0,0,0,-59.63500216401796,159.84497651442652Z" fill-rule="evenodd" style="fill: #D7A449; stroke: #fff; opacity: 1;" id="p-type-tokenTransfers"></path><path d="M-70.20959948143829,184.06415224224412A197,197,0,0,1,-71.5548689236462,183.54536423816268L-61.96833425234327,158.9549481771167A170.6070045455344,170.6070045455344,0,0,0,-60.80329674045631,159.40423176782986Z" fill-rule="evenodd" style="fill: #D7A449; stroke: #fff; opacity: 1;" id="p-type-tokenTransfers"></path><path d="M-71.5548689236462,183.54536423816268A197,197,0,0,1,-72.89630536929725,183.01674421622235L-63.1300522918394,158.4971498091673A170.6070045455344,170.6070045455344,0,0,0,-61.96833425234327,158.9549481771167Z" fill-rule="evenodd" style="fill: #D7A449; stroke: #fff; opacity: 1;" id="p-type-tokenTransfers"></path><path d="M-72.89630536929725,183.01674421622235A197,197,0,0,1,-74.2338369613487,182.47832049313666L-64.28838862892019,158.03086118697487A170.6070045455344,170.6070045455344,0,0,0,-63.1300522918394,158.4971498091673Z" fill-rule="evenodd" style="fill: #D7A449; stroke: #fff; opacity: 1;" id="p-type-tokenTransfers"></path><path d="M-74.2338369613487,182.47832049313666A197,197,0,0,1,-75.56739205192996,181.93012191077628L-65.44328121470961,157.55610728833216A170.6070045455344,170.6070045455344,0,0,0,-64.28838862892019,158.03086118697487Z" fill-rule="evenodd" style="fill: #D7A449; stroke: #fff; opacity: 1;" id="p-type-tokenTransfers"></path><path d="M-75.56739205192996,181.93012191077628A197,197,0,0,1,-76.89689920618065,181.37217783462404L-66.59466818480388,157.0729135444933A170.6070045455344,170.6070045455344,0,0,0,-65.44328121470961,157.55610728833216Z" fill-rule="evenodd" style="fill: #D7A449; stroke: #fff; opacity: 1;" id="p-type-tokenTransfers"></path><path d="M-76.89689920618065,181.37217783462404A197,197,0,0,1,-78.22228720607717,180.8045181522021L-67.7424878625853,156.5813058388117A170.6070045455344,170.6070045455344,0,0,0,-66.59466818480388,157.0729135444933Z" fill-rule="evenodd" style="fill: #D7A449; stroke: #fff; opacity: 1;" id="p-type-tokenTransfers"></path><path d="M-78.22228720607717,180.8045181522021A197,197,0,0,1,-79.54348505424764,180.22717327147058L-68.88667876252627,156.0813105053533A170.6070045455344,170.6070045455344,0,0,0,-67.7424878625853,156.5813058388117Z" fill-rule="evenodd" style="fill: #D7A449; stroke: #fff; opacity: 1;" id="p-type-tokenTransfers"></path><path d="M-79.54348505424764,180.22717327147058A197,197,0,0,1,-80.86042197777499,179.6401741191991L-70.02717959348267,155.57295432748623A170.6070045455344,170.6070045455344,0,0,0,-68.88667876252627,156.0813105053533Z" fill-rule="evenodd" style="fill: #D7A449; stroke: #fff; opacity: 1;" id="p-type-tokenTransfers"></path><path d="M-80.86042197777499,179.6401741191991A197,197,0,0,1,-82.17302743198812,179.04355213930975L-71.16392926197727,155.0562645364459A170.6070045455344,170.6070045455344,0,0,0,-70.02717959348267,155.57295432748623Z" fill-rule="evenodd" style="fill: #D7A449; stroke: #fff; opacity: 1;" id="p-type-tokenTransfers"></path></g></svg>