<svg xmlns="http://www.w3.org/2000/svg" width="400" height="400" id="block-7907855"><g id="burst-container" transform="translate(200,200)"><circle r="197" style="fill: #f9f9f9; stroke: #f9f9f9; stroke-width: 3; opacity: 1;" id="circle-base"></circle><path display="none" d="M6.031385485800715e-15,-98.5A98.5,98.5,0,1,1,-6.031385485800715e-15,98.5A98.5,98.5,0,1,1,6.031385485800715e-15,-98.5Z" fill-rule="evenodd" id="p-type-root" style="stroke: #fff; opacity: 1;"></path><path d="M8.529667153919608e-15,-139.30003589374985A139.30003589374985,139.30003589374985,0,1,1,-126.60169825790769,-58.107744735221765L-89.52091934789965,-41.08838034173222A98.5,98.5,0,1,0,6.031385485800715e-15,-98.5Z" fill-rule="evenodd" style="fill: #0B1F65; stroke: #fff; opacity: 1;" id="p-type-data"></path><path d="M-126.60169825790769,-58.107744735221765A139.30003589374985,139.30003589374985,0,0,1,-3.2754006067534194,-139.2615228656691L-2.3160579801378756,-98.47276717668007A98.5,98.5,0,0,0,-89.52091934789965,-41.08838034173222Z" fill-rule="evenodd" style="fill: #D7A449; stroke: #fff; opacity: 1;" id="p-type-value"></path><path d="M1.0446666101440332e-14,-170.6070045455344A170.6070045455344,170.6070045455344,0,0,1,169.3323560542652,20.815936037362125L138.25928975874388,16.996140603316412A139.30003589374985,139.30003589374985,0,0,0,8.529667153919608e-15,-139.30003589374985Z" fill-rule="evenodd" style="fill: #1DC690; stroke: #fff; opacity: 1;" id="p-type-logs"></path><path d="M169.3323560542652,20.815936037362125A170.6070045455344,170.6070045455344,0,0,1,6.405428456273146,170.48671645114047L5.230010433924186,139.20182107595087A139.30003589374985,139.30003589374985,0,0,0,138.25928975874388,16.996140603316412Z" fill-rule="evenodd" style="fill: #D7A449; stroke: #fff; opacity: 1;" id="p-type-tokenTransfers"></path><path d="M6.405428456273146,170.48671645114047A170.6070045455344,170.6070045455344,0,0,1,-104.69811090475001,134.70358411332887L-85.48564958332025,109.98501586724336A139.30003589374985,139.30003589374985,0,0,0,5.230010433924186,139.20182107595087Z" fill-rule="evenodd" style="fill: #414552; stroke: #fff; opacity: 1;" id="p-type-ether"></path><path d="M-155.05478065083793,-71.16716235259447A170.6070045455344,170.6070045455344,0,0,1,-71.9010980484165,-154.71581076099494L-58.707000721481265,-126.32493050181344A139.30003589374985,139.30003589374985,0,0,0,-126.60169825790769,-58.107744735221765Z" fill-rule="evenodd" style="fill: #D7A449; stroke: #fff; opacity: 1;" id="p-type-tokenTransfers"></path><path d="M-71.9010980484165,-154.71581076099494A170.6070045455344,170.6070045455344,0,0,1,-8.020842011264689,-170.41835609297001L-6.548990078359083,-139.14600507723372A139.30003589374985,139.30003589374985,0,0,0,-58.707000721481265,-126.32493050181344Z" fill-rule="evenodd" style="fill: #414552; stroke: #fff; opacity: 1;" id="p-type-ether"></path><path d="M1.206277097160143e-14,-197A197,197,0,0,1,2.3162180799800534,-196.9863831177322L2.005903697967543,-170.59521197957017A170.6070045455344,170.6070045455344,0,0,0,1.0446666101440332e-14,-170.6070045455344Z" fill-rule="evenodd" style="fill: #1DC690; stroke: #fff; opacity: 1;" id="p-type-logs"></path><path d="M2.3162180799800534,-196.9863831177322A197,197,0,0,1,4.632115960275771,-196.94553435336013L4.011530094874167,-170.55983591191074A170.6070045455344,170.6070045455344,0,0,0,2.005903697967543,-170.59521197957017Z" fill-rule="evenodd" style="fill: #1DC690; stroke: #fff; opacity: 1;" id="p-type-logs"></path><path d="M4.632115960275771,-196.94553435336013A197,197,0,0,1,6.947373485468162,-196.87745935391746L6.016601927993868,-170.50088123303075A170.6070045455344,170.6070045455344,0,0,0,4.011530094874167,-170.55983591191074Z" fill-rule="evenodd" style="fill: #1DC690; stroke: #fff; opacity: 1;" id="p-type-logs"></path><path d="M6.947373485468162,-196.87745935391746A197,197,0,0,1,9.26167058866232,-196.7821675302595L8.020842011264744,-170.41835609297001A170.6070045455344,170.6070045455344,0,0,0,6.016601927993868,-170.50088123303075Z" fill-rule="evenodd" style="fill: #1DC690; stroke: #fff; opacity: 1;" id="p-type-logs"></path><path d="M9.26167058866232,-196.7821675302595A197,197,0,0,1,11.5746873357346,-196.65967205576231L10.023973273608185,-170.31227190020684A170.6070045455344,170.6070045455344,0,0,0,8.020842011264744,-170.41835609297001Z" fill-rule="evenodd" style="fill: #1DC690; stroke: #fff; opacity: 1;" id="p-type-logs"></path><path d="M11.5746873357346,-196.65967205576231A197,197,0,0,1,13.88610396956082,-196.50998986450168L12.025718797231605,-170.182643320081A170.6070045455344,170.6070045455344,0,0,0,10.023973273608185,-170.31227190020684Z" fill-rule="evenodd" style="fill: #1DC690; stroke: #fff; opacity: 1;" id="p-type-logs"></path><path d="M13.88610396956082,-196.50998986450168A197,197,0,0,1,16.195600954220378,-196.33314164891178L14.025801855910343,-170.0294882727662A170.6070045455344,170.6070045455344,0,0,0,12.025718797231605,-170.182643320081Z" fill-rule="evenodd" style="fill: #1DC690; stroke: #fff; opacity: 1;" id="p-type-logs"></path><path d="M16.195600954220378,-196.33314164891178A197,197,0,0,1,18.50285901916983,-196.12915185692495L16.023945953243093,-169.85282793079293A170.6070045455344,170.6070045455344,0,0,0,14.025801855910343,-170.0294882727662Z" fill-rule="evenodd" style="fill: #1DC690; stroke: #fff; opacity: 1;" id="p-type-logs"></path><path d="M18.50285901916983,-196.12915185692495A197,197,0,0,1,20.807559203379324,-195.89804868859176L18.01987486087519,-169.65268671612128A170.6070045455344,170.6070045455344,0,0,0,16.023945953243093,-169.85282793079293Z" fill-rule="evenodd" style="fill: #1DC690; stroke: #fff; opacity: 1;" id="p-type-logs"></path><path d="M20.807559203379324,-195.89804868859176A197,197,0,0,1,23.109382899426908,-195.6398640921826L20.01331265668539,-169.4290922967651A170.6070045455344,170.6070045455344,0,0,0,18.01987486087519,-169.65268671612128Z" fill-rule="evenodd" style="fill: #1DC690; stroke: #fff; opacity: 1;" id="p-type-logs"></path><path d="M23.109382899426908,-195.6398640921826A197,197,0,0,1,25.408011897543258,-195.3546337597711L22.00398376292972,-169.1820755829669A170.6070045455344,170.6070045455344,0,0,0,20.01331265668539,-169.4290922967651Z" fill-rule="evenodd" style="fill: #1DC690; stroke: #fff; opacity: 1;" id="p-type-logs"></path><path d="M25.408011897543258,-195.3546337597711A197,197,0,0,1,27.70312842960211,-195.04239712229997L23.991612984338328,-168.91167072292467A170.6070045455344,170.6070045455344,0,0,0,22.00398376292972,-169.1820755829669Z" fill-rule="evenodd" style="fill: #1DC690; stroke: #fff; opacity: 1;" id="p-type-logs"></path><path d="M27.70312842960211,-195.04239712229997A197,197,0,0,1,29.994415213049024,-194.70319734412993L25.97592554615889,-168.61791509807136A170.6070045455344,170.6070045455344,0,0,0,23.991612984338328,-168.91167072292467Z" fill-rule="evenodd" style="fill: #1DC690; stroke: #fff; opacity: 1;" id="p-type-logs"></path><path d="M29.994415213049024,-194.70319734412993A197,197,0,0,1,32.281555494763445,-194.33708131707266L27.956647132142272,-168.30084931790714A170.6070045455344,170.6070045455344,0,0,0,25.97592554615889,-168.61791509807136Z" fill-rule="evenodd" style="fill: #1DC690; stroke: #fff; opacity: 1;" id="p-type-logs"></path><path d="M32.281555494763445,-194.33708131707266A197,197,0,0,1,34.564233094847516,-193.94409965390813L29.933503922464773,-167.9605172143852A170.6070045455344,170.6070045455344,0,0,0,27.956647132142272,-168.30084931790714Z" fill-rule="evenodd" style="fill: #1DC690; stroke: #fff; opacity: 1;" id="p-type-logs"></path><path d="M34.564233094847516,-193.94409965390813A197,197,0,0,1,36.84213245033535,-193.52430668138808L31.90622263158144,-167.59696583585264A170.6070045455344,170.6070045455344,0,0,0,29.933503922464773,-167.9605172143852Z" fill-rule="evenodd" style="fill: #1DC690; stroke: #fff; opacity: 1;" id="p-type-logs"></path><path d="M36.84213245033535,-193.52430668138808A197,197,0,0,1,39.11493865881735,-193.07776043272554L33.87453054600584,-167.21024544054623A170.6070045455344,170.6070045455344,0,0,0,31.90622263158144,-167.59696583585264Z" fill-rule="evenodd" style="fill: #1DC690; stroke: #fff; opacity: 1;" id="p-type-logs"></path><path d="M39.11493865881735,-193.07776043272554A197,197,0,0,1,41.38233752197321,-192.60452263957222L35.838155562010776,-166.80040948964458A170.6070045455344,170.6070045455344,0,0,0,33.87453054600584,-167.21024544054623Z" fill-rule="evenodd" style="fill: #1DC690; stroke: #fff; opacity: 1;" id="p-type-logs"></path><path d="M41.38233752197321,-192.60452263957222A197,197,0,0,1,43.644015589007175,-192.10465872348465L37.796826223244274,-166.36751463987756A170.6070045455344,170.6070045455344,0,0,0,35.838155562010776,-166.80040948964458Z" fill-rule="evenodd" style="fill: #1DC690; stroke: #fff; opacity: 1;" id="p-type-logs"></path><path d="M43.644015589007175,-192.10465872348465A197,197,0,0,1,45.89966019998059,-191.57823778687995L39.750271758256716,-165.9116207356939A170.6070045455344,170.6070045455344,0,0,0,37.796826223244274,-166.36751463987756Z" fill-rule="evenodd" style="fill: #1DC690; stroke: #fff; opacity: 1;" id="p-type-logs"></path><path d="M45.89966019998059,-191.57823778687995A197,197,0,0,1,48.14895952903446,-191.02533260348324L41.69822211793266,-165.43279080098827A170.6070045455344,170.6070045455344,0,0,0,39.750271758256716,-165.9116207356939Z" fill-rule="evenodd" style="fill: #1DC690; stroke: #fff; opacity: 1;" id="p-type-logs"></path><path d="M48.14895952903446,-191.02533260348324A197,197,0,0,1,50.391602627497186,-190.446019608267L43.64040801282323,-164.93109103038856A170.6070045455344,170.6070045455344,0,0,0,41.69822211793266,-165.43279080098827Z" fill-rule="evenodd" style="fill: #1DC690; stroke: #fff; opacity: 1;" id="p-type-logs"></path><path d="M50.391602627497186,-190.446019608267A197,197,0,0,1,52.627279466870974,-189.8403788868845L45.576560950373434,-164.40659078010498A170.6070045455344,170.6070045455344,0,0,0,43.64040801282323,-164.93109103038856Z" fill-rule="evenodd" style="fill: #1DC690; stroke: #fff; opacity: 1;" id="p-type-logs"></path><path d="M52.627279466870974,-189.8403788868845A197,197,0,0,1,54.855680981690675,-189.20849416459868L47.50641327203901,-163.85936255834218A170.6070045455344,170.6070045455344,0,0,0,45.576560950373434,-164.40659078010498Z" fill-rule="evenodd" style="fill: #1DC690; stroke: #fff; opacity: 1;" id="p-type-logs"></path><path d="M54.855680981690675,-189.20849416459868A197,197,0,0,1,57.07649911225003,-188.55045279470775L49.42969819028849,-163.28948201527552A170.6070045455344,170.6070045455344,0,0,0,47.50641327203901,-163.85936255834218Z" fill-rule="evenodd" style="fill: #1DC690; stroke: #fff; opacity: 1;" id="p-type-logs"></path><path d="M57.07649911225003,-188.55045279470775A197,197,0,0,1,59.28942684718835,-187.86634574646916L51.346149825484225,-162.69702793259293A170.6070045455344,170.6070045455344,0,0,0,49.42969819028849,-163.28948201527552Z" fill-rule="evenodd" style="fill: #1DC690; stroke: #fff; opacity: 1;" id="p-type-logs"></path><path d="M59.28942684718835,-187.86634574646916A197,197,0,0,1,61.494158265932775,-187.1562675925239L53.2555032426386,-162.08208221260395A170.6070045455344,170.6070045455344,0,0,0,51.346149825484225,-162.69702793259293Z" fill-rule="evenodd" style="fill: #1DC690; stroke: #fff; opacity: 1;" id="p-type-logs"></path><path d="M61.494158265932775,-187.1562675925239A197,197,0,0,1,63.69038858098919,-186.42031649582242L55.157494488038964,-161.44472986691747A170.6070045455344,170.6070045455344,0,0,0,53.2555032426386,-162.08208221260395Z" fill-rule="evenodd" style="fill: #1DC690; stroke: #fff; opacity: 1;" id="p-type-logs"></path><path d="M63.69038858098919,-186.42031649582242A197,197,0,0,1,65.87781418007715,-185.65859419605448L57.05186062573753,-160.78505900468932A170.6070045455344,170.6070045455344,0,0,0,55.157494488038964,-161.44472986691747Z" fill-rule="evenodd" style="fill: #1DC690; stroke: #fff; opacity: 1;" id="p-type-logs"></path><path d="M65.87781418007715,-185.65859419605448A197,197,0,0,1,68.05613266810163,-184.87120599558426L58.93833977390004,-160.10316082044199A170.6070045455344,170.6070045455344,0,0,0,57.05186062573753,-160.78505900468932Z" fill-rule="evenodd" style="fill: #1DC690; stroke: #fff; opacity: 1;" id="p-type-logs"></path><path d="M68.05613266810163,-184.87120599558426A197,197,0,0,1,70.22504290895718,-184.0582607448933L60.81667114100917,-159.3991295814577A170.6070045455344,170.6070045455344,0,0,0,58.93833977390004,-160.10316082044199Z" fill-rule="evenodd" style="fill: #1DC690; stroke: #fff; opacity: 1;" id="p-type-logs"></path><path d="M70.22504290895718,-184.0582607448933A197,197,0,0,1,72.38424506715744,-183.2198708275325L62.68659506191678,-158.67306261474653A170.6070045455344,170.6070045455344,0,0,0,60.81667114100917,-159.3991295814577Z" fill-rule="evenodd" style="fill: #1DC690; stroke: #fff; opacity: 1;" id="p-type-logs"></path><path d="M72.38424506715744,-183.2198708275325A197,197,0,0,1,74.53344064928545,-182.35615214458613L64.54785303374092,-157.9250602935917A170.6070045455344,170.6070045455344,0,0,0,62.68659506191678,-158.67306261474653Z" fill-rule="evenodd" style="fill: #1DC690; stroke: #fff; opacity: 1;" id="p-type-logs"></path><path d="M74.53344064928545,-182.35615214458613A197,197,0,0,1,76.67233254525773,-181.46722409864933L66.40018775160158,-157.15522602367398A170.6070045455344,170.6070045455344,0,0,0,64.54785303374092,-157.9250602935917Z" fill-rule="evenodd" style="fill: #1DC690; stroke: #fff; opacity: 1;" id="p-type-logs"></path><path d="M76.67233254525773,-181.46722409864933A197,197,0,0,1,78.80062506939791,-180.5532095773215L68.24334314419148,-156.36366622877622A170.6070045455344,170.6070045455344,0,0,0,66.40018775160158,-157.15522602367398Z" fill-rule="evenodd" style="fill: #1DC690; stroke: #fff; opacity: 1;" id="p-type-logs"></path><path d="M78.80062506939791,-180.5532095773215A197,197,0,0,1,80.91802400131269,-179.6142349362182L70.07706440917572,-155.55049033607136A170.6070045455344,170.6070045455344,0,0,0,68.24334314419148,-156.36366622877622Z" fill-rule="evenodd" style="fill: #1DC690; stroke: #fff; opacity: 1;" id="p-type-logs"></path><path d="M80.91802400131269,-179.6142349362182A197,197,0,0,1,83.0242366265659,-178.65042998150324L71.90109804841651,-154.71581076099494A170.6070045455344,170.6070045455344,0,0,0,70.07706440917572,-155.55049033607136Z" fill-rule="evenodd" style="fill: #1DC690; stroke: #fff; opacity: 1;" id="p-type-logs"></path><path d="M83.0242366265659,-178.65042998150324A197,197,0,0,1,85.11897177714378,-177.66192795194416L73.71519190301717,-153.8597428917043A170.6070045455344,170.6070045455344,0,0,0,71.90109804841651,-154.71581076099494Z" fill-rule="evenodd" style="fill: #1DC690; stroke: #fff; opacity: 1;" id="p-type-logs"></path><path d="M85.11897177714378,-177.66192795194416A197,197,0,0,1,87.20193987170703,-176.6488655004928L75.51909518818142,-152.98240507312727A170.6070045455344,170.6070045455344,0,0,0,73.71519190301717,-153.8597428917043Z" fill-rule="evenodd" style="fill: #1DC690; stroke: #fff; opacity: 1;" id="p-type-logs"></path><path d="M87.20193987170703,-176.6488655004928A197,197,0,0,1,89.27285295562297,-175.61138267539414L77.3125585278822,-152.08391859060177A170.6070045455344,170.6070045455344,0,0,0,75.51909518818142,-152.98240507312727Z" fill-rule="evenodd" style="fill: #1DC690; stroke: #fff; opacity: 1;" id="p-type-logs"></path><path d="M89.27285295562297,-175.61138267539414A197,197,0,0,1,91.3314247407734,-174.54962290082568L79.09533398933635,-151.16440765310904A170.6070045455344,170.6070045455344,0,0,0,77.3125585278822,-152.08391859060177Z" fill-rule="evenodd" style="fill: #1DC690; stroke: #fff; opacity: 1;" id="p-type-logs"></path><path d="M91.3314247407734,-174.54962290082568A197,197,0,0,1,93.37737064513146,-173.46373295707014L80.86717511727916,-150.2239993761027A170.6070045455344,170.6070045455344,0,0,0,79.09533398933635,-151.16440765310904Z" fill-rule="evenodd" style="fill: #1DC690; stroke: #fff; opacity: 1;" id="p-type-logs"></path><path d="M93.37737064513146,-173.46373295707014A197,197,0,0,1,95.41040783210327,-172.35386296022415L82.6278369680352,-149.26282376393593A170.6070045455344,170.6070045455344,0,0,0,80.86717511727916,-150.2239993761027Z" fill-rule="evenodd" style="fill: #1DC690; stroke: #fff; opacity: 1;" id="p-type-logs"></path><path d="M95.41040783210327,-172.35386296022415A197,197,0,0,1,97.4302552496276,-171.22016634144592L84.37707614337967,-148.28101369188946A170.6070045455344,170.6070045455344,0,0,0,82.6278369680352,-149.26282376393593Z" fill-rule="evenodd" style="fill: #1DC690; stroke: #fff; opacity: 1;" id="p-type-logs"></path><path d="M97.4302552496276,-171.22016634144592A197,197,0,0,1,99.43663366902959,-170.0627998257444L86.11465082418665,-147.27870488780243A170.6070045455344,170.6070045455344,0,0,0,84.37707614337967,-148.28101369188946Z" fill-rule="evenodd" style="fill: #1DC690; stroke: #fff; opacity: 1;" id="p-type-logs"></path><path d="M99.43663366902959,-170.0627998257444A197,197,0,0,1,101.42926572362168,-168.88192341031333L87.84032080385859,-146.25603591330926A170.6070045455344,170.6070045455344,0,0,0,86.11465082418665,-147.27870488780243Z" fill-rule="evenodd" style="fill: #1DC690; stroke: #fff; opacity: 1;" id="p-type-logs"></path><path d="M101.42926572362168,-168.88192341031333A197,197,0,0,1,103.40787594704754,-167.67770034241292L89.55384752153299,-145.21314814468425A170.6070045455344,170.6070045455344,0,0,0,87.84032080385859,-146.25603591330926Z" fill-rule="evenodd" style="fill: #1DC690; stroke: #fff; opacity: 1;" id="p-type-logs"></path><path d="M103.40787594704754,-167.67770034241292A197,197,0,0,1,105.37219081136345,-166.45029709680188L91.25499409506195,-144.15018575329762A170.6070045455344,170.6070045455344,0,0,0,89.55384752153299,-145.21314814468425Z" fill-rule="evenodd" style="fill: #1DC690; stroke: #fff; opacity: 1;" id="p-type-logs"></path><path d="M105.37219081136345,-166.45029709680188A197,197,0,0,1,107.32193876485118,-165.19988335272373L92.94352535375904,-143.06729568568474A170.6070045455344,170.6070045455344,0,0,0,91.25499409506195,-144.15018575329762Z" fill-rule="evenodd" style="fill: #1DC690; stroke: #fff; opacity: 1;" id="p-type-logs"></path><path d="M107.32193876485118,-165.19988335272373A197,197,0,0,1,109.25685026955807,-163.92663197045002L94.61920787090997,-141.96462764323203A170.6070045455344,170.6070045455344,0,0,0,92.94352535375904,-143.06729568568474Z" fill-rule="evenodd" style="fill: #1DC690; stroke: #fff; opacity: 1;" id="p-type-logs"></path><path d="M109.25685026955807,-163.92663197045002A197,197,0,0,1,111.17665783855865,-162.63071896738344L96.28180999604214,-140.8423340614818A170.6070045455344,170.6070045455344,0,0,0,94.61920787090997,-141.96462764323203Z" fill-rule="evenodd" style="fill: #1DC690; stroke: #fff; opacity: 1;" id="p-type-logs"></path><path d="M111.17665783855865,-162.63071896738344A197,197,0,0,1,113.08109607293272,-161.3123234937249L97.93110188694845,-139.7005700890591A170.6070045455344,170.6070045455344,0,0,0,96.28180999604214,-140.8423340614818Z" fill-rule="evenodd" style="fill: #1DC690; stroke: #fff; opacity: 1;" id="p-type-logs"></path><path d="M113.08109607293272,-161.3123234937249A197,197,0,0,1,114.96990169845462,-159.97162780770745L99.56685554146138,-138.53949356622377A170.6070045455344,170.6070045455344,0,0,0,97.93110188694845,-139.7005700890591Z" fill-rule="evenodd" style="fill: #1DC690; stroke: #fff; opacity: 1;" id="p-type-logs"></path><path d="M114.96990169845462,-159.97162780770745A197,197,0,0,1,116.84281360198904,-158.6088172504002L101.18884482897245,-137.35926500305007A170.6070045455344,170.6070045455344,0,0,0,99.56685554146138,-138.53949356622377Z" fill-rule="evenodd" style="fill: #1DC690; stroke: #fff; opacity: 1;" id="p-type-logs"></path><path d="M116.84281360198904,-158.6088172504002A197,197,0,0,1,118.69957286758786,-157.2240802200865L102.79684552169317,-136.1600475572374A170.6070045455344,170.6070045455344,0,0,0,101.18884482897245,-137.35926500305007Z" fill-rule="evenodd" style="fill: #1DC690; stroke: #fff; opacity: 1;" id="p-type-logs"></path><path d="M118.69957286758786,-157.2240802200865A197,197,0,0,1,120.5399228122834,-155.81760814621936L104.3906353256528,-134.94200701155506A170.6070045455344,170.6070045455344,0,0,0,102.79684552169317,-136.1600475572374Z" fill-rule="evenodd" style="fill: #1DC690; stroke: #fff; opacity: 1;" id="p-type-logs"></path><path d="M120.5399228122834,-155.81760814621936A197,197,0,0,1,122.36360902157278,-154.38959546295752L105.96999391142874,-133.70531175092393A170.6070045455344,170.6070045455344,0,0,0,104.3906353256528,-134.94200701155506Z" fill-rule="evenodd" style="fill: #1DC690; stroke: #fff; opacity: 1;" id="p-type-logs"></path><path d="M122.36360902157278,-154.38959546295752A197,197,0,0,1,124.170379384589,-152.94023958228664L107.53470294460563,-132.45013273913855A170.6070045455344,170.6070045455344,0,0,0,105.96999391142874,-133.70531175092393Z" fill-rule="evenodd" style="fill: #1DC690; stroke: #fff; opacity: 1;" id="p-type-logs"></path><path d="M124.170379384589,-152.94023958228664A197,197,0,0,1,125.95998412895318,-151.46974086672844L109.08454611595816,-131.17664349523278A170.6070045455344,170.6070045455344,0,0,0,107.53470294460563,-132.45013273913855Z" fill-rule="evenodd" style="fill: #1DC690; stroke: #fff; opacity: 1;" id="p-type-logs"></path><path d="M125.95998412895318,-151.46974086672844A197,197,0,0,1,127.73217585530378,-149.9783026016422L110.61930917135437,-129.8850200694919A170.6070045455344,170.6070045455344,0,0,0,109.08454611595816,-131.17664349523278Z" fill-rule="evenodd" style="fill: #1DC690; stroke: #fff; opacity: 1;" id="p-type-logs"></path><path d="M127.73217585530378,-149.9783026016422A197,197,0,0,1,129.48670957149773,-148.46613096712193L112.13877994137464,-128.57544101911512A170.6070045455344,170.6070045455344,0,0,0,110.61930917135437,-129.8850200694919Z" fill-rule="evenodd" style="fill: #1DC690; stroke: #fff; opacity: 1;" id="p-type-logs"></path><path d="M129.48670957149773,-148.46613096712193A197,197,0,0,1,131.22334272647868,-146.9334350094937L113.64274837064247,-127.24808738353136A170.6070045455344,170.6070045455344,0,0,0,112.13877994137464,-128.57544101911512Z" fill-rule="evenodd" style="fill: #1DC690; stroke: #fff; opacity: 1;" id="p-type-logs"></path><path d="M131.22334272647868,-146.9334350094937A197,197,0,0,1,132.94183524380796,-145.3804266124165L115.13100654686309,-125.90314265937194A170.6070045455344,170.6070045455344,0,0,0,113.64274837064247,-127.24808738353136Z" fill-rule="evenodd" style="fill: #1DC690; stroke: #fff; opacity: 1;" id="p-type-logs"></path><path d="M132.94183524380796,-145.3804266124165A197,197,0,0,1,134.64194955485317,-143.80732046759084L116.60334872956574,-124.54079277510353A170.6070045455344,170.6070045455344,0,0,0,115.13100654686309,-125.90314265937194Z" fill-rule="evenodd" style="fill: #1DC690; stroke: #fff; opacity: 1;" id="p-type-logs"></path><path d="M134.64194955485317,-143.80732046759084A197,197,0,0,1,136.32345063163044,-142.21433404507937L118.05957137854574,-123.16122606532488A170.6070045455344,170.6070045455344,0,0,0,116.60334872956574,-124.54079277510353Z" fill-rule="evenodd" style="fill: #1DC690; stroke: #fff; opacity: 1;" id="p-type-logs"></path><path d="M136.32345063163044,-142.21433404507937A197,197,0,0,1,137.9861060192951,-140.60168756324316L119.49947318200242,-121.76463324473114A170.6070045455344,170.6070045455344,0,0,0,118.05957137854574,-123.16122606532488Z" fill-rule="evenodd" style="fill: #1DC690; stroke: #fff; opacity: 1;" id="p-type-logs"></path><path d="M137.9861060192951,-140.60168756324316A197,197,0,0,1,139.629685868277,-138.96960395829834L120.92285508436892,-120.35120738174884A170.6070045455344,170.6070045455344,0,0,0,119.49947318200242,-121.76463324473114Z" fill-rule="evenodd" style="fill: #1DC690; stroke: #fff; opacity: 1;" id="p-type-logs"></path><path d="M139.629685868277,-138.96960395829834A197,197,0,0,1,141.25396296605524,-137.31830885349663L122.32952031383014,-118.92114387184566A170.6070045455344,170.6070045455344,0,0,0,120.92285508436892,-120.35120738174884Z" fill-rule="evenodd" style="fill: #1DC690; stroke: #fff; opacity: 1;" id="p-type-logs"></path><path d="M141.25396296605524,-137.31830885349663A197,197,0,0,1,142.85871276856886,-135.64803052793482L123.719274409525,-117.4746404105186A170.6070045455344,170.6070045455344,0,0,0,122.32952031383014,-118.92114387184566Z" fill-rule="evenodd" style="fill: #1DC690; stroke: #fff; opacity: 1;" id="p-type-logs"></path><path d="M142.85871276856886,-135.64803052793482A197,197,0,0,1,144.44371343125815,-133.9589998849968L125.09192524842908,-116.01189696596393A170.6070045455344,170.6070045455344,0,0,0,123.719274409525,-117.4746404105186Z" fill-rule="evenodd" style="fill: #1DC690; stroke: #fff; opacity: 1;" id="p-type-logs"></path><path d="M144.44371343125815,-133.9589998849968A197,197,0,0,1,146.00874583973305,-132.25145042043295L126.44728307191428,-114.53311575143312A170.6070045455344,170.6070045455344,0,0,0,125.09192524842908,-116.01189696596393Z" fill-rule="evenodd" style="fill: #1DC690; stroke: #fff; opacity: 1;" id="p-type-logs"></path><path d="M146.00874583973305,-132.25145042043295A197,197,0,0,1,147.55359364006412,-130.5256181900811L127.7851605119815,-113.03850119727846A170.6070045455344,170.6070045455344,0,0,0,126.44728307191428,-114.53311575143312Z" fill-rule="evenodd" style="fill: #1DC690; stroke: #fff; opacity: 1;" id="p-type-logs"></path><path d="M195.52816270088715,24.03617254921011A197,197,0,0,1,195.2320434044225,26.333424162719265L169.07590922097606,22.805414293545844A170.6070045455344,170.6070045455344,0,0,0,169.3323560542652,20.815936037362125Z" fill-rule="evenodd" style="fill: #D7A449; stroke: #fff; opacity: 1;" id="p-type-tokenTransfers"></path><path d="M195.2320434044225,26.333424162719265A197,197,0,0,1,194.90893475009045,28.627035378903223L168.7960889181419,24.791739873166073A170.6070045455344,170.6070045455344,0,0,0,169.07590922097606,22.805414293545844Z" fill-rule="evenodd" style="fill: #D7A449; stroke: #fff; opacity: 1;" id="p-type-tokenTransfers"></path><path d="M194.90893475009045,28.627035378903223A197,197,0,0,1,194.55888140522612,30.916689123306163L168.49293382880967,26.77463818168918A170.6070045455344,170.6070045455344,0,0,0,168.7960889181419,24.791739873166073Z" fill-rule="evenodd" style="fill: #D7A449; stroke: #fff; opacity: 1;" id="p-type-tokenTransfers"></path><path d="M194.55888140522612,30.916689123306163A197,197,0,0,1,194.18193176206483,33.2020688685629L168.1664858618845,28.75383509837592A170.6070045455344,170.6070045455344,0,0,0,168.49293382880967,26.77463818168918Z" fill-rule="evenodd" style="fill: #D7A449; stroke: #fff; opacity: 1;" id="p-type-tokenTransfers"></path><path d="M194.18193176206483,33.2020688685629A197,197,0,0,1,193.77813793105244,35.48285867815637L167.81679014633633,30.729057014176544A170.6070045455344,170.6070045455344,0,0,0,168.1664858618845,28.75383509837592Z" fill-rule="evenodd" style="fill: #D7A449; stroke: #fff; opacity: 1;" id="p-type-tokenTransfers"></path><path d="M193.77813793105244,35.48285867815637A197,197,0,0,1,193.34755573364126,37.75874325009355L167.44389502496094,32.70003086955521A170.6070045455344,170.6070045455344,0,0,0,167.81679014633633,30.729057014176544Z" fill-rule="evenodd" style="fill: #D7A449; stroke: #fff; opacity: 1;" id="p-type-tokenTransfers"></path><path d="M193.34755573364126,37.75874325009355A197,197,0,0,1,192.89024469457334,40.02940796049351L167.04785204769706,34.666484192238414A170.6070045455344,170.6070045455344,0,0,0,167.44389502496094,32.70003086955521Z" fill-rule="evenodd" style="fill: #D7A449; stroke: #fff; opacity: 1;" id="p-type-tokenTransfers"></path><path d="M192.89024469457334,40.02940796049351A197,197,0,0,1,192.4062680336515,42.29453890708183L166.62871596449995,36.62814513488219A170.6070045455344,170.6070045455344,0,0,0,167.04785204769706,34.666484192238414Z" fill-rule="evenodd" style="fill: #D7A449; stroke: #fff; opacity: 1;" id="p-type-tokenTransfers"></path><path d="M192.4062680336515,42.29453890708183A197,197,0,0,1,191.8956926569997,44.55382295258518L166.1865447177727,38.584742512652966A170.6070045455344,170.6070045455344,0,0,0,166.62871596449995,36.62814513488219Z" fill-rule="evenodd" style="fill: #D7A449; stroke: #fff; opacity: 1;" id="p-type-tokenTransfers"></path><path d="M191.8956926569997,44.55382295258518A197,197,0,0,1,191.35858914781386,46.806947768020265L165.721399434356,40.536005840716875A170.6070045455344,170.6070045455344,0,0,0,166.1865447177727,38.584742512652966Z" fill-rule="evenodd" style="fill: #D7A449; stroke: #fff; opacity: 1;" id="p-type-tokenTransfers"></path><path d="M191.35858914781386,46.806947768020265A197,197,0,0,1,190.7950317566041,49.053601875870854L165.23334441707786,42.481665371632154A170.6070045455344,170.6070045455344,0,0,0,165.721399434356,40.536005840716875Z" fill-rule="evenodd" style="fill: #D7A449; stroke: #fff; opacity: 1;" id="p-type-tokenTransfers"></path><path d="M190.7950317566041,49.053601875870854A197,197,0,0,1,190.20509839093026,51.29347469314729L164.72244713586426,44.421452132639764A170.6070045455344,170.6070045455344,0,0,0,165.23334441707786,42.481665371632154Z" fill-rule="evenodd" style="fill: #D7A449; stroke: #fff; opacity: 1;" id="p-type-tokenTransfers"></path><path d="M190.20509839093026,51.29347469314729A197,197,0,0,1,189.58887060463184,53.526256574322176L164.18877821841195,46.35509796284683A170.6070045455344,170.6070045455344,0,0,0,164.72244713586426,44.421452132639764Z" fill-rule="evenodd" style="fill: #D7A449; stroke: #fff; opacity: 1;" id="p-type-tokenTransfers"></path><path d="M189.58887060463184,53.526256574322176A197,197,0,0,1,188.94643358655367,55.75163885413658L163.63241144042473,48.28233555029783A170.6070045455344,170.6070045455344,0,0,0,164.18877821841195,46.35509796284683Z" fill-rule="evenodd" style="fill: #D7A449; stroke: #fff; opacity: 1;" id="p-type-tokenTransfers"></path><path d="M188.94643358655367,55.75163885413658A197,197,0,0,1,188.2778761487692,57.96931389027064L163.05342371541437,50.2028984689285A170.6070045455344,170.6070045455344,0,0,0,163.63241144042473,48.28233555029783Z" fill-rule="evenodd" style="fill: #D7A449; stroke: #fff; opacity: 1;" id="p-type-tokenTransfers"></path><path d="M188.2778761487692,57.96931389027064A197,197,0,0,1,187.58329071430305,60.17897510587285L162.45189508406804,52.11652121539721A170.6070045455344,170.6070045455344,0,0,0,163.05342371541437,50.2028984689285Z" fill-rule="evenodd" style="fill: #D7A449; stroke: #fff; opacity: 1;" id="p-type-tokenTransfers"></path><path d="M187.58329071430305,60.17897510587285A197,197,0,0,1,186.86277330435405,62.380317031941914L161.82790870318325,54.02293924578879A170.6070045455344,170.6070045455344,0,0,0,162.45189508406804,52.11652121539721Z" fill-rule="evenodd" style="fill: #D7A449; stroke: #fff; opacity: 1;" id="p-type-tokenTransfers"></path><path d="M186.86277330435405,62.380317031941914A197,197,0,0,1,186.11642352502113,64.57303534955565L161.18155083417201,55.921889012185765A170.6070045455344,170.6070045455344,0,0,0,161.82790870318325,54.02293924578879Z" fill-rule="evenodd" style="fill: #D7A449; stroke: #fff; opacity: 1;" id="p-type-tokenTransfers"></path><path d="M186.11642352502113,64.57303534955565A197,197,0,0,1,185.34434455353346,66.75682693194067L160.5129108311359,57.8131079991018A170.6070045455344,170.6070045455344,0,0,0,161.18155083417201,55.921889012185765Z" fill-rule="evenodd" style="fill: #D7A449; stroke: #fff; opacity: 1;" id="p-type-tokenTransfers"></path><path d="M185.34434455353346,66.75682693194067A197,197,0,0,1,184.546643123987,68.93138988637743L159.82208112851353,59.69633475977258A170.6070045455344,170.6070045455344,0,0,0,160.5129108311359,57.8131079991018Z" fill-rule="evenodd" style="fill: #D7A449; stroke: #fff; opacity: 1;" id="p-type-tokenTransfers"></path><path d="M184.546643123987,68.93138988637743A197,197,0,0,1,183.7234295125895,71.09642359593461L159.10915722830217,61.57130895229876A170.6070045455344,170.6070045455344,0,0,0,159.82208112851353,59.69633475977258Z" fill-rule="evenodd" style="fill: #D7A449; stroke: #fff; opacity: 1;" id="p-type-tokenTransfers"></path><path d="M183.7234295125895,71.09642359593461A197,197,0,0,1,182.8748175224152,73.25162876102715L158.37423768685517,63.43777137563634A170.6070045455344,170.6070045455344,0,0,0,159.10915722830217,61.57130895229876Z" fill-rule="evenodd" style="fill: #D7A449; stroke: #fff; opacity: 1;" id="p-type-tokenTransfers"></path><path d="M182.8748175224152,73.25162876102715A197,197,0,0,1,182.00092446767295,75.39670744079216L157.6174241012576,65.29546400542922A170.6070045455344,170.6070045455344,0,0,0,158.37423768685517,63.43777137563634Z" fill-rule="evenodd" style="fill: #D7A449; stroke: #fff; opacity: 1;" id="p-type-tokenTransfers"></path><path d="M182.00092446767295,75.39670744079216A197,197,0,0,1,181.101871157488,77.53136309427697L156.83882109528093,67.14413002967913A170.6070045455344,170.6070045455344,0,0,0,157.6174241012576,65.29546400542922Z" fill-rule="evenodd" style="fill: #D7A449; stroke: #fff; opacity: 1;" id="p-type-tokenTransfers"></path><path d="M181.101871157488,77.53136309427697A197,197,0,0,1,180.17778187920126,79.65530062143368L156.03853630491977,68.98351388424796A170.6070045455344,170.6070045455344,0,0,0,156.83882109528093,67.14413002967913Z" fill-rule="evenodd" style="fill: #D7A449; stroke: #fff; opacity: 1;" id="p-type-tokenTransfers"></path><path d="M180.17778187920126,79.65530062143368A197,197,0,0,1,179.2287843811874,81.7682264039146L155.2166803635119,70.81336128818754A170.6070045455344,170.6070045455344,0,0,0,156.03853630491977,68.98351388424796Z" fill-rule="evenodd" style="fill: #D7A449; stroke: #fff; opacity: 1;" id="p-type-tokenTransfers"></path><path d="M179.2287843811874,81.7682264039146A197,197,0,0,1,178.25500985519471,83.86984834566258L154.37336688644407,72.63341927889206A170.6070045455344,170.6070045455344,0,0,0,155.2166803635119,70.81336128818754Z" fill-rule="evenodd" style="fill: #D7A449; stroke: #fff; opacity: 1;" id="p-type-tokenTransfers"></path><path d="M178.25500985519471,83.86984834566258A197,197,0,0,1,177.25659291820867,85.95987591329138L153.50871245544553,74.44343624706842A170.6070045455344,170.6070045455344,0,0,0,154.37336688644407,72.63341927889206Z" fill-rule="evenodd" style="fill: #D7A449; stroke: #fff; opacity: 1;" id="p-type-tokenTransfers"></path><path d="M177.25659291820867,85.95987591329138A197,197,0,0,1,176.2336715938424,88.03802017624947L152.6228366024715,76.24316197151902A170.6070045455344,170.6070045455344,0,0,0,153.50871245544553,74.44343624706842Z" fill-rule="evenodd" style="fill: #D7A449; stroke: #fff; opacity: 1;" id="p-type-tokenTransfers"></path><path d="M176.2336715938424,88.03802017624947A197,197,0,0,1,175.18638729325565,90.1039938467626L151.7158617931788,78.03234765373315A170.6070045455344,170.6070045455344,0,0,0,152.6228366024715,76.24316197151902Z" fill-rule="evenodd" style="fill: #D7A449; stroke: #fff; opacity: 1;" id="p-type-tokenTransfers"></path><path d="M175.18638729325565,90.1039938467626A197,197,0,0,1,174.11488479560606,92.15751131954914L150.78791340999575,79.81074595228152A170.6070045455344,170.6070045455344,0,0,0,151.7158617931788,78.03234765373315Z" fill-rule="evenodd" style="fill: #D7A449; stroke: #fff; opacity: 1;" id="p-type-tokenTransfers"></path><path d="M174.11488479560606,92.15751131954914A197,197,0,0,1,173.01931222803432,94.19828871130288L149.83911973478928,81.5781110170092A170.6070045455344,170.6070045455344,0,0,0,150.78791340999575,79.81074595228152Z" fill-rule="evenodd" style="fill: #D7A449; stroke: #fff; opacity: 1;" id="p-type-tokenTransfers"></path><path d="M173.01931222803432,94.19828871130288A197,197,0,0,1,171.89982104518683,96.22604389993775L148.86961193113066,83.3341985230227A170.6070045455344,170.6070045455344,0,0,0,149.83911973478928,81.5781110170092Z" fill-rule="evenodd" style="fill: #D7A449; stroke: #fff; opacity: 1;" id="p-type-tokenTransfers"></path><path d="M171.89982104518683,96.22604389993775A197,197,0,0,1,170.75656600827813,98.24049656358905L147.8795240261632,85.07876570446595A170.6070045455344,170.6070045455344,0,0,0,148.86961193113066,83.3341985230227Z" fill-rule="evenodd" style="fill: #D7A449; stroke: #fff; opacity: 1;" id="p-type-tokenTransfers"></path><path d="M170.75656600827813,98.24049656358905A197,197,0,0,1,169.5897051636965,100.24136821936588L146.86899289207415,86.81157138808092A170.6070045455344,170.6070045455344,0,0,0,147.8795240261632,85.07876570446595Z" fill-rule="evenodd" style="fill: #D7A449; stroke: #fff; opacity: 1;" id="p-type-tokenTransfers"></path><path d="M169.5897051636965,100.24136821936588A197,197,0,0,1,168.39939982115501,102.22838226184928L145.8381582271729,88.53237602654795A170.6070045455344,170.6070045455344,0,0,0,146.86899289207415,86.81157138808092Z" fill-rule="evenodd" style="fill: #D7A449; stroke: #fff; opacity: 1;" id="p-type-tokenTransfers"></path><path d="M168.39939982115501,102.22838226184928A197,197,0,0,1,167.1858145313919,104.20126400133077L144.78716253657893,90.24094173160137A170.6070045455344,170.6070045455344,0,0,0,145.8381582271729,88.53237602654795Z" fill-rule="evenodd" style="fill: #D7A449; stroke: #fff; opacity: 1;" id="p-type-tokenTransfers"></path><path d="M167.1858145313919,104.20126400133077A197,197,0,0,1,165.9491170634225,106.15974070178623L143.71615111252154,91.93703230691573A170.6070045455344,170.6070045455344,0,0,0,144.78716253657893,90.24094173160137Z" fill-rule="evenodd" style="fill: #D7A449; stroke: #fff; opacity: 1;" id="p-type-tokenTransfers"></path><path d="M165.9491170634225,106.15974070178623A197,197,0,0,1,164.68947838134656,108.10354161857965L142.62527201425425,93.62041328075831A170.6070045455344,170.6070045455344,0,0,0,143.71615111252154,91.93703230691573Z" fill-rule="evenodd" style="fill: #D7A449; stroke: #fff; opacity: 1;" id="p-type-tokenTransfers"></path><path d="M164.68947838134656,108.10354161857965A197,197,0,0,1,163.40707262071365,110.0323980358913L141.51467604758662,95.29085193840284A170.6070045455344,170.6070045455344,0,0,0,142.62527201425425,93.62041328075831Z" fill-rule="evenodd" style="fill: #D7A449; stroke: #fff; opacity: 1;" id="p-type-tokenTransfers"></path><path d="M163.40707262071365,110.0323980358913A197,197,0,0,1,162.10207706445024,111.94604330386596L140.38451674403672,96.94811735430078A170.6070045455344,170.6070045455344,0,0,0,141.51467604758662,95.29085193840284Z" fill-rule="evenodd" style="fill: #D7A449; stroke: #fff; opacity: 1;" id="p-type-tokenTransfers"></path><path d="M162.10207706445024,111.94604330386596A197,197,0,0,1,160.77467211835184,113.84421287547497L139.23495033960637,98.5919804240048A170.6070045455344,170.6070045455344,0,0,0,140.38451674403672,96.94811735430078Z" fill-rule="evenodd" style="fill: #D7A449; stroke: #fff; opacity: 1;" id="p-type-tokenTransfers"></path><path d="M160.77467211835184,113.84421287547497A197,197,0,0,1,159.42504128614297,115.72664434308811L138.06613575318275,100.22221389584101A170.6070045455344,170.6070045455344,0,0,0,139.23495033960637,98.5919804240048Z" fill-rule="evenodd" style="fill: #D7A449; stroke: #fff; opacity: 1;" id="p-type-tokenTransfers"></path><path d="M159.42504128614297,115.72664434308811A197,197,0,0,1,158.05337114410943,117.59307747474932L136.8782345645691,101.83859240232455A170.6070045455344,170.6070045455344,0,0,0,138.06613575318275,100.22221389584101Z" fill-rule="evenodd" style="fill: #D7A449; stroke: #fff; opacity: 1;" id="p-type-tokenTransfers"></path><path d="M158.05337114410943,117.59307747474932A197,197,0,0,1,156.6598513153054,119.44325425015182L135.67141099214746,103.4408924913151A170.6070045455344,170.6070045455344,0,0,0,136.8782345645691,101.83859240232455Z" fill-rule="evenodd" style="fill: #D7A449; stroke: #fff; opacity: 1;" id="p-type-tokenTransfers"></path><path d="M156.6598513153054,119.44325425015182A197,197,0,0,1,155.2446744433394,121.27691889630758L134.44583187017673,105.02889265690739A170.6070045455344,170.6070045455344,0,0,0,135.67141099214746,103.4408924913151Z" fill-rule="evenodd" style="fill: #D7A449; stroke: #fff; opacity: 1;" id="p-type-tokenTransfers"></path><path d="M155.2446744433394,121.27691889630758A197,197,0,0,1,153.808036165743,123.09381792290584L133.2016666257291,106.60237337005269A170.6070045455344,170.6070045455344,0,0,0,134.44583187017673,105.02889265690739Z" fill-rule="evenodd" style="fill: #D7A449; stroke: #fff; opacity: 1;" id="p-type-tokenTransfers"></path><path d="M153.808036165743,123.09381792290584A197,197,0,0,1,152.35013508692518,124.8937001573564L131.93908725526813,108.16111710890719A170.6070045455344,170.6070045455344,0,0,0,133.2016666257291,106.60237337005269Z" fill-rule="evenodd" style="fill: #D7A449; stroke: #fff; opacity: 1;" id="p-type-tokenTransfers"></path><path d="M152.35013508692518,124.8937001573564A197,197,0,0,1,150.8711727507169,126.67631677951226L130.6582683008714,109.70490838890257A170.6070045455344,170.6070045455344,0,0,0,131.93908725526813,108.16111710890719Z" fill-rule="evenodd" style="fill: #D7A449; stroke: #fff; opacity: 1;" id="p-type-tokenTransfers"></path><path d="M150.8711727507169,126.67631677951226A197,197,0,0,1,149.37135361250913,128.44142135606702L129.3593868261014,111.23353379253517A170.6070045455344,170.6070045455344,0,0,0,130.6582683008714,109.70490838890257Z" fill-rule="evenodd" style="fill: #D7A449; stroke: #fff; opacity: 1;" id="p-type-tokenTransfers"></path><path d="M149.37135361250913,128.44142135606702A197,197,0,0,1,147.85088501098846,130.1887698746227L128.04262239152789,112.74678199886948A170.6070045455344,170.6070045455344,0,0,0,129.3593868261014,111.23353379253517Z" fill-rule="evenodd" style="fill: #D7A449; stroke: #fff; opacity: 1;" id="p-type-tokenTransfers"></path><path d="M147.85088501098846,130.1887698746227A197,197,0,0,1,146.30997713947406,131.91812077742233L126.708157029905,114.2444438127515A170.6070045455344,170.6070045455344,0,0,0,128.04262239152789,112.74678199886948Z" fill-rule="evenodd" style="fill: #D7A449; stroke: #fff; opacity: 1;" id="p-type-tokenTransfers"></path><path d="M146.30997713947406,131.91812077742233A197,197,0,0,1,144.74884301686004,133.62923499474363L125.35617522100652,115.72631219372848A170.6070045455344,170.6070045455344,0,0,0,126.708157029905,114.2444438127515Z" fill-rule="evenodd" style="fill: #D7A449; stroke: #fff; opacity: 1;" id="p-type-tokenTransfers"></path><path d="M144.74884301686004,133.62923499474363A197,197,0,0,1,143.16769845816725,135.3218759779486L123.98686386612304,117.19218228467065A170.6070045455344,170.6070045455344,0,0,0,125.35617522100652,115.72631219372848Z" fill-rule="evenodd" style="fill: #D7A449; stroke: #fff; opacity: 1;" id="p-type-tokenTransfers"></path><path d="M143.16769845816725,135.3218759779486A197,197,0,0,1,141.5667620447084,136.99580973218454L122.60041226222414,118.64185144009124A170.6070045455344,170.6070045455344,0,0,0,123.98686386612304,117.19218228467065Z" fill-rule="evenodd" style="fill: #D7A449; stroke: #fff; opacity: 1;" id="p-type-tokenTransfers"></path><path d="M141.5667620447084,136.99580973218454A197,197,0,0,1,139.94625509387095,138.65080484873215L121.19701207578964,120.07511925416065A170.6070045455344,170.6070045455344,0,0,0,122.60041226222414,118.64185144009124Z" fill-rule="evenodd" style="fill: #D7A449; stroke: #fff; opacity: 1;" id="p-type-tokenTransfers"></path><path d="M139.94625509387095,138.65080484873215A197,197,0,0,1,138.30640162852148,140.28663253699588L119.77685731631306,121.49178758841103A170.6070045455344,170.6070045455344,0,0,0,121.19701207578964,120.07511925416065Z" fill-rule="evenodd" style="fill: #D7A449; stroke: #fff; opacity: 1;" id="p-type-tokenTransfers"></path><path d="M138.30640162852148,140.28663253699588A197,197,0,0,1,136.6474283460364,141.90306665613272L118.34014430948133,122.89166059912745A170.6070045455344,170.6070045455344,0,0,0,119.77685731631306,121.49178758841103Z" fill-rule="evenodd" style="fill: #D7A449; stroke: #fff; opacity: 1;" id="p-type-tokenTransfers"></path><path d="M136.6474283460364,141.90306665613272A197,197,0,0,1,134.9695645869627,143.49988374631428L116.88707167003422,124.27454476442182A170.6070045455344,170.6070045455344,0,0,0,118.34014430948133,122.89166059912745Z" fill-rule="evenodd" style="fill: #D7A449; stroke: #fff; opacity: 1;" id="p-type-tokenTransfers"></path><path d="M134.9695645869627,143.49988374631428A197,197,0,0,1,133.27304230331316,145.07686305961852L115.41784027430735,125.64024891098583A170.6070045455344,170.6070045455344,0,0,0,116.88707167003422,124.27454476442182Z" fill-rule="evenodd" style="fill: #D7A449; stroke: #fff; opacity: 1;" id="p-type-tokenTransfers"></path><path d="M7.39635168700838,196.86110327264268A197,197,0,0,1,-13.862321258180081,196.5116689902536L-12.005122365005013,170.18409748563835A170.6070045455344,170.6070045455344,0,0,0,6.405428456273146,170.48671645114047Z" fill-rule="evenodd" style="fill: #414552; stroke: #fff; opacity: 1;" id="p-type-ether"></path><path d="M-13.862321258180081,196.5116689902536A197,197,0,0,1,-25.384368928684594,195.35770733219724L-21.983508351277234,169.1847373747683A170.6070045455344,170.6070045455344,0,0,0,-12.005122365005013,170.18409748563835Z" fill-rule="evenodd" style="fill: #414552; stroke: #fff; opacity: 1;" id="p-type-ether"></path><path d="M-25.384368928684594,195.35770733219724A197,197,0,0,1,-34.99669501643728,193.86652970001415L-30.308026932730947,167.89333966374264A170.6070045455344,170.6070045455344,0,0,0,-21.983508351277234,169.1847373747683Z" fill-rule="evenodd" style="fill: #414552; stroke: #fff; opacity: 1;" id="p-type-ether"></path><path d="M-34.99669501643728,193.86652970001415A197,197,0,0,1,-39.37279194343784,193.02534355513723L-34.097838040936445,167.1648510929677A170.6070045455344,170.6070045455344,0,0,0,-30.308026932730947,167.89333966374264Z" fill-rule="evenodd" style="fill: #414552; stroke: #fff; opacity: 1;" id="p-type-ether"></path><path d="M-39.37279194343784,193.02534355513723A197,197,0,0,1,-41.657870333015325,192.54511637358576L-36.07677397594938,166.74896215415635A170.6070045455344,170.6070045455344,0,0,0,-34.097838040936445,167.1648510929677Z" fill-rule="evenodd" style="fill: #414552; stroke: #fff; opacity: 1;" id="p-type-ether"></path><path d="M-41.657870333015325,192.54511637358576A197,197,0,0,1,-43.92102848423103,192.04151441000295L-38.03672642768401,166.3128300602979A170.6070045455344,170.6070045455344,0,0,0,-36.07677397594938,166.74896215415635Z" fill-rule="evenodd" style="fill: #414552; stroke: #fff; opacity: 1;" id="p-type-ether"></path><path d="M-43.92102848423103,192.04151441000295A197,197,0,0,1,-46.17558052516777,191.51192068162166L-39.98922576928928,165.85418843783478A170.6070045455344,170.6070045455344,0,0,0,-38.03672642768401,166.3128300602979Z" fill-rule="evenodd" style="fill: #414552; stroke: #fff; opacity: 1;" id="p-type-ether"></path><path d="M-46.17558052516777,191.51192068162166A197,197,0,0,1,-47.41903704870186,191.20783175742002L-41.066090707171284,165.59083970446667A170.6070045455344,170.6070045455344,0,0,0,-39.98922576928928,165.85418843783478Z" fill-rule="evenodd" style="fill: #414552; stroke: #fff; opacity: 1;" id="p-type-ether"></path><path d="M-47.41903704870186,191.20783175742002A197,197,0,0,1,-48.54233658210003,190.92574881128556L-42.0388966391533,165.3465487071399A170.6070045455344,170.6070045455344,0,0,0,-41.066090707171284,165.59083970446667Z" fill-rule="evenodd" style="fill: #414552; stroke: #fff; opacity: 1;" id="p-type-ether"></path><path d="M-48.54233658210003,190.92574881128556A197,197,0,0,1,-49.54157008005101,190.66890893379392L-42.904258232691234,165.12411884852725A170.6070045455344,170.6070045455344,0,0,0,-42.0388966391533,165.3465487071399Z" fill-rule="evenodd" style="fill: #414552; stroke: #fff; opacity: 1;" id="p-type-ether"></path></g></svg>