<svg xmlns="http://www.w3.org/2000/svg" width="400" height="400" id="block-7907772"><g id="burst-container" transform="translate(200,200)"><circle r="197" style="fill: #f9f9f9; stroke: #f9f9f9; stroke-width: 3; opacity: 1;" id="circle-base"></circle><path display="none" d="M6.031385485800715e-15,-98.5A98.5,98.5,0,1,1,-6.031385485800715e-15,98.5A98.5,98.5,0,1,1,6.031385485800715e-15,-98.5Z" fill-rule="evenodd" id="p-type-root" style="stroke: #fff; opacity: 1;"></path><path d="M8.529667153919608e-15,-139.30003589374985A139.30003589374985,139.30003589374985,0,1,1,-137.05289227260397,-24.919966286373842L-96.91102950718765,-17.62107714803509A98.5,98.5,0,1,0,6.031385485800715e-15,-98.5Z" fill-rule="evenodd" style="fill: #0B1F65; stroke: #fff; opacity: 1;" id="p-type-data"></path><path d="M-137.05289227260397,-24.919966286373842A139.30003589374985,139.30003589374985,0,0,1,-2.7677771041708903,-139.27253645245938L-1.9571139591721018,-98.48055495858466A98.5,98.5,0,0,0,-96.91102950718765,-17.62107714803509Z" fill-rule="evenodd" style="fill: #D7A449; stroke: #fff; opacity: 1;" id="p-type-value"></path><path d="M1.0446666101440332e-14,-170.6070045455344A170.6070045455344,170.6070045455344,0,0,1,166.5096950216253,-37.16546062953241L135.95459667647546,-30.345471532617225A139.30003589374985,139.30003589374985,0,0,0,8.529667153919608e-15,-139.30003589374985Z" fill-rule="evenodd" style="fill: #1DC690; stroke: #fff; opacity: 1;" id="p-type-logs"></path><path d="M166.5096950216253,-37.16546062953241A170.6070045455344,170.6070045455344,0,0,1,109.58085040262942,130.76233106302652L89.47238968889954,106.76699622710053A139.30003589374985,139.30003589374985,0,0,0,135.95459667647546,-30.345471532617225Z" fill-rule="evenodd" style="fill: #D7A449; stroke: #fff; opacity: 1;" id="p-type-tokenTransfers"></path><path d="M109.58085040262942,130.76233106302652A170.6070045455344,170.6070045455344,0,0,1,-43.92113098462728,164.85655659703443L-35.86145327942698,134.60481480499675A139.30003589374985,139.30003589374985,0,0,0,89.47238968889954,106.76699622710053Z" fill-rule="evenodd" style="fill: #414552; stroke: #fff; opacity: 1;" id="p-type-ether"></path><path d="M-167.85482692025568,-30.52060090448767A170.6070045455344,170.6070045455344,0,0,1,-95.78413191435281,-141.18126672265646L-78.20741621519934,-115.27402157009433A139.30003589374985,139.30003589374985,0,0,0,-137.05289227260397,-24.919966286373842Z" fill-rule="evenodd" style="fill: #414552; stroke: #fff; opacity: 1;" id="p-type-ether"></path><path d="M-95.78413191435281,-141.18126672265646A170.6070045455344,170.6070045455344,0,0,1,-6.778303247157223,-170.4722986443533L-5.534461425795175,-139.19004898600468A139.30003589374985,139.30003589374985,0,0,0,-78.20741621519934,-115.27402157009433Z" fill-rule="evenodd" style="fill: #D7A449; stroke: #fff; opacity: 1;" id="p-type-tokenTransfers"></path><path d="M1.206277097160143e-14,-197A197,197,0,0,1,1.95721055556671,-196.9902772393632L1.6949940616758257,-170.59858438782803A170.6070045455344,170.6070045455344,0,0,0,1.0446666101440332e-14,-170.6070045455344Z" fill-rule="evenodd" style="fill: #1DC690; stroke: #fff; opacity: 1;" id="p-type-logs"></path><path d="M1.95721055556671,-196.9902772393632A197,197,0,0,1,3.914227918344136,-196.96110991716932L3.389820813488303,-170.57332474584774A170.6070045455344,170.6070045455344,0,0,0,1.6949940616758257,-170.59858438782803Z" fill-rule="evenodd" style="fill: #1DC690; stroke: #fff; opacity: 1;" id="p-type-logs"></path><path d="M3.914227918344136,-196.96110991716932A197,197,0,0,1,5.870858914612606,-196.91250091247306L5.084312962088853,-170.53122811292815A170.6070045455344,170.6070045455344,0,0,0,3.389820813488303,-170.57332474584774Z" fill-rule="evenodd" style="fill: #1DC690; stroke: #fff; opacity: 1;" id="p-type-logs"></path><path d="M5.870858914612606,-196.91250091247306A197,197,0,0,1,7.82691040879012,-196.8444550233833L6.778303247157089,-170.4722986443533A170.6070045455344,170.6070045455344,0,0,0,5.084312962088853,-170.53122811292815Z" fill-rule="evenodd" style="fill: #1DC690; stroke: #fff; opacity: 1;" id="p-type-logs"></path><path d="M7.82691040879012,-196.8444550233833A197,197,0,0,1,9.782189322496304,-196.75697896658923L8.471624457910686,-170.39654215694674A170.6070045455344,170.6070045455344,0,0,0,6.778303247157089,-170.4722986443533Z" fill-rule="evenodd" style="fill: #1DC690; stroke: #fff; opacity: 1;" id="p-type-logs"></path><path d="M9.782189322496304,-196.75697896658923A197,197,0,0,1,11.736502653610703,-196.6500813766976L10.164109449610345,-170.30396612849725A170.6070045455344,170.6070045455344,0,0,0,8.471624457910686,-170.39654215694674Z" fill-rule="evenodd" style="fill: #1DC690; stroke: #fff; opacity: 1;" id="p-type-logs"></path><path d="M11.736502653610703,-196.6500813766976A197,197,0,0,1,13.689657495323946,-196.52377280538028L11.855591160058587,-170.1945796970207A170.6070045455344,170.6070045455344,0,0,0,10.164109449610345,-170.30396612849725Z" fill-rule="evenodd" style="fill: #1DC690; stroke: #fff; opacity: 1;" id="p-type-logs"></path><path d="M13.689657495323946,-196.52377280538028A197,197,0,0,1,15.641461055179047,-196.37806572033273L13.545902626090006,-170.06839365985817A170.6070045455344,170.6070045455344,0,0,0,11.855591160058587,-170.1945796970207Z" fill-rule="evenodd" style="fill: #1DC690; stroke: #fff; opacity: 1;" id="p-type-logs"></path><path d="M15.641461055179047,-196.37806572033273A197,197,0,0,1,17.591720674101715,-196.2129745040434L15.234877000051995,-169.92542047260994A170.6070045455344,170.6070045455344,0,0,0,13.545902626090006,-170.06839365985817Z" fill-rule="evenodd" style="fill: #1DC690; stroke: #fff; opacity: 1;" id="p-type-logs"></path><path d="M17.591720674101715,-196.2129745040434A197,197,0,0,1,19.540243845417194,-196.02851545237402L16.922347566273817,-169.76567424790628A170.6070045455344,170.6070045455344,0,0,0,15.234877000051995,-169.92542047260994Z" fill-rule="evenodd" style="fill: #1DC690; stroke: #fff; opacity: 1;" id="p-type-logs"></path><path d="M19.540243845417194,-196.02851545237402A197,197,0,0,1,21.486838233852538,-195.82470677295103L18.608147757523056,-169.58917075401422A170.6070045455344,170.6070045455344,0,0,0,16.922347566273817,-169.76567424790628Z" fill-rule="evenodd" style="fill: #1DC690; stroke: #fff; opacity: 1;" id="p-type-logs"></path><path d="M21.486838233852538,-195.82470677295103A197,197,0,0,1,23.431311694521536,-195.60156858336842L20.29211117144705,-169.39592741328119A170.6070045455344,170.6070045455344,0,0,0,18.608147757523056,-169.58917075401422Z" fill-rule="evenodd" style="fill: #1DC690; stroke: #fff; opacity: 1;" id="p-type-logs"></path><path d="M23.431311694521536,-195.60156858336842A197,197,0,0,1,25.373472291890877,-195.35912290920186L21.97407158699806,-169.18596330041532A170.6070045455344,170.6070045455344,0,0,0,20.29211117144705,-169.39592741328119Z" fill-rule="evenodd" style="fill: #1DC690; stroke: #fff; opacity: 1;" id="p-type-logs"></path><path d="M25.373472291890877,-195.35912290920186A197,197,0,0,1,27.31312831872602,-195.09739368183475L23.653862980840888,-168.95929914060252A170.6070045455344,170.6070045455344,0,0,0,21.97407158699806,-169.18596330041532Z" fill-rule="evenodd" style="fill: #1DC690; stroke: #fff; opacity: 1;" id="p-type-logs"></path><path d="M27.31312831872602,-195.09739368183475A197,197,0,0,1,29.250088315014153,-194.8164067360957L25.33131954374062,-168.7159573074607A170.6070045455344,170.6070045455344,0,0,0,23.653862980840888,-168.95929914060252Z" fill-rule="evenodd" style="fill: #1DC690; stroke: #fff; opacity: 1;" id="p-type-logs"></path><path d="M29.250088315014153,-194.8164067360957A197,197,0,0,1,31.184161086862733,-194.5161898077088L27.006275696929276,-168.45596182083153A170.6070045455344,170.6070045455344,0,0,0,25.33131954374062,-168.7159573074607Z" fill-rule="evenodd" style="fill: #1DC690; stroke: #fff; opacity: 1;" id="p-type-logs"></path><path d="M31.184161086862733,-194.5161898077088A197,197,0,0,1,33.115155725372155,-194.1967725305556L28.67856610844998,-168.1793383444092A170.6070045455344,170.6070045455344,0,0,0,27.006275696929276,-168.45596182083153Z" fill-rule="evenodd" style="fill: #1DC690; stroke: #fff; opacity: 1;" id="p-type-logs"></path><path d="M33.115155725372155,-194.1967725305556A197,197,0,0,1,35.04288162547987,-193.8581864337501L30.34802570947649,-167.88611418320738A170.6070045455344,170.6070045455344,0,0,0,28.67856610844998,-168.1793383444092Z" fill-rule="evenodd" style="fill: #1DC690; stroke: #fff; opacity: 1;" id="p-type-logs"></path><path d="M35.04288162547987,-193.8581864337501A197,197,0,0,1,36.96714850477472,-193.50046493852653L32.01448971060683,-167.57631828086406A170.6070045455344,170.6070045455344,0,0,0,30.34802570947649,-167.88611418320738Z" fill-rule="evenodd" style="fill: #1DC690; stroke: #fff; opacity: 1;" id="p-type-logs"></path><path d="M36.96714850477472,-193.50046493852653A197,197,0,0,1,38.887766422279384,-193.12364335494047L33.677793618129435,-167.24998121678422A170.6070045455344,170.6070045455344,0,0,0,32.01448971060683,-167.57631828086406Z" fill-rule="evenodd" style="fill: #1DC690; stroke: #fff; opacity: 1;" id="p-type-logs"></path><path d="M38.887766422279384,-193.12364335494047A197,197,0,0,1,40.804545797199005,-192.7277588783834L35.337773250259886,-166.90713520312192A170.6070045455344,170.6070045455344,0,0,0,33.677793618129435,-167.24998121678422Z" fill-rule="evenodd" style="fill: #1DC690; stroke: #fff; opacity: 1;" id="p-type-logs"></path><path d="M40.804545797199005,-192.7277588783834A197,197,0,0,1,42.71729742763457,-192.3128505859112L36.99426475334719,-166.54781408160017A170.6070045455344,170.6070045455344,0,0,0,35.337773250259886,-166.90713520312192Z" fill-rule="evenodd" style="fill: #1DC690; stroke: #fff; opacity: 1;" id="p-type-logs"></path><path d="M42.71729742763457,-192.3128505859112A197,197,0,0,1,44.62583250925861,-191.87895943238695L38.647104618047415,-166.17205332017085A170.6070045455344,170.6070045455344,0,0,0,36.99426475334719,-166.54781408160017Z" fill-rule="evenodd" style="fill: #1DC690; stroke: #fff; opacity: 1;" id="p-type-logs"></path><path d="M44.62583250925861,-191.87895943238695A197,197,0,0,1,46.529962653951586,-191.42612824643837L40.29612969546327,-165.7798900095135A170.6070045455344,170.6070045455344,0,0,0,38.647104618047415,-166.17205332017085Z" fill-rule="evenodd" style="fill: #1DC690; stroke: #fff; opacity: 1;" id="p-type-logs"></path><path d="M46.529962653951586,-191.42612824643837A197,197,0,0,1,48.429499908397624,-190.95440172623023L41.94117721324849,-165.37136285937444A170.6070045455344,170.6070045455344,0,0,0,40.29612969546327,-165.7798900095135Z" fill-rule="evenodd" style="fill: #1DC690; stroke: #fff; opacity: 1;" id="p-type-logs"></path><path d="M48.429499908397624,-190.95440172623023A197,197,0,0,1,50.32425677263687,-190.46382643505225L43.58208479167462,-164.94651219474537A170.6070045455344,170.6070045455344,0,0,0,41.94117721324849,-165.37136285937444Z" fill-rule="evenodd" style="fill: #1DC690; stroke: #fff; opacity: 1;" id="p-type-logs"></path><path d="M50.32425677263687,-190.46382643505225A197,197,0,0,1,52.21404621857334,-189.95445079672308L45.218690459659314,-164.50537995188338A170.6070045455344,170.6070045455344,0,0,0,43.58208479167462,-164.94651219474537Z" fill-rule="evenodd" style="fill: #1DC690; stroke: #fff; opacity: 1;" id="p-type-logs"></path><path d="M52.21404621857334,-189.95445079672308A197,197,0,0,1,54.09868170843612,-189.42632509081022L46.850832670754215,-164.04800967417125A170.6070045455344,170.6070045455344,0,0,0,45.218690459659314,-164.50537995188338Z" fill-rule="evenodd" style="fill: #1DC690; stroke: #fff; opacity: 1;" id="p-type-logs"></path><path d="M54.09868170843612,-189.42632509081022A197,197,0,0,1,55.977977213192084,-188.87950144766728L48.47835031909078,-163.57444650781952A170.6070045455344,170.6070045455344,0,0,0,46.850832670754215,-164.04800967417125Z" fill-rule="evenodd" style="fill: #1DC690; stroke: #fff; opacity: 1;" id="p-type-logs"></path><path d="M55.977977213192084,-188.87950144766728A197,197,0,0,1,57.85174723090871,-188.31403384328806L50.10108275528299,-163.08473719741A170.6070045455344,170.6070045455344,0,0,0,48.47835031909078,-163.57444650781952Z" fill-rule="evenodd" style="fill: #1DC690; stroke: #fff; opacity: 1;" id="p-type-logs"></path><path d="M57.85174723090871,-188.31403384328806A197,197,0,0,1,59.719806805064486,-187.72997809397884L51.71886980228464,-162.57893008128184A170.6070045455344,170.6070045455344,0,0,0,50.10108275528299,-163.08473719741Z" fill-rule="evenodd" style="fill: #1DC690; stroke: #fff; opacity: 1;" id="p-type-logs"></path><path d="M59.719806805064486,-187.72997809397884A197,197,0,0,1,61.581971542805604,-187.1273918508487L53.33155177120003,-162.05707508676014A170.6070045455344,170.6070045455344,0,0,0,51.71886980228464,-162.57893008128184Z" fill-rule="evenodd" style="fill: #1DC690; stroke: #fff; opacity: 1;" id="p-type-logs"></path><path d="M61.581971542805604,-187.1273918508487A197,197,0,0,1,63.4380576331472,-186.50633459411907L54.9389694770468,-161.5192237252276A170.6070045455344,170.6070045455344,0,0,0,53.33155177120003,-162.05707508676014Z" fill-rule="evenodd" style="fill: #1DC690; stroke: #fff; opacity: 1;" id="p-type-logs"></path><path d="M63.4380576331472,-186.50633459411907A197,197,0,0,1,65.28788186511692,-185.86686762725233L56.540964254468605,-160.96542908703998A170.6070045455344,170.6070045455344,0,0,0,54.9389694770468,-161.5192237252276Z" fill-rule="evenodd" style="fill: #1DC690; stroke: #fff; opacity: 1;" id="p-type-logs"></path><path d="M65.28788186511692,-185.86686762725233A197,197,0,0,1,67.13126164583934,-185.2090540709008L58.137377973396816,-160.39574583628578A170.6070045455344,170.6070045455344,0,0,0,56.540964254468605,-160.96542908703998Z" fill-rule="evenodd" style="fill: #1DC690; stroke: #fff; opacity: 1;" id="p-type-logs"></path><path d="M67.13126164583934,-185.2090540709008A197,197,0,0,1,68.9680150185595,-184.5329588566762L59.72805305465921,-159.8102302053902A170.6070045455344,170.6070045455344,0,0,0,58.137377973396816,-160.39574583628578Z" fill-rule="evenodd" style="fill: #1DC690; stroke: #fff; opacity: 1;" id="p-type-logs"></path><path d="M68.9680150185595,-184.5329588566762A197,197,0,0,1,70.79796068060327,-183.8386487207403L61.31283248553425,-159.2089399895647A170.6070045455344,170.6070045455344,0,0,0,59.72805305465921,-159.8102302053902Z" fill-rule="evenodd" style="fill: #1DC690; stroke: #fff; opacity: 1;" id="p-type-logs"></path><path d="M70.79796068060327,-183.8386487207403A197,197,0,0,1,72.62091800127372,-183.1261921972176L62.89155983524969,-158.59193454110206A170.6070045455344,170.6070045455344,0,0,0,61.31283248553425,-159.2089399895647Z" fill-rule="evenodd" style="fill: #1DC690; stroke: #fff; opacity: 1;" id="p-type-logs"></path><path d="M72.62091800127372,-183.1261921972176A197,197,0,0,1,74.43670703968077,-182.3956596114303L64.46407927042351,-157.95927476351795A170.6070045455344,170.6070045455344,0,0,0,62.89155983524969,-158.59193454110206Z" fill-rule="evenodd" style="fill: #1DC690; stroke: #fff; opacity: 1;" id="p-type-logs"></path><path d="M74.43670703968077,-182.3956596114303A197,197,0,0,1,76.24514856250262,-181.64712307295676L66.03023557044584,-157.311023105539A170.6070045455344,170.6070045455344,0,0,0,64.46407927042351,-157.95927476351795Z" fill-rule="evenodd" style="fill: #1DC690; stroke: #fff; opacity: 1;" id="p-type-logs"></path><path d="M76.24514856250262,-181.64712307295676A197,197,0,0,1,78.04606406167787,-180.88065646851373L67.58987414280074,-156.64724355493894A170.6070045455344,170.6070045455344,0,0,0,66.03023557044584,-157.311023105539Z" fill-rule="evenodd" style="fill: #1DC690; stroke: #fff; opacity: 1;" id="p-type-logs"></path><path d="M78.04606406167787,-180.88065646851373A197,197,0,0,1,79.83927577202556,-180.09633545466286L69.14284103832557,-155.96800163222213A170.6070045455344,170.6070045455344,0,0,0,67.58987414280074,-156.64724355493894Z" fill-rule="evenodd" style="fill: #1DC690; stroke: #fff; opacity: 1;" id="p-type-logs"></path><path d="M79.83927577202556,-180.09633545466286A197,197,0,0,1,81.62460668879206,-179.29423745034308L70.68898296640712,-155.27336438415637A170.6070045455344,170.6070045455344,0,0,0,69.14284103832557,-155.96800163222213Z" fill-rule="evenodd" style="fill: #1DC690; stroke: #fff; opacity: 1;" id="p-type-logs"></path><path d="M81.62460668879206,-179.29423745034308A197,197,0,0,1,83.40188058512298,-178.4744416292285L72.22814731011266,-154.56340037715484A170.6070045455344,170.6070045455344,0,0,0,70.68898296640712,-155.27336438415637Z" fill-rule="evenodd" style="fill: #1DC690; stroke: #fff; opacity: 1;" id="p-type-logs"></path><path d="M83.40188058512298,-178.4744416292285A197,197,0,0,1,85.17092202945807,-177.63702891191346L73.76018214125436,-153.83817969050784A170.6070045455344,170.6070045455344,0,0,0,72.22814731011266,-154.56340037715484Z" fill-rule="evenodd" style="fill: #1DC690; stroke: #fff; opacity: 1;" id="p-type-logs"></path><path d="M85.17092202945807,-177.63702891191346A197,197,0,0,1,86.93155640284789,-176.7820819579249L75.28493623538606,-153.09777390946562A170.6070045455344,170.6070045455344,0,0,0,73.76018214125436,-153.83817969050784Z" fill-rule="evenodd" style="fill: #1DC690; stroke: #fff; opacity: 1;" id="p-type-logs"></path><path d="M86.93155640284789,-176.7820819579249A197,197,0,0,1,88.68360991619016,-175.90968515756322L76.80225908673023,-152.34225611817214A170.6070045455344,170.6070045455344,0,0,0,75.28493623538606,-153.09777390946562Z" fill-rule="evenodd" style="fill: #1DC690; stroke: #fff; opacity: 1;" id="p-type-logs"></path><path d="M88.68360991619016,-175.90968515756322A197,197,0,0,1,90.42690962738395,-175.0199246235723L78.31200092303412,-151.57170089245122A170.6070045455344,170.6070045455344,0,0,0,76.80225908673023,-152.34225611817214Z" fill-rule="evenodd" style="fill: #1DC690; stroke: #fff; opacity: 1;" id="p-type-logs"></path><path d="M90.42690962738395,-175.0199246235723A197,197,0,0,1,92.16128345840076,-174.11288818263947L79.81401272035362,-150.78618429244514A170.6070045455344,170.6070045455344,0,0,0,78.31200092303412,-151.57170089245122Z" fill-rule="evenodd" style="fill: #1DC690; stroke: #fff; opacity: 1;" id="p-type-logs"></path><path d="M92.16128345840076,-174.11288818263947A197,197,0,0,1,93.8865602122699,-173.18866536672607L81.30814621776304,-149.98578385510694A170.6070045455344,170.6070045455344,0,0,0,79.81401272035362,-150.78618429244514Z" fill-rule="evenodd" style="fill: #1DC690; stroke: #fff; opacity: 1;" id="p-type-logs"></path><path d="M93.8865602122699,-173.18866536672607A197,197,0,0,1,95.60256958997705,-172.24734740423028L82.79425393198977,-149.170578586547A170.6070045455344,170.6070045455344,0,0,0,81.30814621776304,-149.98578385510694Z" fill-rule="evenodd" style="fill: #1DC690; stroke: #fff; opacity: 1;" id="p-type-logs"></path><path d="M95.60256958997705,-172.24734740423028A197,197,0,0,1,97.30914220727423,-171.28902721098186L84.27218917197203,-148.34064895423424A170.6070045455344,170.6070045455344,0,0,0,82.79425393198977,-149.170578586547Z" fill-rule="evenodd" style="fill: #1DC690; stroke: #fff; opacity: 1;" id="p-type-logs"></path><path d="M97.30914220727423,-171.28902721098186A197,197,0,0,1,99.00610961139931,-170.31379938107065L85.74180605333848,-147.4960768790536A170.6070045455344,170.6070045455344,0,0,0,84.27218917197203,-148.34064895423424Z" fill-rule="evenodd" style="fill: #1DC690; stroke: #fff; opacity: 1;" id="p-type-logs"></path><path d="M99.00610961139931,-170.31379938107065A197,197,0,0,1,100.69330429770372,-169.3217601775095L87.2029595128082,-146.63694572721954A170.6070045455344,170.6070045455344,0,0,0,85.74180605333848,-147.4960768790536Z" fill-rule="evenodd" style="fill: #1DC690; stroke: #fff; opacity: 1;" id="p-type-logs"></path><path d="M100.69330429770372,-169.3217601775095A197,197,0,0,1,102.37055972618667,-168.31300752273202L88.6555053225098,-145.76334030204725A170.6070045455344,170.6070045455344,0,0,0,87.2029595128082,-146.63694572721954Z" fill-rule="evenodd" style="fill: #1DC690; stroke: #fff; opacity: 1;" id="p-type-logs"></path><path d="M102.37055972618667,-168.31300752273202A197,197,0,0,1,104.03771033793389,-167.2876409889271L90.09930010421766,-144.8753468355818A170.6070045455344,170.6070045455344,0,0,0,88.6555053225098,-145.76334030204725Z" fill-rule="evenodd" style="fill: #1DC690; stroke: #fff; opacity: 1;" id="p-type-logs"></path><path d="M104.03771033793389,-167.2876409889271A197,197,0,0,1,105.69459157145964,-166.2457617882102L91.53420134350466,-143.97305298008632A170.6070045455344,170.6070045455344,0,0,0,90.09930010421766,-144.8753468355818Z" fill-rule="evenodd" style="fill: #1DC690; stroke: #fff; opacity: 1;" id="p-type-logs"></path><path d="M105.69459157145964,-166.2457617882102A197,197,0,0,1,107.34103987895028,-165.18747276263295L92.96006740380945,-143.05654779939016A170.6070045455344,170.6070045455344,0,0,0,91.53420134350466,-143.97305298008632Z" fill-rule="evenodd" style="fill: #1DC690; stroke: #fff; opacity: 1;" id="p-type-logs"></path><path d="M107.34103987895028,-165.18747276263295A197,197,0,0,1,108.976892742408,-164.11287837403165L94.37675754041734,-142.1259217600972A170.6070045455344,170.6070045455344,0,0,0,92.96006740380945,-143.05654779939016Z" fill-rule="evenodd" style="fill: #1DC690; stroke: #fff; opacity: 1;" id="p-type-logs"></path><path d="M108.976892742408,-164.11287837403165A197,197,0,0,1,110.60198868969233,-163.02208469371618L95.78413191435271,-141.18126672265652A170.6070045455344,170.6070045455344,0,0,0,94.37675754041734,-142.1259217600972Z" fill-rule="evenodd" style="fill: #1DC690; stroke: #fff; opacity: 1;" id="p-type-logs"></path><path d="M110.60198868969233,-163.02208469371618A197,197,0,0,1,112.2161673104591,-161.9151993919998L97.18205160618245,-140.22267593229452A170.6070045455344,170.6070045455344,0,0,0,95.78413191435271,-141.18126672265652Z" fill-rule="evenodd" style="fill: #1DC690; stroke: #fff; opacity: 1;" id="p-type-logs"></path><path d="M112.2161673104591,-161.9151993919998A197,197,0,0,1,113.819269271994,-160.79233172757128L98.57037862972835,-139.25024400981133A170.6070045455344,170.6070045455344,0,0,0,97.18205160618245,-140.22267593229452Z" fill-rule="evenodd" style="fill: #1DC690; stroke: #fff; opacity: 1;" id="p-type-logs"></path><path d="M113.819269271994,-160.79233172757128A197,197,0,0,1,115.41113633494018,-159.65359253671008L99.94897594568747,-138.26406694224056A170.6070045455344,170.6070045455344,0,0,0,98.57037862972835,-139.25024400981133Z" fill-rule="evenodd" style="fill: #1DC690; stroke: #fff; opacity: 1;" id="p-type-logs"></path><path d="M115.41113633494018,-159.65359253671008A197,197,0,0,1,116.99161136891782,-158.49909422234595L101.31770747515917,-137.26424207337493A170.6070045455344,170.6070045455344,0,0,0,99.94897594568747,-138.26406694224056Z" fill-rule="evenodd" style="fill: #1DC690; stroke: #fff; opacity: 1;" id="p-type-logs"></path><path d="M116.99161136891782,-158.49909422234595A197,197,0,0,1,118.56053836803399,-157.32895074296383L102.67643811307707,-136.2508680941573A170.6070045455344,170.6070045455344,0,0,0,101.31770747515917,-137.26424207337493Z" fill-rule="evenodd" style="fill: #1DC690; stroke: #fff; opacity: 1;" id="p-type-logs"></path><path d="M118.56053836803399,-157.32895074296383A197,197,0,0,1,120.11776246628193,-156.1432776013552L104.02503374154509,-135.22404503293933A170.6070045455344,170.6070045455344,0,0,0,102.67643811307707,-136.2508680941573Z" fill-rule="evenodd" style="fill: #1DC690; stroke: #fff; opacity: 1;" id="p-type-logs"></path><path d="M120.11776246628193,-156.1432776013552A197,197,0,0,1,121.66312995282746,-154.942191833217L105.36336124307604,-134.1838742456077A170.6070045455344,170.6070045455344,0,0,0,104.02503374154509,-135.22404503293933Z" fill-rule="evenodd" style="fill: #1DC690; stroke: #fff; opacity: 1;" id="p-type-logs"></path><path d="M121.66312995282746,-154.942191833217A197,197,0,0,1,123.19648828718158,-153.72581199559926L106.6912885137313,-133.13045840557953A170.6070045455344,170.6070045455344,0,0,0,105.36336124307604,-134.1838742456077Z" fill-rule="evenodd" style="fill: #1DC690; stroke: #fff; opacity: 1;" id="p-type-logs"></path><path d="M192.26883448683574,-42.914977398033955A197,197,0,0,1,192.68570891779873,-41.002653314698335L166.87071886902746,-35.50933939309498A170.6070045455344,170.6070045455344,0,0,0,166.5096950216253,-37.16546062953241Z" fill-rule="evenodd" style="fill: #D7A449; stroke: #fff; opacity: 1;" id="p-type-tokenTransfers"></path><path d="M192.68570891779873,-41.002653314698335A197,197,0,0,1,193.08356368352375,-39.08628193203631L167.21527120316202,-33.84971309262415A170.6070045455344,170.6070045455344,0,0,0,166.87071886902746,-35.50933939309498Z" fill-rule="evenodd" style="fill: #D7A449; stroke: #fff; opacity: 1;" id="p-type-tokenTransfers"></path><path d="M193.08356368352375,-39.08628193203631A197,197,0,0,1,193.46235951247118,-37.166052411674706L167.5433180138781,-32.186745546894194A170.6070045455344,170.6070045455344,0,0,0,167.21527120316202,-33.84971309262415Z" fill-rule="evenodd" style="fill: #D7A449; stroke: #fff; opacity: 1;" id="p-type-tokenTransfers"></path><path d="M193.46235951247118,-37.166052411674706A197,197,0,0,1,193.82205901437527,-35.24215429607033L167.85482692025565,-30.5206009044878A170.6070045455344,170.6070045455344,0,0,0,167.5433180138781,-32.186745546894194Z" fill-rule="evenodd" style="fill: #D7A449; stroke: #fff; opacity: 1;" id="p-type-tokenTransfers"></path><path d="M193.82205901437527,-35.24215429607033A197,197,0,0,1,194.16262668393492,-33.31477748980053L168.14976717380196,-28.85144362759323A170.6070045455344,170.6070045455344,0,0,0,167.85482692025565,-30.5206009044878Z" fill-rule="evenodd" style="fill: #D7A449; stroke: #fff; opacity: 1;" id="p-type-tokenTransfers"></path><path d="M194.16262668393492,-33.31477748980053A197,197,0,0,1,194.48402890431836,-31.384112240818016L168.42810966148673,-27.179438475770567A170.6070045455344,170.6070045455344,0,0,0,168.14976717380196,-28.85144362759323Z" fill-rule="evenodd" style="fill: #D7A449; stroke: #fff; opacity: 1;" id="p-type-tokenTransfers"></path><path d="M194.48402890431836,-31.384112240818016A197,197,0,0,1,194.78623395048132,-29.450349121671888L168.68982690861571,-25.504750489688586A170.6070045455344,170.6070045455344,0,0,0,168.42810966148673,-27.179438475770567Z" fill-rule="evenodd" style="fill: #D7A449; stroke: #fff; opacity: 1;" id="p-type-tokenTransfers"></path><path d="M194.78623395048132,-29.450349121671888A197,197,0,0,1,195.06921199229868,-27.51367901069653L168.9348930815427,-23.827544974833895A170.6070045455344,170.6070045455344,0,0,0,168.68982690861571,-25.504750489688586Z" fill-rule="evenodd" style="fill: #D7A449; stroke: #fff; opacity: 1;" id="p-type-tokenTransfers"></path><path d="M195.06921199229868,-27.51367901069653A197,197,0,0,1,195.33293509750882,-25.574293073170317L169.1632839902196,-22.147987485193894A170.6070045455344,170.6070045455344,0,0,0,168.9348930815427,-23.827544974833895Z" fill-rule="evenodd" style="fill: #D7A449; stroke: #fff; opacity: 1;" id="p-type-tokenTransfers"></path><path d="M195.33293509750882,-25.574293073170317A197,197,0,0,1,195.5773772344709,-23.63238274244608L169.37497709058414,-20.466243806915266A170.6070045455344,170.6070045455344,0,0,0,169.1632839902196,-22.147987485193894Z" fill-rule="evenodd" style="fill: #D7A449; stroke: #fff; opacity: 1;" id="p-type-tokenTransfers"></path><path d="M195.5773772344709,-23.63238274244608A197,197,0,0,1,195.80251427473428,-21.688139701055025L169.56995148678507,-18.782479941939492A170.6070045455344,170.6070045455344,0,0,0,169.37497709058414,-20.466243806915266Z" fill-rule="evenodd" style="fill: #D7A449; stroke: #fff; opacity: 1;" id="p-type-tokenTransfers"></path><path d="M195.80251427473428,-21.688139701055025A197,197,0,0,1,196.00832399542026,-19.741755861786093L169.74818793324488,-17.09686209161711A170.6070045455344,170.6070045455344,0,0,0,169.56995148678507,-18.782479941939492Z" fill-rule="evenodd" style="fill: #D7A449; stroke: #fff; opacity: 1;" id="p-type-tokenTransfers"></path><path d="M196.00832399542026,-19.741755861786093A197,197,0,0,1,196.19478608141557,-17.7934233487426L169.9096688365595,-15.409556640302268A170.6070045455344,170.6070045455344,0,0,0,169.74818793324488,-17.09686209161711Z" fill-rule="evenodd" style="fill: #D7A449; stroke: #fff; opacity: 1;" id="p-type-tokenTransfers"></path><path d="M196.19478608141557,-17.7934233487426A197,197,0,0,1,196.36188212737787,-15.843334478378003L170.05437825723476,-13.720730138929229A170.6070045455344,170.6070045455344,0,0,0,169.9096688365595,-15.409556640302268Z" fill-rule="evenodd" style="fill: #D7A449; stroke: #fff; opacity: 1;" id="p-type-tokenTransfers"></path><path d="M196.36188212737787,-15.843334478378003A197,197,0,0,1,196.5095956395522,-13.891681740512674L170.18230191125994,-12.030549288572402A170.6070045455344,170.6070045455344,0,0,0,170.05437825723476,-13.720730138929229Z" fill-rule="evenodd" style="fill: #D7A449; stroke: #fff; opacity: 1;" id="p-type-tokenTransfers"></path><path d="M196.5095956395522,-13.891681740512674A197,197,0,0,1,196.63791203739925,-11.938657779333585L170.2934271715176,-10.339180923991599A170.6070045455344,170.6070045455344,0,0,0,170.18230191125994,-12.030549288572402Z" fill-rule="evenodd" style="fill: #D7A449; stroke: #fff; opacity: 1;" id="p-type-tokenTransfers"></path><path d="M196.63791203739925,-11.938657779333585A197,197,0,0,1,196.7468186550345,-9.98445537437873L170.38774306903,-8.646791997164048A170.6070045455344,170.6070045455344,0,0,0,170.2934271715176,-10.339180923991599Z" fill-rule="evenodd" style="fill: #D7A449; stroke: #fff; opacity: 1;" id="p-type-tokenTransfers"></path><path d="M196.7468186550345,-9.98445537437873A197,197,0,0,1,196.8363047424786,-8.0292674215082L170.46524029404185,-6.953549560804877A170.6070045455344,170.6070045455344,0,0,0,170.38774306903,-8.646791997164048Z" fill-rule="evenodd" style="fill: #D7A449; stroke: #fff; opacity: 1;" id="p-type-tokenTransfers"></path><path d="M196.8363047424786,-8.0292674215082A197,197,0,0,1,196.9063614667182,-6.073286913863781L170.52591119693926,-5.259620751877628A170.6070045455344,170.6070045455344,0,0,0,170.46524029404185,-6.953549560804877Z" fill-rule="evenodd" style="fill: #D7A449; stroke: #fff; opacity: 1;" id="p-type-tokenTransfers"></path><path d="M196.9063614667182,-6.073286913863781A197,197,0,0,1,196.9569819125781,-4.116706922818935L170.56974978900482,-3.5651727750964617A170.6070045455344,170.6070045455344,0,0,0,170.52591119693926,-5.259620751877628Z" fill-rule="evenodd" style="fill: #D7A449; stroke: #fff; opacity: 1;" id="p-type-tokenTransfers"></path><path d="M196.9569819125781,-4.116706922818935A197,197,0,0,1,196.98816108340367,-2.1597205789210694L170.5967517430087,-1.8703728864216806A170.6070045455344,170.6070045455344,0,0,0,170.56974978900482,-3.5651727750964617Z" fill-rule="evenodd" style="fill: #D7A449; stroke: #fff; opacity: 1;" id="p-type-tokenTransfers"></path><path d="M196.98816108340367,-2.1597205789210694A197,197,0,0,1,196.99989590155414,-0.20252105282796343L170.6069143936358,-0.17538837655018666A170.6070045455344,170.6070045455344,0,0,0,170.5967517430087,-1.8703728864216806Z" fill-rule="evenodd" style="fill: #D7A449; stroke: #fff; opacity: 1;" id="p-type-tokenTransfers"></path><path d="M196.99989590155414,-0.20252105282796343A197,197,0,0,1,196.9921852087064,1.7546984637597673L170.60023673774887,1.5196134455974866A170.6070045455344,170.6070045455344,0,0,0,170.6069143936358,-0.17538837655018666Z" fill-rule="evenodd" style="fill: #D7A449; stroke: #fff; opacity: 1;" id="p-type-tokenTransfers"></path><path d="M196.9921852087064,1.7546984637597673A197,197,0,0,1,196.9650297659693,3.7117447771682808L170.57671943448753,3.2144652693919418A170.6070045455344,170.6070045455344,0,0,0,170.60023673774887,1.5196134455974866Z" fill-rule="evenodd" style="fill: #D7A449; stroke: #fff; opacity: 1;" id="p-type-tokenTransfers"></path><path d="M196.9650297659693,3.7117447771682808A197,197,0,0,1,196.9184322538085,5.668424710820315L170.5363648052031,4.9089997990098535A170.6070045455344,170.6070045455344,0,0,0,170.57671943448753,3.2144652693919418Z" fill-rule="evenodd" style="fill: #D7A449; stroke: #fff; opacity: 1;" id="p-type-tokenTransfers"></path><path d="M196.9184322538085,5.668424710820315A197,197,0,0,1,196.85239727178194,7.624545124303303L170.4791768332297,6.603049769947441A170.6070045455344,170.6070045455344,0,0,0,170.5363648052031,4.9089997990098535Z" fill-rule="evenodd" style="fill: #D7A449; stroke: #fff; opacity: 1;" id="p-type-tokenTransfers"></path><path d="M196.85239727178194,7.624545124303303A197,197,0,0,1,196.76693133808584,9.579912932433926L170.4051611634907,8.296447965530856A170.6070045455344,170.6070045455344,0,0,0,170.4791768332297,6.603049769947441Z" fill-rule="evenodd" style="fill: #D7A449; stroke: #fff; opacity: 1;" id="p-type-tokenTransfers"></path><path d="M196.76693133808584,9.579912932433926A197,197,0,0,1,196.66204288891117,11.534335124317206L170.3143251019419,9.98902723342184A170.6070045455344,170.6070045455344,0,0,0,170.4051611634907,8.296447965530856Z" fill-rule="evenodd" style="fill: #D7A449; stroke: #fff; opacity: 1;" id="p-type-tokenTransfers"></path><path d="M196.66204288891117,11.534335124317206A197,197,0,0,1,196.53774227761113,13.487618782398267L170.20667761485012,11.680620502117037A170.6070045455344,170.6070045455344,0,0,0,170.3143251019419,9.98902723342184Z" fill-rule="evenodd" style="fill: #D7A449; stroke: #fff; opacity: 1;" id="p-type-tokenTransfers"></path><path d="M196.53774227761113,13.487618782398267A197,197,0,0,1,196.39404177367902,15.4395711015049L170.08222932790827,13.37106079743933A170.6070045455344,170.6070045455344,0,0,0,170.20667761485012,11.680620502117037Z" fill-rule="evenodd" style="fill: #D7A449; stroke: #fff; opacity: 1;" id="p-type-tokenTransfers"></path><path d="M196.39404177367902,15.4395711015049A197,197,0,0,1,196.23095556153714,17.389999407878996L169.94099252518646,15.060181259019556A170.6070045455344,170.6070045455344,0,0,0,170.08222932790827,13.37106079743933Z" fill-rule="evenodd" style="fill: #D7A449; stroke: #fff; opacity: 1;" id="p-type-tokenTransfers"></path><path d="M196.23095556153714,17.389999407878996A197,197,0,0,1,196.04849973913687,19.33871117819505L169.78298114791943,16.747815156767007A170.6070045455344,170.6070045455344,0,0,0,169.94099252518646,15.060181259019556Z" fill-rule="evenodd" style="fill: #D7A449; stroke: #fff; opacity: 1;" id="p-type-tokenTransfers"></path><path d="M196.04849973913687,19.33871117819505A197,197,0,0,1,195.84669231636943,21.285514058563802L169.60821079313055,18.433795907327063A170.6070045455344,170.6070045455344,0,0,0,169.78298114791943,16.747815156767007Z" fill-rule="evenodd" style="fill: #D7A449; stroke: #fff; opacity: 1;" id="p-type-tokenTransfers"></path><path d="M195.84669231636943,21.285514058563802A197,197,0,0,1,195.6255532132883,23.23021588351913L169.4166987120922,20.117957090524335A170.6070045455344,170.6070045455344,0,0,0,169.60821079313055,18.433795907327063Z" fill-rule="evenodd" style="fill: #D7A449; stroke: #fff; opacity: 1;" id="p-type-tokenTransfers"></path><path d="M195.6255532132883,23.23021588351913A197,197,0,0,1,195.3851042581429,25.172624694986368L169.20846380862284,21.8001324657897A170.6070045455344,170.6070045455344,0,0,0,169.4166987120922,20.117957090524335Z" fill-rule="evenodd" style="fill: #D7A449; stroke: #fff; opacity: 1;" id="p-type-tokenTransfers"></path><path d="M195.3851042581429,25.172624694986368A197,197,0,0,1,195.12536918522386,27.112548761230162L168.98352663722116,23.480155988569635A170.6070045455344,170.6070045455344,0,0,0,169.20846380862284,21.8001324657897Z" fill-rule="evenodd" style="fill: #D7A449; stroke: #fff; opacity: 1;" id="p-type-tokenTransfers"></path><path d="M195.12536918522386,27.112548761230162A197,197,0,0,1,194.84637363252057,29.049796595779966L168.74190940103722,25.157861826716154A170.6070045455344,170.6070045455344,0,0,0,168.98352663722116,23.480155988569635Z" fill-rule="evenodd" style="fill: #D7A449; stroke: #fff; opacity: 1;" id="p-type-tokenTransfers"></path><path d="M194.84637363252057,29.049796595779966A197,197,0,0,1,194.54814513919013,30.984176976331305L168.4836359496807,26.833084376855826A170.6070045455344,170.6070045455344,0,0,0,168.74190940103722,25.157861826716154Z" fill-rule="evenodd" style="fill: #D7A449; stroke: #fff; opacity: 1;" id="p-type-tokenTransfers"></path><path d="M194.54814513919013,30.984176976331305A197,197,0,0,1,194.23071314283914,32.915498963621026L168.20873177686673,28.505658280736174A170.6070045455344,170.6070045455344,0,0,0,168.4836359496807,26.833084376855826Z" fill-rule="evenodd" style="fill: #D7A449; stroke: #fff; opacity: 1;" id="p-type-tokenTransfers"></path><path d="M194.23071314283914,32.915498963621026A197,197,0,0,1,193.8941089766181,34.84357192027458L167.91722401789963,30.175418441547915A170.6070045455344,170.6070045455344,0,0,0,168.20873177686673,28.505658280736174Z" fill-rule="evenodd" style="fill: #D7A449; stroke: #fff; opacity: 1;" id="p-type-tokenTransfers"></path><path d="M193.8941089766181,34.84357192027458A197,197,0,0,1,193.53836586612837,36.76820552962343L167.60914144699424,31.842200040221357A170.6070045455344,170.6070045455344,0,0,0,167.91722401789963,30.175418441547915Z" fill-rule="evenodd" style="fill: #D7A449; stroke: #fff; opacity: 1;" id="p-type-tokenTransfers"></path><path d="M193.53836586612837,36.76820552962343A197,197,0,0,1,193.1635189261427,38.68920981449098L167.28451447443578,33.50583855169541A170.6070045455344,170.6070045455344,0,0,0,167.60914144699424,31.842200040221357Z" fill-rule="evenodd" style="fill: #D7A449; stroke: #fff; opacity: 1;" id="p-type-tokenTransfers"></path><path d="M193.1635189261427,38.68920981449098A197,197,0,0,1,192.76960515713898,40.60639515594479L166.9433751435781,35.16616976115756A170.6070045455344,170.6070045455344,0,0,0,167.28451447443578,33.50583855169541Z" fill-rule="evenodd" style="fill: #D7A449; stroke: #fff; opacity: 1;" id="p-type-tokenTransfers"></path><path d="M192.76960515713898,40.60639515594479A197,197,0,0,1,192.356663441648,42.51957231201359L166.58575712768058,36.8230297802532A170.6070045455344,170.6070045455344,0,0,0,166.9433751435781,35.16616976115756Z" fill-rule="evenodd" style="fill: #D7A449; stroke: #fff; opacity: 1;" id="p-type-tokenTransfers"></path><path d="M192.356663441648,42.51957231201359A197,197,0,0,1,191.92473454041559,44.428552436366964L166.2116957265846,38.476255063262805A170.6070045455344,170.6070045455344,0,0,0,166.58575712768058,36.8230297802532Z" fill-rule="evenodd" style="fill: #D7A449; stroke: #fff; opacity: 1;" id="p-type-tokenTransfers"></path><path d="M191.92473454041559,44.428552436366964A197,197,0,0,1,191.47386108837892,46.333147096956104L165.82122786322887,40.1256824232452A170.6070045455344,170.6070045455344,0,0,0,166.2116957265846,38.476255063262805Z" fill-rule="evenodd" style="fill: #D7A449; stroke: #fff; opacity: 1;" id="p-type-tokenTransfers"></path><path d="M191.47386108837892,46.333147096956104A197,197,0,0,1,191.00408759045837,48.233168294613534L165.41439208000497,41.77114904814547A170.6070045455344,170.6070045455344,0,0,0,165.82122786322887,40.1256824232452Z" fill-rule="evenodd" style="fill: #D7A449; stroke: #fff; opacity: 1;" id="p-type-tokenTransfers"></path><path d="M191.00408759045837,48.233168294613534A197,197,0,0,1,190.5154604171643,50.12842848161023L164.99122853495294,43.412492516865846A170.6070045455344,170.6070045455344,0,0,0,165.41439208000497,41.77114904814547Z" fill-rule="evenodd" style="fill: #D7A449; stroke: #fff; opacity: 1;" id="p-type-tokenTransfers"></path><path d="M190.5154604171643,50.12842848161023A197,197,0,0,1,190.00802780002,52.018740580168085L164.55177899779716,45.04955081529803A170.6070045455344,170.6070045455344,0,0,0,164.99122853495294,43.412492516865846Z" fill-rule="evenodd" style="fill: #D7A449; stroke: #fff; opacity: 1;" id="p-type-tokenTransfers"></path><path d="M190.00802780002,52.018740580168085A197,197,0,0,1,189.48183982680092,53.90391800092606L164.09608684582358,46.68216235231526A170.6070045455344,170.6070045455344,0,0,0,164.55177899779716,45.04955081529803Z" fill-rule="evenodd" style="fill: #D7A449; stroke: #fff; opacity: 1;" id="p-type-tokenTransfers"></path><path d="M189.48183982680092,53.90391800092606A197,197,0,0,1,188.9369484365904,55.78377466135807L163.62419705959786,48.31016597572276A170.6070045455344,170.6070045455344,0,0,0,164.09608684582358,46.68216235231526Z" fill-rule="evenodd" style="fill: #D7A449; stroke: #fff; opacity: 1;" id="p-type-tokenTransfers"></path><path d="M188.9369484365904,55.78377466135807A197,197,0,0,1,188.37340741465306,57.65812500414084L163.13615621852549,49.933400988164706A170.6070045455344,170.6070045455344,0,0,0,163.62419705959786,48.31016597572276Z" fill-rule="evenodd" style="fill: #D7A449; stroke: #fff; opacity: 1;" id="p-type-tokenTransfers"></path><path d="M188.37340741465306,57.65812500414084A197,197,0,0,1,187.79127238712556,59.52678401546999L162.6320124962539,51.55170716298647A170.6070045455344,170.6070045455344,0,0,0,163.13615621852549,49.933400988164706Z" fill-rule="evenodd" style="fill: #D7A449; stroke: #fff; opacity: 1;" id="p-type-tokenTransfers"></path><path d="M187.79127238712556,59.52678401546999A197,197,0,0,1,187.19060081552598,61.389567243322404L162.11181565591755,53.164924760050226A170.6070045455344,170.6070045455344,0,0,0,162.6320124962539,51.55170716298647Z" fill-rule="evenodd" style="fill: #D7A449; stroke: #fff; opacity: 1;" id="p-type-tokenTransfers"></path><path d="M126.53306695597242,150.99133407820267A197,197,0,0,1,111.75415293298765,162.2344269944897L96.78193541837854,140.49913514563997A170.6070045455344,170.6070045455344,0,0,0,109.58085040262942,130.76233106302652Z" fill-rule="evenodd" style="fill: #414552; stroke: #fff; opacity: 1;" id="p-type-ether"></path><path d="M111.75415293298765,162.2344269944897A197,197,0,0,1,104.83404302984077,166.7897581448498L90.78894444527306,144.44416764450241A170.6070045455344,170.6070045455344,0,0,0,96.78193541837854,140.49913514563997Z" fill-rule="evenodd" style="fill: #414552; stroke: #fff; opacity: 1;" id="p-type-ether"></path><path d="M104.83404302984077,166.7897581448498A197,197,0,0,1,103.17185224313292,167.82302852922524L89.34944499804762,145.33900604634965A170.6070045455344,170.6070045455344,0,0,0,90.78894444527306,144.44416764450241Z" fill-rule="evenodd" style="fill: #414552; stroke: #fff; opacity: 1;" id="p-type-ether"></path></g></svg>