<svg xmlns="http://www.w3.org/2000/svg" width="400" height="400" id="block-7907810"><g id="burst-container" transform="translate(200,200)"><circle r="197" style="fill: #f9f9f9; stroke: #f9f9f9; stroke-width: 3; opacity: 1;" id="circle-base"></circle><path display="none" d="M6.031385485800715e-15,-98.5A98.5,98.5,0,1,1,-6.031385485800715e-15,98.5A98.5,98.5,0,1,1,6.031385485800715e-15,-98.5Z" fill-rule="evenodd" id="p-type-root" style="stroke: #fff; opacity: 1;"></path><path d="M8.529667153919608e-15,-139.30003589374985A139.30003589374985,139.30003589374985,0,1,1,-127.47644309123687,-56.162767531583114L-90.13945735135461,-39.71307377178608A98.5,98.5,0,1,0,6.031385485800715e-15,-98.5Z" fill-rule="evenodd" style="fill: #0B1F65; stroke: #fff; opacity: 1;" id="p-type-data"></path><path d="M-127.47644309123687,-56.162767531583114A139.30003589374985,139.30003589374985,0,0,1,-2.012482771856196,-139.2854978563561L-1.423040215000616,-98.48972005517373A98.5,98.5,0,0,0,-90.13945735135461,-39.71307377178608Z" fill-rule="evenodd" style="fill: #D7A449; stroke: #fff; opacity: 1;" id="p-type-value"></path><path d="M1.0446666101440332e-14,-170.6070045455344A170.6070045455344,170.6070045455344,0,0,1,168.9262712695572,-23.88859298836952L137.927722920463,-19.50495449817776A139.30003589374985,139.30003589374985,0,0,0,8.529667153919608e-15,-139.30003589374985Z" fill-rule="evenodd" style="fill: #1DC690; stroke: #fff; opacity: 1;" id="p-type-logs"></path><path d="M168.9262712695572,-23.88859298836952A170.6070045455344,170.6070045455344,0,0,1,79.27146396082725,151.0721185444464L64.7248792891509,123.3498682650486A139.30003589374985,139.30003589374985,0,0,0,137.927722920463,-19.50495449817776Z" fill-rule="evenodd" style="fill: #D7A449; stroke: #fff; opacity: 1;" id="p-type-tokenTransfers"></path><path d="M79.27146396082725,151.0721185444464A170.6070045455344,170.6070045455344,0,0,1,-112.70299381173838,128.08116639799647L-92.02160910760304,104.57783444519926A139.30003589374985,139.30003589374985,0,0,0,64.7248792891509,123.3498682650486Z" fill-rule="evenodd" style="fill: #414552; stroke: #fff; opacity: 1;" id="p-type-ether"></path><path d="M-156.1261198992341,-68.78506149746448A170.6070045455344,170.6070045455344,0,0,1,-87.97632506761383,-146.1742666395065L-71.83236862029288,-119.35078893077481A139.30003589374985,139.30003589374985,0,0,0,-127.47644309123687,-56.162767531583114Z" fill-rule="evenodd" style="fill: #D7A449; stroke: #fff; opacity: 1;" id="p-type-tokenTransfers"></path><path d="M-87.97632506761383,-146.1742666395065A170.6070045455344,170.6070045455344,0,0,1,-4.929041434471368,-170.53578671509763L-4.024545478496965,-139.2418867786971A139.30003589374985,139.30003589374985,0,0,0,-71.83236862029288,-119.35078893077481Z" fill-rule="evenodd" style="fill: #414552; stroke: #fff; opacity: 1;" id="p-type-ether"></path><path d="M1.206277097160143e-14,-197A197,197,0,0,1,1.4230773453240737,-196.99485996053102L1.232421132600768,-170.60255314077781A170.6070045455344,170.6070045455344,0,0,0,1.0446666101440332e-14,-170.6070045455344Z" fill-rule="evenodd" style="fill: #1DC690; stroke: #fff; opacity: 1;" id="p-type-logs"></path><path d="M1.4230773453240737,-196.99485996053102A197,197,0,0,1,2.8460804300012517,-196.97944011034747L2.4647779535948224,-170.5891991587963A170.6070045455344,170.6070045455344,0,0,0,1.232421132600768,-170.60255314077781Z" fill-rule="evenodd" style="fill: #1DC690; stroke: #fff; opacity: 1;" id="p-type-logs"></path><path d="M2.8460804300012517,-196.97944011034747A197,197,0,0,1,4.2689349972596835,-196.95374125410558L3.6970061547313393,-170.56694329644264A170.6070045455344,170.6070045455344,0,0,0,2.4647779535948224,-170.5891991587963Z" fill-rule="evenodd" style="fill: #1DC690; stroke: #fff; opacity: 1;" id="p-type-logs"></path><path d="M4.2689349972596835,-196.95374125410558A197,197,0,0,1,5.69156679807779,-196.91776473285242L4.929041434471423,-170.53578671509763A170.6070045455344,170.6070045455344,0,0,0,3.6970061547313393,-170.56694329644264Z" fill-rule="evenodd" style="fill: #1DC690; stroke: #fff; opacity: 1;" id="p-type-logs"></path><path d="M5.69156679807779,-196.91776473285242A197,197,0,0,1,7.113901595058466,-196.8715124239559L6.16081950134327,-170.49573104060954A170.6070045455344,170.6070045455344,0,0,0,4.929041434471423,-170.53578671509763Z" fill-rule="evenodd" style="fill: #1DC690; stroke: #fff; opacity: 1;" id="p-type-logs"></path><path d="M7.113901595058466,-196.8715124239559A197,197,0,0,1,8.53586516630338,-196.81498674100683L7.392276077297408,-170.44677836320938A170.6070045455344,170.6070045455344,0,0,0,6.16081950134327,-170.49573104060954Z" fill-rule="evenodd" style="fill: #1DC690; stroke: #fff; opacity: 1;" id="p-type-logs"></path><path d="M8.53586516630338,-196.81498674100683A197,197,0,0,1,9.957383309285744,-196.7481906336929L8.623346901060616,-170.38893123740158A170.6070045455344,170.6070045455344,0,0,0,7.392276077297408,-170.44677836320938Z" fill-rule="evenodd" style="fill: #1DC690; stroke: #fff; opacity: 1;" id="p-type-logs"></path><path d="M9.957383309285744,-196.7481906336929A197,197,0,0,1,11.378381844722794,-196.67112758764486L9.853967731489583,-170.32219268183098A170.6070045455344,170.6070045455344,0,0,0,8.623346901060616,-170.38893123740158Z" fill-rule="evenodd" style="fill: #1DC690; stroke: #fff; opacity: 1;" id="p-type-logs"></path><path d="M11.378381844722794,-196.67112758764486A197,197,0,0,1,12.79878662044635,-196.5838016242546L11.08407435092292,-170.24656617912507A170.6070045455344,170.6070045455344,0,0,0,9.853967731489583,-170.32219268183098Z" fill-rule="evenodd" style="fill: #1DC690; stroke: #fff; opacity: 1;" id="p-type-logs"></path><path d="M12.79878662044635,-196.5838016242546A197,197,0,0,1,14.218523515272604,-196.48621730046523L12.313602568532493,-170.16205567571234A170.6070045455344,170.6070045455344,0,0,0,11.08407435092292,-170.24656617912507Z" fill-rule="evenodd" style="fill: #1DC690; stroke: #fff; opacity: 1;" id="p-type-logs"></path><path d="M14.218523515272604,-196.48621730046523A197,197,0,0,1,15.637518442869874,-196.37837970853334L13.542488223672988,-170.06866558161641A170.6070045455344,170.6070045455344,0,0,0,12.313602568532493,-170.16205567571234Z" fill-rule="evenodd" style="fill: #1DC690; stroke: #fff; opacity: 1;" id="p-type-logs"></path><path d="M15.637518442869874,-196.37837970853334A197,197,0,0,1,17.055697355624527,-196.26029447576335L14.770667189229913,-169.96640077022576A170.6070045455344,170.6070045455344,0,0,0,13.542488223672988,-170.06866558161641Z" fill-rule="evenodd" style="fill: #1DC690; stroke: #fff; opacity: 1;" id="p-type-logs"></path><path d="M17.055697355624527,-196.26029447576335A197,197,0,0,1,18.47298624850533,-196.13196776421364L15.998075374966207,-169.85526657803962A170.6070045455344,170.6070045455344,0,0,0,14.770667189229913,-169.96640077022576Z" fill-rule="evenodd" style="fill: #1DC690; stroke: #fff; opacity: 1;" id="p-type-logs"></path><path d="M18.47298624850533,-196.13196776421364A197,197,0,0,1,19.889311162924894,-195.9934062703752L17.224648730866374,-169.73526880438922A170.6070045455344,170.6070045455344,0,0,0,15.998075374966207,-169.85526657803962Z" fill-rule="evenodd" style="fill: #1DC690; stroke: #fff; opacity: 1;" id="p-type-logs"></path><path d="M19.889311162924894,-195.9934062703752A197,197,0,0,1,21.304598190599442,-195.84461722482217L18.4503232504791,-169.60641371113545A170.6070045455344,170.6070045455344,0,0,0,17.224648730866374,-169.73526880438922Z" fill-rule="evenodd" style="fill: #1DC690; stroke: #fff; opacity: 1;" id="p-type-logs"></path><path d="M21.304598190599442,-195.84461722482217A197,197,0,0,1,22.718773477405207,-195.68560839183434L19.67503497425704,-169.46870802234187A170.6070045455344,170.6070045455344,0,0,0,18.4503232504791,-169.60641371113545Z" fill-rule="evenodd" style="fill: #1DC690; stroke: #fff; opacity: 1;" id="p-type-logs"></path><path d="M22.718773477405207,-195.68560839183434A197,197,0,0,1,24.131763227232742,-195.51638806899226L20.8987199928947,-169.322158923924A170.6070045455344,170.6070045455344,0,0,0,19.67503497425704,-169.46870802234187Z" fill-rule="evenodd" style="fill: #1DC690; stroke: #fff; opacity: 1;" id="p-type-logs"></path><path d="M24.131763227232742,-195.51638806899226A197,197,0,0,1,25.543493705837445,-195.33696508674402L22.12131445066314,-169.16677406327426A170.6070045455344,170.6070045455344,0,0,0,20.8987199928947,-169.322158923924Z" fill-rule="evenodd" style="fill: #1DC690; stroke: #fff; opacity: 1;" id="p-type-logs"></path><path d="M25.543493705837445,-195.33696508674402A197,197,0,0,1,26.95389124468759,-195.1473488079445L23.342754548742413,-169.00256154886281A170.6070045455344,170.6070045455344,0,0,0,22.12131445066314,-169.16677406327426Z" fill-rule="evenodd" style="fill: #1DC690; stroke: #fff; opacity: 1;" id="p-type-logs"></path><path d="M26.95389124468759,-195.1473488079445A197,197,0,0,1,28.362882244808432,-194.9475491273669L24.562976548550708,-168.8295299498146A170.6070045455344,170.6070045455344,0,0,0,23.342754548742413,-169.00256154886281Z" fill-rule="evenodd" style="fill: #1DC690; stroke: #fff; opacity: 1;" id="p-type-logs"></path><path d="M28.362882244808432,-194.9475491273669A197,197,0,0,1,29.770393180622754,-194.7375764711863L25.781916775070318,-168.6476882954621A170.6070045455344,170.6070045455344,0,0,0,24.562976548550708,-168.8295299498146Z" fill-rule="evenodd" style="fill: #1DC690; stroke: #fff; opacity: 1;" id="p-type-logs"></path><path d="M29.770393180622754,-194.7375764711863A197,197,0,0,1,31.17635060378774,-194.51744179643558L26.999511620170505,-168.45704607487417A170.6070045455344,170.6070045455344,0,0,0,25.781916775070318,-168.6476882954621Z" fill-rule="evenodd" style="fill: #1DC690; stroke: #fff; opacity: 1;" id="p-type-logs"></path><path d="M31.17635060378774,-194.51744179643558A197,197,0,0,1,32.580681147027825,-194.28715659043368L28.21569754592682,-168.25761323636078A170.6070045455344,170.6070045455344,0,0,0,26.999511620170505,-168.45704607487417Z" fill-rule="evenodd" style="fill: #1DC690; stroke: #fff; opacity: 1;" id="p-type-logs"></path><path d="M32.580681147027825,-194.28715659043368A197,197,0,0,1,33.98331152796316,-194.04673287018622L29.430411087936662,-168.04940018695413A170.6070045455344,170.6070045455344,0,0,0,28.21569754592682,-168.25761323636078Z" fill-rule="evenodd" style="fill: #1DC690; stroke: #fff; opacity: 1;" id="p-type-logs"></path><path d="M33.98331152796316,-194.04673287018622A197,197,0,0,1,35.384168552933616,-193.7961831817582L30.64358885863097,-167.83241779186517A170.6070045455344,170.6070045455344,0,0,0,29.430411087936662,-168.04940018695413Z" fill-rule="evenodd" style="fill: #1DC690; stroke: #fff; opacity: 1;" id="p-type-logs"></path><path d="M35.384168552933616,-193.7961831817582A197,197,0,0,1,36.783179120818346,-193.53552059961962L31.855167550582042,-167.60667737391714A170.6070045455344,170.6070045455344,0,0,0,30.64358885863097,-167.83241779186517Z" fill-rule="evenodd" style="fill: #1DC690; stroke: #fff; opacity: 1;" id="p-type-logs"></path><path d="M36.783179120818346,-193.53552059961962A197,197,0,0,1,38.18027022685054,-193.26475872596293L33.06508393980722,-167.37219071295416A170.6070045455344,170.6070045455344,0,0,0,31.855167550582042,-167.60667737391714Z" fill-rule="evenodd" style="fill: #1DC690; stroke: #fff; opacity: 1;" id="p-type-logs"></path><path d="M38.18027022685054,-193.26475872596293A197,197,0,0,1,39.57536896642691,-192.9839116899934L34.273274889068,-167.12897004522696A170.6070045455344,170.6070045455344,0,0,0,33.06508393980722,-167.37219071295416Z" fill-rule="evenodd" style="fill: #1DC690; stroke: #fff; opacity: 1;" id="p-type-logs"></path><path d="M39.57536896642691,-192.9839116899934A197,197,0,0,1,40.96840253891203,-192.69299414719174L35.47967735116471,-166.8770280627542A170.6070045455344,170.6070045455344,0,0,0,34.273274889068,-167.12897004522696Z" fill-rule="evenodd" style="fill: #1DC690; stroke: #fff; opacity: 1;" id="p-type-logs"></path><path d="M40.96840253891203,-192.69299414719174A197,197,0,0,1,42.359298251437416,-192.39202127854932L36.68422837222655,-166.61637791265997A170.6070045455344,170.6070045455344,0,0,0,35.47967735116471,-166.8770280627542Z" fill-rule="evenodd" style="fill: #1DC690; stroke: #fff; opacity: 1;" id="p-type-logs"></path><path d="M42.359298251437416,-192.39202127854932A197,197,0,0,1,43.74798352269486,-192.08100878977604L37.886865094996786,-166.3470331964881A170.6070045455344,170.6070045455344,0,0,0,36.68422837222655,-166.61637791265997Z" fill-rule="evenodd" style="fill: #1DC690; stroke: #fff; opacity: 1;" id="p-type-logs"></path><path d="M43.74798352269486,-192.08100878977604A197,197,0,0,1,45.134385886723976,-191.7599729104807L39.0875247621128,-166.06900796949208A170.6070045455344,170.6070045455344,0,0,0,37.886865094996786,-166.3470331964881Z" fill-rule="evenodd" style="fill: #1DC690; stroke: #fff; opacity: 1;" id="p-type-logs"></path><path d="M45.134385886723976,-191.7599729104807A197,197,0,0,1,46.518432996693534,-191.42893039332412L40.28614471938087,-165.78231673990172A170.6070045455344,170.6070045455344,0,0,0,39.0875247621128,-166.06900796949208Z" fill-rule="evenodd" style="fill: #1DC690; stroke: #fff; opacity: 1;" id="p-type-logs"></path><path d="M46.518432996693534,-191.42893039332412A197,197,0,0,1,47.900052628676875,-191.08789851314495L41.48266241904575,-165.48697446816618A170.6070045455344,170.6070045455344,0,0,0,40.28614471938087,-165.78231673990172Z" fill-rule="evenodd" style="fill: #1DC690; stroke: #fff; opacity: 1;" id="p-type-logs"></path><path d="M47.900052628676875,-191.08789851314495A197,197,0,0,1,49.27917268542084,-190.73689506605814L42.67701542305466,-165.1829965661731A170.6070045455344,170.6070045455344,0,0,0,41.48266241904575,-165.48697446816618Z" fill-rule="evenodd" style="fill: #1DC690; stroke: #fff; opacity: 1;" id="p-type-logs"></path><path d="M49.27917268542084,-190.73689506605814A197,197,0,0,1,50.65572120010798,-190.3759383685263L43.869141406315464,-164.8703988964444A170.6070045455344,170.6070045455344,0,0,0,42.67701542305466,-165.1829965661731Z" fill-rule="evenodd" style="fill: #1DC690; stroke: #fff; opacity: 1;" id="p-type-logs"></path><path d="M50.65572120010798,-190.3759383685263A197,197,0,0,1,52.02962634011189,-190.00504725640405L45.05897815994886,-164.54919777130866A170.6070045455344,170.6070045455344,0,0,0,43.869141406315464,-164.8703988964444Z" fill-rule="evenodd" style="fill: #1DC690; stroke: #fff; opacity: 1;" id="p-type-logs"></path><path d="M52.02962634011189,-190.00504725640405A197,197,0,0,1,53.400816410745755,-189.62424108395484L46.24646359453477,-164.21940995204972A170.6070045455344,170.6070045455344,0,0,0,45.05897815994886,-164.54919777130866Z" fill-rule="evenodd" style="fill: #1DC690; stroke: #fff; opacity: 1;" id="p-type-logs"></path><path d="M53.400816410745755,-189.62424108395484A197,197,0,0,1,54.76921985900371,-189.2335397228412L47.431535743352384,-163.88105264803215A170.6070045455344,170.6070045455344,0,0,0,46.24646359453477,-164.21940995204972Z" fill-rule="evenodd" style="fill: #1DC690; stroke: #fff; opacity: 1;" id="p-type-logs"></path><path d="M54.76921985900371,-189.2335397228412A197,197,0,0,1,56.1347652772946,-188.8329635610876L48.61413276561374,-163.53414351580307A170.6070045455344,170.6070045455344,0,0,0,47.431535743352384,-163.88105264803215Z" fill-rule="evenodd" style="fill: #1DC690; stroke: #fff; opacity: 1;" id="p-type-logs"></path><path d="M56.1347652772946,-188.8329635610876A197,197,0,0,1,57.49738140716814,-188.42253350201676L49.79419294969066,-163.17870065817098A170.6070045455344,170.6070045455344,0,0,0,48.61413276561374,-163.53414351580307Z" fill-rule="evenodd" style="fill: #1DC690; stroke: #fff; opacity: 1;" id="p-type-logs"></path><path d="M57.49738140716814,-188.42253350201676A197,197,0,0,1,58.85699714303356,-188.0022709631587L50.97165471633519,-162.81474262326094A170.6070045455344,170.6070045455344,0,0,0,49.79419294969066,-163.17870065817098Z" fill-rule="evenodd" style="fill: #1DC690; stroke: #fff; opacity: 1;" id="p-type-logs"></path><path d="M58.85699714303356,-188.0022709631587A197,197,0,0,1,60.213541535870135,-187.57219787513299L52.146456621893,-162.44228840354668A170.6070045455344,170.6070045455344,0,0,0,50.97165471633519,-162.81474262326094Z" fill-rule="evenodd" style="fill: #1DC690; stroke: #fff; opacity: 1;" id="p-type-logs"></path><path d="M60.213541535870135,-187.57219787513299A197,197,0,0,1,61.56694379692948,-187.13233668050458L53.31853736150969,-162.0613574348595A170.6070045455344,170.6070045455344,0,0,0,52.146456621893,-162.44228840354668Z" fill-rule="evenodd" style="fill: #1DC690; stroke: #fff; opacity: 1;" id="p-type-logs"></path><path d="M61.56694379692948,-187.13233668050458A197,197,0,0,1,62.917133301429416,-186.68271033261266L54.48783577232976,-161.67196959537426A170.6070045455344,170.6070045455344,0,0,0,53.31853736150969,-162.0613574348595Z" fill-rule="evenodd" style="fill: #1DC690; stroke: #fff; opacity: 1;" id="p-type-logs"></path><path d="M62.917133301429416,-186.68271033261266A197,197,0,0,1,64.26403959223951,-186.22334229437263L55.65429083668838,-161.2741452045718A170.6070045455344,170.6070045455344,0,0,0,54.48783577232976,-161.67196959537426Z" fill-rule="evenodd" style="fill: #1DC690; stroke: #fff; opacity: 1;" id="p-type-logs"></path><path d="M64.26403959223951,-186.22334229437263A197,197,0,0,1,65.60759238355784,-185.75425653705202L56.81784168529554,-160.86790502217866A170.6070045455344,170.6070045455344,0,0,0,55.65429083668838,-161.2741452045718Z" fill-rule="evenodd" style="fill: #1DC690; stroke: #fff; opacity: 1;" id="p-type-logs"></path><path d="M65.60759238355784,-185.75425653705202A197,197,0,0,1,66.94772156457857,-185.27547753901933L57.97842760041233,-160.4532702470839A170.6070045455344,170.6070045455344,0,0,0,56.81784168529554,-160.86790502217866Z" fill-rule="evenodd" style="fill: #1DC690; stroke: #fff; opacity: 1;" id="p-type-logs"></path><path d="M66.94772156457857,-185.27547753901933A197,197,0,0,1,68.28435720315058,-184.78703028446702L59.135988019019315,-160.03026251623285A170.6070045455344,170.6070045455344,0,0,0,57.97842760041233,-160.4532702470839Z" fill-rule="evenodd" style="fill: #1DC690; stroke: #fff; opacity: 1;" id="p-type-logs"></path><path d="M68.28435720315058,-184.78703028446702A197,197,0,0,1,69.6174295494267,-184.28894026210747L60.29046253597697,-159.5989039034979A170.6070045455344,170.6070045455344,0,0,0,59.135988019019315,-160.03026251623285Z" fill-rule="evenodd" style="fill: #1DC690; stroke: #fff; opacity: 1;" id="p-type-logs"></path><path d="M69.6174295494267,-184.28894026210747A197,197,0,0,1,70.94686903950371,-183.78123346384285L61.44179090717789,-159.15921691852668A170.6070045455344,170.6070045455344,0,0,0,60.29046253597697,-159.5989039034979Z" fill-rule="evenodd" style="fill: #1DC690; stroke: #fff; opacity: 1;" id="p-type-logs"></path><path d="M70.94686903950371,-183.78123346384285A197,197,0,0,1,72.2726062990522,-183.26393638340906L62.58991305269044,-158.7112245055675A170.6070045455344,170.6070045455344,0,0,0,61.44179090717789,-159.15921691852668Z" fill-rule="evenodd" style="fill: #1DC690; stroke: #fff; opacity: 1;" id="p-type-logs"></path><path d="M72.2726062990522,-183.26393638340906A197,197,0,0,1,73.59457214693668,-182.73707601499302L63.734769059893836,-158.254950042272A170.6070045455344,170.6070045455344,0,0,0,62.58991305269044,-158.7112245055675Z" fill-rule="evenodd" style="fill: #1DC690; stroke: #fff; opacity: 1;" id="p-type-logs"></path><path d="M73.59457214693668,-182.73707601499302A197,197,0,0,1,74.91269759882582,-182.20067985182402L64.87629918660467,-157.79041733847512A170.6070045455344,170.6070045455344,0,0,0,63.734769059893836,-158.254950042272Z" fill-rule="evenodd" style="fill: #1DC690; stroke: #fff; opacity: 1;" id="p-type-logs"></path><path d="M74.91269759882582,-182.20067985182402A197,197,0,0,1,76.22691387079225,-181.6547758847392L66.01444386419448,-157.31765063495297A170.6070045455344,170.6070045455344,0,0,0,64.87629918660467,-157.79041733847512Z" fill-rule="evenodd" style="fill: #1DC690; stroke: #fff; opacity: 1;" id="p-type-logs"></path><path d="M76.22691387079225,-181.6547758847392A197,197,0,0,1,77.53715238290192,-181.09939260072255L67.14914370069818,-156.83667460215733A170.6070045455344,170.6070045455344,0,0,0,66.01444386419448,-157.31765063495297Z" fill-rule="evenodd" style="fill: #1DC690; stroke: #fff; opacity: 1;" id="p-type-logs"></path><path d="M77.53715238290192,-181.09939260072255A197,197,0,0,1,78.8433447627927,-180.53455898141888L68.28033948391325,-156.34751433892882A170.6070045455344,170.6070045455344,0,0,0,67.14914370069818,-156.83667460215733Z" fill-rule="evenodd" style="fill: #1DC690; stroke: #fff; opacity: 1;" id="p-type-logs"></path><path d="M78.8433447627927,-180.53455898141888A197,197,0,0,1,80.14542284924234,-179.96030450162098L69.40797218448967,-155.85019537118683A170.6070045455344,170.6070045455344,0,0,0,68.28033948391325,-156.34751433892882Z" fill-rule="evenodd" style="fill: #1DC690; stroke: #fff; opacity: 1;" id="p-type-logs"></path><path d="M80.14542284924234,-179.96030450162098A197,197,0,0,1,81.44331869572545,-179.3766591277318L70.53198295901035,-155.34474365059756A170.6070045455344,170.6070045455344,0,0,0,69.40797218448967,-155.85019537118683Z" fill-rule="evenodd" style="fill: #1DC690; stroke: #fff; opacity: 1;" id="p-type-logs"></path><path d="M81.44331869572545,-179.3766591277318A197,197,0,0,1,82.73696457395904,-178.7836533162007L71.65231315306168,-154.8311855532198A170.6070045455344,170.6070045455344,0,0,0,70.53198295901035,-155.34474365059756Z" fill-rule="evenodd" style="fill: #1DC690; stroke: #fff; opacity: 1;" id="p-type-logs"></path><path d="M82.73696457395904,-178.7836533162007A197,197,0,0,1,84.02629297743677,-178.181318011934L72.76890430429421,-154.30954787812863A170.6070045455344,170.6070045455344,0,0,0,71.65231315306168,-154.8311855532198Z" fill-rule="evenodd" style="fill: #1DC690; stroke: #fff; opacity: 1;" id="p-type-logs"></path><path d="M84.02629297743677,-178.181318011934A197,197,0,0,1,85.31123662495162,-177.56968464668037L73.88169814547352,-153.7798578460168A170.6070045455344,170.6070045455344,0,0,0,72.76890430429421,-154.30954787812863Z" fill-rule="evenodd" style="fill: #1DC690; stroke: #fff; opacity: 1;" id="p-type-logs"></path><path d="M85.31123662495162,-177.56968464668037A197,197,0,0,1,86.5917284641071,-176.94878513739036L74.99063660752081,-153.24214309777435A170.6070045455344,170.6070045455344,0,0,0,73.88169814547352,-153.7798578460168Z" fill-rule="evenodd" style="fill: #1DC690; stroke: #fff; opacity: 1;" id="p-type-logs"></path><path d="M86.5917284641071,-176.94878513739036A197,197,0,0,1,87.86770167481599,-176.31865188455117L76.09566182254311,-152.6964316930463A170.6070045455344,170.6070045455344,0,0,0,74.99063660752081,-153.24214309777435Z" fill-rule="evenodd" style="fill: #1DC690; stroke: #fff; opacity: 1;" id="p-type-logs"></path><path d="M87.86770167481599,-176.31865188455117A197,197,0,0,1,89.13908967278724,-175.6793177704957L77.19671612685285,-152.14275210876824A170.6070045455344,170.6070045455344,0,0,0,76.09566182254311,-152.6964316930463Z" fill-rule="evenodd" style="fill: #1DC690; stroke: #fff; opacity: 1;" id="p-type-logs"></path><path d="M89.13908967278724,-175.6793177704957A197,197,0,0,1,90.40582611300059,-175.03081615768667L78.29374206397708,-151.58113323768043A170.6070045455344,170.6070045455344,0,0,0,77.19671612685285,-152.14275210876824Z" fill-rule="evenodd" style="fill: #1DC690; stroke: #fff; opacity: 1;" id="p-type-logs"></path><path d="M90.40582611300059,-175.03081615768667A197,197,0,0,1,91.66784489316879,-174.3731808869757L79.3866823876558,-151.0116043868201A170.6070045455344,170.6070045455344,0,0,0,78.29374206397708,-151.58113323768043Z" fill-rule="evenodd" style="fill: #1DC690; stroke: #fff; opacity: 1;" id="p-type-logs"></path><path d="M91.66784489316879,-174.3731808869757A197,197,0,0,1,92.92508015718691,-173.7064462758374L80.47548006482913,-150.43419527599198A170.6070045455344,170.6070045455344,0,0,0,79.3866823876558,-151.0116043868201Z" fill-rule="evenodd" style="fill: #1DC690; stroke: #fff; opacity: 1;" id="p-type-logs"></path><path d="M92.92508015718691,-173.7064462758374A197,197,0,0,1,94.17746629856883,-173.03064711657854L81.56007827861343,-149.84893603621765A170.6070045455344,170.6070045455344,0,0,0,80.47548006482913,-150.43419527599198Z" fill-rule="evenodd" style="fill: #1DC690; stroke: #fff; opacity: 1;" id="p-type-logs"></path><path d="M94.17746629856883,-173.03064711657854A197,197,0,0,1,95.42493796387086,-172.34581867452252L82.64042043126628,-149.255857208163A170.6070045455344,170.6070045455344,0,0,0,81.56007827861343,-149.84893603621765Z" fill-rule="evenodd" style="fill: #1DC690; stroke: #fff; opacity: 1;" id="p-type-logs"></path><path d="M95.42493796387086,-172.34581867452252A197,197,0,0,1,96.66743005610225,-171.651996686169L83.71645014713992,-148.65498974054466A170.6070045455344,170.6070045455344,0,0,0,82.64042043126628,-149.255857208163Z" fill-rule="evenodd" style="fill: #1DC690; stroke: #fff; opacity: 1;" id="p-type-logs"></path><path d="M96.66743005610225,-171.651996686169A197,197,0,0,1,97.90487773812195,-170.94921735732922L84.78811127562317,-148.0463649885148A170.6070045455344,170.6070045455344,0,0,0,83.71645014713992,-148.65498974054466Z" fill-rule="evenodd" style="fill: #1DC690; stroke: #fff; opacity: 1;" id="p-type-logs"></path><path d="M97.90487773812195,-170.94921735732922A197,197,0,0,1,99.13721643602206,-170.23751736123657L85.85534789407129,-147.43001471202527A170.6070045455344,170.6070045455344,0,0,0,84.78811127562317,-148.0463649885148Z" fill-rule="evenodd" style="fill: #1DC690; stroke: #fff; opacity: 1;" id="p-type-logs"></path><path d="M99.13721643602206,-170.23751736123657A197,197,0,0,1,100.36438184249751,-169.51693383663286L86.91810431072447,-146.80597107416992A170.6070045455344,170.6070045455344,0,0,0,85.85534789407129,-147.43001471202527Z" fill-rule="evenodd" style="fill: #1DC690; stroke: #fff; opacity: 1;" id="p-type-logs"></path><path d="M100.36438184249751,-169.51693383663286A197,197,0,0,1,101.58630992020187,-168.78750438583035L87.97632506761394,-146.1742666395064A170.6070045455344,170.6070045455344,0,0,0,86.91810431072447,-146.80597107416992Z" fill-rule="evenodd" style="fill: #1DC690; stroke: #fff; opacity: 1;" id="p-type-logs"></path><path d="M101.58630992020187,-168.78750438583035A197,197,0,0,1,102.80293690508901,-168.04926707274947L89.02995494345588,-145.53493437235684A170.6070045455344,170.6070045455344,0,0,0,87.97632506761394,-146.1742666395064Z" fill-rule="evenodd" style="fill: #1DC690; stroke: #fff; opacity: 1;" id="p-type-logs"></path><path d="M102.80293690508901,-168.04926707274947A197,197,0,0,1,104.01419930974043,-167.30226042093273L90.07893895653304,-144.88800763508758A170.6070045455344,170.6070045455344,0,0,0,89.02995494345588,-145.53493437235684Z" fill-rule="evenodd" style="fill: #1DC690; stroke: #fff; opacity: 1;" id="p-type-logs"></path><path d="M104.01419930974043,-167.30226042093273A197,197,0,0,1,105.22003392667825,-166.5465234115341L91.12322236756387,-144.23352018636828A170.6070045455344,170.6070045455344,0,0,0,90.07893895653304,-144.88800763508758Z" fill-rule="evenodd" style="fill: #1DC690; stroke: #fff; opacity: 1;" id="p-type-logs"></path><path d="M105.22003392667825,-166.5465234115341A197,197,0,0,1,106.42037783166367,-165.78209548128515L92.16275068255905,-143.57150617941033A170.6070045455344,170.6070045455344,0,0,0,91.12322236756387,-144.23352018636828Z" fill-rule="evenodd" style="fill: #1DC690; stroke: #fff; opacity: 1;" id="p-type-logs"></path><path d="M106.42037783166367,-165.78209548128515A197,197,0,0,1,107.6151683869805,-165.00901652043694L93.19746965566515,-142.9020001601845A170.6070045455344,170.6070045455344,0,0,0,92.16275068255905,-143.57150617941033Z" fill-rule="evenodd" style="fill: #1DC690; stroke: #fff; opacity: 1;" id="p-type-logs"></path><path d="M107.6151683869805,-165.00901652043694A197,197,0,0,1,108.8043432447037,-164.22732687067858L94.22732529199517,-142.22503706561838A170.6070045455344,170.6070045455344,0,0,0,93.19746965566515,-142.9020001601845Z" fill-rule="evenodd" style="fill: #1DC690; stroke: #fff; opacity: 1;" id="p-type-logs"></path><path d="M108.8043432447037,-164.22732687067858A197,197,0,0,1,109.98784034995303,-163.43706732303184L95.25226385044645,-141.54065222177312A170.6070045455344,170.6070045455344,0,0,0,94.22732529199517,-142.22503706561838Z" fill-rule="evenodd" style="fill: #1DC690; stroke: #fff; opacity: 1;" id="p-type-logs"></path><path d="M109.98784034995303,-163.43706732303184A197,197,0,0,1,111.16559794413125,-162.63827911572284L96.27223184650482,-140.8488813420001A170.6070045455344,170.6070045455344,0,0,0,95.25226385044645,-141.54065222177312Z" fill-rule="evenodd" style="fill: #1DC690; stroke: #fff; opacity: 1;" id="p-type-logs"></path><path d="M111.16559794413125,-162.63827911572284A197,197,0,0,1,112.33755456814676,-161.83100393202983L97.2871760550357,-140.14976052507723A170.6070045455344,170.6070045455344,0,0,0,96.27223184650482,-140.8488813420001Z" fill-rule="evenodd" style="fill: #1DC690; stroke: #fff; opacity: 1;" id="p-type-logs"></path><path d="M112.33755456814676,-161.83100393202983A197,197,0,0,1,113.50364906562083,-161.01528389810824L98.2970435130615,-139.4433262533252A170.6070045455344,170.6070045455344,0,0,0,97.2871760550357,-140.14976052507723Z" fill-rule="evenodd" style="fill: #1DC690; stroke: #fff; opacity: 1;" id="p-type-logs"></path><path d="M113.50364906562083,-161.01528389810824A197,197,0,0,1,114.66382058607897,-160.19116158079225L99.30178152252547,-138.72961539070388A170.6070045455344,170.6070045455344,0,0,0,98.2970435130615,-139.4433262533252Z" fill-rule="evenodd" style="fill: #1DC690; stroke: #fff; opacity: 1;" id="p-type-logs"></path><path d="M114.66382058607897,-160.19116158079225A197,197,0,0,1,115.81800858812616,-159.35867998537367L100.30133765304154,-138.00866518088836A170.6070045455344,170.6070045455344,0,0,0,99.30178152252547,-138.72961539070388Z" fill-rule="evenodd" style="fill: #1DC690; stroke: #fff; opacity: 1;" id="p-type-logs"></path><path d="M115.81800858812616,-159.35867998537367A197,197,0,0,1,116.96615284260623,-158.51788255335762L101.29565974463043,-137.28051324532575A170.6070045455344,170.6070045455344,0,0,0,100.30133765304154,-138.00866518088836Z" fill-rule="evenodd" style="fill: #1DC690; stroke: #fff; opacity: 1;" id="p-type-logs"></path><path d="M116.96615284260623,-158.51788255335762A197,197,0,0,1,118.10819343574472,-157.66881316019573L102.2846959104414,-136.5451975812717A170.6070045455344,170.6070045455344,0,0,0,101.29565974463043,-137.28051324532575Z" fill-rule="evenodd" style="fill: #1DC690; stroke: #fff; opacity: 1;" id="p-type-logs"></path><path d="M118.10819343574472,-157.66881316019573A197,197,0,0,1,119.24407077227538,-156.81151611299657L103.26839453945996,-135.80275655980785A170.6070045455344,170.6070045455344,0,0,0,102.2846959104414,-136.5451975812717Z" fill-rule="evenodd" style="fill: #1DC690; stroke: #fff; opacity: 1;" id="p-type-logs"></path><path d="M119.24407077227538,-156.81151611299657A197,197,0,0,1,120.37372557855008,-155.94603614821352L104.24670429920104,-135.05322892383927A170.6070045455344,170.6070045455344,0,0,0,103.26839453945996,-135.80275655980785Z" fill-rule="evenodd" style="fill: #1DC690; stroke: #fff; opacity: 1;" id="p-type-logs"></path><path d="M120.37372557855008,-155.94603614821352A197,197,0,0,1,121.49709890563186,-155.07241842931035L105.2195741383877,-134.29665378607294A170.6070045455344,170.6070045455344,0,0,0,104.24670429920104,-135.05322892383927Z" fill-rule="evenodd" style="fill: #1DC690; stroke: #fff; opacity: 1;" id="p-type-logs"></path><path d="M121.49709890563186,-155.07241842931035A197,197,0,0,1,122.61413213237107,-154.19070854440434L106.18695328961518,-133.53307062697647A170.6070045455344,170.6070045455344,0,0,0,105.2195741383877,-134.29665378607294Z" fill-rule="evenodd" style="fill: #1DC690; stroke: #fff; opacity: 1;" id="p-type-logs"></path><path d="M122.61413213237107,-154.19070854440434A197,197,0,0,1,123.72476696846445,-153.3009525038875L107.148791272,-132.76251929271822A170.6070045455344,170.6070045455344,0,0,0,106.18695328961518,-133.53307062697647Z" fill-rule="evenodd" style="fill: #1DC690; stroke: #fff; opacity: 1;" id="p-type-logs"></path><path d="M123.72476696846445,-153.3009525038875A197,197,0,0,1,124.82894545749681,-152.40319673802543L108.10503789381434,-131.98503999308772A170.6070045455344,170.6070045455344,0,0,0,107.148791272,-132.76251929271822Z" fill-rule="evenodd" style="fill: #1DC690; stroke: #fff; opacity: 1;" id="p-type-logs"></path><path d="M124.82894545749681,-152.40319673802543A197,197,0,0,1,125.92660997996549,-151.4974880945346L109.05564325510512,-131.2006732993975A170.6070045455344,170.6070045455344,0,0,0,108.10503789381434,-131.98503999308772Z" fill-rule="evenodd" style="fill: #1DC690; stroke: #fff; opacity: 1;" id="p-type-logs"></path><path d="M125.92660997996549,-151.4974880945346A197,197,0,0,1,127.01770325628704,-150.5838738361376L110.00055775029799,-130.40946014236604A170.6070045455344,170.6070045455344,0,0,0,109.05564325510512,-131.2006732993975Z" fill-rule="evenodd" style="fill: #1DC690; stroke: #fff; opacity: 1;" id="p-type-logs"></path><path d="M127.01770325628704,-150.5838738361376A197,197,0,0,1,128.1021683497863,-149.66240163809684L110.93973207078581,-129.61144180998164A170.6070045455344,170.6070045455344,0,0,0,110.00055775029799,-130.40946014236604Z" fill-rule="evenodd" style="fill: #1DC690; stroke: #fff; opacity: 1;" id="p-type-logs"></path><path d="M128.1021683497863,-149.66240163809684A197,197,0,0,1,129.17994866966743,-148.7331195857267L111.87311720750179,-128.80665994534817A170.6070045455344,170.6070045455344,0,0,0,110.93973207078581,-129.61144180998164Z" fill-rule="evenodd" style="fill: #1DC690; stroke: #fff; opacity: 1;" id="p-type-logs"></path><path d="M195.0592563813572,-27.5841711847931A197,197,0,0,1,195.2534279388497,-26.17439355798764L169.0944287710381,-22.667689749869055A170.6070045455344,170.6070045455344,0,0,0,168.9262712695572,-23.88859298836952Z" fill-rule="evenodd" style="fill: #D7A449; stroke: #fff; opacity: 1;" id="p-type-tokenTransfers"></path><path d="M195.2534279388497,-26.17439355798764A197,197,0,0,1,195.43741055902183,-24.763250069091157L169.253762393962,-21.445603640099698A170.6070045455344,170.6070045455344,0,0,0,169.0944287710381,-22.667689749869055Z" fill-rule="evenodd" style="fill: #D7A449; stroke: #fff; opacity: 1;" id="p-type-tokenTransfers"></path><path d="M195.43741055902183,-24.763250069091157A197,197,0,0,1,195.61119464108236,-23.350814356004474L169.4042638237998,-20.22239843135424A170.6070045455344,170.6070045455344,0,0,0,169.253762393962,-21.445603640099698Z" fill-rule="evenodd" style="fill: #D7A449; stroke: #fff; opacity: 1;" id="p-type-tokenTransfers"></path><path d="M195.61119464108236,-23.350814356004474A197,197,0,0,1,195.77477111643196,-21.937160124060703L169.54592520691403,-18.998137954323557A170.6070045455344,170.6070045455344,0,0,0,169.4042638237998,-20.22239843135424Z" fill-rule="evenodd" style="fill: #D7A449; stroke: #fff; opacity: 1;" id="p-type-tokenTransfers"></path><path d="M195.77477111643196,-21.937160124060703A197,197,0,0,1,195.92813144913615,-20.522361142179115L169.6787391509687,-17.77288609476574A170.6070045455344,170.6070045455344,0,0,0,169.54592520691403,-18.998137954323557Z" fill-rule="evenodd" style="fill: #D7A449; stroke: #fff; opacity: 1;" id="p-type-tokenTransfers"></path><path d="M195.92813144913615,-20.522361142179115A197,197,0,0,1,196.07126763637098,-19.10649123901562L169.8026987253149,-16.546706790172344A170.6070045455344,170.6070045455344,0,0,0,169.6787391509687,-17.77288609476574Z" fill-rule="evenodd" style="fill: #D7A449; stroke: #fff; opacity: 1;" id="p-type-tokenTransfers"></path><path d="M196.07126763637098,-19.10649123901562A197,197,0,0,1,196.20417220884048,-17.689624299110175L169.91779746135262,-15.319664026431907A170.6070045455344,170.6070045455344,0,0,0,169.8026987253149,-16.546706790172344Z" fill-rule="evenodd" style="fill: #D7A449; stroke: #fff; opacity: 1;" id="p-type-tokenTransfers"></path><path d="M196.20417220884048,-17.689624299110175A197,197,0,0,1,196.32683823116648,-16.271834259031237L170.02402935286813,-14.09182183449099A170.6070045455344,170.6070045455344,0,0,0,169.91779746135262,-15.319664026431907Z" fill-rule="evenodd" style="fill: #D7A449; stroke: #fff; opacity: 1;" id="p-type-tokenTransfers"></path><path d="M196.32683823116648,-16.271834259031237A197,197,0,0,1,196.43925930225058,-14.853195103517537L170.1213888563476,-12.863244287012822A170.6070045455344,170.6070045455344,0,0,0,170.02402935286813,-14.09182183449099Z" fill-rule="evenodd" style="fill: #D7A449; stroke: #fff; opacity: 1;" id="p-type-tokenTransfers"></path><path d="M196.43925930225058,-14.853195103517537A197,197,0,0,1,196.54142955560806,-13.433780861617313L170.20987089126626,-11.633995495033796A170.6070045455344,170.6070045455344,0,0,0,170.1213888563476,-12.863244287012822Z" fill-rule="evenodd" style="fill: #D7A449; stroke: #fff; opacity: 1;" id="p-type-tokenTransfers"></path><path d="M196.54142955560806,-13.433780861617313A197,197,0,0,1,196.6333436596741,-12.013665602825245L170.28947084035354,-10.404139604617955A170.6070045455344,170.6070045455344,0,0,0,170.20987089126626,-11.633995495033796Z" fill-rule="evenodd" style="fill: #D7A449; stroke: #fff; opacity: 1;" id="p-type-tokenTransfers"></path><path d="M196.6333436596741,-12.013665602825245A197,197,0,0,1,196.71499681808194,-10.592923433217283L170.36018454983397,-9.173740793509639A170.6070045455344,170.6070045455344,0,0,0,170.28947084035354,-10.404139604617955Z" fill-rule="evenodd" style="fill: #D7A449; stroke: #fff; opacity: 1;" id="p-type-tokenTransfers"></path><path d="M196.71499681808194,-10.592923433217283A197,197,0,0,1,196.78638476991333,-9.171628491583546L170.4220083296441,-7.942863267784502A170.6070045455344,170.6070045455344,0,0,0,170.36018454983397,-9.173740793509639Z" fill-rule="evenodd" style="fill: #D7A449; stroke: #fff; opacity: 1;" id="p-type-tokenTransfers"></path><path d="M196.78638476991333,-9.171628491583546A197,197,0,0,1,196.84750378992055,-7.74985494555954L170.47493895362476,-6.7115712584990295A170.6070045455344,170.6070045455344,0,0,0,170.4220083296441,-7.942863267784502Z" fill-rule="evenodd" style="fill: #D7A449; stroke: #fff; opacity: 1;" id="p-type-tokenTransfers"></path><path d="M196.84750378992055,-7.74985494555954A197,197,0,0,1,196.89835068872117,-6.327676987755848L170.51897365968975,-5.479929018338758A170.6070045455344,170.6070045455344,0,0,0,170.47493895362476,-6.7115712584990295Z" fill-rule="evenodd" style="fill: #D7A449; stroke: #fff; opacity: 1;" id="p-type-tokenTransfers"></path><path d="M196.89835068872117,-6.327676987755848A197,197,0,0,1,196.93892281296425,-4.905168831886529L170.55411014996974,-4.248000818265375A170.6070045455344,170.6070045455344,0,0,0,170.51897365968975,-5.479929018338758Z" fill-rule="evenodd" style="fill: #D7A449; stroke: #fff; opacity: 1;" id="p-type-tokenTransfers"></path><path d="M196.93892281296425,-4.905168831886529A197,197,0,0,1,196.96921804546886,-3.482404708896421L170.5803465909323,-3.015850944162853A170.6070045455344,170.6070045455344,0,0,0,170.55411014996974,-4.248000818265375Z" fill-rule="evenodd" style="fill: #D7A449; stroke: #fff; opacity: 1;" id="p-type-tokenTransfers"></path><path d="M196.96921804546886,-3.482404708896421A197,197,0,0,1,196.9892348053346,-2.0594588630875235L170.59768161347748,-1.7835436934828135A170.6070045455344,170.6070045455344,0,0,0,170.5803465909323,-3.015850944162853Z" fill-rule="evenodd" style="fill: #D7A449; stroke: #fff; opacity: 1;" id="p-type-tokenTransfers"></path><path d="M196.9892348053346,-2.0594588630875235A197,197,0,0,1,196.99897204802406,-0.636405548244707L170.60611431300939,-0.5511433718892793A170.6070045455344,170.6070045455344,0,0,0,170.59768161347748,-1.7835436934828135Z" fill-rule="evenodd" style="fill: #D7A449; stroke: #fff; opacity: 1;" id="p-type-tokenTransfers"></path><path d="M196.99897204802406,-0.636405548244707A197,197,0,0,1,196.9984292654173,0.786680976239087L170.6056442494832,0.6812857100969917A170.6070045455344,170.6070045455344,0,0,0,170.60611431300939,-0.5511433718892793Z" fill-rule="evenodd" style="fill: #D7A449; stroke: #fff; opacity: 1;" id="p-type-tokenTransfers"></path><path d="M196.9984292654173,0.786680976239087A197,197,0,0,1,196.98760648583843,2.209726449237933L170.59627144742834,1.9136792404544347A170.6070045455344,170.6070045455344,0,0,0,170.6056442494832,0.6812857100969917Z" fill-rule="evenodd" style="fill: #D7A449; stroke: #fff; opacity: 1;" id="p-type-tokenTransfers"></path><path d="M196.98760648583843,2.209726449237933A197,197,0,0,1,196.9665042740541,3.632656611768101L170.57799639594705,3.14597290901668A170.6070045455344,170.6070045455344,0,0,0,170.59627144742834,1.9136792404544347Z" fill-rule="evenodd" style="fill: #D7A449; stroke: #fff; opacity: 1;" id="p-type-tokenTransfers"></path><path d="M196.9665042740541,3.632656611768101A197,197,0,0,1,196.93512373124403,5.055397210863124L170.550820048689,4.378102410828462A170.6070045455344,170.6070045455344,0,0,0,170.57799639594705,3.14597290901668Z" fill-rule="evenodd" style="fill: #D7A449; stroke: #fff; opacity: 1;" id="p-type-tokenTransfers"></path><path d="M196.93512373124403,5.055397210863124A197,197,0,0,1,196.8934664949435,6.477874003448552L170.5147438238013,5.61000344950125A170.6070045455344,170.6070045455344,0,0,0,170.550820048689,4.378102410828462Z" fill-rule="evenodd" style="fill: #D7A449; stroke: #fff; opacity: 1;" id="p-type-tokenTransfers"></path><path d="M196.8934664949435,6.477874003448552A197,197,0,0,1,196.84153473895802,7.9000127602161845L170.46976960385473,6.841611740568439A170.6070045455344,170.6070045455344,0,0,0,170.5147438238013,5.61000344950125Z" fill-rule="evenodd" style="fill: #D7A449; stroke: #fff; opacity: 1;" id="p-type-tokenTransfers"></path><path d="M196.84153473895802,7.9000127602161845A197,197,0,0,1,196.77933117324977,9.321739269497593L170.4158997357454,8.07286301483991A170.6070045455344,170.6070045455344,0,0,0,170.46976960385473,6.841611740568439Z" fill-rule="evenodd" style="fill: #D7A449; stroke: #fff; opacity: 1;" id="p-type-tokenTransfers"></path><path d="M196.77933117324977,9.321739269497593A197,197,0,0,1,196.70685904379621,10.742979341136719L170.35313703057227,9.303693021755809A170.6070045455344,170.6070045455344,0,0,0,170.4158997357454,8.07286301483991Z" fill-rule="evenodd" style="fill: #D7A449; stroke: #fff; opacity: 1;" id="p-type-tokenTransfers"></path><path d="M196.70685904379621,10.742979341136719A197,197,0,0,1,196.62412213242078,12.16365881036135L170.28148476349048,10.534037532739331A170.6070045455344,170.6070045455344,0,0,0,170.35313703057227,9.303693021755809Z" fill-rule="evenodd" style="fill: #D7A449; stroke: #fff; opacity: 1;" id="p-type-tokenTransfers"></path><path d="M196.62412213242078,12.16365881036135A197,197,0,0,1,196.53112475659543,13.58370354165326L170.20094667354044,11.763832344548375A170.6070045455344,170.6070045455344,0,0,0,170.28148476349048,10.534037532739331Z" fill-rule="evenodd" style="fill: #D7A449; stroke: #fff; opacity: 1;" id="p-type-tokenTransfers"></path><path d="M196.53112475659543,13.58370354165326A197,197,0,0,1,196.42787176921544,15.003039432616857L170.11152696345272,12.993013282625869A170.6070045455344,170.6070045455344,0,0,0,170.20094667354044,11.763832344548375Z" fill-rule="evenodd" style="fill: #D7A449; stroke: #fff; opacity: 1;" id="p-type-tokenTransfers"></path><path d="M196.42787176921544,15.003039432616857A197,197,0,0,1,196.31436855834608,16.421592417846057L170.01323029942876,14.221516204448607A170.6070045455344,170.6070045455344,0,0,0,170.11152696345272,12.993013282625869Z" fill-rule="evenodd" style="fill: #D7A449; stroke: #fff; opacity: 1;" id="p-type-tokenTransfers"></path><path d="M196.31436855834608,16.421592417846057A197,197,0,0,1,196.19062104694152,17.83928847278925L169.9060618108973,15.449277002874393A170.6070045455344,170.6070045455344,0,0,0,170.01323029942876,14.221516204448607Z" fill-rule="evenodd" style="fill: #D7A449; stroke: #fff; opacity: 1;" id="p-type-tokenTransfers"></path><path d="M196.19062104694152,17.83928847278925A197,197,0,0,1,196.05663569253565,19.256053617612153L169.79002709024678,16.676231609487367A170.6070045455344,170.6070045455344,0,0,0,169.9060618108973,15.449277002874393Z" fill-rule="evenodd" style="fill: #D7A449; stroke: #fff; opacity: 1;" id="p-type-tokenTransfers"></path><path d="M196.05663569253565,19.256053617612153A197,197,0,0,1,195.91241948690526,20.67181392105829L169.66513219253346,17.902315997941287A170.6070045455344,170.6070045455344,0,0,0,169.79002709024678,16.676231609487367Z" fill-rule="evenodd" style="fill: #D7A449; stroke: #fff; opacity: 1;" id="p-type-tokenTransfers"></path><path d="M195.91241948690526,20.67181392105829A197,197,0,0,1,195.75797995570508,22.086495504306967L169.53138363516553,19.12746618730063A170.6070045455344,170.6070045455344,0,0,0,169.66513219253346,17.902315997941287Z" fill-rule="evenodd" style="fill: #D7A449; stroke: #fff; opacity: 1;" id="p-type-tokenTransfers"></path><path d="M195.75797995570508,22.086495504306967A197,197,0,0,1,195.593325158075,23.500024544828502L169.3887883975629,20.35161824537932A170.6070045455344,170.6070045455344,0,0,0,169.53138363516553,19.12746618730063Z" fill-rule="evenodd" style="fill: #D7A449; stroke: #fff; opacity: 1;" id="p-type-tokenTransfers"></path><path d="M195.593325158075,23.500024544828502A197,197,0,0,1,195.41846368621975,24.912327280236504L169.2373539207931,21.574708292076902A170.6070045455344,170.6070045455344,0,0,0,169.3887883975629,20.35161824537932Z" fill-rule="evenodd" style="fill: #D7A449; stroke: #fff; opacity: 1;" id="p-type-tokenTransfers"></path><path d="M195.41846368621975,24.912327280236504A197,197,0,0,1,195.23340466496026,26.32333001213705L169.0770881071829,22.79667250271202A170.6070045455344,170.6070045455344,0,0,0,169.2373539207931,21.574708292076902Z" fill-rule="evenodd" style="fill: #D7A449; stroke: #fff; opacity: 1;" id="p-type-tokenTransfers"></path><path d="M195.23340466496026,26.32333001213705A197,197,0,0,1,195.0381577512577,27.732959109974473L168.907999319906,24.01744711135297A170.6070045455344,170.6070045455344,0,0,0,169.0770881071829,22.79667250271202Z" fill-rule="evenodd" style="fill: #D7A449; stroke: #fff; opacity: 1;" id="p-type-tokenTransfers"></path><path d="M195.0381577512577,27.732959109974473A197,197,0,0,1,194.83273313370947,29.141141014873654L168.73009638254652,25.23696841414522A170.6070045455344,170.6070045455344,0,0,0,168.907999319906,24.01744711135297Z" fill-rule="evenodd" style="fill: #D7A449; stroke: #fff; opacity: 1;" id="p-type-tokenTransfers"></path><path d="M194.83273313370947,29.141141014873654A197,197,0,0,1,194.61714153201748,30.547802243478543L168.54338857863868,26.455172772635684A170.6070045455344,170.6070045455344,0,0,0,168.73009638254652,25.23696841414522Z" fill-rule="evenodd" style="fill: #D7A449; stroke: #fff; opacity: 1;" id="p-type-tokenTransfers"></path><path d="M194.61714153201748,30.547802243478543A197,197,0,0,1,194.39139419642893,31.952869391786756L168.34788565118234,27.671996617093555A170.6070045455344,170.6070045455344,0,0,0,168.54338857863868,26.455172772635684Z" fill-rule="evenodd" style="fill: #D7A449; stroke: #fff; opacity: 1;" id="p-type-tokenTransfers"></path><path d="M194.39139419642893,31.952869391786756A197,197,0,0,1,194.15550290714896,33.35626913898003L168.14359780213442,28.887376449827592A170.6070045455344,170.6070045455344,0,0,0,168.34788565118234,27.671996617093555Z" fill-rule="evenodd" style="fill: #D7A449; stroke: #fff; opacity: 1;" id="p-type-tokenTransfers"></path><path d="M194.15550290714896,33.35626913898003A197,197,0,0,1,193.90947997372623,34.75792825125035L167.93053569187677,30.101248848499626A170.6070045455344,170.6070045455344,0,0,0,168.14359780213442,28.887376449827592Z" fill-rule="evenodd" style="fill: #D7A449; stroke: #fff; opacity: 1;" id="p-type-tokenTransfers"></path><path d="M193.90947997372623,34.75792825125035A197,197,0,0,1,193.65333823441034,36.15777358562145L167.7087104386597,31.313550469434126A170.6070045455344,170.6070045455344,0,0,0,167.93053569187677,30.101248848499626Z" fill-rule="evenodd" style="fill: #D7A449; stroke: #fff; opacity: 1;" id="p-type-tokenTransfers"></path><path d="M193.65333823441034,36.15777358562145A197,197,0,0,1,193.38709105548202,37.55573209376575L167.47813361802181,32.524218050923686A170.6070045455344,170.6070045455344,0,0,0,167.7087104386597,31.313550469434126Z" fill-rule="evenodd" style="fill: #D7A449; stroke: #fff; opacity: 1;" id="p-type-tokenTransfers"></path><path d="M193.38709105548202,37.55573209376575A197,197,0,0,1,193.11075233055553,38.951730825816156L167.23881726218607,33.7331884165302A170.6070045455344,170.6070045455344,0,0,0,167.47813361802181,32.524218050923686Z" fill-rule="evenodd" style="fill: #D7A449; stroke: #fff; opacity: 1;" id="p-type-tokenTransfers"></path><path d="M193.11075233055553,38.951730825816156A197,197,0,0,1,192.8243364798538,40.34569693417285L166.99077385943184,34.94039847838163A170.6070045455344,170.6070045455344,0,0,0,167.23881726218607,33.7331884165302Z" fill-rule="evenodd" style="fill: #D7A449; stroke: #fff; opacity: 1;" id="p-type-tokenTransfers"></path><path d="M192.8243364798538,40.34569693417285A197,197,0,0,1,192.52785844945572,41.73755767730472L166.73401635344314,36.145785240464114A170.6070045455344,170.6070045455344,0,0,0,166.99077385943184,34.94039847838163Z" fill-rule="evenodd" style="fill: #D7A449; stroke: #fff; opacity: 1;" id="p-type-tokenTransfers"></path><path d="M192.52785844945572,41.73755767730472A197,197,0,0,1,192.22133371051646,43.12724042354522L166.46855814263333,37.34928580190931A170.6070045455344,170.6070045455344,0,0,0,166.73401635344314,36.145785240464114Z" fill-rule="evenodd" style="fill: #D7A449; stroke: #fff; opacity: 1;" id="p-type-tokenTransfers"></path><path d="M192.22133371051646,43.12724042354522A197,197,0,0,1,191.90477825845988,44.51467265488251L166.19441307944587,38.55083736027674A170.6070045455344,170.6070045455344,0,0,0,166.46855814263333,37.34928580190931Z" fill-rule="evenodd" style="fill: #D7A449; stroke: #fff; opacity: 1;" id="p-type-tokenTransfers"></path><path d="M191.90477825845988,44.51467265488251A197,197,0,0,1,191.57820861214407,45.89978197074371L165.9115954696315,39.75037721483102A170.6070045455344,170.6070045455344,0,0,0,166.19441307944587,38.55083736027674Z" fill-rule="evenodd" style="fill: #D7A449; stroke: #fff; opacity: 1;" id="p-type-tokenTransfers"></path><path d="M191.57820861214407,45.89978197074371A197,197,0,0,1,191.24164181299918,47.28249609177296L165.6201200715016,40.94784276981382A170.6070045455344,170.6070045455344,0,0,0,165.9115954696315,39.75037721483102Z" fill-rule="evenodd" style="fill: #D7A449; stroke: #fff; opacity: 1;" id="p-type-tokenTransfers"></path><path d="M191.24164181299918,47.28249609177296A197,197,0,0,1,190.89509542413822,48.662742863603185L165.32000209515823,42.14317153771026A170.6070045455344,170.6070045455344,0,0,0,165.6201200715016,40.94784276981382Z" fill-rule="evenodd" style="fill: #D7A449; stroke: #fff; opacity: 1;" id="p-type-tokenTransfers"></path><path d="M190.89509542413822,48.662742863603185A197,197,0,0,1,190.53858752944058,50.04045026062134L165.01125720170037,43.33630114250972A170.6070045455344,170.6070045455344,0,0,0,165.32000209515823,42.14317153771026Z" fill-rule="evenodd" style="fill: #D7A449; stroke: #fff; opacity: 1;" id="p-type-tokenTransfers"></path><path d="M190.53858752944058,50.04045026062134A197,197,0,0,1,190.1721367326082,51.41554638972697L164.6939015024065,44.52716932296084A170.6070045455344,170.6070045455344,0,0,0,165.01125720170037,43.33630114250972Z" fill-rule="evenodd" style="fill: #D7A449; stroke: #fff; opacity: 1;" id="p-type-tokenTransfers"></path><path d="M190.1721367326082,51.41554638972697A197,197,0,0,1,189.79576215619508,52.787959494083736L164.36795155789412,45.71571393582046A170.6070045455344,170.6070045455344,0,0,0,164.6939015024065,44.52716932296084Z" fill-rule="evenodd" style="fill: #D7A449; stroke: #fff; opacity: 1;" id="p-type-tokenTransfers"></path><path d="M189.79576215619508,52.787959494083736A197,197,0,0,1,189.40948344060908,54.15761795686397L164.03342437725541,46.90187295909649A170.6070045455344,170.6070045455344,0,0,0,164.36795155789412,45.71571393582046Z" fill-rule="evenodd" style="fill: #D7A449; stroke: #fff; opacity: 1;" id="p-type-tokenTransfers"></path><path d="M189.40948344060908,54.15761795686397A197,197,0,0,1,189.01332074308718,55.5244503049859L163.6903374171697,48.08558449528441A170.6070045455344,170.6070045455344,0,0,0,164.03342437725541,46.90187295909649Z" fill-rule="evenodd" style="fill: #D7A449; stroke: #fff; opacity: 1;" id="p-type-tokenTransfers"></path><path d="M189.01332074308718,55.5244503049859A197,197,0,0,1,188.60729473664364,56.88838521284324L163.33870858099243,49.26678677459726A170.6070045455344,170.6070045455344,0,0,0,163.6903374171697,48.08558449528441Z" fill-rule="evenodd" style="fill: #D7A449; stroke: #fff; opacity: 1;" id="p-type-tokenTransfers"></path><path d="M188.60729473664364,56.88838521284324A197,197,0,0,1,188.1914266089911,58.249351506027274L162.97855621782105,50.44541815818897A170.6070045455344,170.6070045455344,0,0,0,163.33870858099243,49.26678677459726Z" fill-rule="evenodd" style="fill: #D7A449; stroke: #fff; opacity: 1;" id="p-type-tokenTransfers"></path><path d="M188.1914266089911,58.249351506027274A197,197,0,0,1,187.76573806143503,59.607278165040924L162.6098991215374,51.62141714137092A170.6070045455344,170.6070045455344,0,0,0,162.97855621782105,50.44541815818897Z" fill-rule="evenodd" style="fill: #D7A449; stroke: #fff; opacity: 1;" id="p-type-tokenTransfers"></path><path d="M187.76573806143503,59.607278165040924A197,197,0,0,1,187.33025130774135,60.96209432900474L162.23275652982704,52.79472235682137A170.6070045455344,170.6070045455344,0,0,0,162.6098991215374,51.62141714137092Z" fill-rule="evenodd" style="fill: #D7A449; stroke: #fff; opacity: 1;" id="p-type-tokenTransfers"></path><path d="M187.33025130774135,60.96209432900474A197,197,0,0,1,186.88498907297702,62.313729299354726L161.84714812317532,53.96527257778788A170.6070045455344,170.6070045455344,0,0,0,162.23275652982704,52.79472235682137Z" fill-rule="evenodd" style="fill: #D7A449; stroke: #fff; opacity: 1;" id="p-type-tokenTransfers"></path><path d="M186.88498907297702,62.313729299354726A197,197,0,0,1,186.4299745923244,63.66211254353153L161.45309402384038,55.13300672128227A170.6070045455344,170.6070045455344,0,0,0,161.84714812317532,53.96527257778788Z" fill-rule="evenodd" style="fill: #D7A449; stroke: #fff; opacity: 1;" id="p-type-tokenTransfers"></path><path d="M186.4299745923244,63.66211254353153A197,197,0,0,1,185.96523160986868,65.00717369866109L161.05061479480318,56.29786385126811A170.6070045455344,170.6070045455344,0,0,0,161.45309402384038,55.13300672128227Z" fill-rule="evenodd" style="fill: #D7A449; stroke: #fff; opacity: 1;" id="p-type-tokenTransfers"></path><path d="M185.96523160986868,65.00717369866109A197,197,0,0,1,185.49078437735884,66.34884257522641L160.6397314386944,57.459783181840606A170.6070045455344,170.6070045455344,0,0,0,161.05061479480318,56.29786385126811Z" fill-rule="evenodd" style="fill: #D7A449; stroke: #fff; opacity: 1;" id="p-type-tokenTransfers"></path><path d="M185.49078437735884,66.34884257522641A197,197,0,0,1,185.006657652942,67.68704916073023L160.22046539669853,58.618704080398544A170.6070045455344,170.6070045455344,0,0,0,160.6397314386944,57.459783181840606Z" fill-rule="evenodd" style="fill: #D7A449; stroke: #fff; opacity: 1;" id="p-type-tokenTransfers"></path><path d="M185.006657652942,67.68704916073023A197,197,0,0,1,184.5128766998718,69.0217236233485L159.79283854743483,59.77456607080832A170.6070045455344,170.6070045455344,0,0,0,160.22046539669853,58.618704080398544Z" fill-rule="evenodd" style="fill: #D7A449; stroke: #fff; opacity: 1;" id="p-type-tokenTransfers"></path><path d="M184.5128766998718,69.0217236233485A197,197,0,0,1,184.00946728518966,70.35279631557448L159.35687320581584,60.92730883655976A170.6070045455344,170.6070045455344,0,0,0,159.79283854743483,59.77456607080832Z" fill-rule="evenodd" style="fill: #D7A449; stroke: #fff; opacity: 1;" id="p-type-tokenTransfers"></path><path d="M184.00946728518966,70.35279631557448A197,197,0,0,1,183.49645567838053,71.6801977778531L158.91259212188282,62.076872223913654A170.6070045455344,170.6070045455344,0,0,0,159.35687320581584,60.92730883655976Z" fill-rule="evenodd" style="fill: #D7A449; stroke: #fff; opacity: 1;" id="p-type-tokenTransfers"></path><path d="M183.49645567838053,71.6801977778531A197,197,0,0,1,182.97386865000175,73.0038587422056L158.4600184796186,63.22319624504072A170.6070045455344,170.6070045455344,0,0,0,158.91259212188282,62.076872223913654Z" fill-rule="evenodd" style="fill: #D7A449; stroke: #fff; opacity: 1;" id="p-type-tokenTransfers"></path><path d="M182.97386865000175,73.0038587422056A197,197,0,0,1,182.4417334702864,74.32371013584415L157.9991758957377,64.366221081152A170.6070045455344,170.6070045455344,0,0,0,158.4600184796186,63.22319624504072Z" fill-rule="evenodd" style="fill: #D7A449; stroke: #fff; opacity: 1;" id="p-type-tokenTransfers"></path><path d="M182.4417334702864,74.32371013584415A197,197,0,0,1,181.90007790772,75.63968308477631L157.53008841845406,65.50588708562037A170.6070045455344,170.6070045455344,0,0,0,157.9991758957377,64.366221081152Z" fill-rule="evenodd" style="fill: #D7A449; stroke: #fff; opacity: 1;" id="p-type-tokenTransfers"></path><path d="M181.90007790772,75.63968308477631A197,197,0,0,1,181.3489302275916,76.95170891739905L157.052780526226,66.6421347870931A170.6070045455344,170.6070045455344,0,0,0,157.53008841845406,65.50588708562037Z" fill-rule="evenodd" style="fill: #D7A449; stroke: #fff; opacity: 1;" id="p-type-tokenTransfers"></path><path d="M181.3489302275916,76.95170891739905A197,197,0,0,1,180.78831919051876,78.2597191680823L156.56727712647898,67.77490489259525A170.6070045455344,170.6070045455344,0,0,0,157.052780526226,66.6421347870931Z" fill-rule="evenodd" style="fill: #D7A449; stroke: #fff; opacity: 1;" id="p-type-tokenTransfers"></path><path d="M180.78831919051876,78.2597191680823A197,197,0,0,1,180.21827405094672,79.56364558074162L156.07360355430575,68.90413829062372A170.6070045455344,170.6070045455344,0,0,0,156.56727712647898,67.77490489259525Z" fill-rule="evenodd" style="fill: #D7A449; stroke: #fff; opacity: 1;" id="p-type-tokenTransfers"></path><path d="M180.21827405094672,79.56364558074162A197,197,0,0,1,179.63882455562185,80.8634201124001L155.57178557114435,70.029776054232A170.6070045455344,170.6070045455344,0,0,0,156.07360355430575,68.90413829062372Z" fill-rule="evenodd" style="fill: #D7A449; stroke: #fff; opacity: 1;" id="p-type-tokenTransfers"></path><path d="M179.63882455562185,80.8634201124001A197,197,0,0,1,179.0500009420393,82.15897493673911L155.0618493634337,71.15175944410507A170.6070045455344,170.6070045455344,0,0,0,155.57178557114435,70.029776054232Z" fill-rule="evenodd" style="fill: #D7A449; stroke: #fff; opacity: 1;" id="p-type-tokenTransfers"></path><path d="M179.0500009420393,82.15897493673911A197,197,0,0,1,178.45183393686528,83.45024244763741L154.54382154124733,72.27002991162448A170.6070045455344,170.6070045455344,0,0,0,155.0618493634337,71.15175944410507Z" fill-rule="evenodd" style="fill: #D7A449; stroke: #fff; opacity: 1;" id="p-type-tokenTransfers"></path><path d="M178.45183393686528,83.45024244763741A197,197,0,0,1,177.84435475433338,84.73715526269936L154.0177291369045,73.38452910192387A170.6070045455344,170.6070045455344,0,0,0,154.54382154124733,72.27002991162448Z" fill-rule="evenodd" style="fill: #D7A449; stroke: #fff; opacity: 1;" id="p-type-tokenTransfers"></path><path d="M177.84435475433338,84.73715526269936A197,197,0,0,1,177.22759509461596,86.01964622677107L153.48359960355978,74.49519885693398A170.6070045455344,170.6070045455344,0,0,0,154.0177291369045,73.38452910192387Z" fill-rule="evenodd" style="fill: #D7A449; stroke: #fff; opacity: 1;" id="p-type-tokenTransfers"></path><path d="M177.22759509461596,86.01964622677107A197,197,0,0,1,176.60158714216985,87.29764841544467L152.94146081377036,75.60198121841744A170.6070045455344,170.6070045455344,0,0,0,153.48359960355978,74.49519885693398Z" fill-rule="evenodd" style="fill: #D7A449; stroke: #fff; opacity: 1;" id="p-type-tokenTransfers"></path><path d="M176.60158714216985,87.29764841544467A197,197,0,0,1,175.96636356405676,88.57109513855072L152.39134105804158,76.70481843099331A170.6070045455344,170.6070045455344,0,0,0,152.94146081377036,75.60198121841744Z" fill-rule="evenodd" style="fill: #D7A449; stroke: #fff; opacity: 1;" id="p-type-tokenTransfers"></path><path d="M175.96636356405676,88.57109513855072A197,197,0,0,1,175.32195750823874,89.83991994363825L151.83326904335064,77.80365294515096A170.6070045455344,170.6070045455344,0,0,0,152.39134105804158,76.70481843099331Z" fill-rule="evenodd" style="fill: #D7A449; stroke: #fff; opacity: 1;" id="p-type-tokenTransfers"></path><path d="M91.53480211367867,174.44305661736638A197,197,0,0,1,57.50043326447322,188.42160219677004L49.79683593564559,163.17789412416863A170.6070045455344,170.6070045455344,0,0,0,79.27146396082725,151.0721185444464Z" fill-rule="evenodd" style="fill: #414552; stroke: #fff; opacity: 1;" id="p-type-ether"></path><path d="M57.50043326447322,188.42160219677004A197,197,0,0,1,22.736672544584604,195.68352951027924L19.690536021138442,169.4669076581037A170.6070045455344,170.6070045455344,0,0,0,49.79683593564559,163.17789412416863Z" fill-rule="evenodd" style="fill: #414552; stroke: #fff; opacity: 1;" id="p-type-ether"></path><path d="M22.736672544584604,195.68352951027924A197,197,0,0,1,15.23243588324058,196.41021586736002L13.191676436403995,170.09623650391922A170.6070045455344,170.6070045455344,0,0,0,19.690536021138442,169.4669076581037Z" fill-rule="evenodd" style="fill: #414552; stroke: #fff; opacity: 1;" id="p-type-ether"></path><path d="M15.23243588324058,196.41021586736002A197,197,0,0,1,9.525846385976251,196.76955620885764L8.249624962803619,170.40743436826074A170.6070045455344,170.6070045455344,0,0,0,13.191676436403995,170.09623650391922Z" fill-rule="evenodd" style="fill: #414552; stroke: #fff; opacity: 1;" id="p-type-ether"></path><path d="M9.525846385976251,196.76955620885764A197,197,0,0,1,3.923865395982922,196.96091815472988L3.3981671139518963,170.5731586747037A170.6070045455344,170.6070045455344,0,0,0,8.249624962803619,170.40743436826074Z" fill-rule="evenodd" style="fill: #414552; stroke: #fff; opacity: 1;" id="p-type-ether"></path><path d="M3.923865395982922,196.96091815472988A197,197,0,0,1,0.572747792531002,196.99916740932218L0.4960141382933069,170.60628350085648A170.6070045455344,170.6070045455344,0,0,0,3.3981671139518963,170.5731586747037Z" fill-rule="evenodd" style="fill: #414552; stroke: #fff; opacity: 1;" id="p-type-ether"></path><path d="M0.572747792531002,196.99916740932218A197,197,0,0,1,-2.696390407356133,196.9815460360973L-2.3351425912910817,170.59102294399415A170.6070045455344,170.6070045455344,0,0,0,0.4960141382933069,170.60628350085648Z" fill-rule="evenodd" style="fill: #414552; stroke: #fff; opacity: 1;" id="p-type-ether"></path><path d="M-2.696390407356133,196.9815460360973A197,197,0,0,1,-5.544675303950392,196.9219555452712L-4.801829668957243,170.53941606511475A170.6070045455344,170.6070045455344,0,0,0,-2.3351425912910817,170.59102294399415Z" fill-rule="evenodd" style="fill: #414552; stroke: #fff; opacity: 1;" id="p-type-ether"></path><path d="M-5.544675303950392,196.9219555452712A197,197,0,0,1,-8.388273245395677,196.82133235998728L-7.264457724397994,170.45227383044917A170.6070045455344,170.6070045455344,0,0,0,-4.801829668957243,170.53941606511475Z" fill-rule="evenodd" style="fill: #414552; stroke: #fff; opacity: 1;" id="p-type-ether"></path><path d="M-8.388273245395677,196.82133235998728A197,197,0,0,1,-10.77236508941602,196.70525196440568L-9.329141826274899,170.35174525899419A170.6070045455344,170.6070045455344,0,0,0,-7.264457724397994,170.45227383044917Z" fill-rule="evenodd" style="fill: #414552; stroke: #fff; opacity: 1;" id="p-type-ether"></path><path d="M-10.77236508941602,196.70525196440568A197,197,0,0,1,-13.001587563929252,196.5704930064975L-11.259705119890567,170.23504057805815A170.6070045455344,170.6070045455344,0,0,0,-9.329141826274899,170.35174525899419Z" fill-rule="evenodd" style="fill: #414552; stroke: #fff; opacity: 1;" id="p-type-ether"></path><path d="M-13.001587563929252,196.5704930064975A197,197,0,0,1,-14.828133698751861,196.44115264122215L-12.841540473831222,170.12302853599496A170.6070045455344,170.6070045455344,0,0,0,-11.259705119890567,170.23504057805815Z" fill-rule="evenodd" style="fill: #414552; stroke: #fff; opacity: 1;" id="p-type-ether"></path><path d="M-14.828133698751861,196.44115264122215A197,197,0,0,1,-16.553395799769543,196.30329871781618L-14.33566128149905,170.00364353631403A170.6070045455344,170.6070045455344,0,0,0,-12.841540473831222,170.12302853599496Z" fill-rule="evenodd" style="fill: #414552; stroke: #fff; opacity: 1;" id="p-type-ether"></path><path d="M-16.553395799769543,196.30329871781618A197,197,0,0,1,-17.977259122501902,196.17802668607516L-15.568763090502191,169.89515477444263A170.6070045455344,170.6070045455344,0,0,0,-14.33566128149905,170.00364353631403Z" fill-rule="evenodd" style="fill: #414552; stroke: #fff; opacity: 1;" id="p-type-ether"></path><path d="M-17.977259122501902,196.17802668607516A197,197,0,0,1,-19.393929689029306,196.0430449957789L-16.79563578990862,169.77825720160027A170.6070045455344,170.6070045455344,0,0,0,-15.568763090502191,169.89515477444263Z" fill-rule="evenodd" style="fill: #414552; stroke: #fff; opacity: 1;" id="p-type-ether"></path><path d="M-19.393929689029306,196.0430449957789A197,197,0,0,1,-20.80958821937336,195.89783316346333L-18.021632040270713,169.65250006588494A170.6070045455344,170.6070045455344,0,0,0,-16.79563578990862,169.77825720160027Z" fill-rule="evenodd" style="fill: #414552; stroke: #fff; opacity: 1;" id="p-type-ether"></path><path d="M-20.80958821937336,195.89783316346333A197,197,0,0,1,-22.223566957798713,195.7424661939055L-19.24617354815814,169.51794832333883A170.6070045455344,170.6070045455344,0,0,0,-18.021632040270713,169.65250006588494Z" fill-rule="evenodd" style="fill: #414552; stroke: #fff; opacity: 1;" id="p-type-ether"></path><path d="M-22.223566957798713,195.7424661939055A197,197,0,0,1,-23.495693303663373,195.59384549668272L-20.347867280500402,169.38923902401575A170.6070045455344,170.6070045455344,0,0,0,-19.24617354815814,169.51794832333883Z" fill-rule="evenodd" style="fill: #414552; stroke: #fff; opacity: 1;" id="p-type-ether"></path><path d="M-23.495693303663373,195.59384549668272A197,197,0,0,1,-24.66740446656673,195.44953097125307L-21.362598913472517,169.26425897885858A170.6070045455344,170.6070045455344,0,0,0,-20.347867280500402,169.38923902401575Z" fill-rule="evenodd" style="fill: #414552; stroke: #fff; opacity: 1;" id="p-type-ether"></path><path d="M-24.66740446656673,195.44953097125307A197,197,0,0,1,-25.669652055238984,195.32042638537058L-22.230570786144384,169.15245112773928A170.6070045455344,170.6070045455344,0,0,0,-21.362598913472517,169.26425897885858Z" fill-rule="evenodd" style="fill: #414552; stroke: #fff; opacity: 1;" id="p-type-ether"></path></g></svg>