<svg xmlns="http://www.w3.org/2000/svg" width="400" height="400" id="block-7907888"><g id="burst-container" transform="translate(200,200)"><circle r="197" style="fill: #f9f9f9; stroke: #f9f9f9; stroke-width: 3; opacity: 1;" id="circle-base"></circle><path display="none" d="M6.031385485800715e-15,-98.5A98.5,98.5,0,1,1,-6.031385485800715e-15,98.5A98.5,98.5,0,1,1,6.031385485800715e-15,-98.5Z" fill-rule="evenodd" id="p-type-root" style="stroke: #fff; opacity: 1;"></path><path d="M8.529667153919608e-15,-139.30003589374985A139.30003589374985,139.30003589374985,0,1,1,-112.32986232185401,-82.38022839706942L-79.42920737753424,-58.25161813526437A98.5,98.5,0,1,0,6.031385485800715e-15,-98.5Z" fill-rule="evenodd" style="fill: #0B1F65; stroke: #fff; opacity: 1;" id="p-type-data"></path><path d="M-112.32986232185401,-82.38022839706942A139.30003589374985,139.30003589374985,0,0,1,-3.0742449918519816,-139.2661086471869L-2.173819480767319,-98.47600981388835A98.5,98.5,0,0,0,-79.42920737753424,-58.25161813526437Z" fill-rule="evenodd" style="fill: #D7A449; stroke: #fff; opacity: 1;" id="p-type-value"></path><path d="M1.0446666101440332e-14,-170.6070045455344A170.6070045455344,170.6070045455344,0,0,1,170.5814850713576,-2.9507542849576764L139.27919933033743,-2.40928078482578A139.30003589374985,139.30003589374985,0,0,0,8.529667153919608e-15,-139.30003589374985Z" fill-rule="evenodd" style="fill: #DB3F29; stroke: #fff; opacity: 1;" id="p-type-functions"></path><path d="M170.5814850713576,-2.9507542849576764A170.6070045455344,170.6070045455344,0,0,1,72.72991641744984,154.32792766674072L59.383728086007075,126.00822528155521A139.30003589374985,139.30003589374985,0,0,0,139.27919933033743,-2.40928078482578Z" fill-rule="evenodd" style="fill: #1DC690; stroke: #fff; opacity: 1;" id="p-type-logs"></path><path d="M72.72991641744984,154.32792766674072A170.6070045455344,170.6070045455344,0,0,1,-67.74377750861733,156.58074788703416L-55.31256271491463,127.84764528886964A139.30003589374985,139.30003589374985,0,0,0,59.383728086007075,126.00822528155521Z" fill-rule="evenodd" style="fill: #D7A449; stroke: #fff; opacity: 1;" id="p-type-tokenTransfers"></path><path d="M-67.74377750861733,156.58074788703416A170.6070045455344,170.6070045455344,0,0,1,-159.64539509575943,60.167248771394455L-130.34991925654353,49.126352905671496A139.30003589374985,139.30003589374985,0,0,0,-55.31256271491463,127.84764528886964Z" fill-rule="evenodd" style="fill: #414552; stroke: #fff; opacity: 1;" id="p-type-ether"></path><path d="M-137.575422782814,-100.89476223337851A170.6070045455344,170.6070045455344,0,0,1,-79.62330633916456,-150.88697454591485L-65.0121573880888,-123.19869882326829A139.30003589374985,139.30003589374985,0,0,0,-112.32986232185401,-82.38022839706942Z" fill-rule="evenodd" style="fill: #414552; stroke: #fff; opacity: 1;" id="p-type-ether"></path><path d="M-79.62330633916456,-150.88697454591485A170.6070045455344,170.6070045455344,0,0,1,-7.5284975230145035,-170.44081590113902L-6.146992487064196,-139.164343433812A139.30003589374985,139.30003589374985,0,0,0,-65.0121573880888,-123.19869882326829Z" fill-rule="evenodd" style="fill: #D7A449; stroke: #fff; opacity: 1;" id="p-type-tokenTransfers"></path><path d="M1.206277097160143e-14,-197A197,197,0,0,1,32.461219050225665,-194.30715184411835L28.112240335306794,-168.27492963400684A170.6070045455344,170.6070045455344,0,0,0,1.0446666101440332e-14,-170.6070045455344Z" fill-rule="evenodd" style="fill: #DB3F29; stroke: #fff; opacity: 1;" id="p-type-functions"></path><path d="M32.461219050225665,-194.30715184411835A197,197,0,0,1,59.375844009268306,-187.83905117995843L51.420989283168424,-162.67339014460933A170.6070045455344,170.6070045455344,0,0,0,28.112240335306794,-168.27492963400684Z" fill-rule="evenodd" style="fill: #DB3F29; stroke: #fff; opacity: 1;" id="p-type-functions"></path><path d="M59.375844009268306,-187.83905117995843A197,197,0,0,1,61.44508671550475,-187.17238396335102L53.21300603336484,-162.09603939915704A170.6070045455344,170.6070045455344,0,0,0,51.420989283168424,-162.67339014460933Z" fill-rule="evenodd" style="fill: #DB3F29; stroke: #fff; opacity: 1;" id="p-type-functions"></path><path d="M61.44508671550475,-187.17238396335102A197,197,0,0,1,63.506846559070475,-186.48292265009866L54.99854243439539,-161.4989483869539A170.6070045455344,170.6070045455344,0,0,0,53.21300603336484,-162.09603939915704Z" fill-rule="evenodd" style="fill: #DB3F29; stroke: #fff; opacity: 1;" id="p-type-functions"></path><path d="M63.506846559070475,-186.48292265009866A197,197,0,0,1,65.56087245616703,-185.7707512036978L56.77738104131213,-160.8821898225209A170.6070045455344,170.6070045455344,0,0,0,54.99854243439539,-161.4989483869539Z" fill-rule="evenodd" style="fill: #DB3F29; stroke: #fff; opacity: 1;" id="p-type-functions"></path><path d="M65.56087245616703,-185.7707512036978A197,197,0,0,1,67.60691426484601,-185.03595635331465L58.54930522483319,-160.24583881551908A170.6070045455344,170.6070045455344,0,0,0,56.77738104131213,-160.8821898225209Z" fill-rule="evenodd" style="fill: #DB3F29; stroke: #fff; opacity: 1;" id="p-type-functions"></path><path d="M67.60691426484601,-185.03595635331465A197,197,0,0,1,69.64472281547165,-184.2786275832228L60.31409919772415,-159.58997286160272A170.6070045455344,170.6070045455344,0,0,0,58.54930522483319,-160.24583881551908Z" fill-rule="evenodd" style="fill: #DB3F29; stroke: #fff; opacity: 1;" id="p-type-functions"></path><path d="M69.64472281547165,-184.2786275832228A197,197,0,0,1,71.67404994106518,-183.49885712190607L62.07154804107699,-158.91467183298172A170.6070045455344,170.6070045455344,0,0,0,60.31409919772415,-159.58997286160272Z" fill-rule="evenodd" style="fill: #DB3F29; stroke: #fff; opacity: 1;" id="p-type-functions"></path><path d="M71.67404994106518,-183.49885712190607A197,197,0,0,1,73.6946485075268,-182.69673993082657L63.82143773048317,-158.22001796869466A170.6070045455344,170.6070045455344,0,0,0,62.07154804107699,-158.91467183298172Z" fill-rule="evenodd" style="fill: #DB3F29; stroke: #fff; opacity: 1;" id="p-type-functions"></path><path d="M73.6946485075268,-182.69673993082657A197,197,0,0,1,75.70627244373192,-181.87237369286032L65.56355516209766,-157.50609586459368A170.6070045455344,170.6070045455344,0,0,0,63.82143773048317,-158.22001796869466Z" fill-rule="evenodd" style="fill: #DB3F29; stroke: #fff; opacity: 1;" id="p-type-functions"></path><path d="M75.70627244373192,-181.87237369286032A197,197,0,0,1,77.70867677149813,-181.0258588004013L67.2976881785911,-156.7729924630423A170.6070045455344,170.6070045455344,0,0,0,65.56355516209766,-157.50609586459368Z" fill-rule="evenodd" style="fill: #DB3F29; stroke: #fff; opacity: 1;" id="p-type-functions"></path><path d="M77.70867677149813,-181.0258588004013A197,197,0,0,1,79.70161763541901,-180.15729834313532L69.02362559498668,-156.02079704232733A170.6070045455344,170.6070045455344,0,0,0,67.2976881785911,-156.7729924630423Z" fill-rule="evenodd" style="fill: #DB3F29; stroke: #fff; opacity: 1;" id="p-type-functions"></path><path d="M79.70161763541901,-180.15729834313532A197,197,0,0,1,81.68485233256109,-179.26679809548585L70.74115722437847,-155.24960120578658A170.6070045455344,170.6070045455344,0,0,0,69.02362559498668,-156.02079704232733Z" fill-rule="evenodd" style="fill: #DB3F29; stroke: #fff; opacity: 1;" id="p-type-functions"></path><path d="M81.68485233256109,-179.26679809548585A197,197,0,0,1,83.65813934202045,-178.35446650373262L72.4500739035281,-154.4594988706532A170.6070045455344,170.6070045455344,0,0,0,70.74115722437847,-155.24960120578658Z" fill-rule="evenodd" style="fill: #DB3F29; stroke: #fff; opacity: 1;" id="p-type-functions"></path><path d="M83.65813934202045,-178.35446650373262A197,197,0,0,1,85.62123835433553,-177.42041467280495L74.15016751833708,-153.65058625661845A170.6070045455344,170.6070045455344,0,0,0,72.4500739035281,-154.4594988706532Z" fill-rule="evenodd" style="fill: #DB3F29; stroke: #fff; opacity: 1;" id="p-type-functions"></path><path d="M85.62123835433553,-177.42041467280495A197,197,0,0,1,87.5739103007524,-176.46475635275098L75.8412310291913,-152.82296187411376A170.6070045455344,170.6070045455344,0,0,0,74.15016751833708,-153.65058625661845Z" fill-rule="evenodd" style="fill: #DB3F29; stroke: #fff; opacity: 1;" id="p-type-functions"></path><path d="M87.5739103007524,-176.46475635275098A197,197,0,0,1,89.5159173823388,-175.48760792488537L77.52305849617441,-151.97672651231412A170.6070045455344,170.6070045455344,0,0,0,75.8412310291913,-152.82296187411376Z" fill-rule="evenodd" style="fill: #DB3F29; stroke: #fff; opacity: 1;" id="p-type-functions"></path><path d="M89.5159173823388,-175.48760792488537A197,197,0,0,1,91.44702309894352,-174.48908838761608L79.19544510414745,-151.1119832268638A170.6070045455344,170.6070045455344,0,0,0,77.52305849617441,-151.97672651231412Z" fill-rule="evenodd" style="fill: #DB3F29; stroke: #fff; opacity: 1;" id="p-type-functions"></path><path d="M91.44702309894352,-174.48908838761608A197,197,0,0,1,93.36699227799778,-173.4693193419525L80.8581871876916,-150.22883732732615A170.6070045455344,170.6070045455344,0,0,0,79.19544510414745,-151.1119832268638Z" fill-rule="evenodd" style="fill: #DB3F29; stroke: #fff; opacity: 1;" id="p-type-functions"></path><path d="M93.36699227799778,-173.4693193419525A197,197,0,0,1,95.27559110315491,-172.42842497669702L82.5110822559108,-149.32739636435883A170.6070045455344,170.6070045455344,0,0,0,80.8581871876916,-150.22883732732615Z" fill-rule="evenodd" style="fill: #DB3F29; stroke: #fff; opacity: 1;" id="p-type-functions"></path><path d="M95.27559110315491,-172.42842497669702A197,197,0,0,1,97.17258714276471,-171.36653205332073L84.15392901709136,-148.40777011661604A170.6070045455344,170.6070045455344,0,0,0,82.5110822559108,-149.32739636435883Z" fill-rule="evenodd" style="fill: #DB3F29; stroke: #fff; opacity: 1;" id="p-type-functions"></path><path d="M97.17258714276471,-171.36653205332073A197,197,0,0,1,99.05774937817934,-170.2837698905266L85.78652740321549,-147.47007057737974A170.6070045455344,170.6070045455344,0,0,0,84.15392901709136,-148.40777011661604Z" fill-rule="evenodd" style="fill: #DB3F29; stroke: #fff; opacity: 1;" id="p-type-functions"></path><path d="M99.05774937817934,-170.2837698905266A197,197,0,0,1,100.9308482318869,-169.18027034850078L87.40867859432575,-146.5144119409209A170.6070045455344,170.6070045455344,0,0,0,85.78652740321549,-147.47007057737974Z" fill-rule="evenodd" style="fill: #DB3F29; stroke: #fff; opacity: 1;" id="p-type-functions"></path><path d="M100.9308482318869,-169.18027034850078A197,197,0,0,1,102.79165559547002,-168.0561678128544L89.02018504273788,-145.5409105885926A170.6070045455344,170.6070045455344,0,0,0,87.40867859432575,-146.5144119409209Z" fill-rule="evenodd" style="fill: #DB3F29; stroke: #fff; opacity: 1;" id="p-type-functions"></path><path d="M102.79165559547002,-168.0561678128544A197,197,0,0,1,104.63994485738495,-166.91159917825794L90.62085049709819,-144.54968507465722A170.6070045455344,170.6070045455344,0,0,0,89.02018504273788,-145.5409105885926Z" fill-rule="evenodd" style="fill: #DB3F29; stroke: #fff; opacity: 1;" id="p-type-functions"></path><path d="M104.63994485738495,-166.91159917825794A197,197,0,0,1,106.47549093055856,-165.7467038317702L92.2104800262833,-143.54085611184854A170.6070045455344,170.6070045455344,0,0,0,90.62085049709819,-144.54968507465722Z" fill-rule="evenodd" style="fill: #DB3F29; stroke: #fff; opacity: 1;" id="p-type-functions"></path><path d="M106.47549093055856,-165.7467038317702A197,197,0,0,1,108.29807027979993,-164.5616236358633L93.78888004313924,-142.51454655667132A170.6070045455344,170.6070045455344,0,0,0,92.2104800262833,-143.54085611184854Z" fill-rule="evenodd" style="fill: #DB3F29; stroke: #fff; opacity: 1;" id="p-type-functions"></path><path d="M108.29807027979993,-164.5616236358633A197,197,0,0,1,110.10746094902265,-163.3565029111466L95.35585832805666,-141.47088139443957A170.6070045455344,170.6070045455344,0,0,0,93.78888004313924,-142.51454655667132Z" fill-rule="evenodd" style="fill: #DB3F29; stroke: #fff; opacity: 1;" id="p-type-functions"></path><path d="M110.10746094902265,-163.3565029111466A197,197,0,0,1,111.90344258827494,-162.1314884187913L96.91122405237955,-140.40998772405575A170.6070045455344,170.6070045455344,0,0,0,95.35585832805666,-141.47088139443957Z" fill-rule="evenodd" style="fill: #DB3F29; stroke: #fff; opacity: 1;" id="p-type-functions"></path><path d="M111.90344258827494,-162.1314884187913A197,197,0,0,1,113.68579648057413,-160.88672934265733L98.45478780164473,-139.33199474253252A170.6070045455344,170.6070045455344,0,0,0,96.91122405237955,-140.40998772405575Z" fill-rule="evenodd" style="fill: #DB3F29; stroke: #fff; opacity: 1;" id="p-type-functions"></path><path d="M113.68579648057413,-160.88672934265733A197,197,0,0,1,115.45430556854232,-159.6223772711259L99.98636159864883,-138.23703372925883A170.6070045455344,170.6070045455344,0,0,0,98.45478780164473,-139.33199474253252Z" fill-rule="evenodd" style="fill: #DB3F29; stroke: #fff; opacity: 1;" id="p-type-functions"></path><path d="M115.45430556854232,-159.6223772711259A197,197,0,0,1,117.20875448083994,-158.33858617863868L101.50575892634055,-137.1252380300127A170.6070045455344,170.6070045455344,0,0,0,99.98636159864883,-138.23703372925883Z" fill-rule="evenodd" style="fill: #DB3F29; stroke: #fff; opacity: 1;" id="p-type-functions"></path><path d="M117.20875448083994,-158.33858617863868A197,197,0,0,1,118.94892955839387,-157.0355124069465L103.01279475053481,-135.99674304072207A170.6070045455344,170.6070045455344,0,0,0,101.50575892634055,-137.1252380300127Z" fill-rule="evenodd" style="fill: #DB3F29; stroke: #fff; opacity: 1;" id="p-type-functions"></path><path d="M118.94892955839387,-157.0355124069465A197,197,0,0,1,120.67461888041724,-155.71331464607016L104.50728554244658,-134.85168619097624A170.6070045455344,170.6070045455344,0,0,0,103.01279475053481,-135.99674304072207Z" fill-rule="evenodd" style="fill: #DB3F29; stroke: #fff; opacity: 1;" id="p-type-functions"></path><path d="M120.67461888041724,-155.71331464607016A197,197,0,0,1,122.38561229021728,-154.3721539149746L105.98904930104118,-133.6902069272894A170.6070045455344,170.6070045455344,0,0,0,104.50728554244658,-134.85168619097624Z" fill-rule="evenodd" style="fill: #DB3F29; stroke: #fff; opacity: 1;" id="p-type-functions"></path><path d="M122.38561229021728,-154.3721539149746A197,197,0,0,1,124.08170142078863,-153.01219354196013L107.45790557519862,-132.5124466961187A170.6070045455344,170.6070045455344,0,0,0,105.98904930104118,-133.6902069272894Z" fill-rule="evenodd" style="fill: #DB3F29; stroke: #fff; opacity: 1;" id="p-type-functions"></path><path d="M124.08170142078863,-153.01219354196013A197,197,0,0,1,125.76267972018833,-151.63359914477178L108.91367548568913,-131.31854892663867A170.6070045455344,170.6070045455344,0,0,0,107.45790557519862,-132.5124466961187Z" fill-rule="evenodd" style="fill: #DB3F29; stroke: #fff; opacity: 1;" id="p-type-functions"></path><path d="M125.76267972018833,-151.63359914477178A197,197,0,0,1,127.42834247669026,-150.23653861043036L110.35618174695742,-130.10865901327438A170.6070045455344,170.6070045455344,0,0,0,108.91367548568913,-131.31854892663867Z" fill-rule="evenodd" style="fill: #DB3F29; stroke: #fff; opacity: 1;" id="p-type-functions"></path><path d="M127.42834247669026,-150.23653861043036A197,197,0,0,1,129.07848684371498,-148.82118207478698L111.78524868871261,-128.88292429799486A170.6070045455344,170.6070045455344,0,0,0,110.35618174695742,-130.10865901327438Z" fill-rule="evenodd" style="fill: #DB3F29; stroke: #fff; opacity: 1;" id="p-type-functions"></path><path d="M129.07848684371498,-148.82118207478698A197,197,0,0,1,130.71291186453277,-147.3877019018035L113.20070227732172,-127.64149405236985A170.6070045455344,170.6070045455344,0,0,0,111.78524868871261,-128.88292429799486Z" fill-rule="evenodd" style="fill: #DB3F29; stroke: #fff; opacity: 1;" id="p-type-functions"></path><path d="M130.71291186453277,-147.3877019018035A197,197,0,0,1,132.3314184967363,-145.936272662562L114.60237013700356,-126.3845194593912A170.6070045455344,170.6070045455344,0,0,0,113.20070227732172,-127.64149405236985Z" fill-rule="evenodd" style="fill: #DB3F29; stroke: #fff; opacity: 1;" id="p-type-functions"></path><path d="M132.3314184967363,-145.936272662562A197,197,0,0,1,133.93380963648033,-144.46707111400522L115.99008157082102,-125.11215359506159A170.6070045455344,170.6070045455344,0,0,0,114.60237013700356,-126.3845194593912Z" fill-rule="evenodd" style="fill: #DB3F29; stroke: #fff; opacity: 1;" id="p-type-functions"></path><path d="M133.93380963648033,-144.46707111400522A197,197,0,0,1,135.5198901424854,-142.98027617741087L117.36366758146869,-123.8245514097528A170.6070045455344,170.6070045455344,0,0,0,115.99008157082102,-125.11215359506159Z" fill-rule="evenodd" style="fill: #DB3F29; stroke: #fff; opacity: 1;" id="p-type-functions"></path><path d="M135.5198901424854,-142.98027617741087A197,197,0,0,1,137.08946685980212,-141.47606891660234L118.72296089185355,-122.5218697093356A170.6070045455344,170.6070045455344,0,0,0,117.36366758146869,-123.8245514097528Z" fill-rule="evenodd" style="fill: #DB3F29; stroke: #fff; opacity: 1;" id="p-type-functions"></path><path d="M137.08946685980212,-141.47606891660234A197,197,0,0,1,138.64234864333406,-139.95463251589854L120.0677959654663,-121.20426713608376A170.6070045455344,170.6070045455344,0,0,0,118.72296089185355,-122.5218697093356Z" fill-rule="evenodd" style="fill: #DB3F29; stroke: #fff; opacity: 1;" id="p-type-functions"></path><path d="M138.64234864333406,-139.95463251589854A197,197,0,0,1,140.17834638111555,-138.4161522578055L121.3980090265405,-119.87190414935432A170.6070045455344,170.6070045455344,0,0,0,120.0677959654663,-121.20426713608376Z" fill-rule="evenodd" style="fill: #DB3F29; stroke: #fff; opacity: 1;" id="p-type-functions"></path><path d="M140.17834638111555,-138.4161522578055A197,197,0,0,1,141.69727301734196,-136.8608155004523L122.71343807999742,-118.52494300604677A170.6070045455344,170.6070045455344,0,0,0,121.3980090265405,-119.87190414935432Z" fill-rule="evenodd" style="fill: #DB3F29; stroke: #fff; opacity: 1;" id="p-type-functions"></path><path d="M141.69727301734196,-136.8608155004523A197,197,0,0,1,143.19894357514968,-135.2888116547747L124.01392293117404,-117.16354774084311A170.6070045455344,170.6070045455344,0,0,0,122.71343807999742,-118.52494300604677Z" fill-rule="evenodd" style="fill: #DB3F29; stroke: #fff; opacity: 1;" id="p-type-functions"></path><path d="M143.19894357514968,-135.2888116547747A197,197,0,0,1,144.68317517914278,-133.70033216144782L125.2993052053318,-115.78788414623142A170.6070045455344,170.6070045455344,0,0,0,124.01392293117404,-117.16354774084311Z" fill-rule="evenodd" style="fill: #DB3F29; stroke: #fff; opacity: 1;" id="p-type-functions"></path><path d="M144.68317517914278,-133.70033216144782A197,197,0,0,1,146.14978707766386,-132.09557046757288L126.56942836694358,-114.39811975231558A170.6070045455344,170.6070045455344,0,0,0,125.2993052053318,-115.78788414623142Z" fill-rule="evenodd" style="fill: #DB3F29; stroke: #fff; opacity: 1;" id="p-type-functions"></path><path d="M146.14978707766386,-132.09557046757288A197,197,0,0,1,146.87876993778698,-131.2845266646555L127.20074604273364,-113.69573521540718A170.6070045455344,170.6070045455344,0,0,0,126.56942836694358,-114.39811975231558Z" fill-rule="evenodd" style="fill: #DB3F29; stroke: #fff; opacity: 1;" id="p-type-functions"></path><path d="M196.9705326494289,-3.4072375614655126A197,197,0,0,1,196.9961388352716,-1.2334034191587493L170.6036606787914,-1.0681586941060632A170.6070045455344,170.6070045455344,0,0,0,170.5814850713576,-2.9507542849576764Z" fill-rule="evenodd" style="fill: #1DC690; stroke: #fff; opacity: 1;" id="p-type-logs"></path><path d="M196.9961388352716,-1.2334034191587493A197,197,0,0,1,196.99775457480908,0.9405809286224711L170.60505995027677,0.8145669785022178A170.6070045455344,170.6070045455344,0,0,0,170.6036606787914,-1.0681586941060632Z" fill-rule="evenodd" style="fill: #1DC690; stroke: #fff; opacity: 1;" id="p-type-logs"></path><path d="M196.99775457480908,0.9405809286224711A197,197,0,0,1,196.97537967127445,3.114450731233429L170.58568271540855,2.697193452083171A170.6070045455344,170.6070045455344,0,0,0,170.60505995027677,0.8145669785022178Z" fill-rule="evenodd" style="fill: #1DC690; stroke: #fff; opacity: 1;" id="p-type-logs"></path><path d="M196.97537967127445,3.114450731233429A197,197,0,0,1,196.9290168495126,5.287941251978867L170.54553133397167,4.579491457933388A170.6070045455344,170.6070045455344,0,0,0,170.58568271540855,2.697193452083171Z" fill-rule="evenodd" style="fill: #1DC690; stroke: #fff; opacity: 1;" id="p-type-logs"></path><path d="M196.9290168495126,5.287941251978867A197,197,0,0,1,196.85867175564834,7.4607878003529615L170.48461069565363,6.461231767350688A170.6070045455344,170.6070045455344,0,0,0,170.54553133397167,4.579491457933388Z" fill-rule="evenodd" style="fill: #1DC690; stroke: #fff; opacity: 1;" id="p-type-logs"></path><path d="M196.85867175564834,7.4607878003529615A197,197,0,0,1,196.76435295639882,9.632725764273692L170.4029282194491,8.342185219549888A170.6070045455344,170.6070045455344,0,0,0,170.48461069565363,6.461231767350688Z" fill-rule="evenodd" style="fill: #1DC690; stroke: #fff; opacity: 1;" id="p-type-logs"></path><path d="M196.76435295639882,9.632725764273692A197,197,0,0,1,196.64607193803022,11.803490642307622L170.30049385275638,10.222122749570302A170.6070045455344,170.6070045455344,0,0,0,170.4029282194491,8.342185219549888Z" fill-rule="evenodd" style="fill: #1DC690; stroke: #fff; opacity: 1;" id="p-type-logs"></path><path d="M196.64607193803022,11.803490642307622A197,197,0,0,1,196.50384310495895,13.972818075881259L170.17732007016605,12.10081541617157A170.6070045455344,170.6070045455344,0,0,0,170.30049385275638,10.222122749570302Z" fill-rule="evenodd" style="fill: #1DC690; stroke: #fff; opacity: 1;" id="p-type-logs"></path><path d="M196.50384310495895,13.972818075881259A197,197,0,0,1,196.33768377799754,16.140443881474955L170.03342187194173,13.97803442971442A170.6070045455344,170.6070045455344,0,0,0,170.17732007016605,12.10081541617157Z" fill-rule="evenodd" style="fill: #1DC690; stroke: #fff; opacity: 1;" id="p-type-logs"></path><path d="M196.33768377799754,16.140443881474955A197,197,0,0,1,196.14761419224516,18.30610408279554L169.8688167821934,15.853551180022968A170.6070045455344,170.6070045455344,0,0,0,170.03342187194173,13.97803442971442Z" fill-rule="evenodd" style="fill: #1DC690; stroke: #fff; opacity: 1;" id="p-type-logs"></path><path d="M196.14761419224516,18.30610408279554A197,197,0,0,1,195.93365749462347,20.469534942923687L169.6835248467432,17.727137264225163A170.6070045455344,170.6070045455344,0,0,0,169.8688167821934,15.853551180022968Z" fill-rule="evenodd" style="fill: #1DC690; stroke: #fff; opacity: 1;" id="p-type-logs"></path><path d="M195.93365749462347,20.469534942923687A197,197,0,0,1,195.69583974105774,22.63047299643215L169.47756863068432,19.598564514567986A170.6070045455344,170.6070045455344,0,0,0,169.6835248467432,17.727137264225163Z" fill-rule="evenodd" style="fill: #1DC690; stroke: #fff; opacity: 1;" id="p-type-logs"></path><path d="M195.69583974105774,22.63047299643215A197,197,0,0,1,195.43418989330365,24.788655081470907L169.25097321563294,21.46760502620402A170.6070045455344,170.6070045455344,0,0,0,169.47756863068432,19.598564514567986Z" fill-rule="evenodd" style="fill: #1DC690; stroke: #fff; opacity: 1;" id="p-type-logs"></path><path d="M195.43418989330365,24.788655081470907A197,197,0,0,1,195.14873981542033,26.94381837181538L169.00376619667375,23.33403118494599A170.6070045455344,170.6070045455344,0,0,0,169.25097321563294,21.46760502620402Z" fill-rule="evenodd" style="fill: #1DC690; stroke: #fff; opacity: 1;" id="p-type-logs"></path><path d="M195.14873981542033,26.94381837181538A197,197,0,0,1,194.83952426989003,29.09570040887373L168.73597767899943,25.197615694985927A170.6070045455344,170.6070045455344,0,0,0,169.00376619667375,23.33403118494599Z" fill-rule="evenodd" style="fill: #1DC690; stroke: #fff; opacity: 1;" id="p-type-logs"></path><path d="M194.83952426989003,29.09570040887373A197,197,0,0,1,194.50658091338448,31.244039133649412L168.44764027424438,27.058131606575532A170.6070045455344,170.6070045455344,0,0,0,168.73597767899943,25.197615694985927Z" fill-rule="evenodd" style="fill: #1DC690; stroke: #fff; opacity: 1;" id="p-type-logs"></path><path d="M194.50658091338448,31.244039133649412A197,197,0,0,1,194.1499502921792,33.38857291865507L168.1387890965132,28.915352343664434A170.6070045455344,170.6070045455344,0,0,0,168.44764027424438,27.058131606575532Z" fill-rule="evenodd" style="fill: #1DC690; stroke: #fff; opacity: 1;" id="p-type-logs"></path><path d="M194.1499502921792,33.38857291865507A197,197,0,0,1,193.76967583721563,35.529040599773886L167.80946175810445,30.769051731492894A170.6070045455344,170.6070045455344,0,0,0,168.1387890965132,28.915352343664434Z" fill-rule="evenodd" style="fill: #1DC690; stroke: #fff; opacity: 1;" id="p-type-logs"></path><path d="M193.76967583721563,35.529040599773886A197,197,0,0,1,193.36580385881203,37.665181508064435L167.45969836493023,32.61900402413568A170.6070045455344,170.6070045455344,0,0,0,167.80946175810445,30.769051731492894Z" fill-rule="evenodd" style="fill: #1DC690; stroke: #fff; opacity: 1;" id="p-type-logs"></path><path d="M193.36580385881203,37.665181508064435A197,197,0,0,1,192.93838354102385,39.79673550150533L167.0895415116321,34.46498393199366A170.6070045455344,170.6070045455344,0,0,0,167.45969836493023,32.61900402413568Z" fill-rule="evenodd" style="fill: #1DC690; stroke: #fff; opacity: 1;" id="p-type-logs"></path><path d="M192.93838354102385,39.79673550150533A197,197,0,0,1,192.487466935654,41.923442996675675L166.6990362763935,36.30676664922995A170.6070045455344,170.6070045455344,0,0,0,167.0895415116321,34.46498393199366Z" fill-rule="evenodd" style="fill: #1DC690; stroke: #fff; opacity: 1;" id="p-type-logs"></path><path d="M192.487466935654,41.923442996675675A197,197,0,0,1,192.01310895591376,44.04504500036741L166.28823021545062,38.14412788114696A170.6070045455344,170.6070045455344,0,0,0,166.6990362763935,36.30676664922995Z" fill-rule="evenodd" style="fill: #1DC690; stroke: #fff; opacity: 1;" id="p-type-logs"></path><path d="M192.01310895591376,44.04504500036741A197,197,0,0,1,191.51536736973566,46.16128314112588L165.8571733573004,39.97684387150134A170.6070045455344,170.6070045455344,0,0,0,166.28823021545062,38.14412788114696Z" fill-rule="evenodd" style="fill: #1DC690; stroke: #fff; opacity: 1;" id="p-type-logs"></path><path d="M191.51536736973566,46.16128314112588A197,197,0,0,1,190.99430279273815,48.27189970071467L165.40591819660838,41.80469142975334A170.6070045455344,170.6070045455344,0,0,0,165.8571733573004,39.97684387150134Z" fill-rule="evenodd" style="fill: #1DC690; stroke: #fff; opacity: 1;" id="p-type-logs"></path><path d="M190.99430279273815,48.27189970071467A197,197,0,0,1,190.44997868084394,50.37663764550081L164.9345196878156,43.62744795824719A170.6070045455344,170.6070045455344,0,0,0,165.40591819660838,41.80469142975334Z" fill-rule="evenodd" style="fill: #1DC690; stroke: #fff; opacity: 1;" id="p-type-logs"></path><path d="M190.44997868084394,50.37663764550081A197,197,0,0,1,189.88246132255216,52.47524065775669L164.4430352384463,45.44489147931933A170.6070045455344,170.6070045455344,0,0,0,164.9345196878156,43.62744795824719Z" fill-rule="evenodd" style="fill: #1DC690; stroke: #fff; opacity: 1;" id="p-type-logs"></path><path d="M189.88246132255216,52.47524065775669A197,197,0,0,1,189.2918198308657,54.56745316687483L163.9315247021167,47.256800662331216A170.6070045455344,170.6070045455344,0,0,0,164.4430352384463,45.44489147931933Z" fill-rule="evenodd" style="fill: #1DC690; stroke: #fff; opacity: 1;" id="p-type-logs"></path><path d="M189.2918198308657,54.56745316687483A197,197,0,0,1,188.6781261348745,56.65302038049147L163.40005037124595,49.06295485062316A170.6070045455344,170.6070045455344,0,0,0,163.9315247021167,47.256800662331216Z" fill-rule="evenodd" style="fill: #1DC690; stroke: #fff; opacity: 1;" id="p-type-logs"></path><path d="M188.6781261348745,56.65302038049147A197,197,0,0,1,188.04145497099603,58.73168831551563L162.84867696947018,50.86313408838622A170.6070045455344,170.6070045455344,0,0,0,163.40005037124595,49.06295485062316Z" fill-rule="evenodd" style="fill: #1DC690; stroke: #fff; opacity: 1;" id="p-type-logs"></path><path d="M188.04145497099603,58.73168831551563A197,197,0,0,1,187.3818838738736,60.80320382905945L162.27747164376018,52.65711914744873A170.6070045455344,170.6070045455344,0,0,0,162.84867696947018,50.86313408838622Z" fill-rule="evenodd" style="fill: #1DC690; stroke: #fff; opacity: 1;" id="p-type-logs"></path><path d="M187.3818838738736,60.80320382905945A197,197,0,0,1,186.6994931669343,62.86731464926627L161.68650395624434,54.444691553974174A170.6070045455344,170.6070045455344,0,0,0,162.27747164376018,52.65711914744873Z" fill-rule="evenodd" style="fill: #1DC690; stroke: #fff; opacity: 1;" id="p-type-logs"></path><path d="M186.6994931669343,62.86731464926627A197,197,0,0,1,185.994365952607,64.92376940603263L161.07584587573714,56.225633615067196A170.6070045455344,170.6070045455344,0,0,0,161.68650395624434,54.444691553974174Z" fill-rule="evenodd" style="fill: #1DC690; stroke: #fff; opacity: 1;" id="p-type-logs"></path><path d="M185.994365952607,64.92376940603263A197,197,0,0,1,185.26658810220206,66.97231766162047L160.44557176897482,57.99972844528455A170.6070045455344,170.6070045455344,0,0,0,161.07584587573714,56.225633615067196Z" fill-rule="evenodd" style="fill: #1DC690; stroke: #fff; opacity: 1;" id="p-type-logs"></path><path d="M185.26658810220206,66.97231766162047A197,197,0,0,1,184.51624824545374,69.01270994115568L159.7957583915588,59.76675999304769A170.6070045455344,170.6070045455344,0,0,0,160.44557176897482,57.99972844528455Z" fill-rule="evenodd" style="fill: #1DC690; stroke: #fff; opacity: 1;" id="p-type-logs"></path><path d="M184.51624824545374,69.01270994115568A197,197,0,0,1,183.74343775972687,71.0446977630096L159.12648487860832,61.52651306695378A170.6070045455344,170.6070045455344,0,0,0,159.7957583915588,59.76675999304769Z" fill-rule="evenodd" style="fill: #1DC690; stroke: #fff; opacity: 1;" id="p-type-logs"></path><path d="M183.74343775972687,71.0446977630096A197,197,0,0,1,182.9482507588887,73.06803366905929L158.4378327351233,63.27877336198203A170.6070045455344,170.6070045455344,0,0,0,159.12648487860832,61.52651306695378Z" fill-rule="evenodd" style="fill: #1DC690; stroke: #fff; opacity: 1;" id="p-type-logs"></path><path d="M182.9482507588887,73.06803366905929A197,197,0,0,1,182.13078408184762,75.08247125482347L157.7298858260585,65.023327485592A170.6070045455344,170.6070045455344,0,0,0,158.4378327351233,63.27877336198203Z" fill-rule="evenodd" style="fill: #1DC690; stroke: #fff; opacity: 1;" id="p-type-logs"></path><path d="M182.13078408184762,75.08247125482347A197,197,0,0,1,181.2911372807601,77.08776519946987L157.00273036611037,66.75996298371089A170.6070045455344,170.6070045455344,0,0,0,157.7298858260585,65.023327485592Z" fill-rule="evenodd" style="fill: #1DC690; stroke: #fff; opacity: 1;" id="p-type-logs"></path><path d="M181.2911372807601,77.08776519946987A197,197,0,0,1,180.42941260890686,79.08367129569068L156.25645490921764,68.48846836660634A170.6070045455344,170.6070045455344,0,0,0,157.00273036611037,66.75996298371089Z" fill-rule="evenodd" style="fill: #1DC690; stroke: #fff; opacity: 1;" id="p-type-logs"></path><path d="M180.42941260890686,79.08367129569068A197,197,0,0,1,179.5457150082405,81.06994647944255L155.49115033777724,70.20863313464206A170.6070045455344,170.6070045455344,0,0,0,156.25645490921764,68.48846836660634Z" fill-rule="evenodd" style="fill: #1DC690; stroke: #fff; opacity: 1;" id="p-type-logs"></path><path d="M179.5457150082405,81.06994647944255A197,197,0,0,1,178.64015209660565,83.04634885954715L154.70690985157643,71.92024780391267A170.6070045455344,170.6070045455344,0,0,0,155.49115033777724,70.20863313464206Z" fill-rule="evenodd" style="fill: #1DC690; stroke: #fff; opacity: 1;" id="p-type-logs"></path><path d="M178.64015209660565,83.04634885954715A197,197,0,0,1,177.7128341546327,85.01263774714916L153.90382895644277,73.62310393175505A170.6070045455344,170.6070045455344,0,0,0,154.70690985157643,71.92024780391267Z" fill-rule="evenodd" style="fill: #1DC690; stroke: #fff; opacity: 1;" id="p-type-logs"></path><path d="M177.7128341546327,85.01263774714916A197,197,0,0,1,176.76387411230826,86.96857368502738L153.08200545261343,75.31699414213254A170.6070045455344,170.6070045455344,0,0,0,153.90382895644277,73.62310393175505Z" fill-rule="evenodd" style="fill: #1DC690; stroke: #fff; opacity: 1;" id="p-type-logs"></path><path d="M176.76387411230826,86.96857368502738A197,197,0,0,1,175.7933875352219,88.91391847675641L152.24153942282487,77.00171215088962A170.6070045455344,170.6070045455344,0,0,0,153.08200545261343,75.31699414213254Z" fill-rule="evenodd" style="fill: #1DC690; stroke: #fff; opacity: 1;" id="p-type-logs"></path><path d="M175.7933875352219,88.91391847675641A197,197,0,0,1,174.80149261049274,90.84843521571435L151.38253322012454,78.67705279087343A170.6070045455344,170.6070045455344,0,0,0,152.24153942282487,77.00171215088962Z" fill-rule="evenodd" style="fill: #1DC690; stroke: #fff; opacity: 1;" id="p-type-logs"></path><path d="M174.80149261049274,90.84843521571435A197,197,0,0,1,173.7883101323763,92.77188831393374L150.50509145540641,80.34281203691931A170.6070045455344,170.6070045455344,0,0,0,151.38253322012454,78.67705279087343Z" fill-rule="evenodd" style="fill: #1DC690; stroke: #fff; opacity: 1;" id="p-type-logs"></path><path d="M173.7883101323763,92.77188831393374A197,197,0,0,1,172.75396348755402,94.68404353079166L149.60932098467114,81.99878703069722A170.6070045455344,170.6070045455344,0,0,0,150.50509145540641,80.34281203691931Z" fill-rule="evenodd" style="fill: #1DC690; stroke: #fff; opacity: 1;" id="p-type-logs"></path><path d="M172.75396348755402,94.68404353079166A197,197,0,0,1,171.69857864010726,96.58466800153587L148.69533089601308,83.64477610541606A170.6070045455344,170.6070045455344,0,0,0,149.60932098467114,81.99878703069722Z" fill-rule="evenodd" style="fill: #1DC690; stroke: #fff; opacity: 1;" id="p-type-logs"></path><path d="M171.69857864010726,96.58466800153587A197,197,0,0,1,170.62228411617693,98.47353026564345L147.76323249633532,85.280578810383A170.6070045455344,170.6070045455344,0,0,0,148.69533089601308,83.64477610541606Z" fill-rule="evenodd" style="fill: #1DC690; stroke: #fff; opacity: 1;" id="p-type-logs"></path><path d="M170.62228411617693,98.47353026564345A197,197,0,0,1,169.5252109883117,100.35040029500828L146.8131392977948,86.90599593541461A170.6070045455344,170.6070045455344,0,0,0,147.76323249633532,85.280578810383Z" fill-rule="evenodd" style="fill: #1DC690; stroke: #fff; opacity: 1;" id="p-type-logs"></path><path d="M169.5252109883117,100.35040029500828A197,197,0,0,1,168.40749285950562,102.21504952195427L145.84516700397833,88.52082953509684A170.6070045455344,170.6070045455344,0,0,0,146.8131392977948,86.90599593541461Z" fill-rule="evenodd" style="fill: #1DC690; stroke: #fff; opacity: 1;" id="p-type-logs"></path><path d="M168.40749285950562,102.21504952195427A197,197,0,0,1,167.26926584692785,104.06725086707046L144.85943349581228,90.12488295289117A170.6070045455344,170.6070045455344,0,0,0,145.84516700397833,88.52082953509684Z" fill-rule="evenodd" style="fill: #1DC690; stroke: #fff; opacity: 1;" id="p-type-logs"></path><path d="M83.9812736435073,178.2025411637397A197,197,0,0,1,82.00964349816235,179.1184478865991L71.02243462471391,155.1211261562339A170.6070045455344,170.6070045455344,0,0,0,72.72991641744984,154.32792766674072Z" fill-rule="evenodd" style="fill: #D7A449; stroke: #fff; opacity: 1;" id="p-type-tokenTransfers"></path><path d="M82.00964349816235,179.1184478865991A197,197,0,0,1,80.0280261116436,180.01254133163636L69.30630362740774,155.89543379299332A170.6070045455344,170.6070045455344,0,0,0,71.02243462471391,155.1211261562339Z" fill-rule="evenodd" style="fill: #D7A449; stroke: #fff; opacity: 1;" id="p-type-tokenTransfers"></path><path d="M80.0280261116436,180.01254133163636A197,197,0,0,1,78.03666280789673,180.88471261498754L67.58173241819885,156.65075628082673A170.6070045455344,170.6070045455344,0,0,0,69.30630362740774,155.89543379299332Z" fill-rule="evenodd" style="fill: #D7A449; stroke: #fff; opacity: 1;" id="p-type-tokenTransfers"></path><path d="M78.03666280789673,180.88471261498754A197,197,0,0,1,76.03579609773796,181.73485552249798L65.84893101761476,157.38700163557795A170.6070045455344,170.6070045455344,0,0,0,67.58173241819885,156.65075628082673Z" fill-rule="evenodd" style="fill: #D7A449; stroke: #fff; opacity: 1;" id="p-type-tokenTransfers"></path><path d="M76.03579609773796,181.73485552249798A197,197,0,0,1,74.02566964932062,182.5628665226575L64.10811044846635,158.10408019632902A170.6070045455344,170.6070045455344,0,0,0,65.84893101761476,157.38700163557795Z" fill-rule="evenodd" style="fill: #D7A449; stroke: #fff; opacity: 1;" id="p-type-tokenTransfers"></path><path d="M74.02566964932062,182.5628665226575A197,197,0,0,1,72.00652825846112,183.3686447792082L62.35948271014938,158.80190463631908A170.6070045455344,170.6070045455344,0,0,0,64.10811044846635,158.10408019632902Z" fill-rule="evenodd" style="fill: #D7A449; stroke: #fff; opacity: 1;" id="p-type-tokenTransfers"></path><path d="M72.00652825846112,183.3686447792082A197,197,0,0,1,69.97861781882722,184.15209216342484L60.603260752826756,159.48038997357915A170.6070045455344,170.6070045455344,0,0,0,62.35948271014938,158.80190463631908Z" fill-rule="evenodd" style="fill: #D7A449; stroke: #fff; opacity: 1;" id="p-type-tokenTransfers"></path><path d="M69.97861781882722,184.15209216342484A197,197,0,0,1,67.94218529199293,184.91311326606476L58.83965845149533,160.13945358128137A170.6070045455344,170.6070045455344,0,0,0,60.603260752826756,159.48038997357915Z" fill-rule="evenodd" style="fill: #D7A449; stroke: #fff; opacity: 1;" id="p-type-tokenTransfers"></path><path d="M67.94218529199293,184.91311326606476A197,197,0,0,1,65.8974786773631,185.65161540898714L57.068890579939804,160.7790151978014A170.6070045455344,170.6070045455344,0,0,0,58.83965845149533,160.13945358128137Z" fill-rule="evenodd" style="fill: #D7A449; stroke: #fff; opacity: 1;" id="p-type-tokenTransfers"></path><path d="M65.8974786773631,185.65161540898714A197,197,0,0,1,63.84474698197174,186.36750865643938L55.29117278457739,161.39899693649278A170.6070045455344,170.6070045455344,0,0,0,57.068890579939804,160.7790151978014Z" fill-rule="evenodd" style="fill: #D7A449; stroke: #fff; opacity: 1;" id="p-type-tokenTransfers"></path><path d="M63.84474698197174,186.36750865643938A197,197,0,0,1,61.784240190157675,187.0607058260096L53.50672155819604,161.99932329517205A170.6070045455344,170.6070045455344,0,0,0,55.29117278457739,161.39899693649278Z" fill-rule="evenodd" style="fill: #D7A449; stroke: #fff; opacity: 1;" id="p-type-tokenTransfers"></path><path d="M61.784240190157675,187.0607058260096A197,197,0,0,1,59.71620923312113,187.73112249924384L51.71575421358975,162.57992116531358A170.6070045455344,170.6070045455344,0,0,0,53.50672155819604,161.99932329517205Z" fill-rule="evenodd" style="fill: #D7A449; stroke: #fff; opacity: 1;" id="p-type-tokenTransfers"></path><path d="M59.71620923312113,187.73112249924384A197,197,0,0,1,57.6409059583649,188.37867703192666L49.91848885709381,163.14071984095264A170.6070045455344,170.6070045455344,0,0,0,51.71575421358975,162.57992116531358Z" fill-rule="evenodd" style="fill: #D7A449; stroke: #fff; opacity: 1;" id="p-type-tokenTransfers"></path><path d="M57.6409059583649,188.37867703192666A197,197,0,0,1,55.55858309902413,189.00329056402387L48.11514436202366,163.68165102729634A170.6070045455344,170.6070045455344,0,0,0,49.91848885709381,163.14071984095264Z" fill-rule="evenodd" style="fill: #D7A449; stroke: #fff; opacity: 1;" id="p-type-tokenTransfers"></path><path d="M55.55858309902413,189.00329056402387A197,197,0,0,1,53.46949424308816,189.60488702928615L46.30594034202014,164.2026488490404A170.6070045455344,170.6070045455344,0,0,0,48.11514436202366,163.68165102729634Z" fill-rule="evenodd" style="fill: #D7A449; stroke: #fff; opacity: 1;" id="p-type-tokenTransfers"></path><path d="M53.46949424308816,189.60488702928615A197,197,0,0,1,51.373893802518126,190.1833931645126L44.49109712430463,164.70364985839169A170.6070045455344,170.6070045455344,0,0,0,46.30594034202014,164.2026488490404Z" fill-rule="evenodd" style="fill: #D7A449; stroke: #fff; opacity: 1;" id="p-type-tokenTransfers"></path><path d="M51.373893802518126,190.1833931645126A197,197,0,0,1,49.272036982264474,190.73873851847287L42.670835722847386,165.18459304279492A170.6070045455344,170.6070045455344,0,0,0,44.49109712430463,164.70364985839169Z" fill-rule="evenodd" style="fill: #D7A449; stroke: #fff; opacity: 1;" id="p-type-tokenTransfers"></path><path d="M49.272036982264474,190.73873851847287A197,197,0,0,1,47.16417974918771,191.27085546048647L40.845377811452124,165.64541983236282A170.6070045455344,170.6070045455344,0,0,0,42.670835722847386,165.18459304279492Z" fill-rule="evenodd" style="fill: #D7A449; stroke: #fff; opacity: 1;" id="p-type-tokenTransfers"></path><path d="M47.16417974918771,191.27085546048647A197,197,0,0,1,45.0505788008864,191.77967918865943L39.014945696760314,166.08607410700887A170.6070045455344,170.6070045455344,0,0,0,40.845377811452124,165.64541983236282Z" fill-rule="evenodd" style="fill: #D7A449; stroke: #fff; opacity: 1;" id="p-type-tokenTransfers"></path><path d="M45.0505788008864,191.77967918865943A197,197,0,0,1,42.931491534436255,192.2651477377755L37.17976229117837,166.50650220328177A170.6070045455344,170.6070045455344,0,0,0,39.014945696760314,166.08607410700887Z" fill-rule="evenodd" style="fill: #D7A449; stroke: #fff; opacity: 1;" id="p-type-tokenTransfers"></path><path d="M42.931491534436255,192.2651477377755A197,197,0,0,1,40.80717601504394,192.7272019868426L35.34005108573109,166.90665292090043A170.6070045455344,170.6070045455344,0,0,0,37.17976229117837,166.50650220328177Z" fill-rule="evenodd" style="fill: #D7A449; stroke: #fff; opacity: 1;" id="p-type-tokenTransfers"></path><path d="M40.80717601504394,192.7272019868426A197,197,0,0,1,38.6778909446196,193.16578566629266L33.496036122844664,167.28647752898942A170.6070045455344,170.6070045455344,0,0,0,35.34005108573109,166.90665292090043Z" fill-rule="evenodd" style="fill: #D7A449; stroke: #fff; opacity: 1;" id="p-type-tokenTransfers"></path><path d="M38.6778909446196,193.16578566629266A197,197,0,0,1,36.54389563027172,193.5808453648341L31.647941969062447,167.64592977201343A170.6070045455344,170.6070045455344,0,0,0,33.496036122844664,167.28647752898942Z" fill-rule="evenodd" style="fill: #D7A449; stroke: #fff; opacity: 1;" id="p-type-tokenTransfers"></path><path d="M36.54389563027172,193.5808453648341A197,197,0,0,1,34.40544995272848,193.97233053595633L29.795993687696978,167.98496587541018A170.6070045455344,170.6070045455344,0,0,0,31.647941969062447,167.64592977201343Z" fill-rule="evenodd" style="fill: #D7A449; stroke: #fff; opacity: 1;" id="p-type-tokenTransfers"></path><path d="M34.40544995272848,193.97233053595633A197,197,0,0,1,32.26281433468905,194.34019350408548L27.940416811421457,168.30354455092157A170.6070045455344,170.6070045455344,0,0,0,29.795993687696978,167.98496587541018Z" fill-rule="evenodd" style="fill: #D7A449; stroke: #fff; opacity: 1;" id="p-type-tokenTransfers"></path><path d="M32.26281433468905,194.34019350408548A197,197,0,0,1,30.11624970910902,194.68438947039024L26.08143731480412,168.6016270016216A170.6070045455344,170.6070045455344,0,0,0,27.940416811421457,168.30354455092157Z" fill-rule="evenodd" style="fill: #D7A449; stroke: #fff; opacity: 1;" id="p-type-tokenTransfers"></path><path d="M30.11624970910902,194.68438947039024A197,197,0,0,1,27.966017487423642,195.00487651823767L24.21928158678873,168.87917692664138A170.6070045455344,170.6070045455344,0,0,0,26.08143731480412,168.6016270016216Z" fill-rule="evenodd" style="fill: #D7A449; stroke: #fff; opacity: 1;" id="p-type-tokenTransfers"></path><path d="M27.966017487423642,195.00487651823767A197,197,0,0,1,25.81237952771279,195.30161561829772L22.354176403124647,169.1361605255895A170.6070045455344,170.6070045455344,0,0,0,24.21928158678873,168.87917692664138Z" fill-rule="evenodd" style="fill: #D7A449; stroke: #fff; opacity: 1;" id="p-type-tokenTransfers"></path><path d="M25.81237952771279,195.30161561829772A197,197,0,0,1,23.655598102811542,195.57457063329645L20.486348898749767,169.37254650266877A170.6070045455344,170.6070045455344,0,0,0,22.354176403124647,169.1361605255895Z" fill-rule="evenodd" style="fill: #D7A449; stroke: #fff; opacity: 1;" id="p-type-tokenTransfers"></path><path d="M23.655598102811542,195.57457063329645A197,197,0,0,1,21.49593586837028,195.82370832241665L18.61602654012977,169.58830607048702A170.6070045455344,170.6070045455344,0,0,0,20.486348898749767,169.37254650266877Z" fill-rule="evenodd" style="fill: #D7A449; stroke: #fff; opacity: 1;" id="p-type-tokenTransfers"></path><path d="M21.49593586837028,195.82370832241665A197,197,0,0,1,19.333655830868103,196.04899834534615L16.743437097556914,169.78341295356313A170.6070045455344,170.6070045455344,0,0,0,18.61602654012977,169.58830607048702Z" fill-rule="evenodd" style="fill: #D7A449; stroke: #fff; opacity: 1;" id="p-type-tokenTransfers"></path><path d="M19.333655830868103,196.04899834534615A197,197,0,0,1,17.169021315583585,196.2504132659726L14.86880861741191,169.9578433915269A170.6070045455344,170.6070045455344,0,0,0,16.743437097556914,169.78341295356313Z" fill-rule="evenodd" style="fill: #D7A449; stroke: #fff; opacity: 1;" id="p-type-tokenTransfers"></path><path d="M17.169021315583585,196.2504132659726A197,197,0,0,1,15.002295934526673,196.4279285557247L12.992369394392105,170.11157614201235A170.6070045455344,170.6070045455344,0,0,0,14.86880861741191,169.9578433915269Z" fill-rule="evenodd" style="fill: #D7A449; stroke: #fff; opacity: 1;" id="p-type-tokenTransfers"></path><path d="M15.002295934526673,196.4279285557247A197,197,0,0,1,12.833743554335662,196.5815225965593L11.114347943709479,170.244592483245A170.6070045455344,170.6070045455344,0,0,0,12.992369394392105,170.11157614201235Z" fill-rule="evenodd" style="fill: #D7A449; stroke: #fff; opacity: 1;" id="p-type-tokenTransfers"></path><path d="M12.833743554335662,196.5815225965593A197,197,0,0,1,10.663628264143188,196.7111766835941L9.234972973261758,170.3568762163216A170.6070045455344,170.6070045455344,0,0,0,11.114347943709479,170.244592483245Z" fill-rule="evenodd" style="fill: #D7A449; stroke: #fff; opacity: 1;" id="p-type-tokenTransfers"></path><path d="M10.663628264143188,196.7111766835941A197,197,0,0,1,8.4922143434151,196.81687502738555L7.354473355780064,170.44841366718296A170.6070045455344,170.6070045455344,0,0,0,9.234972973261758,170.3568762163216Z" fill-rule="evenodd" style="fill: #D7A449; stroke: #fff; opacity: 1;" id="p-type-tokenTransfers"></path><path d="M-78.22377636104466,180.8038738849842A197,197,0,0,1,-106.94697130211019,165.4428763329072L-92.61879400543275,143.2777337794649A170.6070045455344,170.6070045455344,0,0,0,-67.74377750861733,156.58074788703416Z" fill-rule="evenodd" style="fill: #414552; stroke: #fff; opacity: 1;" id="p-type-ether"></path><path d="M-106.94697130211019,165.4428763329072A197,197,0,0,1,-129.08052052506662,148.81941815830973L-111.78700990842634,128.8813967015154A170.6070045455344,170.6070045455344,0,0,0,-92.61879400543275,143.2777337794649Z" fill-rule="evenodd" style="fill: #414552; stroke: #fff; opacity: 1;" id="p-type-ether"></path><path d="M-129.08052052506662,148.81941815830973A197,197,0,0,1,-130.7146868641211,147.3861276986907L-113.20223947205693,127.64013075248346A170.6070045455344,170.6070045455344,0,0,0,-111.78700990842634,128.8813967015154Z" fill-rule="evenodd" style="fill: #414552; stroke: #fff; opacity: 1;" id="p-type-ether"></path><path d="M-130.7146868641211,147.3861276986907A197,197,0,0,1,-131.52854790362022,146.66029144374792L-113.90706380741358,127.01153811671524A170.6070045455344,170.6070045455344,0,0,0,-113.20223947205693,127.64013075248346Z" fill-rule="evenodd" style="fill: #414552; stroke: #fff; opacity: 1;" id="p-type-ether"></path></g></svg>