<svg xmlns="http://www.w3.org/2000/svg" width="400" height="400" id="block-7907909"><g id="burst-container" transform="translate(200,200)"><circle r="197" style="fill: #f9f9f9; stroke: #f9f9f9; stroke-width: 3; opacity: 1;" id="circle-base"></circle><path display="none" d="M6.031385485800715e-15,-98.5A98.5,98.5,0,1,1,-6.031385485800715e-15,98.5A98.5,98.5,0,1,1,6.031385485800715e-15,-98.5Z" fill-rule="evenodd" id="p-type-root" style="stroke: #fff; opacity: 1;"></path><path d="M8.529667153919608e-15,-139.30003589374985A139.30003589374985,139.30003589374985,0,1,1,-99.64924031645815,-97.33719178378207L-70.46265356785547,-68.82778837196781A98.5,98.5,0,1,0,6.031385485800715e-15,-98.5Z" fill-rule="evenodd" style="fill: #0B1F65; stroke: #fff; opacity: 1;" id="p-type-data"></path><path d="M-99.64924031645815,-97.33719178378207A139.30003589374985,139.30003589374985,0,0,1,-4.037285300262905,-139.24151797292458L-2.8547918134006673,-98.4586215813635A98.5,98.5,0,0,0,-70.46265356785547,-68.82778837196781Z" fill-rule="evenodd" style="fill: #D7A449; stroke: #fff; opacity: 1;" id="p-type-value"></path><path d="M1.0446666101440332e-14,-170.6070045455344A170.6070045455344,170.6070045455344,0,0,1,168.55107328290805,26.406167748837838L137.621375047193,21.560545682330083A139.30003589374985,139.30003589374985,0,0,0,8.529667153919608e-15,-139.30003589374985Z" fill-rule="evenodd" style="fill: #DB3F29; stroke: #fff; opacity: 1;" id="p-type-functions"></path><path d="M168.55107328290805,26.406167748837838A170.6070045455344,170.6070045455344,0,0,1,18.89708466273639,169.5572180452645L15.429405016626033,138.4428888055754A139.30003589374985,139.30003589374985,0,0,0,137.621375047193,21.560545682330083Z" fill-rule="evenodd" style="fill: #1DC690; stroke: #fff; opacity: 1;" id="p-type-logs"></path><path d="M18.89708466273639,169.5572180452645A170.6070045455344,170.6070045455344,0,0,1,-130.89981808266504,109.41657838703054L-106.87925390855733,89.33826214982095A139.30003589374985,139.30003589374985,0,0,0,15.429405016626033,138.4428888055754Z" fill-rule="evenodd" style="fill: #D7A449; stroke: #fff; opacity: 1;" id="p-type-tokenTransfers"></path><path d="M-130.89981808266504,109.41657838703054A170.6070045455344,170.6070045455344,0,0,1,-166.25401160349563,38.29299708490753L-135.74583203977267,31.26610119330238A139.30003589374985,139.30003589374985,0,0,0,-106.87925390855733,89.33826214982095Z" fill-rule="evenodd" style="fill: #414552; stroke: #fff; opacity: 1;" id="p-type-ether"></path><path d="M-122.04489601565008,-119.21322643284662A170.6070045455344,170.6070045455344,0,0,1,-51.128045686185075,-162.76569953252243L-41.74587449228668,-132.89763716061412A139.30003589374985,139.30003589374985,0,0,0,-99.64924031645815,-97.33719178378207Z" fill-rule="evenodd" style="fill: #D7A449; stroke: #fff; opacity: 1;" id="p-type-tokenTransfers"></path><path d="M-51.128045686185075,-162.76569953252243A170.6070045455344,170.6070045455344,0,0,1,-9.885134585110341,-170.32038666652403L-8.071178590753009,-139.06601337550512A139.30003589374985,139.30003589374985,0,0,0,-41.74587449228668,-132.89763716061412Z" fill-rule="evenodd" style="fill: #414552; stroke: #fff; opacity: 1;" id="p-type-ether"></path><path d="M1.206277097160143e-14,-197A197,197,0,0,1,31.21091543363367,-194.5118987563346L27.029445640894565,-168.45224566133254A170.6070045455344,170.6070045455344,0,0,0,1.0446666101440332e-14,-170.6070045455344Z" fill-rule="evenodd" style="fill: #DB3F29; stroke: #fff; opacity: 1;" id="p-type-functions"></path><path d="M31.21091543363367,-194.5118987563346A197,197,0,0,1,34.02666944231826,-194.0391346266603L29.467960143223287,-168.04281991503655A170.6070045455344,170.6070045455344,0,0,0,27.029445640894565,-168.45224566133254Z" fill-rule="evenodd" style="fill: #DB3F29; stroke: #fff; opacity: 1;" id="p-type-functions"></path><path d="M34.02666944231826,-194.0391346266603A197,197,0,0,1,36.835276020981475,-193.52561184623113L31.900284789581733,-167.59809614176285A170.6070045455344,170.6070045455344,0,0,0,29.467960143223287,-168.04281991503655Z" fill-rule="evenodd" style="fill: #DB3F29; stroke: #fff; opacity: 1;" id="p-type-functions"></path><path d="M36.835276020981475,-193.52561184623113A197,197,0,0,1,39.63614521123751,-192.97143828244037L34.32590866102061,-167.1181677574143A170.6070045455344,170.6070045455344,0,0,0,31.900284789581733,-167.59809614176285Z" fill-rule="evenodd" style="fill: #DB3F29; stroke: #fff; opacity: 1;" id="p-type-functions"></path><path d="M39.63614521123751,-192.97143828244037A197,197,0,0,1,42.42868867996813,-192.37673034153156L36.74432224611364,-166.60313557275492A170.6070045455344,170.6070045455344,0,0,0,34.32590866102061,-167.1181677574143Z" fill-rule="evenodd" style="fill: #DB3F29; stroke: #fff; opacity: 1;" id="p-type-functions"></path><path d="M42.42868867996813,-192.37673034153156A197,197,0,0,1,45.212319842904236,-191.7416129441466L39.15501754798233,-166.0531077722341A170.6070045455344,170.6070045455344,0,0,0,36.74432224611364,-166.60313557275492Z" fill-rule="evenodd" style="fill: #DB3F29; stroke: #fff; opacity: 1;" id="p-type-functions"></path><path d="M45.212319842904236,-191.7416129441466A197,197,0,0,1,47.98645398784013,-191.06621949908597L41.55748819100263,-165.46819989126212A170.6070045455344,170.6070045455344,0,0,0,39.15501754798233,-166.0531077722341Z" fill-rule="evenodd" style="fill: #DB3F29; stroke: #fff; opacity: 1;" id="p-type-functions"></path><path d="M47.98645398784013,-191.06621949908597A197,197,0,0,1,50.75050839745448,-190.35069187528555L43.95122952717106,-164.84853479194143A170.6070045455344,170.6070045455344,0,0,0,41.55748819100263,-165.46819989126212Z" fill-rule="evenodd" style="fill: #DB3F29; stroke: #fff; opacity: 1;" id="p-type-functions"></path><path d="M50.75050839745448,-190.35069187528555A197,197,0,0,1,53.503902471712294,-189.59518037201659L46.335738742107864,-164.19424263725912A170.6070045455344,170.6070045455344,0,0,0,43.95122952717106,-164.84853479194143Z" fill-rule="evenodd" style="fill: #DB3F29; stroke: #fff; opacity: 1;" id="p-type-functions"></path><path d="M53.503902471712294,-189.59518037201659A197,197,0,0,1,56.246057849822265,-188.79984368731468L48.71051496067522,-163.50546086374558A170.6070045455344,170.6070045455344,0,0,0,46.335738742107864,-164.19424263725912Z" fill-rule="evenodd" style="fill: #DB3F29; stroke: #fff; opacity: 1;" id="p-type-functions"></path><path d="M56.246057849822265,-188.79984368731468A197,197,0,0,1,58.97639853172338,-187.96484888464474L51.075059352187715,-162.78233415260544A170.6070045455344,170.6070045455344,0,0,0,48.71051496067522,-163.50546086374558Z" fill-rule="evenodd" style="fill: #DB3F29; stroke: #fff; opacity: 1;" id="p-type-functions"></path><path d="M58.97639853172338,-187.96484888464474A197,197,0,0,1,61.694350999076086,-187.09037135780878L53.42887523519375,-162.02501439932692A170.6070045455344,170.6070045455344,0,0,0,51.075059352187715,-162.78233415260544Z" fill-rule="evenodd" style="fill: #DB3F29; stroke: #fff; opacity: 1;" id="p-type-functions"></path><path d="M61.694350999076086,-187.09037135780878A197,197,0,0,1,64.39934433573202,-186.17659479410355L55.77146818180543,-161.23366068177532A170.6070045455344,170.6070045455344,0,0,0,53.42887523519375,-162.02501439932692Z" fill-rule="evenodd" style="fill: #DB3F29; stroke: #fff; opacity: 1;" id="p-type-functions"></path><path d="M64.39934433573202,-186.17659479410355A197,197,0,0,1,67.09081034765693,-185.2237111357364L58.10234612155479,-160.40843922677834A170.6070045455344,170.6070045455344,0,0,0,55.77146818180543,-161.23366068177532Z" fill-rule="evenodd" style="fill: #DB3F29; stroke: #fff; opacity: 1;" id="p-type-functions"></path><path d="M67.09081034765693,-185.2237111357364A197,197,0,0,1,69.76818368228206,-184.23192053950734L60.4210194447552,-159.54952337520947A170.6070045455344,170.6070045455344,0,0,0,58.10234612155479,-160.40843922677834Z" fill-rule="evenodd" style="fill: #DB3F29; stroke: #fff; opacity: 1;" id="p-type-functions"></path><path d="M69.76818368228206,-184.23192053950734A197,197,0,0,1,72.43090194725856,-183.201431334765L62.72700110534568,-158.65709354557697A170.6070045455344,170.6070045455344,0,0,0,60.4210194447552,-159.54952337520947Z" fill-rule="evenodd" style="fill: #DB3F29; stroke: #fff; opacity: 1;" id="p-type-functions"></path><path d="M72.43090194725856,-183.201431334765A197,197,0,0,1,75.07840582859015,-182.13245997964646L65.01980672319674,-157.73133719612645A170.6070045455344,170.6070045455344,0,0,0,62.72700110534568,-158.65709354557697Z" fill-rule="evenodd" style="fill: #DB3F29; stroke: #fff; opacity: 1;" id="p-type-functions"></path><path d="M75.07840582859015,-182.13245997964646A197,197,0,0,1,77.7101392081192,-181.02523101560936L67.29895468585636,-156.77244878546438A170.6070045455344,170.6070045455344,0,0,0,65.01980672319674,-157.73133719612645Z" fill-rule="evenodd" style="fill: #DB3F29; stroke: #fff; opacity: 1;" id="p-type-functions"></path><path d="M77.7101392081192,-181.02523101560936A197,197,0,0,1,80.32554928034122,-179.87997702026613L69.56396624971433,-155.7806297317115A170.6070045455344,170.6070045455344,0,0,0,67.29895468585636,-156.77244878546438Z" fill-rule="evenodd" style="fill: #DB3F29; stroke: #fff; opacity: 1;" id="p-type-functions"></path><path d="M80.32554928034122,-179.87997702026613A197,197,0,0,1,82.92408666852393,-178.69693855853023L71.81436564056422,-154.75608837019416A170.6070045455344,170.6070045455344,0,0,0,69.56396624971433,-155.7806297317115Z" fill-rule="evenodd" style="fill: #DB3F29; stroke: #fff; opacity: 1;" id="p-type-functions"></path><path d="M82.92408666852393,-178.69693855853023A197,197,0,0,1,85.5052055401059,-177.47636413208448L74.04968015354163,-153.6990399096825A170.6070045455344,170.6070045455344,0,0,0,71.81436564056422,-154.75608837019416Z" fill-rule="evenodd" style="fill: #DB3F29; stroke: #fff; opacity: 1;" id="p-type-functions"></path><path d="M85.5052055401059,-177.47636413208448A197,197,0,0,1,88.06836372135065,-176.2185101271824L76.26944025241751,-152.60970638718535A170.6070045455344,170.6070045455344,0,0,0,74.04968015354163,-153.6990399096825Z" fill-rule="evenodd" style="fill: #DB3F29; stroke: #fff; opacity: 1;" id="p-type-functions"></path><path d="M88.06836372135065,-176.2185101271824A197,197,0,0,1,90.6130228112323,-174.92364076079338L78.473179668226,-151.48831662131016A170.6070045455344,170.6070045455344,0,0,0,76.26944025241751,-152.60970638718535Z" fill-rule="evenodd" style="fill: #DB3F29; stroke: #fff; opacity: 1;" id="p-type-functions"></path><path d="M90.6130228112323,-174.92364076079338A197,197,0,0,1,93.13864829452879,-173.5920280251028L80.66043549720612,-150.33510616419923A170.6070045455344,170.6070045455344,0,0,0,78.473179668226,-151.48831662131016Z" fill-rule="evenodd" style="fill: #DB3F29; stroke: #fff; opacity: 1;" id="p-type-functions"></path><path d="M93.13864829452879,-173.5920280251028A197,197,0,0,1,95.64470965409878,-172.22395163037905L82.83074829803628,-149.15031725205066A170.6070045455344,170.6070045455344,0,0,0,80.66043549720612,-150.33510616419923Z" fill-rule="evenodd" style="fill: #DB3F29; stroke: #fff; opacity: 1;" id="p-type-functions"></path><path d="M95.64470965409878,-172.22395163037905A197,197,0,0,1,98.13068048231877,-170.8196989462195L84.98366218834184,-147.93419875423598A170.6070045455344,170.6070045455344,0,0,0,82.83074829803628,-149.15031725205066Z" fill-rule="evenodd" style="fill: #DB3F29; stroke: #fff; opacity: 1;" id="p-type-functions"></path><path d="M98.13068048231877,-170.8196989462195A197,197,0,0,1,100.59603859165698,-169.37956494118723L87.11872494045471,-146.6870061210242A170.6070045455344,170.6070045455344,0,0,0,84.98366218834184,-147.93419875423598Z" fill-rule="evenodd" style="fill: #DB3F29; stroke: #fff; opacity: 1;" id="p-type-functions"></path><path d="M100.59603859165698,-169.37956494118723A197,197,0,0,1,103.0402661243609,-167.90385212085187L89.23548807640566,-145.4090013299234A170.6070045455344,170.6070045455344,0,0,0,87.11872494045471,-146.6870061210242Z" fill-rule="evenodd" style="fill: #DB3F29; stroke: #fff; opacity: 1;" id="p-type-functions"></path><path d="M103.0402661243609,-167.90385212085187A197,197,0,0,1,105.46284966123513,-166.39287046424712L91.3335069621287,-144.1004528306514A170.6070045455344,170.6070045455344,0,0,0,89.23548807640566,-145.4090013299234Z" fill-rule="evenodd" style="fill: #DB3F29; stroke: #fff; opacity: 1;" id="p-type-functions"></path><path d="M105.46284966123513,-166.39287046424712A197,197,0,0,1,107.86328032948708,-164.8469373587586L93.41234090085814,-142.76163548874698A170.6070045455344,170.6070045455344,0,0,0,91.3335069621287,-144.1004528306514Z" fill-rule="evenodd" style="fill: #DB3F29; stroke: #fff; opacity: 1;" id="p-type-functions"></path><path d="M107.86328032948708,-164.8469373587586A197,197,0,0,1,110.24105390961772,-163.2663775334553L95.47155322569876,-141.39283052783324A170.6070045455344,170.6070045455344,0,0,0,93.41234090085814,-142.76163548874698Z" fill-rule="evenodd" style="fill: #DB3F29; stroke: #fff; opacity: 1;" id="p-type-functions"></path><path d="M110.24105390961772,-163.2663775334553A197,197,0,0,1,112.59567094133455,-161.65152299087907L97.51071139134903,-139.99432547054553A170.6070045455344,170.6070045455344,0,0,0,95.47155322569876,-141.39283052783324Z" fill-rule="evenodd" style="fill: #DB3F29; stroke: #fff; opacity: 1;" id="p-type-functions"></path><path d="M112.59567094133455,-161.65152299087907A197,197,0,0,1,114.9266368284653,-160.00271293730628L99.5293870649592,-138.5664140781363A170.6070045455344,170.6070045455344,0,0,0,97.51071139134903,-139.99432547054553Z" fill-rule="evenodd" style="fill: #DB3F29; stroke: #fff; opacity: 1;" id="p-type-functions"></path><path d="M114.9266368284653,-160.00271293730628A197,197,0,0,1,117.2334619428497,-158.32029371149616L101.52715621610403,-137.10939628876937A170.6070045455344,170.6070045455344,0,0,0,99.5293870649592,-138.5664140781363Z" fill-rule="evenodd" style="fill: #DB3F29; stroke: #fff; opacity: 1;" id="p-type-functions"></path><path d="M117.2334619428497,-158.32029371149616A197,197,0,0,1,119.51566172718759,-156.60461871194116L103.50359920585201,-135.62357815451688A170.6070045455344,170.6070045455344,0,0,0,101.52715621610403,-137.10939628876937Z" fill-rule="evenodd" style="fill: #DB3F29; stroke: #fff; opacity: 1;" id="p-type-functions"></path><path d="M119.51566172718759,-156.60461871194116A197,197,0,0,1,121.77275679682216,-154.8560483226341L105.45830087491217,-134.10927177707174A170.6070045455344,170.6070045455344,0,0,0,103.50359920585201,-135.62357815451688Z" fill-rule="evenodd" style="fill: #DB3F29; stroke: #fff; opacity: 1;" id="p-type-functions"></path><path d="M121.77275679682216,-154.8560483226341A197,197,0,0,1,124.00427304043649,-153.07494983736848L107.3908506308398,-132.56679524218973A170.6070045455344,170.6070045455344,0,0,0,105.45830087491217,-134.10927177707174Z" fill-rule="evenodd" style="fill: #DB3F29; stroke: #fff; opacity: 1;" id="p-type-functions"></path><path d="M124.00427304043649,-153.07494983736848A197,197,0,0,1,126.20974171964221,-151.2616973825866L109.30084253428285,-130.9964725528741A170.6070045455344,170.6070045455344,0,0,0,107.3908506308398,-132.56679524218973Z" fill-rule="evenodd" style="fill: #DB3F29; stroke: #fff; opacity: 1;" id="p-type-functions"></path><path d="M126.20974171964221,-151.2616973825866A197,197,0,0,1,128.38869956744009,-149.41667183879318L111.18787538425127,-129.39863356131784A170.6070045455344,170.6070045455344,0,0,0,109.30084253428285,-130.9964725528741Z" fill-rule="evenodd" style="fill: #DB3F29; stroke: #fff; opacity: 1;" id="p-type-functions"></path><path d="M128.38869956744009,-149.41667183879318A197,197,0,0,1,130.5406888855307,-147.54026076054996L113.0515528023905,-127.77361389961665A170.6070045455344,170.6070045455344,0,0,0,111.18787538425127,-129.39863356131784Z" fill-rule="evenodd" style="fill: #DB3F29; stroke: #fff; opacity: 1;" id="p-type-functions"></path><path d="M130.5406888855307,-147.54026076054996A197,197,0,0,1,132.66525764045593,-145.63285829506833L114.89148331624243,-126.12175490926847A170.6070045455344,170.6070045455344,0,0,0,113.0515528023905,-127.77361389961665Z" fill-rule="evenodd" style="fill: #DB3F29; stroke: #fff; opacity: 1;" id="p-type-functions"></path><path d="M132.66525764045593,-145.63285829506833A197,197,0,0,1,134.76195955855013,-143.69486509941717L116.70728044147556,-124.44340356947319A170.6070045455344,170.6070045455344,0,0,0,114.89148331624243,-126.12175490926847Z" fill-rule="evenodd" style="fill: #DB3F29; stroke: #fff; opacity: 1;" id="p-type-functions"></path><path d="M134.76195955855013,-143.69486509941717A197,197,0,0,1,136.83035421968165,-141.7266882563635L118.49856276306757,-122.73891242424847A170.6070045455344,170.6070045455344,0,0,0,116.70728044147556,-124.44340356947319Z" fill-rule="evenodd" style="fill: #DB3F29; stroke: #fff; opacity: 1;" id="p-type-functions"></path><path d="M136.83035421968165,-141.7266882563635A197,197,0,0,1,138.87000714976475,-139.7287411888631L120.26495401542289,-121.00863950837649A170.6070045455344,170.6070045455344,0,0,0,118.49856276306757,-122.73891242424847Z" fill-rule="evenodd" style="fill: #DB3F29; stroke: #fff; opacity: 1;" id="p-type-functions"></path><path d="M138.87000714976475,-139.7287411888631A197,197,0,0,1,140.88048991202248,-137.70144357321942L122.00608316140881,-119.25294827219744A170.6070045455344,170.6070045455344,0,0,0,120.26495401542289,-121.00863950837649Z" fill-rule="evenodd" style="fill: #DB3F29; stroke: #fff; opacity: 1;" id="p-type-functions"></path><path d="M140.88048991202248,-137.70144357321942A197,197,0,0,1,142.86138019698151,-135.6452212509291L123.72158447029311,-117.47220750526539A170.6070045455344,170.6070045455344,0,0,0,122.00608316140881,-119.25294827219744Z" fill-rule="evenodd" style="fill: #DB3F29; stroke: #fff; opacity: 1;" id="p-type-functions"></path><path d="M142.86138019698151,-135.6452212509291A197,197,0,0,1,144.8122619111797,-133.56050613923225L125.41109759456727,-115.6667912588826A170.6070045455344,170.6070045455344,0,0,0,123.72158447029311,-117.47220750526539Z" fill-rule="evenodd" style="fill: #DB3F29; stroke: #fff; opacity: 1;" id="p-type-functions"></path><path d="M144.8122619111797,-133.56050613923225A197,197,0,0,1,146.73272526456824,-131.44773614038675L127.07426764563881,-113.83707876752878A170.6070045455344,170.6070045455344,0,0,0,125.41109759456727,-115.6667912588826Z" fill-rule="evenodd" style="fill: #DB3F29; stroke: #fff; opacity: 1;" id="p-type-functions"></path><path d="M146.73272526456824,-131.44773614038675A197,197,0,0,1,148.62236685658954,-129.3073550496851L128.7107452683769,-111.9834543692013A170.6070045455344,170.6070045455344,0,0,0,127.07426764563881,-113.83707876752878Z" fill-rule="evenodd" style="fill: #DB3F29; stroke: #fff; opacity: 1;" id="p-type-functions"></path><path d="M148.62236685658954,-129.3073550496851A197,197,0,0,1,150.48078976091296,-127.13981246223352L130.32018671449586,-110.10630742468359A170.6070045455344,170.6070045455344,0,0,0,128.7107452683769,-111.9834543692013Z" fill-rule="evenodd" style="fill: #DB3F29; stroke: #fff; opacity: 1;" id="p-type-functions"></path><path d="M150.48078976091296,-127.13981246223352A197,197,0,0,1,152.3076036088108,-124.94556367851305L131.9022539147606,-108.20603223575856A170.6070045455344,170.6070045455344,0,0,0,130.32018671449586,-110.10630742468359Z" fill-rule="evenodd" style="fill: #DB3F29; stroke: #fff; opacity: 1;" id="p-type-functions"></path><path d="M152.3076036088108,-124.94556367851305A197,197,0,0,1,154.10242467115663,-122.72506960874169L133.45661454999944,-106.28302796238387A170.6070045455344,170.6070045455344,0,0,0,131.9022539147606,-108.20603223575856Z" fill-rule="evenodd" style="fill: #DB3F29; stroke: #fff; opacity: 1;" id="p-type-functions"></path><path d="M154.10242467115663,-122.72506960874169A197,197,0,0,1,155.8648759390291,-120.4787966760586L134.98294212090912,-104.33769853884692A170.6070045455344,170.6070045455344,0,0,0,133.45661454999944,-106.28302796238387Z" fill-rule="evenodd" style="fill: #DB3F29; stroke: #fff; opacity: 1;" id="p-type-functions"></path><path d="M194.6260150641746,30.491216116115883A197,197,0,0,1,194.1636694442953,33.30869958323836L168.15067023076412,28.84618000610856A170.6070045455344,170.6070045455344,0,0,0,168.55107328290805,26.406167748837838Z" fill-rule="evenodd" style="fill: #1DC690; stroke: #fff; opacity: 1;" id="p-type-logs"></path><path d="M194.1636694442953,33.30869958323836A197,197,0,0,1,193.66053901465384,36.1191864326114L167.71494649727762,31.280133014667708A170.6070045455344,170.6070045455344,0,0,0,168.15067023076412,28.84618000610856Z" fill-rule="evenodd" style="fill: #1DC690; stroke: #fff; opacity: 1;" id="p-type-logs"></path><path d="M193.66053901465384,36.1191864326114A197,197,0,0,1,193.1167294596911,38.922086310891274L167.24399360785918,33.70751551352239A170.6070045455344,170.6070045455344,0,0,0,167.71494649727762,31.280133014667708Z" fill-rule="evenodd" style="fill: #1DC690; stroke: #fff; opacity: 1;" id="p-type-logs"></path><path d="M193.1167294596911,38.922086310891274A197,197,0,0,1,192.53235500865154,41.71681045840605L166.73791048793632,36.127817621839995A170.6070045455344,170.6070045455344,0,0,0,167.24399360785918,33.70751551352239Z" fill-rule="evenodd" style="fill: #1DC690; stroke: #fff; opacity: 1;" id="p-type-logs"></path><path d="M192.53235500865154,41.71681045840605A197,197,0,0,1,191.9075384115886,44.50277183282687L166.1968034421737,38.54053094605063A170.6070045455344,170.6070045455344,0,0,0,166.73791048793632,36.127817621839995Z" fill-rule="evenodd" style="fill: #1DC690; stroke: #fff; opacity: 1;" id="p-type-logs"></path><path d="M191.9075384115886,44.50277183282687A197,197,0,0,1,191.24241091358087,47.279385232478326L165.6207861321434,40.94514868663707A170.6070045455344,170.6070045455344,0,0,0,166.1968034421737,38.54053094605063Z" fill-rule="evenodd" style="fill: #1DC690; stroke: #fff; opacity: 1;" id="p-type-logs"></path><path d="M191.24241091358087,47.279385232478326A197,197,0,0,1,190.53711222716336,50.04606741926231L165.00997955245006,43.34116574458988A170.6070045455344,170.6070045455344,0,0,0,165.6207861321434,40.94514868663707Z" fill-rule="evenodd" style="fill: #1DC690; stroke: #fff; opacity: 1;" id="p-type-logs"></path><path d="M190.53711222716336,50.04606741926231A197,197,0,0,1,189.79179050298058,52.80223724116937L164.36451200531533,45.72807882750543A170.6070045455344,170.6070045455344,0,0,0,165.00997955245006,43.34116574458988Z" fill-rule="evenodd" style="fill: #1DC690; stroke: #fff; opacity: 1;" id="p-type-logs"></path><path d="M189.79179050298058,52.80223724116937A197,197,0,0,1,189.00660229866662,55.547315754351885L163.68451907362757,48.1053865553043A170.6070045455344,170.6070045455344,0,0,0,164.36451200531533,45.72807882750543Z" fill-rule="evenodd" style="fill: #1DC690; stroke: #fff; opacity: 1;" id="p-type-logs"></path><path d="M189.00660229866662,55.547315754351885A197,197,0,0,1,188.18171254595995,58.28072634473335L162.97014359246214,50.47258956554807A170.6070045455344,170.6070045455344,0,0,0,163.68451907362757,48.1053865553043Z" fill-rule="evenodd" style="fill: #1DC690; stroke: #fff; opacity: 1;" id="p-type-logs"></path><path d="M188.18171254595995,58.28072634473335A197,197,0,0,1,187.31729451605872,61.00189484912842L162.22153561907837,52.829190618332305A170.6070045455344,170.6070045455344,0,0,0,162.97014359246214,50.47258956554807Z" fill-rule="evenodd" style="fill: #1DC690; stroke: #fff; opacity: 1;" id="p-type-logs"></path><path d="M187.31729451605872,61.00189484912842A197,197,0,0,1,186.41352978322448,63.71024967584797L161.43885240139943,55.17469470073364A170.6070045455344,170.6070045455344,0,0,0,162.22153561907837,52.829190618332305Z" fill-rule="evenodd" style="fill: #1DC690; stroke: #fff; opacity: 1;" id="p-type-logs"></path><path d="M186.41352978322448,63.71024967584797A197,197,0,0,1,185.47060818664187,66.40522192476412L160.62225834498193,57.508609130789104A170.6070045455344,170.6070045455344,0,0,0,161.43885240139943,55.17469470073364Z" fill-rule="evenodd" style="fill: #1DC690; stroke: #fff; opacity: 1;" id="p-type-logs"></path><path d="M185.47060818664187,66.40522192476412A197,197,0,0,1,184.48872779054227,69.08624550680985L159.77192497848174,59.83044366098585A170.6070045455344,170.6070045455344,0,0,0,160.62225834498193,57.508609130789104Z" fill-rule="evenodd" style="fill: #1DC690; stroke: #fff; opacity: 1;" id="p-type-logs"></path><path d="M184.48872779054227,69.08624550680985A197,197,0,0,1,183.46809484259944,71.75275726288811L158.88803091762387,62.139710581239484A170.6070045455344,170.6070045455344,0,0,0,159.77192497848174,59.83044366098585Z" fill-rule="evenodd" style="fill: #1DC690; stroke: #fff; opacity: 1;" id="p-type-logs"></path><path d="M183.46809484259944,71.75275726288811A197,197,0,0,1,182.40892373060663,74.40419708216555L157.97076182768348,64.43592482133937A170.6070045455344,170.6070045455344,0,0,0,158.88803091762387,62.139710581239484Z" fill-rule="evenodd" style="fill: #1DC690; stroke: #fff; opacity: 1;" id="p-type-logs"></path><path d="M182.40892373060663,74.40419708216555A197,197,0,0,1,181.31143693744355,77.04000801972589L157.02031038448632,66.7186040528395A170.6070045455344,170.6070045455344,0,0,0,157.97076182768348,64.43592482133937Z" fill-rule="evenodd" style="fill: #1DC690; stroke: #fff; opacity: 1;" id="p-type-logs"></path><path d="M181.31143693744355,77.04000801972589A197,197,0,0,1,180.17586499434296,79.65963641355826L156.03687623393637,68.98726879037336A170.6070045455344,170.6070045455344,0,0,0,157.02031038448632,66.7186040528395Z" fill-rule="evenodd" style="fill: #1DC690; stroke: #fff; opacity: 1;" id="p-type-logs"></path><path d="M180.17586499434296,79.65963641355826A197,197,0,0,1,179.00244643246677,82.26253200085607L155.02066595007938,71.24144249237168A170.6070045455344,170.6070045455344,0,0,0,156.03687623393637,68.98726879037336Z" fill-rule="evenodd" style="fill: #1DC690; stroke: #fff; opacity: 1;" id="p-type-logs"></path><path d="M179.00244643246677,82.26253200085607A197,197,0,0,1,177.7914277328016,84.84814803360172L153.97189299171134,73.48065166116174A170.6070045455344,170.6070045455344,0,0,0,155.02066595007938,71.24144249237168Z" fill-rule="evenodd" style="fill: #1DC690; stroke: #fff; opacity: 1;" id="p-type-logs"></path><path d="M177.7914277328016,84.84814803360172A197,197,0,0,1,176.54306327438462,87.41594139341308L152.89077765754064,75.70442594242738A170.6070045455344,170.6070045455344,0,0,0,153.97189299171134,73.48065166116174Z" fill-rule="evenodd" style="fill: #1DC690; stroke: #fff; opacity: 1;" id="p-type-logs"></path><path d="M176.54306327438462,87.41594139341308A197,197,0,0,1,175.25761528087023,89.9653727056276L151.77754703991343,77.91229822400865A170.6070045455344,170.6070045455344,0,0,0,152.89077765754064,75.70442594242738Z" fill-rule="evenodd" style="fill: #1DC690; stroke: #fff; opacity: 1;" id="p-type-logs"></path><path d="M175.25761528087023,89.9653727056276A197,197,0,0,1,173.93535376544895,92.49590645259994L150.63243497711213,80.10380473402053A170.6070045455344,170.6070045455344,0,0,0,151.77754703991343,77.91229822400865Z" fill-rule="evenodd" style="fill: #1DC690; stroke: #fff; opacity: 1;" id="p-type-logs"></path><path d="M173.93535376544895,92.49590645259994A197,197,0,0,1,172.57655647413023,95.00701108618951L149.45568200423662,82.2784851382699A170.6070045455344,170.6070045455344,0,0,0,150.63243497711213,80.10380473402053Z" fill-rule="evenodd" style="fill: #1DC690; stroke: #fff; opacity: 1;" id="p-type-logs"></path><path d="M172.57655647413023,95.00701108618951A197,197,0,0,1,171.18150882740076,97.49815913941408L148.24753530267918,84.43588263695054A170.6070045455344,170.6070045455344,0,0,0,149.45568200423662,82.2784851382699Z" fill-rule="evenodd" style="fill: #1DC690; stroke: #fff; opacity: 1;" id="p-type-logs"></path><path d="M171.18150882740076,97.49815913941408A197,197,0,0,1,169.75050386027087,99.96882733724631L147.008248648203,86.57554406059556A170.6070045455344,170.6070045455344,0,0,0,148.24753530267918,84.43588263695054Z" fill-rule="evenodd" style="fill: #1DC690; stroke: #fff; opacity: 1;" id="p-type-logs"></path><path d="M169.75050386027087,99.96882733724631A197,197,0,0,1,168.2838421607214,102.4184967065296L145.73808235763548,88.69701996526749A170.6070045455344,170.6070045455344,0,0,0,147.008248648203,86.57554406059556Z" fill-rule="evenodd" style="fill: #1DC690; stroke: #fff; opacity: 1;" id="p-type-logs"></path><path d="M168.2838421607214,102.4184967065296A197,197,0,0,1,166.78183180656407,104.84665268499025L144.43730323418797,90.79986472696548A170.6070045455344,170.6070045455344,0,0,0,145.73808235763548,88.69701996526749Z" fill-rule="evenodd" style="fill: #1DC690; stroke: #fff; opacity: 1;" id="p-type-logs"></path><path d="M166.78183180656407,104.84665268499025A197,197,0,0,1,165.24478830072863,107.25278522932341L143.1061845114126,92.88363663523049A170.6070045455344,170.6070045455344,0,0,0,144.43730323418797,90.79986472696548Z" fill-rule="evenodd" style="fill: #1DC690; stroke: #fff; opacity: 1;" id="p-type-logs"></path><path d="M165.24478830072863,107.25278522932341A197,197,0,0,1,163.67303450499023,109.63638892232943L141.74500579580854,94.9478979859281A170.6070045455344,170.6070045455344,0,0,0,143.1061845114126,92.88363663523049Z" fill-rule="evenodd" style="fill: #1DC690; stroke: #fff; opacity: 1;" id="p-type-logs"></path><path d="M163.67303450499023,109.63638892232943A197,197,0,0,1,162.066900572151,111.9969630790787L140.35405300808955,96.99221517318999A170.6070045455344,170.6070045455344,0,0,0,141.74500579580854,94.9478979859281Z" fill-rule="evenodd" style="fill: #1DC690; stroke: #fff; opacity: 1;" id="p-type-logs"></path><path d="M162.066900572151,111.9969630790787A197,197,0,0,1,160.42672387669046,114.3340118520824L138.9336183231255,99.01615878049445A170.6070045455344,170.6070045455344,0,0,0,140.35405300808955,96.99221517318999Z" fill-rule="evenodd" style="fill: #1DC690; stroke: #fff; opacity: 1;" id="p-type-logs"></path><path d="M160.42672387669046,114.3340118520824A197,197,0,0,1,158.75284894389844,116.64704433544715L137.48400010856963,101.01930367086693A170.6070045455344,170.6070045455344,0,0,0,138.9336183231255,99.01615878049445Z" fill-rule="evenodd" style="fill: #1DC690; stroke: #fff; opacity: 1;" id="p-type-logs"></path><path d="M158.75284894389844,116.64704433544715A197,197,0,0,1,157.04562737750643,118.9355746679916L136.0055028621855,103.00122907618167A170.6070045455344,170.6070045455344,0,0,0,137.48400010856963,101.01930367086693Z" fill-rule="evenodd" style="fill: #1DC690; stroke: #fff; opacity: 1;" id="p-type-logs"></path><path d="M157.04562737750643,118.9355746679916A197,197,0,0,1,155.30541778583188,121.19912213530348L134.498437147886,104.96151868554568A170.6070045455344,170.6070045455344,0,0,0,136.0055028621855,103.00122907618167Z" fill-rule="evenodd" style="fill: #1DC690; stroke: #fff; opacity: 1;" id="p-type-logs"></path><path d="M155.30541778583188,121.19912213530348A197,197,0,0,1,153.5325857064512,123.43721127071538L132.96311953049832,106.89976073274634A170.6070045455344,170.6070045455344,0,0,0,134.498437147886,104.96151868554568Z" fill-rule="evenodd" style="fill: #1DC690; stroke: #fff; opacity: 1;" id="p-type-logs"></path><path d="M153.5325857064512,123.43721127071538A197,197,0,0,1,151.727503529417,125.64937195517832L131.3998725092682,108.81554808274443A170.6070045455344,170.6070045455344,0,0,0,132.96311953049832,106.89976073274634Z" fill-rule="evenodd" style="fill: #1DC690; stroke: #fff; opacity: 1;" id="p-type-logs"></path><path d="M151.727503529417,125.64937195517832A197,197,0,0,1,149.8905504190365,127.83513951601212L129.80902445011782,110.70847831719445A170.6070045455344,170.6070045455344,0,0,0,131.3998725092682,108.81554808274443Z" fill-rule="evenodd" style="fill: #1DC690; stroke: #fff; opacity: 1;" id="p-type-logs"></path><path d="M149.8905504190365,127.83513951601212A197,197,0,0,1,148.02211223422626,129.99405482451158L128.1909095166713,112.57815381897409A170.6070045455344,170.6070045455344,0,0,0,129.80902445011782,110.70847831719445Z" fill-rule="evenodd" style="fill: #1DC690; stroke: #fff; opacity: 1;" id="p-type-logs"></path><path d="M148.02211223422626,129.99405482451158A197,197,0,0,1,146.12258144746153,132.1256643923881L126.54586760006238,114.42418185570514A170.6070045455344,170.6070045455344,0,0,0,128.1909095166713,112.57815381897409Z" fill-rule="evenodd" style="fill: #1DC690; stroke: #fff; opacity: 1;" id="p-type-logs"></path><path d="M146.12258144746153,132.1256643923881A197,197,0,0,1,144.19235706233536,134.22952046702687L124.87424424753893,116.24617466224852A170.6070045455344,170.6070045455344,0,0,0,126.54586760006238,114.42418185570514Z" fill-rule="evenodd" style="fill: #1DC690; stroke: #fff; opacity: 1;" id="p-type-logs"></path><path d="M144.19235706233536,134.22952046702687A197,197,0,0,1,142.2318445297469,136.30518112553867L123.17639058987955,118.04374952215568A170.6070045455344,170.6070045455344,0,0,0,124.87424424753893,116.24617466224852Z" fill-rule="evenodd" style="fill: #1DC690; stroke: #fff; opacity: 1;" id="p-type-logs"></path><path d="M142.2318445297469,136.30518112553867A197,197,0,0,1,140.24145566273464,138.35221036758767L121.45266326763722,119.8165288480597A170.6070045455344,170.6070045455344,0,0,0,123.17639058987955,118.04374952215568Z" fill-rule="evenodd" style="fill: #1DC690; stroke: #fff; opacity: 1;" id="p-type-logs"></path><path d="M140.24145566273464,138.35221036758767A197,197,0,0,1,138.22160854997358,140.37017820697483L119.70342435622548,121.56414026098898A170.6070045455344,170.6070045455344,0,0,0,121.45266326763722,119.8165288480597Z" fill-rule="evenodd" style="fill: #1DC690; stroke: #fff; opacity: 1;" id="p-type-logs"></path><path d="M138.22160854997358,140.37017820697483A197,197,0,0,1,136.17272746795416,142.35866076195813L117.92904128986333,123.28621666858672A170.6070045455344,170.6070045455344,0,0,0,119.70342435622548,121.56414026098898Z" fill-rule="evenodd" style="fill: #1DC690; stroke: #fff; opacity: 1;" id="p-type-logs"></path><path d="M21.82047383386001,195.78781096295506A197,197,0,0,1,18.980658498010673,196.08348885865402L16.437732439834228,169.8132826142773A170.6070045455344,170.6070045455344,0,0,0,18.89708466273639,169.5572180452645Z" fill-rule="evenodd" style="fill: #D7A449; stroke: #fff; opacity: 1;" id="p-type-tokenTransfers"></path><path d="M18.980658498010673,196.08348885865402A197,197,0,0,1,16.136856203384657,196.33797867929496L13.97492740934762,170.03367726395692A170.6070045455344,170.6070045455344,0,0,0,16.437732439834228,169.8132826142773Z" fill-rule="evenodd" style="fill: #D7A449; stroke: #fff; opacity: 1;" id="p-type-tokenTransfers"></path><path d="M16.136856203384657,196.33797867929496A197,197,0,0,1,13.28966430136042,196.551226968333L11.509186892745296,170.21835569957742A170.6070045455344,170.6070045455344,0,0,0,13.97492740934762,170.03367726395692Z" fill-rule="evenodd" style="fill: #D7A449; stroke: #fff; opacity: 1;" id="p-type-tokenTransfers"></path><path d="M13.28966430136042,196.551226968333A197,197,0,0,1,10.439680855316201,196.7231889321621L9.041028828105887,170.3672791287381A170.6070045455344,170.6070045455344,0,0,0,11.509186892745296,170.21835569957742Z" fill-rule="evenodd" style="fill: #D7A449; stroke: #fff; opacity: 1;" id="p-type-tokenTransfers"></path><path d="M10.439680855316201,196.7231889321621A197,197,0,0,1,7.58750451500458,196.8538284495244L6.570971661323093,170.48041626951198A170.6070045455344,170.6070045455344,0,0,0,9.041028828105887,170.3672791287381Z" fill-rule="evenodd" style="fill: #D7A449; stroke: #fff; opacity: 1;" id="p-type-tokenTransfers"></path><path d="M7.58750451500458,196.8538284495244A197,197,0,0,1,4.733734390803833,196.94311807909747L4.099534237204173,170.55774335701676A170.6070045455344,170.6070045455344,0,0,0,6.570971661323093,170.48041626951198Z" fill-rule="evenodd" style="fill: #D7A449; stroke: #fff; opacity: 1;" id="p-type-tokenTransfers"></path><path d="M4.733734390803833,196.94311807909747A197,197,0,0,1,1.8789699278725378,196.99103906525838L1.627235690484632,170.5992441484065A170.6070045455344,170.6070045455344,0,0,0,4.099534237204173,170.55774335701676Z" fill-rule="evenodd" style="fill: #D7A449; stroke: #fff; opacity: 1;" id="p-type-tokenTransfers"></path><path d="M1.8789699278725378,196.99103906525838A197,197,0,0,1,-0.9761892197661308,196.9975813420236L-0.8454046632179795,170.6049099262838A170.6070045455344,170.6070045455344,0,0,0,1.627235690484632,170.5992441484065Z" fill-rule="evenodd" style="fill: #D7A449; stroke: #fff; opacity: 1;" id="p-type-tokenTransfers"></path><path d="M-0.9761892197661308,196.9975813420236A197,197,0,0,1,-3.83114331518399,196.96274353516333L-3.3178674364882674,170.57473950053065A170.6070045455344,170.6070045455344,0,0,0,-0.8454046632179795,170.6049099262838Z" fill-rule="evenodd" style="fill: #D7A449; stroke: #fff; opacity: 1;" id="p-type-tokenTransfers"></path><path d="M-3.83114331518399,196.96274353516333A197,197,0,0,1,-6.685292664524848,196.88653296248995L-5.789633279212277,170.50873920855855A170.6070045455344,170.6070045455344,0,0,0,-3.3178674364882674,170.57473950053065Z" fill-rule="evenodd" style="fill: #D7A449; stroke: #fff; opacity: 1;" id="p-type-tokenTransfers"></path><path d="M-6.685292664524848,196.88653296248995A197,197,0,0,1,-9.538037742972454,196.76896563232128L-8.260182987668935,170.40692291397735A170.6070045455344,170.6070045455344,0,0,0,-5.789633279212277,170.50873920855855Z" fill-rule="evenodd" style="fill: #D7A449; stroke: #fff; opacity: 1;" id="p-type-tokenTransfers"></path><path d="M-9.538037742972454,196.76896563232128A197,197,0,0,1,-12.388779320682952,196.61006624011756L-10.728997613590757,170.26931200368304A170.6070045455344,170.6070045455344,0,0,0,-8.260182987668935,170.40692291397735Z" fill-rule="evenodd" style="fill: #D7A449; stroke: #fff; opacity: 1;" id="p-type-tokenTransfers"></path><path d="M-12.388779320682952,196.61006624011756A197,197,0,0,1,-15.236918588655351,196.4098681632944L-13.195558573170869,170.0959353833654A170.6070045455344,170.6070045455344,0,0,0,-10.728997613590757,170.26931200368304Z" fill-rule="evenodd" style="fill: #D7A449; stroke: #fff; opacity: 1;" id="p-type-tokenTransfers"></path><path d="M-15.236918588655351,196.4098681632944A197,197,0,0,1,-18.081857284513617,196.16841345421153L-15.6593477559935,169.88682947143624A170.6070045455344,170.6070045455344,0,0,0,-13.195558573170869,170.0959353833654Z" fill-rule="evenodd" style="fill: #D7A449; stroke: #fff; opacity: 1;" id="p-type-tokenTransfers"></path><path d="M-18.081857284513617,196.16841345421153A197,197,0,0,1,-20.922997818173954,195.88575283133966L-18.119847633865025,169.64203819137967A170.6070045455344,170.6070045455344,0,0,0,-15.6593477559935,169.88682947143624Z" fill-rule="evenodd" style="fill: #D7A449; stroke: #fff; opacity: 1;" id="p-type-tokenTransfers"></path><path d="M-20.922997818173954,195.88575283133966A197,197,0,0,1,-23.75974339737081,195.56194566860674L-20.576541369522705,169.36161296252558A170.6070045455344,170.6070045455344,0,0,0,-18.119847633865025,169.64203819137967Z" fill-rule="evenodd" style="fill: #D7A449; stroke: #fff; opacity: 1;" id="p-type-tokenTransfers"></path><path d="M-23.75974339737081,195.56194566860674A197,197,0,0,1,-26.591498153015383,195.19705998292642L-23.0289129251983,169.04561268924914A170.6070045455344,170.6070045455344,0,0,0,-20.576541369522705,169.36161296252558Z" fill-rule="evenodd" style="fill: #D7A449; stroke: #fff; opacity: 1;" id="p-type-tokenTransfers"></path><path d="M-26.591498153015383,195.19705998292642A197,197,0,0,1,-29.417667264360137,194.79117241991074L-25.47644717101375,168.6941037485974A170.6070045455344,170.6070045455344,0,0,0,-23.0289129251983,169.04561268924914Z" fill-rule="evenodd" style="fill: #D7A449; stroke: #fff; opacity: 1;" id="p-type-tokenTransfers"></path><path d="M-29.417667264360137,194.79117241991074A197,197,0,0,1,-32.23765708394317,194.34436823777037L-27.918629993186148,168.30715997634672A170.6070045455344,170.6070045455344,0,0,0,-25.47644717101375,168.6941037485974Z" fill-rule="evenodd" style="fill: #D7A449; stroke: #fff; opacity: 1;" id="p-type-tokenTransfers"></path><path d="M-32.23765708394317,194.34436823777037A197,197,0,0,1,-35.05087526228605,193.85674128940593L-30.354948402019264,167.88486265149322A170.6070045455344,170.6070045455344,0,0,0,-27.918629993186148,168.30715997634672Z" fill-rule="evenodd" style="fill: #D7A449; stroke: #fff; opacity: 1;" id="p-type-tokenTransfers"></path><path d="M-35.05087526228605,193.85674128940593A197,197,0,0,1,-37.8567308723191,193.32839400269378L-32.78489063965897,167.42730047917993A170.6070045455344,170.6070045455344,0,0,0,-30.354948402019264,167.88486265149322Z" fill-rule="evenodd" style="fill: #D7A449; stroke: #fff; opacity: 1;" id="p-type-tokenTransfers"></path><path d="M-37.8567308723191,193.32839400269378A197,197,0,0,1,-40.654634533507824,192.75943735897062L-35.2079462875899,166.9345695720637A170.6070045455344,170.6070045455344,0,0,0,-32.78489063965897,167.42730047917993Z" fill-rule="evenodd" style="fill: #D7A449; stroke: #fff; opacity: 1;" id="p-type-tokenTransfers"></path><path d="M-40.654634533507824,192.75943735897062A197,197,0,0,1,-43.44399853565454,192.14999086972148L-37.623606373850784,166.40677343012672A170.6070045455344,170.6070045455344,0,0,0,-35.2079462875899,166.9345695720637Z" fill-rule="evenodd" style="fill: #D7A449; stroke: #fff; opacity: 1;" id="p-type-tokenTransfers"></path><path d="M-43.44399853565454,192.14999086972148A197,197,0,0,1,-46.22423696234909,191.50018255147592L-40.03136347994594,165.84402291893562A170.6070045455344,170.6070045455344,0,0,0,-37.623606373850784,166.40677343012672Z" fill-rule="evenodd" style="fill: #D7A449; stroke: #fff; opacity: 1;" id="p-type-tokenTransfers"></path><path d="M-46.22423696234909,191.50018255147592A197,197,0,0,1,-48.99476581404276,190.81014889891762L-42.43071184743039,165.24643624635397A170.6070045455344,170.6070045455344,0,0,0,-40.03136347994594,165.84402291893562Z" fill-rule="evenodd" style="fill: #D7A449; stroke: #fff; opacity: 1;" id="p-type-tokenTransfers"></path><path d="M-48.99476581404276,190.81014889891762A197,197,0,0,1,-51.75500313071967,190.08003485621313L-44.82114748414639,164.61413893771214A170.6070045455344,170.6070045455344,0,0,0,-42.43071184743039,165.24643624635397Z" fill-rule="evenodd" style="fill: #D7A449; stroke: #fff; opacity: 1;" id="p-type-tokenTransfers"></path><path d="M-51.75500313071967,190.08003485621313A197,197,0,0,1,-54.5043691141396,189.3099937865659L-47.20216827008883,163.9472638094403A170.6070045455344,170.6070045455344,0,0,0,-44.82114748414639,164.61413893771214Z" fill-rule="evenodd" style="fill: #D7A449; stroke: #fff; opacity: 1;" id="p-type-tokenTransfers"></path><path d="M-54.5043691141396,189.3099937865659A197,197,0,0,1,-57.2422862496268,188.50018744000172L-49.573274062877466,163.24595094116987A170.6070045455344,170.6070045455344,0,0,0,-47.20216827008883,163.9472638094403Z" fill-rule="evenodd" style="fill: #D7A449; stroke: #fff; opacity: 1;" id="p-type-tokenTransfers"></path><path d="M-57.2422862496268,188.50018744000172A197,197,0,0,1,-59.968179427379134,187.65078591939246L-51.93396680281368,162.5103476463091A170.6070045455344,170.6070045455344,0,0,0,-49.573274062877466,163.24595094116987Z" fill-rule="evenodd" style="fill: #D7A449; stroke: #fff; opacity: 1;" id="p-type-tokenTransfers"></path><path d="M-59.968179427379134,187.65078591939246A197,197,0,0,1,-62.68147606327205,186.7619676447254L-54.283750617499805,161.74060844109957A170.6070045455344,170.6070045455344,0,0,0,-51.93396680281368,162.5103476463091Z" fill-rule="evenodd" style="fill: #D7A449; stroke: #fff; opacity: 1;" id="p-type-tokenTransfers"></path><path d="M-62.68147606327205,186.7619676447254A197,197,0,0,1,-65.38160621913207,185.83391931562534L-56.622131925999014,160.93689501215923A170.6070045455344,170.6070045455344,0,0,0,-54.283750617499805,161.74060844109957Z" fill-rule="evenodd" style="fill: #D7A449; stroke: #fff; opacity: 1;" id="p-type-tokenTransfers"></path><path d="M-65.38160621913207,185.83391931562534A197,197,0,0,1,-68.06800272245438,184.8668358721378L-58.948619542513825,160.0993761825197A170.6070045455344,170.6070045455344,0,0,0,-56.622131925999014,160.93689501215923Z" fill-rule="evenodd" style="fill: #D7A449; stroke: #fff; opacity: 1;" id="p-type-tokenTransfers"></path><path d="M-68.06800272245438,184.8668358721378A197,197,0,0,1,-70.74010128553961,183.86092045378103L-61.26272477956153,159.22822787616425A170.6070045455344,170.6070045455344,0,0,0,-58.948619542513825,160.0993761825197Z" fill-rule="evenodd" style="fill: #D7A449; stroke: #fff; opacity: 1;" id="p-type-tokenTransfers"></path><path d="M-70.74010128553961,183.86092045378103A197,197,0,0,1,-73.39734062402455,182.81638435687574L-63.563961550624846,158.32363308107443A170.6070045455344,170.6070045455344,0,0,0,-61.26272477956153,159.22822787616425Z" fill-rule="evenodd" style="fill: #D7A449; stroke: #fff; opacity: 1;" id="p-type-tokenTransfers"></path><path d="M-151.15009041379943,126.34338197111974A197,197,0,0,1,-169.2577852481202,100.80080422745262L-146.58154181316308,87.2960571828758A170.6070045455344,170.6070045455344,0,0,0,-130.89981808266504,109.41657838703054Z" fill-rule="evenodd" style="fill: #414552; stroke: #fff; opacity: 1;" id="p-type-ether"></path><path d="M-169.2577852481202,100.80080422745262A197,197,0,0,1,-171.91453864989236,96.19974740504608L-148.8823577506885,83.31142509041604A170.6070045455344,170.6070045455344,0,0,0,-146.58154181316308,87.2960571828758Z" fill-rule="evenodd" style="fill: #414552; stroke: #fff; opacity: 1;" id="p-type-ether"></path><path d="M-171.91453864989236,96.19974740504608A197,197,0,0,1,-173.4634399915719,93.37791487439804L-150.2237456605388,80.86764643364951A170.6070045455344,170.6070045455344,0,0,0,-148.8823577506885,83.31142509041604Z" fill-rule="evenodd" style="fill: #414552; stroke: #fff; opacity: 1;" id="p-type-ether"></path><path d="M-173.4634399915719,93.37791487439804A197,197,0,0,1,-174.13127542046095,92.12653754724296L-150.80210810750398,79.78392187861333A170.6070045455344,170.6070045455344,0,0,0,-150.2237456605388,80.86764643364951Z" fill-rule="evenodd" style="fill: #414552; stroke: #fff; opacity: 1;" id="p-type-ether"></path><path d="M-174.13127542046095,92.12653754724296A197,197,0,0,1,-174.66460129009334,91.1113442781563L-151.26398185910105,78.9047387178333A170.6070045455344,170.6070045455344,0,0,0,-150.80210810750398,79.78392187861333Z" fill-rule="evenodd" style="fill: #414552; stroke: #fff; opacity: 1;" id="p-type-ether"></path></g></svg>