<svg xmlns="http://www.w3.org/2000/svg" width="400" height="400" id="block-7907897"><g id="burst-container" transform="translate(200,200)"><circle r="197" style="fill: #f9f9f9; stroke: #f9f9f9; stroke-width: 3; opacity: 1;" id="circle-base"></circle><path display="none" d="M6.031385485800715e-15,-98.5A98.5,98.5,0,1,1,-6.031385485800715e-15,98.5A98.5,98.5,0,1,1,6.031385485800715e-15,-98.5Z" fill-rule="evenodd" id="p-type-root" style="stroke: #fff; opacity: 1;"></path><path d="M8.529667153919608e-15,-139.30003589374985A139.30003589374985,139.30003589374985,0,1,1,-103.90086684300965,-92.78528907790918L-73.46900751585264,-65.6091071013437A98.5,98.5,0,1,0,6.031385485800715e-15,-98.5Z" fill-rule="evenodd" style="fill: #0B1F65; stroke: #fff; opacity: 1;" id="p-type-data"></path><path d="M-103.90086684300965,-92.78528907790918A139.30003589374985,139.30003589374985,0,0,1,-2.8600446163667432,-139.27067223501288L-2.0223569427290022,-98.47923675778665A98.5,98.5,0,0,0,-73.46900751585264,-65.6091071013437Z" fill-rule="evenodd" style="fill: #D7A449; stroke: #fff; opacity: 1;" id="p-type-value"></path><path d="M1.0446666101440332e-14,-170.6070045455344A170.6070045455344,170.6070045455344,0,0,1,168.69580107430292,25.465205671645744L137.73954479403213,20.792253363520086A139.30003589374985,139.30003589374985,0,0,0,8.529667153919608e-15,-139.30003589374985Z" fill-rule="evenodd" style="fill: #DB3F29; stroke: #fff; opacity: 1;" id="p-type-functions"></path><path d="M168.69580107430292,25.465205671645744A170.6070045455344,170.6070045455344,0,0,1,45.69151510633766,164.37468006748276L37.306965861732245,134.2113642661885A139.30003589374985,139.30003589374985,0,0,0,137.73954479403213,20.792253363520086Z" fill-rule="evenodd" style="fill: #1DC690; stroke: #fff; opacity: 1;" id="p-type-logs"></path><path d="M45.69151510633766,164.37468006748276A170.6070045455344,170.6070045455344,0,0,1,-85.30915338132696,147.74673718685375L-69.65463205769241,120.63470575629339A139.30003589374985,139.30003589374985,0,0,0,37.306965861732245,134.2113642661885Z" fill-rule="evenodd" style="fill: #414552; stroke: #fff; opacity: 1;" id="p-type-ether"></path><path d="M-85.30915338132696,147.74673718685375A170.6070045455344,170.6070045455344,0,0,1,-164.56608108504082,44.9972772099798L-134.36764254261075,36.74012299300559A139.30003589374985,139.30003589374985,0,0,0,-69.65463205769241,120.63470575629339Z" fill-rule="evenodd" style="fill: #D7A449; stroke: #fff; opacity: 1;" id="p-type-tokenTransfers"></path><path d="M-127.25205379911648,-113.6383069387553A170.6070045455344,170.6070045455344,0,0,1,-71.30598606419612,-154.99098796837404L-58.221093821096204,-126.54961175078773A139.30003589374985,139.30003589374985,0,0,0,-103.90086684300965,-92.78528907790918Z" fill-rule="evenodd" style="fill: #414552; stroke: #fff; opacity: 1;" id="p-type-ether"></path><path d="M-71.30598606419612,-154.99098796837404A170.6070045455344,170.6070045455344,0,0,1,-7.004173200354243,-170.4631677453503L-5.7188834703148475,-139.18259363818794A139.30003589374985,139.30003589374985,0,0,0,-58.221093821096204,-126.54961175078773Z" fill-rule="evenodd" style="fill: #D7A449; stroke: #fff; opacity: 1;" id="p-type-tokenTransfers"></path><path d="M1.206277097160143e-14,-197A197,197,0,0,1,30.817143085191127,-194.5746738197622L26.688428783835466,-168.506610460985A170.6070045455344,170.6070045455344,0,0,0,1.0446666101440332e-14,-170.6070045455344Z" fill-rule="evenodd" style="fill: #DB3F29; stroke: #fff; opacity: 1;" id="p-type-functions"></path><path d="M30.817143085191127,-194.5746738197622A197,197,0,0,1,37.56345332383336,-193.38559143428495L32.530904832310696,-167.4768349079691A170.6070045455344,170.6070045455344,0,0,0,26.688428783835466,-168.506610460985Z" fill-rule="evenodd" style="fill: #DB3F29; stroke: #fff; opacity: 1;" id="p-type-functions"></path><path d="M37.56345332383336,-193.38559143428495A197,197,0,0,1,42.875132943717695,-192.2777235538702L37.130954319894606,-166.51739317949313A170.6070045455344,170.6070045455344,0,0,0,32.530904832310696,-167.4768349079691Z" fill-rule="evenodd" style="fill: #DB3F29; stroke: #fff; opacity: 1;" id="p-type-functions"></path><path d="M42.875132943717695,-192.2777235538702A197,197,0,0,1,44.84685658702931,-191.82742101759703L38.83851708424487,-166.12741974369197A170.6070045455344,170.6070045455344,0,0,0,37.130954319894606,-166.51739317949313Z" fill-rule="evenodd" style="fill: #DB3F29; stroke: #fff; opacity: 1;" id="p-type-functions"></path><path d="M44.84685658702931,-191.82742101759703A197,197,0,0,1,46.81385337408359,-191.35689988152976L40.54198627099625,-165.7199364868402A170.6070045455344,170.6070045455344,0,0,0,38.83851708424487,-166.12741974369197Z" fill-rule="evenodd" style="fill: #DB3F29; stroke: #fff; opacity: 1;" id="p-type-functions"></path><path d="M46.81385337408359,-191.35689988152976A197,197,0,0,1,48.77591598352568,-190.86620973857066L42.24118233458868,-165.294986357651A170.6070045455344,170.6070045455344,0,0,0,40.54198627099625,-165.7199364868402Z" fill-rule="evenodd" style="fill: #DB3F29; stroke: #fff; opacity: 1;" id="p-type-functions"></path><path d="M48.77591598352568,-190.86620973857066A197,197,0,0,1,50.73283761406276,-190.35540230743422L43.935926179849055,-164.852614145845A170.6070045455344,170.6070045455344,0,0,0,42.24118233458868,-165.294986357651Z" fill-rule="evenodd" style="fill: #DB3F29; stroke: #fff; opacity: 1;" id="p-type-functions"></path><path d="M50.73283761406276,-190.35540230743422A197,197,0,0,1,52.684412006260786,-189.8245314271961L45.62603918086772,-164.39286647742935A170.6070045455344,170.6070045455344,0,0,0,43.935926179849055,-164.852614145845Z" fill-rule="evenodd" style="fill: #DB3F29; stroke: #fff; opacity: 1;" id="p-type-functions"></path><path d="M52.684412006260786,-189.8245314271961A197,197,0,0,1,54.630433464284486,-189.27365305161834L47.311343199825885,-163.9157918097835A170.6070045455344,170.6070045455344,0,0,0,45.62603918086772,-164.39286647742935Z" fill-rule="evenodd" style="fill: #DB3F29; stroke: #fff; opacity: 1;" id="p-type-functions"></path><path d="M54.630433464284486,-189.27365305161834A197,197,0,0,1,56.57069687757749,-188.70282524325182L48.99166060577112,-163.42144042655153A170.6070045455344,170.6070045455344,0,0,0,47.311343199825885,-163.9157918097835Z" fill-rule="evenodd" style="fill: #DB3F29; stroke: #fff; opacity: 1;" id="p-type-functions"></path><path d="M56.57069687757749,-188.70282524325182A197,197,0,0,1,58.504997742481045,-188.11210816731676L50.66681429333981,-162.9098644323425A170.6070045455344,170.6070045455344,0,0,0,48.99166060577112,-163.42144042655153Z" fill-rule="evenodd" style="fill: #DB3F29; stroke: #fff; opacity: 1;" id="p-type-functions"></path><path d="M58.504997742481045,-188.11210816731676A197,197,0,0,1,60.43313218378871,-187.50156408536097L52.33662770142397,-162.38111774723853A170.6070045455344,170.6070045455344,0,0,0,50.66681429333981,-162.9098644323425Z" fill-rule="evenodd" style="fill: #DB3F29; stroke: #fff; opacity: 1;" id="p-type-functions"></path><path d="M60.43313218378871,-187.50156408536097A197,197,0,0,1,62.35489697623462,-186.8712573486976L54.00092483178066,-161.83525610111158A170.6070045455344,170.6070045455344,0,0,0,52.33662770142397,-162.38111774723853Z" fill-rule="evenodd" style="fill: #DB3F29; stroke: #fff; opacity: 1;" id="p-type-functions"></path><path d="M62.35489697623462,-186.8712573486976A197,197,0,0,1,64.27008956591372,-186.22125439162264L55.65953026758246,-161.27233702774964A170.6070045455344,170.6070045455344,0,0,0,54.00092483178066,-161.83525610111158Z" fill-rule="evenodd" style="fill: #DB3F29; stroke: #fff; opacity: 1;" id="p-type-functions"></path><path d="M64.27008956591372,-186.22125439162264A197,197,0,0,1,66.17850809163072,-185.55162372441254L57.312269191906225,-160.6924198587926A170.6070045455344,170.6070045455344,0,0,0,55.65953026758246,-161.27233702774964Z" fill-rule="evenodd" style="fill: #DB3F29; stroke: #fff; opacity: 1;" id="p-type-functions"></path><path d="M66.17850809163072,-185.55162372441254A197,197,0,0,1,68.07995140617619,-184.86243592610342L58.9589674061587,-160.09556571747862A170.6070045455344,170.6070045455344,0,0,0,57.312269191906225,-160.6924198587926Z" fill-rule="evenodd" style="fill: #DB3F29; stroke: #fff; opacity: 1;" id="p-type-functions"></path><path d="M68.07995140617619,-184.86243592610342A197,197,0,0,1,69.97421909752778,-184.1537636370519L60.59945134843727,-159.48183751220193A170.6070045455344,170.6070045455344,0,0,0,58.9589674061587,-160.09556571747862Z" fill-rule="evenodd" style="fill: #DB3F29; stroke: #fff; opacity: 1;" id="p-type-functions"></path><path d="M69.97421909752778,-184.1537636370519A197,197,0,0,1,71.86111150997327,-183.42568155127893L62.23354811182317,-158.8512999298822A170.6070045455344,170.6070045455344,0,0,0,60.59945134843727,-159.48183751220193Z" fill-rule="evenodd" style="fill: #DB3F29; stroke: #fff; opacity: 1;" id="p-type-functions"></path><path d="M71.86111150997327,-183.42568155127893A197,197,0,0,1,73.74042976515453,-182.67826640859693L63.86108546260599,-158.2040194291464A170.6070045455344,170.6070045455344,0,0,0,62.23354811182317,-158.8512999298822Z" fill-rule="evenodd" style="fill: #DB3F29; stroke: #fff; opacity: 1;" id="p-type-functions"></path><path d="M73.74042976515453,-182.67826640859693A197,197,0,0,1,75.61197578302921,-181.91159698652146L65.48189185843707,-157.5400642333243A170.6070045455344,170.6070045455344,0,0,0,63.86108546260599,-158.2040194291464Z" fill-rule="evenodd" style="fill: #DB3F29; stroke: #fff; opacity: 1;" id="p-type-functions"></path><path d="M75.61197578302921,-181.91159698652146A197,197,0,0,1,77.47555230274821,-181.12575409196816L67.09579646640992,-156.85950432325768A170.6070045455344,170.6070045455344,0,0,0,65.48189185843707,-157.5400642333243Z" fill-rule="evenodd" style="fill: #DB3F29; stroke: #fff; opacity: 1;" id="p-type-functions"></path><path d="M77.47555230274821,-181.12575409196816A197,197,0,0,1,79.33096290344727,-180.3208205527356L68.70262918106624,-156.16241142992413A170.6070045455344,170.6070045455344,0,0,0,67.09579646640992,-156.85950432325768Z" fill-rule="evenodd" style="fill: #DB3F29; stroke: #fff; opacity: 1;" id="p-type-functions"></path><path d="M79.33096290344727,-180.3208205527356A197,197,0,0,1,81.17801202494951,-179.4968812087752L70.30222064232491,-155.44885902687693A170.6070045455344,170.6070045455344,0,0,0,68.70262918106624,-156.16241142992413Z" fill-rule="evenodd" style="fill: #DB3F29; stroke: #fff; opacity: 1;" id="p-type-functions"></path><path d="M81.17801202494951,-179.4968812087752A197,197,0,0,1,83.0165049883774,-178.65402290324926L71.8944022533324,-154.7189223225008A170.6070045455344,170.6070045455344,0,0,0,70.30222064232491,-155.44885902687693Z" fill-rule="evenodd" style="fill: #DB3F29; stroke: #fff; opacity: 1;" id="p-type-functions"></path><path d="M83.0165049883774,-178.65402290324926A197,197,0,0,1,84.84624801667212,-177.79233447337757L73.4790061982331,-153.9726782520848A170.6070045455344,170.6070045455344,0,0,0,71.8944022533324,-154.7189223225008Z" fill-rule="evenodd" style="fill: #DB3F29; stroke: #fff; opacity: 1;" id="p-type-functions"></path><path d="M84.84624801667212,-177.79233447337757A197,197,0,0,1,86.66704825501753,-176.911906741074L75.05586545985699,-153.21020546971354A170.6070045455344,170.6070045455344,0,0,0,73.4790061982331,-153.9726782520848Z" fill-rule="evenodd" style="fill: #DB3F29; stroke: #fff; opacity: 1;" id="p-type-functions"></path><path d="M86.66704825501753,-176.911906741074A197,197,0,0,1,88.47871379116704,-176.0128325033739L76.6248138373232,-152.43158433997712A170.6070045455344,170.6070045455344,0,0,0,75.05586545985699,-153.21020546971354Z" fill-rule="evenodd" style="fill: #DB3F29; stroke: #fff; opacity: 1;" id="p-type-functions"></path><path d="M88.47871379116704,-176.0128325033739A197,197,0,0,1,90.28105367567122,-175.0952065226532L78.18568596355773,-151.6368969295004A170.6070045455344,170.6070045455344,0,0,0,76.6248138373232,-152.43158433997712Z" fill-rule="evenodd" style="fill: #DB3F29; stroke: #fff; opacity: 1;" id="p-type-functions"></path><path d="M90.28105367567122,-175.0952065226532A197,197,0,0,1,92.07387794200366,-174.1591255166407L79.73831732272284,-150.8262269982935A170.6070045455344,170.6070045455344,0,0,0,78.18568596355773,-151.6368969295004Z" fill-rule="evenodd" style="fill: #DB3F29; stroke: #fff; opacity: 1;" id="p-type-functions"></path><path d="M92.07387794200366,-174.1591255166407A197,197,0,0,1,93.85699762658382,-173.20468814822374L81.28254426755736,-149.99965999092325A170.6070045455344,170.6070045455344,0,0,0,79.73831732272284,-150.8262269982935Z" fill-rule="evenodd" style="fill: #DB3F29; stroke: #fff; opacity: 1;" id="p-type-functions"></path><path d="M93.85699762658382,-173.20468814822374A197,197,0,0,1,95.63022478869344,-172.23199501504928L82.81820403662486,-149.15728302750748A170.6070045455344,170.6070045455344,0,0,0,81.28254426755736,-149.99965999092325Z" fill-rule="evenodd" style="fill: #DB3F29; stroke: #fff; opacity: 1;" id="p-type-functions"></path><path d="M95.63022478869344,-172.23199501504928A197,197,0,0,1,97.39337253028553,-171.24114863892098L84.34513477146878,-148.2991848945326A170.6070045455344,170.6070045455344,0,0,0,82.81820403662486,-149.15728302750748Z" fill-rule="evenodd" style="fill: #DB3F29; stroke: #fff; opacity: 1;" id="p-type-functions"></path><path d="M97.39337253028553,-171.24114863892098A197,197,0,0,1,99.14625501568358,-170.23225345499318L85.86317553367229,-147.42545603549536A170.6070045455344,170.6070045455344,0,0,0,84.34513477146878,-148.2991848945326Z" fill-rule="evenodd" style="fill: #DB3F29; stroke: #fff; opacity: 1;" id="p-type-functions"></path><path d="M99.14625501568358,-170.23225345499318A197,197,0,0,1,100.88868749116853,-169.2054158007637L87.37216632182125,-146.53618854137022A170.6070045455344,170.6070045455344,0,0,0,85.86317553367229,-147.42545603549536Z" fill-rule="evenodd" style="fill: #DB3F29; stroke: #fff; opacity: 1;" id="p-type-functions"></path><path d="M100.88868749116853,-169.2054158007637A197,197,0,0,1,102.6204863044517,-168.16074390486574L88.87194808836824,-145.63147614090295A170.6070045455344,170.6070045455344,0,0,0,87.37216632182125,-146.53618854137022Z" fill-rule="evenodd" style="fill: #DB3F29; stroke: #fff; opacity: 1;" id="p-type-functions"></path><path d="M102.6204863044517,-168.16074390486574A197,197,0,0,1,104.34146892403189,-167.0983478756606L90.36236275639617,-144.71141419073157A170.6070045455344,170.6070045455344,0,0,0,88.87194808836824,-145.63147614090295Z" fill-rule="evenodd" style="fill: #DB3F29; stroke: #fff; opacity: 1;" id="p-type-functions"></path><path d="M104.34146892403189,-167.0983478756606A197,197,0,0,1,106.05145395843414,-166.01833968963226L91.84325323627972,-143.77609966533586A170.6070045455344,170.6070045455344,0,0,0,90.36236275639617,-144.71141419073157Z" fill-rule="evenodd" style="fill: #DB3F29; stroke: #fff; opacity: 1;" id="p-type-functions"></path><path d="M106.05145395843414,-166.01833968963226A197,197,0,0,1,107.7502611753284,-164.92083317958503L93.3144634422425,-142.82563114681616A170.6070045455344,170.6070045455344,0,0,0,91.84325323627972,-143.77609966533586Z" fill-rule="evenodd" style="fill: #DB3F29; stroke: #fff; opacity: 1;" id="p-type-functions"></path><path d="M107.7502611753284,-164.92083317958503A197,197,0,0,1,109.43771152052591,-163.80594402264575L94.77583830880836,-141.86010881450292A170.6070045455344,170.6070045455344,0,0,0,93.3144634422425,-142.82563114681616Z" fill-rule="evenodd" style="fill: #DB3F29; stroke: #fff; opacity: 1;" id="p-type-functions"></path><path d="M109.43771152052591,-163.80594402264575A197,197,0,0,1,111.1136271368516,-162.67378972807117L96.22722380714546,-140.8796344343977A170.6070045455344,170.6070045455344,0,0,0,94.77583830880836,-141.86010881450292Z" fill-rule="evenodd" style="fill: #DB3F29; stroke: #fff; opacity: 1;" id="p-type-functions"></path><path d="M111.1136271368516,-162.67378972807117A197,197,0,0,1,112.77783138289024,-161.5244896248627L97.66846696130085,-139.88431134844708A170.6070045455344,170.6070045455344,0,0,0,96.22722380714546,-140.8796344343977Z" fill-rule="evenodd" style="fill: #DB3F29; stroke: #fff; opacity: 1;" id="p-type-functions"></path><path d="M112.77783138289024,-161.5244896248627A197,197,0,0,1,114.43014885160433,-160.35816484918902L99.09941586432406,-138.87424446365048A170.6070045455344,170.6070045455344,0,0,0,97.66846696130085,-139.88431134844708Z" fill-rule="evenodd" style="fill: #DB3F29; stroke: #fff; opacity: 1;" id="p-type-functions"></path><path d="M114.43014885160433,-160.35816484918902A197,197,0,0,1,116.07040538882208,-159.17493833161834L100.51991969427813,-137.8495402410029A170.6070045455344,170.6070045455344,0,0,0,99.09941586432406,-138.87424446365048Z" fill-rule="evenodd" style="fill: #DB3F29; stroke: #fff; opacity: 1;" id="p-type-functions"></path><path d="M116.07040538882208,-159.17493833161834A197,197,0,0,1,117.69842811159327,-157.97493478416163L101.92982873013628,-136.8103066842739A170.6070045455344,170.6070045455344,0,0,0,100.51991969427813,-137.8495402410029Z" fill-rule="evenodd" style="fill: #DB3F29; stroke: #fff; opacity: 1;" id="p-type-functions"></path><path d="M117.69842811159327,-157.97493478416163A197,197,0,0,1,119.31404542641097,-156.75828068712778L103.32899436756242,-135.7566533286242A170.6070045455344,170.6070045455344,0,0,0,101.92982873013628,-136.8103066842739Z" fill-rule="evenodd" style="fill: #DB3F29; stroke: #fff; opacity: 1;" id="p-type-functions"></path><path d="M119.31404542641097,-156.75828068712778A197,197,0,0,1,120.91708704729767,-155.52510427579284L104.71726913457407,-134.68869122906042A170.6070045455344,170.6070045455344,0,0,0,103.32899436756242,-135.7566533286242Z" fill-rule="evenodd" style="fill: #DB3F29; stroke: #fff; opacity: 1;" id="p-type-functions"></path><path d="M120.91708704729767,-155.52510427579284A197,197,0,0,1,122.50738401375328,-154.2755355268838L106.09450670708597,-133.60653294873003A170.6070045455344,170.6070045455344,0,0,0,104.71726913457407,-134.68869122906042Z" fill-rule="evenodd" style="fill: #DB3F29; stroke: #fff; opacity: 1;" id="p-type-functions"></path><path d="M122.50738401375328,-154.2755355268838A197,197,0,0,1,124.08476870856357,-153.00970614487917L107.46056192433245,-132.5102925470573A170.6070045455344,170.6070045455344,0,0,0,106.09450670708597,-133.60653294873003Z" fill-rule="evenodd" style="fill: #DB3F29; stroke: #fff; opacity: 1;" id="p-type-functions"></path><path d="M124.08476870856357,-153.00970614487917A197,197,0,0,1,125.64907487546712,-151.72774954812735L108.81529080416757,-131.40008556772116A170.6070045455344,170.6070045455344,0,0,0,107.46056192433245,-132.5102925470573Z" fill-rule="evenodd" style="fill: #DB3F29; stroke: #fff; opacity: 1;" id="p-type-functions"></path><path d="M125.64907487546712,-151.72774954812735A197,197,0,0,1,127.20013763667855,-150.4298008547842L110.1585505582407,-130.27602902647718A170.6070045455344,170.6070045455344,0,0,0,108.81529080416757,-131.40008556772116Z" fill-rule="evenodd" style="fill: #DB3F29; stroke: #fff; opacity: 1;" id="p-type-functions"></path><path d="M127.20013763667855,-150.4298008547842A197,197,0,0,1,128.73779351026678,-149.11599686857178L111.49019960704648,-129.13824139882396A170.6070045455344,170.6070045455344,0,0,0,110.1585505582407,-130.27602902647718Z" fill-rule="evenodd" style="fill: #DB3F29; stroke: #fff; opacity: 1;" id="p-type-functions"></path><path d="M128.73779351026678,-149.11599686857178A197,197,0,0,1,130.26188042738596,-147.78647606435916L112.81009759484718,-127.98684260751592A170.6070045455344,170.6070045455344,0,0,0,111.49019960704648,-129.13824139882396Z" fill-rule="evenodd" style="fill: #DB3F29; stroke: #fff; opacity: 1;" id="p-type-functions"></path><path d="M130.26188042738596,-147.78647606435916A197,197,0,0,1,131.77223774935746,-146.44137857356714L114.11810540446635,-126.82195400992332A170.6070045455344,170.6070045455344,0,0,0,112.81009759484718,-127.98684260751592Z" fill-rule="evenodd" style="fill: #DB3F29; stroke: #fff; opacity: 1;" id="p-type-functions"></path><path d="M131.77223774935746,-146.44137857356714A197,197,0,0,1,133.26870628460136,-145.08084616939846L115.41408517195164,-125.64369838524132A170.6070045455344,170.6070045455344,0,0,0,114.11810540446635,-126.82195400992332Z" fill-rule="evenodd" style="fill: #DB3F29; stroke: #fff; opacity: 1;" id="p-type-functions"></path><path d="M133.26870628460136,-145.08084616939846A197,197,0,0,1,134.75112830541497,-143.70502225189486L116.69790030110568,-124.45219992154898A170.6070045455344,170.6070045455344,0,0,0,115.41408517195164,-125.64369838524132Z" fill-rule="evenodd" style="fill: #DB3F29; stroke: #fff; opacity: 1;" id="p-type-functions"></path><path d="M134.75112830541497,-143.70502225189486A197,197,0,0,1,136.2193475645975,-142.31405183282283L117.96941547788335,-123.24758420271992A170.6070045455344,170.6070045455344,0,0,0,116.69790030110568,-124.45219992154898Z" fill-rule="evenodd" style="fill: #DB3F29; stroke: #fff; opacity: 1;" id="p-type-functions"></path><path d="M136.2193475645975,-142.31405183282283A197,197,0,0,1,137.67320931191855,-140.90808152038926L119.2284966846538,-122.0299781951857A170.6070045455344,170.6070045455344,0,0,0,117.96941547788335,-123.24758420271992Z" fill-rule="evenodd" style="fill: #DB3F29; stroke: #fff; opacity: 1;" id="p-type-functions"></path><path d="M137.67320931191855,-140.90808152038926A197,197,0,0,1,139.11256031042862,-139.48725950378898L120.475011214326,-120.79951023455362A170.6070045455344,170.6070045455344,0,0,0,119.2284966846538,-122.0299781951857Z" fill-rule="evenodd" style="fill: #DB3F29; stroke: #fff; opacity: 1;" id="p-type-functions"></path><path d="M139.11256031042862,-139.48725950378898A197,197,0,0,1,140.5372488526103,-138.0517355375856L121.70882768433597,-119.55631001208012A170.6070045455344,170.6070045455344,0,0,0,120.475011214326,-120.79951023455362Z" fill-rule="evenodd" style="fill: #DB3F29; stroke: #fff; opacity: 1;" id="p-type-functions"></path><path d="M140.5372488526103,-138.0517355375856A197,197,0,0,1,141.5256375614442,-137.03829360009826L122.56479741499983,-118.67864354895555A170.6070045455344,170.6070045455344,0,0,0,121.70882768433597,-119.55631001208012Z" fill-rule="evenodd" style="fill: #DB3F29; stroke: #fff; opacity: 1;" id="p-type-functions"></path><path d="M141.5256375614442,-137.03829360009826A197,197,0,0,1,142.480006034292,-136.0457565691342L123.39130475705699,-117.81908126594388A170.6070045455344,170.6070045455344,0,0,0,122.56479741499983,-118.67864354895555Z" fill-rule="evenodd" style="fill: #DB3F29; stroke: #fff; opacity: 1;" id="p-type-functions"></path><path d="M194.7931323228167,29.40468669898771A197,197,0,0,1,194.48098903277085,31.402944206479496L168.42547705550237,27.1957474364366A170.6070045455344,170.6070045455344,0,0,0,168.69580107430292,25.465205671645744Z" fill-rule="evenodd" style="fill: #1DC690; stroke: #fff; opacity: 1;" id="p-type-logs"></path><path d="M194.48098903277085,31.402944206479496A197,197,0,0,1,194.14834745700568,33.397891845351346L168.13740100053485,28.923422770919412A170.6070045455344,170.6070045455344,0,0,0,168.42547705550237,27.1957474364366Z" fill-rule="evenodd" style="fill: #1DC690; stroke: #fff; opacity: 1;" id="p-type-logs"></path><path d="M194.14834745700568,33.397891845351346A197,197,0,0,1,193.79524265592534,35.3893193482301L167.831603272601,30.64804957820742A170.6070045455344,170.6070045455344,0,0,0,168.13740100053485,28.923422770919412Z" fill-rule="evenodd" style="fill: #1DC690; stroke: #fff; opacity: 1;" id="p-type-logs"></path><path d="M193.79524265592534,35.3893193482301A197,197,0,0,1,193.4217118467567,37.37701681876472L167.5081161027648,32.36944608272847A170.6070045455344,170.6070045455344,0,0,0,167.831603272601,30.64804957820742Z" fill-rule="evenodd" style="fill: #1DC690; stroke: #fff; opacity: 1;" id="p-type-logs"></path><path d="M193.4217118467567,37.37701681876472A197,197,0,0,1,193.02779439962683,39.36077475374938L167.16697358655642,34.08743084938415A170.6070045455344,170.6070045455344,0,0,0,167.5081161027648,32.36944608272847Z" fill-rule="evenodd" style="fill: #1DC690; stroke: #fff; opacity: 1;" id="p-type-logs"></path><path d="M193.02779439962683,39.36077475374938A197,197,0,0,1,192.61353183341333,41.340384065205086L166.8082116803786,35.801822802673A170.6070045455344,170.6070045455344,0,0,0,167.16697358655642,34.08743084938415Z" fill-rule="evenodd" style="fill: #1DC690; stroke: #fff; opacity: 1;" id="p-type-logs"></path><path d="M192.61353183341333,41.340384065205086A197,197,0,0,1,192.17896781136832,43.31563610241754L166.43186819771688,37.51244124577596A170.6070045455344,170.6070045455344,0,0,0,166.8082116803786,35.801822802673Z" fill-rule="evenodd" style="fill: #1DC690; stroke: #fff; opacity: 1;" id="p-type-logs"></path><path d="M192.17896781136832,43.31563610241754A197,197,0,0,1,191.72414813651616,45.286322673928915L166.03798280515392,39.21910587960167A170.6070045455344,170.6070045455344,0,0,0,166.43186819771688,37.51244124577596Z" fill-rule="evenodd" style="fill: #1DC690; stroke: #fff; opacity: 1;" id="p-type-logs"></path><path d="M191.72414813651616,45.286322673928915A197,197,0,0,1,191.24912074682598,47.252236069481235L165.62659701818882,40.9216368217901A170.6070045455344,170.6070045455344,0,0,0,166.03798280515392,39.21910587960167Z" fill-rule="evenodd" style="fill: #1DC690; stroke: #fff; opacity: 1;" id="p-type-logs"></path><path d="M191.24912074682598,47.252236069481235A197,197,0,0,1,190.7539357101589,49.21316908190898L165.1977541968612,42.619854625672076A170.6070045455344,170.6070045455344,0,0,0,165.62659701818882,40.9216368217901Z" fill-rule="evenodd" style="fill: #1DC690; stroke: #fff; opacity: 1;" id="p-type-logs"></path><path d="M190.7539357101589,49.21316908190898A197,197,0,0,1,190.23864521899105,51.16891502897877L164.7514995411813,44.31358029918297A170.6070045455344,170.6070045455344,0,0,0,165.1977541968612,42.619854625672076Z" fill-rule="evenodd" style="fill: #1DC690; stroke: #fff; opacity: 1;" id="p-type-logs"></path><path d="M190.23864521899105,51.16891502897877A197,197,0,0,1,189.7033035849123,53.11926777517362L164.28788008636562,46.00263532372845A170.6070045455344,170.6070045455344,0,0,0,164.7514995411813,44.31358029918297Z" fill-rule="evenodd" style="fill: #1DC690; stroke: #fff; opacity: 1;" id="p-type-logs"></path><path d="M189.7033035849123,53.11926777517362A197,197,0,0,1,189.14796723290192,55.064021753419624L163.80694469787963,47.686841673000345A170.6070045455344,170.6070045455344,0,0,0,164.28788008636562,46.00263532372845Z" fill-rule="evenodd" style="fill: #1DC690; stroke: #fff; opacity: 1;" id="p-type-logs"></path><path d="M189.14796723290192,55.064021753419624A197,197,0,0,1,188.57269469538127,57.00297198675274L163.30874406628723,49.36602183174058A170.6070045455344,170.6070045455344,0,0,0,163.80694469787963,47.686841673000345Z" fill-rule="evenodd" style="fill: #1DC690; stroke: #fff; opacity: 1;" id="p-type-logs"></path><path d="M188.57269469538127,57.00297198675274A197,197,0,0,1,187.9775466060448,58.935914109923274L162.79333070190808,51.0399988144513A170.6070045455344,170.6070045455344,0,0,0,163.30874406628723,49.36602183174058Z" fill-rule="evenodd" style="fill: #1DC690; stroke: #fff; opacity: 1;" id="p-type-logs"></path><path d="M187.9775466060448,58.935914109923274A197,197,0,0,1,187.36258569346884,60.862644390936076L162.26075892928284,52.708596184049114A170.6070045455344,170.6070045455344,0,0,0,162.79333070190808,51.0399988144513Z" fill-rule="evenodd" style="fill: #1DC690; stroke: #fff; opacity: 1;" id="p-type-logs"></path><path d="M187.36258569346884,60.862644390936076A197,197,0,0,1,186.72787677450032,62.78295975252378L161.71108488144753,54.371638070461564A170.6070045455344,170.6070045455344,0,0,0,162.26075892928284,52.708596184049114Z" fill-rule="evenodd" style="fill: #1DC690; stroke: #fff; opacity: 1;" id="p-type-logs"></path><path d="M186.72787677450032,62.78295975252378A197,197,0,0,1,186.07348674742497,64.69665779355121L161.14436649401708,56.02894918916383A170.6070045455344,170.6070045455344,0,0,0,161.71108488144753,54.371638070461564Z" fill-rule="evenodd" style="fill: #1DC690; stroke: #fff; opacity: 1;" id="p-type-logs"></path><path d="M186.07348674742497,64.69665779355121A197,197,0,0,1,185.39948458491617,66.60353681034839L160.56066349907883,57.68035485965368A170.6070045455344,170.6070045455344,0,0,0,161.14436649401708,56.02894918916383Z" fill-rule="evenodd" style="fill: #1DC690; stroke: #fff; opacity: 1;" id="p-type-logs"></path><path d="M185.39948458491617,66.60353681034839A197,197,0,0,1,184.7059413267654,68.50339581797014L159.96003741889686,59.32568102386282A170.6070045455344,170.6070045455344,0,0,0,160.56066349907883,57.68035485965368Z" fill-rule="evenodd" style="fill: #1DC690; stroke: #fff; opacity: 1;" id="p-type-logs"></path><path d="M184.7059413267654,68.50339581797014A197,197,0,0,1,183.99293007239459,70.39603457137991L159.3425515594275,60.96475426450259A170.6070045455344,170.6070045455344,0,0,0,159.96003741889686,59.32568102386282Z" fill-rule="evenodd" style="fill: #1DC690; stroke: #fff; opacity: 1;" id="p-type-logs"></path><path d="M183.99293007239459,70.39603457137991A197,197,0,0,1,183.26052597315132,72.28125358655547L158.70827100364696,62.5974018233421A170.6070045455344,170.6070045455344,0,0,0,159.3425515594275,60.96475426450259Z" fill-rule="evenodd" style="fill: #1DC690; stroke: #fff; opacity: 1;" id="p-type-logs"></path><path d="M183.26052597315132,72.28125358655547A197,197,0,0,1,182.50880622438797,74.15885416151467L158.05726260469146,64.22345161941703A170.6070045455344,170.6070045455344,0,0,0,158.70827100364696,62.5974018233421Z" fill-rule="evenodd" style="fill: #1DC690; stroke: #fff; opacity: 1;" id="p-type-logs"></path><path d="M182.50880622438797,74.15885416151467A197,197,0,0,1,181.73785005732546,76.02863839725852L157.38959497881103,65.84273226716688A170.6070045455344,170.6070045455344,0,0,0,158.05726260469146,64.22345161941703Z" fill-rule="evenodd" style="fill: #1DC690; stroke: #fff; opacity: 1;" id="p-type-logs"></path><path d="M181.73785005732546,76.02863839725852A197,197,0,0,1,180.947738730702,77.89040921862974L156.7053384981373,67.45507309449897A170.6070045455344,170.6070045455344,0,0,0,157.38959497881103,65.84273226716688Z" fill-rule="evenodd" style="fill: #1DC690; stroke: #fff; opacity: 1;" id="p-type-logs"></path><path d="M180.947738730702,77.89040921862974A197,197,0,0,1,180.13855552220875,79.74397039508452L156.00456528326634,69.06030416077739A170.6070045455344,170.6070045455344,0,0,0,156.7053384981373,67.45507309449897Z" fill-rule="evenodd" style="fill: #1DC690; stroke: #fff; opacity: 1;" id="p-type-logs"></path><path d="M180.13855552220875,79.74397039508452A197,197,0,0,1,179.31038571971203,81.58912656137518L155.28734919565704,70.6582562747346A170.6070045455344,170.6070045455344,0,0,0,156.00456528326634,69.06030416077739Z" fill-rule="evenodd" style="fill: #1DC690; stroke: #fff; opacity: 1;" id="p-type-logs"></path><path d="M179.31038571971203,81.58912656137518A197,197,0,0,1,178.46331661226418,83.42568323814167L154.5537658298462,72.24876101230431A170.6070045455344,170.6070045455344,0,0,0,155.28734919565704,70.6582562747346Z" fill-rule="evenodd" style="fill: #1DC690; stroke: #fff; opacity: 1;" id="p-type-logs"></path><path d="M178.46331661226418,83.42568323814167A197,197,0,0,1,177.59743748090335,85.2534468524096L153.80389250548092,73.8316507343732A170.6070045455344,170.6070045455344,0,0,0,154.5537658298462,72.24876101230431Z" fill-rule="evenodd" style="fill: #1DC690; stroke: #fff; opacity: 1;" id="p-type-logs"></path><path d="M177.59743748090335,85.2534468524096A197,197,0,0,1,176.7128395892431,87.07222475799294L153.03780825916897,75.40675860445023A170.6070045455344,170.6070045455344,0,0,0,153.80389250548092,73.8316507343732Z" fill-rule="evenodd" style="fill: #1DC690; stroke: #fff; opacity: 1;" id="p-type-logs"></path><path d="M176.7128395892431,87.07222475799294A197,197,0,0,1,175.80961617385333,88.88182525579889L152.2555938361485,76.97391860625115A170.6070045455344,170.6070045455344,0,0,0,153.03780825916897,75.40675860445023Z" fill-rule="evenodd" style="fill: #1DC690; stroke: #fff; opacity: 1;" id="p-type-logs"></path><path d="M175.80961617385333,88.88182525579889A197,197,0,0,1,174.88786243443315,90.68205761403291L151.45733168177733,78.53296556119658A170.6070045455344,170.6070045455344,0,0,0,152.2555938361485,76.97391860625115Z" fill-rule="evenodd" style="fill: #1DC690; stroke: #fff; opacity: 1;" id="p-type-logs"></path><path d="M174.88786243443315,90.68205761403291A197,197,0,0,1,173.94767552377684,92.47273208830187L150.64310593284333,80.08373514582183A170.6070045455344,170.6070045455344,0,0,0,151.45733168177733,78.53296556119658Z" fill-rule="evenodd" style="fill: #1DC690; stroke: #fff; opacity: 1;" id="p-type-logs"></path><path d="M173.94767552377684,92.47273208830187A197,197,0,0,1,172.98915453753384,94.25365994161308L149.8130024086964,81.62606390909664A170.6070045455344,170.6070045455344,0,0,0,150.64310593284333,80.08373514582183Z" fill-rule="evenodd" style="fill: #1DC690; stroke: #fff; opacity: 1;" id="p-type-logs"></path><path d="M172.98915453753384,94.25365994161308A197,197,0,0,1,172.01240050376427,96.02465346426719L148.967108602203,83.15978928965278A170.6070045455344,170.6070045455344,0,0,0,149.8130024086964,81.62606390909664Z" fill-rule="evenodd" style="fill: #1DC690; stroke: #fff; opacity: 1;" id="p-type-logs"></path><path d="M172.01240050376427,96.02465346426719A197,197,0,0,1,171.01751637229043,97.78552599364274L148.10551367052466,84.68474963291817A170.6070045455344,170.6070045455344,0,0,0,148.967108602203,83.15978928965278Z" fill-rule="evenodd" style="fill: #1DC690; stroke: #fff; opacity: 1;" id="p-type-logs"></path><path d="M171.01751637229043,97.78552599364274A197,197,0,0,1,170.00460700384593,99.53609193387041L147.22830842572046,86.20078420815513A170.6070045455344,170.6070045455344,0,0,0,148.10551367052466,84.68474963291817Z" fill-rule="evenodd" style="fill: #1DC690; stroke: #fff; opacity: 1;" id="p-type-logs"></path><path d="M170.00460700384593,99.53609193387041A197,197,0,0,1,168.97377915902337,101.2761667753949L146.33558532517577,87.70773322540151A170.6070045455344,170.6070045455344,0,0,0,147.22830842572046,86.20078420815513Z" fill-rule="evenodd" style="fill: #1DC690; stroke: #fff; opacity: 1;" id="p-type-logs"></path><path d="M168.97377915902337,101.2761667753949A197,197,0,0,1,167.92514148702182,103.00556711442202L145.42743846185707,89.20543785231241A170.6070045455344,170.6070045455344,0,0,0,146.33558532517577,87.70773322540151Z" fill-rule="evenodd" style="fill: #1DC690; stroke: #fff; opacity: 1;" id="p-type-logs"></path><path d="M167.92514148702182,103.00556711442202A197,197,0,0,1,166.85880451419519,104.72411067224964L144.5039635543946,90.69374023090123A170.6070045455344,170.6070045455344,0,0,0,145.42743846185707,89.20543785231241Z" fill-rule="evenodd" style="fill: #1DC690; stroke: #fff; opacity: 1;" id="p-type-logs"></path><path d="M166.85880451419519,104.72411067224964A197,197,0,0,1,165.7748806324027,106.43161631447978L143.56525793699367,92.1724834941778A170.6070045455344,170.6070045455344,0,0,0,144.5039635543946,90.69374023090123Z" fill-rule="evenodd" style="fill: #1DC690; stroke: #fff; opacity: 1;" id="p-type-logs"></path><path d="M165.7748806324027,106.43161631447978A197,197,0,0,1,164.6734840871628,108.12790407011015L142.61142054917548,93.64151178268219A170.6070045455344,170.6070045455344,0,0,0,143.56525793699367,92.1724834941778Z" fill-rule="evenodd" style="fill: #1DC690; stroke: #fff; opacity: 1;" id="p-type-logs"></path><path d="M164.6734840871628,108.12790407011015A197,197,0,0,1,163.55473096561175,109.8127951505031L141.64255192534915,95.1006702609123A170.6070045455344,170.6070045455344,0,0,0,142.61142054917548,93.64151178268219Z" fill-rule="evenodd" style="fill: #1DC690; stroke: #fff; opacity: 1;" id="p-type-logs"></path><path d="M163.55473096561175,109.8127951505031A197,197,0,0,1,162.41873918426808,111.48611196822995L140.65875418421518,96.54980513364347A170.6070045455344,170.6070045455344,0,0,0,141.64255192534915,95.1006702609123Z" fill-rule="evenodd" style="fill: #1DC690; stroke: #fff; opacity: 1;" id="p-type-logs"></path><path d="M162.41873918426808,111.48611196822995A197,197,0,0,1,161.265628476604,113.14767815578864L139.66013101800223,97.98876366213857A170.6070045455344,170.6070045455344,0,0,0,140.65875418421518,96.54980513364347Z" fill-rule="evenodd" style="fill: #1DC690; stroke: #fff; opacity: 1;" id="p-type-logs"></path><path d="M161.265628476604,113.14767815578864A197,197,0,0,1,160.0955203804257,114.79731858419296L138.646787681538,99.41739418024656A170.6070045455344,170.6070045455344,0,0,0,139.66013101800223,97.98876366213857Z" fill-rule="evenodd" style="fill: #1DC690; stroke: #fff; opacity: 1;" id="p-type-logs"></path><path d="M160.0955203804257,114.79731858419296A197,197,0,0,1,158.90853822506327,116.43485938143101L137.6188309811553,100.83554611038812A170.6070045455344,170.6070045455344,0,0,0,138.646787681538,99.41739418024656Z" fill-rule="evenodd" style="fill: #1DC690; stroke: #fff; opacity: 1;" id="p-type-logs"></path><path d="M158.90853822506327,116.43485938143101A197,197,0,0,1,157.70480711837155,118.06012795079135L136.57636926343474,102.24306997942658A170.6070045455344,170.6070045455344,0,0,0,137.6188309811553,100.83554611038812Z" fill-rule="evenodd" style="fill: #1DC690; stroke: #fff; opacity: 1;" id="p-type-logs"></path><path d="M157.70480711837155,118.06012795079135A197,197,0,0,1,156.4844539335441,119.67295298905478L135.51951240378492,103.6398174344223A170.6070045455344,170.6070045455344,0,0,0,136.57636926343474,102.24306997942658Z" fill-rule="evenodd" style="fill: #1DC690; stroke: #fff; opacity: 1;" id="p-type-logs"></path><path d="M156.4844539335441,119.67295298905478A197,197,0,0,1,155.24760729574052,121.27316450454951L134.44837179486166,105.02564125826915A170.6070045455344,170.6070045455344,0,0,0,135.51951240378492,103.6398174344223Z" fill-rule="evenodd" style="fill: #1DC690; stroke: #fff; opacity: 1;" id="p-type-logs"></path><path d="M155.24760729574052,121.27316450454951A197,197,0,0,1,153.99439756852956,122.86059383506843L133.3630603348272,106.40039538521104A170.6070045455344,170.6070045455344,0,0,0,134.44837179486166,105.02564125826915Z" fill-rule="evenodd" style="fill: #1DC690; stroke: #fff; opacity: 1;" id="p-type-logs"></path><path d="M153.99439756852956,122.86059383506843A197,197,0,0,1,152.72495684014862,124.43507366564597L132.26369241545066,107.76393491623742A170.6070045455344,170.6070045455344,0,0,0,133.3630603348272,106.40039538521104Z" fill-rule="evenodd" style="fill: #1DC690; stroke: #fff; opacity: 1;" id="p-type-logs"></path><path d="M152.72495684014862,124.43507366564597A197,197,0,0,1,151.43941890958175,125.99643804619325L131.1503839100513,109.11611613435551A170.6070045455344,170.6070045455344,0,0,0,132.26369241545066,107.76393491623742Z" fill-rule="evenodd" style="fill: #1DC690; stroke: #fff; opacity: 1;" id="p-type-logs"></path><path d="M151.43941890958175,125.99643804619325A197,197,0,0,1,150.13791927245728,127.54452240898901L130.02325216128526,110.45679651973809A170.6070045455344,170.6070045455344,0,0,0,131.1503839100513,109.11611613435551Z" fill-rule="evenodd" style="fill: #1DC690; stroke: #fff; opacity: 1;" id="p-type-logs"></path><path d="M150.13791927245728,127.54452240898901A197,197,0,0,1,148.82059510676652,129.07916358602523L128.8824159687779,111.7858347647451A170.6070045455344,170.6070045455344,0,0,0,130.02325216128526,110.45679651973809Z" fill-rule="evenodd" style="fill: #1DC690; stroke: #fff; opacity: 1;" id="p-type-logs"></path><path d="M148.82059510676652,129.07916358602523A197,197,0,0,1,147.48758525840526,130.60019982620486L127.72799557660224,113.10309078881743A170.6070045455344,170.6070045455344,0,0,0,128.8824159687779,111.7858347647451Z" fill-rule="evenodd" style="fill: #1DC690; stroke: #fff; opacity: 1;" id="p-type-logs"></path><path d="M52.76001709265181,189.80353156983958A197,197,0,0,1,22.41908896479934,195.72016873584698L19.4155005732196,169.49863815822033A170.6070045455344,170.6070045455344,0,0,0,45.69151510633766,164.37468006748276Z" fill-rule="evenodd" style="fill: #414552; stroke: #fff; opacity: 1;" id="p-type-ether"></path><path d="M22.41908896479934,195.72016873584698A197,197,0,0,1,1.1506182205904985,196.99663976248542L0.9964646090886187,170.60409449448403A170.6070045455344,170.6070045455344,0,0,0,19.4155005732196,169.49863815822033Z" fill-rule="evenodd" style="fill: #414552; stroke: #fff; opacity: 1;" id="p-type-ether"></path><path d="M1.1506182205904985,196.99663976248542A197,197,0,0,1,-5.699225755123206,196.91754321490035L-4.935674285839247,170.5355948749237A170.6070045455344,170.6070045455344,0,0,0,0.9964646090886187,170.60409449448403Z" fill-rule="evenodd" style="fill: #414552; stroke: #fff; opacity: 1;" id="p-type-ether"></path><path d="M-5.699225755123206,196.91754321490035A197,197,0,0,1,-11.120263377598048,196.68589106088126L-9.630430581773654,170.3349782247018A170.6070045455344,170.6070045455344,0,0,0,-4.935674285839247,170.5355948749237Z" fill-rule="evenodd" style="fill: #414552; stroke: #fff; opacity: 1;" id="p-type-ether"></path><path d="M-11.120263377598048,196.68589106088126A197,197,0,0,1,-13.11006817095236,196.56328780459737L-11.353652081390534,170.22880069017327A170.6070045455344,170.6070045455344,0,0,0,-9.630430581773654,170.3349782247018Z" fill-rule="evenodd" style="fill: #414552; stroke: #fff; opacity: 1;" id="p-type-ether"></path><path d="M-13.11006817095236,196.56328780459737A197,197,0,0,1,-14.522201285040937,196.46400604140382L-12.576595231716471,170.14282016111514A170.6070045455344,170.6070045455344,0,0,0,-11.353652081390534,170.22880069017327Z" fill-rule="evenodd" style="fill: #414552; stroke: #fff; opacity: 1;" id="p-type-ether"></path><path d="M-14.522201285040937,196.46400604140382A197,197,0,0,1,-15.895026449313457,196.357704544985L-13.765496698931019,170.05076036475614A170.6070045455344,170.6070045455344,0,0,0,-12.576595231716471,170.14282016111514Z" fill-rule="evenodd" style="fill: #414552; stroke: #fff; opacity: 1;" id="p-type-ether"></path><path d="M-98.5065253380964,170.60323697343782A197,197,0,0,1,-100.25280015998291,169.5829474330557L-86.82147173906984,146.8631405256673A170.6070045455344,170.6070045455344,0,0,0,-85.30915338132696,147.74673718685375Z" fill-rule="evenodd" style="fill: #D7A449; stroke: #fff; opacity: 1;" id="p-type-tokenTransfers"></path><path d="M-100.25280015998291,169.5829474330557A197,197,0,0,1,-101.98850834215794,168.5447838591915L-88.32463911838992,145.96406449741724A170.6070045455344,170.6070045455344,0,0,0,-86.82147173906984,146.8631405256673Z" fill-rule="evenodd" style="fill: #D7A449; stroke: #fff; opacity: 1;" id="p-type-tokenTransfers"></path><path d="M-101.98850834215794,168.5447838591915A197,197,0,0,1,-103.71346694107305,167.48885567422968L-89.81849708552681,145.04960386466834A170.6070045455344,170.6070045455344,0,0,0,-88.32463911838992,145.96406449741724Z" fill-rule="evenodd" style="fill: #D7A449; stroke: #fff; opacity: 1;" id="p-type-tokenTransfers"></path><path d="M-103.71346694107305,167.48885567422968A197,197,0,0,1,-105.42749414618527,166.41527417294384L-91.30288818793163,144.11985501152176A170.6070045455344,170.6070045455344,0,0,0,-89.81849708552681,145.04960386466834Z" fill-rule="evenodd" style="fill: #D7A449; stroke: #fff; opacity: 1;" id="p-type-tokenTransfers"></path><path d="M-105.42749414618527,166.41527417294384A197,197,0,0,1,-107.13040929911988,165.32415251076608L-92.77765597086247,143.1749159334563A170.6070045455344,170.6070045455344,0,0,0,-91.30288818793163,144.11985501152176Z" fill-rule="evenodd" style="fill: #D7A449; stroke: #fff; opacity: 1;" id="p-type-tokenTransfers"></path><path d="M-107.13040929911988,165.32415251076608A197,197,0,0,1,-108.82203291271199,164.2156056918606L-94.24264499387486,142.2148862269997A170.6070045455344,170.6070045455344,0,0,0,-92.77765597086247,143.1749159334563Z" fill-rule="evenodd" style="fill: #D7A449; stroke: #fff; opacity: 1;" id="p-type-tokenTransfers"></path><path d="M-108.82203291271199,164.2156056918606A197,197,0,0,1,-110.5021866899242,163.08975055700202L-95.69770084720503,141.23986707923103A170.6070045455344,170.6070045455344,0,0,0,-94.24264499387486,142.2148862269997Z" fill-rule="evenodd" style="fill: #D7A449; stroke: #fff; opacity: 1;" id="p-type-tokenTransfers"></path><path d="M-110.5021866899242,163.08975055700202A197,197,0,0,1,-112.17069354263937,161.9467057712607L-97.14267016804479,140.24996125711573A170.6070045455344,170.6070045455344,0,0,0,-95.69770084720503,141.23986707923103Z" fill-rule="evenodd" style="fill: #D7A449; stroke: #fff; opacity: 1;" id="p-type-tokenTransfers"></path><path d="M-112.17069354263937,161.9467057712607A197,197,0,0,1,-113.8273776103255,160.78659181149516L-98.5774006567059,139.24527309667383A170.6070045455344,170.6070045455344,0,0,0,-97.14267016804479,140.24996125711573Z" fill-rule="evenodd" style="fill: #D7A449; stroke: #fff; opacity: 1;" id="p-type-tokenTransfers"></path><path d="M-113.8273776103255,160.78659181149516A197,197,0,0,1,-115.47206427857154,159.60953095365403L-100.00174109267256,138.2259084919831A170.6070045455344,170.6070045455344,0,0,0,-98.5774006567059,139.24527309667383Z" fill-rule="evenodd" style="fill: #D7A449; stroke: #fff; opacity: 1;" id="p-type-tokenTransfers"></path><path d="M-115.47206427857154,159.60953095365403A197,197,0,0,1,-117.10458019749161,158.41564725988798L-101.41554135053984,137.1919748840177A170.6070045455344,170.6070045455344,0,0,0,-100.00174109267256,138.2259084919831Z" fill-rule="evenodd" style="fill: #D7A449; stroke: #fff; opacity: 1;" id="p-type-tokenTransfers"></path><path d="M-117.10458019749161,158.41564725988798A197,197,0,0,1,-118.72475329999622,157.20506656547374L-102.8186524158371,136.14358124932394A170.6070045455344,170.6070045455344,0,0,0,-101.41554135053984,137.1919748840177Z" fill-rule="evenodd" style="fill: #D7A449; stroke: #fff; opacity: 1;" id="p-type-tokenTransfers"></path><path d="M-118.72475329999622,157.20506656547374A197,197,0,0,1,-120.33241281992807,155.977916465551L-104.21092640073397,135.08083808853425A170.6070045455344,170.6070045455344,0,0,0,-102.8186524158371,136.14358124932394Z" fill-rule="evenodd" style="fill: #D7A449; stroke: #fff; opacity: 1;" id="p-type-tokenTransfers"></path><path d="M-120.33241281992807,155.977916465551A197,197,0,0,1,-121.92738931006075,154.73432630167386L-105.5922165596278,134.0038574147202A170.6070045455344,170.6070045455344,0,0,0,-104.21092640073397,135.08083808853425Z" fill-rule="evenodd" style="fill: #D7A449; stroke: #fff; opacity: 1;" id="p-type-tokenTransfers"></path><path d="M-121.92738931006075,154.73432630167386A197,197,0,0,1,-123.50951465995851,153.4744271481783L-106.96237730461061,132.91275274158653A170.6070045455344,170.6070045455344,0,0,0,-105.5922165596278,134.0038574147202Z" fill-rule="evenodd" style="fill: #D7A449; stroke: #fff; opacity: 1;" id="p-type-tokenTransfers"></path><path d="M-123.50951465995851,153.4744271481783A197,197,0,0,1,-125.07862211369509,152.19835179836696L-108.321264220814,131.8076390715068A170.6070045455344,170.6070045455344,0,0,0,-106.96237730461061,132.91275274158653Z" fill-rule="evenodd" style="fill: #D7A449; stroke: #fff; opacity: 1;" id="p-type-tokenTransfers"></path><path d="M-125.07862211369509,152.19835179836696A197,197,0,0,1,-126.63454628742979,150.90623475051257L-109.66873408163056,130.68863288340194A170.6070045455344,170.6070045455344,0,0,0,-108.321264220814,131.8076390715068Z" fill-rule="evenodd" style="fill: #D7A449; stroke: #fff; opacity: 1;" id="p-type-tokenTransfers"></path><path d="M-126.63454628742979,150.90623475051257A197,197,0,0,1,-128.17712318683886,149.5982121936821L-111.00464486380986,129.55585212046367A170.6070045455344,170.6070045455344,0,0,0,-109.66873408163056,130.68863288340194Z" fill-rule="evenodd" style="fill: #D7A449; stroke: #fff; opacity: 1;" id="p-type-tokenTransfers"></path><path d="M-128.17712318683886,149.5982121936821A197,197,0,0,1,-129.70619022440064,148.27442199338222L-112.32885576242778,128.4094161777231A170.6070045455344,170.6070045455344,0,0,0,-111.00464486380986,129.55585212046367Z" fill-rule="evenodd" style="fill: #D7A449; stroke: #fff; opacity: 1;" id="p-type-tokenTransfers"></path><path d="M-129.70619022440064,148.27442199338222A197,197,0,0,1,-131.22158623653212,146.93500367702845L-113.64122720572726,127.24944588946654A170.6070045455344,170.6070045455344,0,0,0,-112.32885576242778,128.4094161777231Z" fill-rule="evenodd" style="fill: #D7A449; stroke: #fff; opacity: 1;" id="p-type-tokenTransfers"></path><path d="M-131.22158623653212,146.93500367702845A197,197,0,0,1,-132.7231515005756,145.58009841923882L-114.9416208698292,126.07606351649962A170.6070045455344,170.6070045455344,0,0,0,-113.64122720572726,127.24944588946654Z" fill-rule="evenodd" style="fill: #D7A449; stroke: #fff; opacity: 1;" id="p-type-tokenTransfers"></path><path d="M-132.7231515005756,145.58009841923882A197,197,0,0,1,-134.21072775163347,144.2098490269542L-116.22989969331174,124.88939273326093A170.6070045455344,170.6070045455344,0,0,0,-114.9416208698292,126.07606351649962Z" fill-rule="evenodd" style="fill: #D7A449; stroke: #fff; opacity: 1;" id="p-type-tokenTransfers"></path><path d="M-134.21072775163347,144.2098490269542A197,197,0,0,1,-135.68415819924945,142.82439992438634L-117.50592789165665,123.68955861478683A170.6070045455344,170.6070045455344,0,0,0,-116.22989969331174,124.88939273326093Z" fill-rule="evenodd" style="fill: #D7A449; stroke: #fff; opacity: 1;" id="p-type-tokenTransfers"></path><path d="M-135.68415819924945,142.82439992438634A197,197,0,0,1,-137.1432875439341,141.42389713779568L-118.7695709715609,122.47668762352842A170.6070045455344,170.6070045455344,0,0,0,-117.50592789165665,123.68955861478683Z" fill-rule="evenodd" style="fill: #D7A449; stroke: #fff; opacity: 1;" id="p-type-tokenTransfers"></path><path d="M-137.1432875439341,141.42389713779568A197,197,0,0,1,-138.58796199353338,140.00848828010018L-120.02069574511218,121.25090759602261A170.6070045455344,170.6070045455344,0,0,0,-118.7695709715609,122.47668762352842Z" fill-rule="evenodd" style="fill: #D7A449; stroke: #fff; opacity: 1;" id="p-type-tokenTransfers"></path><path d="M-138.58796199353338,140.00848828010018A197,197,0,0,1,-140.0180292794385,138.57832253531683L-121.2591703438271,120.01234772941793A170.6070045455344,170.6070045455344,0,0,0,-120.02069574511218,121.25090759602261Z" fill-rule="evenodd" style="fill: #D7A449; stroke: #fff; opacity: 1;" id="p-type-tokenTransfers"></path><path d="M-140.0180292794385,138.57832253531683A197,197,0,0,1,-141.43333867263502,137.1335506428377L-122.48486423255,118.76113856785727A170.6070045455344,170.6070045455344,0,0,0,-121.2591703438271,120.01234772941793Z" fill-rule="evenodd" style="fill: #D7A449; stroke: #fff; opacity: 1;" id="p-type-tokenTransfers"></path><path d="M-141.43333867263502,137.1335506428377A197,197,0,0,1,-142.83374099958934,135.67432488154208L-123.69764822321129,117.49741198871858A170.6070045455344,170.6070045455344,0,0,0,-122.48486423255,118.76113856785727Z" fill-rule="evenodd" style="fill: #D7A449; stroke: #fff; opacity: 1;" id="p-type-tokenTransfers"></path><path d="M-142.83374099958934,135.67432488154208A197,197,0,0,1,-144.21908865797212,134.20079905374627L-124.89739448844405,116.22130118871492A170.6070045455344,170.6070045455344,0,0,0,-123.69764822321129,117.49741198871858Z" fill-rule="evenodd" style="fill: #D7A449; stroke: #fff; opacity: 1;" id="p-type-tokenTransfers"></path><path d="M-144.21908865797212,134.20079905374627A197,197,0,0,1,-145.589235632215,132.71312846899275L-126.0839765750568,114.93294066985551A170.6070045455344,170.6070045455344,0,0,0,-124.89739448844405,116.22130118871492Z" fill-rule="evenodd" style="fill: #D7A449; stroke: #fff; opacity: 1;" id="p-type-tokenTransfers"></path><path d="M-145.589235632215,132.71312846899275A197,197,0,0,1,-146.94403750890118,131.21146992768064L-127.25726941736184,113.63246622526935A170.6070045455344,170.6070045455344,0,0,0,-126.0839765750568,114.93294066985551Z" fill-rule="evenodd" style="fill: #D7A449; stroke: #fff; opacity: 1;" id="p-type-tokenTransfers"></path><path d="M-146.94403750890118,131.21146992768064A197,197,0,0,1,-148.28335149198608,129.69598170453895L-128.41714935035708,112.32001492489252A170.6070045455344,170.6070045455344,0,0,0,-127.25726941736184,113.63246622526935Z" fill-rule="evenodd" style="fill: #D7A449; stroke: #fff; opacity: 1;" id="p-type-tokenTransfers"></path><path d="M-148.28335149198608,129.69598170453895A197,197,0,0,1,-149.60703641784846,128.16682353194432L-129.56349412276043,110.99572510102097A170.6070045455344,170.6070045455344,0,0,0,-128.41714935035708,112.32001492489252Z" fill-rule="evenodd" style="fill: #D7A449; stroke: #fff; opacity: 1;" id="p-type-tokenTransfers"></path><path d="M-149.60703641784846,128.16682353194432A197,197,0,0,1,-150.91495277016872,126.62415658308545L-130.69618290989484,109.65973633373056A170.6070045455344,170.6070045455344,0,0,0,-129.56349412276043,110.99572510102097Z" fill-rule="evenodd" style="fill: #D7A449; stroke: #fff; opacity: 1;" id="p-type-tokenTransfers"></path><path d="M-150.91495277016872,126.62415658308545A197,197,0,0,1,-152.20696269463406,125.06814345497526L-131.81509632642346,108.31218943616504A170.6070045455344,170.6070045455344,0,0,0,-130.69618290989484,109.65973633373056Z" fill-rule="evenodd" style="fill: #D7A449; stroke: #fff; opacity: 1;" id="p-type-tokenTransfers"></path><path d="M-152.20696269463406,125.06814345497526A197,197,0,0,1,-153.4829300134684,123.49894815131324L-132.92011643893272,106.9532264396945A170.6070045455344,170.6070045455344,0,0,0,-131.81509632642346,108.31218943616504Z" fill-rule="evenodd" style="fill: #D7A449; stroke: #fff; opacity: 1;" id="p-type-tokenTransfers"></path><path d="M-153.4829300134684,123.49894815131324A197,197,0,0,1,-154.7427202397854,121.91673606519946L-134.01112677836258,105.58299057894519A170.6070045455344,170.6070045455344,0,0,0,-132.92011643893272,106.9532264396945Z" fill-rule="evenodd" style="fill: #D7A449; stroke: #fff; opacity: 1;" id="p-type-tokenTransfers"></path><path d="M-154.7427202397854,121.91673606519946A197,197,0,0,1,-155.98620059176335,120.32167396170222L-135.0880123522823,104.20162627670274A170.6070045455344,170.6070045455344,0,0,0,-134.01112677836258,105.58299057894519Z" fill-rule="evenodd" style="fill: #D7A449; stroke: #fff; opacity: 1;" id="p-type-tokenTransfers"></path></g></svg>