<svg xmlns="http://www.w3.org/2000/svg" width="400" height="400" id="block-7907801"><g id="burst-container" transform="translate(200,200)"><circle r="197" style="fill: #f9f9f9; stroke: #f9f9f9; stroke-width: 3; opacity: 1;" id="circle-base"></circle><path display="none" d="M6.031385485800715e-15,-98.5A98.5,98.5,0,1,1,-6.031385485800715e-15,98.5A98.5,98.5,0,1,1,6.031385485800715e-15,-98.5Z" fill-rule="evenodd" id="p-type-root" style="stroke: #fff; opacity: 1;"></path><path d="M8.529667153919608e-15,-139.30003589374985A139.30003589374985,139.30003589374985,0,1,1,-125.0521910944817,-61.37140622854611L-88.425252325144,-43.396137515159275A98.5,98.5,0,1,0,6.031385485800715e-15,-98.5Z" fill-rule="evenodd" style="fill: #0B1F65; stroke: #fff; opacity: 1;" id="p-type-data"></path><path d="M-125.0521910944817,-61.37140622854611A139.30003589374985,139.30003589374985,0,0,1,-2.6092364941235484,-139.2755968751085L-1.8450088187141744,-98.48271900419316A98.5,98.5,0,0,0,-88.425252325144,-43.396137515159275Z" fill-rule="evenodd" style="fill: #D7A449; stroke: #fff; opacity: 1;" id="p-type-value"></path><path d="M1.0446666101440332e-14,-170.6070045455344A170.6070045455344,170.6070045455344,0,0,1,159.75363546344386,59.87926148687113L130.43829714667623,48.891212272507545A139.30003589374985,139.30003589374985,0,0,0,8.529667153919608e-15,-139.30003589374985Z" fill-rule="evenodd" style="fill: #1DC690; stroke: #fff; opacity: 1;" id="p-type-logs"></path><path d="M159.75363546344386,59.87926148687113A170.6070045455344,170.6070045455344,0,0,1,-94.36621009503484,142.13292508176895L-77.04968789770341,116.05104736652098A139.30003589374985,139.30003589374985,0,0,0,130.43829714667623,48.891212272507545Z" fill-rule="evenodd" style="fill: #D7A449; stroke: #fff; opacity: 1;" id="p-type-tokenTransfers"></path><path d="M-94.36621009503484,142.13292508176895A170.6070045455344,170.6070045455344,0,0,1,-127.82452187295286,112.99398925584931L-104.36828506798733,92.25920589278518A139.30003589374985,139.30003589374985,0,0,0,-77.04968789770341,116.05104736652098Z" fill-rule="evenodd" style="fill: #414552; stroke: #fff; opacity: 1;" id="p-type-ether"></path><path d="M-153.1570296992474,-75.16431502850168A170.6070045455344,170.6070045455344,0,0,1,-36.468520807201706,-166.66372427776446L-29.776422550571827,-136.08036103747594A139.30003589374985,139.30003589374985,0,0,0,-125.0521910944817,-61.37140622854611Z" fill-rule="evenodd" style="fill: #D7A449; stroke: #fff; opacity: 1;" id="p-type-tokenTransfers"></path><path d="M-36.468520807201706,-166.66372427776446A170.6070045455344,170.6070045455344,0,0,1,-6.390176729415233,-170.48728879704444L-5.217557451091457,-139.2022883944246A139.30003589374985,139.30003589374985,0,0,0,-29.776422550571827,-136.08036103747594Z" fill-rule="evenodd" style="fill: #414552; stroke: #fff; opacity: 1;" id="p-type-ether"></path><path d="M1.206277097160143e-14,-197A197,197,0,0,1,1.8450897468549567,-196.99135931260042L1.5978945930385917,-170.59952149074022A170.6070045455344,170.6070045455344,0,0,0,1.0446666101440332e-14,-170.6070045455344Z" fill-rule="evenodd" style="fill: #1DC690; stroke: #fff; opacity: 1;" id="p-type-logs"></path><path d="M1.8450897468549567,-196.99135931260042A197,197,0,0,1,3.690017637428369,-196.96543800838631L3.1956490144256033,-170.57707298279158A170.6070045455344,170.6070045455344,0,0,0,1.5978945930385917,-170.59952149074022Z" fill-rule="evenodd" style="fill: #1DC690; stroke: #fff; opacity: 1;" id="p-type-logs"></path><path d="M3.690017637428369,-196.96543800838631A197,197,0,0,1,5.5346218296373175,-196.92223836124475L4.793123104805826,-170.53966099093248A170.6070045455344,170.6070045455344,0,0,0,3.1956490144256033,-170.57707298279158Z" fill-rule="evenodd" style="fill: #1DC690; stroke: #fff; opacity: 1;" id="p-type-logs"></path><path d="M5.5346218296373175,-196.92223836124475A197,197,0,0,1,7.378740509794442,-196.86176416076617L6.390176729415326,-170.48728879704444A170.6070045455344,170.6070045455344,0,0,0,4.793123104805826,-170.53966099093248Z" fill-rule="evenodd" style="fill: #1DC690; stroke: #fff; opacity: 1;" id="p-type-logs"></path><path d="M7.378740509794442,-196.86176416076617A197,197,0,0,1,9.222211906802816,-196.78402071191152L7.986669790374566,-170.4199609953585A170.6070045455344,170.6070045455344,0,0,0,6.390176729415326,-170.48728879704444Z" fill-rule="evenodd" style="fill: #1DC690; stroke: #fff; opacity: 1;" id="p-type-logs"></path><path d="M9.222211906802816,-196.78402071191152A197,197,0,0,1,11.064874306347079,-196.68901483454724L9.58246223897829,-170.3376834920522A170.6070045455344,170.6070045455344,0,0,0,7.986669790374566,-170.4199609953585Z" fill-rule="evenodd" style="fill: #1DC690; stroke: #fff; opacity: 1;" id="p-type-logs"></path><path d="M11.064874306347079,-196.68901483454724A197,197,0,0,1,12.90656606507915,-196.57675486284677L11.177414087980704,-170.24046350473148A170.6070045455344,170.6070045455344,0,0,0,9.58246223897829,-170.3376834920522Z" fill-rule="evenodd" style="fill: #1DC690; stroke: #fff; opacity: 1;" id="p-type-logs"></path><path d="M12.90656606507915,-196.57675486284677A197,197,0,0,1,14.74712562479837,-196.44725064455957L12.77138542387585,-170.12830956179752A170.6070045455344,170.6070045455344,0,0,0,11.177414087980704,-170.24046350473148Z" fill-rule="evenodd" style="fill: #1DC690; stroke: #fff; opacity: 1;" id="p-type-logs"></path><path d="M14.74712562479837,-196.44725064455957A197,197,0,0,1,16.58639152662352,-196.3005135401473L14.364236419170924,-170.00123150169873A170.6070045455344,170.6070045455344,0,0,0,12.77138542387585,-170.12830956179752Z" fill-rule="evenodd" style="fill: #1DC690; stroke: #fff; opacity: 1;" id="p-type-logs"></path><path d="M16.58639152662352,-196.3005135401473A197,197,0,0,1,18.42420242515656,-196.13655642178705L15.955827344652445,-169.85924047206746A170.6070045455344,170.6070045455344,0,0,0,14.364236419170924,-170.00123150169873Z" fill-rule="evenodd" style="fill: #1DC690; stroke: #fff; opacity: 1;" id="p-type-logs"></path><path d="M18.42420242515656,-196.13655642178705A197,197,0,0,1,20.26039710263643,-195.95539367224237L17.546018581643782,-169.7023489287423A170.6070045455344,170.6070045455344,0,0,0,15.955827344652445,-169.85924047206746Z" fill-rule="evenodd" style="fill: #1DC690; stroke: #fff; opacity: 1;" id="p-type-logs"></path><path d="M20.26039710263643,-195.95539367224237A197,197,0,0,1,22.09481448308122,-195.75704118360142L19.134670634252675,-169.5305706346754A170.6070045455344,170.6070045455344,0,0,0,17.546018581643782,-169.7023489287423Z" fill-rule="evenodd" style="fill: #1DC690; stroke: #fff; opacity: 1;" id="p-type-logs"></path><path d="M22.09481448308122,-195.75704118360142A197,197,0,0,1,23.927293646418356,-195.54151635588303L20.721644141608287,-169.343920658725A170.6070045455344,170.6070045455344,0,0,0,19.134670634252675,-169.5305706346754Z" fill-rule="evenodd" style="fill: #1DC690; stroke: #fff; opacity: 1;" id="p-type-logs"></path><path d="M23.927293646418356,-195.54151635588303A197,197,0,0,1,25.757673842601058,-195.30883809551014L22.306799890086452,-169.1424153743337A170.6070045455344,170.6070045455344,0,0,0,20.721644141608287,-169.343920658725Z" fill-rule="evenodd" style="fill: #1DC690; stroke: #fff; opacity: 1;" id="p-type-logs"></path><path d="M25.757673842601058,-195.30883809551014A197,197,0,0,1,27.585794505709504,-195.05902681365137L23.889998825521623,-168.92607245809208A170.6070045455344,170.6070045455344,0,0,0,22.306799890086452,-169.1424153743337Z" fill-rule="evenodd" style="fill: #1DC690; stroke: #fff; opacity: 1;" id="p-type-logs"></path><path d="M27.585794505709504,-195.05902681365137A197,197,0,0,1,29.411495268036262,-194.79210442443062L25.47110206540521,-168.69491088818805A170.6070045455344,170.6070045455344,0,0,0,23.889998825521623,-168.92607245809208Z" fill-rule="evenodd" style="fill: #1DC690; stroke: #fff; opacity: 1;" id="p-type-logs"></path><path d="M29.411495268036262,-194.79210442443062A197,197,0,0,1,31.23461597415428,-194.50809434300442L27.04997091106884,-168.44895094274207A170.6070045455344,170.6070045455344,0,0,0,25.47110206540521,-168.69491088818805Z" fill-rule="evenodd" style="fill: #1DC690; stroke: #fff; opacity: 1;" id="p-type-logs"></path><path d="M31.23461597415428,-194.50809434300442A197,197,0,0,1,33.05499669496588,-194.20702148350816L28.62646685985111,-168.18821419802828A170.6070045455344,170.6070045455344,0,0,0,27.04997091106884,-168.44895094274207Z" fill-rule="evenodd" style="fill: #1DC690; stroke: #fff; opacity: 1;" id="p-type-logs"></path><path d="M33.05499669496588,-194.20702148350816A197,197,0,0,1,34.872477741732496,-193.88891225687036L30.200451617247733,-167.91272352658174A170.6070045455344,170.6070045455344,0,0,0,28.62646685985111,-168.18821419802828Z" fill-rule="evenodd" style="fill: #1DC690; stroke: #fff; opacity: 1;" id="p-type-logs"></path><path d="M34.872477741732496,-193.88891225687036A197,197,0,0,1,36.686899680082725,-193.553794568496L31.771787109042837,-167.62250309519203A170.6070045455344,170.6070045455344,0,0,0,30.200451617247733,-167.91272352658174Z" fill-rule="evenodd" style="fill: #1DC690; stroke: #fff; opacity: 1;" id="p-type-logs"></path><path d="M36.686899680082725,-193.553794568496A197,197,0,0,1,38.498103343998444,-193.20169781581842L33.3403354934213,-167.31757836278325A170.6070045455344,170.6070045455344,0,0,0,31.771787109042837,-167.62250309519203Z" fill-rule="evenodd" style="fill: #1DC690; stroke: #fff; opacity: 1;" id="p-type-logs"></path><path d="M38.498103343998444,-193.20169781581842A197,197,0,0,1,40.30592984977745,-192.83265288572062L34.90595917306077,-166.9979760781807A170.6070045455344,170.6070045455344,0,0,0,33.3403354934213,-167.31757836278325Z" fill-rule="evenodd" style="fill: #1DC690; stroke: #fff; opacity: 1;" id="p-type-logs"></path><path d="M40.30592984977745,-192.83265288572062A197,197,0,0,1,42.11022060997081,-192.44669215182574L36.46852080720176,-166.66372427776446A170.6070045455344,170.6070045455344,0,0,0,34.90595917306077,-166.9979760781807Z" fill-rule="evenodd" style="fill: #1DC690; stroke: #fff; opacity: 1;" id="p-type-logs"></path><path d="M42.11022060997081,-192.44669215182574A197,197,0,0,1,43.91081734729501,-192.04384947165713L38.02788332369589,-166.3148522830098A170.6070045455344,170.6070045455344,0,0,0,36.46852080720176,-166.66372427776446Z" fill-rule="evenodd" style="fill: #1DC690; stroke: #fff; opacity: 1;" id="p-type-logs"></path><path d="M43.91081734729501,-192.04384947165713A197,197,0,0,1,45.70756210851608,-191.62416018366824L39.58390993102994,-165.95139069791523A170.6070045455344,170.6070045455344,0,0,0,38.02788332369589,-166.3148522830098Z" fill-rule="evenodd" style="fill: #1DC690; stroke: #fff; opacity: 1;" id="p-type-logs"></path><path d="M45.70756210851608,-191.62416018366824A197,197,0,0,1,47.50029727830588,-191.18766110414285L41.13646413032572,-165.5733714063177A170.6070045455344,170.6070045455344,0,0,0,39.58390993102994,-165.95139069791523Z" fill-rule="evenodd" style="fill: #1DC690; stroke: #fff; opacity: 1;" id="p-type-logs"></path><path d="M47.50029727830588,-191.18766110414285A197,197,0,0,1,49.28886559306864,-190.73439052396506L42.685409727314195,-165.18082756909564A170.6070045455344,170.6070045455344,0,0,0,41.13646413032572,-165.5733714063177Z" fill-rule="evenodd" style="fill: #1DC690; stroke: #fff; opacity: 1;" id="p-type-logs"></path><path d="M49.28886559306864,-190.73439052396506A197,197,0,0,1,51.073110154736284,-190.2643882052608L44.2306108442826,-164.77379362126015A170.6070045455344,170.6070045455344,0,0,0,42.685409727314195,-165.18082756909564Z" fill-rule="evenodd" style="fill: #1DC690; stroke: #fff; opacity: 1;" id="p-type-logs"></path><path d="M51.073110154736284,-190.2643882052608A197,197,0,0,1,52.852874444532105,-189.77769537790925L45.77193193199415,-164.35230526893406A170.6070045455344,170.6070045455344,0,0,0,44.2306108442826,-164.77379362126015Z" fill-rule="evenodd" style="fill: #1DC690; stroke: #fff; opacity: 1;" id="p-type-logs"></path><path d="M52.852874444532105,-189.77769537790925A197,197,0,0,1,54.62800233670114,-189.27435473592658L47.30923778157886,-163.9163994862199A170.6070045455344,170.6070045455344,0,0,0,45.77193193199415,-164.35230526893406Z" fill-rule="evenodd" style="fill: #1DC690; stroke: #fff; opacity: 1;" id="p-type-logs"></path><path d="M54.62800233670114,-189.27435473592658A197,197,0,0,1,56.39833811220565,-188.7544104337203L48.84239353639419,-163.46611451195628A170.6070045455344,170.6070045455344,0,0,0,47.30923778157886,-163.9163994862199Z" fill-rule="evenodd" style="fill: #1DC690; stroke: #fff; opacity: 1;" id="p-type-logs"></path><path d="M56.39833811220565,-188.7544104337203A197,197,0,0,1,58.16372647238547,-188.21790808221604L50.37126470385527,-163.00148984636348A170.6070045455344,170.6070045455344,0,0,0,48.84239353639419,-163.46611451195628Z" fill-rule="evenodd" style="fill: #1DC690; stroke: #fff; opacity: 1;" id="p-type-logs"></path><path d="M58.16372647238547,-188.21790808221604A197,197,0,0,1,59.92401255258112,-187.66489474485658L51.89571716723283,-162.5225662475786A170.6070045455344,170.6070045455344,0,0,0,50.37126470385527,-163.00148984636348Z" fill-rule="evenodd" style="fill: #1DC690; stroke: #fff; opacity: 1;" id="p-type-logs"></path><path d="M59.92401255258112,-187.66489474485658A197,197,0,0,1,61.67904193571891,-187.09541893347316L53.41561719741829,-162.0293857280798A170.6070045455344,170.6070045455344,0,0,0,51.89571716723283,-162.5225662475786Z" fill-rule="evenodd" style="fill: #1DC690; stroke: #fff; opacity: 1;" id="p-type-logs"></path><path d="M61.67904193571891,-187.09541893347316A197,197,0,0,1,63.42866066585703,-186.5095306040299L54.93083146465498,-161.5219915510011A170.6070045455344,170.6070045455344,0,0,0,53.41561719741829,-162.0293857280798Z" fill-rule="evenodd" style="fill: #1DC690; stroke: #fff; opacity: 1;" id="p-type-logs"></path><path d="M63.42866066585703,-186.5095306040299A197,197,0,0,1,65.17271526169073,-185.90728115224155L56.441227050233955,-161.00042822633714A170.6070045455344,170.6070045455344,0,0,0,54.93083146465498,-161.5219915510011Z" fill-rule="evenodd" style="fill: #1DC690; stroke: #fff; opacity: 1;" id="p-type-logs"></path><path d="M65.17271526169073,-185.90728115224155A197,197,0,0,1,66.91105273001618,-185.288723409065L57.946671458154135,-160.46474150703867A170.6070045455344,170.6070045455344,0,0,0,56.441227050233955,-161.00042822633714Z" fill-rule="evenodd" style="fill: #1DC690; stroke: #fff; opacity: 1;" id="p-type-logs"></path><path d="M66.91105273001618,-185.288723409065A197,197,0,0,1,68.64352057915167,-184.6539116360647L59.44703262674525,-159.91497838499896A170.6070045455344,170.6070045455344,0,0,0,57.946671458154135,-160.46474150703867Z" fill-rule="evenodd" style="fill: #1DC690; stroke: #fff; opacity: 1;" id="p-type-logs"></path><path d="M68.64352057915167,-184.6539116360647A197,197,0,0,1,70.36996683231428,-184.00290152065264L60.942178940252525,-159.3511870869315A170.6070045455344,170.6070045455344,0,0,0,59.44703262674525,-159.91497838499896Z" fill-rule="evenodd" style="fill: #1DC690; stroke: #fff; opacity: 1;" id="p-type-logs"></path><path d="M70.36996683231428,-184.00290152065264A197,197,0,0,1,72.09024004095184,-183.3357501712035L62.43197924038242,-158.7734170701395A170.6070045455344,170.6070045455344,0,0,0,60.942178940252525,-159.3511870869315Z" fill-rule="evenodd" style="fill: #1DC690; stroke: #fff; opacity: 1;" id="p-type-logs"></path><path d="M72.09024004095184,-183.3357501712035A197,197,0,0,1,73.80418929802846,-182.6525161120448L63.916302837808246,-158.18171901817726A170.6070045455344,170.6070045455344,0,0,0,62.43197924038242,-158.7734170701395Z" fill-rule="evenodd" style="fill: #1DC690; stroke: #fff; opacity: 1;" id="p-type-logs"></path><path d="M73.80418929802846,-182.6525161120448A197,197,0,0,1,75.51166425126237,-181.95325927832297L65.39501952363446,-157.57614483640432A170.6070045455344,170.6070045455344,0,0,0,63.916302837808246,-158.18171901817726Z" fill-rule="evenodd" style="fill: #1DC690; stroke: #fff; opacity: 1;" id="p-type-logs"></path><path d="M75.51166425126237,-181.95325927832297A197,197,0,0,1,77.21251511631546,-181.23804101074575L66.86799958081916,-156.95674764743174A170.6070045455344,170.6070045455344,0,0,0,65.39501952363446,-157.57614483640432Z" fill-rule="evenodd" style="fill: #1DC690; stroke: #fff; opacity: 1;" id="p-type-logs"></path><path d="M77.21251511631546,-181.23804101074575A197,197,0,0,1,78.90659268993245,-180.5069240502012L68.33511379555299,-156.32358178646248A170.6070045455344,170.6070045455344,0,0,0,66.86799958081916,-156.95674764743174Z" fill-rule="evenodd" style="fill: #1DC690; stroke: #fff; opacity: 1;" id="p-type-logs"></path><path d="M78.90659268993245,-180.5069240502012A197,197,0,0,1,80.59374836302963,-179.75997253225384L69.79623346859418,-155.67670279652475A170.6070045455344,170.6070045455344,0,0,0,68.33511379555299,-156.32358178646248Z" fill-rule="evenodd" style="fill: #1DC690; stroke: #fff; opacity: 1;" id="p-type-logs"></path><path d="M80.59374836302963,-179.75997253225384A197,197,0,0,1,82.27383413373127,-178.99725198151862L71.25123042655855,-155.01616742359957A170.6070045455344,170.6070045455344,0,0,0,69.79623346859418,-155.67670279652475Z" fill-rule="evenodd" style="fill: #1DC690; stroke: #fff; opacity: 1;" id="p-type-logs"></path><path d="M82.27383413373127,-178.99725198151862A197,197,0,0,1,83.94670262035258,-178.21882930591283L72.69997703316304,-154.3420336116431A170.6070045455344,170.6070045455344,0,0,0,71.25123042655855,-155.01616742359957Z" fill-rule="evenodd" style="fill: #1DC690; stroke: #fff; opacity: 1;" id="p-type-logs"></path><path d="M83.94670262035258,-178.21882930591283A197,197,0,0,1,85.61220707432855,-177.4247727907867L74.14234620042235,-153.65436049750335A170.6070045455344,170.6070045455344,0,0,0,72.69997703316304,-154.3420336116431Z" fill-rule="evenodd" style="fill: #1DC690; stroke: #fff; opacity: 1;" id="p-type-logs"></path><path d="M85.61220707432855,-177.4247727907867A197,197,0,0,1,87.27020139308709,-176.61515209293347L75.57821139979752,-152.95320840573274A170.6070045455344,170.6070045455344,0,0,0,74.14234620042235,-153.65436049750335Z" fill-rule="evenodd" style="fill: #1DC690; stroke: #fff; opacity: 1;" id="p-type-logs"></path><path d="M87.27020139308709,-176.61515209293347A197,197,0,0,1,88.92054013286555,-175.7900382344786L77.00744667329526,-152.23863884329623A170.6070045455344,170.6070045455344,0,0,0,75.57821139979752,-152.95320840573274Z" fill-rule="evenodd" style="fill: #1DC690; stroke: #fff; opacity: 1;" id="p-type-logs"></path><path d="M88.92054013286555,-175.7900382344786A197,197,0,0,1,90.56307852146954,-174.9495035966497L78.42992664451748,-151.51071449417563A170.6070045455344,170.6070045455344,0,0,0,77.00744667329526,-152.23863884329623Z" fill-rule="evenodd" style="fill: #1DC690; stroke: #fff; opacity: 1;" id="p-type-logs"></path><path d="M90.56307852146954,-174.9495035966497A197,197,0,0,1,92.19767247097256,-174.093621913427L79.84552652965944,-150.769499213871A170.6070045455344,170.6070045455344,0,0,0,78.42992664451748,-151.51071449417563Z" fill-rule="evenodd" style="fill: #1DC690; stroke: #fff; opacity: 1;" id="p-type-logs"></path><path d="M92.19767247097256,-174.093621913427A197,197,0,0,1,93.82417859035586,-173.22246826507526L81.25412214845622,-150.0150580237989A170.6070045455344,170.6070045455344,0,0,0,79.84552652965944,-150.769499213871Z" fill-rule="evenodd" style="fill: #1DC690; stroke: #fff; opacity: 1;" id="p-type-logs"></path><path d="M93.82417859035586,-173.22246826507526A197,197,0,0,1,95.4424541980872,-172.33611907155745L82.65558993507626,-149.24745710558864A170.6070045455344,170.6070045455344,0,0,0,81.25412214845622,-150.0150580237989Z" fill-rule="evenodd" style="fill: #1DC690; stroke: #fff; opacity: 1;" id="p-type-logs"></path><path d="M95.4424541980872,-172.33611907155745A197,197,0,0,1,97.05235733463711,-171.43465208583098L84.04980694896072,-148.46676379527653A170.6070045455344,170.6070045455344,0,0,0,82.65558993507626,-149.24745710558864Z" fill-rule="evenodd" style="fill: #1DC690; stroke: #fff; opacity: 1;" id="p-type-logs"></path><path d="M97.05235733463711,-171.43465208583098A197,197,0,0,1,98.65374677493195,-170.5181463870271L85.4366508856082,-147.67304657739916A170.6070045455344,170.6070045455344,0,0,0,84.04980694896072,-148.46676379527653Z" fill-rule="evenodd" style="fill: #1DC690; stroke: #fff; opacity: 1;" id="p-type-logs"></path><path d="M98.65374677493195,-170.5181463870271A197,197,0,0,1,100.24648204074278,-169.58668237351375L86.81600008730373,-146.86637507898558A170.6070045455344,170.6070045455344,0,0,0,85.4366508856082,-147.67304657739916Z" fill-rule="evenodd" style="fill: #1DC690; stroke: #fff; opacity: 1;" id="p-type-logs"></path><path d="M100.24648204074278,-169.58668237351375A197,197,0,0,1,101.83042341300822,-168.64034175584283L88.18773355379079,-146.0468200634495A170.6070045455344,170.6070045455344,0,0,0,86.81600008730373,-146.86637507898558Z" fill-rule="evenodd" style="fill: #1DC690; stroke: #fff; opacity: 1;" id="p-type-logs"></path><path d="M101.83042341300822,-168.64034175584283A197,197,0,0,1,103.40543194409118,-167.67920754958237L89.55173095288585,-145.21445342438176A170.6070045455344,170.6070045455344,0,0,0,88.18773355379079,-146.0468200634495Z" fill-rule="evenodd" style="fill: #1DC690; stroke: #fff; opacity: 1;" id="p-type-logs"></path><path d="M103.40543194409118,-167.67920754958237A197,197,0,0,1,104.97136946996754,-166.70336406803423L90.90787263103414,-144.36934817924362A170.6070045455344,170.6070045455344,0,0,0,89.55173095288585,-145.21445342438176Z" fill-rule="evenodd" style="fill: #1DC690; stroke: #fff; opacity: 1;" id="p-type-logs"></path><path d="M104.97136946996754,-166.70336406803423A197,197,0,0,1,106.52809862234652,-165.71289691483767L92.25603962380615,-143.51157846296135A170.6070045455344,170.6070045455344,0,0,0,90.90787263103414,-144.36934817924362Z" fill-rule="evenodd" style="fill: #1DC690; stroke: #fff; opacity: 1;" id="p-type-logs"></path><path d="M106.52809862234652,-165.71289691483767A197,197,0,0,1,108.07548284072078,-164.70789297646022L93.59611366633338,-142.64121952142307A170.6070045455344,170.6070045455344,0,0,0,92.25603962380615,-143.51157846296135Z" fill-rule="evenodd" style="fill: #1DC690; stroke: #fff; opacity: 1;" id="p-type-logs"></path><path d="M108.07548284072078,-164.70789297646022A197,197,0,0,1,109.61338638434597,-163.68844041457564L94.9279772036829,-141.7583477048779A170.6070045455344,170.6070045455344,0,0,0,93.59611366633338,-142.64121952142307Z" fill-rule="evenodd" style="fill: #1DC690; stroke: #fff; opacity: 1;" id="p-type-logs"></path><path d="M109.61338638434597,-163.68844041457564A197,197,0,0,1,111.14167434414826,-162.6546286583302L96.25151340116957,-140.86304046123834A170.6070045455344,170.6070045455344,0,0,0,94.9279772036829,-141.7583477048779Z" fill-rule="evenodd" style="fill: #1DC690; stroke: #fff; opacity: 1;" id="p-type-logs"></path><path d="M111.14167434414826,-162.6546286583302A197,197,0,0,1,112.66021265455896,-161.60654839649771L97.56660615460515,-139.95537632928634A170.6070045455344,170.6070045455344,0,0,0,96.25151340116957,-140.86304046123834Z" fill-rule="evenodd" style="fill: #1DC690; stroke: #fff; opacity: 1;" id="p-type-logs"></path><path d="M112.66021265455896,-161.60654839649771A197,197,0,0,1,114.1688681052751,-160.5442915695239L98.87314010048317,-139.03543493178358A170.6070045455344,170.6070045455344,0,0,0,97.56660615460515,-139.95537632928634Z" fill-rule="evenodd" style="fill: #1DC690; stroke: #fff; opacity: 1;" id="p-type-logs"></path><path d="M114.1688681052751,-160.5442915695239A197,197,0,0,1,115.6675083529449,-159.4679513614614L100.17100062609904,-138.10329696848683A170.6070045455344,170.6070045455344,0,0,0,98.87314010048317,-139.03543493178358Z" fill-rule="evenodd" style="fill: #1DC690; stroke: #fff; opacity: 1;" id="p-type-logs"></path><path d="M115.6675083529449,-159.4679513614614A197,197,0,0,1,117.15600193277753,-158.3776221917952L101.46007387960412,-137.15904420906872A170.6070045455344,170.6070045455344,0,0,0,100.17100062609904,-138.10329696848683Z" fill-rule="evenodd" style="fill: #1DC690; stroke: #fff; opacity: 1;" id="p-type-logs"></path><path d="M117.15600193277753,-158.3776221917952A197,197,0,0,1,118.63421827007531,-157.27339970716005L102.7402467799932,-136.2027594859447A170.6070045455344,170.6070045455344,0,0,0,101.46007387960412,-137.15904420906872Z" fill-rule="evenodd" style="fill: #1DC690; stroke: #fff; opacity: 1;" id="p-type-logs"></path><path d="M118.63421827007531,-157.27339970716005A197,197,0,0,1,120.10202769168816,-156.1553807729499L104.01140702702408,-135.2345266870067A170.6070045455344,170.6070045455344,0,0,0,102.7402467799932,-136.2027594859447Z" fill-rule="evenodd" style="fill: #1DC690; stroke: #fff; opacity: 1;" id="p-type-logs"></path><path d="M120.10202769168816,-156.1553807729499A197,197,0,0,1,121.55930143738898,-155.02366346482077L105.27344311106908,-134.25443074826433A170.6070045455344,170.6070045455344,0,0,0,104.01140702702408,-135.2345266870067Z" fill-rule="evenodd" style="fill: #1DC690; stroke: #fff; opacity: 1;" id="p-type-logs"></path><path d="M121.55930143738898,-155.02366346482077A197,197,0,0,1,123.00591167116866,-153.87834706008724L106.52624432289683,-133.26255764639401A170.6070045455344,170.6070045455344,0,0,0,105.27344311106908,-134.25443074826433Z" fill-rule="evenodd" style="fill: #1DC690; stroke: #fff; opacity: 1;" id="p-type-logs"></path><path d="M123.00591167116866,-153.87834706008724A197,197,0,0,1,124.44173149245039,-152.7195320290135L107.76970076338404,-132.25899439119692A170.6070045455344,170.6070045455344,0,0,0,106.52624432289683,-133.26255764639401Z" fill-rule="evenodd" style="fill: #1DC690; stroke: #fff; opacity: 1;" id="p-type-logs"></path><path d="M124.44173149245039,-152.7195320290135A197,197,0,0,1,125.8666349472216,-151.54732002599997L109.00370335315613,-131.24382901796616A170.6070045455344,170.6070045455344,0,0,0,107.76970076338404,-132.25899439119692Z" fill-rule="evenodd" style="fill: #1DC690; stroke: #fff; opacity: 1;" id="p-type-logs"></path><path d="M125.8666349472216,-151.54732002599997A197,197,0,0,1,127.28049703908303,-150.36181388066578L110.22814384215593,-130.2171505797642A170.6070045455344,170.6070045455344,0,0,0,109.00370335315613,-131.24382901796616Z" fill-rule="evenodd" style="fill: #1DC690; stroke: #fff; opacity: 1;" id="p-type-logs"></path><path d="M127.28049703908303,-150.36181388066578A197,197,0,0,1,128.68319374021374,-149.1631175888283L111.44291481913974,-129.17904913961073A170.6070045455344,170.6070045455344,0,0,0,110.22814384215593,-130.2171505797642Z" fill-rule="evenodd" style="fill: #1DC690; stroke: #fff; opacity: 1;" id="p-type-logs"></path><path d="M128.68319374021374,-149.1631175888283A197,197,0,0,1,130.0746020022512,-147.95133630338037L112.64790972109974,-128.12961576258226A170.6070045455344,170.6070045455344,0,0,0,111.44291481913974,-129.17904913961073Z" fill-rule="evenodd" style="fill: #1DC690; stroke: #fff; opacity: 1;" id="p-type-logs"></path><path d="M130.0746020022512,-147.95133630338037A197,197,0,0,1,131.45459976708534,-146.72657632506596L113.84302284261184,-127.06894250782351A170.6070045455344,170.6070045455344,0,0,0,112.64790972109974,-128.12961576258226Z" fill-rule="evenodd" style="fill: #1DC690; stroke: #fff; opacity: 1;" id="p-type-logs"></path><path d="M131.45459976708534,-146.72657632506596A197,197,0,0,1,132.82306597756596,-145.48894509315534L115.02814934510869,-125.99712242047187A170.6070045455344,170.6070045455344,0,0,0,113.84302284261184,-127.06894250782351Z" fill-rule="evenodd" style="fill: #1DC690; stroke: #fff; opacity: 1;" id="p-type-logs"></path><path d="M132.82306597756596,-145.48894509315534A197,197,0,0,1,134.17988058812207,-144.23855117601988L116.20318526607618,-124.91424952349502A170.6070045455344,170.6070045455344,0,0,0,115.02814934510869,-125.99712242047187Z" fill-rule="evenodd" style="fill: #1DC690; stroke: #fff; opacity: 1;" id="p-type-logs"></path><path d="M134.17988058812207,-144.23855117601988A197,197,0,0,1,135.5249245752927,-142.97550426160848L117.36802752817344,-123.82041880944321A170.6070045455344,170.6070045455344,0,0,0,116.20318526607618,-124.91424952349502Z" fill-rule="evenodd" style="fill: #1DC690; stroke: #fff; opacity: 1;" id="p-type-logs"></path><path d="M135.5249245752927,-142.97550426160848A197,197,0,0,1,136.85807994816784,-141.69991514782535L118.52257394827502,-122.71572623211614A170.6070045455344,170.6070045455344,0,0,0,117.36802752817344,-123.82041880944321Z" fill-rule="evenodd" style="fill: #1DC690; stroke: #fff; opacity: 1;" id="p-type-logs"></path><path d="M136.85807994816784,-141.69991514782535A197,197,0,0,1,138.17922975873904,-140.41189573281036L119.66672324643469,-121.60026869814558A170.6070045455344,170.6070045455344,0,0,0,118.52257394827502,-122.71572623211614Z" fill-rule="evenodd" style="fill: #1DC690; stroke: #fff; opacity: 1;" id="p-type-logs"></path><path d="M138.17922975873904,-140.41189573281036A197,197,0,0,1,139.48825811215838,-139.1115590051232L120.80037505476996,-120.47414405849459A170.6070045455344,170.6070045455344,0,0,0,119.66672324643469,-121.60026869814558Z" fill-rule="evenodd" style="fill: #1DC690; stroke: #fff; opacity: 1;" id="p-type-logs"></path><path d="M139.48825811215838,-139.1115590051232A197,197,0,0,1,140.7850501769051,-137.7990190338317L121.92342992626668,-119.33745109987365A170.6070045455344,170.6070045455344,0,0,0,120.80037505476996,-120.47414405849459Z" fill-rule="evenodd" style="fill: #1DC690; stroke: #fff; opacity: 1;" id="p-type-logs"></path><path d="M140.7850501769051,-137.7990190338317A197,197,0,0,1,142.0694921948588,-136.47439095850532L123.03578934350274,-118.19028953607491A170.6070045455344,170.6070045455344,0,0,0,121.92342992626668,-119.33745109987365Z" fill-rule="evenodd" style="fill: #1DC690; stroke: #fff; opacity: 1;" id="p-type-logs"></path><path d="M142.0694921948588,-136.47439095850532A197,197,0,0,1,143.34147149127878,-135.13779097911478L124.1373557272903,-117.03275999922494A170.6070045455344,170.6070045455344,0,0,0,123.03578934350274,-118.19028953607491Z" fill-rule="evenodd" style="fill: #1DC690; stroke: #fff; opacity: 1;" id="p-type-logs"></path><path d="M143.34147149127878,-135.13779097911478A197,197,0,0,1,144.60087648468811,-133.78933634583876L125.22803244523575,-115.86496403095708A170.6070045455344,170.6070045455344,0,0,0,124.1373557272903,-117.03275999922494Z" fill-rule="evenodd" style="fill: #1DC690; stroke: #fff; opacity: 1;" id="p-type-logs"></path><path d="M144.60087648468811,-133.78933634583876A197,197,0,0,1,145.84759669666184,-132.4291453487784L126.30772382021654,-114.68700407350393A170.6070045455344,170.6070045455344,0,0,0,125.22803244523575,-115.86496403095708Z" fill-rule="evenodd" style="fill: #1DC690; stroke: #fff; opacity: 1;" id="p-type-logs"></path><path d="M145.84759669666184,-132.4291453487784A197,197,0,0,1,147.08152276151847,-131.05733730758044L127.37633513877412,-113.49898346071073A170.6070045455344,170.6070045455344,0,0,0,126.30772382021654,-114.68700407350393Z" fill-rule="evenodd" style="fill: #1DC690; stroke: #fff; opacity: 1;" id="p-type-logs"></path><path d="M147.08152276151847,-131.05733730758044A197,197,0,0,1,148.30254643591388,-129.6740325609704L128.43377265942277,-112.30100640897084A170.6070045455344,170.6070045455344,0,0,0,127.37633513877412,-113.49898346071073Z" fill-rule="evenodd" style="fill: #1DC690; stroke: #fff; opacity: 1;" id="p-type-logs"></path><path d="M148.30254643591388,-129.6740325609704A197,197,0,0,1,149.51056060833653,-128.27935245619588L129.47994362087243,-111.09317800808337A170.6070045455344,170.6070045455344,0,0,0,128.43377265942277,-112.30100640897084Z" fill-rule="evenodd" style="fill: #1DC690; stroke: #fff; opacity: 1;" id="p-type-logs"></path><path d="M149.51056060833653,-128.27935245619588A197,197,0,0,1,150.70545930850386,-126.87341933838185L130.51475625016636,-109.87560421203455A170.6070045455344,170.6070045455344,0,0,0,129.47994362087243,-111.09317800808337Z" fill-rule="evenodd" style="fill: #1DC690; stroke: #fff; opacity: 1;" id="p-type-logs"></path><path d="M150.70545930850386,-126.87341933838185A197,197,0,0,1,151.8871377166581,-125.45635653979811L131.53811977073147,-108.64839182970314A170.6070045455344,170.6070045455344,0,0,0,130.51475625016636,-109.87560421203455Z" fill-rule="evenodd" style="fill: #1DC690; stroke: #fff; opacity: 1;" id="p-type-logs"></path><path d="M151.8871377166581,-125.45635653979811A197,197,0,0,1,153.05549217276132,-124.02828836904025L132.5499444103416,-107.41164851549088A170.6070045455344,170.6070045455344,0,0,0,131.53811977073147,-108.64839182970314Z" fill-rule="evenodd" style="fill: #1DC690; stroke: #fff; opacity: 1;" id="p-type-logs"></path><path d="M153.05549217276132,-124.02828836904025A197,197,0,0,1,154.21042018558887,-122.58934010012504L133.55014140899254,-106.16548275987866A170.6070045455344,170.6070045455344,0,0,0,132.5499444103416,-107.41164851549088Z" fill-rule="evenodd" style="fill: #1DC690; stroke: #fff; opacity: 1;" id="p-type-logs"></path><path d="M154.21042018558887,-122.58934010012504A197,197,0,0,1,155.35182044172018,-121.13963796150097L134.53862302668833,-104.91000387990958A170.6070045455344,170.6070045455344,0,0,0,133.55014140899254,-106.16548275987866Z" fill-rule="evenodd" style="fill: #1DC690; stroke: #fff; opacity: 1;" id="p-type-logs"></path><path d="M155.35182044172018,-121.13963796150097A197,197,0,0,1,156.47959281442627,-119.67930912497513L135.51530255113803,-103.64532200959924A170.6070045455344,170.6070045455344,0,0,0,134.53862302668833,-104.91000387990958Z" fill-rule="evenodd" style="fill: #1DC690; stroke: #fff; opacity: 1;" id="p-type-logs"></path><path d="M156.47959281442627,-119.67930912497513A197,197,0,0,1,157.59363837245292,-118.2084816945575L136.48009430536234,-102.37154809027459A170.6070045455344,170.6070045455344,0,0,0,135.51530255113803,-103.64532200959924Z" fill-rule="evenodd" style="fill: #1DC690; stroke: #fff; opacity: 1;" id="p-type-logs"></path><path d="M157.59363837245292,-118.2084816945575A197,197,0,0,1,158.6938593886995,-116.7272846952231L137.4329136552094,-101.08879386084172A170.6070045455344,170.6070045455344,0,0,0,136.48009430536234,-102.37154809027459Z" fill-rule="evenodd" style="fill: #1DC690; stroke: #fff; opacity: 1;" id="p-type-logs"></path><path d="M158.6938593886995,-116.7272846952231A197,197,0,0,1,159.7801593487917,-115.23584806159379L138.37367701677928,-99.79717184798398A170.6070045455344,170.6070045455344,0,0,0,137.4329136552094,-101.08879386084172Z" fill-rule="evenodd" style="fill: #1DC690; stroke: #fff; opacity: 1;" id="p-type-logs"></path><path d="M159.7801593487917,-115.23584806159379A197,197,0,0,1,160.85244295954803,-113.73430262653986L139.30230186375596,-98.49679535629072A170.6070045455344,170.6070045455344,0,0,0,138.37367701677928,-99.79717184798398Z" fill-rule="evenodd" style="fill: #1DC690; stroke: #fff; opacity: 1;" id="p-type-logs"></path><path d="M160.85244295954803,-113.73430262653986A197,197,0,0,1,161.91061615733918,-112.22278010970314L140.2187067346469,-97.18777845831792A170.6070045455344,170.6070045455344,0,0,0,139.30230186375596,-98.49679535629072Z" fill-rule="evenodd" style="fill: #1DC690; stroke: #fff; opacity: 1;" id="p-type-logs"></path><path d="M184.46760887768133,69.14261547664208A197,197,0,0,1,183.81193244199432,70.8672949387778L159.18580301347606,61.37287771446594A170.6070045455344,170.6070045455344,0,0,0,159.75363546344386,59.87926148687113Z" fill-rule="evenodd" style="fill: #D7A449; stroke: #fff; opacity: 1;" id="p-type-tokenTransfers"></path><path d="M183.81193244199432,70.8672949387778A197,197,0,0,1,183.1401315245962,72.58575772941688L158.60400635272362,62.8611101466177A170.6070045455344,170.6070045455344,0,0,0,159.18580301347606,61.37287771446594Z" fill-rule="evenodd" style="fill: #D7A449; stroke: #fff; opacity: 1;" id="p-type-tokenTransfers"></path><path d="M183.1401315245962,72.58575772941688A197,197,0,0,1,182.45226505768724,74.29785310033819L158.00829651796903,64.34382823153729A170.6070045455344,170.6070045455344,0,0,0,158.60400635272362,62.8611101466177Z" fill-rule="evenodd" style="fill: #D7A449; stroke: #fff; opacity: 1;" id="p-type-tokenTransfers"></path><path d="M182.45226505768724,74.29785310033819A197,197,0,0,1,181.7483933827813,76.00343086188794L157.39872576649617,65.82090190116917A170.6070045455344,170.6070045455344,0,0,0,158.00829651796903,64.34382823153729Z" fill-rule="evenodd" style="fill: #D7A449; stroke: #fff; opacity: 1;" id="p-type-tokenTransfers"></path><path d="M181.7483933827813,76.00343086188794A197,197,0,0,1,181.02857824541246,77.70234139615474L156.77534757150616,67.29220158260121A170.6070045455344,170.6070045455344,0,0,0,157.39872576649617,65.82090190116917Z" fill-rule="evenodd" style="fill: #D7A449; stroke: #fff; opacity: 1;" id="p-type-tokenTransfers"></path><path d="M181.02857824541246,77.70234139615474A197,197,0,0,1,180.29288278971867,79.39443567009442L156.1382166174266,68.75759820943117A170.6070045455344,170.6070045455344,0,0,0,156.77534757150616,67.29220158260121Z" fill-rule="evenodd" style="fill: #D7A449; stroke: #fff; opacity: 1;" id="p-type-tokenTransfers"></path><path d="M180.29288278971867,79.39443567009442A197,197,0,0,1,179.54137155290255,81.07956524860377L155.48738879511436,70.21696323308882A170.6070045455344,170.6070045455344,0,0,0,156.1382166174266,68.75759820943117Z" fill-rule="evenodd" style="fill: #D7A449; stroke: #fff; opacity: 1;" id="p-type-tokenTransfers"></path><path d="M179.54137155290255,81.07956524860377A197,197,0,0,1,178.7741104595699,82.75758230754148L154.82292119695285,71.67016863411251A170.6070045455344,170.6070045455344,0,0,0,155.48738879511436,70.21696323308882Z" fill-rule="evenodd" style="fill: #D7A449; stroke: #fff; opacity: 1;" id="p-type-tokenTransfers"></path><path d="M178.7741104595699,82.75758230754148A197,197,0,0,1,177.99116681594674,84.42833964669576L154.14487211184365,73.11708693337943A170.6070045455344,170.6070045455344,0,0,0,154.82292119695285,71.67016863411251Z" fill-rule="evenodd" style="fill: #D7A449; stroke: #fff; opacity: 1;" id="p-type-tokenTransfers"></path><path d="M177.99116681594674,84.42833964669576A197,197,0,0,1,177.19260930397496,86.09169070269725L153.4533010200932,74.55759120328838A170.6070045455344,170.6070045455344,0,0,0,154.14487211184365,73.11708693337943Z" fill-rule="evenodd" style="fill: #D7A449; stroke: #fff; opacity: 1;" id="p-type-tokenTransfers"></path><path d="M177.19260930397496,86.09169070269725A197,197,0,0,1,176.37850797528733,87.74748956187577L152.74826858819503,75.99155507889428A170.6070045455344,170.6070045455344,0,0,0,153.4533010200932,74.55759120328838Z" fill-rule="evenodd" style="fill: #D7A449; stroke: #fff; opacity: 1;" id="p-type-tokenTransfers"></path><path d="M176.37850797528733,87.74748956187577A197,197,0,0,1,175.54893424506253,89.39559097306038L152.02983666350815,77.41885276899313A170.6070045455344,170.6070045455344,0,0,0,152.74826858819503,75.99155507889428Z" fill-rule="evenodd" style="fill: #D7A449; stroke: #fff; opacity: 1;" id="p-type-tokenTransfers"></path><path d="M175.54893424506253,89.39559097306038A197,197,0,0,1,174.70396088576015,91.03585036032115L151.2980682688312,78.83935906715686A170.6070045455344,170.6070045455344,0,0,0,152.02983666350815,77.41885276899313Z" fill-rule="evenodd" style="fill: #D7A449; stroke: #fff; opacity: 1;" id="p-type-tokenTransfers"></path><path d="M174.70396088576015,91.03585036032115A197,197,0,0,1,173.84366202073718,92.66812383565181L150.5530275968744,80.25294936271672A170.6070045455344,170.6070045455344,0,0,0,151.2980682688312,78.83935906715686Z" fill-rule="evenodd" style="fill: #D7A449; stroke: #fff; opacity: 1;" id="p-type-tokenTransfers"></path><path d="M173.84366202073718,92.66812383565181A197,197,0,0,1,172.96811311774553,94.29226821159192L149.79478000462802,81.65949965169447A170.6070045455344,170.6070045455344,0,0,0,150.5530275968744,80.25294936271672Z" fill-rule="evenodd" style="fill: #D7A449; stroke: #fff; opacity: 1;" id="p-type-tokenTransfers"></path><path d="M172.96811311774553,94.29226821159192A197,197,0,0,1,172.0773909823118,95.90814101378776L149.0233920076293,83.05888654768042A170.6070045455344,170.6070045455344,0,0,0,149.79478000462802,81.65949965169447Z" fill-rule="evenodd" style="fill: #D7A449; stroke: #fff; opacity: 1;" id="p-type-tokenTransfers"></path><path d="M172.0773909823118,95.90814101378776A197,197,0,0,1,171.1715737509998,97.51560049349045L148.23893127412742,84.45098729265708A170.6070045455344,170.6070045455344,0,0,0,149.0233920076293,83.05888654768042Z" fill-rule="evenodd" style="fill: #D7A449; stroke: #fff; opacity: 1;" id="p-type-tokenTransfers"></path><path d="M171.1715737509998,97.51560049349045A197,197,0,0,1,170.2507408845561,99.11450563999068L147.44146661914752,85.83567976776794A170.6070045455344,170.6070045455344,0,0,0,148.23893127412742,84.45098729265708Z" fill-rule="evenodd" style="fill: #D7A449; stroke: #fff; opacity: 1;" id="p-type-tokenTransfers"></path><path d="M170.2507408845561,99.11450563999068A197,197,0,0,1,169.3149731609395,100.70471619298839L146.631067998454,87.21284250403005A170.6070045455344,170.6070045455344,0,0,0,147.44146661914752,85.83567976776794Z" fill-rule="evenodd" style="fill: #D7A449; stroke: #fff; opacity: 1;" id="p-type-tokenTransfers"></path><path d="M169.3149731609395,100.70471619298839A197,197,0,0,1,168.3643526682351,102.28609265489689L145.80780650241394,88.58235469298958A170.6070045455344,170.6070045455344,0,0,0,146.631067998454,87.21284250403005Z" fill-rule="evenodd" style="fill: #D7A449; stroke: #fff; opacity: 1;" id="p-type-tokenTransfers"></path><path d="M168.3643526682351,102.28609265489689A197,197,0,0,1,167.3989627974532,103.85849630307999L144.97175434976063,89.94409619731947A170.6070045455344,170.6070045455344,0,0,0,145.80780650241394,88.58235469298958Z" fill-rule="evenodd" style="fill: #D7A449; stroke: #fff; opacity: 1;" id="p-type-tokenTransfers"></path><path d="M167.3989627974532,103.85849630307999A197,197,0,0,1,166.41888823521398,105.42178920202102L144.12298488125856,91.29794756135823A170.6070045455344,170.6070045455344,0,0,0,144.97175434976063,89.94409619731947Z" fill-rule="evenodd" style="fill: #D7A449; stroke: #fff; opacity: 1;" id="p-type-tokenTransfers"></path><path d="M166.41888823521398,105.42178920202102A197,197,0,0,1,165.4242149563187,106.97583421542296L143.26157255326967,92.64379002158884A170.6070045455344,170.6070045455344,0,0,0,144.12298488125856,91.29794756135823Z" fill-rule="evenodd" style="fill: #D7A449; stroke: #fff; opacity: 1;" id="p-type-tokenTransfers"></path><path d="M165.4242149563187,106.97583421542296A197,197,0,0,1,164.41503021620764,108.52049501823853L142.3875929312219,93.98150551705719A170.6070045455344,170.6070045455344,0,0,0,143.26157255326967,92.64379002158884Z" fill-rule="evenodd" style="fill: #D7A449; stroke: #fff; opacity: 1;" id="p-type-tokenTransfers"></path><path d="M164.41503021620764,108.52049501823853A197,197,0,0,1,163.39142254330582,110.0556361086287L141.50112268298025,95.31097669972841A170.6070045455344,170.6070045455344,0,0,0,142.3875929312219,93.98150551705719Z" fill-rule="evenodd" style="fill: #D7A449; stroke: #fff; opacity: 1;" id="p-type-tokenTransfers"></path><path d="M163.39142254330582,110.0556361086287A197,197,0,0,1,162.35348173125712,111.58112281984958L140.60223957212142,96.63208694478126A170.6070045455344,170.6070045455344,0,0,0,141.50112268298025,95.31097669972841Z" fill-rule="evenodd" style="fill: #D7A449; stroke: #fff; opacity: 1;" id="p-type-tokenTransfers"></path><path d="M162.35348173125712,111.58112281984958A197,197,0,0,1,161.30129883104732,113.09682133206562L139.69102245111216,97.94472036083864A170.6070045455344,170.6070045455344,0,0,0,140.60223957212142,96.63208694478126Z" fill-rule="evenodd" style="fill: #D7A449; stroke: #fff; opacity: 1;" id="p-type-tokenTransfers"></path><path d="M161.30129883104732,113.09682133206562A197,197,0,0,1,160.23496614301678,114.6025986840886L138.76755125439195,99.2487618001338A170.6070045455344,170.6070045455344,0,0,0,139.69102245111216,97.94472036083864Z" fill-rule="evenodd" style="fill: #D7A449; stroke: #fff; opacity: 1;" id="p-type-tokenTransfers"></path><path d="M160.23496614301678,114.6025986840886A197,197,0,0,1,159.15457720876367,116.09832278504149L137.83190699136117,100.54409686861165A170.6070045455344,170.6070045455344,0,0,0,138.76755125439195,99.2487618001338Z" fill-rule="evenodd" style="fill: #D7A449; stroke: #fff; opacity: 1;" id="p-type-tokenTransfers"></path><path d="M159.15457720876367,116.09832278504149A197,197,0,0,1,158.0602268029383,117.58386242594563L136.8841717392746,101.83061193596343A170.6070045455344,170.6070045455344,0,0,0,137.83190699136117,100.54409686861165Z" fill-rule="evenodd" style="fill: #D7A449; stroke: #fff; opacity: 1;" id="p-type-tokenTransfers"></path><path d="M158.0602268029383,117.58386242594563A197,197,0,0,1,156.95201092492906,119.05908729123095L135.9244286360413,103.10819414559501A170.6070045455344,170.6070045455344,0,0,0,136.8841717392746,101.83061193596343Z" fill-rule="evenodd" style="fill: #D7A449; stroke: #fff; opacity: 1;" id="p-type-tokenTransfers"></path><path d="M156.95201092492906,119.05908729123095A197,197,0,0,1,155.8300267904413,120.52386797016742L134.9527618729318,104.37673142452661A170.6070045455344,170.6070045455344,0,0,0,135.9244286360413,103.10819414559501Z" fill-rule="evenodd" style="fill: #D7A449; stroke: #fff; opacity: 1;" id="p-type-tokenTransfers"></path><path d="M155.8300267904413,120.52386797016742A197,197,0,0,1,154.69437282296917,121.97807596821742L133.96925668719237,105.63611249322443A170.6070045455344,170.6070045455344,0,0,0,134.9527618729318,104.37673142452661Z" fill-rule="evenodd" style="fill: #D7A449; stroke: #fff; opacity: 1;" id="p-type-tokenTransfers"></path><path d="M154.69437282296917,121.97807596821742A197,197,0,0,1,153.54514864516165,123.42158371830762L132.97399935456775,106.88622687536225A170.6070045455344,170.6070045455344,0,0,0,133.96925668719237,105.63611249322443Z" fill-rule="evenodd" style="fill: #D7A449; stroke: #fff; opacity: 1;" id="p-type-tokenTransfers"></path><path d="M153.54514864516165,123.42158371830762A197,197,0,0,1,152.38245507008344,124.85426459201945L131.9670771817331,108.12696490751279A170.6070045455344,170.6070045455344,0,0,0,132.97399935456775,106.88622687536225Z" fill-rule="evenodd" style="fill: #D7A449; stroke: #fff; opacity: 1;" id="p-type-tokenTransfers"></path><path d="M152.38245507008344,124.85426459201945A197,197,0,0,1,151.20639409237137,126.27599291069734L130.94857849863487,109.35821774876757A170.6070045455344,170.6070045455344,0,0,0,131.9670771817331,108.12696490751279Z" fill-rule="evenodd" style="fill: #D7A449; stroke: #fff; opacity: 1;" id="p-type-tokenTransfers"></path><path d="M151.20639409237137,126.27599291069734A197,197,0,0,1,150.01706887928702,127.6866439564736L129.91859265074248,110.5798773902849A170.6070045455344,170.6070045455344,0,0,0,130.94857849863487,109.35821774876757Z" fill-rule="evenodd" style="fill: #D7A449; stroke: #fff; opacity: 1;" id="p-type-tokenTransfers"></path><path d="M150.01706887928702,127.6866439564736A197,197,0,0,1,148.81458376166677,129.086093983209L128.87720999121063,111.79183666476456A170.6070045455344,170.6070045455344,0,0,0,129.91859265074248,110.5798773902849Z" fill-rule="evenodd" style="fill: #D7A449; stroke: #fff; opacity: 1;" id="p-type-tokenTransfers"></path><path d="M148.81458376166677,129.086093983209A197,197,0,0,1,147.59904422476956,130.47422022734804L127.82452187295328,112.99398925584886A170.6070045455344,170.6070045455344,0,0,0,128.87720999121063,111.79183666476456Z" fill-rule="evenodd" style="fill: #D7A449; stroke: #fff; opacity: 1;" id="p-type-tokenTransfers"></path><path d="M147.59904422476956,130.47422022734804A197,197,0,0,1,146.37055689902343,131.85090091868824L126.76062064062992,114.186229707449A170.6070045455344,170.6070045455344,0,0,0,127.82452187295328,112.99398925584886Z" fill-rule="evenodd" style="fill: #D7A449; stroke: #fff; opacity: 1;" id="p-type-tokenTransfers"></path><path d="M146.37055689902343,131.85090091868824A197,197,0,0,1,145.12922955067157,133.21601529106204L125.68559962254483,115.36845343299595A170.6070045455344,170.6070045455344,0,0,0,126.76062064062992,114.186229707449Z" fill-rule="evenodd" style="fill: #D7A449; stroke: #fff; opacity: 1;" id="p-type-tokenTransfers"></path><path d="M145.12922955067157,133.21601529106204A197,197,0,0,1,143.8751710723188,134.56944359293084L124.59955312246008,116.54055672461516A170.6070045455344,170.6070045455344,0,0,0,125.68559962254483,115.36845343299595Z" fill-rule="evenodd" style="fill: #D7A449; stroke: #fff; opacity: 1;" id="p-type-tokenTransfers"></path><path d="M143.8751710723188,134.56944359293084A197,197,0,0,1,142.60849147337933,135.91106709788977L123.502576411323,117.70243676222393A170.6070045455344,170.6070045455344,0,0,0,124.59955312246008,116.54055672461516Z" fill-rule="evenodd" style="fill: #D7A449; stroke: #fff; opacity: 1;" id="p-type-tokenTransfers"></path><path d="M142.60849147337933,135.91106709788977A197,197,0,0,1,141.32930187042618,137.2407681150829L122.39476571890866,118.85399162255116A170.6070045455344,170.6070045455344,0,0,0,123.502576411323,117.70243676222393Z" fill-rule="evenodd" style="fill: #D7A449; stroke: #fff; opacity: 1;" id="p-type-tokenTransfers"></path><path d="M141.32930187042618,137.2407681150829A197,197,0,0,1,140.03771447744398,138.5584299995272L121.27621822537836,119.99512028807841A170.6070045455344,170.6070045455344,0,0,0,122.39476571890866,118.85399162255116Z" fill-rule="evenodd" style="fill: #D7A449; stroke: #fff; opacity: 1;" id="p-type-tokenTransfers"></path><path d="M140.03771447744398,138.5584299995272A197,197,0,0,1,138.73384259598518,139.86393716234508L120.14703205275481,121.12572265590124A170.6070045455344,170.6070045455344,0,0,0,121.27621822537836,119.99512028807841Z" fill-rule="evenodd" style="fill: #D7A449; stroke: #fff; opacity: 1;" id="p-type-tokenTransfers"></path><path d="M138.73384259598518,139.86393716234508A197,197,0,0,1,137.41780060523078,141.15717508090418L119.00730625631446,122.24569954651074A170.6070045455344,170.6070045455344,0,0,0,120.14703205275481,121.12572265590124Z" fill-rule="evenodd" style="fill: #D7A449; stroke: #fff; opacity: 1;" id="p-type-tokenTransfers"></path><path d="M137.41780060523078,141.15717508090418A197,197,0,0,1,136.08970395195695,142.4380303088635L117.85714081589823,123.35495271249361A170.6070045455344,170.6070045455344,0,0,0,119.00730625631446,122.24569954651074Z" fill-rule="evenodd" style="fill: #D7A449; stroke: #fff; opacity: 1;" id="p-type-tokenTransfers"></path><path d="M136.08970395195695,142.4380303088635A197,197,0,0,1,134.74966914040752,143.70639048612523L116.69663662714093,124.45338484715082A170.6070045455344,170.6070045455344,0,0,0,117.85714081589823,123.35495271249361Z" fill-rule="evenodd" style="fill: #D7A449; stroke: #fff; opacity: 1;" id="p-type-tokenTransfers"></path><path d="M134.74966914040752,143.70639048612523A197,197,0,0,1,133.39781372207395,144.96214434869145L115.5258954926204,125.5408995930336A170.6070045455344,170.6070045455344,0,0,0,116.69663662714093,124.45338484715082Z" fill-rule="evenodd" style="fill: #D7A449; stroke: #fff; opacity: 1;" id="p-type-tokenTransfers"></path><path d="M133.39781372207395,144.96214434869145A197,197,0,0,1,132.03425628538346,146.20518173842433L114.34502011292726,126.61740155039615A170.6070045455344,170.6070045455344,0,0,0,115.5258954926204,125.5408995930336Z" fill-rule="evenodd" style="fill: #D7A449; stroke: #fff; opacity: 1;" id="p-type-tokenTransfers"></path><path d="M132.03425628538346,146.20518173842433A197,197,0,0,1,130.65911644529604,147.43539361270948L113.15411407765549,127.68279628556436A170.6070045455344,170.6070045455344,0,0,0,114.34502011292726,126.61740155039615Z" fill-rule="evenodd" style="fill: #D7A449; stroke: #fff; opacity: 1;" id="p-type-tokenTransfers"></path><path d="M130.65911644529604,147.43539361270948A197,197,0,0,1,129.2725148328116,148.65267205402162L111.9532818563155,128.73699033921983A170.6070045455344,170.6070045455344,0,0,0,113.15411407765549,127.68279628556436Z" fill-rule="evenodd" style="fill: #D7A449; stroke: #fff; opacity: 1;" id="p-type-tokenTransfers"></path><path d="M129.2725148328116,148.65267205402162A197,197,0,0,1,127.8745730843878,149.85691027939137L110.74262878916966,129.7798912345983A170.6070045455344,170.6070045455344,0,0,0,111.9532818563155,128.73699033921983Z" fill-rule="evenodd" style="fill: #D7A449; stroke: #fff; opacity: 1;" id="p-type-tokenTransfers"></path><path d="M127.8745730843878,149.85691027939137A197,197,0,0,1,126.46541383126988,151.0480026497724L109.52226107799163,130.8114074856021A170.6070045455344,170.6070045455344,0,0,0,110.74262878916966,129.7798912345983Z" fill-rule="evenodd" style="fill: #D7A449; stroke: #fff; opacity: 1;" id="p-type-tokenTransfers"></path><path d="M126.46541383126988,151.0480026497724A197,197,0,0,1,125.04516068873293,152.22584467930852L108.29228577674995,131.8314486048254A170.6070045455344,170.6070045455344,0,0,0,109.52226107799163,130.8114074856021Z" fill-rule="evenodd" style="fill: #D7A449; stroke: #fff; opacity: 1;" id="p-type-tokenTransfers"></path><path d="M125.04516068873293,152.22584467930852A197,197,0,0,1,123.61393824523823,153.39033304449936L107.0528107822171,132.83992511149208A170.6070045455344,170.6070045455344,0,0,0,108.29228577674995,131.8314486048254Z" fill-rule="evenodd" style="fill: #D7A449; stroke: #fff; opacity: 1;" id="p-type-tokenTransfers"></path><path d="M123.61393824523823,153.39033304449936A197,197,0,0,1,122.17187205150385,154.5413655932643L105.8039448245044,133.83674853930526A170.6070045455344,170.6070045455344,0,0,0,107.0528107822171,132.83992511149208Z" fill-rule="evenodd" style="fill: #D7A449; stroke: #fff; opacity: 1;" id="p-type-tokenTransfers"></path><path d="M122.17187205150385,154.5413655932643A197,197,0,0,1,120.71908860949112,155.6788413539034L104.54579745752397,134.82183144420776A170.6070045455344,170.6070045455344,0,0,0,105.8039448245044,133.83674853930526Z" fill-rule="evenodd" style="fill: #D7A449; stroke: #fff; opacity: 1;" id="p-type-tokenTransfers"></path><path d="M120.71908860949112,155.6788413539034A197,197,0,0,1,119.25571536130752,156.80266054395506L103.27847904937843,135.79508741205294A170.6070045455344,170.6070045455344,0,0,0,104.54579745752397,134.82183144420776Z" fill-rule="evenodd" style="fill: #D7A449; stroke: #fff; opacity: 1;" id="p-type-tokenTransfers"></path><path d="M119.25571536130752,156.80266054395506A197,197,0,0,1,117.78188067802697,157.91272457894905L102.00210077267887,136.7564310661852A170.6070045455344,170.6070045455344,0,0,0,103.27847904937843,135.79508741205294Z" fill-rule="evenodd" style="fill: #D7A449; stroke: #fff; opacity: 1;" id="p-type-tokenTransfers"></path><path d="M117.78188067802697,157.91272457894905A197,197,0,0,1,116.29771384842894,159.0089360810547L100.71677459479277,137.70577807492938A170.6070045455344,170.6070045455344,0,0,0,102.00210077267887,136.7564310661852Z" fill-rule="evenodd" style="fill: #D7A449; stroke: #fff; opacity: 1;" id="p-type-tokenTransfers"></path><path d="M116.29771384842894,159.0089360810547A197,197,0,0,1,114.80334506765682,160.09119888762316L99.42261326802173,138.6430451589887A170.6070045455344,170.6070045455344,0,0,0,100.71677459479277,137.70577807492938Z" fill-rule="evenodd" style="fill: #D7A449; stroke: #fff; opacity: 1;" id="p-type-tokenTransfers"></path><path d="M114.80334506765682,160.09119888762316A197,197,0,0,1,113.29890542579682,161.15941805962302L98.11973031971061,139.56815009875018A170.6070045455344,170.6070045455344,0,0,0,99.42261326802173,138.6430451589887Z" fill-rule="evenodd" style="fill: #D7A449; stroke: #fff; opacity: 1;" id="p-type-tokenTransfers"></path><path d="M113.29890542579682,161.15941805962302A197,197,0,0,1,111.78452689637851,162.21349988996857L96.80824004228865,140.481011741497A170.6070045455344,170.6070045455344,0,0,0,98.11973031971061,139.56815009875018Z" fill-rule="evenodd" style="fill: #D7A449; stroke: #fff; opacity: 1;" id="p-type-tokenTransfers"></path><path d="M111.78452689637851,162.21349988996857A197,197,0,0,1,110.26034232479755,163.2533519117401L95.48825748324323,141.3815500085278A170.6070045455344,170.6070045455344,0,0,0,96.80824004228865,140.481011741497Z" fill-rule="evenodd" style="fill: #D7A449; stroke: #fff; opacity: 1;" id="p-type-tokenTransfers"></path><path d="M110.26034232479755,163.2533519117401A197,197,0,0,1,108.7264854166623,164.27888290629542L94.15989843502784,142.269685902181A170.6070045455344,170.6070045455344,0,0,0,95.48825748324323,141.3815500085278Z" fill-rule="evenodd" style="fill: #D7A449; stroke: #fff; opacity: 1;" id="p-type-tokenTransfers"></path><path d="M108.7264854166623,164.27888290629542A197,197,0,0,1,107.18309072606473,165.2900029112716L92.82327942490433,143.14534151276501A170.6070045455344,170.6070045455344,0,0,0,94.15989843502784,142.269685902181Z" fill-rule="evenodd" style="fill: #D7A449; stroke: #fff; opacity: 1;" id="p-type-tokenTransfers"></path><path d="M107.18309072606473,165.2900029112716A197,197,0,0,1,105.63029364377698,166.28662322847694L91.47851770472077,144.00844002539256A170.6070045455344,170.6070045455344,0,0,0,92.82327942490433,143.14534151276501Z" fill-rule="evenodd" style="fill: #D7A449; stroke: #fff; opacity: 1;" id="p-type-tokenTransfers"></path><path d="M105.63029364377698,166.28662322847694A197,197,0,0,1,104.0682303853745,167.26865643167167L90.12573124062594,144.858905726719A170.6070045455344,170.6070045455344,0,0,0,91.47851770472077,144.00844002539256Z" fill-rule="evenodd" style="fill: #D7A449; stroke: #fff; opacity: 1;" id="p-type-tokenTransfers"></path><path d="M104.0682303853745,167.26865643167167A197,197,0,0,1,102.4970379792869,168.23601637423724L88.76503870272087,145.69666401158423A170.6070045455344,170.6070045455344,0,0,0,90.12573124062594,144.858905726719Z" fill-rule="evenodd" style="fill: #D7A449; stroke: #fff; opacity: 1;" id="p-type-tokenTransfers"></path><path d="M102.4970379792869,168.23601637423724A197,197,0,0,1,100.91685425477738,169.1886181967334L87.39655945464892,146.52164138955726A170.6070045455344,170.6070045455344,0,0,0,88.76503870272087,145.69666401158423Z" fill-rule="evenodd" style="fill: #D7A449; stroke: #fff; opacity: 1;" id="p-type-tokenTransfers"></path><path d="M100.91685425477738,169.1886181967334A197,197,0,0,1,99.32781782985195,170.1263783343422L86.0204135431247,147.33376549138288A170.6070045455344,170.6070045455344,0,0,0,87.39655945464892,146.52164138955726Z" fill-rule="evenodd" style="fill: #D7A449; stroke: #fff; opacity: 1;" id="p-type-tokenTransfers"></path><path d="M99.32781782985195,170.1263783343422A197,197,0,0,1,97.73006809909968,171.04921452419867L84.63672168740348,148.13296507533022A170.6070045455344,170.6070045455344,0,0,0,86.0204135431247,147.33376549138288Z" fill-rule="evenodd" style="fill: #D7A449; stroke: #fff; opacity: 1;" id="p-type-tokenTransfers"></path><path d="M97.73006809909968,171.04921452419867A197,197,0,0,1,96.12374522146432,171.95704581260696L83.24560526869114,148.91917003344216A170.6070045455344,170.6070045455344,0,0,0,84.63672168740348,148.13296507533022Z" fill-rule="evenodd" style="fill: #D7A449; stroke: #fff; opacity: 1;" id="p-type-tokenTransfers"></path><path d="M96.12374522146432,171.95704581260696A197,197,0,0,1,94.50899010794943,172.849792562142L81.84718631949642,149.69231139768547A170.6070045455344,170.6070045455344,0,0,0,83.24560526869114,148.91917003344216Z" fill-rule="evenodd" style="fill: #D7A449; stroke: #fff; opacity: 1;" id="p-type-tokenTransfers"></path><path d="M94.50899010794943,172.849792562142A197,197,0,0,1,92.88594440925716,173.7273764586353L80.44158751292585,150.45232134600082A170.6070045455344,170.6070045455344,0,0,0,81.84718631949642,149.69231139768547Z" fill-rule="evenodd" style="fill: #D7A449; stroke: #fff; opacity: 1;" id="p-type-tokenTransfers"></path><path d="M92.88594440925716,173.7273764586353A197,197,0,0,1,91.25475050336232,174.58972051804508L79.02893215192256,151.19913320825228A170.6070045455344,170.6070045455344,0,0,0,80.44158751292585,150.45232134600082Z" fill-rule="evenodd" style="fill: #D7A449; stroke: #fff; opacity: 1;" id="p-type-tokenTransfers"></path><path d="M91.25475050336232,174.58972051804508A197,197,0,0,1,89.61555148302257,175.43674909320944L77.60934415844976,151.93268147207596A170.6070045455344,170.6070045455344,0,0,0,79.02893215192256,151.19913320825228Z" fill-rule="evenodd" style="fill: #D7A449; stroke: #fff; opacity: 1;" id="p-type-tokenTransfers"></path><path d="M89.61555148302257,175.43674909320944A197,197,0,0,1,87.9684911432259,176.26838788048238L76.18294806262003,152.6529017886268A170.6070045455344,170.6070045455344,0,0,0,77.60934415844976,151.93268147207596Z" fill-rule="evenodd" style="fill: #D7A449; stroke: #fff; opacity: 1;" id="p-type-tokenTransfers"></path><path d="M87.9684911432259,176.26838788048238A197,197,0,0,1,86.31371396857666,177.08456392625172L74.74986899177115,153.35973097822338A170.6070045455344,170.6070045455344,0,0,0,76.18294806262003,152.6529017886268Z" fill-rule="evenodd" style="fill: #D7A449; stroke: #fff; opacity: 1;" id="p-type-tokenTransfers"></path><path d="M86.31371396857666,177.08456392625172A197,197,0,0,1,84.65136512062085,177.8852056333391L73.31023265948961,154.05310703589038A170.6070045455344,170.6070045455344,0,0,0,74.74986899177115,153.35973097822338Z" fill-rule="evenodd" style="fill: #D7A449; stroke: #fff; opacity: 1;" id="p-type-tokenTransfers"></path><path d="M84.65136512062085,177.8852056333391A197,197,0,0,1,82.9815904251122,178.67024276728043L71.8641653545827,154.73296913679772A170.6070045455344,170.6070045455344,0,0,0,73.31023265948961,154.05310703589038Z" fill-rule="evenodd" style="fill: #D7A449; stroke: #fff; opacity: 1;" id="p-type-tokenTransfers"></path><path d="M82.9815904251122,178.67024276728043A197,197,0,0,1,81.30453635921998,179.4396064624872L70.41179393000006,155.39925764159625A170.6070045455344,170.6070045455344,0,0,0,71.8641653545827,154.73296913679772Z" fill-rule="evenodd" style="fill: #D7A449; stroke: #fff; opacity: 1;" id="p-type-tokenTransfers"></path><path d="M81.30453635921998,179.4396064624872A197,197,0,0,1,79.62035003867958,180.19322922828744L68.95324579170583,156.05191410164952A170.6070045455344,170.6070045455344,0,0,0,70.41179393000006,155.39925764159625Z" fill-rule="evenodd" style="fill: #D7A449; stroke: #fff; opacity: 1;" id="p-type-tokenTransfers"></path><path d="M79.62035003867958,180.19322922828744A197,197,0,0,1,77.9291792048871,180.93104495484624L67.48864888750224,156.69088126416113A170.6070045455344,170.6070045455344,0,0,0,68.95324579170583,156.05191410164952Z" fill-rule="evenodd" style="fill: #D7A449; stroke: #fff; opacity: 1;" id="p-type-tokenTransfers"></path><path d="M77.9291792048871,180.93104495484624A197,197,0,0,1,76.23117221193918,181.65298891896515L66.0181316958057,157.31610307719694A170.6070045455344,170.6070045455344,0,0,0,67.48864888750224,156.69088126416113Z" fill-rule="evenodd" style="fill: #D7A449; stroke: #fff; opacity: 1;" id="p-type-tokenTransfers"></path><path d="M76.23117221193918,181.65298891896515A197,197,0,0,1,74.5264780136188,182.35899778975974L64.54182321437631,157.92752469460223A170.6070045455344,170.6070045455344,0,0,0,66.0181316958057,157.31610307719694Z" fill-rule="evenodd" style="fill: #D7A449; stroke: #fff; opacity: 1;" id="p-type-tokenTransfers"></path><path d="M74.5264780136188,182.35899778975974A197,197,0,0,1,72.8152461503288,183.04900963421522L63.059852949001794,158.52509248081284A170.6070045455344,170.6070045455344,0,0,0,64.54182321437631,157.92752469460223Z" fill-rule="evenodd" style="fill: #D7A449; stroke: #fff; opacity: 1;" id="p-type-tokenTransfers"></path><path d="M72.8152461503288,183.04900963421522A197,197,0,0,1,71.09762673597378,183.7229639226195L61.57235090213699,159.1087540155604A170.6070045455344,170.6070045455344,0,0,0,63.059852949001794,158.52509248081284Z" fill-rule="evenodd" style="fill: #D7A449; stroke: #fff; opacity: 1;" id="p-type-tokenTransfers"></path><path d="M71.09762673597378,183.7229639226195A197,197,0,0,1,69.37377044479156,184.38080153387273L60.07944756149957,159.67845809847057A170.6070045455344,170.6070045455344,0,0,0,61.57235090213699,159.1087540155604Z" fill-rule="evenodd" style="fill: #D7A449; stroke: #fff; opacity: 1;" id="p-type-tokenTransfers"></path><path d="M69.37377044479156,184.38080153387273A197,197,0,0,1,67.64382849813583,185.0224647606738L58.5812738886234,160.2341547535546A170.6070045455344,170.6070045455344,0,0,0,60.07944756149957,159.67845809847057Z" fill-rule="evenodd" style="fill: #D7A449; stroke: #fff; opacity: 1;" id="p-type-tokenTransfers"></path><path d="M67.64382849813583,185.0224647606738A197,197,0,0,1,65.90795265121044,185.6478973145826L57.07796130737018,160.77579523359339A170.6070045455344,170.6070045455344,0,0,0,58.5812738886234,160.2341547535546Z" fill-rule="evenodd" style="fill: #D7A449; stroke: #fff; opacity: 1;" id="p-type-tokenTransfers"></path><path d="M65.90795265121044,185.6478973145826A197,197,0,0,1,64.16629517975707,186.25704433095754L55.5696416924006,161.30333202441358A170.6070045455344,170.6070045455344,0,0,0,57.07796130737018,160.77579523359339Z" fill-rule="evenodd" style="fill: #D7A449; stroke: #fff; opacity: 1;" id="p-type-tokenTransfers"></path><path d="M64.16629517975707,186.25704433095754A197,197,0,0,1,62.41900886669725,186.84985237376875L54.05644735760594,161.81671884905583A170.6070045455344,170.6070045455344,0,0,0,55.5696416924006,161.30333202441358Z" fill-rule="evenodd" style="fill: #D7A449; stroke: #fff; opacity: 1;" id="p-type-tokenTransfers"></path><path d="M62.41900886669725,186.84985237376875A197,197,0,0,1,60.66624698872974,187.42626944028535L52.538511044501156,162.3159106718341A170.6070045455344,170.6070045455344,0,0,0,54.05644735760594,161.81671884905583Z" fill-rule="evenodd" style="fill: #D7A449; stroke: #fff; opacity: 1;" id="p-type-tokenTransfers"></path><path d="M-108.9647136015463,164.12096511333644A197,197,0,0,1,-112.63502583995624,161.6241038769663L-97.54479373331878,139.9705798213478A170.6070045455344,170.6070045455344,0,0,0,-94.36621009503484,142.13292508176895Z" fill-rule="evenodd" style="fill: #414552; stroke: #fff; opacity: 1;" id="p-type-ether"></path><path d="M-112.63502583995624,161.6241038769663A197,197,0,0,1,-115.59640805003927,159.519498638658L-100.10942595756599,138.147938220035A170.6070045455344,170.6070045455344,0,0,0,-97.54479373331878,139.9705798213478Z" fill-rule="evenodd" style="fill: #414552; stroke: #fff; opacity: 1;" id="p-type-ether"></path><path d="M-115.59640805003927,159.519498638658A197,197,0,0,1,-117.2757232059884,158.28899123600604L-101.56375554357815,137.0822875497936A170.6070045455344,170.6070045455344,0,0,0,-100.10942595756599,138.147938220035Z" fill-rule="evenodd" style="fill: #414552; stroke: #fff; opacity: 1;" id="p-type-ether"></path><path d="M-117.2757232059884,158.28899123600604A197,197,0,0,1,-118.64200224182882,157.2675278118464L-102.74698789727407,136.19767427543474A170.6070045455344,170.6070045455344,0,0,0,-101.56375554357815,137.0822875497936Z" fill-rule="evenodd" style="fill: #414552; stroke: #fff; opacity: 1;" id="p-type-ether"></path><path d="M-118.64200224182882,157.2675278118464A197,197,0,0,1,-119.61801330350444,156.52645429231006L-103.59223827105978,135.55588578144432A170.6070045455344,170.6070045455344,0,0,0,-102.74698789727407,136.19767427543474Z" fill-rule="evenodd" style="fill: #414552; stroke: #fff; opacity: 1;" id="p-type-ether"></path><path d="M-119.61801330350444,156.52645429231006A197,197,0,0,1,-120.54779567607179,155.81151741010692L-104.39745342569407,134.93673227935392A170.6070045455344,170.6070045455344,0,0,0,-103.59223827105978,135.55588578144432Z" fill-rule="evenodd" style="fill: #414552; stroke: #fff; opacity: 1;" id="p-type-ether"></path></g></svg>