<svg xmlns="http://www.w3.org/2000/svg" width="400" height="400" id="block-7907854"><g id="burst-container" transform="translate(200,200)"><circle r="197" style="fill: #f9f9f9; stroke: #f9f9f9; stroke-width: 3; opacity: 1;" id="circle-base"></circle><path display="none" d="M6.031385485800715e-15,-98.5A98.5,98.5,0,1,1,-6.031385485800715e-15,98.5A98.5,98.5,0,1,1,6.031385485800715e-15,-98.5Z" fill-rule="evenodd" id="p-type-root" style="stroke: #fff; opacity: 1;"></path><path d="M8.529667153919608e-15,-139.30003589374985A139.30003589374985,139.30003589374985,0,1,1,-102.44014902314606,-94.39552885659162L-72.43612404002707,-66.74771856818637A98.5,98.5,0,1,0,6.031385485800715e-15,-98.5Z" fill-rule="evenodd" style="fill: #0B1F65; stroke: #fff; opacity: 1;" id="p-type-data"></path><path d="M-102.44014902314606,-94.39552885659162A139.30003589374985,139.30003589374985,0,0,1,-3.4873925744172367,-139.2563754125171L-2.46595893803004,-98.46912737765045A98.5,98.5,0,0,0,-72.43612404002707,-66.74771856818637Z" fill-rule="evenodd" style="fill: #D7A449; stroke: #fff; opacity: 1;" id="p-type-value"></path><path d="M1.0446666101440332e-14,-170.6070045455344A170.6070045455344,170.6070045455344,0,0,1,167.7256742308072,-31.22255921318977L136.94743954325168,-25.493112845382917A139.30003589374985,139.30003589374985,0,0,0,8.529667153919608e-15,-139.30003589374985Z" fill-rule="evenodd" style="fill: #DB3F29; stroke: #fff; opacity: 1;" id="p-type-functions"></path><path d="M167.7256742308072,-31.22255921318977A170.6070045455344,170.6070045455344,0,0,1,93.22096090066907,142.8866769462987L76.11459584619352,116.66648318677741A139.30003589374985,139.30003589374985,0,0,0,136.94743954325168,-25.493112845382917Z" fill-rule="evenodd" style="fill: #1DC690; stroke: #fff; opacity: 1;" id="p-type-logs"></path><path d="M93.22096090066907,142.8866769462987A170.6070045455344,170.6070045455344,0,0,1,-87.3701269597643,146.53740449125834L-71.3374099378689,119.64728974513564A139.30003589374985,139.30003589374985,0,0,0,76.11459584619352,116.66648318677741Z" fill-rule="evenodd" style="fill: #414552; stroke: #fff; opacity: 1;" id="p-type-ether"></path><path d="M-87.3701269597643,146.53740449125834A170.6070045455344,170.6070045455344,0,0,1,-166.96898158394018,35.044388835045254L-136.32960258427158,28.613623664516222A139.30003589374985,139.30003589374985,0,0,0,-71.3374099378689,119.64728974513564Z" fill-rule="evenodd" style="fill: #D7A449; stroke: #fff; opacity: 1;" id="p-type-tokenTransfers"></path><path d="M-125.46304714068825,-115.61043984940736A170.6070045455344,170.6070045455344,0,0,1,-68.49379228477909,-156.25412128468656L-55.92494721529599,-127.58095578481279A139.30003589374985,139.30003589374985,0,0,0,-102.44014902314606,-94.39552885659162Z" fill-rule="evenodd" style="fill: #D7A449; stroke: #fff; opacity: 1;" id="p-type-tokenTransfers"></path><path d="M-68.49379228477909,-156.25412128468656A170.6070045455344,170.6070045455344,0,0,1,-8.539654937044126,-170.39314626344634L-6.972599058399105,-139.12542133762187A139.30003589374985,139.30003589374985,0,0,0,-55.92494721529599,-127.58095578481279Z" fill-rule="evenodd" style="fill: #414552; stroke: #fff; opacity: 1;" id="p-type-ether"></path><path d="M1.206277097160143e-14,-197A197,197,0,0,1,4.9319178760600115,-196.9382547553009L4.271166170046563,-170.5535315950621A170.6070045455344,170.6070045455344,0,0,0,1.0446666101440332e-14,-170.6070045455344Z" fill-rule="evenodd" style="fill: #DB3F29; stroke: #fff; opacity: 1;" id="p-type-functions"></path><path d="M4.9319178760600115,-196.9382547553009A197,197,0,0,1,7.39691063648598,-196.86108227132107L6.405912520720179,-170.48669826346242A170.6070045455344,170.6070045455344,0,0,0,4.271166170046563,-170.5535315950621Z" fill-rule="evenodd" style="fill: #DB3F29; stroke: #fff; opacity: 1;" id="p-type-functions"></path><path d="M7.39691063648598,-196.86108227132107A197,197,0,0,1,9.860744153377906,-196.75305772653604L8.539654937044142,-170.39314626344634A170.6070045455344,170.6070045455344,0,0,0,6.405912520720179,-170.48669826346242Z" fill-rule="evenodd" style="fill: #DB3F29; stroke: #fff; opacity: 1;" id="p-type-functions"></path><path d="M9.860744153377906,-196.75305772653604A197,197,0,0,1,12.323032294847252,-196.6141980505481L10.67205901899377,-170.2728902564795A170.6070045455344,170.6070045455344,0,0,0,8.539654937044142,-170.39314626344634Z" fill-rule="evenodd" style="fill: #DB3F29; stroke: #fff; opacity: 1;" id="p-type-functions"></path><path d="M12.323032294847252,-196.6141980505481A197,197,0,0,1,14.783389171196701,-196.44452500544L12.802790576288121,-170.12594908907843A170.6070045455344,170.6070045455344,0,0,0,10.67205901899377,-170.2728902564795Z" fill-rule="evenodd" style="fill: #DB3F29; stroke: #fff; opacity: 1;" id="p-type-functions"></path><path d="M14.783389171196701,-196.44452500544A197,197,0,0,1,17.24142919539659,-196.2440651823645L14.931515680764141,-169.9523457898569A170.6070045455344,170.6070045455344,0,0,0,12.802790576288121,-170.12594908907843Z" fill-rule="evenodd" style="fill: #DB3F29; stroke: #fff; opacity: 1;" id="p-type-functions"></path><path d="M17.24142919539659,-196.2440651823645A197,197,0,0,1,19.69676714351436,-196.0128499973769L17.057900718710087,-169.75210756591693A170.6070045455344,170.6070045455344,0,0,0,14.931515680764141,-169.9523457898569Z" fill-rule="evenodd" style="fill: #DB3F29; stroke: #fff; opacity: 1;" id="p-type-functions"></path><path d="M19.69676714351436,-196.0128499973769A197,197,0,0,1,22.149018215086677,-195.75091568651158L19.181612443149323,-169.52526579858477A170.6070045455344,170.6070045455344,0,0,0,17.057900718710087,-169.75210756591693Z" fill-rule="evenodd" style="fill: #DB3F29; stroke: #fff; opacity: 1;" id="p-type-functions"></path><path d="M22.149018215086677,-195.75091568651158A197,197,0,0,1,24.597798093425393,-195.45830330010307L21.30231802606682,-169.271856038493A170.6070045455344,170.6070045455344,0,0,0,19.181612443149323,-169.52526579858477Z" fill-rule="evenodd" style="fill: #DB3F29; stroke: #fff; opacity: 1;" id="p-type-functions"></path><path d="M24.597798093425393,-195.45830330010307A197,197,0,0,1,27.042723005847513,-195.13505869635267L23.41968511056982,-168.99191800000895A170.6070045455344,170.6070045455344,0,0,0,21.30231802606682,-169.271856038493Z" fill-rule="evenodd" style="fill: #DB3F29; stroke: #fff; opacity: 1;" id="p-type-functions"></path><path d="M27.042723005847513,-195.13505869635267A197,197,0,0,1,29.483409783820264,-194.78123253414157L25.533381862975013,-168.6854955550106A170.6070045455344,170.6070045455344,0,0,0,23.41968511056982,-168.99191800000895Z" fill-rule="evenodd" style="fill: #DB3F29; stroke: #fff; opacity: 1;" id="p-type-functions"></path><path d="M29.483409783820264,-194.78123253414157A197,197,0,0,1,31.919475923011092,-194.39688026509148L27.643077024813348,-168.35263672601104A170.6070045455344,170.6070045455344,0,0,0,25.533381862975013,-168.6854955550106Z" fill-rule="evenodd" style="fill: #DB3F29; stroke: #fff; opacity: 1;" id="p-type-functions"></path><path d="M31.919475923011092,-194.39688026509148A197,197,0,0,1,34.3505396432338,-193.98206212487437L29.748439964744918,-167.99339367863237A170.6070045455344,170.6070045455344,0,0,0,27.643077024813348,-168.35263672601104Z" fill-rule="evenodd" style="fill: #DB3F29; stroke: #fff; opacity: 1;" id="p-type-functions"></path><path d="M34.3505396432338,-193.98206212487437A197,197,0,0,1,36.776219948280975,-193.53684312377234L31.849140730375357,-167.6078227134305A170.6070045455344,170.6070045455344,0,0,0,29.748439964744918,-167.99339367863237Z" fill-rule="evenodd" style="fill: #DB3F29; stroke: #fff; opacity: 1;" id="p-type-functions"></path><path d="M36.776219948280975,-193.53684312377234A197,197,0,0,1,39.19613668563392,-193.06129303648908L33.94485009996616,-167.19598425707127A170.6070045455344,170.6070045455344,0,0,0,31.849140730375357,-167.6078227134305Z" fill-rule="evenodd" style="fill: #DB3F29; stroke: #fff; opacity: 1;" id="p-type-functions"></path><path d="M39.19613668563392,-193.06129303648908A197,197,0,0,1,41.60991060604,-192.55548639121494L36.03523963403019,-166.7579428528609A170.6070045455344,170.6070045455344,0,0,0,33.94485009996616,-167.19598425707127Z" fill-rule="evenodd" style="fill: #DB3F29; stroke: #fff; opacity: 1;" id="p-type-functions"></path><path d="M41.60991060604,-192.55548639121494A197,197,0,0,1,44.01716342294866,-192.01950245794677L38.11998172680474,-166.29376715063034A170.6070045455344,170.6070045455344,0,0,0,36.03523963403019,-166.7579428528609Z" fill-rule="evenodd" style="fill: #DB3F29; stroke: #fff; opacity: 1;" id="p-type-functions"></path><path d="M44.01716342294866,-192.01950245794677A197,197,0,0,1,46.417517871796264,-191.45342523606485L40.19874965759376,-165.8035298959769A170.6070045455344,170.6070045455344,0,0,0,38.11998172680474,-166.29376715063034Z" fill-rule="evenodd" style="fill: #DB3F29; stroke: #fff; opacity: 1;" id="p-type-functions"></path><path d="M46.417517871796264,-191.45342523606485A197,197,0,0,1,48.810597769131284,-190.85734344116833L42.271217641971745,-165.28730791886306A170.6070045455344,170.6070045455344,0,0,0,40.19874965759376,-165.8035298959769Z" fill-rule="evenodd" style="fill: #DB3F29; stroke: #fff; opacity: 1;" id="p-type-functions"></path><path d="M48.810597769131284,-190.85734344116833A197,197,0,0,1,51.19602807156956,-190.23135049117184L44.337060882840476,-164.74518212157616A170.6070045455344,170.6070045455344,0,0,0,42.271217641971745,-165.28730791886306Z" fill-rule="evenodd" style="fill: #DB3F29; stroke: #fff; opacity: 1;" id="p-type-functions"></path><path d="M51.19602807156956,-190.23135049117184A197,197,0,0,1,53.57343493457117,-189.57554449166503L46.395955621331346,-164.17723746604904A170.6070045455344,170.6070045455344,0,0,0,44.337060882840476,-164.74518212157616Z" fill-rule="evenodd" style="fill: #DB3F29; stroke: #fff; opacity: 1;" id="p-type-functions"></path><path d="M53.57343493457117,-189.57554449166503A197,197,0,0,1,55.94244577102918,-188.89002822053752L48.447579187544605,-163.583562960545A170.6070045455344,170.6070045455344,0,0,0,46.395955621331346,-164.17723746604904Z" fill-rule="evenodd" style="fill: #DB3F29; stroke: #fff; opacity: 1;" id="p-type-functions"></path><path d="M55.94244577102918,-188.89002822053752A197,197,0,0,1,58.3026893096617,-188.1749091118714L50.49161005111845,-162.96425164570846A170.6070045455344,170.6070045455344,0,0,0,48.447579187544605,-163.583562960545Z" fill-rule="evenodd" style="fill: #DB3F29; stroke: #fff; opacity: 1;" id="p-type-functions"></path><path d="M58.3026893096617,-188.1749091118714A197,197,0,0,1,60.65379565319745,-187.43029923910427L52.52772787161915,-162.31940057998344A170.6070045455344,170.6070045455344,0,0,0,50.49161005111845,-162.96425164570846Z" fill-rule="evenodd" style="fill: #DB3F29; stroke: #fff; opacity: 1;" id="p-type-functions"></path><path d="M60.65379565319745,-187.43029923910427A197,197,0,0,1,62.99539633634579,-186.6563152974651L54.55561354874461,-161.64911082440273A170.6070045455344,170.6070045455344,0,0,0,52.52772787161915,-162.31940057998344Z" fill-rule="evenodd" style="fill: #DB3F29; stroke: #fff; opacity: 1;" id="p-type-functions"></path><path d="M62.99539633634579,-186.6563152974651A197,197,0,0,1,65.32712438354298,-185.8530785856858L56.57494927233406,-160.95348742674955A170.6070045455344,170.6070045455344,0,0,0,54.55561354874461,-161.64911082440273Z" fill-rule="evenodd" style="fill: #DB3F29; stroke: #fff; opacity: 1;" id="p-type-functions"></path><path d="M65.32712438354298,-185.8530785856858A197,197,0,0,1,67.6486143664643,-185.0207149869911L58.58541857217502,-160.23263940509452A170.6070045455344,170.6070045455344,0,0,0,56.57494927233406,-160.95348742674955Z" fill-rule="evenodd" style="fill: #DB3F29; stroke: #fff; opacity: 1;" id="p-type-functions"></path><path d="M67.6486143664643,-185.0207149869911A197,197,0,0,1,69.9595024612941,-184.15935494937037L60.58670636760064,-159.48667973071022A170.6070045455344,170.6070045455344,0,0,0,58.58541857217502,-160.23263940509452Z" fill-rule="evenodd" style="fill: #DB3F29; stroke: #fff; opacity: 1;" id="p-type-functions"></path><path d="M69.9595024612941,-184.15935494937037A197,197,0,0,1,72.25942650574416,-183.26913346513362L62.57849901686905,-158.7157253103665A170.6070045455344,170.6070045455344,0,0,0,60.58670636760064,-159.48667973071022Z" fill-rule="evenodd" style="fill: #DB3F29; stroke: #fff; opacity: 1;" id="p-type-functions"></path><path d="M72.25942650574416,-183.26913346513362A197,197,0,0,1,74.54802605581176,-182.35019004975567L64.56048436631723,-157.91989696800877A170.6070045455344,170.6070045455344,0,0,0,62.57849901686905,-158.7157253103665Z" fill-rule="evenodd" style="fill: #DB3F29; stroke: #fff; opacity: 1;" id="p-type-functions"></path><path d="M74.54802605581176,-182.35019004975567A197,197,0,0,1,76.82494244226852,-181.4026687200112L66.53235179928186,-157.09931942582244A170.6070045455344,170.6070045455344,0,0,0,64.56048436631723,-157.91989696800877Z" fill-rule="evenodd" style="fill: #DB3F29; stroke: #fff; opacity: 1;" id="p-type-functions"></path><path d="M76.82494244226852,-181.4026687200112A197,197,0,0,1,79.08981882687102,-180.42671797140443L68.49379228477908,-156.25412128468656A170.6070045455344,170.6070045455344,0,0,0,66.53235179928186,-157.09931942582244Z" fill-rule="evenodd" style="fill: #DB3F29; stroke: #fff; opacity: 1;" id="p-type-functions"></path><path d="M79.08981882687102,-180.42671797140443A197,197,0,0,1,81.34230025828435,-179.42249075489704L70.44449842593576,-155.38443500401942A170.6070045455344,170.6070045455344,0,0,0,68.49379228477908,-156.25412128468656Z" fill-rule="evenodd" style="fill: #DB3F29; stroke: #fff; opacity: 1;" id="p-type-functions"></path><path d="M81.34230025828435,-179.42249075489704A197,197,0,0,1,83.58203372771024,-178.3901444529375L72.38416450816483,-154.49039688101954A170.6070045455344,170.6070045455344,0,0,0,70.44449842593576,-155.38443500401942Z" fill-rule="evenodd" style="fill: #DB3F29; stroke: #fff; opacity: 1;" id="p-type-functions"></path><path d="M83.58203372771024,-178.3901444529375A197,197,0,0,1,85.80866822421046,-177.32984085479626L74.3124865470768,-153.57214702930517A170.6070045455344,170.6070045455344,0,0,0,72.38416450816483,-154.49039688101954Z" fill-rule="evenodd" style="fill: #DB3F29; stroke: #fff; opacity: 1;" id="p-type-functions"></path><path d="M85.80866822421046,-177.32984085479626A197,197,0,0,1,88.02185478971732,-176.2417461312101L76.22916233612017,-152.62982935695578A170.6070045455344,170.6070045455344,0,0,0,74.3124865470768,-153.57214702930517Z" fill-rule="evenodd" style="fill: #DB3F29; stroke: #fff; opacity: 1;" id="p-type-functions"></path><path d="M88.02185478971732,-176.2417461312101A197,197,0,0,1,90.22124657372233,-175.12603080833986L78.13389149394328,-151.66359154395855A170.6070045455344,170.6070045455344,0,0,0,76.22916233612017,-152.62982935695578Z" fill-rule="evenodd" style="fill: #DB3F29; stroke: #fff; opacity: 1;" id="p-type-functions"></path><path d="M90.22124657372233,-175.12603080833986A197,197,0,0,1,92.4064988876345,-173.9828697410455L80.02637551146995,-150.67358501906432A170.6070045455344,170.6070045455344,0,0,0,78.13389149394328,-151.66359154395855Z" fill-rule="evenodd" style="fill: #DB3F29; stroke: #fff; opacity: 1;" id="p-type-functions"></path><path d="M92.4064988876345,-173.9828697410455A197,197,0,0,1,94.57726925880014,-172.812442085483L81.90631779868197,-149.65996493605533A170.6070045455344,170.6070045455344,0,0,0,80.02637551146995,-150.67358501906432Z" fill-rule="evenodd" style="fill: #DB3F29; stroke: #fff; opacity: 1;" id="p-type-functions"></path><path d="M94.57726925880014,-172.812442085483A197,197,0,0,1,96.733217484175,-171.61493127102693L83.77342373110056,-148.6228901494298A170.6070045455344,170.6070045455344,0,0,0,81.90631779868197,-149.65996493605533Z" fill-rule="evenodd" style="fill: #DB3F29; stroke: #fff; opacity: 1;" id="p-type-functions"></path><path d="M96.733217484175,-171.61493127102693A197,197,0,0,1,98.87400568364089,-170.39052497152343L85.62740069595999,-147.56252318950604A170.6070045455344,170.6070045455344,0,0,0,83.77342373110056,-148.6228901494298Z" fill-rule="evenodd" style="fill: #DB3F29; stroke: #fff; opacity: 1;" id="p-type-functions"></path><path d="M98.87400568364089,-170.39052497152343A197,197,0,0,1,100.99929835295822,-169.13941507587796L87.46795813806564,-146.479030236951A170.6070045455344,170.6070045455344,0,0,0,85.62740069595999,-147.56252318950604Z" fill-rule="evenodd" style="fill: #DB3F29; stroke: #fff; opacity: 1;" id="p-type-functions"></path><path d="M100.99929835295822,-169.13941507587796A197,197,0,0,1,103.10876241634638,-167.86179765798244L89.29480760533012,-145.37258109673598A170.6070045455344,170.6070045455344,0,0,0,87.46795813806564,-146.479030236951Z" fill-rule="evenodd" style="fill: #DB3F29; stroke: #fff; opacity: 1;" id="p-type-functions"></path><path d="M103.10876241634638,-167.86179765798244A197,197,0,0,1,105.20206727868317,-166.55787294598662L91.10766279397927,-144.2433491715253A170.6070045455344,170.6070045455344,0,0,0,89.29480760533012,-145.37258109673598Z" fill-rule="evenodd" style="fill: #DB3F29; stroke: #fff; opacity: 1;" id="p-type-functions"></path><path d="M105.20206727868317,-166.55787294598662A197,197,0,0,1,107.27888487731569,-165.22784529091834L92.90623959342163,-143.09151143450032A170.6070045455344,170.6070045455344,0,0,0,91.10766279397927,-144.2433491715253Z" fill-rule="evenodd" style="fill: #DB3F29; stroke: #fff; opacity: 1;" id="p-type-functions"></path><path d="M107.27888487731569,-165.22784529091834A197,197,0,0,1,109.33888973347439,-163.8719231346576L94.69025613077437,-141.91724840162433A170.6070045455344,170.6070045455344,0,0,0,92.90623959342163,-143.09151143450032Z" fill-rule="evenodd" style="fill: #DB3F29; stroke: #fff; opacity: 1;" id="p-type-functions"></path><path d="M109.33888973347439,-163.8719231346576A197,197,0,0,1,111.38175900328199,-162.49031897726957L96.45943281503831,-140.7207441033521A170.6070045455344,170.6070045455344,0,0,0,94.69025613077437,-141.91724840162433Z" fill-rule="evenodd" style="fill: #DB3F29; stroke: #fff; opacity: 1;" id="p-type-functions"></path><path d="M111.38175900328199,-162.49031897726957A197,197,0,0,1,113.40717252834963,-161.0832493437016L98.21349238091548,-139.50218605578857A170.6070045455344,170.6070045455344,0,0,0,96.45943281503831,-140.7207441033521Z" fill-rule="evenodd" style="fill: #DB3F29; stroke: #fff; opacity: 1;" id="p-type-functions"></path><path d="M113.40717252834963,-161.0832493437016A197,197,0,0,1,114.41323408377927,-160.37023372961184L99.08476724568844,-138.88469642069188A170.6070045455344,170.6070045455344,0,0,0,98.21349238091548,-139.50218605578857Z" fill-rule="evenodd" style="fill: #DB3F29; stroke: #fff; opacity: 1;" id="p-type-functions"></path><path d="M114.41323408377927,-160.37023372961184A197,197,0,0,1,115.21873288123021,-159.7925016802845L99.78234966699877,-138.38436578939397A170.6070045455344,170.6070045455344,0,0,0,99.08476724568844,-138.88469642069188Z" fill-rule="evenodd" style="fill: #DB3F29; stroke: #fff; opacity: 1;" id="p-type-functions"></path><path d="M193.672926334336,-36.05270593304829A197,197,0,0,1,194.10907733353392,-33.62537875956411L168.10339207599853,-29.12043221765619A170.6070045455344,170.6070045455344,0,0,0,167.7256742308072,-31.22255921318977Z" fill-rule="evenodd" style="fill: #1DC690; stroke: #fff; opacity: 1;" id="p-type-logs"></path><path d="M194.10907733353392,-33.62537875956411A197,197,0,0,1,194.51480756602854,-31.192781818088616L168.45476476442226,-27.01374146917009A170.6070045455344,170.6070045455344,0,0,0,168.10339207599853,-29.12043221765619Z" fill-rule="evenodd" style="fill: #1DC690; stroke: #fff; opacity: 1;" id="p-type-logs"></path><path d="M194.51480756602854,-31.192781818088616A197,197,0,0,1,194.89005344579436,-28.75529634511553L168.77973722896488,-24.90281712821987A170.6070045455344,170.6070045455344,0,0,0,168.45476476442226,-27.01374146917009Z" fill-rule="evenodd" style="fill: #1DC690; stroke: #fff; opacity: 1;" id="p-type-logs"></path><path d="M194.89005344579436,-28.75529634511553A197,197,0,0,1,195.23475616431236,-26.31330434326901L169.07825853995502,-22.787990018782367A170.6070045455344,170.6070045455344,0,0,0,168.77973722896488,-24.90281712821987Z" fill-rule="evenodd" style="fill: #1DC690; stroke: #fff; opacity: 1;" id="p-type-logs"></path><path d="M195.23475616431236,-26.31330434326901A197,197,0,0,1,195.5488616997865,-23.86718852143625L169.35028191314493,-20.669591576476147A170.6070045455344,170.6070045455344,0,0,0,169.07825853995502,-22.787990018782367Z" fill-rule="evenodd" style="fill: #1DC690; stroke: #fff; opacity: 1;" id="p-type-logs"></path><path d="M195.5488616997865,-23.86718852143625A197,197,0,0,1,195.83232082561003,-21.41733223478934L169.59576471704264,-18.54795379661891A170.6070045455344,170.6070045455344,0,0,0,169.35028191314493,-20.669591576476147Z" fill-rule="evenodd" style="fill: #1DC690; stroke: #fff; opacity: 1;" id="p-type-logs"></path><path d="M195.83232082561003,-21.41733223478934A197,197,0,0,1,196.0850891180803,-18.964119424705853L169.81466847959314,-16.423409182197204A170.6070045455344,170.6070045455344,0,0,0,169.59576471704264,-18.54795379661891Z" fill-rule="evenodd" style="fill: #1DC690; stroke: #fff; opacity: 1;" id="p-type-logs"></path><path d="M196.0850891180803,-18.964119424705853A197,197,0,0,1,196.30712696336082,-16.507934558597594L170.0069588942076,-14.296290691756571A170.6070045455344,170.6070045455344,0,0,0,169.81466847959314,-16.423409182197204Z" fill-rule="evenodd" style="fill: #1DC690; stroke: #fff; opacity: 1;" id="p-type-logs"></path><path d="M196.30712696336082,-16.507934558597594A197,197,0,0,1,196.49839956368945,-14.049162569656861L170.17260582514012,-12.166931687220305A170.6070045455344,170.6070045455344,0,0,0,170.0069588942076,-14.296290691756571Z" fill-rule="evenodd" style="fill: #1DC690; stroke: #fff; opacity: 1;" id="p-type-logs"></path><path d="M196.49839956368945,-14.049162569656861A197,197,0,0,1,196.6588769428321,-11.588188796529739L170.3115833122104,-10.035665881644974A170.6070045455344,170.6070045455344,0,0,0,170.17260582514012,-12.166931687220305Z" fill-rule="evenodd" style="fill: #1DC690; stroke: #fff; opacity: 1;" id="p-type-logs"></path><path d="M196.6588769428321,-11.588188796529739A197,197,0,0,1,196.78853395078042,-9.125398922925834L170.42386957487233,-7.902827286920926A170.6070045455344,170.6070045455344,0,0,0,170.3115833122104,-10.035665881644974Z" fill-rule="evenodd" style="fill: #1DC690; stroke: #fff; opacity: 1;" id="p-type-logs"></path><path d="M196.78853395078042,-9.125398922925834A197,197,0,0,1,196.88735026769342,-6.6611789171739515L170.5094470156274,-5.768750161425961A170.6070045455344,170.6070045455344,0,0,0,170.42386957487233,-7.902827286920926Z" fill-rule="evenodd" style="fill: #1DC690; stroke: #fff; opacity: 1;" id="p-type-logs"></path><path d="M196.88735026769342,-6.6611789171739515A197,197,0,0,1,196.9553104070819,-4.195914971733151L170.56830222278256,-3.633768957640373A170.6070045455344,170.6070045455344,0,0,0,170.5094470156274,-5.768750161425961Z" fill-rule="evenodd" style="fill: #1DC690; stroke: #fff; opacity: 1;" id="p-type-logs"></path><path d="M196.9553104070819,-4.195914971733151A197,197,0,0,1,196.9924037182356,-1.7299934426686705L170.60042597255213,-1.4982182697315665A170.6070045455344,170.6070045455344,0,0,0,170.56830222278256,-3.633768957640373Z" fill-rule="evenodd" style="fill: #1DC690; stroke: #fff; opacity: 1;" id="p-type-logs"></path><path d="M196.9924037182356,-1.7299934426686705A197,197,0,0,1,196.9986243878923,0.7361992108977682L170.60581323050337,0.6375672188835247A170.6070045455344,170.6070045455344,0,0,0,170.60042597255213,-1.4982182697315665Z" fill-rule="evenodd" style="fill: #1DC690; stroke: #fff; opacity: 1;" id="p-type-logs"></path><path d="M196.9986243878923,0.7361992108977682A197,197,0,0,1,196.97397144114888,3.202276487353824L170.58446315234545,2.773252787990009A170.6070045455344,170.6070045455344,0,0,0,170.60581323050337,0.6375672188835247Z" fill-rule="evenodd" style="fill: #1DC690; stroke: #fff; opacity: 1;" id="p-type-logs"></path><path d="M196.97397144114888,3.202276487353824A197,197,0,0,1,196.9184487416142,5.667851903169051L170.53637908406174,4.908503733032377A170.6070045455344,170.6070045455344,0,0,0,170.58446315234545,2.773252787990009Z" fill-rule="evenodd" style="fill: #1DC690; stroke: #fff; opacity: 1;" id="p-type-logs"></path><path d="M196.9184487416142,5.667851903169051A197,197,0,0,1,196.83206499080347,8.132539053464583L170.46156856138543,7.0429854175693825A170.6070045455344,170.6070045455344,0,0,0,170.53637908406174,4.908503733032377Z" fill-rule="evenodd" style="fill: #1DC690; stroke: #fff; opacity: 1;" id="p-type-logs"></path><path d="M196.83206499080347,8.132539053464583A197,197,0,0,1,196.71483372677454,10.595951672570491L170.36004330861863,9.176363325718258A170.6070045455344,170.6070045455344,0,0,0,170.46156856138543,7.0429854175693825Z" fill-rule="evenodd" style="fill: #1DC690; stroke: #fff; opacity: 1;" id="p-type-logs"></path><path d="M196.71483372677454,10.595951672570491A197,197,0,0,1,196.56677332200638,13.05770369456132L170.2318192367948,11.308303114580024A170.6070045455344,170.6070045455344,0,0,0,170.36004330861863,9.176363325718258Z" fill-rule="evenodd" style="fill: #1DC690; stroke: #fff; opacity: 1;" id="p-type-logs"></path><path d="M196.56677332200638,13.05770369456132A197,197,0,0,1,196.3879069805196,15.517409313760332L170.07691644118526,13.4384706666377A170.6070045455344,170.6070045455344,0,0,0,170.2318192367948,11.308303114580024Z" fill-rule="evenodd" style="fill: #1DC690; stroke: #fff; opacity: 1;" id="p-type-logs"></path><path d="M196.3879069805196,15.517409313760332A197,197,0,0,1,196.17826273423998,17.974683045202948L169.89535919814986,15.566532142119184A170.6070045455344,170.6070045455344,0,0,0,170.07691644118526,13.4384706666377Z" fill-rule="evenodd" style="fill: #1DC690; stroke: #fff; opacity: 1;" id="p-type-logs"></path><path d="M196.17826273423998,17.974683045202948A197,197,0,0,1,195.93787343860527,20.42913978504993L169.68717596133234,17.692154031316605A170.6070045455344,170.6070045455344,0,0,0,169.89535919814986,15.566532142119184Z" fill-rule="evenodd" style="fill: #1DC690; stroke: #fff; opacity: 1;" id="p-type-logs"></path><path d="M195.93787343860527,20.42913978504993A197,197,0,0,1,195.66677676741605,22.880394870940865L169.4523993572011,19.815003206853962A170.6070045455344,170.6070045455344,0,0,0,169.68717596133234,17.692154031316605Z" fill-rule="evenodd" style="fill: #1DC690; stroke: #fff; opacity: 1;" id="p-type-logs"></path><path d="M195.66677676741605,22.880394870940865A197,197,0,0,1,195.36501520693164,25.32806414227841L169.19106617993597,21.93474697589482A170.6070045455344,170.6070045455344,0,0,0,169.4523993572011,19.815003206853962Z" fill-rule="evenodd" style="fill: #1DC690; stroke: #fff; opacity: 1;" id="p-type-logs"></path><path d="M195.36501520693164,25.32806414227841A197,197,0,0,1,195.0326360492115,27.77176400043393L168.90321738566186,24.05105313228193A170.6070045455344,170.6070045455344,0,0,0,169.19106617993597,21.93474697589482Z" fill-rule="evenodd" style="fill: #1DC690; stroke: #fff; opacity: 1;" id="p-type-logs"></path><path d="M195.0326360492115,27.77176400043393A197,197,0,0,1,194.66969138470375,30.21111146886507L168.58889808603013,26.163590008600558A170.6070045455344,170.6070045455344,0,0,0,168.90321738566186,24.05105313228193Z" fill-rule="evenodd" style="fill: #1DC690; stroke: #fff; opacity: 1;" id="p-type-logs"></path><path d="M194.66969138470375,30.21111146886507A197,197,0,0,1,194.27623809408144,32.64572425313581L168.24815754114863,28.27202652815738A170.6070045455344,170.6070045455344,0,0,0,168.58889808603013,26.163590008600558Z" fill-rule="evenodd" style="fill: #1DC690; stroke: #fff; opacity: 1;" id="p-type-logs"></path><path d="M194.27623809408144,32.64572425313581A197,197,0,0,1,193.85233783932824,35.07522080082963L167.88104915186165,30.37603225686682A170.6070045455344,170.6070045455344,0,0,0,168.24815754114863,28.27202652815738Z" fill-rule="evenodd" style="fill: #1DC690; stroke: #fff; opacity: 1;" id="p-type-logs"></path><path d="M193.85233783932824,35.07522080082963A197,197,0,0,1,193.39805705407483,37.499220361346424L167.48763045138105,32.475277455036675A170.6070045455344,170.6070045455344,0,0,0,167.88104915186165,30.37603225686682Z" fill-rule="evenodd" style="fill: #1DC690; stroke: #fff; opacity: 1;" id="p-type-logs"></path><path d="M193.39805705407483,37.499220361346424A197,197,0,0,1,192.9134669331874,39.917343045573666L167.06796309626958,34.56943312904489A170.6070045455344,170.6070045455344,0,0,0,167.48763045138105,32.475277455036675Z" fill-rule="evenodd" style="fill: #1DC690; stroke: #fff; opacity: 1;" id="p-type-logs"></path><path d="M192.9134669331874,39.917343045573666A197,197,0,0,1,192.39864342161002,42.329209885422664L166.62211285677805,36.65817108289941A170.6070045455344,170.6070045455344,0,0,0,167.06796309626958,34.56943312904489Z" fill-rule="evenodd" style="fill: #1DC690; stroke: #fff; opacity: 1;" id="p-type-logs"></path><path d="M192.39864342161002,42.329209885422664A197,197,0,0,1,191.85366720246242,44.734442893220375L166.15014960653784,38.74116396967309A170.6070045455344,170.6070045455344,0,0,0,166.62211285677805,36.65817108289941Z" fill-rule="evenodd" style="fill: #1DC690; stroke: #fff; opacity: 1;" id="p-type-logs"></path><path d="M191.85366720246242,44.734442893220375A197,197,0,0,1,191.27862368439554,47.13266512094768L165.65214731161035,40.81808534280544A170.6070045455344,170.6070045455344,0,0,0,166.15014960653784,38.74116396967309Z" fill-rule="evenodd" style="fill: #1DC690; stroke: #fff; opacity: 1;" id="p-type-logs"></path><path d="M191.27862368439554,47.13266512094768A197,197,0,0,1,190.6736029882061,49.5235007193146L165.12818401889493,42.88860970726336A170.6070045455344,170.6070045455344,0,0,0,165.65214731161035,40.81808534280544Z" fill-rule="evenodd" style="fill: #1DC690; stroke: #fff; opacity: 1;" id="p-type-logs"></path><path d="M190.6736029882061,49.5235007193146A197,197,0,0,1,190.03869993271306,51.90657499666343L164.5783418438976,44.95241257055269A170.6070045455344,170.6070045455344,0,0,0,165.12818401889493,42.88860970726336Z" fill-rule="evenodd" style="fill: #1DC690; stroke: #fff; opacity: 1;" id="p-type-logs"></path><path d="M190.03869993271306,51.90657499666343A197,197,0,0,1,189.37401401989737,54.28151447769035L164.00270695786156,47.00917049357263A170.6070045455344,170.6070045455344,0,0,0,164.5783418438976,44.95241257055269Z" fill-rule="evenodd" style="fill: #1DC690; stroke: #fff; opacity: 1;" id="p-type-logs"></path><path d="M189.37401401989737,54.28151447769035A197,197,0,0,1,188.6796494193083,56.64794696197652L163.40136957426282,49.058561141305184A170.6070045455344,170.6070045455344,0,0,0,164.00270695786156,47.00917049357263Z" fill-rule="evenodd" style="fill: #1DC690; stroke: #fff; opacity: 1;" id="p-type-logs"></path><path d="M188.6796494193083,56.64794696197652A197,197,0,0,1,187.9557149517378,59.005501582319276L162.77442393467157,51.100263333331384A170.6070045455344,170.6070045455344,0,0,0,163.40136957426282,49.058561141305184Z" fill-rule="evenodd" style="fill: #1DC690; stroke: #fff; opacity: 1;" id="p-type-logs"></path><path d="M187.9557149517378,59.005501582319276A197,197,0,0,1,187.2023240721662,61.35380886285442L162.12196829398306,53.13395709416677A170.6070045455344,170.6070045455344,0,0,0,162.77442393467157,51.100263333331384Z" fill-rule="evenodd" style="fill: #1DC690; stroke: #fff; opacity: 1;" id="p-type-logs"></path><path d="M187.2023240721662,61.35380886285442A197,197,0,0,1,186.4195948519814,63.69250077696045L161.44410490501863,55.15932370340785A170.6070045455344,170.6070045455344,0,0,0,162.12196829398306,53.13395709416677Z" fill-rule="evenodd" style="fill: #1DC690; stroke: #fff; opacity: 1;" id="p-type-logs"></path><path d="M186.4195948519814,63.69250077696045A197,197,0,0,1,185.60764996047504,66.02121080493578L160.74094000250113,57.176045745682046A170.6070045455344,170.6070045455344,0,0,0,161.44410490501863,55.15932370340785Z" fill-rule="evenodd" style="fill: #1DC690; stroke: #fff; opacity: 1;" id="p-type-logs"></path><path d="M185.60764996047504,66.02121080493578A197,197,0,0,1,184.76661664561746,68.3395739914395L160.01258378640546,59.18380716039291A170.6070045455344,170.6070045455344,0,0,0,160.74094000250113,57.176045745682046Z" fill-rule="evenodd" style="fill: #1DC690; stroke: #fff; opacity: 1;" id="p-type-logs"></path><path d="M184.76661664561746,68.3395739914395A197,197,0,0,1,183.89662671411557,70.64722700268737L159.2591504046881,61.182293291253224A170.6070045455344,170.6070045455344,0,0,0,160.01258378640546,59.18380716039291Z" fill-rule="evenodd" style="fill: #1DC690; stroke: #fff; opacity: 1;" id="p-type-logs"></path><path d="M183.89662671411557,70.64722700268737A197,197,0,0,1,182.997816510756,72.94380818339333L158.4807579353981,63.17119093559784A170.6070045455344,170.6070045455344,0,0,0,159.2591504046881,61.182293291253224Z" fill-rule="evenodd" style="fill: #1DC690; stroke: #fff; opacity: 1;" id="p-type-logs"></path><path d="M182.997816510756,72.94380818339333A197,197,0,0,1,182.0703268970373,75.22895761344817L157.67752836817144,65.15018839346887A170.6070045455344,170.6070045455344,0,0,0,158.4807579353981,63.17119093559784Z" fill-rule="evenodd" style="fill: #1DC690; stroke: #fff; opacity: 1;" id="p-type-logs"></path><path d="M182.0703268970373,75.22895761344817A197,197,0,0,1,181.11430322909393,77.50231716432617L156.84958758511334,67.1189755164652A170.6070045455344,170.6070045455344,0,0,0,157.67752836817144,65.15018839346887Z" fill-rule="evenodd" style="fill: #1DC690; stroke: #fff; opacity: 1;" id="p-type-logs"></path><path d="M107.64229374023374,164.9913227971133A197,197,0,0,1,3.554377810087808,196.9679324113018L3.0781814781837427,170.57923319908366A170.6070045455344,170.6070045455344,0,0,0,93.22096090066907,142.8866769462987Z" fill-rule="evenodd" style="fill: #414552; stroke: #fff; opacity: 1;" id="p-type-ether"></path><path d="M3.554377810087808,196.9679324113018A197,197,0,0,1,-12.117330431625515,196.62698264279703L-10.493915979837952,170.2839620381441A170.6070045455344,170.6070045455344,0,0,0,3.0781814781837427,170.57923319908366Z" fill-rule="evenodd" style="fill: #414552; stroke: #fff; opacity: 1;" id="p-type-ether"></path><path d="M-12.117330431625515,196.62698264279703A197,197,0,0,1,-18.098642221535236,196.16686557555244L-15.673883937855143,169.8854889691955A170.6070045455344,170.6070045455344,0,0,0,-10.493915979837952,170.2839620381441Z" fill-rule="evenodd" style="fill: #414552; stroke: #fff; opacity: 1;" id="p-type-ether"></path><path d="M-18.098642221535236,196.16686557555244A197,197,0,0,1,-23.004029865850097,195.65227984853914L-19.922074253242116,169.43984465717708A170.6070045455344,170.6070045455344,0,0,0,-15.673883937855143,169.8854889691955Z" fill-rule="evenodd" style="fill: #414552; stroke: #fff; opacity: 1;" id="p-type-ether"></path><path d="M-23.004029865850097,195.65227984853914A197,197,0,0,1,-25.939715768379454,195.28474376114406L-22.464452822364386,169.1215490686854A170.6070045455344,170.6070045455344,0,0,0,-19.922074253242116,169.43984465717708Z" fill-rule="evenodd" style="fill: #414552; stroke: #fff; opacity: 1;" id="p-type-ether"></path><path d="M-25.939715768379454,195.28474376114406A197,197,0,0,1,-27.852160385687217,195.02117106060552L-24.120678444283715,168.89328841427496A170.6070045455344,170.6070045455344,0,0,0,-22.464452822364386,169.1215490686854Z" fill-rule="evenodd" style="fill: #414552; stroke: #fff; opacity: 1;" id="p-type-ether"></path><path d="M-27.852160385687217,195.02117106060552A197,197,0,0,1,-29.072328739870475,194.8430129659283L-25.177375235900268,168.73899897839465A170.6070045455344,170.6070045455344,0,0,0,-24.120678444283715,168.89328841427496Z" fill-rule="evenodd" style="fill: #414552; stroke: #fff; opacity: 1;" id="p-type-ether"></path><path d="M-29.072328739870475,194.8430129659283A197,197,0,0,1,-30.08671587319369,194.68895584486995L-26.055860262630244,168.60558159792424A170.6070045455344,170.6070045455344,0,0,0,-25.177375235900268,168.73899897839465Z" fill-rule="evenodd" style="fill: #414552; stroke: #fff; opacity: 1;" id="p-type-ether"></path><path d="M-30.08671587319369,194.68895584486995A197,197,0,0,1,-31.065966346453582,194.53510154972295L-26.903916049141245,168.47233986984557A170.6070045455344,170.6070045455344,0,0,0,-26.055860262630244,168.60558159792424Z" fill-rule="evenodd" style="fill: #414552; stroke: #fff; opacity: 1;" id="p-type-ether"></path><path d="M-100.88633263870341,169.20681985875416A197,197,0,0,1,-105.09082445757183,166.62808471211514L-91.0113236849082,144.30415434463717A170.6070045455344,170.6070045455344,0,0,0,-87.3701269597643,146.53740449125834Z" fill-rule="evenodd" style="fill: #D7A449; stroke: #fff; opacity: 1;" id="p-type-tokenTransfers"></path><path d="M-105.09082445757183,166.62808471211514A197,197,0,0,1,-107.16852972192305,165.29944415285038L-92.81066922541302,143.1535178678155A170.6070045455344,170.6070045455344,0,0,0,-91.0113236849082,144.30415434463717Z" fill-rule="evenodd" style="fill: #D7A449; stroke: #fff; opacity: 1;" id="p-type-tokenTransfers"></path><path d="M-107.16852972192305,165.29944415285038A197,197,0,0,1,-109.2294395386559,163.94489787142237L-94.5954694816124,141.98044637749712A170.6070045455344,170.6070045455344,0,0,0,-92.81066922541302,143.1535178678155Z" fill-rule="evenodd" style="fill: #D7A449; stroke: #fff; opacity: 1;" id="p-type-tokenTransfers"></path><path d="M-109.2294395386559,163.94489787142237A197,197,0,0,1,-111.27323092206775,162.56465815226932L-96.3654447396828,140.78512371739825A170.6070045455344,170.6070045455344,0,0,0,-94.5954694816124,141.98044637749712Z" fill-rule="evenodd" style="fill: #D7A449; stroke: #fff; opacity: 1;" id="p-type-tokenTransfers"></path><path d="M-111.27323092206775,162.56465815226932A197,197,0,0,1,-113.29958356925616,161.1589413065038L-98.12031760917381,139.5677372184376A170.6070045455344,170.6070045455344,0,0,0,-96.3654447396828,140.78512371739825Z" fill-rule="evenodd" style="fill: #D7A449; stroke: #fff; opacity: 1;" id="p-type-tokenTransfers"></path><path d="M-113.29958356925616,161.1589413065038A197,197,0,0,1,-115.30817991031662,159.72796763801276L-99.85981306648065,138.32847766937775A170.6070045455344,170.6070045455344,0,0,0,-98.12031760917381,139.5677372184376Z" fill-rule="evenodd" style="fill: #D7A449; stroke: #fff; opacity: 1;" id="p-type-tokenTransfers"></path><path d="M-115.30817991031662,159.72796763801276A197,197,0,0,1,-117.29870515811234,158.27196140893128L-101.58365849794605,137.06753928692478A170.6070045455344,170.6070045455344,0,0,0,-99.85981306648065,138.32847766937775Z" fill-rule="evenodd" style="fill: #D7A449; stroke: #fff; opacity: 1;" id="p-type-tokenTransfers"></path><path d="M-117.29870515811234,158.27196140893128A197,197,0,0,1,-119.27084735760741,156.79115080449634L-103.29158374258411,135.78511968529077A170.6070045455344,170.6070045455344,0,0,0,-101.58365849794605,137.06753928692478Z" fill-rule="evenodd" style="fill: #D7A449; stroke: #fff; opacity: 1;" id="p-type-tokenTransfers"></path><path d="M-119.27084735760741,156.79115080449634A197,197,0,0,1,-121.22429743475658,155.28576789728564L-104.98332113441995,134.4814198452234A170.6070045455344,170.6070045455344,0,0,0,-103.29158374258411,135.78511968529077Z" fill-rule="evenodd" style="fill: #D7A449; stroke: #fff; opacity: 1;" id="p-type-tokenTransfers"></path><path d="M-121.22429743475658,155.28576789728564A197,197,0,0,1,-123.15874924494324,153.75604861084716L-106.65860554443839,133.15664408250868A170.6070045455344,170.6070045455344,0,0,0,-104.98332113441995,134.4814198452234Z" fill-rule="evenodd" style="fill: #D7A449; stroke: #fff; opacity: 1;" id="p-type-tokenTransfers"></path><path d="M-123.15874924494324,153.75604861084716A197,197,0,0,1,-125.07389962095836,152.20223268272522L-108.3171744221348,131.81100001595019A170.6070045455344,170.6070045455344,0,0,0,-106.65860554443839,133.15664408250868Z" fill-rule="evenodd" style="fill: #D7A449; stroke: #fff; opacity: 1;" id="p-type-tokenTransfers"></path><path d="M-125.07389962095836,152.20223268272522A197,197,0,0,1,-126.96944842051293,150.62456362688891L-109.95876783666216,130.44469853483133A170.6070045455344,170.6070045455344,0,0,0,-108.3171744221348,131.81100001595019Z" fill-rule="evenodd" style="fill: #D7A449; stroke: #fff; opacity: 1;" id="p-type-tokenTransfers"></path><path d="M-126.96944842051293,150.62456362688891A197,197,0,0,1,-128.8450985732762,149.02328869556845L-111.58312851756733,129.05795376586462A170.6070045455344,170.6070045455344,0,0,0,-109.95876783666216,130.44469853483133Z" fill-rule="evenodd" style="fill: #D7A449; stroke: #fff; opacity: 1;" id="p-type-tokenTransfers"></path><path d="M-128.8450985732762,149.02328869556845A197,197,0,0,1,-130.70055612743255,147.39865884050593L-113.19000189511046,127.65098303963386A170.6070045455344,170.6070045455344,0,0,0,-111.58312851756733,129.05795376586462Z" fill-rule="evenodd" style="fill: #D7A449; stroke: #fff; opacity: 1;" id="p-type-tokenTransfers"></path><path d="M-130.70055612743255,147.39865884050593A197,197,0,0,1,-132.53553029574954,145.75092867362613L-114.7791361401612,126.22400685653399A170.6070045455344,170.6070045455344,0,0,0,-113.19000189511046,127.65098303963386Z" fill-rule="evenodd" style="fill: #D7A449; stroke: #fff; opacity: 1;" id="p-type-tokenTransfers"></path><path d="M-132.53553029574954,145.75092867362613A197,197,0,0,1,-134.34973350115018,144.08035642713384L-116.3502822036653,124.77724885221441A170.6070045455344,170.6070045455344,0,0,0,-114.7791361401612,126.22400685653399Z" fill-rule="evenodd" style="fill: #D7A449; stroke: #fff; opacity: 1;" id="p-type-tokenTransfers"></path><path d="M-134.34973350115018,144.08035642713384A197,197,0,0,1,-136.14288142178188,142.38720391304352L-117.90319385567561,123.31093576253072A170.6070045455344,170.6070045455344,0,0,0,-116.3502822036653,124.77724885221441Z" fill-rule="evenodd" style="fill: #D7A449; stroke: #fff; opacity: 1;" id="p-type-tokenTransfers"></path><path d="M-136.14288142178188,142.38720391304352A197,197,0,0,1,-137.91469303557554,140.6717364821483L-119.4376277239412,121.82529738801063A170.6070045455344,170.6070045455344,0,0,0,-117.90319385567561,123.31093576253072Z" fill-rule="evenodd" style="fill: #D7A449; stroke: #fff; opacity: 1;" id="p-type-tokenTransfers"></path><path d="M-137.91469303557554,140.6717364821483A197,197,0,0,1,-139.66489066428707,138.93422298243416L-120.95334333204868,120.32056655783978A170.6070045455344,170.6070045455344,0,0,0,-119.4376277239412,121.82529738801063Z" fill-rule="evenodd" style="fill: #D7A449; stroke: #fff; opacity: 1;" id="p-type-tokenTransfers"></path><path d="M-139.66489066428707,138.93422298243416A197,197,0,0,1,-141.3932000170153,137.17493571694615L-122.45010313710955,118.7969790933727A170.6070045455344,170.6070045455344,0,0,0,-120.95334333204868,120.32056655783978Z" fill-rule="evenodd" style="fill: #D7A449; stroke: #fff; opacity: 1;" id="p-type-tokenTransfers"></path><path d="M-141.3932000170153,137.17493571694615A197,197,0,0,1,-143.09935023318877,135.39415040111288L-123.92767256698811,117.2547737711748A170.6070045455344,170.6070045455344,0,0,0,-122.45010313710955,118.7969790933727Z" fill-rule="evenodd" style="fill: #D7A449; stroke: #fff; opacity: 1;" id="p-type-tokenTransfers"></path><path d="M-143.09935023318877,135.39415040111288A197,197,0,0,1,-144.78307392501506,133.59214611953664L-125.3858200570634,115.69419228560143A170.6070045455344,170.6070045455344,0,0,0,-123.92767256698811,117.2547737711748Z" fill-rule="evenodd" style="fill: #D7A449; stroke: #fff; opacity: 1;" id="p-type-tokenTransfers"></path><path d="M-144.78307392501506,133.59214611953664A197,197,0,0,1,-146.44410721938564,131.7692052822551L-126.82431708652007,114.11547921091955A170.6070045455344,170.6070045455344,0,0,0,-125.3858200570634,115.69419228560143Z" fill-rule="evenodd" style="fill: #D7A449; stroke: #fff; opacity: 1;" id="p-type-tokenTransfers"></path><path d="M-146.44410721938564,131.7692052822551A197,197,0,0,1,-148.0821897992302,129.92561358048215L-128.24293821416222,112.51888196297799A170.6070045455344,170.6070045455344,0,0,0,-126.82431708652007,114.11547921091955Z" fill-rule="evenodd" style="fill: #D7A449; stroke: #fff; opacity: 1;" id="p-type-tokenTransfers"></path><path d="M-148.0821897992302,129.92561358048215A197,197,0,0,1,-149.69706494431338,128.06165994183434L-129.64146111374433,110.90465076043256A170.6070045455344,170.6070045455344,0,0,0,-128.24293821416222,112.51888196297799Z" fill-rule="evenodd" style="fill: #D7A449; stroke: #fff; opacity: 1;" id="p-type-tokenTransfers"></path><path d="M-149.69706494431338,128.06165994183434A197,197,0,0,1,-151.28847957146832,126.17763648505L-131.01966660881465,109.27303858553154A170.6070045455344,170.6070045455344,0,0,0,-129.64146111374433,110.90465076043256Z" fill-rule="evenodd" style="fill: #D7A449; stroke: #fff; opacity: 1;" id="p-type-tokenTransfers"></path><path d="M-151.28847957146832,126.17763648505A197,197,0,0,1,-152.85618427425925,124.27383847420865L-132.37733870706393,107.62430114446865A170.6070045455344,170.6070045455344,0,0,0,-131.01966660881465,109.27303858553154Z" fill-rule="evenodd" style="fill: #D7A449; stroke: #fff; opacity: 1;" id="p-type-tokenTransfers"></path><path d="M-152.85618427425925,124.27383847420865A197,197,0,0,1,-154.39993336206896,122.35056427245713L-133.7142646341762,105.9586968273086A170.6070045455344,170.6070045455344,0,0,0,-132.37733870706393,107.62430114446865Z" fill-rule="evenodd" style="fill: #D7A449; stroke: #fff; opacity: 1;" id="p-type-tokenTransfers"></path><path d="M-154.39993336206896,122.35056427245713A197,197,0,0,1,-155.9194848986032,120.40811529525011L-135.03023486717453,104.27648666749222A170.6070045455344,170.6070045455344,0,0,0,-133.7142646341762,105.9586968273086Z" fill-rule="evenodd" style="fill: #D7A449; stroke: #fff; opacity: 1;" id="p-type-tokenTransfers"></path><path d="M-155.9194848986032,120.40811529525011A197,197,0,0,1,-157.414600739807,118.44679596311225L-136.32504316725758,102.5779343009273A170.6070045455344,170.6070045455344,0,0,0,-135.03023486717453,104.27648666749222Z" fill-rule="evenodd" style="fill: #D7A449; stroke: #fff; opacity: 1;" id="p-type-tokenTransfers"></path><path d="M-157.414600739807,118.44679596311225A197,197,0,0,1,-158.8850465711866,116.4669136539295L-137.5984866121212,100.86330592467165A170.6070045455344,170.6070045455344,0,0,0,-136.32504316725758,102.5779343009273Z" fill-rule="evenodd" style="fill: #D7A449; stroke: #fff; opacity: 1;" id="p-type-tokenTransfers"></path><path d="M-158.8850465711866,116.4669136539295A197,197,0,0,1,-160.330591944531,114.46877865477686L-138.8503656277605,99.13287025521466A170.6070045455344,170.6070045455344,0,0,0,-137.5984866121212,100.86330592467165Z" fill-rule="evenodd" style="fill: #D7A449; stroke: #fff; opacity: 1;" id="p-type-tokenTransfers"></path></g></svg>