<svg xmlns="http://www.w3.org/2000/svg" width="400" height="400" id="block-7907905"><g id="burst-container" transform="translate(200,200)"><circle r="197" style="fill: #f9f9f9; stroke: #f9f9f9; stroke-width: 3; opacity: 1;" id="circle-base"></circle><path display="none" d="M6.031385485800715e-15,-98.5A98.5,98.5,0,1,1,-6.031385485800715e-15,98.5A98.5,98.5,0,1,1,6.031385485800715e-15,-98.5Z" fill-rule="evenodd" id="p-type-root" style="stroke: #fff; opacity: 1;"></path><path d="M8.529667153919608e-15,-139.30003589374985A139.30003589374985,139.30003589374985,0,1,1,-55.46725942088742,-127.78060546239391L-39.221275270342915,-90.35453262658153A98.5,98.5,0,1,0,6.031385485800715e-15,-98.5Z" fill-rule="evenodd" style="fill: #0B1F65; stroke: #fff; opacity: 1;" id="p-type-data"></path><path d="M-55.46725942088742,-127.78060546239391A139.30003589374985,139.30003589374985,0,0,1,-1.2268368713763385,-139.29463331834083L-0.8675046711598972,-98.49617980229242A98.5,98.5,0,0,0,-39.221275270342915,-90.35453262658153Z" fill-rule="evenodd" style="fill: #D7A449; stroke: #fff; opacity: 1;" id="p-type-value"></path><path d="M1.0446666101440332e-14,-170.6070045455344A170.6070045455344,170.6070045455344,0,1,1,-88.37537057987228,145.9333542233243L-72.15818791668646,119.15408476665901A139.30003589374985,139.30003589374985,0,1,0,8.529667153919608e-15,-139.30003589374985Z" fill-rule="evenodd" style="fill: #414552; stroke: #fff; opacity: 1;" id="p-type-ether"></path><path d="M-88.37537057987228,145.9333542233243A170.6070045455344,170.6070045455344,0,0,1,-164.2256187096083,46.22441086099804L-134.08965617713557,37.74207342340334A139.30003589374985,139.30003589374985,0,0,0,-72.15818791668646,119.15408476665901Z" fill-rule="evenodd" style="fill: #DB3F29; stroke: #fff; opacity: 1;" id="p-type-functions"></path><path d="M-164.2256187096083,46.22441086099804A170.6070045455344,170.6070045455344,0,0,1,-164.7462096400638,-44.333242710545626L-134.51471689191447,-36.197941094599535A139.30003589374985,139.30003589374985,0,0,0,-134.08965617713557,37.74207342340334Z" fill-rule="evenodd" style="fill: #1DC690; stroke: #fff; opacity: 1;" id="p-type-logs"></path><path d="M-164.7462096400638,-44.333242710545626A170.6070045455344,170.6070045455344,0,0,1,-139.75905632313305,-97.84761711798258L-114.11279164152363,-79.89224482875801A139.30003589374985,139.30003589374985,0,0,0,-134.51471689191447,-36.197941094599535Z" fill-rule="evenodd" style="fill: #D7A449; stroke: #fff; opacity: 1;" id="p-type-tokenTransfers"></path><path d="M-67.93324150587868,-156.498641203379A170.6070045455344,170.6070045455344,0,0,1,-32.85034163367406,-167.41447086363502L-26.822191626202603,-136.6933430579824A139.30003589374985,139.30003589374985,0,0,0,-55.46725942088742,-127.78060546239391Z" fill-rule="evenodd" style="fill: #414552; stroke: #fff; opacity: 1;" id="p-type-ether"></path><path d="M-32.85034163367406,-167.41447086363502A170.6070045455344,170.6070045455344,0,0,1,-3.005007782564707,-170.580537952683L-2.4535785801252903,-139.27842601117786A139.30003589374985,139.30003589374985,0,0,0,-26.822191626202603,-136.6933430579824Z" fill-rule="evenodd" style="fill: #D7A449; stroke: #fff; opacity: 1;" id="p-type-tokenTransfers"></path><path d="M1.206277097160143e-14,-197A197,197,0,1,1,-44.57943951659545,191.88974327041612L-38.60692710784353,166.18139239785438A170.6070045455344,170.6070045455344,0,1,0,1.0446666101440332e-14,-170.6070045455344Z" fill-rule="evenodd" style="fill: #414552; stroke: #fff; opacity: 1;" id="p-type-ether"></path><path d="M-44.57943951659545,191.88974327041612A197,197,0,0,1,-53.16294201261103,189.6910688371062L-46.040458322840166,164.27728448395663A170.6070045455344,170.6070045455344,0,0,0,-38.60692710784353,166.18139239785438Z" fill-rule="evenodd" style="fill: #414552; stroke: #fff; opacity: 1;" id="p-type-ether"></path><path d="M-53.16294201261103,189.6910688371062A197,197,0,0,1,-56.164072198391466,188.82424895678486L-48.63951330379033,163.52659644709297A170.6070045455344,170.6070045455344,0,0,0,-46.040458322840166,164.27728448395663Z" fill-rule="evenodd" style="fill: #414552; stroke: #fff; opacity: 1;" id="p-type-ether"></path><path d="M-56.164072198391466,188.82424895678486A197,197,0,0,1,-58.706929996141746,188.04918604032326L-50.84169275485343,162.855372271906A170.6070045455344,170.6070045455344,0,0,0,-48.63951330379033,163.52659644709297Z" fill-rule="evenodd" style="fill: #414552; stroke: #fff; opacity: 1;" id="p-type-ether"></path><path d="M-58.706929996141746,188.04918604032326A197,197,0,0,1,-60.36053630659166,187.5249467585063L-52.27375782756131,162.4013677361908A170.6070045455344,170.6070045455344,0,0,0,-50.84169275485343,162.855372271906Z" fill-rule="evenodd" style="fill: #414552; stroke: #fff; opacity: 1;" id="p-type-ether"></path></g></svg>