<svg xmlns="http://www.w3.org/2000/svg" width="400" height="400" id="block-7907849"><g id="burst-container" transform="translate(200,200)"><circle r="197" style="fill: #f9f9f9; stroke: #f9f9f9; stroke-width: 3; opacity: 1;" id="circle-base"></circle><path display="none" d="M6.031385485800715e-15,-98.5A98.5,98.5,0,1,1,-6.031385485800715e-15,98.5A98.5,98.5,0,1,1,6.031385485800715e-15,-98.5Z" fill-rule="evenodd" id="p-type-root" style="stroke: #fff; opacity: 1;"></path><path d="M8.529667153919608e-15,-139.30003589374985A139.30003589374985,139.30003589374985,0,1,1,-134.1372616722688,-37.572530272331704L-94.84936733825566,-26.56779094190259A98.5,98.5,0,1,0,6.031385485800715e-15,-98.5Z" fill-rule="evenodd" style="fill: #0B1F65; stroke: #fff; opacity: 1;" id="p-type-data"></path><path d="M-134.1372616722688,-37.572530272331704A139.30003589374985,139.30003589374985,0,0,1,-3.347238687238269,-139.2598147103846L-2.366855173996137,-98.47155932849509A98.5,98.5,0,0,0,-94.84936733825566,-26.56779094190259Z" fill-rule="evenodd" style="fill: #D7A449; stroke: #fff; opacity: 1;" id="p-type-value"></path><path d="M1.0446666101440332e-14,-170.6070045455344A170.6070045455344,170.6070045455344,0,0,1,168.47025644540724,26.91695921196741L137.55538837569222,21.977605165542446A139.30003589374985,139.30003589374985,0,0,0,8.529667153919608e-15,-139.30003589374985Z" fill-rule="evenodd" style="fill: #414552; stroke: #fff; opacity: 1;" id="p-type-ether"></path><path d="M168.47025644540724,26.91695921196741A170.6070045455344,170.6070045455344,0,0,1,51.544936202863255,162.63415862555675L42.08626417377561,132.79023445982452A139.30003589374985,139.30003589374985,0,0,0,137.55538837569222,21.977605165542446Z" fill-rule="evenodd" style="fill: #1DC690; stroke: #fff; opacity: 1;" id="p-type-logs"></path><path d="M51.544936202863255,162.63415862555675A170.6070045455344,170.6070045455344,0,0,1,-77.89135768799493,151.78829466569823L-63.5980272360664,123.9346236193928A139.30003589374985,139.30003589374985,0,0,0,42.08626417377561,132.79023445982452Z" fill-rule="evenodd" style="fill: #D7A449; stroke: #fff; opacity: 1;" id="p-type-tokenTransfers"></path><path d="M-164.2839232956228,-46.016763756243485A170.6070045455344,170.6070045455344,0,0,1,-73.37429879697986,-154.02260313360347L-59.90986409570341,-125.7589288441753A139.30003589374985,139.30003589374985,0,0,0,-134.1372616722688,-37.572530272331704Z" fill-rule="evenodd" style="fill: #414552; stroke: #fff; opacity: 1;" id="p-type-ether"></path><path d="M-73.37429879697986,-154.02260313360347A170.6070045455344,170.6070045455344,0,0,1,-8.196659462217376,-170.40999024018643L-6.6925444259293805,-139.1391743870394A139.30003589374985,139.30003589374985,0,0,0,-59.90986409570341,-125.7589288441753Z" fill-rule="evenodd" style="fill: #D7A449; stroke: #fff; opacity: 1;" id="p-type-tokenTransfers"></path><path d="M1.206277097160143e-14,-197A197,197,0,0,1,68.81912873947303,-184.588535720775L59.599113754695395,-159.85836118156246A170.6070045455344,170.6070045455344,0,0,0,1.0446666101440332e-14,-170.6070045455344Z" fill-rule="evenodd" style="fill: #414552; stroke: #fff; opacity: 1;" id="p-type-ether"></path><path d="M68.81912873947303,-184.588535720775A197,197,0,0,1,110.77430398434004,-162.90504466340207L95.93336133697822,-141.0799070831448A170.6070045455344,170.6070045455344,0,0,0,59.599113754695395,-159.85836118156246Z" fill-rule="evenodd" style="fill: #414552; stroke: #fff; opacity: 1;" id="p-type-ether"></path><path d="M110.77430398434004,-162.90504466340207A197,197,0,0,1,131.83629575217202,-146.38371194345982L114.17358126221944,-126.77201324329975A170.6070045455344,170.6070045455344,0,0,0,95.93336133697822,-141.0799070831448Z" fill-rule="evenodd" style="fill: #414552; stroke: #fff; opacity: 1;" id="p-type-ether"></path><path d="M131.83629575217202,-146.38371194345982A197,197,0,0,1,135.96799192578595,-142.5542183580318L117.75173510928808,-123.45557451468952A170.6070045455344,170.6070045455344,0,0,0,114.17358126221944,-126.77201324329975Z" fill-rule="evenodd" style="fill: #414552; stroke: #fff; opacity: 1;" id="p-type-ether"></path><path d="M135.96799192578595,-142.5542183580318A197,197,0,0,1,138.3370979751226,-140.25636286394044L119.803441132273,-121.46557328258076A170.6070045455344,170.6070045455344,0,0,0,117.75173510928808,-123.45557451468952Z" fill-rule="evenodd" style="fill: #414552; stroke: #fff; opacity: 1;" id="p-type-ether"></path><path d="M138.3370979751226,-140.25636286394044A197,197,0,0,1,140.01383196522352,-138.58256332747692L121.25553536308924,-120.01602036316075A170.6070045455344,170.6070045455344,0,0,0,119.803441132273,-121.46557328258076Z" fill-rule="evenodd" style="fill: #414552; stroke: #fff; opacity: 1;" id="p-type-ether"></path><path d="M140.01383196522352,-138.58256332747692A197,197,0,0,1,141.3114360190346,-137.25916381152223L122.37929343774331,-118.86992276298793A170.6070045455344,170.6070045455344,0,0,0,121.25553536308924,-120.01602036316075Z" fill-rule="evenodd" style="fill: #414552; stroke: #fff; opacity: 1;" id="p-type-ether"></path><path d="M141.3114360190346,-137.25916381152223A197,197,0,0,1,142.58464980551713,-135.93607924255446L123.48192892128574,-117.72409791490666A170.6070045455344,170.6070045455344,0,0,0,122.37929343774331,-118.86992276298793Z" fill-rule="evenodd" style="fill: #414552; stroke: #fff; opacity: 1;" id="p-type-ether"></path><path d="M142.58464980551713,-135.93607924255446A197,197,0,0,1,143.83454268112925,-134.61286837338548L124.56436790357503,-116.57816368764266A170.6070045455344,170.6070045455344,0,0,0,123.48192892128574,-117.72409791490666Z" fill-rule="evenodd" style="fill: #414552; stroke: #fff; opacity: 1;" id="p-type-ether"></path><path d="M143.83454268112925,-134.61286837338548A197,197,0,0,1,144.67040102012632,-133.7141543318277L125.28824245911156,-115.79985449691583A170.6070045455344,170.6070045455344,0,0,0,124.56436790357503,-116.57816368764266Z" fill-rule="evenodd" style="fill: #414552; stroke: #fff; opacity: 1;" id="p-type-ether"></path><path d="M144.67040102012632,-133.7141543318277A197,197,0,0,1,145.47171329421275,-132.84193852562663L125.98219924483467,-115.04449345116338A170.6070045455344,170.6070045455344,0,0,0,125.28824245911156,-115.79985449691583Z" fill-rule="evenodd" style="fill: #414552; stroke: #fff; opacity: 1;" id="p-type-ether"></path><path d="M194.53269581840232,31.081027293591124A197,197,0,0,1,194.14520332533272,33.416164139009474L168.1346781026332,28.93924704141276A170.6070045455344,170.6070045455344,0,0,0,168.47025644540724,26.91695921196741Z" fill-rule="evenodd" style="fill: #1DC690; stroke: #fff; opacity: 1;" id="p-type-logs"></path><path d="M194.14520332533272,33.416164139009474A197,197,0,0,1,193.7296812929029,35.74647655574272L167.77482546671686,30.957356793058054A170.6070045455344,170.6070045455344,0,0,0,168.1346781026332,28.93924704141276Z" fill-rule="evenodd" style="fill: #1DC690; stroke: #fff; opacity: 1;" id="p-type-logs"></path><path d="M193.7296812929029,35.74647655574272A197,197,0,0,1,193.28618971173316,38.07162810702862L167.39075049105932,32.97099710412044A170.6070045455344,170.6070045455344,0,0,0,167.77482546671686,30.957356793058054Z" fill-rule="evenodd" style="fill: #1DC690; stroke: #fff; opacity: 1;" id="p-type-logs"></path><path d="M193.28618971173316,38.07162810702862A197,197,0,0,1,192.8147926105222,40.391283101200294L166.9825086261403,34.97987725708856A170.6070045455344,170.6070045455344,0,0,0,167.39075049105932,32.97099710412044Z" fill-rule="evenodd" style="fill: #1DC690; stroke: #fff; opacity: 1;" id="p-type-logs"></path><path d="M192.8147926105222,40.391283101200294A197,197,0,0,1,192.31555804680312,42.705106640151335L166.55015881151232,36.98370722169457A170.6070045455344,170.6070045455344,0,0,0,166.9825086261403,34.97987725708856Z" fill-rule="evenodd" style="fill: #1DC690; stroke: #fff; opacity: 1;" id="p-type-logs"></path><path d="M192.31555804680312,42.705106640151335A197,197,0,0,1,191.78855809711766,45.01276466768644L166.09376346729158,38.98219769678706A170.6070045455344,170.6070045455344,0,0,0,166.55015881151232,36.98370722169457Z" fill-rule="evenodd" style="fill: #1DC690; stroke: #fff; opacity: 1;" id="p-type-logs"></path><path d="M191.78855809711766,45.01276466768644A197,197,0,0,1,191.23386884661025,47.313924017750494L165.613388485146,40.97506015209862A170.6070045455344,170.6070045455344,0,0,0,166.09376346729158,38.98219769678706Z" fill-rule="evenodd" style="fill: #1DC690; stroke: #fff; opacity: 1;" id="p-type-logs"></path><path d="M191.23386884661025,47.313924017750494A197,197,0,0,1,190.65157037804323,49.608252462529094L165.10910321878222,42.96200686990213A170.6070045455344,170.6070045455344,0,0,0,165.613388485146,40.97506015209862Z" fill-rule="evenodd" style="fill: #1DC690; stroke: #fff; opacity: 1;" id="p-type-logs"></path><path d="M190.65157037804323,49.608252462529094A197,197,0,0,1,190.04174676023504,51.89541876041366L164.58098047393258,44.942750986549775A170.6070045455344,170.6070045455344,0,0,0,165.10910321878222,42.96200686990213Z" fill-rule="evenodd" style="fill: #1DC690; stroke: #fff; opacity: 1;" id="p-type-logs"></path><path d="M190.04174676023504,51.89541876041366A197,197,0,0,1,189.40448603592276,54.17509270382414L164.02909649784408,46.9170065338887A170.6070045455344,170.6070045455344,0,0,0,164.58098047393258,44.942750986549775Z" fill-rule="evenodd" style="fill: #1DC690; stroke: #fff; opacity: 1;" id="p-type-logs"></path><path d="M189.40448603592276,54.17509270382414A197,197,0,0,1,188.7398802090511,56.44694516688242L163.45353096827006,48.88448848054741A170.6070045455344,170.6070045455344,0,0,0,164.02909649784408,46.9170065338887Z" fill-rule="evenodd" style="fill: #1DC690; stroke: #fff; opacity: 1;" id="p-type-logs"></path><path d="M188.7398802090511,56.44694516688242A197,197,0,0,1,188.04802523148948,58.71064815292959L162.85436698196696,50.84491277308695A170.6070045455344,170.6070045455344,0,0,0,163.45353096827006,48.88448848054741Z" fill-rule="evenodd" style="fill: #1DC690; stroke: #fff; opacity: 1;" id="p-type-logs"></path><path d="M188.04802523148948,58.71064815292959A197,197,0,0,1,187.32902098917884,60.965874841880165L162.23169104269718,52.79799637701082A170.6070045455344,170.6070045455344,0,0,0,162.85436698196696,50.84491277308695Z" fill-rule="evenodd" style="fill: #1DC690; stroke: #fff; opacity: 1;" id="p-type-logs"></path><path d="M187.32902098917884,60.965874841880165A197,197,0,0,1,186.5829712877109,63.212299637406446L161.58559304874015,54.743457317627836A170.6070045455344,170.6070045455344,0,0,0,162.23169104269718,52.79799637701082Z" fill-rule="evenodd" style="fill: #1DC690; stroke: #fff; opacity: 1;" id="p-type-logs"></path><path d="M186.5829712877109,63.212299637406446A197,197,0,0,1,185.80998383734124,65.44959821394619L160.91616627991345,56.68101472076202A170.6070045455344,170.6070045455344,0,0,0,161.58559304874015,54.743457317627836Z" fill-rule="evenodd" style="fill: #1DC690; stroke: #fff; opacity: 1;" id="p-type-logs"></path><path d="M185.80998383734124,65.44959821394619A197,197,0,0,1,185.01017023743879,67.6774475635268L160.22350738410566,58.61038885330347A170.6070045455344,170.6070045455344,0,0,0,160.91616627991345,56.68101472076202Z" fill-rule="evenodd" style="fill: #1DC690; stroke: #fff; opacity: 1;" id="p-type-logs"></path><path d="M185.01017023743879,67.6774475635268A197,197,0,0,1,184.18364596037367,69.89552604239937L159.50771636332271,60.53130116359466A170.6070045455344,170.6070045455344,0,0,0,160.22350738410566,58.61038885330347Z" fill-rule="evenodd" style="fill: #1DC690; stroke: #fff; opacity: 1;" id="p-type-logs"></path><path d="M184.18364596037367,69.89552604239937A197,197,0,0,1,183.33053033484606,72.10351341747567L158.76889655925032,62.44347432164605A170.6070045455344,170.6070045455344,0,0,0,159.50771636332271,60.53130116359466Z" fill-rule="evenodd" style="fill: #1DC690; stroke: #fff; opacity: 1;" id="p-type-logs"></path><path d="M183.33053033484606,72.10351341747567A197,197,0,0,1,182.45094652865814,74.30109091256149L158.00715463833419,64.34663225917535A170.6070045455344,170.6070045455344,0,0,0,158.76889655925032,62.44347432164605Z" fill-rule="evenodd" style="fill: #1DC690; stroke: #fff; opacity: 1;" id="p-type-logs"></path><path d="M182.45094652865814,74.30109091256149A197,197,0,0,1,181.545021530932,76.48794125437973L157.22260057637996,66.24050020946463A170.6070045455344,170.6070045455344,0,0,0,158.00715463833419,64.34663225917535Z" fill-rule="evenodd" style="fill: #1DC690; stroke: #fff; opacity: 1;" id="p-type-logs"></path><path d="M181.545021530932,76.48794125437973A197,197,0,0,1,180.61288613377545,78.66374871837638L156.41534764267573,68.12480474702953A170.6070045455344,170.6070045455344,0,0,0,157.22260057637996,66.24050020946463Z" fill-rule="evenodd" style="fill: #1DC690; stroke: #fff; opacity: 1;" id="p-type-logs"></path><path d="M180.61288613377545,78.66374871837638A197,197,0,0,1,179.65467491339936,80.82819917430302L155.58551238363873,69.9992738270948A170.6070045455344,170.6070045455344,0,0,0,156.41534764267573,68.12480474702953Z" fill-rule="evenodd" style="fill: #1DC690; stroke: #fff; opacity: 1;" id="p-type-logs"></path><path d="M179.65467491339936,80.82819917430302A197,197,0,0,1,178.670526210688,82.980980131569L154.73321460598922,71.86363682487053A170.6070045455344,170.6070045455344,0,0,0,155.58551238363873,69.9992738270948Z" fill-rule="evenodd" style="fill: #1DC690; stroke: #fff; opacity: 1;" id="p-type-logs"></path><path d="M178.670526210688,82.980980131569A197,197,0,0,1,177.66058211122646,85.12178078435718L153.8585773594533,73.7176245746234A170.6070045455344,170.6070045455344,0,0,0,154.73321460598922,71.86363682487053Z" fill-rule="evenodd" style="fill: #1DC690; stroke: #fff; opacity: 1;" id="p-type-logs"></path><path d="M177.66058211122646,85.12178078435718A197,197,0,0,1,176.624988424787,87.25029205649605L152.96172691899795,75.56096940853719A170.6070045455344,170.6070045455344,0,0,0,153.8585773594533,73.7176245746234Z" fill-rule="evenodd" style="fill: #1DC690; stroke: #fff; opacity: 1;" id="p-type-logs"></path><path d="M176.624988424787,87.25029205649605A197,197,0,0,1,175.563894664278,89.36620664608239L152.0427927666,77.39340519535709A170.6070045455344,170.6070045455344,0,0,0,152.96172691899795,75.56096940853719Z" fill-rule="evenodd" style="fill: #1DC690; stroke: #fff; opacity: 1;" id="p-type-logs"></path><path d="M175.563894664278,89.36620664608239A197,197,0,0,1,174.4774540241581,91.46921906984774L151.10190757255234,79.21466737881217A170.6070045455344,170.6070045455344,0,0,0,152.0427927666,77.39340519535709Z" fill-rule="evenodd" style="fill: #1DC690; stroke: #fff; opacity: 1;" id="p-type-logs"></path><path d="M174.4774540241581,91.46921906984774A197,197,0,0,1,173.36582335831898,93.5590257072622L150.13920717630984,81.0244930158104A170.6070045455344,170.6070045455344,0,0,0,151.10190757255234,79.21466737881217Z" fill-rule="evenodd" style="fill: #1DC690; stroke: #fff; opacity: 1;" id="p-type-logs"></path><path d="M173.36582335831898,93.5590257072622A197,197,0,0,1,172.22916315743956,95.63532484436942L149.15483056687756,82.82262081440099A170.6070045455344,170.6070045455344,0,0,0,150.13920717630984,81.0244930158104Z" fill-rule="evenodd" style="fill: #1DC690; stroke: #fff; opacity: 1;" id="p-type-logs"></path><path d="M172.22916315743956,95.63532484436942A197,197,0,0,1,171.0676375258155,97.69781671734636L148.14891986274435,84.60879117149796A170.6070045455344,170.6070045455344,0,0,0,149.15483056687756,82.82262081440099Z" fill-rule="evenodd" style="fill: #1DC690; stroke: #fff; opacity: 1;" id="p-type-logs"></path><path d="M171.0676375258155,97.69781671734636A197,197,0,0,1,169.88141415766665,99.7462035557812L147.1216202913647,86.38274621036021A170.6070045455344,170.6070045455344,0,0,0,148.14891986274435,84.60879117149796Z" fill-rule="evenodd" style="fill: #1DC690; stroke: #fff; opacity: 1;" id="p-type-logs"></path><path d="M169.88141415766665,99.7462035557812A197,197,0,0,1,168.6706643129264,101.7801896256639L146.07308016819158,88.1442298178223A170.6070045455344,170.6070045455344,0,0,0,147.1216202913647,86.38274621036021Z" fill-rule="evenodd" style="fill: #1DC690; stroke: #fff; opacity: 1;" id="p-type-logs"></path><path d="M168.6706643129264,101.7801896256639A197,197,0,0,1,167.4355627925161,103.79948127208245L145.0034508752635,89.89298768127047A170.6070045455344,170.6070045455344,0,0,0,146.07308016819158,88.1442298178223Z" fill-rule="evenodd" style="fill: #1DC690; stroke: #fff; opacity: 1;" id="p-type-logs"></path><path d="M167.4355627925161,103.79948127208245A197,197,0,0,1,166.17628791310855,105.80378696161897L143.91288683934897,91.6287673253588A170.6070045455344,170.6070045455344,0,0,0,145.0034508752635,89.89298768127047Z" fill-rule="evenodd" style="fill: #1DC690; stroke: #fff; opacity: 1;" id="p-type-logs"></path><path d="M166.17628791310855,105.80378696161897A197,197,0,0,1,164.89302148138339,107.79281732443972L142.80154550965116,93.35131814846015A170.6070045455344,170.6070045455344,0,0,0,143.91288683934897,91.6287673253588Z" fill-rule="evenodd" style="fill: #1DC690; stroke: #fff; opacity: 1;" id="p-type-logs"></path><path d="M164.89302148138339,107.79281732443972A197,197,0,0,1,163.58594876777917,109.76628519607252L141.66958733507644,95.06039145884654A170.6070045455344,170.6070045455344,0,0,0,142.80154550965116,93.35131814846015Z" fill-rule="evenodd" style="fill: #1DC690; stroke: #fff; opacity: 1;" id="p-type-logs"></path><path d="M163.58594876777917,109.76628519607252A197,197,0,0,1,162.25525847974498,111.72390565886577L140.51717574106962,96.75574051059377A170.6070045455344,170.6070045455344,0,0,0,141.66958733507644,95.06039145884654Z" fill-rule="evenodd" style="fill: #1DC690; stroke: #fff; opacity: 1;" id="p-type-logs"></path><path d="M162.25525847974498,111.72390565886577A197,197,0,0,1,160.901142734496,113.66539608312348L139.3444771060195,98.43712053920517A170.6070045455344,170.6070045455344,0,0,0,140.51717574106962,96.75574051059377Z" fill-rule="evenodd" style="fill: #1DC690; stroke: #fff; opacity: 1;" id="p-type-logs"></path><path d="M160.901142734496,113.66539608312348A197,197,0,0,1,159.52379703127679,115.59047616790932L138.1516607372383,100.10428879694919A170.6070045455344,170.6070045455344,0,0,0,139.3444771060195,98.43712053920517Z" fill-rule="evenodd" style="fill: #1DC690; stroke: #fff; opacity: 1;" id="p-type-logs"></path><path d="M159.52379703127679,115.59047616790932A197,197,0,0,1,158.12342022313615,117.49886798151503L136.93889884651793,101.75700458790601A170.6070045455344,170.6070045455344,0,0,0,138.1516607372383,100.10428879694919Z" fill-rule="evenodd" style="fill: #1DC690; stroke: #fff; opacity: 1;" id="p-type-logs"></path><path d="M158.12342022313615,117.49886798151503A197,197,0,0,1,156.70021448821805,119.39029600158658L135.70636652526719,103.39502930271766A170.6070045455344,170.6070045455344,0,0,0,136.93889884651793,101.75700458790601Z" fill-rule="evenodd" style="fill: #1DC690; stroke: #fff; opacity: 1;" id="p-type-logs"></path><path d="M156.70021448821805,119.39029600158658A197,197,0,0,1,155.2543853005722,121.26448715490228L134.45424171923287,105.01812645303713A170.6070045455344,170.6070045455344,0,0,0,135.70636652526719,103.39502930271766Z" fill-rule="evenodd" style="fill: #1DC690; stroke: #fff; opacity: 1;" id="p-type-logs"></path><path d="M155.2543853005722,121.26448715490228A197,197,0,0,1,153.7861414004891,123.1211708567977L133.18270520280933,106.62606170567109A170.6070045455344,170.6070045455344,0,0,0,134.45424171923287,105.01812645303713Z" fill-rule="evenodd" style="fill: #1DC690; stroke: #fff; opacity: 1;" id="p-type-logs"></path><path d="M153.7861414004891,123.1211708567977A197,197,0,0,1,152.295694764363,124.96007905023097L131.89194055293908,108.21860291641164A170.6070045455344,170.6070045455344,0,0,0,133.18270520280933,106.62606170567109Z" fill-rule="evenodd" style="fill: #1DC690; stroke: #fff; opacity: 1;" id="p-type-logs"></path><path d="M152.295694764363,124.96007905023097A197,197,0,0,1,150.78326057408844,126.7809462444832L130.58213412260918,109.79552016355177A170.6070045455344,170.6070045455344,0,0,0,131.89194055293908,108.21860291641164Z" fill-rule="evenodd" style="fill: #1DC690; stroke: #fff; opacity: 1;" id="p-type-logs"></path><path d="M150.78326057408844,126.7809462444832A197,197,0,0,1,149.24905718599325,128.58350955348868L129.25347501394657,111.35658578108026A170.6070045455344,170.6070045455344,0,0,0,130.58213412260918,109.79552016355177Z" fill-rule="evenodd" style="fill: #1DC690; stroke: #fff; opacity: 1;" id="p-type-logs"></path><path d="M59.518965584170374,187.79375052378697A197,197,0,0,1,57.25825945038189,188.49533608212366L49.587107260511125,163.2417495420046A170.6070045455344,170.6070045455344,0,0,0,51.544936202863255,162.63415862555675Z" fill-rule="evenodd" style="fill: #D7A449; stroke: #fff; opacity: 1;" id="p-type-tokenTransfers"></path><path d="M57.25825945038189,188.49533608212366A197,197,0,0,1,54.98928670681129,189.16970779560904L47.622119224084514,163.82577257747658A170.6070045455344,170.6070045455344,0,0,0,49.587107260511125,163.2417495420046Z" fill-rule="evenodd" style="fill: #D7A449; stroke: #fff; opacity: 1;" id="p-type-tokenTransfers"></path><path d="M54.98928670681129,189.16970779560904A197,197,0,0,1,52.712374934360575,189.81676830243265L45.65025578696634,164.38614341417147A170.6070045455344,170.6070045455344,0,0,0,47.622119224084514,163.82577257747658Z" fill-rule="evenodd" style="fill: #D7A449; stroke: #fff; opacity: 1;" id="p-type-tokenTransfers"></path><path d="M52.712374934360575,189.81676830243265A197,197,0,0,1,50.427852860121895,190.43642418381495L43.671801635169324,164.92278114905298A170.6070045455344,170.6070045455344,0,0,0,45.65025578696634,164.38614341417147Z" fill-rule="evenodd" style="fill: #D7A449; stroke: #fff; opacity: 1;" id="p-type-tokenTransfers"></path><path d="M50.427852860121895,190.43642418381495A197,197,0,0,1,48.1360503099179,191.0285859774946L41.687042406234696,165.4356083055301A170.6070045455344,170.6070045455344,0,0,0,43.671801635169324,164.92278114905298Z" fill-rule="evenodd" style="fill: #D7A449; stroke: #fff; opacity: 1;" id="p-type-tokenTransfers"></path><path d="M48.1360503099179,191.0285859774946A197,197,0,0,1,45.837298160683396,191.59316819064455L39.696264647993544,165.9245508446428A170.6070045455344,170.6070045455344,0,0,0,41.687042406234696,165.4356083055301Z" fill-rule="evenodd" style="fill: #D7A449; stroke: #fff; opacity: 1;" id="p-type-tokenTransfers"></path><path d="M45.837298160683396,191.59316819064455A197,197,0,0,1,43.53192829269535,192.13008931221478L37.69975577719672,166.38953817575106A170.6070045455344,170.6070045455344,0,0,0,39.696264647993544,165.9245508446428Z" fill-rule="evenodd" style="fill: #D7A449; stroke: #fff; opacity: 1;" id="p-type-tokenTransfers"></path><path d="M43.53192829269535,192.13008931221478A197,197,0,0,1,41.22027354165788,192.63927182470064L35.69780403801928,166.8305031667266A170.6070045455344,170.6070045455344,0,0,0,37.69975577719672,166.38953817575106Z" fill-rule="evenodd" style="fill: #D7A449; stroke: #fff; opacity: 1;" id="p-type-tokenTransfers"></path><path d="M41.22027354165788,192.63927182470064A197,197,0,0,1,38.90266765064949,193.12064221533416L33.690698460445546,167.24738215364488A170.6070045455344,170.6070045455344,0,0,0,35.69780403801928,166.8305031667266Z" fill-rule="evenodd" style="fill: #D7A449; stroke: #fff; opacity: 1;" id="p-type-tokenTransfers"></path><path d="M38.90266765064949,193.12064221533416A197,197,0,0,1,36.57944522193915,193.57413098669758L31.678728818540606,167.64011494997658A170.6070045455344,170.6070045455344,0,0,0,33.690698460445546,167.24738215364488Z" fill-rule="evenodd" style="fill: #D7A449; stroke: #fff; opacity: 1;" id="p-type-tokenTransfers"></path><path d="M36.57944522193915,193.57413098669758A197,197,0,0,1,34.250941668678415,193.99967266675682L29.66218558861448,168.008644855277A170.6070045455344,170.6070045455344,0,0,0,31.678728818540606,167.64011494997658Z" fill-rule="evenodd" style="fill: #D7A449; stroke: #fff; opacity: 1;" id="p-type-tokenTransfers"></path><path d="M34.250941668678415,193.99967266675682A197,197,0,0,1,31.91749316647647,194.39720581831398L27.641359907284844,168.35291866337198A170.6070045455344,170.6070045455344,0,0,0,29.66218558861448,168.008644855277Z" fill-rule="evenodd" style="fill: #D7A449; stroke: #fff; opacity: 1;" id="p-type-tokenTransfers"></path><path d="M31.91749316647647,194.39720581831398A197,197,0,0,1,29.57943660486505,194.7666730478774L25.61654352944446,168.67288667003976A170.6070045455344,170.6070045455344,0,0,0,27.641359907284844,168.35291866337198Z" fill-rule="evenodd" style="fill: #D7A449; stroke: #fff; opacity: 1;" id="p-type-tokenTransfers"></path><path d="M29.57943660486505,194.7666730478774A197,197,0,0,1,27.237109538660327,195.1080210139476L23.588028786139294,168.9685026801867A170.6070045455344,170.6070045455344,0,0,0,25.61654352944446,168.67288667003976Z" fill-rule="evenodd" style="fill: #D7A449; stroke: #fff; opacity: 1;" id="p-type-tokenTransfers"></path><path d="M27.237109538660327,195.1080210139476A197,197,0,0,1,24.890850139228746,195.4212004347186L21.556108542363525,169.23972401451687A170.6070045455344,170.6070045455344,0,0,0,23.588028786139294,168.9685026801867Z" fill-rule="evenodd" style="fill: #D7A449; stroke: #fff; opacity: 1;" id="p-type-tokenTransfers"></path><path d="M24.890850139228746,195.4212004347186A197,197,0,0,1,22.54099714566383,195.70616609519277L19.521076154777397,169.48651151569373A170.6070045455344,170.6070045455344,0,0,0,21.556108542363525,169.23972401451687Z" fill-rule="evenodd" style="fill: #D7A449; stroke: #fff; opacity: 1;" id="p-type-tokenTransfers"></path><path d="M22.54099714566383,195.70616609519277A197,197,0,0,1,20.18788981588102,195.96287685370882L17.483225429354118,169.7088295539934A170.6070045455344,170.6070045455344,0,0,0,19.521076154777397,169.48651151569373Z" fill-rule="evenodd" style="fill: #D7A449; stroke: #fff; opacity: 1;" id="p-type-tokenTransfers"></path><path d="M20.18788981588102,195.96287685370882A197,197,0,0,1,17.831867877637627,196.1912956478816L15.442850578961886,169.90664603244883A170.6070045455344,170.6070045455344,0,0,0,17.483225429354118,169.7088295539934Z" fill-rule="evenodd" style="fill: #D7A449; stroke: #fff; opacity: 1;" id="p-type-tokenTransfers"></path><path d="M17.831867877637627,196.1912956478816A197,197,0,0,1,15.473271479484948,196.39138949995277L13.400246180887189,170.07993239148354A170.6070045455344,170.6070045455344,0,0,0,15.442850578961886,169.90664603244883Z" fill-rule="evenodd" style="fill: #D7A449; stroke: #fff; opacity: 1;" id="p-type-tokenTransfers"></path><path d="M15.473271479484948,196.39138949995277A197,197,0,0,1,13.112441141659607,196.5631295215522L11.355707134305447,170.22866361303517A170.6070045455344,170.6070045455344,0,0,0,13.400246180887189,170.07993239148354Z" fill-rule="evenodd" style="fill: #D7A449; stroke: #fff; opacity: 1;" id="p-type-tokenTransfers"></path><path d="M13.112441141659607,196.5631295215522A197,197,0,0,1,10.749717706921274,196.70649091786856L9.309528617705226,170.35281822416712A170.6070045455344,170.6070045455344,0,0,0,11.355707134305447,170.22866361303517Z" fill-rule="evenodd" style="fill: #D7A449; stroke: #fff; opacity: 1;" id="p-type-tokenTransfers"></path><path d="M10.749717706921274,196.70649091786856A197,197,0,0,1,8.385442291343772,196.82145299122894L7.262006046272099,170.45237830016896A170.6070045455344,170.6070045455344,0,0,0,9.309528617705226,170.35281822416712Z" fill-rule="evenodd" style="fill: #D7A449; stroke: #fff; opacity: 1;" id="p-type-tokenTransfers"></path><path d="M8.385442291343772,196.82145299122894A197,197,0,0,1,6.019956235066775,196.90799914408728L5.213435029238353,170.52732946714409A170.6070045455344,170.6070045455344,0,0,0,7.262006046272099,170.45237830016896Z" fill-rule="evenodd" style="fill: #D7A449; stroke: #fff; opacity: 1;" id="p-type-tokenTransfers"></path><path d="M6.019956235066775,196.90799914408728A197,197,0,0,1,3.6536010530151133,196.9661168814205L3.1641113272046635,170.57766090408515A170.6070045455344,170.6070045455344,0,0,0,5.213435029238353,170.52732946714409Z" fill-rule="evenodd" style="fill: #D7A449; stroke: #fff; opacity: 1;" id="p-type-tokenTransfers"></path><path d="M3.6536010530151133,196.9661168814205A197,197,0,0,1,1.2867183855928745,196.9957978125325L1.1143308094399302,170.60336534443607A170.6070045455344,170.6070045455344,0,0,0,3.1641113272046635,170.57766090408515Z" fill-rule="evenodd" style="fill: #D7A449; stroke: #fff; opacity: 1;" id="p-type-tokenTransfers"></path><path d="M1.2867183855928745,196.9957978125325A197,197,0,0,1,-1.0803500506406283,196.99703765226542L-0.9356105888345889,170.60443907714142A170.6070045455344,170.6070045455344,0,0,0,1.1143308094399302,170.60336534443607Z" fill-rule="evenodd" style="fill: #D7A449; stroke: #fff; opacity: 1;" id="p-type-tokenTransfers"></path><path d="M-1.0803500506406283,196.99703765226542A197,197,0,0,1,-3.4472625123058775,196.96983622161858L-2.985416909170656,170.58088194718198A170.6070045455344,170.6070045455344,0,0,0,-0.9356105888345889,170.60443907714142Z" fill-rule="evenodd" style="fill: #D7A449; stroke: #fff; opacity: 1;" id="p-type-tokenTransfers"></path><path d="M-3.4472625123058775,196.96983622161858A197,197,0,0,1,-5.813677278542043,196.9141974477741L-5.034792212621789,170.53269735559724A170.6070045455344,170.6070045455344,0,0,0,-2.985416909170656,170.58088194718198Z" fill-rule="evenodd" style="fill: #D7A449; stroke: #fff; opacity: 1;" id="p-type-tokenTransfers"></path><path d="M-5.813677278542043,196.9141974477741A197,197,0,0,1,-8.179252700342627,196.83012936352995L-7.083440622469183,170.45989225899433A170.6070045455344,170.6070045455344,0,0,0,-5.034792212621789,170.53269735559724Z" fill-rule="evenodd" style="fill: #D7A449; stroke: #fff; opacity: 1;" id="p-type-tokenTransfers"></path><path d="M-8.179252700342627,196.83012936352995A197,197,0,0,1,-10.543647249880726,196.71764410614034L-9.131066366938642,170.36247716854368A170.6070045455344,170.6070045455344,0,0,0,-7.083440622469183,170.45989225899433Z" fill-rule="evenodd" style="fill: #D7A449; stroke: #fff; opacity: 1;" id="p-type-tokenTransfers"></path><path d="M-10.543647249880726,196.71764410614034A197,197,0,0,1,-12.906519569816814,196.57675791556318L-11.177373821902364,170.24046614846145A170.6070045455344,170.6070045455344,0,0,0,-9.131066366938642,170.36247716854368Z" fill-rule="evenodd" style="fill: #D7A449; stroke: #fff; opacity: 1;" id="p-type-tokenTransfers"></path><path d="M-12.906519569816814,196.57675791556318A197,197,0,0,1,-15.267528522581893,196.4074911321158L-13.222067553559418,170.09387681397914A170.6070045455344,170.6070045455344,0,0,0,-11.177373821902364,170.24046614846145Z" fill-rule="evenodd" style="fill: #D7A449; stroke: #fff; opacity: 1;" id="p-type-tokenTransfers"></path></g></svg>