<svg xmlns="http://www.w3.org/2000/svg" width="400" height="400" id="block-7907818"><g id="burst-container" transform="translate(200,200)"><circle r="197" style="fill: #f9f9f9; stroke: #f9f9f9; stroke-width: 3; opacity: 1;" id="circle-base"></circle><path display="none" d="M6.031385485800715e-15,-98.5A98.5,98.5,0,1,1,-6.031385485800715e-15,98.5A98.5,98.5,0,1,1,6.031385485800715e-15,-98.5Z" fill-rule="evenodd" id="p-type-root" style="stroke: #fff; opacity: 1;"></path><path d="M8.529667153919608e-15,-139.30003589374985A139.30003589374985,139.30003589374985,0,1,1,-113.02489216784672,-81.42403668724991L-79.92066769476273,-57.575488493136646A98.5,98.5,0,1,0,6.031385485800715e-15,-98.5Z" fill-rule="evenodd" style="fill: #0B1F65; stroke: #fff; opacity: 1;" id="p-type-data"></path><path d="M-113.02489216784672,-81.42403668724991A139.30003589374985,139.30003589374985,0,0,1,-3.662026055601379,-139.25189250120837L-2.58944345679756,-98.4659574806646A98.5,98.5,0,0,0,-79.92066769476273,-57.575488493136646Z" fill-rule="evenodd" style="fill: #D7A449; stroke: #fff; opacity: 1;" id="p-type-value"></path><path d="M1.0446666101440332e-14,-170.6070045455344A170.6070045455344,170.6070045455344,0,0,1,170.57573558263826,3.2662563343795314L139.27450489245598,2.6668871294544148A139.30003589374985,139.30003589374985,0,0,0,8.529667153919608e-15,-139.30003589374985Z" fill-rule="evenodd" style="fill: #414552; stroke: #fff; opacity: 1;" id="p-type-ether"></path><path d="M170.57573558263826,3.2662563343795314A170.6070045455344,170.6070045455344,0,0,1,4.559122555078145,170.5460770628506L3.7225079782517834,139.250288812454A139.30003589374985,139.30003589374985,0,0,0,139.27450489245598,2.6668871294544148Z" fill-rule="evenodd" style="fill: #1DC690; stroke: #fff; opacity: 1;" id="p-type-logs"></path><path d="M4.559122555078145,170.5460770628506A170.6070045455344,170.6070045455344,0,0,1,-154.31872680083998,72.74943682646419L-126.0007128060057,59.39966643322561A139.30003589374985,139.30003589374985,0,0,0,3.7225079782517834,139.250288812454Z" fill-rule="evenodd" style="fill: #D7A449; stroke: #fff; opacity: 1;" id="p-type-tokenTransfers"></path><path d="M-138.42665702215766,-99.72367134070993A170.6070045455344,170.6070045455344,0,0,1,-57.18358324077555,-160.7382586932722L-46.69020020128925,-131.24223864733307A139.30003589374985,139.30003589374985,0,0,0,-113.02489216784672,-81.42403668724991Z" fill-rule="evenodd" style="fill: #D7A449; stroke: #fff; opacity: 1;" id="p-type-tokenTransfers"></path><path d="M-57.18358324077555,-160.7382586932722A170.6070045455344,170.6070045455344,0,0,1,-8.966995112357159,-170.3711918096923L-7.321520850435251,-139.10749560119555A139.30003589374985,139.30003589374985,0,0,0,-46.69020020128925,-131.24223864733307Z" fill-rule="evenodd" style="fill: #414552; stroke: #fff; opacity: 1;" id="p-type-ether"></path><path d="M1.206277097160143e-14,-197A197,197,0,0,1,172.99997105426527,-94.23380505542254L149.82236978696628,-81.60886907326638A170.6070045455344,170.6070045455344,0,0,0,1.0446666101440332e-14,-170.6070045455344Z" fill-rule="evenodd" style="fill: #414552; stroke: #fff; opacity: 1;" id="p-type-ether"></path><path d="M172.99997105426527,-94.23380505542254A197,197,0,0,1,178.81587469296966,-82.66730283363655L154.8590900840466,-71.59198431627057A170.6070045455344,170.6070045455344,0,0,0,149.82236978696628,-81.60886907326638Z" fill-rule="evenodd" style="fill: #414552; stroke: #fff; opacity: 1;" id="p-type-ether"></path><path d="M178.81587469296966,-82.66730283363655A197,197,0,0,1,183.41300862112575,-71.893450804276L158.84032485042914,-62.26155476222979A170.6070045455344,170.6070045455344,0,0,0,154.8590900840466,-71.59198431627057Z" fill-rule="evenodd" style="fill: #414552; stroke: #fff; opacity: 1;" id="p-type-ether"></path><path d="M183.41300862112575,-71.893450804276A197,197,0,0,1,185.55009377438017,-66.18279761628943L160.69109488319802,-57.31598402923084A170.6070045455344,170.6070045455344,0,0,0,158.84032485042914,-62.26155476222979Z" fill-rule="evenodd" style="fill: #414552; stroke: #fff; opacity: 1;" id="p-type-ether"></path><path d="M185.55009377438017,-66.18279761628943A197,197,0,0,1,187.2177723217456,-61.30665320243001L162.13534687056284,-53.093119094307A170.6070045455344,170.6070045455344,0,0,0,160.69109488319802,-57.31598402923084Z" fill-rule="evenodd" style="fill: #414552; stroke: #fff; opacity: 1;" id="p-type-ether"></path><path d="M187.2177723217456,-61.30665320243001A197,197,0,0,1,188.01565925882642,-58.814214892905596L162.82633722742258,-50.93460420089331A170.6070045455344,170.6070045455344,0,0,0,162.13534687056284,-53.093119094307Z" fill-rule="evenodd" style="fill: #414552; stroke: #fff; opacity: 1;" id="p-type-ether"></path><path d="M188.01565925882642,-58.814214892905596A197,197,0,0,1,188.7354857662531,-56.46163664450813L163.44972526917152,-48.897211673390416A170.6070045455344,170.6070045455344,0,0,0,162.82633722742258,-50.93460420089331Z" fill-rule="evenodd" style="fill: #414552; stroke: #fff; opacity: 1;" id="p-type-ether"></path><path d="M188.7354857662531,-56.46163664450813A197,197,0,0,1,189.4145927977072,-54.13974543049465L164.0378492102994,-46.88639489723084A170.6070045455344,170.6070045455344,0,0,0,163.44972526917152,-48.897211673390416Z" fill-rule="evenodd" style="fill: #414552; stroke: #fff; opacity: 1;" id="p-type-ether"></path><path d="M196.96389371170926,3.7715479477926857A197,197,0,0,1,196.89729588167998,6.360414647031191L170.518060169996,5.508280662931645A170.6070045455344,170.6070045455344,0,0,0,170.57573558263826,3.2662563343795314Z" fill-rule="evenodd" style="fill: #1DC690; stroke: #fff; opacity: 1;" id="p-type-logs"></path><path d="M196.89729588167998,6.360414647031191A197,197,0,0,1,196.79667181002938,8.948182189449778L170.43091716771434,7.749353093754966A170.6070045455344,170.6070045455344,0,0,0,170.518060169996,5.508280662931645Z" fill-rule="evenodd" style="fill: #1DC690; stroke: #fff; opacity: 1;" id="p-type-logs"></path><path d="M196.79667181002938,8.948182189449778A197,197,0,0,1,196.6620388858179,11.53440337742055L170.31432163516143,9.989086342343223A170.6070045455344,170.6070045455344,0,0,0,170.43091716771434,7.749353093754966Z" fill-rule="evenodd" style="fill: #1DC690; stroke: #fff; opacity: 1;" id="p-type-logs"></path><path d="M196.6620388858179,11.53440337742055A197,197,0,0,1,196.49342037524826,14.118631280544411L170.16829372145983,12.227093355617079A170.6070045455344,170.6070045455344,0,0,0,170.31432163516143,9.989086342343223Z" fill-rule="evenodd" style="fill: #1DC690; stroke: #fff; opacity: 1;" id="p-type-logs"></path><path d="M196.49342037524826,14.118631280544411A197,197,0,0,1,196.29084541764493,16.700419312886083L169.99285866200478,14.462987378811608A170.6070045455344,170.6070045455344,0,0,0,170.16829372145983,12.227093355617079Z" fill-rule="evenodd" style="fill: #1DC690; stroke: #fff; opacity: 1;" id="p-type-logs"></path><path d="M196.29084541764493,16.700419312886083A197,197,0,0,1,196.05434902041833,19.279321310149555L169.78804677410307,16.696382022312203A170.6070045455344,170.6070045455344,0,0,0,169.99285866200478,14.462987378811608Z" fill-rule="evenodd" style="fill: #1DC690; stroke: #fff; opacity: 1;" id="p-type-logs"></path><path d="M196.05434902041833,19.279321310149555A197,197,0,0,1,195.78397205301528,21.85489160678069L169.55389345173379,18.926891328427388A170.6070045455344,170.6070045455344,0,0,0,169.78804677410307,16.696382022312203Z" fill-rule="evenodd" style="fill: #1DC690; stroke: #fff; opacity: 1;" id="p-type-logs"></path><path d="M195.78397205301528,21.85489160678069A197,197,0,0,1,195.4797612398561,24.426685112983648L169.29043915943203,21.154129838087A170.6070045455344,170.6070045455344,0,0,0,169.55389345173379,18.926891328427388Z" fill-rule="evenodd" style="fill: #1DC690; stroke: #fff; opacity: 1;" id="p-type-logs"></path><path d="M195.4797612398561,24.426685112983648A197,197,0,0,1,195.1417691522602,26.9942573916378L168.99772942529586,23.37771265745419A170.6070045455344,170.6070045455344,0,0,0,169.29043915943203,21.154129838087Z" fill-rule="evenodd" style="fill: #1DC690; stroke: #fff; opacity: 1;" id="p-type-logs"></path><path d="M195.1417691522602,26.9942573916378A197,197,0,0,1,194.77005419936108,29.557164735101832L168.67581483311866,25.597255524439735A170.6070045455344,170.6070045455344,0,0,0,168.99772942529586,23.37771265745419Z" fill-rule="evenodd" style="fill: #1DC690; stroke: #fff; opacity: 1;" id="p-type-logs"></path><path d="M194.77005419936108,29.557164735101832A197,197,0,0,1,194.36468061801253,32.11496424189186L168.32475101364773,27.812374875107206A170.6070045455344,170.6070045455344,0,0,0,168.67581483311866,25.597255524439735Z" fill-rule="evenodd" style="fill: #1DC690; stroke: #fff; opacity: 1;" id="p-type-logs"></path><path d="M194.36468061801253,32.11496424189186A197,197,0,0,1,193.9257184616876,34.66721389322013L167.94459863497036,30.022687909957465A170.6070045455344,170.6070045455344,0,0,0,168.32475101364773,27.812374875107206Z" fill-rule="evenodd" style="fill: #1DC690; stroke: #fff; opacity: 1;" id="p-type-logs"></path><path d="M193.9257184616876,34.66721389322013A197,197,0,0,1,193.45324358837277,37.21347262938124L167.53542339202988,32.22781266008105A170.6070045455344,170.6070045455344,0,0,0,167.94459863497036,30.022687909957465Z" fill-rule="evenodd" style="fill: #1DC690; stroke: #fff; opacity: 1;" id="p-type-logs"></path><path d="M193.45324358837277,37.21347262938124A197,197,0,0,1,192.94733764745854,39.75330042597265L167.09729599527267,34.42736805316706A170.6070045455344,170.6070045455344,0,0,0,167.53542339202988,32.22781266008105Z" fill-rule="evenodd" style="fill: #1DC690; stroke: #fff; opacity: 1;" id="p-type-logs"></path><path d="M192.94733764745854,39.75330042597265A197,197,0,0,1,192.4080880656294,42.28625836993616L166.63029215842855,36.62097397935705A170.6070045455344,170.6070045455344,0,0,0,167.09729599527267,34.42736805316706Z" fill-rule="evenodd" style="fill: #1DC690; stroke: #fff; opacity: 1;" id="p-type-logs"></path><path d="M192.4080880656294,42.28625836993616A197,197,0,0,1,191.83558803175575,44.81190873540746L166.1344925854265,38.80825135693266A170.6070045455344,170.6070045455344,0,0,0,166.63029215842855,36.62097397935705Z" fill-rule="evenodd" style="fill: #1DC690; stroke: #fff; opacity: 1;" id="p-type-logs"></path><path d="M191.83558803175575,44.81190873540746A197,197,0,0,1,191.22993648078935,47.32981505936049L165.60998295644816,40.98882219782548A170.6070045455344,170.6070045455344,0,0,0,166.1344925854265,38.80825135693266Z" fill-rule="evenodd" style="fill: #1DC690; stroke: #fff; opacity: 1;" id="p-type-logs"></path><path d="M191.22993648078935,47.32981505936049A197,197,0,0,1,190.5912380766664,49.83954221703351L165.0568539131211,43.16230967293802A170.6070045455344,170.6070045455344,0,0,0,165.60998295644816,40.98882219782548Z" fill-rule="evenodd" style="fill: #1DC690; stroke: #fff; opacity: 1;" id="p-type-logs"></path><path d="M190.5912380766664,49.83954221703351A197,197,0,0,1,189.91960319422026,52.34065649712392L164.47520104285496,45.32833817726435A170.6070045455344,170.6070045455344,0,0,0,165.0568539131211,43.16230967293802Z" fill-rule="evenodd" style="fill: #1DC690; stroke: #fff; opacity: 1;" id="p-type-logs"></path><path d="M189.91960319422026,52.34065649712392A197,197,0,0,1,189.21514790010735,54.83272567673893L163.86512486232274,47.48653339479919A170.6070045455344,170.6070045455344,0,0,0,164.47520104285496,45.32833817726435Z" fill-rule="evenodd" style="fill: #1DC690; stroke: #fff; opacity: 1;" id="p-type-logs"></path><path d="M189.21514790010735,54.83272567673893A197,197,0,0,1,188.4779939327494,57.315319096088764L163.22673080009028,49.636522363224216A170.6070045455344,170.6070045455344,0,0,0,163.86512486232274,47.48653339479919Z" fill-rule="evenodd" style="fill: #1DC690; stroke: #fff; opacity: 1;" id="p-type-logs"></path><path d="M188.4779939327494,57.315319096088764A197,197,0,0,1,187.70826868129566,59.78800773291007L162.56012917839698,51.77793353836058A170.6070045455344,170.6070045455344,0,0,0,163.22673080009028,49.636522363224216Z" fill-rule="evenodd" style="fill: #1DC690; stroke: #fff; opacity: 1;" id="p-type-logs"></path><path d="M187.70826868129566,59.78800773291007A197,197,0,0,1,186.90610516360843,62.25036427660602L161.86543519409074,53.910396858376124A170.6070045455344,170.6070045455344,0,0,0,162.56012917839698,51.77793353836058Z" fill-rule="evenodd" style="fill: #1DC690; stroke: #fff; opacity: 1;" id="p-type-logs"></path><path d="M186.90610516360843,62.25036427660602A197,197,0,0,1,186.0716420032759,64.7019632020909L161.14276889872053,56.03354380773665A170.6070045455344,170.6070045455344,0,0,0,161.86543519409074,53.910396858376124Z" fill-rule="evenodd" style="fill: #1DC690; stroke: #fff; opacity: 1;" id="p-type-logs"></path><path d="M186.0716420032759,64.7019632020909A197,197,0,0,1,185.20502340565653,67.14238084332587L160.3922551777901,58.14700748088984A170.6070045455344,170.6070045455344,0,0,0,161.14276889872053,56.03354380773665Z" fill-rule="evenodd" style="fill: #1DC690; stroke: #fff; opacity: 1;" id="p-type-logs"></path><path d="M185.20502340565653,67.14238084332587A197,197,0,0,1,184.30639913295838,69.57119546653374L159.61402372917618,60.25042264567098A170.6070045455344,170.6070045455344,0,0,0,160.3922551777901,58.14700748088984Z" fill-rule="evenodd" style="fill: #1DC690; stroke: #fff; opacity: 1;" id="p-type-logs"></path><path d="M184.30639913295838,69.57119546653374A197,197,0,0,1,183.37592447835843,71.98798734307955L158.8082090407151,62.343425806419525A170.6070045455344,170.6070045455344,0,0,0,159.61402372917618,60.25042264567098Z" fill-rule="evenodd" style="fill: #1DC690; stroke: #fff; opacity: 1;" id="p-type-logs"></path><path d="M183.37592447835843,71.98798734307955A197,197,0,0,1,182.41376023916627,74.39233882200487L157.97495036696174,64.42565526679553A170.6070045455344,170.6070045455344,0,0,0,158.8082090407151,62.343425806419525Z" fill-rule="evenodd" style="fill: #1DC690; stroke: #fff; opacity: 1;" id="p-type-logs"></path><path d="M182.41376023916627,74.39233882200487A197,197,0,0,1,181.42007268903592,76.7838344022029L157.11439170512455,66.49675119228523A170.6070045455344,170.6070045455344,0,0,0,157.97495036696174,64.42565526679553Z" fill-rule="evenodd" style="fill: #1DC690; stroke: #fff; opacity: 1;" id="p-type-logs"></path><path d="M181.42007268903592,76.7838344022029A197,197,0,0,1,180.3950335492323,79.16206080422211L156.22668177018124,68.55635567238474A170.6070045455344,170.6070045455344,0,0,0,157.11439170512455,66.49675119228523Z" fill-rule="evenodd" style="fill: #1DC690; stroke: #fff; opacity: 1;" id="p-type-logs"></path><path d="M180.3950335492323,79.16206080422211A197,197,0,0,1,179.33881995895513,81.52660704168598L155.31197396917887,70.60411278245135A170.6070045455344,170.6070045455344,0,0,0,156.22668177018124,68.55635567238474Z" fill-rule="evenodd" style="fill: #1DC690; stroke: #fff; opacity: 1;" id="p-type-logs"></path><path d="M179.33881995895513,81.52660704168598A197,197,0,0,1,178.25161444472755,83.87706449231635L154.37042637472325,72.63966864521167A170.6070045455344,170.6070045455344,0,0,0,155.31197396917887,70.60411278245135Z" fill-rule="evenodd" style="fill: #1DC690; stroke: #fff; opacity: 1;" id="p-type-logs"></path><path d="M178.25161444472755,83.87706449231635A197,197,0,0,1,177.13360488885317,86.21302696854838L153.4022016976623,74.6626714919158A170.6070045455344,170.6070045455344,0,0,0,154.37042637472325,72.63966864521167Z" fill-rule="evenodd" style="fill: #1DC690; stroke: #fff; opacity: 1;" id="p-type-logs"></path><path d="M177.13360488885317,86.21302696854838A197,197,0,0,1,175.9849844969477,88.5340907877247L152.4074672589673,76.67277172312743A170.6070045455344,170.6070045455344,0,0,0,153.4022016976623,74.6626714919158Z" fill-rule="evenodd" style="fill: #1DC690; stroke: #fff; opacity: 1;" id="p-type-logs"></path><path d="M175.9849844969477,88.5340907877247A197,197,0,0,1,174.80595176455068,90.8398548418566L151.3863949608181,78.66962196913866A170.6070045455344,170.6070045455344,0,0,0,152.4074672589673,76.67277172312743Z" fill-rule="evenodd" style="fill: #1DC690; stroke: #fff; opacity: 1;" id="p-type-logs"></path><path d="M174.80595176455068,90.8398548418566A197,197,0,0,1,173.5967104428231,93.12992066694046L150.33916125689615,80.65287714999985A170.6070045455344,170.6070045455344,0,0,0,151.3863949608181,78.66962196913866Z" fill-rule="evenodd" style="fill: #1DC690; stroke: #fff; opacity: 1;" id="p-type-logs"></path><path d="M173.5967104428231,93.12992066694046A197,197,0,0,1,172.35746950333677,95.40389251181705L149.2659471218913,82.62219453515354A170.6070045455344,170.6070045455344,0,0,0,150.33916125689615,80.65287714999985Z" fill-rule="evenodd" style="fill: #1DC690; stroke: #fff; opacity: 1;" id="p-type-logs"></path><path d="M172.35746950333677,95.40389251181705A197,197,0,0,1,171.08844310196125,97.66137740656217L148.16693802022695,84.57723380266245A170.6070045455344,170.6070045455344,0,0,0,149.2659471218913,82.62219453515354Z" fill-rule="evenodd" style="fill: #1DC690; stroke: #fff; opacity: 1;" id="p-type-logs"></path><path d="M171.08844310196125,97.66137740656217A197,197,0,0,1,169.78985054185546,99.90198523039666L147.04232387400984,86.51765709802129A170.6070045455344,170.6070045455344,0,0,0,148.16693802022695,84.57723380266245Z" fill-rule="evenodd" style="fill: #1DC690; stroke: #fff; opacity: 1;" id="p-type-logs"></path><path d="M169.78985054185546,99.90198523039666A197,197,0,0,1,168.46191623556916,102.12532877910397L145.89229903020905,88.44312909254207A170.6070045455344,170.6070045455344,0,0,0,147.04232387400984,86.51765709802129Z" fill-rule="evenodd" style="fill: #1DC690; stroke: #fff; opacity: 1;" id="p-type-logs"></path><path d="M168.46191623556916,102.12532877910397A197,197,0,0,1,167.10486966626192,104.33102383194375L144.71706222707047,90.35331704130299A170.6070045455344,170.6070045455344,0,0,0,145.89229903020905,88.44312909254207Z" fill-rule="evenodd" style="fill: #1DC690; stroke: #fff; opacity: 1;" id="p-type-logs"></path><path d="M167.10486966626192,104.33102383194375A197,197,0,0,1,165.71894534804554,106.51868921804987L143.51681655977245,92.24789084065077A170.6070045455344,170.6070045455344,0,0,0,144.71706222707047,90.35331704130299Z" fill-rule="evenodd" style="fill: #1DC690; stroke: #fff; opacity: 1;" id="p-type-logs"></path><path d="M165.71894534804554,106.51868921804987A197,197,0,0,1,164.30438278545716,108.68794688230139L142.2917694453285,94.12652308524667A170.6070045455344,170.6070045455344,0,0,0,143.51681655977245,92.24789084065077Z" fill-rule="evenodd" style="fill: #1DC690; stroke: #fff; opacity: 1;" id="p-type-logs"></path><path d="M164.30438278545716,108.68794688230139A197,197,0,0,1,162.86142643207006,110.83842195065496L141.04213258674312,95.98888912464595A170.6070045455344,170.6070045455344,0,0,0,142.2917694453285,94.12652308524667Z" fill-rule="evenodd" style="fill: #1DC690; stroke: #fff; opacity: 1;" id="p-type-logs"></path><path d="M162.86142643207006,110.83842195065496A197,197,0,0,1,161.39032564824905,112.96974279492773L139.76812193642692,97.83466711940146A170.6070045455344,170.6070045455344,0,0,0,141.04213258674312,95.98888912464595Z" fill-rule="evenodd" style="fill: #1DC690; stroke: #fff; opacity: 1;" id="p-type-logs"></path><path d="M161.39032564824905,112.96974279492773A197,197,0,0,1,159.89133465805796,115.0815410970192L138.46995765887746,99.66353809668152A170.6070045455344,170.6070045455344,0,0,0,139.76812193642692,97.83466711940146Z" fill-rule="evenodd" style="fill: #1DC690; stroke: #fff; opacity: 1;" id="p-type-logs"></path><path d="M159.89133465805796,115.0815410970192A197,197,0,0,1,158.36471250532668,117.17345191256095L137.14786409263206,101.4751860053921A170.6070045455344,170.6070045455344,0,0,0,138.46995765887746,99.66353809668152Z" fill-rule="evenodd" style="fill: #1DC690; stroke: #fff; opacity: 1;" id="p-type-logs"></path><path d="M158.36471250532668,117.17345191256095A197,197,0,0,1,156.81072300888522,119.24511373398357L135.80206971149957,103.26929777079442A170.6070045455344,170.6070045455344,0,0,0,137.14786409263206,101.4751860053921Z" fill-rule="evenodd" style="fill: #1DC690; stroke: #fff; opacity: 1;" id="p-type-logs"></path><path d="M156.81072300888522,119.24511373398357A197,197,0,0,1,155.22963471697264,121.2961685529895L134.43280708507714,105.04556334860806A170.6070045455344,170.6070045455344,0,0,0,135.80206971149957,103.26929777079442Z" fill-rule="evenodd" style="fill: #1DC690; stroke: #fff; opacity: 1;" id="p-type-logs"></path><path d="M155.22963471697264,121.2961685529895A197,197,0,0,1,153.62172086082865,123.3262619224212L133.04031283855946,106.80367577859026A170.6070045455344,170.6070045455344,0,0,0,134.43280708507714,105.04556334860806Z" fill-rule="evenodd" style="fill: #1DC690; stroke: #fff; opacity: 1;" id="p-type-logs"></path><path d="M153.62172086082865,123.3262619224212A197,197,0,0,1,151.9872593074759,125.335043017514L131.624827611847,108.54333123758254A170.6070045455344,170.6070045455344,0,0,0,133.04031283855946,106.80367577859026Z" fill-rule="evenodd" style="fill: #1DC690; stroke: #fff; opacity: 1;" id="p-type-logs"></path><path d="M151.9872593074759,125.335043017514A197,197,0,0,1,150.32653251170117,127.32216469652266L130.18659601796054,110.26422909201484A170.6070045455344,170.6070045455344,0,0,0,131.624827611847,108.54333123758254Z" fill-rule="evenodd" style="fill: #1DC690; stroke: #fff; opacity: 1;" id="p-type-logs"></path><path d="M150.32653251170117,127.32216469652266A197,197,0,0,1,148.63982746724392,129.28728356071204L128.7258666007692,111.96607194985884A170.6070045455344,170.6070045455344,0,0,0,130.18659601796054,110.26422909201484Z" fill-rule="evenodd" style="fill: #1DC690; stroke: #fff; opacity: 1;" id="p-type-logs"></path><path d="M148.63982746724392,129.28728356071204A197,197,0,0,1,146.92743565720005,131.23006001370015L127.24289179203879,113.64856571202078A170.6070045455344,170.6070045455344,0,0,0,128.7258666007692,111.96607194985884Z" fill-rule="evenodd" style="fill: #1DC690; stroke: #fff; opacity: 1;" id="p-type-logs"></path><path d="M146.92743565720005,131.23006001370015A197,197,0,0,1,145.18965300365022,133.15015832014487L125.73792786780871,115.31141962316538A170.6070045455344,170.6070045455344,0,0,0,127.24289179203879,113.64856571202078Z" fill-rule="evenodd" style="fill: #1DC690; stroke: #fff; opacity: 1;" id="p-type-logs"></path><path d="M145.18965300365022,133.15015832014487A197,197,0,0,1,143.426779816521,135.04724666376285L124.21123490410436,116.9543463219619A170.6070045455344,170.6070045455344,0,0,0,125.73792786780871,115.31141962316538Z" fill-rule="evenodd" style="fill: #1DC690; stroke: #fff; opacity: 1;" id="p-type-logs"></path><path d="M143.426779816521,135.04724666376285A197,197,0,0,1,141.63912074168746,136.92099720467158L122.66307673199273,118.57706189074369A170.6070045455344,170.6070045455344,0,0,0,124.21123490410436,116.9543463219619Z" fill-rule="evenodd" style="fill: #1DC690; stroke: #fff; opacity: 1;" id="p-type-logs"></path><path d="M141.63912074168746,136.92099720467158A197,197,0,0,1,139.82698470832685,138.77108613604395L121.09372089198928,120.17928590457257A170.6070045455344,170.6070045455344,0,0,0,122.66307673199273,118.57706189074369Z" fill-rule="evenodd" style="fill: #1DC690; stroke: #fff; opacity: 1;" id="p-type-logs"></path><path d="M5.264421268885723,196.92964700294291A197,197,0,0,1,2.6752239978483896,196.9818346359921L2.3168119429504714,170.5912728788346A170.6070045455344,170.6070045455344,0,0,0,4.559122555078145,170.5460770628506Z" fill-rule="evenodd" style="fill: #D7A449; stroke: #fff; opacity: 1;" id="p-type-tokenTransfers"></path><path d="M2.6752239978483896,196.9818346359921A197,197,0,0,1,0.08556441564657613,196.99998141809755L0.07410095760990562,170.60698845313482A170.6070045455344,170.6070045455344,0,0,0,2.3168119429504714,170.5912728788346Z" fill-rule="evenodd" style="fill: #D7A449; stroke: #fff; opacity: 1;" id="p-type-tokenTransfers"></path><path d="M0.08556441564657613,196.99998141809755A197,197,0,0,1,-2.504109953124387,196.9840842132751L-2.168622833275179,170.59322106990945A170.6070045455344,170.6070045455344,0,0,0,0.07410095760990562,170.60698845313482Z" fill-rule="evenodd" style="fill: #D7A449; stroke: #fff; opacity: 1;" id="p-type-tokenTransfers"></path><path d="M-2.504109953124387,196.9840842132751A197,197,0,0,1,-5.093351581313872,196.93414576875472L-4.410971859823455,170.54997310832928A170.6070045455344,170.6070045455344,0,0,0,-2.168622833275179,170.59322106990945Z" fill-rule="evenodd" style="fill: #D7A449; stroke: #fff; opacity: 1;" id="p-type-tokenTransfers"></path><path d="M-5.093351581313872,196.93414576875472A197,197,0,0,1,-7.681713016554073,196.85017471450539L-6.652558616917419,170.47725204216684A170.6070045455344,170.6070045455344,0,0,0,-4.410971859823455,170.54997310832928Z" fill-rule="evenodd" style="fill: #D7A449; stroke: #fff; opacity: 1;" id="p-type-tokenTransfers"></path><path d="M-7.681713016554073,196.85017471450539A197,197,0,0,1,-10.268746958585204,196.7321855617442L-8.892995731168979,170.37507043850462A170.6070045455344,170.6070045455344,0,0,0,-6.652558616917419,170.47725204216684Z" fill-rule="evenodd" style="fill: #D7A449; stroke: #fff; opacity: 1;" id="p-type-tokenTransfers"></path><path d="M-10.268746958585204,196.7321855617442A197,197,0,0,1,-12.854006336554416,196.58019870042816L-11.131896027862272,170.2434459555635A170.6070045455344,170.6070045455344,0,0,0,-8.892995731168979,170.37507043850462Z" fill-rule="evenodd" style="fill: #D7A449; stroke: #fff; opacity: 1;" id="p-type-tokenTransfers"></path><path d="M-12.854006336554416,196.58019870042816A197,197,0,0,1,-15.437044386275057,196.39424039573098L-13.368872597862158,170.08240133965103A170.6070045455344,170.6070045455344,0,0,0,-11.131896027862272,170.2434459555635Z" fill-rule="evenodd" style="fill: #D7A449; stroke: #fff; opacity: 1;" id="p-type-tokenTransfers"></path><path d="M-15.437044386275057,196.39424039573098A197,197,0,0,1,-18.017414727432943,196.17434278350387L-15.603538864476807,169.89196442123082A170.6070045455344,170.6070045455344,0,0,0,-13.368872597862158,170.08240133965103Z" fill-rule="evenodd" style="fill: #D7A449; stroke: #fff; opacity: 1;" id="p-type-tokenTransfers"></path><path d="M-18.017414727432943,196.17434278350387A197,197,0,0,1,-20.594671440726305,195.9205438647222L-17.835508650262845,169.67216811011286A170.6070045455344,170.6070045455344,0,0,0,-15.603538864476807,169.89196442123082Z" fill-rule="evenodd" style="fill: #D7A449; stroke: #fff; opacity: 1;" id="p-type-tokenTransfers"></path><path d="M-20.594671440726305,195.9205438647222A197,197,0,0,1,-23.168369144926036,195.63288749891834L-20.0643962437615,169.42305038976642A170.6070045455344,170.6070045455344,0,0,0,-17.835508650262845,169.67216811011286Z" fill-rule="evenodd" style="fill: #D7A449; stroke: #fff; opacity: 1;" id="p-type-tokenTransfers"></path><path d="M-23.168369144926036,195.63288749891834A197,197,0,0,1,-25.73806307384299,195.31142339660238L-22.289816466154225,169.14465431075604A170.6070045455344,170.6070045455344,0,0,0,-20.0643962437615,169.42305038976642Z" fill-rule="evenodd" style="fill: #D7A449; stroke: #fff; opacity: 1;" id="p-type-tokenTransfers"></path><path d="M-25.73806307384299,195.31142339660238A197,197,0,0,1,-28.30330915318896,194.95620711067141L-24.511384737826265,168.83702798330185A170.6070045455344,170.6070045455344,0,0,0,-22.289816466154225,169.14465431075604Z" fill-rule="evenodd" style="fill: #D7A449; stroke: #fff; opacity: 1;" id="p-type-tokenTransfers"></path><path d="M-28.30330915318896,194.95620711067141A197,197,0,0,1,-30.863664077318113,194.5673000268094L-26.728717144826692,168.50022456896562A170.6070045455344,170.6070045455344,0,0,0,-24.511384737826265,168.83702798330185Z" fill-rule="evenodd" style="fill: #D7A449; stroke: #fff; opacity: 1;" id="p-type-tokenTransfers"></path><path d="M-30.863664077318113,194.5673000268094A197,197,0,0,1,-33.41868538583557,194.14476935287888L-28.94143050521337,168.13430227146364A170.6070045455344,170.6070045455344,0,0,0,-26.728717144826692,168.50022456896562Z" fill-rule="evenodd" style="fill: #D7A449; stroke: #fff; opacity: 1;" id="p-type-tokenTransfers"></path><path d="M-33.41868538583557,194.14476935287888A197,197,0,0,1,-35.967931540059965,193.68868810730677L-31.149142435271475,167.73932432660854A170.6070045455344,170.6070045455344,0,0,0,-28.94143050521337,168.13430227146364Z" fill-rule="evenodd" style="fill: #D7A449; stroke: #fff; opacity: 1;" id="p-type-tokenTransfers"></path><path d="M-35.967931540059965,193.68868810730677A197,197,0,0,1,-38.51096199932663,193.19913510646577L-33.35147141559401,167.31535899138134A170.6070045455344,170.6070045455344,0,0,0,-31.149142435271475,167.73932432660854Z" fill-rule="evenodd" style="fill: #D7A449; stroke: #fff; opacity: 1;" id="p-type-tokenTransfers"></path><path d="M-38.51096199932663,193.19913510646577A197,197,0,0,1,-41.047337297118425,192.67619495105404L-35.54803685701303,166.8624795321358A170.6070045455344,170.6070045455344,0,0,0,-33.35147141559401,167.31535899138134Z" fill-rule="evenodd" style="fill: #D7A449; stroke: #fff; opacity: 1;" id="p-type-tokenTransfers"></path><path d="M-41.047337297118425,192.67619495105404A197,197,0,0,1,-43.57661911701084,192.11995801147512L-37.73845916637,166.38076421193713A170.6070045455344,170.6070045455344,0,0,0,-35.54803685701303,166.8624795321358Z" fill-rule="evenodd" style="fill: #D7A449; stroke: #fff; opacity: 1;" id="p-type-tokenTransfers"></path><path d="M-43.57661911701084,192.11995801147512A197,197,0,0,1,-46.09837036841843,191.5305204122208L-39.92235981211417,165.87029627703717A170.6070045455344,170.6070045455344,0,0,0,-37.73845916637,166.38076421193713Z" fill-rule="evenodd" style="fill: #D7A449; stroke: #fff; opacity: 1;" id="p-type-tokenTransfers"></path><path d="M-46.09837036841843,191.5305204122208A197,197,0,0,1,-48.61215526212933,190.90798401525964L-42.09936138971737,165.3311639424884A170.6070045455344,170.6070045455344,0,0,0,-39.92235981211417,165.87029627703717Z" fill-rule="evenodd" style="fill: #D7A449; stroke: #fff; opacity: 1;" id="p-type-tokenTransfers"></path><path d="M-48.61215526212933,190.90798401525964A197,197,0,0,1,-51.11753938561493,190.25245640243415L-44.26908768689412,164.76346037689936A170.6070045455344,170.6070045455344,0,0,0,-42.09936138971737,165.3311639424884Z" fill-rule="evenodd" style="fill: #D7A449; stroke: #fff; opacity: 1;" id="p-type-tokenTransfers"></path><path d="M-51.11753938561493,190.25245640243415A197,197,0,0,1,-53.614089778101686,189.5640508568691L-46.43116374861565,164.16728368633392A170.6070045455344,170.6070045455344,0,0,0,-44.26908768689412,164.76346037689936Z" fill-rule="evenodd" style="fill: #D7A449; stroke: #fff; opacity: 1;" id="p-type-tokenTransfers"></path><path d="M-53.614089778101686,189.5640508568691A197,197,0,0,1,-56.10137500539189,188.84288634339498L-48.58521594190672,163.54273689735749A170.6070045455344,170.6070045455344,0,0,0,-46.43116374861565,164.16728368633392Z" fill-rule="evenodd" style="fill: #D7A449; stroke: #fff; opacity: 1;" id="p-type-tokenTransfers"></path><path d="M-56.10137500539189,188.84288634339498A197,197,0,0,1,-58.57896523442082,188.08908748798936L-50.730872020413884,162.8899279392326A170.6070045455344,170.6070045455344,0,0,0,-48.58521594190672,163.54273689735749Z" fill-rule="evenodd" style="fill: #D7A449; stroke: #fff; opacity: 1;" id="p-type-tokenTransfers"></path><path d="M-58.57896523442082,188.08908748798936A197,197,0,0,1,-61.04643230753708,187.3027845562401L-52.8677611887342,162.20896962526754A170.6070045455344,170.6070045455344,0,0,0,-50.730872020413884,162.8899279392326Z" fill-rule="evenodd" style="fill: #D7A449; stroke: #fff; opacity: 1;" id="p-type-tokenTransfers"></path><path d="M-61.04643230753708,187.3027845562401A197,197,0,0,1,-63.503349816493454,186.48411343083373L-54.9955141664932,161.49997963332083A170.6070045455344,170.6070045455344,0,0,0,-52.8677611887342,162.20896962526754Z" fill-rule="evenodd" style="fill: #D7A449; stroke: #fff; opacity: 1;" id="p-type-tokenTransfers"></path><path d="M-63.503349816493454,186.48411343083373A197,197,0,0,1,-65.94929317613536,185.63321558807343L-57.11376325216094,160.76308048546505A170.6070045455344,170.6070045455344,0,0,0,-54.9955141664932,161.49997963332083Z" fill-rule="evenodd" style="fill: #D7A449; stroke: #fff; opacity: 1;" id="p-type-tokenTransfers"></path><path d="M-65.94929317613536,185.63321558807343A197,197,0,0,1,-68.38383969777438,184.7502380734301L-59.22214238659538,159.99839952681347A170.6070045455344,170.6070045455344,0,0,0,-57.11376325216094,160.76308048546505Z" fill-rule="evenodd" style="fill: #D7A449; stroke: #fff; opacity: 1;" id="p-type-tokenTransfers"></path><path d="M-68.38383969777438,184.7502380734301A197,197,0,0,1,-70.80656866223401,183.83533347613113L-61.32028721630179,159.2060689035134A170.6070045455344,170.6070045455344,0,0,0,-59.22214238659538,159.99839952681347Z" fill-rule="evenodd" style="fill: #D7A449; stroke: #fff; opacity: 1;" id="p-type-tokenTransfers"></path><path d="M-70.80656866223401,183.83533347613113A197,197,0,0,1,-73.21706139255501,182.8886599027912L-63.40783515639748,158.38622553990962A170.6070045455344,170.6070045455344,0,0,0,-61.32028721630179,159.2060689035134Z" fill-rule="evenodd" style="fill: #D7A449; stroke: #fff; opacity: 1;" id="p-type-tokenTransfers"></path><path d="M-73.21706139255501,182.8886599027912A197,197,0,0,1,-75.61490132634778,181.9103809500895L-65.48442545327082,157.5390111148823A170.6070045455344,170.6070045455344,0,0,0,-63.40783515639748,158.38622553990962Z" fill-rule="evenodd" style="fill: #D7A449; stroke: #fff; opacity: 1;" id="p-type-tokenTransfers"></path><path d="M-75.61490132634778,181.9103809500895A197,197,0,0,1,-77.99967408777954,180.90066567649822L-67.5496992469239,156.6645720373631A170.6070045455344,170.6070045455344,0,0,0,-65.48442545327082,157.5390111148823Z" fill-rule="evenodd" style="fill: #D7A449; stroke: #fff; opacity: 1;" id="p-type-tokenTransfers"></path><path d="M-77.99967408777954,180.90066567649822A197,197,0,0,1,-80.37096755918341,179.8596885730671L-69.60329963298784,155.76305942103383A170.6070045455344,170.6070045455344,0,0,0,-67.5496992469239,156.6645720373631Z" fill-rule="evenodd" style="fill: #D7A449; stroke: #fff; opacity: 1;" id="p-type-tokenTransfers"></path><path d="M-80.37096755918341,179.8596885730671A197,197,0,0,1,-82.7283719522774,178.78762953326955L-71.64487172440026,154.83462905821239A170.6070045455344,170.6070045455344,0,0,0,-69.60329963298784,155.76305942103383Z" fill-rule="evenodd" style="fill: #D7A449; stroke: #fff; opacity: 1;" id="p-type-tokenTransfers"></path><path d="M-82.7283719522774,178.78762953326955A197,197,0,0,1,-85.07147987898071,177.6846738219146L-73.67406271273401,153.87944139292986A170.6070045455344,170.6070045455344,0,0,0,-71.64487172440026,154.83462905821239Z" fill-rule="evenodd" style="fill: #D7A449; stroke: #fff; opacity: 1;" id="p-type-tokenTransfers"></path><path d="M-85.07147987898071,177.6846738219146A197,197,0,0,1,-87.39988642181544,176.55101204313092L-75.69052192916678,152.89766149320374A170.6070045455344,170.6070045455344,0,0,0,-73.67406271273401,153.87944139292986Z" fill-rule="evenodd" style="fill: #D7A449; stroke: #fff; opacity: 1;" id="p-type-tokenTransfers"></path><path d="M-87.39988642181544,176.55101204313092A197,197,0,0,1,-89.71318920388113,175.38684010742833L-77.6939009050809,151.88945902251237A170.6070045455344,170.6070045455344,0,0,0,-75.69052192916678,152.89766149320374Z" fill-rule="evenodd" style="fill: #D7A449; stroke: #fff; opacity: 1;" id="p-type-tokenTransfers"></path><path d="M-89.71318920388113,175.38684010742833A197,197,0,0,1,-92.01098845839049,174.19235919784177L-79.68385343228294,150.8550082104749A170.6070045455344,170.6070045455344,0,0,0,-77.6939009050809,151.88945902251237Z" fill-rule="evenodd" style="fill: #D7A449; stroke: #fff; opacity: 1;" id="p-type-tokenTransfers"></path><path d="M-92.01098845839049,174.19235919784177A197,197,0,0,1,-94.29288709775385,172.96777573516476L-81.66003562283277,149.79448782274227A170.6070045455344,170.6070045455344,0,0,0,-79.68385343228294,150.8550082104749Z" fill-rule="evenodd" style="fill: #D7A449; stroke: #fff; opacity: 1;" id="p-type-tokenTransfers"></path><path d="M-94.29288709775385,172.96777573516476A197,197,0,0,1,-96.55849078220078,171.71330134227705L-83.62210596847143,148.70808113010446A170.6070045455344,170.6070045455344,0,0,0,-81.66003562283277,149.79448782274227Z" fill-rule="evenodd" style="fill: #D7A449; stroke: #fff; opacity: 1;" id="p-type-tokenTransfers"></path><path d="M-96.55849078220078,171.71330134227705A197,197,0,0,1,-98.80740798792675,170.42915280757396L-85.56972539963803,147.595975876819A170.6070045455344,170.6070045455344,0,0,0,-83.62210596847143,148.70808113010446Z" fill-rule="evenodd" style="fill: #D7A449; stroke: #fff; opacity: 1;" id="p-type-tokenTransfers"></path></g></svg>