<svg xmlns="http://www.w3.org/2000/svg" width="400" height="400" id="block-7907874"><g id="burst-container" transform="translate(200,200)"><circle r="197" style="fill: #f9f9f9; stroke: #f9f9f9; stroke-width: 3; opacity: 1;" id="circle-base"></circle><path display="none" d="M6.031385485800715e-15,-98.5A98.5,98.5,0,1,1,-6.031385485800715e-15,98.5A98.5,98.5,0,1,1,6.031385485800715e-15,-98.5Z" fill-rule="evenodd" id="p-type-root" style="stroke: #fff; opacity: 1;"></path><path d="M8.529667153919608e-15,-139.30003589374985A139.30003589374985,139.30003589374985,0,1,1,-107.24792251235066,-88.89534924159321L-75.83573327665255,-62.85850426467698A98.5,98.5,0,1,0,6.031385485800715e-15,-98.5Z" fill-rule="evenodd" style="fill: #0B1F65; stroke: #fff; opacity: 1;" id="p-type-data"></path><path d="M-107.24792251235066,-88.89534924159321A139.30003589374985,139.30003589374985,0,0,1,-2.8136492504590707,-139.27161727320964L-1.9895504648800557,-98.47990500070405A98.5,98.5,0,0,0,-75.83573327665255,-62.85850426467698Z" fill-rule="evenodd" style="fill: #D7A449; stroke: #fff; opacity: 1;" id="p-type-value"></path><path d="M1.0446666101440332e-14,-170.6070045455344A170.6070045455344,170.6070045455344,0,0,1,170.54663592221556,4.538168751296891L139.2507451192147,3.7053992691069593A139.30003589374985,139.30003589374985,0,0,0,8.529667153919608e-15,-139.30003589374985Z" fill-rule="evenodd" style="fill: #DB3F29; stroke: #fff; opacity: 1;" id="p-type-functions"></path><path d="M170.54663592221556,4.538168751296891A170.6070045455344,170.6070045455344,0,0,1,55.63923760992655,161.27933915472912L45.42924727393037,131.68402899411944A139.30003589374985,139.30003589374985,0,0,0,139.2507451192147,3.7053992691069593Z" fill-rule="evenodd" style="fill: #1DC690; stroke: #fff; opacity: 1;" id="p-type-logs"></path><path d="M55.63923760992655,161.27933915472912A170.6070045455344,170.6070045455344,0,0,1,-103.1976924481775,135.85649146570572L-84.26056304356794,110.9263607785855A139.30003589374985,139.30003589374985,0,0,0,45.42924727393037,131.68402899411944Z" fill-rule="evenodd" style="fill: #D7A449; stroke: #fff; opacity: 1;" id="p-type-tokenTransfers"></path><path d="M-103.1976924481775,135.85649146570572A170.6070045455344,170.6070045455344,0,0,1,-164.99112764417765,43.41287595521256L-134.71469160488107,35.44646478567054A139.30003589374985,139.30003589374985,0,0,0,-84.26056304356794,110.9263607785855Z" fill-rule="evenodd" style="fill: #414552; stroke: #fff; opacity: 1;" id="p-type-ether"></path><path d="M-131.35134306440403,-108.87412307420547A170.6070045455344,170.6070045455344,0,0,1,-63.88279713572779,-158.19525350058848L-52.160085441421266,-129.16588360222536A139.30003589374985,139.30003589374985,0,0,0,-107.24792251235066,-88.89534924159321Z" fill-rule="evenodd" style="fill: #D7A449; stroke: #fff; opacity: 1;" id="p-type-tokenTransfers"></path><path d="M-63.88279713572779,-158.19525350058848A170.6070045455344,170.6070045455344,0,0,1,-6.890598939853036,-170.46779650787445L-5.626150474934217,-139.18637300696284A139.30003589374985,139.30003589374985,0,0,0,-52.160085441421266,-129.16588360222536Z" fill-rule="evenodd" style="fill: #414552; stroke: #fff; opacity: 1;" id="p-type-ether"></path><path d="M1.206277097160143e-14,-197A197,197,0,0,1,7.141406884885977,-196.87051660343786L6.184639781072348,-170.4948686347433A170.6070045455344,170.6070045455344,0,0,0,1.0446666101440332e-14,-170.6070045455344Z" fill-rule="evenodd" style="fill: #DB3F29; stroke: #fff; opacity: 1;" id="p-type-functions"></path><path d="M7.141406884885977,-196.87051660343786A197,197,0,0,1,14.126572270844726,-196.4928496304041L12.233970454948357,-170.1677994419257A170.6070045455344,170.6070045455344,0,0,0,6.184639781072348,-170.4948686347433Z" fill-rule="evenodd" style="fill: #DB3F29; stroke: #fff; opacity: 1;" id="p-type-functions"></path><path d="M14.126572270844726,-196.4928496304041A197,197,0,0,1,19.941432887726346,-195.98810998217292L17.269787468633492,-169.73068208426028A170.6070045455344,170.6070045455344,0,0,0,12.233970454948357,-170.1677994419257Z" fill-rule="evenodd" style="fill: #DB3F29; stroke: #fff; opacity: 1;" id="p-type-functions"></path><path d="M19.941432887726346,-195.98810998217292A197,197,0,0,1,24.66115205766279,-195.45031997719735L21.357184168526857,-169.26494227805009A170.6070045455344,170.6070045455344,0,0,0,17.269787468633492,-169.73068208426028Z" fill-rule="evenodd" style="fill: #DB3F29; stroke: #fff; opacity: 1;" id="p-type-functions"></path><path d="M24.66115205766279,-195.45031997719735A197,197,0,0,1,29.005454169219707,-194.85297952158007L25.119460158849527,-168.74763026877733A170.6070045455344,170.6070045455344,0,0,0,21.357184168526857,-169.26494227805009Z" fill-rule="evenodd" style="fill: #DB3F29; stroke: #fff; opacity: 1;" id="p-type-functions"></path><path d="M29.005454169219707,-194.85297952158007A197,197,0,0,1,32.00898634803283,-194.3821617149358L27.720595326785713,-168.33989008766932A170.6070045455344,170.6070045455344,0,0,0,25.119460158849527,-168.74763026877733Z" fill-rule="evenodd" style="fill: #DB3F29; stroke: #fff; opacity: 1;" id="p-type-functions"></path><path d="M32.00898634803283,-194.3821617149358A197,197,0,0,1,34.031320794251634,-194.03831890891743L29.471988332159537,-168.04211348274887A170.6070045455344,170.6070045455344,0,0,0,27.720595326785713,-168.33989008766932Z" fill-rule="evenodd" style="fill: #DB3F29; stroke: #fff; opacity: 1;" id="p-type-functions"></path><path d="M34.031320794251634,-194.03831890891743A197,197,0,0,1,35.98932475451548,-193.6847141715474L31.16766950245856,-167.73588279728793A170.6070045455344,170.6070045455344,0,0,0,29.471988332159537,-168.04211348274887Z" fill-rule="evenodd" style="fill: #DB3F29; stroke: #fff; opacity: 1;" id="p-type-functions"></path><path d="M35.98932475451548,-193.6847141715474A197,197,0,0,1,37.94365752747374,-193.31135210700324L32.860171331288896,-167.41254176458327A170.6070045455344,170.6070045455344,0,0,0,31.16766950245856,-167.73588279728793Z" fill-rule="evenodd" style="fill: #DB3F29; stroke: #fff; opacity: 1;" id="p-type-functions"></path><path d="M37.94365752747374,-193.31135210700324A197,197,0,0,1,39.8941197561861,-192.91827080108064L34.549321170475814,-167.07212336790153A170.6070045455344,170.6070045455344,0,0,0,32.860171331288896,-167.41254176458327Z" fill-rule="evenodd" style="fill: #DB3F29; stroke: #fff; opacity: 1;" id="p-type-functions"></path><path d="M39.8941197561861,-192.91827080108064A197,197,0,0,1,41.84051247853746,-192.5055103510893L36.23494671377325,-166.71466233253153A170.6070045455344,170.6070045455344,0,0,0,34.549321170475814,-167.07212336790153Z" fill-rule="evenodd" style="fill: #DB3F29; stroke: #fff; opacity: 1;" id="p-type-functions"></path><path d="M41.84051247853746,-192.5055103510893A197,197,0,0,1,43.78263714753361,-192.07311286176264L37.91687601444036,-166.34019512224205A170.6070045455344,170.6070045455344,0,0,0,36.23494671377325,-166.71466233253153Z" fill-rule="evenodd" style="fill: #DB3F29; stroke: #fff; opacity: 1;" id="p-type-functions"></path><path d="M43.78263714753361,-192.07311286176264A197,197,0,0,1,45.72029565155448,-191.62112244096278L39.594937502781384,-165.94875993556215A170.6070045455344,170.6070045455344,0,0,0,37.91687601444036,-166.34019512224205Z" fill-rule="evenodd" style="fill: #DB3F29; stroke: #fff; opacity: 1;" id="p-type-functions"></path><path d="M45.72029565155448,-191.62112244096278A197,197,0,0,1,47.65329033456323,-191.14958519518117L41.26896000364721,-165.54039670188473A170.6070045455344,170.6070045455344,0,0,0,39.594937502781384,-165.94875993556215Z" fill-rule="evenodd" style="fill: #DB3F29; stroke: #fff; opacity: 1;" id="p-type-functions"></path><path d="M47.65329033456323,-191.14958519518117A197,197,0,0,1,49.58142401626843,-190.65854922483544L42.93877275389633,-165.11514707739337A170.6070045455344,170.6070045455344,0,0,0,41.26896000364721,-165.54039670188473Z" fill-rule="evenodd" style="fill: #DB3F29; stroke: #fff; opacity: 1;" id="p-type-functions"></path><path d="M49.58142401626843,-190.65854922483544A197,197,0,0,1,51.50450001223812,-190.1480646193628L44.604205419814136,-164.6730544408132A170.6070045455344,170.6070045455344,0,0,0,42.93877275389633,-165.11514707739337Z" fill-rule="evenodd" style="fill: #DB3F29; stroke: #fff; opacity: 1;" id="p-type-functions"></path><path d="M51.50450001223812,-190.1480646193628A197,197,0,0,1,53.42232215396306,-189.6181834521104L46.26508811448822,-164.21416388898567A170.6070045455344,170.6070045455344,0,0,0,44.604205419814136,-164.6730544408132Z" fill-rule="evenodd" style="fill: #DB3F29; stroke: #fff; opacity: 1;" id="p-type-functions"></path><path d="M53.42232215396306,-189.6181834521104A197,197,0,0,1,55.33469480886761,-189.06895977502356L47.92125141513825,-163.73852223226856A170.6070045455344,170.6070045455344,0,0,0,46.26508811448822,-164.21416388898567Z" fill-rule="evenodd" style="fill: #DB3F29; stroke: #fff; opacity: 1;" id="p-type-functions"></path><path d="M55.33469480886761,-189.06895977502356A197,197,0,0,1,57.24142290026543,-188.50044961313213L49.57252638039818,-163.24617798976098A170.6070045455344,170.6070045455344,0,0,0,47.92125141513825,-163.73852223226856Z" fill-rule="evenodd" style="fill: #DB3F29; stroke: #fff; opacity: 1;" id="p-type-functions"></path><path d="M57.24142290026543,-188.50044961313213A197,197,0,0,1,59.14231192725906,-187.91271095883533L51.21874456754975,-162.73718138435387A170.6070045455344,170.6070045455344,0,0,0,49.57252638039818,-163.24617798976098Z" fill-rule="evenodd" style="fill: #DB3F29; stroke: #fff; opacity: 1;" id="p-type-functions"></path><path d="M59.14231192725906,-187.91271095883533A197,197,0,0,1,61.037167984580385,-187.30580376598618L52.85973804970484,-162.211584337607A170.6070045455344,170.6070045455344,0,0,0,51.21874456754975,-162.73718138435387Z" fill-rule="evenodd" style="fill: #DB3F29; stroke: #fff; opacity: 1;" id="p-type-functions"></path><path d="M61.037167984580385,-187.30580376598618A197,197,0,0,1,62.92579778237049,-186.6797899437757L54.49533943293534,-161.66944046445252A170.6070045455344,170.6070045455344,0,0,0,52.85973804970484,-162.211584337607Z" fill-rule="evenodd" style="fill: #DB3F29; stroke: #fff; opacity: 1;" id="p-type-functions"></path><path d="M62.92579778237049,-186.6797899437757A197,197,0,0,1,64.80800866589679,-186.03473335041778L56.125381873348665,-161.11080506772592A170.6070045455344,170.6070045455344,0,0,0,54.49533943293534,-161.66944046445252Z" fill-rule="evenodd" style="fill: #DB3F29; stroke: #fff; opacity: 1;" id="p-type-functions"></path><path d="M64.80800866589679,-186.03473335041778A197,197,0,0,1,66.68360863520515,-185.37069978663507L57.749699094107015,-160.5357351325246A170.6070045455344,170.6070045455344,0,0,0,56.125381873348665,-161.11080506772592Z" fill-rule="evenodd" style="fill: #DB3F29; stroke: #fff; opacity: 1;" id="p-type-functions"></path><path d="M66.68360863520515,-185.37069978663507A197,197,0,0,1,68.55240636470533,-184.68775698894692L59.368125402388856,-159.94428932039503A170.6070045455344,170.6070045455344,0,0,0,57.749699094107015,-160.5357351325246Z" fill-rule="evenodd" style="fill: #DB3F29; stroke: #fff; opacity: 1;" id="p-type-functions"></path><path d="M68.55240636470533,-184.68775698894692A197,197,0,0,1,70.41421122268797,-183.98597462275944L60.980495706291094,-159.33652796334871A170.6070045455344,170.6070045455344,0,0,0,59.368125402388856,-159.94428932039503Z" fill-rule="evenodd" style="fill: #DB3F29; stroke: #fff; opacity: 1;" id="p-type-functions"></path><path d="M70.41421122268797,-183.98597462275944A197,197,0,0,1,72.26883329077006,-183.2654242752595L62.586645531669426,-158.7125130577081A170.6070045455344,170.6070045455344,0,0,0,60.980495706291094,-159.33652796334871Z" fill-rule="evenodd" style="fill: #DB3F29; stroke: #fff; opacity: 1;" id="p-type-functions"></path><path d="M72.26883329077006,-183.2654242752595A197,197,0,0,1,74.1160833832684,-182.52617944811206L64.18641103891613,-158.07230825778214A170.6070045455344,170.6070045455344,0,0,0,62.586645531669426,-158.7125130577081Z" fill-rule="evenodd" style="fill: #DB3F29; stroke: #fff; opacity: 1;" id="p-type-functions"></path><path d="M74.1160833832684,-182.52617944811206A197,197,0,0,1,75.95577306649783,-181.76831554996235L65.77962903967297,-157.4159788693734A170.6070045455344,170.6070045455344,0,0,0,64.18641103891613,-158.07230825778214Z" fill-rule="evenodd" style="fill: #DB3F29; stroke: #fff; opacity: 1;" id="p-type-functions"></path><path d="M75.95577306649783,-181.76831554996235A197,197,0,0,1,77.78771467799287,-180.99190988874383L67.36613701347747,-156.74359184311612A170.6070045455344,170.6070045455344,0,0,0,65.77962903967297,-157.4159788693734Z" fill-rule="evenodd" style="fill: #DB3F29; stroke: #fff; opacity: 1;" id="p-type-functions"></path><path d="M77.78771467799287,-180.99190988874383A197,197,0,0,1,79.61172134565102,-180.19704166379208L68.94577312434164,-156.05521576764684A170.6070045455344,170.6070045455344,0,0,0,67.36613701347747,-156.74359184311612Z" fill-rule="evenodd" style="fill: #DB3F29; stroke: #fff; opacity: 1;" id="p-type-functions"></path><path d="M79.61172134565102,-180.19704166379208A197,197,0,0,1,81.42760700679479,-179.38379195776577L70.51837623726004,-155.35092086260784A170.6070045455344,170.6070045455344,0,0,0,68.94577312434164,-156.05521576764684Z" fill-rule="evenodd" style="fill: #DB3F29; stroke: #fff; opacity: 1;" id="p-type-functions"></path><path d="M81.42760700679479,-179.38379195776577A197,197,0,0,1,83.23518642715165,-178.55224372837577L72.08378593464703,-154.63077897148412A170.6070045455344,170.6070045455344,0,0,0,70.51837623726004,-155.35092086260784Z" fill-rule="evenodd" style="fill: #DB3F29; stroke: #fff; opacity: 1;" id="p-type-functions"></path><path d="M83.23518642715165,-178.55224372837577A197,197,0,0,1,85.03427521974952,-177.7024817999228L73.64184253270066,-153.894863554275A170.6070045455344,170.6070045455344,0,0,0,72.08378593464703,-154.63077897148412Z" fill-rule="evenodd" style="fill: #DB3F29; stroke: #fff; opacity: 1;" id="p-type-functions"></path><path d="M85.03427521974952,-177.7024817999228A197,197,0,0,1,86.82468986372538,-176.83459285464454L75.19238709769142,-153.14324968000037A170.6070045455344,170.6070045455344,0,0,0,73.64184253270066,-153.894863554275Z" fill-rule="evenodd" style="fill: #DB3F29; stroke: #fff; opacity: 1;" id="p-type-functions"></path><path d="M86.82468986372538,-176.83459285464454A197,197,0,0,1,88.60624772304597,-175.9486654238736L76.73526146217489,-152.37601401904323A170.6070045455344,170.6070045455344,0,0,0,75.19238709769142,-153.14324968000037Z" fill-rule="evenodd" style="fill: #DB3F29; stroke: #fff; opacity: 1;" id="p-type-functions"></path><path d="M88.60624772304597,-175.9486654238736A197,197,0,0,1,90.37876706513805,-175.04478987900646L78.2703082411259,-151.5932348353288A170.6070045455344,170.6070045455344,0,0,0,76.73526146217489,-152.37601401904323Z" fill-rule="evenodd" style="fill: #DB3F29; stroke: #fff; opacity: 1;" id="p-type-functions"></path><path d="M90.37876706513805,-175.04478987900646A197,197,0,0,1,92.14206707942644,-174.123058422285L79.79737084799311,-150.79499197834076A170.6070045455344,170.6070045455344,0,0,0,78.2703082411259,-151.5932348353288Z" fill-rule="evenodd" style="fill: #DB3F29; stroke: #fff; opacity: 1;" id="p-type-functions"></path><path d="M92.14206707942644,-174.123058422285A197,197,0,0,1,93.89596789577826,-173.18356507739117L81.31629351067205,-149.9813668749763A170.6070045455344,170.6070045455344,0,0,0,79.79737084799311,-150.79499197834076Z" fill-rule="evenodd" style="fill: #DB3F29; stroke: #fff; opacity: 1;" id="p-type-functions"></path><path d="M93.89596789577826,-173.18356507739117A197,197,0,0,1,95.64029060285083,-172.22640567985573L82.82692128739494,-149.15244252123958A170.6070045455344,170.6070045455344,0,0,0,81.31629351067205,-149.9813668749763Z" fill-rule="evenodd" style="fill: #DB3F29; stroke: #fff; opacity: 1;" id="p-type-functions"></path><path d="M95.64029060285083,-172.22640567985573A197,197,0,0,1,97.37485726634219,-171.25167786728247L84.32910008253607,-148.3083034737759A170.6070045455344,170.6070045455344,0,0,0,82.82692128739494,-149.15244252123958Z" fill-rule="evenodd" style="fill: #DB3F29; stroke: #fff; opacity: 1;" id="p-type-functions"></path><path d="M97.37485726634219,-171.25167786728247A197,197,0,0,1,99.09949094714166,-170.2594810693883L85.82267666233068,-147.44903584124597A170.6070045455344,170.6070045455344,0,0,0,84.32910008253607,-148.3083034737759Z" fill-rule="evenodd" style="fill: #DB3F29; stroke: #fff; opacity: 1;" id="p-type-functions"></path><path d="M99.09949094714166,-170.2594810693883A197,197,0,0,1,100.81401571937903,-169.24991649786062L87.30749867050596,-146.57472727554227A170.6070045455344,170.6070045455344,0,0,0,85.82267666233068,-147.44903584124597Z" fill-rule="evenodd" style="fill: #DB3F29; stroke: #fff; opacity: 1;" id="p-type-functions"></path><path d="M100.81401571937903,-169.24991649786062A197,197,0,0,1,102.51825668837033,-168.22308713603317L88.78341464382264,-145.68546696284793A170.6070045455344,170.6070045455344,0,0,0,87.30749867050596,-146.57472727554227Z" fill-rule="evenodd" style="fill: #DB3F29; stroke: #fff; opacity: 1;" id="p-type-functions"></path><path d="M102.51825668837033,-168.22308713603317A197,197,0,0,1,104.21204000845846,-167.17909772838067L90.25027402752531,-144.781345614539A170.6070045455344,170.6070045455344,0,0,0,88.78341464382264,-145.68546696284793Z" fill-rule="evenodd" style="fill: #DB3F29; stroke: #fff; opacity: 1;" id="p-type-functions"></path><path d="M104.21204000845846,-167.17909772838067A197,197,0,0,1,105.89519290074674,-166.1180547698342L91.7079271907002,-143.86245545793116A170.6070045455344,170.6070045455344,0,0,0,90.25027402752531,-144.781345614539Z" fill-rule="evenodd" style="fill: #DB3F29; stroke: #fff; opacity: 1;" id="p-type-functions"></path><path d="M105.89519290074674,-166.1180547698342A197,197,0,0,1,107.5675436707237,-165.040066494918L93.15622544153872,-142.92889022687194A170.6070045455344,170.6070045455344,0,0,0,91.7079271907002,-143.86245545793116Z" fill-rule="evenodd" style="fill: #DB3F29; stroke: #fff; opacity: 1;" id="p-type-functions"></path><path d="M107.5675436707237,-165.040066494918A197,197,0,0,1,109.22892172577725,-163.94524286670847L94.59502104250508,-141.98074515217905A170.6070045455344,170.6070045455344,0,0,0,93.15622544153872,-142.92889022687194Z" fill-rule="evenodd" style="fill: #DB3F29; stroke: #fff; opacity: 1;" id="p-type-functions"></path><path d="M109.22892172577725,-163.94524286670847A197,197,0,0,1,110.87915759259646,-162.83369556561738L96.02416722540676,-141.01811695192615A170.6070045455344,170.6070045455344,0,0,0,94.59502104250508,-141.98074515217905Z" fill-rule="evenodd" style="fill: #DB3F29; stroke: #fff; opacity: 1;" id="p-type-functions"></path><path d="M110.87915759259646,-162.83369556561738A197,197,0,0,1,112.51808293445903,-161.70553797799937L97.44351820636584,-140.0411038215768A170.6070045455344,170.6070045455344,0,0,0,96.02416722540676,-141.01811695192615Z" fill-rule="evenodd" style="fill: #DB3F29; stroke: #fff; opacity: 1;" id="p-type-functions"></path><path d="M112.51808293445903,-161.70553797799937A197,197,0,0,1,114.14553056840306,-160.56088518458586L98.85292920069024,-139.04980542396785A170.6070045455344,170.6070045455344,0,0,0,97.44351820636584,-140.0411038215768Z" fill-rule="evenodd" style="fill: #DB3F29; stroke: #fff; opacity: 1;" id="p-type-functions"></path><path d="M114.14553056840306,-160.56088518458586A197,197,0,0,1,115.76133448228093,-159.39985394874577L100.2522564376428,-138.0443228791431A170.6070045455344,170.6070045455344,0,0,0,98.85292920069024,-139.04980542396785Z" fill-rule="evenodd" style="fill: #DB3F29; stroke: #fff; opacity: 1;" id="p-type-functions"></path><path d="M115.76133448228093,-159.39985394874577A197,197,0,0,1,117.36532985169379,-158.22256270457484L101.64135717510693,-137.0247587540381A170.6070045455344,170.6070045455344,0,0,0,100.2522564376428,-138.0443228791431Z" fill-rule="evenodd" style="fill: #DB3F29; stroke: #fff; opacity: 1;" id="p-type-functions"></path><path d="M117.36532985169379,-158.22256270457484A197,197,0,0,1,118.95735305680495,-157.0291315448145L103.02008971414753,-135.9912170520177A170.6070045455344,170.6070045455344,0,0,0,101.64135717510693,-137.0247587540381Z" fill-rule="evenodd" style="fill: #DB3F29; stroke: #fff; opacity: 1;" id="p-type-functions"></path><path d="M118.95735305680495,-157.0291315448145A197,197,0,0,1,120.53724169903043,-155.81968220860136L104.3883134134653,-134.9438032022669A170.6070045455344,170.6070045455344,0,0,0,103.02008971414753,-135.9912170520177Z" fill-rule="evenodd" style="fill: #DB3F29; stroke: #fff; opacity: 1;" id="p-type-functions"></path><path d="M120.53724169903043,-155.81968220860136A197,197,0,0,1,122.10483461760467,-154.594338069049L105.74588870374318,-133.88262404903617A170.6070045455344,170.6070045455344,0,0,0,104.3883134134653,-134.9438032022669Z" fill-rule="evenodd" style="fill: #DB3F29; stroke: #fff; opacity: 1;" id="p-type-functions"></path><path d="M122.10483461760467,-154.594338069049A197,197,0,0,1,123.65997190602032,-153.3532241206629L107.09267710188358,-132.8077878407426A170.6070045455344,170.6070045455344,0,0,0,105.74588870374318,-133.88262404903617Z" fill-rule="evenodd" style="fill: #DB3F29; stroke: #fff; opacity: 1;" id="p-type-functions"></path><path d="M123.65997190602032,-153.3532241206629A197,197,0,0,1,125.20249492833995,-152.09646696659001L108.42854122513472,-131.71940421892765A170.6070045455344,170.6070045455344,0,0,0,107.09267710188358,-132.8077878407426Z" fill-rule="evenodd" style="fill: #DB3F29; stroke: #fff; opacity: 1;" id="p-type-functions"></path><path d="M125.20249492833995,-152.09646696659001A197,197,0,0,1,126.73224633537798,-150.82419480570442L109.75334480510466,-130.617584207073A170.6070045455344,170.6070045455344,0,0,0,108.42854122513472,-131.71940421892765Z" fill-rule="evenodd" style="fill: #DB3F29; stroke: #fff; opacity: 1;" id="p-type-functions"></path><path d="M126.73224633537798,-150.82419480570442A197,197,0,0,1,128.24907008075166,-149.53653741952982L111.06695270166173,-129.50244019927513A170.6070045455344,170.6070045455344,0,0,0,109.75334480510466,-130.617584207073Z" fill-rule="evenodd" style="fill: #DB3F29; stroke: #fff; opacity: 1;" id="p-type-functions"></path><path d="M128.24907008075166,-149.53653741952982A197,197,0,0,1,129.75281143679894,-148.23362615900112L112.36923091671993,-128.37408594878045A170.6070045455344,170.6070045455344,0,0,0,111.06695270166173,-129.50244019927513Z" fill-rule="evenodd" style="fill: #DB3F29; stroke: #fff; opacity: 1;" id="p-type-functions"></path><path d="M129.75281143679894,-148.23362615900112A197,197,0,0,1,131.2433170103618,-146.91559393106533L113.66004660790767,-127.23263655638146A170.6070045455344,170.6070045455344,0,0,0,112.36923091671993,-128.37408594878045Z" fill-rule="evenodd" style="fill: #DB3F29; stroke: #fff; opacity: 1;" id="p-type-functions"></path><path d="M131.2433170103618,-146.91559393106533A197,197,0,0,1,132.7204347584337,-145.5825751851242L114.93926810211879,-126.07820845867558A170.6070045455344,170.6070045455344,0,0,0,113.66004660790767,-127.23263655638146Z" fill-rule="evenodd" style="fill: #DB3F29; stroke: #fff; opacity: 1;" id="p-type-functions"></path><path d="M132.7204347584337,-145.5825751851242A197,197,0,0,1,134.184014003669,-144.2347058993194L116.20676490894421,-124.91091941618784A170.6070045455344,170.6070045455344,0,0,0,114.93926810211879,-126.07820845867558Z" fill-rule="evenodd" style="fill: #DB3F29; stroke: #fff; opacity: 1;" id="p-type-functions"></path><path d="M134.184014003669,-144.2347058993194A197,197,0,0,1,135.63390544975317,-142.87212356666157L117.46240773398287,-123.7308885013583A170.6070045455344,170.6070045455344,0,0,0,116.20676490894421,-124.91091941618784Z" fill-rule="evenodd" style="fill: #DB3F29; stroke: #fff; opacity: 1;" id="p-type-functions"></path><path d="M135.63390544975317,-142.87212356666157A197,197,0,0,1,137.06996119663242,-141.49496718100502L118.70606849203092,-122.53823608639576A170.6070045455344,170.6070045455344,0,0,0,117.46240773398287,-123.7308885013583Z" fill-rule="evenodd" style="fill: #DB3F29; stroke: #fff; opacity: 1;" id="p-type-functions"></path><path d="M137.06996119663242,-141.49496718100502A197,197,0,0,1,138.4920347556002,-140.10337722286934L119.93762032014718,-121.33308383099896A170.6070045455344,170.6070045455344,0,0,0,118.70606849203092,-122.53823608639576Z" fill-rule="evenodd" style="fill: #DB3F29; stroke: #fff; opacity: 1;" id="p-type-functions"></path><path d="M138.4920347556002,-140.10337722286934A197,197,0,0,1,139.8442852249356,-138.7536518075357L121.10870357887106,-120.16418733318652A170.6070045455344,170.6070045455344,0,0,0,119.93762032014718,-121.33308383099896Z" fill-rule="evenodd" style="fill: #DB3F29; stroke: #fff; opacity: 1;" id="p-type-functions"></path><path d="M196.9302923181525,5.240225900378416A197,197,0,0,1,196.86732311430853,7.228906542931829L170.4921029920306,6.2604167077625075A170.6070045455344,170.6070045455344,0,0,0,170.54663592221556,4.538168751296891Z" fill-rule="evenodd" style="fill: #1DC690; stroke: #fff; opacity: 1;" id="p-type-logs"></path><path d="M196.86732311430853,7.228906542931829A197,197,0,0,1,196.784271932755,9.216849781543525L170.42017855899093,7.9820260536817464A170.6070045455344,170.6070045455344,0,0,0,170.4921029920306,6.2604167077625075Z" fill-rule="evenodd" style="fill: #1DC690; stroke: #fff; opacity: 1;" id="p-type-logs"></path><path d="M196.784271932755,9.216849781543525A197,197,0,0,1,196.68114724534973,11.203852830747772L170.33086995994063,9.702821171689767A170.6070045455344,170.6070045455344,0,0,0,170.42017855899093,7.9820260536817464Z" fill-rule="evenodd" style="fill: #1DC690; stroke: #fff; opacity: 1;" id="p-type-logs"></path><path d="M196.68114724534973,11.203852830747772A197,197,0,0,1,196.55795957160228,13.189713000985368L170.22418630504222,11.422626527479213A170.6070045455344,170.6070045455344,0,0,0,170.33086995994063,9.702821171689767Z" fill-rule="evenodd" style="fill: #1DC690; stroke: #fff; opacity: 1;" id="p-type-logs"></path><path d="M196.55795957160228,13.189713000985368A197,197,0,0,1,196.41472147760066,15.174227719279541L170.10013847684718,13.141266687706086A170.6070045455344,170.6070045455344,0,0,0,170.22418630504222,11.422626527479213Z" fill-rule="evenodd" style="fill: #1DC690; stroke: #fff; opacity: 1;" id="p-type-logs"></path><path d="M196.41472147760066,15.174227719279541A197,197,0,0,1,196.2514475747297,17.15719454989993L169.9587391291859,14.858566337885257A170.6070045455344,170.6070045455344,0,0,0,170.10013847684718,13.141266687706086Z" fill-rule="evenodd" style="fill: #1DC690; stroke: #fff; opacity: 1;" id="p-type-logs"></path><path d="M196.2514475747297,17.15719454989993A197,197,0,0,1,196.06815451818045,19.138411215012617L169.8000026858769,16.57435030027393A170.6070045455344,170.6070045455344,0,0,0,169.9587391291859,14.858566337885257Z" fill-rule="evenodd" style="fill: #1DC690; stroke: #fff; opacity: 1;" id="p-type-logs"></path><path d="M196.06815451818045,19.138411215012617A197,197,0,0,1,195.86486100525119,21.117675615313974L169.6239453392556,18.28844355174108A170.6070045455344,170.6070045455344,0,0,0,169.8000026858769,16.57435030027393Z" fill-rule="evenodd" style="fill: #1DC690; stroke: #fff; opacity: 1;" id="p-type-logs"></path><path d="M195.86486100525119,21.117675615313974A197,197,0,0,1,195.6415877734404,23.09478585064638L169.4305850485224,20.00067124162117A170.6070045455344,170.6070045455344,0,0,0,169.6239453392556,18.28844355174108Z" fill-rule="evenodd" style="fill: #1DC690; stroke: #fff; opacity: 1;" id="p-type-logs"></path><path d="M195.6415877734404,23.09478585064638A197,197,0,0,1,195.39835759833105,25.069540240593568L169.21994153791078,21.71085870955028A170.6070045455344,170.6070045455344,0,0,0,169.4305850485224,20.00067124162117Z" fill-rule="evenodd" style="fill: #1DC690; stroke: #fff; opacity: 1;" id="p-type-logs"></path><path d="M195.39835759833105,25.069540240593568A197,197,0,0,1,195.1351952912676,27.041737345053573L168.9920362946753,23.418831503282753A170.6070045455344,170.6070045455344,0,0,0,169.21994153791078,21.71085870955028Z" fill-rule="evenodd" style="fill: #1DC690; stroke: #fff; opacity: 1;" id="p-type-logs"></path><path d="M195.1351952912676,27.041737345053573A197,197,0,0,1,194.8521276968248,29.011175984787183L168.74689256689967,25.12441539648673A170.6070045455344,170.6070045455344,0,0,0,168.9920362946753,23.418831503282753Z" fill-rule="evenodd" style="fill: #1DC690; stroke: #fff; opacity: 1;" id="p-type-logs"></path><path d="M194.8521276968248,29.011175984787183A197,197,0,0,1,194.54918369006953,30.97765526193975L168.48453536112538,26.82743640651651A170.6070045455344,170.6070045455344,0,0,0,168.74689256689967,25.12441539648673Z" fill-rule="evenodd" style="fill: #1DC690; stroke: #fff; opacity: 1;" id="p-type-logs"></path><path d="M194.54918369006953,30.97765526193975A197,197,0,0,1,194.22639417361532,32.94097458053432L168.20499143980075,28.527720812160165A170.6070045455344,170.6070045455344,0,0,0,168.48453536112538,26.82743640651651Z" fill-rule="evenodd" style="fill: #1DC690; stroke: #fff; opacity: 1;" id="p-type-logs"></path><path d="M194.22639417361532,32.94097458053432A197,197,0,0,1,193.88379207446988,34.90093366693397L167.9082893185509,30.2250951713604A170.6070045455344,170.6070045455344,0,0,0,168.20499143980075,28.527720812160165Z" fill-rule="evenodd" style="fill: #1DC690; stroke: #fff; opacity: 1;" id="p-type-logs"></path><path d="M193.88379207446988,34.90093366693397A197,197,0,0,1,193.52141234067648,36.85733259027124L167.5944592632692,31.919386338906996A170.6070045455344,170.6070045455344,0,0,0,167.9082893185509,30.2250951713604Z" fill-rule="evenodd" style="fill: #1DC690; stroke: #fff; opacity: 1;" id="p-type-logs"></path><path d="M193.52141234067648,36.85733259027124A197,197,0,0,1,193.1392919377488,38.80997178284262L167.26353328702947,33.61042148409894A170.6070045455344,170.6070045455344,0,0,0,167.5944592632692,31.919386338906996Z" fill-rule="evenodd" style="fill: #1DC690; stroke: #fff; opacity: 1;" id="p-type-logs"></path><path d="M193.1392919377488,38.80997178284262A197,197,0,0,1,192.73746984490035,40.758652060465984L166.9155451468209,35.298028108374496A170.6070045455344,170.6070045455344,0,0,0,167.26353328702947,33.61042148409894Z" fill-rule="evenodd" style="fill: #1DC690; stroke: #fff; opacity: 1;" id="p-type-logs"></path><path d="M192.73746984490035,40.758652060465984A197,197,0,0,1,192.31598705106816,42.703174642798935L166.55053034010416,36.982034062907346A170.6070045455344,170.6070045455344,0,0,0,166.9155451468209,35.298028108374496Z" fill-rule="evenodd" style="fill: #1DC690; stroke: #fff; opacity: 1;" id="p-type-logs"></path><path d="M192.31598705106816,42.703174642798935A197,197,0,0,1,191.87488655073165,44.64334117361588L166.1685261011907,38.66226756616715A170.6070045455344,170.6070045455344,0,0,0,166.55053034010416,36.982034062907346Z" fill-rule="evenodd" style="fill: #1DC690; stroke: #fff; opacity: 1;" id="p-type-logs"></path><path d="M191.87488655073165,44.64334117361588A197,197,0,0,1,191.41421333952678,46.57895374104192L165.76957139744437,40.33855722144252A170.6070045455344,170.6070045455344,0,0,0,166.1685261011907,38.66226756616715Z" fill-rule="evenodd" style="fill: #1DC690; stroke: #fff; opacity: 1;" id="p-type-logs"></path><path d="M191.41421333952678,46.57895374104192A197,197,0,0,1,190.93401440965638,48.509814897741364L165.35370692530648,42.010732034324846A170.6070045455344,170.6070045455344,0,0,0,165.76957139744437,40.33855722144252Z" fill-rule="evenodd" style="fill: #1DC690; stroke: #fff; opacity: 1;" id="p-type-logs"></path><path d="M190.93401440965638,48.509814897741364A197,197,0,0,1,190.43433874509626,50.43572768105888L164.92097510614454,43.678621430151004A170.6070045455344,170.6070045455344,0,0,0,165.35370692530648,42.010732034324846Z" fill-rule="evenodd" style="fill: #1DC690; stroke: #fff; opacity: 1;" id="p-type-logs"></path><path d="M190.43433874509626,50.43572768105888A197,197,0,0,1,189.91523731659873,52.35649563311119L164.4714200819249,45.34205527140331A170.6070045455344,170.6070045455344,0,0,0,164.92097510614454,43.678621430151004Z" fill-rule="evenodd" style="fill: #1DC690; stroke: #fff; opacity: 1;" id="p-type-logs"></path><path d="M189.91523731659873,52.35649563311119A197,197,0,0,1,189.376763076493,54.27192282082728L164.00508771070983,47.00086387506483A170.6070045455344,170.6070045455344,0,0,0,164.4714200819249,45.34205527140331Z" fill-rule="evenodd" style="fill: #1DC690; stroke: #fff; opacity: 1;" id="p-type-logs"></path><path d="M189.376763076493,54.27192282082728A197,197,0,0,1,188.81897095328387,56.18181385593511L163.52202556197986,48.65487802992837A170.6070045455344,170.6070045455344,0,0,0,164.00508771070983,47.00086387506483Z" fill-rule="evenodd" style="fill: #1DC690; stroke: #fff; opacity: 1;" id="p-type-logs"></path><path d="M188.81897095328387,56.18181385593511A197,197,0,0,1,188.24191784604832,58.085973914892655L163.02228291178113,50.30392901385728A170.6070045455344,170.6070045455344,0,0,0,163.52202556197986,48.65487802992837Z" fill-rule="evenodd" style="fill: #1DC690; stroke: #fff; opacity: 1;" id="p-type-logs"></path><path d="M188.24191784604832,58.085973914892655A197,197,0,0,1,187.64566261863163,59.98420875876146L162.505910737699,51.94784861099645A170.6070045455344,170.6070045455344,0,0,0,163.02228291178113,50.30392901385728Z" fill-rule="evenodd" style="fill: #1DC690; stroke: #fff; opacity: 1;" id="p-type-logs"></path><path d="M187.64566261863163,59.98420875876146A197,197,0,0,1,187.03026609364255,61.876324753020484L161.9729617136578,53.58646912893162A170.6070045455344,170.6070045455344,0,0,0,162.505910737699,51.94784861099645Z" fill-rule="evenodd" style="fill: #1DC690; stroke: #fff; opacity: 1;" id="p-type-logs"></path><path d="M187.03026609364255,61.876324753020484A197,197,0,0,1,186.39579104624926,63.76212888731827L161.42349020454787,55.219623415795226A170.6070045455344,170.6070045455344,0,0,0,161.9729617136578,53.58646912893162Z" fill-rule="evenodd" style="fill: #1DC690; stroke: #fff; opacity: 1;" id="p-type-logs"></path><path d="M186.39579104624926,63.76212888731827A197,197,0,0,1,185.74230219777544,65.64142879516156L160.85755226067968,56.84714487731727A170.6070045455344,170.6070045455344,0,0,0,161.42349020454787,55.219623415795226Z" fill-rule="evenodd" style="fill: #1DC690; stroke: #fff; opacity: 1;" id="p-type-logs"></path><path d="M185.74230219777544,65.64142879516156A197,197,0,0,1,185.0698662090985,67.51403277353806L160.27520561206657,58.468867493819126A170.6070045455344,170.6070045455344,0,0,0,160.85755226067968,56.84714487731727Z" fill-rule="evenodd" style="fill: #1DC690; stroke: #fff; opacity: 1;" id="p-type-logs"></path><path d="M185.0698662090985,67.51403277353806A197,197,0,0,1,184.37855167384959,69.37974980247171L159.67650966253558,60.084625837148884A170.6070045455344,170.6070045455344,0,0,0,160.27520561206657,58.468867493819126Z" fill-rule="evenodd" style="fill: #1DC690; stroke: #fff; opacity: 1;" id="p-type-logs"></path><path d="M184.37855167384959,69.37974980247171A197,197,0,0,1,183.66842911141637,71.23838956450808L159.0615254836679,61.69425508755626A170.6070045455344,170.6070045455344,0,0,0,159.67650966253558,60.084625837148884Z" fill-rule="evenodd" style="fill: #1DC690; stroke: #fff; opacity: 1;" id="p-type-logs"></path><path d="M183.66842911141637,71.23838956450808A197,197,0,0,1,182.9395709597497,73.08976246412837L158.4303158085692,63.29759105050548A170.6070045455344,170.6070045455344,0,0,0,159.0615254836679,61.69425508755626Z" fill-rule="evenodd" style="fill: #1DC690; stroke: #fff; opacity: 1;" id="p-type-logs"></path><path d="M182.9395709597497,73.08976246412837A197,197,0,0,1,182.1920515679742,74.93367964708943L157.78294502547013,64.8944701734244A170.6070045455344,170.6070045455344,0,0,0,158.4303158085692,63.29759105050548Z" fill-rule="evenodd" style="fill: #1DC690; stroke: #fff; opacity: 1;" id="p-type-logs"></path><path d="M182.1920515679742,74.93367964708943A197,197,0,0,1,181.42594718880437,76.76995301968844L157.11947917115853,66.48472956238807A170.6070045455344,170.6070045455344,0,0,0,157.78294502547013,64.8944701734244Z" fill-rule="evenodd" style="fill: #1DC690; stroke: #fff; opacity: 1;" id="p-type-logs"></path><path d="M181.42594718880437,76.76995301968844A197,197,0,0,1,180.64133597076585,78.59839526794994L156.43998592424293,68.06820699873525A170.6070045455344,170.6070045455344,0,0,0,157.11947917115853,66.48472956238807Z" fill-rule="evenodd" style="fill: #1DC690; stroke: #fff; opacity: 1;" id="p-type-logs"></path><path d="M180.64133597076585,78.59839526794994A197,197,0,0,1,179.83829795022402,80.41881987673318L155.74453459824892,69.64474095561589A170.6070045455344,170.6070045455344,0,0,0,156.43998592424293,68.06820699873525Z" fill-rule="evenodd" style="fill: #1DC690; stroke: #fff; opacity: 1;" id="p-type-logs"></path><path d="M179.83829795022402,80.41881987673318A197,197,0,0,1,179.01691504321943,82.2310411487582L155.03319613454863,71.2141706144681A170.6070045455344,170.6070045455344,0,0,0,155.74453459824892,69.64474095561589Z" fill-rule="evenodd" style="fill: #1DC690; stroke: #fff; opacity: 1;" id="p-type-logs"></path><path d="M179.01691504321943,82.2310411487582A197,197,0,0,1,178.1772710371118,84.03487422354836L154.30604309512412,72.77633588142298A170.6070045455344,170.6070045455344,0,0,0,155.03319613454863,71.2141706144681Z" fill-rule="evenodd" style="fill: #1DC690; stroke: #fff; opacity: 1;" id="p-type-logs"></path><path d="M178.1772710371118,84.03487422354836A197,197,0,0,1,177.31945158203325,85.8301350962875L153.56314965516555,74.3310774036353A170.6070045455344,170.6070045455344,0,0,0,154.30604309512412,72.77633588142298Z" fill-rule="evenodd" style="fill: #1DC690; stroke: #fff; opacity: 1;" id="p-type-logs"></path><path d="M177.31945158203325,85.8301350962875A197,197,0,0,1,176.44354418215102,87.61664063658984L152.80459159550477,75.87823658553877A170.6070045455344,170.6070045455344,0,0,0,153.56314965516555,74.3310774036353Z" fill-rule="evenodd" style="fill: #1DC690; stroke: #fff; opacity: 1;" id="p-type-logs"></path><path d="M176.44354418215102,87.61664063658984A197,197,0,0,1,175.54963818674153,89.39420860718067L152.03044629488494,77.41765560502398A170.6070045455344,170.6070045455344,0,0,0,152.80459159550477,75.87823658553877Z" fill-rule="evenodd" style="fill: #1DC690; stroke: #fff; opacity: 1;" id="p-type-logs"></path><path d="M175.54963818674153,89.39420860718067A197,197,0,0,1,174.6378247810762,91.16265768248603L151.24079272206757,78.94917742953751A170.6070045455344,170.6070045455344,0,0,0,152.03044629488494,77.41765560502398Z" fill-rule="evenodd" style="fill: #1DC690; stroke: #fff; opacity: 1;" id="p-type-logs"></path><path d="M174.6378247810762,91.16265768248603A197,197,0,0,1,173.70819697711954,92.92180746712923L150.43571142777677,80.47264583210045A170.6070045455344,170.6070045455344,0,0,0,151.24079272206757,78.94917742953751Z" fill-rule="evenodd" style="fill: #1DC690; stroke: #fff; opacity: 1;" id="p-type-logs"></path><path d="M173.70819697711954,92.92180746712923A197,197,0,0,1,172.76084960404157,94.67147851433256L149.61528453648276,81.98790540724465A170.6070045455344,170.6070045455344,0,0,0,150.43571142777677,80.47264583210045Z" fill-rule="evenodd" style="fill: #1DC690; stroke: #fff; opacity: 1;" id="p-type-logs"></path><path d="M172.76084960404157,94.67147851433256A197,197,0,0,1,171.79587929854418,96.41149234422232L148.7795957380244,83.49480158686545A170.6070045455344,170.6070045455344,0,0,0,149.61528453648276,81.98790540724465Z" fill-rule="evenodd" style="fill: #1DC690; stroke: #fff; opacity: 1;" id="p-type-logs"></path><path d="M171.79587929854418,96.41149234422232A197,197,0,0,1,170.81338449500367,98.14167146203509L147.92873027907214,84.99318065598865A170.6070045455344,170.6070045455344,0,0,0,148.7795957380244,83.49480158686545Z" fill-rule="evenodd" style="fill: #1DC690; stroke: #fff; opacity: 1;" id="p-type-logs"></path><path d="M170.81338449500367,98.14167146203509A197,197,0,0,1,169.8134654154297,99.8618393762235L147.0627749544323,86.4828897684507A170.6070045455344,170.6070045455344,0,0,0,147.92873027907214,84.99318065598865Z" fill-rule="evenodd" style="fill: #1DC690; stroke: #fff; opacity: 1;" id="p-type-logs"></path><path d="M169.8134654154297,99.8618393762235A197,197,0,0,1,168.79622405924164,101.5718206164598L146.18181809819333,87.96377696249017A170.6070045455344,170.6070045455344,0,0,0,147.0627749544323,86.4828897684507Z" fill-rule="evenodd" style="fill: #1DC690; stroke: #fff; opacity: 1;" id="p-type-logs"></path><path d="M168.79622405924164,101.5718206164598A197,197,0,0,1,167.76176419286415,103.2714407515352L145.28594957471495,89.435691176249A170.6070045455344,170.6070045455344,0,0,0,146.18181809819333,87.96377696249017Z" fill-rule="evenodd" style="fill: #1DC690; stroke: #fff; opacity: 1;" id="p-type-logs"></path><path d="M167.76176419286415,103.2714407515352A197,197,0,0,1,166.71019133914197,104.96052640715305L144.37526076946145,90.89848226318196A170.6070045455344,170.6070045455344,0,0,0,145.28594957471495,89.435691176249Z" fill-rule="evenodd" style="fill: #1DC690; stroke: #fff; opacity: 1;" id="p-type-logs"></path><path d="M166.71019133914197,104.96052640715305A197,197,0,0,1,165.64161276657592,106.63890528361452L143.44984457967954,92.35200100737278A170.6070045455344,170.6070045455344,0,0,0,144.37526076946145,90.89848226318196Z" fill-rule="evenodd" style="fill: #1DC690; stroke: #fff; opacity: 1;" id="p-type-logs"></path><path d="M165.64161276657592,106.63890528361452A197,197,0,0,1,164.55613747838063,108.30640617339442L142.5097954049222,93.79609913875531A170.6070045455344,170.6070045455344,0,0,0,143.44984457967954,92.35200100737278Z" fill-rule="evenodd" style="fill: #1DC690; stroke: #fff; opacity: 1;" id="p-type-logs"></path><path d="M164.55613747838063,108.30640617339442A197,197,0,0,1,163.4538762013654,109.96285897860565L141.55520913741913,95.23062934823824A170.6070045455344,170.6070045455344,0,0,0,142.5097954049222,93.79609913875531Z" fill-rule="evenodd" style="fill: #1DC690; stroke: #fff; opacity: 1;" id="p-type-logs"></path><path d="M163.4538762013654,109.96285897860565A197,197,0,0,1,162.33494137463916,111.60809472835052L140.58618315229506,96.65544530273164A170.6070045455344,170.6070045455344,0,0,0,141.55520913741913,95.23062934823824Z" fill-rule="evenodd" style="fill: #1DC690; stroke: #fff; opacity: 1;" id="p-type-logs"></path><path d="M162.33494137463916,111.60809472835052A197,197,0,0,1,161.19944713814095,113.24194559595708L139.6028162976368,98.07040166007415A170.6070045455344,170.6070045455344,0,0,0,140.58618315229506,96.65544530273164Z" fill-rule="evenodd" style="fill: #1DC690; stroke: #fff; opacity: 1;" id="p-type-logs"></path><path d="M161.19944713814095,113.24194559595708A197,197,0,0,1,160.0475093209966,114.86424491609874L138.60520888440976,99.47535408385906A170.6070045455344,170.6070045455344,0,0,0,139.6028162976368,98.07040166007415Z" fill-rule="evenodd" style="fill: #1DC690; stroke: #fff; opacity: 1;" id="p-type-logs"></path><path d="M160.0475093209966,114.86424491609874A197,197,0,0,1,158.87924542970333,116.47482720179536L137.59346267622576,100.87015925815756A170.6070045455344,170.6070045455344,0,0,0,138.60520888440976,99.47535408385906Z" fill-rule="evenodd" style="fill: #1DC690; stroke: #fff; opacity: 1;" id="p-type-logs"></path><path d="M64.2466576231933,186.2293397514156A197,197,0,0,1,62.36250989354533,186.86871691050231L54.00751781156864,161.83305601709773A170.6070045455344,170.6070045455344,0,0,0,55.63923760992655,161.27933915472912Z" fill-rule="evenodd" style="fill: #D7A449; stroke: #fff; opacity: 1;" id="p-type-tokenTransfers"></path><path d="M62.36250989354533,186.86871691050231A197,197,0,0,1,60.47200070932084,187.4890320264412L52.37028883194244,162.3702646658523A170.6070045455344,170.6070045455344,0,0,0,54.00751781156864,161.83305601709773Z" fill-rule="evenodd" style="fill: #D7A449; stroke: #fff; opacity: 1;" id="p-type-tokenTransfers"></path><path d="M60.47200070932084,187.4890320264412A197,197,0,0,1,58.5753229169643,188.09022182233014L50.72771768096789,162.8909103015881A170.6070045455344,170.6070045455344,0,0,0,52.37028883194244,162.3702646658523Z" fill-rule="evenodd" style="fill: #D7A449; stroke: #fff; opacity: 1;" id="p-type-tokenTransfers"></path><path d="M58.5753229169643,188.09022182233014A197,197,0,0,1,56.67266999216558,188.6722249721964L49.079971913507435,163.39493981445483A170.6070045455344,170.6070045455344,0,0,0,50.72771768096789,162.8909103015881Z" fill-rule="evenodd" style="fill: #D7A449; stroke: #fff; opacity: 1;" id="p-type-tokenTransfers"></path><path d="M56.67266999216558,188.6722249721964A197,197,0,0,1,54.764236020123874,189.23498210725248L47.42721961227408,163.88230178957434A170.6070045455344,170.6070045455344,0,0,0,49.079971913507435,163.39493981445483Z" fill-rule="evenodd" style="fill: #D7A449; stroke: #fff; opacity: 1;" id="p-type-tokenTransfers"></path><path d="M54.764236020123874,189.23498210725248A197,197,0,0,1,52.85021567574958,189.778435821952L45.7696293706857,164.35294651228514A170.6070045455344,170.6070045455344,0,0,0,47.42721961227408,163.88230178957434Z" fill-rule="evenodd" style="fill: #D7A449; stroke: #fff; opacity: 1;" id="p-type-tokenTransfers"></path><path d="M52.85021567574958,189.778435821952A197,197,0,0,1,50.93080420380594,190.30253067984563L44.10737027566722,164.80682597321382A170.6070045455344,170.6070045455344,0,0,0,45.7696293706857,164.35294651228514Z" fill-rule="evenodd" style="fill: #D7A449; stroke: #fff; opacity: 1;" id="p-type-tokenTransfers"></path><path d="M50.93080420380594,190.30253067984563A197,197,0,0,1,49.00619739899257,190.80721321923596L42.440611890402444,165.24389387317228A170.6070045455344,170.6070045455344,0,0,0,44.10737027566722,164.80682597321382Z" fill-rule="evenodd" style="fill: #D7A449; stroke: #fff; opacity: 1;" id="p-type-tokenTransfers"></path><path d="M49.00619739899257,190.80721321923596A197,197,0,0,1,47.07659158597293,191.29243195863108L40.76952423703731,165.66410562788073A170.6070045455344,170.6070045455344,0,0,0,42.440611890402444,165.24389387317228Z" fill-rule="evenodd" style="fill: #D7A449; stroke: #fff; opacity: 1;" id="p-type-tokenTransfers"></path><path d="M47.07659158597293,191.29243195863108A197,197,0,0,1,45.142183599347646,191.75813740199604L39.09427777933631,166.06741837251548A170.6070045455344,170.6070045455344,0,0,0,40.76952423703731,165.66410562788073Z" fill-rule="evenodd" style="fill: #D7A449; stroke: #fff; opacity: 1;" id="p-type-tokenTransfers"></path><path d="M45.142183599347646,191.75813740199604A197,197,0,0,1,43.20317076357594,192.20428204380175L37.41504340529391,166.45379096608156A170.6070045455344,170.6070045455344,0,0,0,39.09427777933631,166.06741837251548Z" fill-rule="evenodd" style="fill: #D7A449; stroke: #fff; opacity: 1;" id="p-type-tokenTransfers"></path><path d="M43.20317076357594,192.20428204380175A197,197,0,0,1,41.25975087284696,192.63082037387113L35.73199240970263,166.8231839956094A170.6070045455344,170.6070045455344,0,0,0,37.41504340529391,166.45379096608156Z" fill-rule="evenodd" style="fill: #D7A449; stroke: #fff; opacity: 1;" id="p-type-tokenTransfers"></path><path d="M41.25975087284696,192.63082037387113A197,197,0,0,1,39.31212217090329,193.03770888202124L34.0452964766797,167.17555978017535A170.6070045455344,170.6070045455344,0,0,0,35.73199240970263,166.8231839956094Z" fill-rule="evenodd" style="fill: #D7A449; stroke: #fff; opacity: 1;" id="p-type-tokenTransfers"></path><path d="M39.31212217090329,193.03770888202124A197,197,0,0,1,37.36048333081854,193.42490606250178L32.35512766215392,167.5108823747452A170.6070045455344,170.6070045455344,0,0,0,34.0452964766797,167.17555978017535Z" fill-rule="evenodd" style="fill: #D7A449; stroke: #fff; opacity: 1;" id="p-type-tokenTransfers"></path><path d="M37.36048333081854,193.42490606250178A197,197,0,0,1,35.405033434731216,193.792372418229L30.66165837631465,167.82911757384107A170.6070045455344,170.6070045455344,0,0,0,32.35512766215392,167.5108823747452Z" fill-rule="evenodd" style="fill: #D7A449; stroke: #fff; opacity: 1;" id="p-type-tokenTransfers"></path><path d="M35.405033434731216,193.792372418229A197,197,0,0,1,33.44597195353675,194.14007046481476L28.96506136602467,168.13023291503055A170.6070045455344,170.6070045455344,0,0,0,30.66165837631465,167.82911757384107Z" fill-rule="evenodd" style="fill: #D7A449; stroke: #fff; opacity: 1;" id="p-type-tokenTransfers"></path><path d="M33.44597195353675,194.14007046481476A197,197,0,0,1,31.48349872653998,194.46796473439002L27.26550969719865,168.4141976822381A170.6070045455344,170.6070045455344,0,0,0,28.96506136602467,168.13023291503055Z" fill-rule="evenodd" style="fill: #D7A449; stroke: #fff; opacity: 1;" id="p-type-tokenTransfers"></path><path d="M31.48349872653998,194.46796473439002A197,197,0,0,1,29.51781394107001,194.77602177922304L25.563176737149085,168.68098290887826A170.6070045455344,170.6070045455344,0,0,0,27.26550969719865,168.4141976822381Z" fill-rule="evenodd" style="fill: #D7A449; stroke: #fff; opacity: 1;" id="p-type-tokenTransfers"></path><path d="M29.51781394107001,194.77602177922304A197,197,0,0,1,27.54911811205953,195.06421017513128L23.85823613690155,168.93056138081067A170.6070045455344,170.6070045455344,0,0,0,25.563176737149085,168.68098290887826Z" fill-rule="evenodd" style="fill: #D7A449; stroke: #fff; opacity: 1;" id="p-type-tokenTransfers"></path><path d="M27.54911811205953,195.06421017513128A197,197,0,0,1,25.57761206159081,195.3325005246868L22.15086181348091,169.16290763911593A170.6070045455344,170.6070045455344,0,0,0,23.85823613690155,168.93056138081067Z" fill-rule="evenodd" style="fill: #D7A449; stroke: #fff; opacity: 1;" id="p-type-tokenTransfers"></path><path d="M25.57761206159081,195.3325005246868A197,197,0,0,1,23.603496898410235,195.58086546021505L20.44122793217047,169.3779979826927A170.6070045455344,170.6070045455344,0,0,0,22.15086181348091,169.16290763911593Z" fill-rule="evenodd" style="fill: #D7A449; stroke: #fff; opacity: 1;" id="p-type-tokenTransfers"></path><path d="M23.603496898410235,195.58086546021505A197,197,0,0,1,21.626973997413746,195.8092796465867L18.729508888745794,169.5758104706753A170.6070045455344,170.6070045455344,0,0,0,20.44122793217047,169.3779979826927Z" fill-rule="evenodd" style="fill: #D7A449; stroke: #fff; opacity: 1;" id="p-type-tokenTransfers"></path><path d="M21.626973997413746,195.8092796465867A197,197,0,0,1,19.648244979104994,196.01771978380188L17.01587929168497,169.75632492467196A170.6070045455344,170.6070045455344,0,0,0,18.729508888745794,169.5758104706753Z" fill-rule="evenodd" style="fill: #D7A449; stroke: #fff; opacity: 1;" id="p-type-tokenTransfers"></path><path d="M19.648244979104994,196.01771978380188A197,197,0,0,1,17.667511689028537,196.20616460936705L15.300513944357228,169.91952293082312A170.6070045455344,170.6070045455344,0,0,0,17.01587929168497,169.75632492467196Z" fill-rule="evenodd" style="fill: #D7A449; stroke: #fff; opacity: 1;" id="p-type-tokenTransfers"></path><path d="M17.667511689028537,196.20616460936705A197,197,0,0,1,15.684976177180024,196.37459490046388L13.583587827191632,170.06538784167978A170.6070045455344,170.6070045455344,0,0,0,15.300513944357228,169.91952293082312Z" fill-rule="evenodd" style="fill: #D7A449; stroke: #fff; opacity: 1;" id="p-type-tokenTransfers"></path><path d="M15.684976177180024,196.37459490046388A197,197,0,0,1,13.700840677395567,196.52299347591014L11.865276079827757,170.19390477790168A170.6070045455344,170.6070045455344,0,0,0,13.583587827191632,170.06538784167978Z" fill-rule="evenodd" style="fill: #D7A449; stroke: #fff; opacity: 1;" id="p-type-tokenTransfers"></path><path d="M13.700840677395567,196.52299347591014A197,197,0,0,1,11.715307586722314,196.65134519791235L10.14575398325009,170.30506062977506A170.6070045455344,170.6070045455344,0,0,0,11.865276079827757,170.19390477790168Z" fill-rule="evenodd" style="fill: #D7A449; stroke: #fff; opacity: 1;" id="p-type-tokenTransfers"></path><path d="M11.715307586722314,196.65134519791235A197,197,0,0,1,9.728579444772421,196.7596369736099L8.425196941908025,170.39884405855008A170.6070045455344,170.6070045455344,0,0,0,10.14575398325009,170.30506062977506Z" fill-rule="evenodd" style="fill: #D7A449; stroke: #fff; opacity: 1;" id="p-type-tokenTransfers"></path><path d="M9.728579444772421,196.7596369736099A197,197,0,0,1,7.740858913062435,196.8478577564106L6.703780465823265,170.47524549759723A170.6070045455344,170.6070045455344,0,0,0,8.425196941908025,170.39884405855008Z" fill-rule="evenodd" style="fill: #D7A449; stroke: #fff; opacity: 1;" id="p-type-tokenTransfers"></path><path d="M7.740858913062435,196.8478577564106A197,197,0,0,1,5.752348754340276,196.91599854711765L4.98168015268645,170.5342571533835A170.6070045455344,170.6070045455344,0,0,0,6.703780465823265,170.47524549759723Z" fill-rule="evenodd" style="fill: #D7A449; stroke: #fff; opacity: 1;" id="p-type-tokenTransfers"></path><path d="M5.752348754340276,196.91599854711765A197,197,0,0,1,3.763251811901883,196.96405239484747L3.2590716699448485,170.5758730062671A170.6070045455344,170.6070045455344,0,0,0,4.98168015268645,170.5342571533835Z" fill-rule="evenodd" style="fill: #D7A449; stroke: #fff; opacity: 1;" id="p-type-tokenTransfers"></path><path d="M3.763251811901883,196.96405239484747A197,197,0,0,1,1.7737709888996342,196.9920143977388L1.5361307368829287,170.6000888111117A170.6070045455344,170.6070045455344,0,0,0,3.2590716699448485,170.5758730062671Z" fill-rule="evenodd" style="fill: #D7A449; stroke: #fff; opacity: 1;" id="p-type-tokenTransfers"></path><path d="M1.7737709888996342,196.9920143977388A197,197,0,0,1,-0.21589077235532977,196.99988170345284L-0.1869668933023588,170.6069020977194A170.6070045455344,170.6070045455344,0,0,0,1.5361307368829287,170.6000888111117Z" fill-rule="evenodd" style="fill: #D7A449; stroke: #fff; opacity: 1;" id="p-type-tokenTransfers"></path><path d="M-0.21589077235532977,196.99988170345284A197,197,0,0,1,-2.2055305110947763,196.98765350946397L-1.910045451429753,170.59631217108262A170.6070045455344,170.6070045455344,0,0,0,-0.1869668933023588,170.6069020977194Z" fill-rule="evenodd" style="fill: #D7A449; stroke: #fff; opacity: 1;" id="p-type-tokenTransfers"></path><path d="M-2.2055305110947763,196.98765350946397A197,197,0,0,1,-4.19494526879694,196.9553310631418L-3.63292917026349,170.56832011145517A170.6070045455344,170.6070045455344,0,0,0,-1.910045451429753,170.59631217108262Z" fill-rule="evenodd" style="fill: #D7A449; stroke: #fff; opacity: 1;" id="p-type-tokenTransfers"></path><path d="M-4.19494526879694,196.9553310631418A197,197,0,0,1,-6.183932109889844,196.902917661624L-5.355442302442908,170.522928774242A170.6070045455344,170.6070045455344,0,0,0,-3.63292917026349,170.56832011145517Z" fill-rule="evenodd" style="fill: #D7A449; stroke: #fff; opacity: 1;" id="p-type-tokenTransfers"></path><path d="M-6.183932109889844,196.902917661624A197,197,0,0,1,-8.172288142452295,196.83041865147962L-7.077409138410029,170.46014278970773A170.6070045455344,170.6070045455344,0,0,0,-5.355442302442908,170.522928774242Z" fill-rule="evenodd" style="fill: #D7A449; stroke: #fff; opacity: 1;" id="p-type-tokenTransfers"></path><path d="M-8.172288142452295,196.83041865147962A197,197,0,0,1,-10.159810538910406,196.7378414281641L-8.79865402433328,170.37996856250467A170.6070045455344,170.6070045455344,0,0,0,-7.077409138410029,170.46014278970773Z" fill-rule="evenodd" style="fill: #D7A449; stroke: #fff; opacity: 1;" id="p-type-tokenTransfers"></path><path d="M-10.159810538910406,196.7378414281641A197,197,0,0,1,-12.146296556727572,196.6251954352647L-10.519001380025532,170.28241427101926A170.6070045455344,170.6070045455344,0,0,0,-8.79865402433328,170.37996856250467Z" fill-rule="evenodd" style="fill: #D7A449; stroke: #fff; opacity: 1;" id="p-type-tokenTransfers"></path><path d="M-12.146296556727572,196.6251954352647A197,197,0,0,1,-14.131543559085765,196.49249216353704L-12.238275716854632,170.1674898665378A170.6070045455344,170.6070045455344,0,0,0,-10.519001380025532,170.28241427101926Z" fill-rule="evenodd" style="fill: #D7A449; stroke: #fff; opacity: 1;" id="p-type-tokenTransfers"></path><path d="M-14.131543559085765,196.49249216353704A197,197,0,0,1,-16.115349035556033,196.33974514973326L-13.956301655644577,170.03520707223151A170.6070045455344,170.6070045455344,0,0,0,-12.238275716854632,170.1674898665378Z" fill-rule="evenodd" style="fill: #D7A449; stroke: #fff; opacity: 1;" id="p-type-tokenTransfers"></path><path d="M-16.115349035556033,196.33974514973326A197,197,0,0,1,-18.09751062275614,196.16696997522092L-15.672903944565553,169.88557938196055A170.6070045455344,170.6070045455344,0,0,0,-13.956301655644577,170.03520707223151Z" fill-rule="evenodd" style="fill: #D7A449; stroke: #fff; opacity: 1;" id="p-type-tokenTransfers"></path><path d="M-18.09751062275614,196.16696997522092A197,197,0,0,1,-20.077826124993155,195.9741842643937L-17.38790747701095,169.71862205889755A170.6070045455344,170.6070045455344,0,0,0,-15.672903944565553,169.88557938196055Z" fill-rule="evenodd" style="fill: #D7A449; stroke: #fff; opacity: 1;" id="p-type-tokenTransfers"></path><path d="M-20.077826124993155,195.9741842643937A197,197,0,0,1,-22.056093534888998,195.76140768287357L-19.101137309459588,169.53435213397069A170.6070045455344,170.6070045455344,0,0,0,-17.38790747701095,169.71862205889755Z" fill-rule="evenodd" style="fill: #D7A449; stroke: #fff; opacity: 1;" id="p-type-tokenTransfers"></path><path d="M-22.056093534888998,195.76140768287357A197,197,0,0,1,-24.032111053986707,195.5286619355046L-20.812418679321308,169.33278840412638A170.6070045455344,170.6070045455344,0,0,0,-19.101137309459588,169.53435213397069Z" fill-rule="evenodd" style="fill: #D7A449; stroke: #fff; opacity: 1;" id="p-type-tokenTransfers"></path><path d="M-24.032111053986707,195.5286619355046A197,197,0,0,1,-26.005677113335462,195.27597076413917L-22.521577022764077,169.11395143041187A170.6070045455344,170.6070045455344,0,0,0,-20.812418679321308,169.33278840412638Z" fill-rule="evenodd" style="fill: #D7A449; stroke: #fff; opacity: 1;" id="p-type-tokenTransfers"></path><path d="M-26.005677113335462,195.27597076413917A197,197,0,0,1,-27.97659039405214,195.0033599452159L-24.22843799252085,168.87786353587782A170.6070045455344,170.6070045455344,0,0,0,-22.521577022764077,169.11395143041187Z" fill-rule="evenodd" style="fill: #D7A449; stroke: #fff; opacity: 1;" id="p-type-tokenTransfers"></path><path d="M-27.97659039405214,195.0033599452159A197,197,0,0,1,-29.944649847857395,194.7108572871303L-25.93282747567433,168.6245488033012A170.6070045455344,170.6070045455344,0,0,0,-24.22843799252085,168.87786353587782Z" fill-rule="evenodd" style="fill: #D7A449; stroke: #fff; opacity: 1;" id="p-type-tokenTransfers"></path><path d="M-119.16243102940699,156.8735638377666A197,197,0,0,1,-125.61712345655988,151.75420354803813L-108.78762006370695,131.42299540367563A170.6070045455344,170.6070045455344,0,0,0,-103.1976924481775,135.85649146570572Z" fill-rule="evenodd" style="fill: #414552; stroke: #fff; opacity: 1;" id="p-type-ether"></path><path d="M-125.61712345655988,151.75420354803813A197,197,0,0,1,-131.03576905156913,147.10073837021974L-113.4803048030896,127.39297634405862A170.6070045455344,170.6070045455344,0,0,0,-108.78762006370695,131.42299540367563Z" fill-rule="evenodd" style="fill: #414552; stroke: #fff; opacity: 1;" id="p-type-ether"></path><path d="M-131.03576905156913,147.10073837021974A197,197,0,0,1,-136.1758034222313,142.35571840396796L-117.9317051444082,123.28366851182018A170.6070045455344,170.6070045455344,0,0,0,-113.4803048030896,127.39297634405862Z" fill-rule="evenodd" style="fill: #414552; stroke: #fff; opacity: 1;" id="p-type-ether"></path><path d="M-136.1758034222313,142.35571840396796A197,197,0,0,1,-140.91851480491604,137.66253006964772L-122.0390136846308,119.2192481895541A170.6070045455344,170.6070045455344,0,0,0,-117.9317051444082,123.28366851182018Z" fill-rule="evenodd" style="fill: #414552; stroke: #fff; opacity: 1;" id="p-type-ether"></path><path d="M-140.91851480491604,137.66253006964772A197,197,0,0,1,-145.25683405302337,133.07686561116634L-125.79610836321876,115.2479462752778A170.6070045455344,170.6070045455344,0,0,0,-122.0390136846308,119.2192481895541Z" fill-rule="evenodd" style="fill: #414552; stroke: #fff; opacity: 1;" id="p-type-ether"></path><path d="M-145.25683405302337,133.07686561116634A197,197,0,0,1,-149.13545450519038,128.71525243548368L-129.1550922064333,111.47067846365569A170.6070045455344,170.6070045455344,0,0,0,-125.79610836321876,115.2479462752778Z" fill-rule="evenodd" style="fill: #414552; stroke: #fff; opacity: 1;" id="p-type-ether"></path><path d="M-149.13545450519038,128.71525243548368A197,197,0,0,1,-152.19558255296,125.08199171489531L-131.80524083463504,108.32418238105402A170.6070045455344,170.6070045455344,0,0,0,-129.1550922064333,111.47067846365569Z" fill-rule="evenodd" style="fill: #414552; stroke: #fff; opacity: 1;" id="p-type-ether"></path><path d="M-152.19558255296,125.08199171489531A197,197,0,0,1,-154.94200157397307,121.6633722541461L-134.18370947626917,105.36357108217334A170.6070045455344,170.6070045455344,0,0,0,-131.80524083463504,108.32418238105402Z" fill-rule="evenodd" style="fill: #414552; stroke: #fff; opacity: 1;" id="p-type-ether"></path><path d="M-154.94200157397307,121.6633722541461A197,197,0,0,1,-156.80106936930784,119.2578074787622L-135.7937094143866,103.28029087624188A170.6070045455344,170.6070045455344,0,0,0,-134.18370947626917,105.36357108217334Z" fill-rule="evenodd" style="fill: #414552; stroke: #fff; opacity: 1;" id="p-type-ether"></path><path d="M-156.80106936930784,119.2578074787622A197,197,0,0,1,-158.22970132684262,117.35570551966435L-137.03094098227,101.633022259075A170.6070045455344,170.6070045455344,0,0,0,-135.7937094143866,103.28029087624188Z" fill-rule="evenodd" style="fill: #414552; stroke: #fff; opacity: 1;" id="p-type-ether"></path><path d="M-158.22970132684262,117.35570551966435A197,197,0,0,1,-159.44312875675735,115.70172294419864L-138.08179996222503,100.20063133130486A170.6070045455344,170.6070045455344,0,0,0,-137.03094098227,101.633022259075Z" fill-rule="evenodd" style="fill: #414552; stroke: #fff; opacity: 1;" id="p-type-ether"></path><path d="M-159.44312875675735,115.70172294419864A197,197,0,0,1,-160.55773949767706,114.14995526672828L-139.0470811791925,98.85676110184397A170.6070045455344,170.6070045455344,0,0,0,-138.08179996222503,100.20063133130486Z" fill-rule="evenodd" style="fill: #414552; stroke: #fff; opacity: 1;" id="p-type-ether"></path></g></svg>