<svg xmlns="http://www.w3.org/2000/svg" width="400" height="400" id="block-7907934"><g id="burst-container" transform="translate(200,200)"><circle r="197" style="fill: #f9f9f9; stroke: #f9f9f9; stroke-width: 3; opacity: 1;" id="circle-base"></circle><path display="none" d="M6.031385485800715e-15,-98.5A98.5,98.5,0,1,1,-6.031385485800715e-15,98.5A98.5,98.5,0,1,1,6.031385485800715e-15,-98.5Z" fill-rule="evenodd" id="p-type-root" style="stroke: #fff; opacity: 1;"></path><path d="M8.529667153919608e-15,-139.30003589374985A139.30003589374985,139.30003589374985,0,1,1,-102.5764680921356,-94.24737764915841L-72.5325161781146,-66.64295984476936A98.5,98.5,0,1,0,6.031385485800715e-15,-98.5Z" fill-rule="evenodd" style="fill: #0B1F65; stroke: #fff; opacity: 1;" id="p-type-data"></path><path d="M-102.5764680921356,-94.24737764915841A139.30003589374985,139.30003589374985,0,0,1,-1.8746963284387237,-139.28742051483377L-1.3256104865045448,-98.49107958002121A98.5,98.5,0,0,0,-72.5325161781146,-66.64295984476936Z" fill-rule="evenodd" style="fill: #D7A449; stroke: #fff; opacity: 1;" id="p-type-value"></path><path d="M1.0446666101440332e-14,-170.6070045455344A170.6070045455344,170.6070045455344,0,0,1,170.59701328876992,1.8463631688424595L139.29187806676248,1.5075492145107499A139.30003589374985,139.30003589374985,0,0,0,8.529667153919608e-15,-139.30003589374985Z" fill-rule="evenodd" style="fill: #DB3F29; stroke: #fff; opacity: 1;" id="p-type-functions"></path><path d="M170.59701328876992,1.8463631688424595A170.6070045455344,170.6070045455344,0,0,1,45.172248782518814,164.51813863501565L36.88298668374325,134.32849769608387A139.30003589374985,139.30003589374985,0,0,0,139.29187806676248,1.5075492145107499Z" fill-rule="evenodd" style="fill: #1DC690; stroke: #fff; opacity: 1;" id="p-type-logs"></path><path d="M45.172248782518814,164.51813863501565A170.6070045455344,170.6070045455344,0,0,1,-108.27840552266477,131.84284924662907L-88.40894789756159,107.64923562964225A139.30003589374985,139.30003589374985,0,0,0,36.88298668374325,134.32849769608387Z" fill-rule="evenodd" style="fill: #D7A449; stroke: #fff; opacity: 1;" id="p-type-tokenTransfers"></path><path d="M-108.27840552266477,131.84284924662907A170.6070045455344,170.6070045455344,0,0,1,-166.77168169368804,35.97160248111272L-136.1685078984633,29.370690436319837A139.30003589374985,139.30003589374985,0,0,0,-88.40894789756159,107.64923562964225Z" fill-rule="evenodd" style="fill: #414552; stroke: #fff; opacity: 1;" id="p-type-ether"></path><path d="M-125.63000322130607,-115.42899241791305A170.6070045455344,170.6070045455344,0,0,1,-58.487609921878786,-160.26836707730612L-47.75493352784857,-130.85857374949018A139.30003589374985,139.30003589374985,0,0,0,-102.5764680921356,-94.24737764915841Z" fill-rule="evenodd" style="fill: #D7A449; stroke: #fff; opacity: 1;" id="p-type-tokenTransfers"></path><path d="M-58.487609921878786,-160.26836707730612A170.6070045455344,170.6070045455344,0,0,1,-4.591633559227458,-170.54520486151986L-3.7490531019822244,-139.24957666304954A139.30003589374985,139.30003589374985,0,0,0,-47.75493352784857,-130.85857374949018Z" fill-rule="evenodd" style="fill: #414552; stroke: #fff; opacity: 1;" id="p-type-ether"></path><path d="M1.206277097160143e-14,-197A197,197,0,0,1,10.581563298941237,-196.71560822199774L9.163902628636182,-170.36071404115702A170.6070045455344,170.6070045455344,0,0,0,1.0446666101440332e-14,-170.6070045455344Z" fill-rule="evenodd" style="fill: #DB3F29; stroke: #fff; opacity: 1;" id="p-type-functions"></path><path d="M10.581563298941237,-196.71560822199774A197,197,0,0,1,19.03918174016313,-196.07781505990178L16.488415054250087,-169.80836896042192A170.6070045455344,170.6070045455344,0,0,0,9.163902628636182,-170.36071404115702Z" fill-rule="evenodd" style="fill: #DB3F29; stroke: #fff; opacity: 1;" id="p-type-functions"></path><path d="M19.03918174016313,-196.07781505990178A197,197,0,0,1,24.33269991022436,-195.49148246171487L21.072736264917623,-169.30059003532511A170.6070045455344,170.6070045455344,0,0,0,16.488415054250087,-169.80836896042192Z" fill-rule="evenodd" style="fill: #DB3F29; stroke: #fff; opacity: 1;" id="p-type-functions"></path><path d="M24.33269991022436,-195.49148246171487A197,197,0,0,1,29.532271818400325,-194.77383017552467L25.575697626201936,-168.6790849244004A170.6070045455344,170.6070045455344,0,0,0,21.072736264917623,-169.30059003532511Z" fill-rule="evenodd" style="fill: #DB3F29; stroke: #fff; opacity: 1;" id="p-type-functions"></path><path d="M29.532271818400325,-194.77383017552467A197,197,0,0,1,33.988412128721485,-194.04583953532264L29.434828337767932,-168.04862653626816A170.6070045455344,170.6070045455344,0,0,0,25.575697626201936,-168.6790849244004Z" fill-rule="evenodd" style="fill: #DB3F29; stroke: #fff; opacity: 1;" id="p-type-functions"></path><path d="M33.988412128721485,-194.04583953532264A197,197,0,0,1,36.857279804853434,-193.5214223939736L31.91934062539423,-167.5944679696799A170.6070045455344,170.6070045455344,0,0,0,29.434828337767932,-168.04862653626816Z" fill-rule="evenodd" style="fill: #DB3F29; stroke: #fff; opacity: 1;" id="p-type-functions"></path><path d="M36.857279804853434,-193.5214223939736A197,197,0,0,1,38.158677988188664,-193.26902311077615L33.046384512601456,-167.37588377853393A170.6070045455344,170.6070045455344,0,0,0,31.91934062539423,-167.5944679696799Z" fill-rule="evenodd" style="fill: #DB3F29; stroke: #fff; opacity: 1;" id="p-type-functions"></path><path d="M38.158677988188664,-193.26902311077615A197,197,0,0,1,39.45834827666638,-193.00787225208535L34.17193199896701,-167.14972050068755A170.6070045455344,170.6070045455344,0,0,0,33.046384512601456,-167.37588377853393Z" fill-rule="evenodd" style="fill: #DB3F29; stroke: #fff; opacity: 1;" id="p-type-functions"></path><path d="M39.45834827666638,-193.00787225208535A197,197,0,0,1,40.75623181883462,-192.73798164329057L35.29593211763844,-166.91598837722842A170.6070045455344,170.6070045455344,0,0,0,34.17193199896701,-167.14972050068755Z" fill-rule="evenodd" style="fill: #DB3F29; stroke: #fff; opacity: 1;" id="p-type-functions"></path><path d="M40.75623181883462,-192.73798164329057A197,197,0,0,1,42.052269844148455,-192.4593635055331L36.41833397183083,-166.67469799197536A170.6070045455344,170.6070045455344,0,0,0,35.29593211763844,-166.91598837722842Z" fill-rule="evenodd" style="fill: #DB3F29; stroke: #fff; opacity: 1;" id="p-type-functions"></path><path d="M42.052269844148455,-192.4593635055331A197,197,0,0,1,43.34640366563135,-192.1720304551527L37.53908673713166,-166.42586027099907A170.6070045455344,170.6070045455344,0,0,0,36.41833397183083,-166.67469799197536Z" fill-rule="evenodd" style="fill: #DB3F29; stroke: #fff; opacity: 1;" id="p-type-functions"></path><path d="M43.34640366563135,-192.1720304551527A197,197,0,0,1,44.638574682532585,-191.87599550311643L38.6581396638021,-166.16948648212755A170.6070045455344,170.6070045455344,0,0,0,37.53908673713166,-166.42586027099907Z" fill-rule="evenodd" style="fill: #DB3F29; stroke: #fff; opacity: 1;" id="p-type-functions"></path><path d="M44.638574682532585,-191.87599550311643A197,197,0,0,1,45.92872438298097,-191.57127205442933L39.77544207907528,-165.9055882344357A170.6070045455344,170.6070045455344,0,0,0,38.6581396638021,-166.16948648212755Z" fill-rule="evenodd" style="fill: #DB3F29; stroke: #fff; opacity: 1;" id="p-type-functions"></path><path d="M45.92872438298097,-191.57127205442933A197,197,0,0,1,47.21679434663406,-191.25787390752743L40.89094338945056,-165.6341774777197A170.6070045455344,170.6070045455344,0,0,0,39.77544207907528,-165.9055882344357Z" fill-rule="evenodd" style="fill: #DB3F29; stroke: #fff; opacity: 1;" id="p-type-functions"></path><path d="M47.21679434663406,-191.25787390752743A197,197,0,0,1,48.502726247323785,-190.93581525365315L42.00459308298467,-165.35526650195595A170.6070045455344,170.6070045455344,0,0,0,40.89094338945056,-165.6341774777197Z" fill-rule="evenodd" style="fill: #DB3F29; stroke: #fff; opacity: 1;" id="p-type-functions"></path><path d="M48.502726247323785,-190.93581525365315A197,197,0,0,1,49.786461855697475,-190.6051106762124L43.11634073157896,-165.06886793674445A170.6070045455344,170.6070045455344,0,0,0,42.00459308298467,-165.35526650195595Z" fill-rule="evenodd" style="fill: #DB3F29; stroke: #fff; opacity: 1;" id="p-type-functions"></path><path d="M49.786461855697475,-190.6051106762124A197,197,0,0,1,51.067943041854534,-190.26577515011442L44.22613599326279,-164.77499475073705A170.6070045455344,170.6070045455344,0,0,0,43.11634073157896,-165.06886793674445Z" fill-rule="evenodd" style="fill: #DB3F29; stroke: #fff; opacity: 1;" id="p-type-functions"></path><path d="M51.067943041854534,-190.26577515011442A197,197,0,0,1,52.34711177797889,-189.91782404109358L45.33392861447331,-164.47366025105003A170.6070045455344,170.6070045455344,0,0,0,44.22613599326279,-164.77499475073705Z" fill-rule="evenodd" style="fill: #DB3F29; stroke: #fff; opacity: 1;" id="p-type-functions"></path><path d="M52.34711177797889,-189.91782404109358A197,197,0,0,1,53.623910140966295,-189.56127310501364L46.43966843233079,-164.1648780826617A170.6070045455344,170.6070045455344,0,0,0,45.33392861447331,-164.47366025105003Z" fill-rule="evenodd" style="fill: #DB3F29; stroke: #fff; opacity: 1;" id="p-type-functions"></path><path d="M53.623910140966295,-189.56127310501364A197,197,0,0,1,54.89828031504738,-189.19613848715434L47.543305376910205,-163.8486622277944A170.6070045455344,170.6070045455344,0,0,0,46.43966843233079,-164.1648780826617Z" fill-rule="evenodd" style="fill: #DB3F29; stroke: #fff; opacity: 1;" id="p-type-functions"></path><path d="M54.89828031504738,-189.19613848715434A197,197,0,0,1,56.170164594405676,-188.82243672148013L48.64478947350855,-163.52502700528146A170.6070045455344,170.6070045455344,0,0,0,47.543305376910205,-163.8486622277944Z" fill-rule="evenodd" style="fill: #DB3F29; stroke: #fff; opacity: 1;" id="p-type-functions"></path><path d="M56.170164594405676,-188.82243672148013A197,197,0,0,1,57.43950538579054,-188.4401847298918L49.74407084490769,-163.19398706991873A170.6070045455344,170.6070045455344,0,0,0,48.64478947350855,-163.52502700528146Z" fill-rule="evenodd" style="fill: #DB3F29; stroke: #fff; opacity: 1;" id="p-type-functions"></path><path d="M57.43950538579054,-188.4401847298918A197,197,0,0,1,58.70624521112511,-188.04939982145982L50.841099713632886,-162.85555741180107A170.6070045455344,170.6070045455344,0,0,0,49.74407084490769,-163.19398706991873Z" fill-rule="evenodd" style="fill: #DB3F29; stroke: #fff; opacity: 1;" id="p-type-functions"></path><path d="M58.70624521112511,-188.04939982145982A197,197,0,0,1,59.97032671010903,-187.65009969164095L51.93582640420688,-162.5097533556435A170.6070045455344,170.6070045455344,0,0,0,50.841099713632886,-162.85555741180107Z" fill-rule="evenodd" style="fill: #DB3F29; stroke: #fff; opacity: 1;" id="p-type-functions"></path><path d="M59.97032671010903,-187.65009969164095A197,197,0,0,1,61.23169264281583,-187.2423024214767L53.02820134539922,-162.15659056008732A170.6070045455344,170.6070045455344,0,0,0,51.93582640420688,-162.5097533556435Z" fill-rule="evenodd" style="fill: #DB3F29; stroke: #fff; opacity: 1;" id="p-type-functions"></path><path d="M61.23169264281583,-187.2423024214767A197,197,0,0,1,62.49028589228493,-186.82602647677462L54.11817507247107,-161.79608501699096A170.6070045455344,170.6070045455344,0,0,0,53.02820134539922,-162.15659056008732Z" fill-rule="evenodd" style="fill: #DB3F29; stroke: #fff; opacity: 1;" id="p-type-functions"></path><path d="M62.49028589228493,-186.82602647677462A197,197,0,0,1,63.74604946710787,-186.4012907072723L55.20569822941489,-161.42825305070602A170.6070045455344,170.6070045455344,0,0,0,54.11817507247107,-161.79608501699096Z" fill-rule="evenodd" style="fill: #DB3F29; stroke: #fff; opacity: 1;" id="p-type-functions"></path><path d="M63.74604946710787,-186.4012907072723A197,197,0,0,1,64.99892650400898,-185.9681143457836L56.29072157118942,-161.05311131733788A170.6070045455344,170.6070045455344,0,0,0,55.20569822941489,-161.42825305070602Z" fill-rule="evenodd" style="fill: #DB3F29; stroke: #fff; opacity: 1;" id="p-type-functions"></path><path d="M64.99892650400898,-185.9681143457836A197,197,0,0,1,66.24886027042047,-185.52651700732784L57.37319596594974,-160.6706768039916A170.6070045455344,170.6070045455344,0,0,0,56.29072157118942,-161.05311131733788Z" fill-rule="evenodd" style="fill: #DB3F29; stroke: #fff; opacity: 1;" id="p-type-functions"></path><path d="M66.24886027042047,-185.52651700732784A197,197,0,0,1,67.49579416705109,-185.07651868824166L58.45307239727178,-160.2809668280027A170.6070045455344,170.6070045455344,0,0,0,57.37319596594974,-160.6706768039916Z" fill-rule="evenodd" style="fill: #DB3F29; stroke: #fff; opacity: 1;" id="p-type-functions"></path><path d="M67.49579416705109,-185.07651868824166A197,197,0,0,1,68.73967173044927,-184.61813976527353L59.530301966372086,-159.88399903615294A170.6070045455344,170.6070045455344,0,0,0,58.45307239727178,-160.2809668280027Z" fill-rule="evenodd" style="fill: #DB3F29; stroke: #fff; opacity: 1;" id="p-type-functions"></path><path d="M68.73967173044927,-184.61813976527353A197,197,0,0,1,69.98043663555976,-184.15140099466095L60.604835894321965,-159.4797914038713A170.6070045455344,170.6070045455344,0,0,0,59.530301966372086,-159.88399903615294Z" fill-rule="evenodd" style="fill: #DB3F29; stroke: #fff; opacity: 1;" id="p-type-functions"></path><path d="M69.98043663555976,-184.15140099466095A197,197,0,0,1,71.21803269827417,-183.6763235111906L61.67662552425624,-159.06836223442002A170.6070045455344,170.6070045455344,0,0,0,60.604835894321965,-159.4797914038713Z" fill-rule="evenodd" style="fill: #DB3F29; stroke: #fff; opacity: 1;" id="p-type-functions"></path><path d="M71.21803269827417,-183.6763235111906A197,197,0,0,1,72.45240387797521,-183.19292882724147L62.74562232357671,-158.64973015806572A170.6070045455344,170.6070045455344,0,0,0,61.67662552425624,-159.06836223442002Z" fill-rule="evenodd" style="fill: #DB3F29; stroke: #fff; opacity: 1;" id="p-type-functions"></path><path d="M72.45240387797521,-183.19292882724147A197,197,0,0,1,73.68349428007409,-182.70123883181057L63.811777886149535,-158.22391413123592A170.6070045455344,170.6070045455344,0,0,0,62.74562232357671,-158.64973015806572Z" fill-rule="evenodd" style="fill: #DB3F29; stroke: #fff; opacity: 1;" id="p-type-functions"></path><path d="M73.68349428007409,-182.70123883181057A197,197,0,0,1,74.91124815854162,-182.20127578952182L64.8750439344973,-157.7909334356605A170.6070045455344,170.6070045455344,0,0,0,63.811777886149535,-158.22391413123592Z" fill-rule="evenodd" style="fill: #DB3F29; stroke: #fff; opacity: 1;" id="p-type-functions"></path><path d="M74.91124815854162,-182.20127578952182A197,197,0,0,1,76.13560991843268,-181.69306233961785L65.93537232198517,-157.35080767749872A170.6070045455344,170.6070045455344,0,0,0,64.8750439344973,-157.7909334356605Z" fill-rule="evenodd" style="fill: #DB3F29; stroke: #fff; opacity: 1;" id="p-type-functions"></path><path d="M76.13560991843268,-181.69306233961785A197,197,0,0,1,77.3565241184033,-181.17662149493484L66.99271503500088,-156.90355678645133A170.6070045455344,170.6070045455344,0,0,0,65.93537232198517,-157.35080767749872Z" fill-rule="evenodd" style="fill: #DB3F29; stroke: #fff; opacity: 1;" id="p-type-functions"></path><path d="M77.3565241184033,-181.17662149493484A197,197,0,0,1,78.57393547322147,-180.65197664086057L68.04702419512904,-156.44920101485826A170.6070045455344,170.6070045455344,0,0,0,66.99271503500088,-156.90355678645133Z" fill-rule="evenodd" style="fill: #DB3F29; stroke: #fff; opacity: 1;" id="p-type-functions"></path><path d="M78.57393547322147,-180.65197664086057A197,197,0,0,1,79.78778885627034,-180.1191515342753L69.09825206131906,-155.98776093678126A170.6070045455344,170.6070045455344,0,0,0,68.04702419512904,-156.44920101485826Z" fill-rule="evenodd" style="fill: #DB3F29; stroke: #fff; opacity: 1;" id="p-type-functions"></path><path d="M79.78778885627034,-180.1191515342753A197,197,0,0,1,80.99802930204456,-179.57817030247617L70.14635103204694,-155.5192574470726A170.6070045455344,170.6070045455344,0,0,0,69.09825206131906,-155.98776093678126Z" fill-rule="evenodd" style="fill: #DB3F29; stroke: #fff; opacity: 1;" id="p-type-functions"></path><path d="M80.99802930204456,-179.57817030247617A197,197,0,0,1,82.20460200863931,-179.02905744208456L71.19127364747094,-155.04371176042872A170.6070045455344,170.6070045455344,0,0,0,70.14635103204694,-155.5192574470726Z" fill-rule="evenodd" style="fill: #DB3F29; stroke: #fff; opacity: 1;" id="p-type-functions"></path><path d="M82.20460200863931,-179.02905744208456A197,197,0,0,1,83.40745234023159,-178.47183781793697L72.23297259158038,-154.5611454104297A170.6070045455344,170.6070045455344,0,0,0,71.19127364747094,-155.04371176042872Z" fill-rule="evenodd" style="fill: #DB3F29; stroke: #fff; opacity: 1;" id="p-type-functions"></path><path d="M83.40745234023159,-178.47183781793697A197,197,0,0,1,84.60652582955433,-177.90653666195897L73.27140069433833,-154.07158024856406A170.6070045455344,170.6070045455344,0,0,0,72.23297259158038,-154.5611454104297Z" fill-rule="evenodd" style="fill: #DB3F29; stroke: #fff; opacity: 1;" id="p-type-functions"></path><path d="M84.60652582955433,-177.90653666195897A197,197,0,0,1,85.801768180363,-177.3331795720227L74.30651093381766,-153.57503844323932A170.6070045455344,170.6070045455344,0,0,0,73.27140069433833,-154.07158024856406Z" fill-rule="evenodd" style="fill: #DB3F29; stroke: #fff; opacity: 1;" id="p-type-functions"></path><path d="M85.801768180363,-177.3331795720227A197,197,0,0,1,86.99312526989384,-176.75179251078774L75.33825643833006,-153.07154247877827A170.6070045455344,170.6070045455344,0,0,0,74.30651093381766,-153.57503844323932Z" fill-rule="evenodd" style="fill: #DB3F29; stroke: #fff; opacity: 1;" id="p-type-functions"></path><path d="M86.99312526989384,-176.75179251078774A197,197,0,0,1,88.18054315131491,-176.1624018045255L76.36659048854861,-152.5611151544007A170.6070045455344,170.6070045455344,0,0,0,75.33825643833006,-153.07154247877827Z" fill-rule="evenodd" style="fill: #DB3F29; stroke: #fff; opacity: 1;" id="p-type-functions"></path><path d="M88.18054315131491,-176.1624018045255A197,197,0,0,1,89.36396805616884,-175.56503414192713L77.39146651962331,-152.0437795831912A170.6070045455344,170.6070045455344,0,0,0,76.36659048854861,-152.5611151544007Z" fill-rule="evenodd" style="fill: #DB3F29; stroke: #fff; opacity: 1;" id="p-type-functions"></path><path d="M89.36396805616884,-175.56503414192713A197,197,0,0,1,90.54334639680752,-174.9597165728949L78.41283812328953,-151.51955919105225A170.6070045455344,170.6070045455344,0,0,0,77.39146651962331,-152.0437795831912Z" fill-rule="evenodd" style="fill: #DB3F29; stroke: #fff; opacity: 1;" id="p-type-functions"></path><path d="M90.54334639680752,-174.9597165728949A197,197,0,0,1,91.71862476881878,-174.3464765073175L79.4306590499697,-150.9884777156438A170.6070045455344,170.6070045455344,0,0,0,78.41283812328953,-151.51955919105225Z" fill-rule="evenodd" style="fill: #DB3F29; stroke: #fff; opacity: 1;" id="p-type-functions"></path><path d="M91.71862476881878,-174.3464765073175A197,197,0,0,1,92.88974995344445,-173.72534171382875L80.44488321086726,-150.45055920530814A170.6070045455344,170.6070045455344,0,0,0,79.4306590499697,-150.9884777156438Z" fill-rule="evenodd" style="fill: #DB3F29; stroke: #fff; opacity: 1;" id="p-type-functions"></path><path d="M92.88974995344445,-173.72534171382875A197,197,0,0,1,94.05666891999024,-173.09634031855018L81.45546468005381,-149.905828017981A170.6070045455344,170.6070045455344,0,0,0,80.44488321086726,-150.45055920530814Z" fill-rule="evenodd" style="fill: #DB3F29; stroke: #fff; opacity: 1;" id="p-type-functions"></path><path d="M94.05666891999024,-173.09634031855018A197,197,0,0,1,95.21932882822735,-172.45950080381746L82.46235769654882,-149.35430882008873A170.6070045455344,170.6070045455344,0,0,0,81.45546468005381,-149.905828017981Z" fill-rule="evenodd" style="fill: #DB3F29; stroke: #fff; opacity: 1;" id="p-type-functions"></path><path d="M95.21932882822735,-172.45950080381746A197,197,0,0,1,96.37767703078461,-171.81485200689076L83.46551666639147,-148.79602658543112A170.6070045455344,170.6070045455344,0,0,0,82.46235769654882,-149.35430882008873Z" fill-rule="evenodd" style="fill: #DB3F29; stroke: #fff; opacity: 1;" id="p-type-functions"></path><path d="M96.37767703078461,-171.81485200689076A197,197,0,0,1,97.53166107553315,-171.16242311864872L84.4648961647056,-148.23100659405068A170.6070045455344,170.6070045455344,0,0,0,83.46551666639147,-148.79602658543112Z" fill-rule="evenodd" style="fill: #DB3F29; stroke: #fff; opacity: 1;" id="p-type-functions"></path><path d="M97.53166107553315,-171.16242311864872A197,197,0,0,1,98.6812287079608,-170.50224368226694L85.46045093775629,-147.65927443108797A170.6070045455344,170.6070045455344,0,0,0,84.4648961647056,-148.23100659405068Z" fill-rule="evenodd" style="fill: #DB3F29; stroke: #fff; opacity: 1;" id="p-type-functions"></path><path d="M98.6812287079608,-170.50224368226694A197,197,0,0,1,99.82632787353899,-169.83434359187981L86.45213590499937,-147.0808559856228A170.6070045455344,170.6070045455344,0,0,0,85.46045093775629,-147.65927443108797Z" fill-rule="evenodd" style="fill: #DB3F29; stroke: #fff; opacity: 1;" id="p-type-functions"></path><path d="M99.82632787353899,-169.83434359187981A197,197,0,0,1,100.96690672007915,-169.1587530912274L87.4399061611223,-146.49577744950236A170.6070045455344,170.6070045455344,0,0,0,86.45213590499937,-147.0808559856228Z" fill-rule="evenodd" style="fill: #DB3F29; stroke: #fff; opacity: 1;" id="p-type-functions"></path><path d="M100.96690672007915,-169.1587530912274A197,197,0,0,1,102.1029136000814,-168.4755027722853L88.42371697807813,-145.90406531615469A170.6070045455344,170.6070045455344,0,0,0,87.4399061611223,-146.49577744950236Z" fill-rule="evenodd" style="fill: #DB3F29; stroke: #fff; opacity: 1;" id="p-type-functions"></path><path d="M102.1029136000814,-168.4755027722853A197,197,0,0,1,103.23429707307257,-167.78462357387997L89.40352380711036,-145.30574637938943A170.6070045455344,170.6070045455344,0,0,0,88.42371697807813,-145.90406531615469Z" fill-rule="evenodd" style="fill: #DB3F29; stroke: #fff; opacity: 1;" id="p-type-functions"></path><path d="M103.23429707307257,-167.78462357387997A197,197,0,0,1,104.36100590793606,-167.08614678028738L90.37928228077051,-144.70084773218434A170.6070045455344,170.6070045455344,0,0,0,89.40352380711036,-145.30574637938943Z" fill-rule="evenodd" style="fill: #DB3F29; stroke: #fff; opacity: 1;" id="p-type-functions"></path><path d="M104.36100590793606,-167.08614678028738A197,197,0,0,1,105.4829890852313,-166.38010401981657L91.35094821492696,-144.08939676545853A170.6070045455344,170.6070045455344,0,0,0,90.37928228077051,-144.70084773218434Z" fill-rule="evenodd" style="fill: #DB3F29; stroke: #fff; opacity: 1;" id="p-type-functions"></path><path d="M105.4829890852313,-166.38010401981657A197,197,0,0,1,106.60019579950423,-165.6665272633774L92.31847761076588,-143.4714211668321A170.6070045455344,170.6070045455344,0,0,0,91.35094821492696,-144.08939676545853Z" fill-rule="evenodd" style="fill: #DB3F29; stroke: #fff; opacity: 1;" id="p-type-functions"></path><path d="M106.60019579950423,-165.6665272633774A197,197,0,0,1,107.7125754615878,-164.94544882303285L93.2818266567834,-142.8469489193725A170.6070045455344,170.6070045455344,0,0,0,92.31847761076588,-143.4714211668321Z" fill-rule="evenodd" style="fill: #DB3F29; stroke: #fff; opacity: 1;" id="p-type-functions"></path><path d="M107.7125754615878,-164.94544882303285A197,197,0,0,1,108.82007770089268,-164.21690135053603L94.24095173076957,-142.21600830032727A170.6070045455344,170.6070045455344,0,0,0,93.2818266567834,-142.8469489193725Z" fill-rule="evenodd" style="fill: #DB3F29; stroke: #fff; opacity: 1;" id="p-type-functions"></path><path d="M108.82007770089268,-164.21690135053603A197,197,0,0,1,109.92265236768816,-163.48091783585133L95.19580940178362,-141.5786278798438A170.6070045455344,170.6070045455344,0,0,0,94.24095173076957,-142.21600830032727Z" fill-rule="evenodd" style="fill: #DB3F29; stroke: #fff; opacity: 1;" id="p-type-functions"></path><path d="M109.92265236768816,-163.48091783585133A197,197,0,0,1,111.02024953537314,-162.7375316056609L96.14635643212065,-140.93483651967534A170.6070045455344,170.6070045455344,0,0,0,95.19580940178362,-141.5786278798438Z" fill-rule="evenodd" style="fill: #DB3F29; stroke: #fff; opacity: 1;" id="p-type-functions"></path><path d="M111.02024953537314,-162.7375316056609A197,197,0,0,1,112.1128195027367,-161.9867763218553L97.09254977926943,-140.28466337187427A170.6070045455344,170.6070045455344,0,0,0,96.14635643212065,-140.93483651967534Z" fill-rule="evenodd" style="fill: #DB3F29; stroke: #fff; opacity: 1;" id="p-type-functions"></path><path d="M112.1128195027367,-161.9867763218553A197,197,0,0,1,113.20031279620879,-161.22868598000943L98.03434659786147,-139.6281378774721A170.6070045455344,170.6070045455344,0,0,0,97.09254977926943,-140.28466337187427Z" fill-rule="evenodd" style="fill: #DB3F29; stroke: #fff; opacity: 1;" id="p-type-functions"></path><path d="M113.20031279620879,-161.22868598000943A197,197,0,0,1,114.2826801721005,-160.46329490784296L98.97170424161119,-138.96528976514617A170.6070045455344,170.6070045455344,0,0,0,98.03434659786147,-139.6281378774721Z" fill-rule="evenodd" style="fill: #DB3F29; stroke: #fff; opacity: 1;" id="p-type-functions"></path><path d="M114.2826801721005,-160.46329490784296A197,197,0,0,1,115.35987261883382,-159.69063776366613L99.90458026524696,-138.2961490498735A170.6070045455344,170.6070045455344,0,0,0,98.97170424161119,-138.96528976514617Z" fill-rule="evenodd" style="fill: #DB3F29; stroke: #fff; opacity: 1;" id="p-type-functions"></path><path d="M115.35987261883382,-159.69063776366613A197,197,0,0,1,116.43184135916103,-158.91074953481012L100.83293242643313,-137.62074603157174A170.6070045455344,170.6070045455344,0,0,0,99.90458026524696,-138.2961490498735Z" fill-rule="evenodd" style="fill: #DB3F29; stroke: #fff; opacity: 1;" id="p-type-functions"></path><path d="M116.43184135916103,-158.91074953481012A197,197,0,0,1,117.49853785237336,-158.12366553604298L101.75671868768279,-136.93911129372714A170.6070045455344,170.6070045455344,0,0,0,100.83293242643313,-137.62074603157174Z" fill-rule="evenodd" style="fill: #DB3F29; stroke: #fff; opacity: 1;" id="p-type-functions"></path><path d="M117.49853785237336,-158.12366553604298A197,197,0,0,1,118.55991379649913,-157.32942140797027L102.6758972182614,-136.25127570200956A170.6070045455344,170.6070045455344,0,0,0,101.75671868768279,-136.93911129372714Z" fill-rule="evenodd" style="fill: #DB3F29; stroke: #fff; opacity: 1;" id="p-type-functions"></path><path d="M118.55991379649913,-157.32942140797027A197,197,0,0,1,119.6159211304908,-156.52805311542147L103.59042639608087,-135.55727040287493A170.6070045455344,170.6070045455344,0,0,0,102.6758972182614,-136.25127570200956Z" fill-rule="evenodd" style="fill: #DB3F29; stroke: #fff; opacity: 1;" id="p-type-functions"></path><path d="M119.6159211304908,-156.52805311542147A197,197,0,0,1,120.6665120364014,-155.71959694582117L104.50026480958435,-134.8571268221548A170.6070045455344,170.6070045455344,0,0,0,103.59042639608087,-135.55727040287493Z" fill-rule="evenodd" style="fill: #DB3F29; stroke: #fff; opacity: 1;" id="p-type-functions"></path><path d="M120.6665120364014,-155.71959694582117A197,197,0,0,1,121.71163894154967,-154.90408950754608L105.40537125962135,-134.15087666363343A170.6070045455344,170.6070045455344,0,0,0,104.50026480958435,-134.8571268221548Z" fill-rule="evenodd" style="fill: #DB3F29; stroke: #fff; opacity: 1;" id="p-type-functions"></path><path d="M121.71163894154967,-154.90408950754608A197,197,0,0,1,122.7512545206744,-154.08156772826726L106.30570476131344,-133.43855190761198A170.6070045455344,170.6070045455344,0,0,0,105.40537125962135,-134.15087666363343Z" fill-rule="evenodd" style="fill: #DB3F29; stroke: #fff; opacity: 1;" id="p-type-functions"></path><path d="M122.7512545206744,-154.08156772826726A197,197,0,0,1,123.78531169807722,-153.252068853278L107.20122454590992,-132.72018480946068A170.6070045455344,170.6070045455344,0,0,0,106.30570476131344,-133.43855190761198Z" fill-rule="evenodd" style="fill: #DB3F29; stroke: #fff; opacity: 1;" id="p-type-functions"></path><path d="M123.78531169807722,-153.252068853278A197,197,0,0,1,124.81376364975452,-152.41563044380723L108.09189006263415,-131.99580789815792A170.6070045455344,170.6070045455344,0,0,0,107.20122454590992,-132.72018480946068Z" fill-rule="evenodd" style="fill: #DB3F29; stroke: #fff; opacity: 1;" id="p-type-functions"></path><path d="M124.81376364975452,-152.41563044380723A197,197,0,0,1,125.83656380551741,-151.57229037531874L108.9776609805195,-131.26545397481758A170.6070045455344,170.6070045455344,0,0,0,108.09189006263415,-131.99580789815792Z" fill-rule="evenodd" style="fill: #DB3F29; stroke: #fff; opacity: 1;" id="p-type-functions"></path><path d="M125.83656380551741,-151.57229037531874A197,197,0,0,1,126.85366585110084,-150.7220868357961L109.85849719023585,-130.52915611120352A170.6070045455344,170.6070045455344,0,0,0,108.9776609805195,-131.26545397481758Z" fill-rule="evenodd" style="fill: #DB3F29; stroke: #fff; opacity: 1;" id="p-type-functions"></path><path d="M126.85366585110084,-150.7220868357961A197,197,0,0,1,127.86502373026049,-149.86505832401335L110.73435880590567,-129.78694764823211A170.6070045455344,170.6070045455344,0,0,0,109.85849719023585,-130.52915611120352Z" fill-rule="evenodd" style="fill: #DB3F29; stroke: #fff; opacity: 1;" id="p-type-functions"></path><path d="M127.86502373026049,-149.86505832401335A197,197,0,0,1,128.8705916468585,-149.0012436477919L111.60520616691014,-129.03886219446252A170.6070045455344,170.6070045455344,0,0,0,110.73435880590567,-129.78694764823211Z" fill-rule="evenodd" style="fill: #DB3F29; stroke: #fff; opacity: 1;" id="p-type-functions"></path><path d="M128.8705916468585,-149.0012436477919A197,197,0,0,1,129.8703240669371,-148.13068192224304L112.47099983968509,-128.2849336245748A170.6070045455344,170.6070045455344,0,0,0,111.60520616691014,-129.03886219446252Z" fill-rule="evenodd" style="fill: #DB3F29; stroke: #fff; opacity: 1;" id="p-type-functions"></path><path d="M129.8703240669371,-148.13068192224304A197,197,0,0,1,130.86417572078048,-147.25341256799683L113.33170061950665,-127.52519607783599A170.6070045455344,170.6070045455344,0,0,0,112.47099983968509,-128.2849336245748Z" fill-rule="evenodd" style="fill: #DB3F29; stroke: #fff; opacity: 1;" id="p-type-functions"></path><path d="M130.86417572078048,-147.25341256799683A197,197,0,0,1,131.85210160496476,-146.36947530941706L114.18726953226644,-126.75968395655433A170.6070045455344,170.6070045455344,0,0,0,113.33170061950665,-127.52519607783599Z" fill-rule="evenodd" style="fill: #DB3F29; stroke: #fff; opacity: 1;" id="p-type-functions"></path><path d="M131.85210160496476,-146.36947530941706A197,197,0,0,1,132.83405698439572,-145.47891017280241L115.03766783623642,-125.9884319245213A170.6070045455344,170.6070045455344,0,0,0,114.18726953226644,-126.75968395655433Z" fill-rule="evenodd" style="fill: #DB3F29; stroke: #fff; opacity: 1;" id="p-type-functions"></path><path d="M132.83405698439572,-145.47891017280241A197,197,0,0,1,133.8099973943345,-144.58175748457407L115.88285702382322,-125.21147490544205A170.6070045455344,170.6070045455344,0,0,0,115.03766783623642,-125.9884319245213Z" fill-rule="evenodd" style="fill: #DB3F29; stroke: #fff; opacity: 1;" id="p-type-functions"></path><path d="M133.8099973943345,-144.58175748457407A197,197,0,0,1,134.77987864241118,-143.67805786944965L116.72279882331176,-124.42884808135408A170.6070045455344,170.6070045455344,0,0,0,115.88285702382322,-125.21147490544205Z" fill-rule="evenodd" style="fill: #DB3F29; stroke: #fff; opacity: 1;" id="p-type-functions"></path><path d="M134.77987864241118,-143.67805786944965A197,197,0,0,1,135.74365681062565,-142.7678522486035L117.55745520059834,-123.64058689103393A170.6070045455344,170.6070045455344,0,0,0,116.72279882331176,-124.42884808135408Z" fill-rule="evenodd" style="fill: #DB3F29; stroke: #fff; opacity: 1;" id="p-type-functions"></path><path d="M135.74365681062565,-142.7678522486035A197,197,0,0,1,136.7012882573366,-141.85118183781395L118.38678836091289,-122.84672702839265A170.6070045455344,170.6070045455344,0,0,0,117.55745520059834,-123.64058689103393Z" fill-rule="evenodd" style="fill: #DB3F29; stroke: #fff; opacity: 1;" id="p-type-functions"></path><path d="M136.7012882573366,-141.85118183781395A197,197,0,0,1,137.65272961923748,-140.92808814559683L119.21076075053028,-122.04730444085945A170.6070045455344,170.6070045455344,0,0,0,118.38678836091289,-122.84672702839265Z" fill-rule="evenodd" style="fill: #DB3F29; stroke: #fff; opacity: 1;" id="p-type-functions"></path><path d="M137.65272961923748,-140.92808814559683A197,197,0,0,1,138.59793781332,-139.99861297132585L120.02933505847096,-121.24235532775381A170.6070045455344,170.6070045455344,0,0,0,119.21076075053028,-122.04730444085945Z" fill-rule="evenodd" style="fill: #DB3F29; stroke: #fff; opacity: 1;" id="p-type-functions"></path><path d="M138.59793781332,-139.99861297132585A197,197,0,0,1,139.53687003882527,-139.06279840334003L120.8424742181904,-120.43191613864653A170.6070045455344,170.6070045455344,0,0,0,120.02933505847096,-121.24235532775381Z" fill-rule="evenodd" style="fill: #DB3F29; stroke: #fff; opacity: 1;" id="p-type-functions"></path><path d="M139.53687003882527,-139.06279840334003A197,197,0,0,1,140.46948377918176,-138.12068681703764L121.65014140925753,-119.61602357170901A170.6070045455344,170.6070045455344,0,0,0,120.8424742181904,-120.43191613864653Z" fill-rule="evenodd" style="fill: #DB3F29; stroke: #fff; opacity: 1;" id="p-type-functions"></path><path d="M140.46948377918176,-138.12068681703764A197,197,0,0,1,141.3957368039304,-137.1723208729576L122.45230005902201,-118.79471457205169A170.6070045455344,170.6070045455344,0,0,0,121.65014140925753,-119.61602357170901Z" fill-rule="evenodd" style="fill: #DB3F29; stroke: #fff; opacity: 1;" id="p-type-functions"></path><path d="M141.3957368039304,-137.1723208729576A197,197,0,0,1,142.3155871706371,-136.21774351484757L123.24891384427046,-117.96802633005096A170.6070045455344,170.6070045455344,0,0,0,122.45230005902201,-118.79471457205169Z" fill-rule="evenodd" style="fill: #DB3F29; stroke: #fff; opacity: 1;" id="p-type-functions"></path><path d="M142.3155871706371,-136.21774351484757A197,197,0,0,1,143.22899322679177,-135.25699796771934L124.03994669287098,-117.13599627966514A170.6070045455344,170.6070045455344,0,0,0,123.24891384427046,-117.96802633005096Z" fill-rule="evenodd" style="fill: #DB3F29; stroke: #fff; opacity: 1;" id="p-type-functions"></path><path d="M196.98846309043498,2.1319965451060092A197,197,0,0,1,196.96965658879145,3.4575111414959343L170.58072638059033,2.9942924824032118A170.6070045455344,170.6070045455344,0,0,0,170.59701328876992,1.8463631688424595Z" fill-rule="evenodd" style="fill: #1DC690; stroke: #fff; opacity: 1;" id="p-type-logs"></path><path d="M196.96965658879145,3.4575111414959343A197,197,0,0,1,196.94193094019,4.782869175446174L170.55671526456507,4.142086208913917A170.6070045455344,170.6070045455344,0,0,0,170.58072638059033,2.9942924824032118Z" fill-rule="evenodd" style="fill: #1DC690; stroke: #fff; opacity: 1;" id="p-type-logs"></path><path d="M196.94193094019,4.782869175446174A197,197,0,0,1,196.9052874000988,6.108010632316495L170.5249810279615,5.289692374171537A170.6070045455344,170.6070045455344,0,0,0,170.55671526456507,4.142086208913917Z" fill-rule="evenodd" style="fill: #1DC690; stroke: #fff; opacity: 1;" id="p-type-logs"></path><path d="M196.9052874000988,6.108010632316495A197,197,0,0,1,196.8597276278045,7.432875507273675L170.485525107764,6.437059012466148A170.6070045455344,170.6070045455344,0,0,0,170.5249810279615,5.289692374171537Z" fill-rule="evenodd" style="fill: #1DC690; stroke: #fff; opacity: 1;" id="p-type-logs"></path><path d="M196.8597276278045,7.432875507273675A197,197,0,0,1,196.80525368633704,8.757403808008625L170.4383492906089,7.5841341689340505A170.6070045455344,170.6070045455344,0,0,0,170.485525107764,6.437059012466148Z" fill-rule="evenodd" style="fill: #1DC690; stroke: #fff; opacity: 1;" id="p-type-logs"></path><path d="M196.80525368633704,8.757403808008625A197,197,0,0,1,196.7418680423763,10.081535557452954L170.38345571270366,8.73086590191037A170.6070045455344,170.6070045455344,0,0,0,170.4383492906089,7.5841341689340505Z" fill-rule="evenodd" style="fill: #1DC690; stroke: #fff; opacity: 1;" id="p-type-logs"></path><path d="M196.7418680423763,10.081535557452954A197,197,0,0,1,196.6695735661404,11.405210796494838L170.3208468597301,9.877202285281081A170.6070045455344,170.6070045455344,0,0,0,170.38345571270366,8.73086590191037Z" fill-rule="evenodd" style="fill: #1DC690; stroke: #fff; opacity: 1;" id="p-type-logs"></path><path d="M196.6695735661404,11.405210796494838A197,197,0,0,1,196.5883735312557,12.728369586694086L170.25052556673177,11.023091410834313A170.6070045455344,170.6070045455344,0,0,0,170.3208468597301,9.877202285281081Z" fill-rule="evenodd" style="fill: #1DC690; stroke: #fff; opacity: 1;" id="p-type-logs"></path><path d="M196.5883735312557,12.728369586694086A197,197,0,0,1,196.49827161460854,14.050952012996252L170.17249501798565,12.16848139061085A170.6070045455344,170.6070045455344,0,0,0,170.25052556673177,11.023091410834313Z" fill-rule="evenodd" style="fill: #1DC690; stroke: #fff; opacity: 1;" id="p-type-logs"></path><path d="M196.49827161460854,14.050952012996252A197,197,0,0,1,196.39927189617882,15.372898186445703L170.086758746858,13.313320359253705A170.6070045455344,170.6070045455344,0,0,0,170.17249501798565,12.16848139061085Z" fill-rule="evenodd" style="fill: #1DC690; stroke: #fff; opacity: 1;" id="p-type-logs"></path><path d="M196.39927189617882,15.372898186445703A197,197,0,0,1,196.29137885885515,16.694148246897505L169.99332063564424,14.45755647635669A170.6070045455344,170.6070045455344,0,0,0,170.086758746858,13.313320359253705Z" fill-rule="evenodd" style="fill: #1DC690; stroke: #fff; opacity: 1;" id="p-type-logs"></path><path d="M196.29137885885515,16.694148246897505A197,197,0,0,1,196.174597388232,18.01464236572799L169.8921849153933,15.601137928811838A170.6070045455344,170.6070045455344,0,0,0,169.99332063564424,14.45755647635669Z" fill-rule="evenodd" style="fill: #1DC690; stroke: #fff; opacity: 1;" id="p-type-logs"></path><path d="M196.174597388232,18.01464236572799A197,197,0,0,1,196.0489327723883,19.33432074854392L169.78335616571584,16.7440129331556A170.6070045455344,170.6070045455344,0,0,0,169.8921849153933,15.601137928811838Z" fill-rule="evenodd" style="fill: #1DC690; stroke: #fff; opacity: 1;" id="p-type-logs"></path><path d="M196.0489327723883,19.33432074854392A197,197,0,0,1,195.91439070164813,20.653123637890076L169.6668393145771,17.886129737913688A170.6070045455344,170.6070045455344,0,0,0,169.78335616571584,16.7440129331556Z" fill-rule="evenodd" style="fill: #1DC690; stroke: #fff; opacity: 1;" id="p-type-logs"></path><path d="M195.91439070164813,20.653123637890076A197,197,0,0,1,195.77097726832295,21.970991315955175L169.54263963807352,19.027436625944475A170.6070045455344,170.6070045455344,0,0,0,169.6668393145771,17.886129737913688Z" fill-rule="evenodd" style="fill: #1DC690; stroke: #fff; opacity: 1;" id="p-type-logs"></path><path d="M195.77097726832295,21.970991315955175A197,197,0,0,1,195.61869896643583,23.287864107276036L169.41076276019413,20.167881916780864A170.6070045455344,170.6070045455344,0,0,0,169.54263963807352,19.027436625944475Z" fill-rule="evenodd" style="fill: #1DC690; stroke: #fff; opacity: 1;" id="p-type-logs"></path><path d="M195.61869896643583,23.287864107276036A197,197,0,0,1,195.45756269142728,24.60368238143975L169.27121465256556,21.30741396897044A170.6070045455344,170.6070045455344,0,0,0,169.41076276019413,20.167881916780864Z" fill-rule="evenodd" style="fill: #1DC690; stroke: #fff; opacity: 1;" id="p-type-logs"></path><path d="M195.45756269142728,24.60368238143975A197,197,0,0,1,195.2875757398431,25.9183865557839L169.12400163418178,22.44598118241392A170.6070045455344,170.6070045455344,0,0,0,169.27121465256556,21.30741396897044Z" fill-rule="evenodd" style="fill: #1DC690; stroke: #fff; opacity: 1;" id="p-type-logs"></path><path d="M195.2875757398431,25.9183865557839A197,197,0,0,1,195.10874580900392,27.23191709809453L168.969130371118,23.583532000701677A170.6070045455344,170.6070045455344,0,0,0,169.12400163418178,22.44598118241392Z" fill-rule="evenodd" style="fill: #1DC690; stroke: #fff; opacity: 1;" id="p-type-logs"></path><path d="M195.10874580900392,27.23191709809453A197,197,0,0,1,194.92108099665668,28.54421452930191L168.80660787622887,24.720014913448328A170.6070045455344,170.6070045455344,0,0,0,168.969130371118,23.583532000701677Z" fill-rule="evenodd" style="fill: #1DC690; stroke: #fff; opacity: 1;" id="p-type-logs"></path><path d="M194.92108099665668,28.54421452930191A197,197,0,0,1,194.7245898006079,29.855219426173825L168.63644150883064,25.855378458625204A170.6070045455344,170.6070045455344,0,0,0,168.80660787622887,24.720014913448328Z" fill-rule="evenodd" style="fill: #1DC690; stroke: #fff; opacity: 1;" id="p-type-logs"></path><path d="M194.7245898006079,29.855219426173825A197,197,0,0,1,194.51928111833902,31.164872424006393L168.45863897436828,26.989571224890653A170.6070045455344,170.6070045455344,0,0,0,168.63644150883064,25.855378458625204Z" fill-rule="evenodd" style="fill: #1DC690; stroke: #fff; opacity: 1;" id="p-type-logs"></path><path d="M194.51928111833902,31.164872424006393A197,197,0,0,1,194.30516424660334,32.473114219312194L168.27320832406633,28.12254185391804A170.6070045455344,170.6070045455344,0,0,0,168.45863897436828,26.989571224890653Z" fill-rule="evenodd" style="fill: #1DC690; stroke: #fff; opacity: 1;" id="p-type-logs"></path><path d="M194.30516424660334,32.473114219312194A197,197,0,0,1,194.08224888100517,33.77988557250564L168.0801579545644,29.254239042721334A170.6070045455344,170.6070045455344,0,0,0,168.27320832406633,28.12254185391804Z" fill-rule="evenodd" style="fill: #1DC690; stroke: #fff; opacity: 1;" id="p-type-logs"></path><path d="M194.08224888100517,33.77988557250564A197,197,0,0,1,193.85054511556064,35.08512731058547L167.87949660753694,30.384611545978213A170.6070045455344,170.6070045455344,0,0,0,168.0801579545644,29.254239042721334Z" fill-rule="evenodd" style="fill: #1DC690; stroke: #fff; opacity: 1;" id="p-type-logs"></path><path d="M193.85054511556064,35.08512731058547A197,197,0,0,1,193.61006344224086,36.38878032981418L167.67123336929743,31.513608178350562A170.6070045455344,170.6070045455344,0,0,0,167.87949660753694,30.384611545978213Z" fill-rule="evenodd" style="fill: #1DC690; stroke: #fff; opacity: 1;" id="p-type-logs"></path><path d="M193.61006344224086,36.38878032981418A197,197,0,0,1,193.36081475049662,37.69078559839438L167.45537767038687,32.6411778168022A170.6070045455344,170.6070045455344,0,0,0,167.67123336929743,31.513608178350562Z" fill-rule="evenodd" style="fill: #1DC690; stroke: #fff; opacity: 1;" id="p-type-logs"></path><path d="M193.36081475049662,37.69078559839438A197,197,0,0,1,193.10281032676534,38.991084159141835L167.23193928514684,33.76726940291384A170.6070045455344,170.6070045455344,0,0,0,167.45537767038687,32.6411778168022Z" fill-rule="evenodd" style="fill: #1DC690; stroke: #fff; opacity: 1;" id="p-type-logs"></path><path d="M193.10281032676534,38.991084159141835A197,197,0,0,1,192.83606185396016,40.28961713215519L167.00092833127684,34.891831945195136A170.6070045455344,170.6070045455344,0,0,0,167.23193928514684,33.76726940291384Z" fill-rule="evenodd" style="fill: #1DC690; stroke: #fff; opacity: 1;" id="p-type-logs"></path><path d="M192.83606185396016,40.28961713215519A197,197,0,0,1,192.5605814109406,41.586325717482126L166.76235526937612,36.01481452139364A170.6070045455344,170.6070045455344,0,0,0,167.00092833127684,34.891831945195136Z" fill-rule="evenodd" style="fill: #1DC690; stroke: #fff; opacity: 1;" id="p-type-logs"></path><path d="M192.5605814109406,41.586325717482126A197,197,0,0,1,192.27638147196592,42.881151197781925L166.51623090247006,37.13616628080065A170.6070045455344,170.6070045455344,0,0,0,166.76235526937612,36.01481452139364Z" fill-rule="evenodd" style="fill: #1DC690; stroke: #fff; opacity: 1;" id="p-type-logs"></path><path d="M192.27638147196592,42.881151197781925A197,197,0,0,1,191.9834749061301,44.174034940984335L166.26256637552098,38.25583644655386A170.6070045455344,170.6070045455344,0,0,0,166.51623090247006,37.13616628080065Z" fill-rule="evenodd" style="fill: #1DC690; stroke: #fff; opacity: 1;" id="p-type-logs"></path><path d="M191.9834749061301,44.174034940984335A197,197,0,0,1,191.68187497677917,45.46491840294453L166.00137317492346,39.373774317936586A170.6070045455344,170.6070045455344,0,0,0,166.26256637552098,38.25583644655386Z" fill-rule="evenodd" style="fill: #1DC690; stroke: #fff; opacity: 1;" id="p-type-logs"></path><path d="M191.68187497677917,45.46491840294453A197,197,0,0,1,191.37159534091046,46.75374313009403L165.73266312798418,40.489929272673606A170.6070045455344,170.6070045455344,0,0,0,166.00137317492346,39.373774317936586Z" fill-rule="evenodd" style="fill: #1DC690; stroke: #fff; opacity: 1;" id="p-type-logs"></path><path d="M191.37159534091046,46.75374313009403A197,197,0,0,1,191.05265004855448,48.0404507620877L165.45644840238643,41.60425076922345A170.6070045455344,170.6070045455344,0,0,0,165.73266312798418,40.489929272673606Z" fill-rule="evenodd" style="fill: #1DC690; stroke: #fff; opacity: 1;" id="p-type-logs"></path><path d="M191.05265004855448,48.0404507620877A197,197,0,0,1,190.72505354213845,49.32498303444633L165.17274150563912,42.71668834906697A170.6070045455344,170.6070045455344,0,0,0,165.45644840238643,41.60425076922345Z" fill-rule="evenodd" style="fill: #1DC690; stroke: #fff; opacity: 1;" id="p-type-logs"></path><path d="M190.72505354213845,49.32498303444633A197,197,0,0,1,190.38882065583246,50.60728178119498L164.88155528451037,43.82719163899224A170.6070045455344,170.6070045455344,0,0,0,165.17274150563912,42.71668834906697Z" fill-rule="evenodd" style="fill: #1DC690; stroke: #fff; opacity: 1;" id="p-type-logs"></path><path d="M190.38882065583246,50.60728178119498A197,197,0,0,1,190.0439666148776,51.88728893749683L164.58290292444576,44.935710353375526A170.6070045455344,170.6070045455344,0,0,0,164.88155528451037,43.82719163899224Z" fill-rule="evenodd" style="fill: #1DC690; stroke: #fff; opacity: 1;" id="p-type-logs"></path><path d="M190.0439666148776,51.88728893749683A197,197,0,0,1,189.69050703489683,53.164946542282486L164.27679794897142,46.042194296458284A170.6070045455344,170.6070045455344,0,0,0,164.58290292444576,44.935710353375526Z" fill-rule="evenodd" style="fill: #1DC690; stroke: #fff; opacity: 1;" id="p-type-logs"></path><path d="M189.69050703489683,53.164946542282486A197,197,0,0,1,189.32845792118752,54.44019674087455L163.9632542190815,47.14659336462016A170.6070045455344,170.6070045455344,0,0,0,164.27679794897142,46.042194296458284Z" fill-rule="evenodd" style="fill: #1DC690; stroke: #fff; opacity: 1;" id="p-type-logs"></path><path d="M189.32845792118752,54.44019674087455A197,197,0,0,1,188.9578356679969,55.7129817876074L163.64228593261063,48.24885754864777A170.6070045455344,170.6070045455344,0,0,0,163.9632542190815,47.14659336462016Z" fill-rule="evenodd" style="fill: #1DC690; stroke: #fff; opacity: 1;" id="p-type-logs"></path><path d="M188.9578356679969,55.7129817876074A197,197,0,0,1,188.57865705777974,56.98324404844198L163.31390762359086,49.34893693599918A170.6070045455344,170.6070045455344,0,0,0,163.64228593261063,48.24885754864777Z" fill-rule="evenodd" style="fill: #1DC690; stroke: #fff; opacity: 1;" id="p-type-logs"></path><path d="M188.57865705777974,56.98324404844198A197,197,0,0,1,188.19093926043826,58.25092600357562L162.9781341615938,50.446781713064034A170.6070045455344,170.6070045455344,0,0,0,163.31390762359086,49.34893693599918Z" fill-rule="evenodd" style="fill: #1DC690; stroke: #fff; opacity: 1;" id="p-type-logs"></path><path d="M188.19093926043826,58.25092600357562A197,197,0,0,1,187.7946998325447,59.51597025004664L162.63498075105696,51.54234216741928A170.6070045455344,170.6070045455344,0,0,0,162.9781341615938,50.446781713064034Z" fill-rule="evenodd" style="fill: #1DC690; stroke: #fff; opacity: 1;" id="p-type-logs"></path><path d="M187.7946998325447,59.51597025004664A197,197,0,0,1,187.3899567165464,60.778319504333595L162.2844629305956,52.63556869008012A170.6070045455344,170.6070045455344,0,0,0,162.63498075105696,51.54234216741928Z" fill-rule="evenodd" style="fill: #1DC690; stroke: #fff; opacity: 1;" id="p-type-logs"></path><path d="M187.3899567165464,60.778319504333595A197,197,0,0,1,186.97672823995333,62.03791660494925L161.92659657229885,53.726411777746506A170.6070045455344,170.6070045455344,0,0,0,162.2844629305956,52.63556869008012Z" fill-rule="evenodd" style="fill: #1DC690; stroke: #fff; opacity: 1;" id="p-type-logs"></path><path d="M186.97672823995333,62.03791660494925A197,197,0,0,1,186.555033114508,63.29470451502893L161.56139788101112,54.81482203504466A170.6070045455344,170.6070045455344,0,0,0,161.92659657229885,53.726411777746506Z" fill-rule="evenodd" style="fill: #1DC690; stroke: #fff; opacity: 1;" id="p-type-logs"></path><path d="M186.555033114508,63.29470451502893A197,197,0,0,1,186.1248904353384,64.54862632491327L161.18888339359833,55.90075017676386A170.6070045455344,170.6070045455344,0,0,0,161.56139788101112,54.81482203504466Z" fill-rule="evenodd" style="fill: #1DC690; stroke: #fff; opacity: 1;" id="p-type-logs"></path><path d="M186.1248904353384,64.54862632491327A197,197,0,0,1,185.68631968009313,65.79962525472511L160.809069978199,56.98414703008807A170.6070045455344,170.6070045455344,0,0,0,161.18888339359833,55.90075017676386Z" fill-rule="evenodd" style="fill: #1DC690; stroke: #fff; opacity: 1;" id="p-type-logs"></path><path d="M185.68631968009313,65.79962525472511A197,197,0,0,1,185.23934070805964,67.04764465694078L160.42197483346055,58.064963536822695A170.6070045455344,170.6070045455344,0,0,0,160.809069978199,56.98414703008807Z" fill-rule="evenodd" style="fill: #1DC690; stroke: #fff; opacity: 1;" id="p-type-logs"></path><path d="M185.23934070805964,67.04764465694078A197,197,0,0,1,184.78397375926477,68.29262801895493L160.0276154877604,59.143150755615906A170.6070045455344,170.6070045455344,0,0,0,160.42197483346055,58.064963536822695Z" fill-rule="evenodd" style="fill: #1DC690; stroke: #fff; opacity: 1;" id="p-type-logs"></path><path d="M184.78397375926477,68.29262801895493A197,197,0,0,1,184.32023945355834,69.53451896563978L159.62600979841227,60.21865986417489A170.6070045455344,170.6070045455344,0,0,0,160.0276154877604,59.143150755615906Z" fill-rule="evenodd" style="fill: #1DC690; stroke: #fff; opacity: 1;" id="p-type-logs"></path><path d="M184.32023945355834,69.53451896563978A197,197,0,0,1,183.8481587896794,70.77326126189773L159.2171759508577,61.291442161476546A170.6070045455344,170.6070045455344,0,0,0,159.62600979841227,60.21865986417489Z" fill-rule="evenodd" style="fill: #1DC690; stroke: #fff; opacity: 1;" id="p-type-logs"></path><path d="M183.8481587896794,70.77326126189773A197,197,0,0,1,183.3677531443054,72.00879881520787L158.80113245784233,62.36144906997279A170.6070045455344,170.6070045455344,0,0,0,159.2171759508577,61.291442161476546Z" fill-rule="evenodd" style="fill: #1DC690; stroke: #fff; opacity: 1;" id="p-type-logs"></path><path d="M183.3677531443054,72.00879881520787A197,197,0,0,1,182.87904427108418,73.2410756781659L158.37789815857792,63.428632137790245A170.6070045455344,170.6070045455344,0,0,0,158.80113245784233,62.36144906997279Z" fill-rule="evenodd" style="fill: #1DC690; stroke: #fff; opacity: 1;" id="p-type-logs"></path><path d="M182.87904427108418,73.2410756781659A197,197,0,0,1,182.38205429964907,74.47003605101757L157.94749221788902,64.49294304092419A170.6070045455344,170.6070045455344,0,0,0,158.37789815857792,63.428632137790245Z" fill-rule="evenodd" style="fill: #1DC690; stroke: #fff; opacity: 1;" id="p-type-logs"></path><path d="M182.38205429964907,74.47003605101757A197,197,0,0,1,181.87680573461654,75.69562428418537L157.50993412534518,65.5543335854268A170.6070045455344,170.6070045455344,0,0,0,157.94749221788902,64.49294304092419Z" fill-rule="evenodd" style="fill: #1DC690; stroke: #fff; opacity: 1;" id="p-type-logs"></path><path d="M181.87680573461654,75.69562428418537A197,197,0,0,1,181.36332145456743,76.91778488078847L157.0652436943787,66.61275570958942A170.6070045455344,170.6070045455344,0,0,0,157.50993412534518,65.5543335854268Z" fill-rule="evenodd" style="fill: #1DC690; stroke: #fff; opacity: 1;" id="p-type-logs"></path><path d="M181.36332145456743,76.91778488078847A197,197,0,0,1,180.8416247110107,78.13646249915567L156.61344106138696,67.66816148611893A170.6070045455344,170.6070045455344,0,0,0,157.0652436943787,66.61275570958942Z" fill-rule="evenodd" style="fill: #1DC690; stroke: #fff; opacity: 1;" id="p-type-logs"></path><path d="M180.8416247110107,78.13646249915567A197,197,0,0,1,180.31173912733092,79.35160195533145L156.15454668482113,68.72050312430797A170.6070045455344,170.6070045455344,0,0,0,156.61344106138696,67.66816148611893Z" fill-rule="evenodd" style="fill: #1DC690; stroke: #fff; opacity: 1;" id="p-type-logs"></path><path d="M180.31173912733092,79.35160195533145A197,197,0,0,1,179.77368869771817,80.5631482255747L155.68858134425935,69.76973297219891A170.6070045455344,170.6070045455344,0,0,0,156.15454668482113,68.72050312430797Z" fill-rule="evenodd" style="fill: #1DC690; stroke: #fff; opacity: 1;" id="p-type-logs"></path><path d="M179.77368869771817,80.5631482255747A197,197,0,0,1,179.22749778608178,81.77104644885041L155.21556613946606,70.81580351874176A170.6070045455344,170.6070045455344,0,0,0,155.68858134425935,69.76973297219891Z" fill-rule="evenodd" style="fill: #1DC690; stroke: #fff; opacity: 1;" id="p-type-logs"></path><path d="M179.22749778608178,81.77104644885041A197,197,0,0,1,178.673191124947,82.9752419293138L154.73552248943642,71.85866739594546A170.6070045455344,170.6070045455344,0,0,0,155.21556613946606,70.81580351874176Z" fill-rule="evenodd" style="fill: #1DC690; stroke: #fff; opacity: 1;" id="p-type-logs"></path><path d="M178.673191124947,82.9752419293138A197,197,0,0,1,178.11079381433518,84.17568013878702L154.24847213142652,72.89827738102277A170.6070045455344,170.6070045455344,0,0,0,154.73552248943642,71.85866739594546Z" fill-rule="evenodd" style="fill: #1DC690; stroke: #fff; opacity: 1;" id="p-type-logs"></path><path d="M178.11079381433518,84.17568013878702A197,197,0,0,1,177.54033132062696,85.37230671922842L153.75443711996897,73.93458639852874A170.6070045455344,170.6070045455344,0,0,0,154.24847213142652,72.89827738102277Z" fill-rule="evenodd" style="fill: #1DC690; stroke: #fff; opacity: 1;" id="p-type-logs"></path><path d="M177.54033132062696,85.37230671922842A197,197,0,0,1,176.96182947540927,86.56506748519386L153.2534398258743,74.9675475224922A170.6070045455344,170.6070045455344,0,0,0,153.75443711996897,73.93458639852874Z" fill-rule="evenodd" style="fill: #1DC690; stroke: #fff; opacity: 1;" id="p-type-logs"></path><path d="M176.96182947540927,86.56506748519386A197,197,0,0,1,176.37531447430572,87.75390842629035L152.74550293521796,75.99711397854075A170.6070045455344,170.6070045455344,0,0,0,153.2534398258743,74.9675475224922Z" fill-rule="evenodd" style="fill: #1DC690; stroke: #fff; opacity: 1;" id="p-type-logs"></path><path d="M176.37531447430572,87.75390842629035A197,197,0,0,1,175.78081287579028,88.9387757096218L152.2306494483131,77.02323914601884A170.6070045455344,170.6070045455344,0,0,0,152.74550293521796,75.99711397854075Z" fill-rule="evenodd" style="fill: #1DC690; stroke: #fff; opacity: 1;" id="p-type-logs"></path><path d="M175.78081287579028,88.9387757096218A197,197,0,0,1,175.1783515999845,90.11961568222655L151.70890267866892,78.04587656009868A170.6070045455344,170.6070045455344,0,0,0,152.2306494483131,77.02323914601884Z" fill-rule="evenodd" style="fill: #1DC690; stroke: #fff; opacity: 1;" id="p-type-logs"></path><path d="M175.1783515999845,90.11961568222655A197,197,0,0,1,174.5679579274389,91.29637487350699L151.18028625193517,79.06497991388437A170.6070045455344,170.6070045455344,0,0,0,151.70890267866892,78.04587656009868Z" fill-rule="evenodd" style="fill: #1DC690; stroke: #fff; opacity: 1;" id="p-type-logs"></path><path d="M174.5679579274389,91.29637487350699A197,197,0,0,1,173.94965949789741,92.46899999765078L150.64482410483222,80.08050306050878A170.6070045455344,170.6070045455344,0,0,0,151.18028625193517,79.06497991388437Z" fill-rule="evenodd" style="fill: #1DC690; stroke: #fff; opacity: 1;" id="p-type-logs"></path><path d="M173.94965949789741,92.46899999765078A197,197,0,0,1,173.32348430904588,93.6374379560437L150.10254048406725,81.09240001522306A170.6070045455344,170.6070045455344,0,0,0,150.64482410483222,80.08050306050878Z" fill-rule="evenodd" style="fill: #1DC690; stroke: #fff; opacity: 1;" id="p-type-logs"></path><path d="M173.32348430904588,93.6374379560437A197,197,0,0,1,172.68946071524408,94.80163583967403L149.55345994523623,82.10062495747901A170.6070045455344,170.6070045455344,0,0,0,150.10254048406725,81.09240001522306Z" fill-rule="evenodd" style="fill: #1DC690; stroke: #fff; opacity: 1;" id="p-type-logs"></path><path d="M172.68946071524408,94.80163583967403A197,197,0,0,1,172.04761742624214,95.96154093152849L148.99760735171196,83.1051322330039A170.6070045455344,170.6070045455344,0,0,0,149.55345994523623,82.10062495747901Z" fill-rule="evenodd" style="fill: #1DC690; stroke: #fff; opacity: 1;" id="p-type-logs"></path><path d="M172.04761742624214,95.96154093152849A197,197,0,0,1,171.39798350588023,97.1171007089792L148.4350078735185,84.1058763558677A170.6070045455344,170.6070045455344,0,0,0,148.99760735171196,83.1051322330039Z" fill-rule="evenodd" style="fill: #1DC690; stroke: #fff; opacity: 1;" id="p-type-logs"></path><path d="M171.39798350588023,97.1171007089792A197,197,0,0,1,170.74058837077257,98.26826284616207L147.86568698619095,85.10281201054286A170.6070045455344,170.6070045455344,0,0,0,148.4350078735185,84.1058763558677Z" fill-rule="evenodd" style="fill: #1DC690; stroke: #fff; opacity: 1;" id="p-type-logs"></path><path d="M170.74058837077257,98.26826284616207A197,197,0,0,1,170.07546178897545,99.41497521634632L147.28967046962234,86.09589405395629A170.6070045455344,170.6070045455344,0,0,0,147.86568698619095,85.10281201054286Z" fill-rule="evenodd" style="fill: #1DC690; stroke: #fff; opacity: 1;" id="p-type-logs"></path><path d="M170.07546178897545,99.41497521634632A197,197,0,0,1,169.40263387863916,100.55718589429466L146.70698440689588,87.08507751753339A170.6070045455344,170.6070045455344,0,0,0,147.28967046962234,86.09589405395629Z" fill-rule="evenodd" style="fill: #1DC690; stroke: #fff; opacity: 1;" id="p-type-logs"></path><path d="M169.40263387863916,100.55718589429466A197,197,0,0,1,168.72213510664434,101.69484315861474L146.11765518310426,88.0703176092345A170.6070045455344,170.6070045455344,0,0,0,146.70698440689588,87.08507751753339Z" fill-rule="evenodd" style="fill: #1DC690; stroke: #fff; opacity: 1;" id="p-type-logs"></path><path d="M168.72213510664434,101.69484315861474A197,197,0,0,1,168.03399628722227,102.82789549410109L145.5217094841545,89.05156971558296A170.6070045455344,170.6070045455344,0,0,0,146.11765518310426,88.0703176092345Z" fill-rule="evenodd" style="fill: #1DC690; stroke: #fff; opacity: 1;" id="p-type-logs"></path><path d="M168.03399628722227,102.82789549410109A197,197,0,0,1,167.33824858055954,103.95629159406788L144.91917429555983,90.02878940368548A170.6070045455344,170.6070045455344,0,0,0,145.5217094841545,89.05156971558296Z" fill-rule="evenodd" style="fill: #1DC690; stroke: #fff; opacity: 1;" id="p-type-logs"></path><path d="M167.33824858055954,103.95629159406788A197,197,0,0,1,166.63492349138713,105.07998036267212L144.31007690121757,91.001932423244A170.6070045455344,170.6070045455344,0,0,0,144.91917429555983,90.02878940368548Z" fill-rule="evenodd" style="fill: #1DC690; stroke: #fff; opacity: 1;" id="p-type-logs"></path><path d="M166.63492349138713,105.07998036267212A197,197,0,0,1,165.9240528675538,106.19891091722745L143.69444488217383,91.97095470855953A170.6070045455344,170.6070045455344,0,0,0,144.31007690121757,91.001932423244Z" fill-rule="evenodd" style="fill: #1DC690; stroke: #fff; opacity: 1;" id="p-type-logs"></path><path d="M165.9240528675538,106.19891091722745A197,197,0,0,1,165.20566889858392,107.31303259050816L143.0723061153744,92.93581238052745A170.6070045455344,170.6070045455344,0,0,0,143.69444488217383,91.97095470855953Z" fill-rule="evenodd" style="fill: #1DC690; stroke: #fff; opacity: 1;" id="p-type-logs"></path><path d="M165.20566889858392,107.31303259050816A197,197,0,0,1,164.4798041142199,108.42229493304345L142.44368877240265,93.89646174862443A170.6070045455344,170.6070045455344,0,0,0,143.0723061153744,92.93581238052745Z" fill-rule="evenodd" style="fill: #1DC690; stroke: #fff; opacity: 1;" id="p-type-logs"></path><path d="M164.4798041142199,108.42229493304345A197,197,0,0,1,163.74649138294916,109.52664771540194L141.80862131820362,94.85285931288692A170.6070045455344,170.6070045455344,0,0,0,142.44368877240265,93.89646174862443Z" fill-rule="evenodd" style="fill: #1DC690; stroke: #fff; opacity: 1;" id="p-type-logs"></path><path d="M163.74649138294916,109.52664771540194A197,197,0,0,1,163.00576391051584,110.62604093046616L141.16713250979535,95.80496176588079A170.6070045455344,170.6070045455344,0,0,0,141.80862131820362,94.85285931288692Z" fill-rule="evenodd" style="fill: #1DC690; stroke: #fff; opacity: 1;" id="p-type-logs"></path><path d="M163.00576391051584,110.62604093046616A197,197,0,0,1,162.2576552384171,111.7204247956969L140.5192513949664,96.75272599466243A170.6070045455344,170.6070045455344,0,0,0,141.16713250979535,95.80496176588079Z" fill-rule="evenodd" style="fill: #1DC690; stroke: #fff; opacity: 1;" id="p-type-logs"></path><path d="M162.2576552384171,111.7204247956969A197,197,0,0,1,161.50219924238445,112.80974975538753L139.86500731096086,97.69610908273096A170.6070045455344,170.6070045455344,0,0,0,140.5192513949664,96.75272599466243Z" fill-rule="evenodd" style="fill: #1DC690; stroke: #fff; opacity: 1;" id="p-type-logs"></path><path d="M161.50219924238445,112.80974975538753A197,197,0,0,1,160.73943013084954,113.89396648290787L139.20442988314952,98.63506831197161A170.6070045455344,170.6070045455344,0,0,0,139.86500731096086,97.69610908273096Z" fill-rule="evenodd" style="fill: #1DC690; stroke: #fff; opacity: 1;" id="p-type-logs"></path><path d="M160.73943013084954,113.89396648290787A197,197,0,0,1,159.96938244339538,114.97302588293792L138.53754902368877,99.56956116459001A170.6070045455344,170.6070045455344,0,0,0,139.20442988314952,98.63506831197161Z" fill-rule="evenodd" style="fill: #1DC690; stroke: #fff; opacity: 1;" id="p-type-logs"></path><path d="M159.96938244339538,114.97302588293792A197,197,0,0,1,159.1920910491922,116.04687909369086L137.8643949301658,100.49954532503756A170.6070045455344,170.6070045455344,0,0,0,138.53754902368877,99.56956116459001Z" fill-rule="evenodd" style="fill: #1DC690; stroke: #fff; opacity: 1;" id="p-type-logs"></path><path d="M159.1920910491922,116.04687909369086A197,197,0,0,1,158.4075911454186,117.11547748912568L137.18499808423138,101.4249786819274A170.6070045455344,170.6070045455344,0,0,0,137.8643949301658,100.49954532503756Z" fill-rule="evenodd" style="fill: #1DC690; stroke: #fff; opacity: 1;" id="p-type-logs"></path><path d="M158.4075911454186,117.11547748912568A197,197,0,0,1,157.61591825566762,118.17877268114907L136.49938925021962,102.3458193299415A170.6070045455344,170.6070045455344,0,0,0,137.18499808423138,101.4249786819274Z" fill-rule="evenodd" style="fill: #1DC690; stroke: #fff; opacity: 1;" id="p-type-logs"></path><path d="M157.61591825566762,118.17877268114907A197,197,0,0,1,156.8171082283383,119.23671652180643L135.8075994737547,103.26202557172806A170.6070045455344,170.6070045455344,0,0,0,136.49938925021962,102.3458193299415Z" fill-rule="evenodd" style="fill: #1DC690; stroke: #fff; opacity: 1;" id="p-type-logs"></path><path d="M156.8171082283383,119.23671652180643A197,197,0,0,1,156.0111972350124,120.28926110546222L135.1096600803453,104.17355591978968A170.6070045455344,170.6070045455344,0,0,0,135.8075994737547,103.26202557172806Z" fill-rule="evenodd" style="fill: #1DC690; stroke: #fff; opacity: 1;" id="p-type-logs"></path><path d="M52.16041998897597,189.9691832550049A197,197,0,0,1,50.880909876404885,190.31587692609662L44.06416052063317,164.81838416151237A170.6070045455344,170.6070045455344,0,0,0,45.172248782518814,164.51813863501565Z" fill-rule="evenodd" style="fill: #D7A449; stroke: #fff; opacity: 1;" id="p-type-tokenTransfers"></path><path d="M50.880909876404885,190.31587692609662A197,197,0,0,1,49.5990957830055,190.6539527455653L42.95407695282039,165.11116640957746A170.6070045455344,170.6070045455344,0,0,0,44.06416052063317,164.81838416151237Z" fill-rule="evenodd" style="fill: #D7A449; stroke: #fff; opacity: 1;" id="p-type-tokenTransfers"></path><path d="M49.5990957830055,190.6539527455653A197,197,0,0,1,48.315035751668624,190.98339540471832L41.84204834569841,165.39647212149427A170.6070045455344,170.6070045455344,0,0,0,42.95407695282039,165.11116640957746Z" fill-rule="evenodd" style="fill: #D7A449; stroke: #fff; opacity: 1;" id="p-type-tokenTransfers"></path><path d="M48.315035751668624,190.98339540471832A197,197,0,0,1,47.02878792698524,191.30418998578847L40.72812505396012,165.6742883780974A170.6070045455344,170.6070045455344,0,0,0,41.84204834569841,165.39647212149427Z" fill-rule="evenodd" style="fill: #D7A449; stroke: #fff; opacity: 1;" id="p-type-tokenTransfers"></path><path d="M47.02878792698524,191.30418998578847A197,197,0,0,1,45.74041055261366,191.6163219626093L39.61235751809324,165.94460259935772A170.6070045455344,170.6070045455344,0,0,0,40.72812505396012,165.6742883780974Z" fill-rule="evenodd" style="fill: #D7A449; stroke: #fff; opacity: 1;" id="p-type-tokenTransfers"></path><path d="M45.74041055261366,191.6163219626093A197,197,0,0,1,44.449961968642086,191.919777201273L38.4947962620962,166.20740254495198A170.6070045455344,170.6070045455344,0,0,0,39.61235751809324,165.94460259935772Z" fill-rule="evenodd" style="fill: #D7A449; stroke: #fff; opacity: 1;" id="p-type-tokenTransfers"></path><path d="M44.449961968642086,191.919777201273A197,197,0,0,1,43.157500608946876,192.21454196077036L37.37549189119037,166.4626763148171A170.6070045455344,170.6070045455344,0,0,0,38.4947962620962,166.20740254495198Z" fill-rule="evenodd" style="fill: #D7A449; stroke: #fff; opacity: 1;" id="p-type-tokenTransfers"></path><path d="M43.157500608946876,192.21454196077036A197,197,0,0,1,41.8630849985466,192.50060289361292L36.25449508952859,166.71041234968902A170.6070045455344,170.6070045455344,0,0,0,37.37549189119037,166.4626763148171Z" fill-rule="evenodd" style="fill: #D7A449; stroke: #fff; opacity: 1;" id="p-type-tokenTransfers"></path><path d="M41.8630849985466,192.50060289361292A197,197,0,0,1,40.56677375095184,192.77794704643756L35.13185661790003,166.95059943162622A170.6070045455344,170.6070045455344,0,0,0,36.25449508952859,166.71041234968902Z" fill-rule="evenodd" style="fill: #D7A449; stroke: #fff; opacity: 1;" id="p-type-tokenTransfers"></path><path d="M40.56677375095184,192.77794704643756A197,197,0,0,1,39.26862556551111,193.0465618605928L34.00762731143169,167.18322668451748A170.6070045455344,170.6070045455344,0,0,0,35.13185661790003,166.95059943162622Z" fill-rule="evenodd" style="fill: #D7A449; stroke: #fff; opacity: 1;" id="p-type-tokenTransfers"></path><path d="M39.26862556551111,193.0465618605928A197,197,0,0,1,37.96869922475287,193.30643517270772L32.8818580772865,167.4082835745746A170.6070045455344,170.6070045455344,0,0,0,34.00762731143169,167.18322668451748Z" fill-rule="evenodd" style="fill: #D7A449; stroke: #fff; opacity: 1;" id="p-type-tokenTransfers"></path><path d="M37.96869922475287,193.30643517270772A197,197,0,0,1,36.66705359172366,193.55755521524253L31.754599892358133,167.6257599108092A170.6070045455344,170.6070045455344,0,0,0,32.8818580772865,167.4082835745746Z" fill-rule="evenodd" style="fill: #D7A449; stroke: #fff; opacity: 1;" id="p-type-tokenTransfers"></path><path d="M36.66705359172366,193.55755521524253A197,197,0,0,1,35.36374760732276,193.79991061702162L30.625903800962668,167.83564584549427A170.6070045455344,170.6070045455344,0,0,0,31.754599892358133,167.6257599108092Z" fill-rule="evenodd" style="fill: #D7A449; stroke: #fff; opacity: 1;" id="p-type-tokenTransfers"></path><path d="M35.36374760732276,193.79991061702162A197,197,0,0,1,34.058840287633195,194.03349040374832L29.495820912527243,168.03793187461014A170.6070045455344,170.6070045455344,0,0,0,30.625903800962668,167.83564584549427Z" fill-rule="evenodd" style="fill: #D7A449; stroke: #fff; opacity: 1;" id="p-type-tokenTransfers"></path><path d="M34.058840287633195,194.03349040374832A197,197,0,0,1,32.75239072124938,194.2582839985019L28.364402399275694,168.23260883827476A170.6070045455344,170.6070045455344,0,0,0,29.495820912527243,168.03793187461014Z" fill-rule="evenodd" style="fill: #D7A449; stroke: #fff; opacity: 1;" id="p-type-tokenTransfers"></path><path d="M32.75239072124938,194.2582839985019A197,197,0,0,1,31.444458066601484,194.4742812222165L27.231699493911396,168.4196679211585A170.6070045455344,170.6070045455344,0,0,0,28.364402399275694,168.23260883827476Z" fill-rule="evenodd" style="fill: #D7A449; stroke: #fff; opacity: 1;" id="p-type-tokenTransfers"></path><path d="M31.444458066601484,194.4742812222165A197,197,0,0,1,30.135101549276637,194.68147229414203L26.09776348729736,168.59910065288335A170.6070045455344,170.6070045455344,0,0,0,27.231699493911396,168.4196679211585Z" fill-rule="evenodd" style="fill: #D7A449; stroke: #fff; opacity: 1;" id="p-type-tokenTransfers"></path><path d="M30.135101549276637,194.68147229414203A197,197,0,0,1,28.824380459337082,194.8798478322871L24.96264572613368,168.77089890840642A170.6070045455344,170.6070045455344,0,0,0,26.09776348729736,168.59910065288335Z" fill-rule="evenodd" style="fill: #D7A449; stroke: #fff; opacity: 1;" id="p-type-tokenTransfers"></path><path d="M28.824380459337082,194.8798478322871A197,197,0,0,1,27.512354148635403,195.06939885384398L23.826397610632448,168.93505490838794A170.6070045455344,170.6070045455344,0,0,0,24.96264572613368,168.77089890840642Z" fill-rule="evenodd" style="fill: #D7A449; stroke: #fff; opacity: 1;" id="p-type-tokenTransfers"></path><path d="M27.512354148635403,195.06939885384398A197,197,0,0,1,26.19908202812698,195.25011677559496L22.689070592190298,169.09156121954342A170.6070045455344,170.6070045455344,0,0,0,23.826397610632448,168.93505490838794Z" fill-rule="evenodd" style="fill: #D7A449; stroke: #fff; opacity: 1;" id="p-type-tokenTransfers"></path><path d="M26.19908202812698,195.25011677559496A197,197,0,0,1,24.884623565179734,195.4219934143015L21.550716171058536,169.24041075498036A170.6070045455344,170.6070045455344,0,0,0,22.689070592190298,169.09156121954342Z" fill-rule="evenodd" style="fill: #D7A449; stroke: #fff; opacity: 1;" id="p-type-tokenTransfers"></path><path d="M24.884623565179734,195.4219934143015A197,197,0,0,1,23.569038280881347,195.58502098707444L20.411385894011158,169.38159677451907A170.6070045455344,170.6070045455344,0,0,0,21.550716171058536,169.24041075498036Z" fill-rule="evenodd" style="fill: #D7A449; stroke: #fff; opacity: 1;" id="p-type-tokenTransfers"></path><path d="M23.569038280881347,195.58502098707444A197,197,0,0,1,22.252385747344043,195.73919211172657L19.271131352010713,169.5151128849978A170.6070045455344,170.6070045455344,0,0,0,20.411385894011158,169.38159677451907Z" fill-rule="evenodd" style="fill: #D7A449; stroke: #fff; opacity: 1;" id="p-type-tokenTransfers"></path><path d="M22.252385747344043,195.73919211172657A197,197,0,0,1,20.934725585007047,195.88449980710686L18.130004177872145,169.64095304056252A170.6070045455344,170.6070045455344,0,0,0,19.271131352010713,169.5151128849978Z" fill-rule="evenodd" style="fill: #D7A449; stroke: #fff; opacity: 1;" id="p-type-tokenTransfers"></path><path d="M20.934725585007047,195.88449980710686A197,197,0,0,1,19.616117459936852,196.02093749341665L16.98805604392479,169.75911154294036A170.6070045455344,170.6070045455344,0,0,0,18.130004177872145,169.64095304056252Z" fill-rule="evenodd" style="fill: #D7A449; stroke: #fff; opacity: 1;" id="p-type-tokenTransfers"></path><path d="M19.616117459936852,196.02093749341665A197,197,0,0,1,18.296621081125455,196.1484989925075L15.845338659672544,169.86958304169787A170.6070045455344,170.6070045455344,0,0,0,16.98805604392479,169.75911154294036Z" fill-rule="evenodd" style="fill: #D7A449; stroke: #fff; opacity: 1;" id="p-type-tokenTransfers"></path><path d="M18.296621081125455,196.1484989925075A197,197,0,0,1,16.976296197786596,196.26717852816097L14.701903769452366,169.97236253448312A170.6070045455344,170.6070045455344,0,0,0,15.845338659672544,169.86958304169787Z" fill-rule="evenodd" style="fill: #D7A449; stroke: #fff; opacity: 1;" id="p-type-tokenTransfers"></path><path d="M16.976296197786596,196.26717852816097A197,197,0,0,1,15.655202596650227,196.3769707263503L13.557803150091205,170.0674453672524A170.6070045455344,170.6070045455344,0,0,0,14.701903769452366,169.97236253448312Z" fill-rule="evenodd" style="fill: #D7A449; stroke: #fff; opacity: 1;" id="p-type-tokenTransfers"></path><path d="M15.655202596650227,196.3769707263503A197,197,0,0,1,14.333400099255247,196.4778706154835L12.413088608561438,170.1548272344808A170.6070045455344,170.6070045455344,0,0,0,13.557803150091205,170.0674453672524Z" fill-rule="evenodd" style="fill: #D7A449; stroke: #fff; opacity: 1;" id="p-type-tokenTransfers"></path><path d="M14.333400099255247,196.4778706154835A197,197,0,0,1,13.01094855924068,196.56987362662872L11.267811979634969,170.23450417935723A170.6070045455344,170.6070045455344,0,0,0,12.413088608561438,170.1548272344808Z" fill-rule="evenodd" style="fill: #D7A449; stroke: #fff; opacity: 1;" id="p-type-tokenTransfers"></path><path d="M13.01094855924068,196.56987362662872A197,197,0,0,1,11.68790785963538,196.6529755937211L10.122025123536044,170.30647259396366A170.6070045455344,170.6070045455344,0,0,0,11.267811979634969,170.23450417935723Z" fill-rule="evenodd" style="fill: #D7A449; stroke: #fff; opacity: 1;" id="p-type-tokenTransfers"></path><path d="M11.68790785963538,196.6529755937211A197,197,0,0,1,10.36433791014644,196.7271727537513L8.975779923592935,170.3707292194385A170.6070045455344,170.6070045455344,0,0,0,10.122025123536044,170.30647259396366Z" fill-rule="evenodd" style="fill: #D7A449; stroke: #fff; opacity: 1;" id="p-type-tokenTransfers"></path><path d="M10.36433791014644,196.7271727537513A197,197,0,0,1,9.040298644446347,196.79246174693589L7.829128283888561,170.42727114612384A170.6070045455344,170.6070045455344,0,0,0,8.975779923592935,170.3707292194385Z" fill-rule="evenodd" style="fill: #D7A449; stroke: #fff; opacity: 1;" id="p-type-tokenTransfers"></path><path d="M9.040298644446347,196.79246174693589A197,197,0,0,1,7.7158500174590925,196.84883961686967L6.682122126910178,170.47609581369775A170.6070045455344,170.6070045455344,0,0,0,7.829128283888561,170.42727114612384Z" fill-rule="evenodd" style="fill: #D7A449; stroke: #fff; opacity: 1;" id="p-type-tokenTransfers"></path><path d="M7.7158500174590925,196.84883961686967A197,197,0,0,1,6.39105200264529,196.8963038106594L5.534813391198233,170.5172010112898A170.6070045455344,170.6070045455344,0,0,0,6.682122126910178,170.47609581369775Z" fill-rule="evenodd" style="fill: #D7A449; stroke: #fff; opacity: 1;" id="p-type-tokenTransfers"></path><path d="M6.39105200264529,196.8963038106594A197,197,0,0,1,5.065964589286482,196.93485217903938L4.3872540289944935,170.55058487758131A170.6070045455344,170.6070045455344,0,0,0,5.534813391198233,170.5172010112898Z" fill-rule="evenodd" style="fill: #D7A449; stroke: #fff; opacity: 1;" id="p-type-tokenTransfers"></path><path d="M5.065964589286482,196.93485217903938A197,197,0,0,1,3.740647779768702,196.96448297646893L3.239496003889554,170.5762459008897A170.6070045455344,170.6070045455344,0,0,0,4.3872540289944935,170.55058487758131Z" fill-rule="evenodd" style="fill: #D7A449; stroke: #fff; opacity: 1;" id="p-type-tokenTransfers"></path><path d="M3.740647779768702,196.96448297646893A197,197,0,0,1,2.4151615868654632,196.98519486121114L2.0915912884698282,170.59418291923672A170.6070045455344,170.6070045455344,0,0,0,3.239496003889554,170.5762459008897Z" fill-rule="evenodd" style="fill: #D7A449; stroke: #fff; opacity: 1;" id="p-type-tokenTransfers"></path><path d="M2.4151615868654632,196.98519486121114A197,197,0,0,1,1.0895660310202695,196.99698689539403L0.9435918619641371,170.6043951204014A170.6070045455344,170.6070045455344,0,0,0,2.0915912884698282,170.59418291923672Z" fill-rule="evenodd" style="fill: #D7A449; stroke: #fff; opacity: 1;" id="p-type-tokenTransfers"></path><path d="M1.0895660310202695,196.99698689539403A197,197,0,0,1,-0.2360788623712209,196.99985854505263L-0.20445029211000748,170.60688204195648A170.6070045455344,170.6070045455344,0,0,0,0.9435918619641371,170.6043951204014Z" fill-rule="evenodd" style="fill: #D7A449; stroke: #fff; opacity: 1;" id="p-type-tokenTransfers"></path><path d="M-0.2360788623712209,196.99985854505263A197,197,0,0,1,-1.5617130656792557,196.9938096801534L-1.352483188300311,170.60164357128969A170.6070045455344,170.6070045455344,0,0,0,-0.20445029211000748,170.60688204195648Z" fill-rule="evenodd" style="fill: #D7A449; stroke: #fff; opacity: 1;" id="p-type-tokenTransfers"></path><path d="M-1.5617130656792557,196.9938096801534A197,197,0,0,1,-2.8872765517581493,196.97884057459996L-2.500454841573693,170.5886799456085A170.6070045455344,170.6070045455344,0,0,0,-1.352483188300311,170.60164357128969Z" fill-rule="evenodd" style="fill: #D7A449; stroke: #fff; opacity: 1;" id="p-type-tokenTransfers"></path><path d="M-2.8872765517581493,196.97884057459996A197,197,0,0,1,-4.212709296664421,196.95495190622094L-3.648313269670264,170.56799175192967A170.6070045455344,170.6070045455344,0,0,0,-2.500454841573693,170.5886799456085Z" fill-rule="evenodd" style="fill: #D7A449; stroke: #fff; opacity: 1;" id="p-type-tokenTransfers"></path><path d="M-4.212709296664421,196.95495190622094A197,197,0,0,1,-5.537951282374791,196.92214475673893L-4.796006495457179,170.53957992705253A170.6070045455344,170.6070045455344,0,0,0,-3.648313269670264,170.56799175192967Z" fill-rule="evenodd" style="fill: #D7A449; stroke: #fff; opacity: 1;" id="p-type-tokenTransfers"></path><path d="M-5.537951282374791,196.92214475673893A197,197,0,0,1,-6.862942499503904,196.88042061172183L-5.943482549282253,170.50344575751652A170.6070045455344,170.6070045455344,0,0,0,-4.796006495457179,170.53957992705253Z" fill-rule="evenodd" style="fill: #D7A449; stroke: #fff; opacity: 1;" id="p-type-tokenTransfers"></path><path d="M-6.862942499503904,196.88042061172183A197,197,0,0,1,-8.18762295002167,196.82978136051534L-7.090689471327252,170.45959087954307A170.6070045455344,170.6070045455344,0,0,0,-5.943482549282253,170.50344575751652Z" fill-rule="evenodd" style="fill: #D7A449; stroke: #fff; opacity: 1;" id="p-type-tokenTransfers"></path><path d="M-8.18762295002167,196.82978136051534A197,197,0,0,1,-9.511932649970069,196.7702292961576L-8.237575313960715,170.40801727896147A170.6070045455344,170.6070045455344,0,0,0,-7.090689471327252,170.45959087954307Z" fill-rule="evenodd" style="fill: #D7A449; stroke: #fff; opacity: 1;" id="p-type-tokenTransfers"></path><path d="M-9.511932649970069,196.7702292961576A197,197,0,0,1,-10.835811632179363,196.70176711527512L-9.38408814409025,170.34872729111873A170.6070045455344,170.6070045455344,0,0,0,-8.237575313960715,170.40801727896147Z" fill-rule="evenodd" style="fill: #D7A449; stroke: #fff; opacity: 1;" id="p-type-tokenTransfers"></path><path d="M-10.835811632179363,196.70176711527512A197,197,0,0,1,-12.159199948983488,196.62439791796095L-10.530176045514152,170.28172360077426A170.6070045455344,170.6070045455344,0,0,0,-9.38408814409025,170.34872729111873Z" fill-rule="evenodd" style="fill: #D7A449; stroke: #fff; opacity: 1;" id="p-type-tokenTransfers"></path><path d="M-12.159199948983488,196.62439791796095A197,197,0,0,1,-13.482037674934617,196.53812520763407L-11.675787121272267,170.20700924197786A170.6070045455344,170.6070045455344,0,0,0,-10.530176045514152,170.28172360077426Z" fill-rule="evenodd" style="fill: #D7A449; stroke: #fff; opacity: 1;" id="p-type-tokenTransfers"></path><path d="M-13.482037674934617,196.53812520763407A197,197,0,0,1,-14.804264909516682,196.44295289088092L-12.82086949599598,170.1245875979326A170.6070045455344,170.6070045455344,0,0,0,-11.675787121272267,170.20700924197786Z" fill-rule="evenodd" style="fill: #D7A449; stroke: #fff; opacity: 1;" id="p-type-tokenTransfers"></path><path d="M-14.804264909516682,196.44295289088092A197,197,0,0,1,-16.125821779857784,196.33888527727834L-13.965371318257231,170.03446240084153A170.6070045455344,170.6070045455344,0,0,0,-12.82086949599598,170.1245875979326Z" fill-rule="evenodd" style="fill: #D7A449; stroke: #fff; opacity: 1;" id="p-type-tokenTransfers"></path><path d="M-16.125821779857784,196.33888527727834A197,197,0,0,1,-17.446648443441344,196.22592707919858L-15.109240762916436,169.93663773173876A170.6070045455344,170.6070045455344,0,0,0,-13.965371318257231,170.03446240084153Z" fill-rule="evenodd" style="fill: #D7A449; stroke: #fff; opacity: 1;" id="p-type-tokenTransfers"></path><path d="M-17.446648443441344,196.22592707919858A197,197,0,0,1,-18.76668509081588,196.10408341159587L-16.252426033469227,169.83111802030453A170.6070045455344,170.6070045455344,0,0,0,-15.109240762916436,169.93663773173876Z" fill-rule="evenodd" style="fill: #D7A449; stroke: #fff; opacity: 1;" id="p-type-tokenTransfers"></path><path d="M-18.76668509081588,196.10408341159587A197,197,0,0,1,-20.085871948303303,195.97335979177467L-17.394875364391897,169.71790804466474A170.6070045455344,170.6070045455344,0,0,0,-16.252426033469227,169.83111802030453Z" fill-rule="evenodd" style="fill: #D7A449; stroke: #fff; opacity: 1;" id="p-type-tokenTransfers"></path><path d="M-20.085871948303303,195.97335979177467A197,197,0,0,1,-21.404149280705553,195.83376213914002L-18.53653702348543,169.59701293117445A170.6070045455344,170.6070045455344,0,0,0,-17.394875364391897,169.71790804466474Z" fill-rule="evenodd" style="fill: #D7A449; stroke: #fff; opacity: 1;" id="p-type-tokenTransfers"></path><path d="M-21.404149280705553,195.83376213914002A197,197,0,0,1,-22.721457394009544,195.68529677492944L-19.677359314218034,169.46843815418598A170.6070045455344,170.6070045455344,0,0,0,-18.53653702348543,169.59701293117445Z" fill-rule="evenodd" style="fill: #D7A449; stroke: #fff; opacity: 1;" id="p-type-tokenTransfers"></path><path d="M-22.721457394009544,195.68529677492944A197,197,0,0,1,-24.037736638090195,195.52797042192665L-20.817290578066057,169.33218953580078A170.6070045455344,170.6070045455344,0,0,0,-19.677359314218034,169.46843815418598Z" fill-rule="evenodd" style="fill: #D7A449; stroke: #fff; opacity: 1;" id="p-type-tokenTransfers"></path><path d="M-24.037736638090195,195.52797042192665A197,197,0,0,1,-25.352927409411517,195.36179020415713L-21.95627919685317,169.18827324560598A170.6070045455344,170.6070045455344,0,0,0,-20.817290578066057,169.33218953580078Z" fill-rule="evenodd" style="fill: #D7A449; stroke: #fff; opacity: 1;" id="p-type-tokenTransfers"></path><path d="M-25.352927409411517,195.36179020415713A197,197,0,0,1,-26.66697015372557,195.1867636465657L-23.094273595087756,169.03669580039485A170.6070045455344,170.6070045455344,0,0,0,-21.95627919685317,169.18827324560598Z" fill-rule="evenodd" style="fill: #D7A449; stroke: #fff; opacity: 1;" id="p-type-tokenTransfers"></path><path d="M-26.66697015372557,195.1867636465657A197,197,0,0,1,-27.979805368769156,195.00289867467558L-24.231222242298312,168.8774640638719A170.6070045455344,170.6070045455344,0,0,0,-23.094273595087756,169.03669580039485Z" fill-rule="evenodd" style="fill: #D7A449; stroke: #fff; opacity: 1;" id="p-type-tokenTransfers"></path><path d="M-27.979805368769156,195.00289867467558A197,197,0,0,1,-29.29137360695824,194.8102036142296L-25.367073655366855,168.71058524634188A170.6070045455344,170.6070045455344,0,0,0,-24.231222242298312,168.8774640638719Z" fill-rule="evenodd" style="fill: #D7A449; stroke: #fff; opacity: 1;" id="p-type-tokenTransfers"></path><path d="M-29.29137360695824,194.8102036142296A197,197,0,0,1,-30.601615478079793,194.6086871908131L-26.50177640086018,168.53606690438343A170.6070045455344,170.6070045455344,0,0,0,-25.367073655366855,168.71058524634188Z" fill-rule="evenodd" style="fill: #D7A449; stroke: #fff; opacity: 1;" id="p-type-tokenTransfers"></path><path d="M-30.601615478079793,194.6086871908131A197,197,0,0,1,-31.910471651981158,194.39835852945905L-27.635279097358865,168.35391694050685A170.6070045455344,170.6070045455344,0,0,0,-26.50177640086018,168.53606690438343Z" fill-rule="evenodd" style="fill: #D7A449; stroke: #fff; opacity: 1;" id="p-type-tokenTransfers"></path><path d="M-31.910471651981158,194.39835852945905A197,197,0,0,1,-33.21788286125655,194.1792271542346L-28.767530417783885,168.16414360279626A170.6070045455344,170.6070045455344,0,0,0,-27.635279097358865,168.35391694050685Z" fill-rule="evenodd" style="fill: #D7A449; stroke: #fff; opacity: 1;" id="p-type-tokenTransfers"></path><path d="M-33.21788286125655,194.1792271542346A197,197,0,0,1,-34.52378990393083,193.95130298780992L-29.898479091720827,167.9667554845361A170.6070045455344,170.6070045455344,0,0,0,-28.767530417783885,168.16414360279626Z" fill-rule="evenodd" style="fill: #D7A449; stroke: #fff; opacity: 1;" id="p-type-tokenTransfers"></path><path d="M-34.52378990393083,193.95130298780992A197,197,0,0,1,-35.82813364614032,193.71459635100888L-31.028073907741504,167.761761523822A170.6070045455344,170.6070045455344,0,0,0,-29.898479091720827,167.9667554845361Z" fill-rule="evenodd" style="fill: #D7A449; stroke: #fff; opacity: 1;" id="p-type-tokenTransfers"></path><path d="M-35.82813364614032,193.71459635100888A197,197,0,0,1,-37.13085502481041,193.46911796234176L-32.156263715722886,167.5491710031562A170.6070045455344,170.6070045455344,0,0,0,-31.028073907741504,167.761761523822Z" fill-rule="evenodd" style="fill: #D7A449; stroke: #fff; opacity: 1;" id="p-type-tokenTransfers"></path><path d="M-37.13085502481041,193.46911796234176A197,197,0,0,1,-38.431895050330084,193.21487893751976L-33.28299742916328,167.32899354902696A170.6070045455344,170.6070045455344,0,0,0,-32.156263715722886,167.5491710031562Z" fill-rule="evenodd" style="fill: #D7A449; stroke: #fff; opacity: 1;" id="p-type-tokenTransfers"></path><path d="M-38.431895050330084,193.21487893751976A197,197,0,0,1,-39.73119480922311,192.95189078895174L-34.40822402749564,167.10123913147285A170.6070045455344,170.6070045455344,0,0,0,-33.28299742916328,167.32899354902696Z" fill-rule="evenodd" style="fill: #D7A449; stroke: #fff; opacity: 1;" id="p-type-tokenTransfers"></path><path d="M-39.73119480922311,192.95189078895174A197,197,0,0,1,-41.02869546681569,192.68016542522298L-35.53189255839783,166.86591806363117A170.6070045455344,170.6070045455344,0,0,0,-34.40822402749564,167.10123913147285Z" fill-rule="evenodd" style="fill: #D7A449; stroke: #fff; opacity: 1;" id="p-type-tokenTransfers"></path><path d="M-125.02913315186794,152.2390090065371A197,197,0,0,1,-134.083282238286,144.3283528077839L-116.11952864115446,124.99202001790397A170.6070045455344,170.6070045455344,0,0,0,-108.27840552266477,131.84284924662907Z" fill-rule="evenodd" style="fill: #414552; stroke: #fff; opacity: 1;" id="p-type-ether"></path><path d="M-134.083282238286,144.3283528077839A197,197,0,0,1,-141.64210161915582,136.91791354278203L-122.6656582476059,118.57439136121066A170.6070045455344,170.6070045455344,0,0,0,-116.11952864115446,124.99202001790397Z" fill-rule="evenodd" style="fill: #414552; stroke: #fff; opacity: 1;" id="p-type-ether"></path><path d="M-141.64210161915582,136.91791354278203A197,197,0,0,1,-147.40431856197475,130.69417305021625L-127.6558845022042,113.18447398808682A170.6070045455344,170.6070045455344,0,0,0,-122.6656582476059,118.57439136121066Z" fill-rule="evenodd" style="fill: #414552; stroke: #fff; opacity: 1;" id="p-type-ether"></path><path d="M-147.40431856197475,130.69417305021625A197,197,0,0,1,-152.2607458832143,125.00266102402476L-131.86167393403048,108.25547998746035A170.6070045455344,170.6070045455344,0,0,0,-127.6558845022042,113.18447398808682Z" fill-rule="evenodd" style="fill: #414552; stroke: #fff; opacity: 1;" id="p-type-ether"></path><path d="M-152.2607458832143,125.00266102402476A197,197,0,0,1,-155.58423890535212,120.8409889244635L-134.73990332050215,104.65136622701938A170.6070045455344,170.6070045455344,0,0,0,-131.86167393403048,108.25547998746035Z" fill-rule="evenodd" style="fill: #414552; stroke: #fff; opacity: 1;" id="p-type-ether"></path><path d="M-155.58423890535212,120.8409889244635A197,197,0,0,1,-158.74841326037946,116.65308091650121L-137.48015869395905,101.02453150341175A170.6070045455344,170.6070045455344,0,0,0,-134.73990332050215,104.65136622701938Z" fill-rule="evenodd" style="fill: #414552; stroke: #fff; opacity: 1;" id="p-type-ether"></path><path d="M-158.74841326037946,116.65308091650121A197,197,0,0,1,-161.38021398059425,112.9841871041148L-139.75936497536324,97.84717625809758A170.6070045455344,170.6070045455344,0,0,0,-137.48015869395905,101.02453150341175Z" fill-rule="evenodd" style="fill: #414552; stroke: #fff; opacity: 1;" id="p-type-ether"></path><path d="M-161.38021398059425,112.9841871041148A197,197,0,0,1,-163.67083680968787,109.63966972777928L-141.7431025358469,94.95073924679254A170.6070045455344,170.6070045455344,0,0,0,-139.75936497536324,97.84717625809758Z" fill-rule="evenodd" style="fill: #414552; stroke: #fff; opacity: 1;" id="p-type-ether"></path><path d="M-163.67083680968787,109.63966972777928A197,197,0,0,1,-165.27597206193653,107.20472498440529L-143.13319044080419,92.84201524221929A170.6070045455344,170.6070045455344,0,0,0,-141.7431025358469,94.95073924679254Z" fill-rule="evenodd" style="fill: #414552; stroke: #fff; opacity: 1;" id="p-type-ether"></path><path d="M-165.27597206193653,107.20472498440529A197,197,0,0,1,-166.7547781401074,104.88967521850549L-144.41387407177098,90.83712333392484A170.6070045455344,170.6070045455344,0,0,0,-143.13319044080419,92.84201524221929Z" fill-rule="evenodd" style="fill: #414552; stroke: #fff; opacity: 1;" id="p-type-ether"></path><path d="M-166.7547781401074,104.88967521850549A197,197,0,0,1,-167.3143474576511,103.99475532362388L-144.89847531594216,90.06209997060526A170.6070045455344,170.6070045455344,0,0,0,-144.41387407177098,90.83712333392484Z" fill-rule="evenodd" style="fill: #414552; stroke: #fff; opacity: 1;" id="p-type-ether"></path><path d="M-167.3143474576511,103.99475532362388A197,197,0,0,1,-167.83706477193948,103.14901690631761L-145.35116178911386,89.3296690162616A170.6070045455344,170.6070045455344,0,0,0,-144.89847531594216,90.06209997060526Z" fill-rule="evenodd" style="fill: #414552; stroke: #fff; opacity: 1;" id="p-type-ether"></path></g></svg>