<svg xmlns="http://www.w3.org/2000/svg" width="400" height="400" id="block-7907870"><g id="burst-container" transform="translate(200,200)"><circle r="197" style="fill: #f9f9f9; stroke: #f9f9f9; stroke-width: 3; opacity: 1;" id="circle-base"></circle><path display="none" d="M6.031385485800715e-15,-98.5A98.5,98.5,0,1,1,-6.031385485800715e-15,98.5A98.5,98.5,0,1,1,6.031385485800715e-15,-98.5Z" fill-rule="evenodd" id="p-type-root" style="stroke: #fff; opacity: 1;"></path><path d="M8.529667153919608e-15,-139.30003589374985A139.30003589374985,139.30003589374985,0,1,1,-126.34769085372712,-58.6580004426591L-89.34130898993199,-41.47746988384776A98.5,98.5,0,1,0,6.031385485800715e-15,-98.5Z" fill-rule="evenodd" style="fill: #0B1F65; stroke: #fff; opacity: 1;" id="p-type-data"></path><path d="M-126.34769085372712,-58.6580004426591A139.30003589374985,139.30003589374985,0,0,1,-2.0553217418850562,-139.28487230326678L-1.4533319412070704,-98.48927772234228A98.5,98.5,0,0,0,-89.34130898993199,-41.47746988384776Z" fill-rule="evenodd" style="fill: #D7A449; stroke: #fff; opacity: 1;" id="p-type-value"></path><path d="M1.0446666101440332e-14,-170.6070045455344A170.6070045455344,170.6070045455344,0,0,1,170.60312040548868,-1.1512201832528657L139.29686450668268,-0.9399673435209551A139.30003589374985,139.30003589374985,0,0,0,8.529667153919608e-15,-139.30003589374985Z" fill-rule="evenodd" style="fill: #1DC690; stroke: #fff; opacity: 1;" id="p-type-logs"></path><path d="M170.60312040548868,-1.1512201832528657A170.6070045455344,170.6070045455344,0,0,1,24.869553492867414,168.78464180447642L20.30590539612543,137.81208294646592A139.30003589374985,139.30003589374985,0,0,0,139.29686450668268,-0.9399673435209551Z" fill-rule="evenodd" style="fill: #D7A449; stroke: #fff; opacity: 1;" id="p-type-tokenTransfers"></path><path d="M24.869553492867414,168.78464180447642A170.6070045455344,170.6070045455344,0,0,1,-116.44884400076131,124.68527070542997L-95.08008297960775,101.80509722303152A139.30003589374985,139.30003589374985,0,0,0,20.30590539612543,137.81208294646592Z" fill-rule="evenodd" style="fill: #414552; stroke: #fff; opacity: 1;" id="p-type-ether"></path><path d="M-154.74368638527227,-71.8410852082323A170.6070045455344,170.6070045455344,0,0,1,-69.64817005880282,-155.74300115080638L-56.867492720885316,-127.16362794305631A139.30003589374985,139.30003589374985,0,0,0,-126.34769085372712,-58.6580004426591Z" fill-rule="evenodd" style="fill: #D7A449; stroke: #fff; opacity: 1;" id="p-type-tokenTransfers"></path><path d="M-69.64817005880282,-155.74300115080638A170.6070045455344,170.6070045455344,0,0,1,-5.033941492434685,-170.5327224700607L-4.110196017163134,-139.23938483310135A139.30003589374985,139.30003589374985,0,0,0,-56.867492720885316,-127.16362794305631Z" fill-rule="evenodd" style="fill: #414552; stroke: #fff; opacity: 1;" id="p-type-ether"></path><path d="M1.206277097160143e-14,-197A197,197,0,0,1,1.453371493655653,-196.99463878822039L1.2586566346419295,-170.6023615999382A170.6070045455344,170.6070045455344,0,0,0,1.0446666101440332e-14,-170.6070045455344Z" fill-rule="evenodd" style="fill: #1DC690; stroke: #fff; opacity: 1;" id="p-type-logs"></path><path d="M1.453371493655653,-196.99463878822039A197,197,0,0,1,2.9066638824141164,-196.97855544468456L2.517244762433329,-170.58843301585839A170.6070045455344,170.6070045455344,0,0,0,1.2586566346419295,-170.6023615999382Z" fill-rule="evenodd" style="fill: #1DC690; stroke: #fff; opacity: 1;" id="p-type-logs"></path><path d="M2.9066638824141164,-196.97855544468456A197,197,0,0,1,4.359798065683748,-196.9517508447855L3.775695880252382,-170.5652195514075A170.6070045455344,170.6070045455344,0,0,0,2.517244762433329,-170.58843301585839Z" fill-rule="evenodd" style="fill: #1DC690; stroke: #fff; opacity: 1;" id="p-type-logs"></path><path d="M4.359798065683748,-196.9517508447855A197,197,0,0,1,5.812694951483916,-196.91422644745856L5.033941492434626,-170.5327224700607A170.6070045455344,170.6070045455344,0,0,0,3.775695880252382,-170.5652195514075Z" fill-rule="evenodd" style="fill: #1DC690; stroke: #fff; opacity: 1;" id="p-type-logs"></path><path d="M5.812694951483916,-196.91422644745856A197,197,0,0,1,7.265275460749616,-196.8659842951022L6.2919131145008595,-170.49094354058684A170.6070045455344,170.6070045455344,0,0,0,5.033941492434626,-170.5327224700607Z" fill-rule="evenodd" style="fill: #1DC690; stroke: #fff; opacity: 1;" id="p-type-logs"></path><path d="M7.265275460749616,-196.8659842951022A197,197,0,0,1,8.7174605316358,-196.8070270134666L7.5495422768848,-170.43988503695232A170.6070045455344,170.6070045455344,0,0,0,6.2919131145008595,-170.49094354058684Z" fill-rule="evenodd" style="fill: #1DC690; stroke: #fff; opacity: 1;" id="p-type-logs"></path><path d="M8.7174605316358,-196.8070270134666A197,197,0,0,1,10.169171123820515,-196.73735781151086L8.806760528659716,-170.37954973819726A170.6070045455344,170.6070045455344,0,0,0,7.5495422768848,-170.43988503695232Z" fill-rule="evenodd" style="fill: #1DC690; stroke: #fff; opacity: 1;" id="p-type-logs"></path><path d="M10.169171123820515,-196.73735781151086A197,197,0,0,1,11.620328222807125,-196.65698048122835L10.063499441264248,-170.30994092828425A170.6070045455344,170.6070045455344,0,0,0,8.806760528659716,-170.37954973819726Z" fill-rule="evenodd" style="fill: #1DC690; stroke: #fff; opacity: 1;" id="p-type-logs"></path><path d="M11.620328222807125,-196.65698048122835A197,197,0,0,1,13.07085284422469,-196.5658993974403L11.319690612226665,-170.2310623959196A170.6070045455344,170.6070045455344,0,0,0,10.063499441264248,-170.30994092828425Z" fill-rule="evenodd" style="fill: #1DC690; stroke: #fff; opacity: 1;" id="p-type-logs"></path><path d="M13.07085284422469,-196.5658993974403A197,197,0,0,1,14.520666038127148,-196.46411951755766L12.575265668888049,-170.14291843434708A170.6070045455344,170.6070045455344,0,0,0,11.319690612226665,-170.2310623959196Z" fill-rule="evenodd" style="fill: #1DC690; stroke: #fff; opacity: 1;" id="p-type-logs"></path><path d="M14.520666038127148,-196.46411951755766A197,197,0,0,1,15.96968889329036,-196.3516463813113L13.83015627212365,-170.04551384111443A170.6070045455344,170.6070045455344,0,0,0,12.575265668888049,-170.14291843434708Z" fill-rule="evenodd" style="fill: #1DC690; stroke: #fff; opacity: 1;" id="p-type-logs"></path><path d="M15.96968889329036,-196.3516463813113A197,197,0,0,1,17.417842541507312,-196.2284861104505L15.084294120062642,-169.938853917812A170.6070045455344,170.6070045455344,0,0,0,13.83015627212365,-170.04551384111443Z" fill-rule="evenodd" style="fill: #1DC690; stroke: #fff; opacity: 1;" id="p-type-logs"></path><path d="M17.417842541507312,-196.2284861104505A197,197,0,0,1,18.86504816188052,-196.0946454084097L16.33761095180546,-169.82294446978432A170.6070045455344,170.6070045455344,0,0,0,15.084294120062642,-169.938853917812Z" fill-rule="evenodd" style="fill: #1DC690; stroke: #fff; opacity: 1;" id="p-type-logs"></path><path d="M18.86504816188052,-196.0946454084097A197,197,0,0,1,20.311226985112324,-195.95013155994369L17.590038551139287,-169.69779180581412A170.6070045455344,170.6070045455344,0,0,0,16.33761095180546,-169.82294446978432Z" fill-rule="evenodd" style="fill: #1DC690; stroke: #fff; opacity: 1;" id="p-type-logs"></path><path d="M20.311226985112324,-195.95013155994369A197,197,0,0,1,21.756300297792098,-195.7949524307312L18.841508750250902,-169.56340273777894A170.6070045455344,170.6070045455344,0,0,0,17.590038551139287,-169.69779180581412Z" fill-rule="evenodd" style="fill: #1DC690; stroke: #fff; opacity: 1;" id="p-type-logs"></path><path d="M21.756300297792098,-195.7949524307312A197,197,0,0,1,23.200189446680675,-195.6291164669465L20.091953433437105,-169.41978458028032A170.6070045455344,170.6070045455344,0,0,0,18.841508750250902,-169.56340273777894Z" fill-rule="evenodd" style="fill: #1DC690; stroke: #fff; opacity: 1;" id="p-type-logs"></path><path d="M23.200189446680675,-195.6291164669465A197,197,0,0,1,24.64281584299108,-195.4526326948001L21.34130454081191,-169.26694515024582A170.6070045455344,170.6070045455344,0,0,0,20.091953433437105,-169.41978458028032Z" fill-rule="evenodd" style="fill: #1DC690; stroke: #fff; opacity: 1;" id="p-type-logs"></path><path d="M24.64281584299108,-195.4526326948001A197,197,0,0,1,26.084100966666146,-195.26551072004693L22.589494072011117,-169.10489276650327A170.6070045455344,170.6070045455344,0,0,0,21.34130454081191,-169.26694515024582Z" fill-rule="evenodd" style="fill: #1DC690; stroke: #fff; opacity: 1;" id="p-type-logs"></path><path d="M26.084100966666146,-195.26551072004693A197,197,0,0,1,27.52396637065221,-195.06776072746416L23.83645408989339,-168.9336362493284A170.6070045455344,170.6070045455344,0,0,0,22.589494072011117,-169.10489276650327Z" fill-rule="evenodd" style="fill: #1DC690; stroke: #fff; opacity: 1;" id="p-type-logs"></path><path d="M27.52396637065221,-195.06776072746416A197,197,0,0,1,28.962333685169003,-194.85939348029626L25.082116724238137,-168.75318491996438A170.6070045455344,170.6070045455344,0,0,0,23.83645408989339,-168.9336362493284Z" fill-rule="evenodd" style="fill: #1DC690; stroke: #fff; opacity: 1;" id="p-type-logs"></path><path d="M28.962333685169003,-194.85939348029626A197,197,0,0,1,30.39912462197496,-194.64042031966957L26.326414175439332,-168.5635486001147A170.6070045455344,170.6070045455344,0,0,0,25.082116724238137,-168.75318491996438Z" fill-rule="evenodd" style="fill: #1DC690; stroke: #fff; opacity: 1;" id="p-type-logs"></path><path d="M30.39912462197496,-194.64042031966957A197,197,0,0,1,31.834260978628492,-194.4108531639748L27.56927871819594,-168.3647376114085A170.6070045455344,170.6070045455344,0,0,0,26.326414175439332,-168.5635486001147Z" fill-rule="evenodd" style="fill: #1DC690; stroke: #fff; opacity: 1;" id="p-type-logs"></path><path d="M31.834260978628492,-194.4108531639748A197,197,0,0,1,33.26766464274439,-194.17070450821848L28.810642705198006,-168.15676277483882A170.6070045455344,170.6070045455344,0,0,0,27.56927871819594,-168.3647376114085Z" fill-rule="evenodd" style="fill: #1DC690; stroke: #fff; opacity: 1;" id="p-type-logs"></path><path d="M33.26766464274439,-194.17070450821848A197,197,0,0,1,34.69925759624548,-193.91998742334272L30.050438570808744,-167.93963541017362A170.6070045455344,170.6070045455344,0,0,0,28.810642705198006,-168.15676277483882Z" fill-rule="evenodd" style="fill: #1DC690; stroke: #fff; opacity: 1;" id="p-type-logs"></path><path d="M34.69925759624548,-193.91998742334272A197,197,0,0,1,36.12896191960883,-193.65871555551394L31.28859883474184,-167.71336733533968A170.6070045455344,170.6070045455344,0,0,0,30.050438570808744,-167.93963541017362Z" fill-rule="evenodd" style="fill: #1DC690; stroke: #fff; opacity: 1;" id="p-type-logs"></path><path d="M36.12896191960883,-193.65871555551394A197,197,0,0,1,37.556699796106905,-193.38690312537997L32.52505610573443,-167.4779708657793A170.6070045455344,170.6070045455344,0,0,0,31.28859883474184,-167.71336733533968Z" fill-rule="evenodd" style="fill: #1DC690; stroke: #fff; opacity: 1;" id="p-type-logs"></path><path d="M37.556699796106905,-193.38690312537997A197,197,0,0,1,38.98239351604302,-193.10456492729622L33.759743085215035,-167.23345881378006A170.6070045455344,170.6070045455344,0,0,0,32.52505610573443,-167.4779708657793Z" fill-rule="evenodd" style="fill: #1DC690; stroke: #fff; opacity: 1;" id="p-type-logs"></path><path d="M38.98239351604302,-193.10456492729622A197,197,0,0,1,40.40596548098105,-192.81171632852028L34.9925925709667,-166.9798444877774A170.6070045455344,170.6070045455344,0,0,0,33.759743085215035,-167.23345881378006Z" fill-rule="evenodd" style="fill: #1DC690; stroke: #fff; opacity: 1;" id="p-type-logs"></path><path d="M40.40596548098105,-192.81171632852028A197,197,0,0,1,41.82733820796879,-192.5083732683755L36.223537460784456,-166.71714169163033A170.6070045455344,170.6070045455344,0,0,0,34.9925925709667,-166.9798444877774Z" fill-rule="evenodd" style="fill: #1DC690; stroke: #fff; opacity: 1;" id="p-type-logs"></path><path d="M41.82733820796879,-192.5083732683755A197,197,0,0,1,43.24643433375543,-192.19455225738366L37.45251075612776,-166.44536472387006A170.6070045455344,170.6070045455344,0,0,0,36.223537460784456,-166.71714169163033Z" fill-rule="evenodd" style="fill: #1DC690; stroke: #fff; opacity: 1;" id="p-type-logs"></path><path d="M43.24643433375543,-192.19455225738366A197,197,0,0,1,44.66317661900216,-191.87027037636608L38.67944556576705,-166.16452837692185A170.6070045455344,170.6070045455344,0,0,0,37.45251075612776,-166.44536472387006Z" fill-rule="evenodd" style="fill: #1DC690; stroke: #fff; opacity: 1;" id="p-type-logs"></path><path d="M44.66317661900216,-191.87027037636608A197,197,0,0,1,46.07748795248646,-191.53554527551398L39.904275109424695,-165.87464793629962A170.6070045455344,170.6070045455344,0,0,0,38.67944556576705,-166.16452837692185Z" fill-rule="evenodd" style="fill: #1DC690; stroke: #fff; opacity: 1;" id="p-type-logs"></path><path d="M46.07748795248646,-191.53554527551398A197,197,0,0,1,47.48929135529883,-191.19039517342796L41.12693272140952,-165.57573917977433A170.6070045455344,170.6070045455344,0,0,0,39.904275109424695,-165.87464793629962Z" fill-rule="evenodd" style="fill: #1DC690; stroke: #fff; opacity: 1;" id="p-type-logs"></path><path d="M47.48929135529883,-191.19039517342796A197,197,0,0,1,48.898509985032824,-190.83483885612617L42.34735185424546,-165.26781837651495A170.6070045455344,170.6070045455344,0,0,0,41.12693272140952,-165.57573917977433Z" fill-rule="evenodd" style="fill: #1DC690; stroke: #fff; opacity: 1;" id="p-type-logs"></path><path d="M48.898509985032824,-190.83483885612617A197,197,0,0,1,50.30506713996747,-190.46889567602204L43.565466082293625,-164.9509022862031A170.6070045455344,170.6070045455344,0,0,0,42.34735185424546,-165.26781837651495Z" fill-rule="evenodd" style="fill: #1DC690; stroke: #fff; opacity: 1;" id="p-type-logs"></path><path d="M50.30506713996747,-190.46889567602204A197,197,0,0,1,51.70888626324193,-190.09258555087075L44.78120910536771,-164.62500815812078A170.6070045455344,170.6070045455344,0,0,0,43.565466082293625,-164.9509022862031Z" fill-rule="evenodd" style="fill: #1DC690; stroke: #fff; opacity: 1;" id="p-type-logs"></path><path d="M51.70888626324193,-190.09258555087075A197,197,0,0,1,53.10989094702257,-189.70592896268522L45.994514752342724,-164.2901537302115A170.6070045455344,170.6070045455344,0,0,0,44.78120910536771,-164.62500815812078Z" fill-rule="evenodd" style="fill: #1DC690; stroke: #fff; opacity: 1;" id="p-type-logs"></path><path d="M53.10989094702257,-189.70592896268522A197,197,0,0,1,54.508004936661514,-189.30894695662138L47.20531698475646,-163.9463572281149A170.6070045455344,170.6070045455344,0,0,0,45.994514752342724,-164.2901537302115Z" fill-rule="evenodd" style="fill: #1DC690; stroke: #fff; opacity: 1;" id="p-type-logs"></path><path d="M54.508004936661514,-189.30894695662138A197,197,0,0,1,55.90315213484711,-188.90166113983258L48.41354990040387,-163.59363736417473A170.6070045455344,170.6070045455344,0,0,0,47.20531698475646,-163.9463572281149Z" fill-rule="evenodd" style="fill: #1DC690; stroke: #fff; opacity: 1;" id="p-type-logs"></path><path d="M55.90315213484711,-188.90166113983258A197,197,0,0,1,57.29525660574604,-188.48409368029365L49.61914773692424,-163.23201333642027A170.6070045455344,170.6070045455344,0,0,0,48.41354990040387,-163.59363736417473Z" fill-rule="evenodd" style="fill: #1DC690; stroke: #fff; opacity: 1;" id="p-type-logs"></path><path d="M57.29525660574604,-188.48409368029365A197,197,0,0,1,58.684242579136026,-188.05626730559428L50.82204487538022,-162.8615048275216A170.6070045455344,170.6070045455344,0,0,0,49.61914773692424,-163.23201333642027Z" fill-rule="evenodd" style="fill: #1DC690; stroke: #fff; opacity: 1;" id="p-type-logs"></path><path d="M58.684242579136026,-188.05626730559428A197,197,0,0,1,60.070034454530166,-187.6182053017019L52.02217584382962,-162.48213200371808A170.6070045455344,170.6070045455344,0,0,0,50.82204487538022,-162.8615048275216Z" fill-rule="evenodd" style="fill: #1DC690; stroke: #fff; opacity: 1;" id="p-type-logs"></path><path d="M60.070034454530166,-187.6182053017019A197,197,0,0,1,61.452556805291614,-187.1699315116945L53.219475320888826,-162.09391551372096A170.6070045455344,170.6070045455344,0,0,0,52.02217584382962,-162.48213200371808Z" fill-rule="evenodd" style="fill: #1DC690; stroke: #fff; opacity: 1;" id="p-type-logs"></path><path d="M61.452556805291614,-187.1699315116945A197,197,0,0,1,62.83173438273901,-186.71147033446266L54.413878139288144,-161.69687648758926A170.6070045455344,170.6070045455344,0,0,0,53.219475320888826,-162.09391551372096Z" fill-rule="evenodd" style="fill: #1DC690; stroke: #fff; opacity: 1;" id="p-type-logs"></path><path d="M62.83173438273901,-186.71147033446266A197,197,0,0,1,64.20749212024222,-186.24284672338166L55.60531928941893,-161.2910365355799A170.6070045455344,170.6070045455344,0,0,0,54.413878139288144,-161.69687648758926Z" fill-rule="evenodd" style="fill: #1DC690; stroke: #fff; opacity: 1;" id="p-type-logs"></path><path d="M64.20749212024222,-186.24284672338166A197,197,0,0,1,65.57975513730794,-185.76408618495324L56.793733922871716,-160.87641774697138A170.6070045455344,170.6070045455344,0,0,0,55.60531928941893,-161.2910365355799Z" fill-rule="evenodd" style="fill: #1DC690; stroke: #fff; opacity: 1;" id="p-type-logs"></path><path d="M65.57975513730794,-185.76408618495324A197,197,0,0,1,66.94844874365539,-185.2752147774174L57.97905735596595,-160.4530426888615A170.6070045455344,170.6070045455344,0,0,0,56.793733922871716,-160.87641774697138Z" fill-rule="evenodd" style="fill: #1DC690; stroke: #fff; opacity: 1;" id="p-type-logs"></path><path d="M66.94844874365539,-185.2752147774174A197,197,0,0,1,68.31349844328174,-184.776259109334L59.16122507327069,-160.02093440493903A170.6070045455344,170.6070045455344,0,0,0,57.97905735596595,-160.4530426888615Z" fill-rule="evenodd" style="fill: #1DC690; stroke: #fff; opacity: 1;" id="p-type-logs"></path><path d="M68.31349844328174,-184.776259109334A197,197,0,0,1,69.67482993851665,-184.2672463381346L60.34017273111598,-159.58011641422965A170.6070045455344,170.6070045455344,0,0,0,59.16122507327069,-160.02093440493903Z" fill-rule="evenodd" style="fill: #1DC690; stroke: #fff; opacity: 1;" id="p-type-logs"></path><path d="M69.67482993851665,-184.2672463381346A197,197,0,0,1,71.03236913406619,-183.7482041686442L61.51583616109496,-159.13061270981558A170.6070045455344,170.6070045455344,0,0,0,60.34017273111598,-159.58011641422965Z" fill-rule="evenodd" style="fill: #1DC690; stroke: #fff; opacity: 1;" id="p-type-logs"></path><path d="M71.03236913406619,-183.7482041686442A197,197,0,0,1,72.38604214104583,-183.21916085157343L62.68815137355661,-158.67244775752988A170.6070045455344,170.6070045455344,0,0,0,61.51583616109496,-159.13061270981558Z" fill-rule="evenodd" style="fill: #1DC690; stroke: #fff; opacity: 1;" id="p-type-logs"></path><path d="M72.38604214104583,-183.21916085157343A197,197,0,0,1,73.73577528100202,-182.68014518198078L63.857054561088404,-158.20564649462477A170.6070045455344,170.6070045455344,0,0,0,62.68815137355661,-158.67244775752988Z" fill-rule="evenodd" style="fill: #1DC690; stroke: #fff; opacity: 1;" id="p-type-logs"></path><path d="M73.73577528100202,-182.68014518198078A197,197,0,0,1,75.08149508992258,-182.13118649770536L65.02248210198955,-157.73023432841418A170.6070045455344,170.6070045455344,0,0,0,63.857054561088404,-158.20564649462477Z" fill-rule="evenodd" style="fill: #1DC690; stroke: #fff; opacity: 1;" id="p-type-logs"></path><path d="M75.08149508992258,-182.13118649770536A197,197,0,0,1,76.42312832223496,-181.5723146777702L66.1843705637335,-157.2462371348911A170.6070045455344,170.6070045455344,0,0,0,65.02248210198955,-157.73023432841418Z" fill-rule="evenodd" style="fill: #1DC690; stroke: #fff; opacity: 1;" id="p-type-logs"></path><path d="M76.42312832223496,-181.5723146777702A197,197,0,0,1,77.76060195479303,-181.0035601407559L67.34265670642064,-156.75368125731904A170.6070045455344,170.6070045455344,0,0,0,66.1843705637335,-157.2462371348911Z" fill-rule="evenodd" style="fill: #1DC690; stroke: #fff; opacity: 1;" id="p-type-logs"></path><path d="M77.76060195479303,-181.0035601407559A197,197,0,0,1,79.09384319085176,-180.42495384314486L68.49727748622047,-156.25259350479823A170.6070045455344,170.6070045455344,0,0,0,67.34265670642064,-156.75368125731904Z" fill-rule="evenodd" style="fill: #1DC690; stroke: #fff; opacity: 1;" id="p-type-logs"></path><path d="M79.09384319085176,-180.42495384314486A197,197,0,0,1,80.42277946402919,-179.83652727763658L69.64817005880273,-155.74300115080644A170.6070045455344,170.6070045455344,0,0,0,68.49727748622047,-156.25259350479823Z" fill-rule="evenodd" style="fill: #1DC690; stroke: #fff; opacity: 1;" id="p-type-logs"></path><path d="M80.42277946402919,-179.83652727763658A197,197,0,0,1,81.74733844225625,-179.23831247143343L70.79527178275814,-155.2249319317145A170.6070045455344,170.6070045455344,0,0,0,69.64817005880273,-155.74300115080644Z" fill-rule="evenodd" style="fill: #1DC690; stroke: #fff; opacity: 1;" id="p-type-logs"></path><path d="M81.74733844225625,-179.23831247143343A197,197,0,0,1,83.0674480317137,-178.63034198449756L71.93852022300773,-154.69841404527685A170.6070045455344,170.6070045455344,0,0,0,70.79527178275814,-155.2249319317145Z" fill-rule="evenodd" style="fill: #1DC690; stroke: #fff; opacity: 1;" id="p-type-logs"></path><path d="M83.0674480317137,-178.63034198449756A197,197,0,0,1,84.38303638075598,-178.0126489077785L73.07785315420118,-154.16347614909637A170.6070045455344,170.6070045455344,0,0,0,71.93852022300773,-154.69841404527685Z" fill-rule="evenodd" style="fill: #1DC690; stroke: #fff; opacity: 1;" id="p-type-logs"></path><path d="M84.38303638075598,-178.0126489077785A197,197,0,0,1,85.69403188382223,-177.3852668614123L74.21320856410371,-153.620147359065A170.6070045455344,170.6070045455344,0,0,0,73.07785315420118,-154.16347614909637Z" fill-rule="evenodd" style="fill: #1DC690; stroke: #fff; opacity: 1;" id="p-type-logs"></path><path d="M85.69403188382223,-177.3852668614123A197,197,0,0,1,87.0003631853334,-176.74822999289154L75.34452465697116,-153.06845724777872A170.6070045455344,170.6070045455344,0,0,0,74.21320856410371,-153.620147359065Z" fill-rule="evenodd" style="fill: #1DC690; stroke: #fff; opacity: 1;" id="p-type-logs"></path><path d="M87.0003631853334,-176.74822999289154A197,197,0,0,1,88.3019591835761,-176.10157297520672L76.47173985691352,-152.50843584292818A170.6070045455344,170.6070045455344,0,0,0,75.34452465697116,-153.06845724777872Z" fill-rule="evenodd" style="fill: #1DC690; stroke: #fff; opacity: 1;" id="p-type-logs"></path><path d="M88.3019591835761,-176.10157297520672A197,197,0,0,1,89.59874903457279,-175.44533100495906L77.59479281124648,-151.94011362566414A170.6070045455344,170.6070045455344,0,0,0,76.47173985691352,-152.50843584292818Z" fill-rule="evenodd" style="fill: #1DC690; stroke: #fff; opacity: 1;" id="p-type-logs"></path><path d="M89.59874903457279,-175.44533100495906A197,197,0,0,1,90.89066215593738,-174.77953980044478L78.71362239383066,-151.36352152893855A170.6070045455344,170.6070045455344,0,0,0,77.59479281124648,-151.94011362566414Z" fill-rule="evenodd" style="fill: #1DC690; stroke: #fff; opacity: 1;" id="p-type-logs"></path><path d="M90.89066215593738,-174.77953980044478A197,197,0,0,1,92.17762823071712,-174.10423559971107L79.82816770839867,-150.7786909358208A170.6070045455344,170.6070045455344,0,0,0,78.71362239383066,-151.36352152893855Z" fill-rule="evenodd" style="fill: #1DC690; stroke: #fff; opacity: 1;" id="p-type-logs"></path><path d="M92.17762823071712,-174.10423559971107A197,197,0,0,1,93.45957721121987,-173.41945515858373L80.9383680918696,-150.18565367778982A170.6070045455344,170.6070045455344,0,0,0,79.82816770839867,-150.7786909358208Z" fill-rule="evenodd" style="fill: #1DC690; stroke: #fff; opacity: 1;" id="p-type-logs"></path><path d="M93.45957721121987,-173.41945515858373A197,197,0,0,1,94.73643932282656,-172.72523574866645L82.04416311765084,-149.5844420330012A170.6070045455344,170.6070045455344,0,0,0,80.9383680918696,-150.18565367778982Z" fill-rule="evenodd" style="fill: #1DC690; stroke: #fff; opacity: 1;" id="p-type-logs"></path><path d="M94.73643932282656,-172.72523574866645A197,197,0,0,1,96.00814506778903,-172.02161515531233L83.14549259892695,-148.97508872453065A170.6070045455344,170.6070045455344,0,0,0,82.04416311765084,-149.5844420330012Z" fill-rule="evenodd" style="fill: #1DC690; stroke: #fff; opacity: 1;" id="p-type-logs"></path><path d="M96.00814506778903,-172.02161515531233A197,197,0,0,1,97.27462522901267,-171.30863167556717L84.24229659193564,-148.35762691859273A170.6070045455344,170.6070045455344,0,0,0,83.14549259892695,-148.97508872453065Z" fill-rule="evenodd" style="fill: #1DC690; stroke: #fff; opacity: 1;" id="p-type-logs"></path><path d="M97.27462522901267,-171.30863167556717A197,197,0,0,1,98.53581087382378,-170.58632411608508L85.33451539923031,-147.7320902227357A170.6070045455344,170.6070045455344,0,0,0,84.24229659193564,-148.35762691859273Z" fill-rule="evenodd" style="fill: #1DC690; stroke: #fff; opacity: 1;" id="p-type-logs"></path><path d="M98.53581087382378,-170.58632411608508A197,197,0,0,1,99.79163335772151,-169.8547317910163L86.42208957292942,-147.0985126840124A170.6070045455344,170.6070045455344,0,0,0,85.33451539923031,-147.7320902227357Z" fill-rule="evenodd" style="fill: #1DC690; stroke: #fff; opacity: 1;" id="p-type-logs"></path><path d="M99.79163335772151,-169.8547317910163A197,197,0,0,1,101.042024328114,-169.11389451986736L87.504959917952,-146.45692878712708A170.6070045455344,170.6070045455344,0,0,0,86.42208957292942,-147.0985126840124Z" fill-rule="evenodd" style="fill: #1DC690; stroke: #fff; opacity: 1;" id="p-type-logs"></path><path d="M101.042024328114,-169.11389451986736A197,197,0,0,1,102.28691572803888,-168.36385262533366L88.58306749523972,-145.8073734525583A170.6070045455344,170.6070045455344,0,0,0,87.504959917952,-146.45692878712708Z" fill-rule="evenodd" style="fill: #1DC690; stroke: #fff; opacity: 1;" id="p-type-logs"></path><path d="M102.28691572803888,-168.36385262533366A197,197,0,0,1,103.5262397998673,-167.604646931105L89.6563536249647,-145.1498820346585A170.6070045455344,170.6070045455344,0,0,0,88.58306749523972,-145.8073734525583Z" fill-rule="evenodd" style="fill: #1DC690; stroke: #fff; opacity: 1;" id="p-type-logs"></path><path d="M103.5262397998673,-167.604646931105A197,197,0,0,1,104.75992908899204,-166.83631875964346L90.72475988972349,-144.48449031972953A170.6070045455344,170.6070045455344,0,0,0,89.6563536249647,-145.1498820346585Z" fill-rule="evenodd" style="fill: #1DC690; stroke: #fff; opacity: 1;" id="p-type-logs"></path><path d="M104.75992908899204,-166.83631875964346A197,197,0,0,1,105.98791644749888,-166.05890992993417L91.78822813771656,-143.81123452407496A170.6070045455344,170.6070045455344,0,0,0,90.72475988972349,-144.48449031972953Z" fill-rule="evenodd" style="fill: #1DC690; stroke: #fff; opacity: 1;" id="p-type-logs"></path><path d="M105.98791644749888,-166.05890992993417A197,197,0,0,1,107.21013503782142,-165.27246275520946L92.84670048591349,-143.13015129202887A170.6070045455344,170.6070045455344,0,0,0,91.78822813771656,-143.81123452407496Z" fill-rule="evenodd" style="fill: #1DC690; stroke: #fff; opacity: 1;" id="p-type-logs"></path><path d="M107.21013503782142,-165.27246275520946A197,197,0,0,1,108.42651833637892,-164.47702004064547L93.90011932320338,-142.44127769396118A170.6070045455344,170.6070045455344,0,0,0,92.84670048591349,-143.13015129202887Z" fill-rule="evenodd" style="fill: #1DC690; stroke: #fff; opacity: 1;" id="p-type-logs"></path><path d="M108.42651833637892,-164.47702004064547A197,197,0,0,1,109.63700013719706,-163.67262508103255L94.94842731353064,-141.74465122426025A170.6070045455344,170.6070045455344,0,0,0,93.90011932320338,-142.44127769396118Z" fill-rule="evenodd" style="fill: #1DC690; stroke: #fff; opacity: 1;" id="p-type-logs"></path><path d="M109.63700013719706,-163.67262508103255A197,197,0,0,1,110.84151455551151,-162.85932165841882L95.9915673990156,-141.04030979929195A170.6070045455344,170.6070045455344,0,0,0,94.94842731353064,-141.74465122426025Z" fill-rule="evenodd" style="fill: #1DC690; stroke: #fff; opacity: 1;" id="p-type-logs"></path><path d="M110.84151455551151,-162.85932165841882A197,197,0,0,1,112.03999603135384,-162.037154039727L97.0294828030601,-140.32829175533584A170.6070045455344,170.6070045455344,0,0,0,95.9915673990156,-141.04030979929195Z" fill-rule="evenodd" style="fill: #1DC690; stroke: #fff; opacity: 1;" id="p-type-logs"></path><path d="M112.03999603135384,-162.037154039727A197,197,0,0,1,113.23237933311991,-161.2061669743451L98.0621170334379,-139.60863584649886A170.6070045455344,170.6070045455344,0,0,0,97.0294828030601,-140.32829175533584Z" fill-rule="evenodd" style="fill: #1DC690; stroke: #fff; opacity: 1;" id="p-type-logs"></path><path d="M113.23237933311991,-161.2061669743451A197,197,0,0,1,114.41859956112036,-160.3664056916909L99.08941388536925,-138.8813812426057A170.6070045455344,170.6070045455344,0,0,0,98.0621170334379,-139.60863584649886Z" fill-rule="evenodd" style="fill: #1DC690; stroke: #fff; opacity: 1;" id="p-type-logs"></path><path d="M114.41859956112036,-160.3664056916909A197,197,0,0,1,115.598592151113,-159.5179158987499L100.11131744458028,-138.146567527067A170.6070045455344,170.6070045455344,0,0,0,99.08941388536925,-138.8813812426057Z" fill-rule="evenodd" style="fill: #1DC690; stroke: #fff; opacity: 1;" id="p-type-logs"></path><path d="M115.598592151113,-159.5179158987499A197,197,0,0,1,116.77229287781684,-158.6607437775878L101.12777209034606,-137.40423469472483A170.6070045455344,170.6070045455344,0,0,0,100.11131744458028,-138.146567527067Z" fill-rule="evenodd" style="fill: #1DC690; stroke: #fff; opacity: 1;" id="p-type-logs"></path><path d="M116.77229287781684,-158.6607437775878A197,197,0,0,1,117.9396378584079,-157.7949359828369L102.13872249851816,-136.65442314967598A170.6070045455344,170.6070045455344,0,0,0,101.12777209034606,-137.40423469472483Z" fill-rule="evenodd" style="fill: #1DC690; stroke: #fff; opacity: 1;" id="p-type-logs"></path><path d="M117.9396378584079,-157.7949359828369A197,197,0,0,1,119.10056355599625,-156.92053963915654L103.14411364453584,-135.89717370307255A170.6070045455344,170.6070045455344,0,0,0,102.13872249851816,-136.65442314967598Z" fill-rule="evenodd" style="fill: #1DC690; stroke: #fff; opacity: 1;" id="p-type-logs"></path><path d="M119.10056355599625,-156.92053963915654A197,197,0,0,1,120.25500678308416,-156.0376023386683L104.14389080642086,-135.1325275709009A170.6070045455344,170.6070045455344,0,0,0,103.14411364453584,-135.89717370307255Z" fill-rule="evenodd" style="fill: #1DC690; stroke: #fff; opacity: 1;" id="p-type-logs"></path><path d="M120.25500678308416,-156.0376023386683A197,197,0,0,1,121.40290470500534,-155.1461721383657L105.13799956775597,-134.36052637173816A170.6070045455344,170.6070045455344,0,0,0,104.14389080642086,-135.1325275709009Z" fill-rule="evenodd" style="fill: #1DC690; stroke: #fff; opacity: 1;" id="p-type-logs"></path><path d="M121.40290470500534,-155.1461721383657A197,197,0,0,1,122.54419484334497,-154.24629755749828L106.12638582064675,-133.5812121244871A170.6070045455344,170.6070045455344,0,0,0,105.13799956775597,-134.36052637173816Z" fill-rule="evenodd" style="fill: #1DC690; stroke: #fff; opacity: 1;" id="p-type-logs"></path><path d="M122.54419484334497,-154.24629755749828A197,197,0,0,1,123.6788150793403,-153.33802757493117L107.10899576866659,-132.79462724608914A170.6070045455344,170.6070045455344,0,0,0,106.12638582064675,-133.5812121244871Z" fill-rule="evenodd" style="fill: #1DC690; stroke: #fff; opacity: 1;" id="p-type-logs"></path><path d="M123.6788150793403,-153.33802757493117A197,197,0,0,1,124.80670365726161,-152.4214116264788L108.08577592978476,-132.00081454921542A170.6070045455344,170.6070045455344,0,0,0,107.10899576866659,-132.79462724608914Z" fill-rule="evenodd" style="fill: #1DC690; stroke: #fff; opacity: 1;" id="p-type-logs"></path><path d="M124.80670365726161,-152.4214116264788A197,197,0,0,1,125.92779918777356,-151.4964996022145L109.0566731392773,-131.19981723993686A170.6070045455344,170.6070045455344,0,0,0,108.08577592978476,-132.00081454921542Z" fill-rule="evenodd" style="fill: #1DC690; stroke: #fff; opacity: 1;" id="p-type-logs"></path><path d="M125.92779918777356,-151.4964996022145A197,197,0,0,1,127.04204065127654,-150.5633418437549L110.02163455262082,-130.3916789153723A170.6070045455344,170.6070045455344,0,0,0,109.0566731392773,-131.19981723993686Z" fill-rule="evenodd" style="fill: #1DC690; stroke: #fff; opacity: 1;" id="p-type-logs"></path><path d="M127.04204065127654,-150.5633418437549A197,197,0,0,1,128.1493674012278,-149.62198914152003L110.98060764836869,-129.57644356131576A170.6070045455344,170.6070045455344,0,0,0,110.02163455262082,-130.3916789153723Z" fill-rule="evenodd" style="fill: #1DC690; stroke: #fff; opacity: 1;" id="p-type-logs"></path><path d="M128.1493674012278,-149.62198914152003A197,197,0,0,1,129.2497191674424,-148.67249273196865L111.93354023100962,-128.75415554984215A170.6070045455344,170.6070045455344,0,0,0,110.98060764836869,-129.57644356131576Z" fill-rule="evenodd" style="fill: #1DC690; stroke: #fff; opacity: 1;" id="p-type-logs"></path><path d="M129.2497191674424,-148.67249273196865A197,197,0,0,1,130.34303605937367,-147.71490429480977L112.88038043380872,-127.92485963689235A170.6070045455344,170.6070045455344,0,0,0,111.93354023100962,-128.75415554984215Z" fill-rule="evenodd" style="fill: #1DC690; stroke: #fff; opacity: 1;" id="p-type-logs"></path><path d="M130.34303605937367,-147.71490429480977A197,197,0,0,1,131.42925856937285,-146.74927595018974L113.82107672163052,-127.08860095983707A170.6070045455344,170.6070045455344,0,0,0,112.88038043380872,-127.92485963689235Z" fill-rule="evenodd" style="fill: #1DC690; stroke: #fff; opacity: 1;" id="p-type-logs"></path><path d="M131.42925856937285,-146.74927595018974A197,197,0,0,1,132.5083275759281,-145.77566025585523L114.7555778937438,-126.24542503502018A170.6070045455344,170.6070045455344,0,0,0,113.82107672163052,-127.08860095983707Z" fill-rule="evenodd" style="fill: #1DC690; stroke: #fff; opacity: 1;" id="p-type-logs"></path><path d="M132.5083275759281,-145.77566025585523A197,197,0,0,1,133.5801843468824,-144.7941102042929L115.68383308660856,-125.39537775528126A170.6070045455344,170.6070045455344,0,0,0,114.7555778937438,-126.24542503502018Z" fill-rule="evenodd" style="fill: #1DC690; stroke: #fff; opacity: 1;" id="p-type-logs"></path><path d="M133.5801843468824,-144.7941102042929A197,197,0,0,1,134.64477054263017,-143.80467921984484L116.60579177664438,-124.5385053874578A170.6070045455344,170.6070045455344,0,0,0,115.68383308660856,-125.39537775528126Z" fill-rule="evenodd" style="fill: #1DC690; stroke: #fff; opacity: 1;" id="p-type-logs"></path><path d="M134.64477054263017,-143.80467921984484A197,197,0,0,1,135.7020282192927,-142.80742115580088L117.52140378298026,-123.67485456986684A170.6070045455344,170.6070045455344,0,0,0,116.60579177664438,-124.5385053874578Z" fill-rule="evenodd" style="fill: #1DC690; stroke: #fff; opacity: 1;" id="p-type-logs"></path><path d="M135.7020282192927,-142.80742115580088A197,197,0,0,1,136.75189983187195,-141.80239029146745L118.43061927018601,-122.80447230976667A170.6070045455344,170.6070045455344,0,0,0,117.52140378298026,-123.67485456986684Z" fill-rule="evenodd" style="fill: #1DC690; stroke: #fff; opacity: 1;" id="p-type-logs"></path><path d="M136.75189983187195,-141.80239029146745A197,197,0,0,1,137.79432823738256,-140.7896413292131L119.3333887509847,-121.92740598079808A170.6070045455344,170.6070045455344,0,0,0,118.43061927018601,-122.80447230976667Z" fill-rule="evenodd" style="fill: #1DC690; stroke: #fff; opacity: 1;" id="p-type-logs"></path><path d="M137.79432823738256,-140.7896413292131A197,197,0,0,1,138.8292566979621,-139.7692293914914L120.22966308894613,-121.04370332040617A170.6070045455344,170.6070045455344,0,0,0,119.3333887509847,-121.92740598079808Z" fill-rule="evenodd" style="fill: #1DC690; stroke: #fff; opacity: 1;" id="p-type-logs"></path><path d="M196.99551498139806,-1.3293145653951448A197,197,0,0,1,196.99996093682955,0.12406001627431441L170.60697071583644,0.10743912568746716A170.6070045455344,170.6070045455344,0,0,0,170.60312040548868,-1.1512201832528657Z" fill-rule="evenodd" style="fill: #D7A449; stroke: #fff; opacity: 1;" id="p-type-tokenTransfers"></path><path d="M196.99996093682955,0.12406001627431441A197,197,0,0,1,196.99368447082796,1.5774278455374726L170.60153513683306,1.3660925868724068A170.6070045455344,170.6070045455344,0,0,0,170.60697071583644,0.10743912568746716Z" fill-rule="evenodd" style="fill: #D7A449; stroke: #fff; opacity: 1;" id="p-type-tokenTransfers"></path><path d="M196.99368447082796,1.5774278455374726A197,197,0,0,1,196.97668592501225,3.030709817696601L170.58681396432928,2.6246716936241614A170.6070045455344,170.6070045455344,0,0,0,170.60153513683306,1.3660925868724068Z" fill-rule="evenodd" style="fill: #D7A449; stroke: #fff; opacity: 1;" id="p-type-tokenTransfers"></path><path d="M196.97668592501225,3.030709817696601A197,197,0,0,1,196.94896622458853,4.483826832727047L170.56280799957705,3.8831079433119418A170.6070045455344,170.6070045455344,0,0,0,170.58681396432928,2.6246716936241614Z" fill-rule="evenodd" style="fill: #D7A449; stroke: #fff; opacity: 1;" id="p-type-tokenTransfers"></path><path d="M196.94896622458853,4.483826832727047A197,197,0,0,1,196.91052687829983,5.936699799582536L170.52951854918618,5.1413328410804615A170.6070045455344,170.6070045455344,0,0,0,170.56280799957705,3.8831079433119418Z" fill-rule="evenodd" style="fill: #D7A449; stroke: #fff; opacity: 1;" id="p-type-tokenTransfers"></path><path d="M196.91052687829983,5.936699799582536A197,197,0,0,1,196.86136997834382,7.389249640499979L170.486947425053,6.399277903578012A170.6070045455344,170.6070045455344,0,0,0,170.52951854918618,5.1413328410804615Z" fill-rule="evenodd" style="fill: #D7A449; stroke: #fff; opacity: 1;" id="p-type-tokenTransfers"></path><path d="M196.86136997834382,7.389249640499979A197,197,0,0,1,196.80149820025912,8.841397295303564L170.4350969442619,7.656874662683912A170.6070045455344,170.6070045455344,0,0,0,170.486947425053,6.399277903578012Z" fill-rule="evenodd" style="fill: #D7A449; stroke: #fff; opacity: 1;" id="p-type-tokenTransfers"></path><path d="M196.80149820025912,8.841397295303564A197,197,0,0,1,196.73091480277958,10.293063725707883L170.37396992895918,8.914054669235128A170.6070045455344,170.6070045455344,0,0,0,170.4350969442619,7.656874662683912Z" fill-rule="evenodd" style="fill: #D7A449; stroke: #fff; opacity: 1;" id="p-type-tokenTransfers"></path><path d="M196.73091480277958,10.293063725707883A197,197,0,0,1,196.64962362765687,11.744169919619871L170.30356970619943,10.170749496751858A170.6070045455344,170.6070045455344,0,0,0,170.37396992895918,8.914054669235128Z" fill-rule="evenodd" style="fill: #D7A449; stroke: #fff; opacity: 1;" id="p-type-tokenTransfers"></path><path d="M196.64962362765687,11.744169919619871A197,197,0,0,1,196.55762909945142,13.194636895439325L170.22390010776434,11.426890745161893A170.6070045455344,170.6070045455344,0,0,0,170.30356970619943,10.170749496751858Z" fill-rule="evenodd" style="fill: #D7A449; stroke: #fff; opacity: 1;" id="p-type-tokenTransfers"></path><path d="M196.55762909945142,13.194636895439325A197,197,0,0,1,196.4549362252917,14.64438570635775L170.13496546995438,12.682410044523532A170.6070045455344,170.6070045455344,0,0,0,170.22390010776434,11.426890745161893Z" fill-rule="evenodd" style="fill: #D7A449; stroke: #fff; opacity: 1;" id="p-type-tokenTransfers"></path><path d="M196.4549362252917,14.64438570635775A197,197,0,0,1,196.34155059460147,16.093337444655326L170.03677063335255,13.937239058746853A170.6070045455344,170.6070045455344,0,0,0,170.13496546995438,12.682410044523532Z" fill-rule="evenodd" style="fill: #D7A449; stroke: #fff; opacity: 1;" id="p-type-tokenTransfers"></path><path d="M196.34155059460147,16.093337444655326A197,197,0,0,1,196.21747837879582,17.541413245995727L169.92932094256102,15.19130948931315A170.6070045455344,170.6070045455344,0,0,0,170.03677063335255,13.937239058746853Z" fill-rule="evenodd" style="fill: #D7A449; stroke: #fff; opacity: 1;" id="p-type-tokenTransfers"></path><path d="M196.21747837879582,17.541413245995727A197,197,0,0,1,196.082726330945,18.98853429371861L169.81262224591023,16.44455307899232A170.6070045455344,170.6070045455344,0,0,0,169.92932094256102,15.19130948931315Z" fill-rule="evenodd" style="fill: #D7A449; stroke: #fff; opacity: 1;" id="p-type-tokenTransfers"></path><path d="M196.082726330945,18.98853429371861A197,197,0,0,1,195.93730178540704,20.434621823129493L169.68668089514054,17.69690161555802A170.6070045455344,170.6070045455344,0,0,0,169.81262224591023,16.44455307899232Z" fill-rule="evenodd" style="fill: #D7A449; stroke: #fff; opacity: 1;" id="p-type-tokenTransfers"></path><path d="M195.93730178540704,20.434621823129493A197,197,0,0,1,195.78121265742857,21.879597125786766L169.5515037450566,18.948286935500327A170.6070045455344,170.6070045455344,0,0,0,169.68668089514054,17.69690161555802Z" fill-rule="evenodd" style="fill: #D7A449; stroke: #fff; opacity: 1;" id="p-type-tokenTransfers"></path><path d="M195.78121265742857,21.879597125786766A197,197,0,0,1,195.6144674427138,23.32338155378573L169.40709815315412,20.198640927735813A170.6070045455344,170.6070045455344,0,0,0,169.5515037450566,18.948286935500327Z" fill-rule="evenodd" style="fill: #D7A449; stroke: #fff; opacity: 1;" id="p-type-tokenTransfers"></path><path d="M195.6144674427138,23.32338155378573A197,197,0,0,1,195.4370752169623,24.76589652403925L169.25347197921948,21.447895537314718A170.6070045455344,170.6070045455344,0,0,0,169.40709815315412,20.198640927735813Z" fill-rule="evenodd" style="fill: #D7A449; stroke: #fff; opacity: 1;" id="p-type-tokenTransfers"></path><path d="M195.4370752169623,24.76589652403925A197,197,0,0,1,195.24904563537504,26.207063522554932L169.09063358490195,22.695982769125067A170.6070045455344,170.6070045455344,0,0,0,169.25347197921948,21.447895537314718Z" fill-rule="evenodd" style="fill: #D7A449; stroke: #fff; opacity: 1;" id="p-type-tokenTransfers"></path><path d="M195.24904563537504,26.207063522554932A197,197,0,0,1,195.05038893212875,27.646804108708526L168.9185918332586,23.94283469159358A170.6070045455344,170.6070045455344,0,0,0,169.09063358490195,22.695982769125067Z" fill-rule="evenodd" style="fill: #D7A449; stroke: #fff; opacity: 1;" id="p-type-tokenTransfers"></path><path d="M195.05038893212875,27.646804108708526A197,197,0,0,1,194.84111591981892,29.08503991951332L168.7373560882718,25.188383440383042A170.6070045455344,170.6070045455344,0,0,0,168.9185918332586,23.94283469159358Z" fill-rule="evenodd" style="fill: #D7A449; stroke: #fff; opacity: 1;" id="p-type-tokenTransfers"></path><path d="M194.84111591981892,29.08503991951332A197,197,0,0,1,194.62123798887134,30.521692673885365L168.54693621433964,26.432561222086115A170.6070045455344,170.6070045455344,0,0,0,168.7373560882718,25.188383440383042Z" fill-rule="evenodd" style="fill: #D7A449; stroke: #fff; opacity: 1;" id="p-type-tokenTransfers"></path><path d="M194.62123798887134,30.521692673885365A197,197,0,0,1,194.39076710692203,31.956684176904144L168.34734257573894,27.67530031791519A170.6070045455344,170.6070045455344,0,0,0,168.54693621433964,26.432561222086115Z" fill-rule="evenodd" style="fill: #D7A449; stroke: #fff; opacity: 1;" id="p-type-tokenTransfers"></path><path d="M194.39076710692203,31.956684176904144A197,197,0,0,1,194.14971581816607,33.38993632406865L168.13858603606127,28.916533087388245A170.6070045455344,170.6070045455344,0,0,0,168.34734257573894,27.67530031791519Z" fill-rule="evenodd" style="fill: #D7A449; stroke: #fff; opacity: 1;" id="p-type-tokenTransfers"></path><path d="M194.14971581816607,33.38993632406865A197,197,0,0,1,193.89809724267454,34.82137110554847L167.92067795762156,30.1561919720104A170.6070045455344,170.6070045455344,0,0,0,168.13858603606127,28.916533087388245Z" fill-rule="evenodd" style="fill: #D7A449; stroke: #fff; opacity: 1;" id="p-type-tokenTransfers"></path><path d="M193.89809724267454,34.82137110554847A197,197,0,0,1,193.63592507568072,36.25091061042979L167.6936302008397,31.39420949895105A170.6070045455344,170.6070045455344,0,0,0,167.92067795762156,30.1561919720104Z" fill-rule="evenodd" style="fill: #D7A449; stroke: #fff; opacity: 1;" id="p-type-tokenTransfers"></path><path d="M193.63592507568072,36.25091061042979A197,197,0,0,1,193.36321358683438,37.678477030955925L167.45745512359488,32.630518284716295A170.6070045455344,170.6070045455344,0,0,0,167.6936302008397,31.39420949895105Z" fill-rule="evenodd" style="fill: #D7A449; stroke: #fff; opacity: 1;" id="p-type-tokenTransfers"></path><path d="M193.36321358683438,37.678477030955925A197,197,0,0,1,193.07997761942536,39.103992666762295L167.21216558055323,33.865051038816546A170.6070045455344,170.6070045455344,0,0,0,167.45745512359488,32.630518284716295Z" fill-rule="evenodd" style="fill: #D7A449; stroke: #fff; opacity: 1;" id="p-type-tokenTransfers"></path><path d="M193.07997761942536,39.103992666762295A197,197,0,0,1,192.78623258957558,40.527379929105585L166.95777492246788,35.09774056742902A170.6070045455344,170.6070045455344,0,0,0,167.21216558055323,33.865051038816546Z" fill-rule="evenodd" style="fill: #D7A449; stroke: #fff; opacity: 1;" id="p-type-tokenTransfers"></path><path d="M192.78623258957558,40.527379929105585A197,197,0,0,1,192.48199448539984,41.948561345086716L166.69429699545248,36.328519777055014A170.6070045455344,170.6070045455344,0,0,0,166.95777492246788,35.09774056742902Z" fill-rule="evenodd" style="fill: #D7A449; stroke: #fff; opacity: 1;" id="p-type-tokenTransfers"></path><path d="M192.48199448539984,41.948561345086716A197,197,0,0,1,192.16727986613583,43.36745956186764L166.4217461402275,37.55732167817174A170.6070045455344,170.6070045455344,0,0,0,166.69429699545248,36.328519777055014Z" fill-rule="evenodd" style="fill: #D7A449; stroke: #fff; opacity: 1;" id="p-type-tokenTransfers"></path><path d="M192.16727986613583,43.36745956186764A197,197,0,0,1,191.84210586124266,44.78399735088151L166.1401371913397,38.784079388878396A170.6070045455344,170.6070045455344,0,0,0,166.4217461402275,37.55732167817174Z" fill-rule="evenodd" style="fill: #D7A449; stroke: #fff; opacity: 1;" id="p-type-tokenTransfers"></path><path d="M191.84210586124266,44.78399735088151A197,197,0,0,1,191.5064901694686,46.19809761203614L165.8494854763547,40.00872613853652A170.6070045455344,170.6070045455344,0,0,0,166.1401371913397,38.784079388878396Z" fill-rule="evenodd" style="fill: #D7A449; stroke: #fff; opacity: 1;" id="p-type-tokenTransfers"></path><path d="M191.5064901694686,46.19809761203614A197,197,0,0,1,191.1604510578878,47.60968337791044L165.5498068150227,41.23119527140417A170.6070045455344,170.6070045455344,0,0,0,165.8494854763547,40.00872613853652Z" fill-rule="evenodd" style="fill: #D7A449; stroke: #fff; opacity: 1;" id="p-type-tokenTransfers"></path><path d="M191.1604510578878,47.60968337791044A197,197,0,0,1,190.80400736090593,49.01867781794364L165.24111751841755,42.45142025026395A170.6070045455344,170.6070045455344,0,0,0,165.5498068150227,41.23119527140417Z" fill-rule="evenodd" style="fill: #D7A449; stroke: #fff; opacity: 1;" id="p-type-tokenTransfers"></path><path d="M190.80400736090593,49.01867781794364A197,197,0,0,1,190.43717847923511,50.42500424261706L164.9234343880488,43.66933466004447A170.6070045455344,170.6070045455344,0,0,0,165.24111751841755,42.45142025026395Z" fill-rule="evenodd" style="fill: #D7A449; stroke: #fff; opacity: 1;" id="p-type-tokenTransfers"></path><path d="M190.43717847923511,50.42500424261706A197,197,0,0,1,190.05998437883804,51.828586107628226L164.59677471494732,44.88487221143528A170.6070045455344,170.6070045455344,0,0,0,164.9234343880488,43.66933466004447Z" fill-rule="evenodd" style="fill: #D7A449; stroke: #fff; opacity: 1;" id="p-type-tokenTransfers"></path><path d="M190.05998437883804,51.828586107628226A197,197,0,0,1,189.67244558984117,53.22934701805706L164.26115627872417,46.09796674449487A170.6070045455344,170.6070045455344,0,0,0,164.59677471494732,44.88487221143528Z" fill-rule="evenodd" style="fill: #D7A449; stroke: #fff; opacity: 1;" id="p-type-tokenTransfers"></path><path d="M189.67244558984117,53.22934701805706A197,197,0,0,1,189.27458320541726,54.62721073252392L163.9165973466028,47.30855223225165A170.6070045455344,170.6070045455344,0,0,0,164.26115627872417,46.09796674449487Z" fill-rule="evenodd" style="fill: #D7A449; stroke: #fff; opacity: 1;" id="p-type-tokenTransfers"></path><path d="M189.27458320541726,54.62721073252392A197,197,0,0,1,188.8664188806374,56.02210116733936L163.56311667242494,48.51656278429773A170.6070045455344,170.6070045455344,0,0,0,163.9165973466028,47.30855223225165Z" fill-rule="evenodd" style="fill: #D7A449; stroke: #fff; opacity: 1;" id="p-type-tokenTransfers"></path><path d="M188.8664188806374,56.02210116733936A197,197,0,0,1,188.44797483129236,57.413942400645176L163.2007334956297,49.721932650375244A170.6070045455344,170.6070045455344,0,0,0,163.56311667242494,48.51656278429773Z" fill-rule="evenodd" style="fill: #D7A449; stroke: #fff; opacity: 1;" id="p-type-tokenTransfers"></path><path d="M188.44797483129236,57.413942400645176A197,197,0,0,1,188.01927383268327,58.802658676546834L162.82946754020645,50.92459622395499A170.6070045455344,170.6070045455344,0,0,0,163.2007334956297,49.721932650375244Z" fill-rule="evenodd" style="fill: #D7A449; stroke: #fff; opacity: 1;" id="p-type-tokenTransfers"></path><path d="M188.01927383268327,58.802658676546834A197,197,0,0,1,187.58033921838214,60.18817440923661L162.44933901362137,52.12448804580735A170.6070045455344,170.6070045455344,0,0,0,162.82946754020645,50.92459622395499Z" fill-rule="evenodd" style="fill: #D7A449; stroke: #fff; opacity: 1;" id="p-type-tokenTransfers"></path><path d="M187.58033921838214,60.18817440923661A197,197,0,0,1,187.13119487896185,61.57041418710776L162.06036860571743,53.32154280756512A170.6070045455344,170.6070045455344,0,0,0,162.44933901362137,52.12448804580735Z" fill-rule="evenodd" style="fill: #D7A449; stroke: #fff; opacity: 1;" id="p-type-tokenTransfers"></path><path d="M187.13119487896185,61.57041418710776A197,197,0,0,1,186.67186526069574,62.949302776858964L161.66257748758835,54.51569535527817A170.6070045455344,170.6070045455344,0,0,0,162.06036860571743,53.32154280756512Z" fill-rule="evenodd" style="fill: #D7A449; stroke: #fff; opacity: 1;" id="p-type-tokenTransfers"></path><path d="M186.67186526069574,62.949302776858964A197,197,0,0,1,186.20237536422698,64.32476512758919L161.2559873104263,55.70688069295961A170.6070045455344,170.6070045455344,0,0,0,161.66257748758835,54.51569535527817Z" fill-rule="evenodd" style="fill: #D7A449; stroke: #fff; opacity: 1;" id="p-type-tokenTransfers"></path><path d="M186.20237536422698,64.32476512758919A197,197,0,0,1,185.72275074320808,65.69672637488266L160.84062020434342,56.895033986123536A170.6070045455344,170.6070045455344,0,0,0,161.2559873104263,55.70688069295961Z" fill-rule="evenodd" style="fill: #D7A449; stroke: #fff; opacity: 1;" id="p-type-tokenTransfers"></path><path d="M185.72275074320808,65.69672637488266A197,197,0,0,1,185.23301750290975,67.06511184488352L160.4164987771674,58.08009056531379A170.6070045455344,170.6070045455344,0,0,0,160.84062020434342,56.895033986123536Z" fill-rule="evenodd" style="fill: #D7A449; stroke: #fff; opacity: 1;" id="p-type-tokenTransfers"></path><path d="M185.23301750290975,67.06511184488352A197,197,0,0,1,184.73320229880014,68.42984705836028L159.98364611321077,59.26198592962384A170.6070045455344,170.6070045455344,0,0,0,160.4164987771674,58.08009056531379Z" fill-rule="evenodd" style="fill: #D7A449; stroke: #fff; opacity: 1;" id="p-type-tokenTransfers"></path><path d="M184.73320229880014,68.42984705836028A197,197,0,0,1,184.22333233509414,69.79085773475964L159.54208577201473,60.440655750207526A170.6070045455344,170.6070045455344,0,0,0,159.98364611321077,59.26198592962384Z" fill-rule="evenodd" style="fill: #D7A449; stroke: #fff; opacity: 1;" id="p-type-tokenTransfers"></path><path d="M184.22333233509414,69.79085773475964A197,197,0,0,1,183.70343536327246,71.14806979624937L159.09184178706656,61.61603587378029A170.6070045455344,170.6070045455344,0,0,0,159.54208577201473,60.440655750207526Z" fill-rule="evenodd" style="fill: #D7A449; stroke: #fff; opacity: 1;" id="p-type-tokenTransfers"></path><path d="M183.70343536327246,71.14806979624937A197,197,0,0,1,183.1735396805714,72.5014093717504L158.63293866449175,62.788062326111024A170.6070045455344,170.6070045455344,0,0,0,159.09184178706656,61.61603587378029Z" fill-rule="evenodd" style="fill: #D7A449; stroke: #fff; opacity: 1;" id="p-type-tokenTransfers"></path><path d="M183.1735396805714,72.5014093717504A197,197,0,0,1,182.63367412844244,73.85080280095742L158.16540138171993,63.9566713155041A170.6070045455344,170.6070045455344,0,0,0,158.63293866449175,62.788062326111024Z" fill-rule="evenodd" style="fill: #D7A449; stroke: #fff; opacity: 1;" id="p-type-tokenTransfers"></path><path d="M182.63367412844244,73.85080280095742A197,197,0,0,1,182.0838680909826,75.19617663834809L157.68925538612567,65.12179923627137A170.6070045455344,170.6070045455344,0,0,0,158.16540138171993,63.9566713155041Z" fill-rule="evenodd" style="fill: #D7A449; stroke: #fff; opacity: 1;" id="p-type-tokenTransfers"></path><path d="M182.0838680909826,75.19617663834809A197,197,0,0,1,181.52415149333513,76.53745765718065L157.20452659364315,66.28338267219425A170.6070045455344,170.6070045455344,0,0,0,157.68925538612567,65.12179923627137Z" fill-rule="evenodd" style="fill: #D7A449; stroke: #fff; opacity: 1;" id="p-type-tokenTransfers"></path><path d="M181.52415149333513,76.53745765718065A197,197,0,0,1,180.95455480006055,77.87457285347948L156.71124138735576,67.44135839997524A170.6070045455344,170.6070045455344,0,0,0,157.20452659364315,66.28338267219425Z" fill-rule="evenodd" style="fill: #D7A449; stroke: #fff; opacity: 1;" id="p-type-tokenTransfers"></path><path d="M180.95455480006055,77.87457285347948A197,197,0,0,1,180.37510901347872,79.20744945000862L156.20942661606003,68.59566339267923A170.6070045455344,170.6070045455344,0,0,0,156.71124138735576,67.44135839997524Z" fill-rule="evenodd" style="fill: #D7A449; stroke: #fff; opacity: 1;" id="p-type-tokenTransfers"></path><path d="M180.37510901347872,79.20744945000862A197,197,0,0,1,179.78584567198124,80.53601490023296L155.69910959280432,69.74623482316382A170.6070045455344,170.6070045455344,0,0,0,156.20942661606003,68.59566339267923Z" fill-rule="evenodd" style="fill: #D7A449; stroke: #fff; opacity: 1;" id="p-type-tokenTransfers"></path><path d="M179.78584567198124,80.53601490023296A197,197,0,0,1,179.186796848315,81.86019689226679L155.18031809340218,70.89301006749899A170.6070045455344,170.6070045455344,0,0,0,155.69910959280432,69.74623482316382Z" fill-rule="evenodd" style="fill: #D7A449; stroke: #fff; opacity: 1;" id="p-type-tokenTransfers"></path><path d="M179.186796848315,81.86019689226679A197,197,0,0,1,178.5779951478365,83.17992335280964L154.65308035492063,72.03592670837563A170.6070045455344,170.6070045455344,0,0,0,155.18031809340218,70.89301006749899Z" fill-rule="evenodd" style="fill: #D7A449; stroke: #fff; opacity: 1;" id="p-type-tokenTransfers"></path><path d="M178.5779951478365,83.17992335280964A197,197,0,0,1,177.95947370673701,84.49512245106921L154.11742507414309,73.1749225385028A170.6070045455344,170.6070045455344,0,0,0,154.65308035492063,72.03592670837563Z" fill-rule="evenodd" style="fill: #D7A449; stroke: #fff; opacity: 1;" id="p-type-tokenTransfers"></path><path d="M177.95947370673701,84.49512245106921A197,197,0,0,1,177.33126619023926,85.80572260267087L153.57338140600774,74.30993556399356A170.6070045455344,170.6070045455344,0,0,0,154.11742507414309,73.1749225385028Z" fill-rule="evenodd" style="fill: #D7A449; stroke: #fff; opacity: 1;" id="p-type-tokenTransfers"></path><path d="M177.33126619023926,85.80572260267087A197,197,0,0,1,176.69340679076498,87.11165247355402L153.0209789620203,75.4409040077393A170.6070045455344,170.6070045455344,0,0,0,153.57338140600774,74.30993556399356Z" fill-rule="evenodd" style="fill: #D7A449; stroke: #fff; opacity: 1;" id="p-type-tokenTransfers"></path><path d="M176.69340679076498,87.11165247355402A197,197,0,0,1,176.0459302260738,88.41284098385461L152.46024780864266,76.56776631277205A170.6070045455344,170.6070045455344,0,0,0,153.0209789620203,75.4409040077393Z" fill-rule="evenodd" style="fill: #D7A449; stroke: #fff; opacity: 1;" id="p-type-tokenTransfers"></path><path d="M176.0459302260738,88.41284098385461A197,197,0,0,1,175.38887173737368,89.70921731177397L151.89121846565615,77.690461145615A170.6070045455344,170.6070045455344,0,0,0,152.46024780864266,76.56776631277205Z" fill-rule="evenodd" style="fill: #D7A449; stroke: #fff; opacity: 1;" id="p-type-tokenTransfers"></path><path d="M175.38887173737368,89.70921731177397A197,197,0,0,1,174.7222670874028,91.00071089743354L151.31392190450055,78.80892739962084A170.6070045455344,170.6070045455344,0,0,0,151.89121846565615,77.690461145615Z" fill-rule="evenodd" style="fill: #D7A449; stroke: #fff; opacity: 1;" id="p-type-tokenTransfers"></path><path d="M174.7222670874028,91.00071089743354A197,197,0,0,1,174.04615255848302,92.28725144671527L150.72838954658826,79.92310419829761A170.6070045455344,170.6070045455344,0,0,0,151.31392190450055,78.80892739962084Z" fill-rule="evenodd" style="fill: #D7A449; stroke: #fff; opacity: 1;" id="p-type-tokenTransfers"></path><path d="M174.04615255848302,92.28725144671527A197,197,0,0,1,173.3605649505451,93.56876893508775L150.1346532615942,81.0329308986222A170.6070045455344,170.6070045455344,0,0,0,150.72838954658826,79.92310419829761Z" fill-rule="evenodd" style="fill: #D7A449; stroke: #fff; opacity: 1;" id="p-type-tokenTransfers"></path><path d="M173.3605649505451,93.56876893508775A197,197,0,0,1,172.6655415791256,94.8451936114174L149.532745365721,82.13834709434101A170.6070045455344,170.6070045455344,0,0,0,150.1346532615942,81.0329308986222Z" fill-rule="evenodd" style="fill: #D7A449; stroke: #fff; opacity: 1;" id="p-type-tokenTransfers"></path><path d="M172.6655415791256,94.8451936114174A197,197,0,0,1,171.9611202733361,96.11645600176504L148.92269861994032,83.2392926192578A170.6070045455344,170.6070045455344,0,0,0,149.532745365721,82.13834709434101Z" fill-rule="evenodd" style="fill: #D7A449; stroke: #fff; opacity: 1;" id="p-type-tokenTransfers"></path><path d="M171.9611202733361,96.11645600176504A197,197,0,0,1,171.24733937380407,97.38248691316721L148.30454622820946,84.33570755050845A170.6070045455344,170.6070045455344,0,0,0,148.92269861994032,83.2392926192578Z" fill-rule="evenodd" style="fill: #D7A449; stroke: #fff; opacity: 1;" id="p-type-tokenTransfers"></path><path d="M171.24733937380407,97.38248691316721A197,197,0,0,1,170.52423773058595,98.6432174374022L147.6783218356643,85.42753221182242A170.6070045455344,170.6070045455344,0,0,0,148.30454622820946,84.33570755050845Z" fill-rule="evenodd" style="fill: #D7A449; stroke: #fff; opacity: 1;" id="p-type-tokenTransfers"></path><path d="M170.52423773058595,98.6432174374022A197,197,0,0,1,169.7918547010528,99.89857895474071L147.044059526788,86.51470717677095A170.6070045455344,170.6070045455344,0,0,0,147.6783218356643,85.42753221182242Z" fill-rule="evenodd" style="fill: #D7A449; stroke: #fff; opacity: 1;" id="p-type-tokenTransfers"></path><path d="M169.7918547010528,99.89857895474071A197,197,0,0,1,169.0502301477481,101.14850313768069L146.40179382355583,87.59717327200147A170.6070045455344,170.6070045455344,0,0,0,147.044059526788,86.51470717677095Z" fill-rule="evenodd" style="fill: #D7A449; stroke: #fff; opacity: 1;" id="p-type-tokenTransfers"></path><path d="M169.0502301477481,101.14850313768069A197,197,0,0,1,168.29940443621786,102.39292195466622L145.7515596835561,88.67487158045833A170.6070045455344,170.6070045455344,0,0,0,146.40179382355583,87.59717327200147Z" fill-rule="evenodd" style="fill: #D7A449; stroke: #fff; opacity: 1;" id="p-type-tokenTransfers"></path><path d="M168.29940443621786,102.39292195466622A197,197,0,0,1,167.5394184328139,103.63176767379053L145.09339249808767,89.74774344458959A170.6070045455344,170.6070045455344,0,0,0,145.7515596835561,88.67487158045833Z" fill-rule="evenodd" style="fill: #D7A449; stroke: #fff; opacity: 1;" id="p-type-tokenTransfers"></path><path d="M167.5394184328139,103.63176767379053A197,197,0,0,1,166.77031350246932,104.86497286648243L144.4273280902334,90.81573046953964A170.6070045455344,170.6070045455344,0,0,0,145.09339249808767,89.74774344458959Z" fill-rule="evenodd" style="fill: #D7A449; stroke: #fff; opacity: 1;" id="p-type-tokenTransfers"></path><path d="M166.77031350246932,104.86497286648243A197,197,0,0,1,165.9921315064472,106.09247041117635L143.7534027129106,91.8787745263276A170.6070045455344,170.6070045455344,0,0,0,144.4273280902334,90.81573046953964Z" fill-rule="evenodd" style="fill: #D7A449; stroke: #fff; opacity: 1;" id="p-type-tokenTransfers"></path><path d="M165.9921315064472,106.09247041117635A197,197,0,0,1,165.20491480006214,107.31419349696577L143.07165304689758,92.93681775501116A170.6070045455344,170.6070045455344,0,0,0,143.7534027129106,91.8787745263276Z" fill-rule="evenodd" style="fill: #D7A449; stroke: #fff; opacity: 1;" id="p-type-tokenTransfers"></path><path d="M165.20491480006214,107.31419349696577A197,197,0,0,1,164.40870623037478,108.5300756272395L142.38211619883748,93.98980256783574A170.6070045455344,170.6070045455344,0,0,0,143.07165304689758,92.93681775501116Z" fill-rule="evenodd" style="fill: #D7A449; stroke: #fff; opacity: 1;" id="p-type-tokenTransfers"></path><path d="M164.40870623037478,108.5300756272395A197,197,0,0,1,163.6035491338599,109.74005062330112L141.68482969921826,95.03767165236908A170.6070045455344,170.6070045455344,0,0,0,142.38211619883748,93.98980256783574Z" fill-rule="evenodd" style="fill: #D7A449; stroke: #fff; opacity: 1;" id="p-type-tokenTransfers"></path><path d="M163.6035491338599,109.74005062330112A197,197,0,0,1,162.78948733404755,110.9440526279709L140.97983150033028,96.0803679746205A170.6070045455344,170.6070045455344,0,0,0,141.68482969921826,95.03767165236908Z" fill-rule="evenodd" style="fill: #D7A449; stroke: #fff; opacity: 1;" id="p-type-tokenTransfers"></path><path d="M162.78948733404755,110.9440526279709A197,197,0,0,1,161.96656513913783,112.14201610917037L140.2671599742004,97.1178347821453A170.6070045455344,170.6070045455344,0,0,0,140.97983150033028,96.0803679746205Z" fill-rule="evenodd" style="fill: #D7A449; stroke: #fff; opacity: 1;" id="p-type-tokenTransfers"></path><path d="M161.96656513913783,112.14201610917037A197,197,0,0,1,161.13482733958926,113.33387586348908L139.5468539105036,98.15001560713358A170.6070045455344,170.6070045455344,0,0,0,140.2671599742004,97.1178347821453Z" fill-rule="evenodd" style="fill: #D7A449; stroke: #fff; opacity: 1;" id="p-type-tokenTransfers"></path><path d="M161.13482733958926,113.33387586348908A197,197,0,0,1,160.29431920568095,114.51956701973363L138.81895251445155,99.1768542694839A170.6070045455344,170.6070045455344,0,0,0,139.5468539105036,98.15001560713358Z" fill-rule="evenodd" style="fill: #D7A449; stroke: #fff; opacity: 1;" id="p-type-tokenTransfers"></path><path d="M160.29431920568095,114.51956701973363A197,197,0,0,1,159.44508648504848,115.69902504245837L138.08349540465886,100.1982948798609A170.6070045455344,170.6070045455344,0,0,0,138.81895251445155,99.1768542694839Z" fill-rule="evenodd" style="fill: #D7A449; stroke: #fff; opacity: 1;" id="p-type-tokenTransfers"></path><path d="M159.44508648504848,115.69902504245837A197,197,0,0,1,158.58717540019407,116.87218573547808L137.34052261098665,101.21428184273731A170.6070045455344,170.6070045455344,0,0,0,138.08349540465886,100.1982948798609Z" fill-rule="evenodd" style="fill: #D7A449; stroke: #fff; opacity: 1;" id="p-type-tokenTransfers"></path><path d="M158.58717540019407,116.87218573547808A197,197,0,0,1,157.7206326459706,118.03898524536201L136.59007457236382,102.22475985942003A170.6070045455344,170.6070045455344,0,0,0,137.34052261098665,101.21428184273731Z" fill-rule="evenodd" style="fill: #D7A449; stroke: #fff; opacity: 1;" id="p-type-tokenTransfers"></path><path d="M157.7206326459706,118.03898524536201A197,197,0,0,1,156.84550538704028,119.19936006490941L135.83219213458588,103.22967393105986A170.6070045455344,170.6070045455344,0,0,0,136.59007457236382,102.22475985942003Z" fill-rule="evenodd" style="fill: #D7A449; stroke: #fff; opacity: 1;" id="p-type-tokenTransfers"></path><path d="M156.84550538704028,119.19936006490941A197,197,0,0,1,155.96184125530732,120.35324703660605L135.06691654809202,104.22896936164504A170.6070045455344,170.6070045455344,0,0,0,135.83219213458588,103.22967393105986Z" fill-rule="evenodd" style="fill: #D7A449; stroke: #fff; opacity: 1;" id="p-type-tokenTransfers"></path><path d="M155.96184125530732,120.35324703660605A197,197,0,0,1,155.06968834732558,121.50058335606181L134.2942894657197,105.22259176097826A170.6070045455344,170.6070045455344,0,0,0,135.06691654809202,104.22896936164504Z" fill-rule="evenodd" style="fill: #D7A449; stroke: #fff; opacity: 1;" id="p-type-tokenTransfers"></path><path d="M155.06968834732558,121.50058335606181A197,197,0,0,1,154.1690952216806,122.64130657542907L133.5143529404375,106.21048704763709A170.6070045455344,170.6070045455344,0,0,0,134.2942894657197,105.22259176097826Z" fill-rule="evenodd" style="fill: #D7A449; stroke: #fff; opacity: 1;" id="p-type-tokenTransfers"></path><path d="M154.1690952216806,122.64130657542907A197,197,0,0,1,153.26011089634676,123.77535460680163L132.72714942305655,107.19260145191745A170.6070045455344,170.6070045455344,0,0,0,133.5143529404375,106.21048704763709Z" fill-rule="evenodd" style="fill: #D7A449; stroke: #fff; opacity: 1;" id="p-type-tokenTransfers"></path><path d="M153.26011089634676,123.77535460680163A197,197,0,0,1,152.34278484601924,124.90266572559406L131.93272175991967,108.16888151876036A170.6070045455344,170.6070045455344,0,0,0,132.72714942305655,107.19260145191745Z" fill-rule="evenodd" style="fill: #D7A449; stroke: #fff; opacity: 1;" id="p-type-tokenTransfers"></path><path d="M152.34278484601924,124.90266572559406A197,197,0,0,1,151.4171669994211,126.0231785739013L131.13111319056944,109.13927411066129A170.6070045455344,170.6070045455344,0,0,0,131.93272175991967,108.16888151876036Z" fill-rule="evenodd" style="fill: #D7A449; stroke: #fff; opacity: 1;" id="p-type-tokenTransfers"></path><path d="M151.4171669994211,126.0231785739013A197,197,0,0,1,150.4833077365859,127.13683216383828L130.32236734539475,110.10372641056244A170.6070045455344,170.6070045455344,0,0,0,131.13111319056944,109.13927411066129Z" fill-rule="evenodd" style="fill: #D7A449; stroke: #fff; opacity: 1;" id="p-type-tokenTransfers"></path><path d="M150.4833077365859,127.13683216383828A197,197,0,0,1,149.5412578861155,128.2435658808593L129.50652824325604,111.06218592472743A170.6070045455344,170.6070045455344,0,0,0,130.32236734539475,110.10372641056244Z" fill-rule="evenodd" style="fill: #D7A449; stroke: #fff; opacity: 1;" id="p-type-tokenTransfers"></path><path d="M28.7168868074656,194.89571676177803A197,197,0,0,1,18.564518268458947,196.1233251336007L16.077344429505747,169.8477818403733A170.6070045455344,170.6070045455344,0,0,0,24.869553492867414,168.78464180447642Z" fill-rule="evenodd" style="fill: #414552; stroke: #fff; opacity: 1;" id="p-type-ether"></path><path d="M18.564518268458947,196.1233251336007A197,197,0,0,1,9.515889358726351,196.77003798778023L8.24100192425903,170.4078516010467A170.6070045455344,170.6070045455344,0,0,0,16.077344429505747,169.8477818403733Z" fill-rule="evenodd" style="fill: #414552; stroke: #fff; opacity: 1;" id="p-type-ether"></path><path d="M9.515889358726351,196.77003798778023A197,197,0,0,1,1.0590004578103025,196.9971535784981L0.9171212990830726,170.60453947220387A170.6070045455344,170.6070045455344,0,0,0,8.24100192425903,170.4078516010467Z" fill-rule="evenodd" style="fill: #414552; stroke: #fff; opacity: 1;" id="p-type-ether"></path><path d="M1.0590004578103025,196.9971535784981A197,197,0,0,1,-7.01451665676799,196.87507855508764L-6.074749620030169,170.49881940076284A170.6070045455344,170.6070045455344,0,0,0,0.9171212990830726,170.60453947220387Z" fill-rule="evenodd" style="fill: #414552; stroke: #fff; opacity: 1;" id="p-type-ether"></path><path d="M-7.01451665676799,196.87507855508764A197,197,0,0,1,-14.867422824593907,196.43818299545214L-12.875565854902918,170.1204567473179A170.6070045455344,170.6070045455344,0,0,0,-6.074749620030169,170.49881940076284Z" fill-rule="evenodd" style="fill: #414552; stroke: #fff; opacity: 1;" id="p-type-ether"></path><path d="M-14.867422824593907,196.43818299545214A197,197,0,0,1,-21.758542430391984,195.79470327693963L-18.843450494041058,169.56318696426598A170.6070045455344,170.6070045455344,0,0,0,-12.875565854902918,170.1204567473179Z" fill-rule="evenodd" style="fill: #414552; stroke: #fff; opacity: 1;" id="p-type-ether"></path><path d="M-21.758542430391984,195.79470327693963A197,197,0,0,1,-28.569312392480324,194.91740401878144L-24.74175030054154,168.80342351997976A170.6070045455344,170.6070045455344,0,0,0,-18.843450494041058,169.56318696426598Z" fill-rule="evenodd" style="fill: #414552; stroke: #fff; opacity: 1;" id="p-type-ether"></path><path d="M-28.569312392480324,194.91740401878144A197,197,0,0,1,-33.85518554829218,194.06912791964288L-29.319450734656826,168.06879486870258A170.6070045455344,170.6070045455344,0,0,0,-24.74175030054154,168.80342351997976Z" fill-rule="evenodd" style="fill: #414552; stroke: #fff; opacity: 1;" id="p-type-ether"></path><path d="M-33.85518554829218,194.06912791964288A197,197,0,0,1,-38.85351211937599,193.1305377095748L-33.64812852162617,167.25595190304028A170.6070045455344,170.6070045455344,0,0,0,-29.319450734656826,168.06879486870258Z" fill-rule="evenodd" style="fill: #414552; stroke: #fff; opacity: 1;" id="p-type-ether"></path><path d="M-38.85351211937599,193.1305377095748A197,197,0,0,1,-43.11815930513129,192.22337094676422L-37.34142132266808,166.4703224409774A170.6070045455344,170.6070045455344,0,0,0,-33.64812852162617,167.25595190304028Z" fill-rule="evenodd" style="fill: #414552; stroke: #fff; opacity: 1;" id="p-type-ether"></path><path d="M-43.11815930513129,192.22337094676422A197,197,0,0,1,-46.44881318180726,191.44583503957867L-40.22585219108259,165.79695659300015A170.6070045455344,170.6070045455344,0,0,0,-37.34142132266808,166.4703224409774Z" fill-rule="evenodd" style="fill: #414552; stroke: #fff; opacity: 1;" id="p-type-ether"></path><path d="M-46.44881318180726,191.44583503957867A197,197,0,0,1,-49.5224970519793,190.67386366709178L-42.88774050585404,165.12840977343217A170.6070045455344,170.6070045455344,0,0,0,-40.22585219108259,165.79695659300015Z" fill-rule="evenodd" style="fill: #414552; stroke: #fff; opacity: 1;" id="p-type-ether"></path><path d="M-49.5224970519793,190.67386366709178A197,197,0,0,1,-52.279986337769444,189.93631308552517L-45.27579627801172,164.4896722332195A170.6070045455344,170.6070045455344,0,0,0,-42.88774050585404,165.12840977343217Z" fill-rule="evenodd" style="fill: #414552; stroke: #fff; opacity: 1;" id="p-type-ether"></path><path d="M-52.279986337769444,189.93631308552517A197,197,0,0,1,-54.920290768790736,189.18975041442252L-47.56236698900078,163.84312999452743A170.6070045455344,170.6070045455344,0,0,0,-45.27579627801172,164.4896722332195Z" fill-rule="evenodd" style="fill: #414552; stroke: #fff; opacity: 1;" id="p-type-ether"></path><path d="M-54.920290768790736,189.18975041442252A197,197,0,0,1,-57.05989457650995,188.55547839009498L-49.41531824051953,163.29383430854998A170.6070045455344,170.6070045455344,0,0,0,-47.56236698900078,163.84312999452743Z" fill-rule="evenodd" style="fill: #414552; stroke: #fff; opacity: 1;" id="p-type-ether"></path><path d="M-57.05989457650995,188.55547839009498A197,197,0,0,1,-58.912253208331265,187.98496328674128L-51.01950787259617,162.799753735803A170.6070045455344,170.6070045455344,0,0,0,-49.41531824051953,163.29383430854998Z" fill-rule="evenodd" style="fill: #414552; stroke: #fff; opacity: 1;" id="p-type-ether"></path><path d="M-58.912253208331265,187.98496328674128A197,197,0,0,1,-60.29751283173729,187.54522107029675L-52.21917789730266,162.41892580524555A170.6070045455344,170.6070045455344,0,0,0,-51.01950787259617,162.799753735803Z" fill-rule="evenodd" style="fill: #414552; stroke: #fff; opacity: 1;" id="p-type-ether"></path><path d="M-60.29751283173729,187.54522107029675A197,197,0,0,1,-61.47737698233878,187.16178060536666L-53.2409702247381,162.08685662177717A170.6070045455344,170.6070045455344,0,0,0,-52.21917789730266,162.41892580524555Z" fill-rule="evenodd" style="fill: #414552; stroke: #fff; opacity: 1;" id="p-type-ether"></path><path d="M-61.47737698233878,187.16178060536666A197,197,0,0,1,-62.519498551351276,186.8162527749863L-54.143473977334615,161.78762074295327A170.6070045455344,170.6070045455344,0,0,0,-53.2409702247381,162.08685662177717Z" fill-rule="evenodd" style="fill: #414552; stroke: #fff; opacity: 1;" id="p-type-ether"></path></g></svg>