<svg xmlns="http://www.w3.org/2000/svg" width="400" height="400" id="block-7907776"><g id="burst-container" transform="translate(200,200)"><circle r="197" style="fill: #f9f9f9; stroke: #f9f9f9; stroke-width: 3; opacity: 1;" id="circle-base"></circle><path display="none" d="M6.031385485800715e-15,-98.5A98.5,98.5,0,1,1,-6.031385485800715e-15,98.5A98.5,98.5,0,1,1,6.031385485800715e-15,-98.5Z" fill-rule="evenodd" id="p-type-root" style="stroke: #fff; opacity: 1;"></path><path d="M8.529667153919608e-15,-139.30003589374985A139.30003589374985,139.30003589374985,0,1,1,-137.43725863551373,-22.70462373074927L-97.18281756886115,-16.05459340430182A98.5,98.5,0,1,0,6.031385485800715e-15,-98.5Z" fill-rule="evenodd" style="fill: #0B1F65; stroke: #fff; opacity: 1;" id="p-type-data"></path><path d="M-137.43725863551373,-22.70462373074927A139.30003589374985,139.30003589374985,0,0,1,-17.77013867401856,-138.1619418345955L-12.56538555902385,-97.69524597314383A98.5,98.5,0,0,0,-97.18281756886115,-16.05459340430182Z" fill-rule="evenodd" style="fill: #D7A449; stroke: #fff; opacity: 1;" id="p-type-value"></path><path d="M1.0446666101440332e-14,-170.6070045455344A170.6070045455344,170.6070045455344,0,0,1,166.4939530542625,37.23591809483198L135.94174341394665,30.402999812135157A139.30003589374985,139.30003589374985,0,0,0,8.529667153919608e-15,-139.30003589374985Z" fill-rule="evenodd" style="fill: #1DC690; stroke: #fff; opacity: 1;" id="p-type-logs"></path><path d="M166.4939530542625,37.23591809483198A170.6070045455344,170.6070045455344,0,0,1,-42.01355409243706,165.35298991104412L-34.303923269096934,135.0101509085443A139.30003589374985,139.30003589374985,0,0,0,135.94174341394665,30.402999812135157Z" fill-rule="evenodd" style="fill: #D7A449; stroke: #fff; opacity: 1;" id="p-type-tokenTransfers"></path><path d="M-42.01355409243706,165.35298991104412A170.6070045455344,170.6070045455344,0,0,1,-93.96348347297032,142.3994865637683L-76.72086298773915,116.26869390518048A139.30003589374985,139.30003589374985,0,0,0,-34.303923269096934,135.0101509085443Z" fill-rule="evenodd" style="fill: #414552; stroke: #fff; opacity: 1;" id="p-type-ether"></path><path d="M-168.32557765196484,-27.807371471110937A170.6070045455344,170.6070045455344,0,0,1,-92.87100674159703,-143.11438120189823L-75.82885947182976,-116.85240293293711A139.30003589374985,139.30003589374985,0,0,0,-137.43725863551373,-22.70462373074927Z" fill-rule="evenodd" style="fill: #D7A449; stroke: #fff; opacity: 1;" id="p-type-tokenTransfers"></path><path d="M-92.87100674159703,-143.11438120189823A170.6070045455344,170.6070045455344,0,0,1,-43.17214652023005,-165.05428126781743L-35.24991002507866,-134.76625632265615A139.30003589374985,139.30003589374985,0,0,0,-75.82885947182976,-116.85240293293711Z" fill-rule="evenodd" style="fill: #414552; stroke: #fff; opacity: 1;" id="p-type-ether"></path><path d="M1.206277097160143e-14,-197A197,197,0,0,1,12.591129547847103,-196.59721121295016L10.904238050776463,-170.25817922358974A170.6070045455344,170.6070045455344,0,0,0,1.0446666101440332e-14,-170.6070045455344Z" fill-rule="evenodd" style="fill: #1DC690; stroke: #fff; opacity: 1;" id="p-type-logs"></path><path d="M12.591129547847103,-196.59721121295016A197,197,0,0,1,25.130771118047853,-195.39049194628763L21.7638862049217,-169.21312968342383A170.6070045455344,170.6070045455344,0,0,0,10.904238050776463,-170.25817922358974Z" fill-rule="evenodd" style="fill: #1DC690; stroke: #fff; opacity: 1;" id="p-type-logs"></path><path d="M25.130771118047853,-195.39049194628763A197,197,0,0,1,37.56764727894641,-193.38477674813151L32.53453690398093,-167.47612936906413A170.6070045455344,170.6070045455344,0,0,0,21.7638862049217,-169.21312968342383Z" fill-rule="evenodd" style="fill: #1DC690; stroke: #fff; opacity: 1;" id="p-type-logs"></path><path d="M37.56764727894641,-193.38477674813151A197,197,0,0,1,49.85090082989776,-190.58826744174914L43.172146520230214,-165.05428126781737A170.6070045455344,170.6070045455344,0,0,0,32.53453690398093,-167.47612936906413Z" fill-rule="evenodd" style="fill: #1DC690; stroke: #fff; opacity: 1;" id="p-type-logs"></path><path d="M49.85090082989776,-190.58826744174914A197,197,0,0,1,61.9303027678682,-187.012399586445L53.63321546103559,-161.95748886454783A170.6070045455344,170.6070045455344,0,0,0,43.172146520230214,-165.05428126781737Z" fill-rule="evenodd" style="fill: #1DC690; stroke: #fff; opacity: 1;" id="p-type-logs"></path><path d="M61.9303027678682,-187.012399586445A197,197,0,0,1,73.75645768519396,-182.67179571497124L63.87496604852996,-158.19841564408645A170.6070045455344,170.6070045455344,0,0,0,53.63321546103559,-161.95748886454783Z" fill-rule="evenodd" style="fill: #1DC690; stroke: #fff; opacity: 1;" id="p-type-logs"></path><path d="M73.75645768519396,-182.67179571497124A197,197,0,0,1,85.28100575857952,-177.58420553868277L73.85551744721687,-153.79243330737648A170.6070045455344,170.6070045455344,0,0,0,63.87496604852996,-158.19841564408645Z" fill-rule="evenodd" style="fill: #1DC690; stroke: #fff; opacity: 1;" id="p-type-logs"></path><path d="M85.28100575857952,-177.58420553868277A197,197,0,0,1,96.45682050335704,-171.77043336495126L83.53405692418289,-148.7575589131099A170.6070045455344,170.6070045455344,0,0,0,73.85551744721687,-153.79243330737648Z" fill-rule="evenodd" style="fill: #1DC690; stroke: #fff; opacity: 1;" id="p-type-logs"></path><path d="M96.45682050335704,-171.77043336495126A197,197,0,0,1,107.23820148434538,-165.2542530236452L92.8710067415972,-143.1143812018981A170.6070045455344,170.6070045455344,0,0,0,83.53405692418289,-148.7575589131099Z" fill-rule="evenodd" style="fill: #1DC690; stroke: #fff; opacity: 1;" id="p-type-logs"></path><path d="M107.23820148434538,-165.2542530236452A197,197,0,0,1,117.5810611952699,-158.0623106505602L101.8281859990364,-136.88597640425274A170.6070045455344,170.6070045455344,0,0,0,92.8710067415972,-143.1143812018981Z" fill-rule="evenodd" style="fill: #1DC690; stroke: #fff; opacity: 1;" id="p-type-logs"></path><path d="M117.5810611952699,-158.0623106505602A197,197,0,0,1,127.44310534255102,-150.22401572534085L110.3689667638255,-130.09781387665817A170.6070045455344,170.6070045455344,0,0,0,101.8281859990364,-136.88597640425274Z" fill-rule="evenodd" style="fill: #1DC690; stroke: #fff; opacity: 1;" id="p-type-logs"></path><path d="M127.44310534255102,-150.22401572534085A197,197,0,0,1,136.7840057962403,-141.77142080946393L118.45842385094201,-122.77765195160956A170.6070045455344,170.6070045455344,0,0,0,110.3689667638255,-130.09781387665817Z" fill-rule="evenodd" style="fill: #1DC690; stroke: #fff; opacity: 1;" id="p-type-logs"></path><path d="M136.7840057962403,-141.77142080946393A197,197,0,0,1,145.56556550086884,-132.73909047606236L126.06347764000007,-114.95542442751103A170.6070045455344,170.6070045455344,0,0,0,118.45842385094201,-122.77765195160956Z" fill-rule="evenodd" style="fill: #1DC690; stroke: #fff; opacity: 1;" id="p-type-logs"></path><path d="M145.56556550086884,-132.73909047606236A197,197,0,0,1,153.7518746718494,-123.16395996756482L133.1530293453028,-106.66311816260075A170.6070045455344,170.6070045455344,0,0,0,126.06347764000007,-114.95542442751103Z" fill-rule="evenodd" style="fill: #1DC690; stroke: #fff; opacity: 1;" id="p-type-logs"></path><path d="M192.25065722864673,42.996334671148205A197,197,0,0,1,189.10949566031334,55.19600212970077L163.7736273386944,47.80114003166085A170.6070045455344,170.6070045455344,0,0,0,166.4939530542625,37.23591809483198Z" fill-rule="evenodd" style="fill: #D7A449; stroke: #fff; opacity: 1;" id="p-type-tokenTransfers"></path><path d="M189.10949566031334,55.19600212970077A197,197,0,0,1,185.19502257546594,67.16996064665108L160.38359420478614,58.17089229120084A170.6070045455344,170.6070045455344,0,0,0,163.7736273386944,47.80114003166085Z" fill-rule="evenodd" style="fill: #D7A449; stroke: #fff; opacity: 1;" id="p-type-tokenTransfers"></path><path d="M185.19502257546594,67.16996064665108A197,197,0,0,1,180.52324514025472,78.86924599634197L156.3377162650663,68.30277061015627A170.6070045455344,170.6070045455344,0,0,0,160.38359420478614,58.17089229120084Z" fill-rule="evenodd" style="fill: #D7A449; stroke: #fff; opacity: 1;" id="p-type-tokenTransfers"></path><path d="M180.52324514025472,78.86924599634197A197,197,0,0,1,175.11326730966937,90.24601715384608L151.65253802986874,78.15534344559693A170.6070045455344,170.6070045455344,0,0,0,156.3377162650663,68.30277061015627Z" fill-rule="evenodd" style="fill: #D7A449; stroke: #fff; opacity: 1;" id="p-type-tokenTransfers"></path><path d="M175.11326730966937,90.24601715384608A197,197,0,0,1,168.98721170714498,101.25375192774125L146.34721825308665,87.6883213979115A170.6070045455344,170.6070045455344,0,0,0,151.65253802986874,78.15534344559693Z" fill-rule="evenodd" style="fill: #D7A449; stroke: #fff; opacity: 1;" id="p-type-tokenTransfers"></path><path d="M168.98721170714498,101.25375192774125A197,197,0,0,1,162.17012916014895,111.84743719987782L140.44345158769255,96.86272196327883A170.6070045455344,170.6070045455344,0,0,0,146.34721825308665,87.6883213979115Z" fill-rule="evenodd" style="fill: #D7A449; stroke: #fff; opacity: 1;" id="p-type-tokenTransfers"></path><path d="M162.17012916014895,111.84743719987782A197,197,0,0,1,154.68989626167945,121.98375299420348L133.96537987139388,105.6410289419463A170.6070045455344,170.6070045455344,0,0,0,140.44345158769255,96.86272196327883Z" fill-rule="evenodd" style="fill: #D7A449; stroke: #fff; opacity: 1;" id="p-type-tokenTransfers"></path><path d="M154.68989626167945,121.98375299420348A197,197,0,0,1,146.57710137656926,131.6212496219472L126.93949340519599,113.9873458504592A170.6070045455344,170.6070045455344,0,0,0,133.96537987139388,105.6410289419463Z" fill-rule="evenodd" style="fill: #D7A449; stroke: #fff; opacity: 1;" id="p-type-tokenTransfers"></path><path d="M146.57710137656926,131.6212496219472A197,197,0,0,1,137.86491955874078,140.72051717877505L119.39452262856764,121.86754271050371A170.6070045455344,170.6070045455344,0,0,0,126.93949340519599,113.9873458504592Z" fill-rule="evenodd" style="fill: #D7A449; stroke: #fff; opacity: 1;" id="p-type-tokenTransfers"></path><path d="M137.86491955874078,140.72051717877505A197,197,0,0,1,128.58897689090432,149.24434670080632L111.36132063417325,129.24939561411054A170.6070045455344,170.6070045455344,0,0,0,119.39452262856764,121.86754271050371Z" fill-rule="evenodd" style="fill: #D7A449; stroke: #fff; opacity: 1;" id="p-type-tokenTransfers"></path><path d="M128.58897689090432,149.24434670080632A197,197,0,0,1,118.78720480144479,157.15788232048564L102.87273700259603,136.10271849450587A170.6070045455344,170.6070045455344,0,0,0,111.36132063417325,129.24939561411054Z" fill-rule="evenodd" style="fill: #D7A449; stroke: #fff; opacity: 1;" id="p-type-tokenTransfers"></path><path d="M118.78720480144479,157.15788232048564A197,197,0,0,1,108.49968495422874,164.42876380011228L93.96348347297032,142.3994865637683A170.6070045455344,170.6070045455344,0,0,0,102.87273700259603,136.10271849450587Z" fill-rule="evenodd" style="fill: #D7A449; stroke: #fff; opacity: 1;" id="p-type-tokenTransfers"></path><path d="M-48.513073529762885,190.9331864729016A197,197,0,0,1,-49.598004086716635,190.65423674970887L-42.95313151610102,165.11141236438058A170.6070045455344,170.6070045455344,0,0,0,-42.01355409243706,165.35298991104412Z" fill-rule="evenodd" style="fill: #414552; stroke: #fff; opacity: 1;" id="p-type-ether"></path><path d="M-49.598004086716635,190.65423674970887A197,197,0,0,1,-50.571518737500995,190.39832323994503L-43.7962199346366,164.88978476375345A170.6070045455344,170.6070045455344,0,0,0,-42.95313151610102,165.11141236438058Z" fill-rule="evenodd" style="fill: #414552; stroke: #fff; opacity: 1;" id="p-type-ether"></path></g></svg>