<svg xmlns="http://www.w3.org/2000/svg" width="400" height="400" id="block-7907918"><g id="burst-container" transform="translate(200,200)"><circle r="197" style="fill: #f9f9f9; stroke: #f9f9f9; stroke-width: 3; opacity: 1;" id="circle-base"></circle><path display="none" d="M6.031385485800715e-15,-98.5A98.5,98.5,0,1,1,-6.031385485800715e-15,98.5A98.5,98.5,0,1,1,6.031385485800715e-15,-98.5Z" fill-rule="evenodd" id="p-type-root" style="stroke: #fff; opacity: 1;"></path><path d="M8.529667153919608e-15,-139.30003589374985A139.30003589374985,139.30003589374985,0,1,1,-99.90830721772096,-97.07126324968414L-70.64584153051939,-68.63974850219617A98.5,98.5,0,1,0,6.031385485800715e-15,-98.5Z" fill-rule="evenodd" style="fill: #0B1F65; stroke: #fff; opacity: 1;" id="p-type-data"></path><path d="M-99.90830721772096,-97.07126324968414A139.30003589374985,139.30003589374985,0,0,1,-3.9086853229982093,-139.24518727426732L-2.7638578974163646,-98.46121616922518A98.5,98.5,0,0,0,-70.64584153051939,-68.63974850219617Z" fill-rule="evenodd" style="fill: #D7A449; stroke: #fff; opacity: 1;" id="p-type-value"></path><path d="M1.0446666101440332e-14,-170.6070045455344A170.6070045455344,170.6070045455344,0,0,1,167.59490578623087,31.917041756785743L136.84066755536185,26.06015546774302A139.30003589374985,139.30003589374985,0,0,0,8.529667153919608e-15,-139.30003589374985Z" fill-rule="evenodd" style="fill: #DB3F29; stroke: #fff; opacity: 1;" id="p-type-functions"></path><path d="M167.59490578623087,31.917041756785743A170.6070045455344,170.6070045455344,0,0,1,6.068369705209865,170.4990465929968L4.954803116109248,139.21188859461893A139.30003589374985,139.30003589374985,0,0,0,136.84066755536185,26.06015546774302Z" fill-rule="evenodd" style="fill: #1DC690; stroke: #fff; opacity: 1;" id="p-type-logs"></path><path d="M6.068369705209865,170.4990465929968A170.6070045455344,170.6070045455344,0,0,1,-135.67878635771532,103.43121836514084L-110.78126516549794,84.4512361563265A139.30003589374985,139.30003589374985,0,0,0,4.954803116109248,139.21188859461893Z" fill-rule="evenodd" style="fill: #D7A449; stroke: #fff; opacity: 1;" id="p-type-tokenTransfers"></path><path d="M-135.67878635771532,103.43121836514084A170.6070045455344,170.6070045455344,0,0,1,-168.55937806697537,26.353103530219368L-137.62815587498932,21.5172189292585A139.30003589374985,139.30003589374985,0,0,0,-110.78126516549794,84.4512361563265Z" fill-rule="evenodd" style="fill: #414552; stroke: #fff; opacity: 1;" id="p-type-ether"></path><path d="M-122.36218687431904,-118.88753182455349A170.6070045455344,170.6070045455344,0,0,1,-51.83301726286411,-162.5425738735167L-42.32148137429634,-132.7154558229187A139.30003589374985,139.30003589374985,0,0,0,-99.90830721772096,-97.07126324968414Z" fill-rule="evenodd" style="fill: #D7A449; stroke: #fff; opacity: 1;" id="p-type-tokenTransfers"></path><path d="M-51.83301726286411,-162.5425738735167A170.6070045455344,170.6070045455344,0,0,1,-9.57051478478675,-170.33835518389327L-7.814292599496634,-139.08068460850143A139.30003589374985,139.30003589374985,0,0,0,-42.32148137429634,-132.7154558229187Z" fill-rule="evenodd" style="fill: #414552; stroke: #fff; opacity: 1;" id="p-type-ether"></path><path d="M1.206277097160143e-14,-197A197,197,0,0,1,27.549620723795513,-195.0641391901008L23.85867141143315,-168.93049990597098A170.6070045455344,170.6070045455344,0,0,0,1.0446666101440332e-14,-170.6070045455344Z" fill-rule="evenodd" style="fill: #DB3F29; stroke: #fff; opacity: 1;" id="p-type-functions"></path><path d="M27.549620723795513,-195.0641391901008A197,197,0,0,1,40.728700251378186,-192.7438013940614L35.272089080815164,-166.92102842923967A170.6070045455344,170.6070045455344,0,0,0,23.85867141143315,-168.93049990597098Z" fill-rule="evenodd" style="fill: #DB3F29; stroke: #fff; opacity: 1;" id="p-type-functions"></path><path d="M40.728700251378186,-192.7438013940614A197,197,0,0,1,43.914281267894445,-192.04305741349842L38.0308831669317,-166.31416634052312A170.6070045455344,170.6070045455344,0,0,0,35.272089080815164,-166.92102842923967Z" fill-rule="evenodd" style="fill: #DB3F29; stroke: #fff; opacity: 1;" id="p-type-functions"></path><path d="M43.914281267894445,-192.04305741349842A197,197,0,0,1,46.60453686456354,-191.4079861020421L40.3607128563204,-165.7641784515872A170.6070045455344,170.6070045455344,0,0,0,38.0308831669317,-166.31416634052312Z" fill-rule="evenodd" style="fill: #DB3F29; stroke: #fff; opacity: 1;" id="p-type-functions"></path><path d="M46.60453686456354,-191.4079861020421A197,197,0,0,1,49.285616870158435,-190.7352300172361L42.682596250744105,-165.18155459159465A170.6070045455344,170.6070045455344,0,0,0,40.3607128563204,-165.7641784515872Z" fill-rule="evenodd" style="fill: #DB3F29; stroke: #fff; opacity: 1;" id="p-type-functions"></path><path d="M49.285616870158435,-190.7352300172361A197,197,0,0,1,51.95699342847836,-190.02492161259548L44.9960762133234,-164.56640946865429A170.6070045455344,170.6070045455344,0,0,0,42.682596250744105,-165.18155459159465Z" fill-rule="evenodd" style="fill: #DB3F29; stroke: #fff; opacity: 1;" id="p-type-functions"></path><path d="M51.95699342847836,-190.02492161259548A197,197,0,0,1,54.61814059375593,-189.27720073500853L47.30069726166272,-163.918864193724A170.6070045455344,170.6070045455344,0,0,0,44.9960762133234,-164.56640946865429Z" fill-rule="evenodd" style="fill: #DB3F29; stroke: #fff; opacity: 1;" id="p-type-functions"></path><path d="M54.61814059375593,-189.27720073500853A197,197,0,0,1,57.2685344342064,-188.49221459720323L49.596005657526625,-163.239046256766A170.6070045455344,170.6070045455344,0,0,0,47.30069726166272,-163.918864193724Z" fill-rule="evenodd" style="fill: #DB3F29; stroke: #fff; opacity: 1;" id="p-type-functions"></path><path d="M57.2685344342064,-188.49221459720323A197,197,0,0,1,59.90765313518035,-187.67011774876391L51.881549496172646,-162.52708950164643A170.6070045455344,170.6070045455344,0,0,0,49.596005657526625,-163.239046256766Z" fill-rule="evenodd" style="fill: #DB3F29; stroke: #fff; opacity: 1;" id="p-type-functions"></path><path d="M59.90765313518035,-187.67011774876391A197,197,0,0,1,62.53497710189954,-186.81107204570318L54.15687879532318,-161.78313409978395A170.6070045455344,170.6070045455344,0,0,0,51.881549496172646,-162.52708950164643Z" fill-rule="evenodd" style="fill: #DB3F29; stroke: #fff; opacity: 1;" id="p-type-functions"></path><path d="M62.53497710189954,-186.81107204570318A197,197,0,0,1,65.14998906175579,-185.91524661859526L56.421545583758814,-161.00732652255246A170.6070045455344,170.6070045455344,0,0,0,54.15687879532318,-161.78313409978395Z" fill-rule="evenodd" style="fill: #DB3F29; stroke: #fff; opacity: 1;" id="p-type-functions"></path><path d="M65.14998906175579,-185.91524661859526A197,197,0,0,1,67.75217416615254,-184.98281783927754L58.67510398951586,-160.19981951244358A170.6070045455344,170.6070045455344,0,0,0,56.421545583758814,-161.00732652255246Z" fill-rule="evenodd" style="fill: #DB3F29; stroke: #fff; opacity: 1;" id="p-type-functions"></path><path d="M67.75217416615254,-184.98281783927754A197,197,0,0,1,70.34102009186925,-184.01396928612579L60.91711032767038,-159.36077205299438A170.6070045455344,170.6070045455344,0,0,0,58.67510398951586,-160.19981951244358Z" fill-rule="evenodd" style="fill: #DB3F29; stroke: #fff; opacity: 1;" id="p-type-functions"></path><path d="M70.34102009186925,-184.01396928612579A197,197,0,0,1,72.91601714192863,-183.0088917079112L63.1471231876918,-158.4903493374864A170.6070045455344,170.6070045455344,0,0,0,60.91711032767038,-159.36077205299438Z" fill-rule="evenodd" style="fill: #DB3F29; stroke: #fff; opacity: 1;" id="p-type-functions"></path><path d="M72.91601714192863,-183.0088917079112A197,197,0,0,1,75.47665834594673,-181.9677829862452L65.36470352034864,-157.58872273642208A170.6070045455344,170.6070045455344,0,0,0,63.1471231876918,-158.4903493374864Z" fill-rule="evenodd" style="fill: #DB3F29; stroke: #fff; opacity: 1;" id="p-type-functions"></path><path d="M75.47665834594673,-181.9677829862452A197,197,0,0,1,78.02243955994622,-180.89084809662023L67.56941472414938,-156.6560697637851A170.6070045455344,170.6070045455344,0,0,0,65.36470352034864,-157.58872273642208Z" fill-rule="evenodd" style="fill: #DB3F29; stroke: #fff; opacity: 1;" id="p-type-functions"></path><path d="M78.02243955994622,-180.89084809662023A197,197,0,0,1,80.55285956561329,-179.77829906805377L69.76082273130143,-155.69257404209085A170.6070045455344,170.6070045455344,0,0,0,67.56941472414938,-156.6560697637851Z" fill-rule="evenodd" style="fill: #DB3F29; stroke: #fff; opacity: 1;" id="p-type-functions"></path><path d="M80.55285956561329,-179.77829906805377A197,197,0,0,1,83.06742016897839,-178.6303549413436L71.93849609317112,-154.6984252662347A170.6070045455344,170.6070045455344,0,0,0,69.76082273130143,-155.69257404209085Z" fill-rule="evenodd" style="fill: #DB3F29; stroke: #fff; opacity: 1;" id="p-type-functions"></path><path d="M83.06742016897839,-178.6303549413436A197,197,0,0,1,85.56562629850174,-177.44724172594272L74.10200606522835,-153.67381916614443A170.6070045455344,170.6070045455344,0,0,0,71.93849609317112,-154.6984252662347Z" fill-rule="evenodd" style="fill: #DB3F29; stroke: #fff; opacity: 1;" id="p-type-functions"></path><path d="M85.56562629850174,-177.44724172594272A197,197,0,0,1,88.04698610254385,-176.22919235546206L76.25092669145839,-152.61895746824453A170.6070045455344,170.6070045455344,0,0,0,74.10200606522835,-153.67381916614443Z" fill-rule="evenodd" style="fill: #DB3F29; stroke: #fff; opacity: 1;" id="p-type-functions"></path><path d="M88.04698610254385,-176.22919235546206A197,197,0,0,1,90.51101104620231,-174.97644664181018L78.38483488822514,-151.53404785573994A170.6070045455344,170.6070045455344,0,0,0,76.25092669145839,-152.61895746824453Z" fill-rule="evenodd" style="fill: #DB3F29; stroke: #fff; opacity: 1;" id="p-type-functions"></path><path d="M90.51101104620231,-174.97644664181018A197,197,0,0,1,92.95721600749543,-173.68925122797853L80.5033105275685,-150.4193039277269A170.6070045455344,170.6070045455344,0,0,0,78.38483488822514,-151.53404785573994Z" fill-rule="evenodd" style="fill: #DB3F29; stroke: #fff; opacity: 1;" id="p-type-functions"></path><path d="M92.95721600749543,-173.68925122797853A197,197,0,0,1,95.38511937287393,-172.367859539482L82.60593651992002,-149.27494515713929A170.6070045455344,170.6070045455344,0,0,0,80.5033105275685,-150.4193039277269Z" fill-rule="evenodd" style="fill: #DB3F29; stroke: #fff; opacity: 1;" id="p-type-functions"></path><path d="M95.38511937287393,-172.367859539482A197,197,0,0,1,97.79424313204221,-171.0125317344639L84.69229889622042,-148.1011968475382A170.6070045455344,170.6070045455344,0,0,0,82.60593651992002,-149.27494515713929Z" fill-rule="evenodd" style="fill: #DB3F29; stroke: #fff; opacity: 1;" id="p-type-functions"></path><path d="M97.79424313204221,-171.0125317344639A197,197,0,0,1,100.18411297206956,-169.62353465247563L86.76198688942236,-146.89829008875392A170.6070045455344,170.6070045455344,0,0,0,84.69229889622042,-148.1011968475382Z" fill-rule="evenodd" style="fill: #DB3F29; stroke: #fff; opacity: 1;" id="p-type-functions"></path><path d="M100.18411297206956,-169.62353465247563A197,197,0,0,1,102.5542583707741,-168.20114176194082L88.81459301536327,-145.6664617113884A170.6070045455344,170.6070045455344,0,0,0,86.76198688942236,-146.89829008875392Z" fill-rule="evenodd" style="fill: #DB3F29; stroke: #fff; opacity: 1;" id="p-type-functions"></path><path d="M102.5542583707741,-168.20114176194082A197,197,0,0,1,104.90421268935991,-166.74563310631416L90.84971315299155,-144.40595424018758A170.6070045455344,170.6070045455344,0,0,0,88.81459301536327,-145.6664617113884Z" fill-rule="evenodd" style="fill: #DB3F29; stroke: #fff; opacity: 1;" id="p-type-functions"></path><path d="M104.90421268935991,-166.74563310631416A197,197,0,0,1,107.23351326428995,-165.25729524894612L92.86694662393067,-143.11701584629276A170.6070045455344,170.6070045455344,0,0,0,90.84971315299155,-144.40595424018758Z" fill-rule="evenodd" style="fill: #DB3F29; stroke: #fff; opacity: 1;" id="p-type-functions"></path><path d="M107.23351326428995,-165.25729524894612A197,197,0,0,1,109.54170149837597,-163.73642121666364L94.86589627136549,-141.79990029838004A170.6070045455344,170.6070045455344,0,0,0,92.86694662393067,-143.11701584629276Z" fill-rule="evenodd" style="fill: #DB3F29; stroke: #fff; opacity: 1;" id="p-type-functions"></path><path d="M109.54170149837597,-163.73642121666364A197,197,0,0,1,111.8283229510681,-162.18331044207852L96.84616853823536,-140.454866912698A170.6070045455344,170.6070045455344,0,0,0,94.86589627136549,-141.79990029838004Z" fill-rule="evenodd" style="fill: #DB3F29; stroke: #fff; opacity: 1;" id="p-type-functions"></path><path d="M111.8283229510681,-162.18331044207852A197,197,0,0,1,114.09292742792601,-160.59826870463456L98.80737354471827,-139.08218050201293A170.6070045455344,170.6070045455344,0,0,0,96.84616853823536,-140.454866912698Z" fill-rule="evenodd" style="fill: #DB3F29; stroke: #fff; opacity: 1;" id="p-type-functions"></path><path d="M114.09292742792601,-160.59826870463456A197,197,0,0,1,116.33506906925402,-158.9816080704051L100.74912516499127,-137.68211132347193A170.6070045455344,170.6070045455344,0,0,0,98.80737354471827,-139.08218050201293Z" fill-rule="evenodd" style="fill: #DB3F29; stroke: #fff; opacity: 1;" id="p-type-functions"></path><path d="M116.33506906925402,-158.9816080704051A197,197,0,0,1,118.55430643788279,-157.33364683065278L102.67104110325151,-136.25493502539436A170.6070045455344,170.6070045455344,0,0,0,100.74912516499127,-137.68211132347193Z" fill-rule="evenodd" style="fill: #DB3F29; stroke: #fff; opacity: 1;" id="p-type-functions"></path><path d="M118.55430643788279,-157.33364683065278A197,197,0,0,1,120.75020260608036,-155.65470943916392L104.57274296898352,-134.8009325930014A170.6070045455344,170.6070045455344,0,0,0,102.67104110325151,-136.25493502539436Z" fill-rule="evenodd" style="fill: #DB3F29; stroke: #fff; opacity: 1;" id="p-type-functions"></path><path d="M120.75020260608036,-155.65470943916392A197,197,0,0,1,122.92232524157531,-153.9451264483692L106.45385635145735,-133.3203902930954A170.6070045455344,170.6070045455344,0,0,0,104.57274296898352,-134.8009325930014Z" fill-rule="evenodd" style="fill: #DB3F29; stroke: #fff; opacity: 1;" id="p-type-functions"></path><path d="M122.92232524157531,-153.9451264483692A197,197,0,0,1,125.07024669267521,-152.205234444264L108.3140108934434,-131.81359961769886A170.6070045455344,170.6070045455344,0,0,0,106.45385635145735,-133.3203902930954Z" fill-rule="evenodd" style="fill: #DB3F29; stroke: #fff; opacity: 1;" id="p-type-functions"></path><path d="M125.07024669267521,-152.205234444264A197,197,0,0,1,127.19354407246342,-150.43537598014075L110.15284036412893,-130.28085722666523A170.6070045455344,170.6070045455344,0,0,0,108.3140108934434,-131.81359961769886Z" fill-rule="evenodd" style="fill: #DB3F29; stroke: #fff; opacity: 1;" id="p-type-functions"></path><path d="M127.19354407246342,-150.43537598014075A197,197,0,0,1,129.291799342058,-148.6358995091462L111.96998273122239,-128.72246488927158A170.6070045455344,170.6070045455344,0,0,0,110.15284036412893,-130.28085722666523Z" fill-rule="evenodd" style="fill: #DB3F29; stroke: #fff; opacity: 1;" id="p-type-functions"></path><path d="M129.291799342058,-148.6358995091462A197,197,0,0,1,131.3645993929159,-146.80715931567755L113.765080232231,-127.13872942480604A170.6070045455344,170.6070045455344,0,0,0,111.96998273122239,-128.72246488927158Z" fill-rule="evenodd" style="fill: #DB3F29; stroke: #fff; opacity: 1;" id="p-type-functions"></path><path d="M131.3645993929159,-146.80715931567755A197,197,0,0,1,133.41153612816657,-144.9495154456299L115.53777944489768,-125.52996264216038A170.6070045455344,170.6070045455344,0,0,0,113.765080232231,-127.13872942480604Z" fill-rule="evenodd" style="fill: #DB3F29; stroke: #fff; opacity: 1;" id="p-type-functions"></path><path d="M133.41153612816657,-144.9495154456299A197,197,0,0,1,135.43220654295902,-143.06333363551013L117.28773135678357,-123.89648127844053A170.6070045455344,170.6070045455344,0,0,0,115.53777944489768,-125.52996264216038Z" fill-rule="evenodd" style="fill: #DB3F29; stroke: #fff; opacity: 1;" id="p-type-functions"></path><path d="M135.43220654295902,-143.06333363551013A197,197,0,0,1,137.426212803806,-141.14898524042965L119.01459143398229,-122.23860693660686A170.6070045455344,170.6070045455344,0,0,0,117.28773135678357,-123.89648127844053Z" fill-rule="evenodd" style="fill: #DB3F29; stroke: #fff; opacity: 1;" id="p-type-functions"></path><path d="M137.426212803806,-141.14898524042965A197,197,0,0,1,139.39316232691033,-139.20684716099143L120.71801968895231,-120.55666602215624A170.6070045455344,170.6070045455344,0,0,0,119.01459143398229,-122.23860693660686Z" fill-rule="evenodd" style="fill: #DB3F29; stroke: #fff; opacity: 1;" id="p-type-functions"></path><path d="M139.39316232691033,-139.20684716099143A197,197,0,0,1,141.33266785545746,-137.23730176908512L122.3976807474545,-118.8509896788588A170.6070045455344,170.6070045455344,0,0,0,120.71801968895231,-120.55666602215624Z" fill-rule="evenodd" style="fill: #DB3F29; stroke: #fff; opacity: 1;" id="p-type-functions"></path><path d="M141.33266785545746,-137.23730176908512A197,197,0,0,1,143.2443475358595,-135.24073683260494L124.05324391458119,-117.12191372356169A170.6070045455344,170.6070045455344,0,0,0,122.3976807474545,-118.8509896788588Z" fill-rule="evenodd" style="fill: #DB3F29; stroke: #fff; opacity: 1;" id="p-type-functions"></path><path d="M143.2443475358595,-135.24073683260494A197,197,0,0,1,145.1278249929351,-133.21754543910498L125.68438323986398,-115.36977858007269A170.6070045455344,170.6070045455344,0,0,0,124.05324391458119,-117.12191372356169Z" fill-rule="evenodd" style="fill: #DB3F29; stroke: #fff; opacity: 1;" id="p-type-functions"></path><path d="M145.1278249929351,-133.21754543910498A197,197,0,0,1,146.98272940401108,-131.1681259184077L127.29077758144759,-113.5949292121371A170.6070045455344,170.6070045455344,0,0,0,125.68438323986398,-115.36977858007269Z" fill-rule="evenodd" style="fill: #DB3F29; stroke: #fff; opacity: 1;" id="p-type-functions"></path><path d="M146.98272940401108,-131.1681259184077A197,197,0,0,1,148.80869557193063,-129.09288176417968L128.8721106693168,-111.7977150555205A170.6070045455344,170.6070045455344,0,0,0,127.29077758144759,-113.5949292121371Z" fill-rule="evenodd" style="fill: #DB3F29; stroke: #fff; opacity: 1;" id="p-type-functions"></path><path d="M148.80869557193063,-129.09288176417968A197,197,0,0,1,150.60536399695403,-126.99222155449124L130.42807116756447,-109.97848994921117A170.6070045455344,170.6070045455344,0,0,0,128.8721106693168,-111.7977150555205Z" fill-rule="evenodd" style="fill: #DB3F29; stroke: #fff; opacity: 1;" id="p-type-functions"></path><path d="M150.60536399695403,-126.99222155449124A197,197,0,0,1,151.54559830737878,-125.86870792082755L131.24233796590204,-109.00549860096025A170.6070045455344,170.6070045455344,0,0,0,130.42807116756447,-109.97848994921117Z" fill-rule="evenodd" style="fill: #DB3F29; stroke: #fff; opacity: 1;" id="p-type-functions"></path><path d="M151.54559830737878,-125.86870792082755A197,197,0,0,1,152.4249296888143,-124.8024070655691L132.00386128057008,-108.08205497222936A170.6070045455344,170.6070045455344,0,0,0,131.24233796590204,-109.00549860096025Z" fill-rule="evenodd" style="fill: #DB3F29; stroke: #fff; opacity: 1;" id="p-type-functions"></path><path d="M193.5219279409807,36.85462530003355A197,197,0,0,1,192.98576590523004,39.566326061080744L167.130575842726,34.26544350331421A170.6070045455344,170.6070045455344,0,0,0,167.59490578623087,31.917041756785743Z" fill-rule="evenodd" style="fill: #1DC690; stroke: #fff; opacity: 1;" id="p-type-logs"></path><path d="M192.98576590523004,39.566326061080744A197,197,0,0,1,192.41160845979996,42.27023692756682L166.63334090921157,36.60709900325994A170.6070045455344,170.6070045455344,0,0,0,167.130575842726,34.26544350331421Z" fill-rule="evenodd" style="fill: #1DC690; stroke: #fff; opacity: 1;" id="p-type-logs"></path><path d="M192.41160845979996,42.27023692756682A197,197,0,0,1,191.7995686459154,44.96582554830709L166.10329888226005,38.94154722697327A170.6070045455344,170.6070045455344,0,0,0,166.63334090921157,36.60709900325994Z" fill-rule="evenodd" style="fill: #1DC690; stroke: #fff; opacity: 1;" id="p-type-logs"></path><path d="M191.7995686459154,44.96582554830709A197,197,0,0,1,191.14976696315495,47.65256121061663L165.5405541175676,41.268328563786945A170.6070045455344,170.6070045455344,0,0,0,166.10329888226005,38.94154722697327Z" fill-rule="evenodd" style="fill: #1DC690; stroke: #fff; opacity: 1;" id="p-type-logs"></path><path d="M191.14976696315495,47.65256121061663A197,197,0,0,1,190.4623313457267,50.32991494479808L164.9452174094085,43.58698491250521A170.6070045455344,170.6070045455344,0,0,0,165.5405541175676,41.268328563786945Z" fill-rule="evenodd" style="fill: #1DC690; stroke: #fff; opacity: 1;" id="p-type-logs"></path><path d="M190.4623313457267,50.32991494479808A197,197,0,0,1,189.73739713728054,52.99735962828614L164.31740596882176,45.897059771595615A170.6070045455344,170.6070045455344,0,0,0,164.9452174094085,43.58698491250521Z" fill-rule="evenodd" style="fill: #1DC690; stroke: #fff; opacity: 1;" id="p-type-logs"></path><path d="M189.73739713728054,52.99735962828614A197,197,0,0,1,188.97510706426104,55.654370089428554L163.65724340053418,48.19809832906595A170.6070045455344,170.6070045455344,0,0,0,164.31740596882176,45.897059771595615Z" fill-rule="evenodd" style="fill: #1DC690; stroke: #fff; opacity: 1;" id="p-type-logs"></path><path d="M188.97510706426104,55.654370089428554A197,197,0,0,1,188.17561120780758,58.30042321088284L162.9648596786251,50.48964755200847A170.6070045455344,170.6070045455344,0,0,0,163.65724340053418,48.19809832906595Z" fill-rule="evenodd" style="fill: #1DC690; stroke: #fff; opacity: 1;" id="p-type-logs"></path><path d="M188.17561120780758,58.30042321088284A197,197,0,0,1,187.33906697420582,60.93499803260871L162.24039112093658,52.77125627579393A170.6070045455344,170.6070045455344,0,0,0,162.9648596786251,50.48964755200847Z" fill-rule="evenodd" style="fill: #1DC690; stroke: #fff; opacity: 1;" id="p-type-logs"></path><path d="M187.33906697420582,60.93499803260871A197,197,0,0,1,186.46563906389738,63.557575854435655L161.48398036223512,55.04247529289773A170.6070045455344,170.6070045455344,0,0,0,162.24039112093658,52.77125627579393Z" fill-rule="evenodd" style="fill: #1DC690; stroke: #fff; opacity: 1;" id="p-type-logs"></path><path d="M186.46563906389738,63.557575854435655A197,197,0,0,1,185.5554994390533,66.1676403381856L160.6957763261293,57.302857441340706A170.6070045455344,170.6070045455344,0,0,0,161.48398036223512,55.04247529289773Z" fill-rule="evenodd" style="fill: #1DC690; stroke: #fff; opacity: 1;" id="p-type-logs"></path><path d="M185.5554994390533,66.1676403381856A197,197,0,0,1,184.6088272897177,68.76467760933066L159.87593419574947,59.551957692727335A170.6070045455344,170.6070045455344,0,0,0,160.6957763261293,57.302857441340706Z" fill-rule="evenodd" style="fill: #1DC690; stroke: #fff; opacity: 1;" id="p-type-logs"></path><path d="M184.6088272897177,68.76467760933066A197,197,0,0,1,183.62580899852858,71.34817635816563L159.0246153831949,61.78933323986373A170.6070045455344,170.6070045455344,0,0,0,159.87593419574947,59.551957692727335Z" fill-rule="evenodd" style="fill: #1DC690; stroke: #fff; opacity: 1;" id="p-type-logs"></path><path d="M183.62580899852858,71.34817635816563A197,197,0,0,1,182.60663810402238,73.91762794047571L158.14198749775485,64.01454358393839A170.6070045455344,170.6070045455344,0,0,0,159.0246153831949,61.78933323986373Z" fill-rule="evenodd" style="fill: #1DC690; stroke: #fff; opacity: 1;" id="p-type-logs"></path><path d="M182.60663810402238,73.91762794047571A197,197,0,0,1,181.55151526252993,76.47252647767931L157.22822431290916,66.2271506212484A170.6070045455344,170.6070045455344,0,0,0,158.14198749775485,64.01454358393839Z" fill-rule="evenodd" style="fill: #1DC690; stroke: #fff; opacity: 1;" id="p-type-logs"></path><path d="M181.55151526252993,76.47252647767931A197,197,0,0,1,180.46064820867053,79.01236895642644L156.28350573211543,68.42671872945425A170.6070045455344,170.6070045455344,0,0,0,157.22822431290916,66.2271506212484Z" fill-rule="evenodd" style="fill: #1DC690; stroke: #fff; opacity: 1;" id="p-type-logs"></path><path d="M180.46064820867053,79.01236895642644A197,197,0,0,1,179.33425171445302,81.53665532763293L155.30801775338932,70.6128148533459A170.6070045455344,170.6070045455344,0,0,0,156.28350573211543,68.42671872945425Z" fill-rule="evenodd" style="fill: #1DC690; stroke: #fff; opacity: 1;" id="p-type-logs"></path><path d="M179.33425171445302,81.53665532763293A197,197,0,0,1,178.17254754699093,84.04488860493096L154.3019524326849,72.7850085901035A170.6070045455344,170.6070045455344,0,0,0,155.30801775338932,70.6128148533459Z" fill-rule="evenodd" style="fill: #1DC690; stroke: #fff; opacity: 1;" id="p-type-logs"></path><path d="M178.17254754699093,84.04488860493096A197,197,0,0,1,176.9757644248406,86.536574962517L153.26550784608227,74.94287227403612A170.6070045455344,170.6070045455344,0,0,0,154.3019524326849,72.7850085901035Z" fill-rule="evenodd" style="fill: #1DC690; stroke: #fff; opacity: 1;" id="p-type-logs"></path><path d="M176.9757644248406,86.536574962517A197,197,0,0,1,175.74413797297058,89.01122383237677L152.19888805078995,77.08598106078115A170.6070045455344,170.6070045455344,0,0,0,153.26550784608227,74.94287227403612Z" fill-rule="evenodd" style="fill: #1DC690; stroke: #fff; opacity: 1;" id="p-type-logs"></path><path d="M175.74413797297058,89.01122383237677A197,197,0,0,1,174.47791067637135,91.46834800086955L151.10230304496972,79.2139130109486A170.6070045455344,170.6070045455344,0,0,0,152.19888805078995,77.08598106078115Z" fill-rule="evenodd" style="fill: #1DC690; stroke: #fff; opacity: 1;" id="p-type-logs"></path><path d="M174.47791067637135,91.46834800086955A197,197,0,0,1,173.17733183231448,93.90746370465153L149.97596872639184,81.32624917319335A170.6070045455344,170.6070045455344,0,0,0,151.10230304496972,79.2139130109486Z" fill-rule="evenodd" style="fill: #1DC690; stroke: #fff; opacity: 1;" id="p-type-logs"></path><path d="M173.17733183231448,93.90746370465153A197,197,0,0,1,171.84265750127028,96.3280907259202L148.8201068499286,83.42257366669908A170.6070045455344,170.6070045455344,0,0,0,149.97596872639184,81.32624917319335Z" fill-rule="evenodd" style="fill: #1DC690; stroke: #fff; opacity: 1;" id="p-type-logs"></path><path d="M171.84265750127028,96.3280907259202A197,197,0,0,1,170.47415045649447,98.7297524869605L147.63494498389477,85.50247376305767A170.6070045455344,170.6070045455344,0,0,0,148.8201068499286,83.42257366669908Z" fill-rule="evenodd" style="fill: #1DC690; stroke: #fff; opacity: 1;" id="p-type-logs"></path><path d="M170.47415045649447,98.7297524869605A197,197,0,0,1,169.07208013229254,101.11197614397439L146.42071646524363,87.56553996752795A170.6070045455344,170.6070045455344,0,0,0,147.63494498389477,85.50247376305767Z" fill-rule="evenodd" style="fill: #1DC690; stroke: #fff; opacity: 1;" id="p-type-logs"></path><path d="M169.07208013229254,101.11197614397439A197,197,0,0,1,167.63672257097323,103.47429268017518L145.177660353627,89.61136609965789A170.6070045455344,170.6070045455344,0,0,0,146.42071646524363,87.56553996752795Z" fill-rule="evenodd" style="fill: #1DC690; stroke: #fff; opacity: 1;" id="p-type-logs"></path><path d="M167.63672257097323,103.47429268017518A197,197,0,0,1,166.16836036850063,105.81623699812856L143.90602138432888,91.63954937325413A170.6070045455344,170.6070045455344,0,0,0,145.177660353627,89.61136609965789Z" fill-rule="evenodd" style="fill: #1DC690; stroke: #fff; opacity: 1;" id="p-type-logs"></path><path d="M166.16836036850063,105.81623699812856A197,197,0,0,1,164.66728261885626,108.13734801132176L142.60604992008126,93.6496904756833A170.6070045455344,170.6070045455344,0,0,0,143.90602138432888,91.63954937325413Z" fill-rule="evenodd" style="fill: #1DC690; stroke: #fff; opacity: 1;" id="p-type-logs"></path><path d="M164.66728261885626,108.13734801132176A197,197,0,0,1,163.13378485712164,110.43716873494333L141.2780019017725,95.64139364648948A170.6070045455344,170.6070045455344,0,0,0,142.60604992008126,93.6496904756833Z" fill-rule="evenodd" style="fill: #1DC690; stroke: #fff; opacity: 1;" id="p-type-logs"></path><path d="M163.13378485712164,110.43716873494333A197,197,0,0,1,161.5681690012928,112.71524637585496L139.92213879805703,97.61426675531227A170.6070045455344,170.6070045455344,0,0,0,141.2780019017725,95.64139364648948Z" fill-rule="evenodd" style="fill: #1DC690; stroke: #fff; opacity: 1;" id="p-type-logs"></path><path d="M161.5681690012928,112.71524637585496A197,197,0,0,1,159.97074329283802,114.97113242173849L138.5387275538768,99.56792137909024A170.6070045455344,170.6070045455344,0,0,0,139.92213879805703,97.61426675531227Z" fill-rule="evenodd" style="fill: #1DC690; stroke: #fff; opacity: 1;" id="p-type-logs"></path><path d="M159.97074329283802,114.97113242173849A197,197,0,0,1,158.34182223601067,117.20438272939967L137.12804053790495,101.50197287853423A170.6070045455344,170.6070045455344,0,0,0,138.5387275538768,99.56792137909024Z" fill-rule="evenodd" style="fill: #1DC690; stroke: #fff; opacity: 1;" id="p-type-logs"></path><path d="M158.34182223601067,117.20438272939967A197,197,0,0,1,156.68172653592913,119.4145576122121L135.690355488921,103.4160404738561A170.6070045455344,170.6070045455344,0,0,0,137.12804053790495,101.50197287853423Z" fill-rule="evenodd" style="fill: #1DC690; stroke: #fff; opacity: 1;" id="p-type-logs"></path><path d="M156.68172653592913,119.4145576122121A197,197,0,0,1,154.99078303543556,121.60122192668355L134.22595546112942,105.30974731973724A170.6070045455344,170.6070045455344,0,0,0,135.690355488921,103.4160404738561Z" fill-rule="evenodd" style="fill: #1DC690; stroke: #fff; opacity: 1;" id="p-type-logs"></path><path d="M154.99078303543556,121.60122192668355A197,197,0,0,1,153.26932465074657,123.76394515812771L132.73512876843103,107.18272057952267A170.6070045455344,170.6070045455344,0,0,0,134.22595546112942,105.30974731973724Z" fill-rule="evenodd" style="fill: #1DC690; stroke: #fff; opacity: 1;" id="p-type-logs"></path><path d="M153.26932465074657,123.76394515812771A197,197,0,0,1,151.51769030590808,125.90230150542496L131.21816892765955,109.03459149862579A170.6070045455344,170.6070045455344,0,0,0,132.73512876843103,107.18272057952267Z" fill-rule="evenodd" style="fill: #1DC690; stroke: #fff; opacity: 1;" id="p-type-logs"></path><path d="M151.51769030590808,125.90230150542496A197,197,0,0,1,149.73622486606706,128.01586996485474L129.67537460079322,110.86499547712951A170.6070045455344,170.6070045455344,0,0,0,131.21816892765955,109.03459149862579Z" fill-rule="evenodd" style="fill: #1DC690; stroke: #fff; opacity: 1;" id="p-type-logs"></path><path d="M149.73622486606706,128.01586996485474A197,197,0,0,1,147.92527906957417,130.1042344129837L128.10704953615374,112.67357214156944A170.6070045455344,170.6070045455344,0,0,0,129.67537460079322,110.86499547712951Z" fill-rule="evenodd" style="fill: #1DC690; stroke: #fff; opacity: 1;" id="p-type-logs"></path><path d="M147.92527906957417,130.1042344129837A197,197,0,0,1,146.08520945892934,132.16698368859272L126.51350250860358,114.45996541588484A170.6070045455344,170.6070045455344,0,0,0,128.10704953615374,112.67357214156944Z" fill-rule="evenodd" style="fill: #1DC690; stroke: #fff; opacity: 1;" id="p-type-logs"></path><path d="M146.08520945892934,132.16698368859272A197,197,0,0,1,144.21637831058536,134.20371167362745L124.89504725875403,116.22382359152358A170.6070045455344,170.6070045455344,0,0,0,126.51350250860358,114.45996541588484Z" fill-rule="evenodd" style="fill: #1DC690; stroke: #fff; opacity: 1;" id="p-type-logs"></path><path d="M144.21637831058536,134.20371167362745A197,197,0,0,1,142.31915356362188,136.21401737315514L123.25200243119517,117.96479939668723A170.6070045455344,170.6070045455344,0,0,0,124.89504725875403,116.22382359152358Z" fill-rule="evenodd" style="fill: #1DC690; stroke: #fff; opacity: 1;" id="p-type-logs"></path><path d="M142.31915356362188,136.21401737315514A197,197,0,0,1,140.39390874730506,138.1975049943138L121.5846915117605,119.68255006470257A170.6070045455344,170.6070045455344,0,0,0,123.25200243119517,117.96479939668723Z" fill-rule="evenodd" style="fill: #1DC690; stroke: #fff; opacity: 1;" id="p-type-logs"></path><path d="M140.39390874730506,138.1975049943138A197,197,0,0,1,138.44102290754634,140.15378402423616L119.89344276383852,121.37673740150612A170.6070045455344,170.6070045455344,0,0,0,121.5846915117605,119.68255006470257Z" fill-rule="evenodd" style="fill: #1DC690; stroke: #fff; opacity: 1;" id="p-type-logs"></path><path d="M138.44102290754634,140.15378402423616A197,197,0,0,1,136.4608805322751,142.08246930693508L118.17858916374357,123.04702785222855A170.6070045455344,170.6070045455344,0,0,0,119.89344276383852,121.37673740150612Z" fill-rule="evenodd" style="fill: #1DC690; stroke: #fff; opacity: 1;" id="p-type-logs"></path><path d="M136.4608805322751,142.08246930693508A197,197,0,0,1,134.45387147574002,143.98318111913346L116.44046833515876,124.69309256686552A170.6070045455344,170.6070045455344,0,0,0,118.17858916374357,123.04702785222855Z" fill-rule="evenodd" style="fill: #1DC690; stroke: #fff; opacity: 1;" id="p-type-logs"></path><path d="M134.45387147574002,143.98318111913346A197,197,0,0,1,132.42039088175378,145.85554524502504L114.67942248266401,126.31460746502225A170.6070045455344,170.6070045455344,0,0,0,116.44046833515876,124.69309256686552Z" fill-rule="evenodd" style="fill: #1DC690; stroke: #fff; opacity: 1;" id="p-type-logs"></path><path d="M132.42039088175378,145.85554524502504A197,197,0,0,1,130.36083910589642,147.69919304995065L112.89579832436218,127.91125329971925A170.6070045455344,170.6070045455344,0,0,0,114.67942248266401,126.31460746502225Z" fill-rule="evenodd" style="fill: #1DC690; stroke: #fff; opacity: 1;" id="p-type-logs"></path><path d="M130.36083910589642,147.69919304995065A197,197,0,0,1,128.27562163669248,149.51376155297584L111.08994702361649,129.48271572024618A170.6070045455344,170.6070045455344,0,0,0,112.89579832436218,127.91125329971925Z" fill-rule="evenodd" style="fill: #1DC690; stroke: #fff; opacity: 1;" id="p-type-logs"></path><path d="M7.007149765690172,196.8753408940825A197,197,0,0,1,4.244079080543592,196.95427843222419L3.6754802994208537,170.56740850633972A170.6070045455344,170.6070045455344,0,0,0,6.068369705209865,170.4990465929968Z" fill-rule="evenodd" style="fill: #D7A449; stroke: #fff; opacity: 1;" id="p-type-tokenTransfers"></path><path d="M4.244079080543592,196.95427843222419A197,197,0,0,1,1.4801728129248017,196.99443923228867L1.2818672579839498,170.60218877943186A170.6070045455344,170.6070045455344,0,0,0,3.6754802994208537,170.56740850633972Z" fill-rule="evenodd" style="fill: #D7A449; stroke: #fff; opacity: 1;" id="p-type-tokenTransfers"></path><path d="M1.4801728129248017,196.99443923228867A197,197,0,0,1,-1.2840248739712585,196.9958153873402L-1.111998159950222,170.60338056466603A170.6070045455344,170.6070045455344,0,0,0,1.2818672579839498,170.60218877943186Z" fill-rule="evenodd" style="fill: #D7A449; stroke: #fff; opacity: 1;" id="p-type-tokenTransfers"></path><path d="M-1.2840248739712585,196.9958153873402A197,197,0,0,1,-4.047969759574455,196.9584066264387L-3.5056446455426644,170.5709836274012A170.6070045455344,170.6070045455344,0,0,0,-1.111998159950222,170.60338056466603Z" fill-rule="evenodd" style="fill: #D7A449; stroke: #fff; opacity: 1;" id="p-type-tokenTransfers"></path><path d="M-4.047969759574455,196.9584066264387A197,197,0,0,1,-6.811117673086663,196.88222031469314L-5.898600933058203,170.50500434600892A170.6070045455344,170.6070045455344,0,0,0,-3.5056446455426644,170.5709836274012Z" fill-rule="evenodd" style="fill: #D7A449; stroke: #fff; opacity: 1;" id="p-type-tokenTransfers"></path><path d="M-6.811117673086663,196.88222031469314A197,197,0,0,1,-9.572924600619155,196.76727145181147L-8.29039589264919,170.40545571061728A170.6070045455344,170.6070045455344,0,0,0,-5.898600933058203,170.50500434600892Z" fill-rule="evenodd" style="fill: #D7A449; stroke: #fff; opacity: 1;" id="p-type-tokenTransfers"></path><path d="M-9.572924600619155,196.76727145181147A197,197,0,0,1,-12.332846792299115,196.61358266914743L-10.680558623112459,170.2723573205535A170.6070045455344,170.6070045455344,0,0,0,-8.29039589264919,170.40545571061728Z" fill-rule="evenodd" style="fill: #D7A449; stroke: #fff; opacity: 1;" id="p-type-tokenTransfers"></path><path d="M-12.332846792299115,196.61358266914743A197,197,0,0,1,-15.090340869324146,196.42118422524493L-13.06861854460126,170.10573538048536A170.6070045455344,170.6070045455344,0,0,0,-10.680558623112459,170.2723573205535Z" fill-rule="evenodd" style="fill: #D7A449; stroke: #fff; opacity: 1;" id="p-type-tokenTransfers"></path><path d="M-15.090340869324146,196.42118422524493A197,197,0,0,1,-17.84486393094376,196.1901139998805L-15.454105491273936,169.90562269526154A170.6070045455344,170.6070045455344,0,0,0,-13.06861854460126,170.10573538048536Z" fill-rule="evenodd" style="fill: #D7A449; stroke: #fff; opacity: 1;" id="p-type-tokenTransfers"></path><path d="M-17.84486393094376,196.1901139998805A197,197,0,0,1,-20.595873661346698,195.92041748660563L-17.836549803861057,169.67205866345344A170.6070045455344,170.6070045455344,0,0,0,-15.454105491273936,169.90562269526154Z" fill-rule="evenodd" style="fill: #D7A449; stroke: #fff; opacity: 1;" id="p-type-tokenTransfers"></path><path d="M-20.595873661346698,195.92041748660563A197,197,0,0,1,-23.34282843643313,195.61214778378988L-20.215482422132876,169.4050892695979A170.6070045455344,170.6070045455344,0,0,0,-17.836549803861057,169.67205866345344Z" fill-rule="evenodd" style="fill: #D7A449; stroke: #fff; opacity: 1;" id="p-type-tokenTransfers"></path><path d="M-23.34282843643313,195.61214778378988A197,197,0,0,1,-26.08518743045064,195.26536558416666L-22.59043497724878,169.10476707514394A170.6070045455344,170.6070045455344,0,0,0,-20.215482422132876,169.4050892695979Z" fill-rule="evenodd" style="fill: #D7A449; stroke: #fff; opacity: 1;" id="p-type-tokenTransfers"></path><path d="M-26.08518743045064,195.26536558416666A197,197,0,0,1,-28.822410722473066,194.8801391628841L-24.96093988397067,168.77115120810427A170.6070045455344,170.6070045455344,0,0,0,-22.59043497724878,169.10476707514394Z" fill-rule="evenodd" style="fill: #D7A449; stroke: #fff; opacity: 1;" id="p-type-tokenTransfers"></path><path d="M-28.822410722473066,194.8801391628841A197,197,0,0,1,-31.55395940270114,194.45654436406272L-27.326530432722038,168.40430735141402A170.6070045455344,170.6070045455344,0,0,0,-24.96093988397067,168.77115120810427Z" fill-rule="evenodd" style="fill: #D7A449; stroke: #fff; opacity: 1;" id="p-type-tokenTransfers"></path><path d="M-31.55395940270114,194.45654436406272A197,197,0,0,1,-34.27929567856411,193.99466458586323L-29.686740881474645,168.00430772999894A170.6070045455344,170.6070045455344,0,0,0,-27.326530432722038,168.40430735141402Z" fill-rule="evenodd" style="fill: #D7A449; stroke: #fff; opacity: 1;" id="p-type-tokenTransfers"></path><path d="M-34.27929567856411,193.99466458586323A197,197,0,0,1,-36.99788298060138,193.4945907640669L-32.04110654744472,167.57123109655575A170.6070045455344,170.6070045455344,0,0,0,-29.686740881474645,168.00430772999894Z" fill-rule="evenodd" style="fill: #D7A449; stroke: #fff; opacity: 1;" id="p-type-tokenTransfers"></path><path d="M-36.99788298060138,193.4945907640669A197,197,0,0,1,-39.70918606810333,192.95642135417197L-34.38916389858059,167.10516271604703A170.6070045455344,170.6070045455344,0,0,0,-32.04110654744472,167.57123109655575Z" fill-rule="evenodd" style="fill: #D7A449; stroke: #fff; opacity: 1;" id="p-type-tokenTransfers"></path><path d="M-39.70918606810333,192.95642135417197A197,197,0,0,1,-42.41267113449052,192.38026231200942L-36.73045064482376,166.6061943489142A170.6070045455344,170.6070045455344,0,0,0,-34.38916389858059,167.10516271604703Z" fill-rule="evenodd" style="fill: #D7A449; stroke: #fff; opacity: 1;" id="p-type-tokenTransfers"></path><path d="M-42.41267113449052,192.38026231200942A197,197,0,0,1,-45.10780591241063,191.7662270728824L-39.0645058291255,166.07442423301134A170.6070045455344,170.6070045455344,0,0,0,-36.73045064482376,166.6061943489142Z" fill-rule="evenodd" style="fill: #D7A449; stroke: #fff; opacity: 1;" id="p-type-tokenTransfers"></path><path d="M-45.10780591241063,191.7662270728824A197,197,0,0,1,-47.79405977853219,191.11443652923265L-41.390869918200934,165.50995706426417A170.6070045455344,170.6070045455344,0,0,0,-39.0645058291255,166.07442423301134Z" fill-rule="evenodd" style="fill: #D7A449; stroke: #fff; opacity: 1;" id="p-type-tokenTransfers"></path><path d="M-47.79405977853219,191.11443652923265A197,197,0,0,1,-50.47090385801478,190.42501900683908L-43.70908489300283,164.9129039760572A170.6070045455344,170.6070045455344,0,0,0,-41.390869918200934,165.50995706426417Z" fill-rule="evenodd" style="fill: #D7A449; stroke: #fff; opacity: 1;" id="p-type-tokenTransfers"></path><path d="M-50.47090385801478,190.42501900683908A197,197,0,0,1,-53.137811128634915,189.6981102395528L-46.01869433889729,164.28338251735366A170.6070045455344,170.6070045455344,0,0,0,-43.70908489300283,164.9129039760572Z" fill-rule="evenodd" style="fill: #D7A449; stroke: #fff; opacity: 1;" id="p-type-tokenTransfers"></path><path d="M-53.137811128634915,189.6981102395528A197,197,0,0,1,-55.79425652454722,188.93385334257334L-48.319243535523555,163.621516629552A170.6070045455344,170.6070045455344,0,0,0,-46.01869433889729,164.28338251735366Z" fill-rule="evenodd" style="fill: #D7A449; stroke: #fff; opacity: 1;" id="p-type-tokenTransfers"></path><path d="M-55.79425652454722,188.93385334257334A197,197,0,0,1,-58.43971703966034,188.13239878427223L-50.61027954632018,162.92743662208437A170.6070045455344,170.6070045455344,0,0,0,-48.319243535523555,163.621516629552Z" fill-rule="evenodd" style="fill: #D7A449; stroke: #fff; opacity: 1;" id="p-type-tokenTransfers"></path><path d="M-58.43971703966034,188.13239878427223A197,197,0,0,1,-61.073671830607466,187.29390435656805L-52.89135130770013,162.20127914676087A170.6070045455344,170.6070045455344,0,0,0,-50.61027954632018,162.92743662208437Z" fill-rule="evenodd" style="fill: #D7A449; stroke: #fff; opacity: 1;" id="p-type-tokenTransfers"></path><path d="M-61.073671830607466,187.29390435656805A197,197,0,0,1,-63.695602319290934,186.41853514386045L-55.16200971785696,161.44318717086531A170.6070045455344,170.6070045455344,0,0,0,-52.89135130770013,162.20127914676087Z" fill-rule="evenodd" style="fill: #D7A449; stroke: #fff; opacity: 1;" id="p-type-tokenTransfers"></path><path d="M-63.695602319290934,186.41853514386045A197,197,0,0,1,-66.3049922949809,185.5064634905278L-57.42180772518493,160.65330994900756A170.6070045455344,170.6070045455344,0,0,0,-55.16200971785696,161.44318717086531Z" fill-rule="evenodd" style="fill: #D7A449; stroke: #fff; opacity: 1;" id="p-type-tokenTransfers"></path><path d="M-66.3049922949809,185.5064634905278A197,197,0,0,1,-68.90132801594788,184.5578689669957L-59.67030041629532,159.83180299373797A170.6070045455344,170.6070045455344,0,0,0,-57.42180772518493,160.65330994900756Z" fill-rule="evenodd" style="fill: #D7A449; stroke: #fff; opacity: 1;" id="p-type-tokenTransfers"></path><path d="M-68.90132801594788,184.5578689669957A197,197,0,0,1,-71.48409831060926,183.5729383343829L-61.90704510361189,158.9788280449298A170.6070045455344,170.6070045455344,0,0,0,-59.67030041629532,159.83180299373797Z" fill-rule="evenodd" style="fill: #D7A449; stroke: #fff; opacity: 1;" id="p-type-tokenTransfers"></path><path d="M-71.48409831060926,183.5729383343829A197,197,0,0,1,-74.05279467816969,182.55186550773138L-64.13160141252803,158.0945530379356A170.6070045455344,170.6070045455344,0,0,0,-61.90704510361189,158.9788280449298Z" fill-rule="evenodd" style="fill: #D7A449; stroke: #fff; opacity: 1;" id="p-type-tokenTransfers"></path><path d="M-74.05279467816969,182.55186550773138A197,197,0,0,1,-76.60691138873571,181.4948515178279L-66.34353136810854,157.17915207052363A170.6070045455344,170.6070045455344,0,0,0,-64.13160141252803,158.0945530379356Z" fill-rule="evenodd" style="fill: #D7A449; stroke: #fff; opacity: 1;" id="p-type-tokenTransfers"></path><path d="M-76.60691138873571,181.4948515178279A197,197,0,0,1,-79.14594558288486,180.4021044716248L-68.54239948131907,156.23280536860133A170.6070045455344,170.6070045455344,0,0,0,-66.34353136810854,157.17915207052363Z" fill-rule="evenodd" style="fill: #D7A449; stroke: #fff; opacity: 1;" id="p-type-tokenTransfers"></path><path d="M-79.14594558288486,180.4021044716248A197,197,0,0,1,-81.6693973706696,179.27383951126743L-70.72777283476591,155.25569925073202A170.6070045455344,170.6070045455344,0,0,0,-68.54239948131907,156.23280536860133Z" fill-rule="evenodd" style="fill: #D7A449; stroke: #fff; opacity: 1;" id="p-type-tokenTransfers"></path><path d="M-156.66836765389732,119.43208353145005A197,197,0,0,1,-171.83090801152193,96.34904800741874L-148.80993149332502,83.44072320487108A170.6070045455344,170.6070045455344,0,0,0,-135.67878635771532,103.43121836514084Z" fill-rule="evenodd" style="fill: #414552; stroke: #fff; opacity: 1;" id="p-type-ether"></path><path d="M-171.83090801152193,96.34904800741874A197,197,0,0,1,-177.97548360591148,84.46139494018513L-154.13129005354023,73.14571365727076A170.6070045455344,170.6070045455344,0,0,0,-148.80993149332502,83.44072320487108Z" fill-rule="evenodd" style="fill: #414552; stroke: #fff; opacity: 1;" id="p-type-ether"></path><path d="M-177.97548360591148,84.46139494018513A197,197,0,0,1,-179.34947427841243,81.50316604928351L-155.3212008804889,70.58381228754091A170.6070045455344,170.6070045455344,0,0,0,-154.13129005354023,73.14571365727076Z" fill-rule="evenodd" style="fill: #414552; stroke: #fff; opacity: 1;" id="p-type-ether"></path><path d="M-179.34947427841243,81.50316604928351A197,197,0,0,1,-179.95062677104008,80.16714991010863L-155.8418142106528,69.42678837114946A170.6070045455344,170.6070045455344,0,0,0,-155.3212008804889,70.58381228754091Z" fill-rule="evenodd" style="fill: #414552; stroke: #fff; opacity: 1;" id="p-type-ether"></path><path d="M-179.95062677104008,80.16714991010863A197,197,0,0,1,-180.50862925020039,78.90269175518476L-156.32505853298034,68.33173548696298A170.6070045455344,170.6070045455344,0,0,0,-155.8418142106528,69.42678837114946Z" fill-rule="evenodd" style="fill: #414552; stroke: #fff; opacity: 1;" id="p-type-ether"></path></g></svg>