<svg xmlns="http://www.w3.org/2000/svg" width="400" height="400" id="block-7907915"><g id="burst-container" transform="translate(200,200)"><circle r="197" style="fill: #f9f9f9; stroke: #f9f9f9; stroke-width: 3; opacity: 1;" id="circle-base"></circle><path display="none" d="M6.031385485800715e-15,-98.5A98.5,98.5,0,1,1,-6.031385485800715e-15,98.5A98.5,98.5,0,1,1,6.031385485800715e-15,-98.5Z" fill-rule="evenodd" id="p-type-root" style="stroke: #fff; opacity: 1;"></path><path d="M8.529667153919608e-15,-139.30003589374985A139.30003589374985,139.30003589374985,0,1,1,-101.33208106497261,-95.58404337043822L-71.65260167278709,-67.58812524046594A98.5,98.5,0,1,0,6.031385485800715e-15,-98.5Z" fill-rule="evenodd" style="fill: #0B1F65; stroke: #fff; opacity: 1;" id="p-type-data"></path><path d="M-101.33208106497261,-95.58404337043822A139.30003589374985,139.30003589374985,0,0,1,-2.3394991957975972,-139.2803889408443L-1.6542757459289557,-98.48610750637083A98.5,98.5,0,0,0,-71.65260167278709,-67.58812524046594Z" fill-rule="evenodd" style="fill: #D7A449; stroke: #fff; opacity: 1;" id="p-type-value"></path><path d="M1.0446666101440332e-14,-170.6070045455344A170.6070045455344,170.6070045455344,0,0,1,168.67855572929815,25.579187576583678L137.72546402879883,20.88531919918954A139.30003589374985,139.30003589374985,0,0,0,8.529667153919608e-15,-139.30003589374985Z" fill-rule="evenodd" style="fill: #DB3F29; stroke: #fff; opacity: 1;" id="p-type-functions"></path><path d="M168.67855572929815,25.579187576583678A170.6070045455344,170.6070045455344,0,0,1,21.616914449148513,169.2319680488831L17.65013673793692,138.17732329558322A139.30003589374985,139.30003589374985,0,0,0,137.72546402879883,20.88531919918954Z" fill-rule="evenodd" style="fill: #1DC690; stroke: #fff; opacity: 1;" id="p-type-logs"></path><path d="M21.616914449148513,169.2319680488831A170.6070045455344,170.6070045455344,0,0,1,-135.14091038371257,104.13301273208882L-110.34209127176153,85.02424885745388A139.30003589374985,139.30003589374985,0,0,0,17.65013673793692,138.17732329558322Z" fill-rule="evenodd" style="fill: #D7A449; stroke: #fff; opacity: 1;" id="p-type-tokenTransfers"></path><path d="M-135.14091038371257,104.13301273208882A170.6070045455344,170.6070045455344,0,0,1,-163.72006783877885,47.98426186642506L-133.67687561961827,39.17898575227672A139.30003589374985,139.30003589374985,0,0,0,-110.34209127176153,85.02424885745388Z" fill-rule="evenodd" style="fill: #414552; stroke: #fff; opacity: 1;" id="p-type-ether"></path><path d="M-124.10594659176196,-117.06606690481544A170.6070045455344,170.6070045455344,0,0,1,-49.426040431700876,-163.29058921825185L-40.35619302127931,-133.32620779437644A139.30003589374985,139.30003589374985,0,0,0,-101.33208106497261,-95.58404337043822Z" fill-rule="evenodd" style="fill: #D7A449; stroke: #fff; opacity: 1;" id="p-type-tokenTransfers"></path><path d="M-49.426040431700876,-163.29058921825185A170.6070045455344,170.6070045455344,0,0,1,-5.729771039333489,-170.51076131387373L-4.678338463114497,-139.22145362416146A139.30003589374985,139.30003589374985,0,0,0,-40.35619302127931,-133.32620779437644Z" fill-rule="evenodd" style="fill: #414552; stroke: #fff; opacity: 1;" id="p-type-ether"></path><path d="M1.206277097160143e-14,-197A197,197,0,0,1,10.559473198938386,-196.7167952305062L9.144772040861575,-170.36174202067986A170.6070045455344,170.6070045455344,0,0,0,1.0446666101440332e-14,-170.6070045455344Z" fill-rule="evenodd" style="fill: #DB3F29; stroke: #fff; opacity: 1;" id="p-type-functions"></path><path d="M10.559473198938386,-196.7167952305062A197,197,0,0,1,12.21105669265235,-196.62118424637978L10.575085302888922,-170.27894047954555A170.6070045455344,170.6070045455344,0,0,0,9.144772040861575,-170.36174202067986Z" fill-rule="evenodd" style="fill: #DB3F29; stroke: #fff; opacity: 1;" id="p-type-functions"></path><path d="M12.21105669265235,-196.62118424637978A197,197,0,0,1,13.861779044141874,-196.51170723835102L12.004652793873637,-170.18413060946236A170.6070045455344,170.6070045455344,0,0,0,10.575085302888922,-170.27894047954555Z" fill-rule="evenodd" style="fill: #DB3F29; stroke: #fff; opacity: 1;" id="p-type-functions"></path><path d="M13.861779044141874,-196.51170723835102A197,197,0,0,1,15.51152384196498,-196.38837192690445L13.43337369854967,-170.07731909656593A170.6070045455344,170.6070045455344,0,0,0,12.004652793873637,-170.18413060946236Z" fill-rule="evenodd" style="fill: #DB3F29; stroke: #fff; opacity: 1;" id="p-type-functions"></path><path d="M15.51152384196498,-196.38837192690445A197,197,0,0,1,17.160174743618256,-196.2511870098331L14.861147261353526,-169.95851347336608A170.6070045455344,170.6070045455344,0,0,0,13.43337369854967,-170.07731909656593Z" fill-rule="evenodd" style="fill: #DB3F29; stroke: #fff; opacity: 1;" id="p-type-functions"></path><path d="M17.160174743618256,-196.2511870098331A197,197,0,0,1,18.807615483741504,-196.10016216162526L16.287872793529697,-169.82772211821543A170.6070045455344,170.6070045455344,0,0,0,14.861147261353526,-169.95851347336608Z" fill-rule="evenodd" style="fill: #DB3F29; stroke: #fff; opacity: 1;" id="p-type-functions"></path><path d="M18.807615483741504,-196.10016216162526A197,197,0,0,1,20.45372988231695,-195.93530803278213L17.713449680231374,-169.6849542547185A170.6070045455344,170.6070045455344,0,0,0,16.287872793529697,-169.82772211821543Z" fill-rule="evenodd" style="fill: #DB3F29; stroke: #fff; opacity: 1;" id="p-type-functions"></path><path d="M20.45372988231695,-195.93530803278213A197,197,0,0,1,22.09840185286248,-195.75663624906667L19.137777387616016,-169.53021995108145A170.6070045455344,170.6070045455344,0,0,0,17.713449680231374,-169.6849542547185Z" fill-rule="evenodd" style="fill: #DB3F29; stroke: #fff; opacity: 1;" id="p-type-functions"></path><path d="M22.09840185286248,-195.75663624906667A197,197,0,0,1,23.74151541061806,-195.5641594106839L20.56075546993498,-169.36353011940184A170.6070045455344,170.6070045455344,0,0,0,19.137777387616016,-169.53021995108145Z" fill-rule="evenodd" style="fill: #DB3F29; stroke: #fff; opacity: 1;" id="p-type-functions"></path><path d="M23.74151541061806,-195.5641594106839A197,197,0,0,1,25.382954680725422,-195.35789109139216L21.98228357661734,-169.18489651489926A170.6070045455344,170.6070045455344,0,0,0,20.56075546993498,-169.36353011940184Z" fill-rule="evenodd" style="fill: #DB3F29; stroke: #fff; opacity: 1;" id="p-type-functions"></path><path d="M25.382954680725422,-195.35789109139216A197,197,0,0,1,27.022603906399556,-195.1378458375459L23.402261459346626,-168.99433173508623A170.6070045455344,170.6070045455344,0,0,0,21.98228357661734,-169.18489651489926Z" fill-rule="evenodd" style="fill: #DB3F29; stroke: #fff; opacity: 1;" id="p-type-functions"></path><path d="M27.022603906399556,-195.1378458375459A197,197,0,0,1,28.66034745709209,-194.90403916706998L24.820588979130484,-168.79184921887983A170.6070045455344,170.6070045455344,0,0,0,23.402261459346626,-168.99433173508623Z" fill-rule="evenodd" style="fill: #DB3F29; stroke: #fff; opacity: 1;" id="p-type-functions"></path><path d="M28.66034745709209,-194.90403916706998A197,197,0,0,1,30.296069836645753,-194.65648756836512L26.237166113362687,-168.57746324565395A170.6070045455344,170.6070045455344,0,0,0,24.820588979130484,-168.79184921887983Z" fill-rule="evenodd" style="fill: #DB3F29; stroke: #fff; opacity: 1;" id="p-type-functions"></path><path d="M30.296069836645753,-194.65648756836512A197,197,0,0,1,31.92965569143931,-194.3952084991452L27.65189296287683,-168.35118893423237A170.6070045455344,170.6070045455344,0,0,0,26.237166113362687,-168.57746324565395Z" fill-rule="evenodd" style="fill: #DB3F29; stroke: #fff; opacity: 1;" id="p-type-functions"></path><path d="M31.92965569143931,-194.3952084991452A197,197,0,0,1,33.560989818522515,-194.1202203852062L29.064669758991393,-168.11304224182243A170.6070045455344,170.6070045455344,0,0,0,27.65189296287683,-168.35118893423237Z" fill-rule="evenodd" style="fill: #DB3F29; stroke: #fff; opacity: 1;" id="p-type-functions"></path><path d="M33.560989818522515,-194.1202203852062A197,197,0,0,1,35.18995717374034,-193.83154261912668L30.47539687054558,-167.86303996288981A170.6070045455344,170.6070045455344,0,0,0,29.064669758991393,-168.11304224182243Z" fill-rule="evenodd" style="fill: #DB3F29; stroke: #fff; opacity: 1;" id="p-type-functions"></path><path d="M35.18995717374034,-193.83154261912668A197,197,0,0,1,36.816442879846164,-193.52919555890017L31.883974810925498,-167.6011997279741A170.6070045455344,170.6070045455344,0,0,0,30.47539687054558,-167.86303996288981Z" fill-rule="evenodd" style="fill: #DB3F29; stroke: #fff; opacity: 1;" id="p-type-functions"></path><path d="M36.816442879846164,-193.52919555890017A197,197,0,0,1,38.440332234602884,-193.21320052649963L33.29030424507994,-167.32754000244555A170.6070045455344,170.6070045455344,0,0,0,31.883974810925498,-167.6011997279741Z" fill-rule="evenodd" style="fill: #DB3F29; stroke: #fff; opacity: 1;" id="p-type-functions"></path><path d="M38.440332234602884,-193.21320052649963A197,197,0,0,1,40.061510718872164,-192.8835798063736L34.694285996525885,-167.04208008520268A170.6070045455344,170.6070045455344,0,0,0,33.29030424507994,-167.32754000244555Z" fill-rule="evenodd" style="fill: #DB3F29; stroke: #fff; opacity: 1;" id="p-type-functions"></path><path d="M40.061510718872164,-192.8835798063736A197,197,0,0,1,41.679864004690316,-192.54035664387484L36.09582105434242,-166.74484010731155A170.6070045455344,170.6070045455344,0,0,0,34.694285996525885,-167.04208008520268Z" fill-rule="evenodd" style="fill: #DB3F29; stroke: #fff; opacity: 1;" id="p-type-functions"></path><path d="M41.679864004690316,-192.54035664387484A197,197,0,0,1,43.29527796333092,-192.18355524362096L37.494810580153164,-166.4358410305858A170.6070045455344,170.6070045455344,0,0,0,36.09582105434242,-166.74484010731155Z" fill-rule="evenodd" style="fill: #DB3F29; stroke: #fff; opacity: 1;" id="p-type-functions"></path><path d="M43.29527796333092,-192.18355524362096A197,197,0,0,1,44.90763867335337,-191.81320076778746L38.891155915096526,-166.11510464610873A170.6070045455344,170.6070045455344,0,0,0,37.494810580153164,-166.4358410305858Z" fill-rule="evenodd" style="fill: #DB3F29; stroke: #fff; opacity: 1;" id="p-type-functions"></path><path d="M44.90763867335337,-191.81320076778746A197,197,0,0,1,46.51683242863679,-191.42931933433323L40.28475858678325,-165.78265357269618A170.6070045455344,170.6070045455344,0,0,0,38.891155915096526,-166.11510464610873Z" fill-rule="evenodd" style="fill: #DB3F29; stroke: #fff; opacity: 1;" id="p-type-functions"></path><path d="M46.51683242863679,-191.42931933433323A197,197,0,0,1,48.122745746398785,-191.03193801515874L41.675520316240885,-165.4385112553017A170.6070045455344,170.6070045455344,0,0,0,40.28475858678325,-165.78265357269618Z" fill-rule="evenodd" style="fill: #DB3F29; stroke: #fff; opacity: 1;" id="p-type-functions"></path><path d="M48.122745746398785,-191.03193801515874A197,197,0,0,1,49.72526537519822,-190.62108483419698L43.0633430248444,-165.08270196336315A170.6070045455344,170.6070045455344,0,0,0,41.675520316240885,-165.4385112553017Z" fill-rule="evenodd" style="fill: #DB3F29; stroke: #fff; opacity: 1;" id="p-type-functions"></path><path d="M49.72526537519822,-190.62108483419698A197,197,0,0,1,51.32427830292233,-190.19678876543676L44.44812884123321,-164.71525078909096A170.6070045455344,170.6070045455344,0,0,0,43.0633430248444,-165.08270196336315Z" fill-rule="evenodd" style="fill: #DB3F29; stroke: #fff; opacity: 1;" id="p-type-functions"></path><path d="M51.32427830292233,-190.19678876543676A197,197,0,0,1,52.919671764755904,-189.75907973088005L45.82978010821269,-164.3361836456989A170.6070045455344,170.6070045455344,0,0,0,44.44812884123321,-164.71525078909096Z" fill-rule="evenodd" style="fill: #DB3F29; stroke: #fff; opacity: 1;" id="p-type-functions"></path><path d="M52.919671764755904,-189.75907973088005A197,197,0,0,1,54.51133325113428,-189.30798859843125L47.20819938964166,-163.94552726557635A170.6070045455344,170.6070045455344,0,0,0,45.82978010821269,-164.3361836456989Z" fill-rule="evenodd" style="fill: #DB3F29; stroke: #fff; opacity: 1;" id="p-type-functions"></path><path d="M54.51133325113428,-189.30798859843125A197,197,0,0,1,56.09915051567703,-188.84354717972076L48.583289477303204,-163.54330919840334A170.6070045455344,170.6070045455344,0,0,0,47.20819938964166,-163.94552726557635Z" fill-rule="evenodd" style="fill: #DB3F29; stroke: #fff; opacity: 1;" id="p-type-functions"></path><path d="M56.09915051567703,-188.84354717972076A197,197,0,0,1,57.683011583104424,-188.36578822786117L49.95495339776046,-163.12955780920754A170.6070045455344,170.6070045455344,0,0,0,48.583289477303204,-163.54330919840334Z" fill-rule="evenodd" style="fill: #DB3F29; stroke: #fff; opacity: 1;" id="p-type-functions"></path><path d="M57.683011583104424,-188.36578822786117A197,197,0,0,1,59.26280475713338,-187.87474543513795L51.32309441919479,-162.70430227636396A170.6070045455344,170.6070045455344,0,0,0,49.95495339776046,-163.12955780920754Z" fill-rule="evenodd" style="fill: #DB3F29; stroke: #fff; opacity: 1;" id="p-type-functions"></path><path d="M59.26280475713338,-187.87474543513795A197,197,0,0,1,60.83841862835517,-187.37045343063298L52.687616058228,-162.26757258953728A170.6070045455344,170.6070045455344,0,0,0,51.32309441919479,-162.70430227636396Z" fill-rule="evenodd" style="fill: #DB3F29; stroke: #fff; opacity: 1;" id="p-type-functions"></path><path d="M60.83841862835517,-187.37045343063298A197,197,0,0,1,62.40974208209153,-186.85294777778276L54.04842208672599,-161.81939954756695A170.6070045455344,170.6070045455344,0,0,0,52.687616058228,-162.26757258953728Z" fill-rule="evenodd" style="fill: #DB3F29; stroke: #fff; opacity: 1;" id="p-type-functions"></path><path d="M62.40974208209153,-186.85294777778276A197,197,0,0,1,63.97666430623124,-186.32226497187017L55.40541653858539,-161.35981475629504A170.6070045455344,170.6070045455344,0,0,0,54.04842208672599,-161.81939954756695Z" fill-rule="evenodd" style="fill: #DB3F29; stroke: #fff; opacity: 1;" id="p-type-functions"></path><path d="M63.97666430623124,-186.32226497187017A197,197,0,0,1,65.53907479904413,-185.77844243745102L56.75850371650071,-160.88885062633761A170.6070045455344,170.6070045455344,0,0,0,55.40541653858539,-161.35981475629504Z" fill-rule="evenodd" style="fill: #DB3F29; stroke: #fff; opacity: 1;" id="p-type-functions"></path><path d="M65.53907479904413,-185.77844243745102A197,197,0,0,1,67.0968633769745,-185.22151852571454L58.10758819871365,-160.4065403707988A170.6070045455344,170.6070045455344,0,0,0,56.75850371650071,-160.88885062633761Z" fill-rule="evenodd" style="fill: #DB3F29; stroke: #fff; opacity: 1;" id="p-type-functions"></path><path d="M67.0968633769745,-185.22151852571454A197,197,0,0,1,68.64992018241077,-184.65153251177912L59.45257484574177,-159.91291800292893A170.6070045455344,170.6070045455344,0,0,0,58.10758819871365,-160.4065403707988Z" fill-rule="evenodd" style="fill: #DB3F29; stroke: #fff; opacity: 1;" id="p-type-functions"></path><path d="M68.64992018241077,-184.65153251177912A197,197,0,0,1,70.19813569143345,-184.06852459192228L60.79336880708846,-159.40801833372538A170.6070045455344,170.6070045455344,0,0,0,59.45257484574177,-159.91291800292893Z" fill-rule="evenodd" style="fill: #DB3F29; stroke: #fff; opacity: 1;" id="p-type-functions"></path><path d="M70.19813569143345,-184.06852459192228A197,197,0,0,1,71.74140072153827,-183.4725358807461L62.1298755279314,-158.89187696947806A170.6070045455344,170.6070045455344,0,0,0,60.79336880708846,-159.40801833372538Z" fill-rule="evenodd" style="fill: #DB3F29; stroke: #fff; opacity: 1;" id="p-type-functions"></path><path d="M71.74140072153827,-183.4725358807461A197,197,0,0,1,73.27960643933659,-182.8636084082777L63.462000755791216,-158.36453030925819A170.6070045455344,170.6070045455344,0,0,0,62.1298755279314,-158.89187696947806Z" fill-rule="evenodd" style="fill: #DB3F29; stroke: #fff; opacity: 1;" id="p-type-functions"></path><path d="M73.27960643933659,-182.8636084082777A197,197,0,0,1,74.8126443682298,-182.2417851170054L64.78965054717781,-157.8260155423515A170.6070045455344,170.6070045455344,0,0,0,63.462000755791216,-158.36453030925819Z" fill-rule="evenodd" style="fill: #DB3F29; stroke: #fff; opacity: 1;" id="p-type-functions"></path><path d="M74.8126443682298,-182.2417851170054A197,197,0,0,1,76.34040639605989,-181.60710985885L66.11273127421592,-157.27637064563547A170.6070045455344,170.6070045455344,0,0,0,64.78965054717781,-157.8260155423515Z" fill-rule="evenodd" style="fill: #DB3F29; stroke: #fff; opacity: 1;" id="p-type-functions"></path><path d="M76.34040639605989,-181.60710985885A197,197,0,0,1,77.86278478273314,-180.9596273920727L67.43114963124731,-156.71563438090132A170.6070045455344,170.6070045455344,0,0,0,66.11273127421592,-157.27637064563547Z" fill-rule="evenodd" style="fill: #DB3F29; stroke: #fff; opacity: 1;" id="p-type-functions"></path><path d="M77.86278478273314,-180.9596273920727A197,197,0,0,1,79.37967216781861,-180.2993833781182L68.74481264141149,-156.14384629212012A170.6070045455344,170.6070045455344,0,0,0,67.43114963124731,-156.71563438090132Z" fill-rule="evenodd" style="fill: #DB3F29; stroke: #fff; opacity: 1;" id="p-type-functions"></path><path d="M79.37967216781861,-180.2993833781182A197,197,0,0,1,80.89096157811885,-179.62642437839511L70.05362766320188,-155.56104670265455A170.6070045455344,170.6070045455344,0,0,0,68.74481264141149,-156.14384629212012Z" fill-rule="evenodd" style="fill: #DB3F29; stroke: #fff; opacity: 1;" id="p-type-functions"></path><path d="M80.89096157811885,-179.62642437839511A197,197,0,0,1,82.39654643521433,-178.94079785099197L71.35750239699973,-154.96727671241493A170.6070045455344,170.6070045455344,0,0,0,70.05362766320188,-155.56104670265455Z" fill-rule="evenodd" style="fill: #DB3F29; stroke: #fff; opacity: 1;" id="p-type-functions"></path><path d="M82.39654643521433,-178.94079785099197A197,197,0,0,1,83.89632056297903,-178.24255214733057L72.6563448915826,-154.36257819496083A170.6070045455344,170.6070045455344,0,0,0,71.35750239699973,-154.96727671241493Z" fill-rule="evenodd" style="fill: #DB3F29; stroke: #fff; opacity: 1;" id="p-type-functions"></path><path d="M83.89632056297903,-178.24255214733057A197,197,0,0,1,85.39017819506859,-177.53173650875618L73.95006355060944,-153.74699379454813A170.6070045455344,170.6070045455344,0,0,0,72.6563448915826,-154.36257819496083Z" fill-rule="evenodd" style="fill: #DB3F29; stroke: #fff; opacity: 1;" id="p-type-functions"></path><path d="M85.39017819506859,-177.53173650875618A197,197,0,0,1,86.87801398237863,-176.80840106306493L75.23856713907956,-153.12056692312177A170.6070045455344,170.6070045455344,0,0,0,73.95006355060944,-153.74699379454813Z" fill-rule="evenodd" style="fill: #DB3F29; stroke: #fff; opacity: 1;" id="p-type-functions"></path><path d="M86.87801398237863,-176.80840106306493A197,197,0,0,1,88.35972300047473,-176.07259682096864L76.52176478976727,-152.48334175725404A170.6070045455344,170.6070045455344,0,0,0,75.23856713907956,-153.12056692312177Z" fill-rule="evenodd" style="fill: #DB3F29; stroke: #fff; opacity: 1;" id="p-type-functions"></path><path d="M88.35972300047473,-176.07259682096864A197,197,0,0,1,89.83520075699113,-175.32437567249767L77.79956600962936,-151.8353632350294A170.6070045455344,170.6070045455344,0,0,0,76.52176478976727,-152.48334175725404Z" fill-rule="evenodd" style="fill: #DB3F29; stroke: #fff; opacity: 1;" id="p-type-functions"></path><path d="M89.83520075699113,-175.32437567249767A197,197,0,0,1,91.30434319900047,-174.56379038334134L79.07188068618734,-151.17667705287528A170.6070045455344,170.6070045455344,0,0,0,77.79956600962936,-151.8353632350294Z" fill-rule="evenodd" style="fill: #DB3F29; stroke: #fff; opacity: 1;" id="p-type-functions"></path><path d="M91.30434319900047,-174.56379038334134A197,197,0,0,1,92.767046720351,-173.790894591127L80.33861909388186,-150.50732966233957A170.6070045455344,170.6070045455344,0,0,0,79.07188068618734,-151.17667705287528Z" fill-rule="evenodd" style="fill: #DB3F29; stroke: #fff; opacity: 1;" id="p-type-functions"></path><path d="M92.767046720351,-173.790894591127A197,197,0,0,1,94.22320816897376,-173.00574280163718L81.59969190040071,-149.82736826681457A170.6070045455344,170.6070045455344,0,0,0,80.33861909388186,-150.50732966233957Z" fill-rule="evenodd" style="fill: #DB3F29; stroke: #fff; opacity: 1;" id="p-type-functions"></path><path d="M94.22320816897376,-173.00574280163718A197,197,0,0,1,95.67272485415634,-172.20839038496612L82.85501017297824,-149.13684081820853A170.6070045455344,170.6070045455344,0,0,0,81.59969190040071,-149.82736826681457Z" fill-rule="evenodd" style="fill: #DB3F29; stroke: #fff; opacity: 1;" id="p-type-functions"></path><path d="M95.67272485415634,-172.20839038496612A197,197,0,0,1,97.11549455378545,-171.3988935716146L84.1044853846675,-148.43579601356356A170.6070045455344,170.6070045455344,0,0,0,82.85501017297824,-149.13684081820853Z" fill-rule="evenodd" style="fill: #DB3F29; stroke: #fff; opacity: 1;" id="p-type-functions"></path><path d="M97.11549455378545,-171.3988935716146A197,197,0,0,1,98.55141552155513,-170.57730944852477L85.34802942058278,-147.72428329162182A170.6070045455344,170.6070045455344,0,0,0,84.1044853846675,-148.43579601356356Z" fill-rule="evenodd" style="fill: #DB3F29; stroke: #fff; opacity: 1;" id="p-type-functions"></path><path d="M98.55141552155513,-170.57730944852477A197,197,0,0,1,99.98038649414269,-169.7436959550541L86.58555458411415,-147.00235282933872A170.6070045455344,170.6070045455344,0,0,0,85.34802942058278,-147.72428329162182Z" fill-rule="evenodd" style="fill: #DB3F29; stroke: #fff; opacity: 1;" id="p-type-functions"></path><path d="M99.98038649414269,-169.7436959550541A197,197,0,0,1,101.40230669834928,-168.8981118788896L87.81697360311142,-146.27005553834465A170.6070045455344,170.6070045455344,0,0,0,86.58555458411415,-147.00235282933872Z" fill-rule="evenodd" style="fill: #DB3F29; stroke: #fff; opacity: 1;" id="p-type-functions"></path><path d="M101.40230669834928,-168.8981118788896A197,197,0,0,1,102.81707585820729,-168.04061685190177L89.04219963603923,-145.52744306135438A170.6070045455344,170.6070045455344,0,0,0,87.81697360311142,-146.27005553834465Z" fill-rule="evenodd" style="fill: #DB3F29; stroke: #fff; opacity: 1;" id="p-type-functions"></path><path d="M102.81707585820729,-168.04061685190177A197,197,0,0,1,104.22459420205124,-167.17127134593954L90.26114627810068,-144.77456776852526A170.6070045455344,170.6070045455344,0,0,0,89.04219963603923,-145.52744306135438Z" fill-rule="evenodd" style="fill: #DB3F29; stroke: #fff; opacity: 1;" id="p-type-functions"></path><path d="M104.22459420205124,-167.17127134593954A197,197,0,0,1,105.6247624695545,-166.2901366685655L91.47372756733135,-144.01148275376394A170.6070045455344,170.6070045455344,0,0,0,90.26114627810068,-144.77456776852526Z" fill-rule="evenodd" style="fill: #DB3F29; stroke: #fff; opacity: 1;" id="p-type-functions"></path><path d="M105.6247624695545,-166.2901366685655A197,197,0,0,1,107.01748191872869,-165.39727495873254L92.67985799066088,-143.23824183098216A170.6070045455344,170.6070045455344,0,0,0,91.47372756733135,-144.01148275376394Z" fill-rule="evenodd" style="fill: #DB3F29; stroke: #fff; opacity: 1;" id="p-type-functions"></path><path d="M107.01748191872869,-165.39727495873254A197,197,0,0,1,108.40265433288764,-164.49274918240158L93.87945248994394,-142.4548995303017A170.6070045455344,170.6070045455344,0,0,0,92.67985799066088,-143.23824183098216Z" fill-rule="evenodd" style="fill: #DB3F29; stroke: #fff; opacity: 1;" id="p-type-functions"></path><path d="M108.40265433288764,-164.49274918240158A197,197,0,0,1,109.78018202757335,-163.57662312810123L95.07242646795838,-141.6615110942088A170.6070045455344,170.6070045455344,0,0,0,93.87945248994394,-142.4548995303017Z" fill-rule="evenodd" style="fill: #DB3F29; stroke: #fff; opacity: 1;" id="p-type-functions"></path><path d="M109.78018202757335,-163.57662312810123A197,197,0,0,1,111.14996785744506,-162.64896140242928L96.25869579437123,-140.85813247365837A170.6070045455344,170.6070045455344,0,0,0,95.07242646795838,-141.6615110942088Z" fill-rule="evenodd" style="fill: #DB3F29; stroke: #fff; opacity: 1;" id="p-type-functions"></path><path d="M111.14996785744506,-162.64896140242928A197,197,0,0,1,112.51191522313012,-161.70982942549654L97.43817681167178,-140.04482032412832A170.6070045455344,170.6070045455344,0,0,0,96.25869579437123,-140.85813247365837Z" fill-rule="evenodd" style="fill: #DB3F29; stroke: #fff; opacity: 1;" id="p-type-functions"></path><path d="M112.51191522313012,-161.70982942549654A197,197,0,0,1,113.86592807803615,-160.7592934263133L98.6107863410711,-139.22163200162402A170.6070045455344,170.6070045455344,0,0,0,97.43817681167178,-140.04482032412832Z" fill-rule="evenodd" style="fill: #DB3F29; stroke: #fff; opacity: 1;" id="p-type-functions"></path><path d="M113.86592807803615,-160.7592934263133A197,197,0,0,1,115.21191093512456,-159.79742043811885L99.77644168836802,-138.38862555863358A170.6070045455344,170.6070045455344,0,0,0,98.6107863410711,-139.22163200162402Z" fill-rule="evenodd" style="fill: #DB3F29; stroke: #fff; opacity: 1;" id="p-type-functions"></path><path d="M115.21191093512456,-159.79742043811885A197,197,0,0,1,116.54976887364437,-158.82427829365406L100.93506064978087,-137.54585974003382A170.6070045455344,170.6070045455344,0,0,0,99.77644168836802,-138.38862555863358Z" fill-rule="evenodd" style="fill: #DB3F29; stroke: #fff; opacity: 1;" id="p-type-functions"></path><path d="M116.54976887364437,-158.82427829365406A197,197,0,0,1,117.8794075458262,-157.83993562037784L102.08656151774453,-136.6933939789475A170.6070045455344,170.6070045455344,0,0,0,100.93506064978087,-137.54585974003382Z" fill-rule="evenodd" style="fill: #DB3F29; stroke: #fff; opacity: 1;" id="p-type-functions"></path><path d="M117.8794075458262,-157.83993562037784A197,197,0,0,1,119.20073318353569,-156.84446183562724L103.23086308667263,-135.83128839255207A170.6070045455344,170.6070045455344,0,0,0,102.08656151774453,-136.6933939789475Z" fill-rule="evenodd" style="fill: #DB3F29; stroke: #fff; opacity: 1;" id="p-type-functions"></path><path d="M119.20073318353569,-156.84446183562724A197,197,0,0,1,120.51365260488637,-155.83792714172236L104.36788465868428,-134.95960377784004A170.6070045455344,170.6070045455344,0,0,0,103.23086308667263,-135.83128839255207Z" fill-rule="evenodd" style="fill: #DB3F29; stroke: #fff; opacity: 1;" id="p-type-functions"></path><path d="M120.51365260488637,-155.83792714172236A197,197,0,0,1,121.81807322081086,-154.82040252101518L105.49754604929502,-134.0784016073315A170.6070045455344,170.6070045455344,0,0,0,104.36788465868428,-134.95960377784004Z" fill-rule="evenodd" style="fill: #DB3F29; stroke: #fff; opacity: 1;" id="p-type-functions"></path><path d="M121.81807322081086,-154.82040252101518A197,197,0,0,1,123.11390304159036,-153.79195973088412L106.61976759307151,-133.18774402473906A170.6070045455344,170.6070045455344,0,0,0,105.49754604929502,-134.0784016073315Z" fill-rule="evenodd" style="fill: #DB3F29; stroke: #fff; opacity: 1;" id="p-type-functions"></path><path d="M123.11390304159036,-153.79195973088412A197,197,0,0,1,124.40105068334208,-152.7526712986734L107.73447014924973,-132.28769384058526A170.6070045455344,170.6070045455344,0,0,0,106.61976759307151,-133.18774402473906Z" fill-rule="evenodd" style="fill: #DB3F29; stroke: #fff; opacity: 1;" id="p-type-functions"></path><path d="M124.40105068334208,-152.7526712986734A197,197,0,0,1,125.67942537446352,-151.70261051657832L108.84157510731599,-131.37831452777317A170.6070045455344,170.6070045455344,0,0,0,107.73447014924973,-132.28769384058526Z" fill-rule="evenodd" style="fill: #DB3F29; stroke: #fff; opacity: 1;" id="p-type-functions"></path><path d="M125.67942537446352,-151.70261051657832A197,197,0,0,1,126.94893696203407,-150.64185143647663L109.9410043925508,-130.4596702171101A170.6070045455344,170.6070045455344,0,0,0,108.84157510731599,-131.37831452777317Z" fill-rule="evenodd" style="fill: #DB3F29; stroke: #fff; opacity: 1;" id="p-type-functions"></path><path d="M126.94893696203407,-150.64185143647663A197,197,0,0,1,128.20949591817254,-149.57046886470636L111.03268047153472,-129.53182569278513A170.6070045455344,170.6070045455344,0,0,0,109.9410043925508,-130.4596702171101Z" fill-rule="evenodd" style="fill: #DB3F29; stroke: #fff; opacity: 1;" id="p-type-functions"></path><path d="M128.20949591817254,-149.57046886470636A197,197,0,0,1,129.46101334635094,-148.48853835679017L112.11652635761617,-128.59484638780032A170.6070045455344,170.6070045455344,0,0,0,111.03268047153472,-129.53182569278513Z" fill-rule="evenodd" style="fill: #DB3F29; stroke: #fff; opacity: 1;" id="p-type-functions"></path><path d="M129.46101334635094,-148.48853835679017A197,197,0,0,1,130.70340098766346,-147.3961362121072L113.19246561634064,-127.64879837935625A170.6070045455344,170.6070045455344,0,0,0,112.11652635761617,-128.59484638780032Z" fill-rule="evenodd" style="fill: #DB3F29; stroke: #fff; opacity: 1;" id="p-type-functions"></path><path d="M130.70340098766346,-147.3961362121072A197,197,0,0,1,131.93657122705073,-146.29333946851227L114.26042237084096,-126.69374838419228A170.6070045455344,170.6070045455344,0,0,0,113.19246561634064,-127.64879837935625Z" fill-rule="evenodd" style="fill: #DB3F29; stroke: #fff; opacity: 1;" id="p-type-functions"></path><path d="M131.93657122705073,-146.29333946851227A197,197,0,0,1,133.16043709947854,-145.1802258969031L115.32032130718825,-125.72976375388153A170.6070045455344,170.6070045455344,0,0,0,114.26042237084096,-126.69374838419228Z" fill-rule="evenodd" style="fill: #DB3F29; stroke: #fff; opacity: 1;" id="p-type-functions"></path><path d="M133.16043709947854,-145.1802258969031A197,197,0,0,1,134.3749122960708,-144.05687399573574L116.37208767970323,-124.75691247008105A170.6070045455344,170.6070045455344,0,0,0,115.32032130718825,-125.72976375388153Z" fill-rule="evenodd" style="fill: #DB3F29; stroke: #fff; opacity: 1;" id="p-type-functions"></path><path d="M134.3749122960708,-144.05687399573574A197,197,0,0,1,135.57991117019594,-142.92336298548875L117.41564731622726,-123.77526313973779A170.6070045455344,170.6070045455344,0,0,0,116.37208767970323,-124.75691247008105Z" fill-rule="evenodd" style="fill: #DB3F29; stroke: #fff; opacity: 1;" id="p-type-functions"></path><path d="M135.57991117019594,-142.92336298548875A197,197,0,0,1,136.77534874350718,-141.7797728030765L118.45092662335321,-122.78488499025029A170.6070045455344,170.6070045455344,0,0,0,117.41564731622726,-123.77526313973779Z" fill-rule="evenodd" style="fill: #DB3F29; stroke: #fff; opacity: 1;" id="p-type-functions"></path><path d="M136.77534874350718,-141.7797728030765A197,197,0,0,1,137.96114071193512,-140.62618409621177L119.47785259161536,-121.78584786458659A170.6070045455344,170.6070045455344,0,0,0,118.45092662335321,-122.78488499025029Z" fill-rule="evenodd" style="fill: #DB3F29; stroke: #fff; opacity: 1;" id="p-type-functions"></path><path d="M137.96114071193512,-140.62618409621177A197,197,0,0,1,139.13720345163298,-139.4626782177185L120.49635280063804,-120.7782222163589A170.6070045455344,170.6070045455344,0,0,0,119.47785259161536,-121.78584786458659Z" fill-rule="evenodd" style="fill: #DB3F29; stroke: #fff; opacity: 1;" id="p-type-functions"></path><path d="M139.13720345163298,-139.4626782177185A197,197,0,0,1,140.303454024874,-138.2893372197946L121.50635542424293,-119.762079104855A170.6070045455344,170.6070045455344,0,0,0,120.49635280063804,-120.7782222163589Z" fill-rule="evenodd" style="fill: #DB3F29; stroke: #fff; opacity: 1;" id="p-type-functions"></path><path d="M140.303454024874,-138.2893372197946A197,197,0,0,1,141.45981018590024,-137.10624384822552L122.50778923551428,-118.73749019002722A170.6070045455344,170.6070045455344,0,0,0,121.50635542424293,-119.762079104855Z" fill-rule="evenodd" style="fill: #DB3F29; stroke: #fff; opacity: 1;" id="p-type-functions"></path><path d="M141.45981018590024,-137.10624384822552A197,197,0,0,1,142.6061903867227,-135.91348153654883L123.50058361182204,-117.70452772743856A170.6070045455344,170.6070045455344,0,0,0,122.50778923551428,-118.73749019002722Z" fill-rule="evenodd" style="fill: #DB3F29; stroke: #fff; opacity: 1;" id="p-type-functions"></path><path d="M142.6061903867227,-135.91348153654883A197,197,0,0,1,143.7425137828722,-134.71113440017047L124.48466853980214,-116.66326456316742A170.6070045455344,170.6070045455344,0,0,0,123.50058361182204,-117.70452772743856Z" fill-rule="evenodd" style="fill: #DB3F29; stroke: #fff; opacity: 1;" id="p-type-functions"></path><path d="M143.7425137828722,-134.71113440017047A197,197,0,0,1,144.86870023910075,-133.4992872304327L125.45997462029402,-115.61377412867024A170.6070045455344,170.6070045455344,0,0,0,124.48466853980214,-116.66326456316742Z" fill-rule="evenodd" style="fill: #DB3F29; stroke: #fff; opacity: 1;" id="p-type-functions"></path><path d="M144.86870023910075,-133.4992872304327A197,197,0,0,1,145.9846703350326,-132.27802548863457L126.42643307323476,-114.55613043560301A170.6070045455344,170.6070045455344,0,0,0,125.45997462029402,-115.61377412867024Z" fill-rule="evenodd" style="fill: #DB3F29; stroke: #fff; opacity: 1;" id="p-type-functions"></path><path d="M145.9846703350326,-132.27802548863457A197,197,0,0,1,146.9107563181615,-131.2487321006408L127.22844706071308,-113.66473621365306A170.6070045455344,170.6070045455344,0,0,0,126.42643307323476,-114.55613043560301Z" fill-rule="evenodd" style="fill: #DB3F29; stroke: #fff; opacity: 1;" id="p-type-functions"></path><path d="M194.7732191136552,29.536301665985036A197,197,0,0,1,194.51831618411265,31.170894579680883L168.45780331681527,26.99478656469031A170.6070045455344,170.6070045455344,0,0,0,168.67855572929815,25.579187576583678Z" fill-rule="evenodd" style="fill: #1DC690; stroke: #fff; opacity: 1;" id="p-type-logs"></path><path d="M194.51831618411265,31.170894579680883A197,197,0,0,1,194.2496955281105,32.80328927464991L168.22517100473615,28.40848183953643A170.6070045455344,170.6070045455344,0,0,0,168.45780331681527,26.99478656469031Z" fill-rule="evenodd" style="fill: #1DC690; stroke: #fff; opacity: 1;" id="p-type-logs"></path><path d="M194.2496955281105,32.80328927464991A197,197,0,0,1,193.96737608918454,34.43337063194425L167.9806751986441,29.82017370518875A170.6070045455344,170.6070045455344,0,0,0,168.22517100473615,28.40848183953643Z" fill-rule="evenodd" style="fill: #1DC690; stroke: #fff; opacity: 1;" id="p-type-logs"></path><path d="M193.96737608918454,34.43337063194425A197,197,0,0,1,193.67137777692943,36.06102369575612L167.72433314075386,31.2297626069974A170.6070045455344,170.6070045455344,0,0,0,167.9806751986441,29.82017370518875Z" fill-rule="evenodd" style="fill: #1DC690; stroke: #fff; opacity: 1;" id="p-type-logs"></path><path d="M193.67137777692943,36.06102369575612A197,197,0,0,1,193.36172146559477,37.68613368152466L167.45616290869586,32.63714913861673A170.6070045455344,170.6070045455344,0,0,0,167.72433314075386,31.2297626069974Z" fill-rule="evenodd" style="fill: #1DC690; stroke: #fff; opacity: 1;" id="p-type-logs"></path><path d="M193.36172146559477,37.68613368152466A197,197,0,0,1,193.03842899261292,39.308585984030756L167.17618341424128,34.042234049015555A170.6070045455344,170.6070045455344,0,0,0,167.45616290869586,32.63714913861673Z" fill-rule="evenodd" style="fill: #1DC690; stroke: #fff; opacity: 1;" id="p-type-logs"></path><path d="M193.03842899261292,39.308585984030756A197,197,0,0,1,192.70152315705906,40.9282661854791L166.88441440196843,35.44491824947653A170.6070045455344,170.6070045455344,0,0,0,167.17618341424128,34.042234049015555Z" fill-rule="evenodd" style="fill: #1DC690; stroke: #fff; opacity: 1;" id="p-type-logs"></path><path d="M192.70152315705906,40.9282661854791A197,197,0,0,1,192.3510277180433,42.54506006356721L166.5808764478702,36.84510282058399A170.6070045455344,170.6070045455344,0,0,0,166.88441440196843,35.44491824947653Z" fill-rule="evenodd" style="fill: #1DC690; stroke: #fff; opacity: 1;" id="p-type-logs"></path><path d="M192.3510277180433,42.54506006356721A197,197,0,0,1,191.98696739303517,44.15885359954046L166.26559095790313,38.242689019199936A170.6070045455344,170.6070045455344,0,0,0,166.5808764478702,36.84510282058399Z" fill-rule="evenodd" style="fill: #1DC690; stroke: #fff; opacity: 1;" id="p-type-logs"></path><path d="M191.98696739303517,44.15885359954046A197,197,0,0,1,191.6093678561206,45.769532986232896L165.93858016647786,39.63757828542752A170.6070045455344,170.6070045455344,0,0,0,166.26559095790313,38.242689019199936Z" fill-rule="evenodd" style="fill: #1DC690; stroke: #fff; opacity: 1;" id="p-type-logs"></path><path d="M191.6093678561206,45.769532986232896A197,197,0,0,1,191.21825573619114,47.376984636093106L165.59986713489099,41.02967224956168A170.6070045455344,170.6070045455344,0,0,0,165.93858016647786,39.63757828542752Z" fill-rule="evenodd" style="fill: #1DC690; stroke: #fff; opacity: 1;" id="p-type-logs"></path><path d="M191.21825573619114,47.376984636093106A197,197,0,0,1,190.8136586150663,48.981095189194576L165.2494757496988,42.41887273902626A170.6070045455344,170.6070045455344,0,0,0,165.59986713489099,41.02967224956168Z" fill-rule="evenodd" style="fill: #1DC690; stroke: #fff; opacity: 1;" id="p-type-logs"></path><path d="M190.8136586150663,48.981095189194576A197,197,0,0,1,190.39560502554818,50.58175152122998L164.88743072103284,43.80508178529734A170.6070045455344,170.6070045455344,0,0,0,165.2494757496988,42.41887273902626Z" fill-rule="evenodd" style="fill: #1DC690; stroke: #fff; opacity: 1;" id="p-type-logs"></path><path d="M190.39560502554818,50.58175152122998A197,197,0,0,1,189.96412444940955,52.178840751488934L164.51375758085726,45.188201630812124A170.6070045455344,170.6070045455344,0,0,0,164.88743072103284,43.80508178529734Z" fill-rule="evenodd" style="fill: #1DC690; stroke: #fff; opacity: 1;" id="p-type-logs"></path><path d="M189.96412444940955,52.178840751488934A197,197,0,0,1,189.51924731531454,53.77225025081842L164.12848268116815,46.568134735862905A170.6070045455344,170.6070045455344,0,0,0,164.51375758085726,45.188201630812124Z" fill-rule="evenodd" style="fill: #1DC690; stroke: #fff; opacity: 1;" id="p-type-logs"></path><path d="M189.51924731531454,53.77225025081842A197,197,0,0,1,189.0610049966729,55.36186764956566L163.7316331921354,47.94478378547575A170.6070045455344,170.6070045455344,0,0,0,164.12848268116815,46.568134735862905Z" fill-rule="evenodd" style="fill: #1DC690; stroke: #fff; opacity: 1;" id="p-type-logs"></path><path d="M189.0610049966729,55.36186764956566A197,197,0,0,1,188.58942980942743,56.947580845502564L163.32323710018642,49.31805169627332A170.6070045455344,170.6070045455344,0,0,0,163.7316331921354,47.94478378547575Z" fill-rule="evenodd" style="fill: #1DC690; stroke: #fff; opacity: 1;" id="p-type-logs"></path><path d="M188.58942980942743,56.947580845502564A197,197,0,0,1,188.10455500977497,58.529278011731314L162.90332320603252,50.687841623321276A170.6070045455344,170.6070045455344,0,0,0,163.32323710018642,49.31805169627332Z" fill-rule="evenodd" style="fill: #1DC690; stroke: #fff; opacity: 1;" id="p-type-logs"></path><path d="M188.10455500977497,58.529278011731314A197,197,0,0,1,187.60641479182135,60.10684760457061L162.47192112263795,52.05405696695798A170.6070045455344,170.6070045455344,0,0,0,162.90332320603252,50.687841623321276Z" fill-rule="evenodd" style="fill: #1DC690; stroke: #fff; opacity: 1;" id="p-type-logs"></path><path d="M187.60641479182135,60.10684760457061A197,197,0,0,1,187.09504428516962,61.680178371421874L162.02906127313145,53.416601379606824A170.6070045455344,170.6070045455344,0,0,0,162.47192112263795,52.05405696695798Z" fill-rule="evenodd" style="fill: #1DC690; stroke: #fff; opacity: 1;" id="p-type-logs"></path><path d="M187.09504428516962,61.680178371421874A197,197,0,0,1,186.57047955244292,63.24915935861497L161.57477488866073,54.77537877257083A170.6070045455344,170.6070045455344,0,0,0,162.02906127313145,53.416601379606824Z" fill-rule="evenodd" style="fill: #1DC690; stroke: #fff; opacity: 1;" id="p-type-logs"></path><path d="M186.57047955244292,63.24915935861497A197,197,0,0,1,186.03275758674124,64.8136799192328L161.1090940061902,56.13029332280895A170.6070045455344,170.6070045455344,0,0,0,161.57477488866073,54.77537877257083Z" fill-rule="evenodd" style="fill: #1DC690; stroke: #fff; opacity: 1;" id="p-type-logs"></path><path d="M186.03275758674124,64.8136799192328A197,197,0,0,1,185.48191630903256,66.37362972091435L160.63205146624136,57.481249479693666A170.6070045455344,170.6070045455344,0,0,0,161.1090940061902,56.13029332280895Z" fill-rule="evenodd" style="fill: #1DC690; stroke: #fff; opacity: 1;" id="p-type-logs"></path><path d="M185.48191630903256,66.37362972091435A197,197,0,0,1,184.91799456547855,67.9288987536354L160.1436809105772,58.828151971749335A170.6070045455344,170.6070045455344,0,0,0,160.63205146624136,57.481249479693666Z" fill-rule="evenodd" style="fill: #1DC690; stroke: #fff; opacity: 1;" id="p-type-logs"></path><path d="M184.91799456547855,67.9288987536354A197,197,0,0,1,184.34103212469523,69.47937733746666L159.64401677982937,60.170905813370936A170.6070045455344,170.6070045455344,0,0,0,160.1436809105772,58.828151971749335Z" fill-rule="evenodd" style="fill: #1DC690; stroke: #fff; opacity: 1;" id="p-type-logs"></path><path d="M184.34103212469523,69.47937733746666A197,197,0,0,1,183.75106967494838,71.02495613030858L159.1330943110697,61.509416311522536A170.6070045455344,170.6070045455344,0,0,0,159.64401677982937,60.170905813370936Z" fill-rule="evenodd" style="fill: #1DC690; stroke: #fff; opacity: 1;" id="p-type-logs"></path><path d="M183.75106967494838,71.02495613030858A197,197,0,0,1,183.14814882128408,72.56552613560231L158.610949535325,62.84358907241522A170.6070045455344,170.6070045455344,0,0,0,159.1330943110697,61.509416311522536Z" fill-rule="evenodd" style="fill: #1DC690; stroke: #fff; opacity: 1;" id="p-type-logs"></path><path d="M183.14814882128408,72.56552613560231A197,197,0,0,1,182.53231208259461,74.10097871001625L158.07761927503617,64.17333000816392A170.6070045455344,170.6070045455344,0,0,0,158.610949535325,62.84358907241522Z" fill-rule="evenodd" style="fill: #1DC690; stroke: #fff; opacity: 1;" id="p-type-logs"></path><path d="M182.53231208259461,74.10097871001625A197,197,0,0,1,181.9036028886202,75.63120557110778L157.5331411414615,65.4985453434225A170.6070045455344,170.6070045455344,0,0,0,158.07761927503617,64.17333000816392Z" fill-rule="evenodd" style="fill: #1DC690; stroke: #fff; opacity: 1;" id="p-type-logs"></path><path d="M181.9036028886202,75.63120557110778A197,197,0,0,1,181.262065576886,77.15609880495954L156.97755353202407,66.81914162199713A170.6070045455344,170.6070045455344,0,0,0,157.5331411414615,65.4985453434225Z" fill-rule="evenodd" style="fill: #1DC690; stroke: #fff; opacity: 1;" id="p-type-logs"></path><path d="M181.262065576886,77.15609880495954A197,197,0,0,1,180.60774538957554,78.67555087378963L156.41089562760422,68.13502571343682A170.6070045455344,170.6070045455344,0,0,0,156.97755353202407,66.81914162199713Z" fill-rule="evenodd" style="fill: #1DC690; stroke: #fff; opacity: 1;" id="p-type-logs"></path><path d="M180.60774538957554,78.67555087378963A197,197,0,0,1,179.94068847034004,80.18945462353534L155.8332073897761,69.44610481960112A170.6070045455344,170.6070045455344,0,0,0,156.41089562760422,68.13502571343682Z" fill-rule="evenodd" style="fill: #1DC690; stroke: #fff; opacity: 1;" id="p-type-logs"></path><path d="M179.94068847034004,80.18945462353534A197,197,0,0,1,179.26094186104447,81.69770329140984L155.2445295579898,70.75228648120446A170.6070045455344,170.6070045455344,0,0,0,155.8332073897761,69.44610481960112Z" fill-rule="evenodd" style="fill: #1DC690; stroke: #fff; opacity: 1;" id="p-type-logs"></path><path d="M179.26094186104447,81.69770329140984A197,197,0,0,1,178.56855349844986,83.20019051343122L154.64490364669817,72.0534785843365A170.6070045455344,170.6070045455344,0,0,0,155.2445295579898,70.75228648120446Z" fill-rule="evenodd" style="fill: #1DC690; stroke: #fff; opacity: 1;" id="p-type-logs"></path><path d="M178.56855349844986,83.20019051343122A197,197,0,0,1,177.86357221083287,84.69681033192359L154.0343719424292,73.34958936695814A170.6070045455344,170.6070045455344,0,0,0,154.64490364669817,72.0534785843365Z" fill-rule="evenodd" style="fill: #1DC690; stroke: #fff; opacity: 1;" id="p-type-logs"></path><path d="M177.86357221083287,84.69681033192359A197,197,0,0,1,177.1460477145424,86.18745720298905L153.412977500804,74.64052742537261A170.6070045455344,170.6070045455344,0,0,0,154.0343719424292,73.34958936695814Z" fill-rule="evenodd" style="fill: #1DC690; stroke: #fff; opacity: 1;" id="p-type-logs"></path><path d="M177.1460477145424,86.18745720298905A197,197,0,0,1,176.41603061049332,87.67202600395113L152.78076414350036,75.92620172067159A170.6070045455344,170.6070045455344,0,0,0,153.412977500804,74.64052742537261Z" fill-rule="evenodd" style="fill: #1DC690; stroke: #fff; opacity: 1;" id="p-type-logs"></path><path d="M176.41603061049332,87.67202600395113A197,197,0,0,1,175.67357238059822,89.15041204076805L152.13777645516237,77.20652158515523A170.6070045455344,170.6070045455344,0,0,0,152.78076414350036,75.92620172067159Z" fill-rule="evenodd" style="fill: #1DC690; stroke: #fff; opacity: 1;" id="p-type-logs"></path><path d="M175.67357238059822,89.15041204076805A197,197,0,0,1,174.91872538413668,90.6225110554159L151.4840597802563,78.48139672872631A170.6070045455344,170.6070045455344,0,0,0,152.13777645516237,77.20652158515523Z" fill-rule="evenodd" style="fill: #1DC690; stroke: #fff; opacity: 1;" id="p-type-logs"></path><path d="M174.91872538413668,90.6225110554159A197,197,0,0,1,174.1515428540629,92.08821923324115L150.81966021987282,79.75073724525757A170.6070045455344,170.6070045455344,0,0,0,151.4840597802563,78.48139672872631Z" fill-rule="evenodd" style="fill: #1DC690; stroke: #fff; opacity: 1;" id="p-type-logs"></path><path d="M174.1515428540629,92.08821923324115A197,197,0,0,1,173.37207889325168,93.54743321028172L150.14462462847584,81.01445361893204A170.6070045455344,170.6070045455344,0,0,0,150.81966021987282,79.75073724525757Z" fill-rule="evenodd" style="fill: #1DC690; stroke: #fff; opacity: 1;" id="p-type-logs"></path><path d="M173.37207889325168,93.54743321028172A197,197,0,0,1,172.58038847068275,95.00005008055646L149.4590006105983,82.2724567305558A170.6070045455344,170.6070045455344,0,0,0,150.14462462847584,81.01445361893204Z" fill-rule="evenodd" style="fill: #1DC690; stroke: #fff; opacity: 1;" id="p-type-logs"></path><path d="M172.58038847068275,95.00005008055646A197,197,0,0,1,171.77652741756458,96.44596740332217L148.76283651748506,83.52465786384289A170.6070045455344,170.6070045455344,0,0,0,149.4590006105983,82.2724567305558Z" fill-rule="evenodd" style="fill: #1DC690; stroke: #fff; opacity: 1;" id="p-type-logs"></path><path d="M171.77652741756458,96.44596740332217A197,197,0,0,1,170.96055242339696,97.88508321029788L148.05618144368304,84.77096871167159A170.6070045455344,170.6070045455344,0,0,0,148.76283651748506,83.52465786384289Z" fill-rule="evenodd" style="fill: #1DC690; stroke: #fff; opacity: 1;" id="p-type-logs"></path><path d="M170.96055242339696,97.88508321029788A197,197,0,0,1,170.1325210319731,99.31729601285582L147.33908522357902,86.01130138231207A170.6070045455344,170.6070045455344,0,0,0,148.05618144368304,84.77096871167159Z" fill-rule="evenodd" style="fill: #1DC690; stroke: #fff; opacity: 1;" id="p-type-logs"></path><path d="M170.1325210319731,99.31729601285582A197,197,0,0,1,169.2924916373217,100.74250480917857L146.6115984278852,87.24556840562462A170.6070045455344,170.6070045455344,0,0,0,147.33908522357902,86.01130138231207Z" fill-rule="evenodd" style="fill: #1DC690; stroke: #fff; opacity: 1;" id="p-type-logs"></path><path d="M169.2924916373217,100.74250480917857A197,197,0,0,1,168.4405234795887,102.16060909138183L145.87377236007302,88.47368273922814A170.6070045455344,170.6070045455344,0,0,0,146.6115984278852,87.24556840562462Z" fill-rule="evenodd" style="fill: #1DC690; stroke: #fff; opacity: 1;" id="p-type-logs"></path><path d="M168.4405234795887,102.16060909138183A197,197,0,0,1,167.57667664085983,103.57150885260242L145.12565905275494,89.69555777463857A170.6070045455344,170.6070045455344,0,0,0,145.87377236007302,88.47368273922814Z" fill-rule="evenodd" style="fill: #1DC690; stroke: #fff; opacity: 1;" id="p-type-logs"></path><path d="M167.57667664085983,103.57150885260242A197,197,0,0,1,166.7010120409234,104.97510459405089L144.36731126401523,90.9111073433766A170.6070045455344,170.6070045455344,0,0,0,145.12565905275494,89.69555777463857Z" fill-rule="evenodd" style="fill: #1DC690; stroke: #fff; opacity: 1;" id="p-type-logs"></path><path d="M166.7010120409234,104.97510459405089A197,197,0,0,1,165.813591432974,106.37129733202833L143.59878247368923,92.12024572304442A170.6070045455344,170.6070045455344,0,0,0,144.36731126401523,90.9111073433766Z" fill-rule="evenodd" style="fill: #1DC690; stroke: #fff; opacity: 1;" id="p-type-logs"></path><path d="M165.813591432974,106.37129733202833A197,197,0,0,1,164.91447739925792,107.75998860490687L142.820126879592,93.32288764337098A170.6070045455344,170.6070045455344,0,0,0,143.59878247368923,92.12024572304442Z" fill-rule="evenodd" style="fill: #1DC690; stroke: #fff; opacity: 1;" id="p-type-logs"></path><path d="M164.91447739925792,107.75998860490687A197,197,0,0,1,164.00373334665943,109.14108048007328L142.03139939369615,94.51894829222537A170.6070045455344,170.6070045455344,0,0,0,142.820126879592,93.32288764337098Z" fill-rule="evenodd" style="fill: #1DC690; stroke: #fff; opacity: 1;" id="p-type-logs"></path><path d="M164.00373334665943,109.14108048007328A197,197,0,0,1,163.08142350222943,110.51447556083542L141.23265563825927,95.70834332159798A170.6070045455344,170.6070045455344,0,0,0,142.03139939369615,94.51894829222537Z" fill-rule="evenodd" style="fill: #1DC690; stroke: #fff; opacity: 1;" id="p-type-logs"></path><path d="M163.08142350222943,110.51447556083542A197,197,0,0,1,162.14761290865596,111.88007699329079L140.42395194190163,96.89098885354873A170.6070045455344,170.6070045455344,0,0,0,141.23265563825927,95.70834332159798Z" fill-rule="evenodd" style="fill: #1DC690; stroke: #fff; opacity: 1;" id="p-type-logs"></path><path d="M162.14761290865596,111.88007699329079A197,197,0,0,1,161.20236741967727,113.23778847315666L139.60534533563344,98.06680148612234A170.6070045455344,170.6070045455344,0,0,0,140.42395194190163,96.89098885354873Z" fill-rule="evenodd" style="fill: #1DC690; stroke: #fff; opacity: 1;" id="p-type-logs"></path><path d="M161.20236741967727,113.23778847315666A197,197,0,0,1,160.24575369543783,114.58751425256187L138.77689354883324,99.23569829923001A170.6070045455344,170.6070045455344,0,0,0,139.60534533563344,98.06680148612234Z" fill-rule="evenodd" style="fill: #1DC690; stroke: #fff; opacity: 1;" id="p-type-logs"></path><path d="M160.24575369543783,114.58751425256187A197,197,0,0,1,159.2778391977873,115.92915914679882L137.93865500517666,100.3975968604969A170.6070045455344,170.6070045455344,0,0,0,138.77689354883324,99.23569829923001Z" fill-rule="evenodd" style="fill: #1DC690; stroke: #fff; opacity: 1;" id="p-type-logs"></path><path d="M159.2778391977873,115.92915914679882A197,197,0,0,1,158.29869218552295,117.26262854103626L137.09068881851607,101.55241523107556A170.6070045455344,170.6070045455344,0,0,0,137.93865500517666,100.3975968604969Z" fill-rule="evenodd" style="fill: #1DC690; stroke: #fff; opacity: 1;" id="p-type-logs"></path><path d="M158.29869218552295,117.26262854103626A197,197,0,0,1,157.30838170957605,118.58782839699157L136.2330547887122,102.70007197142434A170.6070045455344,170.6070045455344,0,0,0,137.09068881851607,101.55241523107556Z" fill-rule="evenodd" style="fill: #1DC690; stroke: #fff; opacity: 1;" id="p-type-logs"></path><path d="M157.30838170957605,118.58782839699157A197,197,0,0,1,156.30697760814218,119.9046652595625L135.36581339741653,103.84048614705057A170.6070045455344,170.6070045455344,0,0,0,136.2330547887122,102.70007197142434Z" fill-rule="evenodd" style="fill: #1DC690; stroke: #fff; opacity: 1;" id="p-type-logs"></path><path d="M156.30697760814218,119.9046652595625A197,197,0,0,1,155.2945505017563,121.21304626341777L134.4890258038064,104.9735773342182A170.6070045455344,170.6070045455344,0,0,0,135.36581339741653,103.84048614705057Z" fill-rule="evenodd" style="fill: #1DC690; stroke: #fff; opacity: 1;" id="p-type-logs"></path><path d="M155.2945505017563,121.21304626341777A197,197,0,0,1,154.27117178831236,122.51287913954607L133.6027538402717,106.09926562561951A170.6070045455344,170.6070045455344,0,0,0,134.4890258038064,104.9735773342182Z" fill-rule="evenodd" style="fill: #1DC690; stroke: #fff; opacity: 1;" id="p-type-logs"></path><path d="M154.27117178831236,122.51287913954607A197,197,0,0,1,153.23691363802814,123.804072221763L132.70706000805447,107.2174716360101A170.6070045455344,170.6070045455344,0,0,0,133.6027538402717,106.09926562561951Z" fill-rule="evenodd" style="fill: #1DC690; stroke: #fff; opacity: 1;" id="p-type-logs"></path><path d="M153.23691363802814,123.804072221763A197,197,0,0,1,152.19184898835593,125.08653445317553L131.80200747284124,108.32811650780744A170.6070045455344,170.6070045455344,0,0,0,132.70706000805447,107.2174716360101Z" fill-rule="evenodd" style="fill: #1DC690; stroke: #fff; opacity: 1;" id="p-type-logs"></path><path d="M152.19184898835593,125.08653445317553A197,197,0,0,1,151.13605153883861,126.3601753926035L130.88766006030843,109.43112191665193A170.6070045455344,170.6070045455344,0,0,0,131.80200747284124,108.32811650780744Z" fill-rule="evenodd" style="fill: #1DC690; stroke: #fff; opacity: 1;" id="p-type-logs"></path><path d="M151.13605153883861,126.3601753926035A197,197,0,0,1,150.0695957459125,127.62490522095756L129.96408225162136,110.52641007693049A170.6070045455344,170.6070045455344,0,0,0,130.88766006030843,109.43112191665193Z" fill-rule="evenodd" style="fill: #1DC690; stroke: #fff; opacity: 1;" id="p-type-logs"></path><path d="M150.0695957459125,127.62490522095756A197,197,0,0,1,148.99255681765638,128.88063474757348L129.03133917888678,111.61390374726207A170.6070045455344,170.6070045455344,0,0,0,129.96408225162136,110.52641007693049Z" fill-rule="evenodd" style="fill: #1DC690; stroke: #fff; opacity: 1;" id="p-type-logs"></path><path d="M148.99255681765638,128.88063474757348A197,197,0,0,1,147.9050107084877,130.1272754165019L128.0894966205598,112.6935262359449A170.6070045455344,170.6070045455344,0,0,0,129.03133917888678,111.61390374726207Z" fill-rule="evenodd" style="fill: #1DC690; stroke: #fff; opacity: 1;" id="p-type-logs"></path><path d="M147.9050107084877,130.1272754165019A197,197,0,0,1,146.8070341138064,131.3647393127535L127.13862099680505,113.76520140636487A170.6070045455344,170.6070045455344,0,0,0,128.0894966205598,112.6935262359449Z" fill-rule="evenodd" style="fill: #1DC690; stroke: #fff; opacity: 1;" id="p-type-logs"></path><path d="M146.8070341138064,131.3647393127535A197,197,0,0,1,145.69870446458594,132.5929391684989L126.17877936481263,114.82885368236477A170.6070045455344,170.6070045455344,0,0,0,127.13862099680505,113.76520140636487Z" fill-rule="evenodd" style="fill: #1DC690; stroke: #fff; opacity: 1;" id="p-type-logs"></path><path d="M145.69870446458594,132.5929391684989A197,197,0,0,1,144.58009992191288,133.81178836922285L125.21003941406909,115.88440805357408A170.6070045455344,170.6070045455344,0,0,0,126.17877936481263,114.82885368236477Z" fill-rule="evenodd" style="fill: #1DC690; stroke: #fff; opacity: 1;" id="p-type-logs"></path><path d="M144.58009992191288,133.81178836922285A197,197,0,0,1,143.45129937147493,135.0212009598325L124.23246946158397,116.93179008069878A170.6070045455344,170.6070045455344,0,0,0,125.21003941406909,115.88440805357408Z" fill-rule="evenodd" style="fill: #1DC690; stroke: #fff; opacity: 1;" id="p-type-logs"></path><path d="M143.45129937147493,135.0212009598325A197,197,0,0,1,142.31238241799764,136.22109165071905L123.24613844707184,117.97092590077098A170.6070045455344,170.6070045455344,0,0,0,124.23246946158397,116.93179008069878Z" fill-rule="evenodd" style="fill: #1DC690; stroke: #fff; opacity: 1;" id="p-type-logs"></path><path d="M142.31238241799764,136.22109165071905A197,197,0,0,1,141.16342937963063,137.41137582377243L122.25111592809071,119.00174223235777A170.6070045455344,170.6070045455344,0,0,0,123.24613844707184,117.97092590077098Z" fill-rule="evenodd" style="fill: #1DC690; stroke: #fff; opacity: 1;" id="p-type-logs"></path><path d="M141.16342937963063,137.41137582377243A197,197,0,0,1,140.0045212822835,138.5919695383489L121.2474720751366,120.02416638072923A170.6070045455344,170.6070045455344,0,0,0,122.25111592809071,119.00174223235777Z" fill-rule="evenodd" style="fill: #1DC690; stroke: #fff; opacity: 1;" id="p-type-logs"></path><path d="M140.0045212822835,138.5919695383489A197,197,0,0,1,138.83573985391163,139.76278953719037L120.2352776666951,121.03812624298482A170.6070045455344,170.6070045455344,0,0,0,121.2474720751366,120.02416638072923Z" fill-rule="evenodd" style="fill: #1DC690; stroke: #fff; opacity: 1;" id="p-type-logs"></path><path d="M138.83573985391163,139.76278953719037A197,197,0,0,1,137.65716751875271,140.92375325229617L119.21460408424991,122.04355031313838A170.6070045455344,170.6070045455344,0,0,0,120.2352776666951,121.03812624298482Z" fill-rule="evenodd" style="fill: #1DC690; stroke: #fff; opacity: 1;" id="p-type-logs"></path><path d="M24.96106275253001,195.4122446170256A197,197,0,0,1,23.31918191758687,195.6149681253827L20.19500393610095,169.40753175706465A170.6070045455344,170.6070045455344,0,0,0,21.616914449148513,169.2319680488831Z" fill-rule="evenodd" style="fill: #D7A449; stroke: #fff; opacity: 1;" id="p-type-tokenTransfers"></path><path d="M23.31918191758687,195.6149681253827A197,197,0,0,1,21.67565657859351,195.80389656972324L18.771669240769267,169.57114858936103A170.6070045455344,170.6070045455344,0,0,0,20.19500393610095,169.40753175706465Z" fill-rule="evenodd" style="fill: #D7A449; stroke: #fff; opacity: 1;" id="p-type-tokenTransfers"></path><path d="M21.67565657859351,195.80389656972324A197,197,0,0,1,20.03060263944768,195.979016626527L17.347010738873315,169.72280700726526A170.6070045455344,170.6070045455344,0,0,0,18.771669240769267,169.57114858936103Z" fill-rule="evenodd" style="fill: #D7A449; stroke: #fff; opacity: 1;" id="p-type-tokenTransfers"></path><path d="M20.03060263944768,195.979016626527A197,197,0,0,1,18.384136111846324,196.14031594606223L15.921128899489792,169.8624963155959A170.6070045455344,170.6070045455344,0,0,0,17.347010738873315,169.72280700726526Z" fill-rule="evenodd" style="fill: #D7A449; stroke: #fff; opacity: 1;" id="p-type-tokenTransfers"></path><path d="M18.384136111846324,196.14031594606223A197,197,0,0,1,16.73637310710428,196.28778315325636L14.494124277967003,169.99020666325117A170.6070045455344,170.6070045455344,0,0,0,15.921128899489792,169.8624963155959Z" fill-rule="evenodd" style="fill: #D7A449; stroke: #fff; opacity: 1;" id="p-type-tokenTransfers"></path><path d="M16.73637310710428,196.28778315325636A197,197,0,0,1,15.087429827965904,196.42140784849855L13.066097508833556,170.10592904390384A170.6070045455344,170.6070045455344,0,0,0,14.494124277967003,169.99020666325117Z" fill-rule="evenodd" style="fill: #D7A449; stroke: #fff; opacity: 1;" id="p-type-tokenTransfers"></path><path d="M15.087429827965904,196.42140784849855A197,197,0,0,1,13.437422560410303,196.54118060837268L11.637149298701457,170.20965529663624A170.6070045455344,170.6070045455344,0,0,0,13.066097508833556,170.10592904390384Z" fill-rule="evenodd" style="fill: #D7A449; stroke: #fff; opacity: 1;" id="p-type-tokenTransfers"></path><path d="M13.437422560410303,196.54118060837268A197,197,0,0,1,11.78646766545065,196.6470929863223L10.207380419164128,170.3013781065158A170.6070045455344,170.6070045455344,0,0,0,11.637149298701457,170.20965529663624Z" fill-rule="evenodd" style="fill: #D7A449; stroke: #fff; opacity: 1;" id="p-type-tokenTransfers"></path><path d="M11.78646766545065,196.6470929863223A197,197,0,0,1,10.134681570928244,196.7391375132459L8.776891699689841,170.381091005111A170.6070045455344,170.6070045455344,0,0,0,10.207380419164128,170.3013781065158Z" fill-rule="evenodd" style="fill: #D7A449; stroke: #fff; opacity: 1;" id="p-type-tokenTransfers"></path><path d="M10.134681570928244,196.7391375132459A197,197,0,0,1,8.482180763301836,196.81730769802405L7.345784020511069,170.44878837094737A170.6070045455344,170.6070045455344,0,0,0,8.776891699689841,170.381091005111Z" fill-rule="evenodd" style="fill: #D7A449; stroke: #fff; opacity: 1;" id="p-type-tokenTransfers"></path><path d="M8.482180763301836,196.81730769802405A197,197,0,0,1,6.829081779432826,196.88159802797676L5.914158305510266,170.50446542990412A170.6070045455344,170.6070045455344,0,0,0,7.345784020511069,170.44878837094737Z" fill-rule="evenodd" style="fill: #D7A449; stroke: #fff; opacity: 1;" id="p-type-tokenTransfers"></path><path d="M6.829081779432826,196.88159802797676A197,197,0,0,1,5.1755011983669155,196.93200396925255L4.482115515102554,170.5481182555506A170.6070045455344,170.6070045455344,0,0,0,5.914158305510266,170.50446542990412Z" fill-rule="evenodd" style="fill: #D7A449; stroke: #fff; opacity: 1;" id="p-type-tokenTransfers"></path><path d="M5.1755011983669155,196.93200396925255A197,197,0,0,1,3.521555633112762,196.96852196714806L3.049756639115844,170.5797437694235A170.6070045455344,170.6070045455344,0,0,0,4.482115515102554,170.5481182555506Z" fill-rule="evenodd" style="fill: #D7A449; stroke: #fff; opacity: 1;" id="p-type-tokenTransfers"></path><path d="M3.521555633112762,196.96852196714806A197,197,0,0,1,1.8673617224182668,196.99114944635875L1.6171826896688843,170.5993397412435A170.6070045455344,170.6070045455344,0,0,0,3.049756639115844,170.5797437694235Z" fill-rule="evenodd" style="fill: #D7A449; stroke: #fff; opacity: 1;" id="p-type-tokenTransfers"></path><path d="M1.8673617224182668,196.99114944635875A197,197,0,0,1,0.2130361225450259,196.99988481116046L0.1844946940477272,170.60690478907316A170.6070045455344,170.6070045455344,0,0,0,1.6171826896688843,170.5993397412435Z" fill-rule="evenodd" style="fill: #D7A449; stroke: #fff; opacity: 1;" id="p-type-tokenTransfers"></path><path d="M0.2130361225450259,196.99988481116046A197,197,0,0,1,-1.4413045009584438,196.99472744552205L-1.248206312418865,170.60243837941366A170.6070045455344,170.6070045455344,0,0,0,0.1844946940477272,170.60690478907316Z" fill-rule="evenodd" style="fill: #D7A449; stroke: #fff; opacity: 1;" id="p-type-tokenTransfers"></path><path d="M-1.4413045009584438,196.99472744552205A197,197,0,0,1,-3.0955434814841363,196.97567771314874L-2.680819293484586,170.5859408272431A170.6070045455344,170.6070045455344,0,0,0,-1.248206312418865,170.60243837941366Z" fill-rule="evenodd" style="fill: #D7A449; stroke: #fff; opacity: 1;" id="p-type-tokenTransfers"></path><path d="M-3.0955434814841363,196.97567771314874A197,197,0,0,1,-4.749564159592063,196.94273695745653L-4.113243219110814,170.5574132959938A170.6070045455344,170.6070045455344,0,0,0,-2.680819293484586,170.5859408272431Z" fill-rule="evenodd" style="fill: #D7A449; stroke: #fff; opacity: 1;" id="p-type-tokenTransfers"></path><path d="M-4.749564159592063,196.94273695745653A197,197,0,0,1,-6.40324989123725,196.89590750147747L-5.5453770725914024,170.5168577974705A170.6070045455344,170.6070045455344,0,0,0,-4.113243219110814,170.5574132959938Z" fill-rule="evenodd" style="fill: #D7A449; stroke: #fff; opacity: 1;" id="p-type-tokenTransfers"></path><path d="M-6.40324989123725,196.89590750147747A197,197,0,0,1,-8.05648405599566,196.83519264769572L-6.977119857676534,170.46427719170845A170.6070045455344,170.6070045455344,0,0,0,-5.5453770725914024,170.5168577974705Z" fill-rule="evenodd" style="fill: #D7A449; stroke: #fff; opacity: 1;" id="p-type-tokenTransfers"></path><path d="M-8.05648405599566,196.83519264769572A197,197,0,0,1,-9.709150065288435,196.76059667781482L-8.408370605695126,170.39967518677165A170.6070045455344,170.6070045455344,0,0,0,-6.977119857676534,170.46427719170845Z" fill-rule="evenodd" style="fill: #D7A449; stroke: #fff; opacity: 1;" id="p-type-tokenTransfers"></path><path d="M-9.709150065288435,196.76059667781482A197,197,0,0,1,-11.3611313706039,196.67212485245557L-9.839028382675295,170.32305633849137A170.6070045455344,170.6070045455344,0,0,0,-8.408370605695126,170.39967518677165Z" fill-rule="evenodd" style="fill: #D7A449; stroke: #fff; opacity: 1;" id="p-type-tokenTransfers"></path><path d="M-11.3611313706039,196.67212485245557A197,197,0,0,1,-13.01231147171674,196.56978341078525L-11.268992296462374,170.23442605014495A170.6070045455344,170.6070045455344,0,0,0,-9.839028382675295,170.32305633849137Z" fill-rule="evenodd" style="fill: #D7A449; stroke: #fff; opacity: 1;" id="p-type-tokenTransfers"></path><path d="M-13.01231147171674,196.56978341078525A197,197,0,0,1,-14.662573924903786,196.4535795700774L-12.698161503833981,170.13379057207462A170.6070045455344,170.6070045455344,0,0,0,-11.268992296462374,170.23442605014495Z" fill-rule="evenodd" style="fill: #D7A449; stroke: #fff; opacity: 1;" id="p-type-tokenTransfers"></path><path d="M-14.662573924903786,196.4535795700774A197,197,0,0,1,-16.311802351155773,196.32352152520295L-14.126435217611634,170.02115700124682A170.6070045455344,170.6070045455344,0,0,0,-12.698161503833981,170.13379057207462Z" fill-rule="evenodd" style="fill: #D7A449; stroke: #fff; opacity: 1;" id="p-type-tokenTransfers"></path><path d="M-16.311802351155773,196.32352152520295A197,197,0,0,1,-17.959880444384602,196.1796184480524L-15.553712713768418,169.89653328075167A170.6070045455344,170.6070045455344,0,0,0,-14.126435217611634,170.02115700124682Z" fill-rule="evenodd" style="fill: #D7A449; stroke: #fff; opacity: 1;" id="p-type-tokenTransfers"></path><path d="M-17.959880444384602,196.1796184480524A197,197,0,0,1,-19.606691979625392,196.02188048688876L-16.979893338532193,169.7599281992428A170.6070045455344,170.6070045455344,0,0,0,-15.553712713768418,169.89653328075167Z" fill-rule="evenodd" style="fill: #D7A449; stroke: #fff; opacity: 1;" id="p-type-tokenTransfers"></path><path d="M-19.606691979625392,196.02188048688876A197,197,0,0,1,-21.252120821232843,195.85031876563215L-18.40487651548385,169.6113513903176A170.6070045455344,170.6070045455344,0,0,0,-16.979893338532193,169.7599281992428Z" fill-rule="evenodd" style="fill: #D7A449; stroke: #fff; opacity: 1;" id="p-type-tokenTransfers"></path><path d="M-21.252120821232843,195.85031876563215A197,197,0,0,1,-22.896050931071326,195.66494538307515L-19.828561752650117,169.4508133318378A170.6070045455344,170.6070045455344,0,0,0,-18.40487651548385,169.6113513903176Z" fill-rule="evenodd" style="fill: #D7A449; stroke: #fff; opacity: 1;" id="p-type-tokenTransfers"></path><path d="M-22.896050931071326,195.66494538307515A197,197,0,0,1,-24.53836637669803,195.4657734120297L-21.250848649590402,169.2783253451906A170.6070045455344,170.6070045455344,0,0,0,-19.828561752650117,169.4508133318378Z" fill-rule="evenodd" style="fill: #D7A449; stroke: #fff; opacity: 1;" id="p-type-tokenTransfers"></path><path d="M-24.53836637669803,195.4657734120297A197,197,0,0,1,-26.178951339538717,195.25281689840497L-22.67163690447719,169.09389959449024A170.6070045455344,170.6070045455344,0,0,0,-21.250848649590402,169.2783253451906Z" fill-rule="evenodd" style="fill: #D7A449; stroke: #fff; opacity: 1;" id="p-type-tokenTransfers"></path><path d="M-26.178951339538717,195.25281689840497A197,197,0,0,1,-27.817690123055424,195.02609086021712L-24.090826321169462,168.89754908572016A170.6070045455344,170.6070045455344,0,0,0,-22.67163690447719,169.09389959449024Z" fill-rule="evenodd" style="fill: #D7A449; stroke: #fff; opacity: 1;" id="p-type-tokenTransfers"></path><path d="M-27.817690123055424,195.02609086021712A197,197,0,0,1,-29.45446716090554,194.78561128652993L-25.508316816278708,168.68928766581578A170.6070045455344,170.6070045455344,0,0,0,-24.090826321169462,168.89754908572016Z" fill-rule="evenodd" style="fill: #D7A449; stroke: #fff; opacity: 1;" id="p-type-tokenTransfers"></path><path d="M-29.45446716090554,194.78561128652993A197,197,0,0,1,-31.089167025091744,194.5313951363274L-26.924008426226933,168.46913002168813A170.6070045455344,170.6070045455344,0,0,0,-25.508316816278708,168.68928766581578Z" fill-rule="evenodd" style="fill: #D7A449; stroke: #fff; opacity: 1;" id="p-type-tokenTransfers"></path><path d="M-31.089167025091744,194.5313951363274A197,197,0,0,1,-32.721674434102134,194.26346033731775L-28.337801314296243,168.23709167918787A170.6070045455344,170.6070045455344,0,0,0,-26.924008426226933,168.46913002168813Z" fill-rule="evenodd" style="fill: #D7A449; stroke: #fff; opacity: 1;" id="p-type-tokenTransfers"></path><path d="M-32.721674434102134,194.26346033731775A197,197,0,0,1,-34.351874261040095,193.98182578466904L-29.749595777669512,167.99318900201064A170.6070045455344,170.6070045455344,0,0,0,-28.337801314296243,168.23709167918787Z" fill-rule="evenodd" style="fill: #D7A449; stroke: #fff; opacity: 1;" id="p-type-tokenTransfers"></path><path d="M-34.351874261040095,193.98182578466904A197,197,0,0,1,-35.979651541743166,193.68651133967677L-31.159292254461523,167.73743919054283A170.6070045455344,170.6070045455344,0,0,0,-29.749595777669512,167.99318900201064Z" fill-rule="evenodd" style="fill: #D7A449; stroke: #fff; opacity: 1;" id="p-type-tokenTransfers"></path><path d="M-35.979651541743166,193.68651133967677A197,197,0,0,1,-37.60489148289054,193.37753782836316L-32.56679133074027,167.46986028064876A170.6070045455344,170.6070045455344,0,0,0,-31.159292254461523,167.73743919054283Z" fill-rule="evenodd" style="fill: #D7A449; stroke: #fff; opacity: 1;" id="p-type-tokenTransfers"></path><path d="M-37.60489148289054,193.37753782836316A197,197,0,0,1,-39.22747947009843,193.0549270400085L-33.971993747537766,167.1904711423987A170.6070045455344,170.6070045455344,0,0,0,-32.56679133074027,167.46986028064876Z" fill-rule="evenodd" style="fill: #D7A449; stroke: #fff; opacity: 1;" id="p-type-tokenTransfers"></path><path d="M-39.22747947009843,193.0549270400085A197,197,0,0,1,-40.84730107600287,192.71870172561452L-35.374800407849925,166.8992914787381A170.6070045455344,170.6070045455344,0,0,0,-33.971993747537766,167.1904711423987Z" fill-rule="evenodd" style="fill: #D7A449; stroke: #fff; opacity: 1;" id="p-type-tokenTransfers"></path><path d="M-40.84730107600287,192.71870172561452A197,197,0,0,1,-42.464242068329284,192.36888559629995L-36.775112383625014,166.59634182409815A170.6070045455344,170.6070045455344,0,0,0,-35.374800407849925,166.8992914787381Z" fill-rule="evenodd" style="fill: #D7A449; stroke: #fff; opacity: 1;" id="p-type-tokenTransfers"></path><path d="M-42.464242068329284,192.36888559629995A197,197,0,0,1,-44.078188417948354,192.00550332162837L-38.17283092274029,166.2816435429476A170.6070045455344,170.6070045455344,0,0,0,-36.775112383625014,166.59634182409815Z" fill-rule="evenodd" style="fill: #D7A449; stroke: #fff; opacity: 1;" id="p-type-tokenTransfers"></path><path d="M-44.078188417948354,192.00550332162837A197,197,0,0,1,-45.68902630691746,191.62858052786856L-39.567857455966035,165.95521882828618A170.6070045455344,170.6070045455344,0,0,0,-38.17283092274029,166.2816435429476Z" fill-rule="evenodd" style="fill: #D7A449; stroke: #fff; opacity: 1;" id="p-type-tokenTransfers"></path><path d="M-45.68902630691746,191.62858052786856A197,197,0,0,1,-47.296642136507394,191.23814379618713L-40.96009360391691,165.6170907000795A170.6070045455344,170.6070045455344,0,0,0,-39.567857455966035,165.95521882828618Z" fill-rule="evenodd" style="fill: #D7A449; stroke: #fff; opacity: 1;" id="p-type-tokenTransfers"></path><path d="M-47.296642136507394,191.23814379618713A197,197,0,0,1,-48.90092253521342,190.83422066077418L-42.349441183989754,165.26728300363564A170.6070045455344,170.6070045455344,0,0,0,-40.96009360391691,165.6170907000795Z" fill-rule="evenodd" style="fill: #D7A449; stroke: #fff; opacity: 1;" id="p-type-tokenTransfers"></path><path d="M-48.90092253521342,190.83422066077418A197,197,0,0,1,-50.50175436675045,190.41683960690136L-43.73580221728759,164.90582040792344A170.6070045455344,170.6070045455344,0,0,0,-42.349441183989754,165.26728300363564Z" fill-rule="evenodd" style="fill: #D7A449; stroke: #fff; opacity: 1;" id="p-type-tokenTransfers"></path><path d="M-50.50175436675045,190.41683960690136A197,197,0,0,1,-52.099024738031574,189.98603006891315L-45.11907893552925,164.532728403833A170.6070045455344,170.6070045455344,0,0,0,-43.73580221728759,164.90582040792344Z" fill-rule="evenodd" style="fill: #D7A449; stroke: #fff; opacity: 1;" id="p-type-tokenTransfers"></path><path d="M-52.099024738031574,189.98603006891315A197,197,0,0,1,-53.69262100712948,189.54182242815108L-46.499173787944144,164.1480333023779A170.6070045455344,170.6070045455344,0,0,0,-45.11907893552925,164.532728403833Z" fill-rule="evenodd" style="fill: #D7A449; stroke: #fff; opacity: 1;" id="p-type-tokenTransfers"></path><path d="M-53.69262100712948,189.54182242815108A197,197,0,0,1,-55.282430791220094,189.0842480108112L-47.875989448151664,163.7517622328397A170.6070045455344,170.6070045455344,0,0,0,-46.499173787944144,164.1480333023779Z" fill-rule="evenodd" style="fill: #D7A449; stroke: #fff; opacity: 1;" id="p-type-tokenTransfers"></path><path d="M-55.282430791220094,189.0842480108112A197,197,0,0,1,-56.868341974508,188.6133390857349L-49.24942882102483,163.3439431408548A170.6070045455344,170.6070045455344,0,0,0,-47.875989448151664,163.7517622328397Z" fill-rule="evenodd" style="fill: #D7A449; stroke: #fff; opacity: 1;" id="p-type-tokenTransfers"></path><path d="M-56.868341974508,188.6133390857349A197,197,0,0,1,-58.45024271613303,188.12912886213323L-50.61939504953755,162.92460478644364A170.6070045455344,170.6070045455344,0,0,0,-49.24942882102483,163.3439431408548Z" fill-rule="evenodd" style="fill: #D7A449; stroke: #fff; opacity: 1;" id="p-type-tokenTransfers"></path><path d="M-58.45024271613303,188.12912886213323A197,197,0,0,1,-60.02802145805743,187.63165148724508L-51.98579152159513,162.4937767419825A170.6070045455344,170.6070045455344,0,0,0,-50.61939504953755,162.92460478644364Z" fill-rule="evenodd" style="fill: #D7A449; stroke: #fff; opacity: 1;" id="p-type-tokenTransfers"></path><path d="M-60.02802145805743,187.63165148724508A197,197,0,0,1,-61.60156693293312,187.1209420439288L-53.34852187684753,162.05148939011798A170.6070045455344,170.6070045455344,0,0,0,-51.98579152159513,162.4937767419825Z" fill-rule="evenodd" style="fill: #D7A449; stroke: #fff; opacity: 1;" id="p-type-tokenTransfers"></path><path d="M-61.60156693293312,187.1209420439288A197,197,0,0,1,-63.170768171948424,186.59703654818838L-54.7074900134848,161.59777392162448A170.6070045455344,170.6070045455344,0,0,0,-53.34852187684753,162.05148939011798Z" fill-rule="evenodd" style="fill: #D7A449; stroke: #fff; opacity: 1;" id="p-type-tokenTransfers"></path><path d="M-63.170768171948424,186.59703654818838A197,197,0,0,1,-64.73551451265375,186.05997194663337L-56.06260009501435,161.13266233320448A170.6070045455344,170.6070045455344,0,0,0,-54.7074900134848,161.59777392162448Z" fill-rule="evenodd" style="fill: #D7A449; stroke: #fff; opacity: 1;" id="p-type-tokenTransfers"></path><path d="M-64.73551451265375,186.05997194663337A197,197,0,0,1,-66.29569560676573,185.50978611387342L-57.413756557019525,160.65618742523208A170.6070045455344,170.6070045455344,0,0,0,-56.06260009501435,161.13266233320448Z" fill-rule="evenodd" style="fill: #D7A449; stroke: #fff; opacity: 1;" id="p-type-tokenTransfers"></path><path d="M-66.29569560676573,185.50978611387342A197,197,0,0,1,-67.85120142794904,184.9465178498473L-58.76086411389885,160.16838279943988A170.6070045455344,170.6070045455344,0,0,0,-57.413756557019525,160.65618742523208Z" fill-rule="evenodd" style="fill: #D7A449; stroke: #fff; opacity: 1;" id="p-type-tokenTransfers"></path><path d="M-67.85120142794904,184.9465178498473A197,197,0,0,1,-69.40192227957574,184.37020687708664L-60.10382776558581,159.66928285654944A170.6070045455344,170.6070045455344,0,0,0,-58.76086411389885,160.16838279943988Z" fill-rule="evenodd" style="fill: #D7A449; stroke: #fff; opacity: 1;" id="p-type-tokenTransfers"></path><path d="M-69.40192227957574,184.37020687708664A197,197,0,0,1,-70.94774880246118,183.78089383791468L-61.442552804248365,159.1589227938451A170.6070045455344,170.6070045455344,0,0,0,-60.10382776558581,159.66928285654944Z" fill-rule="evenodd" style="fill: #D7A449; stroke: #fff; opacity: 1;" id="p-type-tokenTransfers"></path><path d="M-70.94774880246118,183.78089383791468A197,197,0,0,1,-72.48857198257619,183.17862029158007L-62.77694482096789,158.637338602692A170.6070045455344,170.6070045455344,0,0,0,-61.442552804248365,159.1589227938451Z" fill-rule="evenodd" style="fill: #D7A449; stroke: #fff; opacity: 1;" id="p-type-tokenTransfers"></path><path d="M-72.48857198257619,183.17862029158007A197,197,0,0,1,-74.02428315873489,182.56342871132608L-64.10690971239701,158.10456706599774A170.6070045455344,170.6070045455344,0,0,0,-62.77694482096789,158.637338602692Z" fill-rule="evenodd" style="fill: #D7A449; stroke: #fff; opacity: 1;" id="p-type-tokenTransfers"></path><path d="M-74.02428315873489,182.56342871132608A197,197,0,0,1,-75.55477403025772,181.9353624813953L-65.43235368739596,157.56064575561854A170.6070045455344,170.6070045455344,0,0,0,-64.10690971239701,158.10456706599774Z" fill-rule="evenodd" style="fill: #D7A449; stroke: #fff; opacity: 1;" id="p-type-tokenTransfers"></path><path d="M-156.04728197713507,120.24244586479642A197,197,0,0,1,-162.26811217998602,111.70523608830283L-140.52830737201097,96.73957218820851A170.6070045455344,170.6070045455344,0,0,0,-135.14091038371257,104.13301273208882Z" fill-rule="evenodd" style="fill: #414552; stroke: #fff; opacity: 1;" id="p-type-ether"></path><path d="M-162.26811217998602,111.70523608830283A197,197,0,0,1,-166.46110805783098,105.35511142872525L-144.15954832018815,91.24020291581631A170.6070045455344,170.6070045455344,0,0,0,-140.52830737201097,96.73957218820851Z" fill-rule="evenodd" style="fill: #414552; stroke: #fff; opacity: 1;" id="p-type-ether"></path><path d="M-166.46110805783098,105.35511142872525A197,197,0,0,1,-167.19746557147025,104.18256815070852L-144.7972526332673,90.22475065001714A170.6070045455344,170.6070045455344,0,0,0,-144.15954832018815,91.24020291581631Z" fill-rule="evenodd" style="fill: #414552; stroke: #fff; opacity: 1;" id="p-type-ether"></path></g></svg>