<svg xmlns="http://www.w3.org/2000/svg" width="400" height="400" id="block-7907839"><g id="burst-container" transform="translate(200,200)"><circle r="197" style="fill: #f9f9f9; stroke: #f9f9f9; stroke-width: 3; opacity: 1;" id="circle-base"></circle><path display="none" d="M6.031385485800715e-15,-98.5A98.5,98.5,0,1,1,-6.031385485800715e-15,98.5A98.5,98.5,0,1,1,6.031385485800715e-15,-98.5Z" fill-rule="evenodd" id="p-type-root" style="stroke: #fff; opacity: 1;"></path><path d="M8.529667153919608e-15,-139.30003589374985A139.30003589374985,139.30003589374985,0,1,1,-132.86558357551687,-41.84778012197711L-93.95015513255595,-29.59084910185362A98.5,98.5,0,1,0,6.031385485800715e-15,-98.5Z" fill-rule="evenodd" style="fill: #0B1F65; stroke: #fff; opacity: 1;" id="p-type-data"></path><path d="M-132.86558357551687,-41.84778012197711A139.30003589374985,139.30003589374985,0,0,1,-3.2951640921342324,-139.26105662964756L-2.3300328746705294,-98.47243749802762A98.5,98.5,0,0,0,-93.95015513255595,-29.59084910185362Z" fill-rule="evenodd" style="fill: #D7A449; stroke: #fff; opacity: 1;" id="p-type-value"></path><path d="M1.0446666101440332e-14,-170.6070045455344A170.6070045455344,170.6070045455344,0,0,1,170.60301069571884,-1.167365219819542L139.2967749290307,-0.9531497106765994A139.30003589374985,139.30003589374985,0,0,0,8.529667153919608e-15,-139.30003589374985Z" fill-rule="evenodd" style="fill: #DB3F29; stroke: #fff; opacity: 1;" id="p-type-functions"></path><path d="M170.60301069571884,-1.167365219819542A170.6070045455344,170.6070045455344,0,0,1,69.38610723232888,155.85993110207562L56.65351931908109,127.25910084847567A139.30003589374985,139.30003589374985,0,0,0,139.2967749290307,-0.9531497106765994Z" fill-rule="evenodd" style="fill: #414552; stroke: #fff; opacity: 1;" id="p-type-ether"></path><path d="M69.38610723232888,155.85993110207562A170.6070045455344,170.6070045455344,0,0,1,-25.315735090978414,168.71829644944677L-20.67021114545593,137.75791219092378A139.30003589374985,139.30003589374985,0,0,0,56.65351931908109,127.25910084847567Z" fill-rule="evenodd" style="fill: #1DC690; stroke: #fff; opacity: 1;" id="p-type-logs"></path><path d="M-25.315735090978414,168.71829644944677A170.6070045455344,170.6070045455344,0,0,1,-99.41775678449545,138.64652767357322L-81.17425849804476,113.20441580297388A139.30003589374985,139.30003589374985,0,0,0,-20.67021114545593,137.75791219092378Z" fill-rule="evenodd" style="fill: #D7A449; stroke: #fff; opacity: 1;" id="p-type-tokenTransfers"></path><path d="M-162.72644206856484,-51.25285408351435A170.6070045455344,170.6070045455344,0,0,1,-47.785396563267746,-163.77822161475328L-39.016612912183625,-133.72435797886945A139.30003589374985,139.30003589374985,0,0,0,-132.86558357551687,-41.84778012197711Z" fill-rule="evenodd" style="fill: #414552; stroke: #fff; opacity: 1;" id="p-type-ether"></path><path d="M-47.785396563267746,-163.77822161475328A170.6070045455344,170.6070045455344,0,0,1,-8.069212066545767,-170.41607264757954L-6.588484063115367,-139.14414065187967A139.30003589374985,139.30003589374985,0,0,0,-39.016612912183625,-133.72435797886945Z" fill-rule="evenodd" style="fill: #D7A449; stroke: #fff; opacity: 1;" id="p-type-tokenTransfers"></path><path d="M1.206277097160143e-14,-197A197,197,0,0,1,2.330195890598119,-196.98621826694233L2.0180088370520757,-170.59506921459828A170.6070045455344,170.6070045455344,0,0,0,1.0446666101440332e-14,-170.6070045455344Z" fill-rule="evenodd" style="fill: #DB3F29; stroke: #fff; opacity: 1;" id="p-type-functions"></path><path d="M2.330195890598119,-196.98621826694233A197,197,0,0,1,4.660065749341035,-196.94487499605523L4.0357353222351025,-170.5592648917345A170.6070045455344,170.6070045455344,0,0,0,2.0180088370520757,-170.59506921459828Z" fill-rule="evenodd" style="fill: #DB3F29; stroke: #fff; opacity: 1;" id="p-type-functions"></path><path d="M4.660065749341035,-196.94487499605523A197,197,0,0,1,6.989283589990622,-196.87597597192678L6.052897143185579,-170.4995965865433A170.6070045455344,170.6070045455344,0,0,0,4.0357353222351025,-170.5592648917345Z" fill-rule="evenodd" style="fill: #DB3F29; stroke: #fff; opacity: 1;" id="p-type-functions"></path><path d="M6.989283589990622,-196.87597597192678A197,197,0,0,1,9.317523517536682,-196.77953083463774L8.069212066545708,-170.41607264757954A170.6070045455344,170.6070045455344,0,0,0,6.052897143185579,-170.4995965865433Z" fill-rule="evenodd" style="fill: #DB3F29; stroke: #fff; opacity: 1;" id="p-type-functions"></path><path d="M9.317523517536682,-196.77953083463774A197,197,0,0,1,11.644459773794646,-196.6555530784129L10.084397977452161,-170.30870476118466A170.6070045455344,170.6070045455344,0,0,0,8.069212066545708,-170.41607264757954Z" fill-rule="evenodd" style="fill: #DB3F29; stroke: #fff; opacity: 1;" id="p-type-functions"></path><path d="M11.644459773794646,-196.6555530784129A197,197,0,0,1,13.969766782984557,-196.50406004973286L12.09817291900864,-170.17750794985147A170.6070045455344,170.6070045455344,0,0,0,10.084397977452161,-170.30870476118466Z" fill-rule="evenodd" style="fill: #DB3F29; stroke: #fff; opacity: 1;" id="p-type-functions"></path><path d="M13.969766782984557,-196.50406004973286A197,197,0,0,1,16.293119197284305,-196.32507294490708L14.110255131736128,-170.0225005701225A170.6070045455344,170.6070045455344,0,0,0,12.09817291900864,-170.17750794985147Z" fill-rule="evenodd" style="fill: #DB3F29; stroke: #fff; opacity: 1;" id="p-type-functions"></path><path d="M16.293119197284305,-196.32507294490708A197,197,0,0,1,18.614191942351013,-196.1186168071081L16.120363092995582,-169.8437043100214A170.6070045455344,170.6070045455344,0,0,0,14.110255131736128,-170.0225005701225Z" fill-rule="evenodd" style="fill: #DB3F29; stroke: #fff; opacity: 1;" id="p-type-functions"></path><path d="M18.614191942351013,-196.1186168071081A197,197,0,0,1,20.93266026280414,-195.88472052286778L18.12821555637743,-169.64114418601847A170.6070045455344,170.6070045455344,0,0,0,16.120363092995582,-169.8437043100214Z" fill-rule="evenodd" style="fill: #DB3F29; stroke: #fff; opacity: 1;" id="p-type-functions"></path><path d="M20.93266026280414,-195.88472052286778A197,197,0,0,1,23.248199767664122,-195.6234168180353L20.133531591052613,-169.41484853953057A170.6070045455344,170.6070045455344,0,0,0,18.12821555637743,-169.64114418601847Z" fill-rule="evenodd" style="fill: #DB3F29; stroke: #fff; opacity: 1;" id="p-type-functions"></path><path d="M23.248199767664122,-195.6234168180353A197,197,0,0,1,25.56048647573964,-195.3347422531986L22.136030621079104,-169.16484903295557A170.6070045455344,170.6070045455344,0,0,0,20.133531591052613,-169.41484853953057Z" fill-rule="evenodd" style="fill: #DB3F29; stroke: #fff; opacity: 1;" id="p-type-functions"></path><path d="M25.56048647573964,-195.3347422531986A197,197,0,0,1,27.869196860957967,-195.01873721856873L24.135432464659132,-168.89118064524231A170.6070045455344,170.6070045455344,0,0,0,22.136030621079104,-169.16484903295557Z" fill-rule="evenodd" style="fill: #DB3F29; stroke: #fff; opacity: 1;" id="p-type-functions"></path><path d="M27.869196860957967,-195.01873721856873A197,197,0,0,1,30.174007897631423,-194.67544592832883L26.131457373341092,-168.59388166699662A170.6070045455344,170.6070045455344,0,0,0,24.135432464659132,-168.89118064524231Z" fill-rule="evenodd" style="fill: #DB3F29; stroke: #fff; opacity: 1;" id="p-type-functions"></path><path d="M30.174007897631423,-194.67544592832883A197,197,0,0,1,32.474597105653864,-194.30491641444758L28.12382607116085,-168.27299369512355A170.6070045455344,170.6070045455344,0,0,0,26.131457373341092,-168.59388166699662Z" fill-rule="evenodd" style="fill: #DB3F29; stroke: #fff; opacity: 1;" id="p-type-functions"></path><path d="M32.474597105653864,-194.30491641444758A197,197,0,0,1,34.770642595620814,-193.90720051995902L30.112259793716916,-167.9285616270076A170.6070045455344,170.6070045455344,0,0,0,28.12382607116085,-168.27299369512355Z" fill-rule="evenodd" style="fill: #DB3F29; stroke: #fff; opacity: 1;" id="p-type-functions"></path><path d="M34.770642595620814,-193.90720051995902A197,197,0,0,1,37.061823113866936,-193.48235389170878L32.09648032717405,-167.56063365423074A170.6070045455344,170.6070045455344,0,0,0,30.112259793716916,-167.9285616270076Z" fill-rule="evenodd" style="fill: #DB3F29; stroke: #fff; opacity: 1;" id="p-type-functions"></path><path d="M37.061823113866936,-193.48235389170878A197,197,0,0,1,39.34781808741476,-193.0304359725681L34.07621004719,-167.16926125582953A170.6070045455344,170.6070045455344,0,0,0,32.09648032717405,-167.56063365423074Z" fill-rule="evenodd" style="fill: #DB3F29; stroke: #fff; opacity: 1;" id="p-type-functions"></path><path d="M39.34781808741476,-193.0304359725681A197,197,0,0,1,41.62830766882774,-192.55150999311695L36.05117195775939,-166.75449919109246A170.6070045455344,170.6070045455344,0,0,0,34.07621004719,-167.16926125582953Z" fill-rule="evenodd" style="fill: #DB3F29; stroke: #fff; opacity: 1;" id="p-type-functions"></path><path d="M41.62830766882774,-192.55150999311695A197,197,0,0,1,43.90297278096219,-192.04564296279696L38.021089729969994,-166.3164054918984A170.6070045455344,170.6070045455344,0,0,0,36.05117195775939,-166.75449919109246Z" fill-rule="evenodd" style="fill: #DB3F29; stroke: #fff; opacity: 1;" id="p-type-functions"></path><path d="M43.90297278096219,-192.04564296279696A197,197,0,0,1,46.171495161611304,-191.51290566053586L39.98568774066568,-165.85504145459666A170.6070045455344,170.6070045455344,0,0,0,38.021089729969994,-166.3164054918984Z" fill-rule="evenodd" style="fill: #DB3F29; stroke: #fff; opacity: 1;" id="p-type-functions"></path><path d="M46.171495161611304,-191.51290566053586A197,197,0,0,1,48.43355740803512,-190.95337262484412L41.9446911110104,-165.370471631431A170.6070045455344,170.6070045455344,0,0,0,39.98568774066568,-165.85504145459666Z" fill-rule="evenodd" style="fill: #DB3F29; stroke: #fff; opacity: 1;" id="p-type-functions"></path><path d="M48.43355740803512,-190.95337262484412A197,197,0,0,1,50.68884302137025,-190.3671221433861L43.8978257449482,-164.86276382150749A170.6070045455344,170.6070045455344,0,0,0,41.9446911110104,-165.370471631431Z" fill-rule="evenodd" style="fill: #DB3F29; stroke: #fff; opacity: 1;" id="p-type-functions"></path><path d="M50.68884302137025,-190.3671221433861A197,197,0,0,1,52.93703645091332,-189.75423624202617L45.84481836755375,-164.33198906130846A170.6070045455344,170.6070045455344,0,0,0,43.8978257449482,-164.86276382150749Z" fill-rule="evenodd" style="fill: #DB3F29; stroke: #fff; opacity: 1;" id="p-type-functions"></path><path d="M52.93703645091332,-189.75423624202617A197,197,0,0,1,54.058375257298444,-189.437831661316L46.81592626013259,-164.05797465653973A170.6070045455344,170.6070045455344,0,0,0,45.84481836755375,-164.33198906130846Z" fill-rule="evenodd" style="fill: #DB3F29; stroke: #fff; opacity: 1;" id="p-type-functions"></path><path d="M196.99538829946775,-1.3479572478108386A197,197,0,0,1,196.63169057021446,12.040691985904607L170.28803922288677,10.427545138937091A170.6070045455344,170.6070045455344,0,0,0,170.60301069571884,-1.167365219819542Z" fill-rule="evenodd" style="fill: #414552; stroke: #fff; opacity: 1;" id="p-type-ether"></path><path d="M196.63169057021446,12.040691985904607A197,197,0,0,1,195.84233798561206,21.325539907099362L169.60443983207819,18.46845930896688A170.6070045455344,170.6070045455344,0,0,0,170.28803922288677,10.427545138937091Z" fill-rule="evenodd" style="fill: #414552; stroke: #fff; opacity: 1;" id="p-type-ether"></path><path d="M195.84233798561206,21.325539907099362A197,197,0,0,1,195.71278699628976,22.48343848580356L169.49224538423968,19.471228893130615A170.6070045455344,170.6070045455344,0,0,0,169.60443983207819,18.46845930896688Z" fill-rule="evenodd" style="fill: #414552; stroke: #fff; opacity: 1;" id="p-type-ether"></path><path d="M80.12017537721064,179.97154635531976A197,197,0,0,1,77.98579389187391,180.9066498254118L67.5376786446601,156.6697544623423A170.6070045455344,170.6070045455344,0,0,0,69.38610723232888,155.85993110207562Z" fill-rule="evenodd" style="fill: #1DC690; stroke: #fff; opacity: 1;" id="p-type-logs"></path><path d="M77.98579389187391,180.9066498254118A197,197,0,0,1,75.8405009406112,181.8164415477246L65.67980045030691,157.45765720601798A170.6070045455344,170.6070045455344,0,0,0,67.5376786446601,156.6697544623423Z" fill-rule="evenodd" style="fill: #1DC690; stroke: #fff; opacity: 1;" id="p-type-logs"></path><path d="M75.8405009406112,181.8164415477246A197,197,0,0,1,73.68459668438479,182.70079422777437L63.81273259628784,158.22352909284592A170.6070045455344,170.6070045455344,0,0,0,65.67980045030691,157.45765720601798Z" fill-rule="evenodd" style="fill: #1DC690; stroke: #fff; opacity: 1;" id="p-type-logs"></path><path d="M73.68459668438479,182.70079422777437A197,197,0,0,1,71.51838276884907,183.55958413040818L61.93673631540254,158.96726296504036A170.6070045455344,170.6070045455344,0,0,0,63.81273259628784,158.22352909284592Z" fill-rule="evenodd" style="fill: #1DC690; stroke: #fff; opacity: 1;" id="p-type-logs"></path><path d="M71.51838276884907,183.55958413040818A197,197,0,0,1,69.34216228214545,184.39269109711643L60.05207408968108,159.68875476227953A170.6070045455344,170.6070045455344,0,0,0,61.93673631540254,158.96726296504036Z" fill-rule="evenodd" style="fill: #1DC690; stroke: #fff; opacity: 1;" id="p-type-logs"></path><path d="M69.34216228214545,184.39269109711643A197,197,0,0,1,67.15623971249549,185.19999856284514L58.15900961365846,160.3879035362654A170.6070045455344,170.6070045455344,0,0,0,60.05207408968108,159.68875476227953Z" fill-rule="evenodd" style="fill: #1DC690; stroke: #fff; opacity: 1;" id="p-type-logs"></path><path d="M67.15623971249549,185.19999856284514A197,197,0,0,1,64.96092090559807,185.98139357230505L56.25780775747955,161.0646114648481A170.6070045455344,170.6070045455344,0,0,0,58.15900961365846,160.3879035362654Z" fill-rule="evenodd" style="fill: #1DC690; stroke: #fff; opacity: 1;" id="p-type-logs"></path><path d="M64.96092090559807,185.98139357230505A197,197,0,0,1,62.75651302183666,186.73676679577605L54.348734529839476,161.7187838657125A170.6070045455344,170.6070045455344,0,0,0,56.25780775747955,161.0646114648481Z" fill-rule="evenodd" style="fill: #1DC690; stroke: #fff; opacity: 1;" id="p-type-logs"></path><path d="M62.75651302183666,186.73676679577605A197,197,0,0,1,60.5433244933027,187.46601254440404L52.43205704076476,162.35032920962615A170.6070045455344,170.6070045455344,0,0,0,54.348734529839476,161.7187838657125Z" fill-rule="evenodd" style="fill: #1DC690; stroke: #fff; opacity: 1;" id="p-type-logs"></path><path d="M60.5433244933027,187.46601254440404A197,197,0,0,1,58.32166498064089,188.16902878498865L50.50804346424028,162.95915913324546A170.6070045455344,170.6070045455344,0,0,0,52.43205704076476,162.35032920962615Z" fill-rule="evenodd" style="fill: #1DC690; stroke: #fff; opacity: 1;" id="p-type-logs"></path><path d="M58.32166498064089,188.16902878498865A197,197,0,0,1,56.091845329722815,188.84571715425915L48.57696300068748,163.5451884514792A170.6070045455344,170.6070045455344,0,0,0,50.50804346424028,162.95915913324546Z" fill-rule="evenodd" style="fill: #1DC690; stroke: #fff; opacity: 1;" id="p-type-logs"></path><path d="M56.091845329722815,188.84571715425915A197,197,0,0,1,53.854177528154516,189.49598297263722L46.63908583929886,164.10833516940724A170.6070045455344,170.6070045455344,0,0,0,48.57696300068748,163.5451884514792Z" fill-rule="evenodd" style="fill: #1DC690; stroke: #fff; opacity: 1;" id="p-type-logs"></path><path d="M53.854177528154516,189.49598297263722A197,197,0,0,1,51.608974661624465,190.119735257484L44.69468312023419,164.64852049375315A170.6070045455344,170.6070045455344,0,0,0,46.63908583929886,164.10833516940724Z" fill-rule="evenodd" style="fill: #1DC690; stroke: #fff; opacity: 1;" id="p-type-logs"></path><path d="M51.608974661624465,190.119735257484A197,197,0,0,1,49.35655087009778,190.71688673583012L42.744026896683614,165.16566884390832A170.6070045455344,170.6070045455344,0,0,0,44.69468312023419,164.64852049375315Z" fill-rule="evenodd" style="fill: #1DC690; stroke: #fff; opacity: 1;" id="p-type-logs"></path><path d="M49.35655087009778,190.71688673583012A197,197,0,0,1,47.09722130386309,191.28735385658652L40.787390096803094,165.65970786250713A170.6070045455344,170.6070045455344,0,0,0,42.744026896683614,165.16566884390832Z" fill-rule="evenodd" style="fill: #1DC690; stroke: #fff; opacity: 1;" id="p-type-logs"></path><path d="M47.09722130386309,191.28735385658652A197,197,0,0,1,44.83130207943784,191.83105680223468L38.825046485527295,166.13056842555088A170.6070045455344,170.6070045455344,0,0,0,40.787390096803094,165.65970786250713Z" fill-rule="evenodd" style="fill: #1DC690; stroke: #fff; opacity: 1;" id="p-type-logs"></path><path d="M44.83130207943784,191.83105680223468A197,197,0,0,1,42.55911023533862,192.3479194999943L36.85727062626557,166.57818465207927A170.6070045455344,170.6070045455344,0,0,0,38.825046485527295,166.13056842555088Z" fill-rule="evenodd" style="fill: #1DC690; stroke: #fff; opacity: 1;" id="p-type-logs"></path><path d="M42.55911023533862,192.3479194999943A197,197,0,0,1,40.280963687722284,192.83786963246715L34.884337842486005,167.0024939133883A170.6070045455344,170.6070045455344,0,0,0,36.85727062626557,166.57818465207927Z" fill-rule="evenodd" style="fill: #1DC690; stroke: #fff; opacity: 1;" id="p-type-logs"></path><path d="M40.280963687722284,192.83786963246715A197,197,0,0,1,37.997181185904424,193.30083864775534L32.90652417919335,167.40343684179294A170.6070045455344,170.6070045455344,0,0,0,34.884337842486005,167.0024939133883Z" fill-rule="evenodd" style="fill: #1DC690; stroke: #fff; opacity: 1;" id="p-type-logs"></path><path d="M37.997181185904424,193.30083864775534A197,197,0,0,1,35.7080822677612,193.736761769053L30.924106364305842,167.78095733893372A170.6070045455344,170.6070045455344,0,0,0,32.90652417919335,167.40343684179294Z" fill-rule="evenodd" style="fill: #1DC690; stroke: #fff; opacity: 1;" id="p-type-logs"></path><path d="M35.7080822677612,193.736761769053A197,197,0,0,1,33.41398721502085,194.14557800370943L28.9373617699365,168.1350025836257A170.6070045455344,170.6070045455344,0,0,0,30.924106364305842,167.78095733893372Z" fill-rule="evenodd" style="fill: #1DC690; stroke: #fff; opacity: 1;" id="p-type-logs"></path><path d="M33.41398721502085,194.14557800370943A197,197,0,0,1,31.115217008451165,194.52723015176304L26.946568373584352,168.465523039249A170.6070045455344,170.6070045455344,0,0,0,28.9373617699365,168.1350025836257Z" fill-rule="evenodd" style="fill: #1DC690; stroke: #fff; opacity: 1;" id="p-type-logs"></path><path d="M31.115217008451165,194.52723015176304A197,197,0,0,1,28.812093282949068,194.88166481394455L24.95200471924088,168.77247246067998A170.6070045455344,170.6070045455344,0,0,0,26.946568373584352,168.465523039249Z" fill-rule="evenodd" style="fill: #1DC690; stroke: #fff; opacity: 1;" id="p-type-logs"></path><path d="M28.812093282949068,194.88166481394455A197,197,0,0,1,26.504938282538767,195.2088323991484L22.953949878417262,169.0558079007613A170.6070045455344,170.6070045455344,0,0,0,24.95200471924088,168.77247246067998Z" fill-rule="evenodd" style="fill: #1DC690; stroke: #fff; opacity: 1;" id="p-type-logs"></path><path d="M-29.23209293901929,194.81910774460636A197,197,0,0,1,-31.53444733178512,194.45970953253752L-27.30963248362832,168.40704846772047A170.6070045455344,170.6070045455344,0,0,0,-25.315735090978414,168.71829644944677Z" fill-rule="evenodd" style="fill: #D7A449; stroke: #fff; opacity: 1;" id="p-type-tokenTransfers"></path><path d="M-31.53444733178512,194.45970953253752A197,197,0,0,1,-33.83238954855859,194.07310328181643L-29.299708819782868,168.0722376333341A170.6070045455344,170.6070045455344,0,0,0,-27.30963248362832,168.40704846772047Z" fill-rule="evenodd" style="fill: #D7A449; stroke: #fff; opacity: 1;" id="p-type-tokenTransfers"></path><path d="M-33.83238954855859,194.07310328181643A197,197,0,0,1,-36.12559807029182,193.65934308487087L-31.285685655778813,167.71391079170442A170.6070045455344,170.6070045455344,0,0,0,-29.299708819782868,168.0722376333341Z" fill-rule="evenodd" style="fill: #D7A449; stroke: #fff; opacity: 1;" id="p-type-tokenTransfers"></path><path d="M-36.12559807029182,193.65934308487087A197,197,0,0,1,-38.41375204025701,193.2184868334023L-33.26728512153888,167.33211807851546A170.6070045455344,170.6070045455344,0,0,0,-31.285685655778813,167.71391079170442Z" fill-rule="evenodd" style="fill: #D7A449; stroke: #fff; opacity: 1;" id="p-type-tokenTransfers"></path><path d="M-38.41375204025701,193.2184868334023A197,197,0,0,1,-40.69653130893933,192.7505962102855L-35.24422995945023,166.92691291270378A170.6070045455344,170.6070045455344,0,0,0,-33.26728512153888,167.33211807851546Z" fill-rule="evenodd" style="fill: #D7A449; stroke: #fff; opacity: 1;" id="p-type-tokenTransfers"></path><path d="M-40.69653130893933,192.7505962102855A197,197,0,0,1,-42.97361647883105,192.25573668093844L-37.21624356315726,166.49835198898444A170.6070045455344,170.6070045455344,0,0,0,-35.24422995945023,166.92691291270378Z" fill-rule="evenodd" style="fill: #D7A449; stroke: #fff; opacity: 1;" id="p-type-tokenTransfers"></path><path d="M-42.97361647883105,192.25573668093844A197,197,0,0,1,-45.24468894912039,191.73397748416252L-39.18305001626331,166.04649526991832A170.6070045455344,170.6070045455344,0,0,0,-37.21624356315726,166.49835198898444Z" fill-rule="evenodd" style="fill: #D7A449; stroke: #fff; opacity: 1;" id="p-type-tokenTransfers"></path><path d="M-45.24468894912039,191.73397748416252A197,197,0,0,1,-47.509430960268865,191.1853916224549L-41.14437413093575,165.57140597752255A170.6070045455344,170.6070045455344,0,0,0,-39.18305001626331,166.04649526991832Z" fill-rule="evenodd" style="fill: #D7A449; stroke: #fff; opacity: 1;" id="p-type-tokenTransfers"></path><path d="M-47.509430960268865,191.1853916224549A197,197,0,0,1,-49.767525638470985,190.61005585179427L-43.099941486409236,165.07315058442452A170.6070045455344,170.6070045455344,0,0,0,-41.14437413093575,165.57140597752255Z" fill-rule="evenodd" style="fill: #D7A449; stroke: #fff; opacity: 1;" id="p-type-tokenTransfers"></path><path d="M-49.767525638470985,190.61005585179427A197,197,0,0,1,-52.018657039989954,190.00805067090158L-45.04947846738153,164.5517988045616A170.6070045455344,170.6070045455344,0,0,0,-43.099941486409236,165.07315058442452Z" fill-rule="evenodd" style="fill: #D7A449; stroke: #fff; opacity: 1;" id="p-type-tokenTransfers"></path><path d="M-52.018657039989954,190.00805067090158A197,197,0,0,1,-54.26251019536329,189.37946030997685L-46.99271230229671,164.00742358342677A170.6070045455344,170.6070045455344,0,0,0,-45.04947846738153,164.5517988045616Z" fill-rule="evenodd" style="fill: #D7A449; stroke: #fff; opacity: 1;" id="p-type-tokenTransfers"></path><path d="M-54.26251019536329,189.37946030997685A197,197,0,0,1,-56.49877115347214,188.72437271891403L-48.929371101510306,163.44010108786242A170.6070045455344,170.6070045455344,0,0,0,-46.99271230229671,164.00742358342677Z" fill-rule="evenodd" style="fill: #D7A449; stroke: #fff; opacity: 1;" id="p-type-tokenTransfers"></path><path d="M-56.49877115347214,188.72437271891403A197,197,0,0,1,-58.72712702546806,188.04287955499547L-50.85918389533099,162.8499106954035A170.6070045455344,170.6070045455344,0,0,0,-48.929371101510306,163.44010108786242Z" fill-rule="evenodd" style="fill: #D7A449; stroke: #fff; opacity: 1;" id="p-type-tokenTransfers"></path><path d="M-58.72712702546806,188.04287955499547A197,197,0,0,1,-60.94726602855118,187.33507617006754L-52.781880671933635,162.23693498317132A170.6070045455344,170.6070045455344,0,0,0,-50.85918389533099,162.8499106954035Z" fill-rule="evenodd" style="fill: #D7A449; stroke: #fff; opacity: 1;" id="p-type-tokenTransfers"></path><path d="M-60.94726602855118,187.33507617006754A197,197,0,0,1,-63.15887752959369,186.60106159719933L-54.69719241513828,161.60125971631948A170.6070045455344,170.6070045455344,0,0,0,-52.781880671933635,162.23693498317132Z" fill-rule="evenodd" style="fill: #D7A449; stroke: #fff; opacity: 1;" id="p-type-tokenTransfers"></path><path d="M-63.15887752959369,186.60106159719933A197,197,0,0,1,-65.36165208860233,185.84093853682646L-56.60485114204983,160.94297383603418A170.6070045455344,170.6070045455344,0,0,0,-54.69719241513828,161.60125971631948Z" fill-rule="evenodd" style="fill: #D7A449; stroke: #fff; opacity: 1;" id="p-type-tokenTransfers"></path><path d="M-65.36165208860233,185.84093853682646A197,197,0,0,1,-67.55528150201407,185.05481334238144L-58.50458994055315,160.2621694470898A170.6070045455344,170.6070045455344,0,0,0,-56.60485114204983,160.94297383603418Z" fill-rule="evenodd" style="fill: #D7A449; stroke: #fff; opacity: 1;" id="p-type-tokenTransfers"></path><path d="M-67.55528150201407,185.05481334238144A197,197,0,0,1,-69.73945884581875,184.24279600541334L-60.39614300665842,159.55894180496205A170.6070045455344,170.6070045455344,0,0,0,-58.50458994055315,160.2621694470898Z" fill-rule="evenodd" style="fill: #D7A449; stroke: #fff; opacity: 1;" id="p-type-tokenTransfers"></path><path d="M-69.73945884581875,184.24279600541334A197,197,0,0,1,-71.9138785185026,183.40500014019804L-62.27924568169128,158.83338930250005A170.6070045455344,170.6070045455344,0,0,0,-60.39614300665842,159.55894180496205Z" fill-rule="evenodd" style="fill: #D7A449; stroke: #fff; opacity: 1;" id="p-type-tokenTransfers"></path><path d="M-71.9138785185026,183.40500014019804A197,197,0,0,1,-74.07823628380692,182.5415429678419L-64.15363448932293,158.08561345615973A170.6070045455344,170.6070045455344,0,0,0,-62.27924568169128,158.83338930250005Z" fill-rule="evenodd" style="fill: #D7A449; stroke: #fff; opacity: 1;" id="p-type-tokenTransfers"></path></g></svg>