<svg xmlns="http://www.w3.org/2000/svg" width="400" height="400" id="block-7907862"><g id="burst-container" transform="translate(200,200)"><circle r="197" style="fill: #f9f9f9; stroke: #f9f9f9; stroke-width: 3; opacity: 1;" id="circle-base"></circle><path display="none" d="M6.031385485800715e-15,-98.5A98.5,98.5,0,1,1,-6.031385485800715e-15,98.5A98.5,98.5,0,1,1,6.031385485800715e-15,-98.5Z" fill-rule="evenodd" id="p-type-root" style="stroke: #fff; opacity: 1;"></path><path d="M8.529667153919608e-15,-139.30003589374985A139.30003589374985,139.30003589374985,0,1,1,-138.83182440332635,-11.411596419605672L-98.16892448009207,-8.069217212467299A98.5,98.5,0,1,0,6.031385485800715e-15,-98.5Z" fill-rule="evenodd" style="fill: #0B1F65; stroke: #fff; opacity: 1;" id="p-type-data"></path><path d="M-138.83182440332635,-11.411596419605672A139.30003589374985,139.30003589374985,0,0,1,-40.867335482090176,-133.17042047915254L-28.89757004841157,-94.16570737427264A98.5,98.5,0,0,0,-98.16892448009207,-8.069217212467299Z" fill-rule="evenodd" style="fill: #D7A449; stroke: #fff; opacity: 1;" id="p-type-value"></path><path d="M1.0446666101440332e-14,-170.6070045455344A170.6070045455344,170.6070045455344,0,0,1,158.45126881296315,-63.24512164240088L129.37491922944443,-51.63942558137845A139.30003589374985,139.30003589374985,0,0,0,8.529667153919608e-15,-139.30003589374985Z" fill-rule="evenodd" style="fill: #DB3F29; stroke: #fff; opacity: 1;" id="p-type-functions"></path><path d="M158.45126881296315,-63.24512164240088A170.6070045455344,170.6070045455344,0,0,1,117.47782334217088,123.71625205600795L95.92024109371393,101.01389680892323A139.30003589374985,139.30003589374985,0,0,0,129.37491922944443,-51.63942558137845Z" fill-rule="evenodd" style="fill: #1DC690; stroke: #fff; opacity: 1;" id="p-type-logs"></path><path d="M117.47782334217088,123.71625205600795A170.6070045455344,170.6070045455344,0,0,1,-71.35168873004734,154.96995358897942L-58.258409891503014,126.53243725193008A139.30003589374985,139.30003589374985,0,0,0,95.92024109371393,101.01389680892323Z" fill-rule="evenodd" style="fill: #D7A449; stroke: #fff; opacity: 1;" id="p-type-tokenTransfers"></path><path d="M-71.35168873004734,154.96995358897942A170.6070045455344,170.6070045455344,0,0,1,-117.47782334217075,123.71625205600807L-95.92024109371381,101.01389680892335A139.30003589374985,139.30003589374985,0,0,0,-58.258409891503014,126.53243725193008Z" fill-rule="evenodd" style="fill: #414552; stroke: #fff; opacity: 1;" id="p-type-ether"></path><path d="M-170.0335649239116,-13.976294189302669A170.6070045455344,170.6070045455344,0,0,1,-132.92431958621444,-106.94800261127803L-108.53225246428843,-87.32267846915802A139.30003589374985,139.30003589374985,0,0,0,-138.83182440332635,-11.411596419605672Z" fill-rule="evenodd" style="fill: #D7A449; stroke: #fff; opacity: 1;" id="p-type-tokenTransfers"></path><path d="M-132.92431958621444,-106.94800261127803A170.6070045455344,170.6070045455344,0,0,1,-95.69924044753981,-141.2388239039251L-78.1381026227966,-115.32101681180801A139.30003589374985,139.30003589374985,0,0,0,-108.53225246428843,-87.32267846915802Z" fill-rule="evenodd" style="fill: #414552; stroke: #fff; opacity: 1;" id="p-type-ether"></path><path d="M1.206277097160143e-14,-197A197,197,0,0,1,29.220808463632302,-194.82080061618603L25.305962448624904,-168.7197625192401A170.6070045455344,170.6070045455344,0,0,0,1.0446666101440332e-14,-170.6070045455344Z" fill-rule="evenodd" style="fill: #DB3F29; stroke: #fff; opacity: 1;" id="p-type-functions"></path><path d="M29.220808463632302,-194.82080061618603A197,197,0,0,1,57.79514009682304,-188.33141474854534L50.052059539129374,-163.09978950290355A170.6070045455344,170.6070045455344,0,0,0,25.305962448624904,-168.7197625192401Z" fill-rule="evenodd" style="fill: #DB3F29; stroke: #fff; opacity: 1;" id="p-type-functions"></path><path d="M57.79514009682304,-188.33141474854534A197,197,0,0,1,85.0908206265982,-177.67541260706867L73.69081229149894,-153.87142094560338A170.6070045455344,170.6070045455344,0,0,0,50.052059539129374,-163.09978950290355Z" fill-rule="evenodd" style="fill: #DB3F29; stroke: #fff; opacity: 1;" id="p-type-functions"></path><path d="M85.0908206265982,-177.67541260706867A197,197,0,0,1,110.50396446725952,-163.0885460019147L95.6992404475397,-141.23882390392515A170.6070045455344,170.6070045455344,0,0,0,73.69081229149894,-153.87142094560338Z" fill-rule="evenodd" style="fill: #DB3F29; stroke: #fff; opacity: 1;" id="p-type-functions"></path><path d="M182.96376540520407,-73.02917601034156A197,197,0,0,1,191.7721767738527,-45.082504537993344L166.07957682519654,-39.04259419612947A170.6070045455344,170.6070045455344,0,0,0,158.45126881296315,-63.24512164240088Z" fill-rule="evenodd" style="fill: #1DC690; stroke: #fff; opacity: 1;" id="p-type-logs"></path><path d="M191.7721767738527,-45.082504537993344A197,197,0,0,1,196.33784896018415,-16.138434424934623L170.0335649239116,-13.97629418930269A170.6070045455344,170.6070045455344,0,0,0,166.07957682519654,-39.04259419612947Z" fill-rule="evenodd" style="fill: #1DC690; stroke: #fff; opacity: 1;" id="p-type-logs"></path><path d="M196.33784896018415,-16.138434424934623A197,197,0,0,1,196.55977171023753,13.162680016596582L170.22575566313552,11.399215276258415A170.6070045455344,170.6070045455344,0,0,0,170.0335649239116,-13.97629418930269Z" fill-rule="evenodd" style="fill: #1DC690; stroke: #fff; opacity: 1;" id="p-type-logs"></path><path d="M196.55977171023753,13.162680016596582A197,197,0,0,1,192.43303523802123,42.17258527862009L166.65189704347245,36.52253019455064A170.6070045455344,170.6070045455344,0,0,0,170.22575566313552,11.399215276258415Z" fill-rule="evenodd" style="fill: #1DC690; stroke: #fff; opacity: 1;" id="p-type-logs"></path><path d="M135.65170586082732,142.85522285533557A197,197,0,0,1,112.96156769376894,161.39604773403238L97.82758727411945,139.77307740807794A170.6070045455344,170.6070045455344,0,0,0,117.47782334217088,123.71625205600795Z" fill-rule="evenodd" style="fill: #D7A449; stroke: #fff; opacity: 1;" id="p-type-tokenTransfers"></path><path d="M112.96156769376894,161.39604773403238A197,197,0,0,1,87.77228456515806,176.36617040184584L76.01302818162365,152.73758393617365A170.6070045455344,170.6070045455344,0,0,0,97.82758727411945,139.77307740807794Z" fill-rule="evenodd" style="fill: #D7A449; stroke: #fff; opacity: 1;" id="p-type-tokenTransfers"></path><path d="M87.77228456515806,176.36617040184584A197,197,0,0,1,60.641140437152906,187.43439408625488L52.51676813303419,162.32294682164047A170.6070045455344,170.6070045455344,0,0,0,76.01302818162365,152.73758393617365Z" fill-rule="evenodd" style="fill: #D7A449; stroke: #fff; opacity: 1;" id="p-type-tokenTransfers"></path><path d="M60.641140437152906,187.43439408625488A197,197,0,0,1,32.16838071651405,194.3558470488537L27.85863489911063,168.3171009183501A170.6070045455344,170.6070045455344,0,0,0,52.51676813303419,162.32294682164047Z" fill-rule="evenodd" style="fill: #D7A449; stroke: #fff; opacity: 1;" id="p-type-tokenTransfers"></path><path d="M-82.38983339085443,178.94388884180216A197,197,0,0,1,-87.34066289783193,176.58031771567093L-75.63923285289545,152.92304095009837A170.6070045455344,170.6070045455344,0,0,0,-71.35168873004734,154.96995358897942Z" fill-rule="evenodd" style="fill: #414552; stroke: #fff; opacity: 1;" id="p-type-ether"></path></g></svg>