<svg xmlns="http://www.w3.org/2000/svg" width="400" height="400" id="block-7907825"><g id="burst-container" transform="translate(200,200)"><circle r="197" style="fill: #f9f9f9; stroke: #f9f9f9; stroke-width: 3; opacity: 1;" id="circle-base"></circle><path display="none" d="M6.031385485800715e-15,-98.5A98.5,98.5,0,1,1,-6.031385485800715e-15,98.5A98.5,98.5,0,1,1,6.031385485800715e-15,-98.5Z" fill-rule="evenodd" id="p-type-root" style="stroke: #fff; opacity: 1;"></path><path d="M8.529667153919608e-15,-139.30003589374985A139.30003589374985,139.30003589374985,0,1,1,-102.69152891392115,-94.1219947160136L-72.61387646544807,-66.55430072249762A98.5,98.5,0,1,0,6.031385485800715e-15,-98.5Z" fill-rule="evenodd" style="fill: #0B1F65; stroke: #fff; opacity: 1;" id="p-type-data"></path><path d="M-102.69152891392115,-94.1219947160136A139.30003589374985,139.30003589374985,0,0,1,-3.3957659605536854,-139.2586398524025L-2.401169138029961,-98.470728578449A98.5,98.5,0,0,0,-72.61387646544807,-66.55430072249762Z" fill-rule="evenodd" style="fill: #D7A449; stroke: #fff; opacity: 1;" id="p-type-value"></path><path d="M1.0446666101440332e-14,-170.6070045455344A170.6070045455344,170.6070045455344,0,0,1,112.84283363062428,127.95798098677254L92.13578784160094,104.47725397811475A139.30003589374985,139.30003589374985,0,0,0,8.529667153919608e-15,-139.30003589374985Z" fill-rule="evenodd" style="fill: #414552; stroke: #fff; opacity: 1;" id="p-type-ether"></path><path d="M112.84283363062428,127.95798098677254A170.6070045455344,170.6070045455344,0,0,1,-73.82675889185087,153.8062406780834L-60.279296216171836,125.58226963900202A139.30003589374985,139.30003589374985,0,0,0,92.13578784160094,104.47725397811475Z" fill-rule="evenodd" style="fill: #1DC690; stroke: #fff; opacity: 1;" id="p-type-logs"></path><path d="M-73.82675889185087,153.8062406780834A170.6070045455344,170.6070045455344,0,0,1,-166.89700226320096,35.385599268022794L-136.27083171499052,28.892220816419254A139.30003589374985,139.30003589374985,0,0,0,-60.279296216171836,125.58226963900202Z" fill-rule="evenodd" style="fill: #D7A449; stroke: #fff; opacity: 1;" id="p-type-tokenTransfers"></path><path d="M-125.77092337268601,-115.27543031358391A170.6070045455344,170.6070045455344,0,0,1,-61.009035046734354,-159.3256025962756L-49.81366852135841,-130.08880977410865A139.30003589374985,139.30003589374985,0,0,0,-102.69152891392115,-94.1219947160136Z" fill-rule="evenodd" style="fill: #D7A449; stroke: #fff; opacity: 1;" id="p-type-tokenTransfers"></path><path d="M-61.009035046734354,-159.3256025962756A170.6070045455344,170.6070045455344,0,0,1,-8.315422045832607,-170.40423632116568L-6.78951366939336,-139.134476331832A139.30003589374985,139.30003589374985,0,0,0,-49.81366852135841,-130.08880977410865Z" fill-rule="evenodd" style="fill: #414552; stroke: #fff; opacity: 1;" id="p-type-ether"></path><path d="M1.206277097160143e-14,-197A197,197,0,0,1,183.21975723205693,-72.38453260072981L158.67296423817893,-62.68684407329489A170.6070045455344,170.6070045455344,0,0,0,1.0446666101440332e-14,-170.6070045455344Z" fill-rule="evenodd" style="fill: #414552; stroke: #fff; opacity: 1;" id="p-type-ether"></path><path d="M183.21975723205693,-72.38453260072981A197,197,0,0,1,185.52776313944815,66.24537043803755L160.67175598606428,57.37017368245118A170.6070045455344,170.6070045455344,0,0,0,158.67296423817893,-62.68684407329489Z" fill-rule="evenodd" style="fill: #414552; stroke: #fff; opacity: 1;" id="p-type-ether"></path><path d="M185.52776313944815,66.24537043803755A197,197,0,0,1,181.1481503143706,77.42317248525914L156.87890002080698,67.05043421381879A170.6070045455344,170.6070045455344,0,0,0,160.67175598606428,57.37017368245118Z" fill-rule="evenodd" style="fill: #414552; stroke: #fff; opacity: 1;" id="p-type-ether"></path><path d="M181.1481503143706,77.42317248525914A197,197,0,0,1,176.95820333747326,86.57247987422716L153.2502994983041,74.97396683969775A170.6070045455344,170.6070045455344,0,0,0,156.87890002080698,67.05043421381879Z" fill-rule="evenodd" style="fill: #414552; stroke: #fff; opacity: 1;" id="p-type-ether"></path><path d="M176.95820333747326,86.57247987422716A197,197,0,0,1,175.63786351273646,89.22074254724265L152.10685166845371,77.26742959042326A170.6070045455344,170.6070045455344,0,0,0,153.2502994983041,74.97396683969775Z" fill-rule="evenodd" style="fill: #414552; stroke: #fff; opacity: 1;" id="p-type-ether"></path><path d="M175.63786351273646,89.22074254724265A197,197,0,0,1,174.29710113581547,91.81242037791681L150.94571738960173,79.51188843021203A170.6070045455344,170.6070045455344,0,0,0,152.10685166845371,77.26742959042326Z" fill-rule="evenodd" style="fill: #414552; stroke: #fff; opacity: 1;" id="p-type-ether"></path><path d="M174.29710113581547,91.81242037791681A197,197,0,0,1,173.11679939122212,94.01900748539815L149.9235460946528,81.4228489209541A170.6070045455344,170.6070045455344,0,0,0,150.94571738960173,79.51188843021203Z" fill-rule="evenodd" style="fill: #414552; stroke: #fff; opacity: 1;" id="p-type-ether"></path><path d="M173.11679939122212,94.01900748539815A197,197,0,0,1,172.07502776627345,95.91238094863571L149.02134540250546,83.06255843896915A170.6070045455344,170.6070045455344,0,0,0,149.9235460946528,81.4228489209541Z" fill-rule="evenodd" style="fill: #414552; stroke: #fff; opacity: 1;" id="p-type-ether"></path><path d="M172.07502776627345,95.91238094863571A197,197,0,0,1,171.12268446507986,97.60136710858468L148.19659191054788,84.52526336012528A170.6070045455344,170.6070045455344,0,0,0,149.02134540250546,83.06255843896915Z" fill-rule="evenodd" style="fill: #414552; stroke: #fff; opacity: 1;" id="p-type-ether"></path><path d="M130.29968074552218,147.75314953534829A197,197,0,0,1,128.48895098608332,149.33047068329986L111.27469565956176,129.32398117082502A170.6070045455344,170.6070045455344,0,0,0,112.84283363062428,127.95798098677254Z" fill-rule="evenodd" style="fill: #1DC690; stroke: #fff; opacity: 1;" id="p-type-logs"></path><path d="M128.48895098608332,149.33047068329986A197,197,0,0,1,126.65912887147064,150.88560260515314L109.69002322390061,130.67076492138608A170.6070045455344,170.6070045455344,0,0,0,111.27469565956176,129.32398117082502Z" fill-rule="evenodd" style="fill: #1DC690; stroke: #fff; opacity: 1;" id="p-type-logs"></path><path d="M126.65912887147064,150.88560260515314A197,197,0,0,1,124.81048629754325,152.41831422165373L108.08905179236204,131.99813211795112A170.6070045455344,170.6070045455344,0,0,0,109.69002322390061,130.67076492138608Z" fill-rule="evenodd" style="fill: #1DC690; stroke: #fff; opacity: 1;" id="p-type-logs"></path><path d="M124.81048629754325,152.41831422165373A197,197,0,0,1,122.94329795671901,153.92837778501215L106.47201925555812,133.30588552514874A170.6070045455344,170.6070045455344,0,0,0,108.08905179236204,131.99813211795112Z" fill-rule="evenodd" style="fill: #1DC690; stroke: #fff; opacity: 1;" id="p-type-logs"></path><path d="M122.94329795671901,153.92837778501215A197,197,0,0,1,121.05784129715747,155.41556891274516L104.83916589064329,134.59383082204837A170.6070045455344,170.6070045455344,0,0,0,106.47201925555812,133.30588552514874Z" fill-rule="evenodd" style="fill: #1DC690; stroke: #fff; opacity: 1;" id="p-type-logs"></path><path d="M121.05784129715747,155.41556891274516A197,197,0,0,1,119.15439648153361,156.87966662101718L103.19073432561125,135.8617766310345A170.6070045455344,170.6070045455344,0,0,0,104.83916589064329,134.59383082204837Z" fill-rule="evenodd" style="fill: #1DC690; stroke: #fff; opacity: 1;" id="p-type-logs"></path><path d="M119.15439648153361,156.87966662101718A197,197,0,0,1,117.23324634540796,158.3204533574765L101.5269695032425,137.10953454624396A170.6070045455344,170.6070045455344,0,0,0,103.19073432561125,135.8617766310345Z" fill-rule="evenodd" style="fill: #1DC690; stroke: #fff; opacity: 1;" id="p-type-logs"></path><path d="M117.23324634540796,158.3204533574765A197,197,0,0,1,115.29467635519967,159.7377150335817L99.84811864470797,138.33691916156118A170.6070045455344,170.6070045455344,0,0,0,101.5269695032425,137.10953454624396Z" fill-rule="evenodd" style="fill: #1DC690; stroke: #fff; opacity: 1;" id="p-type-logs"></path><path d="M115.29467635519967,159.7377150335817A197,197,0,0,1,113.33897456576872,161.13124105641347L98.15443121283408,139.5437480981682A170.6070045455344,170.6070045455344,0,0,0,99.84811864470797,138.33691916156118Z" fill-rule="evenodd" style="fill: #1DC690; stroke: #fff; opacity: 1;" id="p-type-logs"></path><path d="M113.33897456576872,161.13124105641347A197,197,0,0,1,111.36643157761335,162.50082435996674L96.44615887503467,140.72984203164435A170.6070045455344,170.6070045455344,0,0,0,98.15443121283408,139.5437480981682Z" fill-rule="evenodd" style="fill: #1DC690; stroke: #fff; opacity: 1;" id="p-type-logs"></path><path d="M111.36643157761335,162.50082435996674A197,197,0,0,1,109.37734049368945,163.84626143591902L94.72355546591542,141.89502471861246A170.6070045455344,170.6070045455344,0,0,0,96.44615887503467,140.72984203164435Z" fill-rule="evenodd" style="fill: #1DC690; stroke: #fff; opacity: 1;" id="p-type-logs"></path><path d="M109.37734049368945,163.84626143591902A197,197,0,0,1,107.37199687585773,165.16735236387L92.98687694955618,143.03912302292719A170.6070045455344,170.6070045455344,0,0,0,94.72355546591542,141.89502471861246Z" fill-rule="evenodd" style="fill: #1DC690; stroke: #fff; opacity: 1;" id="p-type-logs"></path><path d="M107.37199687585773,165.16735236387A197,197,0,0,1,105.3506987009661,166.46390084104797L91.2363813814769,144.16196694140135A170.6070045455344,170.6070045455344,0,0,0,92.98687694955618,143.03912302292719Z" fill-rule="evenodd" style="fill: #1DC690; stroke: #fff; opacity: 1;" id="p-type-logs"></path><path d="M105.3506987009661,166.46390084104797A197,197,0,0,1,103.31374631657263,167.73571421147875L89.47232887029287,145.2633896290671A170.6070045455344,170.6070045455344,0,0,0,91.2363813814769,144.16196694140135Z" fill-rule="evenodd" style="fill: #1DC690; stroke: #fff; opacity: 1;" id="p-type-logs"></path><path d="M103.31374631657263,167.73571421147875A197,197,0,0,1,101.26144239631653,168.98260349461265L87.69498153906468,146.3432274239676A170.6070045455344,170.6070045455344,0,0,0,89.47232887029287,145.2633896290671Z" fill-rule="evenodd" style="fill: #1DC690; stroke: #fff; opacity: 1;" id="p-type-logs"></path><path d="M101.26144239631653,168.98260349461265A197,197,0,0,1,99.19409189494345,170.2043834134054L85.90460348634912,147.4013198714758A170.6070045455344,170.6070045455344,0,0,0,87.69498153906468,146.3432274239676Z" fill-rule="evenodd" style="fill: #1DC690; stroke: #fff; opacity: 1;" id="p-type-logs"></path><path d="M99.19409189494345,170.2043834134054A197,197,0,0,1,97.1120020029919,171.40087242184882L84.10146074695628,148.43750974813668A170.6070045455344,170.6070045455344,0,0,0,85.90460348634912,147.4013198714758Z" fill-rule="evenodd" style="fill: #1DC690; stroke: #fff; opacity: 1;" id="p-type-logs"></path><path d="M97.1120020029919,171.40087242184882A197,197,0,0,1,95.01548210114727,172.57189273194683L82.28582125241915,149.45164308502908A170.6070045455344,170.6070045455344,0,0,0,84.10146074695628,148.43750974813668Z" fill-rule="evenodd" style="fill: #1DC690; stroke: #fff; opacity: 1;" id="p-type-logs"></path><path d="M95.01548210114727,172.57189273194683A197,197,0,0,1,92.90484371427051,173.71727034013333L80.45795479118128,150.44356919064444A170.6070045455344,170.6070045455344,0,0,0,82.28582125241915,149.45164308502908Z" fill-rule="evenodd" style="fill: #1DC690; stroke: #fff; opacity: 1;" id="p-type-logs"></path><path d="M92.90484371427051,173.71727034013333A197,197,0,0,1,90.78040046510833,174.83683505312763L78.61813296850848,151.41314067327815A170.6070045455344,170.6070045455344,0,0,0,80.45795479118128,150.44356919064444Z" fill-rule="evenodd" style="fill: #1DC690; stroke: #fff; opacity: 1;" id="p-type-logs"></path><path d="M90.78040046510833,174.83683505312763A197,197,0,0,1,88.64246802769144,175.93042051322362L76.76662916613067,152.36021346293057A170.6070045455344,170.6070045455344,0,0,0,78.61813296850848,151.41314067327815Z" fill-rule="evenodd" style="fill: #1DC690; stroke: #fff; opacity: 1;" id="p-type-logs"></path><path d="M88.64246802769144,175.93042051322362A197,197,0,0,1,86.49136408042813,176.9978642230093L74.90371850161966,153.28464683271486A170.6070045455344,170.6070045455344,0,0,0,76.76662916613067,152.36021346293057Z" fill-rule="evenodd" style="fill: #1DC690; stroke: #fff; opacity: 1;" id="p-type-logs"></path><path d="M86.49136408042813,176.9978642230093A197,197,0,0,1,84.3274082589,178.03900756951214L73.02967778750907,154.18630341976748A170.6070045455344,170.6070045455344,0,0,0,74.90371850161966,153.28464683271486Z" fill-rule="evenodd" style="fill: #1DC690; stroke: #fff; opacity: 1;" id="p-type-logs"></path><path d="M84.3274082589,178.03900756951214A197,197,0,0,1,82.15092210836681,179.0536958477681L71.14478549016233,155.06504924565942A170.6070045455344,170.6070045455344,0,0,0,73.02967778750907,154.18630341976748Z" fill-rule="evenodd" style="fill: #1DC690; stroke: #fff; opacity: 1;" id="p-type-logs"></path><path d="M82.15092210836681,179.0536958477681A197,197,0,0,1,79.96222903598773,180.04177828380898L69.24932168839504,155.92075373630405A170.6070045455344,170.6070045455344,0,0,0,71.14478549016233,155.06504924565942Z" fill-rule="evenodd" style="fill: #1DC690; stroke: #fff; opacity: 1;" id="p-type-logs"></path><path d="M79.96222903598773,180.04177828380898A197,197,0,0,1,77.76165426276566,181.00310805706653L67.34356803185754,156.75328974135942A170.6070045455344,170.6070045455344,0,0,0,69.24932168839504,155.92075373630405Z" fill-rule="evenodd" style="fill: #1DC690; stroke: #fff; opacity: 1;" id="p-type-logs"></path><path d="M77.76165426276566,181.00310805706653A197,197,0,0,1,75.54952477522227,181.93754232218834L65.42780769918431,157.56253355312154A170.6070045455344,170.6070045455344,0,0,0,67.34356803185754,156.75328974135942Z" fill-rule="evenodd" style="fill: #1DC690; stroke: #fff; opacity: 1;" id="p-type-logs"></path><path d="M75.54952477522227,181.93754232218834A197,197,0,0,1,73.32616927681062,182.84494223026383L63.50232535591602,158.34836492490658A170.6070045455344,170.6070045455344,0,0,0,65.42780769918431,157.56253355312154Z" fill-rule="evenodd" style="fill: #1DC690; stroke: #fff; opacity: 1;" id="p-type-logs"></path><path d="M73.32616927681062,182.84494223026383A197,197,0,0,1,71.09191813907258,183.72517294945567L61.56740711220059,159.11066708891818A170.6070045455344,170.6070045455344,0,0,0,63.50232535591602,158.34836492490658Z" fill-rule="evenodd" style="fill: #1DC690; stroke: #fff; opacity: 1;" id="p-type-logs"></path><path d="M71.09191813907258,183.72517294945567A197,197,0,0,1,68.84710335254854,184.5781036850349L59.62334048027983,159.84932677359834A170.6070045455344,170.6070045455344,0,0,0,61.56740711220059,159.11066708891818Z" fill-rule="evenodd" style="fill: #1DC690; stroke: #fff; opacity: 1;" id="p-type-logs"></path><path d="M68.84710335254854,184.5781036850349A197,197,0,0,1,66.59205847744637,185.4036076988157L57.67041433176745,160.56423422045853A170.6070045455344,170.6070045455344,0,0,0,59.62334048027983,159.84932677359834Z" fill-rule="evenodd" style="fill: #1DC690; stroke: #fff; opacity: 1;" id="p-type-logs"></path><path d="M66.59205847744637,185.4036076988157A197,197,0,0,1,64.32711859407736,186.20156232798774L55.70891885472531,161.2552832003889A170.6070045455344,170.6070045455344,0,0,0,57.67041433176745,160.56423422045853Z" fill-rule="evenodd" style="fill: #1DC690; stroke: #fff; opacity: 1;" id="p-type-logs"></path><path d="M64.32711859407736,186.20156232798774A197,197,0,0,1,62.05262025306602,186.9718490033427L53.739145510543935,161.92237102944296A170.6070045455344,170.6070045455344,0,0,0,55.70891885472531,161.2552832003889Z" fill-rule="evenodd" style="fill: #1DC690; stroke: #fff; opacity: 1;" id="p-type-logs"></path><path d="M62.05262025306602,186.9718490033427A197,197,0,0,1,59.768901425341646,187.71435326689272L51.76138699063381,162.5653985840955A170.6070045455344,170.6070045455344,0,0,0,53.739145510543935,161.92237102944296Z" fill-rule="evenodd" style="fill: #1DC690; stroke: #fff; opacity: 1;" id="p-type-logs"></path><path d="M59.768901425341646,187.71435326689272A197,197,0,0,1,57.476301451918715,188.42896478887786L49.77593717293402,163.1842703159717A170.6070045455344,170.6070045455344,0,0,0,51.76138699063381,162.5653985840955Z" fill-rule="evenodd" style="fill: #1DC690; stroke: #fff; opacity: 1;" id="p-type-logs"></path><path d="M57.476301451918715,188.42896478887786A197,197,0,0,1,55.175160993473725,189.11557738416013L47.78309107824449,163.77889426604452A170.6070045455344,170.6070045455344,0,0,0,49.77593717293402,163.1842703159717Z" fill-rule="evenodd" style="fill: #1DC690; stroke: #fff; opacity: 1;" id="p-type-logs"></path><path d="M55.175160993473725,189.11557738416013A197,197,0,0,1,52.8658219797259,189.77408902800175L45.78314482638837,164.3491820782992A170.6070045455344,170.6070045455344,0,0,0,47.78309107824449,163.77889426604452Z" fill-rule="evenodd" style="fill: #1DC690; stroke: #fff; opacity: 1;" id="p-type-logs"></path><path d="M52.8658219797259,189.77408902800175A197,197,0,0,1,50.548627558629455,190.40440187122505L43.77639559221128,164.8950490128622A170.6070045455344,170.6070045455344,0,0,0,45.78314482638837,164.3491820782992Z" fill-rule="evenodd" style="fill: #1DC690; stroke: #fff; opacity: 1;" id="p-type-logs"></path><path d="M50.548627558629455,190.40440187122505A197,197,0,0,1,48.22392204538468,191.00642225475212L41.76314156142356,165.4164139585927A170.6070045455344,170.6070045455344,0,0,0,43.77639559221128,164.8950490128622Z" fill-rule="evenodd" style="fill: #1DC690; stroke: #fff; opacity: 1;" id="p-type-logs"></path><path d="M48.22392204538468,191.00642225475212A197,197,0,0,1,45.892050871275686,191.58006072352165L39.74368188629253,165.91319944513512A170.6070045455344,170.6070045455344,0,0,0,41.76314156142356,165.4164139585927Z" fill-rule="evenodd" style="fill: #1DC690; stroke: #fff; opacity: 1;" id="p-type-logs"></path><path d="M45.892050871275686,191.58006072352165A197,197,0,0,1,43.55336053234228,192.1252320397813L37.71831664119096,166.38533165443056A170.6070045455344,170.6070045455344,0,0,0,39.74368188629253,165.91319944513512Z" fill-rule="evenodd" style="fill: #1DC690; stroke: #fff; opacity: 1;" id="p-type-logs"></path><path d="M43.55336053234228,192.1252320397813A197,197,0,0,1,41.20819853789363,192.64185519575318L35.687346778008646,166.83274043168552A170.6070045455344,170.6070045455344,0,0,0,37.71831664119096,166.38533165443056Z" fill-rule="evenodd" style="fill: #1DC690; stroke: #fff; opacity: 1;" id="p-type-logs"></path><path d="M41.20819853789363,192.64185519575318A197,197,0,0,1,38.85691335887136,193.129853425671L33.651074081433514,167.25535929579618A170.6070045455344,170.6070045455344,0,0,0,35.687346778008646,166.83274043168552Z" fill-rule="evenodd" style="fill: #1DC690; stroke: #fff; opacity: 1;" id="p-type-logs"></path><path d="M38.85691335887136,193.129853425671A197,197,0,0,1,36.49985437606974,193.58915421718672L31.60980112410901,167.65312544922708A170.6070045455344,170.6070045455344,0,0,0,33.651074081433514,167.25535929579618Z" fill-rule="evenodd" style="fill: #1DC690; stroke: #fff; opacity: 1;" id="p-type-logs"></path><path d="M36.49985437606974,193.58915421718672A197,197,0,0,1,34.137371828220765,194.01968932214535L29.56383122167441,168.02597978734227A170.6070045455344,170.6070045455344,0,0,0,31.60980112410901,167.65312544922708Z" fill-rule="evenodd" style="fill: #1DC690; stroke: #fff; opacity: 1;" id="p-type-logs"></path><path d="M34.137371828220765,194.01968932214535A197,197,0,0,1,31.769816759951603,194.42139476672597L27.51346838769471,168.3738669071876A170.6070045455344,170.6070045455344,0,0,0,29.56383122167441,168.02597978734227Z" fill-rule="evenodd" style="fill: #1DC690; stroke: #fff; opacity: 1;" id="p-type-logs"></path><path d="M31.769816759951603,194.42139476672597A197,197,0,0,1,29.39754096962242,194.79421086094774L25.45901728848683,168.69673511572336A170.6070045455344,170.6070045455344,0,0,0,27.51346838769471,168.3738669071876Z" fill-rule="evenodd" style="fill: #1DC690; stroke: #fff; opacity: 1;" id="p-type-logs"></path><path d="M29.39754096962242,194.79421086094774A197,197,0,0,1,27.020896957052166,195.1380822075393L23.40078319784881,168.99453643750522A170.6070045455344,170.6070045455344,0,0,0,25.45901728848683,168.69673511572336Z" fill-rule="evenodd" style="fill: #1DC690; stroke: #fff; opacity: 1;" id="p-type-logs"></path><path d="M-85.2477982392154,177.60014891707164A197,197,0,0,1,-87.40633617642445,176.547819007242L-75.69610758050636,152.89489624300873A170.6070045455344,170.6070045455344,0,0,0,-73.82675889185087,153.8062406780834Z" fill-rule="evenodd" style="fill: #D7A449; stroke: #fff; opacity: 1;" id="p-type-tokenTransfers"></path><path d="M-87.40633617642445,176.547819007242A197,197,0,0,1,-89.55188628236927,175.46925560698546L-77.55420847734698,151.96083293879445A170.6070045455344,170.6070045455344,0,0,0,-75.69610758050636,152.89489624300873Z" fill-rule="evenodd" style="fill: #D7A449; stroke: #fff; opacity: 1;" id="p-type-tokenTransfers"></path><path d="M-89.55188628236927,175.46925560698546A197,197,0,0,1,-91.68412974672142,174.36461898156503L-79.40078548452928,151.00418955922964A170.6070045455344,170.6070045455344,0,0,0,-77.55420847734698,151.96083293879445Z" fill-rule="evenodd" style="fill: #D7A449; stroke: #fff; opacity: 1;" id="p-type-tokenTransfers"></path><path d="M-91.68412974672142,174.36461898156503A197,197,0,0,1,-93.80274973640519,173.23407327050106L-81.23556421656095,150.0251082533087A170.6070045455344,170.6070045455344,0,0,0,-79.40078548452928,151.00418955922964Z" fill-rule="evenodd" style="fill: #D7A449; stroke: #fff; opacity: 1;" id="p-type-tokenTransfers"></path><path d="M-93.80274973640519,173.23407327050106A197,197,0,0,1,-95.90743144267621,172.0777864631817L-83.05827204107203,149.02373450410934A170.6070045455344,170.6070045455344,0,0,0,-81.23556421656095,150.0251082533087Z" fill-rule="evenodd" style="fill: #D7A449; stroke: #fff; opacity: 1;" id="p-type-tokenTransfers"></path><path d="M-95.90743144267621,172.0777864631817A197,197,0,0,1,-97.99786212789942,170.895930373901L-84.86863811932584,148.00021710717493A170.6070045455344,170.6070045455344,0,0,0,-83.05827204107203,149.02373450410934Z" fill-rule="evenodd" style="fill: #D7A449; stroke: #fff; opacity: 1;" id="p-type-tokenTransfers"></path><path d="M-97.99786212789942,170.895930373901A197,197,0,0,1,-100.07373117201918,169.6886806163288L-86.66639344646326,146.9547081484048A170.6070045455344,170.6070045455344,0,0,0,-84.86863811932584,148.00021710717493Z" fill-rule="evenodd" style="fill: #D7A449; stroke: #fff; opacity: 1;" id="p-type-tokenTransfers"></path><path d="M-100.07373117201918,169.6886806163288A197,197,0,0,1,-102.13473011871463,168.45621657741614L-88.45127089147451,145.88736298145565A170.6070045455344,170.6070045455344,0,0,0,-86.66639344646326,146.9547081484048Z" fill-rule="evenodd" style="fill: #D7A449; stroke: #fff; opacity: 1;" id="p-type-tokenTransfers"></path><path d="M-102.13473011871463,168.45621657741614A197,197,0,0,1,-104.18055272123385,167.19872139073976L-90.22300523689253,144.79834020465725A170.6070045455344,170.6070045455344,0,0,0,-88.45127089147451,145.88736298145565Z" fill-rule="evenodd" style="fill: #D7A449; stroke: #fff; opacity: 1;" id="p-type-tokenTransfers"></path><path d="M-104.18055272123385,167.19872139073976A197,197,0,0,1,-106.21089498789932,165.91638190929015L-91.98133321820211,143.68780163744614A170.6070045455344,170.6070045455344,0,0,0,-90.22300523689253,144.79834020465725Z" fill-rule="evenodd" style="fill: #D7A449; stroke: #fff; opacity: 1;" id="p-type-tokenTransfers"></path><path d="M-106.21089498789932,165.91638190929015A197,197,0,0,1,-108.22545522727856,164.60938867770673L-93.7259935629586,142.55591229632057A170.6070045455344,170.6070045455344,0,0,0,-91.98133321820211,143.68780163744614Z" fill-rule="evenodd" style="fill: #D7A449; stroke: #fff; opacity: 1;" id="p-type-tokenTransfers"></path><path d="M-108.22545522727856,164.60938867770673A197,197,0,0,1,-110.22393409301294,163.2779359039645L-95.45672702961087,141.40284037032055A170.6070045455344,170.6070045455344,0,0,0,-93.7259935629586,142.55591229632057Z" fill-rule="evenodd" style="fill: #D7A449; stroke: #fff; opacity: 1;" id="p-type-tokenTransfers"></path><path d="M-110.22393409301294,163.2779359039645A197,197,0,0,1,-112.20603462829779,161.92222143051657L-97.1732764460223,140.22875719603638A170.6070045455344,170.6070045455344,0,0,0,-95.45672702961087,141.40284037032055Z" fill-rule="evenodd" style="fill: #D7A449; stroke: #fff; opacity: 1;" id="p-type-tokenTransfers"></path><path d="M-112.20603462829779,161.92222143051657A197,197,0,0,1,-114.17146231000784,160.54244670489626L-98.87538674768436,139.03383723214952A170.6070045455344,170.6070045455344,0,0,0,-97.1732764460223,140.22875719603638Z" fill-rule="evenodd" style="fill: #D7A449; stroke: #fff; opacity: 1;" id="p-type-tokenTransfers"></path><path d="M-114.17146231000784,160.54244670489626A197,197,0,0,1,-116.11992509246072,159.13881674978393L-100.56280501561706,137.8182580335094A170.6070045455344,170.6070045455344,0,0,0,-98.87538674768436,139.03383723214952Z" fill-rule="evenodd" style="fill: #D7A449; stroke: #fff; opacity: 1;" id="p-type-tokenTransfers"></path><path d="M-116.11992509246072,159.13881674978393A197,197,0,0,1,-118.05113345081249,157.71154013254218L-102.23528051395054,136.58220022475055A170.6070045455344,170.6070045455344,0,0,0,-100.56280501561706,137.8182580335094Z" fill-rule="evenodd" style="fill: #D7A449; stroke: #fff; opacity: 1;" id="p-type-tokenTransfers"></path><path d="M-118.05113345081249,157.71154013254218A197,197,0,0,1,-119.96480042407846,156.2608289342247L-103.89256472718215,135.32584747345302A170.6070045455344,170.6070045455344,0,0,0,-102.23528051395054,136.58220022475055Z" fill-rule="evenodd" style="fill: #D7A449; stroke: #fff; opacity: 1;" id="p-type-tokenTransfers"></path><path d="M-119.96480042407846,156.2608289342247A197,197,0,0,1,-121.86064165777321,154.78689871806267L-105.53441139710382,134.04938646285123A170.6070045455344,170.6070045455344,0,0,0,-103.89256472718215,135.32584747345302Z" fill-rule="evenodd" style="fill: #D7A449; stroke: #fff; opacity: 1;" id="p-type-tokenTransfers"></path><path d="M-121.86064165777321,154.78689871806267A197,197,0,0,1,-123.73837544616327,153.2899684974341L-107.16057655939402,132.75300686409423A170.6070045455344,170.6070045455344,0,0,0,-105.53441139710382,134.04938646285123Z" fill-rule="evenodd" style="fill: #D7A449; stroke: #fff; opacity: 1;" id="p-type-tokenTransfers"></path><path d="M-123.73837544616327,153.2899684974341A197,197,0,0,1,-125.59772277412603,151.77026070332022L-108.77081857986848,131.4369013080624A170.6070045455344,170.6070045455344,0,0,0,-107.16057655939402,132.75300686409423Z" fill-rule="evenodd" style="fill: #D7A449; stroke: #fff; opacity: 1;" id="p-type-tokenTransfers"></path><path d="M-125.59772277412603,151.77026070332022A197,197,0,0,1,-127.4384073586091,150.22800115125412L-110.36489819038522,130.10126535674397A170.6070045455344,170.6070045455344,0,0,0,-108.77081857986848,131.4369013080624Z" fill-rule="evenodd" style="fill: #D7A449; stroke: #fff; opacity: 1;" id="p-type-tokenTransfers"></path><path d="M-127.4384073586091,150.22800115125412A197,197,0,0,1,-129.26015568968356,148.66341900776655L-111.94257852439762,128.74629747417623A170.6070045455344,170.6070045455344,0,0,0,-110.36489819038522,130.10126535674397Z" fill-rule="evenodd" style="fill: #D7A449; stroke: #fff; opacity: 1;" id="p-type-tokenTransfers"></path><path d="M-129.26015568968356,148.66341900776655A197,197,0,0,1,-131.06269707118523,147.07674675633376L-113.50362515215075,127.37219899695558A170.6070045455344,170.6070045455344,0,0,0,-111.94257852439762,128.74629747417623Z" fill-rule="evenodd" style="fill: #D7A449; stroke: #fff; opacity: 1;" id="p-type-tokenTransfers"></path><path d="M-131.06269707118523,147.07674675633376A197,197,0,0,1,-132.84576366093773,145.46822016283238L-115.04780611551571,125.97917410432052A170.6070045455344,170.6070045455344,0,0,0,-113.50362515215075,127.37219899695558Z" fill-rule="evenodd" style="fill: #D7A449; stroke: #fff; opacity: 1;" id="p-type-tokenTransfers"></path><path d="M-132.84576366093773,145.46822016283238A197,197,0,0,1,-134.60909051055157,143.83807824050672L-116.57489196245646,124.5674297878125A170.6070045455344,170.6070045455344,0,0,0,-115.04780611551571,125.97917410432052Z" fill-rule="evenodd" style="fill: #D7A449; stroke: #fff; opacity: 1;" id="p-type-tokenTransfers"></path><path d="M-134.60909051055157,143.83807824050672A197,197,0,0,1,-136.35241560479324,142.18656321445334L-118.08465578112464,123.13717582051856A170.6070045455344,170.6070045455344,0,0,0,-116.57489196245646,124.5674297878125Z" fill-rule="evenodd" style="fill: #D7A449; stroke: #fff; opacity: 1;" id="p-type-tokenTransfers"></path><path d="M-136.35241560479324,142.18656321445334A197,197,0,0,1,-138.0754799005183,140.51392048562863L-119.5768732335765,121.68862472590105A170.6070045455344,170.6070045455344,0,0,0,-118.08465578112464,123.13717582051856Z" fill-rule="evenodd" style="fill: #D7A449; stroke: #fff; opacity: 1;" id="p-type-tokenTransfers"></path><path d="M-138.0754799005183,140.51392048562863A197,197,0,0,1,-139.77802736516313,138.8203985943842L-121.05132258910771,120.22199174621828A170.6070045455344,170.6070045455344,0,0,0,-119.5768732335765,121.68862472590105Z" fill-rule="evenodd" style="fill: #D7A449; stroke: #fff; opacity: 1;" id="p-type-tokenTransfers"></path><path d="M-139.77802736516313,138.8203985943842A197,197,0,0,1,-141.45980501478908,137.10624918353594L-122.50778475720067,118.73749481054158A170.6070045455344,170.6070045455344,0,0,0,-121.05132258910771,120.22199174621828Z" fill-rule="evenodd" style="fill: #D7A449; stroke: #fff; opacity: 1;" id="p-type-tokenTransfers"></path><path d="M-141.45980501478908,137.10624918353594A197,197,0,0,1,-143.1205629516737,135.3717269609722L-123.94604332007937,117.23535450237273A170.6070045455344,170.6070045455344,0,0,0,-122.50778475720067,118.73749481054158Z" fill-rule="evenodd" style="fill: #D7A449; stroke: #fff; opacity: 1;" id="p-type-tokenTransfers"></path><path d="M-143.1205629516737,135.3717269609722A197,197,0,0,1,-144.7600544014434,133.61708966180615L-125.36588456486733,115.71579402686721A170.6070045455344,170.6070045455344,0,0,0,-123.94604332007937,117.23535450237273Z" fill-rule="evenodd" style="fill: #D7A449; stroke: #fff; opacity: 1;" id="p-type-tokenTransfers"></path><path d="M-144.7600544014434,133.61708966180615A197,197,0,0,1,-146.3780357497421,131.84259801007875L-126.76709751534341,114.17903917766787A170.6070045455344,170.6070045455344,0,0,0,-125.36588456486733,115.71579402686721Z" fill-rule="evenodd" style="fill: #D7A449; stroke: #fff; opacity: 1;" id="p-type-tokenTransfers"></path><path d="M-146.3780357497421,131.84259801007875A197,197,0,0,1,-147.9742665784301,130.0485156800173L-128.1494739632911,112.62531830335386A170.6070045455344,170.6070045455344,0,0,0,-126.76709751534341,114.17903917766787Z" fill-rule="evenodd" style="fill: #D7A449; stroke: #fff; opacity: 1;" id="p-type-tokenTransfers"></path><path d="M-147.9742665784301,130.0485156800173A197,197,0,0,1,-149.54850970130823,128.2351092568557L-129.5128084994365,111.05486227351007A170.6070045455344,170.6070045455344,0,0,0,-128.1494739632911,112.62531830335386Z" fill-rule="evenodd" style="fill: #D7A449; stroke: #fff; opacity: 1;" id="p-type-tokenTransfers"></path><path d="M-149.54850970130823,128.2351092568557A197,197,0,0,1,-151.10053119936157,126.40264819722236L-130.85689854397026,109.46790444442185A170.6070045455344,170.6070045455344,0,0,0,-129.5128084994365,111.05486227351007Z" fill-rule="evenodd" style="fill: #D7A449; stroke: #fff; opacity: 1;" id="p-type-tokenTransfers"></path><path d="M-151.10053119936157,126.40264819722236A197,197,0,0,1,-152.63010045551806,124.5514047891009L-132.18154437664944,107.86468062440017A170.6070045455344,170.6070045455344,0,0,0,-130.85689854397026,109.46790444442185Z" fill-rule="evenodd" style="fill: #D7A449; stroke: #fff; opacity: 1;" id="p-type-tokenTransfers"></path><path d="M-152.63010045551806,124.5514047891009A197,197,0,0,1,-154.13699018891597,122.68165411137076L-133.48654916647402,106.2454290387427A170.6070045455344,170.6070045455344,0,0,0,-132.18154437664944,107.86468062440017Z" fill-rule="evenodd" style="fill: #D7A449; stroke: #fff; opacity: 1;" id="p-type-tokenTransfers"></path></g></svg>