<svg xmlns="http://www.w3.org/2000/svg" width="400" height="400" id="block-7907838"><g id="burst-container" transform="translate(200,200)"><circle r="197" style="fill: #f9f9f9; stroke: #f9f9f9; stroke-width: 3; opacity: 1;" id="circle-base"></circle><path display="none" d="M6.031385485800715e-15,-98.5A98.5,98.5,0,1,1,-6.031385485800715e-15,98.5A98.5,98.5,0,1,1,6.031385485800715e-15,-98.5Z" fill-rule="evenodd" id="p-type-root" style="stroke: #fff; opacity: 1;"></path><path d="M8.529667153919608e-15,-139.30003589374985A139.30003589374985,139.30003589374985,0,1,1,-124.3924634012082,-62.69780736978826L-87.95875439949376,-44.334044756705175A98.5,98.5,0,1,0,6.031385485800715e-15,-98.5Z" fill-rule="evenodd" style="fill: #0B1F65; stroke: #fff; opacity: 1;" id="p-type-data"></path><path d="M-124.3924634012082,-62.69780736978826A139.30003589374985,139.30003589374985,0,0,1,-11.814806515423642,-138.7980920149953L-8.354329805463063,-98.14507207955758A98.5,98.5,0,0,0,-87.95875439949376,-44.334044756705175Z" fill-rule="evenodd" style="fill: #D7A449; stroke: #fff; opacity: 1;" id="p-type-value"></path><path d="M1.0446666101440332e-14,-170.6070045455344A170.6070045455344,170.6070045455344,0,0,1,169.22098036462754,21.702760295279187L138.16835188895624,17.72022957778946A139.30003589374985,139.30003589374985,0,0,0,8.529667153919608e-15,-139.30003589374985Z" fill-rule="evenodd" style="fill: #1DC690; stroke: #fff; opacity: 1;" id="p-type-logs"></path><path d="M169.22098036462754,21.702760295279187A170.6070045455344,170.6070045455344,0,0,1,8.10495394546291,170.41437651073315L6.617667185047148,139.14275576194382A139.30003589374985,139.30003589374985,0,0,0,138.16835188895624,17.72022957778946Z" fill-rule="evenodd" style="fill: #D7A449; stroke: #fff; opacity: 1;" id="p-type-tokenTransfers"></path><path d="M8.10495394546291,170.41437651073315A170.6070045455344,170.6070045455344,0,0,1,-111.74547992234842,128.91740657073436L-91.23980229072535,105.26062168707416A139.30003589374985,139.30003589374985,0,0,0,6.617667185047148,139.14275576194382Z" fill-rule="evenodd" style="fill: #DB3F29; stroke: #fff; opacity: 1;" id="p-type-functions"></path><path d="M-111.74547992234842,128.91740657073436A170.6070045455344,170.6070045455344,0,0,1,-141.32605753546648,95.57036916054064L-115.39224277370346,78.03287965758201A139.30003589374985,139.30003589374985,0,0,0,-91.23980229072535,105.26062168707416Z" fill-rule="evenodd" style="fill: #414552; stroke: #fff; opacity: 1;" id="p-type-ether"></path><path d="M-152.3490315903957,-76.78881802364594A170.6070045455344,170.6070045455344,0,0,1,-63.61879489576667,-158.30160749660874L-51.94452851513575,-129.2527212763439A139.30003589374985,139.30003589374985,0,0,0,-124.3924634012082,-62.69780736978826Z" fill-rule="evenodd" style="fill: #D7A449; stroke: #fff; opacity: 1;" id="p-type-tokenTransfers"></path><path d="M-63.61879489576667,-158.30160749660874A170.6070045455344,170.6070045455344,0,0,1,-28.83596613577698,-168.1524220967879L-23.5444677576096,-137.29587771674312A139.30003589374985,139.30003589374985,0,0,0,-51.94452851513575,-129.2527212763439Z" fill-rule="evenodd" style="fill: #414552; stroke: #fff; opacity: 1;" id="p-type-ether"></path><path d="M1.206277097160143e-14,-197A197,197,0,0,1,8.361865840059652,-196.82245603505928L7.241588240528964,-170.45324696160714A170.6070045455344,170.6070045455344,0,0,0,1.0446666101440332e-14,-170.6070045455344Z" fill-rule="evenodd" style="fill: #1DC690; stroke: #fff; opacity: 1;" id="p-type-logs"></path><path d="M8.361865840059652,-196.82245603505928A197,197,0,0,1,16.708659610925928,-196.29014415911516L14.470123686248867,-169.9922513543034A170.6070045455344,170.6070045455344,0,0,0,7.241588240528964,-170.45324696160714Z" fill-rule="evenodd" style="fill: #1DC690; stroke: #fff; opacity: 1;" id="p-type-logs"></path><path d="M16.708659610925928,-196.29014415911516A197,197,0,0,1,25.02533641046054,-195.40402385197515L21.672577069710503,-169.22484865751088A170.6070045455344,170.6070045455344,0,0,0,14.470123686248867,-169.9922513543034Z" fill-rule="evenodd" style="fill: #1DC690; stroke: #fff; opacity: 1;" id="p-type-logs"></path><path d="M25.02533641046054,-195.40402385197515A197,197,0,0,1,33.29690562166739,-194.16569232493617L28.835966135776847,-168.15242209678792A170.6070045455344,170.6070045455344,0,0,0,21.672577069710503,-169.22484865751088Z" fill-rule="evenodd" style="fill: #1DC690; stroke: #fff; opacity: 1;" id="p-type-logs"></path><path d="M33.29690562166739,-194.16569232493617A197,197,0,0,1,41.50845793293179,-192.57738164184815L35.94737904183664,-166.77690469613148A170.6070045455344,170.6070045455344,0,0,0,28.835966135776847,-168.15242209678792Z" fill-rule="evenodd" style="fill: #1DC690; stroke: #fff; opacity: 1;" id="p-type-logs"></path><path d="M41.50845793293179,-192.57738164184815A197,197,0,0,1,49.645192211709,-190.64195469587082L42.99399763110136,-165.10077579374618A170.6070045455344,170.6070045455344,0,0,0,35.94737904183664,-166.77690469613148Z" fill-rule="evenodd" style="fill: #1DC690; stroke: #fff; opacity: 1;" id="p-type-logs"></path><path d="M49.645192211709,-190.64195469587082A197,197,0,0,1,57.692442183222184,-188.36290004917518L49.96312053703537,-163.1270565730948A170.6070045455344,170.6070045455344,0,0,0,42.99399763110136,-165.10077579374618Z" fill-rule="evenodd" style="fill: #1DC690; stroke: #fff; opacity: 1;" id="p-type-logs"></path><path d="M57.692442183222184,-188.36290004917518A197,197,0,0,1,65.63570286608231,-185.74432564489112L56.84218607727436,-160.8593046172851A170.6070045455344,170.6070045455344,0,0,0,49.96312053703537,-163.1270565730948Z" fill-rule="evenodd" style="fill: #1DC690; stroke: #fff; opacity: 1;" id="p-type-logs"></path><path d="M65.63570286608231,-185.74432564489112A197,197,0,0,1,73.46065671718085,-182.7909514026351L63.618794895766584,-158.30160749660877A170.6070045455344,170.6070045455344,0,0,0,56.84218607727436,-160.8593046172851Z" fill-rule="evenodd" style="fill: #1DC690; stroke: #fff; opacity: 1;" id="p-type-logs"></path><path d="M73.46065671718085,-182.7909514026351A197,197,0,0,1,81.15319943872898,-179.5081007109648L70.28073231232433,-155.45857540079098A170.6070045455344,170.6070045455344,0,0,0,63.618794895766584,-158.30160749660877Z" fill-rule="evenodd" style="fill: #1DC690; stroke: #fff; opacity: 1;" id="p-type-logs"></path><path d="M81.15319943872898,-179.5081007109648A197,197,0,0,1,88.69946540092707,-175.90169083209446L76.8159903393017,-152.33533282923008A170.6070045455344,170.6070045455344,0,0,0,70.28073231232433,-155.45857540079098Z" fill-rule="evenodd" style="fill: #1DC690; stroke: #fff; opacity: 1;" id="p-type-logs"></path><path d="M88.69946540092707,-175.90169083209446A197,197,0,0,1,96.08585263444087,-171.9782222361672L83.21278932571373,-148.9375093542066A170.6070045455344,170.6070045455344,0,0,0,76.8159903393017,-152.33533282923008Z" fill-rule="evenodd" style="fill: #1DC690; stroke: #fff; opacity: 1;" id="p-type-logs"></path><path d="M96.08585263444087,-171.9782222361672A197,197,0,0,1,103.29904734763561,-167.74476688430832L89.45959918978397,-145.27122947370964A170.6070045455344,170.6070045455344,0,0,0,83.21278932571373,-148.9375093542066Z" fill-rule="evenodd" style="fill: #1DC690; stroke: #fff; opacity: 1;" id="p-type-logs"></path><path d="M103.29904734763561,-167.74476688430832A197,197,0,0,1,110.32604792437658,-163.20895548157938L95.54516020164957,-141.34310157217126A170.6070045455344,170.6070045455344,0,0,0,89.45959918978397,-145.27122947370964Z" fill-rule="evenodd" style="fill: #1DC690; stroke: #fff; opacity: 1;" id="p-type-logs"></path><path d="M110.32604792437658,-163.20895548157938A197,197,0,0,1,117.15418835914053,-158.37896372280952L101.45850327876286,-137.16020600900708A170.6070045455344,170.6070045455344,0,0,0,95.54516020164957,-141.34310157217126Z" fill-rule="evenodd" style="fill: #1DC690; stroke: #fff; opacity: 1;" id="p-type-logs"></path><path d="M117.15418835914053,-158.37896372280952A197,197,0,0,1,123.77116108719693,-153.26349755609502L107.18896975740853,-132.73008235643252A170.6070045455344,170.6070045455344,0,0,0,101.45850327876286,-137.16020600900708Z" fill-rule="evenodd" style="fill: #1DC690; stroke: #fff; opacity: 1;" id="p-type-logs"></path><path d="M123.77116108719693,-153.26349755609502A197,197,0,0,1,130.1650391687078,-147.87177749052984L112.72623060469745,-128.06071580955876A170.6070045455344,170.6070045455344,0,0,0,107.18896975740853,-132.73008235643252Z" fill-rule="evenodd" style="fill: #1DC690; stroke: #fff; opacity: 1;" id="p-type-logs"></path><path d="M130.1650391687078,-147.87177749052984A197,197,0,0,1,136.32429778676,-142.21352197645194L118.06030503640888,-123.16052279326394A170.6070045455344,170.6070045455344,0,0,0,112.72623060469745,-128.06071580955876Z" fill-rule="evenodd" style="fill: #1DC690; stroke: #fff; opacity: 1;" id="p-type-logs"></path><path d="M136.32429778676,-142.21352197645194A197,197,0,0,1,142.23783502058055,-136.29892988816204L123.18157850712262,-118.03833579178243A170.6070045455344,170.6070045455344,0,0,0,118.06030503640888,-123.16052279326394Z" fill-rule="evenodd" style="fill: #1DC690; stroke: #fff; opacity: 1;" id="p-type-logs"></path><path d="M142.23783502058055,-136.29892988816204A197,197,0,0,1,147.89499185649103,-130.1386621406892L128.08082004021392,-112.70338742835699A170.6070045455344,170.6070045455344,0,0,0,123.18157850712262,-118.03833579178243Z" fill-rule="evenodd" style="fill: #1DC690; stroke: #fff; opacity: 1;" id="p-type-logs"></path><path d="M195.39955713210017,25.06018899727472A197,197,0,0,1,194.15975027706136,33.33153720351305L168.14727613237784,28.865957965428425A170.6070045455344,170.6070045455344,0,0,0,169.22098036462754,21.702760295279187Z" fill-rule="evenodd" style="fill: #D7A449; stroke: #fff; opacity: 1;" id="p-type-tokenTransfers"></path><path d="M194.15975027706136,33.33153720351305A197,197,0,0,1,192.56997497637698,41.54280608718609L166.77049033567613,35.97712541599397A170.6070045455344,170.6070045455344,0,0,0,168.14727613237784,28.865957965428425Z" fill-rule="evenodd" style="fill: #D7A449; stroke: #fff; opacity: 1;" id="p-type-tokenTransfers"></path><path d="M192.56997497637698,41.54280608718609A197,197,0,0,1,190.633096763146,49.679195026620725L165.09310459898145,43.023444932615085A170.6070045455344,170.6070045455344,0,0,0,166.77049033567613,35.97712541599397Z" fill-rule="evenodd" style="fill: #D7A449; stroke: #fff; opacity: 1;" id="p-type-tokenTransfers"></path><path d="M190.633096763146,49.679195026620725A197,197,0,0,1,188.35260681541496,57.726038369506234L163.11814237117133,49.99221568782763A170.6070045455344,170.6070045455344,0,0,0,165.09310459898145,43.023444932615085Z" fill-rule="evenodd" style="fill: #D7A449; stroke: #fff; opacity: 1;" id="p-type-tokenTransfers"></path><path d="M188.35260681541496,57.726038369506234A197,197,0,0,1,185.7326156634105,65.66883186739233L160.84916347584505,56.870876634010855A170.6070045455344,170.6070045455344,0,0,0,163.11814237117133,49.99221568782763Z" fill-rule="evenodd" style="fill: #D7A449; stroke: #fff; opacity: 1;" id="p-type-tokenTransfers"></path><path d="M185.7326156634105,65.66883186739233A197,197,0,0,1,182.7778457804041,73.49325881926053L158.2902576948243,63.647029144384355A170.6070045455344,170.6070045455344,0,0,0,160.84916347584505,56.870876634010855Z" fill-rule="evenodd" style="fill: #D7A449; stroke: #fff; opacity: 1;" id="p-type-tokenTransfers"></path><path d="M182.7778457804041,73.49325881926053A197,197,0,0,1,179.49362307056342,81.18521587704564L155.44603739641653,70.30845936124526A170.6070045455344,170.6070045455344,0,0,0,158.2902576948243,63.647029144384355Z" fill-rule="evenodd" style="fill: #D7A449; stroke: #fff; opacity: 1;" id="p-type-tokenTransfers"></path><path d="M179.49362307056342,81.18521587704564A197,197,0,0,1,175.88586726913368,88.73083846659338L152.32162922172768,76.84316021116332A170.6070045455344,170.6070045455344,0,0,0,155.44603739641653,70.30845936124526Z" fill-rule="evenodd" style="fill: #D7A449; stroke: #fff; opacity: 1;" id="p-type-tokenTransfers"></path><path d="M175.88586726913368,88.73083846659338A197,197,0,0,1,171.9610812722522,96.11652577823378L148.92266484401088,83.23935304745231A170.6070045455344,170.6070045455344,0,0,0,152.32162922172768,76.84316021116332Z" fill-rule="evenodd" style="fill: #D7A449; stroke: #fff; opacity: 1;" id="p-type-tokenTransfers"></path><path d="M171.9610812722522,96.11652577823378A197,197,0,0,1,167.72633941562887,103.32896528192501L145.2552708177058,89.48550888090735A170.6070045455344,170.6070045455344,0,0,0,148.92266484401088,83.23935304745231Z" fill-rule="evenodd" style="fill: #D7A449; stroke: #fff; opacity: 1;" id="p-type-tokenTransfers"></path><path d="M167.72633941562887,103.32896528192501A197,197,0,0,1,163.18927472322034,110.35515672277992L141.32605753546656,95.5703691605405A170.6070045455344,170.6070045455344,0,0,0,145.2552708177058,89.48550888090735Z" fill-rule="evenodd" style="fill: #D7A449; stroke: #fff; opacity: 1;" id="p-type-tokenTransfers"></path><path d="M163.18927472322034,110.35515672277992A197,197,0,0,1,158.35806514888122,117.18243555372403L137.1421073130823,101.48296606685781A170.6070045455344,170.6070045455344,0,0,0,141.32605753546656,95.5703691605405Z" fill-rule="evenodd" style="fill: #D7A449; stroke: #fff; opacity: 1;" id="p-type-tokenTransfers"></path><path d="M158.35806514888122,117.18243555372403A197,197,0,0,1,153.24141883579216,123.79849576304764L132.7109616237672,107.21264228109945A170.6070045455344,170.6070045455344,0,0,0,137.1421073130823,101.48296606685781Z" fill-rule="evenodd" style="fill: #D7A449; stroke: #fff; opacity: 1;" id="p-type-tokenTransfers"></path><path d="M153.24141883579216,123.79849576304764A197,197,0,0,1,147.84855842023356,130.1914120557066L128.04060750482995,112.74907019480953A170.6070045455344,170.6070045455344,0,0,0,132.7109616237672,107.21264228109945Z" fill-rule="evenodd" style="fill: #D7A449; stroke: #fff; opacity: 1;" id="p-type-tokenTransfers"></path><path d="M147.84855842023356,130.1914120557066A197,197,0,0,1,142.18920440799783,136.3496613483899L123.13946316122441,118.08227052511081A170.6070045455344,170.6070045455344,0,0,0,128.04060750482995,112.74907019480953Z" fill-rule="evenodd" style="fill: #D7A449; stroke: #fff; opacity: 1;" id="p-type-tokenTransfers"></path><path d="M142.18920440799783,136.3496613483899A197,197,0,0,1,137.1030301559268,141.46292490282752L118.73470705085657,122.51048665949894A170.6070045455344,170.6070045455344,0,0,0,123.13946316122441,118.08227052511081Z" fill-rule="evenodd" style="fill: #D7A449; stroke: #fff; opacity: 1;" id="p-type-tokenTransfers"></path><path d="M9.35879468436506,196.77757230450806A197,197,0,0,1,0.9979355094500347,196.99747238154853L0.8642375025222957,170.60481556374438A170.6070045455344,170.6070045455344,0,0,0,8.10495394546291,170.41437651073315Z" fill-rule="evenodd" style="fill: #DB3F29; stroke: #fff; opacity: 1;" id="p-type-functions"></path><path d="M0.9979355094500347,196.99747238154853A197,197,0,0,1,-7.3647224210700974,196.8622890846812L-6.37803670846754,170.4877433944899A170.6070045455344,170.6070045455344,0,0,0,0.8642375025222957,170.60481556374438Z" fill-rule="evenodd" style="fill: #DB3F29; stroke: #fff; opacity: 1;" id="p-type-functions"></path><path d="M-7.3647224210700974,196.8622890846812A197,197,0,0,1,-15.714105610277288,196.3722660786626L-13.6088146562517,170.063371022839A170.6070045455344,170.6070045455344,0,0,0,-6.37803670846754,170.4877433944899Z" fill-rule="evenodd" style="fill: #DB3F29; stroke: #fff; opacity: 1;" id="p-type-functions"></path><path d="M-15.714105610277288,196.3722660786626A197,197,0,0,1,-24.03516448866676,195.5282866185932L-20.815063031323028,169.33246337014663A170.6070045455344,170.6070045455344,0,0,0,-13.6088146562517,170.063371022839Z" fill-rule="evenodd" style="fill: #DB3F29; stroke: #fff; opacity: 1;" id="p-type-functions"></path><path d="M-24.03516448866676,195.5282866185932A197,197,0,0,1,-32.312900540646886,194.33187195787073L-27.983792738160123,168.29633788050083A170.6070045455344,170.6070045455344,0,0,0,-20.815063031323028,169.33246337014663Z" fill-rule="evenodd" style="fill: #DB3F29; stroke: #fff; opacity: 1;" id="p-type-functions"></path><path d="M-32.312900540646886,194.33187195787073A197,197,0,0,1,-40.53239333901562,192.785178606166L-35.102082307770694,166.95686214606002A170.6070045455344,170.6070045455344,0,0,0,-27.983792738160123,168.29633788050083Z" fill-rule="evenodd" style="fill: #DB3F29; stroke: #fff; opacity: 1;" id="p-type-functions"></path><path d="M-40.53239333901562,192.785178606166A197,197,0,0,1,-48.6788274386844,190.89099444236436L-42.15710118833967,165.31645054076162A170.6070045455344,170.6070045455344,0,0,0,-35.102082307770694,166.95686214606002Z" fill-rule="evenodd" style="fill: #DB3F29; stroke: #fff; opacity: 1;" id="p-type-functions"></path><path d="M-48.6788274386844,190.89099444236436A197,197,0,0,1,-55.633503111553225,188.98125126989925L-48.180026996125704,163.66256443870296A170.6070045455344,170.6070045455344,0,0,0,-42.15710118833967,165.31645054076162Z" fill-rule="evenodd" style="fill: #DB3F29; stroke: #fff; opacity: 1;" id="p-type-functions"></path><path d="M-129.03256582778357,148.86099877368383A197,197,0,0,1,-134.39494450816713,144.0381855295556L-116.38943608427265,124.74072778361128A170.6070045455344,170.6070045455344,0,0,0,-111.74547992234842,128.91740657073436Z" fill-rule="evenodd" style="fill: #414552; stroke: #fff; opacity: 1;" id="p-type-ether"></path><path d="M-134.39494450816713,144.0381855295556A197,197,0,0,1,-135.78166752886256,142.73170202544856L-117.59037344820759,123.60927987942927A170.6070045455344,170.6070045455344,0,0,0,-116.38943608427265,124.74072778361128Z" fill-rule="evenodd" style="fill: #414552; stroke: #fff; opacity: 1;" id="p-type-ether"></path></g></svg>