<svg xmlns="http://www.w3.org/2000/svg" width="400" height="400" id="block-7907935"><g id="burst-container" transform="translate(200,200)"><circle r="197" style="fill: #f9f9f9; stroke: #f9f9f9; stroke-width: 3; opacity: 1;" id="circle-base"></circle><path display="none" d="M6.031385485800715e-15,-98.5A98.5,98.5,0,1,1,-6.031385485800715e-15,98.5A98.5,98.5,0,1,1,6.031385485800715e-15,-98.5Z" fill-rule="evenodd" id="p-type-root" style="stroke: #fff; opacity: 1;"></path><path d="M8.529667153919608e-15,-139.30003589374985A139.30003589374985,139.30003589374985,0,1,1,-113.17085294155794,-81.22104434492495L-80.02387754764116,-57.43195123134972A98.5,98.5,0,1,0,6.031385485800715e-15,-98.5Z" fill-rule="evenodd" style="fill: #0B1F65; stroke: #fff; opacity: 1;" id="p-type-data"></path><path d="M-113.17085294155794,-81.22104434492495A139.30003589374985,139.30003589374985,0,0,1,-8.800678131666132,-139.02175392514226L-6.223019185941277,-98.30322493291564A98.5,98.5,0,0,0,-80.02387754764116,-57.43195123134972Z" fill-rule="evenodd" style="fill: #D7A449; stroke: #fff; opacity: 1;" id="p-type-value"></path><path d="M1.0446666101440332e-14,-170.6070045455344A170.6070045455344,170.6070045455344,0,0,1,170.59399614536474,-2.106769839178802L139.28941457948798,-1.720170370491147A139.30003589374985,139.30003589374985,0,0,0,8.529667153919608e-15,-139.30003589374985Z" fill-rule="evenodd" style="fill: #DB3F29; stroke: #fff; opacity: 1;" id="p-type-functions"></path><path d="M170.59399614536474,-2.106769839178802A170.6070045455344,170.6070045455344,0,0,1,32.606922056219254,167.4620513251275L26.623440373479877,136.73219234210998A139.30003589374985,139.30003589374985,0,0,0,139.28941457948798,-1.720170370491147Z" fill-rule="evenodd" style="fill: #1DC690; stroke: #fff; opacity: 1;" id="p-type-logs"></path><path d="M32.606922056219254,167.4620513251275A170.6070045455344,170.6070045455344,0,0,1,-124.64699775477513,116.48981050169617L-101.77384748967984,95.11353198755363A139.30003589374985,139.30003589374985,0,0,0,26.623440373479877,136.73219234210998Z" fill-rule="evenodd" style="fill: #D7A449; stroke: #fff; opacity: 1;" id="p-type-tokenTransfers"></path><path d="M-124.64699775477513,116.48981050169617A170.6070045455344,170.6070045455344,0,0,1,-155.7353343596813,69.66531153937568L-127.157368034316,56.881488681165095A139.30003589374985,139.30003589374985,0,0,0,-101.77384748967984,95.11353198755363Z" fill-rule="evenodd" style="fill: #414552; stroke: #fff; opacity: 1;" id="p-type-ether"></path><path d="M-138.60542173118483,-99.47505751051567A170.6070045455344,170.6070045455344,0,0,1,-73.06004914920345,-154.1719144926078L-59.65328033273624,-125.880841058296A139.30003589374985,139.30003589374985,0,0,0,-113.17085294155794,-81.22104434492495Z" fill-rule="evenodd" style="fill: #D7A449; stroke: #fff; opacity: 1;" id="p-type-tokenTransfers"></path><path d="M-73.06004914920345,-154.1719144926078A170.6070045455344,170.6070045455344,0,0,1,-21.514105699012767,-169.24506863117668L-17.566193744961627,-138.18801987623408A139.30003589374985,139.30003589374985,0,0,0,-59.65328033273624,-125.880841058296Z" fill-rule="evenodd" style="fill: #414552; stroke: #fff; opacity: 1;" id="p-type-ether"></path><path d="M1.206277097160143e-14,-197A197,197,0,0,1,6.2261294730850345,-196.9015878853809L5.391986290942661,-170.52177715423414A170.6070045455344,170.6070045455344,0,0,0,1.0446666101440332e-14,-170.6070045455344Z" fill-rule="evenodd" style="fill: #DB3F29; stroke: #fff; opacity: 1;" id="p-type-functions"></path><path d="M6.2261294730850345,-196.9015878853809A197,197,0,0,1,12.446038371882358,-196.6064498658313L10.778585406526036,-170.26618013168155A170.6070045455344,170.6070045455344,0,0,0,5.391986290942661,-170.52177715423414Z" fill-rule="evenodd" style="fill: #DB3F29; stroke: #fff; opacity: 1;" id="p-type-functions"></path><path d="M12.446038371882358,-196.6064498658313A197,197,0,0,1,18.653512337128333,-196.11488081603753L16.154415553759573,-169.84046884684594A170.6070045455344,170.6070045455344,0,0,0,10.778585406526036,-170.26618013168155Z" fill-rule="evenodd" style="fill: #DB3F29; stroke: #fff; opacity: 1;" id="p-type-functions"></path><path d="M18.653512337128333,-196.11488081603753A197,197,0,0,1,24.84234943339797,-195.42737186645311L21.514105699012596,-169.2450686311767A170.6070045455344,170.6070045455344,0,0,0,16.154415553759573,-169.84046884684594Z" fill-rule="evenodd" style="fill: #DB3F29; stroke: #fff; opacity: 1;" id="p-type-functions"></path><path d="M24.84234943339797,-195.42737186645311A197,197,0,0,1,31.006366345506716,-194.5446099126065L26.85230093425568,-168.48057435365115A170.6070045455344,170.6070045455344,0,0,0,21.514105699012596,-169.2450686311767Z" fill-rule="evenodd" style="fill: #DB3F29; stroke: #fff; opacity: 1;" id="p-type-functions"></path><path d="M31.006366345506716,-194.5446099126065A197,197,0,0,1,37.13940455630871,-193.4674769288183L32.16366782719087,-167.54774982643642A170.6070045455344,170.6070045455344,0,0,0,26.85230093425568,-168.48057435365115Z" fill-rule="evenodd" style="fill: #DB3F29; stroke: #fff; opacity: 1;" id="p-type-functions"></path><path d="M37.13940455630871,-193.4674769288183A197,197,0,0,1,43.235336499719025,-192.197049087014L37.442899749925246,-166.44752704175886A170.6070045455344,170.6070045455344,0,0,0,32.16366782719087,-167.54774982643642Z" fill-rule="evenodd" style="fill: #DB3F29; stroke: #fff; opacity: 1;" id="p-type-functions"></path><path d="M43.235336499719025,-192.197049087014A197,197,0,0,1,49.28807168281253,-190.73459568151222L42.68472218086408,-165.18100524074325A170.6070045455344,170.6070045455344,0,0,0,37.442899749925246,-166.44752704175886Z" fill-rule="evenodd" style="fill: #DB3F29; stroke: #fff; opacity: 1;" id="p-type-functions"></path><path d="M49.28807168281253,-190.73459568151222A197,197,0,0,1,55.29156277088266,-189.08157786086284L47.88389797452629,-163.7494498151525A170.6070045455344,170.6070045455344,0,0,0,42.68472218086408,-165.18100524074325Z" fill-rule="evenodd" style="fill: #DB3F29; stroke: #fff; opacity: 1;" id="p-type-functions"></path><path d="M55.29156277088266,-189.08157786086284A197,197,0,0,1,61.23981162938044,-187.23964716800234L53.03523259401716,-162.15429104312503A170.6070045455344,170.6070045455344,0,0,0,47.88389797452629,-163.7494498151525Z" fill-rule="evenodd" style="fill: #DB3F29; stroke: #fff; opacity: 1;" id="p-type-functions"></path><path d="M61.23981162938044,-187.23964716800234A197,197,0,0,1,67.12687531669728,-185.21064389018406L58.13357930093043,-160.39712266017253A170.6070045455344,170.6070045455344,0,0,0,53.03523259401716,-162.15429104312503Z" fill-rule="evenodd" style="fill: #DB3F29; stroke: #fff; opacity: 1;" id="p-type-functions"></path><path d="M67.12687531669728,-185.21064389018406A197,197,0,0,1,72.94687202180408,-182.99659522033335L63.173844297494654,-158.47970026686667A170.6070045455344,170.6070045455344,0,0,0,58.13357930093043,-160.39712266017253Z" fill-rule="evenodd" style="fill: #DB3F29; stroke: #fff; opacity: 1;" id="p-type-functions"></path><path d="M72.94687202180408,-182.99659522033335A197,197,0,0,1,78.69398694081431,-180.59971323166312L68.15099181582605,-156.40393957480487A170.6070045455344,170.6070045455344,0,0,0,63.173844297494654,-158.47970026686667Z" fill-rule="evenodd" style="fill: #DB3F29; stroke: #fff; opacity: 1;" id="p-type-functions"></path><path d="M78.69398694081431,-180.59971323166312A197,197,0,0,1,84.36247808659962,-178.02239266757425L73.0600491492033,-154.17191449260787A170.6070045455344,170.6070045455344,0,0,0,68.15099181582605,-156.40393957480487Z" fill-rule="evenodd" style="fill: #DB3F29; stroke: #fff; opacity: 1;" id="p-type-functions"></path><path d="M84.36247808659962,-178.02239266757425A197,197,0,0,1,89.9466820256539,-175.26720854904923L77.89611162033742,-151.78585505386175A170.6070045455344,170.6070045455344,0,0,0,73.0600491492033,-154.17191449260787Z" fill-rule="evenodd" style="fill: #DB3F29; stroke: #fff; opacity: 1;" id="p-type-functions"></path><path d="M89.9466820256539,-175.26720854904923A197,197,0,0,1,95.44101953647349,-172.33691360192827L82.65434748167294,-149.24814518907385A170.6070045455344,170.6070045455344,0,0,0,77.89611162033742,-151.78585505386175Z" fill-rule="evenodd" style="fill: #DB3F29; stroke: #fff; opacity: 1;" id="p-type-functions"></path><path d="M95.44101953647349,-172.33691360192827A197,197,0,0,1,100.84000118380082,-169.23443550663987L87.33000274282438,-146.5613203438693A170.6070045455344,170.6070045455344,0,0,0,82.65434748167294,-149.24814518907385Z" fill-rule="evenodd" style="fill: #DB3F29; stroke: #fff; opacity: 1;" id="p-type-functions"></path><path d="M100.84000118380082,-169.23443550663987A197,197,0,0,1,106.13823280316178,-165.96287397313242L91.91840592032493,-143.72806494580792A170.6070045455344,170.6070045455344,0,0,0,87.33000274282438,-146.5613203438693Z" fill-rule="evenodd" style="fill: #DB3F29; stroke: #fff; opacity: 1;" id="p-type-functions"></path><path d="M106.13823280316178,-165.96287397313242A197,197,0,0,1,111.33042089021724,-162.52549764392995L96.41497270494189,-140.75120972235126A170.6070045455344,170.6070045455344,0,0,0,91.91840592032493,-143.72806494580792Z" fill-rule="evenodd" style="fill: #DB3F29; stroke: #fff; opacity: 1;" id="p-type-functions"></path><path d="M111.33042089021724,-162.52549764392995A197,197,0,0,1,116.41137788954435,-158.9257408284061L100.81521054189552,-137.63372887266144A170.6070045455344,170.6070045455344,0,0,0,96.41497270494189,-140.75120972235126Z" fill-rule="evenodd" style="fill: #DB3F29; stroke: #fff; opacity: 1;" id="p-type-functions"></path><path d="M116.41137788954435,-158.9257408284061A197,197,0,0,1,121.37602737756355,-155.1672000715388L105.11472311940555,-134.37873709605515A170.6070045455344,170.6070045455344,0,0,0,100.81521054189552,-137.63372887266144Z" fill-rule="evenodd" style="fill: #DB3F29; stroke: #fff; opacity: 1;" id="p-type-functions"></path><path d="M121.37602737756355,-155.1672000715388A197,197,0,0,1,126.21940913443255,-151.25363056057438L109.30921476108021,-130.98948648008374A170.6070045455344,170.6070045455344,0,0,0,105.11472311940555,-134.37873709605515Z" fill-rule="evenodd" style="fill: #DB3F29; stroke: #fff; opacity: 1;" id="p-type-functions"></path><path d="M126.21940913443255,-151.25363056057438A197,197,0,0,1,130.93668409984076,-147.18894237319088L113.39449471776007,-127.4693632513471A170.6070045455344,170.6070045455344,0,0,0,109.30921476108021,-130.98948648008374Z" fill-rule="evenodd" style="fill: #DB3F29; stroke: #fff; opacity: 1;" id="p-type-functions"></path><path d="M130.93668409984076,-147.18894237319088A197,197,0,0,1,131.86458925716104,-146.35822525584342L114.19808415630204,-126.74994112436563A170.6070045455344,170.6070045455344,0,0,0,113.39449471776007,-127.4693632513471Z" fill-rule="evenodd" style="fill: #DB3F29; stroke: #fff; opacity: 1;" id="p-type-functions"></path><path d="M196.98497919332064,-2.432688267540932A197,197,0,0,1,196.96345900941583,3.794181736048872L170.5753591194091,3.285857769993267A170.6070045455344,170.6070045455344,0,0,0,170.59399614536474,-2.106769839178802Z" fill-rule="evenodd" style="fill: #1DC690; stroke: #fff; opacity: 1;" id="p-type-logs"></path><path d="M196.96345900941583,3.794181736048872A197,197,0,0,1,196.74515110466018,10.017260943213358L170.38629892804371,8.675202453160436A170.6070045455344,170.6070045455344,0,0,0,170.5753591194091,3.285857769993267Z" fill-rule="evenodd" style="fill: #1DC690; stroke: #fff; opacity: 1;" id="p-type-logs"></path><path d="M196.74515110466018,10.017260943213358A197,197,0,0,1,196.33027359217598,16.230331827209188L170.02700446277353,14.055879674214262A170.6070045455344,170.6070045455344,0,0,0,170.38629892804371,8.675202453160436Z" fill-rule="evenodd" style="fill: #1DC690; stroke: #fff; opacity: 1;" id="p-type-logs"></path><path d="M196.33027359217598,16.230331827209188A197,197,0,0,1,195.7192409793065,22.427186860686387L169.49783469748778,19.422513556774984A170.6070045455344,170.6070045455344,0,0,0,170.02700446277353,14.055879674214262Z" fill-rule="evenodd" style="fill: #1DC690; stroke: #fff; opacity: 1;" id="p-type-logs"></path><path d="M195.7192409793065,22.427186860686387A197,197,0,0,1,194.91266375347848,28.60163471767711L168.7993183298067,24.76974225527134A170.6070045455344,170.6070045455344,0,0,0,169.49783469748778,19.422513556774984Z" fill-rule="evenodd" style="fill: #1DC690; stroke: #fff; opacity: 1;" id="p-type-logs"></path><path d="M194.91266375347848,28.60163471767711A197,197,0,0,1,193.9113477722594,34.747506459397485L167.93215325285564,30.092223312002098A170.6070045455344,170.6070045455344,0,0,0,168.7993183298067,24.76974225527134Z" fill-rule="evenodd" style="fill: #1DC690; stroke: #fff; opacity: 1;" id="p-type-logs"></path><path d="M193.9113477722594,34.747506459397485A197,197,0,0,1,192.71629345821893,40.85866169768222L166.89720585799444,35.38463899482703A170.6070045455344,170.6070045455344,0,0,0,167.93215325285564,30.092223312002098Z" fill-rule="evenodd" style="fill: #1DC690; stroke: #fff; opacity: 1;" id="p-type-logs"></path><path d="M192.71629345821893,40.85866169768222A197,197,0,0,1,191.328694799399,46.92899472989413L165.69551016919914,40.64170161015435A170.6070045455344,170.6070045455344,0,0,0,166.89720585799444,35.38463899482703Z" fill-rule="evenodd" style="fill: #1DC690; stroke: #fff; opacity: 1;" id="p-type-logs"></path><path d="M191.328694799399,46.92899472989413A197,197,0,0,1,189.74993815639107,52.952440639178946L164.32826680996084,45.858158785916466A170.6070045455344,170.6070045455344,0,0,0,165.69551016919914,40.64170161015435Z" fill-rule="evenodd" style="fill: #1DC690; stroke: #fff; opacity: 1;" id="p-type-logs"></path><path d="M189.74993815639107,52.952440639178946A197,197,0,0,1,187.98160087721243,58.92298135397095L162.7968418037331,51.02879871925564A170.6070045455344,170.6070045455344,0,0,0,164.32826680996084,45.858158785916466Z" fill-rule="evenodd" style="fill: #1DC690; stroke: #fff; opacity: 1;" id="p-type-logs"></path><path d="M187.98160087721243,58.92298135397095A197,197,0,0,1,186.0254497213657,64.83465166069486L161.1027652091275,56.14845538367669A170.6070045455344,170.6070045455344,0,0,0,162.7968418037331,51.02879871925564Z" fill-rule="evenodd" style="fill: #1DC690; stroke: #fff; opacity: 1;" id="p-type-logs"></path><path d="M186.0254497213657,64.83465166069486A197,197,0,0,1,183.88343909465556,70.68154516365715L159.2477295912203,61.21201369046422A170.6070045455344,170.6070045455344,0,0,0,161.1027652091275,56.14845538367669Z" fill-rule="evenodd" style="fill: #1DC690; stroke: #fff; opacity: 1;" id="p-type-logs"></path><path d="M183.88343909465556,70.68154516365715A197,197,0,0,1,181.55770909652674,76.45782018617172L157.2335883304972,66.21441459920736A170.6070045455344,170.6070045455344,0,0,0,159.2477295912203,61.21201369046422Z" fill-rule="evenodd" style="fill: #1DC690; stroke: #fff; opacity: 1;" id="p-type-logs"></path><path d="M181.55770909652674,76.45782018617172A197,197,0,0,1,179.05058338187422,82.15770560702452L155.0623537711269,71.15066017232644A170.6070045455344,170.6070045455344,0,0,0,157.2335883304972,66.21441459920736Z" fill-rule="evenodd" style="fill: #1DC690; stroke: #fff; opacity: 1;" id="p-type-logs"></path><path d="M179.05058338187422,82.15770560702452A197,197,0,0,1,176.3645668394614,87.7755066264454L152.73619521041215,76.01581856855105A170.6070045455344,170.6070045455344,0,0,0,155.0623537711269,71.15066017232644Z" fill-rule="evenodd" style="fill: #1DC690; stroke: #fff; opacity: 1;" id="p-type-logs"></path><path d="M176.3645668394614,87.7755066264454A197,197,0,0,1,173.5023430892663,93.305610455827L150.25743673142804,80.8050289703611A170.6070045455344,170.6070045455344,0,0,0,152.73619521041215,76.01581856855105Z" fill-rule="evenodd" style="fill: #1DC690; stroke: #fff; opacity: 1;" id="p-type-logs"></path><path d="M173.5023430892663,93.305610455827A197,197,0,0,1,170.46677180125616,98.7424919255052L147.62855488101263,85.51350644046732A170.6070045455344,170.6070045455344,0,0,0,150.25743673142804,80.8050289703611Z" fill-rule="evenodd" style="fill: #1DC690; stroke: #fff; opacity: 1;" id="p-type-logs"></path><path d="M170.46677180125616,98.7424919255052A197,197,0,0,1,167.26088583826885,104.08071900499918L144.85217619542965,90.13654670247911A170.6070045455344,170.6070045455344,0,0,0,147.62855488101263,85.51350644046732Z" fill-rule="evenodd" style="fill: #1DC690; stroke: #fff; opacity: 1;" id="p-type-logs"></path><path d="M167.26088583826885,104.08071900499918A197,197,0,0,1,163.88788822585607,109.31495823019512L141.93107457617597,94.66953084098377A170.6070045455344,170.6070045455344,0,0,0,144.85217619542965,90.13654670247911Z" fill-rule="evenodd" style="fill: #1DC690; stroke: #fff; opacity: 1;" id="p-type-logs"></path><path d="M163.88788822585607,109.31495823019512A197,197,0,0,1,160.3511489521158,114.43998003205162L138.86816851855474,99.1079299163406A170.6070045455344,170.6070045455344,0,0,0,141.93107457617597,94.66953084098377Z" fill-rule="evenodd" style="fill: #1DC690; stroke: #fff; opacity: 1;" id="p-type-logs"></path><path d="M160.3511489521158,114.43998003205162A197,197,0,0,1,156.65420160071073,119.45066396150287L135.66651819578436,103.44730948957982A170.6070045455344,170.6070045455344,0,0,0,138.86816851855474,99.1079299163406Z" fill-rule="evenodd" style="fill: #1DC690; stroke: #fff; opacity: 1;" id="p-type-logs"></path><path d="M156.65420160071073,119.45066396150287A197,197,0,0,1,152.80073982043774,124.34200380533882L132.32932240155554,107.68333405288476A170.6070045455344,170.6070045455344,0,0,0,135.66651819578436,103.44730948957982Z" fill-rule="evenodd" style="fill: #1DC690; stroke: #fff; opacity: 1;" id="p-type-logs"></path><path d="M37.651230453206665,193.3685208232186A197,197,0,0,1,31.521064037616785,194.46187935412036L27.298042210892223,168.4089275883329A170.6070045455344,170.6070045455344,0,0,0,32.606922056219254,167.4620513251275Z" fill-rule="evenodd" style="fill: #D7A449; stroke: #fff; opacity: 1;" id="p-type-tokenTransfers"></path><path d="M31.521064037616785,194.46187935412036A197,197,0,0,1,25.359404682260546,195.36094951182375L21.96188867968767,169.18754518468847A170.6070045455344,170.6070045455344,0,0,0,27.298042210892223,168.4089275883329Z" fill-rule="evenodd" style="fill: #D7A449; stroke: #fff; opacity: 1;" id="p-type-tokenTransfers"></path><path d="M25.359404682260546,195.36094951182375A197,197,0,0,1,19.17240854883058,196.064833028355L16.603792855021226,169.79712619130967A170.6070045455344,170.6070045455344,0,0,0,21.96188867968767,169.18754518468847Z" fill-rule="evenodd" style="fill: #D7A449; stroke: #fff; opacity: 1;" id="p-type-tokenTransfers"></path><path d="M19.17240854883058,196.064833028355A197,197,0,0,1,12.966257113191155,196.5728266482288L11.22910805202422,170.2370615710808A170.6070045455344,170.6070045455344,0,0,0,16.603792855021226,169.79712619130967Z" fill-rule="evenodd" style="fill: #D7A449; stroke: #fff; opacity: 1;" id="p-type-tokenTransfers"></path><path d="M12.966257113191155,196.5728266482288A197,197,0,0,1,6.747150989417682,196.8844228310762L5.843204160005023,170.50691178114891A170.6070045455344,170.6070045455344,0,0,0,11.22910805202422,170.2370615710808Z" fill-rule="evenodd" style="fill: #D7A449; stroke: #fff; opacity: 1;" id="p-type-tokenTransfers"></path><path d="M6.747150989417682,196.8844228310762A197,197,0,0,1,0.5213037347150417,196.99931025873207L0.4514622773509298,170.60640721207432A170.6070045455344,170.6070045455344,0,0,0,5.843204160005023,170.50691178114891Z" fill-rule="evenodd" style="fill: #D7A449; stroke: #fff; opacity: 1;" id="p-type-tokenTransfers"></path><path d="M0.5213037347150417,196.99931025873207A197,197,0,0,1,-5.70506435859564,196.9173741462756L-4.940730664768999,170.5354484571997A170.6070045455344,170.6070045455344,0,0,0,0.4514622773509298,170.60640721207432Z" fill-rule="evenodd" style="fill: #D7A449; stroke: #fff; opacity: 1;" id="p-type-tokenTransfers"></path><path d="M-5.70506435859564,196.9173741462756A197,197,0,0,1,-11.925732477819345,196.63869635671279L-10.327987284528692,170.29410641196782A170.6070045455344,170.6070045455344,0,0,0,-4.940730664768999,170.5354484571997Z" fill-rule="evenodd" style="fill: #D7A449; stroke: #fff; opacity: 1;" id="p-type-tokenTransfers"></path><path d="M-11.925732477819345,196.63869635671279A197,197,0,0,1,-18.134485505149406,196.16355531918646L-15.704925132020064,169.8826222030895A170.6070045455344,170.6070045455344,0,0,0,-10.327987284528692,170.29410641196782Z" fill-rule="evenodd" style="fill: #D7A449; stroke: #fff; opacity: 1;" id="p-type-tokenTransfers"></path><path d="M-18.134485505149406,196.16355531918646A197,197,0,0,1,-24.325120227239964,195.49242575079558L-21.066172066900506,169.30140694763213A170.6070045455344,170.6070045455344,0,0,0,-15.704925132020064,169.8826222030895Z" fill-rule="evenodd" style="fill: #D7A449; stroke: #fff; opacity: 1;" id="p-type-tokenTransfers"></path><path d="M-24.325120227239964,195.49242575079558A197,197,0,0,1,-30.491451532884568,194.62597818230162L-26.40637162574,168.55104134226912A170.6070045455344,170.6070045455344,0,0,0,-21.066172066900506,169.30140694763213Z" fill-rule="evenodd" style="fill: #D7A449; stroke: #fff; opacity: 1;" id="p-type-tokenTransfers"></path><path d="M-30.491451532884568,194.62597818230162A197,197,0,0,1,-36.62731859260881,193.56507828819622L-31.72018837370532,167.6322750831016A170.6070045455344,170.6070045455344,0,0,0,-26.40637162574,168.55104134226912Z" fill-rule="evenodd" style="fill: #D7A449; stroke: #fff; opacity: 1;" id="p-type-tokenTransfers"></path><path d="M-36.62731859260881,193.56507828819622A197,197,0,0,1,-42.72659101400283,192.31078602179892L-37.00231323523437,166.5460261166312A170.6070045455344,170.6070045455344,0,0,0,-31.72018837370532,167.6322750831016Z" fill-rule="evenodd" style="fill: #D7A449; stroke: #fff; opacity: 1;" id="p-type-tokenTransfers"></path><path d="M-42.72659101400283,192.31078602179892A197,197,0,0,1,-48.783174966644026,190.8643545562497L-42.24746879837481,165.2933797226324A170.6070045455344,170.6070045455344,0,0,0,-37.00231323523437,166.5460261166312Z" fill-rule="evenodd" style="fill: #D7A449; stroke: #fff; opacity: 1;" id="p-type-tokenTransfers"></path><path d="M-48.783174966644026,190.8643545562497A197,197,0,0,1,-54.791019270490295,189.2272290324539L-47.450414587487316,163.87558742984132A170.6070045455344,170.6070045455344,0,0,0,-42.24746879837481,165.2933797226324Z" fill-rule="evenodd" style="fill: #D7A449; stroke: #fff; opacity: 1;" id="p-type-tokenTransfers"></path><path d="M-54.791019270490295,189.2272290324539A197,197,0,0,1,-60.74412144166099,187.40104511523072L-52.605952299045434,162.29406576554348A170.6070045455344,170.6070045455344,0,0,0,-47.450414587487316,163.87558742984132Z" fill-rule="evenodd" style="fill: #D7A449; stroke: #fff; opacity: 1;" id="p-type-tokenTransfers"></path><path d="M-143.9299554147962,134.51084690200557A197,197,0,0,1,-144.77745057792077,133.59824027343214L-125.38095009562544,115.69946997768953A170.6070045455344,170.6070045455344,0,0,0,-124.64699775477513,116.48981050169617Z" fill-rule="evenodd" style="fill: #414552; stroke: #fff; opacity: 1;" id="p-type-ether"></path><path d="M-144.77745057792077,133.59824027343214A197,197,0,0,1,-145.46736253295634,132.84670277317932L-125.97843137506084,115.0486194105739A170.6070045455344,170.6070045455344,0,0,0,-125.38095009562544,115.69946997768953Z" fill-rule="evenodd" style="fill: #414552; stroke: #fff; opacity: 1;" id="p-type-ether"></path></g></svg>