<svg xmlns="http://www.w3.org/2000/svg" width="400" height="400" id="block-7907800"><g id="burst-container" transform="translate(200,200)"><circle r="197" style="fill: #f9f9f9; stroke: #f9f9f9; stroke-width: 3; opacity: 1;" id="circle-base"></circle><path display="none" d="M6.031385485800715e-15,-98.5A98.5,98.5,0,1,1,-6.031385485800715e-15,98.5A98.5,98.5,0,1,1,6.031385485800715e-15,-98.5Z" fill-rule="evenodd" id="p-type-root" style="stroke: #fff; opacity: 1;"></path><path d="M8.529667153919608e-15,-139.30003589374985A139.30003589374985,139.30003589374985,0,1,1,-130.34748070083464,-49.13282278625499L-92.1695875141428,-34.74215217099783A98.5,98.5,0,1,0,6.031385485800715e-15,-98.5Z" fill-rule="evenodd" style="fill: #0B1F65; stroke: #fff; opacity: 1;" id="p-type-data"></path><path d="M-130.34748070083464,-49.13282278625499A139.30003589374985,139.30003589374985,0,0,1,-10.20894678876964,-138.92543829502236L-7.218815503111641,-98.23511949772359A98.5,98.5,0,0,0,-92.1695875141428,-34.74215217099783Z" fill-rule="evenodd" style="fill: #D7A449; stroke: #fff; opacity: 1;" id="p-type-value"></path><path d="M1.0446666101440332e-14,-170.6070045455344A170.6070045455344,170.6070045455344,0,0,1,160.01563439195616,-59.175558722667056L130.65221837601322,-48.31664137154552A139.30003589374985,139.30003589374985,0,0,0,8.529667153919608e-15,-139.30003589374985Z" fill-rule="evenodd" style="fill: #DB3F29; stroke: #fff; opacity: 1;" id="p-type-functions"></path><path d="M160.01563439195616,-59.175558722667056A170.6070045455344,170.6070045455344,0,0,1,135.6226906954658,103.5047620572214L110.73546324906633,84.51128432945909A139.30003589374985,139.30003589374985,0,0,0,130.65221837601322,-48.31664137154552Z" fill-rule="evenodd" style="fill: #414552; stroke: #fff; opacity: 1;" id="p-type-ether"></path><path d="M135.6226906954658,103.5047620572214A170.6070045455344,170.6070045455344,0,0,1,-5.91544235144836,170.5044208863415L-4.829938454632654,139.21627668675978A139.30003589374985,139.30003589374985,0,0,0,110.73546324906633,84.51128432945909Z" fill-rule="evenodd" style="fill: #1DC690; stroke: #fff; opacity: 1;" id="p-type-logs"></path><path d="M-5.91544235144836,170.5044208863415A170.6070045455344,170.6070045455344,0,0,1,-117.23926323238959,123.94234609981554L-95.72545757973175,101.19850182266026A139.30003589374985,139.30003589374985,0,0,0,-4.829938454632654,139.21627668675978Z" fill-rule="evenodd" style="fill: #D7A449; stroke: #fff; opacity: 1;" id="p-type-tokenTransfers"></path><path d="M-159.64240848716136,-60.17517272445761A170.6070045455344,170.6070045455344,0,0,1,-83.80301473866777,-148.6062068714178L-68.42487500555806,-121.33645981515099A139.30003589374985,139.30003589374985,0,0,0,-130.34748070083464,-49.13282278625499Z" fill-rule="evenodd" style="fill: #414552; stroke: #fff; opacity: 1;" id="p-type-ether"></path><path d="M-83.80301473866777,-148.6062068714178A170.6070045455344,170.6070045455344,0,0,1,-24.939463844496444,-168.7743260781955L-20.36298695920199,-137.80366019122775A139.30003589374985,139.30003589374985,0,0,0,-68.42487500555806,-121.33645981515099Z" fill-rule="evenodd" style="fill: #D7A449; stroke: #fff; opacity: 1;" id="p-type-tokenTransfers"></path><path d="M1.206277097160143e-14,-197A197,197,0,0,1,10.832473651427636,-196.70195096793302L9.38119736796191,-170.34888651219106A170.6070045455344,170.6070045455344,0,0,0,1.0446666101440332e-14,-170.6070045455344Z" fill-rule="evenodd" style="fill: #DB3F29; stroke: #fff; opacity: 1;" id="p-type-functions"></path><path d="M10.832473651427636,-196.70195096793302A197,197,0,0,1,18.03793321513843,-196.17245720367117L15.621308396076996,-169.89033146119485A170.6070045455344,170.6070045455344,0,0,0,9.38119736796191,-170.34888651219106Z" fill-rule="evenodd" style="fill: #DB3F29; stroke: #fff; opacity: 1;" id="p-type-functions"></path><path d="M18.03793321513843,-196.17245720367117A197,197,0,0,1,25.21913133749822,-195.37910690394204L21.840408399649686,-169.2032699475294A170.6070045455344,170.6070045455344,0,0,0,15.621308396076996,-169.89033146119485Z" fill-rule="evenodd" style="fill: #DB3F29; stroke: #fff; opacity: 1;" id="p-type-functions"></path><path d="M25.21913133749822,-195.37910690394204A197,197,0,0,1,32.36640913935498,-194.32296714342306L28.030132543962242,-168.28862608497317A170.6070045455344,170.6070045455344,0,0,0,21.840408399649686,-169.2032699475294Z" fill-rule="evenodd" style="fill: #DB3F29; stroke: #fff; opacity: 1;" id="p-type-functions"></path><path d="M32.36640913935498,-194.32296714342306A197,197,0,0,1,39.47015336517991,-193.00545845475247L34.18215550551365,-167.1476300908777A170.6070045455344,170.6070045455344,0,0,0,28.030132543962242,-168.28862608497317Z" fill-rule="evenodd" style="fill: #DB3F29; stroke: #fff; opacity: 1;" id="p-type-functions"></path><path d="M39.47015336517991,-193.00545845475247A197,197,0,0,1,46.5208093131204,-191.4283529178797L40.288202669773966,-165.78181663149678A170.6070045455344,170.6070045455344,0,0,0,34.18215550551365,-167.1476300908777Z" fill-rule="evenodd" style="fill: #DB3F29; stroke: #fff; opacity: 1;" id="p-type-functions"></path><path d="M46.5208093131204,-191.4283529178797A197,197,0,0,1,53.508893686297206,-189.5937717765764L46.34006126073414,-164.19302275782428A170.6070045455344,170.6070045455344,0,0,0,40.288202669773966,-165.78181663149678Z" fill-rule="evenodd" style="fill: #DB3F29; stroke: #fff; opacity: 1;" id="p-type-functions"></path><path d="M53.508893686297206,-189.5937717765764A197,197,0,0,1,60.425007348060156,-187.50418258531428L52.32959138728147,-162.3833854347179A170.6070045455344,170.6070045455344,0,0,0,46.34006126073414,-164.19302275782428Z" fill-rule="evenodd" style="fill: #DB3F29; stroke: #fff; opacity: 1;" id="p-type-functions"></path><path d="M60.425007348060156,-187.50418258531428A197,197,0,0,1,67.25984796404637,-185.1623958903464L58.24873699154321,-160.35533866663133A170.6070045455344,170.6070045455344,0,0,0,52.32959138728147,-162.3833854347179Z" fill-rule="evenodd" style="fill: #DB3F29; stroke: #fff; opacity: 1;" id="p-type-functions"></path><path d="M67.25984796404637,-185.1623958903464A197,197,0,0,1,74.00422251403731,-182.57156144945702L64.0895366844726,-158.11161022382146A170.6070045455344,170.6070045455344,0,0,0,58.24873699154321,-160.35533866663133Z" fill-rule="evenodd" style="fill: #DB3F29; stroke: #fff; opacity: 1;" id="p-type-functions"></path><path d="M74.00422251403731,-182.57156144945702A197,197,0,0,1,80.64905965678538,-179.7351639954638L69.84413445410284,-155.65521797343385A170.6070045455344,170.6070045455344,0,0,0,64.0895366844726,-158.11161022382146Z" fill-rule="evenodd" style="fill: #DB3F29; stroke: #fff; opacity: 1;" id="p-type-functions"></path><path d="M80.64905965678538,-179.7351639954638A197,197,0,0,1,87.18542193118004,-176.65701854917089L75.50479023206684,-152.9894658204008A170.6070045455344,170.6070045455344,0,0,0,69.84413445410284,-155.65521797343385Z" fill-rule="evenodd" style="fill: #DB3F29; stroke: #fff; opacity: 1;" id="p-type-functions"></path><path d="M87.18542193118004,-176.65701854917089A197,197,0,0,1,93.60451777734147,-173.34126528807664L81.06389030416982,-150.11793926361207A170.6070045455344,170.6070045455344,0,0,0,75.50479023206684,-152.9894658204008Z" fill-rule="evenodd" style="fill: #DB3F29; stroke: #fff; opacity: 1;" id="p-type-functions"></path><path d="M93.60451777734147,-173.34126528807664A197,197,0,0,1,99.89771336147386,-169.79236397773843L86.51395755101251,-147.0445005733353A170.6070045455344,170.6070045455344,0,0,0,81.06389030416982,-150.11793926361207Z" fill-rule="evenodd" style="fill: #DB3F29; stroke: #fff; opacity: 1;" id="p-type-functions"></path><path d="M99.89771336147386,-169.79236397773843A197,197,0,0,1,102.37747794667423,-168.3087995598514L88.66149667720101,-145.75969609929444A170.6070045455344,170.6070045455344,0,0,0,86.51395755101251,-147.0445005733353Z" fill-rule="evenodd" style="fill: #DB3F29; stroke: #fff; opacity: 1;" id="p-type-functions"></path><path d="M102.37747794667423,-168.3087995598514A197,197,0,0,1,103.6769017427744,-167.5114922774527L89.78683069490577,-145.06920773811487A170.6070045455344,170.6070045455344,0,0,0,88.66149667720101,-145.75969609929444Z" fill-rule="evenodd" style="fill: #DB3F29; stroke: #fff; opacity: 1;" id="p-type-functions"></path><path d="M184.77013918148924,-68.33004951595666A197,197,0,0,1,190.80148138264275,-49.028509075730945L165.23892995707223,-42.4599343692589A170.6070045455344,170.6070045455344,0,0,0,160.01563439195616,-59.175558722667056Z" fill-rule="evenodd" style="fill: #414552; stroke: #fff; opacity: 1;" id="p-type-ether"></path><path d="M190.80148138264275,-49.028509075730945A197,197,0,0,1,193.20874958512292,-38.46269730210381L167.32368537414257,-33.309672961693096A170.6070045455344,170.6070045455344,0,0,0,165.23892995707223,-42.4599343692589Z" fill-rule="evenodd" style="fill: #414552; stroke: #fff; opacity: 1;" id="p-type-ether"></path><path d="M193.20874958512292,-38.46269730210381A197,197,0,0,1,194.39620384330573,-31.923595212819155L168.3520509275609,-27.64664443443268A170.6070045455344,170.6070045455344,0,0,0,167.32368537414257,-33.309672961693096Z" fill-rule="evenodd" style="fill: #414552; stroke: #fff; opacity: 1;" id="p-type-ether"></path><path d="M194.39620384330573,-31.923595212819155A197,197,0,0,1,195.33718669303565,-25.54179897442899L169.16696597995247,-22.119846770210824A170.6070045455344,170.6070045455344,0,0,0,168.3520509275609,-27.64664443443268Z" fill-rule="evenodd" style="fill: #414552; stroke: #fff; opacity: 1;" id="p-type-ether"></path><path d="M195.33718669303565,-25.54179897442899A197,197,0,0,1,195.9552348987703,-20.26193267602475L169.70221142688206,-17.547348427207446A170.6070045455344,170.6070045455344,0,0,0,169.16696597995247,-22.119846770210824Z" fill-rule="evenodd" style="fill: #414552; stroke: #fff; opacity: 1;" id="p-type-ether"></path><path d="M195.9552348987703,-20.26193267602475A197,197,0,0,1,196.3235144881982,-16.311887046023287L170.02115090702196,-14.12650856551847A170.6070045455344,170.6070045455344,0,0,0,169.70221142688206,-17.547348427207446Z" fill-rule="evenodd" style="fill: #414552; stroke: #fff; opacity: 1;" id="p-type-ether"></path><path d="M196.3235144881982,-16.311887046023287A197,197,0,0,1,196.54165636988787,-13.430462068778912L170.21006731819452,-11.631121336125844A170.6070045455344,170.6070045455344,0,0,0,170.02115090702196,-14.12650856551847Z" fill-rule="evenodd" style="fill: #414552; stroke: #fff; opacity: 1;" id="p-type-ether"></path><path d="M196.54165636988787,-13.430462068778912A197,197,0,0,1,196.63970527142604,-11.909085219558344L170.29498015773973,-10.313570335971304A170.6070045455344,170.6070045455344,0,0,0,170.21006731819452,-11.631121336125844Z" fill-rule="evenodd" style="fill: #414552; stroke: #fff; opacity: 1;" id="p-type-ether"></path><path d="M196.63970527142604,-11.909085219558344A197,197,0,0,1,196.72286024081438,-10.445872805706985L170.36699447368096,-9.046391214443279A170.6070045455344,170.6070045455344,0,0,0,170.29498015773973,-10.313570335971304Z" fill-rule="evenodd" style="fill: #414552; stroke: #fff; opacity: 1;" id="p-type-ether"></path><path d="M156.60359396249706,119.51700447228987A197,197,0,0,1,152.11577967436793,125.17903008914534L131.7361295144792,108.40822007829648A170.6070045455344,170.6070045455344,0,0,0,135.6226906954658,103.5047620572214Z" fill-rule="evenodd" style="fill: #1DC690; stroke: #fff; opacity: 1;" id="p-type-logs"></path><path d="M152.11577967436793,125.17903008914534A197,197,0,0,1,147.4233661107497,130.6726869876634L127.67238016332313,113.16586651208877A170.6070045455344,170.6070045455344,0,0,0,131.7361295144792,108.40822007829648Z" fill-rule="evenodd" style="fill: #1DC690; stroke: #fff; opacity: 1;" id="p-type-logs"></path><path d="M147.4233661107497,130.6726869876634A197,197,0,0,1,142.53266467745092,135.99058607104146L123.43690847976143,117.77130221305613A170.6070045455344,170.6070045455344,0,0,0,127.67238016332313,113.16586651208877Z" fill-rule="evenodd" style="fill: #1DC690; stroke: #fff; opacity: 1;" id="p-type-logs"></path><path d="M142.53266467745092,135.99058607104146A197,197,0,0,1,137.45025348209484,141.12557464084202L119.03541127210461,122.21833276264614A170.6070045455344,170.6070045455344,0,0,0,123.43690847976143,117.77130221305613Z" fill-rule="evenodd" style="fill: #1DC690; stroke: #fff; opacity: 1;" id="p-type-logs"></path><path d="M137.45025348209484,141.12557464084202A197,197,0,0,1,132.18296848641094,146.0707460175394L114.47380865686975,126.50097680093373A170.6070045455344,170.6070045455344,0,0,0,119.03541127210461,122.21833276264614Z" fill-rule="evenodd" style="fill: #1DC690; stroke: #fff; opacity: 1;" id="p-type-logs"></path><path d="M132.18296848641094,146.0707460175394A197,197,0,0,1,126.73789431170687,150.81944883016456L109.75823609608544,130.61347407168972A170.6070045455344,170.6070045455344,0,0,0,114.47380865686975,126.50097680093373Z" fill-rule="evenodd" style="fill: #1DC690; stroke: #fff; opacity: 1;" id="p-type-logs"></path><path d="M126.73789431170687,150.81944883016456A197,197,0,0,1,121.12235470988735,155.36529596255474L104.89503614495219,134.55029317006029A170.6070045455344,170.6070045455344,0,0,0,109.75823609608544,130.61347407168972Z" fill-rule="evenodd" style="fill: #1DC690; stroke: #fff; opacity: 1;" id="p-type-logs"></path><path d="M121.12235470988735,155.36529596255474A197,197,0,0,1,115.34390271283687,159.70217314417366L99.89074992095756,138.30613898243533A170.6070045455344,170.6070045455344,0,0,0,104.89503614495219,134.55029317006029Z" fill-rule="evenodd" style="fill: #1DC690; stroke: #fff; opacity: 1;" id="p-type-logs"></path><path d="M115.34390271283687,159.70217314417366A197,197,0,0,1,109.41031047341542,163.8242471739481L94.75210830592039,141.87595980850008A170.6070045455344,170.6070045455344,0,0,0,99.89074992095756,138.30613898243533Z" fill-rule="evenodd" style="fill: #1DC690; stroke: #fff; opacity: 1;" id="p-type-logs"></path><path d="M109.41031047341542,163.8242471739481A197,197,0,0,1,103.3295588117314,167.7259737660597L89.48602289279758,145.25495415589A170.6070045455344,170.6070045455344,0,0,0,94.75210830592039,141.87595980850008Z" fill-rule="evenodd" style="fill: #1DC690; stroke: #fff; opacity: 1;" id="p-type-logs"></path><path d="M103.3295588117314,167.7259737660597A197,197,0,0,1,97.10982648075229,171.40210500713863L84.09957668943026,148.43857719830999A170.6070045455344,170.6070045455344,0,0,0,89.48602289279758,145.25495415589Z" fill-rule="evenodd" style="fill: #1DC690; stroke: #fff; opacity: 1;" id="p-type-logs"></path><path d="M97.10982648075229,171.40210500713863A197,197,0,0,1,90.75947916569088,174.84769641482993L78.60001459173279,151.422546888432A170.6070045455344,170.6070045455344,0,0,0,84.09957668943026,148.43857719830999Z" fill-rule="evenodd" style="fill: #1DC690; stroke: #fff; opacity: 1;" id="p-type-logs"></path><path d="M90.75947916569088,174.84769641482993A197,197,0,0,1,84.28705823196334,178.0581135882373L72.99473363913854,154.20284971734864A170.6070045455344,170.6070045455344,0,0,0,78.60001459173279,151.422546888432Z" fill-rule="evenodd" style="fill: #1DC690; stroke: #fff; opacity: 1;" id="p-type-logs"></path><path d="M-6.830564467968847,196.88154659350104A197,197,0,0,1,-17.646190472021026,196.2080833243757L-15.282049228789123,169.92118458676325A170.6070045455344,170.6070045455344,0,0,0,-5.91544235144836,170.5044208863415Z" fill-rule="evenodd" style="fill: #D7A449; stroke: #fff; opacity: 1;" id="p-type-tokenTransfers"></path><path d="M-17.646190472021026,196.2080833243757A197,197,0,0,1,-24.82895839855979,195.42907364269675L-21.502508722659773,169.24654241263525A170.6070045455344,170.6070045455344,0,0,0,-15.282049228789123,169.92118458676325Z" fill-rule="evenodd" style="fill: #D7A449; stroke: #fff; opacity: 1;" id="p-type-tokenTransfers"></path><path d="M-24.82895839855979,195.42907364269675A197,197,0,0,1,-31.978330796308775,194.38720729379764L-27.694046840225656,168.34425968714046A170.6070045455344,170.6070045455344,0,0,0,-21.502508722659773,169.24654241263525Z" fill-rule="evenodd" style="fill: #D7A449; stroke: #fff; opacity: 1;" id="p-type-tokenTransfers"></path><path d="M-31.978330796308775,194.38720729379764A197,197,0,0,1,-39.08469159245877,193.08388561224467L-33.84833581814936,167.21555000161254A170.6070045455344,170.6070045455344,0,0,0,-27.694046840225656,168.34425968714046Z" fill-rule="evenodd" style="fill: #D7A449; stroke: #fff; opacity: 1;" id="p-type-tokenTransfers"></path><path d="M-39.08469159245877,193.08388561224467A197,197,0,0,1,-46.138482565808964,191.52086159613145L-39.95709799405599,165.86193149693332A170.6070045455344,170.6070045455344,0,0,0,-33.84833581814936,167.21555000161254Z" fill-rule="evenodd" style="fill: #D7A449; stroke: #fff; opacity: 1;" id="p-type-tokenTransfers"></path><path d="M-46.138482565808964,191.52086159613145A197,197,0,0,1,-53.13021620279776,189.7002375492555L-46.01211694018246,164.28522482159792A170.6070045455344,170.6070045455344,0,0,0,-39.95709799405599,165.86193149693332Z" fill-rule="evenodd" style="fill: #D7A449; stroke: #fff; opacity: 1;" id="p-type-tokenTransfers"></path><path d="M-53.13021620279776,189.7002375492555A197,197,0,0,1,-60.05048845842992,187.62446225347048L-52.005248514664544,162.48755068289995A170.6070045455344,170.6070045455344,0,0,0,-46.01211694018246,164.28522482159792Z" fill-rule="evenodd" style="fill: #D7A449; stroke: #fff; opacity: 1;" id="p-type-tokenTransfers"></path><path d="M-60.05048845842992,187.62446225347048A197,197,0,0,1,-66.88999140493674,185.2963276750176L-57.92843181559796,160.47132699453076A170.6070045455344,170.6070045455344,0,0,0,-52.005248514664544,162.48755068289995Z" fill-rule="evenodd" style="fill: #D7A449; stroke: #fff; opacity: 1;" id="p-type-tokenTransfers"></path><path d="M-66.88999140493674,185.2963276750176A197,197,0,0,1,-73.6395257511562,182.71896520926558L-63.77370002313961,158.239265624429A170.6070045455344,170.6070045455344,0,0,0,-57.92843181559796,160.47132699453076Z" fill-rule="evenodd" style="fill: #D7A449; stroke: #fff; opacity: 1;" id="p-type-tokenTransfers"></path><path d="M-73.6395257511562,182.71896520926558A197,197,0,0,1,-75.05132586476154,182.143620492021L-64.99635478658759,157.74100248336202A170.6070045455344,170.6070045455344,0,0,0,-63.77370002313961,158.239265624429Z" fill-rule="evenodd" style="fill: #D7A449; stroke: #fff; opacity: 1;" id="p-type-tokenTransfers"></path></g></svg>