<svg xmlns="http://www.w3.org/2000/svg" width="400" height="400" id="block-7907819"><g id="burst-container" transform="translate(200,200)"><circle r="197" style="fill: #f9f9f9; stroke: #f9f9f9; stroke-width: 3; opacity: 1;" id="circle-base"></circle><path display="none" d="M6.031385485800715e-15,-98.5A98.5,98.5,0,1,1,-6.031385485800715e-15,98.5A98.5,98.5,0,1,1,6.031385485800715e-15,-98.5Z" fill-rule="evenodd" id="p-type-root" style="stroke: #fff; opacity: 1;"></path><path d="M8.529667153919608e-15,-139.30003589374985A139.30003589374985,139.30003589374985,0,1,1,-129.46125783712014,-51.422589581143185L-91.54293331756773,-36.36126179899906A98.5,98.5,0,1,0,6.031385485800715e-15,-98.5Z" fill-rule="evenodd" style="fill: #0B1F65; stroke: #fff; opacity: 1;" id="p-type-data"></path><path d="M-129.46125783712014,-51.422589581143185A139.30003589374985,139.30003589374985,0,0,1,-13.271317938113095,-138.66640588183395L-9.38423890932244,-98.05195592181096A98.5,98.5,0,0,0,-91.54293331756773,-36.36126179899906Z" fill-rule="evenodd" style="fill: #D7A449; stroke: #fff; opacity: 1;" id="p-type-value"></path><path d="M1.0446666101440332e-14,-170.6070045455344A170.6070045455344,170.6070045455344,0,0,1,165.63108255271806,40.90347775452216L135.23721259965222,33.39754973462064A139.30003589374985,139.30003589374985,0,0,0,8.529667153919608e-15,-139.30003589374985Z" fill-rule="evenodd" style="fill: #1DC690; stroke: #fff; opacity: 1;" id="p-type-logs"></path><path d="M165.63108255271806,40.90347775452216A170.6070045455344,170.6070045455344,0,0,1,-17.46634966093491,169.71056722998117L-14.2612147794415,138.5680978905846A139.30003589374985,139.30003589374985,0,0,0,135.23721259965222,33.39754973462064Z" fill-rule="evenodd" style="fill: #D7A449; stroke: #fff; opacity: 1;" id="p-type-tokenTransfers"></path><path d="M-17.46634966093491,169.71056722998117A170.6070045455344,170.6070045455344,0,0,1,-111.01063586283274,129.55071873721718L-90.63980462861574,105.77771890566731A139.30003589374985,139.30003589374985,0,0,0,-14.2612147794415,138.5680978905846Z" fill-rule="evenodd" style="fill: #414552; stroke: #fff; opacity: 1;" id="p-type-ether"></path><path d="M-158.55701157991706,-62.979552863179684A170.6070045455344,170.6070045455344,0,0,1,-78.34068449584326,-151.55687761603807L-63.964901038393734,-123.7456723895769A139.30003589374985,139.30003589374985,0,0,0,-129.46125783712014,-51.422589581143185Z" fill-rule="evenodd" style="fill: #D7A449; stroke: #fff; opacity: 1;" id="p-type-tokenTransfers"></path><path d="M-78.34068449584326,-151.55687761603807A170.6070045455344,170.6070045455344,0,0,1,-32.360089165660604,-167.5099239722545L-26.421902162278233,-136.77128019480915A139.30003589374985,139.30003589374985,0,0,0,-63.964901038393734,-123.7456723895769Z" fill-rule="evenodd" style="fill: #414552; stroke: #fff; opacity: 1;" id="p-type-ether"></path><path d="M1.206277097160143e-14,-197A197,197,0,0,1,9.394928600220513,-196.77585044053743L8.136246834531942,-170.41288533279274A170.6070045455344,170.6070045455344,0,0,0,1.0446666101440332e-14,-170.6070045455344Z" fill-rule="evenodd" style="fill: #1DC690; stroke: #fff; opacity: 1;" id="p-type-logs"></path><path d="M9.394928600220513,-196.77585044053743A197,197,0,0,1,18.7684778186449,-196.10391184362192L16.25397858131123,-169.83096943808061A170.6070045455344,170.6070045455344,0,0,0,8.136246834531942,-170.41288533279274Z" fill-rule="evenodd" style="fill: #1DC690; stroke: #fff; opacity: 1;" id="p-type-logs"></path><path d="M18.7684778186449,-196.10391184362192A197,197,0,0,1,28.099316925040494,-194.98571329291315L24.334722286075102,-168.8625810866919A170.6070045455344,170.6070045455344,0,0,0,16.25397858131123,-169.83096943808061Z" fill-rule="evenodd" style="fill: #1DC690; stroke: #fff; opacity: 1;" id="p-type-logs"></path><path d="M28.099316925040494,-194.98571329291315A197,197,0,0,1,37.36621238158895,-193.42379939462978L32.36008916566066,-167.5099239722545A170.6070045455344,170.6070045455344,0,0,0,24.334722286075102,-168.8625810866919Z" fill-rule="evenodd" style="fill: #1DC690; stroke: #fff; opacity: 1;" id="p-type-logs"></path><path d="M37.36621238158895,-193.42379939462978A197,197,0,0,1,46.548076162562566,-191.42172448696692L40.31181645407205,-165.7760762419391A170.6070045455344,170.6070045455344,0,0,0,32.36008916566066,-167.5099239722545Z" fill-rule="evenodd" style="fill: #1DC690; stroke: #fff; opacity: 1;" id="p-type-logs"></path><path d="M46.548076162562566,-191.42172448696692A197,197,0,0,1,55.62401374286951,-188.9840445517374L48.17180896177973,-163.66498349173472A170.6070045455344,170.6070045455344,0,0,0,40.31181645407205,-165.7760762419391Z" fill-rule="evenodd" style="fill: #1DC690; stroke: #fff; opacity: 1;" id="p-type-logs"></path><path d="M55.62401374286951,-188.9840445517374A197,197,0,0,1,64.5733716462627,-186.11630684664263L55.922180253677276,-161.18144978773216A170.6070045455344,170.6070045455344,0,0,0,48.17180896177973,-163.66498349173472Z" fill-rule="evenodd" style="fill: #1DC690; stroke: #fff; opacity: 1;" id="p-type-logs"></path><path d="M64.5733716462627,-186.11630684664263A197,197,0,0,1,73.37578444501105,-182.8250372817664L63.54529335199062,-158.3311267338468A170.6070045455344,170.6070045455344,0,0,0,55.922180253677276,-161.18144978773216Z" fill-rule="evenodd" style="fill: #1DC690; stroke: #fff; opacity: 1;" id="p-type-logs"></path><path d="M73.37578444501105,-182.8250372817664A197,197,0,0,1,82.01122110407849,-179.11772556901772L71.02380087151444,-155.12050061085884A170.6070045455344,170.6070045455344,0,0,0,63.54529335199062,-158.3311267338468Z" fill-rule="evenodd" style="fill: #1DC690; stroke: #fff; opacity: 1;" id="p-type-logs"></path><path d="M82.01122110407849,-179.11772556901772A197,197,0,0,1,90.46003056434928,-175.0028081783175L78.34068449584325,-151.5568776160381A170.6070045455344,170.6070045455344,0,0,0,71.02380087151444,-155.12050061085884Z" fill-rule="evenodd" style="fill: #1DC690; stroke: #fff; opacity: 1;" id="p-type-logs"></path><path d="M90.46003056434928,-175.0028081783175A197,197,0,0,1,98.70298646116862,-170.4896491393139L85.47929370476352,-147.6483672369416A170.6070045455344,170.6070045455344,0,0,0,78.34068449584325,-151.5568776160381Z" fill-rule="evenodd" style="fill: #1DC690; stroke: #fff; opacity: 1;" id="p-type-logs"></path><path d="M98.70298646116862,-170.4896491393139A197,197,0,0,1,106.7213308764356,-165.58851873231535L92.42338366467781,-143.40386379722048A170.6070045455344,170.6070045455344,0,0,0,85.47929370476352,-147.6483672369416Z" fill-rule="evenodd" style="fill: #1DC690; stroke: #fff; opacity: 1;" id="p-type-logs"></path><path d="M106.7213308764356,-165.58851873231535A197,197,0,0,1,114.49681702468519,-160.31057011693196L99.15715219583598,-138.83302621642957A170.6070045455344,170.6070045455344,0,0,0,92.42338366467781,-143.40386379722048Z" fill-rule="evenodd" style="fill: #1DC690; stroke: #fff; opacity: 1;" id="p-type-logs"></path><path d="M114.49681702468519,-160.31057011693196A197,197,0,0,1,122.01175077602161,-154.66781395161047L105.66527573225041,-133.94625602989987A170.6070045455344,170.6070045455344,0,0,0,99.15715219583598,-138.83302621642957Z" fill-rule="evenodd" style="fill: #1DC690; stroke: #fff; opacity: 1;" id="p-type-logs"></path><path d="M122.01175077602161,-154.66781395161047A197,197,0,0,1,129.24903092141182,-148.67309106181904L111.93294419246305,-128.75467371869243A170.6070045455344,170.6070045455344,0,0,0,105.66527573225041,-133.94625602989987Z" fill-rule="evenodd" style="fill: #1DC690; stroke: #fff; opacity: 1;" id="p-type-logs"></path><path d="M129.24903092141182,-148.67309106181904A197,197,0,0,1,136.19218808871068,-142.34004321907892L117.94589468181188,-123.27009340349726A170.6070045455344,170.6070045455344,0,0,0,111.93294419246305,-128.75467371869243Z" fill-rule="evenodd" style="fill: #1DC690; stroke: #fff; opacity: 1;" id="p-type-logs"></path><path d="M136.19218808871068,-142.34004321907892A197,197,0,0,1,142.825422220859,-135.68308209733942L123.69044394950235,-117.5049959600655A170.6070045455344,170.6070045455344,0,0,0,117.94589468181188,-123.27009340349726Z" fill-rule="evenodd" style="fill: #1DC690; stroke: #fff; opacity: 1;" id="p-type-logs"></path><path d="M142.825422220859,-135.68308209733942A197,197,0,0,1,149.13363853096817,-128.71735647733962L129.15351952662422,-111.47250061735357A170.6070045455344,170.6070045455344,0,0,0,123.69044394950235,-117.5049959600655Z" fill-rule="evenodd" style="fill: #1DC690; stroke: #fff; opacity: 1;" id="p-type-logs"></path><path d="M149.13363853096817,-128.71735647733962A197,197,0,0,1,155.10248185247056,-121.45871777358772L134.3226894742544,-105.18633510301147A170.6070045455344,170.6070045455344,0,0,0,129.15351952662422,-111.47250061735357Z" fill-rule="evenodd" style="fill: #1DC690; stroke: #fff; opacity: 1;" id="p-type-logs"></path><path d="M191.2543001959618,47.23126778473047A197,197,0,0,1,188.78422935499898,56.29844355609796L163.49193845529706,48.75588231310516A170.6070045455344,170.6070045455344,0,0,0,165.63108255271806,40.90347775452216Z" fill-rule="evenodd" style="fill: #D7A449; stroke: #fff; opacity: 1;" id="p-type-tokenTransfers"></path><path d="M188.78422935499898,56.29844355609796A197,197,0,0,1,185.8845554496361,65.23750489780527L160.98074719056197,56.49733652101109A170.6070045455344,170.6070045455344,0,0,0,163.49193845529706,48.75588231310516Z" fill-rule="evenodd" style="fill: #D7A449; stroke: #fff; opacity: 1;" id="p-type-tokenTransfers"></path><path d="M185.8845554496361,65.23750489780527A197,197,0,0,1,182.56187706493384,74.02810981328638L158.10322330080436,64.11022369245009A170.6070045455344,170.6070045455344,0,0,0,160.98074719056197,56.49733652101109Z" fill-rule="evenodd" style="fill: #D7A449; stroke: #fff; opacity: 1;" id="p-type-tokenTransfers"></path><path d="M182.56187706493384,74.02810981328638A197,197,0,0,1,178.8237553876553,82.65025413787923L154.86591496584384,71.57721971264333A170.6070045455344,170.6070045455344,0,0,0,158.10322330080436,64.11022369245009Z" fill-rule="evenodd" style="fill: #D7A449; stroke: #fff; opacity: 1;" id="p-type-tokenTransfers"></path><path d="M178.8237553876553,82.65025413787923A197,197,0,0,1,174.6786969998023,91.08431706090381L151.2761891017934,78.88133246109906A170.6070045455344,170.6070045455344,0,0,0,154.86591496584384,71.57721971264333Z" fill-rule="evenodd" style="fill: #D7A449; stroke: #fff; opacity: 1;" id="p-type-tokenTransfers"></path><path d="M174.6786969998023,91.08431706090381A197,197,0,0,1,170.13613452078184,99.3111057753685L147.34221459668365,86.0059404793926A170.6070045455344,170.6070045455344,0,0,0,151.2761891017934,78.88133246109906Z" fill-rule="evenodd" style="fill: #D7A449; stroke: #fff; opacity: 1;" id="p-type-tokenTransfers"></path><path d="M170.13613452078184,99.3111057753685A197,197,0,0,1,165.20640514225374,107.3118991536983L143.07294372109587,92.93483079545652A170.6070045455344,170.6070045455344,0,0,0,147.34221459668365,86.0059404793926Z" fill-rule="evenodd" style="fill: #D7A449; stroke: #fff; opacity: 1;" id="p-type-tokenTransfers"></path><path d="M165.20640514225374,107.3118991536983A197,197,0,0,1,159.90072710450713,115.06849035009516L138.4780917561061,99.65223581830695A170.6070045455344,170.6070045455344,0,0,0,143.07294372109587,92.93483079545652Z" fill-rule="evenodd" style="fill: #D7A449; stroke: #fff; opacity: 1;" id="p-type-tokenTransfers"></path><path d="M159.90072710450713,115.06849035009516A197,197,0,0,1,154.23117416789532,122.56322823258344L133.56811488489964,106.14286921924739A170.6070045455344,170.6070045455344,0,0,0,138.4780917561061,99.65223581830695Z" fill-rule="evenodd" style="fill: #D7A449; stroke: #fff; opacity: 1;" id="p-type-tokenTransfers"></path><path d="M154.23117416789532,122.56322823258344A197,197,0,0,1,148.21064813742436,129.77905755045606L128.3541863983663,112.3919607178976A170.6070045455344,170.6070045455344,0,0,0,133.56811488489964,106.14286921924739Z" fill-rule="evenodd" style="fill: #D7A449; stroke: #fff; opacity: 1;" id="p-type-tokenTransfers"></path><path d="M148.21064813742436,129.77905755045606A197,197,0,0,1,141.85284950301772,136.69955774571548L122.84817126882413,118.38528969388742A170.6070045455344,170.6070045455344,0,0,0,128.3541863983663,112.3919607178976Z" fill-rule="evenodd" style="fill: #D7A449; stroke: #fff; opacity: 1;" id="p-type-tokenTransfers"></path><path d="M141.85284950301772,136.69955774571548A197,197,0,0,1,135.17224626226988,143.3089803201888L117.06259914973185,124.10921754772768A170.6070045455344,170.6070045455344,0,0,0,122.84817126882413,118.38528969388742Z" fill-rule="evenodd" style="fill: #D7A449; stroke: #fff; opacity: 1;" id="p-type-tokenTransfers"></path><path d="M135.17224626226988,143.3089803201888A197,197,0,0,1,128.18404099663624,149.59228467328347L111.01063586283293,129.550718737217A170.6070045455344,170.6070045455344,0,0,0,117.06259914973185,124.10921754772768Z" fill-rule="evenodd" style="fill: #D7A449; stroke: #fff; opacity: 1;" id="p-type-tokenTransfers"></path><path d="M128.18404099663624,149.59228467328347A197,197,0,0,1,120.90413627598198,155.5351723288298L104.70605343761609,134.69741041875704A170.6070045455344,170.6070045455344,0,0,0,111.01063586283293,129.550718737217Z" fill-rule="evenodd" style="fill: #D7A449; stroke: #fff; opacity: 1;" id="p-type-tokenTransfers"></path><path d="M120.90413627598198,155.5351723288298A197,197,0,0,1,113.34909847021645,161.12411947312287L98.1631987712713,139.53758062612337A170.6070045455344,170.6070045455344,0,0,0,104.70605343761609,134.69741041875704Z" fill-rule="evenodd" style="fill: #D7A449; stroke: #fff; opacity: 1;" id="p-type-tokenTransfers"></path><path d="M-20.1684033570018,195.96488334910742A197,197,0,0,1,-73.80894358203922,182.65059498206776L-63.920420168538364,158.18005527081317A170.6070045455344,170.6070045455344,0,0,0,-17.46634966093491,169.71056722998117Z" fill-rule="evenodd" style="fill: #414552; stroke: #fff; opacity: 1;" id="p-type-ether"></path><path d="M-73.80894358203922,182.65059498206776A197,197,0,0,1,-78.65798742658458,180.61539528511753L-68.11981532197922,156.4175206314799A170.6070045455344,170.6070045455344,0,0,0,-63.920420168538364,158.18005527081317Z" fill-rule="evenodd" style="fill: #414552; stroke: #fff; opacity: 1;" id="p-type-ether"></path><path d="M-78.65798742658458,180.61539528511753A197,197,0,0,1,-79.78044532454018,180.12240433610154L-69.09189237628723,155.99057794579625A170.6070045455344,170.6070045455344,0,0,0,-68.11981532197922,156.4175206314799Z" fill-rule="evenodd" style="fill: #414552; stroke: #fff; opacity: 1;" id="p-type-ether"></path></g></svg>