<svg xmlns="http://www.w3.org/2000/svg" width="600" height="600" id="block-7907881"><g id="burst-container" transform="translate(300,300)"><data type="text/json">{"number":7907881,"totalTransactions":59,"totalFunctions":46,"totalLogs":35,"totalTokenTransfers":35,"totalEther":6615435197671677000}</data><circle r="297" style="fill: #f9f9f9; stroke: #f9f9f9; stroke-width: 3; opacity: 1;" id="circle-base"></circle><path display="none" d="M9.093002483669097e-15,-148.5A148.5,148.5,0,1,1,-9.093002483669097e-15,148.5A148.5,148.5,0,1,1,9.093002483669097e-15,-148.5Z" fill-rule="evenodd" id="p-type-root" style="stroke: #fff; opacity: 1;"></path><path d="M1.2859447435097075e-14,-210.0107140124046A210.0107140124046,210.0107140124046,0,1,1,-168.81587501158037,-124.9227775230541L-119.37084999262913,-88.33374311120997A148.5,148.5,0,1,0,9.093002483669097e-15,-148.5Z" fill-rule="evenodd" style="fill: #4E4E4E; stroke: #fff; opacity: 1;" id="p-type-data"></path><path d="M-168.81587501158037,-124.9227775230541A210.0107140124046,210.0107140124046,0,0,1,-7.688212783631504,-209.86993921043958L-5.436387394510939,-148.40045718291034A148.5,148.5,0,0,0,-119.37084999262913,-88.33374311120997Z" fill-rule="evenodd" style="fill: #3A86AD; stroke: #fff; opacity: 1;" id="p-type-value"></path><path d="M1.5749542295064867e-14,-257.2095449239783A257.2095449239783,257.2095449239783,0,0,1,257.1436545661502,-5.821590535620634L209.95691476052187,-4.753308767895456A210.0107140124046,210.0107140124046,0,0,0,1.2859447435097075e-14,-210.0107140124046Z" fill-rule="evenodd" style="fill: #6B0E12; stroke: #fff; opacity: 1;" id="p-type-functions"></path><path d="M257.1436545661502,-5.821590535620634A257.2095449239783,257.2095449239783,0,0,1,78.91508325143893,244.80432928242604L64.43389565842674,199.88189785540604A210.0107140124046,210.0107140124046,0,0,0,209.95691476052187,-4.753308767895456Z" fill-rule="evenodd" style="fill: #184B42; stroke: #fff; opacity: 1;" id="p-type-logs"></path><path d="M78.91508325143893,244.80432928242604A257.2095449239783,257.2095449239783,0,0,1,-149.8809399950749,209.02739970203132L-122.37727505221233,170.67015717692172A210.0107140124046,210.0107140124046,0,0,0,64.43389565842674,199.88189785540604Z" fill-rule="evenodd" style="fill: #AE497E; stroke: #fff; opacity: 1;" id="p-type-tokenTransfers"></path><path d="M-149.8809399950749,209.02739970203132A257.2095449239783,257.2095449239783,0,0,1,-232.3666598170486,110.28365883243092L-189.7265832622162,90.04623036887965A210.0107140124046,210.0107140124046,0,0,0,-122.37727505221233,170.67015717692172Z" fill-rule="evenodd" style="fill: #F09B24; stroke: #fff; opacity: 1;" id="p-type-ether"></path><path d="M-206.7563771299166,-152.998531091353A257.2095449239783,257.2095449239783,0,0,1,-113.65975606054445,-230.73406738550236L-92.80280221251392,-188.3935771238102A210.0107140124046,210.0107140124046,0,0,0,-168.81587501158037,-124.9227775230541Z" fill-rule="evenodd" style="fill: #AE497E; stroke: #fff; opacity: 1;" id="p-type-tokenTransfers"></path><path d="M-113.65975606054445,-230.73406738550236A257.2095449239783,257.2095449239783,0,0,1,-18.819574716963512,-256.52012320181166L-15.366118410914584,-209.44780353343825A210.0107140124046,210.0107140124046,0,0,0,-92.80280221251392,-188.3935771238102Z" fill-rule="evenodd" style="fill: #F09B24; stroke: #fff; opacity: 1;" id="p-type-ether"></path><path d="M1.8186004967338195e-14,-297A297,297,0,0,1,5.437298656100491,-296.9502244203974L4.708838764146013,-257.16643800755435A257.2095449239783,257.2095449239783,0,0,0,1.5749542295064867e-14,-257.2095449239783Z" fill-rule="evenodd" style="fill: #6B0E12; stroke: #fff; opacity: 1;" id="p-type-functions"></path><path d="M5.437298656100491,-296.9502244203974A297,297,0,0,1,10.872774789021975,-296.8009143658207L9.416099176920019,-257.03713170725047A257.2095449239783,257.2095449239783,0,0,0,4.708838764146013,-257.16643800755435Z" fill-rule="evenodd" style="fill: #6B0E12; stroke: #fff; opacity: 1;" id="p-type-functions"></path><path d="M10.872774789021975,-296.8009143658207A297,297,0,0,1,16.30460648647536,-296.5521198833709L14.120203415996201,-256.82166936512755A257.2095449239783,257.2095449239783,0,0,0,9.416099176920019,-257.03713170725047Z" fill-rule="evenodd" style="fill: #6B0E12; stroke: #fff; opacity: 1;" id="p-type-functions"></path><path d="M16.30460648647536,-296.5521198833709A297,297,0,0,1,21.73097305774648,-296.2039243662438L18.81957471696365,-256.52012320181166A257.2095449239783,257.2095449239783,0,0,0,14.120203415996201,-256.82166936512755Z" fill-rule="evenodd" style="fill: #6B0E12; stroke: #fff; opacity: 1;" id="p-type-functions"></path><path d="M21.73097305774648,-296.2039243662438A297,297,0,0,1,27.15005564397202,-295.75644452577734L23.512637901840847,-256.1325942922863A257.2095449239783,257.2095449239783,0,0,0,18.81957471696365,-256.52012320181166Z" fill-rule="evenodd" style="fill: #6B0E12; stroke: #fff; opacity: 1;" id="p-type-functions"></path><path d="M27.15005564397202,-295.75644452577734A297,297,0,0,1,32.56003782780078,-295.2098303523312L28.197819907057763,-255.65921253201327A257.2095449239783,257.2095449239783,0,0,0,23.512637901840847,-256.1325942922863Z" fill-rule="evenodd" style="fill: #6B0E12; stroke: #fff; opacity: 1;" id="p-type-functions"></path><path d="M32.56003782780078,-295.2098303523312A297,297,0,0,1,37.9591062422372,-294.5642650650118L32.873550310729875,-255.10013659339327A257.2095449239783,257.2095449239783,0,0,0,28.197819907057763,-255.65921253201327Z" fill-rule="evenodd" style="fill: #6B0E12; stroke: #fff; opacity: 1;" id="p-type-functions"></path><path d="M37.9591062422372,-294.5642650650118A297,297,0,0,1,43.34545117846214,-293.8199650502592L37.53826185904635,-254.4555538725804A257.2095449239783,257.2095449239783,0,0,0,32.873550310729875,-255.10013659339327Z" fill-rule="evenodd" style="fill: #6B0E12; stroke: #fff; opacity: 1;" id="p-type-functions"></path><path d="M43.34545117846214,-293.8199650502592A297,297,0,0,1,48.717267192427514,-292.9771797893167L42.19039099159642,-253.72568042666913A257.2095449239783,257.2095449239783,0,0,0,37.53826185904635,-254.4555538725804Z" fill-rule="evenodd" style="fill: #6B0E12; stroke: #fff; opacity: 1;" id="p-type-functions"></path><path d="M48.717267192427514,-292.9771797893167A297,297,0,0,1,54.07275371002145,-292.0361917746076L46.82837836545783,-252.91076090127427A257.2095449239783,257.2095449239783,0,0,0,42.19039099159642,-253.72568042666913Z" fill-rule="evenodd" style="fill: #6B0E12; stroke: #fff; opacity: 1;" id="p-type-functions"></path><path d="M54.07275371002145,-292.0361917746076A297,297,0,0,1,59.41011563060108,-290.9973164150463L51.450669377871485,-252.0110684485286A257.2095449239783,257.2095449239783,0,0,0,46.82837836545783,-252.91076090127427Z" fill-rule="evenodd" style="fill: #6B0E12; stroke: #fff; opacity: 1;" id="p-type-functions"></path><path d="M59.41011563060108,-290.9973164150463A297,297,0,0,1,64.72756392869059,-289.8609019303177L56.05571468732733,-251.026904635525A257.2095449239783,257.2095449239783,0,0,0,51.450669377871485,-252.0110684485286Z" fill-rule="evenodd" style="fill: #6B0E12; stroke: #fff; opacity: 1;" id="p-type-functions"></path><path d="M64.72756392869059,-289.8609019303177A297,297,0,0,1,70.02331625364334,-288.6273292341566L60.641970732886925,-249.9585993432346A257.2095449239783,257.2095449239783,0,0,0,56.05571468732733,-251.026904635525Z" fill-rule="evenodd" style="fill: #6B0E12; stroke: #fff; opacity: 1;" id="p-type-functions"></path><path d="M70.02331625364334,-288.6273292341566A297,297,0,0,1,75.295597527066,-287.29701180667035L65.20790025156792,-248.80651065593435A257.2095449239783,257.2095449239783,0,0,0,60.641970732886925,-249.9585993432346Z" fill-rule="evenodd" style="fill: #6B0E12; stroke: #fff; opacity: 1;" id="p-type-functions"></path><path d="M75.295597527066,-287.29701180667035A297,297,0,0,1,80.54264053780558,-285.8703955557445L69.75197279361798,-247.57102474118085A257.2095449239783,257.2095449239783,0,0,0,65.20790025156792,-248.80651065593435Z" fill-rule="evenodd" style="fill: #6B0E12; stroke: #fff; opacity: 1;" id="p-type-functions"></path><path d="M80.54264053780558,-285.8703955557445A297,297,0,0,1,85.76268653429939,-284.3479586675795L74.27266523550487,-246.25255572037142A257.2095449239783,257.2095449239783,0,0,0,69.75197279361798,-247.57102474118085Z" fill-rule="evenodd" style="fill: #6B0E12; stroke: #fff; opacity: 1;" id="p-type-functions"></path><path d="M85.76268653429939,-284.3479586675795A297,297,0,0,1,90.9539858140893,-282.73021144640774L78.76846229045078,-244.85154552993498A257.2095449239783,257.2095449239783,0,0,0,74.27266523550487,-246.25255572037142Z" fill-rule="evenodd" style="fill: #6B0E12; stroke: #fff; opacity: 1;" id="p-type-functions"></path><path d="M90.9539858140893,-282.73021144640774A297,297,0,0,1,96.11479831030307,-281.01769614344533L83.2378570163401,-243.36846377319992A257.2095449239783,257.2095449239783,0,0,0,78.76846229045078,-244.85154552993498Z" fill-rule="evenodd" style="fill: #6B0E12; stroke: #fff; opacity: 1;" id="p-type-functions"></path><path d="M96.11479831030307,-281.01769614344533A297,297,0,0,1,101.2433941749055,-279.21098677513515L87.67935132082962,-241.803807562988A257.2095449239783,257.2095449239783,0,0,0,83.2378570163401,-243.36846377319992Z" fill-rule="evenodd" style="fill: #6B0E12; stroke: #fff; opacity: 1;" id="p-type-functions"></path><path d="M101.2433941749055,-279.21098677513515A297,297,0,0,1,106.33805435852476,-277.3106889307432L92.09145646349299,-240.15810135498776A257.2095449239783,257.2095449239783,0,0,0,87.67935132082962,-241.803807562988Z" fill-rule="evenodd" style="fill: #6B0E12; stroke: #fff; opacity: 1;" id="p-type-functions"></path><path d="M106.33805435852476,-277.3106889307432A297,297,0,0,1,111.39707118665915,-275.31743956937123L96.47269355483034,-238.43189677196253A257.2095449239783,257.2095449239783,0,0,0,92.09145646349299,-240.15810135498776Z" fill-rule="evenodd" style="fill: #6B0E12; stroke: #fff; opacity: 1;" id="p-type-functions"></path><path d="M111.39707118665915,-275.31743956937123A297,297,0,0,1,116.41874893207066,-273.23190680645536L100.82159405197568,-236.6257724188526A257.2095449239783,257.2095449239783,0,0,0,96.47269355483034,-238.43189677196253Z" fill-rule="evenodd" style="fill: #6B0E12; stroke: #fff; opacity: 1;" id="p-type-functions"></path><path d="M116.41874893207066,-273.23190680645536A297,297,0,0,1,121.40140438317437,-271.0547896898208L105.1367002509365,-234.74033368883315A257.2095449239783,257.2095449239783,0,0,0,100.82159405197568,-236.6257724188526Z" fill-rule="evenodd" style="fill: #6B0E12; stroke: #fff; opacity: 1;" id="p-type-functions"></path><path d="M121.40140438317437,-271.0547896898208A297,297,0,0,1,126.34336740823267,-268.78681796536887L109.41656577520038,-232.776212560393A257.2095449239783,257.2095449239783,0,0,0,105.1367002509365,-234.74033368883315Z" fill-rule="evenodd" style="fill: #6B0E12; stroke: #fff; opacity: 1;" id="p-type-functions"></path><path d="M126.34336740823267,-268.78681796536887A297,297,0,0,1,131.24298151516504,-266.42875183247406L113.65975606054442,-230.73406738550236A257.2095449239783,257.2095449239783,0,0,0,109.41656577520038,-232.776212560393Z" fill-rule="evenodd" style="fill: #6B0E12; stroke: #fff; opacity: 1;" id="p-type-functions"></path><path d="M131.24298151516504,-266.42875183247406A297,297,0,0,1,136.0986044067864,-263.9813816891734L117.86484883588577,-228.61458266894041A257.2095449239783,257.2095449239783,0,0,0,113.65975606054442,-230.73406738550236Z" fill-rule="evenodd" style="fill: #6B0E12; stroke: #fff; opacity: 1;" id="p-type-functions"></path><path d="M136.0986044067864,-263.9813816891734A297,297,0,0,1,140.90860853128683,-261.44552786723386L122.03043460001108,-226.4184688388569A257.2095449239783,257.2095449239783,0,0,0,117.86484883588577,-228.61458266894041Z" fill-rule="evenodd" style="fill: #6B0E12; stroke: #fff; opacity: 1;" id="p-type-functions"></path><path d="M140.90860853128683,-261.44552786723386A297,297,0,0,1,145.67138162776942,-258.82204035718587L126.15511709402608,-224.14646200864416A257.2095449239783,257.2095449239783,0,0,0,122.03043460001108,-226.4184688388569Z" fill-rule="evenodd" style="fill: #6B0E12; stroke: #fff; opacity: 1;" id="p-type-functions"></path><path d="M145.67138162776942,-258.82204035718587A297,297,0,0,1,150.38532726666267,-256.11179852341587L130.23751376936647,-221.79932373020003A257.2095449239783,257.2095449239783,0,0,0,126.15511709402608,-224.14646200864416Z" fill-rule="evenodd" style="fill: #6B0E12; stroke: #fff; opacity: 1;" id="p-type-functions"></path><path d="M150.38532726666267,-256.11179852341587A297,297,0,0,1,155.04886538482563,-253.31571080941313L134.2762562512127,-219.3778407386641A257.2095449239783,257.2095449239783,0,0,0,130.23751376936647,-221.79932373020003Z" fill-rule="evenodd" style="fill: #6B0E12; stroke: #fff; opacity: 1;" id="p-type-functions"></path><path d="M155.04886538482563,-253.31571080941313A297,297,0,0,1,159.66043281516875,-250.43471443326897L138.26999079715475,-216.88282468871236A257.2095449239783,257.2095449239783,0,0,0,134.2762562512127,-219.3778407386641Z" fill-rule="evenodd" style="fill: #6B0E12; stroke: #fff; opacity: 1;" id="p-type-functions"></path><path d="M159.66043281516875,-250.43471443326897A297,297,0,0,1,164.2184838106096,-247.46977507353208L142.2173787509515,-214.31511188249982A257.2095449239783,257.2095449239783,0,0,0,138.26999079715475,-216.88282468871236Z" fill-rule="evenodd" style="fill: #6B0E12; stroke: #fff; opacity: 1;" id="p-type-functions"></path><path d="M164.2184838106096,-247.46977507353208A297,297,0,0,1,168.72149056219098,-244.42188654552297L146.1170969912338,-211.6755629893408A257.2095449239783,257.2095449239783,0,0,0,142.2173787509515,-214.31511188249982Z" fill-rule="evenodd" style="fill: #6B0E12; stroke: #fff; opacity: 1;" id="p-type-functions"></path><path d="M168.72149056219098,-244.42188654552297A297,297,0,0,1,173.16794371118544,-241.29207046821844L149.96783837500033,-208.9650627572221A257.2095449239783,257.2095449239783,0,0,0,146.1170969912338,-211.6755629893408Z" fill-rule="evenodd" style="fill: #6B0E12; stroke: #fff; opacity: 1;" id="p-type-functions"></path><path d="M173.16794371118544,-241.29207046821844A297,297,0,0,1,177.5563528550162,-238.08137592181583L153.76831217575767,-206.1845197162453A257.2095449239783,257.2095449239783,0,0,0,149.96783837500033,-208.9650627572221Z" fill-rule="evenodd" style="fill: #6B0E12; stroke: #fff; opacity: 1;" id="p-type-functions"></path><path d="M177.5563528550162,-238.08137592181583A297,297,0,0,1,181.88524704682345,-234.79087909609268L157.51724451615766,-203.33486587409698A257.2095449239783,257.2095449239783,0,0,0,153.76831217575767,-206.1845197162453Z" fill-rule="evenodd" style="fill: #6B0E12; stroke: #fff; opacity: 1;" id="p-type-functions"></path><path d="M181.88524704682345,-234.79087909609268A297,297,0,0,1,186.15317528851,-231.42168292967983L161.21337879498728,-200.41705640365032A257.2095449239783,257.2095449239783,0,0,0,157.51724451615766,-203.33486587409698Z" fill-rule="evenodd" style="fill: #6B0E12; stroke: #fff; opacity: 1;" id="p-type-functions"></path><path d="M186.15317528851,-231.42168292967983A297,297,0,0,1,190.35870701709996,-227.97491674036843L164.85547610836764,-197.43206932280137A257.2095449239783,257.2095449239783,0,0,0,161.21337879498728,-200.41705640365032Z" fill-rule="evenodd" style="fill: #6B0E12; stroke: #fff; opacity: 1;" id="p-type-functions"></path><path d="M296.9239163683419,-6.722193725704701A297,297,0,0,1,296.99721944873147,-1.2851613603088337L257.2071368959432,-1.1129823859896162A257.2095449239783,257.2095449239783,0,0,0,257.1436545661502,-5.821590535620634Z" fill-rule="evenodd" style="fill: #184B42; stroke: #fff; opacity: 1;" id="p-type-logs"></path><path d="M296.99721944873147,-1.2851613603088337A297,297,0,0,1,296.9709723019263,4.152301777151628L257.18440620003304,3.5959988231925806A257.2095449239783,257.2095449239783,0,0,0,257.2071368959432,-1.1129823859896162Z" fill-rule="evenodd" style="fill: #184B42; stroke: #fff; opacity: 1;" id="p-type-logs"></path><path d="M296.9709723019263,4.152301777151628A297,297,0,0,1,296.84518372568346,9.588373108365337L257.0754700975009,8.303774692807945A257.2095449239783,257.2095449239783,0,0,0,257.18440620003304,3.5959988231925806Z" fill-rule="evenodd" style="fill: #184B42; stroke: #fff; opacity: 1;" id="p-type-logs"></path><path d="M296.84518372568346,9.588373108365337A297,297,0,0,1,296.61989588296126,15.021230521539213L256.88036510253966,13.008767227755131A257.2095449239783,257.2095449239783,0,0,0,257.0754700975009,8.303774692807945Z" fill-rule="evenodd" style="fill: #184B42; stroke: #fff; opacity: 1;" id="p-type-logs"></path><path d="M296.61989588296126,15.021230521539213A297,297,0,0,1,296.29518428778624,20.449052982150437L256.59915661221476,17.709399365876212A257.2095449239783,257.2095449239783,0,0,0,256.88036510253966,13.008767227755131Z" fill-rule="evenodd" style="fill: #184B42; stroke: #fff; opacity: 1;" id="p-type-logs"></path><path d="M296.29518428778624,20.449052982150437A297,297,0,0,1,295.8711577799419,25.87002114333734L256.2319388845435,22.404095506570687A257.2095449239783,257.2095449239783,0,0,0,256.59915661221476,17.709399365876212Z" fill-rule="evenodd" style="fill: #184B42; stroke: #fff; opacity: 1;" id="p-type-logs"></path><path d="M295.8711577799419,25.87002114333734A297,297,0,0,1,295.3479584884868,31.28231795572464L255.77883500690143,27.091282038919626A257.2095449239783,257.2095449239783,0,0,0,256.2319388845435,22.404095506570687Z" fill-rule="evenodd" style="fill: #184B42; stroke: #fff; opacity: 1;" id="p-type-logs"></path><path d="M295.3479584884868,31.28231795572464A297,297,0,0,1,294.7257617841145,36.68412927647854L255.23999685476406,31.769387869142875A257.2095449239783,257.2095449239783,0,0,0,255.77883500690143,27.091282038919626Z" fill-rule="evenodd" style="fill: #184B42; stroke: #fff; opacity: 1;" id="p-type-logs"></path><path d="M294.7257617841145,36.68412927647854A297,297,0,0,1,294.00477622037096,42.073644477387624L254.6156050408003,36.436844947212535A257.2095449239783,257.2095449239783,0,0,0,255.23999685476406,31.769387869142875Z" fill-rule="evenodd" style="fill: #184B42; stroke: #fff; opacity: 1;" id="p-type-logs"></path><path d="M294.00477622037096,42.073644477387624A297,297,0,0,1,293.1852434637499,47.44905705176569L253.90586885433294,41.092088792446255A257.2095449239783,257.2095449239783,0,0,0,254.6156050408003,36.436844947212535Z" fill-rule="evenodd" style="fill: #184B42; stroke: #fff; opacity: 1;" id="p-type-logs"></path><path d="M293.1852434637499,47.44905705176569A297,297,0,0,1,292.2674382126888,52.80856521997306L253.11102619118728,45.733559017904035A257.2095449239783,257.2095449239783,0,0,0,253.90586885433294,41.092088792446255Z" fill-rule="evenodd" style="fill: #184B42; stroke: #fff; opacity: 1;" id="p-type-logs"></path><path d="M292.2674382126888,52.80856521997306A297,297,0,0,1,291.2516681054929,58.15037253335344L252.23134347395083,50.35969985341295A257.2095449239783,257.2095449239783,0,0,0,253.11102619118728,45.733559017904035Z" fill-rule="evenodd" style="fill: #184B42; stroke: #fff; opacity: 1;" id="p-type-logs"></path><path d="M291.2516681054929,58.15037253335344A297,297,0,0,1,290.13827361721843,63.47268847638395L251.26711556267156,54.9689606670443A257.2095449239783,257.2095449239783,0,0,0,252.23134347395083,50.35969985341295Z" fill-rule="evenodd" style="fill: #184B42; stroke: #fff; opacity: 1;" id="p-type-logs"></path><path d="M290.13827361721843,63.47268847638395A297,297,0,0,1,288.92762794554864,68.77372906683635L250.21866565602383,59.55979648486854A257.2095449239783,257.2095449239783,0,0,0,251.26711556267156,54.9689606670443Z" fill-rule="evenodd" style="fill: #184B42; stroke: #fff; opacity: 1;" id="p-type-logs"></path><path d="M288.92762794554864,68.77372906683635A297,297,0,0,1,287.62013688570244,74.05171745374845L249.08634518297598,64.13066850881367A257.2095449239783,257.2095449239783,0,0,0,250.21866565602383,59.55979648486854Z" fill-rule="evenodd" style="fill: #184B42; stroke: #fff; opacity: 1;" id="p-type-logs"></path><path d="M287.62013688570244,74.05171745374845A297,297,0,0,1,286.216238694416,79.30488451300513L247.8705336849949,68.68004463245356A257.2095449239783,257.2095449239783,0,0,0,249.08634518297598,64.13066850881367Z" fill-rule="evenodd" style="fill: #184B42; stroke: #fff; opacity: 1;" id="p-type-logs"></path><path d="M286.216238694416,79.30488451300513A297,297,0,0,1,284.7164039430441,84.53146944032946L246.5716386888281,73.20639995455326A257.2095449239783,257.2095449239783,0,0,0,247.8705336849949,68.68004463245356Z" fill-rule="evenodd" style="fill: #184B42; stroke: #fff; opacity: 1;" id="p-type-logs"></path><path d="M284.7164039430441,84.53146944032946A297,297,0,0,1,283.12113535982945,89.72972034148509L245.19009556990503,77.70821729019939A257.2095449239783,257.2095449239783,0,0,0,246.5716386888281,73.20639995455326Z" fill-rule="evenodd" style="fill: #184B42; stroke: #fff; opacity: 1;" id="p-type-logs"></path><path d="M283.12113535982945,89.72972034148509A297,297,0,0,1,281.43096766139405,94.89789481949204L243.7263674064041,82.18398767934377A257.2095449239783,257.2095449239783,0,0,0,245.19009556990503,77.70821729019939Z" fill-rule="evenodd" style="fill: #184B42; stroke: #fff; opacity: 1;" id="p-type-logs"></path><path d="M281.43096766139405,94.89789481949204A297,297,0,0,1,279.6464673735077,100.03426055865918L242.18094482403382,86.63221089259056A257.2095449239783,257.2095449239783,0,0,0,243.7263674064041,82.18398767934377Z" fill-rule="evenodd" style="fill: #184B42; stroke: #fff; opacity: 1;" id="p-type-logs"></path><path d="M279.6464673735077,100.03426055865918A297,297,0,0,1,277.7682326411947,105.13709590523762L240.55434583158055,91.05139593405666A257.2095449239783,257.2095449239783,0,0,0,242.18094482403382,86.63221089259056Z" fill-rule="evenodd" style="fill: #184B42; stroke: #fff; opacity: 1;" id="p-type-logs"></path><path d="M277.7682326411947,105.13709590523762A297,297,0,0,1,275.7968930282426,110.20469044450007L238.84711564727746,95.44006154113724A257.2095449239783,257.2095449239783,0,0,0,240.55434583158055,91.05139593405666Z" fill-rule="evenodd" style="fill: #184B42; stroke: #fff; opacity: 1;" id="p-type-logs"></path><path d="M275.7968930282426,110.20469044450007A297,297,0,0,1,273.7331093061789,115.23534557405343L237.05982651605345,99.79673668100895A257.2095449239783,257.2095449239783,0,0,0,238.84711564727746,95.44006154113724Z" fill-rule="evenodd" style="fill: #184B42; stroke: #fff; opacity: 1;" id="p-type-logs"></path><path d="M273.7331093061789,115.23534557405343A297,297,0,0,1,271.5775732327876,120.22737507319158L235.19307751772286,104.1199610437039A257.2095449239783,257.2095449239783,0,0,0,237.05982651605345,99.79673668100895Z" fill-rule="evenodd" style="fill: #184B42; stroke: #fff; opacity: 1;" id="p-type-logs"></path><path d="M271.5775732327876,120.22737507319158A297,297,0,0,1,269.33100732023985,125.17910566809825L233.24749436618035,108.4082855315897A257.2095449239783,257.2095449239783,0,0,0,235.19307751772286,104.1199610437039Z" fill-rule="evenodd" style="fill: #184B42; stroke: #fff; opacity: 1;" id="p-type-logs"></path><path d="M269.33100732023985,125.17910566809825A297,297,0,0,1,266.9941645929155,130.08887759271016L231.22372919966855,112.66027274509123A257.2095449239783,257.2095449239783,0,0,0,233.24749436618035,108.4082855315897Z" fill-rule="evenodd" style="fill: #184B42; stroke: #fff; opacity: 1;" id="p-type-logs"></path><path d="M266.9941645929155,130.08887759271016A297,297,0,0,1,264.5678283349978,134.9550451450525L229.1224603621885,116.87449746449126A257.2095449239783,257.2095449239783,0,0,0,231.22372919966855,112.66027274509123Z" fill-rule="evenodd" style="fill: #184B42; stroke: #fff; opacity: 1;" id="p-type-logs"></path><path d="M264.5678283349978,134.9550451450525A297,297,0,0,1,262.05281182792453,139.77597723886024L226.94439217612586,121.04954712764844A257.2095449239783,257.2095449239783,0,0,0,229.1224603621885,116.87449746449126Z" fill-rule="evenodd" style="fill: #184B42; stroke: #fff; opacity: 1;" id="p-type-logs"></path><path d="M262.05281182792453,139.77597723886024A297,297,0,0,1,259.4499580777858,144.55005795030038L224.69025470617012,125.1840223034729A257.2095449239783,257.2095449239783,0,0,0,226.94439217612586,121.04954712764844Z" fill-rule="evenodd" style="fill: #184B42; stroke: #fff; opacity: 1;" id="p-type-logs"></path><path d="M259.4499580777858,144.55005795030038A297,297,0,0,1,256.76013953275685,149.2756870596121L222.36080351460456,129.27653716100008A257.2095449239783,257.2095449239783,0,0,0,224.69025470617012,125.1840223034729Z" fill-rule="evenodd" style="fill: #184B42; stroke: #fff; opacity: 1;" id="p-type-logs"></path><path d="M256.76013953275685,149.2756870596121A297,297,0,0,1,253.98425779066326,153.95128058748293L219.9568194080501,133.32571993390633A257.2095449239783,257.2095449239783,0,0,0,222.36080351460456,129.27653716100008Z" fill-rule="evenodd" style="fill: #184B42; stroke: #fff; opacity: 1;" id="p-type-logs"></path><path d="M253.98425779066326,153.95128058748293A297,297,0,0,1,251.12324329677529,158.57527132598136L217.47910817574765,137.3302133803099A257.2095449239783,257.2095449239783,0,0,0,219.9568194080501,133.32571993390633Z" fill-rule="evenodd" style="fill: #184B42; stroke: #fff; opacity: 1;" id="p-type-logs"></path><path d="M251.12324329677529,158.57527132598136A297,297,0,0,1,248.1780550319325,163.14610936386768L214.928500319466,141.2886752377037A257.2095449239783,257.2095449239783,0,0,0,217.47910817574765,137.3302133803099Z" fill-rule="evenodd" style="fill: #184B42; stroke: #fff; opacity: 1;" id="p-type-logs"></path><path d="M248.1780550319325,163.14610936386768A297,297,0,0,1,245.14968019110412,167.66226260610753L212.30585077512697,145.19977867286687A257.2095449239783,257.2095449239783,0,0,0,214.928500319466,141.2886752377037Z" fill-rule="evenodd" style="fill: #184B42; stroke: #fff; opacity: 1;" id="p-type-logs"></path><path d="M245.14968019110412,167.66226260610753A297,297,0,0,1,242.03913385249183,172.12221728741338L209.61203862624004,149.06221272660505A257.2095449239783,257.2095449239783,0,0,0,212.30585077512697,145.19977867286687Z" fill-rule="evenodd" style="fill: #184B42; stroke: #fff; opacity: 1;" id="p-type-logs"></path><path d="M91.12328911667998,282.6756908199889A297,297,0,0,1,85.93295959365352,284.29654668229L74.42012603048565,246.20803163505173A257.2095449239783,257.2095449239783,0,0,0,78.91508325143893,244.80432928242604Z" fill-rule="evenodd" style="fill: #AE497E; stroke: #fff; opacity: 1;" id="p-type-tokenTransfers"></path><path d="M85.93295959365352,284.29654668229A297,297,0,0,1,80.7138262802517,285.8221094443209L69.90022399534202,247.529207742038A257.2095449239783,257.2095449239783,0,0,0,74.42012603048565,246.20803163505173Z" fill-rule="evenodd" style="fill: #AE497E; stroke: #fff; opacity: 1;" id="p-type-tokenTransfers"></path><path d="M80.7138262802517,285.8221094443209A297,297,0,0,1,75.46763857301119,287.25186775409026L65.35689216785009,248.7674147595702A257.2095449239783,257.2095449239783,0,0,0,69.90022399534202,247.529207742038Z" fill-rule="evenodd" style="fill: #AE497E; stroke: #fff; opacity: 1;" id="p-type-tokenTransfers"></path><path d="M75.46763857301119,287.25186775409026A297,297,0,0,1,70.19615493680627,288.58534237221386L60.79165342326266,249.922237654167A257.2095449239783,257.2095449239783,0,0,0,65.35689216785009,248.7674147595702Z" fill-rule="evenodd" style="fill: #AE497E; stroke: #fff; opacity: 1;" id="p-type-tokenTransfers"></path><path d="M70.19615493680627,288.58534237221386A297,297,0,0,1,64.90114231543062,289.82208633255027L56.206037979792114,250.9932893417953A257.2095449239783,257.2095449239783,0,0,0,60.79165342326266,249.922237654167Z" fill-rule="evenodd" style="fill: #AE497E; stroke: #fff; opacity: 1;" id="p-type-tokenTransfers"></path><path d="M64.90114231543062,289.82208633255027A297,297,0,0,1,59.58437553933696,290.9616850920191L51.60158288569792,251.9802108176165A257.2095449239783,257.2095449239783,0,0,0,56.206037979792114,250.9932893417953Z" fill-rule="evenodd" style="fill: #AE497E; stroke: #fff; opacity: 1;" id="p-type-tokenTransfers"></path><path d="M59.58437553933696,290.9616850920191A297,297,0,0,1,54.24763673073333,292.0037566695511L46.979831504084885,252.88267127632093A257.2095449239783,257.2095449239783,0,0,0,51.60158288569792,251.9802108176165Z" fill-rule="evenodd" style="fill: #AE497E; stroke: #fff; opacity: 1;" id="p-type-tokenTransfers"></path><path d="M54.24763673073333,292.0037566695511A297,297,0,0,1,48.89271470623513,292.94795177412436L42.34233299558465,253.70036822301034A257.2095449239783,257.2095449239783,0,0,0,46.979831504084885,252.88267127632093Z" fill-rule="evenodd" style="fill: #AE497E; stroke: #fff; opacity: 1;" id="p-type-tokenTransfers"></path><path d="M48.89271470623513,292.94795177412436A297,297,0,0,1,43.52140437727331,293.79395392184273L37.69064179909396,254.43302757459062A257.2095449239783,257.2095449239783,0,0,0,42.34233299558465,253.70036822301034Z" fill-rule="evenodd" style="fill: #AE497E; stroke: #fff; opacity: 1;" id="p-type-tokenTransfers"></path><path d="M43.52140437727331,293.79395392184273A297,297,0,0,1,38.135506148459655,294.5414795420176L33.02631711074371,255.0804037516418A257.2095449239783,257.2095449239783,0,0,0,37.69064179909396,254.43302757459062Z" fill-rule="evenodd" style="fill: #AE497E; stroke: #fff; opacity: 1;" id="p-type-tokenTransfers"></path><path d="M38.135506148459655,294.5414795420176A297,297,0,0,1,32.736825314110774,295.190278072218L28.350922361273415,255.64227976073332A257.2095449239783,257.2095449239783,0,0,0,33.02631711074371,255.0804037516418Z" fill-rule="evenodd" style="fill: #AE497E; stroke: #fff; opacity: 1;" id="p-type-tokenTransfers"></path><path d="M32.736825314110774,295.190278072218A297,297,0,0,1,27.327171453133207,295.7401320422561L23.666024691986273,256.11846726715805A257.2095449239783,257.2095449239783,0,0,0,28.350922361273415,255.64227976073332Z" fill-rule="evenodd" style="fill: #AE497E; stroke: #fff; opacity: 1;" id="p-type-tokenTransfers"></path><path d="M27.327171453133207,295.7401320422561A297,297,0,0,1,21.90835782247228,296.1908571470809L18.973194429460523,256.50880665805977A257.2095449239783,257.2095449239783,0,0,0,23.666024691986273,256.11846726715805Z" fill-rule="evenodd" style="fill: #AE497E; stroke: #fff; opacity: 1;" id="p-type-tokenTransfers"></path><path d="M21.90835782247228,296.1908571470809A297,297,0,0,1,16.482200749328154,296.5423023085557L14.274004559193092,256.81316709593403A257.2095449239783,257.2095449239783,0,0,0,18.973194429460523,256.50880665805977Z" fill-rule="evenodd" style="fill: #AE497E; stroke: #fff; opacity: 1;" id="p-type-tokenTransfers"></path><path d="M16.482200749328154,296.5423023085557A297,297,0,0,1,11.050519022342783,296.7943497260971L9.570030198352029,257.03144656248315A257.2095449239783,257.2095449239783,0,0,0,14.274004559193092,256.81316709593403Z" fill-rule="evenodd" style="fill: #AE497E; stroke: #fff; opacity: 1;" id="p-type-tokenTransfers"></path><path d="M11.050519022342783,296.7943497260971A297,297,0,0,1,5.615133281961811,296.94691491616106L4.862848067814418,257.1635718928118A257.2095449239783,257.2095449239783,0,0,0,9.570030198352029,257.03144656248315Z" fill-rule="evenodd" style="fill: #AE497E; stroke: #fff; opacity: 1;" id="p-type-tokenTransfers"></path><path d="M5.615133281961811,296.94691491616106A297,297,0,0,1,0.17786541017575055,296.99994674056063L0.15403596366673916,257.20949879995084A257.2095449239783,257.2095449239783,0,0,0,4.862848067814418,257.1635718928118Z" fill-rule="evenodd" style="fill: #AE497E; stroke: #fff; opacity: 1;" id="p-type-tokenTransfers"></path><path d="M0.17786541017575055,296.99994674056063A297,297,0,0,1,-5.259462080154975,296.95342742360697L-4.554827771655156,257.16921188970224A257.2095449239783,257.2095449239783,0,0,0,0.15403596366673916,257.20949879995084Z" fill-rule="evenodd" style="fill: #AE497E; stroke: #fff; opacity: 1;" id="p-type-tokenTransfers"></path><path d="M-5.259462080154975,296.95342742360697A297,297,0,0,1,-10.695026656186457,296.80737255806747L-9.262164778409211,257.0427246657987A257.2095449239783,257.2095449239783,0,0,0,-4.554827771655156,257.16921188970224Z" fill-rule="evenodd" style="fill: #AE497E; stroke: #fff; opacity: 1;" id="p-type-tokenTransfers"></path><path d="M-10.695026656186457,296.80737255806747A297,297,0,0,1,-16.127006375984422,296.56183109993935L-13.966397208596126,256.83007952537747A257.2095449239783,257.2095449239783,0,0,0,-9.262164778409211,257.0427246657987Z" fill-rule="evenodd" style="fill: #AE497E; stroke: #fff; opacity: 1;" id="p-type-tokenTransfers"></path><path d="M-16.127006375984422,296.56183109993935A297,297,0,0,1,-21.553580499219294,296.2168853520401L-18.665948254836792,256.53134774476933A257.2095449239783,257.2095449239783,0,0,0,-13.966397208596126,256.83007952537747Z" fill-rule="evenodd" style="fill: #AE497E; stroke: #fff; opacity: 1;" id="p-type-tokenTransfers"></path><path d="M-21.553580499219294,296.2168853520401A297,297,0,0,1,-26.97293009745847,295.77265093642046L-23.35924267890091,256.14662945560735A257.2095449239783,257.2095449239783,0,0,0,-18.665948254836792,256.53134774476933Z" fill-rule="evenodd" style="fill: #AE497E; stroke: #fff; opacity: 1;" id="p-type-tokenTransfers"></path><path d="M-26.97293009745847,295.77265093642046A297,297,0,0,1,-32.3832386638513,295.22927675560913L-28.044707339709667,255.6760536112642A257.2095449239783,257.2095449239783,0,0,0,-23.35924267890091,256.14662945560735Z" fill-rule="evenodd" style="fill: #AE497E; stroke: #fff; opacity: 1;" id="p-type-tokenTransfers"></path><path d="M-32.3832386638513,295.22927675560913A297,297,0,0,1,-37.78269272200236,294.58694494270236L-32.72077172063547,255.11977794362804A257.2095449239783,257.2095449239783,0,0,0,-28.044707339709667,255.6760536112642Z" fill-rule="evenodd" style="fill: #AE497E; stroke: #fff; opacity: 1;" id="p-type-tokenTransfers"></path><path d="M-37.78269272200236,294.58694494270236A297,297,0,0,1,-43.16948243382895,293.84587080031486L-37.385868455921944,254.47798891023268A257.2095449239783,257.2095449239783,0,0,0,-32.72077172063547,255.11977794362804Z" fill-rule="evenodd" style="fill: #AE497E; stroke: #fff; opacity: 1;" id="p-type-tokenTransfers"></path><path d="M-173.0676021051013,241.36405097195055A297,297,0,0,1,-196.12164740502544,223.03654278870735L-169.84632888480647,193.1553120272755A257.2095449239783,257.2095449239783,0,0,0,-149.8809399950749,209.02739970203132Z" fill-rule="evenodd" style="fill: #F09B24; stroke: #fff; opacity: 1;" id="p-type-ether"></path></g></svg>