<svg xmlns="http://www.w3.org/2000/svg" width="400" height="400" id="block-7907876"><g id="burst-container" transform="translate(200,200)"><circle r="197" style="fill: #f9f9f9; stroke: #f9f9f9; stroke-width: 3; opacity: 1;" id="circle-base"></circle><path display="none" d="M6.031385485800715e-15,-98.5A98.5,98.5,0,1,1,-6.031385485800715e-15,98.5A98.5,98.5,0,1,1,6.031385485800715e-15,-98.5Z" fill-rule="evenodd" id="p-type-root" style="stroke: #fff; opacity: 1;"></path><path d="M8.529667153919608e-15,-139.30003589374985A139.30003589374985,139.30003589374985,0,1,1,-98.16958174732909,-98.82931356411653L-69.41637695978352,-69.88287780119845A98.5,98.5,0,1,0,6.031385485800715e-15,-98.5Z" fill-rule="evenodd" style="fill: #0B1F65; stroke: #fff; opacity: 1;" id="p-type-data"></path><path d="M-98.16958174732909,-98.82931356411653A139.30003589374985,139.30003589374985,0,0,1,-2.074961177319021,-139.2845811140365L-1.467219119181102,-98.48907182046295A98.5,98.5,0,0,0,-69.41637695978352,-69.88287780119845Z" fill-rule="evenodd" style="fill: #D7A449; stroke: #fff; opacity: 1;" id="p-type-value"></path><path d="M1.0446666101440332e-14,-170.6070045455344A170.6070045455344,170.6070045455344,0,0,1,165.68955014887618,40.66599281295169L135.2849511920104,33.20364409180654A139.30003589374985,139.30003589374985,0,0,0,8.529667153919608e-15,-139.30003589374985Z" fill-rule="evenodd" style="fill: #DB3F29; stroke: #fff; opacity: 1;" id="p-type-functions"></path><path d="M165.68955014887618,40.66599281295169A170.6070045455344,170.6070045455344,0,0,1,50.78973230096723,162.87158466962887L41.46964276997423,132.9840920130326A139.30003589374985,139.30003589374985,0,0,0,135.2849511920104,33.20364409180654Z" fill-rule="evenodd" style="fill: #1DC690; stroke: #fff; opacity: 1;" id="p-type-logs"></path><path d="M50.78973230096723,162.87158466962887A170.6070045455344,170.6070045455344,0,0,1,-104.78782571845032,134.63380549178456L-85.55890142196512,109.9280418613306A139.30003589374985,139.30003589374985,0,0,0,41.46964276997423,132.9840920130326Z" fill-rule="evenodd" style="fill: #414552; stroke: #fff; opacity: 1;" id="p-type-ether"></path><path d="M-104.78782571845032,134.63380549178456A170.6070045455344,170.6070045455344,0,0,1,-170.12443746933985,12.822861449016575L-138.9060215259687,10.46982253083198A139.30003589374985,139.30003589374985,0,0,0,-85.55890142196512,109.9280418613306Z" fill-rule="evenodd" style="fill: #D7A449; stroke: #fff; opacity: 1;" id="p-type-tokenTransfers"></path><path d="M-120.23269177169865,-121.04069493080294A170.6070045455344,170.6070045455344,0,0,1,-60.89108921010842,-159.37071642810236L-49.71736614901867,-130.12564506354775A139.30003589374985,139.30003589374985,0,0,0,-98.16958174732909,-98.82931356411653Z" fill-rule="evenodd" style="fill: #D7A449; stroke: #fff; opacity: 1;" id="p-type-tokenTransfers"></path><path d="M-60.89108921010842,-159.37071642810236A170.6070045455344,170.6070045455344,0,0,1,-5.082032226882671,-170.531296096772L-4.149461937414218,-139.238220204188A139.30003589374985,139.30003589374985,0,0,0,-49.71736614901867,-130.12564506354775Z" fill-rule="evenodd" style="fill: #414552; stroke: #fff; opacity: 1;" id="p-type-ether"></path><path d="M1.206277097160143e-14,-197A197,197,0,0,1,85.12205169737801,-177.66045230953597L73.71785919218165,-153.8584649478919A170.6070045455344,170.6070045455344,0,0,0,1.0446666101440332e-14,-170.6070045455344Z" fill-rule="evenodd" style="fill: #DB3F29; stroke: #fff; opacity: 1;" id="p-type-functions"></path><path d="M85.12205169737801,-177.66045230953597A197,197,0,0,1,92.74556642412745,-173.8023587546146L80.32001661167143,-150.51725791915297A170.6070045455344,170.6070045455344,0,0,0,73.71785919218165,-153.8584649478919Z" fill-rule="evenodd" style="fill: #DB3F29; stroke: #fff; opacity: 1;" id="p-type-functions"></path><path d="M92.74556642412745,-173.8023587546146A197,197,0,0,1,99.71179154608602,-169.9016145499209L86.35294453576891,-147.1391143442233A170.6070045455344,170.6070045455344,0,0,0,80.32001661167143,-150.51725791915297Z" fill-rule="evenodd" style="fill: #DB3F29; stroke: #fff; opacity: 1;" id="p-type-functions"></path><path d="M99.71179154608602,-169.9016145499209A197,197,0,0,1,105.43970820369336,-166.4075356885018L91.31346587201693,-144.11315328740815A170.6070045455344,170.6070045455344,0,0,0,86.35294453576891,-147.1391143442233Z" fill-rule="evenodd" style="fill: #DB3F29; stroke: #fff; opacity: 1;" id="p-type-functions"></path><path d="M105.43970820369336,-166.4075356885018A197,197,0,0,1,106.67619018460505,-165.61760307315757L92.38429067880816,-143.42905157524217A170.6070045455344,170.6070045455344,0,0,0,91.31346587201693,-144.11315328740815Z" fill-rule="evenodd" style="fill: #DB3F29; stroke: #fff; opacity: 1;" id="p-type-functions"></path><path d="M106.67619018460505,-165.61760307315757A197,197,0,0,1,107.90675443594117,-164.81848302633261L93.44999058145422,-142.73699331401835A170.6070045455344,170.6070045455344,0,0,0,92.38429067880816,-143.42905157524217Z" fill-rule="evenodd" style="fill: #DB3F29; stroke: #fff; opacity: 1;" id="p-type-functions"></path><path d="M107.90675443594117,-164.81848302633261A197,197,0,0,1,109.13133269367337,-164.01021987822216L94.51050646157239,-142.0370168948119A170.6070045455344,170.6070045455344,0,0,0,93.44999058145422,-142.73699331401835Z" fill-rule="evenodd" style="fill: #DB3F29; stroke: #fff; opacity: 1;" id="p-type-functions"></path><path d="M109.13133269367337,-164.01021987822216A197,197,0,0,1,110.34985702583899,-163.1928584662236L95.56577948835728,-141.32916114794804A170.6070045455344,170.6070045455344,0,0,0,94.51050646157239,-142.0370168948119Z" fill-rule="evenodd" style="fill: #DB3F29; stroke: #fff; opacity: 1;" id="p-type-functions"></path><path d="M110.34985702583899,-163.1928584662236A197,197,0,0,1,111.56225983630932,-162.36644413244937L96.61575112184424,-140.61346534084797A170.6070045455344,170.6070045455344,0,0,0,95.56577948835728,-141.32916114794804Z" fill-rule="evenodd" style="fill: #DB3F29; stroke: #fff; opacity: 1;" id="p-type-functions"></path><path d="M111.56225983630932,-162.36644413244937A197,197,0,0,1,112.76847386853954,-161.5310227212114L97.66036311615687,-139.88996917585044A170.6070045455344,170.6070045455344,0,0,0,96.61575112184424,-140.61346534084797Z" fill-rule="evenodd" style="fill: #DB3F29; stroke: #fff; opacity: 1;" id="p-type-functions"></path><path d="M112.76847386853954,-161.5310227212114A197,197,0,0,1,113.96843220929959,-160.6866405764782L98.6995575227381,-139.15871278800947A170.6070045455344,170.6070045455344,0,0,0,97.66036311615687,-139.88996917585044Z" fill-rule="evenodd" style="fill: #DB3F29; stroke: #fff; opacity: 1;" id="p-type-functions"></path><path d="M113.96843220929959,-160.6866405764782A197,197,0,0,1,115.16206829238618,-159.83334453930377L99.73327669356485,-138.41973674286783A170.6070045455344,170.6070045455344,0,0,0,98.6995575227381,-139.15871278800947Z" fill-rule="evenodd" style="fill: #DB3F29; stroke: #fff; opacity: 1;" id="p-type-functions"></path><path d="M115.16206829238618,-159.83334453930377A197,197,0,0,1,116.34931590231545,-158.97118194522932L100.76146328434594,-137.67308203420666A170.6070045455344,170.6070045455344,0,0,0,99.73327669356485,-138.41973674286783Z" fill-rule="evenodd" style="fill: #DB3F29; stroke: #fff; opacity: 1;" id="p-type-functions"></path><path d="M116.34931590231545,-158.97118194522932A197,197,0,0,1,117.53010917799614,-158.10020062165736L101.78406025770326,-136.91879008177156A170.6070045455344,170.6070045455344,0,0,0,100.76146328434594,-137.67308203420666Z" fill-rule="evenodd" style="fill: #DB3F29; stroke: #fff; opacity: 1;" id="p-type-functions"></path><path d="M117.53010917799614,-158.10020062165736A197,197,0,0,1,118.70438261638323,-157.22044888519844L102.80101088633577,-136.15690272897467A170.6070045455344,170.6070045455344,0,0,0,101.78406025770326,-136.91879008177156Z" fill-rule="evenodd" style="fill: #DB3F29; stroke: #fff; opacity: 1;" id="p-type-functions"></path><path d="M118.70438261638323,-157.22044888519844A197,197,0,0,1,119.87207107611155,-156.33197553899092L103.81225875616643,-135.3874622405736A170.6070045455344,170.6070045455344,0,0,0,102.80101088633577,-136.15690272897467Z" fill-rule="evenodd" style="fill: #DB3F29; stroke: #fff; opacity: 1;" id="p-type-functions"></path><path d="M119.87207107611155,-156.33197553899092A197,197,0,0,1,121.03310978110954,-155.4348298699937L104.81774776947168,-134.6105113003268A170.6070045455344,170.6070045455344,0,0,0,103.81225875616643,-135.3874622405736Z" fill-rule="evenodd" style="fill: #DB3F29; stroke: #fff; opacity: 1;" id="p-type-functions"></path><path d="M121.03310978110954,-155.4348298699937A197,197,0,0,1,122.18743432419251,-154.52906164625196L105.81742214799338,-133.82609300862578A170.6070045455344,170.6070045455344,0,0,0,104.81774776947168,-134.6105113003268Z" fill-rule="evenodd" style="fill: #DB3F29; stroke: #fff; opacity: 1;" id="p-type-functions"></path><path d="M122.18743432419251,-154.52906164625196A197,197,0,0,1,123.33498067063556,-153.61472111413656L106.8112264360331,-133.03425088010403A170.6070045455344,170.6070045455344,0,0,0,105.81742214799338,-133.82609300862578Z" fill-rule="evenodd" style="fill: #DB3F29; stroke: #fff; opacity: 1;" id="p-type-functions"></path><path d="M123.33498067063556,-153.61472111413656A197,197,0,0,1,124.4756851617259,-152.69185899555643L107.79910550352834,-132.2350288412233A170.6070045455344,170.6070045455344,0,0,0,106.8112264360331,-133.03425088010403Z" fill-rule="evenodd" style="fill: #DB3F29; stroke: #fff; opacity: 1;" id="p-type-functions"></path><path d="M124.4756851617259,-152.69185899555643A197,197,0,0,1,125.60948451829422,-151.76052648514505L108.78100454911095,-131.42847122783672A170.6070045455344,170.6070045455344,0,0,0,107.79910550352834,-132.2350288412233Z" fill-rule="evenodd" style="fill: #DB3F29; stroke: #fff; opacity: 1;" id="p-type-functions"></path><path d="M125.60948451829422,-151.76052648514505A197,197,0,0,1,126.7363158442249,-150.8207752474203L109.75686910314701,-130.6146227827292A170.6070045455344,170.6070045455344,0,0,0,108.78100454911095,-131.42847122783672Z" fill-rule="evenodd" style="fill: #DB3F29; stroke: #fff; opacity: 1;" id="p-type-functions"></path><path d="M126.7363158442249,-150.8207752474203A197,197,0,0,1,127.85611662994532,-149.87265741391863L110.72664503075868,-129.79352865313572A170.6070045455344,170.6070045455344,0,0,0,109.75686910314701,-130.6146227827292Z" fill-rule="evenodd" style="fill: #DB3F29; stroke: #fff; opacity: 1;" id="p-type-functions"></path><path d="M127.85611662994532,-149.87265741391863A197,197,0,0,1,128.96882475589325,-148.91622558030303L111.69027853482696,-128.96523438823647A170.6070045455344,170.6070045455344,0,0,0,110.72664503075868,-129.79352865313572Z" fill-rule="evenodd" style="fill: #DB3F29; stroke: #fff; opacity: 1;" id="p-type-functions"></path><path d="M128.96882475589325,-148.91622558030303A197,197,0,0,1,130.07437849596306,-147.95153280344525L112.64771615897632,-128.1297859366303A170.6070045455344,170.6070045455344,0,0,0,111.69027853482696,-128.96523438823647Z" fill-rule="evenodd" style="fill: #DB3F29; stroke: #fff; opacity: 1;" id="p-type-functions"></path><path d="M130.07437849596306,-147.95153280344525A197,197,0,0,1,131.1727165209298,-146.9786325984828L113.59890479053995,-127.2872296437857A170.6070045455344,170.6070045455344,0,0,0,112.64771615897632,-128.1297859366303Z" fill-rule="evenodd" style="fill: #DB3F29; stroke: #fff; opacity: 1;" id="p-type-functions"></path><path d="M131.1727165209298,-146.9786325984828A197,197,0,0,1,132.2637779018514,-145.9975789358499L114.54379166350617,-126.43761224946986A170.6070045455344,170.6070045455344,0,0,0,113.59890479053995,-127.2872296437857Z" fill-rule="evenodd" style="fill: #DB3F29; stroke: #fff; opacity: 1;" id="p-type-functions"></path><path d="M132.2637779018514,-145.9975789358499A197,197,0,0,1,133.34750211344857,-145.00842623828393L115.48232436144556,-125.58098088515584A170.6070045455344,170.6070045455344,0,0,0,114.54379166350617,-126.43761224946986Z" fill-rule="evenodd" style="fill: #DB3F29; stroke: #fff; opacity: 1;" id="p-type-functions"></path><path d="M133.34750211344857,-145.00842623828393A197,197,0,0,1,134.42382903746238,-144.0112293778061L116.41445082041872,-124.71738307140794A170.6070045455344,170.6070045455344,0,0,0,115.48232436144556,-125.58098088515584Z" fill-rule="evenodd" style="fill: #DB3F29; stroke: #fff; opacity: 1;" id="p-type-functions"></path><path d="M134.42382903746238,-144.0112293778061A197,197,0,0,1,135.49269896598938,-143.00604367267763L117.34011933186433,-123.84686671524571A170.6070045455344,170.6070045455344,0,0,0,116.41445082041872,-124.71738307140794Z" fill-rule="evenodd" style="fill: #DB3F29; stroke: #fff; opacity: 1;" id="p-type-functions"></path><path d="M135.49269896598938,-143.00604367267763A197,197,0,0,1,136.55405260479358,-141.992924884331L118.25927854546784,-122.96948010748622A170.6070045455344,170.6070045455344,0,0,0,117.34011933186433,-123.84686671524571Z" fill-rule="evenodd" style="fill: #DB3F29; stroke: #fff; opacity: 1;" id="p-type-functions"></path><path d="M136.55405260479358,-141.992924884331A197,197,0,0,1,137.60783107659597,-140.97192921427666L119.17187747200985,-122.08527192006524A170.6070045455344,170.6070045455344,0,0,0,118.25927854546784,-122.96948010748622Z" fill-rule="evenodd" style="fill: #DB3F29; stroke: #fff; opacity: 1;" id="p-type-functions"></path><path d="M137.60783107659597,-140.97192921427666A197,197,0,0,1,138.65397592434047,-139.94311330098532L120.0778654861948,-121.19429120333724A170.6070045455344,170.6070045455344,0,0,0,119.17187747200985,-122.08527192006524Z" fill-rule="evenodd" style="fill: #DB3F29; stroke: #fff; opacity: 1;" id="p-type-functions"></path><path d="M138.65397592434047,-139.94311330098532A197,197,0,0,1,139.69242911443692,-138.90653421674597L120.9771923294593,-120.29658738335436A170.6070045455344,170.6070045455344,0,0,0,120.0778654861948,-121.19429120333724Z" fill-rule="evenodd" style="fill: #DB3F29; stroke: #fff; opacity: 1;" id="p-type-functions"></path><path d="M139.69242911443692,-138.90653421674597A197,197,0,0,1,140.72313303998024,-137.86224946449997L121.86980811276015,-119.3922102591246A170.6070045455344,170.6070045455344,0,0,0,120.9771923294593,-120.29658738335436Z" fill-rule="evenodd" style="fill: #DB3F29; stroke: #fff; opacity: 1;" id="p-type-functions"></path><path d="M140.72313303998024,-137.86224946449997A197,197,0,0,1,141.7460305239463,-136.81031697465102L122.75566331934195,-118.4812099998492A170.6070045455344,170.6070045455344,0,0,0,121.86980811276015,-119.3922102591246Z" fill-rule="evenodd" style="fill: #DB3F29; stroke: #fff; opacity: 1;" id="p-type-functions"></path><path d="M141.7460305239463,-136.81031697465102A197,197,0,0,1,142.7610648223636,-135.7507951018516L123.63470880748386,-117.56363714213963A170.6070045455344,170.6070045455344,0,0,0,122.75566331934195,-118.4812099998492Z" fill-rule="evenodd" style="fill: #DB3F29; stroke: #fff; opacity: 1;" id="p-type-functions"></path><path d="M142.7610648223636,-135.7507951018516A197,197,0,0,1,143.76817962746117,-134.68374262176584L124.50689581322575,-116.63954258721417A170.6070045455344,170.6070045455344,0,0,0,123.63470880748386,-117.56363714213963Z" fill-rule="evenodd" style="fill: #DB3F29; stroke: #fff; opacity: 1;" id="p-type-functions"></path><path d="M143.76817962746117,-134.68374262176584A197,197,0,0,1,144.76731907079207,-133.60921872780892L125.37217595307335,-115.7089775980741A170.6070045455344,170.6070045455344,0,0,0,124.50689581322575,-116.63954258721417Z" fill-rule="evenodd" style="fill: #DB3F29; stroke: #fff; opacity: 1;" id="p-type-functions"></path><path d="M144.76731907079207,-133.60921872780892A197,197,0,0,1,145.75842772633268,-132.52728302786352L126.2305012266822,-114.7719937966601A170.6070045455344,170.6070045455344,0,0,0,125.37217595307335,-115.7089775980741Z" fill-rule="evenodd" style="fill: #DB3F29; stroke: #fff; opacity: 1;" id="p-type-functions"></path><path d="M145.75842772633268,-132.52728302786352A197,197,0,0,1,146.7414506135575,-131.43799554097308L127.0818240195204,-113.82864316098845A170.6070045455344,170.6070045455344,0,0,0,126.2305012266822,-114.7719937966601Z" fill-rule="evenodd" style="fill: #DB3F29; stroke: #fff; opacity: 1;" id="p-type-functions"></path><path d="M146.7414506135575,-131.43799554097308A197,197,0,0,1,147.7163332004889,-130.34141669401228L127.92609710551008,-112.87897802226776A170.6070045455344,170.6070045455344,0,0,0,127.0818240195204,-113.82864316098845Z" fill-rule="evenodd" style="fill: #DB3F29; stroke: #fff; opacity: 1;" id="p-type-functions"></path><path d="M147.7163332004889,-130.34141669401228A197,197,0,0,1,148.68302140672233,-129.237607318335L128.76327364964703,-111.92305106199578A170.6070045455344,170.6070045455344,0,0,0,127.92609710551008,-112.87897802226776Z" fill-rule="evenodd" style="fill: #DB3F29; stroke: #fff; opacity: 1;" id="p-type-functions"></path><path d="M148.68302140672233,-129.237607318335A197,197,0,0,1,149.64146160642642,-128.1266286463997L129.593307210599,-110.96091530903712A170.6070045455344,170.6070045455344,0,0,0,128.76327364964703,-111.92305106199578Z" fill-rule="evenodd" style="fill: #DB3F29; stroke: #fff; opacity: 1;" id="p-type-functions"></path><path d="M149.64146160642642,-128.1266286463997A197,197,0,0,1,150.5916006313177,-127.00854230837275L130.41615174328183,-109.99262413668147A170.6070045455344,170.6070045455344,0,0,0,129.593307210599,-110.96091530903712Z" fill-rule="evenodd" style="fill: #DB3F29; stroke: #fff; opacity: 1;" id="p-type-functions"></path><path d="M150.5916006313177,-127.00854230837275A197,197,0,0,1,151.53338577361018,-125.88341032870945L131.23176160141387,-109.01823125968278A170.6070045455344,170.6070045455344,0,0,0,130.41615174328183,-109.99262413668147Z" fill-rule="evenodd" style="fill: #DB3F29; stroke: #fff; opacity: 1;" id="p-type-functions"></path><path d="M151.53338577361018,-125.88341032870945A197,197,0,0,1,152.46676478893906,-124.75129512271337L132.040091540048,-108.03779073127953A170.6070045455344,170.6070045455344,0,0,0,131.23176160141387,-109.01823125968278Z" fill-rule="evenodd" style="fill: #DB3F29; stroke: #fff; opacity: 1;" id="p-type-functions"></path><path d="M152.46676478893906,-124.75129512271337A197,197,0,0,1,153.39168589925913,-123.61225949307386L132.84109671808167,-107.0513569401961A170.6070045455344,170.6070045455344,0,0,0,132.040091540048,-108.03779073127953Z" fill-rule="evenodd" style="fill: #DB3F29; stroke: #fff; opacity: 1;" id="p-type-functions"></path><path d="M153.39168589925913,-123.61225949307386A197,197,0,0,1,154.30809779571686,-122.4663666263823L133.63473270074434,-106.05898460762582A170.6070045455344,170.6070045455344,0,0,0,132.84109671808167,-107.0513569401961Z" fill-rule="evenodd" style="fill: #DB3F29; stroke: #fff; opacity: 1;" id="p-type-functions"></path><path d="M154.30809779571686,-122.4663666263823A197,197,0,0,1,155.21594964149693,-121.31368008962669L134.42095546206247,-105.06072878419516A170.6070045455344,170.6070045455344,0,0,0,133.63473270074434,-106.05898460762582Z" fill-rule="evenodd" style="fill: #DB3F29; stroke: #fff; opacity: 1;" id="p-type-functions"></path><path d="M155.21594964149693,-121.31368008962669A197,197,0,0,1,156.1151910746422,-120.15426382666557L135.1997213873018,-104.05664484691002A170.6070045455344,170.6070045455344,0,0,0,134.42095546206247,-105.06072878419516Z" fill-rule="evenodd" style="fill: #DB3F29; stroke: #fff; opacity: 1;" id="p-type-functions"></path><path d="M156.1151910746422,-120.15426382666557A197,197,0,0,1,157.0057722108475,-118.98818215468066L135.97098727538682,-103.04678849608365A170.6070045455344,170.6070045455344,0,0,0,135.1997213873018,-104.05664484691002Z" fill-rule="evenodd" style="fill: #DB3F29; stroke: #fff; opacity: 1;" id="p-type-functions"></path><path d="M157.0057722108475,-118.98818215468066A197,197,0,0,1,157.88764364622696,-117.81549976060894L136.73471034129724,-102.0312157522468A170.6070045455344,170.6070045455344,0,0,0,135.97098727538682,-103.04678849608365Z" fill-rule="evenodd" style="fill: #DB3F29; stroke: #fff; opacity: 1;" id="p-type-functions"></path><path d="M157.88764364622696,-117.81549976060894A197,197,0,0,1,158.76075646005447,-116.63628169755444L137.49084821844158,-101.00998295304011A170.6070045455344,170.6070045455344,0,0,0,136.73471034129724,-102.0312157522468Z" fill-rule="evenodd" style="fill: #DB3F29; stroke: #fff; opacity: 1;" id="p-type-functions"></path><path d="M158.76075646005447,-116.63628169755444A197,197,0,0,1,159.62506221747773,-115.45059338117912L138.2393589610073,-99.98314675008868A170.6070045455344,170.6070045455344,0,0,0,137.49084821844158,-101.00998295304011Z" fill-rule="evenodd" style="fill: #DB3F29; stroke: #fff; opacity: 1;" id="p-type-functions"></path><path d="M159.62506221747773,-115.45059338117912A197,197,0,0,1,160.48051297220493,-114.2585005860744L138.98020104628762,-98.9507641058596A170.6070045455344,170.6070045455344,0,0,0,138.2393589610073,-99.98314675008868Z" fill-rule="evenodd" style="fill: #DB3F29; stroke: #fff; opacity: 1;" id="p-type-functions"></path><path d="M160.48051297220493,-114.2585005860744A197,197,0,0,1,161.32706126916455,-113.06006944211217L139.7133333769851,-97.91289229050186A170.6070045455344,170.6070045455344,0,0,0,138.98020104628762,-98.9507641058596Z" fill-rule="evenodd" style="fill: #DB3F29; stroke: #fff; opacity: 1;" id="p-type-functions"></path><path d="M161.32706126916455,-113.06006944211217A197,197,0,0,1,162.16466014713797,-111.85536643077634L140.4387152834914,-96.86958887866942A170.6070045455344,170.6070045455344,0,0,0,139.7133333769851,-97.91289229050186Z" fill-rule="evenodd" style="fill: #DB3F29; stroke: #fff; opacity: 1;" id="p-type-functions"></path><path d="M162.16466014713797,-111.85536643077634A197,197,0,0,1,162.9932631413644,-110.64445838147496L141.15630652614337,-95.82091174632737A170.6070045455344,170.6070045455344,0,0,0,140.4387152834914,-96.86958887866942Z" fill-rule="evenodd" style="fill: #DB3F29; stroke: #fff; opacity: 1;" id="p-type-functions"></path><path d="M162.9932631413644,-110.64445838147496A197,197,0,0,1,163.81282428611865,-109.42741246783282L141.8660672974552,-94.76691906754124A170.6070045455344,170.6070045455344,0,0,0,141.15630652614337,-95.82091174632737Z" fill-rule="evenodd" style="fill: #DB3F29; stroke: #fff; opacity: 1;" id="p-type-functions"></path><path d="M163.81282428611865,-109.42741246783282A197,197,0,0,1,164.62329811726093,-108.2042962039652L142.5679582243269,-93.70766931124996A170.6070045455344,170.6070045455344,0,0,0,141.8660672974552,-94.76691906754124Z" fill-rule="evenodd" style="fill: #DB3F29; stroke: #fff; opacity: 1;" id="p-type-functions"></path><path d="M164.62329811726093,-108.2042962039652A197,197,0,0,1,165.42463967475882,-106.9751774407325L143.26194037022827,-92.64322123802233A170.6070045455344,170.6070045455344,0,0,0,142.5679582243269,-93.70766931124996Z" fill-rule="evenodd" style="fill: #DB3F29; stroke: #fff; opacity: 1;" id="p-type-functions"></path><path d="M165.42463967475882,-106.9751774407325A197,197,0,0,1,166.21680450518167,-105.74012436197633L143.94797523735906,-91.5736338967973A170.6070045455344,170.6070045455344,0,0,0,143.26194037022827,-92.64322123802233Z" fill-rule="evenodd" style="fill: #DB3F29; stroke: #fff; opacity: 1;" id="p-type-functions"></path><path d="M166.21680450518167,-105.74012436197633A197,197,0,0,1,166.9997486641662,-104.49920548073715L144.62602476878428,-90.49896662160842A170.6070045455344,170.6070045455344,0,0,0,143.94797523735906,-91.5736338967973Z" fill-rule="evenodd" style="fill: #DB3F29; stroke: #fff; opacity: 1;" id="p-type-functions"></path><path d="M166.9997486641662,-104.49920548073715A197,197,0,0,1,167.77342871885455,-103.2524896354535L145.29605135054575,-89.41927902829218A170.6070045455344,170.6070045455344,0,0,0,144.62602476878428,-90.49896662160842Z" fill-rule="evenodd" style="fill: #DB3F29; stroke: #fff; opacity: 1;" id="p-type-functions"></path><path d="M167.77342871885455,-103.2524896354535A197,197,0,0,1,168.5378017503036,-102.00004598614336L145.95801781374834,-88.33463101118112A170.6070045455344,170.6070045455344,0,0,0,145.29605135054575,-89.41927902829218Z" fill-rule="evenodd" style="fill: #DB3F29; stroke: #fff; opacity: 1;" id="p-type-functions"></path><path d="M168.5378017503036,-102.00004598614336A197,197,0,0,1,169.2928253558658,-100.74194401056755L146.6118874366221,-87.24508273978107A170.6070045455344,170.6070045455344,0,0,0,145.95801781374834,-88.33463101118112Z" fill-rule="evenodd" style="fill: #DB3F29; stroke: #fff; opacity: 1;" id="p-type-functions"></path><path d="M169.2928253558658,-100.74194401056755A197,197,0,0,1,170.0384576515414,-99.47825350037549L147.2576239465593,-86.15069465543343A170.6070045455344,170.6070045455344,0,0,0,146.6118874366221,-87.24508273978107Z" fill-rule="evenodd" style="fill: #DB3F29; stroke: #fff; opacity: 1;" id="p-type-functions"></path><path d="M170.0384576515414,-99.47825350037549A197,197,0,0,1,170.77465727430192,-98.2090445572337L147.89519152212645,-85.05152746796223A170.6070045455344,170.6070045455344,0,0,0,147.2576239465593,-86.15069465543343Z" fill-rule="evenodd" style="fill: #DB3F29; stroke: #fff; opacity: 1;" id="p-type-functions"></path><path d="M170.77465727430192,-98.2090445572337A197,197,0,0,1,171.50138338438487,-96.93438758893687L148.52455479505173,-83.94764215230633A170.6070045455344,170.6070045455344,0,0,0,147.89519152212645,-85.05152746796223Z" fill-rule="evenodd" style="fill: #DB3F29; stroke: #fff; opacity: 1;" id="p-type-functions"></path><path d="M171.50138338438487,-96.93438758893687A197,197,0,0,1,172.21859566755896,-95.65435330550221L149.14567885218673,-82.83909994513691A170.6070045455344,170.6070045455344,0,0,0,148.52455479505173,-83.94764215230633Z" fill-rule="evenodd" style="fill: #DB3F29; stroke: #fff; opacity: 1;" id="p-type-functions"></path><path d="M172.21859566755896,-95.65435330550221A197,197,0,0,1,172.9262543373608,-94.36901271524677L149.7585292374434,-81.7259623414604A170.6070045455344,170.6070045455344,0,0,0,149.14567885218673,-82.83909994513691Z" fill-rule="evenodd" style="fill: #DB3F29; stroke: #fff; opacity: 1;" id="p-type-functions"></path><path d="M172.9262543373608,-94.36901271524677A197,197,0,0,1,173.6243201373018,-93.07843712084843L150.36307195370543,-80.60829109120725A170.6070045455344,170.6070045455344,0,0,0,149.7585292374434,-81.7259623414604Z" fill-rule="evenodd" style="fill: #DB3F29; stroke: #fff; opacity: 1;" id="p-type-functions"></path><path d="M173.6243201373018,-93.07843712084843A197,197,0,0,1,174.312754343046,-91.78269811539045L150.95927346471407,-79.48614819580624A170.6070045455344,170.6070045455344,0,0,0,150.36307195370543,-80.60829109120725Z" fill-rule="evenodd" style="fill: #DB3F29; stroke: #fff; opacity: 1;" id="p-type-functions"></path><path d="M191.32181276072333,46.95704379484209A197,197,0,0,1,190.96676911851728,48.38070992074134L165.3820733352736,41.89892384448781A170.6070045455344,170.6070045455344,0,0,0,165.68955014887618,40.66599281295169Z" fill-rule="evenodd" style="fill: #1DC690; stroke: #fff; opacity: 1;" id="p-type-logs"></path><path d="M190.96676911851728,48.38070992074134A197,197,0,0,1,190.60113183122868,49.80169218665747L165.06542215591085,43.12953058509836A170.6070045455344,170.6070045455344,0,0,0,165.3820733352736,41.89892384448781Z" fill-rule="evenodd" style="fill: #1DC690; stroke: #fff; opacity: 1;" id="p-type-logs"></path><path d="M190.60113183122868,49.80169218665747A197,197,0,0,1,190.22492118213344,51.21991176535861L164.73961417662014,44.357744768398014A170.6070045455344,170.6070045455344,0,0,0,165.06542215591085,43.12953058509836Z" fill-rule="evenodd" style="fill: #1DC690; stroke: #fff; opacity: 1;" id="p-type-logs"></path><path d="M190.22492118213344,51.21991176535861A197,197,0,0,1,189.83815804105149,52.6352899828695L164.40466747119567,45.58349826072558A170.6070045455344,170.6070045455344,0,0,0,164.73961417662014,44.357744768398014Z" fill-rule="evenodd" style="fill: #1DC690; stroke: #fff; opacity: 1;" id="p-type-logs"></path><path d="M189.83815804105149,52.6352899828695A197,197,0,0,1,189.4408638631892,54.0477483228359L164.0606006203913,46.80672306492367A170.6070045455344,170.6070045455344,0,0,0,164.40466747119567,45.58349826072558Z" fill-rule="evenodd" style="fill: #1DC690; stroke: #fff; opacity: 1;" id="p-type-logs"></path><path d="M189.4408638631892,54.0477483228359A197,197,0,0,1,189.03306068794927,55.457208430880165L163.70743271088955,48.02735132411077A170.6070045455344,170.6070045455344,0,0,0,164.0606006203913,46.80672306492367Z" fill-rule="evenodd" style="fill: #1DC690; stroke: #fff; opacity: 1;" id="p-type-logs"></path><path d="M189.03306068794927,55.457208430880165A197,197,0,0,1,188.61477113770792,56.86359211894782L163.34518333424296,49.24531532544541A170.6070045455344,170.6070045455344,0,0,0,163.70743271088955,48.02735132411077Z" fill-rule="evenodd" style="fill: #1DC690; stroke: #fff; opacity: 1;" id="p-type-logs"></path><path d="M188.61477113770792,56.86359211894782A197,197,0,0,1,188.18601841656005,58.26682136964501L162.9738725857872,50.46054750388258A170.6070045455344,170.6070045455344,0,0,0,163.34518333424296,49.24531532544541Z" fill-rule="evenodd" style="fill: #1DC690; stroke: #fff; opacity: 1;" id="p-type-logs"></path><path d="M188.18601841656005,58.26682136964501A197,197,0,0,1,187.74682630903206,59.66681834056639L162.59352106352634,51.67298044592175A170.6070045455344,170.6070045455344,0,0,0,162.9738725857872,50.46054750388258Z" fill-rule="evenodd" style="fill: #1DC690; stroke: #fff; opacity: 1;" id="p-type-logs"></path><path d="M187.74682630903206,59.66681834056639A197,197,0,0,1,187.29721917876233,61.0635053686133L162.20414986699015,52.882546893346564A170.6070045455344,170.6070045455344,0,0,0,162.59352106352634,51.67298044592175Z" fill-rule="evenodd" style="fill: #1DC690; stroke: #fff; opacity: 1;" id="p-type-logs"></path><path d="M187.29721917876233,61.0635053686133A197,197,0,0,1,186.8372219671498,62.456804974302095L161.80578059606367,54.08917974695591A170.6070045455344,170.6070045455344,0,0,0,162.20414986699015,52.882546893346564Z" fill-rule="evenodd" style="fill: #1DC690; stroke: #fff; opacity: 1;" id="p-type-logs"></path><path d="M186.8372219671498,62.456804974302095A197,197,0,0,1,186.36686019197018,63.8466398660622L161.398435349789,55.292812070286146A170.6070045455344,170.6070045455344,0,0,0,161.80578059606367,54.08917974695591Z" fill-rule="evenodd" style="fill: #1DC690; stroke: #fff; opacity: 1;" id="p-type-logs"></path><path d="M186.36686019197018,63.8466398660622A197,197,0,0,1,185.88615994596069,65.23293294452371L160.98213672513933,56.493377093324355A170.6070045455344,170.6070045455344,0,0,0,161.398435349789,55.292812070286146Z" fill-rule="evenodd" style="fill: #1DC690; stroke: #fff; opacity: 1;" id="p-type-logs"></path><path d="M185.88615994596069,65.23293294452371A197,197,0,0,1,185.39514789537225,66.61560730679447L160.55690781576547,57.69080821621228A170.6070045455344,170.6070045455344,0,0,0,160.98213672513933,56.493377093324355Z" fill-rule="evenodd" style="fill: #1DC690; stroke: #fff; opacity: 1;" id="p-type-logs"></path><path d="M185.39514789537225,66.61560730679447A197,197,0,0,1,184.89385127849053,67.99458625072612L160.1227722107147,58.88503901294093A170.6070045455344,170.6070045455344,0,0,0,160.55690781576547,57.69080821621228Z" fill-rule="evenodd" style="fill: #1DC690; stroke: #fff; opacity: 1;" id="p-type-logs"></path><path d="M184.89385127849053,67.99458625072612A197,197,0,0,1,184.3822979041246,69.36979327916902L159.67975399312218,60.07600323503539A170.6070045455344,170.6070045455344,0,0,0,160.1227722107147,58.88503901294093Z" fill-rule="evenodd" style="fill: #1DC690; stroke: #fff; opacity: 1;" id="p-type-logs"></path><path d="M184.3822979041246,69.36979327916902A197,197,0,0,1,183.86051615006465,70.74115210421593L159.22787773887504,61.263634815229985A170.6070045455344,170.6070045455344,0,0,0,159.67975399312218,60.07600323503539Z" fill-rule="evenodd" style="fill: #1DC690; stroke: #fff; opacity: 1;" id="p-type-logs"></path><path d="M183.86051615006465,70.74115210421593A197,197,0,0,1,183.32853496150742,72.10858665143387L158.76716851524904,62.4478678711332A170.6070045455344,170.6070045455344,0,0,0,159.22787773887504,61.263634815229985Z" fill-rule="evenodd" style="fill: #1DC690; stroke: #fff; opacity: 1;" id="p-type-logs"></path><path d="M183.32853496150742,72.10858665143387A197,197,0,0,1,182.78638384945074,73.47202106408436L158.29765187951796,63.62863670888244A170.6070045455344,170.6070045455344,0,0,0,158.76716851524904,62.4478678711332Z" fill-rule="evenodd" style="fill: #1DC690; stroke: #fff; opacity: 1;" id="p-type-logs"></path><path d="M182.78638384945074,73.47202106408436A197,197,0,0,1,182.23409288905629,74.83137970733141L157.81935387753586,64.80587582678832A170.6070045455344,170.6070045455344,0,0,0,158.29765187951796,63.62863670888244Z" fill-rule="evenodd" style="fill: #1DC690; stroke: #fff; opacity: 1;" id="p-type-logs"></path><path d="M182.23409288905629,74.83137970733141A197,197,0,0,1,181.6716927179813,76.1865871724373L157.33230104229222,65.97951991896834A170.6070045455344,170.6070045455344,0,0,0,157.81935387753586,64.80587582678832Z" fill-rule="evenodd" style="fill: #1DC690; stroke: #fff; opacity: 1;" id="p-type-logs"></path><path d="M181.6716927179813,76.1865871724373A197,197,0,0,1,181.09921453467896,77.53756828094576L156.83652039244,67.14950387896954A170.6070045455344,170.6070045455344,0,0,0,157.33230104229222,65.97951991896834Z" fill-rule="evenodd" style="fill: #1DC690; stroke: #fff; opacity: 1;" id="p-type-logs"></path><path d="M181.09921453467896,77.53756828094576A197,197,0,0,1,180.51669009666773,78.88424808885246L156.33203943079704,68.31576280338028A170.6070045455344,170.6070045455344,0,0,0,156.83652039244,67.14950387896954Z" fill-rule="evenodd" style="fill: #1DC690; stroke: #fff; opacity: 1;" id="p-type-logs"></path><path d="M180.51669009666773,78.88424808885246A197,197,0,0,1,179.9241517187696,80.22655189076234L155.81888614282002,69.47823199543068A170.6070045455344,170.6070045455344,0,0,0,156.33203943079704,68.31576280338028Z" fill-rule="evenodd" style="fill: #1DC690; stroke: #fff; opacity: 1;" id="p-type-logs"></path><path d="M179.9241517187696,80.22655189076234A197,197,0,0,1,179.3216322713174,81.56440522403392L155.2970889950523,70.63684696858155A170.6070045455344,170.6070045455344,0,0,0,155.81888614282002,69.47823199543068Z" fill-rule="evenodd" style="fill: #1DC690; stroke: #fff; opacity: 1;" id="p-type-logs"></path><path d="M179.3216322713174,81.56440522403392A197,197,0,0,1,178.70916517833163,82.89773387290984L154.76667693354457,71.79154345010167A170.6070045455344,170.6070045455344,0,0,0,155.2970889950523,70.63684696858155Z" fill-rule="evenodd" style="fill: #1DC690; stroke: #fff; opacity: 1;" id="p-type-logs"></path><path d="M178.70916517833163,82.89773387290984A197,197,0,0,1,178.08678441566585,84.22646387263418L154.2276793822493,72.94225738463345A170.6070045455344,170.6070045455344,0,0,0,154.76667693354457,71.79154345010167Z" fill-rule="evenodd" style="fill: #1DC690; stroke: #fff; opacity: 1;" id="p-type-logs"></path><path d="M178.08678441566585,84.22646387263418A197,197,0,0,1,177.45452450912236,85.55052151355528L153.68012624138828,74.08892493774601A170.6070045455344,170.6070045455344,0,0,0,154.2276793822493,72.94225738463345Z" fill-rule="evenodd" style="fill: #1DC690; stroke: #fff; opacity: 1;" id="p-type-logs"></path><path d="M177.45452450912236,85.55052151355528A197,197,0,0,1,176.8124205325367,86.86983334521479L153.12404788579406,75.23148249947653A170.6070045455344,170.6070045455344,0,0,0,153.68012624138828,74.08892493774601Z" fill-rule="evenodd" style="fill: #1DC690; stroke: #fff; opacity: 1;" id="p-type-logs"></path><path d="M176.8124205325367,86.86983334521479A197,197,0,0,1,176.16050810583198,88.18432618042229L152.55947516322502,76.36986668785885A170.6070045455344,170.6070045455344,0,0,0,153.12404788579406,75.23148249947653Z" fill-rule="evenodd" style="fill: #1DC690; stroke: #fff; opacity: 1;" id="p-type-logs"></path><path d="M176.16050810583198,88.18432618042229A197,197,0,0,1,175.4988233930429,89.4939270993152L151.98643939265386,77.50401435243955A170.6070045455344,170.6070045455344,0,0,0,152.55947516322502,76.36986668785885Z" fill-rule="evenodd" style="fill: #1DC690; stroke: #fff; opacity: 1;" id="p-type-logs"></path><path d="M175.4988233930429,89.4939270993152A197,197,0,0,1,174.8274031003097,90.79856345340394L151.40497236253054,78.63386257778112A170.6070045455344,170.6070045455344,0,0,0,151.98643939265386,77.50401435243955Z" fill-rule="evenodd" style="fill: #1DC690; stroke: #fff; opacity: 1;" id="p-type-logs"></path><path d="M174.8274031003097,90.79856345340394A197,197,0,0,1,174.14628447384186,92.09816286960205L150.81510632901862,79.75934868695211A170.6070045455344,170.6070045455344,0,0,0,151.40497236253054,78.63386257778112Z" fill-rule="evenodd" style="fill: #1DC690; stroke: #fff; opacity: 1;" id="p-type-logs"></path><path d="M174.14628447384186,92.09816286960205A197,197,0,0,1,173.4555052978519,93.39265325424093L150.216874014206,80.88041024500407A170.6070045455344,170.6070045455344,0,0,0,150.81510632901862,79.75934868695211Z" fill-rule="evenodd" style="fill: #1DC690; stroke: #fff; opacity: 1;" id="p-type-logs"></path><path d="M173.4555052978519,93.39265325424093A197,197,0,0,1,172.75510389245932,94.68196279706919L149.6103086042897,81.99698506243504A170.6070045455344,170.6070045455344,0,0,0,150.216874014206,80.88041024500407Z" fill-rule="evenodd" style="fill: #1DC690; stroke: #fff; opacity: 1;" id="p-type-logs"></path><path d="M172.75510389245932,94.68196279706919A197,197,0,0,1,172.04511911156493,95.96601997523621L148.99544374773487,83.10901119863944A170.6070045455344,170.6070045455344,0,0,0,149.6103086042897,81.99698506243504Z" fill-rule="evenodd" style="fill: #1DC690; stroke: #fff; opacity: 1;" id="p-type-logs"></path><path d="M172.04511911156493,95.96601997523621A197,197,0,0,1,171.32559034069547,97.24475355725984L148.3723135534081,84.21642696534417A170.6070045455344,170.6070045455344,0,0,0,148.99544374773487,83.10901119863944Z" fill-rule="evenodd" style="fill: #1DC690; stroke: #fff; opacity: 1;" id="p-type-logs"></path><path d="M171.32559034069547,97.24475355725984A197,197,0,0,1,170.5965574948186,98.51809260697777L147.74095258868547,85.31917093003065A170.6070045455344,170.6070045455344,0,0,0,148.3723135534081,84.21642696534417Z" fill-rule="evenodd" style="fill: #1DC690; stroke: #fff; opacity: 1;" id="p-type-logs"></path><path d="M170.5965574948186,98.51809260697777A197,197,0,0,1,169.8580610161289,99.78596648748277L147.10139587753483,86.41718191934272A170.6070045455344,170.6070045455344,0,0,0,147.74095258868547,85.31917093003065Z" fill-rule="evenodd" style="fill: #1DC690; stroke: #fff; opacity: 1;" id="p-type-logs"></path><path d="M169.8580610161289,99.78596648748277A197,197,0,0,1,169.11014187180413,101.04830486504103L146.45367889857286,87.51039902248021A170.6070045455344,170.6070045455344,0,0,0,147.10139587753483,86.41718191934272Z" fill-rule="evenodd" style="fill: #1DC690; stroke: #fff; opacity: 1;" id="p-type-logs"></path><path d="M169.11014187180413,101.04830486504103A197,197,0,0,1,168.3528415517329,102.30503771299398L145.7978375830971,88.59876159457784A170.6070045455344,170.6070045455344,0,0,0,146.45367889857286,87.51039902248021Z" fill-rule="evenodd" style="fill: #1DC690; stroke: #fff; opacity: 1;" id="p-type-logs"></path><path d="M168.3528415517329,102.30503771299398A197,197,0,0,1,167.5862020662128,103.55609531564279L145.13390831309246,89.68220926006936A170.6070045455344,170.6070045455344,0,0,0,145.7978375830971,88.59876159457784Z" fill-rule="evenodd" style="fill: #1DC690; stroke: #fff; opacity: 1;" id="p-type-logs"></path><path d="M167.5862020662128,103.55609531564279A197,197,0,0,1,166.81026594362015,104.80140827211588L144.46192791921322,90.76068191603696A170.6070045455344,170.6070045455344,0,0,0,145.13390831309246,89.68220926006936Z" fill-rule="evenodd" style="fill: #1DC690; stroke: #fff; opacity: 1;" id="p-type-logs"></path><path d="M166.81026594362015,104.80140827211588A197,197,0,0,1,166.02507622805066,106.04090750021885L143.78193367873976,91.83411973554533A170.6070045455344,170.6070045455344,0,0,0,144.46192791921322,90.76068191603696Z" fill-rule="evenodd" style="fill: #1DC690; stroke: #fff; opacity: 1;" id="p-type-logs"></path><path d="M166.02507622805066,106.04090750021885A197,197,0,0,1,165.23067647693168,107.27452424026657L143.0939633135107,92.9024631709604A170.6070045455344,170.6070045455344,0,0,0,143.78193367873976,91.83411973554533Z" fill-rule="evenodd" style="fill: #1DC690; stroke: #fff; opacity: 1;" id="p-type-logs"></path><path d="M165.23067647693168,107.27452424026657A197,197,0,0,1,164.42711075860583,108.50219005889775L142.39805498783022,93.96565295725283A170.6070045455344,170.6070045455344,0,0,0,143.0939633135107,92.9024631709604Z" fill-rule="evenodd" style="fill: #1DC690; stroke: #fff; opacity: 1;" id="p-type-logs"></path><path d="M164.42711075860583,108.50219005889775A197,197,0,0,1,163.61442364988648,109.72383685287107L141.69424730635114,95.02363011528554A170.6070045455344,170.6070045455344,0,0,0,142.39805498783022,93.96565295725283Z" fill-rule="evenodd" style="fill: #1DC690; stroke: #fff; opacity: 1;" id="p-type-logs"></path><path d="M163.61442364988648,109.72383685287107A197,197,0,0,1,162.7926602335848,110.93939685284313L140.9825793119332,96.07633595508555A170.6070045455344,170.6070045455344,0,0,0,141.69424730635114,95.02363011528554Z" fill-rule="evenodd" style="fill: #1DC690; stroke: #fff; opacity: 1;" id="p-type-logs"></path><path d="M162.7926602335848,110.93939685284313A197,197,0,0,1,161.96186609600886,112.1488026271279L140.26309048347724,97.12371207909976A170.6070045455344,170.6070045455344,0,0,0,140.9825793119332,96.07633595508555Z" fill-rule="evenodd" style="fill: #1DC690; stroke: #fff; opacity: 1;" id="p-type-logs"></path><path d="M161.96186609600886,112.1488026271279A197,197,0,0,1,161.1220873244349,113.35198708543744L139.5358207337353,98.16570038543443A170.6070045455344,170.6070045455344,0,0,0,140.26309048347724,97.12371207909976Z" fill-rule="evenodd" style="fill: #1DC690; stroke: #fff; opacity: 1;" id="p-type-logs"></path><path d="M161.1220873244349,113.35198708543744A197,197,0,0,1,160.27337050455048,114.54888348260356L138.8008104070963,99.20224307107836A170.6070045455344,170.6070045455344,0,0,0,139.5358207337353,98.16570038543443Z" fill-rule="evenodd" style="fill: #1DC690; stroke: #fff; opacity: 1;" id="p-type-logs"></path><path d="M160.27337050455048,114.54888348260356A197,197,0,0,1,159.41576271787045,115.73942542228046L138.05810027734802,100.23328263510936A170.6070045455344,170.6070045455344,0,0,0,138.8008104070963,99.20224307107836Z" fill-rule="evenodd" style="fill: #1DC690; stroke: #fff; opacity: 1;" id="p-type-logs"></path><path d="M159.41576271787045,115.73942542228046A197,197,0,0,1,158.54931153912497,116.9235468606281L137.30773154541546,101.25876188188417A170.6070045455344,170.6070045455344,0,0,0,138.05810027734802,100.23328263510936Z" fill-rule="evenodd" style="fill: #1DC690; stroke: #fff; opacity: 1;" id="p-type-logs"></path><path d="M158.54931153912497,116.9235468606281A197,197,0,0,1,157.6740650336204,118.1011821099757L136.54974583707494,102.27862392421122A170.6070045455344,170.6070045455344,0,0,0,137.30773154541546,101.25876188188417Z" fill-rule="evenodd" style="fill: #1DC690; stroke: #fff; opacity: 1;" id="p-type-logs"></path><path d="M157.6740650336204,118.1011821099757A197,197,0,0,1,156.79007175457303,119.27226584246581L135.78418520064523,103.29281218650637A170.6070045455344,170.6070045455344,0,0,0,136.54974583707494,102.27862392421122Z" fill-rule="evenodd" style="fill: #1DC690; stroke: #fff; opacity: 1;" id="p-type-logs"></path><path d="M156.79007175457303,119.27226584246581A197,197,0,0,1,155.89738074041557,120.4367330936783L135.01109210465475,104.30127040793141A170.6070045455344,170.6070045455344,0,0,0,135.78418520064523,103.29281218650637Z" fill-rule="evenodd" style="fill: #1DC690; stroke: #fff; opacity: 1;" id="p-type-logs"></path><path d="M155.89738074041557,120.4367330936783A197,197,0,0,1,154.99604151207674,121.59451926623413L134.23050943548586,105.30394264551512A170.6070045455344,170.6070045455344,0,0,0,135.01109210465475,104.30127040793141Z" fill-rule="evenodd" style="fill: #1DC690; stroke: #fff; opacity: 1;" id="p-type-logs"></path><path d="M154.99604151207674,121.59451926623413A197,197,0,0,1,154.08610407023434,122.74556013337883L133.44248049499572,106.3007732772565A170.6070045455344,170.6070045455344,0,0,0,134.23050943548586,105.30394264551512Z" fill-rule="evenodd" style="fill: #1DC690; stroke: #fff; opacity: 1;" id="p-type-logs"></path><path d="M154.08610407023434,122.74556013337883A197,197,0,0,1,153.16761889254133,123.88979184254536L132.64704899811412,107.2917070052104A170.6070045455344,170.6070045455344,0,0,0,133.44248049499572,106.3007732772565Z" fill-rule="evenodd" style="fill: #1DC690; stroke: #fff; opacity: 1;" id="p-type-logs"></path><path d="M153.16761889254133,123.88979184254536A197,197,0,0,1,152.2406369308258,125.02715091889633L131.84425907041853,108.27668885855513A170.6070045455344,170.6070045455344,0,0,0,132.64704899811412,107.2917070052104Z" fill-rule="evenodd" style="fill: #1DC690; stroke: #fff; opacity: 1;" id="p-type-logs"></path><path d="M152.2406369308258,125.02715091889633A197,197,0,0,1,151.3052096082644,126.15757426884514L131.0341552456863,109.25566419664192A170.6070045455344,170.6070045455344,0,0,0,131.84425907041853,108.27668885855513Z" fill-rule="evenodd" style="fill: #1DC690; stroke: #fff; opacity: 1;" id="p-type-logs"></path><path d="M151.3052096082644,126.15757426884514A197,197,0,0,1,150.36138881652965,127.28099918355603L130.21678246342407,110.22857871202591A170.6070045455344,170.6070045455344,0,0,0,131.0341552456863,109.25566419664192Z" fill-rule="evenodd" style="fill: #1DC690; stroke: #fff; opacity: 1;" id="p-type-logs"></path><path d="M150.36138881652965,127.28099918355603A197,197,0,0,1,149.40922691291152,128.39736334242272L129.39218606637502,111.19537843347891A170.6070045455344,170.6070045455344,0,0,0,130.21678246342407,110.22857871202591Z" fill-rule="evenodd" style="fill: #1DC690; stroke: #fff; opacity: 1;" id="p-type-logs"></path><path d="M149.40922691291152,128.39736334242272A197,197,0,0,1,148.44877671741267,129.5066048165257L128.5604117980033,112.15600972898339A170.6070045455344,170.6070045455344,0,0,0,129.39218606637502,111.19537843347891Z" fill-rule="evenodd" style="fill: #1DC690; stroke: #fff; opacity: 1;" id="p-type-logs"></path><path d="M148.44877671741267,129.5066048165257A197,197,0,0,1,147.48009150981864,130.60866207206752L127.72150579995663,113.11041930870756A170.6070045455344,170.6070045455344,0,0,0,128.5604117980033,112.15600972898339Z" fill-rule="evenodd" style="fill: #1DC690; stroke: #fff; opacity: 1;" id="p-type-logs"></path><path d="M147.48009150981864,130.60866207206752A197,197,0,0,1,146.50322502674192,131.70347397378637L126.87551460950664,114.05855422796165A170.6070045455344,170.6070045455344,0,0,0,127.72150579995663,113.11041930870756Z" fill-rule="evenodd" style="fill: #1DC690; stroke: #fff; opacity: 1;" id="p-type-logs"></path><path d="M146.50322502674192,131.70347397378637A197,197,0,0,1,145.51823145864125,132.7909797883475L126.0224851569672,115.00036189013487A170.6070045455344,170.6070045455344,0,0,0,126.87551460950664,114.05855422796165Z" fill-rule="evenodd" style="fill: #1DC690; stroke: #fff; opacity: 1;" id="p-type-logs"></path><path d="M145.51823145864125,132.7909797883475A197,197,0,0,1,144.52516544681532,133.87111918771225L125.16246476309104,115.9357900496132A170.6070045455344,170.6070045455344,0,0,0,126.0224851569672,115.00036189013487Z" fill-rule="evenodd" style="fill: #1DC690; stroke: #fff; opacity: 1;" id="p-type-logs"></path><path d="M144.52516544681532,133.87111918771225A197,197,0,0,1,143.52408208037164,134.94383225248475L124.29550113644476,116.86478681467766A170.6070045455344,170.6070045455344,0,0,0,125.16246476309104,115.9357900496132Z" fill-rule="evenodd" style="fill: #1DC690; stroke: #fff; opacity: 1;" id="p-type-logs"></path><path d="M58.64693123206493,188.0679065047023A197,197,0,0,1,-28.373024014497545,194.9460733338139L-24.57175957874081,168.82825187510696A170.6070045455344,170.6070045455344,0,0,0,50.78973230096723,162.87158466962887Z" fill-rule="evenodd" style="fill: #414552; stroke: #fff; opacity: 1;" id="p-type-ether"></path><path d="M-28.373024014497545,194.9460733338139A197,197,0,0,1,-38.54687623108421,193.19197274427702L-33.38257405265348,167.30915620377476A170.6070045455344,170.6070045455344,0,0,0,-24.57175957874081,168.82825187510696Z" fill-rule="evenodd" style="fill: #414552; stroke: #fff; opacity: 1;" id="p-type-ether"></path><path d="M-38.54687623108421,193.19197274427702A197,197,0,0,1,-46.88766259594805,191.33882798922056L-40.60590693216443,165.704285769006A170.6070045455344,170.6070045455344,0,0,0,-33.38257405265348,167.30915620377476Z" fill-rule="evenodd" style="fill: #414552; stroke: #fff; opacity: 1;" id="p-type-ether"></path><path d="M-46.88766259594805,191.33882798922056A197,197,0,0,1,-54.602118492118024,189.28182336445488L-47.28682171462227,163.92286750825684A170.6070045455344,170.6070045455344,0,0,0,-40.60590693216443,165.704285769006Z" fill-rule="evenodd" style="fill: #414552; stroke: #fff; opacity: 1;" id="p-type-ether"></path><path d="M-54.602118492118024,189.28182336445488A197,197,0,0,1,-61.01616265657428,187.31264744983577L-52.841546902036725,162.21751114167623A170.6070045455344,170.6070045455344,0,0,0,-47.28682171462227,163.92286750825684Z" fill-rule="evenodd" style="fill: #414552; stroke: #fff; opacity: 1;" id="p-type-ether"></path><path d="M-61.01616265657428,187.31264744983577A197,197,0,0,1,-62.413888932234826,186.85156265965415L-54.05201336429577,161.8182000000803A170.6070045455344,170.6070045455344,0,0,0,-52.841546902036725,162.21751114167623Z" fill-rule="evenodd" style="fill: #414552; stroke: #fff; opacity: 1;" id="p-type-ether"></path><path d="M-120.99855877268577,155.46172768541106A197,197,0,0,1,-122.15308460955626,154.55621605218792L-105.78767442250565,133.84960941399098A170.6070045455344,170.6070045455344,0,0,0,-104.78782571845032,134.63380549178456Z" fill-rule="evenodd" style="fill: #D7A449; stroke: #fff; opacity: 1;" id="p-type-tokenTransfers"></path><path d="M-122.15308460955626,154.55621605218792A197,197,0,0,1,-123.3008341552947,153.64213060423404L-106.7816546862972,133.05798819483323A170.6070045455344,170.6070045455344,0,0,0,-105.78767442250565,133.84960941399098Z" fill-rule="evenodd" style="fill: #D7A449; stroke: #fff; opacity: 1;" id="p-type-tokenTransfers"></path><path d="M-123.3008341552947,153.64213060423404A197,197,0,0,1,-124.44174373991612,152.71952204930793L-107.7697113700005,132.25898574851837A170.6070045455344,170.6070045455344,0,0,0,-106.7816546862972,133.05798819483323Z" fill-rule="evenodd" style="fill: #D7A449; stroke: #fff; opacity: 1;" id="p-type-tokenTransfers"></path><path d="M-124.44174373991612,152.71952204930793A197,197,0,0,1,-125.57575007287384,151.78844156797686L-108.75178966239432,131.45264639871783A170.6070045455344,170.6070045455344,0,0,0,-107.7697113700005,132.25898574851837Z" fill-rule="evenodd" style="fill: #D7A449; stroke: #fff; opacity: 1;" id="p-type-tokenTransfers"></path><path d="M-125.57575007287384,151.78844156797686A197,197,0,0,1,-126.70279024657057,150.8489408107778L-109.72783508390131,130.63901487610872A170.6070045455344,170.6070045455344,0,0,0,-108.75178966239432,131.45264639871783Z" fill-rule="evenodd" style="fill: #D7A449; stroke: #fff; opacity: 1;" id="p-type-tokenTransfers"></path><path d="M-126.70279024657057,150.8489408107778A197,197,0,0,1,-127.822801739848,149.90107189535206L-110.6977934896101,129.81813631589245A170.6070045455344,170.6070045455344,0,0,0,-109.72783508390131,130.63901487610872Z" fill-rule="evenodd" style="fill: #D7A449; stroke: #fff; opacity: 1;" id="p-type-tokenTransfers"></path><path d="M-127.822801739848,149.90107189535206A197,197,0,0,1,-128.93572242145524,148.94488740355422L-111.66161107227907,128.99005625529077A170.6070045455344,170.6070045455344,0,0,0,-110.6977934896101,129.81813631589245Z" fill-rule="evenodd" style="fill: #D7A449; stroke: #fff; opacity: 1;" id="p-type-tokenTransfers"></path><path d="M-128.93572242145524,148.94488740355422A197,197,0,0,1,-130.0414905534954,147.98044037853504L-112.61923436532113,128.15482063101985A170.6070045455344,170.6070045455344,0,0,0,-111.66161107227907,128.99005625529077Z" fill-rule="evenodd" style="fill: #D7A449; stroke: #fff; opacity: 1;" id="p-type-tokenTransfers"></path><path d="M-130.0414905534954,147.98044037853504A197,197,0,0,1,-131.14004479485038,147.00778432179922L-113.57061024576969,127.31247577674183A170.6070045455344,170.6070045455344,0,0,0,-112.61923436532113,128.15482063101985Z" fill-rule="evenodd" style="fill: #D7A449; stroke: #fff; opacity: 1;" id="p-type-tokenTransfers"></path><path d="M-131.14004479485038,147.00778432179922A197,197,0,0,1,-132.23132420458376,146.02697319023721L-114.51568593722565,126.46306842049458A170.6070045455344,170.6070045455344,0,0,0,-113.57061024576969,127.31247577674183Z" fill-rule="evenodd" style="fill: #D7A449; stroke: #fff; opacity: 1;" id="p-type-tokenTransfers"></path><path d="M-132.23132420458376,146.02697319023721A197,197,0,0,1,-133.31526824532136,145.03806139313227L-115.45440901278518,125.60664568209958A170.6070045455344,170.6070045455344,0,0,0,-114.51568593722565,126.46306842049458Z" fill-rule="evenodd" style="fill: #D7A449; stroke: #fff; opacity: 1;" id="p-type-tokenTransfers"></path><path d="M-133.31526824532136,145.03806139313227A197,197,0,0,1,-134.39181678660958,144.04110378914197L-116.38672739794785,124.7432550705479A170.6070045455344,170.6070045455344,0,0,0,-115.45440901278518,125.60664568209958Z" fill-rule="evenodd" style="fill: #D7A449; stroke: #fff; opacity: 1;" id="p-type-tokenTransfers"></path><path d="M-134.39181678660958,144.04110378914197A197,197,0,0,1,-135.4609101082509,143.036155683255L-117.31258937350555,123.87294448136474A170.6070045455344,170.6070045455344,0,0,0,-116.38672739794785,124.7432550705479Z" fill-rule="evenodd" style="fill: #D7A449; stroke: #fff; opacity: 1;" id="p-type-tokenTransfers"></path><path d="M-135.4609101082509,143.036155683255A197,197,0,0,1,-136.52248890361702,142.0232728237234L-118.23194357841147,122.99576219395254A170.6070045455344,170.6070045455344,0,0,0,-117.31258937350555,123.87294448136474Z" fill-rule="evenodd" style="fill: #D7A449; stroke: #fff; opacity: 1;" id="p-type-tokenTransfers"></path><path d="M-136.52248890361702,142.0232728237234A197,197,0,0,1,-137.57649428293854,141.0025113989697L-119.14473901262937,122.11175686891264A170.6070045455344,170.6070045455344,0,0,0,-118.23194357841147,122.99576219395254Z" fill-rule="evenodd" style="fill: #D7A449; stroke: #fff; opacity: 1;" id="p-type-tokenTransfers"></path><path d="M-137.57649428293854,141.0025113989697A197,197,0,0,1,-138.62286777657204,139.97392803447016L-120.05092503996264,121.22097754534597A170.6070045455344,170.6070045455344,0,0,0,-119.14473901262937,122.11175686891264Z" fill-rule="evenodd" style="fill: #D7A449; stroke: #fff; opacity: 1;" id="p-type-tokenTransfers"></path><path d="M-138.62286777657204,139.97392803447016A197,197,0,0,1,-139.6615513382434,138.93757978961347L-120.95045139086335,120.32347363813265A170.6070045455344,170.6070045455344,0,0,0,-120.05092503996264,121.22097754534597Z" fill-rule="evenodd" style="fill: #D7A449; stroke: #fff; opacity: 1;" id="p-type-tokenTransfers"></path><path d="M-139.6615513382434,138.93757978961347A197,197,0,0,1,-140.6924873482681,137.89352415453536L-121.84326816522088,119.41929493519072A170.6070045455344,170.6070045455344,0,0,0,-120.95045139086335,120.32347363813265Z" fill-rule="evenodd" style="fill: #D7A449; stroke: #fff; opacity: 1;" id="p-type-tokenTransfers"></path><path d="M-140.6924873482681,137.89352415453536A197,197,0,0,1,-141.7156186167473,136.8418190469296L-122.72932583513007,118.5084915947143A170.6070045455344,170.6070045455344,0,0,0,-121.84326816522088,119.41929493519072Z" fill-rule="evenodd" style="fill: #D7A449; stroke: #fff; opacity: 1;" id="p-type-tokenTransfers"></path><path d="M-141.7156186167473,136.8418190469296A197,197,0,0,1,-142.73088838674065,135.78252280883493L-123.60857524763871,117.59111414239102A170.6070045455344,170.6070045455344,0,0,0,-122.72932583513007,118.5084915947143Z" fill-rule="evenodd" style="fill: #D7A449; stroke: #fff; opacity: 1;" id="p-type-tokenTransfers"></path><path d="M-142.73088838674065,135.78252280883493A197,197,0,0,1,-143.73824033741468,134.71569420339867L-124.48096762747423,116.66721346859929A170.6070045455344,170.6070045455344,0,0,0,-123.60857524763871,117.59111414239102Z" fill-rule="evenodd" style="fill: #D7A449; stroke: #fff; opacity: 1;" id="p-type-tokenTransfers"></path><path d="M-143.73824033741468,134.71569420339867A197,197,0,0,1,-144.73761858716708,133.6413924116168L-125.34645457974945,115.73684082558505A170.6070045455344,170.6070045455344,0,0,0,-124.48096762747423,116.66721346859929Z" fill-rule="evenodd" style="fill: #D7A449; stroke: #fff; opacity: 1;" id="p-type-tokenTransfers"></path><path d="M-144.73761858716708,133.6413924116168A197,197,0,0,1,-145.72896769672678,132.5596770290512L-126.20498809264723,114.80004782461882A170.6070045455344,170.6070045455344,0,0,0,-125.34645457974945,115.73684082558505Z" fill-rule="evenodd" style="fill: #D7A449; stroke: #fff; opacity: 1;" id="p-type-tokenTransfers"></path><path d="M-145.72896769672678,132.5596770290512A197,197,0,0,1,-146.71223267222933,131.4706080625234L-127.05652054008391,113.85688643313252A170.6070045455344,170.6070045455344,0,0,0,-126.20498809264723,114.80004782461882Z" fill-rule="evenodd" style="fill: #D7A449; stroke: #fff; opacity: 1;" id="p-type-tokenTransfers"></path><path d="M-146.71223267222933,131.4706080625234A197,197,0,0,1,-147.68735896826757,130.37424592678602L-127.90100468435125,112.90740897183656A170.6070045455344,170.6070045455344,0,0,0,-127.05652054008391,113.85688643313252Z" fill-rule="evenodd" style="fill: #D7A449; stroke: #fff; opacity: 1;" id="p-type-tokenTransfers"></path><path d="M-147.68735896826757,130.37424592678602A197,197,0,0,1,-148.6542924909175,129.27065144117108L-128.73839367873688,111.95166811181761A170.6070045455344,170.6070045455344,0,0,0,-127.90100468435125,112.90740897183656Z" fill-rule="evenodd" style="fill: #D7A449; stroke: #fff; opacity: 1;" id="p-type-tokenTransfers"></path><path d="M-148.6542924909175,129.27065144117108A197,197,0,0,1,-149.6129796007391,128.15988582621642L-129.56864107012305,110.98971687161662A170.6070045455344,170.6070045455344,0,0,0,-128.73839367873688,111.95166811181761Z" fill-rule="evenodd" style="fill: #D7A449; stroke: #fff; opacity: 1;" id="p-type-tokenTransfers"></path><path d="M-149.6129796007391,128.15988582621642A197,197,0,0,1,-150.5633671157519,127.04201070026924L-130.3917008015637,110.02160861428764A170.6070045455344,170.6070045455344,0,0,0,-129.56864107012305,110.98971687161662Z" fill-rule="evenodd" style="fill: #D7A449; stroke: #fff; opacity: 1;" id="p-type-tokenTransfers"></path><path d="M-150.5633671157519,127.04201070026924A197,197,0,0,1,-151.50540231438518,125.91708807606811L-131.20752721483925,109.0473970444376A170.6070045455344,170.6070045455344,0,0,0,-130.3917008015637,110.02160861428764Z" fill-rule="evenodd" style="fill: #D7A449; stroke: #fff; opacity: 1;" id="p-type-tokenTransfers"></path><path d="M-151.50540231438518,125.91708807606811A197,197,0,0,1,-152.43903293840265,124.78518035730282L-132.0160750529895,108.06713620524717A170.6070045455344,170.6070045455344,0,0,0,-131.20752721483925,109.0473970444376Z" fill-rule="evenodd" style="fill: #D7A449; stroke: #fff; opacity: 1;" id="p-type-tokenTransfers"></path><path d="M-152.43903293840265,124.78518035730282A197,197,0,0,1,-153.36420719580133,123.6463503351527L-132.81729946282414,107.08088047547278A170.6070045455344,170.6070045455344,0,0,0,-132.0160750529895,108.06713620524717Z" fill-rule="evenodd" style="fill: #D7A449; stroke: #fff; opacity: 1;" id="p-type-tokenTransfers"></path><path d="M-153.36420719580133,123.6463503351527A197,197,0,0,1,-154.28087376368478,122.50066118480326L-133.61115599741112,106.08868456642995A170.6070045455344,170.6070045455344,0,0,0,-132.81729946282414,107.08088047547278Z" fill-rule="evenodd" style="fill: #D7A449; stroke: #fff; opacity: 1;" id="p-type-tokenTransfers"></path><path d="M-154.28087376368478,122.50066118480326A197,197,0,0,1,-155.18898179111002,121.3481764619416L-134.39760061854196,105.09060351895829A170.6070045455344,170.6070045455344,0,0,0,-133.61115599741112,106.08868456642995Z" fill-rule="evenodd" style="fill: #D7A449; stroke: #fff; opacity: 1;" id="p-type-tokenTransfers"></path><path d="M-155.18898179111002,121.3481764619416A197,197,0,0,1,-156.08848090190858,120.18896009923093L-135.176589699175,104.08669270036825A170.6070045455344,170.6070045455344,0,0,0,-134.39760061854196,105.09060351895829Z" fill-rule="evenodd" style="fill: #D7A449; stroke: #fff; opacity: 1;" id="p-type-tokenTransfers"></path><path d="M-156.08848090190858,120.18896009923093A197,197,0,0,1,-156.97932119748094,119.02307640276364L-135.94808002585552,103.07700780136946A170.6070045455344,170.6070045455344,0,0,0,-135.176589699175,104.08669270036825Z" fill-rule="evenodd" style="fill: #D7A449; stroke: #fff; opacity: 1;" id="p-type-tokenTransfers"></path><path d="M-156.97932119748094,119.02307640276364A197,197,0,0,1,-157.86145325956466,117.85059004849441L-136.71202880111275,102.06160483298171A170.6070045455344,170.6070045455344,0,0,0,-135.94808002585552,103.07700780136946Z" fill-rule="evenodd" style="fill: #D7A449; stroke: #fff; opacity: 1;" id="p-type-tokenTransfers"></path><path d="M-157.86145325956466,117.85059004849441A197,197,0,0,1,-158.73482815297572,116.67156607865203L-137.46839364583425,101.04054012342743A170.6070045455344,170.6070045455344,0,0,0,-136.71202880111275,102.06160483298171Z" fill-rule="evenodd" style="fill: #D7A449; stroke: #fff; opacity: 1;" id="p-type-tokenTransfers"></path><path d="M-158.73482815297572,116.67156607865203A197,197,0,0,1,-159.59939742832324,115.48606989813153L-138.21713260161675,100.01387031500727A170.6070045455344,170.6070045455344,0,0,0,-137.46839364583425,101.04054012342743Z" fill-rule="evenodd" style="fill: #D7A449; stroke: #fff; opacity: 1;" id="p-type-tokenTransfers"></path><path d="M-159.59939742832324,115.48606989813153A197,197,0,0,1,-160.45511312469714,114.29416727086578L-138.9582041330936,98.98165236095771A170.6070045455344,170.6070045455344,0,0,0,-138.21713260161675,100.01387031500727Z" fill-rule="evenodd" style="fill: #D7A449; stroke: #fff; opacity: 1;" id="p-type-tokenTransfers"></path><path d="M-160.45511312469714,114.29416727086578A197,197,0,0,1,-161.30192777232855,113.0959243161773L-139.69156713023918,97.94394352229176A170.6070045455344,170.6070045455344,0,0,0,-138.9582041330936,98.98165236095771Z" fill-rule="evenodd" style="fill: #D7A449; stroke: #fff; opacity: 1;" id="p-type-tokenTransfers"></path><path d="M-161.30192777232855,113.0959243161773A197,197,0,0,1,-162.13979439522333,111.89140750511054L-140.41718091064917,96.90080136462251A170.6070045455344,170.6070045455344,0,0,0,-139.69156713023918,97.94394352229176Z" fill-rule="evenodd" style="fill: #D7A449; stroke: #fff; opacity: 1;" id="p-type-tokenTransfers"></path><path d="M-162.13979439522333,111.89140750511054A197,197,0,0,1,-162.96866651376797,110.68068365674418L-141.13500522179743,95.8522837549696A170.6070045455344,170.6070045455344,0,0,0,-140.41718091064917,96.90080136462251Z" fill-rule="evenodd" style="fill: #D7A449; stroke: #fff; opacity: 1;" id="p-type-tokenTransfers"></path><path d="M-162.96866651376797,110.68068365674418A197,197,0,0,1,-163.7884981473079,109.46381993448483L-141.84500024326908,94.7984488585493A170.6070045455344,170.6070045455344,0,0,0,-141.13500522179743,95.8522837549696Z" fill-rule="evenodd" style="fill: #D7A449; stroke: #fff; opacity: 1;" id="p-type-tokenTransfers"></path><path d="M-163.7884981473079,109.46381993448483A197,197,0,0,1,-164.59924381669825,108.24088384234082L-142.54712658896938,93.73935513554774A170.6070045455344,170.6070045455344,0,0,0,-141.84500024326908,94.7984488585493Z" fill-rule="evenodd" style="fill: #D7A449; stroke: #fff; opacity: 1;" id="p-type-tokenTransfers"></path><path d="M-164.59924381669825,108.24088384234082A197,197,0,0,1,-165.40085854682684,107.01194322117782L-143.2413453093085,92.67506133787793A170.6070045455344,170.6070045455344,0,0,0,-142.54712658896938,93.73935513554774Z" fill-rule="evenodd" style="fill: #D7A449; stroke: #fff; opacity: 1;" id="p-type-tokenTransfers"></path><path d="M-165.40085854682684,107.01194322117782A197,197,0,0,1,-166.19329786910893,105.7770662449552L-143.92761789336254,91.60562650592064A170.6070045455344,170.6070045455344,0,0,0,-143.2413453093085,92.67506133787793Z" fill-rule="evenodd" style="fill: #D7A449; stroke: #fff; opacity: 1;" id="p-type-tokenTransfers"></path><path d="M-166.19329786910893,105.7770662449552A197,197,0,0,1,-166.97651782395423,104.53632141694432L-144.60590627100947,90.53110996524906A170.6070045455344,170.6070045455344,0,0,0,-143.92761789336254,91.60562650592064Z" fill-rule="evenodd" style="fill: #D7A449; stroke: #fff; opacity: 1;" id="p-type-tokenTransfers"></path><path d="M-166.97651782395423,104.53632141694432A197,197,0,0,1,-167.7504749632055,103.28977756592838L-145.2761728150414,89.45157132333797A170.6070045455344,170.6070045455344,0,0,0,-144.60590627100947,90.53110996524906Z" fill-rule="evenodd" style="fill: #D7A449; stroke: #fff; opacity: 1;" id="p-type-tokenTransfers"></path><path d="M-167.7504749632055,103.28977756592838A197,197,0,0,1,-168.51512635254863,102.03750384238417L-145.93838034325162,88.36707046625696A170.6070045455344,170.6070045455344,0,0,0,-145.2761728150414,89.45157132333797Z" fill-rule="evenodd" style="fill: #D7A449; stroke: #fff; opacity: 1;" id="p-type-tokenTransfers"></path><path d="M-168.51512635254863,102.03750384238417A197,197,0,0,1,-169.27042957389452,100.77956971464609L-146.59249212049738,87.27766755534836A170.6070045455344,170.6070045455344,0,0,0,-145.93838034325162,88.36707046625696Z" fill-rule="evenodd" style="fill: #D7A449; stroke: #fff; opacity: 1;" id="p-type-tokenTransfers"></path><path d="M-169.27042957389452,100.77956971464609A197,197,0,0,1,-170.01634272773208,99.51604496505244L-147.2384718607377,86.18342302388989A170.6070045455344,170.6070045455344,0,0,0,-146.59249212049738,87.27766755534836Z" fill-rule="evenodd" style="fill: #D7A449; stroke: #fff; opacity: 1;" id="p-type-tokenTransfers"></path><path d="M-170.01634272773208,99.51604496505244A197,197,0,0,1,-170.75282443545265,98.2469996860743L-147.87628372904624,85.08439757374211A170.6070045455344,170.6070045455344,0,0,0,-147.2384718607377,86.18342302388989Z" fill-rule="evenodd" style="fill: #D7A449; stroke: #fff; opacity: 1;" id="p-type-tokenTransfers"></path><path d="M-170.75282443545265,98.2469996860743A197,197,0,0,1,-171.4798338416453,96.97250427642737L-148.5058923435993,83.98065217198122A170.6070045455344,170.6070045455344,0,0,0,-147.87628372904624,85.08439757374211Z" fill-rule="evenodd" style="fill: #D7A449; stroke: #fff; opacity: 1;" id="p-type-tokenTransfers"></path><path d="M-171.4798338416453,96.97250427642737A197,197,0,0,1,-172.19733061636327,95.69262943716656L-149.1272627776385,82.87224804751682A170.6070045455344,170.6070045455344,0,0,0,-148.5058923435993,83.98065217198122Z" fill-rule="evenodd" style="fill: #D7A449; stroke: #fff; opacity: 1;" id="p-type-tokenTransfers"></path><path d="M-172.19733061636327,95.69262943716656A197,197,0,0,1,-172.9052749573614,94.40744616776396L-149.7403605614083,81.75924668769544A170.6070045455344,170.6070045455344,0,0,0,-149.1272627776385,82.87224804751682Z" fill-rule="evenodd" style="fill: #D7A449; stroke: #fff; opacity: 1;" id="p-type-tokenTransfers"></path><path d="M-172.9052749573614,94.40744616776396A197,197,0,0,1,-173.60362759230387,93.11702576217026L-150.34515168406827,80.64170983488947A170.6070045455344,170.6070045455344,0,0,0,-149.7403605614083,81.75924668769544Z" fill-rule="evenodd" style="fill: #D7A449; stroke: #fff; opacity: 1;" id="p-type-tokenTransfers"></path></g></svg>