<svg xmlns="http://www.w3.org/2000/svg" width="400" height="400" id="block-7907933"><g id="burst-container" transform="translate(200,200)"><circle r="197" style="fill: #f9f9f9; stroke: #f9f9f9; stroke-width: 3; opacity: 1;" id="circle-base"></circle><path display="none" d="M6.031385485800715e-15,-98.5A98.5,98.5,0,1,1,-6.031385485800715e-15,98.5A98.5,98.5,0,1,1,6.031385485800715e-15,-98.5Z" fill-rule="evenodd" id="p-type-root" style="stroke: #fff; opacity: 1;"></path><path d="M8.529667153919608e-15,-139.30003589374985A139.30003589374985,139.30003589374985,0,1,1,-91.20221214638585,-105.29319303547418L-64.48970266792355,-74.45353080816795A98.5,98.5,0,1,0,6.031385485800715e-15,-98.5Z" fill-rule="evenodd" style="fill: #0B1F65; stroke: #fff; opacity: 1;" id="p-type-data"></path><path d="M-91.20221214638585,-105.29319303547418A139.30003589374985,139.30003589374985,0,0,1,-5.373458286603094,-139.1963575171496L-3.799608792880095,-98.42668831684355A98.5,98.5,0,0,0,-64.48970266792355,-74.45353080816795Z" fill-rule="evenodd" style="fill: #D7A449; stroke: #fff; opacity: 1;" id="p-type-value"></path><path d="M1.0446666101440332e-14,-170.6070045455344A170.6070045455344,170.6070045455344,0,0,1,167.6477337463342,31.638384435970135L136.88380140416362,25.832632718046597A139.30003589374985,139.30003589374985,0,0,0,8.529667153919608e-15,-139.30003589374985Z" fill-rule="evenodd" style="fill: #DB3F29; stroke: #fff; opacity: 1;" id="p-type-functions"></path><path d="M167.6477337463342,31.638384435970135A170.6070045455344,170.6070045455344,0,0,1,5.768960266162824,170.50943990714248L4.71033633282985,139.2203747000834A139.30003589374985,139.30003589374985,0,0,0,136.88380140416362,25.832632718046597Z" fill-rule="evenodd" style="fill: #1DC690; stroke: #fff; opacity: 1;" id="p-type-logs"></path><path d="M5.768960266162824,170.50943990714248A170.6070045455344,170.6070045455344,0,0,1,-149.31696287546282,82.52996181780081L-121.91678966232757,67.38543164833014A139.30003589374985,139.30003589374985,0,0,0,4.71033633282985,139.2203747000834Z" fill-rule="evenodd" style="fill: #D7A449; stroke: #fff; opacity: 1;" id="p-type-tokenTransfers"></path><path d="M-149.31696287546282,82.52996181780081A170.6070045455344,170.6070045455344,0,0,1,-170.52790998496053,5.194412013038286L-139.2354554554713,4.241219648575666A139.30003589374985,139.30003589374985,0,0,0,-121.91678966232757,67.38543164833014Z" fill-rule="evenodd" style="fill: #414552; stroke: #fff; opacity: 1;" id="p-type-ether"></path><path d="M-111.69944158585376,-128.9572981626416A170.6070045455344,170.6070045455344,0,0,1,-45.521044798817535,-164.42197079594942L-37.16777743849236,-134.24997698429112A139.30003589374985,139.30003589374985,0,0,0,-91.20221214638585,-105.29319303547418Z" fill-rule="evenodd" style="fill: #D7A449; stroke: #fff; opacity: 1;" id="p-type-tokenTransfers"></path><path d="M-45.521044798817535,-164.42197079594942A170.6070045455344,170.6070045455344,0,0,1,-13.152434557266904,-170.09927532243285L-10.738917846884096,-138.88547671905033A139.30003589374985,139.30003589374985,0,0,0,-37.16777743849236,-134.24997698429112Z" fill-rule="evenodd" style="fill: #414552; stroke: #fff; opacity: 1;" id="p-type-ether"></path><path d="M1.206277097160143e-14,-197A197,197,0,0,1,48.89085085514086,-190.83680122728L42.34071885318813,-165.2695178397858A170.6070045455344,170.6070045455344,0,0,0,1.0446666101440332e-14,-170.6070045455344Z" fill-rule="evenodd" style="fill: #DB3F29; stroke: #fff; opacity: 1;" id="p-type-functions"></path><path d="M48.89085085514086,-190.83680122728A197,197,0,0,1,52.56317493678061,-189.85813819946037L45.52104479881751,-164.42197079594942A170.6070045455344,170.6070045455344,0,0,0,42.34071885318813,-165.2695178397858Z" fill-rule="evenodd" style="fill: #DB3F29; stroke: #fff; opacity: 1;" id="p-type-functions"></path><path d="M52.56317493678061,-189.85813819946037A197,197,0,0,1,56.215936310786944,-188.80881469015569L48.68442894266955,-163.51322998010332A170.6070045455344,170.6070045455344,0,0,0,45.52104479881751,-164.42197079594942Z" fill-rule="evenodd" style="fill: #DB3F29; stroke: #fff; opacity: 1;" id="p-type-functions"></path><path d="M56.215936310786944,-188.80881469015569A197,197,0,0,1,59.84777551013948,-187.68922123150264L51.82969395176898,-162.5436336029989A170.6070045455344,170.6070045455344,0,0,0,48.68442894266955,-163.51322998010332Z" fill-rule="evenodd" style="fill: #DB3F29; stroke: #fff; opacity: 1;" id="p-type-functions"></path><path d="M59.84777551013948,-187.68922123150264A197,197,0,0,1,63.457340854531324,-186.49977450836727L54.95566923663225,-161.5135425243155A170.6070045455344,170.6070045455344,0,0,0,51.82969395176898,-162.5436336029989Z" fill-rule="evenodd" style="fill: #DB3F29; stroke: #fff; opacity: 1;" id="p-type-functions"></path><path d="M63.457340854531324,-186.49977450836727A197,197,0,0,1,67.043288953431,-185.24091720326467L58.061191386931874,-160.42334011835706A170.6070045455344,170.6070045455344,0,0,0,54.95566923663225,-161.5135425243155Z" fill-rule="evenodd" style="fill: #DB3F29; stroke: #fff; opacity: 1;" id="p-type-functions"></path><path d="M67.043288953431,-185.24091720326467A197,197,0,0,1,70.6042852060589,-183.9131178316041L61.14510460448883,-159.27343213137A170.6070045455344,170.6070045455344,0,0,0,58.061191386931874,-160.42334011835706Z" fill-rule="evenodd" style="fill: #DB3F29; stroke: #fff; opacity: 1;" id="p-type-functions"></path><path d="M70.6042852060589,-183.9131178316041A197,197,0,0,1,74.13900429809267,-182.5168705673188L64.20626113343194,-158.06424653053438A170.6070045455344,170.6070045455344,0,0,0,61.14510460448883,-159.27343213137Z" fill-rule="evenodd" style="fill: #DB3F29; stroke: #fff; opacity: 1;" id="p-type-functions"></path><path d="M74.13900429809267,-182.5168705673188A197,197,0,0,1,77.64613069491615,-181.05269505894685L67.24352168736405,-156.79623334468528A170.6070045455344,170.6070045455344,0,0,0,64.20626113343194,-158.06424653053438Z" fill-rule="evenodd" style="fill: #DB3F29; stroke: #fff; opacity: 1;" id="p-type-functions"></path><path d="M77.64613069491615,-181.05269505894685A197,197,0,0,1,81.12435913122876,-179.52113623623103L70.25575587337619,-155.4698644968232A170.6070045455344,170.6070045455344,0,0,0,67.24352168736405,-156.79623334468528Z" fill-rule="evenodd" style="fill: #DB3F29; stroke: #fff; opacity: 1;" id="p-type-functions"></path><path d="M81.12435913122876,-179.52113623623103A197,197,0,0,1,84.57239509683271,-177.9227641073093L73.24184261275163,-154.08563362847596A170.6070045455344,170.6070045455344,0,0,0,70.25575587337619,-155.4698644968232Z" fill-rule="evenodd" style="fill: #DB3F29; stroke: #fff; opacity: 1;" id="p-type-functions"></path><path d="M84.57239509683271,-177.9227641073093A197,197,0,0,1,87.98895531841767,-176.25817354657204L76.20067055820358,-152.6440559159777A170.6070045455344,170.6070045455344,0,0,0,73.24184261275163,-154.08563362847596Z" fill-rule="evenodd" style="fill: #DB3F29; stroke: #fff; opacity: 1;" id="p-type-functions"></path><path d="M87.98895531841767,-176.25817354657204A197,197,0,0,1,91.37276823716307,-174.52798407326455L79.13113850749107,-151.145667878733A170.6070045455344,170.6070045455344,0,0,0,76.20067055820358,-152.6440559159777Z" fill-rule="evenodd" style="fill: #DB3F29; stroke: #fff; opacity: 1;" id="p-type-functions"></path><path d="M91.37276823716307,-174.52798407326455A197,197,0,0,1,94.72257448198079,-172.73283962091747L82.03215581325897,-149.59102717953775A170.6070045455344,170.6070045455344,0,0,0,79.13113850749107,-151.145667878733Z" fill-rule="evenodd" style="fill: #DB3F29; stroke: #fff; opacity: 1;" id="p-type-functions"></path><path d="M94.72257448198079,-172.73283962091747A197,197,0,0,1,98.03712733822175,-170.87340829769064L84.90264278894992,-147.9807124170308A170.6070045455344,170.6070045455344,0,0,0,82.03215581325897,-149.59102717953775Z" fill-rule="evenodd" style="fill: #DB3F29; stroke: #fff; opacity: 1;" id="p-type-functions"></path><path d="M98.03712733822175,-170.87340829769064A197,197,0,0,1,101.31519321167212,-168.95038213771977L87.74153111063677,-146.31532291035398A170.6070045455344,170.6070045455344,0,0,0,84.90264278894992,-147.9807124170308Z" fill-rule="evenodd" style="fill: #DB3F29; stroke: #fff; opacity: 1;" id="p-type-functions"></path><path d="M101.31519321167212,-168.95038213771977A197,197,0,0,1,104.55555208766647,-166.96447684355874L90.54776421462627,-144.5954784761005A170.6070045455344,170.6070045455344,0,0,0,87.74153111063677,-146.31532291035398Z" fill-rule="evenodd" style="fill: #DB3F29; stroke: #fff; opacity: 1;" id="p-type-functions"></path><path d="M104.55555208766647,-166.96447684355874A197,197,0,0,1,107.75699798514685,-164.91643151981265L93.32029769068573,-142.82181919763448A170.6070045455344,170.6070045455344,0,0,0,90.54776421462627,-144.5954784761005Z" fill-rule="evenodd" style="fill: #DB3F29; stroke: #fff; opacity: 1;" id="p-type-functions"></path><path d="M107.75699798514685,-164.91643151981265A197,197,0,0,1,110.91833940549904,-162.80700839806167L96.05809967074671,-140.99500518686784A170.6070045455344,170.6070045455344,0,0,0,93.32029769068573,-142.82181919763448Z" fill-rule="evenodd" style="fill: #DB3F29; stroke: #fff; opacity: 1;" id="p-type-functions"></path><path d="M110.91833940549904,-162.80700839806167A197,197,0,0,1,114.03839977599871,-160.63699255317718L98.76015121294051,-139.11571633858313A170.6070045455344,170.6070045455344,0,0,0,96.05809967074671,-140.99500518686784Z" fill-rule="evenodd" style="fill: #DB3F29; stroke: #fff; opacity: 1;" id="p-type-functions"></path><path d="M114.03839977599871,-160.63699255317718A197,197,0,0,1,117.11601788770251,-158.4071916111366L101.4254466808231,-137.1846520773935A170.6070045455344,170.6070045455344,0,0,0,98.76015121294051,-139.11571633858313Z" fill-rule="evenodd" style="fill: #DB3F29; stroke: #fff; opacity: 1;" id="p-type-functions"></path><path d="M117.11601788770251,-158.4071916111366A197,197,0,0,1,120.1500483276212,-156.11843544844498L104.05299411764797,-135.2025310974344A170.6070045455344,170.6070045455344,0,0,0,101.4254466808231,-137.1846520773935Z" fill-rule="evenodd" style="fill: #DB3F29; stroke: #fff; opacity: 1;" id="p-type-functions"></path><path d="M120.1500483276212,-156.11843544844498A197,197,0,0,1,123.13936190501404,-153.77157588327557L106.64181561554791,-133.17009109488316A170.6070045455344,170.6070045455344,0,0,0,104.05299411764797,-135.2025310974344Z" fill-rule="evenodd" style="fill: #DB3F29; stroke: #fff; opacity: 1;" id="p-type-functions"></path><path d="M123.13936190501404,-153.77157588327557A197,197,0,0,1,126.08284607164525,-151.36748635844427L109.19094767948779,-131.0880884934072A170.6070045455344,170.6070045455344,0,0,0,106.64181561554791,-133.17009109488316Z" fill-rule="evenodd" style="fill: #DB3F29; stroke: #fff; opacity: 1;" id="p-type-functions"></path><path d="M126.08284607164525,-151.36748635844427A197,197,0,0,1,128.97940533584705,-148.9070616163359L111.69944158585372,-128.9572981626416A170.6070045455344,170.6070045455344,0,0,0,109.19094767948779,-131.0880884934072Z" fill-rule="evenodd" style="fill: #DB3F29; stroke: #fff; opacity: 1;" id="p-type-functions"></path><path d="M128.97940533584705,-148.9070616163359A197,197,0,0,1,131.8279616702344,-146.3912173659035L114.16636373554425,-126.77851312980209A170.6070045455344,170.6070045455344,0,0,0,111.69944158585372,-128.9572981626416Z" fill-rule="evenodd" style="fill: #DB3F29; stroke: #fff; opacity: 1;" id="p-type-functions"></path><path d="M131.8279616702344,-146.3912173659035A197,197,0,0,1,134.62745491291994,-143.82088994186384L116.59079600143279,-124.55254428453993A170.6070045455344,170.6070045455344,0,0,0,114.16636373554425,-126.77851312980209Z" fill-rule="evenodd" style="fill: #DB3F29; stroke: #fff; opacity: 1;" id="p-type-functions"></path><path d="M134.62745491291994,-143.82088994186384A197,197,0,0,1,137.37684316207987,-141.19703595621723L118.97183607007172,-122.28022007714894A170.6070045455344,170.6070045455344,0,0,0,116.59079600143279,-124.55254428453993Z" fill-rule="evenodd" style="fill: #DB3F29; stroke: #fff; opacity: 1;" id="p-type-functions"></path><path d="M137.37684316207987,-141.19703595621723A197,197,0,0,1,140.0751031637241,-138.52063194222026L121.30859777751105,-119.96238621023691A170.6070045455344,170.6070045455344,0,0,0,118.97183607007172,-122.28022007714894Z" fill-rule="evenodd" style="fill: #DB3F29; stroke: #fff; opacity: 1;" id="p-type-functions"></path><path d="M140.0751031637241,-138.52063194222026A197,197,0,0,1,142.72123069252572,-135.7926739909442L123.60021143910662,-117.59990532397607A170.6070045455344,170.6070045455344,0,0,0,121.30859777751105,-119.96238621023691Z" fill-rule="evenodd" style="fill: #DB3F29; stroke: #fff; opacity: 1;" id="p-type-functions"></path><path d="M142.72123069252572,-135.7926739909442A197,197,0,0,1,145.31424092556898,-133.0141773805548L125.84582417319507,-115.19365667504991A170.6070045455344,170.6070045455344,0,0,0,123.60021143910662,-117.59990532397607Z" fill-rule="evenodd" style="fill: #DB3F29; stroke: #fff; opacity: 1;" id="p-type-functions"></path><path d="M145.31424092556898,-133.0141773805548A197,197,0,0,1,147.8531688088756,-130.18617619845102L128.04460021851526,-112.74453580941562A170.6070045455344,170.6070045455344,0,0,0,125.84582417319507,-115.19365667504991Z" fill-rule="evenodd" style="fill: #DB3F29; stroke: #fff; opacity: 1;" id="p-type-functions"></path><path d="M147.8531688088756,-130.18617619845102A197,197,0,0,1,150.33706941657417,-127.30972295640329L130.19572124525783,-110.25345422900418A170.6070045455344,170.6070045455344,0,0,0,128.04460021851526,-112.74453580941562Z" fill-rule="evenodd" style="fill: #DB3F29; stroke: #fff; opacity: 1;" id="p-type-functions"></path><path d="M150.33706941657417,-127.30972295640329A197,197,0,0,1,152.76501830257791,-124.38588819883482L132.2983866596272,-107.72133905248197A170.6070045455344,170.6070045455344,0,0,0,130.19572124525783,-110.25345422900418Z" fill-rule="evenodd" style="fill: #DB3F29; stroke: #fff; opacity: 1;" id="p-type-functions"></path><path d="M152.76501830257791,-124.38588819883482A197,197,0,0,1,155.13611184464057,-121.41576010439158L134.35181390180267,-105.14913267020026A170.6070045455344,170.6070045455344,0,0,0,132.2983866596272,-107.72133905248197Z" fill-rule="evenodd" style="fill: #DB3F29; stroke: #fff; opacity: 1;" id="p-type-functions"></path><path d="M155.13611184464057,-121.41576010439158A197,197,0,0,1,157.4494675806622,-118.40044408094927L136.35523873718788,-102.53779239346095A170.6070045455344,170.6070045455344,0,0,0,134.35181390180267,-105.14913267020026Z" fill-rule="evenodd" style="fill: #DB3F29; stroke: #fff; opacity: 1;" id="p-type-functions"></path><path d="M157.4494675806622,-118.40044408094927A197,197,0,0,1,159.70422453711964,-115.34106235420789L138.3079155408397,-99.88829009822899A170.6070045455344,170.6070045455344,0,0,0,136.35523873718788,-102.53779239346095Z" fill-rule="evenodd" style="fill: #DB3F29; stroke: #fff; opacity: 1;" id="p-type-functions"></path><path d="M193.58292841495353,36.53285954166445A197,197,0,0,1,192.84215168639582,40.260458677977205L167.0062022808709,34.86657998314191A170.6070045455344,170.6070045455344,0,0,0,167.6477337463342,31.638384435970135Z" fill-rule="evenodd" style="fill: #1DC690; stroke: #fff; opacity: 1;" id="p-type-logs"></path><path d="M192.84215168639582,40.260458677977205A197,197,0,0,1,192.02960390067926,43.97307387195292L166.30251525665156,38.081799055600975A170.6070045455344,170.6070045455344,0,0,0,167.0062022808709,34.86657998314191Z" fill-rule="evenodd" style="fill: #1DC690; stroke: #fff; opacity: 1;" id="p-type-logs"></path><path d="M192.02960390067926,43.97307387195292A197,197,0,0,1,191.1455874678997,47.66932338046665L165.53693456850158,41.28284502869961A170.6070045455344,170.6070045455344,0,0,0,166.30251525665156,38.081799055600975Z" fill-rule="evenodd" style="fill: #1DC690; stroke: #fff; opacity: 1;" id="p-type-logs"></path><path d="M191.1455874678997,47.66932338046665A197,197,0,0,1,190.1904313970076,51.34783155129489L164.70974514653005,44.46852655266549A170.6070045455344,170.6070045455344,0,0,0,165.53693456850158,41.28284502869961Z" fill-rule="evenodd" style="fill: #1DC690; stroke: #fff; opacity: 1;" id="p-type-logs"></path><path d="M190.1904313970076,51.34783155129489A197,197,0,0,1,189.16449117335895,55.00722933509922L163.82125485008606,47.63765799599252A170.6070045455344,170.6070045455344,0,0,0,164.70974514653005,44.46852655266549Z" fill-rule="evenodd" style="fill: #1DC690; stroke: #fff; opacity: 1;" id="p-type-logs"></path><path d="M189.16449117335895,55.00722933509922A197,197,0,0,1,188.06814862641278,58.646154794952416L162.87179435318095,50.789059886703356A170.6070045455344,170.6070045455344,0,0,0,163.82125485008606,47.63765799599252Z" fill-rule="evenodd" style="fill: #1DC690; stroke: #fff; opacity: 1;" id="p-type-logs"></path><path d="M188.06814862641278,58.646154794952416A197,197,0,0,1,186.90181178762327,62.263253613217515L161.8617170214196,53.92155935131961A170.6070045455344,170.6070045455344,0,0,0,162.87179435318095,50.789059886703356Z" fill-rule="evenodd" style="fill: #1DC690; stroke: #fff; opacity: 1;" id="p-type-logs"></path><path d="M186.90181178762327,62.263253613217515A197,197,0,0,1,185.66591473858102,65.85717959559123L160.7913987804868,57.03399055137619A170.6070045455344,170.6070045455344,0,0,0,161.8617170214196,53.92155935131961Z" fill-rule="evenodd" style="fill: #1DC690; stroke: #fff; opacity: 1;" id="p-type-logs"></path><path d="M185.66591473858102,65.85717959559123A197,197,0,0,1,184.36091744945838,69.42659517212401L159.66123797623675,60.12519511731745A170.6070045455344,170.6070045455344,0,0,0,160.7913987804868,57.03399055137619Z" fill-rule="evenodd" style="fill: #1DC690; stroke: #fff; opacity: 1;" id="p-type-logs"></path><path d="M184.36091744945838,69.42659517212401A197,197,0,0,1,182.98730560782005,72.97017189503029L158.47165522643883,63.194022579613495A170.6070045455344,170.6070045455344,0,0,0,159.66123797623675,60.12519511731745Z" fill-rule="evenodd" style="fill: #1DC690; stroke: #fff; opacity: 1;" id="p-type-logs"></path><path d="M182.98730560782005,72.97017189503029A197,197,0,0,1,181.5455904378623,76.48659093310381L157.22309326423402,66.23933079693641A170.6070045455344,170.6070045455344,0,0,0,158.47165522643883,63.194022579613495Z" fill-rule="evenodd" style="fill: #1DC690; stroke: #fff; opacity: 1;" id="p-type-logs"></path><path d="M181.5455904378623,76.48659093310381A197,197,0,0,1,180.03630851014796,79.97454356255382L155.91601677336067,69.25998638123684A170.6070045455344,170.6070045455344,0,0,0,157.22309326423402,66.23933079693641Z" fill-rule="evenodd" style="fill: #1DC690; stroke: #fff; opacity: 1;" id="p-type-logs"></path><path d="M180.03630851014796,79.97454356255382A197,197,0,0,1,178.46002154190828,83.43273165407943L154.55091221521073,72.25486511956285A170.6070045455344,170.6070045455344,0,0,0,155.91601677336067,69.25998638123684Z" fill-rule="evenodd" style="fill: #1DC690; stroke: #fff; opacity: 1;" id="p-type-logs"></path><path d="M178.46002154190828,83.43273165407943A197,197,0,0,1,176.81731618798554,86.85986815600138L153.12828764778095,75.22285239246419A170.6070045455344,170.6070045455344,0,0,0,154.55091221521073,72.25486511956285Z" fill-rule="evenodd" style="fill: #1DC690; stroke: #fff; opacity: 1;" id="p-type-logs"></path><path d="M176.81731618798554,86.85986815600138A197,197,0,0,1,175.10880382249493,90.25467757327033L151.64867253658622,78.16284358882575A170.6070045455344,170.6070045455344,0,0,0,153.12828764778095,75.22285239246419Z" fill-rule="evenodd" style="fill: #1DC690; stroke: #fff; opacity: 1;" id="p-type-logs"></path><path d="M175.10880382249493,90.25467757327033A197,197,0,0,1,173.33512031128615,93.61589644217462L150.11261755760583,81.07374451697646A170.6070045455344,170.6070045455344,0,0,0,151.64867253658622,78.16284358882575Z" fill-rule="evenodd" style="fill: #1DC690; stroke: #fff; opacity: 1;" id="p-type-logs"></path><path d="M173.33512031128615,93.61589644217462A197,197,0,0,1,171.49692577528992,96.94227380057008L148.52069439233537,83.95447181192031A170.6070045455344,170.6070045455344,0,0,0,150.11261755760583,81.07374451697646Z" fill-rule="evenodd" style="fill: #1DC690; stroke: #fff; opacity: 1;" id="p-type-logs"></path><path d="M171.49692577528992,96.94227380057008A197,197,0,0,1,169.59490434483757,100.232571653457L146.8734955150212,86.80395333853777A170.6070045455344,170.6070045455344,0,0,0,148.52069439233537,83.95447181192031Z" fill-rule="evenodd" style="fill: #1DC690; stroke: #fff; opacity: 1;" id="p-type-logs"></path><path d="M169.59490434483757,100.232571653457A197,197,0,0,1,167.62976390504448,103.48556543373113L145.1716339721563,89.62112859060794A170.6070045455344,170.6070045455344,0,0,0,146.8734955150212,86.80395333853777Z" fill-rule="evenodd" style="fill: #1DC690; stroke: #fff; opacity: 1;" id="p-type-logs"></path><path d="M167.62976390504448,103.48556543373113A197,197,0,0,1,165.60223583235296,106.70004445793707L143.4157431543193,92.40494908550251A170.6070045455344,170.6070045455344,0,0,0,145.1716339721563,89.62112859060794Z" fill-rule="evenodd" style="fill: #1DC690; stroke: #fff; opacity: 1;" id="p-type-logs"></path><path d="M165.60223583235296,106.70004445793707A197,197,0,0,1,163.51307472233214,109.87481237685472L141.6064765604428,95.15437875440504A170.6070045455344,170.6070045455344,0,0,0,143.4157431543193,92.40494908550251Z" fill-rule="evenodd" style="fill: #1DC690; stroke: #fff; opacity: 1;" id="p-type-logs"></path><path d="M163.51307472233214,109.87481237685472A197,197,0,0,1,161.3630581088361,113.00868762075056L139.74450755459662,97.86839432791A170.6070045455344,170.6070045455344,0,0,0,141.6064765604428,95.15437875440504Z" fill-rule="evenodd" style="fill: #1DC690; stroke: #fff; opacity: 1;" id="p-type-logs"></path><path d="M161.3630581088361,113.00868762075056A197,197,0,0,1,159.15298617462528,116.10050383912868L137.83052911537902,100.54598571685818A170.6070045455344,170.6070045455344,0,0,0,139.74450755459662,97.86839432791Z" fill-rule="evenodd" style="fill: #1DC690; stroke: #fff; opacity: 1;" id="p-type-logs"></path><path d="M159.15298617462528,116.10050383912868A197,197,0,0,1,156.88368145355824,119.14911033481732L135.865253578007,103.1861563882668A170.6070045455344,170.6070045455344,0,0,0,137.83052911537902,100.54598571685818Z" fill-rule="evenodd" style="fill: #1DC690; stroke: #fff; opacity: 1;" id="p-type-logs"></path><path d="M156.88368145355824,119.14911033481732A197,197,0,0,1,154.5559885244649,122.1533724922299L133.84941236920278,105.78792373621434A170.6070045455344,170.6070045455344,0,0,0,135.865253578007,103.1861563882668Z" fill-rule="evenodd" style="fill: #1DC690; stroke: #fff; opacity: 1;" id="p-type-logs"></path><path d="M154.5559885244649,122.1533724922299A197,197,0,0,1,152.1707736968156,125.11217219964065L131.78375573497516,108.35031944754202A170.6070045455344,170.6070045455344,0,0,0,133.84941236920278,105.78792373621434Z" fill-rule="evenodd" style="fill: #1DC690; stroke: #fff; opacity: 1;" id="p-type-logs"></path><path d="M152.1707736968156,125.11217219964065A197,197,0,0,1,149.7289246883018,128.0244082653181L129.66905246139635,110.87238986223592A170.6070045455344,170.6070045455344,0,0,0,131.78375573497516,108.35031944754202Z" fill-rule="evenodd" style="fill: #1DC690; stroke: #fff; opacity: 1;" id="p-type-logs"></path><path d="M149.7289246883018,128.0244082653181A197,197,0,0,1,147.23135029444998,130.88899682736118L127.50608958847917,113.35319632835557A170.6070045455344,170.6070045455344,0,0,0,129.66905246139635,110.87238986223592Z" fill-rule="evenodd" style="fill: #1DC690; stroke: #fff; opacity: 1;" id="p-type-logs"></path><path d="M147.23135029444998,130.88899682736118A197,197,0,0,1,144.67898005039038,133.70487175708575L125.29567211726007,115.79181555137676A170.6070045455344,170.6070045455344,0,0,0,127.50608958847917,113.35319632835557Z" fill-rule="evenodd" style="fill: #1DC690; stroke: #fff; opacity: 1;" id="p-type-logs"></path><path d="M144.67898005039038,133.70487175708575A197,197,0,0,1,142.0727638849071,136.47098505581118L123.03862271019787,118.18733993781898A170.6070045455344,170.6070045455344,0,0,0,125.29567211726007,115.79181555137676Z" fill-rule="evenodd" style="fill: #1DC690; stroke: #fff; opacity: 1;" id="p-type-logs"></path><path d="M142.0727638849071,136.47098505581118A197,197,0,0,1,139.41367176689823,139.18630724489952L120.73578138499923,120.53887793302904A170.6070045455344,170.6070045455344,0,0,0,123.03862271019787,118.18733993781898Z" fill-rule="evenodd" style="fill: #1DC690; stroke: #fff; opacity: 1;" id="p-type-logs"></path><path d="M139.41367176689823,139.18630724489952A197,197,0,0,1,136.7026933443776,141.84982774890162L118.3880052019849,122.84555435299559A170.6070045455344,170.6070045455344,0,0,0,120.73578138499923,120.53887793302904Z" fill-rule="evenodd" style="fill: #1DC690; stroke: #fff; opacity: 1;" id="p-type-logs"></path><path d="M136.7026933443776,141.84982774890162A197,197,0,0,1,133.94083757615223,144.46055527166857L115.99616794511316,125.10651071007098A170.6070045455344,170.6070045455344,0,0,0,118.3880052019849,122.84555435299559Z" fill-rule="evenodd" style="fill: #1DC690; stroke: #fff; opacity: 1;" id="p-type-logs"></path><path d="M133.94083757615223,144.46055527166857A197,197,0,0,1,131.12913235631314,147.01751816528704L113.56115979677918,127.32090553247876A170.6070045455344,170.6070045455344,0,0,0,115.99616794511316,125.10651071007098Z" fill-rule="evenodd" style="fill: #1DC690; stroke: #fff; opacity: 1;" id="p-type-logs"></path><path d="M131.12913235631314,147.01751816528704A197,197,0,0,1,128.2686241316785,149.51976479170298L111.08388700651128,129.48791467748885A170.6070045455344,170.6070045455344,0,0,0,113.56115979677918,127.32090553247876Z" fill-rule="evenodd" style="fill: #1DC690; stroke: #fff; opacity: 1;" id="p-type-logs"></path><path d="M6.661421525226723,196.88734205952207A197,197,0,0,1,-42.409874621301405,192.38087881753086L-36.72802879335996,166.60672825835732A170.6070045455344,170.6070045455344,0,0,0,5.768960266162824,170.50943990714248Z" fill-rule="evenodd" style="fill: #D7A449; stroke: #fff; opacity: 1;" id="p-type-tokenTransfers"></path><path d="M-42.409874621301405,192.38087881753086A197,197,0,0,1,-46.113191446553614,191.52695260618933L-39.93519524229072,165.86720646637815A170.6070045455344,170.6070045455344,0,0,0,-36.72802879335996,166.60672825835732Z" fill-rule="evenodd" style="fill: #D7A449; stroke: #fff; opacity: 1;" id="p-type-tokenTransfers"></path><path d="M-46.113191446553614,191.52695260618933A197,197,0,0,1,-49.79934608775973,190.60174482210684L-43.12749880385313,165.0659530215836A170.6070045455344,170.6070045455344,0,0,0,-39.93519524229072,165.86720646637815Z" fill-rule="evenodd" style="fill: #D7A449; stroke: #fff; opacity: 1;" id="p-type-tokenTransfers"></path><path d="M-49.79934608775973,190.60174482210684A197,197,0,0,1,-53.46696664975505,189.60559980463125L-46.30375138198323,164.20326613059646A170.6070045455344,170.6070045455344,0,0,0,-43.12749880385313,165.0659530215836Z" fill-rule="evenodd" style="fill: #D7A449; stroke: #fff; opacity: 1;" id="p-type-tokenTransfers"></path><path d="M-53.46696664975505,189.60559980463125A197,197,0,0,1,-57.1146881352986,188.5388882941861L-49.46277085439426,163.2794668640417A170.6070045455344,170.6070045455344,0,0,0,-46.30375138198323,164.20326613059646Z" fill-rule="evenodd" style="fill: #D7A449; stroke: #fff; opacity: 1;" id="p-type-tokenTransfers"></path><path d="M-57.1146881352986,188.5388882941861A197,197,0,0,1,-60.741152953091245,187.40200729429014L-52.60338151253319,162.29489903705195A170.6070045455344,170.6070045455344,0,0,0,-49.46277085439426,163.2794668640417Z" fill-rule="evenodd" style="fill: #D7A449; stroke: #fff; opacity: 1;" id="p-type-tokenTransfers"></path><path d="M-60.741152953091245,187.40200729429014A197,197,0,0,1,-64.34501142303738,186.1953799238026L-55.724414499150264,161.2499290813081A170.6070045455344,170.6070045455344,0,0,0,-52.60338151253319,162.29489903705195Z" fill-rule="evenodd" style="fill: #D7A449; stroke: #fff; opacity: 1;" id="p-type-tokenTransfers"></path><path d="M-64.34501142303738,186.1953799238026A197,197,0,0,1,-67.92492227856238,184.9194552594487L-58.82470824331859,160.14494590866252A170.6070045455344,170.6070045455344,0,0,0,-55.724414499150264,161.2499290813081Z" fill-rule="evenodd" style="fill: #D7A449; stroke: #fff; opacity: 1;" id="p-type-tokenTransfers"></path><path d="M-67.92492227856238,184.9194552594487A197,197,0,0,1,-71.47955316579863,183.57470816868474L-61.90310889274201,158.98036076639568A170.6070045455344,170.6070045455344,0,0,0,-58.82470824331859,160.14494590866252Z" fill-rule="evenodd" style="fill: #D7A449; stroke: #fff; opacity: 1;" id="p-type-tokenTransfers"></path><path d="M-71.47955316579863,183.57470816868474A197,197,0,0,1,-75.0075811394546,182.1616391329638L-64.9584707431902,157.75660708416018A170.6070045455344,170.6070045455344,0,0,0,-61.90310889274201,158.98036076639568Z" fill-rule="evenodd" style="fill: #D7A449; stroke: #fff; opacity: 1;" id="p-type-tokenTransfers"></path><path d="M-75.0075811394546,182.1616391329638A197,197,0,0,1,-78.50769315518212,180.68077406146944L-67.9896566649014,156.474140312669A170.6070045455344,170.6070045455344,0,0,0,-64.9584707431902,157.75660708416018Z" fill-rule="evenodd" style="fill: #D7A449; stroke: #fff; opacity: 1;" id="p-type-tokenTransfers"></path><path d="M-78.50769315518212,180.68077406146944A197,197,0,0,1,-81.97858655825897,179.13266409538502L-70.99553852579378,155.133437754188A170.6070045455344,170.6070045455344,0,0,0,-67.9896566649014,156.474140312669Z" fill-rule="evenodd" style="fill: #D7A449; stroke: #fff; opacity: 1;" id="p-type-tokenTransfers"></path><path d="M-81.97858655825897,179.13266409538502A197,197,0,0,1,-85.41896956840448,177.51788540277283L-73.97499761132816,153.73499838489604A170.6070045455344,170.6070045455344,0,0,0,-70.99553852579378,155.133437754188Z" fill-rule="evenodd" style="fill: #D7A449; stroke: #fff; opacity: 1;" id="p-type-tokenTransfers"></path><path d="M-85.41896956840448,177.51788540277283A197,197,0,0,1,-88.82756176054816,175.83703896413863L-76.92692504086588,152.27934266917822A170.6070045455344,170.6070045455344,0,0,0,-73.97499761132816,153.73499838489604Z" fill-rule="evenodd" style="fill: #D7A449; stroke: #fff; opacity: 1;" id="p-type-tokenTransfers"></path><path d="M-88.82756176054816,175.83703896413863A197,197,0,0,1,-92.20309454137205,174.0907503487615L-79.8502221803665,150.76701236592208A170.6070045455344,170.6070045455344,0,0,0,-76.92692504086588,152.27934266917822Z" fill-rule="evenodd" style="fill: #D7A449; stroke: #fff; opacity: 1;" id="p-type-tokenTransfers"></path><path d="M-92.20309454137205,174.0907503487615A197,197,0,0,1,-95.54431162144958,172.2796694818728L-82.7438010512721,149.19857032688853A170.6070045455344,170.6070045455344,0,0,0,-79.8502221803665,150.76701236592208Z" fill-rule="evenodd" style="fill: #D7A449; stroke: #fff; opacity: 1;" id="p-type-tokenTransfers"></path><path d="M-95.54431162144958,172.2796694818728A197,197,0,0,1,-98.84996948280539,170.4044704027698L-85.60658473542598,147.57460028723213A170.6070045455344,170.6070045455344,0,0,0,-82.7438010512721,149.19857032688853Z" fill-rule="evenodd" style="fill: #D7A449; stroke: #fff; opacity: 1;" id="p-type-tokenTransfers"></path><path d="M-98.84996948280539,170.4044704027698A197,197,0,0,1,-102.11883784172173,168.4658510139552L-88.43750777587466,145.89570664824961A170.6070045455344,170.6070045455344,0,0,0,-85.60658473542598,147.57460028723213Z" fill-rule="evenodd" style="fill: #D7A449; stroke: #fff; opacity: 1;" id="p-type-tokenTransfers"></path><path d="M-102.11883784172173,168.4658510139552A197,197,0,0,1,-105.3497001066195,166.46453282139512L-91.23551657340465,144.16251425243664A170.6070045455344,170.6070045455344,0,0,0,-88.43750777587466,145.89570664824961Z" fill-rule="evenodd" style="fill: #D7A449; stroke: #fff; opacity: 1;" id="p-type-tokenTransfers"></path><path d="M-105.3497001066195,166.46453282139512A197,197,0,0,1,-108.54135383084346,164.40126066599257L-93.99956977866584,142.37566815093697A170.6070045455344,170.6070045455344,0,0,0,-91.23551657340465,144.16251425243664Z" fill-rule="evenodd" style="fill: #D7A449; stroke: #fff; opacity: 1;" id="p-type-tokenTransfers"></path><path d="M-108.54135383084346,164.40126066599257A197,197,0,0,1,-111.69261116018299,162.27680244637605L-96.72863867973578,140.5358333634704A170.6070045455344,170.6070045455344,0,0,0,-93.99956977866584,142.37566815093697Z" fill-rule="evenodd" style="fill: #D7A449; stroke: #fff; opacity: 1;" id="p-type-tokenTransfers"></path><path d="M-111.69261116018299,162.27680244637605A197,197,0,0,1,-114.80229927496183,160.09194883310684L-99.42170758498078,138.64369463082903A170.6070045455344,170.6070045455344,0,0,0,-96.72863867973578,140.5358333634704Z" fill-rule="evenodd" style="fill: #D7A449; stroke: #fff; opacity: 1;" id="p-type-tokenTransfers"></path><path d="M-172.4163774214516,95.29739134343367A197,197,0,0,1,-190.67289590538607,49.52622302431116L-165.1275716672102,42.89096729254723A170.6070045455344,170.6070045455344,0,0,0,-149.31696287546282,82.52996181780081Z" fill-rule="evenodd" style="fill: #414552; stroke: #fff; opacity: 1;" id="p-type-ether"></path><path d="M-190.67289590538607,49.52622302431116A197,197,0,0,1,-191.81383584840393,44.90492597835513L-166.11565464205603,38.88880665231533A170.6070045455344,170.6070045455344,0,0,0,-165.1275716672102,42.89096729254723Z" fill-rule="evenodd" style="fill: #414552; stroke: #fff; opacity: 1;" id="p-type-ether"></path></g></svg>