<svg xmlns="http://www.w3.org/2000/svg" width="400" height="400" id="block-7907890"><g id="burst-container" transform="translate(200,200)"><circle r="197" style="fill: #f9f9f9; stroke: #f9f9f9; stroke-width: 3; opacity: 1;" id="circle-base"></circle><path display="none" d="M6.031385485800715e-15,-98.5A98.5,98.5,0,1,1,-6.031385485800715e-15,98.5A98.5,98.5,0,1,1,6.031385485800715e-15,-98.5Z" fill-rule="evenodd" id="p-type-root" style="stroke: #fff; opacity: 1;"></path><path d="M8.529667153919608e-15,-139.30003589374985A139.30003589374985,139.30003589374985,0,1,1,-102.74679907907579,-94.06165679491313L-72.65295837402621,-66.51163536932478A98.5,98.5,0,1,0,6.031385485800715e-15,-98.5Z" fill-rule="evenodd" style="fill: #0B1F65; stroke: #fff; opacity: 1;" id="p-type-data"></path><path d="M-102.74679907907579,-94.06165679491313A139.30003589374985,139.30003589374985,0,0,1,-5.500917204407904,-139.1913787197693L-3.8897358579825747,-98.42316777545379A98.5,98.5,0,0,0,-72.65295837402621,-66.51163536932478Z" fill-rule="evenodd" style="fill: #D7A449; stroke: #fff; opacity: 1;" id="p-type-value"></path><path d="M1.0446666101440332e-14,-170.6070045455344A170.6070045455344,170.6070045455344,0,0,1,170.59774384265515,-1.777581445622157L139.29247456151194,-1.4513891726710557A139.30003589374985,139.30003589374985,0,0,0,8.529667153919608e-15,-139.30003589374985Z" fill-rule="evenodd" style="fill: #414552; stroke: #fff; opacity: 1;" id="p-type-ether"></path><path d="M170.59774384265515,-1.777581445622157A170.6070045455344,170.6070045455344,0,0,1,68.5689429892443,156.22115752143742L55.98630750854614,127.55404098482536A139.30003589374985,139.30003589374985,0,0,0,139.29247456151194,-1.4513891726710557Z" fill-rule="evenodd" style="fill: #DB3F29; stroke: #fff; opacity: 1;" id="p-type-functions"></path><path d="M68.5689429892443,156.22115752143742A170.6070045455344,170.6070045455344,0,0,1,-108.91261853585743,131.31942553812365L-88.92678065441328,107.22186196127107A139.30003589374985,139.30003589374985,0,0,0,55.98630750854614,127.55404098482536Z" fill-rule="evenodd" style="fill: #1DC690; stroke: #fff; opacity: 1;" id="p-type-logs"></path><path d="M-108.91261853585743,131.31942553812365A170.6070045455344,170.6070045455344,0,0,1,-168.22775088704734,28.3932004445702L-137.35738341643537,23.18295108458716A139.30003589374985,139.30003589374985,0,0,0,-88.92678065441328,107.22186196127107Z" fill-rule="evenodd" style="fill: #D7A449; stroke: #fff; opacity: 1;" id="p-type-tokenTransfers"></path><path d="M-125.83861522400012,-115.20153175416569A170.6070045455344,170.6070045455344,0,0,1,-74.86034654188917,-153.30583327332414L-61.12321699851723,-125.17368870394517A139.30003589374985,139.30003589374985,0,0,0,-102.74679907907579,-94.06165679491313Z" fill-rule="evenodd" style="fill: #414552; stroke: #fff; opacity: 1;" id="p-type-ether"></path><path d="M-74.86034654188917,-153.30583327332414A170.6070045455344,170.6070045455344,0,0,1,-13.463929900377732,-170.07490288586882L-10.993252729508997,-138.86557670792695A139.30003589374985,139.30003589374985,0,0,0,-61.12321699851723,-125.17368870394517Z" fill-rule="evenodd" style="fill: #D7A449; stroke: #fff; opacity: 1;" id="p-type-tokenTransfers"></path><path d="M1.206277097160143e-14,-197A197,197,0,0,1,171.49177788919638,-96.95138016760016L148.51623619220257,-83.96235815710455A170.6070045455344,170.6070045455344,0,0,0,1.0446666101440332e-14,-170.6070045455344Z" fill-rule="evenodd" style="fill: #414552; stroke: #fff; opacity: 1;" id="p-type-ether"></path><path d="M171.49177788919638,-96.95138016760016A197,197,0,0,1,176.9315683760782,-86.6269017798811L153.22723294510715,-75.02109759251643A170.6070045455344,170.6070045455344,0,0,0,148.51623619220257,-83.96235815710455Z" fill-rule="evenodd" style="fill: #414552; stroke: #fff; opacity: 1;" id="p-type-ether"></path><path d="M176.9315683760782,-86.6269017798811A197,197,0,0,1,180.18995290203227,-79.62776446167123L156.04907671988147,-68.959666870371A170.6070045455344,170.6070045455344,0,0,0,153.22723294510715,-75.02109759251643Z" fill-rule="evenodd" style="fill: #414552; stroke: #fff; opacity: 1;" id="p-type-ether"></path><path d="M180.18995290203227,-79.62776446167123A197,197,0,0,1,180.96025523986242,-77.86132559572717L156.71617811303693,-67.42988593823127A170.6070045455344,170.6070045455344,0,0,0,156.04907671988147,-68.959666870371Z" fill-rule="evenodd" style="fill: #414552; stroke: #fff; opacity: 1;" id="p-type-ether"></path><path d="M180.96025523986242,-77.86132559572717A197,197,0,0,1,181.5907215795653,-76.3793809624875L157.2621779794506,-66.14648423884371A170.6070045455344,170.6070045455344,0,0,0,156.71617811303693,-67.42988593823127Z" fill-rule="evenodd" style="fill: #414552; stroke: #fff; opacity: 1;" id="p-type-ether"></path><path d="M181.5907215795653,-76.3793809624875A197,197,0,0,1,182.04707428962752,-75.28520932153168L157.65739101945036,-65.19890380167546A170.6070045455344,170.6070045455344,0,0,0,157.2621779794506,-66.14648423884371Z" fill-rule="evenodd" style="fill: #414552; stroke: #fff; opacity: 1;" id="p-type-ether"></path><path d="M196.98930666139955,-2.052574252272873A197,197,0,0,1,196.99142456861443,1.8381094711379538L170.5995780041061,1.5918494969422472A170.6070045455344,170.6070045455344,0,0,0,170.59774384265515,-1.777581445622157Z" fill-rule="evenodd" style="fill: #DB3F29; stroke: #fff; opacity: 1;" id="p-type-functions"></path><path d="M196.99142456861443,1.8381094711379538A197,197,0,0,1,196.91670610330436,5.728076241187103L170.5348699150158,4.96065953968211A170.6070045455344,170.6070045455344,0,0,0,170.5995780041061,1.5918494969422472Z" fill-rule="evenodd" style="fill: #DB3F29; stroke: #fff; opacity: 1;" id="p-type-functions"></path><path d="M196.91670610330436,5.728076241187103A197,197,0,0,1,196.76518040935642,9.615808778954907L170.4036448147308,8.327534680508373A170.6070045455344,170.6070045455344,0,0,0,170.5348699150158,4.96065953968211Z" fill-rule="evenodd" style="fill: #DB3F29; stroke: #fff; opacity: 1;" id="p-type-functions"></path><path d="M196.76518040935642,9.615808778954907A197,197,0,0,1,196.53690658926547,13.499790676982496L170.20595388751312,11.691161672039165A170.6070045455344,170.6070045455344,0,0,0,170.4036448147308,8.327534680508373Z" fill-rule="evenodd" style="fill: #DB3F29; stroke: #fff; opacity: 1;" id="p-type-functions"></path><path d="M196.53690658926547,13.499790676982496A197,197,0,0,1,196.23197368108137,17.378506990745503L169.94187424257584,15.050228533831064A170.6070045455344,170.6070045455344,0,0,0,170.20595388751312,11.691161672039165Z" fill-rule="evenodd" style="fill: #DB3F29; stroke: #fff; opacity: 1;" id="p-type-functions"></path><path d="M196.23197368108137,17.378506990745503A197,197,0,0,1,195.85050062367966,21.250444829557164L169.61150888400664,18.403425064116178A170.6070045455344,170.6070045455344,0,0,0,169.94187424257584,15.050228533831064Z" fill-rule="evenodd" style="fill: #DB3F29; stroke: #fff; opacity: 1;" id="p-type-functions"></path><path d="M195.85050062367966,21.250444829557164A197,197,0,0,1,195.39263621036955,25.114093946670295L169.2149866705912,21.749443350845468A170.6070045455344,170.6070045455344,0,0,0,169.61150888400664,18.403425064116178Z" fill-rule="evenodd" style="fill: #DB3F29; stroke: #fff; opacity: 1;" id="p-type-functions"></path><path d="M195.39263621036955,25.114093946670295A197,197,0,0,1,194.85855903085718,28.967947328348043L168.75246226555197,25.086978281838963A170.6070045455344,170.6070045455344,0,0,0,169.2149866705912,21.749443350845468Z" fill-rule="evenodd" style="fill: #DB3F29; stroke: #fff; opacity: 1;" id="p-type-functions"></path><path d="M194.85855903085718,28.967947328348043A197,197,0,0,1,194.24847740158683,32.81050178167356L168.22411607622163,28.414728053843888A170.6070045455344,170.6070045455344,0,0,0,168.75246226555197,25.086978281838963Z" fill-rule="evenodd" style="fill: #DB3F29; stroke: #fff; opacity: 1;" id="p-type-functions"></path><path d="M194.24847740158683,32.81050178167356A197,197,0,0,1,193.5626292844873,36.640258520869395L167.63015418367573,31.731394680302138A170.6070045455344,170.6070045455344,0,0,0,168.22411607622163,28.414728053843888Z" fill-rule="evenodd" style="fill: #DB3F29; stroke: #fff; opacity: 1;" id="p-type-functions"></path><path d="M193.5626292844873,36.640258520869395A197,197,0,0,1,192.80128219415485,40.45572375189787L166.97080826235046,35.035684497629056A170.6070045455344,170.6070045455344,0,0,0,167.63015418367573,31.731394680302138Z" fill-rule="evenodd" style="fill: #DB3F29; stroke: #fff; opacity: 1;" id="p-type-functions"></path><path d="M192.80128219415485,40.45572375189787A197,197,0,0,1,191.96473309350947,44.25540925511447L166.24633548967853,38.32630866980609A170.6070045455344,170.6070045455344,0,0,0,166.97080826235046,35.035684497629056Z" fill-rule="evenodd" style="fill: #DB3F29; stroke: #fff; opacity: 1;" id="p-type-functions"></path><path d="M191.96473309350947,44.25540925511447A197,197,0,0,1,191.05330827796467,48.037832965746844L165.45701844577718,41.60198369109033A170.6070045455344,170.6070045455344,0,0,0,166.24633548967853,38.32630866980609Z" fill-rule="evenodd" style="fill: #DB3F29; stroke: #fff; opacity: 1;" id="p-type-functions"></path><path d="M191.05330827796467,48.037832965746844A197,197,0,0,1,190.0673632481561,51.80151955197328L164.60316500322799,44.86143188664515A170.6070045455344,170.6070045455344,0,0,0,165.45701844577718,41.60198369109033Z" fill-rule="evenodd" style="fill: #DB3F29; stroke: #fff; opacity: 1;" id="p-type-functions"></path><path d="M190.0673632481561,51.80151955197328A197,197,0,0,1,189.0072825712789,55.54500099037475L163.6851082069913,48.10338191089634A170.6070045455344,170.6070045455344,0,0,0,164.60316500322799,44.86143188664515Z" fill-rule="evenodd" style="fill: #DB3F29; stroke: #fff; opacity: 1;" id="p-type-functions"></path><path d="M189.0072825712789,55.54500099037475A197,197,0,0,1,187.8734797310873,59.26681713853662L162.70320614450242,51.32656924341966A170.6070045455344,170.6070045455344,0,0,0,163.6851082069913,48.10338191089634Z" fill-rule="evenodd" style="fill: #DB3F29; stroke: #fff; opacity: 1;" id="p-type-functions"></path><path d="M187.8734797310873,59.26681713853662A197,197,0,0,1,186.66639696661574,62.96551630457602L161.6578418059997,54.529736682166096A170.6070045455344,170.6070045455344,0,0,0,162.70320614450242,51.32656924341966Z" fill-rule="evenodd" style="fill: #DB3F29; stroke: #fff; opacity: 1;" id="p-type-functions"></path><path d="M186.66639696661574,62.96551630457602A197,197,0,0,1,185.38650509968386,66.6396558133735L160.5494229351396,57.7116348338328A170.6070045455344,170.6070045455344,0,0,0,161.6578418059997,54.529736682166096Z" fill-rule="evenodd" style="fill: #DB3F29; stroke: #fff; opacity: 1;" id="p-type-functions"></path><path d="M185.38650509968386,66.6396558133735A197,197,0,0,1,184.03430335125267,70.28780256928731L159.37838186995646,60.871022601187946A170.6070045455344,170.6070045455344,0,0,0,160.5494229351396,57.7116348338328Z" fill-rule="evenodd" style="fill: #DB3F29; stroke: #fff; opacity: 1;" id="p-type-functions"></path><path d="M184.03430335125267,70.28780256928731A197,197,0,0,1,182.6103191467037,73.9085336151315L158.14517537422927,64.00666766716002A170.6070045455344,170.6070045455344,0,0,0,159.37838186995646,60.871022601187946Z" fill-rule="evenodd" style="fill: #DB3F29; stroke: #fff; opacity: 1;" id="p-type-functions"></path><path d="M182.6103191467037,73.9085336151315A197,197,0,0,1,181.11510791011722,77.50043668719934L156.85028445932144,67.11734697550213A170.6070045455344,170.6070045455344,0,0,0,158.14517537422927,64.00666766716002Z" fill-rule="evenodd" style="fill: #DB3F29; stroke: #fff; opacity: 1;" id="p-type-functions"></path><path d="M181.11510791011722,77.50043668719934A197,197,0,0,1,179.5492528476294,81.06211076611591L155.49421419656252,70.20184720784442A170.6070045455344,170.6070045455344,0,0,0,156.85028445932144,67.11734697550213Z" fill-rule="evenodd" style="fill: #DB3F29; stroke: #fff; opacity: 1;" id="p-type-functions"></path><path d="M179.5492528476294,81.06211076611591A197,197,0,0,1,177.91336471995314,84.59216662330468L154.0774935202455,73.25896525694795A170.6070045455344,170.6070045455344,0,0,0,155.49421419656252,70.20184720784442Z" fill-rule="evenodd" style="fill: #DB3F29; stroke: #fff; opacity: 1;" id="p-type-functions"></path><path d="M177.91336471995314,84.59216662330468A197,197,0,0,1,176.20808160415118,88.08922736285525L152.60067502131633,76.28750869597593A170.6070045455344,170.6070045455344,0,0,0,154.0774935202455,73.25896525694795Z" fill-rule="evenodd" style="fill: #DB3F29; stroke: #fff; opacity: 1;" id="p-type-functions"></path><path d="M176.20808160415118,88.08922736285525A197,197,0,0,1,174.43406864475475,91.5519289585806L151.06433473183623,79.28629624359901A170.6070045455344,170.6070045455344,0,0,0,152.60067502131633,76.28750869597593Z" fill-rule="evenodd" style="fill: #DB3F29; stroke: #fff; opacity: 1;" id="p-type-functions"></path><path d="M174.43406864475475,91.5519289585806A197,197,0,0,1,172.5920177943243,94.97892078605463L149.46907190030072,82.25415822475317A170.6070045455344,170.6070045455344,0,0,0,151.06433473183623,79.28629624359901Z" fill-rule="evenodd" style="fill: #DB3F29; stroke: #fff; opacity: 1;" id="p-type-functions"></path><path d="M172.5920177943243,94.97892078605463A197,197,0,0,1,170.68264754355388,98.3688661494223L147.81550875790327,85.18993702687085A170.6070045455344,170.6070045455344,0,0,0,149.46907190030072,82.25415822475317Z" fill-rule="evenodd" style="fill: #DB3F29; stroke: #fff; opacity: 1;" id="p-type-functions"></path><path d="M79.17659538577661,180.38865469623366A197,197,0,0,1,75.59871193059051,181.91710957036335L65.47040502527311,157.5448382709719A170.6070045455344,170.6070045455344,0,0,0,68.5689429892443,156.22115752143742Z" fill-rule="evenodd" style="fill: #1DC690; stroke: #fff; opacity: 1;" id="p-type-logs"></path><path d="M75.59871193059051,181.91710957036335A197,197,0,0,1,71.99134124871408,183.37460779838412L62.346330373900926,158.80706876240868A170.6070045455344,170.6070045455344,0,0,0,65.47040502527311,157.5448382709719Z" fill-rule="evenodd" style="fill: #1DC690; stroke: #fff; opacity: 1;" id="p-type-logs"></path><path d="M71.99134124871408,183.37460779838412A197,197,0,0,1,68.35589039265304,184.76058088409334L59.197937578342184,160.00735666359438A170.6070045455344,170.6070045455344,0,0,0,62.346330373900926,158.80706876240868Z" fill-rule="evenodd" style="fill: #1DC690; stroke: #fff; opacity: 1;" id="p-type-logs"></path><path d="M68.35589039265304,184.76058088409334A197,197,0,0,1,64.6937773675662,186.07448822962212L56.026454667087094,161.14523380304126A170.6070045455344,170.6070045455344,0,0,0,59.197937578342184,160.00735666359438Z" fill-rule="evenodd" style="fill: #1DC690; stroke: #fff; opacity: 1;" id="p-type-logs"></path><path d="M64.6937773675662,186.07448822962212A197,197,0,0,1,61.006430578173365,187.3158173462949L52.83311867490991,162.2202563525372A170.6070045455344,170.6070045455344,0,0,0,56.026454667087094,161.14523380304126Z" fill-rule="evenodd" style="fill: #1DC690; stroke: #fff; opacity: 1;" id="p-type-logs"></path><path d="M61.006430578173365,187.3158173462949A197,197,0,0,1,57.29528827160719,188.48408405452548L49.61917516036443,163.2320050002605A170.6070045455344,170.6070045455344,0,0,0,52.83311867490991,162.2202563525372Z" fill-rule="evenodd" style="fill: #1DC690; stroke: #fff; opacity: 1;" id="p-type-logs"></path><path d="M57.29528827160719,188.48408405452548A197,197,0,0,1,53.56179797642575,189.57883267267093L46.385877719954635,164.18008511433234A170.6070045455344,170.6070045455344,0,0,0,49.61917516036443,163.2320050002605Z" fill-rule="evenodd" style="fill: #1DC690; stroke: #fff; opacity: 1;" id="p-type-logs"></path><path d="M53.56179797642575,189.57883267267093A197,197,0,0,1,49.80741593800506,190.5996361947697L43.13448749917031,165.06412689674252A170.6070045455344,170.6070045455344,0,0,0,46.385877719954635,164.18008511433234Z" fill-rule="evenodd" style="fill: #1DC690; stroke: #fff; opacity: 1;" id="p-type-logs"></path><path d="M49.80741593800506,190.5996361947697A197,197,0,0,1,46.03360655053147,191.54609645709533L39.866272700578,165.883785527589A170.6070045455344,170.6070045455344,0,0,0,43.13448749917031,165.06412689674252Z" fill-rule="evenodd" style="fill: #1DC690; stroke: #fff; opacity: 1;" id="p-type-logs"></path><path d="M46.03360655053147,191.54609645709533A197,197,0,0,1,42.24184178581581,192.41784429345972L36.582508089159504,166.6387412995747A170.6070045455344,170.6070045455344,0,0,0,39.866272700578,165.883785527589Z" fill-rule="evenodd" style="fill: #1DC690; stroke: #fff; opacity: 1;" id="p-type-logs"></path><path d="M42.24184178581581,192.41784429345972A197,197,0,0,1,38.433600619151655,193.21453967920618L33.28447449509066,167.32869974270898A170.6070045455344,170.6070045455344,0,0,0,36.582508089159504,166.6387412995747Z" fill-rule="evenodd" style="fill: #1DC690; stroke: #fff; opacity: 1;" id="p-type-logs"></path><path d="M38.433600619151655,193.21453967920618A197,197,0,0,1,34.610368452442124,193.93587186383596L29.973458314154385,167.95339173916568A170.6070045455344,170.6070045455344,0,0,0,33.28447449509066,167.32869974270898Z" fill-rule="evenodd" style="fill: #1DC690; stroke: #fff; opacity: 1;" id="p-type-logs"></path><path d="M34.610368452442124,193.93587186383596A197,197,0,0,1,30.77363653481976,194.58155949221603L26.650751005982837,168.51257362825217A170.6070045455344,170.6070045455344,0,0,0,29.973458314154385,167.95339173916568Z" fill-rule="evenodd" style="fill: #1DC690; stroke: #fff; opacity: 1;" id="p-type-logs"></path><path d="M30.77363653481976,194.58155949221603A197,197,0,0,1,26.924901380985894,195.15135071432167L23.3176485903245,169.00602730144902A170.6070045455344,170.6070045455344,0,0,0,26.650751005982837,168.51257362825217Z" fill-rule="evenodd" style="fill: #1DC690; stroke: #fff; opacity: 1;" id="p-type-logs"></path><path d="M26.924901380985894,195.15135071432167A197,197,0,0,1,23.06566418749605,195.64502328347038L19.97545114153253,169.43356028748332A170.6070045455344,170.6070045455344,0,0,0,23.3176485903245,169.00602730144902Z" fill-rule="evenodd" style="fill: #1DC690; stroke: #fff; opacity: 1;" id="p-type-logs"></path><path d="M23.06566418749605,195.64502328347038A197,197,0,0,1,19.19743024721924,196.06238464300884L16.625462281471638,169.79500582740164A170.6070045455344,170.6070045455344,0,0,0,19.97545114153253,169.43356028748332Z" fill-rule="evenodd" style="fill: #1DC690; stroke: #fff; opacity: 1;" id="p-type-logs"></path><path d="M19.19743024721924,196.06238464300884A197,197,0,0,1,15.321708362199521,196.40327200141985L13.26898867104125,170.09022293961456A170.6070045455344,170.6070045455344,0,0,0,16.625462281471638,169.79500582740164Z" fill-rule="evenodd" style="fill: #1DC690; stroke: #fff; opacity: 1;" id="p-type-logs"></path><path d="M15.321708362199521,196.40327200141985A197,197,0,0,1,11.440010255148739,196.6675523958187L9.907339500513304,170.31909647488612A170.6070045455344,170.6070045455344,0,0,0,13.26898867104125,170.09022293961456Z" fill-rule="evenodd" style="fill: #1DC690; stroke: #fff; opacity: 1;" id="p-type-logs"></path><path d="M11.440010255148739,196.6675523958187A197,197,0,0,1,7.553849979800125,196.8551227438155L6.541825978883477,170.48153716124807A170.6070045455344,170.6070045455344,0,0,0,9.907339500513304,170.31909647488612Z" fill-rule="evenodd" style="fill: #1DC690; stroke: #fff; opacity: 1;" id="p-type-logs"></path><path d="M7.553849979800125,196.8551227438155A197,197,0,0,1,3.664743330352658,196.96590988372236L3.173760822434989,170.57748163882A170.6070045455344,170.6070045455344,0,0,0,6.541825978883477,170.48153716124807Z" fill-rule="evenodd" style="fill: #1DC690; stroke: #fff; opacity: 1;" id="p-type-logs"></path><path d="M3.664743330352658,196.96590988372236A197,197,0,0,1,-0.22579274976345948,196.99987060308987L-0.1955422572854987,170.60689248452306A170.6070045455344,170.6070045455344,0,0,0,3.173760822434989,170.57748163882Z" fill-rule="evenodd" style="fill: #1DC690; stroke: #fff; opacity: 1;" id="p-type-logs"></path><path d="M-0.22579274976345948,196.99987060308987A197,197,0,0,1,-4.116240759569551,196.95699165556235L-3.564769065880185,170.5697582266767A170.6070045455344,170.6070045455344,0,0,0,-0.1955422572854987,170.60689248452306Z" fill-rule="evenodd" style="fill: #1DC690; stroke: #fff; opacity: 1;" id="p-type-logs"></path><path d="M-4.116240759569551,196.95699165556235A197,197,0,0,1,-8.005083232438704,196.8372897660444L-6.932605438700768,170.46609334947314A170.6070045455344,170.6070045455344,0,0,0,-3.564769065880185,170.5697582266767Z" fill-rule="evenodd" style="fill: #1DC690; stroke: #fff; opacity: 1;" id="p-type-logs"></path><path d="M-8.005083232438704,196.8372897660444A197,197,0,0,1,-11.890803327982612,196.64081162417745L-10.297737753437488,170.295938287328A170.6070045455344,170.6070045455344,0,0,0,-6.932605438700768,170.46609334947314Z" fill-rule="evenodd" style="fill: #1DC690; stroke: #fff; opacity: 1;" id="p-type-logs"></path><path d="M-11.890803327982612,196.64081162417745A197,197,0,0,1,-15.771885423694137,196.36763386612841L-13.658853442496616,170.05935940910868A170.6070045455344,170.6070045455344,0,0,0,-10.297737753437488,170.295938287328Z" fill-rule="evenodd" style="fill: #1DC690; stroke: #fff; opacity: 1;" id="p-type-logs"></path><path d="M-15.771885423694137,196.36763386612841A197,197,0,0,1,-19.64681570611485,196.01786304469795L-17.014641504966566,169.75644899224733A170.6070045455344,170.6070045455344,0,0,0,-13.658853442496616,170.05935940910868Z" fill-rule="evenodd" style="fill: #1DC690; stroke: #fff; opacity: 1;" id="p-type-logs"></path><path d="M-19.64681570611485,196.01786304469795A197,197,0,0,1,-23.51408276129697,195.59163558775944L-20.363793017972917,169.38732518674814A170.6070045455344,170.6070045455344,0,0,0,-17.014641504966566,169.75644899224733Z" fill-rule="evenodd" style="fill: #1DC690; stroke: #fff; opacity: 1;" id="p-type-logs"></path><path d="M-23.51408276129697,195.59163558775944A197,197,0,0,1,-27.37217816432932,195.08911774504546L-23.705001647222893,168.95213196910288A170.6070045455344,170.6070045455344,0,0,0,-20.363793017972917,169.38732518674814Z" fill-rule="evenodd" style="fill: #1DC690; stroke: #fff; opacity: 1;" id="p-type-logs"></path><path d="M-125.76145925964865,151.6346113685254A197,197,0,0,1,-128.73151966202317,149.1214131018954L-111.48476629508802,129.14293199447505A170.6070045455344,170.6070045455344,0,0,0,-108.91261853585743,131.31942553812365Z" fill-rule="evenodd" style="fill: #D7A449; stroke: #fff; opacity: 1;" id="p-type-tokenTransfers"></path><path d="M-128.73151966202317,149.1214131018954A197,197,0,0,1,-131.65136842182432,146.55005012848366L-114.0134294962843,126.9160663371498A170.6070045455344,170.6070045455344,0,0,0,-111.48476629508802,129.14293199447505Z" fill-rule="evenodd" style="fill: #D7A449; stroke: #fff; opacity: 1;" id="p-type-tokenTransfers"></path><path d="M-131.65136842182432,146.55005012848366A197,197,0,0,1,-134.5198666540092,143.92152540668675L-116.49762183606717,124.63969715359823A170.6070045455344,170.6070045455344,0,0,0,-114.0134294962843,126.9160663371498Z" fill-rule="evenodd" style="fill: #D7A449; stroke: #fff; opacity: 1;" id="p-type-tokenTransfers"></path><path d="M-134.5198666540092,143.92152540668675A197,197,0,0,1,-137.33589550277358,141.23686419080272L-118.93637435688696,122.31471234008785A170.6070045455344,170.6070045455344,0,0,0,-116.49762183606717,124.63969715359823Z" fill-rule="evenodd" style="fill: #D7A449; stroke: #fff; opacity: 1;" id="p-type-tokenTransfers"></path><path d="M-137.33589550277358,141.23686419080272A197,197,0,0,1,-140.09835657796097,138.49711363113133L-121.32873582496492,119.94201875537978A170.6070045455344,170.6070045455344,0,0,0,-118.93637435688696,122.31471234008785Z" fill-rule="evenodd" style="fill: #D7A449; stroke: #fff; opacity: 1;" id="p-type-tokenTransfers"></path><path d="M-140.09835657796097,138.49711363113133A197,197,0,0,1,-142.80617238348887,135.70334236553376L-123.67377310132109,117.52254186700928A170.6070045455344,170.6070045455344,0,0,0,-121.32873582496492,119.94201875537978Z" fill-rule="evenodd" style="fill: #D7A449; stroke: #fff; opacity: 1;" id="p-type-tokenTransfers"></path><path d="M-142.80617238348887,135.70334236553376A197,197,0,0,1,-145.45828673762537,132.8566401026112L-125.97057150574467,115.0572253903077A170.6070045455344,170.6070045455344,0,0,0,-123.67377310132109,117.52254186700928Z" fill-rule="evenodd" style="fill: #D7A449; stroke: #fff; opacity: 1;" id="p-type-tokenTransfers"></path><path d="M-145.45828673762537,132.8566401026112A197,197,0,0,1,-148.05366518495225,129.95811719666477L-128.21823517356438,112.547030920307A170.6070045455344,170.6070045455344,0,0,0,-125.97057150574467,115.0572253903077Z" fill-rule="evenodd" style="fill: #D7A449; stroke: #fff; opacity: 1;" id="p-type-tokenTransfers"></path><path d="M-148.05366518495225,129.95811719666477A197,197,0,0,1,-150.59129539985358,127.0089042146024L-130.41588740507987,109.99293755667013A170.6070045455344,170.6070045455344,0,0,0,-128.21823517356438,112.547030920307Z" fill-rule="evenodd" style="fill: #D7A449; stroke: #fff; opacity: 1;" id="p-type-tokenTransfers"></path><path d="M-150.59129539985358,127.0089042146024A197,197,0,0,1,-153.07018758137238,124.01015149496219L-132.5626710075178,107.39594152179403A170.6070045455344,170.6070045455344,0,0,0,-130.41588740507987,109.99293755667013Z" fill-rule="evenodd" style="fill: #D7A449; stroke: #fff; opacity: 1;" id="p-type-tokenTransfers"></path><path d="M-153.07018758137238,124.01015149496219A197,197,0,0,1,-155.48937483928233,120.96302869922344L-134.6577486293794,104.75705577223361A170.6070045455344,170.6070045455344,0,0,0,-132.5626710075178,107.39594152179403Z" fill-rule="evenodd" style="fill: #D7A449; stroke: #fff; opacity: 1;" id="p-type-tokenTransfers"></path><path d="M-155.48937483928233,120.96302869922344A197,197,0,0,1,-157.84791357122222,117.8687243555811L-136.7003030870489,102.07730960359882A170.6070045455344,170.6070045455344,0,0,0,-134.6577486293794,104.75705577223361Z" fill-rule="evenodd" style="fill: #D7A449; stroke: #fff; opacity: 1;" id="p-type-tokenTransfers"></path><path d="M-157.84791357122222,117.8687243555811A197,197,0,0,1,-160.14488383074763,114.72844539536108L-138.6895376835352,99.3577482490785A170.6070045455344,170.6070045455344,0,0,0,-136.7003030870489,102.07730960359882Z" fill-rule="evenodd" style="fill: #D7A449; stroke: #fff; opacity: 1;" id="p-type-tokenTransfers"></path><path d="M-160.14488383074763,114.72844539536108A197,197,0,0,1,-162.37938968615524,111.54341668225761L-140.6246765192233,96.59943247174803A170.6070045455344,170.6070045455344,0,0,0,-138.6895376835352,99.3577482490785Z" fill-rule="evenodd" style="fill: #D7A449; stroke: #fff; opacity: 1;" id="p-type-tokenTransfers"></path><path d="M-162.37938968615524,111.54341668225761A197,197,0,0,1,-164.5505595699406,108.31488053457582L-142.50496479451314,93.80343815081925A170.6070045455344,170.6070045455344,0,0,0,-140.6246765192233,96.59943247174803Z" fill-rule="evenodd" style="fill: #D7A449; stroke: #fff; opacity: 1;" id="p-type-tokenTransfers"></path><path d="M-164.5505595699406,108.31488053457582A197,197,0,0,1,-166.65754661875232,105.04409624066643L-144.32966910422888,90.97085586199458A170.6070045455344,170.6070045455344,0,0,0,-142.50496479451314,93.80343815081925Z" fill-rule="evenodd" style="fill: #D7A449; stroke: #fff; opacity: 1;" id="p-type-tokenTransfers"></path><path d="M-166.65754661875232,105.04409624066643A197,197,0,0,1,-168.69952900371058,101.73233956774122L-146.09807772368308,88.10279045208871A170.6070045455344,170.6070045455344,0,0,0,-144.32966910422888,90.97085586199458Z" fill-rule="evenodd" style="fill: #D7A449; stroke: #fff; opacity: 1;" id="p-type-tokenTransfers"></path></g></svg>