<svg xmlns="http://www.w3.org/2000/svg" width="400" height="400" id="block-7907794"><g id="burst-container" transform="translate(200,200)"><circle r="197" style="fill: #f9f9f9; stroke: #f9f9f9; stroke-width: 3; opacity: 1;" id="circle-base"></circle><path display="none" d="M6.031385485800715e-15,-98.5A98.5,98.5,0,1,1,-6.031385485800715e-15,98.5A98.5,98.5,0,1,1,6.031385485800715e-15,-98.5Z" fill-rule="evenodd" id="p-type-root" style="stroke: #fff; opacity: 1;"></path><path d="M8.529667153919608e-15,-139.30003589374985A139.30003589374985,139.30003589374985,0,1,1,-121.80166038672529,-67.59330978016118L-86.12678001923433,-47.79568770839496A98.5,98.5,0,1,0,6.031385485800715e-15,-98.5Z" fill-rule="evenodd" style="fill: #0B1F65; stroke: #fff; opacity: 1;" id="p-type-data"></path><path d="M-121.80166038672529,-67.59330978016118A139.30003589374985,139.30003589374985,0,0,1,-1.6749661520112091,-139.28996549784054L-1.1843799243450637,-98.4928791547633A98.5,98.5,0,0,0,-86.12678001923433,-47.79568770839496Z" fill-rule="evenodd" style="fill: #D7A449; stroke: #fff; opacity: 1;" id="p-type-value"></path><path d="M1.0446666101440332e-14,-170.6070045455344A170.6070045455344,170.6070045455344,0,0,1,170.3422729692541,-9.50052838889068L139.0838834668534,-7.757148946536038A139.30003589374985,139.30003589374985,0,0,0,8.529667153919608e-15,-139.30003589374985Z" fill-rule="evenodd" style="fill: #1DC690; stroke: #fff; opacity: 1;" id="p-type-logs"></path><path d="M170.3422729692541,-9.50052838889068A170.6070045455344,170.6070045455344,0,0,1,41.166583838426554,165.56588529970114L33.612374952549864,135.18397926547803A139.30003589374985,139.30003589374985,0,0,0,139.0838834668534,-7.757148946536038Z" fill-rule="evenodd" style="fill: #D7A449; stroke: #fff; opacity: 1;" id="p-type-tokenTransfers"></path><path d="M41.166583838426554,165.56588529970114A170.6070045455344,170.6070045455344,0,0,1,-137.88748194036563,100.46786712250508L-112.5846575570421,82.03166999862648A139.30003589374985,139.30003589374985,0,0,0,33.612374952549864,135.18397926547803Z" fill-rule="evenodd" style="fill: #414552; stroke: #fff; opacity: 1;" id="p-type-ether"></path><path d="M-149.17595888562187,-82.78455949363534A170.6070045455344,170.6070045455344,0,0,1,-62.13258137599709,-158.89081890265118L-50.73104025771533,-129.7338103748212A139.30003589374985,139.30003589374985,0,0,0,-121.80166038672529,-67.59330978016118Z" fill-rule="evenodd" style="fill: #D7A449; stroke: #fff; opacity: 1;" id="p-type-tokenTransfers"></path><path d="M-62.13258137599709,-158.89081890265118A170.6070045455344,170.6070045455344,0,0,1,-4.102515804878571,-170.55767166583482L-3.349690127885311,-139.25975576614783A139.30003589374985,139.30003589374985,0,0,0,-50.73104025771533,-129.7338103748212Z" fill-rule="evenodd" style="fill: #414552; stroke: #fff; opacity: 1;" id="p-type-ether"></path><path d="M1.206277097160143e-14,-197A197,197,0,0,1,1.1844013304739174,-196.99643954520695L1.0257216404665006,-170.6039211012346A170.6070045455344,170.6070045455344,0,0,0,1.0446666101440332e-14,-170.6070045455344Z" fill-rule="evenodd" style="fill: #1DC690; stroke: #fff; opacity: 1;" id="p-type-logs"></path><path d="M1.1844013304739174,-196.99643954520695A197,197,0,0,1,2.368759848689972,-196.98575830952663L2.0514062044300987,-170.59467087979164A170.6070045455344,170.6070045455344,0,0,0,1.0257216404665006,-170.6039211012346Z" fill-rule="evenodd" style="fill: #1DC690; stroke: #fff; opacity: 1;" id="p-type-logs"></path><path d="M2.368759848689972,-196.98575830952663A197,197,0,0,1,3.55303274393798,-196.96795667905099L3.0770166167282214,-170.57925421557096A170.6070045455344,170.6070045455344,0,0,0,2.0514062044300987,-170.59467087979164Z" fill-rule="evenodd" style="fill: #1DC690; stroke: #fff; opacity: 1;" id="p-type-logs"></path><path d="M3.55303274393798,-196.96795667905099A197,197,0,0,1,4.737177208602563,-196.94303529725113L4.1025158048784744,-170.55767166583485A170.6070045455344,170.6070045455344,0,0,0,3.0770166167282214,-170.57925421557096Z" fill-rule="evenodd" style="fill: #1DC690; stroke: #fff; opacity: 1;" id="p-type-logs"></path><path d="M4.737177208602563,-196.94303529725113A197,197,0,0,1,5.921150439710865,-196.91099506495394L5.127866700419008,-170.52992401072234A170.6070045455344,170.6070045455344,0,0,0,4.1025158048784744,-170.55767166583485Z" fill-rule="evenodd" style="fill: #1DC690; stroke: #fff; opacity: 1;" id="p-type-logs"></path><path d="M5.921150439710865,-196.91099506495394A197,197,0,0,1,7.104909640479393,-196.87183714030968L6.153032240248117,-170.49601225322093A170.6070045455344,170.6070045455344,0,0,0,5.127866700419008,-170.52992401072234Z" fill-rule="evenodd" style="fill: #1DC690; stroke: #fff; opacity: 1;" id="p-type-logs"></path><path d="M7.104909640479393,-196.87183714030968A197,197,0,0,1,8.288412021861328,-196.82556293875007L7.177975367964252,-170.45593761913048A170.6070045455344,170.6070045455344,0,0,0,6.153032240248117,-170.49601225322093Z" fill-rule="evenodd" style="fill: #1DC690; stroke: #fff; opacity: 1;" id="p-type-logs"></path><path d="M8.288412021861328,-196.82556293875007A197,197,0,0,1,9.471614804092862,-196.772174132937L8.202659035205187,-170.40970155701865A170.6070045455344,170.6070045455344,0,0,0,7.177975367964252,-170.45593761913048Z" fill-rule="evenodd" style="fill: #1DC690; stroke: #fff; opacity: 1;" id="p-type-logs"></path><path d="M9.471614804092862,-196.772174132937A197,197,0,0,1,10.654475218239899,-196.71167265270233L9.227046202987504,-170.35730573816883A170.6070045455344,170.6070045455344,0,0,0,8.202659035205187,-170.40970155701865Z" fill-rule="evenodd" style="fill: #1DC690; stroke: #fff; opacity: 1;" id="p-type-logs"></path><path d="M10.654475218239899,-196.71167265270233A197,197,0,0,1,11.836950507743705,-196.64406068497777L10.251099843045157,-170.29875205651953A170.6070045455344,170.6070045455344,0,0,0,9.227046202987504,-170.35730573816883Z" fill-rule="evenodd" style="fill: #1DC690; stroke: #fff; opacity: 1;" id="p-type-logs"></path><path d="M11.836950507743705,-196.64406068497777A197,197,0,0,1,13.018997929966545,-196.56934067371628L11.274782939168048,-170.23404262859603A170.6070045455344,170.6070045455344,0,0,0,10.251099843045157,-170.29875205651953Z" fill-rule="evenodd" style="fill: #1DC690; stroke: #fff; opacity: 1;" id="p-type-logs"></path><path d="M13.018997929966545,-196.56934067371628A197,197,0,0,1,14.200574757736836,-196.48751531980326L12.29805848854015,-170.1631797934337A170.6070045455344,170.6070045455344,0,0,0,11.274782939168048,-170.23404262859603Z" fill-rule="evenodd" style="fill: #1DC690; stroke: #fff; opacity: 1;" id="p-type-logs"></path><path d="M14.200574757736836,-196.48751531980326A197,197,0,0,1,15.381638280893274,-196.39858758095934L13.320889503076776,-170.08616611249374A170.6070045455344,170.6070045455344,0,0,0,12.29805848854015,-170.1631797934337Z" fill-rule="evenodd" style="fill: #1DC690; stroke: #fff; opacity: 1;" id="p-type-logs"></path><path d="M15.381638280893274,-196.39858758095934A197,197,0,0,1,16.562145807829015,-196.30256067163313L14.343239010761872,-170.00300436957033A170.6070045455344,170.6070045455344,0,0,0,13.320889503076776,-170.08616611249374Z" fill-rule="evenodd" style="fill: #1DC690; stroke: #fff; opacity: 1;" id="p-type-logs"></path><path d="M16.562145807829015,-196.30256067163313A197,197,0,0,1,17.742054667034516,-196.19943806288526L15.365070056984152,-169.91369757069018A170.6070045455344,170.6070045455344,0,0,0,14.343239010761872,-170.00300436957033Z" fill-rule="evenodd" style="fill: #1DC690; stroke: #fff; opacity: 1;" id="p-type-logs"></path><path d="M17.742054667034516,-196.19943806288526A197,197,0,0,1,18.921322208640284,-196.08922348226284L16.38634570587317,-169.8182489440037A170.6070045455344,170.6070045455344,0,0,0,15.365070056984152,-169.91369757069018Z" fill-rule="evenodd" style="fill: #1DC690; stroke: #fff; opacity: 1;" id="p-type-logs"></path><path d="M18.921322208640284,-196.08922348226284A197,197,0,0,1,20.099905805958198,-195.97192091366458L17.407029041634132,-169.71666193966843A170.6070045455344,170.6070045455344,0,0,0,16.38634570587317,-169.8182489440037Z" fill-rule="evenodd" style="fill: #1DC690; stroke: #fff; opacity: 1;" id="p-type-logs"></path><path d="M20.099905805958198,-195.97192091366458A197,197,0,0,1,21.27776285702269,-195.8475345971971L18.427083169882604,-169.60894022972442A170.6070045455344,170.6070045455344,0,0,0,17.407029041634132,-169.71666193966843Z" fill-rule="evenodd" style="fill: #1DC690; stroke: #fff; opacity: 1;" id="p-type-logs"></path><path d="M21.27776285702269,-195.8475345971971A197,197,0,0,1,22.454850786130326,-195.71606902902127L19.446471218977834,-169.4950877079612A170.6070045455344,170.6070045455344,0,0,0,18.427083169882604,-169.60894022972442Z" fill-rule="evenodd" style="fill: #1DC690; stroke: #fff; opacity: 1;" id="p-type-logs"></path><path d="M22.454850786130326,-195.71606902902127A197,197,0,0,1,23.631127045378943,-195.57752896119013L20.46515634135567,-169.3751084897774A170.6070045455344,170.6070045455344,0,0,0,19.446471218977834,-169.4950877079612Z" fill-rule="evenodd" style="fill: #1DC690; stroke: #fff; opacity: 1;" id="p-type-logs"></path><path d="M23.631127045378943,-195.57752896119013A197,197,0,0,1,24.806549116205737,-195.43191940147668L21.48310171486058,-169.24900691203172A170.6070045455344,170.6070045455344,0,0,0,20.46515634135567,-169.3751084897774Z" fill-rule="evenodd" style="fill: #1DC690; stroke: #fff; opacity: 1;" id="p-type-logs"></path><path d="M24.806549116205737,-195.43191940147668A197,197,0,0,1,25.981074510923857,-195.27924561319315L22.500270544076418,-169.11678753288618A170.6070045455344,170.6070045455344,0,0,0,21.48310171486058,-169.24900691203172Z" fill-rule="evenodd" style="fill: #1DC690; stroke: #fff; opacity: 1;" id="p-type-logs"></path><path d="M25.981074510923857,-195.27924561319315A197,197,0,0,1,27.154660774258556,-195.11951311500073L23.516626061656723,-168.97845513164157A170.6070045455344,170.6070045455344,0,0,0,22.500270544076418,-169.11678753288618Z" fill-rule="evenodd" style="fill: #1DC690; stroke: #fff; opacity: 1;" id="p-type-logs"></path><path d="M27.154660774258556,-195.11951311500073A197,197,0,0,1,28.32726548488145,-194.95272768070993L24.532131529653448,-168.83401470856452A170.6070045455344,170.6070045455344,0,0,0,23.516626061656723,-168.97845513164157Z" fill-rule="evenodd" style="fill: #1DC690; stroke: #fff; opacity: 1;" id="p-type-logs"></path><path d="M28.32726548488145,-194.95272768070993A197,197,0,0,1,29.498846256944294,-194.778895339072L25.546750240845256,-168.68347148470673A170.6070045455344,170.6070045455344,0,0,0,24.532131529653448,-168.83401470856452Z" fill-rule="evenodd" style="fill: #1DC690; stroke: #fff; opacity: 1;" id="p-type-logs"></path><path d="M29.498846256944294,-194.778895339072A197,197,0,0,1,30.669360741610696,-194.598022373561L26.56044552006401,-168.52683090171638A170.6070045455344,170.6070045455344,0,0,0,25.546750240845256,-168.68347148470673Z" fill-rule="evenodd" style="fill: #1DC690; stroke: #fff; opacity: 1;" id="p-type-logs"></path><path d="M30.669360741610696,-194.598022373561A197,197,0,0,1,31.83876662858726,-194.41011532214665L27.57318072552079,-168.36409862164132A170.6070045455344,170.6070045455344,0,0,0,26.56044552006401,-168.52683090171638Z" fill-rule="evenodd" style="fill: #1DC690; stroke: #fff; opacity: 1;" id="p-type-logs"></path><path d="M31.83876662858726,-194.41011532214665A197,197,0,0,1,33.007021647652635,-194.215180977058L28.58491925013008,-168.19528052672447A170.6070045455344,170.6070045455344,0,0,0,27.57318072552079,-168.36409862164132Z" fill-rule="evenodd" style="fill: #1DC690; stroke: #fff; opacity: 1;" id="p-type-logs"></path><path d="M33.007021647652635,-194.215180977058A197,197,0,0,1,34.17408357018577,-194.01322638453792L29.595624522833287,-168.02038271919116A170.6070045455344,170.6070045455344,0,0,0,28.58491925013008,-168.19528052672447Z" fill-rule="evenodd" style="fill: #1DC690; stroke: #fff; opacity: 1;" id="p-type-logs"></path><path d="M34.17408357018577,-194.01322638453792A197,197,0,0,1,35.339910210692004,-193.80425884458842L30.60526000992035,-167.83941152102855A170.6070045455344,170.6070045455344,0,0,0,29.595624522833287,-168.02038271919116Z" fill-rule="evenodd" style="fill: #1DC690; stroke: #fff; opacity: 1;" id="p-type-logs"></path><path d="M35.339910210692004,-193.80425884458842A197,197,0,0,1,36.50445942832827,-193.58828591070673L31.613789216350643,-167.65237347375717A170.6070045455344,170.6070045455344,0,0,0,30.60526000992035,-167.83941152102855Z" fill-rule="evenodd" style="fill: #1DC690; stroke: #fff; opacity: 1;" id="p-type-logs"></path><path d="M36.50445942832827,-193.58828591070673A197,197,0,0,1,37.66768912842601,-193.36531538961236L32.62117568707185,-167.45927533819437A170.6070045455344,170.6070045455344,0,0,0,31.613789216350643,-167.65237347375717Z" fill-rule="evenodd" style="fill: #1DC690; stroke: #fff; opacity: 1;" id="p-type-logs"></path><path d="M37.66768912842601,-193.36531538961236A197,197,0,0,1,38.829557264013125,-193.13535534096476L33.62738300833795,-167.26012409421003A170.6070045455344,170.6070045455344,0,0,0,32.62117568707185,-167.45927533819437Z" fill-rule="evenodd" style="fill: #1DC690; stroke: #fff; opacity: 1;" id="p-type-logs"></path><path d="M38.829557264013125,-193.13535534096476A197,197,0,0,1,39.99002183733347,-192.89841407707218L34.63237480902524,-167.05492694047427A170.6070045455344,170.6070045455344,0,0,0,33.62738300833795,-167.26012409421003Z" fill-rule="evenodd" style="fill: #1DC690; stroke: #fff; opacity: 1;" id="p-type-logs"></path><path d="M39.99002183733347,-192.89841407707218A197,197,0,0,1,41.149040901365275,-192.65450016259098L35.63611476194724,-166.84369129419704A170.6070045455344,170.6070045455344,0,0,0,34.63237480902524,-167.05492694047427Z" fill-rule="evenodd" style="fill: #1DC690; stroke: #fff; opacity: 1;" id="p-type-logs"></path><path d="M41.149040901365275,-192.65450016259098A197,197,0,0,1,42.30657256133706,-192.40362241421633L36.63856658516758,-166.62642479086034A170.6070045455344,170.6070045455344,0,0,0,35.63611476194724,-166.84369129419704Z" fill-rule="evenodd" style="fill: #1DC690; stroke: #fff; opacity: 1;" id="p-type-logs"></path><path d="M42.30657256133706,-192.40362241421633A197,197,0,0,1,43.46257497624235,-192.14578990036318L37.63969404331172,-166.40313528394194A170.6070045455344,170.6070045455344,0,0,0,36.63856658516758,-166.62642479086034Z" fill-rule="evenodd" style="fill: #1DC690; stroke: #fff; opacity: 1;" id="p-type-logs"></path><path d="M43.46257497624235,-192.14578990036318A197,197,0,0,1,44.61700636035174,-191.88101194083882L38.639460948876476,-166.17383084463162A170.6070045455344,170.6070045455344,0,0,0,37.63969404331172,-166.40313528394194Z" fill-rule="evenodd" style="fill: #1DC690; stroke: #fff; opacity: 1;" id="p-type-logs"></path><path d="M44.61700636035174,-191.88101194083882A197,197,0,0,1,45.76982498472362,-191.6092981065057L39.637831163538365,-165.93851976153948A170.6070045455344,170.6070045455344,0,0,0,38.639460948876476,-166.17383084463162Z" fill-rule="evenodd" style="fill: #1DC690; stroke: #fff; opacity: 1;" id="p-type-logs"></path><path d="M45.76982498472362,-191.6092981065057A197,197,0,0,1,46.92098917871227,-191.33065821893564L40.63476859945957,-165.69721054039616A170.6070045455344,170.6070045455344,0,0,0,39.637831163538365,-165.93851976153948Z" fill-rule="evenodd" style="fill: #1DC690; stroke: #fff; opacity: 1;" id="p-type-logs"></path><path d="M46.92098917871227,-191.33065821893564A197,197,0,0,1,48.070457331474394,-191.04510235005478L41.63023722059274,-165.44991190374557A170.6070045455344,170.6070045455344,0,0,0,40.63476859945957,-165.69721054039616Z" fill-rule="evenodd" style="fill: #1DC690; stroke: #fff; opacity: 1;" id="p-type-logs"></path><path d="M48.070457331474394,-191.04510235005478A197,197,0,0,1,49.218187893472916,-190.75264082177944L42.62420104398325,-165.19663279062954A170.6070045455344,170.6070045455344,0,0,0,41.63023722059274,-165.44991190374557Z" fill-rule="evenodd" style="fill: #1DC690; stroke: #fff; opacity: 1;" id="p-type-logs"></path><path d="M49.218187893472916,-190.75264082177944A197,197,0,0,1,50.36413937797919,-190.45328420564317L43.616624141070176,-164.93738235626455A170.6070045455344,170.6070045455344,0,0,0,42.62420104398325,-165.19663279062954Z" fill-rule="evenodd" style="fill: #1DC690; stroke: #fff; opacity: 1;" id="p-type-logs"></path><path d="M50.36413937797919,-190.45328420564317A197,197,0,0,1,51.50827036257225,-190.14704332241448L44.607470638984665,-164.67216997171113A170.6070045455344,170.6070045455344,0,0,0,43.616624141070176,-164.93738235626455Z" fill-rule="evenodd" style="fill: #1DC690; stroke: #fff; opacity: 1;" id="p-type-logs"></path><path d="M51.50827036257225,-190.14704332241448A197,197,0,0,1,52.65053949063648,-189.8339292417057L45.59670472184699,-164.40100522353472A170.6070045455344,170.6070045455344,0,0,0,44.607470638984665,-164.67216997171113Z" fill-rule="evenodd" style="fill: #1DC690; stroke: #fff; opacity: 1;" id="p-type-logs"></path><path d="M52.65053949063648,-189.8339292417057A197,197,0,0,1,53.79090547285612,-189.51395328157307L46.58429063206079,-164.12389791345956A170.6070045455344,170.6070045455344,0,0,0,45.59670472184699,-164.40100522353472Z" fill-rule="evenodd" style="fill: #1DC690; stroke: #fff; opacity: 1;" id="p-type-logs"></path><path d="M53.79090547285612,-189.51395328157307A197,197,0,0,1,54.929327088708156,-189.18712700810727L47.57019267160598,-163.84085805801396A170.6070045455344,170.6070045455344,0,0,0,46.58429063206079,-164.12389791345956Z" fill-rule="evenodd" style="fill: #1DC690; stroke: #fff; opacity: 1;" id="p-type-logs"></path><path d="M54.929327088708156,-189.18712700810727A197,197,0,0,1,56.0657631879519,-188.8534622350157L48.55437520332876,-163.5518958881687A170.6070045455344,170.6070045455344,0,0,0,47.57019267160598,-163.84085805801396Z" fill-rule="evenodd" style="fill: #1DC690; stroke: #fff; opacity: 1;" id="p-type-logs"></path><path d="M56.0657631879519,-188.8534622350157A197,197,0,0,1,57.2001726921168,-188.51297102319515L49.53680265223007,-163.25702184896676A170.6070045455344,170.6070045455344,0,0,0,48.55437520332876,-163.5518958881687Z" fill-rule="evenodd" style="fill: #1DC690; stroke: #fff; opacity: 1;" id="p-type-logs"></path><path d="M57.2001726921168,-188.51297102319515A197,197,0,0,1,58.332514595987,-188.1656656802961L50.5174395067513,-162.9562465991461A170.6070045455344,170.6070045455344,0,0,0,49.53680265223007,-163.25702184896676Z" fill-rule="evenodd" style="fill: #1DC690; stroke: #fff; opacity: 1;" id="p-type-logs"></path><path d="M58.332514595987,-188.1656656802961A197,197,0,0,1,59.46274796908378,-187.81155876027765L51.49625032005809,-162.64958101075428A170.6070045455344,170.6070045455344,0,0,0,50.5174395067513,-162.9562465991461Z" fill-rule="evenodd" style="fill: #1DC690; stroke: #fff; opacity: 1;" id="p-type-logs"></path><path d="M59.46274796908378,-187.81155876027765A197,197,0,0,1,60.59083195714483,-187.45066306295382L52.47319971132141,-162.33703616875533A170.6070045455344,170.6070045455344,0,0,0,51.49625032005809,-162.64958101075428Z" fill-rule="evenodd" style="fill: #1DC690; stroke: #fff; opacity: 1;" id="p-type-logs"></path><path d="M60.59083195714483,-187.45066306295382A197,197,0,0,1,61.716725783601284,-187.08299163353084L53.448252366996776,-162.01862337062929A170.6070045455344,170.6070045455344,0,0,0,52.47319971132141,-162.33703616875533Z" fill-rule="evenodd" style="fill: #1DC690; stroke: #fff; opacity: 1;" id="p-type-logs"></path><path d="M61.716725783601284,-187.08299163353084A197,197,0,0,1,62.840388751051314,-186.70855776213565L54.421373042100306,-161.6943541259637A170.6070045455344,170.6070045455344,0,0,0,53.448252366996776,-162.01862337062929Z" fill-rule="evenodd" style="fill: #1DC690; stroke: #fff; opacity: 1;" id="p-type-logs"></path><path d="M62.840388751051314,-186.70855776213565A197,197,0,0,1,63.961780242731564,-186.32737498333546L55.39252656148313,-161.36424015603762A170.6070045455344,170.6070045455344,0,0,0,54.421373042100306,-161.6943541259637Z" fill-rule="evenodd" style="fill: #1DC690; stroke: #fff; opacity: 1;" id="p-type-logs"></path><path d="M63.961780242731564,-186.32737498333546A197,197,0,0,1,65.080859723985,-185.93945707564865L56.361677821102525,-161.02829339339792A170.6070045455344,170.6070045455344,0,0,0,55.39252656148313,-161.36424015603762Z" fill-rule="evenodd" style="fill: #1DC690; stroke: #fff; opacity: 1;" id="p-type-logs"></path><path d="M65.080859723985,-185.93945707564865A197,197,0,0,1,66.19758674372639,-185.5448180610464L57.32879178929105,-160.68652598142793A170.6070045455344,170.6070045455344,0,0,0,56.361677821102525,-161.02829339339792Z" fill-rule="evenodd" style="fill: #1DC690; stroke: #fff; opacity: 1;" id="p-type-logs"></path><path d="M66.19758674372639,-185.5448180610464A197,197,0,0,1,67.31192093590417,-185.1434722044463L58.293833508022615,-160.3389502739086A170.6070045455344,170.6070045455344,0,0,0,57.32879178929105,-160.68652598142793Z" fill-rule="evenodd" style="fill: #1DC690; stroke: #fff; opacity: 1;" id="p-type-logs"></path><path d="M67.31192093590417,-185.1434722044463A197,197,0,0,1,68.4238220209599,-184.73543401319628L59.25676809417636,-159.98557883457184A170.6070045455344,170.6070045455344,0,0,0,58.293833508022615,-160.3389502739086Z" fill-rule="evenodd" style="fill: #1DC690; stroke: #fff; opacity: 1;" id="p-type-logs"></path><path d="M68.4238220209599,-184.73543401319628A197,197,0,0,1,69.53324980728387,-184.32071823655056L60.217560740797246,-159.62642443664643A170.6070045455344,170.6070045455344,0,0,0,59.25676809417636,-159.98557883457184Z" fill-rule="evenodd" style="fill: #1DC690; stroke: #fff; opacity: 1;" id="p-type-logs"></path><path d="M69.53324980728387,-184.32071823655056A197,197,0,0,1,70.64016419266824,-183.8993398651362L61.176176718354554,-159.26150006239627A170.6070045455344,170.6070045455344,0,0,0,60.217560740797246,-159.62642443664643Z" fill-rule="evenodd" style="fill: #1DC690; stroke: #fff; opacity: 1;" id="p-type-logs"></path><path d="M70.64016419266824,-183.8993398651362A197,197,0,0,1,71.74452516575631,-183.47131413041154L62.132581375996935,-158.89081890265123A170.6070045455344,170.6070045455344,0,0,0,61.176176718354554,-159.26150006239627Z" fill-rule="evenodd" style="fill: #1DC690; stroke: #fff; opacity: 1;" id="p-type-logs"></path><path d="M71.74452516575631,-183.47131413041154A197,197,0,0,1,72.84629280748908,-183.03665650411548L63.086740142805176,-158.5143943563302A170.6070045455344,170.6070045455344,0,0,0,62.132581375996935,-158.89081890265123Z" fill-rule="evenodd" style="fill: #1DC690; stroke: #fff; opacity: 1;" id="p-type-logs"></path><path d="M72.84629280748908,-183.03665650411548A197,197,0,0,1,73.94542729254785,-182.5953826977082L64.0386185290416,-158.13224002995685A170.6070045455344,170.6070045455344,0,0,0,63.086740142805176,-158.5143943563302Z" fill-rule="evenodd" style="fill: #1DC690; stroke: #fff; opacity: 1;" id="p-type-logs"></path><path d="M73.94542729254785,-182.5953826977082A197,197,0,0,1,75.04188889079418,-182.1475086618033L64.98818212739701,-157.74436973716772A170.6070045455344,170.6070045455344,0,0,0,64.0386185290416,-158.13224002995685Z" fill-rule="evenodd" style="fill: #1DC690; stroke: #fff; opacity: 1;" id="p-type-logs"></path><path d="M75.04188889079418,-182.1475086618033A197,197,0,0,1,76.13563796870565,-181.69305058559115L65.93539661423414,-157.350797498213A170.6070045455344,170.6070045455344,0,0,0,64.98818212739701,-157.74436973716772Z" fill-rule="evenodd" style="fill: #1DC690; stroke: #fff; opacity: 1;" id="p-type-logs"></path><path d="M76.13563796870565,-181.69305058559115A197,197,0,0,1,77.22663499080873,-181.2320248962539L66.8802277508286,-156.95153753944973A170.6070045455344,170.6070045455344,0,0,0,65.93539661423414,-157.350797498213Z" fill-rule="evenodd" style="fill: #1DC690; stroke: #fff; opacity: 1;" id="p-type-logs"></path><path d="M77.22663499080873,-181.2320248962539A197,197,0,0,1,78.31484052110767,-180.76444825837152L67.82264138460619,-156.54660429282745A170.6070045455344,170.6070045455344,0,0,0,66.8802277508286,-156.95153753944973Z" fill-rule="evenodd" style="fill: #1DC690; stroke: #fff; opacity: 1;" id="p-type-logs"></path><path d="M78.31484052110767,-180.76444825837152A197,197,0,0,1,79.40021522451018,-180.2903375733194L68.76260345037775,-156.13601239536666A170.6070045455344,170.6070045455344,0,0,0,67.82264138460619,-156.54660429282745Z" fill-rule="evenodd" style="fill: #1DC690; stroke: #fff; opacity: 1;" id="p-type-logs"></path><path d="M79.40021522451018,-180.2903375733194A197,197,0,0,1,80.48271986824903,-179.8097099786576L69.70007997157023,-155.71977668862974A170.6070045455344,170.6070045455344,0,0,0,68.76260345037775,-156.13601239536666Z" fill-rule="evenodd" style="fill: #1DC690; stroke: #fff; opacity: 1;" id="p-type-logs"></path><path d="M80.48271986824903,-179.8097099786576A197,197,0,0,1,81.5623153233005,-179.32258284751117L70.63503706145501,-155.2979122181843A170.6070045455344,170.6070045455344,0,0,0,69.70007997157023,-155.71977668862974Z" fill-rule="evenodd" style="fill: #1DC690; stroke: #fff; opacity: 1;" id="p-type-logs"></path><path d="M81.5623153233005,-179.32258284751117A197,197,0,0,1,82.63896256579834,-178.82897378794237L71.5674409243726,-154.8704342330596A170.6070045455344,170.6070045455344,0,0,0,70.63503706145501,-155.2979122181843Z" fill-rule="evenodd" style="fill: #1DC690; stroke: #fff; opacity: 1;" id="p-type-logs"></path><path d="M82.63896256579834,-178.82897378794237A197,197,0,0,1,83.71262267844483,-178.32890064231407L72.49725785695453,-154.43735818519508A170.6070045455344,170.6070045455344,0,0,0,71.5674409243726,-154.8704342330596Z" fill-rule="evenodd" style="fill: #1DC690; stroke: #fff; opacity: 1;" id="p-type-logs"></path><path d="M83.71262267844483,-178.32890064231407A197,197,0,0,1,84.78325685191713,-177.82238148664484L73.42445424934131,-153.9986997288821A170.6070045455344,170.6070045455344,0,0,0,72.49725785695453,-154.43735818519508Z" fill-rule="evenodd" style="fill: #1DC690; stroke: #fff; opacity: 1;" id="p-type-logs"></path><path d="M84.78325685191713,-177.82238148664484A197,197,0,0,1,85.85082638627037,-177.3094346299555L74.34899658639753,-153.55447472019773A170.6070045455344,170.6070045455344,0,0,0,73.42445424934131,-153.9986997288821Z" fill-rule="evenodd" style="fill: #1DC690; stroke: #fff; opacity: 1;" id="p-type-logs"></path><path d="M85.85082638627037,-177.3094346299555A197,197,0,0,1,86.91529269233634,-176.79007861360745L75.27085144892324,-153.10469921643204A170.6070045455344,170.6070045455344,0,0,0,74.34899658639753,-153.55447472019773Z" fill-rule="evenodd" style="fill: #1DC690; stroke: #fff; opacity: 1;" id="p-type-logs"></path><path d="M86.91529269233634,-176.79007861360745A197,197,0,0,1,87.9766172931185,-176.26433221063235L76.18998551486197,-152.64938947550732A170.6070045455344,170.6070045455344,0,0,0,75.27085144892324,-153.10469921643204Z" fill-rule="evenodd" style="fill: #1DC690; stroke: #fff; opacity: 1;" id="p-type-logs"></path><path d="M87.9766172931185,-176.26433221063235A197,197,0,0,1,89.03476182518266,-175.73221442505354L77.10636556050513,-152.18856195539053A170.6070045455344,170.6070045455344,0,0,0,76.18998551486197,-152.64938947550732Z" fill-rule="evenodd" style="fill: #1DC690; stroke: #fff; opacity: 1;" id="p-type-logs"></path><path d="M89.03476182518266,-175.73221442505354A197,197,0,0,1,90.08968804004392,-175.19374449119914L78.01995846169315,-151.7222333134985A170.6070045455344,170.6070045455344,0,0,0,77.10636556050513,-152.18856195539053Z" fill-rule="evenodd" style="fill: #1DC690; stroke: #fff; opacity: 1;" id="p-type-logs"></path><path d="M90.08968804004392,-175.19374449119914A197,197,0,0,1,91.14135780554894,-174.6489418730068L78.93073119501251,-151.25042040609566A170.6070045455344,170.6070045455344,0,0,0,78.01995846169315,-151.7222333134985Z" fill-rule="evenodd" style="fill: #1DC690; stroke: #fff; opacity: 1;" id="p-type-logs"></path><path d="M91.14135780554894,-174.6489418730068A197,197,0,0,1,92.18973310725454,-174.09782626332006L79.83865083898975,-150.7731402876848A170.6070045455344,170.6070045455344,0,0,0,78.93073119501251,-151.25042040609566Z" fill-rule="evenodd" style="fill: #1DC690; stroke: #fff; opacity: 1;" id="p-type-logs"></path><path d="M92.18973310725454,-174.09782626332006A197,197,0,0,1,93.2347760498016,-173.5404175831767L80.74368457528114,-150.2904102103907A170.6070045455344,170.6070045455344,0,0,0,79.83865083898975,-150.7731402876848Z" fill-rule="evenodd" style="fill: #1DC690; stroke: #fff; opacity: 1;" id="p-type-logs"></path><path d="M93.2347760498016,-173.5404175831767A197,197,0,0,1,94.27644885828508,-172.97673598108838L81.64579968985932,-149.8022476233363A170.6070045455344,170.6070045455344,0,0,0,80.74368457528114,-150.2904102103907Z" fill-rule="evenodd" style="fill: #1DC690; stroke: #fff; opacity: 1;" id="p-type-logs"></path><path d="M94.27644885828508,-172.97673598108838A197,197,0,0,1,95.3147138796192,-172.40680183231265L82.54496357419546,-149.30867017201226A170.6070045455344,170.6070045455344,0,0,0,81.64579968985932,-149.8022476233363Z" fill-rule="evenodd" style="fill: #1DC690; stroke: #fff; opacity: 1;" id="p-type-logs"></path><path d="M95.3147138796192,-172.40680183231265A197,197,0,0,1,96.34953358389866,-171.8306357381162L83.44114372643817,-148.8096956976389A170.6070045455344,170.6070045455344,0,0,0,82.54496357419546,-149.30867017201226Z" fill-rule="evenodd" style="fill: #1DC690; stroke: #fff; opacity: 1;" id="p-type-logs"></path><path d="M96.34953358389866,-171.8306357381162A197,197,0,0,1,97.38087056575519,-171.24825852503037L84.33430775258829,-148.30534223652137A170.6070045455344,170.6070045455344,0,0,0,83.44114372643817,-148.8096956976389Z" fill-rule="evenodd" style="fill: #1DC690; stroke: #fff; opacity: 1;" id="p-type-logs"></path><path d="M97.38087056575519,-171.24825852503037A197,197,0,0,1,98.40868754570964,-170.6596912440981L85.22442336766984,-147.79562801939767A170.6070045455344,170.6070045455344,0,0,0,84.33430775258829,-148.30534223652137Z" fill-rule="evenodd" style="fill: #1DC690; stroke: #fff; opacity: 1;" id="p-type-logs"></path><path d="M98.40868754570964,-170.6596912440981A197,197,0,0,1,99.4329473715194,-170.06495517011334L86.11145839689694,-147.28057147077985A170.6070045455344,170.6070045455344,0,0,0,85.22442336766984,-147.79562801939767Z" fill-rule="evenodd" style="fill: #1DC690; stroke: #fff; opacity: 1;" id="p-type-logs"></path><path d="M99.4329473715194,-170.06495517011334A197,197,0,0,1,100.45361301952144,-169.46407180085174L86.9953807768368,-146.76019120828772A170.6070045455344,170.6070045455344,0,0,0,86.11145839689694,-147.28057147077985Z" fill-rule="evenodd" style="fill: #1DC690; stroke: #fff; opacity: 1;" id="p-type-logs"></path><path d="M100.45361301952144,-169.46407180085174A197,197,0,0,1,101.47064759597065,-168.85706285629374L87.87615855656895,-146.23450604197612A170.6070045455344,170.6070045455344,0,0,0,86.9953807768368,-146.76019120828772Z" fill-rule="evenodd" style="fill: #1DC690; stroke: #fff; opacity: 1;" id="p-type-logs"></path><path d="M101.47064759597065,-168.85706285629374A197,197,0,0,1,102.48401433837329,-168.24395027783942L88.75375989883993,-145.70353497365488A170.6070045455344,170.6070045455344,0,0,0,87.87615855656895,-146.23450604197612Z" fill-rule="evenodd" style="fill: #1DC690; stroke: #fff; opacity: 1;" id="p-type-logs"></path><path d="M102.48401433837329,-168.24395027783942A197,197,0,0,1,103.4936766168159,-167.62475622751532L89.62815308121411,-145.16729719620204A170.6070045455344,170.6070045455344,0,0,0,88.75375989883993,-145.70353497365488Z" fill-rule="evenodd" style="fill: #1DC690; stroke: #fff; opacity: 1;" id="p-type-logs"></path><path d="M103.4936766168159,-167.62475622751532A197,197,0,0,1,104.49959793528933,-166.9995030871735L90.49930649722043,-144.62581209287004A170.6070045455344,170.6070045455344,0,0,0,89.62815308121411,-145.16729719620204Z" fill-rule="evenodd" style="fill: #1DC690; stroke: #fff; opacity: 1;" id="p-type-logs"></path><path d="M104.49959793528933,-166.9995030871735A197,197,0,0,1,105.501741933008,-166.3682134576824L91.36718865749489,-144.07909923658508A170.6070045455344,170.6070045455344,0,0,0,90.49930649722043,-144.62581209287004Z" fill-rule="evenodd" style="fill: #1DC690; stroke: #fff; opacity: 1;" id="p-type-logs"></path><path d="M105.501741933008,-166.3682134576824A197,197,0,0,1,106.50007238572427,-165.73091015810988L92.2317681909188,-143.52717838923962A170.6070045455344,170.6070045455344,0,0,0,91.36718865749489,-144.07909923658508Z" fill-rule="evenodd" style="fill: #1DC690; stroke: #fff; opacity: 1;" id="p-type-logs"></path><path d="M106.50007238572427,-165.73091015810988A197,197,0,0,1,107.4945532070376,-165.08761622489848L93.09301384575257,-142.97006950097816A170.6070045455344,170.6070045455344,0,0,0,92.2317681909188,-143.52717838923962Z" fill-rule="evenodd" style="fill: #1DC690; stroke: #fff; opacity: 1;" id="p-type-logs"></path><path d="M107.4945532070376,-165.08761622489848A197,197,0,0,1,108.48514844969922,-164.4383549110326L93.95089449076553,-142.40779270947584A170.6070045455344,170.6070045455344,0,0,0,93.09301384575257,-142.97006950097816Z" fill-rule="evenodd" style="fill: #1DC690; stroke: #fff; opacity: 1;" id="p-type-logs"></path><path d="M108.48514844969922,-164.4383549110326A197,197,0,0,1,109.47182230691135,-163.78314968519817L94.80537911636122,-141.8403683392109A170.6070045455344,170.6070045455344,0,0,0,93.95089449076553,-142.40779270947584Z" fill-rule="evenodd" style="fill: #1DC690; stroke: #fff; opacity: 1;" id="p-type-logs"></path><path d="M109.47182230691135,-163.78314968519817A197,197,0,0,1,110.45453911362158,-163.12202423093407L95.6564368356982,-141.26781690072966A170.6070045455344,170.6070045455344,0,0,0,94.80537911636122,-141.8403683392109Z" fill-rule="evenodd" style="fill: #1DC690; stroke: #fff; opacity: 1;" id="p-type-logs"></path><path d="M110.45453911362158,-163.12202423093407A197,197,0,0,1,111.43326334781196,-162.4550024457763L96.50403688580654,-140.6901590899054A170.6070045455344,170.6070045455344,0,0,0,95.6564368356982,-141.26781690072966Z" fill-rule="evenodd" style="fill: #1DC690; stroke: #fff; opacity: 1;" id="p-type-logs"></path><path d="M111.43326334781196,-162.4550024457763A197,197,0,0,1,112.40795963178314,-161.78210844039404L97.34814862869987,-140.10741578719006A170.6070045455344,170.6070045455344,0,0,0,96.50403688580654,-140.6901590899054Z" fill-rule="evenodd" style="fill: #1DC690; stroke: #fff; opacity: 1;" id="p-type-logs"></path><path d="M112.40795963178314,-161.78210844039404A197,197,0,0,1,113.37859273343301,-161.10336653771805L98.18874155248274,-139.5196080568597A170.6070045455344,170.6070045455344,0,0,0,97.34814862869987,-140.10741578719006Z" fill-rule="evenodd" style="fill: #1DC690; stroke: #fff; opacity: 1;" id="p-type-logs"></path><path d="M113.37859273343301,-161.10336653771805A197,197,0,0,1,114.3451275675303,-160.4188012720617L99.02578527245358,-138.92675714625284A170.6070045455344,170.6070045455344,0,0,0,98.18874155248274,-139.5196080568597Z" fill-rule="evenodd" style="fill: #1DC690; stroke: #fff; opacity: 1;" id="p-type-logs"></path><path d="M114.3451275675303,-160.4188012720617A197,197,0,0,1,115.30752919698281,-159.7284373882339L99.859249532203,-138.32888448500267A170.6070045455344,170.6070045455344,0,0,0,99.02578527245358,-138.92675714625284Z" fill-rule="evenodd" style="fill: #1DC690; stroke: #fff; opacity: 1;" id="p-type-logs"></path><path d="M115.30752919698281,-159.7284373882339A197,197,0,0,1,116.26576283410023,-159.0322998406448L100.68910420470743,-137.72601168426235A170.6070045455344,170.6070045455344,0,0,0,99.859249532203,-138.32888448500267Z" fill-rule="evenodd" style="fill: #1DC690; stroke: #fff; opacity: 1;" id="p-type-logs"></path><path d="M116.26576283410023,-159.0322998406448A197,197,0,0,1,117.21979384185165,-158.33041379240376L101.51531929341823,-137.1181605359237A170.6070045455344,170.6070045455344,0,0,0,100.68910420470743,-137.72601168426235Z" fill-rule="evenodd" style="fill: #1DC690; stroke: #fff; opacity: 1;" id="p-type-logs"></path><path d="M117.21979384185165,-158.33041379240376A197,197,0,0,1,118.16958773511753,-157.62280461440966L102.3378649333458,-136.50535301182978A170.6070045455344,170.6070045455344,0,0,0,101.51531929341823,-137.1181605359237Z" fill-rule="evenodd" style="fill: #1DC690; stroke: #fff; opacity: 1;" id="p-type-logs"></path><path d="M118.16958773511753,-157.62280461440966A197,197,0,0,1,119.11511018193625,-156.90949788443396L103.15671139213923,-135.88761126298044A170.6070045455344,170.6070045455344,0,0,0,102.3378649333458,-136.50535301182978Z" fill-rule="evenodd" style="fill: #1DC690; stroke: #fff; opacity: 1;" id="p-type-logs"></path><path d="M119.11511018193625,-156.90949788443396A197,197,0,0,1,120.05632700474509,-156.19051938619614L103.97182907116097,-135.2649576187317A170.6070045455344,170.6070045455344,0,0,0,103.15671139213923,-135.88761126298044Z" fill-rule="evenodd" style="fill: #1DC690; stroke: #fff; opacity: 1;" id="p-type-logs"></path><path d="M120.05632700474509,-156.19051938619614A197,197,0,0,1,120.99320418161562,-155.46589510843165L104.7831885065567,-134.6374145859887A170.6070045455344,170.6070045455344,0,0,0,103.97182907116097,-135.2649576187317Z" fill-rule="evenodd" style="fill: #1DC690; stroke: #fff; opacity: 1;" id="p-type-logs"></path><path d="M120.99320418161562,-155.46589510843165A197,197,0,0,1,121.92570784748355,-154.73565124395247L105.59076037032044,-134.00500484839202A170.6070045455344,170.6070045455344,0,0,0,104.7831885065567,-134.6374145859887Z" fill-rule="evenodd" style="fill: #1DC690; stroke: #fff; opacity: 1;" id="p-type-logs"></path><path d="M121.92570784748355,-154.73565124395247A197,197,0,0,1,122.85380429537277,-153.99981418870038L106.3945154713546,-133.3677512654978A170.6070045455344,170.6070045455344,0,0,0,105.59076037032044,-134.00500484839202Z" fill-rule="evenodd" style="fill: #1DC690; stroke: #fff; opacity: 1;" id="p-type-logs"></path><path d="M122.85380429537277,-153.99981418870038A197,197,0,0,1,123.77745997761379,-153.2584105407929L107.19442475652517,-132.72567687195144A170.6070045455344,170.6070045455344,0,0,0,106.3945154713546,-133.3677512654978Z" fill-rule="evenodd" style="fill: #1DC690; stroke: #fff; opacity: 1;" id="p-type-logs"></path><path d="M123.77745997761379,-153.2584105407929A197,197,0,0,1,124.69664150705631,-152.51146709956168L107.99045931171183,-132.07880487665503A170.6070045455344,170.6070045455344,0,0,0,107.19442475652517,-132.72567687195144Z" fill-rule="evenodd" style="fill: #1DC690; stroke: #fff; opacity: 1;" id="p-type-logs"></path><path d="M124.69664150705631,-152.51146709956168A197,197,0,0,1,125.61131565827617,-151.75901086458393L108.7825903628532,-131.4271586619283A170.6070045455344,170.6070045455344,0,0,0,107.99045931171183,-132.07880487665503Z" fill-rule="evenodd" style="fill: #1DC690; stroke: #fff; opacity: 1;" id="p-type-logs"></path><path d="M125.61131565827617,-151.75901086458393A197,197,0,0,1,126.52144936877625,-151.00106903470646L109.57078927698684,-130.77076178266356A170.6070045455344,170.6070045455344,0,0,0,108.7825903628532,-131.4271586619283Z" fill-rule="evenodd" style="fill: #1DC690; stroke: #fff; opacity: 1;" id="p-type-logs"></path><path d="M126.52144936877625,-151.00106903470646A197,197,0,0,1,127.4270097401816,-150.2376690070625L110.35502756328437,-130.10963796547415A170.6070045455344,170.6070045455344,0,0,0,109.57078927698684,-130.77076178266356Z" fill-rule="evenodd" style="fill: #1DC690; stroke: #fff; opacity: 1;" id="p-type-logs"></path><path d="M127.4270097401816,-150.2376690070625A197,197,0,0,1,128.32796403942862,-149.4688383760813L111.13527687408109,-129.4438111078368A170.6070045455344,170.6070045455344,0,0,0,110.35502756328437,-130.10963796547415Z" fill-rule="evenodd" style="fill: #1DC690; stroke: #fff; opacity: 1;" id="p-type-logs"></path><path d="M128.32796403942862,-149.4688383760813A197,197,0,0,1,129.22427969994826,-148.69460493249088L111.91150900590092,-128.773305277228A170.6070045455344,170.6070045455344,0,0,0,111.13527687408109,-129.4438111078368Z" fill-rule="evenodd" style="fill: #1DC690; stroke: #fff; opacity: 1;" id="p-type-logs"></path><path d="M129.22427969994826,-148.69460493249088A197,197,0,0,1,130.11592432284314,-147.91499666231329L112.68369590047568,-128.09814471025376A170.6070045455344,170.6070045455344,0,0,0,111.91150900590092,-128.773305277228Z" fill-rule="evenodd" style="fill: #1DC690; stroke: #fff; opacity: 1;" id="p-type-logs"></path><path d="M130.11592432284314,-147.91499666231329A197,197,0,0,1,131.00286567805875,-147.13004174585316L113.4518096457594,-127.4183538117738A170.6070045455344,170.6070045455344,0,0,0,112.68369590047568,-128.09814471025376Z" fill-rule="evenodd" style="fill: #1DC690; stroke: #fff; opacity: 1;" id="p-type-logs"></path><path d="M131.00286567805875,-147.13004174585316A197,197,0,0,1,131.8850717055484,-146.33976855667893L114.21582247693719,-126.73395715401918A170.6070045455344,170.6070045455344,0,0,0,113.4518096457594,-127.4183538117738Z" fill-rule="evenodd" style="fill: #1DC690; stroke: #fff; opacity: 1;" id="p-type-logs"></path><path d="M131.8850717055484,-146.33976855667893A197,197,0,0,1,132.76251051643206,-145.54420566059738L114.97570677742884,-126.04497947570422A170.6070045455344,170.6070045455344,0,0,0,114.21582247693719,-126.73395715401918Z" fill-rule="evenodd" style="fill: #1DC690; stroke: #fff; opacity: 1;" id="p-type-logs"></path><path d="M132.76251051643206,-145.54420566059738A197,197,0,0,1,133.63515039414915,-144.74338181462093L115.7314350798872,-125.35144568113226A170.6070045455344,170.6070045455344,0,0,0,114.97570677742884,-126.04497947570422Z" fill-rule="evenodd" style="fill: #1DC690; stroke: #fff; opacity: 1;" id="p-type-logs"></path><path d="M133.63515039414915,-144.74338181462093A197,197,0,0,1,134.5029597956049,-143.93732596592827L116.48298006719085,-124.65338083929538A170.6070045455344,170.6070045455344,0,0,0,115.7314350798872,-125.35144568113226Z" fill-rule="evenodd" style="fill: #1DC690; stroke: #fff; opacity: 1;" id="p-type-logs"></path><path d="M134.5029597956049,-143.93732596592827A197,197,0,0,1,135.36590735231056,-143.12606725081798L117.23031457343167,-123.95081018296835A170.6070045455344,170.6070045455344,0,0,0,116.48298006719085,-124.65338083929538Z" fill-rule="evenodd" style="fill: #1DC690; stroke: #fff; opacity: 1;" id="p-type-logs"></path><path d="M196.69431430634316,-10.970265245539432A197,197,0,0,1,196.75671468978646,-9.787503485668568L170.3963132865219,-8.476226658217723A170.6070045455344,170.6070045455344,0,0,0,170.3422729692541,-9.50052838889068Z" fill-rule="evenodd" style="fill: #D7A449; stroke: #fff; opacity: 1;" id="p-type-tokenTransfers"></path><path d="M196.75671468978646,-9.787503485668568A197,197,0,0,1,196.8120029576167,-8.604387939364226L170.44419433099412,-7.4516185395058585A170.6070045455344,170.6070045455344,0,0,0,170.3963132865219,-8.476226658217723Z" fill-rule="evenodd" style="fill: #D7A449; stroke: #fff; opacity: 1;" id="p-type-tokenTransfers"></path><path d="M196.8120029576167,-8.604387939364226A197,197,0,0,1,196.86017711134275,-7.420961372407295L170.4859143719267,-6.4267410690077496A170.6070045455344,170.6070045455344,0,0,0,170.44419433099412,-7.4516185395058585Z" fill-rule="evenodd" style="fill: #D7A449; stroke: #fff; opacity: 1;" id="p-type-tokenTransfers"></path><path d="M196.86017711134275,-7.420961372407295A197,197,0,0,1,196.90123540962557,-6.237266561821049L170.5214719012758,-5.401631292712251A170.6070045455344,170.6070045455344,0,0,0,170.4859143719267,-6.4267410690077496Z" fill-rule="evenodd" style="fill: #D7A449; stroke: #fff; opacity: 1;" id="p-type-tokenTransfers"></path><path d="M196.90123540962557,-6.237266561821049A197,197,0,0,1,196.93517636834113,-5.053346294324898L170.55086563375227,-4.376326265005317A170.6070045455344,170.6070045455344,0,0,0,170.5214719012758,-5.401631292712251Z" fill-rule="evenodd" style="fill: #D7A449; stroke: #fff; opacity: 1;" id="p-type-tokenTransfers"></path><path d="M196.93517636834113,-5.053346294324898A197,197,0,0,1,196.96199876063415,-3.869243364787786L170.57409450686828,-3.3508630473306025A170.6070045455344,170.6070045455344,0,0,0,170.55086563375227,-4.376326265005317Z" fill-rule="evenodd" style="fill: #D7A449; stroke: #fff; opacity: 1;" id="p-type-tokenTransfers"></path><path d="M196.96199876063415,-3.869243364787786A197,197,0,0,1,196.98170161696228,-2.6850005746812964L170.59115768097558,-2.3252787068498195A170.6070045455344,170.6070045455344,0,0,0,170.57409450686828,-3.3508630473306025Z" fill-rule="evenodd" style="fill: #D7A449; stroke: #fff; opacity: 1;" id="p-type-tokenTransfers"></path><path d="M196.98170161696228,-2.6850005746812964A197,197,0,0,1,196.99428422513137,-1.5006607305325175L170.60205453929586,-1.299610315102874A170.6070045455344,170.6070045455344,0,0,0,170.59115768097558,-2.3252787068498195Z" fill-rule="evenodd" style="fill: #D7A449; stroke: #fff; opacity: 1;" id="p-type-tokenTransfers"></path><path d="M196.99428422513137,-1.5006607305325175A197,197,0,0,1,196.999746130321,-0.3162666423767254L170.60678468794313,-0.2738949466678523A170.6070045455344,170.6070045455344,0,0,0,170.60205453929586,-1.299610315102874Z" fill-rule="evenodd" style="fill: #D7A449; stroke: #fff; opacity: 1;" id="p-type-tokenTransfers"></path><path d="M196.999746130321,-0.3162666423767254A197,197,0,0,1,196.99808713510106,0.8681388777900589L170.6053479559379,0.7518303221791052A170.6070045455344,170.6070045455344,0,0,0,170.60678468794313,-0.2738949466678523Z" fill-rule="evenodd" style="fill: #D7A449; stroke: #fff; opacity: 1;" id="p-type-tokenTransfers"></path><path d="M196.99808713510106,0.8681388777900589A197,197,0,0,1,196.98930729943885,2.0525130175585846L170.5977443952134,1.7775284148039898A170.6070045455344,170.6070045455344,0,0,0,170.6053479559379,0.7518303221791052Z" fill-rule="evenodd" style="fill: #D7A449; stroke: #fff; opacity: 1;" id="p-type-tokenTransfers"></path><path d="M196.98930729943885,2.0525130175585846A197,197,0,0,1,196.9734069406969,3.2368129656539L170.58397428061357,2.803162255555125A170.6070045455344,170.6070045455344,0,0,0,170.5977443952134,1.7775284148039898Z" fill-rule="evenodd" style="fill: #D7A449; stroke: #fff; opacity: 1;" id="p-type-tokenTransfers"></path><path d="M196.9734069406969,3.2368129656539A197,197,0,0,1,196.95038663362143,4.420995913482843L170.5640381098833,3.8286947711033315A170.6070045455344,170.6070045455344,0,0,0,170.58397428061357,2.803162255555125Z" fill-rule="evenodd" style="fill: #D7A449; stroke: #fff; opacity: 1;" id="p-type-tokenTransfers"></path><path d="M196.95038663362143,4.420995913482843A197,197,0,0,1,196.92024721032178,5.605019056681426L170.5379366036504,4.854088891782005A170.6070045455344,170.6070045455344,0,0,0,170.5640381098833,3.8286947711033315Z" fill-rule="evenodd" style="fill: #D7A449; stroke: #fff; opacity: 1;" id="p-type-tokenTransfers"></path><path d="M196.92024721032178,5.605019056681426A197,197,0,0,1,196.88298976024006,6.7888395966620845L170.50567070539938,5.8793075529270675A170.6070045455344,170.6070045455344,0,0,0,170.5379366036504,4.854088891782005Z" fill-rule="evenodd" style="fill: #D7A449; stroke: #fff; opacity: 1;" id="p-type-tokenTransfers"></path><path d="M196.88298976024006,6.7888395966620845A197,197,0,0,1,196.838615630112,7.972414742160701L170.46724158143766,6.904313696216732A170.6070045455344,170.6070045455344,0,0,0,170.50567070539938,5.8793075529270675Z" fill-rule="evenodd" style="fill: #D7A449; stroke: #fff; opacity: 1;" id="p-type-tokenTransfers"></path><path d="M196.838615630112,7.972414742160701A197,197,0,0,1,196.78712642391818,9.155701710783367L170.42265062085312,7.9290702710110414A170.6070045455344,170.6070045455344,0,0,0,170.46724158143766,6.904313696216732Z" fill-rule="evenodd" style="fill: #D7A449; stroke: #fff; opacity: 1;" id="p-type-tokenTransfers"></path><path d="M196.78712642391818,9.155701710783367A197,197,0,0,1,196.728524002826,10.338657730552836L170.371899435464,8.953540235691127A170.6070045455344,170.6070045455344,0,0,0,170.42265062085312,7.9290702710110414Z" fill-rule="evenodd" style="fill: #D7A449; stroke: #fff; opacity: 1;" id="p-type-tokenTransfers"></path><path d="M196.728524002826,10.338657730552836A197,197,0,0,1,196.66281048512244,11.521240041454584L170.3149898597607,9.977686558998148A170.6070045455344,170.6070045455344,0,0,0,170.371899435464,8.953540235691127Z" fill-rule="evenodd" style="fill: #D7A449; stroke: #fff; opacity: 1;" id="p-type-tokenTransfers"></path><path d="M196.66281048512244,11.521240041454584A197,197,0,0,1,196.58998824613758,12.703405896982446L170.25192395083934,11.001472221371841A170.6070045455344,170.6070045455344,0,0,0,170.3149898597607,9.977686558998148Z" fill-rule="evenodd" style="fill: #D7A449; stroke: #fff; opacity: 1;" id="p-type-tokenTransfers"></path><path d="M196.58998824613758,12.703405896982446A197,197,0,0,1,196.51005991815862,13.88511256568377L170.18270398832755,12.024860216288669A170.6070045455344,170.6070045455344,0,0,0,170.25192395083934,11.001472221371841Z" fill-rule="evenodd" style="fill: #D7A449; stroke: #fff; opacity: 1;" id="p-type-tokenTransfers"></path><path d="M196.51005991815862,13.88511256568377A197,197,0,0,1,196.42302839033476,15.066317332704008L170.10733247430193,13.047813551599475A170.6070045455344,170.6070045455344,0,0,0,170.18270398832755,12.024860216288669Z" fill-rule="evenodd" style="fill: #D7A449; stroke: #fff; opacity: 1;" id="p-type-tokenTransfers"></path><path d="M196.42302839033476,15.066317332704008A197,197,0,0,1,196.32889680857286,16.246977501330736L170.02581213319772,14.07029525086664A170.6070045455344,170.6070045455344,0,0,0,170.10733247430193,13.047813551599475Z" fill-rule="evenodd" style="fill: #D7A449; stroke: #fff; opacity: 1;" id="p-type-tokenTransfers"></path><path d="M196.32889680857286,16.246977501330736A197,197,0,0,1,196.22766857542356,17.42705039453698L169.9381459117102,15.09226835470065A170.6070045455344,170.6070045455344,0,0,0,170.02581213319772,14.07029525086664Z" fill-rule="evenodd" style="fill: #D7A449; stroke: #fff; opacity: 1;" id="p-type-tokenTransfers"></path><path d="M196.22766857542356,17.42705039453698A197,197,0,0,1,196.1193473499584,18.606493356523874L169.8443369786883,16.113695922096063A170.6070045455344,170.6070045455344,0,0,0,169.9381459117102,15.09226835470065Z" fill-rule="evenodd" style="fill: #D7A449; stroke: #fff; opacity: 1;" id="p-type-tokenTransfers"></path><path d="M196.1193473499584,18.606493356523874A197,197,0,0,1,196.00393704763755,19.78526375426251L169.74438872502,17.13454103176681A170.6070045455344,170.6070045455344,0,0,0,169.8443369786883,16.113695922096063Z" fill-rule="evenodd" style="fill: #D7A449; stroke: #fff; opacity: 1;" id="p-type-tokenTransfers"></path><path d="M196.00393704763755,19.78526375426251A197,197,0,0,1,195.8814418401683,20.963318979034998L169.63830476350978,18.15476678348077A170.6070045455344,170.6070045455344,0,0,0,169.74438872502,17.13454103176681Z" fill-rule="evenodd" style="fill: #D7A449; stroke: #fff; opacity: 1;" id="p-type-tokenTransfers"></path><path d="M195.8814418401683,20.963318979034998A197,197,0,0,1,195.75186615535412,22.140616447974615L169.52608892874792,19.174336299393598A170.6070045455344,170.6070045455344,0,0,0,169.63830476350978,18.15476678348077Z" fill-rule="evenodd" style="fill: #D7A449; stroke: #fff; opacity: 1;" id="p-type-tokenTransfers"></path><path d="M195.75186615535412,22.140616447974615A197,197,0,0,1,195.61521467693487,23.31711360560506L169.40774527697215,20.19321272538175A170.6070045455344,170.6070045455344,0,0,0,169.52608892874792,19.174336299393598Z" fill-rule="evenodd" style="fill: #D7A449; stroke: #fff; opacity: 1;" id="p-type-tokenTransfers"></path><path d="M195.61521467693487,23.31711360560506A197,197,0,0,1,195.47149234441716,24.49276792537868L169.28327808592067,21.211359232374615A170.6070045455344,170.6070045455344,0,0,0,169.40774527697215,20.19321272538175Z" fill-rule="evenodd" style="fill: #D7A449; stroke: #fff; opacity: 1;" id="p-type-tokenTransfers"></path><path d="M195.47149234441716,24.49276792537868A197,197,0,0,1,195.3207043528962,25.667536911213663L169.1526918546779,22.228739017685793A170.6070045455344,170.6070045455344,0,0,0,169.28327808592067,21.211359232374615Z" fill-rule="evenodd" style="fill: #D7A449; stroke: #fff; opacity: 1;" id="p-type-tokenTransfers"></path><path d="M195.3207043528962,25.667536911213663A197,197,0,0,1,195.16285615286765,26.84137809903016L169.01599130351153,23.24531530634338A170.6070045455344,170.6070045455344,0,0,0,169.1526918546779,22.228739017685793Z" fill-rule="evenodd" style="fill: #D7A449; stroke: #fff; opacity: 1;" id="p-type-tokenTransfers"></path><path d="M195.16285615286765,26.84137809903016A197,197,0,0,1,194.99795345003076,28.014249058285174L168.87318137370207,24.261051352419248A170.6070045455344,170.6070045455344,0,0,0,169.01599130351153,23.24531530634338Z" fill-rule="evenodd" style="fill: #D7A449; stroke: #fff; opacity: 1;" id="p-type-tokenTransfers"></path><path d="M194.99795345003076,28.014249058285174A197,197,0,0,1,194.82600220508226,29.18610739350635L168.7242672273643,25.275910440357325A170.6070045455344,170.6070045455344,0,0,0,168.87318137370207,24.261051352419248Z" fill-rule="evenodd" style="fill: #D7A449; stroke: #fff; opacity: 1;" id="p-type-tokenTransfers"></path><path d="M194.82600220508226,29.18610739350635A197,197,0,0,1,194.6470086335006,30.356910745824376L168.56925424726046,26.28985588630072A170.6070045455344,170.6070045455344,0,0,0,168.7242672273643,25.275910440357325Z" fill-rule="evenodd" style="fill: #D7A449; stroke: #fff; opacity: 1;" id="p-type-tokenTransfers"></path><path d="M194.6470086335006,30.356910745824376A197,197,0,0,1,194.4609792053215,31.526616794504154L168.4081480366059,27.302851039417725A170.6070045455344,170.6070045455344,0,0,0,168.56925424726046,26.28985588630072Z" fill-rule="evenodd" style="fill: #D7A449; stroke: #fff; opacity: 1;" id="p-type-tokenTransfers"></path><path d="M194.4609792053215,31.526616794504154A197,197,0,0,1,194.26792064490414,32.69518325847454L168.24095441886638,28.314859283226635A170.6070045455344,170.6070045455344,0,0,0,168.4081480366059,27.302851039417725Z" fill-rule="evenodd" style="fill: #D7A449; stroke: #fff; opacity: 1;" id="p-type-tokenTransfers"></path><path d="M194.26792064490414,32.69518325847454A197,197,0,0,1,194.06783993068774,33.86256789785668L168.06767943754767,29.3258440369193A170.6070045455344,170.6070045455344,0,0,0,168.24095441886638,28.314859283226635Z" fill-rule="evenodd" style="fill: #D7A449; stroke: #fff; opacity: 1;" id="p-type-tokenTransfers"></path><path d="M194.06783993068774,33.86256789785668A197,197,0,0,1,193.86074429493982,35.02872851549082L167.88832935597705,30.335768756683418A170.6070045455344,170.6070045455344,0,0,0,168.06767943754767,29.3258440369193Z" fill-rule="evenodd" style="fill: #D7A449; stroke: #fff; opacity: 1;" id="p-type-tokenTransfers"></path><path d="M193.86074429493982,35.02872851549082A197,197,0,0,1,193.6466412234943,36.19362295846163L167.70291065707696,31.344596937023464A170.6070045455344,170.6070045455344,0,0,0,167.88832935597705,30.335768756683418Z" fill-rule="evenodd" style="fill: #D7A449; stroke: #fff; opacity: 1;" id="p-type-tokenTransfers"></path><path d="M193.6466412234943,36.19362295846163A197,197,0,0,1,193.42553845548122,37.357209119621885L167.5114300431306,32.35229211208026A170.6070045455344,170.6070045455344,0,0,0,167.70291065707696,31.344596937023464Z" fill-rule="evenodd" style="fill: #D7A449; stroke: #fff; opacity: 1;" id="p-type-tokenTransfers"></path><path d="M193.42553845548122,37.357209119621885A197,197,0,0,1,193.19744398304687,38.51944493911446L167.31389443553962,33.35881785694905A170.6070045455344,170.6070045455344,0,0,0,167.5114300431306,32.35229211208026Z" fill-rule="evenodd" style="fill: #D7A449; stroke: #fff; opacity: 1;" id="p-type-tokenTransfers"></path><path d="M193.19744398304687,38.51944493911446A197,197,0,0,1,192.96236605106492,39.68028840589273L167.11031097457416,34.36413778899623A170.6070045455344,170.6070045455344,0,0,0,167.31389443553962,33.35881785694905Z" fill-rule="evenodd" style="fill: #D7A449; stroke: #fff; opacity: 1;" id="p-type-tokenTransfers"></path><path d="M192.96236605106492,39.68028840589273A197,197,0,0,1,192.72031315683847,40.83969755923907L166.90068701911449,35.36821556917437A170.6070045455344,170.6070045455344,0,0,0,167.11031097457416,34.36413778899623Z" fill-rule="evenodd" style="fill: #D7A449; stroke: #fff; opacity: 1;" id="p-type-tokenTransfers"></path><path d="M192.72031315683847,40.83969755923907A197,197,0,0,1,192.4712940497927,41.99763049028164L166.68503014638515,36.371014903335805A170.6070045455344,170.6070045455344,0,0,0,166.90068701911449,35.36821556917437Z" fill-rule="evenodd" style="fill: #D7A449; stroke: #fff; opacity: 1;" id="p-type-tokenTransfers"></path><path d="M192.4712940497927,41.99763049028164A197,197,0,0,1,192.21531773115885,43.15404534350921L166.463348151681,37.372499543544535A170.6070045455344,170.6070045455344,0,0,0,166.68503014638515,36.371014903335805Z" fill-rule="evenodd" style="fill: #D7A449; stroke: #fff; opacity: 1;" id="p-type-tokenTransfers"></path><path d="M192.21531773115885,43.15404534350921A197,197,0,0,1,191.95239345364868,44.30890031828417L166.23564904808555,38.372633289386485A170.6070045455344,170.6070045455344,0,0,0,166.463348151681,37.372499543544535Z" fill-rule="evenodd" style="fill: #D7A449; stroke: #fff; opacity: 1;" id="p-type-tokenTransfers"></path><path d="M191.95239345364868,44.30890031828417A197,197,0,0,1,191.68253072112017,45.462153670353395L166.00194106618116,39.371379989278A170.6070045455344,170.6070045455344,0,0,0,166.23564904808555,38.372633289386485Z" fill-rule="evenodd" style="fill: #D7A449; stroke: #fff; opacity: 1;" id="p-type-tokenTransfers"></path><path d="M191.68253072112017,45.462153670353395A197,197,0,0,1,191.40573928823372,46.61376371335726L165.7622326537516,40.36870354177263A170.6070045455344,170.6070045455344,0,0,0,166.00194106618116,39.371379989278Z" fill-rule="evenodd" style="fill: #D7A449; stroke: #fff; opacity: 1;" id="p-type-tokenTransfers"></path><path d="M191.40573928823372,46.61376371335726A197,197,0,0,1,191.12202916009988,47.7636888203364L165.51653247547677,41.364567896866106A170.6070045455344,170.6070045455344,0,0,0,165.7622326537516,40.36870354177263Z" fill-rule="evenodd" style="fill: #D7A449; stroke: #fff; opacity: 1;" id="p-type-tokenTransfers"></path><path d="M191.12202916009988,47.7636888203364A197,197,0,0,1,190.8314105919175,48.911887425236394L165.26484941261936,42.35893705729935A170.6070045455344,170.6070045455344,0,0,0,165.51653247547677,41.364567896866106Z" fill-rule="evenodd" style="fill: #D7A449; stroke: #fff; opacity: 1;" id="p-type-tokenTransfers"></path><path d="M190.8314105919175,48.911887425236394A197,197,0,0,1,190.53389408860303,50.0583180244103L165.00719256270392,43.35177507985977A170.6070045455344,170.6070045455344,0,0,0,165.26484941261936,42.35893705729935Z" fill-rule="evenodd" style="fill: #D7A449; stroke: #fff; opacity: 1;" id="p-type-tokenTransfers"></path><path d="M190.53389408860303,50.0583180244103A197,197,0,0,1,190.22949040441094,51.20293917811878L164.74357123918796,44.34304607668037A170.6070045455344,170.6070045455344,0,0,0,165.00719256270392,43.35177507985977Z" fill-rule="evenodd" style="fill: #D7A449; stroke: #fff; opacity: 1;" id="p-type-tokenTransfers"></path><path d="M190.22949040441094,51.20293917811878A197,197,0,0,1,189.91821054254478,52.34570951202814L164.47399497112536,45.33271421653709A170.6070045455344,170.6070045455344,0,0,0,164.74357123918796,44.34304607668037Z" fill-rule="evenodd" style="fill: #D7A449; stroke: #fff; opacity: 1;" id="p-type-tokenTransfers"></path><path d="M189.91821054254478,52.34570951202814A197,197,0,0,1,189.60006575475967,53.48658771870573L164.19847350282186,46.320743726143924A170.6070045455344,170.6070045455344,0,0,0,164.47399497112536,45.33271421653709Z" fill-rule="evenodd" style="fill: #D7A449; stroke: #fff; opacity: 1;" id="p-type-tokenTransfers"></path><path d="M189.60006575475967,53.48658771870573A197,197,0,0,1,189.2750675409555,54.62553255911318L163.91701679348287,47.307098891445996A170.6070045455344,170.6070045455344,0,0,0,164.19847350282186,46.320743726143924Z" fill-rule="evenodd" style="fill: #D7A449; stroke: #fff; opacity: 1;" id="p-type-tokenTransfers"></path><path d="M189.2750675409555,54.62553255911318A197,197,0,0,1,188.9432276487611,55.76250286409705L163.62963501685346,48.29174405891057A170.6070045455344,170.6070045455344,0,0,0,163.91701679348287,47.307098891445996Z" fill-rule="evenodd" style="fill: #D7A449; stroke: #fff; opacity: 1;" id="p-type-tokenTransfers"></path><path d="M188.9432276487611,55.76250286409705A197,197,0,0,1,188.6045580731099,56.8974575358769L163.3363385608506,49.274643636815746A170.6070045455344,170.6070045455344,0,0,0,163.62963501685346,48.29174405891057Z" fill-rule="evenodd" style="fill: #D7A449; stroke: #fff; opacity: 1;" id="p-type-tokenTransfers"></path><path d="M188.6045580731099,56.8974575358769A197,197,0,0,1,188.25907105580606,58.0303555495309L163.03713802718775,50.25576209653704A170.6070045455344,170.6070045455344,0,0,0,163.3363385608506,49.274643636815746Z" fill-rule="evenodd" style="fill: #D7A449; stroke: #fff; opacity: 1;" id="p-type-tokenTransfers"></path><path d="M188.25907105580606,58.0303555495309A197,197,0,0,1,187.9067790850821,59.16115595447871L162.73204423099153,51.23506397383157A170.6070045455344,170.6070045455344,0,0,0,163.03713802718775,50.25576209653704Z" fill-rule="evenodd" style="fill: #D7A449; stroke: #fff; opacity: 1;" id="p-type-tokenTransfers"></path><path d="M187.9067790850821,59.16115595447871A197,197,0,0,1,187.54769489514757,60.289817875961745L162.42106820041087,52.212513870120034A170.6070045455344,170.6070045455344,0,0,0,162.73204423099153,51.23506397383157Z" fill-rule="evenodd" style="fill: #D7A449; stroke: #fff; opacity: 1;" id="p-type-tokenTransfers"></path><path d="M187.54769489514757,60.289817875961745A197,197,0,0,1,187.1818314657286,61.41630051652061L162.10422117621837,53.188076453766186A170.6070045455344,170.6070045455344,0,0,0,162.42106820041087,52.212513870120034Z" fill-rule="evenodd" style="fill: #D7A449; stroke: #fff; opacity: 1;" id="p-type-tokenTransfers"></path><path d="M187.1818314657286,61.41630051652061A197,197,0,0,1,186.80920202159882,62.540563157469876L161.7815146114039,54.16171646135403A170.6070045455344,170.6070045455344,0,0,0,162.10422117621837,53.188076453766186Z" fill-rule="evenodd" style="fill: #D7A449; stroke: #fff; opacity: 1;" id="p-type-tokenTransfers"></path><path d="M186.80920202159882,62.540563157469876A197,197,0,0,1,186.42982003210125,63.66256516036986L161.45296017076072,55.13339869896244A170.6070045455344,170.6070045455344,0,0,0,161.7815146114039,54.16171646135403Z" fill-rule="evenodd" style="fill: #D7A449; stroke: #fff; opacity: 1;" id="p-type-tokenTransfers"></path><path d="M186.42982003210125,63.66256516036986A197,197,0,0,1,186.04369921066152,64.78226596849558L161.1185697304638,56.10308804343728A170.6070045455344,170.6070045455344,0,0,0,161.45296017076072,55.13339869896244Z" fill-rule="evenodd" style="fill: #D7A449; stroke: #fff; opacity: 1;" id="p-type-tokenTransfers"></path><path d="M186.04369921066152,64.78226596849558A197,197,0,0,1,185.65085351429212,65.8996251083028L160.77835537764048,57.07074944366106A170.6070045455344,170.6070045455344,0,0,0,161.1185697304638,56.10308804343728Z" fill-rule="evenodd" style="fill: #D7A449; stroke: #fff; opacity: 1;" id="p-type-tokenTransfers"></path><path d="M185.65085351429212,65.8996251083028A197,197,0,0,1,185.25129714308787,67.01460219089095L160.4323294099337,58.03634792181986A170.6070045455344,170.6070045455344,0,0,0,160.77835537764048,57.07074944366106Z" fill-rule="evenodd" style="fill: #D7A449; stroke: #fff; opacity: 1;" id="p-type-tokenTransfers"></path><path d="M185.25129714308787,67.01460219089095A197,197,0,0,1,184.84504453971272,68.1271569134631L160.08050433505724,58.99984857466769A170.6070045455344,170.6070045455344,0,0,0,160.4323294099337,58.03634792181986Z" fill-rule="evenodd" style="fill: #D7A449; stroke: #fff; opacity: 1;" id="p-type-tokenTransfers"></path><path d="M184.84504453971272,68.1271569134631A197,197,0,0,1,184.43211038887762,69.23724906078276L159.72289287034388,59.96121657478813A170.6070045455344,170.6070045455344,0,0,0,160.08050433505724,58.99984857466769Z" fill-rule="evenodd" style="fill: #D7A449; stroke: #fff; opacity: 1;" id="p-type-tokenTransfers"></path><path d="M184.43211038887762,69.23724906078276A197,197,0,0,1,184.01250961680972,70.34483850662753L159.35950794228555,60.92041717185323A170.6070045455344,170.6070045455344,0,0,0,159.72289287034388,59.96121657478813Z" fill-rule="evenodd" style="fill: #D7A449; stroke: #fff; opacity: 1;" id="p-type-tokenTransfers"></path><path d="M184.01250961680972,70.34483850662753A197,197,0,0,1,183.58625739071292,71.44988521523953L158.99036268606605,61.877415693879605A170.6070045455344,170.6070045455344,0,0,0,159.35950794228555,60.92041717185323Z" fill-rule="evenodd" style="fill: #D7A449; stroke: #fff; opacity: 1;" id="p-type-tokenTransfers"></path><path d="M183.58625739071292,71.44988521523953A197,197,0,0,1,183.1533691182195,72.55234924277256L158.61547044508637,62.83217754848172A170.6070045455344,170.6070045455344,0,0,0,158.99036268606605,61.877415693879605Z" fill-rule="evenodd" style="fill: #D7A449; stroke: #fff; opacity: 1;" id="p-type-tokenTransfers"></path><path d="M183.1533691182195,72.55234924277256A197,197,0,0,1,182.71386044683325,73.65219073873595L158.23484477048234,63.78466822412229A170.6070045455344,170.6070045455344,0,0,0,158.61547044508637,62.83217754848172Z" fill-rule="evenodd" style="fill: #D7A449; stroke: #fff; opacity: 1;" id="p-type-tokenTransfers"></path><path d="M182.71386044683325,73.65219073873595A197,197,0,0,1,182.2677472633639,74.74936994743503L157.84849942063474,64.7348532913598A170.6070045455344,170.6070045455344,0,0,0,158.23484477048234,63.78466822412229Z" fill-rule="evenodd" style="fill: #D7A449; stroke: #fff; opacity: 1;" id="p-type-tokenTransfers"></path><path d="M182.2677472633639,74.74936994743503A197,197,0,0,1,181.81504569335277,75.84384720940814L157.456448360672,65.68269840409295A170.6070045455344,170.6070045455344,0,0,0,157.84849942063474,64.7348532913598Z" fill-rule="evenodd" style="fill: #D7A449; stroke: #fff; opacity: 1;" id="p-type-tokenTransfers"></path><path d="M181.81504569335277,75.84384720940814A197,197,0,0,1,181.35577210048996,76.93558296286021L157.05870576196543,66.62816930080218A170.6070045455344,170.6070045455344,0,0,0,157.456448360672,65.68269840409295Z" fill-rule="evenodd" style="fill: #D7A449; stroke: #fff; opacity: 1;" id="p-type-tokenTransfers"></path><path d="M181.35577210048996,76.93558296286021A197,197,0,0,1,180.88994308602284,78.02453774509283L156.65528600161707,67.57123180578819A170.6070045455344,170.6070045455344,0,0,0,157.05870576196543,66.62816930080218Z" fill-rule="evenodd" style="fill: #D7A449; stroke: #fff; opacity: 1;" id="p-type-tokenTransfers"></path><path d="M180.88994308602284,78.02453774509283A197,197,0,0,1,180.41757548815596,79.11067219393061L156.2462036619397,68.51185183040712A170.6070045455344,170.6070045455344,0,0,0,156.65528600161707,67.57123180578819Z" fill-rule="evenodd" style="fill: #D7A449; stroke: #fff; opacity: 1;" id="p-type-tokenTransfers"></path><path d="M180.41757548815596,79.11067219393061A197,197,0,0,1,179.93868638144238,80.19394704914409L155.8314735299301,69.4499953743029A170.6070045455344,170.6070045455344,0,0,0,156.2462036619397,68.51185183040712Z" fill-rule="evenodd" style="fill: #D7A449; stroke: #fff; opacity: 1;" id="p-type-tokenTransfers"></path><path d="M179.93868638144238,80.19394704914409A197,197,0,0,1,179.45329307616652,81.27432315386875L155.41111059673432,70.38562852663614A170.6070045455344,170.6070045455344,0,0,0,155.8314735299301,69.4499953743029Z" fill-rule="evenodd" style="fill: #D7A449; stroke: #fff; opacity: 1;" id="p-type-tokenTransfers"></path><path d="M179.45329307616652,81.27432315386875A197,197,0,0,1,178.96141311771845,82.35176145602054L154.98513005710583,71.31871746730995A170.6070045455344,170.6070045455344,0,0,0,155.41111059673432,70.38562852663614Z" fill-rule="evenodd" style="fill: #D7A449; stroke: #fff; opacity: 1;" id="p-type-tokenTransfers"></path><path d="M178.96141311771845,82.35176145602054A197,197,0,0,1,178.46306428595963,83.42622300970741L154.55354730885642,72.24922846819248A170.6070045455344,170.6070045455344,0,0,0,154.98513005710583,71.31871746730995Z" fill-rule="evenodd" style="fill: #D7A449; stroke: #fff; opacity: 1;" id="p-type-tokenTransfers"></path><path d="M178.46306428595963,83.42622300970741A197,197,0,0,1,177.9582645945803,84.49766897663712L154.1163779522994,73.177127894336A170.6070045455344,170.6070045455344,0,0,0,154.55354730885642,72.24922846819248Z" fill-rule="evenodd" style="fill: #D7A449; stroke: #fff; opacity: 1;" id="p-type-tokenTransfers"></path><path d="M177.9582645945803,84.49766897663712A197,197,0,0,1,177.44703229044828,85.56606062752103L153.67363778968578,74.10238220519265A170.6070045455344,170.6070045455344,0,0,0,154.1163779522994,73.177127894336Z" fill-rule="evenodd" style="fill: #D7A449; stroke: #fff; opacity: 1;" id="p-type-tokenTransfers"></path><path d="M177.44703229044828,85.56606062752103A197,197,0,0,1,176.92938585294942,86.63135934347412L153.2253428246333,75.02495795582698A170.6070045455344,170.6070045455344,0,0,0,153.67363778968578,74.10238220519265Z" fill-rule="evenodd" style="fill: #D7A449; stroke: #fff; opacity: 1;" id="p-type-tokenTransfers"></path><path d="M176.92938585294942,86.63135934347412A197,197,0,0,1,176.40534399331966,87.69352661741094L152.77150926154746,75.94482179812472A170.6070045455344,170.6070045455344,0,0,0,153.2253428246333,75.02495795582698Z" fill-rule="evenodd" style="fill: #D7A449; stroke: #fff; opacity: 1;" id="p-type-tokenTransfers"></path><path d="M176.40534399331966,87.69352661741094A197,197,0,0,1,175.87492565396866,88.75252405543745L152.31215350503632,76.86194048199832A170.6070045455344,170.6070045455344,0,0,0,152.77150926154746,75.94482179812472Z" fill-rule="evenodd" style="fill: #D7A449; stroke: #fff; opacity: 1;" id="p-type-tokenTransfers"></path><path d="M175.87492565396866,88.75252405543745A197,197,0,0,1,175.33815000779504,89.80831337823888L151.8472921593172,77.77628085658873A170.6070045455344,170.6070045455344,0,0,0,152.31215350503632,76.86194048199832Z" fill-rule="evenodd" style="fill: #D7A449; stroke: #fff; opacity: 1;" id="p-type-tokenTransfers"></path><path d="M175.33815000779504,89.80831337823888A197,197,0,0,1,174.79503645749352,90.86085642246341L151.3769420276165,78.68780987146378A170.6070045455344,170.6070045455344,0,0,0,151.8472921593172,77.77628085658873Z" fill-rule="evenodd" style="fill: #D7A449; stroke: #fff; opacity: 1;" id="p-type-tokenTransfers"></path><path d="M174.79503645749352,90.86085642246341A197,197,0,0,1,174.24560463485332,91.91011514210165L150.9011201115625,79.59649457781282A170.6070045455344,170.6070045455344,0,0,0,151.3769420276165,78.68780987146378Z" fill-rule="evenodd" style="fill: #D7A449; stroke: #fff; opacity: 1;" id="p-type-tokenTransfers"></path><path d="M174.24560463485332,91.91011514210165A197,197,0,0,1,173.68987440004875,92.95605160986182L150.41984361057064,80.5023021296377A170.6070045455344,170.6070045455344,0,0,0,150.9011201115625,79.59649457781282Z" fill-rule="evenodd" style="fill: #D7A449; stroke: #fff; opacity: 1;" id="p-type-tokenTransfers"></path><path d="M173.68987440004875,92.95605160986182A197,197,0,0,1,173.12786584092117,93.99862801854078L149.93312992122188,81.40519978494004A170.6070045455344,170.6070045455344,0,0,0,150.41984361057064,80.5023021296377Z" fill-rule="evenodd" style="fill: #D7A449; stroke: #fff; opacity: 1;" id="p-type-tokenTransfers"></path><path d="M173.12786584092117,93.99862801854078A197,197,0,0,1,172.55959927225302,95.03780668239062L149.44099663663383,82.30515490690476A170.6070045455344,170.6070045455344,0,0,0,149.93312992122188,81.40519978494004Z" fill-rule="evenodd" style="fill: #D7A449; stroke: #fff; opacity: 1;" id="p-type-tokenTransfers"></path><path d="M172.55959927225302,95.03780668239062A197,197,0,0,1,171.98509523503344,96.07355003848082L148.94346154582496,83.20213496507982A170.6070045455344,170.6070045455344,0,0,0,149.44099663663383,82.30515490690476Z" fill-rule="evenodd" style="fill: #D7A449; stroke: #fff; opacity: 1;" id="p-type-tokenTransfers"></path><path d="M171.98509523503344,96.07355003848082A197,197,0,0,1,171.40437449571573,97.10582064805608L148.44054263307135,84.09610753655204A170.6070045455344,170.6070045455344,0,0,0,148.94346154582496,83.20213496507982Z" fill-rule="evenodd" style="fill: #D7A449; stroke: #fff; opacity: 1;" id="p-type-tokenTransfers"></path><path d="M171.40437449571573,97.10582064805608A197,197,0,0,1,170.8174580454668,98.1345811978896L147.9322580772568,84.98704030711912A170.6070045455344,170.6070045455344,0,0,0,148.44054263307135,84.09610753655204Z" fill-rule="evenodd" style="fill: #D7A449; stroke: #fff; opacity: 1;" id="p-type-tokenTransfers"></path><path d="M170.8174580454668,98.1345811978896A197,197,0,0,1,170.22436709940837,99.15979450163186L147.41862625121564,85.87490107245769A170.6070045455344,170.6070045455344,0,0,0,147.9322580772568,84.98704030711912Z" fill-rule="evenodd" style="fill: #D7A449; stroke: #fff; opacity: 1;" id="p-type-tokenTransfers"></path><path d="M170.22436709940837,99.15979450163186A197,197,0,0,1,169.62512309585009,100.18142350115468L146.8996657210687,86.75965773928733A170.6070045455344,170.6070045455344,0,0,0,147.41862625121564,85.87490107245769Z" fill-rule="evenodd" style="fill: #D7A449; stroke: #fff; opacity: 1;" id="p-type-tokenTransfers"></path><path d="M169.62512309585009,100.18142350115468A197,197,0,0,1,169.01974769551464,101.19943126789092L146.375395245552,87.64127832653077A170.6070045455344,170.6070045455344,0,0,0,146.8996657210687,86.75965773928733Z" fill-rule="evenodd" style="fill: #D7A449; stroke: #fff; opacity: 1;" id="p-type-tokenTransfers"></path><path d="M169.01974769551464,101.19943126789092A197,197,0,0,1,168.40826278075477,102.21378100416914L145.845833775339,88.51973096646975A170.6070045455344,170.6070045455344,0,0,0,146.375395245552,87.64127832653077Z" fill-rule="evenodd" style="fill: #D7A449; stroke: #fff; opacity: 1;" id="p-type-tokenTransfers"></path><path d="M168.40826278075477,102.21378100416914A197,197,0,0,1,167.79069045476234,103.22443604454389L145.3110004523553,89.39498390589708A170.6070045455344,170.6070045455344,0,0,0,145.845833775339,88.51973096646975Z" fill-rule="evenodd" style="fill: #D7A449; stroke: #fff; opacity: 1;" id="p-type-tokenTransfers"></path><path d="M167.79069045476234,103.22443604454389A197,197,0,0,1,167.16705304076928,104.23135985712089L144.77091460908687,90.26700550726424A170.6070045455344,170.6070045455344,0,0,0,145.3110004523553,89.39498390589708Z" fill-rule="evenodd" style="fill: #D7A449; stroke: #fff; opacity: 1;" id="p-type-tokenTransfers"></path><path d="M167.16705304076928,104.23135985712089A197,197,0,0,1,166.5373730812408,105.23451604487771L144.22559576788123,91.1357642498252A170.6070045455344,170.6070045455344,0,0,0,144.77091460908687,90.26700550726424Z" fill-rule="evenodd" style="fill: #D7A449; stroke: #fff; opacity: 1;" id="p-type-tokenTransfers"></path><path d="M166.5373730812408,105.23451604487771A197,197,0,0,1,165.90167333706037,106.23386834697922L143.67506364024175,92.00122873077558A170.6070045455344,170.6070045455344,0,0,0,144.22559576788123,91.1357642498252Z" fill-rule="evenodd" style="fill: #D7A449; stroke: #fff; opacity: 1;" id="p-type-tokenTransfers"></path><path d="M165.90167333706037,106.23386834697922A197,197,0,0,1,165.25997678670728,107.22938064008842L143.11933812611514,92.86336766638784A170.6070045455344,170.6070045455344,0,0,0,143.67506364024175,92.00122873077558Z" fill-rule="evenodd" style="fill: #D7A449; stroke: #fff; opacity: 1;" id="p-type-tokenTransfers"></path><path d="M165.25997678670728,107.22938064008842A197,197,0,0,1,164.61230662542576,108.22101693967215L142.55843931317216,93.72214989314216A170.6070045455344,170.6070045455344,0,0,0,143.11933812611514,92.86336766638784Z" fill-rule="evenodd" style="fill: #D7A449; stroke: #fff; opacity: 1;" id="p-type-tokenTransfers"></path><path d="M164.61230662542576,108.22101693967215A197,197,0,0,1,163.95868626438664,109.20874140130186L141.99238747608155,94.57754436885278A170.6070045455344,170.6070045455344,0,0,0,142.55843931317216,93.72214989314216Z" fill-rule="evenodd" style="fill: #D7A449; stroke: #fff; opacity: 1;" id="p-type-tokenTransfers"></path><path d="M163.95868626438664,109.20874140130186A197,197,0,0,1,163.2991393298412,110.19251832194918L141.42120307577704,95.42952017379018A170.6070045455344,170.6070045455344,0,0,0,141.99238747608155,94.57754436885278Z" fill-rule="evenodd" style="fill: #D7A449; stroke: #fff; opacity: 1;" id="p-type-tokenTransfers"></path><path d="M163.2991393298412,110.19251832194918A197,197,0,0,1,162.63368966226705,111.1723121412765L140.8449067587179,96.27804651179864A170.6070045455344,170.6070045455344,0,0,0,141.42120307577704,95.42952017379018Z" fill-rule="evenodd" style="fill: #D7A449; stroke: #fff; opacity: 1;" id="p-type-tokenTransfers"></path><path d="M162.63368966226705,111.1723121412765A197,197,0,0,1,161.96236131550637,112.1480874429224L140.26351935614255,97.1230927114094A170.6070045455344,170.6070045455344,0,0,0,140.8449067587179,96.27804651179864Z" fill-rule="evenodd" style="fill: #D7A449; stroke: #fff; opacity: 1;" id="p-type-tokenTransfers"></path><path d="M161.96236131550637,112.1480874429224A197,197,0,0,1,161.28517855589652,113.11980895578182L139.6770618833156,97.96462822694951A170.6070045455344,170.6070045455344,0,0,0,140.26351935614255,97.1230927114094Z" fill-rule="evenodd" style="fill: #D7A449; stroke: #fff; opacity: 1;" id="p-type-tokenTransfers"></path><path d="M161.28517855589652,113.11980895578182A197,197,0,0,1,160.6021658613929,114.08744155528095L139.08555553876818,98.80262263964572A170.6070045455344,170.6070045455344,0,0,0,139.6770618833156,97.96462822694951Z" fill-rule="evenodd" style="fill: #D7A449; stroke: #fff; opacity: 1;" id="p-type-tokenTransfers"></path><path d="M160.6021658613929,114.08744155528095A197,197,0,0,1,159.913347920684,115.05095026464696L138.4890217035318,99.63704565872425A170.6070045455344,170.6070045455344,0,0,0,139.08555553876818,98.80262263964572Z" fill-rule="evenodd" style="fill: #D7A449; stroke: #fff; opacity: 1;" id="p-type-tokenTransfers"></path><path d="M159.913347920684,115.05095026464696A197,197,0,0,1,159.2187496322992,116.0103002561722L137.88748194036535,100.4678671225055A170.6070045455344,170.6070045455344,0,0,0,138.4890217035318,99.63704565872425Z" fill-rule="evenodd" style="fill: #D7A449; stroke: #fff; opacity: 1;" id="p-type-tokenTransfers"></path><path d="M159.2187496322992,116.0103002561722A197,197,0,0,1,158.51839610370854,116.96545685247315L137.28095799297577,101.29505699949439A170.6070045455344,170.6070045455344,0,0,0,137.88748194036535,100.4678671225055Z" fill-rule="evenodd" style="fill: #D7A449; stroke: #fff; opacity: 1;" id="p-type-tokenTransfers"></path><path d="M47.53507652146573,191.17901689280234A197,197,0,0,1,0.8938583732917147,196.9979721144573L0.7741040586560587,170.60524834513848A170.6070045455344,170.6070045455344,0,0,0,41.166583838426554,165.56588529970114Z" fill-rule="evenodd" style="fill: #414552; stroke: #fff; opacity: 1;" id="p-type-ether"></path><path d="M0.8938583732917147,196.9979721144573A197,197,0,0,1,-39.125970360130886,193.0755252313927L-33.88408427959033,167.20830969940943A170.6070045455344,170.6070045455344,0,0,0,0.7741040586560587,170.60524834513848Z" fill-rule="evenodd" style="fill: #414552; stroke: #fff; opacity: 1;" id="p-type-ether"></path><path d="M-39.125970360130886,193.0755252313927A197,197,0,0,1,-67.59589292421728,185.03998286796764L-58.539760463864944,160.24932587949726A170.6070045455344,170.6070045455344,0,0,0,-33.88408427959033,167.20830969940943Z" fill-rule="evenodd" style="fill: #414552; stroke: #fff; opacity: 1;" id="p-type-ether"></path><path d="M-67.59589292421728,185.03998286796764A197,197,0,0,1,-86.50603860518147,176.99069265031665L-74.91642701284452,153.27843606857795A170.6070045455344,170.6070045455344,0,0,0,-58.539760463864944,160.24932587949726Z" fill-rule="evenodd" style="fill: #414552; stroke: #fff; opacity: 1;" id="p-type-ether"></path><path d="M-86.50603860518147,176.99069265031665A197,197,0,0,1,-90.73105371310955,174.86244849054594L-78.57539742768328,151.43532256076065A170.6070045455344,170.6070045455344,0,0,0,-74.91642701284452,153.27843606857795Z" fill-rule="evenodd" style="fill: #414552; stroke: #fff; opacity: 1;" id="p-type-ether"></path><path d="M-90.73105371310955,174.86244849054594A197,197,0,0,1,-94.1375202448806,173.0523830582656L-81.5254839813385,149.86775991389382A170.6070045455344,170.6070045455344,0,0,0,-78.57539742768328,151.43532256076065Z" fill-rule="evenodd" style="fill: #414552; stroke: #fff; opacity: 1;" id="p-type-ether"></path><path d="M-94.1375202448806,173.0523830582656A197,197,0,0,1,-96.83243298720636,171.5589692256811L-83.85934687717499,148.57442559651255A170.6070045455344,170.6070045455344,0,0,0,-81.5254839813385,149.86775991389382Z" fill-rule="evenodd" style="fill: #414552; stroke: #fff; opacity: 1;" id="p-type-ether"></path><path d="M-96.83243298720636,171.5589692256811A197,197,0,0,1,-98.8569166253165,170.4004402439595L-85.6126011373243,147.57111006732114A170.6070045455344,170.6070045455344,0,0,0,-83.85934687717499,148.57442559651255Z" fill-rule="evenodd" style="fill: #414552; stroke: #fff; opacity: 1;" id="p-type-ether"></path><path d="M-98.8569166253165,170.4004402439595A197,197,0,0,1,-100.24803939816599,169.58576177504926L-86.817348798395,146.86557781732867A170.6070045455344,170.6070045455344,0,0,0,-85.6126011373243,147.57111006732114Z" fill-rule="evenodd" style="fill: #414552; stroke: #fff; opacity: 1;" id="p-type-ether"></path><path d="M-100.24803939816599,169.58576177504926A197,197,0,0,1,-101.32640497353437,168.94365822705305L-87.75124078123065,146.3094998329038A170.6070045455344,170.6070045455344,0,0,0,-86.817348798395,146.86557781732867Z" fill-rule="evenodd" style="fill: #414552; stroke: #fff; opacity: 1;" id="p-type-ether"></path><path d="M-101.32640497353437,168.94365822705305A197,197,0,0,1,-102.2319579018498,168.39722914452722L-88.5354726216232,145.83627836606982A170.6070045455344,170.6070045455344,0,0,0,-87.75124078123065,146.3094998329038Z" fill-rule="evenodd" style="fill: #414552; stroke: #fff; opacity: 1;" id="p-type-ether"></path></g></svg>