<svg xmlns="http://www.w3.org/2000/svg" width="400" height="400" id="block-7908349"><g id="burst-container" transform="translate(200,200)"><circle r="197" style="fill: #f9f9f9; stroke: #f9f9f9; stroke-width: 3; opacity: 1;" id="circle-base"></circle><path display="none" d="M6.031385485800715e-15,-98.5A98.5,98.5,0,1,1,-6.031385485800715e-15,98.5A98.5,98.5,0,1,1,6.031385485800715e-15,-98.5Z" fill-rule="evenodd" id="p-type-root" style="stroke: #fff; opacity: 1;"></path><path d="M8.529667153919608e-15,-139.30003589374985A139.30003589374985,139.30003589374985,0,1,1,-128.84549782564613,-52.94655503487847L-91.10752523787095,-37.43886810562931A98.5,98.5,0,1,0,6.031385485800715e-15,-98.5Z" fill-rule="evenodd" style="fill: #0B1F65; stroke: #fff; opacity: 1;" id="p-type-data"></path><path d="M-128.84549782564613,-52.94655503487847A139.30003589374985,139.30003589374985,0,0,1,-4.506057289153159,-139.22713617577168L-3.1862636655752707,-98.44845211507103A98.5,98.5,0,0,0,-91.10752523787095,-37.43886810562931Z" fill-rule="evenodd" style="fill: #D7A449; stroke: #fff; opacity: 1;" id="p-type-value"></path><path d="M1.0446666101440332e-14,-170.6070045455344A170.6070045455344,170.6070045455344,0,0,1,170.02623908136326,-14.0651350454625L138.8258428779332,-11.484134674906866A139.30003589374985,139.30003589374985,0,0,0,8.529667153919608e-15,-139.30003589374985Z" fill-rule="evenodd" style="fill: #1DC690; stroke: #fff; opacity: 1;" id="p-type-logs"></path><path d="M170.02623908136326,-14.0651350454625A170.6070045455344,170.6070045455344,0,0,1,83.94796380220491,148.52437299468292L68.54322542034481,121.26964273459288A139.30003589374985,139.30003589374985,0,0,0,138.8258428779332,-11.484134674906866Z" fill-rule="evenodd" style="fill: #414552; stroke: #fff; opacity: 1;" id="p-type-ether"></path><path d="M83.94796380220491,148.52437299468292A170.6070045455344,170.6070045455344,0,0,1,-82.50846485072907,149.32884258567066L-67.36787944821575,121.9264894050947A139.30003589374985,139.30003589374985,0,0,0,68.54322542034481,121.26964273459288Z" fill-rule="evenodd" style="fill: #D7A449; stroke: #fff; opacity: 1;" id="p-type-tokenTransfers"></path><path d="M-157.80286266385625,-64.84602173681994A170.6070045455344,170.6070045455344,0,0,1,-93.83367229767306,-142.48505866627877L-76.61487260694273,-116.33856323430307A139.30003589374985,139.30003589374985,0,0,0,-128.84549782564613,-52.94655503487847Z" fill-rule="evenodd" style="fill: #414552; stroke: #fff; opacity: 1;" id="p-type-ether"></path><path d="M-93.83367229767306,-142.48505866627877A170.6070045455344,170.6070045455344,0,0,1,-11.031764847239529,-170.24996377196445L-9.007398279369752,-139.00851332287817A139.30003589374985,139.30003589374985,0,0,0,-76.61487260694273,-116.33856323430307Z" fill-rule="evenodd" style="fill: #D7A449; stroke: #fff; opacity: 1;" id="p-type-tokenTransfers"></path><path d="M1.206277097160143e-14,-197A197,197,0,0,1,3.186680613272339,-196.97422437128415L2.7597463648412197,-170.58468219626798A170.6070045455344,170.6070045455344,0,0,0,1.0446666101440332e-14,-170.6070045455344Z" fill-rule="evenodd" style="fill: #1DC690; stroke: #fff; opacity: 1;" id="p-type-logs"></path><path d="M3.186680613272339,-196.97422437128415A197,197,0,0,1,6.372527331150473,-196.89690423014207L5.5187705550869595,-170.51772098981473A170.6070045455344,170.6070045455344,0,0,0,2.7597463648412197,-170.58468219626798Z" fill-rule="evenodd" style="fill: #1DC690; stroke: #fff; opacity: 1;" id="p-type-logs"></path><path d="M6.372527331150473,-196.89690423014207A197,197,0,0,1,9.55670647645536,-196.76805980982502L8.276350585121612,-170.4061384486843A170.6070045455344,170.6070045455344,0,0,0,5.5187705550869595,-170.51772098981473Z" fill-rule="evenodd" style="fill: #1DC690; stroke: #fff; opacity: 1;" id="p-type-logs"></path><path d="M9.55670647645536,-196.76805980982502A197,197,0,0,1,12.738384808380717,-196.58772482653544L11.031764847239469,-170.24996377196447A170.6070045455344,170.6070045455344,0,0,0,8.276350585121612,-170.4061384486843Z" fill-rule="evenodd" style="fill: #1DC690; stroke: #fff; opacity: 1;" id="p-type-logs"></path><path d="M12.738384808380717,-196.58772482653544A197,197,0,0,1,15.916729740536937,-196.355946470604L13.784292300476283,-170.04923782768046A170.6070045455344,170.6070045455344,0,0,0,11.031764847239469,-170.24996377196447Z" fill-rule="evenodd" style="fill: #1DC690; stroke: #fff; opacity: 1;" id="p-type-logs"></path><path d="M15.916729740536937,-196.355946470604A197,197,0,0,1,19.09090955882344,-196.07278539414088L16.53321265929227,-169.80401314210044A170.6070045455344,170.6070045455344,0,0,0,13.784292300476283,-170.04923782768046Z" fill-rule="evenodd" style="fill: #1DC690; stroke: #fff; opacity: 1;" id="p-type-logs"></path><path d="M19.09090955882344,-196.07278539414088A197,197,0,0,1,22.26009363907308,-195.73831569516403L19.27780658205768,-169.51435388599035A170.6070045455344,170.6070045455344,0,0,0,16.53321265929227,-169.80401314210044Z" fill-rule="evenodd" style="fill: #1DC690; stroke: #fff; opacity: 1;" id="p-type-logs"></path><path d="M22.26009363907308,-195.73831569516403A197,197,0,0,1,25.42345266441083,-195.35262489820929L22.01735585929095,-169.1803358578217A170.6070045455344,170.6070045455344,0,0,0,19.27780658205768,-169.51435388599035Z" fill-rule="evenodd" style="fill: #1DC690; stroke: #fff; opacity: 1;" id="p-type-logs"></path><path d="M25.42345266441083,-195.35262489820929A197,197,0,0,1,28.58015884227089,-194.91581393142673L24.75114360160104,-168.80204646393634A170.6070045455344,170.6070045455344,0,0,0,22.01735585929095,-169.1803358578217Z" fill-rule="evenodd" style="fill: #1DC690; stroke: #fff; opacity: 1;" id="p-type-logs"></path><path d="M28.58015884227089,-194.91581393142673A197,197,0,0,1,31.72938612101458,-194.42799710016962L27.478454427284014,-168.37958469567405A170.6070045455344,170.6070045455344,0,0,0,24.75114360160104,-168.80204646393634Z" fill-rule="evenodd" style="fill: #1DC690; stroke: #fff; opacity: 1;" id="p-type-logs"></path><path d="M31.72938612101458,-194.42799710016962A197,197,0,0,1,34.87031040609297,-193.8893020570829L30.198574649525376,-167.9130611034682A170.6070045455344,170.6070045455344,0,0,0,27.478454427284014,-168.37958469567405Z" fill-rule="evenodd" style="fill: #1DC690; stroke: #fff; opacity: 1;" id="p-type-logs"></path><path d="M34.87031040609297,-193.8893020570829A197,197,0,0,1,38.002109775696894,-193.2998697686987L32.910792463158465,-167.4025977679167A170.6070045455344,170.6070045455344,0,0,0,30.198574649525376,-167.9130611034682Z" fill-rule="evenodd" style="fill: #1DC690; stroke: #fff; opacity: 1;" id="p-type-logs"></path><path d="M38.002109775696894,-193.2998697686987A197,197,0,0,1,41.123964695838936,-192.65985447854825L35.61439813093091,-166.84832826783594A170.6070045455344,170.6070045455344,0,0,0,32.910792463158465,-167.4025977679167Z" fill-rule="evenodd" style="fill: #1DC690; stroke: #fff; opacity: 1;" id="p-type-logs"></path><path d="M41.123964695838936,-192.65985447854825A197,197,0,0,1,44.235058234810126,-191.96942366679897L38.3086841692296,-166.25039764530553A170.6070045455344,170.6070045455344,0,0,0,35.61439813093091,-166.84832826783594Z" fill-rule="evenodd" style="fill: #1DC690; stroke: #fff; opacity: 1;" id="p-type-logs"></path><path d="M44.235058234810126,-191.96942366679897A197,197,0,0,1,47.33457627695615,-191.22875800642805L40.99294553321626,-165.60896236771356A170.6070045455344,170.6070045455344,0,0,0,38.3086841692296,-166.25039764530553Z" fill-rule="evenodd" style="fill: #1DC690; stroke: #fff; opacity: 1;" id="p-type-logs"></path><path d="M47.33457627695615,-191.22875800642805A197,197,0,0,1,50.42170773571601,-190.43805131594377L43.666479801324414,-164.92419028681184A170.6070045455344,170.6070045455344,0,0,0,40.99294553321626,-165.60896236771356Z" fill-rule="evenodd" style="fill: #1DC690; stroke: #fff; opacity: 1;" id="p-type-logs"></path><path d="M50.42170773571601,-190.43805131594377A197,197,0,0,1,53.49564476586862,-189.59751050866674L46.32858735907026,-164.19626059479245A170.6070045455344,170.6070045455344,0,0,0,43.666479801324414,-164.92419028681184Z" fill-rule="evenodd" style="fill: #1DC690; stroke: #fff; opacity: 1;" id="p-type-logs"></path><path d="M53.49564476586862,-189.59751050866674A197,197,0,0,1,56.55558297493084,-188.70735553858444L48.97857158212881,-163.4253637773962A170.6070045455344,170.6070045455344,0,0,0,46.32858735907026,-164.19626059479245Z" fill-rule="evenodd" style="fill: #1DC690; stroke: #fff; opacity: 1;" id="p-type-logs"></path><path d="M56.55558297493084,-188.70735553858444A197,197,0,0,1,59.600721633652284,-187.7678193427934L51.61573901862765,-162.61170156406618A170.6070045455344,170.6070045455344,0,0,0,48.97857158212881,-163.4253637773962Z" fill-rule="evenodd" style="fill: #1DC690; stroke: #fff; opacity: 1;" id="p-type-logs"></path><path d="M59.600721633652284,-187.7678193427934A197,197,0,0,1,62.630263885551145,-186.77914778054384L54.239399570610374,-161.7554868751588A170.6070045455344,170.6070045455344,0,0,0,51.61573901862765,-162.61170156406618Z" fill-rule="evenodd" style="fill: #1DC690; stroke: #fff; opacity: 1;" id="p-type-logs"></path><path d="M62.630263885551145,-186.77914778054384A197,197,0,0,1,65.64341695543688,-185.74159956890287L56.84886667462249,-160.85694376622664A170.6070045455344,170.6070045455344,0,0,0,54.239399570610374,-161.7554868751588Z" fill-rule="evenodd" style="fill: #1DC690; stroke: #fff; opacity: 1;" id="p-type-logs"></path><path d="M65.64341695543688,-185.74159956890287A197,197,0,0,1,68.63939235686496,-184.65544621505305L59.443457481372484,-159.916307369387A170.6070045455344,170.6070045455344,0,0,0,56.84886667462249,-160.85694376622664Z" fill-rule="evenodd" style="fill: #1DC690; stroke: #fff; opacity: 1;" id="p-type-logs"></path><path d="M68.63939235686496,-184.65544621505305A197,197,0,0,1,71.61740609846896,-183.52097194524384L62.0224930344207,-158.93382383179244A170.6070045455344,170.6070045455344,0,0,0,59.443457481372484,-159.916307369387Z" fill-rule="evenodd" style="fill: #1DC690; stroke: #fff; opacity: 1;" id="p-type-logs"></path><path d="M71.61740609846896,-183.52097194524384A197,197,0,0,1,74.57667888911678,-182.33847363041505L64.58529844784977,-157.9097502512184A170.6070045455344,170.6070045455344,0,0,0,62.0224930344207,-158.93382383179244Z" fill-rule="evenodd" style="fill: #1DC690; stroke: #fff; opacity: 1;" id="p-type-logs"></path><path d="M74.57667888911678,-182.33847363041505A197,197,0,0,1,77.5164363418366,-181.108260708511L67.13120308286976,-156.84435460878564A170.6070045455344,170.6070045455344,0,0,0,64.58529844784977,-157.9097502512184Z" fill-rule="evenodd" style="fill: #1DC690; stroke: #fff; opacity: 1;" id="p-type-logs"></path><path d="M77.5164363418366,-181.108260708511A197,197,0,0,1,80.4359091764597,-179.83065510350653L69.65954072331195,-155.73791569883437A170.6070045455344,170.6070045455344,0,0,0,67.13120308286976,-156.84435460878564Z" fill-rule="evenodd" style="fill: #1DC690; stroke: #fff; opacity: 1;" id="p-type-logs"></path><path d="M80.4359091764597,-179.83065510350653A197,197,0,0,1,83.33433342092697,-178.50599114116528L72.16964974996532,-154.59072305596908A170.6070045455344,170.6070045455344,0,0,0,69.65954072331195,-155.73791569883437Z" fill-rule="evenodd" style="fill: #1DC690; stroke: #fff; opacity: 1;" id="p-type-logs"></path><path d="M83.33433342092697,-178.50599114116528A197,197,0,0,1,86.21095061120602,-177.13461546155284L74.66087331370998,-153.40307687929257A170.6070045455344,170.6070045455344,0,0,0,72.16964974996532,-154.59072305596908Z" fill-rule="evenodd" style="fill: #1DC690; stroke: #fff; opacity: 1;" id="p-type-logs"></path><path d="M86.21095061120602,-177.13461546155284A197,197,0,0,1,89.06500798976732,-175.71688692832765L77.1325595074025,-152.17528795384948A170.6070045455344,170.6070045455344,0,0,0,74.66087331370998,-153.40307687929257Z" fill-rule="evenodd" style="fill: #1DC690; stroke: #fff; opacity: 1;" id="p-type-logs"></path><path d="M89.06500798976732,-175.71688692832765A197,197,0,0,1,91.89575870256708,-174.2531765348327L79.58406153646798,-150.90767756929955A170.6070045455344,170.6070045455344,0,0,0,77.1325595074025,-152.17528795384948Z" fill-rule="evenodd" style="fill: #1DC690; stroke: #fff; opacity: 1;" id="p-type-logs"></path><path d="M91.89575870256708,-174.2531765348327A197,197,0,0,1,94.7024619944848,-172.74386730701372L82.01473788815416,-149.60057743584204A170.6070045455344,170.6070045455344,0,0,0,79.58406153646798,-150.90767756929955Z" fill-rule="evenodd" style="fill: #1DC690; stroke: #fff; opacity: 1;" id="p-type-logs"></path><path d="M94.7024619944848,-172.74386730701372A197,197,0,0,1,97.48438340316554,-171.18935420318817L84.42395249940346,-148.25432959741332A170.6070045455344,170.6070045455344,0,0,0,82.01473788815416,-149.60057743584204Z" fill-rule="evenodd" style="fill: #1DC690; stroke: #fff; opacity: 1;" id="p-type-logs"></path><path d="M97.48438340316554,-171.18935420318817A197,197,0,0,1,100.24079495121481,-169.59004401069217L86.81107492329892,-146.8692863421804A170.6070045455344,170.6070045455344,0,0,0,84.42395249940346,-148.25432959741332Z" fill-rule="evenodd" style="fill: #1DC690; stroke: #fff; opacity: 1;" id="p-type-logs"></path><path d="M100.24079495121481,-169.59004401069217A197,197,0,0,1,102.97097533669717,-167.94635523943145L89.17548049404064,-145.4458101103534A170.6070045455344,170.6070045455344,0,0,0,86.81107492329892,-146.8692863421804Z" fill-rule="evenodd" style="fill: #1DC690; stroke: #fff; opacity: 1;" id="p-type-logs"></path><path d="M102.97097533669717,-167.94635523943145A197,197,0,0,1,105.67421012188731,-166.2587180123653L91.51655049040906,-143.9842733993418A170.6070045455344,170.6070045455344,0,0,0,89.17548049404064,-145.4458101103534Z" fill-rule="evenodd" style="fill: #1DC690; stroke: #fff; opacity: 1;" id="p-type-logs"></path><path d="M105.67421012188731,-166.2587180123653A197,197,0,0,1,108.34979192022521,-164.52757395295143L93.83367229767295,-142.48505866627883A170.6070045455344,170.6070045455344,0,0,0,91.51655049040906,-143.9842733993418Z" fill-rule="evenodd" style="fill: #1DC690; stroke: #fff; opacity: 1;" id="p-type-logs"></path><path d="M108.34979192022521,-164.52757395295143A197,197,0,0,1,110.99702058142636,-162.75337606958087L96.1262395678994,-140.94855822793937A170.6070045455344,170.6070045455344,0,0,0,93.83367229767295,-142.48505866627883Z" fill-rule="evenodd" style="fill: #1DC690; stroke: #fff; opacity: 1;" id="p-type-logs"></path><path d="M110.99702058142636,-162.75337606958087A197,197,0,0,1,113.6152033746978,-160.93658863703448L98.39365237862378,-139.37517415807787A170.6070045455344,170.6070045455344,0,0,0,96.1262395678994,-140.94855822793937Z" fill-rule="evenodd" style="fill: #1DC690; stroke: #fff; opacity: 1;" id="p-type-logs"></path><path d="M113.6152033746978,-160.93658863703448A197,197,0,0,1,116.20365517001333,-159.07768707499062L100.63531738983846,-137.76531818221332A170.6070045455344,170.6070045455344,0,0,0,98.39365237862378,-139.37517415807787Z" fill-rule="evenodd" style="fill: #1DC690; stroke: #fff; opacity: 1;" id="p-type-logs"></path><path d="M116.20365517001333,-159.07768707499062A197,197,0,0,1,118.76169861739905,-157.1771578236166L102.85064799925881,-136.119411569888A170.6070045455344,170.6070045455344,0,0,0,100.63531738983846,-137.76531818221332Z" fill-rule="evenodd" style="fill: #1DC690; stroke: #fff; opacity: 1;" id="p-type-logs"></path><path d="M118.76169861739905,-157.1771578236166A197,197,0,0,1,121.28866432418349,-155.23549821627637L105.03906449582624,-134.43788502442925A170.6070045455344,170.6070045455344,0,0,0,102.85064799925881,-136.119411569888Z" fill-rule="evenodd" style="fill: #1DC690; stroke: #fff; opacity: 1;" id="p-type-logs"></path><path d="M121.28866432418349,-155.23549821627637A197,197,0,0,1,123.78389103016528,-153.2532163493875L107.19999421140784,-132.72117857024224A170.6070045455344,170.6070045455344,0,0,0,105.03906449582624,-134.43788502442925Z" fill-rule="evenodd" style="fill: #1DC690; stroke: #fff; opacity: 1;" id="p-type-logs"></path><path d="M123.78389103016528,-153.2532163493875A197,197,0,0,1,126.24672578065271,-151.23083094946173L109.33287167065306,-130.96974143766377A170.6070045455344,170.6070045455344,0,0,0,107.19999421140784,-132.72117857024224Z" fill-rule="evenodd" style="fill: #1DC690; stroke: #fff; opacity: 1;" id="p-type-logs"></path><path d="M126.24672578065271,-151.23083094946173A197,197,0,0,1,128.67652409732986,-149.16887123736402L111.43713873896814,-129.1840319454071A170.6070045455344,170.6070045455344,0,0,0,109.33287167065306,-130.96974143766377Z" fill-rule="evenodd" style="fill: #1DC690; stroke: #fff; opacity: 1;" id="p-type-logs"></path><path d="M128.67652409732986,-149.16887123736402A197,197,0,0,1,131.0726501469047,-147.0678767898249L113.5122447685696,-127.36451738062819A170.6070045455344,170.6070045455344,0,0,0,111.43713873896814,-129.1840319454071Z" fill-rule="evenodd" style="fill: #1DC690; stroke: #fff; opacity: 1;" id="p-type-logs"></path><path d="M131.0726501469047,-147.0678767898249A197,197,0,0,1,133.43447690749488,-144.9283973982436L115.55764674257861,-125.51167387664547A170.6070045455344,170.6070045455344,0,0,0,113.5122447685696,-127.36451738062819Z" fill-rule="evenodd" style="fill: #1DC690; stroke: #fff; opacity: 1;" id="p-type-logs"></path><path d="M196.3293898058495,-16.241019009372426A197,197,0,0,1,196.33049290371426,16.22767870598274L170.027194392137,14.053582003832839A170.6070045455344,170.6070045455344,0,0,0,170.02623908136326,-14.0651350454625Z" fill-rule="evenodd" style="fill: #414552; stroke: #fff; opacity: 1;" id="p-type-ether"></path><path d="M196.33049290371426,16.22767870598274A197,197,0,0,1,193.33551558277068,37.82034392154883L167.4334679484416,32.75337861592566A170.6070045455344,170.6070045455344,0,0,0,170.027194392137,14.053582003832839Z" fill-rule="evenodd" style="fill: #414552; stroke: #fff; opacity: 1;" id="p-type-ether"></path><path d="M193.33551558277068,37.82034392154883A197,197,0,0,1,189.64759887542374,53.31780416320968L164.2396383928381,46.17457287934328A170.6070045455344,170.6070045455344,0,0,0,167.4334679484416,32.75337861592566Z" fill-rule="evenodd" style="fill: #414552; stroke: #fff; opacity: 1;" id="p-type-ether"></path><path d="M189.64759887542374,53.31780416320968A197,197,0,0,1,185.80308261505647,65.46918733833881L160.91018964609768,56.69797940012393A170.6070045455344,170.6070045455344,0,0,0,164.2396383928381,46.17457287934328Z" fill-rule="evenodd" style="fill: #414552; stroke: #fff; opacity: 1;" id="p-type-ether"></path><path d="M185.80308261505647,65.46918733833881A197,197,0,0,1,184.15992317060284,69.95800667398733L159.4871718247325,60.585410977794325A170.6070045455344,170.6070045455344,0,0,0,160.91018964609768,56.69797940012393Z" fill-rule="evenodd" style="fill: #414552; stroke: #fff; opacity: 1;" id="p-type-ether"></path><path d="M184.15992317060284,69.95800667398733A197,197,0,0,1,182.42100865698248,74.37456285968425L157.98122768092784,64.41026083184916A170.6070045455344,170.6070045455344,0,0,0,159.4871718247325,60.585410977794325Z" fill-rule="evenodd" style="fill: #414552; stroke: #fff; opacity: 1;" id="p-type-ether"></path><path d="M182.42100865698248,74.37456285968425A197,197,0,0,1,181.1938442528382,77.31617427730247L156.9184721323189,66.95777104756888A170.6070045455344,170.6070045455344,0,0,0,157.98122768092784,64.41026083184916Z" fill-rule="evenodd" style="fill: #414552; stroke: #fff; opacity: 1;" id="p-type-ether"></path><path d="M181.1938442528382,77.31617427730247A197,197,0,0,1,179.91946689793,80.23705771752024L155.81482896896074,69.48733030829078A170.6070045455344,170.6070045455344,0,0,0,156.9184721323189,66.95777104756888Z" fill-rule="evenodd" style="fill: #414552; stroke: #fff; opacity: 1;" id="p-type-ether"></path><path d="M179.91946689793,80.23705771752024A197,197,0,0,1,178.59800794528053,83.13694460333211L154.67041194590794,71.9987060195052A170.6070045455344,170.6070045455344,0,0,0,155.81482896896074,69.48733030829078Z" fill-rule="evenodd" style="fill: #414552; stroke: #fff; opacity: 1;" id="p-type-ether"></path><path d="M96.93475899824793,171.50117345940112A197,197,0,0,1,94.14786550091733,173.04675501615503L81.53444323587495,149.8628858864525A170.6070045455344,170.6070045455344,0,0,0,83.94796380220491,148.52437299468292Z" fill-rule="evenodd" style="fill: #D7A449; stroke: #fff; opacity: 1;" id="p-type-tokenTransfers"></path><path d="M94.14786550091733,173.04675501615503A197,197,0,0,1,91.3363352479975,174.54705343678938L79.09958661333789,151.16218243197952A170.6070045455344,170.6070045455344,0,0,0,81.53444323587495,149.8628858864525Z" fill-rule="evenodd" style="fill: #D7A449; stroke: #fff; opacity: 1;" id="p-type-tokenTransfers"></path><path d="M91.3363352479975,174.54705343678938A197,197,0,0,1,88.50090396496987,176.0016761209483L76.64403109155086,152.42192262938224A170.6070045455344,170.6070045455344,0,0,0,79.09958661333789,151.16218243197952Z" fill-rule="evenodd" style="fill: #D7A449; stroke: #fff; opacity: 1;" id="p-type-tokenTransfers"></path><path d="M88.50090396496987,176.0016761209483A197,197,0,0,1,85.64231363177353,177.41024242077157L74.1684192439902,153.64177682794383A170.6070045455344,170.6070045455344,0,0,0,76.64403109155086,152.42192262938224Z" fill-rule="evenodd" style="fill: #D7A449; stroke: #fff; opacity: 1;" id="p-type-tokenTransfers"></path><path d="M85.64231363177353,177.41024242077157A197,197,0,0,1,82.7613122886428,178.77238374050322L71.67339889250191,154.8214258143759A170.6070045455344,170.6070045455344,0,0,0,74.1684192439902,153.64177682794383Z" fill-rule="evenodd" style="fill: #D7A449; stroke: #fff; opacity: 1;" id="p-type-tokenTransfers"></path><path d="M82.7613122886428,178.77238374050322A197,197,0,0,1,79.85865384035888,180.08774363294614L69.15962293777852,155.96056089635064A170.6070045455344,170.6070045455344,0,0,0,71.67339889250191,154.8214258143759Z" fill-rule="evenodd" style="fill: #D7A449; stroke: #fff; opacity: 1;" id="p-type-tokenTransfers"></path><path d="M79.85865384035888,180.08774363294614A197,197,0,0,1,76.935097858967,181.3559778927377L66.6277491885072,157.0588839832799A170.6070045455344,170.6070045455344,0,0,0,69.15962293777852,155.96056089635064Z" fill-rule="evenodd" style="fill: #D7A449; stroke: #fff; opacity: 1;" id="p-type-tokenTransfers"></path><path d="M76.935097858967,181.3559778927377A197,197,0,0,1,73.99140938501034,182.57675464642207L64.07844018923328,158.11610766432005A170.6070045455344,170.6070045455344,0,0,0,66.6277491885072,157.0588839832799Z" fill-rule="evenodd" style="fill: #D7A449; stroke: #fff; opacity: 1;" id="p-type-tokenTransfers"></path><path d="M73.99140938501034,182.57675464642207A197,197,0,0,1,71.02835872733317,183.74975443929517L61.51236304698466,159.13195528358204A170.6070045455344,170.6070045455344,0,0,0,64.07844018923328,158.11610766432005Z" fill-rule="evenodd" style="fill: #D7A449; stroke: #fff; opacity: 1;" id="p-type-tokenTransfers"></path><path d="M71.02835872733317,183.74975443929517A197,197,0,0,1,68.04672126150523,184.8746703190002L58.930189256702214,160.1061610125271A170.6070045455344,170.6070045455344,0,0,0,61.51236304698466,159.13195528358204Z" fill-rule="evenodd" style="fill: #D7A449; stroke: #fff; opacity: 1;" id="p-type-tokenTransfers"></path><path d="M68.04672126150523,184.8746703190002A197,197,0,0,1,65.04727722692027,185.95120791585134L56.33259452552194,161.03846991952926A170.6070045455344,170.6070045455344,0,0,0,58.930189256702214,160.1061610125271Z" fill-rule="evenodd" style="fill: #D7A449; stroke: #fff; opacity: 1;" id="p-type-tokenTransfers"></path><path d="M65.04727722692027,185.95120791585134A197,197,0,0,1,62.03081152262183,186.97908551986492L53.72025859595498,161.9286380365861A170.6070045455344,170.6070045455344,0,0,0,56.33259452552194,161.03846991952926Z" fill-rule="evenodd" style="fill: #D7A449; stroke: #fff; opacity: 1;" id="p-type-tokenTransfers"></path><path d="M62.03081152262183,186.97908551986492A197,197,0,0,1,58.99811350190969,187.95803415447762L51.09386506801148,162.7764324231608A170.6070045455344,170.6070045455344,0,0,0,53.72025859595498,161.9286380365861Z" fill-rule="evenodd" style="fill: #D7A449; stroke: #fff; opacity: 1;" id="p-type-tokenTransfers"></path><path d="M58.99811350190969,187.95803415447762A197,197,0,0,1,55.9499767657807,188.8877976469327L48.45410122031519,163.58163122713825A170.6070045455344,170.6070045455344,0,0,0,51.09386506801148,162.7764324231608Z" fill-rule="evenodd" style="fill: #D7A449; stroke: #fff; opacity: 1;" id="p-type-tokenTransfers"></path><path d="M55.9499767657807,188.8877976469327A197,197,0,0,1,52.88719895525805,189.76813269531573L45.801657830255294,164.34402374287973A170.6070045455344,170.6070045455344,0,0,0,48.45410122031519,163.58163122713825Z" fill-rule="evenodd" style="fill: #D7A449; stroke: #fff; opacity: 1;" id="p-type-tokenTransfers"></path><path d="M52.88719895525805,189.76813269531573A197,197,0,0,1,49.81058154266341,190.59880893222203L43.137228993222784,165.06341046636064A170.6070045455344,170.6070045455344,0,0,0,45.801657830255294,164.34402374287973Z" fill-rule="evenodd" style="fill: #D7A449; stroke: #fff; opacity: 1;" id="p-type-tokenTransfers"></path><path d="M49.81058154266341,190.59880893222203A197,197,0,0,1,46.72092962188639,191.37960898503982L40.461511940978504,165.7396031473771A170.6070045455344,170.6070045455344,0,0,0,43.137228993222784,165.06341046636064Z" fill-rule="evenodd" style="fill: #D7A449; stroke: #fff; opacity: 1;" id="p-type-tokenTransfers"></path><path d="M46.72092962188639,191.37960898503982A197,197,0,0,1,43.619051697706404,192.11032853283245L37.77520685920049,166.37242483880738A170.6070045455344,170.6070045455344,0,0,0,40.461511940978504,165.7396031473771Z" fill-rule="evenodd" style="fill: #D7A449; stroke: #fff; opacity: 1;" id="p-type-tokenTransfers"></path><path d="M43.619051697706404,192.11032853283245A197,197,0,0,1,40.505759474221875,192.79077635980534L35.07901670425835,166.96170994291583A170.6070045455344,170.6070045455344,0,0,0,37.77520685920049,166.37242483880738Z" fill-rule="evenodd" style="fill: #D7A449; stroke: #fff; opacity: 1;" id="p-type-tokenTransfers"></path><path d="M40.505759474221875,192.79077635980534A197,197,0,0,1,37.381867642442316,193.42077440534388L32.37364701926254,167.50730425468674A170.6070045455344,170.6070045455344,0,0,0,35.07901670425835,166.96170994291583Z" fill-rule="evenodd" style="fill: #D7A449; stroke: #fff; opacity: 1;" id="p-type-tokenTransfers"></path><path d="M37.381867642442316,193.42077440534388A197,197,0,0,1,34.24819366709873,194.00015781060824L29.65980574943683,168.0090650021768A170.6070045455344,170.6070045455344,0,0,0,32.37364701926254,167.50730425468674Z" fill-rule="evenodd" style="fill: #D7A449; stroke: #fff; opacity: 1;" id="p-type-tokenTransfers"></path><path d="M34.24819366709873,194.00015781060824A197,197,0,0,1,31.10555757272823,194.5287749616742L26.93820305686207,168.4668608838761A170.6070045455344,170.6070045455344,0,0,0,29.65980574943683,168.0090650021768Z" fill-rule="evenodd" style="fill: #D7A449; stroke: #fff; opacity: 1;" id="p-type-tokenTransfers"></path><path d="M31.10555757272823,194.5287749616742A197,197,0,0,1,27.954781729088758,195.00648752920762L24.209551134639938,168.88057210306712A170.6070045455344,170.6070045455344,0,0,0,26.93820305686207,168.4668608838761Z" fill-rule="evenodd" style="fill: #D7A449; stroke: #fff; opacity: 1;" id="p-type-tokenTransfers"></path><path d="M27.954781729088758,195.00648752920762A197,197,0,0,1,24.79669063596013,195.4331705046625L21.47456402052518,169.2500903991734A170.6070045455344,170.6070045455344,0,0,0,24.209551134639938,168.88057210306712Z" fill-rule="evenodd" style="fill: #D7A449; stroke: #fff; opacity: 1;" id="p-type-tokenTransfers"></path><path d="M24.79669063596013,195.4331705046625A197,197,0,0,1,21.63211070738771,195.80871223299366L18.73395741007512,169.57531907608927A170.6070045455344,170.6070045455344,0,0,0,21.47456402052518,169.2500903991734Z" fill-rule="evenodd" style="fill: #D7A449; stroke: #fff; opacity: 1;" id="p-type-tokenTransfers"></path><path d="M21.63211070738771,195.80871223299366A197,197,0,0,1,18.4618700554251,196.13301444187462L15.988448469365359,169.8561730274836A170.6070045455344,170.6070045455344,0,0,0,18.73395741007512,169.57531907608927Z" fill-rule="evenodd" style="fill: #D7A449; stroke: #fff; opacity: 1;" id="p-type-tokenTransfers"></path><path d="M18.4618700554251,196.13301444187462A197,197,0,0,1,15.286798273432552,196.40599226741372L13.238755647320685,170.0925787590703A170.6070045455344,170.6070045455344,0,0,0,15.988448469365359,169.8561730274836Z" fill-rule="evenodd" style="fill: #D7A449; stroke: #fff; opacity: 1;" id="p-type-tokenTransfers"></path><path d="M15.286798273432552,196.40599226741372A197,197,0,0,1,12.107726218987718,196.62757427636146L10.485598487710273,170.28447440784063A170.6070045455344,170.6070045455344,0,0,0,13.238755647320685,170.0925787590703Z" fill-rule="evenodd" style="fill: #D7A449; stroke: #fff; opacity: 1;" id="p-type-tokenTransfers"></path><path d="M12.107726218987718,196.62757427636146A197,197,0,0,1,8.92548579646559,196.79770248480315L7.729697440856386,170.43180975825146A170.6070045455344,170.6070045455344,0,0,0,10.485598487710273,170.28447440784063Z" fill-rule="evenodd" style="fill: #D7A449; stroke: #fff; opacity: 1;" id="p-type-tokenTransfers"></path><path d="M8.92548579646559,196.79770248480315A197,197,0,0,1,5.740909739344496,196.91633237333235L4.971773675105833,170.53454625536588A170.6070045455344,170.6070045455344,0,0,0,7.729697440856386,170.43180975825146Z" fill-rule="evenodd" style="fill: #D7A449; stroke: #fff; opacity: 1;" id="p-type-tokenTransfers"></path><path d="M5.740909739344496,196.91633237333235A197,197,0,0,1,2.554831392295153,196.98343289870076L2.2125488881135693,170.5926570149422A170.6070045455344,170.6070045455344,0,0,0,4.971773675105833,170.53454625536588Z" fill-rule="evenodd" style="fill: #D7A449; stroke: #fff; opacity: 1;" id="p-type-tokenTransfers"></path></g></svg>