<svg xmlns="http://www.w3.org/2000/svg" width="400" height="400" id="block-7908191"><g id="burst-container" transform="translate(200,200)"><circle r="197" style="fill: #f9f9f9; stroke: #f9f9f9; stroke-width: 3; opacity: 1;" id="circle-base"></circle><path display="none" d="M6.031385485800715e-15,-98.5A98.5,98.5,0,1,1,-6.031385485800715e-15,98.5A98.5,98.5,0,1,1,6.031385485800715e-15,-98.5Z" fill-rule="evenodd" id="p-type-root" style="stroke: #fff; opacity: 1;"></path><path d="M8.529667153919608e-15,-139.30003589374985A139.30003589374985,139.30003589374985,0,1,1,-127.95076896340828,-55.07359368765138L-90.47485639205924,-38.94291156085093A98.5,98.5,0,1,0,6.031385485800715e-15,-98.5Z" fill-rule="evenodd" style="fill: #0B1F65; stroke: #fff; opacity: 1;" id="p-type-data"></path><path d="M-127.95076896340828,-55.07359368765138A139.30003589374985,139.30003589374985,0,0,1,-3.5255409377687514,-139.25541483581927L-2.492933904447064,-98.46844814735357A98.5,98.5,0,0,0,-90.47485639205924,-38.94291156085093Z" fill-rule="evenodd" style="fill: #D7A449; stroke: #fff; opacity: 1;" id="p-type-value"></path><path d="M1.0446666101440332e-14,-170.6070045455344A170.6070045455344,170.6070045455344,0,0,1,162.8723441152352,50.78729686061673L132.98471209777358,41.46765424125499A139.30003589374985,139.30003589374985,0,0,0,8.529667153919608e-15,-139.30003589374985Z" fill-rule="evenodd" style="fill: #1DC690; stroke: #fff; opacity: 1;" id="p-type-logs"></path><path d="M162.8723441152352,50.78729686061673A170.6070045455344,170.6070045455344,0,0,1,-50.55990609945751,162.94307562831273L-41.281990462233935,133.0424641363652A139.30003589374985,139.30003589374985,0,0,0,132.98471209777358,41.46765424125499Z" fill-rule="evenodd" style="fill: #D7A449; stroke: #fff; opacity: 1;" id="p-type-tokenTransfers"></path><path d="M-50.55990609945751,162.94307562831273A170.6070045455344,170.6070045455344,0,0,1,-109.77958219018007,130.5955333621694L-89.63465351395631,106.63080647464407A139.30003589374985,139.30003589374985,0,0,0,-41.281990462233935,133.0424641363652Z" fill-rule="evenodd" style="fill: #414552; stroke: #fff; opacity: 1;" id="p-type-ether"></path><path d="M-156.7070480785444,-67.45110141805523A170.6070045455344,170.6070045455344,0,0,1,-61.21973856644299,-159.2447600703281L-49.98570722478995,-130.02280212807898A139.30003589374985,139.30003589374985,0,0,0,-127.95076896340828,-55.07359368765138Z" fill-rule="evenodd" style="fill: #D7A449; stroke: #fff; opacity: 1;" id="p-type-tokenTransfers"></path><path d="M-61.21973856644299,-159.2447600703281A170.6070045455344,170.6070045455344,0,0,1,-8.63301012377762,-170.38844190907653L-7.048823249178871,-139.12158024836344A139.30003589374985,139.30003589374985,0,0,0,-49.98570722478995,-130.02280212807898Z" fill-rule="evenodd" style="fill: #414552; stroke: #fff; opacity: 1;" id="p-type-ether"></path><path d="M1.206277097160143e-14,-197A197,197,0,0,1,2.4931335646826653,-196.98422344195146L2.159117002042842,-170.59334164548008A170.6070045455344,170.6070045455344,0,0,0,1.0446666101440332e-14,-170.6070045455344Z" fill-rule="evenodd" style="fill: #1DC690; stroke: #fff; opacity: 1;" id="p-type-logs"></path><path d="M2.4931335646826653,-196.98422344195146A197,197,0,0,1,4.985867808894148,-196.93689629470714L4.317888182413388,-170.55235513367785A170.6070045455344,170.6070045455344,0,0,0,2.159117002042842,-170.59334164548008Z" fill-rule="evenodd" style="fill: #1DC690; stroke: #fff; opacity: 1;" id="p-type-logs"></path><path d="M4.985867808894148,-196.93689629470714A197,197,0,0,1,7.477803476121823,-196.85802613856643L6.47596777482908,-170.48405157485956A170.6070045455344,170.6070045455344,0,0,0,4.317888182413388,-170.55235513367785Z" fill-rule="evenodd" style="fill: #1DC690; stroke: #fff; opacity: 1;" id="p-type-logs"></path><path d="M7.477803476121823,-196.85802613856643A197,197,0,0,1,9.968541437759434,-196.74762560601252L8.633010123777524,-170.38844190907653A170.6070045455344,170.6070045455344,0,0,0,6.47596777482908,-170.48405157485956Z" fill-rule="evenodd" style="fill: #1DC690; stroke: #fff; opacity: 1;" id="p-type-logs"></path><path d="M9.968541437759434,-196.74762560601252A197,197,0,0,1,12.45768275703514,-196.60571237968918L10.788669739879795,-170.26554144994753A170.6070045455344,170.6070045455344,0,0,0,8.633010123777524,-170.38844190907653Z" fill-rule="evenodd" style="fill: #1DC690; stroke: #fff; opacity: 1;" id="p-type-logs"></path><path d="M12.45768275703514,-196.60571237968918A197,197,0,0,1,14.944828752908135,-196.43230918956854L12.942601355226556,-170.11536988220578A170.6070045455344,170.6070045455344,0,0,0,10.788669739879795,-170.26554144994753Z" fill-rule="evenodd" style="fill: #1DC690; stroke: #fff; opacity: 1;" id="p-type-logs"></path><path d="M14.944828752908135,-196.43230918956854A197,197,0,0,1,17.429581063924783,-196.22744380931042L15.094459978679067,-169.9379512585463A170.6070045455344,170.6070045455344,0,0,0,12.942601355226556,-170.11536988220578Z" fill-rule="evenodd" style="fill: #1DC690; stroke: #fff; opacity: 1;" id="p-type-logs"></path><path d="M17.429581063924783,-196.22744380931042A197,197,0,0,1,19.911541712023535,-195.99114905181392L17.243900951125873,-169.73331399577324A170.6070045455344,170.6070045455344,0,0,0,15.094459978679067,-169.9379512585463Z" fill-rule="evenodd" style="fill: #1DC690; stroke: #fff; opacity: 1;" id="p-type-logs"></path><path d="M19.911541712023535,-195.99114905181392A197,197,0,0,1,22.390313166278062,-195.72346276396195L19.390580000685993,-169.50149087024866A170.6070045455344,170.6070045455344,0,0,0,17.243900951125873,-169.73331399577324Z" fill-rule="evenodd" style="fill: #1DC690; stroke: #fff; opacity: 1;" id="p-type-logs"></path><path d="M22.390313166278062,-195.72346276396195A197,197,0,0,1,24.865498406569166,-195.4244278205591L21.534153297850377,-169.24251901264256A170.6070045455344,170.6070045455344,0,0,0,19.390580000685993,-169.50149087024866Z" fill-rule="evenodd" style="fill: #1DC690; stroke: #fff; opacity: 1;" id="p-type-logs"></path><path d="M24.865498406569166,-195.4244278205591A197,197,0,0,1,27.336700987174854,-195.09409211746467L23.674277510552567,-168.95643990198582A170.6070045455344,170.6070045455344,0,0,0,21.534153297850377,-169.24251901264256Z" fill-rule="evenodd" style="fill: #1DC690; stroke: #fff; opacity: 1;" id="p-type-logs"></path><path d="M27.336700987174854,-195.09409211746467A197,197,0,0,1,29.80352510026802,-194.73250856392133L25.81060985915926,-168.64329935902663A170.6070045455344,170.6070045455344,0,0,0,23.674277510552567,-168.95643990198582Z" fill-rule="evenodd" style="fill: #1DC690; stroke: #fff; opacity: 1;" id="p-type-logs"></path><path d="M29.80352510026802,-194.73250856392133A197,197,0,0,1,32.26557563931253,-194.33973507408052L27.942808171372977,-168.3031475388914A170.6070045455344,170.6070045455344,0,0,0,25.81060985915926,-168.64329935902663Z" fill-rule="evenodd" style="fill: #1DC690; stroke: #fff; opacity: 1;" id="p-type-logs"></path><path d="M32.26557563931253,-194.33973507408052A197,197,0,0,1,34.72245826234644,-193.91583455772664L30.070530937036892,-167.93603892305163A170.6070045455344,170.6070045455344,0,0,0,27.942808171372977,-168.3031475388914Z" fill-rule="evenodd" style="fill: #1DC690; stroke: #fff; opacity: 1;" id="p-type-logs"></path><path d="M34.72245826234644,-193.91583455772664A197,197,0,0,1,37.173779455143105,-193.46087491020086L32.193437362833976,-167.54203231059748A170.6070045455344,170.6070045455344,0,0,0,30.070530937036892,-167.93603892305163Z" fill-rule="evenodd" style="fill: #1DC690; stroke: #fff; opacity: 1;" id="p-type-logs"></path><path d="M37.173779455143105,-193.46087491020086A197,197,0,0,1,39.61914659423974,-192.97492900152636L34.311187426871335,-167.12119080882024A170.6070045455344,170.6070045455344,0,0,0,32.193437362833976,-167.54203231059748Z" fill-rule="evenodd" style="fill: #1DC690; stroke: #fff; opacity: 1;" id="p-type-logs"></path><path d="M39.61914659423974,-192.97492900152636A197,197,0,0,1,42.058168009822836,-192.4580746647371L36.42344193314058,-166.67358182310457A170.6070045455344,170.6070045455344,0,0,0,34.311187426871335,-167.12119080882024Z" fill-rule="evenodd" style="fill: #1DC690; stroke: #fff; opacity: 1;" id="p-type-logs"></path><path d="M42.058168009822836,-192.4580746647371A197,197,0,0,1,44.49045304846159,-191.91039468341114L38.52986256584655,-166.1992770461321A170.6070045455344,170.6070045455344,0,0,0,36.42344193314058,-166.67358182310457Z" fill-rule="evenodd" style="fill: #1DC690; stroke: #fff; opacity: 1;" id="p-type-logs"></path><path d="M44.49045304846159,-191.91039468341114A197,197,0,0,1,46.91561213567774,-191.33197677841162L40.63011194359442,-165.69835244639876A170.6070045455344,170.6070045455344,0,0,0,38.52986256584655,-166.1992770461321Z" fill-rule="evenodd" style="fill: #1DC690; stroke: #fff; opacity: 1;" id="p-type-logs"></path><path d="M46.91561213567774,-191.33197677841162A197,197,0,0,1,49.333256838343175,-190.7229135938366L42.72385367342756,-165.17088825604696A170.6070045455344,170.6070045455344,0,0,0,40.63011194359442,-165.69835244639876Z" fill-rule="evenodd" style="fill: #1DC690; stroke: #fff; opacity: 1;" id="p-type-logs"></path><path d="M49.333256838343175,-190.7229135938366A197,197,0,0,1,51.74299992689459,-190.08330268218035L44.81075240470707,-164.6169689580149A170.6070045455344,170.6070045455344,0,0,0,42.72385367342756,-165.17088825604696Z" fill-rule="evenodd" style="fill: #1DC690; stroke: #fff; opacity: 1;" id="p-type-logs"></path><path d="M51.74299992689459,-190.08330268218035A197,197,0,0,1,54.14445543735507,-189.41324648870858L46.89047388282397,-164.03668327250523A170.6070045455344,170.6070045455344,0,0,0,44.81075240470707,-164.6169689580149Z" fill-rule="evenodd" style="fill: #1DC690; stroke: #fff; opacity: 1;" id="p-type-logs"></path><path d="M54.14445543735507,-189.41324648870858A197,197,0,0,1,56.537238733153515,-188.71285233505006L48.96268500273647,-163.43012414277487A170.6070045455344,170.6070045455344,0,0,0,46.89047388282397,-164.03668327250523Z" fill-rule="evenodd" style="fill: #1DC690; stroke: #fff; opacity: 1;" id="p-type-logs"></path><path d="M56.537238733153515,-188.71285233505006A197,197,0,0,1,58.920966566730804,-187.98223240200704L51.027053862322454,-162.79738872024834A170.6070045455344,170.6070045455344,0,0,0,48.96268500273647,-163.43012414277487Z" fill-rule="evenodd" style="fill: #1DC690; stroke: #fff; opacity: 1;" id="p-type-logs"></path><path d="M58.920966566730804,-187.98223240200704A197,197,0,0,1,61.295257140924214,-187.2215037115875L53.08324981553989,-162.13857834895734A170.6070045455344,170.6070045455344,0,0,0,51.027053862322454,-162.79738872024834Z" fill-rule="evenodd" style="fill: #1DC690; stroke: #fff; opacity: 1;" id="p-type-logs"></path><path d="M61.295257140924214,-187.2215037115875A197,197,0,0,1,63.65973017011875,-186.43078810826196L55.1309435253855,-161.4537985493087A170.6070045455344,170.6070045455344,0,0,0,53.08324981553989,-162.13857834895734Z" fill-rule="evenodd" style="fill: #1DC690; stroke: #fff; opacity: 1;" id="p-type-logs"></path><path d="M63.65973017011875,-186.43078810826196A197,197,0,0,1,66.01400694115715,-185.6102122394478L57.16980701664435,-160.74315900118313A170.6070045455344,170.6070045455344,0,0,0,55.1309435253855,-161.4537985493087Z" fill-rule="evenodd" style="fill: #1DC690; stroke: #fff; opacity: 1;" id="p-type-logs"></path><path d="M66.01400694115715,-185.6102122394478A197,197,0,0,1,68.35771037399728,-184.7599075352245L59.1995137284207,-160.00677352636833A170.6070045455344,170.6070045455344,0,0,0,57.16980701664435,-160.74315900118313Z" fill-rule="evenodd" style="fill: #1DC690; stroke: #fff; opacity: 1;" id="p-type-logs"></path><path d="M68.35771037399728,-184.7599075352245A197,197,0,0,1,70.69046508210869,-183.88001018728264L61.219738566442935,-159.24476007032814A170.6070045455344,170.6070045455344,0,0,0,59.1995137284207,-160.00677352636833Z" fill-rule="evenodd" style="fill: #1DC690; stroke: #fff; opacity: 1;" id="p-type-logs"></path><path d="M70.69046508210869,-183.88001018728264A197,197,0,0,1,73.01189743259727,-182.97066112711047L63.23015795513306,-158.45724068331154A170.6070045455344,170.6070045455344,0,0,0,61.219738566442935,-159.24476007032814Z" fill-rule="evenodd" style="fill: #1DC690; stroke: #fff; opacity: 1;" id="p-type-logs"></path><path d="M73.01189743259727,-182.97066112711047A197,197,0,0,1,75.32163560604951,-182.032006003421L65.23044988943339,-157.64434150080402A170.6070045455344,170.6070045455344,0,0,0,63.23015795513306,-158.45724068331154Z" fill-rule="evenodd" style="fill: #1DC690; stroke: #fff; opacity: 1;" id="p-type-logs"></path><path d="M75.32163560604951,-182.032006003421A197,197,0,0,1,77.61930965608597,-181.06419515882382L67.22029398638124,-156.80619272332478A170.6070045455344,170.6070045455344,0,0,0,65.23044988943339,-157.64434150080402Z" fill-rule="evenodd" style="fill: #1DC690; stroke: #fff; opacity: 1;" id="p-type-logs"></path><path d="M77.61930965608597,-181.06419515882382A197,197,0,0,1,79.90455156861509,-180.06738360574502L69.19937153642438,-155.94292859557274A170.6070045455344,170.6070045455344,0,0,0,67.22029398638124,-156.80619272332478Z" fill-rule="evenodd" style="fill: #1DC690; stroke: #fff; opacity: 1;" id="p-type-logs"></path><path d="M79.90455156861509,-180.06738360574502A197,197,0,0,1,82.17699532077701,-179.04173100159915L71.16736555446784,-155.05468738492476A170.6070045455344,170.6070045455344,0,0,0,69.19937153642438,-155.94292859557274Z" fill-rule="evenodd" style="fill: #1DC690; stroke: #fff; opacity: 1;" id="p-type-logs"></path><path d="M82.17699532077701,-179.04173100159915A197,197,0,0,1,84.43627693956905,-177.98740162321715L73.12396083064498,-154.14161135928967A170.6070045455344,170.6070045455344,0,0,0,71.16736555446784,-155.05468738492476Z" fill-rule="evenodd" style="fill: #1DC690; stroke: #fff; opacity: 1;" id="p-type-logs"></path><path d="M84.43627693956905,-177.98740162321715A197,197,0,0,1,86.6820345601424,-176.90456434053442L75.06884398080399,-153.20384676432153A170.6070045455344,170.6070045455344,0,0,0,73.12396083064498,-154.14161135928967Z" fill-rule="evenodd" style="fill: #1DC690; stroke: #fff; opacity: 1;" id="p-type-logs"></path><path d="M86.6820345601424,-176.90456434053442A197,197,0,0,1,88.9139084837614,-175.79339258954332L77.00170349670209,-152.24154379999558A170.6070045455344,170.6070045455344,0,0,0,75.06884398080399,-153.20384676432153Z" fill-rule="evenodd" style="fill: #1DC690; stroke: #fff; opacity: 1;" id="p-type-logs"></path><path d="M88.9139084837614,-175.79339258954332A197,197,0,0,1,91.13154123541571,-174.65406434451424L78.92222979589911,-151.25485659655126A170.6070045455344,170.6070045455344,0,0,0,77.00170349670209,-152.24154379999558Z" fill-rule="evenodd" style="fill: #1DC690; stroke: #fff; opacity: 1;" id="p-type-logs"></path><path d="M91.13154123541571,-174.65406434451424A197,197,0,0,1,93.3345776210766,-173.48676208948976L80.83011527134289,-150.2439431898052A170.6070045455344,170.6070045455344,0,0,0,78.92222979589911,-151.25485659655126Z" fill-rule="evenodd" style="fill: #1DC690; stroke: #fff; opacity: 1;" id="p-type-logs"></path><path d="M93.3345776210766,-173.48676208948976A197,197,0,0,1,95.52266478458745,-172.29167278905658L82.72505434063793,-149.2089654958391A170.6070045455344,170.6070045455344,0,0,0,80.83011527134289,-150.2439431898052Z" fill-rule="evenodd" style="fill: #1DC690; stroke: #fff; opacity: 1;" id="p-type-logs"></path><path d="M95.52266478458745,-172.29167278905658A197,197,0,0,1,97.6954522641803,-171.0689878583996L84.6067434949901,-148.15008928506575A170.6070045455344,170.6070045455344,0,0,0,82.72505434063793,-149.2089654958391Z" fill-rule="evenodd" style="fill: #1DC690; stroke: #fff; opacity: 1;" id="p-type-logs"></path><path d="M97.6954522641803,-171.0689878583996A197,197,0,0,1,99.85259204860841,-169.81890313264358L86.47488134781894,-147.06748415567813A170.6070045455344,170.6070045455344,0,0,0,84.6067434949901,-148.15008928506575Z" fill-rule="evenodd" style="fill: #1DC690; stroke: #fff; opacity: 1;" id="p-type-logs"></path><path d="M99.85259204860841,-169.81890313264358A197,197,0,0,1,101.99373863288673,-168.54161883548642L88.32916868303022,-145.96132350648506A170.6070045455344,170.6070045455344,0,0,0,86.47488134781894,-147.06748415567813Z" fill-rule="evenodd" style="fill: #1DC690; stroke: #fff; opacity: 1;" id="p-type-logs"></path><path d="M101.99373863288673,-168.54161883548642A197,197,0,0,1,104.11854907363069,-167.2373395471297L90.16930850294091,-144.83178450913826A170.6070045455344,170.6070045455344,0,0,0,88.32916868303022,-145.96132350648506Z" fill-rule="evenodd" style="fill: #1DC690; stroke: #fff; opacity: 1;" id="p-type-logs"></path><path d="M104.11854907363069,-167.2373395471297A197,197,0,0,1,106.22668304398495,-165.90627417151154L91.99500607584864,-143.67904807975506A170.6070045455344,170.6070045455344,0,0,0,90.16930850294091,-144.83178450913826Z" fill-rule="evenodd" style="fill: #1DC690; stroke: #fff; opacity: 1;" id="p-type-logs"></path><path d="M106.22668304398495,-165.90627417151154A197,197,0,0,1,108.31780288813259,-164.54863590284685L93.80596898323826,-142.5032988499415A170.6070045455344,170.6070045455344,0,0,0,91.99500607584864,-143.67904807975506Z" fill-rule="evenodd" style="fill: #1DC690; stroke: #fff; opacity: 1;" id="p-type-logs"></path><path d="M108.31780288813259,-164.54863590284685A197,197,0,0,1,110.39157367537712,-163.16464219148028L95.60190716661808,-141.30472513722015A170.6070045455344,170.6070045455344,0,0,0,93.80596898323826,-142.5032988499415Z" fill-rule="evenodd" style="fill: #1DC690; stroke: #fff; opacity: 1;" id="p-type-logs"></path><path d="M110.39157367537712,-163.16464219148028A197,197,0,0,1,112.44766325378752,-161.75451470905782L97.38253297397792,-140.0835189148677A170.6070045455344,170.6070045455344,0,0,0,95.60190716661808,-141.30472513722015Z" fill-rule="evenodd" style="fill: #1DC690; stroke: #fff; opacity: 1;" id="p-type-logs"></path><path d="M112.44766325378752,-161.75451470905782A197,197,0,0,1,114.48574230339847,-160.31847931302192L99.14756120586183,-138.839875781167A170.6070045455344,170.6070045455344,0,0,0,97.38253297397792,-140.0835189148677Z" fill-rule="evenodd" style="fill: #1DC690; stroke: #fff; opacity: 1;" id="p-type-logs"></path><path d="M114.48574230339847,-160.31847931302192A197,197,0,0,1,116.50548438895679,-158.85676601043642L100.89670916104791,-137.5739949280783A170.6070045455344,170.6070045455344,0,0,0,99.14756120586183,-138.839875781167Z" fill-rule="evenodd" style="fill: #1DC690; stroke: #fff; opacity: 1;" id="p-type-logs"></path><path d="M116.50548438895679,-158.85676601043642A197,197,0,0,1,118.50656601220612,-157.36960892114664L102.62969668182804,-136.28607910933522A170.6070045455344,170.6070045455344,0,0,0,100.89670916104791,-137.5739949280783Z" fill-rule="evenodd" style="fill: #1DC690; stroke: #fff; opacity: 1;" id="p-type-logs"></path><path d="M118.50656601220612,-157.36960892114664A197,197,0,0,1,120.48866666370085,-155.857246240281L104.34624619888015,-134.97633460797002A170.6070045455344,170.6070045455344,0,0,0,102.62969668182804,-136.28607910933522Z" fill-rule="evenodd" style="fill: #1DC690; stroke: #fff; opacity: 1;" id="p-type-logs"></path><path d="M120.48866666370085,-155.857246240281A197,197,0,0,1,122.45146887414165,-154.31992020009963L106.04608277572615,-133.64497120327363A170.6070045455344,170.6070045455344,0,0,0,104.34624619888015,-134.97633460797002Z" fill-rule="evenodd" style="fill: #1DC690; stroke: #fff; opacity: 1;" id="p-type-logs"></path><path d="M122.45146887414165,-154.31992020009963A197,197,0,0,1,124.39465826522384,-152.75787703119659L107.72893415276774,-132.29220213719566A170.6070045455344,170.6070045455344,0,0,0,106.04608277572615,-133.64497120327363Z" fill-rule="evenodd" style="fill: #1DC690; stroke: #fff; opacity: 1;" id="p-type-logs"></path><path d="M124.39465826522384,-152.75787703119659A197,197,0,0,1,126.31792359999078,-151.1713669230615L109.39453079089388,-130.91824408018985A170.6070045455344,170.6070045455344,0,0,0,107.72893415276774,-132.29220213719566Z" fill-rule="evenodd" style="fill: #1DC690; stroke: #fff; opacity: 1;" id="p-type-logs"></path><path d="M126.31792359999078,-151.1713669230615A197,197,0,0,1,128.22095683268412,-149.5606439840072L111.04260591465236,-129.5233170965105A170.6070045455344,170.6070045455344,0,0,0,109.39453079089388,-130.91824408018985Z" fill-rule="evenodd" style="fill: #1DC690; stroke: #fff; opacity: 1;" id="p-type-logs"></path><path d="M128.22095683268412,-149.5606439840072A197,197,0,0,1,130.10345315808294,-147.92596620046976L112.67289555497857,-128.10764460896505A170.6070045455344,170.6070045455344,0,0,0,111.04260591465236,-129.5233170965105Z" fill-rule="evenodd" style="fill: #1DC690; stroke: #fff; opacity: 1;" id="p-type-logs"></path><path d="M130.10345315808294,-147.92596620046976A197,197,0,0,1,131.96511106032372,-146.2675953956871L114.28513859147515,-126.6714533631288A170.6070045455344,170.6070045455344,0,0,0,112.67289555497857,-128.10764460896505Z" fill-rule="evenodd" style="fill: #1DC690; stroke: #fff; opacity: 1;" id="p-type-logs"></path><path d="M131.96511106032372,-146.2675953956871A197,197,0,0,1,133.80563236119366,-144.58579718776352L115.87907679423489,-125.21497339102784A170.6070045455344,170.6070045455344,0,0,0,114.28513859147515,-126.6714533631288Z" fill-rule="evenodd" style="fill: #1DC690; stroke: #fff; opacity: 1;" id="p-type-logs"></path><path d="M133.80563236119366,-144.58579718776352A197,197,0,0,1,135.6247222678893,-142.88084094712593L117.45445486520117,-123.73843797429488A170.6070045455344,170.6070045455344,0,0,0,115.87907679423489,-125.21497339102784Z" fill-rule="evenodd" style="fill: #1DC690; stroke: #fff; opacity: 1;" id="p-type-logs"></path><path d="M135.6247222678893,-142.88084094712593A197,197,0,0,1,137.42208942023285,-141.15299975337942L119.01102047905839,-122.24208360680517A170.6070045455344,170.6070045455344,0,0,0,117.45445486520117,-123.73843797429488Z" fill-rule="evenodd" style="fill: #1DC690; stroke: #fff; opacity: 1;" id="p-type-logs"></path><path d="M137.42208942023285,-141.15299975337942A197,197,0,0,1,139.19744593733893,-139.40255035156855L120.54852432364652,-120.7261499567977A170.6070045455344,170.6070045455344,0,0,0,119.01102047905839,-122.24208360680517Z" fill-rule="evenodd" style="fill: #1DC690; stroke: #fff; opacity: 1;" id="p-type-logs"></path><path d="M139.19744593733893,-139.40255035156855A197,197,0,0,1,140.9505074637238,-137.62977310785172L122.06672013989292,-119.19087982848797A170.6070045455344,170.6070045455344,0,0,0,120.54852432364652,-120.7261499567977Z" fill-rule="evenodd" style="fill: #1DC690; stroke: #fff; opacity: 1;" id="p-type-logs"></path><path d="M140.9505074637238,-137.62977310785172A197,197,0,0,1,142.68099321485,-135.83495196459538L123.56536476125521,-117.63651912317853A170.6070045455344,170.6070045455344,0,0,0,122.06672013989292,-119.19087982848797Z" fill-rule="evenodd" style="fill: #1DC690; stroke: #fff; opacity: 1;" id="p-type-logs"></path><path d="M142.68099321485,-135.83495196459538A197,197,0,0,1,144.3886260220993,-134.0183743948954L125.04421815266883,-116.06331679987336A170.6070045455344,170.6070045455344,0,0,0,123.56536476125521,-117.63651912317853Z" fill-rule="evenodd" style="fill: #1DC690; stroke: #fff; opacity: 1;" id="p-type-logs"></path><path d="M144.3886260220993,-134.0183743948954A197,197,0,0,1,146.0731323771659,-132.18033135653337L126.50304344899286,-114.47152483540272A170.6070045455344,170.6070045455344,0,0,0,125.04421815266883,-116.06331679987336Z" fill-rule="evenodd" style="fill: #1DC690; stroke: #fff; opacity: 1;" id="p-type-logs"></path><path d="M146.0731323771659,-132.18033135653337A197,197,0,0,1,147.7342424758642,-130.32111724537418L127.94160699294845,-112.86139818406433A170.6070045455344,170.6070045455344,0,0,0,126.50304344899286,-114.47152483540272Z" fill-rule="evenodd" style="fill: #1DC690; stroke: #fff; opacity: 1;" id="p-type-logs"></path><path d="M147.7342424758642,-130.32111724537418A197,197,0,0,1,149.3716902613424,-128.4410298482132L129.35967837254316,-111.23319473678796A170.6070045455344,170.6070045455344,0,0,0,127.94160699294845,-112.86139818406433Z" fill-rule="evenodd" style="fill: #1DC690; stroke: #fff; opacity: 1;" id="p-type-logs"></path><path d="M149.3716902613424,-128.4410298482132A197,197,0,0,1,150.9852134666965,-126.54037029508048L130.7570304579755,-109.58717527982945A170.6070045455344,170.6070045455344,0,0,0,129.35967837254316,-111.23319473678796Z" fill-rule="evenodd" style="fill: #1DC690; stroke: #fff; opacity: 1;" id="p-type-logs"></path><path d="M150.9852134666965,-126.54037029508048A197,197,0,0,1,152.57455365697723,-124.61944301100921L132.13343943801422,-107.92360345300109A170.6070045455344,170.6070045455344,0,0,0,130.7570304579755,-109.58717527982945Z" fill-rule="evenodd" style="fill: #1DC690; stroke: #fff; opacity: 1;" id="p-type-logs"></path><path d="M152.57455365697723,-124.61944301100921A197,197,0,0,1,154.13945627058283,-122.6785556672766L133.48868485584532,-106.24274570744495A170.6070045455344,170.6070045455344,0,0,0,132.13343943801422,-107.92360345300109Z" fill-rule="evenodd" style="fill: #1DC690; stroke: #fff; opacity: 1;" id="p-type-logs"></path><path d="M154.13945627058283,-122.6785556672766A197,197,0,0,1,155.6796706600318,-120.71801913212472L134.82254964438246,-104.54487126295591A170.6070045455344,170.6070045455344,0,0,0,133.48868485584532,-106.24274570744495Z" fill-rule="evenodd" style="fill: #1DC690; stroke: #fff; opacity: 1;" id="p-type-logs"></path><path d="M155.6796706600318,-120.71801913212472A197,197,0,0,1,157.19495013210872,-118.73814742096937L136.13482016103413,-102.8302520648612A170.6070045455344,170.6070045455344,0,0,0,134.82254964438246,-104.54487126295591Z" fill-rule="evenodd" style="fill: #1DC690; stroke: #fff; opacity: 1;" id="p-type-logs"></path><path d="M157.19495013210872,-118.73814742096937A197,197,0,0,1,158.6850519873765,-116.73925764610469L137.4252862219224,-101.09916274046343A170.6070045455344,170.6070045455344,0,0,0,136.13482016103413,-102.8302520648612Z" fill-rule="evenodd" style="fill: #1DC690; stroke: #fff; opacity: 1;" id="p-type-logs"></path><path d="M188.0687834369528,58.64411902778101A197,197,0,0,1,187.31155145929586,61.019527119698026L162.21656198602633,52.844460612571986A170.6070045455344,170.6070045455344,0,0,0,162.8723441152352,50.78729686061673Z" fill-rule="evenodd" style="fill: #D7A449; stroke: #fff; opacity: 1;" id="p-type-tokenTransfers"></path><path d="M187.31155145929586,61.019527119698026A197,197,0,0,1,186.52431814595602,63.385161829770375L161.53479793796865,54.893160367568875A170.6070045455344,170.6070045455344,0,0,0,162.21656198602633,52.844460612571986Z" fill-rule="evenodd" style="fill: #D7A449; stroke: #fff; opacity: 1;" id="p-type-tokenTransfers"></path><path d="M186.52431814595602,63.385161829770375A197,197,0,0,1,185.70720958659896,65.74064425877648L160.82716116791573,56.933067989256045A170.6070045455344,170.6070045455344,0,0,0,161.53479793796865,54.893160367568875Z" fill-rule="evenodd" style="fill: #D7A449; stroke: #fff; opacity: 1;" id="p-type-tokenTransfers"></path><path d="M185.70720958659896,65.74064425877648A197,197,0,0,1,184.8603566559518,68.08559713356637L160.093765016706,58.96385674950143A170.6070045455344,170.6070045455344,0,0,0,160.82716116791573,56.933067989256045Z" fill-rule="evenodd" style="fill: #D7A449; stroke: #fff; opacity: 1;" id="p-type-tokenTransfers"></path><path d="M184.8603566559518,68.08559713356637A197,197,0,0,1,183.98389499284107,70.41964486748877L159.33472695100895,60.98520138072373A170.6070045455344,170.6070045455344,0,0,0,160.093765016706,58.96385674950143Z" fill-rule="evenodd" style="fill: #D7A449; stroke: #fff; opacity: 1;" id="p-type-tokenTransfers"></path><path d="M183.98389499284107,70.41964486748877A197,197,0,0,1,183.07796497846783,72.7424136205481L158.5501685445109,62.99677812798983A170.6070045455344,170.6070045455344,0,0,0,159.33472695100895,60.98520138072373Z" fill-rule="evenodd" style="fill: #D7A449; stroke: #fff; opacity: 1;" id="p-type-tokenTransfers"></path><path d="M183.07796497846783,72.7424136205481A197,197,0,0,1,182.14271171392312,75.05353135928179L157.74021545844286,64.99826480087005A170.6070045455344,170.6070045455344,0,0,0,158.5501685445109,62.99677812798983Z" fill-rule="evenodd" style="fill: #D7A449; stroke: #fff; opacity: 1;" id="p-type-tokenTransfers"></path><path d="M182.14271171392312,75.05353135928179A197,197,0,0,1,181.17828499694716,77.35262791634808L156.90499742145326,66.98934082504279A170.6070045455344,170.6070045455344,0,0,0,157.74021545844286,64.99826480087005Z" fill-rule="evenodd" style="fill: #D7A449; stroke: #fff; opacity: 1;" id="p-type-tokenTransfers"></path><path d="M181.17828499694716,77.35262791634808A197,197,0,0,1,180.18483929793678,79.63933504981507L156.04464820882987,68.9696872936403A170.6070045455344,170.6070045455344,0,0,0,156.90499742145326,66.98934082504279Z" fill-rule="evenodd" style="fill: #D7A449; stroke: #fff; opacity: 1;" id="p-type-tokenTransfers"></path><path d="M180.18483929793678,79.63933504981507A197,197,0,0,1,179.162533735204,81.91328650214135L155.15930562107314,70.93898701832737A170.6070045455344,170.6070045455344,0,0,0,156.04464820882987,68.9696872936403Z" fill-rule="evenodd" style="fill: #D7A449; stroke: #fff; opacity: 1;" id="p-type-tokenTransfers"></path><path d="M179.162533735204,81.91328650214135A197,197,0,0,1,178.11153204949053,84.17411805883864L154.249111461825,72.89692458010475A170.6070045455344,170.6070045455344,0,0,0,155.15930562107314,70.93898701832737Z" fill-rule="evenodd" style="fill: #D7A449; stroke: #fff; opacity: 1;" id="p-type-tokenTransfers"></path><path d="M178.11153204949053,84.17411805883864A197,197,0,0,1,177.0320025777416,86.42146760680762L153.31421151515644,74.84318637982935A170.6070045455344,170.6070045455344,0,0,0,154.249111461825,72.89692458010475Z" fill-rule="evenodd" style="fill: #D7A449; stroke: #fff; opacity: 1;" id="p-type-tokenTransfers"></path><path d="M177.0320025777416,86.42146760680762A197,197,0,0,1,175.92411822614372,88.65497519233658L152.35475552221743,76.77746068844267A170.6070045455344,170.6070045455344,0,0,0,153.31421151515644,74.84318637982935Z" fill-rule="evenodd" style="fill: #D7A449; stroke: #fff; opacity: 1;" id="p-type-tokenTransfers"></path><path d="M175.92411822614372,88.65497519233658A197,197,0,0,1,174.78805644243073,90.87428307875473L151.37089715725332,78.69943769689993A170.6070045455344,170.6070045455344,0,0,0,152.35475552221743,76.77746068844267Z" fill-rule="evenodd" style="fill: #D7A449; stroke: #fff; opacity: 1;" id="p-type-tokenTransfers"></path><path d="M174.78805644243073,90.87428307875473A197,197,0,0,1,173.62399918746237,93.07903580373011L150.36279400299114,80.60880956579159A170.6070045455344,170.6070045455344,0,0,0,151.37089715725332,78.69943769689993Z" fill-rule="evenodd" style="fill: #D7A449; stroke: #fff; opacity: 1;" id="p-type-tokenTransfers"></path><path d="M173.62399918746237,93.07903580373011A197,197,0,0,1,172.43213290607974,95.26888023620334L149.3306075253997,82.50527047464932A170.6070045455344,170.6070045455344,0,0,0,150.36279400299114,80.60880956579159Z" fill-rule="evenodd" style="fill: #D7A449; stroke: #fff; opacity: 1;" id="p-type-tokenTransfers"></path><path d="M172.43213290607974,95.26888023620334A197,197,0,0,1,171.21264849724298,97.44346563294798L148.27450304782803,84.38851667092884A170.6070045455344,170.6070045455344,0,0,0,149.3306075253997,82.50527047464932Z" fill-rule="evenodd" style="fill: #D7A449; stroke: #fff; opacity: 1;" id="p-type-tokenTransfers"></path><path d="M171.21264849724298,97.44346563294798A197,197,0,0,1,169.96574128345537,99.60244369474833L147.19464972452587,86.25824651866124A170.6070045455344,170.6070045455344,0,0,0,148.27450304782803,84.38851667092884Z" fill-rule="evenodd" style="fill: #D7A449; stroke: #fff; opacity: 1;" id="p-type-tokenTransfers"></path><path d="M169.96574128345537,99.60244369474833A197,197,0,0,1,168.69161097947867,101.74546862218597L146.09122051355047,88.11416054676553A170.6070045455344,170.6070045455344,0,0,0,147.19464972452587,86.25824651866124Z" fill-rule="evenodd" style="fill: #D7A449; stroke: #fff; opacity: 1;" id="p-type-tokenTransfers"></path><path d="M168.69161097947867,101.74546862218597A197,197,0,0,1,167.3904616603454,103.8721971710257L144.96439214906422,89.95596149701436A170.6070045455344,170.6070045455344,0,0,0,146.09122051355047,88.11416054676553Z" fill-rule="evenodd" style="fill: #D7A449; stroke: #fff; opacity: 1;" id="p-type-tokenTransfers"></path><path d="M167.3904616603454,103.8721971710257A197,197,0,0,1,166.06250172867243,105.98228870719232L143.81434511302757,91.78335437164519A170.6070045455344,170.6070045455344,0,0,0,144.96439214906422,89.95596149701436Z" fill-rule="evenodd" style="fill: #D7A449; stroke: #fff; opacity: 1;" id="p-type-tokenTransfers"></path><path d="M166.06250172867243,105.98228870719232A197,197,0,0,1,164.70794388128158,108.07540526132942L142.64126360629155,93.59604648060966A170.6070045455344,170.6070045455344,0,0,0,143.81434511302757,91.78335437164519Z" fill-rule="evenodd" style="fill: #D7A449; stroke: #fff; opacity: 1;" id="p-type-tokenTransfers"></path><path d="M164.70794388128158,108.07540526132942A197,197,0,0,1,163.32700507513238,110.15121158293124L141.44533551909456,95.39374748845316A170.6070045455344,170.6070045455344,0,0,0,142.64126360629155,93.59604648060966Z" fill-rule="evenodd" style="fill: #D7A449; stroke: #fff; opacity: 1;" id="p-type-tokenTransfers"></path><path d="M163.32700507513238,110.15121158293124A197,197,0,0,1,161.91990649257232,112.20937519403907L140.2267524009685,97.17616946081726A170.6070045455344,170.6070045455344,0,0,0,141.44533551909456,95.39374748845316Z" fill-rule="evenodd" style="fill: #D7A449; stroke: #fff; opacity: 1;" id="p-type-tokenTransfers"></path><path d="M161.91990649257232,112.20937519403907A197,197,0,0,1,160.4868735059108,114.24956644249369L138.98570943005853,98.94302691055765A170.6070045455344,170.6070045455344,0,0,0,140.2267524009685,97.17616946081726Z" fill-rule="evenodd" style="fill: #D7A449; stroke: #fff; opacity: 1;" id="p-type-tokenTransfers"></path><path d="M160.4868735059108,114.24956644249369A197,197,0,0,1,159.0281356413214,116.27145855473509L137.72240538186185,100.69403684347007A170.6070045455344,170.6070045455344,0,0,0,138.98570943005853,98.94302691055765Z" fill-rule="evenodd" style="fill: #D7A449; stroke: #fff; opacity: 1;" id="p-type-tokenTransfers"></path><path d="M159.0281356413214,116.27145855473509A197,197,0,0,1,157.54392654207922,118.27472768814118L136.43704259739008,102.428918803617A170.6070045455344,170.6070045455344,0,0,0,137.72240538186185,100.69403684347007Z" fill-rule="evenodd" style="fill: #D7A449; stroke: #fff; opacity: 1;" id="p-type-tokenTransfers"></path><path d="M157.54392654207922,118.27472768814118A197,197,0,0,1,156.03448393113865,120.25905298289702L135.12982695076087,104.14739491824758A170.6070045455344,170.6070045455344,0,0,0,136.43704259739008,102.428918803617Z" fill-rule="evenodd" style="fill: #D7A449; stroke: #fff; opacity: 1;" id="p-type-tokenTransfers"></path><path d="M156.03448393113865,120.25905298289702A197,197,0,0,1,154.50004957305785,122.22411661338637L133.80096781622322,105.84918994230425A170.6070045455344,170.6070045455344,0,0,0,135.12982695076087,104.14739491824758Z" fill-rule="evenodd" style="fill: #D7A449; stroke: #fff; opacity: 1;" id="p-type-tokenTransfers"></path><path d="M154.50004957305785,122.22411661338637A197,197,0,0,1,152.94086923527556,124.16960383909719L132.45067803462254,107.53403130250793A170.6070045455344,170.6070045455344,0,0,0,133.80096781622322,105.84918994230425Z" fill-rule="evenodd" style="fill: #D7A449; stroke: #fff; opacity: 1;" id="p-type-tokenTransfers"></path><path d="M152.94086923527556,124.16960383909719A197,197,0,0,1,151.35719264874723,126.09520305503305L131.07917387931036,109.20164914101578A170.6070045455344,170.6070045455344,0,0,0,132.45067803462254,107.53403130250793Z" fill-rule="evenodd" style="fill: #D7A449; stroke: #fff; opacity: 1;" id="p-type-tokenTransfers"></path><path d="M151.35719264874723,126.09520305503305A197,197,0,0,1,149.7492734679459,128.0006058416223L129.68667502150416,110.85177635864373A170.6070045455344,170.6070045455344,0,0,0,131.07917387931036,109.20164914101578Z" fill-rule="evenodd" style="fill: #D7A449; stroke: #fff; opacity: 1;" id="p-type-tokenTransfers"></path><path d="M149.7492734679459,128.0006058416223A197,197,0,0,1,148.11736923023497,129.88550701411702L128.27340449510302,112.48414865764722A170.6070045455344,170.6070045455344,0,0,0,129.68667502150416,110.85177635864373Z" fill-rule="evenodd" style="fill: #D7A449; stroke: #fff; opacity: 1;" id="p-type-tokenTransfers"></path><path d="M148.11736923023497,129.88550701411702A197,197,0,0,1,146.46174131461885,131.74960467147392L126.8395886609648,114.09850458405337A170.6070045455344,170.6070045455344,0,0,0,128.27340449510302,112.48414865764722Z" fill-rule="evenodd" style="fill: #D7A449; stroke: #fff; opacity: 1;" id="p-type-tokenTransfers"></path><path d="M146.46174131461885,131.74960467147392A197,197,0,0,1,144.78265489987845,133.5926002447093L125.38545717065027,115.69458556953747A170.6070045455344,170.6070045455344,0,0,0,126.8395886609648,114.09850458405337Z" fill-rule="evenodd" style="fill: #D7A449; stroke: #fff; opacity: 1;" id="p-type-tokenTransfers"></path><path d="M144.78265489987845,133.5926002447093A197,197,0,0,1,143.08037892209794,135.41419854472008L123.91124292964034,117.27213597283735A170.6070045455344,170.6070045455344,0,0,0,125.38545717065027,115.69458556953747Z" fill-rule="evenodd" style="fill: #D7A449; stroke: #fff; opacity: 1;" id="p-type-tokenTransfers"></path><path d="M143.08037892209794,135.41419854472008A197,197,0,0,1,141.35518603158977,137.214107809564L122.41718206003196,118.83090312069916A170.6070045455344,170.6070045455344,0,0,0,123.91124292964034,117.27213597283735Z" fill-rule="evenodd" style="fill: #D7A449; stroke: #fff; opacity: 1;" id="p-type-tokenTransfers"></path><path d="M141.35518603158977,137.214107809564A197,197,0,0,1,139.6073525492248,138.99203975119025L120.9035138627189,120.37063734834729A170.6070045455344,170.6070045455344,0,0,0,122.41718206003196,118.83090312069916Z" fill-rule="evenodd" style="fill: #D7A449; stroke: #fff; opacity: 1;" id="p-type-tokenTransfers"></path><path d="M139.6073525492248,138.99203975119025A197,197,0,0,1,137.8371584221746,140.74770960161425L119.37048077906341,121.8910920394729A170.6070045455344,170.6070045455344,0,0,0,120.9035138627189,120.37063734834729Z" fill-rule="evenodd" style="fill: #D7A449; stroke: #fff; opacity: 1;" id="p-type-tokenTransfers"></path><path d="M137.8371584221746,140.74770960161425A197,197,0,0,1,136.0448871790727,142.48083615852832L117.81832835206482,123.39202366573392A170.6070045455344,170.6070045455344,0,0,0,119.37048077906341,121.8910920394729Z" fill-rule="evenodd" style="fill: #D7A449; stroke: #fff; opacity: 1;" id="p-type-tokenTransfers"></path><path d="M136.0448871790727,142.48083615852832A197,197,0,0,1,134.23082588460233,144.1911418303412L116.24730518703142,124.8731918257605A170.6070045455344,170.6070045455344,0,0,0,117.81832835206482,123.39202366573392Z" fill-rule="evenodd" style="fill: #D7A449; stroke: #fff; opacity: 1;" id="p-type-tokenTransfers"></path><path d="M134.23082588460233,144.1911418303412A197,197,0,0,1,132.39526509351802,145.87835268063967L114.65766291176173,126.33435928365971A170.6070045455344,170.6070045455344,0,0,0,116.24730518703142,124.8731918257605Z" fill-rule="evenodd" style="fill: #D7A449; stroke: #fff; opacity: 1;" id="p-type-tokenTransfers"></path><path d="M132.39526509351802,145.87835268063967A197,197,0,0,1,130.5384988041078,147.54219847206406L113.04965613624194,127.77529200701306A170.6070045455344,170.6070045455344,0,0,0,114.65766291176173,126.33435928365971Z" fill-rule="evenodd" style="fill: #D7A449; stroke: #fff; opacity: 1;" id="p-type-tokenTransfers"></path><path d="M130.5384988041078,147.54219847206406A197,197,0,0,1,128.66082441110416,149.18241270959197L111.42354241186523,129.19575920436114A170.6070045455344,170.6070045455344,0,0,0,113.04965613624194,127.77529200701306Z" fill-rule="evenodd" style="fill: #D7A449; stroke: #fff; opacity: 1;" id="p-type-tokenTransfers"></path><path d="M128.66082441110416,149.18241270959197A197,197,0,0,1,126.76254265805079,150.79873268322203L109.77958219018056,130.595533362169A170.6070045455344,170.6070045455344,0,0,0,111.42354241186523,129.19575920436114Z" fill-rule="evenodd" style="fill: #D7A449; stroke: #fff; opacity: 1;" id="p-type-tokenTransfers"></path><path d="M126.76254265805079,150.79873268322203A197,197,0,0,1,124.84395758913317,152.39089951005184L108.11803878117638,131.97439028126647A170.6070045455344,170.6070045455344,0,0,0,109.77958219018056,130.595533362169Z" fill-rule="evenodd" style="fill: #D7A449; stroke: #fff; opacity: 1;" id="p-type-tokenTransfers"></path><path d="M124.84395758913317,152.39089951005184A197,197,0,0,1,122.90537650048039,153.95865817574264L106.43917831110697,133.33210911275788A170.6070045455344,170.6070045455344,0,0,0,108.11803878117638,131.97439028126647Z" fill-rule="evenodd" style="fill: #D7A449; stroke: #fff; opacity: 1;" id="p-type-tokenTransfers"></path><path d="M122.90537650048039,153.95865817574264A197,197,0,0,1,120.94710989094595,155.50175757536454L104.74326967986734,134.66847239339498A170.6070045455344,170.6070045455344,0,0,0,106.43917831110697,133.33210911275788Z" fill-rule="evenodd" style="fill: #D7A449; stroke: #fff; opacity: 1;" id="p-type-tokenTransfers"></path><path d="M120.94710989094595,155.50175757536454A197,197,0,0,1,118.96947141237601,157.01995055361547L103.03058451792417,135.98326608040745A170.6070045455344,170.6070045455344,0,0,0,104.74326967986734,134.66847239339498Z" fill-rule="evenodd" style="fill: #D7A449; stroke: #fff; opacity: 1;" id="p-type-tokenTransfers"></path><path d="M118.96947141237601,157.01995055361547A197,197,0,0,1,116.97277781937213,158.5129939444076L101.30139714280917,137.27627958578586A170.6070045455344,170.6070045455344,0,0,0,103.03058451792417,135.98326608040745Z" fill-rule="evenodd" style="fill: #D7A449; stroke: #fff; opacity: 1;" id="p-type-tokenTransfers"></path><path d="M116.97277781937213,158.5129939444076A197,197,0,0,1,114.95734891855739,159.98064860981484L99.55598451518226,138.5473058100113A170.6070045455344,170.6070045455344,0,0,0,101.30139714280917,137.27627958578586Z" fill-rule="evenodd" style="fill: #D7A449; stroke: #fff; opacity: 1;" id="p-type-tokenTransfers"></path><path d="M114.95734891855739,159.98064860981484A197,197,0,0,1,112.92350751735361,161.42267947837496L97.79462619447125,139.7961411752257A170.6070045455344,170.6070045455344,0,0,0,99.55598451518226,138.5473058100113Z" fill-rule="evenodd" style="fill: #D7A449; stroke: #fff; opacity: 1;" id="p-type-tokenTransfers"></path><path d="M112.92350751735361,161.42267947837496A197,197,0,0,1,110.8715793722778,162.83885558274076L96.01760429409532,141.02258565783896A170.6070045455344,170.6070045455344,0,0,0,97.79462619447125,139.7961411752257Z" fill-rule="evenodd" style="fill: #D7A449; stroke: #fff; opacity: 1;" id="p-type-tokenTransfers"></path><path d="M110.8715793722778,162.83885558274076A197,197,0,0,1,108.80189313676644,164.22895009667343L94.2252034362795,142.22644282056604A170.6070045455344,170.6070045455344,0,0,0,96.01760429409532,141.02258565783896Z" fill-rule="evenodd" style="fill: #D7A449; stroke: #fff; opacity: 1;" id="p-type-tokenTransfers"></path><path d="M108.80189313676644,164.22895009667343A197,197,0,0,1,106.71478030853567,165.59274037137308L92.41771070646726,143.4075198438901A170.6070045455344,170.6070045455344,0,0,0,94.2252034362795,142.22644282056604Z" fill-rule="evenodd" style="fill: #D7A449; stroke: #fff; opacity: 1;" id="p-type-tokenTransfers"></path><path d="M106.71478030853567,165.59274037137308A197,197,0,0,1,104.6105751764858,166.93000797113984L90.59541560733848,144.56562755694594A170.6070045455344,170.6070045455344,0,0,0,92.41771070646726,143.4075198438901Z" fill-rule="evenodd" style="fill: #D7A449; stroke: #fff; opacity: 1;" id="p-type-tokenTransfers"></path><path d="M104.6105751764858,166.93000797113984A197,197,0,0,1,102.48961476715917,168.2405387083604L88.75861001244058,145.7005804678193A170.6070045455344,170.6070045455344,0,0,0,90.59541560733848,144.56562755694594Z" fill-rule="evenodd" style="fill: #D7A449; stroke: #fff; opacity: 1;" id="p-type-tokenTransfers"></path><path d="M102.48961476715917,168.2405387083604A197,197,0,0,1,100.35223879075893,169.52412267781392L86.90758811943941,146.8121967932565A170.6070045455344,170.6070045455344,0,0,0,88.75861001244058,145.7005804678193Z" fill-rule="evenodd" style="fill: #D7A449; stroke: #fff; opacity: 1;" id="p-type-tokenTransfers"></path><path d="M100.35223879075893,169.52412267781392A197,197,0,0,1,98.19878958673856,170.7805542902922L85.04264640299839,147.90029848778056A170.6070045455344,170.6070045455344,0,0,0,86.90758811943941,146.8121967932565Z" fill-rule="evenodd" style="fill: #D7A449; stroke: #fff; opacity: 1;" id="p-type-tokenTransfers"></path><path d="M98.19878958673856,170.7805542902922A197,197,0,0,1,96.02961206896981,172.00963230552867L83.16408356729258,148.96471127220826A170.6070045455344,170.6070045455344,0,0,0,85.04264640299839,147.90029848778056Z" fill-rule="evenodd" style="fill: #D7A449; stroke: #fff; opacity: 1;" id="p-type-tokenTransfers"></path><path d="M96.02961206896981,172.00963230552867A197,197,0,0,1,93.84505367049867,173.21115986443027L81.27220049816593,150.00526466156418A170.6070045455344,170.6070045455344,0,0,0,83.16408356729258,148.96471127220826Z" fill-rule="evenodd" style="fill: #D7A449; stroke: #fff; opacity: 1;" id="p-type-tokenTransfers"></path><path d="M-58.38155079344799,188.1504571531838A197,197,0,0,1,-67.55823858917246,185.05373381460976L-58.507150853153526,160.26123454861545A170.6070045455344,170.6070045455344,0,0,0,-50.55990609945751,162.94307562831273Z" fill-rule="evenodd" style="fill: #414552; stroke: #fff; opacity: 1;" id="p-type-ether"></path><path d="M-67.55823858917246,185.05373381460976A197,197,0,0,1,-69.55559687704205,184.31228646804428L-60.236913870907976,159.61912231092117A170.6070045455344,170.6070045455344,0,0,0,-58.507150853153526,160.26123454861545Z" fill-rule="evenodd" style="fill: #414552; stroke: #fff; opacity: 1;" id="p-type-ether"></path><path d="M-69.55559687704205,184.31228646804428A197,197,0,0,1,-71.32433482152048,183.63507089406326L-61.768685863463766,159.03263642001514A170.6070045455344,170.6070045455344,0,0,0,-60.236913870907976,159.61912231092117Z" fill-rule="evenodd" style="fill: #414552; stroke: #fff; opacity: 1;" id="p-type-ether"></path><path d="M-71.32433482152048,183.63507089406326A197,197,0,0,1,-72.66976745529905,183.10681281151926L-62.93386470339662,158.5751515007776A170.6070045455344,170.6070045455344,0,0,0,-61.768685863463766,159.03263642001514Z" fill-rule="evenodd" style="fill: #414552; stroke: #fff; opacity: 1;" id="p-type-ether"></path></g></svg>