<svg xmlns="http://www.w3.org/2000/svg" width="400" height="400" id="block-7908221"><g id="burst-container" transform="translate(200,200)"><circle r="197" style="fill: #f9f9f9; stroke: #f9f9f9; stroke-width: 3; opacity: 1;" id="circle-base"></circle><path display="none" d="M6.031385485800715e-15,-98.5A98.5,98.5,0,1,1,-6.031385485800715e-15,98.5A98.5,98.5,0,1,1,6.031385485800715e-15,-98.5Z" fill-rule="evenodd" id="p-type-root" style="stroke: #fff; opacity: 1;"></path><path d="M8.529667153919608e-15,-139.30003589374985A139.30003589374985,139.30003589374985,0,1,1,-109.70022779079477,-85.85080094354238L-77.56977496857994,-60.70568351747527A98.5,98.5,0,1,0,6.031385485800715e-15,-98.5Z" fill-rule="evenodd" style="fill: #0B1F65; stroke: #fff; opacity: 1;" id="p-type-data"></path><path d="M-109.70022779079477,-85.85080094354238A139.30003589374985,139.30003589374985,0,0,1,-1.588790104845336,-139.2909751060805L-1.1234442570182228,-98.49359305559612A98.5,98.5,0,0,0,-77.56977496857994,-60.70568351747527Z" fill-rule="evenodd" style="fill: #D7A449; stroke: #fff; opacity: 1;" id="p-type-value"></path><path d="M1.0446666101440332e-14,-170.6070045455344A170.6070045455344,170.6070045455344,0,0,1,155.10995076186055,71.04683789341503L126.64674446492707,58.009500225699774A139.30003589374985,139.30003589374985,0,0,0,8.529667153919608e-15,-139.30003589374985Z" fill-rule="evenodd" style="fill: #414552; stroke: #fff; opacity: 1;" id="p-type-ether"></path><path d="M155.10995076186055,71.04683789341503A170.6070045455344,170.6070045455344,0,0,1,-27.00951021082917,168.45544324292732L-22.05317273967452,137.54329344651475A139.30003589374985,139.30003589374985,0,0,0,126.64674446492707,58.009500225699774Z" fill-rule="evenodd" style="fill: #1DC690; stroke: #fff; opacity: 1;" id="p-type-logs"></path><path d="M-27.00951021082917,168.45544324292732A170.6070045455344,170.6070045455344,0,0,1,-163.83766399690978,47.58119225109525L-133.77289248066245,38.84988078948409A139.30003589374985,139.30003589374985,0,0,0,-22.05317273967452,137.54329344651475Z" fill-rule="evenodd" style="fill: #D7A449; stroke: #fff; opacity: 1;" id="p-type-tokenTransfers"></path><path d="M-134.35479137726497,-105.14532816046373A170.6070045455344,170.6070045455344,0,0,1,-57.24463508530103,-160.71652607604088L-46.74004882360364,-131.22449403966908A139.30003589374985,139.30003589374985,0,0,0,-109.70022779079477,-85.85080094354238Z" fill-rule="evenodd" style="fill: #D7A449; stroke: #fff; opacity: 1;" id="p-type-tokenTransfers"></path><path d="M-57.24463508530103,-160.71652607604088A170.6070045455344,170.6070045455344,0,0,1,-3.8914719275268386,-170.5626173762506L-3.1773735236018914,-139.26379392179257A139.30003589374985,139.30003589374985,0,0,0,-46.74004882360364,-131.22449403966908Z" fill-rule="evenodd" style="fill: #414552; stroke: #fff; opacity: 1;" id="p-type-ether"></path><path d="M1.206277097160143e-14,-197A197,197,0,0,1,55.406317041263556,-189.04798341141594L47.98327808786889,-163.72035616850533A170.6070045455344,170.6070045455344,0,0,0,1.0446666101440332e-14,-170.6070045455344Z" fill-rule="evenodd" style="fill: #414552; stroke: #fff; opacity: 1;" id="p-type-ether"></path><path d="M55.406317041263556,-189.04798341141594A197,197,0,0,1,106.33961933913142,-165.83390895353287L92.09281177645478,-143.61637796263514A170.6070045455344,170.6070045455344,0,0,0,47.98327808786889,-163.72035616850533Z" fill-rule="evenodd" style="fill: #414552; stroke: #fff; opacity: 1;" id="p-type-ether"></path><path d="M106.33961933913142,-165.83390895353287A197,197,0,0,1,148.6880036978268,-129.2318751560738L128.76758844031255,-111.91808686385897A170.6070045455344,170.6070045455344,0,0,0,92.09281177645478,-143.61637796263514Z" fill-rule="evenodd" style="fill: #414552; stroke: #fff; opacity: 1;" id="p-type-ether"></path><path d="M148.6880036978268,-129.2318751560738A197,197,0,0,1,179.03263707247578,-82.19680567318403L155.04681181128367,-71.18452182291024A170.6070045455344,170.6070045455344,0,0,0,128.76758844031255,-111.91808686385897Z" fill-rule="evenodd" style="fill: #414552; stroke: #fff; opacity: 1;" id="p-type-ether"></path><path d="M179.03263707247578,-82.19680567318403A197,197,0,0,1,194.9237628339442,-28.52589494926096L168.80893041544869,-24.704149691746203A170.6070045455344,170.6070045455344,0,0,0,155.04681181128367,-71.18452182291024Z" fill-rule="evenodd" style="fill: #414552; stroke: #fff; opacity: 1;" id="p-type-ether"></path><path d="M194.9237628339442,-28.52589494926096A197,197,0,0,1,196.15781988010315,-18.196419974407153L169.8776551671415,-15.758561955767178A170.6070045455344,170.6070045455344,0,0,0,168.80893041544869,-24.704149691746203Z" fill-rule="evenodd" style="fill: #414552; stroke: #fff; opacity: 1;" id="p-type-ether"></path><path d="M196.15781988010315,-18.196419974407153A197,197,0,0,1,196.80911867860792,-8.67010985799081L170.44169647210092,-7.508535390621932A170.6070045455344,170.6070045455344,0,0,0,169.8776551671415,-15.758561955767178Z" fill-rule="evenodd" style="fill: #414552; stroke: #fff; opacity: 1;" id="p-type-ether"></path><path d="M196.80911867860792,-8.67010985799081A197,197,0,0,1,196.97650575802342,-3.042396975966365L170.58665793514004,-2.6347930695838264A170.6070045455344,170.6070045455344,0,0,0,170.44169647210092,-7.508535390621932Z" fill-rule="evenodd" style="fill: #414552; stroke: #fff; opacity: 1;" id="p-type-ether"></path><path d="M196.97650575802342,-3.042396975966365A197,197,0,0,1,196.99972713080348,0.32788776886452936L170.6067682338783,0.2839591374268827A170.6070045455344,170.6070045455344,0,0,0,170.58665793514004,-2.6347930695838264Z" fill-rule="evenodd" style="fill: #414552; stroke: #fff; opacity: 1;" id="p-type-ether"></path><path d="M196.99972713080348,0.32788776886452936A197,197,0,0,1,196.96577314890698,3.672084946365269L170.5773632229963,3.180118848406741A170.6070045455344,170.6070045455344,0,0,0,170.6067682338783,0.2839591374268827Z" fill-rule="evenodd" style="fill: #414552; stroke: #fff; opacity: 1;" id="p-type-ether"></path><path d="M196.96577314890698,3.672084946365269A197,197,0,0,1,196.88356632431535,6.772098007184671L170.5061700245355,5.864808911139897A170.6070045455344,170.6070045455344,0,0,0,170.5773632229963,3.180118848406741Z" fill-rule="evenodd" style="fill: #414552; stroke: #fff; opacity: 1;" id="p-type-ether"></path><path d="M196.88356632431535,6.772098007184671A197,197,0,0,1,196.7670151407232,9.578191510426619L170.40523373870354,8.294957170341895A170.6070045455344,170.6070045455344,0,0,0,170.5061700245355,5.864808911139897Z" fill-rule="evenodd" style="fill: #414552; stroke: #fff; opacity: 1;" id="p-type-ether"></path><path d="M196.7670151407232,9.578191510426619A197,197,0,0,1,196.64497209938784,11.821799695096292L170.29954136455203,10.237978854404519A170.6070045455344,170.6070045455344,0,0,0,170.40523373870354,8.294957170341895Z" fill-rule="evenodd" style="fill: #414552; stroke: #fff; opacity: 1;" id="p-type-ether"></path><path d="M196.64497209938784,11.821799695096292A197,197,0,0,1,196.5171989141466,13.783705268821468L170.18888654021066,11.937038921076805A170.6070045455344,170.6070045455344,0,0,0,170.29954136455203,10.237978854404519Z" fill-rule="evenodd" style="fill: #414552; stroke: #fff; opacity: 1;" id="p-type-ether"></path><path d="M179.1055436526996,82.03782196566975A197,197,0,0,1,178.6347813024601,83.05790094278957L154.7022586074079,71.93025220146724A170.6070045455344,170.6070045455344,0,0,0,155.10995076186055,71.04683789341503Z" fill-rule="evenodd" style="fill: #1DC690; stroke: #fff; opacity: 1;" id="p-type-logs"></path><path d="M178.6347813024601,83.05790094278957A197,197,0,0,1,178.15820924451458,84.07527864234385L154.28953509849325,72.81132713452503A170.6070045455344,170.6070045455344,0,0,0,154.7022586074079,71.93025220146724Z" fill-rule="evenodd" style="fill: #1DC690; stroke: #fff; opacity: 1;" id="p-type-logs"></path><path d="M178.15820924451458,84.07527864234385A197,197,0,0,1,177.67584297833253,85.08992197633584L153.87179365805096,73.69003403754263A170.6070045455344,170.6070045455344,0,0,0,154.28953509849325,72.81132713452503Z" fill-rule="evenodd" style="fill: #1DC690; stroke: #fff; opacity: 1;" id="p-type-logs"></path><path d="M177.67584297833253,85.08992197633584A197,197,0,0,1,177.18769819182756,86.10179794569812L153.4490478722127,74.56634433248936A170.6070045455344,170.6070045455344,0,0,0,153.87179365805096,73.69003403754263Z" fill-rule="evenodd" style="fill: #1DC690; stroke: #fff; opacity: 1;" id="p-type-logs"></path><path d="M177.18769819182756,86.10179794569812A197,197,0,0,1,176.6937907608471,87.11087364136573L153.02131148986572,75.44022951927896A170.6070045455344,170.6070045455344,0,0,0,153.4490478722127,74.56634433248936Z" fill-rule="evenodd" style="fill: #1DC690; stroke: #fff; opacity: 1;" id="p-type-logs"></path><path d="M176.6937907608471,87.11087364136573A197,197,0,0,1,176.19413674865598,88.11711624534657L152.5885984222054,76.31166117669657A170.6070045455344,170.6070045455344,0,0,0,153.02131148986572,75.44022951927896Z" fill-rule="evenodd" style="fill: #1DC690; stroke: #fff; opacity: 1;" id="p-type-logs"></path><path d="M176.19413674865598,88.11711624534657A197,197,0,0,1,175.68875240541414,89.12049303178864L152.15092274228303,77.180610963323A170.6070045455344,170.6070045455344,0,0,0,152.5885984222054,76.31166117669657Z" fill-rule="evenodd" style="fill: #1DC690; stroke: #fff; opacity: 1;" id="p-type-logs"></path><path d="M175.68875240541414,89.12049303178864A197,197,0,0,1,175.1776541676481,90.12097136804447L151.70829868454817,78.04705061845654A170.6070045455344,170.6070045455344,0,0,0,152.15092274228303,77.180610963323Z" fill-rule="evenodd" style="fill: #1DC690; stroke: #fff; opacity: 1;" id="p-type-logs"></path><path d="M175.1776541676481,90.12097136804447A197,197,0,0,1,174.66085865771623,91.11851871573235L151.26074064438546,78.91095196303203A170.6070045455344,170.6070045455344,0,0,0,151.70829868454817,78.04705061845654Z" fill-rule="evenodd" style="fill: #1DC690; stroke: #fff; opacity: 1;" id="p-type-logs"></path><path d="M174.66085865771623,91.11851871573235A197,197,0,0,1,174.13838268326853,92.11310263179459L150.80826317764672,79.77228690053734A170.6070045455344,170.6070045455344,0,0,0,151.26074064438546,78.91095196303203Z" fill-rule="evenodd" style="fill: #1DC690; stroke: #fff; opacity: 1;" id="p-type-logs"></path><path d="M174.13838268326853,92.11310263179459A197,197,0,0,1,173.61024323669952,93.10469076955269L150.3508810001773,80.63102741792717A170.6070045455344,170.6070045455344,0,0,0,150.80826317764672,79.77228690053734Z" fill-rule="evenodd" style="fill: #1DC690; stroke: #fff; opacity: 1;" id="p-type-logs"></path><path d="M173.61024323669952,93.10469076955269A197,197,0,0,1,173.07645749459593,94.09325087975932L149.88860898733768,81.48714558653406A170.6070045455344,170.6070045455344,0,0,0,150.3508810001773,80.63102741792717Z" fill-rule="evenodd" style="fill: #1DC690; stroke: #fff; opacity: 1;" id="p-type-logs"></path><path d="M173.07645749459593,94.09325087975932A197,197,0,0,1,172.537042817178,95.07875081164714L149.42146217351956,82.34061356297674A170.6070045455344,170.6070045455344,0,0,0,149.88860898733768,81.48714558653406Z" fill-rule="evenodd" style="fill: #1DC690; stroke: #fff; opacity: 1;" id="p-type-logs"></path><path d="M172.537042817178,95.07875081164714A197,197,0,0,1,171.99201674773477,96.06115851397448L148.94945575165693,83.1914035900657A170.6070045455344,170.6070045455344,0,0,0,149.42146217351956,82.34061356297674Z" fill-rule="evenodd" style="fill: #1DC690; stroke: #fff; opacity: 1;" id="p-type-logs"></path><path d="M171.99201674773477,96.06115851397448A197,197,0,0,1,171.44139701205364,97.04044203606767L148.472605072732,84.03948799770592A170.6070045455344,170.6070045455344,0,0,0,148.94945575165693,83.1914035900657Z" fill-rule="evenodd" style="fill: #1DC690; stroke: #fff; opacity: 1;" id="p-type-logs"></path><path d="M171.44139701205364,97.04044203606767A197,197,0,0,1,170.88520151784385,98.01656952886027L147.99092564527587,84.88483920379672A170.6070045455344,170.6070045455344,0,0,0,148.472605072732,84.03948799770592Z" fill-rule="evenodd" style="fill: #1DC690; stroke: #fff; opacity: 1;" id="p-type-logs"></path><path d="M170.88520151784385,98.01656952886027A197,197,0,0,1,170.32344835415404,98.98950924592876L147.50443313486423,85.72742971512888A170.6070045455344,170.6070045455344,0,0,0,147.99092564527587,84.88483920379672Z" fill-rule="evenodd" style="fill: #1DC690; stroke: #fff; opacity: 1;" id="p-type-logs"></path><path d="M170.32344835415404,98.98950924592876A197,197,0,0,1,169.75615579078402,99.95922954452513L147.01314336360778,86.56723212827876A170.6070045455344,170.6070045455344,0,0,0,147.50443313486423,85.72742971512888Z" fill-rule="evenodd" style="fill: #1DC690; stroke: #fff; opacity: 1;" id="p-type-logs"></path><path d="M169.75615579078402,99.95922954452513A197,197,0,0,1,169.1833422776904,100.92569888660597L146.5170723096377,87.40421913049961A170.6070045455344,170.6070045455344,0,0,0,147.01314336360778,86.56723212827876Z" fill-rule="evenodd" style="fill: #1DC690; stroke: #fff; opacity: 1;" id="p-type-logs"></path><path d="M169.1833422776904,100.92569888660597A197,197,0,0,1,168.60502644438677,101.8888858398581L146.016236106586,88.2383635006097A170.6070045455344,170.6070045455344,0,0,0,146.5170723096377,87.40421913049961Z" fill-rule="evenodd" style="fill: #1DC690; stroke: #fff; opacity: 1;" id="p-type-logs"></path><path d="M168.60502644438677,101.8888858398581A197,197,0,0,1,168.02122709933766,102.84875907872097L145.51065104306076,89.06963810987779A170.6070045455344,170.6070045455344,0,0,0,146.016236106586,88.2383635006097Z" fill-rule="evenodd" style="fill: #1DC690; stroke: #fff; opacity: 1;" id="p-type-logs"></path><path d="M168.02122709933766,102.84875907872097A197,197,0,0,1,167.43196322934702,103.80528738540531L145.00033356211654,89.89801592290533A170.6070045455344,170.6070045455344,0,0,0,145.51065104306076,89.06963810987779Z" fill-rule="evenodd" style="fill: #1DC690; stroke: #fff; opacity: 1;" id="p-type-logs"></path><path d="M167.43196322934702,103.80528738540531A197,197,0,0,1,166.83725399894038,104.75843965090856L144.4853002607193,90.72346999850583A170.6070045455344,170.6070045455344,0,0,0,145.00033356211654,89.89801592290533Z" fill-rule="evenodd" style="fill: #1DC690; stroke: #fff; opacity: 1;" id="p-type-logs"></path><path d="M166.83725399894038,104.75843965090856A197,197,0,0,1,166.23711874974194,105.7081848760265L143.96556788920694,91.54597349058093A170.6070045455344,170.6070045455344,0,0,0,144.4853002607193,90.72346999850583Z" fill-rule="evenodd" style="fill: #1DC690; stroke: #fff; opacity: 1;" id="p-type-logs"></path><path d="M166.23711874974194,105.7081848760265A197,197,0,0,1,165.6315769998453,106.65449217236153L143.44115335074434,92.36549964899365A170.6070045455344,170.6070045455344,0,0,0,143.96556788920694,91.54597349058093Z" fill-rule="evenodd" style="fill: #1DC690; stroke: #fff; opacity: 1;" id="p-type-logs"></path><path d="M165.6315769998453,106.65449217236153A197,197,0,0,1,165.02064844317866,107.59733076332715L142.9120737007737,93.1820218204382A170.6070045455344,170.6070045455344,0,0,0,143.44115335074434,92.36549964899365Z" fill-rule="evenodd" style="fill: #1DC690; stroke: #fff; opacity: 1;" id="p-type-logs"></path><path d="M165.02064844317866,107.59733076332715A197,197,0,0,1,164.4043529488646,108.53666998514906L142.37834614645982,93.99551344930707A170.6070045455344,170.6070045455344,0,0,0,142.9120737007737,93.1820218204382Z" fill-rule="evenodd" style="fill: #1DC690; stroke: #fff; opacity: 1;" id="p-type-logs"></path><path d="M164.4043529488646,108.53666998514906A197,197,0,0,1,163.78271056057343,109.47247928786223L141.83998804613046,94.80594807855448A170.6070045455344,170.6070045455344,0,0,0,142.37834614645982,93.99551344930707Z" fill-rule="evenodd" style="fill: #1DC690; stroke: #fff; opacity: 1;" id="p-type-logs"></path><path d="M163.78271056057343,109.47247928786223A197,197,0,0,1,163.15574149587175,110.40472823630458L141.29701690871184,95.61329935055689A170.6070045455344,170.6070045455344,0,0,0,141.83998804613046,94.80594807855448Z" fill-rule="evenodd" style="fill: #1DC690; stroke: #fff; opacity: 1;" id="p-type-logs"></path><path d="M163.15574149587175,110.40472823630458A197,197,0,0,1,162.5234661455646,111.33338651110688L140.74945039315912,96.4175410079703A170.6070045455344,170.6070045455344,0,0,0,141.29701690871184,95.61329935055689Z" fill-rule="evenodd" style="fill: #1DC690; stroke: #fff; opacity: 1;" id="p-type-logs"></path><path d="M162.5234661455646,111.33338651110688A197,197,0,0,1,161.8859050730325,112.25842390967867L140.19730630788226,97.21864689458415A170.6070045455344,170.6070045455344,0,0,0,140.74945039315912,96.4175410079703Z" fill-rule="evenodd" style="fill: #1DC690; stroke: #fff; opacity: 1;" id="p-type-logs"></path><path d="M161.8859050730325,112.25842390967867A197,197,0,0,1,161.24307901356246,113.1798103471907L139.64060261016658,98.01659095617201A170.6070045455344,170.6070045455344,0,0,0,140.19730630788226,97.21864689458415Z" fill-rule="evenodd" style="fill: #1DC690; stroke: #fff; opacity: 1;" id="p-type-logs"></path><path d="M161.24307901356246,113.1798103471907A197,197,0,0,1,160.59500887367392,114.09751585755318L139.07935740558895,98.81134724133888A170.6070045455344,170.6070045455344,0,0,0,139.64060261016658,98.01659095617201Z" fill-rule="evenodd" style="fill: #1DC690; stroke: #fff; opacity: 1;" id="p-type-logs"></path><path d="M160.59500887367392,114.09751585755318A197,197,0,0,1,159.9417157304385,115.01151059439053L138.5135889474289,99.6028899023653A170.6070045455344,170.6070045455344,0,0,0,139.07935740558895,98.81134724133888Z" fill-rule="evenodd" style="fill: #1DC690; stroke: #fff; opacity: 1;" id="p-type-logs"></path><path d="M159.9417157304385,115.01151059439053A197,197,0,0,1,159.28322083079468,115.92176483201203L137.94331563607486,100.39119319604795A170.6070045455344,170.6070045455344,0,0,0,138.5135889474289,99.6028899023653Z" fill-rule="evenodd" style="fill: #1DC690; stroke: #fff; opacity: 1;" id="p-type-logs"></path><path d="M159.28322083079468,115.92176483201203A197,197,0,0,1,158.61954559085675,116.8282489663785L137.3685560184259,101.17623148453686A170.6070045455344,170.6070045455344,0,0,0,137.94331563607486,100.39119319604795Z" fill-rule="evenodd" style="fill: #1DC690; stroke: #fff; opacity: 1;" id="p-type-logs"></path><path d="M158.61954559085675,116.8282489663785A197,197,0,0,1,157.9507115952183,117.73093351606524L136.78932878728835,101.9579792361693A170.6070045455344,170.6070045455344,0,0,0,137.3685560184259,101.17623148453686Z" fill-rule="evenodd" style="fill: #1DC690; stroke: #fff; opacity: 1;" id="p-type-logs"></path><path d="M157.9507115952183,117.73093351606524A197,197,0,0,1,157.27674059625025,118.62978912322069L136.20565278076802,102.7364110263A170.6070045455344,170.6070045455344,0,0,0,136.78932878728835,101.9579792361693Z" fill-rule="evenodd" style="fill: #1DC690; stroke: #fff; opacity: 1;" id="p-type-logs"></path><path d="M157.27674059625025,118.62978912322069A197,197,0,0,1,156.59765451339334,119.52478655452138L135.61754698165748,103.51150153812823A170.6070045455344,170.6070045455344,0,0,0,136.20565278076802,102.7364110263Z" fill-rule="evenodd" style="fill: #1DC690; stroke: #fff; opacity: 1;" id="p-type-logs"></path><path d="M156.59765451339334,119.52478655452138A197,197,0,0,1,155.9134754324453,120.41589670212265L135.0250305168186,104.28322556352101A170.6070045455344,170.6070045455344,0,0,0,135.61754698165748,103.51150153812823Z" fill-rule="evenodd" style="fill: #1DC690; stroke: #fff; opacity: 1;" id="p-type-logs"></path><path d="M155.9134754324453,120.41589670212265A197,197,0,0,1,155.2242256048426,121.30309058460517L134.42812265656062,105.05155800383302A170.6070045455344,170.6070045455344,0,0,0,135.0250305168186,104.28322556352101Z" fill-rule="evenodd" style="fill: #1DC690; stroke: #fff; opacity: 1;" id="p-type-logs"></path><path d="M155.2242256048426,121.30309058460517A197,197,0,0,1,154.5299274469366,122.18633934791774L133.82684281401328,105.8164738707229A170.6070045455344,170.6070045455344,0,0,0,134.42812265656062,105.05155800383302Z" fill-rule="evenodd" style="fill: #1DC690; stroke: #fff; opacity: 1;" id="p-type-logs"></path><path d="M154.5299274469366,122.18633934791774A197,197,0,0,1,153.83060353926473,123.06561426631546L133.22121054449562,106.57794828696582A170.6070045455344,170.6070045455344,0,0,0,133.82684281401328,105.8164738707229Z" fill-rule="evenodd" style="fill: #1DC690; stroke: #fff; opacity: 1;" id="p-type-logs"></path><path d="M153.83060353926473,123.06561426631546A197,197,0,0,1,153.12627662581596,123.94088674329424L132.6112455448799,107.33595648726276A170.6070045455344,170.6070045455344,0,0,0,133.22121054449562,106.57794828696582Z" fill-rule="evenodd" style="fill: #1DC690; stroke: #fff; opacity: 1;" id="p-type-logs"></path><path d="M153.12627662581596,123.94088674329424A197,197,0,0,1,152.41696961329112,124.81212831252053L131.99696765295096,108.09047381904576A170.6070045455344,170.6070045455344,0,0,0,132.6112455448799,107.33595648726276Z" fill-rule="evenodd" style="fill: #1DC690; stroke: #fff; opacity: 1;" id="p-type-logs"></path><path d="M152.41696961329112,124.81212831252053A197,197,0,0,1,151.70270557035798,125.6793106387574L131.37839684676106,108.84147574327977A170.6070045455344,170.6070045455344,0,0,0,131.99696765295096,108.09047381904576Z" fill-rule="evenodd" style="fill: #1DC690; stroke: #fff; opacity: 1;" id="p-type-logs"></path><path d="M151.70270557035798,125.6793106387574A197,197,0,0,1,150.98350772690088,126.54240551878594L130.75555324398024,109.58893783526077A170.6070045455344,170.6070045455344,0,0,0,131.37839684676106,108.84147574327977Z" fill-rule="evenodd" style="fill: #1DC690; stroke: #fff; opacity: 1;" id="p-type-logs"></path><path d="M150.98350772690088,126.54240551878594A197,197,0,0,1,150.25939947326532,127.40138488232252L130.12845710124188,110.33283578541003A170.6070045455344,170.6070045455344,0,0,0,130.75555324398024,109.58893783526077Z" fill-rule="evenodd" style="fill: #1DC690; stroke: #fff; opacity: 1;" id="p-type-logs"></path><path d="M150.25939947326532,127.40138488232252A197,197,0,0,1,149.53040435949725,128.2562207929317L129.49712881348398,111.0731454000648A170.6070045455344,170.6070045455344,0,0,0,130.12845710124188,110.33283578541003Z" fill-rule="evenodd" style="fill: #1DC690; stroke: #fff; opacity: 1;" id="p-type-logs"></path><path d="M149.53040435949725,128.2562207929317A197,197,0,0,1,148.79654609457702,129.10688544893495L128.8615889132859,111.80984260226515A170.6070045455344,170.6070045455344,0,0,0,129.49712881348398,111.0731454000648Z" fill-rule="evenodd" style="fill: #1DC690; stroke: #fff; opacity: 1;" id="p-type-logs"></path><path d="M148.79654609457702,129.10688544893495A197,197,0,0,1,148.0578485456485,129.9533511843146L128.2218580702005,112.54290343253702A170.6070045455344,170.6070045455344,0,0,0,128.8615889132859,111.80984260226515Z" fill-rule="evenodd" style="fill: #1DC690; stroke: #fff; opacity: 1;" id="p-type-logs"></path><path d="M148.0578485456485,129.9533511843146A197,197,0,0,1,147.31433573724271,130.7955904696138L127.577957090082,113.27230404967138A170.6070045455344,170.6070045455344,0,0,0,128.2218580702005,112.54290343253702Z" fill-rule="evenodd" style="fill: #1DC690; stroke: #fff; opacity: 1;" id="p-type-logs"></path><path d="M147.31433573724271,130.7955904696138A197,197,0,0,1,146.56603185049647,131.63357591283182L126.9299069144091,113.99802073149974A170.6070045455344,170.6070045455344,0,0,0,127.577957090082,113.27230404967138Z" fill-rule="evenodd" style="fill: #1DC690; stroke: #fff; opacity: 1;" id="p-type-logs"></path><path d="M146.56603185049647,131.63357591283182A197,197,0,0,1,145.812961222366,132.4672802603148L126.2777286196042,114.72002987566552A170.6070045455344,170.6070045455344,0,0,0,126.9299069144091,113.99802073149974Z" fill-rule="evenodd" style="fill: #1DC690; stroke: #fff; opacity: 1;" id="p-type-logs"></path><path d="M145.812961222366,132.4672802603148A197,197,0,0,1,145.05514834483552,133.29667639764227L125.62144341634783,115.4383080003918A170.6070045455344,170.6070045455344,0,0,0,126.2777286196042,114.72002987566552Z" fill-rule="evenodd" style="fill: #1DC690; stroke: #fff; opacity: 1;" id="p-type-logs"></path><path d="M145.05514834483552,133.29667639764227A197,197,0,0,1,144.29261786412044,134.12173735050894L124.96107264888862,116.15283174524492A170.6070045455344,170.6070045455344,0,0,0,125.62144341634783,115.4383080003918Z" fill-rule="evenodd" style="fill: #1DC690; stroke: #fff; opacity: 1;" id="p-type-logs"></path><path d="M144.29261786412044,134.12173735050894A197,197,0,0,1,143.5253945798661,134.94243628560196L124.29663779434942,116.86357787189431A170.6070045455344,170.6070045455344,0,0,0,124.96107264888862,116.15283174524492Z" fill-rule="evenodd" style="fill: #1DC690; stroke: #fff; opacity: 1;" id="p-type-logs"></path><path d="M143.5253945798661,134.94243628560196A197,197,0,0,1,142.75350344434096,135.75874651147353L123.62816046202863,117.57052326486811A170.6070045455344,170.6070045455344,0,0,0,124.29663779434942,116.86357787189431Z" fill-rule="evenodd" style="fill: #1DC690; stroke: #fff; opacity: 1;" id="p-type-logs"></path><path d="M142.75350344434096,135.75874651147353A197,197,0,0,1,141.97696956162528,136.5706414794092L122.95566239269748,118.27364493230517A170.6070045455344,170.6070045455344,0,0,0,123.62816046202863,117.57052326486811Z" fill-rule="evenodd" style="fill: #1DC690; stroke: #fff; opacity: 1;" id="p-type-logs"></path><path d="M141.97696956162528,136.5706414794092A197,197,0,0,1,141.19581818679447,137.37809478429116L122.27916545789286,118.97292000670262A170.6070045455344,170.6070045455344,0,0,0,122.95566239269748,118.27364493230517Z" fill-rule="evenodd" style="fill: #1DC690; stroke: #fff; opacity: 1;" id="p-type-logs"></path><path d="M141.19581818679447,137.37809478429116A197,197,0,0,1,140.4100747250979,138.18108016545688L121.5986916592061,119.66832574565969A170.6070045455344,170.6070045455344,0,0,0,122.27916545789286,118.97292000670262Z" fill-rule="evenodd" style="fill: #1DC690; stroke: #fff; opacity: 1;" id="p-type-logs"></path><path d="M140.4100747250979,138.18108016545688A197,197,0,0,1,139.61976473113256,138.97957150755354L120.9142631275674,120.35983953261733A170.6070045455344,170.6070045455344,0,0,0,121.5986916592061,119.66832574565969Z" fill-rule="evenodd" style="fill: #1DC690; stroke: #fff; opacity: 1;" id="p-type-logs"></path><path d="M139.61976473113256,138.97957150755354A197,197,0,0,1,138.82491390801198,139.77354284138707L120.22590212252601,121.04743887759375A170.6070045455344,170.6070045455344,0,0,0,120.9142631275674,120.35983953261733Z" fill-rule="evenodd" style="fill: #1DC690; stroke: #fff; opacity: 1;" id="p-type-logs"></path><path d="M138.82491390801198,139.77354284138707A197,197,0,0,1,138.02554810653027,140.56296834476674L119.53363103152633,121.7311014179159A170.6070045455344,170.6070045455344,0,0,0,120.22590212252601,121.04743887759375Z" fill-rule="evenodd" style="fill: #1DC690; stroke: #fff; opacity: 1;" id="p-type-logs"></path><path d="M138.02554810653027,140.56296834476674A197,197,0,0,1,137.22169332432134,141.34782234334529L118.8374723691798,122.41080491894671A170.6070045455344,170.6070045455344,0,0,0,119.53363103152633,121.7311014179159Z" fill-rule="evenodd" style="fill: #1DC690; stroke: #fff; opacity: 1;" id="p-type-logs"></path><path d="M137.22169332432134,141.34782234334529A197,197,0,0,1,136.41337570501358,142.1280793114535L118.13744877653272,123.08652727480823A170.6070045455344,170.6070045455344,0,0,0,118.8374723691798,122.41080491894671Z" fill-rule="evenodd" style="fill: #1DC690; stroke: #fff; opacity: 1;" id="p-type-logs"></path><path d="M136.41337570501358,142.1280793114535A197,197,0,0,1,135.60062153737928,142.90371387293067L117.43358302032973,123.75824650910066A170.6070045455344,170.6070045455344,0,0,0,118.13744877653272,123.08652727480823Z" fill-rule="evenodd" style="fill: #1DC690; stroke: #fff; opacity: 1;" id="p-type-logs"></path><path d="M135.60062153737928,142.90371387293067A197,197,0,0,1,134.78345725447988,143.67470080194977L116.72589799227357,124.42594077561697A170.6070045455344,170.6070045455344,0,0,0,117.43358302032973,123.75824650910066Z" fill-rule="evenodd" style="fill: #1DC690; stroke: #fff; opacity: 1;" id="p-type-logs"></path><path d="M134.78345725447988,143.67470080194977A197,197,0,0,1,133.9619094328063,144.44101502383802L116.01441670828048,125.0895883590535A170.6070045455344,170.6070045455344,0,0,0,116.72589799227357,124.42594077561697Z" fill-rule="evenodd" style="fill: #1DC690; stroke: #fff; opacity: 1;" id="p-type-logs"></path><path d="M133.9619094328063,144.44101502383802A197,197,0,0,1,133.1360047914144,145.20263161589213L115.2991623077316,125.74916767571608A170.6070045455344,170.6070045455344,0,0,0,116.01441670828048,125.0895883590535Z" fill-rule="evenodd" style="fill: #1DC690; stroke: #fff; opacity: 1;" id="p-type-logs"></path><path d="M133.1360047914144,145.20263161589213A197,197,0,0,1,132.30577019105618,145.9595258081891L114.58015805272059,126.40465727422217A170.6070045455344,170.6070045455344,0,0,0,115.2991623077316,125.74916767571608Z" fill-rule="evenodd" style="fill: #1DC690; stroke: #fff; opacity: 1;" id="p-type-logs"></path><path d="M132.30577019105618,145.9595258081891A197,197,0,0,1,131.47123263330622,146.71167298439167L113.85742732729686,127.05603583619832A170.6070045455344,170.6070045455344,0,0,0,114.58015805272059,126.40465727422217Z" fill-rule="evenodd" style="fill: #1DC690; stroke: #fff; opacity: 1;" id="p-type-logs"></path><path d="M131.47123263330622,146.71167298439167A197,197,0,0,1,130.63241925968325,147.45904868254894L113.13099363670526,127.70328217697364A170.6070045455344,170.6070045455344,0,0,0,113.85742732729686,127.05603583619832Z" fill-rule="evenodd" style="fill: #1DC690; stroke: #fff; opacity: 1;" id="p-type-logs"></path><path d="M130.63241925968325,147.45904868254894A197,197,0,0,1,129.78935735076774,148.20162859589198L112.40088060662144,128.34637524626876A170.6070045455344,170.6070045455344,0,0,0,113.13099363670526,127.70328217697364Z" fill-rule="evenodd" style="fill: #1DC690; stroke: #fff; opacity: 1;" id="p-type-logs"></path><path d="M129.78935735076774,148.20162859589198A197,197,0,0,1,128.94207432531454,148.93938857362434L111.66711198238362,128.98529412888044A170.6070045455344,170.6070045455344,0,0,0,112.40088060662144,128.34637524626876Z" fill-rule="evenodd" style="fill: #1DC690; stroke: #fff; opacity: 1;" id="p-type-logs"></path><path d="M128.94207432531454,148.93938857362434A197,197,0,0,1,128.09059773936104,149.6723046217075L110.92971162822025,129.62001804536172A170.6070045455344,170.6070045455344,0,0,0,111.66711198238362,128.98529412888044Z" fill-rule="evenodd" style="fill: #1DC690; stroke: #fff; opacity: 1;" id="p-type-logs"></path><path d="M128.09059773936104,149.6723046217075A197,197,0,0,1,127.23495528533114,150.4003529036411L110.18870352647389,130.25052635269788A170.6070045455344,170.6070045455344,0,0,0,110.92971162822025,129.62001804536172Z" fill-rule="evenodd" style="fill: #1DC690; stroke: #fff; opacity: 1;" id="p-type-logs"></path><path d="M127.23495528533114,150.4003529036411A197,197,0,0,1,126.37517479113451,151.12350974123848L109.44411177682127,130.8767985449776A170.6070045455344,170.6070045455344,0,0,0,110.18870352647389,130.25052635269788Z" fill-rule="evenodd" style="fill: #1DC690; stroke: #fff; opacity: 1;" id="p-type-logs"></path><path d="M126.37517479113451,151.12350974123848A197,197,0,0,1,125.5112842192616,151.8417516153964L108.69596059548947,131.4988142540601A170.6070045455344,170.6070045455344,0,0,0,109.44411177682127,130.8767985449776Z" fill-rule="evenodd" style="fill: #1DC690; stroke: #fff; opacity: 1;" id="p-type-logs"></path><path d="M125.5112842192616,151.8417516153964A197,197,0,0,1,124.64331166587414,152.5550551668602L107.94427431446829,132.11655325023742A170.6070045455344,170.6070045455344,0,0,0,108.69596059548947,131.4988142540601Z" fill-rule="evenodd" style="fill: #1DC690; stroke: #fff; opacity: 1;" id="p-type-logs"></path><path d="M124.64331166587414,152.5550551668602A197,197,0,0,1,123.77128535989151,153.26339719698342L107.18907738071901,132.72999544289237A170.6070045455344,170.6070045455344,0,0,0,107.94427431446829,132.11655325023742Z" fill-rule="evenodd" style="fill: #1DC690; stroke: #fff; opacity: 1;" id="p-type-logs"></path><path d="M123.77128535989151,153.26339719698342A197,197,0,0,1,122.8952336620725,153.96675466848225L106.43039435537926,133.33912088115196A170.6070045455344,170.6070045455344,0,0,0,107.18907738071901,132.72999544289237Z" fill-rule="evenodd" style="fill: #1DC690; stroke: #fff; opacity: 1;" id="p-type-logs"></path><path d="M122.8952336620725,153.96675466848225A197,197,0,0,1,122.01518506409303,154.66510470618485L105.66824991296419,133.9439097545362A170.6070045455344,170.6070045455344,0,0,0,106.43039435537926,133.33912088115196Z" fill-rule="evenodd" style="fill: #1DC690; stroke: #fff; opacity: 1;" id="p-type-logs"></path><path d="M122.01518506409303,154.66510470618485A197,197,0,0,1,121.13116818761958,155.35842459777524L104.90266884056399,134.54434239360256A170.6070045455344,170.6070045455344,0,0,0,105.66824991296419,133.9439097545362Z" fill-rule="evenodd" style="fill: #1DC690; stroke: #fff; opacity: 1;" id="p-type-logs"></path><path d="M121.13116818761958,155.35842459777524A197,197,0,0,1,120.24321178337816,156.04669179453202L104.13367603703784,135.14039927058545A170.6070045455344,170.6070045455344,0,0,0,104.90266884056399,134.54434239360256Z" fill-rule="evenodd" style="fill: #1DC690; stroke: #fff; opacity: 1;" id="p-type-logs"></path><path d="M120.24321178337816,156.04669179453202A197,197,0,0,1,119.35134473021935,156.7298839120617L103.36129651220395,135.73206100003142A170.6070045455344,170.6070045455344,0,0,0,104.13367603703784,135.14039927058545Z" fill-rule="evenodd" style="fill: #1DC690; stroke: #fff; opacity: 1;" id="p-type-logs"></path><path d="M119.35134473021935,156.7298839120617A197,197,0,0,1,118.4555960341792,157.40797873102667L102.58555538602639,136.3193083394297A170.6070045455344,170.6070045455344,0,0,0,103.36129651220395,135.73206100003142Z" fill-rule="evenodd" style="fill: #1DC690; stroke: #fff; opacity: 1;" id="p-type-logs"></path><path d="M118.4555960341792,157.40797873102667A197,197,0,0,1,117.55599482753561,158.08095419786795L101.80647788779791,136.90212218983794A170.6070045455344,170.6070045455344,0,0,0,102.58555538602639,136.3193083394297Z" fill-rule="evenodd" style="fill: #1DC690; stroke: #fff; opacity: 1;" id="p-type-logs"></path><path d="M117.55599482753561,158.08095419786795A197,197,0,0,1,116.65257036786107,158.7487884255222L101.02408935531953,137.4804835965033A170.6070045455344,170.6070045455344,0,0,0,101.80647788779791,136.90212218983794Z" fill-rule="evenodd" style="fill: #1DC690; stroke: #fff; opacity: 1;" id="p-type-logs"></path><path d="M116.65257036786107,158.7487884255222A197,197,0,0,1,115.7453520370711,159.41145969413392L100.2384152340765,138.05437374947908A170.6070045455344,170.6070045455344,0,0,0,101.02408935531953,137.4804835965033Z" fill-rule="evenodd" style="fill: #1DC690; stroke: #fff; opacity: 1;" id="p-type-logs"></path><path d="M115.7453520370711,159.41145969413392A197,197,0,0,1,114.83436934046853,160.06894645176143L99.44948107641062,138.62377398423638A170.6070045455344,170.6070045455344,0,0,0,100.2384152340765,138.05437374947908Z" fill-rule="evenodd" style="fill: #1DC690; stroke: #fff; opacity: 1;" id="p-type-logs"></path><path d="M114.83436934046853,160.06894645176143A197,197,0,0,1,113.91965190578406,160.72122731507804L98.65731254068933,139.18866578227102A170.6070045455344,170.6070045455344,0,0,0,99.44948107641062,138.62377398423638Z" fill-rule="evenodd" style="fill: #1DC690; stroke: #fff; opacity: 1;" id="p-type-logs"></path><path d="M113.91965190578406,160.72122731507804A197,197,0,0,1,113.00122948221265,161.36828107006755L97.86193539047122,139.74903077170603A170.6070045455344,170.6070045455344,0,0,0,98.65731254068933,139.18866578227102Z" fill-rule="evenodd" style="fill: #1DC690; stroke: #fff; opacity: 1;" id="p-type-logs"></path><path d="M113.00122948221265,161.36828107006755A197,197,0,0,1,112.07913193944589,162.01008667271392L97.06337549366799,140.30485072788898A170.6070045455344,170.6070045455344,0,0,0,97.86193539047122,139.74903077170603Z" fill-rule="evenodd" style="fill: #1DC690; stroke: #fff; opacity: 1;" id="p-type-logs"></path><path d="M112.07913193944589,162.01008667271392A197,197,0,0,1,111.15338926670066,162.64662324968603L96.26165882170332,140.85610757398481A170.6070045455344,170.6070045455344,0,0,0,97.06337549366799,140.30485072788898Z" fill-rule="evenodd" style="fill: #1DC690; stroke: #fff; opacity: 1;" id="p-type-logs"></path><path d="M111.15338926670066,162.64662324968603A197,197,0,0,1,110.22403157174382,163.27787009901624L95.45681144866815,141.40278338156364A170.6070045455344,170.6070045455344,0,0,0,96.26165882170332,140.85610757398481Z" fill-rule="evenodd" style="fill: #1DC690; stroke: #fff; opacity: 1;" id="p-type-logs"></path><path d="M110.22403157174382,163.27787009901624A197,197,0,0,1,109.29108907991287,163.90380669077382L94.6488595504726,141.94486037118398A170.6070045455344,170.6070045455344,0,0,0,95.45681144866815,141.40278338156364Z" fill-rule="evenodd" style="fill: #1DC690; stroke: #fff; opacity: 1;" id="p-type-logs"></path><path d="M109.29108907991287,163.90380669077382A197,197,0,0,1,108.3545921331331,164.5244126677326L93.83782940399475,142.48232091297072A170.6070045455344,170.6070045455344,0,0,0,94.6488595504726,141.94486037118398Z" fill-rule="evenodd" style="fill: #1DC690; stroke: #fff; opacity: 1;" id="p-type-logs"></path><path d="M108.3545921331331,164.5244126677326A197,197,0,0,1,107.41457118893068,165.13966784603312L93.02374738622602,143.0151475271889A170.6070045455344,170.6070045455344,0,0,0,93.83782940399475,142.48232091297072Z" fill-rule="evenodd" style="fill: #1DC690; stroke: #fff; opacity: 1;" id="p-type-logs"></path><path d="M107.41457118893068,165.13966784603312A197,197,0,0,1,106.47105681944215,165.74955221583895L92.2066399734133,143.5433228848118A170.6070045455344,170.6070045455344,0,0,0,93.02374738622602,143.0151475271889Z" fill-rule="evenodd" style="fill: #1DC690; stroke: #fff; opacity: 1;" id="p-type-logs"></path><path d="M106.47105681944215,165.74955221583895A197,197,0,0,1,105.5240797104201,166.35404594198755L91.38653374019785,144.06682980808483A170.6070045455344,170.6070045455344,0,0,0,92.2066399734133,143.5433228848118Z" fill-rule="evenodd" style="fill: #1DC690; stroke: #fff; opacity: 1;" id="p-type-logs"></path><path d="M105.5240797104201,166.35404594198755A197,197,0,0,1,104.57367066023517,166.95312936463537L90.56345535875106,144.58565127108395A170.6070045455344,170.6070045455344,0,0,0,91.38653374019785,144.06682980808483Z" fill-rule="evenodd" style="fill: #1DC690; stroke: #fff; opacity: 1;" id="p-type-logs"></path><path d="M104.57367066023517,166.95312936463537A197,197,0,0,1,103.61986057887447,167.54678299989715L89.73743159790699,145.09977040026962A170.6070045455344,170.6070045455344,0,0,0,90.56345535875106,144.58565127108395Z" fill-rule="evenodd" style="fill: #1DC690; stroke: #fff; opacity: 1;" id="p-type-logs"></path><path d="M103.61986057887447,167.54678299989715A197,197,0,0,1,102.66268048693622,168.13498754047964L88.90848932229174,145.60917047503546A170.6070045455344,170.6070045455344,0,0,0,89.73743159790699,145.09977040026962Z" fill-rule="evenodd" style="fill: #1DC690; stroke: #fff; opacity: 1;" id="p-type-logs"></path><path d="M102.66268048693622,168.13498754047964A197,197,0,0,1,101.7021615146209,168.71772385630965L88.07665549144976,146.11383492825198A170.6070045455344,170.6070045455344,0,0,0,88.90848932229174,145.60917047503546Z" fill-rule="evenodd" style="fill: #1DC690; stroke: #fff; opacity: 1;" id="p-type-logs"></path><path d="M101.7021615146209,168.71772385630965A197,197,0,0,1,100.73833490071883,169.29497299515606L87.24195715896703,146.61374734680564A170.6070045455344,170.6070045455344,0,0,0,88.07665549144976,146.11383492825198Z" fill-rule="evenodd" style="fill: #1DC690; stroke: #fff; opacity: 1;" id="p-type-logs"></path><path d="M100.73833490071883,169.29497299515606A197,197,0,0,1,99.77123199159416,169.86671618324613L86.40442147159123,147.10889147213237A170.6070045455344,170.6070045455344,0,0,0,87.24195715896703,146.61374734680564Z" fill-rule="evenodd" style="fill: #1DC690; stroke: #fff; opacity: 1;" id="p-type-logs"></path><path d="M99.77123199159416,169.86671618324613A197,197,0,0,1,98.80088424016546,170.43293482587637L85.56407566834886,147.5992512007465A170.6070045455344,170.6070045455344,0,0,0,86.40442147159123,147.10889147213237Z" fill-rule="evenodd" style="fill: #1DC690; stroke: #fff; opacity: 1;" id="p-type-logs"></path><path d="M98.80088424016546,170.43293482587637A197,197,0,0,1,97.82732320488265,170.99361050801704L84.72094707965927,148.08481058476448A170.6070045455344,170.6070045455344,0,0,0,85.56407566834886,147.5992512007465Z" fill-rule="evenodd" style="fill: #1DC690; stroke: #fff; opacity: 1;" id="p-type-logs"></path><path d="M97.82732320488265,170.99361050801704A197,197,0,0,1,96.85058054870079,171.54872499491105L83.8750631264459,148.56555383242346A170.6070045455344,170.6070045455344,0,0,0,84.72094707965927,148.08481058476448Z" fill-rule="evenodd" style="fill: #1DC690; stroke: #fff; opacity: 1;" id="p-type-logs"></path><path d="M96.85058054870079,171.54872499491105A197,197,0,0,1,95.87068803805022,172.09826023266726L83.02645131924439,149.04146530859504A170.6070045455344,170.6070045455344,0,0,0,83.8750631264459,148.56555383242346Z" fill-rule="evenodd" style="fill: #1DC690; stroke: #fff; opacity: 1;" id="p-type-logs"></path><path d="M95.87068803805022,172.09826023266726A197,197,0,0,1,94.88767754180346,172.64219834884727L82.17513925730795,149.5125295352936A170.6070045455344,170.6070045455344,0,0,0,83.02645131924439,149.04146530859504Z" fill-rule="evenodd" style="fill: #1DC690; stroke: #fff; opacity: 1;" id="p-type-logs"></path><path d="M94.88767754180346,172.64219834884727A197,197,0,0,1,93.9015810302387,173.1805216530471L81.32115462770965,149.97873119217985A170.6070045455344,170.6070045455344,0,0,0,82.17513925730795,149.5125295352936Z" fill-rule="evenodd" style="fill: #1DC690; stroke: #fff; opacity: 1;" id="p-type-logs"></path><path d="M93.9015810302387,173.1805216530471A197,197,0,0,1,92.91243057400008,173.71321263747214L80.46452520444204,150.44005511705888A170.6070045455344,170.6070045455344,0,0,0,81.32115462770965,149.97873119217985Z" fill-rule="evenodd" style="fill: #1DC690; stroke: #fff; opacity: 1;" id="p-type-logs"></path><path d="M-31.187895981804335,194.51559100552365A197,197,0,0,1,-32.2966831232655,194.33456784431166L-27.96974804272407,168.2986725866444A170.6070045455344,170.6070045455344,0,0,0,-27.00951021082917,168.45544324292732Z" fill-rule="evenodd" style="fill: #D7A449; stroke: #fff; opacity: 1;" id="p-type-tokenTransfers"></path><path d="M-32.2966831232655,194.33456784431166A197,197,0,0,1,-33.40441988535792,194.14722437398558L-28.92907621940202,168.13642838210887A170.6070045455344,170.6070045455344,0,0,0,-27.96974804272407,168.2986725866444Z" fill-rule="evenodd" style="fill: #D7A449; stroke: #fff; opacity: 1;" id="p-type-tokenTransfers"></path><path d="M-33.40441988535792,194.14722437398558A197,197,0,0,1,-34.511070241352876,193.95356668748428L-29.88746354080075,167.9687159059606A170.6070045455344,170.6070045455344,0,0,0,-28.92907621940202,168.13642838210887Z" fill-rule="evenodd" style="fill: #D7A449; stroke: #fff; opacity: 1;" id="p-type-tokenTransfers"></path><path d="M-34.511070241352876,193.95356668748428A197,197,0,0,1,-35.616598199854664,193.75360108310272L-30.844878837457248,167.79554061268308A170.6070045455344,170.6070045455344,0,0,0,-29.88746354080075,167.9687159059606Z" fill-rule="evenodd" style="fill: #D7A449; stroke: #fff; opacity: 1;" id="p-type-tokenTransfers"></path><path d="M-35.616598199854664,193.75360108310272A197,197,0,0,1,-36.72096780597112,193.54733406428733L-31.80129097152151,167.61690813442604A170.6070045455344,170.6070045455344,0,0,0,-30.844878837457248,167.79554061268308Z" fill-rule="evenodd" style="fill: #D7A449; stroke: #fff; opacity: 1;" id="p-type-tokenTransfers"></path><path d="M-36.72096780597112,193.54733406428733A197,197,0,0,1,-37.82414314248295,193.33477233942412L-32.756668837769205,167.4328242808223A170.6070045455344,170.6070045455344,0,0,0,-31.80129097152151,167.61690813442604Z" fill-rule="evenodd" style="fill: #D7A449; stroke: #fff; opacity: 1;" id="p-type-tokenTransfers"></path><path d="M-37.82414314248295,193.33477233942412A197,197,0,0,1,-38.92608833101191,193.11592282162093L-33.71098136461332,167.24329503879875A170.6070045455344,170.6070045455344,0,0,0,-32.756668837769205,167.4328242808223Z" fill-rule="evenodd" style="fill: #D7A449; stroke: #fff; opacity: 1;" id="p-type-tokenTransfers"></path><path d="M-38.92608833101191,193.11592282162093A197,197,0,0,1,-40.02676753318762,192.89079262848227L-34.664197515114665,167.0483265723818A170.6070045455344,170.6070045455344,0,0,0,-33.71098136461332,167.24329503879875Z" fill-rule="evenodd" style="fill: #D7A449; stroke: #fff; opacity: 1;" id="p-type-tokenTransfers"></path><path d="M-40.02676753318762,192.89079262848227A197,197,0,0,1,-41.126144951813174,192.659389081878L-35.61628628799135,166.84792522249666A170.6070045455344,170.6070045455344,0,0,0,-34.664197515114665,167.0483265723818Z" fill-rule="evenodd" style="fill: #D7A449; stroke: #fff; opacity: 1;" id="p-type-tokenTransfers"></path><path d="M-41.126144951813174,192.659389081878A197,197,0,0,1,-42.22418483202931,192.4217197077051L-36.56721671862695,166.6420975067614A170.6070045455344,170.6070045455344,0,0,0,-35.61628628799135,166.84792522249666Z" fill-rule="evenodd" style="fill: #D7A449; stroke: #fff; opacity: 1;" id="p-type-tokenTransfers"></path><path d="M-42.22418483202931,192.4217197077051A197,197,0,0,1,-43.32085146247733,192.177792235643L-37.51695788007761,166.4308501192747A170.6070045455344,170.6070045455344,0,0,0,-36.56721671862695,166.6420975067614Z" fill-rule="evenodd" style="fill: #D7A449; stroke: #fff; opacity: 1;" id="p-type-tokenTransfers"></path><path d="M-43.32085146247733,192.177792235643A197,197,0,0,1,-44.41610917646047,191.92761459890224L-38.465478884077896,166.21418993039842A170.6070045455344,170.6070045455344,0,0,0,-37.51695788007761,166.4308501192747Z" fill-rule="evenodd" style="fill: #D7A449; stroke: #fff; opacity: 1;" id="p-type-tokenTransfers"></path><path d="M-44.41610917646047,191.92761459890224A197,197,0,0,1,-45.509922353103946,191.67119493396615L-39.4127488820453,165.99212398653387A170.6070045455344,170.6070045455344,0,0,0,-38.465478884077896,166.21418993039842Z" fill-rule="evenodd" style="fill: #D7A449; stroke: #fff; opacity: 1;" id="p-type-tokenTransfers"></path><path d="M-45.509922353103946,191.67119493396615A197,197,0,0,1,-46.60225541851337,191.40854158032667L-40.358737066083584,165.7646595098929A170.6070045455344,170.6070045455344,0,0,0,-39.4127488820453,165.99212398653387Z" fill-rule="evenodd" style="fill: #D7A449; stroke: #fff; opacity: 1;" id="p-type-tokenTransfers"></path><path d="M-46.60225541851337,191.40854158032667A197,197,0,0,1,-47.69307284693176,191.13966308021278L-41.30341266998473,165.53180389826284A170.6070045455344,170.6070045455344,0,0,0,-40.358737066083584,165.7646595098929Z" fill-rule="evenodd" style="fill: #D7A449; stroke: #fff; opacity: 1;" id="p-type-tokenTransfers"></path><path d="M-47.69307284693176,191.13966308021278A197,197,0,0,1,-48.78233916189496,190.86456817831288L-42.246744970229514,165.29356472476593A170.6070045455344,170.6070045455344,0,0,0,-41.30341266998473,165.53180389826284Z" fill-rule="evenodd" style="fill: #D7A449; stroke: #fff; opacity: 1;" id="p-type-tokenTransfers"></path><path d="M-48.78233916189496,190.86456817831288A197,197,0,0,1,-49.87001893738536,190.58326582149027L-43.18870328698676,165.04994973761313A170.6070045455344,170.6070045455344,0,0,0,-42.246744970229514,165.29356472476593Z" fill-rule="evenodd" style="fill: #D7A449; stroke: #fff; opacity: 1;" id="p-type-tokenTransfers"></path><path d="M-49.87001893738536,190.58326582149027A197,197,0,0,1,-50.956076798984135,190.29576515849223L-44.129256985111105,164.80096685985194A170.6070045455344,170.6070045455344,0,0,0,-43.18870328698676,165.04994973761313Z" fill-rule="evenodd" style="fill: #D7A449; stroke: #fff; opacity: 1;" id="p-type-tokenTransfers"></path><path d="M-50.956076798984135,190.29576515849223A197,197,0,0,1,-52.04047742502166,190.00207553965248L-45.06837547513935,164.54662418910894A170.6070045455344,170.6070045455344,0,0,0,-44.129256985111105,164.80096685985194Z" fill-rule="evenodd" style="fill: #D7A449; stroke: #fff; opacity: 1;" id="p-type-tokenTransfers"></path><path d="M-52.04047742502166,190.00207553965248A197,197,0,0,1,-53.123185547726294,189.70220651658707L-46.006028214285315,164.28692999732627A170.6070045455344,170.6070045455344,0,0,0,-45.06837547513935,164.54662418910894Z" fill-rule="evenodd" style="fill: #D7A449; stroke: #fff; opacity: 1;" id="p-type-tokenTransfers"></path><path d="M-53.123185547726294,189.70220651658707A197,197,0,0,1,-54.20416595437139,189.39616784188365L-46.942184707433206,164.0218927304926A170.6070045455344,170.6070045455344,0,0,0,-46.006028214285315,164.28692999732627Z" fill-rule="evenodd" style="fill: #D7A449; stroke: #fff; opacity: 1;" id="p-type-tokenTransfers"></path><path d="M-54.20416595437139,189.39616784188365A197,197,0,0,1,-55.283383488420505,189.08396946878452L-47.876814508129335,163.75152100836857A170.6070045455344,170.6070045455344,0,0,0,-46.942184707433206,164.0218927304926Z" fill-rule="evenodd" style="fill: #D7A449; stroke: #fff; opacity: 1;" id="p-type-tokenTransfers"></path><path d="M-55.283383488420505,189.08396946878452A197,197,0,0,1,-56.360803050670796,188.76562155086265L-48.809887219572396,163.47582362420636A170.6070045455344,170.6070045455344,0,0,0,-47.876814508129335,163.75152100836857Z" fill-rule="evenodd" style="fill: #D7A449; stroke: #fff; opacity: 1;" id="p-type-tokenTransfers"></path><path d="M-56.360803050670796,188.76562155086265A197,197,0,0,1,-57.43638960039455,188.44113444169162L-49.74137249560202,163.19480954446365A170.6070045455344,170.6070045455344,0,0,0,-48.809887219572396,163.47582362420636Z" fill-rule="evenodd" style="fill: #D7A449; stroke: #fff; opacity: 1;" id="p-type-tokenTransfers"></path><path d="M-57.43638960039455,188.44113444169162A197,197,0,0,1,-58.510108156478765,188.11051869450884L-50.6712400416857,162.9084879085122A170.6070045455344,170.6070045455344,0,0,0,-49.74137249560202,163.19480954446365Z" fill-rule="evenodd" style="fill: #D7A449; stroke: #fff; opacity: 1;" id="p-type-tokenTransfers"></path><path d="M-58.510108156478765,188.11051869450884A197,197,0,0,1,-59.581923798562926,187.77378506187236L-51.59945961590411,162.6168680283404A170.6070045455344,170.6070045455344,0,0,0,-50.6712400416857,162.9084879085122Z" fill-rule="evenodd" style="fill: #D7A449; stroke: #fff; opacity: 1;" id="p-type-tokenTransfers"></path><path d="M-59.581923798562926,187.77378506187236A197,197,0,0,1,-60.651801668174585,187.43094449531117L-52.526001029934584,162.31995938825057A170.6070045455344,170.6070045455344,0,0,0,-51.59945961590411,162.6168680283404Z" fill-rule="evenodd" style="fill: #D7A449; stroke: #fff; opacity: 1;" id="p-type-tokenTransfers"></path><path d="M-60.651801668174585,187.43094449531117A197,197,0,0,1,-61.7197069698632,187.08200814496894L-53.45083415003301,162.01777164455035A170.6070045455344,170.6070045455344,0,0,0,-52.526001029934584,162.31995938825057Z" fill-rule="evenodd" style="fill: #D7A449; stroke: #fff; opacity: 1;" id="p-type-tokenTransfers"></path><path d="M-61.7197069698632,187.08200814496894A197,197,0,0,1,-62.78560497233167,186.72698735924146L-54.37392889801379,161.71031462523885A170.6070045455344,170.6070045455344,0,0,0,-53.45083415003301,162.01777164455035Z" fill-rule="evenodd" style="fill: #D7A449; stroke: #fff; opacity: 1;" id="p-type-tokenTransfers"></path><path d="M-62.78560497233167,186.72698735924146A197,197,0,0,1,-63.849461009565935,186.3658936844076L-55.29525525222811,161.39759832968687A170.6070045455344,170.6070045455344,0,0,0,-54.37392889801379,161.71031462523885Z" fill-rule="evenodd" style="fill: #D7A449; stroke: #fff; opacity: 1;" id="p-type-tokenTransfers"></path><path d="M-63.849461009565935,186.3658936844076A197,197,0,0,1,-64.91124048196242,185.9987388642537L-56.21478324854031,161.07963292831167A170.6070045455344,170.6070045455344,0,0,0,-55.29525525222811,161.39759832968687Z" fill-rule="evenodd" style="fill: #D7A449; stroke: #fff; opacity: 1;" id="p-type-tokenTransfers"></path><path d="M-64.91124048196242,185.9987388642537A197,197,0,0,1,-65.97090885745331,185.62553483969168L-57.1324829813024,160.75642876224637A170.6070045455344,170.6070045455344,0,0,0,-56.21478324854031,161.07963292831167Z" fill-rule="evenodd" style="fill: #D7A449; stroke: #fff; opacity: 1;" id="p-type-tokenTransfers"></path><path d="M-65.97090885745331,185.62553483969168A197,197,0,0,1,-67.02843167262964,185.24629374837065L-58.04832460432673,160.4279963430034A170.6070045455344,170.6070045455344,0,0,0,-57.1324829813024,160.75642876224637Z" fill-rule="evenodd" style="fill: #D7A449; stroke: #fff; opacity: 1;" id="p-type-tokenTransfers"></path><path d="M-67.02843167262964,185.24629374837065A197,197,0,0,1,-68.08377453386206,184.86102792428218L-58.96227833185657,160.09434635213287A170.6070045455344,170.6070045455344,0,0,0,-58.04832460432673,160.4279963430034Z" fill-rule="evenodd" style="fill: #D7A449; stroke: #fff; opacity: 1;" id="p-type-tokenTransfers"></path><path d="M-68.08377453386206,184.86102792428218A197,197,0,0,1,-69.13690311841957,184.46974989735924L-59.87431443953492,159.75548964087494A170.6070045455344,170.6070045455344,0,0,0,-58.96227833185657,160.09434635213287Z" fill-rule="evenodd" style="fill: #D7A449; stroke: #fff; opacity: 1;" id="p-type-tokenTransfers"></path><path d="M-69.13690311841957,184.46974989735924A197,197,0,0,1,-70.18778317558564,184.07247239306855L-60.78440326537118,159.41143722980712A170.6070045455344,170.6070045455344,0,0,0,-59.87431443953492,159.75548964087494Z" fill-rule="evenodd" style="fill: #D7A449; stroke: #fff; opacity: 1;" id="p-type-tokenTransfers"></path><path d="M-70.18778317558564,184.07247239306855A197,197,0,0,1,-71.23638052777223,183.6692083319968L-61.692515210705864,159.0622003084857A170.6070045455344,170.6070045455344,0,0,0,-60.78440326537118,159.41143722980712Z" fill-rule="evenodd" style="fill: #D7A449; stroke: #fff; opacity: 1;" id="p-type-tokenTransfers"></path><path d="M-71.23638052777223,183.6692083319968A197,197,0,0,1,-72.2826610716313,183.2599708294304L-62.598620741173214,158.7077902350819A170.6070045455344,170.6070045455344,0,0,0,-61.692515210705864,159.0622003084857Z" fill-rule="evenodd" style="fill: #D7A449; stroke: #fff; opacity: 1;" id="p-type-tokenTransfers"></path><path d="M-72.2826610716313,183.2599708294304A197,197,0,0,1,-73.32659077916396,182.844773194929L-63.50269038766177,158.3482185360125A170.6070045455344,170.6070045455344,0,0,0,-62.598620741173214,158.7077902350819Z" fill-rule="evenodd" style="fill: #D7A449; stroke: #fff; opacity: 1;" id="p-type-tokenTransfers"></path><path d="M-73.32659077916396,182.844773194929A197,197,0,0,1,-74.3681356988272,182.42362893189255L-64.40469474727276,157.98349690556483A170.6070045455344,170.6070045455344,0,0,0,-63.50269038766177,158.3482185360125Z" fill-rule="evenodd" style="fill: #D7A449; stroke: #fff; opacity: 1;" id="p-type-tokenTransfers"></path><path d="M-74.3681356988272,182.42362893189255A197,197,0,0,1,-75.407261956638,181.99655173712213L-65.30460448427635,157.61363720551668A170.6070045455344,170.6070045455344,0,0,0,-64.40469474727276,157.98349690556483Z" fill-rule="evenodd" style="fill: #D7A449; stroke: #fff; opacity: 1;" id="p-type-tokenTransfers"></path><path d="M-75.407261956638,181.99655173712213A197,197,0,0,1,-76.44393575727504,181.56355550037458L-66.2023903310658,157.23865146475023A170.6070045455344,170.6070045455344,0,0,0,-65.30460448427635,157.61363720551668Z" fill-rule="evenodd" style="fill: #D7A449; stroke: #fff; opacity: 1;" id="p-type-tokenTransfers"></path><path d="M-76.44393575727504,181.56355550037458A197,197,0,0,1,-77.47812338517791,181.1246543039107L-67.09802308910925,156.8585518788611A170.6070045455344,170.6070045455344,0,0,0,-66.2023903310658,157.23865146475023Z" fill-rule="evenodd" style="fill: #D7A449; stroke: #fff; opacity: 1;" id="p-type-tokenTransfers"></path><path d="M-77.47812338517791,181.1246543039107A197,197,0,0,1,-78.50979120564348,180.67986242203713L-67.99147362989937,156.4733508097615A170.6070045455344,170.6070045455344,0,0,0,-67.09802308910925,156.8585518788611Z" fill-rule="evenodd" style="fill: #D7A449; stroke: #fff; opacity: 1;" id="p-type-tokenTransfers"></path><path d="M-78.50979120564348,180.67986242203713A197,197,0,0,1,-79.53890566591994,180.22919432064242L-68.8827128959007,156.0830607852784A170.6070045455344,170.6070045455344,0,0,0,-67.99147362989937,156.4733508097615Z" fill-rule="evenodd" style="fill: #D7A449; stroke: #fff; opacity: 1;" id="p-type-tokenTransfers"></path><path d="M-79.53890566591994,180.22919432064242A197,197,0,0,1,-80.56543329629793,179.7726646567263L-69.77171190149467,155.68769449874588A170.6070045455344,170.6070045455344,0,0,0,-68.8827128959007,156.0830607852784Z" fill-rule="evenodd" style="fill: #D7A449; stroke: #fff; opacity: 1;" id="p-type-tokenTransfers"></path><path d="M-80.56543329629793,179.7726646567263A197,197,0,0,1,-81.5893407111991,179.31028827792304L-70.65844173392233,155.2872648085924A170.6070045455344,170.6070045455344,0,0,0,-69.77171190149467,155.68769449874588Z" fill-rule="evenodd" style="fill: #D7A449; stroke: #fff; opacity: 1;" id="p-type-tokenTransfers"></path><path d="M-81.5893407111991,179.31028827792304A197,197,0,0,1,-82.61059461026194,178.84208022201867L-71.54287355422467,154.8817847379227A170.6070045455344,170.6070045455344,0,0,0,-70.65844173392233,155.2872648085924Z" fill-rule="evenodd" style="fill: #D7A449; stroke: #fff; opacity: 1;" id="p-type-tokenTransfers"></path><path d="M-82.61059461026194,178.84208022201867A197,197,0,0,1,-83.62916177942473,178.36805571646175L-72.42497859818045,154.47126747409405A170.6070045455344,170.6070045455344,0,0,0,-71.54287355422467,154.8817847379227Z" fill-rule="evenodd" style="fill: #D7A449; stroke: #fff; opacity: 1;" id="p-type-tokenTransfers"></path><path d="M-83.62916177942473,178.36805571646175A197,197,0,0,1,-84.64500909200586,177.88823017786828L-73.30472817724186,154.05572636828754A170.6070045455344,170.6070045455344,0,0,0,-72.42497859818045,154.47126747409405Z" fill-rule="evenodd" style="fill: #D7A449; stroke: #fff; opacity: 1;" id="p-type-tokenTransfers"></path><path d="M-84.64500909200586,177.88823017786828A197,197,0,0,1,-85.65810350978107,177.40261921152018L-74.1820936794674,153.63517493507376A170.6070045455344,170.6070045455344,0,0,0,-73.30472817724186,154.05572636828754Z" fill-rule="evenodd" style="fill: #D7A449; stroke: #fff; opacity: 1;" id="p-type-tokenTransfers"></path><path d="M-85.65810350978107,177.40261921152018A197,197,0,0,1,-86.66841208405805,176.9112386108579L-75.05704657045248,153.20962685197338A170.6070045455344,170.6070045455344,0,0,0,-74.1820936794674,153.63517493507376Z" fill-rule="evenodd" style="fill: #D7A449; stroke: #fff; opacity: 1;" id="p-type-tokenTransfers"></path><path d="M-86.66841208405805,176.9112386108579A197,197,0,0,1,-87.67590195674799,176.41410435696662L-75.92955839425753,152.77909595901212A170.6070045455344,170.6070045455344,0,0,0,-75.05704657045248,153.20962685197338Z" fill-rule="evenodd" style="fill: #D7A449; stroke: #fff; opacity: 1;" id="p-type-tokenTransfers"></path><path d="M-87.67590195674799,176.41410435696662A197,197,0,0,1,-88.6805403614342,175.91123261805666L-76.79960077433326,152.34359625827082A170.6070045455344,170.6070045455344,0,0,0,-75.92955839425753,152.77909595901212Z" fill-rule="evenodd" style="fill: #D7A449; stroke: #fff; opacity: 1;" id="p-type-tokenTransfers"></path><path d="M-88.6805403614342,175.91123261805666A197,197,0,0,1,-89.68229462443782,175.40263974893747L-77.66714541444375,151.90314191342998A170.6070045455344,170.6070045455344,0,0,0,-76.79960077433326,152.34359625827082Z" fill-rule="evenodd" style="fill: #D7A449; stroke: #fff; opacity: 1;" id="p-type-tokenTransfers"></path><path d="M-89.68229462443782,175.40263974893747A197,197,0,0,1,-90.68113216588037,174.88834229048584L-78.5321640995866,151.4577472493091A170.6070045455344,170.6070045455344,0,0,0,-77.66714541444375,151.90314191342998Z" fill-rule="evenodd" style="fill: #D7A449; stroke: #fff; opacity: 1;" id="p-type-tokenTransfers"></path><path d="M-90.68113216588037,174.88834229048584A197,197,0,0,1,-91.67702050074345,174.36835696910796L-79.39462869691062,151.00742675140086A170.6070045455344,170.6070045455344,0,0,0,-78.5321640995866,151.4577472493091Z" fill-rule="evenodd" style="fill: #D7A449; stroke: #fff; opacity: 1;" id="p-type-tokenTransfers"></path><path d="M-91.67702050074345,174.36835696910796A197,197,0,0,1,-92.66992723992517,173.8427006961954L-80.25451115663074,150.55219506539993A170.6070045455344,170.6070045455344,0,0,0,-79.39462869691062,151.00742675140086Z" fill-rule="evenodd" style="fill: #D7A449; stroke: #fff; opacity: 1;" id="p-type-tokenTransfers"></path><path d="M-92.66992723992517,173.8427006961954A197,197,0,0,1,-93.65982009129354,173.31139056757502L-81.11178351294036,150.0920669967267A170.6070045455344,170.6070045455344,0,0,0,-80.25451115663074,150.55219506539993Z" fill-rule="evenodd" style="fill: #D7A449; stroke: #fff; opacity: 1;" id="p-type-tokenTransfers"></path><path d="M-93.65982009129354,173.31139056757502A197,197,0,0,1,-94.64666686073672,172.77444386295306L-81.96641788492076,149.62705751004574A170.6070045455344,170.6070045455344,0,0,0,-81.11178351294036,150.0920669967267Z" fill-rule="evenodd" style="fill: #D7A449; stroke: #fff; opacity: 1;" id="p-type-tokenTransfers"></path><path d="M-94.64666686073672,172.77444386295306A197,197,0,0,1,-95.63043545321008,172.23187804535323L-82.81838647744796,149.15718172877922A170.6070045455344,170.6070045455344,0,0,0,-81.96641788492076,149.62705751004574Z" fill-rule="evenodd" style="fill: #D7A449; stroke: #fff; opacity: 1;" id="p-type-tokenTransfers"></path><path d="M-95.63043545321008,172.23187804535323A197,197,0,0,1,-96.61109387377996,171.68371076054848L-83.6676615820966,148.68245493461478A170.6070045455344,170.6070045455344,0,0,0,-82.81838647744796,149.15718172877922Z" fill-rule="evenodd" style="fill: #D7A449; stroke: #fff; opacity: 1;" id="p-type-tokenTransfers"></path><path d="M-96.61109387377996,171.68371076054848A197,197,0,0,1,-97.58861022866434,171.12995983648753L-84.51421557804123,148.20289256700886A170.6070045455344,170.6070045455344,0,0,0,-83.6676615820966,148.68245493461478Z" fill-rule="evenodd" style="fill: #D7A449; stroke: #fff; opacity: 1;" id="p-type-tokenTransfers"></path><path d="M-97.58861022866434,171.12995983648753A197,197,0,0,1,-98.56295272626998,170.5706432827146L-85.3580209329545,147.71851022268436A170.6070045455344,170.6070045455344,0,0,0,-84.51421557804123,148.20289256700886Z" fill-rule="evenodd" style="fill: #D7A449; stroke: #fff; opacity: 1;" id="p-type-tokenTransfers"></path><path d="M-98.56295272626998,170.5706432827146A197,197,0,0,1,-99.5340896782265,170.00577928978404L-86.19905020390262,147.22932365512338A170.6070045455344,170.6070045455344,0,0,0,-85.3580209329545,147.71851022268436Z" fill-rule="evenodd" style="fill: #D7A449; stroke: #fff; opacity: 1;" id="p-type-tokenTransfers"></path><path d="M-99.5340896782265,170.00577928978404A197,197,0,0,1,-100.50198950041685,169.4353862286686L-87.03727603823792,146.73534877405504A170.6070045455344,170.6070045455344,0,0,0,-86.19905020390262,147.22932365512338Z" fill-rule="evenodd" style="fill: #D7A449; stroke: #fff; opacity: 1;" id="p-type-tokenTransfers"></path><path d="M-100.50198950041685,169.4353862286686A197,197,0,0,1,-101.46662071400469,168.85948265016185L-87.87267117448839,146.23660164493782A170.6070045455344,170.6070045455344,0,0,0,-87.03727603823792,146.73534877405504Z" fill-rule="evenodd" style="fill: #D7A449; stroke: #fff; opacity: 1;" id="p-type-tokenTransfers"></path><path d="M-101.46662071400469,168.85948265016185A197,197,0,0,1,-102.427951946458,168.27808728427505L-88.70520844324436,145.73309848843732A170.6070045455344,170.6070045455344,0,0,0,-87.87267117448839,146.23660164493782Z" fill-rule="evenodd" style="fill: #D7A449; stroke: #fff; opacity: 1;" id="p-type-tokenTransfers"></path><path d="M-102.427951946458,168.27808728427505A197,197,0,0,1,-103.38595193256943,167.69121903962784L-89.53486076804201,145.22485567989844A170.6070045455344,170.6070045455344,0,0,0,-88.70520844324436,145.73309848843732Z" fill-rule="evenodd" style="fill: #D7A449; stroke: #fff; opacity: 1;" id="p-type-tokenTransfers"></path><path d="M-103.38595193256943,167.69121903962784A197,197,0,0,1,-104.34058951547323,167.09889700283338L-90.36160116624407,144.7118897488131A170.6070045455344,170.6070045455344,0,0,0,-89.53486076804201,145.22485567989844Z" fill-rule="evenodd" style="fill: #D7A449; stroke: #fff; opacity: 1;" id="p-type-tokenTransfers"></path><path d="M-104.34058951547323,167.09889700283338A197,197,0,0,1,-105.29183364765854,166.5011404378775L-91.18540274991743,144.19421737828236A170.6070045455344,170.6070045455344,0,0,0,-90.36160116624407,144.7118897488131Z" fill-rule="evenodd" style="fill: #D7A449; stroke: #fff; opacity: 1;" id="p-type-tokenTransfers"></path><path d="M-105.29183364765854,166.5011404378775A197,197,0,0,1,-106.23965339197899,165.89796878549225L-92.00623872670741,143.67185540447414A170.6070045455344,170.6070045455344,0,0,0,-91.18540274991743,144.19421737828236Z" fill-rule="evenodd" style="fill: #D7A449; stroke: #fff; opacity: 1;" id="p-type-tokenTransfers"></path><path d="M-106.23965339197899,165.89796878549225A197,197,0,0,1,-107.18401792265905,165.28940166252372L-92.82408240070932,143.14482081607537A170.6070045455344,170.6070045455344,0,0,0,-92.00623872670741,143.67185540447414Z" fill-rule="evenodd" style="fill: #D7A449; stroke: #fff; opacity: 1;" id="p-type-tokenTransfers"></path><path d="M-107.18401792265905,165.28940166252372A197,197,0,0,1,-108.12489652629654,164.6754588612938L-93.6389071733366,142.61313075373968A170.6070045455344,170.6070045455344,0,0,0,-92.82408240070932,143.14482081607537Z" fill-rule="evenodd" style="fill: #D7A449; stroke: #fff; opacity: 1;" id="p-type-tokenTransfers"></path><path d="M-108.12489652629654,164.6754588612938A197,197,0,0,1,-109.06225860286132,164.05616034895672L-94.45068654418584,142.07680250952987A170.6070045455344,170.6070045455344,0,0,0,-93.6389071733366,142.61313075373968Z" fill-rule="evenodd" style="fill: #D7A449; stroke: #fff; opacity: 1;" id="p-type-tokenTransfers"></path><path d="M-109.06225860286132,164.05616034895672A197,197,0,0,1,-109.99607366669083,163.43152626684952L-95.25939411189879,141.53585352635542A170.6070045455344,170.6070045455344,0,0,0,-94.45068654418584,142.07680250952987Z" fill-rule="evenodd" style="fill: #D7A449; stroke: #fff; opacity: 1;" id="p-type-tokenTransfers"></path><path d="M-109.99607366669083,163.43152626684952A197,197,0,0,1,-110.92631134748127,162.80157692983704L-96.06500357502082,140.9903013974055A170.6070045455344,170.6070045455344,0,0,0,-95.25939411189879,141.53585352635542Z" fill-rule="evenodd" style="fill: #D7A449; stroke: #fff; opacity: 1;" id="p-type-tokenTransfers"></path><path d="M-110.92631134748127,162.80157692983704A197,197,0,0,1,-111.85294139127545,162.16633282565127L-96.86748873285647,140.4401638655763A170.6070045455344,170.6070045455344,0,0,0,-96.06500357502082,140.9903013974055Z" fill-rule="evenodd" style="fill: #D7A449; stroke: #fff; opacity: 1;" id="p-type-tokenTransfers"></path><path d="M-111.85294139127545,162.16633282565127A197,197,0,0,1,-112.77593366144676,161.5258146142249L-97.66682348632149,139.88545882289452A170.6070045455344,170.6070045455344,0,0,0,-96.86748873285647,140.4401638655763Z" fill-rule="evenodd" style="fill: #D7A449; stroke: #fff; opacity: 1;" id="p-type-tokenTransfers"></path><path d="M-112.77593366144676,161.5258146142249A197,197,0,0,1,-113.69525813967928,160.8800431270196L-98.46298183879173,139.32620430993506A170.6070045455344,170.6070045455344,0,0,0,-97.66682348632149,139.88545882289452Z" fill-rule="evenodd" style="fill: #D7A449; stroke: #fff; opacity: 1;" id="p-type-tokenTransfers"></path><path d="M-113.69525813967928,160.8800431270196A197,197,0,0,1,-114.61088492694398,160.22903936634833L-99.25593789694848,138.76241851523454A170.6070045455344,170.6070045455344,0,0,0,-98.46298183879173,139.32620430993506Z" fill-rule="evenodd" style="fill: #D7A449; stroke: #fff; opacity: 1;" id="p-type-tokenTransfers"></path><path d="M-114.61088492694398,160.22903936634833A197,197,0,0,1,-115.52278424447123,159.5728245046924L-100.04566587162077,138.1941197746996A170.6070045455344,170.6070045455344,0,0,0,-99.25593789694848,138.76241851523454Z" fill-rule="evenodd" style="fill: #D7A449; stroke: #fff; opacity: 1;" id="p-type-tokenTransfers"></path><path d="M-115.52278424447123,159.5728245046924A197,197,0,0,1,-116.43092643471923,158.91141988401276L-100.83214007862398,137.6213265710106A170.6070045455344,170.6070045455344,0,0,0,-100.04566587162077,138.1941197746996Z" fill-rule="evenodd" style="fill: #D7A449; stroke: #fff; opacity: 1;" id="p-type-tokenTransfers"></path><path d="M-116.43092643471923,158.91141988401276A197,197,0,0,1,-117.33528196233856,158.24484701505608L-101.61533493959521,137.04405753302066A170.6070045455344,170.6070045455344,0,0,0,-100.83214007862398,137.6213265710106Z" fill-rule="evenodd" style="fill: #D7A449; stroke: #fff; opacity: 1;" id="p-type-tokenTransfers"></path><path d="M-117.33528196233856,158.24484701505608A197,197,0,0,1,-118.23582141513285,157.57312757665505L-102.3952249828252,136.46233143514957A170.6070045455344,170.6070045455344,0,0,0,-101.61533493959521,137.04405753302066Z" fill-rule="evenodd" style="fill: #D7A449; stroke: #fff; opacity: 1;" id="p-type-tokenTransfers"></path><path d="M-118.23582141513285,157.57312757665505A197,197,0,0,1,-119.13251550501516,156.8962834150233L-103.17178484408664,135.87616719677328A170.6070045455344,170.6070045455344,0,0,0,-102.3952249828252,136.46233143514957Z" fill-rule="evenodd" style="fill: #D7A449; stroke: #fff; opacity: 1;" id="p-type-tokenTransfers"></path><path d="M-119.13251550501516,156.8962834150233A197,197,0,0,1,-120.02533506896063,156.21433654304502L-103.94498926745918,135.28558388160874A170.6070045455344,170.6070045455344,0,0,0,-103.17178484408664,135.87616719677328Z" fill-rule="evenodd" style="fill: #D7A449; stroke: #fff; opacity: 1;" id="p-type-tokenTransfers"></path><path d="M-120.02533506896063,156.21433654304502A197,197,0,0,1,-120.91425106995499,155.52730913955878L-104.71481310615076,134.6906006970936A170.6070045455344,170.6070045455344,0,0,0,-103.94498926745918,135.28558388160874Z" fill-rule="evenodd" style="fill: #D7A449; stroke: #fff; opacity: 1;" id="p-type-tokenTransfers"></path><path d="M-120.91425106995499,155.52730913955878A197,197,0,0,1,-121.79923459793879,154.83522354863658L-105.48123132331551,134.0912369937618A170.6070045455344,170.6070045455344,0,0,0,-104.71481310615076,134.6906006970936Z" fill-rule="evenodd" style="fill: #D7A449; stroke: #fff; opacity: 1;" id="p-type-tokenTransfers"></path><path d="M-121.79923459793879,154.83522354863658A197,197,0,0,1,-122.68025687074778,154.13810227885688L-106.244218992868,133.4875122646141A170.6070045455344,170.6070045455344,0,0,0,-105.48123132331551,134.0912369937618Z" fill-rule="evenodd" style="fill: #D7A449; stroke: #fff; opacity: 1;" id="p-type-tokenTransfers"></path><path d="M-122.68025687074778,154.13810227885688A197,197,0,0,1,-123.55728923504887,153.43596800257257L-107.00375130029386,132.87944614448412A170.6070045455344,170.6070045455344,0,0,0,-106.244218992868,133.4875122646141Z" fill-rule="evenodd" style="fill: #D7A449; stroke: #fff; opacity: 1;" id="p-type-tokenTransfers"></path><path d="M-123.55728923504887,153.43596800257257A197,197,0,0,1,-124.43030316727207,152.72884355517382L-107.75980354345691,132.26705840939977A170.6070045455344,170.6070045455344,0,0,0,-107.00375130029386,132.87944614448412Z" fill-rule="evenodd" style="fill: #D7A449; stroke: #fff; opacity: 1;" id="p-type-tokenTransfers"></path><path d="M-124.43030316727207,152.72884355517382A197,197,0,0,1,-125.29927027453819,152.01675193434514L-108.51235113340245,131.6503689759401A170.6070045455344,170.6070045455344,0,0,0,-107.75980354345691,132.26705840939977Z" fill-rule="evenodd" style="fill: #D7A449; stroke: #fff; opacity: 1;" id="p-type-tokenTransfers"></path><path d="M-125.29927027453819,152.01675193434514A197,197,0,0,1,-126.16416229558214,151.29971629931765L-109.26136959515698,131.02939790058758A170.6070045455344,170.6070045455344,0,0,0,-108.51235113340245,131.6503689759401Z" fill-rule="evenodd" style="fill: #D7A449; stroke: #fff; opacity: 1;" id="p-type-tokenTransfers"></path><path d="M-126.16416229558214,151.29971629931765A197,197,0,0,1,-127.02495110167226,150.5777599701157L-110.00683456852428,130.40416537907572A170.6070045455344,170.6070045455344,0,0,0,-109.26136959515698,131.02939790058758Z" fill-rule="evenodd" style="fill: #D7A449; stroke: #fff; opacity: 1;" id="p-type-tokenTransfers"></path><path d="M-127.02495110167226,150.5777599701157A197,197,0,0,1,-127.88160869752491,149.85090642679853L-110.74872180887759,129.77469174573233A170.6070045455344,170.6070045455344,0,0,0,-110.00683456852428,130.40416537907572Z" fill-rule="evenodd" style="fill: #D7A449; stroke: #fff; opacity: 1;" id="p-type-tokenTransfers"></path><path d="M-127.88160869752491,149.85090642679853A197,197,0,0,1,-128.7341072222152,149.11917930869657L-111.48700718794812,129.14099747281807A170.6070045455344,170.6070045455344,0,0,0,-110.74872180887759,129.77469174573233Z" fill-rule="evenodd" style="fill: #D7A449; stroke: #fff; opacity: 1;" id="p-type-tokenTransfers"></path><path d="M-128.7341072222152,149.11917930869657A197,197,0,0,1,-129.58241895008285,148.38260241364284L-112.22166669460978,128.50310316986088A170.6070045455344,170.6070045455344,0,0,0,-111.48700718794812,129.14099747281807Z" fill-rule="evenodd" style="fill: #D7A449; stroke: #fff; opacity: 1;" id="p-type-tokenTransfers"></path><path d="M-129.58241895008285,148.38260241364284A197,197,0,0,1,-130.42651629163413,147.6411996971987L-112.95267643566012,127.86102958298542A170.6070045455344,170.6070045455344,0,0,0,-112.22166669460978,128.50310316986088Z" fill-rule="evenodd" style="fill: #D7A449; stroke: #fff; opacity: 1;" id="p-type-tokenTransfers"></path></g></svg>