<svg xmlns="http://www.w3.org/2000/svg" width="400" height="400" id="block-7908298"><g id="burst-container" transform="translate(200,200)"><circle r="197" style="fill: #f9f9f9; stroke: #f9f9f9; stroke-width: 3; opacity: 1;" id="circle-base"></circle><path display="none" d="M6.031385485800715e-15,-98.5A98.5,98.5,0,1,1,-6.031385485800715e-15,98.5A98.5,98.5,0,1,1,6.031385485800715e-15,-98.5Z" fill-rule="evenodd" id="p-type-root" style="stroke: #fff; opacity: 1;"></path><path d="M8.529667153919608e-15,-139.30003589374985A139.30003589374985,139.30003589374985,0,1,1,-139.2118213296271,-4.956692656195062L-98.43762288350939,-3.504910989453089A98.5,98.5,0,1,0,6.031385485800715e-15,-98.5Z" fill-rule="evenodd" style="fill: #0B1F65; stroke: #fff; opacity: 1;" id="p-type-data"></path><path d="M-139.2118213296271,-4.956692656195062A139.30003589374985,139.30003589374985,0,0,1,-38.37964583843961,-133.90856128461667L-27.138507831898707,-94.68765174328684A98.5,98.5,0,0,0,-98.43762288350939,-3.504910989453089Z" fill-rule="evenodd" style="fill: #D7A449; stroke: #fff; opacity: 1;" id="p-type-value"></path><path d="M1.0446666101440332e-14,-170.6070045455344A170.6070045455344,170.6070045455344,0,0,1,158.23961934994847,63.772822330389396L129.20210816653776,52.070291388874274A139.30003589374985,139.30003589374985,0,0,0,8.529667153919608e-15,-139.30003589374985Z" fill-rule="evenodd" style="fill: #1DC690; stroke: #fff; opacity: 1;" id="p-type-logs"></path><path d="M158.23961934994847,63.772822330389396A170.6070045455344,170.6070045455344,0,0,1,-11.895142635231162,170.19181996114708L-9.712343291313864,138.9610391001437A139.30003589374985,139.30003589374985,0,0,0,129.20210816653776,52.070291388874274Z" fill-rule="evenodd" style="fill: #D7A449; stroke: #fff; opacity: 1;" id="p-type-tokenTransfers"></path><path d="M-11.895142635231162,170.19181996114708A170.6070045455344,170.6070045455344,0,0,1,-58.55030056050745,160.24547514446155L-47.80612021994505,130.83988256459176A139.30003589374985,139.30003589374985,0,0,0,-9.712343291313864,138.9610391001437Z" fill-rule="evenodd" style="fill: #414552; stroke: #fff; opacity: 1;" id="p-type-ether"></path><path d="M-170.49896421054302,-6.070683909739255A170.6070045455344,170.6070045455344,0,0,1,-126.74312600455923,-114.2056478927046L-103.48532903881457,-93.24852102702906A139.30003589374985,139.30003589374985,0,0,0,-139.2118213296271,-4.956692656195062Z" fill-rule="evenodd" style="fill: #D7A449; stroke: #fff; opacity: 1;" id="p-type-tokenTransfers"></path><path d="M-126.74312600455923,-114.2056478927046A170.6070045455344,170.6070045455344,0,0,1,-90.3719604689543,-144.7054206344661L-73.7883967346368,-118.15148118974996A139.30003589374985,139.30003589374985,0,0,0,-103.48532903881457,-93.24852102702906Z" fill-rule="evenodd" style="fill: #414552; stroke: #fff; opacity: 1;" id="p-type-ether"></path><path d="M1.206277097160143e-14,-197A197,197,0,0,1,27.404974120996606,-195.08451346385112L23.733403778838174,-168.9481445446224A170.6070045455344,170.6070045455344,0,0,0,1.0446666101440332e-14,-170.6070045455344Z" fill-rule="evenodd" style="fill: #1DC690; stroke: #fff; opacity: 1;" id="p-type-logs"></path><path d="M27.404974120996606,-195.08451346385112A197,197,0,0,1,54.27701566379748,-189.37530348657367L47.00527440645451,-164.0038236687606A170.6070045455344,170.6070045455344,0,0,0,23.733403778838174,-168.9481445446224Z" fill-rule="evenodd" style="fill: #1DC690; stroke: #fff; opacity: 1;" id="p-type-logs"></path><path d="M54.27701566379748,-189.37530348657367A197,197,0,0,1,80.09355575759987,-179.98339458434558L69.36305396550688,-155.87019196940182A170.6070045455344,170.6070045455344,0,0,0,47.00527440645451,-164.0038236687606Z" fill-rule="evenodd" style="fill: #1DC690; stroke: #fff; opacity: 1;" id="p-type-logs"></path><path d="M80.09355575759987,-179.98339458434558A197,197,0,0,1,104.3525514078899,-167.09142711301408L90.37196046895424,-144.7054206344661A170.6070045455344,170.6070045455344,0,0,0,69.36305396550688,-155.87019196940182Z" fill-rule="evenodd" style="fill: #1DC690; stroke: #fff; opacity: 1;" id="p-type-logs"></path><path d="M104.3525514078899,-167.09142711301408A197,197,0,0,1,126.58224850757489,-150.95010554075992L109.6234428757147,-130.72662610224023A170.6070045455344,170.6070045455344,0,0,0,90.37196046895424,-144.7054206344661Z" fill-rule="evenodd" style="fill: #1DC690; stroke: #fff; opacity: 1;" id="p-type-logs"></path><path d="M126.58224850757489,-150.95010554075992A197,197,0,0,1,146.35035583333385,-131.87332310765723L126.74312600455923,-114.20564789270458A170.6070045455344,170.6070045455344,0,0,0,109.6234428757147,-130.72662610224023Z" fill-rule="evenodd" style="fill: #1DC690; stroke: #fff; opacity: 1;" id="p-type-logs"></path><path d="M146.35035583333385,-131.87332310765723A197,197,0,0,1,163.27245162448017,-110.23205768074816L141.39809084496565,-95.46376226295945A170.6070045455344,170.6070045455344,0,0,0,126.74312600455923,-114.20564789270458Z" fill-rule="evenodd" style="fill: #1DC690; stroke: #fff; opacity: 1;" id="p-type-logs"></path><path d="M182.71937365631334,73.638512278865A197,197,0,0,1,170.69877455254073,98.34087840903638L147.82947515737294,85.16569893270211A170.6070045455344,170.6070045455344,0,0,0,158.23961934994847,63.772822330389396Z" fill-rule="evenodd" style="fill: #D7A449; stroke: #fff; opacity: 1;" id="p-type-tokenTransfers"></path><path d="M170.69877455254073,98.34087840903638A197,197,0,0,1,155.35867083564622,121.13085237123252L134.5445556418542,104.90239533554987A170.6070045455344,170.6070045455344,0,0,0,147.82947515737294,85.16569893270211Z" fill-rule="evenodd" style="fill: #D7A449; stroke: #fff; opacity: 1;" id="p-type-tokenTransfers"></path><path d="M155.35867083564622,121.13085237123252A197,197,0,0,1,136.99737481154702,141.56524748236944L118.64320683857808,122.59910061276298A170.6070045455344,170.6070045455344,0,0,0,134.5445556418542,104.90239533554987Z" fill-rule="evenodd" style="fill: #D7A449; stroke: #fff; opacity: 1;" id="p-type-tokenTransfers"></path><path d="M136.99737481154702,141.56524748236944A197,197,0,0,1,115.97195059517102,159.24668497382044L100.43465534185196,137.91167465578613A170.6070045455344,170.6070045455344,0,0,0,118.64320683857808,122.59910061276298Z" fill-rule="evenodd" style="fill: #D7A449; stroke: #fff; opacity: 1;" id="p-type-tokenTransfers"></path></g></svg>