<svg xmlns="http://www.w3.org/2000/svg" width="400" height="400" id="block-7908296"><g id="burst-container" transform="translate(200,200)"><circle r="197" style="fill: #f9f9f9; stroke: #f9f9f9; stroke-width: 3; opacity: 1;" id="circle-base"></circle><path display="none" d="M6.031385485800715e-15,-98.5A98.5,98.5,0,1,1,-6.031385485800715e-15,98.5A98.5,98.5,0,1,1,6.031385485800715e-15,-98.5Z" fill-rule="evenodd" id="p-type-root" style="stroke: #fff; opacity: 1;"></path><path d="M8.529667153919608e-15,-139.30003589374985A139.30003589374985,139.30003589374985,0,1,1,-118.62405881189557,-73.02624645284692L-83.8798763977632,-51.637354071408126A98.5,98.5,0,1,0,6.031385485800715e-15,-98.5Z" fill-rule="evenodd" style="fill: #0B1F65; stroke: #fff; opacity: 1;" id="p-type-data"></path><path d="M-118.62405881189557,-73.02624645284692A139.30003589374985,139.30003589374985,0,0,1,-2.134406391735811,-139.28368285393273L-1.5092532334043027,-98.4884366546523A98.5,98.5,0,0,0,-83.8798763977632,-51.637354071408126Z" fill-rule="evenodd" style="fill: #D7A449; stroke: #fff; opacity: 1;" id="p-type-value"></path><path d="M1.0446666101440332e-14,-170.6070045455344A170.6070045455344,170.6070045455344,0,0,1,170.60174307447767,-1.3398731096315215L139.29573992062137,-1.0940018128911375A139.30003589374985,139.30003589374985,0,0,0,8.529667153919608e-15,-139.30003589374985Z" fill-rule="evenodd" style="fill: #1DC690; stroke: #fff; opacity: 1;" id="p-type-logs"></path><path d="M170.60174307447767,-1.3398731096315215A170.6070045455344,170.6070045455344,0,0,1,47.65513187554725,163.81617260186553L38.91025224004422,133.75534483008943A139.30003589374985,139.30003589374985,0,0,0,139.29573992062137,-1.0940018128911375Z" fill-rule="evenodd" style="fill: #D7A449; stroke: #fff; opacity: 1;" id="p-type-tokenTransfers"></path><path d="M47.65513187554725,163.81617260186553A170.6070045455344,170.6070045455344,0,0,1,-141.05768131895132,95.96603847675053L-115.17311451051653,78.3559423014454A139.30003589374985,139.30003589374985,0,0,0,38.91025224004422,133.75534483008943Z" fill-rule="evenodd" style="fill: #414552; stroke: #fff; opacity: 1;" id="p-type-ether"></path><path d="M-145.28420765352334,-89.4385208201025A170.6070045455344,170.6070045455344,0,0,1,-61.3362753345723,-159.19990994997934L-50.0808590975199,-129.98618215816A139.30003589374985,139.30003589374985,0,0,0,-118.62405881189557,-73.02624645284692Z" fill-rule="evenodd" style="fill: #D7A449; stroke: #fff; opacity: 1;" id="p-type-tokenTransfers"></path><path d="M-61.3362753345723,-159.19990994997934A170.6070045455344,170.6070045455344,0,0,1,-5.2275928014772575,-170.52689604136333L-4.268311648888574,-139.23462757399093A139.30003589374985,139.30003589374985,0,0,0,-50.0808590975199,-129.98618215816Z" fill-rule="evenodd" style="fill: #414552; stroke: #fff; opacity: 1;" id="p-type-ether"></path><path d="M1.206277097160143e-14,-197A197,197,0,0,1,1.5092975298121596,-196.99421824248168L1.3070900026864312,-170.60199739664503A170.6070045455344,170.6070045455344,0,0,0,1.0446666101440332e-14,-170.6070045455344Z" fill-rule="evenodd" style="fill: #1DC690; stroke: #fff; opacity: 1;" id="p-type-logs"></path><path d="M1.5092975298121596,-196.99421824248168A197,197,0,0,1,3.018506466808669,-196.9768733093046L2.6141032817439167,-170.58697624388674A170.6070045455344,170.6070045455344,0,0,0,1.3070900026864312,-170.60199739664503Z" fill-rule="evenodd" style="fill: #1DC690; stroke: #fff; opacity: 1;" id="p-type-logs"></path><path d="M3.018506466808669,-196.9768733093046A197,197,0,0,1,4.527538223374126,-196.94796621858242L3.920963118047058,-170.5619419689718A170.6070045455344,170.6070045455344,0,0,0,2.6141032817439167,-170.58697624388674Z" fill-rule="evenodd" style="fill: #1DC690; stroke: #fff; opacity: 1;" id="p-type-logs"></path><path d="M4.527538223374126,-196.94796621858242A197,197,0,0,1,6.0363042222932215,-196.9074986671049L5.227592801477199,-170.52689604136333A170.6070045455344,170.6070045455344,0,0,0,3.920963118047058,-170.5619419689718Z" fill-rule="evenodd" style="fill: #1DC690; stroke: #fff; opacity: 1;" id="p-type-logs"></path><path d="M6.0363042222932215,-196.9074986671049A197,197,0,0,1,7.5447159019502275,-196.85547303023824L6.533915635425321,-170.48184051818876A170.6070045455344,170.6070045455344,0,0,0,5.227592801477199,-170.52689604136333Z" fill-rule="evenodd" style="fill: #1DC690; stroke: #fff; opacity: 1;" id="p-type-logs"></path><path d="M7.5447159019502275,-196.85547303023824A197,197,0,0,1,9.052684721527134,-196.79189236178564L7.839854941293755,-170.4267780441192A170.6070045455344,170.6070045455344,0,0,0,6.533915635425321,-170.48184051818876Z" fill-rule="evenodd" style="fill: #1DC690; stroke: #fff; opacity: 1;" id="p-type-logs"></path><path d="M9.052684721527134,-196.79189236178564A197,197,0,0,1,10.560122166201,-196.7167603938081L9.14533406299722,-170.36171185121432A170.6070045455344,170.6070045455344,0,0,0,7.839854941293755,-170.4267780441192Z" fill-rule="evenodd" style="fill: #1DC690; stroke: #fff; opacity: 1;" id="p-type-logs"></path><path d="M10.560122166201,-196.7167603938081A197,197,0,0,1,12.066939752339547,-196.63008153640533L10.45027637146235,-170.2866457587325A170.6070045455344,170.6070045455344,0,0,0,9.14533406299722,-170.36171185121432Z" fill-rule="evenodd" style="fill: #1DC690; stroke: #fff; opacity: 1;" id="p-type-logs"></path><path d="M12.066939752339547,-196.63008153640533A197,197,0,0,1,13.573049032694987,-196.53186087745684L11.75460526912566,-170.20158417290668A170.6070045455344,170.6070045455344,0,0,0,10.45027637146235,-170.2866457587325Z" fill-rule="evenodd" style="fill: #1DC690; stroke: #fff; opacity: 1;" id="p-type-logs"></path><path d="M13.573049032694987,-196.53186087745684A197,197,0,0,1,15.078361601595649,-196.42210418232344L13.058244194429646,-170.10653208668572A170.6070045455344,170.6070045455344,0,0,0,11.75460526912566,-170.20158417290668Z" fill-rule="evenodd" style="fill: #1DC690; stroke: #fff; opacity: 1;" id="p-type-logs"></path><path d="M15.078361601595649,-196.42210418232344A197,197,0,0,1,16.5827891001354,-196.30081789350862L14.361116626316948,-170.00149507944136A170.6070045455344,170.6070045455344,0,0,0,13.058244194429646,-170.10653208668572Z" fill-rule="evenodd" style="fill: #1DC690; stroke: #fff; opacity: 1;" id="p-type-logs"></path><path d="M16.5827891001354,-196.30081789350862A197,197,0,0,1,18.08624322135988,-196.1680091302805L15.663146088721755,-169.88647931664062A170.6070045455344,170.6070045455344,0,0,0,14.361116626316948,-170.00149507944136Z" fill-rule="evenodd" style="fill: #1DC690; stroke: #fff; opacity: 1;" id="p-type-logs"></path><path d="M18.08624322135988,-196.1680091302805A197,197,0,0,1,19.588635715450113,-196.023685688254L16.964256155058962,-169.76149154948405A170.6070045455344,170.6070045455344,0,0,0,15.663146088721755,-169.88647931664062Z" fill-rule="evenodd" style="fill: #1DC690; stroke: #fff; opacity: 1;" id="p-type-logs"></path><path d="M19.588635715450113,-196.023685688254A197,197,0,0,1,21.089878394902566,-195.8678560389331L18.264370452710203,-169.62653911450934A170.6070045455344,170.6070045455344,0,0,0,16.964256155058962,-169.76149154948405Z" fill-rule="evenodd" style="fill: #1DC690; stroke: #fff; opacity: 1;" id="p-type-logs"></path><path d="M21.089878394902566,-195.8678560389331A197,197,0,0,1,22.589883139705574,-195.70052932921374L19.563412667506803,-169.48162993316072A170.6070045455344,170.6070045455344,0,0,0,18.264370452710203,-169.62653911450934Z" fill-rule="evenodd" style="fill: #1DC690; stroke: #fff; opacity: 1;" id="p-type-logs"></path><path d="M22.589883139705574,-195.70052932921374A197,197,0,0,1,24.088561902511824,-195.52171538084679L20.861306548209246,-169.32677251132392A170.6070045455344,170.6070045455344,0,0,0,19.563412667506803,-169.48162993316072Z" fill-rule="evenodd" style="fill: #1DC690; stroke: #fff; opacity: 1;" id="p-type-logs"></path><path d="M24.088561902511824,-195.52171538084679A197,197,0,0,1,25.585826713806547,-195.3314246898616L22.157975910982994,-169.16197593882703A170.6070045455344,170.6070045455344,0,0,0,20.861306548209246,-169.32677251132392Z" fill-rule="evenodd" style="fill: #1DC690; stroke: #fff; opacity: 1;" id="p-type-logs"></path><path d="M25.585826713806547,-195.3314246898616A197,197,0,0,1,27.081589687071173,-195.12966842594983L23.453344643870302,-168.98724988890683A170.6070045455344,170.6070045455344,0,0,0,22.157975910982994,-169.16197593882703Z" fill-rule="evenodd" style="fill: #1DC690; stroke: #fff; opacity: 1;" id="p-type-logs"></path><path d="M27.081589687071173,-195.12966842594983A197,197,0,0,1,28.57576302394203,-194.91645843180999L24.74733671125783,-168.80260461764098A170.6070045455344,170.6070045455344,0,0,0,23.453344643870302,-168.98724988890683Z" fill-rule="evenodd" style="fill: #1DC690; stroke: #fff; opacity: 1;" id="p-type-logs"></path><path d="M28.57576302394203,-194.91645843180999A197,197,0,0,1,30.068259019364152,-194.69180722245204L26.03987615833993,-168.6080509633461A170.6070045455344,170.6070045455344,0,0,0,24.74733671125783,-168.80260461764098Z" fill-rule="evenodd" style="fill: #1DC690; stroke: #fff; opacity: 1;" id="p-type-logs"></path><path d="M30.068259019364152,-194.69180722245204A197,197,0,0,1,31.558990066739085,-194.45572798446298L27.330887115576804,-168.40360034594153A170.6070045455344,170.6070045455344,0,0,0,26.03987615833993,-168.6080509633461Z" fill-rule="evenodd" style="fill: #1DC690; stroke: #fff; opacity: 1;" id="p-type-logs"></path><path d="M31.558990066739085,-194.45572798446298A197,197,0,0,1,33.04786866306743,-194.20823457523278L28.620293803148066,-168.18926476627894A170.6070045455344,170.6070045455344,0,0,0,27.330887115576804,-168.40360034594153Z" fill-rule="evenodd" style="fill: #1DC690; stroke: #fff; opacity: 1;" id="p-type-logs"></path><path d="M33.04786866306743,-194.20823457523278A197,197,0,0,1,34.534807414085044,-193.9493415221409L29.908020535400823,-167.96505680543808A170.6070045455344,170.6070045455344,0,0,0,28.620293803148066,-168.18926476627894Z" fill-rule="evenodd" style="fill: #1DC690; stroke: #fff; opacity: 1;" id="p-type-logs"></path><path d="M34.534807414085044,-193.9493415221409A197,197,0,0,1,36.01971903939291,-193.67906402170368L31.193991725292275,-167.73098962398808A170.6070045455344,170.6070045455344,0,0,0,29.908020535400823,-167.96505680543808Z" fill-rule="evenodd" style="fill: #1DC690; stroke: #fff; opacity: 1;" id="p-type-logs"></path><path d="M36.01971903939291,-193.67906402170368A197,197,0,0,1,37.502516377580335,-193.3974179386822L32.47813188882653,-167.48707696121508A170.6070045455344,170.6070045455344,0,0,0,31.193991725292275,-167.73098962398808Z" fill-rule="evenodd" style="fill: #1DC690; stroke: #fff; opacity: 1;" id="p-type-logs"></path><path d="M37.502516377580335,-193.3974179386822A197,197,0,0,1,38.983112391341095,-193.1044198051512L33.76036564948533,-167.2333331343158A170.6070045455344,170.6070045455344,0,0,0,32.47813188882653,-167.48707696121508Z" fill-rule="evenodd" style="fill: #1DC690; stroke: #fff; opacity: 1;" id="p-type-logs"></path><path d="M38.983112391341095,-193.1044198051512A197,197,0,0,1,40.46142017258255,-192.8000868195285L35.040617742652636,-166.969773037557A170.6070045455344,170.6070045455344,0,0,0,33.76036564948533,-167.2333331343158Z" fill-rule="evenodd" style="fill: #1DC690; stroke: #fff; opacity: 1;" id="p-type-logs"></path><path d="M40.46142017258255,-192.8000868195285A197,197,0,0,1,41.9373529475267,-192.4844368455657L36.31881302003233,-166.6964121414013A170.6070045455344,170.6070045455344,0,0,0,35.040617742652636,-166.969773037557Z" fill-rule="evenodd" style="fill: #1DC690; stroke: #fff; opacity: 1;" id="p-type-logs"></path><path d="M41.9373529475267,-192.4844368455657A197,197,0,0,1,43.41082408180382,-192.15748841129945L37.59487645405938,-166.4132664915992A170.6070045455344,170.6070045455344,0,0,0,36.31881302003233,-166.6964121414013Z" fill-rule="evenodd" style="fill: #1DC690; stroke: #fff; opacity: 1;" id="p-type-logs"></path><path d="M43.41082408180382,-192.15748841129945A197,197,0,0,1,44.88174708553767,-191.81926070796393L38.86873314230381,-166.12035270824697A170.6070045455344,170.6070045455344,0,0,0,37.59487645405938,-166.4132664915992Z" fill-rule="evenodd" style="fill: #1DC690; stroke: #fff; opacity: 1;" id="p-type-logs"></path><path d="M44.88174708553767,-191.81926070796393A197,197,0,0,1,46.35003561842232,-191.46977358886437L40.1403083118673,-165.8176879848113A170.6070045455344,170.6070045455344,0,0,0,38.86873314230381,-166.12035270824697Z" fill-rule="evenodd" style="fill: #1DC690; stroke: #fff; opacity: 1;" id="p-type-logs"></path><path d="M46.35003561842232,-191.46977358886437A197,197,0,0,1,47.815603494790096,-191.10904756821174L41.40952732377221,-165.50529008712004A170.6070045455344,170.6070045455344,0,0,0,40.1403083118673,-165.8176879848113Z" fill-rule="evenodd" style="fill: #1DC690; stroke: #fff; opacity: 1;" id="p-type-logs"></path><path d="M47.815603494790096,-191.10904756821174A197,197,0,0,1,49.278364688670536,-190.73710381991856L42.67631567734272,-165.18317735231938A170.6070045455344,170.6070045455344,0,0,0,41.40952732377221,-165.50529008712004Z" fill-rule="evenodd" style="fill: #1DC690; stroke: #fff; opacity: 1;" id="p-type-logs"></path><path d="M49.278364688670536,-190.73710381991856A197,197,0,0,1,50.73823333884007,-190.353964176356L43.940599014578034,-164.85136868779728A170.6070045455344,170.6070045455344,0,0,0,42.67631567734272,-165.18317735231938Z" fill-rule="evenodd" style="fill: #1DC690; stroke: #fff; opacity: 1;" id="p-type-logs"></path><path d="M50.73823333884007,-190.353964176356A197,197,0,0,1,52.195123753861644,-189.95965112707242L45.202303124516774,-164.50988357007398A170.6070045455344,170.6070045455344,0,0,0,43.940599014578034,-164.85136868779728Z" fill-rule="evenodd" style="fill: #1DC690; stroke: #fff; opacity: 1;" id="p-type-logs"></path><path d="M52.195123753861644,-189.95965112707242A197,197,0,0,1,53.64895041711487,-189.55418781747332L46.46135394759323,-164.15874204365866A170.6070045455344,170.6070045455344,0,0,0,45.202303124516774,-164.50988357007398Z" fill-rule="evenodd" style="fill: #1DC690; stroke: #fff; opacity: 1;" id="p-type-logs"></path><path d="M53.64895041711487,-189.55418781747332A197,197,0,0,1,55.09962799181556,-189.13759804746263L47.717677579984425,-163.79796471987268A170.6070045455344,170.6070045455344,0,0,0,46.46135394759323,-164.15874204365866Z" fill-rule="evenodd" style="fill: #1DC690; stroke: #fff; opacity: 1;" id="p-type-logs"></path><path d="M55.09962799181556,-189.13759804746263A197,197,0,0,1,56.54707132602486,-188.70990627004576L48.97120027794813,-163.42757277563996A170.6070045455344,170.6070045455344,0,0,0,47.717677579984425,-163.79796471987268Z" fill-rule="evenodd" style="fill: #1DC690; stroke: #fff; opacity: 1;" id="p-type-logs"></path><path d="M56.54707132602486,-188.70990627004576A197,197,0,0,1,57.99119545764761,-188.2711375898943L50.22184846215158,-163.04758795224382A170.6070045455344,170.6070045455344,0,0,0,48.97120027794813,-163.42757277563996Z" fill-rule="evenodd" style="fill: #1DC690; stroke: #fff; opacity: 1;" id="p-type-logs"></path><path d="M57.99119545764761,-188.2711375898943A197,197,0,0,1,59.431915619419286,-187.82131776187236L51.46954872199027,-162.65803255405086A170.6070045455344,170.6070045455344,0,0,0,50.22184846215158,-163.04758795224382Z" fill-rule="evenodd" style="fill: #1DC690; stroke: #fff; opacity: 1;" id="p-type-logs"></path><path d="M59.431915619419286,-187.82131776187236A197,197,0,0,1,60.86914724388165,-187.36047318952484L52.714227819897054,-162.25892944720172A170.6070045455344,170.6070045455344,0,0,0,51.46954872199027,-162.65803255405086Z" fill-rule="evenodd" style="fill: #1DC690; stroke: #fff; opacity: 1;" id="p-type-logs"></path><path d="M60.86914724388165,-187.36047318952484A197,197,0,0,1,62.30280596834701,-186.8886309235276L53.95581269564125,-161.85030205826888A170.6070045455344,170.6070045455344,0,0,0,52.714227819897054,-162.25892944720172Z" fill-rule="evenodd" style="fill: #1DC690; stroke: #fff; opacity: 1;" id="p-type-logs"></path><path d="M62.30280596834701,-186.8886309235276A197,197,0,0,1,63.73280763984972,-186.40581866009953L55.1942304706168,-161.43217437288155A170.6070045455344,170.6070045455344,0,0,0,53.95581269564125,-161.85030205826888Z" fill-rule="evenodd" style="fill: #1DC690; stroke: #fff; opacity: 1;" id="p-type-logs"></path><path d="M63.73280763984972,-186.40581866009953A197,197,0,0,1,65.15906832008608,-185.91206473937712L56.42940845212038,-161.00457093431777A170.6070045455344,170.6070045455344,0,0,0,55.1942304706168,-161.43217437288155Z" fill-rule="evenodd" style="fill: #1DC690; stroke: #fff; opacity: 1;" id="p-type-logs"></path><path d="M65.15906832008608,-185.91206473937712A197,197,0,0,1,66.58150429034127,-185.40739814375064L57.66127413761813,-160.56751684206384A170.6070045455344,170.6070045455344,0,0,0,56.42940845212038,-161.00457093431777Z" fill-rule="evenodd" style="fill: #1DC690; stroke: #fff; opacity: 1;" id="p-type-logs"></path><path d="M66.58150429034127,-185.40739814375064A197,197,0,0,1,68.0000320564034,-184.89184849616305L58.88975521900152,-160.12103775034086A170.6070045455344,170.6070045455344,0,0,0,57.66127413761813,-160.56751684206384Z" fill-rule="evenodd" style="fill: #1DC690; stroke: #fff; opacity: 1;" id="p-type-logs"></path><path d="M68.0000320564034,-184.89184849616305A197,197,0,0,1,69.41456835346469,-184.3654460583712L60.11477958683177,-159.66515986659905A170.6070045455344,170.6070045455344,0,0,0,58.88975521900152,-160.12103775034086Z" fill-rule="evenodd" style="fill: #1DC690; stroke: #fff; opacity: 1;" id="p-type-logs"></path><path d="M69.41456835346469,-184.3654460583712A197,197,0,0,1,70.82503015100862,-183.82822172916954L61.336275334572285,-159.19990994997937A170.6070045455344,170.6070045455344,0,0,0,60.11477958683177,-159.66515986659905Z" fill-rule="evenodd" style="fill: #1DC690; stroke: #fff; opacity: 1;" id="p-type-logs"></path><path d="M70.82503015100862,-183.82822172916954A197,197,0,0,1,72.23133465768389,-183.2802070425764L62.554170762809605,-158.72531530974274A170.6070045455344,170.6070045455344,0,0,0,61.336275334572285,-159.19990994997937Z" fill-rule="evenodd" style="fill: #1DC690; stroke: #fff; opacity: 1;" id="p-type-logs"></path><path d="M72.23133465768389,-183.2802070425764A197,197,0,0,1,73.63339932616411,-182.721434165983L63.76839438346209,-158.24140380366714A170.6070045455344,170.6070045455344,0,0,0,62.554170762809605,-158.72531530974274Z" fill-rule="evenodd" style="fill: #1DC690; stroke: #fff; opacity: 1;" id="p-type-logs"></path><path d="M73.63339932616411,-182.721434165983A197,197,0,0,1,75.03114185799303,-182.15193589826524L64.97887492397591,-157.74820383641233A170.6070045455344,170.6070045455344,0,0,0,63.76839438346209,-158.24140380366714Z" fill-rule="evenodd" style="fill: #1DC690; stroke: #fff; opacity: 1;" id="p-type-logs"></path><path d="M75.03114185799303,-182.15193589826524A197,197,0,0,1,76.4244802084154,-181.57174566785858L66.18554133150879,-157.24574435785263A170.6070045455344,170.6070045455344,0,0,0,64.97887492397591,-157.74820383641233Z" fill-rule="evenodd" style="fill: #1DC690; stroke: #fff; opacity: 1;" id="p-type-logs"></path><path d="M76.4244802084154,-181.57174566785858A197,197,0,0,1,77.81333259119282,-180.9808975307958L67.38832277710058,-156.73405486137753A170.6070045455344,170.6070045455344,0,0,0,66.18554133150879,-157.24574435785263Z" fill-rule="evenodd" style="fill: #1DC690; stroke: #fff; opacity: 1;" id="p-type-logs"></path><path d="M77.81333259119282,-180.9808975307958A197,197,0,0,1,79.19761748340436,-180.37942616870794L68.58714865983077,-156.21316538216064A170.6070045455344,170.6070045455344,0,0,0,67.38832277710058,-156.73405486137753Z" fill-rule="evenodd" style="fill: #1DC690; stroke: #fff; opacity: 1;" id="p-type-logs"></path><path d="M79.19761748340436,-180.37942616870794A197,197,0,0,1,80.577253630232,-179.7673668867886L69.78194861096279,-155.68310649539643A170.6070045455344,170.6070045455344,0,0,0,68.58714865983077,-156.21316538216064Z" fill-rule="evenodd" style="fill: #1DC690; stroke: #fff; opacity: 1;" id="p-type-logs"></path><path d="M80.577253630232,-179.7673668867886A197,197,0,0,1,81.95216004972988,-179.1447556117216L70.97265249807425,-155.14390931450578A170.6070045455344,170.6070045455344,0,0,0,69.78194861096279,-155.68310649539643Z" fill-rule="evenodd" style="fill: #1DC690; stroke: #fff; opacity: 1;" id="p-type-logs"></path><path d="M81.95216004972988,-179.1447556117216A197,197,0,0,1,83.32225603757787,-178.5116288895721L72.15919042917375,-154.59560548930955A170.6070045455344,170.6070045455344,0,0,0,70.97265249807425,-155.14390931450578Z" fill-rule="evenodd" style="fill: #1DC690; stroke: #fff; opacity: 1;" id="p-type-logs"></path><path d="M83.32225603757787,-178.5116288895721A197,197,0,0,1,84.68746117181892,-177.86802388364148L73.34149275680345,-154.0382272041708A170.6070045455344,170.6070045455344,0,0,0,72.15919042917375,-154.59560548930955Z" fill-rule="evenodd" style="fill: #1DC690; stroke: #fff; opacity: 1;" id="p-type-logs"></path><path d="M84.68746117181892,-177.86802388364148A197,197,0,0,1,86.04769531757938,-177.21397837228594L74.51949008212704,-153.4718071761057A170.6070045455344,170.6070045455344,0,0,0,73.34149275680345,-154.0382272041708Z" fill-rule="evenodd" style="fill: #1DC690; stroke: #fff; opacity: 1;" id="p-type-logs"></path><path d="M86.04769531757938,-177.21397837228594A197,197,0,0,1,87.40287863177298,-176.54953074669885L75.69311325900347,-152.89637865286304A170.6070045455344,170.6070045455344,0,0,0,74.51949008212704,-153.4718071761057Z" fill-rule="evenodd" style="fill: #1DC690; stroke: #fff; opacity: 1;" id="p-type-logs"></path><path d="M87.40287863177298,-176.54953074669885A197,197,0,0,1,88.75293156778736,-175.87472000865745L76.8622933980457,-152.31197541097265A170.6070045455344,170.6070045455344,0,0,0,75.69311325900347,-152.89637865286304Z" fill-rule="evenodd" style="fill: #1DC690; stroke: #fff; opacity: 1;" id="p-type-logs"></path><path d="M88.75293156778736,-175.87472000865745A197,197,0,0,1,90.09777488015332,-175.1895857682334L78.02696187066424,-151.71863175376288A170.6070045455344,170.6070045455344,0,0,0,76.8622933980457,-152.31197541097265Z" fill-rule="evenodd" style="fill: #1DC690; stroke: #fff; opacity: 1;" id="p-type-logs"></path><path d="M90.09777488015332,-175.1895857682334A197,197,0,0,1,91.43732962919654,-174.49416824146778L79.18705031309575,-151.1163825093469A170.6070045455344,170.6070045455344,0,0,0,78.02696187066424,-151.71863175376288Z" fill-rule="evenodd" style="fill: #1DC690; stroke: #fff; opacity: 1;" id="p-type-logs"></path><path d="M91.43732962919654,-174.49416824146778A197,197,0,0,1,92.77151718567082,-173.78850824801043L80.34249063041555,-150.50526302857847A170.6070045455344,170.6070045455344,0,0,0,79.18705031309575,-151.1163825093469Z" fill-rule="evenodd" style="fill: #1DC690; stroke: #fff; opacity: 1;" id="p-type-logs"></path><path d="M92.77151718567082,-173.78850824801043A197,197,0,0,1,94.10025923537376,-173.07264720872405L81.4932150005349,-149.88530918297693A170.6070045455344,170.6070045455344,0,0,0,80.34249063041555,-150.50526302857847Z" fill-rule="evenodd" style="fill: #1DC690; stroke: #fff; opacity: 1;" id="p-type-logs"></path><path d="M94.10025923537376,-173.07264720872405A197,197,0,0,1,95.42347778374368,-172.34662714325273L82.63915587818202,-149.25655736262152A170.6070045455344,170.6070045455344,0,0,0,81.4932150005349,-149.88530918297693Z" fill-rule="evenodd" style="fill: #1DC690; stroke: #fff; opacity: 1;" id="p-type-logs"></path><path d="M95.42347778374368,-172.34662714325273A197,197,0,0,1,96.74109516043738,-171.61049066755564L83.78024599886658,-148.6190444740155A170.6070045455344,170.6070045455344,0,0,0,82.63915587818202,-149.25655736262152Z" fill-rule="evenodd" style="fill: #1DC690; stroke: #fff; opacity: 1;" id="p-type-logs"></path><path d="M96.74109516043738,-171.61049066755564A197,197,0,0,1,98.0530340238898,-170.8642809914053L84.91641838282845,-147.97280793791955A170.6070045455344,170.6070045455344,0,0,0,83.78024599886658,-148.6190444740155Z" fill-rule="evenodd" style="fill: #1DC690; stroke: #fff; opacity: 1;" id="p-type-logs"></path><path d="M98.0530340238898,-170.8642809914053A197,197,0,0,1,99.35921736585318,-170.10804191585163L86.0476063389688,-147.3178856871556A170.6070045455344,170.6070045455344,0,0,0,84.91641838282845,-147.97280793791955Z" fill-rule="evenodd" style="fill: #1DC690; stroke: #fff; opacity: 1;" id="p-type-logs"></path><path d="M99.35921736585318,-170.10804191585163A197,197,0,0,1,100.65956851591797,-169.34181783065048L87.17374346876522,-146.65431616437994A170.6070045455344,170.6070045455344,0,0,0,86.0476063389688,-147.3178856871556Z" fill-rule="evenodd" style="fill: #1DC690; stroke: #fff; opacity: 1;" id="p-type-logs"></path><path d="M100.65956851591797,-169.34181783065048A197,197,0,0,1,101.95401114601256,-168.56565371165843L88.29476367016869,-145.98213831982684A170.6070045455344,170.6070045455344,0,0,0,87.17374346876522,-146.65431616437994Z" fill-rule="evenodd" style="fill: #1DC690; stroke: #fff; opacity: 1;" id="p-type-logs"></path><path d="M101.95401114601256,-168.56565371165843A197,197,0,0,1,103.24246927488421,-167.77959511819245L89.41060114148411,-145.30139160902223A170.6070045455344,170.6070045455344,0,0,0,88.29476367016869,-145.98213831982684Z" fill-rule="evenodd" style="fill: #1DC690; stroke: #fff; opacity: 1;" id="p-type-logs"></path><path d="M103.24246927488421,-167.77959511819245A197,197,0,0,1,104.52486727255847,-166.98368819035602L90.5211903852323,-144.61211599046786A170.6070045455344,170.6070045455344,0,0,0,89.41060114148411,-145.30139160902223Z" fill-rule="evenodd" style="fill: #1DC690; stroke: #fff; opacity: 1;" id="p-type-logs"></path><path d="M104.52486727255847,-166.98368819035602A197,197,0,0,1,105.80112986477891,-166.17797964633036L91.62646621199498,-143.91435192329547A170.6070045455344,170.6070045455344,0,0,0,90.5211903852323,-144.61211599046786Z" fill-rule="evenodd" style="fill: #1DC690; stroke: #fff; opacity: 1;" id="p-type-logs"></path><path d="M105.80112986477891,-166.17797964633036A197,197,0,0,1,107.07118213742528,-165.3625167796327L92.7263637442409,-143.20814036489242A170.6070045455344,170.6070045455344,0,0,0,91.62646621199498,-143.91435192329547Z" fill-rule="evenodd" style="fill: #1DC690; stroke: #fff; opacity: 1;" id="p-type-logs"></path><path d="M107.07118213742528,-165.3625167796327A197,197,0,0,1,108.33494954091107,-164.5373474563397L93.82081842013429,-142.49352276849706A170.6070045455344,170.6070045455344,0,0,0,92.7263637442409,-143.20814036489242Z" fill-rule="evenodd" style="fill: #1DC690; stroke: #fff; opacity: 1;" id="p-type-logs"></path><path d="M108.33494954091107,-164.5373474563397A197,197,0,0,1,109.59235789455926,-163.70252011227817L94.90976599732439,-141.7705410807659A170.6070045455344,170.6070045455344,0,0,0,93.82081842013429,-142.49352276849706Z" fill-rule="evenodd" style="fill: #1DC690; stroke: #fff; opacity: 1;" id="p-type-logs"></path><path d="M109.59235789455926,-163.70252011227817A197,197,0,0,1,110.8433333909566,-162.85808375018186L95.99314255671634,-141.03923773931115A170.6070045455344,170.6070045455344,0,0,0,94.90976599732439,-141.7705410807659Z" fill-rule="evenodd" style="fill: #1DC690; stroke: #fff; opacity: 1;" id="p-type-logs"></path><path d="M110.8433333909566,-162.85808375018186A197,197,0,0,1,112.08780260028604,-162.00408793681507L97.07088450622317,-140.29965567020997A170.6070045455344,170.6070045455344,0,0,0,95.99314255671634,-141.03923773931115Z" fill-rule="evenodd" style="fill: #1DC690; stroke: #fff; opacity: 1;" id="p-type-logs"></path><path d="M112.08780260028604,-162.00408793681507A197,197,0,0,1,113.32569247463685,-161.14058280006324L98.1429285844985,-139.55183828548454A170.6070045455344,170.6070045455344,0,0,0,97.07088450622317,-140.29965567020997Z" fill-rule="evenodd" style="fill: #1DC690; stroke: #fff; opacity: 1;" id="p-type-logs"></path><path d="M113.32569247463685,-161.14058280006324A197,197,0,0,1,114.5569303522924,-160.2676190259905L99.20921186464983,-138.795829480554A170.6070045455344,170.6070045455344,0,0,0,98.1429285844985,-139.55183828548454Z" fill-rule="evenodd" style="fill: #1DC690; stroke: #fff; opacity: 1;" id="p-type-logs"></path><path d="M114.5569303522924,-160.2676190259905A197,197,0,0,1,115.78144396199525,-159.3852478558645L100.2696717579323,-138.03167363165787A170.6070045455344,170.6070045455344,0,0,0,99.20921186464983,-138.795829480554Z" fill-rule="evenodd" style="fill: #1DC690; stroke: #fff; opacity: 1;" id="p-type-logs"></path><path d="M115.78144396199525,-159.3852478558645A197,197,0,0,1,116.99916142718936,-158.49352108314864L101.3242460174224,-137.25941559325122A170.6070045455344,170.6070045455344,0,0,0,100.2696717579323,-138.03167363165787Z" fill-rule="evenodd" style="fill: #1DC690; stroke: #fff; opacity: 1;" id="p-type-logs"></path><path d="M116.99916142718936,-158.49352108314864A197,197,0,0,1,118.21001127023916,-157.59249105046194L102.37287274167191,-136.47910069537184A170.6070045455344,170.6070045455344,0,0,0,101.3242460174224,-137.25941559325122Z" fill-rule="evenodd" style="fill: #1DC690; stroke: #fff; opacity: 1;" id="p-type-logs"></path><path d="M118.21001127023916,-157.59249105046194A197,197,0,0,1,119.41392241662496,-156.68221064650663L103.41549037834126,-135.69077474097938A170.6070045455344,170.6070045455344,0,0,0,102.37287274167191,-136.47910069537184Z" fill-rule="evenodd" style="fill: #1DC690; stroke: #fff; opacity: 1;" id="p-type-logs"></path><path d="M119.41392241662496,-156.68221064650663A197,197,0,0,1,120.6108241991151,-155.76273330296354L104.4520377278126,-134.89448400326683A170.6070045455344,170.6070045455344,0,0,0,103.41549037834126,-135.69077474097938Z" fill-rule="evenodd" style="fill: #1DC690; stroke: #fff; opacity: 1;" id="p-type-logs"></path><path d="M120.6108241991151,-155.76273330296354A197,197,0,0,1,121.8006463619138,-154.83411299135605L105.48245394678202,-134.0902752229445A170.6070045455344,170.6070045455344,0,0,0,104.4520377278126,-134.89448400326683Z" fill-rule="evenodd" style="fill: #1DC690; stroke: #fff; opacity: 1;" id="p-type-logs"></path><path d="M121.8006463619138,-154.83411299135605A197,197,0,0,1,122.98331906478522,-153.89640421988176L106.50667855183107,-133.27819560549628A170.6070045455344,170.6070045455344,0,0,0,105.48245394678202,-134.0902752229445Z" fill-rule="evenodd" style="fill: #1DC690; stroke: #fff; opacity: 1;" id="p-type-logs"></path><path d="M122.98331906478522,-153.89640421988176A197,197,0,0,1,124.15877288715278,-152.94966203021312L107.5246514229769,-132.45829281840872A170.6070045455344,170.6070045455344,0,0,0,106.50667855183107,-133.27819560549628Z" fill-rule="evenodd" style="fill: #1DC690; stroke: #fff; opacity: 1;" id="p-type-logs"></path><path d="M124.15877288715278,-152.94966203021312A197,197,0,0,1,125.32693883217411,-151.99394199426663L108.53631280720121,-131.6306149883733A170.6070045455344,170.6070045455344,0,0,0,107.5246514229769,-132.45829281840872Z" fill-rule="evenodd" style="fill: #1DC690; stroke: #fff; opacity: 1;" id="p-type-logs"></path><path d="M125.32693883217411,-151.99394199426663A197,197,0,0,1,126.48774833079094,-151.02930021094085L109.54160332195767,-130.79521069846123A170.6070045455344,170.6070045455344,0,0,0,108.53631280720121,-131.6306149883733Z" fill-rule="evenodd" style="fill: #1DC690; stroke: #fff; opacity: 1;" id="p-type-logs"></path><path d="M126.48774833079094,-151.02930021094085A197,197,0,0,1,127.6411332457541,-150.05579330282336L110.54046395865753,-129.95212898527186A170.6070045455344,170.6070045455344,0,0,0,109.54160332195767,-130.79521069846123Z" fill-rule="evenodd" style="fill: #1DC690; stroke: #fff; opacity: 1;" id="p-type-logs"></path><path d="M127.6411332457541,-150.05579330282336A197,197,0,0,1,128.78702587562296,-149.07347841286733L111.53283608613332,-129.10141933605425A170.6070045455344,170.6070045455344,0,0,0,110.54046395865753,-129.95212898527186Z" fill-rule="evenodd" style="fill: #1DC690; stroke: #fff; opacity: 1;" id="p-type-logs"></path><path d="M128.78702587562296,-149.07347841286733A197,197,0,0,1,129.92535895873934,-148.08241320103727L112.51866145408036,-128.24313168580238A170.6070045455344,170.6070045455344,0,0,0,111.53283608613332,-129.10141933605425Z" fill-rule="evenodd" style="fill: #1DC690; stroke: #fff; opacity: 1;" id="p-type-logs"></path><path d="M129.92535895873934,-148.08241320103727A197,197,0,0,1,131.05606567717572,-147.0826558409244L113.49788219647601,-127.37731641432416A170.6070045455344,170.6070045455344,0,0,0,112.51866145408036,-128.24313168580238Z" fill-rule="evenodd" style="fill: #1DC690; stroke: #fff; opacity: 1;" id="p-type-logs"></path><path d="M131.05606567717572,-147.0826558409244A197,197,0,0,1,132.17907966065727,-146.07426501633208L114.47044083497619,-126.50402434328409A170.6070045455344,170.6070045455344,0,0,0,113.49788219647601,-127.37731641432416Z" fill-rule="evenodd" style="fill: #1DC690; stroke: #fff; opacity: 1;" id="p-type-logs"></path><path d="M132.17907966065727,-146.07426501633208A197,197,0,0,1,133.29433499045768,-145.05729991783124L115.43628028228936,-125.62330673322023A170.6070045455344,170.6070045455344,0,0,0,114.47044083497619,-126.50402434328409Z" fill-rule="evenodd" style="fill: #1DC690; stroke: #fff; opacity: 1;" id="p-type-logs"></path><path d="M133.29433499045768,-145.05729991783124A197,197,0,0,1,134.40176620326847,-144.03182023928588L116.3953438455273,-124.73521528053523A170.6070045455344,170.6070045455344,0,0,0,115.43628028228936,-125.62330673322023Z" fill-rule="evenodd" style="fill: #1DC690; stroke: #fff; opacity: 1;" id="p-type-logs"></path><path d="M134.40176620326847,-144.03182023928588A197,197,0,0,1,135.50130829504147,-142.9978861743492L117.34757522953298,-123.83980211446195A170.6070045455344,170.6070045455344,0,0,0,116.3953438455273,-124.73521528053523Z" fill-rule="evenodd" style="fill: #1DC690; stroke: #fff; opacity: 1;" id="p-type-logs"></path><path d="M135.50130829504147,-142.9978861743492A197,197,0,0,1,136.59289672480455,-141.95555841293034L118.29291854018498,-122.93711979400346A170.6070045455344,170.6070045455344,0,0,0,117.34757522953298,-123.83980211446195Z" fill-rule="evenodd" style="fill: #1DC690; stroke: #fff; opacity: 1;" id="p-type-logs"></path><path d="M136.59289672480455,-141.95555841293034A197,197,0,0,1,137.67646741845,-140.9048981376321L119.23131828767826,-122.02722130484803A170.6070045455344,170.6070045455344,0,0,0,118.29291854018498,-122.93711979400346Z" fill-rule="evenodd" style="fill: #1DC690; stroke: #fff; opacity: 1;" id="p-type-logs"></path><path d="M137.67646741845,-140.9048981376321A197,197,0,0,1,138.75195677249553,-139.8459670201595L120.16271938978142,-121.1101600562589A170.6070045455344,170.6070045455344,0,0,0,119.23131828767826,-122.02722130484803Z" fill-rule="evenodd" style="fill: #1DC690; stroke: #fff; opacity: 1;" id="p-type-logs"></path><path d="M196.9939245765381,-1.5471522010513998A197,197,0,0,1,196.99999636278585,-0.0378558101364767L170.60700139561456,-0.032784093259029284A170.6070045455344,170.6070045455344,0,0,0,170.60174307447767,-1.3398731096315215Z" fill-rule="evenodd" style="fill: #D7A449; stroke: #fff; opacity: 1;" id="p-type-tokenTransfers"></path><path d="M196.99999636278585,-0.0378558101364767A197,197,0,0,1,196.99450463421047,1.4714428028405264L170.60224541915758,1.274306847475673A170.6070045455344,170.6070045455344,0,0,0,170.60700139561456,-0.032784093259029284Z" fill-rule="evenodd" style="fill: #D7A449; stroke: #fff; opacity: 1;" id="p-type-tokenTransfers"></path><path d="M196.99450463421047,1.4714428028405264A197,197,0,0,1,196.97744971316567,2.980655045000391L170.58747542427326,2.581322988888588A170.6070045455344,170.6070045455344,0,0,0,170.60224541915758,1.274306847475673Z" fill-rule="evenodd" style="fill: #D7A449; stroke: #fff; opacity: 1;" id="p-type-tokenTransfers"></path><path d="M196.97744971316567,2.980655045000391A197,197,0,0,1,196.94883260074204,4.489692328533699L170.56269227793143,3.8881876116862926A170.6070045455344,170.6070045455344,0,0,0,170.58747542427326,2.581322988888588Z" fill-rule="evenodd" style="fill: #D7A449; stroke: #fff; opacity: 1;" id="p-type-tokenTransfers"></path><path d="M196.94883260074204,4.489692328533699A197,197,0,0,1,196.90865497670808,5.998466075900757L170.52789743485434,5.1948240054692105A170.6070045455344,170.6070045455344,0,0,0,170.56269227793143,3.8881876116862926Z" fill-rule="evenodd" style="fill: #D7A449; stroke: #fff; opacity: 1;" id="p-type-tokenTransfers"></path><path d="M196.90865497670808,5.998466075900757A197,197,0,0,1,196.8569191994119,7.5068877250309365L170.48309293743128,6.501155473234363A170.6070045455344,170.6070045455344,0,0,0,170.52789743485434,5.1948240054692105Z" fill-rule="evenodd" style="fill: #D7A449; stroke: #fff; opacity: 1;" id="p-type-tokenTransfers"></path><path d="M196.8569191994119,7.5068877250309365A197,197,0,0,1,196.79362830564244,9.01486873452108L170.42828141559872,7.80710533587733A170.6070045455344,170.6070045455344,0,0,0,170.48309293743128,6.501155473234363Z" fill-rule="evenodd" style="fill: #D7A449; stroke: #fff; opacity: 1;" id="p-type-tokenTransfers"></path><path d="M196.79362830564244,9.01486873452108A197,197,0,0,1,196.71878601045157,10.522320588832724L170.3634660866859,9.112596936693173A170.6070045455344,170.6070045455344,0,0,0,170.42828141559872,7.80710533587733Z" fill-rule="evenodd" style="fill: #D7A449; stroke: #fff; opacity: 1;" id="p-type-tokenTransfers"></path><path d="M196.71878601045157,10.522320588832724A197,197,0,0,1,196.63239670693568,12.02915480348777L170.2886507552259,10.417553645876017A170.6070045455344,170.6070045455344,0,0,0,170.3634660866859,9.112596936693173Z" fill-rule="evenodd" style="fill: #D7A449; stroke: #fff; opacity: 1;" id="p-type-tokenTransfers"></path><path d="M196.63239670693568,12.02915480348777A197,197,0,0,1,196.53446546597814,13.53528293026237L170.20383981273253,11.721898865017089A170.6070045455344,170.6070045455344,0,0,0,170.2886507552259,10.417553645876017Z" fill-rule="evenodd" style="fill: #D7A449; stroke: #fff; opacity: 1;" id="p-type-tokenTransfers"></path><path d="M196.53446546597814,13.53528293026237A197,197,0,0,1,196.42499803595138,15.04061656237865L170.10903823744235,13.025556031600885A170.6070045455344,170.6070045455344,0,0,0,170.20383981273253,11.721898865017089Z" fill-rule="evenodd" style="fill: #D7A449; stroke: #fff; opacity: 1;" id="p-type-tokenTransfers"></path><path d="M196.42499803595138,15.04061656237865A197,197,0,0,1,196.30400084237965,16.545067339694018L170.0042515940226,14.32844862349924A170.6070045455344,170.6070045455344,0,0,0,170.10903823744235,13.025556031600885Z" fill-rule="evenodd" style="fill: #D7A449; stroke: #fff; opacity: 1;" id="p-type-tokenTransfers"></path><path d="M196.30400084237965,16.545067339694018A197,197,0,0,1,196.17148098756175,18.04854695388774L169.8894860332445,15.630500163463031A170.6070045455344,170.6070045455344,0,0,0,170.0042515940226,14.32844862349924Z" fill-rule="evenodd" style="fill: #D7A449; stroke: #fff; opacity: 1;" id="p-type-tokenTransfers"></path><path d="M196.17148098756175,18.04854695388774A197,197,0,0,1,196.02744625015424,19.550967153644454L169.76474829162217,16.931634223611233A170.6070045455344,170.6070045455344,0,0,0,169.8894860332445,15.630500163463031Z" fill-rule="evenodd" style="fill: #D7A449; stroke: #fff; opacity: 1;" id="p-type-tokenTransfers"></path><path d="M196.02744625015424,19.550967153644454A197,197,0,0,1,195.87190508471474,21.052239749834353L169.6300456910173,18.231774429917106A170.6070045455344,170.6070045455344,0,0,0,169.76474829162217,16.931634223611233Z" fill-rule="evenodd" style="fill: #D7A449; stroke: #fff; opacity: 1;" id="p-type-tokenTransfers"></path><path d="M195.87190508471474,21.052239749834353A197,197,0,0,1,195.70486662120567,22.552276620689724L169.48538613820932,19.530844466691175A170.6070045455344,170.6070045455344,0,0,0,169.6300456910173,18.231774429917106Z" fill-rule="evenodd" style="fill: #D7A449; stroke: #fff; opacity: 1;" id="p-type-tokenTransfers"></path><path d="M195.70486662120567,22.552276620689724A197,197,0,0,1,195.52634066445842,24.050989716977515L169.3307781244313,20.828768081060833A170.6070045455344,170.6070045455344,0,0,0,169.48538613820932,19.530844466691175Z" fill-rule="evenodd" style="fill: #D7A449; stroke: #fff; opacity: 1;" id="p-type-tokenTransfers"></path><path d="M195.52634066445842,24.050989716977515A197,197,0,0,1,195.3363376935978,25.54829106716765L169.1662307248715,22.12546908744623A170.6070045455344,170.6070045455344,0,0,0,169.3307781244313,20.828768081060833Z" fill-rule="evenodd" style="fill: #D7A449; stroke: #fff; opacity: 1;" id="p-type-tokenTransfers"></path><path d="M195.3363376935978,25.54829106716765A197,197,0,0,1,195.13486886142695,27.04409278259679L168.99175359814078,23.420871372032206A170.6070045455344,170.6070045455344,0,0,0,169.1662307248715,22.12546908744623Z" fill-rule="evenodd" style="fill: #D7A449; stroke: #fff; opacity: 1;" id="p-type-tokenTransfers"></path><path d="M195.13486886142695,27.04409278259679A197,197,0,0,1,194.9219459937726,28.538307062627233L168.80735698570544,24.714898897236043A170.6070045455344,170.6070045455344,0,0,0,168.99175359814078,23.420871372032206Z" fill-rule="evenodd" style="fill: #D7A449; stroke: #fff; opacity: 1;" id="p-type-tokenTransfers"></path><path d="M194.9219459937726,28.538307062627233A197,197,0,0,1,194.69758158879097,30.030846199800624L168.6130517112864,26.00747570617071A170.6070045455344,170.6070045455344,0,0,0,168.80735698570544,24.714898897236043Z" fill-rule="evenodd" style="fill: #D7A449; stroke: #fff; opacity: 1;" id="p-type-tokenTransfers"></path><path d="M194.69758158879097,30.030846199800624A197,197,0,0,1,194.46178881623425,31.52162258498623L168.40884918022348,27.29852592710338A170.6070045455344,170.6070045455344,0,0,0,168.6130517112864,26.00747570617071Z" fill-rule="evenodd" style="fill: #D7A449; stroke: #fff; opacity: 1;" id="p-type-tokenTransfers"></path><path d="M194.46178881623425,31.52162258498623A197,197,0,0,1,194.21458151667736,33.01054871252341L168.19476137880628,28.587973777908964A170.6070045455344,170.6070045455344,0,0,0,168.40884918022348,27.29852592710338Z" fill-rule="evenodd" style="fill: #D7A449; stroke: #fff; opacity: 1;" id="p-type-tokenTransfers"></path><path d="M194.21458151667736,33.01054871252341A197,197,0,0,1,193.95597420070575,34.49753718535802L167.97080087357037,29.875743570518363A170.6070045455344,170.6070045455344,0,0,0,168.19476137880628,28.587973777908964Z" fill-rule="evenodd" style="fill: #D7A449; stroke: #fff; opacity: 1;" id="p-type-tokenTransfers"></path><path d="M193.95597420070575,34.49753718535802A197,197,0,0,1,193.68598204806352,35.98250072017248L167.73698081055974,31.161759715361228A170.6070045455344,170.6070045455344,0,0,0,167.97080087357037,29.875743570518363Z" fill-rule="evenodd" style="fill: #D7A449; stroke: #fff; opacity: 1;" id="p-type-tokenTransfers"></path><path d="M193.68598204806352,35.98250072017248A197,197,0,0,1,193.4046209067624,37.465352152509105L167.49331491455519,32.445946725802884A170.6070045455344,170.6070045455344,0,0,0,167.73698081055974,31.161759715361228Z" fill-rule="evenodd" style="fill: #D7A449; stroke: #fff; opacity: 1;" id="p-type-tokenTransfers"></path><path d="M193.4046209067624,37.465352152509105A197,197,0,0,1,193.1119072921516,38.9460044418865L167.23981748826867,33.7282292225753A170.6070045455344,170.6070045455344,0,0,0,167.49331491455519,32.445946725802884Z" fill-rule="evenodd" style="fill: #D7A449; stroke: #fff; opacity: 1;" id="p-type-tokenTransfers"></path><path d="M193.1119072921516,38.9460044418865A197,197,0,0,1,192.80785838594826,40.424370676908666L166.97650341150373,35.00853193820165A170.6070045455344,170.6070045455344,0,0,0,167.23981748826867,33.7282292225753Z" fill-rule="evenodd" style="fill: #D7A449; stroke: #fff; opacity: 1;" id="p-type-tokenTransfers"></path><path d="M192.80785838594826,40.424370676908666A197,197,0,0,1,192.49249203522908,41.90036408036652L166.7033881402821,36.286779721414405A170.6070045455344,170.6070045455344,0,0,0,166.97650341150373,35.00853193820165Z" fill-rule="evenodd" style="fill: #D7A449; stroke: #fff; opacity: 1;" id="p-type-tokenTransfers"></path><path d="M192.49249203522908,41.90036408036652A197,197,0,0,1,192.16582675138253,43.37389801433157L166.42048770593652,37.56289754156656A170.6070045455344,170.6070045455344,0,0,0,166.7033881402821,36.286779721414405Z" fill-rule="evenodd" style="fill: #D7A449; stroke: #fff; opacity: 1;" id="p-type-tokenTransfers"></path><path d="M192.16582675138253,43.37389801433157A197,197,0,0,1,191.82788170902245,44.844885985241355L166.12781871416968,38.836810493035756A170.6070045455344,170.6070045455344,0,0,0,166.42048770593652,37.56289754156656Z" fill-rule="evenodd" style="fill: #D7A449; stroke: #fff; opacity: 1;" id="p-type-tokenTransfers"></path><path d="M191.82788170902245,44.844885985241355A197,197,0,0,1,191.47867674486238,46.313241648976486L165.82539834407945,40.10844379962114A170.6070045455344,170.6070045455344,0,0,0,166.12781871416968,38.836810493035756Z" fill-rule="evenodd" style="fill: #D7A449; stroke: #fff; opacity: 1;" id="p-type-tokenTransfers"></path><path d="M191.47867674486238,46.313241648976486A197,197,0,0,1,191.11823235655143,47.77887881592886L165.51324434715062,41.377722818932554A170.6070045455344,170.6070045455344,0,0,0,165.82539834407945,40.10844379962114Z" fill-rule="evenodd" style="fill: #D7A449; stroke: #fff; opacity: 1;" id="p-type-tokenTransfers"></path><path d="M191.11823235655143,47.77887881592886A197,197,0,0,1,190.74656970147078,49.24171145606083L165.19137504621278,42.64457304677189A170.6070045455344,170.6070045455344,0,0,0,165.51324434715062,41.377722818932554Z" fill-rule="evenodd" style="fill: #D7A449; stroke: #fff; opacity: 1;" id="p-type-tokenTransfers"></path><path d="M190.74656970147078,49.24171145606083A197,197,0,0,1,190.363710595492,50.70165370395495L164.85980933436497,43.90892012150637A170.6070045455344,170.6070045455344,0,0,0,165.19137504621278,42.64457304677189Z" fill-rule="evenodd" style="fill: #D7A449; stroke: #fff; opacity: 1;" id="p-type-tokenTransfers"></path><path d="M190.363710595492,50.70165370395495A197,197,0,0,1,189.96967751169646,52.15861986385423L164.51856667386653,45.1706898284334A170.6070045455344,170.6070045455344,0,0,0,164.85980933436497,43.90892012150637Z" fill-rule="evenodd" style="fill: #D7A449; stroke: #fff; opacity: 1;" id="p-type-tokenTransfers"></path><path d="M189.96967751169646,52.15861986385423A197,197,0,0,1,189.5644935790562,53.61252441469215L164.16766709499478,46.429808104136846A170.6070045455344,170.6070045455344,0,0,0,164.51856667386653,45.1706898284334Z" fill-rule="evenodd" style="fill: #D7A449; stroke: #fff; opacity: 1;" id="p-type-tokenTransfers"></path><path d="M189.5644935790562,53.61252441469215A197,197,0,0,1,189.14818258107627,55.063282015112705L163.8071311948693,47.6862010408344A170.6070045455344,170.6070045455344,0,0,0,164.16766709499478,46.429808104136846Z" fill-rule="evenodd" style="fill: #D7A449; stroke: #fff; opacity: 1;" id="p-type-tokenTransfers"></path><path d="M189.14818258107627,55.063282015112705A197,197,0,0,1,188.72076895439875,56.51080750847972L163.4369801362429,48.93979489071584A170.6070045455344,170.6070045455344,0,0,0,163.8071311948693,47.6862010408344Z" fill-rule="evenodd" style="fill: #D7A449; stroke: #fff; opacity: 1;" id="p-type-tokenTransfers"></path><path d="M188.72076895439875,56.51080750847972A197,197,0,0,1,188.28227778736826,57.95501592787537L163.05723564625944,50.19051607027184A170.6070045455344,170.6070045455344,0,0,0,163.4369801362429,48.93979489071584Z" fill-rule="evenodd" style="fill: #D7A449; stroke: #fff; opacity: 1;" id="p-type-tokenTransfers"></path><path d="M188.28227778736826,57.95501592787537A197,197,0,0,1,187.8327348185595,59.395822501087636L162.66792001517837,51.43829116461327A170.6070045455344,170.6070045455344,0,0,0,163.05723564625944,50.19051607027184Z" fill-rule="evenodd" style="fill: #D7A449; stroke: #fff; opacity: 1;" id="p-type-tokenTransfers"></path><path d="M187.8327348185595,59.395822501087636A197,197,0,0,1,187.37216643526622,60.83314265558616L162.26905609506647,52.68304693178036A170.6070045455344,170.6070045455344,0,0,0,162.66792001517837,51.43829116461327Z" fill-rule="evenodd" style="fill: #D7A449; stroke: #fff; opacity: 1;" id="p-type-tokenTransfers"></path><path d="M187.37216643526622,60.83314265558616A197,197,0,0,1,186.90059967195253,62.2668920234866L161.8606672984564,53.92471030704202A170.6070045455344,170.6070045455344,0,0,0,162.26905609506647,52.68304693178036Z" fill-rule="evenodd" style="fill: #D7A449; stroke: #fff; opacity: 1;" id="p-type-tokenTransfers"></path><path d="M186.90059967195253,62.2668920234866A197,197,0,0,1,186.41806220866593,63.696986446502784L161.4427775969725,55.163208407184484A170.6070045455344,170.6070045455344,0,0,0,161.8606672984564,53.92471030704202Z" fill-rule="evenodd" style="fill: #D7A449; stroke: #fff; opacity: 1;" id="p-type-tokenTransfers"></path><path d="M186.41806220866593,63.696986446502784A197,197,0,0,1,185.92458236941258,65.12334198088666L161.01541151992365,56.39846853478946A170.6070045455344,170.6070045455344,0,0,0,161.4427775969725,55.163208407184484Z" fill-rule="evenodd" style="fill: #D7A449; stroke: #fff; opacity: 1;" id="p-type-tokenTransfers"></path><path d="M185.92458236941258,65.12334198088666A197,197,0,0,1,185.4201891204947,66.54587490235568L160.57859415286342,57.63041818250131A170.6070045455344,170.6070045455344,0,0,0,161.01541151992365,56.39846853478946Z" fill-rule="evenodd" style="fill: #D7A449; stroke: #fff; opacity: 1;" id="p-type-tokenTransfers"></path><path d="M185.4201891204947,66.54587490235568A197,197,0,0,1,184.9049120688104,67.96450171100712L160.13235113611765,58.858985037283105A170.6070045455344,170.6070045455344,0,0,0,160.57859415286342,57.63041818250131Z" fill-rule="evenodd" style="fill: #D7A449; stroke: #fff; opacity: 1;" id="p-type-tokenTransfers"></path><path d="M184.9049120688104,67.96450171100712A197,197,0,0,1,184.37878146011568,69.37913913621951L159.67670866327944,60.084096984661244A170.6070045455344,170.6070045455344,0,0,0,160.13235113611765,58.858985037283105Z" fill-rule="evenodd" style="fill: #D7A449; stroke: #fff; opacity: 1;" id="p-type-tokenTransfers"></path><path d="M184.37878146011568,69.37913913621951A197,197,0,0,1,183.8418281772491,70.78970414154037L159.21169347967154,61.30568211295844A170.6070045455344,170.6070045455344,0,0,0,159.67670866327944,60.084096984661244Z" fill-rule="evenodd" style="fill: #D7A449; stroke: #fff; opacity: 1;" id="p-type-tokenTransfers"></path><path d="M183.8418281772491,70.78970414154037A197,197,0,0,1,183.29408373831913,72.19611392956033L158.73733288077653,62.523668717514816A170.6070045455344,170.6070045455344,0,0,0,159.21169347967154,61.30568211295844Z" fill-rule="evenodd" style="fill: #D7A449; stroke: #fff; opacity: 1;" id="p-type-tokenTransfers"></path><path d="M183.29408373831913,72.19611392956033A197,197,0,0,1,182.73558029485395,73.59828594677312L158.2536547106346,63.73798530489677A170.6070045455344,170.6070045455344,0,0,0,158.73733288077653,62.523668717514816Z" fill-rule="evenodd" style="fill: #D7A449; stroke: #fff; opacity: 1;" id="p-type-tokenTransfers"></path><path d="M182.73558029485395,73.59828594677312A197,197,0,0,1,182.16635062991432,74.99613788842137L157.76068736020918,64.94856059709356A170.6070045455344,170.6070045455344,0,0,0,158.2536547106346,63.73798530489677Z" fill-rule="evenodd" style="fill: #D7A449; stroke: #fff; opacity: 1;" id="p-type-tokenTransfers"></path><path d="M182.16635062991432,74.99613788842137A197,197,0,0,1,181.58642815616923,76.38958770332768L157.2584597657204,66.15532353570114A170.6070045455344,170.6070045455344,0,0,0,157.76068736020918,64.94856059709356Z" fill-rule="evenodd" style="fill: #D7A449; stroke: #fff; opacity: 1;" id="p-type-tokenTransfers"></path><path d="M181.58642815616923,76.38958770332768A197,197,0,0,1,180.99584691393463,77.77855359871089L156.74700140694668,67.3582032860932A170.6070045455344,170.6070045455344,0,0,0,157.2584597657204,66.15532353570114Z" fill-rule="evenodd" style="fill: #D7A449; stroke: #fff; opacity: 1;" id="p-type-tokenTransfers"></path><path d="M180.99584691393463,77.77855359871089A197,197,0,0,1,180.39464156917535,79.16295404498716L156.22634230549417,68.55712924157896A170.6070045455344,170.6070045455344,0,0,0,156.74700140694668,67.3582032860932Z" fill-rule="evenodd" style="fill: #D7A449; stroke: #fff; opacity: 1;" id="p-type-tokenTransfers"></path><path d="M180.39464156917535,79.16295404498716A197,197,0,0,1,179.78284741147033,80.5427077805556L155.69651302303473,69.75203102754772A170.6070045455344,170.6070045455344,0,0,0,156.22634230549417,68.55712924157896Z" fill-rule="evenodd" style="fill: #D7A449; stroke: #fff; opacity: 1;" id="p-type-tokenTransfers"></path><path d="M179.78284741147033,80.5427077805556A197,197,0,0,1,179.1605003519411,81.91773381656813L155.15754465951184,70.94283850559958A170.6070045455344,170.6070045455344,0,0,0,155.69651302303473,69.75203102754772Z" fill-rule="evenodd" style="fill: #D7A449; stroke: #fff; opacity: 1;" id="p-type-tokenTransfers"></path><path d="M179.1605003519411,81.91773381656813A197,197,0,0,1,178.5276369211439,83.2879514416834L154.6094688513153,72.12948177766259A170.6070045455344,170.6070045455344,0,0,0,155.15754465951184,70.94283850559958Z" fill-rule="evenodd" style="fill: #D7A449; stroke: #fff; opacity: 1;" id="p-type-tokenTransfers"></path><path d="M178.5276369211439,83.2879514416834A197,197,0,0,1,177.88429426692542,84.65328022680443L154.052317769424,73.31189119009554A170.6070045455344,170.6070045455344,0,0,0,154.6094688513153,72.12948177766259Z" fill-rule="evenodd" style="fill: #D7A449; stroke: #fff; opacity: 1;" id="p-type-tokenTransfers"></path><path d="M177.88429426692542,84.65328022680443A197,197,0,0,1,177.23051015224232,86.01364002979955L153.48612411751768,74.4899973377765A170.6070045455344,170.6070045455344,0,0,0,154.052317769424,73.31189119009554Z" fill-rule="evenodd" style="fill: #D7A449; stroke: #fff; opacity: 1;" id="p-type-tokenTransfers"></path><path d="M177.23051015224232,86.01364002979955A197,197,0,0,1,176.5663229529445,87.36895100020665L152.91092113005735,75.6637310681768A170.6070045455344,170.6070045455344,0,0,0,153.48612411751768,74.4899973377765Z" fill-rule="evenodd" style="fill: #D7A449; stroke: #fff; opacity: 1;" id="p-type-tokenTransfers"></path><path d="M176.5663229529445,87.36895100020665A197,197,0,0,1,175.89177165552263,88.71913358392021L152.32674257033426,76.83302348542004A170.6070045455344,170.6070045455344,0,0,0,152.91092113005735,75.6637310681768Z" fill-rule="evenodd" style="fill: #D7A449; stroke: #fff; opacity: 1;" id="p-type-tokenTransfers"></path><path d="M175.89177165552263,88.71913358392021A197,197,0,0,1,175.2068958548198,90.06410852786101L151.73362272848843,77.99780595432632A170.6070045455344,170.6070045455344,0,0,0,152.32674257033426,76.83302348542004Z" fill-rule="evenodd" style="fill: #D7A449; stroke: #fff; opacity: 1;" id="p-type-tokenTransfers"></path><path d="M175.2068958548198,90.06410852786101A197,197,0,0,1,174.5117357517071,91.4037968846281L151.13159641949542,79.15801010444085A170.6070045455344,170.6070045455344,0,0,0,151.73362272848843,77.99780595432632Z" fill-rule="evenodd" style="fill: #D7A449; stroke: #fff; opacity: 1;" id="p-type-tokenTransfers"></path><path d="M174.5117357517071,91.4037968846281A197,197,0,0,1,173.80633215072422,92.73812001713283L150.5206989811232,80.31356783404719A170.6070045455344,170.6070045455344,0,0,0,151.13159641949542,79.15801010444085Z" fill-rule="evenodd" style="fill: #D7A449; stroke: #fff; opacity: 1;" id="p-type-tokenTransfers"></path><path d="M173.80633215072422,92.73812001713283A197,197,0,0,1,173.090726457684,94.0669996032148L149.9009662718576,81.46441131416472A170.6070045455344,170.6070045455344,0,0,0,150.5206989811232,80.31356783404719Z" fill-rule="evenodd" style="fill: #D7A449; stroke: #fff; opacity: 1;" id="p-type-tokenTransfers"></path><path d="M173.090726457684,94.0669996032148A197,197,0,0,1,172.3649606772423,95.39035764023907L149.27243466879764,82.61047299253005A170.6070045455344,170.6070045455344,0,0,0,149.9009662718576,81.46441131416472Z" fill-rule="evenodd" style="fill: #D7A449; stroke: #fff; opacity: 1;" id="p-type-tokenTransfers"></path><path d="M172.3649606772423,95.39035764023907A197,197,0,0,1,171.62907741043216,96.70811644967492L148.6351410655202,83.75168559756223A170.6070045455344,170.6070045455344,0,0,0,149.27243466879764,82.61047299253005Z" fill-rule="evenodd" style="fill: #D7A449; stroke: #fff; opacity: 1;" id="p-type-tokenTransfers"></path><path d="M171.62907741043216,96.70811644967492A197,197,0,0,1,170.88311985216336,98.02019868165527L147.98912286991438,84.8879821423114A170.6070045455344,170.6070045455344,0,0,0,148.6351410655202,83.75168559756223Z" fill-rule="evenodd" style="fill: #D7A449; stroke: #fff; opacity: 1;" id="p-type-tokenTransfers"></path><path d="M170.88311985216336,98.02019868165527A197,197,0,0,1,170.12713178868685,99.32652731951711L147.33441800198594,86.01929592839089A170.6070045455344,170.6070045455344,0,0,0,147.98912286991438,84.8879821423114Z" fill-rule="evenodd" style="fill: #D7A449; stroke: #fff; opacity: 1;" id="p-type-tokenTransfers"></path><path d="M170.12713178868685,99.32652731951711A197,197,0,0,1,169.36115759502465,100.6270256843221L146.67106489163118,87.14556054989212A170.6070045455344,170.6070045455344,0,0,0,147.33441800198594,86.01929592839089Z" fill-rule="evenodd" style="fill: #D7A449; stroke: #fff; opacity: 1;" id="p-type-tokenTransfers"></path><path d="M169.36115759502465,100.6270256843221A197,197,0,0,1,168.58524223236515,101.92161743935759L145.99910247638144,88.26670989728274A170.6070045455344,170.6070045455344,0,0,0,146.67106489163118,87.14556054989212Z" fill-rule="evenodd" style="fill: #D7A449; stroke: #fff; opacity: 1;" id="p-type-tokenTransfers"></path><path d="M168.58524223236515,101.92161743935759A197,197,0,0,1,167.7994312454239,103.21022659461737L145.31857019911737,89.38267816128692A170.6070045455344,170.6070045455344,0,0,0,145.99910247638144,88.26670989728274Z" fill-rule="evenodd" style="fill: #D7A449; stroke: #fff; opacity: 1;" id="p-type-tokenTransfers"></path><path d="M167.7994312454239,103.21022659461737A197,197,0,0,1,167.0037707597702,104.4927775112621L144.62950800575382,90.49339983674827A170.6070045455344,170.6070045455344,0,0,0,145.31857019911737,89.38267816128692Z" fill-rule="evenodd" style="fill: #D7A449; stroke: #fff; opacity: 1;" id="p-type-tokenTransfers"></path><path d="M167.0037707597702,104.4927775112621A197,197,0,0,1,166.19830747911976,105.76919490605928L143.93195634289498,91.59880972647498A170.6070045455344,170.6070045455344,0,0,0,144.62950800575382,90.49339983674827Z" fill-rule="evenodd" style="fill: #D7A449; stroke: #fff; opacity: 1;" id="p-type-tokenTransfers"></path><path d="M166.19830747911976,105.76919490605928A197,197,0,0,1,165.38308868259324,107.03940385580209L143.22595615546044,92.6988429450666A170.6070045455344,170.6070045455344,0,0,0,143.93195634289498,91.59880972647498Z" fill-rule="evenodd" style="fill: #D7A449; stroke: #fff; opacity: 1;" id="p-type-tokenTransfers"></path><path d="M165.38308868259324,107.03940385580209A197,197,0,0,1,164.55816222194088,108.30332980170735L142.5115488842815,93.79343492272282A170.6070045455344,170.6070045455344,0,0,0,143.22595615546044,92.6988429450666Z" fill-rule="evenodd" style="fill: #D7A449; stroke: #fff; opacity: 1;" id="p-type-tokenTransfers"></path><path d="M164.55816222194088,108.30332980170735A197,197,0,0,1,163.72357651873392,109.56089855379189L141.78877646366897,94.88252140903353A170.6070045455344,170.6070045455344,0,0,0,142.5115488842815,93.79343492272282Z" fill-rule="evenodd" style="fill: #D7A449; stroke: #fff; opacity: 1;" id="p-type-tokenTransfers"></path><path d="M163.72357651873392,109.56089855379189A197,197,0,0,1,162.87938056152225,110.81203629522743L141.05768131895155,95.9660384767502A170.6070045455344,170.6070045455344,0,0,0,141.78877646366897,94.88252140903353Z" fill-rule="evenodd" style="fill: #D7A449; stroke: #fff; opacity: 1;" id="p-type-tokenTransfers"></path><path d="M162.87938056152225,110.81203629522743A197,197,0,0,1,162.02562390295896,112.05666958667342L140.3183063639856,97.04392252553828A170.6070045455344,170.6070045455344,0,0,0,141.05768131895155,95.9660384767502Z" fill-rule="evenodd" style="fill: #D7A449; stroke: #fff; opacity: 1;" id="p-type-tokenTransfers"></path><path d="M162.02562390295896,112.05666958667342A197,197,0,0,1,161.16235665689143,113.29472537058784L139.5706949986361,98.11611028571042A170.6070045455344,170.6070045455344,0,0,0,140.3183063639856,97.04392252553828Z" fill-rule="evenodd" style="fill: #D7A449; stroke: #fff; opacity: 1;" id="p-type-tokenTransfers"></path><path d="M161.16235665689143,113.29472537058784A197,197,0,0,1,160.28962949542017,114.52613097551549L138.81489110622934,99.18253882194031A170.6070045455344,170.6070045455344,0,0,0,139.5706949986361,98.11611028571042Z" fill-rule="evenodd" style="fill: #D7A449; stroke: #fff; opacity: 1;" id="p-type-tokenTransfers"></path><path d="M160.28962949542017,114.52613097551549A197,197,0,0,1,159.4074936459241,115.75081412035367L138.05093905097675,100.24314553695679A170.6070045455344,170.6070045455344,0,0,0,138.81489110622934,99.18253882194031Z" fill-rule="evenodd" style="fill: #D7A449; stroke: #fff; opacity: 1;" id="p-type-tokenTransfers"></path><path d="M159.4074936459241,115.75081412035367A197,197,0,0,1,158.51600088805378,116.96870291859499L137.2788836753712,101.29786817521827A170.6070045455344,170.6070045455344,0,0,0,138.05093905097675,100.24314553695679Z" fill-rule="evenodd" style="fill: #D7A449; stroke: #fff; opacity: 1;" id="p-type-tokenTransfers"></path><path d="M55.02740643322864,189.15862269860253A197,197,0,0,1,-19.30305214775888,196.0520139600226L-16.71693353053496,169.78602455248097A170.6070045455344,170.6070045455344,0,0,0,47.65513187554725,163.81617260186553Z" fill-rule="evenodd" style="fill: #414552; stroke: #fff; opacity: 1;" id="p-type-ether"></path><path d="M-19.30305214775888,196.0520139600226A197,197,0,0,1,-58.220134949999355,188.20046728529624L-50.4201158784577,162.9863856731687A170.6070045455344,170.6070045455344,0,0,0,-16.71693353053496,169.78602455248097Z" fill-rule="evenodd" style="fill: #414552; stroke: #fff; opacity: 1;" id="p-type-ether"></path><path d="M-58.220134949999355,188.20046728529624A197,197,0,0,1,-69.63874914910001,184.2808851100643L-60.30892585089257,159.5919279371972A170.6070045455344,170.6070045455344,0,0,0,-50.4201158784577,162.9863856731687Z" fill-rule="evenodd" style="fill: #414552; stroke: #fff; opacity: 1;" id="p-type-ether"></path><path d="M-69.63874914910001,184.2808851100643A197,197,0,0,1,-80.45646274276405,179.82146035143364L-69.67734063386987,155.72995280995772A170.6070045455344,170.6070045455344,0,0,0,-60.30892585089257,159.5919279371972Z" fill-rule="evenodd" style="fill: #414552; stroke: #fff; opacity: 1;" id="p-type-ether"></path><path d="M-80.45646274276405,179.82146035143364A197,197,0,0,1,-88.63475402340185,175.93430699897917L-76.759948642451,152.36357925832633A170.6070045455344,170.6070045455344,0,0,0,-69.67734063386987,155.72995280995772Z" fill-rule="evenodd" style="fill: #414552; stroke: #fff; opacity: 1;" id="p-type-ether"></path><path d="M-88.63475402340185,175.93430699897917A197,197,0,0,1,-92.97274427977747,173.6809397173078L-80.51675840584164,150.41210594834223A170.6070045455344,170.6070045455344,0,0,0,-76.759948642451,152.36357925832633Z" fill-rule="evenodd" style="fill: #414552; stroke: #fff; opacity: 1;" id="p-type-ether"></path><path d="M-92.97274427977747,173.6809397173078A197,197,0,0,1,-96.51114773246971,171.73991488108234L-83.58110568471169,148.73112913079444A170.6070045455344,170.6070045455344,0,0,0,-80.51675840584164,150.41210594834223Z" fill-rule="evenodd" style="fill: #414552; stroke: #fff; opacity: 1;" id="p-type-ether"></path><path d="M-96.51114773246971,171.73991488108234A197,197,0,0,1,-99.60435637552982,169.96462040970894L-86.25990294880734,147.19367901938702A170.6070045455344,170.6070045455344,0,0,0,-83.58110568471169,148.73112913079444Z" fill-rule="evenodd" style="fill: #414552; stroke: #fff; opacity: 1;" id="p-type-ether"></path><path d="M-99.60435637552982,169.96462040970894A197,197,0,0,1,-102.30864380012241,168.35065014362038L-88.60188455763932,145.7959397680016A170.6070045455344,170.6070045455344,0,0,0,-86.25990294880734,147.19367901938702Z" fill-rule="evenodd" style="fill: #414552; stroke: #fff; opacity: 1;" id="p-type-ether"></path><path d="M-102.30864380012241,168.35065014362038A197,197,0,0,1,-104.87588160445586,166.7634536032645L-90.82517771374786,144.42138724325463A170.6070045455344,170.6070045455344,0,0,0,-88.60188455763932,145.7959397680016Z" fill-rule="evenodd" style="fill: #414552; stroke: #fff; opacity: 1;" id="p-type-ether"></path><path d="M-104.87588160445586,166.7634536032645A197,197,0,0,1,-106.40017170454752,165.79506464681876L-92.14525166316436,143.5827378062283A170.6070045455344,170.6070045455344,0,0,0,-90.82517771374786,144.42138724325463Z" fill-rule="evenodd" style="fill: #414552; stroke: #fff; opacity: 1;" id="p-type-ether"></path><path d="M-106.40017170454752,165.79506464681876A197,197,0,0,1,-107.81908730760819,164.87584544788348L-93.37406862124102,142.786670628304A170.6070045455344,170.6070045455344,0,0,0,-92.14525166316436,143.5827378062283Z" fill-rule="evenodd" style="fill: #414552; stroke: #fff; opacity: 1;" id="p-type-ether"></path><path d="M-107.81908730760819,164.87584544788348A197,197,0,0,1,-109.11309823027143,164.02235150914993L-94.49471495304194,142.04752319538468A170.6070045455344,170.6070045455344,0,0,0,-93.37406862124102,142.786670628304Z" fill-rule="evenodd" style="fill: #414552; stroke: #fff; opacity: 1;" id="p-type-ether"></path><path d="M-109.11309823027143,164.02235150914993A197,197,0,0,1,-110.36653815154399,163.1815775645149L-95.58022576698154,141.3193916004907A170.6070045455344,170.6070045455344,0,0,0,-94.49471495304194,142.04752319538468Z" fill-rule="evenodd" style="fill: #414552; stroke: #fff; opacity: 1;" id="p-type-ether"></path><path d="M-110.36653815154399,163.1815775645149A197,197,0,0,1,-111.52303660228243,162.39338751010143L-96.58178280475838,140.63679899035841A170.6070045455344,170.6070045455344,0,0,0,-95.58022576698154,141.3193916004907Z" fill-rule="evenodd" style="fill: #414552; stroke: #fff; opacity: 1;" id="p-type-ether"></path><path d="M-111.52303660228243,162.39338751010143A197,197,0,0,1,-112.60485512711232,161.64512551203654L-97.51866512954565,139.98878509134772A170.6070045455344,170.6070045455344,0,0,0,-96.58178280475838,140.63679899035841Z" fill-rule="evenodd" style="fill: #414552; stroke: #fff; opacity: 1;" id="p-type-ether"></path></g></svg>