<svg xmlns="http://www.w3.org/2000/svg" width="400" height="400" id="block-7908808"><g id="burst-container" transform="translate(200,200)"><circle r="197" style="fill: #f9f9f9; stroke: #f9f9f9; stroke-width: 3; opacity: 1;" id="circle-base"></circle><path display="none" d="M6.031385485800715e-15,-98.5A98.5,98.5,0,1,1,-6.031385485800715e-15,98.5A98.5,98.5,0,1,1,6.031385485800715e-15,-98.5Z" fill-rule="evenodd" id="p-type-root" style="stroke: #fff; opacity: 1;"></path><path d="M8.529667153919608e-15,-139.30003589374985A139.30003589374985,139.30003589374985,0,1,1,-70.06361351951611,-120.39763311871158L-49.54245623408332,-85.13398281705102A98.5,98.5,0,1,0,6.031385485800715e-15,-98.5Z" fill-rule="evenodd" style="fill: #0B1F65; stroke: #fff; opacity: 1;" id="p-type-data"></path><path d="M-70.06361351951611,-120.39763311871158A139.30003589374985,139.30003589374985,0,0,1,-1.0056814251741026,-139.29640557053528L-0.7111241554539595,-98.49743297383709A98.5,98.5,0,0,0,-49.54245623408332,-85.13398281705102Z" fill-rule="evenodd" style="fill: #D7A449; stroke: #fff; opacity: 1;" id="p-type-value"></path><path d="M1.0446666101440332e-14,-170.6070045455344A170.6070045455344,170.6070045455344,0,0,1,114.78344811270948,126.22008572076366L93.72029293112233,103.05826843540801A139.30003589374985,139.30003589374985,0,0,0,8.529667153919608e-15,-139.30003589374985Z" fill-rule="evenodd" style="fill: #414552; stroke: #fff; opacity: 1;" id="p-type-ether"></path><path d="M114.78344811270948,126.22008572076366A170.6070045455344,170.6070045455344,0,0,1,-75.92337821879752,152.78216728350668L-61.99117872813076,124.74611721371109A139.30003589374985,139.30003589374985,0,0,0,93.72029293112233,103.05826843540801Z" fill-rule="evenodd" style="fill: #DB3F29; stroke: #fff; opacity: 1;" id="p-type-functions"></path><path d="M-75.92337821879752,152.78216728350668A170.6070045455344,170.6070045455344,0,0,1,-164.65565812431373,44.668380848751575L-134.4407818889067,36.47158023858317A139.30003589374985,139.30003589374985,0,0,0,-61.99117872813076,124.74611721371109Z" fill-rule="evenodd" style="fill: #1DC690; stroke: #fff; opacity: 1;" id="p-type-logs"></path><path d="M-164.65565812431373,44.668380848751575A170.6070045455344,170.6070045455344,0,0,1,-151.8428491530358,-77.78495459334293L-123.97916717177817,-63.511149473082924A139.30003589374985,139.30003589374985,0,0,0,-134.4407818889067,36.47158023858317Z" fill-rule="evenodd" style="fill: #D7A449; stroke: #fff; opacity: 1;" id="p-type-tokenTransfers"></path><path d="M-85.81005132918976,-147.45638368982816A170.6070045455344,170.6070045455344,0,0,1,-26.98391491931902,-168.4595451009736L-22.032274271668634,-137.546642599585A139.30003589374985,139.30003589374985,0,0,0,-70.06361351951611,-120.39763311871158Z" fill-rule="evenodd" style="fill: #D7A449; stroke: #fff; opacity: 1;" id="p-type-tokenTransfers"></path><path d="M-26.98391491931902,-168.4595451009736A170.6070045455344,170.6070045455344,0,0,1,-2.463342136197257,-170.58921989832777L-2.0113104318602613,-139.28551479011264A139.30003589374985,139.30003589374985,0,0,0,-22.032274271668634,-137.546642599585Z" fill-rule="evenodd" style="fill: #414552; stroke: #fff; opacity: 1;" id="p-type-ether"></path><path d="M1.206277097160143e-14,-197A197,197,0,0,1,180.31023328073434,79.35502362325376L156.15324258341428,68.723466375652A170.6070045455344,170.6070045455344,0,0,0,1.0446666101440332e-14,-170.6070045455344Z" fill-rule="evenodd" style="fill: #414552; stroke: #fff; opacity: 1;" id="p-type-ether"></path><path d="M180.31023328073434,79.35502362325376A197,197,0,0,1,173.97575877190008,92.41988617035642L150.66742673913885,80.03796923839477A170.6070045455344,170.6070045455344,0,0,0,156.15324258341428,68.723466375652Z" fill-rule="evenodd" style="fill: #414552; stroke: #fff; opacity: 1;" id="p-type-ether"></path><path d="M173.97575877190008,92.41988617035642A197,197,0,0,1,170.52310950973214,98.64516776371713L147.67734476774382,85.42922124395682A170.6070045455344,170.6070045455344,0,0,0,150.66742673913885,80.03796923839477Z" fill-rule="evenodd" style="fill: #414552; stroke: #fff; opacity: 1;" id="p-type-ether"></path><path d="M170.52310950973214,98.64516776371713A197,197,0,0,1,166.91618032328532,104.63263709896877L144.55365246262934,90.61452179266507A170.6070045455344,170.6070045455344,0,0,0,147.67734476774382,85.42922124395682Z" fill-rule="evenodd" style="fill: #414552; stroke: #fff; opacity: 1;" id="p-type-ether"></path><path d="M166.91618032328532,104.63263709896877A197,197,0,0,1,163.21977985334894,110.3100333814849L141.35247575310368,95.53129120067535A170.6070045455344,170.6070045455344,0,0,0,144.55365246262934,90.61452179266507Z" fill-rule="evenodd" style="fill: #414552; stroke: #fff; opacity: 1;" id="p-type-ether"></path><path d="M163.21977985334894,110.3100333814849A197,197,0,0,1,161.54912040252347,112.7425460825281L139.90564222761628,97.63790899480708A170.6070045455344,170.6070045455344,0,0,0,141.35247575310368,95.53129120067535Z" fill-rule="evenodd" style="fill: #414552; stroke: #fff; opacity: 1;" id="p-type-ether"></path><path d="M161.54912040252347,112.7425460825281A197,197,0,0,1,159.9232226112073,115.0372238436161L138.49757343637947,99.6251582294085A170.6070045455344,170.6070045455344,0,0,0,139.90564222761628,97.63790899480708Z" fill-rule="evenodd" style="fill: #414552; stroke: #fff; opacity: 1;" id="p-type-ether"></path><path d="M159.9232226112073,115.0372238436161A197,197,0,0,1,158.6680858451986,116.7623164133904L137.41059311179208,101.1191322187128A170.6070045455344,170.6070045455344,0,0,0,138.49757343637947,99.6251582294085Z" fill-rule="evenodd" style="fill: #414552; stroke: #fff; opacity: 1;" id="p-type-ether"></path><path d="M158.6680858451986,116.7623164133904A197,197,0,0,1,157.60791797622204,118.18944196162556L136.4924608049824,102.35505919787425A170.6070045455344,170.6070045455344,0,0,0,137.41059311179208,101.1191322187128Z" fill-rule="evenodd" style="fill: #414552; stroke: #fff; opacity: 1;" id="p-type-ether"></path><path d="M157.60791797622204,118.18944196162556A197,197,0,0,1,156.6302397024602,119.48208238371922L135.64576658317648,103.474518641366A170.6070045455344,170.6070045455344,0,0,0,136.4924608049824,102.35505919787425Z" fill-rule="evenodd" style="fill: #414552; stroke: #fff; opacity: 1;" id="p-type-ether"></path><path d="M156.6302397024602,119.48208238371922A197,197,0,0,1,155.7657295685346,120.60695457552252L134.89707884536784,104.44868653547834A170.6070045455344,170.6070045455344,0,0,0,135.64576658317648,103.474518641366Z" fill-rule="evenodd" style="fill: #414552; stroke: #fff; opacity: 1;" id="p-type-ether"></path><path d="M155.7657295685346,120.60695457552252A197,197,0,0,1,155.13187850851156,121.42116895508958L134.3481477251722,105.15381687231A170.6070045455344,170.6070045455344,0,0,0,134.89707884536784,104.44868653547834Z" fill-rule="evenodd" style="fill: #414552; stroke: #fff; opacity: 1;" id="p-type-ether"></path><path d="M132.54050933277253,145.74640093604108A197,197,0,0,1,121.44585421201553,155.1125542782204L105.17519493190682,134.33141245083146A170.6070045455344,170.6070045455344,0,0,0,114.78344811270948,126.22008572076366Z" fill-rule="evenodd" style="fill: #DB3F29; stroke: #fff; opacity: 1;" id="p-type-functions"></path><path d="M121.44585421201553,155.1125542782204A197,197,0,0,1,115.76245899029703,159.39903728856018L100.2532302901515,138.04361563067613A170.6070045455344,170.6070045455344,0,0,0,105.17519493190682,134.33141245083146Z" fill-rule="evenodd" style="fill: #DB3F29; stroke: #fff; opacity: 1;" id="p-type-functions"></path><path d="M115.76245899029703,159.39903728856018A197,197,0,0,1,110.0346655759905,163.40554571855856L95.29281568573285,141.5133537115312A170.6070045455344,170.6070045455344,0,0,0,100.2532302901515,138.04361563067613Z" fill-rule="evenodd" style="fill: #DB3F29; stroke: #fff; opacity: 1;" id="p-type-functions"></path><path d="M110.0346655759905,163.40554571855856A197,197,0,0,1,104.35104472451205,167.09236806300547L90.37065564287356,144.70623552106235A170.6070045455344,170.6070045455344,0,0,0,95.29281568573285,141.5133537115312Z" fill-rule="evenodd" style="fill: #DB3F29; stroke: #fff; opacity: 1;" id="p-type-functions"></path><path d="M104.35104472451205,167.09236806300547A197,197,0,0,1,101.83644051921067,168.63670828848998L88.19294452061938,146.04367338841814A170.6070045455344,170.6070045455344,0,0,0,90.37065564287356,144.70623552106235Z" fill-rule="evenodd" style="fill: #DB3F29; stroke: #fff; opacity: 1;" id="p-type-functions"></path><path d="M101.83644051921067,168.63670828848998A197,197,0,0,1,99.41872005950772,170.07327274363024L86.09913718326723,147.28777470074334A170.6070045455344,170.6070045455344,0,0,0,88.19294452061938,146.04367338841814Z" fill-rule="evenodd" style="fill: #DB3F29; stroke: #fff; opacity: 1;" id="p-type-functions"></path><path d="M99.41872005950772,170.07327274363024A197,197,0,0,1,97.57113560149705,171.1399237391272L84.4990821069927,148.21152155981568A170.6070045455344,170.6070045455344,0,0,0,86.09913718326723,147.28777470074334Z" fill-rule="evenodd" style="fill: #DB3F29; stroke: #fff; opacity: 1;" id="p-type-functions"></path><path d="M97.57113560149705,171.1399237391272A197,197,0,0,1,96.02273175828645,172.0134732678698L83.15812504345487,148.9680376431707A170.6070045455344,170.6070045455344,0,0,0,84.4990821069927,148.21152155981568Z" fill-rule="evenodd" style="fill: #DB3F29; stroke: #fff; opacity: 1;" id="p-type-functions"></path><path d="M96.02273175828645,172.0134732678698A197,197,0,0,1,94.6043274037799,172.79763087634743L81.92975083961373,149.64713805268318A170.6070045455344,170.6070045455344,0,0,0,83.15812504345487,148.9680376431707Z" fill-rule="evenodd" style="fill: #DB3F29; stroke: #fff; opacity: 1;" id="p-type-functions"></path><path d="M94.6043274037799,172.79763087634743A197,197,0,0,1,93.35747448740236,173.47444179859468L80.84994453924806,150.23327350490806A170.6070045455344,170.6070045455344,0,0,0,81.92975083961373,149.64713805268318Z" fill-rule="evenodd" style="fill: #DB3F29; stroke: #fff; opacity: 1;" id="p-type-functions"></path><path d="M-190.12797708333505,51.57860341458289A197,197,0,0,1,-190.58569959206508,49.86071711280456L-165.05205744475788,43.18064767059824A170.6070045455344,170.6070045455344,0,0,0,-164.65565812431373,44.668380848751575Z" fill-rule="evenodd" style="fill: #D7A449; stroke: #fff; opacity: 1;" id="p-type-tokenTransfers"></path></g></svg>