<svg xmlns="http://www.w3.org/2000/svg" width="400" height="400" id="block-7908287"><g id="burst-container" transform="translate(200,200)"><circle r="197" style="fill: #f9f9f9; stroke: #f9f9f9; stroke-width: 3; opacity: 1;" id="circle-base"></circle><path display="none" d="M6.031385485800715e-15,-98.5A98.5,98.5,0,1,1,-6.031385485800715e-15,98.5A98.5,98.5,0,1,1,6.031385485800715e-15,-98.5Z" fill-rule="evenodd" id="p-type-root" style="stroke: #fff; opacity: 1;"></path><path d="M8.529667153919608e-15,-139.30003589374985A139.30003589374985,139.30003589374985,0,1,1,-108.6047194957745,-87.23253351384525L-76.795133624325,-61.68271598772276A98.5,98.5,0,1,0,6.031385485800715e-15,-98.5Z" fill-rule="evenodd" style="fill: #0B1F65; stroke: #fff; opacity: 1;" id="p-type-data"></path><path d="M-108.6047194957745,-87.23253351384525A139.30003589374985,139.30003589374985,0,0,1,-2.041700873694381,-139.28507262999273L-1.4437005329437957,-98.48941937472866A98.5,98.5,0,0,0,-76.795133624325,-61.68271598772276Z" fill-rule="evenodd" style="fill: #D7A449; stroke: #fff; opacity: 1;" id="p-type-value"></path><path d="M1.0446666101440332e-14,-170.6070045455344A170.6070045455344,170.6070045455344,0,0,1,170.3441289684346,-9.467192085582697L139.08539888383845,-7.729929968864299A139.30003589374985,139.30003589374985,0,0,0,8.529667153919608e-15,-139.30003589374985Z" fill-rule="evenodd" style="fill: #DB3F29; stroke: #fff; opacity: 1;" id="p-type-functions"></path><path d="M170.3441289684346,-9.467192085582697A170.6070045455344,170.6070045455344,0,0,1,72.5243713384063,154.4246274464308L59.215901231741505,126.08718032104863A139.30003589374985,139.30003589374985,0,0,0,139.08539888383845,-7.729929968864299Z" fill-rule="evenodd" style="fill: #1DC690; stroke: #fff; opacity: 1;" id="p-type-logs"></path><path d="M72.5243713384063,154.4246274464308A170.6070045455344,170.6070045455344,0,0,1,-79.4398488862811,150.9836428522137L-64.86236500506374,123.27762816484538A139.30003589374985,139.30003589374985,0,0,0,59.215901231741505,126.08718032104863Z" fill-rule="evenodd" style="fill: #D7A449; stroke: #fff; opacity: 1;" id="p-type-tokenTransfers"></path><path d="M-79.4398488862811,150.9836428522137A170.6070045455344,170.6070045455344,0,0,1,-164.48484739746513,45.29332154559443L-134.30131551444904,36.98184218083796A139.30003589374985,139.30003589374985,0,0,0,-64.86236500506374,123.27762816484538Z" fill-rule="evenodd" style="fill: #414552; stroke: #fff; opacity: 1;" id="p-type-ether"></path><path d="M-133.01307321137196,-106.8375980395769A170.6070045455344,170.6070045455344,0,0,1,-71.49194048682197,-154.9053015407436L-58.37292497137861,-126.47964907559557A139.30003589374985,139.30003589374985,0,0,0,-108.6047194957745,-87.23253351384525Z" fill-rule="evenodd" style="fill: #D7A449; stroke: #fff; opacity: 1;" id="p-type-tokenTransfers"></path><path d="M-71.49194048682197,-154.9053015407436A170.6070045455344,170.6070045455344,0,0,1,-5.000588139486503,-170.53370376045677L-4.082963118518468,-139.24018605335465A139.30003589374985,139.30003589374985,0,0,0,-58.37292497137861,-126.47964907559557Z" fill-rule="evenodd" style="fill: #414552; stroke: #fff; opacity: 1;" id="p-type-ether"></path><path d="M1.206277097160143e-14,-197A197,197,0,0,1,14.435105408292177,-196.47042457288958L12.501167989887167,-170.14837877243679A170.6070045455344,170.6070045455344,0,0,0,1.0446666101440332e-14,-170.6070045455344Z" fill-rule="evenodd" style="fill: #DB3F29; stroke: #fff; opacity: 1;" id="p-type-functions"></path><path d="M14.435105408292177,-196.47042457288958A197,197,0,0,1,22.330077997932886,-195.73034413857815L19.338414814697835,-169.50745031547928A170.6070045455344,170.6070045455344,0,0,0,12.501167989887167,-170.14837877243679Z" fill-rule="evenodd" style="fill: #DB3F29; stroke: #fff; opacity: 1;" id="p-type-functions"></path><path d="M22.330077997932886,-195.73034413857815A197,197,0,0,1,25.71615923234344,-195.314308626728L22.270847182975146,-169.1471529933406A170.6070045455344,170.6070045455344,0,0,0,19.338414814697835,-169.50745031547928Z" fill-rule="evenodd" style="fill: #DB3F29; stroke: #fff; opacity: 1;" id="p-type-functions"></path><path d="M25.71615923234344,-195.314308626728A197,197,0,0,1,28.967525790032713,-194.85862169686973L25.08661321894922,-168.7525165359108A170.6070045455344,170.6070045455344,0,0,0,22.270847182975146,-169.1471529933406Z" fill-rule="evenodd" style="fill: #DB3F29; stroke: #fff; opacity: 1;" id="p-type-functions"></path><path d="M28.967525790032713,-194.85862169686973A197,197,0,0,1,31.46342946792862,-194.47121279540755L27.248129209406088,-168.41701058559232A170.6070045455344,170.6070045455344,0,0,0,25.08661321894922,-168.7525165359108Z" fill-rule="evenodd" style="fill: #DB3F29; stroke: #fff; opacity: 1;" id="p-type-functions"></path><path d="M31.46342946792862,-194.47121279540755A197,197,0,0,1,33.83679829559119,-194.0723346618561L29.303526906711966,-168.07157198892264A170.6070045455344,170.6070045455344,0,0,0,27.248129209406088,-168.41701058559232Z" fill-rule="evenodd" style="fill: #DB3F29; stroke: #fff; opacity: 1;" id="p-type-functions"></path><path d="M33.83679829559119,-194.0723346618561A197,197,0,0,1,35.25817315732408,-193.81914566318818L30.53447364527324,-167.85230388411745A170.6070045455344,170.6070045455344,0,0,0,29.303526906711966,-168.07157198892264Z" fill-rule="evenodd" style="fill: #DB3F29; stroke: #fff; opacity: 1;" id="p-type-functions"></path><path d="M35.25817315732408,-193.81914566318818A197,197,0,0,1,36.67765432094974,-193.55554673920588L31.76378039316656,-167.62402051953856A170.6070045455344,170.6070045455344,0,0,0,30.53447364527324,-167.85230388411745Z" fill-rule="evenodd" style="fill: #DB3F29; stroke: #fff; opacity: 1;" id="p-type-functions"></path><path d="M36.67765432094974,-193.55554673920588A197,197,0,0,1,38.09516554687461,-193.28155204767012L32.99138112496712,-167.3867341561665A170.6070045455344,170.6070045455344,0,0,0,31.76378039316656,-167.62402051953856Z" fill-rule="evenodd" style="fill: #DB3F29; stroke: #fff; opacity: 1;" id="p-type-functions"></path><path d="M38.09516554687461,-193.28155204767012A197,197,0,0,1,39.51063070130932,-192.997176304693L34.21720990687924,-167.14045753852824A170.6070045455344,170.6070045455344,0,0,0,32.99138112496712,-167.3867341561665Z" fill-rule="evenodd" style="fill: #DB3F29; stroke: #fff; opacity: 1;" id="p-type-functions"></path><path d="M39.51063070130932,-192.997176304693A197,197,0,0,1,40.92397376035807,-192.70243478394747L35.44120090027787,-166.88520389401256A170.6070045455344,170.6070045455344,0,0,0,34.21720990687924,-167.14045753852824Z" fill-rule="evenodd" style="fill: #DB3F29; stroke: #fff; opacity: 1;" id="p-type-functions"></path><path d="M40.92397376035807,-192.70243478394747A197,197,0,0,1,42.3351188141017,-192.397343315847L36.663288365244604,-166.62098693215967A170.6070045455344,170.6070045455344,0,0,0,35.44120090027787,-166.88520389401256Z" fill-rule="evenodd" style="fill: #DB3F29; stroke: #fff; opacity: 1;" id="p-type-functions"></path><path d="M42.3351188141017,-192.397343315847A197,197,0,0,1,43.74399007067462,-192.08191828669538L37.88340666409846,-166.34782084392492A170.6070045455344,170.6070045455344,0,0,0,36.663288365244604,-166.62098693215967Z" fill-rule="evenodd" style="fill: #DB3F29; stroke: #fff; opacity: 1;" id="p-type-functions"></path><path d="M43.74399007067462,-192.08191828669538A197,197,0,0,1,45.15051186033587,-191.75617663780656L39.10149026492145,-166.06572030091655A170.6070045455344,170.6070045455344,0,0,0,37.88340666409846,-166.34782084392492Z" fill-rule="evenodd" style="fill: #DB3F29; stroke: #fff; opacity: 1;" id="p-type-functions"></path><path d="M45.15051186033587,-191.75617663780656A197,197,0,0,1,46.55460863953304,-191.42013586459476L40.31747374507812,-165.77470045460777A170.6070045455344,170.6070045455344,0,0,0,39.10149026492145,-166.06572030091655Z" fill-rule="evenodd" style="fill: #DB3F29; stroke: #fff; opacity: 1;" id="p-type-functions"></path><path d="M46.55460863953304,-191.42013586459476A197,197,0,0,1,47.95620499495982,-191.07381401563478L41.53129179472939,-165.47477693552284A170.6070045455344,170.6070045455344,0,0,0,40.31747374507812,-165.77470045460777Z" fill-rule="evenodd" style="fill: #DB3F29; stroke: #fff; opacity: 1;" id="p-type-functions"></path><path d="M47.95620499495982,-191.07381401563478A197,197,0,0,1,49.35522564760635,-190.71722969169267L42.74287922034037,-165.16596585239768A170.6070045455344,170.6070045455344,0,0,0,41.53129179472939,-165.47477693552284Z" fill-rule="evenodd" style="fill: #DB3F29; stroke: #fff; opacity: 1;" id="p-type-functions"></path><path d="M49.35522564760635,-190.71722969169267A197,197,0,0,1,50.75159545680235,-190.35040204472665L43.95217094818173,-164.84828379131463A170.6070045455344,170.6070045455344,0,0,0,42.74287922034037,-165.16596585239768Z" fill-rule="evenodd" style="fill: #DB3F29; stroke: #fff; opacity: 1;" id="p-type-functions"></path><path d="M50.75159545680235,-190.35040204472665A197,197,0,0,1,52.14523942425304,-189.9733507768585L45.159102027824964,-164.52174781481168A170.6070045455344,170.6070045455344,0,0,0,43.95217094818173,-164.84828379131463Z" fill-rule="evenodd" style="fill: #DB3F29; stroke: #fff; opacity: 1;" id="p-type-functions"></path><path d="M52.14523942425304,-189.9733507768585A197,197,0,0,1,53.5360826980672,-189.58609613931532L46.36360763563074,-164.18637546096593A170.6070045455344,170.6070045455344,0,0,0,45.159102027824964,-164.52174781481168Z" fill-rule="evenodd" style="fill: #DB3F29; stroke: #fff; opacity: 1;" id="p-type-functions"></path><path d="M53.5360826980672,-189.58609613931532A197,197,0,0,1,54.924050576777276,-189.1886589313419L47.565623078230466,-163.8421847424518A170.6070045455344,170.6070045455344,0,0,0,46.36360763563074,-164.18637546096593Z" fill-rule="evenodd" style="fill: #DB3F29; stroke: #fff; opacity: 1;" id="p-type-functions"></path><path d="M54.924050576777276,-189.1886589313419A197,197,0,0,1,56.30906851335183,-188.78106049908357L48.765083796001136,-163.48919414557338A170.6070045455344,170.6070045455344,0,0,0,47.565623078230466,-163.8421847424518Z" fill-rule="evenodd" style="fill: #DB3F29; stroke: #fff; opacity: 1;" id="p-type-functions"></path><path d="M56.30906851335183,-188.78106049908357A197,197,0,0,1,57.69106211919921,-188.36332273443972L49.961925366532626,-163.12742262927168A170.6070045455344,170.6070045455344,0,0,0,48.765083796001136,-163.48919414557338Z" fill-rule="evenodd" style="fill: #DB3F29; stroke: #fff; opacity: 1;" id="p-type-functions"></path><path d="M57.69106211919921,-188.36332273443972A197,197,0,0,1,59.06995716816301,-187.93546807388805L51.15608350808786,-162.75688962410638A170.6070045455344,170.6070045455344,0,0,0,49.961925366532626,-163.12742262927168Z" fill-rule="evenodd" style="fill: #DB3F29; stroke: #fff; opacity: 1;" id="p-type-functions"></path><path d="M59.06995716816301,-187.93546807388805A197,197,0,0,1,60.44567960050872,-187.4975194972793L52.347494083055366,-162.37761503121197A170.6070045455344,170.6070045455344,0,0,0,51.15608350808786,-162.75688962410638Z" fill-rule="evenodd" style="fill: #DB3F29; stroke: #fff; opacity: 1;" id="p-type-functions"></path><path d="M60.44567960050872,-187.4975194972793A197,197,0,0,1,61.81815552690132,-187.0495005266035L53.536093101393945,-161.98961922122936A170.6070045455344,170.6070045455344,0,0,0,52.347494083055366,-162.37761503121197Z" fill-rule="evenodd" style="fill: #DB3F29; stroke: #fff; opacity: 1;" id="p-type-functions"></path><path d="M61.81815552690132,-187.0495005266035A197,197,0,0,1,63.18731123237404,-186.59143522472596L54.721816724069726,-161.5929230332112A170.6070045455344,170.6070045455344,0,0,0,53.536093101393945,-161.98961922122936Z" fill-rule="evenodd" style="fill: #DB3F29; stroke: #fff; opacity: 1;" id="p-type-functions"></path><path d="M63.18731123237404,-186.59143522472596A197,197,0,0,1,64.55307318028744,-186.12334819409534L55.90460126648485,-161.1875477735031A170.6070045455344,170.6070045455344,0,0,0,54.721816724069726,-161.5929230332112Z" fill-rule="evenodd" style="fill: #DB3F29; stroke: #fff; opacity: 1;" id="p-type-functions"></path><path d="M64.55307318028744,-186.12334819409534A197,197,0,0,1,65.91536801627893,-185.6452645754222L57.084383201897836,-160.77351521459894A170.6070045455344,170.6070045455344,0,0,0,55.90460126648485,-161.1875477735031Z" fill-rule="evenodd" style="fill: #DB3F29; stroke: #fff; opacity: 1;" id="p-type-functions"></path><path d="M65.91536801627893,-185.6452645754222A197,197,0,0,1,67.2741225722028,-185.15721004632857L58.26109916483574,-160.35084759397182A170.6070045455344,170.6070045455344,0,0,0,57.084383201897836,-160.77351521459894Z" fill-rule="evenodd" style="fill: #DB3F29; stroke: #fff; opacity: 1;" id="p-type-functions"></path><path d="M67.2741225722028,-185.15721004632857A197,197,0,0,1,68.62926387005987,-184.65921081996882L59.43468595449739,-159.91956761287926A170.6070045455344,170.6070045455344,0,0,0,58.26109916483574,-160.35084759397182Z" fill-rule="evenodd" style="fill: #DB3F29; stroke: #fff; opacity: 1;" id="p-type-functions"></path><path d="M68.62926387005987,-184.65921081996882A197,197,0,0,1,69.98071912591725,-184.15129364362195L60.60508053814787,-159.47969843514443A170.6070045455344,170.6070045455344,0,0,0,59.43468595449739,-159.91956761287926Z" fill-rule="evenodd" style="fill: #DB3F29; stroke: #fff; opacity: 1;" id="p-type-functions"></path><path d="M69.98071912591725,-184.15129364362195A197,197,0,0,1,71.32841575381738,-183.6334857972548L61.77222005450401,-159.03126368591157A170.6070045455344,170.6070045455344,0,0,0,60.60508053814787,-159.47969843514443Z" fill-rule="evenodd" style="fill: #DB3F29; stroke: #fff; opacity: 1;" id="p-type-functions"></path><path d="M71.32841575381738,-183.6334857972548A197,197,0,0,1,72.67228136967661,-183.10581509205696L62.93604181711052,-158.57428745037737A170.6070045455344,170.6070045455344,0,0,0,61.77222005450401,-159.03126368591157Z" fill-rule="evenodd" style="fill: #DB3F29; stroke: #fff; opacity: 1;" id="p-type-functions"></path><path d="M72.67228136967661,-183.10581509205696A197,197,0,0,1,74.01224379517303,-182.56830986894704L64.09648331770704,-158.1087942724974A170.6070045455344,170.6070045455344,0,0,0,62.93604181711052,-158.57428745037737Z" fill-rule="evenodd" style="fill: #DB3F29; stroke: #fff; opacity: 1;" id="p-type-functions"></path><path d="M74.01224379517303,-182.56830986894704A197,197,0,0,1,75.34823106162305,-182.0209989970505L65.25348222958529,-157.63480915366756A170.6070045455344,170.6070045455344,0,0,0,64.09648331770704,-158.1087942724974Z" fill-rule="evenodd" style="fill: #DB3F29; stroke: #fff; opacity: 1;" id="p-type-functions"></path><path d="M75.34823106162305,-182.0209989970505A197,197,0,0,1,76.68017141384674,-181.46391187214905L66.40697641093658,-157.15235755138167A170.6070045455344,170.6070045455344,0,0,0,65.25348222958529,-157.63480915366756Z" fill-rule="evenodd" style="fill: #DB3F29; stroke: #fff; opacity: 1;" id="p-type-functions"></path><path d="M76.68017141384674,-181.46391187214905A197,197,0,0,1,78.00799331402183,-180.8970784151019L67.55690390818955,-156.6614653778639A170.6070045455344,170.6070045455344,0,0,0,66.40697641093658,-157.15235755138167Z" fill-rule="evenodd" style="fill: #DB3F29; stroke: #fff; opacity: 1;" id="p-type-functions"></path><path d="M78.00799331402183,-180.8970784151019A197,197,0,0,1,79.33162544552604,-180.3205290702386L68.70320295933755,-156.16215899867697A170.6070045455344,170.6070045455344,0,0,0,67.55690390818955,-156.6614653778639Z" fill-rule="evenodd" style="fill: #DB3F29; stroke: #fff; opacity: 1;" id="p-type-functions"></path><path d="M79.33162544552604,-180.3205290702386A197,197,0,0,1,80.65099671676732,-179.73429480372405L69.84581199725586,-155.65446523130646A170.6070045455344,170.6070045455344,0,0,0,68.70320295933755,-156.16215899867697Z" fill-rule="evenodd" style="fill: #DB3F29; stroke: #fff; opacity: 1;" id="p-type-functions"></path><path d="M80.65099671676732,-179.73429480372405A197,197,0,0,1,81.96603626500226,-179.1384071018952L70.98466965300852,-155.13841134371995A170.6070045455344,170.6070045455344,0,0,0,69.84581199725586,-155.65446523130646Z" fill-rule="evenodd" style="fill: #DB3F29; stroke: #fff; opacity: 1;" id="p-type-functions"></path><path d="M81.96603626500226,-179.1384071018952A197,197,0,0,1,83.27667346014188,-178.53289796957003L72.11971475914422,-154.61402505290286A170.6070045455344,170.6070045455344,0,0,0,70.98466965300852,-155.13841134371995Z" fill-rule="evenodd" style="fill: #DB3F29; stroke: #fff; opacity: 1;" id="p-type-functions"></path><path d="M83.27667346014188,-178.53289796957003A197,197,0,0,1,84.58283790854549,-177.9177999283285L73.25088635298182,-154.08133452336963A170.6070045455344,170.6070045455344,0,0,0,72.11971475914422,-154.61402505290286Z" fill-rule="evenodd" style="fill: #DB3F29; stroke: #fff; opacity: 1;" id="p-type-functions"></path><path d="M84.58283790854549,-177.9177999283285A197,197,0,0,1,85.88445945680122,-177.2931460147658L74.37812367988452,-153.54036836565098A170.6070045455344,170.6070045455344,0,0,0,73.25088635298182,-154.08133452336963Z" fill-rule="evenodd" style="fill: #DB3F29; stroke: #fff; opacity: 1;" id="p-type-functions"></path><path d="M85.88445945680122,-177.2931460147658A197,197,0,0,1,87.1814681954939,-176.65896977871824L75.50136619652281,-152.9911556347574A170.6070045455344,170.6070045455344,0,0,0,74.37812367988452,-153.54036836565098Z" fill-rule="evenodd" style="fill: #DB3F29; stroke: #fff; opacity: 1;" id="p-type-functions"></path><path d="M87.1814681954939,-176.65896977871824A197,197,0,0,1,88.47379446296013,-176.0153052814609L76.62055357412648,-152.43372582861844A170.6070045455344,170.6070045455344,0,0,0,75.50136619652281,-152.9911556347574Z" fill-rule="evenodd" style="fill: #DB3F29; stroke: #fff; opacity: 1;" id="p-type-functions"></path><path d="M88.47379446296013,-176.0153052814609A197,197,0,0,1,89.76136884902948,-175.3621870938786L77.73562570172469,-151.86810888649848A170.6070045455344,170.6070045455344,0,0,0,76.62055357412648,-152.43372582861844Z" fill-rule="evenodd" style="fill: #DB3F29; stroke: #fff; opacity: 1;" id="p-type-functions"></path><path d="M89.76136884902948,-175.3621870938786A197,197,0,0,1,91.04412219875263,-174.69965029460877L78.84652268937452,-151.29433518738878A170.6070045455344,170.6070045455344,0,0,0,77.73562570172469,-151.86810888649848Z" fill-rule="evenodd" style="fill: #DB3F29; stroke: #fff; opacity: 1;" id="p-type-functions"></path><path d="M91.04412219875263,-174.69965029460877A197,197,0,0,1,92.32198561611565,-174.02773046815767L79.95318487137769,-150.7124355483757A170.6070045455344,170.6070045455344,0,0,0,78.84652268937452,-151.29433518738878Z" fill-rule="evenodd" style="fill: #DB3F29; stroke: #fff; opacity: 1;" id="p-type-functions"></path><path d="M92.32198561611565,-174.02773046815767A197,197,0,0,1,93.59489046774023,-173.34646370298907L81.05555280948504,-150.12244122298563A170.6070045455344,170.6070045455344,0,0,0,79.95318487137769,-150.7124355483757Z" fill-rule="evenodd" style="fill: #DB3F29; stroke: #fff; opacity: 1;" id="p-type-functions"></path><path d="M93.59489046774023,-173.34646370298907A197,197,0,0,1,94.86276838657012,-172.65588658958592L82.15356729608908,-149.52438389950638A170.6070045455344,170.6070045455344,0,0,0,81.05555280948504,-150.12244122298563Z" fill-rule="evenodd" style="fill: #DB3F29; stroke: #fff; opacity: 1;" id="p-type-functions"></path><path d="M94.86276838657012,-172.65588658958592A197,197,0,0,1,96.12555127554302,-171.95603621848508L83.2471693574039,-148.9182956992851A170.6070045455344,170.6070045455344,0,0,0,82.15356729608908,-149.52438389950638Z" fill-rule="evenodd" style="fill: #DB3F29; stroke: #fff; opacity: 1;" id="p-type-functions"></path><path d="M96.12555127554302,-171.95603621848508A197,197,0,0,1,97.38317131124795,-171.24695017828532L84.33630025663267,-148.30420917500317A170.6070045455344,170.6070045455344,0,0,0,83.2471693574039,-148.9182956992851Z" fill-rule="evenodd" style="fill: #DB3F29; stroke: #fff; opacity: 1;" id="p-type-functions"></path><path d="M97.38317131124795,-171.24695017828532A197,197,0,0,1,98.63556094756818,-170.52866655362834L85.42090149712234,-147.68215730892788A170.6070045455344,170.6070045455344,0,0,0,84.33630025663267,-148.30420917500317Z" fill-rule="evenodd" style="fill: #DB3F29; stroke: #fff; opacity: 1;" id="p-type-functions"></path><path d="M98.63556094756818,-170.52866655362834A197,197,0,0,1,99.88265291930897,-169.80122392315334L86.50091482550548,-147.05217351114075A170.6070045455344,170.6070045455344,0,0,0,85.42090149712234,-147.68215730892788Z" fill-rule="evenodd" style="fill: #DB3F29; stroke: #fff; opacity: 1;" id="p-type-functions"></path><path d="M99.88265291930897,-169.80122392315334A197,197,0,0,1,101.12438024581033,-169.0646613574249L87.576282234829,-146.4142916177433A170.6070045455344,170.6070045455344,0,0,0,86.50091482550548,-147.05217351114075Z" fill-rule="evenodd" style="fill: #DB3F29; stroke: #fff; opacity: 1;" id="p-type-functions"></path><path d="M101.12438024581033,-169.0646613574249A197,197,0,0,1,102.36067623454464,-168.31901841683467L88.64694596766971,-145.76854588903961A170.6070045455344,170.6070045455344,0,0,0,87.576282234829,-146.4142916177433Z" fill-rule="evenodd" style="fill: #DB3F29; stroke: #fff; opacity: 1;" id="p-type-functions"></path><path d="M102.36067623454464,-168.31901841683467A197,197,0,0,1,103.59147448469861,-167.56433514947636L89.71284851923649,-145.11497100769625A170.6070045455344,170.6070045455344,0,0,0,88.64694596766971,-145.76854588903961Z" fill-rule="evenodd" style="fill: #DB3F29; stroke: #fff; opacity: 1;" id="p-type-functions"></path><path d="M103.59147448469861,-167.56433514947636A197,197,0,0,1,104.81670889073956,-166.80065208899504L90.77393264045868,-144.45360207687958A170.6070045455344,170.6070045455344,0,0,0,89.71284851923649,-145.11497100769625Z" fill-rule="evenodd" style="fill: #DB3F29; stroke: #fff; opacity: 1;" id="p-type-functions"></path><path d="M104.81670889073956,-166.80065208899504A197,197,0,0,1,106.03631364596605,-166.02801025240987L91.83014134106112,-143.78447461837018A170.6070045455344,170.6070045455344,0,0,0,90.77393264045868,-144.45360207687958Z" fill-rule="evenodd" style="fill: #DB3F29; stroke: #fff; opacity: 1;" id="p-type-functions"></path><path d="M106.03631364596605,-166.02801025240987A197,197,0,0,1,107.25022324604215,-165.24645113791135L92.88141789262484,-143.1076245706552A170.6070045455344,170.6070045455344,0,0,0,91.83014134106112,-143.78447461837018Z" fill-rule="evenodd" style="fill: #DB3F29; stroke: #fff; opacity: 1;" id="p-type-functions"></path><path d="M107.25022324604215,-165.24645113791135A197,197,0,0,1,108.45837249251585,-164.4560167226322L93.9277058316341,-142.42308828699794A170.6070045455344,170.6070045455344,0,0,0,92.88141789262484,-143.1076245706552Z" fill-rule="evenodd" style="fill: #DB3F29; stroke: #fff; opacity: 1;" id="p-type-functions"></path><path d="M108.45837249251585,-164.4560167226322A197,197,0,0,1,109.6606964963207,-163.65674946039297L94.9689489625089,-141.73090253348553A170.6070045455344,170.6070045455344,0,0,0,93.9277058316341,-142.42308828699794Z" fill-rule="evenodd" style="fill: #DB3F29; stroke: #fff; opacity: 1;" id="p-type-functions"></path><path d="M109.6606964963207,-163.65674946039297A197,197,0,0,1,110.85713068126094,-162.84869227942187L96.00509136062328,-141.0311044870541A170.6070045455344,170.6070045455344,0,0,0,94.9689489625089,-141.73090253348553Z" fill-rule="evenodd" style="fill: #DB3F29; stroke: #fff; opacity: 1;" id="p-type-functions"></path><path d="M110.85713068126094,-162.84869227942187A197,197,0,0,1,112.04761078748004,-162.03188858004893L97.03607737530902,-140.32373173349202A170.6070045455344,170.6070045455344,0,0,0,96.00509136062328,-141.0311044870541Z" fill-rule="evenodd" style="fill: #DB3F29; stroke: #fff; opacity: 1;" id="p-type-functions"></path><path d="M112.04761078748004,-162.03188858004893A197,197,0,0,1,113.23207287491175,-161.20638223237523L98.06185163284444,-139.6088222654213A170.6070045455344,170.6070045455344,0,0,0,97.03607737530902,-140.32373173349202Z" fill-rule="evenodd" style="fill: #DB3F29; stroke: #fff; opacity: 1;" id="p-type-functions"></path><path d="M113.23207287491175,-161.20638223237523A197,197,0,0,1,114.41045332671466,-160.3722175739166L99.08235903942874,-138.88641448025697A170.6070045455344,170.6070045455344,0,0,0,98.06185163284444,-139.6088222654213Z" fill-rule="evenodd" style="fill: #DB3F29; stroke: #fff; opacity: 1;" id="p-type-functions"></path><path d="M114.41045332671466,-160.3722175739166A197,197,0,0,1,115.58268885268873,-159.52943940722207L100.0975447841409,-138.15654717814462A170.6070045455344,170.6070045455344,0,0,0,99.08235903942874,-138.88641448025697Z" fill-rule="evenodd" style="fill: #DB3F29; stroke: #fff; opacity: 1;" id="p-type-functions"></path><path d="M115.58268885268873,-159.52943940722207A197,197,0,0,1,116.74871649267473,-158.67809299746787L101.10735434188358,-137.41925955987682A170.6070045455344,170.6070045455344,0,0,0,100.0975447841409,-138.15654717814462Z" fill-rule="evenodd" style="fill: #DB3F29; stroke: #fff; opacity: 1;" id="p-type-functions"></path><path d="M116.74871649267473,-158.67809299746787A197,197,0,0,1,117.9084736199357,-157.818224070026L102.11173347631164,-136.67459122478726A170.6070045455344,170.6070045455344,0,0,0,101.10735434188358,-137.41925955987682Z" fill-rule="evenodd" style="fill: #DB3F29; stroke: #fff; opacity: 1;" id="p-type-functions"></path><path d="M117.9084736199357,-157.818224070026A197,197,0,0,1,119.06189794452068,-156.94987880800844L103.11062824274515,-135.92258216862422A170.6070045455344,170.6070045455344,0,0,0,102.11173347631164,-136.67459122478726Z" fill-rule="evenodd" style="fill: #DB3F29; stroke: #fff; opacity: 1;" id="p-type-functions"></path><path d="M119.06189794452068,-156.94987880800844A197,197,0,0,1,120.20892751661029,-156.07310384978678L104.10398499106674,-135.1632727814022A170.6070045455344,170.6070045455344,0,0,0,103.11062824274515,-135.92258216862422Z" fill-rule="evenodd" style="fill: #DB3F29; stroke: #fff; opacity: 1;" id="p-type-functions"></path><path d="M120.20892751661029,-156.07310384978678A197,197,0,0,1,121.34950072984392,-155.18794628648712L105.09175036860312,-134.39670384523276A170.6070045455344,170.6070045455344,0,0,0,104.10398499106674,-135.1632727814022Z" fill-rule="evenodd" style="fill: #DB3F29; stroke: #fff; opacity: 1;" id="p-type-functions"></path><path d="M121.34950072984392,-155.18794628648712A197,197,0,0,1,122.48355632462861,-154.2944536594609L106.07387132299053,-133.62291653213398A170.6070045455344,170.6070045455344,0,0,0,105.09175036860312,-134.39670384523276Z" fill-rule="evenodd" style="fill: #DB3F29; stroke: #fff; opacity: 1;" id="p-type-functions"></path><path d="M122.48355632462861,-154.2944536594609A197,197,0,0,1,123.61103339142937,-153.39267395773157L107.05029510502435,-132.8419524018192A170.6070045455344,170.6070045455344,0,0,0,106.07387132299053,-133.62291653213398Z" fill-rule="evenodd" style="fill: #DB3F29; stroke: #fff; opacity: 1;" id="p-type-functions"></path><path d="M123.61103339142937,-153.39267395773157A197,197,0,0,1,124.73187137404042,-152.48265561541692L108.02096927149202,-132.05385339946494A170.6070045455344,170.6070045455344,0,0,0,107.05029510502435,-132.8419524018192Z" fill-rule="evenodd" style="fill: #DB3F29; stroke: #fff; opacity: 1;" id="p-type-functions"></path><path d="M124.73187137404042,-152.48265561541692A197,197,0,0,1,125.84601007283779,-151.56444750912797L108.98584168798988,-131.2586618534579A170.6070045455344,170.6070045455344,0,0,0,108.02096927149202,-132.05385339946494Z" fill-rule="evenodd" style="fill: #DB3F29; stroke: #fff; opacity: 1;" id="p-type-functions"></path><path d="M125.84601007283779,-151.56444750912797A197,197,0,0,1,126.95338964801259,-150.63809895534362L109.94486053172326,-130.45642047312168A170.6070045455344,170.6070045455344,0,0,0,108.98584168798988,-131.2586618534579Z" fill-rule="evenodd" style="fill: #DB3F29; stroke: #fff; opacity: 1;" id="p-type-functions"></path><path d="M126.95338964801259,-150.63809895534362A197,197,0,0,1,128.05395062278484,-149.70365970776194L110.8979742942898,-129.64717234642274A170.6070045455344,170.6070045455344,0,0,0,109.94486053172326,-130.45642047312168Z" fill-rule="evenodd" style="fill: #DB3F29; stroke: #fff; opacity: 1;" id="p-type-functions"></path><path d="M128.05395062278484,-149.70365970776194A197,197,0,0,1,129.1476338865981,-148.761179954628L111.84513178444598,-128.83096093765624A170.6070045455344,170.6070045455344,0,0,0,110.8979742942898,-129.64717234642274Z" fill-rule="evenodd" style="fill: #DB3F29; stroke: #fff; opacity: 1;" id="p-type-functions"></path><path d="M129.1476338865981,-148.761179954628A197,197,0,0,1,130.17479086979122,-147.86319292510262L112.73467582556579,-128.05328135781835A170.6070045455344,170.6070045455344,0,0,0,111.84513178444598,-128.83096093765624Z" fill-rule="evenodd" style="fill: #DB3F29; stroke: #fff; opacity: 1;" id="p-type-functions"></path><path d="M196.69645742959608,-10.93177179816213A197,197,0,0,1,196.77129006351873,-9.489963474038262L170.4089359304437,-8.21854944950356A170.6070045455344,170.6070045455344,0,0,0,170.3441289684346,-9.467192085582697Z" fill-rule="evenodd" style="fill: #1DC690; stroke: #fff; opacity: 1;" id="p-type-logs"></path><path d="M196.77129006351873,-9.489963474038262A197,197,0,0,1,196.83555421398964,-8.047645448921429L170.46459031730416,-6.96946539941618A170.6070045455344,170.6070045455344,0,0,0,170.4089359304437,-8.21854944950356Z" fill-rule="evenodd" style="fill: #1DC690; stroke: #fff; opacity: 1;" id="p-type-logs"></path><path d="M196.83555421398964,-8.047645448921429A197,197,0,0,1,196.8892464294148,-6.604895188961164L170.5110891398478,-5.720007022973988A170.6070045455344,170.6070045455344,0,0,0,170.46459031730416,-6.96946539941618Z" fill-rule="evenodd" style="fill: #1DC690; stroke: #fff; opacity: 1;" id="p-type-logs"></path><path d="M196.8892464294148,-6.604895188961164A197,197,0,0,1,196.93236382601336,-5.161790183522116L170.5484299006472,-4.470241427935291A170.6070045455344,170.6070045455344,0,0,0,170.5110891398478,-5.720007022973988Z" fill-rule="evenodd" style="fill: #1DC690; stroke: #fff; opacity: 1;" id="p-type-logs"></path><path d="M196.93236382601336,-5.161790183522116A197,197,0,0,1,196.96490408797234,-3.7184079410221207L170.57661059414946,-3.220235738558945A170.6070045455344,170.6070045455344,0,0,0,170.5484299006472,-4.470241427935291Z" fill-rule="evenodd" style="fill: #1DC690; stroke: #fff; opacity: 1;" id="p-type-logs"></path><path d="M196.96490408797234,-3.7184079410221207A197,197,0,0,1,196.98686546757125,-2.2748259847692776L170.59562970678428,-1.970057091999147A170.6070045455344,170.6070045455344,0,0,0,170.57661059414946,-3.220235738558945Z" fill-rule="evenodd" style="fill: #1DC690; stroke: #fff; opacity: 1;" id="p-type-logs"></path><path d="M196.98686546757125,-2.2748259847692776A197,197,0,0,1,196.99824678527588,-0.8311218487982056L170.605486217045,-0.7197726346995352A170.6070045455344,170.6070045455344,0,0,0,170.59562970678428,-1.970057091999147Z" fill-rule="evenodd" style="fill: #1DC690; stroke: #fff; opacity: 1;" id="p-type-logs"></path><path d="M196.99824678527588,-0.8311218487982056A197,197,0,0,1,196.9990474298015,0.6126269262942675L170.60617959554364,0.5305504812132125A170.6070045455344,170.6070045455344,0,0,0,170.605486217045,-0.7197726346995352Z" fill-rule="evenodd" style="fill: #1DC690; stroke: #fff; opacity: 1;" id="p-type-logs"></path><path d="M196.9990474298015,0.6126269262942675A197,197,0,0,1,196.98926735814595,2.0563427975137696L170.5977098050391,1.7808451015360844A170.6070045455344,170.6070045455344,0,0,0,170.60617959554364,0.5305504812132125Z" fill-rule="evenodd" style="fill: #1DC690; stroke: #fff; opacity: 1;" id="p-type-logs"></path><path d="M196.98926735814595,2.0563427975137696A197,197,0,0,1,196.96890709559185,3.4999482236331785L170.5800773004395,3.031044073596552A170.6070045455344,170.6070045455344,0,0,0,170.5977098050391,1.7808451015360844Z" fill-rule="evenodd" style="fill: #1DC690; stroke: #fff; opacity: 1;" id="p-type-logs"></path><path d="M196.96890709559185,3.4999482236331785A197,197,0,0,1,196.93796773567817,4.94336566935732L170.55328302877743,4.281080249859305A170.6070045455344,170.6070045455344,0,0,0,170.5800773004395,3.031044073596552Z" fill-rule="evenodd" style="fill: #1DC690; stroke: #fff; opacity: 1;" id="p-type-logs"></path><path d="M196.93796773567817,4.94336566935732A197,197,0,0,1,196.8964509401419,6.386517609487351L170.5173284291593,5.530886491532711A170.6070045455344,170.6070045455344,0,0,0,170.55328302877743,4.281080249859305Z" fill-rule="evenodd" style="fill: #1DC690; stroke: #fff; opacity: 1;" id="p-type-logs"></path><path d="M196.8964509401419,6.386517609487351A197,197,0,0,1,196.84435893882846,7.829326533084593L170.4722154326879,6.780395672174804A170.6070045455344,170.6070045455344,0,0,0,170.5173284291593,5.530886491532711Z" fill-rule="evenodd" style="fill: #1DC690; stroke: #fff; opacity: 1;" id="p-type-logs"></path><path d="M196.84435893882846,7.829326533084593A197,197,0,0,1,196.7816945295721,9.27171494763361L170.41794646235874,8.029540681298611A170.6070045455344,170.6070045455344,0,0,0,170.4722154326879,6.780395672174804Z" fill-rule="evenodd" style="fill: #1DC690; stroke: #fff; opacity: 1;" id="p-type-logs"></path><path d="M196.7816945295721,9.27171494763361A197,197,0,0,1,196.7084610780456,10.713605383204284L170.35452443292996,9.278254427976625A170.6070045455344,170.6070045455344,0,0,0,170.41794646235874,8.029540681298611Z" fill-rule="evenodd" style="fill: #1DC690; stroke: #fff; opacity: 1;" id="p-type-logs"></path><path d="M196.7084610780456,10.713605383204284A197,197,0,0,1,196.62466251757945,12.154920396612688L170.2819527507657,10.526469844444213A170.6070045455344,170.6070045455344,0,0,0,170.35452443292996,9.278254427976625Z" fill-rule="evenodd" style="fill: #1DC690; stroke: #fff; opacity: 1;" id="p-type-logs"></path><path d="M196.62466251757945,12.154920396612688A197,197,0,0,1,196.53030334895067,13.595582575580528L170.20023531365322,11.774119889701804A170.6070045455344,170.6070045455344,0,0,0,170.2819527507657,10.526469844444213Z" fill-rule="evenodd" style="fill: #1DC690; stroke: #fff; opacity: 1;" id="p-type-logs"></path><path d="M196.53030334895067,13.595582575580528A197,197,0,0,1,196.42538864014105,15.035514542892896L170.10937651059345,13.02113755311562A170.6070045455344,170.6070045455344,0,0,0,170.20023531365322,11.774119889701804Z" fill-rule="evenodd" style="fill: #1DC690; stroke: #fff; opacity: 1;" id="p-type-logs"></path><path d="M196.42538864014105,15.035514542892896A197,197,0,0,1,196.30992402606492,16.474638960554177L170.00938122156535,14.267455858016776A170.6070045455344,170.6070045455344,0,0,0,170.10937651059345,13.02113755311562Z" fill-rule="evenodd" style="fill: #1DC690; stroke: #fff; opacity: 1;" id="p-type-logs"></path><path d="M196.30992402606492,16.474638960554177A197,197,0,0,1,196.1839157082666,17.912878533941832L169.90025481726383,15.513007865298578A170.6070045455344,170.6070045455344,0,0,0,170.00938122156535,14.267455858016776Z" fill-rule="evenodd" style="fill: #1DC690; stroke: #fff; opacity: 1;" id="p-type-logs"></path><path d="M196.1839157082666,17.912878533941832A197,197,0,0,1,196.04737045458705,19.350156015957836L169.78200315881116,16.757726677011767A170.6070045455344,170.6070045455344,0,0,0,169.90025481726383,15.513007865298578Z" fill-rule="evenodd" style="fill: #1DC690; stroke: #fff; opacity: 1;" id="p-type-logs"></path><path d="M196.04737045458705,19.350156015957836A197,197,0,0,1,195.90029559880077,20.786394211177598L169.65463259744232,18.001545439957596A170.6070045455344,170.6070045455344,0,0,0,169.78200315881116,16.757726677011767Z" fill-rule="evenodd" style="fill: #1DC690; stroke: #fff; opacity: 1;" id="p-type-logs"></path><path d="M195.90029559880077,20.786394211177598A197,197,0,0,1,195.74269904022162,22.221515979996077L169.51814997416378,19.244397349278458A170.6070045455344,170.6070045455344,0,0,0,169.65463259744232,18.001545439957596Z" fill-rule="evenodd" style="fill: #1DC690; stroke: #fff; opacity: 1;" id="p-type-logs"></path><path d="M195.74269904022162,22.221515979996077A197,197,0,0,1,195.57458924327864,23.655444242770916L169.37256261938612,20.486215652045956A170.6070045455344,170.6070045455344,0,0,0,169.51814997416378,19.244397349278458Z" fill-rule="evenodd" style="fill: #1DC690; stroke: #fff; opacity: 1;" id="p-type-logs"></path><path d="M195.57458924327864,23.655444242770916A197,197,0,0,1,195.3959752370614,25.088101983962336L169.21787835253025,21.726933650846156A170.6070045455344,170.6070045455344,0,0,0,169.37256261938612,20.486215652045956Z" fill-rule="evenodd" style="fill: #1DC690; stroke: #fff; opacity: 1;" id="p-type-logs"></path><path d="M195.3959752370614,25.088101983962336A197,197,0,0,1,195.2068666148351,26.519412256269614L169.05410548160762,22.966484707361886A170.6070045455344,170.6070045455344,0,0,0,169.21787835253025,21.726933650846156Z" fill-rule="evenodd" style="fill: #1DC690; stroke: #fff; opacity: 1;" id="p-type-logs"></path><path d="M195.2068666148351,26.519412256269614A197,197,0,0,1,195.0072735335253,27.949298184763887L168.8812528027737,24.20480224595182A170.6070045455344,170.6070045455344,0,0,0,169.05410548160762,22.966484707361886Z" fill-rule="evenodd" style="fill: #1DC690; stroke: #fff; opacity: 1;" id="p-type-logs"></path><path d="M195.0072735335253,27.949298184763887A197,197,0,0,1,194.7972067131724,29.377682971017055L168.69932959985587,25.44181975722627A170.6070045455344,170.6070045455344,0,0,0,168.8812528027737,24.20480224595182Z" fill-rule="evenodd" style="fill: #1DC690; stroke: #fff; opacity: 1;" id="p-type-logs"></path><path d="M194.7972067131724,29.377682971017055A197,197,0,0,1,194.57667743635582,30.804489897226563L168.5083456438545,26.677470801619297A170.6070045455344,170.6070045455344,0,0,0,168.69932959985587,25.44181975722627Z" fill-rule="evenodd" style="fill: #1DC690; stroke: #fff; opacity: 1;" id="p-type-logs"></path><path d="M194.57667743635582,30.804489897226563A197,197,0,0,1,194.34569754758817,32.229642330335935L168.30831119241844,27.91168901295721A170.6070045455344,170.6070045455344,0,0,0,168.5083456438545,26.677470801619297Z" fill-rule="evenodd" style="fill: #1DC690; stroke: #fff; opacity: 1;" id="p-type-logs"></path><path d="M194.34569754758817,32.229642330335935A197,197,0,0,1,194.10427945267884,33.65306372615062L168.0992369892937,29.144408102023036A170.6070045455344,170.6070045455344,0,0,0,168.30831119241844,27.91168901295721Z" fill-rule="evenodd" style="fill: #1DC690; stroke: #fff; opacity: 1;" id="p-type-logs"></path><path d="M194.10427945267884,33.65306372615062A197,197,0,0,1,193.85243611806797,35.0746776334492L167.8811342637469,30.375561860116864A170.6070045455344,170.6070045455344,0,0,0,168.0992369892937,29.144408102023036Z" fill-rule="evenodd" style="fill: #1DC690; stroke: #fff; opacity: 1;" id="p-type-logs"></path><path d="M193.85243611806797,35.0746776334492A197,197,0,0,1,193.59018107012974,36.49440769808952L167.6540147299617,31.605084162611902A170.6070045455344,170.6070045455344,0,0,0,167.8811342637469,30.375561860116864Z" fill-rule="evenodd" style="fill: #1DC690; stroke: #fff; opacity: 1;" id="p-type-logs"></path><path d="M193.59018107012974,36.49440769808952A197,197,0,0,1,193.3175283944462,37.912177667109624L167.41789058640995,32.83290897250599A170.6070045455344,170.6070045455344,0,0,0,167.6540147299617,31.605084162611902Z" fill-rule="evenodd" style="fill: #1DC690; stroke: #fff; opacity: 1;" id="p-type-logs"></path><path d="M193.3175283944462,37.912177667109624A197,197,0,0,1,193.03449273505043,39.32791139282328L167.17277451519632,34.05897034396841A170.6070045455344,170.6070045455344,0,0,0,167.41789058640995,32.83290897250599Z" fill-rule="evenodd" style="fill: #1DC690; stroke: #fff; opacity: 1;" id="p-type-logs"></path><path d="M193.03449273505043,39.32791139282328A197,197,0,0,1,192.74108929364024,40.741532836909826L166.91867968137734,35.2832024258818A170.6070045455344,170.6070045455344,0,0,0,167.17277451519632,34.05897034396841Z" fill-rule="evenodd" style="fill: #1DC690; stroke: #fff; opacity: 1;" id="p-type-logs"></path><path d="M192.74108929364024,40.741532836909826A197,197,0,0,1,192.43733382876152,42.15296607449813L166.65561973225402,36.50553946537899A170.6070045455344,170.6070045455344,0,0,0,166.91867968137734,35.2832024258818Z" fill-rule="evenodd" style="fill: #1DC690; stroke: #fff; opacity: 1;" id="p-type-logs"></path><path d="M192.43733382876152,42.15296607449813A197,197,0,0,1,192.12324265496207,43.562135298244506L166.3836087966392,37.72591581137454A170.6070045455344,170.6070045455344,0,0,0,166.65561973225402,36.50553946537899Z" fill-rule="evenodd" style="fill: #1DC690; stroke: #fff; opacity: 1;" id="p-type-logs"></path><path d="M192.12324265496207,43.562135298244506A197,197,0,0,1,191.79883264191514,44.96896482240425L166.10266148409852,38.944265918090856A170.6070045455344,170.6070045455344,0,0,0,166.3836087966392,37.72591581137454Z" fill-rule="evenodd" style="fill: #1DC690; stroke: #fff; opacity: 1;" id="p-type-logs"></path><path d="M191.79883264191514,44.96896482240425A197,197,0,0,1,191.46412121351344,46.37337908689674L165.81279288416567,40.16052434857859A170.6070045455344,170.6070045455344,0,0,0,166.10266148409852,38.944265918090856Z" fill-rule="evenodd" style="fill: #1DC690; stroke: #fff; opacity: 1;" id="p-type-logs"></path><path d="M191.46412121351344,46.37337908689674A197,197,0,0,1,191.11912634693343,47.775302661363654L165.51401856553215,41.37462577823123A170.6070045455344,170.6070045455344,0,0,0,165.81279288416567,40.16052434857859Z" fill-rule="evenodd" style="fill: #1DC690; stroke: #fff; opacity: 1;" id="p-type-logs"></path><path d="M191.11912634693343,47.775302661363654A197,197,0,0,1,190.76386657166955,49.174660249220366L165.2063545752109,42.58650499829365A170.6070045455344,170.6070045455344,0,0,0,165.51401856553215,41.37462577823123Z" fill-rule="evenodd" style="fill: #1DC690; stroke: #fff; opacity: 1;" id="p-type-logs"></path><path d="M190.76386657166955,49.174660249220366A197,197,0,0,1,190.39836096853927,50.57137669170003L164.8898174376745,43.796096919364466A170.6070045455344,170.6070045455344,0,0,0,165.2063545752109,42.58650499829365Z" fill-rule="evenodd" style="fill: #1DC690; stroke: #fff; opacity: 1;" id="p-type-logs"></path><path d="M190.39836096853927,50.57137669170003A197,197,0,0,1,190.02262916865803,51.96537697189034L164.56442415396774,45.003336574891904A170.6070045455344,170.6070045455344,0,0,0,164.8898174376745,43.796096919364466Z" fill-rule="evenodd" style="fill: #1DC690; stroke: #fff; opacity: 1;" id="p-type-logs"></path><path d="M190.02262916865803,51.96537697189034A197,197,0,0,1,189.63669135238504,53.35658621876268L164.2301922007942,46.20815912466316A170.6070045455344,170.6070045455344,0,0,0,164.56442415396774,45.003336574891904Z" fill-rule="evenodd" style="fill: #1DC690; stroke: #fff; opacity: 1;" id="p-type-logs"></path><path d="M189.63669135238504,53.35658621876268A197,197,0,0,1,189.24056824823927,54.74492971119335L163.887139529578,47.41049985828693A170.6070045455344,170.6070045455344,0,0,0,164.2301922007942,46.20815912466316Z" fill-rule="evenodd" style="fill: #1DC690; stroke: #fff; opacity: 1;" id="p-type-logs"></path><path d="M189.24056824823927,54.74492971119335A197,197,0,0,1,188.8342811317862,56.13033288197684L163.53528456549935,48.610294198668946A170.6070045455344,170.6070045455344,0,0,0,163.887139529578,47.41049985828693Z" fill-rule="evenodd" style="fill: #1DC690; stroke: #fff; opacity: 1;" id="p-type-logs"></path><path d="M188.8342811317862,56.13033288197684A197,197,0,0,1,188.41785182449522,57.512721321830774L163.17464620650497,49.80747770548039A170.6070045455344,170.6070045455344,0,0,0,163.53528456549935,48.610294198668946Z" fill-rule="evenodd" style="fill: #1DC690; stroke: #fff; opacity: 1;" id="p-type-logs"></path><path d="M188.41785182449522,57.512721321830774A197,197,0,0,1,187.99130269256733,58.892020783392425L162.80524382229325,51.00198607861898A170.6070045455344,170.6070045455344,0,0,0,163.17464620650497,49.80747770548039Z" fill-rule="evenodd" style="fill: #1DC690; stroke: #fff; opacity: 1;" id="p-type-logs"></path><path d="M187.99130269256733,58.892020783392425A197,197,0,0,1,187.5546566457342,60.26815718520646L162.4270972532737,52.19375516166244A170.6070045455344,170.6070045455344,0,0,0,162.80524382229325,51.00198607861898Z" fill-rule="evenodd" style="fill: #1DC690; stroke: #fff; opacity: 1;" id="p-type-logs"></path><path d="M187.5546566457342,60.26815718520646A197,197,0,0,1,187.10793713602743,61.64105661570383L162.04022680950152,53.38272094531435A170.6070045455344,170.6070045455344,0,0,0,162.4270972532737,52.19375516166244Z" fill-rule="evenodd" style="fill: #1DC690; stroke: #fff; opacity: 1;" id="p-type-logs"></path><path d="M187.10793713602743,61.64105661570383A197,197,0,0,1,186.6511681565191,63.01064533717156L161.64465326958663,54.56881957084206A170.6070045455344,170.6070045455344,0,0,0,162.04022680950152,53.38272094531435Z" fill-rule="evenodd" style="fill: #1DC690; stroke: #fff; opacity: 1;" id="p-type-logs"></path><path d="M186.6511681565191,63.01064533717156A197,197,0,0,1,186.18437424003315,64.3768497897131L161.24039787957773,55.75198733350644A170.6070045455344,170.6070045455344,0,0,0,161.64465326958663,54.56881957084206Z" fill-rule="evenodd" style="fill: #1DC690; stroke: #fff; opacity: 1;" id="p-type-logs"></path><path d="M186.18437424003315,64.3768497897131A197,197,0,0,1,185.70758045782748,65.73959659519926L160.82748235182117,56.93216068598354A170.6070045455344,170.6070045455344,0,0,0,161.24039787957773,55.75198733350644Z" fill-rule="evenodd" style="fill: #1DC690; stroke: #fff; opacity: 1;" id="p-type-logs"></path><path d="M185.70758045782748,65.73959659519926A197,197,0,0,1,185.22081241824773,67.0988125612092L160.40592886379477,58.109276241777565A170.6070045455344,170.6070045455344,0,0,0,160.82748235182117,56.93216068598354Z" fill-rule="evenodd" style="fill: #1DC690; stroke: #fff; opacity: 1;" id="p-type-logs"></path><path d="M185.22081241824773,67.0988125612092A197,197,0,0,1,184.72409626535165,68.45442468496172L159.97576005691667,59.283270778625415A170.6070045455344,170.6070045455344,0,0,0,160.40592886379477,58.109276241777565Z" fill-rule="evenodd" style="fill: #1DC690; stroke: #fff; opacity: 1;" id="p-type-logs"></path><path d="M184.72409626535165,68.45442468496172A197,197,0,0,1,184.21745867750496,69.80636015723603L159.5369990353294,60.45408124189228A170.6070045455344,170.6070045455344,0,0,0,159.97576005691667,59.283270778625415Z" fill-rule="evenodd" style="fill: #1DC690; stroke: #fff; opacity: 1;" id="p-type-logs"></path><path d="M184.21745867750496,69.80636015723603A197,197,0,0,1,183.70092686594853,71.15454636628242L159.0896693646587,61.62164474795829A170.6070045455344,170.6070045455344,0,0,0,159.5369990353294,60.45408124189228Z" fill-rule="evenodd" style="fill: #1DC690; stroke: #fff; opacity: 1;" id="p-type-logs"></path><path d="M183.70092686594853,71.15454636628242A197,197,0,0,1,183.17452857333672,72.49891090172216L158.63379507074814,62.785898587595966A170.6070045455344,170.6070045455344,0,0,0,159.0896693646587,61.62164474795829Z" fill-rule="evenodd" style="fill: #1DC690; stroke: #fff; opacity: 1;" id="p-type-logs"></path><path d="M183.17452857333672,72.49891090172216A197,197,0,0,1,182.6382920722476,73.83938155843656L158.16940063836844,63.94678022933825A170.6070045455344,170.6070045455344,0,0,0,158.63379507074814,62.785898587595966Z" fill-rule="evenodd" style="fill: #1DC690; stroke: #fff; opacity: 1;" id="p-type-logs"></path><path d="M182.6382920722476,73.83938155843656A197,197,0,0,1,182.09224616366416,75.17588634044519L157.69651100990265,65.10422732283712A170.6070045455344,170.6070045455344,0,0,0,158.16940063836844,63.94678022933825Z" fill-rule="evenodd" style="fill: #1DC690; stroke: #fff; opacity: 1;" id="p-type-logs"></path><path d="M182.09224616366416,75.17588634044519A197,197,0,0,1,181.53642017542762,76.50835346477267L157.2151515840062,66.25817770221231A170.6070045455344,170.6070045455344,0,0,0,157.69651100990265,65.10422732283712Z" fill-rule="evenodd" style="fill: #1DC690; stroke: #fff; opacity: 1;" id="p-type-logs"></path><path d="M181.53642017542762,76.50835346477267A197,197,0,0,1,180.9708439606622,77.83671136530411L156.7253482142431,67.4085693893903A170.6070045455344,170.6070045455344,0,0,0,157.2151515840062,66.25817770221231Z" fill-rule="evenodd" style="fill: #1DC690; stroke: #fff; opacity: 1;" id="p-type-logs"></path><path d="M180.9708439606622,77.83671136530411A197,197,0,0,1,180.3955478961716,79.16088869662885L156.22712720769704,68.555340597433A170.6070045455344,170.6070045455344,0,0,0,156.7253482142431,67.4085693893903Z" fill-rule="evenodd" style="fill: #1DC690; stroke: #fff; opacity: 1;" id="p-type-logs"></path><path d="M180.3955478961716,79.16088869662885A197,197,0,0,1,179.8105628808077,80.48081433787246L155.7205153235587,69.69842973385644A170.6070045455344,170.6070045455344,0,0,0,156.22712720769704,68.555340597433Z" fill-rule="evenodd" style="fill: #1DC690; stroke: #fff; opacity: 1;" id="p-type-logs"></path><path d="M179.8105628808077,80.48081433787246A197,197,0,0,1,179.21592033381086,81.79641739651659L155.20553977168834,70.83777540393876A170.6070045455344,170.6070045455344,0,0,0,155.7205153235587,69.69842973385644Z" fill-rule="evenodd" style="fill: #1DC690; stroke: #fff; opacity: 1;" id="p-type-logs"></path><path d="M179.21592033381086,81.79641739651659A197,197,0,0,1,178.61165219312238,83.1076272122065L154.68222821115452,71.97331641401773A170.6070045455344,170.6070045455344,0,0,0,155.20553977168834,70.83777540393876Z" fill-rule="evenodd" style="fill: #1DC690; stroke: #fff; opacity: 1;" id="p-type-logs"></path><path d="M178.61165219312238,83.1076272122065A197,197,0,0,1,177.9977909136692,84.41437336054625L154.15060874874845,73.10499177477743A170.6070045455344,170.6070045455344,0,0,0,154.68222821115452,71.97331641401773Z" fill-rule="evenodd" style="fill: #1DC690; stroke: #fff; opacity: 1;" id="p-type-logs"></path><path d="M177.9977909136692,84.41437336054625A197,197,0,0,1,177.3743694656208,85.7165856568812L153.61070993747444,74.23274070452395A170.6070045455344,170.6070045455344,0,0,0,154.15060874874845,73.10499177477743Z" fill-rule="evenodd" style="fill: #1DC690; stroke: #fff; opacity: 1;" id="p-type-logs"></path><path d="M177.3743694656208,85.7165856568812A197,197,0,0,1,176.74142133261824,87.01419416006745L153.06256077501632,75.35650263244995A170.6070045455344,170.6070045455344,0,0,0,153.61070993747444,74.23274070452395Z" fill-rule="evenodd" style="fill: #1DC690; stroke: #fff; opacity: 1;" id="p-type-logs"></path><path d="M176.74142133261824,87.01419416006745A197,197,0,0,1,176.09898050997597,88.3071291762285L152.50619070217994,76.47621720188786A170.6070045455344,170.6070045455344,0,0,0,153.06256077501632,75.35650263244995Z" fill-rule="evenodd" style="fill: #1DC690; stroke: #fff; opacity: 1;" id="p-type-logs"></path><path d="M176.09898050997597,88.3071291762285A197,197,0,0,1,175.44708150285575,89.59532126249837L151.94162960131194,77.59182427355165A170.6070045455344,170.6070045455344,0,0,0,152.50619070217994,76.47621720188786Z" fill-rule="evenodd" style="fill: #1DC690; stroke: #fff; opacity: 1;" id="p-type-logs"></path><path d="M175.44708150285575,89.59532126249837A197,197,0,0,1,174.78575932441356,90.8787012307514L151.36890779469496,78.70326392876684A170.6070045455344,170.6070045455344,0,0,0,151.94162960131194,77.59182427355165Z" fill-rule="evenodd" style="fill: #1DC690; stroke: #fff; opacity: 1;" id="p-type-logs"></path><path d="M174.78575932441356,90.8787012307514A197,197,0,0,1,174.115049493919,92.15720015131826L150.78805604291873,79.81047647268873A170.6070045455344,170.6070045455344,0,0,0,151.36890779469496,78.70326392876684Z" fill-rule="evenodd" style="fill: #1DC690; stroke: #fff; opacity: 1;" id="p-type-logs"></path><path d="M174.115049493919,92.15720015131826A197,197,0,0,1,173.43498803484755,93.43074935668817L150.19910554322814,80.91340243750854A170.6070045455344,170.6070045455344,0,0,0,150.78805604291873,79.81047647268873Z" fill-rule="evenodd" style="fill: #1DC690; stroke: #fff; opacity: 1;" id="p-type-logs"></path><path d="M173.43498803484755,93.43074935668817A197,197,0,0,1,172.74561147294582,94.69928044519692L149.60208792784766,82.01198258564744A170.6070045455344,170.6070045455344,0,0,0,150.19910554322814,80.91340243750854Z" fill-rule="evenodd" style="fill: #1DC690; stroke: #fff; opacity: 1;" id="p-type-logs"></path><path d="M172.74561147294582,94.69928044519692A197,197,0,0,1,172.04695683426965,95.96272528470078L148.99703526228225,83.10615791293816A170.6070045455344,170.6070045455344,0,0,0,149.60208792784766,82.01198258564744Z" fill-rule="evenodd" style="fill: #1DC690; stroke: #fff; opacity: 1;" id="p-type-logs"></path><path d="M172.04695683426965,95.96272528470078A197,197,0,0,1,171.3390616431957,97.22101601623584L148.38398004359536,84.19586965179401A170.6070045455344,170.6070045455344,0,0,0,148.99703526228225,83.10615791293816Z" fill-rule="evenodd" style="fill: #1DC690; stroke: #fff; opacity: 1;" id="p-type-logs"></path><path d="M171.3390616431957,97.22101601623584A197,197,0,0,1,170.62196392040573,98.47408505766258L147.7629551986633,85.28105927436539A170.6070045455344,170.6070045455344,0,0,0,148.38398004359536,84.19586965179401Z" fill-rule="evenodd" style="fill: #1DC690; stroke: #fff; opacity: 1;" id="p-type-logs"></path><path d="M170.62196392040573,98.47408505766258A197,197,0,0,1,169.89570218084478,99.72186510729576L147.13399408240684,86.36166849568313A170.6070045455344,170.6070045455344,0,0,0,147.7629551986633,85.28105927436539Z" fill-rule="evenodd" style="fill: #1DC690; stroke: #fff; opacity: 1;" id="p-type-logs"></path><path d="M169.89570218084478,99.72186510729576A197,197,0,0,1,169.16031543165244,100.96428914751914L146.49713047599982,87.43763927678907A170.6070045455344,170.6070045455344,0,0,0,147.13399408240684,86.36166849568313Z" fill-rule="evenodd" style="fill: #1DC690; stroke: #fff; opacity: 1;" id="p-type-logs"></path><path d="M83.7439306300745,178.314200451409A197,197,0,0,1,82.43488363916327,178.92313980980103L71.39070338952959,154.9519844001625A170.6070045455344,170.6070045455344,0,0,0,72.5243713384063,154.4246274464308Z" fill-rule="evenodd" style="fill: #D7A449; stroke: #fff; opacity: 1;" id="p-type-tokenTransfers"></path><path d="M82.43488363916327,178.92313980980103A197,197,0,0,1,81.12140911360865,179.52246929959085L70.25320108317557,155.47101896355764A170.6070045455344,170.6070045455344,0,0,0,71.39070338952959,154.9519844001625Z" fill-rule="evenodd" style="fill: #D7A449; stroke: #fff; opacity: 1;" id="p-type-tokenTransfers"></path><path d="M81.12140911360865,179.52246929959085A197,197,0,0,1,79.80357759944292,180.1121567311038L69.11192551400033,155.98170325954024A170.6070045455344,170.6070045455344,0,0,0,70.25320108317557,155.47101896355764Z" fill-rule="evenodd" style="fill: #D7A449; stroke: #fff; opacity: 1;" id="p-type-tokenTransfers"></path><path d="M79.80357759944292,180.1121567311038A197,197,0,0,1,78.48145987670999,180.69217043253522L67.96693797932,156.48400985952293A170.6070045455344,170.6070045455344,0,0,0,69.11192551400033,155.98170325954024Z" fill-rule="evenodd" style="fill: #D7A449; stroke: #fff; opacity: 1;" id="p-type-tokenTransfers"></path><path d="M78.48145987670999,180.69217043253522A197,197,0,0,1,77.15512695566383,181.2624792516515L66.81829997581839,156.97791178487995A170.6070045455344,170.6070045455344,0,0,0,67.96693797932,156.48400985952293Z" fill-rule="evenodd" style="fill: #D7A449; stroke: #fff; opacity: 1;" id="p-type-tokenTransfers"></path><path d="M77.15512695566383,181.2624792516515A197,197,0,0,1,75.82465007295446,181.82305255746314L65.66607319624414,157.46338250839622A170.6070045455344,170.6070045455344,0,0,0,66.81829997581839,156.97791178487995Z" fill-rule="evenodd" style="fill: #D7A449; stroke: #fff; opacity: 1;" id="p-type-tokenTransfers"></path><path d="M75.82465007295446,181.82305255746314A197,197,0,0,1,74.4901006878019,182.37386024187L64.51031952609713,157.94039595569225A170.6070045455344,170.6070045455344,0,0,0,65.66607319624414,157.46338250839622Z" fill-rule="evenodd" style="fill: #D7A449; stroke: #fff; opacity: 1;" id="p-type-tokenTransfers"></path><path d="M74.4901006878019,182.37386024187A197,197,0,0,1,73.15155047815824,182.91487272127836L63.351101040304734,158.40892650662428A170.6070045455344,170.6070045455344,0,0,0,64.51031952609713,157.94039595569225Z" fill-rule="evenodd" style="fill: #D7A449; stroke: #fff; opacity: 1;" id="p-type-tokenTransfers"></path><path d="M73.15155047815824,182.91487272127836A197,197,0,0,1,71.8090713368577,183.4460609381899L62.18847999988775,158.86894899666063A170.6070045455344,170.6070045455344,0,0,0,63.351101040304734,158.40892650662428Z" fill-rule="evenodd" style="fill: #D7A449; stroke: #fff; opacity: 1;" id="p-type-tokenTransfers"></path><path d="M71.8090713368577,183.4460609381899A197,197,0,0,1,70.4627353677554,183.96739636276226L61.02251884861642,159.32043871823305A170.6070045455344,170.6070045455344,0,0,0,62.18847999988775,158.86894899666063Z" fill-rule="evenodd" style="fill: #D7A449; stroke: #fff; opacity: 1;" id="p-type-tokenTransfers"></path><path d="M70.4627353677554,183.96739636276226A197,197,0,0,1,69.11261488185467,184.47885099434146L59.85328020965659,159.76337142206384A170.6070045455344,170.6070045455344,0,0,0,61.02251884861642,159.32043871823305Z" fill-rule="evenodd" style="fill: #D7A449; stroke: #fff; opacity: 1;" id="p-type-tokenTransfers"></path><path d="M69.11261488185467,184.47885099434146A197,197,0,0,1,67.75878239342323,184.9803973629658L58.68082688220627,160.19772331846835A170.6070045455344,170.6070045455344,0,0,0,59.85328020965659,159.76337142206384Z" fill-rule="evenodd" style="fill: #D7A449; stroke: #fff; opacity: 1;" id="p-type-tokenTransfers"></path><path d="M67.75878239342323,184.9803973629658A197,197,0,0,1,66.40131061609858,185.4720085308411L57.50522183812271,160.62347107863252A170.6070045455344,170.6070045455344,0,0,0,58.68082688220627,160.19772331846835Z" fill-rule="evenodd" style="fill: #D7A449; stroke: #fff; opacity: 1;" id="p-type-tokenTransfers"></path><path d="M66.40131061609858,185.4720085308411A197,197,0,0,1,65.0402724589825,185.95365809378777L56.326528218540226,161.040591835866A170.6070045455344,170.6070045455344,0,0,0,57.50522183812271,160.62347107863252Z" fill-rule="evenodd" style="fill: #D7A449; stroke: #fff; opacity: 1;" id="p-type-tokenTransfers"></path><path d="M65.0402724589825,185.95365809378777A197,197,0,0,1,63.675741022725155,186.42532018265877L55.14480933047889,161.4490631868303A170.6070045455344,170.6070045455344,0,0,0,56.326528218540226,161.040591835866Z" fill-rule="evenodd" style="fill: #D7A449; stroke: #fff; opacity: 1;" id="p-type-tokenTransfers"></path><path d="M63.675741022725155,186.42532018265877A197,197,0,0,1,62.30778959559895,186.88696946472908L53.96012864344442,161.84886319274204A170.6070045455344,170.6070045455344,0,0,0,55.14480933047889,161.4490631868303Z" fill-rule="evenodd" style="fill: #D7A449; stroke: #fff; opacity: 1;" id="p-type-tokenTransfers"></path><path d="M62.30778959559895,186.88696946472908A197,197,0,0,1,60.936491649562164,187.33858114505628L52.77254978601914,162.2399703805512A170.6070045455344,170.6070045455344,0,0,0,53.96012864344442,161.84886319274204Z" fill-rule="evenodd" style="fill: #D7A449; stroke: #fff; opacity: 1;" id="p-type-tokenTransfers"></path><path d="M60.936491649562164,187.33858114505628A197,197,0,0,1,59.56192083631292,187.78013096781245L51.582136542444665,162.62236374409454A170.6070045455344,170.6070045455344,0,0,0,52.77254978601914,162.2399703805512Z" fill-rule="evenodd" style="fill: #D7A449; stroke: #fff; opacity: 1;" id="p-type-tokenTransfers"></path><path d="M59.56192083631292,187.78013096781245A197,197,0,0,1,58.1841509833333,188.21159521758662L50.38895284919597,162.99602274522377A170.6070045455344,170.6070045455344,0,0,0,51.582136542444665,162.62236374409454Z" fill-rule="evenodd" style="fill: #D7A449; stroke: #fff; opacity: 1;" id="p-type-tokenTransfers"></path><path d="M58.1841509833333,188.21159521758662A197,197,0,0,1,56.80325608992416,188.6329507206588L49.19306279154744,163.36092731490865A170.6070045455344,170.6070045455344,0,0,0,50.38895284919597,162.99602274522377Z" fill-rule="evenodd" style="fill: #D7A449; stroke: #fff; opacity: 1;" id="p-type-tokenTransfers"></path><path d="M56.80325608992416,188.6329507206588A197,197,0,0,1,55.419310323230626,189.04417484624452L47.99453060013091,163.7170578543149A170.6070045455344,170.6070045455344,0,0,0,49.19306279154744,163.36092731490865Z" fill-rule="evenodd" style="fill: #D7A449; stroke: #fff; opacity: 1;" id="p-type-tokenTransfers"></path><path d="M55.419310323230626,189.04417484624452A197,197,0,0,1,54.03238801425865,189.4452455077102L46.79342064748581,164.06439523585684A170.6070045455344,170.6070045455344,0,0,0,47.99453060013091,163.7170578543149Z" fill-rule="evenodd" style="fill: #D7A449; stroke: #fff; opacity: 1;" id="p-type-tokenTransfers"></path><path d="M54.03238801425865,189.4452455077102A197,197,0,0,1,52.642563653882746,189.8361411637597L45.589797444601814,164.4029208042247A170.6070045455344,170.6070045455344,0,0,0,46.79342064748581,164.06439523585684Z" fill-rule="evenodd" style="fill: #D7A449; stroke: #fff; opacity: 1;" id="p-type-tokenTransfers"></path><path d="M52.642563653882746,189.8361411637597A197,197,0,0,1,51.24991188884505,190.216840819591L44.383725637453935,164.7326163773866A170.6070045455344,170.6070045455344,0,0,0,45.589797444601814,164.4029208042247Z" fill-rule="evenodd" style="fill: #D7A449; stroke: #fff; opacity: 1;" id="p-type-tokenTransfers"></path><path d="M51.24991188884505,190.216840819591A197,197,0,0,1,49.85450751774616,190.58732402802394L43.17527000353044,165.05346424756507A170.6070045455344,170.6070045455344,0,0,0,44.383725637453935,164.7326163773866Z" fill-rule="evenodd" style="fill: #D7A449; stroke: #fff; opacity: 1;" id="p-type-tokenTransfers"></path><path d="M49.85450751774616,190.58732402802394A197,197,0,0,1,48.45642548702769,190.94757089059848L41.964495448353716,165.36544718218826A170.6070045455344,170.6070045455344,0,0,0,43.17527000353044,165.05346424756507Z" fill-rule="evenodd" style="fill: #D7A449; stroke: #fff; opacity: 1;" id="p-type-tokenTransfers"></path><path d="M48.45642548702769,190.94757089059848A197,197,0,0,1,47.05574088694698,191.29756205864336L40.75146700199417,165.66854842481533A170.6070045455344,170.6070045455344,0,0,0,41.964495448353716,165.36544718218826Z" fill-rule="evenodd" style="fill: #D7A449; stroke: #fff; opacity: 1;" id="p-type-tokenTransfers"></path><path d="M47.05574088694698,191.29756205864336A197,197,0,0,1,45.652528947544,191.63727873431532L39.53624981557756,165.96275169603643A170.6070045455344,170.6070045455344,0,0,0,40.75146700199417,165.66854842481533Z" fill-rule="evenodd" style="fill: #D7A449; stroke: #fff; opacity: 1;" id="p-type-tokenTransfers"></path><path d="M45.652528947544,191.63727873431532A197,197,0,0,1,44.246865034600795,191.96670267160872L38.31890915778571,166.2480411943472A170.6070045455344,170.6070045455344,0,0,0,39.53624981557756,165.96275169603643Z" fill-rule="evenodd" style="fill: #D7A449; stroke: #fff; opacity: 1;" id="p-type-tokenTransfers"></path><path d="M44.246865034600795,191.96670267160872A197,197,0,0,1,42.838824645593654,192.28581617733553L37.099510411351005,166.52440159699736A170.6070045455344,170.6070045455344,0,0,0,38.31890915778571,166.2480411943472Z" fill-rule="evenodd" style="fill: #D7A449; stroke: #fff; opacity: 1;" id="p-type-tokenTransfers"></path><path d="M42.838824645593654,192.28581617733553A197,197,0,0,1,41.428483405638126,192.59460211207573L35.87811906954467,166.79181806081368A170.6070045455344,170.6070045455344,0,0,0,37.099510411351005,166.52440159699736Z" fill-rule="evenodd" style="fill: #D7A449; stroke: #fff; opacity: 1;" id="p-type-tokenTransfers"></path><path d="M41.428483405638126,192.59460211207573A197,197,0,0,1,40.015917063427274,192.89304389109762L34.65480073265921,167.05027622299724A170.6070045455344,170.6070045455344,0,0,0,35.87811906954467,166.79181806081368Z" fill-rule="evenodd" style="fill: #D7A449; stroke: #fff; opacity: 1;" id="p-type-tokenTransfers"></path><path d="M40.015917063427274,192.89304389109762A197,197,0,0,1,38.60120148716326,193.18112548524874L33.42962110448504,167.29976220189485A170.6070045455344,170.6070045455344,0,0,0,34.65480073265921,167.05027622299724Z" fill-rule="evenodd" style="fill: #D7A449; stroke: #fff; opacity: 1;" id="p-type-tokenTransfers"></path><path d="M38.60120148716326,193.18112548524874A197,197,0,0,1,37.18441266048248,193.45883142181685L32.20264598878153,167.54026259774457A170.6070045455344,170.6070045455344,0,0,0,33.42962110448504,167.29976220189485Z" fill-rule="evenodd" style="fill: #D7A449; stroke: #fff; opacity: 1;" id="p-type-tokenTransfers"></path><path d="M37.18441266048248,193.45883142181685A197,197,0,0,1,35.76562667837452,193.72614678536078L30.973941285742782,167.7717644933955A170.6070045455344,170.6070045455344,0,0,0,32.20264598878153,167.54026259774457Z" fill-rule="evenodd" style="fill: #D7A449; stroke: #fff; opacity: 1;" id="p-type-tokenTransfers"></path><path d="M35.76562667837452,193.72614678536078A197,197,0,0,1,34.34491974309514,193.98305721851162L29.74357298845811,167.9942554550014A170.6070045455344,170.6070045455344,0,0,0,30.973941285742782,167.7717644933955Z" fill-rule="evenodd" style="fill: #D7A449; stroke: #fff; opacity: 1;" id="p-type-tokenTransfers"></path><path d="M34.34491974309514,193.98305721851162A197,197,0,0,1,32.92236816007352,194.22954892274393L28.511607179367616,168.2077235326887A170.6070045455344,170.6070045455344,0,0,0,29.74357298845811,167.9942554550014Z" fill-rule="evenodd" style="fill: #D7A449; stroke: #fff; opacity: 1;" id="p-type-tokenTransfers"></path><path d="M32.92236816007352,194.22954892274393A197,197,0,0,1,31.49804833381388,194.4656086591167L27.27811002671293,168.41215726119816A170.6070045455344,170.6070045455344,0,0,0,28.511607179367616,168.2077235326887Z" fill-rule="evenodd" style="fill: #D7A449; stroke: #fff; opacity: 1;" id="p-type-tokenTransfers"></path><path d="M31.49804833381388,194.4656086591167A197,197,0,0,1,30.07203676379188,194.69122374898453L26.043147780983347,168.6075456605008A170.6070045455344,170.6070045455344,0,0,0,27.27811002671293,168.41215726119816Z" fill-rule="evenodd" style="fill: #D7A449; stroke: #fff; opacity: 1;" id="p-type-tokenTransfers"></path><path d="M30.07203676379188,194.69122374898453A197,197,0,0,1,28.644410040345846,194.90638207467845L24.806786771357537,168.79387823638746A170.6070045455344,170.6070045455344,0,0,0,26.043147780983347,168.6075456605008Z" fill-rule="evenodd" style="fill: #D7A449; stroke: #fff; opacity: 1;" id="p-type-tokenTransfers"></path><path d="M28.644410040345846,194.90638207467845A197,197,0,0,1,27.215244840563162,195.11107208015693L23.56909340214107,168.9711449810326A170.6070045455344,170.6070045455344,0,0,0,24.806786771357537,168.79387823638746Z" fill-rule="evenodd" style="fill: #D7A449; stroke: #fff; opacity: 1;" id="p-type-tokenTransfers"></path><path d="M27.215244840563162,195.11107208015693A197,197,0,0,1,25.784617924161967,195.3052827716265L22.33013414919984,169.13933637353182A170.6070045455344,170.6070045455344,0,0,0,23.56909340214107,168.9711449810326Z" fill-rule="evenodd" style="fill: #D7A449; stroke: #fff; opacity: 1;" id="p-type-tokenTransfers"></path><path d="M25.784617924161967,195.3052827716265A197,197,0,0,1,24.35260612936844,195.48900371813204L21.0899755563897,169.29844338041292A170.6070045455344,170.6070045455344,0,0,0,22.33013414919984,169.13933637353182Z" fill-rule="evenodd" style="fill: #D7A449; stroke: #fff; opacity: 1;" id="p-type-tokenTransfers"></path><path d="M24.35260612936844,195.48900371813204A197,197,0,0,1,22.91928636878986,195.66222505211732L19.848684231982418,169.4484574561216A170.6070045455344,170.6070045455344,0,0,0,21.0899755563897,169.29844338041292Z" fill-rule="evenodd" style="fill: #D7A449; stroke: #fff; opacity: 1;" id="p-type-tokenTransfers"></path><path d="M22.91928636878986,195.66222505211732A197,197,0,0,1,21.484735625283662,195.8249374699547L18.606326845088198,169.58937054347996A170.6070045455344,170.6070045455344,0,0,0,19.848684231982418,169.4484574561216Z" fill-rule="evenodd" style="fill: #D7A449; stroke: #fff; opacity: 1;" id="p-type-tokenTransfers"></path><path d="M21.484735625283662,195.8249374699547A197,197,0,0,1,20.049030947822736,195.97713223244503L17.36297012207489,169.72117507411954A170.6070045455344,170.6070045455344,0,0,0,18.606326845088198,169.58937054347996Z" fill-rule="evenodd" style="fill: #D7A449; stroke: #fff; opacity: 1;" id="p-type-tokenTransfers"></path><path d="M20.049030947822736,195.97713223244503A197,197,0,0,1,18.61224944735716,196.11880116528692L16.11868084298418,169.84386396888763A170.6070045455344,170.6070045455344,0,0,0,17.36297012207489,169.72117507411954Z" fill-rule="evenodd" style="fill: #D7A449; stroke: #fff; opacity: 1;" id="p-type-tokenTransfers"></path><path d="M18.61224944735716,196.11880116528692A197,197,0,0,1,17.17446829267262,196.24993665951584L14.873525837944843,169.95743063822772A170.6070045455344,170.6070045455344,0,0,0,16.11868084298418,169.84386396888763Z" fill-rule="evenodd" style="fill: #D7A449; stroke: #fff; opacity: 1;" id="p-type-tokenTransfers"></path><path d="M17.17446829267262,196.24993665951584A197,197,0,0,1,15.735764706245702,196.37053167191272L13.627571983583353,170.0618689825331A170.6070045455344,170.6070045455344,0,0,0,14.873525837944843,169.95743063822772Z" fill-rule="evenodd" style="fill: #D7A449; stroke: #fff; opacity: 1;" id="p-type-tokenTransfers"></path><path d="M15.735764706245702,196.37053167191272A197,197,0,0,1,14.296215960096328,196.48057972538226L12.380886199431957,170.15717339247476A170.6070045455344,170.6070045455344,0,0,0,13.627571983583353,170.0618689825331Z" fill-rule="evenodd" style="fill: #D7A449; stroke: #fff; opacity: 1;" id="p-type-tokenTransfers"></path><path d="M14.296215960096328,196.48057972538226A197,197,0,0,1,12.855899371637497,196.58007490930083L11.133535444334475,170.24333874930247A170.6070045455344,170.6070045455344,0,0,0,12.380886199431957,170.15717339247476Z" fill-rule="evenodd" style="fill: #D7A449; stroke: #fff; opacity: 1;" id="p-type-tokenTransfers"></path><path d="M12.855899371637497,196.58007490930083A197,197,0,0,1,11.414892299522634,196.66901187983402L9.88558671284997,170.32036042511982A170.6070045455344,170.6070045455344,0,0,0,11.133535444334475,170.24333874930247Z" fill-rule="evenodd" style="fill: #D7A449; stroke: #fff; opacity: 1;" id="p-type-tokenTransfers"></path><path d="M11.414892299522634,196.66901187983402A197,197,0,0,1,9.97327213949067,196.74738586022346L8.637107031654498,170.38823428313276A170.6070045455344,170.6070045455344,0,0,0,9.88558671284997,170.32036042511982Z" fill-rule="evenodd" style="fill: #D7A449; stroke: #fff; opacity: 1;" id="p-type-tokenTransfers"></path><path d="M9.97327213949067,196.74738586022346A197,197,0,0,1,8.531116320209168,196.8151926410435L7.388163455941159,170.44695667787178A170.6070045455344,170.6070045455344,0,0,0,8.637107031654498,170.38823428313276Z" fill-rule="evenodd" style="fill: #D7A449; stroke: #fff; opacity: 1;" id="p-type-tokenTransfers"></path><path d="M8.531116320209168,196.8151926410435A197,197,0,0,1,7.088502299115677,196.87242858042725L6.138823065818576,170.49652445538757A170.6070045455344,170.6070045455344,0,0,0,7.388163455941159,170.44695667787178Z" fill-rule="evenodd" style="fill: #D7A449; stroke: #fff; opacity: 1;" id="p-type-tokenTransfers"></path><path d="M7.088502299115677,196.87242858042725A197,197,0,0,1,5.645507558257522,196.9190906042623L4.889152962708072,170.5369349534207A170.6070045455344,170.6070045455344,0,0,0,6.138823065818576,170.49652445538757Z" fill-rule="evenodd" style="fill: #D7A449; stroke: #fff; opacity: 1;" id="p-type-tokenTransfers"></path><path d="M5.645507558257522,196.9190906042623A197,197,0,0,1,4.202209600130291,196.95517620635556L3.63922026573968,170.56818600154435A170.6070045455344,170.6070045455344,0,0,0,4.889152962708072,170.5369349534207Z" fill-rule="evenodd" style="fill: #D7A449; stroke: #fff; opacity: 1;" id="p-type-tokenTransfers"></path><path d="M4.202209600130291,196.95517620635556A197,197,0,0,1,2.7586859435152093,196.98068344856824L2.389092108147214,170.590275921281A170.6070045455344,170.6070045455344,0,0,0,3.63922026573968,170.56818600154435Z" fill-rule="evenodd" style="fill: #D7A449; stroke: #fff; opacity: 1;" id="p-type-tokenTransfers"></path><path d="M2.7586859435152093,196.98068344856824A197,197,0,0,1,1.3150141193156537,196.99561096091963L1.138835633662577,170.60320352619263A170.6070045455344,170.6070045455344,0,0,0,2.389092108147214,170.590275921281Z" fill-rule="evenodd" style="fill: #D7A449; stroke: #fff; opacity: 1;" id="p-type-tokenTransfers"></path><path d="M1.3150141193156537,196.99561096091963A197,197,0,0,1,-0.12872833360699582,196.9999579416608L-0.11148200709049647,170.60696812194422A170.6070045455344,170.6070045455344,0,0,0,1.138835633662577,170.60320352619263Z" fill-rule="evenodd" style="fill: #D7A449; stroke: #fff; opacity: 1;" id="p-type-tokenTransfers"></path><path d="M-0.12872833360699582,196.9999579416608A197,197,0,0,1,-1.5724638725979276,196.9937241573177L-1.3617936602030623,170.60156950634138A170.6070045455344,170.6070045455344,0,0,0,-0.11148200709049647,170.60696812194422Z" fill-rule="evenodd" style="fill: #D7A449; stroke: #fff; opacity: 1;" id="p-type-tokenTransfers"></path><path d="M-1.5724638725979276,196.9937241573177A197,197,0,0,1,-3.016114955373674,196.9769099427036L-2.61203217208777,170.5870079693409A170.6070045455344,170.6070045455344,0,0,0,-1.3617936602030623,170.60156950634138Z" fill-rule="evenodd" style="fill: #D7A449; stroke: #fff; opacity: 1;" id="p-type-tokenTransfers"></path><path d="M-3.016114955373674,196.9769099427036A197,197,0,0,1,-4.459604044186865,196.94951620090126L-3.862130393085646,170.56328429303537A170.6070045455344,170.6070045455344,0,0,0,-2.61203217208777,170.5870079693409Z" fill-rule="evenodd" style="fill: #D7A449; stroke: #fff; opacity: 1;" id="p-type-tokenTransfers"></path><path d="M-91.72923627775518,174.3408936879118A197,197,0,0,1,-108.42180416098867,164.4801276217775L-93.89603672755754,142.44396893816588A170.6070045455344,170.6070045455344,0,0,0,-79.4398488862811,150.9836428522137Z" fill-rule="evenodd" style="fill: #414552; stroke: #fff; opacity: 1;" id="p-type-ether"></path><path d="M-108.42180416098867,164.4801276217775A197,197,0,0,1,-122.34109312457001,154.4074380756487L-105.95049457263535,133.72076390678438A170.6070045455344,170.6070045455344,0,0,0,-93.89603672755754,142.44396893816588Z" fill-rule="evenodd" style="fill: #414552; stroke: #fff; opacity: 1;" id="p-type-ether"></path><path d="M-122.34109312457001,154.4074380756487A197,197,0,0,1,-133.3263662606194,145.0278595985584L-115.46402017596489,125.5978106688344A170.6070045455344,170.6070045455344,0,0,0,-105.95049457263535,133.72076390678438Z" fill-rule="evenodd" style="fill: #414552; stroke: #fff; opacity: 1;" id="p-type-ether"></path><path d="M-133.3263662606194,145.0278595985584A197,197,0,0,1,-139.05479388452866,139.54484690496903L-120.42498402201083,120.84938238691348A170.6070045455344,170.6070045455344,0,0,0,-115.46402017596489,125.5978106688344Z" fill-rule="evenodd" style="fill: #414552; stroke: #fff; opacity: 1;" id="p-type-ether"></path><path d="M-139.05479388452866,139.54484690496903A197,197,0,0,1,-141.450417687691,137.11593392446318L-122.49965509346009,118.74588204221362A170.6070045455344,170.6070045455344,0,0,0,-120.42498402201083,120.84938238691348Z" fill-rule="evenodd" style="fill: #414552; stroke: #fff; opacity: 1;" id="p-type-ether"></path><path d="M-141.450417687691,137.11593392446318A197,197,0,0,1,-143.71582856736717,134.73960300963904L-124.46155846526932,116.68791910217762A170.6070045455344,170.6070045455344,0,0,0,-122.49965509346009,118.74588204221362Z" fill-rule="evenodd" style="fill: #414552; stroke: #fff; opacity: 1;" id="p-type-ether"></path><path d="M-143.71582856736717,134.73960300963904A197,197,0,0,1,-145.43151417191757,132.8859461555786L-125.94738578371724,115.08260517666213A170.6070045455344,170.6070045455344,0,0,0,-124.46155846526932,116.68791910217762Z" fill-rule="evenodd" style="fill: #414552; stroke: #fff; opacity: 1;" id="p-type-ether"></path><path d="M-145.43151417191757,132.8859461555786A197,197,0,0,1,-147.04403505215012,131.09939647298933L-127.34386983013145,113.5354077664168A170.6070045455344,170.6070045455344,0,0,0,-125.94738578371724,115.08260517666213Z" fill-rule="evenodd" style="fill: #414552; stroke: #fff; opacity: 1;" id="p-type-ether"></path><path d="M-147.04403505215012,131.09939647298933A197,197,0,0,1,-148.00086465662298,130.01824510772312L-128.17250857469799,112.59910321876004A170.6070045455344,170.6070045455344,0,0,0,-127.34386983013145,113.5354077664168Z" fill-rule="evenodd" style="fill: #414552; stroke: #fff; opacity: 1;" id="p-type-ether"></path><path d="M-148.00086465662298,130.01824510772312A197,197,0,0,1,-148.89776421773655,128.9901384252274L-128.94924637926545,111.7087367139182A170.6070045455344,170.6070045455344,0,0,0,-128.17250857469799,112.59910321876004Z" fill-rule="evenodd" style="fill: #414552; stroke: #fff; opacity: 1;" id="p-type-ether"></path></g></svg>