<svg xmlns="http://www.w3.org/2000/svg" width="400" height="400" id="block-7908293"><g id="burst-container" transform="translate(200,200)"><circle r="197" style="fill: #f9f9f9; stroke: #f9f9f9; stroke-width: 3; opacity: 1;" id="circle-base"></circle><path display="none" d="M6.031385485800715e-15,-98.5A98.5,98.5,0,1,1,-6.031385485800715e-15,98.5A98.5,98.5,0,1,1,6.031385485800715e-15,-98.5Z" fill-rule="evenodd" id="p-type-root" style="stroke: #fff; opacity: 1;"></path><path d="M8.529667153919608e-15,-139.30003589374985A139.30003589374985,139.30003589374985,0,1,1,-101.52999688241427,-95.37378954962914L-71.79254928940416,-67.43945333800144A98.5,98.5,0,1,0,6.031385485800715e-15,-98.5Z" fill-rule="evenodd" style="fill: #0B1F65; stroke: #fff; opacity: 1;" id="p-type-data"></path><path d="M-101.52999688241427,-95.37378954962914A139.30003589374985,139.30003589374985,0,0,1,-2.298073465898492,-139.28107860849346L-1.6249833314016957,-98.48659517504231A98.5,98.5,0,0,0,-71.79254928940416,-67.43945333800144Z" fill-rule="evenodd" style="fill: #D7A449; stroke: #fff; opacity: 1;" id="p-type-value"></path><path d="M1.0446666101440332e-14,-170.6070045455344A170.6070045455344,170.6070045455344,0,0,1,170.49167339277767,6.272105207219205L139.20586840184953,5.121152456913467A139.30003589374985,139.30003589374985,0,0,0,8.529667153919608e-15,-139.30003589374985Z" fill-rule="evenodd" style="fill: #DB3F29; stroke: #fff; opacity: 1;" id="p-type-functions"></path><path d="M170.49167339277767,6.272105207219205A170.6070045455344,170.6070045455344,0,0,1,16.81073503934551,169.77676280173597L13.725907682507529,138.62214634859495A139.30003589374985,139.30003589374985,0,0,0,139.20586840184953,5.121152456913467Z" fill-rule="evenodd" style="fill: #1DC690; stroke: #fff; opacity: 1;" id="p-type-logs"></path><path d="M16.81073503934551,169.77676280173597A170.6070045455344,170.6070045455344,0,0,1,-154.92349558228594,71.45250532042549L-126.49450444830812,58.340726292847556A139.30003589374985,139.30003589374985,0,0,0,13.725907682507529,138.62214634859495Z" fill-rule="evenodd" style="fill: #D7A449; stroke: #fff; opacity: 1;" id="p-type-tokenTransfers"></path><path d="M-154.92349558228594,71.45250532042549A170.6070045455344,170.6070045455344,0,0,1,-167.91149690538367,30.207270763730467L-137.09916312170222,24.664133297743984A139.30003589374985,139.30003589374985,0,0,0,-126.49450444830812,58.340726292847556Z" fill-rule="evenodd" style="fill: #414552; stroke: #fff; opacity: 1;" id="p-type-ether"></path><path d="M-124.34834297414089,-116.80855961608901A170.6070045455344,170.6070045455344,0,0,1,-33.55596736253127,-167.27446623548L-27.398332621229148,-136.57902975777975A139.30003589374985,139.30003589374985,0,0,0,-101.52999688241427,-95.37378954962914Z" fill-rule="evenodd" style="fill: #D7A449; stroke: #fff; opacity: 1;" id="p-type-tokenTransfers"></path><path d="M-33.55596736253127,-167.27446623548A170.6070045455344,170.6070045455344,0,0,1,-5.628341319944973,-170.5141395133735L-4.595521444029315,-139.2242119125027A139.30003589374985,139.30003589374985,0,0,0,-27.398332621229148,-136.57902975777975Z" fill-rule="evenodd" style="fill: #414552; stroke: #fff; opacity: 1;" id="p-type-ether"></path><path d="M1.206277097160143e-14,-197A197,197,0,0,1,2.170826453403316,-196.98803900874083L1.8799908558545477,-170.59664602324952A170.6070045455344,170.6070045455344,0,0,0,1.0446666101440332e-14,-170.6070045455344Z" fill-rule="evenodd" style="fill: #DB3F29; stroke: #fff; opacity: 1;" id="p-type-functions"></path><path d="M2.170826453403316,-196.98803900874083A197,197,0,0,1,3.7956925501341146,-196.96342990023518L3.287166173371482,-170.57533391011916A170.6070045455344,170.6070045455344,0,0,0,1.8799908558545477,-170.59664602324952Z" fill-rule="evenodd" style="fill: #DB3F29; stroke: #fff; opacity: 1;" id="p-type-functions"></path><path d="M3.7956925501341146,-196.96342990023518A197,197,0,0,1,5.420300365343143,-196.92541822717925L4.694117812529236,-170.54241483561236A170.6070045455344,170.6070045455344,0,0,0,3.287166173371482,-170.57533391011916Z" fill-rule="evenodd" style="fill: #DB3F29; stroke: #fff; opacity: 1;" id="p-type-functions"></path><path d="M5.420300365343143,-196.92541822717925A197,197,0,0,1,7.044539351041206,-196.87400657611363L6.100750035960828,-170.49789103973902A170.6070045455344,170.6070045455344,0,0,0,4.694117812529236,-170.54241483561236Z" fill-rule="evenodd" style="fill: #DB3F29; stroke: #fff; opacity: 1;" id="p-type-functions"></path><path d="M7.044539351041206,-196.87400657611363A197,197,0,0,1,8.668298984336507,-196.80919844539318L7.506967128034263,-170.44176555216333A170.6070045455344,170.6070045455344,0,0,0,6.100750035960828,-170.49789103973902Z" fill-rule="evenodd" style="fill: #DB3F29; stroke: #fff; opacity: 1;" id="p-type-functions"></path><path d="M8.668298984336507,-196.80919844539318A197,197,0,0,1,10.291468774955193,-196.73099824494898L8.912673401365513,-170.37404219199763A170.6070045455344,170.6070045455344,0,0,0,7.506967128034263,-170.44176555216333Z" fill-rule="evenodd" style="fill: #DB3F29; stroke: #fff; opacity: 1;" id="p-type-functions"></path><path d="M10.291468774955193,-196.73099824494898A197,197,0,0,1,11.913938272759959,-196.63941129598834L10.31777320332982,-170.2947255675426A170.6070045455344,170.6070045455344,0,0,0,8.912673401365513,-170.37404219199763Z" fill-rule="evenodd" style="fill: #DB3F29; stroke: #fff; opacity: 1;" id="p-type-functions"></path><path d="M11.913938272759959,-196.63941129598834A197,197,0,0,1,13.53559707526545,-196.53444383063257L11.722170922570228,-170.20382107597365A170.6070045455344,170.6070045455344,0,0,0,10.31777320332982,-170.2947255675426Z" fill-rule="evenodd" style="fill: #DB3F29; stroke: #fff; opacity: 1;" id="p-type-functions"></path><path d="M13.53559707526545,-196.53444383063257A197,197,0,0,1,15.156334835150904,-196.41610299149303L13.125770995503714,-170.10133490297363A170.6070045455344,170.6070045455344,0,0,0,11.722170922570228,-170.20382107597365Z" fill-rule="evenodd" style="fill: #DB3F29; stroke: #fff; opacity: 1;" id="p-type-functions"></path><path d="M15.156334835150904,-196.41610299149303A197,197,0,0,1,16.776041267768726,-196.28439683118503L14.528477912823817,-169.987274022312A170.6070045455344,170.6070045455344,0,0,0,13.125770995503714,-170.10133490297363Z" fill-rule="evenodd" style="fill: #DB3F29; stroke: #fff; opacity: 1;" id="p-type-functions"></path><path d="M16.776041267768726,-196.28439683118503A197,197,0,0,1,18.394606158649108,-196.13933431177998L15.930196225999813,-169.86164619537024A170.6070045455344,170.6070045455344,0,0,0,14.528477912823817,-169.987274022312Z" fill-rule="evenodd" style="fill: #DB3F29; stroke: #fff; opacity: 1;" id="p-type-functions"></path><path d="M18.394606158649108,-196.13933431177998A197,197,0,0,1,20.011919370999404,-195.9809253041954L17.33083055377139,-169.72445997061374A170.6070045455344,170.6070045455344,0,0,0,15.930196225999813,-169.86164619537024Z" fill-rule="evenodd" style="fill: #DB3F29; stroke: #fff; opacity: 1;" id="p-type-functions"></path><path d="M20.011919370999404,-195.9809253041954A197,197,0,0,1,21.627870853198633,-195.80918058752343L18.73028558863904,-169.57572468301004A170.6070045455344,170.6070045455344,0,0,0,17.33083055377139,-169.72445997061374Z" fill-rule="evenodd" style="fill: #DB3F29; stroke: #fff; opacity: 1;" id="p-type-functions"></path><path d="M21.627870853198633,-195.80918058752343A197,197,0,0,1,23.24235064628617,-195.62411184829716L20.12846610334949,-169.41545045339373A170.6070045455344,170.6070045455344,0,0,0,18.73028558863904,-169.57572468301004Z" fill-rule="evenodd" style="fill: #DB3F29; stroke: #fff; opacity: 1;" id="p-type-functions"></path><path d="M23.24235064628617,-195.62411184829716A197,197,0,0,1,24.855248891443743,-195.42573167969562L21.525276957375286,-169.24364818777775A170.6070045455344,170.6070045455344,0,0,0,20.12846610334949,-169.41545045339373Z" fill-rule="evenodd" style="fill: #DB3F29; stroke: #fff; opacity: 1;" id="p-type-functions"></path><path d="M24.855248891443743,-195.42573167969562A197,197,0,0,1,26.466455837471027,-195.21405358068665L22.92062310338886,-169.0603295766112A170.6070045455344,170.6070045455344,0,0,0,21.525276957375286,-169.24364818777775Z" fill-rule="evenodd" style="fill: #DB3F29; stroke: #fff; opacity: 1;" id="p-type-functions"></path><path d="M26.466455837471027,-195.21405358068665A197,197,0,0,1,28.07586184825389,-194.9890919551085L24.31440959373019,-168.8655070939839A170.6070045455344,170.6070045455344,0,0,0,22.92062310338886,-169.0603295766112Z" fill-rule="evenodd" style="fill: #DB3F29; stroke: #fff; opacity: 1;" id="p-type-functions"></path><path d="M28.07586184825389,-194.9890919551085A197,197,0,0,1,29.683357410224424,-194.7508621106897L25.706541586867417,-168.6591939967776A170.6070045455344,170.6070045455344,0,0,0,24.31440959373019,-168.8655070939839Z" fill-rule="evenodd" style="fill: #DB3F29; stroke: #fff; opacity: 1;" id="p-type-functions"></path><path d="M29.683357410224424,-194.7508621106897A197,197,0,0,1,31.288833139813075,-194.49938025800733L27.096924353850543,-168.44140432376386A170.6070045455344,170.6070045455344,0,0,0,25.706541586867417,-168.6591939967776Z" fill-rule="evenodd" style="fill: #DB3F29; stroke: #fff; opacity: 1;" id="p-type-functions"></path><path d="M31.288833139813075,-194.49938025800733A197,197,0,0,1,32.892179790891674,-194.23466350938406L28.485463284757312,-168.2121528946489A170.6070045455344,170.6070045455344,0,0,0,27.096924353850543,-168.44140432376386Z" fill-rule="evenodd" style="fill: #DB3F29; stroke: #fff; opacity: 1;" id="p-type-functions"></path><path d="M32.892179790891674,-194.23466350938406A197,197,0,0,1,34.49328826220735,-193.9567298777237L29.87206389513116,-167.97145530906494A170.6070045455344,170.6070045455344,0,0,0,28.485463284757312,-168.2121528946489Z" fill-rule="evenodd" style="fill: #DB3F29; stroke: #fff; opacity: 1;" id="p-type-functions"></path><path d="M34.49328826220735,-193.9567298777237A197,197,0,0,1,36.0920496048062,-193.66559827528536L31.256631832410275,-167.7193279455089A170.6070045455344,170.6070045455344,0,0,0,29.87206389513116,-167.97145530906494Z" fill-rule="evenodd" style="fill: #DB3F29; stroke: #fff; opacity: 1;" id="p-type-functions"></path><path d="M36.0920496048062,-193.66559827528536A197,197,0,0,1,37.688355029446946,-193.3612885123968L32.63907288234807,-167.45578796022778A170.6070045455344,170.6070045455344,0,0,0,31.256631832410275,-167.7193279455089Z" fill-rule="evenodd" style="fill: #DB3F29; stroke: #fff; opacity: 1;" id="p-type-functions"></path><path d="M37.688355029446946,-193.3612885123968A197,197,0,0,1,39.282095914003584,-193.0438212961063L34.019292975424,-167.18085328605147A170.6070045455344,170.6070045455344,0,0,0,32.63907288234807,-167.45578796022778Z" fill-rule="evenodd" style="fill: #DB3F29; stroke: #fff; opacity: 1;" id="p-type-functions"></path><path d="M39.282095914003584,-193.0438212961063A197,197,0,0,1,40.873163810856795,-192.71321822877346L35.39719819324476,-166.8945426311722A170.6070045455344,170.6070045455344,0,0,0,34.019292975424,-167.18085328605147Z" fill-rule="evenodd" style="fill: #DB3F29; stroke: #fff; opacity: 1;" id="p-type-functions"></path><path d="M40.873163810856795,-192.71321822877346A197,197,0,0,1,42.46145045427313,-192.36950180659957L36.77269477493482,-166.5968754778717A170.6070045455344,170.6070045455344,0,0,0,35.39719819324476,-166.8945426311722Z" fill-rule="evenodd" style="fill: #DB3F29; stroke: #fff; opacity: 1;" id="p-type-functions"></path><path d="M42.46145045427313,-192.36950180659957A197,197,0,0,1,44.046847767772235,-192.01269541809648L38.14568912351665,-166.28787208119545A170.6070045455344,170.6070045455344,0,0,0,36.77269477493482,-166.5968754778717Z" fill-rule="evenodd" style="fill: #DB3F29; stroke: #fff; opacity: 1;" id="p-type-functions"></path><path d="M44.046847767772235,-192.01269541809648A197,197,0,0,1,45.62924787148091,-191.64282334249555L39.516087812279494,-165.96755346757453A170.6070045455344,170.6070045455344,0,0,0,38.14568912351665,-166.28787208119545Z" fill-rule="evenodd" style="fill: #DB3F29; stroke: #fff; opacity: 1;" id="p-type-functions"></path><path d="M45.62924787148091,-191.64282334249555A197,197,0,0,1,47.20854308947413,-191.259910748095L40.8837975911369,-165.63594143339466A170.6070045455344,170.6070045455344,0,0,0,39.516087812279494,-165.96755346757453Z" fill-rule="evenodd" style="fill: #DB3F29; stroke: #fff; opacity: 1;" id="p-type-functions"></path><path d="M47.20854308947413,-191.259910748095A197,197,0,0,1,48.784625957101575,-190.8639836905478L42.2487253929717,-165.29305854351315A170.6070045455344,170.6070045455344,0,0,0,40.8837975911369,-165.63594143339466Z" fill-rule="evenodd" style="fill: #DB3F29; stroke: #fff; opacity: 1;" id="p-type-functions"></path><path d="M48.784625957101575,-190.8639836905478A197,197,0,0,1,50.35738922830049,-190.45506911108836L43.61077833996907,-164.93892812972348A170.6070045455344,170.6070045455344,0,0,0,42.2487253929717,-165.29305854351315Z" fill-rule="evenodd" style="fill: #DB3F29; stroke: #fff; opacity: 1;" id="p-type-functions"></path><path d="M50.35738922830049,-190.45506911108836A197,197,0,0,1,51.92672588289313,-190.03319483469954L44.96986374993639,-164.57357428916757A170.6070045455344,170.6070045455344,0,0,0,43.61077833996907,-164.93892812972348Z" fill-rule="evenodd" style="fill: #DB3F29; stroke: #fff; opacity: 1;" id="p-type-functions"></path><path d="M51.92672588289313,-190.03319483469954A197,197,0,0,1,53.492529133869304,-189.598389568219L46.32588914261001,-164.19702188269616A170.6070045455344,170.6070045455344,0,0,0,44.96986374993639,-164.57357428916757Z" fill-rule="evenodd" style="fill: #DB3F29; stroke: #fff; opacity: 1;" id="p-type-functions"></path><path d="M53.492529133869304,-189.598389568219A197,197,0,0,1,55.054692434652516,-189.15068289838612L47.67876224594802,-163.80929653317713A170.6070045455344,170.6070045455344,0,0,0,46.32588914261001,-164.19702188269616Z" fill-rule="evenodd" style="fill: #DB3F29; stroke: #fff; opacity: 1;" id="p-type-functions"></path><path d="M55.054692434652516,-189.15068289838612A197,197,0,0,1,56.61310948635013,-188.6901052898284L49.028391002409,-163.41042462375188A170.6070045455344,170.6070045455344,0,0,0,47.67876224594802,-163.80929653317713Z" fill-rule="evenodd" style="fill: #DB3F29; stroke: #fff; opacity: 1;" id="p-type-functions"></path><path d="M56.61310948635013,-188.6901052898284A197,197,0,0,1,58.167674244986756,-188.2166880829888L50.37468357521635,-163.00043329604014A170.6070045455344,170.6070045455344,0,0,0,49.028391002409,-163.41042462375188Z" fill-rule="evenodd" style="fill: #DB3F29; stroke: #fff; opacity: 1;" id="p-type-functions"></path><path d="M58.167674244986756,-188.2166880829888A197,197,0,0,1,59.71828092871983,-187.73046349199296L51.717548354607125,-162.579350448293A170.6070045455344,170.6070045455344,0,0,0,50.37468357521635,-163.00043329604014Z" fill-rule="evenodd" style="fill: #DB3F29; stroke: #fff; opacity: 1;" id="p-type-functions"></path><path d="M59.71828092871983,-187.73046349199296A197,197,0,0,1,61.2648240250378,-187.23146460245712L53.056893964065935,-162.14720473349476A170.6070045455344,170.6070045455344,0,0,0,51.717548354607125,-162.579350448293Z" fill-rule="evenodd" style="fill: #DB3F29; stroke: #fff; opacity: 1;" id="p-type-functions"></path><path d="M61.2648240250378,-187.23146460245712A197,197,0,0,1,62.807198297939806,-186.71972536923695L54.39262926654263,-161.70402555741293A170.6070045455344,170.6070045455344,0,0,0,53.056893964065935,-162.14720473349476Z" fill-rule="evenodd" style="fill: #DB3F29; stroke: #fff; opacity: 1;" id="p-type-functions"></path><path d="M62.807198297939806,-186.71972536923695A197,197,0,0,1,64.34529879509653,-186.19528061411694L55.724663370653815,-161.24984307659747A170.6070045455344,170.6070045455344,0,0,0,54.39262926654263,-161.70402555741293Z" fill-rule="evenodd" style="fill: #DB3F29; stroke: #fff; opacity: 1;" id="p-type-functions"></path><path d="M64.34529879509653,-186.19528061411694A197,197,0,0,1,65.8790208549919,-185.65816602344088L57.052905636867806,-160.78468819632874A170.6070045455344,170.6070045455344,0,0,0,55.724663370653815,-161.24984307659747Z" fill-rule="evenodd" style="fill: #DB3F29; stroke: #fff; opacity: 1;" id="p-type-functions"></path><path d="M65.8790208549919,-185.65816602344088A197,197,0,0,1,67.40826011404465,-185.10841814568374L58.37726568367199,-160.30859256851446A170.6070045455344,170.6070045455344,0,0,0,57.052905636867806,-160.78468819632874Z" fill-rule="evenodd" style="fill: #DB3F29; stroke: #fff; opacity: 1;" id="p-type-functions"></path><path d="M67.40826011404465,-185.10841814568374A197,197,0,0,1,68.93291251371005,-184.54607438896443L59.69765339372313,-159.82158858953596A170.6070045455344,170.6070045455344,0,0,0,58.37726568367199,-160.30859256851446Z" fill-rule="evenodd" style="fill: #DB3F29; stroke: #fff; opacity: 1;" id="p-type-functions"></path><path d="M68.93291251371005,-184.54607438896443A197,197,0,0,1,70.45287430756063,-183.97117301850054L61.0139789199795,-159.32370939804375A170.6070045455344,170.6070045455344,0,0,0,59.69765339372313,-159.82158858953596Z" fill-rule="evenodd" style="fill: #DB3F29; stroke: #fff; opacity: 1;" id="p-type-functions"></path><path d="M70.45287430756063,-183.97117301850054A197,197,0,0,1,71.96804206834561,-183.38375315400447L62.32615269181447,-158.81498887270251A170.6070045455344,170.6070045455344,0,0,0,61.0139789199795,-159.32370939804375Z" fill-rule="evenodd" style="fill: #DB3F29; stroke: #fff; opacity: 1;" id="p-type-functions"></path><path d="M71.96804206834561,-183.38375315400447A197,197,0,0,1,73.47831269502878,-182.7838547670214L63.634085421111536,-158.2954616298859A170.6070045455344,170.6070045455344,0,0,0,62.32615269181447,-158.81498887270251Z" fill-rule="evenodd" style="fill: #DB3F29; stroke: #fff; opacity: 1;" id="p-type-functions"></path><path d="M73.47831269502878,-182.7838547670214A197,197,0,0,1,74.98358341980403,-182.17151867820965L64.93768810833993,-157.76516302132092A170.6070045455344,170.6070045455344,0,0,0,63.634085421111536,-158.2954616298859Z" fill-rule="evenodd" style="fill: #DB3F29; stroke: #fff; opacity: 1;" id="p-type-functions"></path><path d="M74.98358341980403,-182.17151867820965A197,197,0,0,1,76.48375181508847,-181.54678655456271L66.23687204861078,-157.22412913168247A170.6070045455344,170.6070045455344,0,0,0,64.93768810833993,-157.76516302132092Z" fill-rule="evenodd" style="fill: #DB3F29; stroke: #fff; opacity: 1;" id="p-type-functions"></path><path d="M76.48375181508847,-181.54678655456271A197,197,0,0,1,77.97871580049201,-180.9097009065741L67.53154883771309,-156.67239677613784A170.6070045455344,170.6070045455344,0,0,0,66.23687204861078,-157.22412913168247Z" fill-rule="evenodd" style="fill: #DB3F29; stroke: #fff; opacity: 1;" id="p-type-functions"></path><path d="M77.97871580049201,-180.9097009065741A197,197,0,0,1,79.46837364976365,-180.26030508534473L68.8216303781292,-156.11000349784175A170.6070045455344,170.6070045455344,0,0,0,67.53154883771309,-156.67239677613784Z" fill-rule="evenodd" style="fill: #DB3F29; stroke: #fff; opacity: 1;" id="p-type-functions"></path><path d="M79.46837364976365,-180.26030508534473A197,197,0,0,1,80.95262399771336,-179.59864327963294L70.10702888502955,-155.53698756538148A170.6070045455344,170.6070045455344,0,0,0,68.8216303781292,-156.11000349784175Z" fill-rule="evenodd" style="fill: #DB3F29; stroke: #fff; opacity: 1;" id="p-type-functions"></path><path d="M80.95262399771336,-179.59864327963294A197,197,0,0,1,82.4313658471099,-178.92476051284777L71.38765689224614,-154.95338797017297A170.6070045455344,170.6070045455344,0,0,0,70.10702888502955,-155.53698756538148Z" fill-rule="evenodd" style="fill: #DB3F29; stroke: #fff; opacity: 1;" id="p-type-functions"></path><path d="M82.4313658471099,-178.92476051284777A197,197,0,0,1,83.90449857555292,-178.23870263998512L72.66342725822408,-154.35924442380758A170.6070045455344,170.6070045455344,0,0,0,71.38765689224614,-154.95338797017297Z" fill-rule="evenodd" style="fill: #DB3F29; stroke: #fff; opacity: 1;" id="p-type-functions"></path><path d="M83.90449857555292,-178.23870263998512A197,197,0,0,1,85.3719219423201,-177.5405163445077L73.93425317195134,-153.75459735535A170.6070045455344,170.6070045455344,0,0,0,72.66342725822408,-154.35924442380758Z" fill-rule="evenodd" style="fill: #DB3F29; stroke: #fff; opacity: 1;" id="p-type-functions"></path><path d="M85.3719219423201,-177.5405163445077A197,197,0,0,1,86.83353609518805,-176.83024913516826L75.20004815886585,-153.13948790858697A170.6070045455344,170.6070045455344,0,0,0,73.93425317195134,-153.75459735535Z" fill-rule="evenodd" style="fill: #DB3F29; stroke: #fff; opacity: 1;" id="p-type-functions"></path><path d="M86.83353609518805,-176.83024913516826A197,197,0,0,1,88.28924157722692,-176.10794934277686L76.46072608673978,-152.5139579392278A170.6070045455344,170.6070045455344,0,0,0,75.20004815886585,-153.13948790858697Z" fill-rule="evenodd" style="fill: #DB3F29; stroke: #fff; opacity: 1;" id="p-type-functions"></path><path d="M88.28924157722692,-176.10794934277686A197,197,0,0,1,89.73893933356804,-175.37366611691218L77.7162011715405,-151.8780500120562A170.6070045455344,170.6070045455344,0,0,0,76.46072608673978,-152.5139579392278Z" fill-rule="evenodd" style="fill: #DB3F29; stroke: #fff; opacity: 1;" id="p-type-functions"></path><path d="M89.73893933356804,-175.37366611691218A197,197,0,0,1,91.18253071814412,-174.62744942257706L78.96638798326774,-151.2318073980339A170.6070045455344,170.6070045455344,0,0,0,77.7162011715405,-151.8780500120562Z" fill-rule="evenodd" style="fill: #DB3F29; stroke: #fff; opacity: 1;" id="p-type-functions"></path><path d="M91.18253071814412,-174.62744942257706A197,197,0,0,1,92.61991750040174,-173.86935003679855L80.21120145176681,-150.57527407135635A170.6070045455344,170.6070045455344,0,0,0,78.96638798326774,-151.2318073980339Z" fill-rule="evenodd" style="fill: #DB3F29; stroke: #fff; opacity: 1;" id="p-type-functions"></path><path d="M92.61991750040174,-173.86935003679855A197,197,0,0,1,94.05100187198565,-173.09941954517282L81.45055687251735,-149.90849470646023A170.6070045455344,170.6070045455344,0,0,0,80.21120145176681,-150.57527407135635Z" fill-rule="evenodd" style="fill: #DB3F29; stroke: #fff; opacity: 1;" id="p-type-functions"></path><path d="M94.05100187198565,-173.09941954517282A197,197,0,0,1,95.47568645339408,-172.3177103383549L82.68436991239706,-149.23151467498374A170.6070045455344,170.6070045455344,0,0,0,81.45055687251735,-149.90849470646023Z" fill-rule="evenodd" style="fill: #DB3F29; stroke: #fff; opacity: 1;" id="p-type-functions"></path><path d="M95.47568645339408,-172.3177103383549A197,197,0,0,1,96.89387430060505,-171.5242756084938L83.91255661542013,-148.5443800426792A170.6070045455344,170.6070045455344,0,0,0,82.68436991239706,-149.23151467498374Z" fill-rule="evenodd" style="fill: #DB3F29; stroke: #fff; opacity: 1;" id="p-type-functions"></path><path d="M96.89387430060505,-171.5242756084938A197,197,0,0,1,98.3054689116732,-170.7191693456129L85.13503340845035,-147.84713756627838A170.6070045455344,170.6070045455344,0,0,0,83.91255661542013,-148.5443800426792Z" fill-rule="evenodd" style="fill: #DB3F29; stroke: #fff; opacity: 1;" id="p-type-functions"></path><path d="M98.3054689116732,-170.7191693456129A197,197,0,0,1,99.71037423329611,-169.9024463339361L86.35171710688775,-147.13983469031092A170.6070045455344,170.6070045455344,0,0,0,85.13503340845035,-147.84713756627838Z" fill-rule="evenodd" style="fill: #DB3F29; stroke: #fff; opacity: 1;" id="p-type-functions"></path><path d="M99.71037423329611,-169.9024463339361A197,197,0,0,1,101.10849466735041,-169.0741621481602L87.5625249203289,-146.4225195438761A170.6070045455344,170.6070045455344,0,0,0,86.35171710688775,-147.13983469031092Z" fill-rule="evenodd" style="fill: #DB3F29; stroke: #fff; opacity: 1;" id="p-type-functions"></path><path d="M101.10849466735041,-169.0741621481602A197,197,0,0,1,102.49973507739698,-168.23437314967305L88.7673744582007,-145.69524093736752A170.6070045455344,170.6070045455344,0,0,0,87.5625249203289,-146.4225195438761Z" fill-rule="evenodd" style="fill: #DB3F29; stroke: #fff; opacity: 1;" id="p-type-functions"></path><path d="M102.49973507739698,-168.23437314967305A197,197,0,0,1,103.8840007951545,-167.3831364827184L89.96618373536663,-144.958048359152A170.6070045455344,170.6070045455344,0,0,0,88.7673744582007,-145.69524093736752Z" fill-rule="evenodd" style="fill: #DB3F29; stroke: #fff; opacity: 1;" id="p-type-functions"></path><path d="M103.8840007951545,-167.3831364827184A197,197,0,0,1,105.26119762694114,-166.52051007050764L91.1588711777053,-144.21099197220207A170.6070045455344,170.6070045455344,0,0,0,89.96618373536663,-144.958048359152Z" fill-rule="evenodd" style="fill: #DB3F29; stroke: #fff; opacity: 1;" id="p-type-functions"></path><path d="M105.26119762694114,-166.52051007050764A197,197,0,0,1,106.63123186008418,-165.64655261127825L92.3453556276615,-143.4541226106825A170.6070045455344,170.6070045455344,0,0,0,91.1588711777053,-144.21099197220207Z" fill-rule="evenodd" style="fill: #DB3F29; stroke: #fff; opacity: 1;" id="p-type-functions"></path><path d="M106.63123186008418,-165.64655261127825A197,197,0,0,1,107.9940102692969,-164.76132357429944L93.52555634976866,-142.6874917764912A170.6070045455344,170.6070045455344,0,0,0,92.3453556276615,-143.4541226106825Z" fill-rule="evenodd" style="fill: #DB3F29; stroke: #fff; opacity: 1;" id="p-type-functions"></path><path d="M107.9940102692969,-164.76132357429944A197,197,0,0,1,109.34944012302185,-163.86488319582588L94.6993930361423,-141.91115163575498A170.6070045455344,170.6070045455344,0,0,0,93.52555634976866,-142.6874917764912Z" fill-rule="evenodd" style="fill: #DB3F29; stroke: #fff; opacity: 1;" id="p-type-functions"></path><path d="M109.34944012302185,-163.86488319582588A197,197,0,0,1,110.69742918974121,-162.95729247499858L95.86678581194494,-141.12515501527952A170.6070045455344,170.6070045455344,0,0,0,94.6993930361423,-141.91115163575498Z" fill-rule="evenodd" style="fill: #DB3F29; stroke: #fff; opacity: 1;" id="p-type-functions"></path><path d="M110.69742918974121,-162.95729247499858A197,197,0,0,1,112.0378857442525,-162.0386131696943L97.02765524082108,-140.32955539895494A170.6070045455344,170.6070045455344,0,0,0,95.86678581194494,-141.12515501527952Z" fill-rule="evenodd" style="fill: #DB3F29; stroke: #fff; opacity: 1;" id="p-type-functions"></path><path d="M112.0378857442525,-162.0386131696943A197,197,0,0,1,113.37071857391028,-161.108907792323L98.1819223303026,-139.52440692411642A170.6070045455344,170.6070045455344,0,0,0,97.02765524082108,-140.32955539895494Z" fill-rule="evenodd" style="fill: #DB3F29; stroke: #fff; opacity: 1;" id="p-type-functions"></path><path d="M113.37071857391028,-161.108907792323A197,197,0,0,1,114.69583698483275,-160.1682396055743L99.32950853718393,-138.7097643778602A170.6070045455344,170.6070045455344,0,0,0,98.1819223303026,-139.52440692411642Z" fill-rule="evenodd" style="fill: #DB3F29; stroke: #fff; opacity: 1;" id="p-type-functions"></path><path d="M114.69583698483275,-160.1682396055743A197,197,0,0,1,116.01315080807306,-159.21667261811277L100.47033577286645,-137.88568319331586A170.6070045455344,170.6070045455344,0,0,0,99.32950853718393,-138.7097643778602Z" fill-rule="evenodd" style="fill: #DB3F29; stroke: #fff; opacity: 1;" id="p-type-functions"></path><path d="M116.01315080807306,-159.21667261811277A197,197,0,0,1,117.32257040575499,-158.254271580222L101.6043264086722,-137.05221944587396A170.6070045455344,170.6070045455344,0,0,0,100.47033577286645,-137.88568319331586Z" fill-rule="evenodd" style="fill: #DB3F29; stroke: #fff; opacity: 1;" id="p-type-functions"></path><path d="M117.32257040575499,-158.254271580222A197,197,0,0,1,118.62400667717243,-157.28110197939912L102.73140328112619,-136.2094298493706A170.6070045455344,170.6070045455344,0,0,0,101.6043264086722,-137.05221944587396Z" fill-rule="evenodd" style="fill: #DB3F29; stroke: #fff; opacity: 1;" id="p-type-functions"></path><path d="M118.62400667717243,-157.28110197939912A197,197,0,0,1,119.91737106485233,-156.2972300358983L103.8514896972071,-135.35737175222812A170.6070045455344,170.6070045455344,0,0,0,102.73140328112619,-136.2094298493706Z" fill-rule="evenodd" style="fill: #DB3F29; stroke: #fff; opacity: 1;" id="p-type-functions"></path><path d="M119.91737106485233,-156.2972300358983A197,197,0,0,1,121.2025755605807,-155.30272269822487L104.96450943956583,-134.4961031335529A170.6070045455344,170.6070045455344,0,0,0,103.8514896972071,-135.35737175222812Z" fill-rule="evenodd" style="fill: #DB3F29; stroke: #fff; opacity: 1;" id="p-type-functions"></path><path d="M121.2025755605807,-155.30272269822487A197,197,0,0,1,122.47953271139109,-154.29764763857963L106.07038677171182,-133.62568259918996A170.6070045455344,170.6070045455344,0,0,0,104.96450943956583,-134.4961031335529Z" fill-rule="evenodd" style="fill: #DB3F29; stroke: #fff; opacity: 1;" id="p-type-functions"></path><path d="M122.47953271139109,-154.29764763857963A197,197,0,0,1,123.74815562551561,-153.2820732482542L107.1690464431667,-132.74616937773524A170.6070045455344,170.6070045455344,0,0,0,106.07038677171182,-133.62568259918996Z" fill-rule="evenodd" style="fill: #DB3F29; stroke: #fff; opacity: 1;" id="p-type-functions"></path><path d="M123.74815562551561,-153.2820732482542A197,197,0,0,1,125.00835797829744,-152.2560686329771L108.26041369458468,-131.8576233165052A170.6070045455344,170.6070045455344,0,0,0,107.1690464431667,-132.74616937773524Z" fill-rule="evenodd" style="fill: #DB3F29; stroke: #fff; opacity: 1;" id="p-type-functions"></path><path d="M125.00835797829744,-152.2560686329771A197,197,0,0,1,126.26005401806484,-151.21970360821155L109.34441426283963,-130.96010487746454A170.6070045455344,170.6070045455344,0,0,0,108.26041369458468,-131.8576233165052Z" fill-rule="evenodd" style="fill: #DB3F29; stroke: #fff; opacity: 1;" id="p-type-functions"></path><path d="M126.26005401806484,-151.21970360821155A197,197,0,0,1,127.50315857196628,-150.17304869440463L110.4209743860784,-130.0536751331119A170.6070045455344,170.6070045455344,0,0,0,109.34441426283963,-130.96010487746454Z" fill-rule="evenodd" style="fill: #DB3F29; stroke: #fff; opacity: 1;" id="p-type-functions"></path><path d="M127.50315857196628,-150.17304869440463A197,197,0,0,1,128.7375870517661,-149.11617511218876L111.49002080874006,-129.13839576232434A170.6070045455344,170.6070045455344,0,0,0,110.4209743860784,-130.0536751331119Z" fill-rule="evenodd" style="fill: #DB3F29; stroke: #fff; opacity: 1;" id="p-type-functions"></path><path d="M128.7375870517661,-149.11617511218876A197,197,0,0,1,129.9632554596004,-148.04915477753548L112.55148078654058,-128.21432904616A170.6070045455344,170.6070045455344,0,0,0,111.49002080874006,-129.13839576232434Z" fill-rule="evenodd" style="fill: #DB3F29; stroke: #fff; opacity: 1;" id="p-type-functions"></path><path d="M129.9632554596004,-148.04915477753548A197,197,0,0,1,131.18008039369266,-146.97206029686163L113.60528209142282,-127.28153786362046A170.6070045455344,170.6070045455344,0,0,0,112.55148078654058,-128.21432904616Z" fill-rule="evenodd" style="fill: #DB3F29; stroke: #fff; opacity: 1;" id="p-type-functions"></path><path d="M131.18008039369266,-146.97206029686163A197,197,0,0,1,132.38797905402905,-145.88496496208907L114.65135301647132,-126.34008568737188A170.6070045455344,170.6070045455344,0,0,0,113.60528209142282,-127.28153786362046Z" fill-rule="evenodd" style="fill: #DB3F29; stroke: #fff; opacity: 1;" id="p-type-functions"></path><path d="M132.38797905402905,-145.88496496208907A197,197,0,0,1,133.58686924799255,-144.78794274565732L115.68962238079176,-125.39003657942605A170.6070045455344,170.6070045455344,0,0,0,114.65135301647132,-126.34008568737188Z" fill-rule="evenodd" style="fill: #DB3F29; stroke: #fff; opacity: 1;" id="p-type-functions"></path><path d="M133.58686924799255,-144.78794274565732A197,197,0,0,1,134.7766693959558,-143.68106829548992L116.7200195343544,-124.43145518678115A170.6070045455344,170.6070045455344,0,0,0,115.68962238079176,-125.39003657942605Z" fill-rule="evenodd" style="fill: #DB3F29; stroke: #fff; opacity: 1;" id="p-type-functions"></path><path d="M134.7766693959558,-143.68106829548992A197,197,0,0,1,135.95729853683224,-142.56441692991513L117.7424743628016,-123.46440673702281A170.6070045455344,170.6070045455344,0,0,0,116.7200195343544,-124.43145518678115Z" fill-rule="evenodd" style="fill: #DB3F29; stroke: #fff; opacity: 1;" id="p-type-functions"></path><path d="M135.95729853683224,-142.56441692991513A197,197,0,0,1,137.12867633358536,-141.4380646325408L118.75691729221886,-122.48895703388567A170.6070045455344,170.6070045455344,0,0,0,117.7424743628016,-123.46440673702281Z" fill-rule="evenodd" style="fill: #DB3F29; stroke: #fff; opacity: 1;" id="p-type-functions"></path><path d="M137.12867633358536,-141.4380646325408A197,197,0,0,1,138.29072307869512,-140.3020880470838L119.76327929386893,-121.50517245277561A170.6070045455344,170.6070045455344,0,0,0,118.75691729221886,-122.48895703388567Z" fill-rule="evenodd" style="fill: #DB3F29; stroke: #fff; opacity: 1;" id="p-type-functions"></path><path d="M196.8668270558199,7.242403259547324A197,197,0,0,1,196.80038700442984,8.86609693758455L170.43413462044515,7.678265180363633A170.6070045455344,170.6070045455344,0,0,0,170.49167339277767,6.272105207219205Z" fill-rule="evenodd" style="fill: #1DC690; stroke: #fff; opacity: 1;" id="p-type-logs"></path><path d="M196.80038700442984,8.86609693758455A197,197,0,0,1,196.72055548289896,10.489187313594716L170.36499849477664,9.083902678626476A170.6070045455344,170.6070045455344,0,0,0,170.43413462044515,7.678265180363633Z" fill-rule="evenodd" style="fill: #1DC690; stroke: #fff; opacity: 1;" id="p-type-logs"></path><path d="M196.72055548289896,10.489187313594716A197,197,0,0,1,196.6273379234393,12.111563942844274L170.2842697202058,10.48892205406276A170.6070045455344,170.6070045455344,0,0,0,170.36499849477664,9.083902678626476Z" fill-rule="evenodd" style="fill: #1DC690; stroke: #fff; opacity: 1;" id="p-type-logs"></path><path d="M196.6273379234393,12.111563942844274A197,197,0,0,1,196.5207406691287,13.733116429167245L170.19195378999913,11.893227700788271A170.6070045455344,170.6070045455344,0,0,0,170.2842697202058,10.48892205406276Z" fill-rule="evenodd" style="fill: #1DC690; stroke: #fff; opacity: 1;" id="p-type-logs"></path><path d="M196.5207406691287,13.733116429167245A197,197,0,0,1,196.40077097347904,15.353734432477243L170.08805698588222,13.296724061485143A170.6070045455344,170.6070045455344,0,0,0,170.19195378999913,11.893227700788271Z" fill-rule="evenodd" style="fill: #1DC690; stroke: #fff; opacity: 1;" id="p-type-logs"></path><path d="M196.40077097347904,15.353734432477243A197,197,0,0,1,196.2674369999427,16.973307676275677L169.97258637761226,14.699315633904156A170.6070045455344,170.6070045455344,0,0,0,170.08805698588222,13.296724061485143Z" fill-rule="evenodd" style="fill: #1DC690; stroke: #fff; opacity: 1;" id="p-type-logs"></path><path d="M196.2674369999427,16.973307676275677A197,197,0,0,1,196.12074782135724,18.59172595515561L169.84554982249696,16.100906977363266A170.6070045455344,170.6070045455344,0,0,0,169.97258637761226,14.699315633904156Z" fill-rule="evenodd" style="fill: #1DC690; stroke: #fff; opacity: 1;" id="p-type-logs"></path><path d="M196.12074782135724,18.59172595515561A197,197,0,0,1,195.9607134193277,20.20887914230079L169.70695596485993,17.501402719241963A170.6070045455344,170.6070045455344,0,0,0,169.84554982249696,16.100906977363266Z" fill-rule="evenodd" style="fill: #1DC690; stroke: #fff; opacity: 1;" id="p-type-logs"></path><path d="M195.9607134193277,20.20887914230079A197,197,0,0,1,195.78734468354776,21.824657196979352L169.5568142354525,18.900707561471A170.6070045455344,170.6070045455344,0,0,0,169.70695596485993,17.501402719241963Z" fill-rule="evenodd" style="fill: #1DC690; stroke: #fff; opacity: 1;" id="p-type-logs"></path><path d="M195.78734468354776,21.824657196979352A197,197,0,0,1,195.60065341105846,23.438950172031618L169.39513485081193,20.29872628701702A170.6070045455344,170.6070045455344,0,0,0,169.5568142354525,18.900707561471Z" fill-rule="evenodd" style="fill: #1DC690; stroke: #fff; opacity: 1;" id="p-type-logs"></path><path d="M195.60065341105846,23.438950172031618A197,197,0,0,1,195.40065230544565,25.051648221351574L169.22192881256626,21.695363766361712A170.6070045455344,170.6070045455344,0,0,0,169.39513485081193,20.29872628701702Z" fill-rule="evenodd" style="fill: #1DC690; stroke: #fff; opacity: 1;" id="p-type-logs"></path><path d="M195.40065230544565,25.051648221351574A197,197,0,0,1,195.18735497597532,26.662641607361465L169.03720790668558,23.090524963974985A170.6070045455344,170.6070045455344,0,0,0,169.22192881256626,21.695363766361712Z" fill-rule="evenodd" style="fill: #1DC690; stroke: #fff; opacity: 1;" id="p-type-logs"></path><path d="M195.18735497597532,26.662641607361465A197,197,0,0,1,194.9607759366679,28.271820708478952L168.84098470268026,24.484114944781737A170.6070045455344,170.6070045455344,0,0,0,169.03720790668558,23.090524963974985Z" fill-rule="evenodd" style="fill: #1DC690; stroke: #fff; opacity: 1;" id="p-type-logs"></path><path d="M194.9607759366679,28.271820708478952A197,197,0,0,1,194.7209306053103,29.879076026576467L168.6332725527455,25.876038880621824A170.6070045455344,170.6070045455344,0,0,0,168.84098470268026,24.484114944781737Z" fill-rule="evenodd" style="fill: #1DC690; stroke: #fff; opacity: 1;" id="p-type-logs"></path><path d="M194.7209306053103,29.879076026576467A197,197,0,0,1,194.46783530240697,31.484298194432068L168.4140855908527,27.266202056702703A170.6070045455344,170.6070045455344,0,0,0,168.6332725527455,25.876038880621824Z" fill-rule="evenodd" style="fill: #1DC690; stroke: #fff; opacity: 1;" id="p-type-logs"></path><path d="M194.46783530240697,31.484298194432068A197,197,0,0,1,194.20150725006934,33.087377983171486L168.1834387317879,28.65450987804443A170.6070045455344,170.6070045455344,0,0,0,168.4140855908527,27.266202056702703Z" fill-rule="evenodd" style="fill: #1DC690; stroke: #fff; opacity: 1;" id="p-type-logs"></path><path d="M194.20150725006934,33.087377983171486A197,197,0,0,1,193.92196457084393,34.688206309700675L167.9413476701367,30.040867875916437A170.6070045455344,170.6070045455344,0,0,0,168.1834387317879,28.65450987804443Z" fill-rule="evenodd" style="fill: #1DC690; stroke: #fff; opacity: 1;" id="p-type-logs"></path><path d="M193.92196457084393,34.688206309700675A197,197,0,0,1,193.62922628647902,36.28667424412847L167.68782887921643,31.425181714265747A170.6070045455344,170.6070045455344,0,0,0,167.9413476701367,30.040867875916437Z" fill-rule="evenodd" style="fill: #1DC690; stroke: #fff; opacity: 1;" id="p-type-logs"></path><path d="M193.62922628647902,36.28667424412847A197,197,0,0,1,193.32331231663062,37.88267301717886L167.42289960995518,32.80735719613618A170.6070045455344,170.6070045455344,0,0,0,167.68782887921643,31.425181714265747Z" fill-rule="evenodd" style="fill: #1DC690; stroke: #fff; opacity: 1;" id="p-type-logs"></path><path d="M193.32331231663062,37.88267301717886A197,197,0,0,1,193.00424347750672,39.47609402759227L167.14657788971786,34.187300270078055A170.6070045455344,170.6070045455344,0,0,0,167.42289960995518,32.80735719613618Z" fill-rule="evenodd" style="fill: #1DC690; stroke: #fff; opacity: 1;" id="p-type-logs"></path><path d="M193.00424347750672,39.47609402759227A197,197,0,0,1,192.67204148045096,41.06682884951543L166.85888252107964,35.56491703654803A170.6070045455344,170.6070045455344,0,0,0,167.14657788971786,34.187300270078055Z" fill-rule="evenodd" style="fill: #1DC690; stroke: #fff; opacity: 1;" id="p-type-logs"></path><path d="M192.67204148045096,41.06682884951543A197,197,0,0,1,192.3267289304652,42.65476923987935L166.55983308054638,36.940113754298565A170.6070045455344,170.6070045455344,0,0,0,166.85888252107964,35.56491703654803Z" fill-rule="evenodd" style="fill: #1DC690; stroke: #fff; opacity: 1;" id="p-type-logs"></path><path d="M192.3267289304652,42.65476923987935A197,197,0,0,1,191.96832932467152,44.239807145764786L166.24944991722273,38.31279684675664A170.6070045455344,170.6070045455344,0,0,0,166.55983308054638,36.940113754298565Z" fill-rule="evenodd" style="fill: #1DC690; stroke: #fff; opacity: 1;" id="p-type-logs"></path><path d="M191.96832932467152,44.239807145764786A197,197,0,0,1,191.59686705071306,45.82183471175483L165.9277541514272,39.68287290839128A170.6070045455344,170.6070045455344,0,0,0,166.24944991722273,38.31279684675664Z" fill-rule="evenodd" style="fill: #1DC690; stroke: #fff; opacity: 1;" id="p-type-logs"></path><path d="M191.59686705071306,45.82183471175483A197,197,0,0,1,191.21236738509478,47.40074428727402L165.59476767325512,41.05024871106941A170.6070045455344,170.6070045455344,0,0,0,165.9277541514272,39.68287290839128Z" fill-rule="evenodd" style="fill: #1DC690; stroke: #fff; opacity: 1;" id="p-type-logs"></path><path d="M191.21236738509478,47.40074428727402A197,197,0,0,1,190.81485649146333,48.97642843391353L165.25051314108924,42.41483121039963A170.6070045455344,170.6070045455344,0,0,0,165.59476767325512,41.05024871106941Z" fill-rule="evenodd" style="fill: #1DC690; stroke: #fff; opacity: 1;" id="p-type-logs"></path><path d="M190.81485649146333,48.97642843391353A197,197,0,0,1,190.40436141882682,50.54877993274193L164.89501398005768,43.776527552063556A170.6070045455344,170.6070045455344,0,0,0,165.25051314108924,42.41483121039963Z" fill-rule="evenodd" style="fill: #1DC690; stroke: #fff; opacity: 1;" id="p-type-logs"></path><path d="M190.40436141882682,50.54877993274193A197,197,0,0,1,189.9809100997142,52.117691791600976L164.52829438044012,45.13524507813416A170.6070045455344,170.6070045455344,0,0,0,164.89501398005768,43.776527552063556Z" fill-rule="evenodd" style="fill: #1DC690; stroke: #fff; opacity: 1;" id="p-type-logs"></path><path d="M189.9809100997142,52.117691791600976A197,197,0,0,1,189.5445313482746,53.68305725238603L164.1503792960217,46.490891333380745A170.6070045455344,170.6070045455344,0,0,0,164.52829438044012,45.13524507813416Z" fill-rule="evenodd" style="fill: #1DC690; stroke: #fff; opacity: 1;" id="p-type-logs"></path><path d="M189.5445313482746,53.68305725238603A197,197,0,0,1,189.09525485831654,55.24476979831045L163.7612944423949,47.84337407156016A170.6070045455344,170.6070045455344,0,0,0,164.1503792960217,46.490891333380745Z" fill-rule="evenodd" style="fill: #1DC690; stroke: #fff; opacity: 1;" id="p-type-logs"></path><path d="M189.09525485831654,55.24476979831045A197,197,0,0,1,188.6331112012876,56.80272316115373L163.36106629521,49.19260126169384A170.6070045455344,170.6070045455344,0,0,0,163.7612944423949,47.84337407156016Z" fill-rule="evenodd" style="fill: #1DC690; stroke: #fff; opacity: 1;" id="p-type-logs"></path><path d="M188.6331112012876,56.80272316115373A197,197,0,0,1,188.15813182419387,58.35681132849252L162.94972208837314,50.53848109433003A170.6070045455344,170.6070045455344,0,0,0,163.36106629521,49.19260126169384Z" fill-rule="evenodd" style="fill: #1DC690; stroke: #fff; opacity: 1;" id="p-type-logs"></path><path d="M188.15813182419387,58.35681132849252A197,197,0,0,1,187.67034904746043,59.906928550914415L162.52728981219346,51.88092198779117A170.6070045455344,170.6070045455344,0,0,0,162.94972208837314,50.53848109433003Z" fill-rule="evenodd" style="fill: #1DC690; stroke: #fff; opacity: 1;" id="p-type-logs"></path><path d="M187.67034904746043,59.906928550914415A197,197,0,0,1,187.16979606273176,61.452969349213724L162.0937982114783,53.219832594405545A170.6070045455344,170.6070045455344,0,0,0,162.52728981219346,51.88092198779117Z" fill-rule="evenodd" style="fill: #1DC690; stroke: #fff; opacity: 1;" id="p-type-logs"></path><path d="M187.16979606273176,61.452969349213724A197,197,0,0,1,186.6565069306134,62.99482852156895L161.64927678357733,54.555121806723214A170.6070045455344,170.6070045455344,0,0,0,162.0937982114783,53.219832594405545Z" fill-rule="evenodd" style="fill: #1DC690; stroke: #fff; opacity: 1;" id="p-type-logs"></path><path d="M186.6565069306134,62.99482852156895A197,197,0,0,1,186.13051657835413,64.53240115070129L161.1937557763753,55.88669876371546A170.6070045455344,170.6070045455344,0,0,0,161.64927678357733,54.555121806723214Z" fill-rule="evenodd" style="fill: #1DC690; stroke: #fff; opacity: 1;" id="p-type-logs"></path><path d="M186.13051657835413,64.53240115070129A197,197,0,0,1,185.5918607974695,66.06558261101391L160.72726618623386,57.21447285695751A170.6070045455344,170.6070045455344,0,0,0,161.1937557763753,55.88669876371546Z" fill-rule="evenodd" style="fill: #1DC690; stroke: #fff; opacity: 1;" id="p-type-logs"></path><path d="M185.5918607974695,66.06558261101391A197,197,0,0,1,185.0405762413061,67.5942685757112L160.24983975588233,58.538353736794086A170.6070045455344,170.6070045455344,0,0,0,160.72726618623386,57.21447285695751Z" fill-rule="evenodd" style="fill: #1DC690; stroke: #fff; opacity: 1;" id="p-type-logs"></path><path d="M185.0405762413061,67.5942685757112A197,197,0,0,1,184.4767004225477,69.11835502389789L159.7615089722578,59.85825131848735A170.6070045455344,170.6070045455344,0,0,0,160.24983975588233,58.538353736794086Z" fill-rule="evenodd" style="fill: #1DC690; stroke: #fff; opacity: 1;" id="p-type-logs"></path><path d="M184.4767004225477,69.11835502389789A197,197,0,0,1,183.90027171066245,70.63773824765714L159.26230706429442,61.17407578834676A170.6070045455344,170.6070045455344,0,0,0,159.7615089722578,59.85825131848735Z" fill-rule="evenodd" style="fill: #1DC690; stroke: #fff; opacity: 1;" id="p-type-logs"></path><path d="M183.90027171066245,70.63773824765714A197,197,0,0,1,183.31132932929216,72.15231485910758L158.75226800066244,62.485737609840584A170.6070045455344,170.6070045455344,0,0,0,159.26230706429442,61.17407578834676Z" fill-rule="evenodd" style="fill: #1DC690; stroke: #fff; opacity: 1;" id="p-type-logs"></path><path d="M183.31132932929216,72.15231485910758A197,197,0,0,1,182.70991335358318,73.66198179743827L158.23142648745667,63.79314752968845A170.6070045455344,170.6070045455344,0,0,0,158.75226800066244,62.485737609840584Z" fill-rule="evenodd" style="fill: #1DC690; stroke: #fff; opacity: 1;" id="p-type-logs"></path><path d="M182.70991335358318,73.66198179743827A197,197,0,0,1,182.09606470745953,75.16663633592174L157.6998179658349,65.09621658393469A170.6070045455344,170.6070045455344,0,0,0,158.23142648745667,63.79314752968845Z" fill-rule="evenodd" style="fill: #1DC690; stroke: #fff; opacity: 1;" id="p-type-logs"></path><path d="M182.09606470745953,75.16663633592174A197,197,0,0,1,181.46982516083813,76.66617608890404L157.1574786096063,66.394856104002A170.6070045455344,170.6070045455344,0,0,0,157.6998179658349,65.09621658393469Z" fill-rule="evenodd" style="fill: #1DC690; stroke: #fff; opacity: 1;" id="p-type-logs"></path><path d="M181.46982516083813,76.66617608890404A197,197,0,0,1,180.83123732678655,78.16049901877163L156.60444532276995,67.68897772272493A170.6070045455344,170.6070045455344,0,0,0,157.1574786096063,66.394856104002Z" fill-rule="evenodd" style="fill: #1DC690; stroke: #fff; opacity: 1;" id="p-type-logs"></path><path d="M180.83123732678655,78.16049901877163A197,197,0,0,1,180.18034465862334,79.64950344289474L156.04075573700362,68.97849338036295A170.6070045455344,170.6070045455344,0,0,0,156.60444532276995,67.68897772272493Z" fill-rule="evenodd" style="fill: #1DC690; stroke: #fff; opacity: 1;" id="p-type-logs"></path><path d="M180.18034465862334,79.64950344289474A197,197,0,0,1,179.5171914469613,81.13308804054634L155.46644820910305,70.26331533059255A170.6070045455344,170.6070045455344,0,0,0,156.04075573700362,68.97849338036295Z" fill-rule="evenodd" style="fill: #1DC690; stroke: #fff; opacity: 1;" id="p-type-logs"></path><path d="M179.5171914469613,81.13308804054634A197,197,0,0,1,178.84182281669354,82.61115185979668L154.88156181837206,71.54335614647799A170.6070045455344,170.6070045455344,0,0,0,155.46644820910305,70.26331533059255Z" fill-rule="evenodd" style="fill: #1DC690; stroke: #fff; opacity: 1;" id="p-type-logs"></path><path d="M178.84182281669354,82.61115185979668A197,197,0,0,1,178.15428472392304,84.08359432438269L154.2861363639633,72.81852872642044A170.6070045455344,170.6070045455344,0,0,0,154.88156181837206,71.54335614647799Z" fill-rule="evenodd" style="fill: #1DC690; stroke: #fff; opacity: 1;" id="p-type-logs"></path><path d="M178.15428472392304,84.08359432438269A197,197,0,0,1,177.45462395283542,85.5503152405517L153.68021236216998,74.08874630008481A170.6070045455344,170.6070045455344,0,0,0,154.2861363639633,72.81852872642044Z" fill-rule="evenodd" style="fill: #1DC690; stroke: #fff; opacity: 1;" id="p-type-logs"></path><path d="M177.45462395283542,85.5503152405517A197,197,0,0,1,176.74288811251552,87.01121480387928L153.0638310436691,75.35392243430408A170.6070045455344,170.6070045455344,0,0,0,153.68021236216998,74.08874630008481Z" fill-rule="evenodd" style="fill: #1DC690; stroke: #fff; opacity: 1;" id="p-type-logs"></path><path d="M176.74288811251552,87.01121480387928A197,197,0,0,1,176.01912563370783,88.46619360606053L152.43703435071563,76.6139710389609A170.6070045455344,170.6070045455344,0,0,0,153.0638310436691,75.35392243430408Z" fill-rule="evenodd" style="fill: #1DC690; stroke: #fff; opacity: 1;" id="p-type-logs"></path><path d="M176.01912563370783,88.46619360606053A197,197,0,0,1,175.28338576552088,89.91515264167433L151.79986493428873,77.86880637284544A170.6070045455344,170.6070045455344,0,0,0,152.43703435071563,76.6139710389609Z" fill-rule="evenodd" style="fill: #1DC690; stroke: #fff; opacity: 1;" id="p-type-logs"></path><path d="M175.28338576552088,89.91515264167433A197,197,0,0,1,174.53571857207612,91.35799331492038L151.15236615118937,79.11834304948997A170.6070045455344,170.6070045455344,0,0,0,151.79986493428873,77.86880637284544Z" fill-rule="evenodd" style="fill: #1DC690; stroke: #fff; opacity: 1;" id="p-type-logs"></path><path d="M174.53571857207612,91.35799331492038A197,197,0,0,1,173.77617492910127,92.79461744632815L150.49458206109017,80.36249604297885A170.6070045455344,170.6070045455344,0,0,0,151.15236615118937,79.11834304948997Z" fill-rule="evenodd" style="fill: #1DC690; stroke: #fff; opacity: 1;" id="p-type-logs"></path><path d="M173.77617492910127,92.79461744632815A197,197,0,0,1,173.00480652046835,94.22492727943765L149.82655742353728,81.60118069373435A170.6070045455344,170.6070045455344,0,0,0,150.49458206109017,80.36249604297885Z" fill-rule="evenodd" style="fill: #1DC690; stroke: #fff; opacity: 1;" id="p-type-logs"></path><path d="M173.00480652046835,94.22492727943765A197,197,0,0,1,172.2216658346768,95.64882548745133L149.14833769490465,82.83431271427735A170.6070045455344,170.6070045455344,0,0,0,149.82655742353728,81.60118069373435Z" fill-rule="evenodd" style="fill: #1DC690; stroke: #fff; opacity: 1;" id="p-type-logs"></path><path d="M172.2216658346768,95.64882548745133A197,197,0,0,1,171.42680616128195,97.06621517985678L148.4599690253009,84.06180819496268A170.6070045455344,170.6070045455344,0,0,0,149.14833769490465,82.83431271427735Z" fill-rule="evenodd" style="fill: #1DC690; stroke: #fff; opacity: 1;" id="p-type-logs"></path><path d="M171.42680616128195,97.06621517985678A197,197,0,0,1,170.62028158726883,98.47699990901981L147.7614982554291,85.283583609689A170.6070045455344,170.6070045455344,0,0,0,148.4599690253009,84.06180819496268Z" fill-rule="evenodd" style="fill: #1DC690; stroke: #fff; opacity: 1;" id="p-type-logs"></path><path d="M170.62028158726883,98.47699990901981A197,197,0,0,1,169.80214699337176,99.88108367674717L147.05297291339937,86.49955582158226A170.6070045455344,170.6070045455344,0,0,0,147.7614982554291,85.283583609689Z" fill-rule="evenodd" style="fill: #1DC690; stroke: #fff; opacity: 1;" id="p-type-logs"></path><path d="M169.80214699337176,99.88108367674717A197,197,0,0,1,168.97245805033987,101.278370940819L146.33444121149472,87.70964208865293A170.6070045455344,170.6070045455344,0,0,0,147.05297291339937,86.49955582158226Z" fill-rule="evenodd" style="fill: #1DC690; stroke: #fff; opacity: 1;" id="p-type-logs"></path><path d="M168.97245805033987,101.278370940819A197,197,0,0,1,168.13127121514916,102.66876662148994L145.6059520428905,88.91376006942612A170.6070045455344,170.6070045455344,0,0,0,146.33444121149472,87.70964208865293Z" fill-rule="evenodd" style="fill: #1DC690; stroke: #fff; opacity: 1;" id="p-type-logs"></path><path d="M168.13127121514916,102.66876662148994A197,197,0,0,1,167.27864372716044,104.05217610795904L144.86755497832738,90.11182782854475A170.6070045455344,170.6070045455344,0,0,0,145.6059520428905,88.91376006942612Z" fill-rule="evenodd" style="fill: #1DC690; stroke: #fff; opacity: 1;" id="p-type-logs"></path><path d="M167.27864372716044,104.05217610795904A197,197,0,0,1,166.41463360422492,105.42850526480763L144.1193002627383,91.30376384234485A170.6070045455344,170.6070045455344,0,0,0,144.86755497832738,90.11182782854475Z" fill-rule="evenodd" style="fill: #1DC690; stroke: #fff; opacity: 1;" id="p-type-logs"></path><path d="M166.41463360422492,105.42850526480763A197,197,0,0,1,165.5392996387359,106.7976604384048L143.36123881182942,92.48948700440287A170.6070045455344,170.6070045455344,0,0,0,144.1193002627383,91.30376384234485Z" fill-rule="evenodd" style="fill: #1DC690; stroke: #fff; opacity: 1;" id="p-type-logs"></path><path d="M165.5392996387359,106.7976604384048A197,197,0,0,1,164.65270139362838,108.15954846328015L142.5934222086156,93.66891663105476A170.6070045455344,170.6070045455344,0,0,0,143.36123881182942,92.48948700440287Z" fill-rule="evenodd" style="fill: #1DC690; stroke: #fff; opacity: 1;" id="p-type-logs"></path><path d="M164.65270139362838,108.15954846328015A197,197,0,0,1,163.75489919832603,109.51407666846339L141.81590269991034,94.84197246688598A170.6070045455344,170.6070045455344,0,0,0,142.5934222086156,93.66891663105476Z" fill-rule="evenodd" style="fill: #1DC690; stroke: #fff; opacity: 1;" id="p-type-logs"></path><path d="M163.75489919832603,109.51407666846339A197,197,0,0,1,162.84595414463604,110.86115288379015L141.0287331927706,96.00857469019275A170.6070045455344,170.6070045455344,0,0,0,141.81590269991034,94.84197246688598Z" fill-rule="evenodd" style="fill: #1DC690; stroke: #fff; opacity: 1;" id="p-type-logs"></path><path d="M162.84595414463604,110.86115288379015A197,197,0,0,1,161.92592808259195,112.20068544617389L140.23196725089667,97.16864391841352A170.6070045455344,170.6070045455344,0,0,0,141.0287331927706,96.00857469019275Z" fill-rule="evenodd" style="fill: #1DC690; stroke: #fff; opacity: 1;" id="p-type-logs"></path><path d="M161.92592808259195,112.20068544617389A197,197,0,0,1,160.9948836162452,113.53258320584301L139.42565909098744,98.32210121353057A170.6070045455344,170.6070045455344,0,0,0,140.23196725089667,97.16864391841352Z" fill-rule="evenodd" style="fill: #1DC690; stroke: #fff; opacity: 1;" id="p-type-logs"></path><path d="M160.9948836162452,113.53258320584301A197,197,0,0,1,160.0528840994049,114.85675553254347L138.6098635790511,99.46886808744152A170.6070045455344,170.6070045455344,0,0,0,139.42565909098744,98.32210121353057Z" fill-rule="evenodd" style="fill: #1DC690; stroke: #fff; opacity: 1;" id="p-type-logs"></path><path d="M160.0528840994049,114.85675553254347A197,197,0,0,1,159.09999363132724,116.17311232170564L137.78463622667178,100.60886650730006A170.6070045455344,170.6070045455344,0,0,0,138.6098635790511,99.46886808744152Z" fill-rule="evenodd" style="fill: #1DC690; stroke: #fff; opacity: 1;" id="p-type-logs"></path><path d="M159.09999363132724,116.17311232170564A197,197,0,0,1,158.13627705235336,117.48156400057559L136.95003318723218,101.74201890082584A170.6070045455344,170.6070045455344,0,0,0,137.78463622667178,100.60886650730006Z" fill-rule="evenodd" style="fill: #1DC690; stroke: #fff; opacity: 1;" id="p-type-logs"></path><path d="M158.13627705235336,117.48156400057559A197,197,0,0,1,157.16179993949763,118.78202153431013L136.1061112520926,102.86824816158281A170.6070045455344,170.6070045455344,0,0,0,136.95003318723218,101.74201890082584Z" fill-rule="evenodd" style="fill: #1DC690; stroke: #fff; opacity: 1;" id="p-type-logs"></path><path d="M157.16179993949763,118.78202153431013A197,197,0,0,1,156.17662860198516,120.07439643203543L135.2529278467265,103.98747765422623A170.6070045455344,170.6070045455344,0,0,0,136.1061112520926,102.86824816158281Z" fill-rule="evenodd" style="fill: #1DC690; stroke: #fff; opacity: 1;" id="p-type-logs"></path><path d="M156.17662860198516,120.07439643203543A197,197,0,0,1,155.18083007673962,121.35860075286818L134.3905410268128,105.09963121971714A170.6070045455344,170.6070045455344,0,0,0,135.2529278467265,103.98747765422623Z" fill-rule="evenodd" style="fill: #1DC690; stroke: #fff; opacity: 1;" id="p-type-logs"></path><path d="M155.18083007673962,121.35860075286818A197,197,0,0,1,154.17447212382214,122.63454711189988L133.51900947428572,106.20463318050486A170.6070045455344,170.6070045455344,0,0,0,134.3905410268128,105.09963121971714Z" fill-rule="evenodd" style="fill: #1DC690; stroke: #fff; opacity: 1;" id="p-type-logs"></path><path d="M154.17447212382214,122.63454711189988A197,197,0,0,1,153.15762322181988,123.90214868614292L132.63839249334146,107.30240834567647A170.6070045455344,170.6070045455344,0,0,0,133.51900947428572,106.20463318050486Z" fill-rule="evenodd" style="fill: #1DC690; stroke: #fff; opacity: 1;" id="p-type-logs"></path><path d="M153.15762322181988,123.90214868614292A197,197,0,0,1,152.13035256318676,125.16131922043846L131.74875000640282,108.39288201607323A170.6070045455344,170.6070045455344,0,0,0,132.63839249334146,107.30240834567647Z" fill-rule="evenodd" style="fill: #1DC690; stroke: #fff; opacity: 1;" id="p-type-logs"></path><path d="M152.13035256318676,125.16131922043846A197,197,0,0,1,151.0927300495351,126.4119730333259L130.85014255004182,109.47597998937363A170.6070045455344,170.6070045455344,0,0,0,131.74875000640282,108.39288201607323Z" fill-rule="evenodd" style="fill: #1DC690; stroke: #fff; opacity: 1;" id="p-type-logs"></path><path d="M151.0927300495351,126.4119730333259A197,197,0,0,1,150.04482628687907,127.65402502287301L129.9426312708604,110.55162856514244A170.6070045455344,170.6070045455344,0,0,0,130.85014255004182,109.47597998937363Z" fill-rule="evenodd" style="fill: #1DC690; stroke: #fff; opacity: 1;" id="p-type-logs"></path><path d="M150.04482628687907,127.65402502287301A197,197,0,0,1,148.9867125808302,128.8873906724669L129.02627792132955,111.61975454984582A170.6070045455344,170.6070045455344,0,0,0,129.9426312708604,110.55162856514244Z" fill-rule="evenodd" style="fill: #1DC690; stroke: #fff; opacity: 1;" id="p-type-logs"></path><path d="M148.9867125808302,128.8873906724669A197,197,0,0,1,147.91846093174533,130.1119860565649L128.10114485558745,112.68028526183184A170.6070045455344,170.6070045455344,0,0,0,129.02627792132955,111.61975454984582Z" fill-rule="evenodd" style="fill: #1DC690; stroke: #fff; opacity: 1;" id="p-type-logs"></path><path d="M147.91846093174533,130.1119860565649A197,197,0,0,1,146.84014402982743,131.32772784640545L127.16729502519641,113.73314853627615A170.6070045455344,170.6070045455344,0,0,0,128.10114485558745,112.68028526183184Z" fill-rule="evenodd" style="fill: #1DC690; stroke: #fff; opacity: 1;" id="p-type-logs"></path><path d="M146.84014402982743,131.32772784640545A197,197,0,0,1,145.75183525017908,132.53453331567835L126.22479197485931,114.77827273009247A170.6070045455344,170.6070045455344,0,0,0,127.16729502519641,113.73314853627615Z" fill-rule="evenodd" style="fill: #1DC690; stroke: #fff; opacity: 1;" id="p-type-logs"></path><path d="M145.75183525017908,132.53453331567835A197,197,0,0,1,144.6536086478098,133.73232034615376L125.27369983809564,115.8155867268077A170.6070045455344,170.6070045455344,0,0,0,126.22479197485931,114.77827273009247Z" fill-rule="evenodd" style="fill: #1DC690; stroke: #fff; opacity: 1;" id="p-type-logs"></path><path d="M144.6536086478098,133.73232034615376A197,197,0,0,1,143.54553895259676,134.9210074332701L124.31408333287749,116.84501994140096A170.6070045455344,170.6070045455344,0,0,0,125.27369983809564,115.8155867268077Z" fill-rule="evenodd" style="fill: #1DC690; stroke: #fff; opacity: 1;" id="p-type-logs"></path><path d="M19.41136480048321,196.041319411451A197,197,0,0,1,17.79357383420508,196.19477243343334L15.409686964535677,169.90965701706014A170.6070045455344,170.6070045455344,0,0,0,16.81073503934551,169.77676280173597Z" fill-rule="evenodd" style="fill: #D7A449; stroke: #fff; opacity: 1;" id="p-type-tokenTransfers"></path><path d="M17.79357383420508,196.19477243343334A197,197,0,0,1,16.174572087214955,196.33487519489626L14.00759032287084,170.0309895676274A170.6070045455344,170.6070045455344,0,0,0,15.409686964535677,169.90965701706014Z" fill-rule="evenodd" style="fill: #D7A449; stroke: #fff; opacity: 1;" id="p-type-tokenTransfers"></path><path d="M16.174572087214955,196.33487519489626A197,197,0,0,1,14.554469726031712,196.46161816241366L12.604540521355002,170.1407521972485A170.6070045455344,170.6070045455344,0,0,0,14.00759032287084,170.0309895676274Z" fill-rule="evenodd" style="fill: #D7A449; stroke: #fff; opacity: 1;" id="p-type-tokenTransfers"></path><path d="M14.554469726031712,196.46161816241366A197,197,0,0,1,12.9333769920666,196.5749927116394L11.200633031850845,170.23893743702058A170.6070045455344,170.6070045455344,0,0,0,12.604540521355002,170.1407521972485Z" fill-rule="evenodd" style="fill: #D7A449; stroke: #fff; opacity: 1;" id="p-type-tokenTransfers"></path><path d="M12.9333769920666,196.5749927116394A197,197,0,0,1,11.311404194121707,196.67499112789406L9.795963384583244,170.32553860583533A170.6070045455344,170.6070045455344,0,0,0,11.200633031850845,170.23893743702058Z" fill-rule="evenodd" style="fill: #D7A449; stroke: #fff; opacity: 1;" id="p-type-tokenTransfers"></path><path d="M11.311404194121707,196.67499112789406A197,197,0,0,1,9.688661700883925,196.76160660668998L8.390627161638827,170.40054981083355A170.6070045455344,170.6070045455344,0,0,0,9.795963384583244,170.32553860583533Z" fill-rule="evenodd" style="fill: #D7A449; stroke: #fff; opacity: 1;" id="p-type-tokenTransfers"></path><path d="M9.688661700883925,196.76160660668998A197,197,0,0,1,8.06525993341479,196.83483325419425L6.984719990461999,170.46396594780623A170.6070045455344,170.6070045455344,0,0,0,8.390627161638827,170.40054981083355Z" fill-rule="evenodd" style="fill: #D7A449; stroke: #fff; opacity: 1;" id="p-type-tokenTransfers"></path><path d="M8.06525993341479,196.83483325419425A197,197,0,0,1,6.441309357636788,196.89466608762976L5.578337537347883,170.51578270154178A170.6070045455344,170.6070045455344,0,0,0,6.984719990461999,170.46396594780623Z" fill-rule="evenodd" style="fill: #D7A449; stroke: #fff; opacity: 1;" id="p-type-tokenTransfers"></path><path d="M6.441309357636788,196.89466608762976A197,197,0,0,1,4.816920476816589,196.94110103561425L4.171575500932617,170.55599654611976A170.6070045455344,170.6070045455344,0,0,0,5.578337537347883,170.51578270154178Z" fill-rule="evenodd" style="fill: #D7A449; stroke: #fff; opacity: 1;" id="p-type-tokenTransfers"></path><path d="M4.816920476816589,196.94110103561425A197,197,0,0,1,3.1922038240457455,196.9741349384374L2.764529605681446,170.58460474515076A170.6070045455344,170.6070045455344,0,0,0,4.171575500932617,170.55599654611976Z" fill-rule="evenodd" style="fill: #D7A449; stroke: #fff; opacity: 1;" id="p-type-tokenTransfers"></path><path d="M3.1922038240457455,196.9741349384374A197,197,0,0,1,1.5672699547193665,196.99376554827575L1.3572955953750583,170.60160535196255A170.6070045455344,170.6070045455344,0,0,0,2.764529605681446,170.58460474515076Z" fill-rule="evenodd" style="fill: #D7A449; stroke: #fff; opacity: 1;" id="p-type-tokenTransfers"></path><path d="M1.5672699547193665,196.99376554827575A197,197,0,0,1,-0.05777056098673138,196.99999152934572L-0.05003077340538758,170.6069972097326A170.6070045455344,170.6070045455344,0,0,0,1.3572955953750583,170.60160535196255Z" fill-rule="evenodd" style="fill: #D7A449; stroke: #fff; opacity: 1;" id="p-type-tokenTransfers"></path><path d="M-0.05777056098673138,196.99999152934572A197,197,0,0,1,-1.6828071456398763,196.9928124579945L-1.4573537377941124,170.60077995156686A170.6070045455344,170.6070045455344,0,0,0,-0.05003077340538758,170.6069972097326Z" fill-rule="evenodd" style="fill: #D7A449; stroke: #fff; opacity: 1;" id="p-type-tokenTransfers"></path><path d="M-1.6828071456398763,196.9928124579945A197,197,0,0,1,-3.307729222074889,196.9722288227288L-2.8645775351569926,170.58295400052452A170.6070045455344,170.6070045455344,0,0,0,-1.4573537377941124,170.60077995156686Z" fill-rule="evenodd" style="fill: #D7A449; stroke: #fff; opacity: 1;" id="p-type-tokenTransfers"></path><path d="M-3.307729222074889,196.9722288227288A197,197,0,0,1,-4.932426220918411,196.93824202418176L-4.27160640960782,170.55352056958952A170.6070045455344,170.6070045455344,0,0,0,-2.8645775351569926,170.58295400052452Z" fill-rule="evenodd" style="fill: #D7A449; stroke: #fff; opacity: 1;" id="p-type-tokenTransfers"></path><path d="M-4.932426220918411,196.93824202418176A197,197,0,0,1,-6.556787588112704,196.89085437501757L-5.6783446185240996,170.51248166158769A170.6070045455344,170.6070045455344,0,0,0,-4.27160640960782,170.55352056958952Z" fill-rule="evenodd" style="fill: #D7A449; stroke: #fff; opacity: 1;" id="p-type-tokenTransfers"></path><path d="M-6.556787588112704,196.89085437501757A197,197,0,0,1,-8.180702792438405,196.83006909977397L-7.084696439061955,170.4598400690507A170.6070045455344,170.6070045455344,0,0,0,-5.6783446185240996,170.51248166158769Z" fill-rule="evenodd" style="fill: #D7A449; stroke: #fff; opacity: 1;" id="p-type-tokenTransfers"></path><path d="M-8.180702792438405,196.83006909977397A197,197,0,0,1,-9.80406133303573,196.75589033464303L-8.490566174669668,170.39559937402595A170.6070045455344,170.6070045455344,0,0,0,-7.084696439061955,170.4598400690507Z" fill-rule="evenodd" style="fill: #D7A449; stroke: #fff; opacity: 1;" id="p-type-tokenTransfers"></path><path d="M-9.80406133303573,196.75589033464303A197,197,0,0,1,-11.426752746923608,196.66832312718964L-9.89585816159946,170.31976394783285A170.6070045455344,170.6070045455344,0,0,0,-8.490566174669668,170.39559937402595Z" fill-rule="evenodd" style="fill: #D7A449; stroke: #fff; opacity: 1;" id="p-type-tokenTransfers"></path><path d="M-11.426752746923608,196.66832312718964A197,197,0,0,1,-13.048666616516241,196.56737343600798L-11.300476775417003,170.23233895076535A170.6070045455344,170.6070045455344,0,0,0,-9.89585816159946,170.31976394783285Z" fill-rule="evenodd" style="fill: #D7A449; stroke: #fff; opacity: 1;" id="p-type-tokenTransfers"></path><path d="M-13.048666616516241,196.56737343600798A197,197,0,0,1,-14.66969257713658,196.45304813031612L-12.704326437508287,170.13333033174078A170.6070045455344,170.6070045455344,0,0,0,-11.300476775417003,170.23233895076535Z" fill-rule="evenodd" style="fill: #D7A449; stroke: #fff; opacity: 1;" id="p-type-tokenTransfers"></path><path d="M-14.66969257713658,196.45304813031612A197,197,0,0,1,-16.28972032452618,196.3253549894886L-14.107311621583362,170.0227448278951A170.6070045455344,170.6070045455344,0,0,0,-12.704326437508287,170.13333033174078Z" fill-rule="evenodd" style="fill: #D7A449; stroke: #fff; opacity: 1;" id="p-type-tokenTransfers"></path><path d="M-16.28972032452618,196.3253549894886A197,197,0,0,1,-17.90863962235098,196.18430270252705L-15.509336860176502,169.90058996412452A170.6070045455344,170.6070045455344,0,0,0,-14.107311621583362,170.0227448278951Z" fill-rule="evenodd" style="fill: #D7A449; stroke: #fff; opacity: 1;" id="p-type-tokenTransfers"></path><path d="M-17.90863962235098,196.18430270252705A197,197,0,0,1,-19.526340309702412,196.0299008674689L-16.910306751142393,169.76687405257326A170.6070045455344,170.6070045455344,0,0,0,-15.509336860176502,169.90058996412452Z" fill-rule="evenodd" style="fill: #D7A449; stroke: #fff; opacity: 1;" id="p-type-tokenTransfers"></path><path d="M-19.526340309702412,196.0299008674689A197,197,0,0,1,-21.14271230859344,195.86215999073443L-18.310125964147854,169.6216061920681A170.6070045455344,170.6070045455344,0,0,0,-16.910306751142393,169.76687405257326Z" fill-rule="evenodd" style="fill: #D7A449; stroke: #fff; opacity: 1;" id="p-type-tokenTransfers"></path><path d="M-21.14271230859344,195.86215999073443A197,197,0,0,1,-22.757645631448884,195.68109148641162L-19.708699247158684,169.4647962674993A170.6070045455344,170.6070045455344,0,0,0,-18.310125964147854,169.6216061920681Z" fill-rule="evenodd" style="fill: #D7A449; stroke: #fff; opacity: 1;" id="p-type-tokenTransfers"></path><path d="M-22.757645631448884,195.68109148641162A197,197,0,0,1,-24.371030388589656,195.48670767547966L-21.10593143292118,169.2964549491478A170.6070045455344,170.6070045455344,0,0,0,-19.708699247158684,169.4647962674993Z" fill-rule="evenodd" style="fill: #D7A449; stroke: #fff; opacity: 1;" id="p-type-tokenTransfers"></path><path d="M-24.371030388589656,195.48670767547966A197,197,0,0,1,-25.9827567957103,195.27902178497047L-22.50172744543788,169.11659369195922A170.6070045455344,170.6070045455344,0,0,0,-21.10593143292118,169.2964549491478Z" fill-rule="evenodd" style="fill: #D7A449; stroke: #fff; opacity: 1;" id="p-type-tokenTransfers"></path><path d="M-25.9827567957103,195.27902178497047A197,197,0,0,1,-27.592715181349373,195.05804794706864L-23.895992306437098,168.92522473476453A170.6070045455344,170.6070045455344,0,0,0,-22.50172744543788,169.11659369195922Z" fill-rule="evenodd" style="fill: #D7A449; stroke: #fff; opacity: 1;" id="p-type-tokenTransfers"></path><path d="M-27.592715181349373,195.05804794706864A197,197,0,0,1,-29.20079599435213,194.82380119814988L-25.288631141835822,168.72236109944694A170.6070045455344,170.6070045455344,0,0,0,-23.895992306437098,168.92522473476453Z" fill-rule="evenodd" style="fill: #D7A449; stroke: #fff; opacity: 1;" id="p-type-tokenTransfers"></path><path d="M-29.20079599435213,194.82380119814988A197,197,0,0,1,-30.806889811325064,194.57629747775775L-26.679549188195494,168.5080165900562A170.6070045455344,170.6070045455344,0,0,0,-25.288631141835822,168.72236109944694Z" fill-rule="evenodd" style="fill: #D7A449; stroke: #fff; opacity: 1;" id="p-type-tokenTransfers"></path><path d="M-30.806889811325064,194.57629747775775A197,197,0,0,1,-32.41088734408169,194.31555362751908L-28.068651799170294,168.28220579186896A170.6070045455344,170.6070045455344,0,0,0,-26.679549188195494,168.5080165900562Z" fill-rule="evenodd" style="fill: #D7A449; stroke: #fff; opacity: 1;" id="p-type-tokenTransfers"></path><path d="M-32.41088734408169,194.31555362751908A197,197,0,0,1,-34.01267944707919,194.04158738999803L-29.45584445194743,168.04494407039647A170.6070045455344,170.6070045455344,0,0,0,-28.068651799170294,168.28220579186896Z" fill-rule="evenodd" style="fill: #D7A449; stroke: #fff; opacity: 1;" id="p-type-tokenTransfers"></path><path d="M-34.01267944707919,194.04158738999803A197,197,0,0,1,-35.61215712484534,193.75441740748863L-30.841032753679055,167.796247570339A170.6070045455344,170.6070045455344,0,0,0,-29.45584445194743,168.04494407039647Z" fill-rule="evenodd" style="fill: #D7A449; stroke: #fff; opacity: 1;" id="p-type-tokenTransfers"></path><path d="M-35.61215712484534,193.75441740748863A197,197,0,0,1,-37.20921153939515,193.45406322074638L-32.22412244790527,167.5361332144872A170.6070045455344,170.6070045455344,0,0,0,-30.841032753679055,167.796247570339Z" fill-rule="evenodd" style="fill: #D7A449; stroke: #fff; opacity: 1;" id="p-type-tokenTransfers"></path><path d="M-37.20921153939515,193.45406322074638A197,197,0,0,1,-38.80373401763692,193.1405452676586L-33.60501942096797,167.26461870257071A170.6070045455344,170.6070045455344,0,0,0,-32.22412244790527,167.5361332144872Z" fill-rule="evenodd" style="fill: #D7A449; stroke: #fff; opacity: 1;" id="p-type-tokenTransfers"></path><path d="M-38.80373401763692,193.1405452676586A197,197,0,0,1,-40.395616058766954,192.81388488185357L-34.98362970841481,166.98172251005352A170.6070045455344,170.6070045455344,0,0,0,-33.60501942096797,167.26461870257071Z" fill-rule="evenodd" style="fill: #D7A449; stroke: #fff; opacity: 1;" id="p-type-tokenTransfers"></path><path d="M-40.395616058766954,192.81388488185357A197,197,0,0,1,-41.98474934165264,192.474104291249L-36.35985950139317,166.68746388687708A170.6070045455344,170.6070045455344,0,0,0,-34.98362970841481,166.98172251005352Z" fill-rule="evenodd" style="fill: #D7A449; stroke: #fff; opacity: 1;" id="p-type-tokenTransfers"></path><path d="M-41.98474934165264,192.474104291249A197,197,0,0,1,-43.57102573220321,192.1212266165394L-37.73361515303345,166.38186285615015A170.6070045455344,170.6070045455344,0,0,0,-36.35985950139317,166.68746388687708Z" fill-rule="evenodd" style="fill: #D7A449; stroke: #fff; opacity: 1;" id="p-type-tokenTransfers"></path><path d="M-43.57102573220321,192.1212266165394A197,197,0,0,1,-45.154337290727895,191.7552758696229L-39.104803184821364,166.06494021278658A170.6070045455344,170.6070045455344,0,0,0,-37.73361515303345,166.38186285615015Z" fill-rule="evenodd" style="fill: #D7A449; stroke: #fff; opacity: 1;" id="p-type-tokenTransfers"></path><path d="M-45.154337290727895,191.7552758696229A197,197,0,0,1,-46.734576279280745,191.3762769519673L-40.47333029295875,165.73671752209003A170.6070045455344,170.6070045455344,0,0,0,-39.104803184821364,166.06494021278658Z" fill-rule="evenodd" style="fill: #D7A449; stroke: #fff; opacity: 1;" id="p-type-tokenTransfers"></path><path d="M-46.734576279280745,191.3762769519673A197,197,0,0,1,-48.31163516899174,190.98425565291564L-41.839103354712556,165.39721711828673A170.6070045455344,170.6070045455344,0,0,0,-40.47333029295875,165.73671752209003Z" fill-rule="evenodd" style="fill: #D7A449; stroke: #fff; opacity: 1;" id="p-type-tokenTransfers"></path><path d="M-48.31163516899174,190.98425565291564A197,197,0,0,1,-49.885406647383746,190.57923864793133L-43.202029434751424,165.0464621030056A170.6070045455344,170.6070045455344,0,0,0,-41.839103354712556,165.39721711828673Z" fill-rule="evenodd" style="fill: #D7A449; stroke: #fff; opacity: 1;" id="p-type-tokenTransfers"></path><path d="M-49.885406647383746,190.57923864793133A197,197,0,0,1,-51.45578362567466,190.16125349678296L-44.562015791469605,164.68447634370645A170.6070045455344,170.6070045455344,0,0,0,-43.202029434751424,165.0464621030056Z" fill-rule="evenodd" style="fill: #D7A449; stroke: #fff; opacity: 1;" id="p-type-tokenTransfers"></path><path d="M-51.45578362567466,190.16125349678296A197,197,0,0,1,-53.02265924606438,189.73032864166905L-45.9189698832976,164.3112844720557A170.6070045455344,170.6070045455344,0,0,0,-44.562015791469605,164.68447634370645Z" fill-rule="evenodd" style="fill: #D7A449; stroke: #fff; opacity: 1;" id="p-type-tokenTransfers"></path><path d="M-53.02265924606438,189.73032864166905A197,197,0,0,1,-54.585926889006046,189.28649340528258L-47.2727993749993,163.92691188225032A170.6070045455344,170.6070045455344,0,0,0,-45.9189698832976,164.3112844720557Z" fill-rule="evenodd" style="fill: #D7A449; stroke: #fff; opacity: 1;" id="p-type-tokenTransfers"></path><path d="M-54.585926889006046,189.28649340528258A197,197,0,0,1,-56.145480180461064,188.82977798881578L-48.62341214395499,163.5313847292901A170.6070045455344,170.6070045455344,0,0,0,-47.2727993749993,163.92691188225032Z" fill-rule="evenodd" style="fill: #D7A449; stroke: #fff; opacity: 1;" id="p-type-tokenTransfers"></path><path d="M-56.145480180461064,188.82977798881578A197,197,0,0,1,-57.701212999137425,188.36021346990498L-49.97071628642989,163.1247299271975A170.6070045455344,170.6070045455344,0,0,0,-48.62341214395499,163.5313847292901Z" fill-rule="evenodd" style="fill: #D7A449; stroke: #fff; opacity: 1;" id="p-type-tokenTransfers"></path><path d="M-57.701212999137425,188.36021346990498A197,197,0,0,1,-59.253019483710844,187.877831800516L-51.31462012382789,162.7069751471867A170.6070045455344,170.6070045455344,0,0,0,-49.97071628642989,163.1247299271975Z" fill-rule="evenodd" style="fill: #D7A449; stroke: #fff; opacity: 1;" id="p-type-tokenTransfers"></path><path d="M-59.253019483710844,187.877831800516A197,197,0,0,1,-60.800794040028194,187.38266580476989L-52.6550322089299,162.27814881578036A170.6070045455344,170.6070045455344,0,0,0,-51.31462012382789,162.7069751471867Z" fill-rule="evenodd" style="fill: #D7A449; stroke: #fff; opacity: 1;" id="p-type-tokenTransfers"></path><path d="M-60.800794040028194,187.38266580476989A197,197,0,0,1,-62.34443134829274,186.8747491767093L-53.99186133211643,161.83828011287537A170.6070045455344,170.6070045455344,0,0,0,-52.6550322089299,162.27814881578036Z" fill-rule="evenodd" style="fill: #D7A449; stroke: #fff; opacity: 1;" id="p-type-tokenTransfers"></path><path d="M-62.34443134829274,186.8747491767093A197,197,0,0,1,-63.88382637023074,186.35411647800595L-55.32501652757405,161.3873989697574A170.6070045455344,170.6070045455344,0,0,0,-53.99186133211643,161.83828011287537Z" fill-rule="evenodd" style="fill: #D7A449; stroke: #fff; opacity: 1;" id="p-type-tokenTransfers"></path><path d="M-63.88382637023074,186.35411647800595A197,197,0,0,1,-65.41887435623889,185.82080313560868L-56.65440707948524,160.92553606706417A170.6070045455344,170.6070045455344,0,0,0,-55.32501652757405,161.3873989697574Z" fill-rule="evenodd" style="fill: #D7A449; stroke: #fff; opacity: 1;" id="p-type-tokenTransfers"></path><path d="M-65.41887435623889,185.82080313560868A197,197,0,0,1,-66.94947085251206,185.27484543933275L-57.979942528201256,160.45272283269762A170.6070045455344,170.6070045455344,0,0,0,-56.65440707948524,160.92553606706417Z" fill-rule="evenodd" style="fill: #D7A449; stroke: #fff; opacity: 1;" id="p-type-tokenTransfers"></path><path d="M-66.94947085251206,185.27484543933275A197,197,0,0,1,-68.47551170815102,184.71628053939065L-59.30153267639754,159.96899143968542A170.6070045455344,170.6070045455344,0,0,0,-57.979942528201256,160.45272283269762Z" fill-rule="evenodd" style="fill: #D7A449; stroke: #fff; opacity: 1;" id="p-type-tokenTransfers"></path><path d="M-68.47551170815102,184.71628053939065A197,197,0,0,1,-69.99689308224946,184.14514644386406L-60.61908759521126,159.47437480399196A170.6070045455344,170.6070045455344,0,0,0,-59.30153267639754,159.96899143968542Z" fill-rule="evenodd" style="fill: #D7A449; stroke: #fff; opacity: 1;" id="p-type-tokenTransfers"></path><path d="M-69.99689308224946,184.14514644386406A197,197,0,0,1,-71.5135114509599,183.56148201611748L-61.932517630360614,158.96890658227812A170.6070045455344,170.6070045455344,0,0,0,-60.61908759521126,159.47437480399196Z" fill-rule="evenodd" style="fill: #D7A449; stroke: #fff; opacity: 1;" id="p-type-tokenTransfers"></path><path d="M-71.5135114509599,183.56148201611748A197,197,0,0,1,-73.02526361453812,182.96532697215397L-63.24173340824545,158.4526211696115A170.6070045455344,170.6070045455344,0,0,0,-61.932517630360614,158.96890658227812Z" fill-rule="evenodd" style="fill: #D7A449; stroke: #fff; opacity: 1;" id="p-type-tokenTransfers"></path><path d="M-73.02526361453812,182.96532697215397A197,197,0,0,1,-74.53204670436551,182.35672187791235L-64.54664584202878,157.92555369712562A170.6070045455344,170.6070045455344,0,0,0,-63.24173340824545,158.4526211696115Z" fill-rule="evenodd" style="fill: #D7A449; stroke: #fff; opacity: 1;" id="p-type-tokenTransfers"></path><path d="M-74.53204670436551,182.35672187791235A197,197,0,0,1,-76.03375818994878,181.73570814650708L-65.84716613769876,157.3877400296297A170.6070045455344,170.6070045455344,0,0,0,-64.54664584202878,157.92555369712562Z" fill-rule="evenodd" style="fill: #D7A449; stroke: #fff; opacity: 1;" id="p-type-tokenTransfers"></path><path d="M-76.03375818994878,181.73570814650708A197,197,0,0,1,-77.5302958858968,181.10232803541012L-67.14320580011078,156.8392167631679A170.6070045455344,170.6070045455344,0,0,0,-65.84716613769876,157.3877400296297Z" fill-rule="evenodd" style="fill: #D7A449; stroke: #fff; opacity: 1;" id="p-type-tokenTransfers"></path><path d="M-77.5302958858968,181.10232803541012A197,197,0,0,1,-79.02155795887393,180.45662464357557L-68.43467663900921,156.28002122252943A170.6070045455344,170.6070045455344,0,0,0,-67.14320580011078,156.8392167631679Z" fill-rule="evenodd" style="fill: #D7A449; stroke: #fff; opacity: 1;" id="p-type-tokenTransfers"></path><path d="M-79.02155795887393,180.45662464357557A197,197,0,0,1,-80.50744293452927,179.79864190850697L-69.72149077502836,155.7101914587084A170.6070045455344,170.6070045455344,0,0,0,-68.43467663900921,156.28002122252943Z" fill-rule="evenodd" style="fill: #D7A449; stroke: #fff; opacity: 1;" id="p-type-tokenTransfers"></path><path d="M-80.50744293452927,179.79864190850697A197,197,0,0,1,-81.98784970440165,179.12842460326738L-71.00356064567231,155.129766246315A170.6070045455344,170.6070045455344,0,0,0,-69.72149077502836,155.7101914587084Z" fill-rule="evenodd" style="fill: #D7A449; stroke: #fff; opacity: 1;" id="p-type-tokenTransfers"></path><path d="M-81.98784970440165,179.12842460326738A197,197,0,0,1,-83.4626775327997,178.44601833343296L-72.28079901127326,154.5387850809366A170.6070045455344,170.6070045455344,0,0,0,-71.00356064567231,155.129766246315Z" fill-rule="evenodd" style="fill: #D7A449; stroke: #fff; opacity: 1;" id="p-type-tokenTransfers"></path><path d="M-83.4626775327997,178.44601833343296A197,197,0,0,1,-84.93182606365639,177.75146953398956L-73.55311896092773,153.93728817645064A170.6070045455344,170.6070045455344,0,0,0,-72.28079901127326,154.5387850809366Z" fill-rule="evenodd" style="fill: #D7A449; stroke: #fff; opacity: 1;" id="p-type-tokenTransfers"></path><path d="M-84.93182606365639,177.75146953398956A197,197,0,0,1,-86.39519532735791,177.04482546617305L-74.82043391841059,153.32531646228796A170.6070045455344,170.6070045455344,0,0,0,-73.55311896092773,153.93728817645064Z" fill-rule="evenodd" style="fill: #D7A449; stroke: #fff; opacity: 1;" id="p-type-tokenTransfers"></path><path d="M-86.39519532735791,177.04482546617305A197,197,0,0,1,-87.85268574754623,176.32613421425336L-76.08265764806612,152.70291158064788A170.6070045455344,170.6070045455344,0,0,0,-74.82043391841059,153.32531646228796Z" fill-rule="evenodd" style="fill: #D7A449; stroke: #fff; opacity: 1;" id="p-type-tokenTransfers"></path><path d="M-87.85268574754623,176.32613421425336A197,197,0,0,1,-89.30419814789482,175.59544468226258L-77.33970426067613,152.0701158836645A170.6070045455344,170.6070045455344,0,0,0,-76.08265764806612,152.70291158064788Z" fill-rule="evenodd" style="fill: #D7A449; stroke: #fff; opacity: 1;" id="p-type-tokenTransfers"></path><path d="M-89.30419814789482,175.59544468226258A197,197,0,0,1,-90.74963375885723,174.85280659066723L-78.59148821930425,151.42697243052493A170.6070045455344,170.6070045455344,0,0,0,-77.33970426067613,152.0701158836645Z" fill-rule="evenodd" style="fill: #D7A449; stroke: #fff; opacity: 1;" id="p-type-tokenTransfers"></path><path d="M-90.74963375885723,174.85280659066723A197,197,0,0,1,-92.1888942243879,174.09827047298495L-79.83792434511643,150.7735249845392A170.6070045455344,170.6070045455344,0,0,0,-78.59148821930425,151.42697243052493Z" fill-rule="evenodd" style="fill: #D7A449; stroke: #fff; opacity: 1;" id="p-type-tokenTransfers"></path><path d="M-92.1888942243879,174.09827047298495A197,197,0,0,1,-93.62188160863496,173.33188767234589L-81.07892782317701,150.10981801016231A170.6070045455344,170.6070045455344,0,0,0,-79.83792434511643,150.7735249845392Z" fill-rule="evenodd" style="fill: #D7A449; stroke: #fff; opacity: 1;" id="p-type-tokenTransfers"></path><path d="M-93.62188160863496,173.33188767234589A197,197,0,0,1,-95.0484984026044,172.55371033799915L-82.31441420822004,149.43589666996877A170.6070045455344,170.6070045455344,0,0,0,-81.07892782317701,150.10981801016231Z" fill-rule="evenodd" style="fill: #D7A449; stroke: #fff; opacity: 1;" id="p-type-tokenTransfers"></path><path d="M-95.0484984026044,172.55371033799915A197,197,0,0,1,-96.468647530795,171.76379142176398L-83.54429943039541,148.75180682157927A170.6070045455344,170.6070045455344,0,0,0,-82.31441420822004,149.43589666996877Z" fill-rule="evenodd" style="fill: #D7A449; stroke: #fff; opacity: 1;" id="p-type-tokenTransfers"></path><path d="M-96.468647530795,171.76379142176398A197,197,0,0,1,-97.88223235780407,170.9621846744269L-84.76849980098952,148.05759501454034A170.6070045455344,170.6070045455344,0,0,0,-83.54429943039541,148.75180682157927Z" fill-rule="evenodd" style="fill: #D7A449; stroke: #fff; opacity: 1;" id="p-type-tokenTransfers"></path><path d="M-178.89024375646116,82.50624636204164A197,197,0,0,1,-182.43448647165275,74.34149679569512L-157.99289981081978,64.38162478043142A170.6070045455344,170.6070045455344,0,0,0,-154.92349558228594,71.45250532042549Z" fill-rule="evenodd" style="fill: #414552; stroke: #fff; opacity: 1;" id="p-type-ether"></path><path d="M-182.43448647165275,74.34149679569512A197,197,0,0,1,-183.242610281458,72.3266602107252L-158.69275555951418,62.636725113373174A170.6070045455344,170.6070045455344,0,0,0,-157.99289981081978,64.38162478043142Z" fill-rule="evenodd" style="fill: #414552; stroke: #fff; opacity: 1;" id="p-type-ether"></path><path d="M-183.242610281458,72.3266602107252A197,197,0,0,1,-183.82710210998994,70.82793608346446L-159.19894033132726,61.33879194590073A170.6070045455344,170.6070045455344,0,0,0,-158.69275555951418,62.636725113373174Z" fill-rule="evenodd" style="fill: #414552; stroke: #fff; opacity: 1;" id="p-type-ether"></path><path d="M-183.82710210998994,70.82793608346446A197,197,0,0,1,-184.39922416020184,69.32478726339977L-159.694412560876,60.0370268820561A170.6070045455344,170.6070045455344,0,0,0,-159.19894033132726,61.33879194590073Z" fill-rule="evenodd" style="fill: #414552; stroke: #fff; opacity: 1;" id="p-type-ether"></path><path d="M-184.39922416020184,69.32478726339977A197,197,0,0,1,-184.85761350100248,68.09304465739498L-160.09138937483334,58.9703064943323A170.6070045455344,170.6070045455344,0,0,0,-159.694412560876,60.0370268820561Z" fill-rule="evenodd" style="fill: #414552; stroke: #fff; opacity: 1;" id="p-type-ether"></path></g></svg>