<svg xmlns="http://www.w3.org/2000/svg" width="400" height="400" id="block-7908280"><g id="burst-container" transform="translate(200,200)"><circle r="197" style="fill: #f9f9f9; stroke: #f9f9f9; stroke-width: 3; opacity: 1;" id="circle-base"></circle><path display="none" d="M6.031385485800715e-15,-98.5A98.5,98.5,0,1,1,-6.031385485800715e-15,98.5A98.5,98.5,0,1,1,6.031385485800715e-15,-98.5Z" fill-rule="evenodd" id="p-type-root" style="stroke: #fff; opacity: 1;"></path><path d="M8.529667153919608e-15,-139.30003589374985A139.30003589374985,139.30003589374985,0,1,1,-125.34223977762638,-60.77682887028588L-88.63034771586983,-42.97570783319349A98.5,98.5,0,1,0,6.031385485800715e-15,-98.5Z" fill-rule="evenodd" style="fill: #0B1F65; stroke: #fff; opacity: 1;" id="p-type-data"></path><path d="M-125.34223977762638,-60.77682887028588A139.30003589374985,139.30003589374985,0,0,1,-1.8451555455813768,-139.28781497680478L-1.3047219986245555,-98.49135850675583A98.5,98.5,0,0,0,-88.63034771586983,-42.97570783319349Z" fill-rule="evenodd" style="fill: #D7A449; stroke: #fff; opacity: 1;" id="p-type-value"></path><path d="M1.0446666101440332e-14,-170.6070045455344A170.6070045455344,170.6070045455344,0,0,1,170.4323563285572,7.717636704050526L139.15743622172283,6.301423981699578A139.30003589374985,139.30003589374985,0,0,0,8.529667153919608e-15,-139.30003589374985Z" fill-rule="evenodd" style="fill: #1DC690; stroke: #fff; opacity: 1;" id="p-type-logs"></path><path d="M170.4323563285572,7.717636704050526A170.6070045455344,170.6070045455344,0,0,1,24.654049976994393,168.81625460758173L20.1299475122372,137.83789469211496A139.30003589374985,139.30003589374985,0,0,0,139.15743622172283,6.301423981699578Z" fill-rule="evenodd" style="fill: #D7A449; stroke: #fff; opacity: 1;" id="p-type-tokenTransfers"></path><path d="M24.654049976994393,168.81625460758173A170.6070045455344,170.6070045455344,0,0,1,-124.37341570226334,116.78186274654122L-101.55046867920078,95.35199164692189A139.30003589374985,139.30003589374985,0,0,0,20.1299475122372,137.83789469211496Z" fill-rule="evenodd" style="fill: #414552; stroke: #fff; opacity: 1;" id="p-type-ether"></path><path d="M-153.51226533638274,-74.43610945832691A170.6070045455344,170.6070045455344,0,0,1,-70.17091710742804,-155.50817467999056L-57.294313898777865,-126.97189293252387A139.30003589374985,139.30003589374985,0,0,0,-125.34223977762638,-60.77682887028588Z" fill-rule="evenodd" style="fill: #D7A449; stroke: #fff; opacity: 1;" id="p-type-tokenTransfers"></path><path d="M-70.17091710742804,-155.50817467999056A170.6070045455344,170.6070045455344,0,0,1,-4.519293066324858,-170.5471371503511L-3.689987336864625,-139.2511543702736A139.30003589374985,139.30003589374985,0,0,0,-57.294313898777865,-126.97189293252387Z" fill-rule="evenodd" style="fill: #414552; stroke: #fff; opacity: 1;" id="p-type-ether"></path><path d="M1.206277097160143e-14,-197A197,197,0,0,1,1.3047506156734372,-196.995679205994L1.1299471787765833,-170.6032626281607A170.6070045455344,170.6070045455344,0,0,0,1.0446666101440332e-14,-170.6070045455344Z" fill-rule="evenodd" style="fill: #1DC690; stroke: #fff; opacity: 1;" id="p-type-logs"></path><path d="M1.3047506156734372,-196.995679205994A197,197,0,0,1,2.609443997248999,-196.98271701351166L2.259844791370444,-170.59203704018225A170.6070045455344,170.6070045455344,0,0,0,1.1299471787765833,-170.6032626281607Z" fill-rule="evenodd" style="fill: #1DC690; stroke: #fff; opacity: 1;" id="p-type-logs"></path><path d="M2.609443997248999,-196.98271701351166A197,197,0,0,1,3.914022913139462,-196.96111399115162L3.3896432737731472,-170.5733282740199A170.6070045455344,170.6070045455344,0,0,0,2.259844791370444,-170.59203704018225Z" fill-rule="evenodd" style="fill: #1DC690; stroke: #fff; opacity: 1;" id="p-type-logs"></path><path d="M3.914022913139462,-196.96111399115162A197,197,0,0,1,5.218430136778733,-196.93087108655047L4.5192930663246855,-170.5471371503511A170.6070045455344,170.6070045455344,0,0,0,3.3896432737731472,-170.5733282740199Z" fill-rule="evenodd" style="fill: #1DC690; stroke: #fff; opacity: 1;" id="p-type-logs"></path><path d="M5.218430136778733,-196.93087108655047A197,197,0,0,1,6.522608449132158,-196.89198962634134L5.648744615887468,-170.51346481807377A170.6070045455344,170.6070045455344,0,0,0,4.5192930663246855,-170.5471371503511Z" fill-rule="evenodd" style="fill: #1DC690; stroke: #fff; opacity: 1;" id="p-type-logs"></path><path d="M6.522608449132158,-196.89198962634134A197,197,0,0,1,7.82650064120645,-196.84447131609565L6.777948378019984,-170.47231275425608A170.6070045455344,170.6070045455344,0,0,0,5.648744615887468,-170.51346481807377Z" fill-rule="evenodd" style="fill: #1DC690; stroke: #fff; opacity: 1;" id="p-type-logs"></path><path d="M7.82650064120645,-196.84447131609565A197,197,0,0,1,9.130049516559382,-196.78831824024812L7.906854819150256,-170.4236827640715A170.6070045455344,170.6070045455344,0,0,0,6.777948378019984,-170.47231275425608Z" fill-rule="evenodd" style="fill: #1DC690; stroke: #fff; opacity: 1;" id="p-type-logs"></path><path d="M9.130049516559382,-196.78831824024812A197,197,0,0,1,10.433197893808499,-196.7235328620057L9.03541441874846,-170.36757698071975A170.6070045455344,170.6070045455344,0,0,0,7.906854819150256,-170.4236827640715Z" fill-rule="evenodd" style="fill: #1DC690; stroke: #fff; opacity: 1;" id="p-type-logs"></path><path d="M10.433197893808499,-196.7235328620057A197,197,0,0,1,11.735888609139616,-196.65011802323912L10.163577671499331,-170.30399786533314A170.6070045455344,170.6070045455344,0,0,0,9.03541441874846,-170.36757698071975Z" fill-rule="evenodd" style="fill: #1DC690; stroke: #fff; opacity: 1;" id="p-type-logs"></path><path d="M11.735888609139616,-196.65011802323912A197,197,0,0,1,13.038064518814313,-196.5680769443585L11.291295089473728,-170.23294820686866A170.6070045455344,170.6070045455344,0,0,0,10.163577671499331,-170.30399786533314Z" fill-rule="evenodd" style="fill: #1DC690; stroke: #fff; opacity: 1;" id="p-type-logs"></path><path d="M13.038064518814313,-196.5680769443585A197,197,0,0,1,14.3396685016766,-196.47741322417195L12.418517204299475,-170.15443112198554A170.6070045455344,170.6070045455344,0,0,0,11.291295089473728,-170.23294820686866Z" fill-rule="evenodd" style="fill: #1DC690; stroke: #fff; opacity: 1;" id="p-type-logs"></path><path d="M14.3396685016766,-196.47741322417195A197,197,0,0,1,15.64064346165858,-196.37813083972787L13.545194569331313,-170.06845005490865A170.6070045455344,170.6070045455344,0,0,0,12.418517204299475,-170.15443112198554Z" fill-rule="evenodd" style="fill: #1DC690; stroke: #fff; opacity: 1;" id="p-type-logs"></path><path d="M15.64064346165858,-196.37813083972787A197,197,0,0,1,16.94093233028504,-196.2702341461402L14.671277761819953,-169.9750087772774A170.6070045455344,170.6070045455344,0,0,0,13.545194569331313,-170.06845005490865Z" fill-rule="evenodd" style="fill: #1DC690; stroke: #fff; opacity: 1;" id="p-type-logs"></path><path d="M16.94093233028504,-196.2702341461402A197,197,0,0,1,18.240478069176792,-196.15372787639768L15.79671738508003,-169.8741113879802A170.6070045455344,170.6070045455344,0,0,0,14.671277761819953,-169.9750087772774Z" fill-rule="evenodd" style="fill: #1DC690; stroke: #fff; opacity: 1;" id="p-type-logs"></path><path d="M18.240478069176792,-196.15372787639768A197,197,0,0,1,19.53922367255273,-196.02861714115608L16.92146407065694,-169.76576231297483A170.6070045455344,170.6070045455344,0,0,0,15.79671738508003,-169.8741113879802Z" fill-rule="evenodd" style="fill: #1DC690; stroke: #fff; opacity: 1;" id="p-type-logs"></path><path d="M19.53922367255273,-196.02861714115608A197,197,0,0,1,20.837112169730432,-195.894907428514L18.045468480492435,-169.64996630509407A170.6070045455344,170.6070045455344,0,0,0,16.92146407065694,-169.76576231297483Z" fill-rule="evenodd" style="fill: #1DC690; stroke: #fff; opacity: 1;" id="p-type-logs"></path><path d="M20.837112169730432,-195.894907428514A197,197,0,0,1,22.13408662762524,-195.75260460377223L19.168681309088893,-169.52672844383738A170.6070045455344,170.6070045455344,0,0,0,18.045468480492435,-169.64996630509407Z" fill-rule="evenodd" style="fill: #1DC690; stroke: #fff; opacity: 1;" id="p-type-logs"></path><path d="M22.13408662762524,-195.75260460377223A197,197,0,0,1,23.430090153247676,-195.6017149091763L20.291053285672117,-169.39605413514806A170.6070045455344,170.6070045455344,0,0,0,19.168681309088893,-169.52672844383738Z" fill-rule="evenodd" style="fill: #1DC690; stroke: #fff; opacity: 1;" id="p-type-logs"></path><path d="M23.430090153247676,-195.6017149091763A197,197,0,0,1,24.7250658961991,-195.44224496364293L21.41253517635268,-169.25794911117603A170.6070045455344,170.6070045455344,0,0,0,20.291053285672117,-169.39605413514806Z" fill-rule="evenodd" style="fill: #1DC690; stroke: #fff; opacity: 1;" id="p-type-logs"></path><path d="M24.7250658961991,-195.44224496364293A197,197,0,0,1,26.018957051165494,-195.27420176246937L22.533077786285563,-169.11241943002648A170.6070045455344,170.6070045455344,0,0,0,21.41253517635268,-169.25794911117603Z" fill-rule="evenodd" style="fill: #1DC690; stroke: #fff; opacity: 1;" id="p-type-logs"></path><path d="M26.018957051165494,-195.27420176246937A197,197,0,0,1,27.311706860409398,-195.09759267702682L23.652631961828273,-168.95947147549407A170.6070045455344,170.6070045455344,0,0,0,22.533077786285563,-169.11241943002648Z" fill-rule="evenodd" style="fill: #1DC690; stroke: #fff; opacity: 1;" id="p-type-logs"></path><path d="M27.311706860409398,-195.09759267702682A197,197,0,0,1,28.603258616259442,-194.9124254544368L24.771148592696807,-168.79911195678292A170.6070045455344,170.6070045455344,0,0,0,23.652631961828273,-168.95947147549407Z" fill-rule="evenodd" style="fill: #1DC690; stroke: #fff; opacity: 1;" id="p-type-logs"></path><path d="M28.603258616259442,-194.9124254544368A197,197,0,0,1,29.893555663598,-194.71870821723158L25.888578614120053,-168.63134790821226A170.6070045455344,170.6070045455344,0,0,0,24.771148592696807,-168.79911195678292Z" fill-rule="evenodd" style="fill: #1DC690; stroke: #fff; opacity: 1;" id="p-type-logs"></path><path d="M29.893555663598,-194.71870821723158A197,197,0,0,1,31.182541402346416,-194.51644946299774L27.00487300899203,-168.45618668890796A170.6070045455344,170.6070045455344,0,0,0,25.888578614120053,-168.63134790821226Z" fill-rule="evenodd" style="fill: #1DC690; stroke: #fff; opacity: 1;" id="p-type-logs"></path><path d="M31.182541402346416,-194.51644946299774A197,197,0,0,1,32.4701592899478,-194.3056580640034L28.119982810022083,-168.27363598247962A170.6070045455344,170.6070045455344,0,0,0,27.00487300899203,-168.45618668890796Z" fill-rule="evenodd" style="fill: #1DC690; stroke: #fff; opacity: 1;" id="p-type-logs"></path><path d="M32.4701592899478,-194.3056580640034A197,197,0,0,1,33.75635284384731,-194.08634326680917L29.233859101882853,-168.08370379668358A170.6070045455344,170.6070045455344,0,0,0,28.119982810022083,-168.27363598247962Z" fill-rule="evenodd" style="fill: #1DC690; stroke: #fff; opacity: 1;" id="p-type-logs"></path><path d="M33.75635284384731,-194.08634326680917A197,197,0,0,1,35.041065643969816,-193.85851469186233L30.346453023355977,-167.8863984630716A170.6070045455344,170.6070045455344,0,0,0,29.233859101882853,-168.08370379668358Z" fill-rule="evenodd" style="fill: #1DC690; stroke: #fff; opacity: 1;" id="p-type-logs"></path><path d="M35.041065643969816,-193.85851469186233A197,197,0,0,1,36.32424133519492,-193.62218233307493L31.457715769475577,-167.68172863662542A170.6070045455344,170.6070045455344,0,0,0,30.346453023355977,-167.8863984630716Z" fill-rule="evenodd" style="fill: #1DC690; stroke: #fff; opacity: 1;" id="p-type-logs"></path><path d="M36.32424133519492,-193.62218233307493A197,197,0,0,1,37.60582362982882,-193.3773565573855L32.56759859366888,-167.46970329537714A170.6070045455344,170.6070045455344,0,0,0,31.457715769475577,-167.68172863662542Z" fill-rule="evenodd" style="fill: #1DC690; stroke: #fff; opacity: 1;" id="p-type-logs"></path><path d="M37.60582362982882,-193.3773565573855A197,197,0,0,1,38.88575631007358,-193.1240481043041L33.676052809894756,-167.25033174001533A170.6070045455344,170.6070045455344,0,0,0,32.56759859366888,-167.46970329537714Z" fill-rule="evenodd" style="fill: #1DC690; stroke: #fff; opacity: 1;" id="p-type-logs"></path><path d="M38.88575631007358,-193.1240481043041A197,197,0,0,1,40.16398323049313,-192.8622680854414L34.78302979477924,-167.02362359347703A170.6070045455344,170.6070045455344,0,0,0,33.676052809894756,-167.25033174001533Z" fill-rule="evenodd" style="fill: #1DC690; stroke: #fff; opacity: 1;" id="p-type-logs"></path><path d="M40.16398323049313,-192.8622680854414A197,197,0,0,1,41.44044832047615,-192.59202798402103L35.888480989748516,-166.7895888005257A170.6070045455344,170.6070045455344,0,0,0,34.78302979477924,-167.02362359347703Z" fill-rule="evenodd" style="fill: #1DC690; stroke: #fff; opacity: 1;" id="p-type-logs"></path><path d="M41.44044832047615,-192.59202798402103A197,197,0,0,1,42.71509558669562,-192.31333965437616L36.99235790315897,-166.54823762731502A170.6070045455344,170.6070045455344,0,0,0,35.888480989748516,-166.7895888005257Z" fill-rule="evenodd" style="fill: #1DC690; stroke: #fff; opacity: 1;" id="p-type-logs"></path><path d="M42.71509558669562,-192.31333965437616A197,197,0,0,1,43.987869115565076,-192.02621532142925L38.09461211242429,-166.29958066093832A170.6070045455344,170.6070045455344,0,0,0,36.99235790315897,-166.54823762731502Z" fill-rule="evenodd" style="fill: #1DC690; stroke: #fff; opacity: 1;" id="p-type-logs"></path><path d="M43.987869115565076,-192.02621532142925A197,197,0,0,1,45.25871307569128,-191.7306675801559L39.19519526613959,-166.0436288089645A170.6070045455344,170.6070045455344,0,0,0,38.09461211242429,-166.29958066093832Z" fill-rule="evenodd" style="fill: #1DC690; stroke: #fff; opacity: 1;" id="p-type-logs"></path><path d="M45.25871307569128,-191.7306675801559A197,197,0,0,1,46.52757172032326,-191.4267093950324L40.29405908620238,-165.7803932989593A170.6070045455344,170.6070045455344,0,0,0,39.19519526613959,-166.0436288089645Z" fill-rule="evenodd" style="fill: #1DC690; stroke: #fff; opacity: 1;" id="p-type-logs"></path><path d="M46.52757172032326,-191.4267093950324A197,197,0,0,1,47.7943893897979,-191.11435409946677L41.391155369930416,-165.50988567799288A170.6070045455344,170.6070045455344,0,0,0,40.29405908620238,-165.7803932989593Z" fill-rule="evenodd" style="fill: #1DC690; stroke: #fff; opacity: 1;" id="p-type-logs"></path><path d="M47.7943893897979,-191.11435409946677A197,197,0,0,1,49.05911051398121,-190.79361539521435L42.48643599217598,-165.2321178121334A170.6070045455344,170.6070045455344,0,0,0,41.391155369930416,-165.50988567799288Z" fill-rule="evenodd" style="fill: #1DC690; stroke: #fff; opacity: 1;" id="p-type-logs"></path><path d="M49.05911051398121,-190.79361539521435A197,197,0,0,1,50.32167961470617,-190.46450735177635L43.579852907437065,-164.9471018859263A170.6070045455344,170.6070045455344,0,0,0,42.48643599217598,-165.2321178121334Z" fill-rule="evenodd" style="fill: #1DC690; stroke: #fff; opacity: 1;" id="p-type-logs"></path><path d="M50.32167961470617,-190.46450735177635A197,197,0,0,1,51.58204130820624,-190.12704440578278L44.6713581519649,-164.65485040185993A170.6070045455344,170.6070045455344,0,0,0,43.579852907437065,-164.9471018859263Z" fill-rule="evenodd" style="fill: #1DC690; stroke: #fff; opacity: 1;" id="p-type-logs"></path><path d="M51.58204130820624,-190.12704440578278A197,197,0,0,1,52.840140307544885,-189.78124136035936L45.76090384586795,-164.3553761798172A170.6070045455344,170.6070045455344,0,0,0,44.6713581519649,-164.65485040185993Z" fill-rule="evenodd" style="fill: #1DC690; stroke: #fff; opacity: 1;" id="p-type-logs"></path><path d="M52.840140307544885,-189.78124136035936A197,197,0,0,1,54.09592142504072,-189.42711338447785L46.84844219521215,-164.04869235651304A170.6070045455344,170.6070045455344,0,0,0,45.76090384586795,-164.3553761798172Z" fill-rule="evenodd" style="fill: #1DC690; stroke: #fff; opacity: 1;" id="p-type-logs"></path><path d="M54.09592142504072,-189.42711338447785A197,197,0,0,1,55.34932957468841,-189.0646760122909L47.9339254941175,-163.73481238491829A170.6070045455344,170.6070045455344,0,0,0,46.84844219521215,-164.04869235651304Z" fill-rule="evenodd" style="fill: #1DC690; stroke: #fff; opacity: 1;" id="p-type-logs"></path><path d="M55.34932957468841,-189.0646760122909A197,197,0,0,1,56.60030977457507,-188.69394514245056L49.01730612685068,-163.41375003366946A170.6070045455344,170.6070045455344,0,0,0,47.9339254941175,-163.73481238491829Z" fill-rule="evenodd" style="fill: #1DC690; stroke: #fff; opacity: 1;" id="p-type-logs"></path><path d="M56.60030977457507,-188.69394514245056A197,197,0,0,1,57.848807149292064,-188.31493703741086L50.098536569913776,-163.08551938646488A170.6070045455344,170.6070045455344,0,0,0,49.01730612685068,-163.41375003366946Z" fill-rule="evenodd" style="fill: #1DC690; stroke: #fff; opacity: 1;" id="p-type-logs"></path><path d="M57.848807149292064,-188.31493703741086A197,197,0,0,1,59.09476693234222,-187.9276683227144L51.17756939412896,-162.7501348414468A170.6070045455344,170.6070045455344,0,0,0,50.098536569913776,-163.08551938646488Z" fill-rule="evenodd" style="fill: #1DC690; stroke: #fff; opacity: 1;" id="p-type-logs"></path><path d="M59.09476693234222,-187.9276683227144A197,197,0,0,1,60.338134468542144,-187.53215598626312L52.25435726671896,-162.40761111056986A170.6070045455344,170.6070045455344,0,0,0,51.17756939412896,-162.7501348414468Z" fill-rule="evenodd" style="fill: #1DC690; stroke: #fff; opacity: 1;" id="p-type-logs"></path><path d="M60.338134468542144,-187.53215598626312A197,197,0,0,1,61.57885521641979,-187.12841737757313L53.32885295338343,-162.0579632189557A170.6070045455344,170.6070045455344,0,0,0,52.25435726671896,-162.40761111056986Z" fill-rule="evenodd" style="fill: #1DC690; stroke: #fff; opacity: 1;" id="p-type-logs"></path><path d="M61.57885521641979,-187.12841737757313A197,197,0,0,1,62.816874750606935,-186.7164702070135L54.40100932037088,-161.70120650423397A170.6070045455344,170.6070045455344,0,0,0,53.32885295338343,-162.0579632189557Z" fill-rule="evenodd" style="fill: #1DC690; stroke: #fff; opacity: 1;" id="p-type-logs"></path><path d="M62.816874750606935,-186.7164702070135A197,197,0,0,1,64.0521387642266,-186.29633254502963L55.47077933654623,-161.33735661586934A170.6070045455344,170.6070045455344,0,0,0,54.40100932037088,-161.70120650423397Z" fill-rule="evenodd" style="fill: #1DC690; stroke: #fff; opacity: 1;" id="p-type-logs"></path><path d="M64.0521387642266,-186.29633254502963A197,197,0,0,1,65.28459307127525,-185.8680228213503L56.538116075453914,-160.96642951447515A170.6070045455344,170.6070045455344,0,0,0,55.47077933654623,-161.33735661586934Z" fill-rule="evenodd" style="fill: #1DC690; stroke: #fff; opacity: 1;" id="p-type-logs"></path><path d="M65.28459307127525,-185.8680228213503A197,197,0,0,1,66.51418360899977,-185.43155982417952L57.60297271737632,-160.58844147111336A170.6070045455344,170.6070045455344,0,0,0,56.538116075453914,-160.96642951447515Z" fill-rule="evenodd" style="fill: #1DC690; stroke: #fff; opacity: 1;" id="p-type-logs"></path><path d="M66.51418360899977,-185.43155982417952A197,197,0,0,1,67.74085644026897,-184.98696269937207L58.665302551387626,-160.20340906658058A170.6070045455344,170.6070045455344,0,0,0,57.60297271737632,-160.58844147111336Z" fill-rule="evenodd" style="fill: #1DC690; stroke: #fff; opacity: 1;" id="p-type-logs"></path><path d="M67.74085644026897,-184.98696269937207A197,197,0,0,1,68.96455775593951,-184.53425094959388L59.725058977402746,-159.81134919068097A170.6070045455344,170.6070045455344,0,0,0,58.665302551387626,-160.20340906658058Z" fill-rule="evenodd" style="fill: #1DC690; stroke: #fff; opacity: 1;" id="p-type-logs"></path><path d="M68.96455775593951,-184.53425094959388A197,197,0,0,1,70.18523387721635,-184.0734444334664L60.78219550822155,-159.41227904148516A170.6070045455344,170.6070045455344,0,0,0,59.725058977402746,-159.81134919068097Z" fill-rule="evenodd" style="fill: #1DC690; stroke: #fff; opacity: 1;" id="p-type-logs"></path><path d="M70.18523387721635,-184.0734444334664A197,197,0,0,1,71.40283125800745,-183.60456336469557L61.83666577156804,-159.00621612457604A170.6070045455344,170.6070045455344,0,0,0,60.78219550822155,-159.41227904148516Z" fill-rule="evenodd" style="fill: #1DC690; stroke: #fff; opacity: 1;" id="p-type-logs"></path><path d="M71.40283125800745,-183.60456336469557A197,197,0,0,1,72.61729648727257,-183.12762831118505L62.88842351212452,-158.59317825228064A170.6070045455344,170.6070045455344,0,0,0,61.83666577156804,-159.00621612457604Z" fill-rule="evenodd" style="fill: #1DC690; stroke: #fff; opacity: 1;" id="p-type-logs"></path><path d="M72.61729648727257,-183.12762831118505A197,197,0,0,1,73.82857629136618,-182.64266019413407L63.93742259356062,-158.17318354288898A170.6070045455344,170.6070045455344,0,0,0,62.88842351212452,-158.59317825228064Z" fill-rule="evenodd" style="fill: #1DC690; stroke: #fff; opacity: 1;" id="p-type-logs"></path><path d="M73.82857629136618,-182.64266019413407A197,197,0,0,1,75.03661753637438,-182.14968028711957L64.9836170005571,-157.7462504198591A170.6070045455344,170.6070045455344,0,0,0,63.93742259356062,-158.17318354288898Z" fill-rule="evenodd" style="fill: #1DC690; stroke: #fff; opacity: 1;" id="p-type-logs"></path><path d="M75.03661753637438,-182.14968028711957A197,197,0,0,1,76.24136723044573,-181.64871021516316L66.02696084082443,-157.31239761100915A170.6070045455344,170.6070045455344,0,0,0,64.9836170005571,-157.7462504198591Z" fill-rule="evenodd" style="fill: #1DC690; stroke: #fff; opacity: 1;" id="p-type-logs"></path><path d="M76.24136723044573,-181.64871021516316A197,197,0,0,1,77.44277252611568,-181.13977195378243L67.06740834711576,-156.87164414769555A170.6070045455344,170.6070045455344,0,0,0,66.02696084082443,-157.31239761100915Z" fill-rule="evenodd" style="fill: #1DC690; stroke: #fff; opacity: 1;" id="p-type-logs"></path><path d="M77.44277252611568,-181.13977195378243A197,197,0,0,1,78.64078072262483,-180.62288782802705L68.10491387923467,-156.42400936397848A170.6070045455344,170.6070045455344,0,0,0,67.06740834711576,-156.87164414769555Z" fill-rule="evenodd" style="fill: #1DC690; stroke: #fff; opacity: 1;" id="p-type-logs"></path><path d="M78.64078072262483,-180.62288782802705A197,197,0,0,1,79.8353392682307,-180.09808051149935L69.13943192603715,-155.96951289577356A170.6070045455344,170.6070045455344,0,0,0,68.10491387923467,-156.42400936397848Z" fill-rule="evenodd" style="fill: #1DC690; stroke: #fff; opacity: 1;" id="p-type-logs"></path><path d="M79.8353392682307,-180.09808051149935A197,197,0,0,1,81.02639576251296,-179.56537302535983L70.17091710742801,-155.5081746799906A170.6070045455344,170.6070045455344,0,0,0,69.13943192603715,-155.96951289577356Z" fill-rule="evenodd" style="fill: #1DC690; stroke: #fff; opacity: 1;" id="p-type-logs"></path><path d="M81.02639576251296,-179.56537302535983A197,197,0,0,1,82.21389795867199,-179.02478873731724L71.19932417635155,-155.04001495365898A170.6070045455344,170.6070045455344,0,0,0,70.17091710742801,-155.5081746799906Z" fill-rule="evenodd" style="fill: #1DC690; stroke: #fff; opacity: 1;" id="p-type-logs"></path><path d="M82.21389795867199,-179.02478873731724A197,197,0,0,1,83.39779376582078,-178.4763513606036L72.22460802077627,-154.56505425304007A170.6070045455344,170.6070045455344,0,0,0,71.19932417635155,-155.04001495365898Z" fill-rule="evenodd" style="fill: #1DC690; stroke: #fff; opacity: 1;" id="p-type-logs"></path><path d="M83.39779376582078,-178.4763513606036A197,197,0,0,1,84.57803125126989,-177.92008495293388L73.24672366567388,-154.0833134127262A170.6070045455344,170.6070045455344,0,0,0,72.22460802077627,-154.56505425304007Z" fill-rule="evenodd" style="fill: #1DC690; stroke: #fff; opacity: 1;" id="p-type-logs"></path><path d="M84.57803125126989,-177.92008495293388A197,197,0,0,1,85.75455864280563,-177.3560139154509L74.26562627499206,-153.59481356472688A170.6070045455344,170.6070045455344,0,0,0,73.24672366567388,-154.0833134127262Z" fill-rule="evenodd" style="fill: #1DC690; stroke: #fff; opacity: 1;" id="p-type-logs"></path><path d="M85.75455864280563,-177.3560139154509A197,197,0,0,1,86.92732433096094,-176.78416299165468L75.28127115362132,-153.09957613754176A170.6070045455344,170.6070045455344,0,0,0,74.26562627499206,-153.59481356472688Z" fill-rule="evenodd" style="fill: #1DC690; stroke: #fff; opacity: 1;" id="p-type-logs"></path><path d="M86.92732433096094,-176.78416299165468A197,197,0,0,1,88.09627687127947,-176.20455726631724L76.2936137493555,-152.5976228552206A170.6070045455344,170.6070045455344,0,0,0,75.28127115362132,-153.09957613754176Z" fill-rule="evenodd" style="fill: #1DC690; stroke: #fff; opacity: 1;" id="p-type-logs"></path><path d="M88.09627687127947,-176.20455726631724A197,197,0,0,1,89.26136498657203,-175.61722216438218L77.3026096548462,-152.08897573641053A170.6070045455344,170.6070045455344,0,0,0,76.2936137493555,-152.5976228552206Z" fill-rule="evenodd" style="fill: #1DC690; stroke: #fff; opacity: 1;" id="p-type-logs"></path><path d="M89.26136498657203,-175.61722216438218A197,197,0,0,1,90.42253756916611,-175.02218344984942L78.30821460955065,-151.57365709338995A170.6070045455344,170.6070045455344,0,0,0,77.3026096548462,-152.08897573641053Z" fill-rule="evenodd" style="fill: #1DC690; stroke: #fff; opacity: 1;" id="p-type-logs"></path><path d="M90.42253756916611,-175.02218344984942A197,197,0,0,1,91.57974368314765,-174.41946722464493L79.31038450167334,-151.05168953108978A170.6070045455344,170.6070045455344,0,0,0,78.30821460955065,-151.57365709338995Z" fill-rule="evenodd" style="fill: #1DC690; stroke: #fff; opacity: 1;" id="p-type-logs"></path><path d="M91.57974368314765,-174.41946722464493A197,197,0,0,1,92.73293256659541,-173.80909992747578L80.30907537010091,-150.52309594610207A170.6070045455344,170.6070045455344,0,0,0,79.31038450167334,-151.05168953108978Z" fill-rule="evenodd" style="fill: #1DC690; stroke: #fff; opacity: 1;" id="p-type-logs"></path><path d="M92.73293256659541,-173.80909992747578A197,197,0,0,1,93.88205363380773,-173.19110833267064L81.30424340633066,-149.98789952567554A170.6070045455344,170.6070045455344,0,0,0,80.30907537010091,-150.52309594610207Z" fill-rule="evenodd" style="fill: #1DC690; stroke: #fff; opacity: 1;" id="p-type-logs"></path><path d="M93.88205363380773,-173.19110833267064A197,197,0,0,1,95.02705647752144,-172.5655195490048L82.29584495639216,-149.4461237466983A170.6070045455344,170.6070045455344,0,0,0,81.30424340633066,-149.98789952567554Z" fill-rule="evenodd" style="fill: #1DC690; stroke: #fff; opacity: 1;" id="p-type-logs"></path><path d="M95.02705647752144,-172.5655195490048A197,197,0,0,1,96.16789087112313,-171.93236101851144L83.28383652276224,-148.89779237466823A170.6070045455344,170.6070045455344,0,0,0,82.29584495639216,-149.4461237466983Z" fill-rule="evenodd" style="fill: #1DC690; stroke: #fff; opacity: 1;" id="p-type-logs"></path><path d="M96.16789087112313,-171.93236101851144A197,197,0,0,1,97.3045067708523,-171.29166051527773L84.268174766273,-148.34292946265037A170.6070045455344,170.6070045455344,0,0,0,83.28383652276224,-148.89779237466823Z" fill-rule="evenodd" style="fill: #1DC690; stroke: #fff; opacity: 1;" id="p-type-logs"></path><path d="M97.3045067708523,-171.29166051527773A197,197,0,0,1,98.43685431799656,-170.6434461442265L85.24881650801294,-147.78155935022184A170.6070045455344,170.6070045455344,0,0,0,84.268174766273,-148.34292946265037Z" fill-rule="evenodd" style="fill: #1DC690; stroke: #fff; opacity: 1;" id="p-type-logs"></path><path d="M98.43685431799656,-170.6434461442265A197,197,0,0,1,99.56488384107884,-169.98774633988322L86.22571873122104,-147.2137066624041A170.6070045455344,170.6070045455344,0,0,0,85.24881650801294,-147.78155935022184Z" fill-rule="evenodd" style="fill: #1DC690; stroke: #fff; opacity: 1;" id="p-type-logs"></path><path d="M99.56488384107884,-169.98774633988322A197,197,0,0,1,100.68854585803616,-169.324589865129L87.19883858317374,-146.6393963085828A170.6070045455344,170.6070045455344,0,0,0,86.22571873122104,-147.2137066624041Z" fill-rule="evenodd" style="fill: #1DC690; stroke: #fff; opacity: 1;" id="p-type-logs"></path><path d="M100.68854585803616,-169.324589865129A197,197,0,0,1,101.80779107839028,-168.65400580993872L88.1681333770647,-146.05865348141523A170.6070045455344,170.6070045455344,0,0,0,87.19883858317374,-146.6393963085828Z" fill-rule="evenodd" style="fill: #1DC690; stroke: #fff; opacity: 1;" id="p-type-logs"></path><path d="M101.80779107839028,-168.65400580993872A197,197,0,0,1,102.92257040540983,-167.97602359010483L89.13356059387736,-145.47150365572494A170.6070045455344,170.6070045455344,0,0,0,88.1681333770647,-146.05865348141523Z" fill-rule="evenodd" style="fill: #1DC690; stroke: #fff; opacity: 1;" id="p-type-logs"></path><path d="M102.92257040540983,-167.97602359010483A197,197,0,0,1,104.03283493826403,-167.29067294594734L90.09507788424996,-144.8779725873845A170.6070045455344,170.6070045455344,0,0,0,89.13356059387736,-145.47150365572494Z" fill-rule="evenodd" style="fill: #1DC690; stroke: #fff; opacity: 1;" id="p-type-logs"></path><path d="M104.03283493826403,-167.29067294594734A197,197,0,0,1,105.13853597416765,-166.59798394100886L91.05264307033327,-144.27808631218562A170.6070045455344,170.6070045455344,0,0,0,90.09507788424996,-144.8779725873845Z" fill-rule="evenodd" style="fill: #1DC690; stroke: #fff; opacity: 1;" id="p-type-logs"></path><path d="M105.13853597416765,-166.59798394100886A197,197,0,0,1,106.23962501051766,-165.89798696073618L92.0062141476409,-143.6718711446971A170.6070045455344,170.6070045455344,0,0,0,91.05264307033327,-144.27808631218562Z" fill-rule="evenodd" style="fill: #1DC690; stroke: #fff; opacity: 1;" id="p-type-logs"></path><path d="M106.23962501051766,-165.89798696073618A197,197,0,0,1,107.33605374702049,-165.19071271114709L92.95574928689162,-143.05935367711035A170.6070045455344,170.6070045455344,0,0,0,92.0062141476409,-143.6718711446971Z" fill-rule="evenodd" style="fill: #1DC690; stroke: #fff; opacity: 1;" id="p-type-logs"></path><path d="M107.33605374702049,-165.19071271114709A197,197,0,0,1,108.42777408781106,-164.4761922174836L93.90120683584446,-142.44056077807318A170.6070045455344,170.6070045455344,0,0,0,92.95574928689162,-143.05935367711035Z" fill-rule="evenodd" style="fill: #1DC690; stroke: #fff; opacity: 1;" id="p-type-logs"></path><path d="M108.42777408781106,-164.4761922174836A197,197,0,0,1,109.51473814356243,-163.75445682285093L94.84254532112571,-141.8155195915109A170.6070045455344,170.6070045455344,0,0,0,93.90120683584446,-142.44056077807318Z" fill-rule="evenodd" style="fill: #1DC690; stroke: #fff; opacity: 1;" id="p-type-logs"></path><path d="M109.51473814356243,-163.75445682285093A197,197,0,0,1,110.59689823358651,-163.0255381868427L95.77972345004822,-141.18425753543588A170.6070045455344,170.6070045455344,0,0,0,94.84254532112571,-141.8155195915109Z" fill-rule="evenodd" style="fill: #1DC690; stroke: #fff; opacity: 1;" id="p-type-logs"></path><path d="M110.59689823358651,-163.0255381868427A197,197,0,0,1,111.67420688792564,-162.289468284152L96.71270011242274,-140.5468023007446A170.6070045455344,170.6070045455344,0,0,0,95.77972345004822,-141.18425753543588Z" fill-rule="evenodd" style="fill: #1DC690; stroke: #fff; opacity: 1;" id="p-type-logs"></path><path d="M111.67420688792564,-162.289468284152A197,197,0,0,1,112.74661684943484,-161.54627940316897L97.6414343823612,-139.90318185000314A170.6070045455344,170.6070045455344,0,0,0,96.71270011242274,-140.5468023007446Z" fill-rule="evenodd" style="fill: #1DC690; stroke: #fff; opacity: 1;" id="p-type-logs"></path><path d="M112.74661684943484,-161.54627940316897A197,197,0,0,1,113.81408107585492,-160.79600414456425L98.56588552007209,-139.25342441622053A170.6070045455344,170.6070045455344,0,0,0,97.6414343823612,-139.90318185000314Z" fill-rule="evenodd" style="fill: #1DC690; stroke: #fff; opacity: 1;" id="p-type-logs"></path><path d="M113.81408107585492,-160.79600414456425A197,197,0,0,1,114.87655274187591,-160.03867541985906L99.48601297364745,-138.59755850161017A170.6070045455344,170.6070045455344,0,0,0,98.56588552007209,-139.25342441622053Z" fill-rule="evenodd" style="fill: #1DC690; stroke: #fff; opacity: 1;" id="p-type-logs"></path><path d="M114.87655274187591,-160.03867541985906A197,197,0,0,1,115.93398524119118,-159.27432644998146L100.40177638084174,-137.9356128763397A170.6070045455344,170.6070045455344,0,0,0,99.48601297364745,-138.59755850161017Z" fill-rule="evenodd" style="fill: #1DC690; stroke: #fff; opacity: 1;" id="p-type-logs"></path><path d="M115.93398524119118,-159.27432644998146A197,197,0,0,1,116.98633218854174,-158.50299076380912L101.31313557084233,-137.26761657726894A170.6070045455344,170.6070045455344,0,0,0,100.40177638084174,-137.9356128763397Z" fill-rule="evenodd" style="fill: #1DC690; stroke: #fff; opacity: 1;" id="p-type-logs"></path><path d="M116.98633218854174,-158.50299076380912A197,197,0,0,1,118.03354742175117,-157.72470219669847L102.22005056603173,-136.59359890667614A170.6070045455344,170.6070045455344,0,0,0,101.31313557084233,-137.26761657726894Z" fill-rule="evenodd" style="fill: #1DC690; stroke: #fff; opacity: 1;" id="p-type-logs"></path><path d="M118.03354742175117,-157.72470219669847A197,197,0,0,1,119.07558500375038,-156.9394948890005L103.12248158374116,-135.9135894309725A170.6070045455344,170.6070045455344,0,0,0,102.22005056603173,-136.59359890667614Z" fill-rule="evenodd" style="fill: #1DC690; stroke: #fff; opacity: 1;" id="p-type-logs"></path><path d="M119.07558500375038,-156.9394948890005A197,197,0,0,1,120.11239922459278,-156.14740328456327L104.02038903799566,-135.2276179794055A170.6070045455344,170.6070045455344,0,0,0,103.12248158374116,-135.9135894309725Z" fill-rule="evenodd" style="fill: #1DC690; stroke: #fff; opacity: 1;" id="p-type-logs"></path><path d="M120.11239922459278,-156.14740328456327A197,197,0,0,1,121.1439446034594,-155.34846212922082L104.9137335412506,-134.53571464275004A170.6070045455344,170.6070045455344,0,0,0,104.02038903799566,-135.2276179794055Z" fill-rule="evenodd" style="fill: #1DC690; stroke: #fff; opacity: 1;" id="p-type-logs"></path><path d="M121.1439446034594,-155.34846212922082A197,197,0,0,1,122.17017589065391,-154.54270646926915L105.80247590611944,-133.8379097719888A170.6070045455344,170.6070045455344,0,0,0,104.9137335412506,-134.53571464275004Z" fill-rule="evenodd" style="fill: #1DC690; stroke: #fff; opacity: 1;" id="p-type-logs"></path><path d="M122.17017589065391,-154.54270646926915A197,197,0,0,1,123.1910480695875,-153.73017164992882L106.6865771470927,-133.13423397698065A170.6070045455344,170.6070045455344,0,0,0,105.80247590611944,-133.8379097719888Z" fill-rule="evenodd" style="fill: #1DC690; stroke: #fff; opacity: 1;" id="p-type-logs"></path><path d="M123.1910480695875,-153.73017164992882A197,197,0,0,1,124.20651635875366,-152.91089331379453L107.56599848224812,-132.42471812511812A170.6070045455344,170.6070045455344,0,0,0,106.6865771470927,-133.13423397698065Z" fill-rule="evenodd" style="fill: #1DC690; stroke: #fff; opacity: 1;" id="p-type-logs"></path><path d="M124.20651635875366,-152.91089331379453A197,197,0,0,1,125.21653621369255,-152.08490739927163L108.44070133495187,-131.70939333997316A170.6070045455344,170.6070045455344,0,0,0,107.56599848224812,-132.42471812511812Z" fill-rule="evenodd" style="fill: #1DC690; stroke: #fff; opacity: 1;" id="p-type-logs"></path><path d="M125.21653621369255,-152.08490739927163A197,197,0,0,1,126.2210633289449,-151.25225013899953L109.3106473355507,-130.98829099993196A170.6070045455344,170.6070045455344,0,0,0,108.44070133495187,-131.70939333997316Z" fill-rule="evenodd" style="fill: #1DC690; stroke: #fff; opacity: 1;" id="p-type-logs"></path><path d="M126.2210633289449,-151.25225013899953A197,197,0,0,1,127.22005363999561,-150.41295805826255L110.17579832305513,-130.26144273681865A170.6070045455344,170.6070045455344,0,0,0,109.3106473355507,-130.98829099993196Z" fill-rule="evenodd" style="fill: #1DC690; stroke: #fff; opacity: 1;" id="p-type-logs"></path><path d="M127.22005363999561,-150.41295805826255A197,197,0,0,1,128.2134633252066,-149.56706797338745L111.03611634681336,-129.52888043450744A170.6070045455344,170.6070045455344,0,0,0,110.17579832305513,-130.26144273681865Z" fill-rule="evenodd" style="fill: #1DC690; stroke: #fff; opacity: 1;" id="p-type-logs"></path><path d="M128.2134633252066,-149.56706797338745A197,197,0,0,1,129.2012488077392,-148.7146169901287L111.89156366817606,-128.79063622752432A170.6070045455344,170.6070045455344,0,0,0,111.03611634681336,-129.52888043450744Z" fill-rule="evenodd" style="fill: #1DC690; stroke: #fff; opacity: 1;" id="p-type-logs"></path><path d="M129.2012488077392,-148.7146169901287A197,197,0,0,1,130.1833667574656,-147.8556425020405L112.74210276215179,-128.04674249963725A170.6070045455344,170.6070045455344,0,0,0,111.89156366817606,-128.79063622752432Z" fill-rule="evenodd" style="fill: #1DC690; stroke: #fff; opacity: 1;" id="p-type-logs"></path><path d="M130.1833667574656,-147.8556425020405A197,197,0,0,1,131.15977409286944,-146.99018218883688L113.58769631905302,-127.29723188243565A170.6070045455344,170.6070045455344,0,0,0,112.74210276215179,-128.04674249963725Z" fill-rule="evenodd" style="fill: #1DC690; stroke: #fff; opacity: 1;" id="p-type-logs"></path><path d="M131.15977409286944,-146.99018218883688A197,197,0,0,1,132.13042798293594,-146.11827401473838L114.4283072461328,-126.54213725389906A170.6070045455344,170.6070045455344,0,0,0,113.58769631905302,-127.29723188243565Z" fill-rule="evenodd" style="fill: #1DC690; stroke: #fff; opacity: 1;" id="p-type-logs"></path><path d="M132.13042798293594,-146.11827401473838A197,197,0,0,1,133.09528584903052,-145.23995622680715L115.26389866921194,-125.78149173695485A170.6070045455344,170.6070045455344,0,0,0,114.4283072461328,-126.54213725389906Z" fill-rule="evenodd" style="fill: #1DC690; stroke: #fff; opacity: 1;" id="p-type-logs"></path><path d="M133.09528584903052,-145.23995622680715A197,197,0,0,1,134.0543053667665,-144.35526735326883L116.09443393429639,-125.01532869802523A170.6070045455344,170.6070045455344,0,0,0,115.26389866921194,-125.78149173695485Z" fill-rule="evenodd" style="fill: #1DC690; stroke: #fff; opacity: 1;" id="p-type-logs"></path><path d="M134.0543053667665,-144.35526735326883A197,197,0,0,1,135.0074444678618,-143.46424620182276L116.9198766091852,-124.24368174556366A170.6070045455344,170.6070045455344,0,0,0,116.09443393429639,-125.01532869802523Z" fill-rule="evenodd" style="fill: #1DC690; stroke: #fff; opacity: 1;" id="p-type-logs"></path><path d="M135.0074444678618,-143.46424620182276A197,197,0,0,1,135.9546613419843,-142.5669318579395L117.74019048506855,-123.46658472858059A170.6070045455344,170.6070045455344,0,0,0,116.9198766091852,-124.24368174556366Z" fill-rule="evenodd" style="fill: #1DC690; stroke: #fff; opacity: 1;" id="p-type-logs"></path><path d="M135.9546613419843,-142.5669318579395A197,197,0,0,1,136.89591443858583,-141.66336368314634L118.55533957811626,-122.6840717351586A170.6070045455344,170.6070045455344,0,0,0,117.74019048506855,-123.46658472858059Z" fill-rule="evenodd" style="fill: #1DC690; stroke: #fff; opacity: 1;" id="p-type-logs"></path><path d="M136.89591443858583,-141.66336368314634A197,197,0,0,1,137.83116246872493,-140.75358131330069L119.36528813105608,-121.89617709095704A170.6070045455344,170.6070045455344,0,0,0,118.55533957811626,-122.6840717351586Z" fill-rule="evenodd" style="fill: #1DC690; stroke: #fff; opacity: 1;" id="p-type-logs"></path><path d="M137.83116246872493,-140.75358131330069A197,197,0,0,1,138.7603644068779,-139.83762465685137L120.17000061474228,-121.10293535770649A170.6070045455344,170.6070045455344,0,0,0,119.36528813105608,-121.89617709095704Z" fill-rule="evenodd" style="fill: #1DC690; stroke: #fff; opacity: 1;" id="p-type-logs"></path><path d="M138.7603644068779,-139.83762465685137A197,197,0,0,1,139.68347949273848,-138.91553389308805L120.9694417297142,-120.30438133169247A170.6070045455344,170.6070045455344,0,0,0,120.17000061474228,-121.10293535770649Z" fill-rule="evenodd" style="fill: #1DC690; stroke: #fff; opacity: 1;" id="p-type-logs"></path><path d="M139.68347949273848,-138.91553389308805A197,197,0,0,1,140.60046723300593,-137.98734947037872L121.7635764077447,-119.50055004222918A170.6070045455344,170.6070045455344,0,0,0,120.9694417297142,-120.30438133169247Z" fill-rule="evenodd" style="fill: #1DC690; stroke: #fff; opacity: 1;" id="p-type-logs"></path><path d="M140.60046723300593,-137.98734947037872A197,197,0,0,1,141.51128740316105,-137.05311210439532L122.55236981337829,-118.6914767501229A170.6070045455344,170.6070045455344,0,0,0,121.7635764077447,-119.50055004222918Z" fill-rule="evenodd" style="fill: #1DC690; stroke: #fff; opacity: 1;" id="p-type-logs"></path><path d="M141.51128740316105,-137.05311210439532A197,197,0,0,1,142.415900049231,-136.11286277632783L123.33578734545952,-117.8771969461252A170.6070045455344,170.6070045455344,0,0,0,122.55236981337829,-118.6914767501229Z" fill-rule="evenodd" style="fill: #1DC690; stroke: #fff; opacity: 1;" id="p-type-logs"></path><path d="M196.79833360982946,8.911559257182615A197,197,0,0,1,196.73499509466362,10.21477875936082L170.3775035653856,8.846257899644161A170.6070045455344,170.6070045455344,0,0,0,170.4323563285572,7.717636704050526Z" fill-rule="evenodd" style="fill: #D7A449; stroke: #fff; opacity: 1;" id="p-type-tokenTransfers"></path><path d="M196.73499509466362,10.21477875936082A197,197,0,0,1,196.66302661617212,11.51755018077927L170.31517703474026,9.974491045916901A170.6070045455344,170.6070045455344,0,0,0,170.3775035653856,8.846257899644161Z" fill-rule="evenodd" style="fill: #D7A449; stroke: #fff; opacity: 1;" id="p-type-tokenTransfers"></path><path d="M196.66302661617212,11.51755018077927A197,197,0,0,1,196.58243133131924,12.819816374159295L170.2453794706324,11.102286651873662A170.6070045455344,170.6070045455344,0,0,0,170.31517703474026,9.974491045916901Z" fill-rule="evenodd" style="fill: #D7A449; stroke: #fff; opacity: 1;" id="p-type-tokenTransfers"></path><path d="M196.58243133131924,12.819816374159295A197,197,0,0,1,196.49321277549188,14.121520214384525L170.16811393479696,12.22959524571247A170.6070045455344,170.6070045455344,0,0,0,170.2453794706324,11.102286651873662Z" fill-rule="evenodd" style="fill: #D7A449; stroke: #fff; opacity: 1;" id="p-type-tokenTransfers"></path><path d="M196.49321277549188,14.121520214384525A197,197,0,0,1,196.39537486234497,15.42260460100673L170.0833838165585,13.356367376994594A170.6070045455344,170.6070045455344,0,0,0,170.16811393479696,12.22959524571247Z" fill-rule="evenodd" style="fill: #D7A449; stroke: #fff; opacity: 1;" id="p-type-tokenTransfers"></path><path d="M196.39537486234497,15.42260460100673A197,197,0,0,1,196.28892188362946,16.723012460750592L169.99119283268232,14.48255361881373A170.6070045455344,170.6070045455344,0,0,0,170.0833838165585,13.356367376994594Z" fill-rule="evenodd" style="fill: #D7A449; stroke: #fff; opacity: 1;" id="p-type-tokenTransfers"></path><path d="M196.28892188362946,16.723012460750592A197,197,0,0,1,196.17385850900408,18.02268675001727L169.8915450272116,15.608104569964159A170.6070045455344,170.6070045455344,0,0,0,169.99119283268232,14.48255361881373Z" fill-rule="evenodd" style="fill: #D7A449; stroke: #fff; opacity: 1;" id="p-type-tokenTransfers"></path><path d="M196.17385850900408,18.02268675001727A197,197,0,0,1,196.05018978583072,19.32157045738668L169.78444477128988,16.73297085710778A170.6070045455344,170.6070045455344,0,0,0,169.8915450272116,15.608104569964159Z" fill-rule="evenodd" style="fill: #D7A449; stroke: #fff; opacity: 1;" id="p-type-tokenTransfers"></path><path d="M196.05018978583072,19.32157045738668A197,197,0,0,1,195.91792113895278,20.619606606118335L169.6698967629694,17.85710313693991A170.6070045455344,170.6070045455344,0,0,0,169.78444477128988,16.73297085710778Z" fill-rule="evenodd" style="fill: #D7A449; stroke: #fff; opacity: 1;" id="p-type-tokenTransfers"></path><path d="M195.91792113895278,20.619606606118335A197,197,0,0,1,195.77705837045735,21.916738256650703L169.54790602700493,18.980452098353776A170.6070045455344,170.6070045455344,0,0,0,169.6698967629694,17.85710313693991Z" fill-rule="evenodd" style="fill: #D7A449; stroke: #fff; opacity: 1;" id="p-type-tokenTransfers"></path><path d="M195.77705837045735,21.916738256650703A197,197,0,0,1,195.62760765942062,23.212908509098902L169.41847791463348,20.10296846460361A170.6070045455344,170.6070045455344,0,0,0,169.54790602700493,18.980452098353776Z" fill-rule="evenodd" style="fill: #D7A449; stroke: #fff; opacity: 1;" id="p-type-tokenTransfers"></path><path d="M195.62760765942062,23.212908509098902A197,197,0,0,1,195.46957556163687,24.508060505750684L169.2816181033394,21.22460299546619A170.6070045455344,170.6070045455344,0,0,0,169.41847791463348,20.10296846460361Z" fill-rule="evenodd" style="fill: #D7A449; stroke: #fff; opacity: 1;" id="p-type-tokenTransfers"></path><path d="M195.46957556163687,24.508060505750684A197,197,0,0,1,195.30296900933087,25.802137433560514L169.1373325966055,22.345306489400823A170.6070045455344,170.6070045455344,0,0,0,169.2816181033394,21.22460299546619Z" fill-rule="evenodd" style="fill: #D7A449; stroke: #fff; opacity: 1;" id="p-type-tokenTransfers"></path><path d="M195.30296900933087,25.802137433560514A197,197,0,0,1,195.12779531085383,27.095082526641775L168.9856277236495,23.46502978570763A170.6070045455344,170.6070045455344,0,0,0,169.1373325966055,22.345306489400823Z" fill-rule="evenodd" style="fill: #D7A449; stroke: #fff; opacity: 1;" id="p-type-tokenTransfers"></path><path d="M195.12779531085383,27.095082526641775A197,197,0,0,1,194.94406215036275,28.386839068756807L168.82651013914662,24.583723766683992A170.6070045455344,170.6070045455344,0,0,0,168.9856277236495,23.46502978570763Z" fill-rule="evenodd" style="fill: #D7A449; stroke: #fff; opacity: 1;" id="p-type-tokenTransfers"></path><path d="M194.94406215036275,28.386839068756807A197,197,0,0,1,194.75177758748345,29.677350395804865L168.65998682293753,25.701339359779176A170.6070045455344,170.6070045455344,0,0,0,168.82651013914662,24.583723766683992Z" fill-rule="evenodd" style="fill: #D7A449; stroke: #fff; opacity: 1;" id="p-type-tokenTransfers"></path><path d="M194.75177758748345,29.677350395804865A197,197,0,0,1,194.55095005695685,30.9665598983077L168.4860650797222,26.81782753974693A170.6070045455344,170.6070045455344,0,0,0,168.65998682293753,25.701339359779176Z" fill-rule="evenodd" style="fill: #D7A449; stroke: #fff; opacity: 1;" id="p-type-tokenTransfers"></path><path d="M194.55095005695685,30.9665598983077A197,197,0,0,1,194.34158836826919,32.25441102389282L168.30475253873948,27.93313933079603A170.6070045455344,170.6070045455344,0,0,0,168.4860650797222,26.81782753974693Z" fill-rule="evenodd" style="fill: #D7A449; stroke: #fff; opacity: 1;" id="p-type-tokenTransfers"></path><path d="M194.34158836826919,32.25441102389282A197,197,0,0,1,194.1237017052654,33.540847279774205L168.1160571534324,29.047225808738645A170.6070045455344,170.6070045455344,0,0,0,168.30475253873948,27.93313933079603Z" fill-rule="evenodd" style="fill: #D7A449; stroke: #fff; opacity: 1;" id="p-type-tokenTransfers"></path><path d="M194.1237017052654,33.540847279774205A197,197,0,0,1,193.8972996257464,34.82581223523038L167.9199872010993,30.160038103136433A170.6070045455344,170.6070045455344,0,0,0,168.1160571534324,29.047225808738645Z" fill-rule="evenodd" style="fill: #D7A449; stroke: #fff; opacity: 1;" id="p-type-tokenTransfers"></path><path d="M193.8972996257464,34.82581223523038A197,197,0,0,1,193.66239206104973,36.109249524079864L167.71655128253084,31.27152739944431A170.6070045455344,170.6070045455344,0,0,0,167.9199872010993,30.160038103136433Z" fill-rule="evenodd" style="fill: #D7A449; stroke: #fff; opacity: 1;" id="p-type-tokenTransfers"></path><path d="M193.66239206104973,36.109249524079864A197,197,0,0,1,193.4189893156139,37.39110284715366L167.50575832163256,32.38164494115172A170.6070045455344,170.6070045455344,0,0,0,167.71655128253084,31.27152739944431Z" fill-rule="evenodd" style="fill: #D7A449; stroke: #fff; opacity: 1;" id="p-type-tokenTransfers"></path><path d="M193.4189893156139,37.39110284715366A197,197,0,0,1,193.16710206652658,38.67131597476492L167.28761756503354,33.49034203192141A170.6070045455344,170.6070045455344,0,0,0,167.50575832163256,32.38164494115172Z" fill-rule="evenodd" style="fill: #D7A449; stroke: #fff; opacity: 1;" id="p-type-tokenTransfers"></path><path d="M193.16710206652658,38.67131597476492A197,197,0,0,1,192.9067413630558,39.949832749175506L167.06213858168067,34.597570037725504A170.6070045455344,170.6070045455344,0,0,0,167.28761756503354,33.49034203192141Z" fill-rule="evenodd" style="fill: #D7A449; stroke: #fff; opacity: 1;" id="p-type-tokenTransfers"></path><path d="M192.9067413630558,39.949832749175506A197,197,0,0,1,192.6379186261658,41.22659708705935L166.82933126241906,35.70328038897894A170.6070045455344,170.6070045455344,0,0,0,167.06213858168067,34.597570037725504Z" fill-rule="evenodd" style="fill: #D7A449; stroke: #fff; opacity: 1;" id="p-type-tokenTransfers"></path><path d="M192.6379186261658,41.22659708705935A197,197,0,0,1,192.36064564801558,42.50155298196269L166.589205819558,36.807424582669945A170.6070045455344,170.6070045455344,0,0,0,166.82933126241906,35.70328038897894Z" fill-rule="evenodd" style="fill: #D7A449; stroke: #fff; opacity: 1;" id="p-type-tokenTransfers"></path><path d="M192.36064564801558,42.50155298196269A197,197,0,0,1,192.074934591442,43.77464450676074L166.3417727864232,37.909954184487724A170.6070045455344,170.6070045455344,0,0,0,166.589205819558,36.807424582669945Z" fill-rule="evenodd" style="fill: #D7A449; stroke: #fff; opacity: 1;" id="p-type-tokenTransfers"></path><path d="M192.074934591442,43.77464450676074A197,197,0,0,1,191.78079798942593,45.04581581611108L166.08704301689443,39.01082083094705A170.6070045455344,170.6070045455344,0,0,0,166.3417727864232,37.909954184487724Z" fill-rule="evenodd" style="fill: #D7A449; stroke: #fff; opacity: 1;" id="p-type-tokenTransfers"></path><path d="M191.78079798942593,45.04581581611108A197,197,0,0,1,191.47824874454267,46.31501114890332L165.82502768492975,40.10997623150977A170.6070045455344,170.6070045455344,0,0,0,166.08704301689443,39.01082083094705Z" fill-rule="evenodd" style="fill: #D7A449; stroke: #fff; opacity: 1;" id="p-type-tokenTransfers"></path><path d="M191.47824874454267,46.31501114890332A197,197,0,0,1,191.16730012839594,47.5821748307051L165.55573828407506,41.20737217070314A170.6070045455344,170.6070045455344,0,0,0,165.82502768492975,40.10997623150977Z" fill-rule="evenodd" style="fill: #D7A449; stroke: #fff; opacity: 1;" id="p-type-tokenTransfers"></path><path d="M191.16730012839594,47.5821748307051A197,197,0,0,1,190.84796578103567,48.84725127620434L165.27918662696013,42.3029605102348A170.6070045455344,170.6070045455344,0,0,0,165.55573828407506,41.20737217070314Z" fill-rule="evenodd" style="fill: #D7A449; stroke: #fff; opacity: 1;" id="p-type-tokenTransfers"></path><path d="M190.84796578103567,48.84725127620434A197,197,0,0,1,190.52025971035957,50.11018499164751L164.99538484478026,43.39669319110445A170.6070045455344,170.6070045455344,0,0,0,165.27918662696013,42.3029605102348Z" fill-rule="evenodd" style="fill: #D7A449; stroke: #fff; opacity: 1;" id="p-type-tokenTransfers"></path><path d="M190.52025971035957,50.11018499164751A197,197,0,0,1,190.184196291499,51.37092057727391L164.70434538676434,44.48852223571196A170.6070045455344,170.6070045455344,0,0,0,164.99538484478026,43.39669319110445Z" fill-rule="evenodd" style="fill: #D7A449; stroke: #fff; opacity: 1;" id="p-type-tokenTransfers"></path><path d="M190.184196291499,51.37092057727391A197,197,0,0,1,189.83979026618792,52.62940272974587L164.40608101962854,45.578399749962A170.6070045455344,170.6070045455344,0,0,0,164.70434538676434,44.48852223571196Z" fill-rule="evenodd" style="fill: #D7A449; stroke: #fff; opacity: 1;" id="p-type-tokenTransfers"></path><path d="M189.83979026618792,52.62940272974587A197,197,0,0,1,189.48705674211664,53.885576244574644L164.10060482701638,46.66627792536491A170.6070045455344,170.6070045455344,0,0,0,164.40608101962854,45.578399749962Z" fill-rule="evenodd" style="fill: #D7A449; stroke: #fff; opacity: 1;" id="p-type-tokenTransfers"></path><path d="M189.48705674211664,53.885576244574644A197,197,0,0,1,189.1260111922689,55.139386018542034L163.7879302089249,47.75210904113389A170.6070045455344,170.6070045455344,0,0,0,164.10060482701638,46.66627792536491Z" fill-rule="evenodd" style="fill: #D7A449; stroke: #fff; opacity: 1;" id="p-type-tokenTransfers"></path><path d="M189.1260111922689,55.139386018542034A197,197,0,0,1,188.75666945424308,56.390777052117514L163.46807088111666,48.83584546627832A170.6070045455344,170.6070045455344,0,0,0,163.7879302089249,47.75210904113389Z" fill-rule="evenodd" style="fill: #D7A449; stroke: #fff; opacity: 1;" id="p-type-tokenTransfers"></path><path d="M188.75666945424308,56.390777052117514A197,197,0,0,1,188.37904772955767,57.63969445187085L163.1410408745182,49.91743966169312A170.6070045455344,170.6070045455344,0,0,0,163.46807088111666,48.83584546627832Z" fill-rule="evenodd" style="fill: #D7A449; stroke: #fff; opacity: 1;" id="p-type-tokenTransfers"></path><path d="M188.37904772955767,57.63969445187085A197,197,0,0,1,187.99316258294047,58.886083432880085L162.80685453460464,50.99684418224412A170.6070045455344,170.6070045455344,0,0,0,163.1410408745182,49.91743966169312Z" fill-rule="evenodd" style="fill: #D7A449; stroke: #fff; opacity: 1;" id="p-type-tokenTransfers"></path><path d="M187.99316258294047,58.886083432880085A197,197,0,0,1,187.59903094160188,60.12988932113468L162.46552652077017,52.07401167884926A170.6070045455344,170.6070045455344,0,0,0,162.80685453460464,50.99684418224412Z" fill-rule="evenodd" style="fill: #D7A449; stroke: #fff; opacity: 1;" id="p-type-tokenTransfers"></path><path d="M187.59903094160188,60.12988932113468A197,197,0,0,1,187.19667009449248,61.37105755593382L162.1170718056852,53.14889490055561A170.6070045455344,170.6070045455344,0,0,0,162.46552652077017,52.07401167884926Z" fill-rule="evenodd" style="fill: #D7A449; stroke: #fff; opacity: 1;" id="p-type-tokenTransfers"></path><path d="M187.19667009449248,61.37105755593382A197,197,0,0,1,186.78609769154468,62.60953369227989L161.76150567463958,54.221446696612105A170.6070045455344,170.6070045455344,0,0,0,162.1170718056852,53.14889490055561Z" fill-rule="evenodd" style="fill: #D7A449; stroke: #fff; opacity: 1;" id="p-type-tokenTransfers"></path><path d="M186.78609769154468,62.60953369227989A197,197,0,0,1,186.3673317428983,63.84526340326661L161.39884372487194,55.291620018537806A170.6070045455344,170.6070045455344,0,0,0,161.76150567463958,54.221446696612105Z" fill-rule="evenodd" style="fill: #D7A449; stroke: #fff; opacity: 1;" id="p-type-tokenTransfers"></path><path d="M186.3673317428983,63.84526340326661A197,197,0,0,1,185.9403906181107,65.07819248246223L161.02910186488558,56.35936792218577A170.6070045455344,170.6070045455344,0,0,0,161.39884372487194,55.291620018537806Z" fill-rule="evenodd" style="fill: #D7A449; stroke: #fff; opacity: 1;" id="p-type-tokenTransfers"></path><path d="M185.9403906181107,65.07819248246223A197,197,0,0,1,185.505293045351,66.3082668462873L160.65229631375072,57.42464356980226A170.6070045455344,170.6070045455344,0,0,0,161.02910186488558,56.35936792218577Z" fill-rule="evenodd" style="fill: #D7A449; stroke: #fff; opacity: 1;" id="p-type-tokenTransfers"></path><path d="M185.505293045351,66.3082668462873A197,197,0,0,1,185.06205811057842,67.5354325363871L160.2684436003929,58.487400232081356A170.6070045455344,170.6070045455344,0,0,0,160.65229631375072,57.42464356980226Z" fill-rule="evenodd" style="fill: #D7A449; stroke: #fff; opacity: 1;" id="p-type-tokenTransfers"></path><path d="M185.06205811057842,67.5354325363871A197,197,0,0,1,184.6107052567051,68.75963572199865L159.87756056286804,59.54759129021478A170.6070045455344,170.6070045455344,0,0,0,160.2684436003929,58.487400232081356Z" fill-rule="evenodd" style="fill: #D7A449; stroke: #fff; opacity: 1;" id="p-type-tokenTransfers"></path><path d="M184.6107052567051,68.75963572199865A197,197,0,0,1,184.15125428274334,69.98082270231188L159.4796643476236,60.60517023793686A170.6070045455344,170.6070045455344,0,0,0,159.87756056286804,59.54759129021478Z" fill-rule="evenodd" style="fill: #D7A449; stroke: #fff; opacity: 1;" id="p-type-tokenTransfers"></path><path d="M184.15125428274334,69.98082270231188A197,197,0,0,1,183.68372534293684,71.19893990882548L159.0747724087468,61.66009068356457A170.6070045455344,170.6070045455344,0,0,0,159.4796643476236,60.60517023793686Z" fill-rule="evenodd" style="fill: #D7A449; stroke: #fff; opacity: 1;" id="p-type-tokenTransfers"></path><path d="M183.68372534293684,71.19893990882548A197,197,0,0,1,183.20813894587698,72.41393390769652L158.66290250719865,62.71230635203253A170.6070045455344,170.6070045455344,0,0,0,159.0747724087468,61.66009068356457Z" fill-rule="evenodd" style="fill: #D7A449; stroke: #fff; opacity: 1;" id="p-type-tokenTransfers"></path><path d="M183.20813894587698,72.41393390769652A197,197,0,0,1,182.7245159536028,73.62575140208452L158.24407271003497,63.76177108692294A170.6070045455344,170.6070045455344,0,0,0,158.66290250719865,62.71230635203253Z" fill-rule="evenodd" style="fill: #D7A449; stroke: #fff; opacity: 1;" id="p-type-tokenTransfers"></path><path d="M182.7245159536028,73.62575140208452A197,197,0,0,1,182.23287758068625,74.83433923448932L157.81830138961396,64.80843885249027A170.6070045455344,170.6070045455344,0,0,0,158.24407271003497,63.76177108692294Z" fill-rule="evenodd" style="fill: #D7A449; stroke: #fff; opacity: 1;" id="p-type-tokenTransfers"></path><path d="M182.23287758068625,74.83433923448932A197,197,0,0,1,181.73324539330116,76.0396443890829L157.3856072227901,65.85226373568064A170.6070045455344,170.6070045455344,0,0,0,157.81830138961396,64.80843885249027Z" fill-rule="evenodd" style="fill: #D7A449; stroke: #fff; opacity: 1;" id="p-type-tokenTransfers"></path><path d="M181.73324539330116,76.0396443890829A197,197,0,0,1,181.22564130827766,77.2416139940349L156.946009190095,66.89319994814582A170.6070045455344,170.6070045455344,0,0,0,157.3856072227901,65.85226373568064Z" fill-rule="evenodd" style="fill: #D7A449; stroke: #fff; opacity: 1;" id="p-type-tokenTransfers"></path><path d="M181.22564130827766,77.2416139940349A197,197,0,0,1,180.7100875921405,78.440195323832L156.49952657490473,67.93120182825184A170.6070045455344,170.6070045455344,0,0,0,156.946009190095,66.89319994814582Z" fill-rule="evenodd" style="fill: #D7A449; stroke: #fff; opacity: 1;" id="p-type-tokenTransfers"></path><path d="M180.7100875921405,78.440195323832A197,197,0,0,1,180.18660686013234,79.63533580159067L156.046178962594,68.96622384308192A170.6070045455344,170.6070045455344,0,0,0,156.49952657490473,67.93120182825184Z" fill-rule="evenodd" style="fill: #D7A449; stroke: #fff; opacity: 1;" id="p-type-tokenTransfers"></path><path d="M180.18660686013234,79.63533580159067A197,197,0,0,1,179.65522207522184,80.8269830013636L155.585986239677,69.99822059043387A170.6070045455344,170.6070045455344,0,0,0,156.046178962594,68.96622384308192Z" fill-rule="evenodd" style="fill: #D7A449; stroke: #fff; opacity: 1;" id="p-type-tokenTransfers"></path><path d="M179.65522207522184,80.8269830013636A197,197,0,0,1,179.11595654709626,82.01508465043932L155.118968592935,71.02714680081164A170.6070045455344,170.6070045455344,0,0,0,155.585986239677,69.99822059043387Z" fill-rule="evenodd" style="fill: #D7A449; stroke: #fff; opacity: 1;" id="p-type-tokenTransfers"></path><path d="M179.11595654709626,82.01508465043932A197,197,0,0,1,178.56883393113893,83.19958863163522L154.64514650853096,72.05295733941108A170.6070045455344,170.6070045455344,0,0,0,155.118968592935,71.02714680081164Z" fill-rule="evenodd" style="fill: #D7A449; stroke: #fff; opacity: 1;" id="p-type-tokenTransfers"></path><path d="M178.56883393113893,83.19958863163522A197,197,0,0,1,178.0138782273917,84.3804429855838L154.16454077111078,73.07560720810001A170.6070045455344,170.6070045455344,0,0,0,154.64514650853096,72.05295733941108Z" fill-rule="evenodd" style="fill: #D7A449; stroke: #fff; opacity: 1;" id="p-type-tokenTransfers"></path><path d="M178.0138782273917,84.3804429855838A197,197,0,0,1,177.45111377950204,85.55759591301182L153.67717246289163,74.0950515473919A170.6070045455344,170.6070045455344,0,0,0,154.16454077111078,73.07560720810001Z" fill-rule="evenodd" style="fill: #D7A449; stroke: #fff; opacity: 1;" id="p-type-tokenTransfers"></path><path d="M177.45111377950204,85.55759591301182A197,197,0,0,1,176.8805652736553,86.73099577701257L153.18306296273707,75.11124563841375A170.6070045455344,170.6070045455344,0,0,0,153.67717246289163,74.0950515473919Z" fill-rule="evenodd" style="fill: #D7A449; stroke: #fff; opacity: 1;" id="p-type-tokenTransfers"></path><path d="M176.8805652736553,86.73099577701257A197,197,0,0,1,176.3022577374917,87.90059110531088L152.6822339452194,76.12414490486769A170.6070045455344,170.6070045455344,0,0,0,153.18306296273707,75.11124563841375Z" fill-rule="evenodd" style="fill: #D7A449; stroke: #fff; opacity: 1;" id="p-type-tokenTransfers"></path><path d="M176.3022577374917,87.90059110531088A197,197,0,0,1,175.71621653900849,89.06633059252118L152.1747073796687,77.13370491498645A170.6070045455344,170.6070045455344,0,0,0,152.6822339452194,76.12414490486769Z" fill-rule="evenodd" style="fill: #D7A449; stroke: #fff; opacity: 1;" id="p-type-tokenTransfers"></path><path d="M175.71621653900849,89.06633059252118A197,197,0,0,1,175.1224673854474,90.22816310239787L151.66050552920927,78.1398813834823A170.6070045455344,170.6070045455344,0,0,0,152.1747073796687,77.13370491498645Z" fill-rule="evenodd" style="fill: #D7A449; stroke: #fff; opacity: 1;" id="p-type-tokenTransfers"></path><path d="M175.1224673854474,90.22816310239787A197,197,0,0,1,174.52103632216654,91.38603767007858L151.13965094978298,79.14263017348972A170.6070045455344,170.6070045455344,0,0,0,151.66050552920927,78.1398813834823Z" fill-rule="evenodd" style="fill: #D7A449; stroke: #fff; opacity: 1;" id="p-type-tokenTransfers"></path><path d="M174.52103632216654,91.38603767007858A197,197,0,0,1,173.91194973149828,92.53990350431974L150.6121664891598,80.14190729850148A170.6070045455344,170.6070045455344,0,0,0,151.13965094978298,79.14263017348972Z" fill-rule="evenodd" style="fill: #D7A449; stroke: #fff; opacity: 1;" id="p-type-tokenTransfers"></path><path d="M173.91194973149828,92.53990350431974A197,197,0,0,1,173.29523433159176,93.68970998972458L150.07807528593568,81.13766892429818A170.6070045455344,170.6070045455344,0,0,0,150.6121664891598,80.14190729850148Z" fill-rule="evenodd" style="fill: #D7A449; stroke: #fff; opacity: 1;" id="p-type-tokenTransfers"></path><path d="M173.29523433159176,93.68970998972458A197,197,0,0,1,172.6709171752409,94.83540668896346L149.53740076851736,82.12987137087103A170.6070045455344,170.6070045455344,0,0,0,150.07807528593568,81.13766892429818Z" fill-rule="evenodd" style="fill: #D7A449; stroke: #fff; opacity: 1;" id="p-type-tokenTransfers"></path><path d="M172.6709171752409,94.83540668896346A197,197,0,0,1,172.03902564869776,95.97694334498634L148.99016665409485,83.11847111433798A170.6070045455344,170.6070045455344,0,0,0,149.53740076851736,82.12987137087103Z" fill-rule="evenodd" style="fill: #D7A449; stroke: #fff; opacity: 1;" id="p-type-tokenTransfers"></path><path d="M172.03902564869776,95.97694334498634A197,197,0,0,1,171.39958747047115,97.1142698832273L148.436396947601,84.10342478885286A170.6070045455344,170.6070045455344,0,0,0,148.99016665409485,83.11847111433798Z" fill-rule="evenodd" style="fill: #D7A449; stroke: #fff; opacity: 1;" id="p-type-tokenTransfers"></path><path d="M171.39958747047115,97.1142698832273A197,197,0,0,1,170.75263069011083,98.24733641380116L147.87611594065837,85.08468918850774A170.6070045455344,170.6070045455344,0,0,0,148.436396947601,84.10342478885286Z" fill-rule="evenodd" style="fill: #D7A449; stroke: #fff; opacity: 1;" id="p-type-tokenTransfers"></path><path d="M170.75263069011083,98.24733641380116A197,197,0,0,1,170.09818368697697,99.37609323369198L147.30934821051383,86.06222126922812A170.6070045455344,170.6070045455344,0,0,0,147.87611594065837,85.08468918850774Z" fill-rule="evenodd" style="fill: #D7A449; stroke: #fff; opacity: 1;" id="p-type-tokenTransfers"></path><path d="M170.09818368697697,99.37609323369198A197,197,0,0,1,169.43627516899534,100.50049082893322L146.73611861896043,87.03597815066117A170.6070045455344,170.6070045455344,0,0,0,147.30934821051383,86.06222126922812Z" fill-rule="evenodd" style="fill: #D7A449; stroke: #fff; opacity: 1;" id="p-type-tokenTransfers"></path><path d="M169.43627516899534,100.50049082893322A197,197,0,0,1,168.766934171398,101.6204798767798L146.15645231124674,88.00591711805664A170.6070045455344,170.6070045455344,0,0,0,146.73611861896043,87.03597815066117Z" fill-rule="evenodd" style="fill: #D7A449; stroke: #fff; opacity: 1;" id="p-type-tokenTransfers"></path><path d="M168.766934171398,101.6204798767798A197,197,0,0,1,168.09019005544963,102.73601124787172L145.5703747149738,88.97199562414073A170.6070045455344,170.6070045455344,0,0,0,146.15645231124674,88.00591711805664Z" fill-rule="evenodd" style="fill: #D7A449; stroke: #fff; opacity: 1;" id="p-type-tokenTransfers"></path><path d="M168.09019005544963,102.73601124787172A197,197,0,0,1,167.40607250715956,103.847036008389L144.97791153897987,89.93417129098222A170.6070045455344,170.6070045455344,0,0,0,145.5703747149738,88.97199562414073Z" fill-rule="evenodd" style="fill: #D7A449; stroke: #fff; opacity: 1;" id="p-type-tokenTransfers"></path><path d="M167.40607250715956,103.847036008389A197,197,0,0,1,166.71461153597957,104.95350542219839L144.37908877221253,90.89240191185162A170.6070045455344,170.6070045455344,0,0,0,144.97791153897987,89.93417129098222Z" fill-rule="evenodd" style="fill: #D7A449; stroke: #fff; opacity: 1;" id="p-type-tokenTransfers"></path><path d="M166.71461153597957,104.95350542219839A197,197,0,0,1,166.01583747348755,106.0553709529912L143.7739326825888,91.84664545307263A170.6070045455344,170.6070045455344,0,0,0,144.37908877221253,90.89240191185162Z" fill-rule="evenodd" style="fill: #D7A449; stroke: #fff; opacity: 1;" id="p-type-tokenTransfers"></path><path d="M166.01583747348755,106.0553709529912A197,197,0,0,1,165.3097809720569,107.15258426641225L143.16246981584268,92.79686005586575A170.6070045455344,170.6070045455344,0,0,0,143.7739326825888,91.84664545307263Z" fill-rule="evenodd" style="fill: #D7A449; stroke: #fff; opacity: 1;" id="p-type-tokenTransfers"></path><path d="M165.3097809720569,107.15258426641225A197,197,0,0,1,164.59647300351196,108.24509723218026L142.5447269943609,93.74300403818472A170.6070045455344,170.6070045455344,0,0,0,143.16246981584268,92.79686005586575Z" fill-rule="evenodd" style="fill: #D7A449; stroke: #fff; opacity: 1;" id="p-type-tokenTransfers"></path><path d="M164.59647300351196,108.24509723218026A197,197,0,0,1,163.87594485776944,109.33286192619903L141.9207313160062,94.68503589654479A170.6070045455344,170.6070045455344,0,0,0,142.5447269943609,93.74300403818472Z" fill-rule="evenodd" style="fill: #D7A449; stroke: #fff; opacity: 1;" id="p-type-tokenTransfers"></path><path d="M163.87594485776944,109.33286192619903A197,197,0,0,1,163.14822814146586,110.41583063265976L141.29051015292868,95.62291430784336A170.6070045455344,170.6070045455344,0,0,0,141.9207313160062,94.68503589654479Z" fill-rule="evenodd" style="fill: #D7A449; stroke: #fff; opacity: 1;" id="p-type-tokenTransfers"></path><path d="M163.14822814146586,110.41583063265976A197,197,0,0,1,162.41335477657097,111.49395584613406L140.65409115036516,96.5565981311726A170.6070045455344,170.6070045455344,0,0,0,141.29051015292868,95.62291430784336Z" fill-rule="evenodd" style="fill: #D7A449; stroke: #fff; opacity: 1;" id="p-type-tokenTransfers"></path><path d="M162.41335477657097,111.49395584613406A197,197,0,0,1,161.67135699898762,112.56719027365786L140.0115022254264,97.48604640962428A170.6070045455344,170.6070045455344,0,0,0,140.65409115036516,96.5565981311726Z" fill-rule="evenodd" style="fill: #D7A449; stroke: #fff; opacity: 1;" id="p-type-tokenTransfers"></path><path d="M161.67135699898762,112.56719027365786A197,197,0,0,1,160.92226735713768,113.63548683680594L139.36277156587255,98.41121837208613A170.6070045455344,170.6070045455344,0,0,0,140.0115022254264,97.48604640962428Z" fill-rule="evenodd" style="fill: #D7A449; stroke: #fff; opacity: 1;" id="p-type-tokenTransfers"></path><path d="M160.92226735713768,113.63548683680594A197,197,0,0,1,160.16611871053416,114.69879867375715L138.7079276288767,99.33207343503058A170.6070045455344,170.6070045455344,0,0,0,139.36277156587255,98.41121837208613Z" fill-rule="evenodd" style="fill: #D7A449; stroke: #fff; opacity: 1;" id="p-type-tokenTransfers"></path><path d="M160.16611871053416,114.69879867375715A197,197,0,0,1,159.4029442283399,115.75707914134996L138.0469991397764,100.24857120429482A170.6070045455344,170.6070045455344,0,0,0,138.7079276288767,99.33207343503058Z" fill-rule="evenodd" style="fill: #D7A449; stroke: #fff; opacity: 1;" id="p-type-tokenTransfers"></path><path d="M159.4029442283399,115.75707914134996A197,197,0,0,1,158.63277738791257,116.81028181712848L137.38001509081394,101.16067147685277A170.6070045455344,170.6070045455344,0,0,0,138.0469991397764,100.24857120429482Z" fill-rule="evenodd" style="fill: #D7A449; stroke: #fff; opacity: 1;" id="p-type-tokenTransfers"></path><path d="M158.63277738791257,116.81028181712848A197,197,0,0,1,157.85565197333605,117.85836050137895L136.70700473986417,102.06833424257864A170.6070045455344,170.6070045455344,0,0,0,137.38001509081394,101.16067147685277Z" fill-rule="evenodd" style="fill: #D7A449; stroke: #fff; opacity: 1;" id="p-type-tokenTransfers"></path><path d="M157.85565197333605,117.85836050137895A197,197,0,0,1,157.07160207393866,118.90126921915623L136.02799760915138,102.97151968600203A170.6070045455344,170.6070045455344,0,0,0,136.70700473986417,102.06833424257864Z" fill-rule="evenodd" style="fill: #D7A449; stroke: #fff; opacity: 1;" id="p-type-tokenTransfers"></path><path d="M157.07160207393866,118.90126921915623A197,197,0,0,1,156.28066208279756,119.93896222230055L135.34302348395417,103.87018818805436A170.6070045455344,170.6070045455344,0,0,0,136.02799760915138,102.97151968600203Z" fill-rule="evenodd" style="fill: #D7A449; stroke: #fff; opacity: 1;" id="p-type-tokenTransfers"></path><path d="M156.28066208279756,119.93896222230055A197,197,0,0,1,155.4828666952303,120.9713939914443L134.65211241129887,104.76430032780696A170.6070045455344,170.6070045455344,0,0,0,135.34302348395417,103.87018818805436Z" fill-rule="evenodd" style="fill: #D7A449; stroke: #fff; opacity: 1;" id="p-type-tokenTransfers"></path><path d="M155.4828666952303,120.9713939914443A197,197,0,0,1,154.67825090727266,121.99851923800881L133.9552946986415,105.65381688420018A170.6070045455344,170.6070045455344,0,0,0,134.65211241129887,104.76430032780696Z" fill-rule="evenodd" style="fill: #D7A449; stroke: #fff; opacity: 1;" id="p-type-tokenTransfers"></path><path d="M154.67825090727266,121.99851923800881A197,197,0,0,1,153.86685001414367,123.02029290619095L133.2526009125384,106.53869883776393A170.6070045455344,170.6070045455344,0,0,0,133.9552946986415,105.65381688420018Z" fill-rule="evenodd" style="fill: #D7A449; stroke: #fff; opacity: 1;" id="p-type-tokenTransfers"></path><path d="M153.86685001414367,123.02029290619095A197,197,0,0,1,153.0486996086973,124.03667017493956L132.54406187730532,107.41890737232927A170.6070045455344,170.6070045455344,0,0,0,133.2526009125384,106.53869883776393Z" fill-rule="evenodd" style="fill: #D7A449; stroke: #fff; opacity: 1;" id="p-type-tokenTransfers"></path><path d="M153.0486996086973,124.03667017493956A197,197,0,0,1,152.22383557986115,125.0476064599215L131.82970867366524,108.2944038767311A170.6070045455344,170.6070045455344,0,0,0,132.54406187730532,107.41890737232927Z" fill-rule="evenodd" style="fill: #D7A449; stroke: #fff; opacity: 1;" id="p-type-tokenTransfers"></path><path d="M152.22383557986115,125.0476064599215A197,197,0,0,1,151.39229411106214,126.0530574154775L131.10957263738507,109.16514994650193A170.6070045455344,170.6070045455344,0,0,0,131.82970867366524,108.2944038767311Z" fill-rule="evenodd" style="fill: #D7A449; stroke: #fff; opacity: 1;" id="p-type-tokenTransfers"></path><path d="M151.39229411106214,126.0530574154775A197,197,0,0,1,150.55411167863926,127.05297893656731L130.38368535790104,110.03110738555648A170.6070045455344,170.6070045455344,0,0,0,131.10957263738507,109.16514994650193Z" fill-rule="evenodd" style="fill: #D7A449; stroke: #fff; opacity: 1;" id="p-type-tokenTransfers"></path><path d="M150.55411167863926,127.05297893656731A197,197,0,0,1,149.70932505024362,128.04732716070453L129.652078676933,110.89223820786725A170.6070045455344,170.6070045455344,0,0,0,130.38368535790104,110.03110738555648Z" fill-rule="evenodd" style="fill: #D7A449; stroke: #fff; opacity: 1;" id="p-type-tokenTransfers"></path><path d="M149.70932505024362,128.04732716070453A197,197,0,0,1,148.85797128322545,129.03605846988052L128.9147846870877,111.74850463913072A170.6070045455344,170.6070045455344,0,0,0,129.652078676933,110.89223820786725Z" fill-rule="evenodd" style="fill: #D7A449; stroke: #fff; opacity: 1;" id="p-type-tokenTransfers"></path><path d="M148.85797128322545,129.03605846988052A197,197,0,0,1,148.00008772300868,130.0191294924779L128.1718357304509,112.5998691184244A170.6070045455344,170.6070045455344,0,0,0,128.9147846870877,111.74850463913072Z" fill-rule="evenodd" style="fill: #D7A449; stroke: #fff; opacity: 1;" id="p-type-tokenTransfers"></path><path d="M148.00008772300868,130.0191294924779A197,197,0,0,1,147.1357120014526,130.99649710517303L127.42326439716885,113.44629429985451A170.6070045455344,170.6070045455344,0,0,0,128.1718357304509,112.5998691184244Z" fill-rule="evenodd" style="fill: #D7A449; stroke: #fff; opacity: 1;" id="p-type-tokenTransfers"></path><path d="M28.4680447816644,194.93222008254344A197,197,0,0,1,-10.556461396218172,196.71695687660014L-9.142163743194681,170.36188201030362A170.6070045455344,170.6070045455344,0,0,0,24.654049976994393,168.81625460758173Z" fill-rule="evenodd" style="fill: #414552; stroke: #fff; opacity: 1;" id="p-type-ether"></path><path d="M-10.556461396218172,196.71695687660014A197,197,0,0,1,-30.964148534432873,194.55133385699924L-26.815739237373563,168.4863974603089A170.6070045455344,170.6070045455344,0,0,0,-9.142163743194681,170.36188201030362Z" fill-rule="evenodd" style="fill: #414552; stroke: #fff; opacity: 1;" id="p-type-ether"></path><path d="M-30.964148534432873,194.55133385699924A197,197,0,0,1,-49.36891954899144,190.7136853573052L-42.75473848681678,165.1628963687786A170.6070045455344,170.6070045455344,0,0,0,-26.815739237373563,168.4863974603089Z" fill-rule="evenodd" style="fill: #414552; stroke: #fff; opacity: 1;" id="p-type-ether"></path><path d="M-49.36891954899144,190.7136853573052A197,197,0,0,1,-58.15457889432413,188.2207346538203L-50.36334266887105,163.0039377291784A170.6070045455344,170.6070045455344,0,0,0,-42.75473848681678,165.1628963687786Z" fill-rule="evenodd" style="fill: #414552; stroke: #fff; opacity: 1;" id="p-type-ether"></path><path d="M-58.15457889432413,188.2207346538203A197,197,0,0,1,-64.73492452628605,186.0601772184904L-56.06208915183204,161.13284010384734A170.6070045455344,170.6070045455344,0,0,0,-50.36334266887105,163.0039377291784Z" fill-rule="evenodd" style="fill: #414552; stroke: #fff; opacity: 1;" id="p-type-ether"></path><path d="M-64.73492452628605,186.0601772184904A197,197,0,0,1,-68.99862474059722,184.52151577500726L-59.75456185154666,159.80032020596732A170.6070045455344,170.6070045455344,0,0,0,-56.06208915183204,161.13284010384734Z" fill-rule="evenodd" style="fill: #414552; stroke: #fff; opacity: 1;" id="p-type-ether"></path><path d="M-68.99862474059722,184.52151577500726A197,197,0,0,1,-70.31515821415739,184.02385314224352L-60.89471328458234,159.3693317234797A170.6070045455344,170.6070045455344,0,0,0,-59.75456185154666,159.80032020596732Z" fill-rule="evenodd" style="fill: #414552; stroke: #fff; opacity: 1;" id="p-type-ether"></path><path d="M-70.31515821415739,184.02385314224352A197,197,0,0,1,-71.53260300601885,183.554043015084L-61.949051402039416,158.96246421840434A170.6070045455344,170.6070045455344,0,0,0,-60.89471328458234,159.3693317234797Z" fill-rule="evenodd" style="fill: #414552; stroke: #fff; opacity: 1;" id="p-type-ether"></path><path d="M-71.53260300601885,183.554043015084A197,197,0,0,1,-72.67554912941365,183.10451812759342L-62.93887178005627,158.57316424620416A170.6070045455344,170.6070045455344,0,0,0,-61.949051402039416,158.96246421840434Z" fill-rule="evenodd" style="fill: #414552; stroke: #fff; opacity: 1;" id="p-type-ether"></path></g></svg>