<svg xmlns="http://www.w3.org/2000/svg" width="400" height="400" id="block-7908367"><g id="burst-container" transform="translate(200,200)"><circle r="197" style="fill: #f9f9f9; stroke: #f9f9f9; stroke-width: 3; opacity: 1;" id="circle-base"></circle><path display="none" d="M6.031385485800715e-15,-98.5A98.5,98.5,0,1,1,-6.031385485800715e-15,98.5A98.5,98.5,0,1,1,6.031385485800715e-15,-98.5Z" fill-rule="evenodd" id="p-type-root" style="stroke: #fff; opacity: 1;"></path><path d="M8.529667153919608e-15,-139.30003589374985A139.30003589374985,139.30003589374985,0,1,1,-125.52544893586831,-60.39753032574024L-88.75989615403819,-42.70750326025108A98.5,98.5,0,1,0,6.031385485800715e-15,-98.5Z" fill-rule="evenodd" style="fill: #0B1F65; stroke: #fff; opacity: 1;" id="p-type-data"></path><path d="M-125.52544893586831,-60.39753032574024A139.30003589374985,139.30003589374985,0,0,1,-2.9777052071264074,-139.26820624858874L-2.105555544333576,-98.47749304206381A98.5,98.5,0,0,0,-88.75989615403819,-42.70750326025108Z" fill-rule="evenodd" style="fill: #D7A449; stroke: #fff; opacity: 1;" id="p-type-value"></path><path d="M1.0446666101440332e-14,-170.6070045455344A170.6070045455344,170.6070045455344,0,0,1,167.08438636325687,34.489967144285686L136.4238301920064,28.160940249618864A139.30003589374985,139.30003589374985,0,0,0,8.529667153919608e-15,-139.30003589374985Z" fill-rule="evenodd" style="fill: #1DC690; stroke: #fff; opacity: 1;" id="p-type-logs"></path><path d="M167.08438636325687,34.489967144285686A170.6070045455344,170.6070045455344,0,0,1,-21.98366106863458,169.18471753092652L-17.949584098814093,138.13874340922462A139.30003589374985,139.30003589374985,0,0,0,136.4238301920064,28.160940249618864Z" fill-rule="evenodd" style="fill: #D7A449; stroke: #fff; opacity: 1;" id="p-type-tokenTransfers"></path><path d="M-21.98366106863458,169.18471753092652A170.6070045455344,170.6070045455344,0,0,1,-110.49678161169926,129.98927360923454L-90.22024438947007,106.13579745921868A139.30003589374985,139.30003589374985,0,0,0,-17.949584098814093,138.13874340922462Z" fill-rule="evenodd" style="fill: #414552; stroke: #fff; opacity: 1;" id="p-type-ether"></path><path d="M-153.73664981333152,-73.97156551116834A170.6070045455344,170.6070045455344,0,0,1,-62.34765822499054,-158.80654745274128L-50.90664976955519,-129.66500302409992A139.30003589374985,139.30003589374985,0,0,0,-125.52544893586831,-60.39753032574024Z" fill-rule="evenodd" style="fill: #D7A449; stroke: #fff; opacity: 1;" id="p-type-tokenTransfers"></path><path d="M-62.34765822499054,-158.80654745274128A170.6070045455344,170.6070045455344,0,0,1,-7.292191736879598,-170.451089581946L-5.954049620631608,-139.17273185906444A139.30003589374985,139.30003589374985,0,0,0,-50.90664976955519,-129.66500302409992Z" fill-rule="evenodd" style="fill: #414552; stroke: #fff; opacity: 1;" id="p-type-ether"></path><path d="M1.206277097160143e-14,-197A197,197,0,0,1,2.1056758329404306,-196.98874619959022L1.8235687634613706,-170.59725846849042A170.6070045455344,170.6070045455344,0,0,0,1.0446666101440332e-14,-170.6070045455344Z" fill-rule="evenodd" style="fill: #1DC690; stroke: #fff; opacity: 1;" id="p-type-logs"></path><path d="M2.1056758329404306,-196.98874619959022A197,197,0,0,1,4.211111088667083,-196.95498608412763L3.6469291809440376,-170.5680213508651A170.6070045455344,170.6070045455344,0,0,0,1.8235687634613706,-170.59725846849042Z" fill-rule="evenodd" style="fill: #1DC690; stroke: #fff; opacity: 1;" id="p-type-logs"></path><path d="M4.211111088667083,-196.95498608412763A197,197,0,0,1,6.316065217452712,-196.8987235107655L5.469872930273333,-170.51929653305123A170.6070045455344,170.6070045455344,0,0,0,3.6469291809440376,-170.5680213508651Z" fill-rule="evenodd" style="fill: #1DC690; stroke: #fff; opacity: 1;" id="p-type-logs"></path><path d="M6.316065217452712,-196.8987235107655A197,197,0,0,1,8.420297724539534,-196.8199649076031L7.2921917368795395,-170.451089581946A170.6070045455344,170.6070045455344,0,0,0,5.469872930273333,-170.51929653305123Z" fill-rule="evenodd" style="fill: #1DC690; stroke: #fff; opacity: 1;" id="p-type-logs"></path><path d="M8.420297724539534,-196.8199649076031A197,197,0,0,1,10.523568197616335,-196.71871927295103L9.113677397593763,-170.36340829031505A170.6070045455344,170.6070045455344,0,0,0,7.2921917368795395,-170.451089581946Z" fill-rule="evenodd" style="fill: #1DC690; stroke: #fff; opacity: 1;" id="p-type-logs"></path><path d="M10.523568197616335,-196.71871927295103A197,197,0,0,1,12.625636334286124,-196.59499817430338L10.934121804435621,-170.25626267590206A170.6070045455344,170.6070045455344,0,0,0,9.113677397593763,-170.36340829031505Z" fill-rule="evenodd" style="fill: #1DC690; stroke: #fff; opacity: 1;" id="p-type-logs"></path><path d="M12.625636334286124,-196.59499817430338A197,197,0,0,1,14.726261969520865,-196.448815747016L12.75331696838973,-170.12966498028433A170.6070045455344,170.6070045455344,0,0,0,10.934121804435621,-170.25626267590206Z" fill-rule="evenodd" style="fill: #1DC690; stroke: #fff; opacity: 1;" id="p-type-logs"></path><path d="M14.726261969520865,-196.448815747016A197,197,0,0,1,16.82520510310087,-196.28018869269152L14.57105504316893,-169.98362966747396A170.6070045455344,170.6070045455344,0,0,0,12.75331696838973,-170.12966498028433Z" fill-rule="evenodd" style="fill: #1DC690; stroke: #fff; opacity: 1;" id="p-type-logs"></path><path d="M16.82520510310087,-196.28018869269152A197,197,0,0,1,18.9222259270354,-196.0891362772712L16.387128348961202,-169.8181734222656A170.6070045455344,170.6070045455344,0,0,0,14.57105504316893,-169.98362966747396Z" fill-rule="evenodd" style="fill: #1DC690; stroke: #fff; opacity: 1;" id="p-type-logs"></path><path d="M18.9222259270354,-196.0891362772712A197,197,0,0,1,21.017084852960874,-195.87568032883368L18.20132939615725,-169.6333151483298A170.6070045455344,170.6070045455344,0,0,0,16.387128348961202,-169.8181734222656Z" fill-rule="evenodd" style="fill: #1DC690; stroke: #fff; opacity: 1;" id="p-type-logs"></path><path d="M21.017084852960874,-195.87568032883368A197,197,0,0,1,23.109542539514422,-195.63984523510126L20.013450909056637,-169.42907596605363A170.6070045455344,170.6070045455344,0,0,0,18.20132939615725,-169.6333151483298Z" fill-rule="evenodd" style="fill: #1DC690; stroke: #fff; opacity: 1;" id="p-type-logs"></path><path d="M23.109542539514422,-195.63984523510126A197,197,0,0,1,25.199359919679168,-195.38165794065333L21.82328584954955,-169.20547921012738A170.6070045455344,170.6070045455344,0,0,0,20.013450909056637,-169.42907596605363Z" fill-rule="evenodd" style="fill: #1DC690; stroke: #fff; opacity: 1;" id="p-type-logs"></path><path d="M25.199359919679168,-195.38165794065333A197,197,0,0,1,27.286298228097824,-195.1011479438481L23.63062744077103,-168.96255042687855A170.6070045455344,170.6070045455344,0,0,0,21.82328584954955,-169.20547921012738Z" fill-rule="evenodd" style="fill: #1DC690; stroke: #fff; opacity: 1;" id="p-type-logs"></path><path d="M27.286298228097824,-195.1011479438481A197,197,0,0,1,29.37011902835216,-194.79834729345222L25.435269190725705,-168.7003173713533A170.6070045455344,170.6070045455344,0,0,0,23.63062744077103,-168.96255042687855Z" fill-rule="evenodd" style="fill: #1DC690; stroke: #fff; opacity: 1;" id="p-type-logs"></path><path d="M29.37011902835216,-194.79834729345222A197,197,0,0,1,31.45058424020496,-194.47329058497922L27.237004915880004,-168.41881000414512A170.6070045455344,170.6070045455344,0,0,0,25.435269190725705,-168.7003173713533Z" fill-rule="evenodd" style="fill: #1DC690; stroke: #fff; opacity: 1;" id="p-type-logs"></path><path d="M31.45058424020496,-194.47329058497922A197,197,0,0,1,33.527456166800796,-194.12601495673692L29.035628764718723,-168.11806048797206A170.6070045455344,170.6070045455344,0,0,0,27.237004915880004,-168.41881000414512Z" fill-rule="evenodd" style="fill: #1DC690; stroke: #fff; opacity: 1;" id="p-type-logs"></path><path d="M33.527456166800796,-194.12601495673692A197,197,0,0,1,35.600497521823506,-193.75656008558428L30.830935241264108,-167.79810318400197A170.6070045455344,170.6070045455344,0,0,0,29.035628764718723,-168.11806048797206Z" fill-rule="evenodd" style="fill: #1DC690; stroke: #fff; opacity: 1;" id="p-type-logs"></path><path d="M35.600497521823506,-193.75656008558428A197,197,0,0,1,37.66947145660667,-193.36496818239826L32.622719228554175,-167.4589746479266A170.6070045455344,170.6070045455344,0,0,0,30.830935241264108,-167.79810318400197Z" fill-rule="evenodd" style="fill: #1DC690; stroke: #fff; opacity: 1;" id="p-type-logs"></path><path d="M37.66947145660667,-193.36496818239826A197,197,0,0,1,39.734141587193754,-192.95128398725114L34.41077601207753,-167.10071362578506A170.6070045455344,170.6070045455344,0,0,0,32.622719228554175,-167.4589746479266Z" fill-rule="evenodd" style="fill: #1DC690; stroke: #fff; opacity: 1;" id="p-type-logs"></path><path d="M39.734141587193754,-192.95128398725114A197,197,0,0,1,41.7942720213455,-192.51555476429894L36.194901303162396,-166.7233610495372A170.6070045455344,170.6070045455344,0,0,0,34.41077601207753,-167.10071362578506Z" fill-rule="evenodd" style="fill: #1DC690; stroke: #fff; opacity: 1;" id="p-type-logs"></path><path d="M41.7942720213455,-192.51555476429894A197,197,0,0,1,43.84962738549119,-192.05783029638127L37.974891262317186,-166.32696003238678A170.6070045455344,170.6070045455344,0,0,0,36.194901303162396,-166.7233610495372Z" fill-rule="evenodd" style="fill: #1DC690; stroke: #fff; opacity: 1;" id="p-type-logs"></path><path d="M43.84962738549119,-192.05783029638127A197,197,0,0,1,45.89997285162019,-191.57816287933375L39.75054252251915,-165.91155586385594A170.6070045455344,170.6070045455344,0,0,0,37.974891262317186,-166.32696003238678Z" fill-rule="evenodd" style="fill: #1DC690; stroke: #fff; opacity: 1;" id="p-type-logs"></path><path d="M45.89997285162019,-191.57816287933375A197,197,0,0,1,47.945074164111816,-191.07660731601297L41.521652212449794,-165.47719600461076A170.6070045455344,170.6070045455344,0,0,0,39.75054252251915,-165.91155586385594Z" fill-rule="evenodd" style="fill: #1DC690; stroke: #fff; opacity: 1;" id="p-type-logs"></path><path d="M47.945074164111816,-191.07660731601297A197,197,0,0,1,49.98469766649913,-190.5532209100352L43.28801797967299,-165.02393008103857A170.6070045455344,170.6070045455344,0,0,0,41.521652212449794,-165.47719600461076Z" fill-rule="evenodd" style="fill: #1DC690; stroke: #fff; opacity: 1;" id="p-type-logs"></path><path d="M49.98469766649913,-190.5532209100352A197,197,0,0,1,52.01861032816479,-190.0080634592294L45.04943801375428,-164.55180987957837A170.6070045455344,170.6070045455344,0,0,0,43.28801797967299,-165.02393008103857Z" fill-rule="evenodd" style="fill: #1DC690; stroke: #fff; opacity: 1;" id="p-type-logs"></path><path d="M52.01861032816479,-190.0080634592294A197,197,0,0,1,54.04657977096517,-189.44119724880514L46.80571106931798,-164.06088934080395A170.6070045455344,170.6070045455344,0,0,0,45.04943801375428,-164.55180987957837Z" fill-rule="evenodd" style="fill: #1DC690; stroke: #fff; opacity: 1;" id="p-type-logs"></path><path d="M54.04657977096517,-189.44119724880514A197,197,0,0,1,56.06837429578006,-188.85268704423646L48.55663648903997,-163.55122455326108A170.6070045455344,170.6070045455344,0,0,0,46.80571106931798,-164.06088934080395Z" fill-rule="evenodd" style="fill: #1DC690; stroke: #fff; opacity: 1;" id="p-type-logs"></path><path d="M56.06837429578006,-188.85268704423646A197,197,0,0,1,58.08376290898454,-188.2426000838622L50.302014226572936,-163.02287374705935A170.6070045455344,170.6070045455344,0,0,0,48.55663648903997,-163.55122455326108Z" fill-rule="evenodd" style="fill: #1DC690; stroke: #fff; opacity: 1;" id="p-type-logs"></path><path d="M58.08376290898454,-188.2426000838622A197,197,0,0,1,60.09251534884049,-187.6110060712041L52.04164486940216,-162.47589728721928A170.6070045455344,170.6070045455344,0,0,0,50.302014226572936,-163.02287374705935Z" fill-rule="evenodd" style="fill: #1DC690; stroke: #fff; opacity: 1;" id="p-type-logs"></path><path d="M60.09251534884049,-187.6110060712041A197,197,0,0,1,62.094402111804534,-186.95797716700275L53.77532966162882,-161.9103576667754A170.6070045455344,170.6070045455344,0,0,0,52.04164486940216,-162.47589728721928Z" fill-rule="evenodd" style="fill: #1DC690; stroke: #fff; opacity: 1;" id="p-type-logs"></path><path d="M62.094402111804534,-186.95797716700275A197,197,0,0,1,64.08919447874896,-186.2835879809735L55.50287052667799,-161.32631949963655A170.6070045455344,170.6070045455344,0,0,0,53.77532966162882,-161.9103576667754Z" fill-rule="evenodd" style="fill: #1DC690; stroke: #fff; opacity: 1;" id="p-type-logs"></path><path d="M64.08919447874896,-186.2835879809735A197,197,0,0,1,66.07666454109352,-185.58791556328174L57.22407008992942,-160.72384951320336A170.6070045455344,170.6070045455344,0,0,0,55.50287052667799,-161.32631949963655Z" fill-rule="evenodd" style="fill: #1DC690; stroke: #fff; opacity: 1;" id="p-type-logs"></path><path d="M66.07666454109352,-185.58791556328174A197,197,0,0,1,68.05658522684428,-184.87103939574007L58.938731701267876,-160.10301654074468A170.6070045455344,170.6070045455344,0,0,0,57.22407008992942,-160.72384951320336Z" fill-rule="evenodd" style="fill: #1DC690; stroke: #fff; opacity: 1;" id="p-type-logs"></path><path d="M68.05658522684428,-184.87103939574007A197,197,0,0,1,70.028730326537,-184.1330413827273L60.64665945755077,-159.46389151353316A170.6070045455344,170.6070045455344,0,0,0,58.938731701267876,-160.10301654074468Z" fill-rule="evenodd" style="fill: #1DC690; stroke: #fff; opacity: 1;" id="p-type-logs"></path><path d="M70.028730326537,-184.1330413827273A197,197,0,0,1,71.99287451908208,-183.37400584183055L62.34765822499048,-158.8065474527413A170.6070045455344,170.6070045455344,0,0,0,60.64665945755077,-159.46389151353316Z" fill-rule="evenodd" style="fill: #1DC690; stroke: #fff; opacity: 1;" id="p-type-logs"></path><path d="M71.99287451908208,-183.37400584183055A197,197,0,0,1,73.94879339750774,-182.59401949421212L64.04153366144867,-158.13105946109872A170.6070045455344,170.6070045455344,0,0,0,62.34765822499048,-158.8065474527413Z" fill-rule="evenodd" style="fill: #1DC690; stroke: #fff; opacity: 1;" id="p-type-logs"></path><path d="M73.94879339750774,-182.59401949421212A197,197,0,0,1,75.89626349459894,-181.79317145470125L65.7280922386402,-157.43750471431133A170.6070045455344,170.6070045455344,0,0,0,64.04153366144867,-158.13105946109872Z" fill-rule="evenodd" style="fill: #1DC690; stroke: #fff; opacity: 1;" id="p-type-logs"></path><path d="M75.89626349459894,-181.79317145470125A197,197,0,0,1,77.8350623084291,-180.9715532216126L67.40714126424425,-156.72596245224406A170.6070045455344,170.6070045455344,0,0,0,65.7280922386402,-157.43750471431133Z" fill-rule="evenodd" style="fill: #1DC690; stroke: #fff; opacity: 1;" id="p-type-logs"></path><path d="M77.8350623084291,-180.9715532216126A197,197,0,0,1,79.76496832778108,-180.1292586662924L69.07848890391956,-155.99651396986746A170.6070045455344,170.6070045455344,0,0,0,67.40714126424425,-156.72596245224406Z" fill-rule="evenodd" style="fill: #1DC690; stroke: #fff; opacity: 1;" id="p-type-logs"></path><path d="M79.76496832778108,-180.1292586662924A197,197,0,0,1,81.68576105745535,-179.26638402239365L70.74194420322193,-155.2492426079697A170.6070045455344,170.6070045455344,0,0,0,69.07848890391956,-155.99651396986746Z" fill-rule="evenodd" style="fill: #1DC690; stroke: #fff; opacity: 1;" id="p-type-logs"></path><path d="M81.68576105745535,-179.26638402239365A197,197,0,0,1,83.59722104346199,-178.38302787488095L72.39731710942114,-154.48423374363455A170.6070045455344,170.6070045455344,0,0,0,70.74194420322193,-155.2492426079697Z" fill-rule="evenodd" style="fill: #1DC690; stroke: #fff; opacity: 1;" id="p-type-logs"></path><path d="M83.59722104346199,-178.38302787488095A197,197,0,0,1,85.49912989809361,-177.47929114876732L74.04441849321469,-153.70157478048716A170.6070045455344,170.6070045455344,0,0,0,72.39731710942114,-154.48423374363455Z" fill-rule="evenodd" style="fill: #1DC690; stroke: #fff; opacity: 1;" id="p-type-logs"></path><path d="M85.49912989809361,-177.47929114876732A197,197,0,0,1,87.39127032487673,-176.555277097583L75.6830601703364,-152.90135513870777A170.6070045455344,170.6070045455344,0,0,0,74.04441849321469,-153.70157478048716Z" fill-rule="evenodd" style="fill: #1DC690; stroke: #fff; opacity: 1;" id="p-type-logs"></path><path d="M87.39127032487673,-176.555277097583A197,197,0,0,1,89.27342614339797,-175.61109129157893L77.3130549230565,-152.08366624481556A170.6070045455344,170.6070045455344,0,0,0,75.6830601703364,-152.90135513870777Z" fill-rule="evenodd" style="fill: #1DC690; stroke: #fff; opacity: 1;" id="p-type-logs"></path><path d="M89.27342614339797,-175.61109129157893A197,197,0,0,1,91.1453823140033,-174.6468416056648L78.93421652157174,-151.24860152122275A170.6070045455344,170.6070045455344,0,0,0,77.3130549230565,-152.08366624481556Z" fill-rule="evenodd" style="fill: #1DC690; stroke: #fff; opacity: 1;" id="p-type-logs"></path><path d="M91.1453823140033,-174.6468416056648A197,197,0,0,1,93.0069249623667,-173.6626382070844L80.5463597452826,-150.39625637556117A170.6070045455344,170.6070045455344,0,0,0,78.93421652157174,-151.24860152122275Z" fill-rule="evenodd" style="fill: #1DC690; stroke: #fff; opacity: 1;" id="p-type-logs"></path><path d="M93.0069249623667,-173.6626382070844A197,197,0,0,1,94.85784140392546,-172.6585935428287L82.1493004039548,-149.5267281897815A170.6070045455344,170.6070045455344,0,0,0,80.5463597452826,-150.39625637556117Z" fill-rule="evenodd" style="fill: #1DC690; stroke: #fff; opacity: 1;" id="p-type-logs"></path><path d="M94.85784140392546,-172.6585935428287A197,197,0,0,1,96.69792016818006,-171.63482232678857L83.74285535876355,-148.64011630902743A170.6070045455344,170.6070045455344,0,0,0,82.1493004039548,-149.5267281897815Z" fill-rule="evenodd" style="fill: #1DC690; stroke: #fff; opacity: 1;" id="p-type-logs"></path><path d="M96.69792016818006,-171.63482232678857A197,197,0,0,1,98.52695102285479,-170.59144152664862L85.32684254321742,-147.73652203028533A170.6070045455344,170.6070045455344,0,0,0,83.74285535876355,-148.64011630902743Z" fill-rule="evenodd" style="fill: #1DC690; stroke: #fff; opacity: 1;" id="p-type-logs"></path><path d="M98.52695102285479,-170.59144152664862A197,197,0,0,1,100.34472499791738,-169.52857035052332L86.90108098395984,-146.8160485908106A170.6070045455344,170.6070045455344,0,0,0,85.32684254321742,-147.73652203028533Z" fill-rule="evenodd" style="fill: #1DC690; stroke: #fff; opacity: 1;" id="p-type-logs"></path><path d="M100.34472499791738,-169.52857035052332A197,197,0,0,1,102.15103440945411,-168.4463302333373L88.46539082144558,-145.87880115633283A170.6070045455344,170.6070045455344,0,0,0,86.90108098395984,-146.8160485908106Z" fill-rule="evenodd" style="fill: #1DC690; stroke: #fff; opacity: 1;" id="p-type-logs"></path><path d="M102.15103440945411,-168.4463302333373A197,197,0,0,1,103.94567288339798,-167.34484482295125L90.0195933304899,-144.92488680904057A170.6070045455344,170.6070045455344,0,0,0,88.46539082144558,-145.87880115633283Z" fill-rule="evenodd" style="fill: #1DC690; stroke: #fff; opacity: 1;" id="p-type-logs"></path><path d="M103.94567288339798,-167.34484482295125A197,197,0,0,1,105.72843537910738,-166.22423996603476L91.56351094068839,-143.95441453534667A170.6070045455344,170.6070045455344,0,0,0,90.0195933304899,-144.92488680904057Z" fill-rule="evenodd" style="fill: #1DC690; stroke: #fff; opacity: 1;" id="p-type-logs"></path><path d="M105.72843537910738,-166.22423996603476A197,197,0,0,1,107.49911821279252,-165.08464369368843L93.09696725670474,-142.9674952134367A170.6070045455344,170.6070045455344,0,0,0,91.56351094068839,-143.95441453534667Z" fill-rule="evenodd" style="fill: #1DC690; stroke: #fff; opacity: 1;" id="p-type-logs"></path><path d="M107.49911821279252,-165.08464369368843A197,197,0,0,1,109.25751908078632,-163.9261862068157L94.61978707842398,-141.96424160060062A170.6070045455344,170.6070045455344,0,0,0,93.09696725670474,-142.9674952134367Z" fill-rule="evenodd" style="fill: #1DC690; stroke: #fff; opacity: 1;" id="p-type-logs"></path><path d="M109.25751908078632,-163.9261862068157A197,197,0,0,1,111.00343708265831,-162.74899986124746L96.13179642096968,-140.94476832035036A170.6070045455344,170.6070045455344,0,0,0,94.61978707842398,-141.96424160060062Z" fill-rule="evenodd" style="fill: #1DC690; stroke: #fff; opacity: 1;" id="p-type-logs"></path><path d="M111.00343708265831,-162.74899986124746A197,197,0,0,1,112.73667274416754,-161.55321915262002L97.6328225345818,-139.90919184932366A170.6070045455344,170.6070045455344,0,0,0,96.13179642096968,-140.94476832035036Z" fill-rule="evenodd" style="fill: #1DC690; stroke: #fff; opacity: 1;" id="p-type-logs"></path><path d="M112.73667274416754,-161.55321915262002A197,197,0,0,1,114.45702804005317,-160.3389807010088L99.12269392435387,-138.85763050397648A170.6070045455344,170.6070045455344,0,0,0,97.6328225345818,-139.90919184932366Z" fill-rule="evenodd" style="fill: #1DC690; stroke: #fff; opacity: 1;" id="p-type-logs"></path><path d="M114.45702804005317,-160.3389807010088A197,197,0,0,1,116.16430641665902,-159.1064232353193L100.60124036982637,-137.7902044270652A170.6070045455344,170.6070045455344,0,0,0,99.12269392435387,-138.85763050397648Z" fill-rule="evenodd" style="fill: #1DC690; stroke: #fff; opacity: 1;" id="p-type-logs"></path><path d="M116.16430641665902,-159.1064232353193A197,197,0,0,1,117.85831281439023,-157.8556875774368L102.06829294443497,-136.7070355739199A170.6070045455344,170.6070045455344,0,0,0,100.60124036982637,-137.7902044270652Z" fill-rule="evenodd" style="fill: #1DC690; stroke: #fff; opacity: 1;" id="p-type-logs"></path><path d="M117.85831281439023,-157.8556875774368A197,197,0,0,1,119.5388536899991,-156.58691662613765L103.5236840348104,-135.6082476985111A170.6070045455344,170.6070045455344,0,0,0,102.06829294443497,-136.7070355739199Z" fill-rule="evenodd" style="fill: #1DC690; stroke: #fff; opacity: 1;" id="p-type-logs"></path><path d="M119.5388536899991,-156.58691662613765A197,197,0,0,1,121.20573703869795,-155.30025534076242L104.96724735992888,-134.4939663393102A170.6070045455344,170.6070045455344,0,0,0,103.5236840348104,-135.6082476985111Z" fill-rule="evenodd" style="fill: #1DC690; stroke: #fff; opacity: 1;" id="p-type-logs"></path><path d="M121.20573703869795,-155.30025534076242A197,197,0,0,1,122.85877241609572,-153.99585072465425L106.39881799010975,-133.36431880494683A170.6070045455344,170.6070045455344,0,0,0,104.96724735992888,-134.4939663393102Z" fill-rule="evenodd" style="fill: #1DC690; stroke: #fff; opacity: 1;" id="p-type-logs"></path><path d="M122.85877241609572,-153.99585072465425A197,197,0,0,1,124.49777095995684,-152.67385180836348L107.81823236585917,-132.2194341596635A170.6070045455344,170.6070045455344,0,0,0,106.39881799010975,-133.36431880494683Z" fill-rule="evenodd" style="fill: #1DC690; stroke: #fff; opacity: 1;" id="p-type-logs"></path><path d="M124.49777095995684,-152.67385180836348A197,197,0,0,1,126.1225454117789,-151.33440963262044L109.22532831655703,-131.05944320856975A170.6070045455344,170.6070045455344,0,0,0,107.81823236585917,-132.2194341596635Z" fill-rule="evenodd" style="fill: #1DC690; stroke: #fff; opacity: 1;" id="p-type-logs"></path><path d="M126.1225454117789,-151.33440963262044A197,197,0,0,1,127.7329101381874,-149.9776772310791L110.61994507898515,-129.88447848269746A170.6070045455344,170.6070045455344,0,0,0,109.22532831655703,-131.05944320856975Z" fill-rule="evenodd" style="fill: #1DC690; stroke: #fff; opacity: 1;" id="p-type-logs"></path><path d="M127.7329101381874,-149.9776772310791A197,197,0,0,1,129.32868115214458,-148.60380961283235L112.00192331569492,-128.69467422385898A170.6070045455344,170.6070045455344,0,0,0,110.61994507898515,-129.88447848269746Z" fill-rule="evenodd" style="fill: #1DC690; stroke: #fff; opacity: 1;" id="p-type-logs"></path><path d="M129.32868115214458,-148.60380961283235A197,197,0,0,1,130.90967613397032,-147.2129637447022L113.37110513321174,-127.49016636930965A170.6070045455344,170.6070045455344,0,0,0,112.00192331569492,-128.69467422385898Z" fill-rule="evenodd" style="fill: #1DC690; stroke: #fff; opacity: 1;" id="p-type-logs"></path><path d="M130.90967613397032,-147.2129637447022A197,197,0,0,1,132.4757144521725,-145.8052985333059L114.72733410007469,-126.27109253621684A170.6070045455344,170.6070045455344,0,0,0,113.37110513321174,-127.49016636930965Z" fill-rule="evenodd" style="fill: #1DC690; stroke: #fff; opacity: 1;" id="p-type-logs"></path><path d="M132.4757144521725,-145.8052985333059A197,197,0,0,1,134.02661718408444,-144.38097480690064L116.07045526470911,-125.03759200593699A170.6070045455344,170.6070045455344,0,0,0,114.72733410007469,-126.27109253621684Z" fill-rule="evenodd" style="fill: #1DC690; stroke: #fff; opacity: 1;" id="p-type-logs"></path><path d="M134.02661718408444,-144.38097480690064A197,197,0,0,1,135.5622071363072,-142.94015529700863L117.40031517313014,-123.78980570810225A170.6070045455344,170.6070045455344,0,0,0,116.07045526470911,-125.03759200593699Z" fill-rule="evenodd" style="fill: #1DC690; stroke: #fff; opacity: 1;" id="p-type-logs"></path><path d="M135.5622071363072,-142.94015529700863A197,197,0,0,1,137.0823088649541,-141.48300461982467L118.71676188647498,-122.52787620451926A170.6070045455344,170.6070045455344,0,0,0,117.40031517313014,-123.78980570810225Z" fill-rule="evenodd" style="fill: #1DC690; stroke: #fff; opacity: 1;" id="p-type-logs"></path><path d="M137.0823088649541,-141.48300461982467A197,197,0,0,1,138.5867486956956,-140.00968925740858L120.01964499836231,-121.25194767288106A170.6070045455344,170.6070045455344,0,0,0,118.71676188647498,-122.52787620451926Z" fill-rule="evenodd" style="fill: #1DC690; stroke: #fff; opacity: 1;" id="p-type-logs"></path><path d="M138.5867486956956,-140.00968925740858A197,197,0,0,1,140.075354743602,-138.52037753866418L121.3088156520764,-119.96216589029451A170.6070045455344,170.6070045455344,0,0,0,120.01964499836231,-121.25194767288106Z" fill-rule="evenodd" style="fill: #1DC690; stroke: #fff; opacity: 1;" id="p-type-logs"></path><path d="M140.075354743602,-138.52037753866418A197,197,0,0,1,141.54795693278135,-137.0152396201075L122.5841265575743,-118.6586782166252A170.6070045455344,170.6070045455344,0,0,0,121.3088156520764,-119.96216589029451Z" fill-rule="evenodd" style="fill: #1DC690; stroke: #fff; opacity: 1;" id="p-type-logs"></path><path d="M141.54795693278135,-137.0152396201075A197,197,0,0,1,143.00438701581112,-135.49444746642615L123.84543200831395,-117.34163357766111A170.6070045455344,170.6070045455344,0,0,0,122.5841265575743,-118.6586782166252Z" fill-rule="evenodd" style="fill: #1DC690; stroke: #fff; opacity: 1;" id="p-type-logs"></path><path d="M143.00438701581112,-135.49444746642615A197,197,0,0,1,144.44447859296068,-133.95817483083187L125.09258789790148,-116.0111824480976A170.6070045455344,170.6070045455344,0,0,0,123.84543200831395,-117.34163357766111Z" fill-rule="evenodd" style="fill: #1DC690; stroke: #fff; opacity: 1;" id="p-type-logs"></path><path d="M144.44447859296068,-133.95817483083187A197,197,0,0,1,145.86806713120285,-132.40659723520915L126.32545173655555,-114.66747683434555A170.6070045455344,170.6070045455344,0,0,0,125.09258789790148,-116.0111824480976Z" fill-rule="evenodd" style="fill: #1DC690; stroke: #fff; opacity: 1;" id="p-type-logs"></path><path d="M145.86806713120285,-132.40659723520915A197,197,0,0,1,147.27498998301198,-130.83989195006131L127.5438826673871,-113.31067025716416A170.6070045455344,170.6070045455344,0,0,0,126.32545173655555,-114.66747683434555Z" fill-rule="evenodd" style="fill: #1DC690; stroke: #fff; opacity: 1;" id="p-type-logs"></path><path d="M147.27498998301198,-130.83989195006131A197,197,0,0,1,148.6650864049468,-129.2582379742572L128.7477414824925,-111.94091773412116A170.6070045455344,170.6070045455344,0,0,0,127.5438826673871,-113.31067025716416Z" fill-rule="evenodd" style="fill: #1DC690; stroke: #fff; opacity: 1;" id="p-type-logs"></path><path d="M148.6650864049468,-129.2582379742572A197,197,0,0,1,150.03819757601556,-127.66181601458017L129.93689063885824,-110.5583757618815A170.6070045455344,170.6070045455344,0,0,0,128.7477414824925,-111.94091773412116Z" fill-rule="evenodd" style="fill: #1DC690; stroke: #fff; opacity: 1;" id="p-type-logs"></path><path d="M150.03819757601556,-127.66181601458017A197,197,0,0,1,151.39416661582175,-126.05080846508204L131.11119427407561,-109.16320229832762A170.6070045455344,170.6070045455344,0,0,0,129.93689063885824,-110.5583757618815Z" fill-rule="evenodd" style="fill: #1DC690; stroke: #fff; opacity: 1;" id="p-type-logs"></path><path d="M151.39416661582175,-126.05080846508204A197,197,0,0,1,152.73283860248785,-124.42539938624425L132.27051822186303,-107.75555674451222A170.6070045455344,170.6070045455344,0,0,0,131.11119427407561,-109.16320229832762Z" fill-rule="evenodd" style="fill: #1DC690; stroke: #fff; opacity: 1;" id="p-type-logs"></path><path d="M192.93243088841956,39.82558363018938A197,197,0,0,1,192.4957253450052,41.88550732533057L166.70618826868653,36.27391339413547A170.6070045455344,170.6070045455344,0,0,0,167.08438636325687,34.489967144285686Z" fill-rule="evenodd" style="fill: #D7A449; stroke: #fff; opacity: 1;" id="p-type-tokenTransfers"></path><path d="M192.4957253450052,41.88550732533057A197,197,0,0,1,192.03702682217187,43.94064552666972L166.30894369523446,38.05371528478303A170.6070045455344,170.6070045455344,0,0,0,166.70618826868653,36.27391339413547Z" fill-rule="evenodd" style="fill: #D7A449; stroke: #fff; opacity: 1;" id="p-type-tokenTransfers"></path><path d="M192.03702682217187,43.94064552666972A197,197,0,0,1,191.55638772704268,45.99076343100751L165.8926980288006,39.829169470692875A170.6070045455344,170.6070045455344,0,0,0,166.30894369523446,38.05371528478303Z" fill-rule="evenodd" style="fill: #D7A449; stroke: #fff; opacity: 1;" id="p-type-tokenTransfers"></path><path d="M191.55638772704268,45.99076343100751A197,197,0,0,1,191.05386297349014,48.03562680872249L165.45749882619359,41.6000731030625A170.6070045455344,170.6070045455344,0,0,0,165.8926980288006,39.829169470692875Z" fill-rule="evenodd" style="fill: #D7A449; stroke: #fff; opacity: 1;" id="p-type-tokenTransfers"></path><path d="M191.05386297349014,48.03562680872249A197,197,0,0,1,190.52950997586223,50.07500203053226L165.0033958096973,43.36622385299828A170.6070045455344,170.6070045455344,0,0,0,165.45749882619359,41.6000731030625Z" fill-rule="evenodd" style="fill: #D7A449; stroke: #fff; opacity: 1;" id="p-type-tokenTransfers"></path><path d="M190.52950997586223,50.07500203053226A197,197,0,0,1,189.98338864242277,52.10865609418598L164.5304408613901,45.12741993463187A170.6070045455344,170.6070045455344,0,0,0,165.0033958096973,43.36622385299828Z" fill-rule="evenodd" style="fill: #D7A449; stroke: #fff; opacity: 1;" id="p-type-tokenTransfers"></path><path d="M189.98338864242277,52.10865609418598A197,197,0,0,1,189.41556136850662,54.13635665108533L164.03868801721705,46.88346012817455A170.6070045455344,170.6070045455344,0,0,0,164.5304408613901,45.12741993463187Z" fill-rule="evenodd" style="fill: #D7A449; stroke: #fff; opacity: 1;" id="p-type-tokenTransfers"></path><path d="M189.41556136850662,54.13635665108533A197,197,0,0,1,188.82609302939096,56.157872032830724L163.52819346081628,48.63414380290706A170.6070045455344,170.6070045455344,0,0,0,164.03868801721705,46.88346012817455Z" fill-rule="evenodd" style="fill: #D7A449; stroke: #fff; opacity: 1;" id="p-type-tokenTransfers"></path><path d="M188.82609302939096,56.157872032830724A197,197,0,0,1,188.21505097288332,58.17297127768987L162.9990155171,50.37927094010192A170.6070045455344,170.6070045455344,0,0,0,163.52819346081628,48.63414380290706Z" fill-rule="evenodd" style="fill: #D7A449; stroke: #fff; opacity: 1;" id="p-type-tokenTransfers"></path><path d="M188.21505097288332,58.17297127768987A197,197,0,0,1,187.5825050116268,60.181424156985535L162.4512146455906,52.11864215587597A170.6070045455344,170.6070045455344,0,0,0,162.9990155171,50.37927094010192Z" fill-rule="evenodd" style="fill: #D7A449; stroke: #fff; opacity: 1;" id="p-type-tokenTransfers"></path><path d="M187.5825050116268,60.181424156985535A197,197,0,0,1,186.9285274151239,62.18300120139959L161.8848534335132,53.852058723970316A170.6070045455344,170.6070045455344,0,0,0,162.4512146455906,52.11864215587597Z" fill-rule="evenodd" style="fill: #D7A449; stroke: #fff; opacity: 1;" id="p-type-tokenTransfers"></path><path d="M186.9285274151239,62.18300120139959A197,197,0,0,1,186.25319290147968,64.17747372719028L161.2999965886449,55.579322598455164A170.6070045455344,170.6070045455344,0,0,0,161.8848534335132,53.852058723970316Z" fill-rule="evenodd" style="fill: #D7A449; stroke: #fff; opacity: 1;" id="p-type-tokenTransfers"></path><path d="M186.25319290147968,64.17747372719028A197,197,0,0,1,185.5565786288649,66.16461386231975L160.69671093192167,57.30023643635693A170.6070045455344,170.6070045455344,0,0,0,161.2999965886449,55.579322598455164Z" fill-rule="evenodd" style="fill: #D7A449; stroke: #fff; opacity: 1;" id="p-type-tokenTransfers"></path><path d="M185.5565786288649,66.16461386231975A197,197,0,0,1,184.83876418670079,68.14419457248884L160.07506538980417,59.01460362020501A170.6070045455344,170.6070045455344,0,0,0,160.69671093192167,57.30023643635693Z" fill-rule="evenodd" style="fill: #D7A449; stroke: #fff; opacity: 1;" id="p-type-tokenTransfers"></path><path d="M184.83876418670079,68.14419457248884A197,197,0,0,1,184.0998315865656,70.1159896870762L159.43513098640264,60.72222828049569A170.6070045455344,170.6070045455344,0,0,0,160.07506538980417,59.01460362020501Z" fill-rule="evenodd" style="fill: #D7A449; stroke: #fff; opacity: 1;" id="p-type-tokenTransfers"></path><path d="M184.0998315865656,70.1159896870762A197,197,0,0,1,183.3398652528249,72.07977392497853L158.77698083536225,62.42291531807057A170.6070045455344,170.6070045455344,0,0,0,159.43513098640264,60.72222828049569Z" fill-rule="evenodd" style="fill: #D7A449; stroke: #fff; opacity: 1;" id="p-type-tokenTransfers"></path><path d="M183.3398652528249,72.07977392497853A197,197,0,0,1,182.55895201298554,74.03532292034956L158.10069013150977,64.11647042640702A170.6070045455344,170.6070045455344,0,0,0,158.77698083536225,62.42291531807057Z" fill-rule="evenodd" style="fill: #D7A449; stroke: #fff; opacity: 1;" id="p-type-tokenTransfers"></path><path d="M182.55895201298554,74.03532292034956A197,197,0,0,1,181.75718108777596,75.9824132482341L157.40633614226252,65.802700113818A170.6070045455344,170.6070045455344,0,0,0,158.10069013150977,64.11647042640702Z" fill-rule="evenodd" style="fill: #D7A449; stroke: #fff; opacity: 1;" id="p-type-tokenTransfers"></path><path d="M181.75718108777596,75.9824132482341A197,197,0,0,1,180.93464408095207,77.92082245009478L156.69399819880022,67.48141172555889A170.6070045455344,170.6070045455344,0,0,0,157.40633614226252,65.802700113818Z" fill-rule="evenodd" style="fill: #D7A449; stroke: #fff; opacity: 1;" id="p-type-tokenTransfers"></path><path d="M180.93464408095207,77.92082245009478A197,197,0,0,1,180.09143496883172,79.85032905922837L155.96375768700148,69.15241346583855A170.6070045455344,170.6070045455344,0,0,0,156.69399819880022,67.48141172555889Z" fill-rule="evenodd" style="fill: #D7A449; stroke: #fff; opacity: 1;" id="p-type-tokenTransfers"></path><path d="M180.09143496883172,79.85032905922837A197,197,0,0,1,179.22765008955759,81.77071262606869L155.21569803814518,70.81551441973242A170.6070045455344,170.6070045455344,0,0,0,155.96375768700148,69.15241346583855Z" fill-rule="evenodd" style="fill: #D7A449; stroke: #fff; opacity: 1;" id="p-type-tokenTransfers"></path><path d="M179.22765008955759,81.77071262606869A197,197,0,0,1,178.34338813209033,83.68175374337333L154.4499047193784,72.47052457499485A170.6070045455344,170.6070045455344,0,0,0,155.21569803814518,70.81551441973242Z" fill-rule="evenodd" style="fill: #D7A449; stroke: #fff; opacity: 1;" id="p-type-tokenTransfers"></path><path d="M178.34338813209033,83.68175374337333A197,197,0,0,1,177.4387501249333,85.58323407129156L153.66646522395146,74.1172548437684A170.6070045455344,170.6070045455344,0,0,0,154.4499047193784,72.47052457499485Z" fill-rule="evenodd" style="fill: #D7A449; stroke: #fff; opacity: 1;" id="p-type-tokenTransfers"></path><path d="M177.4387501249333,85.58323407129156A197,197,0,0,1,176.51383942458983,87.47493636230963L152.86546906122197,75.75551708418728A170.6070045455344,170.6070045455344,0,0,0,153.66646522395146,74.1172548437684Z" fill-rule="evenodd" style="fill: #D7A449; stroke: #fff; opacity: 1;" id="p-type-tokenTransfers"></path><path d="M176.51383942458983,87.47493636230963A197,197,0,0,1,175.56876170375446,89.3566444860721L152.04700774642785,77.38512412187312A170.6070045455344,170.6070045455344,0,0,0,152.86546906122197,75.75551708418728Z" fill-rule="evenodd" style="fill: #D7A449; stroke: #fff; opacity: 1;" id="p-type-tokenTransfers"></path><path d="M175.56876170375446,89.3566444860721A197,197,0,0,1,174.60362493923986,91.22814345407483L151.2111747902319,79.00588977131984A170.6070045455344,170.6070045455344,0,0,0,152.04700774642785,77.38512412187312Z" fill-rule="evenodd" style="fill: #D7A449; stroke: #fff; opacity: 1;" id="p-type-tokenTransfers"></path><path d="M174.60362493923986,91.22814345407483A197,197,0,0,1,173.61853939964007,93.08921944422795L150.35806568803775,80.61762885716573A170.6070045455344,170.6070045455344,0,0,0,151.2111747902319,79.00588977131984Z" fill-rule="evenodd" style="fill: #D7A449; stroke: #fff; opacity: 1;" id="p-type-tokenTransfers"></path><path d="M173.61853939964007,93.08921944422795A197,197,0,0,1,172.61361763273226,94.93965982528535L149.48777790907965,82.22015723534999A170.6070045455344,170.6070045455344,0,0,0,150.35806568803775,80.61762885716573Z" fill-rule="evenodd" style="fill: #D7A449; stroke: #fff; opacity: 1;" id="p-type-tokenTransfers"></path><path d="M172.61361763273226,94.93965982528535A197,197,0,0,1,171.58897445261786,96.77925318113823L148.6004108852861,83.81329181415164A170.6070045455344,170.6070045455344,0,0,0,149.48777790907965,82.22015723534999Z" fill-rule="evenodd" style="fill: #D7A449; stroke: #fff; opacity: 1;" id="p-type-tokenTransfers"></path><path d="M171.58897445261786,96.77925318113823A197,197,0,0,1,170.5447269266049,98.60778933496968L147.69606599991985,85.39685057510798A170.6070045455344,170.6070045455344,0,0,0,148.6004108852861,83.81329181415164Z" fill-rule="evenodd" style="fill: #D7A449; stroke: #fff; opacity: 1;" id="p-type-tokenTransfers"></path><path d="M170.5447269266049,98.60778933496968A197,197,0,0,1,169.48099436183284,100.42505937326791L146.77484657599445,86.97065259381057A170.6070045455344,170.6070045455344,0,0,0,147.69606599991985,85.39685057510798Z" fill-rule="evenodd" style="fill: #D7A449; stroke: #fff; opacity: 1;" id="p-type-tokenTransfers"></path><path d="M169.48099436183284,100.42505937326791A197,197,0,0,1,168.3978982916415,102.2308556696948L145.83685786446964,88.5345180605761A170.6070045455344,170.6070045455344,0,0,0,146.77484657599445,86.97065259381057Z" fill-rule="evenodd" style="fill: #D7A449; stroke: #fff; opacity: 1;" id="p-type-tokenTransfers"></path><path d="M168.3978982916415,102.2308556696948A197,197,0,0,1,167.29556246168568,104.0249719088077L144.8822070322261,90.08826830099007A170.6070045455344,170.6070045455344,0,0,0,145.83685786446964,88.5345180605761Z" fill-rule="evenodd" style="fill: #D7A449; stroke: #fff; opacity: 1;" id="p-type-tokenTransfers"></path><path d="M167.29556246168568,104.0249719088077A197,197,0,0,1,166.174112815797,105.80720310963132L143.91100314982145,91.63172579632057A170.6070045455344,170.6070045455344,0,0,0,144.8822070322261,90.08826830099007Z" fill-rule="evenodd" style="fill: #D7A449; stroke: #fff; opacity: 1;" id="p-type-tokenTransfers"></path><path d="M166.174112815797,105.80720310963132A197,197,0,0,1,165.03367748159462,107.57734564907712L142.92335717902878,93.16471420380013A170.6070045455344,170.6070045455344,0,0,0,143.91100314982145,91.63172579632057Z" fill-rule="evenodd" style="fill: #D7A449; stroke: #fff; opacity: 1;" id="p-type-tokenTransfers"></path><path d="M165.03367748159462,107.57734564907712A197,197,0,0,1,163.87438675584633,109.33519728520771L141.9193819601591,94.68705837677327A170.6070045455344,170.6070045455344,0,0,0,142.92335717902878,93.16471420380013Z" fill-rule="evenodd" style="fill: #D7A449; stroke: #fff; opacity: 1;" id="p-type-tokenTransfers"></path><path d="M163.87438675584633,109.33519728520771A197,197,0,0,1,162.69637308958207,111.08055718034329L140.899192199169,96.19858438470722A170.6070045455344,170.6070045455344,0,0,0,141.9193819601591,94.68705837677327Z" fill-rule="evenodd" style="fill: #D7A449; stroke: #fff; opacity: 1;" id="p-type-tokenTransfers"></path><path d="M162.69637308958207,111.08055718034329A197,197,0,0,1,161.499771072961,112.81322592400763L139.86290445455546,97.69911953306381A170.6070045455344,170.6070045455344,0,0,0,140.899192199169,96.19858438470722Z" fill-rule="evenodd" style="fill: #D7A449; stroke: #fff; opacity: 1;" id="p-type-tokenTransfers"></path><path d="M161.499771072961,112.81322592400763A197,197,0,0,1,160.28471741989446,114.53300555571126L138.81063712403875,99.1884923830302A170.6070045455344,170.6070045455344,0,0,0,139.86290445455546,97.69911953306381Z" fill-rule="evenodd" style="fill: #D7A449; stroke: #fff; opacity: 1;" id="p-type-tokenTransfers"></path><path d="M160.28471741989446,114.53300555571126A197,197,0,0,1,159.05135095242608,116.2396995875686L137.74251043103524,100.66653277110593A170.6070045455344,170.6070045455344,0,0,0,138.81063712403875,99.1884923830302Z" fill-rule="evenodd" style="fill: #D7A449; stroke: #fff; opacity: 1;" id="p-type-tokenTransfers"></path><path d="M159.05135095242608,116.2396995875686A197,197,0,0,1,157.79981258487115,117.93311302674726L136.65864641092176,102.13307182854464A170.6070045455344,170.6070045455344,0,0,0,137.74251043103524,100.66653277110593Z" fill-rule="evenodd" style="fill: #D7A449; stroke: #fff; opacity: 1;" id="p-type-tokenTransfers"></path><path d="M157.79981258487115,117.93311302674726A197,197,0,0,1,156.5302453077169,119.61305239774616L135.55916889709277,103.58794200064733A170.6070045455344,170.6070045455344,0,0,0,136.65864641092176,102.13307182854464Z" fill-rule="evenodd" style="fill: #D7A449; stroke: #fff; opacity: 1;" id="p-type-tokenTransfers"></path><path d="M156.5302453077169,119.61305239774616A197,197,0,0,1,155.24279417128565,121.27932576450053L134.44420350681216,105.03097706590603A170.6070045455344,170.6070045455344,0,0,0,135.55916889709277,103.58794200064733Z" fill-rule="evenodd" style="fill: #D7A449; stroke: #fff; opacity: 1;" id="p-type-tokenTransfers"></path><path d="M155.24279417128565,121.27932576450053A197,197,0,0,1,153.93760626916242,122.93174275231084L133.3138776268613,106.46201215499474A170.6070045455344,170.6070045455344,0,0,0,134.44420350681216,105.03097706590603Z" fill-rule="evenodd" style="fill: #D7A449; stroke: #fff; opacity: 1;" id="p-type-tokenTransfers"></path><path d="M153.93760626916242,122.93174275231084A197,197,0,0,1,152.6148307213893,124.57011456959364L132.16832039898492,107.88088376960611A170.6070045455344,170.6070045455344,0,0,0,133.3138776268613,106.46201215499474Z" fill-rule="evenodd" style="fill: #D7A449; stroke: #fff; opacity: 1;" id="p-type-tokenTransfers"></path><path d="M152.6148307213893,124.57011456959364A197,197,0,0,1,151.27461865742828,126.19425402945117L131.00766270513628,109.28742980113147A170.6070045455344,170.6070045455344,0,0,0,132.16832039898492,107.88088376960611Z" fill-rule="evenodd" style="fill: #D7A449; stroke: #fff; opacity: 1;" id="p-type-tokenTransfers"></path><path d="M151.27461865742828,126.19425402945117A197,197,0,0,1,149.9171231988943,127.80397557105785L129.83203715252387,110.6814895491819A170.6070045455344,170.6070045455344,0,0,0,131.00766270513628,109.28742980113147Z" fill-rule="evenodd" style="fill: #D7A449; stroke: #fff; opacity: 1;" id="p-type-tokenTransfers"></path><path d="M149.9171231988943,127.80397557105785A197,197,0,0,1,148.54249944206092,129.39909528086093L128.64157805846054,112.06290373994864A170.6070045455344,170.6070045455344,0,0,0,129.83203715252387,110.6814895491819Z" fill-rule="evenodd" style="fill: #D7A449; stroke: #fff; opacity: 1;" id="p-type-tokenTransfers"></path><path d="M148.54249944206092,129.39909528086093A197,197,0,0,1,147.15090444014035,130.979430913593L127.43642143501789,113.43151454440037A170.6070045455344,170.6070045455344,0,0,0,128.64157805846054,112.06290373994864Z" fill-rule="evenodd" style="fill: #D7A449; stroke: #fff; opacity: 1;" id="p-type-tokenTransfers"></path><path d="M147.15090444014035,130.979430913593A197,197,0,0,1,145.7424971853397,132.54480191309372L126.21670497348622,114.78716559631542A170.6070045455344,170.6070045455344,0,0,0,127.43642143501789,113.43151454440037Z" fill-rule="evenodd" style="fill: #D7A449; stroke: #fff; opacity: 1;" id="p-type-tokenTransfers"></path><path d="M145.7424971853397,132.54480191309372A197,197,0,0,1,144.3174385906959,134.09502943293876L124.98256802864336,116.12970201014699A170.6070045455344,170.6070045455344,0,0,0,126.21670497348622,114.78716559631542Z" fill-rule="evenodd" style="fill: #D7A449; stroke: #fff; opacity: 1;" id="p-type-tokenTransfers"></path><path d="M144.3174385906959,134.09502943293876A197,197,0,0,1,142.87589147169123,135.62993635687334L123.73415160283304,117.45897039871895A170.6070045455344,170.6070045455344,0,0,0,124.98256802864336,116.12970201014699Z" fill-rule="evenodd" style="fill: #D7A449; stroke: #fff; opacity: 1;" id="p-type-tokenTransfers"></path><path d="M142.87589147169123,135.62993635687334A197,197,0,0,1,141.4180205276511,137.149347319048L122.47159832985506,118.77481889075075A170.6070045455344,170.6070045455344,0,0,0,123.73415160283304,117.45897039871895Z" fill-rule="evenodd" style="fill: #D7A449; stroke: #fff; opacity: 1;" id="p-type-tokenTransfers"></path><path d="M141.4180205276511,137.149347319048A197,197,0,0,1,139.94399232292707,138.65308872405453L121.1950524586693,120.0770971482089A170.6070045455344,170.6070045455344,0,0,0,122.47159832985506,118.77481889075075Z" fill-rule="evenodd" style="fill: #D7A449; stroke: #fff; opacity: 1;" id="p-type-tokenTransfers"></path><path d="M139.94399232292707,138.65308872405453A197,197,0,0,1,138.45397526786647,140.14098876675953L119.90465983691475,121.3656563834834A170.6070045455344,170.6070045455344,0,0,0,121.1950524586693,120.0770971482089Z" fill-rule="evenodd" style="fill: #D7A449; stroke: #fff; opacity: 1;" id="p-type-tokenTransfers"></path><path d="M138.45397526786647,140.14098876675953A197,197,0,0,1,136.9481395995713,141.61287745193349L118.60056789424642,122.64034937638691A170.6070045455344,170.6070045455344,0,0,0,119.90465983691475,121.3656563834834Z" fill-rule="evenodd" style="fill: #D7A449; stroke: #fff; opacity: 1;" id="p-type-tokenTransfers"></path><path d="M136.9481395995713,141.61287745193349A197,197,0,0,1,135.4266573624483,143.06858661367292L117.28292562549112,123.90103049097502A170.6070045455344,170.6070045455344,0,0,0,118.60056789424642,122.64034937638691Z" fill-rule="evenodd" style="fill: #D7A449; stroke: #fff; opacity: 1;" id="p-type-tokenTransfers"></path><path d="M135.4266573624483,143.06858661367292A197,197,0,0,1,133.88970238855248,144.50794993461378L115.95188357362449,125.14755569218534A170.6070045455344,170.6070045455344,0,0,0,117.28292562549112,123.90103049097502Z" fill-rule="evenodd" style="fill: #D7A449; stroke: #fff; opacity: 1;" id="p-type-tokenTransfers"></path><path d="M133.88970238855248,144.50794993461378A197,197,0,0,1,132.3374502777267,145.9308029649334L114.60759381257132,126.37978256229381A170.6070045455344,170.6070045455344,0,0,0,115.95188357362449,125.14755569218534Z" fill-rule="evenodd" style="fill: #D7A449; stroke: #fff; opacity: 1;" id="p-type-tokenTransfers"></path><path d="M132.3374502777267,145.9308029649334A197,197,0,0,1,130.7700783775388,147.33698314113929L113.25020992983072,127.59757031718618A170.6070045455344,170.6070045455344,0,0,0,114.60759381257132,126.37978256229381Z" fill-rule="evenodd" style="fill: #D7A449; stroke: #fff; opacity: 1;" id="p-type-tokenTransfers"></path><path d="M130.7700783775388,147.33698314113929A197,197,0,0,1,129.1877657630196,148.72632980464212L111.87988700892852,128.8007798224428A170.6070045455344,170.6070045455344,0,0,0,113.25020992983072,127.59757031718618Z" fill-rule="evenodd" style="fill: #D7A449; stroke: #fff; opacity: 1;" id="p-type-tokenTransfers"></path><path d="M129.1877657630196,148.72632980464212A197,197,0,0,1,127.59069321620312,150.09868422011147L110.49678161169875,129.98927360923497A170.6070045455344,170.6070045455344,0,0,0,111.87988700892852,128.8007798224428Z" fill-rule="evenodd" style="fill: #D7A449; stroke: #fff; opacity: 1;" id="p-type-tokenTransfers"></path><path d="M127.59069321620312,150.09868422011147A197,197,0,0,1,125.97904320547194,151.4538895936114L109.10105176039607,131.1629158900311A170.6070045455344,170.6070045455344,0,0,0,110.49678161169875,129.98927360923497Z" fill-rule="evenodd" style="fill: #D7A449; stroke: #fff; opacity: 1;" id="p-type-tokenTransfers"></path><path d="M125.97904320547194,151.4538895936114A197,197,0,0,1,124.3529998647098,152.7917910905147L107.69285691964154,132.32157257411058A170.6070045455344,170.6070045455344,0,0,0,109.10105176039607,131.1629158900311Z" fill-rule="evenodd" style="fill: #D7A449; stroke: #fff; opacity: 1;" id="p-type-tokenTransfers"></path><path d="M124.3529998647098,152.7917910905147A197,197,0,0,1,122.71274897226405,154.11223585319274L106.27235797820343,133.4651112828839A170.6070045455344,170.6070045455344,0,0,0,107.69285691964154,132.32157257411058Z" fill-rule="evenodd" style="fill: #D7A449; stroke: #fff; opacity: 1;" id="p-type-tokenTransfers"></path><path d="M122.71274897226405,154.11223585319274A197,197,0,0,1,121.05847792972013,155.41507301848L104.83971723061542,134.59340136501714A170.6070045455344,170.6070045455344,0,0,0,106.27235797820343,133.4651112828839Z" fill-rule="evenodd" style="fill: #D7A449; stroke: #fff; opacity: 1;" id="p-type-tokenTransfers"></path><path d="M121.05847792972013,155.41507301848A197,197,0,0,1,119.39037574049061,156.70015373491015L103.39509835863423,135.70631391135916A170.6070045455344,170.6070045455344,0,0,0,104.83971723061542,134.59340136501714Z" fill-rule="evenodd" style="fill: #D7A449; stroke: #fff; opacity: 1;" id="p-type-tokenTransfers"></path><path d="M119.39037574049061,156.70015373491015A197,197,0,0,1,117.70863298822115,157.9673311797229L101.93866641253851,136.80372176966966A170.6070045455344,170.6070045455344,0,0,0,103.39509835863423,135.70631391135916Z" fill-rule="evenodd" style="fill: #D7A449; stroke: #fff; opacity: 1;" id="p-type-tokenTransfers"></path><path d="M117.70863298822115,157.9673311797229A197,197,0,0,1,116.01344181501612,159.21646057563856L100.47058779227181,137.88549955914655A170.6070045455344,170.6070045455344,0,0,0,101.93866641253851,136.80372176966966Z" fill-rule="evenodd" style="fill: #D7A449; stroke: #fff; opacity: 1;" id="p-type-tokenTransfers"></path><path d="M116.01344181501612,159.21646057563856A197,197,0,0,1,114.3049958994858,160.44739920739923L98.99103022843079,138.95152368475092A170.6070045455344,170.6070045455344,0,0,0,100.47058779227181,137.88549955914655Z" fill-rule="evenodd" style="fill: #D7A449; stroke: #fff; opacity: 1;" id="p-type-tokenTransfers"></path><path d="M-25.384545271499338,195.35768441850246A197,197,0,0,1,-45.41188532055748,191.6944461157718L-39.32784632134842,166.0122601006456A170.6070045455344,170.6070045455344,0,0,0,-21.98366106863458,169.18471753092652Z" fill-rule="evenodd" style="fill: #414552; stroke: #fff; opacity: 1;" id="p-type-ether"></path><path d="M-45.41188532055748,191.6944461157718A197,197,0,0,1,-54.507116866773906,189.30920265764115L-47.20454789367346,163.9465786716938A170.6070045455344,170.6070045455344,0,0,0,-39.32784632134842,166.0122601006456Z" fill-rule="evenodd" style="fill: #414552; stroke: #fff; opacity: 1;" id="p-type-ether"></path><path d="M-54.507116866773906,189.30920265764115A197,197,0,0,1,-62.79143352132796,186.7250274503572L-54.378976569511785,161.70861729435597A170.6070045455344,170.6070045455344,0,0,0,-47.20454789367346,163.9465786716938Z" fill-rule="evenodd" style="fill: #414552; stroke: #fff; opacity: 1;" id="p-type-ether"></path><path d="M-62.79143352132796,186.7250274503572A197,197,0,0,1,-65.14573851397064,185.91673607685073L-56.41786450139688,161.00861643123955A170.6070045455344,170.6070045455344,0,0,0,-54.378976569511785,161.70861729435597Z" fill-rule="evenodd" style="fill: #414552; stroke: #fff; opacity: 1;" id="p-type-ether"></path><path d="M-65.14573851397064,185.91673607685073A197,197,0,0,1,-67.34211887548422,185.13249046388415L-58.31998569084088,160.329439807604A170.6070045455344,170.6070045455344,0,0,0,-56.41786450139688,161.00861643123955Z" fill-rule="evenodd" style="fill: #414552; stroke: #fff; opacity: 1;" id="p-type-ether"></path><path d="M-67.34211887548422,185.13249046388415A197,197,0,0,1,-69.20213378801964,184.4452891216933L-59.930805856514446,159.73430598775195A170.6070045455344,170.6070045455344,0,0,0,-58.31998569084088,160.329439807604Z" fill-rule="evenodd" style="fill: #414552; stroke: #fff; opacity: 1;" id="p-type-ether"></path><path d="M-69.20213378801964,184.4452891216933A197,197,0,0,1,-70.94305444831717,183.78270600234154L-61.43848737430529,159.1604921742746A170.6070045455344,170.6070045455344,0,0,0,-59.930805856514446,159.73430598775195Z" fill-rule="evenodd" style="fill: #414552; stroke: #fff; opacity: 1;" id="p-type-ether"></path></g></svg>