<svg xmlns="http://www.w3.org/2000/svg" width="400" height="400" id="block-7908801"><g id="burst-container" transform="translate(200,200)"><circle r="197" style="fill: #f9f9f9; stroke: #f9f9f9; stroke-width: 3; opacity: 1;" id="circle-base"></circle><path display="none" d="M6.031385485800715e-15,-98.5A98.5,98.5,0,1,1,-6.031385485800715e-15,98.5A98.5,98.5,0,1,1,6.031385485800715e-15,-98.5Z" fill-rule="evenodd" id="p-type-root" style="stroke: #fff; opacity: 1;"></path><path d="M8.529667153919608e-15,-139.30003589374985A139.30003589374985,139.30003589374985,0,1,1,-84.69750117456046,-110.59309786232289L-59.89017743008728,-78.201129450876A98.5,98.5,0,1,0,6.031385485800715e-15,-98.5Z" fill-rule="evenodd" style="fill: #0B1F65; stroke: #fff; opacity: 1;" id="p-type-data"></path><path d="M-84.69750117456046,-110.59309786232289A139.30003589374985,139.30003589374985,0,0,1,-0.9149873244400125,-139.2970308305102L-0.6469937418112686,-98.49787509940535A98.5,98.5,0,0,0,-59.89017743008728,-78.201129450876Z" fill-rule="evenodd" style="fill: #D7A449; stroke: #fff; opacity: 1;" id="p-type-value"></path><path d="M1.0446666101440332e-14,-170.6070045455344A170.6070045455344,170.6070045455344,0,0,1,165.3473222772808,42.03585393129349L135.00552330495458,34.322131011278444A139.30003589374985,139.30003589374985,0,0,0,8.529667153919608e-15,-139.30003589374985Z" fill-rule="evenodd" style="fill: #414552; stroke: #fff; opacity: 1;" id="p-type-ether"></path><path d="M165.3473222772808,42.03585393129349A170.6070045455344,170.6070045455344,0,0,1,-28.200446554660864,168.26017001690482L-23.025568192515667,137.38385352512066A139.30003589374985,139.30003589374985,0,0,0,135.00552330495458,34.322131011278444Z" fill-rule="evenodd" style="fill: #DB3F29; stroke: #fff; opacity: 1;" id="p-type-functions"></path><path d="M-28.200446554660864,168.26017001690482A170.6070045455344,170.6070045455344,0,0,1,-147.66803172365996,85.44531822668903L-120.57044301469533,69.7658101883731A139.30003589374985,139.30003589374985,0,0,0,-23.025568192515667,137.38385352512066Z" fill-rule="evenodd" style="fill: #1DC690; stroke: #fff; opacity: 1;" id="p-type-logs"></path><path d="M-147.66803172365996,85.44531822668903A170.6070045455344,170.6070045455344,0,0,1,-166.5807614194135,-36.84562287339482L-136.01262214728837,-30.084325098279283A139.30003589374985,139.30003589374985,0,0,0,-120.57044301469533,69.7658101883731Z" fill-rule="evenodd" style="fill: #D7A449; stroke: #fff; opacity: 1;" id="p-type-tokenTransfers"></path><path d="M-103.73283018322601,-135.44832941818808A170.6070045455344,170.6070045455344,0,0,1,-47.549120856923075,-163.84697466152286L-38.823694605796916,-133.78049460648518A139.30003589374985,139.30003589374985,0,0,0,-84.69750117456046,-110.59309786232289Z" fill-rule="evenodd" style="fill: #D7A449; stroke: #fff; opacity: 1;" id="p-type-tokenTransfers"></path><path d="M-47.549120856923075,-163.84697466152286A170.6070045455344,170.6070045455344,0,0,1,-2.241203716369432,-170.59228296116365L-1.829935171578154,-139.2880157704453A139.30003589374985,139.30003589374985,0,0,0,-38.823694605796916,-133.78049460648518Z" fill-rule="evenodd" style="fill: #414552; stroke: #fff; opacity: 1;" id="p-type-ether"></path><path d="M1.206277097160143e-14,-197A197,197,0,0,1,120.94814204983038,-155.5009547710047L104.744163555682,-134.66777714442506A170.6070045455344,170.6070045455344,0,0,0,1.0446666101440332e-14,-170.6070045455344Z" fill-rule="evenodd" style="fill: #414552; stroke: #fff; opacity: 1;" id="p-type-ether"></path><path d="M120.94814204983038,-155.5009547710047A197,197,0,0,1,150.10555696476132,-127.5826076246241L129.9952255806955,-110.48977928398669A170.6070045455344,170.6070045455344,0,0,0,104.744163555682,-134.66777714442506Z" fill-rule="evenodd" style="fill: #414552; stroke: #fff; opacity: 1;" id="p-type-ether"></path><path d="M150.10555696476132,-127.5826076246241A197,197,0,0,1,167.93645359314863,-102.98712324633716L145.43723503313316,-89.1894649940069A170.6070045455344,170.6070045455344,0,0,0,129.9952255806955,-110.48977928398669Z" fill-rule="evenodd" style="fill: #414552; stroke: #fff; opacity: 1;" id="p-type-ether"></path><path d="M167.93645359314863,-102.98712324633716A197,197,0,0,1,176.94230315931568,-86.60497302509148L153.23652954009492,-75.00210673379526A170.6070045455344,170.6070045455344,0,0,0,145.43723503313316,-89.1894649940069Z" fill-rule="evenodd" style="fill: #414552; stroke: #fff; opacity: 1;" id="p-type-ether"></path><path d="M176.94230315931568,-86.60497302509148A197,197,0,0,1,181.49943526998584,-76.59605079033915L157.18312171633707,-66.33412581399682A170.6070045455344,170.6070045455344,0,0,0,153.23652954009492,-75.00210673379526Z" fill-rule="evenodd" style="fill: #414552; stroke: #fff; opacity: 1;" id="p-type-ether"></path><path d="M181.49943526998584,-76.59605079033915A197,197,0,0,1,184.66988408753434,-68.60053870850162L159.92881093373242,-59.40980923486012A170.6070045455344,170.6070045455344,0,0,0,157.18312171633707,-66.33412581399682Z" fill-rule="evenodd" style="fill: #414552; stroke: #fff; opacity: 1;" id="p-type-ether"></path><path d="M184.66988408753434,-68.60053870850162A197,197,0,0,1,187.42643808744634,-60.665725956693564L162.31605672455981,-52.53805981752164A170.6070045455344,170.6070045455344,0,0,0,159.92881093373242,-59.40980923486012Z" fill-rule="evenodd" style="fill: #414552; stroke: #fff; opacity: 1;" id="p-type-ether"></path><path d="M187.42643808744634,-60.665725956693564A197,197,0,0,1,189.59226164253036,-53.51424413434531L164.1917149433773,-46.34469488466543A170.6070045455344,170.6070045455344,0,0,0,162.31605672455981,-52.53805981752164Z" fill-rule="evenodd" style="fill: #414552; stroke: #fff; opacity: 1;" id="p-type-ether"></path><path d="M189.59226164253036,-53.51424413434531A197,197,0,0,1,191.47774757707768,-46.317083055919305L165.8245936611735,-40.1117705556199A170.6070045455344,170.6070045455344,0,0,0,164.1917149433773,-46.34469488466543Z" fill-rule="evenodd" style="fill: #414552; stroke: #fff; opacity: 1;" id="p-type-ether"></path><path d="M191.47774757707768,-46.317083055919305A197,197,0,0,1,193.02573257547354,-39.37088472084131L167.16518799446155,-34.09618633771718A170.6070045455344,170.6070045455344,0,0,0,165.8245936611735,-40.1117705556199Z" fill-rule="evenodd" style="fill: #414552; stroke: #fff; opacity: 1;" id="p-type-ether"></path><path d="M193.02573257547354,-39.37088472084131A197,197,0,0,1,193.8936790490455,-34.84596425449778L167.91685168969997,-30.17749026375955A170.6070045455344,170.6070045455344,0,0,0,167.16518799446155,-34.09618633771718Z" fill-rule="evenodd" style="fill: #414552; stroke: #fff; opacity: 1;" id="p-type-ether"></path><path d="M193.8936790490455,-34.84596425449778A197,197,0,0,1,194.5151930998365,-31.190377575998173L168.45509864649395,-27.011659334442918A170.6070045455344,170.6070045455344,0,0,0,167.91685168969997,-30.17749026375955Z" fill-rule="evenodd" style="fill: #414552; stroke: #fff; opacity: 1;" id="p-type-ether"></path><path d="M194.5151930998365,-31.190377575998173A197,197,0,0,1,195.05505464587944,-27.61386711587112L168.9226324598935,-23.914310419072116A170.6070045455344,170.6070045455344,0,0,0,168.45509864649395,-27.011659334442918Z" fill-rule="evenodd" style="fill: #414552; stroke: #fff; opacity: 1;" id="p-type-ether"></path><path d="M195.05505464587944,-27.61386711587112A197,197,0,0,1,195.3972512850418,-25.078161620227092L169.21898344249774,-21.718325043328576A170.6070045455344,170.6070045455344,0,0,0,168.9226324598935,-23.914310419072116Z" fill-rule="evenodd" style="fill: #414552; stroke: #fff; opacity: 1;" id="p-type-ether"></path><path d="M195.3972512850418,-25.078161620227092A197,197,0,0,1,195.6720818268066,-22.834981794683014L169.4569936734019,-19.77567432915066A170.6070045455344,170.6070045455344,0,0,0,169.21898344249774,-21.718325043328576Z" fill-rule="evenodd" style="fill: #414552; stroke: #fff; opacity: 1;" id="p-type-ether"></path><path d="M195.6720818268066,-22.834981794683014A197,197,0,0,1,195.88951469352847,-20.887748397898132L169.6452960596007,-18.08932074043749A170.6070045455344,170.6070045455344,0,0,0,169.4569936734019,-19.77567432915066Z" fill-rule="evenodd" style="fill: #414552; stroke: #fff; opacity: 1;" id="p-type-ether"></path><path d="M195.88951469352847,-20.887748397898132A197,197,0,0,1,196.05409506232874,-19.281903673946857L169.78782683994595,-16.69861841496248A170.6070045455344,170.6070045455344,0,0,0,169.6452960596007,-18.08932074043749Z" fill-rule="evenodd" style="fill: #414552; stroke: #fff; opacity: 1;" id="p-type-ether"></path><path d="M196.05409506232874,-19.281903673946857A197,197,0,0,1,196.1998468920575,-17.737533073491058L169.91405162713914,-15.361154242109928A170.6070045455344,170.6070045455344,0,0,0,169.78782683994595,-16.69861841496248Z" fill-rule="evenodd" style="fill: #414552; stroke: #fff; opacity: 1;" id="p-type-ether"></path><path d="M196.1998468920575,-17.737533073491058A197,197,0,0,1,196.3332957317788,-16.19373295747103L170.02962171244334,-14.024184123271223A170.6070045455344,170.6070045455344,0,0,0,169.91405162713914,-15.361154242109928Z" fill-rule="evenodd" style="fill: #414552; stroke: #fff; opacity: 1;" id="p-type-ether"></path><path d="M196.3332957317788,-16.19373295747103A197,197,0,0,1,196.45049129864785,-14.703892971586907L170.13111605056284,-12.73394484792172A170.6070045455344,170.6070045455344,0,0,0,170.02962171244334,-14.024184123271223Z" fill-rule="evenodd" style="fill: #414552; stroke: #fff; opacity: 1;" id="p-type-ether"></path><path d="M196.45049129864785,-14.703892971586907A197,197,0,0,1,196.5530089611362,-13.263282712945639L170.21989895061435,-11.486339766985912A170.6070045455344,170.6070045455344,0,0,0,170.13111605056284,-12.73394484792172Z" fill-rule="evenodd" style="fill: #414552; stroke: #fff; opacity: 1;" id="p-type-ether"></path><path d="M196.5530089611362,-13.263282712945639A197,197,0,0,1,196.63588820281666,-11.971945150617262L170.29167447935603,-10.368008633148467A170.6070045455344,170.6070045455344,0,0,0,170.21989895061435,-11.486339766985912Z" fill-rule="evenodd" style="fill: #414552; stroke: #fff; opacity: 1;" id="p-type-ether"></path><path d="M190.92664205314375,48.53882316569617A197,197,0,0,1,185.4660601791858,66.41792319555489L160.61831965498837,57.51960875395426A170.6070045455344,170.6070045455344,0,0,0,165.3473222772808,42.03585393129349Z" fill-rule="evenodd" style="fill: #DB3F29; stroke: #fff; opacity: 1;" id="p-type-functions"></path><path d="M185.4660601791858,66.41792319555489A197,197,0,0,1,181.4707207673716,76.66405614217553L157.1582542276161,66.39302017628043A170.6070045455344,170.6070045455344,0,0,0,160.61831965498837,57.51960875395426Z" fill-rule="evenodd" style="fill: #DB3F29; stroke: #fff; opacity: 1;" id="p-type-functions"></path><path d="M181.4707207673716,76.66405614217553A197,197,0,0,1,177.95134614882951,84.51223818962232L154.11038640252448,73.18974520289433A170.6070045455344,170.6070045455344,0,0,0,157.1582542276161,66.39302017628043Z" fill-rule="evenodd" style="fill: #DB3F29; stroke: #fff; opacity: 1;" id="p-type-functions"></path><path d="M177.95134614882951,84.51223818962232A197,197,0,0,1,174.18683227038838,92.02145110574808L150.85022175089537,79.69291435068546A170.6070045455344,170.6070045455344,0,0,0,154.11038640252448,73.18974520289433Z" fill-rule="evenodd" style="fill: #DB3F29; stroke: #fff; opacity: 1;" id="p-type-functions"></path><path d="M174.18683227038838,92.02145110574808A197,197,0,0,1,170.58788231164465,98.53311325858161L147.73343965967436,85.33217919590096A170.6070045455344,170.6070045455344,0,0,0,150.85022175089537,79.69291435068546Z" fill-rule="evenodd" style="fill: #DB3F29; stroke: #fff; opacity: 1;" id="p-type-functions"></path><path d="M170.58788231164465,98.53311325858161A197,197,0,0,1,166.91766013769546,104.6302763742732L144.55493401950142,90.61247734510735A170.6070045455344,170.6070045455344,0,0,0,147.73343965967436,85.33217919590096Z" fill-rule="evenodd" style="fill: #DB3F29; stroke: #fff; opacity: 1;" id="p-type-functions"></path><path d="M166.91766013769546,104.6302763742732A197,197,0,0,1,164.91876910261226,107.75342035257755L142.82384360372237,93.31719936999532A170.6070045455344,170.6070045455344,0,0,0,144.55493401950142,90.61247734510735Z" fill-rule="evenodd" style="fill: #DB3F29; stroke: #fff; opacity: 1;" id="p-type-functions"></path><path d="M164.91876910261226,107.75342035257755A197,197,0,0,1,162.91264382811977,110.76312780403137L141.08648815283786,95.92368248091366A170.6070045455344,170.6070045455344,0,0,0,142.82384360372237,93.31719936999532Z" fill-rule="evenodd" style="fill: #DB3F29; stroke: #fff; opacity: 1;" id="p-type-functions"></path><path d="M162.91264382811977,110.76312780403137A197,197,0,0,1,161.46031028856652,112.86969567390454L139.82873041281655,97.74802377101989A170.6070045455344,170.6070045455344,0,0,0,141.08648815283786,95.92368248091366Z" fill-rule="evenodd" style="fill: #DB3F29; stroke: #fff; opacity: 1;" id="p-type-functions"></path><path d="M161.46031028856652,112.86969567390454A197,197,0,0,1,160.15488385767875,114.71448546950569L138.69819796089612,99.34565859865279A170.6070045455344,170.6070045455344,0,0,0,139.82873041281655,97.74802377101989Z" fill-rule="evenodd" style="fill: #DB3F29; stroke: #fff; opacity: 1;" id="p-type-functions"></path><path d="M160.15488385767875,114.71448546950569A197,197,0,0,1,159.2095220607215,116.02296361150509L137.87949062896382,100.47883390992094A170.6070045455344,170.6070045455344,0,0,0,138.69819796089612,99.34565859865279Z" fill-rule="evenodd" style="fill: #DB3F29; stroke: #fff; opacity: 1;" id="p-type-functions"></path><path d="M159.2095220607215,116.02296361150509A197,197,0,0,1,158.29199371916755,117.27167059614621L137.0848877764859,101.5602458805032A170.6070045455344,170.6070045455344,0,0,0,137.87949062896382,100.47883390992094Z" fill-rule="evenodd" style="fill: #DB3F29; stroke: #fff; opacity: 1;" id="p-type-functions"></path><path d="M158.29199371916755,117.27167059614621A197,197,0,0,1,157.39782235953228,118.46909097514475L136.31051266370528,102.59724234772513A170.6070045455344,170.6070045455344,0,0,0,137.0848877764859,101.5602458805032Z" fill-rule="evenodd" style="fill: #DB3F29; stroke: #fff; opacity: 1;" id="p-type-functions"></path><path d="M157.39782235953228,118.46909097514475A197,197,0,0,1,156.52507357376243,119.61982002464417L135.55469004410656,103.59380293746435A170.6070045455344,170.6070045455344,0,0,0,136.31051266370528,102.59724234772513Z" fill-rule="evenodd" style="fill: #DB3F29; stroke: #fff; opacity: 1;" id="p-type-functions"></path></g></svg>