<svg xmlns="http://www.w3.org/2000/svg" width="400" height="400" id="block-7908212"><g id="burst-container" transform="translate(200,200)"><circle r="197" style="fill: #f9f9f9; stroke: #f9f9f9; stroke-width: 3; opacity: 1;" id="circle-base"></circle><path display="none" d="M6.031385485800715e-15,-98.5A98.5,98.5,0,1,1,-6.031385485800715e-15,98.5A98.5,98.5,0,1,1,6.031385485800715e-15,-98.5Z" fill-rule="evenodd" id="p-type-root" style="stroke: #fff; opacity: 1;"></path><path d="M8.529667153919608e-15,-139.30003589374985A139.30003589374985,139.30003589374985,0,1,1,-126.09181213349999,-59.2060378077282L-89.16037541169804,-41.86499082103173A98.5,98.5,0,1,0,6.031385485800715e-15,-98.5Z" fill-rule="evenodd" style="fill: #0B1F65; stroke: #fff; opacity: 1;" id="p-type-data"></path><path d="M-126.09181213349999,-59.2060378077282A139.30003589374985,139.30003589374985,0,0,1,-4.318778693439769,-139.23307132501634L-3.0538377005752384,-98.4526488993493A98.5,98.5,0,0,0,-89.16037541169804,-41.86499082103173Z" fill-rule="evenodd" style="fill: #D7A449; stroke: #fff; opacity: 1;" id="p-type-value"></path><path d="M1.0446666101440332e-14,-170.6070045455344A170.6070045455344,170.6070045455344,0,0,1,170.02823663272096,-14.04096676042814L138.827473871787,-11.464401352809425A139.30003589374985,139.30003589374985,0,0,0,8.529667153919608e-15,-139.30003589374985Z" fill-rule="evenodd" style="fill: #1DC690; stroke: #fff; opacity: 1;" id="p-type-logs"></path><path d="M170.02823663272096,-14.04096676042814A170.6070045455344,170.6070045455344,0,0,1,55.61011149224302,161.28938433703658L45.405465898426066,131.6922308511283A139.30003589374985,139.30003589374985,0,0,0,138.827473871787,-11.464401352809425Z" fill-rule="evenodd" style="fill: #414552; stroke: #fff; opacity: 1;" id="p-type-ether"></path><path d="M55.61011149224302,161.28938433703658A170.6070045455344,170.6070045455344,0,0,1,-112.87195138896557,127.93229689819138L-92.15956239173087,104.45628300760399A139.30003589374985,139.30003589374985,0,0,0,45.405465898426066,131.6922308511283Z" fill-rule="evenodd" style="fill: #D7A449; stroke: #fff; opacity: 1;" id="p-type-tokenTransfers"></path><path d="M-154.43030023497587,-72.51229116043164A170.6070045455344,170.6070045455344,0,0,1,-94.79990832406695,-141.84402483625632L-77.40380101886252,-115.81516130383073A139.30003589374985,139.30003589374985,0,0,0,-126.09181213349999,-59.2060378077282Z" fill-rule="evenodd" style="fill: #414552; stroke: #fff; opacity: 1;" id="p-type-ether"></path><path d="M-94.79990832406695,-141.84402483625632A170.6070045455344,170.6070045455344,0,0,1,-10.573718648817152,-170.27902534938252L-8.633405124450938,-139.03224200147642A139.30003589374985,139.30003589374985,0,0,0,-77.40380101886252,-115.81516130383073Z" fill-rule="evenodd" style="fill: #D7A449; stroke: #fff; opacity: 1;" id="p-type-tokenTransfers"></path><path d="M1.206277097160143e-14,-197A197,197,0,0,1,3.054204778364889,-196.97632302683442L2.645018926423815,-170.5864996852883A170.6070045455344,170.6070045455344,0,0,0,1.0446666101440332e-14,-170.6070045455344Z" fill-rule="evenodd" style="fill: #1DC690; stroke: #fff; opacity: 1;" id="p-type-logs"></path><path d="M3.054204778364889,-196.97632302683442A197,197,0,0,1,6.107675401150234,-196.90529779869863L5.289402055465414,-170.5249900334131A170.6070045455344,170.6070045455344,0,0,0,2.645018926423815,-170.5864996852883Z" fill-rule="evenodd" style="fill: #1DC690; stroke: #fff; opacity: 1;" id="p-type-logs"></path><path d="M6.107675401150234,-196.90529779869863A197,197,0,0,1,9.159677889249561,-196.78694138830755L7.932513742572745,-170.42249037531369A170.6070045455344,170.6070045455344,0,0,0,5.289402055465414,-170.5249900334131Z" fill-rule="evenodd" style="fill: #1DC690; stroke: #fff; opacity: 1;" id="p-type-logs"></path><path d="M9.159677889249561,-196.78694138830755A197,197,0,0,1,12.209478616459611,-196.62128224562625L10.573718648816904,-170.27902534938255A170.6070045455344,170.6070045455344,0,0,0,7.932513742572745,-170.42249037531369Z" fill-rule="evenodd" style="fill: #1DC690; stroke: #fff; opacity: 1;" id="p-type-logs"></path><path d="M12.209478616459611,-196.62128224562625A197,197,0,0,1,15.256344485826379,-196.40836019103108L13.212381893612283,-170.09462944107713A170.6070045455344,170.6070045455344,0,0,0,10.573718648816904,-170.27902534938255Z" fill-rule="evenodd" style="fill: #1DC690; stroke: #fff; opacity: 1;" id="p-type-logs"></path><path d="M15.256344485826379,-196.40836019103108A197,197,0,0,1,18.299543105863236,-196.148226405738L15.84786920732595,-169.86934697463073A170.6070045455344,170.6070045455344,0,0,0,13.212381893612283,-170.09462944107713Z" fill-rule="evenodd" style="fill: #1DC690; stroke: #fff; opacity: 1;" id="p-type-logs"></path><path d="M18.299543105863236,-196.148226405738A197,197,0,0,1,21.338342966599946,-195.8409434194999L18.479547083740556,-169.60323210239778A170.6070045455344,170.6070045455344,0,0,0,15.84786920732595,-169.86934697463073Z" fill-rule="evenodd" style="fill: #1DC690; stroke: #fff; opacity: 1;" id="p-type-logs"></path><path d="M21.338342966599946,-195.8409434194999A197,197,0,0,1,24.37201361541976,-195.4865850955758L21.106782932333736,-169.29634879183706A170.6070045455344,170.6070045455344,0,0,0,18.479547083740556,-169.60323210239778Z" fill-rule="evenodd" style="fill: #1DC690; stroke: #fff; opacity: 1;" id="p-type-logs"></path><path d="M24.37201361541976,-195.4865850955758A197,197,0,0,1,27.399825832641927,-195.08523661297613L23.72894523033702,-168.94877081013541A170.6070045455344,170.6070045455344,0,0,0,21.106782932333736,-169.29634879183706Z" fill-rule="evenodd" style="fill: #1DC690; stroke: #fff; opacity: 1;" id="p-type-logs"></path><path d="M27.399825832641927,-195.08523661297613A197,197,0,0,1,30.421051806808492,-194.63699444598777L26.34540367453865,-168.5605817064761A170.6070045455344,170.6070045455344,0,0,0,23.72894523033702,-168.94877081013541Z" fill-rule="evenodd" style="fill: #1DC690; stroke: #fff; opacity: 1;" id="p-type-logs"></path><path d="M30.421051806808492,-194.63699444598777A197,197,0,0,1,33.43496530963192,-194.14196634098386L28.955529332792683,-168.13187479195545A170.6070045455344,170.6070045455344,0,0,0,26.34540367453865,-168.5605817064761Z" fill-rule="evenodd" style="fill: #1DC690; stroke: #fff; opacity: 1;" id="p-type-logs"></path><path d="M33.43496530963192,-194.14196634098386A197,197,0,0,1,36.44084187056262,-193.6002712905244L31.55869479519887,-167.66275311715327A170.6070045455344,170.6070045455344,0,0,0,28.955529332792683,-168.13187479195545Z" fill-rule="evenodd" style="fill: #1DC690; stroke: #fff; opacity: 1;" id="p-type-logs"></path><path d="M36.44084187056262,-193.6002712905244A197,197,0,0,1,39.43795895093397,-193.0120395047533L34.154274324916706,-167.15332944736198A170.6070045455344,170.6070045455344,0,0,0,31.55869479519887,-167.66275311715327Z" fill-rule="evenodd" style="fill: #1DC690; stroke: #fff; opacity: 1;" id="p-type-logs"></path><path d="M39.43795895093397,-193.0120395047533A197,197,0,0,1,42.4255961176425,-192.37741238009903L36.74164400857686,-166.60372623548074A170.6070045455344,170.6070045455344,0,0,0,34.154274324916706,-167.15332944736198Z" fill-rule="evenodd" style="fill: #1DC690; stroke: #fff; opacity: 1;" id="p-type-logs"></path><path d="M42.4255961176425,-192.37741238009903A197,197,0,0,1,45.40303521632244,-191.69654246528648L39.32018190625473,-166.0140755925805A170.6070045455344,170.6070045455344,0,0,0,36.74164400857686,-166.60372623548074Z" fill-rule="evenodd" style="fill: #1DC690; stroke: #fff; opacity: 1;" id="p-type-logs"></path><path d="M45.40303521632244,-191.69654246528648A197,197,0,0,1,48.36956054397244,-190.96959342466795L41.88926820096958,-165.38451925614814A170.6070045455344,170.6070045455344,0,0,0,39.32018190625473,-166.0140755925805Z" fill-rule="evenodd" style="fill: #1DC690; stroke: #fff; opacity: 1;" id="p-type-logs"></path><path d="M48.36956054397244,-190.96959342466795A197,197,0,0,1,51.32445902099268,-190.19673999888232L44.44828534767306,-164.71520855601594A170.6070045455344,170.6070045455344,0,0,0,41.88926820096958,-165.38451925614814Z" fill-rule="evenodd" style="fill: #1DC690; stroke: #fff; opacity: 1;" id="p-type-logs"></path><path d="M51.32445902099268,-190.19673999888232A197,197,0,0,1,54.26702036259178,-189.37816796285165L46.9966182216919,-164.00630437798583A170.6070045455344,170.6070045455344,0,0,0,44.44828534767306,-164.71520855601594Z" fill-rule="evenodd" style="fill: #1DC690; stroke: #fff; opacity: 1;" id="p-type-logs"></path><path d="M54.26702036259178,-189.37816796285165A197,197,0,0,1,57.19653724952182,-188.51407408112547L49.53365426658882,-163.25797712515626A170.6070045455344,170.6070045455344,0,0,0,46.9966182216919,-164.00630437798583Z" fill-rule="evenodd" style="fill: #1DC690; stroke: #fff; opacity: 1;" id="p-type-logs"></path><path d="M57.19653724952182,-188.51407408112547A197,197,0,0,1,60.112305498100405,-187.6046660605835L52.05878364140593,-162.47040667696157A170.6070045455344,170.6070045455344,0,0,0,49.53365426658882,-163.25797712515626Z" fill-rule="evenodd" style="fill: #1DC690; stroke: #fff; opacity: 1;" id="p-type-logs"></path><path d="M60.112305498100405,-187.6046660605835A197,197,0,0,1,63.013624229478985,-186.65016250050792L54.571399367255424,-161.64378234593346A170.6070045455344,170.6070045455344,0,0,0,52.05878364140593,-162.47040667696157Z" fill-rule="evenodd" style="fill: #1DC690; stroke: #fff; opacity: 1;" id="p-type-logs"></path><path d="M63.013624229478985,-186.65016250050792A197,197,0,0,1,65.89979603811693,-185.65079284003767L57.07089747322237,-160.77830283219478A170.6070045455344,170.6070045455344,0,0,0,54.571399367255424,-161.64378234593346Z" fill-rule="evenodd" style="fill: #1DC690; stroke: #fff; opacity: 1;" id="p-type-logs"></path><path d="M65.89979603811693,-185.65079284003767A197,197,0,0,1,68.77012715942074,-184.60679730301672L59.55667714154453,-159.87417617569707A170.6070045455344,170.6070045455344,0,0,0,57.07089747322237,-160.77830283219478Z" fill-rule="evenodd" style="fill: #1DC690; stroke: #fff; opacity: 1;" id="p-type-logs"></path><path d="M68.77012715942074,-184.60679730301672A197,197,0,0,1,71.62392763650786,-183.51842684025024L62.02814085203413,-158.93161970621267A170.6070045455344,170.6070045455344,0,0,0,59.55667714154453,-159.87417617569707Z" fill-rule="evenodd" style="fill: #1DC690; stroke: #fff; opacity: 1;" id="p-type-logs"></path><path d="M71.62392763650786,-183.51842684025024A197,197,0,0,1,74.46051148605524,-182.3859430691824L64.48469452570681,-157.95085999109432A170.6070045455344,170.6070045455344,0,0,0,62.02814085203413,-158.93161970621267Z" fill-rule="evenodd" style="fill: #1DC690; stroke: #fff; opacity: 1;" id="p-type-logs"></path><path d="M74.46051148605524,-182.3859430691824A197,197,0,0,1,77.2791968631929,-181.20961821100963L66.92574766758375,-156.9321327808136A170.6070045455344,170.6070045455344,0,0,0,64.48469452570681,-157.95085999109432Z" fill-rule="evenodd" style="fill: #1DC690; stroke: #fff; opacity: 1;" id="p-type-logs"></path><path d="M77.2791968631929,-181.20961821100963A197,197,0,0,1,80.07930622540277,-179.98973502524572L69.35071350863214,-155.87568295229255A170.6070045455344,170.6070045455344,0,0,0,66.92574766758375,-156.9321327808136Z" fill-rule="evenodd" style="fill: #1DC690; stroke: #fff; opacity: 1;" id="p-type-logs"></path><path d="M80.07930622540277,-179.98973502524572A197,197,0,0,1,82.86016649538306,-178.72658674175312L71.75900914680992,-154.78176445004124A170.6070045455344,170.6070045455344,0,0,0,69.35071350863214,-155.87568295229255Z" fill-rule="evenodd" style="fill: #1DC690; stroke: #fff; opacity: 1;" id="p-type-logs"></path><path d="M82.86016649538306,-178.72658674175312A197,197,0,0,1,85.6211092228394,-177.42047699025784L74.15005568718101,-153.65064022511575A170.6070045455344,170.6070045455344,0,0,0,71.75900914680992,-154.78176445004124Z" fill-rule="evenodd" style="fill: #1DC690; stroke: #fff; opacity: 1;" id="p-type-logs"></path><path d="M85.6211092228394,-177.42047699025784A197,197,0,0,1,88.36147074516394,-176.07171972736433L76.52327838106746,-152.4825821719112A170.6070045455344,170.6070045455344,0,0,0,74.15005568718101,-153.65064022511575Z" fill-rule="evenodd" style="fill: #1DC690; stroke: #fff; opacity: 1;" id="p-type-logs"></path><path d="M88.36147074516394,-176.07171972736433A197,197,0,0,1,91.08059234696356,-174.68063916108804L78.87810676420496,-151.2778710628051A170.6070045455344,170.6070045455344,0,0,0,76.52327838106746,-152.4825821719112Z" fill-rule="evenodd" style="fill: #1DC690; stroke: #fff; opacity: 1;" id="p-type-logs"></path><path d="M91.08059234696356,-174.68063916108804A197,197,0,0,1,93.77782041839868,-173.24756967292376L81.21397479386829,-150.03679648066645A170.6070045455344,170.6070045455344,0,0,0,78.87810676420496,-151.2778710628051Z" fill-rule="evenodd" style="fill: #1DC690; stroke: #fff; opacity: 1;" id="p-type-logs"></path><path d="M93.77782041839868,-173.24756967292376A197,197,0,0,1,96.45250661229498,-171.77285573746857L83.530320984934,-148.75965674924734A170.6070045455344,170.6070045455344,0,0,0,81.21397479386829,-150.03679648066645Z" fill-rule="evenodd" style="fill: #1DC690; stroke: #fff; opacity: 1;" id="p-type-logs"></path><path d="M96.45250661229498,-171.77285573746857A197,197,0,0,1,99.10400799999007,-170.25685183961878L85.82658854484764,-147.4467588614732A170.6070045455344,170.6070045455344,0,0,0,83.530320984934,-148.75965674924734Z" fill-rule="evenodd" style="fill: #1DC690; stroke: #fff; opacity: 1;" id="p-type-logs"></path><path d="M99.10400799999007,-170.25685183961878A197,197,0,0,1,101.7316872258779,-168.69992238936018L88.10222550746313,-146.0984184056491A170.6070045455344,170.6070045455344,0,0,0,85.82658854484764,-147.4467588614732Z" fill-rule="evenodd" style="fill: #1DC690; stroke: #fff; opacity: 1;" id="p-type-logs"></path><path d="M101.7316872258779,-168.69992238936018A197,197,0,0,1,104.33491266061307,-167.10244163417315L90.35668486572156,-144.7149594896004A170.6070045455344,170.6070045455344,0,0,0,88.10222550746313,-146.0984184056491Z" fill-rule="evenodd" style="fill: #1DC690; stroke: #fff; opacity: 1;" id="p-type-logs"></path><path d="M104.33491266061307,-167.10244163417315A197,197,0,0,1,106.91305855293908,-165.46479356907264L92.5894247031384,-143.2967146627649A170.6070045455344,170.6070045455344,0,0,0,90.35668486572156,-144.7149594896004Z" fill-rule="evenodd" style="fill: #1DC690; stroke: #fff; opacity: 1;" id="p-type-logs"></path><path d="M106.91305855293908,-165.46479356907264A197,197,0,0,1,109.46550518010359,-163.78737184430526L94.79990832406678,-141.84402483625644A170.6070045455344,170.6070045455344,0,0,0,92.5894247031384,-143.2967146627649Z" fill-rule="evenodd" style="fill: #1DC690; stroke: #fff; opacity: 1;" id="p-type-logs"></path><path d="M109.46550518010359,-163.78737184430526A197,197,0,0,1,111.99163899682436,-162.07057967072546L96.9876043827059,-140.35723920091806A170.6070045455344,170.6070045455344,0,0,0,94.79990832406678,-141.84402483625644Z" fill-rule="evenodd" style="fill: #1DC690; stroke: #fff; opacity: 1;" id="p-type-logs"></path><path d="M111.99163899682436,-162.07057967072546A197,197,0,0,1,114.49085278277052,-160.31482972287364L99.15198701082355,-138.83671514338516A170.6070045455344,170.6070045455344,0,0,0,96.9876043827059,-140.35723920091806Z" fill-rule="evenodd" style="fill: #1DC690; stroke: #fff; opacity: 1;" id="p-type-logs"></path><path d="M114.49085278277052,-160.31482972287364A197,197,0,0,1,116.96254578852333,-158.52054403977922L101.29253594416181,-137.2828181601787A170.6070045455344,170.6070045455344,0,0,0,99.15198701082355,-138.83671514338516Z" fill-rule="evenodd" style="fill: #1DC690; stroke: #fff; opacity: 1;" id="p-type-logs"></path><path d="M116.96254578852333,-158.52054403977922A197,197,0,0,1,119.40612387998158,-156.68815392351297L103.40873664749574,-135.69592176984858A170.6070045455344,170.6070045455344,0,0,0,101.29253594416181,-137.2828181601787Z" fill-rule="evenodd" style="fill: #1DC690; stroke: #fff; opacity: 1;" id="p-type-logs"></path><path d="M119.40612387998158,-156.68815392351297A197,197,0,0,1,121.82099968117674,-154.81809983551256L105.50008043831507,-134.0764074231893A170.6070045455344,170.6070045455344,0,0,0,103.40873664749574,-135.69592176984858Z" fill-rule="evenodd" style="fill: #1DC690; stroke: #fff; opacity: 1;" id="p-type-logs"></path><path d="M121.82099968117674,-154.81809983551256A197,197,0,0,1,124.2065927154637,-152.91083129070654L107.56606460909876,-132.42466441154832A170.6070045455344,170.6070045455344,0,0,0,105.50008043831507,-134.0764074231893Z" fill-rule="evenodd" style="fill: #1DC690; stroke: #fff; opacity: 1;" id="p-type-logs"></path><path d="M124.2065927154637,-152.91083129070654A197,197,0,0,1,126.56232954505307,-150.96680674946194L109.60619254815377,-130.74108977325008A170.6070045455344,170.6070045455344,0,0,0,107.56606460909876,-132.42466441154832Z" fill-rule="evenodd" style="fill: #1DC690; stroke: #fff; opacity: 1;" id="p-type-logs"></path><path d="M126.56232954505307,-150.96680674946194A197,197,0,0,1,128.8876439088514,-148.9864935073818L111.61997385898799,-129.02608819815796A170.6070045455344,170.6070045455344,0,0,0,109.60619254815377,-130.74108977325008Z" fill-rule="evenodd" style="fill: #1DC690; stroke: #fff; opacity: 1;" id="p-type-logs"></path><path d="M128.8876439088514,-148.9864935073818A197,197,0,0,1,131.18197685857663,-146.97036758297867L113.6069244781897,-127.28007193039646A170.6070045455344,170.6070045455344,0,0,0,111.61997385898799,-129.02608819815796Z" fill-rule="evenodd" style="fill: #1DC690; stroke: #fff; opacity: 1;" id="p-type-logs"></path><path d="M131.18197685857663,-146.97036758297867A197,197,0,0,1,133.44477689311512,-144.91891360325172L115.56656679178434,-125.50346066925825A170.6070045455344,170.6070045455344,0,0,0,113.6069244781897,-127.28007193039646Z" fill-rule="evenodd" style="fill: #1DC690; stroke: #fff; opacity: 1;" id="p-type-logs"></path><path d="M196.33169637947765,-16.213111877631547A197,197,0,0,1,194.0947683636116,33.70787584342798L168.0910001445438,29.191876788020437A170.6070045455344,170.6070045455344,0,0,0,170.02823663272096,-14.04096676042814Z" fill-rule="evenodd" style="fill: #414552; stroke: #fff; opacity: 1;" id="p-type-ether"></path><path d="M194.0947683636116,33.70787584342798A197,197,0,0,1,187.9592684527288,58.99418109199444L162.77750135680213,51.09045950112678A170.6070045455344,170.6070045455344,0,0,0,168.0910001445438,29.191876788020437Z" fill-rule="evenodd" style="fill: #414552; stroke: #fff; opacity: 1;" id="p-type-ether"></path><path d="M187.9592684527288,58.99418109199444A197,197,0,0,1,182.06100219337648,75.25152144869475L157.66945293791844,65.16972924799921A170.6070045455344,170.6070045455344,0,0,0,162.77750135680213,51.09045950112678Z" fill-rule="evenodd" style="fill: #414552; stroke: #fff; opacity: 1;" id="p-type-ether"></path><path d="M182.06100219337648,75.25152144869475A197,197,0,0,1,175.68649624991343,89.12494059144812L152.14896885430454,77.18446266297296A170.6070045455344,170.6070045455344,0,0,0,157.66945293791844,65.16972924799921Z" fill-rule="evenodd" style="fill: #414552; stroke: #fff; opacity: 1;" id="p-type-ether"></path><path d="M175.68649624991343,89.12494059144812A197,197,0,0,1,172.24930276824364,95.59904652167789L149.17227198145622,82.79120286534344A170.6070045455344,170.6070045455344,0,0,0,152.14896885430454,77.18446266297296Z" fill-rule="evenodd" style="fill: #414552; stroke: #fff; opacity: 1;" id="p-type-ether"></path><path d="M172.24930276824364,95.59904652167789A197,197,0,0,1,168.70978047289535,101.71533794264981L146.1069557564232,88.08806661285394A170.6070045455344,170.6070045455344,0,0,0,149.17227198145622,82.79120286534344Z" fill-rule="evenodd" style="fill: #414552; stroke: #fff; opacity: 1;" id="p-type-ether"></path><path d="M168.70978047289535,101.71533794264981A197,197,0,0,1,165.1432729373693,107.40902850102289L143.018269627869,93.01894727769262A170.6070045455344,170.6070045455344,0,0,0,146.1069557564232,88.08806661285394Z" fill-rule="evenodd" style="fill: #414552; stroke: #fff; opacity: 1;" id="p-type-ether"></path><path d="M165.1432729373693,107.40902850102289A197,197,0,0,1,163.27043642192214,110.23504248012551L141.39634562835664,95.46634717504544A170.6070045455344,170.6070045455344,0,0,0,143.018269627869,93.01894727769262Z" fill-rule="evenodd" style="fill: #414552; stroke: #fff; opacity: 1;" id="p-type-ether"></path><path d="M163.27043642192214,110.23504248012551A197,197,0,0,1,161.46582471048578,112.86180687266476L139.83350604228585,97.74119186874083A170.6070045455344,170.6070045455344,0,0,0,141.39634562835664,95.46634717504544Z" fill-rule="evenodd" style="fill: #414552; stroke: #fff; opacity: 1;" id="p-type-ether"></path><path d="M161.46582471048578,112.86180687266476A197,197,0,0,1,159.63654729559076,115.43471214302315L138.24930533041763,99.96939319440207A170.6070045455344,170.6070045455344,0,0,0,139.83350604228585,97.74119186874083Z" fill-rule="evenodd" style="fill: #414552; stroke: #fff; opacity: 1;" id="p-type-ether"></path><path d="M159.63654729559076,115.43471214302315A197,197,0,0,1,158.15913469800654,117.4507901700871L136.96982848903852,101.71536798185106A170.6070045455344,170.6070045455344,0,0,0,138.24930533041763,99.96939319440207Z" fill-rule="evenodd" style="fill: #414552; stroke: #fff; opacity: 1;" id="p-type-ether"></path><path d="M158.15913469800654,117.4507901700871A197,197,0,0,1,156.77478501120513,119.29235845053283L135.7709464925475,103.31021289552068A170.6070045455344,170.6070045455344,0,0,0,136.96982848903852,101.71536798185106Z" fill-rule="evenodd" style="fill: #414552; stroke: #fff; opacity: 1;" id="p-type-ether"></path><path d="M156.77478501120513,119.29235845053283A197,197,0,0,1,155.470904857562,120.98676680848574L134.64175315600218,104.77761357789258A170.6070045455344,170.6070045455344,0,0,0,135.7709464925475,103.31021289552068Z" fill-rule="evenodd" style="fill: #414552; stroke: #fff; opacity: 1;" id="p-type-ether"></path><path d="M155.470904857562,120.98676680848574A197,197,0,0,1,154.41460853448459,122.33204269994793L133.72697370629302,105.94265667499761A170.6070045455344,170.6070045455344,0,0,0,134.64175315600218,104.77761357789258Z" fill-rule="evenodd" style="fill: #414552; stroke: #fff; opacity: 1;" id="p-type-ether"></path><path d="M154.41460853448459,122.33204269994793A197,197,0,0,1,153.79618136988526,123.10862925092357L133.19140007135965,106.61520035637983A170.6070045455344,170.6070045455344,0,0,0,133.72697370629302,105.94265667499761Z" fill-rule="evenodd" style="fill: #414552; stroke: #fff; opacity: 1;" id="p-type-ether"></path><path d="M64.21302567942321,186.24093892883417A197,197,0,0,1,61.1918456843174,187.25532842017256L52.993692867076035,162.16787140586763A170.6070045455344,170.6070045455344,0,0,0,55.61011149224302,161.28938433703658Z" fill-rule="evenodd" style="fill: #D7A449; stroke: #fff; opacity: 1;" id="p-type-tokenTransfers"></path><path d="M61.1918456843174,187.25532842017256A197,197,0,0,1,58.28136367150828,188.18151516179634L50.473141506725675,162.96997265276215A170.6070045455344,170.6070045455344,0,0,0,52.993692867076035,162.16787140586763Z" fill-rule="evenodd" style="fill: #D7A449; stroke: #fff; opacity: 1;" id="p-type-tokenTransfers"></path><path d="M58.28136367150828,188.18151516179634A197,197,0,0,1,55.35687225480368,189.062467703575L47.94045764670995,163.73289993347095A170.6070045455344,170.6070045455344,0,0,0,50.473141506725675,162.96997265276215Z" fill-rule="evenodd" style="fill: #D7A449; stroke: #fff; opacity: 1;" id="p-type-tokenTransfers"></path><path d="M55.35687225480368,189.062467703575A197,197,0,0,1,52.41907440988681,189.8979742862223L45.39625008182876,164.45646985907263A170.6070045455344,170.6070045455344,0,0,0,47.94045764670995,163.73289993347095Z" fill-rule="evenodd" style="fill: #D7A449; stroke: #fff; opacity: 1;" id="p-type-tokenTransfers"></path><path d="M52.41907440988681,189.8979742862223A197,197,0,0,1,49.468676310978395,190.68783407454092L42.84113037689676,165.1405085011843A170.6070045455344,170.6070045455344,0,0,0,45.39625008182876,164.45646985907263Z" fill-rule="evenodd" style="fill: #D7A449; stroke: #fff; opacity: 1;" id="p-type-tokenTransfers"></path><path d="M49.468676310978395,190.68783407454092A197,197,0,0,1,46.50638716108974,191.4318572056982L40.27571271973817,165.78485143376977A170.6070045455344,170.6070045455344,0,0,0,42.84113037689676,165.1405085011843Z" fill-rule="evenodd" style="fill: #D7A449; stroke: #fff; opacity: 1;" id="p-type-tokenTransfers"></path><path d="M46.50638716108974,191.4318572056982A197,197,0,0,1,43.532919021547876,192.12986483486463L37.70061377355127,166.38934377266327A170.6070045455344,170.6070045455344,0,0,0,40.27571271973817,165.78485143376977Z" fill-rule="evenodd" style="fill: #D7A449; stroke: #fff; opacity: 1;" id="p-type-tokenTransfers"></path><path d="M43.532919021547876,192.12986483486463A197,197,0,0,1,40.54898664083348,192.7816891782036L35.11645252867763,166.95384021279992A170.6070045455344,170.6070045455344,0,0,0,37.70061377355127,166.38934377266327Z" fill-rule="evenodd" style="fill: #D7A449; stroke: #fff; opacity: 1;" id="p-type-tokenTransfers"></path><path d="M40.54898664083348,192.7816891782036A197,197,0,0,1,37.555307282773036,193.3871735532026L32.523850153812184,167.47820506314358A170.6070045455344,170.6070045455344,0,0,0,35.11645252867763,166.95384021279992Z" fill-rule="evenodd" style="fill: #D7A449; stroke: #fff; opacity: 1;" id="p-type-tokenTransfers"></path><path d="M37.555307282773036,193.3871735532026A197,197,0,0,1,34.55260055412619,193.94617241633566L29.923429846689547,167.96231227930343A170.6070045455344,170.6070045455344,0,0,0,32.523850153812184,167.47820506314358Z" fill-rule="evenodd" style="fill: #D7A449; stroke: #fff; opacity: 1;" id="p-type-tokenTransfers"></path><path d="M34.55260055412619,193.94617241633566A197,197,0,0,1,31.54158823161008,194.4585513980487L27.315816684282616,168.40604549383215A170.6070045455344,170.6070045455344,0,0,0,29.923429846689547,167.96231227930343Z" fill-rule="evenodd" style="fill: #D7A449; stroke: #fff; opacity: 1;" id="p-type-tokenTransfers"></path><path d="M31.54158823161008,194.4585513980487A197,197,0,0,1,28.522994088401997,194.92418733505852L24.701637472549496,168.8092980441976A170.6070045455344,170.6070045455344,0,0,0,27.315816684282616,168.40604549383215Z" fill-rule="evenodd" style="fill: #D7A449; stroke: #fff; opacity: 1;" id="p-type-tokenTransfers"></path><path d="M28.522994088401997,194.92418733505852A197,197,0,0,1,25.4975437201621,195.34296829995807L22.08152059576476,169.17197299842198A170.6070045455344,170.6070045455344,0,0,0,24.701637472549496,168.8092980441976Z" fill-rule="evenodd" style="fill: #D7A449; stroke: #fff; opacity: 1;" id="p-type-tokenTransfers"></path><path d="M25.4975437201621,195.34296829995807A197,197,0,0,1,22.46596437061813,195.71479362812133L19.45609586547138,169.49398317838182A170.6070045455344,170.6070045455344,0,0,0,22.08152059576476,169.17197299842198Z" fill-rule="evenodd" style="fill: #D7A449; stroke: #fff; opacity: 1;" id="p-type-tokenTransfers"></path><path d="M22.46596437061813,195.71479362812133A197,197,0,0,1,19.428984756753938,196.0395739419004L16.825994369089532,169.77525118076358A170.6070045455344,170.6070045455344,0,0,0,19.45609586547138,169.49398317838182Z" fill-rule="evenodd" style="fill: #D7A449; stroke: #fff; opacity: 1;" id="p-type-tokenTransfers"></path><path d="M19.428984756753938,196.0395739419004A197,197,0,0,1,16.38733489364385,196.3172311721097L14.191848318218737,170.0157093956693A170.6070045455344,170.6070045455344,0,0,0,16.825994369089532,169.77525118076358Z" fill-rule="evenodd" style="fill: #D7A449; stroke: #fff; opacity: 1;" id="p-type-tokenTransfers"></path><path d="M16.38733489364385,196.3172311721097A197,197,0,0,1,13.34174591897506,196.54769857679207L11.554290896669762,170.2153000228685A170.6070045455344,170.6070045455344,0,0,0,14.191848318218737,170.0157093956693Z" fill-rule="evenodd" style="fill: #D7A449; stroke: #fff; opacity: 1;" id="p-type-tokenTransfers"></path><path d="M13.34174591897506,196.54769857679207A197,197,0,0,1,10.292949917300115,196.73092075726163L8.913956108262838,170.37397508569188A170.6070045455344,170.6070045455344,0,0,0,11.554290896669762,170.2153000228685Z" fill-rule="evenodd" style="fill: #D7A449; stroke: #fff; opacity: 1;" id="p-type-tokenTransfers"></path><path d="M10.292949917300115,196.73092075726163A197,197,0,0,1,7.241679744061856,196.8668536714204L6.271478624428759,170.49169644256384A170.6070045455344,170.6070045455344,0,0,0,8.913956108262838,170.37397508569188Z" fill-rule="evenodd" style="fill: #D7A449; stroke: #fff; opacity: 1;" id="p-type-tokenTransfers"></path><path d="M7.241679744061856,196.8668536714204A197,197,0,0,1,4.1886688494329976,196.9554646443449L3.6274936316495117,170.56843579617052A170.6070045455344,170.6070045455344,0,0,0,6.271478624428759,170.49169644256384Z" fill-rule="evenodd" style="fill: #D7A449; stroke: #fff; opacity: 1;" id="p-type-tokenTransfers"></path><path d="M4.1886688494329976,196.9554646443449A197,197,0,0,1,1.1346511020127925,196.99673237614044L0.9826366787750869,170.604174700262A170.6070045455344,170.6070045455344,0,0,0,3.6274936316495117,170.56843579617052Z" fill-rule="evenodd" style="fill: #D7A449; stroke: #fff; opacity: 1;" id="p-type-tokenTransfers"></path><path d="M1.1346511020127925,196.99673237614044A197,197,0,0,1,-1.9196393875769013,196.99064694706107L-1.6624564757467983,170.59890456408635A170.6070045455344,170.6070045455344,0,0,0,0.9826366787750869,170.604174700262Z" fill-rule="evenodd" style="fill: #D7A449; stroke: #fff; opacity: 1;" id="p-type-tokenTransfers"></path><path d="M-1.9196393875769013,196.99064694706107A197,197,0,0,1,-4.97346844315373,196.937209819894L-4.307150016691372,170.5526266544544A170.6070045455344,170.6070045455344,0,0,0,-1.6624564757467983,170.59890456408635Z" fill-rule="evenodd" style="fill: #D7A449; stroke: #fff; opacity: 1;" id="p-type-tokenTransfers"></path><path d="M-4.97346844315373,196.937209819894A197,197,0,0,1,-8.026101999452704,196.83643383960802L-6.9508082248911185,170.46535209543546A170.6070045455344,170.6070045455344,0,0,0,-4.307150016691372,170.5526266544544Z" fill-rule="evenodd" style="fill: #D7A449; stroke: #fff; opacity: 1;" id="p-type-tokenTransfers"></path><path d="M-8.026101999452704,196.83643383960802A197,197,0,0,1,-11.076806278577413,196.68834323026587L-9.592795630047009,170.33710186568325A170.6070045455344,170.6070045455344,0,0,0,-6.9508082248911185,170.46535209543546Z" fill-rule="evenodd" style="fill: #D7A449; stroke: #fff; opacity: 1;" id="p-type-tokenTransfers"></path><path d="M-11.076806278577413,196.68834323026587A197,197,0,0,1,-14.124847966382134,196.49297358920137L-12.232477163479896,170.16790679339314A170.6070045455344,170.6070045455344,0,0,0,-9.592795630047009,170.33710186568325Z" fill-rule="evenodd" style="fill: #D7A449; stroke: #fff; opacity: 1;" id="p-type-tokenTransfers"></path><path d="M-14.124847966382134,196.49297358920137A197,197,0,0,1,-17.169494388742514,196.2503718784628L-14.869218310785387,169.957807548892A170.6070045455344,170.6070045455344,0,0,0,-12.232477163479896,170.16790679339314Z" fill-rule="evenodd" style="fill: #D7A449; stroke: #fff; opacity: 1;" id="p-type-tokenTransfers"></path><path d="M-17.169494388742514,196.2503718784628A197,197,0,0,1,-20.21001368767234,195.96059641352414L-17.50238526435547,169.70685463486168A170.6070045455344,170.6070045455344,0,0,0,-14.869218310785387,169.957807548892Z" fill-rule="evenodd" style="fill: #D7A449; stroke: #fff; opacity: 1;" id="p-type-tokenTransfers"></path><path d="M-20.21001368767234,195.96059641352414A197,197,0,0,1,-23.245674997244205,195.6237168492678L-20.13134507573024,169.41510837419983A170.6070045455344,170.6070045455344,0,0,0,-17.50238526435547,169.70685463486168Z" fill-rule="evenodd" style="fill: #D7A449; stroke: #fff; opacity: 1;" id="p-type-tokenTransfers"></path><path d="M-23.245674997244205,195.6237168492678A197,197,0,0,1,-26.275748619271642,195.2398141632409L-22.75546580774313,169.08263889551947A170.6070045455344,170.6070045455344,0,0,0,-20.13134507573024,169.41510837419983Z" fill-rule="evenodd" style="fill: #D7A449; stroke: #fff; opacity: 1;" id="p-type-tokenTransfers"></path><path d="M-26.275748619271642,195.2398141632409A197,197,0,0,1,-29.29950619871061,194.80898063619068L-25.37411668642302,168.70952611629193A170.6070045455344,170.6070045455344,0,0,0,-22.75546580774313,169.08263889551947Z" fill-rule="evenodd" style="fill: #D7A449; stroke: #fff; opacity: 1;" id="p-type-tokenTransfers"></path><path d="M-29.29950619871061,194.80898063619068A197,197,0,0,1,-32.31622089873808,194.3313198298822L-27.986668252616763,168.2958597236366A170.6070045455344,170.6070045455344,0,0,0,-25.37411668642302,168.70952611629193Z" fill-rule="evenodd" style="fill: #D7A449; stroke: #fff; opacity: 1;" id="p-type-tokenTransfers"></path><path d="M-32.31622089873808,194.3313198298822A197,197,0,0,1,-35.325167575465734,193.8069465622047L-30.592492513295667,167.84173915276244A170.6070045455344,170.6070045455344,0,0,0,-27.986668252616763,168.2958597236366Z" fill-rule="evenodd" style="fill: #D7A449; stroke: #fff; opacity: 1;" id="p-type-tokenTransfers"></path><path d="M-35.325167575465734,193.8069465622047A197,197,0,0,1,-38.32562295224663,193.23598687957227L-33.190963092509534,167.34727356306607A170.6070045455344,170.6070045455344,0,0,0,-30.592492513295667,167.84173915276244Z" fill-rule="evenodd" style="fill: #D7A449; stroke: #fff; opacity: 1;" id="p-type-tokenTransfers"></path></g></svg>