<svg xmlns="http://www.w3.org/2000/svg" width="400" height="400" id="block-7908204"><g id="burst-container" transform="translate(200,200)"><circle r="197" style="fill: #f9f9f9; stroke: #f9f9f9; stroke-width: 3; opacity: 1;" id="circle-base"></circle><path display="none" d="M6.031385485800715e-15,-98.5A98.5,98.5,0,1,1,-6.031385485800715e-15,98.5A98.5,98.5,0,1,1,6.031385485800715e-15,-98.5Z" fill-rule="evenodd" id="p-type-root" style="stroke: #fff; opacity: 1;"></path><path d="M8.529667153919608e-15,-139.30003589374985A139.30003589374985,139.30003589374985,0,1,1,-122.15532773146774,-66.95204184203575L-86.37686059698596,-47.34224280078896A98.5,98.5,0,1,0,6.031385485800715e-15,-98.5Z" fill-rule="evenodd" style="fill: #0B1F65; stroke: #fff; opacity: 1;" id="p-type-data"></path><path d="M-122.15532773146774,-66.95204184203575A139.30003589374985,139.30003589374985,0,0,1,-4.883274872038786,-139.2144160154548L-3.4529967764164966,-98.43945760345319A98.5,98.5,0,0,0,-86.37686059698596,-47.34224280078896Z" fill-rule="evenodd" style="fill: #D7A449; stroke: #fff; opacity: 1;" id="p-type-value"></path><path d="M1.0446666101440332e-14,-170.6070045455344A170.6070045455344,170.6070045455344,0,0,1,165.1980983324404,42.61852070808368L134.88368246419984,34.797876442347814A139.30003589374985,139.30003589374985,0,0,0,8.529667153919608e-15,-139.30003589374985Z" fill-rule="evenodd" style="fill: #1DC690; stroke: #fff; opacity: 1;" id="p-type-logs"></path><path d="M165.1980983324404,42.61852070808368A170.6070045455344,170.6070045455344,0,0,1,41.99735076334944,165.357106073069L34.29069330629724,135.01351174076416A139.30003589374985,139.30003589374985,0,0,0,134.88368246419984,34.797876442347814Z" fill-rule="evenodd" style="fill: #D7A449; stroke: #fff; opacity: 1;" id="p-type-tokenTransfers"></path><path d="M41.99735076334944,165.357106073069A170.6070045455344,170.6070045455344,0,0,1,-98.71965733893832,139.14445463216492L-80.60426268759983,113.61097146221573A139.30003589374985,139.30003589374985,0,0,0,34.29069330629724,135.01351174076416Z" fill-rule="evenodd" style="fill: #414552; stroke: #fff; opacity: 1;" id="p-type-ether"></path><path d="M-149.60911115227387,-81.99916987522838A170.6070045455344,170.6070045455344,0,0,1,-85.64989720777753,-147.54946664863667L-69.93284822696153,-120.47363503632137A139.30003589374985,139.30003589374985,0,0,0,-122.15532773146774,-66.95204184203575Z" fill-rule="evenodd" style="fill: #D7A449; stroke: #fff; opacity: 1;" id="p-type-tokenTransfers"></path><path d="M-85.64989720777753,-147.54946664863667A170.6070045455344,170.6070045455344,0,0,1,-11.954179631101496,-170.18768342435172L-9.760546796590237,-138.9576616319934A139.30003589374985,139.30003589374985,0,0,0,-69.93284822696153,-120.47363503632137Z" fill-rule="evenodd" style="fill: #414552; stroke: #fff; opacity: 1;" id="p-type-ether"></path><path d="M1.206277097160143e-14,-197A197,197,0,0,1,3.453527489353792,-196.96972647561927L2.990842538448276,-170.58078690435863A170.6070045455344,170.6070045455344,0,0,0,1.0446666101440332e-14,-170.6070045455344Z" fill-rule="evenodd" style="fill: #1DC690; stroke: #fff; opacity: 1;" id="p-type-logs"></path><path d="M3.453527489353792,-196.96972647561927A197,197,0,0,1,6.905993552832968,-196.87891520690638L5.980765855124901,-170.50214203870334A170.6070045455344,170.6070045455344,0,0,0,2.990842538448276,-170.58078690435863Z" fill-rule="evenodd" style="fill: #1DC690; stroke: #fff; opacity: 1;" id="p-type-logs"></path><path d="M6.905993552832968,-196.87891520690638A197,197,0,0,1,10.356337090787326,-196.72759410428924L8.968851010776852,-170.37109411970823A170.6070045455344,170.6070045455344,0,0,0,5.980765855124901,-170.50214203870334Z" fill-rule="evenodd" style="fill: #1DC690; stroke: #fff; opacity: 1;" id="p-type-logs"></path><path d="M10.356337090787326,-196.72759410428924A197,197,0,0,1,13.803497655915113,-196.51580967561654L11.954179631101438,-170.18768342435172A170.6070045455344,170.6070045455344,0,0,0,8.968851010776852,-170.37109411970823Z" fill-rule="evenodd" style="fill: #1DC690; stroke: #fff; opacity: 1;" id="p-type-logs"></path><path d="M13.803497655915113,-196.51580967561654A197,197,0,0,1,17.24641577918685,-196.24362701186354L14.935834189004606,-169.95196632307187A170.6070045455344,170.6070045455344,0,0,0,11.954179631101438,-170.18768342435172Z" fill-rule="evenodd" style="fill: #1DC690; stroke: #fff; opacity: 1;" id="p-type-logs"></path><path d="M17.24641577918685,-196.24362701186354A197,197,0,0,1,20.684033295468016,-195.91112976712674L17.91289828659846,-169.66401526244147A170.6070045455344,170.6070045455344,0,0,0,14.935834189004606,-169.95196632307187Z" fill-rule="evenodd" style="fill: #1DC690; stroke: #fff; opacity: 1;" id="p-type-logs"></path><path d="M20.684033295468016,-195.91112976712674A197,197,0,0,1,24.115293668741444,-195.5184201329132L20.884456936852125,-169.32391874290167A170.6070045455344,170.6070045455344,0,0,0,17.91289828659846,-169.66401526244147Z" fill-rule="evenodd" style="fill: #1DC690; stroke: #fff; opacity: 1;" id="p-type-logs"></path><path d="M24.115293668741444,-195.5184201329132A197,197,0,0,1,27.539142316828798,-195.06561880673243L23.84959684480878,-168.93178129156183A170.6070045455344,170.6070045455344,0,0,0,20.884456936852125,-169.32391874290167Z" fill-rule="evenodd" style="fill: #1DC690; stroke: #fff; opacity: 1;" id="p-type-logs"></path><path d="M27.539142316828798,-195.06561880673243A197,197,0,0,1,30.95452693551156,-194.5528649550006L26.80740668828268,-168.48772343007374A170.6070045455344,170.6070045455344,0,0,0,23.84959684480878,-168.93178129156183Z" fill-rule="evenodd" style="fill: #1DC690; stroke: #fff; opacity: 1;" id="p-type-logs"></path><path d="M30.95452693551156,-194.5528649550006A197,197,0,0,1,34.36039782195193,-193.98031617026817L29.756977397949864,-167.99188163758956A170.6070045455344,170.6070045455344,0,0,0,26.80740668828268,-168.48772343007374Z" fill-rule="evenodd" style="fill: #1DC690; stroke: #fff; opacity: 1;" id="p-type-logs"></path><path d="M34.36039782195193,-193.98031617026817A197,197,0,0,1,37.75570819731414,-193.3481484227849L32.697402436746415,-167.44440830881587A170.6070045455344,170.6070045455344,0,0,0,29.756977397949864,-167.99188163758956Z" fill-rule="evenodd" style="fill: #1DC690; stroke: #fff; opacity: 1;" id="p-type-logs"></path><path d="M37.75570819731414,-193.3481484227849A197,197,0,0,1,41.13941452848734,-192.65655600641594L35.627778078488646,-166.84547170717568A170.6070045455344,170.6070045455344,0,0,0,32.697402436746415,-167.44440830881587Z" fill-rule="evenodd" style="fill: #1DC690; stroke: #fff; opacity: 1;" id="p-type-logs"></path><path d="M41.13941452848734,-192.65655600641594A197,197,0,0,1,44.51047684881042,-191.90575147892653L38.54720368562895,-166.1952559130935A170.6070045455344,170.6070045455344,0,0,0,35.627778078488646,-166.84547170717568Z" fill-rule="evenodd" style="fill: #1DC690; stroke: #fff; opacity: 1;" id="p-type-logs"></path><path d="M44.51047684881042,-191.90575147892653A197,197,0,0,1,47.867859077701226,-191.0959655966534L41.454781986062805,-165.49396076741894A170.6070045455344,170.6070045455344,0,0,0,38.54720368562895,-166.1952559130935Z" fill-rule="evenodd" style="fill: #1DC690; stroke: #fff; opacity: 1;" id="p-type-logs"></path><path d="M47.867859077701226,-191.0959655966534A197,197,0,0,1,51.2105293390911,-190.22744724358284L44.349619348901214,-164.74180181000682A170.6070045455344,170.6070045455344,0,0,0,41.454781986062805,-165.49396076741894Z" fill-rule="evenodd" style="fill: #1DC690; stroke: #fff; opacity: 1;" id="p-type-logs"></path><path d="M51.2105293390911,-190.22744724358284A197,197,0,0,1,54.53746027856731,-189.30046335485736L47.230826059124034,-163.93901021347165A170.6070045455344,170.6070045455344,0,0,0,44.349619348901214,-164.74180181000682Z" fill-rule="evenodd" style="fill: #1DC690; stroke: #fff; opacity: 1;" id="p-type-logs"></path><path d="M54.53746027856731,-189.30046335485736A197,197,0,0,1,57.8476293791257,-188.3152988347344L50.09751659102989,-163.08583271213809A170.6070045455344,170.6070045455344,0,0,0,47.230826059124034,-163.93901021347165Z" fill-rule="evenodd" style="fill: #1DC690; stroke: #fff; opacity: 1;" id="p-type-logs"></path><path d="M57.8476293791257,-188.3152988347344A197,197,0,0,1,61.14001927543658,-187.27225646902224L52.94880988039832,-162.18253152620792A170.6070045455344,170.6070045455344,0,0,0,50.09751659102989,-163.08583271213809Z" fill-rule="evenodd" style="fill: #1DC690; stroke: #fff; opacity: 1;" id="p-type-logs"></path><path d="M61.14001927543658,-187.27225646902224A197,197,0,0,1,64.41361806652748,-186.1716568320203L55.78382959528107,-161.2293842811683A170.6070045455344,170.6070045455344,0,0,0,52.94880988039832,-162.18253152620792Z" fill-rule="evenodd" style="fill: #1DC690; stroke: #fff; opacity: 1;" id="p-type-logs"></path><path d="M64.41361806652748,-186.1716568320203A197,197,0,0,1,67.66741962678601,-185.01383818799192L58.60170440533841,-160.2266839224645A170.6070045455344,170.6070045455344,0,0,0,55.78382959528107,-161.2293842811683Z" fill-rule="evenodd" style="fill: #1DC690; stroke: #fff; opacity: 1;" id="p-type-logs"></path><path d="M67.66741962678601,-185.01383818799192A197,197,0,0,1,70.90042391518817,-183.79915638720058L61.40156824963871,-159.17473862546456A170.6070045455344,170.6070045455344,0,0,0,58.60170440533841,-160.2266839224645Z" fill-rule="evenodd" style="fill: #1DC690; stroke: #fff; opacity: 1;" id="p-type-logs"></path><path d="M70.90042391518817,-183.79915638720058A197,197,0,0,1,74.11163728265636,-182.52798475654077L64.18256060283832,-158.0738717007431A170.6070045455344,170.6070045455344,0,0,0,61.40156824963871,-159.17473862546456Z" fill-rule="evenodd" style="fill: #1DC690; stroke: #fff; opacity: 1;" id="p-type-logs"></path><path d="M74.11163728265636,-182.52798475654077A197,197,0,0,1,77.30007277745275,-181.20071398479783L66.94382673966001,-156.9244214947131A170.6070045455344,170.6070045455344,0,0,0,64.18256060283832,-158.0738717007431Z" fill-rule="evenodd" style="fill: #1DC690; stroke: #fff; opacity: 1;" id="p-type-logs"></path><path d="M77.30007277745275,-181.20071398479783A197,197,0,0,1,80.46475044851454,-179.81775200257144L69.68451799758888,-155.72674128563696A170.6070045455344,170.6070045455344,0,0,0,66.94382673966001,-156.9244214947131Z" fill-rule="evenodd" style="fill: #1DC690; stroke: #fff; opacity: 1;" id="p-type-logs"></path><path d="M80.46475044851454,-179.81775200257144A197,197,0,0,1,83.60469764663733,-178.3795238569L72.403792037705,-154.48119917504772A170.6070045455344,170.6070045455344,0,0,0,69.68451799758888,-155.72674128563696Z" fill-rule="evenodd" style="fill: #1DC690; stroke: #fff; opacity: 1;" id="p-type-logs"></path><path d="M83.60469764663733,-178.3795238569A197,197,0,0,1,86.71894932341442,-176.8864715806245L75.10081310357225,-153.18817797461494A170.6070045455344,170.6070045455344,0,0,0,72.403792037705,-154.48119917504772Z" fill-rule="evenodd" style="fill: #1DC690; stroke: #fff; opacity: 1;" id="p-type-logs"></path><path d="M86.71894932341442,-176.8864715806245A197,197,0,0,1,89.80654832784016,-175.3390540565316L77.77475227810449,-151.84807508848928A170.6070045455344,170.6070045455344,0,0,0,75.10081310357225,-153.18817797461494Z" fill-rule="evenodd" style="fill: #1DC690; stroke: #fff; opacity: 1;" id="p-type-logs"></path><path d="M89.80654832784016,-175.3390540565316A197,197,0,0,1,92.8665457004857,-173.73774687631817L80.42478773832914,-150.46130239116204A170.6070045455344,170.6070045455344,0,0,0,77.77475227810449,-151.84807508848928Z" fill-rule="evenodd" style="fill: #1DC690; stroke: #fff; opacity: 1;" id="p-type-logs"></path><path d="M92.8665457004857,-173.73774687631817A197,197,0,0,1,95.89800096515741,-172.0830421944204L83.05010500797094,-149.0282861008775A170.6070045455344,170.6070045455344,0,0,0,80.42478773832914,-150.46130239116204Z" fill-rule="evenodd" style="fill: #1DC690; stroke: #fff; opacity: 1;" id="p-type-logs"></path><path d="M95.89800096515741,-172.0830421944204A197,197,0,0,1,98.89998241794817,-170.37544857675223L85.64989720777744,-147.5494666486367A170.6070045455344,170.6070045455344,0,0,0,83.05010500797094,-149.0282861008775Z" fill-rule="evenodd" style="fill: #1DC690; stroke: #fff; opacity: 1;" id="p-type-logs"></path><path d="M98.89998241794817,-170.37544857675223A197,197,0,0,1,101.87156741359189,-168.61549084440017L88.22336530350957,-146.02529854283299A170.6070045455344,170.6070045455344,0,0,0,85.64989720777744,-147.5494666486367Z" fill-rule="evenodd" style="fill: #1DC690; stroke: #fff; opacity: 1;" id="p-type-logs"></path><path d="M101.87156741359189,-168.61549084440017A197,197,0,0,1,104.81184264903462,-166.8037099123218L90.76971835152125,-144.45625022956085A170.6070045455344,170.6070045455344,0,0,0,88.22336530350957,-146.02529854283299Z" fill-rule="evenodd" style="fill: #1DC690; stroke: #fff; opacity: 1;" id="p-type-logs"></path><path d="M104.81184264903462,-166.8037099123218A197,197,0,0,1,107.719904444134,-164.940662623098L93.28817374185229,-142.84280394864132A170.6070045455344,170.6070045455344,0,0,0,90.76971835152125,-144.45625022956085Z" fill-rule="evenodd" style="fill: #1DC690; stroke: #fff; opacity: 1;" id="p-type-logs"></path><path d="M107.719904444134,-164.940662623098A197,197,0,0,1,110.59485901940111,-163.02692157579003L95.77795743875991,-141.18545558540757A170.6070045455344,170.6070045455344,0,0,0,93.28817374185229,-142.84280394864132Z" fill-rule="evenodd" style="fill: #1DC690; stroke: #fff; opacity: 1;" id="p-type-logs"></path><path d="M110.59485901940111,-163.02692157579003A197,197,0,0,1,113.43582277069964,-161.06307494995377L98.23830421861517,-139.484714518297A170.6070045455344,170.6070045455344,0,0,0,95.77795743875991,-141.18545558540757Z" fill-rule="evenodd" style="fill: #1DC690; stroke: #fff; opacity: 1;" id="p-type-logs"></path><path d="M113.43582277069964,-161.06307494995377A197,197,0,0,1,116.2419225408175,-159.04972632486542L100.6684579050909,-137.74110346229602A170.6070045455344,170.6070045455344,0,0,0,98.23830421861517,-139.484714518297Z" fill-rule="evenodd" style="fill: #1DC690; stroke: #fff; opacity: 1;" id="p-type-logs"></path><path d="M116.2419225408175,-159.04972632486542A197,197,0,0,1,119.01229588782775,-156.98749449401421L103.0676716015691,-135.955158308286A170.6070045455344,170.6070045455344,0,0,0,100.6684579050909,-137.74110346229602Z" fill-rule="evenodd" style="fill: #1DC690; stroke: #fff; opacity: 1;" id="p-type-logs"></path><path d="M119.01229588782775,-156.98749449401421A197,197,0,0,1,121.7460913501561,-154.87701327491902L105.43520792069609,-134.1274279583396A170.6070045455344,170.6070045455344,0,0,0,103.0676716015691,-135.955158308286Z" fill-rule="evenodd" style="fill: #1DC690; stroke: #fff; opacity: 1;" id="p-type-logs"></path><path d="M121.7460913501561,-154.87701327491902A197,197,0,0,1,124.44246870827385,-152.7189313143275L107.77033921101523,-132.25847415701844A170.6070045455344,170.6070045455344,0,0,0,105.43520792069609,-134.1274279583396Z" fill-rule="evenodd" style="fill: #1DC690; stroke: #fff; opacity: 1;" id="p-type-logs"></path><path d="M124.44246870827385,-152.7189313143275A197,197,0,0,1,127.10059924293542,-150.5139118888574L110.07234778060726,-130.34887131872316A170.6070045455344,170.6070045455344,0,0,0,107.77033921101523,-132.25847415701844Z" fill-rule="evenodd" style="fill: #1DC690; stroke: #fff; opacity: 1;" id="p-type-logs"></path><path d="M127.10059924293542,-150.5139118888574A197,197,0,0,1,129.71966598988138,-148.26263270114154L112.34052611766953,-128.39920635115A170.6070045455344,170.6070045455344,0,0,0,110.07234778060726,-130.34887131872316Z" fill-rule="evenodd" style="fill: #1DC690; stroke: #fff; opacity: 1;" id="p-type-logs"></path><path d="M129.71966598988138,-148.26263270114154A197,197,0,0,1,132.29886399092888,-145.96578567153915L114.5741771079667,-126.41007847490751A170.6070045455344,170.6070045455344,0,0,0,112.34052611766953,-128.39920635115Z" fill-rule="evenodd" style="fill: #1DC690; stroke: #fff; opacity: 1;" id="p-type-logs"></path><path d="M132.29886399092888,-145.96578567153915A197,197,0,0,1,134.83740054137155,-143.6240767254771L116.7726142490854,-124.38209903934849A170.6070045455344,170.6070045455344,0,0,0,114.5741771079667,-126.41007847490751Z" fill-rule="evenodd" style="fill: #1DC690; stroke: #fff; opacity: 1;" id="p-type-logs"></path><path d="M134.83740054137155,-143.6240767254771A197,197,0,0,1,137.33449543361405,-141.23822557648705L118.93516186142776,-122.31589133467482A170.6070045455344,170.6070045455344,0,0,0,116.7726142490854,-124.38209903934849Z" fill-rule="evenodd" style="fill: #1DC690; stroke: #fff; opacity: 1;" id="p-type-logs"></path><path d="M137.33449543361405,-141.23822557648705A197,197,0,0,1,139.78938119696494,-138.80896550500483L121.06115529587838,-120.21209040037203A170.6070045455344,170.6070045455344,0,0,0,118.93516186142776,-122.31589133467482Z" fill-rule="evenodd" style="fill: #1DC690; stroke: #fff; opacity: 1;" id="p-type-logs"></path><path d="M139.78938119696494,-138.80896550500483A197,197,0,0,1,142.2013033335155,-136.337043133L123.14994113808122,-118.07134283003276A170.6070045455344,170.6070045455344,0,0,0,121.06115529587838,-120.21209040037203Z" fill-rule="evenodd" style="fill: #1DC690; stroke: #fff; opacity: 1;" id="p-type-logs"></path><path d="M142.2013033335155,-136.337043133A197,197,0,0,1,144.5695205500312,-133.82321819450505L125.20087740926347,-115.89430657262926A170.6070045455344,170.6070045455344,0,0,0,123.14994113808122,-118.07134283003276Z" fill-rule="evenodd" style="fill: #1DC690; stroke: #fff; opacity: 1;" id="p-type-logs"></path><path d="M144.5695205500312,-133.82321819450505A197,197,0,0,1,146.89330498578468,-131.26826330211443L127.21333376354488,-113.68165073029566A170.6070045455344,170.6070045455344,0,0,0,125.20087740926347,-115.89430657262926Z" fill-rule="evenodd" style="fill: #1DC690; stroke: #fff; opacity: 1;" id="p-type-logs"></path><path d="M146.89330498578468,-131.26826330211443A197,197,0,0,1,149.17194243626048,-128.67296370952596L129.18669168167153,-111.43405535268265A170.6070045455344,170.6070045455344,0,0,0,127.21333376354488,-113.68165073029566Z" fill-rule="evenodd" style="fill: #1DC690; stroke: #fff; opacity: 1;" id="p-type-logs"></path><path d="M149.17194243626048,-128.67296370952596A197,197,0,0,1,151.40473257266254,-126.0381170701964L131.120344661115,-109.15221122794719A170.6070045455344,170.6070045455344,0,0,0,129.18669168167153,-111.43405535268265Z" fill-rule="evenodd" style="fill: #1DC690; stroke: #fff; opacity: 1;" id="p-type-logs"></path><path d="M151.40473257266254,-126.0381170701964A197,197,0,0,1,153.59098915715708,-123.3645331921864L133.0136984024783,-106.83681967044201A170.6070045455344,170.6070045455344,0,0,0,131.120344661115,-109.15221122794719Z" fill-rule="evenodd" style="fill: #1DC690; stroke: #fff; opacity: 1;" id="p-type-logs"></path><path d="M153.59098915715708,-123.3645331921864A197,197,0,0,1,155.7300402537845,-120.65303378926971L134.86617099215061,-104.48859230516983A170.6070045455344,170.6070045455344,0,0,0,133.0136984024783,-106.83681967044201Z" fill-rule="evenodd" style="fill: #1DC690; stroke: #fff; opacity: 1;" id="p-type-logs"></path><path d="M190.75433308369745,49.21162880655151A197,197,0,0,1,189.8623101454607,52.548103545502805L164.42558380716892,45.50799259110055A170.6070045455344,170.6070045455344,0,0,0,165.1980983324404,42.61852070808368Z" fill-rule="evenodd" style="fill: #D7A449; stroke: #fff; opacity: 1;" id="p-type-tokenTransfers"></path><path d="M189.8623101454607,52.548103545502805A197,197,0,0,1,188.91193389478576,55.86842786522726L163.602533830931,48.38347780078522A170.6070045455344,170.6070045455344,0,0,0,164.42558380716892,45.50799259110055Z" fill-rule="evenodd" style="fill: #D7A449; stroke: #fff; opacity: 1;" id="p-type-tokenTransfers"></path><path d="M188.91193389478576,55.86842786522726A197,197,0,0,1,187.90349642546536,59.171581279235056L162.72920136437148,51.24409256991327A170.6070045455344,170.6070045455344,0,0,0,163.602533830931,48.38347780078522Z" fill-rule="evenodd" style="fill: #D7A449; stroke: #fff; opacity: 1;" id="p-type-tokenTransfers"></path><path d="M187.90349642546536,59.171581279235056A197,197,0,0,1,186.8373076761424,62.45654857843573L161.8058548222286,54.088957701622206A170.6070045455344,170.6070045455344,0,0,0,162.72920136437148,51.24409256991327Z" fill-rule="evenodd" style="fill: #D7A449; stroke: #fff; opacity: 1;" id="p-type-tokenTransfers"></path><path d="M186.8373076761424,62.45654857843573A197,197,0,0,1,185.71369533505128,65.72232014315797L160.83277799083803,56.91719883962853A170.6070045455344,170.6070045455344,0,0,0,161.8058548222286,54.088957701622206Z" fill-rule="evenodd" style="fill: #D7A449; stroke: #fff; opacity: 1;" id="p-type-tokenTransfers"></path><path d="M185.71369533505128,65.72232014315797A197,197,0,0,1,184.53300473930477,68.9678922534517L159.81026994091212,59.72794673695716A170.6070045455344,170.6070045455344,0,0,0,160.83277799083803,56.91719883962853Z" fill-rule="evenodd" style="fill: #D7A449; stroke: #fff; opacity: 1;" id="p-type-tokenTransfers"></path><path d="M184.53300473930477,68.9678922534517A197,197,0,0,1,183.295598768756,72.19226739757667L158.73864493562237,62.5203375231005A170.6070045455344,170.6070045455344,0,0,0,159.81026994091212,59.72794673695716Z" fill-rule="evenodd" style="fill: #D7A449; stroke: #fff; opacity: 1;" id="p-type-tokenTransfers"></path><path d="M183.295598768756,72.19226739757667A197,197,0,0,1,182.00185773446913,75.39445457858326L157.6182323340116,65.2935129695251A170.6070045455344,170.6070045455344,0,0,0,158.73864493562237,62.5203375231005Z" fill-rule="evenodd" style="fill: #D7A449; stroke: #fff; opacity: 1;" id="p-type-tokenTransfers"></path><path d="M182.00185773446913,75.39445457858326A197,197,0,0,1,180.65217926183243,78.57346961889083L156.44937648976722,68.04662075344426A170.6070045455344,170.6070045455344,0,0,0,157.6182323340116,65.2935129695251Z" fill-rule="evenodd" style="fill: #D7A449; stroke: #fff; opacity: 1;" id="p-type-tokenTransfers"></path><path d="M180.65217926183243,78.57346961889083A197,197,0,0,1,179.24697816834993,81.72833546277012L155.2324366453857,70.77881471977555A170.6070045455344,170.6070045455344,0,0,0,156.44937648976722,68.04662075344426Z" fill-rule="evenodd" style="fill: #D7A449; stroke: #fff; opacity: 1;" id="p-type-tokenTransfers"></path><path d="M179.24697816834993,81.72833546277012A197,197,0,0,1,177.78668633614916,84.85808247663691L153.9677868217609,73.48925514120268A170.6070045455344,170.6070045455344,0,0,0,155.2324366453857,70.77881471977555Z" fill-rule="evenodd" style="fill: #D7A449; stroke: #fff; opacity: 1;" id="p-type-tokenTransfers"></path><path d="M177.78668633614916,84.85808247663691A197,197,0,0,1,176.27175257924418,87.96174874706459L152.65581570323062,76.17710897626195A170.6070045455344,170.6070045455344,0,0,0,153.9677868217609,73.48925514120268Z" fill-rule="evenodd" style="fill: #D7A449; stroke: #fff; opacity: 1;" id="p-type-tokenTransfers"></path><path d="M176.27175257924418,87.96174874706459A197,197,0,0,1,174.70264250559467,91.03838037642359L151.29692651811607,78.84155012537356A170.6070045455344,170.6070045455344,0,0,0,152.65581570323062,76.17710897626195Z" fill-rule="evenodd" style="fill: #D7A449; stroke: #fff; opacity: 1;" id="p-type-tokenTransfers"></path><path d="M174.70264250559467,91.03838037642359A197,197,0,0,1,173.07983837400334,94.08703177605766L149.8915369147916,81.48175968473964A170.6070045455344,170.6070045455344,0,0,0,151.29692651811607,78.84155012537356Z" fill-rule="evenodd" style="fill: #D7A449; stroke: #fff; opacity: 1;" id="p-type-tokenTransfers"></path><path d="M173.07983837400334,94.08703177605766A197,197,0,0,1,171.403838945896,97.10676595690613L148.44007883332247,84.09692619803062A170.6070045455344,170.6070045455344,0,0,0,149.8915369147916,81.48175968473964Z" fill-rule="evenodd" style="fill: #D7A449; stroke: #fff; opacity: 1;" id="p-type-tokenTransfers"></path><path d="M171.403838945896,97.10676595690613A197,197,0,0,1,169.67515933202952,100.09665481748324L146.94299837270984,86.6862459057825A170.6070045455344,170.6070045455344,0,0,0,148.44007883332247,84.09692619803062Z" fill-rule="evenodd" style="fill: #D7A449; stroke: #fff; opacity: 1;" id="p-type-tokenTransfers"></path><path d="M169.67515933202952,100.09665481748324A197,197,0,0,1,167.89433083417484,103.05577942912588L145.4007556537844,89.24892299242879A170.6070045455344,170.6070045455344,0,0,0,146.94299837270984,86.6862459057825Z" fill-rule="evenodd" style="fill: #D7A449; stroke: #fff; opacity: 1;" id="p-type-tokenTransfers"></path><path d="M167.89433083417484,103.05577942912588A197,197,0,0,1,166.0619007818238,105.98323031842213L143.81382467779034,91.78416983089068A170.6070045455344,170.6070045455344,0,0,0,145.4007556537844,89.24892299242879Z" fill-rule="evenodd" style="fill: #D7A449; stroke: #fff; opacity: 1;" id="p-type-tokenTransfers"></path><path d="M166.0619007818238,105.98323031842213A197,197,0,0,1,164.17843236396993,108.87810774673369L142.1826931807032,94.29120722465066A170.6070045455344,170.6070045455344,0,0,0,143.81382467779034,91.78416983089068Z" fill-rule="evenodd" style="fill: #D7A449; stroke: #fff; opacity: 1;" id="p-type-tokenTransfers"></path><path d="M164.17843236396993,108.87810774673369A197,197,0,0,1,162.244504456015,111.7395219867265L140.50786248332653,96.76926464723498A170.6070045455344,170.6070045455344,0,0,0,142.1826931807032,94.29120722465066Z" fill-rule="evenodd" style="fill: #D7A449; stroke: #fff; opacity: 1;" id="p-type-tokenTransfers"></path><path d="M162.244504456015,111.7395219867265A197,197,0,0,1,160.26071144185408,114.56659359582434L138.78984733721308,99.21758047903145A170.6070045455344,170.6070045455344,0,0,0,140.50786248332653,96.76926464723498Z" fill-rule="evenodd" style="fill: #D7A449; stroke: #fff; opacity: 1;" id="p-type-tokenTransfers"></path><path d="M160.26071144185408,114.56659359582434A197,197,0,0,1,158.22766303119465,117.35845368650149L137.02917576645845,101.63540224136979A170.6070045455344,170.6070045455344,0,0,0,138.78984733721308,99.21758047903145Z" fill-rule="evenodd" style="fill: #D7A449; stroke: #fff; opacity: 1;" id="p-type-tokenTransfers"></path><path d="M158.22766303119465,117.35845368650149A197,197,0,0,1,156.1459840721649,120.11424419333133L135.22638890541512,104.02198682779242A170.6070045455344,170.6070045455344,0,0,0,137.02917576645845,101.63540224136979Z" fill-rule="evenodd" style="fill: #D7A449; stroke: #fff; opacity: 1;" id="p-type-tokenTransfers"></path><path d="M156.1459840721649,120.11424419333133A197,197,0,0,1,154.01631435926956,122.83311813670879L133.38204083237744,106.37660073244487A170.6070045455344,170.6070045455344,0,0,0,135.22638890541512,104.02198682779242Z" fill-rule="evenodd" style="fill: #D7A449; stroke: #fff; opacity: 1;" id="p-type-tokenTransfers"></path><path d="M154.01631435926956,122.83311813670879A197,197,0,0,1,151.83930843675208,125.51423988316576L131.49669839928814,108.6985202755155A170.6070045455344,170.6070045455344,0,0,0,133.38204083237744,106.37660073244487Z" fill-rule="evenodd" style="fill: #D7A449; stroke: #fff; opacity: 1;" id="p-type-tokenTransfers"></path><path d="M151.83930843675208,125.51423988316576A197,197,0,0,1,149.6156353974233,128.15678540219906L129.57094105751887,110.9870318256551A170.6070045455344,170.6070045455344,0,0,0,131.49669839928814,108.6985202755155Z" fill-rule="evenodd" style="fill: #D7A449; stroke: #fff; opacity: 1;" id="p-type-tokenTransfers"></path><path d="M149.6156353974233,128.15678540219906A197,197,0,0,1,147.34597867701896,130.7599425195326L127.60536067977864,113.2414320193082A170.6070045455344,170.6070045455344,0,0,0,129.57094105751887,110.9870318256551Z" fill-rule="evenodd" style="fill: #D7A449; stroke: #fff; opacity: 1;" id="p-type-tokenTransfers"></path><path d="M147.34597867701896,130.7599425195326A197,197,0,0,1,145.03103584414893,133.3229111667353L125.60056137820446,115.46102797688879A170.6070045455344,170.6070045455344,0,0,0,127.60536067977864,113.2414320193082Z" fill-rule="evenodd" style="fill: #D7A449; stroke: #fff; opacity: 1;" id="p-type-tokenTransfers"></path><path d="M145.03103584414893,133.3229111667353A197,197,0,0,1,142.6715183859023,135.8449036271186L123.55715931869,117.64513751573354A170.6070045455344,170.6070045455344,0,0,0,125.60056137820446,115.46102797688879Z" fill-rule="evenodd" style="fill: #D7A449; stroke: #fff; opacity: 1;" id="p-type-tokenTransfers"></path><path d="M142.6715183859023,135.8449036271186A197,197,0,0,1,140.2681514891756,138.3251447778374L121.47578253151012,119.79308935976758A170.6070045455344,170.6070045455344,0,0,0,123.55715931869,117.64513751573354Z" fill-rule="evenodd" style="fill: #D7A449; stroke: #fff; opacity: 1;" id="p-type-tokenTransfers"></path><path d="M48.49436353694187,190.93793940740778A197,197,0,0,1,16.65294930895116,196.2948783827879L14.421877149486217,169.99635131227117A170.6070045455344,170.6070045455344,0,0,0,41.99735076334944,165.357106073069Z" fill-rule="evenodd" style="fill: #414552; stroke: #fff; opacity: 1;" id="p-type-ether"></path><path d="M16.65294930895116,196.2948783827879A197,197,0,0,1,-8.880757694137131,196.79972597231438L-7.6909617679768685,170.4335621498404A170.6070045455344,170.6070045455344,0,0,0,14.421877149486217,169.99635131227117Z" fill-rule="evenodd" style="fill: #414552; stroke: #fff; opacity: 1;" id="p-type-ether"></path><path d="M-8.880757694137131,196.79972597231438A197,197,0,0,1,-20.19434370768601,195.9622118731462L-17.488814663610516,169.70825366393316A170.6070045455344,170.6070045455344,0,0,0,-7.6909617679768685,170.4335621498404Z" fill-rule="evenodd" style="fill: #414552; stroke: #fff; opacity: 1;" id="p-type-ether"></path><path d="M-20.19434370768601,195.9622118731462A197,197,0,0,1,-24.9421518352631,195.41465928078856L-21.600537114386505,169.2340592090434A170.6070045455344,170.6070045455344,0,0,0,-17.488814663610516,169.70825366393316Z" fill-rule="evenodd" style="fill: #414552; stroke: #fff; opacity: 1;" id="p-type-ether"></path><path d="M-24.9421518352631,195.41465928078856A197,197,0,0,1,-28.388080653427842,194.9438813525946L-24.584799010550057,168.8263535636864A170.6070045455344,170.6070045455344,0,0,0,-21.600537114386505,169.2340592090434Z" fill-rule="evenodd" style="fill: #414552; stroke: #fff; opacity: 1;" id="p-type-ether"></path></g></svg>