<svg xmlns="http://www.w3.org/2000/svg" width="400" height="400" id="block-7908211"><g id="burst-container" transform="translate(200,200)"><circle r="197" style="fill: #f9f9f9; stroke: #f9f9f9; stroke-width: 3; opacity: 1;" id="circle-base"></circle><path display="none" d="M6.031385485800715e-15,-98.5A98.5,98.5,0,1,1,-6.031385485800715e-15,98.5A98.5,98.5,0,1,1,6.031385485800715e-15,-98.5Z" fill-rule="evenodd" id="p-type-root" style="stroke: #fff; opacity: 1;"></path><path d="M8.529667153919608e-15,-139.30003589374985A139.30003589374985,139.30003589374985,0,1,1,-89.22280331043612,-106.97565783591716L-63.09004925728292,-75.64321307766886A98.5,98.5,0,1,0,6.031385485800715e-15,-98.5Z" fill-rule="evenodd" style="fill: #0B1F65; stroke: #fff; opacity: 1;" id="p-type-data"></path><path d="M-89.22280331043612,-106.97565783591716A139.30003589374985,139.30003589374985,0,0,1,-3.6537611290850167,-139.25210960560557L-2.583599271211832,-98.46611099665607A98.5,98.5,0,0,0,-63.09004925728292,-75.64321307766886Z" fill-rule="evenodd" style="fill: #D7A449; stroke: #fff; opacity: 1;" id="p-type-value"></path><path d="M1.0446666101440332e-14,-170.6070045455344A170.6070045455344,170.6070045455344,0,0,1,168.3535992662929,27.637214296749693L137.46013818780466,22.565690979662993A139.30003589374985,139.30003589374985,0,0,0,8.529667153919608e-15,-139.30003589374985Z" fill-rule="evenodd" style="fill: #DB3F29; stroke: #fff; opacity: 1;" id="p-type-functions"></path><path d="M168.3535992662929,27.637214296749693A170.6070045455344,170.6070045455344,0,0,1,38.87214704356117,166.11955388882959L31.738975154387507,135.63604777546848A139.30003589374985,139.30003589374985,0,0,0,137.46013818780466,22.565690979662993Z" fill-rule="evenodd" style="fill: #414552; stroke: #fff; opacity: 1;" id="p-type-ether"></path><path d="M38.87214704356117,166.11955388882959A170.6070045455344,170.6070045455344,0,0,1,-136.18480326303077,102.76404702136641L-111.19442623857964,83.90649303524174A139.30003589374985,139.30003589374985,0,0,0,31.738975154387507,135.63604777546848Z" fill-rule="evenodd" style="fill: #1DC690; stroke: #fff; opacity: 1;" id="p-type-logs"></path><path d="M-136.18480326303077,102.76404702136641A170.6070045455344,170.6070045455344,0,0,1,-170.49524134106193,-6.1743566509432L-139.20878161942454,-5.041341094923488A139.30003589374985,139.30003589374985,0,0,0,-111.19442623857964,83.90649303524174Z" fill-rule="evenodd" style="fill: #D7A449; stroke: #fff; opacity: 1;" id="p-type-tokenTransfers"></path><path d="M-109.27517076563713,-131.017888298281A170.6070045455344,170.6070045455344,0,0,1,-57.059543822227084,-160.7823325455858L-46.58892244014417,-131.27822479705546A139.30003589374985,139.30003589374985,0,0,0,-89.22280331043612,-106.97565783591716Z" fill-rule="evenodd" style="fill: #D7A449; stroke: #fff; opacity: 1;" id="p-type-tokenTransfers"></path><path d="M-57.059543822227084,-160.7823325455858A170.6070045455344,170.6070045455344,0,0,1,-8.946771205122193,-170.37225503292254L-7.305008099324902,-139.1083637193278A139.30003589374985,139.30003589374985,0,0,0,-46.58892244014417,-131.27822479705546Z" fill-rule="evenodd" style="fill: #414552; stroke: #fff; opacity: 1;" id="p-type-ether"></path><path d="M1.206277097160143e-14,-197A197,197,0,0,1,82.1809154893388,-179.03993166144292L71.17076052002946,-155.05312911063942A170.6070045455344,170.6070045455344,0,0,0,1.0446666101440332e-14,-170.6070045455344Z" fill-rule="evenodd" style="fill: #DB3F29; stroke: #fff; opacity: 1;" id="p-type-functions"></path><path d="M82.1809154893388,-179.03993166144292A197,197,0,0,1,86.77917307023773,-176.8569340490944L75.15296839823232,-153.16259772194482A170.6070045455344,170.6070045455344,0,0,0,71.17076052002946,-155.05312911063942Z" fill-rule="evenodd" style="fill: #DB3F29; stroke: #fff; opacity: 1;" id="p-type-functions"></path><path d="M86.77917307023773,-176.8569340490944A197,197,0,0,1,89.36777433817298,-175.56309666282772L77.39476285653284,-152.0421016770718A170.6070045455344,170.6070045455344,0,0,0,75.15296839823232,-153.16259772194482Z" fill-rule="evenodd" style="fill: #DB3F29; stroke: #fff; opacity: 1;" id="p-type-functions"></path><path d="M89.36777433817298,-175.56309666282772A197,197,0,0,1,91.66274565865923,-174.37586145540888L79.38226632103066,-151.0139258271798A170.6070045455344,170.6070045455344,0,0,0,77.39476285653284,-152.0421016770718Z" fill-rule="evenodd" style="fill: #DB3F29; stroke: #fff; opacity: 1;" id="p-type-functions"></path><path d="M91.66274565865923,-174.37586145540888A197,197,0,0,1,93.94194798067447,-173.15862788090072L81.35611343226033,-149.9597706293164A170.6070045455344,170.6070045455344,0,0,0,79.38226632103066,-151.0139258271798Z" fill-rule="evenodd" style="fill: #DB3F29; stroke: #fff; opacity: 1;" id="p-type-functions"></path><path d="M93.94194798067447,-173.15862788090072A197,197,0,0,1,96.2049892066694,-171.91160534339917L83.31596462378342,-148.87981743274833A170.6070045455344,170.6070045455344,0,0,0,81.35611343226033,-149.9597706293164Z" fill-rule="evenodd" style="fill: #DB3F29; stroke: #fff; opacity: 1;" id="p-type-functions"></path><path d="M96.2049892066694,-171.91160534339917A197,197,0,0,1,98.45148001933326,-170.6350083716786L85.26148273691868,-147.774252024844A170.6070045455344,170.6070045455344,0,0,0,83.31596462378342,-148.87981743274833Z" fill-rule="evenodd" style="fill: #DB3F29; stroke: #fff; opacity: 1;" id="p-type-functions"></path><path d="M98.45148001933326,-170.6350083716786A197,197,0,0,1,100.68103394856928,-169.32905658228609L87.19233307874448,-146.64326459911234A170.6070045455344,170.6070045455344,0,0,0,85.26148273691868,-147.774252024844Z" fill-rule="evenodd" style="fill: #DB3F29; stroke: #fff; opacity: 1;" id="p-type-functions"></path><path d="M100.68103394856928,-169.32905658228609A197,197,0,0,1,102.89326743798009,-167.99397464176002L89.10818347967692,-145.48704972248296A170.6070045455344,170.6070045455344,0,0,0,87.19233307874448,-146.64326459911234Z" fill-rule="evenodd" style="fill: #DB3F29; stroke: #fff; opacity: 1;" id="p-type-functions"></path><path d="M102.89326743798009,-167.99397464176002A197,197,0,0,1,105.08779991085191,-166.62999222798024L91.00870435061383,-144.30580630183445A170.6070045455344,170.6070045455344,0,0,0,89.10818347967692,-145.48704972248296Z" fill-rule="evenodd" style="fill: #DB3F29; stroke: #fff; opacity: 1;" id="p-type-functions"></path><path d="M105.08779991085191,-166.62999222798024A197,197,0,0,1,107.26425383562643,-165.23734399065577L92.8935687396349,-143.09973754977585A170.6070045455344,170.6070045455344,0,0,0,91.00870435061383,-144.30580630183445Z" fill-rule="evenodd" style="fill: #DB3F29; stroke: #fff; opacity: 1;" id="p-type-functions"></path><path d="M107.26425383562643,-165.23734399065577A197,197,0,0,1,109.4222547908485,-163.8162695109574L94.7624523882483,-141.8690509496873A170.6070045455344,170.6070045455344,0,0,0,92.8935687396349,-143.09973754977585Z" fill-rule="evenodd" style="fill: #DB3F29; stroke: #fff; opacity: 1;" id="p-type-functions"></path><path d="M109.4222547908485,-163.8162695109574A197,197,0,0,1,111.56143152957897,-162.36701326030195L96.61503378717363,-140.6139582200263A170.6070045455344,170.6070045455344,0,0,0,94.7624523882483,-141.8690509496873Z" fill-rule="evenodd" style="fill: #DB3F29; stroke: #fff; opacity: 1;" id="p-type-functions"></path><path d="M111.56143152957897,-162.36701326030195A197,197,0,0,1,113.6814160432612,-160.88982455829503L98.45099423165203,-139.33467527790495A170.6070045455344,170.6070045455344,0,0,0,96.61503378717363,-140.6139582200263Z" fill-rule="evenodd" style="fill: #DB3F29; stroke: #fff; opacity: 1;" id="p-type-functions"></path><path d="M113.6814160432612,-160.88982455829503A197,197,0,0,1,115.7818436250308,-159.38495752984005L100.27001787627404,-138.03142220194533A170.6070045455344,170.6070045455344,0,0,0,98.45099423165203,-139.33467527790495Z" fill-rule="evenodd" style="fill: #DB3F29; stroke: #fff; opacity: 1;" id="p-type-functions"></path><path d="M115.7818436250308,-159.38495752984005A197,197,0,0,1,117.862352932457,-157.85267106142024L102.07179178931509,-136.70442319441864A170.6070045455344,170.6070045455344,0,0,0,100.27001787627404,-138.03142220194533Z" fill-rule="evenodd" style="fill: #DB3F29; stroke: #fff; opacity: 1;" id="p-type-functions"></path><path d="M117.862352932457,-157.85267106142024A197,197,0,0,1,119.92258604970549,-156.2932287565619L103.85600600657028,-135.35390654267513A170.6070045455344,170.6070045455344,0,0,0,102.07179178931509,-136.70442319441864Z" fill-rule="evenodd" style="fill: #DB3F29; stroke: #fff; opacity: 1;" id="p-type-functions"></path><path d="M119.92258604970549,-156.2932287565619A197,197,0,0,1,121.96218854911164,-154.70689889048563L105.62235358467824,-133.98010457987112A170.6070045455344,170.6070045455344,0,0,0,103.85600600657028,-135.35390654267513Z" fill-rule="evenodd" style="fill: #DB3F29; stroke: #fff; opacity: 1;" id="p-type-functions"></path><path d="M121.96218854911164,-154.70689889048563A197,197,0,0,1,123.98080955215374,-153.09395436395448L107.37053065392554,-132.5832536450001A170.6070045455344,170.6070045455344,0,0,0,105.62235358467824,-133.98010457987112Z" fill-rule="evenodd" style="fill: #DB3F29; stroke: #fff; opacity: 1;" id="p-type-functions"></path><path d="M123.98080955215374,-153.09395436395448A197,197,0,0,1,125.97810178981555,-151.45467265632604L109.10023647052213,-131.16359404223473A170.6070045455344,170.6070045455344,0,0,0,107.37053065392554,-132.5832536450001Z" fill-rule="evenodd" style="fill: #DB3F29; stroke: #fff; opacity: 1;" id="p-type-functions"></path><path d="M125.97810178981555,-151.45467265632604A197,197,0,0,1,127.95372166232796,-149.78933577781666L110.81117346833925,-129.72136999958653A170.6070045455344,170.6070045455344,0,0,0,109.10023647052213,-131.16359404223473Z" fill-rule="evenodd" style="fill: #DB3F29; stroke: #fff; opacity: 1;" id="p-type-functions"></path><path d="M127.95372166232796,-149.78933577781666A197,197,0,0,1,129.9073292982795,-148.09823022098666L112.50304731010054,-128.25682962689072A170.6070045455344,170.6070045455344,0,0,0,110.81117346833925,-129.72136999958653Z" fill-rule="evenodd" style="fill: #DB3F29; stroke: #fff; opacity: 1;" id="p-type-functions"></path><path d="M129.9073292982795,-148.09823022098666A197,197,0,0,1,131.83858861308528,-146.38164691145423L114.17556693801768,-126.77022487312328A170.6070045455344,170.6070045455344,0,0,0,112.50304731010054,-128.25682962689072Z" fill-rule="evenodd" style="fill: #DB3F29; stroke: #fff; opacity: 1;" id="p-type-functions"></path><path d="M131.83858861308528,-146.38164691145423A197,197,0,0,1,133.74716736680458,-144.6398811578465L115.82844462386183,-125.26181148305724A170.6070045455344,170.6070045455344,0,0,0,114.17556693801768,-126.77022487312328Z" fill-rule="evenodd" style="fill: #DB3F29; stroke: #fff; opacity: 1;" id="p-type-functions"></path><path d="M133.74716736680458,-144.6398811578465A197,197,0,0,1,135.63273722129708,-142.87323260099697L117.46139601846245,-123.73184895326641A170.6070045455344,170.6070045455344,0,0,0,115.82844462386183,-125.26181148305724Z" fill-rule="evenodd" style="fill: #DB3F29; stroke: #fff; opacity: 1;" id="p-type-functions"></path><path d="M135.63273722129708,-142.87323260099697A197,197,0,0,1,137.49497379670763,-141.08200516239722L119.07414020062454,-122.18060048748332A170.6070045455344,170.6070045455344,0,0,0,117.46139601846245,-123.73184895326641Z" fill-rule="evenodd" style="fill: #DB3F29; stroke: #fff; opacity: 1;" id="p-type-functions"></path><path d="M137.49497379670763,-141.08200516239722A197,197,0,0,1,139.3335567272705,-139.26650699191282L120.6663997254564,-120.60833295131964A170.6070045455344,170.6070045455344,0,0,0,119.07414020062454,-122.18060048748332Z" fill-rule="evenodd" style="fill: #DB3F29; stroke: #fff; opacity: 1;" id="p-type-functions"></path><path d="M139.3335567272705,-139.26650699191282A197,197,0,0,1,141.14816971642247,-137.42705041477097L122.23790067209923,-119.01531682635644A170.6070045455344,170.6070045455344,0,0,0,120.6663997254564,-120.60833295131964Z" fill-rule="evenodd" style="fill: #DB3F29; stroke: #fff; opacity: 1;" id="p-type-functions"></path><path d="M141.14816971642247,-137.42705041477097A197,197,0,0,1,142.93850059121647,-135.56395187783076L123.78837269085045,-117.40182616361258A170.6070045455344,170.6070045455344,0,0,0,122.23790067209923,-119.01531682635644Z" fill-rule="evenodd" style="fill: #DB3F29; stroke: #fff; opacity: 1;" id="p-type-functions"></path><path d="M142.93850059121647,-135.56395187783076A197,197,0,0,1,144.70424135602542,-133.67753189514363L125.31754904967276,-115.76813853639892A170.6070045455344,170.6070045455344,0,0,0,123.78837269085045,-117.40182616361258Z" fill-rule="evenodd" style="fill: #DB3F29; stroke: #fff; opacity: 1;" id="p-type-functions"></path><path d="M144.70424135602542,-133.67753189514363A197,197,0,0,1,146.44508824552767,-131.76811499281462L126.82516668008084,-114.11453499256662A170.6070045455344,170.6070045455344,0,0,0,125.31754904967276,-115.76813853639892Z" fill-rule="evenodd" style="fill: #DB3F29; stroke: #fff; opacity: 1;" id="p-type-functions"></path><path d="M146.44508824552767,-131.76811499281462A197,197,0,0,1,148.16074177696453,-129.8360296531731L128.31096622239764,-112.44130000615758A170.6070045455344,170.6070045455344,0,0,0,126.82516668008084,-114.11453499256662Z" fill-rule="evenodd" style="fill: #DB3F29; stroke: #fff; opacity: 1;" id="p-type-functions"></path><path d="M148.16074177696453,-129.8360296531731A197,197,0,0,1,149.8509068016611,-127.88160825826314L129.77469207037282,-110.74872142846574A170.6070045455344,170.6070045455344,0,0,0,128.31096622239764,-112.44130000615758Z" fill-rule="evenodd" style="fill: #DB3F29; stroke: #fff; opacity: 1;" id="p-type-functions"></path><path d="M149.8509068016611,-127.88160825826314A197,197,0,0,1,151.5152925558017,-125.9051870326629L131.21609241515552,-109.03709043851714A170.6070045455344,170.6070045455344,0,0,0,129.77469207037282,-110.74872142846574Z" fill-rule="evenodd" style="fill: #DB3F29; stroke: #fff; opacity: 1;" id="p-type-functions"></path><path d="M151.5152925558017,-125.9051870326629A197,197,0,0,1,153.15361271045055,-123.90710598564281L132.63491928861345,-107.30670149297755A170.6070045455344,170.6070045455344,0,0,0,131.21609241515552,-109.03709043851714Z" fill-rule="evenodd" style="fill: #DB3F29; stroke: #fff; opacity: 1;" id="p-type-functions"></path><path d="M153.15361271045055,-123.90710598564281A197,197,0,0,1,154.76558542080986,-121.88770885267313L134.03092860599187,-105.55785227549634A170.6070045455344,170.6070045455344,0,0,0,132.63491928861345,-107.30670149297755Z" fill-rule="evenodd" style="fill: #DB3F29; stroke: #fff; opacity: 1;" id="p-type-functions"></path><path d="M154.76558542080986,-121.88770885267313A197,197,0,0,1,156.3509333747064,-119.84734303628981L135.40388020790394,-103.79084364549502A170.6070045455344,170.6070045455344,0,0,0,134.03092860599187,-105.55785227549634Z" fill-rule="evenodd" style="fill: #DB3F29; stroke: #fff; opacity: 1;" id="p-type-functions"></path><path d="M156.3509333747064,-119.84734303628981A197,197,0,0,1,157.90938384029818,-117.78635954633022L136.75353790164615,-102.0059795864097A170.6070045455344,170.6070045455344,0,0,0,135.40388020790394,-103.79084364549502Z" fill-rule="evenodd" style="fill: #DB3F29; stroke: #fff; opacity: 1;" id="p-type-functions"></path><path d="M157.90938384029818,-117.78635954633022A197,197,0,0,1,159.44066871299347,-115.70511293954763L138.07966950183106,-100.20356715339581A170.6070045455344,170.6070045455344,0,0,0,136.75353790164615,-102.0059795864097Z" fill-rule="evenodd" style="fill: #DB3F29; stroke: #fff; opacity: 1;" id="p-type-functions"></path><path d="M159.44066871299347,-115.70511293954763A197,197,0,0,1,160.9445245615733,-113.60396125861602L139.382046870331,-98.38391642050466A170.6070045455344,170.6070045455344,0,0,0,138.07966950183106,-100.20356715339581Z" fill-rule="evenodd" style="fill: #DB3F29; stroke: #fff; opacity: 1;" id="p-type-functions"></path><path d="M160.9445245615733,-113.60396125861602A197,197,0,0,1,162.42069267351053,-111.48326597053502L140.66044595552515,-96.54734042734054A170.6070045455344,170.6070045455344,0,0,0,139.382046870331,-98.38391642050466Z" fill-rule="evenodd" style="fill: #DB3F29; stroke: #fff; opacity: 1;" id="p-type-functions"></path><path d="M162.42069267351053,-111.48326597053502A197,197,0,0,1,163.86891909947673,-109.34339190444548L141.91464683084382,-94.69415512520752A170.6070045455344,170.6070045455344,0,0,0,140.66044595552515,-96.54734042734054Z" fill-rule="evenodd" style="fill: #DB3F29; stroke: #fff; opacity: 1;" id="p-type-functions"></path><path d="M163.86891909947673,-109.34339190444548A197,197,0,0,1,165.28895469702988,-107.18470718886721L143.1444337326031,-92.82467932275554A170.6070045455344,170.6070045455344,0,0,0,141.91464683084382,-94.69415512520752Z" fill-rule="evenodd" style="fill: #DB3F29; stroke: #fff; opacity: 1;" id="p-type-functions"></path><path d="M165.28895469702988,-107.18470718886721A197,197,0,0,1,166.680555173475,-105.00758318836861L144.34959509712309,-90.93923463113495A170.6070045455344,170.6070045455344,0,0,0,143.1444337326031,-92.82467932275554Z" fill-rule="evenodd" style="fill: #DB3F29; stroke: #fff; opacity: 1;" id="p-type-functions"></path><path d="M166.680555173475,-105.00758318836861A197,197,0,0,1,168.04348112789052,-102.81239443967982L145.52992359712408,-89.0381454086687A170.6070045455344,170.6070045455344,0,0,0,144.34959509712309,-90.93923463113495Z" fill-rule="evenodd" style="fill: #DB3F29; stroke: #fff; opacity: 1;" id="p-type-functions"></path><path d="M168.04348112789052,-102.81239443967982A197,197,0,0,1,168.6607334158472,-101.79664534565232L146.06447975903865,-88.15848088936986A170.6070045455344,170.6070045455344,0,0,0,145.52992359712408,-89.0381454086687Z" fill-rule="evenodd" style="fill: #DB3F29; stroke: #fff; opacity: 1;" id="p-type-functions"></path><path d="M168.6607334158472,-101.79664534565232A197,197,0,0,1,169.26160970842201,-100.79438217933485L146.58485389294023,-87.29049552606148A170.6070045455344,170.6070045455344,0,0,0,146.06447975903865,-88.15848088936986Z" fill-rule="evenodd" style="fill: #DB3F29; stroke: #fff; opacity: 1;" id="p-type-functions"></path><path d="M194.39799171087316,31.912706227759617A197,197,0,0,1,163.36237430201456,110.098749595118L141.47596616808676,95.34831407427386A170.6070045455344,170.6070045455344,0,0,0,168.3535992662929,27.637214296749693Z" fill-rule="evenodd" style="fill: #414552; stroke: #fff; opacity: 1;" id="p-type-ether"></path><path d="M163.36237430201456,110.098749595118A197,197,0,0,1,132.85376290006812,145.4609146241439L115.05473365981358,125.97284732222798A170.6070045455344,170.6070045455344,0,0,0,141.47596616808676,95.34831407427386Z" fill-rule="evenodd" style="fill: #414552; stroke: #fff; opacity: 1;" id="p-type-ether"></path><path d="M132.85376290006812,145.4609146241439A197,197,0,0,1,121.105499189466,155.3784350097215L104.8804388360733,134.56167191868823A170.6070045455344,170.6070045455344,0,0,0,115.05473365981358,125.97284732222798Z" fill-rule="evenodd" style="fill: #414552; stroke: #fff; opacity: 1;" id="p-type-ether"></path><path d="M121.105499189466,155.3784350097215A197,197,0,0,1,116.57263525574152,158.80749575990376L100.95486351756963,137.53132563946616A170.6070045455344,170.6070045455344,0,0,0,104.8804388360733,134.56167191868823Z" fill-rule="evenodd" style="fill: #414552; stroke: #fff; opacity: 1;" id="p-type-ether"></path><path d="M116.57263525574152,158.80749575990376A197,197,0,0,1,111.9427341533875,162.1043622801805L96.94525154592148,140.38649579891225A170.6070045455344,170.6070045455344,0,0,0,100.95486351756963,137.53132563946616Z" fill-rule="evenodd" style="fill: #414552; stroke: #fff; opacity: 1;" id="p-type-ether"></path><path d="M111.9427341533875,162.1043622801805A197,197,0,0,1,107.2706616421061,165.23318416972054L92.89911806282883,143.09613503917075A170.6070045455344,170.6070045455344,0,0,0,96.94525154592148,140.38649579891225Z" fill-rule="evenodd" style="fill: #414552; stroke: #fff; opacity: 1;" id="p-type-ether"></path><path d="M107.2706616421061,165.23318416972054A197,197,0,0,1,102.96587599645065,167.94948163148212L89.17106433584462,145.44851764529147A170.6070045455344,170.6070045455344,0,0,0,92.89911806282883,143.09613503917075Z" fill-rule="evenodd" style="fill: #414552; stroke: #fff; opacity: 1;" id="p-type-ether"></path><path d="M102.96587599645065,167.94948163148212A197,197,0,0,1,100.48764877336245,169.44389172821L87.02485660430007,146.74271475272974A170.6070045455344,170.6070045455344,0,0,0,89.17106433584462,145.44851764529147Z" fill-rule="evenodd" style="fill: #414552; stroke: #fff; opacity: 1;" id="p-type-ether"></path><path d="M100.48764877336245,169.44389172821A197,197,0,0,1,99.46349272003548,170.04709234777127L86.13791144467929,147.26510181284834A170.6070045455344,170.6070045455344,0,0,0,87.02485660430007,146.74271475272974Z" fill-rule="evenodd" style="fill: #414552; stroke: #fff; opacity: 1;" id="p-type-ether"></path><path d="M99.46349272003548,170.04709234777127A197,197,0,0,1,98.45304691254597,170.63410430988296L85.2628397062459,147.77346908436243A170.6070045455344,170.6070045455344,0,0,0,86.13791144467929,147.26510181284834Z" fill-rule="evenodd" style="fill: #414552; stroke: #fff; opacity: 1;" id="p-type-ether"></path><path d="M44.88568911915752,191.8183383107526A197,197,0,0,1,42.36596856467742,192.39055254241765L36.69000503294359,166.6151059498585A170.6070045455344,170.6070045455344,0,0,0,38.87214704356117,166.11955388882959Z" fill-rule="evenodd" style="fill: #1DC690; stroke: #fff; opacity: 1;" id="p-type-logs"></path><path d="M42.36596856467742,192.39055254241765A197,197,0,0,1,39.838959674148455,192.92966928930753L34.50155113815639,167.08199474827077A170.6070045455344,170.6070045455344,0,0,0,36.69000503294359,166.6151059498585Z" fill-rule="evenodd" style="fill: #1DC690; stroke: #fff; opacity: 1;" id="p-type-logs"></path><path d="M39.838959674148455,192.92966928930753A197,197,0,0,1,37.30509717597688,193.43559580566065L32.3071618450431,167.52013996388072A170.6070045455344,170.6070045455344,0,0,0,34.50155113815639,167.08199474827077Z" fill-rule="evenodd" style="fill: #1DC690; stroke: #fff; opacity: 1;" id="p-type-logs"></path><path d="M37.30509717597688,193.43559580566065A197,197,0,0,1,34.7648169776142,193.9082450555236L30.10721466053045,167.92946622134167A170.6070045455344,170.6070045455344,0,0,0,32.3071618450431,167.52013996388072Z" fill-rule="evenodd" style="fill: #1DC690; stroke: #fff; opacity: 1;" id="p-type-logs"></path><path d="M34.7648169776142,193.9082450555236A197,197,0,0,1,32.21855609056686,194.3475357277241L27.90208804768475,168.30990310311287A170.6070045455344,170.6070045455344,0,0,0,30.10721466053045,167.92946622134167Z" fill-rule="evenodd" style="fill: #1DC690; stroke: #fff; opacity: 1;" id="p-type-logs"></path><path d="M32.21855609056686,194.3475357277241A197,197,0,0,1,29.666752555215883,194.7533922498594L25.692161360603862,168.66138516157363A170.6070045455344,170.6070045455344,0,0,0,27.90208804768475,168.30990310311287Z" fill-rule="evenodd" style="fill: #1DC690; stroke: #fff; opacity: 1;" id="p-type-logs"></path><path d="M29.666752555215883,194.7533922498594A197,197,0,0,1,27.109845365459584,195.12574480129697L23.47781477915583,168.98385193028253A170.6070045455344,170.6070045455344,0,0,0,25.692161360603862,168.66138516157363Z" fill-rule="evenodd" style="fill: #1DC690; stroke: #fff; opacity: 1;" id="p-type-logs"></path><path d="M27.109845365459584,195.12574480129697A197,197,0,0,1,24.54827439319223,195.46452932518613L21.259429243575497,169.27724793437955A170.6070045455344,170.6070045455344,0,0,0,23.47781477915583,168.98385193028253Z" fill-rule="evenodd" style="fill: #1DC690; stroke: #fff; opacity: 1;" id="p-type-logs"></path><path d="M24.54827439319223,195.46452932518613A197,197,0,0,1,21.982480312631626,195.7696875394778L19.037386388930276,169.54152270012963A170.6070045455344,170.6070045455344,0,0,0,21.259429243575497,169.27724793437955Z" fill-rule="evenodd" style="fill: #1DC690; stroke: #fff; opacity: 1;" id="p-type-logs"></path><path d="M21.982480312631626,195.7696875394778A197,197,0,0,1,19.41290452450871,196.041166946951L16.81206847946641,169.77663076360577A170.6070045455344,170.6070045455344,0,0,0,19.037386388930276,169.54152270012963Z" fill-rule="evenodd" style="fill: #1DC690; stroke: #fff; opacity: 1;" id="p-type-logs"></path><path d="M19.41290452450871,196.041166946951A197,197,0,0,1,16.839989080132142,196.27892084424408L14.583858342846975,169.98253167851036A170.6070045455344,170.6070045455344,0,0,0,16.81206847946641,169.77663076360577Z" fill-rule="evenodd" style="fill: #1DC690; stroke: #fff; opacity: 1;" id="p-type-logs"></path><path d="M16.839989080132142,196.27892084424408A197,197,0,0,1,14.264176605340996,196.4829083298892L12.353139304292979,170.15919002313314A170.6070045455344,170.6070045455344,0,0,0,14.583858342846975,169.98253167851036Z" fill-rule="evenodd" style="fill: #1DC690; stroke: #fff; opacity: 1;" id="p-type-logs"></path><path d="M14.264176605340996,196.4829083298892A197,197,0,0,1,11.685910224358581,196.65309431134875L10.12029512063884,170.3065754064451A170.6070045455344,170.6070045455344,0,0,0,12.353139304292979,170.15919002313314Z" fill-rule="evenodd" style="fill: #1DC690; stroke: #fff; opacity: 1;" id="p-type-logs"></path><path d="M11.685910224358581,196.65309431134875A197,197,0,0,1,9.105633483560556,196.78944951105245L7.885709914313635,170.42466247332658A170.6070045455344,170.6070045455344,0,0,0,10.12029512063884,170.3065754064451Z" fill-rule="evenodd" style="fill: #1DC690; stroke: #fff; opacity: 1;" id="p-type-logs"></path><path d="M9.105633483560556,196.78944951105245A197,197,0,0,1,6.523790275170398,196.89195047143394L5.649768107259438,170.51343090892925A170.6070045455344,170.6070045455344,0,0,0,7.885709914313635,170.42466247332658Z" fill-rule="evenodd" style="fill: #1DC690; stroke: #fff; opacity: 1;" id="p-type-logs"></path><path d="M6.523790275170398,196.89195047143394A197,197,0,0,1,3.940824760895385,196.96057955896637L3.4128543547981396,170.5728654421709A170.6070045455344,170.6070045455344,0,0,0,5.649768107259438,170.51343090892925Z" fill-rule="evenodd" style="fill: #1DC690; stroke: #fff; opacity: 1;" id="p-type-logs"></path><path d="M3.940824760895385,196.96057955896637A197,197,0,0,1,1.3571812955162164,196.99532496719584L1.1753534794581186,170.60295584836248A170.6070045455344,170.6070045455344,0,0,0,3.4128543547981396,170.5728654421709Z" fill-rule="evenodd" style="fill: #1DC690; stroke: #fff; opacity: 1;" id="p-type-logs"></path><path d="M1.3571812955162164,196.99532496719584A197,197,0,0,1,-1.2266956495565848,196.9961807187727L-1.0623495952278557,170.6036969509674A170.6070045455344,170.6070045455344,0,0,0,1.1753534794581186,170.60295584836248Z" fill-rule="evenodd" style="fill: #1DC690; stroke: #fff; opacity: 1;" id="p-type-logs"></path><path d="M-1.2266956495565848,196.9961807187727A197,197,0,0,1,-3.8103615627463316,196.9631466664796L-3.2998699109420966,170.5750886224916A170.6070045455344,170.6070045455344,0,0,0,-1.0623495952278557,170.6036969509674Z" fill-rule="evenodd" style="fill: #1DC690; stroke: #fff; opacity: 1;" id="p-type-logs"></path><path d="M-3.8103615627463316,196.9631466664796A197,197,0,0,1,-6.393371968780741,196.89622849325684L-5.536822540807453,170.51713578450583A170.6070045455344,170.6070045455344,0,0,0,-3.2998699109420966,170.5750886224916Z" fill-rule="evenodd" style="fill: #1DC690; stroke: #fff; opacity: 1;" id="p-type-logs"></path><path d="M-6.393371968780741,196.89622849325684A197,197,0,0,1,-8.97528250515626,196.795437711225L-7.772822655607358,170.42984840679895A170.6070045455344,170.6070045455344,0,0,0,-5.536822540807453,170.51713578450583Z" fill-rule="evenodd" style="fill: #1DC690; stroke: #fff; opacity: 1;" id="p-type-logs"></path><path d="M-8.97528250515626,196.795437711225A197,197,0,0,1,-11.55564899858299,196.66079165970413L-10.007485589989077,170.31324150566263A170.6070045455344,170.6070045455344,0,0,0,-7.772822655607358,170.42984840679895Z" fill-rule="evenodd" style="fill: #1DC690; stroke: #fff; opacity: 1;" id="p-type-logs"></path><path d="M-11.55564899858299,196.66079165970413A197,197,0,0,1,-14.134027541397053,196.49231350223099L-12.24042690863876,170.1673351413081A170.6070045455344,170.6070045455344,0,0,0,-10.007485589989077,170.31324150566263Z" fill-rule="evenodd" style="fill: #1DC690; stroke: #fff; opacity: 1;" id="p-type-logs"></path><path d="M-14.134027541397053,196.49231350223099A197,197,0,0,1,-16.70997456792728,196.2900322225742L-14.471262472416923,169.9921544144153A170.6070045455344,170.6070045455344,0,0,0,-12.24042690863876,170.1673351413081Z" fill-rule="evenodd" style="fill: #1DC690; stroke: #fff; opacity: 1;" id="p-type-logs"></path><path d="M-16.70997456792728,196.2900322225742A197,197,0,0,1,-19.28304693080305,196.05398261974798L-16.699608504442992,169.78772946181456A170.6070045455344,170.6070045455344,0,0,0,-14.471262472416923,169.9921544144153Z" fill-rule="evenodd" style="fill: #1DC690; stroke: #fff; opacity: 1;" id="p-type-logs"></path><path d="M-19.28304693080305,196.05398261974798A197,197,0,0,1,-21.852801977190165,195.7842053020256L-18.925081656117488,169.55409545130215A170.6070045455344,170.6070045455344,0,0,0,-16.699608504442992,169.78772946181456Z" fill-rule="evenodd" style="fill: #1DC690; stroke: #fff; opacity: 1;" id="p-type-logs"></path><path d="M-21.852801977190165,195.7842053020256A197,197,0,0,1,-24.418797624941654,195.48074667995348L-21.147299073070588,169.29129257559026A170.6070045455344,170.6070045455344,0,0,0,-18.925081656117488,169.55409545130215Z" fill-rule="evenodd" style="fill: #1DC690; stroke: #fff; opacity: 1;" id="p-type-logs"></path><path d="M-24.418797624941654,195.48074667995348A197,197,0,0,1,-26.98059243865042,195.14365895836698L-23.365878461025602,168.99936604539255A170.6070045455344,170.6070045455344,0,0,0,-21.147299073070588,169.29129257559026Z" fill-rule="evenodd" style="fill: #1DC690; stroke: #fff; opacity: 1;" id="p-type-logs"></path><path d="M-26.98059243865042,195.14365895836698A197,197,0,0,1,-29.537745705590588,194.77300012740952L-25.580438151566156,168.67836608164635A170.6070045455344,170.6070045455344,0,0,0,-23.365878461025602,168.99936604539255Z" fill-rule="evenodd" style="fill: #1DC690; stroke: #fff; opacity: 1;" id="p-type-logs"></path><path d="M-29.537745705590588,194.77300012740952A197,197,0,0,1,-32.08981751153454,194.36883395255632L-27.790597167795653,168.3283479068731A170.6070045455344,170.6070045455344,0,0,0,-25.580438151566156,168.67836608164635Z" fill-rule="evenodd" style="fill: #1DC690; stroke: #fff; opacity: 1;" id="p-type-logs"></path><path d="M-32.08981751153454,194.36883395255632A197,197,0,0,1,-34.636368816432636,193.93122996364474L-29.995975289877812,167.94937173567826A170.6070045455344,170.6070045455344,0,0,0,-27.790597167795653,168.3283479068731Z" fill-rule="evenodd" style="fill: #1DC690; stroke: #fff; opacity: 1;" id="p-type-logs"></path><path d="M-34.636368816432636,193.93122996364474A197,197,0,0,1,-37.17696152994243,193.4602634429127L-32.196193120446935,167.54150276439233A170.6070045455344,170.6070045455344,0,0,0,-29.995975289877812,167.94937173567826Z" fill-rule="evenodd" style="fill: #1DC690; stroke: #fff; opacity: 1;" id="p-type-logs"></path><path d="M-37.17696152994243,193.4602634429127A197,197,0,0,1,-39.711158586794646,192.95601541204783L-34.390872149876714,167.1048111598551A170.6070045455344,170.6070045455344,0,0,0,-32.196193120446935,167.54150276439233Z" fill-rule="evenodd" style="fill: #1DC690; stroke: #fff; opacity: 1;" id="p-type-logs"></path><path d="M-39.711158586794646,192.95601541204783A197,197,0,0,1,-42.2385240219827,192.41857261824907L-36.579634821396276,166.63937204734447A170.6070045455344,170.6070045455344,0,0,0,-34.390872149876714,167.1048111598551Z" fill-rule="evenodd" style="fill: #1DC690; stroke: #fff; opacity: 1;" id="p-type-logs"></path><path d="M-42.2385240219827,192.41857261824907A197,197,0,0,1,-44.75862304576298,191.84802751930314L-38.76210459604236,166.1452654976526A170.6070045455344,170.6070045455344,0,0,0,-36.579634821396276,166.63937204734447Z" fill-rule="evenodd" style="fill: #1DC690; stroke: #fff; opacity: 1;" id="p-type-logs"></path><path d="M-44.75862304576298,191.84802751930314A197,197,0,0,1,-47.27102211845294,191.24447826767897L-40.93790601743634,165.62257651331097A170.6070045455344,170.6070045455344,0,0,0,-38.76210459604236,166.1452654976526Z" fill-rule="evenodd" style="fill: #1DC690; stroke: #fff; opacity: 1;" id="p-type-logs"></path><path d="M-47.27102211845294,191.24447826767897A197,197,0,0,1,-49.77528902501419,190.60802869364213L-43.10666477637505,165.0713950139673A170.6070045455344,170.6070045455344,0,0,0,-40.93790601743634,165.62257651331097Z" fill-rule="evenodd" style="fill: #1DC690; stroke: #fff; opacity: 1;" id="p-type-logs"></path><path d="M-49.77528902501419,190.60802869364213A197,197,0,0,1,-52.270992949407585,189.9387882873927L-45.26800777522425,164.49181582091626A170.6070045455344,170.6070045455344,0,0,0,-43.10666477637505,165.0713950139673Z" fill-rule="evenodd" style="fill: #1DC690; stroke: #fff; opacity: 1;" id="p-type-logs"></path><path d="M-52.270992949407585,189.9387882873927A197,197,0,0,1,-54.757704548707764,189.23687218022926L-47.42156319210363,163.88393864078725A170.6070045455344,170.6070045455344,0,0,0,-45.26800777522425,164.49181582091626Z" fill-rule="evenodd" style="fill: #1DC690; stroke: #fff; opacity: 1;" id="p-type-logs"></path><path d="M-54.757704548707764,189.23687218022926A197,197,0,0,1,-57.234996026964204,188.50240112474268L-49.566960544852414,163.2478680483915A170.6070045455344,170.6070045455344,0,0,0,-47.42156319210363,163.88393864078725Z" fill-rule="evenodd" style="fill: #1DC690; stroke: #fff; opacity: 1;" id="p-type-logs"></path><path d="M-57.234996026964204,188.50240112474268A197,197,0,0,1,-59.702441208796124,187.73550147404256L-51.70383075476437,162.5837134687318A170.6070045455344,170.6070045455344,0,0,0,-49.566960544852414,163.2478680483915Z" fill-rule="evenodd" style="fill: #1DC690; stroke: #fff; opacity: 1;" id="p-type-logs"></path><path d="M-59.702441208796124,187.73550147404256A197,197,0,0,1,-62.15961561270868,186.9363051600205L-53.831806210081524,161.8915891581778A170.6070045455344,170.6070045455344,0,0,0,-51.70383075476437,162.5837134687318Z" fill-rule="evenodd" style="fill: #1DC690; stroke: #fff; opacity: 1;" id="p-type-logs"></path><path d="M-62.15961561270868,186.9363051600205A197,197,0,0,1,-64.60609652411766,186.1049496706533L-55.95052082923541,161.17161418481012A170.6070045455344,170.6070045455344,0,0,0,-53.831806210081524,161.8915891581778Z" fill-rule="evenodd" style="fill: #1DC690; stroke: #fff; opacity: 1;" id="p-type-logs"></path><path d="M-64.60609652411766,186.1049496706533A197,197,0,0,1,-67.04146306807027,185.24157802635068L-58.05961012382509,160.42391240793694A170.6070045455344,170.6070045455344,0,0,0,-55.95052082923541,161.17161418481012Z" fill-rule="evenodd" style="fill: #1DC690; stroke: #fff; opacity: 1;" id="p-type-logs"></path><path d="M-157.2526656468941,118.6617004216025A197,197,0,0,1,-158.79548784361955,116.58899193537472L-137.52092647891754,100.96902881765355A170.6070045455344,170.6070045455344,0,0,0,-136.18480326303077,102.76404702136641Z" fill-rule="evenodd" style="fill: #D7A449; stroke: #fff; opacity: 1;" id="p-type-tokenTransfers"></path><path d="M-158.79548784361955,116.58899193537472A197,197,0,0,1,-160.31099200849883,114.49622631882251L-138.8333915852441,99.15664062955274A170.6070045455344,170.6070045455344,0,0,0,-137.52092647891754,100.96902881765355Z" fill-rule="evenodd" style="fill: #D7A449; stroke: #fff; opacity: 1;" id="p-type-tokenTransfers"></path><path d="M-160.31099200849883,114.49622631882251A197,197,0,0,1,-161.79891742511225,112.38376359626734L-140.1219727949679,97.32719424727232A170.6070045455344,170.6070045455344,0,0,0,-138.8333915852441,99.15664062955274Z" fill-rule="evenodd" style="fill: #D7A449; stroke: #fff; opacity: 1;" id="p-type-tokenTransfers"></path><path d="M-161.79891742511225,112.38376359626734A197,197,0,0,1,-163.25900812148944,110.25196718057886L-141.38644842985985,95.48100439558948A170.6070045455344,170.6070045455344,0,0,0,-140.1219727949679,97.32719424727232Z" fill-rule="evenodd" style="fill: #D7A449; stroke: #fff; opacity: 1;" id="p-type-tokenTransfers"></path><path d="M-163.25900812148944,110.25196718057886A197,197,0,0,1,-164.69101291414478,108.10120381065606L-142.62660095864044,93.61838867970731A170.6070045455344,170.6070045455344,0,0,0,-141.38644842985985,95.48100439558948Z" fill-rule="evenodd" style="fill: #D7A449; stroke: #fff; opacity: 1;" id="p-type-tokenTransfers"></path><path d="M-164.69101291414478,108.10120381065606A197,197,0,0,1,-166.0946854512891,105.93184348833607L-143.84221703440198,91.7396675306162A170.6070045455344,170.6070045455344,0,0,0,-142.62660095864044,93.61838867970731Z" fill-rule="evenodd" style="fill: #D7A449; stroke: #fff; opacity: 1;" id="p-type-tokenTransfers"></path><path d="M-166.0946854512891,105.93184348833607A197,197,0,0,1,-167.46978425521053,103.74425941474178L-145.0330875313115,89.84516414996929A170.6070045455344,170.6070045455344,0,0,0,-143.84221703440198,91.7396675306162Z" fill-rule="evenodd" style="fill: #D7A449; stroke: #fff; opacity: 1;" id="p-type-tokenTransfers"></path><path d="M-167.46978425521053,103.74425941474178A197,197,0,0,1,-168.81607276381632,101.53882792607897L-146.1990075805872,87.93520445448117A170.6070045455344,170.6070045455344,0,0,0,-145.0330875313115,89.84516414996929Z" fill-rule="evenodd" style="fill: #D7A449; stroke: #fff; opacity: 1;" id="p-type-tokenTransfers"></path><path d="M-168.81607276381632,101.53882792607897A197,197,0,0,1,-170.13331937132943,99.31592842889411L-147.33977660574243,86.01011701985942A170.6070045455344,170.6070045455344,0,0,0,-146.1990075805872,87.93520445448117Z" fill-rule="evenodd" style="fill: #D7A449; stroke: #fff; opacity: 1;" id="p-type-tokenTransfers"></path><path d="M-170.13331937132943,99.31592842889411A197,197,0,0,1,-171.4212974681323,97.07594333480407L-148.45519835709166,84.07023302427898A170.6070045455344,170.6070045455344,0,0,0,-147.33977660574243,86.01011701985942Z" fill-rule="evenodd" style="fill: #D7A449; stroke: #fff; opacity: 1;" id="p-type-tokenTransfers"></path><path d="M-171.4212974681323,97.07594333480407A197,197,0,0,1,-172.67978547975113,94.81925799470872L-149.5450809455117,82.11588619140848A170.6070045455344,170.6070045455344,0,0,0,-148.45519835709166,84.07023302427898Z" fill-rule="evenodd" style="fill: #D7A449; stroke: #fff; opacity: 1;" id="p-type-tokenTransfers"></path><path d="M-172.67978547975113,94.81925799470872A197,197,0,0,1,-173.90856690497384,92.54626063249793L-150.60923687545304,80.14741273299892A170.6070045455344,170.6070045455344,0,0,0,-149.5450809455117,82.11588619140848Z" fill-rule="evenodd" style="fill: #D7A449; stroke: #fff; opacity: 1;" id="p-type-tokenTransfers"></path><path d="M-173.90856690497384,92.54626063249793A197,197,0,0,1,-175.1074303530956,90.2573422782644L-151.64748307719506,78.16515129104421A170.6070045455344,170.6070045455344,0,0,0,-150.60923687545304,80.14741273299892Z" fill-rule="evenodd" style="fill: #D7A449; stroke: #fff; opacity: 1;" id="p-type-tokenTransfers"></path><path d="M-175.1074303530956,90.2573422782644A197,197,0,0,1,-176.27616958028477,87.95289670103357L-152.6596409383403,76.16944287952361A170.6070045455344,170.6070045455344,0,0,0,-151.64748307719506,78.16515129104421Z" fill-rule="evenodd" style="fill: #D7A449; stroke: #fff; opacity: 1;" id="p-type-tokenTransfers"></path><path d="M-176.27616958028477,87.95289670103357A197,197,0,0,1,-177.41458352506376,85.63332034102248L-153.64553633454136,74.16063082573618A170.6070045455344,170.6070045455344,0,0,0,-152.6596409383403,76.16944287952361Z" fill-rule="evenodd" style="fill: #D7A449; stroke: #fff; opacity: 1;" id="p-type-tokenTransfers"></path><path d="M-177.41458352506376,85.63332034102248A197,197,0,0,1,-178.52247634289802,83.29901224143907L-154.60499965945615,72.13906071123716A170.6070045455344,170.6070045455344,0,0,0,-153.64553633454136,74.16063082573618Z" fill-rule="evenodd" style="fill: #D7A449; stroke: #fff; opacity: 1;" id="p-type-tokenTransfers"></path><path d="M-178.52247634289802,83.29901224143907A197,197,0,0,1,-179.5996574398879,80.95037397983359L-155.53786585392578,70.1050803123867A170.6070045455344,170.6070045455344,0,0,0,-154.60499965945615,72.13906071123716Z" fill-rule="evenodd" style="fill: #D7A449; stroke: #fff; opacity: 1;" id="p-type-tokenTransfers"></path><path d="M-179.5996574398879,80.95037397983359A197,197,0,0,1,-180.64594150555692,78.58780959901418L-156.44397443437003,68.05903954052083A170.6070045455344,170.6070045455344,0,0,0,-155.53786585392578,70.1050803123867Z" fill-rule="evenodd" style="fill: #D7A449; stroke: #fff; opacity: 1;" id="p-type-tokenTransfers"></path><path d="M-180.64594150555692,78.58780959901418A197,197,0,0,1,-181.66114854473136,76.21172553753819L-157.32316952039585,66.00129038175533A170.6070045455344,170.6070045455344,0,0,0,-156.44397443437003,68.05903954052083Z" fill-rule="evenodd" style="fill: #D7A449; stroke: #fff; opacity: 1;" id="p-type-tokenTransfers"></path><path d="M-181.66114854473136,76.21172553753819A197,197,0,0,1,-182.64510390850518,73.82253055979146L-158.17529986161395,63.93218683643246A170.6070045455344,170.6070045455344,0,0,0,-157.32316952039585,66.00129038175533Z" fill-rule="evenodd" style="fill: #D7A449; stroke: #fff; opacity: 1;" id="p-type-tokenTransfers"></path><path d="M-182.64510390850518,73.82253055979146A197,197,0,0,1,-183.59763832428558,71.4206356856674L-159.00021886365874,61.8520848582214A170.6070045455344,170.6070045455344,0,0,0,-158.17529986161395,63.93218683643246Z" fill-rule="evenodd" style="fill: #D7A449; stroke: #fff; opacity: 1;" id="p-type-tokenTransfers"></path><path d="M-183.59763832428558,71.4206356856674A197,197,0,0,1,-184.5185879249132,69.00645411985812L-159.79778461340737,59.76134229288246A170.6070045455344,170.6070045455344,0,0,0,-159.00021886365874,61.8520848582214Z" fill-rule="evenodd" style="fill: #D7A449; stroke: #fff; opacity: 1;" id="p-type-tokenTransfers"></path><path d="M-184.5185879249132,69.00645411985812A197,197,0,0,1,-185.40779427685277,66.58040118076966L-160.56785990339355,57.66031881670596A170.6070045455344,170.6070045455344,0,0,0,-159.79778461340737,59.76134229288246Z" fill-rule="evenodd" style="fill: #D7A449; stroke: #fff; opacity: 1;" id="p-type-tokenTransfers"></path><path d="M-185.40779427685277,66.58040118076966A197,197,0,0,1,-186.265104407449,64.1428942290736L-161.31031225541165,55.549375874636A170.6070045455344,170.6070045455344,0,0,0,-160.56785990339355,57.66031881670596Z" fill-rule="evenodd" style="fill: #D7A449; stroke: #fff; opacity: 1;" id="p-type-tokenTransfers"></path><path d="M-186.265104407449,64.1428942290736A197,197,0,0,1,-187.09037083124255,61.69435259590734L-162.0250139433072,53.42887661809018A170.6070045455344,170.6070045455344,0,0,0,-161.31031225541165,55.549375874636Z" fill-rule="evenodd" style="fill: #D7A449; stroke: #fff; opacity: 1;" id="p-type-tokenTransfers"></path></g></svg>