<svg xmlns="http://www.w3.org/2000/svg" width="400" height="400" id="block-7908311"><g id="burst-container" transform="translate(200,200)"><circle r="197" style="fill: #f9f9f9; stroke: #f9f9f9; stroke-width: 3; opacity: 1;" id="circle-base"></circle><path display="none" d="M6.031385485800715e-15,-98.5A98.5,98.5,0,1,1,-6.031385485800715e-15,98.5A98.5,98.5,0,1,1,6.031385485800715e-15,-98.5Z" fill-rule="evenodd" id="p-type-root" style="stroke: #fff; opacity: 1;"></path><path d="M8.529667153919608e-15,-139.30003589374985A139.30003589374985,139.30003589374985,0,1,1,-138.7291746325792,-12.59825804479895L-98.09634013110953,-8.908313694615314A98.5,98.5,0,1,0,6.031385485800715e-15,-98.5Z" fill-rule="evenodd" style="fill: #0B1F65; stroke: #fff; opacity: 1;" id="p-type-data"></path><path d="M-138.7291746325792,-12.59825804479895A139.30003589374985,139.30003589374985,0,0,1,-14.195760994430032,-138.57481867131926L-10.037918863264965,-97.98719398418606A98.5,98.5,0,0,0,-98.09634013110953,-8.908313694615314Z" fill-rule="evenodd" style="fill: #D7A449; stroke: #fff; opacity: 1;" id="p-type-value"></path><path d="M1.0446666101440332e-14,-170.6070045455344A170.6070045455344,170.6070045455344,0,0,1,168.89933324995098,-24.0783144701202L137.90572811955758,-19.659861439355733A139.30003589374985,139.30003589374985,0,0,0,8.529667153919608e-15,-139.30003589374985Z" fill-rule="evenodd" style="fill: #1DC690; stroke: #fff; opacity: 1;" id="p-type-logs"></path><path d="M168.89933324995098,-24.0783144701202A170.6070045455344,170.6070045455344,0,0,1,79.89770952899663,150.74185222432448L65.23620665438234,123.08020694387346A139.30003589374985,139.30003589374985,0,0,0,137.90572811955758,-19.659861439355733Z" fill-rule="evenodd" style="fill: #D7A449; stroke: #fff; opacity: 1;" id="p-type-tokenTransfers"></path><path d="M79.89770952899663,150.74185222432448A170.6070045455344,170.6070045455344,0,0,1,-47.674610671691816,163.81050484417233L-38.92615661049685,133.7507171253114A139.30003589374985,139.30003589374985,0,0,0,65.23620665438234,123.08020694387346Z" fill-rule="evenodd" style="fill: #414552; stroke: #fff; opacity: 1;" id="p-type-ether"></path><path d="M-169.90784514363952,-15.429651928835343A170.6070045455344,170.6070045455344,0,0,1,-124.35151508752809,-116.8051826565768L-101.5325869021492,-95.37103227373348A139.30003589374985,139.30003589374985,0,0,0,-138.7291746325792,-12.59825804479895Z" fill-rule="evenodd" style="fill: #414552; stroke: #fff; opacity: 1;" id="p-type-ether"></path><path d="M-124.35151508752809,-116.8051826565768A170.6070045455344,170.6070045455344,0,0,1,-34.591340682841135,-167.06342852271294L-28.243711397245935,-136.40671818685865A139.30003589374985,139.30003589374985,0,0,0,-101.5325869021492,-95.37103227373348Z" fill-rule="evenodd" style="fill: #D7A449; stroke: #fff; opacity: 1;" id="p-type-tokenTransfers"></path><path d="M1.206277097160143e-14,-197A197,197,0,0,1,10.051009159051956,-196.7434299154222L8.704429265409061,-170.38480833443893A170.6070045455344,170.6070045455344,0,0,0,1.0446666101440332e-14,-170.6070045455344Z" fill-rule="evenodd" style="fill: #1DC690; stroke: #fff; opacity: 1;" id="p-type-logs"></path><path d="M10.051009159051956,-196.7434299154222A197,197,0,0,1,20.07583772652999,-195.97438796837213L17.386185473429002,-169.7187984717177A170.6070045455344,170.6070045455344,0,0,0,8.704429265409061,-170.38480833443893Z" fill-rule="evenodd" style="fill: #1DC690; stroke: #fff; opacity: 1;" id="p-type-logs"></path><path d="M20.07583772652999,-195.97438796837213A197,197,0,0,1,30.048373305343446,-194.69487733811263L26.022654624825606,-168.61070976150074A170.6070045455344,170.6070045455344,0,0,0,17.386185473429002,-169.7187984717177Z" fill-rule="evenodd" style="fill: #1DC690; stroke: #fff; opacity: 1;" id="p-type-logs"></path><path d="M30.048373305343446,-194.69487733811263A197,197,0,0,1,39.94263970973679,-192.90823085866026L34.59134068284116,-167.06342852271294A170.6070045455344,170.6070045455344,0,0,0,26.022654624825606,-168.61070976150074Z" fill-rule="evenodd" style="fill: #1DC690; stroke: #fff; opacity: 1;" id="p-type-logs"></path><path d="M39.94263970973679,-192.90823085866026A197,197,0,0,1,49.732864627342444,-190.61910233751084L43.06992417025106,-165.08098507087007A170.6070045455344,170.6070045455344,0,0,0,34.59134068284116,-167.06342852271294Z" fill-rule="evenodd" style="fill: #1DC690; stroke: #fff; opacity: 1;" id="p-type-logs"></path><path d="M49.732864627342444,-190.61910233751084A197,197,0,0,1,59.39354675018943,-187.8334544335302L51.43632030652273,-162.66854322002393A170.6070045455344,170.6070045455344,0,0,0,43.06992417025106,-165.08098507087007Z" fill-rule="evenodd" style="fill: #1DC690; stroke: #fff; opacity: 1;" id="p-type-logs"></path><path d="M59.39354675018943,-187.8334544335302A197,197,0,0,1,68.89952219980722,-184.5585431255846L59.66873653364295,-159.83238683220213A170.6070045455344,170.6070045455344,0,0,0,51.43632030652273,-162.66854322002393Z" fill-rule="evenodd" style="fill: #1DC690; stroke: #fff; opacity: 1;" id="p-type-logs"></path><path d="M68.89952219980722,-184.5585431255846A197,197,0,0,1,78.22603007340297,-180.8028988123671L67.74572928077245,-156.5799034493772A170.6070045455344,170.6070045455344,0,0,0,59.66873653364295,-159.83238683220213Z" fill-rule="evenodd" style="fill: #1DC690; stroke: #fff; opacity: 1;" id="p-type-logs"></path><path d="M78.22603007340297,-180.8028988123671A197,197,0,0,1,87.34877694037823,-176.5763040926501L75.64625981986792,-152.91956505060114A170.6070045455344,170.6070045455344,0,0,0,67.74572928077245,-156.5799034493772Z" fill-rule="evenodd" style="fill: #1DC690; stroke: #fff; opacity: 1;" id="p-type-logs"></path><path d="M87.34877694037823,-176.5763040926501A197,197,0,0,1,96.24400012118741,-171.88976828384193L83.34974906678089,-148.8609059844278A170.6070045455344,170.6070045455344,0,0,0,75.64625981986792,-152.91956505060114Z" fill-rule="evenodd" style="fill: #1DC690; stroke: #fff; opacity: 1;" id="p-type-logs"></path><path d="M96.24400012118741,-171.88976828384193A197,197,0,0,1,104.88852958371037,-166.75549874522014L90.8361311850888,-144.41449813410472A170.6070045455344,170.6070045455344,0,0,0,83.34974906678089,-148.8609059844278Z" fill-rule="evenodd" style="fill: #1DC690; stroke: #fff; opacity: 1;" id="p-type-logs"></path><path d="M104.88852958371037,-166.75549874522014A197,197,0,0,1,113.25984829591317,-161.18686908053874L98.08590585303247,-139.591923380223A170.6070045455344,170.6070045455344,0,0,0,90.8361311850888,-144.41449813410472Z" fill-rule="evenodd" style="fill: #1DC690; stroke: #fff; opacity: 1;" id="p-type-logs"></path><path d="M113.25984829591317,-161.18686908053874A197,197,0,0,1,121.33615087759262,-155.19838430283377L105.08018905741672,-134.4057434325541A170.6070045455344,170.6070045455344,0,0,0,98.08590585303247,-139.591923380223Z" fill-rule="evenodd" style="fill: #1DC690; stroke: #fff; opacity: 1;" id="p-type-logs"></path><path d="M121.33615087759262,-155.19838430283377A197,197,0,0,1,129.09640039842938,-148.80564305216524L111.80076228216736,-128.86946710965444A170.6070045455344,170.6070045455344,0,0,0,105.08018905741672,-134.4057434325541Z" fill-rule="evenodd" style="fill: #1DC690; stroke: #fff; opacity: 1;" id="p-type-logs"></path><path d="M195.02815103561502,-27.803242681912717A197,197,0,0,1,196.19268026221906,-17.816627389230653L169.90784514363952,-15.429651928835364A170.6070045455344,170.6070045455344,0,0,0,168.89933324995098,-24.0783144701202Z" fill-rule="evenodd" style="fill: #D7A449; stroke: #fff; opacity: 1;" id="p-type-tokenTransfers"></path><path d="M196.19268026221906,-17.816627389230653A197,197,0,0,1,196.84617220386448,-7.783603836689236L170.4737857662729,-6.740798655566901A170.6070045455344,170.6070045455344,0,0,0,169.90784514363952,-15.429651928835364Z" fill-rule="evenodd" style="fill: #D7A449; stroke: #fff; opacity: 1;" id="p-type-tokenTransfers"></path><path d="M196.84617220386448,-7.783603836689236A197,197,0,0,1,196.98692466275708,2.269694232549636L170.59568097131898,1.9656128642110098A170.6070045455344,170.6070045455344,0,0,0,170.4737857662729,-6.740798655566901Z" fill-rule="evenodd" style="fill: #D7A449; stroke: #fff; opacity: 1;" id="p-type-tokenTransfers"></path><path d="M196.98692466275708,2.269694232549636A197,197,0,0,1,196.6145710107721,12.3170802648219L170.27321324950807,10.666904409787726A170.6070045455344,170.6070045455344,0,0,0,170.59568097131898,1.9656128642110098Z" fill-rule="evenodd" style="fill: #D7A449; stroke: #fff; opacity: 1;" id="p-type-tokenTransfers"></path><path d="M196.6145710107721,12.3170802648219A197,197,0,0,1,195.73008114443724,22.332383105974397L169.5072225558722,19.340411096820254A170.6070045455344,170.6070045455344,0,0,0,170.27321324950807,10.666904409787726Z" fill-rule="evenodd" style="fill: #D7A449; stroke: #fff; opacity: 1;" id="p-type-tokenTransfers"></path><path d="M195.73008114443724,22.332383105974397A197,197,0,0,1,194.33575895857302,32.28951517126575L168.29970412185355,27.963540414199176A170.6070045455344,170.6070045455344,0,0,0,169.5072225558722,19.340411096820254Z" fill-rule="evenodd" style="fill: #D7A449; stroke: #fff; opacity: 1;" id="p-type-tokenTransfers"></path><path d="M194.33575895857302,32.28951517126575A197,197,0,0,1,192.43523634517086,42.16254039758788L166.65380325818046,36.51383107239875A170.6070045455344,170.6070045455344,0,0,0,168.29970412185355,27.963540414199176Z" fill-rule="evenodd" style="fill: #D7A449; stroke: #fff; opacity: 1;" id="p-type-tokenTransfers"></path><path d="M192.43523634517086,42.16254039758788A197,197,0,0,1,190.03346373314102,51.925741801008265L164.57380716204892,44.969011510024686A170.6070045455344,170.6070045455344,0,0,0,166.65380325818046,36.51383107239875Z" fill-rule="evenodd" style="fill: #D7A449; stroke: #fff; opacity: 1;" id="p-type-tokenTransfers"></path><path d="M190.03346373314102,51.925741801008265A197,197,0,0,1,187.13669719357188,61.55368846366063L162.06513374994933,53.30705790616324A170.6070045455344,170.6070045455344,0,0,0,164.57380716204892,44.969011510024686Z" fill-rule="evenodd" style="fill: #D7A449; stroke: #fff; opacity: 1;" id="p-type-tokenTransfers"></path><path d="M187.13669719357188,61.55368846366063A197,197,0,0,1,183.7524821440884,71.02130177549884L159.134317545227,61.50625154742285A170.6070045455344,170.6070045455344,0,0,0,162.06513374994933,53.30705790616324Z" fill-rule="evenodd" style="fill: #D7A449; stroke: #fff; opacity: 1;" id="p-type-tokenTransfers"></path><path d="M183.7524821440884,71.02130177549884A197,197,0,0,1,179.88963369475633,80.30392075836887L155.7889926571361,69.54523540023996A170.6070045455344,170.6070045455344,0,0,0,159.134317545227,61.50625154742285Z" fill-rule="evenodd" style="fill: #D7A449; stroke: #fff; opacity: 1;" id="p-type-tokenTransfers"></path><path d="M179.88963369475633,80.30392075836887A197,197,0,0,1,175.55821368672648,89.37736630224502L152.03787289572207,77.40306974109141A170.6070045455344,170.6070045455344,0,0,0,155.7889926571361,69.54523540023996Z" fill-rule="evenodd" style="fill: #D7A449; stroke: #fff; opacity: 1;" id="p-type-tokenTransfers"></path><path d="M92.25792820840147,174.06169791971305A197,197,0,0,1,79.18076061999585,180.38682642487757L68.57255018789088,156.21957419199805A170.6070045455344,170.6070045455344,0,0,0,79.89770952899663,150.74185222432448Z" fill-rule="evenodd" style="fill: #414552; stroke: #fff; opacity: 1;" id="p-type-ether"></path><path d="M79.18076061999585,180.38682642487757A197,197,0,0,1,76.3285819741134,181.61207992262257L66.10249102442519,157.28067484712096A170.6070045455344,170.6070045455344,0,0,0,68.57255018789088,156.21957419199805Z" fill-rule="evenodd" style="fill: #414552; stroke: #fff; opacity: 1;" id="p-type-ether"></path><path d="M76.3285819741134,181.61207992262257A197,197,0,0,1,74.99924867488106,182.16506991792733L64.95125461719338,157.7595782310935A170.6070045455344,170.6070045455344,0,0,0,66.10249102442519,157.28067484712096Z" fill-rule="evenodd" style="fill: #414552; stroke: #fff; opacity: 1;" id="p-type-ether"></path></g></svg>