<svg xmlns="http://www.w3.org/2000/svg" width="400" height="400" id="block-7908799"><g id="burst-container" transform="translate(200,200)"><circle r="197" style="fill: #f9f9f9; stroke: #f9f9f9; stroke-width: 3; opacity: 1;" id="circle-base"></circle><path display="none" d="M6.031385485800715e-15,-98.5A98.5,98.5,0,1,1,-6.031385485800715e-15,98.5A98.5,98.5,0,1,1,6.031385485800715e-15,-98.5Z" fill-rule="evenodd" id="p-type-root" style="stroke: #fff; opacity: 1;"></path><path d="M8.529667153919608e-15,-139.30003589374985A139.30003589374985,139.30003589374985,0,1,1,-136.75880433747867,-26.486400966972184L-96.70307793399539,-18.72871373297196A98.5,98.5,0,1,0,6.031385485800715e-15,-98.5Z" fill-rule="evenodd" style="fill: #0B1F65; stroke: #fff; opacity: 1;" id="p-type-data"></path><path d="M-136.75880433747867,-26.486400966972184A139.30003589374985,139.30003589374985,0,0,1,-34.57361126193196,-134.94134060512667L-24.447234973419683,-95.4179370042887A98.5,98.5,0,0,0,-96.70307793399539,-18.72871373297196Z" fill-rule="evenodd" style="fill: #D7A449; stroke: #fff; opacity: 1;" id="p-type-value"></path><path d="M1.0446666101440332e-14,-170.6070045455344A170.6070045455344,170.6070045455344,0,0,1,162.12177468006678,-53.13454784399371L132.3718747202097,-43.384176643761535A139.30003589374985,139.30003589374985,0,0,0,8.529667153919608e-15,-139.30003589374985Z" fill-rule="evenodd" style="fill: #DB3F29; stroke: #fff; opacity: 1;" id="p-type-functions"></path><path d="M162.12177468006678,-53.13454784399371A170.6070045455344,170.6070045455344,0,0,1,100.98374584605122,137.51011989995547L82.45288321257527,112.2765427412753A139.30003589374985,139.30003589374985,0,0,0,132.3718747202097,-43.384176643761535Z" fill-rule="evenodd" style="fill: #1DC690; stroke: #fff; opacity: 1;" id="p-type-logs"></path><path d="M100.98374584605122,137.51011989995547A170.6070045455344,170.6070045455344,0,0,1,-99.22018761550265,138.78798351998796L-81.01294394706542,113.31991401792375A139.30003589374985,139.30003589374985,0,0,0,82.45288321257527,112.2765427412753Z" fill-rule="evenodd" style="fill: #D7A449; stroke: #fff; opacity: 1;" id="p-type-tokenTransfers"></path><path d="M-99.22018761550265,138.78798351998796A170.6070045455344,170.6070045455344,0,0,1,-131.9533290559689,108.14374207991506L-107.73944201622977,88.2989956569805A139.30003589374985,139.30003589374985,0,0,0,-81.01294394706542,113.31991401792375Z" fill-rule="evenodd" style="fill: #414552; stroke: #fff; opacity: 1;" id="p-type-ether"></path><path d="M-167.4946442299728,-32.439083745920406A170.6070045455344,170.6070045455344,0,0,1,-116.59788199587145,-124.54591086855014L-95.2017719930435,-101.6913103927005A139.30003589374985,139.30003589374985,0,0,0,-136.75880433747867,-26.486400966972184Z" fill-rule="evenodd" style="fill: #D7A449; stroke: #fff; opacity: 1;" id="p-type-tokenTransfers"></path><path d="M-116.59788199587145,-124.54591086855014A170.6070045455344,170.6070045455344,0,0,1,-82.03782955465505,-149.58791569495634L-66.98360733810739,-122.13802171303678A139.30003589374985,139.30003589374985,0,0,0,-95.2017719930435,-101.6913103927005Z" fill-rule="evenodd" style="fill: #414552; stroke: #fff; opacity: 1;" id="p-type-ether"></path><path d="M1.206277097160143e-14,-197A197,197,0,0,1,24.640746947995044,-195.45289353152302L21.339512825187583,-169.2671710414741A170.6070045455344,170.6070045455344,0,0,0,1.0446666101440332e-14,-170.6070045455344Z" fill-rule="evenodd" style="fill: #DB3F29; stroke: #fff; opacity: 1;" id="p-type-functions"></path><path d="M24.640746947995044,-195.45289353152302A197,197,0,0,1,48.894469946839344,-190.8358740085774L42.34385307853764,-165.2687148448345A170.6070045455344,170.6070045455344,0,0,0,21.339512825187583,-169.2671710414741Z" fill-rule="evenodd" style="fill: #DB3F29; stroke: #fff; opacity: 1;" id="p-type-functions"></path><path d="M48.894469946839344,-190.8358740085774A197,197,0,0,1,72.38022390276477,-183.2214594085137L62.683112631399936,-158.6744383662322A170.6070045455344,170.6070045455344,0,0,0,42.34385307853764,-165.2687148448345Z" fill-rule="evenodd" style="fill: #DB3F29; stroke: #fff; opacity: 1;" id="p-type-functions"></path><path d="M72.38022390276477,-183.2214594085137A197,197,0,0,1,94.72912595422544,-172.72924678799617L82.03782955465502,-149.58791569495634A170.6070045455344,170.6070045455344,0,0,0,62.683112631399936,-158.6744383662322Z" fill-rule="evenodd" style="fill: #DB3F29; stroke: #fff; opacity: 1;" id="p-type-functions"></path><path d="M94.72912595422544,-172.72924678799617A197,197,0,0,1,115.59014939130078,-159.52403381213992L100.10400580010484,-138.15186579548092A170.6070045455344,170.6070045455344,0,0,0,82.03782955465502,-149.58791569495634Z" fill-rule="evenodd" style="fill: #DB3F29; stroke: #fff; opacity: 1;" id="p-type-functions"></path><path d="M187.2021005060728,-61.35449100199764A197,197,0,0,1,193.40615586799078,-37.457427465943944L167.4946442299728,-32.43908374592043A170.6070045455344,170.6070045455344,0,0,0,162.12177468006678,-53.13454784399371Z" fill-rule="evenodd" style="fill: #1DC690; stroke: #fff; opacity: 1;" id="p-type-logs"></path><path d="M193.40615586799078,-37.457427465943944A197,197,0,0,1,196.57244559755713,-12.972032677859097L170.23673157151902,-11.234109837747857A170.6070045455344,170.6070045455344,0,0,0,167.4946442299728,-32.43908374592043Z" fill-rule="evenodd" style="fill: #1DC690; stroke: #fff; opacity: 1;" id="p-type-logs"></path><path d="M196.57244559755713,-12.972032677859097A197,197,0,0,1,196.65123784379026,11.717109477385247L170.30496765837813,10.147314466339031A170.6070045455344,170.6070045455344,0,0,0,170.23673157151902,-11.234109837747857Z" fill-rule="evenodd" style="fill: #1DC690; stroke: #fff; opacity: 1;" id="p-type-logs"></path><path d="M196.65123784379026,11.717109477385247A197,197,0,0,1,193.64129504330126,36.2222149233472L167.69828072921658,31.369358304958478A170.6070045455344,170.6070045455344,0,0,0,170.30496765837813,10.147314466339031Z" fill-rule="evenodd" style="fill: #1DC690; stroke: #fff; opacity: 1;" id="p-type-logs"></path><path d="M193.64129504330126,36.2222149233472A197,197,0,0,1,187.58989335828684,60.1583901864617L162.45761314149016,52.09869415225231A170.6070045455344,170.6070045455344,0,0,0,167.69828072921658,31.369358304958478Z" fill-rule="evenodd" style="fill: #1DC690; stroke: #fff; opacity: 1;" id="p-type-logs"></path><path d="M116.60598569598885,158.78300948107403A197,197,0,0,1,95.82967183305668,172.12110270495208L82.99093024375316,149.06124746987896A170.6070045455344,170.6070045455344,0,0,0,100.98374584605122,137.51011989995547Z" fill-rule="evenodd" style="fill: #D7A449; stroke: #fff; opacity: 1;" id="p-type-tokenTransfers"></path><path d="M95.82967183305668,172.12110270495208A197,197,0,0,1,73.5481934506834,182.75574748866546L63.694603930744094,158.2711200127984A170.6070045455344,170.6070045455344,0,0,0,82.99093024375316,149.06124746987896Z" fill-rule="evenodd" style="fill: #D7A449; stroke: #fff; opacity: 1;" id="p-type-tokenTransfers"></path><path d="M73.5481934506834,182.75574748866546A197,197,0,0,1,50.111518257829424,190.5199090328757L43.397847833487994,164.9950811491707A170.6070045455344,170.6070045455344,0,0,0,63.694603930744094,158.2711200127984Z" fill-rule="evenodd" style="fill: #D7A449; stroke: #fff; opacity: 1;" id="p-type-tokenTransfers"></path><path d="M50.111518257829424,190.5199090328757A197,197,0,0,1,25.887758252367433,195.2916382558838L22.41945629358044,169.1275198762763A170.6070045455344,170.6070045455344,0,0,0,43.397847833487994,164.9950811491707Z" fill-rule="evenodd" style="fill: #D7A449; stroke: #fff; opacity: 1;" id="p-type-tokenTransfers"></path><path d="M25.887758252367433,195.2916382558838A197,197,0,0,1,1.2573879093764415,196.99598720696153L1.0889298719314038,170.60352936482298A170.6070045455344,170.6070045455344,0,0,0,22.41945629358044,169.1275198762763Z" fill-rule="evenodd" style="fill: #D7A449; stroke: #fff; opacity: 1;" id="p-type-tokenTransfers"></path><path d="M-114.56960405771126,160.2585592911008A197,197,0,0,1,-116.5721115017963,158.80788022013508L-100.95440993334773,137.53165859179325A170.6070045455344,170.6070045455344,0,0,0,-99.22018761550265,138.78798351998796Z" fill-rule="evenodd" style="fill: #414552; stroke: #fff; opacity: 1;" id="p-type-ether"></path></g></svg>