<svg xmlns="http://www.w3.org/2000/svg" width="400" height="400" id="block-7908365"><g id="burst-container" transform="translate(200,200)"><circle r="197" style="fill: #f9f9f9; stroke: #f9f9f9; stroke-width: 3; opacity: 1;" id="circle-base"></circle><path display="none" d="M6.031385485800715e-15,-98.5A98.5,98.5,0,1,1,-6.031385485800715e-15,98.5A98.5,98.5,0,1,1,6.031385485800715e-15,-98.5Z" fill-rule="evenodd" id="p-type-root" style="stroke: #fff; opacity: 1;"></path><path d="M8.529667153919608e-15,-139.30003589374985A139.30003589374985,139.30003589374985,0,1,1,-132.97004639189277,-41.51465720125697L-94.0240214983972,-29.35529562564375A98.5,98.5,0,1,0,6.031385485800715e-15,-98.5Z" fill-rule="evenodd" style="fill: #0B1F65; stroke: #fff; opacity: 1;" id="p-type-data"></path><path d="M-132.97004639189277,-41.51465720125697A139.30003589374985,139.30003589374985,0,0,1,-1.9519454232763873,-139.2863593790309L-1.3802338453047793,-98.49032924369922A98.5,98.5,0,0,0,-94.0240214983972,-29.35529562564375Z" fill-rule="evenodd" style="fill: #D7A449; stroke: #fff; opacity: 1;" id="p-type-value"></path><path d="M1.0446666101440332e-14,-170.6070045455344A170.6070045455344,170.6070045455344,0,0,1,170.54626919024105,4.551929842367499L139.2504456838114,3.716635152915946A139.30003589374985,139.30003589374985,0,0,0,8.529667153919608e-15,-139.30003589374985Z" fill-rule="evenodd" style="fill: #1DC690; stroke: #fff; opacity: 1;" id="p-type-logs"></path><path d="M170.54626919024105,4.551929842367499A170.6070045455344,170.6070045455344,0,0,1,19.540642331722015,169.4842567829346L15.954867652982614,138.38331618434285A139.30003589374985,139.30003589374985,0,0,0,139.2504456838114,3.716635152915946Z" fill-rule="evenodd" style="fill: #D7A449; stroke: #fff; opacity: 1;" id="p-type-tokenTransfers"></path><path d="M19.540642331722015,169.4842567829346A170.6070045455344,170.6070045455344,0,0,1,-93.09912414841011,142.96609067467332L-76.01511655454274,116.73132422447402A139.30003589374985,139.30003589374985,0,0,0,15.954867652982614,138.38331618434285Z" fill-rule="evenodd" style="fill: #414552; stroke: #fff; opacity: 1;" id="p-type-ether"></path><path d="M-162.85438236717235,-50.844863494819386A170.6070045455344,170.6070045455344,0,0,1,-89.68449152762398,-145.13249801278673L-73.22708069454659,-118.50018840894035A139.30003589374985,139.30003589374985,0,0,0,-132.97004639189277,-41.51465720125697Z" fill-rule="evenodd" style="fill: #D7A449; stroke: #fff; opacity: 1;" id="p-type-tokenTransfers"></path><path d="M-89.68449152762398,-145.13249801278673A170.6070045455344,170.6070045455344,0,0,1,-4.780800866394042,-170.5400068695785L-3.903507561507045,-139.24533252040175A139.30003589374985,139.30003589374985,0,0,0,-73.22708069454659,-118.50018840894035Z" fill-rule="evenodd" style="fill: #414552; stroke: #fff; opacity: 1;" id="p-type-ether"></path><path d="M1.206277097160143e-14,-197A197,197,0,0,1,1.380267724483953,-196.9951645625058L1.1953469134268435,-170.60281693382603A170.6070045455344,170.6070045455344,0,0,0,1.0446666101440332e-14,-170.6070045455344Z" fill-rule="evenodd" style="fill: #1DC690; stroke: #fff; opacity: 1;" id="p-type-logs"></path><path d="M1.380267724483953,-196.9951645625058A197,197,0,0,1,2.7604676906094037,-196.98065848739844L2.3906351463939055,-170.59025430427386A170.6070045455344,170.6070045455344,0,0,0,1.1953469134268435,-170.60281693382603Z" fill-rule="evenodd" style="fill: #1DC690; stroke: #fff; opacity: 1;" id="p-type-logs"></path><path d="M2.7604676906094037,-196.98065848739844A197,197,0,0,1,4.140532143344313,-196.95648248679183L3.585806021322205,-170.5693172735866A170.6070045455344,170.6070045455344,0,0,0,2.3906351463939055,-170.59025430427386Z" fill-rule="evenodd" style="fill: #1DC690; stroke: #fff; opacity: 1;" id="p-type-logs"></path><path d="M4.140532143344313,-196.95648248679183A197,197,0,0,1,5.520393334308906,-196.9226377475036L4.780800866393793,-170.54000686957852A170.6070045455344,170.6070045455344,0,0,0,3.585806021322205,-170.5693172735866Z" fill-rule="evenodd" style="fill: #1DC690; stroke: #fff; opacity: 1;" id="p-type-logs"></path><path d="M5.520393334308906,-196.9226377475036A197,197,0,0,1,6.899983525101855,-196.87912593099688L5.975561018432308,-170.50232453111892A170.6070045455344,170.6070045455344,0,0,0,4.780800866393793,-170.54000686957852Z" fill-rule="evenodd" style="fill: #1DC690; stroke: #fff; opacity: 1;" id="p-type-logs"></path><path d="M6.899983525101855,-196.87912593099688A197,197,0,0,1,8.279234990625252,-196.82594917329882L7.170027825782486,-170.4562721080615A170.6070045455344,170.6070045455344,0,0,0,5.975561018432308,-170.50232453111892Z" fill-rule="evenodd" style="fill: #1DC690; stroke: #fff; opacity: 1;" id="p-type-logs"></path><path d="M8.279234990625252,-196.82594917329882A197,197,0,0,1,9.658080022409639,-196.76311008489557L8.364142651189727,-170.40185186115363A170.6070045455344,170.6070045455344,0,0,0,7.170027825782486,-170.4562721080615Z" fill-rule="evenodd" style="fill: #1DC690; stroke: #fff; opacity: 1;" id="p-type-logs"></path><path d="M9.658080022409639,-196.76311008489557A197,197,0,0,1,11.036450931937512,-196.69061175060423L9.557846874678328,-170.33906646192528A170.6070045455344,170.6070045455344,0,0,0,8.364142651189727,-170.40185186115363Z" fill-rule="evenodd" style="fill: #1DC690; stroke: #fff; opacity: 1;" id="p-type-logs"></path><path d="M11.036450931937512,-196.69061175060423A197,197,0,0,1,12.414280053966557,-196.60845772942142L10.75108189642949,-170.26791899255792A170.6070045455344,170.6070045455344,0,0,0,9.557846874678328,-170.33906646192528Z" fill-rule="evenodd" style="fill: #1DC690; stroke: #fff; opacity: 1;" id="p-type-logs"></path><path d="M12.414280053966557,-196.60845772942142A197,197,0,0,1,13.791499749851026,-196.51665205434847L11.943789139657719,-170.18841294573315A170.6070045455344,170.6070045455344,0,0,0,10.75108189642949,-170.26791899255792Z" fill-rule="evenodd" style="fill: #1DC690; stroke: #fff; opacity: 1;" id="p-type-logs"></path><path d="M13.791499749851026,-196.51665205434847A197,197,0,0,1,15.168042410862533,-196.41519923219352L13.135910053486715,-170.10055222446135A170.6070045455344,170.6070045455344,0,0,0,11.943789139657719,-170.18841294573315Z" fill-rule="evenodd" style="fill: #1DC690; stroke: #fff; opacity: 1;" id="p-type-logs"></path><path d="M15.168042410862533,-196.41519923219352A197,197,0,0,1,16.543840461508648,-196.3041042433503L14.327386115823359,-170.00434114189A170.6070045455344,170.6070045455344,0,0,0,13.135910053486715,-170.10055222446135Z" fill-rule="evenodd" style="fill: #1DC690; stroke: #fff; opacity: 1;" id="p-type-logs"></path><path d="M16.543840461508648,-196.3041042433503A197,197,0,0,1,17.918826362850584,-196.1833725415536L15.51815883623092,-169.8997844210919A170.6070045455344,170.6070045455344,0,0,0,14.327386115823359,-170.00434114189Z" fill-rule="evenodd" style="fill: #1DC690; stroke: #fff; opacity: 1;" id="p-type-logs"></path><path d="M17.918826362850584,-196.1833725415536A197,197,0,0,1,19.2929326158184,-196.0530100536115L16.708169758800096,-169.7868871948335A170.6070045455344,170.6070045455344,0,0,0,15.51815883623092,-169.8997844210919Z" fill-rule="evenodd" style="fill: #1DC690; stroke: #fff; opacity: 1;" id="p-type-logs"></path><path d="M19.2929326158184,-196.0530100536115A197,197,0,0,1,20.666091764524914,-195.91302317911445L17.89736046501895,-169.6656550053227A170.6070045455344,170.6070045455344,0,0,0,16.708169758800096,-169.7868871948335Z" fill-rule="evenodd" style="fill: #1DC690; stroke: #fff; opacity: 1;" id="p-type-logs"></path><path d="M20.666091764524914,-195.91302317911445A197,197,0,0,1,22.038236399576792,-195.7634187901212L19.085672576640405,-169.53609380393686A170.6070045455344,170.6070045455344,0,0,0,17.89736046501895,-169.6656550053227Z" fill-rule="evenodd" style="fill: #1DC690; stroke: #fff; opacity: 1;" id="p-type-logs"></path><path d="M22.038236399576792,-195.7634187901212A197,197,0,0,1,23.40929916138413,-195.6042042308212L20.27304775854841,-169.39820995093075A170.6070045455344,170.6070045455344,0,0,0,19.085672576640405,-169.53609380393686Z" fill-rule="evenodd" style="fill: #1DC690; stroke: #fff; opacity: 1;" id="p-type-logs"></path><path d="M23.40929916138413,-195.6042042308212A197,197,0,0,1,24.779212743466775,-195.4353873171745L21.45942772162132,-169.2520102151242A170.6070045455344,170.6070045455344,0,0,0,20.27304775854841,-169.39820995093075Z" fill-rule="evenodd" style="fill: #1DC690; stroke: #fff; opacity: 1;" id="p-type-logs"></path><path d="M24.779212743466775,-195.4353873171745A197,197,0,0,1,26.14790989575885,-195.25697633652754L22.644754225593676,-169.09750177356986A170.6070045455344,170.6070045455344,0,0,0,21.45942772162132,-169.2520102151242Z" fill-rule="evenodd" style="fill: #1DC690; stroke: #fff; opacity: 1;" id="p-type-logs"></path><path d="M26.14790989575885,-195.25697633652754A197,197,0,0,1,27.515323427909713,-195.0689800472067L23.828969081914934,-168.9346922112008A170.6070045455344,170.6070045455344,0,0,0,22.644754225593676,-169.09750177356986Z" fill-rule="evenodd" style="fill: #1DC690; stroke: #fff; opacity: 1;" id="p-type-logs"></path><path d="M27.515323427909713,-195.0689800472067A197,197,0,0,1,28.88138621258278,-194.87140767808813L25.01201415660632,-168.76358952045823A170.6070045455344,170.6070045455344,0,0,0,23.828969081914934,-168.9346922112008Z" fill-rule="evenodd" style="fill: #1DC690; stroke: #fff; opacity: 1;" id="p-type-logs"></path><path d="M28.88138621258278,-194.87140767808813A197,197,0,0,1,30.246031188750454,-194.66426892814493L26.193831373114335,-168.58420210089926A170.6070045455344,170.6070045455344,0,0,0,25.01201415660632,-168.76358952045823Z" fill-rule="evenodd" style="fill: #1DC690; stroke: #fff; opacity: 1;" id="p-type-logs"></path><path d="M30.246031188750454,-194.66426892814493A197,197,0,0,1,31.609191364986597,-194.44757396597072L27.374362715162107,-168.3965387587843A170.6070045455344,170.6070045455344,0,0,0,26.193831373114335,-168.58420210089926Z" fill-rule="evenodd" style="fill: #1DC690; stroke: #fff; opacity: 1;" id="p-type-logs"></path><path d="M31.609191364986597,-194.44757396597072A197,197,0,0,1,32.970799822754806,-194.2213334292807L28.55355022959713,-168.2006087066449A170.6070045455344,170.6070045455344,0,0,0,27.374362715162107,-168.3965387587843Z" fill-rule="evenodd" style="fill: #1DC690; stroke: #fff; opacity: 1;" id="p-type-logs"></path><path d="M32.970799822754806,-194.2213334292807A197,197,0,0,1,34.33078971969387,-193.98555842438932L29.731336029236534,-167.99642156283159A170.6070045455344,170.6070045455344,0,0,0,28.55355022959713,-168.2006087066449Z" fill-rule="evenodd" style="fill: #1DC690; stroke: #fff; opacity: 1;" id="p-type-logs"></path><path d="M34.33078971969387,-193.98555842438932A197,197,0,0,1,35.68909429289871,-193.7402605256651L30.90766229570851,-167.78398735104145A170.6070045455344,170.6070045455344,0,0,0,29.731336029236534,-167.99642156283159Z" fill-rule="evenodd" style="fill: #1DC690; stroke: #fff; opacity: 1;" id="p-type-logs"></path><path d="M35.68909429289871,-193.7402605256651A197,197,0,0,1,37.04564686219825,-193.4854517749624L32.08247128229096,-167.56331649982636A170.6070045455344,170.6070045455344,0,0,0,30.90766229570851,-167.78398735104145Z" fill-rule="evenodd" style="fill: #1DC690; stroke: #fff; opacity: 1;" id="p-type-logs"></path><path d="M37.04564686219825,-193.4854517749624A197,197,0,0,1,38.40038083342836,-193.22114468103035L33.25570531674602,-167.33441984208076A170.6070045455344,170.6070045455344,0,0,0,32.08247128229096,-167.56331649982636Z" fill-rule="evenodd" style="fill: #1DC690; stroke: #fff; opacity: 1;" id="p-type-logs"></path><path d="M38.40038083342836,-193.22114468103035A197,197,0,0,1,39.75322970170143,-192.94735221889874L34.42730680415152,-167.09730861451007A170.6070045455344,170.6070045455344,0,0,0,33.25570531674602,-167.33441984208076Z" fill-rule="evenodd" style="fill: #1DC690; stroke: #fff; opacity: 1;" id="p-type-logs"></path><path d="M39.75322970170143,-192.94735221889874A197,197,0,0,1,41.10412705467076,-192.664087829241L35.597218229728114,-166.85199445707897A170.6070045455344,170.6070045455344,0,0,0,34.42730680415152,-167.09730861451007Z" fill-rule="evenodd" style="fill: #1DC690; stroke: #fff; opacity: 1;" id="p-type-logs"></path><path d="M41.10412705467076,-192.664087829241A197,197,0,0,1,42.45300657579114,-192.3713654177145L36.76538216166295,-166.59848941244A170.6070045455344,170.6070045455344,0,0,0,35.597218229728114,-166.85199445707897Z" fill-rule="evenodd" style="fill: #1DC690; stroke: #fff; opacity: 1;" id="p-type-logs"></path><path d="M42.45300657579114,-192.3713654177145A197,197,0,0,1,43.79980204757404,-192.06919935427786L37.93174125392879,-166.3368059253423A170.6070045455344,170.6070045455344,0,0,0,36.76538216166295,-166.59848941244Z" fill-rule="evenodd" style="fill: #1DC690; stroke: #fff; opacity: 1;" id="p-type-logs"></path><path d="M43.79980204757404,-192.06919935427786A197,197,0,0,1,45.144447354838626,-191.75760447248553L39.09623824909946,-166.06695684202094A170.6070045455344,170.6070045455344,0,0,0,37.93174125392879,-166.3368059253423Z" fill-rule="evenodd" style="fill: #1DC690; stroke: #fff; opacity: 1;" id="p-type-logs"></path><path d="M45.144447354838626,-191.75760447248553A197,197,0,0,1,46.48687648795704,-191.4365960687596L40.25881598116032,-165.788955409566A170.6070045455344,170.6070045455344,0,0,0,39.09623824909946,-166.06695684202094Z" fill-rule="evenodd" style="fill: #1DC690; stroke: #fff; opacity: 1;" id="p-type-logs"></path><path d="M46.48687648795704,-191.4365960687596A197,197,0,0,1,47.82702354609521,-191.10618990163886L41.41941737831496,-165.5028152752724A170.6070045455344,170.6070045455344,0,0,0,40.25881598116032,-165.788955409566Z" fill-rule="evenodd" style="fill: #1DC690; stroke: #fff; opacity: 1;" id="p-type-logs"></path><path d="M47.82702354609521,-191.10618990163886A197,197,0,0,1,49.16482274044767,-190.7664021910052L42.57798546578654,-165.2085504859699A170.6070045455344,170.6070045455344,0,0,0,41.41941737831496,-165.5028152752724Z" fill-rule="evenodd" style="fill: #1DC690; stroke: #fff; opacity: 1;" id="p-type-logs"></path><path d="M49.16482274044767,-190.7664021910052A197,197,0,0,1,50.50020839746743,-190.41724961728747L43.73446336861503,-164.90617548733363A170.6070045455344,170.6070045455344,0,0,0,42.57798546578654,-165.2085504859699Z" fill-rule="evenodd" style="fill: #1DC690; stroke: #fff; opacity: 1;" id="p-type-logs"></path><path d="M50.50020839746743,-190.41724961728747A197,197,0,0,1,51.833114962089695,-190.05874932064242L44.88879431444895,-164.59570512317475A170.6070045455344,170.6070045455344,0,0,0,43.73446336861503,-164.90617548733363Z" fill-rule="evenodd" style="fill: #1DC690; stroke: #fff; opacity: 1;" id="p-type-logs"></path><path d="M51.833114962089695,-190.05874932064242A197,197,0,0,1,53.1634770009503,-189.69091890011347L46.0409216363327,-164.27715463471196A170.6070045455344,170.6070045455344,0,0,0,44.88879431444895,-164.59570512317475Z" fill-rule="evenodd" style="fill: #1DC690; stroke: #fff; opacity: 1;" id="p-type-logs"></path><path d="M53.1634770009503,-189.69091890011347A197,197,0,0,1,54.49122920559755,-189.31377641276674L47.19078877548801,-163.95053965982325A170.6070045455344,170.6070045455344,0,0,0,46.0409216363327,-164.27715463471196Z" fill-rule="evenodd" style="fill: #1DC690; stroke: #fff; opacity: 1;" id="p-type-logs"></path><path d="M54.49122920559755,-189.31377641276674A197,197,0,0,1,55.8163063956986,-188.92734037280442L48.33833928409082,-163.61587623227803A170.6070045455344,170.6070045455344,0,0,0,47.19078877548801,-163.95053965982325Z" fill-rule="evenodd" style="fill: #1DC690; stroke: #fff; opacity: 1;" id="p-type-logs"></path><path d="M55.8163063956986,-188.92734037280442A197,197,0,0,1,57.13864352223886,-188.5316297506562L49.483516828042006,-163.27318078095033A170.6070045455344,170.6070045455344,0,0,0,48.33833928409082,-163.61587623227803Z" fill-rule="evenodd" style="fill: #1DC690; stroke: #fff; opacity: 1;" id="p-type-logs"></path><path d="M57.13864352223886,-188.5316297506562A197,197,0,0,1,58.458175670715676,-188.1266639720477L50.62626518973319,-162.922470129012A170.6070045455344,170.6070045455344,0,0,0,49.483516828042006,-163.27318078095033Z" fill-rule="evenodd" style="fill: #1DC690; stroke: #fff; opacity: 1;" id="p-type-logs"></path><path d="M58.458175670715676,-188.1266639720477A197,197,0,0,1,59.77483806432463,-187.71246291704708L51.76652827080617,-162.56376149310714A170.6070045455344,170.6070045455344,0,0,0,50.62626518973319,-162.922470129012Z" fill-rule="evenodd" style="fill: #1DC690; stroke: #fff; opacity: 1;" id="p-type-logs"></path><path d="M59.77483806432463,-187.71246291704708A197,197,0,0,1,61.08856606713989,-187.28904691908892L52.90425009490718,-162.19707248250666A170.6070045455344,170.6070045455344,0,0,0,51.76652827080617,-162.56376149310714Z" fill-rule="evenodd" style="fill: #1DC690; stroke: #fff; opacity: 1;" id="p-type-logs"></path><path d="M61.08856606713989,-187.28904691908892A197,197,0,0,1,62.3992951872868,-186.85643676397623L54.03937481043443,-161.82242109824392A170.6070045455344,170.6070045455344,0,0,0,52.90425009490718,-162.19707248250666Z" fill-rule="evenodd" style="fill: #1DC690; stroke: #fff; opacity: 1;" id="p-type-logs"></path><path d="M62.3992951872868,-186.85643676397623A197,197,0,0,1,63.70696108010828,-186.4146536888599L55.17184669328029,-161.43982573223118A170.6070045455344,170.6070045455344,0,0,0,54.03937481043443,-161.82242109824392Z" fill-rule="evenodd" style="fill: #1DC690; stroke: #fff; opacity: 1;" id="p-type-logs"></path><path d="M63.70696108010828,-186.4146536888599A197,197,0,0,1,65.01149955132314,-185.96371938119626L56.30161014956648,-161.04930516635653A170.6070045455344,170.6070045455344,0,0,0,55.17184669328029,-161.43982573223118Z" fill-rule="evenodd" style="fill: #1DC690; stroke: #fff; opacity: 1;" id="p-type-logs"></path><path d="M65.01149955132314,-185.96371938119626A197,197,0,0,1,66.31284656017782,-185.5036559776823L57.42860971837352,-160.65087857156192A170.6070045455344,170.6070045455344,0,0,0,56.30161014956648,-161.04930516635653Z" fill-rule="evenodd" style="fill: #1DC690; stroke: #fff; opacity: 1;" id="p-type-logs"></path><path d="M66.31284656017782,-185.5036559776823A197,197,0,0,1,67.61093822258978,-185.03448606316917L58.55279007446305,-160.24456550690218A170.6070045455344,170.6070045455344,0,0,0,57.42860971837352,-160.65087857156192Z" fill-rule="evenodd" style="fill: #1DC690; stroke: #fff; opacity: 1;" id="p-type-logs"></path><path d="M67.61093822258978,-185.03448606316917A197,197,0,0,1,68.90571081428403,-184.55623266955322L59.67409603099409,-159.83038591858462A170.6070045455344,170.6070045455344,0,0,0,58.55279007446305,-160.24456550690218Z" fill-rule="evenodd" style="fill: #1DC690; stroke: #fff; opacity: 1;" id="p-type-logs"></path><path d="M68.90571081428403,-184.55623266955322A197,197,0,0,1,70.19710077392104,-184.06891927464554L60.7924725422319,-159.40836013899013A170.6070045455344,170.6070045455344,0,0,0,59.67409603099409,-159.83038591858462Z" fill-rule="evenodd" style="fill: #1DC690; stroke: #fff; opacity: 1;" id="p-type-logs"></path><path d="M70.19710077392104,-184.06891927464554A197,197,0,0,1,71.48504470621732,-183.5725698010193L61.90786470625051,-158.9785088856748A170.6070045455344,170.6070045455344,0,0,0,60.7924725422319,-159.40836013899013Z" fill-rule="evenodd" style="fill: #1DC690; stroke: #fff; opacity: 1;" id="p-type-logs"></path><path d="M71.48504470621732,-183.5725698010193A197,197,0,0,1,72.76947938505727,-183.06720861483555L63.0202177676276,-158.54085326035303A170.6070045455344,170.6070045455344,0,0,0,61.90786470625051,-158.9785088856748Z" fill-rule="evenodd" style="fill: #1DC690; stroke: #fff; opacity: 1;" id="p-type-logs"></path><path d="M72.76947938505727,-183.06720861483555A197,197,0,0,1,74.05034175659723,-182.5528605246468L64.1294771201328,-158.09541474786155A170.6070045455344,170.6070045455344,0,0,0,63.0202177676276,-158.54085326035303Z" fill-rule="evenodd" style="fill: #1DC690; stroke: #fff; opacity: 1;" id="p-type-logs"></path><path d="M74.05034175659723,-182.5528605246468A197,197,0,0,1,75.32756894236066,-182.02955078017936L65.23558830940803,-157.6422152151048A170.6070045455344,170.6070045455344,0,0,0,64.1294771201328,-158.09541474786155Z" fill-rule="evenodd" style="fill: #1DC690; stroke: #fff; opacity: 1;" id="p-type-logs"></path><path d="M75.32756894236066,-182.02955078017936A197,197,0,0,1,76.60109824232504,-181.49730507109373L66.338497035641,-157.1812769099814A170.6070045455344,170.6070045455344,0,0,0,65.23558830940803,-157.6422152151048Z" fill-rule="evenodd" style="fill: #1DC690; stroke: #fff; opacity: 1;" id="p-type-logs"></path><path d="M76.60109824232504,-181.49730507109373A197,197,0,0,1,77.87086713799967,-180.9561495257235L67.43814915623054,-156.71262246029195A170.6070045455344,170.6070045455344,0,0,0,66.338497035641,-157.1812769099814Z" fill-rule="evenodd" style="fill: #1DC690; stroke: #fff; opacity: 1;" id="p-type-logs"></path><path d="M77.87086713799967,-180.9561495257235A197,197,0,0,1,79.13681329549502,-180.40611070979264L68.5344906884448,-156.23627487262831A170.6070045455344,170.6070045455344,0,0,0,67.43814915623054,-156.71262246029195Z" fill-rule="evenodd" style="fill: #1DC690; stroke: #fff; opacity: 1;" id="p-type-logs"></path><path d="M79.13681329549502,-180.40611070979264A197,197,0,0,1,80.3988745685824,-179.84721562511152L69.62746781207102,-155.7522575312442A170.6070045455344,170.6070045455344,0,0,0,68.5344906884448,-156.23627487262831Z" fill-rule="evenodd" style="fill: #1DC690; stroke: #fff; opacity: 1;" id="p-type-logs"></path><path d="M80.3988745685824,-179.84721562511152A197,197,0,0,1,81.65698900174517,-179.27949170825107L70.71702687205783,-155.26059419690705A170.6070045455344,170.6070045455344,0,0,0,69.62746781207102,-155.7522575312442Z" fill-rule="evenodd" style="fill: #1DC690; stroke: #fff; opacity: 1;" id="p-type-logs"></path><path d="M81.65698900174517,-179.27949170825107A197,197,0,0,1,82.91109483321978,-178.7029668291963L71.80311438114904,-154.76130900573187A170.6070045455344,170.6070045455344,0,0,0,70.71702687205783,-155.26059419690705Z" fill-rule="evenodd" style="fill: #1DC690; stroke: #fff; opacity: 1;" id="p-type-logs"></path><path d="M82.91109483321978,-178.7029668291963A197,197,0,0,1,84.16113049802803,-178.11766928997778L72.88567702250955,-154.25442646799613A170.6070045455344,170.6070045455344,0,0,0,71.80311438114904,-154.76130900573187Z" fill-rule="evenodd" style="fill: #1DC690; stroke: #fff; opacity: 1;" id="p-type-logs"></path><path d="M84.16113049802803,-178.11766928997778A197,197,0,0,1,85.40703463099904,-177.52362782328254L73.96466165234247,-153.73997146693665A170.6070045455344,170.6070045455344,0,0,0,72.88567702250955,-154.25442646799613Z" fill-rule="evenodd" style="fill: #1DC690; stroke: #fff; opacity: 1;" id="p-type-logs"></path><path d="M85.40703463099904,-177.52362782328254A197,197,0,0,1,86.64874606978206,-176.9208715910433L75.04001530249829,-153.2179692575281A170.6070045455344,170.6070045455344,0,0,0,73.96466165234247,-153.73997146693665Z" fill-rule="evenodd" style="fill: #1DC690; stroke: #fff; opacity: 1;" id="p-type-logs"></path><path d="M86.64874606978206,-176.9208715910433A197,197,0,0,1,87.88620385784859,-176.30943018300718L76.11168518307481,-152.6884454652431A170.6070045455344,170.6070045455344,0,0,0,75.04001530249829,-153.2179692575281Z" fill-rule="evenodd" style="fill: #1DC690; stroke: #fff; opacity: 1;" id="p-type-logs"></path><path d="M87.88620385784859,-176.30943018300718A197,197,0,0,1,89.11934724748515,-175.68933361528286L77.17961868500893,-152.15142608479428A170.6070045455344,170.6070045455344,0,0,0,76.11168518307481,-152.6884454652431Z" fill-rule="evenodd" style="fill: #1DC690; stroke: #fff; opacity: 1;" id="p-type-logs"></path><path d="M89.11934724748515,-175.68933361528286A197,197,0,0,1,90.34811570277512,-175.06061232886728L78.243763382659,-151.60693747885836A170.6070045455344,170.6070045455344,0,0,0,77.17961868500893,-152.15142608479428Z" fill-rule="evenodd" style="fill: #1DC690; stroke: #fff; opacity: 1;" id="p-type-logs"></path><path d="M90.34811570277512,-175.06061232886728A197,197,0,0,1,91.57244890257071,-174.42329718815108L79.30406703637868,-151.05500637678168A170.6070045455344,170.6070045455344,0,0,0,78.243763382659,-151.60693747885836Z" fill-rule="evenodd" style="fill: #1DC690; stroke: #fff; opacity: 1;" id="p-type-logs"></path><path d="M91.57244890257071,-174.42329718815108A197,197,0,0,1,92.79228674345401,-173.77741947940362L80.36047759508118,-150.4956598732683A170.6070045455344,170.6070045455344,0,0,0,79.30406703637868,-151.05500637678168Z" fill-rule="evenodd" style="fill: #1DC690; stroke: #fff; opacity: 1;" id="p-type-logs"></path><path d="M92.79228674345401,-173.77741947940362A197,197,0,0,1,94.00756934268772,-173.1230109092369L81.41294319879474,-149.92892542704968A170.6070045455344,170.6070045455344,0,0,0,80.36047759508118,-150.4956598732683Z" fill-rule="evenodd" style="fill: #1DC690; stroke: #fff; opacity: 1;" id="p-type-logs"></path><path d="M94.00756934268772,-173.1230109092369A197,197,0,0,1,95.2182370411545,-172.46010360304933L82.46141218120822,-149.35483085953692A170.6070045455344,170.6070045455344,0,0,0,81.41294319879474,-149.92892542704968Z" fill-rule="evenodd" style="fill: #1DC690; stroke: #fff; opacity: 1;" id="p-type-logs"></path><path d="M95.2182370411545,-172.46010360304933A197,197,0,0,1,96.4242304062861,-171.78873010344844L83.50583307220766,-148.77340435345488A170.6070045455344,170.6070045455344,0,0,0,82.46141218120822,-149.35483085953692Z" fill-rule="evenodd" style="fill: #1DC690; stroke: #fff; opacity: 1;" id="p-type-logs"></path><path d="M96.4242304062861,-171.78873010344844A197,197,0,0,1,97.62549023498062,-171.1089233686534L84.54615460040286,-148.18467445145862A170.6070045455344,170.6070045455344,0,0,0,83.50583307220766,-148.77340435345488Z" fill-rule="evenodd" style="fill: #1DC690; stroke: #fff; opacity: 1;" id="p-type-logs"></path><path d="M97.62549023498062,-171.1089233686534A197,197,0,0,1,98.82195755650889,-170.42071677087722L85.58232569564426,-147.5886700547324A170.6070045455344,170.6070045455344,0,0,0,84.54615460040286,-148.18467445145862Z" fill-rule="evenodd" style="fill: #1DC690; stroke: #fff; opacity: 1;" id="p-type-logs"></path><path d="M98.82195755650889,-170.42071677087722A197,197,0,0,1,100.01357363540959,-169.72414409468826L86.61429549153027,-146.98542042157064A170.6070045455344,170.6070045455344,0,0,0,85.58232569564426,-147.5886700547324Z" fill-rule="evenodd" style="fill: #1DC690; stroke: #fff; opacity: 1;" id="p-type-logs"></path><path d="M100.01357363540959,-169.72414409468826A197,197,0,0,1,101.2002799743724,-169.01923953535183L87.6420133279041,-146.37495516594183A170.6070045455344,170.6070045455344,0,0,0,86.61429549153027,-146.98542042157064Z" fill-rule="evenodd" style="fill: #1DC690; stroke: #fff; opacity: 1;" id="p-type-logs"></path><path d="M101.2002799743724,-169.01923953535183A197,197,0,0,1,102.38201831710975,-168.30603769715157L88.66542875334076,-145.75730425603464A170.6070045455344,170.6070045455344,0,0,0,87.6420133279041,-146.37495516594183Z" fill-rule="evenodd" style="fill: #1DC690; stroke: #fff; opacity: 1;" id="p-type-logs"></path><path d="M102.38201831710975,-168.30603769715157A197,197,0,0,1,103.55873065121658,-167.58457359169063L89.68449152762376,-145.13249801278684A170.6070045455344,170.6070045455344,0,0,0,88.66542875334076,-145.75730425603464Z" fill-rule="evenodd" style="fill: #1DC690; stroke: #fff; opacity: 1;" id="p-type-logs"></path><path d="M103.55873065121658,-167.58457359169063A197,197,0,0,1,104.73035921101845,-166.85488263617293L90.69915162421155,-144.50056710839678A170.6070045455344,170.6070045455344,0,0,0,89.68449152762376,-145.13249801278684Z" fill-rule="evenodd" style="fill: #1DC690; stroke: #fff; opacity: 1;" id="p-type-logs"></path><path d="M104.73035921101845,-166.85488263617293A197,197,0,0,1,105.89684648040706,-166.11700065166448L91.70935923269325,-143.8615425648176A170.6070045455344,170.6070045455344,0,0,0,90.69915162421155,-144.50056710839678Z" fill-rule="evenodd" style="fill: #1DC690; stroke: #fff; opacity: 1;" id="p-type-logs"></path><path d="M105.89684648040706,-166.11700065166448A197,197,0,0,1,107.05813519566382,-165.370963861335L92.71506476123378,-143.21545575223448A170.6070045455344,170.6070045455344,0,0,0,91.70935923269325,-143.8615425648176Z" fill-rule="evenodd" style="fill: #1DC690; stroke: #fff; opacity: 1;" id="p-type-logs"></path><path d="M107.05813519566382,-165.370963861335A197,197,0,0,1,108.214168348271,-164.6168088886796L93.7162188390086,-142.5623383875245A170.6070045455344,170.6070045455344,0,0,0,92.71506476123378,-143.21545575223448Z" fill-rule="evenodd" style="fill: #1DC690; stroke: #fff; opacity: 1;" id="p-type-logs"></path><path d="M108.214168348271,-164.6168088886796A197,197,0,0,1,109.36488918771032,-163.8545727557209L94.71277231862722,-141.90222253269988A170.6070045455344,170.6070045455344,0,0,0,93.7162188390086,-142.5623383875245Z" fill-rule="evenodd" style="fill: #1DC690; stroke: #fff; opacity: 1;" id="p-type-logs"></path><path d="M109.36488918771032,-163.8545727557209A197,197,0,0,1,110.5102412242489,-163.08429288119171L95.70467627854588,-141.2351405933337A170.6070045455344,170.6070045455344,0,0,0,94.71277231862722,-141.90222253269988Z" fill-rule="evenodd" style="fill: #1DC690; stroke: #fff; opacity: 1;" id="p-type-logs"></path><path d="M110.5102412242489,-163.08429288119171A197,197,0,0,1,111.65016823171226,-162.30600707869795L96.69188202546911,-140.56112531696934A170.6070045455344,170.6070045455344,0,0,0,95.70467627854588,-141.2351405933337Z" fill-rule="evenodd" style="fill: #1DC690; stroke: #fff; opacity: 1;" id="p-type-logs"></path><path d="M111.65016823171226,-162.30600707869795A197,197,0,0,1,112.78461425024469,-161.51975355486246L97.6743410967403,-139.88020979151278A170.6070045455344,170.6070045455344,0,0,0,96.69188202546911,-140.56112531696934Z" fill-rule="evenodd" style="fill: #1DC690; stroke: #fff; opacity: 1;" id="p-type-logs"></path><path d="M112.78461425024469,-161.51975355486246A197,197,0,0,1,113.91352358905617,-160.7255709074494L98.65200526272054,-139.19242744360827A170.6070045455344,170.6070045455344,0,0,0,97.6743410967403,-139.88020979151278Z" fill-rule="evenodd" style="fill: #1DC690; stroke: #fff; opacity: 1;" id="p-type-logs"></path><path d="M113.91352358905617,-160.7255709074494A197,197,0,0,1,115.0368408291564,-159.92349812346944L99.62482652915637,-138.49781203699754A170.6070045455344,170.6070045455344,0,0,0,98.65200526272054,-139.19242744360827Z" fill-rule="evenodd" style="fill: #1DC690; stroke: #fff; opacity: 1;" id="p-type-logs"></path><path d="M115.0368408291564,-159.92349812346944A197,197,0,0,1,116.15451082607534,-159.11357457726587L100.59275713953585,-137.79639767086206A170.6070045455344,170.6070045455344,0,0,0,99.62482652915637,-138.49781203699754Z" fill-rule="evenodd" style="fill: #1DC690; stroke: #fff; opacity: 1;" id="p-type-logs"></path><path d="M116.15451082607534,-159.11357457726587A197,197,0,0,1,117.26647871257026,-158.29584002858164L101.55574957743295,-137.08821877814933A170.6070045455344,170.6070045455344,0,0,0,100.59275713953585,-137.79639767086206Z" fill-rule="evenodd" style="fill: #1DC690; stroke: #fff; opacity: 1;" id="p-type-logs"></path><path d="M117.26647871257026,-158.29584002858164A197,197,0,0,1,118.37268990131922,-157.4703346206076L102.51375656884011,-136.37331012388233A170.6070045455344,170.6070045455344,0,0,0,101.55574957743295,-137.08821877814933Z" fill-rule="evenodd" style="fill: #1DC690; stroke: #fff; opacity: 1;" id="p-type-logs"></path><path d="M118.37268990131922,-157.4703346206076A197,197,0,0,1,119.47309008760078,-156.63709887801176L103.46673108448908,-135.65170680345315A170.6070045455344,170.6070045455344,0,0,0,102.51375656884011,-136.37331012388233Z" fill-rule="evenodd" style="fill: #1DC690; stroke: #fff; opacity: 1;" id="p-type-logs"></path><path d="M119.47309008760078,-156.63709887801176A197,197,0,0,1,120.56762525195998,-155.79617370494995L104.41462634215952,-134.9234442408998A170.6070045455344,170.6070045455344,0,0,0,103.46673108448908,-135.65170680345315Z" fill-rule="evenodd" style="fill: #1DC690; stroke: #fff; opacity: 1;" id="p-type-logs"></path><path d="M120.56762525195998,-155.79617370494995A197,197,0,0,1,121.65624166286,-154.9476003830579L105.35739580897558,-134.18855818716756A170.6070045455344,170.6070045455344,0,0,0,104.41462634215952,-134.9234442408998Z" fill-rule="evenodd" style="fill: #1DC690; stroke: #fff; opacity: 1;" id="p-type-logs"></path><path d="M121.65624166286,-154.9476003830579A197,197,0,0,1,122.73888587932005,-154.09142056942446L106.29499320369028,-133.44708471835358A170.6070045455344,170.6070045455344,0,0,0,105.35739580897558,-134.18855818716756Z" fill-rule="evenodd" style="fill: #1DC690; stroke: #fff; opacity: 1;" id="p-type-logs"></path><path d="M122.73888587932005,-154.09142056942446A197,197,0,0,1,123.81550475353873,-153.22767629454682L107.22737249895746,-132.69906023393617A170.6070045455344,170.6070045455344,0,0,0,106.29499320369028,-133.44708471835358Z" fill-rule="evenodd" style="fill: #1DC690; stroke: #fff; opacity: 1;" id="p-type-logs"></path><path d="M123.81550475353873,-153.22767629454682A197,197,0,0,1,124.88604543350313,-152.35640996026717L108.15448792359129,-131.94452145498784A170.6070045455344,170.6070045455344,0,0,0,107.22737249895746,-132.69906023393617Z" fill-rule="evenodd" style="fill: #1DC690; stroke: #fff; opacity: 1;" id="p-type-logs"></path><path d="M124.88604543350313,-152.35640996026717A197,197,0,0,1,125.95045536558338,-151.47766433769104L109.07629396481326,-131.18350542237255A170.6070045455344,170.6070045455344,0,0,0,108.15448792359129,-131.94452145498784Z" fill-rule="evenodd" style="fill: #1DC690; stroke: #fff; opacity: 1;" id="p-type-logs"></path><path d="M125.95045536558338,-151.47766433769104A197,197,0,0,1,127.0086822971125,-150.5914825650878L109.99274537048633,-130.41604949492742A170.6070045455344,170.6070045455344,0,0,0,109.07629396481326,-131.18350542237255Z" fill-rule="evenodd" style="fill: #1DC690; stroke: #fff; opacity: 1;" id="p-type-logs"></path><path d="M127.0086822971125,-150.5914825650878A197,197,0,0,1,128.06067427895164,-149.69790814577289L110.90379715133656,-129.64219134762877A170.6070045455344,170.6070045455344,0,0,0,109.99274537048633,-130.41604949492742Z" fill-rule="evenodd" style="fill: #1DC690; stroke: #fff; opacity: 1;" id="p-type-logs"></path><path d="M128.06067427895164,-149.69790814577289A197,197,0,0,1,129.10637966804012,-148.7969849459722L111.80940458316148,-128.86196896974263A170.6070045455344,170.6070045455344,0,0,0,110.90379715133656,-129.64219134762877Z" fill-rule="evenodd" style="fill: #1DC690; stroke: #fff; opacity: 1;" id="p-type-logs"></path><path d="M129.10637966804012,-148.7969849459722A197,197,0,0,1,130.14574712993075,-147.8887571926687L112.70952320902573,-128.07542066295971A170.6070045455344,170.6070045455344,0,0,0,111.80940458316148,-128.86196896974263Z" fill-rule="evenodd" style="fill: #1DC690; stroke: #fff; opacity: 1;" id="p-type-logs"></path><path d="M130.14574712993075,-147.8887571926687A197,197,0,0,1,131.17872564130994,-146.97326947143122L113.60410884144353,-127.28258503951533A170.6070045455344,170.6070045455344,0,0,0,112.70952320902573,-128.07542066295971Z" fill-rule="evenodd" style="fill: #1DC690; stroke: #fff; opacity: 1;" id="p-type-logs"></path><path d="M131.17872564130994,-146.97326947143122A197,197,0,0,1,132.20526449250227,-146.05056672422575L114.49311756454779,-126.4835010202937A170.6070045455344,170.6070045455344,0,0,0,113.60410884144353,-127.28258503951533Z" fill-rule="evenodd" style="fill: #1DC690; stroke: #fff; opacity: 1;" id="p-type-logs"></path><path d="M132.20526449250227,-146.05056672422575A197,197,0,0,1,133.22531328996004,-145.12069424720926L115.37650573624599,-125.67820783291747A170.6070045455344,170.6070045455344,0,0,0,114.49311756454779,-126.4835010202937Z" fill-rule="evenodd" style="fill: #1DC690; stroke: #fff; opacity: 1;" id="p-type-logs"></path><path d="M133.22531328996004,-145.12069424720926A197,197,0,0,1,134.23882195873702,-144.18369768850604L116.2542299903626,-124.86674500982187A170.6070045455344,170.6070045455344,0,0,0,115.37650573624599,-125.67820783291747Z" fill-rule="evenodd" style="fill: #1DC690; stroke: #fff; opacity: 1;" id="p-type-logs"></path><path d="M134.23882195873702,-144.18369768850604A197,197,0,0,1,135.24574074494674,-143.23962304596677L117.126247238768,-124.04915238631413A170.6070045455344,170.6070045455344,0,0,0,116.2542299903626,-124.86674500982187Z" fill-rule="evenodd" style="fill: #1DC690; stroke: #fff; opacity: 1;" id="p-type-logs"></path><path d="M135.24574074494674,-143.23962304596677A197,197,0,0,1,136.24602021820493,-142.28851666491042L117.99251467349373,-123.22547009861786A170.6070045455344,170.6070045455344,0,0,0,117.126247238768,-124.04915238631413Z" fill-rule="evenodd" style="fill: #1DC690; stroke: #fff; opacity: 1;" id="p-type-logs"></path><path d="M136.24602021820493,-142.28851666491042A197,197,0,0,1,137.23961127405607,-141.33042523584928L118.85298976883381,-122.39573858190278A170.6070045455344,170.6070045455344,0,0,0,117.99251467349373,-123.22547009861786Z" fill-rule="evenodd" style="fill: #1DC690; stroke: #fff; opacity: 1;" id="p-type-logs"></path><path d="M137.23961127405607,-141.33042523584928A197,197,0,0,1,138.22646513638392,-140.36539579219672L119.70763028343252,-121.5599985682997A170.6070045455344,170.6070045455344,0,0,0,118.85298976883381,-122.39573858190278Z" fill-rule="evenodd" style="fill: #1DC690; stroke: #fff; opacity: 1;" id="p-type-logs"></path><path d="M138.22646513638392,-140.36539579219672A197,197,0,0,1,139.20653335980612,-139.3934757079584L120.55639426235803,-120.71829108490101A170.6070045455344,170.6070045455344,0,0,0,119.70763028343252,-121.5599985682997Z" fill-rule="evenodd" style="fill: #1DC690; stroke: #fff; opacity: 1;" id="p-type-logs"></path><path d="M139.20653335980612,-139.3934757079584A197,197,0,0,1,140.17976783205225,-138.4147126954065L121.3992400391619,-119.8706574517465A170.6070045455344,170.6070045455344,0,0,0,120.55639426235803,-120.71829108490101Z" fill-rule="evenodd" style="fill: #1DC690; stroke: #fff; opacity: 1;" id="p-type-logs"></path><path d="M140.17976783205225,-138.4147126954065A197,197,0,0,1,141.14612077632574,-137.42915480273777L122.23612623792465,-119.0171392797951A170.6070045455344,170.6070045455344,0,0,0,121.3992400391619,-119.8706574517465Z" fill-rule="evenodd" style="fill: #1DC690; stroke: #fff; opacity: 1;" id="p-type-logs"></path><path d="M196.9298688525441,5.256115839646332A197,197,0,0,1,196.88820850167514,6.635763181496166L170.51019026805795,5.7467394886731284A170.6070045455344,170.6070045455344,0,0,0,170.54626919024105,4.551929842367499Z" fill-rule="evenodd" style="fill: #D7A449; stroke: #fff; opacity: 1;" id="p-type-tokenTransfers"></path><path d="M196.88820850167514,6.635763181496166A197,197,0,0,1,196.83688276374474,8.01508476884762L170.46574087514225,6.9412670233077645A170.6070045455344,170.6070045455344,0,0,0,170.51019026805795,5.7467394886731284Z" fill-rule="evenodd" style="fill: #D7A449; stroke: #fff; opacity: 1;" id="p-type-tokenTransfers"></path><path d="M196.83688276374474,8.01508476884762A197,197,0,0,1,196.77589415837113,9.394012889788819L170.41292319354733,8.135453806035581A170.6070045455344,170.6070045455344,0,0,0,170.46574087514225,6.9412670233077645Z" fill-rule="evenodd" style="fill: #D7A449; stroke: #fff; opacity: 1;" id="p-type-tokenTransfers"></path><path d="M196.77589415837113,9.394012889788819A197,197,0,0,1,196.7052456795299,10.772479851723435L170.35173981613207,9.329241213348517A170.6070045455344,170.6070045455344,0,0,0,170.41292319354733,8.135453806035581Z" fill-rule="evenodd" style="fill: #D7A449; stroke: #fff; opacity: 1;" id="p-type-tokenTransfers"></path><path d="M196.7052456795299,10.772479851723435A197,197,0,0,1,196.6249407954068,12.150417984693785L170.2821937464335,10.52257064134414A170.6070045455344,170.6070045455344,0,0,0,170.35173981613207,9.329241213348517Z" fill-rule="evenodd" style="fill: #D7A449; stroke: #fff; opacity: 1;" id="p-type-tokenTransfers"></path><path d="M196.6249407954068,12.150417984693785A197,197,0,0,1,196.53498344822773,13.527759644702783L170.2042883985194,11.715383508602562A170.6070045455344,170.6070045455344,0,0,0,170.2821937464335,10.52257064134414Z" fill-rule="evenodd" style="fill: #D7A449; stroke: #fff; opacity: 1;" id="p-type-tokenTransfers"></path><path d="M196.53498344822773,13.527759644702783A197,197,0,0,1,196.4353780540651,14.904437217034642L170.11802759682055,12.90762125906224A170.6070045455344,170.6070045455344,0,0,0,170.2042883985194,11.715383508602562Z" fill-rule="evenodd" style="fill: #D7A449; stroke: #fff; opacity: 1;" id="p-type-tokenTransfers"></path><path d="M196.4353780540651,14.904437217034642A197,197,0,0,1,196.32612950262092,16.28038311957412L170.0234155759433,14.099225364894538A170.6070045455344,170.6070045455344,0,0,0,170.11802759682055,12.90762125906224Z" fill-rule="evenodd" style="fill: #D7A449; stroke: #fff; opacity: 1;" id="p-type-tokenTransfers"></path><path d="M196.32612950262092,16.28038311957412A197,197,0,0,1,196.2072431569871,17.655529806124203L169.92045698046127,15.290137329376906A170.6070045455344,170.6070045455344,0,0,0,170.0234155759433,14.099225364894538Z" fill-rule="evenodd" style="fill: #D7A449; stroke: #fff; opacity: 1;" id="p-type-tokenTransfers"></path><path d="M196.2072431569871,17.655529806124203A197,197,0,0,1,196.07872485338177,19.029809769721957L169.8091568646878,16.480298689764513A170.6070045455344,170.6070045455344,0,0,0,169.92045698046127,15.290137329376906Z" fill-rule="evenodd" style="fill: #D7A449; stroke: #fff; opacity: 1;" id="p-type-tokenTransfers"></path><path d="M196.07872485338177,19.029809769721957A197,197,0,0,1,195.94058090086307,20.40315554595253L169.6895206924274,17.66965102016025A170.6070045455344,170.6070045455344,0,0,0,169.8091568646878,16.480298689764513Z" fill-rule="evenodd" style="fill: #D7A449; stroke: #fff; opacity: 1;" id="p-type-tokenTransfers"></path><path d="M195.94058090086307,20.40315554595253A197,197,0,0,1,195.7928180810193,21.775499716261002L169.56155433670787,18.858135934382865A170.6070045455344,170.6070045455344,0,0,0,169.6895206924274,17.66965102016025Z" fill-rule="evenodd" style="fill: #D7A449; stroke: #fff; opacity: 1;" id="p-type-tokenTransfers"></path><path d="M195.7928180810193,21.775499716261002A197,197,0,0,1,195.635443647636,23.14677491126204L169.42526407949177,20.04569508883322A170.6070045455344,170.6070045455344,0,0,0,169.56155433670787,18.858135934382865Z" fill-rule="evenodd" style="fill: #D7A449; stroke: #fff; opacity: 1;" id="p-type-tokenTransfers"></path><path d="M195.635443647636,23.14677491126204A197,197,0,0,1,195.46846532634,24.516913814047083L169.28065661136816,21.232270185358406A170.6070045455344,170.6070045455344,0,0,0,169.42526407949177,20.04569508883322Z" fill-rule="evenodd" style="fill: #D7A449; stroke: #fff; opacity: 1;" id="p-type-tokenTransfers"></path><path d="M195.46846532634,24.516913814047083A197,197,0,0,1,195.29189131421995,25.885849163489L169.12773903122402,22.41780297411363A170.6070045455344,170.6070045455344,0,0,0,169.28065661136816,21.232270185358406Z" fill-rule="evenodd" style="fill: #D7A449; stroke: #fff; opacity: 1;" id="p-type-tokenTransfers"></path><path d="M195.29189131421995,25.885849163489A197,197,0,0,1,195.10573027942405,27.25351375754397L168.966518845896,23.60223525642177A170.6070045455344,170.6070045455344,0,0,0,169.12773903122402,22.41780297411363Z" fill-rule="evenodd" style="fill: #D7A449; stroke: #fff; opacity: 1;" id="p-type-tokenTransfers"></path><path d="M195.10573027942405,27.25351375754397A197,197,0,0,1,194.9099913607345,28.6198404565505L168.79700396980152,24.78550888763036A170.6070045455344,170.6070045455344,0,0,0,168.966518845896,23.60223525642177Z" fill-rule="evenodd" style="fill: #D7A449; stroke: #fff; opacity: 1;" id="p-type-tokenTransfers"></path><path d="M194.9099913607345,28.6198404565505A197,197,0,0,1,194.7046841671189,29.984762186525348L168.61920272455075,25.96756577996598A170.6070045455344,170.6070045455344,0,0,0,168.79700396980152,24.78550888763036Z" fill-rule="evenodd" style="fill: #D7A449; stroke: #fff; opacity: 1;" id="p-type-tokenTransfers"></path><path d="M194.7046841671189,29.984762186525348A197,197,0,0,1,194.48981877725848,31.348211942456224L168.43312383853757,27.148347905385812A170.6070045455344,170.6070045455344,0,0,0,168.61920272455075,25.96756577996598Z" fill-rule="evenodd" style="fill: #D7A449; stroke: #fff; opacity: 1;" id="p-type-tokenTransfers"></path><path d="M194.48981877725848,31.348211942456224A197,197,0,0,1,194.26540573905336,32.71012279159114L168.23877644651148,28.327797298426283A170.6070045455344,170.6070045455344,0,0,0,168.43312383853757,27.148347905385812Z" fill-rule="evenodd" style="fill: #D7A449; stroke: #fff; opacity: 1;" id="p-type-tokenTransfers"></path><path d="M194.26540573905336,32.71012279159114A197,197,0,0,1,194.03145606910476,34.07042787672417L168.03617008912903,29.505856059048643A170.6070045455344,170.6070045455344,0,0,0,168.23877644651148,28.327797298426283Z" fill-rule="evenodd" style="fill: #D7A449; stroke: #fff; opacity: 1;" id="p-type-tokenTransfers"></path><path d="M194.03145606910476,34.07042787672417A197,197,0,0,1,193.78798125217418,35.42906041947752L167.82531471248538,30.682466355481296A170.6070045455344,170.6070045455344,0,0,0,168.03617008912903,29.505856059048643Z" fill-rule="evenodd" style="fill: #D7A449; stroke: #fff; opacity: 1;" id="p-type-tokenTransfers"></path><path d="M193.78798125217418,35.42906041947752A197,197,0,0,1,193.53499324061954,36.78595372357976L167.60622066762613,31.857570427058832A170.6070045455344,170.6070045455344,0,0,0,167.82531471248538,30.682466355481296Z" fill-rule="evenodd" style="fill: #D7A449; stroke: #fff; opacity: 1;" id="p-type-tokenTransfers"></path><path d="M193.53499324061954,36.78595372357976A197,197,0,0,1,193.27250445380852,38.14104117813991L167.37889871003924,33.03111058705752A170.6070045455344,170.6070045455344,0,0,0,167.60622066762613,31.857570427058832Z" fill-rule="evenodd" style="fill: #D7A449; stroke: #fff; opacity: 1;" id="p-type-tokenTransfers"></path><path d="M193.27250445380852,38.14104117813991A197,197,0,0,1,193.00052777750886,39.494256260917524L167.1433599991269,34.203029225527196A170.6070045455344,170.6070045455344,0,0,0,167.37889871003924,33.03111058705752Z" fill-rule="evenodd" style="fill: #D7A449; stroke: #fff; opacity: 1;" id="p-type-tokenTransfers"></path><path d="M193.00052777750886,39.494256260917524A197,197,0,0,1,192.7190765632558,40.845532541588256L166.89961609765774,35.37326881211939A170.6070045455344,170.6070045455344,0,0,0,167.1433599991269,34.203029225527196Z" fill-rule="evenodd" style="fill: #D7A449; stroke: #fff; opacity: 1;" id="p-type-tokenTransfers"></path><path d="M192.7190765632558,40.845532541588256A197,197,0,0,1,192.42816462769656,42.194803685004956L166.64767897119935,36.541771898911534A170.6070045455344,170.6070045455344,0,0,0,166.89961609765774,35.37326881211939Z" fill-rule="evenodd" style="fill: #D7A449; stroke: #fff; opacity: 1;" id="p-type-tokenTransfers"></path><path d="M192.42816462769656,42.194803685004956A197,197,0,0,1,192.12780625191218,43.54200345445416L166.38756098753063,37.70848112322709A170.6070045455344,170.6070045455344,0,0,0,166.64767897119935,36.541771898911534Z" fill-rule="evenodd" style="fill: #D7A449; stroke: #fff; opacity: 1;" id="p-type-tokenTransfers"></path><path d="M192.12780625191218,43.54200345445416A197,197,0,0,1,191.81801618071637,44.88706571490768L166.11927491603487,38.873339210451554A170.6070045455344,170.6070045455344,0,0,0,166.38756098753063,37.70848112322709Z" fill-rule="evenodd" style="fill: #D7A449; stroke: #fff; opacity: 1;" id="p-type-tokenTransfers"></path><path d="M191.81801618071637,44.88706571490768A197,197,0,0,1,191.4988096219317,46.2299244362692L165.84283392707275,40.03628897684412A170.6070045455344,170.6070045455344,0,0,0,166.11927491603487,38.873339210451554Z" fill-rule="evenodd" style="fill: #D7A449; stroke: #fff; opacity: 1;" id="p-type-tokenTransfers"></path><path d="M191.4988096219317,46.2299244362692A197,197,0,0,1,191.1702022456431,47.57051369661577L165.55825159133587,41.19727333234484A170.6070045455344,170.6070045455344,0,0,0,165.84283392707275,40.03628897684412Z" fill-rule="evenodd" style="fill: #D7A449; stroke: #fff; opacity: 1;" id="p-type-tokenTransfers"></path><path d="M191.1702022456431,47.57051369661577A197,197,0,0,1,190.83221018342854,48.90876768543396L165.26554187918057,42.356235283377245A170.6070045455344,170.6070045455344,0,0,0,165.55825159133587,41.19727333234484Z" fill-rule="evenodd" style="fill: #D7A449; stroke: #fff; opacity: 1;" id="p-type-tokenTransfers"></path><path d="M190.83221018342854,48.90876768543396A197,197,0,0,1,190.4848500275671,50.24462070685051L164.96471915994204,43.51311793564618A170.6070045455344,170.6070045455344,0,0,0,165.26554187918057,42.356235283377245Z" fill-rule="evenodd" style="fill: #D7A449; stroke: #fff; opacity: 1;" id="p-type-tokenTransfers"></path><path d="M190.4848500275671,50.24462070685051A197,197,0,0,1,190.12813883022446,51.578007182857455L164.65579820122895,44.667864496930804A170.6070045455344,170.6070045455344,0,0,0,164.96471915994204,43.51311793564618Z" fill-rule="evenodd" style="fill: #D7A449; stroke: #fff; opacity: 1;" id="p-type-tokenTransfers"></path><path d="M190.12813883022446,51.578007182857455A197,197,0,0,1,189.76209410261583,52.90886165653133L164.33879416819852,45.82041827987255A170.6070045455344,170.6070045455344,0,0,0,164.65579820122895,44.667864496930804Z" fill-rule="evenodd" style="fill: #D7A449; stroke: #fff; opacity: 1;" id="p-type-tokenTransfers"></path><path d="M189.76209410261583,52.90886165653133A197,197,0,0,1,189.3867338141463,54.237118795246545L164.01372262281205,46.970722704757954A170.6070045455344,170.6070045455344,0,0,0,164.33879416819852,45.82041827987255Z" fill-rule="evenodd" style="fill: #D7A449; stroke: #fff; opacity: 1;" id="p-type-tokenTransfers"></path><path d="M189.3867338141463,54.237118795246545A197,197,0,0,1,189.00207639152873,55.56271339388257L163.68059952307098,48.11872130229619A170.6070045455344,170.6070045455344,0,0,0,164.01372262281205,46.970722704757954Z" fill-rule="evenodd" style="fill: #D7A449; stroke: #fff; opacity: 1;" id="p-type-tokenTransfers"></path><path d="M189.00207639152873,55.56271339388257A197,197,0,0,1,188.60814071787902,56.88558037802497L163.3394412222334,49.26435771639122A170.6070045455344,170.6070045455344,0,0,0,163.68059952307098,48.11872130229619Z" fill-rule="evenodd" style="fill: #D7A449; stroke: #fff; opacity: 1;" id="p-type-tokenTransfers"></path><path d="M188.60814071787902,56.88558037802497A197,197,0,0,1,188.2049461317894,58.20565480715987L162.99026446801145,50.407575706908275A170.6070045455344,170.6070045455344,0,0,0,163.3394412222334,49.26435771639122Z" fill-rule="evenodd" style="fill: #D7A449; stroke: #fff; opacity: 1;" id="p-type-tokenTransfers"></path><path d="M188.2049461317894,58.20565480715987A197,197,0,0,1,187.79251242637875,59.522871877862L162.63308640174887,51.54831915243485A170.6070045455344,170.6070045455344,0,0,0,162.99026446801145,50.407575706908275Z" fill-rule="evenodd" style="fill: #D7A449; stroke: #fff; opacity: 1;" id="p-type-tokenTransfers"></path><path d="M187.79251242637875,59.522871877862A197,197,0,0,1,187.37085984832132,60.83716692697591L162.2679245575799,52.68653205303561A170.6070045455344,170.6070045455344,0,0,0,162.63308640174887,51.54831915243485Z" fill-rule="evenodd" style="fill: #D7A449; stroke: #fff; opacity: 1;" id="p-type-tokenTransfers"></path><path d="M187.37085984832132,60.83716692697591A197,197,0,0,1,186.9400090968524,62.14847543479034L161.89479686156824,53.82215853300157A170.6070045455344,170.6070045455344,0,0,0,162.2679245575799,52.68653205303561Z" fill-rule="evenodd" style="fill: #D7A449; stroke: #fff; opacity: 1;" id="p-type-tokenTransfers"></path><path d="M186.9400090968524,62.14847543479034A197,197,0,0,1,186.49998132275255,63.456733028205555L161.51372163082704,54.95514284359304A170.6070045455344,170.6070045455344,0,0,0,161.89479686156824,53.82215853300157Z" fill-rule="evenodd" style="fill: #D7A449; stroke: #fff; opacity: 1;" id="p-type-tokenTransfers"></path><path d="M186.49998132275255,63.456733028205555A197,197,0,0,1,186.05079812730898,64.76187548389342L161.12471757261983,56.085429365776335A170.6070045455344,170.6070045455344,0,0,0,161.51372163082704,54.95514284359304Z" fill-rule="evenodd" style="fill: #D7A449; stroke: #fff; opacity: 1;" id="p-type-tokenTransfers"></path><path d="M186.05079812730898,64.76187548389342A197,197,0,0,1,185.59248156125543,66.06383873145025L160.7278037834422,57.212962612954236A170.6070045455344,170.6070045455344,0,0,0,161.12471757261983,56.085429365776335Z" fill-rule="evenodd" style="fill: #D7A449; stroke: #fff; opacity: 1;" id="p-type-tokenTransfers"></path><path d="M185.59248156125543,66.06383873145025A197,197,0,0,1,185.12505412368938,67.36255885654197L160.32299974808413,58.33768723368977A170.6070045455344,170.6070045455344,0,0,0,160.7278037834422,57.212962612954236Z" fill-rule="evenodd" style="fill: #D7A449; stroke: #fff; opacity: 1;" id="p-type-tokenTransfers"></path><path d="M185.12505412368938,67.36255885654197A197,197,0,0,1,184.64853876096777,68.65797210404182L159.9103253386737,59.45954801442355A170.6070045455344,170.6070045455344,0,0,0,160.32299974808413,58.33768723368977Z" fill-rule="evenodd" style="fill: #D7A449; stroke: #fff; opacity: 1;" id="p-type-tokenTransfers"></path><path d="M184.64853876096777,68.65797210404182A197,197,0,0,1,184.16295886558046,69.9500148811601L159.48980081370127,60.578489882184165A170.6070045455344,170.6070045455344,0,0,0,159.9103253386737,59.45954801442355Z" fill-rule="evenodd" style="fill: #D7A449; stroke: #fff; opacity: 1;" id="p-type-tokenTransfers"></path><path d="M184.16295886558046,69.9500148811601A197,197,0,0,1,183.6683382750019,71.23862376056594L159.0614468170254,61.69445790729182A170.6070045455344,170.6070045455344,0,0,0,159.48980081370127,60.578489882184165Z" fill-rule="evenodd" style="fill: #D7A449; stroke: #fff; opacity: 1;" id="p-type-tokenTransfers"></path><path d="M183.6683382750019,71.23862376056594A197,197,0,0,1,183.16470127052094,72.52373548350106L158.62528437685896,62.80739730605482A170.6070045455344,170.6070045455344,0,0,0,159.0614468170254,61.69445790729182Z" fill-rule="evenodd" style="fill: #D7A449; stroke: #fff; opacity: 1;" id="p-type-tokenTransfers"></path><path d="M183.16470127052094,72.52373548350106A197,197,0,0,1,182.65207257604874,73.80528696288515L158.1813349047372,63.91725344345897A170.6070045455344,170.6070045455344,0,0,0,158.62528437685896,62.80739730605482Z" fill-rule="evenodd" style="fill: #D7A449; stroke: #fff; opacity: 1;" id="p-type-tokenTransfers"></path><path d="M182.65207257604874,73.80528696288515A197,197,0,0,1,182.13047735690523,75.08321528641291L157.7296201944664,65.02397183584968A170.6070045455344,170.6070045455344,0,0,0,158.1813349047372,63.91725344345897Z" fill-rule="evenodd" style="fill: #D7A449; stroke: #fff; opacity: 1;" id="p-type-tokenTransfers"></path><path d="M182.13047735690523,75.08321528641291A197,197,0,0,1,181.5999412185836,76.3574577196424L157.2701624210542,66.12749815360651A170.6070045455344,170.6070045455344,0,0,0,157.7296201944664,65.02397183584968Z" fill-rule="evenodd" style="fill: #D7A449; stroke: #fff; opacity: 1;" id="p-type-tokenTransfers"></path><path d="M181.5999412185836,76.3574577196424A197,197,0,0,1,181.06049020549335,77.62795170907476L156.80298413962078,67.22777822381038A170.6070045455344,170.6070045455344,0,0,0,157.2701624210542,66.12749815360651Z" fill-rule="evenodd" style="fill: #D7A449; stroke: #fff; opacity: 1;" id="p-type-tokenTransfers"></path><path d="M181.06049020549335,77.62795170907476A197,197,0,0,1,180.51215079968173,78.89463488522497L156.32810828429186,68.3247580329028A170.6070045455344,170.6070045455344,0,0,0,156.80298413962078,67.22777822381038Z" fill-rule="evenodd" style="fill: #D7A449; stroke: #fff; opacity: 1;" id="p-type-tokenTransfers"></path><path d="M180.51215079968173,78.89463488522497A197,197,0,0,1,179.95494991953376,80.15744506568367L155.84555816707265,69.41838372933766A170.6070045455344,170.6070045455344,0,0,0,156.32810828429186,68.3247580329028Z" fill-rule="evenodd" style="fill: #D7A449; stroke: #fff; opacity: 1;" id="p-type-tokenTransfers"></path><path d="M179.95494991953376,80.15744506568367A197,197,0,0,1,179.3889149184507,81.4163202581697L155.35535747670357,70.50860162622459A170.6070045455344,170.6070045455344,0,0,0,155.84555816707265,69.41838372933766Z" fill-rule="evenodd" style="fill: #D7A449; stroke: #fff; opacity: 1;" id="p-type-tokenTransfers"></path><path d="M179.3889149184507,81.4163202581697A197,197,0,0,1,178.81407358350737,82.67119866357332L154.8575302774973,71.59535820396462A170.6070045455344,170.6070045455344,0,0,0,155.35535747670357,70.50860162622459Z" fill-rule="evenodd" style="fill: #D7A449; stroke: #fff; opacity: 1;" id="p-type-tokenTransfers"></path><path d="M178.81407358350737,82.67119866357332A197,197,0,0,1,178.230454134088,83.92201867899006L154.35210100815743,72.67860011287756A170.6070045455344,170.6070045455344,0,0,0,154.8575302774973,71.59535820396462Z" fill-rule="evenodd" style="fill: #D7A449; stroke: #fff; opacity: 1;" id="p-type-tokenTransfers"></path><path d="M178.230454134088,83.92201867899006A197,197,0,0,1,177.63808522050084,85.16871890074478L153.83909448057878,73.75827417582084A170.6070045455344,170.6070045455344,0,0,0,154.35210100815743,72.67860011287756Z" fill-rule="evenodd" style="fill: #D7A449; stroke: #fff; opacity: 1;" id="p-type-tokenTransfers"></path><path d="M177.63808522050084,85.16871890074478A197,197,0,0,1,177.03699592257186,86.41123812740607L153.31853587862932,74.83432739080011A170.6070045455344,170.6070045455344,0,0,0,153.83909448057878,73.75827417582084Z" fill-rule="evenodd" style="fill: #D7A449; stroke: #fff; opacity: 1;" id="p-type-tokenTransfers"></path><path d="M177.03699592257186,86.41123812740607A197,197,0,0,1,176.42721574821707,87.64951536279061L152.79045075691397,75.90670693357109A170.6070045455344,170.6070045455344,0,0,0,153.31853587862932,74.83432739080011Z" fill-rule="evenodd" style="fill: #D7A449; stroke: #fff; opacity: 1;" id="p-type-tokenTransfers"></path><path d="M176.42721574821707,87.64951536279061A197,197,0,0,1,175.80877463199405,88.88348981895756L152.25486503952,76.97536016023275A170.6070045455344,170.6070045455344,0,0,0,152.79045075691397,75.90670693357109Z" fill-rule="evenodd" style="fill: #D7A449; stroke: #fff; opacity: 1;" id="p-type-tokenTransfers"></path><path d="M175.80877463199405,88.88348981895756A197,197,0,0,1,175.1817029336323,90.11310091919268L151.71180501874449,78.0402346098117A170.6070045455344,170.6070045455344,0,0,0,152.25486503952,76.97536016023275Z" fill-rule="evenodd" style="fill: #D7A449; stroke: #fff; opacity: 1;" id="p-type-tokenTransfers"></path><path d="M175.1817029336323,90.11310091919268A197,197,0,0,1,174.54603143654305,91.3382883009821L151.16129735380352,79.10127800683749A170.6070045455344,170.6070045455344,0,0,0,151.71180501874449,78.0402346098117Z" fill-rule="evenodd" style="fill: #D7A449; stroke: #fff; opacity: 1;" id="p-type-tokenTransfers"></path><path d="M174.54603143654305,91.3382883009821A197,197,0,0,1,173.90179134630793,92.55899181897554L150.6033690695235,80.15843826390885A170.6070045455344,170.6070045455344,0,0,0,151.16129735380352,79.10127800683749Z" fill-rule="evenodd" style="fill: #D7A449; stroke: #fff; opacity: 1;" id="p-type-tokenTransfers"></path><path d="M173.90179134630793,92.55899181897554A197,197,0,0,1,173.2490142891471,93.77515154793888L150.0380475550146,81.21166348425069A170.6070045455344,170.6070045455344,0,0,0,150.6033690695235,80.15843826390885Z" fill-rule="evenodd" style="fill: #D7A449; stroke: #fff; opacity: 1;" id="p-type-tokenTransfers"></path><path d="M173.2490142891471,93.77515154793888A197,197,0,0,1,172.58773231036673,94.98670778569594L149.46536056232597,82.2609019642618A170.6070045455344,170.6070045455344,0,0,0,150.0380475550146,81.21166348425069Z" fill-rule="evenodd" style="fill: #D7A449; stroke: #fff; opacity: 1;" id="p-type-tokenTransfers"></path><path d="M172.58773231036673,94.98670778569594A197,197,0,0,1,171.91797787278588,96.19360105605934L148.88533620508358,83.30610219605299A170.6070045455344,170.6070045455344,0,0,0,149.46536056232597,82.2609019642618Z" fill-rule="evenodd" style="fill: #D7A449; stroke: #fff; opacity: 1;" id="p-type-tokenTransfers"></path><path d="M171.91797787278588,96.19360105605934A197,197,0,0,1,171.2397838551428,97.39577211175019L148.29800295711004,84.34721286997562A170.6070045455344,170.6070045455344,0,0,0,148.88533620508358,83.30610219605299Z" fill-rule="evenodd" style="fill: #D7A449; stroke: #fff; opacity: 1;" id="p-type-tokenTransfers"></path><path d="M171.2397838551428,97.39577211175019A197,197,0,0,1,170.55318355048092,98.59316193730658L147.70338965102673,85.38418287714047A170.6070045455344,170.6070045455344,0,0,0,148.29800295711004,84.34721286997562Z" fill-rule="evenodd" style="fill: #D7A449; stroke: #fff; opacity: 1;" id="p-type-tokenTransfers"></path><path d="M170.55318355048092,98.59316193730658A197,197,0,0,1,169.85821066451462,99.78571175198071L147.1015254768385,86.4169613119267A170.6070045455344,170.6070045455344,0,0,0,147.70338965102673,85.38418287714047Z" fill-rule="evenodd" style="fill: #D7A449; stroke: #fff; opacity: 1;" id="p-type-tokenTransfers"></path><path d="M169.85821066451462,99.78571175198071A197,197,0,0,1,169.15489931397423,100.9733630126245L146.4924399805006,87.44549747448083A170.6070045455344,170.6070045455344,0,0,0,147.1015254768385,86.4169613119267Z" fill-rule="evenodd" style="fill: #D7A449; stroke: #fff; opacity: 1;" id="p-type-tokenTransfers"></path><path d="M169.15489931397423,100.9733630126245A197,197,0,0,1,168.44328402493161,102.15605741656347L145.8761630624683,88.46974087320567A170.6070045455344,170.6070045455344,0,0,0,146.4924399805006,87.44549747448083Z" fill-rule="evenodd" style="fill: #D7A449; stroke: #fff; opacity: 1;" id="p-type-tokenTransfers"></path><path d="M168.44328402493161,102.15605741656347A197,197,0,0,1,167.72339973110513,103.33373690445889L145.25272497622913,89.48964122723895A170.6070045455344,170.6070045455344,0,0,0,145.8761630624683,88.46974087320567Z" fill-rule="evenodd" style="fill: #D7A449; stroke: #fff; opacity: 1;" id="p-type-tokenTransfers"></path><path d="M167.72339973110513,103.33373690445889A197,197,0,0,1,166.99528177214447,104.50634366315795L144.6221563268175,90.50514846892167A170.6070045455344,170.6070045455344,0,0,0,145.25272497622913,89.48964122723895Z" fill-rule="evenodd" style="fill: #D7A449; stroke: #fff; opacity: 1;" id="p-type-tokenTransfers"></path><path d="M166.99528177214447,104.50634366315795A197,197,0,0,1,166.25896589189617,105.67382012853183L143.9844880693126,91.51621274625592A170.6070045455344,170.6070045455344,0,0,0,144.6221563268175,90.50514846892167Z" fill-rule="evenodd" style="fill: #D7A449; stroke: #fff; opacity: 1;" id="p-type-tokenTransfers"></path><path d="M166.25896589189617,105.67382012853183A197,197,0,0,1,165.51448823664873,106.83610898830163L143.33975150731845,92.52278442535221A170.6070045455344,170.6070045455344,0,0,0,143.9844880693126,91.51621274625592Z" fill-rule="evenodd" style="fill: #D7A449; stroke: #fff; opacity: 1;" id="p-type-tokenTransfers"></path><path d="M165.51448823664873,106.83610898830163A197,197,0,0,1,164.76188535335814,107.99315318485178L142.68797829142738,93.524814092866A170.6070045455344,170.6070045455344,0,0,0,143.33975150731845,92.52278442535221Z" fill-rule="evenodd" style="fill: #D7A449; stroke: #fff; opacity: 1;" id="p-type-tokenTransfers"></path><path d="M164.76188535335814,107.99315318485178A197,197,0,0,1,164.00119418785386,109.14489591803112L142.02920041766626,94.52225255842343A170.6070045455344,170.6070045455344,0,0,0,142.68797829142738,93.524814092866Z" fill-rule="evenodd" style="fill: #D7A449; stroke: #fff; opacity: 1;" id="p-type-tokenTransfers"></path><path d="M164.00119418785386,109.14489591803112A197,197,0,0,1,163.23245208302504,110.29128064794125L141.3634502259258,95.51505085703616A170.6070045455344,170.6070045455344,0,0,0,142.02920041766626,94.52225255842343Z" fill-rule="evenodd" style="fill: #D7A449; stroke: #fff; opacity: 1;" id="p-type-tokenTransfers"></path><path d="M163.23245208302504,110.29128064794125A197,197,0,0,1,162.45569677698737,111.432251097712L140.69076039837282,96.503160251505A170.6070045455344,170.6070045455344,0,0,0,141.3634502259258,95.51505085703616Z" fill-rule="evenodd" style="fill: #D7A449; stroke: #fff; opacity: 1;" id="p-type-tokenTransfers"></path><path d="M162.45569677698737,111.432251097712A197,197,0,0,1,161.67096640123054,112.56775125626427L140.0111639578461,97.48653223481251A170.6070045455344,170.6070045455344,0,0,0,140.69076039837282,96.503160251505Z" fill-rule="evenodd" style="fill: #D7A449; stroke: #fff; opacity: 1;" id="p-type-tokenTransfers"></path><path d="M161.67096640123054,112.56775125626427A197,197,0,0,1,160.87829947874621,113.6977253810596L139.324694266235,98.46511853250435A170.6070045455344,170.6070045455344,0,0,0,140.0111639578461,97.48653223481251Z" fill-rule="evenodd" style="fill: #D7A449; stroke: #fff; opacity: 1;" id="p-type-tokenTransfers"></path><path d="M160.87829947874621,113.6977253810596A197,197,0,0,1,160.07773492213704,114.82211800083654L138.63138502284207,99.43887110505892A170.6070045455344,170.6070045455344,0,0,0,139.324694266235,98.46511853250435Z" fill-rule="evenodd" style="fill: #D7A449; stroke: #fff; opacity: 1;" id="p-type-tokenTransfers"></path><path d="M160.07773492213704,114.82211800083654A197,197,0,0,1,159.26931203170625,115.94087391833385L137.93127026272816,100.40774215024575A170.6070045455344,170.6070045455344,0,0,0,138.63138502284207,99.43887110505892Z" fill-rule="evenodd" style="fill: #D7A449; stroke: #fff; opacity: 1;" id="p-type-tokenTransfers"></path><path d="M159.26931203170625,115.94087391833385A197,197,0,0,1,158.45307049352857,117.0539382130002L137.2243843550422,101.37168410547223A170.6070045455344,170.6070045455344,0,0,0,137.93127026272816,100.40774215024575Z" fill-rule="evenodd" style="fill: #D7A449; stroke: #fff; opacity: 1;" id="p-type-tokenTransfers"></path><path d="M158.45307049352857,117.0539382130002A197,197,0,0,1,157.62905037750184,118.16125624369008L136.51076200133363,102.33064965011822A170.6070045455344,170.6070045455344,0,0,0,137.2243843550422,101.37168410547223Z" fill-rule="evenodd" style="fill: #D7A449; stroke: #fff; opacity: 1;" id="p-type-tokenTransfers"></path><path d="M157.62905037750184,118.16125624369008A197,197,0,0,1,156.79729213538,119.26277365134649L135.79043823384904,103.28459170785945A170.6070045455344,170.6070045455344,0,0,0,136.51076200133363,102.33064965011822Z" fill-rule="evenodd" style="fill: #D7A449; stroke: #fff; opacity: 1;" id="p-type-tokenTransfers"></path><path d="M156.79729213538,119.26277365134649A197,197,0,0,1,155.95783659878728,120.35843636166915L135.06344841381227,104.23346344897818A170.6070045455344,170.6070045455344,0,0,0,135.79043823384904,103.28459170785945Z" fill-rule="evenodd" style="fill: #D7A449; stroke: #fff; opacity: 1;" id="p-type-tokenTransfers"></path><path d="M155.95783659878728,120.35843636166915A197,197,0,0,1,155.11072497721386,121.44819058776923L134.32982822968864,105.17721829266232A170.6070045455344,170.6070045455344,0,0,0,135.06344841381227,104.23346344897818Z" fill-rule="evenodd" style="fill: #D7A449; stroke: #fff; opacity: 1;" id="p-type-tokenTransfers"></path><path d="M155.11072497721386,121.44819058776923A197,197,0,0,1,154.25599885599271,122.53198283280973L133.589613695433,106.11580990929194A170.6070045455344,170.6070045455344,0,0,0,134.32982822968864,105.17721829266232Z" fill-rule="evenodd" style="fill: #D7A449; stroke: #fff; opacity: 1;" id="p-type-tokenTransfers"></path><path d="M154.25599885599271,122.53198283280973A197,197,0,0,1,153.39370019425812,123.6097598926317L132.8428411487215,107.04919222271387A170.6070045455344,170.6070045455344,0,0,0,133.589613695433,106.11580990929194Z" fill-rule="evenodd" style="fill: #D7A449; stroke: #fff; opacity: 1;" id="p-type-tokenTransfers"></path><path d="M153.39370019425812,123.6097598926317A197,197,0,0,1,152.52387132288607,124.68146885836602L132.08954724916816,107.97731941250333A170.6070045455344,170.6070045455344,0,0,0,132.8428411487215,107.04919222271387Z" fill-rule="evenodd" style="fill: #D7A449; stroke: #fff; opacity: 1;" id="p-type-tokenTransfers"></path><path d="M152.52387132288607,124.68146885836602A197,197,0,0,1,151.646554942416,125.74705711903083L131.3297689765249,108.90014591621355A170.6070045455344,170.6070045455344,0,0,0,132.08954724916816,107.97731941250333Z" fill-rule="evenodd" style="fill: #D7A449; stroke: #fff; opacity: 1;" id="p-type-tokenTransfers"></path><path d="M151.646554942416,125.74705711903083A197,197,0,0,1,150.7617941209548,126.80647236411414L130.56354362886628,109.81762643161221A170.6070045455344,170.6070045455344,0,0,0,131.3297689765249,108.90014591621355Z" fill-rule="evenodd" style="fill: #D7A449; stroke: #fff; opacity: 1;" id="p-type-tokenTransfers"></path><path d="M150.7617941209548,126.80647236411414A197,197,0,0,1,149.86963229206225,127.85966258614188L129.79090882075857,110.7297159189056A170.6070045455344,170.6070045455344,0,0,0,130.56354362886628,109.81762643161221Z" fill-rule="evenodd" style="fill: #D7A449; stroke: #fff; opacity: 1;" id="p-type-tokenTransfers"></path><path d="M149.86963229206225,127.85966258614188A197,197,0,0,1,148.97011325261923,128.90657608323093L129.0119024814131,111.63636960294953A170.6070045455344,170.6070045455344,0,0,0,129.79090882075857,110.7297159189056Z" fill-rule="evenodd" style="fill: #D7A449; stroke: #fff; opacity: 1;" id="p-type-tokenTransfers"></path><path d="M148.97011325261923,128.90657608323093A197,197,0,0,1,148.06328116067735,129.9471614616272L128.2265628528245,112.53754297544732A170.6070045455344,170.6070045455344,0,0,0,129.0119024814131,111.63636960294953Z" fill-rule="evenodd" style="fill: #D7A449; stroke: #fff; opacity: 1;" id="p-type-tokenTransfers"></path><path d="M148.06328116067735,129.9471614616272A197,197,0,0,1,147.14918053329149,130.98136763822856L127.43492848789302,113.4331917971349A170.6070045455344,170.6070045455344,0,0,0,128.2265628528245,112.53754297544732Z" fill-rule="evenodd" style="fill: #D7A449; stroke: #fff; opacity: 1;" id="p-type-tokenTransfers"></path><path d="M147.14918053329149,130.98136763822856A197,197,0,0,1,146.22785624433413,132.00914384309274L126.63703824853232,114.32327209995242A170.6070045455344,170.6070045455344,0,0,0,127.43492848789302,113.4331917971349Z" fill-rule="evenodd" style="fill: #D7A449; stroke: #fff; opacity: 1;" id="p-type-tokenTransfers"></path><path d="M146.22785624433413,132.00914384309274A197,197,0,0,1,145.2993535222928,133.03043962192933L125.8329313037615,115.20774018920274A170.6070045455344,170.6070045455344,0,0,0,126.63703824853232,114.32327209995242Z" fill-rule="evenodd" style="fill: #D7A449; stroke: #fff; opacity: 1;" id="p-type-tokenTransfers"></path><path d="M22.563590220715806,195.7035625540619A197,197,0,0,1,16.905648811434467,196.27327642413383L14.64072133816045,169.97764346730523A170.6070045455344,170.6070045455344,0,0,0,19.540642331722015,169.4842567829346Z" fill-rule="evenodd" style="fill: #414552; stroke: #fff; opacity: 1;" id="p-type-ether"></path><path d="M16.905648811434467,196.27327642413383A197,197,0,0,1,12.790430115731212,196.58434550455587L11.076837405552768,170.24703719328258A170.6070045455344,170.6070045455344,0,0,0,14.64072133816045,169.97764346730523Z" fill-rule="evenodd" style="fill: #414552; stroke: #fff; opacity: 1;" id="p-type-ether"></path><path d="M12.790430115731212,196.58434550455587A197,197,0,0,1,9.214246289079112,196.7843938561292L7.979771363069004,170.4202841477303A170.6070045455344,170.6070045455344,0,0,0,11.076837405552768,170.24703719328258Z" fill-rule="evenodd" style="fill: #414552; stroke: #fff; opacity: 1;" id="p-type-ether"></path><path d="M9.214246289079112,196.7843938561292A197,197,0,0,1,6.254357968059991,196.90069326035234L5.416432884701575,170.52100238623254A170.6070045455344,170.6070045455344,0,0,0,7.979771363069004,170.4202841477303Z" fill-rule="evenodd" style="fill: #414552; stroke: #fff; opacity: 1;" id="p-type-ether"></path><path d="M6.254357968059991,196.90069326035234A197,197,0,0,1,4.626254552703505,196.94567212511575L4.00645396701465,170.55995522575103A170.6070045455344,170.6070045455344,0,0,0,5.416432884701575,170.52100238623254Z" fill-rule="evenodd" style="fill: #414552; stroke: #fff; opacity: 1;" id="p-type-ether"></path><path d="M4.626254552703505,196.94567212511575A197,197,0,0,1,3.0975780591680575,196.97564572851985L2.6825812894448346,170.58591312774195A170.6070045455344,170.6070045455344,0,0,0,4.00645396701465,170.55995522575103Z" fill-rule="evenodd" style="fill: #414552; stroke: #fff; opacity: 1;" id="p-type-ether"></path><path d="M3.0975780591680575,196.97564572851985A197,197,0,0,1,1.7023471132304537,196.99264456904496L1.4742758461166772,170.60063455547154A170.6070045455344,170.6070045455344,0,0,0,2.6825812894448346,170.58591312774195Z" fill-rule="evenodd" style="fill: #414552; stroke: #fff; opacity: 1;" id="p-type-ether"></path><path d="M1.7023471132304537,196.99264456904496A197,197,0,0,1,0.31883142388247854,196.9997419960827L0.276116112606991,170.60678110758772A170.6070045455344,170.6070045455344,0,0,0,1.4742758461166772,170.60063455547154Z" fill-rule="evenodd" style="fill: #414552; stroke: #fff; opacity: 1;" id="p-type-ether"></path><path d="M0.31883142388247854,196.9997419960827A197,197,0,0,1,-1.0622870693318975,196.99713588319585L-0.9199675881531446,170.6045241476226A170.6070045455344,170.6070045455344,0,0,0,0.276116112606991,170.60678110758772Z" fill-rule="evenodd" style="fill: #414552; stroke: #fff; opacity: 1;" id="p-type-ether"></path></g></svg>