<svg xmlns="http://www.w3.org/2000/svg" width="400" height="400" id="block-7908277"><g id="burst-container" transform="translate(200,200)"><circle r="197" style="fill: #f9f9f9; stroke: #f9f9f9; stroke-width: 3; opacity: 1;" id="circle-base"></circle><path display="none" d="M6.031385485800715e-15,-98.5A98.5,98.5,0,1,1,-6.031385485800715e-15,98.5A98.5,98.5,0,1,1,6.031385485800715e-15,-98.5Z" fill-rule="evenodd" id="p-type-root" style="stroke: #fff; opacity: 1;"></path><path d="M8.529667153919608e-15,-139.30003589374985A139.30003589374985,139.30003589374985,0,1,1,-92.51745506551936,-104.13942821141087L-65.41971985495044,-73.63769587717829A98.5,98.5,0,1,0,6.031385485800715e-15,-98.5Z" fill-rule="evenodd" style="fill: #0B1F65; stroke: #fff; opacity: 1;" id="p-type-data"></path><path d="M-92.51745506551936,-104.13942821141087A139.30003589374985,139.30003589374985,0,0,1,-2.023593657988508,-139.28533687616707L-1.4308967979297655,-98.48960622499042A98.5,98.5,0,0,0,-65.41971985495044,-73.63769587717829Z" fill-rule="evenodd" style="fill: #D7A449; stroke: #fff; opacity: 1;" id="p-type-value"></path><path d="M1.0446666101440332e-14,-170.6070045455344A170.6070045455344,170.6070045455344,0,0,1,151.9902458048211,77.4965494727995L124.09951603400107,63.275667678237156A139.30003589374985,139.30003589374985,0,0,0,8.529667153919608e-15,-139.30003589374985Z" fill-rule="evenodd" style="fill: #DB3F29; stroke: #fff; opacity: 1;" id="p-type-functions"></path><path d="M151.9902458048211,77.4965494727995A170.6070045455344,170.6070045455344,0,0,1,-16.71075461391937,169.78663280786674L-13.644274006987388,138.63020517485447A139.30003589374985,139.30003589374985,0,0,0,124.09951603400107,63.275667678237156Z" fill-rule="evenodd" style="fill: #414552; stroke: #fff; opacity: 1;" id="p-type-ether"></path><path d="M-16.71075461391937,169.78663280786674A170.6070045455344,170.6070045455344,0,0,1,-131.77398032007625,108.3622079444866L-107.59300438657971,88.47737228845257A139.30003589374985,139.30003589374985,0,0,0,-13.644274006987388,138.63020517485447Z" fill-rule="evenodd" style="fill: #1DC690; stroke: #fff; opacity: 1;" id="p-type-logs"></path><path d="M-131.77398032007625,108.3622079444866A170.6070045455344,170.6070045455344,0,0,1,-168.67342369262698,25.61300723865783L-137.72127373840362,20.912932837641215A139.30003589374985,139.30003589374985,0,0,0,-107.59300438657971,88.47737228845257Z" fill-rule="evenodd" style="fill: #D7A449; stroke: #fff; opacity: 1;" id="p-type-tokenTransfers"></path><path d="M-113.31027860569664,-127.54423061157804A170.6070045455344,170.6070045455344,0,0,1,-50.060972055134044,-163.0970541637558L-40.87461252093538,-133.16818708409073A139.30003589374985,139.30003589374985,0,0,0,-92.51745506551936,-104.13942821141087Z" fill-rule="evenodd" style="fill: #414552; stroke: #fff; opacity: 1;" id="p-type-ether"></path><path d="M-50.060972055134044,-163.0970541637558A170.6070045455344,170.6070045455344,0,0,1,-4.956248867463871,-170.5349981592159L-4.046760254511165,-139.24124292551582A139.30003589374985,139.30003589374985,0,0,0,-40.87461252093538,-133.16818708409073Z" fill-rule="evenodd" style="fill: #D7A449; stroke: #fff; opacity: 1;" id="p-type-tokenTransfers"></path><path d="M1.206277097160143e-14,-197A197,197,0,0,1,37.47440132715954,-193.40286772737105L32.45378354093344,-167.49179661666489A170.6070045455344,170.6070045455344,0,0,0,1.0446666101440332e-14,-170.6070045455344Z" fill-rule="evenodd" style="fill: #DB3F29; stroke: #fff; opacity: 1;" id="p-type-functions"></path><path d="M37.47440132715954,-193.40286772737105A197,197,0,0,1,71.78586893361701,-183.45514171438631L62.16838612925246,-158.8768131795328A170.6070045455344,170.6070045455344,0,0,0,32.45378354093344,-167.49179661666489Z" fill-rule="evenodd" style="fill: #DB3F29; stroke: #fff; opacity: 1;" id="p-type-functions"></path><path d="M71.78586893361701,-183.45514171438631A197,197,0,0,1,93.26962359794399,-173.52169119132586L80.77386343723205,-150.27419267932663A170.6070045455344,170.6070045455344,0,0,0,62.16838612925246,-158.8768131795328Z" fill-rule="evenodd" style="fill: #DB3F29; stroke: #fff; opacity: 1;" id="p-type-functions"></path><path d="M93.26962359794399,-173.52169119132586A197,197,0,0,1,110.39716766135057,-163.16085735356887L95.6067517005795,-141.30144737143968A170.6070045455344,170.6070045455344,0,0,0,80.77386343723205,-150.27419267932663Z" fill-rule="evenodd" style="fill: #DB3F29; stroke: #fff; opacity: 1;" id="p-type-functions"></path><path d="M110.39716766135057,-163.16085735356887A197,197,0,0,1,114.50557856675313,-160.30431209762614L99.16473991384314,-138.82760661273335A170.6070045455344,170.6070045455344,0,0,0,95.6067517005795,-141.30144737143968Z" fill-rule="evenodd" style="fill: #DB3F29; stroke: #fff; opacity: 1;" id="p-type-functions"></path><path d="M114.50557856675313,-160.30431209762614A197,197,0,0,1,115.89849224470646,-159.30015535272938L100.37103854422955,-137.95798136227125A170.6070045455344,170.6070045455344,0,0,0,99.16473991384314,-138.82760661273335Z" fill-rule="evenodd" style="fill: #DB3F29; stroke: #fff; opacity: 1;" id="p-type-functions"></path><path d="M115.89849224470646,-159.30015535272938A197,197,0,0,1,117.05253171787865,-158.4541095031461L101.37046604496666,-137.22528416376574A170.6070045455344,170.6070045455344,0,0,0,100.37103854422955,-137.95798136227125Z" fill-rule="evenodd" style="fill: #DB3F29; stroke: #fff; opacity: 1;" id="p-type-functions"></path><path d="M117.05253171787865,-158.4541095031461A197,197,0,0,1,118.20039538533169,-157.5997034602263L102.36454514106218,-136.48534682545025A170.6070045455344,170.6070045455344,0,0,0,101.37046604496666,-137.22528416376574Z" fill-rule="evenodd" style="fill: #DB3F29; stroke: #fff; opacity: 1;" id="p-type-functions"></path><path d="M118.20039538533169,-157.5997034602263A197,197,0,0,1,119.34202268465913,-156.73698230326596L103.35322338393355,-135.7382083871403A170.6070045455344,170.6070045455344,0,0,0,102.36454514106218,-136.48534682545025Z" fill-rule="evenodd" style="fill: #DB3F29; stroke: #fff; opacity: 1;" id="p-type-functions"></path><path d="M119.34202268465913,-156.73698230326596A197,197,0,0,1,120.4773533824914,-155.86599155027463L104.33644860995261,-134.9839082685885A170.6070045455344,170.6070045455344,0,0,0,103.35322338393355,-135.7382083871403Z" fill-rule="evenodd" style="fill: #DB3F29; stroke: #fff; opacity: 1;" id="p-type-functions"></path><path d="M120.4773533824914,-155.86599155027463A197,197,0,0,1,121.60632757767372,-154.98677715557383L105.3141689431976,-134.22248626740466A170.6070045455344,170.6070045455344,0,0,0,104.33644860995261,-134.9839082685885Z" fill-rule="evenodd" style="fill: #DB3F29; stroke: #fff; opacity: 1;" id="p-type-functions"></path><path d="M121.60632757767372,-154.98677715557383A197,197,0,0,1,122.72888570442663,-154.09938550737243L106.2863327981903,-133.45398255695608A170.6070045455344,170.6070045455344,0,0,0,105.3141689431976,-134.22248626740466Z" fill-rule="evenodd" style="fill: #DB3F29; stroke: #fff; opacity: 1;" id="p-type-functions"></path><path d="M122.72888570442663,-154.09938550737243A197,197,0,0,1,123.8449685354887,-153.20386342531907L107.2528888826177,-132.67843768424794A170.6070045455344,170.6070045455344,0,0,0,106.2863327981903,-133.45398255695608Z" fill-rule="evenodd" style="fill: #DB3F29; stroke: #fff; opacity: 1;" id="p-type-functions"></path><path d="M123.8449685354887,-153.20386342531907A197,197,0,0,1,124.95451718524134,-152.3002581580321L108.21378620003821,-131.89589256778402A170.6070045455344,170.6070045455344,0,0,0,107.2528888826177,-132.67843768424794Z" fill-rule="evenodd" style="fill: #DB3F29; stroke: #fff; opacity: 1;" id="p-type-functions"></path><path d="M124.95451718524134,-152.3002581580321A197,197,0,0,1,126.05747311281584,-151.38861738060663L109.16897405257235,-131.10638849540774A170.6070045455344,170.6070045455344,0,0,0,108.21378620003821,-131.89589256778402Z" fill-rule="evenodd" style="fill: #DB3F29; stroke: #fff; opacity: 1;" id="p-type-functions"></path><path d="M126.05747311281584,-151.38861738060663A197,197,0,0,1,127.15377812518189,-150.46898919209906L110.11840204357756,-130.3099671221239A170.6070045455344,170.6070045455344,0,0,0,109.16897405257235,-131.10638849540774Z" fill-rule="evenodd" style="fill: #DB3F29; stroke: #fff; opacity: 1;" id="p-type-functions"></path><path d="M127.15377812518189,-150.46898919209906A197,197,0,0,1,128.24337438021792,-149.54142211298935L111.06202008030716,-129.5066704679008A170.6070045455344,170.6070045455344,0,0,0,110.11840204357756,-130.3099671221239Z" fill-rule="evenodd" style="fill: #DB3F29; stroke: #fff; opacity: 1;" id="p-type-functions"></path><path d="M128.24337438021792,-149.54142211298935A197,197,0,0,1,129.32620438976303,-148.6059650826212L111.99977837655338,-128.69654091545323A170.6070045455344,170.6070045455344,0,0,0,111.06202008030716,-129.5066704679008Z" fill-rule="evenodd" style="fill: #DB3F29; stroke: #fff; opacity: 1;" id="p-type-functions"></path><path d="M129.32620438976303,-148.6059650826212A197,197,0,0,1,130.40221102264996,-147.66266745661977L112.931627455274,-127.87962120800641A170.6070045455344,170.6070045455344,0,0,0,111.99977837655338,-128.69654091545323Z" fill-rule="evenodd" style="fill: #DB3F29; stroke: #fff; opacity: 1;" id="p-type-functions"></path><path d="M130.40221102264996,-147.66266745661977A197,197,0,0,1,131.47133750771945,-146.7115790042876L113.85751815120295,-127.05595444704072A170.6070045455344,170.6070045455344,0,0,0,112.931627455274,-127.87962120800641Z" fill-rule="evenodd" style="fill: #DB3F29; stroke: #fff; opacity: 1;" id="p-type-functions"></path><path d="M131.47133750771945,-146.7115790042876A197,197,0,0,1,132.5335274368156,-145.75274990597896L114.77740161344421,-126.22558409001772A170.6070045455344,170.6070045455344,0,0,0,113.85751815120295,-127.05595444704072Z" fill-rule="evenodd" style="fill: #DB3F29; stroke: #fff; opacity: 1;" id="p-type-functions"></path><path d="M132.5335274368156,-145.75274990597896A197,197,0,0,1,133.58872476776193,-144.78623075045206L115.69122930804927,-125.38855394808715A170.6070045455344,170.6070045455344,0,0,0,114.77740161344421,-126.22558409001772Z" fill-rule="evenodd" style="fill: #DB3F29; stroke: #fff; opacity: 1;" id="p-type-functions"></path><path d="M133.58872476776193,-144.78623075045206A197,197,0,0,1,134.63687382731828,-143.81207253220012L116.59895302057782,-124.54490818377558A170.6070045455344,170.6070045455344,0,0,0,115.69122930804927,-125.38855394808715Z" fill-rule="evenodd" style="fill: #DB3F29; stroke: #fff; opacity: 1;" id="p-type-functions"></path><path d="M134.63687382731828,-143.81207253220012A197,197,0,0,1,135.6779193141181,-142.8303266487606L117.50052485864161,-123.69469130865618A170.6070045455344,170.6070045455344,0,0,0,116.59895302057782,-124.54490818377558Z" fill-rule="evenodd" style="fill: #DB3F29; stroke: #fff; opacity: 1;" id="p-type-functions"></path><path d="M135.6779193141181,-142.8303266487606A197,197,0,0,1,136.71180630158636,-141.84104489800382L118.39589725443129,-122.83794818100044A170.6070045455344,170.6070045455344,0,0,0,117.50052485864161,-123.69469130865618Z" fill-rule="evenodd" style="fill: #DB3F29; stroke: #fff; opacity: 1;" id="p-type-functions"></path><path d="M136.71180630158636,-141.84104489800382A197,197,0,0,1,137.73848024083736,-140.84427947539953L119.2850229672261,-121.97472400341121A170.6070045455344,170.6070045455344,0,0,0,118.39589725443129,-122.83794818100044Z" fill-rule="evenodd" style="fill: #DB3F29; stroke: #fff; opacity: 1;" id="p-type-functions"></path><path d="M137.73848024083736,-140.84427947539953A197,197,0,0,1,138.75788696355295,-139.84008297126354L120.16785508588642,-121.1050643204379A170.6070045455344,170.6070045455344,0,0,0,119.2850229672261,-121.97472400341121Z" fill-rule="evenodd" style="fill: #DB3F29; stroke: #fff; opacity: 1;" id="p-type-functions"></path><path d="M138.75788696355295,-139.84008297126354A197,197,0,0,1,139.76997268484024,-138.82850836798258L121.04434703132873,-120.22901501617343A170.6070045455344,170.6070045455344,0,0,0,120.16785508588642,-121.1050643204379Z" fill-rule="evenodd" style="fill: #DB3F29; stroke: #fff; opacity: 1;" id="p-type-functions"></path><path d="M139.76997268484024,-138.82850836798258A197,197,0,0,1,140.77468400606972,-137.80960903721925L121.91445255898327,-119.34662231183341A170.6070045455344,170.6070045455344,0,0,0,121.04434703132873,-120.22901501617343Z" fill-rule="evenodd" style="fill: #DB3F29; stroke: #fff; opacity: 1;" id="p-type-functions"></path><path d="M140.77468400606972,-137.80960903721925A197,197,0,0,1,141.77196791769228,-136.7834387370958L122.77812576123392,-118.4579327633174A170.6070045455344,170.6070045455344,0,0,0,121.91445255898327,-119.34662231183341Z" fill-rule="evenodd" style="fill: #DB3F29; stroke: #fff; opacity: 1;" id="p-type-functions"></path><path d="M141.77196791769228,-136.7834387370958A197,197,0,0,1,142.7617718020362,-135.7500516093579L123.63532106984029,-117.56299325875257A170.6070045455344,170.6070045455344,0,0,0,122.77812576123392,-118.4579327633174Z" fill-rule="evenodd" style="fill: #DB3F29; stroke: #fff; opacity: 1;" id="p-type-functions"></path><path d="M142.7617718020362,-135.7500516093579A197,197,0,0,1,143.7440434360834,-134.70950217651827L124.48599325834199,-116.66185101601995A170.6070045455344,170.6070045455344,0,0,0,123.63532106984029,-117.56299325875257Z" fill-rule="evenodd" style="fill: #DB3F29; stroke: #fff; opacity: 1;" id="p-type-functions"></path><path d="M143.7440434360834,-134.70950217651827A197,197,0,0,1,144.71873099422447,-133.66184533897956L125.3300974444448,-115.75455358026296A170.6070045455344,170.6070045455344,0,0,0,124.48599325834199,-116.66185101601995Z" fill-rule="evenodd" style="fill: #DB3F29; stroke: #fff; opacity: 1;" id="p-type-functions"></path><path d="M144.71873099422447,-133.66184533897956A197,197,0,0,1,145.68578305099345,-132.6071363721382L126.16758909238874,-114.84114882137911A170.6070045455344,170.6070045455344,0,0,0,125.3300974444448,-115.75455358026296Z" fill-rule="evenodd" style="fill: #DB3F29; stroke: #fff; opacity: 1;" id="p-type-functions"></path><path d="M145.68578305099345,-132.6071363721382A197,197,0,0,1,146.64514858378078,-131.54543092346788L126.99842401529776,-113.92168493149424A170.6070045455344,170.6070045455344,0,0,0,126.16758909238874,-114.84114882137911Z" fill-rule="evenodd" style="fill: #DB3F29; stroke: #fff; opacity: 1;" id="p-type-functions"></path><path d="M146.64514858378078,-131.54543092346788A197,197,0,0,1,147.5967769755254,-130.47678500958327L127.82255837751111,-112.99621042241974A170.6070045455344,170.6070045455344,0,0,0,126.99842401529776,-113.92168493149424Z" fill-rule="evenodd" style="fill: #DB3F29; stroke: #fff; opacity: 1;" id="p-type-functions"></path><path d="M147.5967769755254,-130.47678500958327A197,197,0,0,1,148.54061801738536,-129.40125501328498L128.6399486968962,-112.06477412309324A170.6070045455344,170.6070045455344,0,0,0,127.82255837751111,-112.99621042241974Z" fill-rule="evenodd" style="fill: #DB3F29; stroke: #fff; opacity: 1;" id="p-type-functions"></path><path d="M148.54061801738536,-129.40125501328498A197,197,0,0,1,149.47662191138687,-128.31889768058443L129.4505518471427,-111.12742517700221A170.6070045455344,170.6070045455344,0,0,0,128.6399486968962,-112.06477412309324Z" fill-rule="evenodd" style="fill: #DB3F29; stroke: #fff; opacity: 1;" id="p-type-functions"></path><path d="M149.47662191138687,-128.31889768058443A197,197,0,0,1,150.40473927305175,-127.22977011770998L130.25432506003787,-110.18421303959109A170.6070045455344,170.6070045455344,0,0,0,129.4505518471427,-111.12742517700221Z" fill-rule="evenodd" style="fill: #DB3F29; stroke: #fff; opacity: 1;" id="p-type-functions"></path><path d="M150.40473927305175,-127.22977011770998A197,197,0,0,1,151.32492113400292,-126.1339297880939L131.0512259277232,-109.23518747565204A170.6070045455344,170.6070045455344,0,0,0,130.25432506003787,-110.18421303959109Z" fill-rule="evenodd" style="fill: #DB3F29; stroke: #fff; opacity: 1;" id="p-type-functions"></path><path d="M151.32492113400292,-126.1339297880939A197,197,0,0,1,152.2371189445481,-125.03143450934058L131.84121240493187,-108.28039855669928A170.6070045455344,170.6070045455344,0,0,0,131.0512259277232,-109.23518747565204Z" fill-rule="evenodd" style="fill: #DB3F29; stroke: #fff; opacity: 1;" id="p-type-functions"></path><path d="M152.2371189445481,-125.03143450934058A197,197,0,0,1,153.14128457624116,-123.92234245017612L132.62424281120687,-107.31989665832725A170.6070045455344,170.6070045455344,0,0,0,131.84121240493187,-108.28039855669928Z" fill-rule="evenodd" style="fill: #DB3F29; stroke: #fff; opacity: 1;" id="p-type-functions"></path><path d="M153.14128457624116,-123.92234245017612A197,197,0,0,1,154.03737032442174,-122.80671212737907L133.40027583310044,-106.35373245755277A170.6070045455344,170.6070045455344,0,0,0,132.62424281120687,-107.31989665832725Z" fill-rule="evenodd" style="fill: #DB3F29; stroke: #fff; opacity: 1;" id="p-type-functions"></path><path d="M154.03737032442174,-122.80671212737907A197,197,0,0,1,154.92532891073196,-121.68460240269316L134.1692705263536,-105.38195693014121A170.6070045455344,170.6070045455344,0,0,0,133.40027583310044,-106.35373245755277Z" fill-rule="evenodd" style="fill: #DB3F29; stroke: #fff; opacity: 1;" id="p-type-functions"></path><path d="M154.92532891073196,-121.68460240269316A197,197,0,0,1,155.80511348561083,-120.55607247972176L134.9311863180564,-104.40462134791709A170.6070045455344,170.6070045455344,0,0,0,134.1692705263536,-105.38195693014121Z" fill-rule="evenodd" style="fill: #DB3F29; stroke: #fff; opacity: 1;" id="p-type-functions"></path><path d="M155.80511348561083,-120.55607247972176A197,197,0,0,1,156.6766776307663,-119.42118190080407L135.6859830087887,-103.42177727605875A170.6070045455344,170.6070045455344,0,0,0,134.9311863180564,-104.40462134791709Z" fill-rule="evenodd" style="fill: #DB3F29; stroke: #fff; opacity: 1;" id="p-type-functions"></path><path d="M156.6766776307663,-119.42118190080407A197,197,0,0,1,157.53997536162407,-118.27999054387378L136.433620774741,-102.43347657037788A170.6070045455344,170.6070045455344,0,0,0,135.6859830087887,-103.42177727605875Z" fill-rule="evenodd" style="fill: #DB3F29; stroke: #fff; opacity: 1;" id="p-type-functions"></path><path d="M157.53997536162407,-118.27999054387378A197,197,0,0,1,158.3949611297541,-117.1325586192997L137.17406016981576,-101.43977137458346A170.6070045455344,170.6070045455344,0,0,0,136.433620774741,-102.43347657037788Z" fill-rule="evenodd" style="fill: #DB3F29; stroke: #fff; opacity: 1;" id="p-type-functions"></path><path d="M158.3949611297541,-117.1325586192997A197,197,0,0,1,159.24158982527348,-115.97894666670913L137.9072621277084,-100.44071411753065A170.6070045455344,170.6070045455344,0,0,0,137.17406016981576,-101.43977137458346Z" fill-rule="evenodd" style="fill: #DB3F29; stroke: #fff; opacity: 1;" id="p-type-functions"></path><path d="M159.24158982527348,-115.97894666670913A197,197,0,0,1,160.07981677922658,-114.81921555179362L138.63318796396865,-99.43635751045457A170.6070045455344,170.6070045455344,0,0,0,137.9072621277084,-100.44071411753065Z" fill-rule="evenodd" style="fill: #DB3F29; stroke: #fff; opacity: 1;" id="p-type-functions"></path><path d="M160.07981677922658,-114.81921555179362A197,197,0,0,1,160.90959776594195,-113.65342646309776L139.35179937804148,-98.42675454418924A170.6070045455344,170.6070045455344,0,0,0,138.63318796396865,-99.43635751045457Z" fill-rule="evenodd" style="fill: #DB3F29; stroke: #fff; opacity: 1;" id="p-type-functions"></path><path d="M160.90959776594195,-113.65342646309776A197,197,0,0,1,161.73088900536553,-112.48164090879068L140.06305845528792,-97.41195848637169A170.6070045455344,170.6070045455344,0,0,0,139.35179937804148,-98.42675454418924Z" fill-rule="evenodd" style="fill: #DB3F29; stroke: #fff; opacity: 1;" id="p-type-functions"></path><path d="M161.73088900536553,-112.48164090879068A197,197,0,0,1,162.54364716537063,-111.30392071342095L140.76692766898543,-96.39202287863152A170.6070045455344,170.6070045455344,0,0,0,140.06305845528792,-97.41195848637169Z" fill-rule="evenodd" style="fill: #DB3F29; stroke: #fff; opacity: 1;" id="p-type-functions"></path><path d="M162.54364716537063,-111.30392071342095A197,197,0,0,1,163.3478293640442,-110.1203280146545L141.46336988230794,-95.367001533766A170.6070045455344,170.6070045455344,0,0,0,140.76692766898543,-96.39202287863152Z" fill-rule="evenodd" style="fill: #DB3F29; stroke: #fff; opacity: 1;" id="p-type-functions"></path><path d="M163.3478293640442,-110.1203280146545A197,197,0,0,1,164.14339317194916,-108.93092525999636L142.15234835028514,-94.33694853290085A170.6070045455344,170.6070045455344,0,0,0,141.46336988230794,-95.367001533766Z" fill-rule="evenodd" style="fill: #DB3F29; stroke: #fff; opacity: 1;" id="p-type-functions"></path><path d="M164.14339317194916,-108.93092525999636A197,197,0,0,1,164.93029661436324,-107.7357752034957L142.83382672174116,-93.30191822263687A170.6070045455344,170.6070045455344,0,0,0,142.15234835028514,-94.33694853290085Z" fill-rule="evenodd" style="fill: #DB3F29; stroke: #fff; opacity: 1;" id="p-type-functions"></path><path d="M164.93029661436324,-107.7357752034957A197,197,0,0,1,165.70849817349344,-106.53494090243498L143.50776904121258,-92.26196521218256A170.6070045455344,170.6070045455344,0,0,0,142.83382672174116,-93.30191822263687Z" fill-rule="evenodd" style="fill: #DB3F29; stroke: #fff; opacity: 1;" id="p-type-functions"></path><path d="M165.70849817349344,-106.53494090243498A197,197,0,0,1,166.47795679066667,-105.32848571400294L144.17413975084543,-91.21714437047287A170.6070045455344,170.6070045455344,0,0,0,143.50776904121258,-92.26196521218256Z" fill-rule="evenodd" style="fill: #DB3F29; stroke: #fff; opacity: 1;" id="p-type-functions"></path><path d="M166.47795679066667,-105.32848571400294A197,197,0,0,1,167.23863186849584,-104.11647329195183L144.8329036922712,-90.16751082327431A170.6070045455344,170.6070045455344,0,0,0,144.17413975084543,-91.21714437047287Z" fill-rule="evenodd" style="fill: #DB3F29; stroke: #fff; opacity: 1;" id="p-type-functions"></path><path d="M167.23863186849584,-104.11647329195183A197,197,0,0,1,167.9904832730222,-102.89896758323893L145.48402610846202,-89.11311995027636A170.6070045455344,170.6070045455344,0,0,0,144.8329036922712,-90.16751082327431Z" fill-rule="evenodd" style="fill: #DB3F29; stroke: #fff; opacity: 1;" id="p-type-functions"></path><path d="M167.9904832730222,-102.89896758323893A197,197,0,0,1,168.7334713358323,-101.67603282465274L146.12747264556415,-88.05402738216972A170.6070045455344,170.6070045455344,0,0,0,145.48402610846202,-89.11311995027636Z" fill-rule="evenodd" style="fill: #DB3F29; stroke: #fff; opacity: 1;" id="p-type-functions"></path><path d="M168.7334713358323,-101.67603282465274A197,197,0,0,1,169.4675568561515,-100.44773353942364L146.76320935471094,-86.99028899771106A170.6070045455344,170.6070045455344,0,0,0,146.12747264556415,-88.05402738216972Z" fill-rule="evenodd" style="fill: #DB3F29; stroke: #fff; opacity: 1;" id="p-type-functions"></path><path d="M169.4675568561515,-100.44773353942364A197,197,0,0,1,170.1927011029119,-99.21413453381972L147.39120269381357,-85.92196092077484A170.6070045455344,170.6070045455344,0,0,0,146.76320935471094,-86.99028899771106Z" fill-rule="evenodd" style="fill: #DB3F29; stroke: #fff; opacity: 1;" id="p-type-functions"></path><path d="M170.1927011029119,-99.21413453381972A197,197,0,0,1,170.90886581679592,-97.97530089372752L148.01141952933114,-84.84909951739225A170.6070045455344,170.6070045455344,0,0,0,147.39120269381357,-85.92196092077484Z" fill-rule="evenodd" style="fill: #DB3F29; stroke: #fff; opacity: 1;" id="p-type-functions"></path><path d="M170.90886581679592,-97.97530089372752A197,197,0,0,1,171.61601321225484,-96.73129798121793L148.62382713801856,-83.77176139277711A170.6070045455344,170.6070045455344,0,0,0,148.01141952933114,-84.84909951739225Z" fill-rule="evenodd" style="fill: #DB3F29; stroke: #fff; opacity: 1;" id="p-type-functions"></path><path d="M171.61601321225484,-96.73129798121793A197,197,0,0,1,172.31410597950247,-95.48219143109773L149.22839320865316,-82.69000338833948A170.6070045455344,170.6070045455344,0,0,0,148.62382713801856,-83.77176139277711Z" fill-rule="evenodd" style="fill: #DB3F29; stroke: #fff; opacity: 1;" id="p-type-functions"></path><path d="M172.31410597950247,-95.48219143109773A197,197,0,0,1,173.00310728648367,-94.22804714744659L149.82508584373957,-81.60388257868655A170.6070045455344,170.6070045455344,0,0,0,149.22839320865316,-82.69000338833948Z" fill-rule="evenodd" style="fill: #DB3F29; stroke: #fff; opacity: 1;" id="p-type-functions"></path><path d="M173.00310728648367,-94.22804714744659A197,197,0,0,1,173.68298078081762,-92.96893130013991L150.41387356119247,-80.5134562686114A170.6070045455344,170.6070045455344,0,0,0,149.82508584373957,-81.60388257868655Z" fill-rule="evenodd" style="fill: #DB3F29; stroke: #fff; opacity: 1;" id="p-type-functions"></path><path d="M173.68298078081762,-92.96893130013991A197,197,0,0,1,174.35369059171575,-91.70491032135767L150.9947252959977,-79.4187819900695A170.6070045455344,170.6070045455344,0,0,0,150.41387356119247,-80.5134562686114Z" fill-rule="evenodd" style="fill: #DB3F29; stroke: #fff; opacity: 1;" id="p-type-functions"></path><path d="M174.35369059171575,-91.70491032135767A197,197,0,0,1,175.01520133187438,-90.43605090207929L151.56761040185134,-78.31991749914326A170.6070045455344,170.6070045455344,0,0,0,150.9947252959977,-79.4187819900695Z" fill-rule="evenodd" style="fill: #DB3F29; stroke: #fff; opacity: 1;" id="p-type-functions"></path><path d="M175.01520133187438,-90.43605090207929A197,197,0,0,1,175.66747809934176,-89.16241998856513L152.1324986527765,-77.21692077299481A170.6070045455344,170.6070045455344,0,0,0,151.56761040185134,-78.31991749914326Z" fill-rule="evenodd" style="fill: #DB3F29; stroke: #fff; opacity: 1;" id="p-type-functions"></path><path d="M175.66747809934176,-89.16241998856513A197,197,0,0,1,176.3104864793596,-87.88408477882415L152.68936024471822,-76.10985000680702A170.6070045455344,170.6070045455344,0,0,0,152.1324986527765,-77.21692077299481Z" fill-rule="evenodd" style="fill: #DB3F29; stroke: #fff; opacity: 1;" id="p-type-functions"></path><path d="M176.3104864793596,-87.88408477882415A197,197,0,0,1,176.94419254617873,-86.60111271906864L153.23816579711587,-74.9987636107131A170.6070045455344,170.6070045455344,0,0,0,152.68936024471822,-76.10985000680702Z" fill-rule="evenodd" style="fill: #DB3F29; stroke: #fff; opacity: 1;" id="p-type-functions"></path><path d="M176.94419254617873,-86.60111271906864A197,197,0,0,1,177.56856286484904,-85.31357150015556L153.77888635445336,-73.8837202067148A170.6070045455344,170.6070045455344,0,0,0,153.23816579711587,-74.9987636107131Z" fill-rule="evenodd" style="fill: #DB3F29; stroke: #fff; opacity: 1;" id="p-type-functions"></path><path d="M177.56856286484904,-85.31357150015556A197,197,0,0,1,178.1835644929837,-84.02152905401519L154.31149338778678,-72.76477862558944A170.6070045455344,170.6070045455344,0,0,0,153.77888635445336,-73.8837202067148Z" fill-rule="evenodd" style="fill: #DB3F29; stroke: #fff; opacity: 1;" id="p-type-functions"></path><path d="M178.1835644929837,-84.02152905401519A197,197,0,0,1,178.78916498249706,-82.72505355006696L154.83595879624963,-71.64199790378605A170.6070045455344,170.6070045455344,0,0,0,154.31149338778678,-72.76477862558944Z" fill-rule="evenodd" style="fill: #DB3F29; stroke: #fff; opacity: 1;" id="p-type-functions"></path><path d="M178.78916498249706,-82.72505355006696A197,197,0,0,1,179.38533238131674,-81.42421339162273L155.35225490853557,-70.51543728031037A170.6070045455344,170.6070045455344,0,0,0,154.83595879624963,-71.64199790378605Z" fill-rule="evenodd" style="fill: #DB3F29; stroke: #fff; opacity: 1;" id="p-type-functions"></path><path d="M179.38533238131674,-81.42421339162273A197,197,0,0,1,179.97203523506943,-80.11907721227777L155.86035448435823,-69.38515619359947A170.6070045455344,170.6070045455344,0,0,0,155.35225490853557,-70.51543728031037Z" fill-rule="evenodd" style="fill: #DB3F29; stroke: #fff; opacity: 1;" id="p-type-functions"></path><path d="M179.97203523506943,-80.11907721227777A197,197,0,0,1,180.5492425887404,-78.80971387228968L156.36023071588846,-68.25121427838575A170.6070045455344,170.6070045455344,0,0,0,155.86035448435823,-69.38515619359947Z" fill-rule="evenodd" style="fill: #DB3F29; stroke: #fff; opacity: 1;" id="p-type-functions"></path><path d="M180.5492425887404,-78.80971387228968A197,197,0,0,1,181.11692398830684,-77.49619245494507L156.8518572291689,-67.11367136255038A170.6070045455344,170.6070045455344,0,0,0,156.36023071588846,-68.25121427838575Z" fill-rule="evenodd" style="fill: #DB3F29; stroke: #fff; opacity: 1;" id="p-type-functions"></path><path d="M181.11692398830684,-77.49619245494507A197,197,0,0,1,181.67504948234446,-76.17858226291487L157.33520808550523,-65.97258746396692A170.6070045455344,170.6070045455344,0,0,0,156.8518572291689,-67.11367136255038Z" fill-rule="evenodd" style="fill: #DB3F29; stroke: #fff; opacity: 1;" id="p-type-functions"></path><path d="M181.67504948234446,-76.17858226291487A197,197,0,0,1,182.223589623608,-74.85695281459766L157.81025778283498,-64.8280227873346A170.6070045455344,170.6070045455344,0,0,0,157.33520808550523,-65.97258746396692Z" fill-rule="evenodd" style="fill: #DB3F29; stroke: #fff; opacity: 1;" id="p-type-functions"></path><path d="M182.223589623608,-74.85695281459766A197,197,0,0,1,182.76251547058465,-73.53137384045198L158.27698125707278,-63.68003772100192A170.6070045455344,170.6070045455344,0,0,0,157.81025778283498,-64.8280227873346Z" fill-rule="evenodd" style="fill: #DB3F29; stroke: #fff; opacity: 1;" id="p-type-functions"></path><path d="M182.76251547058465,-73.53137384045198A197,197,0,0,1,183.2917985890212,-72.20191527931712L158.73535388343308,-62.52869283378044A170.6070045455344,170.6070045455344,0,0,0,158.27698125707278,-63.68003772100192Z" fill-rule="evenodd" style="fill: #DB3F29; stroke: #fff; opacity: 1;" id="p-type-functions"></path><path d="M183.2917985890212,-72.20191527931712A197,197,0,0,1,183.81141105342417,-70.86864727472324L159.18535147772909,-61.37404887174915A170.6070045455344,170.6070045455344,0,0,0,158.73535388343308,-62.52869283378044Z" fill-rule="evenodd" style="fill: #DB3F29; stroke: #fff; opacity: 1;" id="p-type-functions"></path><path d="M175.5032186592217,89.48530739877589A197,197,0,0,1,155.27623077021,121.23651330270307L134.47316045089676,104.99390038639089A170.6070045455344,170.6070045455344,0,0,0,151.9902458048211,77.4965494727995Z" fill-rule="evenodd" style="fill: #414552; stroke: #fff; opacity: 1;" id="p-type-ether"></path><path d="M155.27623077021,121.23651330270307A197,197,0,0,1,130.82836193931715,147.28523249896793L113.30068497495381,127.55275294640361A170.6070045455344,170.6070045455344,0,0,0,134.47316045089676,104.99390038639089Z" fill-rule="evenodd" style="fill: #414552; stroke: #fff; opacity: 1;" id="p-type-ether"></path><path d="M130.82836193931715,147.28523249896793A197,197,0,0,1,112.22007295755864,161.9124924933225L97.18543399578888,140.2203316892745A170.6070045455344,170.6070045455344,0,0,0,113.30068497495381,127.55275294640361Z" fill-rule="evenodd" style="fill: #414552; stroke: #fff; opacity: 1;" id="p-type-ether"></path><path d="M112.22007295755864,161.9124924933225A197,197,0,0,1,93.42555961034444,173.43778369056145L80.90890798533569,150.2015266520966A170.6070045455344,170.6070045455344,0,0,0,97.18543399578888,140.2203316892745Z" fill-rule="evenodd" style="fill: #414552; stroke: #fff; opacity: 1;" id="p-type-ether"></path><path d="M93.42555961034444,173.43778369056145A197,197,0,0,1,75.34272452054597,182.02327835148208L65.24871342512554,157.63678313250952A170.6070045455344,170.6070045455344,0,0,0,80.90890798533569,150.2015266520966Z" fill-rule="evenodd" style="fill: #414552; stroke: #fff; opacity: 1;" id="p-type-ether"></path><path d="M75.34272452054597,182.02327835148208A197,197,0,0,1,70.69532030474545,183.87814358158352L61.2239433125874,159.24314354237384A170.6070045455344,170.6070045455344,0,0,0,65.24871342512554,157.63678313250952Z" fill-rule="evenodd" style="fill: #414552; stroke: #fff; opacity: 1;" id="p-type-ether"></path><path d="M70.69532030474545,183.87814358158352A197,197,0,0,1,69.08989421520404,184.48736140270398L59.83360353514623,159.77074165190237A170.6070045455344,170.6070045455344,0,0,0,61.2239433125874,159.24314354237384Z" fill-rule="evenodd" style="fill: #414552; stroke: #fff; opacity: 1;" id="p-type-ether"></path><path d="M69.08989421520404,184.48736140270398A197,197,0,0,1,67.74802418474151,184.98433776691388L58.67151000018868,160.20113580838856A170.6070045455344,170.6070045455344,0,0,0,59.83360353514623,159.77074165190237Z" fill-rule="evenodd" style="fill: #414552; stroke: #fff; opacity: 1;" id="p-type-ether"></path><path d="M-19.29591734941626,196.05271631284404A197,197,0,0,1,-20.719462144889214,195.90738599763537L-17.94358057022407,169.66077306295605A170.6070045455344,170.6070045455344,0,0,0,-16.71075461391937,169.78663280786674Z" fill-rule="evenodd" style="fill: #1DC690; stroke: #fff; opacity: 1;" id="p-type-logs"></path><path d="M-20.719462144889214,195.90738599763537A197,197,0,0,1,-22.14191376133448,195.75171941769918L-19.17545980571991,169.52596185021105A170.6070045455344,170.6070045455344,0,0,0,-17.94358057022407,169.66077306295605Z" fill-rule="evenodd" style="fill: #1DC690; stroke: #fff; opacity: 1;" id="p-type-logs"></path><path d="M-22.14191376133448,195.75171941769918A197,197,0,0,1,-23.563197148817643,195.585724786156L-20.406327325257134,169.38220628240282A170.6070045455344,170.6070045455344,0,0,0,-19.17545980571991,169.52596185021105Z" fill-rule="evenodd" style="fill: #1DC690; stroke: #fff; opacity: 1;" id="p-type-logs"></path><path d="M-23.563197148817643,195.585724786156A197,197,0,0,1,-24.983237319041194,195.40941086104442L-21.636118187065104,169.22951394421526A170.6070045455344,170.6070045455344,0,0,0,-20.406327325257134,169.38220628240282Z" fill-rule="evenodd" style="fill: #1DC690; stroke: #fff; opacity: 1;" id="p-type-logs"></path><path d="M-24.983237319041194,195.40941086104442A197,197,0,0,1,-26.40195934930098,195.2227869448591L-22.864767506178715,169.06789289184505A170.6070045455344,170.6070045455344,0,0,0,-21.636118187065104,169.22951394421526Z" fill-rule="evenodd" style="fill: #1DC690; stroke: #fff; opacity: 1;" id="p-type-logs"></path><path d="M-26.40195934930098,195.2227869448591A197,197,0,0,1,-27.819288386439187,195.02586288405988L-24.092210457861743,168.89735165257653A170.6070045455344,170.6070045455344,0,0,0,-22.864767506178715,169.06789289184505Z" fill-rule="evenodd" style="fill: #1DC690; stroke: #fff; opacity: 1;" id="p-type-logs"></path><path d="M-27.819288386439187,195.02586288405988A197,197,0,0,1,-29.23514965079369,194.81864906855222L-25.318382281027095,168.71789922433177A170.6070045455344,170.6070045455344,0,0,0,-24.092210457861743,168.89735165257653Z" fill-rule="evenodd" style="fill: #1DC690; stroke: #fff; opacity: 1;" id="p-type-logs"></path><path d="M-29.23514965079369,194.81864906855222A197,197,0,0,1,-30.649468440143476,194.60115643113903L-26.54321828165366,168.5295450751959A170.6070045455344,170.6070045455344,0,0,0,-25.318382281027095,168.71789922433177Z" fill-rule="evenodd" style="fill: #1DC690; stroke: #fff; opacity: 1;" id="p-type-logs"></path><path d="M-30.649468440143476,194.60115643113903A197,197,0,0,1,-32.06217013365003,194.37339644694404L-27.766653836199634,168.3322991429175A170.6070045455344,170.6070045455344,0,0,0,-26.54321828165366,168.5295450751959Z" fill-rule="evenodd" style="fill: #1DC690; stroke: #fff; opacity: 1;" id="p-type-logs"></path><path d="M-32.06217013365003,194.37339644694404A197,197,0,0,1,-33.47318019579437,194.1353811328061L-28.988624395012096,168.12617183438428A170.6070045455344,170.6070045455344,0,0,0,-27.766653836199634,168.3322991429175Z" fill-rule="evenodd" style="fill: #1DC690; stroke: #fff; opacity: 1;" id="p-type-logs"></path><path d="M-33.47318019579437,194.1353811328061A197,197,0,0,1,-34.88242418030966,193.88712304664523L-30.209065485732737,167.91117402507408A170.6070045455344,170.6070045455344,0,0,0,-28.988624395012096,168.12617183438428Z" fill-rule="evenodd" style="fill: #1DC690; stroke: #fff; opacity: 1;" id="p-type-logs"></path><path d="M-34.88242418030966,193.88712304664523A197,197,0,0,1,-36.289827734109025,193.6286352868002L-31.42791271669949,167.68731705848097A170.6070045455344,170.6070045455344,0,0,0,-30.209065485732737,167.91117402507408Z" fill-rule="evenodd" style="fill: #1DC690; stroke: #fff; opacity: 1;" id="p-type-logs"></path><path d="M-36.289827734109025,193.6286352868002A197,197,0,0,1,-37.69531660120852,193.3599314913373L-32.64510178034386,167.45461274551678A170.6070045455344,170.6070045455344,0,0,0,-31.42791271669949,167.68731705848097Z" fill-rule="evenodd" style="fill: #1DC690; stroke: #fff; opacity: 1;" id="p-type-logs"></path><path d="M-37.69531660120852,193.3599314913373A197,197,0,0,1,-39.09881662664491,193.0810258373308L-33.860568456583884,167.21307336388801A170.6070045455344,170.6070045455344,0,0,0,-32.64510178034386,167.45461274551678Z" fill-rule="evenodd" style="fill: #1DC690; stroke: #fff; opacity: 1;" id="p-type-logs"></path><path d="M-39.09881662664491,193.0810258373308A197,197,0,0,1,-40.50025376038824,192.79193304011494L-35.07424861621245,166.96271165744798A170.6070045455344,170.6070045455344,0,0,0,-33.860568456583884,167.21307336388801Z" fill-rule="evenodd" style="fill: #1DC690; stroke: #fff; opacity: 1;" id="p-type-logs"></path><path d="M-40.50025376038824,192.79193304011494A197,197,0,0,1,-41.89955406124867,192.49266835250765L-36.28607822428079,166.70354083552445A170.6070045455344,170.6070045455344,0,0,0,-35.07424861621245,166.96271165744798Z" fill-rule="evenodd" style="fill: #1DC690; stroke: #fff; opacity: 1;" id="p-type-logs"></path><path d="M-41.89955406124867,192.49266835250765A197,197,0,0,1,-43.296643700777786,192.18324756400568L-37.49599334347705,166.43557457222278A170.6070045455344,170.6070045455344,0,0,0,-36.28607822428079,166.70354083552445Z" fill-rule="evenodd" style="fill: #1DC690; stroke: #fff; opacity: 1;" id="p-type-logs"></path><path d="M-43.296643700777786,192.18324756400568A197,197,0,0,1,-44.691448967163815,191.86368699995157L-38.703930137499675,166.1588270057042A170.6070045455344,170.6070045455344,0,0,0,-37.49599334347705,166.43557457222278Z" fill-rule="evenodd" style="fill: #1DC690; stroke: #fff; opacity: 1;" id="p-type-logs"></path><path d="M-44.691448967163815,191.86368699995157A197,197,0,0,1,-46.083896269120736,191.53400352067234L-39.90982487442547,165.87331273744036A170.6070045455344,170.6070045455344,0,0,0,-38.703930137499675,166.1588270057042Z" fill-rule="evenodd" style="fill: #1DC690; stroke: #fff; opacity: 1;" id="p-type-logs"></path><path d="M-46.083896269120736,191.53400352067234A197,197,0,0,1,-47.47391213977102,191.19421452058978L-41.11361393007216,165.57904683144235A170.6070045455344,170.6070045455344,0,0,0,-39.90982487442547,165.87331273744036Z" fill-rule="evenodd" style="fill: #1DC690; stroke: #fff; opacity: 1;" id="p-type-logs"></path><path d="M-47.47391213977102,191.19421452058978A197,197,0,0,1,-48.86142324052185,190.84433792730292L-42.31523379135529,165.27604481346637A170.6070045455344,170.6070045455344,0,0,0,-41.11361393007216,165.57904683144235Z" fill-rule="evenodd" style="fill: #1DC690; stroke: #fff; opacity: 1;" id="p-type-logs"></path><path d="M-48.86142324052185,190.84433792730292A197,197,0,0,1,-50.246356364934485,190.48439220064202L-43.51462105963918,164.96432267019438A170.6070045455344,170.6070045455344,0,0,0,-42.31523379135529,165.27604481346637Z" fill-rule="evenodd" style="fill: #1DC690; stroke: #fff; opacity: 1;" id="p-type-logs"></path><path d="M-50.246356364934485,190.48439220064202A197,197,0,0,1,-51.628638442586734,190.1143963316946L-44.71171245408197,164.6438968483906A170.6070045455344,170.6070045455344,0,0,0,-43.51462105963918,164.96432267019438Z" fill-rule="evenodd" style="fill: #1DC690; stroke: #fff; opacity: 1;" id="p-type-logs"></path><path d="M-51.628638442586734,190.1143963316946A197,197,0,0,1,-53.00819654292824,189.73436984180353L-45.90644481497431,164.31478425403392A170.6070045455344,170.6070045455344,0,0,0,-44.71171245408197,164.6438968483906Z" fill-rule="evenodd" style="fill: #1DC690; stroke: #fff; opacity: 1;" id="p-type-logs"></path><path d="M-53.00819654292824,189.73436984180353A197,197,0,0,1,-54.38495787912832,189.34433278153705L-47.09875510707179,163.97700225142574A170.6070045455344,170.6070045455344,0,0,0,-45.90644481497431,164.31478425403392Z" fill-rule="evenodd" style="fill: #1DC690; stroke: #fff; opacity: 1;" id="p-type-logs"></path><path d="M-54.38495787912832,189.34433278153705A197,197,0,0,1,-55.758849811916306,188.9443057296307L-48.28858042292069,163.63056866227384A170.6070045455344,170.6070045455344,0,0,0,-47.09875510707179,163.97700225142574Z" fill-rule="evenodd" style="fill: #1DC690; stroke: #fff; opacity: 1;" id="p-type-logs"></path><path d="M-55.758849811916306,188.9443057296307A197,197,0,0,1,-57.129799853414056,188.53430979190193L-49.475857986177076,163.2755017647523A170.6070045455344,170.6070045455344,0,0,0,-48.28858042292069,163.63056866227384Z" fill-rule="evenodd" style="fill: #1DC690; stroke: #fff; opacity: 1;" id="p-type-logs"></path><path d="M-57.129799853414056,188.53430979190193A197,197,0,0,1,-58.49773567096048,188.1143666001362L-50.66052515491891,162.91182029253687A170.6070045455344,170.6070045455344,0,0,0,-49.475857986177076,163.2755017647523Z" fill-rule="evenodd" style="fill: #1DC690; stroke: #fff; opacity: 1;" id="p-type-logs"></path><path d="M-58.49773567096048,188.1143666001362A197,197,0,0,1,-59.862585090927865,187.68449831094583L-51.84251942495112,162.53954343381665A170.6070045455344,170.6070045455344,0,0,0,-50.66052515491891,162.91182029253687Z" fill-rule="evenodd" style="fill: #1DC690; stroke: #fff; opacity: 1;" id="p-type-logs"></path><path d="M-59.862585090927865,187.68449831094583A197,197,0,0,1,-61.224276102529856,187.2447276046009L-53.02177843310338,162.15869083028173A170.6070045455344,170.6070045455344,0,0,0,-51.84251942495112,162.53954343381665Z" fill-rule="evenodd" style="fill: #1DC690; stroke: #fff; opacity: 1;" id="p-type-logs"></path><path d="M-61.224276102529856,187.2447276046009A197,197,0,0,1,-62.58273686162084,186.7950776838328L-54.19823996052045,161.76928257608688A170.6070045455344,170.6070045455344,0,0,0,-53.02177843310338,162.15869083028173Z" fill-rule="evenodd" style="fill: #1DC690; stroke: #fff; opacity: 1;" id="p-type-logs"></path><path d="M-62.58273686162084,186.7950776838328A197,197,0,0,1,-63.937895694486386,186.33557227260977L-55.37184193594489,161.3713392167913A170.6070045455344,170.6070045455344,0,0,0,-54.19823996052045,161.76928257608688Z" fill-rule="evenodd" style="fill: #1DC690; stroke: #fff; opacity: 1;" id="p-type-logs"></path><path d="M-63.937895694486386,186.33557227260977A197,197,0,0,1,-65.28968110162502,185.86623561488545L-56.54252243899204,160.96488174827476A170.6070045455344,170.6070045455344,0,0,0,-55.37184193594489,161.3713392167913Z" fill-rule="evenodd" style="fill: #1DC690; stroke: #fff; opacity: 1;" id="p-type-logs"></path><path d="M-65.28968110162502,185.86623561488545A197,197,0,0,1,-66.6380217615204,185.38709247331954L-57.710219703416925,160.54993161562962A170.6070045455344,170.6070045455344,0,0,0,-56.54252243899204,160.96488174827476Z" fill-rule="evenodd" style="fill: #1DC690; stroke: #fff; opacity: 1;" id="p-type-logs"></path><path d="M-66.6380217615204,185.38709247331954A197,197,0,0,1,-67.9828465344045,184.89816812797147L-58.874872120373176,160.1265107120295A170.6070045455344,170.6070045455344,0,0,0,-57.710219703416925,160.54993161562962Z" fill-rule="evenodd" style="fill: #1DC690; stroke: #fff; opacity: 1;" id="p-type-logs"></path><path d="M-67.9828465344045,184.89816812797147A197,197,0,0,1,-69.32408446601083,184.39948837496647L-60.03641824166356,159.69464137757424A170.6070045455344,170.6070045455344,0,0,0,-58.874872120373176,160.1265107120295Z" fill-rule="evenodd" style="fill: #1DC690; stroke: #fff; opacity: 1;" id="p-type-logs"></path><path d="M-69.32408446601083,184.39948837496647A197,197,0,0,1,-70.66166479131822,183.8910795251346L-61.19479678298201,159.254346398111A170.6070045455344,170.6070045455344,0,0,0,-60.03641824166356,159.69464137757424Z" fill-rule="evenodd" style="fill: #1DC690; stroke: #fff; opacity: 1;" id="p-type-logs"></path><path d="M-70.66166479131822,183.8910795251346A197,197,0,0,1,-71.99551693828434,183.37296840262258L-62.349946627147084,158.80564900403232A170.6070045455344,170.6070045455344,0,0,0,-61.19479678298201,159.254346398111Z" fill-rule="evenodd" style="fill: #1DC690; stroke: #fff; opacity: 1;" id="p-type-logs"></path><path d="M-71.99551693828434,183.37296840262258A197,197,0,0,1,-73.32557053156916,182.84518234347843L-63.50180682732651,158.34857286905023A170.6070045455344,170.6070045455344,0,0,0,-62.349946627147084,158.80564900403232Z" fill-rule="evenodd" style="fill: #1DC690; stroke: #fff; opacity: 1;" id="p-type-logs"></path><path d="M-73.32557053156916,182.84518234347843A197,197,0,0,1,-74.6517553962481,182.30774919420938L-64.6503166102529,157.88314210894734A170.6070045455344,170.6070045455344,0,0,0,-63.50180682732651,158.34857286905023Z" fill-rule="evenodd" style="fill: #1DC690; stroke: #fff; opacity: 1;" id="p-type-logs"></path><path d="M-74.6517553962481,182.30774919420938A197,197,0,0,1,-75.97400156151446,181.7606973103124L-65.79541537943012,157.40938128030442A170.6070045455344,170.6070045455344,0,0,0,-64.6503166102529,157.88314210894734Z" fill-rule="evenodd" style="fill: #1DC690; stroke: #fff; opacity: 1;" id="p-type-logs"></path><path d="M-75.97400156151446,181.7606973103124A197,197,0,0,1,-77.2922392643711,181.2040555547784L-66.93704271833043,156.9273153792048A170.6070045455344,170.6070045455344,0,0,0,-65.79541537943012,157.40938128030442Z" fill-rule="evenodd" style="fill: #1DC690; stroke: #fff; opacity: 1;" id="p-type-logs"></path><path d="M-77.2922392643711,181.2040555547784A197,197,0,0,1,-78.60639895331137,180.63785329656918L-68.07513839358215,156.43696983991552A170.6070045455344,170.6070045455344,0,0,0,-66.93704271833043,156.9273153792048Z" fill-rule="evenodd" style="fill: #1DC690; stroke: #fff; opacity: 1;" id="p-type-logs"></path><path d="M-78.60639895331137,180.63785329656918A197,197,0,0,1,-79.91641129198854,180.0621204090681L-69.20964235814765,155.9383705335454A170.6070045455344,170.6070045455344,0,0,0,-68.07513839358215,156.43696983991552Z" fill-rule="evenodd" style="fill: #1DC690; stroke: #fff; opacity: 1;" id="p-type-logs"></path><path d="M-79.91641129198854,180.0621204090681A197,197,0,0,1,-81.22220716287413,179.47688726850362L-70.34049475449139,155.43154376668002A170.6070045455344,170.6070045455344,0,0,0,-69.20964235814765,155.9383705335454Z" fill-rule="evenodd" style="fill: #1DC690; stroke: #fff; opacity: 1;" id="p-type-logs"></path><path d="M-81.22220716287413,179.47688726850362A197,197,0,0,1,-82.52371767090463,178.88218475234706L-71.46763591773819,154.9165162799939A170.6070045455344,170.6070045455344,0,0,0,-70.34049475449139,155.43154376668002Z" fill-rule="evenodd" style="fill: #1DC690; stroke: #fff; opacity: 1;" id="p-type-logs"></path><path d="M-82.52371767090463,178.88218475234706A197,197,0,0,1,-83.82087414711646,178.27804423768302L-72.59100637882113,154.39331524683945A170.6070045455344,170.6070045455344,0,0,0,-71.46763591773819,154.9165162799939Z" fill-rule="evenodd" style="fill: #1DC690; stroke: #fff; opacity: 1;" id="p-type-logs"></path><path d="M-83.82087414711646,178.27804423768302A197,197,0,0,1,-85.11360815226895,177.66449759955424L-73.71054686761921,153.86196827181337A170.6070045455344,170.6070045455344,0,0,0,-72.59100637882113,154.39331524683945Z" fill-rule="evenodd" style="fill: #1DC690; stroke: #fff; opacity: 1;" id="p-type-logs"></path><path d="M-85.11360815226895,177.66449759955424A197,197,0,0,1,-86.40185148045542,177.04157720927964L-74.8261983160845,153.32250338930027A170.6070045455344,170.6070045455344,0,0,0,-73.71054686761921,153.86196827181337Z" fill-rule="evenodd" style="fill: #1DC690; stroke: #fff; opacity: 1;" id="p-type-logs"></path><path d="M-86.40185148045542,177.04157720927964A197,197,0,0,1,-87.68553616270158,176.40931593274647L-75.93790186135863,152.77494906199337A170.6070045455344,170.6070045455344,0,0,0,-74.8261983160845,153.32250338930027Z" fill-rule="evenodd" style="fill: #1DC690; stroke: #fff; opacity: 1;" id="p-type-logs"></path><path d="M-87.68553616270158,176.40931593274647A197,197,0,0,1,-88.96459447055179,175.76774712867623L-77.04559884887844,152.21933417939292A170.6070045455344,170.6070045455344,0,0,0,-75.93790186135863,152.77494906199337Z" fill-rule="evenodd" style="fill: #1DC690; stroke: #fff; opacity: 1;" id="p-type-logs"></path><path d="M-88.96459447055179,175.76774712867623A197,197,0,0,1,-90.23895891964246,175.11690464686464L-78.14923083547072,151.655688056282A170.6070045455344,170.6070045455344,0,0,0,-77.04559884887844,152.21933417939292Z" fill-rule="evenodd" style="fill: #1DC690; stroke: #fff; opacity: 1;" id="p-type-logs"></path><path d="M-90.23895891964246,175.11690464686464A197,197,0,0,1,-91.5085622732625,174.45682282639575L-79.2487395924356,151.08404043117966A170.6070045455344,170.6070045455344,0,0,0,-78.14923083547072,151.655688056282Z" fill-rule="evenodd" style="fill: #1DC690; stroke: #fff; opacity: 1;" id="p-type-logs"></path><path d="M-91.5085622732625,174.45682282639575A197,197,0,0,1,-92.77333754590092,173.78753649383012L-80.34406710861886,150.5044214647721A170.6070045455344,170.6070045455344,0,0,0,-79.2487395924356,151.08404043117966Z" fill-rule="evenodd" style="fill: #1DC690; stroke: #fff; opacity: 1;" id="p-type-logs"></path><path d="M-152.15948601996894,125.12589985346308A197,197,0,0,1,-153.06433986069382,124.01736919887479L-132.5576067328559,107.40219223673934A170.6070045455344,170.6070045455344,0,0,0,-131.77398032007625,108.3622079444866Z" fill-rule="evenodd" style="fill: #D7A449; stroke: #fff; opacity: 1;" id="p-type-tokenTransfers"></path><path d="M-153.06433986069382,124.01736919887479A197,197,0,0,1,-153.96111787758443,122.90229526694996L-133.33423927703862,106.43650988459464A170.6070045455344,170.6070045455344,0,0,0,-132.5576067328559,107.40219223673934Z" fill-rule="evenodd" style="fill: #D7A449; stroke: #fff; opacity: 1;" id="p-type-tokenTransfers"></path><path d="M-153.96111787758443,122.90229526694996A197,197,0,0,1,-154.8497727557581,121.78073689007667L-134.10383697673396,105.46521183839512A170.6070045455344,170.6070045455344,0,0,0,-133.33423927703862,106.43650988459464Z" fill-rule="evenodd" style="fill: #D7A449; stroke: #fff; opacity: 1;" id="p-type-tokenTransfers"></path><path d="M-154.8497727557581,121.78073689007667A197,197,0,0,1,-155.73025760891687,120.65275324276855L-134.86635922721686,104.48834934477287A170.6070045455344,170.6070045455344,0,0,0,-134.10383697673396,105.46521183839512Z" fill-rule="evenodd" style="fill: #D7A449; stroke: #fff; opacity: 1;" id="p-type-tokenTransfers"></path><path d="M-155.73025760891687,120.65275324276855A197,197,0,0,1,-156.60252598182123,119.51840383854281L-135.62176579706977,103.50597394394563A170.6070045455344,170.6070045455344,0,0,0,-134.86635922721686,104.48834934477287Z" fill-rule="evenodd" style="fill: #D7A449; stroke: #fff; opacity: 1;" id="p-type-tokenTransfers"></path><path d="M-156.60252598182123,119.51840383854281A197,197,0,0,1,-157.4665318527413,118.37774852678022L-136.37001683030545,102.51813746699757A170.6070045455344,170.6070045455344,0,0,0,-135.62176579706977,103.50597394394563Z" fill-rule="evenodd" style="fill: #D7A449; stroke: #fff; opacity: 1;" id="p-type-tokenTransfers"></path><path d="M-157.4665318527413,118.37774852678022A197,197,0,0,1,-158.3222296358847,117.23084748956732L-137.11107284846966,101.52489203314448A170.6070045455344,170.6070045455344,0,0,0,-136.37001683030545,102.51813746699757Z" fill-rule="evenodd" style="fill: #D7A449; stroke: #fff; opacity: 1;" id="p-type-tokenTransfers"></path><path d="M-158.3222296358847,117.23084748956732A197,197,0,0,1,-159.16957418380198,116.0777612385213L-137.84489475272426,100.52629004698407A170.6070045455344,170.6070045455344,0,0,0,-137.11107284846966,101.52489203314448Z" fill-rule="evenodd" style="fill: #D7A449; stroke: #fff; opacity: 1;" id="p-type-tokenTransfers"></path><path d="M-159.16957418380198,116.0777612385213A197,197,0,0,1,-160.00852078976848,114.91855061159718L-138.57144382591,99.5223841957309A170.6070045455344,170.6070045455344,0,0,0,-137.84489475272426,100.52629004698407Z" fill-rule="evenodd" style="fill: #D7A449; stroke: #fff; opacity: 1;" id="p-type-tokenTransfers"></path><path d="M-160.00852078976848,114.91855061159718A197,197,0,0,1,-160.8390251901432,113.7532767698781L-139.29068173458924,98.51322744643669A170.6070045455344,170.6070045455344,0,0,0,-138.57144382591,99.5223841957309Z" fill-rule="evenodd" style="fill: #D7A449; stroke: #fff; opacity: 1;" id="p-type-tokenTransfers"></path><path d="M-160.8390251901432,113.7532767698781A197,197,0,0,1,-161.66104356670402,112.58200119434822L-140.00257053106859,97.49887304319556A170.6070045455344,170.6070045455344,0,0,0,-139.29068173458924,98.51322744643669Z" fill-rule="evenodd" style="fill: #D7A449; stroke: #fff; opacity: 1;" id="p-type-tokenTransfers"></path><path d="M-161.66104356670402,112.58200119434822A197,197,0,0,1,-162.47453254895984,111.40478568264915L-140.70707265540085,96.47937450433507A170.6070045455344,170.6070045455344,0,0,0,-140.00257053106859,97.49887304319556Z" fill-rule="evenodd" style="fill: #D7A449; stroke: #fff; opacity: 1;" id="p-type-tokenTransfers"></path><path d="M-162.47453254895984,111.40478568264915A197,197,0,0,1,-163.27944921643865,110.22169234581924L-141.40415093736704,95.45478561959227A170.6070045455344,170.6070045455344,0,0,0,-140.70707265540085,96.47937450433507Z" fill-rule="evenodd" style="fill: #D7A449; stroke: #fff; opacity: 1;" id="p-type-tokenTransfers"></path><path d="M-163.27944921643865,110.22169234581924A197,197,0,0,1,-164.07575110095217,109.03278360501666L-142.09376859843715,94.42516044727587A170.6070045455344,170.6070045455344,0,0,0,-141.40415093736704,95.45478561959227Z" fill-rule="evenodd" style="fill: #D7A449; stroke: #fff; opacity: 1;" id="p-type-tokenTransfers"></path><path d="M-164.07575110095217,109.03278360501666A197,197,0,0,1,-164.86339618883642,107.83812218822597L-142.77588925371094,93.39055331141402A170.6070045455344,170.6070045455344,0,0,0,-142.09376859843715,94.42516044727587Z" fill-rule="evenodd" style="fill: #D7A449; stroke: #fff; opacity: 1;" id="p-type-tokenTransfers"></path><path d="M-164.86339618883642,107.83812218822597A197,197,0,0,1,-165.64234292316848,106.63777112694851L-143.45047691383743,92.35101879888813A170.6070045455344,170.6070045455344,0,0,0,-142.77588925371094,93.39055331141402Z" fill-rule="evenodd" style="fill: #D7A449; stroke: #fff; opacity: 1;" id="p-type-tokenTransfers"></path><path d="M-165.64234292316848,106.63777112694851A197,197,0,0,1,-166.41255020595906,105.43179375287681L-144.11749598691387,91.3066117565528A170.6070045455344,170.6070045455344,0,0,0,-143.45047691383743,92.35101879888813Z" fill-rule="evenodd" style="fill: #D7A449; stroke: #fff; opacity: 1;" id="p-type-tokenTransfers"></path><path d="M-166.41255020595906,105.43179375287681A197,197,0,0,1,-167.17397740032084,104.22025369455315L-144.77691128036346,90.25738728834202A170.6070045455344,170.6070045455344,0,0,0,-144.11749598691387,91.3066117565528Z" fill-rule="evenodd" style="fill: #D7A449; stroke: #fff; opacity: 1;" id="p-type-tokenTransfers"></path><path d="M-167.17397740032084,104.22025369455315A197,197,0,0,1,-167.9265843326125,103.00321487401246L-145.4286880027923,89.20340075236193A170.6070045455344,170.6070045455344,0,0,0,-144.77691128036346,90.25738728834202Z" fill-rule="evenodd" style="fill: #D7A449; stroke: #fff; opacity: 1;" id="p-type-tokenTransfers"></path><path d="M-167.9265843326125,103.00321487401246A197,197,0,0,1,-168.6703312945584,101.78074150340974L-146.07279176582497,88.14470775797A170.6070045455344,170.6070045455344,0,0,0,-145.4286880027923,89.20340075236193Z" fill-rule="evenodd" style="fill: #D7A449; stroke: #fff; opacity: 1;" id="p-type-tokenTransfers"></path><path d="M-168.6703312945584,101.78074150340974A197,197,0,0,1,-169.40517904534354,100.55289808163212L-146.70918858591875,87.08136416284097A170.6070045455344,170.6070045455344,0,0,0,-146.07279176582497,88.14470775797Z" fill-rule="evenodd" style="fill: #D7A449; stroke: #fff; opacity: 1;" id="p-type-tokenTransfers"></path><path d="M-169.40517904534354,100.55289808163212A197,197,0,0,1,-170.131088813684,99.31974939089592L-147.33784488615686,86.0134260700199A170.6070045455344,170.6070045455344,0,0,0,-146.70918858591875,87.08136416284097Z" fill-rule="evenodd" style="fill: #D7A449; stroke: #fff; opacity: 1;" id="p-type-tokenTransfers"></path><path d="M-170.131088813684,99.31974939089592A197,197,0,0,1,-170.8480222998725,98.08136049332855L-147.95872749801984,84.94094982496195A170.6070045455344,170.6070045455344,0,0,0,-147.33784488615686,86.0134260700199Z" fill-rule="evenodd" style="fill: #D7A449; stroke: #fff; opacity: 1;" id="p-type-tokenTransfers"></path><path d="M-170.8480222998725,98.08136049332855A197,197,0,0,1,-171.55594167779918,96.8377967275359L-148.57180366313565,83.86399201255966A170.6070045455344,170.6070045455344,0,0,0,-147.95872749801984,84.94094982496195Z" fill-rule="evenodd" style="fill: #D7A449; stroke: #fff; opacity: 1;" id="p-type-tokenTransfers"></path><path d="M-171.55594167779918,96.8377967275359A197,197,0,0,1,-172.25480959694735,95.58912370515492L-149.17704103500793,82.78260945415745A170.6070045455344,170.6070045455344,0,0,0,-148.57180366313565,83.86399201255966Z" fill-rule="evenodd" style="fill: #D7A449; stroke: #fff; opacity: 1;" id="p-type-tokenTransfers"></path><path d="M-172.25480959694735,95.58912370515492A197,197,0,0,1,-172.94458918436408,94.33540730739196L-149.77440768072276,81.6968592045536A170.6070045455344,170.6070045455344,0,0,0,-149.17704103500793,82.78260945415745Z" fill-rule="evenodd" style="fill: #D7A449; stroke: #fff; opacity: 1;" id="p-type-tokenTransfers"></path><path d="M-172.94458918436408,94.33540730739196A197,197,0,0,1,-173.62524404660567,93.07671368154672L-150.36387208263338,80.60679854899007A170.6070045455344,170.6070045455344,0,0,0,-149.77440768072276,81.6968592045536Z" fill-rule="evenodd" style="fill: #D7A449; stroke: #fff; opacity: 1;" id="p-type-tokenTransfers"></path><path d="M-173.62524404660567,93.07671368154672A197,197,0,0,1,-174.29673827165783,91.81310923752234L-150.94540314002307,79.51248500013006A170.6070045455344,170.6070045455344,0,0,0,-150.36387208263338,80.60679854899007Z" fill-rule="evenodd" style="fill: #D7A449; stroke: #fff; opacity: 1;" id="p-type-tokenTransfers"></path><path d="M-174.29673827165783,91.81310923752234A197,197,0,0,1,-174.95903643083042,90.54466064432155L-151.51897017074623,78.41397629502355A170.6070045455344,170.6070045455344,0,0,0,-150.94540314002307,79.51248500013006Z" fill-rule="evenodd" style="fill: #D7A449; stroke: #fff; opacity: 1;" id="p-type-tokenTransfers"></path><path d="M-174.95903643083042,90.54466064432155A197,197,0,0,1,-175.61210358062675,89.27143482652902L-152.08454291284693,77.311330392061A170.6070045455344,170.6070045455344,0,0,0,-151.51897017074623,78.41397629502355Z" fill-rule="evenodd" style="fill: #D7A449; stroke: #fff; opacity: 1;" id="p-type-tokenTransfers"></path><path d="M-175.61210358062675,89.27143482652902A197,197,0,0,1,-176.25590526458714,87.99349896078054L-152.64209152615584,76.20460546791556A170.6070045455344,170.6070045455344,0,0,0,-152.08454291284693,77.311330392061Z" fill-rule="evenodd" style="fill: #D7A449; stroke: #fff; opacity: 1;" id="p-type-tokenTransfers"></path><path d="M-176.25590526458714,87.99349896078054A197,197,0,0,1,-176.8904075151069,86.71092047221859L-153.19158659386434,75.09385991447344A170.6070045455344,170.6070045455344,0,0,0,-152.64209152615584,76.20460546791556Z" fill-rule="evenodd" style="fill: #D7A449; stroke: #fff; opacity: 1;" id="p-type-tokenTransfers"></path><path d="M-176.8904075151069,86.71092047221859A197,197,0,0,1,-177.51557685522855,85.42376703093493L-153.73299912407685,73.97915233575324A170.6070045455344,170.6070045455344,0,0,0,-153.19158659386434,75.09385991447344Z" fill-rule="evenodd" style="fill: #D7A449; stroke: #fff; opacity: 1;" id="p-type-tokenTransfers"></path><path d="M-177.51557685522855,85.42376703093493A197,197,0,0,1,-178.1313803004081,84.13210654840032L-154.26630055134032,72.86054154481378A170.6070045455344,170.6070045455344,0,0,0,-153.73299912407685,73.97915233575324Z" fill-rule="evenodd" style="fill: #D7A449; stroke: #fff; opacity: 1;" id="p-type-tokenTransfers"></path><path d="M-178.1313803004081,84.13210654840032A197,197,0,0,1,-178.73778536025523,82.8360071738814L-154.79146273815135,71.7380865606513A170.6070045455344,170.6070045455344,0,0,0,-154.26630055134032,72.86054154481378Z" fill-rule="evenodd" style="fill: #D7A449; stroke: #fff; opacity: 1;" id="p-type-tokenTransfers"></path><path d="M-178.73778536025523,82.8360071738814A197,197,0,0,1,-179.33476004024766,81.53553729084508L-155.3084579764409,70.61184660508528A170.6070045455344,170.6070045455344,0,0,0,-154.79146273815135,71.7380865606513Z" fill-rule="evenodd" style="fill: #D7A449; stroke: #fff; opacity: 1;" id="p-type-tokenTransfers"></path><path d="M-179.33476004024766,81.53553729084508A197,197,0,0,1,-179.9222728434191,80.23076551335059L-155.81725898903596,69.48188109963407A170.6070045455344,170.6070045455344,0,0,0,-155.3084579764409,70.61184660508528Z" fill-rule="evenodd" style="fill: #D7A449; stroke: #fff; opacity: 1;" id="p-type-tokenTransfers"></path></g></svg>