<svg xmlns="http://www.w3.org/2000/svg" width="400" height="400" id="block-7908230"><g id="burst-container" transform="translate(200,200)"><circle r="197" style="fill: #f9f9f9; stroke: #f9f9f9; stroke-width: 3; opacity: 1;" id="circle-base"></circle><path display="none" d="M6.031385485800715e-15,-98.5A98.5,98.5,0,1,1,-6.031385485800715e-15,98.5A98.5,98.5,0,1,1,6.031385485800715e-15,-98.5Z" fill-rule="evenodd" id="p-type-root" style="stroke: #fff; opacity: 1;"></path><path d="M8.529667153919608e-15,-139.30003589374985A139.30003589374985,139.30003589374985,0,1,1,-72.33200864518591,-119.0486477258467L-51.14645380985495,-84.18010609803467A98.5,98.5,0,1,0,6.031385485800715e-15,-98.5Z" fill-rule="evenodd" style="fill: #0B1F65; stroke: #fff; opacity: 1;" id="p-type-data"></path><path d="M-72.33200864518591,-119.0486477258467A139.30003589374985,139.30003589374985,0,0,1,-1.9753785033991584,-139.2860290185929L-1.3968035351636787,-98.49009564359329A98.5,98.5,0,0,0,-51.14645380985495,-84.18010609803467Z" fill-rule="evenodd" style="fill: #D7A449; stroke: #fff; opacity: 1;" id="p-type-value"></path><path d="M1.0446666101440332e-14,-170.6070045455344A170.6070045455344,170.6070045455344,0,1,1,-41.97663829127006,165.36236523999008L-34.27378164366187,135.01780583257374A139.30003589374985,139.30003589374985,0,1,0,8.529667153919608e-15,-139.30003589374985Z" fill-rule="evenodd" style="fill: #414552; stroke: #fff; opacity: 1;" id="p-type-ether"></path><path d="M-41.97663829127006,165.36236523999008A170.6070045455344,170.6070045455344,0,0,1,-158.03872048474867,64.2690658679857L-129.03807492998985,52.475472540629134A139.30003589374985,139.30003589374985,0,0,0,-34.27378164366187,135.01780583257374Z" fill-rule="evenodd" style="fill: #1DC690; stroke: #fff; opacity: 1;" id="p-type-logs"></path><path d="M-158.03872048474867,64.2690658679857A170.6070045455344,170.6070045455344,0,0,1,-161.40479958479452,-55.274231527831446L-131.78646700630958,-45.131221055881895A139.30003589374985,139.30003589374985,0,0,0,-129.03807492998985,52.475472540629134Z" fill-rule="evenodd" style="fill: #D7A449; stroke: #fff; opacity: 1;" id="p-type-tokenTransfers"></path><path d="M-88.58825662564354,-145.80422074833473A170.6070045455344,170.6070045455344,0,0,1,-36.018164415860845,-166.76163177455422L-29.408708096843064,-136.16030217385196A139.30003589374985,139.30003589374985,0,0,0,-72.33200864518591,-119.0486477258467Z" fill-rule="evenodd" style="fill: #D7A449; stroke: #fff; opacity: 1;" id="p-type-tokenTransfers"></path><path d="M-36.018164415860845,-166.76163177455422A170.6070045455344,170.6070045455344,0,0,1,-4.838182845072873,-170.53838860138688L-3.9503597509051787,-139.24401120995626A139.30003589374985,139.30003589374985,0,0,0,-29.408708096843064,-136.16030217385196Z" fill-rule="evenodd" style="fill: #414552; stroke: #fff; opacity: 1;" id="p-type-ether"></path><path d="M1.206277097160143e-14,-197A197,197,0,0,1,59.22319643103423,187.88723480984848L51.28879260259155,162.71511839214065A170.6070045455344,170.6070045455344,0,0,0,1.0446666101440332e-14,-170.6070045455344Z" fill-rule="evenodd" style="fill: #414552; stroke: #fff; opacity: 1;" id="p-type-ether"></path><path d="M59.22319643103423,187.88723480984848A197,197,0,0,1,18.222015965891607,196.155443804496L15.780728734627768,169.87559742530442A170.6070045455344,170.6070045455344,0,0,0,51.28879260259155,162.71511839214065Z" fill-rule="evenodd" style="fill: #414552; stroke: #fff; opacity: 1;" id="p-type-ether"></path><path d="M18.222015965891607,196.155443804496A197,197,0,0,1,4.2792603515800725,196.95351718322624L3.705948173875871,170.5667492453689A170.6070045455344,170.6070045455344,0,0,0,15.780728734627768,169.87559742530442Z" fill-rule="evenodd" style="fill: #414552; stroke: #fff; opacity: 1;" id="p-type-ether"></path><path d="M4.2792603515800725,196.95351718322624A197,197,0,0,1,0.053957804330547685,196.99999261054646L0.04672882928268429,170.60699814607992A170.6070045455344,170.6070045455344,0,0,0,3.705948173875871,170.5667492453689Z" fill-rule="evenodd" style="fill: #414552; stroke: #fff; opacity: 1;" id="p-type-ether"></path><path d="M0.053957804330547685,196.99999261054646A197,197,0,0,1,-2.9879709302413513,196.97733887358726L-2.587658731358431,170.5873794343826A170.6070045455344,170.6070045455344,0,0,0,0.04672882928268429,170.60699814607992Z" fill-rule="evenodd" style="fill: #414552; stroke: #fff; opacity: 1;" id="p-type-ether"></path><path d="M-2.9879709302413513,196.97733887358726A197,197,0,0,1,-5.987597803042823,196.90898575877384L-5.185411805078979,170.5281839005264A170.6070045455344,170.6070045455344,0,0,0,-2.587658731358431,170.5873794343826Z" fill-rule="evenodd" style="fill: #414552; stroke: #fff; opacity: 1;" id="p-type-ether"></path><path d="M-5.987597803042823,196.90898575877384A197,197,0,0,1,-7.656825188700355,196.85114434015793L-6.631005125751085,170.47809176261407A170.6070045455344,170.6070045455344,0,0,0,-5.185411805078979,170.5281839005264Z" fill-rule="evenodd" style="fill: #414552; stroke: #fff; opacity: 1;" id="p-type-ether"></path><path d="M-7.656825188700355,196.85114434015793A197,197,0,0,1,-9.052415889867072,196.79190472821L-7.8396221262468,170.42678875375685A170.6070045455344,170.6070045455344,0,0,0,-6.631005125751085,170.47809176261407Z" fill-rule="evenodd" style="fill: #414552; stroke: #fff; opacity: 1;" id="p-type-ether"></path><path d="M-9.052415889867072,196.79190472821A197,197,0,0,1,-10.189371860625482,196.73631261433638L-8.82425487990798,170.37864457089222A170.6070045455344,170.6070045455344,0,0,0,-7.8396221262468,170.42678875375685Z" fill-rule="evenodd" style="fill: #414552; stroke: #fff; opacity: 1;" id="p-type-ether"></path><path d="M-48.470446834280644,190.94401217028297A197,197,0,0,1,-49.82312672636484,190.59552996649367L-43.14809344100337,165.06057079874176A170.6070045455344,170.6070045455344,0,0,0,-41.97663829127006,165.36236523999008Z" fill-rule="evenodd" style="fill: #1DC690; stroke: #fff; opacity: 1;" id="p-type-logs"></path><path d="M-49.82312672636484,190.59552996649367A197,197,0,0,1,-51.173301683388544,190.23746527648254L-44.31737925333945,164.75047768099392A170.6070045455344,170.6070045455344,0,0,0,-43.14809344100337,165.06057079874176Z" fill-rule="evenodd" style="fill: #1DC690; stroke: #fff; opacity: 1;" id="p-type-logs"></path><path d="M-51.173301683388544,190.23746527648254A197,197,0,0,1,-52.52090382320929,189.86983610250786L-45.484436940618494,164.43210147715956A170.6070045455344,170.6070045455344,0,0,0,-44.31737925333945,164.75047768099392Z" fill-rule="evenodd" style="fill: #1DC690; stroke: #fff; opacity: 1;" id="p-type-logs"></path><path d="M-52.52090382320929,189.86983610250786A197,197,0,0,1,-53.865865393036955,189.49266092769722L-46.64920782720304,164.10545819409668A170.6070045455344,170.6070045455344,0,0,0,-45.484436940618494,164.43210147715956Z" fill-rule="evenodd" style="fill: #1DC690; stroke: #fff; opacity: 1;" id="p-type-logs"></path><path d="M-53.865865393036955,189.49266092769722A197,197,0,0,1,-55.208118772840194,189.10595871511813L-47.811633352428174,163.77056425430357A170.6070045455344,170.6070045455344,0,0,0,-46.64920782720304,164.10545819409668Z" fill-rule="evenodd" style="fill: #1DC690; stroke: #fff; opacity: 1;" id="p-type-logs"></path><path d="M-55.208118772840194,189.10595871511813A197,197,0,0,1,-56.5475964787461,188.7097489068249L-48.97165507354559,163.42743649509305A170.6070045455344,170.6070045455344,0,0,0,-47.811633352428174,163.77056425430357Z" fill-rule="evenodd" style="fill: #1DC690; stroke: #fff; opacity: 1;" id="p-type-logs"></path><path d="M-56.5475964787461,188.7097489068249A197,197,0,0,1,-57.884231166433125,188.3040514228808L-50.12921466866204,163.07609216774603A170.6070045455344,170.6070045455344,0,0,0,-48.97165507354559,163.42743649509305Z" fill-rule="evenodd" style="fill: #1DC690; stroke: #fff; opacity: 1;" id="p-type-logs"></path><path d="M-57.884231166433125,188.3040514228808A197,197,0,0,1,-59.21795563451682,187.88888666035677L-51.2842539396714,162.7165489366441A170.6070045455344,170.6070045455344,0,0,0,-50.12921466866204,163.07609216774603Z" fill-rule="evenodd" style="fill: #1DC690; stroke: #fff; opacity: 1;" id="p-type-logs"></path><path d="M-59.21795563451682,187.88888666035677A197,197,0,0,1,-60.54870282792857,187.46427549230597L-52.43671481518082,162.34882487838152A170.6070045455344,170.6070045455344,0,0,0,-51.2842539396714,162.7165489366441Z" fill-rule="evenodd" style="fill: #1DC690; stroke: #fff; opacity: 1;" id="p-type-logs"></path><path d="M-60.54870282792857,187.46427549230597A197,197,0,0,1,-61.8764058412869,187.03023926671418L-53.58653935343028,161.97293848085633A170.6070045455344,170.6070045455344,0,0,0,-52.43671481518082,162.34882487838152Z" fill-rule="evenodd" style="fill: #1DC690; stroke: #fff; opacity: 1;" id="p-type-logs"></path><path d="M-61.8764058412869,187.03023926671418A197,197,0,0,1,-63.20099792226116,186.58679980542658L-54.73366974520569,161.58890864234078A170.6070045455344,170.6070045455344,0,0,0,-53.58653935343028,161.97293848085633Z" fill-rule="evenodd" style="fill: #1DC690; stroke: #fff; opacity: 1;" id="p-type-logs"></path><path d="M-63.20099792226116,186.58679980542658A197,197,0,0,1,-64.52241247492768,186.1339794030507L-55.87804831674535,161.19675467053136A170.6070045455344,170.6070045455344,0,0,0,-54.73366974520569,161.58890864234078Z" fill-rule="evenodd" style="fill: #1DC690; stroke: #fff; opacity: 1;" id="p-type-logs"></path><path d="M-64.52241247492768,186.1339794030507A197,197,0,0,1,-65.84058306311798,185.6718008258353L-57.01961753263962,160.7964962815779A170.6070045455344,170.6070045455344,0,0,0,-55.87804831674535,161.19675467053136Z" fill-rule="evenodd" style="fill: #1DC690; stroke: #fff; opacity: 1;" id="p-type-logs"></path><path d="M-65.84058306311798,185.6718008258353A197,197,0,0,1,-67.15544341375889,185.20028731052614L-58.158319998723556,160.38815359909245A170.6070045455344,170.6070045455344,0,0,0,-57.01961753263962,160.7964962815779Z" fill-rule="evenodd" style="fill: #1DC690; stroke: #fff; opacity: 1;" id="p-type-logs"></path><path d="M-67.15544341375889,185.20028731052614A197,197,0,0,1,-68.46692742020458,184.71946256319725L-59.29409846496253,159.97174715313741A170.6070045455344,170.6070045455344,0,0,0,-58.158319998723556,160.38815359909245Z" fill-rule="evenodd" style="fill: #1DC690; stroke: #fff; opacity: 1;" id="p-type-logs"></path><path d="M-68.46692742020458,184.71946256319725A197,197,0,0,1,-69.77496914556022,184.2293507580595L-60.42689582833054,159.54729787919345A170.6070045455344,170.6070045455344,0,0,0,-59.29409846496253,159.97174715313741Z" fill-rule="evenodd" style="fill: #1DC690; stroke: #fff; opacity: 1;" id="p-type-logs"></path><path d="M-69.77496914556022,184.2293507580595A197,197,0,0,1,-71.07950282599694,183.72997653624486L-61.55665513568115,159.1148271171069A170.6070045455344,170.6070045455344,0,0,0,-60.42689582833054,159.54729787919345Z" fill-rule="evenodd" style="fill: #1DC690; stroke: #fff; opacity: 1;" id="p-type-logs"></path><path d="M-71.07950282599694,183.72997653624486A197,197,0,0,1,-72.38046287405832,183.22136500456782L-62.68331958661093,158.67435661001684A170.6070045455344,170.6070045455344,0,0,0,-61.55665513568115,159.1148271171069Z" fill-rule="evenodd" style="fill: #1DC690; stroke: #fff; opacity: 1;" id="p-type-logs"></path><path d="M-72.38046287405832,183.22136500456782A197,197,0,0,1,-73.67778388195782,182.7035417342628L-63.806832536315135,158.225908503262A170.6070045455344,170.6070045455344,0,0,0,-62.68331958661093,158.67435661001684Z" fill-rule="evenodd" style="fill: #1DC690; stroke: #fff; opacity: 1;" id="p-type-logs"></path><path d="M-73.67778388195782,182.7035417342628A197,197,0,0,1,-74.97140062486734,182.1765327596989L-64.92713749843566,157.76950534326724A170.6070045455344,170.6070045455344,0,0,0,-63.806832536315135,158.225908503262Z" fill-rule="evenodd" style="fill: #1DC690; stroke: #fff; opacity: 1;" id="p-type-logs"></path><path d="M-74.97140062486734,182.1765327596989A197,197,0,0,1,-76.26124806419641,181.64036457707053L-66.04417814790094,157.30517007641015A170.6070045455344,170.6070045455344,0,0,0,-64.92713749843566,157.76950534326724Z" fill-rule="evenodd" style="fill: #1DC690; stroke: #fff; opacity: 1;" id="p-type-logs"></path><path d="M-76.26124806419641,181.64036457707053A197,197,0,0,1,-77.54726135086219,181.09506414306568L-67.1578983237578,156.8329260478673A170.6070045455344,170.6070045455344,0,0,0,-66.04417814790094,157.30517007641015Z" fill-rule="evenodd" style="fill: #1DC690; stroke: #fff; opacity: 1;" id="p-type-logs"></path><path d="M-77.54726135086219,181.09506414306568A197,197,0,0,1,-78.82937582854976,180.5406588735104L-68.26824203199507,156.35279700044043A170.6070045455344,170.6070045455344,0,0,0,-67.1578983237578,156.8329260478673Z" fill-rule="evenodd" style="fill: #1DC690; stroke: #fff; opacity: 1;" id="p-type-logs"></path><path d="M-78.82937582854976,180.5406588735104A197,197,0,0,1,-80.10752703696294,179.9771766419905L-69.37515344835866,155.86480707336304A170.6070045455344,170.6070045455344,0,0,0,-68.26824203199507,156.35279700044043Z" fill-rule="evenodd" style="fill: #1DC690; stroke: #fff; opacity: 1;" id="p-type-logs"></path><path d="M-80.10752703696294,179.9771766419905A197,197,0,0,1,-81.38165071506505,179.4046457784501L-70.47857692115835,155.36898080108642A170.6070045455344,170.6070045455344,0,0,0,-69.37515344835866,155.86480707336304Z" fill-rule="evenodd" style="fill: #1DC690; stroke: #fff; opacity: 1;" id="p-type-logs"></path><path d="M-81.38165071506505,179.4046457784501A197,197,0,0,1,-82.65168280430971,178.82309506776738L-71.57845697406566,154.8653431120463A170.6070045455344,170.6070045455344,0,0,0,-70.47857692115835,155.36898080108642Z" fill-rule="evenodd" style="fill: #1DC690; stroke: #fff; opacity: 1;" id="p-type-logs"></path><path d="M-82.65168280430971,178.82309506776738A197,197,0,0,1,-83.91755945186159,178.23255374830737L-72.67473830890307,154.35391932740956A170.6070045455344,170.6070045455344,0,0,0,-71.57845697406566,154.8653431120463Z" fill-rule="evenodd" style="fill: #1DC690; stroke: #fff; opacity: 1;" id="p-type-logs"></path><path d="M-83.91755945186159,178.23255374830737A197,197,0,0,1,-85.17921701380658,177.63305151045185L-73.76736580842417,153.83473515980106A170.6070045455344,170.6070045455344,0,0,0,-72.67473830890307,154.35391932740956Z" fill-rule="evenodd" style="fill: #1DC690; stroke: #fff; opacity: 1;" id="p-type-logs"></path><path d="M-85.17921701380658,177.63305151045185A197,197,0,0,1,-86.43659205835169,177.02461849510675L-74.85628453908483,153.30781671201103A170.6070045455344,170.6070045455344,0,0,0,-73.76736580842417,153.83473515980106Z" fill-rule="evenodd" style="fill: #1DC690; stroke: #fff; opacity: 1;" id="p-type-logs"></path><path d="M-86.43659205835169,177.02461849510675A197,197,0,0,1,-87.68962136901412,176.40728529218669L-75.94143975380499,152.7731904756826A170.6070045455344,170.6070045455344,0,0,0,-74.85628453908483,153.30781671201103Z" fill-rule="evenodd" style="fill: #1DC690; stroke: #fff; opacity: 1;" id="p-type-logs"></path><path d="M-87.68962136901412,176.40728529218669A197,197,0,0,1,-88.93824194779961,175.78108293907695L-77.02277689472126,152.23088332998003A170.6070045455344,170.6070045455344,0,0,0,-75.94143975380499,152.7731904756826Z" fill-rule="evenodd" style="fill: #1DC690; stroke: #fff; opacity: 1;" id="p-type-logs"></path><path d="M-88.93824194779961,175.78108293907695A197,197,0,0,1,-90.18239101836973,175.1460429190733L-78.10024159592977,151.68092254023708A170.6070045455344,170.6070045455344,0,0,0,-77.02277689472126,152.23088332998003Z" fill-rule="evenodd" style="fill: #1DC690; stroke: #fff; opacity: 1;" id="p-type-logs"></path><path d="M-90.18239101836973,175.1460429190733A197,197,0,0,1,-91.42200602919806,174.50219715979875L-79.17377968621963,151.12333575658644A170.6070045455344,170.6070045455344,0,0,0,-78.10024159592977,151.68092254023708Z" fill-rule="evenodd" style="fill: #1DC690; stroke: #fff; opacity: 1;" id="p-type-logs"></path><path d="M-91.42200602919806,174.50219715979875A197,197,0,0,1,-92.65702465671508,173.8495780315986L-80.24333719179637,150.55815101256945A170.6070045455344,170.6070045455344,0,0,0,-79.17377968621963,151.12333575658644Z" fill-rule="evenodd" style="fill: #1DC690; stroke: #fff; opacity: 1;" id="p-type-logs"></path><path d="M-92.65702465671508,173.8495780315986A197,197,0,0,1,-93.8873848084416,173.18821834591293L-81.3088603389956,149.98539672372675A170.6070045455344,170.6070045455344,0,0,0,-80.24333719179637,150.55815101256945Z" fill-rule="evenodd" style="fill: #1DC690; stroke: #fff; opacity: 1;" id="p-type-logs"></path><path d="M-93.8873848084416,173.18821834591293A197,197,0,0,1,-95.1130246261105,172.51815135362685L-82.37029555698659,149.4051016861696A170.6070045455344,170.6070045455344,0,0,0,-81.3088603389956,149.98539672372675Z" fill-rule="evenodd" style="fill: #1DC690; stroke: #fff; opacity: 1;" id="p-type-logs"></path><path d="M-95.1130246261105,172.51815135362685A197,197,0,0,1,-96.33388248877678,171.83941074339887L-83.42758948046557,148.81729507513202A170.6070045455344,170.6070045455344,0,0,0,-82.37029555698659,149.4051016861696Z" fill-rule="evenodd" style="fill: #1DC690; stroke: #fff; opacity: 1;" id="p-type-logs"></path><path d="M-96.33388248877678,171.83941074339887A197,197,0,0,1,-97.5498970159157,171.1520306399671L-84.48068895233881,148.2220064435041A170.6070045455344,170.6070045455344,0,0,0,-83.42758948046557,148.81729507513202Z" fill-rule="evenodd" style="fill: #1DC690; stroke: #fff; opacity: 1;" id="p-type-logs"></path><path d="M-97.5498970159157,171.1520306399671A197,197,0,0,1,-98.7610070705087,170.45604560243362L-85.5295410263951,147.61926572034628A170.6070045455344,170.6070045455344,0,0,0,-84.48068895233881,148.2220064435041Z" fill-rule="evenodd" style="fill: #1DC690; stroke: #fff; opacity: 1;" id="p-type-logs"></path><path d="M-98.7610070705087,170.45604560243362A197,197,0,0,1,-99.9671517621172,169.7514906225269L-86.5740929699678,147.0091032093842A170.6070045455344,170.6070045455344,0,0,0,-85.5295410263951,147.61926572034628Z" fill-rule="evenodd" style="fill: #1DC690; stroke: #fff; opacity: 1;" id="p-type-logs"></path><path d="M-99.9671517621172,169.7514906225269A197,197,0,0,1,-101.16827044994395,169.03840112284252L-87.614292266586,146.3915495874856A170.6070045455344,170.6070045455344,0,0,0,-86.5740929699678,147.0091032093842Z" fill-rule="evenodd" style="fill: #1DC690; stroke: #fff; opacity: 1;" id="p-type-logs"></path><path d="M-101.16827044994395,169.03840112284252A197,197,0,0,1,-102.36430274588182,168.31681295506237L-88.65008661861482,145.7666359031177A170.6070045455344,170.6070045455344,0,0,0,-87.614292266586,146.3915495874856Z" fill-rule="evenodd" style="fill: #1DC690; stroke: #fff; opacity: 1;" id="p-type-logs"></path><path d="M-102.36430274588182,168.31681295506237A197,197,0,0,1,-103.55518851755002,167.58676239815208L-89.68142394988492,145.13439357478643A170.6070045455344,170.6070045455344,0,0,0,-88.65008661861482,145.7666359031177Z" fill-rule="evenodd" style="fill: #1DC690; stroke: #fff; opacity: 1;" id="p-type-logs"></path><path d="M-103.55518851755002,167.58676239815208A197,197,0,0,1,-104.74086789131714,166.848286156537L-90.70825240831046,144.4948543894565A170.6070045455344,170.6070045455344,0,0,0,-89.68142394988492,145.13439357478643Z" fill-rule="evenodd" style="fill: #1DC690; stroke: #fff; opacity: 1;" id="p-type-logs"></path><path d="M-104.74086789131714,166.848286156537A197,197,0,0,1,-105.92128125531158,166.10142135825683L-91.7305203684963,143.84805050095355A170.6070045455344,170.6070045455344,0,0,0,-90.70825240831046,144.4948543894565Z" fill-rule="evenodd" style="fill: #1DC690; stroke: #fff; opacity: 1;" id="p-type-logs"></path><path d="M-105.92128125531158,166.10142135825683A197,197,0,0,1,-107.09636926241858,165.34620555309905L-92.74817643433339,143.1940144283474A170.6070045455344,170.6070045455344,0,0,0,-91.7305203684963,143.84805050095355Z" fill-rule="evenodd" style="fill: #1DC690; stroke: #fff; opacity: 1;" id="p-type-logs"></path><path d="M-107.09636926241858,165.34620555309905A197,197,0,0,1,-108.26607283326388,164.58267671071098L-93.76116944158278,142.5327790543172A170.6070045455344,170.6070045455344,0,0,0,-92.74817643433339,143.1940144283474Z" fill-rule="evenodd" style="fill: #1DC690; stroke: #fff; opacity: 1;" id="p-type-logs"></path><path d="M-108.26607283326388,164.58267671071098A197,197,0,0,1,-109.43033315918416,163.8108732186907L-94.7694484604481,141.8643776234981A170.6070045455344,170.6070045455344,0,0,0,-93.76116944158278,142.5327790543172Z" fill-rule="evenodd" style="fill: #1DC690; stroke: #fff; opacity: 1;" id="p-type-logs"></path><path d="M-109.43033315918416,163.8108732186907A197,197,0,0,1,-110.58909170518375,163.03083388065724L-95.77296279813608,141.18884374080992A170.6070045455344,170.6070045455344,0,0,0,-94.7694484604481,141.8643776234981Z" fill-rule="evenodd" style="fill: #1DC690; stroke: #fff; opacity: 1;" id="p-type-logs"></path><path d="M-110.58909170518375,163.03083388065724A197,197,0,0,1,-111.74229021287742,162.24259791429955L-96.77166200140509,140.50621136976758A170.6070045455344,170.6070045455344,0,0,0,-95.77296279813608,141.18884374080992Z" fill-rule="evenodd" style="fill: #1DC690; stroke: #fff; opacity: 1;" id="p-type-logs"></path><path d="M-111.74229021287742,162.24259791429955A197,197,0,0,1,-112.88987070341953,161.4462049494048L-97.76549585910197,139.8165148307735A170.6070045455344,170.6070045455344,0,0,0,-96.77166200140509,140.50621136976758Z" fill-rule="evenodd" style="fill: #1DC690; stroke: #fff; opacity: 1;" id="p-type-logs"></path><path d="M-112.88987070341953,161.4462049494048A197,197,0,0,1,-114.031775480419,160.64169502586589L-98.75441440468632,139.11978879939215A170.6070045455344,170.6070045455344,0,0,0,-97.76549585910197,139.8165148307735Z" fill-rule="evenodd" style="fill: #1DC690; stroke: #fff; opacity: 1;" id="p-type-logs"></path><path d="M-114.031775480419,160.64169502586589A197,197,0,0,1,-115.16794713284004,159.8291085916685L-99.73836791874267,138.4160683046066A170.6070045455344,170.6070045455344,0,0,0,-98.75441440468632,139.11978879939215Z" fill-rule="evenodd" style="fill: #1DC690; stroke: #fff; opacity: 1;" id="p-type-logs"></path><path d="M-115.16794713284004,159.8291085916685A197,197,0,0,1,-116.29832853788857,159.00848650085734L-100.71730693148025,137.70538872705745A170.6070045455344,170.6070045455344,0,0,0,-99.73836791874267,138.4160683046066Z" fill-rule="evenodd" style="fill: #1DC690; stroke: #fff; opacity: 1;" id="p-type-logs"></path><path d="M-116.29832853788857,159.00848650085734A197,197,0,0,1,-117.42286286388422,158.1798700114823L-101.6911822252201,136.987785797264A170.6070045455344,170.6070045455344,0,0,0,-100.71730693148025,137.70538872705745Z" fill-rule="evenodd" style="fill: #1DC690; stroke: #fff; opacity: 1;" id="p-type-logs"></path><path d="M-117.42286286388422,158.1798700114823A197,197,0,0,1,-118.54149357311762,157.34330078352403L-102.65994483686963,136.26329559382776A170.6070045455344,170.6070045455344,0,0,0,-101.6911822252201,136.987785797264Z" fill-rule="evenodd" style="fill: #1DC690; stroke: #fff; opacity: 1;" id="p-type-logs"></path><path d="M-118.54149357311762,157.34330078352403A197,197,0,0,1,-119.6541644246929,156.49882087679947L-103.62354606038427,135.53195454161877A170.6070045455344,170.6070045455344,0,0,0,-102.65994483686963,136.26329559382776Z" fill-rule="evenodd" style="fill: #1DC690; stroke: #fff; opacity: 1;" id="p-type-logs"></path><path d="M-119.6541644246929,156.49882087679947A197,197,0,0,1,-120.76081947735518,155.64647274884717L-104.58193744921623,134.793799409944A170.6070045455344,170.6070045455344,0,0,0,-103.62354606038427,135.53195454161877Z" fill-rule="evenodd" style="fill: #1DC690; stroke: #fff; opacity: 1;" id="p-type-logs"></path><path d="M-120.76081947735518,155.64647274884717A197,197,0,0,1,-121.86140309230339,154.78629925279287L-105.53507081875028,134.0488673106989A170.6070045455344,170.6070045455344,0,0,0,-104.58193744921623,134.793799409944Z" fill-rule="evenodd" style="fill: #1DC690; stroke: #fff; opacity: 1;" id="p-type-logs"></path><path d="M-121.86140309230339,154.78629925279287A197,197,0,0,1,-122.95585993598728,153.91834363519467L-106.48289824872626,133.29719569650146A170.6070045455344,170.6070045455344,0,0,0,-105.53507081875028,134.0488673106989Z" fill-rule="evenodd" style="fill: #1DC690; stroke: #fff; opacity: 1;" id="p-type-logs"></path><path d="M-122.95585993598728,153.91834363519467A197,197,0,0,1,-124.04413498288959,153.04264953386902L-107.42537208564836,132.53882235880926A170.6070045455344,170.6070045455344,0,0,0,-106.48289824872626,133.29719569650146Z" fill-rule="evenodd" style="fill: #1DC690; stroke: #fff; opacity: 1;" id="p-type-logs"></path><path d="M-124.04413498288959,153.04264953386902A197,197,0,0,1,-125.12617351829249,152.15926097569667L-108.36244494518098,131.77378542601946A170.6070045455344,170.6070045455344,0,0,0,-107.42537208564836,132.53882235880926Z" fill-rule="evenodd" style="fill: #1DC690; stroke: #fff; opacity: 1;" id="p-type-logs"></path><path d="M-125.12617351829249,152.15926097569667A197,197,0,0,1,-126.20192114102844,151.26822237440896L-109.29406971453103,131.00212336155178A170.6070045455344,170.6070045455344,0,0,0,-108.36244494518098,131.77378542601946Z" fill-rule="evenodd" style="fill: #1DC690; stroke: #fff; opacity: 1;" id="p-type-logs"></path><path d="M-126.20192114102844,151.26822237440896A197,197,0,0,1,-127.2713237662153,150.36957852835528L-110.22019955481663,130.22387496191473A170.6070045455344,170.6070045455344,0,0,0,-109.29406971453103,131.00212336155178Z" fill-rule="evenodd" style="fill: #1DC690; stroke: #fff; opacity: 1;" id="p-type-logs"></path><path d="M-127.2713237662153,150.36957852835528A197,197,0,0,1,-128.33432762797557,149.4633746182503L-111.14078790342197,129.43907935475505A170.6070045455344,170.6070045455344,0,0,0,-110.22019955481663,130.22387496191473Z" fill-rule="evenodd" style="fill: #1DC690; stroke: #fff; opacity: 1;" id="p-type-logs"></path><path d="M-128.33432762797557,149.4633746182503A197,197,0,0,1,-129.39087928213945,148.5496562049028L-112.05578847633836,128.6477759968905A170.6070045455344,170.6070045455344,0,0,0,-111.14078790342197,129.43907935475505Z" fill-rule="evenodd" style="fill: #1DC690; stroke: #fff; opacity: 1;" id="p-type-logs"></path><path d="M-182.48739562850733,74.21152495889467A197,197,0,0,1,-187.28648631391258,61.096415968439885L-162.1948549333749,52.91104830885017A170.6070045455344,170.6070045455344,0,0,0,-158.03872048474867,64.2690658679857Z" fill-rule="evenodd" style="fill: #D7A449; stroke: #fff; opacity: 1;" id="p-type-tokenTransfers"></path><path d="M-187.28648631391258,61.096415968439885A197,197,0,0,1,-187.71498553951741,59.76691562979276L-162.56594614825062,51.75966724124176A170.6070045455344,170.6070045455344,0,0,0,-162.1948549333749,52.91104830885017Z" fill-rule="evenodd" style="fill: #D7A449; stroke: #fff; opacity: 1;" id="p-type-tokenTransfers"></path><path d="M-187.71498553951741,59.76691562979276A197,197,0,0,1,-188.13404710274432,58.434410416657535L-162.92886410775475,50.605683875991446A170.6070045455344,170.6070045455344,0,0,0,-162.56594614825062,51.75966724124176Z" fill-rule="evenodd" style="fill: #D7A449; stroke: #fff; opacity: 1;" id="p-type-tokenTransfers"></path><path d="M-188.13404710274432,58.434410416657535A197,197,0,0,1,-188.54364993462255,57.09896732280287L-163.28359056562334,49.44915623140482A170.6070045455344,170.6070045455344,0,0,0,-162.92886410775475,50.605683875991446Z" fill-rule="evenodd" style="fill: #D7A449; stroke: #fff; opacity: 1;" id="p-type-tokenTransfers"></path><path d="M-188.54364993462255,57.09896732280287A197,197,0,0,1,-188.9437734417336,55.76065348970397L-163.63010768743285,48.290142453705045A170.6070045455344,170.6070045455344,0,0,0,-163.28359056562334,49.44915623140482Z" fill-rule="evenodd" style="fill: #D7A449; stroke: #fff; opacity: 1;" id="p-type-tokenTransfers"></path><path d="M-188.9437734417336,55.76065348970397A197,197,0,0,1,-189.33439750724696,54.4195362031669L-163.96839805149696,47.128700814109486A170.6070045455344,170.6070045455344,0,0,0,-163.63010768743285,48.290142453705045Z" fill-rule="evenodd" style="fill: #D7A449; stroke: #fff; opacity: 1;" id="p-type-tokenTransfers"></path><path d="M-189.33439750724696,54.4195362031669A197,197,0,0,1,-189.71550249193115,53.07568288994568L-164.29844464974235,45.96488970590003A170.6070045455344,170.6070045455344,0,0,0,-163.96839805149696,47.128700814109486Z" fill-rule="evenodd" style="fill: #D7A449; stroke: #fff; opacity: 1;" id="p-type-tokenTransfers"></path><path d="M-189.71550249193115,53.07568288994568A197,197,0,0,1,-190.08706923514123,51.72916111435236L-164.62023088856373,44.79876764148728A170.6070045455344,170.6070045455344,0,0,0,-164.29844464974235,45.96488970590003Z" fill-rule="evenodd" style="fill: #D7A449; stroke: #fff; opacity: 1;" id="p-type-tokenTransfers"></path><path d="M-190.08706923514123,51.72916111435236A197,197,0,0,1,-190.4490790557823,50.38003857486005L-164.93374058965833,43.63039324946877A170.6070045455344,170.6070045455344,0,0,0,-164.62023088856373,44.79876764148728Z" fill-rule="evenodd" style="fill: #D7A449; stroke: #fff; opacity: 1;" id="p-type-tokenTransfers"></path><path d="M-190.4490790557823,50.38003857486005A197,197,0,0,1,-190.80151375324846,49.028383100699315L-165.2389579908391,42.45982527168127A170.6070045455344,170.6070045455344,0,0,0,-164.93374058965833,43.63039324946877Z" fill-rule="evenodd" style="fill: #D7A449; stroke: #fff; opacity: 1;" id="p-type-tokenTransfers"></path><path d="M-190.80151375324846,49.028383100699315A197,197,0,0,1,-191.14435560833806,47.67426264844794L-165.5358677468273,41.28712256024751A170.6070045455344,170.6070045455344,0,0,0,-165.2389579908391,42.45982527168127Z" fill-rule="evenodd" style="fill: #D7A449; stroke: #fff; opacity: 1;" id="p-type-tokenTransfers"></path><path d="M-191.14435560833806,47.67426264844794A197,197,0,0,1,-191.4775873841445,46.31774529861432L-165.82445493002388,40.11234407461725A170.6070045455344,170.6070045455344,0,0,0,-165.5358677468273,41.28712256024751Z" fill-rule="evenodd" style="fill: #D7A449; stroke: #fff; opacity: 1;" id="p-type-tokenTransfers"></path><path d="M-191.4775873841445,46.31774529861432A197,197,0,0,1,-191.80119232692277,44.95889925221457L-166.10470503126007,38.93554887860302A170.6070045455344,170.6070045455344,0,0,0,-165.82445493002388,40.11234407461725Z" fill-rule="evenodd" style="fill: #D7A449; stroke: #fff; opacity: 1;" id="p-type-tokenTransfers"></path><path d="M-191.80119232692277,44.95889925221457A197,197,0,0,1,-192.11515416693192,43.59779282734368L-166.3766039605269,37.75679613741062A170.6070045455344,170.6070045455344,0,0,0,-166.10470503126007,38.93554887860302Z" fill-rule="evenodd" style="fill: #D7A449; stroke: #fff; opacity: 1;" id="p-type-tokenTransfers"></path><path d="M-192.11515416693192,43.59779282734368A197,197,0,0,1,-192.4194571192529,42.23449445574065L-166.64013804768348,36.576145114664435A170.6070045455344,170.6070045455344,0,0,0,-166.3766039605269,37.75679613741062Z" fill-rule="evenodd" style="fill: #D7A449; stroke: #fff; opacity: 1;" id="p-type-tokenTransfers"></path><path d="M-192.4194571192529,42.23449445574065A197,197,0,0,1,-192.71408588458232,40.869072679348015L-166.8952940431444,35.39365516942794A170.6070045455344,170.6070045455344,0,0,0,-166.64013804768348,36.576145114664435Z" fill-rule="evenodd" style="fill: #D7A449; stroke: #fff; opacity: 1;" id="p-type-tokenTransfers"></path><path d="M-192.71408588458232,40.869072679348015A197,197,0,0,1,-192.99902565000144,39.501596146865786L-167.14205911854575,34.209385753219266A170.6070045455344,170.6070045455344,0,0,0,-166.8952940431444,35.39365516942794Z" fill-rule="evenodd" style="fill: #D7A449; stroke: #fff; opacity: 1;" id="p-type-tokenTransfers"></path><path d="M-192.99902565000144,39.501596146865786A197,197,0,0,1,-193.27426208972116,38.13213361030001L-167.3804208673902,33.02339640702223A170.6070045455344,170.6070045455344,0,0,0,-167.14205911854575,34.209385753219266Z" fill-rule="evenodd" style="fill: #D7A449; stroke: #fff; opacity: 1;" id="p-type-tokenTransfers"></path><path d="M-193.27426208972116,38.13213361030001A197,197,0,0,1,-193.53978136580207,36.76075392150619L-167.6103673056707,31.835746758292785A170.6070045455344,170.6070045455344,0,0,0,-167.3804208673902,33.02339640702223Z" fill-rule="evenodd" style="fill: #D7A449; stroke: #fff; opacity: 1;" id="p-type-tokenTransfers"></path><path d="M-193.53978136580207,36.76075392150619A197,197,0,0,1,-193.79557012885027,35.38752602872764L-167.83188687247306,30.646496517961186A170.6070045455344,170.6070045455344,0,0,0,-167.6103673056707,31.835746758292785Z" fill-rule="evenodd" style="fill: #D7A449; stroke: #fff; opacity: 1;" id="p-type-tokenTransfers"></path><path d="M-193.79557012885027,35.38752602872764A197,197,0,0,1,-194.04161551868853,34.012518973128984L-168.04496843055702,29.45570547742991A170.6070045455344,170.6070045455344,0,0,0,-167.83188687247306,30.646496517961186Z" fill-rule="evenodd" style="fill: #D7A449; stroke: #fff; opacity: 1;" id="p-type-tokenTransfers"></path><path d="M-194.04161551868853,34.012518973128984A197,197,0,0,1,-194.27790516500278,32.63580188532502L-168.24960126691641,28.263433505567544A170.6070045455344,170.6070045455344,0,0,0,-168.04496843055702,29.45570547742991Z" fill-rule="evenodd" style="fill: #D7A449; stroke: #fff; opacity: 1;" id="p-type-tokenTransfers"></path><path d="M-194.27790516500278,32.63580188532502A197,197,0,0,1,-194.50442718796418,31.257443981905073L-168.44577509331762,27.069740545698814A170.6070045455344,170.6070045455344,0,0,0,-168.24960126691641,28.263433505567544Z" fill-rule="evenodd" style="fill: #D7A449; stroke: #fff; opacity: 1;" id="p-type-tokenTransfers"></path><path d="M-194.50442718796418,31.257443981905073A197,197,0,0,1,-194.72117019882631,29.877514561953035L-168.63348004681694,25.87468661259082A170.6070045455344,170.6070045455344,0,0,0,-168.44577509331762,27.069740545698814Z" fill-rule="evenodd" style="fill: #D7A449; stroke: #fff; opacity: 1;" id="p-type-tokenTransfers"></path><path d="M-194.72117019882631,29.877514561953035A197,197,0,0,1,-194.9281233004977,28.49608300356321L-168.81270669025636,24.67833178943571A170.6070045455344,170.6070045455344,0,0,0,-168.63348004681694,25.87468661259082Z" fill-rule="evenodd" style="fill: #D7A449; stroke: #fff; opacity: 1;" id="p-type-tokenTransfers"></path><path d="M-194.9281233004977,28.49608300356321A197,197,0,0,1,-195.12527608808983,27.11321876035226L-168.98344601273806,23.480736224829883A170.6070045455344,170.6070045455344,0,0,0,-168.81270669025636,24.67833178943571Z" fill-rule="evenodd" style="fill: #D7A449; stroke: #fff; opacity: 1;" id="p-type-tokenTransfers"></path><path d="M-195.12527608808983,27.11321876035226A197,197,0,0,1,-195.31261864944017,25.728991357967292L-169.1456894300775,22.281960129749955A170.6070045455344,170.6070045455344,0,0,0,-168.98344601273806,23.480736224829883Z" fill-rule="evenodd" style="fill: #D7A449; stroke: #fff; opacity: 1;" id="p-type-tokenTransfers"></path><path d="M-195.31261864944017,25.728991357967292A197,197,0,0,1,-195.49014156561054,24.343470390590355L-169.29942878523494,21.082063774525537A170.6070045455344,170.6070045455344,0,0,0,-169.1456894300775,22.281960129749955Z" fill-rule="evenodd" style="fill: #D7A449; stroke: #fff; opacity: 1;" id="p-type-tokenTransfers"></path><path d="M-195.49014156561054,24.343470390590355A197,197,0,0,1,-195.6578359113607,22.9567255174395L-169.44465634872557,19.881107485809068A170.6070045455344,170.6070045455344,0,0,0,-169.29942878523494,21.082063774525537Z" fill-rule="evenodd" style="fill: #D7A449; stroke: #fff; opacity: 1;" id="p-type-tokenTransfers"></path><path d="M-195.6578359113607,22.9567255174395A197,197,0,0,1,-195.81569325559695,21.568826459266532L-169.58136481900814,18.67915164354278A170.6070045455344,170.6070045455344,0,0,0,-169.44465634872557,19.881107485809068Z" fill-rule="evenodd" style="fill: #D7A449; stroke: #fff; opacity: 1;" id="p-type-tokenTransfers"></path><path d="M-195.81569325559695,21.568826459266532A197,197,0,0,1,-195.9637056617963,20.179842994851697L-169.70954732285202,17.476256677923015A170.6070045455344,170.6070045455344,0,0,0,-169.58136481900814,18.67915164354278Z" fill-rule="evenodd" style="fill: #D7A449; stroke: #fff; opacity: 1;" id="p-type-tokenTransfers"></path><path d="M-195.9637056617963,20.179842994851697A197,197,0,0,1,-196.10186568840513,18.789844957495458L-169.82919741568278,16.272483066362003A170.6070045455344,170.6070045455344,0,0,0,-169.70954732285202,17.476256677923015Z" fill-rule="evenodd" style="fill: #D7A449; stroke: #fff; opacity: 1;" id="p-type-tokenTransfers"></path><path d="M-196.10186568840513,18.789844957495458A197,197,0,0,1,-196.23016638921357,17.398902231507503L-169.94030908190626,15.067891330447255A170.6070045455344,170.6070045455344,0,0,0,-169.82919741568278,16.272483066362003Z" fill-rule="evenodd" style="fill: #D7A449; stroke: #fff; opacity: 1;" id="p-type-tokenTransfers"></path><path d="M-196.23016638921357,17.398902231507503A197,197,0,0,1,-196.34860131370468,16.007084748693202L-170.04287673521085,13.86254203289876A170.6070045455344,170.6070045455344,0,0,0,-169.94030908190626,15.067891330447255Z" fill-rule="evenodd" style="fill: #D7A449; stroke: #fff; opacity: 1;" id="p-type-tokenTransfers"></path><path d="M-196.34860131370468,16.007084748693202A197,197,0,0,1,-196.45716450737874,14.614462484837693L-170.13689521884854,12.656495774524092A170.6070045455344,170.6070045455344,0,0,0,-170.04287673521085,13.86254203289876Z" fill-rule="evenodd" style="fill: #D7A449; stroke: #fff; opacity: 1;" id="p-type-tokenTransfers"></path><path d="M-196.45716450737874,14.614462484837693A197,197,0,0,1,-196.5558505120526,13.221105456187727L-170.22235980589411,11.449813191171621A170.6070045455344,170.6070045455344,0,0,0,-170.13689521884854,12.656495774524092Z" fill-rule="evenodd" style="fill: #D7A449; stroke: #fff; opacity: 1;" id="p-type-tokenTransfers"></path><path d="M-196.5558505120526,13.221105456187727A197,197,0,0,1,-196.64465436613412,11.827083715931494L-170.29926619948267,10.242554950681932A170.6070045455344,170.6070045455344,0,0,0,-170.22235980589411,11.449813191171621Z" fill-rule="evenodd" style="fill: #D7A449; stroke: #fff; opacity: 1;" id="p-type-tokenTransfers"></path><path d="M-196.64465436613412,11.827083715931494A197,197,0,0,1,-196.72357160487167,10.432467350676594L-170.3676105330259,9.03478174983767A170.6070045455344,170.6070045455344,0,0,0,-170.29926619948267,10.242554950681932Z" fill-rule="evenodd" style="fill: #D7A449; stroke: #fff; opacity: 1;" id="p-type-tokenTransfers"></path><path d="M-196.72357160487167,10.432467350676594A197,197,0,0,1,-196.7925982605785,9.03732647692632L-170.42738937040633,7.826554311311916A170.6070045455344,170.6070045455344,0,0,0,-170.3676105330259,9.03478174983767Z" fill-rule="evenodd" style="fill: #D7A449; stroke: #fff; opacity: 1;" id="p-type-tokenTransfers"></path><path d="M-196.7925982605785,9.03732647692632A197,197,0,0,1,-196.85173086283234,7.641731237554447L-170.47859970615002,6.6179333806152485A170.6070045455344,170.6070045455344,0,0,0,-170.42738937040633,7.826554311311916Z" fill-rule="evenodd" style="fill: #D7A449; stroke: #fff; opacity: 1;" id="p-type-tokenTransfers"></path><path d="M-196.85173086283234,7.641731237554447A197,197,0,0,1,-196.9009664386498,6.245751798278685L-170.52123896557788,5.408979723041682A170.6070045455344,170.6070045455344,0,0,0,-170.47859970615002,6.6179333806152485Z" fill-rule="evenodd" style="fill: #D7A449; stroke: #fff; opacity: 1;" id="p-type-tokenTransfers"></path><path d="M-196.9009664386498,6.245751798278685A197,197,0,0,1,-196.94030251263584,4.849458344132991L-170.55530500493495,4.199754120613589A170.6070045455344,170.6070045455344,0,0,0,-170.52123896557788,5.408979723041682Z" fill-rule="evenodd" style="fill: #D7A449; stroke: #fff; opacity: 1;" id="p-type-tokenTransfers"></path><path d="M-196.94030251263584,4.849458344132991A197,197,0,0,1,-196.96973710710827,3.4529210759389075L-170.58079611149816,2.990317369025791A170.6070045455344,170.6070045455344,0,0,0,-170.55530500493495,4.199754120613589Z" fill-rule="evenodd" style="fill: #D7A449; stroke: #fff; opacity: 1;" id="p-type-tokenTransfers"></path><path d="M-196.96973710710827,3.4529210759389075A197,197,0,0,1,-196.9892687421971,2.0562102067761074L-170.59771100366254,1.7807302745889626A170.6070045455344,170.6070045455344,0,0,0,-170.58079611149816,2.990317369025791Z" fill-rule="evenodd" style="fill: #D7A449; stroke: #fff; opacity: 1;" id="p-type-tokenTransfers"></path><path d="M-196.9892687421971,2.0562102067761074A197,197,0,0,1,-196.99889643591908,0.6593959584523214L-170.60604883100564,0.5710536511724985A170.6070045455344,170.6070045455344,0,0,0,-170.59771100366254,1.7807302745889626Z" fill-rule="evenodd" style="fill: #D7A449; stroke: #fff; opacity: 1;" id="p-type-tokenTransfers"></path></g></svg>