<svg xmlns="http://www.w3.org/2000/svg" width="400" height="400" id="block-7908305"><g id="burst-container" transform="translate(200,200)"><circle r="197" style="fill: #f9f9f9; stroke: #f9f9f9; stroke-width: 3; opacity: 1;" id="circle-base"></circle><path display="none" d="M6.031385485800715e-15,-98.5A98.5,98.5,0,1,1,-6.031385485800715e-15,98.5A98.5,98.5,0,1,1,6.031385485800715e-15,-98.5Z" fill-rule="evenodd" id="p-type-root" style="stroke: #fff; opacity: 1;"></path><path d="M8.529667153919608e-15,-139.30003589374985A139.30003589374985,139.30003589374985,0,1,1,-133.573563549147,-39.52977511676464L-94.45077257285409,-27.95177204384353A98.5,98.5,0,1,0,6.031385485800715e-15,-98.5Z" fill-rule="evenodd" style="fill: #0B1F65; stroke: #fff; opacity: 1;" id="p-type-data"></path><path d="M-133.573563549147,-39.52977511676464A139.30003589374985,139.30003589374985,0,0,1,-3.5388562090246785,-139.25507709499084L-2.5023492230454685,-98.4682093285235A98.5,98.5,0,0,0,-94.45077257285409,-27.95177204384353Z" fill-rule="evenodd" style="fill: #D7A449; stroke: #fff; opacity: 1;" id="p-type-value"></path><path d="M1.0446666101440332e-14,-170.6070045455344A170.6070045455344,170.6070045455344,0,0,1,169.32683875878004,-20.860768824712615L138.25478490584425,-17.032746420901546A139.30003589374985,139.30003589374985,0,0,0,8.529667153919608e-15,-139.30003589374985Z" fill-rule="evenodd" style="fill: #1DC690; stroke: #fff; opacity: 1;" id="p-type-logs"></path><path d="M169.32683875878004,-20.860768824712615A170.6070045455344,170.6070045455344,0,0,1,88.07563910124759,146.11444759813037L71.91345818919298,119.30194688801683A139.30003589374985,139.30003589374985,0,0,0,138.25478490584425,-17.032746420901546Z" fill-rule="evenodd" style="fill: #414552; stroke: #fff; opacity: 1;" id="p-type-ether"></path><path d="M88.07563910124759,146.11444759813037A170.6070045455344,170.6070045455344,0,0,1,-49.76150444398715,163.18867201944823L-40.63009824033535,133.24299275001553A139.30003589374985,139.30003589374985,0,0,0,71.91345818919298,119.30194688801683Z" fill-rule="evenodd" style="fill: #D7A449; stroke: #fff; opacity: 1;" id="p-type-tokenTransfers"></path><path d="M-163.5935369103163,-48.41388934152035A170.6070045455344,170.6070045455344,0,0,1,-77.27088722825141,-152.1050952038059L-63.091415227119164,-124.19329017559376A139.30003589374985,139.30003589374985,0,0,0,-133.573563549147,-39.52977511676464Z" fill-rule="evenodd" style="fill: #414552; stroke: #fff; opacity: 1;" id="p-type-ether"></path><path d="M-77.27088722825141,-152.1050952038059A170.6070045455344,170.6070045455344,0,0,1,-8.665594279587989,-170.38678785569488L-7.075428100990453,-139.12022971943264A139.30003589374985,139.30003589374985,0,0,0,-63.091415227119164,-124.19329017559376Z" fill-rule="evenodd" style="fill: #D7A449; stroke: #fff; opacity: 1;" id="p-type-tokenTransfers"></path><path d="M1.206277097160143e-14,-197A197,197,0,0,1,2.502551154495935,-196.98410402293666L2.1672728740635554,-170.59323822557957A170.6070045455344,170.6070045455344,0,0,0,1.0446666101440332e-14,-170.6070045455344Z" fill-rule="evenodd" style="fill: #1DC690; stroke: #fff; opacity: 1;" id="p-type-logs"></path><path d="M2.502551154495935,-196.98410402293666A197,197,0,0,1,5.004698446090826,-196.936418657047L4.33419599259516,-170.5519414873304A170.6070045455344,170.6070045455344,0,0,0,2.1672728740635554,-170.59323822557957Z" fill-rule="evenodd" style="fill: #1DC690; stroke: #fff; opacity: 1;" id="p-type-logs"></path><path d="M5.004698446090826,-196.936418657047A197,197,0,0,1,7.506038077059238,-196.85695159781818L6.500419656506598,-170.4831209952742A170.6070045455344,170.6070045455344,0,0,0,4.33419599259516,-170.5519414873304Z" fill-rule="evenodd" style="fill: #1DC690; stroke: #fff; opacity: 1;" id="p-type-logs"></path><path d="M7.506038077059238,-196.85695159781818A197,197,0,0,1,10.006166380016344,-196.7457156696822L8.665594279587928,-170.38678785569488A170.6070045455344,170.6070045455344,0,0,0,6.500419656506598,-170.4831209952742Z" fill-rule="evenodd" style="fill: #1DC690; stroke: #fff; opacity: 1;" id="p-type-logs"></path><path d="M10.006166380016344,-196.7457156696822A197,197,0,0,1,12.504679883062138,-196.60272882394622L10.829370444924034,-170.26295761488052A170.6070045455344,170.6070045455344,0,0,0,8.665594279587928,-170.38678785569488Z" fill-rule="evenodd" style="fill: #1DC690; stroke: #fff; opacity: 1;" id="p-type-logs"></path><path d="M12.504679883062138,-196.60272882394622A197,197,0,0,1,15.00117537489366,-196.4280141358958L12.991398961283458,-170.11165025661458A170.6070045455344,170.6070045455344,0,0,0,10.829370444924034,-170.26295761488052Z" fill-rule="evenodd" style="fill: #1DC690; stroke: #fff; opacity: 1;" id="p-type-logs"></path><path d="M15.00117537489366,-196.4280141358958A197,197,0,0,1,17.495249969875612,-196.22159980107074L15.151330919471215,-169.93289019895082A170.6070045455344,170.6070045455344,0,0,0,12.991398961283458,-170.11165025661458Z" fill-rule="evenodd" style="fill: #1DC690; stroke: #fff; opacity: 1;" id="p-type-logs"></path><path d="M17.495249969875612,-196.22159980107074A197,197,0,0,1,19.986501173058194,-195.98351913071502L17.308817748635878,-169.72670629027272A170.6070045455344,170.6070045455344,0,0,0,15.151330919471215,-169.93289019895082Z" fill-rule="evenodd" style="fill: #1DC690; stroke: #fff; opacity: 1;" id="p-type-logs"></path><path d="M19.986501173058194,-195.98351913071502A197,197,0,0,1,22.474526945131906,-195.713810546401L19.463511272522105,-169.49313180463804A170.6070045455344,170.6070045455344,0,0,0,17.308817748635878,-169.72670629027272Z" fill-rule="evenodd" style="fill: #1DC690; stroke: #fff; opacity: 1;" id="p-type-logs"></path><path d="M22.474526945131906,-195.713810546401A197,197,0,0,1,24.958925767308873,-195.41251757382884L21.615063765659496,-169.23220443640884A170.6070045455344,170.6070045455344,0,0,0,19.463511272522105,-169.49313180463804Z" fill-rule="evenodd" style="fill: #1DC690; stroke: #fff; opacity: 1;" id="p-type-logs"></path><path d="M24.958925767308873,-195.41251757382884A197,197,0,0,1,27.439296706120132,-195.07968883580244L23.763128009478702,-168.94396629416846A170.6070045455344,170.6070045455344,0,0,0,21.615063765659496,-169.23220443640884Z" fill-rule="evenodd" style="fill: #1DC690; stroke: #fff; opacity: 1;" id="p-type-logs"></path><path d="M27.439296706120132,-195.07968883580244A197,197,0,0,1,29.9152394781184,-194.7153780443826L25.90735734834567,-168.62846389392604A170.6070045455344,170.6070045455344,0,0,0,23.763128009478702,-168.94396629416846Z" fill-rule="evenodd" style="fill: #1DC690; stroke: #fff; opacity: 1;" id="p-type-logs"></path><path d="M29.9152394781184,-194.7153780443826A197,197,0,0,1,32.386354514476224,-194.31964399221883L28.04740574550525,-168.28574815160968A170.6070045455344,170.6070045455344,0,0,0,25.90735734834567,-168.62846389392604Z" fill-rule="evenodd" style="fill: #1DC690; stroke: #fff; opacity: 1;" id="p-type-logs"></path><path d="M32.386354514476224,-194.31964399221883A197,197,0,0,1,34.85224302546829,-193.8925505430616L30.18292783892456,-167.9158743748496A170.6070045455344,170.6070045455344,0,0,0,28.04740574550525,-168.28574815160968Z" fill-rule="evenodd" style="fill: #1DC690; stroke: #fff; opacity: 1;" id="p-type-logs"></path><path d="M34.85224302546829,-193.8925505430616A197,197,0,0,1,37.31250706482849,-193.4341666214558L32.31357899702781,-167.51890225405262A170.6070045455344,170.6070045455344,0,0,0,30.18292783892456,-167.9158743748496Z" fill-rule="evenodd" style="fill: #1DC690; stroke: #fff; opacity: 1;" id="p-type-logs"></path><path d="M37.31250706482849,-193.4341666214558A197,197,0,0,1,39.76674959397064,-192.9445662016177L34.43901537431308,-167.09489585276933A170.6070045455344,170.6070045455344,0,0,0,32.31357899702781,-167.51890225405262Z" fill-rule="evenodd" style="fill: #1DC690; stroke: #fff; opacity: 1;" id="p-type-logs"></path><path d="M39.76674959397064,-192.9445662016177A197,197,0,0,1,42.214574546062735,-192.423828295497L36.55889396684226,-166.64392359735527A170.6070045455344,170.6070045455344,0,0,0,34.43901537431308,-167.09489585276933Z" fill-rule="evenodd" style="fill: #1DC690; stroke: #fff; opacity: 1;" id="p-type-logs"></path><path d="M42.214574546062735,-192.423828295497A197,197,0,0,1,44.65558688994445,-191.8720369400258L38.67287266759523,-166.16605826592854A170.6070045455344,170.6070045455344,0,0,0,36.55889396684226,-166.64392359735527Z" fill-rule="evenodd" style="fill: #1DC690; stroke: #fff; opacity: 1;" id="p-type-logs"></path><path d="M44.65558688994445,-191.8720369400258A197,197,0,0,1,47.08939269387737,-191.28928118355668L40.78061032167915,-165.6613769766247A170.6070045455344,170.6070045455344,0,0,0,38.67287266759523,-166.16605826592854Z" fill-rule="evenodd" style="fill: #1DC690; stroke: #fff; opacity: 1;" id="p-type-logs"></path><path d="M47.08939269387737,-191.28928118355668A197,197,0,0,1,49.51559918911807,-190.67565507149206L42.8817667813844,-165.12996117515124A170.6070045455344,170.6070045455344,0,0,0,40.78061032167915,-165.6613769766247Z" fill-rule="evenodd" style="fill: #1DC690; stroke: #fff; opacity: 1;" id="p-type-logs"></path><path d="M49.51559918911807,-190.67565507149206A197,197,0,0,1,51.933814833303046,-190.03125763110708L44.97600296107754,-164.57189662164419A170.6070045455344,170.6070045455344,0,0,0,42.8817667813844,-165.12996117515124Z" fill-rule="evenodd" style="fill: #1DC690; stroke: #fff; opacity: 1;" id="p-type-logs"></path><path d="M51.933814833303046,-190.03125763110708A197,197,0,0,1,54.343649373636225,-189.3561928555686L47.06298089192327,-163.98727337682783A170.6070045455344,170.6070045455344,0,0,0,44.97600296107754,-164.57189662164419Z" fill-rule="evenodd" style="fill: #1DC690; stroke: #fff; opacity: 1;" id="p-type-logs"></path><path d="M54.343649373636225,-189.3561928555686A197,197,0,0,1,56.74471390986808,-188.65056968715263L49.14236377642595,-163.37618578748072A170.6070045455344,170.6070045455344,0,0,0,47.06298089192327,-163.98727337682783Z" fill-rule="evenodd" style="fill: #1DC690; stroke: #fff; opacity: 1;" id="p-type-logs"></path><path d="M56.74471390986808,-188.65056968715263A197,197,0,0,1,59.136620957056465,-187.9145019996632L51.21381604278212,-162.73873247121003A170.6070045455344,170.6070045455344,0,0,0,49.14236377642595,-163.37618578748072Z" fill-rule="evenodd" style="fill: #1DC690; stroke: #fff; opacity: 1;" id="p-type-logs"></path><path d="M59.136620957056465,-187.9145019996632A197,197,0,0,1,61.518984508099344,-187.14810858005546L53.27700339903536,-162.0750163005365A170.6070045455344,170.6070045455344,0,0,0,51.21381604278212,-162.73873247121003Z" fill-rule="evenodd" style="fill: #1DC690; stroke: #fff; opacity: 1;" id="p-type-logs"></path><path d="M61.518984508099344,-187.14810858005546A197,197,0,0,1,63.89142009602851,-186.35151310926565L55.33159288702429,-161.3851443862929A170.6070045455344,170.6070045455344,0,0,0,53.27700339903536,-162.0750163005365Z" fill-rule="evenodd" style="fill: #1DC690; stroke: #fff; opacity: 1;" id="p-type-logs"></path><path d="M63.89142009602851,-186.35151310926565A197,197,0,0,1,66.25354485605519,-185.52484414225142L57.37725293611561,-160.66922806033833A170.6070045455344,170.6070045455344,0,0,0,55.33159288702429,-161.3851443862929Z" fill-rule="evenodd" style="fill: #1DC690; stroke: #fff; opacity: 1;" id="p-type-logs"></path><path d="M66.25354485605519,-185.52484414225142A197,197,0,0,1,68.60497758735707,-184.66823508724568L59.413653416713274,-159.92738285759157A170.6070045455344,170.6070045455344,0,0,0,57.37725293611561,-160.66922806033833Z" fill-rule="evenodd" style="fill: #1DC690; stroke: #fff; opacity: 1;" id="p-type-logs"></path><path d="M68.60497758735707,-184.66823508724568A197,197,0,0,1,70.94533881459643,-183.781824184227L61.44046569353467,-159.15972849738588A170.6070045455344,170.6070045455344,0,0,0,59.413653416713274,-159.92738285759157Z" fill-rule="evenodd" style="fill: #1DC690; stroke: #fff; opacity: 1;" id="p-type-logs"></path><path d="M70.94533881459643,-183.781824184227A197,197,0,0,1,73.27425084916017,-182.8657544826104L63.45736267864618,-158.36638886414872A170.6070045455344,170.6070045455344,0,0,0,61.44046569353467,-159.15972849738588Z" fill-rule="evenodd" style="fill: #1DC690; stroke: #fff; opacity: 1;" id="p-type-logs"></path><path d="M73.27425084916017,-182.8657544826104A197,197,0,0,1,75.59133785011139,-181.9201738181621L65.46401888424863,-157.5474919874091A170.6070045455344,170.6070045455344,0,0,0,63.45736267864618,-158.36638886414872Z" fill-rule="evenodd" style="fill: #1DC690; stroke: #fff; opacity: 1;" id="p-type-logs"></path><path d="M75.59133785011139,-181.9201738181621A197,197,0,0,1,77.89622588484276,-180.94523478914152L67.46011047520479,-156.70317002113634A170.6070045455344,170.6070045455344,0,0,0,65.46401888424863,-157.5474919874091Z" fill-rule="evenodd" style="fill: #1DC690; stroke: #fff; opacity: 1;" id="p-type-logs"></path><path d="M77.89622588484276,-180.94523478914152A197,197,0,0,1,80.18854298942203,-179.94109473167492L69.44531532130003,-155.8335592224127A170.6070045455344,170.6070045455344,0,0,0,67.46011047520479,-156.70317002113634Z" fill-rule="evenodd" style="fill: #1DC690; stroke: #fff; opacity: 1;" id="p-type-logs"></path><path d="M80.18854298942203,-179.94109473167492A197,197,0,0,1,82.46791922861955,-178.90791569436465L71.41931304922771,-154.93879992944443A170.6070045455344,170.6070045455344,0,0,0,69.44531532130003,-155.8335592224127Z" fill-rule="evenodd" style="fill: #1DC690; stroke: #fff; opacity: 1;" id="p-type-logs"></path><path d="M82.46791922861955,-178.90791569436465A197,197,0,0,1,84.73398675560871,-177.8458644121373L73.3817850942913,-154.01903653891372A170.6070045455344,170.6070045455344,0,0,0,71.41931304922771,-154.93879992944443Z" fill-rule="evenodd" style="fill: #1DC690; stroke: #fff; opacity: 1;" id="p-type-logs"></path><path d="M84.73398675560871,-177.8458644121373A197,197,0,0,1,86.98637987132936,-176.75511227933632L75.33241475181457,-153.074417482676A170.6070045455344,170.6070045455344,0,0,0,73.3817850942913,-154.01903653891372Z" fill-rule="evenodd" style="fill: #1DC690; stroke: #fff; opacity: 1;" id="p-type-logs"></path><path d="M86.98637987132936,-176.75511227933632A197,197,0,0,1,89.22473508350424,-175.635835322062L77.27088722825133,-152.10509520380592A170.6070045455344,170.6070045455344,0,0,0,75.33241475181457,-153.074417482676Z" fill-rule="evenodd" style="fill: #1DC690; stroke: #fff; opacity: 1;" id="p-type-logs"></path><path d="M89.22473508350424,-175.635835322062A197,197,0,0,1,91.44869116529973,-174.48821416976457L79.19688969198712,-151.11122613199595A170.6070045455344,170.6070045455344,0,0,0,77.27088722825133,-152.10509520380592Z" fill-rule="evenodd" style="fill: #1DC690; stroke: #fff; opacity: 1;" id="p-type-logs"></path><path d="M91.44869116529973,-174.48821416976457A197,197,0,0,1,93.65788921362075,-173.31243402609388L81.11011132382413,-150.09297065831183A170.6070045455344,170.6070045455344,0,0,0,79.19688969198712,-151.11122613199595Z" fill-rule="evenodd" style="fill: #1DC690; stroke: #fff; opacity: 1;" id="p-type-logs"></path><path d="M93.65788921362075,-173.31243402609388A197,197,0,0,1,95.85197270703065,-172.10868463901133L83.01024336714121,-149.0504931093084A170.6070045455344,170.6070045455344,0,0,0,81.11011132382413,-150.09297065831183Z" fill-rule="evenodd" style="fill: #1DC690; stroke: #fff; opacity: 1;" id="p-type-logs"></path><path d="M95.85197270703065,-172.10868463901133A197,197,0,0,1,98.03058756328707,-170.87716027016808L84.89697917772145,-147.98396172051054A170.6070045455344,170.6070045455344,0,0,0,83.01024336714121,-149.0504931093084Z" fill-rule="evenodd" style="fill: #1DC690; stroke: #fff; opacity: 1;" id="p-type-logs"></path><path d="M98.03058756328707,-170.87716027016808A197,197,0,0,1,100.19338219648337,-169.6180596635553L86.7700142732381,-146.8935486092635A170.6070045455344,170.6070045455344,0,0,0,84.89697917772145,-147.98396172051054Z" fill-rule="evenodd" style="fill: #1DC690; stroke: #fff; opacity: 1;" id="p-type-logs"></path><path d="M100.19338219648337,-169.6180596635553A197,197,0,0,1,102.34000757378847,-168.3315860134304L88.62904638239267,-145.77942974695603A170.6070045455344,170.6070045455344,0,0,0,86.7700142732381,-146.8935486092635Z" fill-rule="evenodd" style="fill: #1DC690; stroke: #fff; opacity: 1;" id="p-type-logs"></path><path d="M102.34000757378847,-168.3315860134304A197,197,0,0,1,104.47011727177313,-167.0179469315258L90.47377549369499,-144.64178493062258A170.6070045455344,170.6070045455344,0,0,0,88.62904638239267,-145.77942974695603Z" fill-rule="evenodd" style="fill: #1DC690; stroke: #fff; opacity: 1;" id="p-type-logs"></path><path d="M104.47011727177313,-167.0179469315258A197,197,0,0,1,106.58336753231667,-165.67735441354412L92.30390390387977,-143.48079775392708A170.6070045455344,170.6070045455344,0,0,0,90.47377549369499,-144.64178493062258Z" fill-rule="evenodd" style="fill: #1DC690; stroke: #fff; opacity: 1;" id="p-type-logs"></path><path d="M106.58336753231667,-165.67735441354412A197,197,0,0,1,108.67941731808223,-164.3100248049465L94.11913626594968,-142.2966555775349A170.6070045455344,170.6070045455344,0,0,0,92.30390390387977,-143.48079775392708Z" fill-rule="evenodd" style="fill: #1DC690; stroke: #fff; opacity: 1;" id="p-type-logs"></path><path d="M108.67941731808223,-164.3100248049465A197,197,0,0,1,110.75792836755396,-162.91617876603843L95.91917963683885,-141.0895494988762A170.6070045455344,170.6070045455344,0,0,0,94.11913626594968,-142.2966555775349Z" fill-rule="evenodd" style="fill: #1DC690; stroke: #fff; opacity: 1;" id="p-type-logs"></path><path d="M110.75792836755396,-162.91617876603843A197,197,0,0,1,112.81856524962551,-161.4960412363597L97.70374352468797,-139.85967432130676A170.6070045455344,170.6070045455344,0,0,0,95.91917963683885,-141.0895494988762Z" fill-rule="evenodd" style="fill: #1DC690; stroke: #fff; opacity: 1;" id="p-type-logs"></path><path d="M112.81856524962551,-161.4960412363597A197,197,0,0,1,114.86099541773234,-160.04984139838336L99.47253993572421,-138.6072285226703A170.6070045455344,170.6070045455344,0,0,0,97.70374352468797,-139.85967432130676Z" fill-rule="evenodd" style="fill: #1DC690; stroke: #fff; opacity: 1;" id="p-type-logs"></path><path d="M114.86099541773234,-160.04984139838336A197,197,0,0,1,116.88488926351803,-158.57781264053028L101.22528342073761,-137.3324142232683A170.6070045455344,170.6070045455344,0,0,0,99.47253993572421,-138.6072285226703Z" fill-rule="evenodd" style="fill: #1DC690; stroke: #fff; opacity: 1;" id="p-type-logs"></path><path d="M116.88488926351803,-158.57781264053028A197,197,0,0,1,118.88992017002674,-157.08019251950472L102.96169112114708,-136.03543715324145A170.6070045455344,170.6070045455344,0,0,0,101.22528342073761,-137.3324142232683Z" fill-rule="evenodd" style="fill: #1DC690; stroke: #fff; opacity: 1;" id="p-type-logs"></path><path d="M118.88992017002674,-157.08019251950472A197,197,0,0,1,120.87576456441276,-155.5572227219574L104.68148281464829,-134.716506619369A170.6070045455344,170.6070045455344,0,0,0,102.96169112114708,-136.03543715324145Z" fill-rule="evenodd" style="fill: #1DC690; stroke: #fff; opacity: 1;" id="p-type-logs"></path><path d="M120.87576456441276,-155.5572227219574A197,197,0,0,1,122.84210197015886,-154.00914902548192L106.38438096043602,-133.37583547129074A170.6070045455344,170.6070045455344,0,0,0,104.68148281464829,-134.716506619369Z" fill-rule="evenodd" style="fill: #1DC690; stroke: #fff; opacity: 1;" id="p-type-logs"></path><path d="M122.84210197015886,-154.00914902548192A197,197,0,0,1,124.78861505879503,-152.43622125895104L108.07011074399384,-132.0136400671571A170.6070045455344,170.6070045455344,0,0,0,106.38438096043602,-133.37583547129074Z" fill-rule="evenodd" style="fill: #1DC690; stroke: #fff; opacity: 1;" id="p-type-logs"></path><path d="M124.78861505879503,-152.43622125895104A197,197,0,0,1,126.71498970110895,-150.8386932621993L109.73840012144386,-130.63014023871324A170.6070045455344,170.6070045455344,0,0,0,108.07011074399384,-132.0136400671571Z" fill-rule="evenodd" style="fill: #1DC690; stroke: #fff; opacity: 1;" id="p-type-logs"></path><path d="M126.71498970110895,-150.8386932621993A197,197,0,0,1,128.62091501784045,-149.21682284505815L111.38897986344922,-129.22555925582253A170.6070045455344,170.6070045455344,0,0,0,109.73840012144386,-130.63014023871324Z" fill-rule="evenodd" style="fill: #1DC690; stroke: #fff; opacity: 1;" id="p-type-logs"></path><path d="M128.62091501784045,-149.21682284505815A197,197,0,0,1,130.5060834298512,-147.5708717457504L113.02158359866253,-127.80012379043508A170.6070045455344,170.6070045455344,0,0,0,111.38897986344922,-129.22555925582253Z" fill-rule="evenodd" style="fill: #1DC690; stroke: #fff; opacity: 1;" id="p-type-logs"></path><path d="M195.52179187682003,-24.087940992900762A197,197,0,0,1,196.6583970550555,-11.596329925288465L170.3111677172049,-10.042716305965511A170.6070045455344,170.6070045455344,0,0,0,169.32683875878004,-20.860768824712615Z" fill-rule="evenodd" style="fill: #414552; stroke: #fff; opacity: 1;" id="p-type-ether"></path><path d="M196.6583970550555,-11.596329925288465A197,197,0,0,1,196.87329042305043,-7.064525320305228L170.4972708329933,-6.118058393062726A170.6070045455344,170.6070045455344,0,0,0,170.3111677172049,-10.042716305965511Z" fill-rule="evenodd" style="fill: #414552; stroke: #fff; opacity: 1;" id="p-type-ether"></path><path d="M196.87329042305043,-7.064525320305228A197,197,0,0,1,196.94964112854635,-4.454083445200882L170.56339248354962,-3.857349414119678A170.6070045455344,170.6070045455344,0,0,0,170.4972708329933,-6.118058393062726Z" fill-rule="evenodd" style="fill: #414552; stroke: #fff; opacity: 1;" id="p-type-ether"></path><path d="M196.94964112854635,-4.454083445200882A197,197,0,0,1,196.99066675379595,-1.9176057715068089L170.5989217172219,-1.660695312568554A170.6070045455344,170.6070045455344,0,0,0,170.56339248354962,-3.857349414119678Z" fill-rule="evenodd" style="fill: #414552; stroke: #fff; opacity: 1;" id="p-type-ether"></path><path d="M196.99066675379595,-1.9176057715068089A197,197,0,0,1,196.99903934552137,0.615221051110907L170.60617259435165,0.53279705920501A170.6070045455344,170.6070045455344,0,0,0,170.5989217172219,-1.660695312568554Z" fill-rule="evenodd" style="fill: #414552; stroke: #fff; opacity: 1;" id="p-type-ether"></path><path d="M196.99903934552137,0.615221051110907A197,197,0,0,1,196.97484978186165,3.147785477607129L170.5852238177159,2.726062189271506A170.6070045455344,170.6070045455344,0,0,0,170.60617259435165,0.53279705920501Z" fill-rule="evenodd" style="fill: #414552; stroke: #fff; opacity: 1;" id="p-type-ether"></path><path d="M196.97484978186165,3.147785477607129A197,197,0,0,1,196.91811198997522,5.679539620742064L170.5360874485876,4.918625593362863A170.6070045455344,170.6070045455344,0,0,0,170.5852238177159,2.726062189271506Z" fill-rule="evenodd" style="fill: #414552; stroke: #fff; opacity: 1;" id="p-type-ether"></path><path d="M196.91811198997522,5.679539620742064A197,197,0,0,1,196.8288790439766,8.209285857590336L170.45880945049825,7.109450099601552A170.6070045455344,170.6070045455344,0,0,0,170.5360874485876,4.918625593362863Z" fill-rule="evenodd" style="fill: #414552; stroke: #fff; opacity: 1;" id="p-type-ether"></path><path d="M196.8288790439766,8.209285857590336A197,197,0,0,1,196.70717270024033,10.737234666236139L170.35340866502094,9.298717987355424A170.6070045455344,170.6070045455344,0,0,0,170.45880945049825,7.109450099601552Z" fill-rule="evenodd" style="fill: #414552; stroke: #fff; opacity: 1;" id="p-type-ether"></path><path d="M196.70717270024033,10.737234666236139A197,197,0,0,1,196.5530306971393,13.262960595938432L170.21991777454522,11.48606080547468A170.6070045455344,170.6070045455344,0,0,0,170.35340866502094,9.298717987355424Z" fill-rule="evenodd" style="fill: #414552; stroke: #fff; opacity: 1;" id="p-type-ether"></path><path d="M196.5530306971393,13.262960595938432A197,197,0,0,1,196.36650389259165,15.785947833462417L170.05838082332022,13.671031846594374A170.6070045455344,170.6070045455344,0,0,0,170.21991777454522,11.48606080547468Z" fill-rule="evenodd" style="fill: #414552; stroke: #fff; opacity: 1;" id="p-type-ether"></path><path d="M196.36650389259165,15.785947833462417A197,197,0,0,1,196.14761734383148,18.30607031391116L169.86881951154723,15.853521935311237A170.6070045455344,170.6070045455344,0,0,0,170.05838082332022,13.671031846594374Z" fill-rule="evenodd" style="fill: #414552; stroke: #fff; opacity: 1;" id="p-type-ether"></path><path d="M196.14761734383148,18.30607031391116A197,197,0,0,1,195.89642850061924,20.82280722433408L169.65128359217817,18.03308003437945A170.6070045455344,170.6070045455344,0,0,0,169.86881951154723,15.853521935311237Z" fill-rule="evenodd" style="fill: #414552; stroke: #fff; opacity: 1;" id="p-type-ether"></path><path d="M195.89642850061924,20.82280722433408A197,197,0,0,1,195.6129823426814,23.33583379701314L169.4058120187989,20.209424886704856A170.6070045455344,170.6070045455344,0,0,0,169.65128359217817,18.03308003437945Z" fill-rule="evenodd" style="fill: #414552; stroke: #fff; opacity: 1;" id="p-type-ether"></path><path d="M195.6129823426814,23.33583379701314A197,197,0,0,1,195.3006092684529,25.819992629183663L169.13528900105877,22.36076954240001A170.6070045455344,170.6070045455344,0,0,0,169.4058120187989,20.209424886704856Z" fill-rule="evenodd" style="fill: #414552; stroke: #fff; opacity: 1;" id="p-type-ether"></path><path d="M195.3006092684529,25.819992629183663A197,197,0,0,1,194.95684411273365,28.298921067829923L168.83757964327,24.507584544431367A170.6070045455344,170.6070045455344,0,0,0,169.13528900105877,22.36076954240001Z" fill-rule="evenodd" style="fill: #414552; stroke: #fff; opacity: 1;" id="p-type-ether"></path><path d="M194.95684411273365,28.298921067829923A197,197,0,0,1,194.7610215379759,29.616625221049276L168.66799231889533,25.64874981579159A170.6070045455344,170.6070045455344,0,0,0,168.83757964327,24.507584544431367Z" fill-rule="evenodd" style="fill: #414552; stroke: #fff; opacity: 1;" id="p-type-ether"></path><path d="M194.7610215379759,29.616625221049276A197,197,0,0,1,194.55795393958013,30.92252510459342L168.4921306199991,26.779692289739955A170.6070045455344,170.6070045455344,0,0,0,168.66799231889533,25.64874981579159Z" fill-rule="evenodd" style="fill: #414552; stroke: #fff; opacity: 1;" id="p-type-ether"></path><path d="M194.55795393958013,30.92252510459342A197,197,0,0,1,194.35235073893736,32.18949770109918L168.31407302514307,27.876922744212674A170.6070045455344,170.6070045455344,0,0,0,168.4921306199991,26.779692289739955Z" fill-rule="evenodd" style="fill: #414552; stroke: #fff; opacity: 1;" id="p-type-ether"></path><path d="M194.35235073893736,32.18949770109918A197,197,0,0,1,194.14382749714375,33.42415660505566L168.13348660047032,28.946168720047634A170.6070045455344,170.6070045455344,0,0,0,168.31407302514307,27.876922744212674Z" fill-rule="evenodd" style="fill: #414552; stroke: #fff; opacity: 1;" id="p-type-ether"></path><path d="M101.70098788830724,168.71843130654807A197,197,0,0,1,99.54949985977055,169.99675607984273L86.21239581259671,147.2215093260905A170.6070045455344,170.6070045455344,0,0,0,88.07563910124759,146.11444759813037Z" fill-rule="evenodd" style="fill: #D7A449; stroke: #fff; opacity: 1;" id="p-type-tokenTransfers"></path><path d="M99.54949985977055,169.99675607984273A197,197,0,0,1,97.3819464853817,171.24764669541668L84.33523952631728,148.3048123765331A170.6070045455344,170.6070045455344,0,0,0,86.21239581259671,147.2215093260905Z" fill-rule="evenodd" style="fill: #D7A449; stroke: #fff; opacity: 1;" id="p-type-tokenTransfers"></path><path d="M97.3819464853817,171.24764669541668A197,197,0,0,1,95.1986775659399,172.47090128394473L82.44447317878769,149.36418192549428A170.6070045455344,170.6070045455344,0,0,0,84.33523952631728,148.3048123765331Z" fill-rule="evenodd" style="fill: #D7A449; stroke: #fff; opacity: 1;" id="p-type-tokenTransfers"></path><path d="M95.1986775659399,172.47090128394473A197,197,0,0,1,93.00004543842657,173.6663224360169L80.54040190278451,150.39944701141007A170.6070045455344,170.6070045455344,0,0,0,82.44447317878769,149.36418192549428Z" fill-rule="evenodd" style="fill: #D7A449; stroke: #fff; opacity: 1;" id="p-type-tokenTransfers"></path><path d="M93.00004543842657,173.6663224360169A197,197,0,0,1,90.78640491914491,174.83371723399654L78.62333297824001,151.4104405627062A170.6070045455344,170.6070045455344,0,0,0,80.54040190278451,150.39944701141007Z" fill-rule="evenodd" style="fill: #D7A449; stroke: #fff; opacity: 1;" id="p-type-tokenTransfers"></path><path d="M90.78640491914491,174.83371723399654A197,197,0,0,1,88.55811324645963,175.97289728315332L76.69357578265324,152.3969994247604A170.6070045455344,170.6070045455344,0,0,0,78.62333297824001,151.4104405627062Z" fill-rule="evenodd" style="fill: #D7A449; stroke: #fff; opacity: 1;" id="p-type-tokenTransfers"></path><path d="M88.55811324645963,175.97289728315332A197,197,0,0,1,86.31553002314553,177.08367874206664L74.75144174116244,153.35896438623206A170.6070045455344,170.6070045455344,0,0,0,76.69357578265324,152.3969994247604Z" fill-rule="evenodd" style="fill: #D7A449; stroke: #fff; opacity: 1;" id="p-type-tokenTransfers"></path><path d="M86.31553002314553,177.08367874206664A197,197,0,0,1,84.05901715835468,178.1658823522939L72.79724427628717,154.2961802047561A170.6070045455344,170.6070045455344,0,0,0,74.75144174116244,153.35896438623206Z" fill-rule="evenodd" style="fill: #D7A449; stroke: #fff; opacity: 1;" id="p-type-tokenTransfers"></path><path d="M84.05901715835468,178.1658823522939A197,197,0,0,1,81.7889388092114,179.2193334672994L70.83129875734805,155.20849563199593A170.6070045455344,170.6070045455344,0,0,0,72.79724427628717,154.2961802047561Z" fill-rule="evenodd" style="fill: #D7A449; stroke: #fff; opacity: 1;" id="p-type-tokenTransfers"></path><path d="M81.7889388092114,179.2193334672994A197,197,0,0,1,79.5056613220443,180.2438620806389L68.85392244957225,156.095763438052A170.6070045455344,170.6070045455344,0,0,0,70.83129875734805,155.20849563199593Z" fill-rule="evenodd" style="fill: #D7A449; stroke: #fff; opacity: 1;" id="p-type-tokenTransfers"></path><path d="M79.5056613220443,180.2438620806389A197,197,0,0,1,77.20955317326523,181.23930285339526L66.8654344628931,156.95784043522178A170.6070045455344,170.6070045455344,0,0,0,68.85392244957225,156.095763438052Z" fill-rule="evenodd" style="fill: #D7A449; stroke: #fff; opacity: 1;" id="p-type-tokenTransfers"></path><path d="M77.20955317326523,181.23930285339526A197,197,0,0,1,74.90098490990428,182.2054951408609L64.866155700452,157.79458750110766A170.6070045455344,170.6070045455344,0,0,0,66.8654344628931,156.95784043522178Z" fill-rule="evenodd" style="fill: #D7A449; stroke: #fff; opacity: 1;" id="p-type-tokenTransfers"></path><path d="M74.90098490990428,182.2054951408609A197,197,0,0,1,72.58032908981086,183.14228301846288L62.85640880681088,158.60586960106824A170.6070045455344,170.6070045455344,0,0,0,64.866155700452,157.79458750110766Z" fill-rule="evenodd" style="fill: #D7A449; stroke: #fff; opacity: 1;" id="p-type-tokenTransfers"></path><path d="M72.58032908981086,183.14228301846288A197,197,0,0,1,70.24796022153001,184.04951530692588L60.83651811588371,159.3915558100107A170.6070045455344,170.6070045455344,0,0,0,62.85640880681088,158.60586960106824Z" fill-rule="evenodd" style="fill: #D7A449; stroke: #fff; opacity: 1;" id="p-type-tokenTransfers"></path><path d="M70.24796022153001,184.04951530692588A197,197,0,0,1,67.90425470386411,184.9270455966697L58.80680959859529,160.15151933351916A170.6070045455344,170.6070045455344,0,0,0,60.83651811588371,159.3915558100107Z" fill-rule="evenodd" style="fill: #D7A449; stroke: #fff; opacity: 1;" id="p-type-tokenTransfers"></path><path d="M67.90425470386411,184.9270455966697A197,197,0,0,1,65.54959076512942,185.7747322714369L56.76761081027592,160.88563752831712A170.6070045455344,170.6070045455344,0,0,0,58.80680959859529,160.15151933351916Z" fill-rule="evenodd" style="fill: #D7A449; stroke: #fff; opacity: 1;" id="p-type-tokenTransfers"></path><path d="M65.54959076512942,185.7747322714369A197,197,0,0,1,63.18434840211744,186.5924385311469L54.71925083780041,161.59379192205955A170.6070045455344,170.6070045455344,0,0,0,56.76761081027592,160.88563752831712Z" fill-rule="evenodd" style="fill: #D7A449; stroke: #fff; opacity: 1;" id="p-type-tokenTransfers"></path><path d="M63.18434840211744,186.5924385311469A197,197,0,0,1,60.80890931877082,187.38003241397283L52.66206024647981,162.275868232452A170.6070045455344,170.6070045455344,0,0,0,54.71925083780041,161.59379192205955Z" fill-rule="evenodd" style="fill: #D7A449; stroke: #fff; opacity: 1;" id="p-type-tokenTransfers"></path><path d="M60.80890931877082,187.38003241397283A197,197,0,0,1,58.423656864583805,188.13738681763752L50.59637102671468,162.93175638569366A170.6070045455344,170.6070045455344,0,0,0,52.66206024647981,162.275868232452Z" fill-rule="evenodd" style="fill: #D7A449; stroke: #fff; opacity: 1;" id="p-type-tokenTransfers"></path><path d="M58.423656864583805,188.13738681763752A197,197,0,0,1,56.02897597273714,188.86437951992548L48.522516540418295,163.56135053424092A170.6070045455344,170.6070045455344,0,0,0,50.59637102671468,162.93175638569366Z" fill-rule="evenodd" style="fill: #D7A449; stroke: #fff; opacity: 1;" id="p-type-tokenTransfers"></path><path d="M56.02897597273714,188.86437951992548A197,197,0,0,1,53.625253097977335,189.56089319840703L46.440831467218544,164.16454907388928A170.6070045455344,170.6070045455344,0,0,0,48.522516540418295,163.56135053424092Z" fill-rule="evenodd" style="fill: #D7A449; stroke: #fff; opacity: 1;" id="p-type-tokenTransfers"></path><path d="M53.625253097977335,189.56089319840703A197,197,0,0,1,51.21287615425041,190.22681544937194L44.351651750447154,164.74125466017023A170.6070045455344,170.6070045455344,0,0,0,46.440831467218544,164.16454907388928Z" fill-rule="evenodd" style="fill: #D7A449; stroke: #fff; opacity: 1;" id="p-type-tokenTransfers"></path><path d="M51.21287615425041,190.22681544937194A197,197,0,0,1,48.79223445210018,190.86203880596918L42.255314542925056,165.29137422406066A170.6070045455344,170.6070045455344,0,0,0,44.351651750447154,164.74125466017023Z" fill-rule="evenodd" style="fill: #D7A449; stroke: #fff; opacity: 1;" id="p-type-tokenTransfers"></path><path d="M48.79223445210018,190.86203880596918A197,197,0,0,1,46.36371863584112,191.46646075554997L40.1521581525524,165.81481898700255A170.6070045455344,170.6070045455344,0,0,0,42.255314542925056,165.29137422406066Z" fill-rule="evenodd" style="fill: #D7A449; stroke: #fff; opacity: 1;" id="p-type-tokenTransfers"></path><path d="M46.36371863584112,191.46646075554997A197,197,0,0,1,43.927720620516,192.03998375621129L38.04252198771238,166.31150447522992A170.6070045455344,170.6070045455344,0,0,0,40.1521581525524,165.81481898700255Z" fill-rule="evenodd" style="fill: #D7A449; stroke: #fff; opacity: 1;" id="p-type-tokenTransfers"></path><path d="M43.927720620516,192.03998375621129A197,197,0,0,1,41.48463352864846,192.58251525253723L35.926746502497245,166.78135053340137A170.6070045455344,170.6070045455344,0,0,0,38.04252198771238,166.31150447522992Z" fill-rule="evenodd" style="fill: #D7A449; stroke: #fff; opacity: 1;" id="p-type-tokenTransfers"></path><path d="M41.48463352864846,192.58251525253723A197,197,0,0,1,39.0348516268007,193.09396769053572L33.80517314176573,167.22428133753553A170.6070045455344,170.6070045455344,0,0,0,35.926746502497245,166.78135053340137Z" fill-rule="evenodd" style="fill: #D7A449; stroke: #fff; opacity: 1;" id="p-type-tokenTransfers"></path><path d="M39.0348516268007,193.09396769053572A197,197,0,0,1,36.57877026194653,193.57425853176795L31.678144286040457,167.64022540724764A170.6070045455344,170.6070045455344,0,0,0,33.80517314176573,167.22428133753553Z" fill-rule="evenodd" style="fill: #D7A449; stroke: #fff; opacity: 1;" id="p-type-tokenTransfers"></path><path d="M36.57877026194653,193.57425853176795A197,197,0,0,1,34.11678579767015,194.02331026666846L29.546003196254485,168.02911561728496A170.6070045455344,170.6070045455344,0,0,0,31.678144286040457,167.64022540724764Z" fill-rule="evenodd" style="fill: #D7A449; stroke: #fff; opacity: 1;" id="p-type-tokenTransfers"></path><path d="M34.11678579767015,194.02331026666846A197,197,0,0,1,31.649295550200712,194.4410504270537L27.40909395835561,168.39088920835957A170.6070045455344,170.6070045455344,0,0,0,29.546003196254485,168.02911561728496Z" fill-rule="evenodd" style="fill: #D7A449; stroke: #fff; opacity: 1;" id="p-type-tokenTransfers"></path><path d="M31.649295550200712,194.4410504270537A197,197,0,0,1,29.17669772429334,194.82741159781705L25.26776142777765,168.72548779727651A170.6070045455344,170.6070045455344,0,0,0,27.40909395835561,168.39088920835957Z" fill-rule="evenodd" style="fill: #D7A449; stroke: #fff; opacity: 1;" id="p-type-tokenTransfers"></path><path d="M29.17669772429334,194.82741159781705A197,197,0,0,1,26.69939134896659,195.1823314278081L23.122351173787536,169.03285738635563A170.6070045455344,170.6070045455344,0,0,0,25.26776142777765,168.72548779727651Z" fill-rule="evenodd" style="fill: #D7A449; stroke: #fff; opacity: 1;" id="p-type-tokenTransfers"></path><path d="M26.69939134896659,195.1823314278081A197,197,0,0,1,24.21777621310696,195.50575263989515L20.97320942371713,169.31294837214577A170.6070045455344,170.6070045455344,0,0,0,23.122351173787536,169.03285738635563Z" fill-rule="evenodd" style="fill: #D7A449; stroke: #fff; opacity: 1;" id="p-type-tokenTransfers"></path></g></svg>