<svg xmlns="http://www.w3.org/2000/svg" width="400" height="400" id="block-7908359"><g id="burst-container" transform="translate(200,200)"><circle r="197" style="fill: #f9f9f9; stroke: #f9f9f9; stroke-width: 3; opacity: 1;" id="circle-base"></circle><path display="none" d="M6.031385485800715e-15,-98.5A98.5,98.5,0,1,1,-6.031385485800715e-15,98.5A98.5,98.5,0,1,1,6.031385485800715e-15,-98.5Z" fill-rule="evenodd" id="p-type-root" style="stroke: #fff; opacity: 1;"></path><path d="M8.529667153919608e-15,-139.30003589374985A139.30003589374985,139.30003589374985,0,1,1,-122.81497620426818,-65.73417391239535L-86.8433025053025,-46.4810801291506A98.5,98.5,0,1,0,6.031385485800715e-15,-98.5Z" fill-rule="evenodd" style="fill: #0B1F65; stroke: #fff; opacity: 1;" id="p-type-data"></path><path d="M-122.81497620426818,-65.73417391239535A139.30003589374985,139.30003589374985,0,0,1,-1.8793861387498823,-139.2873573148025L-1.3289266831780435,-98.49103489085053A98.5,98.5,0,0,0,-86.8433025053025,-46.4810801291506Z" fill-rule="evenodd" style="fill: #D7A449; stroke: #fff; opacity: 1;" id="p-type-value"></path><path d="M1.0446666101440332e-14,-170.6070045455344A170.6070045455344,170.6070045455344,0,0,1,150.25123708717163,80.81655618605966L122.67962136183678,65.98644180827117A139.30003589374985,139.30003589374985,0,0,0,8.529667153919608e-15,-139.30003589374985Z" fill-rule="evenodd" style="fill: #1DC690; stroke: #fff; opacity: 1;" id="p-type-logs"></path><path d="M150.25123708717163,80.81655618605966A170.6070045455344,170.6070045455344,0,0,1,-134.9856583055001,104.33418448347008L-110.21532848071912,85.18850490463592A139.30003589374985,139.30003589374985,0,0,0,122.67962136183678,65.98644180827117Z" fill-rule="evenodd" style="fill: #D7A449; stroke: #fff; opacity: 1;" id="p-type-tokenTransfers"></path><path d="M-134.9856583055001,104.33418448347008A170.6070045455344,170.6070045455344,0,0,1,-141.31873593548198,95.58119518816196L-115.3862647123492,78.04171907211985A139.30003589374985,139.30003589374985,0,0,0,-110.21532848071912,85.18850490463592Z" fill-rule="evenodd" style="fill: #414552; stroke: #fff; opacity: 1;" id="p-type-ether"></path><path d="M-150.4170122362575,-80.507592374369A170.6070045455344,170.6070045455344,0,0,1,-13.795950581703204,-170.04829239821024L-11.26434648060854,-138.84384933573688A139.30003589374985,139.30003589374985,0,0,0,-122.81497620426818,-65.73417391239535Z" fill-rule="evenodd" style="fill: #D7A449; stroke: #fff; opacity: 1;" id="p-type-tokenTransfers"></path><path d="M-13.795950581703204,-170.04829239821024A170.6070045455344,170.6070045455344,0,0,1,-4.603118072517627,-170.5448952739731L-3.7584301678172665,-139.24932388587615A139.30003589374985,139.30003589374985,0,0,0,-11.26434648060854,-138.84384933573688Z" fill-rule="evenodd" style="fill: #414552; stroke: #fff; opacity: 1;" id="p-type-ether"></path><path d="M1.206277097160143e-14,-197A197,197,0,0,1,1.3289569227197542,-196.9955173944259L1.1509104556105,-170.60312249523207A170.6070045455344,170.6070045455344,0,0,0,1.0446666101440332e-14,-170.6070045455344Z" fill-rule="evenodd" style="fill: #1DC690; stroke: #fff; opacity: 1;" id="p-type-logs"></path><path d="M1.3289569227197542,-196.9955173944259A197,197,0,0,1,2.6578533663561945,-196.98206978170106L2.3017685347984527,-170.59147652099213A170.6070045455344,170.6070045455344,0,0,0,1.1509104556105,-170.60312249523207Z" fill-rule="evenodd" style="fill: #1DC690; stroke: #fff; opacity: 1;" id="p-type-logs"></path><path d="M2.6578533663561945,-196.98206978170106A197,197,0,0,1,3.9866288545782234,-196.95965777380871L3.4525218635247996,-170.57206715280753A170.6070045455344,170.6070045455344,0,0,0,2.3017685347984527,-170.59147652099213Z" fill-rule="evenodd" style="fill: #1DC690; stroke: #fff; opacity: 1;" id="p-type-logs"></path><path d="M3.9866288545782234,-196.95965777380871A197,197,0,0,1,5.315222916559429,-196.92828239068984L4.603118072517681,-170.5448952739731A170.6070045455344,170.6070045455344,0,0,0,3.4525218635247996,-170.57206715280753Z" fill-rule="evenodd" style="fill: #1DC690; stroke: #fff; opacity: 1;" id="p-type-logs"></path><path d="M5.315222916559429,-196.92828239068984A197,197,0,0,1,6.643575089729694,-196.88794506019693L5.7535047996553965,-170.5099621210454A170.6070045455344,170.6070045455344,0,0,0,4.603118072517681,-170.5448952739731Z" fill-rule="evenodd" style="fill: #1DC690; stroke: #fff; opacity: 1;" id="p-type-logs"></path><path d="M6.643575089729694,-196.88794506019693A197,197,0,0,1,7.971624922527074,-196.8386476180289L6.903629692349603,-170.4672692837863A170.6070045455344,170.6070045455344,0,0,0,5.7535047996553965,-170.5099621210454Z" fill-rule="evenodd" style="fill: #1DC690; stroke: #fff; opacity: 1;" id="p-type-logs"></path><path d="M7.971624922527074,-196.8386476180289A197,197,0,0,1,9.299311977148735,-196.7803923076475L8.053440409927699,-170.41681870509066A170.6070045455344,170.6070045455344,0,0,0,6.903629692349603,-170.4672692837863Z" fill-rule="evenodd" style="fill: #1DC690; stroke: #fff; opacity: 1;" id="p-type-logs"></path><path d="M9.299311977148735,-196.7803923076475A197,197,0,0,1,10.626575832301278,-196.71318178017546L9.20288462601467,-170.35861268089812A170.6070045455344,170.6070045455344,0,0,0,8.053440409927699,-170.41681870509066Z" fill-rule="evenodd" style="fill: #1DC690; stroke: #fff; opacity: 1;" id="p-type-logs"></path><path d="M10.626575832301278,-196.71318178017546A197,197,0,0,1,11.953356085950677,-196.63701909427547L10.351910030914611,-170.2926538600883A170.6070045455344,170.6070045455344,0,0,0,9.20288462601467,-170.35861268089812Z" fill-rule="evenodd" style="fill: #1DC690; stroke: #fff; opacity: 1;" id="p-type-logs"></path><path d="M11.953356085950677,-196.63701909427547A197,197,0,0,1,13.279592358070982,-196.5519077160114L11.500464333991168,-170.2189452443605A170.6070045455344,170.6070045455344,0,0,0,10.351910030914611,-170.2926538600883Z" fill-rule="evenodd" style="fill: #1DC690; stroke: #fff; opacity: 1;" id="p-type-logs"></path><path d="M13.279592358070982,-196.5519077160114A197,197,0,0,1,14.605224293391993,-196.45785151869018L12.648495266047092,-170.13749018809693A170.6070045455344,170.6070045455344,0,0,0,11.500464333991168,-170.2189452443605Z" fill-rule="evenodd" style="fill: #1DC690; stroke: #fff; opacity: 1;" id="p-type-logs"></path><path d="M14.605224293391993,-196.45785151869018A197,197,0,0,1,15.93019156414626,-196.35485478268575L13.795950581703222,-170.04829239821024A170.6070045455344,170.6070045455344,0,0,0,12.648495266047092,-170.13749018809693Z" fill-rule="evenodd" style="fill: #1DC690; stroke: #fff; opacity: 1;" id="p-type-logs"></path><path d="M15.93019156414626,-196.35485478268575A197,197,0,0,1,17.254433872814168,-196.24292219524423L14.942778061775783,-169.95135593397458A170.6070045455344,170.6070045455344,0,0,0,13.795950581703222,-170.04829239821024Z" fill-rule="evenodd" style="fill: #1DC690; stroke: #fff; opacity: 1;" id="p-type-logs"></path><path d="M17.254433872814168,-196.24292219524423A197,197,0,0,1,18.577890954868305,-196.12205885027066L16.088925515653095,-169.84668520684107A170.6070045455344,170.6070045455344,0,0,0,14.942778061775783,-169.95135593397458Z" fill-rule="evenodd" style="fill: #1DC690; stroke: #fff; opacity: 1;" id="p-type-logs"></path><path d="M18.577890954868305,-196.12205885027066A197,197,0,0,1,19.900502581515894,-195.992270248097L17.234340783670564,-169.734284980237A170.6070045455344,170.6070045455344,0,0,0,16.088925515653095,-169.84668520684107Z" fill-rule="evenodd" style="fill: #1DC690; stroke: #fff; opacity: 1;" id="p-type-logs"></path><path d="M19.900502581515894,-195.992270248097A197,197,0,0,1,21.222208562439587,-195.85356229523197L18.378971739484314,-169.61416036934898A170.6070045455344,170.6070045455344,0,0,0,17.234340783670564,-169.734284980237Z" fill-rule="evenodd" style="fill: #1DC690; stroke: #fff; opacity: 1;" id="p-type-logs"></path><path d="M21.222208562439587,-195.85356229523197A197,197,0,0,1,22.54294874853692,-195.70594130409233L19.52276629244359,-169.4863168408902A170.6070045455344,170.6070045455344,0,0,0,18.378971739484314,-169.61416036934898Z" fill-rule="evenodd" style="fill: #1DC690; stroke: #fff; opacity: 1;" id="p-type-logs"></path><path d="M22.54294874853692,-195.70594130409233A197,197,0,0,1,23.862663034657466,-195.5494139927154L20.66567238996123,-169.3507602128517A170.6070045455344,170.6070045455344,0,0,0,19.52276629244359,-169.4863168408902Z" fill-rule="evenodd" style="fill: #1DC690; stroke: #fff; opacity: 1;" id="p-type-logs"></path><path d="M23.862663034657466,-195.5494139927154A197,197,0,0,1,25.181291362338055,-195.38398748445337L21.80763801988241,-169.20749665423745A170.6070045455344,170.6070045455344,0,0,0,20.66567238996123,-169.3507602128517Z" fill-rule="evenodd" style="fill: #1DC690; stroke: #fff; opacity: 1;" id="p-type-logs"></path><path d="M25.181291362338055,-195.38398748445337A197,197,0,0,1,26.49877372253621,-195.20966930764936L22.94861121285189,-169.05653268478378A170.6070045455344,170.6070045455344,0,0,0,21.80763801988241,-169.20749665423745Z" fill-rule="evenodd" style="fill: #1DC690; stroke: #fff; opacity: 1;" id="p-type-logs"></path><path d="M26.49877372253621,-195.20966930764936A197,197,0,0,1,27.81505015836076,-195.0264673952945L24.08854004467879,-168.89787517466257A170.6070045455344,170.6070045455344,0,0,0,22.94861121285189,-169.05653268478378Z" fill-rule="evenodd" style="fill: #1DC690; stroke: #fff; opacity: 1;" id="p-type-logs"></path><path d="M27.81505015836076,-195.0264673952945A197,197,0,0,1,29.130060767800703,-194.83439008466715L25.227372638699837,-168.73153134416867A170.6070045455344,170.6070045455344,0,0,0,24.08854004467879,-168.89787517466257Z" fill-rule="evenodd" style="fill: #1DC690; stroke: #fff; opacity: 1;" id="p-type-logs"></path><path d="M29.130060767800703,-194.83439008466715A197,197,0,0,1,30.44374570645113,-194.63344611695322L26.36505716814011,-168.5575087633912A170.6070045455344,170.6070045455344,0,0,0,25.227372638699837,-168.73153134416867Z" fill-rule="evenodd" style="fill: #1DC690; stroke: #fff; opacity: 1;" id="p-type-logs"></path><path d="M30.44374570645113,-194.63344611695322A197,197,0,0,1,31.75604519023653,-194.42364463684876L27.50154185847147,-168.37581535186916A170.6070045455344,170.6070045455344,0,0,0,26.36505716814011,-168.5575087633912Z" fill-rule="evenodd" style="fill: #1DC690; stroke: #fff; opacity: 1;" id="p-type-logs"></path><path d="M31.75604519023653,-194.42364463684876A197,197,0,0,1,33.06689949813177,-194.20499519214343L28.636774989769016,-168.18645937823098A170.6070045455344,170.6070045455344,0,0,0,27.50154185847147,-168.37581535186916Z" fill-rule="evenodd" style="fill: #1DC690; stroke: #fff; opacity: 1;" id="p-type-logs"></path><path d="M33.06689949813177,-194.20499519214343A197,197,0,0,1,34.37624897487976,-193.97750773328613L29.770704899064633,-167.9894494598182A170.6070045455344,170.6070045455344,0,0,0,28.636774989769016,-168.18645937823098Z" fill-rule="evenodd" style="fill: #1DC690; stroke: #fff; opacity: 1;" id="p-type-logs"></path><path d="M34.37624897487976,-193.97750773328613A197,197,0,0,1,35.684034033706155,-193.74119261293222L30.903279982698024,-167.7847945622933A170.6070045455344,170.6070045455344,0,0,0,29.770704899064633,-167.9894494598182Z" fill-rule="evenodd" style="fill: #1DC690; stroke: #fff; opacity: 1;" id="p-type-logs"></path><path d="M35.684034033706155,-193.74119261293222A197,197,0,0,1,36.99019515903143,-193.49606058547232L32.03444869866538,-167.57250399923186A170.6070045455344,170.6070045455344,0,0,0,30.903279982698024,-167.7847945622933Z" fill-rule="evenodd" style="fill: #1DC690; stroke: #fff; opacity: 1;" id="p-type-logs"></path><path d="M36.99019515903143,-193.49606058547232A197,197,0,0,1,38.294672909178914,-193.24212280654288L33.16415956896467,-167.35258743169837A170.6070045455344,170.6070045455344,0,0,0,32.03444869866538,-167.57250399923186Z" fill-rule="evenodd" style="fill: #1DC690; stroke: #fff; opacity: 1;" id="p-type-logs"></path><path d="M38.294672909178914,-193.24212280654288A197,197,0,0,1,39.5974079190803,-192.9793908325186L34.29236118193864,-167.1250548678069A170.6070045455344,170.6070045455344,0,0,0,33.16415956896467,-167.35258743169837Z" fill-rule="evenodd" style="fill: #1DC690; stroke: #fff; opacity: 1;" id="p-type-logs"></path><path d="M39.5974079190803,-192.9793908325186A197,197,0,0,1,40.89834090297707,-192.70787661998634L35.419002194614336,-166.88991666226545A170.6070045455344,170.6070045455344,0,0,0,34.29236118193864,-167.1250548678069Z" fill-rule="evenodd" style="fill: #1DC690; stroke: #fff; opacity: 1;" id="p-type-logs"></path><path d="M40.89834090297707,-192.70787661998634A197,197,0,0,1,42.197412657118434,-192.42759252520116L36.54403133503958,-166.64718351590477A170.6070045455344,170.6070045455344,0,0,0,35.419002194614336,-166.88991666226545Z" fill-rule="evenodd" style="fill: #1DC690; stroke: #fff; opacity: 1;" id="p-type-logs"></path><path d="M42.197412657118434,-192.42759252520116A197,197,0,0,1,43.49456406245589,-192.138551303524L37.667397404616494,-166.39686647519144A170.6070045455344,170.6070045455344,0,0,0,36.54403133503958,-166.64718351590477Z" fill-rule="evenodd" style="fill: #1DC690; stroke: #fff; opacity: 1;" id="p-type-logs"></path><path d="M43.49456406245589,-192.138551303524A197,197,0,0,1,44.78973608733331,-191.840766108841L38.78904928043127,-166.13897693172507A170.6070045455344,170.6070045455344,0,0,0,37.667397404616494,-166.39686647519144Z" fill-rule="evenodd" style="fill: #1DC690; stroke: #fff; opacity: 1;" id="p-type-logs"></path><path d="M44.78973608733331,-191.840766108841A197,197,0,0,1,46.08286979017369,-191.53425049296507L39.90893591758088,-165.8735266217199A170.6070045455344,170.6070045455344,0,0,0,38.78904928043127,-166.13897693172507Z" fill-rule="evenodd" style="fill: #1DC690; stroke: #fff; opacity: 1;" id="p-type-logs"></path><path d="M46.08286979017369,-191.53425049296507A197,197,0,0,1,47.3739063221614,-191.21901840501923L41.027006351496,-165.60052762547076A170.6070045455344,170.6070045455344,0,0,0,39.90893591758088,-165.8735266217199Z" fill-rule="evenodd" style="fill: #1DC690; stroke: #fff; opacity: 1;" id="p-type-logs"></path><path d="M47.3739063221614,-191.21901840501923A197,197,0,0,1,48.662786929920166,-190.8950841908015L42.143209700260215,-165.3199923668033A170.6070045455344,170.6070045455344,0,0,0,41.027006351496,-165.60052762547076Z" fill-rule="evenodd" style="fill: #1DC690; stroke: #fff; opacity: 1;" id="p-type-logs"></path><path d="M48.662786929920166,-190.8950841908015A197,197,0,0,1,49.949452958187116,-190.5624625921324L43.25749516692582,-165.03193361250842A170.6070045455344,170.6070045455344,0,0,0,42.143209700260215,-165.3199923668033Z" fill-rule="evenodd" style="fill: #1DC690; stroke: #fff; opacity: 1;" id="p-type-logs"></path><path d="M49.949452958187116,-190.5624625921324A197,197,0,0,1,51.233845852482,-190.22116874618374L44.36981204182541,-164.73636447176162A170.6070045455344,170.6070045455344,0,0,0,43.25749516692582,-165.03193361250842Z" fill-rule="evenodd" style="fill: #1DC690; stroke: #fff; opacity: 1;" id="p-type-logs"></path><path d="M51.233845852482,-190.22116874618374A197,197,0,0,1,52.515907161771786,-189.8712181847901L45.4801097048795,-164.4332983955261A170.6070045455344,170.6070045455344,0,0,0,44.36981204182541,-164.73636447176162Z" fill-rule="evenodd" style="fill: #1DC690; stroke: #fff; opacity: 1;" id="p-type-logs"></path><path d="M52.515907161771786,-189.8712181847901A197,197,0,0,1,53.79557854113085,-189.51262683374168L46.58833762790033,-164.12274917594078A170.6070045455344,170.6070045455344,0,0,0,45.4801097048795,-164.4332983955261Z" fill-rule="evenodd" style="fill: #1DC690; stroke: #fff; opacity: 1;" id="p-type-logs"></path><path d="M53.79557854113085,-189.51262683374168A197,197,0,0,1,55.072801754396195,-189.14541101205964L47.6944453768913,-163.80473094569257A170.6070045455344,170.6070045455344,0,0,0,46.58833762790033,-164.12274917594078Z" fill-rule="evenodd" style="fill: #1DC690; stroke: #fff; opacity: 1;" id="p-type-logs"></path><path d="M55.072801754396195,-189.14541101205964A197,197,0,0,1,56.347518676817664,-188.76958743125357L48.79838261434221,-163.47925817737325A170.6070045455344,170.6070045455344,0,0,0,47.6944453768913,-163.80473094569257Z" fill-rule="evenodd" style="fill: #1DC690; stroke: #fff; opacity: 1;" id="p-type-logs"></path><path d="M56.347518676817664,-188.76958743125357A197,197,0,0,1,57.619671297703015,-188.38517319456076L49.900099101519885,-163.1463456828209A170.6070045455344,170.6070045455344,0,0,0,48.79838261434221,-163.47925817737325Z" fill-rule="evenodd" style="fill: #1DC690; stroke: #fff; opacity: 1;" id="p-type-logs"></path><path d="M57.619671297703015,-188.38517319456076A197,197,0,0,1,58.889201723058,-187.9921857961681L50.99954470075456,-162.80600861244568A170.6070045455344,170.6070045455344,0,0,0,49.900099101519885,-163.1463456828209Z" fill-rule="evenodd" style="fill: #1DC690; stroke: #fff; opacity: 1;" id="p-type-logs"></path><path d="M58.889201723058,-187.9921857961681A197,197,0,0,1,60.156052178221124,-187.59064312041562L52.09666937772171,-162.45826245454046A170.6070045455344,170.6070045455344,0,0,0,50.99954470075456,-162.80600861244568Z" fill-rule="evenodd" style="fill: #1DC690; stroke: #fff; opacity: 1;" id="p-type-logs"></path><path d="M60.156052178221124,-187.59064312041562A197,197,0,0,1,61.42016501049282,-187.18056344098292L53.1914232037189,-162.10312303457596A170.6070045455344,170.6070045455344,0,0,0,52.09666937772171,-162.45826245454046Z" fill-rule="evenodd" style="fill: #1DC690; stroke: #fff; opacity: 1;" id="p-type-logs"></path><path d="M61.42016501049282,-187.18056344098292A197,197,0,0,1,62.681482691759044,-186.76196542005738L54.283756357937925,-161.74060651448056A170.6070045455344,170.6070045455344,0,0,0,53.1914232037189,-162.10312303457596Z" fill-rule="evenodd" style="fill: #1DC690; stroke: #fff; opacity: 1;" id="p-type-logs"></path><path d="M62.681482691759044,-186.76196542005738A197,197,0,0,1,63.93994782110941,-186.33486810748494L55.37361912973221,-161.37072939190475A170.6070045455344,170.6070045455344,0,0,0,54.283756357937925,-161.74060651448056Z" fill-rule="evenodd" style="fill: #1DC690; stroke: #fff; opacity: 1;" id="p-type-logs"></path><path d="M63.93994782110941,-186.33486810748494A197,197,0,0,1,65.19550312744951,-185.89929093990304L56.4609619208791,-160.99350849947035A170.6070045455344,170.6070045455344,0,0,0,55.37361912973221,-161.37072939190475Z" fill-rule="evenodd" style="fill: #1DC690; stroke: #fff; opacity: 1;" id="p-type-logs"></path><path d="M65.19550312744951,-185.89929093990304A197,197,0,0,1,66.44809147210718,-185.4552537398563L57.54573524783693,-160.60896100400456A170.6070045455344,170.6070045455344,0,0,0,56.4609619208791,-160.99350849947035Z" fill-rule="evenodd" style="fill: #1DC690; stroke: #fff; opacity: 1;" id="p-type-logs"></path><path d="M66.44809147210718,-185.4552537398563A197,197,0,0,1,67.69765585143263,-185.00277671489417L58.6278897439969,-160.21710440575856A170.6070045455344,170.6070045455344,0,0,0,57.54573524783693,-160.60896100400456Z" fill-rule="evenodd" style="fill: #1DC690; stroke: #fff; opacity: 1;" id="p-type-logs"></path><path d="M67.69765585143263,-185.00277671489417A197,197,0,0,1,68.94413939939284,-184.5418804566516L59.7073761619298,-159.8179565376113A170.6070045455344,170.6070045455344,0,0,0,58.6278897439969,-160.21710440575856Z" fill-rule="evenodd" style="fill: #1DC690; stroke: #fff; opacity: 1;" id="p-type-logs"></path><path d="M68.94413939939284,-184.5418804566516A197,197,0,0,1,70.1874853901594,-184.07258593991165L60.78414537562717,-159.41153556425778A170.6070045455344,170.6070045455344,0,0,0,59.7073761619298,-159.8179565376113Z" fill-rule="evenodd" style="fill: #1DC690; stroke: #fff; opacity: 1;" id="p-type-logs"></path><path d="M70.1874853901594,-184.07258593991165A197,197,0,0,1,71.42763724069003,-183.59491452165113L61.858148382736985,-158.99785998138242A170.6070045455344,170.6070045455344,0,0,0,60.78414537562717,-159.41153556425778Z" fill-rule="evenodd" style="fill: #1DC690; stroke: #fff; opacity: 1;" id="p-type-logs"></path><path d="M71.42763724069003,-183.59491452165113A197,197,0,0,1,72.66453851330351,-183.10888794006868L62.929336306793566,-158.5769486148175A170.6070045455344,170.6070045455344,0,0,0,61.858148382736985,-158.99785998138242Z" fill-rule="evenodd" style="fill: #1DC690; stroke: #fff; opacity: 1;" id="p-type-logs"></path><path d="M72.66453851330351,-183.10888794006868A197,197,0,0,1,73.89813291824812,-182.6145283135954L63.99766039944195,-158.14882061968626A170.6070045455344,170.6070045455344,0,0,0,62.929336306793566,-158.5769486148175Z" fill-rule="evenodd" style="fill: #1DC690; stroke: #fff; opacity: 1;" id="p-type-logs"></path><path d="M73.89813291824812,-182.6145283135954A197,197,0,0,1,75.12836431626343,-182.11185813988828L65.06307204265644,-157.71349547953116A170.6070045455344,170.6070045455344,0,0,0,63.99766039944195,-158.14882061968626Z" fill-rule="evenodd" style="fill: #1DC690; stroke: #fff; opacity: 1;" id="p-type-logs"></path><path d="M75.12836431626343,-182.11185813988828A197,197,0,0,1,76.35517672113507,-181.60090029480645L66.12552275095317,-157.27099300542733A170.6070045455344,170.6070045455344,0,0,0,65.06307204265644,-157.71349547953116Z" fill-rule="evenodd" style="fill: #1DC690; stroke: #fff; opacity: 1;" id="p-type-logs"></path><path d="M76.35517672113507,-181.60090029480645A197,197,0,0,1,77.57851430224241,-181.08167803137007L67.18496417359633,-156.82133333508096A170.6070045455344,170.6070045455344,0,0,0,66.12552275095317,-157.27099300542733Z" fill-rule="evenodd" style="fill: #1DC690; stroke: #fff; opacity: 1;" id="p-type-logs"></path><path d="M77.57851430224241,-181.08167803137007A197,197,0,0,1,78.79832138709953,-180.55421497870208L68.24134809679884,-156.3645369319128A170.6070045455344,170.6070045455344,0,0,0,67.18496417359633,-156.82133333508096Z" fill-rule="evenodd" style="fill: #1DC690; stroke: #fff; opacity: 1;" id="p-type-logs"></path><path d="M78.79832138709953,-180.55421497870208A197,197,0,0,1,80.01454246388884,-180.018535140953L69.29462644591645,-155.90062458412697A170.6070045455344,170.6070045455344,0,0,0,68.24134809679884,-156.3645369319128Z" fill-rule="evenodd" style="fill: #1DC690; stroke: #fff; opacity: 1;" id="p-type-logs"></path><path d="M80.01454246388884,-180.018535140953A197,197,0,0,1,81.22712218398726,-179.4746628962083L70.3447512876355,-155.42961740376478A170.6070045455344,170.6070045455344,0,0,0,69.29462644591645,-155.90062458412697Z" fill-rule="evenodd" style="fill: #1DC690; stroke: #fff; opacity: 1;" id="p-type-logs"></path><path d="M81.22712218398726,-179.4746628962083A197,197,0,0,1,82.43600536448496,-178.92262299537924L71.39167483215424,-154.95153682574417A170.6070045455344,170.6070045455344,0,0,0,70.3447512876355,-155.42961740376478Z" fill-rule="evenodd" style="fill: #1DC690; stroke: #fff; opacity: 1;" id="p-type-logs"></path><path d="M82.43600536448496,-178.92262299537924A197,197,0,0,1,83.64113699069678,-178.36244056107634L72.43534943535772,-154.46640460688408A170.6070045455344,170.6070045455344,0,0,0,71.39167483215424,-154.95153682574417Z" fill-rule="evenodd" style="fill: #1DC690; stroke: #fff; opacity: 1;" id="p-type-logs"></path><path d="M83.64113699069678,-178.36244056107634A197,197,0,0,1,84.84246221866599,-177.79414108646617L73.47572760098619,-153.9742428249143A170.6070045455344,170.6070045455344,0,0,0,72.43534943535772,-154.46640460688408Z" fill-rule="evenodd" style="fill: #1DC690; stroke: #fff; opacity: 1;" id="p-type-logs"></path><path d="M84.84246221866599,-177.79414108646617A197,197,0,0,1,86.03992637765997,-177.217750434111L74.51276198279633,-153.47507387747086A170.6070045455344,170.6070045455344,0,0,0,73.47572760098619,-153.9742428249143Z" fill-rule="evenodd" style="fill: #1DC690; stroke: #fff; opacity: 1;" id="p-type-logs"></path><path d="M86.03992637765997,-177.217750434111A197,197,0,0,1,87.23347497265826,-176.63329483479214L75.54640538671609,-152.96892048107665A170.6070045455344,170.6070045455344,0,0,0,74.51276198279633,-153.47507387747086Z" fill-rule="evenodd" style="fill: #1DC690; stroke: #fff; opacity: 1;" id="p-type-logs"></path><path d="M87.23347497265826,-176.63329483479214A197,197,0,0,1,88.42305368683253,-176.04080088631594L76.57661077299224,-152.4558056701077A170.6070045455344,170.6070045455344,0,0,0,75.54640538671609,-152.96892048107665Z" fill-rule="evenodd" style="fill: #1DC690; stroke: #fff; opacity: 1;" id="p-type-logs"></path><path d="M88.42305368683253,-176.04080088631594A197,197,0,0,1,89.60860838401864,-175.44029555230344L77.60333125833137,-151.93575279574483A170.6070045455344,170.6070045455344,0,0,0,76.57661077299224,-152.4558056701077Z" fill-rule="evenodd" style="fill: #1DC690; stroke: #fff; opacity: 1;" id="p-type-logs"></path><path d="M89.60860838401864,-175.44029555230344A197,197,0,0,1,90.79008511118009,-174.83180616096337L78.6265201180333,-151.40878552491102A170.6070045455344,170.6070045455344,0,0,0,77.60333125833137,-151.93575279574483Z" fill-rule="evenodd" style="fill: #1DC690; stroke: #fff; opacity: 1;" id="p-type-logs"></path><path d="M90.79008511118009,-174.83180616096337A197,197,0,0,1,91.96743010086347,-174.2153604038484L79.64613078811742,-150.8749278391943A170.6070045455344,170.6070045455344,0,0,0,78.6265201180333,-151.40878552491102Z" fill-rule="evenodd" style="fill: #1DC690; stroke: #fff; opacity: 1;" id="p-type-logs"></path><path d="M91.96743010086347,-174.2153604038484A197,197,0,0,1,93.1405897736452,-173.590986334595L80.66211686744184,-150.33420403375658A170.6070045455344,170.6070045455344,0,0,0,79.64613078811742,-150.8749278391943Z" fill-rule="evenodd" style="fill: #1DC690; stroke: #fff; opacity: 1;" id="p-type-logs"></path><path d="M93.1405897736452,-173.590986334595A197,197,0,0,1,94.30951074057015,-172.95871236764654L81.67443211981511,-149.78663871622766A170.6070045455344,170.6070045455344,0,0,0,80.66211686744184,-150.33420403375658Z" fill-rule="evenodd" style="fill: #1DC690; stroke: #fff; opacity: 1;" id="p-type-logs"></path><path d="M94.30951074057015,-172.95871236764654A197,197,0,0,1,95.47413980558105,-172.3185672769605L82.68303047610027,-149.23225680558568A170.6070045455344,170.6070045455344,0,0,0,81.67443211981511,-149.78663871622766Z" fill-rule="evenodd" style="fill: #1DC690; stroke: #fff; opacity: 1;" id="p-type-logs"></path><path d="M95.47413980558105,-172.3185672769605A197,197,0,0,1,96.6344239679394,-171.67058019469889L83.68786603631135,-148.67108353102296A170.6070045455344,170.6070045455344,0,0,0,82.68303047610027,-149.23225680558568Z" fill-rule="evenodd" style="fill: #1DC690; stroke: #fff; opacity: 1;" id="p-type-logs"></path><path d="M96.6344239679394,-171.67058019469889A197,197,0,0,1,97.79031042463754,-171.01478060990235L84.68889307170231,-148.10314443079787A170.6070045455344,170.6070045455344,0,0,0,83.68786603631135,-148.67108353102296Z" fill-rule="evenodd" style="fill: #1DC690; stroke: #fff; opacity: 1;" id="p-type-logs"></path><path d="M97.79031042463754,-171.01478060990235A197,197,0,0,1,98.94174657280162,-170.35119836714827L85.68606602684811,-147.52846535107258A170.6070045455344,170.6070045455344,0,0,0,84.68889307170231,-148.10314443079787Z" fill-rule="evenodd" style="fill: #1DC690; stroke: #fff; opacity: 1;" id="p-type-logs"></path><path d="M98.94174657280162,-170.35119836714827A197,197,0,0,1,100.08868001208555,-169.6798636651926L86.67933952171786,-146.94707244473693A170.6070045455344,170.6070045455344,0,0,0,85.68606602684811,-147.52846535107258Z" fill-rule="evenodd" style="fill: #1DC690; stroke: #fff; opacity: 1;" id="p-type-logs"></path><path d="M100.08868001208555,-169.6798636651926A197,197,0,0,1,101.2310585470555,-169.00080705559552L87.66866835373989,-146.3589921702181A170.6070045455344,170.6070045455344,0,0,0,86.67933952171786,-146.94707244473693Z" fill-rule="evenodd" style="fill: #1DC690; stroke: #fff; opacity: 1;" id="p-type-logs"></path><path d="M101.2310585470555,-169.00080705559552A197,197,0,0,1,102.36883018956534,-168.3140594413311L88.65400749985895,-145.76425129027675A170.6070045455344,170.6070045455344,0,0,0,87.66866835373989,-146.3589921702181Z" fill-rule="evenodd" style="fill: #1DC690; stroke: #fff; opacity: 1;" id="p-type-logs"></path><path d="M102.36883018956534,-168.3140594413311A197,197,0,0,1,103.5019431611227,-167.61965207538086L89.63531211858529,-145.1628768707888A170.6070045455344,170.6070045455344,0,0,0,88.65400749985895,-145.76425129027675Z" fill-rule="evenodd" style="fill: #1DC690; stroke: #fff; opacity: 1;" id="p-type-logs"></path><path d="M103.5019431611227,-167.61965207538086A197,197,0,0,1,104.6303458952451,-166.91761655931157L90.61253755203512,-144.5548962795139A170.6070045455344,170.6070045455344,0,0,0,89.63531211858529,-145.1628768707888Z" fill-rule="evenodd" style="fill: #1DC690; stroke: #fff; opacity: 1;" id="p-type-logs"></path><path d="M104.6303458952451,-166.91761655931157A197,197,0,0,1,105.75398703980679,-166.20798484183717L91.58563932796297,-143.9403371848499A170.6070045455344,170.6070045455344,0,0,0,90.61253755203512,-144.5548962795139Z" fill-rule="evenodd" style="fill: #1DC690; stroke: #fff; opacity: 1;" id="p-type-logs"></path><path d="M105.75398703980679,-166.20798484183717A197,197,0,0,1,106.87281545937566,-165.49078921736472L92.5545731617856,-143.3192275545737A170.6070045455344,170.6070045455344,0,0,0,91.58563932796297,-143.9403371848499Z" fill-rule="evenodd" style="fill: #1DC690; stroke: #fff; opacity: 1;" id="p-type-logs"></path><path d="M106.87281545937566,-165.49078921736472A197,197,0,0,1,107.98678023754051,-164.76606232452463L93.51929495859747,-142.6915956545684A170.6070045455344,170.6070045455344,0,0,0,92.5545731617856,-143.3192275545737Z" fill-rule="evenodd" style="fill: #1DC690; stroke: #fff; opacity: 1;" id="p-type-logs"></path><path d="M107.98678023754051,-164.76606232452463A197,197,0,0,1,109.09583067922799,-164.03383714468555L94.47976081517717,-142.05747004753715A170.6070045455344,170.6070045455344,0,0,0,93.51929495859747,-142.6915956545684Z" fill-rule="evenodd" style="fill: #1DC690; stroke: #fff; opacity: 1;" id="p-type-logs"></path><path d="M109.09583067922799,-164.03383714468555A197,197,0,0,1,110.19991631300972,-163.2941470004533L95.43592702198559,-141.41687959170304A170.6070045455344,170.6070045455344,0,0,0,94.47976081517717,-142.05747004753715Z" fill-rule="evenodd" style="fill: #1DC690; stroke: #fff; opacity: 1;" id="p-type-logs"></path><path d="M110.19991631300972,-163.2941470004533A197,197,0,0,1,111.29898689339926,-162.54702555415446L96.38775006515503,-140.76985343949607A170.6070045455344,170.6070045455344,0,0,0,95.43592702198559,-141.41687959170304Z" fill-rule="evenodd" style="fill: #1DC690; stroke: #fff; opacity: 1;" id="p-type-logs"></path><path d="M111.29898689339926,-162.54702555415446A197,197,0,0,1,112.39299240313865,-161.79250680630426L97.3351866284695,-140.1164210362262A170.6070045455344,170.6070045455344,0,0,0,96.38775006515503,-140.76985343949607Z" fill-rule="evenodd" style="fill: #1DC690; stroke: #fff; opacity: 1;" id="p-type-logs"></path><path d="M112.39299240313865,-161.79250680630426A197,197,0,0,1,113.48188305547463,-161.03062509405962L98.27819359533585,-139.45661211874355A170.6070045455344,170.6070045455344,0,0,0,97.3351866284695,-140.1164210362262Z" fill-rule="evenodd" style="fill: #1DC690; stroke: #fff; opacity: 1;" id="p-type-logs"></path><path d="M113.48188305547463,-161.03062509405962A197,197,0,0,1,114.56560929642434,-160.26141508965608L99.21672805074613,-138.7904567140849A170.6070045455344,170.6070045455344,0,0,0,98.27819359533585,-139.45661211874355Z" fill-rule="evenodd" style="fill: #1DC690; stroke: #fff; opacity: 1;" id="p-type-logs"></path><path d="M114.56560929642434,-160.26141508965608A197,197,0,0,1,115.6441218070306,-159.48491179883027L100.15074728323049,-138.11798513810754A170.6070045455344,170.6070045455344,0,0,0,99.21672805074613,-138.7904567140849Z" fill-rule="evenodd" style="fill: #1DC690; stroke: #fff; opacity: 1;" id="p-type-logs"></path><path d="M115.6441218070306,-159.48491179883027A197,197,0,0,1,116.71737150560614,-158.70115055922665L101.0802087868009,-137.43922799410925A170.6070045455344,170.6070045455344,0,0,0,100.15074728323049,-138.11798513810754Z" fill-rule="evenodd" style="fill: #1DC690; stroke: #fff; opacity: 1;" id="p-type-logs"></path><path d="M116.71737150560614,-158.70115055922665A197,197,0,0,1,117.78530954996742,-157.91016703878935L102.00507026288562,-136.7542161714357A170.6070045455344,170.6070045455344,0,0,0,101.0802087868009,-137.43922799410925Z" fill-rule="evenodd" style="fill: #1DC690; stroke: #fff; opacity: 1;" id="p-type-logs"></path><path d="M117.78530954996742,-157.91016703878935A197,197,0,0,1,118.84788733965725,-157.11199723413912L102.92528962225414,-136.06298084407496A170.6070045455344,170.6070045455344,0,0,0,102.00507026288562,-136.7542161714357Z" fill-rule="evenodd" style="fill: #1DC690; stroke: #fff; opacity: 1;" id="p-type-logs"></path><path d="M118.84788733965725,-157.11199723413912A197,197,0,0,1,119.90505651815661,-156.30667746893496L103.84082498693252,-135.36555346923842A170.6070045455344,170.6070045455344,0,0,0,102.92528962225414,-136.06298084407496Z" fill-rule="evenodd" style="fill: #1DC690; stroke: #fff; opacity: 1;" id="p-type-logs"></path><path d="M119.90505651815661,-156.30667746893496A197,197,0,0,1,120.95676897508534,-155.49424439222125L104.75163469210933,-134.6619657859296A170.6070045455344,170.6070045455344,0,0,0,103.84082498693252,-135.36555346923842Z" fill-rule="evenodd" style="fill: #1DC690; stroke: #fff; opacity: 1;" id="p-type-logs"></path><path d="M120.95676897508534,-155.49424439222125A197,197,0,0,1,122.00297684839137,-154.6747349767598L105.65767728803165,-133.95224981349944A170.6070045455344,170.6070045455344,0,0,0,104.75163469210933,-134.6619657859296Z" fill-rule="evenodd" style="fill: #1DC690; stroke: #fff; opacity: 1;" id="p-type-logs"></path><path d="M122.00297684839137,-154.6747349767598A197,197,0,0,1,123.04363252652908,-153.84818651734727L106.55891154189143,-133.2364378501893A170.6070045455344,170.6070045455344,0,0,0,105.65767728803165,-133.95224981349944Z" fill-rule="evenodd" style="fill: #1DC690; stroke: #fff; opacity: 1;" id="p-type-logs"></path><path d="M123.04363252652908,-153.84818651734727A197,197,0,0,1,124.07868865062598,-153.014636629118L107.455296439702,-132.51456247166107A170.6070045455344,170.6070045455344,0,0,0,106.55891154189143,-133.2364378501893Z" fill-rule="evenodd" style="fill: #1DC690; stroke: #fff; opacity: 1;" id="p-type-logs"></path><path d="M124.07868865062598,-153.014636629118A197,197,0,0,1,125.10809811663786,-152.17412324583216L108.34679118816447,-131.78665652951472A170.6070045455344,170.6070045455344,0,0,0,107.455296439702,-132.51456247166107Z" fill-rule="evenodd" style="fill: #1DC690; stroke: #fff; opacity: 1;" id="p-type-logs"></path><path d="M125.10809811663786,-152.17412324583216A197,197,0,0,1,126.13181407749256,-151.3266846181494L109.23335521652423,-131.0527531497932A170.6070045455344,170.6070045455344,0,0,0,108.34679118816447,-131.78665652951472Z" fill-rule="evenodd" style="fill: #1DC690; stroke: #fff; opacity: 1;" id="p-type-logs"></path><path d="M126.13181407749256,-151.3266846181494A197,197,0,0,1,127.14978994522183,-150.47235931188814L110.1149481784173,-130.31288573147506A170.6070045455344,170.6070045455344,0,0,0,109.23335521652423,-131.0527531497932Z" fill-rule="evenodd" style="fill: #1DC690; stroke: #fff; opacity: 1;" id="p-type-logs"></path><path d="M127.14978994522183,-150.47235931188814A197,197,0,0,1,128.1619793930815,-149.61118620627053L110.9915299537063,-129.56708794495427A170.6070045455344,170.6070045455344,0,0,0,110.1149481784173,-130.31288573147506Z" fill-rule="evenodd" style="fill: #1DC690; stroke: #fff; opacity: 1;" id="p-type-logs"></path><path d="M128.1619793930815,-149.61118620627053A197,197,0,0,1,129.16833635765977,-148.74320449215307L111.8630606503065,-128.8153937305082A170.6070045455344,170.6070045455344,0,0,0,110.9915299537063,-129.56708794495427Z" fill-rule="evenodd" style="fill: #1DC690; stroke: #fff; opacity: 1;" id="p-type-logs"></path><path d="M129.16833635765977,-148.74320449215307A197,197,0,0,1,130.16881504097356,-147.86845367024304L112.72950060600103,-128.05783729675278A170.6070045455344,170.6070045455344,0,0,0,111.8630606503065,-128.8153937305082Z" fill-rule="evenodd" style="fill: #1DC690; stroke: #fff; opacity: 1;" id="p-type-logs"></path><path d="M130.16881504097356,-147.86845367024304A197,197,0,0,1,131.16336991255255,-146.98697354930098L113.590810390246,-127.29445311908599A170.6070045455344,170.6070045455344,0,0,0,112.72950060600103,-128.05783729675278Z" fill-rule="evenodd" style="fill: #1DC690; stroke: #fff; opacity: 1;" id="p-type-logs"></path><path d="M131.16336991255255,-146.98697354930098A197,197,0,0,1,132.15195571151133,-146.09880424432893L114.44695080596486,-126.52527593811863A170.6070045455344,170.6070045455344,0,0,0,113.590810390246,-127.29445311908599Z" fill-rule="evenodd" style="fill: #1DC690; stroke: #fff; opacity: 1;" id="p-type-logs"></path><path d="M132.15195571151133,-146.09880424432893A197,197,0,0,1,133.1345274486092,-145.20398617474495L115.2978828913322,-125.75034075809354A170.6070045455344,170.6070045455344,0,0,0,114.44695080596486,-126.52527593811863Z" fill-rule="evenodd" style="fill: #1DC690; stroke: #fff; opacity: 1;" id="p-type-logs"></path><path d="M133.1345274486092,-145.20398617474495A197,197,0,0,1,134.11104040829744,-144.30256006254362L116.14356792154696,-124.96968284529255A170.6070045455344,170.6070045455344,0,0,0,115.2978828913322,-125.75034075809354Z" fill-rule="evenodd" style="fill: #1DC690; stroke: #fff; opacity: 1;" id="p-type-logs"></path><path d="M134.11104040829744,-144.30256006254362A197,197,0,0,1,135.0814501507544,-143.39456693044286L116.98396741059459,-124.18333772643149A170.6070045455344,170.6070045455344,0,0,0,116.14356792154696,-124.96968284529255Z" fill-rule="evenodd" style="fill: #1DC690; stroke: #fff; opacity: 1;" id="p-type-logs"></path><path d="M135.0814501507544,-143.39456693044286A197,197,0,0,1,136.04571251390774,-142.48004810001703L117.81904311299861,-123.39134118704348A170.6070045455344,170.6070045455344,0,0,0,116.98396741059459,-124.18333772643149Z" fill-rule="evenodd" style="fill: #1DC690; stroke: #fff; opacity: 1;" id="p-type-logs"></path><path d="M136.04571251390774,-142.48004810001703A197,197,0,0,1,137.00378361544435,-141.55904518981646L118.64875702556105,-122.59372926985039A170.6070045455344,170.6070045455344,0,0,0,117.81904311299861,-123.39134118704348Z" fill-rule="evenodd" style="fill: #1DC690; stroke: #fff; opacity: 1;" id="p-type-logs"></path><path d="M137.00378361544435,-141.55904518981646A197,197,0,0,1,137.9556198548073,-140.63160011347344L119.47307138909201,-121.79053827312254A170.6070045455344,170.6070045455344,0,0,0,118.64875702556105,-122.59372926985039Z" fill-rule="evenodd" style="fill: #1DC690; stroke: #fff; opacity: 1;" id="p-type-logs"></path><path d="M137.9556198548073,-140.63160011347344A197,197,0,0,1,138.90117791517997,-139.6977550777947L120.29194869012788,-120.98180474902678A170.6070045455344,170.6070045455344,0,0,0,119.47307138909201,-121.79053827312254Z" fill-rule="evenodd" style="fill: #1DC690; stroke: #fff; opacity: 1;" id="p-type-logs"></path><path d="M138.90117791517997,-139.6977550777947A197,197,0,0,1,139.84041476545752,-138.75755258084087L121.10535166263871,-120.16756550196318A170.6070045455344,170.6070045455344,0,0,0,120.29194869012788,-120.98180474902678Z" fill-rule="evenodd" style="fill: #1DC690; stroke: #fff; opacity: 1;" id="p-type-logs"></path><path d="M139.84041476545752,-138.75755258084087A197,197,0,0,1,140.77328766220495,-137.8110354099921L121.91324328972397,-119.34785758688997A170.6070045455344,170.6070045455344,0,0,0,121.10535166263871,-120.16756550196318Z" fill-rule="evenodd" style="fill: #1DC690; stroke: #fff; opacity: 1;" id="p-type-logs"></path><path d="M140.77328766220495,-137.8110354099921A197,197,0,0,1,141.69975415160258,-136.8582466400012L122.7155868052973,-118.52271830763732A170.6070045455344,170.6070045455344,0,0,0,121.91324328972397,-119.34785758688997Z" fill-rule="evenodd" style="fill: #1DC690; stroke: #fff; opacity: 1;" id="p-type-logs"></path><path d="M141.69975415160258,-136.8582466400012A197,197,0,0,1,142.61977207137772,-135.89922963103308L123.5123456957595,-117.69218521520958A170.6070045455344,170.6070045455344,0,0,0,122.7155868052973,-118.52271830763732Z" fill-rule="evenodd" style="fill: #1DC690; stroke: #fff; opacity: 1;" id="p-type-logs"></path><path d="M142.61977207137772,-135.89922963103308A197,197,0,0,1,143.53329955272383,-134.9340280266918L124.30348370166043,-116.85629610607653A170.6070045455344,170.6070045455344,0,0,0,123.5123456957595,-117.69218521520958Z" fill-rule="evenodd" style="fill: #1DC690; stroke: #fff; opacity: 1;" id="p-type-logs"></path><path d="M143.53329955272383,-134.9340280266918A197,197,0,0,1,144.4402950222055,-133.96268575203408L125.08896481934894,-116.01508902045319A170.6070045455344,170.6070045455344,0,0,0,124.30348370166043,-116.85629610607653Z" fill-rule="evenodd" style="fill: #1DC690; stroke: #fff; opacity: 1;" id="p-type-logs"></path><path d="M144.4402950222055,-133.96268575203408A197,197,0,0,1,145.3407172036507,-132.98524701157052L125.86875330261151,-115.16860224056869A170.6070045455344,170.6070045455344,0,0,0,125.08896481934894,-116.01508902045319Z" fill-rule="evenodd" style="fill: #1DC690; stroke: #fff; opacity: 1;" id="p-type-logs"></path><path d="M145.3407172036507,-132.98524701157052A197,197,0,0,1,146.2345251200291,-132.00175628725393L126.64281366429884,-114.31687428892414A170.6070045455344,170.6070045455344,0,0,0,125.86875330261151,-115.16860224056869Z" fill-rule="evenodd" style="fill: #1DC690; stroke: #fff; opacity: 1;" id="p-type-logs"></path><path d="M146.2345251200291,-132.00175628725393A197,197,0,0,1,147.1216780953168,-131.0122583364548L127.41111067794095,-113.45994392653947A170.6070045455344,170.6070045455344,0,0,0,126.64281366429884,-114.31687428892414Z" fill-rule="evenodd" style="fill: #1DC690; stroke: #fff; opacity: 1;" id="p-type-logs"></path><path d="M147.1216780953168,-131.0122583364548A197,197,0,0,1,148.0021357563477,-130.0167981899248L128.17360937935032,-112.59785015118948A170.6070045455344,170.6070045455344,0,0,0,127.41111067794095,-113.45994392653947Z" fill-rule="evenodd" style="fill: #1DC690; stroke: #fff; opacity: 1;" id="p-type-logs"></path><path d="M148.0021357563477,-130.0167981899248A197,197,0,0,1,148.8758580346504,-129.01542114974708L128.9302750682129,-111.73063219562913A170.6070045455344,170.6070045455344,0,0,0,128.17360937935032,-112.59785015118948Z" fill-rule="evenodd" style="fill: #1DC690; stroke: #fff; opacity: 1;" id="p-type-logs"></path><path d="M148.8758580346504,-129.01542114974708A197,197,0,0,1,149.74280516827218,-128.0081727872751L129.68107330966743,-110.85832952580812A170.6070045455344,170.6070045455344,0,0,0,128.9302750682129,-111.73063219562913Z" fill-rule="evenodd" style="fill: #1DC690; stroke: #fff; opacity: 1;" id="p-type-logs"></path><path d="M149.74280516827218,-128.0081727872751A197,197,0,0,1,150.60293770358805,-126.99509894105826L130.4259699358725,-109.9809818390747A170.6070045455344,170.6070045455344,0,0,0,129.68107330966743,-110.85832952580812Z" fill-rule="evenodd" style="fill: #1DC690; stroke: #fff; opacity: 1;" id="p-type-logs"></path><path d="M150.60293770358805,-126.99509894105826A197,197,0,0,1,151.45621649709656,-125.97624571475615L131.1649310475614,-109.09862906236934A170.6070045455344,170.6070045455344,0,0,0,130.4259699358725,-109.9809818390747Z" fill-rule="evenodd" style="fill: #1DC690; stroke: #fff; opacity: 1;" id="p-type-logs"></path><path d="M151.45621649709656,-125.97624571475615A197,197,0,0,1,152.30260271720095,-124.95165947504037L131.8979230155849,-108.21131135040751A170.6070045455344,170.6070045455344,0,0,0,131.1649310475614,-109.09862906236934Z" fill-rule="evenodd" style="fill: #1DC690; stroke: #fff; opacity: 1;" id="p-type-logs"></path><path d="M152.30260271720095,-124.95165947504037A197,197,0,0,1,153.14205784597655,-123.92138684948446L132.6249124824417,-107.3190690838524A170.6070045455344,170.6070045455344,0,0,0,131.8979230155849,-108.21131135040751Z" fill-rule="evenodd" style="fill: #1DC690; stroke: #fff; opacity: 1;" id="p-type-logs"></path><path d="M153.14205784597655,-123.92138684948446A197,197,0,0,1,153.97454368092338,-122.88547472444179L133.34586636379635,-106.42194286747713A170.6070045455344,170.6070045455344,0,0,0,132.6249124824417,-107.3190690838524Z" fill-rule="evenodd" style="fill: #1DC690; stroke: #fff; opacity: 1;" id="p-type-logs"></path><path d="M153.97454368092338,-122.88547472444179A197,197,0,0,1,154.80002233670496,-121.84397024291208L134.06075184998502,-105.51997352831705A170.6070045455344,170.6070045455344,0,0,0,133.34586636379635,-106.42194286747713Z" fill-rule="evenodd" style="fill: #1DC690; stroke: #fff; opacity: 1;" id="p-type-logs"></path><path d="M154.80002233670496,-121.84397024291208A197,197,0,0,1,155.61845624687237,-120.79692080239572L134.76953640750864,-104.61320211381161A170.6070045455344,170.6070045455344,0,0,0,134.06075184998502,-105.51997352831705Z" fill-rule="evenodd" style="fill: #1DC690; stroke: #fff; opacity: 1;" id="p-type-logs"></path><path d="M155.61845624687237,-120.79692080239572A197,197,0,0,1,156.42980816557375,-119.744374052737L135.47218778051328,-103.70166988993643A170.6070045455344,170.6070045455344,0,0,0,134.76953640750864,-104.61320211381161Z" fill-rule="evenodd" style="fill: #1DC690; stroke: #fff; opacity: 1;" id="p-type-logs"></path><path d="M156.42980816557375,-119.744374052737A197,197,0,0,1,157.23404116924934,-118.68637789395547L136.1686739922582,-102.78541833932526A170.6070045455344,170.6070045455344,0,0,0,135.47218778051328,-103.70166988993643Z" fill-rule="evenodd" style="fill: #1DC690; stroke: #fff; opacity: 1;" id="p-type-logs"></path><path d="M157.23404116924934,-118.68637789395547A197,197,0,0,1,158.03111865831187,-117.62298047406617L136.85896334657107,-101.86448915938229A170.6070045455344,170.6070045455344,0,0,0,136.1686739922582,-102.78541833932526Z" fill-rule="evenodd" style="fill: #1DC690; stroke: #fff; opacity: 1;" id="p-type-logs"></path><path d="M158.03111865831187,-117.62298047406617A197,197,0,0,1,158.8210043588122,-116.55423018688835L137.54302442929043,-100.93892426038438A170.6070045455344,170.6070045455344,0,0,0,136.85896334657107,-101.86448915938229Z" fill-rule="evenodd" style="fill: #1DC690; stroke: #fff; opacity: 1;" id="p-type-logs"></path><path d="M158.8210043588122,-116.55423018688835A197,197,0,0,1,159.60366232408992,-115.48017566984333L138.22082610969517,-100.00876576357398A170.6070045455344,170.6070045455344,0,0,0,137.54302442929043,-100.93892426038438Z" fill-rule="evenodd" style="fill: #1DC690; stroke: #fff; opacity: 1;" id="p-type-logs"></path><path d="M159.60366232408992,-115.48017566984333A197,197,0,0,1,160.37905693640948,-114.40086580174086L138.8923375419215,-99.074055999242A170.6070045455344,170.6070045455344,0,0,0,138.22082610969517,-100.00876576357398Z" fill-rule="evenodd" style="fill: #1DC690; stroke: #fff; opacity: 1;" id="p-type-logs"></path><path d="M160.37905693640948,-114.40086580174086A197,197,0,0,1,161.1471529085809,-113.31634970055491L139.55752816636644,-98.13483750480172A170.6070045455344,170.6070045455344,0,0,0,138.8923375419215,-99.074055999242Z" fill-rule="evenodd" style="fill: #1DC690; stroke: #fff; opacity: 1;" id="p-type-logs"></path><path d="M161.1471529085809,-113.31634970055491A197,197,0,0,1,161.9079152855657,-112.22667672118818L140.2163677110787,-97.19115302285266A170.6070045455344,170.6070045455344,0,0,0,139.55752816636644,-98.13483750480172Z" fill-rule="evenodd" style="fill: #1DC690; stroke: #fff; opacity: 1;" id="p-type-logs"></path><path d="M161.9079152855657,-112.22667672118818A197,197,0,0,1,162.66130944606775,-111.1318964532262L140.86882619313636,-96.24304549923565A170.6070045455344,170.6070045455344,0,0,0,140.2163677110787,-97.19115302285266Z" fill-rule="evenodd" style="fill: #1DC690; stroke: #fff; opacity: 1;" id="p-type-logs"></path><path d="M162.66130944606775,-111.1318964532262A197,197,0,0,1,163.40730110410874,-110.03205871868045L141.51487392001113,-95.29055808107829A170.6070045455344,170.6070045455344,0,0,0,140.86882619313636,-96.24304549923565Z" fill-rule="evenodd" style="fill: #1DC690; stroke: #fff; opacity: 1;" id="p-type-logs"></path><path d="M163.40730110410874,-110.03205871868045A197,197,0,0,1,164.14585631058853,-108.92721356972105L142.1544814909199,-94.33373411483146A170.6070045455344,170.6070045455344,0,0,0,141.51487392001113,-95.29055808107829Z" fill-rule="evenodd" style="fill: #1DC690; stroke: #fff; opacity: 1;" id="p-type-logs"></path><path d="M164.14585631058853,-108.92721356972105A197,197,0,0,1,164.8769414548301,-107.81741128639902L142.7876197981625,-93.37261714429661A170.6070045455344,170.6070045455344,0,0,0,142.1544814909199,-94.33373411483146Z" fill-rule="evenodd" style="fill: #1DC690; stroke: #fff; opacity: 1;" id="p-type-logs"></path><path d="M164.8769414548301,-107.81741128639902A197,197,0,0,1,165.60052326610918,-106.70270237435803L143.41426002844653,-92.40725090864419A170.6070045455344,170.6070045455344,0,0,0,142.7876197981625,-93.37261714429661Z" fill-rule="evenodd" style="fill: #1DC690; stroke: #fff; opacity: 1;" id="p-type-logs"></path><path d="M165.60052326610918,-106.70270237435803A197,197,0,0,1,166.3165688151683,-105.58313756253597L144.03437366419848,-91.43767934042314A170.6070045455344,170.6070045455344,0,0,0,143.41426002844653,-92.40725090864419Z" fill-rule="evenodd" style="fill: #1DC690; stroke: #fff; opacity: 1;" id="p-type-logs"></path><path d="M166.3165688151683,-105.58313756253597A197,197,0,0,1,167.02504551571533,-104.45876780085636L144.6479324848616,-90.46394656356155A170.6070045455344,170.6070045455344,0,0,0,144.03437366419848,-91.43767934042314Z" fill-rule="evenodd" style="fill: #1DC690; stroke: #fff; opacity: 1;" id="p-type-logs"></path><path d="M167.02504551571533,-104.45876780085636A197,197,0,0,1,167.72592112590658,-103.32964425790968L145.25490856818016,-89.48609689135863A170.6070045455344,170.6070045455344,0,0,0,144.6479324848616,-90.46394656356155Z" fill-rule="evenodd" style="fill: #1DC690; stroke: #fff; opacity: 1;" id="p-type-logs"></path><path d="M167.72592112590658,-103.32964425790968A197,197,0,0,1,168.41916374981398,-102.1958183186247L145.85527429147015,-88.50417482446808A170.6070045455344,170.6070045455344,0,0,0,145.25490856818016,-89.48609689135863Z" fill-rule="evenodd" style="fill: #1DC690; stroke: #fff; opacity: 1;" id="p-type-logs"></path><path d="M168.41916374981398,-102.1958183186247A197,197,0,0,1,169.10474183887658,-101.05734158193012L146.44900233287635,-87.51822504887298A170.6070045455344,170.6070045455344,0,0,0,145.85527429147015,-88.50417482446808Z" fill-rule="evenodd" style="fill: #1DC690; stroke: #fff; opacity: 1;" id="p-type-logs"></path><path d="M173.49518435670566,93.31892093800012A197,197,0,0,1,172.86170955222966,94.48719156944287L149.70263181383805,81.82830823138437A170.6070045455344,170.6070045455344,0,0,0,150.25123708717163,80.81655618605966Z" fill-rule="evenodd" style="fill: #D7A449; stroke: #fff; opacity: 1;" id="p-type-tokenTransfers"></path><path d="M172.86170955222966,94.48719156944287A197,197,0,0,1,172.22036803848675,95.6511622129505L149.14721377043512,82.8363363779213A170.6070045455344,170.6070045455344,0,0,0,149.70263181383805,81.82830823138437Z" fill-rule="evenodd" style="fill: #D7A449; stroke: #fff; opacity: 1;" id="p-type-tokenTransfers"></path><path d="M172.22036803848675,95.6511622129505A197,197,0,0,1,171.57118900208656,96.81077989774842L148.58500823330826,83.84059475163399A170.6070045455344,170.6070045455344,0,0,0,149.14721377043512,82.8363363779213Z" fill-rule="evenodd" style="fill: #D7A449; stroke: #fff; opacity: 1;" id="p-type-tokenTransfers"></path><path d="M171.57118900208656,96.81077989774842A197,197,0,0,1,170.91420198631403,97.96599185115952L148.0160407876927,84.84103765004345A170.6070045455344,170.6070045455344,0,0,0,148.58500823330826,83.84059475163399Z" fill-rule="evenodd" style="fill: #D7A449; stroke: #fff; opacity: 1;" id="p-type-tokenTransfers"></path><path d="M170.91420198631403,97.96599185115952A197,197,0,0,1,170.24943688978496,99.11674550100567L147.44033732654933,85.83761954430787A170.6070045455344,170.6070045455344,0,0,0,148.0160407876927,84.84103765004345Z" fill-rule="evenodd" style="fill: #D7A449; stroke: #fff; opacity: 1;" id="p-type-tokenTransfers"></path><path d="M170.24943688978496,99.11674550100567A197,197,0,0,1,169.57692396508543,100.26298847800038L146.85792404938616,86.83029508129479A170.6070045455344,170.6070045455344,0,0,0,147.44033732654933,85.83761954430787Z" fill-rule="evenodd" style="fill: #D7A449; stroke: #fff; opacity: 1;" id="p-type-tokenTransfers"></path><path d="M169.57692396508543,100.26298847800038A197,197,0,0,1,168.89669381739498,101.40466861813184L146.2688274610662,87.81901908564483A170.6070045455344,170.6070045455344,0,0,0,146.85792404938616,86.83029508129479Z" fill-rule="evenodd" style="fill: #D7A449; stroke: #fff; opacity: 1;" id="p-type-tokenTransfers"></path><path d="M168.89669381739498,101.40466861813184A197,197,0,0,1,168.20877740309382,102.54173396503703L145.67307437060109,88.80374656182768A170.6070045455344,170.6070045455344,0,0,0,146.2688274610662,87.81901908564483Z" fill-rule="evenodd" style="fill: #D7A449; stroke: #fff; opacity: 1;" id="p-type-tokenTransfers"></path><path d="M168.20877740309382,102.54173396503703A197,197,0,0,1,167.51320602835412,103.67413277236608L145.07069188993123,89.78443269618984A170.6070045455344,170.6070045455344,0,0,0,145.67307437060109,88.80374656182768Z" fill-rule="evenodd" style="fill: #D7A449; stroke: #fff; opacity: 1;" id="p-type-tokenTransfers"></path><path d="M167.51320602835412,103.67413277236608A197,197,0,0,1,166.8100113477151,104.80181350613721L144.46170743269175,90.7610328589939A170.6070045455344,170.6070045455344,0,0,0,145.07069188993123,89.78443269618984Z" fill-rule="evenodd" style="fill: #D7A449; stroke: #fff; opacity: 1;" id="p-type-tokenTransfers"></path><path d="M166.8100113477151,104.80181350613721A197,197,0,0,1,166.09922536264273,105.92472484708195L143.84614871296515,91.7335026064497A170.6070045455344,170.6070045455344,0,0,0,144.46170743269175,90.7610328589939Z" fill-rule="evenodd" style="fill: #D7A449; stroke: #fff; opacity: 1;" id="p-type-tokenTransfers"></path><path d="M166.09922536264273,105.92472484708195A197,197,0,0,1,165.38088042007328,107.04281569298064L143.22404374401992,92.7017976827368A170.6070045455344,170.6070045455344,0,0,0,143.84614871296515,91.7335026064497Z" fill-rule="evenodd" style="fill: #D7A449; stroke: #fff; opacity: 1;" id="p-type-tokenTransfers"></path><path d="M165.38088042007328,107.04281569298064A197,197,0,0,1,164.65500921094116,108.15603516098803L142.5954208370358,93.6658740220186A170.6070045455344,170.6070045455344,0,0,0,143.22404374401992,92.7017976827368Z" fill-rule="evenodd" style="fill: #D7A449; stroke: #fff; opacity: 1;" id="p-type-tokenTransfers"></path><path d="M164.65500921094116,108.15603516098803A197,197,0,0,1,163.92164476869135,109.26433258994886L141.96030859981525,94.62568775044767A170.6070045455344,170.6070045455344,0,0,0,142.5954208370358,93.6658740220186Z" fill-rule="evenodd" style="fill: #D7A449; stroke: #fff; opacity: 1;" id="p-type-tokenTransfers"></path><path d="M163.92164476869135,109.26433258994886A197,197,0,0,1,163.180820467776,110.36765754270341L141.3187359354817,95.58119518816237A170.6070045455344,170.6070045455344,0,0,0,141.96030859981525,94.62568775044767Z" fill-rule="evenodd" style="fill: #D7A449; stroke: #fff; opacity: 1;" id="p-type-tokenTransfers"></path><path d="M163.180820467776,110.36765754270341A197,197,0,0,1,162.4325700221356,111.46595980838282L140.67073204116406,96.53235285127474A170.6070045455344,170.6070045455344,0,0,0,141.3187359354817,95.58119518816237Z" fill-rule="evenodd" style="fill: #D7A449; stroke: #fff; opacity: 1;" id="p-type-tokenTransfers"></path><path d="M162.4325700221356,111.46595980838282A197,197,0,0,1,161.67692748366477,112.55918940469411L140.01632640666818,97.47911745384933A170.6070045455344,170.6070045455344,0,0,0,140.67073204116406,96.53235285127474Z" fill-rule="evenodd" style="fill: #D7A449; stroke: #fff; opacity: 1;" id="p-type-tokenTransfers"></path><path d="M161.67692748366477,112.55918940469411A197,197,0,0,1,160.91392724066256,113.64729658019482L139.35554881313456,98.42144590987307A170.6070045455344,170.6070045455344,0,0,0,140.01632640666818,97.47911745384933Z" fill-rule="evenodd" style="fill: #D7A449; stroke: #fff; opacity: 1;" id="p-type-tokenTransfers"></path><path d="M160.91392724066256,113.64729658019482A197,197,0,0,1,160.14360401626743,114.73023181655712L138.68842933168324,99.35929533521613A170.6070045455344,170.6070045455344,0,0,0,139.35554881313456,98.42144590987307Z" fill-rule="evenodd" style="fill: #D7A449; stroke: #fff; opacity: 1;" id="p-type-tokenTransfers"></path><path d="M160.14360401626743,114.73023181655712A197,197,0,0,1,159.36599286687718,115.80794583082137L138.01499832204527,100.29262304958347A170.6070045455344,170.6070045455344,0,0,0,138.68842933168324,99.35929533521613Z" fill-rule="evenodd" style="fill: #D7A449; stroke: #fff; opacity: 1;" id="p-type-tokenTransfers"></path><path d="M159.36599286687718,115.80794583082137A197,197,0,0,1,158.58112918055343,116.88038957763884L137.335286431181,101.22138657845716A170.6070045455344,170.6070045455344,0,0,0,138.01499832204527,100.29262304958347Z" fill-rule="evenodd" style="fill: #D7A449; stroke: #fff; opacity: 1;" id="p-type-tokenTransfers"></path><path d="M158.58112918055343,116.88038957763884A197,197,0,0,1,157.7890486754113,117.94751425150378L136.64932459188552,102.14554365502939A170.6070045455344,170.6070045455344,0,0,0,137.335286431181,101.22138657845716Z" fill-rule="evenodd" style="fill: #D7A449; stroke: #fff; opacity: 1;" id="p-type-tokenTransfers"></path><path d="M157.7890486754113,117.94751425150378A197,197,0,0,1,156.98978739799375,119.00927128897443L135.9571440213807,103.06505222212589A170.6070045455344,170.6070045455344,0,0,0,136.64932459188552,102.14554365502939Z" fill-rule="evenodd" style="fill: #D7A449; stroke: #fff; opacity: 1;" id="p-type-tokenTransfers"></path><path d="M156.98978739799375,119.00927128897443A197,197,0,0,1,156.1833817216314,120.06561237088317L135.25877621989494,103.97987043411999A170.6070045455344,170.6070045455344,0,0,0,135.9571440213807,103.06505222212589Z" fill-rule="evenodd" style="fill: #D7A449; stroke: #fff; opacity: 1;" id="p-type-tokenTransfers"></path><path d="M156.1833817216314,120.06561237088317A197,197,0,0,1,155.3698683447869,121.11648942453533L134.55425296922914,104.88995665883691A170.6070045455344,170.6070045455344,0,0,0,135.25877621989494,103.97987043411999Z" fill-rule="evenodd" style="fill: #D7A449; stroke: #fff; opacity: 1;" id="p-type-tokenTransfers"></path><path d="M155.3698683447869,121.11648942453533A197,197,0,0,1,154.54928428938516,122.16185462589704L133.84360633131078,105.79526947944836A170.6070045455344,170.6070045455344,0,0,0,134.55425296922914,104.88995665883691Z" fill-rule="evenodd" style="fill: #D7A449; stroke: #fff; opacity: 1;" id="p-type-tokenTransfers"></path><path d="M154.54928428938516,122.16185462589704A197,197,0,0,1,153.72166689912828,123.20166040177155L133.12686864673455,106.69576769635749A170.6070045455344,170.6070045455344,0,0,0,133.84360633131078,105.79526947944836Z" fill-rule="evenodd" style="fill: #D7A449; stroke: #fff; opacity: 1;" id="p-type-tokenTransfers"></path><path d="M153.72166689912828,123.20166040177155A197,197,0,0,1,152.88705383779626,124.23585943196429L132.40407253329073,107.59141032907363A170.6070045455344,170.6070045455344,0,0,0,133.12686864673455,106.69576769635749Z" fill-rule="evenodd" style="fill: #D7A449; stroke: #fff; opacity: 1;" id="p-type-tokenTransfers"></path><path d="M152.88705383779626,124.23585943196429A197,197,0,0,1,152.04548308753286,125.26440465143624L131.67525088448068,108.48215661807738A170.6070045455344,170.6070045455344,0,0,0,132.40407253329073,107.59141032907363Z" fill-rule="evenodd" style="fill: #D7A449; stroke: #fff; opacity: 1;" id="p-type-tokenTransfers"></path><path d="M152.04548308753286,125.26440465143624A197,197,0,0,1,151.19699294711708,126.287249252446L130.94043686802,109.36796602667559A170.6070045455344,170.6070045455344,0,0,0,131.67525088448068,108.48215661807738Z" fill-rule="evenodd" style="fill: #D7A449; stroke: #fff; opacity: 1;" id="p-type-tokenTransfers"></path><path d="M151.19699294711708,126.287249252446A197,197,0,0,1,150.3416220302204,127.30434668667975L130.19966392432906,110.248798242846A170.6070045455344,170.6070045455344,0,0,0,130.94043686802,109.36796602667559Z" fill-rule="evenodd" style="fill: #D7A449; stroke: #fff; opacity: 1;" id="p-type-tokenTransfers"></path><path d="M150.3416220302204,127.30434668667975A197,197,0,0,1,149.47940926364925,128.31565066736968L129.45296576501121,111.12461318107181A170.6070045455344,170.6070045455344,0,0,0,130.19966392432906,110.248798242846Z" fill-rule="evenodd" style="fill: #D7A449; stroke: #fff; opacity: 1;" id="p-type-tokenTransfers"></path><path d="M149.47940926364925,128.31565066736968A197,197,0,0,1,148.61039388557376,129.32111517140046L128.70037637131847,111.99537098416597A170.6070045455344,170.6070045455344,0,0,0,129.45296576501121,111.12461318107181Z" fill-rule="evenodd" style="fill: #D7A449; stroke: #fff; opacity: 1;" id="p-type-tokenTransfers"></path><path d="M148.61039388557376,129.32111517140046A197,197,0,0,1,147.7346154437419,130.32069444140367L127.94192999260532,112.86103202508507A170.6070045455344,170.6070045455344,0,0,0,128.70037637131847,111.99537098416597Z" fill-rule="evenodd" style="fill: #D7A449; stroke: #fff; opacity: 1;" id="p-type-tokenTransfers"></path><path d="M147.7346154437419,130.32069444140367A197,197,0,0,1,146.8521137936798,131.31434298784012L127.17766114476989,113.72155690873252A170.6070045455344,170.6070045455344,0,0,0,127.94192999260532,112.86103202508507Z" fill-rule="evenodd" style="fill: #D7A449; stroke: #fff; opacity: 1;" id="p-type-tokenTransfers"></path><path d="M146.8521137936798,131.31434298784012A197,197,0,0,1,145.962929096878,132.3020155910701L126.40760460868316,114.57690647375159A170.6070045455344,170.6070045455344,0,0,0,127.17766114476989,113.72155690873252Z" fill-rule="evenodd" style="fill: #D7A449; stroke: #fff; opacity: 1;" id="p-type-tokenTransfers"></path><path d="M145.962929096878,132.3020155910701A197,197,0,0,1,145.06710181896372,133.28366730341122L125.63179542860632,115.42704179430748A170.6070045455344,170.6070045455344,0,0,0,126.40760460868316,114.57690647375159Z" fill-rule="evenodd" style="fill: #D7A449; stroke: #fff; opacity: 1;" id="p-type-tokenTransfers"></path><path d="M145.06710181896372,133.28366730341122A197,197,0,0,1,144.16467272785926,134.2592534511839L124.85026891059576,116.27192418185882A170.6070045455344,170.6070045455344,0,0,0,125.63179542860632,115.42704179430748Z" fill-rule="evenodd" style="fill: #D7A449; stroke: #fff; opacity: 1;" id="p-type-tokenTransfers"></path><path d="M144.16467272785926,134.2592534511839A197,197,0,0,1,143.25568289192677,135.22872963674445L124.06306062089637,117.11151518691828A170.6070045455344,170.6070045455344,0,0,0,124.85026891059576,116.27192418185882Z" fill-rule="evenodd" style="fill: #D7A449; stroke: #fff; opacity: 1;" id="p-type-tokenTransfers"></path><path d="M143.25568289192677,135.22872963674445A197,197,0,0,1,142.3401736780993,136.1920517405055L123.27020638432307,117.94577660080242A170.6070045455344,170.6070045455344,0,0,0,124.06306062089637,117.11151518691828Z" fill-rule="evenodd" style="fill: #D7A449; stroke: #fff; opacity: 1;" id="p-type-tokenTransfers"></path><path d="M142.3401736780993,136.1920517405055A197,197,0,0,1,141.41818674999826,137.1491759229439L122.4717422826304,118.77467045737049A170.6070045455344,170.6070045455344,0,0,0,123.27020638432307,117.94577660080242Z" fill-rule="evenodd" style="fill: #D7A449; stroke: #fff; opacity: 1;" id="p-type-tokenTransfers"></path><path d="M141.41818674999826,137.1491759229439A197,197,0,0,1,140.48976406603728,138.10005862659574L121.66770465287046,119.59815903475221A170.6070045455344,170.6070045455344,0,0,0,122.4717422826304,118.77467045737049Z" fill-rule="evenodd" style="fill: #D7A449; stroke: #fff; opacity: 1;" id="p-type-tokenTransfers"></path><path d="M140.48976406603728,138.10005862659574A197,197,0,0,1,139.55494787751277,139.0446565780386L120.85813008573928,120.41620485706449A170.6070045455344,170.6070045455344,0,0,0,121.66770465287046,119.59815903475221Z" fill-rule="evenodd" style="fill: #D7A449; stroke: #fff; opacity: 1;" id="p-type-tokenTransfers"></path><path d="M139.55494787751277,139.0446565780386A197,197,0,0,1,138.61378072668114,139.98292678986093L120.04305542391168,121.22877069611681A170.6070045455344,170.6070045455344,0,0,0,120.85813008573928,120.41620485706449Z" fill-rule="evenodd" style="fill: #D7A449; stroke: #fff; opacity: 1;" id="p-type-tokenTransfers"></path><path d="M138.61378072668114,139.98292678986093A197,197,0,0,1,137.66630544482277,140.91482656261817L119.22251776036451,122.03581957310553A170.6070045455344,170.6070045455344,0,0,0,120.04305542391168,121.22877069611681Z" fill-rule="evenodd" style="fill: #D7A449; stroke: #fff; opacity: 1;" id="p-type-tokenTransfers"></path><path d="M137.66630544482277,140.91482656261817A197,197,0,0,1,136.71256515029285,141.84031348677618L118.39655443668872,122.83731476029669A170.6070045455344,170.6070045455344,0,0,0,119.22251776036451,122.03581957310553Z" fill-rule="evenodd" style="fill: #D7A449; stroke: #fff; opacity: 1;" id="p-type-tokenTransfers"></path><path d="M136.71256515029285,141.84031348677618A197,197,0,0,1,135.75260324655886,142.7593454446411L117.56520304138984,123.63321978269748A170.6070045455344,170.6070045455344,0,0,0,118.39655443668872,122.83731476029669Z" fill-rule="evenodd" style="fill: #D7A449; stroke: #fff; opacity: 1;" id="p-type-tokenTransfers"></path><path d="M135.75260324655886,142.7593454446411A197,197,0,0,1,134.78646342022583,143.67188061227614L116.72850140817754,124.4234984197161A170.6070045455344,170.6070045455344,0,0,0,117.56520304138984,123.63321978269748Z" fill-rule="evenodd" style="fill: #D7A449; stroke: #fff; opacity: 1;" id="p-type-tokenTransfers"></path><path d="M134.78646342022583,143.67188061227614A197,197,0,0,1,133.81418963904767,144.57787746140485L115.88648761424369,125.2081147068102A170.6070045455344,170.6070045455344,0,0,0,116.72850140817754,124.4234984197161Z" fill-rule="evenodd" style="fill: #D7A449; stroke: #fff; opacity: 1;" id="p-type-tokenTransfers"></path><path d="M133.81418963904767,144.57787746140485A197,197,0,0,1,132.83582614992667,145.47729476130104L115.03919997852972,125.98703293712353A170.6070045455344,170.6070045455344,0,0,0,115.88648761424369,125.2081147068102Z" fill-rule="evenodd" style="fill: #D7A449; stroke: #fff; opacity: 1;" id="p-type-tokenTransfers"></path><path d="M132.83582614992667,145.47729476130104A197,197,0,0,1,131.85141747689966,146.3700915806652L114.18667705998261,126.76021766311084A170.6070045455344,170.6070045455344,0,0,0,115.03919997852972,125.98703293712353Z" fill-rule="evenodd" style="fill: #D7A449; stroke: #fff; opacity: 1;" id="p-type-tokenTransfers"></path><path d="M131.85141747689966,146.3700915806652A197,197,0,0,1,130.86100841911187,147.25622728948724L113.3289576558002,127.52763369815126A170.6070045455344,170.6070045455344,0,0,0,114.18667705998261,126.76021766311084Z" fill-rule="evenodd" style="fill: #D7A449; stroke: #fff; opacity: 1;" id="p-type-tokenTransfers"></path><path d="M130.86100841911187,147.25622728948724A197,197,0,0,1,129.86464404877822,148.13566156089536L112.46608079966553,128.28924611814935A170.6070045455344,170.6070045455344,0,0,0,113.3289576558002,127.52763369815126Z" fill-rule="evenodd" style="fill: #D7A449; stroke: #fff; opacity: 1;" id="p-type-tokenTransfers"></path><path d="M129.86464404877822,148.13566156089536A197,197,0,0,1,128.8623697091319,149.00835437299145L111.59808575997059,129.04502026312463A170.6070045455344,170.6070045455344,0,0,0,112.46608079966553,128.28924611814935Z" fill-rule="evenodd" style="fill: #D7A449; stroke: #fff; opacity: 1;" id="p-type-tokenTransfers"></path><path d="M128.8623697091319,149.00835437299145A197,197,0,0,1,127.85423101236125,149.8742660106723L110.72501203802905,129.79492173878884A170.6070045455344,170.6070045455344,0,0,0,111.59808575997059,129.04502026312463Z" fill-rule="evenodd" style="fill: #D7A449; stroke: #fff; opacity: 1;" id="p-type-tokenTransfers"></path><path d="M127.85423101236125,149.8742660106723A197,197,0,0,1,126.84027383753366,150.73335706743705L109.84689936627885,130.53891641811114A170.6070045455344,170.6070045455344,0,0,0,110.72501203802905,129.79492173878884Z" fill-rule="evenodd" style="fill: #D7A449; stroke: #fff; opacity: 1;" id="p-type-tokenTransfers"></path><path d="M126.84027383753366,150.73335706743705A197,197,0,0,1,125.82054432850782,151.58558844718056L108.96378770647384,131.27697044287126A170.6070045455344,170.6070045455344,0,0,0,109.84689936627885,130.53891641811114Z" fill-rule="evenodd" style="fill: #D7A449; stroke: #fff; opacity: 1;" id="p-type-tokenTransfers"></path><path d="M125.82054432850782,151.58558844718056A197,197,0,0,1,124.79508889183383,152.43092136597252L108.0757172478653,132.00905022520035A170.6070045455344,170.6070045455344,0,0,0,108.96378770647384,131.27697044287126Z" fill-rule="evenodd" style="fill: #D7A449; stroke: #fff; opacity: 1;" id="p-type-tokenTransfers"></path><path d="M124.79508889183383,152.43092136597252A197,197,0,0,1,123.76395419464119,153.26931735382252L107.1827284053729,132.7351224491094A170.6070045455344,170.6070045455344,0,0,0,108.0757172478653,132.00905022520035Z" fill-rule="evenodd" style="fill: #D7A449; stroke: #fff; opacity: 1;" id="p-type-tokenTransfers"></path><path d="M123.76395419464119,153.26931735382252A197,197,0,0,1,122.72718716251507,154.1007382564308L106.28486181774548,133.45515407200557A170.6070045455344,170.6070045455344,0,0,0,107.1827284053729,132.7351224491094Z" fill-rule="evenodd" style="fill: #D7A449; stroke: #fff; opacity: 1;" id="p-type-tokenTransfers"></path><path d="M122.72718716251507,154.1007382564308A197,197,0,0,1,121.68483497736084,154.92514623692458L105.3821583457117,134.1691123261958A170.6070045455344,170.6070045455344,0,0,0,106.28486181774548,133.45515407200557Z" fill-rule="evenodd" style="fill: #D7A449; stroke: #fff; opacity: 1;" id="p-type-tokenTransfers"></path><path d="M121.68483497736084,154.92514623692458A197,197,0,0,1,120.63694507525682,155.74250377757983L104.47465907012044,134.87696472037803A170.6070045455344,170.6070045455344,0,0,0,105.3821583457117,134.1691123261958Z" fill-rule="evenodd" style="fill: #D7A449; stroke: #fff; opacity: 1;" id="p-type-tokenTransfers"></path><path d="M120.63694507525682,155.74250377757983A197,197,0,0,1,119.58356514429559,156.55277368152892L103.56240529007131,135.57867904111993A170.6070045455344,170.6070045455344,0,0,0,104.47465907012044,134.87696472037803Z" fill-rule="evenodd" style="fill: #D7A449; stroke: #fff; opacity: 1;" id="p-type-tokenTransfers"></path><path d="M119.58356514429559,156.55277368152892A197,197,0,0,1,118.52474312241367,157.35591907445317L102.64543852103516,136.27422335432476A170.6070045455344,170.6070045455344,0,0,0,103.56240529007131,135.57867904111993Z" fill-rule="evenodd" style="fill: #D7A449; stroke: #fff; opacity: 1;" id="p-type-tokenTransfers"></path><path d="M118.52474312241367,157.35591907445317A197,197,0,0,1,117.46052719521,158.15190340626106L101.72380049296478,136.96356600668477A170.6070045455344,170.6070045455344,0,0,0,102.64543852103516,136.27422335432476Z" fill-rule="evenodd" style="fill: #D7A449; stroke: #fff; opacity: 1;" id="p-type-tokenTransfers"></path><path d="M117.46052719521,158.15190340626106A197,197,0,0,1,116.39096579375314,158.94069045275154L100.79753314839586,137.64667562712162A170.6070045455344,170.6070045455344,0,0,0,101.72380049296478,136.96356600668477Z" fill-rule="evenodd" style="fill: #D7A449; stroke: #fff; opacity: 1;" id="p-type-tokenTransfers"></path><path d="M116.39096579375314,158.94069045275154A197,197,0,0,1,115.31610759237704,159.72224431726258L99.8666786405381,138.32352112821408A170.6070045455344,170.6070045455344,0,0,0,100.79753314839586,137.64667562712162Z" fill-rule="evenodd" style="fill: #D7A449; stroke: #fff; opacity: 1;" id="p-type-tokenTransfers"></path><path d="M115.31610759237704,159.72224431726258A197,197,0,0,1,114.23600150646615,160.49652943230473L98.93127933135709,138.99407170761273A170.6070045455344,170.6070045455344,0,0,0,99.8666786405381,138.32352112821408Z" fill-rule="evenodd" style="fill: #D7A449; stroke: #fff; opacity: 1;" id="p-type-tokenTransfers"></path><path d="M114.23600150646615,160.49652943230473A197,197,0,0,1,113.15069669022921,161.2635105611798L97.9913777896463,139.65829684944183A170.6070045455344,170.6070045455344,0,0,0,98.93127933135709,138.99407170761273Z" fill-rule="evenodd" style="fill: #D7A449; stroke: #fff; opacity: 1;" id="p-type-tokenTransfers"></path><path d="M113.15069669022921,161.2635105611798A197,197,0,0,1,112.06024253446236,162.0231527995844L97.0470167890899,140.31616632568787A170.6070045455344,170.6070045455344,0,0,0,97.9913777896463,139.65829684944183Z" fill-rule="evenodd" style="fill: #D7A449; stroke: #fff; opacity: 1;" id="p-type-tokenTransfers"></path><path d="M112.06024253446236,162.0231527995844A197,197,0,0,1,110.96468866430136,162.7754215771984L96.0982393063161,140.96765019757547A170.6070045455344,170.6070045455344,0,0,0,97.0470167890899,140.31616632568787Z" fill-rule="evenodd" style="fill: #D7A449; stroke: #fff; opacity: 1;" id="p-type-tokenTransfers"></path><path d="M110.96468866430136,162.7754215771984A197,197,0,0,1,109.86408493696338,163.5202826592582L95.14508851894158,141.61271881692963A170.6070045455344,170.6070045455344,0,0,0,96.0982393063161,140.96765019757547Z" fill-rule="evenodd" style="fill: #D7A449; stroke: #fff; opacity: 1;" id="p-type-tokenTransfers"></path><path d="M109.86408493696338,163.5202826592582A197,197,0,0,1,108.75848143947785,164.25770214811467L94.18760780360617,142.25134282752506A170.6070045455344,170.6070045455344,0,0,0,95.14508851894158,141.61271881692963Z" fill-rule="evenodd" style="fill: #D7A449; stroke: #fff; opacity: 1;" id="p-type-tokenTransfers"></path><path d="M108.75848143947785,164.25770214811467A197,197,0,0,1,107.64792848640721,164.9876464847758L93.22584073399918,142.8834931664222A170.6070045455344,170.6070045455344,0,0,0,94.18760780360617,142.25134282752506Z" fill-rule="evenodd" style="fill: #D7A449; stroke: #fff; opacity: 1;" id="p-type-tokenTransfers"></path><path d="M107.64792848640721,164.9876464847758A197,197,0,0,1,106.53247661755715,165.71008245043402L92.25983107887619,143.50914106528973A170.6070045455344,170.6070045455344,0,0,0,93.22584073399918,142.8834931664222Z" fill-rule="evenodd" style="fill: #D7A449; stroke: #fff; opacity: 1;" id="p-type-tokenTransfers"></path><path d="M106.53247661755715,165.71008245043402A197,197,0,0,1,105.41217659567654,166.42497716797772L91.28962280006732,144.12825805171389A170.6070045455344,170.6070045455344,0,0,0,92.25983107887619,143.50914106528973Z" fill-rule="evenodd" style="fill: #D7A449; stroke: #fff; opacity: 1;" id="p-type-tokenTransfers"></path><path d="M105.41217659567654,166.42497716797772A197,197,0,0,1,104.28707940414733,167.13229810348767L90.31526005047651,144.74081595049407A170.6070045455344,170.6070045455344,0,0,0,91.28962280006732,144.12825805171389Z" fill-rule="evenodd" style="fill: #D7A449; stroke: #fff; opacity: 1;" id="p-type-tokenTransfers"></path><path d="M104.28707940414733,167.13229810348767A197,197,0,0,1,103.15723624466439,167.8320130677175L89.3367871720722,145.34678688492522A170.6070045455344,170.6070045455344,0,0,0,90.31526005047651,144.74081595049407Z" fill-rule="evenodd" style="fill: #D7A449; stroke: #fff; opacity: 1;" id="p-type-tokenTransfers"></path><path d="M103.15723624466439,167.8320130677175A197,197,0,0,1,102.0226985349053,168.5240902175586L88.35424869386942,145.94614327806636A170.6070045455344,170.6070045455344,0,0,0,89.3367871720722,145.34678688492522Z" fill-rule="evenodd" style="fill: #D7A449; stroke: #fff; opacity: 1;" id="p-type-tokenTransfers"></path><path d="M102.0226985349053,168.5240902175586A197,197,0,0,1,100.88351790619052,169.20849805748924L87.36768932990329,146.53885785399552A170.6070045455344,170.6070045455344,0,0,0,88.35424869386942,145.94614327806636Z" fill-rule="evenodd" style="fill: #D7A449; stroke: #fff; opacity: 1;" id="p-type-tokenTransfers"></path><path d="M100.88351790619052,169.20849805748924A197,197,0,0,1,99.73974620113356,169.8852054410079L86.37715397719413,147.12490363905118A170.6070045455344,170.6070045455344,0,0,0,87.36768932990329,146.53885785399552Z" fill-rule="evenodd" style="fill: #D7A449; stroke: #fff; opacity: 1;" id="p-type-tokenTransfers"></path><path d="M99.73974620113356,169.8852054410079A197,197,0,0,1,98.59143547128187,170.55418157205077L85.3826877137043,147.70425396305973A170.6070045455344,170.6070045455344,0,0,0,86.37715397719413,147.12490363905118Z" fill-rule="evenodd" style="fill: #D7A449; stroke: #fff; opacity: 1;" id="p-type-tokenTransfers"></path><path d="M98.59143547128187,170.55418157205077A197,197,0,0,1,97.43863797474793,171.2153960063931L84.38433579628682,148.27688246054916A170.6070045455344,170.6070045455344,0,0,0,85.3826877137043,147.70425396305973Z" fill-rule="evenodd" style="fill: #D7A449; stroke: #fff; opacity: 1;" id="p-type-tokenTransfers"></path><path d="M97.43863797474793,171.2153960063931A197,197,0,0,1,96.28140617383106,171.86881865303482L83.38214365862558,148.84276307194892A170.6070045455344,170.6070045455344,0,0,0,84.38433579628682,148.27688246054916Z" fill-rule="evenodd" style="fill: #D7A449; stroke: #fff; opacity: 1;" id="p-type-tokenTransfers"></path><path d="M96.28140617383106,171.86881865303482A197,197,0,0,1,95.11979273262995,172.51441977556985L82.37615690916796,149.40187004477602A170.6070045455344,170.6070045455344,0,0,0,83.38214365862558,148.84276307194892Z" fill-rule="evenodd" style="fill: #D7A449; stroke: #fff; opacity: 1;" id="p-type-tokenTransfers"></path><path d="M95.11979273262995,172.51441977556985A197,197,0,0,1,93.95385051464598,173.1521699935394L81.36642132904906,149.9541779348067A170.6070045455344,170.6070045455344,0,0,0,82.37615690916796,149.40187004477602Z" fill-rule="evenodd" style="fill: #D7A449; stroke: #fff; opacity: 1;" id="p-type-tokenTransfers"></path><path d="M93.95385051464598,173.1521699935394A197,197,0,0,1,92.78363258037749,173.782040283769L80.3529828700084,150.49966160723463A170.6070045455344,170.6070045455344,0,0,0,81.36642132904906,149.9541779348067Z" fill-rule="evenodd" style="fill: #D7A449; stroke: #fff; opacity: 1;" id="p-type-tokenTransfers"></path><path d="M92.78363258037749,173.782040283769A197,197,0,0,1,91.60919218490501,174.40400198168945L79.33588765229861,151.03829623781465A170.6070045455344,170.6070045455344,0,0,0,80.3529828700084,150.49966160723463Z" fill-rule="evenodd" style="fill: #D7A449; stroke: #fff; opacity: 1;" id="p-type-tokenTransfers"></path><path d="M91.60919218490501,174.40400198168945A197,197,0,0,1,90.43058277546781,175.01802678264104L78.31518196258662,151.5700573139924A170.6070045455344,170.6070045455344,0,0,0,79.33588765229861,151.03829623781465Z" fill-rule="evenodd" style="fill: #D7A449; stroke: #fff; opacity: 1;" id="p-type-tokenTransfers"></path><path d="M90.43058277546781,175.01802678264104A197,197,0,0,1,89.24785798903144,175.62408674316197L77.29091225184719,152.0949206360201A170.6070045455344,170.6070045455344,0,0,0,78.31518196258662,151.5700573139924Z" fill-rule="evenodd" style="fill: #D7A449; stroke: #fff; opacity: 1;" id="p-type-tokenTransfers"></path><path d="M89.24785798903144,175.62408674316197A197,197,0,0,1,88.06107164984685,176.2221542822597L76.263125133249,152.6128623180576A170.6070045455344,170.6070045455344,0,0,0,77.29091225184719,152.0949206360201Z" fill-rule="evenodd" style="fill: #D7A449; stroke: #fff; opacity: 1;" id="p-type-tokenTransfers"></path><path d="M88.06107164984685,176.2221542822597A197,197,0,0,1,86.87027776700096,176.8122021826664L75.23186738003335,153.1238587892595A170.6070045455344,170.6070045455344,0,0,0,76.263125133249,152.6128623180576Z" fill-rule="evenodd" style="fill: #D7A449; stroke: #fff; opacity: 1;" id="p-type-tokenTransfers"></path><path d="M86.87027776700096,176.8122021826664A197,197,0,0,1,85.67553053195869,177.39420359207742L74.19718592338552,153.62788679484777A170.6070045455344,170.6070045455344,0,0,0,75.23186738003335,153.1238587892595Z" fill-rule="evenodd" style="fill: #D7A449; stroke: #fff; opacity: 1;" id="p-type-tokenTransfers"></path><path d="M85.67553053195869,177.39420359207742A197,197,0,0,1,84.47688431609684,177.96813202437338L73.15912785029909,154.12492339717022A170.6070045455344,170.6070045455344,0,0,0,74.19718592338552,153.62788679484777Z" fill-rule="evenodd" style="fill: #D7A449; stroke: #fff; opacity: 1;" id="p-type-tokenTransfers"></path><path d="M84.47688431609684,177.96813202437338A197,197,0,0,1,83.27439366822975,178.5339613608254L72.11774040143297,154.61494597674417A170.6070045455344,170.6070045455344,0,0,0,73.15912785029909,154.12492339717022Z" fill-rule="evenodd" style="fill: #D7A449; stroke: #fff; opacity: 1;" id="p-type-tokenTransfers"></path><path d="M83.27439366822975,178.5339613608254A197,197,0,0,1,82.06811331212674,179.0916658512839L71.07307096896162,155.0979322332859A170.6070045455344,170.6070045455344,0,0,0,72.11774040143297,154.61494597674417Z" fill-rule="evenodd" style="fill: #D7A449; stroke: #fff; opacity: 1;" id="p-type-tokenTransfers"></path><path d="M82.06811331212674,179.0916658512839A197,197,0,0,1,80.85809814402181,179.6412201153503L70.02516709441825,155.57386018672545A170.6070045455344,170.6070045455344,0,0,0,71.07307096896162,155.0979322332859Z" fill-rule="evenodd" style="fill: #D7A449; stroke: #fff; opacity: 1;" id="p-type-tokenTransfers"></path><path d="M80.85809814402181,179.6412201153503A197,197,0,0,1,79.64440323011533,180.18259914353217L68.97407646653127,156.04270817820708A170.6070045455344,170.6070045455344,0,0,0,70.02516709441825,155.57386018672545Z" fill-rule="evenodd" style="fill: #D7A449; stroke: #fff; opacity: 1;" id="p-type-tokenTransfers"></path><path d="M79.64440323011533,180.18259914353217A197,197,0,0,1,78.42708380406809,180.71577829838122L67.91984691905408,156.5044548710747A170.6070045455344,170.6070045455344,0,0,0,68.97407646653127,156.04270817820708Z" fill-rule="evenodd" style="fill: #D7A449; stroke: #fff; opacity: 1;" id="p-type-tokenTransfers"></path><path d="M78.42708380406809,180.71577829838122A197,197,0,0,1,77.20619526448763,181.2407333156148L66.86252642858811,156.95907925184306A170.6070045455344,170.6070045455344,0,0,0,67.91984691905408,156.5044548710747Z" fill-rule="evenodd" style="fill: #D7A449; stroke: #fff; opacity: 1;" id="p-type-tokenTransfers"></path><path d="M77.20619526448763,181.2407333156148A197,197,0,0,1,75.98179317240721,181.7574403052198L65.80216311239965,157.40656063115398A170.6070045455344,170.6070045455344,0,0,0,66.86252642858811,156.95907925184306Z" fill-rule="evenodd" style="fill: #D7A449; stroke: #fff; opacity: 1;" id="p-type-tokenTransfers"></path><path d="M75.98179317240721,181.7574403052198A197,197,0,0,1,74.75393324875718,182.26587575254L64.73880522622991,157.84687864471778A170.6070045455344,170.6070045455344,0,0,0,65.80216311239965,157.40656063115398Z" fill-rule="evenodd" style="fill: #D7A449; stroke: #fff; opacity: 1;" id="p-type-tokenTransfers"></path><path d="M74.75393324875718,182.26587575254A197,197,0,0,1,73.52267137182932,182.76601651934635L63.67250116209907,158.28001325424032A170.6070045455344,170.6070045455344,0,0,0,64.73880522622991,157.84687864471778Z" fill-rule="evenodd" style="fill: #D7A449; stroke: #fff; opacity: 1;" id="p-type-tokenTransfers"></path><path d="M73.52267137182932,182.76601651934635A197,197,0,0,1,72.28806357473378,183.2578398448897L62.603299446103996,158.7059447483346A170.6070045455344,170.6070045455344,0,0,0,63.67250116209907,158.28001325424032Z" fill-rule="evenodd" style="fill: #D7A449; stroke: #fff; opacity: 1;" id="p-type-tokenTransfers"></path><path d="M72.28806357473378,183.2578398448897A197,197,0,0,1,71.05016604284921,183.74132334693672L61.531248736209896,159.12465374341798A170.6070045455344,170.6070045455344,0,0,0,62.603299446103996,158.7059447483346Z" fill-rule="evenodd" style="fill: #D7A449; stroke: #fff; opacity: 1;" id="p-type-tokenTransfers"></path><path d="M71.05016604284921,183.74132334693672A197,197,0,0,1,69.8090351112657,184.21644502278852L60.45639782003593,159.53612118459426A170.6070045455344,170.6070045455344,0,0,0,61.531248736209896,159.12465374341798Z" fill-rule="evenodd" style="fill: #D7A449; stroke: #fff; opacity: 1;" id="p-type-tokenTransfers"></path><path d="M69.8090351112657,184.21644502278852A197,197,0,0,1,68.56472726222115,184.68318325028196L59.37879561263499,159.94032834652091A170.6070045455344,170.6070045455344,0,0,0,60.45639782003593,159.53612118459426Z" fill-rule="evenodd" style="fill: #D7A449; stroke: #fff; opacity: 1;" id="p-type-tokenTransfers"></path><path d="M68.56472726222115,184.68318325028196A197,197,0,0,1,67.31729912253078,185.14151678877354L58.298491154267566,160.337256834261A170.6070045455344,170.6070045455344,0,0,0,59.37879561263499,159.94032834652091Z" fill-rule="evenodd" style="fill: #D7A449; stroke: #fff; opacity: 1;" id="p-type-tokenTransfers"></path><path d="M67.31729912253078,185.14151678877354A197,197,0,0,1,66.06680746101017,185.59142478010617L57.2155336081701,160.72688858412073A170.6070045455344,170.6070045455344,0,0,0,58.298491154267566,160.337256834261Z" fill-rule="evenodd" style="fill: #D7A449; stroke: #fff; opacity: 1;" id="p-type-tokenTransfers"></path><path d="M66.06680746101017,185.59142478010617A197,197,0,0,1,64.8133091858917,186.03288674955834L56.12997225831752,161.10920586447102A170.6070045455344,170.6070045455344,0,0,0,57.2155336081701,160.72688858412073Z" fill-rule="evenodd" style="fill: #D7A449; stroke: #fff; opacity: 1;" id="p-type-tokenTransfers"></path><path d="M64.8133091858917,186.03288674955834A197,197,0,0,1,63.556861342234825,186.46588260677592L55.04185650718049,161.48419127655484A170.6070045455344,170.6070045455344,0,0,0,56.12997225831752,161.10920586447102Z" fill-rule="evenodd" style="fill: #D7A449; stroke: #fff; opacity: 1;" id="p-type-tokenTransfers"></path><path d="M63.556861342234825,186.46588260677592A197,197,0,0,1,62.29752110932998,186.89039264668634L53.95123587347708,161.8518277552788A170.6070045455344,170.6070045455344,0,0,0,55.04185650718049,161.48419127655484Z" fill-rule="evenodd" style="fill: #D7A449; stroke: #fff; opacity: 1;" id="p-type-tokenTransfers"></path><path d="M62.29752110932998,186.89039264668634A197,197,0,0,1,61.03534579809642,187.30639755039547L52.858159989919294,162.21209856998982A170.6070045455344,170.6070045455344,0,0,0,53.95123587347708,161.8518277552788Z" fill-rule="evenodd" style="fill: #D7A449; stroke: #fff; opacity: 1;" id="p-type-tokenTransfers"></path><path d="M61.03534579809642,187.30639755039547A197,197,0,0,1,59.77039284847411,187.7138783860668L51.76267860095432,162.5649873252365A170.6070045455344,170.6070045455344,0,0,0,52.858159989919294,162.21209856998982Z" fill-rule="evenodd" style="fill: #D7A449; stroke: #fff; opacity: 1;" id="p-type-tokenTransfers"></path><path d="M59.77039284847411,187.7138783860668A197,197,0,0,1,58.50271982680969,188.1128166097829L50.66484156050074,162.91047796151528A170.6070045455344,170.6070045455344,0,0,0,51.76267860095432,162.5649873252365Z" fill-rule="evenodd" style="fill: #D7A449; stroke: #fff; opacity: 1;" id="p-type-tokenTransfers"></path><path d="M58.50271982680969,188.1128166097829A197,197,0,0,1,57.23238442323667,188.50319406638937L49.56469882967975,163.24855475600125A170.6070045455344,170.6070045455344,0,0,0,50.66484156050074,162.91047796151528Z" fill-rule="evenodd" style="fill: #D7A449; stroke: #fff; opacity: 1;" id="p-type-tokenTransfers"></path><path d="M57.23238442323667,188.50319406638937A197,197,0,0,1,55.9594444490501,188.88499299032117L48.46230047454148,163.57920232326376A170.6070045455344,170.6070045455344,0,0,0,49.56469882967975,163.24855475600125Z" fill-rule="evenodd" style="fill: #D7A449; stroke: #fff; opacity: 1;" id="p-type-tokenTransfers"></path><path d="M55.9594444490501,188.88499299032117A197,197,0,0,1,54.683957834075606,189.25819600641088L47.35769666378654,163.90240561596642A170.6070045455344,170.6070045455344,0,0,0,48.46230047454148,163.57920232326376Z" fill-rule="evenodd" style="fill: #D7A449; stroke: #fff; opacity: 1;" id="p-type-tokenTransfers"></path><path d="M54.683957834075606,189.25819600641088A197,197,0,0,1,53.40598262403306,189.62278613067966L46.25093766648295,164.2181499255521A170.6070045455344,170.6070045455344,0,0,0,47.35769666378654,163.90240561596642Z" fill-rule="evenodd" style="fill: #D7A449; stroke: #fff; opacity: 1;" id="p-type-tokenTransfers"></path><path d="M53.40598262403306,189.62278613067966A197,197,0,0,1,52.12557697789509,189.97874677111L45.142073849778434,164.52642088291216A170.6070045455344,170.6070045455344,0,0,0,46.25093766648295,164.2181499255521Z" fill-rule="evenodd" style="fill: #D7A449; stroke: #fff; opacity: 1;" id="p-type-tokenTransfers"></path><path d="M52.12557697789509,189.97874677111A197,197,0,0,1,50.84279916524022,190.32606172840084L44.03115567660828,164.82720445904033A170.6070045455344,170.6070045455344,0,0,0,45.142073849778434,164.52642088291216Z" fill-rule="evenodd" style="fill: #D7A449; stroke: #fff; opacity: 1;" id="p-type-tokenTransfers"></path><path d="M50.84279916524022,190.32606172840084A197,197,0,0,1,49.55770756360116,190.6647151967049L42.918233703398826,165.12048696567132A170.6070045455344,170.6070045455344,0,0,0,44.03115567660828,164.82720445904033Z" fill-rule="evenodd" style="fill: #D7A449; stroke: #fff; opacity: 1;" id="p-type-tokenTransfers"></path><path d="M49.55770756360116,190.6647151967049A197,197,0,0,1,48.27036065580816,190.99469176434775L41.803358577766744,165.40625505590364A170.6070045455344,170.6070045455344,0,0,0,42.918233703398826,165.12048696567132Z" fill-rule="evenodd" style="fill: #D7A449; stroke: #fff; opacity: 1;" id="p-type-tokenTransfers"></path><path d="M48.27036065580816,190.99469176434775A197,197,0,0,1,46.98081702732744,191.31597641452942L40.68658103621408,165.684495724807A170.6070045455344,170.6070045455344,0,0,0,41.803358577766744,165.40625505590364Z" fill-rule="evenodd" style="fill: #D7A449; stroke: #fff; opacity: 1;" id="p-type-tokenTransfers"></path><path d="M46.98081702732744,191.31597641452942A197,197,0,0,1,45.68913536359513,191.62855452600763L39.56795190181934,165.9551963100141A170.6070045455344,170.6070045455344,0,0,0,40.68658103621408,165.684495724807Z" fill-rule="evenodd" style="fill: #D7A449; stroke: #fff; opacity: 1;" id="p-type-tokenTransfers"></path><path d="M45.68913536359513,191.62855452600763A197,197,0,0,1,44.39537444734649,191.93241187376324L38.447522081924596,166.21834449229698A170.6070045455344,170.6070045455344,0,0,0,39.56795190181934,165.9551963100141Z" fill-rule="evenodd" style="fill: #D7A449; stroke: #fff; opacity: 1;" id="p-type-tokenTransfers"></path><path d="M44.39537444734649,191.93241187376324A197,197,0,0,1,43.09959315594089,192.2275346296476L37.32534256581873,166.47392829612772A170.6070045455344,170.6070045455344,0,0,0,38.447522081924596,166.21834449229698Z" fill-rule="evenodd" style="fill: #D7A449; stroke: #fff; opacity: 1;" id="p-type-tokenTransfers"></path><path d="M43.09959315594089,192.2275346296476A197,197,0,0,1,41.80185045868225,192.5139093630119L36.20146442241702,166.7219360902232A170.6070045455344,170.6070045455344,0,0,0,37.32534256581873,166.47392829612772Z" fill-rule="evenodd" style="fill: #D7A449; stroke: #fff; opacity: 1;" id="p-type-tokenTransfers"></path><path d="M41.80185045868225,192.5139093630119A197,197,0,0,1,40.50220541413556,192.7915230413183L35.07593879793703,166.96235658807458A170.6070045455344,170.6070045455344,0,0,0,36.20146442241702,166.7219360902232Z" fill-rule="evenodd" style="fill: #D7A449; stroke: #fff; opacity: 1;" id="p-type-tokenTransfers"></path><path d="M40.50220541413556,192.7915230413183A197,197,0,0,1,39.200717167439095,193.06036303073307L33.94881691357102,167.1951788484609A170.6070045455344,170.6070045455344,0,0,0,35.07593879793703,166.96235658807458Z" fill-rule="evenodd" style="fill: #D7A449; stroke: #fff; opacity: 1;" id="p-type-tokenTransfers"></path><path d="M39.200717167439095,193.06036303073307A197,197,0,0,1,37.89744494761285,193.32041709670153L32.82015006315495,167.42039227594705A170.6070045455344,170.6070045455344,0,0,0,33.94881691357102,167.1951788484609Z" fill-rule="evenodd" style="fill: #D7A449; stroke: #fff; opacity: 1;" id="p-type-tokenTransfers"></path><path d="M37.89744494761285,193.32041709670153A197,197,0,0,1,36.59244806486308,193.57167340450488L31.689989610834147,167.6379866213658A170.6070045455344,170.6070045455344,0,0,0,32.82015006315495,167.42039227594705Z" fill-rule="evenodd" style="fill: #D7A449; stroke: #fff; opacity: 1;" id="p-type-tokenTransfers"></path><path d="M36.59244806486308,193.57167340450488A197,197,0,0,1,35.285785907883195,193.81412051979865L30.558386988725797,167.84795198228446A170.6070045455344,170.6070045455344,0,0,0,31.689989610834147,167.6379866213658Z" fill-rule="evenodd" style="fill: #D7A449; stroke: #fff; opacity: 1;" id="p-type-tokenTransfers"></path><path d="M35.285785907883195,193.81412051979865A197,197,0,0,1,33.97751794115106,194.0477474091332L29.425393694578357,168.0502788034553A170.6070045455344,170.6070045455344,0,0,0,30.558386988725797,167.84795198228446Z" fill-rule="evenodd" style="fill: #D7A449; stroke: #fff; opacity: 1;" id="p-type-tokenTransfers"></path><path d="M33.97751794115106,194.0477474091332A197,197,0,0,1,32.66770370222281,194.27254344045576L28.29106128942791,168.2449578772506A170.6070045455344,170.6070045455344,0,0,0,29.425393694578357,168.0502788034553Z" fill-rule="evenodd" style="fill: #D7A449; stroke: #fff; opacity: 1;" id="p-type-tokenTransfers"></path><path d="M32.66770370222281,194.27254344045576A197,197,0,0,1,31.356402799023407,194.4884983835944L27.15544139525175,168.43198034408147A170.6070045455344,170.6070045455344,0,0,0,28.29106128942791,168.2449578772506Z" fill-rule="evenodd" style="fill: #D7A449; stroke: #fff; opacity: 1;" id="p-type-tokenTransfers"></path><path d="M31.356402799023407,194.4884983835944A197,197,0,0,1,30.04367490713394,194.69560241072332L26.018585692619077,168.6113376928012A170.6070045455344,170.6070045455344,0,0,0,27.15544139525175,168.43198034408147Z" fill-rule="evenodd" style="fill: #D7A449; stroke: #fff; opacity: 1;" id="p-type-tokenTransfers"></path><path d="M30.04367490713394,194.69560241072332A197,197,0,0,1,28.729579767075897,194.89384609681042L24.88054591833914,168.78302176109247A170.6070045455344,170.6070045455344,0,0,0,26.018585692619077,168.6113376928012Z" fill-rule="evenodd" style="fill: #D7A449; stroke: #fff; opacity: 1;" id="p-type-tokenTransfers"></path><path d="M28.729579767075897,194.89384609681042A197,197,0,0,1,27.41417718159241,195.08322042004602L23.741373863106713,168.947024735839A170.6070045455344,170.6070045455344,0,0,0,24.88054591833914,168.78302176109247Z" fill-rule="evenodd" style="fill: #D7A449; stroke: #fff; opacity: 1;" id="p-type-tokenTransfers"></path><path d="M27.41417718159241,195.08322042004602A197,197,0,0,1,26.097527012926758,195.2637167622535L22.60112136914519,169.10333915348085A170.6070045455344,170.6070045455344,0,0,0,23.741373863106713,168.947024735839Z" fill-rule="evenodd" style="fill: #D7A449; stroke: #fff; opacity: 1;" id="p-type-tokenTransfers"></path><path d="M26.097527012926758,195.2637167622535A197,197,0,0,1,24.779689180098075,195.4353269092815L21.45984032784732,169.25195790035428A170.6070045455344,170.6070045455344,0,0,0,22.60112136914519,169.10333915348085Z" fill-rule="evenodd" style="fill: #D7A449; stroke: #fff; opacity: 1;" id="p-type-tokenTransfers"></path><path d="M24.779689180098075,195.4353269092815A197,197,0,0,1,23.460723656174537,195.59804305137772L20.317582677413682,169.3928742130154A170.6070045455344,170.6070045455344,0,0,0,21.45984032784732,169.25195790035428Z" fill-rule="evenodd" style="fill: #D7A449; stroke: #fff; opacity: 1;" id="p-type-tokenTransfers"></path><path d="M23.460723656174537,195.59804305137772A197,197,0,0,1,22.140690465544054,195.75185778354435L19.17440040048906,169.526081678548A170.6070045455344,170.6070045455344,0,0,0,20.317582677413682,169.3928742130154Z" fill-rule="evenodd" style="fill: #D7A449; stroke: #fff; opacity: 1;" id="p-type-tokenTransfers"></path><path d="M22.140690465544054,195.75185778354435A197,197,0,0,1,20.819649681182653,195.89676410587498L18.030345521796768,169.6515742348553A170.6070045455344,170.6070045455344,0,0,0,19.17440040048906,169.526081678548Z" fill-rule="evenodd" style="fill: #D7A449; stroke: #fff; opacity: 1;" id="p-type-tokenTransfers"></path><path d="M20.819649681182653,195.89676410587498A197,197,0,0,1,19.49766142192063,196.03275542387334L16.885470105771084,169.76934617093602A170.6070045455344,170.6070045455344,0,0,0,18.030345521796768,169.6515742348553Z" fill-rule="evenodd" style="fill: #D7A449; stroke: #fff; opacity: 1;" id="p-type-tokenTransfers"></path><path d="M19.49766142192063,196.03275542387334A197,197,0,0,1,18.174785849706602,196.15982554875322L15.739826254187863,169.87939212714406A170.6070045455344,170.6070045455344,0,0,0,16.885470105771084,169.76934617093602Z" fill-rule="evenodd" style="fill: #D7A449; stroke: #fff; opacity: 1;" id="p-type-tokenTransfers"></path><path d="M18.174785849706602,196.15982554875322A197,197,0,0,1,16.851083166869653,196.27796869772024L14.593466103793448,169.98170709543257A170.6070045455344,170.6070045455344,0,0,0,15.739826254187863,169.87939212714406Z" fill-rule="evenodd" style="fill: #D7A449; stroke: #fff; opacity: 1;" id="p-type-tokenTransfers"></path><path d="M-155.86801231883865,120.47473899442306A197,197,0,0,1,-156.6612657341665,119.4413990983397L-135.6726359148128,103.43928588271793A170.6070045455344,170.6070045455344,0,0,0,-134.9856583055001,104.33418448347008Z" fill-rule="evenodd" style="fill: #414552; stroke: #fff; opacity: 1;" id="p-type-ether"></path></g></svg>