<svg xmlns="http://www.w3.org/2000/svg" width="400" height="400" id="block-7908369"><g id="burst-container" transform="translate(200,200)"><circle r="197" style="fill: #f9f9f9; stroke: #f9f9f9; stroke-width: 3; opacity: 1;" id="circle-base"></circle><path display="none" d="M6.031385485800715e-15,-98.5A98.5,98.5,0,1,1,-6.031385485800715e-15,98.5A98.5,98.5,0,1,1,6.031385485800715e-15,-98.5Z" fill-rule="evenodd" id="p-type-root" style="stroke: #fff; opacity: 1;"></path><path d="M8.529667153919608e-15,-139.30003589374985A139.30003589374985,139.30003589374985,0,1,1,-97.62909425831016,-99.36327266300154L-69.03419459115176,-70.26044390089629A98.5,98.5,0,1,0,6.031385485800715e-15,-98.5Z" fill-rule="evenodd" style="fill: #0B1F65; stroke: #fff; opacity: 1;" id="p-type-data"></path><path d="M-97.62909425831016,-99.36327266300154A139.30003589374985,139.30003589374985,0,0,1,-3.433929166407114,-139.25770402559456L-2.428154599680739,-98.4700668489671A98.5,98.5,0,0,0,-69.03419459115176,-70.26044390089629Z" fill-rule="evenodd" style="fill: #D7A449; stroke: #fff; opacity: 1;" id="p-type-value"></path><path d="M1.0446666101440332e-14,-170.6070045455344A170.6070045455344,170.6070045455344,0,0,1,170.14833422778796,12.501774254439372L138.92553314753684,10.207655934280018A139.30003589374985,139.30003589374985,0,0,0,8.529667153919608e-15,-139.30003589374985Z" fill-rule="evenodd" style="fill: #DB3F29; stroke: #fff; opacity: 1;" id="p-type-functions"></path><path d="M170.14833422778796,12.501774254439372A170.6070045455344,170.6070045455344,0,0,1,68.42535128858758,156.28410444134548L55.869065375910324,127.60543692971022A139.30003589374985,139.30003589374985,0,0,0,138.92553314753684,10.207655934280018Z" fill-rule="evenodd" style="fill: #1DC690; stroke: #fff; opacity: 1;" id="p-type-logs"></path><path d="M68.42535128858758,156.28410444134548A170.6070045455344,170.6070045455344,0,0,1,-105.12477611495964,134.37087276184377L-85.83402026865721,109.71335818631995A139.30003589374985,139.30003589374985,0,0,0,55.869065375910324,127.60543692971022Z" fill-rule="evenodd" style="fill: #414552; stroke: #fff; opacity: 1;" id="p-type-ether"></path><path d="M-105.12477611495964,134.37087276184377A170.6070045455344,170.6070045455344,0,0,1,-170.44167016665406,7.509132493271815L-139.16504093868423,6.131181006489727A139.30003589374985,139.30003589374985,0,0,0,-85.83402026865721,109.71335818631995Z" fill-rule="evenodd" style="fill: #D7A449; stroke: #fff; opacity: 1;" id="p-type-tokenTransfers"></path><path d="M-119.57073249147142,-121.69465859869521A170.6070045455344,170.6070045455344,0,0,1,-57.72334777230417,-160.54521208045298L-47.13091609578843,-131.0846167480065A139.30003589374985,139.30003589374985,0,0,0,-97.62909425831016,-99.36327266300154Z" fill-rule="evenodd" style="fill: #D7A449; stroke: #fff; opacity: 1;" id="p-type-tokenTransfers"></path><path d="M-57.72334777230417,-160.54521208045298A170.6070045455344,170.6070045455344,0,0,1,-8.40881813922382,-170.39965310264412L-6.865771260319292,-139.1307341495795A139.30003589374985,139.30003589374985,0,0,0,-47.13091609578843,-131.0846167480065Z" fill-rule="evenodd" style="fill: #414552; stroke: #fff; opacity: 1;" id="p-type-ether"></path><path d="M1.206277097160143e-14,-197A197,197,0,0,1,59.75343090203738,-187.71927843307796L51.747989124442476,-162.5696639031298A170.6070045455344,170.6070045455344,0,0,0,1.0446666101440332e-14,-170.6070045455344Z" fill-rule="evenodd" style="fill: #DB3F29; stroke: #fff; opacity: 1;" id="p-type-functions"></path><path d="M59.75343090203738,-187.71927843307796A197,197,0,0,1,81.2757872770646,-179.45262996817112L70.386896494518,-155.41053632836486A170.6070045455344,170.6070045455344,0,0,0,51.747989124442476,-162.5696639031298Z" fill-rule="evenodd" style="fill: #DB3F29; stroke: #fff; opacity: 1;" id="p-type-functions"></path><path d="M81.2757872770646,-179.45262996817112A197,197,0,0,1,83.74769538230586,-178.31243231517118L72.5276317094776,-154.4230961955315A170.6070045455344,170.6070045455344,0,0,0,70.386896494518,-155.41053632836486Z" fill-rule="evenodd" style="fill: #DB3F29; stroke: #fff; opacity: 1;" id="p-type-functions"></path><path d="M83.74769538230586,-178.31243231517118A197,197,0,0,1,85.93931764850625,-177.26656109404598L74.42563226750676,-153.51734514895003A170.6070045455344,170.6070045455344,0,0,0,72.5276317094776,-154.4230961955315Z" fill-rule="evenodd" style="fill: #DB3F29; stroke: #fff; opacity: 1;" id="p-type-functions"></path><path d="M85.93931764850625,-177.26656109404598A197,197,0,0,1,88.11788137511601,-176.19375409463578L76.31232379851411,-152.58826703410304A170.6070045455344,170.6070045455344,0,0,0,74.42563226750676,-153.51734514895003Z" fill-rule="evenodd" style="fill: #DB3F29; stroke: #fff; opacity: 1;" id="p-type-functions"></path><path d="M88.11788137511601,-176.19375409463578A197,197,0,0,1,90.28305552784893,-175.09417433071653L78.18741961839825,-151.63600302506168A170.6070045455344,170.6070045455344,0,0,0,76.31232379851411,-152.58826703410304Z" fill-rule="evenodd" style="fill: #DB3F29; stroke: #fff; opacity: 1;" id="p-type-functions"></path><path d="M90.28305552784893,-175.09417433071653A197,197,0,0,1,92.43451110697391,-173.96798888420454L80.05063480503426,-150.66069781900998A170.6070045455344,170.6070045455344,0,0,0,78.18741961839825,-151.63600302506168Z" fill-rule="evenodd" style="fill: #DB3F29; stroke: #fff; opacity: 1;" id="p-type-functions"></path><path d="M92.43451110697391,-173.96798888420454A197,197,0,0,1,94.5719211973068,-172.8153688797683L81.90168624156773,-149.66249961425805A170.6070045455344,170.6070045455344,0,0,0,80.05063480503426,-150.66069781900998Z" fill-rule="evenodd" style="fill: #DB3F29; stroke: #fff; opacity: 1;" id="p-type-functions"></path><path d="M94.5719211973068,-172.8153688797683A197,197,0,0,1,96.69496101788526,-171.63648945882588L83.74029265943464,-148.6415600877232A170.6070045455344,170.6070045455344,0,0,0,81.90168624156773,-149.66249961425805Z" fill-rule="evenodd" style="fill: #DB3F29; stroke: #fff; opacity: 1;" id="p-type-functions"></path><path d="M96.69496101788526,-171.63648945882588A197,197,0,0,1,98.80330797131958,-170.43152975293208L85.56617468110029,-147.5980343718826A170.6070045455344,170.6070045455344,0,0,0,83.74029265943464,-148.6415600877232Z" fill-rule="evenodd" style="fill: #DB3F29; stroke: #fff; opacity: 1;" id="p-type-functions"></path><path d="M98.80330797131958,-170.43152975293208A197,197,0,0,1,100.89664169281149,-169.20067285655932L87.37905486251088,-146.5320810312005A170.6070045455344,170.6070045455344,0,0,0,85.56617468110029,-147.5980343718826Z" fill-rule="evenodd" style="fill: #DB3F29; stroke: #fff; opacity: 1;" id="p-type-functions"></path><path d="M100.89664169281149,-169.20067285655932A197,197,0,0,1,102.97464409883379,-167.94410579927631L89.17865773525139,-145.44386203803475A170.6070045455344,170.6070045455344,0,0,0,87.37905486251088,-146.5320810312005Z" fill-rule="evenodd" style="fill: #DB3F29; stroke: #fff; opacity: 1;" id="p-type-functions"></path><path d="M102.97464409883379,-167.94410579927631A197,197,0,0,1,105.0369994354635,-166.66201951732867L90.96470984840313,-144.33354274802454A170.6070045455344,170.6070045455344,0,0,0,89.17865773525139,-145.44386203803475Z" fill-rule="evenodd" style="fill: #DB3F29; stroke: #fff; opacity: 1;" id="p-type-functions"></path><path d="M105.0369994354635,-166.66201951732867A197,197,0,0,1,107.08339432636075,-165.35460882462613L92.73693981009484,-143.20129187496474A170.6070045455344,170.6070045455344,0,0,0,90.96470984840313,-144.33354274802454Z" fill-rule="evenodd" style="fill: #DB3F29; stroke: #fff; opacity: 1;" id="p-type-functions"></path><path d="M107.08339432636075,-165.35460882462613A197,197,0,0,1,109.11351782038668,-164.02207238314043L94.4950783287409,-142.04728146516962A170.6070045455344,170.6070045455344,0,0,0,92.73693981009484,-143.20129187496474Z" fill-rule="evenodd" style="fill: #DB3F29; stroke: #fff; opacity: 1;" id="p-type-functions"></path><path d="M109.11351782038668,-164.02207238314043A197,197,0,0,1,111.12706143885248,-162.66461267271842L96.23885825396034,-140.87168687133027A170.6070045455344,170.6070045455344,0,0,0,94.4950783287409,-142.04728146516962Z" fill-rule="evenodd" style="fill: #DB3F29; stroke: #fff; opacity: 1;" id="p-type-functions"></path><path d="M111.12706143885248,-162.66461267271842A197,197,0,0,1,113.12371922239315,-161.28243596031515L97.96801461717048,-139.6746867258698A170.6070045455344,170.6070045455344,0,0,0,96.23885825396034,-140.87168687133027Z" fill-rule="evenodd" style="fill: #DB3F29; stroke: #fff; opacity: 1;" id="p-type-functions"></path><path d="M113.12371922239315,-161.28243596031515A197,197,0,0,1,115.1031877774581,-159.8757522686515L99.68228467184922,-138.45646291379978A170.6070045455344,170.6070045455344,0,0,0,97.96801461717048,-139.6746867258698Z" fill-rule="evenodd" style="fill: #DB3F29; stroke: #fff; opacity: 1;" id="p-type-functions"></path><path d="M115.1031877774581,-159.8757522686515A197,197,0,0,1,117.06516632241207,-158.44477534430095L101.38140793345937,-137.2172005450829A170.6070045455344,170.6070045455344,0,0,0,99.68228467184922,-138.45646291379978Z" fill-rule="evenodd" style="fill: #DB3F29; stroke: #fff; opacity: 1;" id="p-type-functions"></path><path d="M117.06516632241207,-158.44477534430095A197,197,0,0,1,119.00935673323912,-156.98972262521085L103.06512621902971,-135.95708792650524A170.6070045455344,170.6070045455344,0,0,0,101.38140793345937,-137.2172005450829Z" fill-rule="evenodd" style="fill: #DB3F29; stroke: #fff; opacity: 1;" id="p-type-functions"></path><path d="M119.00935673323912,-156.98972262521085A197,197,0,0,1,120.93546358884274,-155.5108152076623L104.73318368638581,-134.67631653306296A170.6070045455344,170.6070045455344,0,0,0,103.06512621902971,-135.95708792650524Z" fill-rule="evenodd" style="fill: #DB3F29; stroke: #fff; opacity: 1;" id="p-type-functions"></path><path d="M120.93546358884274,-155.5108152076623A197,197,0,0,1,122.84319421593537,-154.00827781267466L106.38532687302565,-133.37508097886757A170.6070045455344,170.6070045455344,0,0,0,104.73318368638581,-134.67631653306296Z" fill-rule="evenodd" style="fill: #DB3F29; stroke: #fff; opacity: 1;" id="p-type-functions"></path><path d="M122.84319421593537,-154.00827781267466A197,197,0,0,1,124.73225873351022,-152.48233875185895L108.02130473463326,-132.0535789875742A170.6070045455344,170.6070045455344,0,0,0,106.38532687302565,-133.37508097886757Z" fill-rule="evenodd" style="fill: #DB3F29; stroke: #fff; opacity: 1;" id="p-type-functions"></path><path d="M124.73225873351022,-152.48233875185895A197,197,0,0,1,126.6023700968889,-150.93322989272565L109.64086868322515,-130.71201136233722A170.6070045455344,170.6070045455344,0,0,0,108.02130473463326,-132.0535789875742Z" fill-rule="evenodd" style="fill: #DB3F29; stroke: #fff; opacity: 1;" id="p-type-functions"></path><path d="M126.6023700968889,-150.93322989272565A197,197,0,0,1,128.4532441413382,-149.36118662345237L111.24377262492348,-129.35058195529822A170.6070045455344,170.6070045455344,0,0,0,109.64086868322515,-130.71201136233722Z" fill-rule="evenodd" style="fill: #DB3F29; stroke: #fff; opacity: 1;" id="p-type-functions"></path><path d="M128.4532441413382,-149.36118662345237A197,197,0,0,1,130.28459962524886,-147.76644781711647L112.82977299735008,-127.96949763661047A170.6070045455344,170.6070045455344,0,0,0,111.24377262492348,-129.35058195529822Z" fill-rule="evenodd" style="fill: #DB3F29; stroke: #fff; opacity: 1;" id="p-type-functions"></path><path d="M130.28459962524886,-147.76644781711647A197,197,0,0,1,132.09615827287075,-146.149255795398L114.39862880663601,-126.56896826300478A170.6070045455344,170.6070045455344,0,0,0,112.82977299735008,-127.96949763661047Z" fill-rule="evenodd" style="fill: #DB3F29; stroke: #fff; opacity: 1;" id="p-type-functions"></path><path d="M132.09615827287075,-146.149255795398A197,197,0,0,1,133.88764481659678,-144.50985629175895L115.95010166404073,-125.14920664590174A170.6070045455344,170.6070045455344,0,0,0,114.39862880663601,-126.56896826300478Z" fill-rule="evenodd" style="fill: #DB3F29; stroke: #fff; opacity: 1;" id="p-type-functions"></path><path d="M133.88764481659678,-144.50985629175895A197,197,0,0,1,135.65878703879017,-142.84849841410366L117.48395582217542,-123.71042851907487A170.6070045455344,170.6070045455344,0,0,0,115.95010166404073,-125.14920664590174Z" fill-rule="evenodd" style="fill: #DB3F29; stroke: #fff; opacity: 1;" id="p-type-functions"></path><path d="M135.65878703879017,-142.84849841410366A197,197,0,0,1,137.40931581314803,-141.16543460692685L118.99995821082497,-122.2528525058696A170.6070045455344,170.6070045455344,0,0,0,117.48395582217542,-123.71042851907487Z" fill-rule="evenodd" style="fill: #DB3F29; stroke: #fff; opacity: 1;" id="p-type-functions"></path><path d="M137.40931581314803,-141.16543460692685A197,197,0,0,1,139.13896514559542,-139.46092061295445L120.49787847236321,-120.7767000859834A170.6070045455344,170.6070045455344,0,0,0,118.99995821082497,-122.2528525058696Z" fill-rule="evenodd" style="fill: #DB3F29; stroke: #fff; opacity: 1;" id="p-type-functions"></path><path d="M139.13896514559542,-139.46092061295445A197,197,0,0,1,140.84747221470312,-137.7352154342833L121.97748899675577,-119.28219556181183A170.6070045455344,170.6070045455344,0,0,0,120.49787847236321,-120.7767000859834Z" fill-rule="evenodd" style="fill: #DB3F29; stroke: #fff; opacity: 1;" id="p-type-functions"></path><path d="M140.84747221470312,-137.7352154342833A197,197,0,0,1,142.53457741162376,-135.98858129302562L123.43856495614578,-117.76956602436547A170.6070045455344,170.6070045455344,0,0,0,121.97748899675577,-119.28219556181183Z" fill-rule="evenodd" style="fill: #DB3F29; stroke: #fff; opacity: 1;" id="p-type-functions"></path><path d="M142.53457741162376,-135.98858129302562A197,197,0,0,1,144.20002437953931,-134.22128359146424L124.88088433901642,-116.23904131876347A170.6070045455344,170.6070045455344,0,0,0,123.43856495614578,-117.76956602436547Z" fill-rule="evenodd" style="fill: #DB3F29; stroke: #fff; opacity: 1;" id="p-type-functions"></path><path d="M144.20002437953931,-134.22128359146424A197,197,0,0,1,145.84356005261503,-132.43359087172436L126.30422798392595,-114.69085400930824A170.6070045455344,170.6070045455344,0,0,0,124.88088433901642,-116.23904131876347Z" fill-rule="evenodd" style="fill: #DB3F29; stroke: #fff; opacity: 1;" id="p-type-functions"></path><path d="M145.84356005261503,-132.43359087172436A197,197,0,0,1,147.46493469445264,-130.62577477496856L127.70837961280922,-113.12523934414729A170.6070045455344,170.6070045455344,0,0,0,126.30422798392595,-114.69085400930824Z" fill-rule="evenodd" style="fill: #DB3F29; stroke: #fff; opacity: 1;" id="p-type-functions"></path><path d="M147.46493469445264,-130.62577477496856A197,197,0,0,1,149.0639019360382,-128.7981100001207L129.09312586384144,-111.54243521952706A170.6070045455344,170.6070045455344,0,0,0,127.70837961280922,-113.12523934414729Z" fill-rule="evenodd" style="fill: #DB3F29; stroke: #fff; opacity: 1;" id="p-type-functions"></path><path d="M149.0639019360382,-128.7981100001207A197,197,0,0,1,150.64021881317785,-126.9508742621251L130.45825632385854,-109.94268214364439A170.6070045455344,170.6070045455344,0,0,0,129.09312586384144,-111.54243521952706Z" fill-rule="evenodd" style="fill: #DB3F29; stroke: #fff; opacity: 1;" id="p-type-functions"></path><path d="M150.64021881317785,-126.9508742621251A197,197,0,0,1,152.1936458034166,-125.08434824974776L131.80356356032968,-108.32622320010114A170.6070045455344,170.6070045455344,0,0,0,130.45825632385854,-109.94268214364439Z" fill-rule="evenodd" style="fill: #DB3F29; stroke: #fff; opacity: 1;" id="p-type-functions"></path><path d="M152.1936458034166,-125.08434824974776A197,197,0,0,1,153.72394686243373,-123.19881558292536L133.12884315287675,-106.69330401096752A170.6070045455344,170.6070045455344,0,0,0,131.80356356032968,-108.32622320010114Z" fill-rule="evenodd" style="fill: #DB3F29; stroke: #fff; opacity: 1;" id="p-type-functions"></path><path d="M153.72394686243373,-123.19881558292536A197,197,0,0,1,155.2308894599101,-121.29456276966903L134.43389372433617,-105.04417269945955A170.6070045455344,170.6070045455344,0,0,0,133.12884315287675,-106.69330401096752Z" fill-rule="evenodd" style="fill: #DB3F29; stroke: #fff; opacity: 1;" id="p-type-functions"></path><path d="M155.2308894599101,-121.29456276966903A197,197,0,0,1,156.71424461486103,-119.3718791625293L135.7185169713583,-103.37907985223666A170.6070045455344,170.6070045455344,0,0,0,134.43389372433617,-105.04417269945955Z" fill-rule="evenodd" style="fill: #DB3F29; stroke: #fff; opacity: 1;" id="p-type-functions"></path><path d="M156.71424461486103,-119.3718791625293A197,197,0,0,1,158.17378693043048,-117.43105691462877L136.9825176945398,-101.69827848132478A170.6070045455344,170.6070045455344,0,0,0,135.7185169713583,-103.37907985223666Z" fill-rule="evenodd" style="fill: #DB3F29; stroke: #fff; opacity: 1;" id="p-type-functions"></path><path d="M158.17378693043048,-117.43105691462877A197,197,0,0,1,159.60929462813985,-115.47239093526923L138.22570382808425,-100.00202398567109A170.6070045455344,170.6070045455344,0,0,0,136.9825176945398,-101.69827848132478Z" fill-rule="evenodd" style="fill: #DB3F29; stroke: #fff; opacity: 1;" id="p-type-functions"></path><path d="M159.60929462813985,-115.47239093526923A197,197,0,0,1,161.02054958158774,-113.49617884511994L139.44788646898672,-98.29057411233586A170.6070045455344,170.6070045455344,0,0,0,138.22570382808425,-100.00202398567109Z" fill-rule="evenodd" style="fill: #DB3F29; stroke: #fff; opacity: 1;" id="p-type-functions"></path><path d="M161.02054958158774,-113.49617884511994A197,197,0,0,1,162.40733734959412,-111.50272093099402L140.6488799057378,-96.56418891732767A170.6070045455344,170.6070045455344,0,0,0,139.44788646898672,-98.29057411233586Z" fill-rule="evenodd" style="fill: #DB3F29; stroke: #fff; opacity: 1;" id="p-type-functions"></path><path d="M162.40733734959412,-111.50272093099402A197,197,0,0,1,163.76944720878507,-109.49232010021963L141.8285016465424,-94.82313072608771A170.6070045455344,170.6070045455344,0,0,0,140.6488799057378,-96.56418891732767Z" fill-rule="evenodd" style="fill: #DB3F29; stroke: #fff; opacity: 1;" id="p-type-functions"></path><path d="M196.47037313715958,14.43580546229701A197,197,0,0,1,196.27750191312657,16.85651929499666L169.98130284811637,14.598173928849663A170.6070045455344,170.6070045455344,0,0,0,170.14833422778796,12.501774254439372Z" fill-rule="evenodd" style="fill: #1DC690; stroke: #fff; opacity: 1;" id="p-type-logs"></path><path d="M196.27750191312657,16.85651929499666A197,197,0,0,1,196.05480618501767,19.274671767767032L169.78844269025979,16.69235540049296A170.6070045455344,170.6070045455344,0,0,0,169.98130284811637,14.598173928849663Z" fill-rule="evenodd" style="fill: #1DC690; stroke: #fff; opacity: 1;" id="p-type-logs"></path><path d="M196.05480618501767,19.274671767767032A197,197,0,0,1,195.80231979160496,21.6898954406439L169.56978305945447,18.78400045702589A170.6070045455344,170.6070045455344,0,0,0,169.78844269025979,16.69235540049296Z" fill-rule="evenodd" style="fill: #1DC690; stroke: #fff; opacity: 1;" id="p-type-logs"></path><path d="M195.80231979160496,21.6898954406439A197,197,0,0,1,195.52008109837297,24.101823318696255L169.32535718118464,20.872791271515123A170.6070045455344,170.6070045455344,0,0,0,169.56978305945447,18.78400045702589Z" fill-rule="evenodd" style="fill: #1DC690; stroke: #fff; opacity: 1;" id="p-type-logs"></path><path d="M195.52008109837297,24.101823318696255A197,197,0,0,1,195.20813299168915,26.510088907791403L169.055202196134,22.958410450731417A170.6070045455344,170.6070045455344,0,0,0,169.32535718118464,20.872791271515123Z" fill-rule="evenodd" style="fill: #1DC690; stroke: #fff; opacity: 1;" id="p-type-logs"></path><path d="M195.20813299168915,26.510088907791403A197,197,0,0,1,194.86652287228702,28.914326270284022L168.75935915454193,25.04054108337772A170.6070045455344,170.6070045455344,0,0,0,169.055202196134,22.958410450731417Z" fill-rule="evenodd" style="fill: #1DC690; stroke: #fff; opacity: 1;" id="p-type-logs"></path><path d="M194.86652287228702,28.914326270284022A197,197,0,0,1,194.49530264806387,31.31417008062067L168.4378730099661,27.118866788244105A170.6070045455344,170.6070045455344,0,0,0,168.75935915454193,25.04054108337772Z" fill-rule="evenodd" style="fill: #1DC690; stroke: #fff; opacity: 1;" id="p-type-logs"></path><path d="M194.49530264806387,31.31417008062067A197,197,0,0,1,194.0945287261931,33.70925568085122L168.0907926124517,29.19307176228206A170.6070045455344,170.6070045455344,0,0,0,168.4378730099661,27.118866788244105Z" fill-rule="evenodd" style="fill: #1DC690; stroke: #fff; opacity: 1;" id="p-type-logs"></path><path d="M194.0945287261931,33.70925568085122A197,197,0,0,1,193.66426200455325,36.09921913603892L167.71817070110853,31.262840828591035A170.6070045455344,170.6070045455344,0,0,0,168.0907926124517,29.19307176228206Z" fill-rule="evenodd" style="fill: #1DC690; stroke: #fff; opacity: 1;" id="p-type-logs"></path><path d="M193.66426200455325,36.09921913603892A197,197,0,0,1,193.2045678624744,38.483697289560524L167.32006389609737,33.327859484309755A170.6070045455344,170.6070045455344,0,0,0,167.71817070110853,31.262840828591035Z" fill-rule="evenodd" style="fill: #1DC690; stroke: #fff; opacity: 1;" id="p-type-logs"></path><path d="M193.2045678624744,38.483697289560524A197,197,0,0,1,192.71551615080386,40.86232781828825L166.89653269002642,35.38781394840518A170.6070045455344,170.6070045455344,0,0,0,167.32006389609737,33.327859484309755Z" fill-rule="evenodd" style="fill: #1DC690; stroke: #fff; opacity: 1;" id="p-type-logs"></path><path d="M192.71551615080386,40.86232781828825A197,197,0,0,1,192.19718118129225,43.234749287644995L166.44764143875955,37.442391209351726A170.6070045455344,170.6070045455344,0,0,0,166.89653269002642,35.38781394840518Z" fill-rule="evenodd" style="fill: #1DC690; stroke: #fff; opacity: 1;" id="p-type-logs"></path><path d="M192.19718118129225,43.234749287644995A197,197,0,0,1,191.6496417153017,45.60060120652457L165.97345835163713,39.4912790726936A170.6070045455344,170.6070045455344,0,0,0,166.44764143875955,37.442391209351726Z" fill-rule="evenodd" style="fill: #1DC690; stroke: #fff; opacity: 1;" id="p-type-logs"></path><path d="M191.6496417153017,45.60060120652457A197,197,0,0,1,191.0729809518381,47.95952408206862L165.47405548111195,41.534166208482986A170.6070045455344,170.6070045455344,0,0,0,165.97345835163713,39.4912790726936Z" fill-rule="evenodd" style="fill: #1DC690; stroke: #fff; opacity: 1;" id="p-type-logs"></path><path d="M191.0729809518381,47.95952408206862A197,197,0,0,1,190.46728651490886,50.31115947429174L164.94950871180032,43.57074219858679A170.6070045455344,170.6070045455344,0,0,0,165.47405548111195,41.534166208482986Z" fill-rule="evenodd" style="fill: #1DC690; stroke: #fff; opacity: 1;" id="p-type-logs"></path><path d="M190.46728651490886,50.31115947429174A197,197,0,0,1,189.83265044020854,52.655150050546766L164.3998977489518,45.600697583854966A170.6070045455344,170.6070045455344,0,0,0,164.94950871180032,43.57074219858679Z" fill-rule="evenodd" style="fill: #1DC690; stroke: #fff; opacity: 1;" id="p-type-logs"></path><path d="M189.83265044020854,52.655150050546766A197,197,0,0,1,189.16916916113374,54.99113963982167L163.82530610633762,47.62372391114301A170.6070045455344,170.6070045455344,0,0,0,164.3998977489518,45.600697583854966Z" fill-rule="evenodd" style="fill: #1DC690; stroke: #fff; opacity: 1;" id="p-type-logs"></path><path d="M189.16916916113374,54.99113963982167A197,197,0,0,1,188.4769434941302,57.31877328685998L163.22582109356094,49.63951378018161A170.6070045455344,170.6070045455344,0,0,0,163.82530610633762,47.62372391114301Z" fill-rule="evenodd" style="fill: #1DC690; stroke: #fff; opacity: 1;" id="p-type-logs"></path><path d="M188.4769434941302,57.31877328685998A197,197,0,0,1,187.7560786233735,59.63769730609656L162.60153380278982,51.6477608902864A170.6070045455344,170.6070045455344,0,0,0,163.22582109356094,49.63951378018161Z" fill-rule="evenodd" style="fill: #1DC690; stroke: #fff; opacity: 1;" id="p-type-logs"></path><path d="M187.7560786233735,59.63769730609656A197,197,0,0,1,187.0066840847863,61.947559335400285L161.952539094916,53.6481600869005A170.6070045455344,170.6070045455344,0,0,0,162.60153380278982,51.6477608902864Z" fill-rule="evenodd" style="fill: #1DC690; stroke: #fff; opacity: 1;" id="p-type-logs"></path><path d="M187.0066840847863,61.947559335400285A197,197,0,0,1,186.22887374939435,64.24800838961576L161.2789355851405,55.640407407962996A170.6070045455344,170.6070045455344,0,0,0,161.952539094916,53.6481600869005Z" fill-rule="evenodd" style="fill: #1DC690; stroke: #fff; opacity: 1;" id="p-type-logs"></path><path d="M186.22887374939435,64.24800838961576A197,197,0,0,1,185.42276580602368,66.53869491389578L160.58082562798904,57.62420013009617A170.6070045455344,170.6070045455344,0,0,0,161.2789355851405,55.640407407962996Z" fill-rule="evenodd" style="fill: #1DC690; stroke: #fff; opacity: 1;" id="p-type-logs"></path><path d="M185.42276580602368,66.53869491389578A197,197,0,0,1,184.5884827433416,68.8192708368164L159.8583153017593,59.599236814604566A170.6070045455344,170.6070045455344,0,0,0,160.58082562798904,57.62420013009617Z" fill-rule="evenodd" style="fill: #1DC690; stroke: #fff; opacity: 1;" id="p-type-logs"></path><path d="M184.5884827433416,68.8192708368164A197,197,0,0,1,183.7261513312446,71.08938962326663L159.11151439240197,61.56521735327876A170.6070045455344,170.6070045455344,0,0,0,159.8583153017593,59.599236814604566Z" fill-rule="evenodd" style="fill: #1DC690; stroke: #fff; opacity: 1;" id="p-type-logs"></path><path d="M183.7261513312446,71.08938962326663A197,197,0,0,1,182.8359026015956,73.3487063271047L158.3405363768391,63.52184301399706A170.6070045455344,170.6070045455344,0,0,0,159.11151439240197,61.56521735327876Z" fill-rule="evenodd" style="fill: #1DC690; stroke: #fff; opacity: 1;" id="p-type-logs"></path><path d="M182.8359026015956,73.3487063271047A197,197,0,0,1,181.91787182831342,75.5968776435729L157.54549840572088,65.46881648611802A170.6070045455344,170.6070045455344,0,0,0,158.3405363768391,63.52184301399706Z" fill-rule="evenodd" style="fill: #1DC690; stroke: #fff; opacity: 1;" id="p-type-logs"></path><path d="M181.91787182831342,75.5968776435729A197,197,0,0,1,180.97219850681793,77.8335619614629L156.72652128562459,67.40584192565704A170.6070045455344,170.6070045455344,0,0,0,157.54549840572088,65.46881648611802Z" fill-rule="evenodd" style="fill: #1DC690; stroke: #fff; opacity: 1;" id="p-type-logs"></path><path d="M180.97219850681793,77.8335619614629A197,197,0,0,1,179.99902633283358,80.05841941502393L155.883729460698,69.33262500024004A170.6070045455344,170.6070045455344,0,0,0,156.72652128562459,67.40584192565704Z" fill-rule="evenodd" style="fill: #1DC690; stroke: #fff; opacity: 1;" id="p-type-logs"></path><path d="M179.99902633283358,80.05841941502393A197,197,0,0,1,178.9985031805548,82.27111193560546L155.01725099375008,71.24887293382747A170.6070045455344,170.6070045455344,0,0,0,155.883729460698,69.33262500024004Z" fill-rule="evenodd" style="fill: #1DC690; stroke: #fff; opacity: 1;" id="p-type-logs"></path><path d="M178.9985031805548,82.27111193560546A197,197,0,0,1,177.97078108017618,84.47130330302713L154.1272175467915,73.15429455120186A170.6070045455344,170.6070045455344,0,0,0,155.01725099375008,71.24887293382747Z" fill-rule="evenodd" style="fill: #1DC690; stroke: #fff; opacity: 1;" id="p-type-logs"></path><path d="M177.97078108017618,84.47130330302713A197,197,0,0,1,176.91601619479178,86.65865919666754L153.21376436102884,75.04860032221207A170.6070045455344,170.6070045455344,0,0,0,154.1272175467915,73.15429455120186Z" fill-rule="evenodd" style="fill: #1DC690; stroke: #fff; opacity: 1;" id="p-type-logs"></path><path d="M176.91601619479178,86.65865919666754A197,197,0,0,1,175.83436879666567,88.83284724626455L152.2770302363143,76.9315024057676A170.6070045455344,170.6070045455344,0,0,0,153.21376436102884,75.04860032221207Z" fill-rule="evenodd" style="fill: #1DC690; stroke: #fff; opacity: 1;" id="p-type-logs"></path><path d="M175.83436879666567,88.83284724626455A197,197,0,0,1,174.7260032428786,90.99353708241912L151.31715751005507,78.8027146935763A170.6070045455344,170.6070045455344,0,0,0,152.2770302363143,76.9315024057676Z" fill-rule="evenodd" style="fill: #1DC690; stroke: #fff; opacity: 1;" id="p-type-logs"></path><path d="M174.7260032428786,90.99353708241912A197,197,0,0,1,173.5910879503538,93.14040038679525L150.33429203558515,80.66195285361864A170.6070045455344,170.6070045455344,0,0,0,151.31715751005507,78.8027146935763Z" fill-rule="evenodd" style="fill: #1DC690; stroke: #fff; opacity: 1;" id="p-type-logs"></path><path d="M173.5910879503538,93.14040038679525A197,197,0,0,1,172.429795370266,95.27311094200813L149.32858316000275,82.50893437335222A170.6070045455344,170.6070045455344,0,0,0,150.33429203558515,80.66195285361864Z" fill-rule="evenodd" style="fill: #1DC690; stroke: #fff; opacity: 1;" id="p-type-logs"></path><path d="M172.429795370266,95.27311094200813A197,197,0,0,1,171.24230196183723,97.39134468119312L148.30018370147684,84.3433786026397A170.6070045455344,170.6070045455344,0,0,0,149.32858316000275,82.50893437335222Z" fill-rule="evenodd" style="fill: #1DC690; stroke: #fff; opacity: 1;" id="p-type-logs"></path><path d="M171.24230196183723,97.39134468119312A197,197,0,0,1,170.02878816552368,99.49477973724788L147.24924992602644,86.16500679639388A170.6070045455344,170.6070045455344,0,0,0,148.30018370147684,84.3433786026397Z" fill-rule="evenodd" style="fill: #1DC690; stroke: #fff; opacity: 1;" id="p-type-logs"></path><path d="M170.02878816552368,99.49477973724788A197,197,0,0,1,168.78943837559788,101.58309649174043L146.17594152377578,87.9735421569331A170.6070045455344,170.6070045455344,0,0,0,147.24924992602644,86.16500679639388Z" fill-rule="evenodd" style="fill: #1DC690; stroke: #fff; opacity: 1;" id="p-type-logs"></path><path d="M168.78943837559788,101.58309649174043A197,197,0,0,1,167.5244409121296,103.65597762347525L145.08042158468936,89.76870987604089A170.6070045455344,170.6070045455344,0,0,0,146.17594152377578,87.9735421569331Z" fill-rule="evenodd" style="fill: #1DC690; stroke: #fff; opacity: 1;" id="p-type-logs"></path><path d="M167.5244409121296,103.65597762347525A197,197,0,0,1,166.2339879923706,105.71310815671055L143.96285657379028,91.55023717672329A170.6070045455344,170.6070045455344,0,0,0,145.08042158468936,89.76870987604089Z" fill-rule="evenodd" style="fill: #1DC690; stroke: #fff; opacity: 1;" id="p-type-logs"></path><path d="M166.2339879923706,105.71310815671055A197,197,0,0,1,164.91827570154717,107.75417550901902L142.82341630586578,93.31785335465747A170.6070045455344,170.6070045455344,0,0,0,143.96285657379028,91.55023717672329Z" fill-rule="evenodd" style="fill: #1DC690; stroke: #fff; opacity: 1;" id="p-type-logs"></path><path d="M164.91827570154717,107.75417550901902A197,197,0,0,1,163.57750396306463,109.77886953878499L141.66227391966365,95.07128981932549A170.6070045455344,170.6070045455344,0,0,0,142.82341630586578,93.31785335465747Z" fill-rule="evenodd" style="fill: #1DC690; stroke: #fff; opacity: 1;" id="p-type-logs"></path><path d="M163.57750396306463,109.77886953878499A197,197,0,0,1,162.21187650812902,111.78688259233058L140.47960585158393,96.81028013482673A170.6070045455344,170.6070045455344,0,0,0,141.66227391966365,95.07128981932549Z" fill-rule="evenodd" style="fill: #1DC690; stroke: #fff; opacity: 1;" id="p-type-logs"></path><path d="M162.21187650812902,111.78688259233058A197,197,0,0,1,160.8216008447899,113.77790955066399L139.275591808869,98.53456006036312A170.6070045455344,170.6070045455344,0,0,0,140.47960585158393,96.81028013482673Z" fill-rule="evenodd" style="fill: #1DC690; stroke: #fff; opacity: 1;" id="p-type-logs"></path><path d="M79.0107899717215,180.4613395385408A197,197,0,0,1,20.55159542798846,195.9250671184376L17.798203728938127,169.67608536273818A170.6070045455344,170.6070045455344,0,0,0,68.42535128858758,156.28410444134548Z" fill-rule="evenodd" style="fill: #414552; stroke: #fff; opacity: 1;" id="p-type-ether"></path><path d="M20.55159542798846,195.9250671184376A197,197,0,0,1,-10.974466242842981,196.69407995840825L-9.504166559276783,170.34207001798916A170.6070045455344,170.6070045455344,0,0,0,17.798203728938127,169.67608536273818Z" fill-rule="evenodd" style="fill: #414552; stroke: #fff; opacity: 1;" id="p-type-ether"></path><path d="M-10.974466242842981,196.69407995840825A197,197,0,0,1,-35.80010616813549,193.7197780257613L-31.003801399785313,167.76624898579175A170.6070045455344,170.6070045455344,0,0,0,-9.504166559276783,170.34207001798916Z" fill-rule="evenodd" style="fill: #414552; stroke: #fff; opacity: 1;" id="p-type-ether"></path><path d="M-35.80010616813549,193.7197780257613A197,197,0,0,1,-58.187550090414675,188.21054437643892L-50.39189656227862,162.99511269009452A170.6070045455344,170.6070045455344,0,0,0,-31.003801399785313,167.76624898579175Z" fill-rule="evenodd" style="fill: #414552; stroke: #fff; opacity: 1;" id="p-type-ether"></path><path d="M-58.187550090414675,188.21054437643892A197,197,0,0,1,-64.52814192408418,186.13199321939592L-55.88301016526457,161.19503458502973A170.6070045455344,170.6070045455344,0,0,0,-50.39189656227862,162.99511269009452Z" fill-rule="evenodd" style="fill: #414552; stroke: #fff; opacity: 1;" id="p-type-ether"></path><path d="M-64.52814192408418,186.13199321939592A197,197,0,0,1,-67.09394408419702,185.22257601930343L-58.105060017007276,160.40745618711114A170.6070045455344,170.6070045455344,0,0,0,-55.88301016526457,161.19503458502973Z" fill-rule="evenodd" style="fill: #414552; stroke: #fff; opacity: 1;" id="p-type-ether"></path><path d="M-67.09394408419702,185.22257601930343A197,197,0,0,1,-68.14314165578176,184.83915236031586L-59.013691767588604,160.07540155801593A170.6070045455344,170.6070045455344,0,0,0,-58.105060017007276,160.40745618711114Z" fill-rule="evenodd" style="fill: #414552; stroke: #fff; opacity: 1;" id="p-type-ether"></path><path d="M-68.14314165578176,184.83915236031586A197,197,0,0,1,-69.07850770842288,184.49162521040722L-59.82374253101338,159.7744342176902A170.6070045455344,170.6070045455344,0,0,0,-59.013691767588604,160.07540155801593Z" fill-rule="evenodd" style="fill: #414552; stroke: #fff; opacity: 1;" id="p-type-ether"></path><path d="M-121.38763557694219,155.15811912059092A197,197,0,0,1,-123.2909843085034,153.6500347811232L-106.77312446875254,133.06483341281526A170.6070045455344,170.6070045455344,0,0,0,-105.12477611495964,134.37087276184377Z" fill-rule="evenodd" style="fill: #D7A449; stroke: #fff; opacity: 1;" id="p-type-tokenTransfers"></path><path d="M-123.2909843085034,153.6500347811232A197,197,0,0,1,-125.17559888852817,152.11860321110728L-108.40524857139654,131.73857476902398A170.6070045455344,170.6070045455344,0,0,0,-106.77312446875254,133.06483341281526Z" fill-rule="evenodd" style="fill: #D7A449; stroke: #fff; opacity: 1;" id="p-type-tokenTransfers"></path><path d="M-125.17559888852817,152.11860321110728A197,197,0,0,1,-127.04119294850933,150.56405711264432L-110.02090042048958,130.39229835640108A170.6070045455344,170.6070045455344,0,0,0,-108.40524857139654,131.73857476902398Z" fill-rule="evenodd" style="fill: #D7A449; stroke: #fff; opacity: 1;" id="p-type-tokenTransfers"></path><path d="M-127.04119294850933,150.56405711264432A197,197,0,0,1,-128.887483010121,148.98663270010422L-111.61983451660001,129.02620874259162A170.6070045455344,170.6070045455344,0,0,0,-110.02090042048958,130.39229835640108Z" fill-rule="evenodd" style="fill: #D7A449; stroke: #fff; opacity: 1;" id="p-type-tokenTransfers"></path><path d="M-128.887483010121,148.98663270010422A197,197,0,0,1,-130.7141885282934,147.38656966423287L-113.20180790057051,127.64051350587056A170.6070045455344,170.6070045455344,0,0,0,-111.61983451660001,129.02620874259162Z" fill-rule="evenodd" style="fill: #D7A449; stroke: #fff; opacity: 1;" id="p-type-tokenTransfers"></path><path d="M-130.7141885282934,147.38656966423287A197,197,0,0,1,-132.5210319338419,145.76411113573073L-114.76658019043592,126.23542320360099A170.6070045455344,170.6070045455344,0,0,0,-113.20180790057051,127.64051350587056Z" fill-rule="evenodd" style="fill: #D7A449; stroke: #fff; opacity: 1;" id="p-type-tokenTransfers"></path><path d="M-132.5210319338419,145.76411113573073A197,197,0,0,1,-134.30773867564375,144.11950364830912L-116.31391361794924,124.81115134023979A170.6070045455344,170.6070045455344,0,0,0,-114.76658019043592,126.23542320360099Z" fill-rule="evenodd" style="fill: #D7A449; stroke: #fff; opacity: 1;" id="p-type-tokenTransfers"></path><path d="M-134.30773867564375,144.11950364830912A197,197,0,0,1,-136.07403726235646,142.45299710122922L-117.84357306471101,123.3679143348955A170.6070045455344,170.6070045455344,0,0,0,-116.31391361794924,124.81115134023979Z" fill-rule="evenodd" style="fill: #D7A449; stroke: #fff; opacity: 1;" id="p-type-tokenTransfers"></path><path d="M-136.07403726235646,142.45299710122922A197,197,0,0,1,-137.81965930367096,140.76484472132972L-119.3553260978954,121.90593148844337A170.6070045455344,170.6070045455344,0,0,0,-117.84357306471101,123.3679143348955Z" fill-rule="evenodd" style="fill: #D7A449; stroke: #fff; opacity: 1;" id="p-type-tokenTransfers"></path><path d="M-137.81965930367096,140.76484472132972A197,197,0,0,1,-139.54433955109374,139.05530302454866L-120.84894300556877,120.42542495020223A170.6070045455344,170.6070045455344,0,0,0,-119.3553260978954,121.90593148844337Z" fill-rule="evenodd" style="fill: #D7A449; stroke: #fff; opacity: 1;" id="p-type-tokenTransfers"></path><path d="M-139.54433955109374,139.05530302454866A197,197,0,0,1,-141.24781593825165,137.3246317769459L-122.32419683159445,118.92661968417892A170.6070045455344,170.6070045455344,0,0,0,-120.84894300556877,120.42542495020223Z" fill-rule="evenodd" style="fill: #D7A449; stroke: #fff; opacity: 1;" id="p-type-tokenTransfers"></path><path d="M-141.24781593825165,137.3246317769459A197,197,0,0,1,-142.9298296207129,135.57309395523134L-123.78086341011888,117.40974343488485A170.6070045455344,170.6070045455344,0,0,0,-122.32419683159445,118.92661968417892Z" fill-rule="evenodd" style="fill: #D7A449; stroke: #fff; opacity: 1;" id="p-type-tokenTransfers"></path><path d="M-142.9298296207129,135.57309395523134A197,197,0,0,1,-144.5901250153187,133.8009557068054L-125.21872139963385,115.87502669272995A170.6070045455344,170.6070045455344,0,0,0,-123.78086341011888,117.40974343488485Z" fill-rule="evenodd" style="fill: #D7A449; stroke: #fff; opacity: 1;" id="p-type-tokenTransfers"></path><path d="M-144.5901250153187,133.8009557068054A197,197,0,0,1,-146.22844983901948,132.00848630931787L-126.63755231660936,114.32270265899956A170.6070045455344,170.6070045455344,0,0,0,-125.21872139963385,115.87502669272995Z" fill-rule="evenodd" style="fill: #D7A449; stroke: #fff; opacity: 1;" id="p-type-tokenTransfers"></path><path d="M-146.22844983901948,132.00848630931787A197,197,0,0,1,-147.84455514720915,130.19595812975084L-128.0371405686925,112.75300721041934A170.6070045455344,170.6070045455344,0,0,0,-126.63755231660936,114.32270265899956Z" fill-rule="evenodd" style="fill: #D7A449; stroke: #fff; opacity: 1;" id="p-type-tokenTransfers"></path><path d="M-147.84455514720915,130.19595812975084A197,197,0,0,1,-149.4381953715527,128.36364658303242L-129.41727348746673,111.16617886331363A170.6070045455344,170.6070045455344,0,0,0,-128.0371405686925,112.75300721041934Z" fill-rule="evenodd" style="fill: #D7A449; stroke: #fff; opacity: 1;" id="p-type-tokenTransfers"></path><path d="M-149.4381953715527,128.36364658303242A197,197,0,0,1,-151.00912835730028,126.51183009018722L-130.77774136076712,109.56245873736268A170.6070045455344,170.6070045455344,0,0,0,-129.41727348746673,111.16617886331363Z" fill-rule="evenodd" style="fill: #D7A449; stroke: #fff; opacity: 1;" id="p-type-tokenTransfers"></path><path d="M-151.00912835730028,126.51183009018722A197,197,0,0,1,-152.55711540008303,124.64079003603014L-132.1183374645461,107.94209051896443A170.6070045455344,170.6070045455344,0,0,0,-130.77774136076712,109.56245873736268Z" fill-rule="evenodd" style="fill: #D7A449; stroke: #fff; opacity: 1;" id="p-type-tokenTransfers"></path><path d="M-152.55711540008303,124.64079003603014A197,197,0,0,1,-154.08192128218403,122.75081072640963L-133.4388580942855,106.3053204242061A170.6070045455344,170.6070045455344,0,0,0,-132.1183374645461,107.94209051896443Z" fill-rule="evenodd" style="fill: #D7A449; stroke: #fff; opacity: 1;" id="p-type-tokenTransfers"></path><path d="M-154.08192128218403,122.75081072640963A197,197,0,0,1,-155.58331430828008,120.84217934500737L-134.7391025959495,104.65239716145156A170.6070045455344,170.6070045455344,0,0,0,-133.4388580942855,106.3053204242061Z" fill-rule="evenodd" style="fill: #D7A449; stroke: #fff; opacity: 1;" id="p-type-tokenTransfers"></path><path d="M-155.58331430828008,120.84217934500737A197,197,0,0,1,-157.0610663406479,118.91518590970037L-136.0188733964741,102.98357189354985A170.6070045455344,170.6070045455344,0,0,0,-134.7391025959495,104.65239716145156Z" fill-rule="evenodd" style="fill: #D7A449; stroke: #fff; opacity: 1;" id="p-type-tokenTransfers"></path><path d="M-157.0610663406479,118.91518590970037A197,197,0,0,1,-158.51495283382968,116.97012322849262L-137.27797603378858,101.29909819967087A170.6070045455344,170.6070045455344,0,0,0,-136.0188733964741,102.98357189354985Z" fill-rule="evenodd" style="fill: #D7A449; stroke: #fff; opacity: 1;" id="p-type-tokenTransfers"></path><path d="M-158.51495283382968,116.97012322849262A197,197,0,0,1,-159.9447528687531,115.00728685502277L-138.51621918636417,99.59923203677386A170.6070045455344,170.6070045455344,0,0,0,-137.27797603378858,101.29909819967087Z" fill-rule="evenodd" style="fill: #D7A449; stroke: #fff; opacity: 1;" id="p-type-tokenTransfers"></path><path d="M-159.9447528687531,115.00728685502277A197,197,0,0,1,-161.3502491863001,113.02697504365436L-139.73341470228533,97.88423170071444A170.6070045455344,170.6070045455344,0,0,0,-138.51621918636417,99.59923203677386Z" fill-rule="evenodd" style="fill: #D7A449; stroke: #fff; opacity: 1;" id="p-type-tokenTransfers"></path><path d="M-161.3502491863001,113.02697504365436A197,197,0,0,1,-162.73122822031942,111.02948870415601L-140.92937762783978,96.15435778699647A170.6070045455344,170.6070045455344,0,0,0,-139.73341470228533,97.88423170071444Z" fill-rule="evenodd" style="fill: #D7A449; stroke: #fff; opacity: 1;" id="p-type-tokenTransfers"></path><path d="M-162.73122822031942,111.02948870415601A197,197,0,0,1,-164.08748013007838,109.01513135597801L-142.10392623562217,94.40987315117447A170.6070045455344,170.6070045455344,0,0,0,-140.92937762783978,96.15435778699647Z" fill-rule="evenodd" style="fill: #D7A449; stroke: #fff; opacity: 1;" id="p-type-tokenTransfers"></path><path d="M-164.08748013007838,109.01513135597801A197,197,0,0,1,-165.41879883214793,106.98420908213217L-143.25688205214774,92.65104286891231A170.6070045455344,170.6070045455344,0,0,0,-142.10392623562217,94.40987315117447Z" fill-rule="evenodd" style="fill: #D7A449; stroke: #fff; opacity: 1;" id="p-type-tokenTransfers"></path><path d="M-165.41879883214793,106.98420908213217A197,197,0,0,1,-166.7249820317177,104.9370304826824L-144.3880698849716,90.87813419570497A170.6070045455344,170.6070045455344,0,0,0,-143.25688205214774,92.65104286891231Z" fill-rule="evenodd" style="fill: #D7A449; stroke: #fff; opacity: 1;" id="p-type-tokenTransfers"></path><path d="M-166.7249820317177,104.9370304826824A197,197,0,0,1,-168.00583125333432,102.87390662785268L-145.49731784930913,89.09141652626874A170.6070045455344,170.6070045455344,0,0,0,-144.3880698849716,90.87813419570497Z" fill-rule="evenodd" style="fill: #D7A449; stroke: #fff; opacity: 1;" id="p-type-tokenTransfers"></path><path d="M-168.00583125333432,102.87390662785268A197,197,0,0,1,-169.26115187106032,100.79515101075972L-146.5844573941542,87.29116135360665A170.6070045455344,170.6070045455344,0,0,0,-145.49731784930913,89.09141652626874Z" fill-rule="evenodd" style="fill: #D7A449; stroke: #fff; opacity: 1;" id="p-type-tokenTransfers"></path><path d="M-169.26115187106032,100.79515101075972A197,197,0,0,1,-170.49075313804735,98.70107949977752L-147.6493233278905,85.47764222775481A170.6070045455344,170.6070045455344,0,0,0,-146.5844573941542,87.29116135360665Z" fill-rule="evenodd" style="fill: #D7A449; stroke: #fff; opacity: 1;" id="p-type-tokenTransfers"></path><path d="M-170.49075313804735,98.70107949977752A197,197,0,0,1,-171.6944482155205,96.59201029054083L-148.69175384339255,83.65113471421628A170.6070045455344,170.6070045455344,0,0,0,-147.6493233278905,85.47764222775481Z" fill-rule="evenodd" style="fill: #D7A449; stroke: #fff; opacity: 1;" id="p-type-tokenTransfers"></path><path d="M-171.6944482155205,96.59201029054083A197,197,0,0,1,-172.8720542011686,94.4682638575952L-149.71159054261238,81.81191635208877A170.6070045455344,170.6070045455344,0,0,0,-148.69175384339255,83.65113471421628Z" fill-rule="evenodd" style="fill: #D7A449; stroke: #fff; opacity: 1;" id="p-type-tokenTransfers"></path><path d="M-172.8720542011686,94.4682638575952A197,197,0,0,1,-174.02339215693613,92.33016290570065L-150.70867846064831,79.96026661189241A170.6070045455344,170.6070045455344,0,0,0,-149.71159054261238,81.81191635208877Z" fill-rule="evenodd" style="fill: #D7A449; stroke: #fff; opacity: 1;" id="p-type-tokenTransfers"></path><path d="M-174.02339215693613,92.33016290570065A197,197,0,0,1,-175.14828713621327,90.17803232079635L-151.68286608929188,78.09646685310382A170.6070045455344,170.6070045455344,0,0,0,-150.70867846064831,79.96026661189241Z" fill-rule="evenodd" style="fill: #D7A449; stroke: #fff; opacity: 1;" id="p-type-tokenTransfers"></path></g></svg>