<svg xmlns="http://www.w3.org/2000/svg" width="400" height="400" id="block-7908809"><g id="burst-container" transform="translate(200,200)"><circle r="197" style="fill: #f9f9f9; stroke: #f9f9f9; stroke-width: 3; opacity: 1;" id="circle-base"></circle><path display="none" d="M6.031385485800715e-15,-98.5A98.5,98.5,0,1,1,-6.031385485800715e-15,98.5A98.5,98.5,0,1,1,6.031385485800715e-15,-98.5Z" fill-rule="evenodd" id="p-type-root" style="stroke: #fff; opacity: 1;"></path><path d="M8.529667153919608e-15,-139.30003589374985A139.30003589374985,139.30003589374985,0,1,1,-114.81833908143095,-78.87489467873505L-81.18882616905621,-55.77297289270829A98.5,98.5,0,1,0,6.031385485800715e-15,-98.5Z" fill-rule="evenodd" style="fill: #0B1F65; stroke: #fff; opacity: 1;" id="p-type-data"></path><path d="M-114.81833908143095,-78.87489467873505A139.30003589374985,139.30003589374985,0,0,1,-2.409969303277941,-139.2791874184986L-1.7041056367992513,-98.48525790177243A98.5,98.5,0,0,0,-81.18882616905621,-55.77297289270829Z" fill-rule="evenodd" style="fill: #D7A449; stroke: #fff; opacity: 1;" id="p-type-value"></path><path d="M1.0446666101440332e-14,-170.6070045455344A170.6070045455344,170.6070045455344,0,0,1,151.49544389221856,78.45941931915922L123.69551196412459,64.06184761566827A139.30003589374985,139.30003589374985,0,0,0,8.529667153919608e-15,-139.30003589374985Z" fill-rule="evenodd" style="fill: #414552; stroke: #fff; opacity: 1;" id="p-type-ether"></path><path d="M151.49544389221856,78.45941931915922A170.6070045455344,170.6070045455344,0,0,1,-23.041425146448233,169.04390769034129L-18.81324485177711,138.02377265582578A139.30003589374985,139.30003589374985,0,0,0,123.69551196412459,64.06184761566827Z" fill-rule="evenodd" style="fill: #1DC690; stroke: #fff; opacity: 1;" id="p-type-logs"></path><path d="M-23.041425146448233,169.04390769034129A170.6070045455344,170.6070045455344,0,0,1,-143.2109717445898,92.72199076794185L-116.93126878079477,75.7071884388367A139.30003589374985,139.30003589374985,0,0,0,-18.81324485177711,138.02377265582578Z" fill-rule="evenodd" style="fill: #D7A449; stroke: #fff; opacity: 1;" id="p-type-tokenTransfers"></path><path d="M-140.623171931683,-96.6016227393325A170.6070045455344,170.6070045455344,0,0,1,-76.83000886144445,-152.32826309766145L-62.73143954801629,-124.37550599789965A139.30003589374985,139.30003589374985,0,0,0,-114.81833908143095,-78.87489467873505Z" fill-rule="evenodd" style="fill: #414552; stroke: #fff; opacity: 1;" id="p-type-ether"></path><path d="M-76.83000886144445,-152.32826309766145A170.6070045455344,170.6070045455344,0,0,1,-5.902311581371753,-170.50487593613389L-4.8192172257601555,-139.21664823335942A139.30003589374985,139.30003589374985,0,0,0,-62.73143954801629,-124.37550599789965Z" fill-rule="evenodd" style="fill: #D7A449; stroke: #fff; opacity: 1;" id="p-type-tokenTransfers"></path><path d="M1.206277097160143e-14,-197A197,197,0,0,1,50.55375141152287,-190.40304151515528L43.780832978982225,-164.8938709099476A170.6070045455344,170.6070045455344,0,0,0,1.0446666101440332e-14,-170.6070045455344Z" fill-rule="evenodd" style="fill: #414552; stroke: #fff; opacity: 1;" id="p-type-ether"></path><path d="M50.55375141152287,-190.40304151515528A197,197,0,0,1,95.80635015061024,-172.13408515113636L82.97073307429555,-149.07249059807782A170.6070045455344,170.6070045455344,0,0,0,43.780832978982225,-164.8938709099476Z" fill-rule="evenodd" style="fill: #414552; stroke: #fff; opacity: 1;" id="p-type-ether"></path><path d="M95.80635015061024,-172.13408515113636A197,197,0,0,1,131.06324471515066,-147.07625873925585L113.50409942573705,-127.37177636176861A170.6070045455344,170.6070045455344,0,0,0,82.97073307429555,-149.07249059807782Z" fill-rule="evenodd" style="fill: #414552; stroke: #fff; opacity: 1;" id="p-type-ether"></path><path d="M131.06324471515066,-147.07625873925585A197,197,0,0,1,160.00171064714317,-114.92803222011534L138.56554606939306,-99.53059550957636A170.6070045455344,170.6070045455344,0,0,0,113.50409942573705,-127.37177636176861Z" fill-rule="evenodd" style="fill: #414552; stroke: #fff; opacity: 1;" id="p-type-ether"></path><path d="M160.00171064714317,-114.92803222011534A197,197,0,0,1,174.65202265293303,-91.1354540408911L151.25308843977524,-78.92561838484087A170.6070045455344,170.6070045455344,0,0,0,138.56554606939306,-99.53059550957636Z" fill-rule="evenodd" style="fill: #414552; stroke: #fff; opacity: 1;" id="p-type-ether"></path><path d="M174.65202265293303,-91.1354540408911A197,197,0,0,1,183.72946239467655,-71.08083179144106L159.1143818574476,-61.557806053516494A170.6070045455344,170.6070045455344,0,0,0,151.25308843977524,-78.92561838484087Z" fill-rule="evenodd" style="fill: #414552; stroke: #fff; opacity: 1;" id="p-type-ether"></path><path d="M183.72946239467655,-71.08083179144106A197,197,0,0,1,189.6473375978503,-53.3187335000279L164.23941211982205,-46.17537770863654A170.6070045455344,170.6070045455344,0,0,0,159.1143818574476,-61.557806053516494Z" fill-rule="evenodd" style="fill: #414552; stroke: #fff; opacity: 1;" id="p-type-ether"></path><path d="M189.6473375978503,-53.3187335000279A197,197,0,0,1,193.56390934189818,-36.63349560554422L167.63126274591184,-31.72553782382689A170.6070045455344,170.6070045455344,0,0,0,164.23941211982205,-46.17537770863654Z" fill-rule="evenodd" style="fill: #414552; stroke: #fff; opacity: 1;" id="p-type-ether"></path><path d="M193.56390934189818,-36.63349560554422A197,197,0,0,1,195.58697548237438,-23.552813455234663L169.38328941710037,-20.39733478282916A170.6070045455344,170.6070045455344,0,0,0,167.63126274591184,-31.72553782382689Z" fill-rule="evenodd" style="fill: #414552; stroke: #fff; opacity: 1;" id="p-type-ether"></path><path d="M195.58697548237438,-23.552813455234663A197,197,0,0,1,195.9695363154692,-20.1231418098666L169.71459681705343,-17.427152011301242A170.6070045455344,170.6070045455344,0,0,0,169.38328941710037,-20.39733478282916Z" fill-rule="evenodd" style="fill: #414552; stroke: #fff; opacity: 1;" id="p-type-ether"></path><path d="M195.9695363154692,-20.1231418098666A197,197,0,0,1,196.1611642850598,-18.160331118395852L169.88055150679452,-15.727308089667874A170.6070045455344,170.6070045455344,0,0,0,169.71459681705343,-17.427152011301242Z" fill-rule="evenodd" style="fill: #414552; stroke: #fff; opacity: 1;" id="p-type-ether"></path><path d="M196.1611642850598,-18.160331118395852A197,197,0,0,1,196.32360608115476,-16.310784631389314L170.02123022884913,-14.125553846439946A170.6070045455344,170.6070045455344,0,0,0,169.88055150679452,-15.727308089667874Z" fill-rule="evenodd" style="fill: #414552; stroke: #fff; opacity: 1;" id="p-type-ether"></path><path d="M196.32360608115476,-16.310784631389314A197,197,0,0,1,196.46617056505573,-14.492888721798264L170.1446946935848,-12.55120980729828A170.6070045455344,170.6070045455344,0,0,0,170.02123022884913,-14.125553846439946Z" fill-rule="evenodd" style="fill: #414552; stroke: #fff; opacity: 1;" id="p-type-ether"></path><path d="M196.46617056505573,-14.492888721798264A197,197,0,0,1,196.58308422037197,-12.809800873008887L170.24594488913795,-11.093612973445776A170.6070045455344,170.6070045455344,0,0,0,170.1446946935848,-12.55120980729828Z" fill-rule="evenodd" style="fill: #414552; stroke: #fff; opacity: 1;" id="p-type-ether"></path><path d="M196.58308422037197,-12.809800873008887A197,197,0,0,1,196.68073559749178,-11.21107688090354L170.33051346243823,-9.709077382642873A170.6070045455344,170.6070045455344,0,0,0,170.24594488913795,-11.093612973445776Z" fill-rule="evenodd" style="fill: #414552; stroke: #fff; opacity: 1;" id="p-type-ether"></path><path d="M196.68073559749178,-11.21107688090354A197,197,0,0,1,196.74268818083598,-10.065517740203179L170.38416597344437,-8.716994065258888A170.6070045455344,170.6070045455344,0,0,0,170.33051346243823,-9.709077382642873Z" fill-rule="evenodd" style="fill: #414552; stroke: #fff; opacity: 1;" id="p-type-ether"></path><path d="M174.93187062434845,90.5971337287566A197,197,0,0,1,174.1416050469554,92.10701054572448L150.81105382645978,79.76701099923858A170.6070045455344,170.6070045455344,0,0,0,151.49544389221856,78.45941931915922Z" fill-rule="evenodd" style="fill: #1DC690; stroke: #fff; opacity: 1;" id="p-type-logs"></path><path d="M174.1416050469554,92.10701054572448A197,197,0,0,1,173.33830768947627,93.60999459111434L150.11537790808995,81.06863336402891A170.6070045455344,170.6070045455344,0,0,0,150.81105382645978,79.76701099923858Z" fill-rule="evenodd" style="fill: #1DC690; stroke: #fff; opacity: 1;" id="p-type-logs"></path><path d="M173.33830768947627,93.60999459111434A197,197,0,0,1,172.52203866617555,95.10597339003803L149.40846819758923,82.36418900741975A170.6070045455344,170.6070045455344,0,0,0,150.11537790808995,81.06863336402891Z" fill-rule="evenodd" style="fill: #1DC690; stroke: #fff; opacity: 1;" id="p-type-logs"></path><path d="M172.52203866617555,95.10597339003803A197,197,0,0,1,171.69285906204448,96.59483499184071L148.69037759611177,83.65358097730007A170.6070045455344,170.6070045455344,0,0,0,149.40846819758923,82.36418900741975Z" fill-rule="evenodd" style="fill: #1DC690; stroke: #fff; opacity: 1;" id="p-type-logs"></path><path d="M171.69285906204448,96.59483499184071A197,197,0,0,1,170.85083092822953,98.07646797847859L147.9611598415268,84.93671278281349A170.6070045455344,170.6070045455344,0,0,0,148.69037759611177,83.65358097730007Z" fill-rule="evenodd" style="fill: #1DC690; stroke: #fff; opacity: 1;" id="p-type-logs"></path><path d="M170.85083092822953,98.07646797847859A197,197,0,0,1,169.99601727738903,99.5507614728569L147.22086950439723,86.21348840157923A170.6070045455344,170.6070045455344,0,0,0,147.9611598415268,84.93671278281349Z" fill-rule="evenodd" style="fill: #1DC690; stroke: #fff; opacity: 1;" id="p-type-logs"></path><path d="M169.99601727738903,99.5507614728569A197,197,0,0,1,169.12848207897773,101.01760514712724L146.4695619838959,87.48381228687785A170.6070045455344,170.6070045455344,0,0,0,147.22086950439723,86.21348840157923Z" fill-rule="evenodd" style="fill: #1DC690; stroke: #fff; opacity: 1;" id="p-type-logs"></path><path d="M169.12848207897773,101.01760514712724A197,197,0,0,1,168.2482902544595,102.47688923094393L145.7072935036597,88.7475893748014A170.6070045455344,170.6070045455344,0,0,0,146.4695619838959,87.48381228687785Z" fill-rule="evenodd" style="fill: #1DC690; stroke: #fff; opacity: 1;" id="p-type-logs"></path><path d="M168.2482902544595,102.47688923094393A197,197,0,0,1,167.35550767244905,103.92850451967857L144.9341211075824,90.00472509136749A170.6070045455344,170.6070045455344,0,0,0,145.7072935036597,88.7475893748014Z" fill-rule="evenodd" style="fill: #1DC690; stroke: #fff; opacity: 1;" id="p-type-logs"></path><path d="M167.35550767244905,103.92850451967857A197,197,0,0,1,166.4502011437827,105.37234238259238L144.15010265554545,91.25512535959668A170.6070045455344,170.6070045455344,0,0,0,144.9341211075824,90.00472509136749Z" fill-rule="evenodd" style="fill: #1DC690; stroke: #fff; opacity: 1;" id="p-type-logs"></path><path d="M166.4502011437827,105.37234238259238A197,197,0,0,1,165.5324384165187,106.80829477096547L143.35529681908832,92.49869660655271A170.6070045455344,170.6070045455344,0,0,0,144.15010265554545,91.25512535959668Z" fill-rule="evenodd" style="fill: #1DC690; stroke: #fff; opacity: 1;" id="p-type-logs"></path><path d="M165.5324384165187,106.80829477096547A197,197,0,0,1,164.60228817086713,108.23625422618252L142.54976307701773,93.73534577034486A170.6070045455344,170.6070045455344,0,0,0,143.35529681908832,92.49869660655271Z" fill-rule="evenodd" style="fill: #1DC690; stroke: #fff; opacity: 1;" id="p-type-logs"></path><path d="M164.60228817086713,108.23625422618252A197,197,0,0,1,163.65982001405055,109.65611388777454L141.73356171095668,94.96498030709233A170.6070045455344,170.6070045455344,0,0,0,142.54976307701773,93.73534577034486Z" fill-rule="evenodd" style="fill: #1DC690; stroke: #fff; opacity: 1;" id="p-type-logs"></path><path d="M163.65982001405055,109.65611388777454A197,197,0,0,1,162.70510447509474,111.06776750141556L140.9067538008332,96.18750819784957A170.6070045455344,170.6070045455344,0,0,0,141.73356171095668,94.96498030709233Z" fill-rule="evenodd" style="fill: #1DC690; stroke: #fff; opacity: 1;" id="p-type-logs"></path><path d="M162.70510447509474,111.06776750141556A197,197,0,0,1,161.73821299955085,112.47110942687421L140.06940122030957,97.40283795549252A170.6070045455344,170.6070045455344,0,0,0,140.9067538008332,96.18750819784957Z" fill-rule="evenodd" style="fill: #1DC690; stroke: #fff; opacity: 1;" id="p-type-logs"></path><path d="M161.73821299955085,112.47110942687421A197,197,0,0,1,160.7592179441488,113.86603464591919L139.22156663215202,98.61087863156504A170.6070045455344,170.6070045455344,0,0,0,140.06940122030957,97.40283795549252Z" fill-rule="evenodd" style="fill: #1DC690; stroke: #fff; opacity: 1;" id="p-type-logs"></path><path d="M160.7592179441488,113.86603464591919A197,197,0,0,1,159.76819257138234,115.25243877017826L138.36331348354133,99.81153982308491A170.6070045455344,170.6070045455344,0,0,0,139.22156663215202,98.61087863156504Z" fill-rule="evenodd" style="fill: #1DC690; stroke: #fff; opacity: 1;" id="p-type-logs"></path><path d="M159.76819257138234,115.25243877017826A197,197,0,0,1,158.76521104402678,116.63021804895006L137.49470600132491,101.0047316793091A170.6070045455344,170.6070045455344,0,0,0,138.36331348354133,99.81153982308491Z" fill-rule="evenodd" style="fill: #1DC690; stroke: #fff; opacity: 1;" id="p-type-logs"></path><path d="M158.76521104402678,116.63021804895006A197,197,0,0,1,157.75034841958885,117.99926937696826L136.61580918721032,102.19036490845768A170.6070045455344,170.6070045455344,0,0,0,137.49470600132491,101.0047316793091Z" fill-rule="evenodd" style="fill: #1DC690; stroke: #fff; opacity: 1;" id="p-type-logs"></path><path d="M157.75034841958885,117.99926937696826A197,197,0,0,1,156.72368064468992,119.35949030211736L135.726688812901,103.36835078439599A170.6070045455344,170.6070045455344,0,0,0,136.61580918721032,102.19036490845768Z" fill-rule="evenodd" style="fill: #1DC690; stroke: #fff; opacity: 1;" id="p-type-logs"></path><path d="M156.72368064468992,119.35949030211736A197,197,0,0,1,155.6852845493825,120.71077903309964L134.8274114151742,104.53860115327427A170.6070045455344,170.6070045455344,0,0,0,135.726688812901,103.36835078439599Z" fill-rule="evenodd" style="fill: #1DC690; stroke: #fff; opacity: 1;" id="p-type-logs"></path><path d="M155.6852845493825,120.71077903309964A197,197,0,0,1,154.63523784140074,122.05303444705265L133.91804429090178,105.70102844012477A170.6070045455344,170.6070045455344,0,0,0,134.8274114151742,104.53860115327427Z" fill-rule="evenodd" style="fill: #1DC690; stroke: #fff; opacity: 1;" id="p-type-logs"></path><path d="M154.63523784140074,122.05303444705265A197,197,0,0,1,153.57361910034535,123.38615609711667L132.99865549201417,106.85554565541523A170.6070045455344,170.6070045455344,0,0,0,133.91804429090178,105.70102844012477Z" fill-rule="evenodd" style="fill: #1DC690; stroke: #fff; opacity: 1;" id="p-type-logs"></path><path d="M153.57361910034535,123.38615609711667A197,197,0,0,1,152.50050777180292,124.71004421995158L132.06931382040753,108.00206640155876A170.6070045455344,170.6070045455344,0,0,0,132.99865549201417,106.85554565541523Z" fill-rule="evenodd" style="fill: #1DC690; stroke: #fff; opacity: 1;" id="p-type-logs"></path><path d="M152.50050777180292,124.71004421995158A197,197,0,0,1,151.41598416140081,126.0245997432026L131.1300888227953,109.1405048793793A170.6070045455344,170.6070045455344,0,0,0,132.06931382040753,108.00206640155876Z" fill-rule="evenodd" style="fill: #1DC690; stroke: #fff; opacity: 1;" id="p-type-logs"></path><path d="M151.41598416140081,126.0245997432026A197,197,0,0,1,150.32012942879746,127.32972429291435L130.1810507855034,110.27077589453239A170.6070045455344,170.6070045455344,0,0,0,131.1300888227953,109.1405048793793Z" fill-rule="evenodd" style="fill: #1DC690; stroke: #fff; opacity: 1;" id="p-type-logs"></path><path d="M150.32012942879746,127.32972429291435A197,197,0,0,1,149.21302558160892,128.6253202008925L129.2222707292106,111.39279486388064A170.6070045455344,170.6070045455344,0,0,0,130.1810507855034,110.27077589453239Z" fill-rule="evenodd" style="fill: #1DC690; stroke: #fff; opacity: 1;" id="p-type-logs"></path><path d="M149.21302558160892,128.6253202008925A197,197,0,0,1,148.0947554692718,129.91129051201284L128.2538204036338,112.50647782182344A170.6070045455344,170.6070045455344,0,0,0,129.2222707292106,111.39279486388064Z" fill-rule="evenodd" style="fill: #1DC690; stroke: #fff; opacity: 1;" id="p-type-logs"></path><path d="M148.0947554692718,129.91129051201284A197,197,0,0,1,146.96540277684326,131.18753899147674L127.27577228215836,113.61174142658042A170.6070045455344,170.6070045455344,0,0,0,128.2538204036338,112.50647782182344Z" fill-rule="evenodd" style="fill: #1DC690; stroke: #fff; opacity: 1;" id="p-type-logs"></path><path d="M146.96540277684326,131.18753899147674A197,197,0,0,1,145.8250520187387,132.45397013201287L126.28819955641492,114.70850296642843A170.6070045455344,170.6070045455344,0,0,0,127.27577228215836,113.61174142658042Z" fill-rule="evenodd" style="fill: #1DC690; stroke: #fff; opacity: 1;" id="p-type-logs"></path><path d="M145.8250520187387,132.45397013201287A197,197,0,0,1,144.67378853240677,133.7104891610245L125.29117613080206,115.79668036589105A170.6070045455344,170.6070045455344,0,0,0,126.28819955641492,114.70850296642843Z" fill-rule="evenodd" style="fill: #1DC690; stroke: #fff; opacity: 1;" id="p-type-logs"></path><path d="M144.67378853240677,133.7104891610245A197,197,0,0,1,143.51169847194362,134.9570020476816L124.28477661695558,116.87619219188076A170.6070045455344,170.6070045455344,0,0,0,125.29117613080206,115.79668036589105Z" fill-rule="evenodd" style="fill: #1DC690; stroke: #fff; opacity: 1;" id="p-type-logs"></path><path d="M143.51169847194362,134.9570020476816A197,197,0,0,1,142.3388688016454,136.19341550995767L123.26907632816518,117.94695765979293A170.6070045455344,170.6070045455344,0,0,0,124.28477661695558,116.87619219188076Z" fill-rule="evenodd" style="fill: #1DC690; stroke: #fff; opacity: 1;" id="p-type-logs"></path><path d="M142.3388688016454,136.19341550995767A197,197,0,0,1,141.15538728950028,137.41963702161053L122.2441512737383,119.00889663955124A170.6070045455344,170.6070045455344,0,0,0,123.26907632816518,117.94695765979293Z" fill-rule="evenodd" style="fill: #1DC690; stroke: #fff; opacity: 1;" id="p-type-logs"></path><path d="M141.15538728950028,137.41963702161053A197,197,0,0,1,139.96134250062056,138.63557481910618L121.21007815331203,120.0619296616042A170.6070045455344,170.6070045455344,0,0,0,122.2441512737383,119.00889663955124Z" fill-rule="evenodd" style="fill: #1DC690; stroke: #fff; opacity: 1;" id="p-type-logs"></path><path d="M139.96134250062056,138.63557481910618A197,197,0,0,1,138.75682379061485,139.84113790848625L120.16693435111341,121.10597792287216A170.6070045455344,170.6070045455344,0,0,0,121.21007815331203,120.0619296616042Z" fill-rule="evenodd" style="fill: #1DC690; stroke: #fff; opacity: 1;" id="p-type-logs"></path><path d="M138.75682379061485,139.84113790848625A197,197,0,0,1,137.54192129890114,141.03623607217713L119.11479793016835,122.14096329264461A170.6070045455344,170.6070045455344,0,0,0,120.16693435111341,121.10597792287216Z" fill-rule="evenodd" style="fill: #1DC690; stroke: #fff; opacity: 1;" id="p-type-logs"></path><path d="M137.54192129890114,141.03623607217713A197,197,0,0,1,136.31672594196152,142.22077987574164L118.0537476264599,123.1668083184269A170.6070045455344,170.6070045455344,0,0,0,119.11479793016835,122.14096329264461Z" fill-rule="evenodd" style="fill: #1DC690; stroke: #fff; opacity: 1;" id="p-type-logs"></path><path d="M136.31672594196152,142.22077987574164A197,197,0,0,1,135.08132940653817,143.39468067457148L116.98386284303598,124.18343623173641A170.6070045455344,170.6070045455344,0,0,0,118.0537476264599,123.1668083184269Z" fill-rule="evenodd" style="fill: #1DC690; stroke: #fff; opacity: 1;" id="p-type-logs"></path><path d="M135.08132940653817,143.39468067457148A197,197,0,0,1,133.83582414277225,144.55785062052126L115.90522364406746,125.19077095384749A170.6070045455344,170.6070045455344,0,0,0,116.98386284303598,124.18343623173641Z" fill-rule="evenodd" style="fill: #1DC690; stroke: #fff; opacity: 1;" id="p-type-logs"></path><path d="M133.83582414277225,144.55785062052126A197,197,0,0,1,132.5803033572854,145.71020266848225L114.81791074885645,126.18873710148473A170.6070045455344,170.6070045455344,0,0,0,115.90522364406746,125.19077095384749Z" fill-rule="evenodd" style="fill: #1DC690; stroke: #fff; opacity: 1;" id="p-type-logs"></path><path d="M132.5803033572854,145.71020266848225A197,197,0,0,1,131.3148610062047,146.85165058289655L113.72200552579584,127.17725999246429A170.6070045455344,170.6070045455344,0,0,0,114.81791074885645,126.18873710148473Z" fill-rule="evenodd" style="fill: #1DC690; stroke: #fff; opacity: 1;" id="p-type-logs"></path><path d="M131.3148610062047,146.85165058289655A197,197,0,0,1,130.03959178813145,147.98210894421035L112.6175899862801,128.15626565128255A170.6070045455344,170.6070045455344,0,0,0,113.72200552579584,127.17725999246429Z" fill-rule="evenodd" style="fill: #1DC690; stroke: #fff; opacity: 1;" id="p-type-logs"></path><path d="M130.03959178813145,147.98210894421035A197,197,0,0,1,128.75459113705452,149.1014931552663L111.50474677856795,129.1256808146522A170.6070045455344,170.6070045455344,0,0,0,112.6175899862801,128.15626565128255Z" fill-rule="evenodd" style="fill: #1DC690; stroke: #fff; opacity: 1;" id="p-type-logs"></path><path d="M128.75459113705452,149.1014931552663A197,197,0,0,1,127.45995521520865,150.20971944763428L110.38355918159755,130.08543293698474A170.6070045455344,170.6070045455344,0,0,0,111.50474677856795,129.1256808146522Z" fill-rule="evenodd" style="fill: #1DC690; stroke: #fff; opacity: 1;" id="p-type-logs"></path><path d="M127.45995521520865,150.20971944763428A197,197,0,0,1,126.1557809058781,151.30670488788024L109.25411109875425,131.03545019581938A170.6070045455344,170.6070045455344,0,0,0,110.38355918159755,130.08543293698474Z" fill-rule="evenodd" style="fill: #1DC690; stroke: #fff; opacity: 1;" id="p-type-logs"></path><path d="M126.1557809058781,151.30670488788024A197,197,0,0,1,124.84216580614648,152.3923673837723L108.11648705159185,131.97566149719793A170.6070045455344,170.6070045455344,0,0,0,109.25411109875425,131.03545019581938Z" fill-rule="evenodd" style="fill: #1DC690; stroke: #fff; opacity: 1;" id="p-type-logs"></path><path d="M124.84216580614648,152.3923673837723A197,197,0,0,1,123.51920821959324,153.4666256904242L106.97077217350738,132.90599648098492A170.6070045455344,170.6070045455344,0,0,0,108.11648705159185,131.97566149719793Z" fill-rule="evenodd" style="fill: #1DC690; stroke: #fff; opacity: 1;" id="p-type-logs"></path><path d="M123.51920821959324,153.4666256904242A197,197,0,0,1,122.18700714893698,154.52939941637518L105.81705220337024,133.82638552613312A170.6070045455344,170.6070045455344,0,0,0,106.97077217350738,132.90599648098492Z" fill-rule="evenodd" style="fill: #1DC690; stroke: #fff; opacity: 1;" id="p-type-logs"></path><path d="M122.18700714893698,154.52939941637518A197,197,0,0,1,120.84566228862685,155.58060902960608L104.65541347910599,134.73675975589347A170.6070045455344,170.6070045455344,0,0,0,105.81705220337024,133.82638552613312Z" fill-rule="evenodd" style="fill: #1DC690; stroke: #fff; opacity: 1;" id="p-type-logs"></path><path d="M120.84566228862685,155.58060902960608A197,197,0,0,1,119.49527401738186,156.6201758634909L103.48594293123526,135.63705104296952A170.6070045455344,170.6070045455344,0,0,0,104.65541347910599,134.73675975589347Z" fill-rule="evenodd" style="fill: #1DC690; stroke: #fff; opacity: 1;" id="p-type-logs"></path><path d="M119.49527401738186,156.6201758634909A197,197,0,0,1,118.13594339067907,157.64802212268404L102.30872807636842,136.52719201461554A170.6070045455344,170.6070045455344,0,0,0,103.48594293123526,135.63705104296952Z" fill-rule="evenodd" style="fill: #1DC690; stroke: #fff; opacity: 1;" id="p-type-logs"></path><path d="M118.13594339067907,157.64802212268404A197,197,0,0,1,116.76777213319129,158.6640708889417L101.12385701065631,137.40711605767854A170.6070045455344,170.6070045455344,0,0,0,102.30872807636842,136.52719201461554Z" fill-rule="evenodd" style="fill: #1DC690; stroke: #fff; opacity: 1;" id="p-type-logs"></path><path d="M116.76777213319129,158.6640708889417A197,197,0,0,1,115.39086263117447,159.66824612687842L99.93141840319755,138.276757323583A170.6070045455344,170.6070045455344,0,0,0,101.12385701065631,137.40711605767854Z" fill-rule="evenodd" style="fill: #1DC690; stroke: #fff; opacity: 1;" id="p-type-logs"></path><path d="M115.39086263117447,159.66824612687842A197,197,0,0,1,114.00531792480577,160.6604726896568L98.7315014894032,139.1360507332588A170.6070045455344,170.6070045455344,0,0,0,99.93141840319755,138.276757323583Z" fill-rule="evenodd" style="fill: #1DC690; stroke: #fff; opacity: 1;" id="p-type-logs"></path><path d="M114.00531792480577,160.6604726896568A197,197,0,0,1,112.61124170047246,161.64067632461135L97.52419606431867,139.9849319820113A170.6070045455344,170.6070045455344,0,0,0,98.7315014894032,139.1360507332588Z" fill-rule="evenodd" style="fill: #1DC690; stroke: #fff; opacity: 1;" id="p-type-logs"></path><path d="M112.61124170047246,161.64067632461135A197,197,0,0,1,111.20873828301286,162.60878367880485L96.30959247590417,140.82333754433338A170.6070045455344,170.6070045455344,0,0,0,97.52419606431867,139.9849319820113Z" fill-rule="evenodd" style="fill: #1DC690; stroke: #fff; opacity: 1;" id="p-type-logs"></path><path d="M111.20873828301286,162.60878367880485A197,197,0,0,1,109.79791262790901,163.56472230451791L95.08778161827341,141.6512046786597A170.6070045455344,170.6070045455344,0,0,0,96.30959247590417,140.82333754433338Z" fill-rule="evenodd" style="fill: #1DC690; stroke: #fff; opacity: 1;" id="p-type-logs"></path><path d="M109.79791262790901,163.56472230451791A197,197,0,0,1,108.3788703134325,164.50842066467047L93.85885492489169,142.46847143206153A170.6070045455344,170.6070045455344,0,0,0,95.08778161827341,141.6512046786597Z" fill-rule="evenodd" style="fill: #1DC690; stroke: #fff; opacity: 1;" id="p-type-logs"></path><path d="M108.3788703134325,164.50842066467047A197,197,0,0,1,106.95171753274366,165.43980813817518L92.62290436173355,143.27507664488323A170.6070045455344,170.6070045455344,0,0,0,93.85885492489169,142.46847143206153Z" fill-rule="evenodd" style="fill: #1DC690; stroke: #fff; opacity: 1;" id="p-type-logs"></path><path d="M106.95171753274366,165.43980813817518A197,197,0,0,1,105.51656108594446,166.35881502522236L91.38002242040044,144.07095995531893A170.6070045455344,170.6070045455344,0,0,0,92.62290436173355,143.27507664488323Z" fill-rule="evenodd" style="fill: #1DC690; stroke: #fff; opacity: 1;" id="p-type-logs"></path><path d="M105.51656108594446,166.35881502522236A197,197,0,0,1,104.07350837208641,167.26537255249593L90.13030211119928,144.85606180392983A170.6070045455344,170.6070045455344,0,0,0,91.38002242040044,144.07095995531893Z" fill-rule="evenodd" style="fill: #1DC690; stroke: #fff; opacity: 1;" id="p-type-logs"></path><path d="M104.07350837208641,167.26537255249593A197,197,0,0,1,102.62266738113327,168.15941287831998L88.87383695618207,145.6303234381012A170.6070045455344,170.6070045455344,0,0,0,90.13030211119928,144.85606180392983Z" fill-rule="evenodd" style="fill: #1DC690; stroke: #fff; opacity: 1;" id="p-type-logs"></path><path d="M102.62266738113327,168.15941287831998A197,197,0,0,1,101.16414668587976,169.04086909773568L87.6107209821472,146.39368691643898A170.6070045455344,170.6070045455344,0,0,0,88.87383695618207,145.6303234381012Z" fill-rule="evenodd" style="fill: #1DC690; stroke: #fff; opacity: 1;" id="p-type-logs"></path><path d="M101.16414668587976,169.04086909773568A197,197,0,0,1,99.6980554338265,169.9096752475081L86.34104871360293,147.146095113106A170.6070045455344,170.6070045455344,0,0,0,87.6107209821472,146.39368691643898Z" fill-rule="evenodd" style="fill: #1DC690; stroke: #fff; opacity: 1;" id="p-type-logs"></path><path d="M99.6980554338265,169.9096752475081A197,197,0,0,1,98.22450333901214,170.76576631106244L85.06491516569393,147.88749172209694A170.6070045455344,170.6070045455344,0,0,0,86.34104871360293,147.146095113106Z" fill-rule="evenodd" style="fill: #1DC690; stroke: #fff; opacity: 1;" id="p-type-logs"></path><path d="M98.22450333901214,170.76576631106244A197,197,0,0,1,96.74360067380292,171.6090782233497L83.78241583709065,148.61782126145175A170.6070045455344,170.6070045455344,0,0,0,85.06491516569393,147.88749172209694Z" fill-rule="evenodd" style="fill: #1DC690; stroke: #fff; opacity: 1;" id="p-type-logs"></path><path d="M96.74360067380292,171.6090782233497A197,197,0,0,1,95.25545826064042,172.43954787564073L82.49364670284287,149.3370290774078A170.6070045455344,170.6070045455344,0,0,0,83.78241583709065,148.61782126145175Z" fill-rule="evenodd" style="fill: #1DC690; stroke: #fff; opacity: 1;" id="p-type-logs"></path><path d="M95.25545826064042,172.43954787564073A197,197,0,0,1,93.76018746374842,173.257113120249L81.19870420719738,150.04506134848978A170.6070045455344,170.6070045455344,0,0,0,82.49364670284287,149.3370290774078Z" fill-rule="evenodd" style="fill: #1DC690; stroke: #fff; opacity: 1;" id="p-type-logs"></path><path d="M93.76018746374842,173.257113120249A197,197,0,0,1,92.25790018079884,174.06171277518143L79.89768525638075,150.74186508953747A170.6070045455344,170.6070045455344,0,0,0,81.19870420719738,150.04506134848978Z" fill-rule="evenodd" style="fill: #1DC690; stroke: #fff; opacity: 1;" id="p-type-logs"></path><path d="M92.25790018079884,174.06171277518143A197,197,0,0,1,90.74870883453805,174.85328662871692L78.59068721134727,151.42738815567074A170.6070045455344,170.6070045455344,0,0,0,79.89768525638075,150.74186508953747Z" fill-rule="evenodd" style="fill: #1DC690; stroke: #fff; opacity: 1;" id="p-type-logs"></path><path d="M-26.605946021629002,195.19509121976958A197,197,0,0,1,-28.293506348939566,194.9576300083752L-24.502895260317967,168.8382602488603A170.6070045455344,170.6070045455344,0,0,0,-23.041425146448233,169.04390769034129Z" fill-rule="evenodd" style="fill: #D7A449; stroke: #fff; opacity: 1;" id="p-type-tokenTransfers"></path><path d="M-28.293506348939566,194.9576300083752A197,197,0,0,1,-29.978949349075485,194.70557926244837L-25.96253171506633,168.61997789984488A170.6070045455344,170.6070045455344,0,0,0,-24.502895260317967,168.8382602488603Z" fill-rule="evenodd" style="fill: #D7A449; stroke: #fff; opacity: 1;" id="p-type-tokenTransfers"></path><path d="M-29.978949349075485,194.70557926244837A197,197,0,0,1,-31.66214889294475,194.4389578440519L-27.420225279695494,168.3890769783205A170.6070045455344,170.6070045455344,0,0,0,-25.96253171506633,168.61997789984488Z" fill-rule="evenodd" style="fill: #D7A449; stroke: #fff; opacity: 1;" id="p-type-tokenTransfers"></path><path d="M-31.66214889294475,194.4389578440519A197,197,0,0,1,-33.34297901934301,194.15778570563594L-28.8758668686026,168.14557476361588A170.6070045455344,170.6070045455344,0,0,0,-27.420225279695494,168.3890769783205Z" fill-rule="evenodd" style="fill: #D7A449; stroke: #fff; opacity: 1;" id="p-type-tokenTransfers"></path><path d="M-33.34297901934301,194.15778570563594A197,197,0,0,1,-35.02131394437986,193.86208388854482L-30.32934754974316,167.88948947806972A170.6070045455344,170.6070045455344,0,0,0,-28.8758668686026,168.14557476361588Z" fill-rule="evenodd" style="fill: #D7A449; stroke: #fff; opacity: 1;" id="p-type-tokenTransfers"></path><path d="M-35.02131394437986,193.86208388854482A197,197,0,0,1,-36.69702807089171,193.55187452144241L-31.78055855278287,167.62084028566716A170.6070045455344,170.6070045455344,0,0,0,-30.32934754974316,167.88948947806972Z" fill-rule="evenodd" style="fill: #D7A449; stroke: #fff; opacity: 1;" id="p-type-tokenTransfers"></path><path d="M-36.69702807089171,193.55187452144241A197,197,0,0,1,-38.36999599784083,193.22718081865625L-33.2293912772374,167.3396472906055A170.6070045455344,170.6070045455344,0,0,0,-31.78055855278287,167.62084028566716Z" fill-rule="evenodd" style="fill: #D7A449; stroke: #fff; opacity: 1;" id="p-type-tokenTransfers"></path><path d="M-38.36999599784083,193.22718081865625A197,197,0,0,1,-40.04009252969966,192.88802707844022L-34.67573730059944,167.04593153578992A170.6070045455344,170.6070045455344,0,0,0,-33.2293912772374,167.3396472906055Z" fill-rule="evenodd" style="fill: #D7A449; stroke: #fff; opacity: 1;" id="p-type-tokenTransfers"></path><path d="M-40.04009252969966,192.88802707844022A197,197,0,0,1,-41.707192685819734,192.53443868115622L-36.11948838645242,166.73971500125856A170.6070045455344,170.6070045455344,0,0,0,-34.67573730059944,167.04593153578992Z" fill-rule="evenodd" style="fill: #D7A449; stroke: #fff; opacity: 1;" id="p-type-tokenTransfers"></path><path d="M-41.707192685819734,192.53443868115622A197,197,0,0,1,-43.3711717097845,192.16644208737483L-37.56053649257034,166.42102060253774A170.6070045455344,170.6070045455344,0,0,0,-36.11948838645242,166.73971500125856Z" fill-rule="evenodd" style="fill: #D7A449; stroke: #fff; opacity: 1;" id="p-type-tokenTransfers"></path><path d="M-43.3711717097845,192.16644208737483A197,197,0,0,1,-45.031905078745424,191.7840648358952L-38.998773779003024,166.0898721889271A170.6070045455344,170.6070045455344,0,0,0,-37.56053649257034,166.42102060253774Z" fill-rule="evenodd" style="fill: #D7A449; stroke: #fff; opacity: 1;" id="p-type-tokenTransfers"></path><path d="M-45.031905078745424,191.7840648358952A197,197,0,0,1,-46.6892685127406,191.3873355416842L-40.43409261614625,165.7462945417149A170.6070045455344,170.6070045455344,0,0,0,-38.998773779003024,166.0898721889271Z" fill-rule="evenodd" style="fill: #D7A449; stroke: #fff; opacity: 1;" id="p-type-tokenTransfers"></path><path d="M-46.6892685127406,191.3873355416842A197,197,0,0,1,-48.34313798399508,190.97628389373486L-41.86638559279616,165.3903133723233A170.6070045455344,170.6070045455344,0,0,0,-40.43409261614625,165.7462945417149Z" fill-rule="evenodd" style="fill: #D7A449; stroke: #fff; opacity: 1;" id="p-type-tokenTransfers"></path><path d="M-48.34313798399508,190.97628389373486A197,197,0,0,1,-49.99338972620251,190.55094065284493L-43.29554552418733,165.02195532038462A170.6070045455344,170.6070045455344,0,0,0,-41.86638559279616,165.3903133723233Z" fill-rule="evenodd" style="fill: #D7A449; stroke: #fff; opacity: 1;" id="p-type-tokenTransfers"></path><path d="M-49.99338972620251,190.55094065284493A197,197,0,0,1,-51.639900243787075,190.11133764931463L-44.72146546001383,164.64124795174746A170.6070045455344,170.6070045455344,0,0,0,-43.29554552418733,165.02195532038462Z" fill-rule="evenodd" style="fill: #D7A449; stroke: #fff; opacity: 1;" id="p-type-tokenTransfers"></path><path d="M-51.639900243787075,190.11133764931463A197,197,0,0,1,-53.282546321145176,189.65750778056486L-46.1440386924328,164.248219756414A170.6070045455344,170.6070045455344,0,0,0,-44.72146546001383,164.64124795174746Z" fill-rule="evenodd" style="fill: #D7A449; stroke: #fff; opacity: 1;" id="p-type-tokenTransfers"></path><path d="M-53.282546321145176,189.65750778056486A197,197,0,0,1,-54.921205031866265,189.18948500867512L-47.56315876404992,163.84290014640786A170.6070045455344,170.6070045455344,0,0,0,-46.1440386924328,164.248219756414Z" fill-rule="evenodd" style="fill: #D7A449; stroke: #fff; opacity: 1;" id="p-type-tokenTransfers"></path><path d="M-54.921205031866265,189.18948500867512A197,197,0,0,1,-56.55575374793189,188.7073043578422L-48.97871947588599,163.42531945357325A170.6070045455344,170.6070045455344,0,0,0,-47.56315876404992,163.84290014640786Z" fill-rule="evenodd" style="fill: #D7A449; stroke: #fff; opacity: 1;" id="p-type-tokenTransfers"></path><path d="M-56.55575374793189,188.7073043578422A197,197,0,0,1,-58.186070148892526,188.211001911759L-50.39061489532432,162.99550892730485A170.6070045455344,170.6070045455344,0,0,0,-48.97871947588599,163.42531945357325Z" fill-rule="evenodd" style="fill: #D7A449; stroke: #fff; opacity: 1;" id="p-type-tokenTransfers"></path><path d="M-58.186070148892526,188.211001911759A197,197,0,0,1,-59.812032231021405,187.7006148109144L-51.79873936403817,162.55350073220953A170.6070045455344,170.6070045455344,0,0,0,-50.39061489532432,162.99550892730485Z" fill-rule="evenodd" style="fill: #D7A449; stroke: #fff; opacity: 1;" id="p-type-tokenTransfers"></path><path d="M-59.812032231021405,187.7006148109144A197,197,0,0,1,-61.43351831644446,187.17618124981362L-53.202987505897525,162.09932794569912A170.6070045455344,170.6070045455344,0,0,0,-51.79873936403817,162.55350073220953Z" fill-rule="evenodd" style="fill: #D7A449; stroke: #fff; opacity: 1;" id="p-type-tokenTransfers"></path><path d="M-61.43351831644446,187.17618124981362A197,197,0,0,1,-63.050407062246144,186.63774047412025L-54.60325423485494,161.63302455551525A170.6070045455344,170.6070045455344,0,0,0,-53.202987505897525,162.09932794569912Z" fill-rule="evenodd" style="fill: #D7A449; stroke: #fff; opacity: 1;" id="p-type-tokenTransfers"></path><path d="M-63.050407062246144,186.63774047412025A197,197,0,0,1,-64.66257746954997,186.08533277771906L-55.99943476280956,161.1546254571858A170.6070045455344,170.6070045455344,0,0,0,-54.60325423485494,161.63302455551525Z" fill-rule="evenodd" style="fill: #D7A449; stroke: #fff; opacity: 1;" id="p-type-tokenTransfers"></path><path d="M-64.66257746954997,186.08533277771906A197,197,0,0,1,-66.26990889257343,185.5189994997009L-57.391424607448855,160.66416645141354A170.6070045455344,170.6070045455344,0,0,0,-55.99943476280956,161.1546254571858Z" fill-rule="evenodd" style="fill: #D7A449; stroke: #fff; opacity: 1;" id="p-type-tokenTransfers"></path><path d="M-66.26990889257343,185.5189994997009A197,197,0,0,1,-67.87228104765641,184.9387830212688L-58.779119600067546,160.16168424139698A170.6070045455344,170.6070045455344,0,0,0,-57.391424607448855,160.66416645141354Z" fill-rule="evenodd" style="fill: #D7A449; stroke: #fff; opacity: 1;" id="p-type-tokenTransfers"></path><path d="M-67.87228104765641,184.9387830212688A197,197,0,0,1,-69.4695740222626,184.34472676256672L-60.16241589336292,159.64721643008383A170.6070045455344,170.6070045455344,0,0,0,-58.779119600067546,160.16168424139698Z" fill-rule="evenodd" style="fill: #D7A449; stroke: #fff; opacity: 1;" id="p-type-tokenTransfers"></path><path d="M-69.4695740222626,184.34472676256672A197,197,0,0,1,-71.06166828395303,183.73687517942997L-61.54120996920626,159.12080151735682A170.6070045455344,170.6070045455344,0,0,0,-60.16241589336292,159.64721643008383Z" fill-rule="evenodd" style="fill: #D7A449; stroke: #fff; opacity: 1;" id="p-type-tokenTransfers"></path><path d="M-71.06166828395303,183.73687517942997A197,197,0,0,1,-72.6484446893312,183.11527376005856L-62.91539864638951,158.58247889715273A170.6070045455344,170.6070045455344,0,0,0,-61.54120996920626,159.12080151735682Z" fill-rule="evenodd" style="fill: #D7A449; stroke: #fff; opacity: 1;" id="p-type-tokenTransfers"></path><path d="M-72.6484446893312,183.11527376005856A197,197,0,0,1,-74.22978449295914,182.479969021613L-64.2848790883468,158.03228885451423A170.6070045455344,170.6070045455344,0,0,0,-62.91539864638951,158.58247889715273Z" fill-rule="evenodd" style="fill: #D7A449; stroke: #fff; opacity: 1;" id="p-type-tokenTransfers"></path><path d="M-74.22978449295914,182.479969021613A197,197,0,0,1,-75.80556935624365,181.83100850673333L-65.64954881085018,157.47027256257545A170.6070045455344,170.6070045455344,0,0,0,-64.2848790883468,158.03228885451423Z" fill-rule="evenodd" style="fill: #D7A449; stroke: #fff; opacity: 1;" id="p-type-tokenTransfers"></path><path d="M-75.80556935624365,181.83100850673333A197,197,0,0,1,-77.37568135629203,181.16844077998124L-67.00930568967887,156.8964720794804A170.6070045455344,170.6070045455344,0,0,0,-65.64954881085018,157.47027256257545Z" fill-rule="evenodd" style="fill: #D7A449; stroke: #fff; opacity: 1;" id="p-type-tokenTransfers"></path><path d="M-77.37568135629203,181.16844077998124A197,197,0,0,1,-78.94000299473689,180.49231542420563L-68.3640479682618,156.31093034523593A170.6070045455344,170.6070045455344,0,0,0,-67.00930568967887,156.8964720794804Z" fill-rule="evenodd" style="fill: #D7A449; stroke: #fff; opacity: 1;" id="p-type-tokenTransfers"></path><path d="M-78.94000299473689,180.49231542420563A197,197,0,0,1,-80.4984172065289,179.80268303683238L-69.7136742652924,155.7136911784982A170.6070045455344,170.6070045455344,0,0,0,-68.3640479682618,156.31093034523593Z" fill-rule="evenodd" style="fill: #D7A449; stroke: #fff; opacity: 1;" id="p-type-tokenTransfers"></path><path d="M-80.4984172065289,179.80268303683238A197,197,0,0,1,-82.05080736869745,179.09959522607778L-71.0580835823154,155.1047992732935A170.6070045455344,170.6070045455344,0,0,0,-69.7136742652924,155.7136911784982Z" fill-rule="evenodd" style="fill: #D7A449; stroke: #fff; opacity: 1;" id="p-type-tokenTransfers"></path><path d="M-82.05080736869745,179.09959522607778A197,197,0,0,1,-83.59705730907798,178.3831046070864L-72.39717531128511,154.48430019567377A170.6070045455344,170.6070045455344,0,0,0,-71.0580835823154,155.1047992732935Z" fill-rule="evenodd" style="fill: #D7A449; stroke: #fff; opacity: 1;" id="p-type-tokenTransfers"></path><path d="M-83.59705730907798,178.3831046070864A197,197,0,0,1,-85.13705131500562,177.65326479799378L-73.73084924209422,153.85224038030637A170.6070045455344,170.6070045455344,0,0,0,-72.39717531128511,154.48430019567377Z" fill-rule="evenodd" style="fill: #D7A449; stroke: #fff; opacity: 1;" id="p-type-tokenTransfers"></path><path d="M-85.13705131500562,177.65326479799378A197,197,0,0,1,-86.67067414197456,176.9101304159139L-75.05900557007301,153.20866712699953A170.6070045455344,170.6070045455344,0,0,0,-73.73084924209422,153.85224038030637Z" fill-rule="evenodd" style="fill: #D7A449; stroke: #fff; opacity: 1;" id="p-type-tokenTransfers"></path><path d="M-86.67067414197456,176.9101304159139A197,197,0,0,1,-88.1978110222622,176.1537570728519L-76.38154490345823,152.5536285971625A170.6070045455344,170.6070045455344,0,0,0,-75.05900557007301,153.20866712699953Z" fill-rule="evenodd" style="fill: #D7A449; stroke: #fff; opacity: 1;" id="p-type-tokenTransfers"></path><path d="M-88.1978110222622,176.1537570728519A197,197,0,0,1,-89.71834767351781,175.38420137154253L-77.69836827083091,151.8871738102014A170.6070045455344,170.6070045455344,0,0,0,-76.38154490345823,152.5536285971625Z" fill-rule="evenodd" style="fill: #D7A449; stroke: #fff; opacity: 1;" id="p-type-tokenTransfers"></path><path d="M-89.71834767351781,175.38420137154253A197,197,0,0,1,-91.23217030731477,174.60152090121412L-79.00937712852294,151.20935263985106A170.6070045455344,170.6070045455344,0,0,0,-77.69836827083091,151.8871738102014Z" fill-rule="evenodd" style="fill: #D7A449; stroke: #fff; opacity: 1;" id="p-type-tokenTransfers"></path><path d="M-91.23217030731477,174.60152090121412A197,197,0,0,1,-92.73916563766578,173.80577423327912L-80.31447336799144,150.52021581044252A170.6070045455344,170.6070045455344,0,0,0,-79.00937712852294,151.20935263985106Z" fill-rule="evenodd" style="fill: #D7A449; stroke: #fff; opacity: 1;" id="p-type-tokenTransfers"></path><path d="M-92.73916563766578,173.80577423327912A197,197,0,0,1,-94.23922088950064,172.99702091695076L-81.6135593231607,149.81981489310726A170.6070045455344,170.6070045455344,0,0,0,-80.31447336799144,150.52021581044252Z" fill-rule="evenodd" style="fill: #D7A449; stroke: #fff; opacity: 1;" id="p-type-tokenTransfers"></path><path d="M-94.23922088950064,172.99702091695076A197,197,0,0,1,-95.73222380710565,172.17532147478695L-82.90653777773093,149.1082023019179A170.6070045455344,170.6070045455344,0,0,0,-81.6135593231607,149.81981489310726Z" fill-rule="evenodd" style="fill: #D7A449; stroke: #fff; opacity: 1;" id="p-type-tokenTransfers"></path><path d="M-95.73222380710565,172.17532147478695A197,197,0,0,1,-97.21806266252422,171.34073739816083L-84.1933119724534,148.3854312899657A170.6070045455344,170.6070045455344,0,0,0,-82.90653777773093,149.1082023019179Z" fill-rule="evenodd" style="fill: #D7A449; stroke: #fff; opacity: 1;" id="p-type-tokenTransfers"></path><path d="M-97.21806266252422,171.34073739816083A197,197,0,0,1,-98.69662626391795,170.49333114265934L-85.47378561237137,147.65155594537558A170.6070045455344,170.6070045455344,0,0,0,-84.1933119724534,148.3854312899657Z" fill-rule="evenodd" style="fill: #D7A449; stroke: #fff; opacity: 1;" id="p-type-tokenTransfers"></path><path d="M-98.69662626391795,170.49333114265934A197,197,0,0,1,-100.16780396388761,169.63316612340932L-86.74786287402625,146.9066311872583A170.6070045455344,170.6070045455344,0,0,0,-85.47378561237137,147.65155594537558Z" fill-rule="evenodd" style="fill: #D7A449; stroke: #fff; opacity: 1;" id="p-type-tokenTransfers"></path><path d="M-100.16780396388761,169.63316612340932A197,197,0,0,1,-101.63148566775335,168.76030671033175L-88.01544841262849,146.15071276160077A170.6070045455344,170.6070045455344,0,0,0,-86.74786287402625,146.9066311872583Z" fill-rule="evenodd" style="fill: #D7A449; stroke: #fff; opacity: 1;" id="p-type-tokenTransfers"></path><path d="M-101.63148566775335,168.76030671033175A197,197,0,0,1,-103.0875618417936,167.8748182233249L-89.2764473691926,145.38385723709416A170.6070045455344,170.6070045455344,0,0,0,-88.01544841262849,146.15071276160077Z" fill-rule="evenodd" style="fill: #D7A449; stroke: #fff; opacity: 1;" id="p-type-tokenTransfers"></path><path d="M-103.0875618417936,167.8748182233249A197,197,0,0,1,-104.53592352144199,166.97676692737596L-90.53076537763599,144.60612200090085A170.6070045455344,170.6070045455344,0,0,0,-89.2764473691926,145.38385723709416Z" fill-rule="evenodd" style="fill: #D7A449; stroke: #fff; opacity: 1;" id="p-type-tokenTransfers"></path></g></svg>