<svg xmlns="http://www.w3.org/2000/svg" width="400" height="400" id="block-7908249"><g id="burst-container" transform="translate(200,200)"><circle r="197" style="fill: #f9f9f9; stroke: #f9f9f9; stroke-width: 3; opacity: 1;" id="circle-base"></circle><path display="none" d="M6.031385485800715e-15,-98.5A98.5,98.5,0,1,1,-6.031385485800715e-15,98.5A98.5,98.5,0,1,1,6.031385485800715e-15,-98.5Z" fill-rule="evenodd" id="p-type-root" style="stroke: #fff; opacity: 1;"></path><path d="M8.529667153919608e-15,-139.30003589374985A139.30003589374985,139.30003589374985,0,1,1,-122.62123742661282,-66.09487220629329L-86.70630850184361,-46.736132338728254A98.5,98.5,0,1,0,6.031385485800715e-15,-98.5Z" fill-rule="evenodd" style="fill: #0B1F65; stroke: #fff; opacity: 1;" id="p-type-data"></path><path d="M-122.62123742661282,-66.09487220629329A139.30003589374985,139.30003589374985,0,0,1,-5.451190157080113,-139.19333506267947L-3.8545735256087097,-98.42455111879188A98.5,98.5,0,0,0,-86.70630850184361,-46.736132338728254Z" fill-rule="evenodd" style="fill: #D7A449; stroke: #fff; opacity: 1;" id="p-type-value"></path><path d="M1.0446666101440332e-14,-170.6070045455344A170.6070045455344,170.6070045455344,0,0,1,155.39563436795285,70.4197899697344L126.88000415252854,57.497517739936704A139.30003589374985,139.30003589374985,0,0,0,8.529667153919608e-15,-139.30003589374985Z" fill-rule="evenodd" style="fill: #1DC690; stroke: #fff; opacity: 1;" id="p-type-logs"></path><path d="M155.39563436795285,70.4197899697344A170.6070045455344,170.6070045455344,0,0,1,1.7358942759904816,170.59817311759988L1.4173517411982386,139.29282506303662A139.30003589374985,139.30003589374985,0,0,0,126.88000415252854,57.497517739936704Z" fill-rule="evenodd" style="fill: #D7A449; stroke: #fff; opacity: 1;" id="p-type-tokenTransfers"></path><path d="M1.7358942759904816,170.59817311759988A170.6070045455344,170.6070045455344,0,0,1,-101.40046032494041,137.20312185183755L-82.79312915981137,112.02587988463553A139.30003589374985,139.30003589374985,0,0,0,1.4173517411982386,139.29282506303662Z" fill-rule="evenodd" style="fill: #414552; stroke: #fff; opacity: 1;" id="p-type-ether"></path><path d="M-150.17973166193445,-80.94935575994019A170.6070045455344,170.6070045455344,0,0,1,-83.11597215065404,-148.99156074574057L-67.86390708149312,-121.65109993598277A139.30003589374985,139.30003589374985,0,0,0,-122.62123742661282,-66.09487220629329Z" fill-rule="evenodd" style="fill: #D7A449; stroke: #fff; opacity: 1;" id="p-type-tokenTransfers"></path><path d="M-83.11597215065404,-148.99156074574057A170.6070045455344,170.6070045455344,0,0,1,-13.342406545019395,-170.08447956115052L-10.89402932535605,-138.87339603055108A139.30003589374985,139.30003589374985,0,0,0,-67.86390708149312,-121.65109993598277Z" fill-rule="evenodd" style="fill: #414552; stroke: #fff; opacity: 1;" id="p-type-ether"></path><path d="M1.206277097160143e-14,-197A197,197,0,0,1,3.8553118677998968,-196.96227194669035L3.3387980170263436,-170.5743310929329A170.6070045455344,170.6070045455344,0,0,0,1.0446666101440332e-14,-170.6070045455344Z" fill-rule="evenodd" style="fill: #1DC690; stroke: #fff; opacity: 1;" id="p-type-logs"></path><path d="M3.8553118677998968,-196.96227194669035A197,197,0,0,1,7.709147051217351,-196.84910223758376L6.676317187864121,-170.47632324990772A170.6070045455344,170.6070045455344,0,0,0,3.3387980170263436,-170.5743310929329Z" fill-rule="evenodd" style="fill: #1DC690; stroke: #fff; opacity: 1;" id="p-type-logs"></path><path d="M7.709147051217351,-196.84910223758376A197,197,0,0,1,11.56002943147821,-196.66053421961246L10.011279156155911,-170.31301855600327A170.6070045455344,170.6070045455344,0,0,0,6.676317187864121,-170.47632324990772Z" fill-rule="evenodd" style="fill: #1DC690; stroke: #fff; opacity: 1;" id="p-type-logs"></path><path d="M11.56002943147821,-196.66053421961246A197,197,0,0,1,15.406484020808636,-196.3966401192153L13.342406545019301,-170.08447956115052A170.6070045455344,170.6070045455344,0,0,0,10.011279156155911,-170.31301855600327Z" fill-rule="evenodd" style="fill: #1DC690; stroke: #fff; opacity: 1;" id="p-type-logs"></path><path d="M15.406484020808636,-196.3966401192153A197,197,0,0,1,19.247037527393317,-196.05752101467343L16.668423446315042,-169.79079380170862A170.6070045455344,170.6070045455344,0,0,0,13.342406545019301,-170.08447956115052Z" fill-rule="evenodd" style="fill: #1DC690; stroke: #fff; opacity: 1;" id="p-type-logs"></path><path d="M19.247037527393317,-196.05752101467343A197,197,0,0,1,23.08021891968478,-195.64330679739447L19.98805590935325,-169.43207376693636A170.6070045455344,170.6070045455344,0,0,0,16.668423446315042,-169.79079380170862Z" fill-rule="evenodd" style="fill: #1DC690; stroke: #fff; opacity: 1;" id="p-type-logs"></path><path d="M23.08021891968478,-195.64330679739447A197,197,0,0,1,26.90455998984624,-195.15415612216094L23.300032428849242,-169.00845685590582A170.6070045455344,170.6070045455344,0,0,0,19.98805590935325,-169.43207376693636Z" fill-rule="evenodd" style="fill: #1DC690; stroke: #fff; opacity: 1;" id="p-type-logs"></path><path d="M26.90455998984624,-195.15415612216094A197,197,0,0,1,30.71859591611364,-194.5902563463611L26.603084431943323,-168.52010532487478A170.6070045455344,170.6070045455344,0,0,0,23.300032428849242,-169.00845685590582Z" fill-rule="evenodd" style="fill: #1DC690; stroke: #fff; opacity: 1;" id="p-type-logs"></path><path d="M30.71859591611364,-194.5902563463611A197,197,0,0,1,34.520865823859964,-193.9518234582265L29.895946764096756,-167.96720622513874A170.6070045455344,170.6070045455344,0,0,0,26.603084431943323,-168.52010532487478Z" fill-rule="evenodd" style="fill: #1DC690; stroke: #fff; opacity: 1;" id="p-type-logs"></path><path d="M34.520865823859964,-193.9518234582265A197,197,0,0,1,38.309913345148495,-193.23910199410267L33.177358173679075,-167.3499713313851A170.6070045455344,170.6070045455344,0,0,0,29.895946764096756,-167.96720622513874Z" fill-rule="evenodd" style="fill: #1DC690; stroke: #fff; opacity: 1;" id="p-type-logs"></path><path d="M38.309913345148495,-193.23910199410267A197,197,0,0,1,42.084287176559066,-192.4523649447855L36.44606179505983,-166.66863706057802A170.6070045455344,170.6070045455344,0,0,0,33.177358173679075,-167.3499713313851Z" fill-rule="evenodd" style="fill: #1DC690; stroke: #fff; opacity: 1;" id="p-type-logs"></path><path d="M42.084287176559066,-192.4523649447855A197,197,0,0,1,45.8425416350753,-191.59191365095865L39.70080563002102,-165.92346438140476A170.6070045455344,170.6070045455344,0,0,0,36.44606179505983,-166.66863706057802Z" fill-rule="evenodd" style="fill: #1DC690; stroke: #fff; opacity: 1;" id="p-type-logs"></path><path d="M45.8425416350753,-191.59191365095865A197,197,0,0,1,49.58323721181831,-190.65807768777213L42.94034302730456,-165.11473871431772A170.6070045455344,170.6070045455344,0,0,0,39.70080563002102,-165.92346438140476Z" fill-rule="evenodd" style="fill: #1DC690; stroke: #fff; opacity: 1;" id="p-type-logs"></path><path d="M49.58323721181831,-190.65807768777213A197,197,0,0,1,53.30494112341621,-189.65121473860677L46.16343316011225,-164.2427698222112A170.6070045455344,170.6070045455344,0,0,0,42.94034302730456,-165.11473871431772Z" fill-rule="evenodd" style="fill: #1DC690; stroke: #fff; opacity: 1;" id="p-type-logs"></path><path d="M53.30494112341621,-189.65121473860677A197,197,0,0,1,57.00622786079718,-188.5717104580718L49.3688415013746,-163.30789169177388A170.6070045455344,170.6070045455344,0,0,0,46.16343316011225,-164.2427698222112Z" fill-rule="evenodd" style="fill: #1DC690; stroke: #fff; opacity: 1;" id="p-type-logs"></path><path d="M57.00622786079718,-188.5717104580718A197,197,0,0,1,60.685679735196274,-187.41997832428962L52.555340296606474,-162.31046240556364A170.6070045455344,170.6070045455344,0,0,0,49.3688415013746,-163.30789169177388Z" fill-rule="evenodd" style="fill: #1DC690; stroke: #fff; opacity: 1;" id="p-type-logs"></path><path d="M60.685679735196274,-187.41997832428962A197,197,0,0,1,64.34188742116707,-186.19645948052252L55.72170903416911,-161.25086400485236A170.6070045455344,170.6070045455344,0,0,0,52.555340296606474,-162.31046240556364Z" fill-rule="evenodd" style="fill: #1DC690; stroke: #fff; opacity: 1;" id="p-type-logs"></path><path d="M64.34188742116707,-186.19645948052252A197,197,0,0,1,67.97345049638997,-184.90162256620363L58.86673491275767,-160.12950234329435A170.6070045455344,170.6070045455344,0,0,0,55.72170903416911,-161.25086400485236Z" fill-rule="evenodd" style="fill: #1DC690; stroke: #fff; opacity: 1;" id="p-type-logs"></path><path d="M67.97345049638997,-184.90162256620363A197,197,0,0,1,71.57897797807006,-183.53596353743578L61.989213305935564,-158.94680693147384A170.6070045455344,170.6070045455344,0,0,0,58.86673491275767,-160.12950234329435Z" fill-rule="evenodd" style="fill: #1DC690; stroke: #fff; opacity: 1;" id="p-type-logs"></path><path d="M71.57897797807006,-183.53596353743578A197,197,0,0,1,75.15708885571962,-182.10000547702757L65.08794822353752,-157.7032307723913A170.6070045455344,170.6070045455344,0,0,0,61.989213305935564,-158.94680693147384Z" fill-rule="evenodd" style="fill: #1DC690; stroke: #fff; opacity: 1;" id="p-type-logs"></path><path d="M75.15708885571962,-182.10000547702757A197,197,0,0,1,78.70641262012096,-180.59429839413886L68.16175276976489,-156.3992501879515A170.6070045455344,170.6070045455344,0,0,0,65.08794822353752,-157.7032307723913Z" fill-rule="evenodd" style="fill: #1DC690; stroke: #fff; opacity: 1;" id="p-type-logs"></path><path d="M78.70641262012096,-180.59429839413886A197,197,0,0,1,82.22558978826702,-179.0194190136133L71.20944959779754,-155.03536463652006A170.6070045455344,170.6070045455344,0,0,0,68.16175276976489,-156.3992501879515Z" fill-rule="evenodd" style="fill: #1DC690; stroke: #fff; opacity: 1;" id="p-type-logs"></path><path d="M82.22558978826702,-179.0194190136133A197,197,0,0,1,85.71327242407858,-177.3759705550774L74.22987136074825,-153.61209652161762A170.6070045455344,170.6070045455344,0,0,0,71.20944959779754,-155.03536463652006Z" fill-rule="evenodd" style="fill: #1DC690; stroke: #fff; opacity: 1;" id="p-type-logs"></path><path d="M85.71327242407858,-177.3759705550774A197,197,0,0,1,89.16812465469869,-175.66458250189228L77.2218611587866,-152.12999099182608A170.6070045455344,170.6070045455344,0,0,0,74.22987136074825,-153.61209652161762Z" fill-rule="evenodd" style="fill: #1DC690; stroke: #fff; opacity: 1;" id="p-type-logs"></path><path d="M89.16812465469869,-175.66458250189228A197,197,0,0,1,92.58882318216652,-173.8859103600447L80.18427298226176,-150.58961573198243A170.6070045455344,170.6070045455344,0,0,0,77.2218611587866,-152.12999099182608Z" fill-rule="evenodd" style="fill: #1DC690; stroke: #fff; opacity: 1;" id="p-type-logs"></path><path d="M92.58882318216652,-173.8859103600447A197,197,0,0,1,95.97405779027501,-172.04063540707165L83.11597215065396,-148.9915607457406A170.6070045455344,170.6070045455344,0,0,0,80.18427298226176,-150.58961573198243Z" fill-rule="evenodd" style="fill: #1DC690; stroke: #fff; opacity: 1;" id="p-type-logs"></path><path d="M95.97405779027501,-172.04063540707165A197,197,0,0,1,99.32253184641749,-170.12946443111312L86.01583574718647,-147.33643812958505A170.6070045455344,170.6070045455344,0,0,0,83.11597215065396,-148.9915607457406Z" fill-rule="evenodd" style="fill: #1DC690; stroke: #fff; opacity: 1;" id="p-type-logs"></path><path d="M99.32253184641749,-170.12946443111312A197,197,0,0,1,102.63296279823152,-168.15312946019418L88.88275304893172,-145.62488183838167A170.6070045455344,170.6070045455344,0,0,0,86.01583574718647,-147.33643812958505Z" fill-rule="evenodd" style="fill: #1DC690; stroke: #fff; opacity: 1;" id="p-type-logs"></path><path d="M102.63296279823152,-168.15312946019418A197,197,0,0,1,105.90408266484978,-166.11238748183914L91.7156259522471,-143.85754744255686A170.6070045455344,170.6070045455344,0,0,0,88.88275304893172,-145.62488183838167Z" fill-rule="evenodd" style="fill: #1DC690; stroke: #fff; opacity: 1;" id="p-type-logs"></path><path d="M105.90408266484978,-166.11238748183914A197,197,0,0,1,109.13463852256969,-164.00802015312559L94.51336939337716,-142.03511187699692A170.6070045455344,170.6070045455344,0,0,0,91.7156259522471,-143.85754744255686Z" fill-rule="evenodd" style="fill: #1DC690; stroke: #fff; opacity: 1;" id="p-type-logs"></path><path d="M109.13463852256969,-164.00802015312559A197,197,0,0,1,112.32339298475547,-161.84083350128972L97.27491176406105,-140.15827318176454A170.6070045455344,170.6070045455344,0,0,0,94.51336939337716,-142.03511187699692Z" fill-rule="evenodd" style="fill: #1DC690; stroke: #fff; opacity: 1;" id="p-type-logs"></path><path d="M112.32339298475547,-161.84083350128972A197,197,0,0,1,115.46912467578947,-159.61165761499686L99.99919532198626,-138.22775023473122A170.6070045455344,170.6070045455344,0,0,0,97.27491176406105,-140.15827318176454Z" fill-rule="evenodd" style="fill: #1DC690; stroke: #fff; opacity: 1;" id="p-type-logs"></path><path d="M115.46912467578947,-159.61165761499686A197,197,0,0,1,118.57062869889063,-157.32134632639594L102.68517659593151,-136.24428247622856A170.6070045455344,170.6070045455344,0,0,0,99.99919532198626,-138.22775023473122Z" fill-rule="evenodd" style="fill: #1DC690; stroke: #fff; opacity: 1;" id="p-type-logs"></path><path d="M118.57062869889063,-157.32134632639594A197,197,0,0,1,121.6267170976211,-154.9707768840798L105.331826785443,-134.20862962582336A170.6070045455344,170.6070045455344,0,0,0,102.68517659593151,-136.24428247622856Z" fill-rule="evenodd" style="fill: #1DC690; stroke: #fff; opacity: 1;" id="p-type-logs"></path><path d="M121.6267170976211,-154.9707768840798A197,197,0,0,1,124.63621931090448,-152.56084961707614L107.9381321548919,-132.12157139132538A170.6070045455344,170.6070045455344,0,0,0,105.331826785443,-134.20862962582336Z" fill-rule="evenodd" style="fill: #1DC690; stroke: #fff; opacity: 1;" id="p-type-logs"></path><path d="M124.63621931090448,-152.56084961707614A197,197,0,0,1,127.59798262138101,-150.09248758999817L110.50309442176128,-129.983907170139A170.6070045455344,170.6070045455344,0,0,0,107.9381321548919,-132.12157139132538Z" fill-rule="evenodd" style="fill: #1DC690; stroke: #fff; opacity: 1;" id="p-type-logs"></path><path d="M127.59798262138101,-150.09248758999817A197,197,0,0,1,130.51087259692815,-147.56663624948695L113.02573113901413,-127.79645574307331A170.6070045455344,170.6070045455344,0,0,0,110.50309442176128,-129.983907170139Z" fill-rule="evenodd" style="fill: #1DC690; stroke: #fff; opacity: 1;" id="p-type-logs"></path><path d="M130.51087259692815,-147.56663624948695A197,197,0,0,1,133.37377352517754,-144.9842630620808L115.50507607139616,-125.5600549607278A170.6070045455344,170.6070045455344,0,0,0,113.02573113901413,-127.79645574307331Z" fill-rule="evenodd" style="fill: #1DC690; stroke: #fff; opacity: 1;" id="p-type-logs"></path><path d="M133.37377352517754,-144.9842630620808A197,197,0,0,1,136.18558884086178,-142.34635714365066L117.94017956552887,-123.27556142257397A170.6070045455344,170.6070045455344,0,0,0,115.50507607139616,-125.5600549607278Z" fill-rule="evenodd" style="fill: #1DC690; stroke: #fff; opacity: 1;" id="p-type-logs"></path><path d="M136.18558884086178,-142.34635714365066A197,197,0,0,1,138.9452415458273,-139.65392888054282L120.33010891365143,-120.94385014885536A170.6070045455344,170.6070045455344,0,0,0,117.94017956552887,-123.27556142257397Z" fill-rule="evenodd" style="fill: #1DC690; stroke: #fff; opacity: 1;" id="p-type-logs"></path><path d="M138.9452415458273,-139.65392888054282A197,197,0,0,1,141.65167462155256,-136.90800954257497L122.67394871087197,-118.56581424543228A170.6070045455344,170.6070045455344,0,0,0,120.33010891365143,-120.94385014885536Z" fill-rule="evenodd" style="fill: #1DC690; stroke: #fff; opacity: 1;" id="p-type-logs"></path><path d="M141.65167462155256,-136.90800954257497A197,197,0,0,1,144.3038514340136,-134.10965088803314L124.97080120579128,-116.14236456169901A170.6070045455344,170.6070045455344,0,0,0,122.67394871087197,-118.56581424543228Z" fill-rule="evenodd" style="fill: #1DC690; stroke: #fff; opacity: 1;" id="p-type-logs"></path><path d="M144.3038514340136,-134.10965088803314A197,197,0,0,1,146.90075613074174,-131.2599247608208L127.21978664436497,-113.67442934170487A170.6070045455344,170.6070045455344,0,0,0,124.97080120579128,-116.14236456169901Z" fill-rule="evenodd" style="fill: #1DC690; stroke: #fff; opacity: 1;" id="p-type-logs"></path><path d="M146.90075613074174,-131.2599247608208A197,197,0,0,1,149.44139402992138,-128.3599226799151L129.42004360687207,-111.16295386861279A170.6070045455344,170.6070045455344,0,0,0,127.21978664436497,-113.67442934170487Z" fill-rule="evenodd" style="fill: #1DC690; stroke: #fff; opacity: 1;" id="p-type-logs"></path><path d="M149.44139402992138,-128.3599226799151A197,197,0,0,1,151.92479200137885,-125.41075542128661L131.57072933786097,-108.60890010263121A170.6070045455344,170.6070045455344,0,0,0,129.42004360687207,-111.16295386861279Z" fill-rule="evenodd" style="fill: #1DC690; stroke: #fff; opacity: 1;" id="p-type-logs"></path><path d="M151.92479200137885,-125.41075542128661A197,197,0,0,1,154.34999883931667,-122.41355259244354L133.67102006894686,-106.01324631255852A170.6070045455344,170.6070045455344,0,0,0,131.57072933786097,-108.60890010263121Z" fill-rule="evenodd" style="fill: #1DC690; stroke: #fff; opacity: 1;" id="p-type-logs"></path><path d="M154.34999883931667,-122.41355259244354A197,197,0,0,1,156.71608562664989,-119.36946219976255L135.7201113343361,-103.37698670108065A170.6070045455344,170.6070045455344,0,0,0,133.67102006894686,-106.01324631255852Z" fill-rule="evenodd" style="fill: #1DC690; stroke: #fff; opacity: 1;" id="p-type-logs"></path><path d="M156.71608562664989,-119.36946219976255A197,197,0,0,1,159.02214609080536,-116.27965020877278L137.71721827895772,-100.70113102396573A170.6070045455344,170.6070045455344,0,0,0,135.7201113343361,-103.37698670108065Z" fill-rule="evenodd" style="fill: #1DC690; stroke: #fff; opacity: 1;" id="p-type-logs"></path><path d="M159.02214609080536,-116.27965020877278A197,197,0,0,1,161.26729695084788,-113.14530009756061L139.661575959083,-97.9867042033014A170.6070045455344,170.6070045455344,0,0,0,137.71721827895772,-100.70113102396573Z" fill-rule="evenodd" style="fill: #1DC690; stroke: #fff; opacity: 1;" id="p-type-logs"></path><path d="M161.26729695084788,-113.14530009756061A197,197,0,0,1,163.45067825579937,-109.96761240346704L141.55243963531902,-95.23474593492318A170.6070045455344,170.6070045455344,0,0,0,139.661575959083,-97.9867042033014Z" fill-rule="evenodd" style="fill: #1DC690; stroke: #fff; opacity: 1;" id="p-type-logs"></path><path d="M163.45067825579937,-109.96761240346704A197,197,0,0,1,165.5714537140226,-106.74780426325067L143.3890850578629,-92.44631029018389A170.6070045455344,170.6070045455344,0,0,0,141.55243963531902,-95.23474593492318Z" fill-rule="evenodd" style="fill: #1DC690; stroke: #fff; opacity: 1;" id="p-type-logs"></path><path d="M179.4354226664605,81.31376939060613A197,197,0,0,1,177.80973896423131,84.80976788950625L153.98775098330404,73.44741348137416A170.6070045455344,170.6070045455344,0,0,0,155.39563436795285,70.4197899697344Z" fill-rule="evenodd" style="fill: #D7A449; stroke: #fff; opacity: 1;" id="p-type-tokenTransfers"></path><path d="M177.80973896423131,84.80976788950625A197,197,0,0,1,176.115949522808,88.27328204887219L152.52088629836962,76.44690472975218A170.6070045455344,170.6070045455344,0,0,0,153.98775098330404,73.44741348137416Z" fill-rule="evenodd" style="fill: #D7A449; stroke: #fff; opacity: 1;" id="p-type-tokenTransfers"></path><path d="M176.115949522808,88.27328204887219A197,197,0,0,1,174.35470310745296,91.702985253L150.99560216034786,79.41711483196774A170.6070045455344,170.6070045455344,0,0,0,152.52088629836962,76.44690472975218Z" fill-rule="evenodd" style="fill: #D7A449; stroke: #fff; opacity: 1;" id="p-type-tokenTransfers"></path><path d="M174.35470310745296,91.702985253A197,197,0,0,1,172.52667432119813,95.09756383665794L149.41248279260196,82.35690612055812A170.6070045455344,170.6070045455344,0,0,0,150.99560216034786,79.41711483196774Z" fill-rule="evenodd" style="fill: #D7A449; stroke: #fff; opacity: 1;" id="p-type-tokenTransfers"></path><path d="M172.52667432119813,95.09756383665794A197,197,0,0,1,170.6325633464547,98.4557175882545L147.77213457088723,85.26515257925476A170.6070045455344,170.6070045455344,0,0,0,149.41248279260196,82.35690612055812Z" fill-rule="evenodd" style="fill: #D7A449; stroke: #fff; opacity: 1;" id="p-type-tokenTransfers"></path><path d="M170.6325633464547,98.4557175882545A197,197,0,0,1,168.67309567682497,101.77616024785297L146.0751857910936,88.1407402742766A170.6070045455344,170.6070045455344,0,0,0,147.77213457088723,85.26515257925476Z" fill-rule="evenodd" style="fill: #D7A449; stroke: #fff; opacity: 1;" id="p-type-tokenTransfers"></path><path d="M168.67309567682497,101.77616024785297A197,197,0,0,1,166.6490218392196,105.05761999984247L144.3222864285919,90.9825677809957A170.6070045455344,170.6070045455344,0,0,0,146.0751857910936,88.1407402742766Z" fill-rule="evenodd" style="fill: #D7A449; stroke: #fff; opacity: 1;" id="p-type-tokenTransfers"></path><path d="M166.6490218392196,105.05761999984247A197,197,0,0,1,164.56111710638632,108.29883996007625L142.51410788927652,93.78954660581134A170.6070045455344,170.6070045455344,0,0,0,144.3222864285919,90.9825677809957Z" fill-rule="evenodd" style="fill: #D7A449; stroke: #fff; opacity: 1;" id="p-type-tokenTransfers"></path><path d="M164.56111710638632,108.29883996007625A197,197,0,0,1,162.41018119996025,111.49857865729085L140.65134275239942,96.56060160307129A170.6070045455344,170.6070045455344,0,0,0,142.51410788927652,93.78954660581134Z" fill-rule="evenodd" style="fill: #D7A449; stroke: #fff; opacity: 1;" id="p-type-tokenTransfers"></path><path d="M162.41018119996025,111.49857865729085A197,197,0,0,1,160.19703798415,114.65561050862186L138.73470450529456,99.29467138688058A170.6070045455344,170.6070045455344,0,0,0,140.65134275239942,96.56060160307129Z" fill-rule="evenodd" style="fill: #D7A449; stroke: #fff; opacity: 1;" id="p-type-tokenTransfers"></path><path d="M160.19703798415,114.65561050862186A197,197,0,0,1,157.92253515017612,117.76872628903389L136.7649272700935,101.99070873763961A170.6070045455344,170.6070045455344,0,0,0,138.73470450529456,99.29467138688058Z" fill-rule="evenodd" style="fill: #D7A449; stroke: #fff; opacity: 1;" id="p-type-tokenTransfers"></path><path d="M157.92253515017612,117.76872628903389A197,197,0,0,1,155.58754389158358,120.83673359448508L134.74276552253772,104.64768100315658A170.6070045455344,170.6070045455344,0,0,0,136.7649272700935,101.99070873763961Z" fill-rule="evenodd" style="fill: #D7A449; stroke: #fff; opacity: 1;" id="p-type-tokenTransfers"></path><path d="M155.58754389158358,120.83673359448508A197,197,0,0,1,153.1929585705518,123.85845729864876L132.6689938029949,107.26457049417994A170.6070045455344,170.6070045455344,0,0,0,134.74276552253772,104.64768100315658Z" fill-rule="evenodd" style="fill: #D7A449; stroke: #fff; opacity: 1;" id="p-type-tokenTransfers"></path><path d="M153.1929585705518,123.85845729864876A197,197,0,0,1,150.73969637533105,126.83274000301738L130.54440641978977,109.84037487419984A170.6070045455344,170.6070045455344,0,0,0,132.6689938029949,107.26457049417994Z" fill-rule="evenodd" style="fill: #D7A449; stroke: #fff; opacity: 1;" id="p-type-tokenTransfers"></path><path d="M150.73969637533105,126.83274000301738A197,197,0,0,1,148.2286969689354,129.758442480216L128.36981714496346,112.37410754336891A170.6070045455344,170.6070045455344,0,0,0,130.54440641978977,109.84037487419984Z" fill-rule="evenodd" style="fill: #D7A449; stroke: #fff; opacity: 1;" id="p-type-tokenTransfers"></path><path d="M148.2286969689354,129.758442480216A197,197,0,0,1,145.6609221292274,132.63444411035601L126.14605890257782,114.86479801639561A170.6070045455344,170.6070045455344,0,0,0,128.36981714496346,112.37410754336891Z" fill-rule="evenodd" style="fill: #D7A449; stroke: #fff; opacity: 1;" id="p-type-tokenTransfers"></path><path d="M145.6609221292274,132.63444411035601A197,197,0,0,1,143.03735538053232,135.45964331026158L123.87398344968375,117.31149229426532A170.6070045455344,170.6070045455344,0,0,0,126.14605890257782,114.86479801639561Z" fill-rule="evenodd" style="fill: #D7A449; stroke: #fff; opacity: 1;" id="p-type-tokenTransfers"></path><path d="M143.03735538053232,135.45964331026158A197,197,0,0,1,140.35900161692288,138.23295795540454L121.55446105007631,119.71325322964655A170.6070045455344,170.6070045455344,0,0,0,123.87398344968375,117.31149229426532Z" fill-rule="evenodd" style="fill: #D7A449; stroke: #fff; opacity: 1;" id="p-type-tokenTransfers"></path><path d="M140.35900161692288,138.23295795540454A197,197,0,0,1,137.62688671731854,140.9533257943862L119.18838014096099,122.06916088584282A170.6070045455344,170.6070045455344,0,0,0,121.55446105007631,119.71325322964655Z" fill-rule="evenodd" style="fill: #D7A449; stroke: #fff; opacity: 1;" id="p-type-tokenTransfers"></path><path d="M137.62688671731854,140.9533257943862A197,197,0,0,1,134.84205715254757,143.61970485580693L116.77664699265935,124.3783128891521A170.6070045455344,170.6070045455344,0,0,0,119.18838014096099,122.06916088584282Z" fill-rule="evenodd" style="fill: #D7A449; stroke: #fff; opacity: 1;" id="p-type-tokenTransfers"></path><path d="M134.84205715254757,143.61970485580693A197,197,0,0,1,132.00557958452143,146.23107384736863L114.32018536148402,126.6398247744995A170.6070045455344,170.6070045455344,0,0,0,116.77664699265935,124.3783128891521Z" fill-rule="evenodd" style="fill: #D7A449; stroke: #fff; opacity: 1;" id="p-type-tokenTransfers"></path><path d="M132.00557958452143,146.23107384736863A197,197,0,0,1,129.1185404576756,148.7864325470558L111.8199361359159,128.85283032421015A170.6070045455344,170.6070045455344,0,0,0,114.32018536148402,126.6398247744995Z" fill-rule="evenodd" style="fill: #D7A449; stroke: #fff; opacity: 1;" id="p-type-tokenTransfers"></path><path d="M129.1185404576756,148.7864325470558A197,197,0,0,1,126.18204558283334,151.28480218624665L109.27685697621968,131.01648189979318A170.6070045455344,170.6070045455344,0,0,0,111.8199361359159,128.85283032421015Z" fill-rule="evenodd" style="fill: #D7A449; stroke: #fff; opacity: 1;" id="p-type-tokenTransfers"></path><path d="M126.18204558283334,151.28480218624665A197,197,0,0,1,123.19721971365122,153.72522582460675L106.691921947635,133.12995076660908A170.6070045455344,170.6070045455344,0,0,0,109.27685697621968,131.01648189979318Z" fill-rule="evenodd" style="fill: #D7A449; stroke: #fff; opacity: 1;" id="p-type-tokenTransfers"></path><path d="M123.19721971365122,153.72522582460675A197,197,0,0,1,120.16520611580967,156.1067687166222L104.06612114728436,135.19242741129673A170.6070045455344,170.6070045455344,0,0,0,106.691921947635,133.12995076660908Z" fill-rule="evenodd" style="fill: #D7A449; stroke: #fff; opacity: 1;" id="p-type-tokenTransfers"></path><path d="M120.16520611580967,156.1067687166222A197,197,0,0,1,117.08716612911223,158.4285186696312L101.40046032494007,137.2031218518378A170.6070045455344,170.6070045455344,0,0,0,104.06612114728436,135.19242741129673Z" fill-rule="evenodd" style="fill: #D7A449; stroke: #fff; opacity: 1;" id="p-type-tokenTransfers"></path><path d="M117.08716612911223,158.4285186696312A197,197,0,0,1,113.96427872266254,160.6895863932174L98.69596049779614,139.16126394014054A170.6070045455344,170.6070045455344,0,0,0,101.40046032494007,137.2031218518378Z" fill-rule="evenodd" style="fill: #D7A449; stroke: #fff; opacity: 1;" id="p-type-tokenTransfers"></path><path d="M113.96427872266254,160.6895863932174A197,197,0,0,1,110.79774004328854,162.8891058398316L95.95365755939223,141.0661036570263A170.6070045455344,170.6070045455344,0,0,0,98.69596049779614,139.16126394014054Z" fill-rule="evenodd" style="fill: #D7A449; stroke: #fff; opacity: 1;" id="p-type-tokenTransfers"></path><path d="M110.79774004328854,162.8891058398316A197,197,0,0,1,107.58876295738719,165.02623453650983L93.1746018828395,142.91691139950638A170.6070045455344,170.6070045455344,0,0,0,95.95365755939223,141.0661036570263Z" fill-rule="evenodd" style="fill: #D7A449; stroke: #fff; opacity: 1;" id="p-type-tokenTransfers"></path><path d="M2.00443805505567,196.98980234540934A197,197,0,0,1,-18.030950955750704,196.1730990926924L-15.615261582071412,169.89088735339362A170.6070045455344,170.6070045455344,0,0,0,1.7358942759904816,170.59817311759988Z" fill-rule="evenodd" style="fill: #414552; stroke: #fff; opacity: 1;" id="p-type-ether"></path><path d="M-18.030950955750704,196.1730990926924A197,197,0,0,1,-32.666056309843576,194.27282044887835L-28.28963460577749,168.24519777358162A170.6070045455344,170.6070045455344,0,0,0,-15.615261582071412,169.89088735339362Z" fill-rule="evenodd" style="fill: #414552; stroke: #fff; opacity: 1;" id="p-type-ether"></path><path d="M-32.666056309843576,194.27282044887835A197,197,0,0,1,-34.451946991577195,193.96407746923026L-29.836261304540717,167.97781850996626A170.6070045455344,170.6070045455344,0,0,0,-28.28963460577749,168.24519777358162Z" fill-rule="evenodd" style="fill: #414552; stroke: #fff; opacity: 1;" id="p-type-ether"></path><path d="M-34.451946991577195,193.96407746923026A197,197,0,0,1,-36.19675203076527,193.6460563564962L-31.34730679312869,167.70240414739877A170.6070045455344,170.6070045455344,0,0,0,-29.836261304540717,167.97781850996626Z" fill-rule="evenodd" style="fill: #414552; stroke: #fff; opacity: 1;" id="p-type-ether"></path><path d="M-36.19675203076527,193.6460563564962A197,197,0,0,1,-37.17941147503988,193.4597926246425L-32.1983148351392,167.54109502380976A170.6070045455344,170.6070045455344,0,0,0,-31.34730679312869,167.70240414739877Z" fill-rule="evenodd" style="fill: #414552; stroke: #fff; opacity: 1;" id="p-type-ether"></path></g></svg>