<svg xmlns="http://www.w3.org/2000/svg" width="400" height="400" id="block-7908381"><g id="burst-container" transform="translate(200,200)"><circle r="197" style="fill: #f9f9f9; stroke: #f9f9f9; stroke-width: 3; opacity: 1;" id="circle-base"></circle><path display="none" d="M6.031385485800715e-15,-98.5A98.5,98.5,0,1,1,-6.031385485800715e-15,98.5A98.5,98.5,0,1,1,6.031385485800715e-15,-98.5Z" fill-rule="evenodd" id="p-type-root" style="stroke: #fff; opacity: 1;"></path><path d="M8.529667153919608e-15,-139.30003589374985A139.30003589374985,139.30003589374985,0,1,1,-114.9991789870227,-78.61099689172445L-81.31669929260929,-55.58636897797298A98.5,98.5,0,1,0,6.031385485800715e-15,-98.5Z" fill-rule="evenodd" style="fill: #0B1F65; stroke: #fff; opacity: 1;" id="p-type-data"></path><path d="M-114.9991789870227,-78.61099689172445A139.30003589374985,139.30003589374985,0,0,1,-4.294079271794152,-139.23383526717757L-3.036372572038237,-98.45318908803195A98.5,98.5,0,0,0,-81.31669929260929,-55.58636897797298Z" fill-rule="evenodd" style="fill: #D7A449; stroke: #fff; opacity: 1;" id="p-type-value"></path><path d="M1.0446666101440332e-14,-170.6070045455344A170.6070045455344,170.6070045455344,0,0,1,162.80679393852,50.99703763416343L132.9311906026064,41.63890686573701A139.30003589374985,139.30003589374985,0,0,0,8.529667153919608e-15,-139.30003589374985Z" fill-rule="evenodd" style="fill: #414552; stroke: #fff; opacity: 1;" id="p-type-ether"></path><path d="M162.80679393852,50.99703763416343A170.6070045455344,170.6070045455344,0,0,1,-4.718641531632986,170.54173806460383L-3.8527546772019012,139.24674603522087A139.30003589374985,139.30003589374985,0,0,0,132.9311906026064,41.63890686573701Z" fill-rule="evenodd" style="fill: #1DC690; stroke: #fff; opacity: 1;" id="p-type-logs"></path><path d="M-4.718641531632986,170.54173806460383A170.6070045455344,170.6070045455344,0,0,1,-154.84619768329824,71.61986500283923L-126.43139097807179,58.477374901323536A139.30003589374985,139.30003589374985,0,0,0,-3.8527546772019012,139.24674603522087Z" fill-rule="evenodd" style="fill: #D7A449; stroke: #fff; opacity: 1;" id="p-type-tokenTransfers"></path><path d="M-140.84465467859945,-96.27841527811968A170.6070045455344,170.6070045455344,0,0,1,-68.97721728278977,-156.04131983523726L-56.31966207330669,-127.40720412892097A139.30003589374985,139.30003589374985,0,0,0,-114.9991789870227,-78.61099689172445Z" fill-rule="evenodd" style="fill: #D7A449; stroke: #fff; opacity: 1;" id="p-type-tokenTransfers"></path><path d="M-68.97721728278977,-156.04131983523726A170.6070045455344,170.6070045455344,0,0,1,-10.513304436927994,-170.28276609750168L-8.584077127003997,-139.03529630952582A139.30003589374985,139.30003589374985,0,0,0,-56.31966207330669,-127.40720412892097Z" fill-rule="evenodd" style="fill: #414552; stroke: #fff; opacity: 1;" id="p-type-ether"></path><path d="M1.206277097160143e-14,-197A197,197,0,0,1,113.91800527202349,-160.72239444098395L98.65588651402194,-139.18967654295494A170.6070045455344,170.6070045455344,0,0,0,1.0446666101440332e-14,-170.6070045455344Z" fill-rule="evenodd" style="fill: #414552; stroke: #fff; opacity: 1;" id="p-type-ether"></path><path d="M113.91800527202349,-160.72239444098395A197,197,0,0,1,185.87994494680453,-65.25064035373838L160.97675437798563,-56.50871215953946A170.6070045455344,170.6070045455344,0,0,0,98.65588651402194,-139.18967654295494Z" fill-rule="evenodd" style="fill: #414552; stroke: #fff; opacity: 1;" id="p-type-ether"></path><path d="M185.87994494680453,-65.25064035373838A197,197,0,0,1,193.11767076611028,-38.91741561142313L167.24480880313092,-33.703470569129536A170.6070045455344,170.6070045455344,0,0,0,160.97675437798563,-56.50871215953946Z" fill-rule="evenodd" style="fill: #414552; stroke: #fff; opacity: 1;" id="p-type-ether"></path><path d="M193.11767076611028,-38.91741561142313A197,197,0,0,1,195.60956607605334,-23.364452904746546L169.40285344511292,-20.23420976103563A170.6070045455344,170.6070045455344,0,0,0,167.24480880313092,-33.703470569129536Z" fill-rule="evenodd" style="fill: #414552; stroke: #fff; opacity: 1;" id="p-type-ether"></path><path d="M195.60956607605334,-23.364452904746546A197,197,0,0,1,196.00066051062953,-19.81769611728247L169.74155116073462,-17.162628282046853A170.6070045455344,170.6070045455344,0,0,0,169.40285344511292,-20.23420976103563Z" fill-rule="evenodd" style="fill: #414552; stroke: #fff; opacity: 1;" id="p-type-ether"></path><path d="M196.00066051062953,-19.81769611728247A197,197,0,0,1,196.28286001342207,-16.794012770965594L169.9859430990883,-14.544041691136497A170.6070045455344,170.6070045455344,0,0,0,169.74155116073462,-17.162628282046853Z" fill-rule="evenodd" style="fill: #414552; stroke: #fff; opacity: 1;" id="p-type-ether"></path><path d="M196.28286001342207,-16.794012770965594A197,197,0,0,1,196.43678508191445,-14.885881454645347L170.11924611868193,-12.891551497446523A170.6070045455344,170.6070045455344,0,0,0,169.9859430990883,-14.544041691136497Z" fill-rule="evenodd" style="fill: #414552; stroke: #fff; opacity: 1;" id="p-type-ether"></path><path d="M187.9930926126089,58.88630681191547A197,197,0,0,1,187.06302997634202,61.77720304505678L162.00133606840214,53.50062721176855A170.6070045455344,170.6070045455344,0,0,0,162.80679393852,50.99703763416343Z" fill-rule="evenodd" style="fill: #1DC690; stroke: #fff; opacity: 1;" id="p-type-logs"></path><path d="M187.06302997634202,61.77720304505678A197,197,0,0,1,186.08851499858642,64.65341897858828L161.15738134129737,55.991503276976395A170.6070045455344,170.6070045455344,0,0,0,162.00133606840214,53.50062721176855Z" fill-rule="evenodd" style="fill: #1DC690; stroke: #fff; opacity: 1;" id="p-type-logs"></path><path d="M186.08851499858642,64.65341897858828A197,197,0,0,1,185.06977925622073,67.51427112880454L160.2751303086655,58.46907391553501A170.6070045455344,170.6070045455344,0,0,0,161.15738134129737,55.991503276976395Z" fill-rule="evenodd" style="fill: #1DC690; stroke: #fff; opacity: 1;" id="p-type-logs"></path><path d="M185.06977925622073,67.51427112880454A197,197,0,0,1,184.0070648344347,70.35907966294147L159.3547926224307,60.93275037500037A170.6070045455344,170.6070045455344,0,0,0,160.2751303086655,58.46907391553501Z" fill-rule="evenodd" style="fill: #1DC690; stroke: #fff; opacity: 1;" id="p-type-logs"></path><path d="M184.0070648344347,70.35907966294147A197,197,0,0,1,182.90062426920184,73.18716856072696L158.3965869851614,63.38194720464334A170.6070045455344,170.6070045455344,0,0,0,159.3547926224307,60.93275037500037Z" fill-rule="evenodd" style="fill: #1DC690; stroke: #fff; opacity: 1;" id="p-type-logs"></path><path d="M182.90062426920184,73.18716856072696A197,197,0,0,1,181.7507204872685,75.99786577502555L157.40074109809933,65.81608239457206A170.6070045455344,170.6070045455344,0,0,0,158.3965869851614,63.38194720464334Z" fill-rule="evenodd" style="fill: #1DC690; stroke: #fff; opacity: 1;" id="p-type-logs"></path><path d="M181.7507204872685,75.99786577502555A197,197,0,0,1,180.55762674367395,78.79050339153899L156.36749160705017,68.23457751403673A170.6070045455344,170.6070045455344,0,0,0,157.40074109809933,65.81608239457206Z" fill-rule="evenodd" style="fill: #1DC690; stroke: #fff; opacity: 1;" id="p-type-logs"></path><path d="M180.55762674367395,78.79050339153899A197,197,0,0,1,179.32162655681583,81.56441778752476L155.29708404614874,70.63685784888378A170.6070045455344,170.6070045455344,0,0,0,156.36749160705017,68.23457751403673Z" fill-rule="evenodd" style="fill: #1DC690; stroke: #fff; opacity: 1;" id="p-type-logs"></path><path d="M179.32162655681583,81.56441778752476A197,197,0,0,1,178.04301364107687,84.31894978949462L154.1897727795119,73.0223525381269A170.6070045455344,170.6070045455344,0,0,0,155.29708404614874,70.63685784888378Z" fill-rule="evenodd" style="fill: #1DC690; stroke: #fff; opacity: 1;" id="p-type-logs"></path><path d="M178.04301364107687,84.31894978949462A197,197,0,0,1,176.72209183702876,87.05344482985595L153.04582094079348,75.39049470960235A170.6070045455344,170.6070045455344,0,0,0,154.1897727795119,73.0223525381269Z" fill-rule="evenodd" style="fill: #1DC690; stroke: #fff; opacity: 1;" id="p-type-logs"></path><path d="M176.72209183702876,87.05344482985595A197,197,0,0,1,175.35917503922948,89.76725310245868L151.86550037065476,77.74072161467667A170.6070045455344,170.6070045455344,0,0,0,153.04582094079348,75.39049470960235Z" fill-rule="evenodd" style="fill: #1DC690; stroke: #fff; opacity: 1;" id="p-type-logs"></path><path d="M175.35917503922948,89.76725310245868A197,197,0,0,1,173.95458712163173,92.45972971701055L150.64909155216642,80.07247476197412A170.6070045455344,170.6070045455344,0,0,0,151.86550037065476,77.74072161467667Z" fill-rule="evenodd" style="fill: #1DC690; stroke: #fff; opacity: 1;" id="p-type-logs"></path><path d="M173.95458712163173,92.45972971701055A197,197,0,0,1,172.50866186061964,95.13023485232438L149.3968835441563,82.38520005009269A170.6070045455344,170.6070045455344,0,0,0,150.64909155216642,80.07247476197412Z" fill-rule="evenodd" style="fill: #1DC690; stroke: #fff; opacity: 1;" id="p-type-logs"></path><path d="M172.50866186061964,95.13023485232438A197,197,0,0,1,171.02174285569276,97.77813390836063L148.10917391251976,84.67834789927693A170.6070045455344,170.6070045455344,0,0,0,149.3968835441563,82.38520005009269Z" fill-rule="evenodd" style="fill: #1DC690; stroke: #fff; opacity: 1;" id="p-type-logs"></path><path d="M171.02174285569276,97.77813390836063A197,197,0,0,1,169.49418344781523,100.40279765702924L146.7862686595079,86.95137338201603A170.6070045455344,170.6070045455344,0,0,0,148.10917391251976,84.67834789927693Z" fill-rule="evenodd" style="fill: #1DC690; stroke: #fff; opacity: 1;" id="p-type-logs"></path><path d="M169.49418344781523,100.40279765702924A197,197,0,0,1,167.92634663545047,103.00360239171509L145.4284821510116,89.20373635253684A170.6070045455344,170.6070045455344,0,0,0,146.7862686595079,86.95137338201603Z" fill-rule="evenodd" style="fill: #1DC690; stroke: #fff; opacity: 1;" id="p-type-logs"></path><path d="M167.92634663545047,103.00360239171509A197,197,0,0,1,166.31860498830073,105.5799300754911L144.0361370418577,91.43490157515997A170.6070045455344,170.6070045455344,0,0,0,145.4284821510116,89.20373635253684Z" fill-rule="evenodd" style="fill: #1DC690; stroke: #fff; opacity: 1;" id="p-type-logs"></path><path d="M166.31860498830073,105.5799300754911A197,197,0,0,1,164.67134055877227,108.13116848798427L142.60956419913558,93.64433885148974A170.6070045455344,170.6070045455344,0,0,0,144.0361370418577,91.43490157515997Z" fill-rule="evenodd" style="fill: #1DC690; stroke: #fff; opacity: 1;" id="p-type-logs"></path><path d="M164.67134055877227,108.13116848798427A197,197,0,0,1,162.98494479118713,110.6567113708594L141.14910262357228,95.8315231464066A170.6070045455344,170.6070045455344,0,0,0,142.60956419913558,93.64433885148974Z" fill-rule="evenodd" style="fill: #1DC690; stroke: #fff; opacity: 1;" id="p-type-logs"></path><path d="M162.98494479118713,110.6567113708594A197,197,0,0,1,161.25981842876297,113.15595857188607L139.65509936897473,97.99593471283285A170.6070045455344,170.6070045455344,0,0,0,141.14910262357228,95.8315231464066Z" fill-rule="evenodd" style="fill: #1DC690; stroke: #fff; opacity: 1;" id="p-type-logs"></path><path d="M161.25981842876297,113.15595857188607A197,197,0,0,1,159.4963714183834,115.62831618755452L138.12790945975829,100.13705921524165A170.6070045455344,170.6070045455344,0,0,0,139.65509936897473,97.99593471283285Z" fill-rule="evenodd" style="fill: #1DC690; stroke: #fff; opacity: 1;" id="p-type-logs"></path><path d="M159.4963714183834,115.62831618755452A197,197,0,0,1,157.69502281318105,118.0731967042068L136.5678958065814,102.25438785188014A170.6070045455344,170.6070045455344,0,0,0,138.12790945975829,100.13705921524165Z" fill-rule="evenodd" style="fill: #1DC690; stroke: #fff; opacity: 1;" id="p-type-logs"></path><path d="M157.69502281318105,118.0731967042068A197,197,0,0,1,155.8562006729566,120.49001913764924L134.97542912010573,104.34741747567742A170.6070045455344,170.6070045455344,0,0,0,136.5678958065814,102.25438785188014Z" fill-rule="evenodd" style="fill: #1DC690; stroke: #fff; opacity: 1;" id="p-type-logs"></path><path d="M155.8562006729566,120.49001913764924A197,197,0,0,1,153.98034196245786,122.87820917121367L133.3508878229035,106.41565071380903A170.6070045455344,170.6070045455344,0,0,0,134.97542912010573,104.34741747567742Z" fill-rule="evenodd" style="fill: #1DC690; stroke: #fff; opacity: 1;" id="p-type-logs"></path><path d="M153.98034196245786,122.87820917121367A197,197,0,0,1,152.06789244754245,125.23719929223371L131.69465795953153,108.45859608588891A170.6070045455344,170.6070045455344,0,0,0,133.3508878229035,106.41565071380903Z" fill-rule="evenodd" style="fill: #1DC690; stroke: #fff; opacity: 1;" id="p-type-logs"></path><path d="M152.06789244754245,125.23719929223371A197,197,0,0,1,150.1193065892491,127.5664289269047L130.0071331047944,110.47576812076154A170.6070045455344,170.6070045455344,0,0,0,131.69465795953153,108.45859608588891Z" fill-rule="evenodd" style="fill: #1DC690; stroke: #fff; opacity: 1;" id="p-type-logs"></path><path d="M150.1193065892491,127.5664289269047A197,197,0,0,1,148.13504743580285,129.86534457349444L128.28871427021812,112.46668747186578A170.6070045455344,170.6070045455344,0,0,0,130.0071331047944,110.47576812076154Z" fill-rule="evenodd" style="fill: #1DC690; stroke: #fff; opacity: 1;" id="p-type-logs"></path><path d="M148.13504743580285,129.86534457349444A197,197,0,0,1,146.11558651257937,132.13339993387342L126.53980980875662,114.43088103114344A170.6070045455344,170.6070045455344,0,0,0,128.28871427021812,112.46668747186578Z" fill-rule="evenodd" style="fill: #1DC690; stroke: #fff; opacity: 1;" id="p-type-logs"></path><path d="M146.11558651257937,132.13339993387342A197,197,0,0,1,144.06140371005512,134.37005604333325L124.7608353177535,116.36788204146532A170.6070045455344,170.6070045455344,0,0,0,126.53980980875662,114.43088103114344Z" fill-rule="evenodd" style="fill: #1DC690; stroke: #fff; opacity: 1;" id="p-type-logs"></path><path d="M144.06140371005512,134.37005604333325A197,197,0,0,1,141.9729871697695,136.57478139866254L122.95221354018257,118.27723020754816A170.6070045455344,170.6070045455344,0,0,0,124.7608353177535,116.36788204146532Z" fill-rule="evenodd" style="fill: #1DC690; stroke: #fff; opacity: 1;" id="p-type-logs"></path><path d="M141.9729871697695,136.57478139866254A197,197,0,0,1,139.85083316832637,138.74705208444948L121.11437426419002,120.1584718053359A170.6070045455344,170.6070045455344,0,0,0,122.95221354018257,118.27723020754816Z" fill-rule="evenodd" style="fill: #1DC690; stroke: #fff; opacity: 1;" id="p-type-logs"></path><path d="M139.85083316832637,138.74705208444948A197,197,0,0,1,137.69544599946232,140.88635189758145L119.24775422096272,122.0111597898195A170.6070045455344,170.6070045455344,0,0,0,121.11437426419002,120.1584718053359Z" fill-rule="evenodd" style="fill: #1DC690; stroke: #fff; opacity: 1;" id="p-type-logs"></path><path d="M137.69544599946232,140.88635189758145A197,197,0,0,1,135.50733785420985,142.9921724699119L117.35279698094642,123.83485390126955A170.6070045455344,170.6070045455344,0,0,0,119.24775422096272,122.0111597898195Z" fill-rule="evenodd" style="fill: #1DC690; stroke: #fff; opacity: 1;" id="p-type-logs"></path><path d="M135.50733785420985,142.9921724699119A197,197,0,0,1,133.2870286991839,145.0640133890653L115.4299528484388,125.6291207698565A170.6070045455344,170.6070045455344,0,0,0,117.35279698094642,123.83485390126955Z" fill-rule="evenodd" style="fill: #1DC690; stroke: #fff; opacity: 1;" id="p-type-logs"></path><path d="M133.2870286991839,145.0640133890653A197,197,0,0,1,131.03504615302083,147.1013823173518L113.47967875458242,127.39353401863367A170.6070045455344,170.6070045455344,0,0,0,115.4299528484388,125.6291207698565Z" fill-rule="evenodd" style="fill: #1DC690; stroke: #fff; opacity: 1;" id="p-type-logs"></path><path d="M131.03504615302083,147.1013823173518A197,197,0,0,1,128.7519253609985,149.10379510876263L111.50243814878264,129.12767436485836A170.6070045455344,170.6070045455344,0,0,0,113.47967875458242,127.39353401863367Z" fill-rule="evenodd" style="fill: #1DC690; stroke: #fff; opacity: 1;" id="p-type-logs"></path><path d="M128.7519253609985,149.10379510876263A197,197,0,0,1,126.4382088678684,151.0707759240194L109.49870088857692,130.83112971962734A170.6070045455344,170.6070045455344,0,0,0,111.50243814878264,129.12767436485836Z" fill-rule="evenodd" style="fill: #1DC690; stroke: #fff; opacity: 1;" id="p-type-logs"></path><path d="M126.4382088678684,151.0707759240194A197,197,0,0,1,124.09444648892904,153.00185734364902L107.46894312798118,132.50349528580273A170.6070045455344,170.6070045455344,0,0,0,109.49870088857692,130.83112971962734Z" fill-rule="evenodd" style="fill: #1DC690; stroke: #fff; opacity: 1;" id="p-type-logs"></path><path d="M124.09444648892904,153.00185734364902A197,197,0,0,1,121.7211951793716,154.89658047905812L105.41364720433975,134.14437365420508A170.6070045455344,170.6070045455344,0,0,0,107.46894312798118,132.50349528580273Z" fill-rule="evenodd" style="fill: #1DC690; stroke: #fff; opacity: 1;" id="p-type-logs"></path><path d="M121.7211951793716,154.89658047905812A197,197,0,0,1,119.31901890192925,156.75449508157988L103.33330152370635,135.75337489805102A170.6070045455344,170.6070045455344,0,0,0,105.41364720433975,134.14437365420508Z" fill-rule="evenodd" style="fill: #1DC690; stroke: #fff; opacity: 1;" id="p-type-logs"></path><path d="M119.31901890192925,156.75449508157988A197,197,0,0,1,116.88848849286084,158.57515964946822L101.22840044478252,137.33011666561254A170.6070045455344,170.6070045455344,0,0,0,103.33330152370635,135.75337489805102Z" fill-rule="evenodd" style="fill: #1DC690; stroke: #fff; opacity: 1;" id="p-type-logs"></path><path d="M116.88848849286084,158.57515964946822A197,197,0,0,1,114.43018152630144,160.35814153281305L99.09944416144181,138.87422427107657A170.6070045455344,170.6070045455344,0,0,0,101.22840044478252,137.33011666561254Z" fill-rule="evenodd" style="fill: #1DC690; stroke: #fff; opacity: 1;" id="p-type-logs"></path><path d="M-5.448617916995305,196.92463675933135A197,197,0,0,1,-8.48354220131721,196.81724901979112L-7.346963060418061,170.448737554107A170.6070045455344,170.6070045455344,0,0,0,-4.718641531632986,170.54173806460383Z" fill-rule="evenodd" style="fill: #D7A449; stroke: #fff; opacity: 1;" id="p-type-tokenTransfers"></path><path d="M-8.48354220131721,196.81724901979112A197,197,0,0,1,-11.516450516395944,196.66309101482008L-9.973538708625304,170.31523280560535A170.6070045455344,170.6070045455344,0,0,0,-7.346963060418061,170.448737554107Z" fill-rule="evenodd" style="fill: #D7A449; stroke: #fff; opacity: 1;" id="p-type-tokenTransfers"></path><path d="M-11.516450516395944,196.66309101482008A197,197,0,0,1,-14.546622143251692,196.4621993774412L-12.597744315309201,170.14125554422742A170.6070045455344,170.6070045455344,0,0,0,-9.973538708625304,170.31523280560535Z" fill-rule="evenodd" style="fill: #D7A449; stroke: #fff; opacity: 1;" id="p-type-tokenTransfers"></path><path d="M-14.546622143251692,196.4621993774412A197,197,0,0,1,-17.573337013231967,196.21462184612892L-15.218956282724234,169.9268471127047A170.6070045455344,170.6070045455344,0,0,0,-12.597744315309201,170.14125554422742Z" fill-rule="evenodd" style="fill: #D7A449; stroke: #fff; opacity: 1;" id="p-type-tokenTransfers"></path><path d="M-17.573337013231967,196.21462184612892A197,197,0,0,1,-20.595875879123636,195.92041725346476L-17.836551724512226,169.67205846154752A170.6070045455344,170.6070045455344,0,0,0,-15.218956282724234,169.9268471127047Z" fill-rule="evenodd" style="fill: #D7A449; stroke: #fff; opacity: 1;" id="p-type-tokenTransfers"></path><path d="M-20.595875879123636,195.92041725346476A197,197,0,0,1,-23.61352048606979,195.57965551215688L-20.4499086137207,169.37695013693707A170.6070045455344,170.6070045455344,0,0,0,-17.836551724512226,169.67205846154752Z" fill-rule="evenodd" style="fill: #D7A449; stroke: #fff; opacity: 1;" id="p-type-tokenTransfers"></path><path d="M-23.61352048606979,195.57965551215688A197,197,0,0,1,-26.625553742250755,195.1924175984265L-23.05840593061698,169.04159226633806A170.6070045455344,170.6070045455344,0,0,0,-20.4499086137207,169.37695013693707Z" fill-rule="evenodd" style="fill: #D7A449; stroke: #fff; opacity: 1;" id="p-type-tokenTransfers"></path><path d="M-26.625553742250755,195.1924175984265A197,197,0,0,1,-29.631259889288746,194.75879553276516L-25.661423810262928,168.66606454183386A170.6070045455344,170.6070045455344,0,0,0,-23.05840593061698,169.04159226633806Z" fill-rule="evenodd" style="fill: #D7A449; stroke: #fff; opacity: 1;" id="p-type-tokenTransfers"></path><path d="M-29.631259889288746,194.75879553276516A197,197,0,0,1,-32.62992467233566,194.2788923580678L-28.258343689815305,168.25045620118917A170.6070045455344,170.6070045455344,0,0,0,-25.661423810262928,168.66606454183386Z" fill-rule="evenodd" style="fill: #D7A449; stroke: #fff; opacity: 1;" id="p-type-tokenTransfers"></path><path d="M-32.62992467233566,194.2788923580678A197,197,0,0,1,-35.62083550980355,193.75282211514627L-30.84854845551669,167.79486600664407A170.6070045455344,170.6070045455344,0,0,0,-28.258343689815305,168.25045620118917Z" fill-rule="evenodd" style="fill: #D7A449; stroke: #fff; opacity: 1;" id="p-type-tokenTransfers"></path><path d="M-35.62083550980355,193.75282211514627A197,197,0,0,1,-38.603281662697505,193.18070981562948L-33.43142258934202,167.29940222144498A170.6070045455344,170.6070045455344,0,0,0,-30.84854845551669,167.79486600664407Z" fill-rule="evenodd" style="fill: #D7A449; stroke: #fff; opacity: 1;" id="p-type-tokenTransfers"></path><path d="M-38.603281662697505,193.18070981562948A197,197,0,0,1,-41.57655440351068,192.56269141225647L-36.006352315266014,166.76418258411766A170.6070045455344,170.6070045455344,0,0,0,-33.43142258934202,167.29940222144498Z" fill-rule="evenodd" style="fill: #D7A449; stroke: #fff; opacity: 1;" id="p-type-tokenTransfers"></path><path d="M-41.57655440351068,192.56269141225647A197,197,0,0,1,-44.53994718464128,191.89891376656973L-38.57272574511653,166.1893342804887A170.6070045455344,170.6070045455344,0,0,0,-36.006352315266014,166.76418258411766Z" fill-rule="evenodd" style="fill: #D7A449; stroke: #fff; opacity: 1;" id="p-type-tokenTransfers"></path><path d="M-44.53994718464128,191.89891376656973A197,197,0,0,1,-47.49275580629157,191.18953461401583L-41.1299330239794,165.57499391346198A170.6070045455344,170.6070045455344,0,0,0,-38.57272574511653,166.1893342804887Z" fill-rule="evenodd" style="fill: #D7A449; stroke: #fff; opacity: 1;" id="p-type-tokenTransfers"></path><path d="M-47.49275580629157,191.18953461401583A197,197,0,0,1,-50.43427858380897,190.43472252646245L-43.677366475120024,164.92130747055717A170.6070045455344,170.6070045455344,0,0,0,-41.1299330239794,165.57499391346198Z" fill-rule="evenodd" style="fill: #D7A449; stroke: #fff; opacity: 1;" id="p-type-tokenTransfers"></path><path d="M-50.43427858380897,190.43472252646245A197,197,0,0,1,-53.36381651442945,189.63465687214008L-46.21442074438746,164.22843028921858A170.6070045455344,170.6070045455344,0,0,0,-43.677366475120024,164.92130747055717Z" fill-rule="evenodd" style="fill: #D7A449; stroke: #fff; opacity: 1;" id="p-type-tokenTransfers"></path><path d="M-53.36381651442945,189.63465687214008A197,197,0,0,1,-56.28067344338359,188.78952777301822L-48.74049294406641,163.4965270199016A170.6070045455344,170.6070045455344,0,0,0,-46.21442074438746,164.22843028921858Z" fill-rule="evenodd" style="fill: #D7A449; stroke: #fff; opacity: 1;" id="p-type-tokenTransfers"></path><path d="M-56.28067344338359,188.78952777301822A197,197,0,0,1,-59.184156229325986,187.89953605962612L-51.25498279614334,162.7257715869464A170.6070045455344,170.6070045455344,0,0,0,-48.74049294406641,163.4965270199016Z" fill-rule="evenodd" style="fill: #D7A449; stroke: #fff; opacity: 1;" id="p-type-tokenTransfers"></path><path d="M-59.184156229325986,187.89953605962612A197,197,0,0,1,-62.07357490904836,186.96489322332886L-53.757292774952205,161.91634714724782A170.6070045455344,170.6070045455344,0,0,0,-51.25498279614334,162.7257715869464Z" fill-rule="evenodd" style="fill: #D7A449; stroke: #fff; opacity: 1;" id="p-type-tokenTransfers"></path><path d="M-62.07357490904836,186.96489322332886A197,197,0,0,1,-64.94824286143766,185.98582136607004L-56.246828249166335,161.06844604673128A170.6070045455344,170.6070045455344,0,0,0,-53.757292774952205,161.91634714724782Z" fill-rule="evenodd" style="fill: #D7A449; stroke: #fff; opacity: 1;" id="p-type-tokenTransfers"></path><path d="M-64.94824286143766,185.98582136607004A197,197,0,0,1,-67.80747697063984,184.96255314759296L-58.72299762310239,160.18226977464488A170.6070045455344,170.6070045455344,0,0,0,-56.246828249166335,161.06844604673128Z" fill-rule="evenodd" style="fill: #D7A449; stroke: #fff; opacity: 1;" id="p-type-tokenTransfers"></path><path d="M-67.80747697063984,184.96255314759296A197,197,0,0,1,-70.65059778839064,183.8953317301531L-61.185212477302976,159.25802891567912A170.6070045455344,170.6070045455344,0,0,0,-58.72299762310239,160.18226977464488Z" fill-rule="evenodd" style="fill: #D7A449; stroke: #fff; opacity: 1;" id="p-type-tokenTransfers"></path><path d="M-70.65059778839064,183.8953317301531A197,197,0,0,1,-73.47692969547502,182.78441072073466L-63.632887708364564,158.2959430999249A170.6070045455344,170.6070045455344,0,0,0,-61.185212477302976,159.25802891567912Z" fill-rule="evenodd" style="fill: #D7A449; stroke: #fff; opacity: 1;" id="p-type-tokenTransfers"></path><path d="M-73.47692969547502,182.78441072073466A197,197,0,0,1,-76.28580106227638,181.63005411078527L-66.06544166797725,157.29624095068226A170.6070045455344,170.6070045455344,0,0,0,-63.632887708364564,158.2959430999249Z" fill-rule="evenodd" style="fill: #D7A449; stroke: #fff; opacity: 1;" id="p-type-tokenTransfers"></path><path d="M-76.28580106227638,181.63005411078527A197,197,0,0,1,-79.07654440837806,180.4325362134829L-68.4822963011437,156.25916003013188A170.6070045455344,170.6070045455344,0,0,0,-66.06544166797725,157.29624095068226Z" fill-rule="evenodd" style="fill: #D7A449; stroke: #fff; opacity: 1;" id="p-type-tokenTransfers"></path><path d="M-79.07654440837806,180.4325362134829A197,197,0,0,1,-81.84849656117859,179.19214159854985L-70.88287728354392,155.18494678288243A170.6070045455344,170.6070045455344,0,0,0,-68.4822963011437,156.25916003013188Z" fill-rule="evenodd" style="fill: #D7A449; stroke: #fff; opacity: 1;" id="p-type-tokenTransfers"></path><path d="M-81.84849656117859,179.19214159854985A197,197,0,0,1,-84.60099881348337,177.90916502462986L-73.26661415801375,154.0738564774074A170.6070045455344,170.6070045455344,0,0,0,-70.88287728354392,155.18494678288243Z" fill-rule="evenodd" style="fill: #D7A449; stroke: #fff; opacity: 1;" id="p-type-tokenTransfers"></path><path d="M-84.60099881348337,177.90916502462986A197,197,0,0,1,-87.33339708003527,176.58391136924362L-75.63294047010426,152.92615314538475A170.6070045455344,170.6070045455344,0,0,0,-73.26661415801375,154.0738564774074Z" fill-rule="evenodd" style="fill: #D7A449; stroke: #fff; opacity: 1;" id="p-type-tokenTransfers"></path><path d="M-87.33339708003527,176.58391136924362A197,197,0,0,1,-90.04504205294674,175.21669555633974L-77.98129390268996,151.74210951895418A170.6070045455344,170.6070045455344,0,0,0,-75.63294047010426,152.92615314538475Z" fill-rule="evenodd" style="fill: #D7A449; stroke: #fff; opacity: 1;" id="p-type-tokenTransfers"></path><path d="M-90.04504205294674,175.21669555633974A197,197,0,0,1,-92.73528935599684,173.80784248145864L-80.31111640959392,150.52200696590734A170.6070045455344,170.6070045455344,0,0,0,-77.98129390268996,151.74210951895418Z" fill-rule="evenodd" style="fill: #D7A449; stroke: #fff; opacity: 1;" id="p-type-tokenTransfers"></path><path d="M-92.73528935599684,173.80784248145864A197,197,0,0,1,-95.40349969775629,172.3576869345264L-82.62185434819796,149.2661354228251A170.6070045455344,170.6070045455344,0,0,0,-80.31111640959392,150.52200696590734Z" fill-rule="evenodd" style="fill: #D7A449; stroke: #fff; opacity: 1;" id="p-type-tokenTransfers"></path><path d="M-95.40349969775629,172.3576869345264A197,197,0,0,1,-98.04903902350411,170.86657352029792L-84.91295861100633,147.97479332617948A170.6070045455344,170.6070045455344,0,0,0,-82.62185434819796,149.2661354228251Z" fill-rule="evenodd" style="fill: #D7A449; stroke: #fff; opacity: 1;" id="p-type-tokenTransfers"></path><path d="M-98.04903902350411,170.86657352029792A197,197,0,0,1,-100.67127866589995,169.3348565764672L-87.18388475613175,146.648287541415A170.6070045455344,170.6070045455344,0,0,0,-84.91295861100633,147.97479332617948Z" fill-rule="evenodd" style="fill: #D7A449; stroke: #fff; opacity: 1;" id="p-type-tokenTransfers"></path><path d="M-100.67127866589995,169.3348565764672A197,197,0,0,1,-103.26959549437622,167.7629000894653L-89.43409313667281,145.2869332900276A170.6070045455344,170.6070045455344,0,0,0,-87.18388475613175,146.648287541415Z" fill-rule="evenodd" style="fill: #D7A449; stroke: #fff; opacity: 1;" id="p-type-tokenTransfers"></path><path d="M-103.26959549437622,167.7629000894653A197,197,0,0,1,-105.84337206321437,166.15107760796488L-91.6630490289518,143.89105407465738A170.6070045455344,170.6070045455344,0,0,0,-89.43409313667281,145.2869332900276Z" fill-rule="evenodd" style="fill: #D7A449; stroke: #fff; opacity: 1;" id="p-type-tokenTransfers"></path><path d="M-105.84337206321437,166.15107760796488A197,197,0,0,1,-108.39199675827041,164.49977215411303L-93.87022275958269,142.46098160221388A170.6070045455344,170.6070045455344,0,0,0,-91.6630490289518,143.89105407465738Z" fill-rule="evenodd" style="fill: #D7A449; stroke: #fff; opacity: 1;" id="p-type-tokenTransfers"></path></g></svg>