<svg xmlns="http://www.w3.org/2000/svg" width="400" height="400" id="block-7908360"><g id="burst-container" transform="translate(200,200)"><circle r="197" style="fill: #f9f9f9; stroke: #f9f9f9; stroke-width: 3; opacity: 1;" id="circle-base"></circle><path display="none" d="M6.031385485800715e-15,-98.5A98.5,98.5,0,1,1,-6.031385485800715e-15,98.5A98.5,98.5,0,1,1,6.031385485800715e-15,-98.5Z" fill-rule="evenodd" id="p-type-root" style="stroke: #fff; opacity: 1;"></path><path d="M8.529667153919608e-15,-139.30003589374985A139.30003589374985,139.30003589374985,0,1,1,-138.8250264239491,11.494000103959554L-98.16411758277609,8.127485416468682A98.5,98.5,0,1,0,6.031385485800715e-15,-98.5Z" fill-rule="evenodd" style="fill: #0B1F65; stroke: #fff; opacity: 1;" id="p-type-data"></path><path d="M-138.8250264239491,11.494000103959554A139.30003589374985,139.30003589374985,0,0,1,-50.03817180588944,-130.0026205979106L-35.38233060212194,-91.92573459680453A98.5,98.5,0,0,0,-98.16411758277609,8.127485416468682Z" fill-rule="evenodd" style="fill: #D7A449; stroke: #fff; opacity: 1;" id="p-type-value"></path><path d="M1.0446666101440332e-14,-170.6070045455344A170.6070045455344,170.6070045455344,0,0,1,137.47820099119195,101.02719560705141L112.25048106140294,82.48835979387405A139.30003589374985,139.30003589374985,0,0,0,8.529667153919608e-15,-139.30003589374985Z" fill-rule="evenodd" style="fill: #1DC690; stroke: #fff; opacity: 1;" id="p-type-logs"></path><path d="M137.47820099119195,101.02719560705141A170.6070045455344,170.6070045455344,0,0,1,58.62278395434653,160.21897266379537L47.86530266318869,130.81824337974172A139.30003589374985,139.30003589374985,0,0,0,112.25048106140294,82.48835979387405Z" fill-rule="evenodd" style="fill: #414552; stroke: #fff; opacity: 1;" id="p-type-ether"></path><path d="M58.62278395434653,160.21897266379537A170.6070045455344,170.6070045455344,0,0,1,-34.26380929692743,167.1309108826485L-27.976283140500875,136.46181730301896A139.30003589374985,139.30003589374985,0,0,0,47.86530266318869,130.81824337974172Z" fill-rule="evenodd" style="fill: #D7A449; stroke: #fff; opacity: 1;" id="p-type-tokenTransfers"></path><path d="M-170.02523913353352,14.077217679098855A170.6070045455344,170.6070045455344,0,0,1,-152.2213802659712,-77.04155625324941L-124.2882365312647,-62.90416727012921A139.30003589374985,139.30003589374985,0,0,0,-138.8250264239491,11.494000103959554Z" fill-rule="evenodd" style="fill: #414552; stroke: #fff; opacity: 1;" id="p-type-ether"></path><path d="M-152.2213802659712,-77.04155625324941A170.6070045455344,170.6070045455344,0,0,1,-114.38733389679668,-126.57917618622245L-93.39686702817266,-103.35146457269887A139.30003589374985,139.30003589374985,0,0,0,-124.2882365312647,-62.90416727012921Z" fill-rule="evenodd" style="fill: #D7A449; stroke: #fff; opacity: 1;" id="p-type-tokenTransfers"></path><path d="M1.206277097160143e-14,-197A197,197,0,0,1,35.98791858984781,-193.6849754512995L31.166451728134454,-167.73610907219071A170.6070045455344,170.6070045455344,0,0,0,1.0446666101440332e-14,-170.6070045455344Z" fill-rule="evenodd" style="fill: #1DC690; stroke: #fff; opacity: 1;" id="p-type-logs"></path><path d="M35.98791858984781,-193.6849754512995A197,197,0,0,1,70.76466120424398,-183.85146919360903L61.283994293074386,-159.22004284475753A170.6070045455344,170.6070045455344,0,0,0,31.166451728134454,-167.73610907219071Z" fill-rule="evenodd" style="fill: #1DC690; stroke: #fff; opacity: 1;" id="p-type-logs"></path><path d="M70.76466120424398,-183.85146919360903A197,197,0,0,1,103.15981408186306,-167.8304285837209L89.33901964457309,-145.3454146815323A170.6070045455344,170.6070045455344,0,0,0,61.283994293074386,-159.22004284475753Z" fill-rule="evenodd" style="fill: #1DC690; stroke: #fff; opacity: 1;" id="p-type-logs"></path><path d="M103.15981408186306,-167.8304285837209A197,197,0,0,1,132.0831160343984,-146.16104288983317L114.38733389679672,-126.57917618622243A170.6070045455344,170.6070045455344,0,0,0,89.33901964457309,-145.3454146815323Z" fill-rule="evenodd" style="fill: #1DC690; stroke: #fff; opacity: 1;" id="p-type-logs"></path><path d="M132.0831160343984,-146.16104288983317A197,197,0,0,1,156.5611512648739,-119.57259683814378L135.585934241119,-103.55290645830736A170.6070045455344,170.6070045455344,0,0,0,114.38733389679672,-126.57917618622243Z" fill-rule="evenodd" style="fill: #1DC690; stroke: #fff; opacity: 1;" id="p-type-logs"></path><path d="M156.5611512648739,-119.57259683814378A197,197,0,0,1,175.77010974594972,-88.95992648320248L152.2213802659712,-77.0415562532494A170.6070045455344,170.6070045455344,0,0,0,135.585934241119,-103.55290645830736Z" fill-rule="evenodd" style="fill: #1DC690; stroke: #fff; opacity: 1;" id="p-type-logs"></path><path d="M158.7461526999403,116.65615715840823A197,197,0,0,1,156.3566253091376,119.83991706413165L135.40880956771807,103.78441256495825A170.6070045455344,170.6070045455344,0,0,0,137.47820099119195,101.02719560705141Z" fill-rule="evenodd" style="fill: #414552; stroke: #fff; opacity: 1;" id="p-type-ether"></path><path d="M156.3566253091376,119.83991706413165A197,197,0,0,1,154.77143665518773,121.88027894491059L134.0359959236066,105.5514177866262A170.6070045455344,170.6070045455344,0,0,0,135.40880956771807,103.78441256495825Z" fill-rule="evenodd" style="fill: #414552; stroke: #fff; opacity: 1;" id="p-type-ether"></path><path d="M67.69176019337449,185.0049339934551A197,197,0,0,1,32.756012223514524,194.25767337022484L28.367538712237174,168.23208001867457A170.6070045455344,170.6070045455344,0,0,0,58.62278395434653,160.21897266379537Z" fill-rule="evenodd" style="fill: #D7A449; stroke: #fff; opacity: 1;" id="p-type-tokenTransfers"></path></g></svg>