<svg xmlns="http://www.w3.org/2000/svg" width="400" height="400" id="block-7908797"><g id="burst-container" transform="translate(200,200)"><circle r="197" style="fill: #f9f9f9; stroke: #f9f9f9; stroke-width: 3; opacity: 1;" id="circle-base"></circle><path display="none" d="M6.031385485800715e-15,-98.5A98.5,98.5,0,1,1,-6.031385485800715e-15,98.5A98.5,98.5,0,1,1,6.031385485800715e-15,-98.5Z" fill-rule="evenodd" id="p-type-root" style="stroke: #fff; opacity: 1;"></path><path d="M8.529667153919608e-15,-139.30003589374985A139.30003589374985,139.30003589374985,0,1,1,-75.14169602157347,-117.29546248257623L-53.13320280671282,-82.94041692384192A98.5,98.5,0,1,0,6.031385485800715e-15,-98.5Z" fill-rule="evenodd" style="fill: #0B1F65; stroke: #fff; opacity: 1;" id="p-type-data"></path><path d="M-75.14169602157347,-117.29546248257623A139.30003589374985,139.30003589374985,0,0,1,-4.809134891502911,-139.21699688470272L-3.4005718934225397,-98.44128255359976A98.5,98.5,0,0,0,-53.13320280671282,-82.94041692384192Z" fill-rule="evenodd" style="fill: #D7A449; stroke: #fff; opacity: 1;" id="p-type-value"></path><path d="M1.0446666101440332e-14,-170.6070045455344A170.6070045455344,170.6070045455344,0,1,1,-133.33448425889327,106.4362029922852L-108.86715051714805,86.90479583013027A139.30003589374985,139.30003589374985,0,1,0,8.529667153919608e-15,-139.30003589374985Z" fill-rule="evenodd" style="fill: #414552; stroke: #fff; opacity: 1;" id="p-type-ether"></path><path d="M-133.33448425889327,106.4362029922852A170.6070045455344,170.6070045455344,0,0,1,-170.37520535500818,8.890410577627497L-139.11077264722337,7.258989839676541A139.30003589374985,139.30003589374985,0,0,0,-108.86715051714805,86.90479583013027Z" fill-rule="evenodd" style="fill: #1DC690; stroke: #fff; opacity: 1;" id="p-type-logs"></path><path d="M-170.37520535500818,8.890410577627497A170.6070045455344,170.6070045455344,0,0,1,-157.35378635176696,-65.92826344415937L-128.47882855224958,-53.830201688658505A139.30003589374985,139.30003589374985,0,0,0,-139.11077264722337,7.258989839676541Z" fill-rule="evenodd" style="fill: #D7A449; stroke: #fff; opacity: 1;" id="p-type-tokenTransfers"></path><path d="M-92.02940683008788,-143.6570161130398A170.6070045455344,170.6070045455344,0,0,1,-49.35876275825548,-163.31093820982798L-40.30126103093838,-133.34282267642368A139.30003589374985,139.30003589374985,0,0,0,-75.14169602157347,-117.29546248257623Z" fill-rule="evenodd" style="fill: #414552; stroke: #fff; opacity: 1;" id="p-type-ether"></path><path d="M-49.35876275825548,-163.31093820982798A170.6070045455344,170.6070045455344,0,0,1,-11.772904383238991,-170.20031939565538L-9.612536176503676,-138.96797885935956A139.30003589374985,139.30003589374985,0,0,0,-40.30126103093838,-133.34282267642368Z" fill-rule="evenodd" style="fill: #D7A449; stroke: #fff; opacity: 1;" id="p-type-tokenTransfers"></path><path d="M1.206277097160143e-14,-197A197,197,0,1,1,-64.49820516820941,186.14236898159314L-55.85708417417012,161.20402025867617A170.6070045455344,170.6070045455344,0,1,0,1.0446666101440332e-14,-170.6070045455344Z" fill-rule="evenodd" style="fill: #414552; stroke: #fff; opacity: 1;" id="p-type-ether"></path><path d="M-64.49820516820941,186.14236898159314A197,197,0,0,1,-83.29481365646195,178.5244353525177L-72.13542462998704,154.60669621155307A170.6070045455344,170.6070045455344,0,0,0,-55.85708417417012,161.20402025867617Z" fill-rule="evenodd" style="fill: #414552; stroke: #fff; opacity: 1;" id="p-type-ether"></path><path d="M-83.29481365646195,178.5244353525177A197,197,0,0,1,-95.28079998137667,172.42554670033348L-82.51559327677606,149.3249037039089A170.6070045455344,170.6070045455344,0,0,0,-72.13542462998704,154.60669621155307Z" fill-rule="evenodd" style="fill: #414552; stroke: #fff; opacity: 1;" id="p-type-ether"></path><path d="M-95.28079998137667,172.42554670033348A197,197,0,0,1,-101.17674741844543,169.0333274293093L-87.62163353665537,146.38715563999483A170.6070045455344,170.6070045455344,0,0,0,-82.51559327677606,149.3249037039089Z" fill-rule="evenodd" style="fill: #414552; stroke: #fff; opacity: 1;" id="p-type-ether"></path><path d="M-101.17674741844543,169.0333274293093A197,197,0,0,1,-106.94966931219096,165.4411322314164L-92.62113055070236,143.27622334326708A170.6070045455344,170.6070045455344,0,0,0,-87.62163353665537,146.38715563999483Z" fill-rule="evenodd" style="fill: #414552; stroke: #fff; opacity: 1;" id="p-type-ether"></path><path d="M-106.94966931219096,165.4411322314164A197,197,0,0,1,-109.75889789581099,163.59090540949072L-95.0539938691547,141.6738799127161A170.6070045455344,170.6070045455344,0,0,0,-92.62113055070236,143.27622334326708Z" fill-rule="evenodd" style="fill: #414552; stroke: #fff; opacity: 1;" id="p-type-ether"></path><path d="M-109.75889789581099,163.59090540949072A197,197,0,0,1,-111.16700690649,162.63731606077494L-96.27345204370049,140.84804731194998A170.6070045455344,170.6070045455344,0,0,0,-95.0539938691547,141.6738799127161Z" fill-rule="evenodd" style="fill: #414552; stroke: #fff; opacity: 1;" id="p-type-ether"></path><path d="M-111.16700690649,162.63731606077494A197,197,0,0,1,-112.38430225646641,161.7985432762829L-97.32766074068871,140.1216487725769A170.6070045455344,170.6070045455344,0,0,0,-96.27345204370049,140.84804731194998Z" fill-rule="evenodd" style="fill: #414552; stroke: #fff; opacity: 1;" id="p-type-ether"></path><path d="M-112.38430225646641,161.7985432762829A197,197,0,0,1,-113.32063159067197,161.14414186029597L-98.1385457304193,139.5549205220597A170.6070045455344,170.6070045455344,0,0,0,-97.32766074068871,140.1216487725769Z" fill-rule="evenodd" style="fill: #414552; stroke: #fff; opacity: 1;" id="p-type-ether"></path><path d="M-153.9614007582639,122.90194089823504A197,197,0,0,1,-156.06027759845568,120.22557862573565L-135.15216492191416,104.11840527457049A170.6070045455344,170.6070045455344,0,0,0,-133.33448425889327,106.4362029922852Z" fill-rule="evenodd" style="fill: #1DC690; stroke: #fff; opacity: 1;" id="p-type-logs"></path><path d="M-156.06027759845568,120.22557862573565A197,197,0,0,1,-158.11263594170424,117.51337947470532L-136.92955938483635,101.76957190965564A170.6070045455344,170.6070045455344,0,0,0,-135.15216492191416,104.11840527457049Z" fill-rule="evenodd" style="fill: #1DC690; stroke: #fff; opacity: 1;" id="p-type-logs"></path><path d="M-158.11263594170424,117.51337947470532A197,197,0,0,1,-160.11786402038499,114.76615189832545L-138.66613784135575,99.3904030385335A170.6070045455344,170.6070045455344,0,0,0,-136.92955938483635,101.76957190965564Z" fill-rule="evenodd" style="fill: #1DC690; stroke: #fff; opacity: 1;" id="p-type-logs"></path><path d="M-160.11786402038499,114.76615189832545A197,197,0,0,1,-162.07536411547747,111.98471479106155L-140.36138265161628,96.98160784461427A170.6070045455344,170.6070045455344,0,0,0,-138.66613784135575,99.3904030385335Z" fill-rule="evenodd" style="fill: #1DC690; stroke: #fff; opacity: 1;" id="p-type-logs"></path><path d="M-162.07536411547747,111.98471479106155A197,197,0,0,1,-163.9845527347338,109.169897244567L-142.0147884965084,94.5439043423318A170.6070045455344,170.6070045455344,0,0,0,-140.36138265161628,96.98160784461427Z" fill-rule="evenodd" style="fill: #1DC690; stroke: #fff; opacity: 1;" id="p-type-logs"></path><path d="M-163.9845527347338,109.169897244567A197,197,0,0,1,-165.844860786606,106.32253830054695L-143.62586252829448,92.07801916311762A170.6070045455344,170.6070045455344,0,0,0,-142.0147884965084,94.5439043423318Z" fill-rule="evenodd" style="fill: #1DC690; stroke: #fff; opacity: 1;" id="p-type-logs"></path><path d="M-165.844860786606,106.32253830054695A197,197,0,0,1,-167.65573374988122,103.4434867006567L-145.1941245175172,89.58468733880643A170.6070045455344,170.6070045455344,0,0,0,-143.62586252829448,92.07801916311762Z" fill-rule="evenodd" style="fill: #1DC690; stroke: #fff; opacity: 1;" id="p-type-logs"></path><path d="M-167.65573374988122,103.4434867006567A197,197,0,0,1,-169.4166318389733,100.53360063350848L-146.71910699614642,87.06465208253768A170.6070045455344,170.6070045455344,0,0,0,-145.1941245175172,89.58468733880643Z" fill-rule="evenodd" style="fill: #1DC690; stroke: #fff; opacity: 1;" id="p-type-logs"></path><path d="M-169.4166318389733,100.53360063350848A197,197,0,0,1,-171.12703016482251,97.5937474788622L-148.20035539692225,84.51866456721817A170.6070045455344,170.6070045455344,0,0,0,-146.71910699614642,87.06465208253768Z" fill-rule="evenodd" style="fill: #1DC690; stroke: #fff; opacity: 1;" id="p-type-logs"></path><path d="M-171.12703016482251,97.5937474788622A197,197,0,0,1,-172.78641889135451,94.62480354907672L-149.63742818885245,81.94748370161234A170.6070045455344,170.6070045455344,0,0,0,-148.20035539692225,84.51866456721817Z" fill-rule="evenodd" style="fill: #1DC690; stroke: #fff; opacity: 1;" id="p-type-logs"></path><path d="M-172.78641889135451,94.62480354907672A197,197,0,0,1,-174.39430338745248,91.62765382789838L-151.02989700882443,79.35187590412646A170.6070045455344,170.6070045455344,0,0,0,-149.63742818885245,81.94748370161234Z" fill-rule="evenodd" style="fill: #1DC690; stroke: #fff; opacity: 1;" id="p-type-logs"></path><path d="M-174.39430338745248,91.62765382789838A197,197,0,0,1,-175.95020437439683,88.60319170666473L-152.37734678929152,76.73261487435434A170.6070045455344,170.6070045455344,0,0,0,-151.02989700882443,79.35187590412646Z" fill-rule="evenodd" style="fill: #1DC690; stroke: #fff; opacity: 1;" id="p-type-logs"></path><path d="M-175.95020437439683,88.60319170666473A197,197,0,0,1,-177.45365806872897,85.55231871800218L-153.6793758819967,74.09048136245283A170.6070045455344,170.6070045455344,0,0,0,-152.37734678929152,76.73261487435434Z" fill-rule="evenodd" style="fill: #1DC690; stroke: #fff; opacity: 1;" id="p-type-logs"></path><path d="M-177.45365806872897,85.55231871800218A197,197,0,0,1,-178.90421632049572,82.47594426709688L-154.93559617769586,71.42626293641543A170.6070045455344,170.6070045455344,0,0,0,-153.6793758819967,74.09048136245283Z" fill-rule="evenodd" style="fill: #1DC690; stroke: #fff; opacity: 1;" id="p-type-logs"></path><path d="M-178.90421632049572,82.47594426709688A197,197,0,0,1,-180.30144674683433,79.3749853606189L-156.14563322184566,68.74075374731387A170.6070045455344,170.6070045455344,0,0,0,-154.93559617769586,71.42626293641543Z" fill-rule="evenodd" style="fill: #1DC690; stroke: #fff; opacity: 1;" id="p-type-logs"></path><path d="M-180.30144674683433,79.3749853606189A197,197,0,0,1,-181.64493286085704,76.25036633338057L-157.30912632622096,66.03475429257726A170.6070045455344,170.6070045455344,0,0,0,-156.14563322184566,68.74075374731387Z" fill-rule="evenodd" style="fill: #1DC690; stroke: #fff; opacity: 1;" id="p-type-logs"></path><path d="M-181.64493286085704,76.25036633338057A197,197,0,0,1,-182.93427419579774,73.10301857281057L-158.42572867642895,63.30907117737959A170.6070045455344,170.6070045455344,0,0,0,-157.30912632622096,66.03475429257726Z" fill-rule="evenodd" style="fill: #1DC690; stroke: #fff; opacity: 1;" id="p-type-logs"></path><path d="M-182.93427419579774,73.10301857281057A197,197,0,0,1,-184.1690864243832,69.93388024132561L-159.49510743528762,60.56451687420658A170.6070045455344,170.6070045455344,0,0,0,-158.42572867642895,63.30907117737959Z" fill-rule="evenodd" style="fill: #1DC690; stroke: #fff; opacity: 1;" id="p-type-logs"></path><path d="M-196.7323413499035,10.265761880399065A197,197,0,0,1,-196.88025213265541,6.867774033996829L-170.50329985036498,5.947666780892387A170.6070045455344,170.6070045455344,0,0,0,-170.37520535500818,8.890410577627497Z" fill-rule="evenodd" style="fill: #D7A449; stroke: #fff; opacity: 1;" id="p-type-tokenTransfers"></path><path d="M-196.88025213265541,6.867774033996829A197,197,0,0,1,-196.96947678753443,3.467739039336731L-170.5805706681341,3.003150101760654A170.6070045455344,170.6070045455344,0,0,0,-170.50329985036498,5.947666780892387Z" fill-rule="evenodd" style="fill: #D7A449; stroke: #fff; opacity: 1;" id="p-type-tokenTransfers"></path><path d="M-196.96947678753443,3.467739039336731A197,197,0,0,1,-196.9999887184272,0.0666703799261667L-170.60699477540575,0.057738242696020445A170.6070045455344,170.6070045455344,0,0,0,-170.5805706681341,3.003150101760654Z" fill-rule="evenodd" style="fill: #D7A449; stroke: #fff; opacity: 1;" id="p-type-tokenTransfers"></path><path d="M-196.9999887184272,0.0666703799261667A197,197,0,0,1,-196.97177883032768,-3.334418152612349L-170.58256429567368,-2.887690827002271A170.6070045455344,170.6070045455344,0,0,0,-170.60699477540575,0.057738242696020445Z" fill-rule="evenodd" style="fill: #D7A449; stroke: #fff; opacity: 1;" id="p-type-tokenTransfers"></path><path d="M-196.97177883032768,-3.334418152612349A197,197,0,0,1,-196.8848555320483,-6.734512760732513L-170.507286511183,-5.832259132904829A170.6070045455344,170.6070045455344,0,0,0,-170.58256429567368,-2.887690827002271Z" fill-rule="evenodd" style="fill: #D7A449; stroke: #fff; opacity: 1;" id="p-type-tokenTransfers"></path><path d="M-196.8848555320483,-6.734512760732513A197,197,0,0,1,-196.73924473371326,-10.132599943157327L-170.38118386075953,-8.775088957159005A170.6070045455344,170.6070045455344,0,0,0,-170.507286511183,-5.832259132904829Z" fill-rule="evenodd" style="fill: #D7A449; stroke: #fff; opacity: 1;" id="p-type-tokenTransfers"></path><path d="M-196.73924473371326,-10.132599943157327A197,197,0,0,1,-196.53498983903546,-13.527666796983882L-170.20429393312125,-11.715303100119309A170.6070045455344,170.6070045455344,0,0,0,-170.38118386075953,-8.775088957159005Z" fill-rule="evenodd" style="fill: #D7A449; stroke: #fff; opacity: 1;" id="p-type-tokenTransfers"></path><path d="M-196.53498983903546,-13.527666796983882A197,197,0,0,1,-196.27215173237857,-16.91870131960977L-169.97666945567374,-14.652025141823366A170.6070045455344,170.6070045455344,0,0,0,-170.20429393312125,-11.715303100119309Z" fill-rule="evenodd" style="fill: #D7A449; stroke: #fff; opacity: 1;" id="p-type-tokenTransfers"></path><path d="M-196.27215173237857,-16.91870131960977A197,197,0,0,1,-195.95080876060857,-20.304692710391148L-169.69837827879334,-17.58437970323544A170.6070045455344,170.6070045455344,0,0,0,-169.97666945567374,-14.652025141823366Z" fill-rule="evenodd" style="fill: #D7A449; stroke: #fff; opacity: 1;" id="p-type-tokenTransfers"></path><path d="M-195.95080876060857,-20.304692710391148A197,197,0,0,1,-195.5710567097402,-23.684631671942505L-169.3695033556021,-20.51149270717971A170.6070045455344,170.6070045455344,0,0,0,-169.69837827879334,-17.58437970323544Z" fill-rule="evenodd" style="fill: #D7A449; stroke: #fff; opacity: 1;" id="p-type-tokenTransfers"></path><path d="M-195.5710567097402,-23.684631671942505A197,197,0,0,1,-195.13300877638503,-27.05751071098835L-168.99014271724124,-23.43249163888546A170.6070045455344,170.6070045455344,0,0,0,-169.3695033556021,-20.51149270717971Z" fill-rule="evenodd" style="fill: #D7A449; stroke: #fff; opacity: 1;" id="p-type-tokenTransfers"></path><path d="M-195.13300877638503,-27.05751071098835A197,197,0,0,1,-194.63679553400962,-30.422324438677133L-168.5604094436499,-26.34650580606656A170.6070045455344,170.6070045455344,0,0,0,-168.99014271724124,-23.43249163888546Z" fill-rule="evenodd" style="fill: #D7A449; stroke: #fff; opacity: 1;" id="p-type-tokenTransfers"></path><path d="M-194.63679553400962,-30.422324438677133A197,197,0,0,1,-194.08256489401438,-33.778069870267856L-168.0804316298583,-29.2526665984577A170.6070045455344,170.6070045455344,0,0,0,-168.5604094436499,-26.34650580606656Z" fill-rule="evenodd" style="fill: #D7A449; stroke: #fff; opacity: 1;" id="p-type-tokenTransfers"></path></g></svg>