<svg xmlns="http://www.w3.org/2000/svg" width="400" height="400" id="block-7908803"><g id="burst-container" transform="translate(200,200)"><circle r="197" style="fill: #f9f9f9; stroke: #f9f9f9; stroke-width: 3; opacity: 1;" id="circle-base"></circle><path display="none" d="M6.031385485800715e-15,-98.5A98.5,98.5,0,1,1,-6.031385485800715e-15,98.5A98.5,98.5,0,1,1,6.031385485800715e-15,-98.5Z" fill-rule="evenodd" id="p-type-root" style="stroke: #fff; opacity: 1;"></path><path d="M8.529667153919608e-15,-139.30003589374985A139.30003589374985,139.30003589374985,0,1,1,-118.56221763378456,-73.12660630549667L-83.83614808136433,-51.70831920377564A98.5,98.5,0,1,0,6.031385485800715e-15,-98.5Z" fill-rule="evenodd" style="fill: #0B1F65; stroke: #fff; opacity: 1;" id="p-type-data"></path><path d="M-118.56221763378456,-73.12660630549667A139.30003589374985,139.30003589374985,0,0,1,-4.36315384286175,-139.23168780325662L-3.0852156696476873,-98.45167060173108A98.5,98.5,0,0,0,-83.83614808136433,-51.70831920377564Z" fill-rule="evenodd" style="fill: #D7A449; stroke: #fff; opacity: 1;" id="p-type-value"></path><path d="M1.0446666101440332e-14,-170.6070045455344A170.6070045455344,170.6070045455344,0,0,1,160.19614243742075,58.6851424823149L130.79960257796503,47.916218188066566A139.30003589374985,139.30003589374985,0,0,0,8.529667153919608e-15,-139.30003589374985Z" fill-rule="evenodd" style="fill: #414552; stroke: #fff; opacity: 1;" id="p-type-ether"></path><path d="M160.19614243742075,58.6851424823149A170.6070045455344,170.6070045455344,0,0,1,4.983651157425077,170.53419956460667L4.06913413057408,139.24059087574784A139.30003589374985,139.30003589374985,0,0,0,130.79960257796503,47.916218188066566Z" fill-rule="evenodd" style="fill: #1DC690; stroke: #fff; opacity: 1;" id="p-type-logs"></path><path d="M4.983651157425077,170.53419956460667A170.6070045455344,170.6070045455344,0,0,1,-144.59773418018017,90.54416198716487L-118.06355556801329,73.92899868548629A139.30003589374985,139.30003589374985,0,0,0,4.06913413057408,139.24059087574784Z" fill-rule="evenodd" style="fill: #D7A449; stroke: #fff; opacity: 1;" id="p-type-tokenTransfers"></path><path d="M-145.20846798779107,-89.56143603492887A170.6070045455344,170.6070045455344,0,0,1,-81.97801402819178,-149.6207045030653L-66.93476816526375,-122.16479366275044A139.30003589374985,139.30003589374985,0,0,0,-118.56221763378456,-73.12660630549667Z" fill-rule="evenodd" style="fill: #414552; stroke: #fff; opacity: 1;" id="p-type-ether"></path><path d="M-81.97801402819178,-149.6207045030653A170.6070045455344,170.6070045455344,0,0,1,-10.682256721612529,-170.27225079658038L-8.722026089788848,-139.02671060227615A139.30003589374985,139.30003589374985,0,0,0,-66.93476816526375,-122.16479366275044Z" fill-rule="evenodd" style="fill: #D7A449; stroke: #fff; opacity: 1;" id="p-type-tokenTransfers"></path><path d="M1.206277097160143e-14,-197A197,197,0,0,1,61.57525252642515,-187.1296028860933L53.32573293232612,-162.05898989945058A170.6070045455344,170.6070045455344,0,0,0,1.0446666101440332e-14,-170.6070045455344Z" fill-rule="evenodd" style="fill: #414552; stroke: #fff; opacity: 1;" id="p-type-ether"></path><path d="M61.57525252642515,-187.1296028860933A197,197,0,0,1,98.41223488630015,-170.65764566723544L85.22749545473711,-147.79385649786923A170.6070045455344,170.6070045455344,0,0,0,53.32573293232612,-162.05898989945058Z" fill-rule="evenodd" style="fill: #414552; stroke: #fff; opacity: 1;" id="p-type-ether"></path><path d="M98.41223488630015,-170.65764566723544A197,197,0,0,1,127.23506564379643,-150.40025954305668L110.18879909970836,-130.25044550006004A170.6070045455344,170.6070045455344,0,0,0,85.22749545473711,-147.79385649786923Z" fill-rule="evenodd" style="fill: #414552; stroke: #fff; opacity: 1;" id="p-type-ether"></path><path d="M127.23506564379643,-150.40025954305668A197,197,0,0,1,149.13923159255634,-128.71087599725922L129.15836326004452,-111.46688835697523A170.6070045455344,170.6070045455344,0,0,0,110.18879909970836,-130.25044550006004Z" fill-rule="evenodd" style="fill: #414552; stroke: #fff; opacity: 1;" id="p-type-ether"></path><path d="M149.13923159255634,-128.71087599725922A197,197,0,0,1,165.3440668861122,-107.09967108054465L143.19216228840654,-92.75103589270925A170.6070045455344,170.6070045455344,0,0,0,129.15836326004452,-111.46688835697523Z" fill-rule="evenodd" style="fill: #414552; stroke: #fff; opacity: 1;" id="p-type-ether"></path><path d="M165.3440668861122,-107.09967108054465A197,197,0,0,1,176.5275677994917,-87.44722869705973L152.87735818263965,-75.7315215422013A170.6070045455344,170.6070045455344,0,0,0,143.19216228840654,-92.75103589270925Z" fill-rule="evenodd" style="fill: #414552; stroke: #fff; opacity: 1;" id="p-type-ether"></path><path d="M176.5275677994917,-87.44722869705973A197,197,0,0,1,183.61424996205636,-71.37791823016049L159.01460496396672,-61.81509045656738A170.6070045455344,170.6070045455344,0,0,0,152.87735818263965,-75.7315215422013Z" fill-rule="evenodd" style="fill: #414552; stroke: #fff; opacity: 1;" id="p-type-ether"></path><path d="M183.61424996205636,-71.37791823016049A197,197,0,0,1,188.35390151566114,-57.72181376073192L163.11926361447482,-49.98855706930803A170.6070045455344,170.6070045455344,0,0,0,159.01460496396672,-61.81509045656738Z" fill-rule="evenodd" style="fill: #414552; stroke: #fff; opacity: 1;" id="p-type-ether"></path><path d="M188.35390151566114,-57.72181376073192A197,197,0,0,1,191.86077854231164,-44.70393335197755L166.1563082075022,-38.714741931898985A170.6070045455344,170.6070045455344,0,0,0,163.11926361447482,-49.98855706930803Z" fill-rule="evenodd" style="fill: #414552; stroke: #fff; opacity: 1;" id="p-type-ether"></path><path d="M191.86077854231164,-44.70393335197755A197,197,0,0,1,193.28781452694574,-38.063378139584856L167.39215762230987,-32.96385242273375A170.6070045455344,170.6070045455344,0,0,0,166.1563082075022,-38.714741931898985Z" fill-rule="evenodd" style="fill: #414552; stroke: #fff; opacity: 1;" id="p-type-ether"></path><path d="M193.28781452694574,-38.063378139584856A197,197,0,0,1,193.57998759847493,-36.548439109957755L167.64518692455587,-31.651876737892135A170.6070045455344,170.6070045455344,0,0,0,167.39215762230987,-32.96385242273375Z" fill-rule="evenodd" style="fill: #414552; stroke: #fff; opacity: 1;" id="p-type-ether"></path><path d="M193.57998759847493,-36.548439109957755A197,197,0,0,1,193.8355468777762,-35.167893974382636L167.86650775260364,-30.456289579413045A170.6070045455344,170.6070045455344,0,0,0,167.64518692455587,-31.651876737892135Z" fill-rule="evenodd" style="fill: #414552; stroke: #fff; opacity: 1;" id="p-type-ether"></path><path d="M193.8355468777762,-35.167893974382636A197,197,0,0,1,194.04902642098173,-33.970212614423566L168.0513864602079,-29.419067096049396A170.6070045455344,170.6070045455344,0,0,0,167.86650775260364,-30.456289579413045Z" fill-rule="evenodd" style="fill: #414552; stroke: #fff; opacity: 1;" id="p-type-ether"></path><path d="M184.978571918769,67.76376561919211A197,197,0,0,1,183.894502341622,70.6527565529271L159.25731064414157,61.18708202223234A170.6070045455344,170.6070045455344,0,0,0,160.19614243742075,58.6851424823149Z" fill-rule="evenodd" style="fill: #1DC690; stroke: #fff; opacity: 1;" id="p-type-logs"></path><path d="M183.894502341622,70.6527565529271A197,197,0,0,1,182.76531572997573,73.52441340209582L158.27940635284264,63.67400980456402A170.6070045455344,170.6070045455344,0,0,0,159.25731064414157,61.18708202223234Z" fill-rule="evenodd" style="fill: #1DC690; stroke: #fff; opacity: 1;" id="p-type-logs"></path><path d="M182.76531572997573,73.52441340209582A197,197,0,0,1,181.59128912066745,76.37803162882743L157.26266948446278,66.1453156816159A170.6070045455344,170.6070045455344,0,0,0,158.27940635284264,63.67400980456402Z" fill-rule="evenodd" style="fill: #1DC690; stroke: #fff; opacity: 1;" id="p-type-logs"></path><path d="M181.59128912066745,76.37803162882743A197,197,0,0,1,180.37271055166656,79.21291112088178L156.2073494872007,68.6003933384025A170.6070045455344,170.6070045455344,0,0,0,157.26266948446278,66.1453156816159Z" fill-rule="evenodd" style="fill: #1DC690; stroke: #fff; opacity: 1;" id="p-type-logs"></path><path d="M180.37271055166656,79.21291112088178A197,197,0,0,1,179.10987899140673,82.0283563634164L155.11370527531497,71.03864044140151A170.6070045455344,170.6070045455344,0,0,0,156.2073494872007,68.6003933384025Z" fill-rule="evenodd" style="fill: #1DC690; stroke: #fff; opacity: 1;" id="p-type-logs"></path><path d="M179.10987899140673,82.0283563634164A197,197,0,0,1,177.80310426543662,84.82367660962518L153.98200516560138,73.45945878633128A170.6070045455344,170.6070045455344,0,0,0,155.11370527531497,71.03864044140151Z" fill-rule="evenodd" style="fill: #1DC690; stroke: #fff; opacity: 1;" id="p-type-logs"></path><path d="M177.80310426543662,84.82367660962518A197,197,0,0,1,176.45270698040645,87.5981860502078L152.8125268115637,75.86225444491559A170.6070045455344,170.6070045455344,0,0,0,153.98200516560138,73.45945878633128Z" fill-rule="evenodd" style="fill: #1DC690; stroke: #fff; opacity: 1;" id="p-type-logs"></path><path d="M176.45270698040645,87.5981860502078A197,197,0,0,1,175.05901844540986,90.35120398162745L151.60555713529357,78.24643791059908A170.6070045455344,170.6070045455344,0,0,0,152.8125268115637,75.86225444491559Z" fill-rule="evenodd" style="fill: #1DC690; stroke: #fff; opacity: 1;" id="p-type-logs"></path><path d="M175.05901844540986,90.35120398162745A197,197,0,0,1,173.62238059069986,93.08205497311586L150.36139225707632,80.61142424317798A170.6070045455344,170.6070045455344,0,0,0,151.60555713529357,78.24643791059908Z" fill-rule="evenodd" style="fill: #1DC690; stroke: #fff; opacity: 1;" id="p-type-logs"></path><path d="M173.62238059069986,93.08205497311586A197,197,0,0,1,172.14314588379906,95.79006903238495L149.08033742274063,82.95663321231042A170.6070045455344,170.6070045455344,0,0,0,150.36139225707632,80.61142424317798Z" fill-rule="evenodd" style="fill: #1DC690; stroke: #fff; opacity: 1;" id="p-type-logs"></path><path d="M172.14314588379906,95.79006903238495A197,197,0,0,1,170.62167724302446,98.47458177000392L147.7627069287684,85.28148943987136A170.6070045455344,170.6070045455344,0,0,0,149.08033742274063,82.95663321231042Z" fill-rule="evenodd" style="fill: #1DC690; stroke: #fff; opacity: 1;" id="p-type-logs"></path><path d="M170.62167724302446,98.47458177000392A197,197,0,0,1,169.05834794844853,101.1349345624019L146.40882404518524,87.58542254111688A170.6070045455344,170.6070045455344,0,0,0,147.7627069287684,85.28148943987136Z" fill-rule="evenodd" style="fill: #1DC690; stroke: #fff; opacity: 1;" id="p-type-logs"></path><path d="M169.05834794844853,101.1349345624019A197,197,0,0,1,167.4535415503178,103.77047471345587L145.01902093624824,89.8678672646235A170.6070045455344,170.6070045455344,0,0,0,146.40882404518524,87.58542254111688Z" fill-rule="evenodd" style="fill: #1DC690; stroke: #fff; opacity: 1;" id="p-type-logs"></path><path d="M167.4535415503178,103.77047471345587A197,197,0,0,1,165.8076517749521,106.38055561462456L143.59363857895246,92.12826363096816A170.6070045455344,170.6070045455344,0,0,0,145.01902093624824,89.8678672646235Z" fill-rule="evenodd" style="fill: #1DC690; stroke: #fff; opacity: 1;" id="p-type-logs"></path><path d="M165.8076517749521,106.38055561462456A197,197,0,0,1,164.12108242814668,108.96453690358842L142.13302667937486,94.36605707011454A170.6070045455344,170.6070045455344,0,0,0,143.59363857895246,92.12826363096816Z" fill-rule="evenodd" style="fill: #1DC690; stroke: #fff; opacity: 1;" id="p-type-logs"></path><path d="M164.12108242814668,108.96453690358842A197,197,0,0,1,162.394247296102,111.52178462135755L140.63754358687672,96.58069855747237A170.6070045455344,170.6070045455344,0,0,0,142.13302667937486,94.36605707011454Z" fill-rule="evenodd" style="fill: #1DC690; stroke: #fff; opacity: 1;" id="p-type-logs"></path><path d="M162.394247296102,111.52178462135755A197,197,0,0,1,160.62757004390457,114.05167136780827L139.10755620618565,98.77164474859624A170.6070045455344,170.6070045455344,0,0,0,140.63754358687672,96.58069855747237Z" fill-rule="evenodd" style="fill: #1DC690; stroke: #fff; opacity: 1;" id="p-type-logs"></path><path d="M160.62757004390457,114.05167136780827A197,197,0,0,1,158.82148411158386,116.55357645561081L137.5434399073782,100.93835811249079A170.6070045455344,170.6070045455344,0,0,0,139.10755620618565,98.77164474859624Z" fill-rule="evenodd" style="fill: #1DC690; stroke: #fff; opacity: 1;" id="p-type-logs"></path><path d="M158.82148411158386,116.55357645561081A197,197,0,0,1,156.97643260777167,119.02688606250992L135.94557843378618,103.08030706348953A170.6070045455344,170.6070045455344,0,0,0,137.5434399073782,100.93835811249079Z" fill-rule="evenodd" style="fill: #1DC690; stroke: #fff; opacity: 1;" id="p-type-logs"></path><path d="M156.97643260777167,119.02688606250992A197,197,0,0,1,155.09286820098876,121.47099338192115L134.314363807848,105.19696609167514A170.6070045455344,170.6070045455344,0,0,0,135.94557843378618,103.08030706348953Z" fill-rule="evenodd" style="fill: #1DC690; stroke: #fff; opacity: 1;" id="p-type-logs"></path><path d="M155.09286820098876,121.47099338192115A197,197,0,0,1,153.17125300858632,123.885298771806L132.65019623492938,107.28781589180912A170.6070045455344,170.6070045455344,0,0,0,134.314363807848,105.19696609167514Z" fill-rule="evenodd" style="fill: #1DC690; stroke: #fff; opacity: 1;" id="p-type-logs"></path><path d="M153.17125300858632,123.885298771806A197,197,0,0,1,151.2120584833692,126.26920990178931L130.95348400513595,109.35234349073913A170.6070045455344,170.6070045455344,0,0,0,132.65019623492938,107.28781589180912Z" fill-rule="evenodd" style="fill: #1DC690; stroke: #fff; opacity: 1;" id="p-type-logs"></path><path d="M151.2120584833692,126.26920990178931A197,197,0,0,1,149.21576529792887,128.62214189848268L129.22464339314286,111.39004237325281A170.6070045455344,170.6070045455344,0,0,0,130.95348400513595,109.35234349073913Z" fill-rule="evenodd" style="fill: #1DC690; stroke: #fff; opacity: 1;" id="p-type-logs"></path><path d="M149.21576529792887,128.62214189848268A197,197,0,0,1,147.182863226714,130.94351748897842L127.4640985560648,113.40041260634723A170.6070045455344,170.6070045455344,0,0,0,129.22464339314286,111.39004237325281Z" fill-rule="evenodd" style="fill: #1DC690; stroke: #fff; opacity: 1;" id="p-type-logs"></path><path d="M147.182863226714,130.94351748897842A197,197,0,0,1,145.11385102586866,133.23276714247888L125.67228142939277,115.38296096188336A170.6070045455344,170.6070045455344,0,0,0,127.4640985560648,113.40041260634723Z" fill-rule="evenodd" style="fill: #1DC690; stroke: #fff; opacity: 1;" id="p-type-logs"></path><path d="M145.11385102586866,133.23276714247888A197,197,0,0,1,143.00923631086607,135.48932921002623L123.84963162102198,117.33720103759569A170.6070045455344,170.6070045455344,0,0,0,125.67228142939277,115.38296096188336Z" fill-rule="evenodd" style="fill: #1DC690; stroke: #fff; opacity: 1;" id="p-type-logs"></path><path d="M143.00923631086607,135.48932921002623A197,197,0,0,1,140.86953543196955,137.71265006229845L121.99659630339772,119.26265337642712A170.6070045455344,170.6070045455344,0,0,0,123.84963162102198,117.33720103759569Z" fill-rule="evenodd" style="fill: #1DC690; stroke: #fff; opacity: 1;" id="p-type-logs"></path><path d="M140.86953543196955,137.71265006229845A197,197,0,0,1,138.69527334755008,139.9021842254379L120.11363010380514,121.15884558415978A170.6070045455344,170.6070045455344,0,0,0,121.99659630339772,119.26265337642712Z" fill-rule="evenodd" style="fill: #1DC690; stroke: #fff; opacity: 1;" id="p-type-logs"></path><path d="M138.69527334755008,139.9021842254379A197,197,0,0,1,136.48698349529184,142.05739451487887L118.20119499283011,123.02531244531326A170.6070045455344,170.6070045455344,0,0,0,120.11363010380514,121.15884558415978Z" fill-rule="evenodd" style="fill: #1DC690; stroke: #fff; opacity: 1;" id="p-type-logs"></path><path d="M136.48698349529184,142.05739451487887A197,197,0,0,1,134.24520766131772,144.1777521671415L116.2597601710185,124.86159603728146A170.6070045455344,170.6070045455344,0,0,0,118.20119499283011,123.02531244531326Z" fill-rule="evenodd" style="fill: #1DC690; stroke: #fff; opacity: 1;" id="p-type-logs"></path><path d="M134.24520766131772,144.1777521671415A197,197,0,0,1,131.9704958472665,146.2627369695597L114.28980195376155,126.66724584268009A170.6070045455344,170.6070045455344,0,0,0,116.2597601710185,124.86159603728146Z" fill-rule="evenodd" style="fill: #1DC690; stroke: #fff; opacity: 1;" id="p-type-logs"></path><path d="M131.9704958472665,146.2627369695597A197,197,0,0,1,129.66340613535428,148.31183738791105L112.29180365443585,128.44181885987769A170.6070045455344,170.6070045455344,0,0,0,114.28980195376155,126.66724584268009Z" fill-rule="evenodd" style="fill: #1DC690; stroke: #fff; opacity: 1;" id="p-type-logs"></path><path d="M129.66340613535428,148.31183738791105A197,197,0,0,1,127.32450455145342,150.32455069191764L110.26625546582603,130.18487971168227A170.6070045455344,170.6070045455344,0,0,0,112.29180365443585,128.44181885987769Z" fill-rule="evenodd" style="fill: #1DC690; stroke: #fff; opacity: 1;" id="p-type-logs"></path><path d="M127.32450455145342,150.32455069191764A197,197,0,0,1,124.95436492622291,152.3003830785869L108.21365433986028,131.8960007521579A170.6070045455344,170.6070045455344,0,0,0,110.26625546582603,130.18487971168227Z" fill-rule="evenodd" style="fill: #1DC690; stroke: #fff; opacity: 1;" id="p-type-logs"></path><path d="M124.95436492622291,152.3003830785869A197,197,0,0,1,122.55356875432338,154.23884979336216L106.13450386568687,133.57476217154385A170.6070045455344,170.6070045455344,0,0,0,108.21365433986028,131.8960007521579Z" fill-rule="evenodd" style="fill: #1DC690; stroke: #fff; opacity: 1;" id="p-type-logs"></path><path d="M122.55356875432338,154.23884979336216A197,197,0,0,1,120.12270505175226,156.1394752490533L104.02931414612279,135.22075209925174A170.6070045455344,170.6070045455344,0,0,0,106.13450386568687,133.57476217154385Z" fill-rule="evenodd" style="fill: #1DC690; stroke: #fff; opacity: 1;" id="p-type-logs"></path><path d="M120.12270505175226,156.1394752490533A197,197,0,0,1,117.66237021133334,158.00179314251827L101.89860167250406,136.83356670491474A170.6070045455344,170.6070045455344,0,0,0,104.02931414612279,135.22075209925174Z" fill-rule="evenodd" style="fill: #1DC690; stroke: #fff; opacity: 1;" id="p-type-logs"></path><path d="M117.66237021133334,158.00179314251827A197,197,0,0,1,115.17316785639663,159.8253465690667L99.74288919796882,138.41281029746384A170.6070045455344,170.6070045455344,0,0,0,101.89860167250406,136.83356670491474Z" fill-rule="evenodd" style="fill: #1DC690; stroke: #fff; opacity: 1;" id="p-type-logs"></path><path d="M5.754624674573116,196.91593204932605A197,197,0,0,1,-29.41079964816698,194.79220945421656L-25.470499640927034,168.69500184665085A170.6070045455344,170.6070045455344,0,0,0,4.983651157425077,170.53419956460667Z" fill-rule="evenodd" style="fill: #D7A449; stroke: #fff; opacity: 1;" id="p-type-tokenTransfers"></path><path d="M-29.41079964816698,194.79220945421656A197,197,0,0,1,-32.4582055444424,194.30765526050362L-28.10963056274403,168.27536560538516A170.6070045455344,170.6070045455344,0,0,0,-25.470499640927034,168.69500184665085Z" fill-rule="evenodd" style="fill: #D7A449; stroke: #fff; opacity: 1;" id="p-type-tokenTransfers"></path><path d="M-32.4582055444424,194.30765526050362A197,197,0,0,1,-35.49764808150542,193.77542924912228L-30.74186501318363,167.81444435897404A170.6070045455344,170.6070045455344,0,0,0,-28.10963056274403,168.27536560538516Z" fill-rule="evenodd" style="fill: #D7A449; stroke: #fff; opacity: 1;" id="p-type-tokenTransfers"></path><path d="M-35.49764808150542,193.77542924912228A197,197,0,0,1,-38.528381556618555,193.19566199743622L-33.3665571947315,167.31235119073162A170.6070045455344,170.6070045455344,0,0,0,-30.74186501318363,167.81444435897404Z" fill-rule="evenodd" style="fill: #D7A449; stroke: #fff; opacity: 1;" id="p-type-tokenTransfers"></path><path d="M-38.528381556618555,193.19566199743622A197,197,0,0,1,-41.549662403742516,192.56849574666938L-35.98306316030822,166.7692092851713A170.6070045455344,170.6070045455344,0,0,0,-33.3665571947315,167.31235119073162Z" fill-rule="evenodd" style="fill: #D7A449; stroke: #fff; opacity: 1;" id="p-type-tokenTransfers"></path><path d="M-41.549662403742516,192.56849574666938A197,197,0,0,1,-44.56074937596412,191.89408436700833L-38.5907409712565,166.18515189778353A170.6070045455344,170.6070045455344,0,0,0,-35.98306316030822,166.7692092851713Z" fill-rule="evenodd" style="fill: #D7A449; stroke: #fff; opacity: 1;" id="p-type-tokenTransfers"></path><path d="M-44.56074937596412,191.89408436700833A197,197,0,0,1,-47.56090372735526,191.17259331985127L-41.18895085483565,165.56032232234247A170.6070045455344,170.6070045455344,0,0,0,-38.5907409712565,166.18515189778353Z" fill-rule="evenodd" style="fill: #D7A449; stroke: #fff; opacity: 1;" id="p-type-tokenTransfers"></path><path d="M-47.56090372735526,191.17259331985127A197,197,0,0,1,-50.549389394218274,190.40419961721352L-43.7770553611847,164.8948738557502A170.6070045455344,170.6070045455344,0,0,0,-41.18895085483565,165.56032232234247Z" fill-rule="evenodd" style="fill: #D7A449; stroke: #fff; opacity: 1;" id="p-type-tokenTransfers"></path><path d="M-50.549389394218274,190.40419961721352A197,197,0,0,1,-53.52547317567321,189.589091778299L-46.35441951971553,164.1889697604264A170.6070045455344,170.6070045455344,0,0,0,-43.7770553611847,164.8948738557502Z" fill-rule="evenodd" style="fill: #D7A449; stroke: #fff; opacity: 1;" id="p-type-tokenTransfers"></path><path d="M-53.52547317567321,189.589091778299A197,197,0,0,1,-56.4884249135428,188.72746978324867L-48.92041099489785,163.44278322425336A170.6070045455344,170.6070045455344,0,0,0,-46.35441951971553,164.1889697604264Z" fill-rule="evenodd" style="fill: #D7A449; stroke: #fff; opacity: 1;" id="p-type-tokenTransfers"></path><path d="M-56.4884249135428,188.72746978324867A197,197,0,0,1,-59.437517671490866,187.8195450240768L-51.47440024139758,162.65649731808566A170.6070045455344,170.6070045455344,0,0,0,-48.92041099489785,163.44278322425336Z" fill-rule="evenodd" style="fill: #D7A449; stroke: #fff; opacity: 1;" id="p-type-tokenTransfers"></path><path d="M-59.437517671490866,187.8195450240768A197,197,0,0,1,-62.37202791337027,186.86554025280788L-54.015760658530766,161.83030495083523A170.6070045455344,170.6070045455344,0,0,0,-51.47440024139758,162.65649731808566Z" fill-rule="evenodd" style="fill: #D7A449; stroke: #fff; opacity: 1;" id="p-type-tokenTransfers"></path><path d="M-62.37202791337027,186.86554025280788A197,197,0,0,1,-65.29123568073672,185.86568952682606L-56.543868743994956,160.96440882214264A170.6070045455344,170.6070045455344,0,0,0,-54.015760658530766,161.83030495083523Z" fill-rule="evenodd" style="fill: #D7A449; stroke: #fff; opacity: 1;" id="p-type-tokenTransfers"></path><path d="M-65.29123568073672,185.86568952682606A197,197,0,0,1,-68.19442476948473,184.82023815145106L-59.05810424684053,160.05902137264653A170.6070045455344,170.6070045455344,0,0,0,-56.543868743994956,160.96440882214264Z" fill-rule="evenodd" style="fill: #D7A449; stroke: #fff; opacity: 1;" id="p-type-tokenTransfers"></path><path d="M-68.19442476948473,184.82023815145106A197,197,0,0,1,-71.08088290556258,183.72944261975462L-61.55785031964423,159.11436473186282A170.6070045455344,170.6070045455344,0,0,0,-59.05810424684053,160.05902137264653Z" fill-rule="evenodd" style="fill: #D7A449; stroke: #fff; opacity: 1;" id="p-type-tokenTransfers"></path><path d="M-71.08088290556258,183.72944261975462A197,197,0,0,1,-73.94990191972298,182.59357054963178L-64.04249366984773,158.13067066368723A170.6070045455344,170.6070045455344,0,0,0,-61.55785031964423,159.11436473186282Z" fill-rule="evenodd" style="fill: #D7A449; stroke: #fff; opacity: 1;" id="p-type-tokenTransfers"></path><path d="M-73.94990191972298,182.59357054963178A197,197,0,0,1,-76.80077792126664,181.41290061814314L-66.51142471022393,157.10818050953367A170.6070045455344,170.6070045455344,0,0,0,-64.04249366984773,158.13067066368723Z" fill-rule="evenodd" style="fill: #D7A449; stroke: #fff; opacity: 1;" id="p-type-tokenTransfers"></path><path d="M-76.80077792126664,181.41290061814314A197,197,0,0,1,-79.63281147073633,180.1877224931437L-68.9640377084345,156.04714512912315A170.6070045455344,170.6070045455344,0,0,0,-66.51142471022393,157.10818050953367Z" fill-rule="evenodd" style="fill: #D7A449; stroke: #fff; opacity: 1;" id="p-type-tokenTransfers"></path><path d="M-79.63281147073633,180.1877224931437A197,197,0,0,1,-82.44530775151854,178.91833676221506L-71.39973093564114,154.94782483893746A170.6070045455344,170.6070045455344,0,0,0,-68.9640377084345,156.04714512912315Z" fill-rule="evenodd" style="fill: #D7A449; stroke: #fff; opacity: 1;" id="p-type-tokenTransfers"></path><path d="M-82.44530775151854,178.91833676221506A197,197,0,0,1,-85.23757674031124,177.6050548589188L-73.81790681413513,153.81048934835252A170.6070045455344,170.6070045455344,0,0,0,-71.39973093564114,154.94782483893746Z" fill-rule="evenodd" style="fill: #D7A449; stroke: #fff; opacity: 1;" id="p-type-tokenTransfers"></path><path d="M-85.23757674031124,177.6050548589188A197,197,0,0,1,-88.00893337641557,176.24819898638864L-76.21797206394804,152.6354176934673A170.6070045455344,170.6070045455344,0,0,0,-73.81790681413513,153.81048934835252Z" fill-rule="evenodd" style="fill: #D7A449; stroke: #fff; opacity: 1;" id="p-type-tokenTransfers"></path><path d="M-88.00893337641557,176.24819898638864A197,197,0,0,1,-90.75869772980982,174.84810203828067L-78.59933784840837,151.42289816864474A170.6070045455344,170.6070045455344,0,0,0,-76.21797206394804,152.6354176934673Z" fill-rule="evenodd" style="fill: #D7A449; stroke: #fff; opacity: 1;" id="p-type-tokenTransfers"></path><path d="M-90.75869772980982,174.84810203828067A197,197,0,0,1,-93.48619516796496,173.40510751710045L-80.96141991860769,150.1732282557809A170.6070045455344,170.6070045455344,0,0,0,-78.59933784840837,151.42289816864474Z" fill-rule="evenodd" style="fill: #D7A449; stroke: #fff; opacity: 1;" id="p-type-tokenTransfers"></path><path d="M-93.48619516796496,173.40510751710045A197,197,0,0,1,-96.19075652136014,171.9195694499274L-83.30363875674155,148.8867145513202A170.6070045455344,170.6070045455344,0,0,0,-80.96141991860769,150.1732282557809Z" fill-rule="evenodd" style="fill: #D7A449; stroke: #fff; opacity: 1;" id="p-type-tokenTransfers"></path><path d="M-96.19075652136014,171.9195694499274A197,197,0,0,1,-98.87171824765814,170.39185230155726L-85.6254197182894,147.56367269103455A170.6070045455344,170.6070045455344,0,0,0,-83.30363875674155,148.8867145513202Z" fill-rule="evenodd" style="fill: #D7A449; stroke: #fff; opacity: 1;" id="p-type-tokenTransfers"></path><path d="M-98.87171824765814,170.39185230155726A197,197,0,0,1,-101.52842259450013,168.82233088508346L-87.92619317299909,146.2044272725845A170.6070045455344,170.6070045455344,0,0,0,-85.6254197182894,147.56367269103455Z" fill-rule="evenodd" style="fill: #D7A449; stroke: #fff; opacity: 1;" id="p-type-tokenTransfers"></path><path d="M-101.52842259450013,168.82233088508346A197,197,0,0,1,-104.16021776087979,167.21139026993973L-90.20539464464098,144.80931177588192A170.6070045455344,170.6070045455344,0,0,0,-87.92619317299909,146.2044272725845Z" fill-rule="evenodd" style="fill: #D7A449; stroke: #fff; opacity: 1;" id="p-type-tokenTransfers"></path><path d="M-104.16021776087979,167.21139026993973A197,197,0,0,1,-106.76645805705766,165.55942568742665L-92.4624649494977,143.37866848127342A170.6070045455344,170.6070045455344,0,0,0,-90.20539464464098,144.80931177588192Z" fill-rule="evenodd" style="fill: #D7A449; stroke: #fff; opacity: 1;" id="p-type-tokenTransfers"></path></g></svg>