<svg xmlns="http://www.w3.org/2000/svg" width="400" height="400" id="block-7908804"><g id="burst-container" transform="translate(200,200)"><circle r="197" style="fill: #f9f9f9; stroke: #f9f9f9; stroke-width: 3; opacity: 1;" id="circle-base"></circle><path display="none" d="M6.031385485800715e-15,-98.5A98.5,98.5,0,1,1,-6.031385485800715e-15,98.5A98.5,98.5,0,1,1,6.031385485800715e-15,-98.5Z" fill-rule="evenodd" id="p-type-root" style="stroke: #fff; opacity: 1;"></path><path d="M8.529667153919608e-15,-139.30003589374985A139.30003589374985,139.30003589374985,0,1,1,-98.90217582548695,-98.09617534330509L-69.93439920030606,-69.36447079371564A98.5,98.5,0,1,0,6.031385485800715e-15,-98.5Z" fill-rule="evenodd" style="fill: #0B1F65; stroke: #fff; opacity: 1;" id="p-type-data"></path><path d="M-98.90217582548695,-98.09617534330509A139.30003589374985,139.30003589374985,0,0,1,-6.2822069422418645,-139.1583050914851L-4.442191129676428,-98.39978118861558A98.5,98.5,0,0,0,-69.93439920030606,-69.36447079371564Z" fill-rule="evenodd" style="fill: #D7A449; stroke: #fff; opacity: 1;" id="p-type-value"></path><path d="M1.0446666101440332e-14,-170.6070045455344A170.6070045455344,170.6070045455344,0,0,1,170.5867280292373,-2.6302509916398584L139.28348018752013,-2.147590941655705A139.30003589374985,139.30003589374985,0,0,0,8.529667153919608e-15,-139.30003589374985Z" fill-rule="evenodd" style="fill: #DB3F29; stroke: #fff; opacity: 1;" id="p-type-functions"></path><path d="M170.5867280292373,-2.6302509916398584A170.6070045455344,170.6070045455344,0,0,1,75.49164012774735,152.9959550799389L61.638666052932024,124.92067421854206A139.30003589374985,139.30003589374985,0,0,0,139.28348018752013,-2.147590941655705Z" fill-rule="evenodd" style="fill: #1DC690; stroke: #fff; opacity: 1;" id="p-type-logs"></path><path d="M75.49164012774735,152.9959550799389A170.6070045455344,170.6070045455344,0,0,1,-101.58208639843103,137.06870438922843L-82.9414262278238,111.9161284859982A139.30003589374985,139.30003589374985,0,0,0,61.638666052932024,124.92067421854206Z" fill-rule="evenodd" style="fill: #414552; stroke: #fff; opacity: 1;" id="p-type-ether"></path><path d="M-101.58208639843103,137.06870438922843A170.6070045455344,170.6070045455344,0,0,1,-170.1164270809272,12.928698202819053L-138.89948107121788,10.556237878448192A139.30003589374985,139.30003589374985,0,0,0,-82.9414262278238,111.9161284859982Z" fill-rule="evenodd" style="fill: #D7A449; stroke: #fff; opacity: 1;" id="p-type-tokenTransfers"></path><path d="M-121.12993261173436,-120.14278765484298A170.6070045455344,170.6070045455344,0,0,1,-60.24564841783271,-159.61582580281598L-49.19036594893427,-130.32577602995474A139.30003589374985,139.30003589374985,0,0,0,-98.90217582548695,-98.09617534330509Z" fill-rule="evenodd" style="fill: #D7A449; stroke: #fff; opacity: 1;" id="p-type-tokenTransfers"></path><path d="M-60.24564841783271,-159.61582580281598A170.6070045455344,170.6070045455344,0,0,1,-15.372544743607127,-169.91302147894902L-12.551630223313705,-138.73340109266115A139.30003589374985,139.30003589374985,0,0,0,-49.19036594893427,-130.32577602995474Z" fill-rule="evenodd" style="fill: #414552; stroke: #fff; opacity: 1;" id="p-type-ether"></path><path d="M1.206277097160143e-14,-197A197,197,0,0,1,21.023021465609858,-195.8750432506819L18.2064706535237,-169.63276342246618A170.6070045455344,170.6070045455344,0,0,0,1.0446666101440332e-14,-170.6070045455344Z" fill-rule="evenodd" style="fill: #DB3F29; stroke: #fff; opacity: 1;" id="p-type-functions"></path><path d="M21.023021465609858,-195.8750432506819A197,197,0,0,1,40.56312911328349,-192.77871396121276L35.12870026909165,-166.9512635993041A170.6070045455344,170.6070045455344,0,0,0,18.2064706535237,-169.63276342246618Z" fill-rule="evenodd" style="fill: #DB3F29; stroke: #fff; opacity: 1;" id="p-type-functions"></path><path d="M40.56312911328349,-192.77871396121276A197,197,0,0,1,44.90092073379857,-191.81477345933794L38.88533800878098,-166.11646663694376A170.6070045455344,170.6070045455344,0,0,0,35.12870026909165,-166.9512635993041Z" fill-rule="evenodd" style="fill: #DB3F29; stroke: #fff; opacity: 1;" id="p-type-functions"></path><path d="M44.90092073379857,-191.81477345933794A197,197,0,0,1,49.215867230676054,-190.75323958646803L42.62219129104755,-165.19715133606073A170.6070045455344,170.6070045455344,0,0,0,38.88533800878098,-166.11646663694376Z" fill-rule="evenodd" style="fill: #DB3F29; stroke: #fff; opacity: 1;" id="p-type-functions"></path><path d="M49.215867230676054,-190.75323958646803A197,197,0,0,1,53.505773203808374,-189.59465244004807L46.337358843626745,-164.19378543476293A170.6070045455344,170.6070045455344,0,0,0,42.62219129104755,-165.19715133606073Z" fill-rule="evenodd" style="fill: #DB3F29; stroke: #fff; opacity: 1;" id="p-type-functions"></path><path d="M53.505773203808374,-189.59465244004807A197,197,0,0,1,57.7684559934471,-188.33960149722407L50.028950427728596,-163.10687943523374A170.6070045455344,170.6070045455344,0,0,0,46.337358843626745,-164.19378543476293Z" fill-rule="evenodd" style="fill: #DB3F29; stroke: #fff; opacity: 1;" id="p-type-functions"></path><path d="M57.7684559934471,-188.33960149722407A197,197,0,0,1,62.00174679071783,-186.98872531492296L53.69508779977193,-161.93698634399362A170.6070045455344,170.6070045455344,0,0,0,50.028950427728596,-163.10687943523374Z" fill-rule="evenodd" style="fill: #DB3F29; stroke: #fff; opacity: 1;" id="p-type-functions"></path><path d="M62.00174679071783,-186.98872531492296A197,197,0,0,1,66.20349174108765,-185.54271120496148L57.33390566701518,-160.68470139053625A170.6070045455344,170.6070045455344,0,0,0,53.69508779977193,-161.93698634399362Z" fill-rule="evenodd" style="fill: #DB3F29; stroke: #fff; opacity: 1;" id="p-type-functions"></path><path d="M66.20349174108765,-185.54271120496148A197,197,0,0,1,70.3715530402238,-184.0022948843491L60.94355263659786,-159.3506617244818A170.6070045455344,170.6070045455344,0,0,0,57.33390566701518,-160.68470139053625Z" fill-rule="evenodd" style="fill: #DB3F29; stroke: #fff; opacity: 1;" id="p-type-functions"></path><path d="M70.3715530402238,-184.0022948843491A197,197,0,0,1,74.50381002168673,-182.36826010096277L64.52219215751036,-157.93554609140182A170.6070045455344,170.6070045455344,0,0,0,60.94355263659786,-159.3506617244818Z" fill-rule="evenodd" style="fill: #DB3F29; stroke: #fff; opacity: 1;" id="p-type-functions"></path><path d="M74.50381002168673,-182.36826010096277A197,197,0,0,1,78.598160235903,-180.6414382347841L68.06800345501189,-156.44007448748064A170.6070045455344,170.6070045455344,0,0,0,64.52219215751036,-157.93554609140182Z" fill-rule="evenodd" style="fill: #DB3F29; stroke: #fff; opacity: 1;" id="p-type-functions"></path><path d="M78.598160235903,-180.6414382347841A197,197,0,0,1,82.6525205198699,-178.82270787490188L71.57918245702191,-154.8650077931886A170.6070045455344,170.6070045455344,0,0,0,68.06800345501189,-156.44007448748064Z" fill-rule="evenodd" style="fill: #DB3F29; stroke: #fff; opacity: 1;" id="p-type-functions"></path><path d="M82.6525205198699,-178.82270787490188A197,197,0,0,1,86.6648280570473,-176.91299437249495L75.05394271201332,-153.21114738615404A170.6070045455344,170.6070045455344,0,0,0,71.57918245702191,-154.8650077931886Z" fill-rule="evenodd" style="fill: #DB3F29; stroke: #fff; opacity: 1;" id="p-type-functions"></path><path d="M86.6648280570473,-176.91299437249495A197,197,0,0,1,90.63304142689718,-174.91326937002333L78.49051629794039,-151.47933473343073A170.6070045455344,170.6070045455344,0,0,0,75.05394271201332,-153.21114738615404Z" fill-rule="evenodd" style="fill: #DB3F29; stroke: #fff; opacity: 1;" id="p-type-functions"></path><path d="M90.63304142689718,-174.91326937002333A197,197,0,0,1,94.5551416435375,-172.82455030686629L81.88715472173935,-149.6704509633679A170.6070045455344,170.6070045455344,0,0,0,78.49051629794039,-151.47933473343073Z" fill-rule="evenodd" style="fill: #DB3F29; stroke: #fff; opacity: 1;" id="p-type-functions"></path><path d="M94.5551416435375,-172.82455030686629A197,197,0,0,1,98.4291331829811,-170.64789990165997L85.2421298089435,-147.78541641730155A170.6070045455344,170.6070045455344,0,0,0,81.88715472173935,-149.6704509633679Z" fill-rule="evenodd" style="fill: #DB3F29; stroke: #fff; opacity: 1;" id="p-type-functions"></path><path d="M98.4291331829811,-170.64789990165997A197,197,0,0,1,102.25304499843783,-168.38442561159704L88.55373458296049,-145.8251901812941A170.6070045455344,170.6070045455344,0,0,0,85.2421298089435,-147.78541641730155Z" fill-rule="evenodd" style="fill: #DB3F29; stroke: #fff; opacity: 1;" id="p-type-functions"></path><path d="M102.25304499843783,-168.38442561159704A197,197,0,0,1,106.02493152316255,-166.0352790689638L91.8202841335643,-143.79076959816132A170.6070045455344,170.6070045455344,0,0,0,88.55373458296049,-145.8251901812941Z" fill-rule="evenodd" style="fill: #DB3F29; stroke: #fff; opacity: 1;" id="p-type-functions"></path><path d="M106.02493152316255,-166.0352790689638A197,197,0,0,1,109.74287366033955,-163.60165549520198L95.04011647416019,-141.6831897600349A170.6070045455344,170.6070045455344,0,0,0,91.8202841335643,-143.79076959816132Z" fill-rule="evenodd" style="fill: #DB3F29; stroke: #fff; opacity: 1;" id="p-type-functions"></path><path d="M109.74287366033955,-163.60165549520198A197,197,0,0,1,113.404979759499,-161.08479309279204L98.21159338738622,-139.50352298171796A170.6070045455344,170.6070045455344,0,0,0,95.04011647416019,-141.6831897600349Z" fill-rule="evenodd" style="fill: #DB3F29; stroke: #fff; opacity: 1;" id="p-type-functions"></path><path d="M113.404979759499,-161.08479309279204A197,197,0,0,1,117.00938657896917,-158.4859724152688L101.33310125862126,-137.2528782551026A170.6070045455344,170.6070045455344,0,0,0,98.21159338738622,-139.50352298171796Z" fill-rule="evenodd" style="fill: #DB3F29; stroke: #fff; opacity: 1;" id="p-type-functions"></path><path d="M117.00938657896917,-158.4859724152688A197,197,0,0,1,120.55426023387459,-155.80651571568902L104.40305189697554,-134.93240068492605A170.6070045455344,170.6070045455344,0,0,0,101.33310125862126,-137.2528782551026Z" fill-rule="evenodd" style="fill: #DB3F29; stroke: #fff; opacity: 1;" id="p-type-functions"></path><path d="M120.55426023387459,-155.80651571568902A197,197,0,0,1,124.03779712919749,-153.0477862738826L107.41988334334553,-132.54327090615362A170.6070045455344,170.6070045455344,0,0,0,104.40305189697554,-134.93240068492605Z" fill-rule="evenodd" style="fill: #DB3F29; stroke: #fff; opacity: 1;" id="p-type-functions"></path><path d="M124.03779712919749,-153.0477862738826A197,197,0,0,1,127.4582248774285,-150.21118770283013L110.38206066512281,-130.08670448328357A170.6070045455344,170.6070045455344,0,0,0,107.41988334334553,-132.54327090615362Z" fill-rule="evenodd" style="fill: #DB3F29; stroke: #fff; opacity: 1;" id="p-type-functions"></path><path d="M127.4582248774285,-150.21118770283013A197,197,0,0,1,130.8138032003389,-147.298163234519L113.2880767371516,-127.56395129188046A170.6070045455344,170.6070045455344,0,0,0,110.38206066512281,-130.08670448328357Z" fill-rule="evenodd" style="fill: #DB3F29; stroke: #fff; opacity: 1;" id="p-type-functions"></path><path d="M130.8138032003389,-147.298163234519A197,197,0,0,1,134.10282481441624,-144.3101949856419L116.13645300853867,-124.9762948826516A170.6070045455344,170.6070045455344,0,0,0,113.2880767371516,-127.56395129188046Z" fill-rule="evenodd" style="fill: #DB3F29; stroke: #fff; opacity: 1;" id="p-type-functions"></path><path d="M134.10282481441624,-144.3101949856419A197,197,0,0,1,137.3236162995125,-141.2488032035113L118.92574025492463,-122.32505182838958A170.6070045455344,170.6070045455344,0,0,0,116.13645300853867,-124.9762948826516Z" fill-rule="evenodd" style="fill: #DB3F29; stroke: #fff; opacity: 1;" id="p-type-functions"></path><path d="M137.3236162995125,-141.2488032035113A197,197,0,0,1,140.474538950263,-138.11554549257318L121.65451931583436,-119.61157105411368A170.6070045455344,170.6070045455344,0,0,0,118.92574025492463,-122.32505182838958Z" fill-rule="evenodd" style="fill: #DB3F29; stroke: #fff; opacity: 1;" id="p-type-functions"></path><path d="M140.474538950263,-138.11554549257318A197,197,0,0,1,142.4713255036531,-136.05484706261709L123.38378719700538,-117.82695386423299A170.6070045455344,170.6070045455344,0,0,0,121.65451931583436,-119.61157105411368Z" fill-rule="evenodd" style="fill: #DB3F29; stroke: #fff; opacity: 1;" id="p-type-functions"></path><path d="M196.97658669571527,-3.0371522361191046A197,197,0,0,1,196.9949796320147,1.4064138018800847L170.60265677932279,1.2179900806612078A170.6070045455344,170.6070045455344,0,0,0,170.5867280292373,-2.6302509916398584Z" fill-rule="evenodd" style="fill: #1DC690; stroke: #fff; opacity: 1;" id="p-type-logs"></path><path d="M196.9949796320147,1.4064138018800847A197,197,0,0,1,196.91314356204583,5.84926427109662L170.53178466378387,5.06561145221834A170.6070045455344,170.6070045455344,0,0,0,170.60265677932279,1.2179900806612078Z" fill-rule="evenodd" style="fill: #1DC690; stroke: #fff; opacity: 1;" id="p-type-logs"></path><path d="M196.91314356204583,5.84926427109662A197,197,0,0,1,196.73112012315391,10.289138695205873L170.37414774161928,8.91065549310976A170.6070045455344,170.6070045455344,0,0,0,170.53178466378387,5.06561145221834Z" fill-rule="evenodd" style="fill: #1DC690; stroke: #fff; opacity: 1;" id="p-type-logs"></path><path d="M196.73112012315391,10.289138695205873A197,197,0,0,1,196.44900192698026,14.723778112064165L170.12982621686305,12.751165884732849A170.6070045455344,170.6070045455344,0,0,0,170.37414774161928,8.91065549310976Z" fill-rule="evenodd" style="fill: #1DC690; stroke: #fff; opacity: 1;" id="p-type-logs"></path><path d="M196.44900192698026,14.723778112064165A197,197,0,0,1,196.0669325123425,19.150926223045307L169.79894439777772,16.585188615158806A170.6070045455344,170.6070045455344,0,0,0,170.12982621686305,12.751165884732849Z" fill-rule="evenodd" style="fill: #1DC690; stroke: #fff; opacity: 1;" id="p-type-logs"></path><path d="M196.0669325123425,19.150926223045307A197,197,0,0,1,195.5851062722035,23.568330541021986L169.38167063360737,20.410772973313684A170.6070045455344,170.6070045455344,0,0,0,169.79894439777772,16.585188615158806Z" fill-rule="evenodd" style="fill: #1DC690; stroke: #fff; opacity: 1;" id="p-type-logs"></path><path d="M195.5851062722035,23.568330541021986A197,197,0,0,1,195.0037683547661,27.973743536407902L168.87821722892343,24.225972541479983A170.6070045455344,170.6070045455344,0,0,0,169.38167063360737,20.410772973313684Z" fill-rule="evenodd" style="fill: #1DC690; stroke: #fff; opacity: 1;" id="p-type-logs"></path><path d="M195.0037683547661,27.973743536407902A197,197,0,0,1,194.32321453874454,32.36492378067754L168.28884033560632,28.028846185613848A170.6070045455344,170.6070045455344,0,0,0,168.87821722892343,24.225972541479983Z" fill-rule="evenodd" style="fill: #1DC690; stroke: #fff; opacity: 1;" id="p-type-logs"></path><path d="M194.32321453874454,32.36492378067754A197,197,0,0,1,193.543791082875,36.73963708678183L167.61383982251783,31.817459042973976A170.6070045455344,170.6070045455344,0,0,0,168.28884033560632,28.028846185613848Z" fill-rule="evenodd" style="fill: #1DC690; stroke: #fff; opacity: 1;" id="p-type-logs"></path><path d="M193.543791082875,36.73963708678183A197,197,0,0,1,192.66589454974297,41.095657645879356L166.85355912293124,35.58988350655972A170.6070045455344,170.6070045455344,0,0,0,167.61383982251783,31.817459042973976Z" fill-rule="evenodd" style="fill: #1DC690; stroke: #fff; opacity: 1;" id="p-type-logs"></path><path d="M192.66589454974297,41.095657645879356A197,197,0,0,1,191.68997160401616,45.43076915980486L166.00838505979567,39.344200205857625A170.6070045455344,170.6070045455344,0,0,0,166.85355912293124,35.58988350655972Z" fill-rule="evenodd" style="fill: #1DC690; stroke: #fff; opacity: 1;" id="p-type-logs"></path><path d="M191.68997160401616,45.43076915980486A197,197,0,0,1,190.61651878518623,49.742765968698805L165.07874764892495,43.07849898339722A170.6070045455344,170.6070045455344,0,0,0,166.00838505979567,39.344200205857625Z" fill-rule="evenodd" style="fill: #1DC690; stroke: #fff; opacity: 1;" id="p-type-logs"></path><path d="M190.61651878518623,49.742765968698805A197,197,0,0,1,189.44608225493462,54.029454173224316L164.06511988020972,46.790879866619406A170.6070045455344,170.6070045455344,0,0,0,165.07874764892495,43.07849898339722Z" fill-rule="evenodd" style="fill: #1DC690; stroke: #fff; opacity: 1;" id="p-type-logs"></path><path d="M189.44608225493462,54.029454173224316A197,197,0,0,1,188.17925751925108,58.28865275080037L162.9680174769653,50.47945403456281A170.6070045455344,170.6070045455344,0,0,0,164.06511988020972,46.790879866619406Z" fill-rule="evenodd" style="fill: #1DC690; stroke: #fff; opacity: 1;" id="p-type-logs"></path><path d="M188.17925751925108,58.28865275080037A197,197,0,0,1,186.81668912544646,62.518194665283566L161.78799863353672,54.142344778876335A170.6070045455344,170.6070045455344,0,0,0,162.9680174769653,50.47945403456281Z" fill-rule="evenodd" style="fill: #1DC690; stroke: #fff; opacity: 1;" id="p-type-logs"></path><path d="M186.81668912544646,62.518194665283566A197,197,0,0,1,185.35907033421373,66.7159279695337L160.5256637312956,57.77768845866894A170.6070045455344,170.6070045455344,0,0,0,161.78799863353672,54.142344778876335Z" fill-rule="evenodd" style="fill: #1DC690; stroke: #fff; opacity: 1;" id="p-type-logs"></path><path d="M185.35907033421373,66.7159279695337A197,197,0,0,1,183.807142766904,70.87971690030211L159.181655033172,61.383635448710834A170.6070045455344,170.6070045455344,0,0,0,160.5256637312956,57.77768845866894Z" fill-rule="evenodd" style="fill: #1DC690; stroke: #fff; opacity: 1;" id="p-type-logs"></path><path d="M183.807142766904,70.87971690030211A197,197,0,0,1,182.16169602819735,75.00744296488601L157.75665635687778,64.95835108050365A170.6070045455344,170.6070045455344,0,0,0,159.181655033172,61.383635448710834Z" fill-rule="evenodd" style="fill: #1DC690; stroke: #fff; opacity: 1;" id="p-type-logs"></path><path d="M182.16169602819735,75.00744296488601A197,197,0,0,1,180.42356730436018,79.09700601899553L156.25139272698735,68.50001657574077A170.6070045455344,170.6070045455344,0,0,0,157.75665635687778,64.95835108050365Z" fill-rule="evenodd" style="fill: #1DC690; stroke: #fff; opacity: 1;" id="p-type-logs"></path><path d="M180.42356730436018,79.09700601899553A197,197,0,0,1,178.59364093729334,83.14632533528551L154.66663000605251,72.00682997168293A170.6070045455344,170.6070045455344,0,0,0,156.25139272698735,68.50001657574077Z" fill-rule="evenodd" style="fill: #1DC690; stroke: #fff; opacity: 1;" id="p-type-logs"></path><path d="M178.59364093729334,83.14632533528551A197,197,0,0,1,176.67284797458828,87.15334066200796L153.00317450493955,75.47700703797818A170.6070045455344,170.6070045455344,0,0,0,154.66663000605251,72.00682997168293Z" fill-rule="evenodd" style="fill: #1DC690; stroke: #fff; opacity: 1;" id="p-type-logs"></path><path d="M176.67284797458828,87.15334066200796A197,197,0,0,1,174.66216569581968,91.11601327124681L151.26187257258678,78.9087821844598A170.6070045455344,170.6070045455344,0,0,0,153.00317450493955,75.47700703797818Z" fill-rule="evenodd" style="fill: #1DC690; stroke: #fff; opacity: 1;" id="p-type-logs"></path><path d="M174.66216569581968,91.11601327124681A197,197,0,0,1,172.56261711531562,95.03232699620159L149.44361016539068,82.30040935946029A170.6070045455344,170.6070045455344,0,0,0,151.26187257258678,78.9087821844598Z" fill-rule="evenodd" style="fill: #1DC690; stroke: #fff; opacity: 1;" id="p-type-logs"></path><path d="M172.56261711531562,95.03232699620159A197,197,0,0,1,170.37527046165846,98.90028925699225L147.54931239644068,85.6501629381845A170.6070045455344,170.6070045455344,0,0,0,149.44361016539068,82.30040935946029Z" fill-rule="evenodd" style="fill: #1DC690; stroke: #fff; opacity: 1;" id="p-type-logs"></path><path d="M170.37527046165846,98.90028925699225A197,197,0,0,1,168.10123863418133,102.71793207446314L145.57994306483116,88.95633860068948A170.6070045455344,170.6070045455344,0,0,0,147.54931239644068,85.6501629381845Z" fill-rule="evenodd" style="fill: #1DC690; stroke: #fff; opacity: 1;" id="p-type-logs"></path><path d="M87.17023749864256,176.66451170065324A197,197,0,0,1,-27.10055956515051,195.12703470112933L-23.4697730401937,168.98496901630568A170.6070045455344,170.6070045455344,0,0,0,75.49164012774735,152.9959550799389Z" fill-rule="evenodd" style="fill: #414552; stroke: #fff; opacity: 1;" id="p-type-ether"></path><path d="M-27.10055956515051,195.12703470112933A197,197,0,0,1,-47.76894982733084,191.1207142943798L-41.36912406257278,165.5153937683606A170.6070045455344,170.6070045455344,0,0,0,-23.4697730401937,168.98496901630568Z" fill-rule="evenodd" style="fill: #414552; stroke: #fff; opacity: 1;" id="p-type-ether"></path><path d="M-47.76894982733084,191.1207142943798A197,197,0,0,1,-66.69733057194424,185.36576300540722L-57.761582639912184,160.53145975456835A170.6070045455344,170.6070045455344,0,0,0,-41.36912406257278,165.5153937683606Z" fill-rule="evenodd" style="fill: #414552; stroke: #fff; opacity: 1;" id="p-type-ether"></path><path d="M-66.69733057194424,185.36576300540722A197,197,0,0,1,-69.39015473227656,184.37463607077498L-60.09363677068448,159.67311865080183A170.6070045455344,170.6070045455344,0,0,0,-57.761582639912184,160.53145975456835Z" fill-rule="evenodd" style="fill: #414552; stroke: #fff; opacity: 1;" id="p-type-ether"></path><path d="M-117.29688985395596,158.27330675318854A197,197,0,0,1,-120.83689371009507,155.58741953800504L-104.64781966734238,134.74265782917968A170.6070045455344,170.6070045455344,0,0,0,-101.58208639843103,137.06870438922843Z" fill-rule="evenodd" style="fill: #D7A449; stroke: #fff; opacity: 1;" id="p-type-tokenTransfers"></path><path d="M-120.83689371009507,155.58741953800504A197,197,0,0,1,-124.31541700566488,152.82237105446194L-107.6603092089618,132.34805559973572A170.6070045455344,170.6070045455344,0,0,0,-104.64781966734238,134.74265782917968Z" fill-rule="evenodd" style="fill: #D7A449; stroke: #fff; opacity: 1;" id="p-type-tokenTransfers"></path><path d="M-124.31541700566488,152.82237105446194A197,197,0,0,1,-127.73068990402369,149.97956813060284L-110.61802229979703,129.88611604972107A170.6070045455344,170.6070045455344,0,0,0,-107.6603092089618,132.34805559973572Z" fill-rule="evenodd" style="fill: #D7A449; stroke: #fff; opacity: 1;" id="p-type-tokenTransfers"></path><path d="M-127.73068990402369,149.97956813060284A197,197,0,0,1,-131.080974749677,147.06045715512562L-113.51945408604684,127.3580917884918A170.6070045455344,170.6070045455344,0,0,0,-110.61802229979703,129.88611604972107Z" fill-rule="evenodd" style="fill: #D7A449; stroke: #fff; opacity: 1;" id="p-type-tokenTransfers"></path><path d="M-131.080974749677,147.06045715512562A197,197,0,0,1,-134.36456695237882,144.0665233414748L-116.3631283492551,124.76526904862097A170.6070045455344,170.6070045455344,0,0,0,-113.51945408604684,127.3580917884918Z" fill-rule="evenodd" style="fill: #D7A449; stroke: #fff; opacity: 1;" id="p-type-tokenTransfers"></path><path d="M-134.36456695237882,144.0665233414748A197,197,0,0,1,-137.57979585440944,140.99928997218043L-119.14759825739557,122.1089670314767A170.6070045455344,170.6070045455344,0,0,0,-116.3631283492551,124.76526904862097Z" fill-rule="evenodd" style="fill: #D7A449; stroke: #fff; opacity: 1;" id="p-type-tokenTransfers"></path><path d="M-137.57979585440944,140.99928997218043A197,197,0,0,1,-140.7250255805888,137.8603176238276L-121.87144710100486,119.39053723602626A170.6070045455344,170.6070045455344,0,0,0,-119.14759825739557,122.1089670314767Z" fill-rule="evenodd" style="fill: #D7A449; stroke: #fff; opacity: 1;" id="p-type-tokenTransfers"></path><path d="M-140.7250255805888,137.8603176238276A197,197,0,0,1,-143.79865587059282,134.6512033730513L-124.53328901398969,116.61136277120731A170.6070045455344,170.6070045455344,0,0,0,-121.87144710100486,119.39053723602626Z" fill-rule="evenodd" style="fill: #D7A449; stroke: #fff; opacity: 1;" id="p-type-tokenTransfers"></path><path d="M-143.79865587059282,134.6512033730513A197,197,0,0,1,-146.79912289314942,131.3735799839603L-127.13176967874115,113.77285765221646A170.6070045455344,170.6070045455344,0,0,0,-124.53328901398969,116.61136277120731Z" fill-rule="evenodd" style="fill: #D7A449; stroke: #fff; opacity: 1;" id="p-type-tokenTransfers"></path><path d="M-146.79912289314942,131.3735799839603A197,197,0,0,1,-149.72490004169947,128.02911507740376L-129.6655670151975,110.87646608107296A170.6070045455344,170.6070045455344,0,0,0,-127.13176967874115,113.77285765221646Z" fill-rule="evenodd" style="fill: #D7A449; stroke: #fff; opacity: 1;" id="p-type-tokenTransfers"></path><path d="M-149.72490004169947,128.02911507740376A197,197,0,0,1,-152.57449871111862,124.61951028250296L-132.1333918535048,107.92366171182361A170.6070045455344,170.6070045455344,0,0,0,-129.6655670151975,110.87646608107296Z" fill-rule="evenodd" style="fill: #D7A449; stroke: #fff; opacity: 1;" id="p-type-tokenTransfers"></path><path d="M-152.57449871111862,124.61951028250296A197,197,0,0,1,-155.346469055104,121.14650037087996L-134.53398858993322,104.91594690076296A170.6070045455344,170.6070045455344,0,0,0,-132.1333918535048,107.92366171182361Z" fill-rule="evenodd" style="fill: #D7A449; stroke: #fff; opacity: 1;" id="p-type-tokenTransfers"></path><path d="M-155.346469055104,121.14650037087996A197,197,0,0,1,-158.03940072384106,117.61185237402387L-136.86613582571516,101.8548519420498A170.6070045455344,170.6070045455344,0,0,0,-134.53398858993322,104.91594690076296Z" fill-rule="evenodd" style="fill: #D7A449; stroke: #fff; opacity: 1;" id="p-type-tokenTransfers"></path><path d="M-158.03940072384106,117.61185237402387A197,197,0,0,1,-160.6519235815751,114.01736468424342L-139.12864698848034,98.7419342891095A170.6070045455344,170.6070045455344,0,0,0,-136.86613582571516,101.8548519420498Z" fill-rule="evenodd" style="fill: #D7A449; stroke: #fff; opacity: 1;" id="p-type-tokenTransfers"></path><path d="M-160.6519235815751,114.01736468424342A197,197,0,0,1,-163.18270840372188,110.36486613966365L-141.32037093597154,95.57877776221774A170.6070045455344,170.6070045455344,0,0,0,-139.12864698848034,98.7419342891095Z" fill-rule="evenodd" style="fill: #D7A449; stroke: #fff; opacity: 1;" id="p-type-tokenTransfers"></path><path d="M-163.18270840372188,110.36486613966365A197,197,0,0,1,-165.6304675531636,106.65621509373196L-143.4401925417339,92.36699174266916A170.6070045455344,170.6070045455344,0,0,0,-141.32037093597154,95.57877776221774Z" fill-rule="evenodd" style="fill: #D7A449; stroke: #fff; opacity: 1;" id="p-type-tokenTransfers"></path><path d="M-165.6304675531636,106.65621509373196A197,197,0,0,1,-167.9939556353852,102.8932984697071L-145.48703326247954,89.10821035394086A170.6070045455344,170.6070045455344,0,0,0,-143.4401925417339,92.36699174266916Z" fill-rule="evenodd" style="fill: #D7A449; stroke: #fff; opacity: 1;" id="p-type-tokenTransfers"></path><path d="M-167.9939556353852,102.8932984697071A197,197,0,0,1,-170.27197013211813,99.07803080061227L-147.45985168683947,85.80409163026728A170.6070045455344,170.6070045455344,0,0,0,-145.48703326247954,89.10821035394086Z" fill-rule="evenodd" style="fill: #D7A449; stroke: #fff; opacity: 1;" id="p-type-tokenTransfers"></path><path d="M-170.27197013211813,99.07803080061227A197,197,0,0,1,-172.46335201316938,95.21235325514029L-149.3576440652228,82.45631667304949A170.6070045455344,170.6070045455344,0,0,0,-147.45985168683947,85.80409163026728Z" fill-rule="evenodd" style="fill: #D7A449; stroke: #fff; opacity: 1;" id="p-type-tokenTransfers"></path></g></svg>