<svg xmlns="http://www.w3.org/2000/svg" width="400" height="400" id="block-7908346"><g id="burst-container" transform="translate(200,200)"><circle r="197" style="fill: #f9f9f9; stroke: #f9f9f9; stroke-width: 3; opacity: 1;" id="circle-base"></circle><path display="none" d="M6.031385485800715e-15,-98.5A98.5,98.5,0,1,1,-6.031385485800715e-15,98.5A98.5,98.5,0,1,1,6.031385485800715e-15,-98.5Z" fill-rule="evenodd" id="p-type-root" style="stroke: #fff; opacity: 1;"></path><path d="M8.529667153919608e-15,-139.30003589374985A139.30003589374985,139.30003589374985,0,1,1,-94.5951139157653,-102.25587720646371L-66.88884651695159,-72.30582418886941A98.5,98.5,0,1,0,6.031385485800715e-15,-98.5Z" fill-rule="evenodd" style="fill: #0B1F65; stroke: #fff; opacity: 1;" id="p-type-data"></path><path d="M-94.5951139157653,-102.25587720646371A139.30003589374985,139.30003589374985,0,0,1,-2.666187147858488,-139.27451829423998L-1.885279012163157,-98.48195633234698A98.5,98.5,0,0,0,-66.88884651695159,-72.30582418886941Z" fill-rule="evenodd" style="fill: #D7A449; stroke: #fff; opacity: 1;" id="p-type-value"></path><path d="M1.0446666101440332e-14,-170.6070045455344A170.6070045455344,170.6070045455344,0,0,1,163.684967373558,48.10386113314861L133.6482162097765,39.27663814463797A139.30003589374985,139.30003589374985,0,0,0,8.529667153919608e-15,-139.30003589374985Z" fill-rule="evenodd" style="fill: #DB3F29; stroke: #fff; opacity: 1;" id="p-type-functions"></path><path d="M163.684967373558,48.10386113314861A170.6070045455344,170.6070045455344,0,0,1,27.22440067699766,168.42084790125685L22.228630070575058,137.51504646832478A139.30003589374985,139.30003589374985,0,0,0,133.6482162097765,39.27663814463797Z" fill-rule="evenodd" style="fill: #414552; stroke: #fff; opacity: 1;" id="p-type-ether"></path><path d="M27.22440067699766,168.42084790125685A170.6070045455344,170.6070045455344,0,0,1,-128.647402388958,112.05621740257665L-105.04016419581758,91.49351838089778A139.30003589374985,139.30003589374985,0,0,0,22.228630070575058,137.51504646832478Z" fill-rule="evenodd" style="fill: #1DC690; stroke: #fff; opacity: 1;" id="p-type-logs"></path><path d="M-128.647402388958,112.05621740257665A170.6070045455344,170.6070045455344,0,0,1,-170.3377113713911,9.581966643474603L-139.08015893779466,7.823643002960531A139.30003589374985,139.30003589374985,0,0,0,-105.04016419581758,91.49351838089778Z" fill-rule="evenodd" style="fill: #D7A449; stroke: #fff; opacity: 1;" id="p-type-tokenTransfers"></path><path d="M-115.85488062703669,-125.23736117826454A170.6070045455344,170.6070045455344,0,0,1,-62.21084693278613,-158.86019175333212L-50.794943817237986,-129.7088034121186A139.30003589374985,139.30003589374985,0,0,0,-94.5951139157653,-102.25587720646371Z" fill-rule="evenodd" style="fill: #414552; stroke: #fff; opacity: 1;" id="p-type-ether"></path><path d="M-62.21084693278613,-158.86019175333212A170.6070045455344,170.6070045455344,0,0,1,-6.529601730411373,-170.48200579897636L-5.33139748770065,-139.19797484456495A139.30003589374985,139.30003589374985,0,0,0,-50.794943817237986,-129.7088034121186Z" fill-rule="evenodd" style="fill: #D7A449; stroke: #fff; opacity: 1;" id="p-type-tokenTransfers"></path><path d="M1.206277097160143e-14,-197A197,197,0,0,1,31.074083630675073,-194.53380509956057L26.910945823486795,-168.47121711107022A170.6070045455344,170.6070045455344,0,0,0,1.0446666101440332e-14,-170.6070045455344Z" fill-rule="evenodd" style="fill: #DB3F29; stroke: #fff; opacity: 1;" id="p-type-functions"></path><path d="M31.074083630675073,-194.53380509956057A197,197,0,0,1,57.49442313865608,-188.42343619611964L49.791631014008004,-163.17948241419592A170.6070045455344,170.6070045455344,0,0,0,26.910945823486795,-168.47121711107022Z" fill-rule="evenodd" style="fill: #DB3F29; stroke: #fff; opacity: 1;" id="p-type-functions"></path><path d="M57.49442313865608,-188.42343619611964A197,197,0,0,1,73.70877200685855,-182.69104227969402L63.8336690396948,-158.21508365807196A170.6070045455344,170.6070045455344,0,0,0,49.791631014008004,-163.17948241419592Z" fill-rule="evenodd" style="fill: #DB3F29; stroke: #fff; opacity: 1;" id="p-type-functions"></path><path d="M73.70877200685855,-182.69104227969402A197,197,0,0,1,83.7058190605995,-178.3320942943086L72.49136575106284,-154.4401239689532A170.6070045455344,170.6070045455344,0,0,0,63.8336690396948,-158.21508365807196Z" fill-rule="evenodd" style="fill: #DB3F29; stroke: #fff; opacity: 1;" id="p-type-functions"></path><path d="M83.7058190605995,-178.3320942943086A197,197,0,0,1,92.95547922581073,-173.690180729654L80.50180643050874,-150.4201088997907A170.6070045455344,170.6070045455344,0,0,0,72.49136575106284,-154.4401239689532Z" fill-rule="evenodd" style="fill: #DB3F29; stroke: #fff; opacity: 1;" id="p-type-functions"></path><path d="M92.95547922581073,-173.690180729654A197,197,0,0,1,97.90176700693144,-170.95099887663866L84.78541730338783,-148.0479078294941A170.6070045455344,170.6070045455344,0,0,0,80.50180643050874,-150.4201088997907Z" fill-rule="evenodd" style="fill: #DB3F29; stroke: #fff; opacity: 1;" id="p-type-functions"></path><path d="M97.90176700693144,-170.95099887663866A197,197,0,0,1,101.9574046237577,-168.56360117886467L88.29770250810316,-145.98036077428534A170.6070045455344,170.6070045455344,0,0,0,84.78541730338783,-148.0479078294941Z" fill-rule="evenodd" style="fill: #DB3F29; stroke: #fff; opacity: 1;" id="p-type-functions"></path><path d="M101.9574046237577,-168.56360117886467A197,197,0,0,1,105.95249643589102,-166.08151161102342L91.75755350786181,-143.8308081540665A170.6070045455344,170.6070045455344,0,0,0,88.29770250810316,-145.98036077428534Z" fill-rule="evenodd" style="fill: #DB3F29; stroke: #fff; opacity: 1;" id="p-type-functions"></path><path d="M105.95249643589102,-166.08151161102342A197,197,0,0,1,109.88612233182569,-163.50547427800404L95.16417346272557,-141.59989438257458A170.6070045455344,170.6070045455344,0,0,0,91.75755350786181,-143.8308081540665Z" fill-rule="evenodd" style="fill: #DB3F29; stroke: #fff; opacity: 1;" id="p-type-functions"></path><path d="M109.88612233182569,-163.50547427800404A197,197,0,0,1,113.29334925481983,-161.16332403690805L98.11491853449677,-139.5715327743056A170.6070045455344,170.6070045455344,0,0,0,95.16417346272557,-141.59989438257458Z" fill-rule="evenodd" style="fill: #DB3F29; stroke: #fff; opacity: 1;" id="p-type-functions"></path><path d="M113.29334925481983,-161.16332403690805A197,197,0,0,1,115.9475963310887,-159.26441820143916L100.41356393046618,-137.92703208139505A170.6070045455344,170.6070045455344,0,0,0,98.11491853449677,-139.5715327743056Z" fill-rule="evenodd" style="fill: #DB3F29; stroke: #fff; opacity: 1;" id="p-type-functions"></path><path d="M115.9475963310887,-159.26441820143916A197,197,0,0,1,117.46650766462241,-158.14746149425605L101.72897973140248,-136.95971919804705A170.6070045455344,170.6070045455344,0,0,0,100.41356393046618,-137.92703208139505Z" fill-rule="evenodd" style="fill: #DB3F29; stroke: #fff; opacity: 1;" id="p-type-functions"></path><path d="M117.46650766462241,-158.14746149425605A197,197,0,0,1,118.97465973338494,-157.01601937804077L103.03507773572088,-135.979861582493A170.6070045455344,170.6070045455344,0,0,0,101.72897973140248,-136.95971919804705Z" fill-rule="evenodd" style="fill: #DB3F29; stroke: #fff; opacity: 1;" id="p-type-functions"></path><path d="M118.97465973338494,-157.01601937804077A197,197,0,0,1,120.47191439921463,-155.87019548646336L104.33173831226416,-134.9875489841238A170.6070045455344,170.6070045455344,0,0,0,103.03507773572088,-135.979861582493Z" fill-rule="evenodd" style="fill: #DB3F29; stroke: #fff; opacity: 1;" id="p-type-functions"></path><path d="M120.47191439921463,-155.87019548646336A197,197,0,0,1,121.95813452209006,-154.71009477048284L105.61884269428994,-133.98287229313615A170.6070045455344,170.6070045455344,0,0,0,104.33173831226416,-134.9875489841238Z" fill-rule="evenodd" style="fill: #DB3F29; stroke: #fff; opacity: 1;" id="p-type-functions"></path><path d="M121.95813452209006,-154.71009477048284A197,197,0,0,1,123.43318397269128,-153.53582348873422L106.89627299034886,-132.96592353220734A170.6070045455344,170.6070045455344,0,0,0,105.61884269428994,-133.98287229313615Z" fill-rule="evenodd" style="fill: #DB3F29; stroke: #fff; opacity: 1;" id="p-type-functions"></path><path d="M123.43318397269128,-153.53582348873422A197,197,0,0,1,124.89692764486833,-152.34748919779585L108.16391219508291,-131.93679584806654A170.6070045455344,170.6070045455344,0,0,0,106.89627299034886,-132.96592353220734Z" fill-rule="evenodd" style="fill: #DB3F29; stroke: #fff; opacity: 1;" id="p-type-functions"></path><path d="M124.89692764486833,-152.34748919779585A197,197,0,0,1,126.34923146801648,-151.1452007423378L109.42164419994246,-130.89558350296312A170.6070045455344,170.6070045455344,0,0,0,108.16391219508291,-131.93679584806654Z" fill-rule="evenodd" style="fill: #DB3F29; stroke: #fff; opacity: 1;" id="p-type-functions"></path><path d="M126.34923146801648,-151.1452007423378A197,197,0,0,1,127.78996241935612,-149.92906824515237L110.66935380382111,-129.84238186603272A170.6070045455344,170.6070045455344,0,0,0,109.42164419994246,-130.89558350296312Z" fill-rule="evenodd" style="fill: #DB3F29; stroke: #fff; opacity: 1;" id="p-type-functions"></path><path d="M127.78996241935612,-149.92906824515237A197,197,0,0,1,129.21898853611685,-148.69920309706743L111.90692672360734,-128.77728740456206A170.6070045455344,170.6070045455344,0,0,0,110.66935380382111,-129.84238186603272Z" fill-rule="evenodd" style="fill: #DB3F29; stroke: #fff; opacity: 1;" id="p-type-functions"></path><path d="M129.21898853611685,-148.69920309706743A197,197,0,0,1,130.63617892762483,-147.45571794674356L113.13424960465247,-127.70039767515289A170.6070045455344,170.6070045455344,0,0,0,111.90692672360734,-128.77728740456206Z" fill-rule="evenodd" style="fill: #DB3F29; stroke: #fff; opacity: 1;" id="p-type-functions"></path><path d="M130.63617892762483,-147.45571794674356A197,197,0,0,1,132.04140378729124,-146.19872669035632L114.35121003115302,-126.61181131478662A170.6070045455344,170.6070045455344,0,0,0,113.13424960465247,-127.70039767515289Z" fill-rule="evenodd" style="fill: #DB3F29; stroke: #fff; opacity: 1;" id="p-type-functions"></path><path d="M132.04140378729124,-146.19872669035632A197,197,0,0,1,133.43453440450207,-144.9283444611638L115.55769653644748,-125.51162803178958A170.6070045455344,170.6070045455344,0,0,0,114.35121003115302,-126.61181131478662Z" fill-rule="evenodd" style="fill: #DB3F29; stroke: #fff; opacity: 1;" id="p-type-functions"></path><path d="M133.43453440450207,-144.9283444611638A197,197,0,0,1,134.81544317640723,-143.6446876189611L116.75359861322612,-124.39994859670033A170.6070045455344,170.6070045455344,0,0,0,115.55769653644748,-125.51162803178958Z" fill-rule="evenodd" style="fill: #DB3F29; stroke: #fff; opacity: 1;" id="p-type-functions"></path><path d="M134.81544317640723,-143.6446876189611A197,197,0,0,1,136.18400361960818,-142.34787373942243L117.93880672365262,-123.2768748330396A170.6070045455344,170.6070045455344,0,0,0,116.75359861322612,-124.39994859670033Z" fill-rule="evenodd" style="fill: #DB3F29; stroke: #fff; opacity: 1;" id="p-type-functions"></path><path d="M136.18400361960818,-142.34787373942243A197,197,0,0,1,137.5400903817431,-141.03802160333197L119.11321230939727,-122.14250960798394A170.6070045455344,170.6070045455344,0,0,0,117.93880672365262,-123.2768748330396Z" fill-rule="evenodd" style="fill: #DB3F29; stroke: #fff; opacity: 1;" id="p-type-functions"></path><path d="M137.5400903817431,-141.03802160333197A197,197,0,0,1,138.88357925296864,-139.71525118570403L120.27670780158026,-120.99695682294362A170.6070045455344,170.6070045455344,0,0,0,119.11321230939727,-122.14250960798394Z" fill-rule="evenodd" style="fill: #DB3F29; stroke: #fff; opacity: 1;" id="p-type-functions"></path><path d="M138.88357925296864,-139.71525118570403A197,197,0,0,1,140.21434717733658,-138.3796836447942L121.42918663062436,-119.84032140404578A170.6070045455344,170.6070045455344,0,0,0,120.27670780158026,-120.99695682294362Z" fill-rule="evenodd" style="fill: #DB3F29; stroke: #fff; opacity: 1;" id="p-type-functions"></path><path d="M140.21434717733658,-138.3796836447942A197,197,0,0,1,141.53227226406514,-137.03144131100183L122.57054323601612,-118.67270929252396A170.6070045455344,170.6070045455344,0,0,0,121.42918663062436,-119.84032140404578Z" fill-rule="evenodd" style="fill: #DB3F29; stroke: #fff; opacity: 1;" id="p-type-functions"></path><path d="M141.53227226406514,-137.03144131100183A197,197,0,0,1,142.83723379870358,-135.67064767566524L123.70067307597452,-117.4942274350143A170.6070045455344,170.6070045455344,0,0,0,122.57054323601612,-118.67270929252396Z" fill-rule="evenodd" style="fill: #DB3F29; stroke: #fff; opacity: 1;" id="p-type-functions"></path><path d="M142.83723379870358,-135.67064767566524A197,197,0,0,1,144.12911225418884,-134.2974273797508L124.81947263702656,-116.30498377376A170.6070045455344,170.6070045455344,0,0,0,123.70067307597452,-117.4942274350143Z" fill-rule="evenodd" style="fill: #DB3F29; stroke: #fff; opacity: 1;" id="p-type-functions"></path><path d="M144.12911225418884,-134.2974273797508A197,197,0,0,1,145.4077893017936,-132.9119062024362L125.92683944348838,-115.10508723672424A170.6070045455344,170.6070045455344,0,0,0,124.81947263702656,-116.30498377376Z" fill-rule="evenodd" style="fill: #DB3F29; stroke: #fff; opacity: 1;" id="p-type-functions"></path><path d="M145.4077893017936,-132.9119062024362A197,197,0,0,1,146.67314782196453,-131.5142110495902L127.02267206685148,-113.8946477276132A170.6070045455344,170.6070045455344,0,0,0,125.92683944348838,-115.10508723672424Z" fill-rule="evenodd" style="fill: #DB3F29; stroke: #fff; opacity: 1;" id="p-type-functions"></path><path d="M146.67314782196453,-131.5142110495902A197,197,0,0,1,147.92507191504967,-130.10446994214834L128.10687013507302,-112.67377611580937A170.6070045455344,170.6070045455344,0,0,0,127.02267206685148,-113.8946477276132Z" fill-rule="evenodd" style="fill: #DB3F29; stroke: #fff; opacity: 1;" id="p-type-functions"></path><path d="M147.92507191504967,-130.10446994214834A197,197,0,0,1,149.16344691191438,-128.68281200438736L129.17933434176933,-111.44258422621657A170.6070045455344,170.6070045455344,0,0,0,128.10687013507302,-112.67377611580937Z" fill-rule="evenodd" style="fill: #DB3F29; stroke: #fff; opacity: 1;" id="p-type-functions"></path><path d="M149.16344691191438,-128.68281200438736A197,197,0,0,1,150.38815938444415,-127.24936745209787L130.23996645531176,-110.20118482901746A170.6070045455344,170.6070045455344,0,0,0,129.17933434176933,-111.44258422621657Z" fill-rule="evenodd" style="fill: #DB3F29; stroke: #fff; opacity: 1;" id="p-type-functions"></path><path d="M150.38815938444415,-127.24936745209787A197,197,0,0,1,151.59909715593412,-125.80426758065738L131.2886693278242,-108.94969162934437A170.6070045455344,170.6070045455344,0,0,0,130.23996645531176,-110.20118482901746Z" fill-rule="evenodd" style="fill: #DB3F29; stroke: #fff; opacity: 1;" id="p-type-functions"></path><path d="M151.59909715593412,-125.80426758065738A197,197,0,0,1,152.79614931136382,-124.34764475300449L132.32534690408124,-107.68821925686464A170.6070045455344,170.6070045455344,0,0,0,131.2886693278242,-108.94969162934437Z" fill-rule="evenodd" style="fill: #DB3F29; stroke: #fff; opacity: 1;" id="p-type-functions"></path><path d="M152.79614931136382,-124.34764475300449A197,197,0,0,1,153.97920620755633,-122.87963238751509L133.34990423030632,-106.41688325528114A170.6070045455344,170.6070045455344,0,0,0,132.32534690408124,-107.68821925686464Z" fill-rule="evenodd" style="fill: #DB3F29; stroke: #fff; opacity: 1;" id="p-type-functions"></path><path d="M153.97920620755633,-122.87963238751509A197,197,0,0,1,155.1481594832209,-121.400364945782L134.36224746286885,-105.13580007174907A170.6070045455344,170.6070045455344,0,0,0,133.34990423030632,-106.41688325528114Z" fill-rule="evenodd" style="fill: #DB3F29; stroke: #fff; opacity: 1;" id="p-type-functions"></path><path d="M155.1481594832209,-121.400364945782A197,197,0,0,1,156.30290206887832,-119.90997792029917L135.36228387687993,-103.84508704621021A170.6070045455344,170.6070045455344,0,0,0,134.36224746286885,-105.13580007174907Z" fill-rule="evenodd" style="fill: #DB3F29; stroke: #fff; opacity: 1;" id="p-type-functions"></path><path d="M156.30290206887832,-119.90997792029917A197,197,0,0,1,157.44332819666792,-118.40860782205114L136.34992187468524,-102.54486240064507A170.6070045455344,170.6070045455344,0,0,0,135.36228387687993,-103.84508704621021Z" fill-rule="evenodd" style="fill: #DB3F29; stroke: #fff; opacity: 1;" id="p-type-functions"></path><path d="M157.44332819666792,-118.40860782205114A197,197,0,0,1,158.56933341003517,-116.89639216800964L137.325070994255,-101.23524522824464A170.6070045455344,170.6070045455344,0,0,0,136.34992187468524,-102.54486240064507Z" fill-rule="evenodd" style="fill: #DB3F29; stroke: #fff; opacity: 1;" id="p-type-functions"></path><path d="M158.56933341003517,-116.89639216800964A197,197,0,0,1,159.6808145732994,-115.37346946853758L138.28764191746967,-99.91635548250187A170.6070045455344,170.6070045455344,0,0,0,137.325070994255,-101.23524522824464Z" fill-rule="evenodd" style="fill: #DB3F29; stroke: #fff; opacity: 1;" id="p-type-functions"></path><path d="M159.6808145732994,-115.37346946853758A197,197,0,0,1,160.7776698811004,-113.83997921470251L139.23754647830114,-98.58831396622483A170.6070045455344,170.6070045455344,0,0,0,138.28764191746967,-99.91635548250187Z" fill-rule="evenodd" style="fill: #DB3F29; stroke: #fff; opacity: 1;" id="p-type-functions"></path><path d="M160.7776698811004,-113.83997921470251A197,197,0,0,1,161.85979886772327,-112.29606186549985L140.17469767088807,-97.2512423204718A170.6070045455344,170.6070045455344,0,0,0,139.23754647830114,-98.58831396622483Z" fill-rule="evenodd" style="fill: #DB3F29; stroke: #fff; opacity: 1;" id="p-type-functions"></path><path d="M161.85979886772327,-112.29606186549985A197,197,0,0,1,162.92710241630041,-110.74185883498774L141.09900965750515,-95.90526301340955A170.6070045455344,170.6070045455344,0,0,0,140.17469767088807,-97.2512423204718Z" fill-rule="evenodd" style="fill: #DB3F29; stroke: #fff; opacity: 1;" id="p-type-functions"></path><path d="M162.92710241630041,-110.74185883498774A197,197,0,0,1,163.97948276789023,-109.1775124793343L142.01039777642552,-94.55049932909607A170.6070045455344,170.6070045455344,0,0,0,141.09900965750515,-95.90526301340955Z" fill-rule="evenodd" style="fill: #DB3F29; stroke: #fff; opacity: 1;" id="p-type-functions"></path><path d="M163.97948276789023,-109.1775124793343A197,197,0,0,1,165.01684353043103,-107.60316608377862L142.90877854967505,-93.18707535618839A170.6070045455344,170.6070045455344,0,0,0,142.01039777642552,-94.55049932909607Z" fill-rule="evenodd" style="fill: #DB3F29; stroke: #fff; opacity: 1;" id="p-type-functions"></path><path d="M165.01684353043103,-107.60316608377862A197,197,0,0,1,166.0390896875703,-106.0189638495066L143.7940696906787,-91.81511597657676A170.6070045455344,170.6070045455344,0,0,0,142.90877854967505,-93.18707535618839Z" fill-rule="evenodd" style="fill: #DB3F29; stroke: #fff; opacity: 1;" id="p-type-functions"></path><path d="M166.0390896875703,-106.0189638495066A197,197,0,0,1,167.04612760736742,-104.42505088044305L144.66619011179722,-90.43474685394624A170.6070045455344,170.6070045455344,0,0,0,143.7940696906787,-91.81511597657676Z" fill-rule="evenodd" style="fill: #DB3F29; stroke: #fff; opacity: 1;" id="p-type-functions"></path><path d="M167.04612760736742,-104.42505088044305A197,197,0,0,1,168.03786505087,-102.82157316996083L145.5250599317547,-89.04609442226652A170.6070045455344,170.6070045455344,0,0,0,144.66619011179722,-90.43474685394624Z" fill-rule="evenodd" style="fill: #DB3F29; stroke: #fff; opacity: 1;" id="p-type-functions"></path><path d="M168.03786505087,-102.82157316996083A197,197,0,0,1,169.01421118056226,-101.20867758750879L146.3706004829548,-87.64928587421136A170.6070045455344,170.6070045455344,0,0,0,145.5250599317547,-89.04609442226652Z" fill-rule="evenodd" style="fill: #DB3F29; stroke: #fff; opacity: 1;" id="p-type-functions"></path><path d="M169.01421118056226,-101.20867758750879A197,197,0,0,1,169.9750765686854,-99.5865118651594L147.20273431868665,-86.24444914950845A170.6070045455344,170.6070045455344,0,0,0,146.3706004829548,-87.64928587421136Z" fill-rule="evenodd" style="fill: #DB3F29; stroke: #fff; opacity: 1;" id="p-type-functions"></path><path d="M169.9750765686854,-99.5865118651594A197,197,0,0,1,170.92037320542858,-97.95522458407726L148.02138522021824,-84.83171292322088A170.6070045455344,170.6070045455344,0,0,0,147.20273431868665,-86.24444914950845Z" fill-rule="evenodd" style="fill: #DB3F29; stroke: #fff; opacity: 1;" id="p-type-functions"></path><path d="M170.92037320542858,-97.95522458407726A197,197,0,0,1,171.8500145069901,-96.3149651609099L148.82647820377775,-83.41120659396114A170.6070045455344,170.6070045455344,0,0,0,148.02138522021824,-84.83171292322088Z" fill-rule="evenodd" style="fill: #DB3F29; stroke: #fff; opacity: 1;" id="p-type-functions"></path><path d="M171.8500145069901,-96.3149651609099A197,197,0,0,1,172.76391532350812,-94.66588383410213L149.61793952742167,-81.98306027203905A170.6070045455344,170.6070045455344,0,0,0,148.82647820377775,-83.41120659396114Z" fill-rule="evenodd" style="fill: #DB3F29; stroke: #fff; opacity: 1;" id="p-type-functions"></path><path d="M172.76391532350812,-94.66588383410213A197,197,0,0,1,173.66199194685967,-93.008131650135L150.39569669778908,-80.54740476754439A170.6070045455344,170.6070045455344,0,0,0,149.61793952742167,-81.98306027203905Z" fill-rule="evenodd" style="fill: #DB3F29; stroke: #fff; opacity: 1;" id="p-type-functions"></path><path d="M173.66199194685967,-93.008131650135A197,197,0,0,1,174.5441621183281,-91.34186044969083L151.15967847674162,-79.10437157836535A170.6070045455344,170.6070045455344,0,0,0,150.39569669778908,-80.54740476754439Z" fill-rule="evenodd" style="fill: #DB3F29; stroke: #fff; opacity: 1;" id="p-type-functions"></path><path d="M174.5441621183281,-91.34186044969083A197,197,0,0,1,175.41034503613736,-89.66722285374541L151.90981488788853,-77.65409287814411A170.6070045455344,170.6070045455344,0,0,0,151.15967847674162,-79.10437157836535Z" fill-rule="evenodd" style="fill: #DB3F29; stroke: #fff; opacity: 1;" id="p-type-functions"></path><path d="M175.41034503613736,-89.66722285374541A197,197,0,0,1,176.26046136285294,-87.9843722495889L152.64603722299614,-76.19670150417058A170.6070045455344,170.6070045455344,0,0,0,151.90981488788853,-77.65409287814411Z" fill-rule="evenodd" style="fill: #DB3F29; stroke: #fff; opacity: 1;" id="p-type-functions"></path><path d="M176.26046136285294,-87.9843722495889A197,197,0,0,1,177.09443323264887,-86.2934627767763L153.36827804828104,-74.73233094521511A170.6070045455344,170.6070045455344,0,0,0,152.64603722299614,-76.19670150417058Z" fill-rule="evenodd" style="fill: #DB3F29; stroke: #fff; opacity: 1;" id="p-type-functions"></path><path d="M177.09443323264887,-86.2934627767763A197,197,0,0,1,177.91218425843968,-84.59464931300919L154.07647121058667,-73.26111532930176A170.6070045455344,170.6070045455344,0,0,0,153.36827804828104,-74.73233094521511Z" fill-rule="evenodd" style="fill: #DB3F29; stroke: #fff; opacity: 1;" id="p-type-functions"></path><path d="M177.91218425843968,-84.59464931300919A197,197,0,0,1,178.71363953887712,-82.88808745994984L154.77055184344266,-71.78318941142294A170.6070045455344,170.6070045455344,0,0,0,154.07647121058667,-73.26111532930176Z" fill-rule="evenodd" style="fill: #DB3F29; stroke: #fff; opacity: 1;" id="p-type-functions"></path><path d="M178.71363953887712,-82.88808745994984A197,197,0,0,1,179.49484113458297,-81.18252278705572L155.44709227080088,-70.30612707689932A170.6070045455344,170.6070045455344,0,0,0,154.77055184344266,-71.78318941142294Z" fill-rule="evenodd" style="fill: #DB3F29; stroke: #fff; opacity: 1;" id="p-type-functions"></path><path d="M179.49484113458297,-81.18252278705572A197,197,0,0,1,180.11103870797757,-79.80610086662173L155.98073502311092,-69.11411072747772A170.6070045455344,170.6070045455344,0,0,0,155.44709227080088,-70.30612707689932Z" fill-rule="evenodd" style="fill: #DB3F29; stroke: #fff; opacity: 1;" id="p-type-functions"></path><path d="M189.00711995083768,55.54555434856746A197,197,0,0,1,177.8794265675428,84.66350810120116L154.04810221810064,73.32074878914982A170.6070045455344,170.6070045455344,0,0,0,163.684967373558,48.10386113314861Z" fill-rule="evenodd" style="fill: #414552; stroke: #fff; opacity: 1;" id="p-type-ether"></path><path d="M177.8794265675428,84.66350810120116A197,197,0,0,1,164.56757056589464,108.28903323069835L142.51969674915298,93.78105372904203A170.6070045455344,170.6070045455344,0,0,0,154.04810221810064,73.32074878914982Z" fill-rule="evenodd" style="fill: #414552; stroke: #fff; opacity: 1;" id="p-type-ether"></path><path d="M164.56757056589464,108.28903323069835A197,197,0,0,1,154.49600578999272,122.22922807143362L133.7974657973614,105.85361659482355A170.6070045455344,170.6070045455344,0,0,0,142.51969674915298,93.78105372904203Z" fill-rule="evenodd" style="fill: #414552; stroke: #fff; opacity: 1;" id="p-type-ether"></path><path d="M154.49600578999272,122.22922807143362A197,197,0,0,1,145.0266877075021,133.32764099237136L125.59679578140918,115.46512412604507A170.6070045455344,170.6070045455344,0,0,0,133.7974657973614,105.85361659482355Z" fill-rule="evenodd" style="fill: #414552; stroke: #fff; opacity: 1;" id="p-type-ether"></path><path d="M145.0266877075021,133.32764099237136A197,197,0,0,1,137.42618872562906,141.14900868354616L119.01457058166937,122.23862723894129A170.6070045455344,170.6070045455344,0,0,0,125.59679578140918,115.46512412604507Z" fill-rule="evenodd" style="fill: #414552; stroke: #fff; opacity: 1;" id="p-type-ether"></path><path d="M137.42618872562906,141.14900868354616A197,197,0,0,1,129.82407384302056,148.17121802429088L112.43094597084266,128.3200389187186A170.6070045455344,170.6070045455344,0,0,0,119.01457058166937,122.23862723894129Z" fill-rule="evenodd" style="fill: #414552; stroke: #fff; opacity: 1;" id="p-type-ether"></path><path d="M129.82407384302056,148.17121802429088A197,197,0,0,1,125.51837392786145,151.83589103537264L108.70210046324236,131.4937388428786A170.6070045455344,170.6070045455344,0,0,0,112.43094597084266,128.3200389187186Z" fill-rule="evenodd" style="fill: #414552; stroke: #fff; opacity: 1;" id="p-type-ether"></path><path d="M125.51837392786145,151.83589103537264A197,197,0,0,1,121.85559467125739,154.79087197672294L105.53004057856857,134.05282740578681A170.6070045455344,170.6070045455344,0,0,0,108.70210046324236,131.4937388428786Z" fill-rule="evenodd" style="fill: #414552; stroke: #fff; opacity: 1;" id="p-type-ether"></path><path d="M121.85559467125739,154.79087197672294A197,197,0,0,1,118.12551393415153,157.65583705588756L102.2996959020679,136.5339599452987A170.6070045455344,170.6070045455344,0,0,0,105.53004057856857,134.05282740578681Z" fill-rule="evenodd" style="fill: #414552; stroke: #fff; opacity: 1;" id="p-type-ether"></path><path d="M118.12551393415153,157.65583705588756A197,197,0,0,1,114.32915219770852,160.4301871773302L99.01195019635307,138.93661762946044A170.6070045455344,170.6070045455344,0,0,0,102.2996959020679,136.5339599452987Z" fill-rule="evenodd" style="fill: #414552; stroke: #fff; opacity: 1;" id="p-type-ether"></path><path d="M114.32915219770852,160.4301871773302A197,197,0,0,1,110.66895240455702,162.9766332137153L95.8421241925573,141.14190458633615A170.6070045455344,170.6070045455344,0,0,0,99.01195019635307,138.93661762946044Z" fill-rule="evenodd" style="fill: #414552; stroke: #fff; opacity: 1;" id="p-type-ether"></path><path d="M110.66895240455702,162.9766332137153A197,197,0,0,1,107.22424824212999,165.2633068436853L92.85892287937351,143.12222204005414A170.6070045455344,170.6070045455344,0,0,0,95.8421241925573,141.14190458633615Z" fill-rule="evenodd" style="fill: #414552; stroke: #fff; opacity: 1;" id="p-type-ether"></path><path d="M107.22424824212999,165.2633068436853A197,197,0,0,1,104.47182203261869,167.01688058751682L90.47525185989461,144.6408614496216A170.6070045455344,170.6070045455344,0,0,0,92.85892287937351,143.12222204005414Z" fill-rule="evenodd" style="fill: #414552; stroke: #fff; opacity: 1;" id="p-type-ether"></path><path d="M104.47182203261869,167.01688058751682A197,197,0,0,1,102.87666151682757,168.0041443392159L89.0938023301056,145.49585693882858A170.6070045455344,170.6070045455344,0,0,0,90.47525185989461,144.6408614496216Z" fill-rule="evenodd" style="fill: #414552; stroke: #fff; opacity: 1;" id="p-type-ether"></path><path d="M102.87666151682757,168.0041443392159A197,197,0,0,1,101.58756588897346,168.78674846312276L87.9774127684765,146.17361199123837A170.6070045455344,170.6070045455344,0,0,0,89.0938023301056,145.49585693882858Z" fill-rule="evenodd" style="fill: #414552; stroke: #fff; opacity: 1;" id="p-type-ether"></path><path d="M31.43603011878166,194.4756437458713A197,197,0,0,1,29.573384136325753,194.76759214696196L25.611301937933824,168.67368263319557A170.6070045455344,170.6070045455344,0,0,0,27.22440067699766,168.42084790125685Z" fill-rule="evenodd" style="fill: #1DC690; stroke: #fff; opacity: 1;" id="p-type-logs"></path><path d="M29.573384136325753,194.76759214696196A197,197,0,0,1,27.708029399890282,195.0417009430927L23.995857349111077,168.9110678140456A170.6070045455344,170.6070045455344,0,0,0,25.611301937933824,168.67368263319557Z" fill-rule="evenodd" style="fill: #1DC690; stroke: #fff; opacity: 1;" id="p-type-logs"></path><path d="M27.708029399890282,195.0417009430927A197,197,0,0,1,25.840136765371962,195.2979450274551L22.378214876076374,169.1329817006729A170.6070045455344,170.6070045455344,0,0,0,23.995857349111077,168.9110678140456Z" fill-rule="evenodd" style="fill: #1DC690; stroke: #fff; opacity: 1;" id="p-type-logs"></path><path d="M25.840136765371962,195.2979450274551A197,197,0,0,1,23.969877321124557,195.53630092954668L20.75852268569035,169.33940396702616A170.6070045455344,170.6070045455344,0,0,0,22.378214876076374,169.1329817006729Z" fill-rule="evenodd" style="fill: #1DC690; stroke: #fff; opacity: 1;" id="p-type-logs"></path><path d="M23.969877321124557,195.53630092954668A197,197,0,0,1,22.097422372288158,195.75674681732096L19.13692913255614,169.5303157059985A170.6070045455344,170.6070045455344,0,0,0,20.75852268569035,169.33940396702616Z" fill-rule="evenodd" style="fill: #1DC690; stroke: #fff; opacity: 1;" id="p-type-logs"></path><path d="M22.097422372288158,195.75674681732096A197,197,0,0,1,20.222943425098606,195.95926249918696L17.513582745430877,169.7056994311592A170.6070045455344,170.6070045455344,0,0,0,19.13692913255614,169.5303157059985Z" fill-rule="evenodd" style="fill: #1DC690; stroke: #fff; opacity: 1;" id="p-type-logs"></path><path d="M20.222943425098606,195.95926249918696A197,197,0,0,1,18.34661217117849,196.14382942585874L15.888632213621346,169.86553907835537A170.6070045455344,170.6070045455344,0,0,0,17.513582745430877,169.7056994311592Z" fill-rule="evenodd" style="fill: #1DC690; stroke: #fff; opacity: 1;" id="p-type-logs"></path><path d="M18.34661217117849,196.14382942585874A197,197,0,0,1,16.46860047181117,196.31043069205433L14.262226373364863,170.0098200071834A170.6070045455344,170.6070045455344,0,0,0,15.888632213621346,169.86553907835537Z" fill-rule="evenodd" style="fill: #1DC690; stroke: #fff; opacity: 1;" id="p-type-logs"></path><path d="M16.46860047181117,196.31043069205433A197,197,0,0,1,14.589080342199262,196.4590510380442L12.634514194196733,170.13852900232988A170.6070045455344,170.6070045455344,0,0,0,14.262226373364863,170.0098200071834Z" fill-rule="evenodd" style="fill: #1DC690; stroke: #fff; opacity: 1;" id="p-type-logs"></path><path d="M14.589080342199262,196.4590510380442A197,197,0,0,1,12.708223935709032,196.589676851049L11.005644765305483,170.25165427478203A170.6070045455344,170.6070045455344,0,0,0,12.634514194196733,170.13852900232988Z" fill-rule="evenodd" style="fill: #1DC690; stroke: #fff; opacity: 1;" id="p-type-logs"></path><path d="M12.708223935709032,196.589676851049A197,197,0,0,1,10.826203528102107,196.70229616648635L9.375767281877142,170.34918546290757A170.6070045455344,170.6070045455344,0,0,0,11.005644765305483,170.25165427478203Z" fill-rule="evenodd" style="fill: #1DC690; stroke: #fff; opacity: 1;" id="p-type-logs"></path><path d="M10.826203528102107,196.70229616648635A197,197,0,0,1,8.943191501756012,196.79689866906674L7.74503103142981,170.43111363340375A170.6070045455344,170.6070045455344,0,0,0,9.375767281877142,170.34918546290757Z" fill-rule="evenodd" style="fill: #1DC690; stroke: #fff; opacity: 1;" id="p-type-logs"></path><path d="M8.943191501756012,196.79689866906674A197,197,0,0,1,7.059360329874905,196.87347569373836L6.113585380139763,170.49743128211563A170.6070045455344,170.6070045455344,0,0,0,7.74503103142981,170.43111363340375Z" fill-rule="evenodd" style="fill: #1DC690; stroke: #fff; opacity: 1;" id="p-type-logs"></path><path d="M7.059360329874905,196.87347569373836A197,197,0,0,1,5.174882560692027,196.9320202264808L4.481579759160363,170.54813233472328A170.6070045455344,170.6070045455344,0,0,0,6.113585380139763,170.49743128211563Z" fill-rule="evenodd" style="fill: #1DC690; stroke: #fff; opacity: 1;" id="p-type-logs"></path><path d="M5.174882560692027,196.9320202264808A197,197,0,0,1,3.28993080166526,196.97252690494747L2.8491636509350187,170.58321214729833A170.6070045455344,170.6070045455344,0,0,0,4.481579759160363,170.54813233472328Z" fill-rule="evenodd" style="fill: #1DC690; stroke: #fff; opacity: 1;" id="p-type-logs"></path><path d="M3.28993080166526,196.97252690494747A197,197,0,0,1,1.40467770366726,196.9949920189567L1.2164865755054368,170.60266750672926A170.6070045455344,170.6070045455344,0,0,0,2.8491636509350187,170.58321214729833Z" fill-rule="evenodd" style="fill: #1DC690; stroke: #fff; opacity: 1;" id="p-type-logs"></path><path d="M1.40467770366726,196.9949920189567A197,197,0,0,1,-0.48070405482837814,196.99941351083174L-0.4163019231835631,170.60649663101566A170.6070045455344,170.6070045455344,0,0,0,1.2164865755054368,170.60266750672926Z" fill-rule="evenodd" style="fill: #1DC690; stroke: #fff; opacity: 1;" id="p-type-logs"></path><path d="M-0.48070405482837814,196.99941351083174A197,197,0,0,1,-2.366041783563489,196.98579097558897L-2.0490522909814235,170.59469916943146A170.6070045455344,170.6070045455344,0,0,0,-0.4163019231835631,170.60649663101566Z" fill-rule="evenodd" style="fill: #1DC690; stroke: #fff; opacity: 1;" id="p-type-logs"></path><path d="M-2.366041783563489,196.98579097558897A197,197,0,0,1,-4.251162796312782,196.95412566097528L-3.68161497723016,170.5672762025572A170.6070045455344,170.6070045455344,0,0,0,-2.0490522909814235,170.59469916943146Z" fill-rule="evenodd" style="fill: #1DC690; stroke: #fff; opacity: 1;" id="p-type-logs"></path><path d="M-4.251162796312782,196.95412566097528A197,197,0,0,1,-6.135894426700922,196.90442046735362L-5.3138404484623525,170.52423024218078A170.6070045455344,170.6070045455344,0,0,0,-3.68161497723016,170.5672762025572Z" fill-rule="evenodd" style="fill: #1DC690; stroke: #fff; opacity: 1;" id="p-type-logs"></path><path d="M-6.135894426700922,196.90442046735362A197,197,0,0,1,-8.020064044017785,196.83667994743726L-6.9455792020975595,170.46556523106767A170.6070045455344,170.6070045455344,0,0,0,-5.3138404484623525,170.52423024218078Z" fill-rule="evenodd" style="fill: #1DC690; stroke: #fff; opacity: 1;" id="p-type-logs"></path><path d="M-8.020064044017785,196.83667994743726A197,197,0,0,1,-9.903499069030449,196.75091030587308L-8.576681780135907,170.3912865425996A170.6070045455344,170.6070045455344,0,0,0,-6.9455792020975595,170.46556523106767Z" fill-rule="evenodd" style="fill: #1DC690; stroke: #fff; opacity: 1;" id="p-type-logs"></path><path d="M-9.903499069030449,196.75091030587308A197,197,0,0,1,-11.786026989790477,196.64711939867294L-10.20699878284759,170.30140098028244A170.6070045455344,170.6070045455344,0,0,0,-8.576681780135907,170.3912865425996Z" fill-rule="evenodd" style="fill: #1DC690; stroke: #fff; opacity: 1;" id="p-type-logs"></path><path d="M-11.786026989790477,196.64711939867294A197,197,0,0,1,-13.667475377435029,196.5253167324943L-11.836380882457043,170.19591677712307A170.6070045455344,170.6070045455344,0,0,0,-10.20699878284759,170.30140098028244Z" fill-rule="evenodd" style="fill: #1DC690; stroke: #fff; opacity: 1;" id="p-type-logs"></path><path d="M-13.667475377435029,196.5253167324943A197,197,0,0,1,-15.547671901980364,196.38551346376946L-13.464678836820514,170.07484359487523A170.6070045455344,170.6070045455344,0,0,0,-11.836380882457043,170.19591677712307Z" fill-rule="evenodd" style="fill: #1DC690; stroke: #fff; opacity: 1;" id="p-type-logs"></path><path d="M-15.547671901980364,196.38551346376946A197,197,0,0,1,-17.426444348106283,196.22772239768355L-15.091743503095794,169.9381925231546A170.6070045455344,170.6070045455344,0,0,0,-13.464678836820514,170.07484359487523Z" fill-rule="evenodd" style="fill: #1DC690; stroke: #fff; opacity: 1;" id="p-type-logs"></path><path d="M-17.426444348106283,196.22772239768355A197,197,0,0,1,-19.303620630930094,196.05195798700183L-16.717425851402854,169.78597607842306A170.6070045455344,170.6070045455344,0,0,0,-15.091743503095794,169.9381925231546Z" fill-rule="evenodd" style="fill: #1DC690; stroke: #fff; opacity: 1;" id="p-type-logs"></path><path d="M-19.303620630930094,196.05195798700183A197,197,0,0,1,-21.179028811768582,195.85823633074583L-18.341576978474144,169.61820820284214A170.6070045455344,170.6070045455344,0,0,0,-16.717425851402854,169.78597607842306Z" fill-rule="evenodd" style="fill: #1DC690; stroke: #fff; opacity: 1;" id="p-type-logs"></path><path d="M-21.179028811768582,195.85823633074583A197,197,0,0,1,-23.052497113886638,195.64657517271866L-19.96404812129328,169.43490426299618A170.6070045455344,170.6070045455344,0,0,0,-18.341576978474144,169.61820820284214Z" fill-rule="evenodd" style="fill: #1DC690; stroke: #fff; opacity: 1;" id="p-type-logs"></path><path d="M-23.052497113886638,195.64657517271866A197,197,0,0,1,-24.923853938231012,195.41699389987997L-21.584690670720885,169.23608104848472A170.6070045455344,170.6070045455344,0,0,0,-19.96404812129328,169.43490426299618Z" fill-rule="evenodd" style="fill: #1DC690; stroke: #fff; opacity: 1;" id="p-type-logs"></path><path d="M-24.923853938231012,195.41699389987997A197,197,0,0,1,-26.792927879147847,195.1695135405701L-23.203356185106358,169.02175677038468A170.6070045455344,170.6070045455344,0,0,0,-21.584690670720885,169.23608104848472Z" fill-rule="evenodd" style="fill: #1DC690; stroke: #fff; opacity: 1;" id="p-type-logs"></path><path d="M-26.792927879147847,195.1695135405701A197,197,0,0,1,-28.659547740082402,194.90415676258405L-24.81989640388426,168.79195105958237A170.6070045455344,170.6070045455344,0,0,0,-23.203356185106358,169.02175677038468Z" fill-rule="evenodd" style="fill: #1DC690; stroke: #fff; opacity: 1;" id="p-type-logs"></path><path d="M-28.659547740082402,194.90415676258405A197,197,0,0,1,-30.523542549259766,194.62094787109513L-26.43416326115418,168.54668496497536A170.6070045455344,170.6070045455344,0,0,0,-24.81989640388426,168.79195105958237Z" fill-rule="evenodd" style="fill: #1DC690; stroke: #fff; opacity: 1;" id="p-type-logs"></path><path d="M-30.523542549259766,194.62094787109513A197,197,0,0,1,-32.384741575344805,194.3199128064289L-28.046008899242683,168.2859809515445A170.6070045455344,170.6070045455344,0,0,0,-26.43416326115418,168.54668496497536Z" fill-rule="evenodd" style="fill: #1DC690; stroke: #fff; opacity: 1;" id="p-type-logs"></path><path d="M-32.384741575344805,194.3199128064289A197,197,0,0,1,-34.24297434308027,194.00107914168711L-29.655285682246262,168.0098628982964A170.6070045455344,170.6070045455344,0,0,0,-28.046008899242683,168.2859809515445Z" fill-rule="evenodd" style="fill: #1DC690; stroke: #fff; opacity: 1;" id="p-type-logs"></path><path d="M-34.24297434308027,194.00107914168711A197,197,0,0,1,-36.09807064890132,193.66447608022213L-31.26184620955396,167.71835609607612A170.6070045455344,170.6070045455344,0,0,0,-29.655285682246262,168.0098628982964Z" fill-rule="evenodd" style="fill: #1DC690; stroke: #fff; opacity: 1;" id="p-type-logs"></path><path d="M-36.09807064890132,193.66447608022213A197,197,0,0,1,-37.9498605765252,193.31013445296213L-32.865543329348384,167.41148724525067A170.6070045455344,170.6070045455344,0,0,0,-31.26184620955396,167.71835609607612Z" fill-rule="evenodd" style="fill: #1DC690; stroke: #fff; opacity: 1;" id="p-type-logs"></path><path d="M-37.9498605765252,193.31013445296213A197,197,0,0,1,-39.798174512514606,192.93808671558716L-34.466230152084016,167.08928445326342A170.6070045455344,170.6070045455344,0,0,0,-32.865543329348384,167.41148724525067Z" fill-rule="evenodd" style="fill: #1DC690; stroke: #fff; opacity: 1;" id="p-type-logs"></path><path d="M-39.798174512514606,192.93808671558716A197,197,0,0,1,-41.642843161813346,192.54836694555635L-36.06376006394145,166.7517772320597A170.6070045455344,170.6070045455344,0,0,0,-34.466230152084016,167.08928445326342Z" fill-rule="evenodd" style="fill: #1DC690; stroke: #fff; opacity: 1;" id="p-type-logs"></path><path d="M-41.642843161813346,192.54836694555635A197,197,0,0,1,-43.48369756325276,192.1410108389866L-37.65798674025638,166.39899649538356A170.6070045455344,170.6070045455344,0,0,0,-36.06376006394145,166.7517772320597Z" fill-rule="evenodd" style="fill: #1DC690; stroke: #fff; opacity: 1;" id="p-type-logs"></path><path d="M-43.48369756325276,192.1410108389866A197,197,0,0,1,-45.320569105027616,191.71605570738308L-39.24876415892209,166.03097455594636A170.6070045455344,170.6070045455344,0,0,0,-37.65798674025638,166.39899649538356Z" fill-rule="evenodd" style="fill: #1DC690; stroke: #fff; opacity: 1;" id="p-type-logs"></path><path d="M-45.320569105027616,191.71605570738308A197,197,0,0,1,-47.15328954014002,191.27354047422168L-40.835946613764314,165.647745122467A170.6070045455344,170.6070045455344,0,0,0,-39.24876415892209,166.03097455594636Z" fill-rule="evenodd" style="fill: #1DC690; stroke: #fff; opacity: 1;" id="p-type-logs"></path><path d="M-47.15328954014002,191.27354047422168A197,197,0,0,1,-48.981691001809864,190.8135056713838L-42.41938872788699,165.2493432965844A170.6070045455344,170.6070045455344,0,0,0,-40.835946613764314,165.647745122467Z" fill-rule="evenodd" style="fill: #1DC690; stroke: #fff; opacity: 1;" id="p-type-logs"></path><path d="M-48.981691001809864,190.8135056713838A197,197,0,0,1,-50.80560601885046,190.33599343544392L-43.998945466988076,164.8358055696426A170.6070045455344,170.6070045455344,0,0,0,-42.41938872788699,165.2493432965844Z" fill-rule="evenodd" style="fill: #1DC690; stroke: #fff; opacity: 1;" id="p-type-logs"></path><path d="M-50.80560601885046,190.33599343544392A197,197,0,0,1,-52.624867531007965,189.84104750381005L-45.574472152643764,164.4071698193479A170.6070045455344,170.6070045455344,0,0,0,-43.998945466988076,164.8358055696426Z" fill-rule="evenodd" style="fill: #1DC690; stroke: #fff; opacity: 1;" id="p-type-logs"></path><path d="M-52.624867531007965,189.84104750381005A197,197,0,0,1,-54.439308904263136,189.32871321071775L-47.14582447556027,163.96347530630004A170.6070045455344,170.6070045455344,0,0,0,-45.574472152643764,164.4071698193479Z" fill-rule="evenodd" style="fill: #1DC690; stroke: #fff; opacity: 1;" id="p-type-logs"></path><path d="M-54.439308904263136,189.32871321071775A197,197,0,0,1,-56.248763946094094,188.7990374830777L-48.71285850879171,163.50476267039573A170.6070045455344,170.6070045455344,0,0,0,-47.14582447556027,163.96347530630004Z" fill-rule="evenodd" style="fill: #1DC690; stroke: #fff; opacity: 1;" id="p-type-logs"></path><path d="M-56.248763946094094,188.7990374830777A197,197,0,0,1,-58.05306692069858,188.25206883617744L-50.275430720923026,163.03107392710652A170.6070045455344,170.6070045455344,0,0,0,-48.71285850879171,163.50476267039573Z" fill-rule="evenodd" style="fill: #1DC690; stroke: #fff; opacity: 1;" id="p-type-logs"></path><path d="M-58.05306692069858,188.25206883617744A197,197,0,0,1,-59.85205256417442,187.68785736923766L-51.8333979892166,162.54245246363016A170.6070045455344,170.6070045455344,0,0,0,-50.275430720923026,163.03107392710652Z" fill-rule="evenodd" style="fill: #1DC690; stroke: #fff; opacity: 1;" id="p-type-logs"></path><path d="M-59.85205256417442,187.68785736923766A197,197,0,0,1,-61.64555609965676,187.10645476082342L-53.38661761272151,162.0389430349169A170.6070045455344,170.6070045455344,0,0,0,-51.8333979892166,162.54245246363016Z" fill-rule="evenodd" style="fill: #1DC690; stroke: #fff; opacity: 1;" id="p-type-logs"></path><path d="M-61.64555609965676,187.10645476082342A197,197,0,0,1,-63.433413252410695,186.50791426411075L-54.93494732534413,161.52059175956998A170.6070045455344,170.6070045455344,0,0,0,-53.38661761272151,162.0389430349169Z" fill-rule="evenodd" style="fill: #1DC690; stroke: #fff; opacity: 1;" id="p-type-logs"></path><path d="M-63.433413252410695,186.50791426411075A197,197,0,0,1,-65.21546026487792,185.89229070200875L-56.47824530887892,160.98744611562137A170.6070045455344,170.6070045455344,0,0,0,-54.93494732534413,161.52059175956998Z" fill-rule="evenodd" style="fill: #1DC690; stroke: #fff; opacity: 1;" id="p-type-logs"></path><path d="M-65.21546026487792,185.89229070200875A197,197,0,0,1,-66.99153391167594,185.25964046213835L-58.01637020599808,160.4395549361833A170.6070045455344,170.6070045455344,0,0,0,-56.47824530887892,160.98744611562137Z" fill-rule="evenodd" style="fill: #1DC690; stroke: #fff; opacity: 1;" id="p-type-logs"></path><path d="M-148.549224799622,129.39137456349772A197,197,0,0,1,-149.7807466165102,127.96377590162288L-129.71393156769795,110.81988069498438A170.6070045455344,170.6070045455344,0,0,0,-128.647402388958,112.05621740257665Z" fill-rule="evenodd" style="fill: #D7A449; stroke: #fff; opacity: 1;" id="p-type-tokenTransfers"></path><path d="M-149.7807466165102,127.96377590162288A197,197,0,0,1,-150.9985493679175,126.52445648484165L-130.76857968721524,109.57339351589162A170.6070045455344,170.6070045455344,0,0,0,-129.71393156769795,110.81988069498438Z" fill-rule="evenodd" style="fill: #D7A449; stroke: #fff; opacity: 1;" id="p-type-tokenTransfers"></path><path d="M-150.9985493679175,126.52445648484165A197,197,0,0,1,-152.2025215100301,125.07354814663582L-131.81125014773352,108.31687003644271A170.6070045455344,170.6070045455344,0,0,0,-130.76857968721524,109.57339351589162Z" fill-rule="evenodd" style="fill: #D7A449; stroke: #fff; opacity: 1;" id="p-type-tokenTransfers"></path><path d="M-152.2025215100301,125.07354814663582A197,197,0,0,1,-153.39255276583967,123.61118378196646L-132.8418474465621,107.05042534704995A170.6070045455344,170.6070045455344,0,0,0,-131.81125014773352,108.31687003644271Z" fill-rule="evenodd" style="fill: #D7A449; stroke: #fff; opacity: 1;" id="p-type-tokenTransfers"></path><path d="M-153.39255276583967,123.61118378196646A197,197,0,0,1,-154.5685341352438,122.13749733510168L-133.8602771868433,105.77417544685224A170.6070045455344,170.6070045455344,0,0,0,-132.8418474465621,107.05042534704995Z" fill-rule="evenodd" style="fill: #D7A449; stroke: #fff; opacity: 1;" id="p-type-tokenTransfers"></path><path d="M-154.5685341352438,122.13749733510168A197,197,0,0,1,-155.7303579050298,120.65262378734796L-134.86644608619858,104.48823723308998A170.6070045455344,170.6070045455344,0,0,0,-133.8602771868433,105.77417544685224Z" fill-rule="evenodd" style="fill: #D7A449; stroke: #fff; opacity: 1;" id="p-type-tokenTransfers"></path><path d="M-155.7303579050298,120.65262378734796A197,197,0,0,1,-156.87791765874073,119.15669914468663L-135.86026198527284,103.19272849039811A170.6070045455344,170.6070045455344,0,0,0,-134.86644608619858,104.48823723308998Z" fill-rule="evenodd" style="fill: #D7A449; stroke: #fff; opacity: 1;" id="p-type-tokenTransfers"></path><path d="M-156.87791765874073,119.15669914468663A197,197,0,0,1,-158.01110828642246,117.64986042531658L-136.84163385617566,101.88776788001763A170.6070045455344,170.6070045455344,0,0,0,-135.86026198527284,103.19272849039811Z" fill-rule="evenodd" style="fill: #D7A449; stroke: #fff; opacity: 1;" id="p-type-tokenTransfers"></path><path d="M-158.01110828642246,117.64986042531658A197,197,0,0,1,-159.1298259942512,116.13224564710411L-137.81047181081885,100.57347492892696A170.6070045455344,170.6070045455344,0,0,0,-136.84163385617566,101.88776788001763Z" fill-rule="evenodd" style="fill: #D7A449; stroke: #fff; opacity: 1;" id="p-type-tokenTransfers"></path><path d="M-159.1298259942512,116.13224564710411A197,197,0,0,1,-160.2339683140404,114.60399381494128L-138.76668710914979,99.24997001889383A170.6070045455344,170.6070045455344,0,0,0,-137.81047181081885,100.57347492892696Z" fill-rule="evenodd" style="fill: #D7A449; stroke: #fff; opacity: 1;" id="p-type-tokenTransfers"></path><path d="M-160.2339683140404,114.60399381494128A197,197,0,0,1,-161.32343411262622,113.06524490801387L-139.7101921672794,97.91737437544916A170.6070045455344,170.6070045455344,0,0,0,-138.76668710914979,99.24997001889383Z" fill-rule="evenodd" style="fill: #D7A449; stroke: #fff; opacity: 1;" id="p-type-tokenTransfers"></path><path d="M-161.32343411262622,113.06524490801387A197,197,0,0,1,-162.39812360113075,111.51613986698005L-140.64090056550444,96.57581005678334A170.6070045455344,170.6070045455344,0,0,0,-139.7101921672794,97.91737437544916Z" fill-rule="evenodd" style="fill: #D7A449; stroke: #fff; opacity: 1;" id="p-type-tokenTransfers"></path><path d="M-162.39812360113075,111.51613986698005A197,197,0,0,1,-163.45793834410225,109.95682058106111L-141.558727056223,95.22539994256653A170.6070045455344,170.6070045455344,0,0,0,-140.64090056550444,96.57581005678334Z" fill-rule="evenodd" style="fill: #D7A449; stroke: #fff; opacity: 1;" id="p-type-tokenTransfers"></path><path d="M-163.45793834410225,109.95682058106111A197,197,0,0,1,-164.5027812685311,108.38742987504509L-142.46358757174283,93.86626772269345A170.6070045455344,170.6070045455344,0,0,0,-141.558727056223,95.22539994256653Z" fill-rule="evenodd" style="fill: #D7A449; stroke: #fff; opacity: 1;" id="p-type-tokenTransfers"></path><path d="M-164.5027812685311,108.38742987504509A197,197,0,0,1,-165.53255667274115,106.80811149620489L-143.35539923198112,92.49853788595418A170.6070045455344,170.6070045455344,0,0,0,-142.46358757174283,93.86626772269345Z" fill-rule="evenodd" style="fill: #D7A449; stroke: #fff; opacity: 1;" id="p-type-tokenTransfers"></path><path d="M-165.53255667274115,106.80811149620489A197,197,0,0,1,-166.54717023515565,105.21901010113183L-144.2340803520563,91.12233570863161A170.6070045455344,170.6070045455344,0,0,0,-143.35539923198112,92.49853788595418Z" fill-rule="evenodd" style="fill: #D7A449; stroke: #fff; opacity: 1;" id="p-type-tokenTransfers"></path><path d="M-166.54717023515565,105.21901010113183A197,197,0,0,1,-167.54652902293628,103.620271242486L-145.09955044976957,89.737787243027A170.6070045455344,170.6070045455344,0,0,0,-144.2340803520563,91.12233570863161Z" fill-rule="evenodd" style="fill: #D7A449; stroke: #fff; opacity: 1;" id="p-type-tokenTransfers"></path><path d="M-167.54652902293628,103.620271242486A197,197,0,0,1,-168.53054150049545,102.01204135566437L-145.95173025297666,88.3450193059141A170.6070045455344,170.6070045455344,0,0,0,-145.09955044976957,89.737787243027Z" fill-rule="evenodd" style="fill: #D7A449; stroke: #fff; opacity: 1;" id="p-type-tokenTransfers"></path><path d="M-168.53054150049545,102.01204135566437A197,197,0,0,1,-169.49911753788047,100.39446774538814L-146.79054170684896,86.94415946692357A170.6070045455344,170.6070045455344,0,0,0,-145.95173025297666,88.3450193059141Z" fill-rule="evenodd" style="fill: #D7A449; stroke: #fff; opacity: 1;" id="p-type-tokenTransfers"></path><path d="M-169.49911753788047,100.39446774538814A197,197,0,0,1,-170.4521684190288,98.76769857221055L-147.61590798102253,85.53533603685835A170.6070045455344,170.6070045455344,0,0,0,-146.79054170684896,86.94415946692357Z" fill-rule="evenodd" style="fill: #D7A449; stroke: #fff; opacity: 1;" id="p-type-tokenTransfers"></path><path d="M-170.4521684190288,98.76769857221055A197,197,0,0,1,-171.38960684989402,97.13188283894613L-148.42775347663564,84.1186780559411A170.6070045455344,170.6070045455344,0,0,0,-147.61590798102253,85.53533603685835Z" fill-rule="evenodd" style="fill: #D7A449; stroke: #fff; opacity: 1;" id="p-type-tokenTransfers"></path><path d="M-171.38960684989402,97.13188283894613A197,197,0,0,1,-172.31134696644153,95.48717037702292L-149.22600383325303,82.69431528199476A170.6070045455344,170.6070045455344,0,0,0,-148.42775347663564,84.1186780559411Z" fill-rule="evenodd" style="fill: #D7A449; stroke: #fff; opacity: 1;" id="p-type-tokenTransfers"></path><path d="M-172.31134696644153,95.48717037702292A197,197,0,0,1,-173.21730434251305,93.83371183275877L-150.01058593567686,81.26237817855757A170.6070045455344,170.6070045455344,0,0,0,-149.22600383325303,82.69431528199476Z" fill-rule="evenodd" style="fill: #D7A449; stroke: #fff; opacity: 1;" id="p-type-tokenTransfers"></path><path d="M-173.21730434251305,93.83371183275877A197,197,0,0,1,-174.1073959975597,92.17165865356299L-150.7814279206438,79.82299790293334A170.6070045455344,170.6070045455344,0,0,0,-150.01058593567686,81.26237817855757Z" fill-rule="evenodd" style="fill: #D7A449; stroke: #fff; opacity: 1;" id="p-type-tokenTransfers"></path><path d="M-174.1073959975597,92.17165865356299A197,197,0,0,1,-174.98154040424254,90.5011630740646L-151.5384591834072,78.37630629417812A170.6070045455344,170.6070045455344,0,0,0,-150.7814279206438,79.82299790293334Z" fill-rule="evenodd" style="fill: #D7A449; stroke: #fff; opacity: 1;" id="p-type-tokenTransfers"></path><path d="M-174.98154040424254,90.5011630740646A197,197,0,0,1,-175.83965749589996,88.82237810216859L-152.28161038420413,76.92243586102462A170.6070045455344,170.6070045455344,0,0,0,-151.5384591834072,78.37630629417812Z" fill-rule="evenodd" style="fill: #D7A449; stroke: #fff; opacity: 1;" id="p-type-tokenTransfers"></path><path d="M-175.83965749589996,88.82237810216859A197,197,0,0,1,-176.68166867388132,87.1354575050411L-153.01081345460648,75.46151976974501A170.6070045455344,170.6070045455344,0,0,0,-152.28161038420413,76.92243586102462Z" fill-rule="evenodd" style="fill: #D7A449; stroke: #fff; opacity: 1;" id="p-type-tokenTransfers"></path><path d="M-176.68166867388132,87.1354575050411A197,197,0,0,1,-177.50749681474625,85.44055579502542L-153.72600160375558,73.99369183195375A170.6070045455344,170.6070045455344,0,0,0,-153.01081345460648,75.46151976974501Z" fill-rule="evenodd" style="fill: #D7A449; stroke: #fff; opacity: 1;" id="p-type-tokenTransfers"></path><path d="M-177.50749681474625,85.44055579502542A197,197,0,0,1,-178.31706627732856,83.73782821548937L-154.42710932447997,72.51908649235115A170.6070045455344,170.6070045455344,0,0,0,-153.72600160375558,73.99369183195375Z" fill-rule="evenodd" style="fill: #D7A449; stroke: #fff; opacity: 1;" id="p-type-tokenTransfers"></path><path d="M-178.31706627732856,83.73782821548937A197,197,0,0,1,-179.1103029096647,82.02743072660601L-155.1140723992955,71.03783881640905A170.6070045455344,170.6070045455344,0,0,0,-154.42710932447997,72.51908649235115Z" fill-rule="evenodd" style="fill: #D7A449; stroke: #fff; opacity: 1;" id="p-type-tokenTransfers"></path><path d="M-179.1103029096647,82.02743072660601A197,197,0,0,1,-179.88713405578557,80.3095199910685L-155.78682790628713,69.55008447799955A170.6070045455344,170.6070045455344,0,0,0,-155.1140723992955,71.03783881640905Z" fill-rule="evenodd" style="fill: #D7A449; stroke: #fff; opacity: 1;" id="p-type-tokenTransfers"></path><path d="M-179.88713405578557,80.3095199910685A197,197,0,0,1,-180.64748856237134,78.58425335974069L-156.4453142248724,68.05595974696806A170.6070045455344,170.6070045455344,0,0,0,-155.78682790628713,69.55008447799955Z" fill-rule="evenodd" style="fill: #D7A449; stroke: #fff; opacity: 1;" id="p-type-tokenTransfers"></path><path d="M-180.64748856237134,78.58425335974069A197,197,0,0,1,-181.39129678526882,76.85178885724473L-157.08947104144536,66.55560147665179A170.6070045455344,170.6070045455344,0,0,0,-156.4453142248724,68.05595974696806Z" fill-rule="evenodd" style="fill: #D7A449; stroke: #fff; opacity: 1;" id="p-type-tokenTransfers"></path><path d="M-181.39129678526882,76.85178885724473A197,197,0,0,1,-182.11849059587038,75.11228516748685L-157.71923935490116,65.0491470913447A170.6070045455344,170.6070045455344,0,0,0,-157.08947104144536,66.55560147665179Z" fill-rule="evenodd" style="fill: #D7A449; stroke: #fff; opacity: 1;" id="p-type-tokenTransfers"></path></g></svg>