<svg xmlns="http://www.w3.org/2000/svg" width="400" height="400" id="block-7908312"><g id="burst-container" transform="translate(200,200)"><circle r="197" style="fill: #f9f9f9; stroke: #f9f9f9; stroke-width: 3; opacity: 1;" id="circle-base"></circle><path display="none" d="M6.031385485800715e-15,-98.5A98.5,98.5,0,1,1,-6.031385485800715e-15,98.5A98.5,98.5,0,1,1,6.031385485800715e-15,-98.5Z" fill-rule="evenodd" id="p-type-root" style="stroke: #fff; opacity: 1;"></path><path d="M8.529667153919608e-15,-139.30003589374985A139.30003589374985,139.30003589374985,0,1,1,-102.30706809543193,-94.53974729031515L-72.3420216135938,-66.84969640064438A98.5,98.5,0,1,0,6.031385485800715e-15,-98.5Z" fill-rule="evenodd" style="fill: #0B1F65; stroke: #fff; opacity: 1;" id="p-type-data"></path><path d="M-102.30706809543193,-94.53974729031515A139.30003589374985,139.30003589374985,0,0,1,-1.809393865831522,-139.2882841226723L-1.2794346723668115,-98.49169024298013A98.5,98.5,0,0,0,-72.3420216135938,-66.84969640064438Z" fill-rule="evenodd" style="fill: #D7A449; stroke: #fff; opacity: 1;" id="p-type-value"></path><path d="M1.0446666101440332e-14,-170.6070045455344A170.6070045455344,170.6070045455344,0,0,1,129.20289825897544,111.41526413145033L105.49372467440628,90.9701822264887A139.30003589374985,139.30003589374985,0,0,0,8.529667153919608e-15,-139.30003589374985Z" fill-rule="evenodd" style="fill: #414552; stroke: #fff; opacity: 1;" id="p-type-ether"></path><path d="M129.20289825897544,111.41526413145033A170.6070045455344,170.6070045455344,0,0,1,-60.39238884257308,159.56036277812686L-49.310179004018664,130.28049065992818A139.30003589374985,139.30003589374985,0,0,0,105.49372467440628,90.9701822264887Z" fill-rule="evenodd" style="fill: #1DC690; stroke: #fff; opacity: 1;" id="p-type-logs"></path><path d="M-60.39238884257308,159.56036277812686A170.6070045455344,170.6070045455344,0,0,1,-166.42909744171783,37.52473217406336L-135.88878902804996,30.63881552035137A139.30003589374985,139.30003589374985,0,0,0,-49.310179004018664,130.28049065992818Z" fill-rule="evenodd" style="fill: #D7A449; stroke: #fff; opacity: 1;" id="p-type-tokenTransfers"></path><path d="M-125.30005695699032,-115.78707063647036A170.6070045455344,170.6070045455344,0,0,1,-55.48306009548183,-161.33313374022447L-45.30172886736847,-131.72795208924882A139.30003589374985,139.30003589374985,0,0,0,-102.30706809543193,-94.53974729031515Z" fill-rule="evenodd" style="fill: #D7A449; stroke: #fff; opacity: 1;" id="p-type-tokenTransfers"></path><path d="M-55.48306009548183,-161.33313374022447A170.6070045455344,170.6070045455344,0,0,1,-4.431717810387342,-170.54943528856697L-3.618482439817773,-139.25303079226939A139.30003589374985,139.30003589374985,0,0,0,-45.30172886736847,-131.72795208924882Z" fill-rule="evenodd" style="fill: #414552; stroke: #fff; opacity: 1;" id="p-type-ether"></path><path d="M1.206277097160143e-14,-197A197,197,0,0,1,154.2892056380976,-122.49016704848121L133.61837161231375,-106.07959637778428A170.6070045455344,170.6070045455344,0,0,0,1.0446666101440332e-14,-170.6070045455344Z" fill-rule="evenodd" style="fill: #414552; stroke: #fff; opacity: 1;" id="p-type-ether"></path><path d="M154.2892056380976,-122.49016704848121A197,197,0,0,1,195.22174792176145,26.409641011801583L169.06699307144734,22.871420021047534A170.6070045455344,170.6070045455344,0,0,0,133.61837161231375,-106.07959637778428Z" fill-rule="evenodd" style="fill: #414552; stroke: #fff; opacity: 1;" id="p-type-ether"></path><path d="M195.22174792176145,26.409641011801583A197,197,0,0,1,193.64500271977462,36.20238834191023L167.70149167123154,31.35218798176386A170.6070045455344,170.6070045455344,0,0,0,169.06699307144734,22.871420021047534Z" fill-rule="evenodd" style="fill: #414552; stroke: #fff; opacity: 1;" id="p-type-ether"></path><path d="M193.64500271977462,36.20238834191023A197,197,0,0,1,192.36751104589607,42.47046849290758L166.5951514285296,36.78050462548457A170.6070045455344,170.6070045455344,0,0,0,167.70149167123154,31.35218798176386Z" fill-rule="evenodd" style="fill: #414552; stroke: #fff; opacity: 1;" id="p-type-ether"></path><path d="M192.36751104589607,42.47046849290758A197,197,0,0,1,191.40766852743678,46.60584114562123L165.76390342391144,40.36184239685003A170.6070045455344,170.6070045455344,0,0,0,166.5951514285296,36.78050462548457Z" fill-rule="evenodd" style="fill: #414552; stroke: #fff; opacity: 1;" id="p-type-ether"></path><path d="M191.40766852743678,46.60584114562123A197,197,0,0,1,190.4619393265321,50.33139843056619L164.94487791082722,43.58826964886654A170.6070045455344,170.6070045455344,0,0,0,165.76390342391144,40.36184239685003Z" fill-rule="evenodd" style="fill: #414552; stroke: #fff; opacity: 1;" id="p-type-ether"></path><path d="M190.4619393265321,50.33139843056619A197,197,0,0,1,189.4486847288641,54.02032815990161L164.06737368874533,46.78297650724667A170.6070045455344,170.6070045455344,0,0,0,164.94487791082722,43.58826964886654Z" fill-rule="evenodd" style="fill: #414552; stroke: #fff; opacity: 1;" id="p-type-ether"></path><path d="M189.4486847288641,54.02032815990161A197,197,0,0,1,188.41225609621293,57.53105033575412L163.16980016365986,49.82335109716432A170.6070045455344,170.6070045455344,0,0,0,164.06737368874533,46.78297650724667Z" fill-rule="evenodd" style="fill: #414552; stroke: #fff; opacity: 1;" id="p-type-ether"></path><path d="M188.41225609621293,57.53105033575412A197,197,0,0,1,187.34831255815786,60.906565997524325L162.24839803151187,52.746633411129565A170.6070045455344,170.6070045455344,0,0,0,163.16980016365986,49.82335109716432Z" fill-rule="evenodd" style="fill: #414552; stroke: #fff; opacity: 1;" id="p-type-ether"></path><path d="M187.34831255815786,60.906565997524325A197,197,0,0,1,186.33472438618475,63.940366654599096L161.37060492560772,55.37398185017424A170.6070045455344,170.6070045455344,0,0,0,162.24839803151187,52.746633411129565Z" fill-rule="evenodd" style="fill: #414552; stroke: #fff; opacity: 1;" id="p-type-ether"></path><path d="M186.33472438618475,63.940366654599096A197,197,0,0,1,185.48416138892733,66.36735548329735L160.63399576246377,57.475815830527964A170.6070045455344,170.6070045455344,0,0,0,161.37060492560772,55.37398185017424Z" fill-rule="evenodd" style="fill: #414552; stroke: #fff; opacity: 1;" id="p-type-ether"></path><path d="M185.48416138892733,66.36735548329735A197,197,0,0,1,184.62039348795656,68.73361847271019L159.88595081724952,59.5250596913944A170.6070045455344,170.6070045455344,0,0,0,160.63399576246377,57.475815830527964Z" fill-rule="evenodd" style="fill: #414552; stroke: #fff; opacity: 1;" id="p-type-ether"></path><path d="M184.62039348795656,68.73361847271019A197,197,0,0,1,183.87294206188193,70.7088479435764L159.238638894174,61.23565859146822A170.6070045455344,170.6070045455344,0,0,0,159.88595081724952,59.5250596913944Z" fill-rule="evenodd" style="fill: #414552; stroke: #fff; opacity: 1;" id="p-type-ether"></path><path d="M183.87294206188193,70.7088479435764A197,197,0,0,1,183.34619099124006,72.06368190013409L158.78245908552748,62.408979215756965A170.6070045455344,170.6070045455344,0,0,0,159.238638894174,61.23565859146822Z" fill-rule="evenodd" style="fill: #414552; stroke: #fff; opacity: 1;" id="p-type-ether"></path><path d="M183.34619099124006,72.06368190013409A197,197,0,0,1,182.8174912078497,73.3945836453058L158.3245916421361,63.56157393701672A170.6070045455344,170.6070045455344,0,0,0,158.78245908552748,62.408979215756965Z" fill-rule="evenodd" style="fill: #414552; stroke: #fff; opacity: 1;" id="p-type-ether"></path><path d="M182.8174912078497,73.3945836453058A197,197,0,0,1,182.34074415509397,74.57112726093496L157.91171658327028,64.58049059681196A170.6070045455344,170.6070045455344,0,0,0,158.3245916421361,63.56157393701672Z" fill-rule="evenodd" style="fill: #414552; stroke: #fff; opacity: 1;" id="p-type-ether"></path><path d="M149.1906561797986,128.6512654762522A197,197,0,0,1,148.35195446939758,129.61750501035647L128.4765612715707,112.25205211412546A170.6070045455344,170.6070045455344,0,0,0,129.20289825897544,111.41526413145033Z" fill-rule="evenodd" style="fill: #1DC690; stroke: #fff; opacity: 1;" id="p-type-logs"></path><path d="M148.35195446939758,129.61750501035647A197,197,0,0,1,147.50699498389326,130.57827702501547L127.74480489195533,113.08410508606529A170.6070045455344,170.6070045455344,0,0,0,128.4765612715707,112.25205211412546Z" fill-rule="evenodd" style="fill: #1DC690; stroke: #fff; opacity: 1;" id="p-type-logs"></path><path d="M147.50699498389326,130.57827702501547A197,197,0,0,1,146.65581336532662,131.53354099298966L127.00765998704226,113.91138794965089A170.6070045455344,170.6070045455344,0,0,0,127.74480489195533,113.08410508606529Z" fill-rule="evenodd" style="fill: #1DC690; stroke: #fff; opacity: 1;" id="p-type-logs"></path><path d="M146.65581336532662,131.53354099298966A197,197,0,0,1,145.7984455182002,132.4832566193797L126.2651576510428,114.7338658084757A170.6070045455344,170.6070045455344,0,0,0,127.00765998704226,113.91138794965089Z" fill-rule="evenodd" style="fill: #1DC690; stroke: #fff; opacity: 1;" id="p-type-logs"></path><path d="M145.7984455182002,132.4832566193797A197,197,0,0,1,144.93492760796389,133.42738384332606L125.51732920415529,115.55150396881774A170.6070045455344,170.6070045455344,0,0,0,126.2651576510428,114.7338658084757Z" fill-rule="evenodd" style="fill: #1DC690; stroke: #fff; opacity: 1;" id="p-type-logs"></path><path d="M144.93492760796389,133.42738384332606A197,197,0,0,1,144.06529605948919,134.36588283969905L124.7642061912438,116.36426794110295A170.6070045455344,170.6070045455344,0,0,0,125.51732920415529,115.55150396881774Z" fill-rule="evenodd" style="fill: #1DC690; stroke: #fff; opacity: 1;" id="p-type-logs"></path><path d="M144.06529605948919,134.36588283969905A197,197,0,0,1,143.1895875555328,135.29871402077848L124.00582038050753,117.17212344135997A170.6070045455344,170.6070045455344,0,0,0,124.7642061912438,116.36426794110295Z" fill-rule="evenodd" style="fill: #1DC690; stroke: #fff; opacity: 1;" id="p-type-logs"></path><path d="M143.1895875555328,135.29871402077848A197,197,0,0,1,142.30783903518932,136.2258380379238L123.24220376214072,117.97503639266651A170.6070045455344,170.6070045455344,0,0,0,124.00582038050753,117.17212344135997Z" fill-rule="evenodd" style="fill: #1DC690; stroke: #fff; opacity: 1;" id="p-type-logs"></path><path d="M142.30783903518932,136.2258380379238A197,197,0,0,1,141.42008769233297,137.14721578323366L122.47338854698337,118.77297292658646A170.6070045455344,170.6070045455344,0,0,0,123.24220376214072,117.97503639266651Z" fill-rule="evenodd" style="fill: #1DC690; stroke: #fff; opacity: 1;" id="p-type-logs"></path><path d="M141.42008769233297,137.14721578323366A197,197,0,0,1,140.52637097404872,138.06280839119577L121.69940716516237,119.56589938459891A170.6070045455344,170.6070045455344,0,0,0,122.47338854698337,118.77297292658646Z" fill-rule="evenodd" style="fill: #1DC690; stroke: #fff; opacity: 1;" id="p-type-logs"></path><path d="M140.52637097404872,138.06280839119577A197,197,0,0,1,139.62672657905281,138.9725772403262L120.92029226472363,120.35378231951756A170.6070045455344,170.6070045455344,0,0,0,121.69940716516237,119.56589938459891Z" fill-rule="evenodd" style="fill: #1DC690; stroke: #fff; opacity: 1;" id="p-type-logs"></path><path d="M139.62672657905281,138.9725772403262A197,197,0,0,1,138.72119245610244,139.87648395479846L120.13607671025493,121.13658849690188A170.6070045455344,170.6070045455344,0,0,0,120.92029226472363,120.35378231951756Z" fill-rule="evenodd" style="fill: #1DC690; stroke: #fff; opacity: 1;" id="p-type-logs"></path><path d="M138.72119245610244,139.87648395479846A197,197,0,0,1,137.80980680239497,140.77449040606248L119.34679358149957,121.91428489645884A170.6070045455344,170.6070045455344,0,0,0,120.13607671025493,121.13658849690188Z" fill-rule="evenodd" style="fill: #1DC690; stroke: #fff; opacity: 1;" id="p-type-logs"></path><path d="M137.80980680239497,140.77449040606248A197,197,0,0,1,136.89260806195682,141.66655871445272L118.55247617196105,122.6868387134358A170.6070045455344,170.6070045455344,0,0,0,119.34679358149957,121.91428489645884Z" fill-rule="evenodd" style="fill: #1DC690; stroke: #fff; opacity: 1;" id="p-type-logs"></path><path d="M136.89260806195682,141.66655871445272A197,197,0,0,1,135.9696349240217,142.55265125078614L117.7531579874986,123.45421736000432A170.6070045455344,170.6070045455344,0,0,0,118.55247617196105,122.6868387134358Z" fill-rule="evenodd" style="fill: #1DC690; stroke: #fff; opacity: 1;" id="p-type-logs"></path><path d="M135.9696349240217,142.55265125078614A197,197,0,0,1,135.04092632139876,143.43273063794942L116.94887274491397,124.21638846663477A170.6070045455344,170.6070045455344,0,0,0,117.7531579874986,123.45421736000432Z" fill-rule="evenodd" style="fill: #1DC690; stroke: #fff; opacity: 1;" id="p-type-logs"></path><path d="M135.04092632139876,143.43273063794942A197,197,0,0,1,134.10652142883015,144.30675975247564L116.1396543705291,124.97331988346168A170.6070045455344,170.6070045455344,0,0,0,116.94887274491397,124.21638846663477Z" fill-rule="evenodd" style="fill: #1DC690; stroke: #fff; opacity: 1;" id="p-type-logs"></path><path d="M134.10652142883015,144.30675975247564A197,197,0,0,1,133.16645966133876,145.1747017261101L115.32553699875506,125.72497968163995A170.6070045455344,170.6070045455344,0,0,0,116.1396543705291,124.97331988346168Z" fill-rule="evenodd" style="fill: #1DC690; stroke: #fff; opacity: 1;" id="p-type-logs"></path><path d="M133.16645966133876,145.1747017261101A197,197,0,0,1,132.2207806725654,146.03651994736575L114.50655497065216,126.47133615469164A170.6070045455344,170.6070045455344,0,0,0,115.32553699875506,125.72497968163995Z" fill-rule="evenodd" style="fill: #1DC690; stroke: #fff; opacity: 1;" id="p-type-logs"></path><path d="M132.2207806725654,146.03651994736575A197,197,0,0,1,131.26952435309636,146.8921780630672L113.68274283248148,127.21235781984345A170.6070045455344,170.6070045455344,0,0,0,114.50655497065216,126.47133615469164Z" fill-rule="evenodd" style="fill: #1DC690; stroke: #fff; opacity: 1;" id="p-type-logs"></path><path d="M131.26952435309636,146.8921780630672A197,197,0,0,1,130.31273082878053,147.74163997988447L112.85413533424752,127.94801341935461A170.6070045455344,170.6070045455344,0,0,0,113.68274283248148,127.21235781984345Z" fill-rule="evenodd" style="fill: #1DC690; stroke: #fff; opacity: 1;" id="p-type-logs"></path><path d="M130.31273082878053,147.74163997988447A197,197,0,0,1,129.35044045903692,148.58486986585527L112.02076742823243,128.67827192183557A170.6070045455344,170.6070045455344,0,0,0,112.85413533424752,127.94801341935461Z" fill-rule="evenodd" style="fill: #1DC690; stroke: #fff; opacity: 1;" id="p-type-logs"></path><path d="M129.35044045903692,148.58486986585527A197,197,0,0,1,128.38269383515228,149.42183215189658L111.18267426752172,129.40310252355684A170.6070045455344,170.6070045455344,0,0,0,112.02076742823243,128.67827192183557Z" fill-rule="evenodd" style="fill: #1DC690; stroke: #fff; opacity: 1;" id="p-type-logs"></path><path d="M128.38269383515228,149.42183215189658A197,197,0,0,1,127.40953177856878,150.25249153330495L110.33989120452128,130.12247464974834A170.6070045455344,170.6070045455344,0,0,0,111.18267426752172,129.40310252355684Z" fill-rule="evenodd" style="fill: #1DC690; stroke: #fff; opacity: 1;" id="p-type-logs"></path><path d="M127.40953177856878,150.25249153330495A197,197,0,0,1,126.43099533916208,151.07681297124577L109.49245378946631,130.83635795588924A170.6070045455344,170.6070045455344,0,0,0,110.33989120452128,130.12247464974834Z" fill-rule="evenodd" style="fill: #1DC690; stroke: #fff; opacity: 1;" id="p-type-logs"></path><path d="M126.43099533916208,151.07681297124577A197,197,0,0,1,125.44712579350984,151.8947616942313L108.64039776892163,131.54472232898775A170.6070045455344,170.6070045455344,0,0,0,109.49245378946631,130.83635795588924Z" fill-rule="evenodd" style="fill: #1DC690; stroke: #fff; opacity: 1;" id="p-type-logs"></path><path d="M125.44712579350984,151.8947616942313A197,197,0,0,1,124.45796464315056,152.7063031995873L107.78375908427385,132.2475378888515A170.6070045455344,170.6070045455344,0,0,0,108.64039776892163,131.54472232898775Z" fill-rule="evenodd" style="fill: #1DC690; stroke: #fff; opacity: 1;" id="p-type-logs"></path><path d="M124.45796464315056,152.7063031995873A197,197,0,0,1,123.46355361283292,153.5114032549085L106.92257387021532,132.9447749893479A170.6070045455344,170.6070045455344,0,0,0,107.78375908427385,132.2475378888515Z" fill-rule="evenodd" style="fill: #1DC690; stroke: #fff; opacity: 1;" id="p-type-logs"></path><path d="M123.46355361283292,153.5114032549085A197,197,0,0,1,122.46393464875582,154.31002789950256L106.05687845321987,133.6364042196547A170.6070045455344,170.6070045455344,0,0,0,106.92257387021532,132.9447749893479Z" fill-rule="evenodd" style="fill: #1DC690; stroke: #fff; opacity: 1;" id="p-type-logs"></path><path d="M122.46393464875582,154.31002789950256A197,197,0,0,1,121.45914991679896,155.10214344582266L105.18670935001049,134.32239640550048A170.6070045455344,170.6070045455344,0,0,0,106.05687845321987,133.6364042196547Z" fill-rule="evenodd" style="fill: #1DC690; stroke: #fff; opacity: 1;" id="p-type-logs"></path><path d="M121.45914991679896,155.10214344582266A197,197,0,0,1,120.44924180074425,155.8877164808884L104.31210326601902,135.00272261039547A170.6070045455344,170.6070045455344,0,0,0,105.18670935001049,134.32239640550048Z" fill-rule="evenodd" style="fill: #1DC690; stroke: #fff; opacity: 1;" id="p-type-logs"></path><path d="M120.44924180074425,155.8877164808884A197,197,0,0,1,119.43425290048788,156.66671386769528L103.43309709383777,135.6773541368519A170.6070045455344,170.6070045455344,0,0,0,104.31210326601902,135.00272261039547Z" fill-rule="evenodd" style="fill: #1DC690; stroke: #fff; opacity: 1;" id="p-type-logs"></path><path d="M119.43425290048788,156.66671386769528A197,197,0,0,1,118.41422603024347,157.4391027466125L102.54972791166338,136.3462625275948A170.6070045455344,170.6070045455344,0,0,0,103.43309709383777,135.6773541368519Z" fill-rule="evenodd" style="fill: #1DC690; stroke: #fff; opacity: 1;" id="p-type-logs"></path><path d="M118.41422603024347,157.4391027466125A197,197,0,0,1,117.38920421673609,158.20485053676902L101.6620329817328,137.00941956676215A170.6070045455344,170.6070045455344,0,0,0,102.54972791166338,136.3462625275948Z" fill-rule="evenodd" style="fill: #1DC690; stroke: #fff; opacity: 1;" id="p-type-logs"></path><path d="M117.38920421673609,158.20485053676902A197,197,0,0,1,116.3592306973872,158.96392493742792L100.7700497487514,137.6667972810952A170.6070045455344,170.6070045455344,0,0,0,101.6620329817328,137.00941956676215Z" fill-rule="evenodd" style="fill: #1DC690; stroke: #fff; opacity: 1;" id="p-type-logs"></path><path d="M116.3592306973872,158.96392493742792A197,197,0,0,1,115.32434891849094,159.71629392934884L99.8738158383136,138.31836794111842A170.6070045455344,170.6070045455344,0,0,0,100.7700497487514,137.6667972810952Z" fill-rule="evenodd" style="fill: #1DC690; stroke: #fff; opacity: 1;" id="p-type-logs"></path><path d="M115.32434891849094,159.71629392934884A197,197,0,0,1,114.2846025333814,160.46192577613868L98.9733690553157,138.9641040623091A170.6070045455344,170.6070045455344,0,0,0,99.8738158383136,138.31836794111842Z" fill-rule="evenodd" style="fill: #1DC690; stroke: #fff; opacity: 1;" id="p-type-logs"></path><path d="M114.2846025333814,160.46192577613868A197,197,0,0,1,113.24003540059122,161.2007890255902L98.06874738236114,139.60397840625686A170.6070045455344,170.6070045455344,0,0,0,98.9733690553157,138.9641040623091Z" fill-rule="evenodd" style="fill: #1DC690; stroke: #fff; opacity: 1;" id="p-type-logs"></path><path d="M113.24003540059122,161.2007890255902A197,197,0,0,1,112.19069158200166,161.93285251100897L97.15998897815841,140.23796398181247A170.6070045455344,170.6070045455344,0,0,0,98.06874738236114,139.60397840625686Z" fill-rule="evenodd" style="fill: #1DC690; stroke: #fff; opacity: 1;" id="p-type-logs"></path><path d="M112.19069158200166,161.93285251100897A197,197,0,0,1,111.13661534098385,162.65808535252773L96.24713217591137,140.8660340462265A170.6070045455344,170.6070045455344,0,0,0,97.15998897815841,140.23796398181247Z" fill-rule="evenodd" style="fill: #1DC690; stroke: #fff; opacity: 1;" id="p-type-logs"></path><path d="M111.13661534098385,162.65808535252773A197,197,0,0,1,110.07785114053179,163.37645695840916L95.33021548170237,141.48816210627726A170.6070045455344,170.6070045455344,0,0,0,96.24713217591137,140.8660340462265Z" fill-rule="evenodd" style="fill: #1DC690; stroke: #fff; opacity: 1;" id="p-type-logs"></path><path d="M110.07785114053179,163.37645695840916A197,197,0,0,1,109.01444364138673,164.08793702633633L94.40927757286786,142.10432191938847A170.6070045455344,170.6070045455344,0,0,0,95.33021548170237,141.48816210627726Z" fill-rule="evenodd" style="fill: #1DC690; stroke: #fff; opacity: 1;" id="p-type-logs"></path><path d="M109.01444364138673,164.08793702633633A197,197,0,0,1,107.94643770015333,164.79249554469072L93.48435729636704,142.7144874947361A170.6070045455344,170.6070045455344,0,0,0,94.40927757286786,142.10432191938847Z" fill-rule="evenodd" style="fill: #1DC690; stroke: #fff; opacity: 1;" id="p-type-logs"></path><path d="M107.94643770015333,164.79249554469072A197,197,0,0,1,106.87387836740753,165.49010279381838L92.55549366714308,143.31863309434482A170.6070045455344,170.6070045455344,0,0,0,93.48435729636704,142.7144874947361Z" fill-rule="evenodd" style="fill: #1DC690; stroke: #fff; opacity: 1;" id="p-type-logs"></path><path d="M106.87387836740753,165.49010279381838A197,197,0,0,1,105.7968108857962,166.18072934728346L91.62272586647755,143.91673323417368A170.6070045455344,170.6070045455344,0,0,0,92.55549366714308,143.31863309434482Z" fill-rule="evenodd" style="fill: #1DC690; stroke: #fff; opacity: 1;" id="p-type-logs"></path><path d="M105.7968108857962,166.18072934728346A197,197,0,0,1,104.71528068812873,166.86434607310937L90.68609324033751,144.50876268519085A170.6070045455344,170.6070045455344,0,0,0,91.62272586647755,143.91673323417368Z" fill-rule="evenodd" style="fill: #1DC690; stroke: #fff; opacity: 1;" id="p-type-logs"></path><path d="M104.71528068812873,166.86434607310937A197,197,0,0,1,103.6293333954606,167.54092413500788L89.74563529771598,145.0946964744382A170.6070045455344,170.6070045455344,0,0,0,90.68609324033751,144.50876268519085Z" fill-rule="evenodd" style="fill: #1DC690; stroke: #fff; opacity: 1;" id="p-type-logs"></path><path d="M103.6293333954606,167.54092413500788A197,197,0,0,1,102.539014815169,168.21043499359533L88.80139170896526,145.67450988608445A170.6070045455344,170.6070045455344,0,0,0,89.74563529771598,145.0946964744382Z" fill-rule="evenodd" style="fill: #1DC690; stroke: #fff; opacity: 1;" id="p-type-logs"></path><path d="M102.539014815169,168.21043499359533A197,197,0,0,1,101.44437093902049,168.87285040759636L87.85340230412359,146.24817846246773A170.6070045455344,170.6070045455344,0,0,0,88.80139170896526,145.67450988608445Z" fill-rule="evenodd" style="fill: #1DC690; stroke: #fff; opacity: 1;" id="p-type-logs"></path><path d="M101.44437093902049,168.87285040759636A197,197,0,0,1,100.34544794123114,169.52814243503548L86.90170707123507,146.8156780051274A170.6070045455344,170.6070045455344,0,0,0,87.85340230412359,146.24817846246773Z" fill-rule="evenodd" style="fill: #1DC690; stroke: #fff; opacity: 1;" id="p-type-logs"></path><path d="M100.34544794123114,169.52814243503548A197,197,0,0,1,99.24229217651869,170.17628343441544L85.94634615466283,147.3769845758247A170.6070045455344,170.6070045455344,0,0,0,86.90170707123507,146.8156780051274Z" fill-rule="evenodd" style="fill: #1DC690; stroke: #fff; opacity: 1;" id="p-type-logs"></path><path d="M99.24229217651869,170.17628343441544A197,197,0,0,1,98.13495017814726,170.8172460658834L84.98735985339574,147.9320744975525A170.6070045455344,170.6070045455344,0,0,0,85.94634615466283,147.3769845758247Z" fill-rule="evenodd" style="fill: #1DC690; stroke: #fff; opacity: 1;" id="p-type-logs"></path><path d="M98.13495017814726,170.8172460658834A197,197,0,0,1,97.02346865596446,171.45100329238403L84.02478861934844,148.480924355534A170.6070045455344,170.6070045455344,0,0,0,84.98735985339574,147.9320744975525Z" fill-rule="evenodd" style="fill: #1DC690; stroke: #fff; opacity: 1;" id="p-type-logs"></path><path d="M97.02346865596446,171.45100329238403A197,197,0,0,1,95.90789449443112,172.07752838080012L83.05867305565505,149.0235109982106A170.6070045455344,170.6070045455344,0,0,0,84.02478861934844,148.480924355534Z" fill-rule="evenodd" style="fill: #1DC690; stroke: #fff; opacity: 1;" id="p-type-logs"></path><path d="M95.90789449443112,172.07752838080012A197,197,0,0,1,94.78827475064358,172.69679490308008L82.08905391495641,149.5598115382183A170.6070045455344,170.6070045455344,0,0,0,83.05867305565505,149.0235109982106Z" fill-rule="evenodd" style="fill: #1DC690; stroke: #fff; opacity: 1;" id="p-type-logs"></path><path d="M94.78827475064358,172.69679490308008A197,197,0,0,1,93.66465665234875,173.30877673735284L81.11597209768114,150.08980335335312A170.6070045455344,170.6070045455344,0,0,0,82.08905391495641,149.5598115382183Z" fill-rule="evenodd" style="fill: #1DC690; stroke: #fff; opacity: 1;" id="p-type-logs"></path><path d="M93.66465665234875,173.30877673735284A197,197,0,0,1,92.53708759595192,173.91344806902978L80.13946865032023,150.6134640875255A170.6070045455344,170.6070045455344,0,0,0,81.11597209768114,150.08980335335312Z" fill-rule="evenodd" style="fill: #1DC690; stroke: #fff; opacity: 1;" id="p-type-logs"></path><path d="M92.53708759595192,173.91344806902978A197,197,0,0,1,91.40561514451751,174.51078339189343L79.15958476369578,151.1307716517032A170.6070045455344,170.6070045455344,0,0,0,80.13946865032023,150.6134640875255Z" fill-rule="evenodd" style="fill: #1DC690; stroke: #fff; opacity: 1;" id="p-type-logs"></path><path d="M91.40561514451751,174.51078339189343A197,197,0,0,1,90.2702870257628,175.10075750917358L78.1763617712234,151.6417042248431A170.6070045455344,170.6070045455344,0,0,0,79.15958476369578,151.1307716517032Z" fill-rule="evenodd" style="fill: #1DC690; stroke: #fff; opacity: 1;" id="p-type-logs"></path><path d="M90.2702870257628,175.10075750917358A197,197,0,0,1,89.13115113004459,175.68334553460994L77.18984114716869,152.14624025481163A170.6070045455344,170.6070045455344,0,0,0,78.1763617712234,151.6417042248431Z" fill-rule="evenodd" style="fill: #1DC690; stroke: #fff; opacity: 1;" id="p-type-logs"></path><path d="M89.13115113004459,175.68334553460994A197,197,0,0,1,87.9882555083392,176.25852289350215L76.20006450489781,152.64435845929393A170.6070045455344,170.6070045455344,0,0,0,77.18984114716869,152.14624025481163Z" fill-rule="evenodd" style="fill: #1DC690; stroke: #fff; opacity: 1;" id="p-type-logs"></path><path d="M87.9882555083392,176.25852289350215A197,197,0,0,1,86.84164837021547,176.8262653237461L75.2070735951221,153.13603782669148A170.6070045455344,170.6070045455344,0,0,0,76.20006450489781,152.64435845929393Z" fill-rule="evenodd" style="fill: #1DC690; stroke: #fff; opacity: 1;" id="p-type-logs"></path><path d="M86.84164837021547,176.8262653237461A197,197,0,0,1,85.69137808180132,177.38654887685757L74.21091030413699,153.62125761700864A170.6070045455344,170.6070045455344,0,0,0,75.2070735951221,153.13603782669148Z" fill-rule="evenodd" style="fill: #1DC690; stroke: #fff; opacity: 1;" id="p-type-logs"></path><path d="M85.69137808180132,177.38654887685757A197,197,0,0,1,84.53749316374346,177.93934991898232L73.21161665205516,154.09999736272718A170.6070045455344,170.6070045455344,0,0,0,74.21091030413699,153.62125761700864Z" fill-rule="evenodd" style="fill: #1DC690; stroke: #fff; opacity: 1;" id="p-type-logs"></path><path d="M84.53749316374346,177.93934991898232A197,197,0,0,1,83.38004228916076,178.48464513189296L72.209234791034,154.57223686966984A170.6070045455344,170.6070045455344,0,0,0,73.21161665205516,154.09999736272718Z" fill-rule="evenodd" style="fill: #1DC690; stroke: #fff; opacity: 1;" id="p-type-logs"></path><path d="M83.38004228916076,178.48464513189296A197,197,0,0,1,82.21907428159105,179.02241151397277L71.20380700349763,155.0379562178522A170.6070045455344,170.6070045455344,0,0,0,72.209234791034,154.57223686966984Z" fill-rule="evenodd" style="fill: #1DC690; stroke: #fff; opacity: 1;" id="p-type-logs"></path><path d="M82.21907428159105,179.02241151397277A197,197,0,0,1,81.05463811293174,179.55262638118572L70.19537570035325,155.4971357623228A170.6070045455344,170.6070045455344,0,0,0,71.20380700349763,155.0379562178522Z" fill-rule="evenodd" style="fill: #1DC690; stroke: #fff; opacity: 1;" id="p-type-logs"></path><path d="M81.05463811293174,179.55262638118572A197,197,0,0,1,79.88678290137406,180.07526736803345L69.18398341920225,155.9497561339919A170.6070045455344,170.6070045455344,0,0,0,70.19537570035325,155.4971357623228Z" fill-rule="evenodd" style="fill: #1DC690; stroke: #fff; opacity: 1;" id="p-type-logs"></path><path d="M79.88678290137406,180.07526736803345A197,197,0,0,1,78.71555790933111,180.5903124284986L68.16967282254583,156.39579824044844A170.6070045455344,170.6070045455344,0,0,0,69.18398341920225,155.9497561339919Z" fill-rule="evenodd" style="fill: #1DC690; stroke: #fff; opacity: 1;" id="p-type-logs"></path><path d="M78.71555790933111,180.5903124284986A197,197,0,0,1,77.54101254135992,181.09773983697497L67.15248669598544,156.83524326676545A170.6070045455344,170.6070045455344,0,0,0,68.16967282254583,156.39579824044844Z" fill-rule="evenodd" style="fill: #1DC690; stroke: #fff; opacity: 1;" id="p-type-logs"></path><path d="M77.54101254135992,181.09773983697497A197,197,0,0,1,76.36319634207747,181.59752818918358L66.132467946418,157.26807267629368A170.6070045455344,170.6070045455344,0,0,0,67.15248669598544,156.83524326676545Z" fill-rule="evenodd" style="fill: #1DC690; stroke: #fff; opacity: 1;" id="p-type-logs"></path><path d="M76.36319634207747,181.59752818918358A197,197,0,0,1,75.18215899407078,182.08965640307596L65.10965960022601,157.69426821144353A170.6070045455344,170.6070045455344,0,0,0,66.132467946418,157.26807267629368Z" fill-rule="evenodd" style="fill: #1DC690; stroke: #fff; opacity: 1;" id="p-type-logs"></path><path d="M75.18215899407078,182.08965640307596A197,197,0,0,1,73.9979503158012,182.57410371972313L64.08410480146257,158.11381189445518A170.6070045455344,170.6070045455344,0,0,0,65.10965960022601,157.69426821144353Z" fill-rule="evenodd" style="fill: #1DC690; stroke: #fff; opacity: 1;" id="p-type-logs"></path><path d="M73.9979503158012,182.57410371972313A197,197,0,0,1,72.81062025950304,183.05084970419134L63.05584681003155,158.5266860281569A170.6070045455344,170.6070045455344,0,0,0,64.08410480146257,158.11381189445518Z" fill-rule="evenodd" style="fill: #1DC690; stroke: #fff; opacity: 1;" id="p-type-logs"></path><path d="M72.81062025950304,183.05084970419134A197,197,0,0,1,71.62021890907636,183.5198742464041L62.02492899986274,158.9328731967115A170.6070045455344,170.6070045455344,0,0,0,63.05584681003155,158.5266860281569Z" fill-rule="evenodd" style="fill: #1DC690; stroke: #fff; opacity: 1;" id="p-type-logs"></path><path d="M71.62021890907636,183.5198742464041A197,197,0,0,1,70.42679647797443,183.9811575619905L60.991394857082284,159.33235626635124A170.6070045455344,170.6070045455344,0,0,0,62.02492899986274,158.9328731967115Z" fill-rule="evenodd" style="fill: #1DC690; stroke: #fff; opacity: 1;" id="p-type-logs"></path><path d="M70.42679647797443,183.9811575619905A197,197,0,0,1,69.23040330708561,184.4346801931195L59.955287978178355,159.72511838610012A170.6070045455344,170.6070045455344,0,0,0,60.991394857082284,159.33235626635124Z" fill-rule="evenodd" style="fill: #1DC690; stroke: #fff; opacity: 1;" id="p-type-logs"></path><path d="M69.23040330708561,184.4346801931195A197,197,0,0,1,68.03108986260986,184.88042300932108L58.916652068162136,160.1111429884851A170.6070045455344,170.6070045455344,0,0,0,59.955287978178355,159.72511838610012Z" fill-rule="evenodd" style="fill: #1DC690; stroke: #fff; opacity: 1;" id="p-type-logs"></path><path d="M68.03108986260986,184.88042300932108A197,197,0,0,1,66.82890673393,185.3183672082929L57.87553093872432,160.49041379023473A170.6070045455344,170.6070045455344,0,0,0,58.916652068162136,160.1111429884851Z" fill-rule="evenodd" style="fill: #1DC690; stroke: #fff; opacity: 1;" id="p-type-logs"></path><path d="M66.82890673393,185.3183672082929A197,197,0,0,1,65.62390463147767,185.74849431669352L56.83196850638695,160.862914792966A170.6070045455344,170.6070045455344,0,0,0,57.87553093872432,160.49041379023473Z" fill-rule="evenodd" style="fill: #1DC690; stroke: #fff; opacity: 1;" id="p-type-logs"></path><path d="M65.62390463147767,185.74849431669352A197,197,0,0,1,64.41613438459441,186.1707861909217L55.78600879065104,161.22863028385933A170.6070045455344,170.6070045455344,0,0,0,56.83196850638695,160.862914792966Z" fill-rule="evenodd" style="fill: #1DC690; stroke: #fff; opacity: 1;" id="p-type-logs"></path><path d="M64.41613438459441,186.1707861909217A197,197,0,0,1,63.20564693938745,186.58522501788156L54.737695912139685,161.58754483632123A170.6070045455344,170.6070045455344,0,0,0,55.78600879065104,161.22863028385933Z" fill-rule="evenodd" style="fill: #1DC690; stroke: #fff; opacity: 1;" id="p-type-logs"></path><path d="M63.20564693938745,186.58522501788156A197,197,0,0,1,61.99249335658075,186.9917933157343L53.68707409073698,161.9396433106351A170.6070045455344,170.6070045455344,0,0,0,54.737695912139685,161.58754483632123Z" fill-rule="evenodd" style="fill: #1DC690; stroke: #fff; opacity: 1;" id="p-type-logs"></path><path d="M61.99249335658075,186.9917933157343A197,197,0,0,1,60.77672480936118,187.39047393463517L52.634187643722726,162.28491085459973A170.6070045455344,170.6070045455344,0,0,0,53.68707409073698,161.9396433106351Z" fill-rule="evenodd" style="fill: #1DC690; stroke: #fff; opacity: 1;" id="p-type-logs"></path><path d="M60.77672480936118,187.39047393463517A197,197,0,0,1,59.558392581219884,187.78125005745724L51.57908098390306,162.62333290415606A170.6070045455344,170.6070045455344,0,0,0,52.634187643722726,162.28491085459973Z" fill-rule="evenodd" style="fill: #1DC690; stroke: #fff; opacity: 1;" id="p-type-logs"></path><path d="M59.558392581219884,187.78125005745724A197,197,0,0,1,58.337548063789114,188.1641052005007L50.52179861773706,162.9548951840012A170.6070045455344,170.6070045455344,0,0,0,51.57908098390306,162.62333290415606Z" fill-rule="evenodd" style="fill: #1DC690; stroke: #fff; opacity: 1;" id="p-type-logs"></path><path d="M58.337548063789114,188.1641052005007A197,197,0,0,1,57.11424275467436,188.53902321418803L49.46238514345931,163.27958370819084A170.6070045455344,170.6070045455344,0,0,0,50.52179861773706,162.9548951840012Z" fill-rule="evenodd" style="fill: #1DC690; stroke: #fff; opacity: 1;" id="p-type-logs"></path><path d="M57.11424275467436,188.53902321418803A197,197,0,0,1,55.888528255282125,188.90598828374533L48.40088524919871,163.597384780729A170.6070045455344,170.6070045455344,0,0,0,49.46238514345931,163.27958370819084Z" fill-rule="evenodd" style="fill: #1DC690; stroke: #fff; opacity: 1;" id="p-type-logs"></path><path d="M55.888528255282125,188.90598828374533A197,197,0,0,1,54.66045626864324,189.2649849298695L47.33734371109341,163.90828499614594A170.6070045455344,170.6070045455344,0,0,0,48.40088524919871,163.597384780729Z" fill-rule="evenodd" style="fill: #1DC690; stroke: #fff; opacity: 1;" id="p-type-logs"></path><path d="M54.66045626864324,189.2649849298695A197,197,0,0,1,53.430078597231976,189.6159980093811L46.27180539140212,164.2122712400636A170.6070045455344,170.6070045455344,0,0,0,47.33734371109341,163.90828499614594Z" fill-rule="evenodd" style="fill: #1DC690; stroke: #fff; opacity: 1;" id="p-type-logs"></path><path d="M53.430078597231976,189.6159980093811A197,197,0,0,1,52.19744714078089,189.95901271586294L45.204315236611656,164.50933068974854A170.6070045455344,170.6070045455344,0,0,0,46.27180539140212,164.2122712400636Z" fill-rule="evenodd" style="fill: #1DC690; stroke: #fff; opacity: 1;" id="p-type-logs"></path><path d="M52.19744714078089,189.95901271586294A197,197,0,0,1,50.96261389409156,190.29401458028508L44.13491827554109,164.79945081465323A170.6070045455344,170.6070045455344,0,0,0,45.204315236611656,164.50933068974854Z" fill-rule="evenodd" style="fill: #1DC690; stroke: #fff; opacity: 1;" id="p-type-logs"></path><path d="M50.96261389409156,190.29401458028508A197,197,0,0,1,49.72563094484141,190.62098947161465L43.06365961744226,165.0826193769443A170.6070045455344,170.6070045455344,0,0,0,44.13491827554109,164.79945081465323Z" fill-rule="evenodd" style="fill: #1DC690; stroke: #fff; opacity: 1;" id="p-type-logs"></path><path d="M49.72563094484141,190.62098947161465A197,197,0,0,1,48.486550471386515,190.93992359741242L41.990584450097074,165.35882443201893A170.6070045455344,170.6070045455344,0,0,0,43.06365961744226,165.0826193769443Z" fill-rule="evenodd" style="fill: #1DC690; stroke: #fff; opacity: 1;" id="p-type-logs"></path><path d="M-69.73512391052823,184.24443680389177A197,197,0,0,1,-70.93027085706676,183.78764016152758L-61.427416459530846,159.16476528147604A170.6070045455344,170.6070045455344,0,0,0,-60.39238884257308,159.56036277812686Z" fill-rule="evenodd" style="fill: #D7A449; stroke: #fff; opacity: 1;" id="p-type-tokenTransfers"></path><path d="M-70.93027085706676,183.78764016152758A197,197,0,0,1,-72.12242582628605,183.32309099764785L-62.459852948122595,158.76245390424936A170.6070045455344,170.6070045455344,0,0,0,-61.427416459530846,159.16476528147604Z" fill-rule="evenodd" style="fill: #D7A449; stroke: #fff; opacity: 1;" id="p-type-tokenTransfers"></path><path d="M-72.12242582628605,183.32309099764785A197,197,0,0,1,-73.31153853076172,182.85080890784332L-63.48965475816136,158.35344561672625A170.6070045455344,170.6070045455344,0,0,0,-62.459852948122595,158.76245390424936Z" fill-rule="evenodd" style="fill: #D7A449; stroke: #fff; opacity: 1;" id="p-type-tokenTransfers"></path><path d="M-73.31153853076172,182.85080890784332A197,197,0,0,1,-74.49755881139815,182.37081381389478L-64.51677845059605,157.9377576716749A170.6070045455344,170.6070045455344,0,0,0,-63.48965475816136,158.35344561672625Z" fill-rule="evenodd" style="fill: #D7A449; stroke: #fff; opacity: 1;" id="p-type-tokenTransfers"></path><path d="M-74.49755881139815,182.37081381389478A197,197,0,0,1,-75.68043663954413,181.88312596293244L-65.54118069934383,157.51540760362448A170.6070045455344,170.6070045455344,0,0,0,-64.51677845059605,157.9377576716749Z" fill-rule="evenodd" style="fill: #D7A449; stroke: #fff; opacity: 1;" id="p-type-tokenTransfers"></path><path d="M-75.68043663954413,181.88312596293244A197,197,0,0,1,-76.86012211910322,181.3877659265821L-66.56281829311763,157.0864132281255A170.6070045455344,170.6070045455344,0,0,0,-65.54118069934383,157.51540760362448Z" fill-rule="evenodd" style="fill: #D7A449; stroke: #fff; opacity: 1;" id="p-type-tokenTransfers"></path><path d="M-76.86012211910322,181.3877659265821A197,197,0,0,1,-78.03656548863853,180.88475460009732L-67.58164813724898,156.65079264099836A170.6070045455344,170.6070045455344,0,0,0,-66.56281829311763,157.0864132281255Z" fill-rule="evenodd" style="fill: #D7A449; stroke: #fff; opacity: 1;" id="p-type-tokenTransfers"></path><path d="M-78.03656548863853,180.88475460009732A197,197,0,0,1,-79.20971712347168,180.374113201478L-68.59762725550573,156.20856421757003A170.6070045455344,170.6070045455344,0,0,0,-67.58164813724898,156.65079264099836Z" fill-rule="evenodd" style="fill: #D7A449; stroke: #fff; opacity: 1;" id="p-type-tokenTransfers"></path><path d="M-79.20971712347168,180.374113201478A197,197,0,0,1,-80.37952753777607,179.85586327057536L-69.61071279190492,155.7597466118988A170.6070045455344,170.6070045455344,0,0,0,-68.59762725550573,156.20856421757003Z" fill-rule="evenodd" style="fill: #D7A449; stroke: #fff; opacity: 1;" id="p-type-tokenTransfers"></path><path d="M-80.37952753777607,179.85586327057536A197,197,0,0,1,-81.54594738666431,179.33002666818342L-70.62086201252055,155.3043587559877A170.6070045455344,170.6070045455344,0,0,0,-69.61071279190492,155.7597466118988Z" fill-rule="evenodd" style="fill: #D7A449; stroke: #fff; opacity: 1;" id="p-type-tokenTransfers"></path><path d="M-81.54594738666431,179.33002666818342A197,197,0,0,1,-82.7089274682697,178.79662557511676L-71.62803230728612,154.84241985898558A170.6070045455344,170.6070045455344,0,0,0,-70.62086201252055,155.3043587559877Z" fill-rule="evenodd" style="fill: #D7A449; stroke: #fff; opacity: 1;" id="p-type-tokenTransfers"></path><path d="M-82.7089274682697,178.79662557511676A197,197,0,0,1,-83.86841872582164,178.25568249127502L-72.63218119179206,154.37394940637714A170.6070045455344,170.6070045455344,0,0,0,-71.62803230728612,154.84241985898558Z" fill-rule="evenodd" style="fill: #D7A449; stroke: #fff; opacity: 1;" id="p-type-tokenTransfers"></path><path d="M-83.86841872582164,178.25568249127502A197,197,0,0,1,-85.0243722497149,177.70722023469364L-73.63326630907777,153.89896715916072A170.6070045455344,170.6070045455344,0,0,0,-72.63218119179206,154.37394940637714Z" fill-rule="evenodd" style="fill: #D7A449; stroke: #fff; opacity: 1;" id="p-type-tokenTransfers"></path><path d="M-85.0243722497149,177.70722023469364A197,197,0,0,1,-86.17673927957281,177.15126194058155L-74.63124543141834,153.417493153015A170.6070045455344,170.6070045455344,0,0,0,-73.63326630907777,153.89896715916072Z" fill-rule="evenodd" style="fill: #D7A449; stroke: #fff; opacity: 1;" id="p-type-tokenTransfers"></path><path d="M-86.17673927957281,177.15126194058155A197,197,0,0,1,-87.325471206304,176.58783106034508L-75.6260764621058,152.9295476974536A170.6070045455344,170.6070045455344,0,0,0,-74.63124543141834,153.417493153015Z" fill-rule="evenodd" style="fill: #D7A449; stroke: #fff; opacity: 1;" id="p-type-tokenTransfers"></path><path d="M-87.325471206304,176.58783106034508A197,197,0,0,1,-88.47051957415285,176.01695136059888L-76.6177174372248,152.43515137496854A170.6070045455344,170.6070045455344,0,0,0,-75.6260764621058,152.9295476974536Z" fill-rule="evenodd" style="fill: #D7A449; stroke: #fff; opacity: 1;" id="p-type-tokenTransfers"></path><path d="M-88.47051957415285,176.01695136059888A197,197,0,0,1,-89.61183608274344,175.43864692216343L-77.60612652742282,151.93432504016215A170.6070045455344,170.6070045455344,0,0,0,-76.6177174372248,152.43515137496854Z" fill-rule="evenodd" style="fill: #D7A449; stroke: #fff; opacity: 1;" id="p-type-tokenTransfers"></path><path d="M-89.61183608274344,175.43864692216343A197,197,0,0,1,-90.74937258911697,174.85294213904902L-78.59126203967449,151.42708981886702A170.6070045455344,170.6070045455344,0,0,0,-77.60612652742282,151.93432504016215Z" fill-rule="evenodd" style="fill: #D7A449; stroke: #fff; opacity: 1;" id="p-type-tokenTransfers"></path><path d="M-90.74937258911697,174.85294213904902A197,197,0,0,1,-91.88308110976251,174.25986171742707L-79.57308241904042,150.91346710725523A170.6070045455344,170.6070045455344,0,0,0,-78.59126203967449,151.42708981886702Z" fill-rule="evenodd" style="fill: #D7A449; stroke: #fff; opacity: 1;" id="p-type-tokenTransfers"></path><path d="M-91.88308110976251,174.25986171742707A197,197,0,0,1,-93.01291382264105,173.65943067458775L-80.55154625041992,150.39347857093557A170.6070045455344,170.6070045455344,0,0,0,-79.57308241904042,150.91346710725523Z" fill-rule="evenodd" style="fill: #D7A449; stroke: #fff; opacity: 1;" id="p-type-tokenTransfers"></path><path d="M-93.01291382264105,173.65943067458775A197,197,0,0,1,-94.1388230692027,173.05167433788483L-81.5266122602981,149.86714614403988A170.6070045455344,170.6070045455344,0,0,0,-80.55154625041992,150.39347857093557Z" fill-rule="evenodd" style="fill: #D7A449; stroke: #fff; opacity: 1;" id="p-type-tokenTransfers"></path><path d="M-94.1388230692027,173.05167433788483A197,197,0,0,1,-95.26076135639707,172.43661834366728L-82.49823931848682,149.33449202829757A170.6070045455344,170.6070045455344,0,0,0,-81.5266122602981,149.86714614403988Z" fill-rule="evenodd" style="fill: #D7A449; stroke: #fff; opacity: 1;" id="p-type-tokenTransfers"></path><path d="M-95.26076135639707,172.43661834366728A197,197,0,0,1,-96.37868135867656,171.8142886361978L-83.46638643985962,148.79553869209929A170.6070045455344,170.6070045455344,0,0,0,-82.49823931848682,149.33449202829757Z" fill-rule="evenodd" style="fill: #D7A449; stroke: #fff; opacity: 1;" id="p-type-tokenTransfers"></path><path d="M-96.37868135867656,171.8142886361978A197,197,0,0,1,-97.49253591999268,171.18471146655867L-84.43101278608054,148.2503088695491A170.6070045455344,170.6070045455344,0,0,0,-83.46638643985962,148.79553869209929Z" fill-rule="evenodd" style="fill: #D7A449; stroke: #fff; opacity: 1;" id="p-type-tokenTransfers"></path><path d="M-97.49253591999268,171.18471146655867A197,197,0,0,1,-98.60227805578519,170.54791339154409L-85.39207766732686,147.69882555950542A170.6070045455344,170.6070045455344,0,0,0,-84.43101278608054,148.2503088695491Z" fill-rule="evenodd" style="fill: #D7A449; stroke: #fff; opacity: 1;" id="p-type-tokenTransfers"></path><path d="M-98.60227805578519,170.54791339154409A197,197,0,0,1,-99.70786095496398,169.9039212725403L-86.34954054400534,147.14111202461118A170.6070045455344,170.6070045455344,0,0,0,-85.39207766732686,147.69882555950542Z" fill-rule="evenodd" style="fill: #D7A449; stroke: #fff; opacity: 1;" id="p-type-tokenTransfers"></path><path d="M-99.70786095496398,169.9039212725403A197,197,0,0,1,-100.80923798188367,169.25276227439227L-87.30336102846238,146.57719179031216A170.6070045455344,170.6070045455344,0,0,0,-86.34954054400534,147.14111202461118Z" fill-rule="evenodd" style="fill: #D7A449; stroke: #fff; opacity: 1;" id="p-type-tokenTransfers"></path><path d="M-100.80923798188367,169.25276227439227A197,197,0,0,1,-101.90636267831077,168.594463864258L-88.25349888668754,146.00708864386496A170.6070045455344,170.6070045455344,0,0,0,-87.30336102846238,146.57719179031216Z" fill-rule="evenodd" style="fill: #D7A449; stroke: #fff; opacity: 1;" id="p-type-tokenTransfers"></path><path d="M-101.90636267831077,168.594463864258A197,197,0,0,1,-102.99918876538341,167.92905381044972L-89.19991404001078,145.43082663333342A170.6070045455344,170.6070045455344,0,0,0,-88.25349888668754,146.00708864386496Z" fill-rule="evenodd" style="fill: #D7A449; stroke: #fff; opacity: 1;" id="p-type-tokenTransfers"></path><path d="M-102.99918876538341,167.92905381044972A197,197,0,0,1,-104.08767014556342,167.25656018126278L-90.14256656679302,144.84843006657437A170.6070045455344,170.6070045455344,0,0,0,-89.19991404001078,145.43082663333342Z" fill-rule="evenodd" style="fill: #D7A449; stroke: #fff; opacity: 1;" id="p-type-tokenTransfers"></path><path d="M-104.08767014556342,167.25656018126278A197,197,0,0,1,-105.17176090458089,166.57701134379158L-91.08141670411011,144.2599235102121A170.6070045455344,170.6070045455344,0,0,0,-90.14256656679302,144.84843006657437Z" fill-rule="evenodd" style="fill: #D7A449; stroke: #fff; opacity: 1;" id="p-type-tokenTransfers"></path><path d="M-105.17176090458089,166.57701134379158A197,197,0,0,1,-106.2514153133709,165.89043596273288L-92.01642484943012,143.6653317886023A170.6070045455344,170.6070045455344,0,0,0,-91.08141670411011,144.2599235102121Z" fill-rule="evenodd" style="fill: #D7A449; stroke: #fff; opacity: 1;" id="p-type-tokenTransfers"></path><path d="M-106.2514153133709,165.89043596273288A197,197,0,0,1,-107.32658783000237,165.1968629991768L-92.9475515622838,143.06467998278467A170.6070045455344,170.6070045455344,0,0,0,-92.01642484943012,143.6653317886023Z" fill-rule="evenodd" style="fill: #D7A449; stroke: #fff; opacity: 1;" id="p-type-tokenTransfers"></path><path d="M-107.32658783000237,165.1968629991768A197,197,0,0,1,-108.39723310159923,164.49632170938523L-93.87475756592839,142.45799342942524A170.6070045455344,170.6070045455344,0,0,0,-92.9475515622838,143.06467998278467Z" fill-rule="evenodd" style="fill: #D7A449; stroke: #fff; opacity: 1;" id="p-type-tokenTransfers"></path><path d="M-108.39723310159923,164.49632170938523A197,197,0,0,1,-109.46330596625347,163.7888416435576L-94.79800374900421,141.84529771974744A170.6070045455344,170.6070045455344,0,0,0,-93.87475756592839,142.45799342942524Z" fill-rule="evenodd" style="fill: #D7A449; stroke: #fff; opacity: 1;" id="p-type-tokenTransfers"></path><path d="M-109.46330596625347,163.7888416435576A197,197,0,0,1,-110.52476145493007,163.07445264458443L-95.71725116718457,141.22661869845254A170.6070045455344,170.6070045455344,0,0,0,-94.79800374900421,141.84529771974744Z" fill-rule="evenodd" style="fill: #D7A449; stroke: #fff; opacity: 1;" id="p-type-tokenTransfers"></path><path d="M-110.52476145493007,163.07445264458443A197,197,0,0,1,-111.58155479336402,162.3531848467886L-96.63246104481853,140.6019824626297A170.6070045455344,170.6070045455344,0,0,0,-95.71725116718457,141.22661869845254Z" fill-rule="evenodd" style="fill: #D7A449; stroke: #fff; opacity: 1;" id="p-type-tokenTransfers"></path><path d="M-111.58155479336402,162.3531848467886A197,197,0,0,1,-112.63364140394883,161.62506867465413L-97.54359477656645,139.97141536065496A170.6070045455344,170.6070045455344,0,0,0,-96.63246104481853,140.6019824626297Z" fill-rule="evenodd" style="fill: #D7A449; stroke: #fff; opacity: 1;" id="p-type-tokenTransfers"></path><path d="M-112.63364140394883,161.62506867465413A197,197,0,0,1,-113.68097690761704,160.89013484154285L-98.45061392902849,139.33494399107994A170.6070045455344,170.6070045455344,0,0,0,-97.54359477656645,139.97141536065496Z" fill-rule="evenodd" style="fill: #D7A449; stroke: #fff; opacity: 1;" id="p-type-tokenTransfers"></path><path d="M-113.68097690761704,160.89013484154285A197,197,0,0,1,-114.72351712571214,160.1484143483988L-99.35348024236582,138.69259520150968A170.6070045455344,170.6070045455344,0,0,0,-98.45061392902849,139.33494399107994Z" fill-rule="evenodd" style="fill: #D7A449; stroke: #fff; opacity: 1;" id="p-type-tokenTransfers"></path><path d="M-114.72351712571214,160.1484143483988A197,197,0,0,1,-115.7612180818521,159.3999384824407L-100.25215563191442,138.04439608747037A170.6070045455344,170.6070045455344,0,0,0,-99.35348024236582,138.69259520150968Z" fill-rule="evenodd" style="fill: #D7A449; stroke: #fff; opacity: 1;" id="p-type-tokenTransfers"></path><path d="M-115.7612180818521,159.3999384824407A197,197,0,0,1,-116.79403600378447,158.64473881584192L-101.14660218979171,137.3903739912663A170.6070045455344,170.6070045455344,0,0,0,-100.25215563191442,138.04439608747037Z" fill-rule="evenodd" style="fill: #D7A449; stroke: #fff; opacity: 1;" id="p-type-tokenTransfers"></path><path d="M-116.79403600378447,158.64473881584192A197,197,0,0,1,-117.82192732523265,157.88284720439898L-102.03678218649539,136.73055650082645A170.6070045455344,170.6070045455344,0,0,0,-101.14660218979171,137.3903739912663Z" fill-rule="evenodd" style="fill: #D7A449; stroke: #fff; opacity: 1;" id="p-type-tokenTransfers"></path><path d="M-117.82192732523265,157.88284720439898A197,197,0,0,1,-118.84484868773372,157.1142957861877L-102.9226580724951,136.06497144854094A170.6070045455344,170.6070045455344,0,0,0,-102.03678218649539,136.73055650082645Z" fill-rule="evenodd" style="fill: #D7A449; stroke: #fff; opacity: 1;" id="p-type-tokenTransfers"></path><path d="M-118.84484868773372,157.1142957861877A197,197,0,0,1,-119.86275694246727,156.33911698020754L-103.80419247981624,135.3936469100868A170.6070045455344,170.6070045455344,0,0,0,-102.9226580724951,136.06497144854094Z" fill-rule="evenodd" style="fill: #D7A449; stroke: #fff; opacity: 1;" id="p-type-tokenTransfers"></path><path d="M-119.86275694246727,156.33911698020754A197,197,0,0,1,-120.87560915207564,155.55734348501406L-104.6813482236163,134.7166112032439A170.6070045455344,170.6070045455344,0,0,0,-103.80419247981624,135.3936469100868Z" fill-rule="evenodd" style="fill: #D7A449; stroke: #fff; opacity: 1;" id="p-type-tokenTransfers"></path><path d="M-120.87560915207564,155.55734348501406A197,197,0,0,1,-121.883362592475,154.7690082773398L-105.5540883037533,134.0338928867003A170.6070045455344,170.6070045455344,0,0,0,-104.6813482236163,134.7166112032439Z" fill-rule="evenodd" style="fill: #D7A449; stroke: #fff; opacity: 1;" id="p-type-tokenTransfers"></path><path d="M-121.883362592475,154.7690082773398A197,197,0,0,1,-122.88597475465751,153.97414461070298L-106.4223759063466,133.34552075884758A170.6070045455344,170.6070045455344,0,0,0,-105.5540883037533,134.0338928867003Z" fill-rule="evenodd" style="fill: #D7A449; stroke: #fff; opacity: 1;" id="p-type-tokenTransfers"></path><path d="M-122.88597475465751,153.97414461070298A197,197,0,0,1,-123.88340334648457,153.17278601400517L-107.28617440532977,132.65152385656623A170.6070045455344,170.6070045455344,0,0,0,-106.4223759063466,133.34552075884758Z" fill-rule="evenodd" style="fill: #D7A449; stroke: #fff; opacity: 1;" id="p-type-tokenTransfers"></path><path d="M-123.88340334648457,153.17278601400517A197,197,0,0,1,-124.87560629447061,152.36496629011663L-108.1454473639955,131.95193145400063A170.6070045455344,170.6070045455344,0,0,0,-107.28617440532977,132.65152385656623Z" fill-rule="evenodd" style="fill: #D7A449; stroke: #fff; opacity: 1;" id="p-type-tokenTransfers"></path><path d="M-124.87560629447061,152.36496629011663A197,197,0,0,1,-125.86254174555799,151.55071951445058L-109.00015853653262,131.24677306132426A170.6070045455344,170.6070045455344,0,0,0,-108.1454473639955,131.95193145400063Z" fill-rule="evenodd" style="fill: #D7A449; stroke: #fff; opacity: 1;" id="p-type-tokenTransfers"></path><path d="M-125.86254174555799,151.55071951445058A197,197,0,0,1,-126.84416806888235,150.73008003352592L-109.85027186955503,130.536078423495A170.6070045455344,170.6070045455344,0,0,0,-109.00015853653262,131.24677306132426Z" fill-rule="evenodd" style="fill: #D7A449; stroke: #fff; opacity: 1;" id="p-type-tokenTransfers"></path><path d="M-126.84416806888235,150.73008003352592A197,197,0,0,1,-127.82044385752869,149.90308246351827L-110.69575150362245,129.8198775190004A170.6070045455344,170.6070045455344,0,0,0,-109.85027186955503,130.536078423495Z" fill-rule="evenodd" style="fill: #D7A449; stroke: #fff; opacity: 1;" id="p-type-tokenTransfers"></path><path d="M-127.82044385752869,149.90308246351827A197,197,0,0,1,-128.79132793027802,149.06976168879987L-111.53656177475307,129.09820055859296A170.6070045455344,170.6070045455344,0,0,0,-110.69575150362245,129.8198775190004Z" fill-rule="evenodd" style="fill: #D7A449; stroke: #fff; opacity: 1;" id="p-type-tokenTransfers"></path><path d="M-128.79132793027802,149.06976168879987A197,197,0,0,1,-129.75677933334447,148.23015286046814L-112.37266721592795,128.37107798401598A170.6070045455344,170.6070045455344,0,0,0,-111.53656177475307,129.09820055859296Z" fill-rule="evenodd" style="fill: #D7A449; stroke: #fff; opacity: 1;" id="p-type-tokenTransfers"></path><path d="M-129.75677933334447,148.23015286046814A197,197,0,0,1,-130.71675734210277,147.3842913948628L-113.20403255858703,127.6385404667194A170.6070045455344,170.6070045455344,0,0,0,-112.37266721592795,128.37107798401598Z" fill-rule="evenodd" style="fill: #D7A449; stroke: #fff; opacity: 1;" id="p-type-tokenTransfers"></path><path d="M-130.71675734210277,147.3842913948628A197,197,0,0,1,-131.6712214628061,146.53221297207202L-114.0306227341169,126.90061890656602A170.6070045455344,170.6070045455344,0,0,0,-113.20403255858703,127.6385404667194Z" fill-rule="evenodd" style="fill: #D7A449; stroke: #fff; opacity: 1;" id="p-type-tokenTransfers"></path><path d="M-131.6712214628061,146.53221297207202A197,197,0,0,1,-132.62013143429422,145.67395353442743L-114.85240287532999,126.15734443052807A170.6070045455344,170.6070045455344,0,0,0,-114.0306227341169,126.90061890656602Z" fill-rule="evenodd" style="fill: #D7A449; stroke: #fff; opacity: 1;" id="p-type-tokenTransfers"></path><path d="M-132.62013143429422,145.67395353442743A197,197,0,0,1,-133.56344722969175,144.80954928498792L-115.66933831793537,125.40874839137423A170.6070045455344,170.6070045455344,0,0,0,-114.85240287532999,126.15734443052807Z" fill-rule="evenodd" style="fill: #D7A449; stroke: #fff; opacity: 1;" id="p-type-tokenTransfers"></path><path d="M-133.56344722969175,144.80954928498792A197,197,0,0,1,-134.50112905809658,143.93903668601249L-116.48139460200099,124.65486236634709A170.6070045455344,170.6070045455344,0,0,0,-115.66933831793537,125.40874839137423Z" fill-rule="evenodd" style="fill: #D7A449; stroke: #fff; opacity: 1;" id="p-type-tokenTransfers"></path><path d="M-134.50112905809658,143.93903668601249A197,197,0,0,1,-135.4331373662583,143.06245245742227L-117.28853747340719,123.89571815583116A170.6070045455344,170.6070045455344,0,0,0,-116.48139460200099,124.65486236634709Z" fill-rule="evenodd" style="fill: #D7A449; stroke: #fff; opacity: 1;" id="p-type-tokenTransfers"></path><path d="M-135.4331373662583,143.06245245742227A197,197,0,0,1,-136.35943284024674,142.17983357525162L-118.09073288529171,123.13134778201156A170.6070045455344,170.6070045455344,0,0,0,-117.28853747340719,123.89571815583116Z" fill-rule="evenodd" style="fill: #D7A449; stroke: #fff; opacity: 1;" id="p-type-tokenTransfers"></path><path d="M-136.35943284024674,142.17983357525162A197,197,0,0,1,-137.27997640711007,141.2912172700883L-118.88794699948572,122.36178348752307A170.6070045455344,170.6070045455344,0,0,0,-118.09073288529171,123.13134778201156Z" fill-rule="evenodd" style="fill: #D7A449; stroke: #fff; opacity: 1;" id="p-type-tokenTransfers"></path><path d="M-137.27997640711007,141.2912172700883A197,197,0,0,1,-138.19472923652333,140.39664102550316L-119.68014618794129,121.58705773409027A170.6070045455344,170.6070045455344,0,0,0,-118.88794699948572,122.36178348752307Z" fill-rule="evenodd" style="fill: #D7A449; stroke: #fff; opacity: 1;" id="p-type-tokenTransfers"></path><path d="M-138.19472923652333,140.39664102550316A197,197,0,0,1,-139.10365274242605,139.4961425764689L-120.46729703414987,120.8072032011581A170.6070045455344,170.6070045455344,0,0,0,-119.68014618794129,121.58705773409027Z" fill-rule="evenodd" style="fill: #D7A449; stroke: #fff; opacity: 1;" id="p-type-tokenTransfers"></path><path d="M-139.10365274242605,139.4961425764689A197,197,0,0,1,-140.00670858465003,138.58975990776838L-121.24936633455178,120.02225278451351A170.6070045455344,170.6070045455344,0,0,0,-120.46729703414987,120.8072032011581Z" fill-rule="evenodd" style="fill: #D7A449; stroke: #fff; opacity: 1;" id="p-type-tokenTransfers"></path><path d="M-140.00670858465003,138.58975990776838A197,197,0,0,1,-140.90385867053658,137.67753125239227L-122.02632109993692,119.23223959489768A170.6070045455344,170.6070045455344,0,0,0,-121.24936633455178,120.02225278451351Z" fill-rule="evenodd" style="fill: #D7A449; stroke: #fff; opacity: 1;" id="p-type-tokenTransfers"></path><path d="M-140.90385867053658,137.67753125239227A197,197,0,0,1,-141.7950651565434,136.75949508992642L-122.79812855683628,118.43719695660948A170.6070045455344,170.6070045455344,0,0,0,-122.02632109993692,119.23223959489768Z" fill-rule="evenodd" style="fill: #D7A449; stroke: #fff; opacity: 1;" id="p-type-tokenTransfers"></path><path d="M-141.7950651565434,136.75949508992642A197,197,0,0,1,-142.68029044984075,135.83569014492872L-123.56475614890431,117.63715840609979A170.6070045455344,170.6070045455344,0,0,0,-122.79812855683628,118.43719695660948Z" fill-rule="evenodd" style="fill: #D7A449; stroke: #fff; opacity: 1;" id="p-type-tokenTransfers"></path><path d="M-142.68029044984075,135.83569014492872A197,197,0,0,1,-143.5594972098973,134.90615538529548L-124.3261715382923,116.83215769055674A170.6070045455344,170.6070045455344,0,0,0,-123.56475614890431,117.63715840609979Z" fill-rule="evenodd" style="fill: #D7A449; stroke: #fff; opacity: 1;" id="p-type-tokenTransfers"></path><path d="M-143.5594972098973,134.90615538529548A197,197,0,0,1,-144.43264835005527,133.97093002061783L-125.08234260701244,116.02222876648233A170.6070045455344,170.6070045455344,0,0,0,-124.3261715382923,116.83215769055674Z" fill-rule="evenodd" style="fill: #D7A449; stroke: #fff; opacity: 1;" id="p-type-tokenTransfers"></path><path d="M-144.43264835005527,133.97093002061783A197,197,0,0,1,-145.29970703909464,133.0300535005277L-125.83323745829259,115.20740579826A170.6070045455344,170.6070045455344,0,0,0,-125.08234260701244,116.02222876648233Z" fill-rule="evenodd" style="fill: #D7A449; stroke: #fff; opacity: 1;" id="p-type-tokenTransfers"></path><path d="M-145.29970703909464,133.0300535005277A197,197,0,0,1,-146.16063670278703,132.08356551303388L-126.57882441792177,114.38772315671352A170.6070045455344,170.6070045455344,0,0,0,-125.83323745829259,115.20740579826Z" fill-rule="evenodd" style="fill: #D7A449; stroke: #fff; opacity: 1;" id="p-type-tokenTransfers"></path><path d="M-146.16063670278703,132.08356551303388A197,197,0,0,1,-147.0154010254381,131.13150598284764L-127.3190720355862,113.56321541765718A170.6070045455344,170.6070045455344,0,0,0,-126.57882441792177,114.38772315671352Z" fill-rule="evenodd" style="fill: #D7A449; stroke: #fff; opacity: 1;" id="p-type-tokenTransfers"></path><path d="M-147.0154010254381,131.13150598284764A197,197,0,0,1,-147.86396395141986,130.173915069699L-128.05394908619607,112.73391736043732A170.6070045455344,170.6070045455344,0,0,0,-127.3190720355862,113.56321541765718Z" fill-rule="evenodd" style="fill: #D7A449; stroke: #fff; opacity: 1;" id="p-type-tokenTransfers"></path><path d="M-147.86396395141986,130.173915069699A197,197,0,0,1,-148.70628968669118,129.21083316664237L-128.78342457120243,111.89986396646519A170.6070045455344,170.6070045455344,0,0,0,-128.05394908619607,112.73391736043732Z" fill-rule="evenodd" style="fill: #D7A449; stroke: #fff; opacity: 1;" id="p-type-tokenTransfers"></path></g></svg>