<svg xmlns="http://www.w3.org/2000/svg" width="400" height="400" id="block-7908306"><g id="burst-container" transform="translate(200,200)"><circle r="197" style="fill: #f9f9f9; stroke: #f9f9f9; stroke-width: 3; opacity: 1;" id="circle-base"></circle><path display="none" d="M6.031385485800715e-15,-98.5A98.5,98.5,0,1,1,-6.031385485800715e-15,98.5A98.5,98.5,0,1,1,6.031385485800715e-15,-98.5Z" fill-rule="evenodd" id="p-type-root" style="stroke: #fff; opacity: 1;"></path><path d="M8.529667153919608e-15,-139.30003589374985A139.30003589374985,139.30003589374985,0,1,1,-137.76222141886427,-20.641471598212465L-97.41260095660158,-14.59572454076556A98.5,98.5,0,1,0,6.031385485800715e-15,-98.5Z" fill-rule="evenodd" style="fill: #0B1F65; stroke: #fff; opacity: 1;" id="p-type-data"></path><path d="M-137.76222141886427,-20.641471598212465A139.30003589374985,139.30003589374985,0,0,1,-32.707463728903036,-135.40576729379916L-23.127669398120382,-95.74633626521302A98.5,98.5,0,0,0,-97.41260095660158,-14.59572454076556Z" fill-rule="evenodd" style="fill: #D7A449; stroke: #fff; opacity: 1;" id="p-type-value"></path><path d="M1.0446666101440332e-14,-170.6070045455344A170.6070045455344,170.6070045455344,0,0,1,161.65976070894192,54.52404760770829L131.9946418924454,44.51869845003438A139.30003589374985,139.30003589374985,0,0,0,8.529667153919608e-15,-139.30003589374985Z" fill-rule="evenodd" style="fill: #1DC690; stroke: #fff; opacity: 1;" id="p-type-logs"></path><path d="M161.65976070894192,54.52404760770829A170.6070045455344,170.6070045455344,0,0,1,-10.102029908645159,170.30765981518516L-8.2482728808384,139.05562194490096A139.30003589374985,139.30003589374985,0,0,0,131.9946418924454,44.51869845003438Z" fill-rule="evenodd" style="fill: #D7A449; stroke: #fff; opacity: 1;" id="p-type-tokenTransfers"></path><path d="M-10.102029908645159,170.30765981518516A170.6070045455344,170.6070045455344,0,0,1,-50.00289973378906,163.11486755722984L-40.82719666911066,133.18273165895704A139.30003589374985,139.30003589374985,0,0,0,-8.2482728808384,139.05562194490096Z" fill-rule="evenodd" style="fill: #414552; stroke: #fff; opacity: 1;" id="p-type-ether"></path><path d="M-168.72357415426654,-25.280536477885867A170.6070045455344,170.6070045455344,0,0,1,-111.34117252437166,-129.2667524961392L-90.90968668263352,-105.54586144072823A139.30003589374985,139.30003589374985,0,0,0,-137.76222141886427,-20.641471598212465Z" fill-rule="evenodd" style="fill: #D7A449; stroke: #fff; opacity: 1;" id="p-type-tokenTransfers"></path><path d="M-111.34117252437166,-129.2667524961392A170.6070045455344,170.6070045455344,0,0,1,-77.87685917545407,-151.79573381675286L-63.58618925014826,-123.94069766079392A139.30003589374985,139.30003589374985,0,0,0,-90.90968668263352,-105.54586144072823Z" fill-rule="evenodd" style="fill: #414552; stroke: #fff; opacity: 1;" id="p-type-ether"></path><path d="M1.206277097160143e-14,-197A197,197,0,0,1,23.291023072270413,-195.61832287453794L20.17061766071566,-169.4104370550564A170.6070045455344,170.6070045455344,0,0,0,1.0446666101440332e-14,-170.6070045455344Z" fill-rule="evenodd" style="fill: #1DC690; stroke: #fff; opacity: 1;" id="p-type-logs"></path><path d="M23.291023072270413,-195.61832287453794A197,197,0,0,1,46.2553387962407,-191.49267253042606L40.05829845820036,-165.83751904992351A170.6070045455344,170.6070045455344,0,0,0,20.17061766071566,-169.4104370550564Z" fill-rule="evenodd" style="fill: #1DC690; stroke: #fff; opacity: 1;" id="p-type-logs"></path><path d="M46.2553387962407,-191.49267253042606A197,197,0,0,1,68.57082260604582,-184.68092020327978L59.384074335231944,-159.93836849032706A170.6070045455344,170.6070045455344,0,0,0,40.05829845820036,-165.83751904992351Z" fill-rule="evenodd" style="fill: #1DC690; stroke: #fff; opacity: 1;" id="p-type-logs"></path><path d="M68.57082260604582,-184.68092020327978A197,197,0,0,1,89.924451217182,-175.2786155618781L77.8768591754541,-151.79573381675286A170.6070045455344,170.6070045455344,0,0,0,59.384074335231944,-159.93836849032706Z" fill-rule="evenodd" style="fill: #1DC690; stroke: #fff; opacity: 1;" id="p-type-logs"></path><path d="M89.924451217182,-175.2786155618781A197,197,0,0,1,110.01669346013027,-163.4176464158621L95.27725137683812,-141.5238332227996A170.6070045455344,170.6070045455344,0,0,0,77.8768591754541,-151.79573381675286Z" fill-rule="evenodd" style="fill: #1DC690; stroke: #fff; opacity: 1;" id="p-type-logs"></path><path d="M110.01669346013027,-163.4176464158621A197,197,0,0,1,128.56571185766904,-149.2643887018294L111.34117252437163,-129.26675249613922A170.6070045455344,170.6070045455344,0,0,0,95.27725137683812,-141.5238332227996Z" fill-rule="evenodd" style="fill: #1DC690; stroke: #fff; opacity: 1;" id="p-type-logs"></path><path d="M128.56571185766904,-149.2643887018294A197,197,0,0,1,145.31131600959878,-133.01737269830025L125.84329112166095,-115.19642390139065A170.6070045455344,170.6070045455344,0,0,0,111.34117252437163,-129.26675249613922Z" fill-rule="evenodd" style="fill: #1DC690; stroke: #fff; opacity: 1;" id="p-type-logs"></path><path d="M145.31131600959878,-133.01737269830025A197,197,0,0,1,160.01861233004374,-114.90449820597617L138.58018335615168,-99.51021445547882A170.6070045455344,170.6070045455344,0,0,0,125.84329112166095,-115.19642390139065Z" fill-rule="evenodd" style="fill: #1DC690; stroke: #fff; opacity: 1;" id="p-type-logs"></path><path d="M186.66861272487623,62.958947127236705A197,197,0,0,1,177.91585108837862,84.5869371209165L154.07964677846516,73.25443637503064A170.6070045455344,170.6070045455344,0,0,0,161.65976070894192,54.52404760770829Z" fill-rule="evenodd" style="fill: #D7A449; stroke: #fff; opacity: 1;" id="p-type-tokenTransfers"></path><path d="M177.91585108837862,84.5869371209165A197,197,0,0,1,166.667431972633,105.02841101172457L144.33823007181496,90.95727205526676A170.6070045455344,170.6070045455344,0,0,0,154.07964677846516,73.25443637503064Z" fill-rule="evenodd" style="fill: #D7A449; stroke: #fff; opacity: 1;" id="p-type-tokenTransfers"></path><path d="M166.667431972633,105.02841101172457A197,197,0,0,1,153.08113896535346,123.99663258762371L132.57215518425198,107.3842338046075A170.6070045455344,170.6070045455344,0,0,0,144.33823007181496,90.95727205526676Z" fill-rule="evenodd" style="fill: #D7A449; stroke: #fff; opacity: 1;" id="p-type-tokenTransfers"></path><path d="M153.08113896535346,123.99663258762371A197,197,0,0,1,137.34754942966669,141.22553121041986L118.94646695363022,122.30489769117568A170.6070045455344,170.6070045455344,0,0,0,132.57215518425198,107.3842338046075Z" fill-rule="evenodd" style="fill: #D7A449; stroke: #fff; opacity: 1;" id="p-type-tokenTransfers"></path><path d="M137.34754942966669,141.22553121041986A197,197,0,0,1,119.68736124133783,156.4734340362143L103.65229534692355,135.50996889275018A170.6070045455344,170.6070045455344,0,0,0,118.94646695363022,122.30489769117568Z" fill-rule="evenodd" style="fill: #D7A449; stroke: #fff; opacity: 1;" id="p-type-tokenTransfers"></path></g></svg>