<svg xmlns="http://www.w3.org/2000/svg" width="400" height="400" id="block-7908292"><g id="burst-container" transform="translate(200,200)"><circle r="197" style="fill: #f9f9f9; stroke: #f9f9f9; stroke-width: 3; opacity: 1;" id="circle-base"></circle><path display="none" d="M6.031385485800715e-15,-98.5A98.5,98.5,0,1,1,-6.031385485800715e-15,98.5A98.5,98.5,0,1,1,6.031385485800715e-15,-98.5Z" fill-rule="evenodd" id="p-type-root" style="stroke: #fff; opacity: 1;"></path><path d="M8.529667153919608e-15,-139.30003589374985A139.30003589374985,139.30003589374985,0,1,1,-118.04841471508536,-73.95317290864008L-83.47283455335868,-52.29279005396069A98.5,98.5,0,1,0,6.031385485800715e-15,-98.5Z" fill-rule="evenodd" style="fill: #0B1F65; stroke: #fff; opacity: 1;" id="p-type-data"></path><path d="M-118.04841471508536,-73.95317290864008A139.30003589374985,139.30003589374985,0,0,1,-3.200910279357519,-139.26325492887023L-2.263385364503428,-98.47399193031504A98.5,98.5,0,0,0,-83.47283455335868,-52.29279005396069Z" fill-rule="evenodd" style="fill: #D7A449; stroke: #fff; opacity: 1;" id="p-type-value"></path><path d="M1.0446666101440332e-14,-170.6070045455344A170.6070045455344,170.6070045455344,0,0,1,170.48486001713283,6.454649869560673L139.20030530393095,5.270199549581882A139.30003589374985,139.30003589374985,0,0,0,8.529667153919608e-15,-139.30003589374985Z" fill-rule="evenodd" style="fill: #1DC690; stroke: #fff; opacity: 1;" id="p-type-logs"></path><path d="M170.48486001713283,6.454649869560673A170.6070045455344,170.6070045455344,0,0,1,49.43902702445819,163.28665777360652L40.366796529863564,133.3229977832654A139.30003589374985,139.30003589374985,0,0,0,139.20030530393095,5.270199549581882Z" fill-rule="evenodd" style="fill: #414552; stroke: #fff; opacity: 1;" id="p-type-ether"></path><path d="M49.43902702445819,163.28665777360652A170.6070045455344,170.6070045455344,0,0,1,-133.745835742094,105.91884356264855L-109.20301759674099,86.48237362472122A139.30003589374985,139.30003589374985,0,0,0,40.366796529863564,133.3229977832654Z" fill-rule="evenodd" style="fill: #D7A449; stroke: #fff; opacity: 1;" id="p-type-tokenTransfers"></path><path d="M-144.5791904982082,-90.57376924299236A170.6070045455344,170.6070045455344,0,0,1,-68.5761909321823,-156.21797603743585L-55.99222542917378,-127.55144331401578A139.30003589374985,139.30003589374985,0,0,0,-118.04841471508536,-73.95317290864008Z" fill-rule="evenodd" style="fill: #D7A449; stroke: #fff; opacity: 1;" id="p-type-tokenTransfers"></path><path d="M-68.5761909321823,-156.21797603743585A170.6070045455344,170.6070045455344,0,0,1,-7.838526655327883,-170.42683914182564L-6.400130213586061,-139.15293145762018A139.30003589374985,139.30003589374985,0,0,0,-55.99222542917378,-127.55144331401578Z" fill-rule="evenodd" style="fill: #414552; stroke: #fff; opacity: 1;" id="p-type-ether"></path><path d="M1.206277097160143e-14,-197A197,197,0,0,1,2.263534786111586,-196.98699553592888L1.960278627122409,-170.5957423492862A170.6070045455344,170.6070045455344,0,0,0,1.0446666101440332e-14,-170.6070045455344Z" fill-rule="evenodd" style="fill: #1DC690; stroke: #fff; opacity: 1;" id="p-type-logs"></path><path d="M2.263534786111586,-196.98699553592888A197,197,0,0,1,4.52677072900692,-196.94798386063007L3.9202984484277947,-170.56195724743327A170.6070045455344,170.6070045455344,0,0,0,1.960278627122409,-170.5957423492862Z" fill-rule="evenodd" style="fill: #1DC690; stroke: #fff; opacity: 1;" id="p-type-logs"></path><path d="M4.52677072900692,-196.94798386063007A197,197,0,0,1,6.789409024924594,-196.88297012462067L5.8798006922680335,-170.50565370045416A170.6070045455344,170.6070045455344,0,0,0,3.9202984484277947,-170.56195724743327Z" fill-rule="evenodd" style="fill: #1DC690; stroke: #fff; opacity: 1;" id="p-type-logs"></path><path d="M6.789409024924594,-196.88297012462067A197,197,0,0,1,9.051150949007415,-196.79196291134016L7.838526655328052,-170.42683914182564A170.6070045455344,170.6070045455344,0,0,0,5.8798006922680335,-170.50565370045416Z" fill-rule="evenodd" style="fill: #1DC690; stroke: #fff; opacity: 1;" id="p-type-logs"></path><path d="M9.051150949007415,-196.79196291134016A197,197,0,0,1,11.311697894741824,-196.67497423601736L9.796217736781372,-170.325523977041A170.6070045455344,170.6070045455344,0,0,0,7.838526655328052,-170.42683914182564Z" fill-rule="evenodd" style="fill: #1DC690; stroke: #fff; opacity: 1;" id="p-type-logs"></path><path d="M11.311697894741824,-196.67497423601736A197,197,0,0,1,13.570751413381252,-196.532019544084L11.75261547243174,-170.20172158223653A170.6070045455344,170.6070045455344,0,0,0,9.796217736781372,-170.325523977041Z" fill-rule="evenodd" style="fill: #1DC690; stroke: #fff; opacity: 1;" id="p-type-logs"></path><path d="M13.570751413381252,-196.532019544084A197,197,0,0,1,15.828013253348868,-196.36311770913554L13.707461568836898,-170.05544830242533A170.6070045455344,170.6070045455344,0,0,0,11.75261547243174,-170.20172158223653Z" fill-rule="evenodd" style="fill: #1DC690; stroke: #fff; opacity: 1;" id="p-type-logs"></path><path d="M15.828013253348868,-196.36311770913554A197,197,0,0,1,18.08318539961429,-196.1682910304394L15.660497937409831,-169.88672344933957A170.6070045455344,170.6070045455344,0,0,0,13.707461568836898,-170.05544830242533Z" fill-rule="evenodd" style="fill: #1DC690; stroke: #fff; opacity: 1;" id="p-type-logs"></path><path d="M18.08318539961429,-196.1682910304394A197,197,0,0,1,20.335970113038847,-195.94756522999103L17.611466728492744,-169.69556929888063A170.6070045455344,170.6070045455344,0,0,0,15.660497937409831,-169.88672344933957Z" fill-rule="evenodd" style="fill: #1DC690; stroke: #fff; opacity: 1;" id="p-type-logs"></path><path d="M20.335970113038847,-195.94756522999103A197,197,0,0,1,22.58606996968486,-195.7009694491177L19.560110365399915,-169.48201108817824A170.6070045455344,170.6070045455344,0,0,0,17.611466728492744,-169.69556929888063Z" fill-rule="evenodd" style="fill: #1DC690; stroke: #fff; opacity: 1;" id="p-type-logs"></path><path d="M22.58606996968486,-195.7009694491177A197,197,0,0,1,24.83318790008287,-195.42853624463132L21.5061715784241,-169.24607701225864A170.6070045455344,170.6070045455344,0,0,0,19.560110365399915,-169.48201108817824Z" fill-rule="evenodd" style="fill: #1DC690; stroke: #fff; opacity: 1;" id="p-type-logs"></path><path d="M24.83318790008287,-195.42853624463132A197,197,0,0,1,27.077027228452266,-195.13030158453006L23.449393438802613,-168.98779822032193A170.6070045455344,170.6070045455344,0,0,0,21.5061715784241,-169.24607701225864Z" fill-rule="evenodd" style="fill: #1DC690; stroke: #fff; opacity: 1;" id="p-type-logs"></path><path d="M27.077027228452266,-195.13030158453006A197,197,0,0,1,29.31729171186998,-194.80630484324968L25.389519392638377,-168.70720881162973A170.6070045455344,170.6070045455344,0,0,0,23.449393438802613,-168.98779822032193Z" fill-rule="evenodd" style="fill: #1DC690; stroke: #fff; opacity: 1;" id="p-type-logs"></path><path d="M29.31729171186998,-194.80630484324968A197,197,0,0,1,31.553685579381764,-194.4565887964651L27.32629329477131,-168.4043458310032A170.6070045455344,170.6070045455344,0,0,0,25.389519392638377,-168.70720881162973Z" fill-rule="evenodd" style="fill: #1DC690; stroke: #fff; opacity: 1;" id="p-type-logs"></path><path d="M31.553685579381764,-194.4565887964651A197,197,0,0,1,33.78591357105164,-194.081199615443L29.25945944259614,-168.07924926393227A170.6070045455344,170.6070045455344,0,0,0,27.32629329477131,-168.4043458310032Z" fill-rule="evenodd" style="fill: #1DC690; stroke: #fff; opacity: 1;" id="p-type-logs"></path><path d="M33.78591357105164,-194.081199615443A197,197,0,0,1,36.013680976943384,-193.68018686094595L31.18876260982135,-167.73196203129626A170.6070045455344,170.6070045455344,0,0,0,29.25945944259614,-168.07924926393227Z" fill-rule="evenodd" style="fill: #1DC690; stroke: #fff; opacity: 1;" id="p-type-logs"></path><path d="M36.013680976943384,-193.68018686094595A197,197,0,0,1,38.23669367602976,-193.2536034766893L33.113948080165564,-167.36252998369764A170.6070045455344,170.6070045455344,0,0,0,31.18876260982135,-167.73196203129626Z" fill-rule="evenodd" style="fill: #1DC690; stroke: #fff; opacity: 1;" id="p-type-logs"></path><path d="M38.23669367602976,-193.2536034766893A197,197,0,0,1,40.45465817502362,-192.80150578235117L35.03476168098627,-166.97100189540845A170.6070045455344,170.6070045455344,0,0,0,33.113948080165564,-167.36252998369764Z" fill-rule="evenodd" style="fill: #1DC690; stroke: #fff; opacity: 1;" id="p-type-logs"></path><path d="M40.45465817502362,-192.80150578235117A197,197,0,0,1,42.66728164712664,-192.32395346613686L36.95094981683722,-166.55742945793074A170.6070045455344,170.6070045455344,0,0,0,35.03476168098627,-166.97100189540845Z" fill-rule="evenodd" style="fill: #1DC690; stroke: #fff; opacity: 1;" id="p-type-logs"></path><path d="M42.66728164712664,-192.32395346613686A197,197,0,0,1,44.874271970689655,-191.8210095768985L38.86225950294922,-166.12186727317217A170.6070045455344,170.6070045455344,0,0,0,36.95094981683722,-166.55742945793074Z" fill-rule="evenodd" style="fill: #1DC690; stroke: #fff; opacity: 1;" id="p-type-logs"></path><path d="M44.874271970689655,-191.8210095768985A197,197,0,0,1,47.07533776778,-191.29274051581106L40.76843839863051,-165.66437284623711A170.6070045455344,170.6070045455344,0,0,0,38.86225950294922,-166.12186727317217Z" fill-rule="evenodd" style="fill: #1DC690; stroke: #fff; opacity: 1;" id="p-type-logs"></path><path d="M47.07533776778,-191.29274051581106A197,197,0,0,1,49.270188442650635,-190.73921602760586L42.6692348405819,-165.18500657783463A170.6070045455344,170.6070045455344,0,0,0,40.76843839863051,-165.66437284623711Z" fill-rule="evenodd" style="fill: #1DC690; stroke: #fff; opacity: 1;" id="p-type-logs"></path><path d="M49.270188442650635,-190.73921602760586A197,197,0,0,1,51.45853422010626,-190.1605091913622L44.564397876122875,-164.6838317563039A170.6070045455344,170.6070045455344,0,0,0,42.6692348405819,-165.18500657783463Z" fill-rule="evenodd" style="fill: #1DC690; stroke: #fff; opacity: 1;" id="p-type-logs"></path><path d="M51.45853422010626,-190.1605091913622A197,197,0,0,1,53.64008618376067,-189.55669641085942L46.45367729632343,-164.1609145492588A170.6070045455344,170.6070045455344,0,0,0,44.564397876122875,-164.6838317563039Z" fill-rule="evenodd" style="fill: #1DC690; stroke: #fff; opacity: 1;" id="p-type-logs"></path><path d="M53.64008618376067,-189.55669641085942A197,197,0,0,1,55.8145563141811,-188.9278574044895L48.33682366903797,-163.61632399485185A170.6070045455344,170.6070045455344,0,0,0,46.45367729632343,-164.1609145492588Z" fill-rule="evenodd" style="fill: #1DC690; stroke: #fff; opacity: 1;" id="p-type-logs"></path><path d="M55.8145563141811,-188.9278574044895A197,197,0,0,1,57.98165752691391,-188.27407519473218L50.21358837183665,-163.05013199265971A170.6070045455344,170.6070045455344,0,0,0,48.33682366903797,-163.61632399485185Z" fill-rule="evenodd" style="fill: #1DC690; stroke: #fff; opacity: 1;" id="p-type-logs"></path><path d="M57.98165752691391,-188.27407519473218A197,197,0,0,1,60.141103710386844,-187.59543609719424L52.08372362482957,-162.4624132941905A170.6070045455344,170.6070045455344,0,0,0,50.21358837183665,-163.05013199265971Z" fill-rule="evenodd" style="fill: #1DC690; stroke: #fff; opacity: 1;" id="p-type-logs"></path><path d="M60.141103710386844,-187.59543609719424A197,197,0,0,1,62.29260976368314,-186.89202970921335L53.94698252338016,-161.8532454930148A170.6070045455344,170.6070045455344,0,0,0,52.08372362482957,-162.4624132941905Z" fill-rule="evenodd" style="fill: #1DC690; stroke: #fff; opacity: 1;" id="p-type-logs"></path><path d="M62.29260976368314,-186.89202970921335A197,197,0,0,1,64.43589163418183,-186.16394889802905L55.80311907070265,-161.22270901452123A170.6070045455344,170.6070045455344,0,0,0,53.94698252338016,-161.8532454930148Z" fill-rule="evenodd" style="fill: #1DC690; stroke: #fff; opacity: 1;" id="p-type-logs"></path><path d="M64.43589163418183,-186.16394889802905A197,197,0,0,1,66.57066635505969,-185.4112897885221L57.651888210339706,-160.57088710529843A170.6070045455344,170.6070045455344,0,0,0,55.80311907070265,-161.22270901452123Z" fill-rule="evenodd" style="fill: #1DC690; stroke: #fff; opacity: 1;" id="p-type-logs"></path><path d="M66.57066635505969,-185.4112897885221A197,197,0,0,1,68.69665208265019,-184.63415175052344L59.493045858516226,-159.89786582214438A170.6070045455344,170.6070045455344,0,0,0,57.651888210339706,-160.57088710529843Z" fill-rule="evenodd" style="fill: #1DC690; stroke: #fff; opacity: 1;" id="p-type-logs"></path><path d="M68.69665208265019,-184.63415175052344A197,197,0,0,1,70.81356813365373,-183.83263738569488L61.326348936364326,-159.2037340207047A170.6070045455344,170.6070045455344,0,0,0,59.493045858516226,-159.89786582214438Z" fill-rule="evenodd" style="fill: #1DC690; stroke: #fff; opacity: 1;" id="p-type-logs"></path><path d="M70.81356813365373,-183.83263738569488A197,197,0,0,1,72.92113502219492,-183.00685251398323L63.15155540201592,-158.48858334374154A170.6070045455344,170.6070045455344,0,0,0,61.326348936364326,-159.2037340207047Z" fill-rule="evenodd" style="fill: #1DC690; stroke: #fff; opacity: 1;" id="p-type-logs"></path><path d="M72.92113502219492,-183.00685251398323A197,197,0,0,1,75.01907449672171,-182.1569061596494L64.9684242825583,-157.75250820903446A170.6070045455344,170.6070045455344,0,0,0,63.15155540201592,-158.48858334374154Z" fill-rule="evenodd" style="fill: #1DC690; stroke: #fff; opacity: 1;" id="p-type-logs"></path><path d="M75.01907449672171,-182.1569061596494A197,197,0,0,1,77.10710957674144,-181.28291053687434L66.77671570584845,-156.99560579691487A170.6070045455344,170.6070045455344,0,0,0,64.9684242825583,-157.75250820903446Z" fill-rule="evenodd" style="fill: #1DC690; stroke: #fff; opacity: 1;" id="p-type-logs"></path><path d="M77.10710957674144,-181.28291053687434A197,197,0,0,1,79.1849645893894,-180.3849810349441L68.57619093218243,-156.2179760374358A170.6070045455344,170.6070045455344,0,0,0,66.77671570584845,-156.99560579691487Z" fill-rule="evenodd" style="fill: #1DC690; stroke: #fff; opacity: 1;" id="p-type-logs"></path><path d="M79.1849645893894,-180.3849810349441A197,197,0,0,1,81.25236520582445,-179.4632362030155L70.36661238581479,-155.41972159717858A170.6070045455344,170.6070045455344,0,0,0,68.57619093218243,-156.2179760374358Z" fill-rule="evenodd" style="fill: #1DC690; stroke: #fff; opacity: 1;" id="p-type-logs"></path><path d="M81.25236520582445,-179.4632362030155A197,197,0,0,1,83.30903847744713,-178.51779773446464L72.14774368632449,-154.6009478656985A170.6070045455344,170.6070045455344,0,0,0,70.36661238581479,-155.41972159717858Z" fill-rule="evenodd" style="fill: #1DC690; stroke: #fff; opacity: 1;" id="p-type-logs"></path><path d="M83.30903847744713,-178.51779773446464A197,197,0,0,1,85.35471287193602,-177.5487904508205L73.91934967982321,-153.7617629416105A170.6070045455344,170.6070045455344,0,0,0,72.14774368632449,-154.6009478656985Z" fill-rule="evenodd" style="fill: #1DC690; stroke: #fff; opacity: 1;" id="p-type-logs"></path><path d="M85.35471287193602,-177.5487904508205A197,197,0,0,1,87.38911830909655,-176.55634228528504L75.68119647000141,-152.90227761831753A170.6070045455344,170.6070045455344,0,0,0,73.91934967982321,-153.7617629416105Z" fill-rule="evenodd" style="fill: #1DC690; stroke: #fff; opacity: 1;" id="p-type-logs"></path><path d="M87.38911830909655,-176.55634228528504A197,197,0,0,1,89.4119861965184,-175.54058426584322L77.4330514490085,-152.02260536938314A170.6070045455344,170.6070045455344,0,0,0,75.68119647000141,-152.90227761831753Z" fill-rule="evenodd" style="fill: #1DC690; stroke: #fff; opacity: 1;" id="p-type-logs"></path><path d="M89.4119861965184,-175.54058426584322A197,197,0,0,1,91.42304946503654,-174.5016504979637L79.17468332816298,-151.12286233355002A170.6070045455344,170.6070045455344,0,0,0,77.4330514490085,-152.02260536938314Z" fill-rule="evenodd" style="fill: #1DC690; stroke: #fff; opacity: 1;" id="p-type-logs"></path><path d="M91.42304946503654,-174.5016504979637A197,197,0,0,1,93.42204260399077,-173.43967814689387L80.90586216848814,-150.20316729940683A170.6070045455344,170.6070045455344,0,0,0,79.17468332816298,-151.12286233355002Z" fill-rule="evenodd" style="fill: #1DC690; stroke: #fff; opacity: 1;" id="p-type-logs"></path><path d="M93.42204260399077,-173.43967814689387A197,197,0,0,1,95.40870169628009,-172.3548074195502L82.62635941107001,-149.26364168970514A170.6070045455344,170.6070045455344,0,0,0,80.90586216848814,-150.20316729940683Z" fill-rule="evenodd" style="fill: #1DC690; stroke: #fff; opacity: 1;" id="p-type-logs"></path><path d="M95.40870169628009,-172.3548074195502A197,197,0,0,1,97.38276445320614,-171.24718154600785L84.33594790723272,-148.3044095453285A170.6070045455344,170.6070045455344,0,0,0,82.62635941107001,-149.26364168970514Z" fill-rule="evenodd" style="fill: #1DC690; stroke: #fff; opacity: 1;" id="p-type-logs"></path><path d="M97.38276445320614,-171.24718154600785A197,197,0,0,1,99.34397024910196,-170.1169467605904L86.03440194852779,-147.32559750891616A170.6070045455344,170.6070045455344,0,0,0,84.33594790723272,-148.3044095453285Z" fill-rule="evenodd" style="fill: #1DC690; stroke: #fff; opacity: 1;" id="p-type-logs"></path><path d="M99.34397024910196,-170.1169467605904A197,197,0,0,1,101.29206015574104,-168.96425228256342L87.72149729653327,-146.32733480814275A170.6070045455344,170.6070045455344,0,0,0,86.03440194852779,-147.32559750891616Z" fill-rule="evenodd" style="fill: #1DC690; stroke: #fff; opacity: 1;" id="p-type-logs"></path><path d="M101.29206015574104,-168.96425228256342A197,197,0,0,1,103.2267769765224,-167.7892502964338L89.397011212459,-145.30975323865732A170.6070045455344,170.6070045455344,0,0,0,87.72149729653327,-146.32733480814275Z" fill-rule="evenodd" style="fill: #1DC690; stroke: #fff; opacity: 1;" id="p-type-logs"></path><path d="M103.2267769765224,-167.7892502964338A197,197,0,0,1,105.14786528042693,-166.59209593185744L91.06072248655349,-144.2729871466828A170.6070045455344,170.6070045455344,0,0,0,89.397011212459,-145.30975323865732Z" fill-rule="evenodd" style="fill: #1DC690; stroke: #fff; opacity: 1;" id="p-type-logs"></path><path d="M105.14786528042693,-166.59209593185744A197,197,0,0,1,107.05507143574063,-165.37294724315848L92.7124114673092,-143.217173411279A170.6070045455344,170.6070045455344,0,0,0,91.06072248655349,-144.2729871466828Z" fill-rule="evenodd" style="fill: #1DC690; stroke: #fff; opacity: 1;" id="p-type-logs"></path><path d="M107.05507143574063,-165.37294724315848A197,197,0,0,1,108.94814364354045,-164.13196518846192L94.35186009046214,-142.14245142627115A170.6070045455344,170.6070045455344,0,0,0,92.7124114673092,-143.217173411279Z" fill-rule="evenodd" style="fill: #1DC690; stroke: #fff; opacity: 1;" id="p-type-logs"></path><path d="M108.94814364354045,-164.13196518846192A197,197,0,0,1,110.82683197093796,-162.86931360844338L95.97885190778167,-141.04896308184655A170.6070045455344,170.6070045455344,0,0,0,94.35186009046214,-142.14245142627115Z" fill-rule="evenodd" style="fill: #1DC690; stroke: #fff; opacity: 1;" id="p-type-logs"></path><path d="M110.82683197093796,-162.86931360844338A197,197,0,0,1,112.69088838407676,-161.58515920469785L97.59317211564718,-139.93685274582126A170.6070045455344,170.6070045455344,0,0,0,95.97885190778167,-141.04896308184655Z" fill-rule="evenodd" style="fill: #1DC690; stroke: #fff; opacity: 1;" id="p-type-logs"></path><path d="M112.69088838407676,-161.58515920469785A197,197,0,0,1,114.54006678087919,-160.27967151773097L99.19460758340746,-138.80626724458014A170.6070045455344,170.6070045455344,0,0,0,97.59317211564718,-139.93685274582126Z" fill-rule="evenodd" style="fill: #1DC690; stroke: #fff; opacity: 1;" id="p-type-logs"></path><path d="M114.54006678087919,-160.27967151773097A197,197,0,0,1,116.37412302353789,-158.9530229045754L100.78294688151934,-137.65735584369205A170.6070045455344,170.6070045455344,0,0,0,99.19460758340746,-138.80626724458014Z" fill-rule="evenodd" style="fill: #1DC690; stroke: #fff; opacity: 1;" id="p-type-logs"></path><path d="M116.37412302353789,-158.9530229045754A197,197,0,0,1,118.19281497074819,-157.60538851603548L102.35798030946164,-136.49027022820295A170.6070045455344,170.6070045455344,0,0,0,100.78294688151934,-137.65735584369205Z" fill-rule="evenodd" style="fill: #1DC690; stroke: #fff; opacity: 1;" id="p-type-logs"></path><path d="M118.19281497074819,-157.60538851603548A197,197,0,0,1,119.99590250967672,-156.23694627356284L103.91949992342091,-135.30516448260988A170.6070045455344,170.6070045455344,0,0,0,102.35798030946164,-136.49027022820295Z" fill-rule="evenodd" style="fill: #1DC690; stroke: #fff; opacity: 1;" id="p-type-logs"></path><path d="M119.99590250967672,-156.23694627356284A197,197,0,0,1,121.78314758766243,-154.84787684576636L105.46729956374524,-134.10219507051784A170.6070045455344,170.6070045455344,0,0,0,103.91949992342091,-135.30516448260988Z" fill-rule="evenodd" style="fill: #1DC690; stroke: #fff; opacity: 1;" id="p-type-logs"></path><path d="M121.78314758766243,-154.84787684576636A197,197,0,0,1,123.55431424364538,-153.43836362455943L107.00117488216242,-132.8815208139826A170.6070045455344,170.6070045455344,0,0,0,105.46729956374524,-134.10219507051784Z" fill-rule="evenodd" style="fill: #1DC690; stroke: #fff; opacity: 1;" id="p-type-logs"></path><path d="M123.55431424364538,-153.43836362455943A197,197,0,0,1,125.30916863931957,-152.00859270094756L108.52092336875904,-131.6433028725424A170.6070045455344,170.6070045455344,0,0,0,107.00117488216242,-132.8815208139826Z" fill-rule="evenodd" style="fill: #1DC690; stroke: #fff; opacity: 1;" id="p-type-logs"></path><path d="M125.30916863931957,-152.00859270094756A197,197,0,0,1,127.0474790900054,-150.55875284045973L110.02634437871694,-130.38770472194062A170.6070045455344,170.6070045455344,0,0,0,108.52092336875904,-131.6433028725424Z" fill-rule="evenodd" style="fill: #1DC690; stroke: #fff; opacity: 1;" id="p-type-logs"></path><path d="M127.0474790900054,-150.55875284045973A197,197,0,0,1,128.7690160952379,-149.08903545822665L111.51723915880326,-129.11489213254322A170.6070045455344,170.6070045455344,0,0,0,110.02634437871694,-130.38770472194062Z" fill-rule="evenodd" style="fill: #1DC690; stroke: #fff; opacity: 1;" id="p-type-logs"></path><path d="M128.7690160952379,-149.08903545822665A197,197,0,0,1,130.47355236906648,-147.59963459370914L112.99341087361091,-127.82503314745256A170.6070045455344,170.6070045455344,0,0,0,111.51723915880326,-129.11489213254322Z" fill-rule="evenodd" style="fill: #1DC690; stroke: #fff; opacity: 1;" id="p-type-logs"></path><path d="M130.47355236906648,-147.59963459370914A197,197,0,0,1,132.16086287006243,-146.09074688508014L114.45466463154564,-126.51829806032174A170.6070045455344,170.6070045455344,0,0,0,112.99341087361091,-127.82503314745256Z" fill-rule="evenodd" style="fill: #1DC690; stroke: #fff; opacity: 1;" id="p-type-logs"></path><path d="M132.16086287006243,-146.09074688508014A197,197,0,0,1,133.83072483102993,-144.56257154326337L115.9008075105568,-125.19485939287146A170.6070045455344,170.6070045455344,0,0,0,114.45466463154564,-126.51829806032174Z" fill-rule="evenodd" style="fill: #1DC690; stroke: #fff; opacity: 1;" id="p-type-logs"></path><path d="M133.83072483102993,-144.56257154326337A197,197,0,0,1,135.48291778841696,-143.0153103256328L117.3316485836077,-123.85489187211294A170.6070045455344,170.6070045455344,0,0,0,115.9008075105568,-125.19485939287146Z" fill-rule="evenodd" style="fill: #1DC690; stroke: #fff; opacity: 1;" id="p-type-logs"></path><path d="M135.48291778841696,-143.0153103256328A197,197,0,0,1,137.11722361142193,-141.4491675093753L118.74699894388284,-122.49857240727944A170.6070045455344,170.6070045455344,0,0,0,117.3316485836077,-123.85489187211294Z" fill-rule="evenodd" style="fill: #1DC690; stroke: #fff; opacity: 1;" id="p-type-logs"></path><path d="M137.11722361142193,-141.4491675093753A197,197,0,0,1,138.73342653079254,-139.86434986452122L120.14667172972835,-121.12608006646997A170.6070045455344,170.6070045455344,0,0,0,118.74699894388284,-122.49857240727944Z" fill-rule="evenodd" style="fill: #1DC690; stroke: #fff; opacity: 1;" id="p-type-logs"></path><path d="M138.73342653079254,-139.86434986452122A197,197,0,0,1,140.33131316731252,-138.26106662664534L121.53048214932234,-119.73759605300769A170.6070045455344,170.6070045455344,0,0,0,120.14667172972835,-121.12608006646997Z" fill-rule="evenodd" style="fill: #1DC690; stroke: #fff; opacity: 1;" id="p-type-logs"></path><path d="M140.33131316731252,-138.26106662664534A197,197,0,0,1,141.91067255997325,-136.63952946924272L122.8982475050721,-118.33330368151664A170.6070045455344,170.6070045455344,0,0,0,121.53048214932234,-119.73759605300769Z" fill-rule="evenodd" style="fill: #1DC690; stroke: #fff; opacity: 1;" id="p-type-logs"></path><path d="M196.85895964729463,7.453187679431275A197,197,0,0,1,158.57288385007797,116.89157586186302L137.32814576552667,101.23107418476926A170.6070045455344,170.6070045455344,0,0,0,170.48486001713283,6.454649869560673Z" fill-rule="evenodd" style="fill: #414552; stroke: #fff; opacity: 1;" id="p-type-ether"></path><path d="M158.57288385007797,116.89157586186302A197,197,0,0,1,145.17745363713166,133.16345953540895L125.72736290649355,115.32293881348528A170.6070045455344,170.6070045455344,0,0,0,137.32814576552667,101.23107418476926Z" fill-rule="evenodd" style="fill: #414552; stroke: #fff; opacity: 1;" id="p-type-ether"></path><path d="M145.17745363713166,133.16345953540895A197,197,0,0,1,137.29171131396066,141.27981456840922L118.89810972692936,122.3519084581972A170.6070045455344,170.6070045455344,0,0,0,125.72736290649355,115.32293881348528Z" fill-rule="evenodd" style="fill: #414552; stroke: #fff; opacity: 1;" id="p-type-ether"></path><path d="M137.29171131396066,141.27981456840922A197,197,0,0,1,133.74645129701813,144.64054329770184L115.82782448923588,125.2623849129928A170.6070045455344,170.6070045455344,0,0,0,118.89810972692936,122.3519084581972Z" fill-rule="evenodd" style="fill: #414552; stroke: #fff; opacity: 1;" id="p-type-ether"></path><path d="M133.74645129701813,144.64054329770184A197,197,0,0,1,130.38750941032478,147.67564927831694L112.9188954855238,127.89086379538357A170.6070045455344,170.6070045455344,0,0,0,115.82782448923588,125.2623849129928Z" fill-rule="evenodd" style="fill: #414552; stroke: #fff; opacity: 1;" id="p-type-ether"></path><path d="M130.38750941032478,147.67564927831694A197,197,0,0,1,127.99517412765155,149.75391614255756L110.84707235635896,129.69069569565937A170.6070045455344,170.6070045455344,0,0,0,112.9188954855238,127.89086379538357Z" fill-rule="evenodd" style="fill: #414552; stroke: #fff; opacity: 1;" id="p-type-ether"></path><path d="M127.99517412765155,149.75391614255756A197,197,0,0,1,126.21878888621349,151.2541481483978L109.30867761036585,130.9899347242875A170.6070045455344,170.6070045455344,0,0,0,110.84707235635896,129.69069569565937Z" fill-rule="evenodd" style="fill: #414552; stroke: #fff; opacity: 1;" id="p-type-ether"></path><path d="M126.21878888621349,151.2541481483978A197,197,0,0,1,124.52517067047961,152.65150464207002L107.84196121122824,132.20008094595082A170.6070045455344,170.6070045455344,0,0,0,109.30867761036585,130.9899347242875Z" fill-rule="evenodd" style="fill: #414552; stroke: #fff; opacity: 1;" id="p-type-ether"></path><path d="M124.52517067047961,152.65150464207002A197,197,0,0,1,123.26635453322795,153.66979482022012L106.7517944576745,133.08194610865297A170.6070045455344,170.6070045455344,0,0,0,107.84196121122824,132.20008094595082Z" fill-rule="evenodd" style="fill: #414552; stroke: #fff; opacity: 1;" id="p-type-ether"></path><path d="M57.08727112208824,188.54719164133203A197,197,0,0,1,54.91709083543832,189.19067930046717L47.55959576542717,163.84393443343933A170.6070045455344,170.6070045455344,0,0,0,49.43902702445819,163.28665777360652Z" fill-rule="evenodd" style="fill: #D7A449; stroke: #fff; opacity: 1;" id="p-type-tokenTransfers"></path><path d="M54.91709083543832,189.19067930046717A197,197,0,0,1,52.73966011899489,189.80918905714995L45.6738854500066,164.37957959521515A170.6070045455344,170.6070045455344,0,0,0,47.55959576542717,163.84393443343933Z" fill-rule="evenodd" style="fill: #D7A449; stroke: #fff; opacity: 1;" id="p-type-tokenTransfers"></path><path d="M52.73966011899489,189.80918905714995A197,197,0,0,1,50.55526644808303,190.40263925261993L43.78214503913099,164.893522540373A170.6070045455344,170.6070045455344,0,0,0,45.6738854500066,164.37957959521515Z" fill-rule="evenodd" style="fill: #D7A449; stroke: #fff; opacity: 1;" id="p-type-tokenTransfers"></path><path d="M50.55526644808303,190.40263925261993A197,197,0,0,1,48.36419821731198,190.97095153660558L41.88462428985824,165.3856954155873A170.6070045455344,170.6070045455344,0,0,0,43.78214503913099,164.893522540373Z" fill-rule="evenodd" style="fill: #D7A449; stroke: #fff; opacity: 1;" id="p-type-tokenTransfers"></path><path d="M48.36419821731198,190.97095153660558A197,197,0,0,1,46.16674470249986,191.5140508776685L39.98157372239553,165.85603324172638A170.6070045455344,170.6070045455344,0,0,0,41.88462428985824,165.3856954155873Z" fill-rule="evenodd" style="fill: #D7A449; stroke: #fff; opacity: 1;" id="p-type-tokenTransfers"></path><path d="M46.16674470249986,191.5140508776685A197,197,0,0,1,43.96319602248201,192.03186557310957L38.073244587024405,166.30447392243124A170.6070045455344,170.6070045455344,0,0,0,39.98157372239553,165.85603324172638Z" fill-rule="evenodd" style="fill: #D7A449; stroke: #fff; opacity: 1;" id="p-type-tokenTransfers"></path><path d="M43.96319602248201,192.03186557310957A197,197,0,0,1,41.75384310080805,192.52432725843533L36.15988883092939,166.73095825231385A170.6070045455344,170.6070045455344,0,0,0,38.073244587024405,166.30447392243124Z" fill-rule="evenodd" style="fill: #D7A449; stroke: #fff; opacity: 1;" id="p-type-tokenTransfers"></path><path d="M41.75384310080805,192.52432725843533A197,197,0,0,1,39.53897762733271,192.99137091638391L34.2417590649347,167.13542992477375A170.6070045455344,170.6070045455344,0,0,0,36.15988883092939,166.73095825231385Z" fill-rule="evenodd" style="fill: #D7A449; stroke: #fff; opacity: 1;" id="p-type-tokenTransfers"></path><path d="M39.53897762733271,192.99137091638391A197,197,0,0,1,37.31889201970546,193.43293488550898L32.31910853015328,167.51783553943196A170.6070045455344,170.6070045455344,0,0,0,34.2417590649347,167.13542992477375Z" fill-rule="evenodd" style="fill: #D7A449; stroke: #fff; opacity: 1;" id="p-type-tokenTransfers"></path><path d="M37.31889201970546,193.43293488550898A197,197,0,0,1,35.09387938476405,193.84896086832046L30.392191064552673,167.87812460918107A170.6070045455344,170.6070045455344,0,0,0,32.31910853015328,167.51783553943196Z" fill-rule="evenodd" style="fill: #D7A449; stroke: #fff; opacity: 1;" id="p-type-tokenTransfers"></path><path d="M35.09387938476405,193.84896086832046A197,197,0,0,1,32.864233479837104,194.23939393898127L28.461261069441996,168.2162495668509A170.6070045455344,170.6070045455344,0,0,0,30.392191064552673,167.87812460918107Z" fill-rule="evenodd" style="fill: #D7A449; stroke: #fff; opacity: 1;" id="p-type-tokenTransfers"></path><path d="M32.864233479837104,194.23939393898127A197,197,0,0,1,30.63024867396078,194.6041825505591L26.52657347588465,168.53216577148854A170.6070045455344,170.6070045455344,0,0,0,28.461261069441996,168.2162495668509Z" fill-rule="evenodd" style="fill: #D7A449; stroke: #fff; opacity: 1;" id="p-type-tokenTransfers"></path><path d="M30.63024867396078,194.6041825505591A197,197,0,0,1,28.392219909014706,194.9432785418316L24.588383711041036,168.825831514252A170.6070045455344,170.6070045455344,0,0,0,26.52657347588465,168.53216577148854Z" fill-rule="evenodd" style="fill: #D7A449; stroke: #fff; opacity: 1;" id="p-type-tokenTransfers"></path><path d="M28.392219909014706,194.9432785418316A197,197,0,0,1,26.150442660782275,195.25663714364524L22.64694766444578,169.09720802391698A170.6070045455344,170.6070045455344,0,0,0,24.588383711041036,168.825831514252Z" fill-rule="evenodd" style="fill: #D7A449; stroke: #fff; opacity: 1;" id="p-type-tokenTransfers"></path><path d="M26.150442660782275,195.25663714364524A197,197,0,0,1,23.905212899940445,195.5442169848255L20.702521654223894,169.34625947199538A170.6070045455344,170.6070045455344,0,0,0,22.64694766444578,169.09720802391698Z" fill-rule="evenodd" style="fill: #D7A449; stroke: #fff; opacity: 1;" id="p-type-tokenTransfers"></path><path d="M23.905212899940445,195.5442169848255A197,197,0,0,1,21.656827052984198,195.80598009763932L18.755362393250394,169.57295297746586A170.6070045455344,170.6070045455344,0,0,0,20.702521654223894,169.34625947199538Z" fill-rule="evenodd" style="fill: #D7A449; stroke: #fff; opacity: 1;" id="p-type-tokenTransfers"></path><path d="M21.656827052984198,195.80598009763932A197,197,0,0,1,19.405581963090846,196.04189192280757L16.805726955257768,169.7772586111147A170.6070045455344,170.6070045455344,0,0,0,18.755362393250394,169.57295297746586Z" fill-rule="evenodd" style="fill: #D7A449; stroke: #fff; opacity: 1;" id="p-type-tokenTransfers"></path><path d="M19.405581963090846,196.04189192280757A197,197,0,0,1,17.151774850929282,196.25192131406774L14.853872740895813,169.9591493994874A170.6070045455344,170.6070045455344,0,0,0,16.805726955257768,169.7772586111147Z" fill-rule="evenodd" style="fill: #D7A449; stroke: #fff; opacity: 1;" id="p-type-tokenTransfers"></path><path d="M17.151774850929282,196.25192131406774A197,197,0,0,1,14.89570327541945,196.43604054228607L12.900057443748315,170.11860132844964A170.6070045455344,170.6070045455344,0,0,0,14.853872740895813,169.9591493994874Z" fill-rule="evenodd" style="fill: #D7A449; stroke: #fff; opacity: 1;" id="p-type-tokenTransfers"></path><path d="M14.89570327541945,196.43604054228607A197,197,0,0,1,12.637665094447087,196.5942252991186L10.944539016311044,170.25559334635807A170.6070045455344,170.6070045455344,0,0,0,12.900057443748315,170.11860132844964Z" fill-rule="evenodd" style="fill: #D7A449; stroke: #fff; opacity: 1;" id="p-type-tokenTransfers"></path><path d="M12.637665094447087,196.5942252991186A197,197,0,0,1,10.377958425539049,196.7264547002202L8.987575635935572,170.37010736683925A170.6070045455344,170.6070045455344,0,0,0,10.944539016311044,170.25559334635807Z" fill-rule="evenodd" style="fill: #D7A449; stroke: #fff; opacity: 1;" id="p-type-tokenTransfers"></path><path d="M10.377958425539049,196.7264547002202A197,197,0,0,1,8.116881606504348,196.83271128800212L7.029425670743411,170.46212827117785A170.6070045455344,170.6070045455344,0,0,0,8.987575635935572,170.37010736683925Z" fill-rule="evenodd" style="fill: #D7A449; stroke: #fff; opacity: 1;" id="p-type-tokenTransfers"></path><path d="M8.116881606504348,196.83271128800212A197,197,0,0,1,5.854733156046079,196.91298103393666L5.070347645514946,170.5316439103125A170.6070045455344,170.6070045455344,0,0,0,7.029425670743411,170.46212827117785Z" fill-rule="evenodd" style="fill: #D7A449; stroke: #fff; opacity: 1;" id="p-type-tokenTransfers"></path><path d="M5.854733156046079,196.91298103393666A197,197,0,0,1,3.591811734349497,196.96725334040931L3.1106002075577077,170.5786451064398A170.6070045455344,170.6070045455344,0,0,0,5.070347645514946,170.5316439103125Z" fill-rule="evenodd" style="fill: #D7A449; stroke: #fff; opacity: 1;" id="p-type-tokenTransfers"></path><path d="M3.591811734349497,196.96725334040931A197,197,0,0,1,1.3284161036513962,196.995521042118L1.150442092558451,170.60312565422612A170.6070045455344,170.6070045455344,0,0,0,3.1106002075577077,170.5786451064398Z" fill-rule="evenodd" style="fill: #D7A449; stroke: #fff; opacity: 1;" id="p-type-tokenTransfers"></path><path d="M1.3284161036513962,196.995521042118A197,197,0,0,1,-0.9351549112039779,196.99778040701892L-0.8098679095764257,170.60508232162672A170.6070045455344,170.6070045455344,0,0,0,1.150442092558451,170.60312565422612Z" fill-rule="evenodd" style="fill: #D7A449; stroke: #fff; opacity: 1;" id="p-type-tokenTransfers"></path><path d="M-0.9351549112039779,196.99778040701892A197,197,0,0,1,-3.1986024622172837,196.9740311368194L-2.770070988887623,170.58451485031262A170.6070045455344,170.6070045455344,0,0,0,-0.8098679095764257,170.60508232162672Z" fill-rule="evenodd" style="fill: #D7A449; stroke: #fff; opacity: 1;" id="p-type-tokenTransfers"></path><path d="M-3.1986024622172837,196.9740311368194A197,197,0,0,1,-5.461627717689496,196.9242763670172L-4.729908349532328,170.54142595570445A170.6070045455344,170.6070045455344,0,0,0,-2.770070988887623,170.58451485031262Z" fill-rule="evenodd" style="fill: #D7A449; stroke: #fff; opacity: 1;" id="p-type-tokenTransfers"></path><path d="M-5.461627717689496,196.9242763670172A197,197,0,0,1,-7.723931901675166,196.8485226664866L-6.6891212439517425,170.47582132661427A170.6070045455344,170.6070045455344,0,0,0,-4.729908349532328,170.54142595570445Z" fill-rule="evenodd" style="fill: #D7A449; stroke: #fff; opacity: 1;" id="p-type-tokenTransfers"></path><path d="M-7.723931901675166,196.8485226664866A197,197,0,0,1,-9.985216333428315,196.7467800366111L-8.647451007032227,170.38770962449425A170.6070045455344,170.6070045455344,0,0,0,-6.6891212439517425,170.47582132661427Z" fill-rule="evenodd" style="fill: #D7A449; stroke: #fff; opacity: 1;" id="p-type-tokenTransfers"></path><path d="M-9.985216333428315,196.7467800366111A197,197,0,0,1,-12.245182466835775,196.61906190996308L-10.604639090255581,170.27710248229332A170.6070045455344,170.6070045455344,0,0,0,-8.647451007032227,170.38770962449425Z" fill-rule="evenodd" style="fill: #D7A449; stroke: #fff; opacity: 1;" id="p-type-tokenTransfers"></path><path d="M-12.245182466835775,196.61906190996308A197,197,0,0,1,-14.503531929832732,196.46538514853023L-12.56042709583389,170.14401450292115A170.6070045455344,170.6070045455344,0,0,0,-10.604639090255581,170.27710248229332Z" fill-rule="evenodd" style="fill: #D7A449; stroke: #fff; opacity: 1;" id="p-type-tokenTransfers"></path><path d="M-14.503531929832732,196.46538514853023A197,197,0,0,1,-16.75996656379532,196.28577004148943L-14.514556810824532,169.98846325732035A170.6070045455344,170.6070045455344,0,0,0,-12.56042709583389,170.14401450292115Z" fill-rule="evenodd" style="fill: #D7A449; stroke: #fff; opacity: 1;" id="p-type-tokenTransfers"></path><path d="M-16.75996656379532,196.28577004148943A197,197,0,0,1,-19.014188462904986,196.080240302528L-16.466770241220704,169.81046928214656A170.6070045455344,170.6070045455344,0,0,0,-14.514556810824532,169.98846325732035Z" fill-rule="evenodd" style="fill: #D7A449; stroke: #fff; opacity: 1;" id="p-type-tokenTransfers"></path><path d="M-19.014188462904986,196.080240302528A197,197,0,0,1,-21.265900013479555,195.8488230667131L-18.41680964601313,169.6100560770573A170.6070045455344,170.6070045455344,0,0,0,-16.466770241220704,169.81046928214656Z" fill-rule="evenodd" style="fill: #D7A449; stroke: #fff; opacity: 1;" id="p-type-tokenTransfers"></path><path d="M-21.265900013479555,195.8488230667131A197,197,0,0,1,-23.514803933265643,195.5915488869089L-20.364417571218283,169.38725010160906A170.6070045455344,170.6070045455344,0,0,0,-18.41680964601313,169.6100560770573Z" fill-rule="evenodd" style="fill: #D7A449; stroke: #fff; opacity: 1;" id="p-type-tokenTransfers"></path><path d="M-23.514803933265643,195.5915488869089A197,197,0,0,1,-25.760603310687365,195.30845172974313L-22.309336883868774,169.14208077176434A170.6070045455344,170.6070045455344,0,0,0,-20.364417571218283,169.38725010160906Z" fill-rule="evenodd" style="fill: #D7A449; stroke: #fff; opacity: 1;" id="p-type-tokenTransfers"></path><path d="M-25.760603310687365,195.30845172974313A197,197,0,0,1,-28.003001644046105,194.99956897112247L-24.251310805961324,168.87458045600783A170.6070045455344,170.6070045455344,0,0,0,-22.309336883868774,169.14208077176434Z" fill-rule="evenodd" style="fill: #D7A449; stroke: #fff; opacity: 1;" id="p-type-tokenTransfers"></path><path d="M-28.003001644046105,194.99956897112247A197,197,0,0,1,-30.24170288066612,194.66494139129807L-26.190082948357897,168.584784471073A170.6070045455344,170.6070045455344,0,0,0,-24.251310805961324,168.87458045600783Z" fill-rule="evenodd" style="fill: #D7A449; stroke: #fff; opacity: 1;" id="p-type-tokenTransfers"></path><path d="M-30.24170288066612,194.66494139129807A197,197,0,0,1,-32.47641145598095,194.30461316948148L-28.12539734463547,168.27273107727933A170.6070045455344,170.6070045455344,0,0,0,-26.190082948357897,168.584784471073Z" fill-rule="evenodd" style="fill: #D7A449; stroke: #fff; opacity: 1;" id="p-type-tokenTransfers"></path><path d="M-32.47641145598095,194.30461316948148A197,197,0,0,1,-34.70683233255528,193.91863187801192L-30.056998484879998,167.93846147348117A170.6070045455344,170.6070045455344,0,0,0,-28.12539734463547,168.27273107727933Z" fill-rule="evenodd" style="fill: #D7A449; stroke: #fff; opacity: 1;" id="p-type-tokenTransfers"></path><path d="M-34.70683233255528,193.91863187801192A197,197,0,0,1,-36.932671039037324,193.50704847607554L-31.98463134942014,167.58201979162826A170.6070045455344,170.6070045455344,0,0,0,-30.056998484879998,167.93846147348117Z" fill-rule="evenodd" style="fill: #D7A449; stroke: #fff; opacity: 1;" id="p-type-tokenTransfers"></path><path d="M-36.932671039037324,193.50704847607554A197,197,0,0,1,-39.15363370903634,193.06991730297761L-33.908041442496206,167.20345309093935A170.6070045455344,170.6070045455344,0,0,0,-31.98463134942014,167.58201979162826Z" fill-rule="evenodd" style="fill: #D7A449; stroke: #fff; opacity: 1;" id="p-type-tokenTransfers"></path><path d="M-39.15363370903634,193.06991730297761A197,197,0,0,1,-41.3694271199204,192.60729607096818L-35.82697482585998,166.80281135168914A170.6070045455344,170.6070045455344,0,0,0,-33.908041442496206,167.20345309093935Z" fill-rule="evenodd" style="fill: #D7A449; stroke: #fff; opacity: 1;" id="p-type-tokenTransfers"></path><path d="M-41.3694271199204,192.60729607096818A197,197,0,0,1,-43.57975873152909,192.1192458576228L-37.7411781523009,166.3801474686096A170.6070045455344,170.6070045455344,0,0,0,-35.82697482585998,166.80281135168914Z" fill-rule="evenodd" style="fill: #D7A449; stroke: #fff; opacity: 1;" id="p-type-tokenTransfers"></path><path d="M-43.57975873152909,192.1192458576228A197,197,0,0,1,-45.784336724796134,191.60583109777866L-39.650398699094275,165.9355172439067A170.6070045455344,170.6070045455344,0,0,0,-37.7411781523009,166.3801474686096Z" fill-rule="evenodd" style="fill: #D7A449; stroke: #fff; opacity: 1;" id="p-type-tokenTransfers"></path><path d="M-45.784336724796134,191.60583109777866A197,197,0,0,1,-47.9828700402768,191.06711957502762L-41.55438440136696,165.46897937989291A170.6070045455344,170.6070045455344,0,0,0,-39.650398699094275,165.9355172439067Z" fill-rule="evenodd" style="fill: #D7A449; stroke: #fff; opacity: 1;" id="p-type-tokenTransfers"></path><path d="M-47.9828700402768,191.06711957502762A197,197,0,0,1,-50.17506841657505,190.50318241276707L-43.45288388537624,164.9805954712372A170.6070045455344,170.6070045455344,0,0,0,-41.55438440136696,165.46897937989291Z" fill-rule="evenodd" style="fill: #D7A449; stroke: #fff; opacity: 1;" id="p-type-tokenTransfers"></path><path d="M-50.17506841657505,190.50318241276707A197,197,0,0,1,-52.36064242866528,189.9140940648099L-45.34564650169746,164.47042999683285A170.6070045455344,170.6070045455344,0,0,0,-43.45288388537624,164.9805954712372Z" fill-rule="evenodd" style="fill: #D7A449; stroke: #fff; opacity: 1;" id="p-type-tokenTransfers"></path><path d="M-52.36064242866528,189.9140940648099A197,197,0,0,1,-54.539303526103694,189.29993230555456L-47.23242235831601,163.93855031128479A170.6070045455344,170.6070045455344,0,0,0,-45.34564650169746,164.47042999683285Z" fill-rule="evenodd" style="fill: #D7A449; stroke: #fff; opacity: 1;" id="p-type-tokenTransfers"></path><path d="M-54.539303526103694,189.29993230555456A197,197,0,0,1,-56.71076407112414,188.66077821971714L-49.11296235361932,163.38502663601696A170.6070045455344,170.6070045455344,0,0,0,-47.23242235831601,163.93855031128479Z" fill-rule="evenodd" style="fill: #D7A449; stroke: #fff; opacity: 1;" id="p-type-tokenTransfers"></path><path d="M-56.71076407112414,188.66077821971714A197,197,0,0,1,-58.874737376613524,187.99671619162604L-50.98701820928451,162.80993205000144A170.6070045455344,170.6070045455344,0,0,0,-49.11296235361932,163.38502663601696Z" fill-rule="evenodd" style="fill: #D7A449; stroke: #fff; opacity: 1;" id="p-type-tokenTransfers"></path></g></svg>