<svg xmlns="http://www.w3.org/2000/svg" width="400" height="400" id="block-7908382"><g id="burst-container" transform="translate(200,200)"><circle r="197" style="fill: #f9f9f9; stroke: #f9f9f9; stroke-width: 3; opacity: 1;" id="circle-base"></circle><path display="none" d="M6.031385485800715e-15,-98.5A98.5,98.5,0,1,1,-6.031385485800715e-15,98.5A98.5,98.5,0,1,1,6.031385485800715e-15,-98.5Z" fill-rule="evenodd" id="p-type-root" style="stroke: #fff; opacity: 1;"></path><path d="M8.529667153919608e-15,-139.30003589374985A139.30003589374985,139.30003589374985,0,1,1,-127.12952280662857,-56.94369526961616L-89.89414766557692,-40.26527307096592A98.5,98.5,0,1,0,6.031385485800715e-15,-98.5Z" fill-rule="evenodd" style="fill: #0B1F65; stroke: #fff; opacity: 1;" id="p-type-data"></path><path d="M-127.12952280662857,-56.94369526961616A139.30003589374985,139.30003589374985,0,0,1,-2.761020962525175,-139.2726705540053L-1.95233664559976,-98.48064978269714A98.5,98.5,0,0,0,-89.89414766557692,-40.26527307096592Z" fill-rule="evenodd" style="fill: #D7A449; stroke: #fff; opacity: 1;" id="p-type-value"></path><path d="M1.0446666101440332e-14,-170.6070045455344A170.6070045455344,170.6070045455344,0,0,1,166.7449352776473,36.09538141166005L136.14666954121398,29.471755509902625A139.30003589374985,139.30003589374985,0,0,0,8.529667153919608e-15,-139.30003589374985Z" fill-rule="evenodd" style="fill: #1DC690; stroke: #fff; opacity: 1;" id="p-type-logs"></path><path d="M166.7449352776473,36.09538141166005A170.6070045455344,170.6070045455344,0,0,1,-45.1422624051961,164.5263691477461L-36.858502909184836,134.3352178815876A139.30003589374985,139.30003589374985,0,0,0,136.14666954121398,29.471755509902625Z" fill-rule="evenodd" style="fill: #D7A449; stroke: #fff; opacity: 1;" id="p-type-tokenTransfers"></path><path d="M-45.1422624051961,164.5263691477461A170.6070045455344,170.6070045455344,0,0,1,-121.51366245094604,119.7546652024778L-99.21548992720324,97.77927468796764A139.30003589374985,139.30003589374985,0,0,0,-36.858502909184836,134.3352178815876Z" fill-rule="evenodd" style="fill: #414552; stroke: #fff; opacity: 1;" id="p-type-ether"></path><path d="M-155.7012310598784,-69.74149873954788A170.6070045455344,170.6070045455344,0,0,1,-56.40820113951283,-161.01200217438532L-46.057103366695685,-131.4657492637132A139.30003589374985,139.30003589374985,0,0,0,-127.12952280662857,-56.94369526961616Z" fill-rule="evenodd" style="fill: #D7A449; stroke: #fff; opacity: 1;" id="p-type-tokenTransfers"></path><path d="M-56.40820113951283,-161.01200217438532A170.6070045455344,170.6070045455344,0,0,1,-6.761763925182157,-170.47295547570033L-5.5209571259516705,-139.19058528655378A139.30003589374985,139.30003589374985,0,0,0,-46.057103366695685,-131.4657492637132Z" fill-rule="evenodd" style="fill: #414552; stroke: #fff; opacity: 1;" id="p-type-ether"></path><path d="M1.206277097160143e-14,-197A197,197,0,0,1,1.9524325362637236,-196.99032465375385L1.6908561755796667,-170.59862544989483A170.6070045455344,170.6070045455344,0,0,0,1.0446666101440332e-14,-170.6070045455344Z" fill-rule="evenodd" style="fill: #1DC690; stroke: #fff; opacity: 1;" id="p-type-logs"></path><path d="M1.9524325362637236,-196.99032465375385A197,197,0,0,1,3.9046732911994084,-196.96129956539428L3.3815462636572806,-170.57348898602837A170.6070045455344,170.6070045455344,0,0,0,1.6908561755796667,-170.59862544989483Z" fill-rule="evenodd" style="fill: #1DC690; stroke: #fff; opacity: 1;" id="p-type-logs"></path><path d="M3.9046732911994084,-196.96129956539428A197,197,0,0,1,5.856530502317119,-196.91292758596484L5.071904193045064,-170.53159762301112A170.6070045455344,170.6070045455344,0,0,0,3.3815462636572806,-170.57348898602837Z" fill-rule="evenodd" style="fill: #1DC690; stroke: #fff; opacity: 1;" id="p-type-logs"></path><path d="M5.856530502317119,-196.91292758596484A197,197,0,0,1,7.807812444801214,-196.84521346689334L6.761763925182136,-170.47295547570033A170.6070045455344,170.6070045455344,0,0,0,5.071904193045064,-170.53159762301112Z" fill-rule="evenodd" style="fill: #1DC690; stroke: #fff; opacity: 1;" id="p-type-logs"></path><path d="M7.807812444801214,-196.84521346689334A197,197,0,0,1,9.758327450342888,-196.7581638595255L8.450959470443971,-170.39756830433032A170.6070045455344,170.6070045455344,0,0,0,6.761763925182136,-170.47295547570033Z" fill-rule="evenodd" style="fill: #1DC690; stroke: #fff; opacity: 1;" id="p-type-logs"></path><path d="M9.758327450342888,-196.7581638595255A197,197,0,0,1,11.707883925967147,-196.65178731447136L10.139324904447037,-170.3054435139466A170.6070045455344,170.6070045455344,0,0,0,8.450959470443971,-170.39756830433032Z" fill-rule="evenodd" style="fill: #1DC690; stroke: #fff; opacity: 1;" id="p-type-logs"></path><path d="M11.707883925967147,-196.65178731447136A197,197,0,0,1,13.656290372852384,-196.52609428076553L11.826694384347027,-170.1965901536786A170.6070045455344,170.6070045455344,0,0,0,10.139324904447037,-170.3054435139466Z" fill-rule="evenodd" style="fill: #1DC690; stroke: #fff; opacity: 1;" id="p-type-logs"></path><path d="M13.656290372852384,-196.52609428076553A197,197,0,0,1,15.603355405140713,-196.3810971048407L13.512902165129088,-170.07101891585071A170.6070045455344,170.6070045455344,0,0,0,11.826694384347027,-170.1965901536786Z" fill-rule="evenodd" style="fill: #1DC690; stroke: #fff; opacity: 1;" id="p-type-logs"></path><path d="M15.603355405140713,-196.3810971048407A197,197,0,0,1,17.548887768737195,-196.21681002931496L15.197782615888427,-169.92874213493195A170.6070045455344,170.6070045455344,0,0,0,13.512902165129088,-170.07101891585071Z" fill-rule="evenodd" style="fill: #1DC690; stroke: #fff; opacity: 1;" id="p-type-logs"></path><path d="M17.548887768737195,-196.21681002931496A197,197,0,0,1,19.492696360096147,-196.03324919159274L16.881170236099724,-169.76977378632458A170.6070045455344,170.6070045455344,0,0,0,15.197782615888427,-169.92874213493195Z" fill-rule="evenodd" style="fill: #1DC690; stroke: #fff; opacity: 1;" id="p-type-logs"></path><path d="M19.492696360096147,-196.03324919159274A197,197,0,0,1,21.434590244992606,-195.8304326222798L18.562899671873712,-169.59412948499116A170.6070045455344,170.6070045455344,0,0,0,16.881170236099724,-169.76977378632458Z" fill-rule="evenodd" style="fill: #1DC690; stroke: #fff; opacity: 1;" id="p-type-logs"></path><path d="M21.434590244992606,-195.8304326222798A197,197,0,0,1,23.37437867727724,-195.608380243412L20.242805732199393,-169.40182648392087A170.6070045455344,170.6070045455344,0,0,0,18.562899671873712,-169.59412948499116Z" fill-rule="evenodd" style="fill: #1DC690; stroke: #fff; opacity: 1;" id="p-type-logs"></path><path d="M23.37437867727724,-195.608380243412A197,197,0,0,1,25.31187111761272,-195.3671138664984L21.92072340517023,-169.1928836724347A170.6070045455344,170.6070045455344,0,0,0,20.242805732199393,-169.40182648392087Z" fill-rule="evenodd" style="fill: #1DC690; stroke: #fff; opacity: 1;" id="p-type-logs"></path><path d="M25.31187111761272,-195.3671138664984A197,197,0,0,1,27.24687725218982,-195.10665719037908L23.59648787419272,-168.96732157433007A170.6070045455344,170.6070045455344,0,0,0,21.92072340517023,-169.1928836724347Z" fill-rule="evenodd" style="fill: #1DC690; stroke: #fff; opacity: 1;" id="p-type-logs"></path><path d="M27.24687725218982,-195.10665719037908A197,197,0,0,1,29.179207011421312,-194.82703579889682L25.269934534175864,-168.7251623458649A170.6070045455344,170.6070045455344,0,0,0,23.59648787419272,-168.96732157433007Z" fill-rule="evenodd" style="fill: #1DC690; stroke: #fff; opacity: 1;" id="p-type-logs"></path><path d="M29.179207011421312,-194.82703579889682A197,197,0,0,1,31.10867058861196,-194.5282771583844L26.940899007699763,-168.46642977358107A170.6070045455344,170.6070045455344,0,0,0,25.269934534175864,-168.7251623458649Z" fill-rule="evenodd" style="fill: #1DC690; stroke: #fff; opacity: 1;" id="p-type-logs"></path><path d="M31.10867058861196,-194.5282771583844A197,197,0,0,1,33.03507845860258,-194.21041061496672L28.609217161161904,-168.19114927196816A170.6070045455344,170.6070045455344,0,0,0,26.940899007699763,-168.46642977358107Z" fill-rule="evenodd" style="fill: #1DC690; stroke: #fff; opacity: 1;" id="p-type-logs"></path><path d="M33.03507845860258,-194.21041061496672A197,197,0,0,1,34.95824139638654,-193.87346739167782L30.274725120899532,-167.89934788096699A170.6070045455344,170.6070045455344,0,0,0,28.609217161161904,-168.19114927196816Z" fill-rule="evenodd" style="fill: #1DC690; stroke: #fff; opacity: 1;" id="p-type-logs"></path><path d="M34.95824139638654,-193.87346739167782A197,197,0,0,1,36.87797049569672,-193.51748058539445L31.93725928928637,-167.5910542633135A170.6070045455344,170.6070045455344,0,0,0,30.274725120899532,-167.89934788096699Z" fill-rule="evenodd" style="fill: #1DC690; stroke: #fff; opacity: 1;" id="p-type-logs"></path><path d="M36.87797049569672,-193.51748058539445A197,197,0,0,1,38.794077187561214,-193.14248516358472L33.59665636080238,-167.2662987017234A170.6070045455344,170.6070045455344,0,0,0,31.93725928928637,-167.5910542633135Z" fill-rule="evenodd" style="fill: #1DC690; stroke: #fff; opacity: 1;" id="p-type-logs"></path><path d="M38.794077187561214,-193.14248516358472A197,197,0,0,1,40.7063732588258,-192.74851796087344L35.25275333807469,-166.92511309591754A170.6070045455344,170.6070045455344,0,0,0,33.59665636080238,-167.2662987017234Z" fill-rule="evenodd" style="fill: #1DC690; stroke: #fff; opacity: 1;" id="p-type-logs"></path><path d="M40.7063732588258,-192.74851796087344A197,197,0,0,1,42.61467087064161,-192.33561767542406L36.90538754788836,-166.56753095948852A170.6070045455344,170.6070045455344,0,0,0,35.25275333807469,-166.92511309591754Z" fill-rule="evenodd" style="fill: #1DC690; stroke: #fff; opacity: 1;" id="p-type-logs"></path><path d="M42.61467087064161,-192.33561767542406A197,197,0,0,1,44.51878257691591,-191.9038248651373L38.55439665716523,-166.19358741660872A170.6070045455344,170.6070045455344,0,0,0,36.90538754788836,-166.56753095948852Z" fill-rule="evenodd" style="fill: #1DC690; stroke: #fff; opacity: 1;" id="p-type-logs"></path><path d="M44.51878257691591,-191.9038248651373A197,197,0,0,1,46.418521342724326,-191.4531819436675L40.19961868890942,-165.80331919858023A170.6070045455344,170.6070045455344,0,0,0,38.55439665716523,-166.19358741660872Z" fill-rule="evenodd" style="fill: #1DC690; stroke: #fff; opacity: 1;" id="p-type-logs"></path><path d="M46.418521342724326,-191.4531819436675A197,197,0,0,1,48.31370056268274,-190.9837331762562L41.84089203811778,-165.3967646402268A170.6070045455344,170.6070045455344,0,0,0,40.19961868890942,-165.80331919858023Z" fill-rule="evenodd" style="fill: #1DC690; stroke: #fff; opacity: 1;" id="p-type-logs"></path><path d="M48.31370056268274,-190.9837331762562A197,197,0,0,1,50.204134079276905,-190.4955246753844L43.47805548765388,-164.97396367612825A170.6070045455344,170.6070045455344,0,0,0,41.84089203811778,-165.3967646402268Z" fill-rule="evenodd" style="fill: #1DC690; stroke: #fff; opacity: 1;" id="p-type-logs"></path><path d="M50.204134079276905,-190.4955246753844A197,197,0,0,1,52.08963620114819,-189.98860439624275L45.11094822408387,-164.5349578366981A170.6070045455344,170.6070045455344,0,0,0,43.47805548765388,-164.97396367612825Z" fill-rule="evenodd" style="fill: #1DC690; stroke: #fff; opacity: 1;" id="p-type-logs"></path><path d="M52.08963620114819,-189.98860439624275A197,197,0,0,1,53.970021721333346,-189.46302213202134L46.73940985347264,-164.0797902441038A170.6070045455344,170.6070045455344,0,0,0,45.11094822408387,-164.5349578366981Z" fill-rule="evenodd" style="fill: #1DC690; stroke: #fff; opacity: 1;" id="p-type-logs"></path><path d="M53.970021721333346,-189.46302213202134A197,197,0,0,1,55.84510593545692,-188.91882950901848L48.36328041713883,-163.60850560803127A170.6070045455344,170.6070045455344,0,0,0,46.73940985347264,-164.0797902441038Z" fill-rule="evenodd" style="fill: #1DC690; stroke: #fff; opacity: 1;" id="p-type-logs"></path><path d="M55.84510593545692,-188.91882950901848A197,197,0,0,1,57.71470465987411,-188.35607998156976L49.982400407367095,-163.12115022129296A170.6070045455344,170.6070045455344,0,0,0,48.36328041713883,-163.60850560803127Z" fill-rule="evenodd" style="fill: #1DC690; stroke: #fff; opacity: 1;" id="p-type-logs"></path><path d="M57.71470465987411,-188.35607998156976A197,197,0,0,1,59.57863424976258,-187.7748288267973L51.596610783076024,-162.61777195528097A170.6070045455344,170.6070045455344,0,0,0,49.982400407367095,-163.12115022129296Z" fill-rule="evenodd" style="fill: #1DC690; stroke: #fff; opacity: 1;" id="p-type-logs"></path><path d="M59.57863424976258,-187.7748288267973A197,197,0,0,1,61.43671161716129,-187.17513313918L53.20575298544022,-162.09842025526441A170.6070045455344,170.6070045455344,0,0,0,51.596610783076024,-162.61777195528097Z" fill-rule="evenodd" style="fill: #1DC690; stroke: #fff; opacity: 1;" id="p-type-logs"></path><path d="M61.43671161716129,-187.17513313918A197,197,0,0,1,63.288754248954724,-186.55705182494555L54.80966895346512,-161.56314613553292A170.6070045455344,170.6070045455344,0,0,0,53.20575298544022,-162.09842025526441Z" fill-rule="evenodd" style="fill: #1DC690; stroke: #fff; opacity: 1;" id="p-type-logs"></path><path d="M63.288754248954724,-186.55705182494555A197,197,0,0,1,65.13458022480047,-185.920645596284L56.40820113951274,-161.01200217438534A170.6070045455344,170.6070045455344,0,0,0,54.80966895346512,-161.56314613553292Z" fill-rule="evenodd" style="fill: #1DC690; stroke: #fff; opacity: 1;" id="p-type-logs"></path><path d="M65.13458022480047,-185.920645596284A197,197,0,0,1,66.97400823499878,-185.2659769653843L58.00119252477714,-160.44504250896546A170.6070045455344,170.6070045455344,0,0,0,56.40820113951274,-161.01200217438534Z" fill-rule="evenodd" style="fill: #1DC690; stroke: #fff; opacity: 1;" id="p-type-logs"></path><path d="M66.97400823499878,-185.2659769653843A197,197,0,0,1,68.80685759830199,-184.5931102382941L59.588486634707856,-159.86232282994402A170.6070045455344,170.6070045455344,0,0,0,58.00119252477714,-160.44504250896546Z" fill-rule="evenodd" style="fill: #1DC690; stroke: #fff; opacity: 1;" id="p-type-logs"></path><path d="M68.80685759830199,-184.5931102382941A197,197,0,0,1,70.63294827966233,-183.90211150860273L61.16992755437993,-159.26390037604853A170.6070045455344,170.6070045455344,0,0,0,59.588486634707856,-159.86232282994402Z" fill-rule="evenodd" style="fill: #1DC690; stroke: #fff; opacity: 1;" id="p-type-logs"></path><path d="M70.63294827966233,-183.90211150860273A197,197,0,0,1,72.45210090791615,-183.19304865094946L62.74535994380897,-158.6498339284408A170.6070045455344,170.6070045455344,0,0,0,61.16992755437993,-159.26390037604853Z" fill-rule="evenodd" style="fill: #1DC690; stroke: #fff; opacity: 1;" id="p-type-logs"></path><path d="M72.45210090791615,-183.19304865094946A197,197,0,0,1,74.26413679340298,-182.46599131435624L64.3146290532096,-158.02018380494323A170.6070045455344,170.6070045455344,0,0,0,62.74535994380897,-158.6498339284408Z" fill-rule="evenodd" style="fill: #1DC690; stroke: #fff; opacity: 1;" id="p-type-logs"></path><path d="M74.26413679340298,-182.46599131435624A197,197,0,0,1,76.06887794551777,-181.72101091538624L65.87758073819622,-157.37501185411375A170.6070045455344,170.6070045455344,0,0,0,64.3146290532096,-158.02018380494323Z" fill-rule="evenodd" style="fill: #1DC690; stroke: #fff; opacity: 1;" id="p-type-logs"></path><path d="M76.06887794551777,-181.72101091538624A197,197,0,0,1,77.86614709019419,-180.9581806311288L67.43406147492391,-156.7143814491707A170.6070045455344,170.6070045455344,0,0,0,65.87758073819622,-157.37501185411375Z" fill-rule="evenodd" style="fill: #1DC690; stroke: #fff; opacity: 1;" id="p-type-logs"></path><path d="M77.86614709019419,-180.9581806311288A197,197,0,0,1,79.65576768731779,-180.1775753920117L68.98391837516883,-156.03835748176806A170.6070045455344,170.6070045455344,0,0,0,67.43406147492391,-156.7143814491707Z" fill-rule="evenodd" style="fill: #1DC690; stroke: #fff; opacity: 1;" id="p-type-logs"></path><path d="M79.65576768731779,-180.1775753920117A197,197,0,0,1,81.437563948067,-179.37927187444066L70.52699920134576,-155.3470063556211A170.6070045455344,170.6070045455344,0,0,0,68.98391837516883,-156.03835748176806Z" fill-rule="evenodd" style="fill: #1DC690; stroke: #fff; opacity: 1;" id="p-type-logs"></path><path d="M81.437563948067,-179.37927187444066A197,197,0,0,1,83.21136085218025,-178.5633484932679L72.06315238146203,-154.64039597998377A170.6070045455344,170.6070045455344,0,0,0,70.52699920134576,-155.3470063556211Z" fill-rule="evenodd" style="fill: #1DC690; stroke: #fff; opacity: 1;" id="p-type-logs"></path><path d="M83.21136085218025,-178.5633484932679A197,197,0,0,1,84.97698416514773,-177.72988539408962L73.59222702400591,-153.91859576297847A170.6070045455344,170.6070045455344,0,0,0,72.06315238146203,-154.64039597998377Z" fill-rule="evenodd" style="fill: #1DC690; stroke: #fff; opacity: 1;" id="p-type-logs"></path><path d="M84.97698416514773,-177.72988539408962A197,197,0,0,1,86.73426045532584,-176.8789644453735L75.11407293276822,-153.18167660477795A170.6070045455344,170.6070045455344,0,0,0,73.59222702400591,-153.91859576297847Z" fill-rule="evenodd" style="fill: #1DC690; stroke: #fff; opacity: 1;" id="p-type-logs"></path><path d="M86.73426045532584,-176.8789644453735A197,197,0,0,1,88.4830171109729,-176.01066923041705L76.62854062159569,-152.4297108906412A170.6070045455344,170.6070045455344,0,0,0,75.11407293276822,-153.18167660477795Z" fill-rule="evenodd" style="fill: #1DC690; stroke: #fff; opacity: 1;" id="p-type-logs"></path><path d="M88.4830171109729,-176.01066923041705A197,197,0,0,1,90.22308235720418,-175.12508503913753L78.13548132907441,-151.66277248380325A170.6070045455344,170.6070045455344,0,0,0,76.62854062159569,-152.4297108906412Z" fill-rule="evenodd" style="fill: #1DC690; stroke: #fff; opacity: 1;" id="p-type-logs"></path><path d="M90.22308235720418,-175.12508503913753A197,197,0,0,1,91.9542852728649,-174.22229885969415L79.63474703314228,-150.88093671821977A170.6070045455344,170.6070045455344,0,0,0,78.13548132907441,-151.66277248380325Z" fill-rule="evenodd" style="fill: #1DC690; stroke: #fff; opacity: 1;" id="p-type-logs"></path><path d="M91.9542852728649,-174.22229885969415A197,197,0,0,1,93.67645580731917,-173.30239936994346L81.12619046562871,-150.08428039116734A170.6070045455344,170.6070045455344,0,0,0,79.63474703314228,-150.88093671821977Z" fill-rule="evenodd" style="fill: #1DC690; stroke: #fff; opacity: 1;" id="p-type-logs"></path><path d="M93.67645580731917,-173.30239936994346A197,197,0,0,1,95.38942479715371,-172.36547692872884L82.60966512672039,-149.27288175569973A170.6070045455344,170.6070045455344,0,0,0,81.12619046562871,-150.08428039116734Z" fill-rule="evenodd" style="fill: #1DC690; stroke: #fff; opacity: 1;" id="p-type-logs"></path><path d="M95.38942479715371,-172.36547692872884A197,197,0,0,1,97.09302398279391,-171.41162356700494L84.08502529935129,-148.44682051296164A170.6070045455344,170.6070045455344,0,0,0,82.60966512672039,-149.27288175569973Z" fill-rule="evenodd" style="fill: #1DC690; stroke: #fff; opacity: 1;" id="p-type-logs"></path><path d="M97.09302398279391,-171.41162356700494A197,197,0,0,1,98.78708602503198,-170.4409329787975L85.5521260635164,-147.60617780435953A170.6070045455344,170.6070045455344,0,0,0,84.08502529935129,-148.44682051296164Z" fill-rule="evenodd" style="fill: #1DC690; stroke: #fff; opacity: 1;" id="p-type-logs"></path><path d="M98.78708602503198,-170.4409329787975A197,197,0,0,1,100.47144452146343,-169.45350051200032L87.0108233105062,-146.75103620359167A170.6070045455344,170.6070045455344,0,0,0,85.5521260635164,-147.60617780435953Z" fill-rule="evenodd" style="fill: #1DC690; stroke: #fff; opacity: 1;" id="p-type-logs"></path><path d="M100.47144452146343,-169.45350051200032A197,197,0,0,1,102.14593402283307,-168.44942315900946L88.46097375706265,-145.88147970853694A170.6070045455344,170.6070045455344,0,0,0,87.0108233105062,-146.75103620359167Z" fill-rule="evenodd" style="fill: #1DC690; stroke: #fff; opacity: 1;" id="p-type-logs"></path><path d="M102.14593402283307,-168.44942315900946A197,197,0,0,1,103.81039004928581,-167.428799547196L89.90243495945282,-144.99759373300427A170.6070045455344,170.6070045455344,0,0,0,88.46097375706265,-145.88147970853694Z" fill-rule="evenodd" style="fill: #1DC690; stroke: #fff; opacity: 1;" id="p-type-logs"></path><path d="M103.81039004928581,-167.428799547196A197,197,0,0,1,105.46464910652364,-166.39172992921806L91.33506532746127,-144.09946509834234A170.6070045455344,170.6070045455344,0,0,0,89.90243495945282,-144.99759373300427Z" fill-rule="evenodd" style="fill: #1DC690; stroke: #fff; opacity: 1;" id="p-type-logs"></path><path d="M105.46464910652364,-166.39172992921806A197,197,0,0,1,107.1085487018646,-165.33831617317355L92.75872413829751,-143.1871820249118A170.6070045455344,170.6070045455344,0,0,0,91.33506532746127,-144.09946509834234Z" fill-rule="evenodd" style="fill: #1DC690; stroke: #fff; opacity: 1;" id="p-type-logs"></path><path d="M107.1085487018646,-165.33831617317355A197,197,0,0,1,108.74192736020443,-164.26866175259366L94.17327155041913,-142.2608341234193A170.6070045455344,170.6070045455344,0,0,0,92.75872413829751,-143.1871820249118Z" fill-rule="evenodd" style="fill: #1DC690; stroke: #fff; opacity: 1;" id="p-type-logs"></path><path d="M108.74192736020443,-164.26866175259366A197,197,0,0,1,110.36462463987743,-163.18287173627922L95.57856861726785,-141.32051238611547A170.6070045455344,170.6070045455344,0,0,0,94.17327155041913,-142.2608341234193Z" fill-rule="evenodd" style="fill: #1DC690; stroke: #fff; opacity: 1;" id="p-type-logs"></path><path d="M110.36462463987743,-163.18287173627922A197,197,0,0,1,111.9764811484162,-162.08105277798015L96.97447730091771,-140.36630917785718A170.6070045455344,170.6070045455344,0,0,0,95.57856861726785,-141.32051238611547Z" fill-rule="evenodd" style="fill: #1DC690; stroke: #fff; opacity: 1;" id="p-type-logs"></path><path d="M111.9764811484162,-162.08105277798015A197,197,0,0,1,113.57733855820842,-160.96331310591896L98.36086048563433,-139.39831822703448A170.6070045455344,170.6070045455344,0,0,0,96.97447730091771,-140.36630917785718Z" fill-rule="evenodd" style="fill: #1DC690; stroke: #fff; opacity: 1;" id="p-type-logs"></path><path d="M113.57733855820842,-160.96331310591896A197,197,0,0,1,115.16703962204868,-159.82976251216L99.73758199134315,-138.4166346163643A170.6070045455344,170.6070045455344,0,0,0,98.36086048563433,-139.39831822703448Z" fill-rule="evenodd" style="fill: #1DC690; stroke: #fff; opacity: 1;" id="p-type-logs"></path><path d="M115.16703962204868,-159.82976251216A197,197,0,0,1,116.74542818858451,-158.68051234182494L101.10450658700609,-137.42135477355055A170.6070045455344,170.6070045455344,0,0,0,99.73758199134315,-138.4166346163643Z" fill-rule="evenodd" style="fill: #1DC690; stroke: #fff; opacity: 1;" id="p-type-logs"></path><path d="M116.74542818858451,-158.68051234182494A197,197,0,0,1,118.31234921765451,-157.51567548215561L102.46150000390476,-136.41257646181242A170.6070045455344,170.6070045455344,0,0,0,101.10450658700609,-137.42135477355055Z" fill-rule="evenodd" style="fill: #1DC690; stroke: #fff; opacity: 1;" id="p-type-logs"></path><path d="M118.31234921765451,-157.51567548215561A197,197,0,0,1,119.86764879551767,-156.33536635142553L103.80842894882946,-135.39039877028142A170.6070045455344,170.6070045455344,0,0,0,102.46150000390476,-136.41257646181242Z" fill-rule="evenodd" style="fill: #1DC690; stroke: #fff; opacity: 1;" id="p-type-logs"></path><path d="M119.86764879551767,-156.33536635142553A197,197,0,0,1,121.41117414997159,-155.1397008877008L105.14516111717194,-134.35492210426813A170.6070045455344,170.6070045455344,0,0,0,103.80842894882946,-135.39039877028142Z" fill-rule="evenodd" style="fill: #1DC690; stroke: #fff; opacity: 1;" id="p-type-logs"></path><path d="M121.41117414997159,-155.1397008877008A197,197,0,0,1,122.94277366535896,-153.9287965374521L106.47156520592134,-133.30624817539965A170.6070045455344,170.6070045455344,0,0,0,105.14516111717194,-134.35492210426813Z" fill-rule="evenodd" style="fill: #1DC690; stroke: #fff; opacity: 1;" id="p-type-logs"></path><path d="M122.94277366535896,-153.9287965374521A197,197,0,0,1,124.46229689746029,-152.70277224401804L107.78751092656174,-132.24447999162888A170.6070045455344,170.6070045455344,0,0,0,106.47156520592134,-133.30624817539965Z" fill-rule="evenodd" style="fill: #1DC690; stroke: #fff; opacity: 1;" id="p-type-logs"></path><path d="M124.46229689746029,-152.70277224401804A197,197,0,0,1,125.96959458827153,-151.46174843592198L109.09286901786989,-131.1697218471164A170.6070045455344,170.6070045455344,0,0,0,107.78751092656174,-132.24447999162888Z" fill-rule="evenodd" style="fill: #1DC690; stroke: #fff; opacity: 1;" id="p-type-logs"></path><path d="M125.96959458827153,-151.46174843592198A197,197,0,0,1,127.4645186806652,-150.2058470150425L110.3875112586122,-130.0820793119858A170.6070045455344,170.6070045455344,0,0,0,109.09286901786989,-131.1697218471164Z" fill-rule="evenodd" style="fill: #1DC690; stroke: #fff; opacity: 1;" id="p-type-logs"></path><path d="M127.4645186806652,-150.2058470150425A197,197,0,0,1,128.94692233293364,-148.9351913446395L111.67131048013951,-128.98165922195403A170.6070045455344,170.6070045455344,0,0,0,110.3875112586122,-130.0820793119858Z" fill-rule="evenodd" style="fill: #1DC690; stroke: #fff; opacity: 1;" id="p-type-logs"></path><path d="M128.94692233293364,-148.9351913446395A197,197,0,0,1,130.41665993321277,-147.6499062372365L112.94414057887842,-127.86856966783725A170.6070045455344,170.6070045455344,0,0,0,111.67131048013951,-128.98165922195403Z" fill-rule="evenodd" style="fill: #1DC690; stroke: #fff; opacity: 1;" id="p-type-logs"></path><path d="M130.41665993321277,-147.6499062372365A197,197,0,0,1,131.87358711378508,-146.35011794236087L114.20587652871806,-126.74291998493328A170.6070045455344,170.6070045455344,0,0,0,112.94414057887842,-127.86856966783725Z" fill-rule="evenodd" style="fill: #1DC690; stroke: #fff; opacity: 1;" id="p-type-logs"></path><path d="M131.87358711378508,-146.35011794236087A197,197,0,0,1,133.31756076526045,-145.03595413414251L115.4563943932911,-125.60482074228209A170.6070045455344,170.6070045455344,0,0,0,114.20587652871806,-126.74291998493328Z" fill-rule="evenodd" style="fill: #1DC690; stroke: #fff; opacity: 1;" id="p-type-logs"></path><path d="M133.31756076526045,-145.03595413414251A197,197,0,0,1,134.74843905063332,-143.70754389877297L116.69557133814754,-124.4543837318048A170.6070045455344,170.6070045455344,0,0,0,115.4563943932911,-125.60482074228209Z" fill-rule="evenodd" style="fill: #1DC690; stroke: #fff; opacity: 1;" id="p-type-logs"></path><path d="M134.74843905063332,-143.70754389877297A197,197,0,0,1,136.1660814192149,-142.3650177218257L117.9232856428203,-123.29172195732286A170.6070045455344,170.6070045455344,0,0,0,116.69557133814754,-124.4543837318048Z" fill-rule="evenodd" style="fill: #1DC690; stroke: #fff; opacity: 1;" id="p-type-logs"></path><path d="M136.1660814192149,-142.3650177218257A197,197,0,0,1,137.57034862043892,-141.00850747543888L119.13941671278161,-122.11694962345797A170.6070045455344,170.6070045455344,0,0,0,117.9232856428203,-123.29172195732286Z" fill-rule="evenodd" style="fill: #1DC690; stroke: #fff; opacity: 1;" id="p-type-logs"></path><path d="M137.57034862043892,-141.00850747543888A197,197,0,0,1,138.96110271754006,-139.63814640536188L120.34384509128849,-120.93018212441407A170.6070045455344,170.6070045455344,0,0,0,119.13941671278161,-122.11694962345797Z" fill-rule="evenodd" style="fill: #1DC690; stroke: #fff; opacity: 1;" id="p-type-logs"></path><path d="M138.96110271754006,-139.63814640536188A197,197,0,0,1,140.33820710110274,-138.2540691178672L121.53645247111666,-119.73153603264262A170.6070045455344,170.6070045455344,0,0,0,120.34384509128849,-120.93018212441407Z" fill-rule="evenodd" style="fill: #1DC690; stroke: #fff; opacity: 1;" id="p-type-logs"></path><path d="M140.33820710110274,-138.2540691178672A197,197,0,0,1,141.7015265024799,-136.8564115665283L122.7171217061815,-118.52112908739198A170.6070045455344,170.6070045455344,0,0,0,121.53645247111666,-119.73153603264262Z" fill-rule="evenodd" style="fill: #1DC690; stroke: #fff; opacity: 1;" id="p-type-logs"></path><path d="M141.7015265024799,-136.8564115665283A197,197,0,0,1,143.05092700708025,-135.4453110388654L123.88573682304494,-117.29908018314231A170.6070045455344,170.6070045455344,0,0,0,122.7171217061815,-118.52112908739198Z" fill-rule="evenodd" style="fill: #1DC690; stroke: #fff; opacity: 1;" id="p-type-logs"></path><path d="M143.05092700708025,-135.4453110388654A197,197,0,0,1,144.38627606752195,-134.02090614286018L125.04218303230712,-116.06550935792686A170.6070045455344,170.6070045455344,0,0,0,123.88573682304494,-117.29908018314231Z" fill-rule="evenodd" style="fill: #1DC690; stroke: #fff; opacity: 1;" id="p-type-logs"></path><path d="M144.38627606752195,-134.02090614286018A197,197,0,0,1,145.7074425166525,-132.5833367933407L126.18634673988186,-114.82053778154109A170.6070045455344,170.6070045455344,0,0,0,125.04218303230712,-116.06550935792686Z" fill-rule="evenodd" style="fill: #1DC690; stroke: #fff; opacity: 1;" id="p-type-logs"></path><path d="M145.7074425166525,-132.5833367933407A197,197,0,0,1,147.01429658043287,-131.132744198238L127.31811555815459,-113.56428774364055A170.6070045455344,170.6070045455344,0,0,0,126.18634673988186,-114.82053778154109Z" fill-rule="evenodd" style="fill: #1DC690; stroke: #fff; opacity: 1;" id="p-type-logs"></path><path d="M147.01429658043287,-131.132744198238A197,197,0,0,1,148.30670989068483,-129.66927084471573L128.43737831702194,-112.29688264172867A170.6070045455344,170.6070045455344,0,0,0,127.31811555815459,-113.56428774364055Z" fill-rule="evenodd" style="fill: #1DC690; stroke: #fff; opacity: 1;" id="p-type-logs"></path><path d="M148.30670989068483,-129.66927084471573A197,197,0,0,1,149.58455549770005,-128.19306048517407L129.54402507481146,-111.01844696903584A170.6070045455344,170.6070045455344,0,0,0,128.43737831702194,-112.29688264172867Z" fill-rule="evenodd" style="fill: #1DC690; stroke: #fff; opacity: 1;" id="p-type-logs"></path><path d="M149.58455549770005,-128.19306048517407A197,197,0,0,1,150.84770788270998,-126.70425812312938L130.63794712908094,-109.72910630229086A170.6070045455344,170.6070045455344,0,0,0,129.54402507481146,-111.01844696903584Z" fill-rule="evenodd" style="fill: #1DC690; stroke: #fff; opacity: 1;" id="p-type-logs"></path><path d="M150.84770788270998,-126.70425812312938A197,197,0,0,1,152.0960429702153,-125.20300999897096L131.71903702729605,-108.42898728938593A170.6070045455344,170.6070045455344,0,0,0,130.63794712908094,-109.72910630229086Z" fill-rule="evenodd" style="fill: #1DC690; stroke: #fff; opacity: 1;" id="p-type-logs"></path><path d="M152.0960429702153,-125.20300999897096A197,197,0,0,1,153.32943814017335,-123.68946357559626L132.78718857738474,-107.11821763693636A170.6070045455344,170.6070045455344,0,0,0,131.71903702729605,-108.42898728938593Z" fill-rule="evenodd" style="fill: #1DC690; stroke: #fff; opacity: 1;" id="p-type-logs"></path><path d="M192.5404665371128,41.679356349048284A197,197,0,0,1,192.1179334045922,43.58554421306077L166.37901085094384,37.746188526280456A170.6070045455344,170.6070045455344,0,0,0,166.7449352776473,36.09538141166005Z" fill-rule="evenodd" style="fill: #D7A449; stroke: #fff; opacity: 1;" id="p-type-tokenTransfers"></path><path d="M192.1179334045922,43.58554421306077A197,197,0,0,1,191.67652912967785,45.487450805686564L165.996743535529,39.3932879511195A170.6070045455344,170.6070045455344,0,0,0,166.37901085094384,37.746188526280456Z" fill-rule="evenodd" style="fill: #D7A449; stroke: #fff; opacity: 1;" id="p-type-tokenTransfers"></path><path d="M191.67652912967785,45.487450805686564A197,197,0,0,1,191.21629707012806,47.384889308602716L165.59817088032284,41.0365178967636A170.6070045455344,170.6070045455344,0,0,0,165.996743535529,39.3932879511195Z" fill-rule="evenodd" style="fill: #D7A449; stroke: #fff; opacity: 1;" id="p-type-tokenTransfers"></path><path d="M191.21629707012806,47.384889308602716A197,197,0,0,1,190.73728243309543,49.277673342372715L165.18333203586798,42.675716953885996A170.6070045455344,170.6070045455344,0,0,0,165.59817088032284,41.0365178967636Z" fill-rule="evenodd" style="fill: #D7A449; stroke: #fff; opacity: 1;" id="p-type-tokenTransfers"></path><path d="M190.73728243309543,49.277673342372715A197,197,0,0,1,190.2395322706862,51.16561698475395L164.75226775048375,44.31072410910147A170.6070045455344,170.6070045455344,0,0,0,165.18333203586798,42.675716953885996Z" fill-rule="evenodd" style="fill: #D7A449; stroke: #fff; opacity: 1;" id="p-type-tokenTransfers"></path><path d="M190.2395322706862,51.16561698475395A197,197,0,0,1,189.72309547533865,53.0485347889603L164.30502036626376,45.941378760782186A170.6070045455344,170.6070045455344,0,0,0,164.75226775048375,44.31072410910147Z" fill-rule="evenodd" style="fill: #D7A449; stroke: #fff; opacity: 1;" id="p-type-tokenTransfers"></path><path d="M189.72309547533865,53.0485347889603A197,197,0,0,1,189.18802277502039,54.92624180187799L163.8416338149166,47.567520734833096A170.6070045455344,170.6070045455344,0,0,0,164.30502036626376,45.941378760782186Z" fill-rule="evenodd" style="fill: #D7A449; stroke: #fff; opacity: 1;" id="p-type-tokenTransfers"></path><path d="M189.18802277502039,54.92624180187799A197,197,0,0,1,188.63436672824554,56.79855358223289L163.36215361345072,49.18899030042531A170.6070045455344,170.6070045455344,0,0,0,163.8416338149166,47.567520734833096Z" fill-rule="evenodd" style="fill: #D7A449; stroke: #fff; opacity: 1;" id="p-type-tokenTransfers"></path><path d="M188.63436672824554,56.79855358223289A197,197,0,0,1,188.06218171891206,58.66528621870771L162.86662685970327,50.80562818568601A170.6070045455344,170.6070045455344,0,0,0,163.36215361345072,49.18899030042531Z" fill-rule="evenodd" style="fill: #D7A449; stroke: #fff; opacity: 1;" id="p-type-tokenTransfers"></path><path d="M188.06218171891206,58.66528621870771A197,197,0,0,1,187.47152395095995,60.526256348006925L162.35510222771416,52.417275593343135A170.6070045455344,170.6070045455344,0,0,0,162.86662685970327,50.80562818568601Z" fill-rule="evenodd" style="fill: #D7A449; stroke: #fff; opacity: 1;" id="p-type-tokenTransfers"></path><path d="M187.47152395095995,60.526256348006925A197,197,0,0,1,186.86245144285027,62.38128117286808L161.82762996294446,54.02377421632367A170.6070045455344,170.6070045455344,0,0,0,162.35510222771416,52.417275593343135Z" fill-rule="evenodd" style="fill: #D7A449; stroke: #fff; opacity: 1;" id="p-type-tokenTransfers"></path><path d="M186.86245144285027,62.38128117286808A197,197,0,0,1,186.23502402186634,64.23017848001727L161.2842618773414,55.62496625330352A170.6070045455344,170.6070045455344,0,0,0,161.82762996294446,54.02377421632367Z" fill-rule="evenodd" style="fill: #D7A449; stroke: #fff; opacity: 1;" id="p-type-tokenTransfers"></path><path d="M186.23502402186634,64.23017848001727A197,197,0,0,1,185.58930331823697,66.07276665806752L160.7250513442488,57.22069442420792A170.6070045455344,170.6070045455344,0,0,0,161.2842618773414,55.62496625330352Z" fill-rule="evenodd" style="fill: #D7A449; stroke: #fff; opacity: 1;" id="p-type-tokenTransfers"></path><path d="M185.58930331823697,66.07276665806752A197,197,0,0,1,184.92535275908287,67.90886471535778L160.1500532931645,58.81080198566054A170.6070045455344,170.6070045455344,0,0,0,160.7250513442488,57.22069442420792Z" fill-rule="evenodd" style="fill: #D7A449; stroke: #fff; opacity: 1;" id="p-type-tokenTransfers"></path><path d="M184.92535275908287,67.90886471535778A197,197,0,0,1,184.24323756218624,69.73829229773125L159.5593242043446,60.395132746379915A170.6070045455344,170.6070045455344,0,0,0,160.1500532931645,58.81080198566054Z" fill-rule="evenodd" style="fill: #D7A449; stroke: #fff; opacity: 1;" id="p-type-tokenTransfers"></path><path d="M184.24323756218624,69.73829229773125A197,197,0,0,1,183.5430247295848,71.56086970625095L158.95292210325587,61.97353108252158A170.6070045455344,170.6070045455344,0,0,0,159.5593242043446,60.395132746379915Z" fill-rule="evenodd" style="fill: #D7A449; stroke: #fff; opacity: 1;" id="p-type-tokenTransfers"></path><path d="M183.5430247295848,71.56086970625095A197,197,0,0,1,182.82478304099018,73.37641791485102L158.3309065548759,63.545841952964565A170.6070045455344,170.6070045455344,0,0,0,158.95292210325587,61.97353108252158Z" fill-rule="evenodd" style="fill: #D7A449; stroke: #fff; opacity: 1;" id="p-type-tokenTransfers"></path><path d="M182.82478304099018,73.37641791485102A197,197,0,0,1,182.08858304703213,75.18475858792185L157.69333865784228,65.11191091454056A170.6070045455344,170.6070045455344,0,0,0,158.3309065548759,63.545841952964565Z" fill-rule="evenodd" style="fill: #D7A449; stroke: #fff; opacity: 1;" id="p-type-tokenTransfers"></path><path d="M182.08858304703213,75.18475858792185A197,197,0,0,1,181.33449706232832,76.98571409782748L157.04028103845098,66.67158413720439A170.6070045455344,170.6070045455344,0,0,0,157.69333865784228,65.11191091454056Z" fill-rule="evenodd" style="fill: #D7A449; stroke: #fff; opacity: 1;" id="p-type-tokenTransfers"></path><path d="M181.33449706232832,76.98571409782748A197,197,0,0,1,180.5625991583814,78.77910754235339L156.371797844505,68.2247084191443A170.6070045455344,170.6070045455344,0,0,0,157.04028103845098,66.67158413720439Z" fill-rule="evenodd" style="fill: #D7A449; stroke: #fff; opacity: 1;" id="p-type-tokenTransfers"></path><path d="M180.5625991583814,78.77910754235339A197,197,0,0,1,179.7729651563029,80.56476276208298L155.687954739013,69.77113120183041A170.6070045455344,170.6070045455344,0,0,0,156.371797844505,68.2247084191443Z" fill-rule="evenodd" style="fill: #D7A449; stroke: #fff; opacity: 1;" id="p-type-tokenTransfers"></path><path d="M179.7729651563029,80.56476276208298A197,197,0,0,1,178.9656726193656,82.34250435770129L154.98881889373976,71.31070058500016A170.6070045455344,170.6070045455344,0,0,0,155.687954739013,69.77113120183041Z" fill-rule="evenodd" style="fill: #D7A449; stroke: #fff; opacity: 1;" id="p-type-tokenTransfers"></path><path d="M178.9656726193656,82.34250435770129A197,197,0,0,1,178.14080084538497,84.11215770722383L154.27445898260777,72.8432653415789A170.6070045455344,170.6070045455344,0,0,0,154.98881889373976,71.31070058500016Z" fill-rule="evenodd" style="fill: #D7A449; stroke: #fff; opacity: 1;" id="p-type-tokenTransfers"></path><path d="M178.14080084538497,84.11215770722383A197,197,0,0,1,177.29843085892975,85.87354898314912L153.544945174952,74.36867493253449A170.6070045455344,170.6070045455344,0,0,0,154.27445898260777,72.8432653415789Z" fill-rule="evenodd" style="fill: #D7A449; stroke: #fff; opacity: 1;" id="p-type-tokenTransfers"></path><path d="M177.29843085892975,85.87354898314912A197,197,0,0,1,176.43864540336324,87.6265051695333L152.80034912862703,75.88677952166428A170.6070045455344,170.6070045455344,0,0,0,153.544945174952,74.36867493253449Z" fill-rule="evenodd" style="fill: #D7A449; stroke: #fff; opacity: 1;" id="p-type-tokenTransfers"></path><path d="M176.43864540336324,87.6265051695333A197,197,0,0,1,175.56152893271573,89.37085407898495L152.04074398296854,77.39742999031309A170.6070045455344,170.6070045455344,0,0,0,152.80034912862703,75.88677952166428Z" fill-rule="evenodd" style="fill: #D7A449; stroke: #fff; opacity: 1;" id="p-type-tokenTransfers"></path><path d="M175.56152893271573,89.37085407898495A197,197,0,0,1,174.66716760338872,91.10642436957843L151.26620435160893,78.90047795202058A170.6070045455344,170.6070045455344,0,0,0,152.04074398296854,77.39742999031309Z" fill-rule="evenodd" style="fill: #D7A449; stroke: #fff; opacity: 1;" id="p-type-tokenTransfers"></path><path d="M174.66716760338872,91.10642436957843A197,197,0,0,1,173.7556492656922,92.83304556168434L150.47680631514837,80.39577576709688A170.6070045455344,170.6070045455344,0,0,0,151.26620435160893,78.90047795202058Z" fill-rule="evenodd" style="fill: #D7A449; stroke: #fff; opacity: 1;" id="p-type-tokenTransfers"></path><path d="M173.7556492656922,92.83304556168434A197,197,0,0,1,172.8270634552152,94.5505480547152L149.67262741368157,81.8831765571247A170.6070045455344,170.6070045455344,0,0,0,150.47680631514837,80.39577576709688Z" fill-rule="evenodd" style="fill: #D7A449; stroke: #fff; opacity: 1;" id="p-type-tokenTransfers"></path><path d="M172.8270634552152,94.5505480547152A197,197,0,0,1,171.8815013840313,96.25876314378469L148.85374663918125,83.36253421938677A170.6070045455344,170.6070045455344,0,0,0,149.67262741368157,81.8831765571247Z" fill-rule="evenodd" style="fill: #D7A449; stroke: #fff; opacity: 1;" id="p-type-tokenTransfers"></path><path d="M171.8815013840313,96.25876314378469A197,197,0,0,1,170.91905593173877,97.95752303627911L148.02024442773913,84.83370344121707A170.6070045455344,170.6070045455344,0,0,0,148.85374663918125,83.36253421938677Z" fill-rule="evenodd" style="fill: #D7A449; stroke: #fff; opacity: 1;" id="p-type-tokenTransfers"></path><path d="M170.91905593173877,97.95752303627911A197,197,0,0,1,169.93982163633754,99.64666086833913L147.1722026516647,86.2965397142744A170.6070045455344,170.6070045455344,0,0,0,148.02024442773913,84.83370344121707Z" fill-rule="evenodd" style="fill: #D7A449; stroke: #fff; opacity: 1;" id="p-type-tokenTransfers"></path><path d="M169.93982163633754,99.64666086833913A197,197,0,0,1,168.94389468494296,101.32601072125013L146.3097046114434,87.750899348737A170.6070045455344,170.6070045455344,0,0,0,147.1722026516647,86.2965397142744Z" fill-rule="evenodd" style="fill: #D7A449; stroke: #fff; opacity: 1;" id="p-type-tokenTransfers"></path><path d="M168.94389468494296,101.32601072125013A197,197,0,0,1,167.93137290433776,102.99540763774014L145.43283502755423,89.19663948741676A170.6070045455344,170.6070045455344,0,0,0,146.3097046114434,87.750899348737Z" fill-rule="evenodd" style="fill: #D7A449; stroke: #fff; opacity: 1;" id="p-type-tokenTransfers"></path><path d="M167.93137290433776,102.99540763774014A197,197,0,0,1,166.90235575136256,104.65468763818284L144.54168003214778,90.63361811979158A170.6070045455344,170.6070045455344,0,0,0,145.43283502755423,89.19663948741676Z" fill-rule="evenodd" style="fill: #D7A449; stroke: #fff; opacity: 1;" id="p-type-tokenTransfers"></path><path d="M166.90235575136256,104.65468763818284A197,197,0,0,1,165.8569443031468,106.30368773670487L143.63632716058586,92.06169409595472A170.6070045455344,170.6070045455344,0,0,0,144.54168003214778,90.63361811979158Z" fill-rule="evenodd" style="fill: #D7A449; stroke: #fff; opacity: 1;" id="p-type-tokenTransfers"></path><path d="M165.8569443031468,106.30368773670487A197,197,0,0,1,164.79524124718017,107.94224595719551L142.7168653428432,93.48072714047943A170.6070045455344,170.6070045455344,0,0,0,143.63632716058586,92.06169409595472Z" fill-rule="evenodd" style="fill: #D7A449; stroke: #fff; opacity: 1;" id="p-type-tokenTransfers"></path><path d="M164.79524124718017,107.94224595719551A197,197,0,0,1,163.71735087122585,109.57020134921686L141.78338489477198,94.89057786619777A170.6070045455344,170.6070045455344,0,0,0,142.7168653428432,93.48072714047943Z" fill-rule="evenodd" style="fill: #D7A449; stroke: #fff; opacity: 1;" id="p-type-tokenTransfers"></path><path d="M163.71735087122585,109.57020134921686A197,197,0,0,1,162.6233790530768,111.1873940038137L140.83597750923064,96.29110778789223A170.6070045455344,170.6070045455344,0,0,0,141.78338489477198,94.89057786619777Z" fill-rule="evenodd" style="fill: #D7A449; stroke: #fff; opacity: 1;" id="p-type-tokenTransfers"></path><path d="M162.6233790530768,111.1873940038137A197,197,0,0,1,161.51343325015557,112.79366506922074L139.87473624707695,97.68217933589861A170.6070045455344,170.6070045455344,0,0,0,140.83597750923064,96.29110778789223Z" fill-rule="evenodd" style="fill: #D7A449; stroke: #fff; opacity: 1;" id="p-type-tokenTransfers"></path><path d="M161.51343325015557,112.79366506922074A197,197,0,0,1,160.3876224889592,114.38885676646616L138.899755528027,99.06365586961917A170.6070045455344,170.6070045455344,0,0,0,139.87473624707695,97.68217933589861Z" fill-rule="evenodd" style="fill: #D7A449; stroke: #fff; opacity: 1;" id="p-type-tokenTransfers"></path><path d="M160.3876224889592,114.38885676646616A197,197,0,0,1,159.24605735434986,115.97281240486977L137.91113112138072,100.4354016909443A170.6070045455344,170.6070045455344,0,0,0,138.899755528027,99.06365586961917Z" fill-rule="evenodd" style="fill: #D7A449; stroke: #fff; opacity: 1;" id="p-type-tokenTransfers"></path><path d="M159.24605735434986,115.97281240486977A197,197,0,0,1,158.0888499786924,117.54537639743423L136.90896013661464,101.7972820575818A170.6070045455344,170.6070045455344,0,0,0,137.91113112138072,100.4354016909443Z" fill-rule="evenodd" style="fill: #D7A449; stroke: #fff; opacity: 1;" id="p-type-tokenTransfers"></path><path d="M158.0888499786924,117.54537639743423A197,197,0,0,1,156.91611403084,119.10639427612784L135.8933410138432,103.14916319629216A170.6070045455344,170.6070045455344,0,0,0,136.90896013661464,101.7972820575818Z" fill-rule="evenodd" style="fill: #D7A449; stroke: #fff; opacity: 1;" id="p-type-tokenTransfers"></path><path d="M156.91611403084,119.10639427612784A197,197,0,0,1,155.72796470496883,120.65571270705745L134.86437351414943,104.49091231602866A170.6070045455344,170.6070045455344,0,0,0,135.8933410138432,103.14916319629216Z" fill-rule="evenodd" style="fill: #D7A449; stroke: #fff; opacity: 1;" id="p-type-tokenTransfers"></path><path d="M155.72796470496883,120.65571270705745A197,197,0,0,1,154.52451870926282,122.19317950553003L133.82215870978538,105.82239762098104A170.6070045455344,170.6070045455344,0,0,0,134.86437351414943,104.49091231602866Z" fill-rule="evenodd" style="fill: #D7A449; stroke: #fff; opacity: 1;" id="p-type-tokenTransfers"></path><path d="M154.52451870926282,122.19317950553003A197,197,0,0,1,153.3058942544499,123.71864365100122L132.76679897424444,107.14348832352141A170.6070045455344,170.6070045455344,0,0,0,133.82215870978538,105.82239762098104Z" fill-rule="evenodd" style="fill: #D7A449; stroke: #fff; opacity: 1;" id="p-type-tokenTransfers"></path><path d="M153.3058942544499,123.71864365100122A197,197,0,0,1,152.0722110421904,125.2319553019097L131.6983979722053,108.45405465705112A170.6070045455344,170.6070045455344,0,0,0,132.76679897424444,107.14348832352141Z" fill-rule="evenodd" style="fill: #D7A449; stroke: #fff; opacity: 1;" id="p-type-tokenTransfers"></path><path d="M152.0722110421904,125.2319553019097A197,197,0,0,1,150.82359025331917,126.73296581039554L130.61706064934947,109.75396788874725A170.6070045455344,170.6070045455344,0,0,0,131.6983979722053,108.45405465705112Z" fill-rule="evenodd" style="fill: #D7A449; stroke: #fff; opacity: 1;" id="p-type-tokenTransfers"></path><path d="M150.82359025331917,126.73296581039554A197,197,0,0,1,149.56015453594247,128.2215277369015L129.52289322205263,111.04310033220771A170.6070045455344,170.6070045455344,0,0,0,130.61706064934947,109.75396788874725Z" fill-rule="evenodd" style="fill: #D7A449; stroke: #fff; opacity: 1;" id="p-type-tokenTransfers"></path><path d="M149.56015453594247,128.2215277369015A197,197,0,0,1,148.28202799339053,129.69749486465554L128.41600316695147,112.32132535999347A170.6070045455344,170.6070045455344,0,0,0,129.52289322205263,111.04310033220771Z" fill-rule="evenodd" style="fill: #D7A449; stroke: #fff; opacity: 1;" id="p-type-tokenTransfers"></path><path d="M148.28202799339053,129.69749486465554A197,197,0,0,1,146.9893361720272,131.16072221403317L127.29649921038644,113.58851741606667A170.6070045455344,170.6070045455344,0,0,0,128.41600316695147,112.32132535999347Z" fill-rule="evenodd" style="fill: #D7A449; stroke: #fff; opacity: 1;" id="p-type-tokenTransfers"></path><path d="M146.9893361720272,131.16072221403317A197,197,0,0,1,145.68220604891812,132.61106605679845L126.16449131772211,114.84455202812374A170.6070045455344,170.6070045455344,0,0,0,127.29649921038644,113.58851741606667Z" fill-rule="evenodd" style="fill: #D7A449; stroke: #fff; opacity: 1;" id="p-type-tokenTransfers"></path><path d="M145.68220604891812,132.61106605679845A197,197,0,0,1,144.360766019358,134.0483839302219L125.0200906825454,116.08930581982186A170.6070045455344,170.6070045455344,0,0,0,126.16449131772211,114.84455202812374Z" fill-rule="evenodd" style="fill: #D7A449; stroke: #fff; opacity: 1;" id="p-type-tokenTransfers"></path><path d="M144.360766019358,134.0483839302219A197,197,0,0,1,143.02514588425882,135.4725346510741L123.8634097157435,117.32265652289782A170.6070045455344,170.6070045455344,0,0,0,125.0200906825454,116.08930581982186Z" fill-rule="evenodd" style="fill: #D7A449; stroke: #fff; opacity: 1;" id="p-type-tokenTransfers"></path><path d="M143.02514588425882,135.4725346510741A197,197,0,0,1,141.67547683739988,136.88337832949392L122.69456203446211,118.54448298917805A170.6070045455344,170.6070045455344,0,0,0,123.8634097157435,117.32265652289782Z" fill-rule="evenodd" style="fill: #D7A449; stroke: #fff; opacity: 1;" id="p-type-tokenTransfers"></path><path d="M141.67547683739988,136.88337832949392A197,197,0,0,1,140.31189145254103,138.28077638272916L121.51366245094516,119.75466520247868A170.6070045455344,170.6070045455344,0,0,0,122.69456203446211,118.54448298917805Z" fill-rule="evenodd" style="fill: #D7A449; stroke: #fff; opacity: 1;" id="p-type-tokenTransfers"></path><path d="M140.31189145254103,138.28077638272916A197,197,0,0,1,138.93452367040035,139.66459154874926L120.32082696125711,120.95308429039427A170.6070045455344,170.6070045455344,0,0,0,121.51366245094516,119.75466520247868Z" fill-rule="evenodd" style="fill: #D7A449; stroke: #fff; opacity: 1;" id="p-type-tokenTransfers"></path><path d="M138.93452367040035,139.66459154874926A197,197,0,0,1,137.54350878549772,141.0346878997281L119.11617273388913,122.13962253597433A170.6070045455344,170.6070045455344,0,0,0,120.32082696125711,120.95308429039427Z" fill-rule="evenodd" style="fill: #D7A449; stroke: #fff; opacity: 1;" id="p-type-tokenTransfers"></path><path d="M137.54350878549772,141.0346878997281A197,197,0,0,1,136.138983432865,142.39093085539582L117.8998180982499,123.31416338928625A170.6070045455344,170.6070045455344,0,0,0,119.11617273388913,122.13962253597433Z" fill-rule="evenodd" style="fill: #D7A449; stroke: #fff; opacity: 1;" id="p-type-tokenTransfers"></path><path d="M136.138983432865,142.39093085539582A197,197,0,0,1,134.72108557462502,143.73318719625806L116.67188253304255,124.47659147886368A170.6070045455344,170.6070045455344,0,0,0,117.8998180982499,123.31416338928625Z" fill-rule="evenodd" style="fill: #D7A449; stroke: #fff; opacity: 1;" id="p-type-tokenTransfers"></path><path d="M134.72108557462502,143.73318719625806A197,197,0,0,1,133.28995448644,145.0613250766818L115.43248665452863,125.62679262303907A170.6070045455344,170.6070045455344,0,0,0,116.67188253304255,124.47659147886368Z" fill-rule="evenodd" style="fill: #D7A449; stroke: #fff; opacity: 1;" id="p-type-tokenTransfers"></path><path d="M133.28995448644,145.0613250766818A197,197,0,0,1,131.84573074383067,146.3752140378463L114.18175220468032,126.76465384115946A170.6070045455344,170.6070045455344,0,0,0,115.43248665452863,125.62679262303907Z" fill-rule="evenodd" style="fill: #D7A449; stroke: #fff; opacity: 1;" id="p-type-tokenTransfers"></path><path d="M131.84573074383067,146.3752140378463A197,197,0,0,1,130.3885562083683,147.67472502055722L112.91980203922212,127.890063364684A170.6070045455344,170.6070045455344,0,0,0,114.18175220468032,126.76465384115946Z" fill-rule="evenodd" style="fill: #D7A449; stroke: #fff; opacity: 1;" id="p-type-tokenTransfers"></path><path d="M130.3885562083683,147.67472502055722A197,197,0,0,1,128.9185740137399,148.95973037792416L111.64676011556314,129.0029106481629A170.6070045455344,170.6070045455344,0,0,0,112.91980203922212,127.890063364684Z" fill-rule="evenodd" style="fill: #D7A449; stroke: #fff; opacity: 1;" id="p-type-tokenTransfers"></path><path d="M128.9185740137399,148.95973037792416A197,197,0,0,1,127.43592855168875,150.23010388789885L110.36275148062111,130.10308638009576A170.6070045455344,170.6070045455344,0,0,0,111.64676011556314,129.0029106481629Z" fill-rule="evenodd" style="fill: #D7A449; stroke: #fff; opacity: 1;" id="p-type-tokenTransfers"></path><path d="M127.43592855168875,150.23010388789885A197,197,0,0,1,125.94076545783109,151.48572076567342L109.06790225853945,131.19048249366904A170.6070045455344,170.6070045455344,0,0,0,110.36275148062111,130.10308638009576Z" fill-rule="evenodd" style="fill: #D7A449; stroke: #fff; opacity: 1;" id="p-type-tokenTransfers"></path><path d="M125.94076545783109,151.48572076567342A197,197,0,0,1,124.433231597351,152.72645767593775L107.76233963829847,132.26499217737097A170.6070045455344,170.6070045455344,0,0,0,109.06790225853945,131.19048249366904Z" fill-rule="evenodd" style="fill: #D7A449; stroke: #fff; opacity: 1;" id="p-type-tokenTransfers"></path><path d="M124.433231597351,152.72645767593775A197,197,0,0,1,122.91347505057414,153.95219274499433L106.44619186122199,133.32650988548343A170.6070045455344,170.6070045455344,0,0,0,107.76233963829847,132.26499217737097Z" fill-rule="evenodd" style="fill: #D7A449; stroke: #fff; opacity: 1;" id="p-type-tokenTransfers"></path><path d="M122.91347505057414,153.95219274499433A197,197,0,0,1,121.38164509842233,155.16280557272947L105.11958820838062,134.3749313484494A170.6070045455344,170.6070045455344,0,0,0,106.44619186122199,133.32650988548343Z" fill-rule="evenodd" style="fill: #D7A449; stroke: #fff; opacity: 1;" id="p-type-tokenTransfers"></path><path d="M121.38164509842233,155.16280557272947A197,197,0,0,1,119.83789220775013,156.35817724443984L103.78265898789284,135.41015358311483A170.6070045455344,170.6070045455344,0,0,0,105.11958820838062,134.3749313484494Z" fill-rule="evenodd" style="fill: #D7A449; stroke: #fff; opacity: 1;" id="p-type-tokenTransfers"></path><path d="M119.83789220775013,156.35817724443984A197,197,0,0,1,118.28236801656507,157.53819034251305L102.43553552212533,136.43207490284462A170.6070045455344,170.6070045455344,0,0,0,103.78265898789284,135.41015358311483Z" fill-rule="evenodd" style="fill: #D7A449; stroke: #fff; opacity: 1;" id="p-type-tokenTransfers"></path><path d="M118.28236801656507,157.53819034251305A197,197,0,0,1,116.71522531913251,158.70272895796128L101.07835013479348,137.44059492751074A170.6070045455344,170.6070045455344,0,0,0,102.43553552212533,136.43207490284462Z" fill-rule="evenodd" style="fill: #D7A449; stroke: #fff; opacity: 1;" id="p-type-tokenTransfers"></path><path d="M116.71522531913251,158.70272895796128A197,197,0,0,1,115.13661805096737,159.85167870180675L99.71123613796371,138.43561459335254A170.6070045455344,170.6070045455344,0,0,0,101.07835013479348,137.44059492751074Z" fill-rule="evenodd" style="fill: #D7A449; stroke: #fff; opacity: 1;" id="p-type-tokenTransfers"></path><path d="M115.13661805096737,159.85167870180675A197,197,0,0,1,113.54670127371335,160.98492671631746L98.33432781895864,139.4170361627071A170.6070045455344,170.6070045455344,0,0,0,99.71123613796371,138.43561459335254Z" fill-rule="evenodd" style="fill: #D7A449; stroke: #fff; opacity: 1;" id="p-type-tokenTransfers"></path><path d="M113.54670127371335,160.98492671631746A197,197,0,0,1,111.9456311599118,162.10236168609322L96.94776042716644,140.38476323361A170.6070045455344,170.6070045455344,0,0,0,98.33432781895864,139.4170361627071Z" fill-rule="evenodd" style="fill: #D7A449; stroke: #fff; opacity: 1;" id="p-type-tokenTransfers"></path><path d="M111.9456311599118,162.10236168609322A197,197,0,0,1,110.33356497766134,163.20387384899962L95.55167016075576,141.3387007492645A170.6070045455344,170.6070045455344,0,0,0,96.94776042716644,140.38476323361Z" fill-rule="evenodd" style="fill: #D7A449; stroke: #fff; opacity: 1;" id="p-type-tokenTransfers"></path><path d="M110.33356497766134,163.20387384899962A197,197,0,0,1,108.71066107516995,164.28935500694962L94.14619415329732,142.27875500737855A170.6070045455344,170.6070045455344,0,0,0,95.55167016075576,141.3387007492645Z" fill-rule="evenodd" style="fill: #D7A449; stroke: #fff; opacity: 1;" id="p-type-tokenTransfers"></path><path d="M108.71066107516995,164.28935500694962A197,197,0,0,1,107.07707886520087,165.35869853653165L92.73147046029376,143.20483366936907A170.6070045455344,170.6070045455344,0,0,0,94.14619415329732,142.27875500737855Z" fill-rule="evenodd" style="fill: #D7A449; stroke: #fff; opacity: 1;" id="p-type-tokenTransfers"></path><path d="M107.07707886520087,165.35869853653165A197,197,0,0,1,105.43297880941407,166.41179939948262L91.30763804561897,144.11684576943193A170.6070045455344,170.6070045455344,0,0,0,92.73147046029376,143.20483366936907Z" fill-rule="evenodd" style="fill: #D7A449; stroke: #fff; opacity: 1;" id="p-type-tokenTransfers"></path><path d="M105.43297880941407,166.41179939948262A197,197,0,0,1,103.77852240260447,167.44855415300583L89.87483676786795,145.0147017234773A170.6070045455344,170.6070045455344,0,0,0,91.30763804561897,144.11684576943193Z" fill-rule="evenodd" style="fill: #D7A449; stroke: #fff; opacity: 1;" id="p-type-tokenTransfers"></path><path d="M103.77852240260447,167.44855415300583A197,197,0,0,1,102.11387215683894,168.46886095993156L88.43320736661897,145.89831333792918A170.6070045455344,170.6070045455344,0,0,0,89.87483676786795,145.0147017234773Z" fill-rule="evenodd" style="fill: #D7A449; stroke: #fff; opacity: 1;" id="p-type-tokenTransfers"></path><path d="M-52.125794702937384,189.97868703248588A197,197,0,0,1,-70.24211225146888,184.05174725183147L-60.8314536252502,159.39348873099877A170.6070045455344,170.6070045455344,0,0,0,-45.1422624051961,164.5263691477461Z" fill-rule="evenodd" style="fill: #414552; stroke: #fff; opacity: 1;" id="p-type-ether"></path><path d="M-70.24211225146888,184.05174725183147A197,197,0,0,1,-78.86401839243032,180.52552895088942L-68.29824337236786,156.33969410309336A170.6070045455344,170.6070045455344,0,0,0,-60.8314536252502,159.39348873099877Z" fill-rule="evenodd" style="fill: #414552; stroke: #fff; opacity: 1;" id="p-type-ether"></path><path d="M-78.86401839243032,180.52552895088942A197,197,0,0,1,-81.41076874046338,179.39143439163084L-70.50379387086136,155.35753940448174A170.6070045455344,170.6070045455344,0,0,0,-68.29824337236786,156.33969410309336Z" fill-rule="evenodd" style="fill: #414552; stroke: #fff; opacity: 1;" id="p-type-ether"></path><path d="M-81.41076874046338,179.39143439163084A197,197,0,0,1,-83.487214336383,178.4345399365012L-72.30204850650406,154.52884449759898A170.6070045455344,170.6070045455344,0,0,0,-70.50379387086136,155.35753940448174Z" fill-rule="evenodd" style="fill: #414552; stroke: #fff; opacity: 1;" id="p-type-ether"></path><path d="M-83.487214336383,178.4345399365012A197,197,0,0,1,-85.43351162407622,177.51088724801878L-73.98759140096314,153.7289378050994A170.6070045455344,170.6070045455344,0,0,0,-72.30204850650406,154.52884449759898Z" fill-rule="evenodd" style="fill: #414552; stroke: #fff; opacity: 1;" id="p-type-ether"></path><path d="M-85.43351162407622,177.51088724801878A197,197,0,0,1,-87.19743396361254,176.65108975084593L-75.51519295730446,152.98433133043747A170.6070045455344,170.6070045455344,0,0,0,-73.98759140096314,153.7289378050994Z" fill-rule="evenodd" style="fill: #414552; stroke: #fff; opacity: 1;" id="p-type-ether"></path><path d="M-87.19743396361254,176.65108975084593A197,197,0,0,1,-88.24635806640465,176.12944185460844L-76.42358787696425,152.53257100046508A170.6070045455344,170.6070045455344,0,0,0,-75.51519295730446,152.98433133043747Z" fill-rule="evenodd" style="fill: #414552; stroke: #fff; opacity: 1;" id="p-type-ether"></path></g></svg>