<svg xmlns="http://www.w3.org/2000/svg" width="400" height="400" id="block-7908260"><g id="burst-container" transform="translate(200,200)"><circle r="197" style="fill: #f9f9f9; stroke: #f9f9f9; stroke-width: 3; opacity: 1;" id="circle-base"></circle><path display="none" d="M6.964444067626889e-15,-113.73800303035628A113.73800303035628,113.73800303035628,0,1,1,-6.964444067626889e-15,113.73800303035628A113.73800303035628,113.73800303035628,0,1,1,6.964444067626889e-15,-113.73800303035628Z" fill-rule="evenodd" id="p-type-root" style="stroke: #fff; opacity: 1;"></path><path d="M9.849211254826791e-15,-160.84982644276204A160.84982644276204,160.84982644276204,0,1,1,9.849211254826791e-15,160.84982644276204L6.964444067626889e-15,113.73800303035628A113.73800303035628,113.73800303035628,0,1,0,6.964444067626889e-15,-113.73800303035628Z" fill-rule="evenodd" style="fill: #0B1F65; stroke: #fff; opacity: 1;" id="p-type-data"></path><path d="M9.849211254826791e-15,160.84982644276204A160.84982644276204,160.84982644276204,0,0,1,-160.84982644276204,1.9698422509653582e-14L-113.73800303035628,1.3928888135253777e-14A113.73800303035628,113.73800303035628,0,0,0,6.964444067626889e-15,113.73800303035628Z" fill-rule="evenodd" style="fill: #D7A449; stroke: #fff; opacity: 1;" id="p-type-value"></path></g></svg>