<svg xmlns="http://www.w3.org/2000/svg" width="400" height="400" id="block-7908273"><g id="burst-container" transform="translate(200,200)"><circle r="197" style="fill: #f9f9f9; stroke: #f9f9f9; stroke-width: 3; opacity: 1;" id="circle-base"></circle><path display="none" d="M6.031385485800715e-15,-98.5A98.5,98.5,0,1,1,-6.031385485800715e-15,98.5A98.5,98.5,0,1,1,6.031385485800715e-15,-98.5Z" fill-rule="evenodd" id="p-type-root" style="stroke: #fff; opacity: 1;"></path><path d="M8.529667153919608e-15,-139.30003589374985A139.30003589374985,139.30003589374985,0,1,1,-117.98273964634755,-74.05790400451642L-83.42639526689929,-52.36684612205593A98.5,98.5,0,1,0,6.031385485800715e-15,-98.5Z" fill-rule="evenodd" style="fill: #0B1F65; stroke: #fff; opacity: 1;" id="p-type-data"></path><path d="M-117.98273964634755,-74.05790400451642A139.30003589374985,139.30003589374985,0,0,1,-12.221555720304004,-138.76286814481568L-8.641944926476203,-98.12016504209393A98.5,98.5,0,0,0,-83.42639526689929,-52.36684612205593Z" fill-rule="evenodd" style="fill: #D7A449; stroke: #fff; opacity: 1;" id="p-type-value"></path><path d="M1.0446666101440332e-14,-170.6070045455344A170.6070045455344,170.6070045455344,0,0,1,129.0183044923615,111.62897072855367L105.34300449510543,91.14467293234527A139.30003589374985,139.30003589374985,0,0,0,8.529667153919608e-15,-139.30003589374985Z" fill-rule="evenodd" style="fill: #1DC690; stroke: #fff; opacity: 1;" id="p-type-logs"></path><path d="M129.0183044923615,111.62897072855367A170.6070045455344,170.6070045455344,0,0,1,-79.10870659684173,151.15740981035236L-64.59198845793591,123.4195082920438A139.30003589374985,139.30003589374985,0,0,0,105.34300449510543,91.14467293234527Z" fill-rule="evenodd" style="fill: #D7A449; stroke: #fff; opacity: 1;" id="p-type-tokenTransfers"></path><path d="M-79.10870659684173,151.15740981035236A170.6070045455344,170.6070045455344,0,0,1,-118.72696358381985,122.51799099791963L-96.94015983011954,100.0355207519353A139.30003589374985,139.30003589374985,0,0,0,-64.59198845793591,123.4195082920438Z" fill-rule="evenodd" style="fill: #414552; stroke: #fff; opacity: 1;" id="p-type-ether"></path><path d="M-144.49875529459328,-90.70203811554211A170.6070045455344,170.6070045455344,0,0,1,-58.72407388628481,-160.18187521126777L-47.94800554629871,-130.7879534365918A139.30003589374985,139.30003589374985,0,0,0,-117.98273964634755,-74.05790400451642Z" fill-rule="evenodd" style="fill: #D7A449; stroke: #fff; opacity: 1;" id="p-type-tokenTransfers"></path><path d="M-58.72407388628481,-160.18187521126777A170.6070045455344,170.6070045455344,0,0,1,-29.821134181306842,-167.98050469069466L-24.348854098423978,-137.15550774246603A139.30003589374985,139.30003589374985,0,0,0,-47.94800554629871,-130.7879534365918Z" fill-rule="evenodd" style="fill: #414552; stroke: #fff; opacity: 1;" id="p-type-ether"></path><path d="M1.206277097160143e-14,-197A197,197,0,0,1,8.65028824418562,-196.80999088789295L7.491369369522634,-170.44245182749916A170.6070045455344,170.6070045455344,0,0,0,1.0446666101440332e-14,-170.6070045455344Z" fill-rule="evenodd" style="fill: #1DC690; stroke: #fff; opacity: 1;" id="p-type-logs"></path><path d="M8.65028824418562,-196.80999088789295A197,197,0,0,1,17.283889852952466,-196.24033008418786L14.968287688868921,-169.9491110999503A170.6070045455344,170.6070045455344,0,0,0,7.491369369522634,-170.44245182749916Z" fill-rule="evenodd" style="fill: #1DC690; stroke: #fff; opacity: 1;" id="p-type-logs"></path><path d="M17.283889852952466,-196.24033008418786A197,197,0,0,1,25.88415037984403,-195.29211647968185L22.416331784321557,-169.1279340302341A170.6070045455344,170.6070045455344,0,0,0,14.968287688868921,-169.9491110999503Z" fill-rule="evenodd" style="fill: #1DC690; stroke: #fff; opacity: 1;" id="p-type-logs"></path><path d="M25.88415037984403,-195.29211647968185A197,197,0,0,1,34.43447969423489,-193.96717920356352L29.821134181306817,-167.98050469069466A170.6070045455344,170.6070045455344,0,0,0,22.416331784321557,-169.1279340302341Z" fill-rule="evenodd" style="fill: #1DC690; stroke: #fff; opacity: 1;" id="p-type-logs"></path><path d="M34.43447969423489,-193.96717920356352A197,197,0,0,1,42.918383984132646,-192.26807409497437L37.168410819634055,-166.50903650295652A170.6070045455344,170.6070045455344,0,0,0,29.821134181306817,-167.98050469069466Z" fill-rule="evenodd" style="fill: #1DC690; stroke: #fff; opacity: 1;" id="p-type-logs"></path><path d="M42.918383984132646,-192.26807409497437A197,197,0,0,1,51.31949757317869,-190.19807877272711L44.44398860782659,-164.71636796817546A170.6070045455344,170.6070045455344,0,0,0,37.168410819634055,-166.50903650295652Z" fill-rule="evenodd" style="fill: #1DC690; stroke: #fff; opacity: 1;" id="p-type-logs"></path><path d="M51.31949757317869,-190.19807877272711A197,197,0,0,1,59.621614490471835,-187.76118631269233L51.633832763391005,-162.60595719149458A170.6070045455344,170.6070045455344,0,0,0,44.44398860782659,-164.71636796817546Z" fill-rule="evenodd" style="fill: #1DC690; stroke: #fff; opacity: 1;" id="p-type-logs"></path><path d="M59.621614490471835,-187.76118631269233A197,197,0,0,1,67.808719732316,-184.962097545049L58.7240738862848,-160.1818752112678A170.6070045455344,170.6070045455344,0,0,0,51.633832763391005,-162.60595719149458Z" fill-rule="evenodd" style="fill: #1DC690; stroke: #fff; opacity: 1;" id="p-type-logs"></path><path d="M67.808719732316,-184.962097545049A197,197,0,0,1,75.86502015558705,-181.80621198625852L65.70103471335685,-157.44879814591877A170.6070045455344,170.6070045455344,0,0,0,58.7240738862848,-160.1818752112678Z" fill-rule="evenodd" style="fill: #1DC690; stroke: #fff; opacity: 1;" id="p-type-logs"></path><path d="M75.86502015558705,-181.80621198625852A197,197,0,0,1,83.77497494312462,-178.2996174232543L72.55125650215072,-154.41199817358472A170.6070045455344,170.6070045455344,0,0,0,65.70103471335685,-157.44879814591877Z" fill-rule="evenodd" style="fill: #1DC690; stroke: #fff; opacity: 1;" id="p-type-logs"></path><path d="M83.77497494312462,-178.2996174232543A197,197,0,0,1,91.52332558238064,-174.44907816993918L79.26152499317583,-151.07733336194468A170.6070045455344,170.6070045455344,0,0,0,72.55125650215072,-154.41199817358472Z" fill-rule="evenodd" style="fill: #1DC690; stroke: #fff; opacity: 1;" id="p-type-logs"></path><path d="M91.52332558238064,-174.44907816993918A197,197,0,0,1,99.09512529949457,-170.26202201864476L85.81889590056433,-147.4512363678518A170.6070045455344,170.6070045455344,0,0,0,79.26152499317583,-151.07733336194468Z" fill-rule="evenodd" style="fill: #1DC690; stroke: #fff; opacity: 1;" id="p-type-logs"></path><path d="M99.09512529949457,-170.26202201864476A197,197,0,0,1,106.4757678920167,-165.74652591172276L92.21071988194193,-143.5407020285676A170.6070045455344,170.6070045455344,0,0,0,85.81889590056433,-147.4512363678518Z" fill-rule="evenodd" style="fill: #1DC690; stroke: #fff; opacity: 1;" id="p-type-logs"></path><path d="M106.4757678920167,-165.74652591172276A197,197,0,0,1,113.65101590465986,-160.91130036090925L98.4246669393447,-139.35327386853552A170.6070045455344,170.6070045455344,0,0,0,92.21071988194193,-143.5407020285676Z" fill-rule="evenodd" style="fill: #1DC690; stroke: #fff; opacity: 1;" id="p-type-logs"></path><path d="M113.65101590465986,-160.91130036090925A197,197,0,0,1,120.6070280937283,-155.76567264451634L104.44875020411219,-134.89702954772196A170.6070045455344,170.6070045455344,0,0,0,98.4246669393447,-139.35327386853552Z" fill-rule="evenodd" style="fill: #1DC690; stroke: #fff; opacity: 1;" id="p-type-logs"></path><path d="M120.6070280937283,-155.76567264451634A197,197,0,0,1,127.33038612724386,-150.31956881486516L110.27134905987484,-130.18056527959632A170.6070045455344,170.6070045455344,0,0,0,104.44875020411219,-134.89702954772196Z" fill-rule="evenodd" style="fill: #1DC690; stroke: #fff; opacity: 1;" id="p-type-logs"></path><path d="M127.33038612724386,-150.31956881486516A197,197,0,0,1,133.8081204692641,-144.5834945506675L115.88123155903126,-125.212979248807A170.6070045455344,170.6070045455344,0,0,0,110.27134905987484,-130.18056527959632Z" fill-rule="evenodd" style="fill: #1DC690; stroke: #fff; opacity: 1;" id="p-type-logs"></path><path d="M133.8081204692641,-144.5834945506675A197,197,0,0,1,140.02773539846126,-138.56851489129312L121.26757608947294,-120.00385406054212A170.6070045455344,170.6070045455344,0,0,0,115.88123155903126,-125.212979248807Z" fill-rule="evenodd" style="fill: #1DC690; stroke: #fff; opacity: 1;" id="p-type-logs"></path><path d="M140.02773539846126,-138.56851489129312A197,197,0,0,1,145.97723311269976,-132.2862328920153L126.41999224976094,-114.56323825542984A170.6070045455344,170.6070045455344,0,0,0,121.26757608947294,-120.00385406054212Z" fill-rule="evenodd" style="fill: #1DC690; stroke: #fff; opacity: 1;" id="p-type-logs"></path><path d="M145.97723311269976,-132.2862328920153A197,197,0,0,1,151.64513687311506,-125.74876724140958L131.32854089248593,-108.90162692563712A170.6070045455344,170.6070045455344,0,0,0,126.41999224976094,-114.56323825542984Z" fill-rule="evenodd" style="fill: #1DC690; stroke: #fff; opacity: 1;" id="p-type-logs"></path><path d="M151.64513687311506,-125.74876724140958A197,197,0,0,1,157.02051314304697,-118.96872888408207L135.983753297147,-103.02994146955858A170.6070045455344,170.6070045455344,0,0,0,131.32854089248593,-108.90162692563712Z" fill-rule="evenodd" style="fill: #1DC690; stroke: #fff; opacity: 1;" id="p-type-logs"></path><path d="M157.02051314304697,-118.96872888408207A197,197,0,0,1,162.09299267912195,-111.95919669382286L140.37664943556464,-96.95950852414933A170.6070045455344,170.6070045455344,0,0,0,135.983753297147,-103.02994146955858Z" fill-rule="evenodd" style="fill: #1DC690; stroke: #fff; opacity: 1;" id="p-type-logs"></path><path d="M162.09299267912195,-111.95919669382286A197,197,0,0,1,166.8527905337986,-104.73369224411178L144.4987552945933,-90.70203811554202A170.6070045455344,170.6070045455344,0,0,0,140.37664943556464,-96.95950852414933Z" fill-rule="evenodd" style="fill: #1DC690; stroke: #fff; opacity: 1;" id="p-type-logs"></path><path d="M166.8527905337986,-104.73369224411178A197,197,0,0,1,171.2907249307909,-97.30615372464437L148.3421192227174,-84.2696010700958A170.6070045455344,170.6070045455344,0,0,0,144.4987552945933,-90.70203811554202Z" fill-rule="evenodd" style="fill: #1DC690; stroke: #fff; opacity: 1;" id="p-type-logs"></path><path d="M171.2907249307909,-97.30615372464437A197,197,0,0,1,175.39823497695812,-89.6909090541945L151.899327268998,-77.67460572945215A170.6070045455344,170.6070045455344,0,0,0,148.3421192227174,-84.2696010700958Z" fill-rule="evenodd" style="fill: #1DC690; stroke: #fff; opacity: 1;" id="p-type-logs"></path><path d="M175.39823497695812,-89.6909090541945A197,197,0,0,1,179.16739717649466,-81.90264824167903L155.16351748478067,-70.92977401451493A170.6070045455344,170.6070045455344,0,0,0,151.899327268998,-77.67460572945215Z" fill-rule="evenodd" style="fill: #1DC690; stroke: #fff; opacity: 1;" id="p-type-logs"></path><path d="M148.97750565810802,128.89803259898264A197,197,0,0,1,140.16779204947372,138.42684014299937L121.3888687072187,119.88116012944495A170.6070045455344,170.6070045455344,0,0,0,129.0183044923615,111.62897072855367Z" fill-rule="evenodd" style="fill: #D7A449; stroke: #fff; opacity: 1;" id="p-type-tokenTransfers"></path><path d="M140.16779204947372,138.42684014299937A197,197,0,0,1,133.95426298509773,144.44810635006357L116.00779469031615,125.09572962771135A170.6070045455344,170.6070045455344,0,0,0,121.3888687072187,119.88116012944495Z" fill-rule="evenodd" style="fill: #D7A449; stroke: #fff; opacity: 1;" id="p-type-tokenTransfers"></path><path d="M133.95426298509773,144.44810635006357A197,197,0,0,1,127.48233259511005,150.1907283293804L110.40293856106229,130.06898614613058A170.6070045455344,170.6070045455344,0,0,0,116.00779469031615,125.09572962771135Z" fill-rule="evenodd" style="fill: #D7A449; stroke: #fff; opacity: 1;" id="p-type-tokenTransfers"></path><path d="M127.48233259511005,150.1907283293804A197,197,0,0,1,120.7644854048611,155.64362841086393L104.58511223556478,134.79133614099356A170.6070045455344,170.6070045455344,0,0,0,110.40293856106229,130.06898614613058Z" fill-rule="evenodd" style="fill: #D7A449; stroke: #fff; opacity: 1;" id="p-type-tokenTransfers"></path><path d="M120.7644854048611,155.64362841086393A197,197,0,0,1,113.81368031973051,160.79628780565236L98.56553845508763,139.25367007392887A170.6070045455344,170.6070045455344,0,0,0,104.58511223556478,134.79133614099356Z" fill-rule="evenodd" style="fill: #D7A449; stroke: #fff; opacity: 1;" id="p-type-tokenTransfers"></path><path d="M113.81368031973051,160.79628780565236A197,197,0,0,1,106.64332562705488,165.63876689713052L92.35582913708558,143.44737998444396A170.6070045455344,170.6070045455344,0,0,0,98.56553845508763,139.25367007392887Z" fill-rule="evenodd" style="fill: #D7A449; stroke: #fff; opacity: 1;" id="p-type-tokenTransfers"></path><path d="M106.64332562705488,165.63876689713052A197,197,0,0,1,99.26725313118595,170.16172441471394L85.96796297550739,147.364376094909A170.6070045455344,170.6070045455344,0,0,0,92.35582913708558,143.44737998444396Z" fill-rule="evenodd" style="fill: #D7A449; stroke: #fff; opacity: 1;" id="p-type-tokenTransfers"></path><path d="M99.26725313118595,170.16172441471394A197,197,0,0,1,91.69969147157322,174.35643545340758L79.41426233357764,150.9971024159527A170.6070045455344,170.6070045455344,0,0,0,85.96796297550739,147.364376094909Z" fill-rule="evenodd" style="fill: #D7A449; stroke: #fff; opacity: 1;" id="p-type-tokenTransfers"></path><path d="M91.69969147157322,174.35643545340758A197,197,0,0,1,83.95523867534116,178.21480830437883L72.70736947363125,154.338551322166A170.6070045455344,170.6070045455344,0,0,0,79.41426233357764,150.9971024159527Z" fill-rule="evenodd" style="fill: #D7A449; stroke: #fff; opacity: 1;" id="p-type-tokenTransfers"></path><path d="M83.95523867534116,178.21480830437883A197,197,0,0,1,76.04883399730772,181.72940006407862L65.86022216985415,157.38227706999746A170.6070045455344,170.6070045455344,0,0,0,72.70736947363125,154.338551322166Z" fill-rule="evenodd" style="fill: #D7A449; stroke: #fff; opacity: 1;" id="p-type-tokenTransfers"></path><path d="M76.04883399730772,181.72940006407862A197,197,0,0,1,67.99572910176559,184.89343099179945L58.88602875097385,160.12240823176336A170.6070045455344,170.6070045455344,0,0,0,65.86022216985415,157.38227706999746Z" fill-rule="evenodd" style="fill: #D7A449; stroke: #fff; opacity: 1;" id="p-type-tokenTransfers"></path><path d="M67.99572910176559,184.89343099179945A197,197,0,0,1,59.811458641617385,187.70079758797536L51.798242621042945,162.55365902178752A170.6070045455344,170.6070045455344,0,0,0,58.88602875097385,160.12240823176336Z" fill-rule="evenodd" style="fill: #D7A449; stroke: #fff; opacity: 1;" id="p-type-tokenTransfers"></path><path d="M59.811458641617385,187.70079758797536A197,197,0,0,1,51.51181029161821,190.14608436799412L44.61053630746606,164.67133949282203A170.6070045455344,170.6070045455344,0,0,0,51.798242621042945,162.55365902178752Z" fill-rule="evenodd" style="fill: #D7A449; stroke: #fff; opacity: 1;" id="p-type-tokenTransfers"></path><path d="M51.51181029161821,190.14608436799412A197,197,0,0,1,43.11279429353235,192.2245743088109L37.3367750863318,166.47136458307978A170.6070045455344,170.6070045455344,0,0,0,44.61053630746606,164.67133949282203Z" fill-rule="evenodd" style="fill: #D7A449; stroke: #fff; opacity: 1;" id="p-type-tokenTransfers"></path><path d="M43.11279429353235,192.2245743088109A197,197,0,0,1,34.630612571952405,193.93225794821072L29.99099023592754,167.9502619964271A170.6070045455344,170.6070045455344,0,0,0,37.3367750863318,166.47136458307978Z" fill-rule="evenodd" style="fill: #D7A449; stroke: #fff; opacity: 1;" id="p-type-tokenTransfers"></path><path d="M-91.34686609785939,174.54154248802703A197,197,0,0,1,-102.64025115539357,168.14868076425023L-88.8890649513859,145.62102915468046A170.6070045455344,170.6070045455344,0,0,0,-79.10870659684173,151.15740981035236Z" fill-rule="evenodd" style="fill: #414552; stroke: #fff; opacity: 1;" id="p-type-ether"></path><path d="M-102.64025115539357,168.14868076425023A197,197,0,0,1,-110.24759447916436,163.26196100610125L-95.47721752508137,141.3890057029481A170.6070045455344,170.6070045455344,0,0,0,-88.8890649513859,145.62102915468046Z" fill-rule="evenodd" style="fill: #414552; stroke: #fff; opacity: 1;" id="p-type-ether"></path></g></svg>