<svg xmlns="http://www.w3.org/2000/svg" width="400" height="400" id="block-7908290"><g id="burst-container" transform="translate(200,200)"><circle r="197" style="fill: #f9f9f9; stroke: #f9f9f9; stroke-width: 3; opacity: 1;" id="circle-base"></circle><path display="none" d="M6.031385485800715e-15,-98.5A98.5,98.5,0,1,1,-6.031385485800715e-15,98.5A98.5,98.5,0,1,1,6.031385485800715e-15,-98.5Z" fill-rule="evenodd" id="p-type-root" style="stroke: #fff; opacity: 1;"></path><path d="M8.529667153919608e-15,-139.30003589374985A139.30003589374985,139.30003589374985,0,1,1,-133.26094688010355,-40.571172482665794L-94.22971920626152,-28.68815118318204A98.5,98.5,0,1,0,6.031385485800715e-15,-98.5Z" fill-rule="evenodd" style="fill: #0B1F65; stroke: #fff; opacity: 1;" id="p-type-data"></path><path d="M-133.26094688010355,-40.571172482665794A139.30003589374985,139.30003589374985,0,0,1,-2.8421092938408887,-139.27103939714766L-2.0096747545482025,-98.47949638062195A98.5,98.5,0,0,0,-94.22971920626152,-28.68815118318204Z" fill-rule="evenodd" style="fill: #D7A449; stroke: #fff; opacity: 1;" id="p-type-value"></path><path d="M1.0446666101440332e-14,-170.6070045455344A170.6070045455344,170.6070045455344,0,0,1,166.3401802069733,-37.91694144721661L135.8161884098955,-30.959053050889143A139.30003589374985,139.30003589374985,0,0,0,8.529667153919608e-15,-139.30003589374985Z" fill-rule="evenodd" style="fill: #1DC690; stroke: #fff; opacity: 1;" id="p-type-logs"></path><path d="M166.3401802069733,-37.91694144721661A170.6070045455344,170.6070045455344,0,0,1,80.37634488568222,150.4871861083789L65.62701078662724,122.87227293092576A139.30003589374985,139.30003589374985,0,0,0,135.8161884098955,-30.959053050889143Z" fill-rule="evenodd" style="fill: #414552; stroke: #fff; opacity: 1;" id="p-type-ether"></path><path d="M80.37634488568222,150.4871861083789A170.6070045455344,170.6070045455344,0,0,1,-87.72346810349458,146.32615331476177L-71.62591177362575,119.47480388180922A139.30003589374985,139.30003589374985,0,0,0,65.62701078662724,122.87227293092576Z" fill-rule="evenodd" style="fill: #D7A449; stroke: #fff; opacity: 1;" id="p-type-tokenTransfers"></path><path d="M-163.21066124819382,-49.6893354244885A170.6070045455344,170.6070045455344,0,0,1,-90.78529313758683,-144.44646257324L-74.125881445361,-117.9400428181552A139.30003589374985,139.30003589374985,0,0,0,-133.26094688010355,-40.571172482665794Z" fill-rule="evenodd" style="fill: #414552; stroke: #fff; opacity: 1;" id="p-type-ether"></path><path d="M-90.78529313758683,-144.44646257324A170.6070045455344,170.6070045455344,0,0,1,-6.96026842194266,-170.4649660883271L-5.683035368855401,-139.18406197907981A139.30003589374985,139.30003589374985,0,0,0,-74.125881445361,-117.9400428181552Z" fill-rule="evenodd" style="fill: #D7A449; stroke: #fff; opacity: 1;" id="p-type-tokenTransfers"></path><path d="M1.206277097160143e-14,-197A197,197,0,0,1,2.0097793454694477,-196.98974792354682L1.7405199691778033,-170.5981259868844A170.6070045455344,170.6070045455344,0,0,0,1.0446666101440332e-14,-170.6070045455344Z" fill-rule="evenodd" style="fill: #1DC690; stroke: #fff; opacity: 1;" id="p-type-logs"></path><path d="M2.0097793454694477,-196.98974792354682A197,197,0,0,1,4.01934950909625,-196.9589927612439L3.480858781565865,-170.57149123503257A170.6070045455344,170.6070045455344,0,0,0,1.7405199691778033,-170.5981259868844Z" fill-rule="evenodd" style="fill: #1DC690; stroke: #fff; opacity: 1;" id="p-type-logs"></path><path d="M4.01934950909625,-196.9589927612439A197,197,0,0,1,6.028501330809716,-196.90773771414985L5.22083529922951,-170.52710306217693A170.6070045455344,170.6070045455344,0,0,0,3.480858781565865,-170.57149123503257Z" fill-rule="evenodd" style="fill: #1DC690; stroke: #fff; opacity: 1;" id="p-type-logs"></path><path d="M6.028501330809716,-196.90773771414985A197,197,0,0,1,8.037025694081137,-196.83598811699218L6.960268421942525,-170.46496608832712A170.6070045455344,170.6070045455344,0,0,0,5.22083529922951,-170.52710306217693Z" fill-rule="evenodd" style="fill: #1DC690; stroke: #fff; opacity: 1;" id="p-type-logs"></path><path d="M8.037025694081137,-196.83598811699218A197,197,0,0,1,10.044713547688929,-196.74375143761205L8.698977106036326,-170.3850867808232A170.6070045455344,170.6070045455344,0,0,0,6.960268421942525,-170.46496608832712Z" fill-rule="evenodd" style="fill: #1DC690; stroke: #fff; opacity: 1;" id="p-type-logs"></path><path d="M10.044713547688929,-196.74375143761205A197,197,0,0,1,12.05135592747697,-196.63103727618707L10.436780383243232,-170.2874734536629A170.6070045455344,170.6070045455344,0,0,0,8.698977106036326,-170.3850867808232Z" fill-rule="evenodd" style="fill: #1DC690; stroke: #fff; opacity: 1;" id="p-type-logs"></path><path d="M12.05135592747697,-196.63103727618707A197,197,0,0,1,14.056743978104318,-196.49785736423192L12.173497379532268,-170.17213626663596A170.6070045455344,170.6070045455344,0,0,0,10.436780383243232,-170.2874734536629Z" fill-rule="evenodd" style="fill: #1DC690; stroke: #fff; opacity: 1;" id="p-type-logs"></path><path d="M14.056743978104318,-196.49785736423192A197,197,0,0,1,16.060668974782928,-196.34422556337745L13.908947333934591,-170.03908722426686A170.6070045455344,170.6070045455344,0,0,0,12.173497379532268,-170.17213626663596Z" fill-rule="evenodd" style="fill: #1DC690; stroke: #fff; opacity: 1;" id="p-type-logs"></path><path d="M16.060668974782928,-196.34422556337745A197,197,0,0,1,18.06292234500247,-196.17015786392793L15.642949617357724,-169.88834017456526A170.6070045455344,170.6070045455344,0,0,0,13.908947333934591,-170.03908722426686Z" fill-rule="evenodd" style="fill: #1DC690; stroke: #fff; opacity: 1;" id="p-type-logs"></path><path d="M18.06292234500247,-196.17015786392793A197,197,0,0,1,20.06329569023882,-195.9756723831967L17.37532375138566,-169.71991080758477A170.6070045455344,170.6070045455344,0,0,0,15.642949617357724,-169.88834017456526Z" fill-rule="evenodd" style="fill: #1DC690; stroke: #fff; opacity: 1;" id="p-type-logs"></path><path d="M20.06329569023882,-195.9756723831967A197,197,0,0,1,22.06158080764448,-195.76078936362043L19.10588942706333,-169.53381665378984A170.6070045455344,170.6070045455344,0,0,0,17.37532375138566,-169.71991080758477Z" fill-rule="evenodd" style="fill: #1DC690; stroke: #fff; opacity: 1;" id="p-type-logs"></path><path d="M22.06158080764448,-195.76078936362043A197,197,0,0,1,24.057569711718997,-195.52553117065244L20.834466523663725,-169.33007708223113A170.6070045455344,170.6070045455344,0,0,0,19.10588942706333,-169.53381665378984Z" fill-rule="evenodd" style="fill: #1DC690; stroke: #fff; opacity: 1;" id="p-type-logs"></path><path d="M24.057569711718997,-195.52553117065244A197,197,0,0,1,26.051054655956374,-195.2699222904346L22.5608751274351,-169.10871329852958A170.6070045455344,170.6070045455344,0,0,0,20.834466523663725,-169.33007708223113Z" fill-rule="evenodd" style="fill: #1DC690; stroke: #fff; opacity: 1;" id="p-type-logs"></path><path d="M26.051054655956374,-195.2699222904346A197,197,0,0,1,28.04182815446764,-194.99398932724904L24.28493555032668,-168.86974834266937A170.6070045455344,170.6070045455344,0,0,0,22.5608751274351,-169.10871329852958Z" fill-rule="evenodd" style="fill: #1DC690; stroke: #fff; opacity: 1;" id="p-type-logs"></path><path d="M28.04182815446764,-194.99398932724904A197,197,0,0,1,30.02968300357665,-194.69776100074878L26.00646834869116,-168.6132070865996A170.6070045455344,170.6070045455344,0,0,0,24.28493555032668,-168.86974834266937Z" fill-rule="evenodd" style="fill: #1DC690; stroke: #fff; opacity: 1;" id="p-type-logs"></path><path d="M30.02968300357665,-194.69776100074878A197,197,0,0,1,32.01441230338595,-194.381268142969L27.72529434196132,-168.33911623164596A170.6070045455344,170.6070045455344,0,0,0,26.00646834869116,-168.6132070865996Z" fill-rule="evenodd" style="fill: #1DC690; stroke: #fff; opacity: 1;" id="p-type-logs"></path><path d="M32.01441230338595,-194.381268142969A197,197,0,0,1,33.995809479311625,-194.04454369511745L29.441234631299697,-168.04750430573125A170.6070045455344,170.6070045455344,0,0,0,27.72529434196132,-168.33911623164596Z" fill-rule="evenodd" style="fill: #1DC690; stroke: #fff; opacity: 1;" id="p-type-logs"></path><path d="M33.995809479311625,-194.04454369511745A197,197,0,0,1,35.97366830358385,-193.6876227041463L31.154110618218667,-167.73840166040628A170.6070045455344,170.6070045455344,0,0,0,29.441234631299697,-168.04750430573125Z" fill-rule="evenodd" style="fill: #1DC690; stroke: #fff; opacity: 1;" id="p-type-logs"></path><path d="M35.97366830358385,-193.6876227041463A197,197,0,0,1,37.94778291671137,-193.31054231910412L32.86374402316918,-167.41184046769095A170.6070045455344,170.6070045455344,0,0,0,31.154110618218667,-167.73840166040628Z" fill-rule="evenodd" style="fill: #1DC690; stroke: #fff; opacity: 1;" id="p-type-logs"></path><path d="M37.94778291671137,-193.31054231910412A197,197,0,0,1,39.91794784890802,-192.9133417872695L34.56995690409673,-167.0678547167255A170.6070045455344,170.6070045455344,0,0,0,32.86374402316918,-167.41184046769095Z" fill-rule="evenodd" style="fill: #1DC690; stroke: #fff; opacity: 1;" id="p-type-logs"></path><path d="M39.91794784890802,-192.9133417872695A197,197,0,0,1,41.883958041478316,-192.49606245006595L36.27257167496174,-166.70648021023285A170.6070045455344,170.6070045455344,0,0,0,34.56995690409673,-167.0678547167255Z" fill-rule="evenodd" style="fill: #1DC690; stroke: #fff; opacity: 1;" id="p-type-logs"></path><path d="M41.883958041478316,-192.49606245006595A197,197,0,0,1,43.84560886816022,-192.0587477387591L37.97141112422302,-166.3277545607925A170.6070045455344,170.6070045455344,0,0,0,36.27257167496174,-166.70648021023285Z" fill-rule="evenodd" style="fill: #1DC690; stroke: #fff; opacity: 1;" id="p-type-logs"></path><path d="M43.84560886816022,-192.0587477387591A197,197,0,0,1,45.802696156423316,-191.6014431699364L39.666298433282456,-165.93171718692534A170.6070045455344,170.6070045455344,0,0,0,37.97141112422302,-166.3277545607925Z" fill-rule="evenodd" style="fill: #1DC690; stroke: #fff; opacity: 1;" id="p-type-logs"></path><path d="M45.802696156423316,-191.6014431699364A197,197,0,0,1,47.75501620871938,-191.12419634076934L41.35705719488862,-165.5184093089911A170.6070045455344,170.6070045455344,0,0,0,39.666298433282456,-165.93171718692534Z" fill-rule="evenodd" style="fill: #1DC690; stroke: #fff; opacity: 1;" id="p-type-logs"></path><path d="M47.75501620871938,-191.12419634076934A197,197,0,0,1,49.70236582368349,-190.62705692405981L43.04351143149738,-165.08787394489806A170.6070045455344,170.6070045455344,0,0,0,41.35705719488862,-165.5184093089911Z" fill-rule="evenodd" style="fill: #1DC690; stroke: #fff; opacity: 1;" id="p-type-logs"></path><path d="M49.70236582368349,-190.62705692405981A197,197,0,0,1,51.64454231728392,-190.11007666306978L44.72548561358833,-164.6401559056256A170.6070045455344,170.6070045455344,0,0,0,43.04351143149738,-165.08787394489806Z" fill-rule="evenodd" style="fill: #1DC690; stroke: #fff; opacity: 1;" id="p-type-logs"></path><path d="M51.64454231728392,-190.11007666306978A197,197,0,0,1,53.581343543917534,-189.57330936613596L46.40280467793391,-164.17530179056018A170.6070045455344,170.6070045455344,0,0,0,44.72548561358833,-164.6401559056256Z" fill-rule="evenodd" style="fill: #1DC690; stroke: #fff; opacity: 1;" id="p-type-logs"></path><path d="M53.581343543917534,-189.57330936613596A197,197,0,0,1,55.51256791744988,-189.01681090106908L48.075294045820606,-163.69335998264523A170.6070045455344,170.6070045455344,0,0,0,46.40280467793391,-164.17530179056018Z" fill-rule="evenodd" style="fill: #1DC690; stroke: #fff; opacity: 1;" id="p-type-logs"></path><path d="M55.51256791744988,-189.01681090106908A197,197,0,0,1,57.43801443219643,-188.4406391893394L49.74277964121933,-163.19438064334537A170.6070045455344,170.6070045455344,0,0,0,48.075294045820606,-163.69335998264523Z" fill-rule="evenodd" style="fill: #1DC690; stroke: #fff; opacity: 1;" id="p-type-logs"></path><path d="M57.43801443219643,-188.4406391893394A197,197,0,0,1,59.35748268384371,-187.84485420004773L51.405087908903575,-162.67841570742533A170.6070045455344,170.6070045455344,0,0,0,49.74277964121933,-163.19438064334537Z" fill-rule="evenodd" style="fill: #1DC690; stroke: #fff; opacity: 1;" id="p-type-logs"></path><path d="M59.35748268384371,-187.84485420004773A197,197,0,0,1,61.270772890307875,-187.22951794368407L53.06204583251351,-162.1455188775448A170.6070045455344,170.6070045455344,0,0,0,51.405087908903575,-162.67841570742533Z" fill-rule="evenodd" style="fill: #1DC690; stroke: #fff; opacity: 1;" id="p-type-logs"></path><path d="M61.270772890307875,-187.22951794368407A197,197,0,0,1,63.177685912528176,-186.5946944656732L54.71348095256366,-161.5957456186686A170.6070045455344,170.6070045455344,0,0,0,53.06204583251351,-162.1455188775448Z" fill-rule="evenodd" style="fill: #1DC690; stroke: #fff; opacity: 1;" id="p-type-logs"></path><path d="M63.177685912528176,-186.5946944656732A197,197,0,0,1,65.07802327519407,-185.9404498397089L56.35922138439304,-161.02915315229404A170.6070045455344,170.6070045455344,0,0,0,54.71348095256366,-161.5957456186686Z" fill-rule="evenodd" style="fill: #1DC690; stroke: #fff; opacity: 1;" id="p-type-logs"></path><path d="M65.07802327519407,-185.9404498397089A197,197,0,0,1,66.97158718740276,-185.26685216087662L57.99909583605522,-160.44580045049506A170.6070045455344,170.6070045455344,0,0,0,56.35922138439304,-161.02915315229404Z" fill-rule="evenodd" style="fill: #1DC690; stroke: #fff; opacity: 1;" id="p-type-logs"></path><path d="M66.97158718740276,-185.26685216087662A197,197,0,0,1,68.85818056324558,-184.57397153856627L59.63293362614653,-159.84574822978433A170.6070045455344,170.6070045455344,0,0,0,57.99909583605522,-160.44580045049506Z" fill-rule="evenodd" style="fill: #1DC690; stroke: #fff; opacity: 1;" id="p-type-logs"></path><path d="M68.85818056324558,-184.57397153856627A197,197,0,0,1,70.73760704232127,-183.86188008917492L61.260564701571234,-159.22905894479374A170.6070045455344,170.6070045455344,0,0,0,59.63293362614653,-159.84574822978433Z" fill-rule="evenodd" style="fill: #1DC690; stroke: #fff; opacity: 1;" id="p-type-logs"></path><path d="M70.73760704232127,-183.86188008917492A197,197,0,0,1,72.60967101017351,-183.13065192860088L62.88181965524077,-158.59579678177406A170.6070045455344,170.6070045455344,0,0,0,61.260564701571234,-159.22905894479374Z" fill-rule="evenodd" style="fill: #1DC690; stroke: #fff; opacity: 1;" id="p-type-logs"></path><path d="M72.60967101017351,-183.13065192860088A197,197,0,0,1,74.47417761865077,-182.38036316452948L64.49652974370603,-157.9460276519142A170.6070045455344,170.6070045455344,0,0,0,62.88181965524077,-158.59579678177406Z" fill-rule="evenodd" style="fill: #1DC690; stroke: #fff; opacity: 1;" id="p-type-logs"></path><path d="M74.47417761865077,-182.38036316452948A197,197,0,0,1,76.33093280618661,-181.61109188851165L66.10452690472061,-157.27981918448108A170.6070045455344,170.6070045455344,0,0,0,64.49652974370603,-157.9460276519142Z" fill-rule="evenodd" style="fill: #1DC690; stroke: #fff; opacity: 1;" id="p-type-logs"></path><path d="M76.33093280618661,-181.61109188851165A197,197,0,0,1,78.17974331799783,-180.82291816783618L67.70564377473283,-156.5972407197808A170.6070045455344,170.6070045455344,0,0,0,66.10452690472061,-157.27981918448108Z" fill-rule="evenodd" style="fill: #1DC690; stroke: #fff; opacity: 1;" id="p-type-logs"></path><path d="M78.17974331799783,-180.82291816783618A197,197,0,0,1,80.02041672619907,-180.01592403719576L69.2997137063056,-155.8983633019413A170.6070045455344,170.6070045455344,0,0,0,67.70564377473283,-156.5972407197808Z" fill-rule="evenodd" style="fill: #1DC690; stroke: #fff; opacity: 1;" id="p-type-logs"></path><path d="M80.02041672619907,-180.01592403719576A197,197,0,0,1,81.85276144983088,-179.1901934901491L70.88657078546112,-155.18325967151807A170.6070045455344,170.6070045455344,0,0,0,69.2997137063056,-155.8983633019413Z" fill-rule="evenodd" style="fill: #1DC690; stroke: #fff; opacity: 1;" id="p-type-logs"></path><path d="M81.85276144983088,-179.1901934901491A197,197,0,0,1,83.67658677479984,-178.34581247037843L72.46604984894965,-154.45200425792325A170.6070045455344,170.6070045455344,0,0,0,70.88657078546112,-155.18325967151807Z" fill-rule="evenodd" style="fill: #1DC690; stroke: #fff; opacity: 1;" id="p-type-logs"></path><path d="M83.67658677479984,-178.34581247037843A197,197,0,0,1,85.49170287372867,-177.4828688627443L74.03798650144012,-153.7046731716787A170.6070045455344,170.6070045455344,0,0,0,72.46604984894965,-154.45200425792325Z" fill-rule="evenodd" style="fill: #1DC690; stroke: #fff; opacity: 1;" id="p-type-logs"></path><path d="M85.49170287372867,-177.4828688627443A197,197,0,0,1,87.29792082571359,-176.60145248413855L75.60221713263057,-152.94134419649444A170.6070045455344,170.6070045455344,0,0,0,74.03798650144012,-153.7046731716787Z" fill-rule="evenodd" style="fill: #1DC690; stroke: #fff; opacity: 1;" id="p-type-logs"></path><path d="M87.29792082571359,-176.60145248413855A197,197,0,0,1,89.09505263598778,-175.70165507413572L77.15857893427713,-152.16209678117255A170.6070045455344,170.6070045455344,0,0,0,75.60221713263057,-152.94134419649444Z" fill-rule="evenodd" style="fill: #1DC690; stroke: #fff; opacity: 1;" id="p-type-logs"></path><path d="M89.09505263598778,-175.70165507413572A197,197,0,0,1,90.88291125548818,-174.7835702854449L78.70690991713946,-151.36701203133822A170.6070045455344,170.6070045455344,0,0,0,77.15857893427713,-152.16209678117255Z" fill-rule="evenodd" style="fill: #1DC690; stroke: #fff; opacity: 1;" id="p-type-logs"></path><path d="M90.88291125548818,-174.7835702854449A197,197,0,0,1,92.66131060032379,-173.847293674162L80.2470489278407,-150.55617270099802A170.6070045455344,170.6070045455344,0,0,0,78.70690991713946,-151.36701203133822Z" fill-rule="evenodd" style="fill: #1DC690; stroke: #fff; opacity: 1;" id="p-type-logs"></path><path d="M92.66131060032379,-173.847293674162A197,197,0,0,1,94.43006557114391,-172.892922689824L81.77883566564093,-149.72966318392656A170.6070045455344,170.6070045455344,0,0,0,80.2470489278407,-150.55617270099802Z" fill-rule="evenodd" style="fill: #1DC690; stroke: #fff; opacity: 1;" id="p-type-logs"></path><path d="M94.43006557114391,-172.892922689824A197,197,0,0,1,96.18899207240355,-171.92055666526645L83.30211069912144,-148.88756950488283A170.6070045455344,170.6070045455344,0,0,0,81.77883566564093,-149.72966318392656Z" fill-rule="evenodd" style="fill: #1DC690; stroke: #fff; opacity: 1;" id="p-type-logs"></path><path d="M96.18899207240355,-171.92055666526645A197,197,0,0,1,97.93790703152428,-170.9302968062845L84.81671548277862,-148.02997931065647A170.6070045455344,170.6070045455344,0,0,0,83.30211069912144,-148.88756950488283Z" fill-rule="evenodd" style="fill: #1DC690; stroke: #fff; opacity: 1;" id="p-type-logs"></path><path d="M97.93790703152428,-170.9302968062845A197,197,0,0,1,99.67662841794905,-169.9222461810993L86.32249237352576,-147.1569818609453A170.6070045455344,170.6070045455344,0,0,0,84.81671548277862,-148.02997931065647Z" fill-rule="evenodd" style="fill: #1DC690; stroke: #fff; opacity: 1;" id="p-type-logs"></path><path d="M99.67662841794905,-169.9222461810993A197,197,0,0,1,101.40497526208821,-168.89650970963038L87.81928464710096,-146.26866801906502A170.6070045455344,170.6070045455344,0,0,0,86.32249237352576,-147.1569818609453Z" fill-rule="evenodd" style="fill: #1DC690; stroke: #fff; opacity: 1;" id="p-type-logs"></path><path d="M101.40497526208821,-168.89650970963038A197,197,0,0,1,103.12276767415516,-167.85319415257555L89.30693651437907,-145.36513024249203A170.6070045455344,170.6070045455344,0,0,0,87.81928464710096,-146.26866801906502Z" fill-rule="evenodd" style="fill: #1DC690; stroke: #fff; opacity: 1;" id="p-type-logs"></path><path d="M103.12276767415516,-167.85319415257555A197,197,0,0,1,104.82982686288945,-166.7924081002988L90.78529313758662,-144.44646257324013A170.6070045455344,170.6070045455344,0,0,0,89.30693651437907,-145.36513024249203Z" fill-rule="evenodd" style="fill: #1DC690; stroke: #fff; opacity: 1;" id="p-type-logs"></path><path d="M104.82982686288945,-166.7924081002988A197,197,0,0,1,106.52597515416622,-165.7142619615281L92.25420064641787,-143.5127606280726A170.6070045455344,170.6070045455344,0,0,0,90.78529313758662,-144.44646257324013Z" fill-rule="evenodd" style="fill: #1DC690; stroke: #fff; opacity: 1;" id="p-type-logs"></path><path d="M106.52597515416622,-165.7142619615281A197,197,0,0,1,108.21103600948838,-164.61886795186393L93.71350615404961,-142.56412158855014A170.6070045455344,170.6070045455344,0,0,0,92.25420064641787,-143.5127606280726Z" fill-rule="evenodd" style="fill: #1DC690; stroke: #fff; opacity: 1;" id="p-type-logs"></path><path d="M108.21103600948838,-164.61886795186393A197,197,0,0,1,109.88483404436136,-163.50634008209948L95.16305777305406,-141.60064419091594A170.6070045455344,170.6070045455344,0,0,0,93.71350615404961,-142.56412158855014Z" fill-rule="evenodd" style="fill: #1DC690; stroke: #fff; opacity: 1;" id="p-type-logs"></path><path d="M109.88483404436136,-163.50634008209948A197,197,0,0,1,111.54719504654734,-162.3767941463543L96.60270463120769,-140.62242871581915A170.6070045455344,170.6070045455344,0,0,0,95.16305777305406,-141.60064419091594Z" fill-rule="evenodd" style="fill: #1DC690; stroke: #fff; opacity: 1;" id="p-type-logs"></path><path d="M111.54719504654734,-162.3767941463543A197,197,0,0,1,113.1979459941978,-161.23034771002227L98.03229688719422,-139.62957697787746A170.6070045455344,170.6070045455344,0,0,0,96.60270463120769,-140.62242871581915Z" fill-rule="evenodd" style="fill: #1DC690; stroke: #fff; opacity: 1;" id="p-type-logs"></path><path d="M113.1979459941978,-161.23034771002227A197,197,0,0,1,114.83691507386169,-160.06712009753497L99.45168574620035,-138.62219231507993A170.6070045455344,170.6070045455344,0,0,0,98.03229688719422,-139.62957697787746Z" fill-rule="evenodd" style="fill: #1DC690; stroke: #fff; opacity: 1;" id="p-type-logs"></path><path d="M114.83691507386169,-160.06712009753497A197,197,0,0,1,116.46393169836838,-158.8872323799423L100.86072347540276,-137.60037957803146A170.6070045455344,170.6070045455344,0,0,0,99.45168574620035,-138.62219231507993Z" fill-rule="evenodd" style="fill: #1DC690; stroke: #fff; opacity: 1;" id="p-type-logs"></path><path d="M116.46393169836838,-158.8872323799423A197,197,0,0,1,118.07882652458262,-157.69080736231115L102.25926341934435,-136.56424511903964A170.6070045455344,170.6070045455344,0,0,0,100.86072347540276,-137.60037957803146Z" fill-rule="evenodd" style="fill: #1DC690; stroke: #fff; opacity: 1;" id="p-type-logs"></path><path d="M118.07882652458262,-157.69080736231115A197,197,0,0,1,119.68143147103008,-156.47796957094354L103.64716001519844,-135.51389678104547A170.6070045455344,170.6070045455344,0,0,0,102.25926341934435,-136.56424511903964Z" fill-rule="evenodd" style="fill: #1DC690; stroke: #fff; opacity: 1;" id="p-type-logs"></path><path d="M119.68143147103008,-156.47796957094354A197,197,0,0,1,121.27157973539157,-155.24884524041576L105.02426880791923,-134.44944388639888A170.6070045455344,170.6070045455344,0,0,0,103.64716001519844,-135.51389678104547Z" fill-rule="evenodd" style="fill: #1DC690; stroke: #fff; opacity: 1;" id="p-type-logs"></path><path d="M121.27157973539157,-155.24884524041576A197,197,0,0,1,122.84910581186432,-154.00356230043957L106.39044646527702,-133.37099722548012A170.6070045455344,170.6070045455344,0,0,0,105.02426880791923,-134.44944388639888Z" fill-rule="evenodd" style="fill: #1DC690; stroke: #fff; opacity: 1;" id="p-type-logs"></path><path d="M192.07309563909376,-43.78271270279557A197,197,0,0,1,195.26138083579804,26.114998642493642L169.10131618182902,22.61625224419562A170.6070045455344,170.6070045455344,0,0,0,166.3401802069733,-37.91694144721661Z" fill-rule="evenodd" style="fill: #414552; stroke: #fff; opacity: 1;" id="p-type-ether"></path><path d="M195.26138083579804,26.114998642493642A197,197,0,0,1,191.58650259196605,45.86515043667232L165.9187782668558,39.72038542655317A170.6070045455344,170.6070045455344,0,0,0,169.10131618182902,22.61625224419562Z" fill-rule="evenodd" style="fill: #414552; stroke: #fff; opacity: 1;" id="p-type-ether"></path><path d="M191.58650259196605,45.86515043667232A197,197,0,0,1,190.09323188581155,51.706510143376356L164.62556790059887,44.77915132520168A170.6070045455344,170.6070045455344,0,0,0,165.9187782668558,39.72038542655317Z" fill-rule="evenodd" style="fill: #414552; stroke: #fff; opacity: 1;" id="p-type-ether"></path><path d="M190.09323188581155,51.706510143376356A197,197,0,0,1,188.99862196837748,55.57446260697756L163.67760790486656,48.12889641931093A170.6070045455344,170.6070045455344,0,0,0,164.62556790059887,44.77915132520168Z" fill-rule="evenodd" style="fill: #414552; stroke: #fff; opacity: 1;" id="p-type-ether"></path><path d="M188.99862196837748,55.57446260697756A197,197,0,0,1,188.07682462001824,58.61832512833253L162.87930798404633,50.76495868843168A170.6070045455344,170.6070045455344,0,0,0,163.67760790486656,48.12889641931093Z" fill-rule="evenodd" style="fill: #414552; stroke: #fff; opacity: 1;" id="p-type-ether"></path><path d="M188.07682462001824,58.61832512833253A197,197,0,0,1,187.42705879865127,60.663808239236985L162.31659427623168,52.536399025486965A170.6070045455344,170.6070045455344,0,0,0,162.87930798404633,50.76495868843168Z" fill-rule="evenodd" style="fill: #414552; stroke: #fff; opacity: 1;" id="p-type-ether"></path><path d="M187.42705879865127,60.663808239236985A197,197,0,0,1,186.94751907388283,62.12588117781682L161.90130069245842,53.80259133248287A170.6070045455344,170.6070045455344,0,0,0,162.31659427623168,52.536399025486965Z" fill-rule="evenodd" style="fill: #414552; stroke: #fff; opacity: 1;" id="p-type-ether"></path><path d="M92.81060871245366,173.76763481852373A197,197,0,0,1,91.03301427171493,174.7054387035668L78.83690294237648,151.29934809659395A170.6070045455344,170.6070045455344,0,0,0,80.37634488568222,150.4871861083789Z" fill-rule="evenodd" style="fill: #D7A449; stroke: #fff; opacity: 1;" id="p-type-tokenTransfers"></path><path d="M91.03301427171493,174.7054387035668A197,197,0,0,1,89.24594493329015,175.62505889810868L77.28925549697638,152.09576254690037A170.6070045455344,170.6070045455344,0,0,0,78.83690294237648,151.29934809659395Z" fill-rule="evenodd" style="fill: #D7A449; stroke: #fff; opacity: 1;" id="p-type-tokenTransfers"></path><path d="M89.24594493329015,175.62505889810868A197,197,0,0,1,87.4495866989203,176.5263996862453L75.73356363171472,152.8763465668938A170.6070045455344,170.6070045455344,0,0,0,77.28925549697638,152.09576254690037Z" fill-rule="evenodd" style="fill: #D7A449; stroke: #fff; opacity: 1;" id="p-type-tokenTransfers"></path><path d="M87.4495866989203,176.5263996862453A197,197,0,0,1,85.64412653715311,177.40936725462979L74.16998926610358,153.6410189118325A170.6070045455344,170.6070045455344,0,0,0,75.73356363171472,152.8763465668938Z" fill-rule="evenodd" style="fill: #D7A449; stroke: #fff; opacity: 1;" id="p-type-tokenTransfers"></path><path d="M85.64412653715311,177.40936725462979A197,197,0,0,1,83.82975236388316,178.27386970223657L72.59869514008142,154.38969999309384A170.6070045455344,170.6070045455344,0,0,0,74.16998926610358,153.6410189118325Z" fill-rule="evenodd" style="fill: #D7A449; stroke: #fff; opacity: 1;" id="p-type-tokenTransfers"></path><path d="M83.82975236388316,178.27386970223657A197,197,0,0,1,82.00665302279307,179.11981704992672L71.01984479707473,155.12231188645757A170.6070045455344,170.6070045455344,0,0,0,72.59869514008142,154.38969999309384Z" fill-rule="evenodd" style="fill: #D7A449; stroke: #fff; opacity: 1;" id="p-type-tokenTransfers"></path><path d="M82.00665302279307,179.11981704992672A197,197,0,0,1,80.17501826569833,179.9471212498131L69.43360256697613,155.83877834021672A170.6070045455344,170.6070045455344,0,0,0,71.01984479707473,155.12231188645757Z" fill-rule="evenodd" style="fill: #D7A449; stroke: #fff; opacity: 1;" id="p-type-tokenTransfers"></path><path d="M80.17501826569833,179.9471212498131A197,197,0,0,1,78.33503873279756,180.75569619442453L67.84013354904064,156.53902478311383A170.6070045455344,170.6070045455344,0,0,0,69.43360256697613,155.83877834021672Z" fill-rule="evenodd" style="fill: #D7A449; stroke: #fff; opacity: 1;" id="p-type-tokenTransfers"></path><path d="M78.33503873279756,180.75569619442453A197,197,0,0,1,76.48690593283027,181.54545772566817L66.23960359470172,157.2229783321025A170.6070045455344,170.6070045455344,0,0,0,67.84013354904064,156.53902478311383Z" fill-rule="evenodd" style="fill: #D7A449; stroke: #fff; opacity: 1;" id="p-type-tokenTransfers"></path><path d="M76.48690593283027,181.54545772566817A197,197,0,0,1,74.63081222314433,182.31632364358867L64.63217929030918,157.89056779993328A170.6070045455344,170.6070045455344,0,0,0,66.23960359470172,157.2229783321025Z" fill-rule="evenodd" style="fill: #D7A449; stroke: #fff; opacity: 1;" id="p-type-tokenTransfers"></path><path d="M74.63081222314433,182.31632364358867A197,197,0,0,1,72.7669507896749,183.06821371492384L63.01802793979057,158.54172370256282A170.6070045455344,170.6070045455344,0,0,0,64.63217929030918,157.89056779993328Z" fill-rule="evenodd" style="fill: #D7A449; stroke: #fff; opacity: 1;" id="p-type-tokenTransfers"></path><path d="M72.7669507896749,183.06821371492384A197,197,0,0,1,70.89551562683734,183.80104968145548L61.39731754723778,159.17637826638614A170.6070045455344,170.6070045455344,0,0,0,63.01802793979057,158.54172370256282Z" fill-rule="evenodd" style="fill: #D7A449; stroke: #fff; opacity: 1;" id="p-type-tokenTransfers"></path><path d="M70.89551562683734,183.80104968145548A197,197,0,0,1,69.0167015173359,184.51475526815454L59.7702167994209,159.79446543529042A170.6070045455344,170.6070045455344,0,0,0,61.39731754723778,159.17637826638614Z" fill-rule="evenodd" style="fill: #D7A449; stroke: #fff; opacity: 1;" id="p-type-tokenTransfers"></path><path d="M69.0167015173359,184.51475526815454A197,197,0,0,1,67.13070401189029,185.20925619112015L58.13689504823092,160.39592087753036A170.6070045455344,170.6070045455344,0,0,0,59.7702167994209,159.79446543529042Z" fill-rule="evenodd" style="fill: #D7A449; stroke: #fff; opacity: 1;" id="p-type-tokenTransfers"></path><path d="M67.13070401189029,185.20925619112015A197,197,0,0,1,65.2377194088824,185.8844801653111L56.49752229305329,160.98068199242402A170.6070045455344,170.6070045455344,0,0,0,58.13689504823092,160.39592087753036Z" fill-rule="evenodd" style="fill: #D7A449; stroke: #fff; opacity: 1;" id="p-type-tokenTransfers"></path><path d="M65.2377194088824,185.8844801653111A197,197,0,0,1,63.337944733925156,186.5403569120694L54.85226916307399,161.5486879168682A170.6070045455344,170.6070045455344,0,0,0,56.49752229305329,160.98068199242402Z" fill-rule="evenodd" style="fill: #D7A449; stroke: #fff; opacity: 1;" id="p-type-tokenTransfers"></path><path d="M63.337944733925156,186.5403569120694A197,197,0,0,1,61.43157771935575,187.17681816643523L53.20130689952019,162.0998795316735A170.6070045455344,170.6070045455344,0,0,0,54.85226916307399,161.5486879168682Z" fill-rule="evenodd" style="fill: #D7A449; stroke: #fff; opacity: 1;" id="p-type-tokenTransfers"></path><path d="M61.43157771935575,187.17681816643523A197,197,0,0,1,59.51881678365521,187.79379768425176L51.54480733783703,162.6341994677173A170.6070045455344,170.6070045455344,0,0,0,53.20130689952019,162.0998795316735Z" fill-rule="evenodd" style="fill: #D7A449; stroke: #fff; opacity: 1;" id="p-type-tokenTransfers"></path><path d="M59.51881678365521,187.79379768425176A197,197,0,0,1,57.599861010796616,188.3912312490603L49.882942889802685,163.151592111915A170.6070045455344,170.6070045455344,0,0,0,51.54480733783703,162.6341994677173Z" fill-rule="evenodd" style="fill: #D7A449; stroke: #fff; opacity: 1;" id="p-type-tokenTransfers"></path><path d="M57.599861010796616,188.3912312490603A197,197,0,0,1,55.674910129524065,188.96905667878383L48.21588652558341,163.65200361300825A170.6070045455344,170.6070045455344,0,0,0,49.882942889802685,163.151592111915Z" fill-rule="evenodd" style="fill: #D7A449; stroke: #fff; opacity: 1;" id="p-type-tokenTransfers"></path><path d="M55.674910129524065,188.96905667878383A197,197,0,0,1,53.7441644925645,189.52721383219924L46.54381175573047,164.13538188716998A170.6070045455344,170.6070045455344,0,0,0,48.21588652558341,163.65200361300825Z" fill-rule="evenodd" style="fill: #D7A449; stroke: #fff; opacity: 1;" id="p-type-tokenTransfers"></path><path d="M53.7441644925645,189.52721383219924A197,197,0,0,1,51.807825055774586,190.0656446151967L44.86689261312075,164.60167662342533A170.6070045455344,170.6070045455344,0,0,0,46.54381175573047,164.13538188716998Z" fill-rule="evenodd" style="fill: #D7A449; stroke: #fff; opacity: 1;" id="p-type-tokenTransfers"></path><path d="M51.807825055774586,190.0656446151967A197,197,0,0,1,49.86609335722485,190.58429298682654L43.18530363484316,165.0508392888882A170.6070045455344,170.6070045455344,0,0,0,44.86689261312075,164.60167662342533Z" fill-rule="evenodd" style="fill: #D7A449; stroke: #fff; opacity: 1;" id="p-type-tokenTransfers"></path><path d="M49.86609335722485,190.58429298682654A197,197,0,0,1,47.91917149622312,191.08310496513175L41.499219844032396,165.48282313381247A170.6070045455344,170.6070045455344,0,0,0,43.18530363484316,165.0508392888882Z" fill-rule="evenodd" style="fill: #D7A449; stroke: #fff; opacity: 1;" id="p-type-tokenTransfers"></path><path d="M47.91917149622312,191.08310496513175A197,197,0,0,1,45.96726211227977,191.5620286327668L39.808816731652215,165.89758319645807A170.6070045455344,170.6070045455344,0,0,0,41.499219844032396,165.48282313381247Z" fill-rule="evenodd" style="fill: #D7A449; stroke: #fff; opacity: 1;" id="p-type-tokenTransfers"></path><path d="M45.96726211227977,191.5620286327668A197,197,0,0,1,44.01056836401643,192.02101414240119L38.11427023822997,166.2950763077704A170.6070045455344,170.6070045455344,0,0,0,39.808816731652215,165.89758319645807Z" fill-rule="evenodd" style="fill: #D7A449; stroke: #fff; opacity: 1;" id="p-type-tokenTransfers"></path><path d="M44.01056836401643,192.02101414240119A197,197,0,0,1,42.049293908020964,192.46001372190761L36.41575673554439,166.67526109587365A170.6070045455344,170.6070045455344,0,0,0,38.11427023822997,166.2950763077704Z" fill-rule="evenodd" style="fill: #D7A449; stroke: #fff; opacity: 1;" id="p-type-tokenTransfers"></path><path d="M42.049293908020964,192.46001372190761A197,197,0,0,1,40.0836428776504,192.87898167933432L34.713453008268424,167.03809799037683A170.6070045455344,170.6070045455344,0,0,0,36.41575673554439,166.67526109587365Z" fill-rule="evenodd" style="fill: #D7A449; stroke: #fff; opacity: 1;" id="p-type-tokenTransfers"></path><path d="M40.0836428776504,192.87898167933432A197,197,0,0,1,38.11381986178437,193.27787440766068L33.00753623556917,167.38354922649236A170.6070045455344,170.6070045455344,0,0,0,34.713453008268424,167.03809799037683Z" fill-rule="evenodd" style="fill: #D7A449; stroke: #fff; opacity: 1;" id="p-type-tokenTransfers"></path><path d="M38.11381986178437,193.27787440766068A197,197,0,0,1,36.14002988353109,193.6566503893359L31.298183972666692,167.7115788489665A170.6070045455344,170.6070045455344,0,0,0,33.00753623556917,167.38354922649236Z" fill-rule="evenodd" style="fill: #D7A449; stroke: #fff; opacity: 1;" id="p-type-tokenTransfers"></path><path d="M36.14002988353109,193.6566503893359A197,197,0,0,1,34.162478378888096,194.01527020060047L29.58557413235372,168.022152715822A170.6070045455344,170.6070045455344,0,0,0,31.298183972666692,167.7115788489665Z" fill-rule="evenodd" style="fill: #D7A449; stroke: #fff; opacity: 1;" id="p-type-tokenTransfers"></path><path d="M34.162478378888096,194.01527020060047A197,197,0,0,1,32.18137117536014,194.35369651558906L27.86988496647816,168.31523850191127A170.6070045455344,170.6070045455344,0,0,0,29.58557413235372,168.022152715822Z" fill-rule="evenodd" style="fill: #D7A449; stroke: #fff; opacity: 1;" id="p-type-tokenTransfers"></path><path d="M32.18137117536014,194.35369651558906A197,197,0,0,1,30.19691447053616,194.67189411021593L26.15129504739024,168.59080570228122A170.6070045455344,170.6070045455344,0,0,0,27.86988496647816,168.31523850191127Z" fill-rule="evenodd" style="fill: #D7A449; stroke: #fff; opacity: 1;" id="p-type-tokenTransfers"></path><path d="M30.19691447053616,194.67189411021593A197,197,0,0,1,28.209314810627905,194.96982986584075L24.429983249356376,168.84882563534802A170.6070045455344,170.6070045455344,0,0,0,26.15129504739024,168.59080570228122Z" fill-rule="evenodd" style="fill: #D7A449; stroke: #fff; opacity: 1;" id="p-type-tokenTransfers"></path><path d="M28.209314810627905,194.96982986584075A197,197,0,0,1,26.218779068972136,195.24747277271587L22.706128729941582,169.08927144588245A170.6070045455344,170.6070045455344,0,0,0,24.429983249356376,168.84882563534802Z" fill-rule="evenodd" style="fill: #D7A449; stroke: #fff; opacity: 1;" id="p-type-tokenTransfers"></path><path d="M26.218779068972136,195.24747277271587A197,197,0,0,1,24.225514424498865,195.50479393321382L20.97991091136237,169.31211810780496A170.6070045455344,170.6070045455344,0,0,0,22.706128729941582,169.08927144588245Z" fill-rule="evenodd" style="fill: #D7A449; stroke: #fff; opacity: 1;" id="p-type-tokenTransfers"></path><path d="M24.225514424498865,195.50479393321382A197,197,0,0,1,22.229728340167757,195.74176656483496L19.25150946181216,169.51734242679052A170.6070045455344,170.6070045455344,0,0,0,20.97991091136237,169.31211810780496Z" fill-rule="evenodd" style="fill: #D7A449; stroke: #fff; opacity: 1;" id="p-type-tokenTransfers"></path><path d="M22.229728340167757,195.74176656483496A197,197,0,0,1,20.231628541374956,195.95836600299518L17.52110427676102,169.7049230426827A170.6070045455344,170.6070045455344,0,0,0,19.25150946181216,169.51734242679052Z" fill-rule="evenodd" style="fill: #D7A449; stroke: #fff; opacity: 1;" id="p-type-tokenTransfers"></path><path d="M20.231628541374956,195.95836600299518A197,197,0,0,1,18.231422994332632,196.15456970359298L15.788875460231816,169.87484043171693A170.6070045455344,170.6070045455344,0,0,0,17.52110427676102,169.7049230426827Z" fill-rule="evenodd" style="fill: #D7A449; stroke: #fff; opacity: 1;" id="p-type-tokenTransfers"></path><path d="M18.231422994332632,196.15456970359298A197,197,0,0,1,16.229319884423422,196.33035724535586L14.055003306054614,170.0270769085524A170.6070045455344,170.6070045455344,0,0,0,15.788875460231816,169.87484043171693Z" fill-rule="evenodd" style="fill: #D7A449; stroke: #fff; opacity: 1;" id="p-type-tokenTransfers"></path><path d="M16.229319884423422,196.33035724535586A197,197,0,0,1,14.225527594532103,196.4857103319659L12.31966827910134,170.161616628113A170.6070045455344,170.6070045455344,0,0,0,14.055003306054614,170.0270769085524Z" fill-rule="evenodd" style="fill: #D7A449; stroke: #fff; opacity: 1;" id="p-type-tokenTransfers"></path><path d="M14.225527594532103,196.4857103319659A197,197,0,0,1,12.220254683356668,196.62061279396394L10.583050996502635,170.27844558723638A170.6070045455344,170.6070045455344,0,0,0,12.31966827910134,170.161616628113Z" fill-rule="evenodd" style="fill: #D7A449; stroke: #fff; opacity: 1;" id="p-type-tokenTransfers"></path><path d="M12.220254683356668,196.62061279396394A197,197,0,0,1,10.213709863701117,196.73505059043276L8.845332208848863,170.3775516261315A170.6070045455344,170.6070045455344,0,0,0,10.583050996502635,170.27844558723638Z" fill-rule="evenodd" style="fill: #D7A449; stroke: #fff; opacity: 1;" id="p-type-tokenTransfers"></path><path d="M10.213709863701117,196.73505059043276A197,197,0,0,1,8.206101980752237,196.8290118104582L7.106692781377238,170.4589244296441A170.6070045455344,170.6070045455344,0,0,0,8.845332208848863,170.3775516261315Z" fill-rule="evenodd" style="fill: #D7A449; stroke: #fff; opacity: 1;" id="p-type-tokenTransfers"></path><path d="M8.206101980752237,196.8290118104582A197,197,0,0,1,6.197639990342554,196.90248667436913L5.3673136751469945,170.52255552833057A170.6070045455344,170.6070045455344,0,0,0,7.106692781377238,170.4589244296441Z" fill-rule="evenodd" style="fill: #D7A449; stroke: #fff; opacity: 1;" id="p-type-tokenTransfers"></path><path d="M6.197639990342554,196.90248667436913A197,197,0,0,1,4.188532937201802,196.95546753475512L3.6273759282046116,170.5684382993392A170.6070045455344,170.6070045455344,0,0,0,5.3673136751469945,170.52255552833057Z" fill-rule="evenodd" style="fill: #D7A449; stroke: #fff; opacity: 1;" id="p-type-tokenTransfers"></path><path d="M4.188532937201802,196.95546753475512A197,197,0,0,1,2.178989933199134,196.9879488772626L1.8870606367410068,170.59656796709967A170.6070045455344,170.6070045455344,0,0,0,3.6273759282046116,170.5684382993392Z" fill-rule="evenodd" style="fill: #D7A449; stroke: #fff; opacity: 1;" id="p-type-tokenTransfers"></path><path d="M2.178989933199134,196.9879488772626A197,197,0,0,1,0.16922013557833518,196.99992732116863L0.14654893624268517,170.6069416038201A170.6070045455344,170.6070045455344,0,0,0,1.8870606367410068,170.59656796709967Z" fill-rule="evenodd" style="fill: #D7A449; stroke: #fff; opacity: 1;" id="p-type-tokenTransfers"></path><path d="M0.16922013557833518,196.99992732116863A197,197,0,0,1,-1.840567274811675,196.99140161973287L-1.5939780173612048,170.5995581297917A170.6070045455344,170.6070045455344,0,0,0,0.14654893624268517,170.6069416038201Z" fill-rule="evenodd" style="fill: #D7A449; stroke: #fff; opacity: 1;" id="p-type-tokenTransfers"></path><path d="M-1.840567274811675,196.99140161973287A197,197,0,0,1,-3.850163115288807,196.96237266032736L-3.3343390665539414,170.57441831350107A170.6070045455344,170.6070045455344,0,0,0,-1.5939780173612048,170.5995581297917Z" fill-rule="evenodd" style="fill: #D7A449; stroke: #fff; opacity: 1;" id="p-type-tokenTransfers"></path></g></svg>