<svg xmlns="http://www.w3.org/2000/svg" width="400" height="400" id="block-7908247"><g id="burst-container" transform="translate(200,200)"><circle r="197" style="fill: #f9f9f9; stroke: #f9f9f9; stroke-width: 3; opacity: 1;" id="circle-base"></circle><path display="none" d="M6.031385485800715e-15,-98.5A98.5,98.5,0,1,1,-6.031385485800715e-15,98.5A98.5,98.5,0,1,1,6.031385485800715e-15,-98.5Z" fill-rule="evenodd" id="p-type-root" style="stroke: #fff; opacity: 1;"></path><path d="M8.529667153919608e-15,-139.30003589374985A139.30003589374985,139.30003589374985,0,1,1,-59.57406485225613,-125.91834972306131L-42.125225239877466,-89.03771896499589A98.5,98.5,0,1,0,6.031385485800715e-15,-98.5Z" fill-rule="evenodd" style="fill: #0B1F65; stroke: #fff; opacity: 1;" id="p-type-data"></path><path d="M-59.57406485225613,-125.91834972306131A139.30003589374985,139.30003589374985,0,0,1,-1.4656433307463277,-139.2923253077033L-1.0363663379715664,-98.49454779231955A98.5,98.5,0,0,0,-42.125225239877466,-89.03771896499589Z" fill-rule="evenodd" style="fill: #D7A449; stroke: #fff; opacity: 1;" id="p-type-value"></path><path d="M1.0446666101440332e-14,-170.6070045455344A170.6070045455344,170.6070045455344,0,0,1,129.22071294513694,111.39460196055515L105.50827030474746,90.95331163459824A139.30003589374985,139.30003589374985,0,0,0,8.529667153919608e-15,-139.30003589374985Z" fill-rule="evenodd" style="fill: #DB3F29; stroke: #fff; opacity: 1;" id="p-type-functions"></path><path d="M129.22071294513694,111.39460196055515A170.6070045455344,170.6070045455344,0,0,1,-157.35403484513358,65.9276703513516L-128.47903144623382,53.82971743040879A139.30003589374985,139.30003589374985,0,0,0,105.50827030474746,90.95331163459824Z" fill-rule="evenodd" style="fill: #414552; stroke: #fff; opacity: 1;" id="p-type-ether"></path><path d="M-157.35403484513358,65.9276703513516A170.6070045455344,170.6070045455344,0,0,1,-167.45715296726766,-32.63206889084898L-136.72819284966525,-26.6439726779762A139.30003589374985,139.30003589374985,0,0,0,-128.47903144623382,53.82971743040879Z" fill-rule="evenodd" style="fill: #1DC690; stroke: #fff; opacity: 1;" id="p-type-logs"></path><path d="M-167.45715296726766,-32.63206889084898A170.6070045455344,170.6070045455344,0,0,1,-146.35989734248753,-87.66715719068638L-119.50235576507403,-71.57993410584893A139.30003589374985,139.30003589374985,0,0,0,-136.72819284966525,-26.6439726779762Z" fill-rule="evenodd" style="fill: #D7A449; stroke: #fff; opacity: 1;" id="p-type-tokenTransfers"></path><path d="M-72.96303039575062,-154.21785303741188A170.6070045455344,170.6070045455344,0,0,1,-32.9995254785712,-167.38512872471418L-26.943999725490762,-136.66938530187642A139.30003589374985,139.30003589374985,0,0,0,-59.57406485225613,-125.91834972306131Z" fill-rule="evenodd" style="fill: #414552; stroke: #fff; opacity: 1;" id="p-type-ether"></path><path d="M-32.9995254785712,-167.38512872471418A170.6070045455344,170.6070045455344,0,0,1,-3.589879585926857,-170.5692315881107L-2.9311244078515193,-139.26919440316186A139.30003589374985,139.30003589374985,0,0,0,-26.943999725490762,-136.66938530187642Z" fill-rule="evenodd" style="fill: #D7A449; stroke: #fff; opacity: 1;" id="p-type-tokenTransfers"></path><path d="M1.206277097160143e-14,-197A197,197,0,0,1,139.81835245924913,-138.77978352620812L121.08624514499617,-120.18681806540138A170.6070045455344,170.6070045455344,0,0,0,1.0446666101440332e-14,-170.6070045455344Z" fill-rule="evenodd" style="fill: #DB3F29; stroke: #fff; opacity: 1;" id="p-type-functions"></path><path d="M139.81835245924913,-138.77978352620812A197,197,0,0,1,191.07120157053623,-47.96661266330483L165.4725144917015,-41.540305099910334A170.6070045455344,170.6070045455344,0,0,0,121.08624514499617,-120.18681806540138Z" fill-rule="evenodd" style="fill: #DB3F29; stroke: #fff; opacity: 1;" id="p-type-functions"></path><path d="M191.07120157053623,-47.96661266330483A197,197,0,0,1,193.5682971664995,-36.610303632471265L167.63506271348393,-31.705452985981825A170.6070045455344,170.6070045455344,0,0,0,165.4725144917015,-41.540305099910334Z" fill-rule="evenodd" style="fill: #DB3F29; stroke: #fff; opacity: 1;" id="p-type-functions"></path><path d="M193.5682971664995,-36.610303632471265A197,197,0,0,1,194.57827091339192,-30.79442300733475L168.50972563544812,-26.668752619235885A170.6070045455344,170.6070045455344,0,0,0,167.63506271348393,-31.705452985981825Z" fill-rule="evenodd" style="fill: #DB3F29; stroke: #fff; opacity: 1;" id="p-type-functions"></path><path d="M194.57827091339192,-30.79442300733475A197,197,0,0,1,195.2389004577387,-26.282536940965226L169.08184760334296,-22.761344666778836A170.6070045455344,170.6070045455344,0,0,0,168.50972563544812,-26.668752619235885Z" fill-rule="evenodd" style="fill: #DB3F29; stroke: #fff; opacity: 1;" id="p-type-functions"></path><path d="M195.2389004577387,-26.282536940965226A197,197,0,0,1,195.60915090066473,-23.367928532948095L169.40249389267936,-20.237219743352277A170.6070045455344,170.6070045455344,0,0,0,169.08184760334296,-22.761344666778836Z" fill-rule="evenodd" style="fill: #DB3F29; stroke: #fff; opacity: 1;" id="p-type-functions"></path><path d="M195.60915090066473,-23.367928532948095A197,197,0,0,1,195.89956159793988,-20.793310600646446L169.6539969340504,-18.007535208940087A170.6070045455344,170.6070045455344,0,0,0,169.40249389267936,-20.237219743352277Z" fill-rule="evenodd" style="fill: #DB3F29; stroke: #fff; opacity: 1;" id="p-type-functions"></path><path d="M195.89956159793988,-20.793310600646446A197,197,0,0,1,196.0835633019922,-18.97988943048994L169.81334708409932,-16.437066407824048A170.6070045455344,170.6070045455344,0,0,0,169.6539969340504,-18.007535208940087Z" fill-rule="evenodd" style="fill: #DB3F29; stroke: #fff; opacity: 1;" id="p-type-functions"></path><path d="M196.0835633019922,-18.97988943048994A197,197,0,0,1,196.2369039452252,-17.322746029208265L169.94614397657176,-15.001938124600368A170.6070045455344,170.6070045455344,0,0,0,169.81334708409932,-16.437066407824048Z" fill-rule="evenodd" style="fill: #DB3F29; stroke: #fff; opacity: 1;" id="p-type-functions"></path><path d="M196.2369039452252,-17.322746029208265A197,197,0,0,1,196.32532015549617,-16.290140141874932L170.02271466077275,-14.10767519407233A170.6070045455344,170.6070045455344,0,0,0,169.94614397657176,-15.001938124600368Z" fill-rule="evenodd" style="fill: #DB3F29; stroke: #fff; opacity: 1;" id="p-type-functions"></path><path d="M196.32532015549617,-16.290140141874932A197,197,0,0,1,196.40830279305288,-15.257083402553091L170.0945797329699,-13.213021814268897A170.6070045455344,170.6070045455344,0,0,0,170.02271466077275,-14.10767519407233Z" fill-rule="evenodd" style="fill: #DB3F29; stroke: #fff; opacity: 1;" id="p-type-functions"></path><path d="M196.40830279305288,-15.257083402553091A197,197,0,0,1,196.48584956123688,-14.223604402505993L170.16173720419863,-12.318002745950372A170.6070045455344,170.6070045455344,0,0,0,170.0945797329699,-13.213021814268897Z" fill-rule="evenodd" style="fill: #DB3F29; stroke: #fff; opacity: 1;" id="p-type-functions"></path><path d="M196.48584956123688,-14.223604402505993A197,197,0,0,1,196.55795831383497,-13.18973174468353L170.2241852157838,-11.422642759997983A170.6070045455344,170.6070045455344,0,0,0,170.16173720419863,-12.318002745950372Z" fill-rule="evenodd" style="fill: #DB3F29; stroke: #fff; opacity: 1;" id="p-type-functions"></path><path d="M196.55795831383497,-13.18973174468353A197,197,0,0,1,196.62462705513843,-12.155494042930615L170.2819220393909,-10.526966636728323A170.6070045455344,170.6070045455344,0,0,0,170.2241852157838,-11.422642759997983Z" fill-rule="evenodd" style="fill: #DB3F29; stroke: #fff; opacity: 1;" id="p-type-functions"></path><path d="M196.62462705513843,-12.155494042930615A197,197,0,0,1,196.68585393999834,-11.120919921195256L170.33494607707416,-9.630999165207529A170.6070045455344,170.6070045455344,0,0,0,170.2819220393909,-10.526966636728323Z" fill-rule="evenodd" style="fill: #DB3F29; stroke: #fff; opacity: 1;" id="p-type-functions"></path><path d="M196.68585393999834,-11.120919921195256A197,197,0,0,1,196.74163727387662,-10.086038012736344L170.38325586132058,-8.73476514256519A170.6070045455344,170.6070045455344,0,0,0,170.33494607707416,-9.630999165207529Z" fill-rule="evenodd" style="fill: #DB3F29; stroke: #fff; opacity: 1;" id="p-type-functions"></path><path d="M196.74163727387662,-10.086038012736344A197,197,0,0,1,196.79197551289292,-9.050876959331186L170.42685005509045,-7.838289373308062A170.6070045455344,170.6070045455344,0,0,0,170.38325586132058,-8.73476514256519Z" fill-rule="evenodd" style="fill: #DB3F29; stroke: #fff; opacity: 1;" id="p-type-functions"></path><path d="M196.79197551289292,-9.050876959331186A197,197,0,0,1,196.8368672638674,-8.015465410482815L170.4657274518547,-6.941596668633581A170.6070045455344,170.6070045455344,0,0,0,170.42685005509045,-7.838289373308062Z" fill-rule="evenodd" style="fill: #DB3F29; stroke: #fff; opacity: 1;" id="p-type-functions"></path><path d="M196.8368672638674,-8.015465410482815A197,197,0,0,1,196.87631128435922,-6.979832022627065L170.49988697562802,-6.044711845743159A170.6070045455344,170.6070045455344,0,0,0,170.4657274518547,-6.941596668633581Z" fill-rule="evenodd" style="fill: #DB3F29; stroke: #fff; opacity: 1;" id="p-type-functions"></path><path d="M196.87631128435922,-6.979832022627065A197,197,0,0,1,196.91030648270097,-5.944005458339471L170.52932768099868,-5.1476597271553475A170.6070045455344,170.6070045455344,0,0,0,170.49988697562802,-6.044711845743159Z" fill-rule="evenodd" style="fill: #DB3F29; stroke: #fff; opacity: 1;" id="p-type-functions"></path><path d="M196.91030648270097,-5.944005458339471A197,197,0,0,1,196.9388519180289,-4.908014385541989L170.55404875315475,-4.250465140018834A170.6070045455344,170.6070045455344,0,0,0,170.52932768099868,-5.1476597271553475Z" fill-rule="evenodd" style="fill: #DB3F29; stroke: #fff; opacity: 1;" id="p-type-functions"></path><path d="M196.9388519180289,-4.908014385541989A197,197,0,0,1,196.96194680030885,-3.8718874767095754L170.5740495079066,-3.3531529154253215A170.6070045455344,170.6070045455344,0,0,0,170.55404875315475,-4.250465140018834Z" fill-rule="evenodd" style="fill: #DB3F29; stroke: #fff; opacity: 1;" id="p-type-functions"></path><path d="M196.96194680030885,-3.8718874767095754A197,197,0,0,1,196.97959049035833,-2.835653408076636L170.58932939170595,-2.4557478877222882A170.6070045455344,170.6070045455344,0,0,0,170.5740495079066,-3.3531529154253215Z" fill-rule="evenodd" style="fill: #DB3F29; stroke: #fff; opacity: 1;" id="p-type-functions"></path><path d="M196.97959049035833,-2.835653408076636A197,197,0,0,1,196.99178249986392,-1.799340858843369L170.59988798166097,-1.5582748938256672A170.6070045455344,170.6070045455344,0,0,0,170.58932939170595,-2.4557478877222882Z" fill-rule="evenodd" style="fill: #DB3F29; stroke: #fff; opacity: 1;" id="p-type-functions"></path><path d="M196.99178249986392,-1.799340858843369A197,197,0,0,1,196.99852249139508,-0.762978510382032L170.60572498554825,-0.6607587725324489A170.6070045455344,170.6070045455344,0,0,0,170.59988798166097,-1.5582748938256672Z" fill-rule="evenodd" style="fill: #DB3F29; stroke: #fff; opacity: 1;" id="p-type-functions"></path><path d="M196.99852249139508,-0.762978510382032A197,197,0,0,1,196.99981027841326,0.27340495455685493L170.60684024182066,0.23677563616676636A170.6070045455344,170.6070045455344,0,0,0,170.60572498554825,-0.6607587725324489Z" fill-rule="evenodd" style="fill: #DB3F29; stroke: #fff; opacity: 1;" id="p-type-functions"></path><path d="M196.99981027841326,0.27340495455685493A197,197,0,0,1,196.99564582527722,1.309780852638345L170.60323371961198,1.134303491775249A170.6070045455344,170.6070045455344,0,0,0,170.60684024182066,0.23677563616676636Z" fill-rule="evenodd" style="fill: #DB3F29; stroke: #fff; opacity: 1;" id="p-type-functions"></path><path d="M196.99564582527722,1.309780852638345A197,197,0,0,1,196.9860292472439,2.346120500736914L170.59490551873762,2.031799953977635A170.6070045455344,170.6070045455344,0,0,0,170.60323371961198,1.134303491775249Z" fill-rule="evenodd" style="fill: #DB3F29; stroke: #fff; opacity: 1;" id="p-type-functions"></path><path d="M196.9860292472439,2.346120500736914A197,197,0,0,1,196.97096081046527,3.3823952167303064L170.58185586969202,2.9292401833274173A170.6070045455344,170.6070045455344,0,0,0,170.59490551873762,2.031799953977635Z" fill-rule="evenodd" style="fill: #DB3F29; stroke: #fff; opacity: 1;" id="p-type-functions"></path><path d="M196.97096081046527,3.3823952167303064A197,197,0,0,1,196.95044093198103,4.418576320293352L170.5640851336421,3.8265993419344086A170.6070045455344,170.6070045455344,0,0,0,170.58185586969202,2.9292401833274173Z" fill-rule="evenodd" style="fill: #DB3F29; stroke: #fff; opacity: 1;" id="p-type-functions"></path><path d="M196.95044093198103,4.418576320293352A197,197,0,0,1,196.92447017970696,5.45463513369173L170.54159380241737,4.723852594152166A170.6070045455344,170.6070045455344,0,0,0,170.5640851336421,3.8265993419344086Z" fill-rule="evenodd" style="fill: #DB3F29; stroke: #fff; opacity: 1;" id="p-type-functions"></path><path d="M196.92447017970696,5.45463513369173A197,197,0,0,1,196.89304927241932,6.490542982575674L170.5143824984963,5.620975107265353A170.6070045455344,170.6070045455344,0,0,0,170.54159380241737,4.723852594152166Z" fill-rule="evenodd" style="fill: #DB3F29; stroke: #fff; opacity: 1;" id="p-type-functions"></path><path d="M196.89304927241932,6.490542982575674A197,197,0,0,1,196.8561790797348,7.5262711967735605L170.4824519749891,6.517942052177013A170.6070045455344,170.6070045455344,0,0,0,170.5143824984963,5.620975107265353Z" fill-rule="evenodd" style="fill: #DB3F29; stroke: #fff; opacity: 1;" id="p-type-functions"></path><path d="M196.8561790797348,7.5262711967735605A197,197,0,0,1,196.81386062208662,8.561791111085409L170.4458031156168,7.4147286040957585A170.6070045455344,170.6070045455344,0,0,0,170.4824519749891,6.517942052177013Z" fill-rule="evenodd" style="fill: #DB3F29; stroke: #fff; opacity: 1;" id="p-type-functions"></path><path d="M196.81386062208662,8.561791111085409A197,197,0,0,1,196.76609507069617,9.597074066076217L170.40443693468688,8.31130994322282A170.6070045455344,170.6070045455344,0,0,0,170.4458031156168,7.4147286040957585Z" fill-rule="evenodd" style="fill: #DB3F29; stroke: #fff; opacity: 1;" id="p-type-functions"></path><path d="M196.76609507069617,9.597074066076217A197,197,0,0,1,196.71288374754067,10.632091408869167L170.35835457706526,9.207661255438982A170.6070045455344,170.6070045455344,0,0,0,170.40443693468688,8.31130994322282Z" fill-rule="evenodd" style="fill: #DB3F29; stroke: #fff; opacity: 1;" id="p-type-functions"></path><path d="M196.71288374754067,10.632091408869167A197,197,0,0,1,196.6542281253165,11.666814493938615L170.30755731814432,10.10375773299133A170.6070045455344,170.6070045455344,0,0,0,170.35835457706526,9.207661255438982Z" fill-rule="evenodd" style="fill: #DB3F29; stroke: #fff; opacity: 1;" id="p-type-functions"></path><path d="M196.6542281253165,11.666814493938615A197,197,0,0,1,196.59012982739853,12.701214683902903L170.25204656380802,10.999574575179853A170.6070045455344,170.6070045455344,0,0,0,170.30755731814432,10.10375773299133Z" fill-rule="evenodd" style="fill: #DB3F29; stroke: #fff; opacity: 1;" id="p-type-functions"></path><path d="M196.59012982739853,12.701214683902903A197,197,0,0,1,196.52059062779514,13.735263350316943L170.19182385039264,11.89508698904383A170.6070045455344,170.6070045455344,0,0,0,170.25204656380802,10.999574575179853Z" fill-rule="evenodd" style="fill: #DB3F29; stroke: #fff; opacity: 1;" id="p-type-functions"></path><path d="M196.52059062779514,13.735263350316943A197,197,0,0,1,196.44561245109912,14.768931874464545L170.12689084464446,12.790270190048023A170.6070045455344,170.6070045455344,0,0,0,170.19182385039264,11.89508698904383Z" fill-rule="evenodd" style="fill: #DB3F29; stroke: #fff; opacity: 1;" id="p-type-functions"></path><path d="M196.44561245109912,14.768931874464545A197,197,0,0,1,196.3651973724344,15.802191648150469L170.0572493436735,13.685099402768595A170.6070045455344,170.6070045455344,0,0,0,170.12689084464446,12.790270190048023Z" fill-rule="evenodd" style="fill: #DB3F29; stroke: #fff; opacity: 1;" id="p-type-functions"></path><path d="M196.3651973724344,15.802191648150469A197,197,0,0,1,196.2793476173987,16.835014074492214L169.98290127490392,14.579549861578826A170.6070045455344,170.6070045455344,0,0,0,170.0572493436735,13.685099402768595Z" fill-rule="evenodd" style="fill: #DB3F29; stroke: #fff; opacity: 1;" id="p-type-functions"></path><path d="M196.2793476173987,16.835014074492214A197,197,0,0,1,196.18806556200187,17.867370568711465L169.9038486960206,15.473596811334541A170.6070045455344,170.6070045455344,0,0,0,169.98290127490392,14.579549861578826Z" fill-rule="evenodd" style="fill: #DB3F29; stroke: #fff; opacity: 1;" id="p-type-functions"></path><path d="M196.18806556200187,17.867370568711465A197,197,0,0,1,196.09135373260003,18.899232558925213L169.8200937949121,16.367215508059218A170.6070045455344,170.6070045455344,0,0,0,169.9038486960206,15.473596811334541Z" fill-rule="evenodd" style="fill: #DB3F29; stroke: #fff; opacity: 1;" id="p-type-functions"></path><path d="M196.09135373260003,18.899232558925213A197,197,0,0,1,195.98921480582578,19.930571486936536L169.73163888961034,17.260381219628833A170.6070045455344,170.6070045455344,0,0,0,169.8200937949121,16.367215508059218Z" fill-rule="evenodd" style="fill: #DB3F29; stroke: #fff; opacity: 1;" id="p-type-functions"></path><path d="M195.98921480582578,19.930571486936536A197,197,0,0,1,195.88165160851415,20.96135880902497L169.63848642822617,18.15306922645635A170.6070045455344,170.6070045455344,0,0,0,169.73163888961034,17.260381219628833Z" fill-rule="evenodd" style="fill: #DB3F29; stroke: #fff; opacity: 1;" id="p-type-functions"></path><path d="M195.88165160851415,20.96135880902497A197,197,0,0,1,195.76866711762426,21.991565996736497L169.5406389888819,19.045254822175853A170.6070045455344,170.6070045455344,0,0,0,169.63848642822617,18.15306922645635Z" fill-rule="evenodd" style="fill: #DB3F29; stroke: #fff; opacity: 1;" id="p-type-functions"></path><path d="M195.76866711762426,21.991565996736497A197,197,0,0,1,195.65026446015702,23.021164537673123L169.4380992796397,19.936913314326365A170.6070045455344,170.6070045455344,0,0,0,169.5406389888819,19.045254822175853Z" fill-rule="evenodd" style="fill: #DB3F29; stroke: #fff; opacity: 1;" id="p-type-functions"></path><path d="M195.65026446015702,23.021164537673123A197,197,0,0,1,195.52644691306847,24.050125936281987L169.33087013842672,20.828020025035208A170.6070045455344,170.6070045455344,0,0,0,169.4380992796397,19.936913314326365Z" fill-rule="evenodd" style="fill: #DB3F29; stroke: #fff; opacity: 1;" id="p-type-functions"></path><path d="M195.52644691306847,24.050125936281987A197,197,0,0,1,195.39721790317913,25.078421714644016L169.21895453295664,21.718550291701018A170.6070045455344,170.6070045455344,0,0,0,169.33087013842672,20.828020025035208Z" fill-rule="evenodd" style="fill: #DB3F29; stroke: #fff; opacity: 1;" id="p-type-functions"></path><path d="M195.39721790317913,25.078421714644016A197,197,0,0,1,195.26258100707932,26.10602341326208L169.10235556064754,22.6084794676763A170.6070045455344,170.6070045455344,0,0,0,169.21895453295664,21.718550291701018Z" fill-rule="evenodd" style="fill: #DB3F29; stroke: #fff; opacity: 1;" id="p-type-functions"></path><path d="M195.26258100707932,26.10602341326208A197,197,0,0,1,195.1225399510299,27.132902591848683L168.9810764485359,23.497782922949597A170.6070045455344,170.6070045455344,0,0,0,169.10235556064754,22.6084794676763Z" fill-rule="evenodd" style="fill: #DB3F29; stroke: #fff; opacity: 1;" id="p-type-functions"></path><path d="M195.1225399510299,27.132902591848683A197,197,0,0,1,194.9770986108593,28.159030830113043L168.8551205531877,24.386436044827104A170.6070045455344,170.6070045455344,0,0,0,168.9810764485359,23.497782922949597Z" fill-rule="evenodd" style="fill: #DB3F29; stroke: #fff; opacity: 1;" id="p-type-functions"></path><path d="M194.9770986108593,28.159030830113043A197,197,0,0,1,194.82626101185625,29.184379728547686L168.72449136060524,25.274414238613897A170.6070045455344,170.6070045455344,0,0,0,168.8551205531877,24.386436044827104Z" fill-rule="evenodd" style="fill: #DB3F29; stroke: #fff; opacity: 1;" id="p-type-functions"></path><path d="M194.82626101185625,29.184379728547686A197,197,0,0,1,194.67003132865835,30.20892090921444L168.58919248613066,26.161692928294606A170.6070045455344,170.6070045455344,0,0,0,168.72449136060524,25.274414238613897Z" fill-rule="evenodd" style="fill: #DB3F29; stroke: #fff; opacity: 1;" id="p-type-functions"></path><path d="M194.67003132865835,30.20892090921444A197,197,0,0,1,194.50841388513655,31.23262601652983L168.4492276743461,27.04824755721361A170.6070045455344,170.6070045455344,0,0,0,168.58919248613066,26.161692928294606Z" fill-rule="evenodd" style="fill: #DB3F29; stroke: #fff; opacity: 1;" id="p-type-functions"></path><path d="M194.50841388513655,31.23262601652983A197,197,0,0,1,194.34141315427541,32.25546671804986L168.3046007989698,27.93405358875465A170.6070045455344,170.6070045455344,0,0,0,168.4492276743461,27.04824755721361Z" fill-rule="evenodd" style="fill: #DB3F29; stroke: #fff; opacity: 1;" id="p-type-functions"></path><path d="M194.34141315427541,32.25546671804986A197,197,0,0,1,194.1690337580494,33.27741470525415L168.15531586274903,28.81908650701994A170.6070045455344,170.6070045455344,0,0,0,168.3046007989698,27.93405358875465Z" fill-rule="evenodd" style="fill: #DB3F29; stroke: #fff; opacity: 1;" id="p-type-functions"></path><path d="M194.1690337580494,33.27741470525415A197,197,0,0,1,193.99128046729493,34.298441694329405L168.00137699734938,29.703321817508648A170.6070045455344,170.6070045455344,0,0,0,168.15531586274903,28.81908650701994Z" fill-rule="evenodd" style="fill: #DB3F29; stroke: #fff; opacity: 1;" id="p-type-functions"></path><path d="M193.99128046729493,34.298441694329405A197,197,0,0,1,193.8081582015783,35.318519426952236L167.8427884632402,30.586735047794853A170.6070045455344,170.6070045455344,0,0,0,168.00137699734938,29.703321817508648Z" fill-rule="evenodd" style="fill: #DB3F29; stroke: #fff; opacity: 1;" id="p-type-functions"></path><path d="M193.8081582015783,35.318519426952236A197,197,0,0,1,193.61967202905953,36.33761967107122L167.67955464957686,31.46930174820481A170.6070045455344,170.6070045455344,0,0,0,167.8427884632402,30.586735047794853Z" fill-rule="evenodd" style="fill: #DB3F29; stroke: #fff; opacity: 1;" id="p-type-functions"></path><path d="M193.61967202905953,36.33761967107122A197,197,0,0,1,193.4258271663522,37.35571422168826L167.5116800740792,32.350997492493676A170.6070045455344,170.6070045455344,0,0,0,167.67955464957686,31.46930174820481Z" fill-rule="evenodd" style="fill: #DB3F29; stroke: #fff; opacity: 1;" id="p-type-functions"></path><path d="M193.4258271663522,37.35571422168826A197,197,0,0,1,193.22662897837898,38.37277490163923L167.33916938290656,33.23179787852148A170.6070045455344,170.6070045455344,0,0,0,167.5116800740792,32.350997492493676Z" fill-rule="evenodd" style="fill: #DB3F29; stroke: #fff; opacity: 1;" id="p-type-functions"></path><path d="M193.22662897837898,38.37277490163923A197,197,0,0,1,193.0220829782231,39.388773562373764L167.1620273505291,34.11167852892856A170.6070045455344,170.6070045455344,0,0,0,167.33916938290656,33.23179787852148Z" fill-rule="evenodd" style="fill: #DB3F29; stroke: #fff; opacity: 1;" id="p-type-functions"></path><path d="M193.0220829782231,39.388773562373764A197,197,0,0,1,192.8121948269759,40.40368208473436L166.98025887959565,34.99061509181016A170.6070045455344,170.6070045455344,0,0,0,167.1620273505291,34.11167852892856Z" fill-rule="evenodd" style="fill: #DB3F29; stroke: #fff; opacity: 1;" id="p-type-functions"></path><path d="M192.8121948269759,40.40368208473436A197,197,0,0,1,192.5969703335801,41.41747237973458L166.79386900079822,35.86858324139048A170.6070045455344,170.6070045455344,0,0,0,166.98025887959565,34.99061509181016Z" fill-rule="evenodd" style="fill: #DB3F29; stroke: #fff; opacity: 1;" id="p-type-functions"></path><path d="M192.5969703335801,41.41747237973458A197,197,0,0,1,192.37641545466886,42.430116389336476L166.60286287273252,36.74555867869585A170.6070045455344,170.6070045455344,0,0,0,166.79386900079822,35.86858324139048Z" fill-rule="evenodd" style="fill: #DB3F29; stroke: #fff; opacity: 1;" id="p-type-functions"></path><path d="M192.37641545466886,42.430116389336476A197,197,0,0,1,192.15053629440132,43.44158608722711L166.4072457817553,37.62151713222731A170.6070045455344,170.6070045455344,0,0,0,166.60286287273252,36.74555867869585Z" fill-rule="evenodd" style="fill: #DB3F29; stroke: #fff; opacity: 1;" id="p-type-functions"></path><path d="M192.15053629440132,43.44158608722711A197,197,0,0,1,191.91933910429321,44.45185347959423L166.20702314183814,38.49643435863229A170.6070045455344,170.6070045455344,0,0,0,166.4072457817553,37.62151713222731Z" fill-rule="evenodd" style="fill: #DB3F29; stroke: #fff; opacity: 1;" id="p-type-functions"></path><path d="M191.91933910429321,44.45185347959423A197,197,0,0,1,191.68283028304413,45.460890605901035L166.0022004944173,39.37028614337564A170.6070045455344,170.6070045455344,0,0,0,166.20702314183814,38.49643435863229Z" fill-rule="evenodd" style="fill: #DB3F29; stroke: #fff; opacity: 1;" id="p-type-functions"></path><path d="M191.68283028304413,45.460890605901035A197,197,0,0,1,191.44101637636035,46.468669539660056L165.7927835082408,40.24304830140974A170.6070045455344,170.6070045455344,0,0,0,166.0022004944173,39.37028614337564Z" fill-rule="evenodd" style="fill: #DB3F29; stroke: #fff; opacity: 1;" id="p-type-functions"></path><path d="M191.44101637636035,46.468669539660056A197,197,0,0,1,191.19390407677363,47.475162389206L165.5787779792111,41.11469667784392A170.6070045455344,170.6070045455344,0,0,0,165.7927835082408,40.24304830140974Z" fill-rule="evenodd" style="fill: #DB3F29; stroke: #fff; opacity: 1;" id="p-type-functions"></path><path d="M191.19390407677363,47.475162389206A197,197,0,0,1,190.9415002234561,48.48034129846772L165.36018983022504,41.9852071486129A170.6070045455344,170.6070045455344,0,0,0,165.5787779792111,41.11469667784392Z" fill-rule="evenodd" style="fill: #DB3F29; stroke: #fff; opacity: 1;" id="p-type-functions"></path><path d="M190.9415002234561,48.48034129846772A197,197,0,0,1,190.68381180203082,49.4841784477392L165.13702511100962,42.85455562114455A170.6070045455344,170.6070045455344,0,0,0,165.36018983022504,41.9852071486129Z" fill-rule="evenodd" style="fill: #DB3F29; stroke: #fff; opacity: 1;" id="p-type-functions"></path><path d="M149.21122680750034,128.62740685639545A197,197,0,0,1,13.82248552415284,196.5144750239396L11.970623607359022,170.18652758209427A170.6070045455344,170.6070045455344,0,0,0,129.22071294513694,111.39460196055515Z" fill-rule="evenodd" style="fill: #414552; stroke: #fff; opacity: 1;" id="p-type-ether"></path><path d="M13.82248552415284,196.5144750239396A197,197,0,0,1,-88.42556376478076,176.03954008370022L-76.57878456426089,152.45471378301335A170.6070045455344,170.6070045455344,0,0,0,11.970623607359022,170.18652758209427Z" fill-rule="evenodd" style="fill: #414552; stroke: #fff; opacity: 1;" id="p-type-ether"></path><path d="M-88.42556376478076,176.03954008370022A197,197,0,0,1,-103.29194145236083,167.74914256413373L-89.45344530395938,145.27501892359726A170.6070045455344,170.6070045455344,0,0,0,-76.57878456426089,152.45471378301335Z" fill-rule="evenodd" style="fill: #414552; stroke: #fff; opacity: 1;" id="p-type-ether"></path><path d="M-103.29194145236083,167.74914256413373A197,197,0,0,1,-113.24554000082684,161.19692202371957L-98.07351450600285,139.6006294844004A170.6070045455344,170.6070045455344,0,0,0,-89.45344530395938,145.27501892359726Z" fill-rule="evenodd" style="fill: #414552; stroke: #fff; opacity: 1;" id="p-type-ether"></path><path d="M-113.24554000082684,161.19692202371957A197,197,0,0,1,-122.55852372665099,154.23491259096923L-106.13879499759763,133.57135245425172A170.6070045455344,170.6070045455344,0,0,0,-98.07351450600285,139.6006294844004Z" fill-rule="evenodd" style="fill: #414552; stroke: #fff; opacity: 1;" id="p-type-ether"></path><path d="M-122.55852372665099,154.23491259096923A197,197,0,0,1,-131.27384217531053,146.88831934681417L-113.68648217620797,127.2090160735423A170.6070045455344,170.6070045455344,0,0,0,-106.13879499759763,133.57135245425172Z" fill-rule="evenodd" style="fill: #414552; stroke: #fff; opacity: 1;" id="p-type-ether"></path><path d="M-131.27384217531053,146.88831934681417A197,197,0,0,1,-137.86867613335335,140.71683673688992L-119.39777591761333,121.86435535433401A170.6070045455344,170.6070045455344,0,0,0,-113.68648217620797,127.2090160735423Z" fill-rule="evenodd" style="fill: #414552; stroke: #fff; opacity: 1;" id="p-type-ether"></path><path d="M-137.86867613335335,140.71683673688992A197,197,0,0,1,-142.02276134157802,136.52302099248013L-122.99531923742106,118.232404380884A170.6070045455344,170.6070045455344,0,0,0,-119.39777591761333,121.86435535433401Z" fill-rule="evenodd" style="fill: #414552; stroke: #fff; opacity: 1;" id="p-type-ether"></path><path d="M-142.02276134157802,136.52302099248013A197,197,0,0,1,-145.199967685189,133.1389101060245L-125.74686064405324,115.30167838398994A170.6070045455344,170.6070045455344,0,0,0,-122.99531923742106,118.232404380884Z" fill-rule="evenodd" style="fill: #414552; stroke: #fff; opacity: 1;" id="p-type-ether"></path><path d="M-145.199967685189,133.1389101060245A197,197,0,0,1,-148.24265295016957,129.74249822743352L-128.381903379247,112.36029941541491A170.6070045455344,170.6070045455344,0,0,0,-125.74686064405324,115.30167838398994Z" fill-rule="evenodd" style="fill: #414552; stroke: #fff; opacity: 1;" id="p-type-ether"></path><path d="M-148.24265295016957,129.74249822743352A197,197,0,0,1,-150.1610748326641,127.51726002819795L-130.04330546466323,110.43318660540538A170.6070045455344,170.6070045455344,0,0,0,-128.381903379247,112.36029941541491Z" fill-rule="evenodd" style="fill: #414552; stroke: #fff; opacity: 1;" id="p-type-ether"></path><path d="M-150.1610748326641,127.51726002819795A197,197,0,0,1,-151.82515913232706,125.53135486580062L-131.48444474221017,108.71334228526264A170.6070045455344,170.6070045455344,0,0,0,-130.04330546466323,110.43318660540538Z" fill-rule="evenodd" style="fill: #414552; stroke: #fff; opacity: 1;" id="p-type-ether"></path><path d="M-151.82515913232706,125.53135486580062A197,197,0,0,1,-152.9801203437922,124.1212422577169L-132.48467049172467,107.4921489444654A170.6070045455344,170.6070045455344,0,0,0,-131.48444474221017,108.71334228526264Z" fill-rule="evenodd" style="fill: #414552; stroke: #fff; opacity: 1;" id="p-type-ether"></path><path d="M-152.9801203437922,124.1212422577169A197,197,0,0,1,-154.02320756237208,122.8244744837056L-133.38801052137768,106.36911510936262A170.6070045455344,170.6070045455344,0,0,0,-132.48467049172467,107.4921489444654Z" fill-rule="evenodd" style="fill: #414552; stroke: #fff; opacity: 1;" id="p-type-ether"></path><path d="M-154.02320756237208,122.8244744837056A197,197,0,0,1,-154.7304639496658,121.93229074335142L-134.00051251976285,105.59646132537247A170.6070045455344,170.6070045455344,0,0,0,-133.38801052137768,106.36911510936262Z" fill-rule="evenodd" style="fill: #414552; stroke: #fff; opacity: 1;" id="p-type-ether"></path><path d="M-181.69678875182325,76.1267164487955A197,197,0,0,1,-182.094763017753,75.16978968647165L-157.69869066948118,65.09894746561793A170.6070045455344,170.6070045455344,0,0,0,-157.35403484513358,65.9276703513516Z" fill-rule="evenodd" style="fill: #1DC690; stroke: #fff; opacity: 1;" id="p-type-logs"></path><path d="M-182.094763017753,75.16978968647165A197,197,0,0,1,-182.4876975611703,74.21078249703905L-158.038981966105,64.26842287715739A170.6070045455344,170.6070045455344,0,0,0,-157.69869066948118,65.09894746561793Z" fill-rule="evenodd" style="fill: #1DC690; stroke: #fff; opacity: 1;" id="p-type-logs"></path><path d="M-182.4876975611703,74.21078249703905A197,197,0,0,1,-182.87558150707235,73.24972142233807L-158.37489931697635,63.436119571877974A170.6070045455344,170.6070045455344,0,0,0,-158.038981966105,64.26842287715739Z" fill-rule="evenodd" style="fill: #1DC690; stroke: #fff; opacity: 1;" id="p-type-logs"></path><path d="M-182.87558150707235,73.24972142233807A197,197,0,0,1,-183.25840412023854,72.28663306105311L-158.70643342512142,62.60206058491607A170.6070045455344,170.6070045455344,0,0,0,-158.37489931697635,63.436119571877974Z" fill-rule="evenodd" style="fill: #1DC690; stroke: #fff; opacity: 1;" id="p-type-logs"></path><path d="M-183.25840412023854,72.28663306105311A197,197,0,0,1,-183.63615480552758,71.32154406797649L-159.0335751148787,61.76626899999898A170.6070045455344,170.6070045455344,0,0,0,-158.70643342512142,62.60206058491607Z" fill-rule="evenodd" style="fill: #1DC690; stroke: #fff; opacity: 1;" id="p-type-logs"></path><path d="M-183.63615480552758,71.32154406797649A197,197,0,0,1,-184.0088231081707,70.35448115327083L-159.3563153321529,60.92876794880604A170.6070045455344,170.6070045455344,0,0,0,-159.0335751148787,61.76626899999898Z" fill-rule="evenodd" style="fill: #1DC690; stroke: #fff; opacity: 1;" id="p-type-logs"></path><path d="M-184.0088231081707,70.35448115327083A197,197,0,0,1,-184.3763987140612,69.38547108172965L-159.67464514466548,60.08958061032841A170.6070045455344,170.6070045455344,0,0,0,-159.3563153321529,60.92876794880604Z" fill-rule="evenodd" style="fill: #1DC690; stroke: #fff; opacity: 1;" id="p-type-logs"></path><path d="M-184.3763987140612,69.38547108172965A197,197,0,0,1,-184.7388714500395,68.4145406720368L-159.98855574220198,59.24873021022756A170.6070045455344,170.6070045455344,0,0,0,-159.67464514466548,60.08958061032841Z" fill-rule="evenodd" style="fill: #1DC690; stroke: #fff; opacity: 1;" id="p-type-logs"></path><path d="M-184.7388714500395,68.4145406720368A197,197,0,0,1,-185.09623128417522,67.44171679602405L-160.29803843685568,58.40624002019249A170.6070045455344,170.6070045455344,0,0,0,-159.98855574220198,59.24873021022756Z" fill-rule="evenodd" style="fill: #1DC690; stroke: #fff; opacity: 1;" id="p-type-logs"></path><path d="M-185.09623128417522,67.44171679602405A197,197,0,0,1,-185.44846832604438,66.46702637792751L-160.60308466326825,57.56213335729561A170.6070045455344,170.6070045455344,0,0,0,-160.29803843685568,58.40624002019249Z" fill-rule="evenodd" style="fill: #1DC690; stroke: #fff; opacity: 1;" id="p-type-logs"></path><path d="M-185.44846832604438,66.46702637792751A197,197,0,0,1,-185.79557282700338,65.49049639364235L-160.9036859788667,56.71643358334744A170.6070045455344,170.6070045455344,0,0,0,-160.60308466326825,57.56213335729561Z" fill-rule="evenodd" style="fill: #1DC690; stroke: #fff; opacity: 1;" id="p-type-logs"></path><path d="M-185.79557282700338,65.49049639364235A197,197,0,0,1,-186.1375351804587,64.5121538699763L-161.1998340640969,55.86916410425007A170.6070045455344,170.6070045455344,0,0,0,-160.9036859788667,56.71643358334744Z" fill-rule="evenodd" style="fill: #1DC690; stroke: #fff; opacity: 1;" id="p-type-logs"></path><path d="M-186.1375351804587,64.5121538699763A197,197,0,0,1,-186.47434592213284,63.53202588390159L-161.49152072265417,55.02034836934928A170.6070045455344,170.6070045455344,0,0,0,-161.1998340640969,55.86916410425007Z" fill-rule="evenodd" style="fill: #1DC690; stroke: #fff; opacity: 1;" id="p-type-logs"></path><path d="M-186.47434592213284,63.53202588390159A197,197,0,0,1,-186.8059957303262,62.550139561805565L-161.77873788170987,54.170009870785655A170.6070045455344,170.6070045455344,0,0,0,-161.49152072265417,55.02034836934928Z" fill-rule="evenodd" style="fill: #1DC690; stroke: #fff; opacity: 1;" id="p-type-logs"></path><path d="M-186.8059957303262,62.550139561805565A197,197,0,0,1,-187.1324754261751,61.56652207873994L-162.06147759213482,53.31817214284431A170.6070045455344,170.6070045455344,0,0,0,-161.77873788170987,54.170009870785655Z" fill-rule="evenodd" style="fill: #1DC690; stroke: #fff; opacity: 1;" id="p-type-logs"></path><path d="M-187.1324754261751,61.56652207873994A197,197,0,0,1,-187.45377597390583,60.58120065766868L-162.3397320287195,52.46485876130362A170.6070045455344,170.6070045455344,0,0,0,-162.06147759213482,53.31817214284431Z" fill-rule="evenodd" style="fill: #1DC690; stroke: #fff; opacity: 1;" id="p-type-logs"></path><path d="M-187.45377597390583,60.58120065766868A197,197,0,0,1,-187.76988848108476,59.59420256871459L-162.61349349039045,51.61009334278268A170.6070045455344,170.6070045455344,0,0,0,-162.3397320287195,52.46485876130362Z" fill-rule="evenodd" style="fill: #1DC690; stroke: #fff; opacity: 1;" id="p-type-logs"></path><path d="M-187.76988848108476,59.59420256871459A197,197,0,0,1,-188.0808041988643,58.60555512840456L-162.8827544004234,50.75389954408774A170.6070045455344,170.6070045455344,0,0,0,-162.61349349039045,51.61009334278268Z" fill-rule="evenodd" style="fill: #1DC690; stroke: #fff; opacity: 1;" id="p-type-logs"></path><path d="M-188.0808041988643,58.60555512840456A197,197,0,0,1,-188.3865145222252,57.61528569891351L-163.1475073066531,49.89630106155737A170.6070045455344,170.6070045455344,0,0,0,-162.8827544004234,50.75389954408774Z" fill-rule="evenodd" style="fill: #1DC690; stroke: #fff; opacity: 1;" id="p-type-logs"></path><path d="M-188.3865145222252,57.61528569891351A197,197,0,0,1,-188.68701099021467,56.62342168730717L-163.40774488167946,49.03732163040673A170.6070045455344,170.6070045455344,0,0,0,-163.1475073066531,49.89630106155737Z" fill-rule="evenodd" style="fill: #1DC690; stroke: #fff; opacity: 1;" id="p-type-logs"></path><path d="M-188.68701099021467,56.62342168730717A197,197,0,0,1,-188.98228528618046,55.6299905447835L-163.6634599230704,48.17698502407064A170.6070045455344,170.6070045455344,0,0,0,-163.40774488167946,49.03732163040673Z" fill-rule="evenodd" style="fill: #1DC690; stroke: #fff; opacity: 1;" id="p-type-logs"></path><path d="M-188.98228528618046,55.6299905447835A197,197,0,0,1,-189.27232923800113,54.63501976591299L-163.91464535356113,47.31531505354559A170.6070045455344,170.6070045455344,0,0,0,-163.6634599230704,48.17698502407064Z" fill-rule="evenodd" style="fill: #1DC690; stroke: #fff; opacity: 1;" id="p-type-logs"></path><path d="M-189.27232923800113,54.63501976591299A197,197,0,0,1,-189.5571348183122,53.638536887877635L-164.1612942212501,46.45233556673074A170.6070045455344,170.6070045455344,0,0,0,-163.91464535356113,47.31531505354559Z" fill-rule="evenodd" style="fill: #1DC690; stroke: #fff; opacity: 1;" id="p-type-logs"></path><path d="M-189.5571348183122,53.638536887877635A197,197,0,0,1,-189.8366941447283,52.64056948970888L-164.40339969979132,45.58807044776793A170.6070045455344,170.6070045455344,0,0,0,-164.1612942212501,46.45233556673074Z" fill-rule="evenodd" style="fill: #1DC690; stroke: #fff; opacity: 1;" id="p-type-logs"></path><path d="M-189.8366941447283,52.64056948970888A197,197,0,0,1,-190.1109994800614,51.64114519152429L-164.64095508858338,44.72254361638064A170.6070045455344,170.6070045455344,0,0,0,-164.40339969979132,45.58807044776793Z" fill-rule="evenodd" style="fill: #1DC690; stroke: #fff; opacity: 1;" id="p-type-logs"></path><path d="M-190.1109994800614,51.64114519152429A197,197,0,0,1,-190.38004323253477,50.640291653763136L-164.8739538129548,43.85577902721196A170.6070045455344,170.6070045455344,0,0,0,-164.64095508858338,44.72254361638064Z" fill-rule="evenodd" style="fill: #1DC690; stroke: #fff; opacity: 1;" id="p-type-logs"></path><path d="M-190.38004323253477,50.640291653763136A197,197,0,0,1,-190.64381795599328,49.63803657642087L-165.1023894243461,42.98780066916162A170.6070045455344,170.6070045455344,0,0,0,-164.8739538129548,43.85577902721196Z" fill-rule="evenodd" style="fill: #1DC690; stroke: #fff; opacity: 1;" id="p-type-logs"></path><path d="M-190.64381795599328,49.63803657642087A197,197,0,0,1,-190.9023163501094,48.63440769828248L-165.32625560048814,42.11863256472209A170.6070045455344,170.6070045455344,0,0,0,-165.1023894243461,42.98780066916162Z" fill-rule="evenodd" style="fill: #1DC690; stroke: #fff; opacity: 1;" id="p-type-logs"></path><path d="M-190.9023163501094,48.63440769828248A197,197,0,0,1,-191.15553126058524,47.62943279615473L-165.5455461455772,41.248298769313685A170.6070045455344,170.6070045455344,0,0,0,-165.32625560048814,42.11863256472209Z" fill-rule="evenodd" style="fill: #1DC690; stroke: #fff; opacity: 1;" id="p-type-logs"></path><path d="M-191.15553126058524,47.62943279615473A197,197,0,0,1,-191.4034556793506,46.62313968409751L-165.7602549904465,40.37682337061883A170.6070045455344,170.6070045455344,0,0,0,-165.5455461455772,41.248298769313685Z" fill-rule="evenodd" style="fill: #1DC690; stroke: #fff; opacity: 1;" id="p-type-logs"></path><path d="M-191.4034556793506,46.62313968409751A197,197,0,0,1,-191.6460827447569,45.61555621265394L-165.97037619273402,39.504230487915386A170.6070045455344,170.6070045455344,0,0,0,-165.7602549904465,40.37682337061883Z" fill-rule="evenodd" style="fill: #1DC690; stroke: #fff; opacity: 1;" id="p-type-logs"></path><path d="M-191.6460827447569,45.61555621265394A197,197,0,0,1,-191.88340574176706,44.6067102680796L-166.17590393704708,38.63054427140911A170.6070045455344,170.6070045455344,0,0,0,-165.97037619273402,39.504230487915386Z" fill-rule="evenodd" style="fill: #1DC690; stroke: #fff; opacity: 1;" id="p-type-logs"></path><path d="M-191.88340574176706,44.6067102680796A197,197,0,0,1,-192.11541810214135,43.59662977157079L-166.3768325351232,37.755788901565275A170.6070045455344,170.6070045455344,0,0,0,-166.17590393704708,38.63054427140911Z" fill-rule="evenodd" style="fill: #1DC690; stroke: #fff; opacity: 1;" id="p-type-logs"></path><path d="M-192.11541810214135,43.59662977157079A197,197,0,0,1,-192.3421134046193,42.58534267849168L-166.57315642598772,36.879988588439446A170.6070045455344,170.6070045455344,0,0,0,-166.3768325351232,37.755788901565275Z" fill-rule="evenodd" style="fill: #1DC690; stroke: #fff; opacity: 1;" id="p-type-logs"></path><path d="M-192.3421134046193,42.58534267849168A197,197,0,0,1,-192.5634853750972,41.57287697760069L-166.7648701761074,36.00316757100743A170.6070045455344,170.6070045455344,0,0,0,-166.57315642598772,36.879988588439446Z" fill-rule="evenodd" style="fill: #1DC690; stroke: #fff; opacity: 1;" id="p-type-logs"></path><path d="M-192.5634853750972,41.57287697760069A197,197,0,0,1,-192.77952788680193,40.55926069027581L-166.95196847954108,35.12535011649442A170.6070045455344,170.6070045455344,0,0,0,-166.7648701761074,36.00316757100743Z" fill-rule="evenodd" style="fill: #1DC690; stroke: #fff; opacity: 1;" id="p-type-logs"></path><path d="M-192.77952788680193,40.55926069027581A197,197,0,0,1,-192.99023496046044,39.54452186973911L-167.13444615808643,34.24656051970337A170.6070045455344,170.6070045455344,0,0,0,-166.95196847954108,35.12535011649442Z" fill-rule="evenodd" style="fill: #1DC690; stroke: #fff; opacity: 1;" id="p-type-logs"></path><path d="M-192.99023496046044,39.54452186973911A197,197,0,0,1,-193.1956007644652,38.52868860028027L-167.3122981614232,33.366823102342615A170.6070045455344,170.6070045455344,0,0,0,-167.13444615808643,34.24656051970337Z" fill-rule="evenodd" style="fill: #1DC690; stroke: #fff; opacity: 1;" id="p-type-logs"></path><path d="M-193.1956007644652,38.52868860028027A197,197,0,0,1,-193.39561961503577,37.51178899647939L-167.48551956725305,32.486162212352724A170.6070045455344,170.6070045455344,0,0,0,-167.3122981614232,33.366823102342615Z" fill-rule="evenodd" style="fill: #1DC690; stroke: #fff; opacity: 1;" id="p-type-logs"></path><path d="M-193.39561961503577,37.51178899647939A197,197,0,0,1,-193.59028597637587,36.49385120242881L-167.65410558143586,31.604602223232625A170.6070045455344,170.6070045455344,0,0,0,-167.48551956725305,32.486162212352724Z" fill-rule="evenodd" style="fill: #1DC690; stroke: #fff; opacity: 1;" id="p-type-logs"></path><path d="M-193.59028597637587,36.49385120242881A197,197,0,0,1,-193.7795944608267,35.47490339095421L-167.8180515381222,30.72216753336507A170.6070045455344,170.6070045455344,0,0,0,-167.65410558143586,31.604602223232625Z" fill-rule="evenodd" style="fill: #1DC690; stroke: #fff; opacity: 1;" id="p-type-logs"></path><path d="M-193.7795944608267,35.47490339095421A197,197,0,0,1,-193.9635398290162,34.4549737628349L-167.9773528998828,29.838882565341336A170.6070045455344,170.6070045455344,0,0,0,-167.8180515381222,30.72216753336507Z" fill-rule="evenodd" style="fill: #1DC690; stroke: #fff; opacity: 1;" id="p-type-logs"></path><path d="M-193.9635398290162,34.4549737628349A197,197,0,0,1,-194.14211699000379,33.43409054602331L-168.13200525783375,28.954771765285322A170.6070045455344,170.6070045455344,0,0,0,-167.9773528998828,29.838882565341336Z" fill-rule="evenodd" style="fill: #1DC690; stroke: #fff; opacity: 1;" id="p-type-logs"></path><path d="M-194.14211699000379,33.43409054602331A197,197,0,0,1,-194.31532100142138,32.41228199486375L-168.28200433175874,28.06985960217697A170.6070045455344,170.6070045455344,0,0,0,-168.13200525783375,28.954771765285322Z" fill-rule="evenodd" style="fill: #1DC690; stroke: #fff; opacity: 1;" id="p-type-logs"></path><path d="M-194.31532100142138,32.41228199486375A197,197,0,0,1,-194.48314706961023,31.38957638931041L-168.42734597022758,27.184170567175027A170.6070045455344,170.6070045455344,0,0,0,-168.28200433175874,28.06985960217697Z" fill-rule="evenodd" style="fill: #1DC690; stroke: #fff; opacity: 1;" id="p-type-logs"></path><path d="M-194.48314706961023,31.38957638931041A197,197,0,0,1,-194.6455905497536,30.36600203414471L-168.56802615071086,26.297729172939256A170.6070045455344,170.6070045455344,0,0,0,-168.42734597022758,27.184170567175027Z" fill-rule="evenodd" style="fill: #1DC690; stroke: #fff; opacity: 1;" id="p-type-logs"></path><path d="M-194.6455905497536,30.36600203414471A197,197,0,0,1,-194.8026469460051,29.3415872581919L-168.7040409796915,25.410559952951978A170.6070045455344,170.6070045455344,0,0,0,-168.56802615071086,26.297729172939256Z" fill-rule="evenodd" style="fill: #1DC690; stroke: #fff; opacity: 1;" id="p-type-logs"></path><path d="M-194.8026469460051,29.3415872581919A197,197,0,0,1,-194.95431191161347,28.316360413537033L-168.83538669277246,24.522687460839105A170.6070045455344,170.6070045455344,0,0,0,-168.7040409796915,25.410559952951978Z" fill-rule="evenodd" style="fill: #1DC690; stroke: #fff; opacity: 1;" id="p-type-logs"></path><path d="M-194.95431191161347,28.316360413537033A197,197,0,0,1,-195.1005812490426,27.290349874740283L-168.96205965478077,23.634136269690558A170.6070045455344,170.6070045455344,0,0,0,-168.83538669277246,24.522687460839105Z" fill-rule="evenodd" style="fill: #1DC690; stroke: #fff; opacity: 1;" id="p-type-logs"></path><path d="M-195.1005812490426,27.290349874740283A197,197,0,0,1,-195.24145091008774,26.26358403805162L-169.08405635986838,22.74493097138019A170.6070045455344,170.6070045455344,0,0,0,-168.96205965478077,23.634136269690558Z" fill-rule="evenodd" style="fill: #1DC690; stroke: #fff; opacity: 1;" id="p-type-logs"></path><path d="M-195.24145091008774,26.26358403805162A197,197,0,0,1,-195.37691699598773,25.236091320624922L-169.20137343160903,21.855096175885166A170.6070045455344,170.6070045455344,0,0,0,-169.08405635986838,22.74493097138019Z" fill-rule="evenodd" style="fill: #1DC690; stroke: #fff; opacity: 1;" id="p-type-logs"></path><path d="M-195.37691699598773,25.236091320624922A197,197,0,0,1,-195.5069757575327,24.20790015973151L-169.3140076230917,20.964656510604854A170.6070045455344,170.6070045455344,0,0,0,-169.20137343160903,21.855096175885166Z" fill-rule="evenodd" style="fill: #1DC690; stroke: #fff; opacity: 1;" id="p-type-logs"></path><path d="M-195.5069757575327,24.20790015973151A197,197,0,0,1,-195.63162359516784,23.17903901197306L-169.42195581701054,20.073636619679224A170.6070045455344,170.6070045455344,0,0,0,-169.3140076230917,20.964656510604854Z" fill-rule="evenodd" style="fill: #1DC690; stroke: #fff; opacity: 1;" id="p-type-logs"></path><path d="M-195.63162359516784,23.17903901197306A197,197,0,0,1,-195.75085705909322,22.149536352494067L-169.52521502575112,19.182061163306777A170.6070045455344,170.6070045455344,0,0,0,-169.42195581701054,20.073636619679224Z" fill-rule="evenodd" style="fill: #1DC690; stroke: #fff; opacity: 1;" id="p-type-logs"></path><path d="M-195.75085705909322,22.149536352494067A197,197,0,0,1,-195.864672849359,21.11942067419375L-169.6237823914731,18.289954817062064A170.6070045455344,170.6070045455344,0,0,0,-169.52521502575112,19.182061163306777Z" fill-rule="evenodd" style="fill: #1DC690; stroke: #fff; opacity: 1;" id="p-type-logs"></path><path d="M-195.864672849359,21.11942067419375A197,197,0,0,1,-195.97306781595705,20.08872048693745L-169.71765518618938,17.39734227121273A170.6070045455344,170.6070045455344,0,0,0,-169.6237823914731,18.289954817062064Z" fill-rule="evenodd" style="fill: #1DC690; stroke: #fff; opacity: 1;" id="p-type-logs"></path><path d="M-193.36286468676067,-37.68026751669214A197,197,0,0,1,-193.16195995502605,-38.696992471417154L-167.283164365845,-33.51257853030243A170.6070045455344,170.6070045455344,0,0,0,-167.45715296726766,-32.63206889084898Z" fill-rule="evenodd" style="fill: #D7A449; stroke: #fff; opacity: 1;" id="p-type-tokenTransfers"></path><path d="M-193.16195995502605,-38.696992471417154A197,197,0,0,1,-192.95570920091276,-39.71264643375948L-167.1045459732332,-34.3921606631452A170.6070045455344,170.6070045455344,0,0,0,-167.283164365845,-33.51257853030243Z" fill-rule="evenodd" style="fill: #D7A449; stroke: #fff; opacity: 1;" id="p-type-tokenTransfers"></path><path d="M-192.95570920091276,-39.71264643375948A197,197,0,0,1,-192.74411813269356,-40.7272012941016L-166.92130273294148,-35.27079094573445A170.6070045455344,170.6070045455344,0,0,0,-167.1045459732332,-34.3921606631452Z" fill-rule="evenodd" style="fill: #D7A449; stroke: #fff; opacity: 1;" id="p-type-tokenTransfers"></path><path d="M-192.74411813269356,-40.7272012941016A197,197,0,0,1,-192.52719260644167,-41.74062897324515L-166.73343971647802,-36.148445060771074A170.6070045455344,170.6070045455344,0,0,0,-166.92130273294148,-35.27079094573445Z" fill-rule="evenodd" style="fill: #D7A449; stroke: #fff; opacity: 1;" id="p-type-tokenTransfers"></path><path d="M-192.52719260644167,-41.74062897324515A197,197,0,0,1,-192.3049386258688,-42.75290142318809L-166.5409621232097,-37.02509871797277A170.6070045455344,170.6070045455344,0,0,0,-166.73343971647802,-36.148445060771074Z" fill-rule="evenodd" style="fill: #D7A449; stroke: #fff; opacity: 1;" id="p-type-tokenTransfers"></path><path d="M-192.3049386258688,-42.75290142318809A197,197,0,0,1,-192.0773623421589,-43.76399062790088L-166.3438752802181,-37.90072765474625A170.6070045455344,170.6070045455344,0,0,0,-166.5409621232097,-37.02509871797277Z" fill-rule="evenodd" style="fill: #D7A449; stroke: #fff; opacity: 1;" id="p-type-tokenTransfers"></path><path d="M-192.0773623421589,-43.76399062790088A197,197,0,0,1,-191.84447005379806,-44.77386860410196L-166.1421846421521,-38.775307636858805A170.6070045455344,170.6070045455344,0,0,0,-166.3438752802181,-37.90072765474625Z" fill-rule="evenodd" style="fill: #D7A449; stroke: #fff; opacity: 1;" id="p-type-tokenTransfers"></path><path d="M-191.84447005379806,-44.77386860410196A197,197,0,0,1,-191.60626820639996,-45.782507402032174L-165.93589579107694,-39.64881445910896A170.6070045455344,170.6070045455344,0,0,0,-166.1421846421521,-38.775307636858805Z" fill-rule="evenodd" style="fill: #D7A449; stroke: #fff; opacity: 1;" id="p-type-tokenTransfers"></path><path d="M-191.60626820639996,-45.782507402032174A197,197,0,0,1,-191.36276339252768,-46.78987910622829L-165.72501443631978,-40.521223945996425A170.6070045455344,170.6070045455344,0,0,0,-165.93589579107694,-39.64881445910896Z" fill-rule="evenodd" style="fill: #D7A449; stroke: #fff; opacity: 1;" id="p-type-tokenTransfers"></path><path d="M-191.36276339252768,-46.78987910622829A197,197,0,0,1,-191.11396235151128,-47.79595583629569L-165.50954641431156,-41.39251195239117A170.6070045455344,170.6070045455344,0,0,0,-165.72501443631978,-40.521223945996425Z" fill-rule="evenodd" style="fill: #D7A449; stroke: #fff; opacity: 1;" id="p-type-tokenTransfers"></path><path d="M-191.11396235151128,-47.79595583629569A197,197,0,0,1,-190.859871969261,-48.800709747679896L-165.2894976884255,-42.26265436420167A170.6070045455344,170.6070045455344,0,0,0,-165.50954641431156,-41.39251195239117Z" fill-rule="evenodd" style="fill: #D7A449; stroke: #fff; opacity: 1;" id="p-type-tokenTransfers"></path><path d="M-190.859871969261,-48.800709747679896A197,197,0,0,1,-190.60049927807697,-49.80411303243727L-165.0648743488122,-43.13162709904231A170.6070045455344,170.6070045455344,0,0,0,-165.2894976884255,-42.26265436420167Z" fill-rule="evenodd" style="fill: #D7A449; stroke: #fff; opacity: 1;" id="p-type-tokenTransfers"></path><path d="M-190.60049927807697,-49.80411303243727A197,197,0,0,1,-190.33585145645438,-50.80613792000463L-164.83568261223084,-43.99940610689989A170.6070045455344,170.6070045455344,0,0,0,-165.0648743488122,-43.13162709904231Z" fill-rule="evenodd" style="fill: #D7A449; stroke: #fff; opacity: 1;" id="p-type-tokenTransfers"></path><path d="M-190.33585145645438,-50.80613792000463A197,197,0,0,1,-190.06593582888502,-51.806756677967826L-164.60192882187735,-44.86596737079925A170.6070045455344,170.6070045455344,0,0,0,-164.83568261223084,-43.99940610689989Z" fill-rule="evenodd" style="fill: #D7A449; stroke: #fff; opacity: 1;" id="p-type-tokenTransfers"></path><path d="M-190.06593582888502,-51.806756677967826A197,197,0,0,1,-189.79075986565434,-52.80594161282925L-164.36361944720872,-45.73128690746794A170.6070045455344,170.6070045455344,0,0,0,-164.60192882187735,-44.86596737079925Z" fill-rule="evenodd" style="fill: #D7A449; stroke: #fff; opacity: 1;" id="p-type-tokenTransfers"></path><path d="M-189.79075986565434,-52.80594161282925A197,197,0,0,1,-189.51033118263481,-53.803665070774336L-164.12076108376402,-46.59534076800004A170.6070045455344,170.6070045455344,0,0,0,-164.36361944720872,-45.73128690746794Z" fill-rule="evenodd" style="fill: #D7A449; stroke: #fff; opacity: 1;" id="p-type-tokenTransfers"></path><path d="M-189.51033118263481,-53.803665070774336A197,197,0,0,1,-189.22465754107523,-54.7998994384369L-163.8733604529818,-47.45810503851895A170.6070045455344,170.6070045455344,0,0,0,-164.12076108376402,-46.59534076800004Z" fill-rule="evenodd" style="fill: #D7A449; stroke: #fff; opacity: 1;" id="p-type-tokenTransfers"></path><path d="M-189.22465754107523,-54.7998994384369A197,197,0,0,1,-188.93374684738572,-55.79461714366338L-163.62142440201413,-48.31955584083924A170.6070045455344,170.6070045455344,0,0,0,-163.8733604529818,-47.45810503851895Z" fill-rule="evenodd" style="fill: #D7A449; stroke: #fff; opacity: 1;" id="p-type-tokenTransfers"></path><path d="M-188.93374684738572,-55.79461714366338A197,197,0,0,1,-188.63760715291895,-56.7877906562759L-163.36495990353694,-49.179669333127514A170.6070045455344,170.6070045455344,0,0,0,-163.62142440201413,-48.31955584083924Z" fill-rule="evenodd" style="fill: #D7A449; stroke: #fff; opacity: 1;" id="p-type-tokenTransfers"></path><path d="M-188.63760715291895,-56.7877906562759A197,197,0,0,1,-188.33624665374757,-57.77939248883428L-163.10397405555736,-50.03842171056227A170.6070045455344,170.6070045455344,0,0,0,-163.36495990353694,-49.179669333127514Z" fill-rule="evenodd" style="fill: #D7A449; stroke: #fff; opacity: 1;" id="p-type-tokenTransfers"></path><path d="M-188.33624665374757,-57.77939248883428A197,197,0,0,1,-188.02967369043697,-58.76939519739669L-162.8384740812169,-50.89578920599272A170.6070045455344,170.6070045455344,0,0,0,-163.10397405555736,-50.03842171056227Z" fill-rule="evenodd" style="fill: #D7A449; stroke: #fff; opacity: 1;" id="p-type-tokenTransfers"></path><path d="M-188.02967369043697,-58.76939519739669A197,197,0,0,1,-187.71789674781473,-59.7577713822793L-162.56846732859182,-51.7517480905966A170.6070045455344,170.6070045455344,0,0,0,-162.8384740812169,-50.89578920599272Z" fill-rule="evenodd" style="fill: #D7A449; stroke: #fff; opacity: 1;" id="p-type-tokenTransfers"></path><path d="M-187.71789674781473,-59.7577713822793A197,197,0,0,1,-187.40092445473576,-60.74449368881452L-162.2939612704896,-52.606274674536884A170.6070045455344,170.6070045455344,0,0,0,-162.56846732859182,-51.7517480905966Z" fill-rule="evenodd" style="fill: #D7A449; stroke: #fff; opacity: 1;" id="p-type-tokenTransfers"></path><path d="M-187.40092445473576,-60.74449368881452A197,197,0,0,1,-187.07876558384322,-61.729534808108134L-162.01496350424216,-53.459345307617404A170.6070045455344,170.6070045455344,0,0,0,-162.2939612704896,-52.606274674536884Z" fill-rule="evenodd" style="fill: #D7A449; stroke: #fff; opacity: 1;" id="p-type-tokenTransfers"></path><path d="M-187.07876558384322,-61.729534808108134A197,197,0,0,1,-186.75142905132617,-62.712867477795086L-161.7314817514957,-54.31093637993748A170.6070045455344,170.6070045455344,0,0,0,-162.01496350424216,-53.459345307617404Z" fill-rule="evenodd" style="fill: #D7A449; stroke: #fff; opacity: 1;" id="p-type-tokenTransfers"></path><path d="M-186.75142905132617,-62.712867477795086A197,197,0,0,1,-186.41892391667238,-63.694464482794004L-161.44352385799675,-55.16102432254526A170.6070045455344,170.6070045455344,0,0,0,-161.7314817514957,-54.31093637993748Z" fill-rule="evenodd" style="fill: #D7A449; stroke: #fff; opacity: 1;" id="p-type-tokenTransfers"></path><path d="M-186.41892391667238,-63.694464482794004A197,197,0,0,1,-186.08125938241793,-64.67429865606042L-161.15109779337536,-56.0095856080901A170.6070045455344,170.6070045455344,0,0,0,-161.44352385799675,-55.16102432254526Z" fill-rule="evenodd" style="fill: #D7A449; stroke: #fff; opacity: 1;" id="p-type-tokenTransfers"></path><path d="M-186.08125938241793,-64.67429865606042A197,197,0,0,1,-185.73844479389223,-65.65234287933863L-160.85421165092419,-56.85659675147365A170.6070045455344,170.6070045455344,0,0,0,-161.15109779337536,-56.0095856080901Z" fill-rule="evenodd" style="fill: #D7A449; stroke: #fff; opacity: 1;" id="p-type-tokenTransfers"></path><path d="M-185.73844479389223,-65.65234287933863A197,197,0,0,1,-185.3904896389596,-66.62857008391232L-160.55287364737475,-57.70203431049993A170.6070045455344,170.6070045455344,0,0,0,-160.85421165092419,-56.85659675147365Z" fill-rule="evenodd" style="fill: #D7A449; stroke: #fff; opacity: 1;" id="p-type-tokenTransfers"></path><path d="M-185.3904896389596,-66.62857008391232A197,197,0,0,1,-185.03740354775653,-67.60295325135361L-160.24709212266995,-58.54587488652403A170.6070045455344,170.6070045455344,0,0,0,-160.55287364737475,-57.70203431049993Z" fill-rule="evenodd" style="fill: #D7A449; stroke: #fff; opacity: 1;" id="p-type-tokenTransfers"></path><path d="M-185.03740354775653,-67.60295325135361A197,197,0,0,1,-184.67919629242525,-68.57546541427087L-159.9368755397332,-59.38809512509973A170.6070045455344,170.6070045455344,0,0,0,-160.24709212266995,-58.54587488652403Z" fill-rule="evenodd" style="fill: #D7A449; stroke: #fff; opacity: 1;" id="p-type-tokenTransfers"></path><path d="M-184.67919629242525,-68.57546541427087A197,197,0,0,1,-184.3158777868433,-69.5460796570551L-159.6222324842342,-60.22867171662588A170.6070045455344,170.6070045455344,0,0,0,-159.9368755397332,-59.38809512509973Z" fill-rule="evenodd" style="fill: #D7A449; stroke: #fff; opacity: 1;" id="p-type-tokenTransfers"></path><path d="M-184.3158777868433,-69.5460796570551A197,197,0,0,1,-183.9474580863489,-70.51476911662489L-159.3031716643514,-61.06758139699153A170.6070045455344,170.6070045455344,0,0,0,-159.6222324842342,-60.22867171662588Z" fill-rule="evenodd" style="fill: #D7A449; stroke: #fff; opacity: 1;" id="p-type-tokenTransfers"></path></g></svg>