<svg xmlns="http://www.w3.org/2000/svg" width="400" height="400" id="block-7908248"><g id="burst-container" transform="translate(200,200)"><circle r="197" style="fill: #f9f9f9; stroke: #f9f9f9; stroke-width: 3; opacity: 1;" id="circle-base"></circle><path display="none" d="M6.031385485800715e-15,-98.5A98.5,98.5,0,1,1,-6.031385485800715e-15,98.5A98.5,98.5,0,1,1,6.031385485800715e-15,-98.5Z" fill-rule="evenodd" id="p-type-root" style="stroke: #fff; opacity: 1;"></path><path d="M8.529667153919608e-15,-139.30003589374985A139.30003589374985,139.30003589374985,0,1,1,-98.6604877417646,-98.33925034571453L-69.763499917374,-69.53635077625628A98.5,98.5,0,1,0,6.031385485800715e-15,-98.5Z" fill-rule="evenodd" style="fill: #0B1F65; stroke: #fff; opacity: 1;" id="p-type-data"></path><path d="M-98.6604877417646,-98.33925034571453A139.30003589374985,139.30003589374985,0,0,1,-2.0301714865065885,-139.28524115546261L-1.4355480250803823,-98.48953854023121A98.5,98.5,0,0,0,-69.763499917374,-69.53635077625628Z" fill-rule="evenodd" style="fill: #D7A449; stroke: #fff; opacity: 1;" id="p-type-value"></path><path d="M1.0446666101440332e-14,-170.6070045455344A170.6070045455344,170.6070045455344,0,0,1,169.41996085800602,20.09046696499865L138.3308187814711,16.403797586162824A139.30003589374985,139.30003589374985,0,0,0,8.529667153919608e-15,-139.30003589374985Z" fill-rule="evenodd" style="fill: #DB3F29; stroke: #fff; opacity: 1;" id="p-type-functions"></path><path d="M169.41996085800602,20.09046696499865A170.6070045455344,170.6070045455344,0,0,1,57.713737994776146,160.54866691028715L47.123069745293314,131.08743760475377A139.30003589374985,139.30003589374985,0,0,0,138.3308187814711,16.403797586162824Z" fill-rule="evenodd" style="fill: #1DC690; stroke: #fff; opacity: 1;" id="p-type-logs"></path><path d="M57.713737994776146,160.54866691028715A170.6070045455344,170.6070045455344,0,0,1,-104.67673418395802,134.72019640937654L-85.46819556388215,109.99857975016765A139.30003589374985,139.30003589374985,0,0,0,47.123069745293314,131.08743760475377Z" fill-rule="evenodd" style="fill: #D7A449; stroke: #fff; opacity: 1;" id="p-type-tokenTransfers"></path><path d="M-104.67673418395802,134.72019640937654A170.6070045455344,170.6070045455344,0,0,1,-170.4725910088416,6.770946369025759L-139.19028770060976,5.528454559954533A139.30003589374985,139.30003589374985,0,0,0,-85.46819556388215,109.99857975016765Z" fill-rule="evenodd" style="fill: #414552; stroke: #fff; opacity: 1;" id="p-type-ether"></path><path d="M-120.83392637071894,-120.44049251740744A170.6070045455344,170.6070045455344,0,0,1,-47.837229216052236,-163.76308955601343L-39.05893409596258,-133.71200270464595A139.30003589374985,139.30003589374985,0,0,0,-98.6604877417646,-98.33925034571453Z" fill-rule="evenodd" style="fill: #D7A449; stroke: #fff; opacity: 1;" id="p-type-tokenTransfers"></path><path d="M-47.837229216052236,-163.76308955601343A170.6070045455344,170.6070045455344,0,0,1,-4.972356073625476,-170.53452927509161L-4.059911733270413,-139.2408600832315A139.30003589374985,139.30003589374985,0,0,0,-39.05893409596258,-133.71200270464595Z" fill-rule="evenodd" style="fill: #414552; stroke: #fff; opacity: 1;" id="p-type-ether"></path><path d="M1.206277097160143e-14,-197A197,197,0,0,1,44.46088325866227,-191.91724742674796L38.50425437669578,-166.20521169594744A170.6070045455344,170.6070045455344,0,0,0,1.0446666101440332e-14,-170.6070045455344Z" fill-rule="evenodd" style="fill: #DB3F29; stroke: #fff; opacity: 1;" id="p-type-functions"></path><path d="M44.46088325866227,-191.91724742674796A197,197,0,0,1,66.4785308097223,-185.44434459260492L57.57209648748599,-160.59951340535125A170.6070045455344,170.6070045455344,0,0,0,38.50425437669578,-166.20521169594744Z" fill-rule="evenodd" style="fill: #DB3F29; stroke: #fff; opacity: 1;" id="p-type-functions"></path><path d="M66.4785308097223,-185.44434459260492A197,197,0,0,1,70.52373364470435,-183.9440213565279L61.07534490604129,-159.30019536902049A170.6070045455344,170.6070045455344,0,0,0,57.57209648748599,-160.59951340535125Z" fill-rule="evenodd" style="fill: #DB3F29; stroke: #fff; opacity: 1;" id="p-type-functions"></path><path d="M70.52373364470435,-183.9440213565279A197,197,0,0,1,72.0276454063236,-183.3603509410388L62.37777069665377,-158.7947219617695A170.6070045455344,170.6070045455344,0,0,0,61.07534490604129,-159.30019536902049Z" fill-rule="evenodd" style="fill: #DB3F29; stroke: #fff; opacity: 1;" id="p-type-functions"></path><path d="M72.0276454063236,-183.3603509410388A197,197,0,0,1,73.3619236644855,-182.8305996168207L63.53328956393922,-158.33594385730817A170.6070045455344,170.6070045455344,0,0,0,62.37777069665377,-158.7947219617695Z" fill-rule="evenodd" style="fill: #DB3F29; stroke: #fff; opacity: 1;" id="p-type-functions"></path><path d="M73.3619236644855,-182.8305996168207A197,197,0,0,1,74.6923060698444,-182.2911391537413L64.68543452372788,-157.86875739194411A170.6070045455344,170.6070045455344,0,0,0,63.53328956393922,-158.33594385730817Z" fill-rule="evenodd" style="fill: #DB3F29; stroke: #fff; opacity: 1;" id="p-type-functions"></path><path d="M74.6923060698444,-182.2911391537413A197,197,0,0,1,76.01872197302578,-181.74199819961208L65.83414439186662,-157.39318737540978A170.6070045455344,170.6070045455344,0,0,0,64.68543452372788,-157.86875739194411Z" fill-rule="evenodd" style="fill: #DB3F29; stroke: #fff; opacity: 1;" id="p-type-functions"></path><path d="M76.01872197302578,-181.74199819961208A197,197,0,0,1,77.34110093529439,-181.18320591632275L66.97935816662134,-156.9092590626425A170.6070045455344,170.6070045455344,0,0,0,65.83414439186662,-157.39318737540978Z" fill-rule="evenodd" style="fill: #DB3F29; stroke: #fff; opacity: 1;" id="p-type-functions"></path><path d="M77.34110093529439,-181.18320591632275A197,197,0,0,1,78.65937273229501,-180.61479197829254L68.12101503191644,-156.41699815244317A170.6070045455344,170.6070045455344,0,0,0,66.97935816662134,-156.9092590626425Z" fill-rule="evenodd" style="fill: #DB3F29; stroke: #fff; opacity: 1;" id="p-type-functions"></path><path d="M78.65937273229501,-180.61479197829254A197,197,0,0,1,79.9734673577817,-180.03678657089452L69.25905436056452,-155.91643078611173A170.6070045455344,170.6070045455344,0,0,0,68.12101503191644,-156.41699815244317Z" fill-rule="evenodd" style="fill: #DB3F29; stroke: #fff; opacity: 1;" id="p-type-functions"></path><path d="M79.9734673577817,-180.03678657089452A197,197,0,0,1,81.2833150273353,-179.44922038885252L70.39341571748578,-155.40758354605873A170.6070045455344,170.6070045455344,0,0,0,69.25905436056452,-155.91643078611173Z" fill-rule="evenodd" style="fill: #DB3F29; stroke: #fff; opacity: 1;" id="p-type-functions"></path><path d="M81.2833150273353,-179.44922038885252A197,197,0,0,1,82.58884618206935,-178.8521246346112L71.5240388629175,-154.8904834543939A170.6070045455344,170.6070045455344,0,0,0,70.39341571748578,-155.40758354605873Z" fill-rule="evenodd" style="fill: #DB3F29; stroke: #fff; opacity: 1;" id="p-type-functions"></path><path d="M82.58884618206935,-178.8521246346112A197,197,0,0,1,83.88999149232413,-178.24553101667874L72.65086375561313,-154.3651579714909A170.6070045455344,170.6070045455344,0,0,0,71.5240388629175,-154.8904834543939Z" fill-rule="evenodd" style="fill: #DB3F29; stroke: #fff; opacity: 1;" id="p-type-functions"></path><path d="M83.88999149232413,-178.24553101667874A197,197,0,0,1,85.18668186134819,-177.62947174794348L73.77383055603057,-153.83163499452928A170.6070045455344,170.6070045455344,0,0,0,72.65086375561313,-154.3651579714909Z" fill-rule="evenodd" style="fill: #DB3F29; stroke: #fff; opacity: 1;" id="p-type-functions"></path><path d="M85.18668186134819,-177.62947174794348A197,197,0,0,1,86.4788484289678,-177.00397954396283L74.89287962951009,-153.28994285601294A170.6070045455344,170.6070045455344,0,0,0,73.77383055603057,-153.83163499452928Z" fill-rule="evenodd" style="fill: #DB3F29; stroke: #fff; opacity: 1;" id="p-type-functions"></path><path d="M86.4788484289678,-177.00397954396283A197,197,0,0,1,87.7664225752437,-176.36908762122619L76.00795154944109,-152.74011032226542A170.6070045455344,170.6070045455344,0,0,0,74.89287962951009,-153.28994285601294Z" fill-rule="evenodd" style="fill: #DB3F29; stroke: #fff; opacity: 1;" id="p-type-functions"></path><path d="M87.7664225752437,-176.36908762122619A197,197,0,0,1,89.04933592411513,-175.7248296953908L77.11898710041793,-152.18216659190253A170.6070045455344,170.6070045455344,0,0,0,76.00795154944109,-152.74011032226542Z" fill-rule="evenodd" style="fill: #DB3F29; stroke: #fff; opacity: 1;" id="p-type-functions"></path><path d="M89.04933592411513,-175.7248296953908A197,197,0,0,1,90.32752034703108,-175.07123997949145L78.2259272813847,-151.61614129428142A170.6070045455344,170.6070045455344,0,0,0,77.11898710041793,-152.18216659190253Z" fill-rule="evenodd" style="fill: #DB3F29; stroke: #fff; opacity: 1;" id="p-type-functions"></path><path d="M90.32752034703108,-175.07123997949145A197,197,0,0,1,91.60090796656793,-174.40835318212356L79.3287133087682,-151.04206448792755A170.6070045455344,170.6070045455344,0,0,0,78.2259272813847,-151.61614129428142Z" fill-rule="evenodd" style="fill: #DB3F29; stroke: #fff; opacity: 1;" id="p-type-functions"></path><path d="M91.60090796656793,-174.40835318212356A197,197,0,0,1,92.86943116003421,-173.7362045056L80.42728661959976,-150.45996665893804A170.6070045455344,170.6070045455344,0,0,0,79.3287133087682,-151.04206448792755Z" fill-rule="evenodd" style="fill: #DB3F29; stroke: #fff; opacity: 1;" id="p-type-functions"></path><path d="M92.86943116003421,-173.7362045056A197,197,0,0,1,94.13302256306177,-173.0548296440816L81.52158887462525,-149.86987871936302A170.6070045455344,170.6070045455344,0,0,0,80.42728661959976,-150.45996665893804Z" fill-rule="evenodd" style="fill: #DB3F29; stroke: #fff; opacity: 1;" id="p-type-functions"></path><path d="M94.13302256306177,-173.0548296440816A197,197,0,0,1,95.39161507318292,-172.36426478168175L82.61156196140298,-149.27183200556385A170.6070045455344,170.6070045455344,0,0,0,81.52158887462525,-149.86987871936302Z" fill-rule="evenodd" style="fill: #DB3F29; stroke: #fff; opacity: 1;" id="p-type-functions"></path><path d="M95.39161507318292,-172.36426478168175A197,197,0,0,1,96.64514185339405,-171.66454659054486L83.69714799738993,-148.6658582765492A170.6070045455344,170.6070045455344,0,0,0,82.61156196140298,-149.27183200556385Z" fill-rule="evenodd" style="fill: #DB3F29; stroke: #fff; opacity: 1;" id="p-type-functions"></path><path d="M96.64514185339405,-171.66454659054486A197,197,0,0,1,97.89353633570487,-170.95571222889873L84.77828933301542,-148.0519897122883A170.6070045455344,170.6070045455344,0,0,0,83.69714799738993,-148.6658582765492Z" fill-rule="evenodd" style="fill: #DB3F29; stroke: #fff; opacity: 1;" id="p-type-functions"></path><path d="M97.89353633570487,-170.95571222889873A197,197,0,0,1,99.13673222467355,-170.2377993390815L85.85492855474268,-147.4302589120023A170.6070045455344,170.6070045455344,0,0,0,84.77828933301542,-148.0519897122883Z" fill-rule="evenodd" style="fill: #DB3F29; stroke: #fff; opacity: 1;" id="p-type-functions"></path><path d="M99.13673222467355,-170.2377993390815A197,197,0,0,1,100.3746635009273,-169.5108460455425L86.92700848811772,-146.80069889243276A170.6070045455344,170.6070045455344,0,0,0,85.85492855474268,-147.4302589120023Z" fill-rule="evenodd" style="fill: #DB3F29; stroke: #fff; opacity: 1;" id="p-type-functions"></path><path d="M100.3746635009273,-169.5108460455425A197,197,0,0,1,101.60726442466823,-168.77489095281783L87.99447220080553,-146.16334308608864A170.6070045455344,170.6070045455344,0,0,0,86.92700848811772,-146.80069889243276Z" fill-rule="evenodd" style="fill: #DB3F29; stroke: #fff; opacity: 1;" id="p-type-functions"></path><path d="M101.60726442466823,-168.77489095281783A197,197,0,0,1,102.8344695391645,-168.0299731434801L89.05726300561349,-145.51822533947075A170.6070045455344,170.6070045455344,0,0,0,87.99447220080553,-146.16334308608864Z" fill-rule="evenodd" style="fill: #DB3F29; stroke: #fff; opacity: 1;" id="p-type-functions"></path><path d="M102.8344695391645,-168.0299731434801A197,197,0,0,1,104.05621367422641,-167.2761321760631L90.11532446350175,-144.86537991127418A170.6070045455344,170.6070045455344,0,0,0,89.05726300561349,-145.51822533947075Z" fill-rule="evenodd" style="fill: #DB3F29; stroke: #fff; opacity: 1;" id="p-type-functions"></path><path d="M104.05621367422641,-167.2761321760631A197,197,0,0,1,105.27243194966714,-166.513408082961L91.16860038658032,-144.2048414705693A170.6070045455344,170.6070045455344,0,0,0,90.11532446350175,-144.86537991127418Z" fill-rule="evenodd" style="fill: #DB3F29; stroke: #fff; opacity: 1;" id="p-type-functions"></path><path d="M105.27243194966714,-166.513408082961A197,197,0,0,1,106.48305977874817,-165.7418413683025L92.2170348410929,-143.53664509496053A170.6070045455344,170.6070045455344,0,0,0,91.16860038658032,-144.2048414705693Z" fill-rule="evenodd" style="fill: #DB3F29; stroke: #fff; opacity: 1;" id="p-type-functions"></path><path d="M106.48305977874817,-165.7418413683025A197,197,0,0,1,107.68803287160925,-164.96147300579977L93.2605721503873,-142.8608262687235A170.6070045455344,170.6070045455344,0,0,0,92.2170348410929,-143.53664509496053Z" fill-rule="evenodd" style="fill: #DB3F29; stroke: #fff; opacity: 1;" id="p-type-functions"></path><path d="M107.68803287160925,-164.96147300579977A197,197,0,0,1,108.8872872386824,-164.17234443657273L94.29915689787208,-142.17742088092083A170.6070045455344,170.6070045455344,0,0,0,93.2605721503873,-142.8608262687235Z" fill-rule="evenodd" style="fill: #DB3F29; stroke: #fff; opacity: 1;" id="p-type-functions"></path><path d="M108.8872872386824,-164.17234443657273A197,197,0,0,1,110.08075919409009,-163.37449756694815L95.33273392995943,-141.48646522349605A170.6070045455344,170.6070045455344,0,0,0,94.29915689787208,-142.17742088092083Z" fill-rule="evenodd" style="fill: #DB3F29; stroke: #fff; opacity: 1;" id="p-type-functions"></path><path d="M110.08075919409009,-163.37449756694815A197,197,0,0,1,111.26838535902718,-162.5679747662344L96.36124835899403,-140.78799598934657A170.6070045455344,170.6070045455344,0,0,0,95.33273392995943,-141.48646522349605Z" fill-rule="evenodd" style="fill: #DB3F29; stroke: #fff; opacity: 1;" id="p-type-functions"></path><path d="M111.26838535902718,-162.5679747662344A197,197,0,0,1,112.45010266512674,-161.7528188644713L97.38464556616796,-140.0820502703749A170.6070045455344,170.6070045455344,0,0,0,96.36124835899403,-140.78799598934657Z" fill-rule="evenodd" style="fill: #DB3F29; stroke: #fff; opacity: 1;" id="p-type-functions"></path><path d="M112.45010266512674,-161.7528188644713A197,197,0,0,1,113.6258483578091,-160.92907315015572L98.40287120442102,-139.36866555551907A170.6070045455344,170.6070045455344,0,0,0,97.38464556616796,-140.0820502703749Z" fill-rule="evenodd" style="fill: #DB3F29; stroke: #fff; opacity: 1;" id="p-type-functions"></path><path d="M113.6258483578091,-160.92907315015572A197,197,0,0,1,114.79555999961457,-160.09678136794284L99.41587120132695,-138.6478797287617A170.6070045455344,170.6070045455344,0,0,0,98.40287120442102,-139.36866555551907Z" fill-rule="evenodd" style="fill: #DB3F29; stroke: #fff; opacity: 1;" id="p-type-functions"></path><path d="M114.79555999961457,-160.09678136794284A197,197,0,0,1,115.95917547351911,-159.25598771632295L100.42359176196496,-137.91973106711816A170.6070045455344,170.6070045455344,0,0,0,99.41587120132695,-138.6478797287617Z" fill-rule="evenodd" style="fill: #DB3F29; stroke: #fff; opacity: 1;" id="p-type-functions"></path><path d="M115.95917547351911,-159.25598771632295A197,197,0,0,1,117.11663298623291,-158.40673684527442L101.42597937177626,-137.1842582386041A170.6070045455344,170.6070045455344,0,0,0,100.42359176196496,-137.91973106711816Z" fill-rule="evenodd" style="fill: #DB3F29; stroke: #fff; opacity: 1;" id="p-type-functions"></path><path d="M117.11663298623291,-158.40673684527442A197,197,0,0,1,118.26787107148213,-157.54907385389254L102.42298079940623,-136.44150030018162A170.6070045455344,170.6070045455344,0,0,0,101.42597937177626,-137.1842582386041Z" fill-rule="evenodd" style="fill: #DB3F29; stroke: #fff; opacity: 1;" id="p-type-functions"></path><path d="M118.26787107148213,-157.54907385389254A197,197,0,0,1,119.41282859327275,-156.68304428799456L103.41454309953099,-135.69149669568557A170.6070045455344,170.6070045455344,0,0,0,102.42298079940623,-136.44150030018162Z" fill-rule="evenodd" style="fill: #DB3F29; stroke: #fff; opacity: 1;" id="p-type-functions"></path><path d="M119.41282859327275,-156.68304428799456A197,197,0,0,1,120.55144474913743,-155.80869413770102L104.40061361566919,-134.93428725372863A170.6070045455344,170.6070045455344,0,0,0,103.41454309953099,-135.69149669568557Z" fill-rule="evenodd" style="fill: #DB3F29; stroke: #fff; opacity: 1;" id="p-type-functions"></path><path d="M120.55144474913743,-155.80869413770102A197,197,0,0,1,121.68365907336423,-154.92606983499343L105.38113998297821,-134.16991218558633A170.6070045455344,170.6070045455344,0,0,0,104.40061361566919,-134.93428725372863Z" fill-rule="evenodd" style="fill: #DB3F29; stroke: #fff; opacity: 1;" id="p-type-functions"></path><path d="M121.68365907336423,-154.92606983499343A197,197,0,0,1,122.8094114402077,-154.03521825124858L106.35607013103512,-133.3984120830617A170.6070045455344,170.6070045455344,0,0,0,105.38113998297821,-134.16991218558633Z" fill-rule="evenodd" style="fill: #DB3F29; stroke: #fff; opacity: 1;" id="p-type-functions"></path><path d="M122.8094114402077,-154.03521825124858A197,197,0,0,1,123.92864206708177,-153.13618669474937L107.32535228660166,-132.61982791632948A170.6070045455344,170.6070045455344,0,0,0,106.35607013103512,-133.3984120830617Z" fill-rule="evenodd" style="fill: #DB3F29; stroke: #fff; opacity: 1;" id="p-type-functions"></path><path d="M123.92864206708177,-153.13618669474937A197,197,0,0,1,125.04129151773458,-152.22902290817254L108.2889349763738,-131.8342010317607A170.6070045455344,170.6070045455344,0,0,0,107.32535228660166,-132.61982791632948Z" fill-rule="evenodd" style="fill: #DB3F29; stroke: #fff; opacity: 1;" id="p-type-functions"></path><path d="M125.04129151773458,-152.22902290817254A197,197,0,0,1,126.14730070540467,-151.31377506605344L109.24676702971509,-131.04157314972664A170.6070045455344,170.6070045455344,0,0,0,108.2889349763738,-131.8342010317607Z" fill-rule="evenodd" style="fill: #DB3F29; stroke: #fff; opacity: 1;" id="p-type-functions"></path><path d="M126.14730070540467,-151.31377506605344A197,197,0,0,1,127.24661089595891,-150.39049177222753L110.19879758137415,-130.24198636238364A170.6070045455344,170.6070045455344,0,0,0,109.24676702971509,-131.04157314972664Z" fill-rule="evenodd" style="fill: #DB3F29; stroke: #fff; opacity: 1;" id="p-type-functions"></path><path d="M127.24661089595891,-150.39049177222753A197,197,0,0,1,128.3391637110114,-149.4592220572495L111.14497607418582,-129.43548313143756A170.6070045455344,170.6070045455344,0,0,0,110.19879758137415,-130.24198636238364Z" fill-rule="evenodd" style="fill: #DB3F29; stroke: #fff; opacity: 1;" id="p-type-functions"></path><path d="M128.3391637110114,-149.4592220572495A197,197,0,0,1,129.42490113102377,-148.5200153757894L112.08525226175591,-128.62210628588906A170.6070045455344,170.6070045455344,0,0,0,111.14497607418582,-129.43548313143756Z" fill-rule="evenodd" style="fill: #DB3F29; stroke: #fff; opacity: 1;" id="p-type-functions"></path><path d="M129.42490113102377,-148.5200153757894A197,197,0,0,1,130.50376549838617,-147.57292160400644L113.01957621112957,-127.80189901975899A170.6070045455344,170.6070045455344,0,0,0,112.08525226175591,-128.62210628588906Z" fill-rule="evenodd" style="fill: #DB3F29; stroke: #fff; opacity: 1;" id="p-type-functions"></path><path d="M130.50376549838617,-147.57292160400644A197,197,0,0,1,131.57569952047925,-146.61799103690024L113.947898305443,-126.97490488979473A170.6070045455344,170.6070045455344,0,0,0,113.01957621112957,-127.80189901975899Z" fill-rule="evenodd" style="fill: #DB3F29; stroke: #fff; opacity: 1;" id="p-type-functions"></path><path d="M131.57569952047925,-146.61799103690024A197,197,0,0,1,132.64064627271654,-145.65527438564007L114.87016924655823,-126.14116781315713A170.6070045455344,170.6070045455344,0,0,0,113.947898305443,-126.97490488979473Z" fill-rule="evenodd" style="fill: #DB3F29; stroke: #fff; opacity: 1;" id="p-type-functions"></path><path d="M132.64064627271654,-145.65527438564007A197,197,0,0,1,133.69854920156752,-144.68482277487172L115.78634005768113,-125.30073206508821A170.6070045455344,170.6070045455344,0,0,0,114.87016924655823,-126.14116781315713Z" fill-rule="evenodd" style="fill: #DB3F29; stroke: #fff; opacity: 1;" id="p-type-functions"></path><path d="M133.69854920156752,-144.68482277487172A197,197,0,0,1,134.7493521275608,-143.70668774000265L116.69636208596235,-124.45364227656003A170.6070045455344,170.6070045455344,0,0,0,115.78634005768113,-125.30073206508821Z" fill-rule="evenodd" style="fill: #DB3F29; stroke: #fff; opacity: 1;" id="p-type-functions"></path><path d="M134.7493521275608,-143.70668774000265A197,197,0,0,1,135.7929992482676,-142.7209212244652L117.6001870050809,-123.59994343190453A170.6070045455344,170.6070045455344,0,0,0,116.69636208596235,-124.45364227656003Z" fill-rule="evenodd" style="fill: #DB3F29; stroke: #fff; opacity: 1;" id="p-type-functions"></path><path d="M135.7929992482676,-142.7209212244652A197,197,0,0,1,136.8294351412649,-141.72757557695815L118.4977668178106,-122.7396808664247A170.6070045455344,170.6070045455344,0,0,0,117.6001870050809,-123.59994343190453Z" fill-rule="evenodd" style="fill: #DB3F29; stroke: #fff; opacity: 1;" id="p-type-functions"></path><path d="M136.8294351412649,-141.72757557695815A197,197,0,0,1,137.85860476707893,-140.7267035486667L119.38905385856887,-121.87290026398708A170.6070045455344,170.6070045455344,0,0,0,118.4977668178106,-122.7396808664247Z" fill-rule="evenodd" style="fill: #DB3F29; stroke: #fff; opacity: 1;" id="p-type-functions"></path><path d="M137.85860476707893,-140.7267035486667A197,197,0,0,1,138.88045347210775,-139.7183582904613L120.27400079594804,-120.99964765459563A170.6070045455344,170.6070045455344,0,0,0,119.38905385856887,-121.87290026398708Z" fill-rule="evenodd" style="fill: #DB3F29; stroke: #fff; opacity: 1;" id="p-type-functions"></path><path d="M138.88045347210775,-139.7183582904613A197,197,0,0,1,139.8949269915237,-138.70259335007492L121.15256063522888,-120.11996941194744A170.6070045455344,170.6070045455344,0,0,0,120.27400079594804,-120.99964765459563Z" fill-rule="evenodd" style="fill: #DB3F29; stroke: #fff; opacity: 1;" id="p-type-functions"></path><path d="M139.8949269915237,-138.70259335007492A197,197,0,0,1,140.90197145215524,-137.67946266925952L122.02468672087618,-119.23391225097004A170.6070045455344,170.6070045455344,0,0,0,121.15256063522888,-120.11996941194744Z" fill-rule="evenodd" style="fill: #DB3F29; stroke: #fff; opacity: 1;" id="p-type-functions"></path><path d="M140.90197145215524,-137.67946266925952A197,197,0,0,1,141.90153337534755,-136.64902058092153L122.89033273901637,-118.34152322534064A170.6070045455344,170.6070045455344,0,0,0,122.02468672087618,-119.23391225097004Z" fill-rule="evenodd" style="fill: #DB3F29; stroke: #fff; opacity: 1;" id="p-type-functions"></path><path d="M141.90153337534755,-136.64902058092153A197,197,0,0,1,142.8935596798029,-135.61132180623636L123.74945271989709,-117.4428497249873A170.6070045455344,170.6070045455344,0,0,0,122.89033273901637,-118.34152322534064Z" fill-rule="evenodd" style="fill: #DB3F29; stroke: #fff; opacity: 1;" id="p-type-functions"></path><path d="M142.8935596798029,-135.61132180623636A197,197,0,0,1,143.87799768439913,-134.5664214517427L124.60200104032828,-116.53793947357244A170.6070045455344,170.6070045455344,0,0,0,123.74945271989709,-117.4428497249873Z" fill-rule="evenodd" style="fill: #DB3F29; stroke: #fff; opacity: 1;" id="p-type-functions"></path><path d="M143.87799768439913,-134.5664214517427A197,197,0,0,1,144.85479511098742,-133.51437500641586L125.44793242610503,-115.62684052595827A170.6070045455344,170.6070045455344,0,0,0,124.60200104032828,-116.53793947357244Z" fill-rule="evenodd" style="fill: #DB3F29; stroke: #fff; opacity: 1;" id="p-type-functions"></path><path d="M144.85479511098742,-133.51437500641586A197,197,0,0,1,145.82390008716865,-132.45523833872127L126.28720195441186,-114.70960126565515A170.6070045455344,170.6070045455344,0,0,0,125.44793242610503,-115.62684052595827Z" fill-rule="evenodd" style="fill: #DB3F29; stroke: #fff; opacity: 1;" id="p-type-functions"></path><path d="M145.82390008716865,-132.45523833872127A197,197,0,0,1,146.7852611490477,-131.38906769364746L127.11976505620831,-113.78627040225197A170.6070045455344,170.6070045455344,0,0,0,126.28720195441186,-114.70960126565515Z" fill-rule="evenodd" style="fill: #DB3F29; stroke: #fff; opacity: 1;" id="p-type-functions"></path><path d="M146.7852611490477,-131.38906769364746A197,197,0,0,1,147.73882724396677,-130.3159196897192L127.94557751859573,-112.85689696882955A170.6070045455344,170.6070045455344,0,0,0,127.11976505620831,-113.78627040225197Z" fill-rule="evenodd" style="fill: #DB3F29; stroke: #fff; opacity: 1;" id="p-type-functions"></path><path d="M147.73882724396677,-130.3159196897192A197,197,0,0,1,148.6845477332163,-129.23585131599097L128.7645954871653,-111.92153031935675A170.6070045455344,170.6070045455344,0,0,0,127.94557751859573,-112.85689696882955Z" fill-rule="evenodd" style="fill: #DB3F29; stroke: #fff; opacity: 1;" id="p-type-functions"></path><path d="M148.6845477332163,-129.23585131599097A197,197,0,0,1,149.62237239472424,-128.14891992902034L129.5767754683267,-110.98022012606953A170.6070045455344,170.6070045455344,0,0,0,128.7645954871653,-111.92153031935675Z" fill-rule="evenodd" style="fill: #DB3F29; stroke: #fff; opacity: 1;" id="p-type-functions"></path><path d="M149.62237239472424,-128.14891992902034A197,197,0,0,1,150.55225142572294,-127.05518324982222L130.38207433161804,-110.03301637683313A170.6070045455344,170.6070045455344,0,0,0,129.5767754683267,-110.98022012606953Z" fill-rule="evenodd" style="fill: #DB3F29; stroke: #fff; opacity: 1;" id="p-type-functions"></path><path d="M150.55225142572294,-127.05518324982222A197,197,0,0,1,151.474135445394,-125.95469936080363L131.1804493119961,-109.07996937248754A170.6070045455344,170.6070045455344,0,0,0,130.38207433161804,-110.03301637683313Z" fill-rule="evenodd" style="fill: #DB3F29; stroke: #fff; opacity: 1;" id="p-type-functions"></path><path d="M151.474135445394,-125.95469936080363A197,197,0,0,1,152.38797549749063,-124.84752670267918L131.97185801210748,-108.12112972417621A170.6070045455344,170.6070045455344,0,0,0,131.1804493119961,-109.07996937248754Z" fill-rule="evenodd" style="fill: #DB3F29; stroke: #fff; opacity: 1;" id="p-type-functions"></path><path d="M152.38797549749063,-124.84752670267918A197,197,0,0,1,153.2937230529374,-123.73372407136759L132.75625840454003,-107.15654835065843A170.6070045455344,170.6070045455344,0,0,0,131.97185801210748,-108.12112972417621Z" fill-rule="evenodd" style="fill: #DB3F29; stroke: #fff; opacity: 1;" id="p-type-functions"></path><path d="M153.2937230529374,-123.73372407136759A197,197,0,0,1,154.1913300124073,-122.61335061486945L133.53360883405463,-106.18627647560525A170.6070045455344,170.6070045455344,0,0,0,132.75625840454003,-107.15654835065843Z" fill-rule="evenodd" style="fill: #DB3F29; stroke: #fff; opacity: 1;" id="p-type-functions"></path><path d="M154.1913300124073,-122.61335061486945A197,197,0,0,1,155.08074870887617,-121.48646583012614L134.30386801979753,-105.21036562487939A170.6070045455344,170.6070045455344,0,0,0,133.53360883405463,-106.18627647560525Z" fill-rule="evenodd" style="fill: #DB3F29; stroke: #fff; opacity: 1;" id="p-type-functions"></path><path d="M155.08074870887617,-121.48646583012614A197,197,0,0,1,155.96193191015396,-120.35312955986024L135.0669950574922,-104.2288676237988A170.6070045455344,170.6070045455344,0,0,0,134.30386801979753,-105.21036562487939Z" fill-rule="evenodd" style="fill: #DB3F29; stroke: #fff; opacity: 1;" id="p-type-functions"></path><path d="M155.96193191015396,-120.35312955986024A197,197,0,0,1,156.83483282139295,-119.21340198939767L135.82294942161175,-103.24183459438471A170.6070045455344,170.6070045455344,0,0,0,135.0669950574922,-104.2288676237988Z" fill-rule="evenodd" style="fill: #DB3F29; stroke: #fff; opacity: 1;" id="p-type-functions"></path><path d="M156.83483282139295,-119.21340198939767A197,197,0,0,1,157.69940508757284,-118.06734364347155L136.57169096753103,-102.24931895259351A170.6070045455344,170.6070045455344,0,0,0,135.82294942161175,-103.24183459438471Z" fill-rule="evenodd" style="fill: #DB3F29; stroke: #fff; opacity: 1;" id="p-type-functions"></path><path d="M157.69940508757284,-118.06734364347155A197,197,0,0,1,158.5556027959624,-116.91501538300803L137.3131799336584,-101.25137340553337A170.6070045455344,170.6070045455344,0,0,0,136.57169096753103,-102.24931895259351Z" fill-rule="evenodd" style="fill: #DB3F29; stroke: #fff; opacity: 1;" id="p-type-functions"></path><path d="M158.5556027959624,-116.91501538300803A197,197,0,0,1,159.402197910685,-115.7581068489063L138.04635280972798,-100.24946122514626A170.6070045455344,170.6070045455344,0,0,0,137.3131799336584,-101.25137340553337Z" fill-rule="evenodd" style="fill: #DB3F29; stroke: #fff; opacity: 1;" id="p-type-functions"></path><path d="M195.6293200149313,23.198473020774507A197,197,0,0,1,195.4550727858594,24.6234547185079L169.26905833109072,21.324537315163646A170.6070045455344,170.6070045455344,0,0,0,169.41996085800602,20.09046696499865Z" fill-rule="evenodd" style="fill: #1DC690; stroke: #fff; opacity: 1;" id="p-type-logs"></path><path d="M195.4550727858594,24.6234547185079A197,197,0,0,1,195.27044600081163,26.04712879847048L169.10916684502033,22.557475235120677A170.6070045455344,170.6070045455344,0,0,0,169.26905833109072,21.324537315163646Z" fill-rule="evenodd" style="fill: #1DC690; stroke: #fff; opacity: 1;" id="p-type-logs"></path><path d="M195.27044600081163,26.04712879847048A197,197,0,0,1,195.07544946431253,27.46941965707421L168.9402948907621,23.789215250241885A170.6070045455344,170.6070045455344,0,0,0,169.10916684502033,22.557475235120677Z" fill-rule="evenodd" style="fill: #1DC690; stroke: #fff; opacity: 1;" id="p-type-logs"></path><path d="M195.07544946431253,27.46941965707421A197,197,0,0,1,194.87009353156765,28.8902517641864L168.7624514361872,25.019691949513618A170.6070045455344,170.6070045455344,0,0,0,168.9402948907621,23.789215250241885Z" fill-rule="evenodd" style="fill: #1DC690; stroke: #fff; opacity: 1;" id="p-type-logs"></path><path d="M194.87009353156765,28.8902517641864A197,197,0,0,1,194.65438910791386,30.309549667140725L168.57564592559433,26.248839989010044A170.6070045455344,170.6070045455344,0,0,0,168.7624514361872,25.019691949513618Z" fill-rule="evenodd" style="fill: #1DC690; stroke: #fff; opacity: 1;" id="p-type-logs"></path><path d="M194.65438910791386,30.309549667140725A197,197,0,0,1,194.42834764824,31.72723799474411L168.37988827920825,27.476594095363254A170.6070045455344,170.6070045455344,0,0,0,168.57564592559433,26.248839989010044Z" fill-rule="evenodd" style="fill: #1DC690; stroke: #fff; opacity: 1;" id="p-type-logs"></path><path d="M194.42834764824,31.72723799474411A197,197,0,0,1,194.1919811563787,33.14324146127927L168.17518889265295,28.702889069229524A170.6070045455344,170.6070045455344,0,0,0,168.37988827920825,27.476594095363254Z" fill-rule="evenodd" style="fill: #1DC690; stroke: #fff; opacity: 1;" id="p-type-logs"></path><path d="M194.1919811563787,33.14324146127927A197,197,0,0,1,193.94530218446894,34.5574848705027L167.9615586363997,29.92765978875173A170.6070045455344,170.6070045455344,0,0,0,168.17518889265295,28.702889069229524Z" fill-rule="evenodd" style="fill: #1DC690; stroke: #fff; opacity: 1;" id="p-type-logs"></path><path d="M193.94530218446894,34.5574848705027A197,197,0,0,1,193.68832383228943,35.96989311963801L167.73900885518955,31.150841213017607A170.6070045455344,170.6070045455344,0,0,0,167.9615586363997,29.92765978875173Z" fill-rule="evenodd" style="fill: #1DC690; stroke: #fff; opacity: 1;" id="p-type-logs"></path><path d="M193.68832383228943,35.96989311963801A197,197,0,0,1,193.4210597465629,37.38039120336416L167.50755136743115,32.372368385513724A170.6070045455344,170.6070045455344,0,0,0,167.73900885518955,31.150841213017607Z" fill-rule="evenodd" style="fill: #1DC690; stroke: #fff; opacity: 1;" id="p-type-logs"></path><path d="M193.4210597465629,37.38039120336416A197,197,0,0,1,193.1435241202315,38.7889042177986L167.26719846457294,33.59217643757495A170.6070045455344,170.6070045455344,0,0,0,167.50755136743115,32.372368385513724Z" fill-rule="evenodd" style="fill: #1DC690; stroke: #fff; opacity: 1;" id="p-type-logs"></path><path d="M193.1435241202315,38.7889042177986A197,197,0,0,1,192.855731691703,40.19535736447504L167.01796291045045,34.81020059182931A170.6070045455344,170.6070045455344,0,0,0,167.26719846457294,33.59217643757495Z" fill-rule="evenodd" style="fill: #1DC690; stroke: #fff; opacity: 1;" id="p-type-logs"></path><path d="M192.855731691703,40.19535736447504A197,197,0,0,1,192.55769774406824,41.59967595431554L166.75985794060858,36.02637616563792A170.6070045455344,170.6070045455344,0,0,0,167.01796291045045,34.81020059182931Z" fill-rule="evenodd" style="fill: #1DC690; stroke: #fff; opacity: 1;" id="p-type-logs"></path><path d="M192.55769774406824,41.59967595431554A197,197,0,0,1,192.24943810428934,43.00178541159688L166.4928972615986,37.24063857452997A170.6070045455344,170.6070045455344,0,0,0,166.75985794060858,36.02637616563792Z" fill-rule="evenodd" style="fill: #1DC690; stroke: #fff; opacity: 1;" id="p-type-logs"></path><path d="M192.24943810428934,43.00178541159688A197,197,0,0,1,191.93096914235937,44.40161127791083L166.2170950502504,38.45292333563241A170.6070045455344,170.6070045455344,0,0,0,166.4928972615986,37.24063857452997Z" fill-rule="evenodd" style="fill: #1DC690; stroke: #fff; opacity: 1;" id="p-type-logs"></path><path d="M191.93096914235937,44.40161127791083A197,197,0,0,1,191.602307770433,45.79907921611831L165.9324659529195,39.66316607109435A170.6070045455344,170.6070045455344,0,0,0,166.2170950502504,38.45292333563241Z" fill-rule="evenodd" style="fill: #1DC690; stroke: #fff; opacity: 1;" id="p-type-logs"></path><path d="M191.602307770433,45.79907921611831A197,197,0,0,1,191.2634714419283,47.19411501429692L165.63902508470937,40.871302511505725A170.6070045455344,170.6070045455344,0,0,0,165.9324659529195,39.66316607109435Z" fill-rule="evenodd" style="fill: #1DC690; stroke: #fff; opacity: 1;" id="p-type-logs"></path><path d="M191.2634714419283,47.19411501429692A197,197,0,0,1,190.9144781506,48.586644589682024L165.33678802866874,42.077268499310385A170.6070045455344,170.6070045455344,0,0,0,165.63902508470937,40.871302511505725Z" fill-rule="evenodd" style="fill: #1DC690; stroke: #fff; opacity: 1;" id="p-type-logs"></path><path d="M190.9144781506,48.586644589682024A197,197,0,0,1,190.5553464295839,49.97659399260085L165.025770834964,43.2809999922131A170.6070045455344,170.6070045455344,0,0,0,165.33678802866874,42.077268499310385Z" fill-rule="evenodd" style="fill: #1DC690; stroke: #fff; opacity: 1;" id="p-type-logs"></path><path d="M190.5553464295839,49.97659399260085A197,197,0,0,1,190.18609535041264,51.36388941039953L164.70599002002686,44.482433066580505A170.6070045455344,170.6070045455344,0,0,0,165.025770834964,43.2809999922131Z" fill-rule="evenodd" style="fill: #1DC690; stroke: #fff; opacity: 1;" id="p-type-logs"></path><path d="M190.18609535041264,51.36388941039953A197,197,0,0,1,189.80674452200293,52.74845717136295L164.37746256567735,45.681503920835766A170.6070045455344,170.6070045455344,0,0,0,164.70599002002686,44.482433066580505Z" fill-rule="evenodd" style="fill: #1DC690; stroke: #fff; opacity: 1;" id="p-type-logs"></path><path d="M189.80674452200293,52.74845717136295A197,197,0,0,1,189.41731408961425,54.13022374862698L164.040205918222,46.878148878846694A170.6070045455344,170.6070045455344,0,0,0,164.37746256567735,45.681503920835766Z" fill-rule="evenodd" style="fill: #1DC690; stroke: #fff; opacity: 1;" id="p-type-logs"></path><path d="M189.41731408961425,54.13022374862698A197,197,0,0,1,189.01782473377904,55.50911576408314L163.69423798752726,48.07230439330725A170.6070045455344,170.6070045455344,0,0,0,164.040205918222,46.878148878846694Z" fill-rule="evenodd" style="fill: #1DC690; stroke: #fff; opacity: 1;" id="p-type-logs"></path><path d="M189.01782473377904,55.50911576408314A197,197,0,0,1,188.6082976692045,56.88505999227529L163.3395771460684,49.26390704911223A170.6070045455344,170.6070045455344,0,0,0,163.69423798752726,48.07230439330725Z" fill-rule="evenodd" style="fill: #1DC690; stroke: #fff; opacity: 1;" id="p-type-logs"></path><path d="M188.6082976692045,56.88505999227529A197,197,0,0,1,188.18875464364578,58.25798336428826L162.976242227954,50.452893566724846A170.6070045455344,170.6070045455344,0,0,0,163.3395771460684,49.26390704911223Z" fill-rule="evenodd" style="fill: #1DC690; stroke: #fff; opacity: 1;" id="p-type-logs"></path><path d="M188.18875464364578,58.25798336428826A197,197,0,0,1,187.75921793675147,59.627812971628074L162.6042525279256,51.63920080553719A170.6070045455344,170.6070045455344,0,0,0,162.976242227954,50.452893566724846Z" fill-rule="evenodd" style="fill: #1DC690; stroke: #fff; opacity: 1;" id="p-type-logs"></path><path d="M187.75921793675147,59.627812971628074A197,197,0,0,1,187.31971035888014,60.99447607009384L162.22362780033328,52.822765767223295A170.6070045455344,170.6070045455344,0,0,0,162.6042525279256,51.63920080553719Z" fill-rule="evenodd" style="fill: #1DC690; stroke: #fff; opacity: 1;" id="p-type-logs"></path><path d="M187.31971035888014,60.99447607009384A197,197,0,0,1,186.87025524988906,62.35790008364068L161.83438825808628,54.0035255990846A170.6070045455344,170.6070045455344,0,0,0,162.22362780033328,52.822765767223295Z" fill-rule="evenodd" style="fill: #1DC690; stroke: #fff; opacity: 1;" id="p-type-logs"></path><path d="M186.87025524988906,62.35790008364068A197,197,0,0,1,186.41087647789476,63.718012608233934L161.43655457157993,55.18141759738774A170.6070045455344,170.6070045455344,0,0,0,161.83438825808628,54.0035255990846Z" fill-rule="evenodd" style="fill: #1DC690; stroke: #fff; opacity: 1;" id="p-type-logs"></path><path d="M186.41087647789476,63.718012608233934A197,197,0,0,1,185.94159843800566,65.07474141569408L161.03014786759778,56.35637921069439A170.6070045455344,170.6070045455344,0,0,0,161.43655457157993,55.18141759738774Z" fill-rule="evenodd" style="fill: #1DC690; stroke: #fff; opacity: 1;" id="p-type-logs"></path><path d="M185.94159843800566,65.07474141569408A197,197,0,0,1,185.46244605102638,66.42801445753241L160.61518972818976,57.52834804318304A170.6070045455344,170.6070045455344,0,0,0,161.03014786759778,56.35637921069439Z" fill-rule="evenodd" style="fill: #1DC690; stroke: #fff; opacity: 1;" id="p-type-logs"></path><path d="M185.46244605102638,66.42801445753241A197,197,0,0,1,184.97344476213436,67.7777598687772L160.19170218952596,58.697261857962495A170.6070045455344,170.6070045455344,0,0,0,160.61518972818976,57.52834804318304Z" fill-rule="evenodd" style="fill: #1DC690; stroke: #fff; opacity: 1;" id="p-type-logs"></path><path d="M184.97344476213436,67.7777598687772A197,197,0,0,1,184.47462053952881,69.12390597178992L159.75970774072655,59.863058580376936A170.6070045455344,170.6070045455344,0,0,0,160.19170218952596,58.697261857962495Z" fill-rule="evenodd" style="fill: #1DC690; stroke: #fff; opacity: 1;" id="p-type-logs"></path><path d="M184.47462053952881,69.12390597178992A197,197,0,0,1,183.9659998730514,70.46638128007177L159.31922932266733,61.02567630130236A170.6070045455344,170.6070045455344,0,0,0,159.75970774072655,59.863058580376936Z" fill-rule="evenodd" style="fill: #1DC690; stroke: #fff; opacity: 1;" id="p-type-logs"></path><path d="M183.9659998730514,70.46638128007177A197,197,0,0,1,183.44760977277974,71.8051145020599L158.8702903267617,62.18505328043427A170.6070045455344,170.6070045455344,0,0,0,159.31922932266733,61.02567630130236Z" fill-rule="evenodd" style="fill: #1DC690; stroke: #fff; opacity: 1;" id="p-type-logs"></path><path d="M183.44760977277974,71.8051145020599A197,197,0,0,1,182.91947776759284,73.14003454491326L158.41291459371823,63.34112794956631A170.6070045455344,170.6070045455344,0,0,0,158.8702903267617,62.18505328043427Z" fill-rule="evenodd" style="fill: #1DC690; stroke: #fff; opacity: 1;" id="p-type-logs"></path><path d="M182.91947776759284,73.14003454491326A197,197,0,0,1,182.38163190370943,74.4710705182881L157.94712641227483,64.49383891585985A170.6070045455344,170.6070045455344,0,0,0,158.41291459371823,63.34112794956631Z" fill-rule="evenodd" style="fill: #1DC690; stroke: #fff; opacity: 1;" id="p-type-logs"></path><path d="M182.38163190370943,74.4710705182881A197,197,0,0,1,181.83410074319835,75.79815173810238L157.47295051790866,65.64312496510426A170.6070045455344,170.6070045455344,0,0,0,157.94712641227483,64.49383891585985Z" fill-rule="evenodd" style="fill: #1DC690; stroke: #fff; opacity: 1;" id="p-type-logs"></path><path d="M181.83410074319835,75.79815173810238A197,197,0,0,1,181.2769133624619,77.12120773028957L156.99041209152276,66.7889250649676A170.6070045455344,170.6070045455344,0,0,0,157.47295051790866,65.64312496510426Z" fill-rule="evenodd" style="fill: #1DC690; stroke: #fff; opacity: 1;" id="p-type-logs"></path><path d="M181.2769133624619,77.12120773028957A197,197,0,0,1,180.71009935069176,78.44016823454109L156.49953675810886,67.93117836823774A170.6070045455344,170.6070045455344,0,0,0,156.99041209152276,66.7889250649676Z" fill-rule="evenodd" style="fill: #1DC690; stroke: #fff; opacity: 1;" id="p-type-logs"></path><path d="M180.71009935069176,78.44016823454109A197,197,0,0,1,180.1336888082976,79.75496320803742L156.00035058538634,69.06982421605366A170.6070045455344,170.6070045455344,0,0,0,156.49953675810886,67.93117836823774Z" fill-rule="evenodd" style="fill: #1DC690; stroke: #fff; opacity: 1;" id="p-type-logs"></path><path d="M180.1336888082976,79.75496320803742A197,197,0,0,1,179.5477123453086,81.06552282916776L155.4928800824181,70.20480214112663A170.6070045455344,170.6070045455344,0,0,0,156.00035058538634,69.06982421605366Z" fill-rule="evenodd" style="fill: #1DC690; stroke: #fff; opacity: 1;" id="p-type-logs"></path><path d="M179.5477123453086,81.06552282916776A197,197,0,0,1,178.95220107974805,82.37177750123777L154.97715219820287,71.33605187095138A170.6070045455344,170.6070045455344,0,0,0,155.4928800824181,70.20480214112663Z" fill-rule="evenodd" style="fill: #1DC690; stroke: #fff; opacity: 1;" id="p-type-logs"></path><path d="M178.95220107974805,82.37177750123777A197,197,0,0,1,178.34718663598068,83.67365785616563L154.4531943202438,72.46351333100681A170.6070045455344,170.6070045455344,0,0,0,154.97715219820287,71.33605187095138Z" fill-rule="evenodd" style="fill: #1DC690; stroke: #fff; opacity: 1;" id="p-type-logs"></path><path d="M178.34718663598068,83.67365785616563A197,197,0,0,1,177.73270114303338,84.97109475816572L153.92103427309445,73.58712664794626A170.6070045455344,170.6070045455344,0,0,0,154.4531943202438,72.46351333100681Z" fill-rule="evenodd" style="fill: #1DC690; stroke: #fff; opacity: 1;" id="p-type-logs"></path><path d="M177.73270114303338,84.97109475816572A197,197,0,0,1,177.10877723288894,86.26401930741996L153.38070031688082,74.70683215277698A170.6070045455344,170.6070045455344,0,0,0,153.92103427309445,73.58712664794626Z" fill-rule="evenodd" style="fill: #1DC690; stroke: #fff; opacity: 1;" id="p-type-logs"></path><path d="M177.10877723288894,86.26401930741996A197,197,0,0,1,176.47544803875311,87.55236284373686L152.83222114580087,75.8225703840289A170.6070045455344,170.6070045455344,0,0,0,153.38070031688082,74.70683215277698Z" fill-rule="evenodd" style="fill: #1DC690; stroke: #fff; opacity: 1;" id="p-type-logs"></path><path d="M176.47544803875311,87.55236284373686A197,197,0,0,1,175.83274719329518,88.83605695019756L152.27562588660058,76.93428209091223A170.6070045455344,170.6070045455344,0,0,0,152.83222114580087,75.8225703840289Z" fill-rule="evenodd" style="fill: #1DC690; stroke: #fff; opacity: 1;" id="p-type-logs"></path><path d="M175.83274719329518,88.83605695019756A197,197,0,0,1,175.1807088268619,90.11503345678916L151.71094409702724,78.04190823646402A170.6070045455344,170.6070045455344,0,0,0,152.27562588660058,76.93428209091223Z" fill-rule="evenodd" style="fill: #1DC690; stroke: #fff; opacity: 1;" id="p-type-logs"></path><path d="M175.1807088268619,90.11503345678916A197,197,0,0,1,174.5193675656649,91.38922444402483L151.13820576425982,79.1453900006833A170.6070045455344,170.6070045455344,0,0,0,151.71094409702724,78.04190823646402Z" fill-rule="evenodd" style="fill: #1DC690; stroke: #fff; opacity: 1;" id="p-type-logs"></path><path d="M174.5193675656649,91.38922444402483A197,197,0,0,1,173.84875852994205,92.65856224655067L150.55744130331644,80.24466878365457A170.6070045455344,170.6070045455344,0,0,0,151.13820576425982,79.1453900006833Z" fill-rule="evenodd" style="fill: #1DC690; stroke: #fff; opacity: 1;" id="p-type-logs"></path><path d="M173.84875852994205,92.65856224655067A197,197,0,0,1,173.16891733209224,93.92297945673896L149.96868155543925,81.3396862086599A170.6070045455344,170.6070045455344,0,0,0,150.55744130331644,80.24466878365457Z" fill-rule="evenodd" style="fill: #1DC690; stroke: #fff; opacity: 1;" id="p-type-logs"></path><path d="M173.16891733209224,93.92297945673896A197,197,0,0,1,172.4798800747843,95.18240892826798L149.37195778645662,82.43038412527883A170.6070045455344,170.6070045455344,0,0,0,149.96868155543925,81.3396862086599Z" fill-rule="evenodd" style="fill: #1DC690; stroke: #fff; opacity: 1;" id="p-type-logs"></path><path d="M172.4798800747843,95.18240892826798A197,197,0,0,1,171.78168334903984,96.43678377968757L148.7673016851228,83.51670461247653A170.6070045455344,170.6070045455344,0,0,0,149.37195778645662,82.43038412527883Z" fill-rule="evenodd" style="fill: #1DC690; stroke: #fff; opacity: 1;" id="p-type-logs"></path><path d="M171.78168334903984,96.43678377968757A197,197,0,0,1,171.07436423228992,97.68603739797106L148.154745361435,84.59858998167967A170.6070045455344,170.6070045455344,0,0,0,148.7673016851228,83.51670461247653Z" fill-rule="evenodd" style="fill: #1DC690; stroke: #fff; opacity: 1;" id="p-type-logs"></path><path d="M171.07436423228992,97.68603739797106A197,197,0,0,1,170.35796028640627,98.93010344205257L147.53432134492834,85.67598277983986A170.6070045455344,170.6070045455344,0,0,0,148.154745361435,84.59858998167967Z" fill-rule="evenodd" style="fill: #1DC690; stroke: #fff; opacity: 1;" id="p-type-logs"></path><path d="M170.35796028640627,98.93010344205257A197,197,0,0,1,169.63250955570646,100.16891584635005L146.90606258294832,86.74882579248475A170.6070045455344,170.6070045455344,0,0,0,147.53432134492834,85.67598277983986Z" fill-rule="evenodd" style="fill: #1DC690; stroke: #fff; opacity: 1;" id="p-type-logs"></path><path d="M169.63250955570646,100.16891584635005A197,197,0,0,1,168.89805056493353,101.40240882427376L146.2700024389011,87.8170620467564A170.6070045455344,170.6070045455344,0,0,0,146.90606258294832,86.74882579248475Z" fill-rule="evenodd" style="fill: #1DC690; stroke: #fff; opacity: 1;" id="p-type-logs"></path><path d="M168.89805056493353,101.40240882427376A197,197,0,0,1,168.15462231721034,102.6305168717197L145.62617469048186,88.8806348144367A170.6070045455344,170.6070045455344,0,0,0,146.2700024389011,87.8170620467564Z" fill-rule="evenodd" style="fill: #1DC690; stroke: #fff; opacity: 1;" id="p-type-logs"></path><path d="M168.15462231721034,102.6305168717197A197,197,0,0,1,167.40226429196815,103.85317477054828L144.97461352788102,89.93948761495994A170.6070045455344,170.6070045455344,0,0,0,145.62617469048186,88.8806348144367Z" fill-rule="evenodd" style="fill: #1DC690; stroke: #fff; opacity: 1;" id="p-type-logs"></path><path d="M167.40226429196815,103.85317477054828A197,197,0,0,1,166.64101644285012,105.07031759204763L144.31535355196857,90.99356421841226A170.6070045455344,170.6070045455344,0,0,0,144.97461352788102,89.93948761495994Z" fill-rule="evenodd" style="fill: #1DC690; stroke: #fff; opacity: 1;" id="p-type-logs"></path><path d="M166.64101644285012,105.07031759204763A197,197,0,0,1,165.87091919558966,106.28188070038169L143.64842977245652,92.04280864851759A170.6070045455344,170.6070045455344,0,0,0,144.31535355196857,90.99356421841226Z" fill-rule="evenodd" style="fill: #1DC690; stroke: #fff; opacity: 1;" id="p-type-logs"></path><path d="M165.87091919558966,106.28188070038169A197,197,0,0,1,165.09201344586353,107.4877997560226L142.97387760603993,93.08716518561036A170.6070045455344,170.6070045455344,0,0,0,143.64842977245652,92.04280864851759Z" fill-rule="evenodd" style="fill: #1DC690; stroke: #fff; opacity: 1;" id="p-type-logs"></path><path d="M165.09201344586353,107.4877997560226A197,197,0,0,1,164.30434055712024,108.68801071916742L142.29173287451596,94.12657836959437A170.6070045455344,170.6070045455344,0,0,0,142.97387760603993,93.08716518561036Z" fill-rule="evenodd" style="fill: #1DC690; stroke: #fff; opacity: 1;" id="p-type-logs"></path><path d="M164.30434055712024,108.68801071916742A197,197,0,0,1,163.50794235838327,109.88244985313902L141.6020318028816,95.16099300288805A170.6070045455344,170.6070045455344,0,0,0,142.29173287451596,94.12657836959437Z" fill-rule="evenodd" style="fill: #1DC690; stroke: #fff; opacity: 1;" id="p-type-logs"></path><path d="M163.50794235838327,109.88244985313902A197,197,0,0,1,162.70286114202997,111.07105372777065L140.90481101740997,96.19035415335564A170.6070045455344,170.6070045455344,0,0,0,141.6020318028816,95.16099300288805Z" fill-rule="evenodd" style="fill: #1DC690; stroke: #fff; opacity: 1;" id="p-type-logs"></path><path d="M162.70286114202997,111.07105372777065A197,197,0,0,1,161.88913966154544,112.2537592227745L140.20010754370526,97.21460715722444A170.6070045455344,170.6070045455344,0,0,0,140.90481101740997,96.19035415335564Z" fill-rule="evenodd" style="fill: #1DC690; stroke: #fff; opacity: 1;" id="p-type-logs"></path><path d="M161.88913966154544,112.2537592227745A197,197,0,0,1,161.06682112925228,113.43050353109365L139.48795880473665,98.23369762198756A170.6070045455344,170.6070045455344,0,0,0,140.20010754370526,97.21460715722444Z" fill-rule="evenodd" style="fill: #1DC690; stroke: #fff; opacity: 1;" id="p-type-logs"></path><path d="M161.06682112925228,113.43050353109365A197,197,0,0,1,160.23594921401576,114.60122416223732L138.7684026188508,99.24757142929253A170.6070045455344,170.6070045455344,0,0,0,139.48795880473665,98.23369762198756Z" fill-rule="evenodd" style="fill: #1DC690; stroke: #fff; opacity: 1;" id="p-type-logs"></path><path d="M160.23594921401576,114.60122416223732A197,197,0,0,1,159.39656803892473,115.76585894559949L138.04147719776353,100.25617473781516A170.6070045455344,170.6070045455344,0,0,0,138.7684026188508,99.24757142929253Z" fill-rule="evenodd" style="fill: #1DC690; stroke: #fff; opacity: 1;" id="p-type-logs"></path><path d="M159.39656803892473,115.76585894559949A197,197,0,0,1,158.54872217894865,116.92434603376044L137.30722114453079,101.25945398611881A170.6070045455344,170.6070045455344,0,0,0,138.04147719776353,100.25617473781516Z" fill-rule="evenodd" style="fill: #1DC690; stroke: #fff; opacity: 1;" id="p-type-logs"></path><path d="M158.54872217894865,116.92434603376044A197,197,0,0,1,157.69245665857034,118.07662390577114L136.56567345149844,102.25735589549875A170.6070045455344,170.6070045455344,0,0,0,137.30722114453079,101.25945398611881Z" fill-rule="evenodd" style="fill: #1DC690; stroke: #fff; opacity: 1;" id="p-type-logs"></path><path d="M157.69245665857034,118.07662390577114A197,197,0,0,1,156.8278169493949,119.22263137042015L135.81687349823173,103.24982747281139A170.6070045455344,170.6070045455344,0,0,0,136.56567345149844,102.25735589549875Z" fill-rule="evenodd" style="fill: #1DC690; stroke: #fff; opacity: 1;" id="p-type-logs"></path><path d="M156.8278169493949,119.22263137042015A197,197,0,0,1,155.95484896773516,120.36230756948338L135.06086104942398,104.23681601328863A170.6070045455344,170.6070045455344,0,0,0,135.81687349823173,103.24982747281139Z" fill-rule="evenodd" style="fill: #1DC690; stroke: #fff; opacity: 1;" id="p-type-logs"></path><path d="M155.95484896773516,120.36230756948338A197,197,0,0,1,155.0735990721732,121.49559198095575L134.29767625278495,105.2182691033366A170.6070045455344,170.6070045455344,0,0,0,135.06086104942398,104.23681601328863Z" fill-rule="evenodd" style="fill: #1DC690; stroke: #fff; opacity: 1;" id="p-type-logs"></path><path d="M155.0735990721732,121.49559198095575A197,197,0,0,1,154.18411406109848,122.62242442226533L133.52735963690876,106.19413462331913A170.6070045455344,170.6070045455344,0,0,0,134.29767625278495,105.2182691033366Z" fill-rule="evenodd" style="fill: #1DC690; stroke: #fff; opacity: 1;" id="p-type-logs"></path><path d="M66.64208433444708,185.38563211737969A197,197,0,0,1,65.28936537008175,185.8663465223653L56.54224900745479,160.96497779696978A170.6070045455344,170.6070045455344,0,0,0,57.713737994776146,160.54866691028715Z" fill-rule="evenodd" style="fill: #D7A449; stroke: #fff; opacity: 1;" id="p-type-tokenTransfers"></path><path d="M65.28936537008175,185.8663465223653A197,197,0,0,1,63.93317924258359,186.33719057648068L55.36775736878135,161.37274070905457A170.6070045455344,170.6070045455344,0,0,0,56.54224900745479,160.96497779696978Z" fill-rule="evenodd" style="fill: #D7A449; stroke: #fff; opacity: 1;" id="p-type-tokenTransfers"></path><path d="M63.93317924258359,186.33719057648068A197,197,0,0,1,62.573597971622526,186.79813927575873L54.19032544961953,161.77193399247076A170.6070045455344,170.6070045455344,0,0,0,55.36775736878135,161.37274070905457Z" fill-rule="evenodd" style="fill: #D7A449; stroke: #fff; opacity: 1;" id="p-type-tokenTransfers"></path><path d="M62.573597971622526,186.79813927575873A197,197,0,0,1,61.210693757166055,187.24916814172082L53.01001577697535,162.162536448234A170.6070045455344,170.6070045455344,0,0,0,54.19032544961953,161.77193399247076Z" fill-rule="evenodd" style="fill: #D7A449; stroke: #fff; opacity: 1;" id="p-type-tokenTransfers"></path><path d="M61.210693757166055,187.24916814172082A197,197,0,0,1,59.84453897564515,187.69025322267666L51.82689103067667,162.5445273335721A170.6070045455344,170.6070045455344,0,0,0,53.01001577697535,162.162536448234Z" fill-rule="evenodd" style="fill: #D7A449; stroke: #fff; opacity: 1;" id="p-type-tokenTransfers"></path><path d="M59.84453897564515,187.69025322267666A197,197,0,0,1,58.47520617611073,188.1213710949964L50.641014040044595,162.91788636302647A170.6070045455344,170.6070045455344,0,0,0,51.82689103067667,162.5445273335721Z" fill-rule="evenodd" style="fill: #D7A449; stroke: #fff; opacity: 1;" id="p-type-tokenTransfers"></path><path d="M58.47520617611073,188.1213710949964A197,197,0,0,1,57.10276807638096,188.54249886435431L49.45244778055697,163.2825937095295A170.6070045455344,170.6070045455344,0,0,0,50.641014040044595,162.91788636302647Z" fill-rule="evenodd" style="fill: #D7A449; stroke: #fff; opacity: 1;" id="p-type-tokenTransfers"></path><path d="M57.10276807638096,188.54249886435431A197,197,0,0,1,55.727297559179604,188.95361416694485L48.26125537050408,163.63863000545743A170.6070045455344,170.6070045455344,0,0,0,49.45244778055697,163.2825937095295Z" fill-rule="evenodd" style="fill: #D7A449; stroke: #fff; opacity: 1;" id="p-type-tokenTransfers"></path><path d="M55.727297559179604,188.95361416694485A197,197,0,0,1,54.34886766826565,189.35469517066997L47.06750006763678,163.98597634365876A170.6070045455344,170.6070045455344,0,0,0,48.26125537050408,163.63863000545743Z" fill-rule="evenodd" style="fill: #D7A449; stroke: #fff; opacity: 1;" id="p-type-tokenTransfers"></path><path d="M54.34886766826565,189.35469517066997A197,197,0,0,1,52.967551604554295,189.74572057629885L45.871245265807225,164.32461427845848A170.6070045455344,170.6070045455344,0,0,0,47.06750006763678,163.98597634365876Z" fill-rule="evenodd" style="fill: #D7A449; stroke: #fff; opacity: 1;" id="p-type-tokenTransfers"></path><path d="M52.967551604554295,189.74572057629885A197,197,0,0,1,51.5834227222297,190.12666961859864L44.67255449160236,164.65452582663744A170.6070045455344,170.6070045455344,0,0,0,45.871245265807225,164.32461427845848Z" fill-rule="evenodd" style="fill: #D7A449; stroke: #fff; opacity: 1;" id="p-type-tokenTransfers"></path><path d="M51.5834227222297,190.12666961859864A197,197,0,0,1,50.196554524849525,190.49752206743742L43.4714914009704,164.9756934683875A170.6070045455344,170.6070045455344,0,0,0,44.67255449160236,164.65452582663744Z" fill-rule="evenodd" style="fill: #D7A449; stroke: #fff; opacity: 1;" id="p-type-tokenTransfers"></path><path d="M50.196554524849525,190.49752206743742A197,197,0,0,1,48.80702066144156,190.85825822885846L42.26811977584037,165.2881001482418A170.6070045455344,170.6070045455344,0,0,0,43.4714914009704,164.9756934683875Z" fill-rule="evenodd" style="fill: #D7A449; stroke: #fff; opacity: 1;" id="p-type-tokenTransfers"></path><path d="M48.80702066144156,190.85825822885846A197,197,0,0,1,47.41489492259261,191.20885894612599L41.06250352073499,165.59172927598053A170.6070045455344,170.6070045455344,0,0,0,42.26811977584037,165.2881001482418Z" fill-rule="evenodd" style="fill: #D7A449; stroke: #fff; opacity: 1;" id="p-type-tokenTransfers"></path><path d="M47.41489492259261,191.20885894612599A197,197,0,0,1,46.02025123652988,191.54930560074257L39.8547066593771,165.8865647275119A170.6070045455344,170.6070045455344,0,0,0,41.06250352073499,165.59172927598053Z" fill-rule="evenodd" style="fill: #D7A449; stroke: #fff; opacity: 1;" id="p-type-tokenTransfers"></path><path d="M46.02025123652988,191.54930560074257A197,197,0,0,1,44.623163665195094,191.87958011343784L38.64479333128967,166.17259084572856A170.6070045455344,170.6070045455344,0,0,0,39.8547066593771,165.8865647275119Z" fill-rule="evenodd" style="fill: #D7A449; stroke: #fff; opacity: 1;" id="p-type-tokenTransfers"></path><path d="M44.623163665195094,191.87958011343784A197,197,0,0,1,43.223706400311386,192.19966494512855L37.432827788389694,166.44979244133876A170.6070045455344,170.6070045455344,0,0,0,38.64479333128967,166.17259084572856Z" fill-rule="evenodd" style="fill: #D7A449; stroke: #fff; opacity: 1;" id="p-type-tokenTransfers"></path><path d="M43.223706400311386,192.19966494512855A197,197,0,0,1,41.82195375944347,192.50954309785L36.21887439157615,166.71815479367334A170.6070045455344,170.6070045455344,0,0,0,37.432827788389694,166.44979244133876Z" fill-rule="evenodd" style="fill: #D7A449; stroke: #fff; opacity: 1;" id="p-type-tokenTransfers"></path><path d="M41.82195375944347,192.50954309785A197,197,0,0,1,40.41798018205096,192.80919811565872L35.002997607312125,166.97766365146717A170.6070045455344,170.6070045455344,0,0,0,36.21887439157615,166.71815479367334Z" fill-rule="evenodd" style="fill: #D7A449; stroke: #fff; opacity: 1;" id="p-type-tokenTransfers"></path><path d="M40.41798018205096,192.80919811565872A197,197,0,0,1,39.01186022553536,193.0986140855063L33.78526200420134,167.22830523361608A170.6070045455344,170.6070045455344,0,0,0,35.002997607312125,166.97766365146717Z" fill-rule="evenodd" style="fill: #D7A449; stroke: #fff; opacity: 1;" id="p-type-tokenTransfers"></path><path d="M39.01186022553536,193.0986140855063A197,197,0,0,1,37.60366856128067,193.37777563808453L32.5657322495593,167.47006622990872A170.6070045455344,170.6070045455344,0,0,0,33.78526200420134,167.22830523361608Z" fill-rule="evenodd" style="fill: #D7A449; stroke: #fff; opacity: 1;" id="p-type-tokenTransfers"></path><path d="M37.60366856128067,193.37777563808453A197,197,0,0,1,36.19347997068805,193.64666794864146L31.344473105979116,167.70293380173334A170.6070045455344,170.6070045455344,0,0,0,32.5657322495593,167.47006622990872Z" fill-rule="evenodd" style="fill: #D7A449; stroke: #fff; opacity: 1;" id="p-type-tokenTransfers"></path><path d="M36.19347997068805,193.64666794864146A197,197,0,0,1,34.781369341204545,193.90527673776882L30.12154942789236,167.92689558275956A170.6070045455344,170.6070045455344,0,0,0,31.344473105979116,167.70293380173334Z" fill-rule="evenodd" style="fill: #D7A449; stroke: #fff; opacity: 1;" id="p-type-tokenTransfers"></path><path d="M34.781369341204545,193.90527673776882A197,197,0,0,1,33.367411662346214,194.15358827216025L28.897026158124966,168.14193967959523A170.6070045455344,170.6070045455344,0,0,0,30.12154942789236,167.92689558275956Z" fill-rule="evenodd" style="fill: #D7A449; stroke: #fff; opacity: 1;" id="p-type-tokenTransfers"></path><path d="M33.367411662346214,194.15358827216025A197,197,0,0,1,31.951682021715893,194.39158936534048L27.670968324448495,168.3480546724178A170.6070045455344,170.6070045455344,0,0,0,28.897026158124966,168.14193967959523Z" fill-rule="evenodd" style="fill: #D7A449; stroke: #fff; opacity: 1;" id="p-type-tokenTransfers"></path><path d="M31.951682021715893,194.39158936534048A197,197,0,0,1,30.534255601015655,194.61926737836583L26.44344103612684,168.5452296155809A170.6070045455344,170.6070045455344,0,0,0,27.670968324448495,168.3480546724178Z" fill-rule="evenodd" style="fill: #D7A449; stroke: #fff; opacity: 1;" id="p-type-tokenTransfers"></path><path d="M30.534255601015655,194.61926737836583A197,197,0,0,1,29.115207672054336,194.83661022049512L25.21450948045864,168.73345403819556A170.6070045455344,170.6070045455344,0,0,0,26.44344103612684,168.5452296155809Z" fill-rule="evenodd" style="fill: #D7A449; stroke: #fff; opacity: 1;" id="p-type-tokenTransfers"></path><path d="M29.115207672054336,194.83661022049512A197,197,0,0,1,27.694613592750272,195.04360634983206L23.984238919315555,168.9127179446864A170.6070045455344,170.6070045455344,0,0,0,25.21450948045864,168.73345403819556Z" fill-rule="evenodd" style="fill: #D7A449; stroke: #fff; opacity: 1;" id="p-type-tokenTransfers"></path><path d="M27.694613592750272,195.04360634983206A197,197,0,0,1,26.272548803129407,195.2402447739379L22.752694685676513,169.0830118153222A170.6070045455344,170.6070045455344,0,0,0,23.984238919315555,168.9127179446864Z" fill-rule="evenodd" style="fill: #D7A449; stroke: #fff; opacity: 1;" id="p-type-tokenTransfers"></path><path d="M26.272548803129407,195.2402447739379A197,197,0,0,1,24.84908882131914,195.4265150504153L21.51994218015829,169.2443266067216A170.6070045455344,170.6070045455344,0,0,0,22.752694685676513,169.0830118153222Z" fill-rule="evenodd" style="fill: #D7A449; stroke: #fff; opacity: 1;" id="p-type-tokenTransfers"></path><path d="M24.84908882131914,195.4265150504153A197,197,0,0,1,23.424309239537923,195.60240728746285L20.286046867542385,169.39665375233324A170.6070045455344,170.6070045455344,0,0,0,21.51994218015829,169.2443266067216Z" fill-rule="evenodd" style="fill: #D7A449; stroke: #fff; opacity: 1;" id="p-type-tokenTransfers"></path><path d="M23.424309239537923,195.60240728746285A197,197,0,0,1,21.998285720080997,195.7679121444004L19.051074273298592,169.53998516289087A170.6070045455344,170.6070045455344,0,0,0,20.286046867542385,169.39665375233324Z" fill-rule="evenodd" style="fill: #D7A449; stroke: #fff; opacity: 1;" id="p-type-tokenTransfers"></path><path d="M21.998285720080997,195.7679121444004A197,197,0,0,1,20.571093991302355,195.9230208321651L17.81508998010526,169.67431322684277A170.6070045455344,170.6070045455344,0,0,0,19.051074273298592,169.53998516289087Z" fill-rule="evenodd" style="fill: #D7A449; stroke: #fff; opacity: 1;" id="p-type-tokenTransfers"></path><path d="M20.571093991302355,195.9230208321651A197,197,0,0,1,19.142809843593245,196.06772511377804L16.578159624366567,169.79963081075596A170.6070045455344,170.6070045455344,0,0,0,17.81508998010526,169.67431322684277Z" fill-rule="evenodd" style="fill: #D7A449; stroke: #fff; opacity: 1;" id="p-type-tokenTransfers"></path><path d="M19.142809843593245,196.06772511377804A197,197,0,0,1,17.71350912535734,196.20201730478175L15.340348892726931,169.91593125969504A170.6070045455344,170.6070045455344,0,0,0,16.578159624366567,169.79963081075596Z" fill-rule="evenodd" style="fill: #D7A449; stroke: #fff; opacity: 1;" id="p-type-tokenTransfers"></path><path d="M17.71350912535734,196.20201730478175A197,197,0,0,1,16.283267738982847,196.32589027364833L14.101723518582745,170.02320839757567A170.6070045455344,170.6070045455344,0,0,0,15.340348892726931,169.91593125969504Z" fill-rule="evenodd" style="fill: #D7A449; stroke: #fff; opacity: 1;" id="p-type-tokenTransfers"></path><path d="M16.283267738982847,196.32589027364833A197,197,0,0,1,14.852161636811738,196.439337442158L12.862349278591633,170.12145652749248A170.6070045455344,170.6070045455344,0,0,0,14.101723518582745,170.02320839757567Z" fill-rule="evenodd" style="fill: #D7A449; stroke: #fff; opacity: 1;" id="p-type-tokenTransfers"></path><path d="M14.852161636811738,196.439337442158A197,197,0,0,1,13.42026681710634,196.54235278574865L11.62229198917942,170.21067043202154A170.6070045455344,170.6070045455344,0,0,0,12.862349278591633,170.12145652749248Z" fill-rule="evenodd" style="fill: #D7A449; stroke: #fff; opacity: 1;" id="p-type-tokenTransfers"></path><path d="M13.42026681710634,196.54235278574865A197,197,0,0,1,11.987659320013481,196.63493083383557L10.381617503044964,170.2908453734976A170.6070045455344,170.6070045455344,0,0,0,11.62229198917942,170.21067043202154Z" fill-rule="evenodd" style="fill: #D7A449; stroke: #fff; opacity: 1;" id="p-type-tokenTransfers"></path><path d="M11.987659320013481,196.63493083383557A197,197,0,0,1,10.554415223526407,196.7170666701021L9.140391705663083,170.3619770942655A170.6070045455344,170.6070045455344,0,0,0,10.381617503044964,170.2908453734976Z" fill-rule="evenodd" style="fill: #D7A449; stroke: #fff; opacity: 1;" id="p-type-tokenTransfers"></path><path d="M10.554415223526407,196.7170666701021A197,197,0,0,1,9.120610639444699,196.78875593276067L7.898680511785742,170.4240618169064A170.6070045455344,170.6070045455344,0,0,0,9.140391705663083,170.3619770942655Z" fill-rule="evenodd" style="fill: #D7A449; stroke: #fff; opacity: 1;" id="p-type-tokenTransfers"></path><path d="M9.120610639444699,196.78875593276067A197,197,0,0,1,7.686321709332382,196.8499948147844L6.656549861941673,170.47709624443831A170.6070045455344,170.6070045455344,0,0,0,7.898680511785742,170.4240618169064Z" fill-rule="evenodd" style="fill: #D7A449; stroke: #fff; opacity: 1;" id="p-type-tokenTransfers"></path><path d="M7.686321709332382,196.8499948147844A197,197,0,0,1,6.251624600474468,196.90078006410928L5.414065718934631,170.5210775604912A170.6070045455344,170.6070045455344,0,0,0,6.656549861941673,170.47709624443831Z" fill-rule="evenodd" style="fill: #D7A449; stroke: #fff; opacity: 1;" id="p-type-tokenTransfers"></path><path d="M6.251624600474468,196.90078006410928A197,197,0,0,1,4.816595501832119,196.94110898380697L4.171294064340471,170.55600342945655A170.6070045455344,170.6070045455344,0,0,0,5.414065718934631,170.5210775604912Z" fill-rule="evenodd" style="fill: #D7A449; stroke: #fff; opacity: 1;" id="p-type-tokenTransfers"></path><path d="M4.816595501832119,196.94110898380697A197,197,0,0,1,3.381310619996673,196.97097943222778L2.9283008950032294,170.5818719966114A170.6070045455344,170.6070045455344,0,0,0,4.171294064340471,170.55600342945655Z" fill-rule="evenodd" style="fill: #D7A449; stroke: #fff; opacity: 1;" id="p-type-tokenTransfers"></path><path d="M3.381310619996673,196.97097943222778A197,197,0,0,1,1.94584617514272,196.99038982311467L1.6851522195303796,170.59868188821684A170.6070045455344,170.6070045455344,0,0,0,2.9283008950032294,170.5818719966114Z" fill-rule="evenodd" style="fill: #D7A449; stroke: #fff; opacity: 1;" id="p-type-tokenTransfers"></path><path d="M1.94584617514272,196.99038982311467A197,197,0,0,1,0.5102783969804651,196.99933912568736L0.4419140547874833,170.60643221159094A170.6070045455344,170.6070045455344,0,0,0,1.6851522195303796,170.59868188821684Z" fill-rule="evenodd" style="fill: #D7A449; stroke: #fff; opacity: 1;" id="p-type-tokenTransfers"></path><path d="M0.5102783969804651,196.99933912568736A197,197,0,0,1,-0.9253164792924157,196.99782686469703L-0.8013475776076094,170.60512255515619A170.6070045455344,170.6070045455344,0,0,0,0.4419140547874833,170.60643221159094Z" fill-rule="evenodd" style="fill: #D7A449; stroke: #fff; opacity: 1;" id="p-type-tokenTransfers"></path><path d="M-0.9253164792924157,196.99782686469703A197,197,0,0,1,-2.3608622170392133,196.98585312045168L-2.0445666547908097,170.59475298846127A170.6070045455344,170.6070045455344,0,0,0,-0.8013475776076094,170.60512255515619Z" fill-rule="evenodd" style="fill: #D7A449; stroke: #fff; opacity: 1;" id="p-type-tokenTransfers"></path><path d="M-2.3608622170392133,196.98585312045168A197,197,0,0,1,-3.796282582232698,196.96341852881167L-3.287677156157904,170.57532406217751A170.6070045455344,170.6070045455344,0,0,0,-2.0445666547908097,170.59475298846127Z" fill-rule="evenodd" style="fill: #D7A449; stroke: #fff; opacity: 1;" id="p-type-tokenTransfers"></path><path d="M-3.796282582232698,196.96341852881167A197,197,0,0,1,-5.231501347503496,196.93052428115624L-4.53061306687055,170.54683680806951A170.6070045455344,170.6070045455344,0,0,0,-3.287677156157904,170.57532406217751Z" fill-rule="evenodd" style="fill: #D7A449; stroke: #fff; opacity: 1;" id="p-type-tokenTransfers"></path><path d="M-5.231501347503496,196.93052428115624A197,197,0,0,1,-6.666442296188107,196.88717212431996L-5.773308381361965,170.50929273894047A170.6070045455344,170.6070045455344,0,0,0,-4.53061306687055,170.54683680806951Z" fill-rule="evenodd" style="fill: #D7A449; stroke: #fff; opacity: 1;" id="p-type-tokenTransfers"></path><path d="M-6.666442296188107,196.88717212431996A197,197,0,0,1,-8.101029226376362,196.8333643605001L-7.0156971068421266,170.46269384855165A170.6070045455344,170.6070045455344,0,0,0,-5.773308381361965,170.50929273894047Z" fill-rule="evenodd" style="fill: #D7A449; stroke: #fff; opacity: 1;" id="p-type-tokenTransfers"></path><path d="M-8.101029226376362,196.8333643605001A197,197,0,0,1,-9.535185954958084,196.76910384713443L-8.257713266802282,170.40704261151672A170.6070045455344,170.6070045455344,0,0,0,-7.0156971068421266,170.46269384855165Z" fill-rule="evenodd" style="fill: #D7A449; stroke: #fff; opacity: 1;" id="p-type-tokenTransfers"></path><path d="M-9.535185954958084,196.76910384713443A197,197,0,0,1,-10.96883632166877,196.69439399674928L-9.499290904518611,170.34234198317026A170.6070045455344,170.6070045455344,0,0,0,-8.257713266802282,170.40704261151672Z" fill-rule="evenodd" style="fill: #D7A449; stroke: #fff; opacity: 1;" id="p-type-tokenTransfers"></path><path d="M-10.96883632166877,196.69439399674928A197,197,0,0,1,-12.401904193134035,196.60923877677857L-10.740364086554825,170.26859539941074A170.6070045455344,170.6070045455344,0,0,0,-9.499290904518611,170.34234198317026Z" fill-rule="evenodd" style="fill: #D7A449; stroke: #fff; opacity: 1;" id="p-type-tokenTransfers"></path><path d="M-12.401904193134035,196.60923877677857A197,197,0,0,1,-13.834313466912656,196.5136427093529L-11.98086690626353,170.18580677651823A170.6070045455344,170.6070045455344,0,0,0,-10.740364086554825,170.26859539941074Z" fill-rule="evenodd" style="fill: #D7A449; stroke: #fff; opacity: 1;" id="p-type-tokenTransfers"></path><path d="M-13.834313466912656,196.5136427093529A197,197,0,0,1,-15.265988075537946,196.40761087105952L-13.220733487286173,170.0939805109462A170.6070045455344,170.6070045455344,0,0,0,-11.98086690626353,170.18580677651823Z" fill-rule="evenodd" style="fill: #D7A449; stroke: #fff; opacity: 1;" id="p-type-tokenTransfers"></path><path d="M-15.265988075537946,196.40761087105952A197,197,0,0,1,-16.696851990557292,196.29114889267274L-14.459897987051388,169.99312147908827A170.6070045455344,170.6070045455344,0,0,0,-13.220733487286173,170.0939805109462Z" fill-rule="evenodd" style="fill: #D7A449; stroke: #fff; opacity: 1;" id="p-type-tokenTransfers"></path><path d="M-16.696851990557292,196.29114889267274A197,197,0,0,1,-18.126829226569612,196.16426295885492L-15.69829460027151,169.88323503701912A170.6070045455344,170.6070045455344,0,0,0,-14.459897987051388,169.99312147908827Z" fill-rule="evenodd" style="fill: #D7A449; stroke: #fff; opacity: 1;" id="p-type-tokenTransfers"></path><path d="M-18.126829226569612,196.16426295885492A197,197,0,0,1,-19.555843845260515,196.02695980782792L-16.935857562437167,169.76432702021012A170.6070045455344,170.6070045455344,0,0,0,-15.69829460027151,169.88323503701912Z" fill-rule="evenodd" style="fill: #D7A449; stroke: #fff; opacity: 1;" id="p-type-tokenTransfers"></path><path d="M-19.555843845260515,196.02695980782792A197,197,0,0,1,-20.98381995943499,195.87924673101543L-18.17252115330965,169.63640374321932A170.6070045455344,170.6070045455344,0,0,0,-16.935857562437167,169.76432702021012Z" fill-rule="evenodd" style="fill: #D7A449; stroke: #fff; opacity: 1;" id="p-type-tokenTransfers"></path><path d="M-20.98381995943499,195.87924673101543A197,197,0,0,1,-22.41068173704735,195.72113157265562L-19.408219700410978,169.4994719993563A170.6070045455344,170.6070045455344,0,0,0,-18.17252115330965,169.63640374321932Z" fill-rule="evenodd" style="fill: #D7A449; stroke: #fff; opacity: 1;" id="p-type-tokenTransfers"></path><path d="M-22.41068173704735,195.72113157265562A197,197,0,0,1,-23.836353405228262,195.5526227293847L-20.642887582511385,169.35353906032137A170.6070045455344,170.6070045455344,0,0,0,-19.408219700410978,169.4994719993563Z" fill-rule="evenodd" style="fill: #D7A449; stroke: #fff; opacity: 1;" id="p-type-tokenTransfers"></path><path d="M-23.836353405228262,195.5526227293847A197,197,0,0,1,-25.26075925430863,195.3737291497909L-21.87645923311413,169.19861267581922A170.6070045455344,170.6070045455344,0,0,0,-20.642887582511385,169.35353906032137Z" fill-rule="evenodd" style="fill: #D7A449; stroke: #fff; opacity: 1;" id="p-type-tokenTransfers"></path><path d="M-25.26075925430863,195.3737291497909A197,197,0,0,1,-26.683823641840142,195.18446033393943L-23.10886914393736,169.03470107314763A170.6070045455344,170.6070045455344,0,0,0,-21.87645923311413,169.19861267581922Z" fill-rule="evenodd" style="fill: #D7A449; stroke: #fff; opacity: 1;" id="p-type-tokenTransfers"></path><path d="M-26.683823641840142,195.18446033393943A197,197,0,0,1,-28.10547099661219,194.98482633286773L-24.3400518683929,168.86181295676042A170.6070045455344,170.6070045455344,0,0,0,-23.10886914393736,169.03470107314763Z" fill-rule="evenodd" style="fill: #D7A449; stroke: #fff; opacity: 1;" id="p-type-tokenTransfers"></path><path d="M-28.10547099661219,194.98482633286773A197,197,0,0,1,-29.52562582266508,194.77483774805197L-25.569942025061774,168.67995750780523A170.6070045455344,170.6070045455344,0,0,0,-24.3400518683929,168.86181295676042Z" fill-rule="evenodd" style="fill: #D7A449; stroke: #fff; opacity: 1;" id="p-type-tokenTransfers"></path><path d="M-29.52562582266508,194.77483774805197A197,197,0,0,1,-30.944212703299215,194.5545057308439L-26.79847430116626,168.48914438363596A170.6070045455344,170.6070045455344,0,0,0,-25.569942025061774,168.67995750780523Z" fill-rule="evenodd" style="fill: #D7A449; stroke: #fff; opacity: 1;" id="p-type-tokenTransfers"></path><path d="M-120.87028131799813,155.5614833244656A197,197,0,0,1,-152.86036871005217,124.26869146260009L-132.3809625347611,107.61984370166206A170.6070045455344,170.6070045455344,0,0,0,-104.67673418395802,134.72019640937654Z" fill-rule="evenodd" style="fill: #414552; stroke: #fff; opacity: 1;" id="p-type-ether"></path><path d="M-152.86036871005217,124.26869146260009A197,197,0,0,1,-166.27517239457632,105.64831775827729L-143.9985233123401,91.49412704575876A170.6070045455344,170.6070045455344,0,0,0,-132.3809625347611,107.61984370166206Z" fill-rule="evenodd" style="fill: #414552; stroke: #fff; opacity: 1;" id="p-type-ether"></path><path d="M-166.27517239457632,105.64831775827729A197,197,0,0,1,-176.32491964144114,87.85512343306635L-152.70185972973775,76.08476874565298A170.6070045455344,170.6070045455344,0,0,0,-143.9985233123401,91.49412704575876Z" fill-rule="evenodd" style="fill: #414552; stroke: #fff; opacity: 1;" id="p-type-ether"></path><path d="M-176.32491964144114,87.85512343306635A197,197,0,0,1,-179.40831296037564,81.37356598252227L-155.37215667379425,70.4715753373935A170.6070045455344,170.6070045455344,0,0,0,-152.70185972973775,76.08476874565298Z" fill-rule="evenodd" style="fill: #414552; stroke: #fff; opacity: 1;" id="p-type-ether"></path><path d="M-179.40831296037564,81.37356598252227A197,197,0,0,1,-181.2829273952641,77.10706994175956L-156.99562039670866,66.77668138094728A170.6070045455344,170.6070045455344,0,0,0,-155.37215667379425,70.4715753373935Z" fill-rule="evenodd" style="fill: #414552; stroke: #fff; opacity: 1;" id="p-type-ether"></path><path d="M-181.2829273952641,77.10706994175956A197,197,0,0,1,-182.9280608655628,73.11856500209065L-158.42034777460339,63.32253478007427A170.6070045455344,170.6070045455344,0,0,0,-156.99562039670866,66.77668138094728Z" fill-rule="evenodd" style="fill: #414552; stroke: #fff; opacity: 1;" id="p-type-ether"></path><path d="M-182.9280608655628,73.11856500209065A197,197,0,0,1,-184.16099183232595,69.95519342646388L-159.48809731293278,60.58297463397189A170.6070045455344,170.6070045455344,0,0,0,-158.42034777460339,63.32253478007427Z" fill-rule="evenodd" style="fill: #414552; stroke: #fff; opacity: 1;" id="p-type-ether"></path><path d="M-184.16099183232595,69.95519342646388A197,197,0,0,1,-185.02776841689996,67.62931993345812L-160.2387478545794,58.56870910304005A170.6070045455344,170.6070045455344,0,0,0,-159.48809731293278,60.58297463397189Z" fill-rule="evenodd" style="fill: #414552; stroke: #fff; opacity: 1;" id="p-type-ether"></path><path d="M-185.02776841689996,67.62931993345812A197,197,0,0,1,-185.57536602571653,66.11190153384891L-160.71298129486615,57.25458622080855A170.6070045455344,170.6070045455344,0,0,0,-160.2387478545794,58.56870910304005Z" fill-rule="evenodd" style="fill: #414552; stroke: #fff; opacity: 1;" id="p-type-ether"></path><path d="M-185.57536602571653,66.11190153384891A197,197,0,0,1,-186.08678698727294,64.65839240774011L-161.15588483960187,55.9958103929658A170.6070045455344,170.6070045455344,0,0,0,-160.71298129486615,57.25458622080855Z" fill-rule="evenodd" style="fill: #414552; stroke: #fff; opacity: 1;" id="p-type-ether"></path><path d="M-186.08678698727294,64.65839240774011A197,197,0,0,1,-186.5530271372194,63.3006166315928L-161.55966065371976,54.8199420781791A170.6070045455344,170.6070045455344,0,0,0,-161.15588483960187,55.9958103929658Z" fill-rule="evenodd" style="fill: #414552; stroke: #fff; opacity: 1;" id="p-type-ether"></path><path d="M-186.5530271372194,63.3006166315928A197,197,0,0,1,-187.00872769156055,61.94138977439687L-161.95430891029784,53.642817090341346A170.6070045455344,170.6070045455344,0,0,0,-161.55966065371976,54.8199420781791Z" fill-rule="evenodd" style="fill: #414552; stroke: #fff; opacity: 1;" id="p-type-ether"></path><path d="M-187.00872769156055,61.94138977439687A197,197,0,0,1,-187.38227537603152,60.80199729368349L-162.27781069457455,52.656074257162594A170.6070045455344,170.6070045455344,0,0,0,-161.95430891029784,53.642817090341346Z" fill-rule="evenodd" style="fill: #414552; stroke: #fff; opacity: 1;" id="p-type-ether"></path></g></svg>