<svg xmlns="http://www.w3.org/2000/svg" width="400" height="400" id="block-7908300"><g id="burst-container" transform="translate(200,200)"><circle r="197" style="fill: #f9f9f9; stroke: #f9f9f9; stroke-width: 3; opacity: 1;" id="circle-base"></circle><path display="none" d="M6.031385485800715e-15,-98.5A98.5,98.5,0,1,1,-6.031385485800715e-15,98.5A98.5,98.5,0,1,1,6.031385485800715e-15,-98.5Z" fill-rule="evenodd" id="p-type-root" style="stroke: #fff; opacity: 1;"></path><path d="M8.529667153919608e-15,-139.30003589374985A139.30003589374985,139.30003589374985,0,1,1,-107.502381905776,-88.5874589577141L-76.01566323928022,-62.640792957084614A98.5,98.5,0,1,0,6.031385485800715e-15,-98.5Z" fill-rule="evenodd" style="fill: #0B1F65; stroke: #fff; opacity: 1;" id="p-type-data"></path><path d="M-107.502381905776,-88.5874589577141A139.30003589374985,139.30003589374985,0,0,1,-11.681645567982393,-138.80936264108425L-8.26017079653813,-98.15304161569328A98.5,98.5,0,0,0,-76.01566323928022,-62.640792957084614Z" fill-rule="evenodd" style="fill: #D7A449; stroke: #fff; opacity: 1;" id="p-type-value"></path><path d="M1.0446666101440332e-14,-170.6070045455344A170.6070045455344,170.6070045455344,0,0,1,170.20752206465585,11.668308901022773L138.97385981397198,9.527134322893644A139.30003589374985,139.30003589374985,0,0,0,8.529667153919608e-15,-139.30003589374985Z" fill-rule="evenodd" style="fill: #DB3F29; stroke: #fff; opacity: 1;" id="p-type-functions"></path><path d="M170.20752206465585,11.668308901022773A170.6070045455344,170.6070045455344,0,0,1,50.53086996648217,162.95208246730223L41.25828255893621,133.0498181896051A139.30003589374985,139.30003589374985,0,0,0,138.97385981397198,9.527134322893644Z" fill-rule="evenodd" style="fill: #414552; stroke: #fff; opacity: 1;" id="p-type-ether"></path><path d="M50.53086996648217,162.95208246730223A170.6070045455344,170.6070045455344,0,0,1,-99.52351751269708,138.57062986758731L-81.26061177101782,113.14244550388646A139.30003589374985,139.30003589374985,0,0,0,41.25828255893621,133.0498181896051Z" fill-rule="evenodd" style="fill: #1DC690; stroke: #fff; opacity: 1;" id="p-type-logs"></path><path d="M-99.52351751269708,138.57062986758731A170.6070045455344,170.6070045455344,0,0,1,-170.55618102828618,4.1640260621755925L-139.25853866568593,3.399913042660314A139.30003589374985,139.30003589374985,0,0,0,-81.26061177101782,113.14244550388646Z" fill-rule="evenodd" style="fill: #D7A449; stroke: #fff; opacity: 1;" id="p-type-tokenTransfers"></path><path d="M-131.66299090147913,-108.49703602807324A170.6070045455344,170.6070045455344,0,0,1,-69.53423306298711,-155.79390370724457L-56.77446355336062,-127.20518970634855A139.30003589374985,139.30003589374985,0,0,0,-107.502381905776,-88.5874589577141Z" fill-rule="evenodd" style="fill: #D7A449; stroke: #fff; opacity: 1;" id="p-type-tokenTransfers"></path><path d="M-69.53423306298711,-155.79390370724457A170.6070045455344,170.6070045455344,0,0,1,-28.51328021748182,-168.20743994021L-23.280995808608075,-137.34079959778728A139.30003589374985,139.30003589374985,0,0,0,-56.77446355336062,-127.20518970634855Z" fill-rule="evenodd" style="fill: #414552; stroke: #fff; opacity: 1;" id="p-type-ether"></path><path d="M1.206277097160143e-14,-197A197,197,0,0,1,109.15195030666308,-163.99649918291473L94.52836183818687,-142.0251344241181A170.6070045455344,170.6070045455344,0,0,0,1.0446666101440332e-14,-170.6070045455344Z" fill-rule="evenodd" style="fill: #DB3F29; stroke: #fff; opacity: 1;" id="p-type-functions"></path><path d="M109.15195030666308,-163.99649918291473A197,197,0,0,1,115.93819211591428,-159.2712642283389L100.40541964122248,-137.93296091460522A170.6070045455344,170.6070045455344,0,0,0,94.52836183818687,-142.0251344241181Z" fill-rule="evenodd" style="fill: #DB3F29; stroke: #fff; opacity: 1;" id="p-type-functions"></path><path d="M115.93819211591428,-159.2712642283389A197,197,0,0,1,122.52015242811349,-154.26539550071442L106.10556447828795,-133.59775142847232A170.6070045455344,170.6070045455344,0,0,0,100.40541964122248,-137.93296091460522Z" fill-rule="evenodd" style="fill: #DB3F29; stroke: #fff; opacity: 1;" id="p-type-functions"></path><path d="M122.52015242811349,-154.26539550071442A197,197,0,0,1,128.88623391988023,-148.98771327176584L111.61875277271989,-129.02714454510118A170.6070045455344,170.6070045455344,0,0,0,106.10556447828795,-133.59775142847232Z" fill-rule="evenodd" style="fill: #DB3F29; stroke: #fff; opacity: 1;" id="p-type-functions"></path><path d="M128.88623391988023,-148.98771327176584A197,197,0,0,1,135.0252196433412,-143.44751674486204L116.93527036270706,-124.22919361084416A170.6070045455344,170.6070045455344,0,0,0,111.61875277271989,-129.02714454510118Z" fill-rule="evenodd" style="fill: #DB3F29; stroke: #fff; opacity: 1;" id="p-type-functions"></path><path d="M135.0252196433412,-143.44751674486204A197,197,0,0,1,140.92629279023768,-137.65456766994768L122.04574961750961,-119.21235254913877A170.6070045455344,170.6070045455344,0,0,0,116.93527036270706,-124.22919361084416Z" fill-rule="evenodd" style="fill: #DB3F29; stroke: #fff; opacity: 1;" id="p-type-functions"></path><path d="M140.92629279023768,-137.65456766994768A197,197,0,0,1,146.57905575099298,-131.6190731434745L126.94118594309542,-113.98546096481108A170.6070045455344,170.6070045455344,0,0,0,122.04574961750961,-119.21235254913877Z" fill-rule="evenodd" style="fill: #DB3F29; stroke: #fff; opacity: 1;" id="p-type-functions"></path><path d="M146.57905575099298,-131.6190731434745A197,197,0,0,1,151.97354843515689,-125.35166762363805L131.61295364811068,-108.55772856881387A170.6070045455344,170.6070045455344,0,0,0,126.94118594309542,-113.98546096481108Z" fill-rule="evenodd" style="fill: #DB3F29; stroke: #fff; opacity: 1;" id="p-type-functions"></path><path d="M151.97354843515689,-125.35166762363805A197,197,0,0,1,157.10026582094798,-118.86339419260868L136.05282114222913,-102.93871895084283A170.6070045455344,170.6070045455344,0,0,0,131.61295364811068,-108.55772856881387Z" fill-rule="evenodd" style="fill: #DB3F29; stroke: #fff; opacity: 1;" id="p-type-functions"></path><path d="M157.10026582094798,-118.86339419260868A197,197,0,0,1,161.9501747029711,-112.16568509877312L140.25296544010092,-97.13833272842318A170.6070045455344,170.6070045455344,0,0,0,136.05282114222913,-102.93871895084283Z" fill-rule="evenodd" style="fill: #DB3F29; stroke: #fff; opacity: 1;" id="p-type-functions"></path><path d="M161.9501747029711,-112.16568509877312A197,197,0,0,1,166.51472960860067,-105.27034161327018L144.20598594534502,-91.1667901021581A170.6070045455344,170.6070045455344,0,0,0,140.25296544010092,-97.13833272842318Z" fill-rule="evenodd" style="fill: #DB3F29; stroke: #fff; opacity: 1;" id="p-type-functions"></path><path d="M166.51472960860067,-105.27034161327018A197,197,0,0,1,170.78588785498573,-98.18951323631376L147.90491749029786,-85.0346128478761A170.6070045455344,170.6070045455344,0,0,0,144.20598594534502,-91.1667901021581Z" fill-rule="evenodd" style="fill: #DB3F29; stroke: #fff; opacity: 1;" id="p-type-functions"></path><path d="M196.53871736425646,13.473402569986408A197,197,0,0,1,156.14727631399782,120.11256428750495L135.22750801967027,104.02053198667082A170.6070045455344,170.6070045455344,0,0,0,170.20752206465585,11.668308901022773Z" fill-rule="evenodd" style="fill: #414552; stroke: #fff; opacity: 1;" id="p-type-ether"></path><path d="M156.14727631399782,120.11256428750495A197,197,0,0,1,103.89478731341922,167.3764414996907L89.97552513420226,144.9522503337721A170.6070045455344,170.6070045455344,0,0,0,135.22750801967027,104.02053198667082Z" fill-rule="evenodd" style="fill: #414552; stroke: #fff; opacity: 1;" id="p-type-ether"></path><path d="M58.34802275506892,188.1608573550141A197,197,0,0,1,50.40011447886759,190.44376718736962L43.64777949234323,164.9291403766714A170.6070045455344,170.6070045455344,0,0,0,50.53086996648217,162.95208246730223Z" fill-rule="evenodd" style="fill: #1DC690; stroke: #fff; opacity: 1;" id="p-type-logs"></path><path d="M50.40011447886759,190.44376718736962A197,197,0,0,1,42.36340189539328,192.3911177259735L36.68778223214042,166.61559541317564A170.6070045455344,170.6070045455344,0,0,0,43.64777949234323,164.9291403766714Z" fill-rule="evenodd" style="fill: #1DC690; stroke: #fff; opacity: 1;" id="p-type-logs"></path><path d="M42.36340189539328,192.3911177259735A197,197,0,0,1,34.2520455814841,193.99947776600828L29.66314160514776,168.00847606627752A170.6070045455344,170.6070045455344,0,0,0,36.68778223214042,166.61559541317564Z" fill-rule="evenodd" style="fill: #1DC690; stroke: #fff; opacity: 1;" id="p-type-logs"></path><path d="M34.2520455814841,193.99947776600828A197,197,0,0,1,26.080337635202692,195.26601339924423L22.586234931360902,169.1053280994581A170.6070045455344,170.6070045455344,0,0,0,29.66314160514776,168.00847606627752Z" fill-rule="evenodd" style="fill: #1DC690; stroke: #fff; opacity: 1;" id="p-type-logs"></path><path d="M26.080337635202692,195.26601339924423A197,197,0,0,1,17.862676493356403,196.1884930073466L15.46953162282978,169.90421887454787A170.6070045455344,170.6070045455344,0,0,0,22.586234931360902,169.1053280994581Z" fill-rule="evenodd" style="fill: #1DC690; stroke: #fff; opacity: 1;" id="p-type-logs"></path><path d="M17.862676493356403,196.1884930073466A197,197,0,0,1,9.613541561649997,196.76529119395633L8.325571212726421,170.40374075700868A170.6070045455344,170.6070045455344,0,0,0,15.46953162282978,169.90421887454787Z" fill-rule="evenodd" style="fill: #1DC690; stroke: #fff; opacity: 1;" id="p-type-logs"></path><path d="M9.613541561649997,196.76529119395633A197,197,0,0,1,1.3474677021722992,196.995391648616L1.166941260860255,170.6030135961663A170.6070045455344,170.6070045455344,0,0,0,8.325571212726421,170.40374075700868Z" fill-rule="evenodd" style="fill: #1DC690; stroke: #fff; opacity: 1;" id="p-type-logs"></path><path d="M1.3474677021722992,196.995391648616A197,197,0,0,1,-6.9209803768305225,196.87838893749492L-5.993744825428829,170.5016862760238A170.6070045455344,170.6070045455344,0,0,0,1.166941260860255,170.6030135961663Z" fill-rule="evenodd" style="fill: #1DC690; stroke: #fff; opacity: 1;" id="p-type-logs"></path><path d="M-6.9209803768305225,196.87838893749492A197,197,0,0,1,-15.177233783770205,196.41448921775802L-13.143870015920417,170.09993733392315A170.6070045455344,170.6070045455344,0,0,0,-5.993744825428829,170.5016862760238Z" fill-rule="evenodd" style="fill: #1DC690; stroke: #fff; opacity: 1;" id="p-type-logs"></path><path d="M-15.177233783770205,196.41448921775802A197,197,0,0,1,-23.406745113902645,195.6045098743196L-20.270835888546973,169.39847464596485A170.6070045455344,170.6070045455344,0,0,0,-13.143870015920417,170.09993733392315Z" fill-rule="evenodd" style="fill: #1DC690; stroke: #fff; opacity: 1;" id="p-type-logs"></path><path d="M-23.406745113902645,195.6045098743196A197,197,0,0,1,-31.595014081654593,194.4498780796225L-27.362084827639944,168.39853417973993A170.6070045455344,170.6070045455344,0,0,0,-20.270835888546973,169.39847464596485Z" fill-rule="evenodd" style="fill: #1DC690; stroke: #fff; opacity: 1;" id="p-type-logs"></path><path d="M-114.91985925330819,160.00758091165505A197,197,0,0,1,-121.53361754516965,155.04379963863255L-105.25120020793908,134.27186918632034A170.6070045455344,170.6070045455344,0,0,0,-99.52351751269708,138.57062986758731Z" fill-rule="evenodd" style="fill: #D7A449; stroke: #fff; opacity: 1;" id="p-type-tokenTransfers"></path><path d="M-121.53361754516965,155.04379963863255A197,197,0,0,1,-127.93323527746941,149.8068333269202L-110.79343173862003,129.7365233216142A170.6070045455344,170.6070045455344,0,0,0,-105.25120020793908,134.27186918632034Z" fill-rule="evenodd" style="fill: #D7A449; stroke: #fff; opacity: 1;" id="p-type-tokenTransfers"></path><path d="M-127.93323527746941,149.8068333269202A197,197,0,0,1,-134.10743641194037,144.3059094390017L-116.14044676914658,124.9725834903921A170.6070045455344,170.6070045455344,0,0,0,-110.79343173862003,129.7365233216142Z" fill-rule="evenodd" style="fill: #D7A449; stroke: #fff; opacity: 1;" id="p-type-tokenTransfers"></path><path d="M-134.10743641194037,144.3059094390017A197,197,0,0,1,-140.04534209125495,138.55072052697298L-121.28282393270891,119.98844368899668A170.6070045455344,170.6070045455344,0,0,0,-116.14044676914658,124.9725834903921Z" fill-rule="evenodd" style="fill: #D7A449; stroke: #fff; opacity: 1;" id="p-type-tokenTransfers"></path><path d="M-140.04534209125495,138.55072052697298A197,197,0,0,1,-145.73648980742175,132.55140715439902L-126.21150243159913,114.79288590308393A170.6070045455344,170.6070045455344,0,0,0,-121.28282393270891,119.98844368899668Z" fill-rule="evenodd" style="fill: #D7A449; stroke: #fff; opacity: 1;" id="p-type-tokenTransfers"></path><path d="M-145.73648980742175,132.55140715439902A197,197,0,0,1,-151.1708518365803,126.31854002878073L-130.917798002212,109.39506463388561A170.6070045455344,170.6070045455344,0,0,0,-126.21150243159913,114.79288590308393Z" fill-rule="evenodd" style="fill: #D7A449; stroke: #fff; opacity: 1;" id="p-type-tokenTransfers"></path><path d="M-151.1708518365803,126.31854002878073A197,197,0,0,1,-156.3388529077129,119.8631013761137L-135.39341821659804,103.80449076810397A170.6070045455344,170.6070045455344,0,0,0,-130.917798002212,109.39506463388561Z" fill-rule="evenodd" style="fill: #D7A449; stroke: #fff; opacity: 1;" id="p-type-tokenTransfers"></path><path d="M-156.3388529077129,119.8631013761137A197,197,0,0,1,-161.23138707413946,113.1964655903576L-139.63047709360674,98.03101481986076A170.6070045455344,170.6070045455344,0,0,0,-135.39341821659804,103.80449076810397Z" fill-rule="evenodd" style="fill: #D7A449; stroke: #fff; opacity: 1;" id="p-type-tokenTransfers"></path><path d="M-161.23138707413946,113.1964655903576A197,197,0,0,1,-165.83983375807063,106.3303791919106L-143.62150899387728,92.08480957422685A170.6070045455344,170.6070045455344,0,0,0,-139.63047709360674,98.03101481986076Z" fill-rule="evenodd" style="fill: #D7A449; stroke: #fff; opacity: 1;" id="p-type-tokenTransfers"></path><path d="M-165.83983375807063,106.3303791919106A197,197,0,0,1,-170.15607293994688,99.27694013040228L-147.3594817741919,85.97635216291518A170.6070045455344,170.6070045455344,0,0,0,-143.62150899387728,92.08480957422685Z" fill-rule="evenodd" style="fill: #D7A449; stroke: #fff; opacity: 1;" id="p-type-tokenTransfers"></path><path d="M-170.15607293994688,99.27694013040228A197,197,0,0,1,-174.1724994658011,92.04857646827308L-150.8378091780153,79.71640560371897A170.6070045455344,170.6070045455344,0,0,0,-147.3594817741919,85.97635216291518Z" fill-rule="evenodd" style="fill: #D7A449; stroke: #fff; opacity: 1;" id="p-type-tokenTransfers"></path></g></svg>