<svg xmlns="http://www.w3.org/2000/svg" width="400" height="400" id="block-7908308"><g id="burst-container" transform="translate(200,200)"><circle r="197" style="fill: #f9f9f9; stroke: #f9f9f9; stroke-width: 3; opacity: 1;" id="circle-base"></circle><path display="none" d="M6.031385485800715e-15,-98.5A98.5,98.5,0,1,1,-6.031385485800715e-15,98.5A98.5,98.5,0,1,1,6.031385485800715e-15,-98.5Z" fill-rule="evenodd" id="p-type-root" style="stroke: #fff; opacity: 1;"></path><path d="M8.529667153919608e-15,-139.30003589374985A139.30003589374985,139.30003589374985,0,1,1,-111.4505177088194,-83.56603438261341L-78.80741683865762,-59.09010958881413A98.5,98.5,0,1,0,6.031385485800715e-15,-98.5Z" fill-rule="evenodd" style="fill: #0B1F65; stroke: #fff; opacity: 1;" id="p-type-data"></path><path d="M-111.4505177088194,-83.56603438261341A139.30003589374985,139.30003589374985,0,0,1,-1.9722965443509979,-139.2860726933642L-1.394624261021385,-98.49012652632024A98.5,98.5,0,0,0,-78.80741683865762,-59.09010958881413Z" fill-rule="evenodd" style="fill: #D7A449; stroke: #fff; opacity: 1;" id="p-type-value"></path><path d="M1.0446666101440332e-14,-170.6070045455344A170.6070045455344,170.6070045455344,0,0,1,134.47557694779925,104.990805333403L109.79884879616141,85.724633583572A139.30003589374985,139.30003589374985,0,0,0,8.529667153919608e-15,-139.30003589374985Z" fill-rule="evenodd" style="fill: #414552; stroke: #fff; opacity: 1;" id="p-type-ether"></path><path d="M134.47557694779925,104.990805333403A170.6070045455344,170.6070045455344,0,0,1,-36.85505041751456,166.57867588236633L-30.092022655819598,136.01091931341998A139.30003589374985,139.30003589374985,0,0,0,109.79884879616141,85.724633583572Z" fill-rule="evenodd" style="fill: #D7A449; stroke: #fff; opacity: 1;" id="p-type-tokenTransfers"></path><path d="M-36.85505041751456,166.57867588236633A170.6070045455344,170.6070045455344,0,0,1,-158.68358533041967,62.659953293019726L-129.5646048716407,51.16163762484161A139.30003589374985,139.30003589374985,0,0,0,-30.092022655819598,136.01091931341998Z" fill-rule="evenodd" style="fill: #1DC690; stroke: #fff; opacity: 1;" id="p-type-logs"></path><path d="M-136.49844997781406,-102.34707203263896A170.6070045455344,170.6070045455344,0,0,1,-69.20726899949493,-155.93942387232147L-56.50749851343302,-127.3240064235899A139.30003589374985,139.30003589374985,0,0,0,-111.4505177088194,-83.56603438261341Z" fill-rule="evenodd" style="fill: #414552; stroke: #fff; opacity: 1;" id="p-type-ether"></path><path d="M-69.20726899949493,-155.93942387232147A170.6070045455344,170.6070045455344,0,0,1,-4.8306358917875905,-170.5386025417148L-3.944197689351324,-139.24418589150253A139.30003589374985,139.30003589374985,0,0,0,-56.50749851343302,-127.3240064235899Z" fill-rule="evenodd" style="fill: #D7A449; stroke: #fff; opacity: 1;" id="p-type-tokenTransfers"></path><path d="M1.206277097160143e-14,-197A197,197,0,0,1,146.0461097589777,-132.2101880501977L126.47964117516511,-114.49738149058902A170.6070045455344,170.6070045455344,0,0,0,1.0446666101440332e-14,-170.6070045455344Z" fill-rule="evenodd" style="fill: #414552; stroke: #fff; opacity: 1;" id="p-type-ether"></path><path d="M146.0461097589777,-132.2101880501977A197,197,0,0,1,182.8196556247219,-73.38919210114048L158.3264660821318,-63.556904722803914A170.6070045455344,170.6070045455344,0,0,0,126.47964117516511,-114.49738149058902Z" fill-rule="evenodd" style="fill: #414552; stroke: #fff; opacity: 1;" id="p-type-ether"></path><path d="M182.8196556247219,-73.38919210114048A197,197,0,0,1,195.47538666021592,-24.461668177765002L169.28665066233276,-21.18442606088989A170.6070045455344,170.6070045455344,0,0,0,158.3264660821318,-63.556904722803914Z" fill-rule="evenodd" style="fill: #414552; stroke: #fff; opacity: 1;" id="p-type-ether"></path><path d="M195.47538666021592,-24.461668177765002A197,197,0,0,1,196.59356664904575,-12.647907028722393L170.2550229386628,-10.95340879157735A170.6070045455344,170.6070045455344,0,0,0,169.28665066233276,-21.18442606088989Z" fill-rule="evenodd" style="fill: #414552; stroke: #fff; opacity: 1;" id="p-type-ether"></path><path d="M196.59356664904575,-12.647907028722393A197,197,0,0,1,196.9533484508221,-4.287019245239604L170.56660311882044,-3.712667572890287A170.6070045455344,170.6070045455344,0,0,0,170.2550229386628,-10.95340879157735Z" fill-rule="evenodd" style="fill: #414552; stroke: #fff; opacity: 1;" id="p-type-ether"></path><path d="M196.9533484508221,-4.287019245239604A197,197,0,0,1,196.95778352850596,4.078174535033056L170.57044400876242,3.5318027484054175A170.6070045455344,170.6070045455344,0,0,0,170.56660311882044,-3.712667572890287Z" fill-rule="evenodd" style="fill: #414552; stroke: #fff; opacity: 1;" id="p-type-ether"></path><path d="M196.95778352850596,4.078174535033056A197,197,0,0,1,196.69007437090096,11.046023898645792L170.33860107745076,9.56613730703728A170.6070045455344,170.6070045455344,0,0,0,170.57044400876242,3.5318027484054175Z" fill-rule="evenodd" style="fill: #414552; stroke: #fff; opacity: 1;" id="p-type-ether"></path><path d="M196.69007437090096,11.046023898645792A197,197,0,0,1,196.48823376737292,14.190630393968146L170.1638019872803,12.289446416891991A170.6070045455344,170.6070045455344,0,0,0,170.33860107745076,9.56613730703728Z" fill-rule="evenodd" style="fill: #414552; stroke: #fff; opacity: 1;" id="p-type-ether"></path><path d="M196.48823376737292,14.190630393968146A197,197,0,0,1,196.356839629702,15.905707486166326L170.05001132614893,13.774746748184361A170.6070045455344,170.6070045455344,0,0,0,170.1638019872803,12.289446416891991Z" fill-rule="evenodd" style="fill: #414552; stroke: #fff; opacity: 1;" id="p-type-ether"></path><path d="M196.356839629702,15.905707486166326A197,197,0,0,1,196.2380722484046,17.309506065452684L169.94715575680442,14.99047197964285A170.6070045455344,170.6070045455344,0,0,0,170.05001132614893,13.774746748184361Z" fill-rule="evenodd" style="fill: #414552; stroke: #fff; opacity: 1;" id="p-type-ether"></path><path d="M196.2380722484046,17.309506065452684A197,197,0,0,1,196.11057625669616,18.698713331845994L169.83674098910424,16.193560763461395A170.6070045455344,170.6070045455344,0,0,0,169.94715575680442,14.99047197964285Z" fill-rule="evenodd" style="fill: #414552; stroke: #fff; opacity: 1;" id="p-type-ether"></path><path d="M196.11057625669616,18.698713331845994A197,197,0,0,1,195.9952553049133,19.871081952472096L169.73687011527167,17.20886177152332A170.6070045455344,170.6070045455344,0,0,0,169.83674098910424,16.193560763461395Z" fill-rule="evenodd" style="fill: #414552; stroke: #fff; opacity: 1;" id="p-type-ether"></path><path d="M195.9952553049133,19.871081952472096A197,197,0,0,1,195.87919667077932,20.98428725523335L169.63636038978314,18.172925843342114A170.6070045455344,170.6070045455344,0,0,0,169.73687011527167,17.20886177152332Z" fill-rule="evenodd" style="fill: #414552; stroke: #fff; opacity: 1;" id="p-type-ether"></path><path d="M155.27902110048427,121.23293944335164A197,197,0,0,1,103.62881308945295,167.54124595952848L89.74518469949561,145.0949751826486A170.6070045455344,170.6070045455344,0,0,0,134.47557694779925,104.990805333403Z" fill-rule="evenodd" style="fill: #D7A449; stroke: #fff; opacity: 1;" id="p-type-tokenTransfers"></path><path d="M103.62881308945295,167.54124595952848A197,197,0,0,1,102.44010985851656,168.27068637221117L88.71573750394406,145.72668911057883A170.6070045455344,170.6070045455344,0,0,0,89.74518469949561,145.0949751826486Z" fill-rule="evenodd" style="fill: #D7A449; stroke: #fff; opacity: 1;" id="p-type-tokenTransfers"></path><path d="M102.44010985851656,168.27068637221117A197,197,0,0,1,101.2462723514285,168.99169309448428L87.6818438948151,146.3510992483667A170.6070045455344,170.6070045455344,0,0,0,88.71573750394406,145.72668911057883Z" fill-rule="evenodd" style="fill: #D7A449; stroke: #fff; opacity: 1;" id="p-type-tokenTransfers"></path><path d="M101.2462723514285,168.99169309448428A197,197,0,0,1,100.04736040306639,169.70422998964685L86.64355569063284,146.96817430071113A170.6070045455344,170.6070045455344,0,0,0,87.6818438948151,146.3510992483667Z" fill-rule="evenodd" style="fill: #D7A449; stroke: #fff; opacity: 1;" id="p-type-tokenTransfers"></path><path d="M100.04736040306639,169.70422998964685A197,197,0,0,1,98.84343410263783,170.40826134550372L85.60092493017748,147.57788333994398A170.6070045455344,170.6070045455344,0,0,0,86.64355569063284,146.96817430071113Z" fill-rule="evenodd" style="fill: #D7A449; stroke: #fff; opacity: 1;" id="p-type-tokenTransfers"></path><path d="M98.84343410263783,170.40826134550372A197,197,0,0,1,97.63455379066863,171.10375187615563L84.55400386987729,148.18019580758008A170.6070045455344,170.6070045455344,0,0,0,85.60092493017748,147.57788333994398Z" fill-rule="evenodd" style="fill: #D7A449; stroke: #fff; opacity: 1;" id="p-type-tokenTransfers"></path><path d="M97.63455379066863,171.10375187615563A197,197,0,0,1,96.42078005597857,171.79066672376763L83.50284498118938,148.7750815158488A170.6070045455344,170.6070045455344,0,0,0,84.55400386987729,148.18019580758008Z" fill-rule="evenodd" style="fill: #D7A449; stroke: #fff; opacity: 1;" id="p-type-tokenTransfers"></path><path d="M96.42078005597857,171.79066672376763A197,197,0,0,1,95.20217373264474,172.46897146031608L82.44750094796993,149.36251064920705A170.6070045455344,170.6070045455344,0,0,0,83.50284498118938,148.7750815158488Z" fill-rule="evenodd" style="fill: #D7A449; stroke: #fff; opacity: 1;" id="p-type-tokenTransfers"></path><path d="M95.20217373264474,172.46897146031608A197,197,0,0,1,93.9787958969525,173.1386320893143L81.38802466383363,149.9424537658338A170.6070045455344,170.6070045455344,0,0,0,82.44750094796993,149.36251064920705Z" fill-rule="evenodd" style="fill: #D7A449; stroke: #fff; opacity: 1;" id="p-type-tokenTransfers"></path><path d="M93.9787958969525,173.1386320893143A197,197,0,0,1,92.75070786433444,173.7996150475164L80.32446922950274,150.51488179910538A170.6070045455344,170.6070045455344,0,0,0,81.38802466383363,149.9424537658338Z" fill-rule="evenodd" style="fill: #D7A449; stroke: #fff; opacity: 1;" id="p-type-tokenTransfers"></path><path d="M92.75070786433444,173.7996150475164A197,197,0,0,1,91.51797118629713,174.45188720659942L79.2568879501456,151.07976605905262A170.6070045455344,170.6070045455344,0,0,0,80.32446922950274,150.51488179910538Z" fill-rule="evenodd" style="fill: #D7A449; stroke: #fff; opacity: 1;" id="p-type-tokenTransfers"></path><path d="M91.51797118629713,174.45188720659942A197,197,0,0,1,90.28064764733628,175.09541587482383L78.18533433270504,151.63707823379852A170.6070045455344,170.6070045455344,0,0,0,79.2568879501456,151.07976605905262Z" fill-rule="evenodd" style="fill: #D7A449; stroke: #fff; opacity: 1;" id="p-type-tokenTransfers"></path><path d="M90.28064764733628,175.09541587482383A197,197,0,0,1,89.0387992618401,175.73016879867197L77.10986208321664,152.18679039097745A170.6070045455344,170.6070045455344,0,0,0,78.18533433270504,151.63707823379852Z" fill-rule="evenodd" style="fill: #D7A449; stroke: #fff; opacity: 1;" id="p-type-tokenTransfers"></path><path d="M89.0387992618401,175.73016879867197A197,197,0,0,1,87.79248827098102,176.35611416446454L76.03052510411693,152.72887497913496A170.6070045455344,170.6070045455344,0,0,0,77.10986208321664,152.18679039097745Z" fill-rule="evenodd" style="fill: #D7A449; stroke: #fff; opacity: 1;" id="p-type-tokenTransfers"></path><path d="M87.79248827098102,176.35611416446454A197,197,0,0,1,86.54177713959646,176.97322059995523L74.94737749154193,153.26330482910876A170.6070045455344,170.6070045455344,0,0,0,76.03052510411693,152.72887497913496Z" fill-rule="evenodd" style="fill: #D7A449; stroke: #fff; opacity: 1;" id="p-type-tokenTransfers"></path><path d="M86.54177713959646,176.97322059995523A197,197,0,0,1,85.28672855305778,177.5814571759029L73.86047353261569,153.7900531553903A170.6070045455344,170.6070045455344,0,0,0,74.94737749154193,153.26330482910876Z" fill-rule="evenodd" style="fill: #D7A449; stroke: #fff; opacity: 1;" id="p-type-tokenTransfers"></path><path d="M85.28672855305778,177.5814571759029A197,197,0,0,1,84.02740541412874,178.18079340762193L72.76986770272957,154.30909355746743A170.6070045455344,170.6070045455344,0,0,0,73.86047353261569,153.7900531553903Z" fill-rule="evenodd" style="fill: #D7A449; stroke: #fff; opacity: 1;" id="p-type-tokenTransfers"></path><path d="M84.02740541412874,178.18079340762193A197,197,0,0,1,82.76387083981268,178.77119925651002L71.67561466281191,154.8204000211474A170.6070045455344,170.6070045455344,0,0,0,72.76986770272957,154.30909355746743Z" fill-rule="evenodd" style="fill: #D7A449; stroke: #fff; opacity: 1;" id="p-type-tokenTransfers"></path><path d="M82.76387083981268,178.77119925651002A197,197,0,0,1,81.49618815818924,179.35264513155366L70.57776925658843,155.32394691986087A170.6070045455344,170.6070045455344,0,0,0,71.67561466281191,154.8204000211474Z" fill-rule="evenodd" style="fill: #D7A449; stroke: #fff; opacity: 1;" id="p-type-tokenTransfers"></path><path d="M81.49618815818924,179.35264513155366A197,197,0,0,1,80.22442090524025,179.92510189081136L69.47638650783345,155.81970901594616A170.6070045455344,170.6070045455344,0,0,0,70.57776925658843,155.32394691986087Z" fill-rule="evenodd" style="fill: #D7A449; stroke: #fff; opacity: 1;" id="p-type-tokenTransfers"></path><path d="M80.22442090524025,179.92510189081136A197,197,0,0,1,78.94863282166537,180.4885408428742L68.37152161761215,156.30766146191425A170.6070045455344,170.6070045455344,0,0,0,69.47638650783345,155.81970901594616Z" fill-rule="evenodd" style="fill: #D7A449; stroke: #fff; opacity: 1;" id="p-type-tokenTransfers"></path><path d="M78.94863282166537,180.4885408428742A197,197,0,0,1,77.66888784968747,181.04293374830368L67.26322996151387,156.78777980169406A170.6070045455344,170.6070045455344,0,0,0,68.37152161761215,156.30766146191425Z" fill-rule="evenodd" style="fill: #D7A449; stroke: #fff; opacity: 1;" id="p-type-tokenTransfers"></path><path d="M77.66888784968747,181.04293374830368A197,197,0,0,1,76.38525012984776,181.5882528210473L66.15156708687675,157.26003997185822A170.6070045455344,170.6070045455344,0,0,0,67.26322996151387,156.78777980169406Z" fill-rule="evenodd" style="fill: #D7A449; stroke: #fff; opacity: 1;" id="p-type-tokenTransfers"></path><path d="M76.38525012984776,181.5882528210473A197,197,0,0,1,75.09778399779114,182.1244707298311L65.03658871000363,157.72441830282915A170.6070045455344,170.6070045455344,0,0,0,66.15156708687675,157.26003997185822Z" fill-rule="evenodd" style="fill: #D7A449; stroke: #fff; opacity: 1;" id="p-type-tokenTransfers"></path><path d="M75.09778399779114,182.1244707298311A197,197,0,0,1,73.80655398104174,182.65156059952943L63.91835071336964,158.18089152006533A170.6070045455344,170.6070045455344,0,0,0,65.03658871000363,157.72441830282915Z" fill-rule="evenodd" style="fill: #D7A449; stroke: #fff; opacity: 1;" id="p-type-tokenTransfers"></path><path d="M73.80655398104174,182.65156059952943A197,197,0,0,1,72.51162479576872,183.169496012512L62.79690914282132,158.62943674522785A170.6070045455344,170.6070045455344,0,0,0,63.91835071336964,158.18089152006533Z" fill-rule="evenodd" style="fill: #D7A449; stroke: #fff; opacity: 1;" id="p-type-tokenTransfers"></path><path d="M72.51162479576872,183.169496012512A197,197,0,0,1,71.21306134354282,183.678251009968L61.67232020476767,159.070031497327A170.6070045455344,170.6070045455344,0,0,0,62.79690914282132,158.62943674522785Z" fill-rule="evenodd" style="fill: #D7A449; stroke: #fff; opacity: 1;" id="p-type-tokenTransfers"></path><path d="M71.21306134354282,183.678251009968A197,197,0,0,1,69.91092870808342,184.17780009320688L60.54464026336304,159.5026536938491A170.6070045455344,170.6070045455344,0,0,0,61.67232020476767,159.070031497327Z" fill-rule="evenodd" style="fill: #D7A449; stroke: #fff; opacity: 1;" id="p-type-tokenTransfers"></path><path d="M69.91092870808342,184.17780009320688A197,197,0,0,1,68.6052921519966,184.66811822493668L59.41392583768222,159.92728165186324A170.6070045455344,170.6070045455344,0,0,0,60.54464026336304,159.5026536938491Z" fill-rule="evenodd" style="fill: #D7A449; stroke: #fff; opacity: 1;" id="p-type-tokenTransfers"></path><path d="M68.6052921519966,184.66811822493668A197,197,0,0,1,67.29621711350417,185.1491808305187L58.28023359888769,160.343894089108A170.6070045455344,170.6070045455344,0,0,0,59.41392583768222,159.92728165186324Z" fill-rule="evenodd" style="fill: #D7A449; stroke: #fff; opacity: 1;" id="p-type-tokenTransfers"></path><path d="M67.29621711350417,185.1491808305187A197,197,0,0,1,65.98376920316397,185.6209637991991L57.14362036738928,160.75247012505807A170.6070045455344,170.6070045455344,0,0,0,58.28023359888769,160.343894089108Z" fill-rule="evenodd" style="fill: #D7A449; stroke: #fff; opacity: 1;" id="p-type-tokenTransfers"></path><path d="M65.98376920316397,185.6209637991991A197,197,0,0,1,64.66801420058142,186.08344348531762L56.004143109996335,161.15298928197095A170.6070045455344,170.6070045455344,0,0,0,57.14362036738928,160.75247012505807Z" fill-rule="evenodd" style="fill: #D7A449; stroke: #fff; opacity: 1;" id="p-type-tokenTransfers"></path><path d="M64.66801420058142,186.08344348531762A197,197,0,0,1,63.349018051112694,186.5365967094924L54.861858937062564,161.54543148591313A170.6070045455344,170.6070045455344,0,0,0,56.004143109996335,161.15298928197095Z" fill-rule="evenodd" style="fill: #D7A449; stroke: #fff; opacity: 1;" id="p-type-tokenTransfers"></path><path d="M63.349018051112694,186.5365967094924A197,197,0,0,1,62.026846862559545,186.98040075978173L53.71682509962367,161.92977706776614A170.6070045455344,170.6070045455344,0,0,0,54.861858937062564,161.54543148591313Z" fill-rule="evenodd" style="fill: #D7A449; stroke: #fff; opacity: 1;" id="p-type-tokenTransfers"></path><path d="M62.026846862559545,186.98040075978173A197,197,0,0,1,60.70156690185602,187.41483339282271L52.569098986527976,162.30600676421258A170.6070045455344,170.6070045455344,0,0,0,53.71682509962367,161.92977706776614Z" fill-rule="evenodd" style="fill: #D7A449; stroke: #fff; opacity: 1;" id="p-type-tokenTransfers"></path><path d="M60.70156690185602,187.41483339282271A197,197,0,0,1,59.37324459174711,187.8398728349457L51.418738121560025,162.67410171870145A170.6070045455344,170.6070045455344,0,0,0,52.569098986527976,162.30600676421258Z" fill-rule="evenodd" style="fill: #D7A449; stroke: #fff; opacity: 1;" id="p-type-tokenTransfers"></path><path d="M59.37324459174711,187.8398728349457A197,197,0,0,1,58.041946507459734,188.25549778326575L50.2658001605576,163.03404348239323A170.6070045455344,170.6070045455344,0,0,0,51.418738121560025,162.67410171870145Z" fill-rule="evenodd" style="fill: #D7A449; stroke: #fff; opacity: 1;" id="p-type-tokenTransfers"></path><path d="M58.041946507459734,188.25549778326575A197,197,0,0,1,56.70773937336597,188.6616874067504L49.11034288852197,163.38581401508455A170.6070045455344,170.6070045455344,0,0,0,50.2658001605576,163.03404348239323Z" fill-rule="evenodd" style="fill: #D7A449; stroke: #fff; opacity: 1;" id="p-type-tokenTransfers"></path><path d="M56.70773937336597,188.6616874067504A197,197,0,0,1,55.370690059638825,189.0584213472635L47.95242421672171,163.72939568611238A170.6070045455344,170.6070045455344,0,0,0,49.11034288852197,163.38581401508455Z" fill-rule="evenodd" style="fill: #D7A449; stroke: #fff; opacity: 1;" id="p-type-tokenTransfers"></path><path d="M55.370690059638825,189.0584213472635A197,197,0,0,1,54.030865578900745,189.44567972058576L46.79210217979024,164.06477127523772A170.6070045455344,170.6070045455344,0,0,0,47.95242421672171,163.72939568611238Z" fill-rule="evenodd" style="fill: #D7A449; stroke: #fff; opacity: 1;" id="p-type-tokenTransfers"></path><path d="M54.030865578900745,189.44567972058576A197,197,0,0,1,52.68833308286494,189.8234431174113L45.629434932817105,164.39192397350854A170.6070045455344,170.6070045455344,0,0,0,46.79210217979024,164.06477127523772Z" fill-rule="evenodd" style="fill: #D7A449; stroke: #fff; opacity: 1;" id="p-type-tokenTransfers"></path><path d="M52.68833308286494,189.8234431174113A197,197,0,0,1,51.34315985896978,190.1916926043203L44.46448074843328,164.71083738410235A170.6070045455344,170.6070045455344,0,0,0,45.629434932817105,164.39192397350854Z" fill-rule="evenodd" style="fill: #D7A449; stroke: #fff; opacity: 1;" id="p-type-tokenTransfers"></path><path d="M51.34315985896978,190.1916926043203A197,197,0,0,1,49.99541332700632,190.55040972472824L43.29729801389055,165.021495523148A170.6070045455344,170.6070045455344,0,0,0,44.46448074843328,164.71083738410235Z" fill-rule="evenodd" style="fill: #D7A449; stroke: #fff; opacity: 1;" id="p-type-tokenTransfers"></path><path d="M49.99541332700632,190.55040972472824A197,197,0,0,1,48.64516103573926,190.89957649981048L42.12794522813513,165.3238828205267A170.6070045455344,170.6070045455344,0,0,0,43.29729801389055,165.021495523148Z" fill-rule="evenodd" style="fill: #D7A449; stroke: #fff; opacity: 1;" id="p-type-tokenTransfers"></path><path d="M48.64516103573926,190.89957649981048A197,197,0,0,1,47.292470659521435,191.23917542940387L40.95648099887577,165.61798412065258A170.6070045455344,170.6070045455344,0,0,0,42.12794522813513,165.3238828205267Z" fill-rule="evenodd" style="fill: #D7A449; stroke: #fff; opacity: 1;" id="p-type-tokenTransfers"></path><path d="M47.292470659521435,191.23917542940387A197,197,0,0,1,45.93740999490196,191.56918949288342L39.782964039646274,165.903784683232A170.6070045455344,170.6070045455344,0,0,0,40.95648099887577,165.61798412065258Z" fill-rule="evenodd" style="fill: #D7A449; stroke: #fff; opacity: 1;" id="p-type-tokenTransfers"></path><path d="M45.93740999490196,191.56918949288342A197,197,0,0,1,44.580046957228284,191.88960215001572L38.60745316686286,166.18127018400264A170.6070045455344,170.6070045455344,0,0,0,39.782964039646274,165.903784683232Z" fill-rule="evenodd" style="fill: #D7A449; stroke: #fff; opacity: 1;" id="p-type-tokenTransfers"></path><path d="M44.580046957228284,191.88960215001572A197,197,0,0,1,43.220449577242306,192.20039734178764L37.43000729687624,166.4504267154512A170.6070045455344,170.6070045455344,0,0,0,38.60745316686286,166.18127018400264Z" fill-rule="evenodd" style="fill: #D7A449; stroke: #fff; opacity: 1;" id="p-type-tokenTransfers"></path><path d="M43.220449577242306,192.20039734178764A197,197,0,0,1,41.858685997670676,192.50155949121142L36.250685443018774,166.7112407875105A170.6070045455344,170.6070045455344,0,0,0,37.43000729687624,166.4504267154512Z" fill-rule="evenodd" style="fill: #D7A449; stroke: #fff; opacity: 1;" id="p-type-tokenTransfers"></path><path d="M41.858685997670676,192.50155949121142A197,197,0,0,1,40.4948244698095,192.79307350410522L35.06954671264673,166.96369932823566A170.6070045455344,170.6070045455344,0,0,0,36.250685443018774,166.7112407875105Z" fill-rule="evenodd" style="fill: #D7A449; stroke: #fff; opacity: 1;" id="p-type-tokenTransfers"></path><path d="M40.4948244698095,192.79307350410522A197,197,0,0,1,39.12893335010359,193.0749247698498L33.88665030417785,167.20778968445927A170.6070045455344,170.6070045455344,0,0,0,35.06954671264673,166.96369932823566Z" fill-rule="evenodd" style="fill: #D7A449; stroke: #fff; opacity: 1;" id="p-type-tokenTransfers"></path><path d="M39.12893335010359,193.0749247698498A197,197,0,0,1,37.76108109672047,193.34709916212063L32.702055504124274,167.4434996224254A170.6070045455344,170.6070045455344,0,0,0,33.88665030417785,167.20778968445927Z" fill-rule="evenodd" style="fill: #D7A449; stroke: #fff; opacity: 1;" id="p-type-tokenTransfers"></path><path d="M37.76108109672047,193.34709916212063A197,197,0,0,1,36.391336266119254,193.60958303959603L31.51582168412121,167.67081732840296A170.6070045455344,170.6070045455344,0,0,0,32.702055504124274,167.4434996224254Z" fill-rule="evenodd" style="fill: #D7A449; stroke: #fff; opacity: 1;" id="p-type-tokenTransfers"></path><path d="M36.391336266119254,193.60958303959603A197,197,0,0,1,35.019767509614624,193.86236324664088L30.328008297951172,167.8897314092777A170.6070045455344,170.6070045455344,0,0,0,31.51582168412121,167.67081732840296Z" fill-rule="evenodd" style="fill: #D7A449; stroke: #fff; opacity: 1;" id="p-type-tokenTransfers"></path><path d="M35.019767509614624,193.86236324664088A197,197,0,0,1,33.64644356993605,194.10542711396585L29.138674878564192,168.10023089312318A170.6070045455344,170.6070045455344,0,0,0,30.328008297951172,167.8897314092777Z" fill-rule="evenodd" style="fill: #D7A449; stroke: #fff; opacity: 1;" id="p-type-tokenTransfers"></path><path d="M-42.55654655909852,192.34848672387125A197,197,0,0,1,-43.91720897348213,192.0423879146984L-38.03341863434544,166.31358653755447A170.6070045455344,170.6070045455344,0,0,0,-36.85505041751456,166.57867588236633Z" fill-rule="evenodd" style="fill: #1DC690; stroke: #fff; opacity: 1;" id="p-type-logs"></path><path d="M-43.91720897348213,192.0423879146984A197,197,0,0,1,-45.275670266849836,191.7266639825757L-39.209880624459736,166.0401615917535A170.6070045455344,170.6070045455344,0,0,0,-38.03341863434544,166.31358653755447Z" fill-rule="evenodd" style="fill: #1DC690; stroke: #fff; opacity: 1;" id="p-type-logs"></path><path d="M-45.275670266849836,191.7266639825757A197,197,0,0,1,-46.63186235341541,191.40133075151834L-40.38437742383694,165.75841474896256A170.6070045455344,170.6070045455344,0,0,0,-39.209880624459736,166.0401615917535Z" fill-rule="evenodd" style="fill: #1DC690; stroke: #fff; opacity: 1;" id="p-type-logs"></path><path d="M-46.63186235341541,191.40133075151834A197,197,0,0,1,-47.98571726112475,191.06640452715752L-41.55685016695146,165.4683601302725A170.6070045455344,170.6070045455344,0,0,0,-40.38437742383694,165.75841474896256Z" fill-rule="evenodd" style="fill: #1DC690; stroke: #fff; opacity: 1;" id="p-type-logs"></path><path d="M-47.98571726112475,191.06640452715752A197,197,0,0,1,-49.33716713506269,190.72190209592316L-42.727240089723004,165.17001227315802A170.6070045455344,170.6070045455344,0,0,0,-41.55685016695146,165.4683601302725Z" fill-rule="evenodd" style="fill: #1DC690; stroke: #fff; opacity: 1;" id="p-type-logs"></path><path d="M-49.33716713506269,190.72190209592316A197,197,0,0,1,-50.68614424085383,190.36784072420255L-43.895488532461734,164.86338613074923A170.6070045455344,170.6070045455344,0,0,0,-42.727240089723004,165.17001227315802Z" fill-rule="evenodd" style="fill: #1DC690; stroke: #fff; opacity: 1;" id="p-type-logs"></path><path d="M-50.68614424085383,190.36784072420255A197,197,0,0,1,-52.03258096805736,190.00423815747519L-45.06153694280837,164.5484970710821A170.6070045455344,170.6070045455344,0,0,0,-43.895488532461734,164.86338613074923Z" fill-rule="evenodd" style="fill: #1DC690; stroke: #fff; opacity: 1;" id="p-type-logs"></path><path d="M-52.03258096805736,190.00423815747519A197,197,0,0,1,-53.3764098335557,189.63111261942302L-46.22532687866875,164.22536087632818A170.6070045455344,170.6070045455344,0,0,0,-45.06153694280837,164.5484970710821Z" fill-rule="evenodd" style="fill: #1DC690; stroke: #fff; opacity: 1;" id="p-type-logs"></path><path d="M-53.3764098335557,189.63111261942302A197,197,0,0,1,-54.71756348493673,189.2484828110173L-47.38680001114299,163.89399374200366A170.6070045455344,170.6070045455344,0,0,0,-46.22532687866875,164.22536087632818Z" fill-rule="evenodd" style="fill: #1DC690; stroke: #fff; opacity: 1;" id="p-type-logs"></path><path d="M-54.71756348493673,189.2484828110173A197,197,0,0,1,-56.055974703869516,188.85636790958134L-48.54589812744887,163.55441227615768A170.6070045455344,170.6070045455344,0,0,0,-47.38680001114299,163.89399374200366Z" fill-rule="evenodd" style="fill: #1DC690; stroke: #fff; opacity: 1;" id="p-type-logs"></path><path d="M-56.055974703869516,188.85636790958134A197,197,0,0,1,-57.39157640947319,188.45478756782913L-49.70256313383948,163.20663349853982A170.6070045455344,170.6070045455344,0,0,0,-48.54589812744887,163.55441227615768Z" fill-rule="evenodd" style="fill: #1DC690; stroke: #fff; opacity: 1;" id="p-type-logs"></path><path d="M-57.39157640947319,188.45478756782913A197,197,0,0,1,-58.72430166167913,188.04376191288057L-50.85673705851485,162.85067483974723A170.6070045455344,170.6070045455344,0,0,0,-49.70256313383948,163.20663349853982Z" fill-rule="evenodd" style="fill: #1DC690; stroke: #fff; opacity: 1;" id="p-type-logs"></path><path d="M-58.72430166167913,188.04376191288057A197,197,0,0,1,-60.05408366458592,187.6233115452526L-52.00836205452748,162.4865541403509A170.6070045455344,170.6070045455344,0,0,0,-50.85673705851485,162.85067483974723Z" fill-rule="evenodd" style="fill: #1DC690; stroke: #fff; opacity: 1;" id="p-type-logs"></path><path d="M-60.05408366458592,187.6233115452526A197,197,0,0,1,-61.380855769807155,187.1934575378267L-53.15738040268163,162.11428965000155A170.6070045455344,170.6070045455344,0,0,0,-52.00836205452748,162.4865541403509Z" fill-rule="evenodd" style="fill: #1DC690; stroke: #fff; opacity: 1;" id="p-type-logs"></path><path d="M-61.380855769807155,187.1934575378267A197,197,0,0,1,-62.70455147981187,186.7542214347928L-54.30373451442619,161.7339000265149A170.6070045455344,170.6070045455344,0,0,0,-53.15738040268163,162.11428965000155Z" fill-rule="evenodd" style="fill: #1DC690; stroke: #fff; opacity: 1;" id="p-type-logs"></path><path d="M-62.70455147981187,186.7542214347928A197,197,0,0,1,-64.02510445125733,186.30562525056936L-55.44736693474099,161.34540433493663A170.6070045455344,170.6070045455344,0,0,0,-54.30373451442619,161.7339000265149Z" fill-rule="evenodd" style="fill: #1DC690; stroke: #fff; opacity: 1;" id="p-type-logs"></path><path d="M-64.02510445125733,186.30562525056936A197,197,0,0,1,-65.34244849831421,185.84769146870013L-56.58822034501645,160.9488220465868A170.6070045455344,170.6070045455344,0,0,0,-55.44736693474099,161.34540433493663Z" fill-rule="evenodd" style="fill: #1DC690; stroke: #fff; opacity: 1;" id="p-type-logs"></path><path d="M-65.34244849831421,185.84769146870013A197,197,0,0,1,-66.65651759598379,185.3804430407272L-57.7262375659264,160.5441730380839A170.6070045455344,170.6070045455344,0,0,0,-56.58822034501645,160.9488220465868Z" fill-rule="evenodd" style="fill: #1DC690; stroke: #fff; opacity: 1;" id="p-type-logs"></path><path d="M-66.65651759598379,185.3804430407272A197,197,0,0,1,-67.96724588340705,184.90390338504076L-58.86136156029381,160.13147759034874A170.6070045455344,170.6070045455344,0,0,0,-57.7262375659264,160.5441730380839Z" fill-rule="evenodd" style="fill: #1DC690; stroke: #fff; opacity: 1;" id="p-type-logs"></path><path d="M-67.96724588340705,184.90390338504076A197,197,0,0,1,-69.27456766716571,184.41809638570527L-59.9935354359496,159.7107563875879A170.6070045455344,170.6070045455344,0,0,0,-58.86136156029381,160.13147759034874Z" fill-rule="evenodd" style="fill: #1DC690; stroke: #fff; opacity: 1;" id="p-type-logs"></path><path d="M-69.27456766716571,184.41809638570527A197,197,0,0,1,-70.5784174245747,183.9230463912625L-61.12270244858396,159.28203051625712A170.6070045455344,170.6070045455344,0,0,0,-59.9935354359496,159.7107563875879Z" fill-rule="evenodd" style="fill: #1DC690; stroke: #fff; opacity: 1;" id="p-type-logs"></path><path d="M-70.5784174245747,183.9230463912625A197,197,0,0,1,-71.87872980696615,183.41877821351105L-62.24880600459042,158.8453214640043A170.6070045455344,170.6070045455344,0,0,0,-61.12270244858396,159.28203051625712Z" fill-rule="evenodd" style="fill: #1DC690; stroke: #fff; opacity: 1;" id="p-type-logs"></path><path d="M-71.87872980696615,183.41877821351105A197,197,0,0,1,-73.17543964296468,182.905317126263L-63.3717896639023,158.4006511185927A170.6070045455344,170.6070045455344,0,0,0,-62.24880600459042,158.8453214640043Z" fill-rule="evenodd" style="fill: #1DC690; stroke: #fff; opacity: 1;" id="p-type-logs"></path><path d="M-73.17543964296468,182.905317126263A197,197,0,0,1,-74.46848194175372,182.38268886407695L-64.49159714282145,157.9480417668039A170.6070045455344,170.6070045455344,0,0,0,-63.3717896639023,158.4006511185927Z" fill-rule="evenodd" style="fill: #1DC690; stroke: #fff; opacity: 1;" id="p-type-logs"></path><path d="M-74.46848194175372,182.38268886407695A197,197,0,0,1,-75.75779189633293,181.8509196209684L-65.6081723168392,157.48751609332066A170.6070045455344,170.6070045455344,0,0,0,-64.49159714282145,157.9480417668039Z" fill-rule="evenodd" style="fill: #1DC690; stroke: #fff; opacity: 1;" id="p-type-logs"></path><path d="M-75.75779189633293,181.8509196209684A197,197,0,0,1,-77.04330488676622,181.31003604909682L-66.72145922344933,157.0190971795902A170.6070045455344,170.6070045455344,0,0,0,-65.6081723168392,157.48751609332066Z" fill-rule="evenodd" style="fill: #1DC690; stroke: #fff; opacity: 1;" id="p-type-logs"></path><path d="M-77.04330488676622,181.31003604909682A197,197,0,0,1,-78.3249564834205,180.7600652574298L-67.83140206495281,156.54280850266713A170.6070045455344,170.6070045455344,0,0,0,-66.72145922344933,157.0190971795902Z" fill-rule="evenodd" style="fill: #1DC690; stroke: #fff; opacity: 1;" id="p-type-logs"></path><path d="M-78.3249564834205,180.7600652574298A197,197,0,0,1,-79.60268245019493,180.20103481038456L-68.9379452112545,156.05867393403696A170.6070045455344,170.6070045455344,0,0,0,-67.83140206495281,156.54280850266713Z" fill-rule="evenodd" style="fill: #1DC690; stroke: #fff; opacity: 1;" id="p-type-logs"></path><path d="M-79.60268245019493,180.20103481038456A197,197,0,0,1,-80.87641874774039,179.63297272644616L-70.04103320265122,155.56671773841958A170.6070045455344,170.6070045455344,0,0,0,-68.9379452112545,156.05867393403696Z" fill-rule="evenodd" style="fill: #1DC690; stroke: #fff; opacity: 1;" id="p-type-logs"></path><path d="M-80.87641874774039,179.63297272644616A197,197,0,0,1,-82.14610153666912,179.05590747676337L-71.14061075261137,155.06696457255308A170.6070045455344,170.6070045455344,0,0,0,-70.04103320265122,155.56671773841958Z" fill-rule="evenodd" style="fill: #1DC690; stroke: #fff; opacity: 1;" id="p-type-logs"></path><path d="M-82.14610153666912,179.05590747676337A197,197,0,0,1,-83.41166718075432,178.46986798372174L-72.23662275054598,154.55943948395807A170.6070045455344,170.6070045455344,0,0,0,-71.14061075261137,155.06696457255308Z" fill-rule="evenodd" style="fill: #1DC690; stroke: #fff; opacity: 1;" id="p-type-logs"></path><path d="M-83.41166718075432,178.46986798372174A197,197,0,0,1,-84.67305225011962,177.87488361949394L-73.32901426457072,154.04416790968227A170.6070045455344,170.6070045455344,0,0,0,-72.23662275054598,154.55943948395807Z" fill-rule="evenodd" style="fill: #1DC690; stroke: #fff; opacity: 1;" id="p-type-logs"></path><path d="M-84.67305225011962,177.87488361949394A197,197,0,0,1,-85.93019352441813,177.27098420456758L-74.41773054425917,153.5211756750255A170.6070045455344,170.6070045455344,0,0,0,-73.32901426457072,154.04416790968227Z" fill-rule="evenodd" style="fill: #1DC690; stroke: #fff; opacity: 1;" id="p-type-logs"></path><path d="M-85.93019352441813,177.27098420456758A197,197,0,0,1,-87.18302799600107,176.65820000625075L-75.50271702338685,152.99048899224542A170.6070045455344,170.6070045455344,0,0,0,-74.41773054425917,153.5211756750255Z" fill-rule="evenodd" style="fill: #1DC690; stroke: #fff; opacity: 1;" id="p-type-logs"></path><path d="M-87.18302799600107,176.65820000625075A197,197,0,0,1,-88.43149287307565,176.03656173715495L-76.58391932266605,152.4521344592439A170.6070045455344,170.6070045455344,0,0,0,-75.50271702338685,152.99048899224542Z" fill-rule="evenodd" style="fill: #1DC690; stroke: #fff; opacity: 1;" id="p-type-logs"></path><path d="M-88.43149287307565,176.03656173715495A197,197,0,0,1,-89.67552558285226,175.4061005536558L-77.66128325247139,151.9061390582336A170.6070045455344,170.6070045455344,0,0,0,-76.58391932266605,152.4521344592439Z" fill-rule="evenodd" style="fill: #1DC690; stroke: #fff; opacity: 1;" id="p-type-logs"></path><path d="M-89.67552558285226,175.4061005536558A197,197,0,0,1,-90.9150637746805,174.76684805433146L-78.73475481555568,151.35253015438602A170.6070045455344,170.6070045455344,0,0,0,-77.66128325247139,151.9061390582336Z" fill-rule="evenodd" style="fill: #1DC690; stroke: #fff; opacity: 1;" id="p-type-logs"></path><path d="M-90.9150637746805,174.76684805433146A197,197,0,0,1,-92.1500453231743,174.11883627837892L-79.80428020975634,150.79133549445967A170.6070045455344,170.6070045455344,0,0,0,-78.73475481555568,151.35253015438602Z" fill-rule="evenodd" style="fill: #1DC690; stroke: #fff; opacity: 1;" id="p-type-logs"></path><path d="M-92.1500453231743,174.11883627837892A197,197,0,0,1,-93.38040833132551,173.46209770400827L-80.86980583069193,150.2225832054095A170.6070045455344,170.6070045455344,0,0,0,-79.80428020975634,150.79133549445967Z" fill-rule="evenodd" style="fill: #1DC690; stroke: #fff; opacity: 1;" id="p-type-logs"></path><path d="M-93.38040833132551,173.46209770400827A197,197,0,0,1,-94.60609113360626,172.79666524681485L-81.93127827444876,149.6463017929773A170.6070045455344,170.6070045455344,0,0,0,-80.86980583069193,150.2225832054095Z" fill-rule="evenodd" style="fill: #1DC690; stroke: #fff; opacity: 1;" id="p-type-logs"></path><path d="M-94.60609113360626,172.79666524681485A197,197,0,0,1,-95.82703229905957,172.12257225812945L-82.98864434025751,149.06252014026276A170.6070045455344,170.6070045455344,0,0,0,-81.93127827444876,149.6463017929773Z" fill-rule="evenodd" style="fill: #1DC690; stroke: #fff; opacity: 1;" id="p-type-logs"></path><path d="M-95.82703229905957,172.12257225812945A197,197,0,0,1,-97.04317063437827,171.43985252334693L-84.04185103315962,148.47126750627612A170.6070045455344,170.6070045455344,0,0,0,-82.98864434025751,149.06252014026276Z" fill-rule="evenodd" style="fill: #1DC690; stroke: #fff; opacity: 1;" id="p-type-logs"></path><path d="M-97.04317063437827,171.43985252334693A197,197,0,0,1,-98.25444518697202,170.74854026023272L-85.09084556666343,147.8725735244715A170.6070045455344,170.6070045455344,0,0,0,-84.04185103315962,148.47126750627612Z" fill-rule="evenodd" style="fill: #1DC690; stroke: #fff; opacity: 1;" id="p-type-logs"></path><path d="M-98.25444518697202,170.74854026023272A197,197,0,0,1,-99.4607952480222,170.04867011720793L-86.1355753653898,147.2664682012618A170.6070045455344,170.6070045455344,0,0,0,-85.09084556666343,147.8725735244715Z" fill-rule="evenodd" style="fill: #1DC690; stroke: #fff; opacity: 1;" id="p-type-logs"></path><path d="M-99.4607952480222,170.04867011720793A197,197,0,0,1,-100.66216035552462,169.3402771716128L-87.17598806770712,146.65298191451473A170.6070045455344,170.6070045455344,0,0,0,-86.1355753653898,147.2664682012618Z" fill-rule="evenodd" style="fill: #1DC690; stroke: #fff; opacity: 1;" id="p-type-logs"></path><path d="M-100.66216035552462,169.3402771716128A197,197,0,0,1,-101.85848029731996,168.62339692794853L-88.2120315283558,146.0321454120303A170.6070045455344,170.6070045455344,0,0,0,-87.17598806770712,146.65298191451473Z" fill-rule="evenodd" style="fill: #1DC690; stroke: #fff; opacity: 1;" id="p-type-logs"></path><path d="M-101.85848029731996,168.62339692794853A197,197,0,0,1,-103.0496951141114,167.89806531609793L-89.24365382106161,145.40398980999976A170.6070045455344,170.6070045455344,0,0,0,-88.2120315283558,146.0321454120303Z" fill-rule="evenodd" style="fill: #1DC690; stroke: #fff; opacity: 1;" id="p-type-logs"></path><path d="M-103.0496951141114,167.89806531609793A197,197,0,0,1,-104.23574510246996,167.1643186895245L-90.27080324113837,144.76854659144604A170.6070045455344,170.6070045455344,0,0,0,-89.24365382106161,145.40398980999976Z" fill-rule="evenodd" style="fill: #1DC690; stroke: #fff; opacity: 1;" id="p-type-logs"></path><path d="M-104.23574510246996,167.1643186895245A197,197,0,0,1,-105.41657081782675,166.42219382345047L-91.29342830807929,144.1258476046458A170.6070045455344,170.6070045455344,0,0,0,-90.27080324113837,144.76854659144604Z" fill-rule="evenodd" style="fill: #1DC690; stroke: #fff; opacity: 1;" id="p-type-logs"></path><path d="M-105.41657081782675,166.42219382345047A197,197,0,0,1,-106.5921130774523,165.67172791301365L-92.31147776813717,143.4759250615333A170.6070045455344,170.6070045455344,0,0,0,-91.29342830807929,144.1258476046458Z" fill-rule="evenodd" style="fill: #1DC690; stroke: #fff; opacity: 1;" id="p-type-logs"></path><path d="M-106.5921130774523,165.67172791301365A197,197,0,0,1,-107.76231296342274,164.91295857140315L-93.32490059689323,142.8188115360858A170.6070045455344,170.6070045455344,0,0,0,-92.31147776813717,143.4759250615333Z" fill-rule="evenodd" style="fill: #1DC690; stroke: #fff; opacity: 1;" id="p-type-logs"></path><path d="M-107.76231296342274,164.91295857140315A197,197,0,0,1,-108.9271118255729,164.1459238279743L-94.33364600181447,142.15453996269113A170.6070045455344,170.6070045455344,0,0,0,-93.32490059689323,142.8188115360858Z" fill-rule="evenodd" style="fill: #1DC690; stroke: #fff; opacity: 1;" id="p-type-logs"></path><path d="M-108.9271118255729,164.1459238279743A197,197,0,0,1,-110.0864512844357,163.37066212634252L-95.33766342479936,141.48314363449688A170.6070045455344,170.6070045455344,0,0,0,-94.33364600181447,142.15453996269113Z" fill-rule="evenodd" style="fill: #1DC690; stroke: #fff; opacity: 1;" id="p-type-logs"></path><path d="M-110.0864512844357,163.37066212634252A197,197,0,0,1,-111.2402732341682,162.58721232245665L-96.3369025447118,140.80465620174178A170.6070045455344,170.6070045455344,0,0,0,-95.33766342479936,141.48314363449688Z" fill-rule="evenodd" style="fill: #1DC690; stroke: #fff; opacity: 1;" id="p-type-logs"></path><path d="M-111.2402732341682,162.58721232245665A197,197,0,0,1,-112.3885198454638,161.79561368265144L-97.33131327990318,140.11911167006926A170.6070045455344,170.6070045455344,0,0,0,-96.3369025447118,140.80465620174178Z" fill-rule="evenodd" style="fill: #1DC690; stroke: #fff; opacity: 1;" id="p-type-logs"></path><path d="M-112.3885198454638,161.79561368265144A197,197,0,0,1,-113.53113356845067,160.99590588167953L-98.32084579072253,139.42654439882298A170.6070045455344,170.6070045455344,0,0,0,-97.33131327990318,140.11911167006926Z" fill-rule="evenodd" style="fill: #1DC690; stroke: #fff; opacity: 1;" id="p-type-logs"></path><path d="M-113.53113356845067,160.99590588167953A197,197,0,0,1,-114.66805713557613,160.1881290007229L-99.3054504820144,138.7269890993248A170.6070045455344,170.6070045455344,0,0,0,-98.32084579072253,139.42654439882298Z" fill-rule="evenodd" style="fill: #1DC690; stroke: #fff; opacity: 1;" id="p-type-logs"></path><path d="M-114.66805713557613,160.1881290007229A197,197,0,0,1,-115.79923356447689,159.3723235253842L-100.28507800560462,138.02048083313503A170.6070045455344,170.6070045455344,0,0,0,-99.3054504820144,138.7269890993248Z" fill-rule="evenodd" style="fill: #1DC690; stroke: #fff; opacity: 1;" id="p-type-logs"></path><path d="M-115.79923356447689,159.3723235253842A197,197,0,0,1,-116.92460616083494,158.54853034365735L-101.25967926277355,137.3070550102952A170.6070045455344,170.6070045455344,0,0,0,-100.28507800560462,138.02048083313503Z" fill-rule="evenodd" style="fill: #1DC690; stroke: #fff; opacity: 1;" id="p-type-logs"></path><path d="M-116.92460616083494,158.54853034365735A197,197,0,0,1,-118.04411852121913,157.71679074387853L-102.22920540671693,136.5867473875532A170.6070045455344,170.6070045455344,0,0,0,-101.25967926277355,137.3070550102952Z" fill-rule="evenodd" style="fill: #1DC690; stroke: #fff; opacity: 1;" id="p-type-logs"></path><path d="M-118.04411852121913,157.71679074387853A197,197,0,0,1,-119.1577145359121,156.87714641265654L-103.19360784499416,135.85959406657136A170.6070045455344,170.6070045455344,0,0,0,-102.22920540671693,136.5867473875532Z" fill-rule="evenodd" style="fill: #1DC690; stroke: #fff; opacity: 1;" id="p-type-logs"></path><path d="M-119.1577145359121,156.87714641265654A197,197,0,0,1,-120.26533839172242,156.0296394327837L-104.15283824196356,135.12563149211687A170.6070045455344,170.6070045455344,0,0,0,-103.19360784499416,135.85959406657136Z" fill-rule="evenodd" style="fill: #1DC690; stroke: #fff; opacity: 1;" id="p-type-logs"></path><path d="M-120.26533839172242,156.0296394327837A197,197,0,0,1,-121.36693457478198,155.1743122811266L-105.10684852120511,134.38489645023523A170.6070045455344,170.6070045455344,0,0,0,-104.15283824196356,135.12563149211687Z" fill-rule="evenodd" style="fill: #1DC690; stroke: #fff; opacity: 1;" id="p-type-logs"></path><path d="M-121.36693457478198,155.1743122811266A197,197,0,0,1,-122.4624478733283,154.311207826497L-106.05559086792991,133.63742606640648A170.6070045455344,170.6070045455344,0,0,0,-105.10684852120511,134.38489645023523Z" fill-rule="evenodd" style="fill: #1DC690; stroke: #fff; opacity: 1;" id="p-type-logs"></path><path d="M-122.4624478733283,154.311207826497A197,197,0,0,1,-123.55182338047182,153.44036932750356L-106.99901773137674,132.88325780368467A170.6070045455344,170.6070045455344,0,0,0,-106.05559086792991,133.63742606640648Z" fill-rule="evenodd" style="fill: #1DC690; stroke: #fff; opacity: 1;" id="p-type-logs"></path><path d="M-123.55182338047182,153.44036932750356A197,197,0,0,1,-124.63500649694767,152.56184043038357L-107.93708182719524,132.12242946082A170.6070045455344,170.6070045455344,0,0,0,-106.99901773137674,132.88325780368467Z" fill-rule="evenodd" style="fill: #1DC690; stroke: #fff; opacity: 1;" id="p-type-logs"></path><path d="M-124.63500649694767,152.56184043038357A197,197,0,0,1,-125.71194293385234,151.67566516681524L-108.86973613981579,131.3549791703645A170.6070045455344,170.6070045455344,0,0,0,-107.93708182719524,132.12242946082Z" fill-rule="evenodd" style="fill: #1DC690; stroke: #fff; opacity: 1;" id="p-type-logs"></path><path d="M-125.71194293385234,151.67566516681524A197,197,0,0,1,-126.78257871536451,150.78188795171124L-109.79693392480593,130.5809453967607A170.6070045455344,170.6070045455344,0,0,0,-108.86973613981579,131.3549791703645Z" fill-rule="evenodd" style="fill: #1DC690; stroke: #fff; opacity: 1;" id="p-type-logs"></path><path d="M-126.78257871536451,150.78188795171124A197,197,0,0,1,-127.84686018145037,149.8805535809922L-110.71862871121323,129.80036693441397A170.6070045455344,170.6070045455344,0,0,0,-109.79693392480593,130.5809453967607Z" fill-rule="evenodd" style="fill: #1DC690; stroke: #fff; opacity: 1;" id="p-type-logs"></path></g></svg>