<svg xmlns="http://www.w3.org/2000/svg" width="400" height="400" id="block-7908328"><g id="burst-container" transform="translate(200,200)"><circle r="197" style="fill: #f9f9f9; stroke: #f9f9f9; stroke-width: 3; opacity: 1;" id="circle-base"></circle><path display="none" d="M6.031385485800715e-15,-98.5A98.5,98.5,0,1,1,-6.031385485800715e-15,98.5A98.5,98.5,0,1,1,6.031385485800715e-15,-98.5Z" fill-rule="evenodd" id="p-type-root" style="stroke: #fff; opacity: 1;"></path><path d="M8.529667153919608e-15,-139.30003589374985A139.30003589374985,139.30003589374985,0,1,1,-115.39629515360717,-78.02688680718701L-81.59750282691996,-55.173340776237104A98.5,98.5,0,1,0,6.031385485800715e-15,-98.5Z" fill-rule="evenodd" style="fill: #0B1F65; stroke: #fff; opacity: 1;" id="p-type-data"></path><path d="M-115.39629515360717,-78.02688680718701A139.30003589374985,139.30003589374985,0,0,1,-2.54175142083754,-139.27684480815418L-1.7972896657647668,-98.48360142611223A98.5,98.5,0,0,0,-81.59750282691996,-55.173340776237104Z" fill-rule="evenodd" style="fill: #D7A449; stroke: #fff; opacity: 1;" id="p-type-value"></path><path d="M1.0446666101440332e-14,-170.6070045455344A170.6070045455344,170.6070045455344,0,0,1,170.60681209590936,-0.2562546996100214L139.299878759289,-0.20923108607824395A139.30003589374985,139.30003589374985,0,0,0,8.529667153919608e-15,-139.30003589374985Z" fill-rule="evenodd" style="fill: #1DC690; stroke: #fff; opacity: 1;" id="p-type-logs"></path><path d="M170.60681209590936,-0.2562546996100214A170.6070045455344,170.6070045455344,0,0,1,31.985371949716694,167.58187843928195L26.11594683664527,136.8300307711195A139.30003589374985,139.30003589374985,0,0,0,139.299878759289,-0.20923108607824395Z" fill-rule="evenodd" style="fill: #414552; stroke: #fff; opacity: 1;" id="p-type-ether"></path><path d="M31.985371949716694,167.58187843928195A170.6070045455344,170.6070045455344,0,0,1,-143.32982567986983,92.53816007776537L-117.02831261258069,75.55709130883801A139.30003589374985,139.30003589374985,0,0,0,26.11594683664527,136.8300307711195Z" fill-rule="evenodd" style="fill: #D7A449; stroke: #fff; opacity: 1;" id="p-type-tokenTransfers"></path><path d="M-141.3310206669705,-95.56302944775435A170.6070045455344,170.6070045455344,0,0,1,-63.78826685005891,-158.2333941121964L-52.08290178637851,-129.19702528119774A139.30003589374985,139.30003589374985,0,0,0,-115.39629515360717,-78.02688680718701Z" fill-rule="evenodd" style="fill: #D7A449; stroke: #fff; opacity: 1;" id="p-type-tokenTransfers"></path><path d="M-63.78826685005891,-158.2333941121964A170.6070045455344,170.6070045455344,0,0,1,-6.224957511983077,-170.49340135023996L-5.082656524954547,-139.20727927320945A139.30003589374985,139.30003589374985,0,0,0,-52.08290178637851,-129.19702528119774Z" fill-rule="evenodd" style="fill: #414552; stroke: #fff; opacity: 1;" id="p-type-ether"></path><path d="M1.206277097160143e-14,-197A197,197,0,0,1,1.797364474971674,-196.9918005424188L1.5565632951851496,-170.59990360697182A170.6070045455344,170.6070045455344,0,0,0,1.0446666101440332e-14,-170.6070045455344Z" fill-rule="evenodd" style="fill: #1DC690; stroke: #fff; opacity: 1;" id="p-type-logs"></path><path d="M1.797364474971674,-196.9918005424188A197,197,0,0,1,3.5945793315294226,-196.96720285222446L3.1129970170229653,-170.5786013823891A170.6070045455344,170.6070045455344,0,0,0,1.5565632951851496,-170.59990360697182Z" fill-rule="evenodd" style="fill: #1DC690; stroke: #fff; opacity: 1;" id="p-type-logs"></path><path d="M3.5945793315294226,-196.96720285222446A197,197,0,0,1,5.391494963714062,-196.92620897700806L4.669171602952238,-170.54309964505214A170.6070045455344,170.6070045455344,0,0,0,3.1129970170229653,-170.5786013823891Z" fill-rule="evenodd" style="fill: #1DC690; stroke: #fff; opacity: 1;" id="p-type-logs"></path><path d="M5.391494963714062,-196.92620897700806A197,197,0,0,1,7.187961790474802,-196.8688223292319L6.224957511983057,-170.49340135023996A170.6070045455344,170.6070045455344,0,0,0,4.669171602952238,-170.54309964505214Z" fill-rule="evenodd" style="fill: #1DC690; stroke: #fff; opacity: 1;" id="p-type-logs"></path><path d="M7.187961790474802,-196.8688223292319A197,197,0,0,1,8.983830268120856,-196.79504768594558L7.780225235480227,-170.42951063499888A170.6070045455344,170.6070045455344,0,0,0,6.224957511983057,-170.49340135023996Z" fill-rule="evenodd" style="fill: #1DC690; stroke: #fff; opacity: 1;" id="p-type-logs"></path><path d="M8.983830268120856,-196.79504768594558A197,197,0,0,1,10.778950902769912,-196.70489118838827L9.334845307943953,-170.351432817798A170.6070045455344,170.6070045455344,0,0,0,7.780225235480227,-170.42951063499888Z" fill-rule="evenodd" style="fill: #1DC690; stroke: #fff; opacity: 1;" id="p-type-logs"></path><path d="M10.778950902769912,-196.70489118838827A197,197,0,0,1,12.573174262792644,-196.59836034147753L10.88868831778711,-170.25917439808666A170.6070045455344,170.6070045455344,0,0,0,9.334845307943953,-170.351432817798Z" fill-rule="evenodd" style="fill: #1DC690; stroke: #fff; opacity: 1;" id="p-type-logs"></path><path d="M12.573174262792644,-196.59836034147753A197,197,0,0,1,14.36635099125163,-196.4754640131845L12.441624918107664,-170.15274305575306A170.6070045455344,170.6070045455344,0,0,0,10.88868831778711,-170.25917439808666Z" fill-rule="evenodd" style="fill: #1DC690; stroke: #fff; opacity: 1;" id="p-type-logs"></path><path d="M14.36635099125163,-196.4754640131845A197,197,0,0,1,16.15833181833448,-196.33621243379582L13.993525837456062,-170.03214765048534A170.6070045455344,170.6070045455344,0,0,0,12.441624918107664,-170.15274305575306Z" fill-rule="evenodd" style="fill: #1DC690; stroke: #fff; opacity: 1;" id="p-type-logs"></path><path d="M16.15833181833448,-196.33621243379582A197,197,0,0,1,17.94896757377949,-196.1806171950619L15.544261890596179,-169.89739822103385A170.6070045455344,170.6070045455344,0,0,0,13.993525837456062,-170.03214765048534Z" fill-rule="evenodd" style="fill: #1DC690; stroke: #fff; opacity: 1;" id="p-type-logs"></path><path d="M17.94896757377949,-196.1806171950619A197,197,0,0,1,19.738109199293053,-196.00869124923207L17.093703989259108,-169.74850598437556A170.6070045455344,170.6070045455344,0,0,0,15.544261890596179,-169.89739822103385Z" fill-rule="evenodd" style="fill: #1DC690; stroke: #fff; opacity: 1;" id="p-type-logs"></path><path d="M19.738109199293053,-196.00869124923207A197,197,0,0,1,21.52560776095775,-195.82044890797638L18.641723152888883,-169.5854833347803A170.6070045455344,170.6070045455344,0,0,0,17.093703989259108,-169.74850598437556Z" fill-rule="evenodd" style="fill: #1DC690; stroke: #fff; opacity: 1;" id="p-type-logs"></path><path d="M21.52560776095775,-195.82044890797638A197,197,0,0,1,23.31131446163011,-195.6159058411943L20.18819051937924,-169.408343842779A170.6070045455344,170.6070045455344,0,0,0,18.641723152888883,-169.5854833347803Z" fill-rule="evenodd" style="fill: #1DC690; stroke: #fff; opacity: 1;" id="p-type-logs"></path><path d="M23.31131446163011,-195.6159058411943A197,197,0,0,1,25.095080653326928,-195.39507907571013L21.732977355800507,-169.2171022540342A170.6070045455344,170.6070045455344,0,0,0,20.18819051937924,-169.408343842779Z" fill-rule="evenodd" style="fill: #1DC690; stroke: #fff; opacity: 1;" id="p-type-logs"></path><path d="M25.095080653326928,-195.39507907571013A197,197,0,0,1,26.876757849599247,-195.15798699385584L23.275955069115767,-169.01177448811222A170.6070045455344,170.6070045455344,0,0,0,21.732977355800507,-169.2171022540342Z" fill-rule="evenodd" style="fill: #1DC690; stroke: #fff; opacity: 1;" id="p-type-logs"></path><path d="M26.876757849599247,-195.15798699385584A197,197,0,0,1,28.6561977378928,-194.90464933194076L24.816995216885328,-168.7923776371584A170.6070045455344,170.6070045455344,0,0,0,23.275955069115767,-169.01177448811222Z" fill-rule="evenodd" style="fill: #1DC690; stroke: #fff; opacity: 1;" id="p-type-logs"></path><path d="M28.6561977378928,-194.90464933194076A197,197,0,0,1,30.433252191894066,-194.63508717860861L26.35596951795871,-168.55892996447395A170.6070045455344,170.6070045455344,0,0,0,24.816995216885328,-168.7923776371584Z" fill-rule="evenodd" style="fill: #1DC690; stroke: #fff; opacity: 1;" id="p-type-logs"></path><path d="M30.433252191894066,-194.63508717860861A197,197,0,0,1,32.20777328386071,-194.34932297308222L27.892749863153128,-168.3114509029958A170.6070045455344,170.6070045455344,0,0,0,26.35596951795871,-168.55892996447395Z" fill-rule="evenodd" style="fill: #1DC690; stroke: #fff; opacity: 1;" id="p-type-logs"></path><path d="M32.20777328386071,-194.34932297308222A197,197,0,0,1,33.97961329693577,-194.0473805032954L29.427208325917878,-168.049961053679A170.6070045455344,170.6070045455344,0,0,0,27.892749863153128,-168.3114509029958Z" fill-rule="evenodd" style="fill: #1DC690; stroke: #fff; opacity: 1;" id="p-type-logs"></path><path d="M33.97961329693577,-194.0473805032954A197,197,0,0,1,35.74862473744378,-193.72928490391283L30.959217172983116,-167.77448218378166A170.6070045455344,170.6070045455344,0,0,0,29.427208325917878,-168.049961053679Z" fill-rule="evenodd" style="fill: #1DC690; stroke: #fff; opacity: 1;" id="p-type-logs"></path><path d="M35.74862473744378,-193.72928490391283A197,197,0,0,1,37.51466034716883,-193.3950626542378L32.488648874992954,-167.48503722505308A170.6070045455344,170.6070045455344,0,0,0,30.959217172983116,-167.77448218378166Z" fill-rule="evenodd" style="fill: #1DC690; stroke: #fff; opacity: 1;" id="p-type-logs"></path><path d="M37.51466034716883,-193.3950626542378A197,197,0,0,1,39.27757311561277,-193.04474157600797L34.015376117121356,-167.1816502718249A170.6070045455344,170.6070045455344,0,0,0,32.488648874992954,-167.48503722505308Z" fill-rule="evenodd" style="fill: #1DC690; stroke: #fff; opacity: 1;" id="p-type-logs"></path><path d="M39.27757311561277,-193.04474157600797A197,197,0,0,1,41.037216292232806,-192.67835083107937L35.53927180967026,-166.86434657900523A170.6070045455344,170.6070045455344,0,0,0,34.015376117121356,-167.1816502718249Z" fill-rule="evenodd" style="fill: #1DC690; stroke: #fff; opacity: 1;" id="p-type-logs"></path><path d="M41.037216292232806,-192.67835083107937A197,197,0,0,1,42.79344339865753,-192.29592091899892L37.060209098648905,-166.53315255997651A170.6070045455344,170.6070045455344,0,0,0,35.53927180967026,-166.86434657900523Z" fill-rule="evenodd" style="fill: #1DC690; stroke: #fff; opacity: 1;" id="p-type-logs"></path><path d="M42.79344339865753,-192.29592091899892A197,197,0,0,1,44.546108240880166,-191.8974836744656L38.57806137633355,-166.18809578439678A170.6070045455344,170.6070045455344,0,0,0,37.060209098648905,-166.53315255997651Z" fill-rule="evenodd" style="fill: #1DC690; stroke: #fff; opacity: 1;" id="p-type-logs"></path><path d="M44.546108240880166,-191.8974836744656A197,197,0,0,1,46.295064921428434,-191.48307226468017L40.09270229180686,-165.82920497590447A170.6070045455344,170.6070045455344,0,0,0,38.57806137633355,-166.18809578439678Z" fill-rule="evenodd" style="fill: #1DC690; stroke: #fff; opacity: 1;" id="p-type-logs"></path><path d="M46.295064921428434,-191.48307226468017A197,197,0,0,1,48.040167851509274,-191.05272118658453L41.60400576147553,-165.45651000972765A170.6070045455344,170.6070045455344,0,0,0,40.09270229180686,-165.82920497590447Z" fill-rule="evenodd" style="fill: #1DC690; stroke: #fff; opacity: 1;" id="p-type-logs"></path><path d="M48.040167851509274,-191.05272118658453A197,197,0,0,1,49.78127176312827,-190.60646626399003L43.11184597956603,-165.07004191019695A170.6070045455344,170.6070045455344,0,0,0,41.60400576147553,-165.45651000972765Z" fill-rule="evenodd" style="fill: #1DC690; stroke: #fff; opacity: 1;" id="p-type-logs"></path><path d="M49.78127176312827,-190.60646626399003A197,197,0,0,1,51.518231721182175,-190.14434464459515L44.616097428597065,-164.66983284816297A170.6070045455344,170.6070045455344,0,0,0,43.11184597956603,-165.07004191019695Z" fill-rule="evenodd" style="fill: #1DC690; stroke: #fff; opacity: 1;" id="p-type-logs"></path><path d="M51.518231721182175,-190.14434464459515A197,197,0,0,1,53.250903135523835,-189.66639479689348L46.116634889828056,-164.2559161383184A170.6070045455344,170.6070045455344,0,0,0,44.616097428597065,-164.66983284816297Z" fill-rule="evenodd" style="fill: #1DC690; stroke: #fff; opacity: 1;" id="p-type-logs"></path><path d="M53.250903135523835,-189.66639479689348A197,197,0,0,1,54.97914177299827,-189.17265650697132L47.61333345368273,-163.82832623642474A170.6070045455344,170.6070045455344,0,0,0,46.116634889828056,-164.2559161383184Z" fill-rule="evenodd" style="fill: #1DC690; stroke: #fff; opacity: 1;" id="p-type-logs"></path><path d="M54.97914177299827,-189.17265650697132A197,197,0,0,1,56.70280376944918,-188.66317087519582L49.10606853014701,-163.387098736444A170.6070045455344,170.6070045455344,0,0,0,47.61333345368273,-163.82832623642474Z" fill-rule="evenodd" style="fill: #1DC690; stroke: #fff; opacity: 1;" id="p-type-logs"></path><path d="M56.70280376944918,-188.66317087519582A197,197,0,0,1,58.42174564169457,-188.13798031279367L50.59471585914031,-162.9322703675759A170.6070045455344,170.6070045455344,0,0,0,49.10606853014701,-163.387098736444Z" fill-rule="evenodd" style="fill: #1DC690; stroke: #fff; opacity: 1;" id="p-type-logs"></path><path d="M58.42174564169457,-188.13798031279367A197,197,0,0,1,60.13582429947084,-187.5971285383206L52.07915152085929,-162.46387899120032A170.6070045455344,170.6070045455344,0,0,0,50.59471585914031,-162.9322703675759Z" fill-rule="evenodd" style="fill: #1DC690; stroke: #fff; opacity: 1;" id="p-type-logs"></path><path d="M60.13582429947084,-187.5971285383206A197,197,0,0,1,61.84489705734401,-187.04066057402204L53.55925194609339,-161.98196359772555A170.6070045455344,170.6070045455344,0,0,0,52.07915152085929,-162.46387899120032Z" fill-rule="evenodd" style="fill: #1DC690; stroke: #fff; opacity: 1;" id="p-type-logs"></path><path d="M61.84489705734401,-187.04066057402204A197,197,0,0,1,63.548821646587385,-186.46862274208556L55.03489392651112,-161.4865643033428A170.6070045455344,170.6070045455344,0,0,0,53.55925194609339,-161.98196359772555Z" fill-rule="evenodd" style="fill: #1DC690; stroke: #fff; opacity: 1;" id="p-type-logs"></path><path d="M63.548821646587385,-186.46862274208556A197,197,0,0,1,65.24745622702439,-185.8810626607846L56.505954624916285,-160.97772234668653A170.6070045455344,170.6070045455344,0,0,0,55.03489392651112,-161.4865643033428Z" fill-rule="evenodd" style="fill: #1DC690; stroke: #fff; opacity: 1;" id="p-type-logs"></path><path d="M65.24745622702439,-185.8810626607846A197,197,0,0,1,66.94065939883588,-185.27802924051477L57.97231158547341,-160.45548008540183A170.6070045455344,170.6070045455344,0,0,0,56.505954624916285,-160.97772234668653Z" fill-rule="evenodd" style="fill: #1DC690; stroke: #fff; opacity: 1;" id="p-type-logs"></path><path d="M66.94065939883588,-185.27802924051477A197,197,0,0,1,68.62829021433062,-184.65957267972223L59.43384274390131,-159.91988099261832A170.6070045455344,170.6070045455344,0,0,0,57.97231158547341,-160.45548008540183Z" fill-rule="evenodd" style="fill: #1DC690; stroke: #fff; opacity: 1;" id="p-type-logs"></path><path d="M68.62829021433062,-184.65957267972223A197,197,0,0,1,70.3102081896783,-184.0257444607251L60.8904264376341,-159.37096965333137A170.6070045455344,170.6070045455344,0,0,0,59.43384274390131,-159.91988099261832Z" fill-rule="evenodd" style="fill: #1DC690; stroke: #fff; opacity: 1;" id="p-type-logs"></path><path d="M70.3102081896783,-184.0257444607251A197,197,0,0,1,71.98627331660391,-183.3765973454279L62.34194141594886,-158.80879176069064A170.6070045455344,170.6070045455344,0,0,0,60.8904264376341,-159.37096965333137Z" fill-rule="evenodd" style="fill: #1DC690; stroke: #fff; opacity: 1;" id="p-type-logs"></path><path d="M71.98627331660391,-183.3765973454279A197,197,0,0,1,73.65634607404232,-182.71218537092952L63.788266850058854,-158.23339411219644A170.6070045455344,170.6070045455344,0,0,0,62.34194141594886,-158.80879176069064Z" fill-rule="evenodd" style="fill: #1DC690; stroke: #fff; opacity: 1;" id="p-type-logs"></path><path d="M73.65634607404232,-182.71218537092952A197,197,0,0,1,75.3202874397526,-182.03256384502484L65.22928234317173,-157.64482460580425A170.6070045455344,170.6070045455344,0,0,0,63.788266850058854,-158.23339411219644Z" fill-rule="evenodd" style="fill: #1DC690; stroke: #fff; opacity: 1;" id="p-type-logs"></path><path d="M75.3202874397526,-182.03256384502484A197,197,0,0,1,76.97795890189063,-181.33778934160094L66.66486794051175,-157.0431322359374A170.6070045455344,170.6070045455344,0,0,0,65.22928234317173,-157.64482460580425Z" fill-rule="evenodd" style="fill: #1DC690; stroke: #fff; opacity: 1;" id="p-type-logs"></path><path d="M76.97795890189063,-181.33778934160094A197,197,0,0,1,78.62922247053928,-180.62791969592752L68.09490413930523,-156.42836708940877A170.6070045455344,170.6070045455344,0,0,0,66.66486794051175,-157.0431322359374Z" fill-rule="evenodd" style="fill: #1DC690; stroke: #fff; opacity: 1;" id="p-type-logs"></path><path d="M78.62922247053928,-180.62791969592752A197,197,0,0,1,80.27394068919514,-179.90301399984264L69.5192718987283,-155.80058034125125A170.6070045455344,170.6070045455344,0,0,0,68.09490413930523,-156.42836708940877Z" fill-rule="evenodd" style="fill: #1DC690; stroke: #fff; opacity: 1;" id="p-type-logs"></path><path d="M80.27394068919514,-179.90301399984264A197,197,0,0,1,81.91197664621083,-179.1631325968337L70.93785264981624,-155.15982425045783A170.6070045455344,170.6070045455344,0,0,0,69.5192718987283,-155.80058034125125Z" fill-rule="evenodd" style="fill: #1DC690; stroke: #fff; opacity: 1;" id="p-type-logs"></path><path d="M81.91197664621083,-179.1631325968337A197,197,0,0,1,83.54319398619195,-178.40833707701415L72.35052830533357,-154.5061521556314A170.6070045455344,170.6070045455344,0,0,0,70.93785264981624,-155.15982425045783Z" fill-rule="evenodd" style="fill: #1DC690; stroke: #fff; opacity: 1;" id="p-type-logs"></path><path d="M83.54319398619195,-178.40833707701415A197,197,0,0,1,85.16745692134783,-177.63869027199667L73.75718126960403,-153.83961847054474A170.6070045455344,170.6070045455344,0,0,0,72.35052830533357,-154.5061521556314Z" fill-rule="evenodd" style="fill: #1DC690; stroke: #fff; opacity: 1;" id="p-type-logs"></path><path d="M85.16745692134783,-177.63869027199667A197,197,0,0,1,86.78463024279482,-176.85425624966277L75.15769444829958,-153.16027867961077A170.6070045455344,170.6070045455344,0,0,0,73.75718126960403,-153.83961847054474Z" fill-rule="evenodd" style="fill: #1DC690; stroke: #fff; opacity: 1;" id="p-type-logs"></path><path d="M86.78463024279482,-176.85425624966277A197,197,0,0,1,88.39457933181157,-176.05510030882965L76.55195125818771,-152.46818933326404A170.6070045455344,170.6070045455344,0,0,0,75.15769444829958,-153.16027867961077Z" fill-rule="evenodd" style="fill: #1DC690; stroke: #fff; opacity: 1;" id="p-type-logs"></path><path d="M88.39457933181157,-176.05510030882965A197,197,0,0,1,89.99717017104518,-175.24128897381442L77.93983563683625,-151.76340804325312A170.6070045455344,170.6070045455344,0,0,0,76.55195125818771,-152.46818933326404Z" fill-rule="evenodd" style="fill: #1DC690; stroke: #fff; opacity: 1;" id="p-type-logs"></path><path d="M89.99717017104518,-175.24128897381442A197,197,0,0,1,91.59226935566717,-174.4128899888965L79.32123205227472,-151.04599347784497A170.6070045455344,170.6070045455344,0,0,0,77.93983563683625,-151.76340804325312Z" fill-rule="evenodd" style="fill: #1DC690; stroke: #fff; opacity: 1;" id="p-type-logs"></path><path d="M91.59226935566717,-174.4128899888965A197,197,0,0,1,93.17974410447853,-173.56997231267826L80.69602551261168,-150.31600535694102A170.6070045455344,170.6070045455344,0,0,0,79.32123205227472,-151.04599347784497Z" fill-rule="evenodd" style="fill: #1DC690; stroke: #fff; opacity: 1;" id="p-type-logs"></path><path d="M93.17974410447853,-173.56997231267826A197,197,0,0,1,94.75946227096284,-172.71260611234482L82.06410157560687,-149.5735044471061A170.6070045455344,170.6070045455344,0,0,0,80.69602551261168,-150.31600535694102Z" fill-rule="evenodd" style="fill: #1DC690; stroke: #fff; opacity: 1;" id="p-type-logs"></path><path d="M94.75946227096284,-172.71260611234482A197,197,0,0,1,96.33129235428667,-171.84086275782298L83.42534635819793,-148.81855255650996A170.6070045455344,170.6070045455344,0,0,0,82.06410157560687,-149.5735044471061Z" fill-rule="evenodd" style="fill: #1DC690; stroke: #fff; opacity: 1;" id="p-type-logs"></path><path d="M96.33129235428667,-171.84086275782298A197,197,0,0,1,97.895103510246,-170.9548148158402L84.77964654598021,-148.05121252978194A170.6070045455344,170.6070045455344,0,0,0,83.42534635819793,-148.81855255650996Z" fill-rule="evenodd" style="fill: #1DC690; stroke: #fff; opacity: 1;" id="p-type-logs"></path><path d="M97.895103510246,-170.9548148158402A197,197,0,0,1,99.45076556215824,-170.05453604388399L86.12688940263963,-147.27154824278A170.6070045455344,170.6070045455344,0,0,0,84.77964654598021,-148.05121252978194Z" fill-rule="evenodd" style="fill: #1DC690; stroke: #fff; opacity: 1;" id="p-type-logs"></path><path d="M99.45076556215824,-170.05453604388399A197,197,0,0,1,100.99814901169844,-169.14010138406195L87.46696277933705,-146.47962459727313A170.6070045455344,170.6070045455344,0,0,0,86.12688940263963,-147.27154824278Z" fill-rule="evenodd" style="fill: #1DC690; stroke: #fff; opacity: 1;" id="p-type-logs"></path><path d="M100.99814901169844,-169.14010138406195A197,197,0,0,1,102.53712504967923,-168.21158695686347L88.79975512404394,-145.6755075155389A170.6070045455344,170.6070045455344,0,0,0,87.46696277933705,-146.47962459727313Z" fill-rule="evenodd" style="fill: #1DC690; stroke: #fff; opacity: 1;" id="p-type-logs"></path><path d="M102.53712504967923,-168.21158695686347A197,197,0,0,1,104.0675655667733,-167.26907005482315L90.12515549082839,-144.85926393487577A170.6070045455344,170.6070045455344,0,0,0,88.79975512404394,-145.6755075155389Z" fill-rule="evenodd" style="fill: #1DC690; stroke: #fff; opacity: 1;" id="p-type-logs"></path><path d="M104.0675655667733,-167.26907005482315A197,197,0,0,1,105.58934316417758,-166.3126291360868L91.44305354909054,-144.03096180203116A170.6070045455344,170.6070045455344,0,0,0,90.12515549082839,-144.85926393487577Z" fill-rule="evenodd" style="fill: #1DC690; stroke: #fff; opacity: 1;" id="p-type-logs"></path><path d="M105.58934316417758,-166.3126291360868A197,197,0,0,1,107.10233116421836,-165.34234381788016L92.75333959274687,-143.19067006754514A170.6070045455344,170.6070045455344,0,0,0,91.44305354909054,-144.03096180203116Z" fill-rule="evenodd" style="fill: #1DC690; stroke: #fff; opacity: 1;" id="p-type-logs"></path><path d="M107.10233116421836,-165.34234381788016A197,197,0,0,1,108.60640362089644,-164.35829486988158L94.05590454936257,-142.338458680011A170.6070045455344,170.6070045455344,0,0,0,92.75333959274687,-143.19067006754514Z" fill-rule="evenodd" style="fill: #1DC690; stroke: #fff; opacity: 1;" id="p-type-logs"></path><path d="M108.60640362089644,-164.35829486988158A197,197,0,0,1,110.10143533037107,-163.36056420749813L95.35063998923087,-141.47439858025228A170.6070045455344,170.6070045455344,0,0,0,94.05590454936257,-142.338458680011Z" fill-rule="evenodd" style="fill: #1DC690; stroke: #fff; opacity: 1;" id="p-type-logs"></path><path d="M110.10143533037107,-163.36056420749813A197,197,0,0,1,111.58730184138257,-162.34923488504705L96.63743813439937,-140.59856169541754A170.6070045455344,170.6070045455344,0,0,0,95.35063998923087,-141.47439858025228Z" fill-rule="evenodd" style="fill: #1DC690; stroke: #fff; opacity: 1;" id="p-type-logs"></path><path d="M111.58730184138257,-162.34923488504705A197,197,0,0,1,113.06387946561183,-161.32439108884188L97.91619186764159,-139.71102093299297A170.6070045455344,170.6070045455344,0,0,0,96.63743813439937,-140.59856169541754Z" fill-rule="evenodd" style="fill: #1DC690; stroke: #fff; opacity: 1;" id="p-type-logs"></path><path d="M113.06387946561183,-161.32439108884188A197,197,0,0,1,114.53104528797668,-160.28611813018443L99.18679474137383,-138.8118501747332A170.6070045455344,170.6070045455344,0,0,0,97.91619186764159,-139.71102093299297Z" fill-rule="evenodd" style="fill: #1DC690; stroke: #fff; opacity: 1;" id="p-type-logs"></path><path d="M114.53104528797668,-160.28611813018443A197,197,0,0,1,115.98867717686366,-159.23450243826338L100.44914098651626,-137.90112427051122A170.6070045455344,170.6070045455344,0,0,0,99.18679474137383,-138.8118501747332Z" fill-rule="evenodd" style="fill: #1DC690; stroke: #fff; opacity: 1;" id="p-type-logs"></path><path d="M115.98867717686366,-159.23450243826338A197,197,0,0,1,117.43665379429468,-158.16963155295954L101.70312552129738,-136.97891903208767A170.6070045455344,170.6070045455344,0,0,0,100.44914098651626,-137.90112427051122Z" fill-rule="evenodd" style="fill: #1DC690; stroke: #fff; opacity: 1;" id="p-type-logs"></path><path d="M117.43665379429468,-158.16963155295954A197,197,0,0,1,118.87485460602757,-157.09159411755869L102.94864396000146,-136.04531122679992A170.6070045455344,170.6070045455344,0,0,0,101.70312552129738,-136.97891903208767Z" fill-rule="evenodd" style="fill: #1DC690; stroke: #fff; opacity: 1;" id="p-type-logs"></path><path d="M118.87485460602757,-157.09159411755869A197,197,0,0,1,120.30315989158977,-156.0004798713728L104.1855926216579,-135.1003785711718A170.6070045455344,170.6070045455344,0,0,0,102.94864396000146,-136.04531122679992Z" fill-rule="evenodd" style="fill: #1DC690; stroke: #fff; opacity: 1;" id="p-type-logs"></path><path d="M120.30315989158977,-156.0004798713728A197,197,0,0,1,121.7214507542442,-154.89637964226958L105.41386853867199,-134.1441997244442A170.6070045455344,170.6070045455344,0,0,0,104.1855926216579,-135.1003785711718Z" fill-rule="evenodd" style="fill: #1DC690; stroke: #fff; opacity: 1;" id="p-type-logs"></path><path d="M121.7214507542442,-154.89637964226958A197,197,0,0,1,123.12960913088662,-153.77938533911197L106.63336946539619,-133.17685428202722A170.6070045455344,170.6070045455344,0,0,0,105.41386853867199,-134.1441997244442Z" fill-rule="evenodd" style="fill: #1DC690; stroke: #fff; opacity: 1;" id="p-type-logs"></path><path d="M123.12960913088662,-153.77938533911197A197,197,0,0,1,124.52751780187363,-152.64958994410713L107.84399388664147,-132.19842276887437A170.6070045455344,170.6070045455344,0,0,0,106.63336946539619,-133.17685428202722Z" fill-rule="evenodd" style="fill: #1DC690; stroke: #fff; opacity: 1;" id="p-type-logs"></path><path d="M124.52751780187363,-152.64958994410713A197,197,0,0,1,125.91506040078032,-151.5070875050664L109.04564102612775,-131.2089866327794A170.6070045455344,170.6070045455344,0,0,0,107.84399388664147,-132.19842276887437Z" fill-rule="evenodd" style="fill: #1DC690; stroke: #fff; opacity: 1;" id="p-type-logs"></path><path d="M125.91506040078032,-151.5070875050664A197,197,0,0,1,127.29212142408711,-150.35197312757643L110.23821085487283,-130.20862823759643A170.6070045455344,170.6070045455344,0,0,0,109.04564102612775,-131.2089866327794Z" fill-rule="evenodd" style="fill: #1DC690; stroke: #fff; opacity: 1;" id="p-type-logs"></path><path d="M127.29212142408711,-150.35197312757643A197,197,0,0,1,128.65858624079453,-149.1843429670823L111.4216040995191,-129.19743085638362A170.6070045455344,170.6070045455344,0,0,0,110.23821085487283,-130.20862823759643Z" fill-rule="evenodd" style="fill: #1DC690; stroke: #fff; opacity: 1;" id="p-type-logs"></path><path d="M128.65858624079453,-149.1843429670823A197,197,0,0,1,130.0143411019655,-148.0042942208832L112.5957222505974,-128.17547866447123A170.6070045455344,170.6070045455344,0,0,0,111.4216040995191,-129.19743085638362Z" fill-rule="evenodd" style="fill: #1DC690; stroke: #fff; opacity: 1;" id="p-type-logs"></path><path d="M130.0143411019655,-148.0042942208832A197,197,0,0,1,131.3592731501942,-146.81192512004148L113.76046757072733,-127.14285673245469A170.6070045455344,170.6070045455344,0,0,0,112.5957222505974,-128.17547866447123Z" fill-rule="evenodd" style="fill: #1DC690; stroke: #fff; opacity: 1;" id="p-type-logs"></path><path d="M131.3592731501942,-146.81192512004148A197,197,0,0,1,132.69327042900065,-145.60733492120545L114.91574310275301,-126.09965101911294A170.6070045455344,170.6070045455344,0,0,0,113.76046757072733,-127.14285673245469Z" fill-rule="evenodd" style="fill: #1DC690; stroke: #fff; opacity: 1;" id="p-type-logs"></path><path d="M132.69327042900065,-145.60733492120545A197,197,0,0,1,134.01622189215033,-144.39062389834712L116.0614526778144,-125.04594836425308A170.6070045455344,170.6070045455344,0,0,0,114.91574310275301,-126.09965101911294Z" fill-rule="evenodd" style="fill: #1DC690; stroke: #fff; opacity: 1;" id="p-type-logs"></path><path d="M134.01622189215033,-144.39062389834712A197,197,0,0,1,135.32801741289794,-143.1618933344149L117.1975009233525,-123.9818364814814A170.6070045455344,170.6070045455344,0,0,0,116.0614526778144,-125.04594836425308Z" fill-rule="evenodd" style="fill: #1DC690; stroke: #fff; opacity: 1;" id="p-type-logs"></path><path d="M135.32801741289794,-143.1618933344149A197,197,0,0,1,136.62854779315498,-141.92124551290257L118.32379327104852,-122.9074039509019A170.6070045455344,170.6070045455344,0,0,0,117.1975009233525,-123.9818364814814Z" fill-rule="evenodd" style="fill: #1DC690; stroke: #fff; opacity: 1;" id="p-type-logs"></path><path d="M136.62854779315498,-141.92124551290257A197,197,0,0,1,137.9177047725794,-140.66878370933483L119.44023596469607,-121.82274021174257A170.6070045455344,170.6070045455344,0,0,0,118.32379327104852,-122.9074039509019Z" fill-rule="evenodd" style="fill: #1DC690; stroke: #fff; opacity: 1;" id="p-type-logs"></path><path d="M137.9177047725794,-140.66878370933483A197,197,0,0,1,139.1953810375878,-139.40461218267043L120.54673606800576,-120.72793555491023A170.6070045455344,170.6070045455344,0,0,0,119.44023596469607,-121.82274021174257Z" fill-rule="evenodd" style="fill: #1DC690; stroke: #fff; opacity: 1;" id="p-type-logs"></path><path d="M196.99977777831435,-0.29589743960190507A197,197,0,0,1,176.98440878283387,86.51889416648112L153.27299407970384,74.92756025550992A170.6070045455344,170.6070045455344,0,0,0,170.60681209590936,-0.2562546996100214Z" fill-rule="evenodd" style="fill: #414552; stroke: #fff; opacity: 1;" id="p-type-ether"></path><path d="M176.98440878283387,86.51889416648112A197,197,0,0,1,155.08042928148038,121.48687358670388L134.3035913875581,105.21071875243429A170.6070045455344,170.6070045455344,0,0,0,153.27299407970384,74.92756025550992Z" fill-rule="evenodd" style="fill: #414552; stroke: #fff; opacity: 1;" id="p-type-ether"></path><path d="M155.08042928148038,121.48687358670388A197,197,0,0,1,136.64270329241617,141.90761655718384L118.33605229301196,122.89560092902242A170.6070045455344,170.6070045455344,0,0,0,134.3035913875581,105.21071875243429Z" fill-rule="evenodd" style="fill: #414552; stroke: #fff; opacity: 1;" id="p-type-ether"></path><path d="M136.64270329241617,141.90761655718384A197,197,0,0,1,120.53563194503516,155.8209274507472L104.38691932561156,134.94488161359905A170.6070045455344,170.6070045455344,0,0,0,118.33605229301196,122.89560092902242Z" fill-rule="evenodd" style="fill: #414552; stroke: #fff; opacity: 1;" id="p-type-ether"></path><path d="M120.53563194503516,155.8209274507472A197,197,0,0,1,114.76991389368781,160.11516750400472L99.39366102208623,138.6638025896687A170.6070045455344,170.6070045455344,0,0,0,104.38691932561156,134.94488161359905Z" fill-rule="evenodd" style="fill: #414552; stroke: #fff; opacity: 1;" id="p-type-ether"></path><path d="M114.76991389368781,160.11516750400472A197,197,0,0,1,110.35903784134015,163.1866500873575L95.57373030780875,141.32378453413367A170.6070045455344,170.6070045455344,0,0,0,99.39366102208623,138.6638025896687Z" fill-rule="evenodd" style="fill: #414552; stroke: #fff; opacity: 1;" id="p-type-ether"></path><path d="M110.35903784134015,163.1866500873575A197,197,0,0,1,108.86558214638521,164.18673827056998L94.28035973655122,142.1898863068203A170.6070045455344,170.6070045455344,0,0,0,95.57373030780875,141.32378453413367Z" fill-rule="evenodd" style="fill: #414552; stroke: #fff; opacity: 1;" id="p-type-ether"></path><path d="M108.86558214638521,164.18673827056998A197,197,0,0,1,107.36546930203609,165.17159562574173L92.98122390480155,143.042797795503A170.6070045455344,170.6070045455344,0,0,0,94.28035973655122,142.1898863068203Z" fill-rule="evenodd" style="fill: #414552; stroke: #fff; opacity: 1;" id="p-type-ether"></path><path d="M107.36546930203609,165.17159562574173A197,197,0,0,1,106.11409760597498,165.97830668273977L91.89750422643581,143.74143006437708A170.6070045455344,170.6070045455344,0,0,0,92.98122390480155,143.042797795503Z" fill-rule="evenodd" style="fill: #414552; stroke: #fff; opacity: 1;" id="p-type-ether"></path><path d="M106.11409760597498,165.97830668273977A197,197,0,0,1,104.89979885980253,166.74840988499102L90.84589066446689,144.40835900106242A170.6070045455344,170.6070045455344,0,0,0,91.89750422643581,143.74143006437708Z" fill-rule="evenodd" style="fill: #414552; stroke: #fff; opacity: 1;" id="p-type-ether"></path><path d="M104.89979885980253,166.74840988499102A197,197,0,0,1,103.78157955150566,167.44665940470267L89.87748433647953,145.013060823313A170.6070045455344,170.6070045455344,0,0,0,90.84589066446689,144.40835900106242Z" fill-rule="evenodd" style="fill: #414552; stroke: #fff; opacity: 1;" id="p-type-ether"></path><path d="M103.78157955150566,167.44665940470267A197,197,0,0,1,102.72473795974084,168.0970797221135L88.96223267023521,145.57634134132832A170.6070045455344,170.6070045455344,0,0,0,89.87748433647953,145.013060823313Z" fill-rule="evenodd" style="fill: #414552; stroke: #fff; opacity: 1;" id="p-type-ether"></path><path d="M36.93352621059848,193.50688525644517A197,197,0,0,1,35.16649455524908,193.83580077141488L30.455077646892846,167.86672763094458A170.6070045455344,170.6070045455344,0,0,0,31.985371949716694,167.58187843928195Z" fill-rule="evenodd" style="fill: #D7A449; stroke: #fff; opacity: 1;" id="p-type-tokenTransfers"></path><path d="M35.16649455524908,193.83580077141488A197,197,0,0,1,33.396535527509975,194.14858076936787L28.922248165213176,168.1376030549675A170.6070045455344,170.6070045455344,0,0,0,30.455077646892846,167.86672763094458Z" fill-rule="evenodd" style="fill: #D7A449; stroke: #fff; opacity: 1;" id="p-type-tokenTransfers"></path><path d="M33.396535527509975,194.14858076936787A197,197,0,0,1,31.6237964644773,194.4451992134887L27.387011102345856,168.39448216280718A170.6070045455344,170.6070045455344,0,0,0,28.922248165213176,168.1376030549675Z" fill-rule="evenodd" style="fill: #D7A449; stroke: #fff; opacity: 1;" id="p-type-tokenTransfers"></path><path d="M31.6237964644773,194.4451992134887A197,197,0,0,1,29.84842493466628,194.72563141230174L25.84949425637387,168.63734357101836A170.6070045455344,170.6070045455344,0,0,0,27.387011102345856,168.39448216280718Z" fill-rule="evenodd" style="fill: #D7A449; stroke: #fff; opacity: 1;" id="p-type-tokenTransfers"></path><path d="M29.84842493466628,194.72563141230174A197,197,0,0,1,28.070568725727163,194.98985402172656L24.309825615156704,168.86616706303448A170.6070045455344,170.6070045455344,0,0,0,25.84949425637387,168.63734357101836Z" fill-rule="evenodd" style="fill: #D7A449; stroke: #fff; opacity: 1;" id="p-type-tokenTransfers"></path><path d="M28.070568725727163,194.98985402172656A197,197,0,0,1,26.290375832142903,195.23784504702124L22.7681333456762,169.08093359085024A170.6070045455344,170.6070045455344,0,0,0,24.309825615156704,168.86616706303448Z" fill-rule="evenodd" style="fill: #D7A449; stroke: #fff; opacity: 1;" id="p-type-tokenTransfers"></path><path d="M26.290375832142903,195.23784504702124A197,197,0,0,1,24.50799444290961,195.4695838446133L21.22454578336757,169.28162527660743A170.6070045455344,170.6070045455344,0,0,0,22.7681333456762,169.08093359085024Z" fill-rule="evenodd" style="fill: #D7A449; stroke: #fff; opacity: 1;" id="p-type-tokenTransfers"></path><path d="M24.50799444290961,195.4695838446133A197,197,0,0,1,22.72357292920083,195.68505112381806L19.67919142143629,169.46822541408307A170.6070045455344,170.6070045455344,0,0,0,21.22454578336757,169.28162527660743Z" fill-rule="evenodd" style="fill: #D7A449; stroke: #fff; opacity: 1;" id="p-type-tokenTransfers"></path><path d="M22.72357292920083,195.68505112381806A197,197,0,0,1,20.937259832016657,195.8842289484445L18.13219890016193,169.64071847008006A170.6070045455344,170.6070045455344,0,0,0,19.67919142143629,169.46822541408307Z" fill-rule="evenodd" style="fill: #D7A449; stroke: #fff; opacity: 1;" id="p-type-tokenTransfers"></path><path d="M20.937259832016657,195.8842289484445A197,197,0,0,1,19.149203849818687,196.0671007382883L16.583696996189754,169.79909008572034A170.6070045455344,170.6070045455344,0,0,0,18.13219890016193,169.64071847008006Z" fill-rule="evenodd" style="fill: #D7A449; stroke: #fff; opacity: 1;" id="p-type-tokenTransfers"></path><path d="M19.149203849818687,196.0671007382883A197,197,0,0,1,17.359553826151878,196.23365127051204L15.033814611810875,169.9433270776399A170.6070045455344,170.6070045455344,0,0,0,16.583696996189754,169.79909008572034Z" fill-rule="evenodd" style="fill: #D7A449; stroke: #fff; opacity: 1;" id="p-type-tokenTransfers"></path><path d="M17.359553826151878,196.23365127051204A197,197,0,0,1,15.568458737254346,196.3838666809125L13.482680764232066,170.0734174390866A170.6070045455344,170.6070045455344,0,0,0,15.033814611810875,169.9433270776399Z" fill-rule="evenodd" style="fill: #D7A449; stroke: #fff; opacity: 1;" id="p-type-tokenTransfers"></path><path d="M15.568458737254346,196.3838666809125A197,197,0,0,1,13.776067679656096,196.5177344650745L11.930424574835925,170.18935034091925A170.6070045455344,170.6070045455344,0,0,0,13.482680764232066,170.0734174390866Z" fill-rule="evenodd" style="fill: #D7A449; stroke: #fff; opacity: 1;" id="p-type-tokenTransfers"></path><path d="M13.776067679656096,196.5177344650745A197,197,0,0,1,11.98252985776774,196.63524347941217L10.377175258432398,170.29111613250933A170.6070045455344,170.6070045455344,0,0,0,11.930424574835925,170.18935034091925Z" fill-rule="evenodd" style="fill: #D7A449; stroke: #fff; opacity: 1;" id="p-type-tokenTransfers"></path><path d="M11.98252985776774,196.63524347941217A197,197,0,0,1,10.187994571460257,196.7363839420962L8.823062112502539,170.37870634254423A170.6070045455344,170.6070045455344,0,0,0,10.377175258432398,170.29111613250933Z" fill-rule="evenodd" style="fill: #D7A449; stroke: #fff; opacity: 1;" id="p-type-tokenTransfers"></path><path d="M10.187994571460257,196.7363839420962A197,197,0,0,1,8.392611203636772,196.82114743386848L7.268214506435339,170.45211367973246A170.6070045455344,170.6070045455344,0,0,0,8.823062112502539,170.37870634254423Z" fill-rule="evenodd" style="fill: #D7A449; stroke: #fff; opacity: 1;" id="p-type-tokenTransfers"></path><path d="M8.392611203636772,196.82114743386848A197,197,0,0,1,6.596529207797451,196.8895268987426L5.71276187075863,170.51133203341064A170.6070045455344,170.6070045455344,0,0,0,7.268214506435339,170.45211367973246Z" fill-rule="evenodd" style="fill: #D7A449; stroke: #fff; opacity: 1;" id="p-type-tokenTransfers"></path><path d="M6.596529207797451,196.8895268987426A197,197,0,0,1,4.79989809559851,196.9415166445914L4.156833686364858,170.556356474052A170.6070045455344,170.6070045455344,0,0,0,5.71276187075863,170.51133203341064Z" fill-rule="evenodd" style="fill: #D7A449; stroke: #fff; opacity: 1;" id="p-type-tokenTransfers"></path><path d="M4.79989809559851,196.9415166445914A197,197,0,0,1,3.002867424406382,196.97711234362086L2.6005594737326745,170.58718325367698A170.6070045455344,170.6070045455344,0,0,0,4.156833686364858,170.556356474052Z" fill-rule="evenodd" style="fill: #D7A449; stroke: #fff; opacity: 1;" id="p-type-tokenTransfers"></path><path d="M3.002867424406382,196.97711234362086A197,197,0,0,1,1.2055867848480781,196.99631103273026L1.04406878214524,170.6038098061651A170.6070045455344,170.6070045455344,0,0,0,2.6005594737326745,170.58718325367698Z" fill-rule="evenodd" style="fill: #D7A449; stroke: #fff; opacity: 1;" id="p-type-tokenTransfers"></path><path d="M1.2055867848480781,196.99631103273026A197,197,0,0,1,-0.5917942116412197,196.99911111375874L-0.5125088210938807,170.60623474746842A170.6070045455344,170.6070045455344,0,0,0,1.04406878214524,170.6038098061651Z" fill-rule="evenodd" style="fill: #D7A449; stroke: #fff; opacity: 1;" id="p-type-tokenTransfers"></path><path d="M-0.5917942116412197,196.99911111375874A197,197,0,0,1,-2.3891259452722924,196.9855123536186L-2.0690437614463155,170.59445787572707A170.6070045455344,170.6070045455344,0,0,0,-0.5125088210938807,170.60623474746842Z" fill-rule="evenodd" style="fill: #D7A449; stroke: #fff; opacity: 1;" id="p-type-tokenTransfers"></path><path d="M-2.3891259452722924,196.9855123536186A197,197,0,0,1,-4.186258800356721,196.95551588431442L-3.625406467925089,170.5684801712858A170.6070045455344,170.6070045455344,0,0,0,-2.0690437614463155,170.59445787572707Z" fill-rule="evenodd" style="fill: #D7A449; stroke: #fff; opacity: 1;" id="p-type-tokenTransfers"></path><path d="M-4.186258800356721,196.95551588431442A197,197,0,0,1,-5.983043177761378,196.90912420284909L-5.181467383880529,170.52830379661253A170.6070045455344,170.6070045455344,0,0,0,-3.625406467925089,170.5684801712858Z" fill-rule="evenodd" style="fill: #D7A449; stroke: #fff; opacity: 1;" id="p-type-tokenTransfers"></path><path d="M-5.983043177761378,196.90912420284909A197,197,0,0,1,-7.779329507361543,196.84634117101564L-6.7370969777849785,170.4739320961182A170.6070045455344,170.6070045455344,0,0,0,-5.181467383880529,170.52830379661253Z" fill-rule="evenodd" style="fill: #D7A449; stroke: #fff; opacity: 1;" id="p-type-tokenTransfers"></path><path d="M-7.779329507361543,196.84634117101564A197,197,0,0,1,-9.574968260491598,196.76717201507617L-8.29216575401542,170.40536959587845A170.6070045455344,170.6070045455344,0,0,0,-6.7370969777849785,170.4739320961182Z" fill-rule="evenodd" style="fill: #D7A449; stroke: #fff; opacity: 1;" id="p-type-tokenTransfers"></path><path d="M-9.574968260491598,196.76717201507617A197,197,0,0,1,-11.36980996239228,196.67162332532644L-9.846544263633106,170.32262200325684A170.6070045455344,170.6070045455344,0,0,0,-8.29216575401542,170.40536959587845Z" fill-rule="evenodd" style="fill: #D7A449; stroke: #fff; opacity: 1;" id="p-type-tokenTransfers"></path><path d="M-11.36980996239228,196.67162332532644A197,197,0,0,1,-13.163705204653438,196.55970305554743L-11.40010311515931,170.2256962064298A170.6070045455344,170.6070045455344,0,0,0,-9.846544263633106,170.32262200325684Z" fill-rule="evenodd" style="fill: #D7A449; stroke: #fff; opacity: 1;" id="p-type-tokenTransfers"></path><path d="M-13.163705204653438,196.55970305554743A197,197,0,0,1,-14.956504657651276,196.43142052234325L-12.952712985346285,170.11460027381318A170.6070045455344,170.6070045455344,0,0,0,-11.40010311515931,170.2256962064298Z" fill-rule="evenodd" style="fill: #D7A449; stroke: #fff; opacity: 1;" id="p-type-tokenTransfers"></path><path d="M-14.956504657651276,196.43142052234325A197,197,0,0,1,-16.74805908297903,196.2867864043656L-14.504244629942548,169.98934345339057A170.6070045455344,170.6070045455344,0,0,0,-12.952712985346285,170.11460027381318Z" fill-rule="evenodd" style="fill: #D7A449; stroke: #fff; opacity: 1;" id="p-type-tokenTransfers"></path><path d="M-16.74805908297903,196.2867864043656A197,197,0,0,1,-18.538219345870043,196.12581274142477L-16.054568894451595,169.84993617194357A170.6070045455344,170.6070045455344,0,0,0,-14.504244629942548,169.98934345339057Z" fill-rule="evenodd" style="fill: #D7A449; stroke: #fff; opacity: 1;" id="p-type-tokenTransfers"></path><path d="M-18.538219345870043,196.12581274142477A197,197,0,0,1,-20.326836427612253,195.94851293348742L-17.603556724883138,169.69639003418374A170.6070045455344,170.6070045455344,0,0,0,-16.054568894451595,169.84993617194357Z" fill-rule="evenodd" style="fill: #D7A449; stroke: #fff; opacity: 1;" id="p-type-tokenTransfers"></path><path d="M-20.326836427612253,195.94851293348742A197,197,0,0,1,-22.11376143795296,195.75490173956132L-19.15107917849596,169.5287178217867A170.6070045455344,170.6070045455344,0,0,0,-17.603556724883138,169.69639003418374Z" fill-rule="evenodd" style="fill: #D7A449; stroke: #fff; opacity: 1;" id="p-type-tokenTransfers"></path><path d="M-22.11376143795296,195.75490173956132A197,197,0,0,1,-23.89884562749294,195.54499527646638L-20.69700743453154,169.34693349232796A170.6070045455344,170.6070045455344,0,0,0,-19.15107917849596,169.5287178217867Z" fill-rule="evenodd" style="fill: #D7A449; stroke: #fff; opacity: 1;" id="p-type-tokenTransfers"></path><path d="M-23.89884562749294,195.54499527646638A197,197,0,0,1,-25.681940400068832,195.31881101749343L-22.241212804937497,169.1510521781212A170.6070045455344,170.6070045455344,0,0,0,-20.69700743453154,169.34693349232796Z" fill-rule="evenodd" style="fill: #D7A449; stroke: #fff; opacity: 1;" id="p-type-tokenTransfers"></path><path d="M-25.681940400068832,195.31881101749343A197,197,0,0,1,-27.462897325122764,195.0763677909494L-23.78356674508002,168.94109018495863A170.6070045455344,170.6070045455344,0,0,0,-22.241212804937497,169.1510521781212Z" fill-rule="evenodd" style="fill: #D7A449; stroke: #fff; opacity: 1;" id="p-type-tokenTransfers"></path><path d="M-27.462897325122764,195.0763677909494A197,197,0,0,1,-29.241568150058175,194.8176857785902L-25.32394086444431,168.71706499075347A170.6070045455344,170.6070045455344,0,0,0,-23.78356674508002,168.94109018495863Z" fill-rule="evenodd" style="fill: #D7A449; stroke: #fff; opacity: 1;" id="p-type-tokenTransfers"></path><path d="M-29.241568150058175,194.8176857785902A197,197,0,0,1,-31.01780481258085,194.5427865139405L-26.862206937322235,168.47899524408518A170.6070045455344,170.6070045455344,0,0,0,-25.32394086444431,168.71706499075347Z" fill-rule="evenodd" style="fill: #D7A449; stroke: #fff; opacity: 1;" id="p-type-tokenTransfers"></path><path d="M-31.01780481258085,194.5427865139405A197,197,0,0,1,-32.7914594530241,194.2516928805015L-28.398236913486247,168.22690076264706A170.6070045455344,170.6070045455344,0,0,0,-26.862206937322235,168.47899524408518Z" fill-rule="evenodd" style="fill: #D7A449; stroke: #fff; opacity: 1;" id="p-type-tokenTransfers"></path><path d="M-32.7914594530241,194.2516928805015A197,197,0,0,1,-34.5623844266571,193.94442910984571L-29.931902928848707,167.96080253159656A170.6070045455344,170.6070045455344,0,0,0,-28.398236913486247,168.22690076264706Z" fill-rule="evenodd" style="fill: #D7A449; stroke: #fff; opacity: 1;" id="p-type-tokenTransfers"></path><path d="M-34.5623844266571,193.94442910984571A197,197,0,0,1,-36.33043231597525,193.62102077960012L-31.463077316105686,167.68072270180838A170.6070045455344,170.6070045455344,0,0,0,-29.931902928848707,167.96080253159656Z" fill-rule="evenodd" style="fill: #D7A449; stroke: #fff; opacity: 1;" id="p-type-tokenTransfers"></path><path d="M-36.33043231597525,193.62102077960012A197,197,0,0,1,-38.09545594297177,193.28149481131683L-32.991632615364416,167.38668458803053A170.6070045455344,170.6070045455344,0,0,0,-31.463077316105686,167.68072270180838Z" fill-rule="evenodd" style="fill: #D7A449; stroke: #fff; opacity: 1;" id="p-type-tokenTransfers"></path><path d="M-38.09545594297177,193.28149481131683A197,197,0,0,1,-39.85730838138918,192.92587946823215L-34.517441584753456,167.0787126669437A170.6070045455344,170.6070045455344,0,0,0,-32.991632615364416,167.38668458803053Z" fill-rule="evenodd" style="fill: #D7A449; stroke: #fff; opacity: 1;" id="p-type-tokenTransfers"></path><path d="M-39.85730838138918,192.92587946823215A197,197,0,0,1,-41.61584296895001,192.5542043529138L-36.04037721101472,166.7568325751235A170.6070045455344,170.6070045455344,0,0,0,-34.517441584753456,167.0787126669437Z" fill-rule="evenodd" style="fill: #D7A449; stroke: #fff; opacity: 1;" id="p-type-tokenTransfers"></path><path d="M-41.61584296895001,192.5542043529138A197,197,0,0,1,-43.370913319565354,192.16650040479675L-37.560312720076475,166.4210711069066A170.6070045455344,170.6070045455344,0,0,0,-36.04037721101472,166.7568325751235Z" fill-rule="evenodd" style="fill: #D7A449; stroke: #fff; opacity: 1;" id="p-type-tokenTransfers"></path><path d="M-43.370913319565354,192.16650040479675A197,197,0,0,1,-45.12237333552057,191.76279989760764L-39.07712158760639,166.07145621216014A170.6070045455344,170.6070045455344,0,0,0,-37.560312720076475,166.4210711069066Z" fill-rule="evenodd" style="fill: #D7A449; stroke: #fff; opacity: 1;" id="p-type-tokenTransfers"></path><path d="M-45.12237333552057,191.76279989760764A197,197,0,0,1,-46.87007721963693,191.34313643667826L-40.59067754954389,165.70801699395523A170.6070045455344,170.6070045455344,0,0,0,-39.07712158760639,166.07145621216014Z" fill-rule="evenodd" style="fill: #D7A449; stroke: #fff; opacity: 1;" id="p-type-tokenTransfers"></path><path d="M-46.87007721963693,191.34313643667826A197,197,0,0,1,-48.61387948740821,190.90754495614823L-42.10085461261074,165.33078370614413A170.6070045455344,170.6070045455344,0,0,0,-40.59067754954389,165.70801699395523Z" fill-rule="evenodd" style="fill: #D7A449; stroke: #fff; opacity: 1;" id="p-type-tokenTransfers"></path><path d="M-48.61387948740821,190.90754495614823A197,197,0,0,1,-50.35363497911133,190.45606171605675L-43.60752706479912,164.939787750842A170.6070045455344,170.6070045455344,0,0,0,-42.10085461261074,165.33078370614413Z" fill-rule="evenodd" style="fill: #D7A449; stroke: #fff; opacity: 1;" id="p-type-tokenTransfers"></path><path d="M-50.35363497911133,190.45606171605675A197,197,0,0,1,-52.08919887188986,189.98872429932442L-45.11056948583634,164.5350616758128A170.6070045455344,170.6070045455344,0,0,0,-43.60752706479912,164.939787750842Z" fill-rule="evenodd" style="fill: #D7A449; stroke: #fff; opacity: 1;" id="p-type-tokenTransfers"></path><path d="M-52.08919887188986,189.98872429932442A197,197,0,0,1,-53.82042669180964,189.5055716086246L-46.60985675762522,164.11663917175997A170.6070045455344,170.6070045455344,0,0,0,-45.11056948583634,164.5350616758128Z" fill-rule="evenodd" style="fill: #D7A449; stroke: #fff; opacity: 1;" id="p-type-tokenTransfers"></path><path d="M-53.82042669180964,189.5055716086246A197,197,0,0,1,-55.547174325885116,189.006643863145L-48.10526407465926,163.68455506952174A170.6070045455344,170.6070045455344,0,0,0,-46.60985675762522,164.11663917175997Z" fill-rule="evenodd" style="fill: #D7A449; stroke: #fff; opacity: 1;" id="p-type-tokenTransfers"></path><path d="M-55.547174325885116,189.006643863145A197,197,0,0,1,-57.269298034075916,188.49198259523982L-49.59666695441195,163.23884533717194A170.6070045455344,170.6070045455344,0,0,0,-48.10526407465926,163.68455506952174Z" fill-rule="evenodd" style="fill: #D7A449; stroke: #fff; opacity: 1;" id="p-type-tokenTransfers"></path><path d="M-57.269298034075916,188.49198259523982A197,197,0,0,1,-58.986654461252144,187.9616306469723L-51.083941247699045,162.7795470770257A170.6070045455344,170.6070045455344,0,0,0,-49.59666695441195,163.23884533717194Z" fill-rule="evenodd" style="fill: #D7A449; stroke: #fff; opacity: 1;" id="p-type-tokenTransfers"></path><path d="M-58.986654461252144,187.9616306469723A197,197,0,0,1,-60.69910064912774,187.41563216654862L-52.566963149013134,162.3066985225511A170.6070045455344,170.6070045455344,0,0,0,-51.083941247699045,162.7795470770257Z" fill-rule="evenodd" style="fill: #D7A449; stroke: #fff; opacity: 1;" id="p-type-tokenTransfers"></path><path d="M-60.69910064912774,187.41563216654862A197,197,0,0,1,-62.4064940481608,186.85403260464267L-54.045609206829624,161.82033903518635A170.6070045455344,170.6070045455344,0,0,0,-52.566963149013134,162.3066985225511Z" fill-rule="evenodd" style="fill: #D7A449; stroke: #fff; opacity: 1;" id="p-type-tokenTransfers"></path><path d="M-62.4064940481608,186.85403260464267A197,197,0,0,1,-64.10869252941986,186.2768787106127L-55.51975633388326,161.32050910106327A170.6070045455344,170.6070045455344,0,0,0,-54.045609206829624,161.82033903518635Z" fill-rule="evenodd" style="fill: #D7A449; stroke: #fff; opacity: 1;" id="p-type-tokenTransfers"></path><path d="M-64.10869252941986,186.2768787106127A197,197,0,0,1,-65.80555439641513,185.68421852860962L-56.98928181741426,160.8072503276371A170.6070045455344,170.6070045455344,0,0,0,-55.51975633388326,161.32050910106327Z" fill-rule="evenodd" style="fill: #D7A449; stroke: #fff; opacity: 1;" id="p-type-tokenTransfers"></path><path d="M-65.80555439641513,185.68421852860962A197,197,0,0,1,-67.49693839689387,185.0761013935779L-58.45406332938339,160.28060544022298A170.6070045455344,170.6070045455344,0,0,0,-56.98928181741426,160.8072503276371Z" fill-rule="evenodd" style="fill: #D7A449; stroke: #fff; opacity: 1;" id="p-type-tokenTransfers"></path><path d="M-67.49693839689387,185.0761013935779A197,197,0,0,1,-69.1827037345985,184.45257792714844L-59.91397893665486,159.74061827843937A170.6070045455344,170.6070045455344,0,0,0,-58.45406332938339,160.28060544022298Z" fill-rule="evenodd" style="fill: #D7A449; stroke: #fff; opacity: 1;" id="p-type-tokenTransfers"></path><path d="M-69.1827037345985,184.45257792714844A197,197,0,0,1,-70.86271008098717,183.81370003342502L-61.36890711114653,159.18733379255858A170.6070045455344,170.6070045455344,0,0,0,-59.91397893665486,159.74061827843937Z" fill-rule="evenodd" style="fill: #D7A449; stroke: #fff; opacity: 1;" id="p-type-tokenTransfers"></path><path d="M-70.86271008098717,183.81370003342502A197,197,0,0,1,-72.53681758691494,183.1595208946634L-62.81872673994618,158.6207980397652A170.6070045455344,170.6070045455344,0,0,0,-61.36890711114653,159.18733379255858Z" fill-rule="evenodd" style="fill: #D7A449; stroke: #fff; opacity: 1;" id="p-type-tokenTransfers"></path><path d="M-72.53681758691494,183.1595208946634A197,197,0,0,1,-74.20488689427539,182.49009496684414L-64.26331713539345,158.04105818032176A170.6070045455344,170.6070045455344,0,0,0,-62.81872673994618,158.6207980397652Z" fill-rule="evenodd" style="fill: #D7A449; stroke: #fff; opacity: 1;" id="p-type-tokenTransfers"></path><path d="M-74.20488689427539,182.49009496684414A197,197,0,0,1,-75.86677914760125,181.80547797513995L-65.70255804512621,157.44816247364344A170.6070045455344,170.6070045455344,0,0,0,-64.26331713539345,158.04105818032176Z" fill-rule="evenodd" style="fill: #D7A449; stroke: #fff; opacity: 1;" id="p-type-tokenTransfers"></path><path d="M-75.86677914760125,181.80547797513995A197,197,0,0,1,-77.52235600562312,181.10572690927648L-67.13632966209076,156.84216027428042A170.6070045455344,170.6070045455344,0,0,0,-65.70255804512621,157.44816247364344Z" fill-rule="evenodd" style="fill: #D7A449; stroke: #fff; opacity: 1;" id="p-type-tokenTransfers"></path></g></svg>