<svg xmlns="http://www.w3.org/2000/svg" width="400" height="400" id="block-7908207"><g id="burst-container" transform="translate(200,200)"><circle r="197" style="fill: #f9f9f9; stroke: #f9f9f9; stroke-width: 3; opacity: 1;" id="circle-base"></circle><path display="none" d="M6.031385485800715e-15,-98.5A98.5,98.5,0,1,1,-6.031385485800715e-15,98.5A98.5,98.5,0,1,1,6.031385485800715e-15,-98.5Z" fill-rule="evenodd" id="p-type-root" style="stroke: #fff; opacity: 1;"></path><path d="M8.529667153919608e-15,-139.30003589374985A139.30003589374985,139.30003589374985,0,1,1,-115.79634027811942,-77.43195450325386L-81.88037744724319,-54.75266010977904A98.5,98.5,0,1,0,6.031385485800715e-15,-98.5Z" fill-rule="evenodd" style="fill: #0B1F65; stroke: #fff; opacity: 1;" id="p-type-data"></path><path d="M-115.79634027811942,-77.43195450325386A139.30003589374985,139.30003589374985,0,0,1,-10.506027667303094,-138.9032878756074L-7.428883406883504,-98.21945678594915A98.5,98.5,0,0,0,-81.88037744724319,-54.75266010977904Z" fill-rule="evenodd" style="fill: #D7A449; stroke: #fff; opacity: 1;" id="p-type-value"></path><path d="M1.0446666101440332e-14,-170.6070045455344A170.6070045455344,170.6070045455344,0,0,1,131.1490816522467,109.11768134345746L107.0827767608706,89.09421373569413A139.30003589374985,139.30003589374985,0,0,0,8.529667153919608e-15,-139.30003589374985Z" fill-rule="evenodd" style="fill: #1DC690; stroke: #fff; opacity: 1;" id="p-type-logs"></path><path d="M131.1490816522467,109.11768134345746A170.6070045455344,170.6070045455344,0,0,1,-79.08748613121539,151.16851371051055L-64.5746620203063,123.42857458855792A139.30003589374985,139.30003589374985,0,0,0,107.0827767608706,89.09421373569413Z" fill-rule="evenodd" style="fill: #D7A449; stroke: #fff; opacity: 1;" id="p-type-tokenTransfers"></path><path d="M-79.08748613121539,151.16851371051055A170.6070045455344,170.6070045455344,0,0,1,-122.54587843177411,118.69817892193983L-100.05829074632831,96.91665725211134A139.30003589374985,139.30003589374985,0,0,0,-64.5746620203063,123.42857458855792Z" fill-rule="evenodd" style="fill: #414552; stroke: #fff; opacity: 1;" id="p-type-ether"></path><path d="M-141.82097388154205,-94.83438915968703A170.6070045455344,170.6070045455344,0,0,1,-50.73836106344895,-162.88759534290844L-41.42769833018253,-132.99716467302372A139.30003589374985,139.30003589374985,0,0,0,-115.79634027811942,-77.43195450325386Z" fill-rule="evenodd" style="fill: #D7A449; stroke: #fff; opacity: 1;" id="p-type-tokenTransfers"></path><path d="M-50.73836106344895,-162.88759534290844A170.6070045455344,170.6070045455344,0,0,1,-25.661111442426293,-168.6661120662339L-20.952209755546413,-137.71530382045265A139.30003589374985,139.30003589374985,0,0,0,-41.42769833018253,-132.99716467302372Z" fill-rule="evenodd" style="fill: #414552; stroke: #fff; opacity: 1;" id="p-type-ether"></path><path d="M1.206277097160143e-14,-197A197,197,0,0,1,7.4341787150982315,-196.85967841798376L6.438187623548625,-170.48548249080912A170.6070045455344,170.6070045455344,0,0,0,1.0446666101440332e-14,-170.6070045455344Z" fill-rule="evenodd" style="fill: #1DC690; stroke: #fff; opacity: 1;" id="p-type-logs"></path><path d="M7.4341787150982315,-196.85967841798376A197,197,0,0,1,14.857766813767025,-196.4389135718983L12.867203504227621,-170.12108944507966A170.6070045455344,170.6070045455344,0,0,0,6.438187623548625,-170.48548249080912Z" fill-rule="evenodd" style="fill: #1DC690; stroke: #fff; opacity: 1;" id="p-type-logs"></path><path d="M14.857766813767025,-196.4389135718983A197,197,0,0,1,22.260188766806056,-195.73830487685888L19.277888965091037,-169.51434451706328A170.6070045455344,170.6070045455344,0,0,0,12.867203504227621,-170.12108944507966Z" fill-rule="evenodd" style="fill: #1DC690; stroke: #fff; opacity: 1;" id="p-type-logs"></path><path d="M22.260188766806056,-195.73830487685888A197,197,0,0,1,29.630899197979677,-194.75885040921548L25.66111144242635,-168.6661120662339A170.6070045455344,170.6070045455344,0,0,0,19.277888965091037,-169.51434451706328Z" fill-rule="evenodd" style="fill: #1DC690; stroke: #fff; opacity: 1;" id="p-type-logs"></path><path d="M29.630899197979677,-194.75885040921548A197,197,0,0,1,36.95939790679776,-193.50194548470824L32.00777749586427,-167.57760047146888A170.6070045455344,170.6070045455344,0,0,0,25.66111144242635,-168.6661120662339Z" fill-rule="evenodd" style="fill: #1DC690; stroke: #fff; opacity: 1;" id="p-type-logs"></path><path d="M36.95939790679776,-193.50194548470824A197,197,0,0,1,44.235244826939166,-191.96938067072247L38.30884576275349,-166.25036040961103A170.6070045455344,170.6070045455344,0,0,0,32.00777749586427,-167.57760047146888Z" fill-rule="evenodd" style="fill: #1DC690; stroke: #fff; opacity: 1;" id="p-type-logs"></path><path d="M44.235244826939166,-191.96938067072247A197,197,0,0,1,51.448074899009626,-190.1633392354738L44.55533983834685,-164.68628264639838A170.6070045455344,170.6070045455344,0,0,0,38.30884576275349,-166.25036040961103Z" fill-rule="evenodd" style="fill: #1DC690; stroke: #fff; opacity: 1;" id="p-type-logs"></path><path d="M51.448074899009626,-190.1633392354738A197,197,0,0,1,58.58761283644534,-188.08639403775803L50.73836106344893,-162.88759534290844A170.6070045455344,170.6070045455344,0,0,0,44.55533983834685,-164.68628264639838Z" fill-rule="evenodd" style="fill: #1DC690; stroke: #fff; opacity: 1;" id="p-type-logs"></path><path d="M58.58761283644534,-188.08639403775803A197,197,0,0,1,65.64368776352813,-185.741503861696L56.84910120130907,-160.85686088135415A170.6070045455344,170.6070045455344,0,0,0,50.73836106344893,-162.88759534290844Z" fill-rule="evenodd" style="fill: #1DC690; stroke: #fff; opacity: 1;" id="p-type-logs"></path><path d="M65.64368776352813,-185.741503861696A197,197,0,0,1,72.60624770465802,-183.13200920169538L62.878854985699434,-158.59697221475378A170.6070045455344,170.6070045455344,0,0,0,56.84910120130907,-160.85686088135415Z" fill-rule="evenodd" style="fill: #1DC690; stroke: #fff; opacity: 1;" id="p-type-logs"></path><path d="M72.60624770465802,-183.13200920169538A197,197,0,0,1,79.46537390424297,-180.26162750363392L68.8190325223034,-156.11114874567463A170.6070045455344,170.6070045455344,0,0,0,62.878854985699434,-158.59697221475378Z" fill-rule="evenodd" style="fill: #1DC690; stroke: #fff; opacity: 1;" id="p-type-logs"></path><path d="M79.46537390424297,-180.26162750363392A197,197,0,0,1,86.21129495680498,-177.13444786904316L74.66117152574637,-153.4029317399217A170.6070045455344,170.6070045455344,0,0,0,68.8190325223034,-156.11114874567463Z" fill-rule="evenodd" style="fill: #1DC690; stroke: #fff; opacity: 1;" id="p-type-logs"></path><path d="M86.21129495680498,-177.13444786904316A197,197,0,0,1,92.83440072717404,-173.75492522983765L80.39694937483729,-150.47617928170507A170.6070045455344,170.6070045455344,0,0,0,74.66117152574637,-153.4029317399217Z" fill-rule="evenodd" style="fill: #1DC690; stroke: #fff; opacity: 1;" id="p-type-logs"></path><path d="M92.83440072717404,-173.75492522983765A197,197,0,0,1,99.32525604093838,-170.12787400188728L86.01819496884642,-147.3350607774725A170.6070045455344,170.6070045455344,0,0,0,80.39694937483729,-150.47617928170507Z" fill-rule="evenodd" style="fill: #1DC690; stroke: #fff; opacity: 1;" id="p-type-logs"></path><path d="M99.32525604093838,-170.12787400188728A197,197,0,0,1,105.67461412564856,-166.25846122647496L91.51690036792954,-143.9840510162374A170.6070045455344,170.6070045455344,0,0,0,86.01819496884642,-147.3350607774725Z" fill-rule="evenodd" style="fill: #1DC690; stroke: #fff; opacity: 1;" id="p-type-logs"></path><path d="M105.67461412564856,-166.25846122647496A197,197,0,0,1,111.8734297836271,-162.152199209409L96.8852322011157,-140.42792379486315A170.6070045455344,170.6070045455344,0,0,0,91.51690036792954,-143.9840510162374Z" fill-rule="evenodd" style="fill: #1DC690; stroke: #fff; opacity: 1;" id="p-type-logs"></path><path d="M111.8734297836271,-162.152199209409A197,197,0,0,1,117.9128722776176,-157.81493766827728L102.11554282560671,-136.67174511738585A170.6070045455344,170.6070045455344,0,0,0,96.8852322011157,-140.42792379486315Z" fill-rule="evenodd" style="fill: #1DC690; stroke: #fff; opacity: 1;" id="p-type-logs"></path><path d="M117.9128722776176,-157.81493766827728A197,197,0,0,1,123.784337910917,-153.25285539902973L107.2003812214913,-132.7208659780629A170.6070045455344,170.6070045455344,0,0,0,102.11554282560671,-136.67174511738585Z" fill-rule="evenodd" style="fill: #1DC690; stroke: #fff; opacity: 1;" id="p-type-logs"></path><path d="M123.784337910917,-153.25285539902973A197,197,0,0,1,129.47946228406926,-148.47245147376088L112.13250360635307,-128.58091473842924A170.6070045455344,170.6070045455344,0,0,0,107.2003812214913,-132.7208659780629Z" fill-rule="evenodd" style="fill: #1DC690; stroke: #fff; opacity: 1;" id="p-type-logs"></path><path d="M129.47946228406926,-148.47245147376088A197,197,0,0,1,134.99013221065997,-143.4805359822319L116.90488375465155,-124.25778910922006A170.6070045455344,170.6070045455344,0,0,0,112.13250360635307,-128.58091473842924Z" fill-rule="evenodd" style="fill: #1DC690; stroke: #fff; opacity: 1;" id="p-type-logs"></path><path d="M134.99013221065997,-143.4805359822319A197,197,0,0,1,140.30849727523668,-138.28422033032152L121.51072300717465,-119.75764774858295A170.6070045455344,170.6070045455344,0,0,0,116.90488375465155,-124.25778910922006Z" fill-rule="evenodd" style="fill: #1DC690; stroke: #fff; opacity: 1;" id="p-type-logs"></path><path d="M140.30849727523668,-138.28422033032152A197,197,0,0,1,145.42698101688967,-132.89090710922704L125.94345995630377,-115.08690148854868A170.6070045455344,170.6070045455344,0,0,0,121.51072300717465,-119.75764774858295Z" fill-rule="evenodd" style="fill: #1DC690; stroke: #fff; opacity: 1;" id="p-type-logs"></path><path d="M145.42698101688967,-132.89090710922704A197,197,0,0,1,150.33829172256162,-127.30827954984689L130.19677979329416,-110.25220420225834A170.6070045455344,170.6070045455344,0,0,0,125.94345995630377,-115.08690148854868Z" fill-rule="evenodd" style="fill: #1DC690; stroke: #fff; opacity: 1;" id="p-type-logs"></path><path d="M150.33829172256162,-127.30827954984689A197,197,0,0,1,155.0354328147094,-121.54429057736826L134.26462330425392,-105.26044332495847A170.6070045455344,170.6070045455344,0,0,0,130.19677979329416,-110.25220420225834Z" fill-rule="evenodd" style="fill: #1DC690; stroke: #fff; opacity: 1;" id="p-type-logs"></path><path d="M155.0354328147094,-121.54429057736826A197,197,0,0,1,159.51171281852083,-115.60715148165248L138.14119550200692,-100.11873004226685A170.6070045455344,170.6070045455344,0,0,0,134.26462330425392,-105.26044332495847Z" fill-rule="evenodd" style="fill: #1DC690; stroke: #fff; opacity: 1;" id="p-type-logs"></path><path d="M159.51171281852083,-115.60715148165248A197,197,0,0,1,163.7607548944864,-109.50532021955806L141.82097388154207,-94.83438915968702A170.6070045455344,170.6070045455344,0,0,0,138.14119550200692,-100.11873004226685Z" fill-rule="evenodd" style="fill: #1DC690; stroke: #fff; opacity: 1;" id="p-type-logs"></path><path d="M163.7607548944864,-109.50532021955806A197,197,0,0,1,167.7765059227467,-103.24748936586563L145.29871628728898,-89.41494866780332A170.6070045455344,170.6070045455344,0,0,0,141.82097388154207,-94.83438915968702Z" fill-rule="evenodd" style="fill: #1DC690; stroke: #fff; opacity: 1;" id="p-type-logs"></path><path d="M167.7765059227467,-103.24748936586563A197,197,0,0,1,171.55324512627368,-96.84257372996991L148.56946838101194,-83.86812901802146A170.6070045455344,170.6070045455344,0,0,0,145.29871628728898,-89.41494866780332Z" fill-rule="evenodd" style="fill: #1DC690; stroke: #fff; opacity: 1;" id="p-type-logs"></path><path d="M171.55324512627368,-96.84257372996991A197,197,0,0,1,175.08559222060126,-90.29969765597963L151.62857069968376,-78.2018321241325A170.6070045455344,170.6070045455344,0,0,0,148.56946838101194,-83.86812901802146Z" fill-rule="evenodd" style="fill: #1DC690; stroke: #fff; opacity: 1;" id="p-type-logs"></path><path d="M175.08559222060126,-90.29969765597963A197,197,0,0,1,178.3685150784959,-83.62818202431752L154.47166529328513,-72.4241301053681A170.6070045455344,170.6070045455344,0,0,0,151.62857069968376,-78.2018321241325Z" fill-rule="evenodd" style="fill: #1DC690; stroke: #fff; opacity: 1;" id="p-type-logs"></path><path d="M151.4379151917937,125.99824539398594A197,197,0,0,1,146.57525792334374,131.6233025140505L126.937896927872,113.9891237071719A170.6070045455344,170.6070045455344,0,0,0,131.1490816522467,109.11768134345746Z" fill-rule="evenodd" style="fill: #D7A449; stroke: #fff; opacity: 1;" id="p-type-tokenTransfers"></path><path d="M146.57525792334374,131.6233025140505A197,197,0,0,1,141.5037918013279,137.06085110580062L122.54587843177413,118.69817892193981A170.6070045455344,170.6070045455344,0,0,0,126.937896927872,113.9891237071719Z" fill-rule="evenodd" style="fill: #D7A449; stroke: #fff; opacity: 1;" id="p-type-tokenTransfers"></path><path d="M141.5037918013279,137.06085110580062A197,197,0,0,1,136.23074155822715,142.30314492131058L117.97928296581719,123.23813854027348A170.6070045455344,170.6070045455344,0,0,0,122.54587843177413,118.69817892193981Z" fill-rule="evenodd" style="fill: #D7A449; stroke: #fff; opacity: 1;" id="p-type-tokenTransfers"></path><path d="M136.23074155822715,142.30314492131058A197,197,0,0,1,130.7636191001549,147.34271586959974L113.24461603152619,127.60253500566594A170.6070045455344,170.6070045455344,0,0,0,117.97928296581719,123.23813854027348Z" fill-rule="evenodd" style="fill: #D7A449; stroke: #fff; opacity: 1;" id="p-type-tokenTransfers"></path><path d="M130.7636191001549,147.34271586959974A197,197,0,0,1,125.11021280551107,152.17238465556008L108.34862256244976,131.78515086617233A170.6070045455344,170.6070045455344,0,0,0,113.24461603152619,127.60253500566594Z" fill-rule="evenodd" style="fill: #D7A449; stroke: #fff; opacity: 1;" id="p-type-tokenTransfers"></path><path d="M125.11021280551107,152.17238465556008A197,197,0,0,1,119.2785764297783,156.7852710074691L103.29827731543176,135.78002763169607A170.6070045455344,170.6070045455344,0,0,0,108.34862256244976,131.78515086617233Z" fill-rule="evenodd" style="fill: #D7A449; stroke: #fff; opacity: 1;" id="p-type-tokenTransfers"></path><path d="M119.2785764297783,156.7852710074691A197,197,0,0,1,113.27701763226614,161.17480347851912L98.10077493448026,139.58147426236206A170.6070045455344,170.6070045455344,0,0,0,103.29827731543176,135.78002763169607Z" fill-rule="evenodd" style="fill: #D7A449; stroke: #fff; opacity: 1;" id="p-type-tokenTransfers"></path><path d="M113.27701763226614,161.17480347851912A197,197,0,0,1,107.11408614114745,165.334728808399L92.76351970138838,143.1840752758844A170.6070045455344,170.6070045455344,0,0,0,98.10077493448026,139.58147426236206Z" fill-rule="evenodd" style="fill: #D7A449; stroke: #fff; opacity: 1;" id="p-type-tokenTransfers"></path><path d="M107.11408614114745,165.334728808399A197,197,0,0,1,100.79856157364758,169.25912083159236L87.29411498770874,146.58269846237886A170.6070045455344,170.6070045455344,0,0,0,92.76351970138838,143.1840752758844Z" fill-rule="evenodd" style="fill: #D7A449; stroke: #fff; opacity: 1;" id="p-type-tokenTransfers"></path><path d="M100.79856157364758,169.25912083159236A197,197,0,0,1,94.33944092873675,172.94238891970178L81.70035242310745,149.77250219563015A170.6070045455344,170.6070045455344,0,0,0,87.29411498770874,146.58269846237886Z" fill-rule="evenodd" style="fill: #D7A449; stroke: #fff; opacity: 1;" id="p-type-tokenTransfers"></path><path d="M94.33944092873675,172.94238891970178A197,197,0,0,1,87.74592577014424,176.3792859457718L75.99020079552854,152.748942330398A170.6070045455344,170.6070045455344,0,0,0,81.70035242310745,149.77250219563015Z" fill-rule="evenodd" style="fill: #D7A449; stroke: #fff; opacity: 1;" id="p-type-tokenTransfers"></path><path d="M87.74592577014424,176.3792859457718A197,197,0,0,1,81.02740911795227,179.56491575926512L70.17179469898151,155.5077786759363A170.6070045455344,170.6070045455344,0,0,0,75.99020079552854,152.748942330398Z" fill-rule="evenodd" style="fill: #D7A449; stroke: #fff; opacity: 1;" id="p-type-tokenTransfers"></path><path d="M81.02740911795227,179.56491575926512A197,197,0,0,1,74.19346206744449,182.4947401610432L64.25342294512404,158.04508103650366A170.6070045455344,170.6070045455344,0,0,0,70.17179469898151,155.5077786759363Z" fill-rule="evenodd" style="fill: #D7A449; stroke: #fff; opacity: 1;" id="p-type-tokenTransfers"></path><path d="M74.19346206744449,182.4947401610432A197,197,0,0,1,67.25382015427105,185.16458536841478L58.243516755148605,160.35723481025957A170.6070045455344,170.6070045455344,0,0,0,64.25342294512404,158.04508103650366Z" fill-rule="evenodd" style="fill: #D7A449; stroke: #fff; opacity: 1;" id="p-type-tokenTransfers"></path><path d="M67.25382015427105,185.16458536841478A197,197,0,0,1,60.21836948535465,187.57064796104243L52.15063774879478,162.44094613857055A170.6070045455344,170.6070045455344,0,0,0,58.243516755148605,160.35723481025957Z" fill-rule="evenodd" style="fill: #D7A449; stroke: #fff; opacity: 1;" id="p-type-tokenTransfers"></path><path d="M60.21836948535465,187.57064796104243A197,197,0,0,1,53.09713265529487,189.7095002992365L45.98346574759764,164.29324659839037A170.6070045455344,170.6070045455344,0,0,0,52.15063774879478,162.44094613857055Z" fill-rule="evenodd" style="fill: #D7A449; stroke: #fff; opacity: 1;" id="p-type-tokenTransfers"></path><path d="M53.09713265529487,189.7095002992365A197,197,0,0,1,45.900254468334396,191.57809540691792L39.75078640974778,165.9114974310298A170.6070045455344,170.6070045455344,0,0,0,45.98346574759764,164.29324659839037Z" fill-rule="evenodd" style="fill: #D7A449; stroke: #fff; opacity: 1;" id="p-type-tokenTransfers"></path><path d="M45.900254468334396,191.57809540691792A197,197,0,0,1,38.63798748622729,193.17377131229318L33.46147871417807,167.29339330129153A170.6070045455344,170.6070045455344,0,0,0,39.75078640974778,165.9114974310298Z" fill-rule="evenodd" style="fill: #D7A449; stroke: #fff; opacity: 1;" id="p-type-tokenTransfers"></path><path d="M-91.322362814776,174.5543641675178A197,197,0,0,1,-105.48473809209524,166.37899515756808L-91.35246289930254,144.08843646258208A170.6070045455344,170.6070045455344,0,0,0,-79.08748613121539,151.16851371051055Z" fill-rule="evenodd" style="fill: #414552; stroke: #fff; opacity: 1;" id="p-type-ether"></path><path d="M-105.48473809209524,166.37899515756808A197,197,0,0,1,-118.90386531291733,157.06963682917083L-102.97376796914975,136.0262956572578A170.6070045455344,170.6070045455344,0,0,0,-91.35246289930254,144.08843646258208Z" fill-rule="evenodd" style="fill: #414552; stroke: #fff; opacity: 1;" id="p-type-ether"></path></g></svg>