<svg xmlns="http://www.w3.org/2000/svg" width="400" height="400" id="block-7908272"><g id="burst-container" transform="translate(200,200)"><circle r="197" style="fill: #f9f9f9; stroke: #f9f9f9; stroke-width: 3; opacity: 1;" id="circle-base"></circle><path display="none" d="M6.031385485800715e-15,-98.5A98.5,98.5,0,1,1,-6.031385485800715e-15,98.5A98.5,98.5,0,1,1,6.031385485800715e-15,-98.5Z" fill-rule="evenodd" id="p-type-root" style="stroke: #fff; opacity: 1;"></path><path d="M8.529667153919608e-15,-139.30003589374985A139.30003589374985,139.30003589374985,0,1,1,-133.41575683844448,-40.059154100218464L-94.3391863775996,-28.32609951286137A98.5,98.5,0,1,0,6.031385485800715e-15,-98.5Z" fill-rule="evenodd" style="fill: #0B1F65; stroke: #fff; opacity: 1;" id="p-type-data"></path><path d="M-133.41575683844448,-40.059154100218464A139.30003589374985,139.30003589374985,0,0,1,-2.1085474924560867,-139.28407671902792L-1.4909682303695895,-98.48871515933197A98.5,98.5,0,0,0,-94.3391863775996,-28.32609951286137Z" fill-rule="evenodd" style="fill: #D7A449; stroke: #fff; opacity: 1;" id="p-type-value"></path><path d="M1.0446666101440332e-14,-170.6070045455344A170.6070045455344,170.6070045455344,0,0,1,170.33573253915495,-9.617079616467315L139.07854322803962,-7.852312625355289A139.30003589374985,139.30003589374985,0,0,0,8.529667153919608e-15,-139.30003589374985Z" fill-rule="evenodd" style="fill: #414552; stroke: #fff; opacity: 1;" id="p-type-ether"></path><path d="M170.33573253915495,-9.617079616467315A170.6070045455344,170.6070045455344,0,0,1,71.33011929146922,154.97988282956203L58.240798518651445,126.54054444291697A139.30003589374985,139.30003589374985,0,0,0,139.07854322803962,-7.852312625355289Z" fill-rule="evenodd" style="fill: #1DC690; stroke: #fff; opacity: 1;" id="p-type-logs"></path><path d="M71.33011929146922,154.97988282956203A170.6070045455344,170.6070045455344,0,0,1,-85.19104104739068,147.8148724765603L-69.55819374086805,120.69033798737934A139.30003589374985,139.30003589374985,0,0,0,58.240798518651445,126.54054444291697Z" fill-rule="evenodd" style="fill: #D7A449; stroke: #fff; opacity: 1;" id="p-type-tokenTransfers"></path><path d="M-163.40026395071223,-49.062243536527916A170.6070045455344,170.6070045455344,0,0,1,-83.98068308209179,-148.50587486380886L-68.56994060050286,-121.25453907398067A139.30003589374985,139.30003589374985,0,0,0,-133.41575683844448,-40.059154100218464Z" fill-rule="evenodd" style="fill: #414552; stroke: #fff; opacity: 1;" id="p-type-ether"></path><path d="M-83.98068308209179,-148.50587486380886A170.6070045455344,170.6070045455344,0,0,1,-5.164273732264722,-170.52882535459582L-4.2166118453690125,-139.23620285164878A139.30003589374985,139.30003589374985,0,0,0,-68.56994060050286,-121.25453907398067Z" fill-rule="evenodd" style="fill: #D7A449; stroke: #fff; opacity: 1;" id="p-type-tokenTransfers"></path><path d="M1.206277097160143e-14,-197A197,197,0,0,1,47.261889903952785,-191.24673529947287L40.92999728768639,-165.62453116018165A170.6070045455344,170.6070045455344,0,0,0,1.0446666101440332e-14,-170.6070045455344Z" fill-rule="evenodd" style="fill: #414552; stroke: #fff; opacity: 1;" id="p-type-ether"></path><path d="M47.261889903952785,-191.24673529947287A197,197,0,0,1,76.93544091621493,-181.35583236010802L66.62804628479886,-157.0587579483255A170.6070045455344,170.6070045455344,0,0,0,40.92999728768639,-165.62453116018165Z" fill-rule="evenodd" style="fill: #414552; stroke: #fff; opacity: 1;" id="p-type-ether"></path><path d="M76.93544091621493,-181.35583236010802A197,197,0,0,1,96.98523158976674,-171.472635873714L83.99167434865502,-148.49965872051519A170.6070045455344,170.6070045455344,0,0,0,66.62804628479886,-157.0587579483255Z" fill-rule="evenodd" style="fill: #414552; stroke: #fff; opacity: 1;" id="p-type-ether"></path><path d="M96.98523158976674,-171.472635873714A197,197,0,0,1,103.4488553595343,-167.65242117190598L89.58933673377868,-145.19125574083867A170.6070045455344,170.6070045455344,0,0,0,83.99167434865502,-148.49965872051519Z" fill-rule="evenodd" style="fill: #414552; stroke: #fff; opacity: 1;" id="p-type-ether"></path><path d="M103.4488553595343,-167.65242117190598A197,197,0,0,1,108.58328138146679,-164.3735714901675L94.03588010262409,-142.3516886212626A170.6070045455344,170.6070045455344,0,0,0,89.58933673377868,-145.19125574083867Z" fill-rule="evenodd" style="fill: #414552; stroke: #fff; opacity: 1;" id="p-type-ether"></path><path d="M108.58328138146679,-164.3735714901675A197,197,0,0,1,113.50911175212458,-161.01143297680352L98.30177433834665,-139.43999125764734A170.6070045455344,170.6070045455344,0,0,0,94.03588010262409,-142.3516886212626Z" fill-rule="evenodd" style="fill: #414552; stroke: #fff; opacity: 1;" id="p-type-ether"></path><path d="M113.50911175212458,-161.01143297680352A197,197,0,0,1,117.89535412105202,-157.8280250040269L102.10037165699346,-136.6830790826129A170.6070045455344,170.6070045455344,0,0,0,98.30177433834665,-139.43999125764734Z" fill-rule="evenodd" style="fill: #414552; stroke: #fff; opacity: 1;" id="p-type-ether"></path><path d="M117.89535412105202,-157.8280250040269A197,197,0,0,1,120.5737024180845,-155.7914705149008L104.41988932240638,-134.91937115883843A170.6070045455344,170.6070045455344,0,0,0,102.10037165699346,-136.6830790826129Z" fill-rule="evenodd" style="fill: #414552; stroke: #fff; opacity: 1;" id="p-type-ether"></path><path d="M120.5737024180845,-155.7914705149008A197,197,0,0,1,122.5025663993767,-154.27936098378908L106.09033453065022,-133.6098458915911A170.6070045455344,170.6070045455344,0,0,0,104.41988932240638,-134.91937115883843Z" fill-rule="evenodd" style="fill: #414552; stroke: #fff; opacity: 1;" id="p-type-ether"></path><path d="M122.5025663993767,-154.27936098378908A197,197,0,0,1,124.18251471422101,-152.930386252217L107.54521244835024,-132.44159950498639A170.6070045455344,170.6070045455344,0,0,0,106.09033453065022,-133.6098458915911Z" fill-rule="evenodd" style="fill: #414552; stroke: #fff; opacity: 1;" id="p-type-ether"></path><path d="M124.18251471422101,-152.930386252217A197,197,0,0,1,125.78186362583916,-151.6176862467265L108.93028923532655,-131.30476795268365A170.6070045455344,170.6070045455344,0,0,0,107.54521244835024,-132.44159950498639Z" fill-rule="evenodd" style="fill: #414552; stroke: #fff; opacity: 1;" id="p-type-ether"></path><path d="M125.78186362583916,-151.6176862467265A197,197,0,0,1,126.92579207250215,-150.6613530629801L109.92096033024838,-130.47655912107723A170.6070045455344,170.6070045455344,0,0,0,108.93028923532655,-131.30476795268365Z" fill-rule="evenodd" style="fill: #414552; stroke: #fff; opacity: 1;" id="p-type-ether"></path><path d="M126.92579207250215,-150.6613530629801A197,197,0,0,1,128.05921689264994,-149.69915487016362L110.90253501777617,-129.64327104262267A170.6070045455344,170.6070045455344,0,0,0,109.92096033024838,-130.47655912107723Z" fill-rule="evenodd" style="fill: #414552; stroke: #fff; opacity: 1;" id="p-type-ether"></path><path d="M128.05921689264994,-149.69915487016362A197,197,0,0,1,129.17617800569695,-148.73639445623422L111.86985171671421,-128.80949606640178A170.6070045455344,170.6070045455344,0,0,0,110.90253501777617,-129.64327104262267Z" fill-rule="evenodd" style="fill: #414552; stroke: #fff; opacity: 1;" id="p-type-ether"></path><path d="M129.17617800569695,-148.73639445623422A197,197,0,0,1,130.2483539010568,-147.79839750844752L112.79838327942117,-127.99716688094622A170.6070045455344,170.6070045455344,0,0,0,111.86985171671421,-128.80949606640178Z" fill-rule="evenodd" style="fill: #414552; stroke: #fff; opacity: 1;" id="p-type-ether"></path><path d="M130.2483539010568,-147.79839750844752A197,197,0,0,1,131.10811518195996,-147.03626128759504L113.54295838987356,-127.33713755254371A170.6070045455344,170.6070045455344,0,0,0,112.79838327942117,-127.99716688094622Z" fill-rule="evenodd" style="fill: #414552; stroke: #fff; opacity: 1;" id="p-type-ether"></path><path d="M196.68676206818643,-11.104847010770936A197,197,0,0,1,196.7651764999507,-9.615888775523771L170.40364142908615,-8.327603959569226A170.6070045455344,170.6070045455344,0,0,0,170.33573253915495,-9.617079616467315Z" fill-rule="evenodd" style="fill: #1DC690; stroke: #fff; opacity: 1;" id="p-type-logs"></path><path d="M196.7651764999507,-9.615888775523771A197,197,0,0,1,196.83231938112777,-8.126379701054432L170.46178886986877,-7.03765126191133A170.6070045455344,170.6070045455344,0,0,0,170.40364142908615,-8.327603959569226Z" fill-rule="evenodd" style="fill: #1DC690; stroke: #fff; opacity: 1;" id="p-type-logs"></path><path d="M196.83231938112777,-8.126379701054432A197,197,0,0,1,196.88818686548632,-6.636405112811157L170.51017153056878,-5.747295417499395A170.6070045455344,170.6070045455344,0,0,0,170.46178886986877,-7.03765126191133Z" fill-rule="evenodd" style="fill: #1DC690; stroke: #fff; opacity: 1;" id="p-type-logs"></path><path d="M196.88818686548632,-6.636405112811157A197,197,0,0,1,196.93277575269792,-5.146050362908807L170.54878663962052,-4.456610343433157A170.6070045455344,170.6070045455344,0,0,0,170.51017153056878,-5.747295417499395Z" fill-rule="evenodd" style="fill: #1DC690; stroke: #fff; opacity: 1;" id="p-type-logs"></path><path d="M196.93277575269792,-5.146050362908807A197,197,0,0,1,196.96608348852052,-3.6554008252395276L170.57763198498543,-3.165669975672032A170.6070045455344,170.6070045455344,0,0,0,170.54878663962052,-4.456610343433157Z" fill-rule="evenodd" style="fill: #1DC690; stroke: #fff; opacity: 1;" id="p-type-logs"></path><path d="M196.96608348852052,-3.6554008252395276A197,197,0,0,1,196.9881081649446,-2.1645418905821665L170.5967059142788,-1.874548264799753A170.6070045455344,170.6070045455344,0,0,0,170.57763198498543,-3.165669975672032Z" fill-rule="evenodd" style="fill: #1DC690; stroke: #fff; opacity: 1;" id="p-type-logs"></path><path d="M196.9881081649446,-2.1645418905821665A197,197,0,0,1,196.99884852030254,-0.6735589617107285L170.60600733486447,-0.5833191717881608A170.6070045455344,170.6070045455344,0,0,0,170.5967059142788,-1.874548264799753Z" fill-rule="evenodd" style="fill: #1DC690; stroke: #fff; opacity: 1;" id="p-type-logs"></path><path d="M196.99884852030254,-0.6735589617107285A197,197,0,0,1,196.99830393934081,0.8174625514978644L170.6055357139172,0.7079433362395955A170.6070045455344,170.6070045455344,0,0,0,170.60600733486447,-0.5833191717881608Z" fill-rule="evenodd" style="fill: #1DC690; stroke: #fff; opacity: 1;" id="p-type-logs"></path><path d="M196.99830393934081,0.8174625514978644A197,197,0,0,1,196.98647445325537,2.308437236956414L170.59529107845347,1.9991652902462123A170.6070045455344,170.6070045455344,0,0,0,170.6055357139172,0.7079433362395955Z" fill-rule="evenodd" style="fill: #1DC690; stroke: #fff; opacity: 1;" id="p-type-logs"></path><path d="M196.98647445325537,2.308437236956414A197,197,0,0,1,196.9633607396898,3.7992796852602155L170.57527401532988,3.290272723517493A170.6070045455344,170.6070045455344,0,0,0,170.59529107845347,1.9991652902462123Z" fill-rule="evenodd" style="fill: #1DC690; stroke: #fff; opacity: 1;" id="p-type-logs"></path><path d="M196.9633607396898,3.7992796852602155A197,197,0,0,1,196.92896412269636,5.289904494579675L170.54548567120932,4.58119167589948A170.6070045455344,170.6070045455344,0,0,0,170.57527401532988,3.290272723517493Z" fill-rule="evenodd" style="fill: #1DC690; stroke: #fff; opacity: 1;" id="p-type-logs"></path><path d="M196.92896412269636,5.289904494579675A197,197,0,0,1,196.88328657266035,6.780226275552487L170.50592775249552,5.871848198035203A170.6070045455344,170.6070045455344,0,0,0,170.54548567120932,4.58119167589948Z" fill-rule="evenodd" style="fill: #1DC690; stroke: #fff; opacity: 1;" id="p-type-logs"></path><path d="M196.88328657266035,6.780226275552487A197,197,0,0,1,196.8263307061872,8.27015965617511L170.4566025252352,7.162168355600824A170.6070045455344,170.6070045455344,0,0,0,170.50592775249552,5.871848198035203Z" fill-rule="evenodd" style="fill: #1DC690; stroke: #fff; opacity: 1;" id="p-type-logs"></path><path d="M196.8263307061872,8.27015965617511A197,197,0,0,1,196.75809978595242,9.759619286693232L170.3975128149883,8.4520782335409A170.6070045455344,170.6070045455344,0,0,0,170.4566025252352,7.162168355600824Z" fill-rule="evenodd" style="fill: #1DC690; stroke: #fff; opacity: 1;" id="p-type-logs"></path><path d="M196.75809978595242,9.759619286693232A197,197,0,0,1,196.6785977205148,11.248519844490973L170.328662006666,9.741503940302565A170.6070045455344,170.6070045455344,0,0,0,170.3975128149883,8.4520782335409Z" fill-rule="evenodd" style="fill: #1DC690; stroke: #fff; opacity: 1;" id="p-type-logs"></path><path d="M196.6785977205148,11.248519844490973A197,197,0,0,1,196.58782906409263,12.736776038978528L170.25005404433702,11.030371612068341A170.6070045455344,170.6070045455344,0,0,0,170.328662006666,9.741503940302565Z" fill-rule="evenodd" style="fill: #1DC690; stroke: #fff; opacity: 1;" id="p-type-logs"></path><path d="M196.58782906409263,12.736776038978528A197,197,0,0,1,196.4857990163026,14.224302616477976L170.1616934310015,12.318607416987387A170.6070045455344,170.6070045455344,0,0,0,170.25005404433702,11.030371612068341Z" fill-rule="evenodd" style="fill: #1DC690; stroke: #fff; opacity: 1;" id="p-type-logs"></path><path d="M196.4857990163026,14.224302616477976A197,197,0,0,1,196.37251342186207,15.711014365106985L170.0635852283332,13.606137559404893A170.6070045455344,170.6070045455344,0,0,0,170.1616934310015,12.318607416987387Z" fill-rule="evenodd" style="fill: #1DC690; stroke: #fff; opacity: 1;" id="p-type-logs"></path><path d="M196.37251342186207,15.711014365106985A197,197,0,0,1,196.24797877025426,17.196826119660095L169.9557350563894,14.892888284089414A170.6070045455344,170.6070045455344,0,0,0,170.0635852283332,13.606137559404893Z" fill-rule="evenodd" style="fill: #1DC690; stroke: #fff; opacity: 1;" id="p-type-logs"></path><path d="M196.24797877025426,17.196826119660095A197,197,0,0,1,196.1122021953565,18.68165276648736L169.83814909328908,16.17878588045789A170.6070045455344,170.6070045455344,0,0,0,169.9557350563894,14.892888284089414Z" fill-rule="evenodd" style="fill: #1DC690; stroke: #fff; opacity: 1;" id="p-type-logs"></path><path d="M196.1122021953565,18.68165276648736A197,197,0,0,1,195.9651914750315,20.16540924837001L169.71083407485898,17.463756686798092A170.6070045455344,170.6070045455344,0,0,0,169.83814909328908,16.17878588045789Z" fill-rule="evenodd" style="fill: #1DC690; stroke: #fff; opacity: 1;" id="p-type-logs"></path><path d="M195.9651914750315,20.16540924837001A197,197,0,0,1,195.80695503068182,21.64801056939291L169.57379729424764,18.74772709448829A170.6070045455344,170.6070045455344,0,0,0,169.71083407485898,17.463756686798092Z" fill-rule="evenodd" style="fill: #1DC690; stroke: #fff; opacity: 1;" id="p-type-logs"></path><path d="M195.80695503068182,21.64801056939291A197,197,0,0,1,195.63750192676758,23.129371799813462L169.42704660150778,20.030623552213864A170.6070045455344,170.6070045455344,0,0,0,169.57379729424764,18.74772709448829Z" fill-rule="evenodd" style="fill: #1DC690; stroke: #fff; opacity: 1;" id="p-type-logs"></path><path d="M195.63750192676758,23.129371799813462A197,197,0,0,1,195.45684187028712,24.609408080926777L169.27059040314657,21.31237257018064A170.6070045455344,170.6070045455344,0,0,0,169.42704660150778,20.030623552213864Z" fill-rule="evenodd" style="fill: #1DC690; stroke: #fff; opacity: 1;" id="p-type-logs"></path><path d="M195.45684187028712,24.609408080926777A197,197,0,0,1,195.26498521022077,26.088034629926717L169.10443766164389,22.592900724324704A170.6070045455344,170.6070045455344,0,0,0,169.27059040314657,21.31237257018064Z" fill-rule="evenodd" style="fill: #1DC690; stroke: #fff; opacity: 1;" id="p-type-logs"></path><path d="M195.26498521022077,26.088034629926717A197,197,0,0,1,195.06194293693844,27.565166744762628L168.92859789493923,23.872134660518434A170.6070045455344,170.6070045455344,0,0,0,169.10443766164389,22.592900724324704Z" fill-rule="evenodd" style="fill: #1DC690; stroke: #fff; opacity: 1;" id="p-type-logs"></path><path d="M195.06194293693844,27.565166744762628A197,197,0,0,1,194.8477266815696,29.04071980899143L168.74308117588626,25.15000109877255A170.6070045455344,170.6070045455344,0,0,0,168.92859789493923,23.872134660518434Z" fill-rule="evenodd" style="fill: #1DC690; stroke: #fff; opacity: 1;" id="p-type-logs"></path><path d="M194.8477266815696,29.04071980899143A197,197,0,0,1,194.62234871533727,30.51460929662483L168.54789813167577,26.4264268374339A170.6070045455344,170.6070045455344,0,0,0,168.74308117588626,25.15000109877255Z" fill-rule="evenodd" style="fill: #1DC690; stroke: #fff; opacity: 1;" id="p-type-logs"></path><path d="M194.62234871533727,30.51460929662483A197,197,0,0,1,194.38582194885493,31.98675077697129L168.34305994322708,27.701338757378767A170.6070045455344,170.6070045455344,0,0,0,168.54789813167577,26.4264268374339Z" fill-rule="evenodd" style="fill: #1DC690; stroke: #fff; opacity: 1;" id="p-type-logs"></path><path d="M194.38582194885493,31.98675077697129A197,197,0,0,1,194.13815993138704,33.45705991947263L168.12857834454738,28.97466382620144A170.6070045455344,170.6070045455344,0,0,0,168.34305994322708,27.701338757378767Z" fill-rule="evenodd" style="fill: #1DC690; stroke: #fff; opacity: 1;" id="p-type-logs"></path><path d="M194.13815993138704,33.45705991947263A197,197,0,0,1,193.8793768500729,34.92545249853479L167.90446562205975,30.24632910239782A170.6070045455344,170.6070045455344,0,0,0,168.12857834454738,28.97466382620144Z" fill-rule="evenodd" style="fill: #1DC690; stroke: #fff; opacity: 1;" id="p-type-logs"></path><path d="M193.8793768500729,34.92545249853479A197,197,0,0,1,193.60948752911384,36.391844398352674L167.67073461389904,31.516261739543836A170.6070045455344,170.6070045455344,0,0,0,167.90446562205975,30.24632910239782Z" fill-rule="evenodd" style="fill: #1DC690; stroke: #fff; opacity: 1;" id="p-type-logs"></path><path d="M193.60948752911384,36.391844398352674A197,197,0,0,1,193.32850742892404,37.85615161772865L167.4273987091768,32.784388990468386A170.6070045455344,170.6070045455344,0,0,0,167.67073461389904,31.516261739543836Z" fill-rule="evenodd" style="fill: #1DC690; stroke: #fff; opacity: 1;" id="p-type-logs"></path><path d="M193.32850742892404,37.85615161772865A197,197,0,0,1,193.03645264524502,39.31829027488448L167.174471847214,34.0506382114206A170.6070045455344,170.6070045455344,0,0,0,167.4273987091768,32.784388990468386Z" fill-rule="evenodd" style="fill: #1DC690; stroke: #fff; opacity: 1;" id="p-type-logs"></path><path d="M193.03645264524502,39.31829027488448A197,197,0,0,1,192.73333990822348,40.77817661226646L166.9119685167427,35.314936866231214A170.6070045455344,170.6070045455344,0,0,0,167.174471847214,34.0506382114206Z" fill-rule="evenodd" style="fill: #1DC690; stroke: #fff; opacity: 1;" id="p-type-logs"></path><path d="M192.73333990822348,40.77817661226646A197,197,0,0,1,192.41918658145292,42.23572700134338L166.639903755076,36.57721253046772A170.6070045455344,170.6070045455344,0,0,0,166.9119685167427,35.314936866231214Z" fill-rule="evenodd" style="fill: #1DC690; stroke: #fff; opacity: 1;" id="p-type-logs"></path><path d="M192.41918658145292,42.23572700134338A197,197,0,0,1,192.09401066097914,43.690857947397134L166.3582931472467,37.83739289558315A170.6070045455344,170.6070045455344,0,0,0,166.639903755076,36.57721253046772Z" fill-rule="evenodd" style="fill: #1DC690; stroke: #fff; opacity: 1;" id="p-type-logs"></path><path d="M192.09401066097914,43.690857947397134A197,197,0,0,1,191.7578307742691,45.14348609430566L166.06715282511445,39.095405773058246A170.6070045455344,170.6070045455344,0,0,0,166.3582931472467,37.83739289558315Z" fill-rule="evenodd" style="fill: #1DC690; stroke: #fff; opacity: 1;" id="p-type-logs"></path><path d="M191.7578307742691,45.14348609430566A197,197,0,0,1,191.41066617914413,46.59352822931794L165.7664994664417,40.35117909853671A170.6070045455344,170.6070045455344,0,0,0,166.06715282511445,39.095405773058246Z" fill-rule="evenodd" style="fill: #1DC690; stroke: #fff; opacity: 1;" id="p-type-logs"></path><path d="M191.41066617914413,46.59352822931794A197,197,0,0,1,191.0525367626765,48.040901287820766L165.45635029393824,41.604640935953334A170.6070045455344,170.6070045455344,0,0,0,165.7664994664417,40.35117909853671Z" fill-rule="evenodd" style="fill: #1DC690; stroke: #fff; opacity: 1;" id="p-type-logs"></path><path d="M191.0525367626765,48.040901287820766A197,197,0,0,1,190.68346304005044,49.48552235809705L165.13672307427476,42.855719481654866A170.6070045455344,170.6070045455344,0,0,0,165.45635029393824,41.604640935953334Z" fill-rule="evenodd" style="fill: #1DC690; stroke: #fff; opacity: 1;" id="p-type-logs"></path><path d="M190.68346304005044,49.48552235809705A197,197,0,0,1,190.3034661533867,50.92730868607534L164.80763611706496,44.104343068513145A170.6070045455344,170.6070045455344,0,0,0,165.13672307427476,42.855719481654866Z" fill-rule="evenodd" style="fill: #1DC690; stroke: #fff; opacity: 1;" id="p-type-logs"></path><path d="M190.3034661533867,50.92730868607534A197,197,0,0,1,189.9125678705317,52.36617768007037L164.4691082738168,45.3504401700306A170.6070045455344,170.6070045455344,0,0,0,164.80763611706496,44.104343068513145Z" fill-rule="evenodd" style="fill: #1DC690; stroke: #fff; opacity: 1;" id="p-type-logs"></path><path d="M189.9125678705317,52.36617768007037A197,197,0,0,1,189.51079058381032,53.80204691551422L164.1211589368525,46.59393940443751A170.6070045455344,170.6070045455344,0,0,0,164.4691082738168,45.3504401700306Z" fill-rule="evenodd" style="fill: #1DC690; stroke: #fff; opacity: 1;" id="p-type-logs"></path><path d="M189.51079058381032,53.80204691551422A197,197,0,0,1,189.09815730874342,55.23483413967795L163.7638080381978,47.83476953878109A170.6070045455344,170.6070045455344,0,0,0,164.1211589368525,46.59393940443751Z" fill-rule="evenodd" style="fill: #1DC690; stroke: #fff; opacity: 1;" id="p-type-logs"></path><path d="M189.09815730874342,55.23483413967795A197,197,0,0,1,188.6746916827292,56.66445727638344L163.39707604844,49.07285949300604A170.6070045455344,170.6070045455344,0,0,0,163.7638080381978,47.83476953878109Z" fill-rule="evenodd" style="fill: #1DC690; stroke: #fff; opacity: 1;" id="p-type-logs"></path><path d="M188.6746916827292,56.66445727638344A197,197,0,0,1,188.24041796368923,58.090834430705L163.02098397555545,50.30813834402627A170.6070045455344,170.6070045455344,0,0,0,163.39707604844,49.07285949300604Z" fill-rule="evenodd" style="fill: #1DC690; stroke: #fff; opacity: 1;" id="p-type-logs"></path><path d="M188.24041796368923,58.090834430705A197,197,0,0,1,187.79536102867894,59.51388389366071L162.63555336370612,51.540535329787716A170.6070045455344,170.6070045455344,0,0,0,163.02098397555545,50.30813834402627Z" fill-rule="evenodd" style="fill: #1DC690; stroke: #fff; opacity: 1;" id="p-type-logs"></path><path d="M187.79536102867894,59.51388389366071A197,197,0,0,1,187.33954637246242,60.93352414689302L162.24080629200535,52.76997985332187A170.6070045455344,170.6070045455344,0,0,0,162.63555336370612,51.540535329787716Z" fill-rule="evenodd" style="fill: #1DC690; stroke: #fff; opacity: 1;" id="p-type-logs"></path><path d="M187.33954637246242,60.93352414689302A197,197,0,0,1,186.87300010605205,62.34967386733849L161.83676537325317,53.99640148678988A170.6070045455344,170.6070045455344,0,0,0,162.24080629200535,52.76997985332187Z" fill-rule="evenodd" style="fill: #1DC690; stroke: #fff; opacity: 1;" id="p-type-logs"></path><path d="M186.87300010605205,62.34967386733849A197,197,0,0,1,186.39574895521267,63.76225193188634L161.42345375264088,55.21972997551697A170.6070045455344,170.6070045455344,0,0,0,161.83676537325317,53.99640148678988Z" fill-rule="evenodd" style="fill: #1DC690; stroke: #fff; opacity: 1;" id="p-type-logs"></path><path d="M186.39574895521267,63.76225193188634A197,197,0,0,1,185.90782025893068,65.17117742202548L161.00089510642528,56.4398952420169A170.6070045455344,170.6070045455344,0,0,0,161.42345375264088,55.21972997551697Z" fill-rule="evenodd" style="fill: #1DC690; stroke: #fff; opacity: 1;" id="p-type-logs"></path><path d="M185.90782025893068,65.17117742202548A197,197,0,0,1,185.409241967848,66.57636962847994L160.56911364057225,57.65682739000638A170.6070045455344,170.6070045455344,0,0,0,161.00089510642528,56.4398952420169Z" fill-rule="evenodd" style="fill: #1DC690; stroke: #fff; opacity: 1;" id="p-type-logs"></path><path d="M185.409241967848,66.57636962847994A197,197,0,0,1,184.90004264266085,67.97774805583218L160.1281340893703,58.870456708408895A170.6070045455344,170.6070045455344,0,0,0,160.56911364057225,57.65682739000638Z" fill-rule="evenodd" style="fill: #1DC690; stroke: #fff; opacity: 1;" id="p-type-logs"></path><path d="M184.90004264266085,67.97774805583218A197,197,0,0,1,184.38025145248366,69.37523242713421L159.6779817140135,60.080713675348186A170.6070045455344,170.6070045455344,0,0,0,160.1281340893703,58.870456708408895Z" fill-rule="evenodd" style="fill: #1DC690; stroke: #fff; opacity: 1;" id="p-type-logs"></path><path d="M184.38025145248366,69.37523242713421A197,197,0,0,1,183.84989817317822,70.76874268850625L159.2186823011546,61.28752896213067A170.6070045455344,170.6070045455344,0,0,0,159.6779817140135,60.080713675348186Z" fill-rule="evenodd" style="fill: #1DC690; stroke: #fff; opacity: 1;" id="p-type-logs"></path><path d="M183.84989817317822,70.76874268850625A197,197,0,0,1,183.30901318564784,72.15819901372255L158.75026216142766,62.49083343721695A170.6070045455344,170.6070045455344,0,0,0,159.2186823011546,61.28752896213067Z" fill-rule="evenodd" style="fill: #1DC690; stroke: #fff; opacity: 1;" id="p-type-logs"></path><path d="M183.30901318564784,72.15819901372255A197,197,0,0,1,182.75762747409723,73.54352180878409L158.27274812794107,63.69055817018191A170.6070045455344,170.6070045455344,0,0,0,158.75026216142766,62.49083343721695Z" fill-rule="evenodd" style="fill: #1DC690; stroke: #fff; opacity: 1;" id="p-type-logs"></path><path d="M182.75762747409723,73.54352180878409A197,197,0,0,1,182.19577262425744,74.92463171647817L157.7861675547403,64.88663443566337A170.6070045455344,170.6070045455344,0,0,0,158.27274812794107,63.69055817018191Z" fill-rule="evenodd" style="fill: #1DC690; stroke: #fff; opacity: 1;" id="p-type-logs"></path><path d="M182.19577262425744,74.92463171647817A197,197,0,0,1,181.62348082157646,76.3014496209243L157.290548315241,66.07899371729897A170.6070045455344,170.6070045455344,0,0,0,157.7861675547403,64.88663443566337Z" fill-rule="evenodd" style="fill: #1DC690; stroke: #fff; opacity: 1;" id="p-type-logs"></path><path d="M181.62348082157646,76.3014496209243A197,197,0,0,1,181.04078484937563,77.67389665210627L156.7859188006322,67.26756771165108A170.6070045455344,170.6070045455344,0,0,0,157.290548315241,66.07899371729897Z" fill-rule="evenodd" style="fill: #1DC690; stroke: #fff; opacity: 1;" id="p-type-logs"></path><path d="M181.04078484937563,77.67389665210627A197,197,0,0,1,180.44771808697158,79.04189419039017L156.2723079182501,68.45228833211952A170.6070045455344,170.6070045455344,0,0,0,156.7859188006322,67.26756771165108Z" fill-rule="evenodd" style="fill: #1DC690; stroke: #fff; opacity: 1;" id="p-type-logs"></path><path d="M180.44771808697158,79.04189419039017A197,197,0,0,1,179.84431450776412,80.4053638710281L155.749745089922,69.63308771284183A170.6070045455344,170.6070045455344,0,0,0,156.2723079182501,68.45228833211952Z" fill-rule="evenodd" style="fill: #1DC690; stroke: #fff; opacity: 1;" id="p-type-logs"></path><path d="M179.84431450776412,80.4053638710281A197,197,0,0,1,179.23060867729015,81.76422758864717L155.2182602502809,70.8098982125809A170.6070045455344,170.6070045455344,0,0,0,155.749745089922,69.63308771284183Z" fill-rule="evenodd" style="fill: #1DC690; stroke: #fff; opacity: 1;" id="p-type-logs"></path><path d="M179.23060867729015,81.76422758864717A197,197,0,0,1,178.60663575124357,83.11840750172377L154.67788384505084,71.98265241859983A170.6070045455344,170.6070045455344,0,0,0,155.2182602502809,70.8098982125809Z" fill-rule="evenodd" style="fill: #1DC690; stroke: #fff; opacity: 1;" id="p-type-logs"></path><path d="M178.60663575124357,83.11840750172377A197,197,0,0,1,177.97243147346137,84.46782603704264L154.1286468293027,73.15128315052358A170.6070045455344,170.6070045455344,0,0,0,154.67788384505084,71.98265241859983Z" fill-rule="evenodd" style="fill: #1DC690; stroke: #fff; opacity: 1;" id="p-type-logs"></path><path d="M177.97243147346137,84.46782603704264A197,197,0,0,1,177.32803217387618,85.81240589414058L153.57058066568104,74.31572346418724A170.6070045455344,170.6070045455344,0,0,0,154.1286468293027,73.15128315052358Z" fill-rule="evenodd" style="fill: #1DC690; stroke: #fff; opacity: 1;" id="p-type-logs"></path><path d="M177.32803217387618,85.81240589414058A197,197,0,0,1,176.67347476643505,87.15207004973456L153.00371732260174,75.47590665547106A170.6070045455344,170.6070045455344,0,0,0,153.57058066568104,74.31572346418724Z" fill-rule="evenodd" style="fill: #1DC690; stroke: #fff; opacity: 1;" id="p-type-logs"></path><path d="M176.67347476643505,87.15207004973456A197,197,0,0,1,176.0087967469848,88.48674176213397L152.42808927242072,76.63176626412142A170.6070045455344,170.6070045455344,0,0,0,153.00371732260174,75.47590665547106Z" fill-rule="evenodd" style="fill: #1DC690; stroke: #fff; opacity: 1;" id="p-type-logs"></path><path d="M176.0087967469848,88.48674176213397A197,197,0,0,1,175.33403619112434,89.81634457563665L151.84372948957383,77.783236077558A170.6070045455344,170.6070045455344,0,0,0,152.42808927242072,76.63176626412142Z" fill-rule="evenodd" style="fill: #1DC690; stroke: #fff; opacity: 1;" id="p-type-logs"></path><path d="M175.33403619112434,89.81634457563665A197,197,0,0,1,174.64923175202324,91.1408023249087L151.2506714486879,78.93025013466676A170.6070045455344,170.6070045455344,0,0,0,151.84372948957383,77.783236077558Z" fill-rule="evenodd" style="fill: #1DC690; stroke: #fff; opacity: 1;" id="p-type-logs"></path><path d="M174.64923175202324,91.1408023249087A197,197,0,0,1,173.95442265820762,92.46003913934747L150.64894912266314,80.0727427295784A170.6070045455344,170.6070045455344,0,0,0,151.2506714486879,78.93025013466676Z" fill-rule="evenodd" style="fill: #1DC690; stroke: #fff; opacity: 1;" id="p-type-logs"></path><path d="M173.95442265820762,92.46003913934747A197,197,0,0,1,173.2496487113131,93.77397944742775L150.0385969807271,81.21064841543226A170.6070045455344,170.6070045455344,0,0,0,150.64894912266314,80.0727427295784Z" fill-rule="evenodd" style="fill: #1DC690; stroke: #fff; opacity: 1;" id="p-type-logs"></path><path d="M173.2496487113131,93.77397944742775A197,197,0,0,1,172.53495028380468,95.08254798103093L149.41964998645997,82.34390200812557A170.6070045455344,170.6070045455344,0,0,0,150.0385969807271,81.21064841543226Z" fill-rule="evenodd" style="fill: #1DC690; stroke: #fff; opacity: 1;" id="p-type-logs"></path><path d="M172.53495028380468,95.08254798103093A197,197,0,0,1,171.81036831666395,96.38566977975654L148.79214359579203,83.47243859004722A170.6070045455344,170.6070045455344,0,0,0,149.41964998645997,82.34390200812557Z" fill-rule="evenodd" style="fill: #1DC690; stroke: #fff; opacity: 1;" id="p-type-logs"></path><path d="M171.81036831666395,96.38566977975654A197,197,0,0,1,171.075944317044,97.68327019521642L148.15611375497218,84.59619351379672A170.6070045455344,170.6070045455344,0,0,0,148.79214359579203,83.47243859004722Z" fill-rule="evenodd" style="fill: #1DC690; stroke: #fff; opacity: 1;" id="p-type-logs"></path><path d="M171.075944317044,97.68327019521642A197,197,0,0,1,170.3317203558916,98.97527489531082L147.5115968985091,85.71510240588736A170.6070045455344,170.6070045455344,0,0,0,148.15611375497218,84.59619351379672Z" fill-rule="evenodd" style="fill: #1DC690; stroke: #fff; opacity: 1;" id="p-type-logs"></path><path d="M170.3317203558916,98.97527489531082A197,197,0,0,1,169.57773906553717,100.26160986848649L146.85862994708398,86.82910117043387A170.6070045455344,170.6070045455344,0,0,0,147.5115968985091,85.71510240588736Z" fill-rule="evenodd" style="fill: #1DC690; stroke: #fff; opacity: 1;" id="p-type-logs"></path><path d="M169.57773906553717,100.26160986848649A197,197,0,0,1,168.81404363725272,101.54220142797641L146.19725030543563,87.93812599282407A170.6070045455344,170.6070045455344,0,0,0,146.85862994708398,86.82910117043387Z" fill-rule="evenodd" style="fill: #1DC690; stroke: #fff; opacity: 1;" id="p-type-logs"></path><path d="M82.36492714851575,178.9553541412486A197,197,0,0,1,81.00812951249816,179.57361430033734L70.15509807088333,155.5153118334807A170.6070045455344,170.6070045455344,0,0,0,71.33011929146922,154.97988282956203Z" fill-rule="evenodd" style="fill: #D7A449; stroke: #fff; opacity: 1;" id="p-type-tokenTransfers"></path><path d="M81.00812951249816,179.57361430033734A197,197,0,0,1,79.64669138446862,180.1815877150249L68.976058066329,156.04183225542567A170.6070045455344,170.6070045455344,0,0,0,70.15509807088333,155.5153118334807Z" fill-rule="evenodd" style="fill: #D7A449; stroke: #fff; opacity: 1;" id="p-type-tokenTransfers"></path><path d="M79.64669138446862,180.1815877150249A197,197,0,0,1,78.280690753424,180.7792395579946L67.7930668182588,156.55941393405604A170.6070045455344,170.6070045455344,0,0,0,68.976058066329,156.04183225542567Z" fill-rule="evenodd" style="fill: #D7A449; stroke: #fff; opacity: 1;" id="p-type-tokenTransfers"></path><path d="M78.280690753424,180.7792395579946A197,197,0,0,1,76.91020586972081,181.36653559319362L66.60619209346928,157.06802722008024A170.6070045455344,170.6070045455344,0,0,0,67.7930668182588,156.55941393405604Z" fill-rule="evenodd" style="fill: #D7A449; stroke: #fff; opacity: 1;" id="p-type-tokenTransfers"></path><path d="M76.91020586972081,181.36653559319362A197,197,0,0,1,75.53531524059278,181.94344217779403L65.41550188121921,157.56764297795473A170.6070045455344,170.6070045455344,0,0,0,66.60619209346928,157.06802722008024Z" fill-rule="evenodd" style="fill: #D7A449; stroke: #fff; opacity: 1;" id="p-type-tokenTransfers"></path><path d="M75.53531524059278,181.94344217779403A197,197,0,0,1,74.15609762565352,182.50992626412005L64.22106438933484,158.05823258755268A170.6070045455344,170.6070045455344,0,0,0,65.41550188121921,157.56764297795473Z" fill-rule="evenodd" style="fill: #D7A449; stroke: #fff; opacity: 1;" id="p-type-tokenTransfers"></path><path d="M74.15609762565352,182.50992626412005A197,197,0,0,1,72.77263203238493,183.0659554015413L63.02294804030253,158.53976794580382A170.6070045455344,170.6070045455344,0,0,0,64.22106438933484,158.05823258755268Z" fill-rule="evenodd" style="fill: #D7A449; stroke: #fff; opacity: 1;" id="p-type-tokenTransfers"></path><path d="M72.77263203238493,183.0659554015413A197,197,0,0,1,71.38499771161125,183.61149773833134L61.82122146734935,159.01222146830395A170.6070045455344,170.6070045455344,0,0,0,63.02294804030253,158.53976794580382Z" fill-rule="evenodd" style="fill: #D7A449; stroke: #fff; opacity: 1;" id="p-type-tokenTransfers"></path><path d="M71.38499771161125,183.61149773833134A197,197,0,0,1,69.99327415295924,184.1465220234927L60.615953510511446,159.47556609089528A170.6070045455344,170.6070045455344,0,0,0,61.82122146734935,159.01222146830395Z" fill-rule="evenodd" style="fill: #D7A449; stroke: #fff; opacity: 1;" id="p-type-tokenTransfers"></path><path d="M69.99327415295924,184.1465220234927A197,197,0,0,1,68.59754108030477,184.6709976085468L59.40721321269055,159.92977527121684A170.6070045455344,170.6070045455344,0,0,0,60.615953510511446,159.47556609089528Z" fill-rule="evenodd" style="fill: #D7A449; stroke: #fff; opacity: 1;" id="p-type-tokenTransfers"></path><path d="M68.59754108030477,184.6709976085468A197,197,0,0,1,67.19787844720568,185.18489444928971L58.19506981569892,160.37482299022477A170.6070045455344,170.6070045455344,0,0,0,59.40721321269055,159.92977527121684Z" fill-rule="evenodd" style="fill: #D7A449; stroke: #fff; opacity: 1;" id="p-type-tokenTransfers"></path><path d="M67.19787844720568,185.18489444928971A197,197,0,0,1,65.79436643232194,185.6881831075132L56.97959275629292,160.8106837536829A170.6070045455344,170.6070045455344,0,0,0,58.19506981569892,160.37482299022477Z" fill-rule="evenodd" style="fill: #D7A449; stroke: #fff; opacity: 1;" id="p-type-tokenTransfers"></path><path d="M65.79436643232194,185.6881831075132A197,197,0,0,1,64.38708543482254,186.18083475269108L55.760851662195336,161.23733259362314A170.6070045455344,170.6070045455344,0,0,0,56.97959275629292,160.8106837536829Z" fill-rule="evenodd" style="fill: #D7A449; stroke: #fff; opacity: 1;" id="p-type-tokenTransfers"></path><path d="M64.38708543482254,186.18083475269108A197,197,0,0,1,62.97611606977989,186.66282116363078L54.5389163481068,161.6547450697758A170.6070045455344,170.6070045455344,0,0,0,55.760851662195336,161.23733259362314Z" fill-rule="evenodd" style="fill: #D7A449; stroke: #fff; opacity: 1;" id="p-type-tokenTransfers"></path><path d="M62.97611606977989,186.66282116363078A197,197,0,0,1,61.56153916355188,187.13411473008995L53.31385681170655,162.06289727096961A170.6070045455344,170.6070045455344,0,0,0,54.5389163481068,161.6547450697758Z" fill-rule="evenodd" style="fill: #D7A449; stroke: #fff; opacity: 1;" id="p-type-tokenTransfers"></path><path d="M61.56153916355188,187.13411473008995A197,197,0,0,1,60.14343574915178,187.59468845435805L52.08574322964261,162.46176581650138A170.6070045455344,170.6070045455344,0,0,0,53.31385681170655,162.06289727096961Z" fill-rule="evenodd" style="fill: #D7A449; stroke: #fff; opacity: 1;" id="p-type-tokenTransfers"></path><path d="M60.14343574915178,187.59468845435805A197,197,0,0,1,58.721887061606324,188.04451595280293L50.85464595351181,162.85132785747544A170.6070045455344,170.6070045455344,0,0,0,52.08574322964261,162.46176581650138Z" fill-rule="evenodd" style="fill: #D7A449; stroke: #fff; opacity: 1;" id="p-type-tokenTransfers"></path><path d="M58.721887061606324,188.04451595280293A197,197,0,0,1,57.29697453330222,188.48357145738223L49.62063550582975,163.23156107811255A170.6070045455344,170.6070045455344,0,0,0,50.85464595351181,162.85132785747544Z" fill-rule="evenodd" style="fill: #D7A449; stroke: #fff; opacity: 1;" id="p-type-tokenTransfers"></path><path d="M57.29697453330222,188.48357145738223A197,197,0,0,1,55.868779789321366,188.9118298171195L48.383782575990914,163.60244369702806A170.6070045455344,170.6070045455344,0,0,0,49.62063550582975,163.23156107811255Z" fill-rule="evenodd" style="fill: #D7A449; stroke: #fff; opacity: 1;" id="p-type-tokenTransfers"></path><path d="M55.868779789321366,188.9118298171195A197,197,0,0,1,54.43738464276498,189.3292664995448L47.14415801621934,163.96395446847987A170.6070045455344,170.6070045455344,0,0,0,48.383782575990914,163.60244369702806Z" fill-rule="evenodd" style="fill: #D7A449; stroke: #fff; opacity: 1;" id="p-type-tokenTransfers"></path><path d="M54.43738464276498,189.3292664995448A197,197,0,0,1,53.00287109006707,189.73585759210022L45.90183283750988,164.31607268358533A170.6070045455344,170.6070045455344,0,0,0,47.14415801621934,163.96395446847987Z" fill-rule="evenodd" style="fill: #D7A449; stroke: #fff; opacity: 1;" id="p-type-tokenTransfers"></path><path d="M53.00287109006707,189.73585759210022A197,197,0,0,1,51.565321306297236,190.13157980350957L44.65687820556038,164.65877817150758A170.6070045455344,170.6070045455344,0,0,0,45.90183283750988,164.31607268358533Z" fill-rule="evenodd" style="fill: #D7A449; stroke: #fff; opacity: 1;" id="p-type-tokenTransfers"></path><path d="M51.565321306297236,190.13157980350957A197,197,0,0,1,50.1248176404534,190.51641046511267L43.40936543669501,164.99205130061105A170.6070045455344,170.6070045455344,0,0,0,44.65687820556038,164.65877817150758Z" fill-rule="evenodd" style="fill: #D7A449; stroke: #fff; opacity: 1;" id="p-type-tokenTransfers"></path><path d="M50.1248176404534,190.51641046511267A197,197,0,0,1,48.68144261074448,190.89032753216384L42.15936599377897,165.31587297958595A170.6070045455344,170.6070045455344,0,0,0,43.40936543669501,164.99205130061105Z" fill-rule="evenodd" style="fill: #D7A449; stroke: #fff; opacity: 1;" id="p-type-tokenTransfers"></path><path d="M48.68144261074448,190.89032753216384A197,197,0,0,1,47.235278899863374,191.25330958509483L40.906951482124754,165.63022465854198A170.6070045455344,170.6070045455344,0,0,0,42.15936599377897,165.31587297958595Z" fill-rule="evenodd" style="fill: #D7A449; stroke: #fff; opacity: 1;" id="p-type-tokenTransfers"></path><path d="M47.235278899863374,191.25330958509483A197,197,0,0,1,45.78640935025057,191.60533583074164L39.65219364539035,165.935088330071A170.6070045455344,170.6070045455344,0,0,0,40.906951482124754,165.63022465854198Z" fill-rule="evenodd" style="fill: #D7A449; stroke: #fff; opacity: 1;" id="p-type-tokenTransfers"></path><path d="M45.78640935025057,191.60533583074164A197,197,0,0,1,44.33491695934858,191.94638610353587L38.39516436146941,166.2304465302784A170.6070045455344,170.6070045455344,0,0,0,39.65219364539035,165.935088330071Z" fill-rule="evenodd" style="fill: #D7A449; stroke: #fff; opacity: 1;" id="p-type-tokenTransfers"></path><path d="M44.33491695934858,191.94638610353587A197,197,0,0,1,42.88088487484746,192.27644086665967L37.1359356383738,166.5162823397837A170.6070045455344,170.6070045455344,0,0,0,38.39516436146941,166.2304465302784Z" fill-rule="evenodd" style="fill: #D7A449; stroke: #fff; opacity: 1;" id="p-type-tokenTransfers"></path><path d="M42.88088487484746,192.27644086665967A197,197,0,0,1,41.42439638992178,192.5954812131651L35.874579610108654,166.7925793846896A170.6070045455344,170.6070045455344,0,0,0,37.1359356383738,166.5162823397837Z" fill-rule="evenodd" style="fill: #D7A449; stroke: #fff; opacity: 1;" id="p-type-tokenTransfers"></path><path d="M41.42439638992178,192.5954812131651A197,197,0,0,1,39.965534938459236,192.90348886705704L34.61116853254025,167.05932183752003A170.6070045455344,170.6070045455344,0,0,0,35.874579610108654,166.7925793846896Z" fill-rule="evenodd" style="fill: #D7A449; stroke: #fff; opacity: 1;" id="p-type-tokenTransfers"></path><path d="M39.965534938459236,192.90348886705704A197,197,0,0,1,38.50438409028119,193.2004461843401L33.345774779256885,167.31649441812684A170.6070045455344,170.6070045455344,0,0,0,34.61116853254025,167.05932183752003Z" fill-rule="evenodd" style="fill: #D7A449; stroke: #fff; opacity: 1;" id="p-type-tokenTransfers"></path><path d="M38.50438409028119,193.2004461843401A197,197,0,0,1,37.04102754635543,193.4863361540296L32.07847083742298,167.5640823945651A170.6070045455344,170.6070045455344,0,0,0,33.345774779256885,167.31649441812684Z" fill-rule="evenodd" style="fill: #D7A449; stroke: #fff; opacity: 1;" id="p-type-tokenTransfers"></path><path d="M37.04102754635543,193.4863361540296A197,197,0,0,1,35.575549134001434,193.76114239912565L30.80932930362673,167.8020715839369A170.6070045455344,170.6070045455344,0,0,0,32.07847083742298,167.5640823945651Z" fill-rule="evenodd" style="fill: #D7A449; stroke: #fff; opacity: 1;" id="p-type-tokenTransfers"></path><path d="M35.575549134001434,193.76114239912565A197,197,0,0,1,34.10803280208837,194.02484917755166L29.538422879721455,168.03044835320398A170.6070045455344,170.6070045455344,0,0,0,30.80932930362673,167.8020715839369Z" fill-rule="evenodd" style="fill: #D7A449; stroke: #fff; opacity: 1;" id="p-type-tokenTransfers"></path><path d="M34.10803280208837,194.02484917755166A197,197,0,0,1,32.638562616226146,194.27744138305582L28.265824368660933,168.24919961996852A170.6070045455344,170.6070045455344,0,0,0,29.538422879721455,168.03044835320398Z" fill-rule="evenodd" style="fill: #D7A449; stroke: #fff; opacity: 1;" id="p-type-tokenTransfers"></path><path d="M32.638562616226146,194.27744138305582A197,197,0,0,1,31.1672227539498,194.51890454607664L26.99160667032892,168.4583128532227A170.6070045455344,170.6070045455344,0,0,0,28.265824368660933,168.24919961996852Z" fill-rule="evenodd" style="fill: #D7A449; stroke: #fff; opacity: 1;" id="p-type-tokenTransfers"></path><path d="M31.1672227539498,194.51890454607664A197,197,0,0,1,29.694097499897417,194.74922483457175L25.71584277736315,168.65777607406642A170.6070045455344,170.6070045455344,0,0,0,26.99160667032892,168.4583128532227Z" fill-rule="evenodd" style="fill: #D7A449; stroke: #fff; opacity: 1;" id="p-type-tokenTransfers"></path><path d="M29.694097499897417,194.74922483457175A197,197,0,0,1,28.219271240981943,194.96838905481033L24.438605770973982,168.84757785639366A170.6070045455344,170.6070045455344,0,0,0,25.71584277736315,168.65777607406642Z" fill-rule="evenodd" style="fill: #D7A449; stroke: #fff; opacity: 1;" id="p-type-tokenTransfers"></path><path d="M28.219271240981943,194.96838905481033A197,197,0,0,1,26.742828461557167,195.17638465212877L23.159968816758024,169.02770732754675A170.6070045455344,170.6070045455344,0,0,0,24.438605770973982,168.84757785639366Z" fill-rule="evenodd" style="fill: #D7A449; stroke: #fff; opacity: 1;" id="p-type-tokenTransfers"></path><path d="M26.742828461557167,195.17638465212877A197,197,0,0,1,25.264853738578093,195.37319971164996L21.88000516050688,169.19815416893942A170.6070045455344,170.6070045455344,0,0,0,23.159968816758024,169.02770732754675Z" fill-rule="evenodd" style="fill: #D7A449; stroke: #fff; opacity: 1;" id="p-type-tokenTransfers"></path><path d="M25.264853738578093,195.37319971164996A197,197,0,0,1,23.78543173675599,195.55882295896578L20.598788124011307,169.35890861664788A170.6070045455344,170.6070045455344,0,0,0,21.88000516050688,169.19815416893942Z" fill-rule="evenodd" style="fill: #D7A449; stroke: #fff; opacity: 1;" id="p-type-tokenTransfers"></path><path d="M23.78543173675599,195.55882295896578A197,197,0,0,1,22.30464720370845,195.733243760783L19.316391100861058,169.50996146197005A170.6070045455344,170.6070045455344,0,0,0,20.598788124011307,169.35890861664788Z" fill-rule="evenodd" style="fill: #D7A449; stroke: #fff; opacity: 1;" id="p-type-tokenTransfers"></path><path d="M22.30464720370845,195.733243760783A197,197,0,0,1,20.82258496510467,195.89645212553236L18.032887552240553,169.65130405195313A170.6070045455344,170.6070045455344,0,0,0,19.316391100861058,169.50996146197005Z" fill-rule="evenodd" style="fill: #D7A449; stroke: #fff; opacity: 1;" id="p-type-tokenTransfers"></path><path d="M20.82258496510467,195.89645212553236A197,197,0,0,1,19.339329919806307,196.04843870394092L16.74835100272073,169.7829282898892A170.6070045455344,170.6070045455344,0,0,0,18.032887552240553,169.65130405195313Z" fill-rule="evenodd" style="fill: #D7A449; stroke: #fff; opacity: 1;" id="p-type-tokenTransfers"></path><path d="M19.339329919806307,196.04843870394092A197,197,0,0,1,17.85496703500406,196.18919478956767L15.462855036047232,169.90482663577922A170.6070045455344,170.6070045455344,0,0,0,16.74835100272073,169.7829282898892Z" fill-rule="evenodd" style="fill: #D7A449; stroke: #fff; opacity: 1;" id="p-type-tokenTransfers"></path><path d="M17.85496703500406,196.18919478956767A197,197,0,0,1,16.36958134135043,196.31871231930214L14.17647329092522,170.0169921067647A170.6070045455344,170.6070045455344,0,0,0,15.462855036047232,169.90482663577922Z" fill-rule="evenodd" style="fill: #D7A449; stroke: #fff; opacity: 1;" id="p-type-tokenTransfers"></path><path d="M16.36958134135043,196.31871231930214A197,197,0,0,1,14.883257928088774,196.43698387382653L12.889279456801027,170.11941827752787A170.6070045455344,170.6070045455344,0,0,0,14.17647329092522,170.0169921067647Z" fill-rule="evenodd" style="fill: #D7A449; stroke: #fff; opacity: 1;" id="p-type-tokenTransfers"></path><path d="M14.883257928088774,196.43698387382653A197,197,0,0,1,13.396081938179039,196.5440026780405L11.601347269640927,170.21209928065983A170.6070045455344,170.6070045455344,0,0,0,12.889279456801027,170.11941827752787Z" fill-rule="evenodd" style="fill: #D7A449; stroke: #fff; opacity: 1;" id="p-type-tokenTransfers"></path><path d="M13.396081938179039,196.5440026780405A197,197,0,0,1,11.908138563420403,196.6397626014494L10.312750507707198,170.29502980699635A170.6070045455344,170.6070045455344,0,0,0,11.601347269640927,170.21209928065983Z" fill-rule="evenodd" style="fill: #D7A449; stroke: #fff; opacity: 1;" id="p-type-tokenTransfers"></path><path d="M11.908138563420403,196.6397626014494A197,197,0,0,1,10.419513039571134,196.7242581585154L9.023562987331815,170.36820510592244A170.6070045455344,170.6070045455344,0,0,0,10.312750507707198,170.29502980699635Z" fill-rule="evenodd" style="fill: #D7A449; stroke: #fff; opacity: 1;" id="p-type-tokenTransfers"></path><path d="M10.419513039571134,196.7242581585154A197,197,0,0,1,8.930290641465918,196.79748450897168L7.733858558687915,170.431620985644A170.6070045455344,170.6070045455344,0,0,0,9.023562987331815,170.36820510592244Z" fill-rule="evenodd" style="fill: #D7A449; stroke: #fff; opacity: 1;" id="p-type-tokenTransfers"></path><path d="M8.930290641465918,196.79748450897168A197,197,0,0,1,7.440556678130948,196.85943745809985L6.443711101559355,170.48527381342836A170.6070045455344,170.6070045455344,0,0,0,7.733858558687915,170.431620985644Z" fill-rule="evenodd" style="fill: #D7A449; stroke: #fff; opacity: 1;" id="p-type-tokenTransfers"></path><path d="M7.440556678130948,196.85943745809985A197,197,0,0,1,5.950396487897059,196.91011345697007L5.1531945211085555,170.52916051581212A170.6070045455344,170.6070045455344,0,0,0,6.443711101559355,170.48527381342836Z" fill-rule="evenodd" style="fill: #D7A449; stroke: #fff; opacity: 1;" id="p-type-tokenTransfers"></path><path d="M5.950396487897059,196.91011345697007A197,197,0,0,1,4.4598954335111864,196.94950960264447L3.862382743642899,170.56327857877733A170.6070045455344,170.6070045455344,0,0,0,5.1531945211085555,170.52916051581212Z" fill-rule="evenodd" style="fill: #D7A449; stroke: #fff; opacity: 1;" id="p-type-tokenTransfers"></path><path d="M4.4598954335111864,196.94950960264447A197,197,0,0,1,2.9691388972464225,196.97762363834337L2.5713497123799156,170.5876260478955A170.6070045455344,170.6070045455344,0,0,0,3.862382743642899,170.56327857877733Z" fill-rule="evenodd" style="fill: #D7A449; stroke: #fff; opacity: 1;" id="p-type-tokenTransfers"></path><path d="M2.9691388972464225,196.97762363834337A197,197,0,0,1,1.478212276010953,196.9944539535747L1.2801693832114998,170.6022015284395A170.6070045455344,170.6070045455344,0,0,0,2.5713497123799156,170.5876260478955Z" fill-rule="evenodd" style="fill: #D7A449; stroke: #fff; opacity: 1;" id="p-type-tokenTransfers"></path><path d="M1.478212276010953,196.9944539535747A197,197,0,0,1,-0.012799023543841371,196.9999995842259L-0.01108427953260176,170.60700418546347A170.6070045455344,170.6070045455344,0,0,0,1.2801693832114998,170.6022015284395Z" fill-rule="evenodd" style="fill: #D7A449; stroke: #fff; opacity: 1;" id="p-type-tokenTransfers"></path><path d="M-0.012799023543841371,196.9999995842259A197,197,0,0,1,-1.5038095899158443,196.9942602126196L-1.3023373073217803,170.60203374385065A170.6070045455344,170.6070045455344,0,0,0,-0.01108427953260176,170.60700418546347Z" fill-rule="evenodd" style="fill: #D7A449; stroke: #fff; opacity: 1;" id="p-type-tokenTransfers"></path><path d="M-1.5038095899158443,196.9942602126196A197,197,0,0,1,-2.9947340116449395,196.97723616753154L-2.5935157316618005,170.58729048832924A170.6070045455344,170.6070045455344,0,0,0,-1.3023373073217803,170.60203374385065Z" fill-rule="evenodd" style="fill: #D7A449; stroke: #fff; opacity: 1;" id="p-type-tokenTransfers"></path><path d="M-2.9947340116449395,196.97723616753154A197,197,0,0,1,-4.485486882205744,196.94892842417184L-3.8845455883320317,170.5627752634559A170.6070045455344,170.6070045455344,0,0,0,-2.5935157316618005,170.58729048832924Z" fill-rule="evenodd" style="fill: #D7A449; stroke: #fff; opacity: 1;" id="p-type-tokenTransfers"></path><path d="M-4.485486882205744,196.94892842417184A197,197,0,0,1,-5.975982804900058,196.90933860412903L-5.1753529216224345,170.5284894735676A170.6070045455344,170.6070045455344,0,0,0,-3.8845455883320317,170.5627752634559Z" fill-rule="evenodd" style="fill: #D7A449; stroke: #fff; opacity: 1;" id="p-type-tokenTransfers"></path><path d="M-5.975982804900058,196.90933860412903A197,197,0,0,1,-7.46188517019819,196.85863016313706L-6.462182117514002,170.48457467548224A170.6070045455344,170.6070045455344,0,0,0,-5.1753529216224345,170.5284894735676Z" fill-rule="evenodd" style="fill: #D7A449; stroke: #fff; opacity: 1;" id="p-type-tokenTransfers"></path></g></svg>