<svg xmlns="http://www.w3.org/2000/svg" width="400" height="400" id="block-7908800"><g id="burst-container" transform="translate(200,200)"><circle r="197" style="fill: #f9f9f9; stroke: #f9f9f9; stroke-width: 3; opacity: 1;" id="circle-base"></circle><path display="none" d="M6.031385485800715e-15,-98.5A98.5,98.5,0,1,1,-6.031385485800715e-15,98.5A98.5,98.5,0,1,1,6.031385485800715e-15,-98.5Z" fill-rule="evenodd" id="p-type-root" style="stroke: #fff; opacity: 1;"></path><path d="M8.529667153919608e-15,-139.30003589374985A139.30003589374985,139.30003589374985,0,1,1,-112.1843503615282,-82.57827519367237L-79.32631488364412,-58.39165836813459A98.5,98.5,0,1,0,6.031385485800715e-15,-98.5Z" fill-rule="evenodd" style="fill: #0B1F65; stroke: #fff; opacity: 1;" id="p-type-data"></path><path d="M-112.1843503615282,-82.57827519367237A139.30003589374985,139.30003589374985,0,0,1,-6.86144682724533,-139.13094748271098L-4.851775580296095,-98.38043643793435A98.5,98.5,0,0,0,-79.32631488364412,-58.39165836813459Z" fill-rule="evenodd" style="fill: #D7A449; stroke: #fff; opacity: 1;" id="p-type-value"></path><path d="M1.0446666101440332e-14,-170.6070045455344A170.6070045455344,170.6070045455344,0,0,1,169.7337409878846,-17.23969751062064L138.58701918468,-14.076154073649983A139.30003589374985,139.30003589374985,0,0,0,8.529667153919608e-15,-139.30003589374985Z" fill-rule="evenodd" style="fill: #DB3F29; stroke: #fff; opacity: 1;" id="p-type-functions"></path><path d="M169.7337409878846,-17.23969751062064A170.6070045455344,170.6070045455344,0,0,1,57.14471998882186,160.75207923196248L46.65846848894533,131.25352306992028A139.30003589374985,139.30003589374985,0,0,0,138.58701918468,-14.076154073649983Z" fill-rule="evenodd" style="fill: #1DC690; stroke: #fff; opacity: 1;" id="p-type-logs"></path><path d="M57.14471998882186,160.75207923196248A170.6070045455344,170.6070045455344,0,0,1,-118.42156270183935,122.81320567127271L-96.69080105417015,100.27656252336777A139.30003589374985,139.30003589374985,0,0,0,46.65846848894533,131.25352306992028Z" fill-rule="evenodd" style="fill: #D7A449; stroke: #fff; opacity: 1;" id="p-type-tokenTransfers"></path><path d="M-118.42156270183935,122.81320567127271A170.6070045455344,170.6070045455344,0,0,1,-161.6021266674449,54.694630966476836L-131.94758389461808,44.657979179232065A139.30003589374985,139.30003589374985,0,0,0,-96.69080105417015,100.27656252336777Z" fill-rule="evenodd" style="fill: #414552; stroke: #fff; opacity: 1;" id="p-type-ether"></path><path d="M-137.39720775567883,-101.13731903181352A170.6070045455344,170.6070045455344,0,0,1,-61.62637313022155,-159.08783779665467L-50.31772295580218,-129.8946756281532A139.30003589374985,139.30003589374985,0,0,0,-112.1843503615282,-82.57827519367237Z" fill-rule="evenodd" style="fill: #D7A449; stroke: #fff; opacity: 1;" id="p-type-tokenTransfers"></path><path d="M-61.62637313022155,-159.08783779665467A170.6070045455344,170.6070045455344,0,0,1,-16.78664250720302,-169.77914663861213L-13.706236212387294,-138.62409274325384A139.30003589374985,139.30003589374985,0,0,0,-50.31772295580218,-129.8946756281532Z" fill-rule="evenodd" style="fill: #414552; stroke: #fff; opacity: 1;" id="p-type-ether"></path><path d="M1.206277097160143e-14,-197A197,197,0,0,1,4.8532485746077025,-196.94020914549947L4.203036556490887,-170.55522414662295A170.6070045455344,170.6070045455344,0,0,0,1.0446666101440332e-14,-170.6070045455344Z" fill-rule="evenodd" style="fill: #DB3F29; stroke: #fff; opacity: 1;" id="p-type-functions"></path><path d="M4.8532485746077025,-196.94020914549947A197,197,0,0,1,9.703551160592209,-196.7608728758687L8.403521811994825,-170.3999143813028A170.6070045455344,170.6070045455344,0,0,0,4.203036556490887,-170.55522414662295Z" fill-rule="evenodd" style="fill: #DB3F29; stroke: #fff; opacity: 1;" id="p-type-functions"></path><path d="M9.703551160592209,-196.7608728758687A197,197,0,0,1,14.547963557586082,-196.46210005068954L12.598906014199786,-170.1411695247372A170.6070045455344,170.6070045455344,0,0,0,8.403521811994825,-170.3999143813028Z" fill-rule="evenodd" style="fill: #DB3F29; stroke: #fff; opacity: 1;" id="p-type-functions"></path><path d="M14.547963557586082,-196.46210005068954A197,197,0,0,1,19.383545140647417,-196.0440720291753L16.786642507203073,-169.77914663861213A170.6070045455344,170.6070045455344,0,0,0,12.598906014199786,-170.1411695247372Z" fill-rule="evenodd" style="fill: #DB3F29; stroke: #fff; opacity: 1;" id="p-type-functions"></path><path d="M19.383545140647417,-196.0440720291753A197,197,0,0,1,24.207360645259975,-195.50704256008353L20.9641892773668,-169.31406547579778A170.6070045455344,170.6070045455344,0,0,0,16.786642507203073,-169.77914663861213Z" fill-rule="evenodd" style="fill: #DB3F29; stroke: #fff; opacity: 1;" id="p-type-functions"></path><path d="M24.207360645259975,-195.50704256008353A197,197,0,0,1,29.016481949078752,-194.85133762768677L25.1290104963548,-168.74620834695543A170.6070045455344,170.6070045455344,0,0,0,20.9641892773668,-169.31406547579778Z" fill-rule="evenodd" style="fill: #DB3F29; stroke: #fff; opacity: 1;" id="p-type-functions"></path><path d="M29.016481949078752,-194.85133762768677A197,197,0,0,1,33.80798984934088,-194.07735525389577L29.278578060415633,-168.07591994917104A170.6070045455344,170.6070045455344,0,0,0,25.1290104963548,-168.74620834695543Z" fill-rule="evenodd" style="fill: #DB3F29; stroke: #fff; opacity: 1;" id="p-type-functions"></path><path d="M33.80798984934088,-194.07735525389577A197,197,0,0,1,38.57897583486145,-193.18556525665466L33.41037312497599,-167.30360715671938A170.6070045455344,170.6070045455344,0,0,0,29.278578060415633,-168.07591994917104Z" fill-rule="evenodd" style="fill: #DB3F29; stroke: #fff; opacity: 1;" id="p-type-functions"></path><path d="M38.57897583486145,-193.18556525665466A197,197,0,0,1,43.32654385154022,-192.176508964755L37.521887633614305,-166.42973877408573A170.6070045455344,170.6070045455344,0,0,0,33.41037312497599,-167.30360715671938Z" fill-rule="evenodd" style="fill: #DB3F29; stroke: #fff; opacity: 1;" id="p-type-functions"></path><path d="M43.32654385154022,-192.176508964755A197,197,0,0,1,48.04781206030587,-191.05079888924183L41.61062584048521,-165.45484525139523A170.6070045455344,170.6070045455344,0,0,0,37.521887633614305,-166.42973877408573Z" fill-rule="evenodd" style="fill: #DB3F29; stroke: #fff; opacity: 1;" id="p-type-functions"></path><path d="M48.04781206030587,-191.05079888924183A197,197,0,0,1,52.73991458643229,-189.80911835161086L45.67410582527183,-164.3795183624221A170.6070045455344,170.6070045455344,0,0,0,41.61062584048521,-165.45484525139523Z" fill-rule="evenodd" style="fill: #DB3F29; stroke: #fff; opacity: 1;" id="p-type-functions"></path><path d="M52.73991458643229,-189.80911835161086A197,197,0,0,1,57.40000325916367,-188.4522210690232L49.70986099974531,-163.20441084537512A170.6070045455344,170.6070045455344,0,0,0,45.67410582527183,-164.3795183624221Z" fill-rule="evenodd" style="fill: #DB3F29; stroke: #fff; opacity: 1;" id="p-type-functions"></path><path d="M57.40000325916367,-188.4522210690232A197,197,0,0,1,62.025249340593575,-186.98093069678842L53.715441605018036,-161.93023600667632A170.6070045455344,170.6070045455344,0,0,0,49.70986099974531,-163.20441084537512Z" fill-rule="evenodd" style="fill: #DB3F29; stroke: #fff; opacity: 1;" id="p-type-functions"></path><path d="M62.025249340593575,-186.98093069678842A197,197,0,0,1,66.61284524274747,-185.39614032839458L57.68841619858069,-160.55776728797437A170.6070045455344,170.6070045455344,0,0,0,53.715441605018036,-161.93023600667632Z" fill-rule="evenodd" style="fill: #DB3F29; stroke: #fff; opacity: 1;" id="p-type-functions"></path><path d="M66.61284524274747,-185.39614032839458A197,197,0,0,1,71.16000623182752,-183.69881195338817L61.6263731302216,-159.08783779665467A170.6070045455344,170.6070045455344,0,0,0,57.68841619858069,-160.55776728797437Z" fill-rule="evenodd" style="fill: #DB3F29; stroke: #fff; opacity: 1;" id="p-type-functions"></path><path d="M71.16000623182752,-183.69881195338817A197,197,0,0,1,75.66397211858406,-181.88997587343326L65.52692200593125,-157.52133980013184A170.6070045455344,170.6070045455344,0,0,0,61.6263731302216,-159.08783779665467Z" fill-rule="evenodd" style="fill: #DB3F29; stroke: #fff; opacity: 1;" id="p-type-functions"></path><path d="M75.66397211858406,-181.88997587343326A197,197,0,0,1,80.12200893378858,-179.9707300769042L69.38769513890465,-155.85922418423115A170.6070045455344,170.6070045455344,0,0,0,65.52692200593125,-157.52133980013184Z" fill-rule="evenodd" style="fill: #DB3F29; stroke: #fff; opacity: 1;" id="p-type-functions"></path><path d="M80.12200893378858,-179.9707300769042A197,197,0,0,1,84.53141058779052,-177.94223957239151L73.20634898675945,-154.10249987598766A170.6070045455344,170.6070045455344,0,0,0,69.38769513890465,-155.85922418423115Z" fill-rule="evenodd" style="fill: #DB3F29; stroke: #fff; opacity: 1;" id="p-type-functions"></path><path d="M84.53141058779052,-177.94223957239151A197,197,0,0,1,88.88950051315106,-175.80573568152582L76.98056557409872,-152.2522332312137A170.6070045455344,170.6070045455344,0,0,0,73.20634898675945,-154.10249987598766Z" fill-rule="evenodd" style="fill: #DB3F29; stroke: #fff; opacity: 1;" id="p-type-functions"></path><path d="M88.88950051315106,-175.80573568152582A197,197,0,0,1,93.19363328935619,-173.5625152915485L80.70805389955359,-150.3095473872061A170.6070045455344,170.6070045455344,0,0,0,76.98056557409872,-152.2522332312137Z" fill-rule="evenodd" style="fill: #DB3F29; stroke: #fff; opacity: 1;" id="p-type-functions"></path><path d="M93.19363328935619,-173.5625152915485A197,197,0,0,1,97.44119624862344,-171.2139400680834L84.38655132645285,-148.2756215809866A170.6070045455344,170.6070045455344,0,0,0,80.70805389955359,-150.3095473872061Z" fill-rule="evenodd" style="fill: #DB3F29; stroke: #fff; opacity: 1;" id="p-type-functions"></path><path d="M97.44119624862344,-171.2139400680834A197,197,0,0,1,101.62961106182715,-168.76143562858707L88.0138249562743,-146.15169043348865A170.6070045455344,170.6070045455344,0,0,0,84.38655132645285,-148.2756215809866Z" fill-rule="evenodd" style="fill: #DB3F29; stroke: #fff; opacity: 1;" id="p-type-functions"></path><path d="M101.62961106182715,-168.76143562858707A197,197,0,0,1,105.75633530357962,-166.20649067697937L91.58767298404503,-143.9390432001256A170.6070045455344,170.6070045455344,0,0,0,88.0138249562743,-146.15169043348865Z" fill-rule="evenodd" style="fill: #DB3F29; stroke: #fff; opacity: 1;" id="p-type-functions"></path><path d="M105.75633530357962,-166.20649067697937A197,197,0,0,1,109.81886399551846,-163.55065609997968L95.10592603486721,-141.63902298819477A170.6070045455344,170.6070045455344,0,0,0,91.58767298404503,-143.9390432001256Z" fill-rule="evenodd" style="fill: #DB3F29; stroke: #fff; opacity: 1;" id="p-type-functions"></path><path d="M109.81886399551846,-163.55065609997968A197,197,0,0,1,113.81473112686264,-160.79554402569732L98.56644848075852,-139.253025941593A170.6070045455344,170.6070045455344,0,0,0,95.10592603486721,-141.63902298819477Z" fill-rule="evenodd" style="fill: #DB3F29; stroke: #fff; opacity: 1;" id="p-type-functions"></path><path d="M113.81473112686264,-160.79554402569732A197,197,0,0,1,117.74151115131521,-157.9428268450477L101.96713973700773,-136.78250039333813A170.6070045455344,170.6070045455344,0,0,0,98.56644848075852,-139.253025941593Z" fill-rule="evenodd" style="fill: #DB3F29; stroke: #fff; opacity: 1;" id="p-type-functions"></path><path d="M117.74151115131521,-157.9428268450477A197,197,0,0,1,121.59682045940306,-154.99423619658796L105.30593553725842,-134.22894598641074A170.6070045455344,170.6070045455344,0,0,0,101.96713973700773,-136.78250039333813Z" fill-rule="evenodd" style="fill: #DB3F29; stroke: #fff; opacity: 1;" id="p-type-functions"></path><path d="M121.59682045940306,-154.99423619658796A197,197,0,0,1,125.37831882536084,-151.9515619153886L108.5808091865472,-131.59391276345053A170.6070045455344,170.6070045455344,0,0,0,105.30593553725842,-134.22894598641074Z" fill-rule="evenodd" style="fill: #DB3F29; stroke: #fff; opacity: 1;" id="p-type-functions"></path><path d="M125.37831882536084,-151.9515619153886A197,197,0,0,1,127.7734577913316,-149.9431341677464L110.65506037667187,-129.85456331232683A170.6070045455344,170.6070045455344,0,0,0,108.5808091865472,-131.59391276345053Z" fill-rule="evenodd" style="fill: #DB3F29; stroke: #fff; opacity: 1;" id="p-type-functions"></path><path d="M195.9916420998348,-19.906687997009097A197,197,0,0,1,196.42257406628417,-15.072239288675796L170.10693901813255,-13.052942115911135A170.6070045455344,170.6070045455344,0,0,0,169.7337409878846,-17.23969751062064Z" fill-rule="evenodd" style="fill: #1DC690; stroke: #fff; opacity: 1;" id="p-type-logs"></path><path d="M196.42257406628417,-15.072239288675796A197,197,0,0,1,196.7342748292146,-10.228641523831767L170.37687979720928,-8.858263405842681A170.6070045455344,170.6070045455344,0,0,0,170.10693901813255,-13.052942115911135Z" fill-rule="evenodd" style="fill: #1DC690; stroke: #fff; opacity: 1;" id="p-type-logs"></path><path d="M196.7342748292146,-10.228641523831767A197,197,0,0,1,196.92655518197665,-5.378834832925913L170.54339946734987,-4.658207608074467A170.6070045455344,170.6070045455344,0,0,0,170.37687979720928,-8.858263405842681Z" fill-rule="evenodd" style="fill: #1DC690; stroke: #fff; opacity: 1;" id="p-type-logs"></path><path d="M196.92655518197665,-5.378834832925913A197,197,0,0,1,196.99929840775215,-0.5257631153106391L170.60639694882468,-0.4553242142318606A170.6070045455344,170.6070045455344,0,0,0,170.54339946734987,-4.658207608074467Z" fill-rule="evenodd" style="fill: #1DC690; stroke: #fff; opacity: 1;" id="p-type-logs"></path><path d="M196.99929840775215,-0.5257631153106391A197,197,0,0,1,196.9524603504027,4.327627747745541L170.56583400129614,3.7478355676700725A170.6070045455344,170.6070045455344,0,0,0,170.60639694882468,-0.4553242142318606Z" fill-rule="evenodd" style="fill: #1DC690; stroke: #fff; opacity: 1;" id="p-type-logs"></path><path d="M196.9524603504027,4.327627747745541A197,197,0,0,1,196.78606944127318,9.178391681248442L170.4217352470312,7.948720361844915A170.6070045455344,170.6070045455344,0,0,0,170.56583400129614,3.7478355676700725Z" fill-rule="evenodd" style="fill: #1DC690; stroke: #fff; opacity: 1;" id="p-type-logs"></path><path d="M196.78606944127318,9.178391681248442A197,197,0,0,1,196.50022668193355,14.023584204786241L170.17418815595522,12.14478017345508A170.6070045455344,170.6070045455344,0,0,0,170.4217352470312,7.948720361844915Z" fill-rule="evenodd" style="fill: #1DC690; stroke: #fff; opacity: 1;" id="p-type-logs"></path><path d="M196.50022668193355,14.023584204786241A197,197,0,0,1,196.09510558286942,18.86026421986958L169.8233429925566,16.333467936493754A170.6070045455344,170.6070045455344,0,0,0,170.17418815595522,12.14478017345508Z" fill-rule="evenodd" style="fill: #1DC690; stroke: #fff; opacity: 1;" id="p-type-logs"></path><path d="M196.09510558286942,18.86026421986958A197,197,0,0,1,195.57095205815887,23.685495795218785L169.3694127246741,20.51224105988897A170.6070045455344,170.6070045455344,0,0,0,169.8233429925566,16.333467936493754Z" fill-rule="evenodd" style="fill: #1DC690; stroke: #fff; opacity: 1;" id="p-type-logs"></path><path d="M195.57095205815887,23.685495795218785A197,197,0,0,1,194.92808427619914,28.49634994891454L168.81267289422246,24.67856297089138A170.6070045455344,170.6070045455344,0,0,0,169.3694127246741,20.51224105988897Z" fill-rule="evenodd" style="fill: #1DC690; stroke: #fff; opacity: 1;" id="p-type-logs"></path><path d="M194.92808427619914,28.49634994891454A197,197,0,0,1,194.16689246657418,33.28990642633017L168.15346144993458,28.82990465480876A170.6070045455344,170.6070045455344,0,0,0,168.81267289422246,24.67856297089138Z" fill-rule="evenodd" style="fill: #1DC690; stroke: #fff; opacity: 1;" id="p-type-logs"></path><path d="M194.16689246657418,33.28990642633017A197,197,0,0,1,193.28783868317976,38.06325547276637L167.39217854222218,32.96374619015274A170.6070045455344,170.6070045455344,0,0,0,168.15346144993458,28.82990465480876Z" fill-rule="evenodd" style="fill: #1DC690; stroke: #fff; opacity: 1;" id="p-type-logs"></path><path d="M193.28783868317976,38.06325547276637A197,197,0,0,1,192.2914565237505,42.81349959971234L166.52928628027885,37.077578278265776A170.6070045455344,170.6070045455344,0,0,0,167.39217854222218,32.96374619015274Z" fill-rule="evenodd" style="fill: #1DC690; stroke: #fff; opacity: 1;" id="p-type-logs"></path><path d="M192.2914565237505,42.81349959971234A197,197,0,0,1,191.17835080595873,47.53775534366109L165.56530845157346,41.168903766499945A170.6070045455344,170.6070045455344,0,0,0,166.52928628027885,37.077578278265776Z" fill-rule="evenodd" style="fill: #1DC690; stroke: #fff; opacity: 1;" id="p-type-logs"></path><path d="M191.17835080595873,47.53775534366109A197,197,0,0,1,189.94919720028176,52.2331550164115L164.50083020390397,45.23523916402294A170.6070045455344,170.6070045455344,0,0,0,165.56530845157346,41.168903766499945Z" fill-rule="evenodd" style="fill: #1DC690; stroke: #fff; opacity: 1;" id="p-type-logs"></path><path d="M189.94919720028176,52.2331550164115A197,197,0,0,1,188.60474181986064,56.89684844579451L163.33649769020462,49.2741161493312A170.6070045455344,170.6070045455344,0,0,0,164.50083020390397,45.23523916402294Z" fill-rule="evenodd" style="fill: #1DC690; stroke: #fff; opacity: 1;" id="p-type-logs"></path><path d="M188.60474181986064,56.89684844579451A197,197,0,0,1,187.1458007675993,61.52600470576673L162.07301767632228,53.28308306855491A170.6070045455344,170.6070045455344,0,0,0,163.33649769020462,49.2741161493312Z" fill-rule="evenodd" style="fill: #1DC690; stroke: #fff; opacity: 1;" id="p-type-logs"></path><path d="M187.1458007675993,61.52600470576673A197,197,0,0,1,185.57325964077873,66.11781383482158L160.71115711199985,57.2597064236457A170.6070045455344,170.6070045455344,0,0,0,162.07301767632228,53.28308306855491Z" fill-rule="evenodd" style="fill: #1DC690; stroke: #fff; opacity: 1;" id="p-type-logs"></path><path d="M185.57325964077873,66.11781383482158A197,197,0,0,1,183.88807299348736,70.66948854167447L159.2517426653272,61.20157234954339A170.6070045455344,170.6070045455344,0,0,0,160.71115711199985,57.2597064236457Z" fill-rule="evenodd" style="fill: #1DC690; stroke: #fff; opacity: 1;" id="p-type-logs"></path><path d="M183.88807299348736,70.66948854167447A197,197,0,0,1,182.0912637571936,75.17826589718703L157.6956602209423,65.1062880794253A170.6070045455344,170.6070045455344,0,0,0,159.2517426653272,61.20157234954339Z" fill-rule="evenodd" style="fill: #1DC690; stroke: #fff; opacity: 1;" id="p-type-logs"></path><path d="M182.0912637571936,75.17826589718703A197,197,0,0,1,180.18392261981222,79.64140901150303L156.04385434228692,68.97148339714855A170.6070045455344,170.6070045455344,0,0,0,157.6956602209423,65.1062880794253Z" fill-rule="evenodd" style="fill: #1DC690; stroke: #fff; opacity: 1;" id="p-type-logs"></path><path d="M180.18392261981222,79.64140901150303A197,197,0,0,1,178.1672073636421,84.05620869537812L154.29732769824395,72.79481207600388A170.6070045455344,170.6070045455344,0,0,0,156.04385434228692,68.97148339714855Z" fill-rule="evenodd" style="fill: #1DC690; stroke: #fff; opacity: 1;" id="p-type-logs"></path><path d="M178.1672073636421,84.05620869537812A197,197,0,0,1,176.042342162576,88.41998510469512L152.4571404545032,76.57395330290764A170.6070045455344,170.6070045455344,0,0,0,154.29732769824395,72.79481207600388Z" fill-rule="evenodd" style="fill: #1DC690; stroke: #fff; opacity: 1;" id="p-type-logs"></path><path d="M176.042342162576,88.41998510469512A197,197,0,0,1,173.81061683901072,92.73008936716607L150.5244096300266,80.30661308716708A170.6070045455344,170.6070045455344,0,0,0,152.4571404545032,76.57395330290764Z" fill-rule="evenodd" style="fill: #1DC690; stroke: #fff; opacity: 1;" id="p-type-logs"></path><path d="M173.81061683901072,92.73008936716607A197,197,0,0,1,171.47338608090658,96.98390519023425L148.50030841900207,83.99052565296434A170.6070045455344,170.6070045455344,0,0,0,150.5244096300266,80.30661308716708Z" fill-rule="evenodd" style="fill: #1DC690; stroke: #fff; opacity: 1;" id="p-type-logs"></path><path d="M171.47338608090658,96.98390519023425A197,197,0,0,1,169.03206861947376,101.17885044919966L146.3860654786987,87.62345481471345A170.6070045455344,170.6070045455344,0,0,0,148.50030841900207,83.99052565296434Z" fill-rule="evenodd" style="fill: #1DC690; stroke: #fff; opacity: 1;" id="p-type-logs"></path><path d="M169.03206861947376,101.17885044919966A197,197,0,0,1,166.48814636798255,105.31237875460423L144.1829641836548,91.20319533445586A170.6070045455344,170.6070045455344,0,0,0,146.3860654786987,87.62345481471345Z" fill-rule="evenodd" style="fill: #1DC690; stroke: #fff; opacity: 1;" id="p-type-logs"></path><path d="M65.98503893662418,185.62051243473118A197,197,0,0,1,61.39210599624818,187.1897682068799L53.167123384577884,162.11109459567862A170.6070045455344,170.6070045455344,0,0,0,57.14471998882186,160.75207923196248Z" fill-rule="evenodd" style="fill: #D7A449; stroke: #fff; opacity: 1;" id="p-type-tokenTransfers"></path><path d="M61.39210599624818,187.1897682068799A197,197,0,0,1,56.76190720331275,188.64539721562917L49.15725360532377,163.3717062957411A170.6070045455344,170.6070045455344,0,0,0,53.167123384577884,162.11109459567862Z" fill-rule="evenodd" style="fill: #D7A449; stroke: #fff; opacity: 1;" id="p-type-tokenTransfers"></path><path d="M56.76190720331275,188.64539721562917A197,197,0,0,1,52.097253152156355,189.98651587415392L45.117544697156326,164.5331491235128A170.6070045455344,170.6070045455344,0,0,0,49.15725360532377,163.3717062957411Z" fill-rule="evenodd" style="fill: #D7A449; stroke: #fff; opacity: 1;" id="p-type-tokenTransfers"></path><path d="M52.097253152156355,189.98651587415392A197,197,0,0,1,47.400975351932956,191.2123101049863L41.05044881893396,165.59471806722604A170.6070045455344,170.6070045455344,0,0,0,45.117544697156326,164.5331491235128Z" fill-rule="evenodd" style="fill: #D7A449; stroke: #fff; opacity: 1;" id="p-type-tokenTransfers"></path><path d="M47.400975351932956,191.2123101049863A197,197,0,0,1,42.67592450784711,192.322035834172L36.95843475378251,166.55576873993408A170.6070045455344,170.6070045455344,0,0,0,41.05044881893396,165.59471806722604Z" fill-rule="evenodd" style="fill: #D7A449; stroke: #fff; opacity: 1;" id="p-type-tokenTransfers"></path><path d="M42.67592450784711,192.322035834172A197,197,0,0,1,37.92496879073665,193.31501944293322L32.84398641050994,167.41571777066284A170.6070045455344,170.6070045455344,0,0,0,36.95843475378251,166.55576873993408Z" fill-rule="evenodd" style="fill: #D7A449; stroke: #fff; opacity: 1;" id="p-type-tokenTransfers"></path><path d="M37.92496879073665,193.31501944293322A197,197,0,0,1,33.15099209605356,194.1906581765647L28.709601315839514,168.17404315852534A170.6070045455344,170.6070045455344,0,0,0,32.84398641050994,167.41571777066284Z" fill-rule="evenodd" style="fill: #D7A449; stroke: #fff; opacity: 1;" id="p-type-tokenTransfers"></path><path d="M33.15099209605356,194.1906581765647A197,197,0,0,1,28.356892293299765,194.94842051031395L24.557789098376766,168.8302845895832A170.6070045455344,170.6070045455344,0,0,0,28.709601315839514,168.17404315852534Z" fill-rule="evenodd" style="fill: #D7A449; stroke: #fff; opacity: 1;" id="p-type-tokenTransfers"></path><path d="M28.356892293299765,194.94842051031395A197,197,0,0,1,23.545579466980527,195.58784647202418L20.3910699652304,169.38404371626353A170.6070045455344,170.6070045455344,0,0,0,24.557789098376766,168.8302845895832Z" fill-rule="evenodd" style="fill: #D7A449; stroke: #fff; opacity: 1;" id="p-type-tokenTransfers"></path><path d="M23.545579466980527,195.58784647202418A197,197,0,0,1,18.719974150143106,196.10854792134373L16.211973172211938,169.83498439916164A170.6070045455344,170.6070045455344,0,0,0,20.3910699652304,169.38404371626353Z" fill-rule="evenodd" style="fill: #D7A449; stroke: #fff; opacity: 1;" id="p-type-tokenTransfers"></path><path d="M18.719974150143106,196.10854792134373A197,197,0,0,1,13.883005551573046,196.51020878533257L12.02303548854265,170.18283291108196A170.6070045455344,170.6070045455344,0,0,0,16.211973172211938,169.83498439916164Z" fill-rule="evenodd" style="fill: #D7A449; stroke: #fff; opacity: 1;" id="p-type-tokenTransfers"></path><path d="M13.883005551573046,196.51020878533257A197,197,0,0,1,9.03760977772416,196.79258525032284L7.826799656999756,170.4273781031944A170.6070045455344,170.6070045455344,0,0,0,12.02303548854265,170.18283291108196Z" fill-rule="evenodd" style="fill: #D7A449; stroke: #fff; opacity: 1;" id="p-type-tokenTransfers"></path><path d="M9.03760977772416,196.79258525032284A197,197,0,0,1,4.186728050461542,196.95550590991732L3.625812850436592,170.56847153320453A170.6070045455344,170.6070045455344,0,0,0,7.826799656999756,170.4273781031944Z" fill-rule="evenodd" style="fill: #D7A449; stroke: #fff; opacity: 1;" id="p-type-tokenTransfers"></path><path d="M4.186728050461542,196.95550590991732A197,197,0,0,1,-0.666695078300553,196.99887186903524L-0.5773748743863344,170.60602755546014A170.6070045455344,170.6070045455344,0,0,0,3.625812850436592,170.56847153320453Z" fill-rule="evenodd" style="fill: #D7A449; stroke: #fff; opacity: 1;" id="p-type-tokenTransfers"></path><path d="M-0.666695078300553,196.99887186903524A197,197,0,0,1,-5.519713513982212,196.9226568039431L-4.780212124720868,170.54002337293926A170.6070045455344,170.6070045455344,0,0,0,-0.5773748743863344,170.60602755546014Z" fill-rule="evenodd" style="fill: #D7A449; stroke: #fff; opacity: 1;" id="p-type-tokenTransfers"></path><path d="M-5.519713513982212,196.9226568039431A197,197,0,0,1,-10.369381407657789,196.72690697823347L-8.980147720561687,170.37049905108833A170.6070045455344,170.6070045455344,0,0,0,-4.780212124720868,170.54002337293926Z" fill-rule="evenodd" style="fill: #D7A449; stroke: #fff; opacity: 1;" id="p-type-tokenTransfers"></path><path d="M-10.369381407657789,196.72690697823347A197,197,0,0,1,-15.212754944226706,196.4117412147423L-13.174632243247649,170.09755749350188A170.6070045455344,170.6070045455344,0,0,0,-8.980147720561687,170.37049905108833Z" fill-rule="evenodd" style="fill: #D7A449; stroke: #fff; opacity: 1;" id="p-type-tokenTransfers"></path><path d="M-15.212754944226706,196.4117412147423A197,197,0,0,1,-20.04689412934971,195.97735082342206L-17.361119582993975,169.72136437945866A170.6070045455344,170.6070045455344,0,0,0,-13.174632243247649,170.09755749350188Z" fill-rule="evenodd" style="fill: #D7A449; stroke: #fff; opacity: 1;" id="p-type-tokenTransfers"></path><path d="M-20.04689412934971,195.97735082342206A197,197,0,0,1,-24.868864574065853,195.4239994852136L-21.5370684844159,169.24214806335206A170.6070045455344,170.6070045455344,0,0,0,-17.361119582993975,169.72136437945866Z" fill-rule="evenodd" style="fill: #D7A449; stroke: #fff; opacity: 1;" id="p-type-tokenTransfers"></path><path d="M-24.868864574065853,195.4239994852136A197,197,0,0,1,-29.67573927600695,194.75202309198858L-25.699944089105646,168.66019943607571A170.6070045455344,170.6070045455344,0,0,0,-21.5370684844159,169.24214806335206Z" fill-rule="evenodd" style="fill: #D7A449; stroke: #fff; opacity: 1;" id="p-type-tokenTransfers"></path><path d="M-29.67573927600695,194.75202309198858A197,197,0,0,1,-34.46460039612828,193.9618295426582L-29.84721947432632,167.97587174844904A170.6070045455344,170.6070045455344,0,0,0,-25.699944089105646,168.66019943607571Z" fill-rule="evenodd" style="fill: #D7A449; stroke: #fff; opacity: 1;" id="p-type-tokenTransfers"></path><path d="M-34.46460039612828,193.9618295426582A197,197,0,0,1,-39.23254102987698,193.05389849557307L-33.97637718688876,167.18958039678867A170.6070045455344,170.6070045455344,0,0,0,-29.84721947432632,167.97587174844904Z" fill-rule="evenodd" style="fill: #D7A449; stroke: #fff; opacity: 1;" id="p-type-tokenTransfers"></path><path d="M-136.7414422075262,141.81247470870036A197,197,0,0,1,-159.39712369700342,115.7650938630561L-138.0419584117755,100.25551215689659A170.6070045455344,170.6070045455344,0,0,0,-118.42156270183935,122.81320567127271Z" fill-rule="evenodd" style="fill: #414552; stroke: #fff; opacity: 1;" id="p-type-ether"></path><path d="M-159.39712369700342,115.7650938630561A197,197,0,0,1,-161.21383210251588,113.22146589239084L-139.615274042218,98.05266571652382A170.6070045455344,170.6070045455344,0,0,0,-138.0419584117755,100.25551215689659Z" fill-rule="evenodd" style="fill: #414552; stroke: #fff; opacity: 1;" id="p-type-ether"></path><path d="M-161.21383210251588,113.22146589239084A197,197,0,0,1,-162.22271431823063,111.77115441483876L-140.48899167045332,96.79665913356358A170.6070045455344,170.6070045455344,0,0,0,-139.615274042218,98.05266571652382Z" fill-rule="evenodd" style="fill: #414552; stroke: #fff; opacity: 1;" id="p-type-ether"></path><path d="M-162.22271431823063,111.77115441483876A197,197,0,0,1,-162.8662297424445,110.83136383479763L-141.04629237554965,95.98277661701064A170.6070045455344,170.6070045455344,0,0,0,-140.48899167045332,96.79665913356358Z" fill-rule="evenodd" style="fill: #414552; stroke: #fff; opacity: 1;" id="p-type-ether"></path></g></svg>