<svg xmlns="http://www.w3.org/2000/svg" width="400" height="400" id="block-7908190"><g id="burst-container" transform="translate(200,200)"><circle r="197" style="fill: #f9f9f9; stroke: #f9f9f9; stroke-width: 3; opacity: 1;" id="circle-base"></circle><path display="none" d="M6.031385485800715e-15,-98.5A98.5,98.5,0,1,1,-6.031385485800715e-15,98.5A98.5,98.5,0,1,1,6.031385485800715e-15,-98.5Z" fill-rule="evenodd" id="p-type-root" style="stroke: #fff; opacity: 1;"></path><path d="M8.529667153919608e-15,-139.30003589374985A139.30003589374985,139.30003589374985,0,1,1,-129.1842972350293,-52.11446390294724L-91.3470925977078,-36.85049082367555A98.5,98.5,0,1,0,6.031385485800715e-15,-98.5Z" fill-rule="evenodd" style="fill: #0B1F65; stroke: #fff; opacity: 1;" id="p-type-data"></path><path d="M-129.1842972350293,-52.11446390294724A139.30003589374985,139.30003589374985,0,0,1,-6.239353781816757,-139.16023305666502L-4.41188936934456,-98.4011444658682A98.5,98.5,0,0,0,-91.3470925977078,-36.85049082367555Z" fill-rule="evenodd" style="fill: #D7A449; stroke: #fff; opacity: 1;" id="p-type-value"></path><path d="M1.0446666101440332e-14,-170.6070045455344A170.6070045455344,170.6070045455344,0,0,1,162.42030334070054,52.214893112165086L132.6156223509261,42.63328169958946A139.30003589374985,139.30003589374985,0,0,0,8.529667153919608e-15,-139.30003589374985Z" fill-rule="evenodd" style="fill: #1DC690; stroke: #fff; opacity: 1;" id="p-type-logs"></path><path d="M162.42030334070054,52.214893112165086A170.6070045455344,170.6070045455344,0,0,1,-10.730058800076097,170.2692451329567L-8.761056323415591,139.024256488204A139.30003589374985,139.30003589374985,0,0,0,132.6156223509261,42.63328169958946Z" fill-rule="evenodd" style="fill: #D7A449; stroke: #fff; opacity: 1;" id="p-type-tokenTransfers"></path><path d="M-10.730058800076097,170.2692451329567A170.6070045455344,170.6070045455344,0,0,1,-88.13326633358592,146.07969525356083L-71.96051062736557,119.2735717174966A139.30003589374985,139.30003589374985,0,0,0,-8.761056323415591,139.024256488204Z" fill-rule="evenodd" style="fill: #414552; stroke: #fff; opacity: 1;" id="p-type-ether"></path><path d="M-158.2178055029288,-63.82692239045673A170.6070045455344,170.6070045455344,0,0,1,-84.06939773819387,-148.45567137680314L-68.64237581388839,-121.21354809848982A139.30003589374985,139.30003589374985,0,0,0,-129.1842972350293,-52.11446390294724Z" fill-rule="evenodd" style="fill: #D7A449; stroke: #fff; opacity: 1;" id="p-type-tokenTransfers"></path><path d="M-84.06939773819387,-148.45567137680314A170.6070045455344,170.6070045455344,0,0,1,-15.267894692486633,-169.92245699629916L-12.46618381437991,-138.7411051603168A139.30003589374985,139.30003589374985,0,0,0,-68.64237581388839,-121.21354809848982Z" fill-rule="evenodd" style="fill: #414552; stroke: #fff; opacity: 1;" id="p-type-ether"></path><path d="M1.206277097160143e-14,-197A197,197,0,0,1,4.412996739627659,-196.95056603060587L3.8217672833354546,-170.5641934722292A170.6070045455344,170.6070045455344,0,0,0,1.0446666101440332e-14,-170.6070045455344Z" fill-rule="evenodd" style="fill: #1DC690; stroke: #fff; opacity: 1;" id="p-type-logs"></path><path d="M4.412996739627659,-196.95056603060587A197,197,0,0,1,8.823778738689226,-196.8022889317364L7.6416165450778815,-170.43578173780878A170.6070045455344,170.6070045455344,0,0,0,3.8217672833354546,-170.5641934722292Z" fill-rule="evenodd" style="fill: #1DC690; stroke: #fff; opacity: 1;" id="p-type-logs"></path><path d="M8.823778738689226,-196.8022889317364A197,197,0,0,1,13.230132368125275,-196.55524311887964L11.457630726227263,-170.22183378797624A170.6070045455344,170.6070045455344,0,0,0,7.6416165450778815,-170.43578173780878Z" fill-rule="evenodd" style="fill: #1DC690; stroke: #fff; opacity: 1;" id="p-type-logs"></path><path d="M13.230132368125275,-196.55524311887964A197,197,0,0,1,17.629846221332226,-196.20955257635185L15.2678946924868,-169.92245699629916A170.6070045455344,170.6070045455344,0,0,0,11.457630726227263,-170.22183378797624Z" fill-rule="evenodd" style="fill: #1DC690; stroke: #fff; opacity: 1;" id="p-type-logs"></path><path d="M17.629846221332226,-196.20955257635185A197,197,0,0,1,22.020712223995734,-195.76539079507378L19.07049619540683,-169.5378016103222A170.6070045455344,170.6070045455344,0,0,0,15.2678946924868,-169.92245699629916Z" fill-rule="evenodd" style="fill: #1DC690; stroke: #fff; opacity: 1;" id="p-type-logs"></path><path d="M22.020712223995734,-195.76539079507378A197,197,0,0,1,26.40052674225199,-195.22298068550134L22.86352683208065,-169.068060676163A170.6070045455344,170.6070045455344,0,0,0,19.07049619540683,-169.5378016103222Z" fill-rule="evenodd" style="fill: #1DC690; stroke: #fff; opacity: 1;" id="p-type-logs"></path><path d="M26.40052674225199,-195.22298068550134A197,197,0,0,1,30.767091688620233,-194.58259446575389L26.645083002910184,-168.5134699416282A170.6070045455344,170.6070045455344,0,0,0,22.86352683208065,-169.068060676163Z" fill-rule="evenodd" style="fill: #1DC690; stroke: #fff; opacity: 1;" id="p-type-logs"></path><path d="M30.767091688620233,-194.58259446575389A197,197,0,0,1,35.118215625152104,-193.84455352499674L30.413266866961333,-167.87430773789953A170.6070045455344,170.6070045455344,0,0,0,26.645083002910184,-168.5134699416282Z" fill-rule="evenodd" style="fill: #1DC690; stroke: #fff; opacity: 1;" id="p-type-logs"></path><path d="M35.118215625152104,-193.84455352499674A197,197,0,0,1,39.451714863243495,-193.0092282621464L34.16618729442899,-167.1508948398482A170.6070045455344,170.6070045455344,0,0,0,30.413266866961333,-167.87430773789953Z" fill-rule="evenodd" style="fill: #1DC690; stroke: #fff; opacity: 1;" id="p-type-logs"></path><path d="M39.451714863243495,-193.0092282621464A197,197,0,0,1,43.76541455955723,-192.07703789997933L37.901960815733894,-166.34359430504853A170.6070045455344,170.6070045455344,0,0,0,34.16618729442899,-167.1508948398482Z" fill-rule="evenodd" style="fill: #1DC690; stroke: #fff; opacity: 1;" id="p-type-logs"></path><path d="M43.76541455955723,-192.07703789997933A197,197,0,0,1,48.057149807506896,-191.0484502747375L41.61871256677542,-165.45281129157075A170.6070045455344,170.6070045455344,0,0,0,37.901960815733894,-166.34359430504853Z" fill-rule="evenodd" style="fill: #1DC690; stroke: #fff; opacity: 1;" id="p-type-logs"></path><path d="M48.057149807506896,-191.0484502747375A197,197,0,0,1,52.32476672375348,-189.92398160133644L45.314577229865165,-164.47899285464567A170.6070045455344,170.6070045455344,0,0,0,41.61871256677542,-165.45281129157075Z" fill-rule="evenodd" style="fill: #1DC690; stroke: #fff; opacity: 1;" id="p-type-logs"></path><path d="M52.32476672375348,-189.92398160133644A197,197,0,0,1,56.56612352916983,-188.70419621429383L48.98769996986974,-163.42262772230174A170.6070045455344,170.6070045455344,0,0,0,45.314577229865165,-164.47899285464567Z" fill-rule="evenodd" style="fill: #1DC690; stroke: #fff; opacity: 1;" id="p-type-logs"></path><path d="M56.56612352916983,-188.70419621429383A197,197,0,0,1,60.779091623730515,-187.38970628450798L52.63623736509261,-162.28424605008837A170.6070045455344,170.6070045455344,0,0,0,48.98769996986974,-163.42262772230174Z" fill-rule="evenodd" style="fill: #1DC690; stroke: #fff; opacity: 1;" id="p-type-logs"></path><path d="M60.779091623730515,-187.38970628450798A197,197,0,0,1,64.96155665478729,-185.9811715120293L56.258358332427854,-161.06441915500812A170.6070045455344,170.6070045455344,0,0,0,52.63623736509261,-162.28424605008837Z" fill-rule="evenodd" style="fill: #1DC690; stroke: #fff; opacity: 1;" id="p-type-logs"></path><path d="M64.96155665478729,-185.9811715120293A197,197,0,0,1,69.11141957819464,-184.4792987949779L59.85224504632177,-159.76375922879083A170.6070045455344,170.6070045455344,0,0,0,56.258358332427854,-161.06441915500812Z" fill-rule="evenodd" style="fill: #1DC690; stroke: #fff; opacity: 1;" id="p-type-logs"></path><path d="M69.11141957819464,-184.4792987949779A197,197,0,0,1,73.22659771175213,-182.88484187477434L63.41609385108079,-158.38291903065468A170.6070045455344,170.6070045455344,0,0,0,59.85224504632177,-159.76375922879083Z" fill-rule="evenodd" style="fill: #1DC690; stroke: #fff; opacity: 1;" id="p-type-logs"></path><path d="M73.22659771175213,-182.88484187477434A197,197,0,0,1,77.30502578043526,-181.19860095786126L66.94811616606788,-156.92259155970717A170.6070045455344,170.6070045455344,0,0,0,63.41609385108079,-158.38291903065468Z" fill-rule="evenodd" style="fill: #1DC690; stroke: #fff; opacity: 1;" id="p-type-logs"></path><path d="M77.30502578043526,-181.19860095786126A197,197,0,0,1,81.34465695289053,-179.4214223141054L70.44653938333367,-155.3835097071514A170.6070045455344,170.6070045455344,0,0,0,66.94811616606788,-156.92259155970717Z" fill-rule="evenodd" style="fill: #1DC690; stroke: #fff; opacity: 1;" id="p-type-logs"></path><path d="M81.34465695289053,-179.4214223141054A197,197,0,0,1,85.34346386867387,-177.55419785208224L73.90960775723093,-153.76644588847162A170.6070045455344,170.6070045455344,0,0,0,70.44653938333367,-155.3835097071514Z" fill-rule="evenodd" style="fill: #1DC690; stroke: #fff; opacity: 1;" id="p-type-logs"></path><path d="M85.34346386867387,-177.55419785208224A197,197,0,0,1,89.29943965571735,-175.59786467145577L77.33558328556673,-152.0722116557827A170.6070045455344,170.6070045455344,0,0,0,73.90960775723093,-153.76644588847162Z" fill-rule="evenodd" style="fill: #1DC690; stroke: #fff; opacity: 1;" id="p-type-logs"></path><path d="M89.29943965571735,-175.59786467145577A197,197,0,0,1,93.21059893751361,-173.5534045926786L80.72274658184959,-150.30165729053851A170.6070045455344,170.6070045455344,0,0,0,77.33558328556673,-152.0722116557827Z" fill-rule="evenodd" style="fill: #1DC690; stroke: #fff; opacity: 1;" id="p-type-logs"></path><path d="M93.21059893751361,-173.5534045926786A197,197,0,0,1,97.07497882951199,-171.42184366424775L84.06939773819396,-148.45567137680308A170.6070045455344,170.6070045455344,0,0,0,80.72274658184959,-150.30165729053851Z" fill-rule="evenodd" style="fill: #1DC690; stroke: #fff; opacity: 1;" id="p-type-logs"></path><path d="M97.07497882951199,-171.42184366424775A197,197,0,0,1,100.89063992422716,-169.20425164776427L87.37385717844923,-146.53518035529882A170.6070045455344,170.6070045455344,0,0,0,84.06939773819396,-148.45567137680308Z" fill-rule="evenodd" style="fill: #1DC690; stroke: #fff; opacity: 1;" id="p-type-logs"></path><path d="M100.89063992422716,-169.20425164776427A197,197,0,0,1,104.65566726456503,-166.90174148105422L90.63446650112478,-144.54114805845597A170.6070045455344,170.6070045455344,0,0,0,87.37385717844923,-146.53518035529882Z" fill-rule="evenodd" style="fill: #1DC690; stroke: #fff; opacity: 1;" id="p-type-logs"></path><path d="M104.65566726456503,-166.90174148105422A197,197,0,0,1,108.36817130487766,-164.51546871962128L93.8495893116879,-142.4745752266962A170.6070045455344,170.6070045455344,0,0,0,90.63446650112478,-144.54114805845597Z" fill-rule="evenodd" style="fill: #1DC690; stroke: #fff; opacity: 1;" id="p-type-logs"></path><path d="M108.36817130487766,-164.51546871962128A197,197,0,0,1,112.0262888592656,-162.0466309567107L97.01761204381765,-140.33649900619326A170.6070045455344,170.6070045455344,0,0,0,93.8495893116879,-142.4745752266962Z" fill-rule="evenodd" style="fill: #1DC690; stroke: #fff; opacity: 1;" id="p-type-logs"></path><path d="M112.0262888592656,-162.0466309567107A197,197,0,0,1,115.62818403665038,-159.49646722227584L100.13694476920153,-138.12799242836292A170.6070045455344,170.6070045455344,0,0,0,97.01761204381765,-140.33649900619326Z" fill-rule="evenodd" style="fill: #1DC690; stroke: #fff; opacity: 1;" id="p-type-logs"></path><path d="M115.62818403665038,-159.49646722227584A197,197,0,0,1,119.1720491621492,-156.8662573611492L103.20602199546923,-135.85016387134291A170.6070045455344,170.6070045455344,0,0,0,100.13694476920153,-138.12799242836292Z" fill-rule="evenodd" style="fill: #1DC690; stroke: #fff; opacity: 1;" id="p-type-logs"></path><path d="M119.1720491621492,-156.8662573611492A197,197,0,0,1,122.65610568428842,-154.1573213907295L106.22330345186266,-133.504156503734A170.6070045455344,170.6070045455344,0,0,0,103.20602199546923,-135.85016387134291Z" fill-rule="evenodd" style="fill: #1DC690; stroke: #fff; opacity: 1;" id="p-type-logs"></path><path d="M122.65610568428842,-154.1573213907295A197,197,0,0,1,126.07860506760123,-151.37101883850767L109.18727486224812,-131.09114771088045A170.6070045455344,170.6070045455344,0,0,0,106.22330345186266,-133.504156503734Z" fill-rule="evenodd" style="fill: #1DC690; stroke: #fff; opacity: 1;" id="p-type-logs"></path><path d="M126.07860506760123,-151.37101883850767A197,197,0,0,1,129.43782967016102,-148.50874805976375L112.0964487050826,-128.61234850397835A170.6070045455344,170.6070045455344,0,0,0,109.18727486224812,-131.09114771088045Z" fill-rule="evenodd" style="fill: #1DC690; stroke: #fff; opacity: 1;" id="p-type-logs"></path><path d="M129.43782967016102,-148.50874805976375A197,197,0,0,1,132.7320936056106,-145.57194553577767L114.94936495995282,-126.06900291230818A170.6070045455344,170.6070045455344,0,0,0,112.0964487050826,-128.61234850397835Z" fill-rule="evenodd" style="fill: #1DC690; stroke: #fff; opacity: 1;" id="p-type-logs"></path><path d="M132.7320936056106,-145.57194553577767A197,197,0,0,1,135.95974358925386,-142.56208515290572L117.74459184031231,-123.4623873588967A170.6070045455344,170.6070045455344,0,0,0,114.94936495995282,-126.06900291230818Z" fill-rule="evenodd" style="fill: #1DC690; stroke: #fff; opacity: 1;" id="p-type-logs"></path><path d="M135.95974358925386,-142.56208515290572A197,197,0,0,1,139.1191597677862,-139.4806774628844L120.48072651204888,-120.7938100199215A170.6070045455344,170.6070045455344,0,0,0,117.74459184031231,-123.4623873588967Z" fill-rule="evenodd" style="fill: #1DC690; stroke: #fff; opacity: 1;" id="p-type-logs"></path><path d="M139.1191597677862,-139.4806774628844A197,197,0,0,1,142.20875653224644,-136.32926892473333L123.15639579752164,-118.06461016817951A170.6070045455344,170.6070045455344,0,0,0,120.48072651204888,-120.7938100199215Z" fill-rule="evenodd" style="fill: #1DC690; stroke: #fff; opacity: 1;" id="p-type-logs"></path><path d="M142.20875653224644,-136.32926892473333A197,197,0,0,1,145.22698331378285,-133.1094411286376L125.77025686471471,-115.27615750094934A170.6070045455344,170.6070045455344,0,0,0,123.15639579752164,-118.06461016817951Z" fill-rule="evenodd" style="fill: #1DC690; stroke: #fff; opacity: 1;" id="p-type-logs"></path><path d="M145.22698331378285,-133.1094411286376A197,197,0,0,1,148.17232536183363,-129.82281000219845L128.32099790116118,-112.42985145258436A170.6070045455344,170.6070045455344,0,0,0,125.77025686471471,-115.27615750094934Z" fill-rule="evenodd" style="fill: #1DC690; stroke: #fff; opacity: 1;" id="p-type-logs"></path><path d="M148.17232536183363,-129.82281000219845A197,197,0,0,1,151.0433045043311,-126.47102499945157L130.80733877229926,-109.52712049218188A170.6070045455344,170.6070045455344,0,0,0,128.32099790116118,-112.42985145258436Z" fill-rule="evenodd" style="fill: #1DC690; stroke: #fff; opacity: 1;" id="p-type-logs"></path><path d="M151.0433045043311,-126.47102499945157A197,197,0,0,1,153.83847988954886,-123.05576827305933L133.22803166393078,-106.56942140668052A170.6070045455344,170.6070045455344,0,0,0,130.80733877229926,-109.52712049218188Z" fill-rule="evenodd" style="fill: #1DC690; stroke: #fff; opacity: 1;" id="p-type-logs"></path><path d="M153.83847988954886,-123.05576827305933A197,197,0,0,1,156.5564487092183,-119.57875383009264L135.58186170845855,-103.55823856974595A170.6070045455344,170.6070045455344,0,0,0,133.22803166393078,-106.56942140668052Z" fill-rule="evenodd" style="fill: #1DC690; stroke: #fff; opacity: 1;" id="p-type-logs"></path><path d="M156.5564487092183,-119.57875383009264A197,197,0,0,1,159.19584690255328,-116.04172667182617L137.86764759458939,-100.49508319681172A170.6070045455344,170.6070045455344,0,0,0,135.58186170845855,-103.55823856974595Z" fill-rule="evenodd" style="fill: #1DC690; stroke: #fff; opacity: 1;" id="p-type-logs"></path><path d="M187.54681171122826,60.29256518803209A197,197,0,0,1,186.14913619372228,64.47867162349915L161.2098808362928,55.840167628225075A170.6070045455344,170.6070045455344,0,0,0,162.42030334070054,52.214893112165086Z" fill-rule="evenodd" style="fill: #D7A449; stroke: #fff; opacity: 1;" id="p-type-tokenTransfers"></path><path d="M186.14913619372228,64.47867162349915A197,197,0,0,1,184.65803843559348,68.63241829572144L159.91855229822724,59.437417767254644A170.6070045455344,170.6070045455344,0,0,0,161.2098808362928,55.840167628225075Z" fill-rule="evenodd" style="fill: #D7A449; stroke: #fff; opacity: 1;" id="p-type-tokenTransfers"></path><path d="M184.65803843559348,68.63241829572144A197,197,0,0,1,183.07426677065854,72.75172057337032L158.5469658025996,63.00483818556569A170.6070045455344,170.6070045455344,0,0,0,159.91855229822724,59.437417767254644Z" fill-rule="evenodd" style="fill: #D7A449; stroke: #fff; opacity: 1;" id="p-type-tokenTransfers"></path><path d="M183.07426677065854,72.75172057337032A197,197,0,0,1,181.3986160427754,76.83451111164669L157.0958097043829,66.54063851004376A170.6070045455344,170.6070045455344,0,0,0,158.5469658025996,63.00483818556569Z" fill-rule="evenodd" style="fill: #D7A449; stroke: #fff; opacity: 1;" id="p-type-tokenTransfers"></path><path d="M181.3986160427754,76.83451111164669A197,197,0,0,1,179.6319272069369,80.87874088981434L155.56581229196442,70.04304423667845A170.6070045455344,170.6070045455344,0,0,0,157.0958097043829,66.54063851004376Z" fill-rule="evenodd" style="fill: #D7A449; stroke: #fff; opacity: 1;" id="p-type-tokenTransfers"></path><path d="M179.6319272069369,80.87874088981434A197,197,0,0,1,177.77508690722266,84.88238023953753L153.95774142164117,73.51029762112974A170.6070045455344,170.6070045455344,0,0,0,155.56581229196442,70.04304423667845Z" fill-rule="evenodd" style="fill: #D7A449; stroke: #fff; opacity: 1;" id="p-type-tokenTransfers"></path><path d="M177.77508690722266,84.88238023953753A197,197,0,0,1,175.82902703182097,88.84341986350574L152.27240413225772,76.94065856088298A170.6070045455344,170.6070045455344,0,0,0,153.95774142164117,73.51029762112974Z" fill-rule="evenodd" style="fill: #D7A449; stroke: #fff; opacity: 1;" id="p-type-tokenTransfers"></path><path d="M175.82902703182097,88.84341986350574A197,197,0,0,1,173.79472424534424,92.75987184383534L150.51064624017943,80.33240546855028A170.6070045455344,170.6070045455344,0,0,0,152.27240413225772,76.94065856088298Z" fill-rule="evenodd" style="fill: #D7A449; stroke: #fff; opacity: 1;" id="p-type-tokenTransfers"></path><path d="M173.79472424534424,92.75987184383534A197,197,0,0,1,171.6731994986725,96.62977063974125L148.67335191480433,83.68383613587962A170.6070045455344,170.6070045455344,0,0,0,150.51064624017943,80.33240546855028Z" fill-rule="evenodd" style="fill: #D7A449; stroke: #fff; opacity: 1;" id="p-type-tokenTransfers"></path><path d="M171.6731994986725,96.62977063974125A197,197,0,0,1,169.46551751657114,100.45117407397844L146.76144323482737,86.9932685880381A170.6070045455344,170.6070045455344,0,0,0,148.67335191480433,83.68383613587962Z" fill-rule="evenodd" style="fill: #D7A449; stroke: #fff; opacity: 1;" id="p-type-tokenTransfers"></path><path d="M169.46551751657114,100.45117407397844A197,197,0,0,1,167.17278626334007,104.22216430755799L144.77587972547875,90.25904192774101A170.6070045455344,170.6070045455344,0,0,0,146.76144323482737,86.9932685880381Z" fill-rule="evenodd" style="fill: #D7A449; stroke: #fff; opacity: 1;" id="p-type-tokenTransfers"></path><path d="M167.17278626334007,104.22216430755799A197,197,0,0,1,164.79615638676205,107.94084880224847L142.7176578769691,93.47951716880226A170.6070045455344,170.6070045455344,0,0,0,144.77587972547875,90.25904192774101Z" fill-rule="evenodd" style="fill: #D7A449; stroke: #fff; opacity: 1;" id="p-type-tokenTransfers"></path><path d="M164.79615638676205,107.94084880224847A197,197,0,0,1,162.33682064062975,111.60536127037987L140.58781064438338,96.65307805868888A170.6070045455344,170.6070045455344,0,0,0,142.7176578769691,93.47951716880226Z" fill-rule="evenodd" style="fill: #D7A449; stroke: #fff; opacity: 1;" id="p-type-tokenTransfers"></path><path d="M162.33682064062975,111.60536127037987A197,197,0,0,1,159.79601328614118,115.21386261147308L138.38740692927394,99.77813188966581A170.6070045455344,170.6070045455344,0,0,0,140.58781064438338,96.65307805868888Z" fill-rule="evenodd" style="fill: #D7A449; stroke: #fff; opacity: 1;" id="p-type-tokenTransfers"></path><path d="M159.79601328614118,115.21386261147308A197,197,0,0,1,157.1750094724638,118.76454183522499L136.11755104321344,102.85311029812458A170.6070045455344,170.6070045455344,0,0,0,138.38740692927394,99.77813188966581Z" fill-rule="evenodd" style="fill: #D7A449; stroke: #fff; opacity: 1;" id="p-type-tokenTransfers"></path><path d="M157.1750094724638,118.76454183522499A197,197,0,0,1,154.4751245967785,122.2556169703861L133.77938215357656,105.8764700516943A170.6070045455344,170.6070045455344,0,0,0,136.11755104321344,102.85311029812458Z" fill-rule="evenodd" style="fill: #D7A449; stroke: #fff; opacity: 1;" id="p-type-tokenTransfers"></path><path d="M154.4751245967785,122.2556169703861A197,197,0,0,1,151.69771364412387,125.68533595907438L131.37407371182852,108.84669382374021A170.6070045455344,170.6070045455344,0,0,0,133.77938215357656,105.8764700516943Z" fill-rule="evenodd" style="fill: #D7A449; stroke: #fff; opacity: 1;" id="p-type-tokenTransfers"></path><path d="M151.69771364412387,125.68533595907438A197,197,0,0,1,148.84417050737338,129.0519775360764L128.90283286460786,111.76229095486086A170.6070045455344,170.6070045455344,0,0,0,131.37407371182852,108.84669382374021Z" fill-rule="evenodd" style="fill: #D7A449; stroke: #fff; opacity: 1;" id="p-type-tokenTransfers"></path><path d="M148.84417050737338,129.0519775360764A197,197,0,0,1,145.91592728768518,132.35385209269495L126.36689984789834,114.62179820100201A170.6070045455344,170.6070045455344,0,0,0,128.90283286460786,111.76229095486086Z" fill-rule="evenodd" style="fill: #D7A449; stroke: #fff; opacity: 1;" id="p-type-tokenTransfers"></path><path d="M145.91592728768518,132.35385209269495A197,197,0,0,1,142.91445357577712,135.58930252470896L123.76754736459479,117.42378046781147A170.6070045455344,170.6070045455344,0,0,0,126.36689984789834,114.62179820100201Z" fill-rule="evenodd" style="fill: #D7A449; stroke: #fff; opacity: 1;" id="p-type-tokenTransfers"></path><path d="M142.91445357577712,135.58930252470896A197,197,0,0,1,139.84125571438636,138.75670506402062L121.10607994577438,120.16683153086672A170.6070045455344,170.6070045455344,0,0,0,123.76754736459479,117.42378046781147Z" fill-rule="evenodd" style="fill: #D7A449; stroke: #fff; opacity: 1;" id="p-type-tokenTransfers"></path><path d="M139.84125571438636,138.75670506402062A197,197,0,0,1,136.6978760422847,141.8544700935722L118.38383329599473,122.84957474141343A170.6070045455344,170.6070045455344,0,0,0,121.10607994577438,120.16683153086672Z" fill-rule="evenodd" style="fill: #D7A449; stroke: #fff; opacity: 1;" id="p-type-tokenTransfers"></path><path d="M136.6978760422847,141.8544700935722A197,197,0,0,1,133.48589212022853,144.88104294512348L115.60217362294692,125.47066371726116A170.6070045455344,170.6070045455344,0,0,0,118.38383329599473,122.84957474141343Z" fill-rule="evenodd" style="fill: #D7A449; stroke: #fff; opacity: 1;" id="p-type-tokenTransfers"></path><path d="M133.48589212022853,144.88104294512348A197,197,0,0,1,130.206915939232,147.83490467948957L112.76249695179985,128.02878301848895A170.6070045455344,170.6070045455344,0,0,0,115.60217362294692,125.47066371726116Z" fill-rule="evenodd" style="fill: #D7A449; stroke: #fff; opacity: 1;" id="p-type-tokenTransfers"></path><path d="M130.206915939232,147.83490467948957A197,197,0,0,1,126.86259311156091,150.7145728488474L109.86622842458048,130.52264880762226A170.6070045455344,170.6070045455344,0,0,0,112.76249695179985,128.02878301848895Z" fill-rule="evenodd" style="fill: #D7A449; stroke: #fff; opacity: 1;" id="p-type-tokenTransfers"></path><path d="M126.86259311156091,150.7145728488474A197,197,0,0,1,123.45460204485289,153.51860224072848L106.91482158494091,132.9510094939495A170.6070045455344,170.6070045455344,0,0,0,109.86622842458048,130.52264880762226Z" fill-rule="evenodd" style="fill: #D7A449; stroke: #fff; opacity: 1;" id="p-type-tokenTransfers"></path><path d="M123.45460204485289,153.51860224072848A197,197,0,0,1,119.98465309977884,156.24558560332426L103.90975764867176,135.31264636165497A170.6070045455344,170.6070045455344,0,0,0,106.91482158494091,132.9510094939495Z" fill-rule="evenodd" style="fill: #D7A449; stroke: #fff; opacity: 1;" id="p-type-tokenTransfers"></path><path d="M119.98465309977884,156.24558560332426A197,197,0,0,1,116.45448773166822,158.8941543517405L100.85254476032793,137.606374181453A170.6070045455344,170.6070045455344,0,0,0,103.90975764867176,135.31264636165497Z" fill-rule="evenodd" style="fill: #D7A449; stroke: #fff; opacity: 1;" id="p-type-tokenTransfers"></path><path d="M116.45448773166822,158.8941543517405A197,197,0,0,1,112.86587761652879,161.46297925484575L97.74471723633938,139.83104180541622A170.6070045455344,170.6070045455344,0,0,0,100.85254476032793,137.606374181453Z" fill-rule="evenodd" style="fill: #D7A449; stroke: #fff; opacity: 1;" id="p-type-tokenTransfers"></path><path d="M-12.390004673288896,196.60998902445388A197,197,0,0,1,-16.813142127449677,196.2812223616976L-14.560608199809762,169.98452485109235A170.6070045455344,170.6070045455344,0,0,0,-10.730058800076097,170.2692451329567Z" fill-rule="evenodd" style="fill: #414552; stroke: #fff; opacity: 1;" id="p-type-ether"></path><path d="M-16.813142127449677,196.2812223616976A197,197,0,0,1,-18.791022683808453,196.1017528389193L-16.27350300726776,169.82909968516128A170.6070045455344,170.6070045455344,0,0,0,-14.560608199809762,169.98452485109235Z" fill-rule="evenodd" style="fill: #414552; stroke: #fff; opacity: 1;" id="p-type-ether"></path><path d="M-18.791022683808453,196.1017528389193A197,197,0,0,1,-20.224012096114425,195.9591522096792L-17.514508241678865,169.70560391764369A170.6070045455344,170.6070045455344,0,0,0,-16.27350300726776,169.82909968516128Z" fill-rule="evenodd" style="fill: #414552; stroke: #fff; opacity: 1;" id="p-type-ether"></path></g></svg>