<svg xmlns="http://www.w3.org/2000/svg" width="400" height="400" id="block-7908319"><g id="burst-container" transform="translate(200,200)"><circle r="197" style="fill: #f9f9f9; stroke: #f9f9f9; stroke-width: 3; opacity: 1;" id="circle-base"></circle><path display="none" d="M6.031385485800715e-15,-98.5A98.5,98.5,0,1,1,-6.031385485800715e-15,98.5A98.5,98.5,0,1,1,6.031385485800715e-15,-98.5Z" fill-rule="evenodd" id="p-type-root" style="stroke: #fff; opacity: 1;"></path><path d="M8.529667153919608e-15,-139.30003589374985A139.30003589374985,139.30003589374985,0,1,1,-126.630265650512,-58.04546339965559L-89.54111954493098,-41.04434078701202A98.5,98.5,0,1,0,6.031385485800715e-15,-98.5Z" fill-rule="evenodd" style="fill: #0B1F65; stroke: #fff; opacity: 1;" id="p-type-data"></path><path d="M-126.630265650512,-58.04546339965559A139.30003589374985,139.30003589374985,0,0,1,-6.4850059005193845,-139.14900178754507L-4.58559164829203,-98.39320275931216A98.5,98.5,0,0,0,-89.54111954493098,-41.04434078701202Z" fill-rule="evenodd" style="fill: #D7A449; stroke: #fff; opacity: 1;" id="p-type-value"></path><path d="M1.0446666101440332e-14,-170.6070045455344A170.6070045455344,170.6070045455344,0,0,1,169.72281414253936,17.346940927351934L138.57809745281529,14.163717956738092A139.30003589374985,139.30003589374985,0,0,0,8.529667153919608e-15,-139.30003589374985Z" fill-rule="evenodd" style="fill: #414552; stroke: #fff; opacity: 1;" id="p-type-ether"></path><path d="M169.72281414253936,17.346940927351934A170.6070045455344,170.6070045455344,0,0,1,-11.575746856389038,170.21384222417635L-9.451557729926522,138.9790202026114A139.30003589374985,139.30003589374985,0,0,0,138.57809745281529,14.163717956738092Z" fill-rule="evenodd" style="fill: #1DC690; stroke: #fff; opacity: 1;" id="p-type-logs"></path><path d="M-11.575746856389038,170.21384222417635A170.6070045455344,170.6070045455344,0,0,1,-72.7409548350678,154.3227251239513L-59.39274091625099,126.0039774231555A139.30003589374985,139.30003589374985,0,0,0,-9.451557729926522,138.9790202026114Z" fill-rule="evenodd" style="fill: #D7A449; stroke: #fff; opacity: 1;" id="p-type-tokenTransfers"></path><path d="M-155.08976841841908,-71.09088360627638A170.6070045455344,170.6070045455344,0,0,1,-47.0541484728182,-163.98980795006128L-38.419551346521644,-133.89711749821944A139.30003589374985,139.30003589374985,0,0,0,-126.630265650512,-58.04546339965559Z" fill-rule="evenodd" style="fill: #414552; stroke: #fff; opacity: 1;" id="p-type-ether"></path><path d="M-47.0541484728182,-163.98980795006128A170.6070045455344,170.6070045455344,0,0,1,-15.86773239552572,-169.86749267774567L-12.955949248022865,-138.69622698214488A139.30003589374985,139.30003589374985,0,0,0,-38.419551346521644,-133.89711749821944Z" fill-rule="evenodd" style="fill: #D7A449; stroke: #fff; opacity: 1;" id="p-type-tokenTransfers"></path><path d="M1.206277097160143e-14,-197A197,197,0,0,1,73.43663589144568,-182.80060314163964L63.59799225046004,-158.3099661477774A170.6070045455344,170.6070045455344,0,0,0,1.0446666101440332e-14,-170.6070045455344Z" fill-rule="evenodd" style="fill: #414552; stroke: #fff; opacity: 1;" id="p-type-ether"></path><path d="M73.43663589144568,-182.80060314163964A197,197,0,0,1,124.59225565352307,-152.59675563774988L107.90005851075632,-132.15266691737764A170.6070045455344,170.6070045455344,0,0,0,63.59799225046004,-158.3099661477774Z" fill-rule="evenodd" style="fill: #414552; stroke: #fff; opacity: 1;" id="p-type-ether"></path><path d="M124.59225565352307,-152.59675563774988A197,197,0,0,1,132.30172576981678,-145.9631917927537L114.57665548118365,-126.40783210998498A170.6070045455344,170.6070045455344,0,0,0,107.90005851075632,-132.15266691737764Z" fill-rule="evenodd" style="fill: #414552; stroke: #fff; opacity: 1;" id="p-type-ether"></path><path d="M132.30172576981678,-145.9631917927537A197,197,0,0,1,135.25743039833972,-143.22858486363077L117.13637077556777,-124.03959303999957A170.6070045455344,170.6070045455344,0,0,0,114.57665548118365,-126.40783210998498Z" fill-rule="evenodd" style="fill: #414552; stroke: #fff; opacity: 1;" id="p-type-ether"></path><path d="M135.25743039833972,-143.22858486363077A197,197,0,0,1,136.91683597445163,-141.64314323942799L118.57345815966221,-122.66656031722269A170.6070045455344,170.6070045455344,0,0,0,117.13637077556777,-124.03959303999957Z" fill-rule="evenodd" style="fill: #414552; stroke: #fff; opacity: 1;" id="p-type-ether"></path><path d="M136.91683597445163,-141.64314323942799A197,197,0,0,1,137.91645180546533,-140.67001216105285L119.43915086334518,-121.8238040821377A170.6070045455344,170.6070045455344,0,0,0,118.57345815966221,-122.66656031722269Z" fill-rule="evenodd" style="fill: #414552; stroke: #fff; opacity: 1;" id="p-type-ether"></path><path d="M195.97902486563186,20.030522028046352A197,197,0,0,1,195.45951659075484,24.588155158702563L169.27290677901965,21.293966999629813A170.6070045455344,170.6070045455344,0,0,0,169.72281414253936,17.346940927351934Z" fill-rule="evenodd" style="fill: #1DC690; stroke: #fff; opacity: 1;" id="p-type-logs"></path><path d="M195.45951659075484,24.588155158702563A197,197,0,0,1,194.8340318340473,29.132456801468734L168.73122109003097,25.229447664724674A170.6070045455344,170.6070045455344,0,0,0,169.27290677901965,21.293966999629813Z" fill-rule="evenodd" style="fill: #1DC690; stroke: #fff; opacity: 1;" id="p-type-logs"></path><path d="M194.8340318340473,29.132456801468734A197,197,0,0,1,194.10290972800638,33.660963074775545L168.09805077293117,29.151249138605568A170.6070045455344,170.6070045455344,0,0,0,168.73122109003097,25.229447664724674Z" fill-rule="evenodd" style="fill: #1DC690; stroke: #fff; opacity: 1;" id="p-type-logs"></path><path d="M194.10290972800638,33.660963074775545A197,197,0,0,1,193.26654668079857,38.17121866116818L167.37373912726264,33.05724505398228A170.6070045455344,170.6070045455344,0,0,0,168.09805077293117,29.151249138605568Z" fill-rule="evenodd" style="fill: #1DC690; stroke: #fff; opacity: 1;" id="p-type-logs"></path><path d="M193.26654668079857,38.17121866116818A197,197,0,0,1,192.32539616133042,42.66077813855855L166.55867886861827,36.94531761320352A170.6070045455344,170.6070045455344,0,0,0,167.37373912726264,33.05724505398228Z" fill-rule="evenodd" style="fill: #1DC690; stroke: #fff; opacity: 1;" id="p-type-logs"></path><path d="M192.32539616133042,42.66077813855855A197,197,0,0,1,191.27996845338177,47.12720730611221L165.65331191571462,40.813358736508775A170.6070045455344,170.6070045455344,0,0,0,166.55867886861827,36.94531761320352Z" fill-rule="evenodd" style="fill: #1DC690; stroke: #fff; opacity: 1;" id="p-type-logs"></path><path d="M191.27996845338177,47.12720730611221A197,197,0,0,1,190.13083037893412,51.568084504051335L164.65812915078703,44.65927120501111A170.6070045455344,170.6070045455344,0,0,0,165.65331191571462,40.813358736508775Z" fill-rule="evenodd" style="fill: #1DC690; stroke: #fff; opacity: 1;" id="p-type-logs"></path><path d="M190.13083037893412,51.568084504051335A197,197,0,0,1,188.87860499084465,55.98100192665793L163.57367015343772,48.48096979779137A170.6070045455344,170.6070045455344,0,0,0,164.65812915078703,44.65927120501111Z" fill-rule="evenodd" style="fill: #1DC690; stroke: #fff; opacity: 1;" id="p-type-logs"></path><path d="M188.87860499084465,55.98100192665793A197,197,0,0,1,187.52397123503212,60.36356692776563L162.40052290808015,52.27638242248722A170.6070045455344,170.6070045455344,0,0,0,163.57367015343772,48.48096979779137Z" fill-rule="evenodd" style="fill: #1DC690; stroke: #fff; opacity: 1;" id="p-type-logs"></path><path d="M187.52397123503212,60.36356692776563A197,197,0,0,1,186.06766358235848,64.71340331803194L161.13932348513907,56.043451238763836A170.6070045455344,170.6070045455344,0,0,0,162.40052290808015,52.27638242248722Z" fill-rule="evenodd" style="fill: #1DC690; stroke: #fff; opacity: 1;" id="p-type-logs"></path><path d="M186.06766358235848,64.71340331803194A197,197,0,0,1,184.51047163040474,69.02815265328785L159.79075569617845,59.78013377405747A170.6070045455344,170.6070045455344,0,0,0,161.13932348513907,56.043451238763836Z" fill-rule="evenodd" style="fill: #1DC690; stroke: #fff; opacity: 1;" id="p-type-logs"></path><path d="M184.51047163040474,69.02815265328785A197,197,0,0,1,182.85323967535805,73.30547551326615L158.3555507231447,63.484404030986596A170.6070045455344,170.6070045455344,0,0,0,159.79075569617845,59.78013377405747Z" fill-rule="evenodd" style="fill: #1DC690; stroke: #fff; opacity: 1;" id="p-type-logs"></path><path d="M182.85323967535805,73.30547551326615A197,197,0,0,1,181.09686625424155,77.54305277001514L156.834486721926,67.15425358583039A170.6070045455344,170.6070045455344,0,0,0,158.3555507231447,63.484404030986596Z" fill-rule="evenodd" style="fill: #1DC690; stroke: #fff; opacity: 1;" id="p-type-logs"></path><path d="M181.09686625424155,77.54305277001514A197,197,0,0,1,179.2423036577351,81.73858684530998L155.228388400443,70.78769267747899A170.6070045455344,170.6070045455344,0,0,0,156.834486721926,67.15425358583039Z" fill-rule="evenodd" style="fill: #1DC690; stroke: #fff; opacity: 1;" id="p-type-logs"></path><path d="M179.2423036577351,81.73858684530998A197,197,0,0,1,177.29055741385162,85.88980295638002L153.53812657149905,74.38275128626488A170.6070045455344,170.6070045455344,0,0,0,155.228388400443,70.78769267747899Z" fill-rule="evenodd" style="fill: #1DC690; stroke: #fff; opacity: 1;" id="p-type-logs"></path><path d="M177.29055741385162,85.88980295638002A197,197,0,0,1,175.24268574274817,89.9944503492766L151.76461768063297,77.93748020209088A170.6070045455344,170.6070045455344,0,0,0,153.53812657149905,74.38275128626488Z" fill-rule="evenodd" style="fill: #1DC690; stroke: #fff; opacity: 1;" id="p-type-logs"></path><path d="M175.24268574274817,89.9944503492766A197,197,0,0,1,173.09979898296814,94.05030351921266L149.90882330923014,81.44995208127516A170.6070045455344,170.6070045455344,0,0,0,151.76461768063297,77.93748020209088Z" fill-rule="evenodd" style="fill: #1DC690; stroke: #fff; opacity: 1;" id="p-type-logs"></path><path d="M173.09979898296814,94.05030351921266A197,197,0,0,1,170.86305898942516,98.05516341721237L147.97174965316128,84.91826249154045A170.6070045455344,170.6070045455344,0,0,0,149.90882330923014,81.44995208127516Z" fill-rule="evenodd" style="fill: #1DC690; stroke: #fff; opacity: 1;" id="p-type-logs"></path><path d="M170.86305898942516,98.05516341721237A197,197,0,0,1,168.5336785034552,102.00685864241677L145.95444697723156,88.34053094458113A170.6070045455344,170.6070045455344,0,0,0,147.97174965316128,84.91826249154045Z" fill-rule="evenodd" style="fill: #1DC690; stroke: #fff; opacity: 1;" id="p-type-logs"></path><path d="M168.5336785034552,102.00685864241677A197,197,0,0,1,166.11292049527873,105.90324661939881L143.8580090457361,91.71490191564784A170.6070045455344,170.6070045455344,0,0,0,145.95444697723156,88.34053094458113Z" fill-rule="evenodd" style="fill: #1DC690; stroke: #fff; opacity: 1;" id="p-type-logs"></path><path d="M166.11292049527873,105.90324661939881A197,197,0,0,1,163.6020974792288,109.74221475984942L141.68357252943022,95.03954584959718A170.6070045455344,170.6070045455344,0,0,0,143.8580090457361,91.71490191564784Z" fill-rule="evenodd" style="fill: #1DC690; stroke: #fff; opacity: 1;" id="p-type-logs"></path><path d="M163.6020974792288,109.74221475984942A197,197,0,0,1,161.00257080211725,113.52168160800485L139.43231638923623,98.31266015286089A170.6070045455344,170.6070045455344,0,0,0,141.68357252943022,95.03954584959718Z" fill-rule="evenodd" style="fill: #1DC690; stroke: #fff; opacity: 1;" id="p-type-logs"></path><path d="M161.00257080211725,113.52168160800485A197,197,0,0,1,158.31574990512377,117.23959796919429L137.10546123702102,101.53247017079674A170.6070045455344,170.6070045455344,0,0,0,139.43231638923623,98.31266015286089Z" fill-rule="evenodd" style="fill: #1DC690; stroke: #fff; opacity: 1;" id="p-type-logs"></path><path d="M158.31574990512377,117.23959796919429A197,197,0,0,1,155.54309155960925,120.89394802089562L134.7042686737905,104.69723014989106A170.6070045455344,170.6070045455344,0,0,0,137.10546123702102,101.53247017079674Z" fill-rule="evenodd" style="fill: #1DC690; stroke: #fff; opacity: 1;" id="p-type-logs"></path><path d="M155.54309155960925,120.89394802089562A197,197,0,0,1,152.68609907726656,124.4827504056973L132.23004060566058,107.8052241842915A170.6070045455344,170.6070045455344,0,0,0,134.7042686737905,104.69723014989106Z" fill-rule="evenodd" style="fill: #1DC690; stroke: #fff; opacity: 1;" id="p-type-logs"></path><path d="M152.68609907726656,124.4827504056973A197,197,0,0,1,149.7463214950379,128.0040593055734L129.68411853797454,110.85476714615643A170.6070045455344,170.6070045455344,0,0,0,132.23004060566058,107.8052241842915Z" fill-rule="evenodd" style="fill: #1DC690; stroke: #fff; opacity: 1;" id="p-type-logs"></path><path d="M149.7463214950379,128.0040593055734A197,197,0,0,1,146.72535273524002,131.45596549688946L127.06788284795043,113.84420559931692A170.6070045455344,170.6070045455344,0,0,0,129.68411853797454,110.85476714615643Z" fill-rule="evenodd" style="fill: #1DC690; stroke: #fff; opacity: 1;" id="p-type-logs"></path><path d="M146.72535273524002,131.45596549688946A197,197,0,0,1,143.62483074135338,134.83659738556736L124.38275203625221,116.77191869575576A170.6070045455344,170.6070045455344,0,0,0,127.06788284795043,113.84420559931692Z" fill-rule="evenodd" style="fill: #1DC690; stroke: #fff; opacity: 1;" id="p-type-logs"></path><path d="M143.62483074135338,134.83659738556736A197,197,0,0,1,140.44643658994298,138.1441220218476L121.63018195789093,119.63631905441734A170.6070045455344,170.6070045455344,0,0,0,124.38275203625221,116.77191869575576Z" fill-rule="evenodd" style="fill: #1DC690; stroke: #fff; opacity: 1;" id="p-type-logs"></path><path d="M140.44643658994298,138.1441220218476A197,197,0,0,1,137.19189357919305,141.3767460940991L118.8116650328724,122.43585362187224A170.6070045455344,170.6070045455344,0,0,0,121.63018195789093,119.63631905441734Z" fill-rule="evenodd" style="fill: #1DC690; stroke: #fff; opacity: 1;" id="p-type-logs"></path><path d="M137.19189357919305,141.3767460940991A197,197,0,0,1,133.86296629454958,144.53271690113726L115.92872943702,125.16900451436935A170.6070045455344,170.6070045455344,0,0,0,118.8116650328724,122.43585362187224Z" fill-rule="evenodd" style="fill: #1DC690; stroke: #fff; opacity: 1;" id="p-type-logs"></path><path d="M133.86296629454958,144.53271690113726A197,197,0,0,1,130.46145965197698,147.61032330252377L112.9829382734106,127.83428984081966A170.6070045455344,170.6070045455344,0,0,0,115.92872943702,125.16900451436935Z" fill-rule="evenodd" style="fill: #1DC690; stroke: #fff; opacity: 1;" id="p-type-logs"></path><path d="M130.46145965197698,147.61032330252377A197,197,0,0,1,126.98921791934814,150.6078966463323L109.97588872487354,130.43026450626493A170.6070045455344,170.6070045455344,0,0,0,112.9829382734106,127.83428984081966Z" fill-rule="evenodd" style="fill: #1DC690; stroke: #fff; opacity: 1;" id="p-type-logs"></path><path d="M-13.36652112721435,196.5460152558574A197,197,0,0,1,-17.93916231944185,196.18151405083182L-15.535770291249213,169.89817492091413A170.6070045455344,170.6070045455344,0,0,0,-11.575746856389038,170.21384222417635Z" fill-rule="evenodd" style="fill: #D7A449; stroke: #fff; opacity: 1;" id="p-type-tokenTransfers"></path><path d="M-17.93916231944185,196.18151405083182A197,197,0,0,1,-22.50207705095379,195.7106449031144L-19.487370364040807,169.49039027713252A170.6070045455344,170.6070045455344,0,0,0,-15.535770291249213,169.89817492091413Z" fill-rule="evenodd" style="fill: #D7A449; stroke: #fff; opacity: 1;" id="p-type-tokenTransfers"></path><path d="M-22.50207705095379,195.7106449031144A197,197,0,0,1,-27.052791348322977,195.13366311393864L-23.428404550927574,168.99070939018532A170.6070045455344,170.6070045455344,0,0,0,-19.487370364040807,169.49039027713252Z" fill-rule="evenodd" style="fill: #D7A449; stroke: #fff; opacity: 1;" id="p-type-tokenTransfers"></path><path d="M-27.052791348322977,195.13366311393864A197,197,0,0,1,-31.588837853093498,194.45088151790665L-27.356736056806454,168.39940318278514A170.6070045455344,170.6070045455344,0,0,0,-23.428404550927574,168.99070939018532Z" fill-rule="evenodd" style="fill: #D7A449; stroke: #fff; opacity: 1;" id="p-type-tokenTransfers"></path><path d="M-31.588837853093498,194.45088151790665A197,197,0,0,1,-36.10775715956138,193.66267031337284L-31.2702349738596,167.71679225611132A170.6070045455344,170.6070045455344,0,0,0,-27.356736056806454,168.39940318278514Z" fill-rule="evenodd" style="fill: #D7A449; stroke: #fff; opacity: 1;" id="p-type-tokenTransfers"></path><path d="M-36.10775715956138,193.66267031337284A197,197,0,0,1,-40.607099148243435,192.7694568617257L-35.16677943637226,166.94324671598292A170.6070045455344,170.6070045455344,0,0,0,-31.2702349738596,167.71679225611132Z" fill-rule="evenodd" style="fill: #D7A449; stroke: #fff; opacity: 1;" id="p-type-tokenTransfers"></path><path d="M-40.607099148243435,192.7694568617257A197,197,0,0,1,-45.0844243143111,191.77172545567595L-39.044256771190234,166.0791859721903A170.6070045455344,170.6070045455344,0,0,0,-35.16677943637226,166.94324671598292Z" fill-rule="evenodd" style="fill: #D7A449; stroke: #fff; opacity: 1;" id="p-type-tokenTransfers"></path><path d="M-45.0844243143111,191.77172545567595A197,197,0,0,1,-49.53730509026912,190.67001705667727L-42.90056464319325,165.12507851109473A170.6070045455344,170.6070045455344,0,0,0,-39.044256771190234,166.0791859721903Z" fill-rule="evenodd" style="fill: #D7A449; stroke: #fff; opacity: 1;" id="p-type-tokenTransfers"></path></g></svg>