<svg xmlns="http://www.w3.org/2000/svg" width="400" height="400" id="block-7908334"><g id="burst-container" transform="translate(200,200)"><circle r="197" style="fill: #f9f9f9; stroke: #f9f9f9; stroke-width: 3; opacity: 1;" id="circle-base"></circle><path display="none" d="M6.031385485800715e-15,-98.5A98.5,98.5,0,1,1,-6.031385485800715e-15,98.5A98.5,98.5,0,1,1,6.031385485800715e-15,-98.5Z" fill-rule="evenodd" id="p-type-root" style="stroke: #fff; opacity: 1;"></path><path d="M8.529667153919608e-15,-139.30003589374985A139.30003589374985,139.30003589374985,0,1,1,-122.79172065574089,-65.77760514341101L-86.82685834923865,-46.51179064711705A98.5,98.5,0,1,0,6.031385485800715e-15,-98.5Z" fill-rule="evenodd" style="fill: #0B1F65; stroke: #fff; opacity: 1;" id="p-type-data"></path><path d="M-122.79172065574089,-65.77760514341101A139.30003589374985,139.30003589374985,0,0,1,-7.511664140525354,-139.09735763787873L-5.3115486517612975,-98.35668483087447A98.5,98.5,0,0,0,-86.82685834923865,-46.51179064711705Z" fill-rule="evenodd" style="fill: #D7A449; stroke: #fff; opacity: 1;" id="p-type-value"></path><path d="M1.0446666101440332e-14,-170.6070045455344A170.6070045455344,170.6070045455344,0,0,1,128.25764146304715,112.502121785931L104.72192573243215,91.85759778532729A139.30003589374985,139.30003589374985,0,0,0,8.529667153919608e-15,-139.30003589374985Z" fill-rule="evenodd" style="fill: #414552; stroke: #fff; opacity: 1;" id="p-type-ether"></path><path d="M128.25764146304715,112.502121785931A170.6070045455344,170.6070045455344,0,0,1,-29.588821823112465,168.02158082555974L-24.15917185225101,137.18904626614108A139.30003589374985,139.30003589374985,0,0,0,104.72192573243215,91.85759778532729Z" fill-rule="evenodd" style="fill: #1DC690; stroke: #fff; opacity: 1;" id="p-type-logs"></path><path d="M-29.588821823112465,168.02158082555974A170.6070045455344,170.6070045455344,0,0,1,-124.93864359406908,116.17695699610218L-102.01197532030514,94.85808816990489A139.30003589374985,139.30003589374985,0,0,0,-24.15917185225101,137.18904626614108Z" fill-rule="evenodd" style="fill: #D7A449; stroke: #fff; opacity: 1;" id="p-type-tokenTransfers"></path><path d="M-150.38853012246733,-80.56078455181364A170.6070045455344,170.6070045455344,0,0,1,-71.36975375165515,-154.9616347662482L-58.27315991988018,-126.5256449616127A139.30003589374985,139.30003589374985,0,0,0,-122.79172065574089,-65.77760514341101Z" fill-rule="evenodd" style="fill: #414552; stroke: #fff; opacity: 1;" id="p-type-ether"></path><path d="M-71.36975375165515,-154.9616347662482A170.6070045455344,170.6070045455344,0,0,1,-18.372973070951605,-169.6148102629428L-15.001469693909167,-138.48991265439776A139.30003589374985,139.30003589374985,0,0,0,-58.27315991988018,-126.5256449616127Z" fill-rule="evenodd" style="fill: #D7A449; stroke: #fff; opacity: 1;" id="p-type-tokenTransfers"></path><path d="M1.206277097160143e-14,-197A197,197,0,0,1,123.00927416397431,-153.8756591201227L106.52915632708657,-133.2602298221009A170.6070045455344,170.6070045455344,0,0,0,1.0446666101440332e-14,-170.6070045455344Z" fill-rule="evenodd" style="fill: #414552; stroke: #fff; opacity: 1;" id="p-type-ether"></path><path d="M123.00927416397431,-153.8756591201227A197,197,0,0,1,170.24391051476874,-99.1262373574192L147.43555134539443,-85.84583973309107A170.6070045455344,170.6070045455344,0,0,0,106.52915632708657,-133.2602298221009Z" fill-rule="evenodd" style="fill: #414552; stroke: #fff; opacity: 1;" id="p-type-ether"></path><path d="M170.24391051476874,-99.1262373574192A197,197,0,0,1,188.39020747317326,-57.60320935689901L163.15070549598903,-49.88584264258802A170.6070045455344,170.6070045455344,0,0,0,147.43555134539443,-85.84583973309107Z" fill-rule="evenodd" style="fill: #414552; stroke: #fff; opacity: 1;" id="p-type-ether"></path><path d="M188.39020747317326,-57.60320935689901A197,197,0,0,1,196.4501160650664,-14.708905398497153L170.13079108874896,-12.738285736960606A170.6070045455344,170.6070045455344,0,0,0,163.15070549598903,-49.88584264258802Z" fill-rule="evenodd" style="fill: #414552; stroke: #fff; opacity: 1;" id="p-type-ether"></path><path d="M196.4501160650664,-14.708905398497153A197,197,0,0,1,196.97990738906574,-2.813553801703205L170.589603834037,-2.43660906718926A170.6070045455344,170.6070045455344,0,0,0,170.13079108874896,-12.738285736960606Z" fill-rule="evenodd" style="fill: #414552; stroke: #fff; opacity: 1;" id="p-type-ether"></path><path d="M196.97990738906574,-2.813553801703205A197,197,0,0,1,196.99958154063052,0.4060453379488617L170.60664214909,0.3516455777519518A170.6070045455344,170.6070045455344,0,0,0,170.589603834037,-2.43660906718926Z" fill-rule="evenodd" style="fill: #414552; stroke: #fff; opacity: 1;" id="p-type-ether"></path><path d="M196.99958154063052,0.4060453379488617A197,197,0,0,1,196.96718348361074,3.5956404900400027L170.5785846086776,3.11391600725057A170.6070045455344,170.6070045455344,0,0,0,170.60664214909,0.3516455777519518Z" fill-rule="evenodd" style="fill: #414552; stroke: #fff; opacity: 1;" id="p-type-ether"></path><path d="M196.96718348361074,3.5956404900400027A197,197,0,0,1,196.91169159028289,5.897941594600272L170.5305272193516,5.107767250960737A170.6070045455344,170.6070045455344,0,0,0,170.5785846086776,3.11391600725057Z" fill-rule="evenodd" style="fill: #414552; stroke: #fff; opacity: 1;" id="p-type-ether"></path><path d="M196.91169159028289,5.897941594600272A197,197,0,0,1,196.8766374765079,6.970625218994501L170.5001694663153,6.0367385199097034A170.6070045455344,170.6070045455344,0,0,0,170.5305272193516,5.107767250960737Z" fill-rule="evenodd" style="fill: #414552; stroke: #fff; opacity: 1;" id="p-type-ether"></path><path d="M196.8766374765079,6.970625218994501A197,197,0,0,1,196.8359723647007,8.037411476513356L170.4649524464425,6.96060251932916A170.6070045455344,170.6070045455344,0,0,0,170.5001694663153,6.0367385199097034Z" fill-rule="evenodd" style="fill: #414552; stroke: #fff; opacity: 1;" id="p-type-ether"></path><path d="M196.8359723647007,8.037411476513356A197,197,0,0,1,196.78971944066492,9.099797935360028L170.42489623922825,7.8806561813269695A170.6070045455344,170.6070045455344,0,0,0,170.4649524464425,6.96060251932916Z" fill-rule="evenodd" style="fill: #414552; stroke: #fff; opacity: 1;" id="p-type-ether"></path><path d="M196.78971944066492,9.099797935360028A197,197,0,0,1,196.7377402476612,10.161769641346185L170.37988093761882,8.80035065681128A170.6070045455344,170.6070045455344,0,0,0,170.42489623922825,7.8806561813269695Z" fill-rule="evenodd" style="fill: #414552; stroke: #fff; opacity: 1;" id="p-type-ether"></path><path d="M196.7377402476612,10.161769641346185A197,197,0,0,1,196.68010923902375,11.22205995910213L170.32997102009304,9.718589007374604A170.6070045455344,170.6070045455344,0,0,0,170.37988093761882,8.80035065681128Z" fill-rule="evenodd" style="fill: #414552; stroke: #fff; opacity: 1;" id="p-type-ether"></path><path d="M196.68010923902375,11.22205995910213A197,197,0,0,1,196.61679358337585,12.281550431121204L170.2751380538447,10.636134671210687A170.6070045455344,170.6070045455344,0,0,0,170.32997102009304,9.718589007374604Z" fill-rule="evenodd" style="fill: #414552; stroke: #fff; opacity: 1;" id="p-type-ether"></path><path d="M196.61679358337585,12.281550431121204A197,197,0,0,1,196.54777748498367,13.340583409781694L170.21536835936698,11.553284134176174A170.6070045455344,170.6070045455344,0,0,0,170.2751380538447,10.636134671210687Z" fill-rule="evenodd" style="fill: #414552; stroke: #fff; opacity: 1;" id="p-type-ether"></path><path d="M148.09916764863357,129.90626059502264A197,197,0,0,1,144.54145747379943,133.8535284232352L125.17657407233841,115.92055600070408A170.6070045455344,170.6070045455344,0,0,0,128.25764146304715,112.502121785931Z" fill-rule="evenodd" style="fill: #1DC690; stroke: #fff; opacity: 1;" id="p-type-logs"></path><path d="M144.54145747379943,133.8535284232352A197,197,0,0,1,140.87857596764113,137.7034016766818L122.00442563695312,119.25464403953909A170.6070045455344,170.6070045455344,0,0,0,125.17657407233841,115.92055600070408Z" fill-rule="evenodd" style="fill: #1DC690; stroke: #fff; opacity: 1;" id="p-type-logs"></path><path d="M140.87857596764113,137.7034016766818A197,197,0,0,1,137.113188317927,141.45307910856053L118.74350427720452,122.50195995154327A170.6070045455344,170.6070045455344,0,0,0,122.00442563695312,119.25464403953909Z" fill-rule="evenodd" style="fill: #1DC690; stroke: #fff; opacity: 1;" id="p-type-logs"></path><path d="M137.113188317927,141.45307910856053A197,197,0,0,1,133.24803429799962,145.09983237660583L115.39618270640786,125.66014092300443A170.6070045455344,170.6070045455344,0,0,0,118.74350427720452,122.50195995154327Z" fill-rule="evenodd" style="fill: #1DC690; stroke: #fff; opacity: 1;" id="p-type-logs"></path><path d="M133.24803429799962,145.09983237660583A197,197,0,0,1,129.28592627326023,148.64100802828648L111.96489650444535,128.72688899662276A170.6070045455344,170.6070045455344,0,0,0,115.39618270640786,125.66014092300443Z" fill-rule="evenodd" style="fill: #1DC690; stroke: #fff; opacity: 1;" id="p-type-logs"></path><path d="M129.28592627326023,148.64100802828648A197,197,0,0,1,125.22974715483404,152.07402943151186L108.45214234558831,131.69997274355165A170.6070045455344,170.6070045455344,0,0,0,111.96489650444535,128.72688899662276Z" fill-rule="evenodd" style="fill: #1DC690; stroke: #fff; opacity: 1;" id="p-type-logs"></path><path d="M125.22974715483404,152.07402943151186A197,197,0,0,1,121.08244830190503,155.39639864944263L104.86047618186572,134.57722888703114A170.6070045455344,170.6070045455344,0,0,0,108.45214234558831,131.69997274355165Z" fill-rule="evenodd" style="fill: #1DC690; stroke: #fff; opacity: 1;" id="p-type-logs"></path><path d="M121.08244830190503,155.39639864944263A197,197,0,0,1,116.84704737424629,158.60569825804066L101.19251138330107,137.3565638764325A170.6070045455344,170.6070045455344,0,0,0,104.86047618186572,134.57722888703114Z" fill-rule="evenodd" style="fill: #1DC690; stroke: #fff; opacity: 1;" id="p-type-logs"></path><path d="M116.84704737424629,158.60569825804066A197,197,0,0,1,112.52662613650885,161.69959310503648L97.45091683637064,140.03595541056865A170.6070045455344,170.6070045455344,0,0,0,101.19251138330107,137.3565638764325Z" fill-rule="evenodd" style="fill: #1DC690; stroke: #fff; opacity: 1;" id="p-type-logs"></path><path d="M112.52662613650885,161.69959310503648A197,197,0,0,1,108.12432821586648,164.67583200903397L93.63841500206694,142.61345390916202A170.6070045455344,170.6070045455344,0,0,0,97.45091683637064,140.03595541056865Z" fill-rule="evenodd" style="fill: #1DC690; stroke: #fff; opacity: 1;" id="p-type-logs"></path><path d="M108.12432821586648,164.67583200903397A197,197,0,0,1,103.6433568146481,167.5322493975161L89.75777993498028,145.08718393139915A170.6070045455344,170.6070045455344,0,0,0,93.63841500206694,142.61345390916202Z" fill-rule="evenodd" style="fill: #1DC690; stroke: #fff; opacity: 1;" id="p-type-logs"></path><path d="M103.6433568146481,167.5322493975161A197,197,0,0,1,99.08697237962188,170.26676688256003L85.81183526483956,147.45534554053995A170.6070045455344,170.6070045455344,0,0,0,89.75777993498028,145.08718393139915Z" fill-rule="evenodd" style="fill: #1DC690; stroke: #fff; opacity: 1;" id="p-type-logs"></path><path d="M99.08697237962188,170.26676688256003A197,197,0,0,1,94.4584902296274,172.87739477311482L81.80345214198152,149.71621561358856A170.6070045455344,170.6070045455344,0,0,0,85.81183526483956,147.45534554053995Z" fill-rule="evenodd" style="fill: #1DC690; stroke: #fff; opacity: 1;" id="p-type-logs"></path><path d="M94.4584902296274,172.87739477311482A197,197,0,0,1,89.76127814328143,175.36223352274135L77.73554714824262,151.8681490950731A170.6070045455344,170.6070045455344,0,0,0,81.80345214198152,149.71621561358856Z" fill-rule="evenodd" style="fill: #1DC690; stroke: #fff; opacity: 1;" id="p-type-logs"></path><path d="M89.76127814328143,175.36223352274135A197,197,0,0,1,84.99875390851328,177.71947511176145L73.61108017479434,153.90958019402171A170.6070045455344,170.6070045455344,0,0,0,77.73554714824262,151.8681490950731Z" fill-rule="evenodd" style="fill: #1DC690; stroke: #fff; opacity: 1;" id="p-type-logs"></path><path d="M84.99875390851328,177.71947511176145A197,197,0,0,1,80.17438283571198,179.94740436281012L69.43305226846563,155.83902352326427A170.6070045455344,170.6070045455344,0,0,0,73.61108017479434,153.90958019402171Z" fill-rule="evenodd" style="fill: #1DC690; stroke: #fff; opacity: 1;" id="p-type-logs"></path><path d="M80.17438283571198,179.94740436281012A197,197,0,0,1,75.29167523629543,182.04440018883366L65.20450344811958,157.6550751802306A170.6070045455344,170.6070045455344,0,0,0,69.43305226846563,155.83902352326427Z" fill-rule="evenodd" style="fill: #1DC690; stroke: #fff; opacity: 1;" id="p-type-logs"></path><path d="M75.29167523629543,182.04440018883366A197,197,0,0,1,70.35418386853574,184.008936772626L60.9285104926733,159.35641376845865A170.6070045455344,170.6070045455344,0,0,0,65.20450344811958,157.6550751802306Z" fill-rule="evenodd" style="fill: #1DC690; stroke: #fff; opacity: 1;" id="p-type-logs"></path><path d="M70.35418386853574,184.008936772626A197,197,0,0,1,65.36550135249925,185.83958467704457L56.60818470237044,160.9418013590699A170.6070045455344,170.6070045455344,0,0,0,60.9285104926733,159.35641376845865Z" fill-rule="evenodd" style="fill: #1DC690; stroke: #fff; opacity: 1;" id="p-type-logs"></path><path d="M-34.16622848915571,194.01460983860676A197,197,0,0,1,-39.38675830618659,193.0224942076183L-34.10993326587534,167.1623834856321A170.6070045455344,170.6070045455344,0,0,0,-29.588821823112465,168.02158082555974Z" fill-rule="evenodd" style="fill: #D7A449; stroke: #fff; opacity: 1;" id="p-type-tokenTransfers"></path><path d="M-39.38675830618659,193.0224942076183A197,197,0,0,1,-44.57862950941904,191.8899314478536L-38.606225621051514,166.18155536429566A170.6070045455344,170.6070045455344,0,0,0,-34.10993326587534,167.1623834856321Z" fill-rule="evenodd" style="fill: #D7A449; stroke: #fff; opacity: 1;" id="p-type-tokenTransfers"></path><path d="M-44.57862950941904,191.8899314478536A197,197,0,0,1,-49.738064386796914,190.61774563522368L-43.074427294032205,165.07981013222403A170.6070045455344,170.6070045455344,0,0,0,-38.606225621051514,166.18155536429566Z" fill-rule="evenodd" style="fill: #D7A449; stroke: #fff; opacity: 1;" id="p-type-tokenTransfers"></path><path d="M-49.738064386796914,190.61774563522368A197,197,0,0,1,-54.86130882760061,189.20686243823883L-47.51128712956561,163.8579494418625A170.6070045455344,170.6070045455344,0,0,0,-43.074427294032205,165.07981013222403Z" fill-rule="evenodd" style="fill: #D7A449; stroke: #fff; opacity: 1;" id="p-type-tokenTransfers"></path><path d="M-54.86130882760061,189.20686243823883A197,197,0,0,1,-59.94463505401496,187.658308444473L-51.91357677736412,162.51686234412944A170.6070045455344,170.6070045455344,0,0,0,-47.51128712956561,163.8579494418625Z" fill-rule="evenodd" style="fill: #D7A449; stroke: #fff; opacity: 1;" id="p-type-tokenTransfers"></path><path d="M-59.94463505401496,187.658308444473A197,197,0,0,1,-64.984344333537,185.97321041359774L-56.27809304111837,161.05752464152434A170.6070045455344,170.6070045455344,0,0,0,-51.91357677736412,162.51686234412944Z" fill-rule="evenodd" style="fill: #D7A449; stroke: #fff; opacity: 1;" id="p-type-tokenTransfers"></path><path d="M-64.984344333537,185.97321041359774A197,197,0,0,1,-69.97676967024957,184.15279445752878L-60.60166020920854,159.4809981781141A170.6070045455344,170.6070045455344,0,0,0,-56.27809304111837,161.05752464152434Z" fill-rule="evenodd" style="fill: #D7A449; stroke: #fff; opacity: 1;" id="p-type-tokenTransfers"></path><path d="M-69.97676967024957,184.15279445752878A197,197,0,0,1,-74.91827847300287,182.1983851482817L-64.88113236541733,157.78843006691332A170.6070045455344,170.6070045455344,0,0,0,-60.60166020920854,159.4809981781141Z" fill-rule="evenodd" style="fill: #D7A449; stroke: #fff; opacity: 1;" id="p-type-tokenTransfers"></path><path d="M-74.91827847300287,182.1983851482817A197,197,0,0,1,-79.80527519856234,180.1114045541862L-69.1133956779632,155.9810518552215A170.6070045455344,170.6070045455344,0,0,0,-64.88113236541733,157.78843006691332Z" fill-rule="evenodd" style="fill: #D7A449; stroke: #fff; opacity: 1;" id="p-type-tokenTransfers"></path><path d="M-79.80527519856234,180.1114045541862A197,197,0,0,1,-84.63420396779969,177.89337120516007L-73.29537066518826,154.06017862852377A170.6070045455344,170.6070045455344,0,0,0,-69.1133956779632,155.9810518552215Z" fill-rule="evenodd" style="fill: #D7A449; stroke: #fff; opacity: 1;" id="p-type-tokenTransfers"></path><path d="M-84.63420396779969,177.89337120516007A197,197,0,0,1,-89.40155115302353,175.54589898779554L-77.42401443625235,152.02720805360792A170.6070045455344,170.6070045455344,0,0,0,-73.29537066518826,154.06017862852377Z" fill-rule="evenodd" style="fill: #D7A449; stroke: #fff; opacity: 1;" id="p-type-tokenTransfers"></path><path d="M-89.40155115302353,175.54589898779554A197,197,0,0,1,-94.10384793456707,173.0706959710623L-81.49632290520286,149.88361936159302A170.6070045455344,170.6070045455344,0,0,0,-77.42401443625235,152.02720805360792Z" fill-rule="evenodd" style="fill: #D7A449; stroke: #fff; opacity: 1;" id="p-type-tokenTransfers"></path></g></svg>