<svg xmlns="http://www.w3.org/2000/svg" width="400" height="400" id="block-7908368"><g id="burst-container" transform="translate(200,200)"><circle r="197" style="fill: #f9f9f9; stroke: #f9f9f9; stroke-width: 3; opacity: 1;" id="circle-base"></circle><path display="none" d="M6.031385485800715e-15,-98.5A98.5,98.5,0,1,1,-6.031385485800715e-15,98.5A98.5,98.5,0,1,1,6.031385485800715e-15,-98.5Z" fill-rule="evenodd" id="p-type-root" style="stroke: #fff; opacity: 1;"></path><path d="M8.529667153919608e-15,-139.30003589374985A139.30003589374985,139.30003589374985,0,1,1,-110.0862737226964,-85.35521271633947L-77.84275066487707,-60.355249721343874A98.5,98.5,0,1,0,6.031385485800715e-15,-98.5Z" fill-rule="evenodd" style="fill: #0B1F65; stroke: #fff; opacity: 1;" id="p-type-data"></path><path d="M-110.0862737226964,-85.35521271633947A139.30003589374985,139.30003589374985,0,0,1,-1.2032054709631346,-139.29483944710458L-0.8507947476787862,-98.49632555733905A98.5,98.5,0,0,0,-77.84275066487707,-60.355249721343874Z" fill-rule="evenodd" style="fill: #D7A449; stroke: #fff; opacity: 1;" id="p-type-value"></path><path d="M1.0446666101440332e-14,-170.6070045455344A170.6070045455344,170.6070045455344,0,0,1,168.27964705722013,28.083988076792522L137.3997564619447,22.930480243516115A139.30003589374985,139.30003589374985,0,0,0,8.529667153919608e-15,-139.30003589374985Z" fill-rule="evenodd" style="fill: #1DC690; stroke: #fff; opacity: 1;" id="p-type-logs"></path><path d="M168.27964705722013,28.083988076792522A170.6070045455344,170.6070045455344,0,0,1,-49.79469745179076,163.1785467078458L-40.65720021771771,133.23472546771134A139.30003589374985,139.30003589374985,0,0,0,137.3997564619447,22.930480243516115Z" fill-rule="evenodd" style="fill: #D7A449; stroke: #fff; opacity: 1;" id="p-type-tokenTransfers"></path><path d="M-49.79469745179076,163.1785467078458A170.6070045455344,170.6070045455344,0,0,1,-165.22951098837297,42.49657278585099L-134.90933079036668,34.69830638079358A139.30003589374985,139.30003589374985,0,0,0,-40.65720021771771,133.23472546771134Z" fill-rule="evenodd" style="fill: #414552; stroke: #fff; opacity: 1;" id="p-type-ether"></path><path d="M-134.8275991524831,-104.5383590208749A170.6070045455344,170.6070045455344,0,0,1,-10.309182290289765,-170.2952458540918L-8.417412092182257,-139.04548598811246A139.30003589374985,139.30003589374985,0,0,0,-110.0862737226964,-85.35521271633947Z" fill-rule="evenodd" style="fill: #D7A449; stroke: #fff; opacity: 1;" id="p-type-tokenTransfers"></path><path d="M-10.309182290289765,-170.2952458540918A170.6070045455344,170.6070045455344,0,0,1,-2.947129515803884,-170.5815477348505L-2.406321173205056,-139.2792504948651A139.30003589374985,139.30003589374985,0,0,0,-8.417412092182257,-139.04548598811246Z" fill-rule="evenodd" style="fill: #414552; stroke: #fff; opacity: 1;" id="p-type-ether"></path><path d="M-57.49796395601474,188.42235573549343A197,197,0,0,1,-180.6021628196153,78.68836499049374L-156.40606098020027,68.14612306402962A170.6070045455344,170.6070045455344,0,0,0,-49.79469745179076,163.1785467078458Z" fill-rule="evenodd" style="fill: #414552; stroke: #fff; opacity: 1;" id="p-type-ether"></path><path d="M-180.6021628196153,78.68836499049374A197,197,0,0,1,-187.77186115358907,59.58798669964667L-162.6152018748925,51.604710242263266A170.6070045455344,170.6070045455344,0,0,0,-156.40606098020027,68.14612306402962Z" fill-rule="evenodd" style="fill: #414552; stroke: #fff; opacity: 1;" id="p-type-ether"></path><path d="M-187.77186115358907,59.58798669964667A197,197,0,0,1,-188.0745033668062,58.6257723474003L-162.8772977197961,50.77140816933192A170.6070045455344,170.6070045455344,0,0,0,-162.6152018748925,51.604710242263266Z" fill-rule="evenodd" style="fill: #414552; stroke: #fff; opacity: 1;" id="p-type-ether"></path></g></svg>