<svg xmlns="http://www.w3.org/2000/svg" width="400" height="400" id="block-7908338"><g id="burst-container" transform="translate(200,200)"><circle r="197" style="fill: #f9f9f9; stroke: #f9f9f9; stroke-width: 3; opacity: 1;" id="circle-base"></circle><path display="none" d="M6.031385485800715e-15,-98.5A98.5,98.5,0,1,1,-6.031385485800715e-15,98.5A98.5,98.5,0,1,1,6.031385485800715e-15,-98.5Z" fill-rule="evenodd" id="p-type-root" style="stroke: #fff; opacity: 1;"></path><path d="M8.529667153919608e-15,-139.30003589374985A139.30003589374985,139.30003589374985,0,1,1,-123.32531285378288,-64.77165436760569L-87.20416501086237,-45.80047603200524A98.5,98.5,0,1,0,6.031385485800715e-15,-98.5Z" fill-rule="evenodd" style="fill: #0B1F65; stroke: #fff; opacity: 1;" id="p-type-data"></path><path d="M-123.32531285378288,-64.77165436760569A139.30003589374985,139.30003589374985,0,0,1,-10.087489250493434,-138.93431023552526L-7.132932054170311,-98.24139290701548A98.5,98.5,0,0,0,-87.20416501086237,-45.80047603200524Z" fill-rule="evenodd" style="fill: #D7A449; stroke: #fff; opacity: 1;" id="p-type-value"></path><path d="M1.0446666101440332e-14,-170.6070045455344A170.6070045455344,170.6070045455344,0,0,1,152.97754636426305,75.52893689421126L124.90564356513346,61.66911873522947A139.30003589374985,139.30003589374985,0,0,0,8.529667153919608e-15,-139.30003589374985Z" fill-rule="evenodd" style="fill: #1DC690; stroke: #fff; opacity: 1;" id="p-type-logs"></path><path d="M152.97754636426305,75.52893689421126A170.6070045455344,170.6070045455344,0,0,1,-38.687403233173164,166.1626758061926L-31.588132464858138,135.67125667355842A139.30003589374985,139.30003589374985,0,0,0,124.90564356513346,61.66911873522947Z" fill-rule="evenodd" style="fill: #D7A449; stroke: #fff; opacity: 1;" id="p-type-tokenTransfers"></path><path d="M-38.687403233173164,166.1626758061926A170.6070045455344,170.6070045455344,0,0,1,-116.26560776104185,124.85615103772646L-94.93047121637476,101.9446204300994A139.30003589374985,139.30003589374985,0,0,0,-31.588132464858138,135.67125667355842Z" fill-rule="evenodd" style="fill: #414552; stroke: #fff; opacity: 1;" id="p-type-ether"></path><path d="M-151.0420444304338,-79.32875149827369A170.6070045455344,170.6070045455344,0,0,1,-66.22285678559805,-157.23003287907233L-54.07073614470727,-128.3777842649165A139.30003589374985,139.30003589374985,0,0,0,-123.32531285378288,-64.77165436760569Z" fill-rule="evenodd" style="fill: #D7A449; stroke: #fff; opacity: 1;" id="p-type-tokenTransfers"></path><path d="M-66.22285678559805,-157.23003287907233A170.6070045455344,170.6070045455344,0,0,1,-24.64432860934835,-168.81767403738996L-20.122010048792266,-137.83905365170025A139.30003589374985,139.30003589374985,0,0,0,-54.07073614470727,-128.3777842649165Z" fill-rule="evenodd" style="fill: #414552; stroke: #fff; opacity: 1;" id="p-type-ether"></path><path d="M1.206277097160143e-14,-197A197,197,0,0,1,7.137618462621233,-196.87065399058858L6.1813589111508165,-170.49498761550598A170.6070045455344,170.6070045455344,0,0,0,1.0446666101440332e-14,-170.6070045455344Z" fill-rule="evenodd" style="fill: #1DC690; stroke: #fff; opacity: 1;" id="p-type-logs"></path><path d="M7.137618462621233,-196.87065399058858A197,197,0,0,1,14.265864108340555,-196.48278581403096L12.354600724759559,-170.15908392128753A170.6070045455344,170.6070045455344,0,0,0,6.1813589111508165,-170.49498761550598Z" fill-rule="evenodd" style="fill: #1DC690; stroke: #fff; opacity: 1;" id="p-type-logs"></path><path d="M14.265864108340555,-196.48278581403096A197,197,0,0,1,21.375376428240344,-195.8369048023151L18.511619002311217,-169.5997345573196A170.6070045455344,170.6070045455344,0,0,0,12.354600724759559,-170.15908392128753Z" fill-rule="evenodd" style="fill: #1DC690; stroke: #fff; opacity: 1;" id="p-type-logs"></path><path d="M21.375376428240344,-195.8369048023151A197,197,0,0,1,28.45681951320962,-194.93385909890722L24.644328609348253,-168.81767403739A170.6070045455344,170.6070045455344,0,0,0,18.511619002311217,-169.5997345573196Z" fill-rule="evenodd" style="fill: #1DC690; stroke: #fff; opacity: 1;" id="p-type-logs"></path><path d="M28.45681951320962,-194.93385909890722A197,197,0,0,1,35.500894313462354,-193.7748345450058L30.744676332524918,-167.81392933010144A170.6070045455344,170.6070045455344,0,0,0,24.644328609348253,-168.81767403739Z" fill-rule="evenodd" style="fill: #1DC690; stroke: #fff; opacity: 1;" id="p-type-logs"></path><path d="M35.500894313462354,-193.7748345450058A197,197,0,0,1,42.49835084965439,-192.36135312234543L36.804651454744686,-166.5898185103002A170.6070045455344,170.6070045455344,0,0,0,30.744676332524918,-167.81392933010144Z" fill-rule="evenodd" style="fill: #1DC690; stroke: #fff; opacity: 1;" id="p-type-logs"></path><path d="M42.49835084965439,-192.36135312234543A197,197,0,0,1,49.440000359562426,-190.69527095459517L42.81629627449284,-165.1469490282362A170.6070045455344,170.6070045455344,0,0,0,36.804651454744686,-166.5898185103002Z" fill-rule="evenodd" style="fill: #1DC690; stroke: #fff; opacity: 1;" id="p-type-logs"></path><path d="M49.440000359562426,-190.69527095459517A197,197,0,0,1,56.31672736437601,-188.77877586997576L48.771716555551876,-163.4872155987278A170.6070045455344,170.6070045455344,0,0,0,42.81629627449284,-165.1469490282362Z" fill-rule="evenodd" style="fill: #1DC690; stroke: #fff; opacity: 1;" id="p-type-logs"></path><path d="M56.31672736437601,-188.77877586997576A197,197,0,0,1,63.119501638756105,-186.6143845282969L54.66309189337629,-161.61279771310282A170.6070045455344,170.6070045455344,0,0,0,48.771716555551876,-163.4872155987278Z" fill-rule="evenodd" style="fill: #1DC690; stroke: #fff; opacity: 1;" id="p-type-logs"></path><path d="M63.119501638756105,-186.6143845282969A197,197,0,0,1,69.83939006894323,-184.20493911618655L60.48268598451548,-159.5261567771834A170.6070045455344,170.6070045455344,0,0,0,54.66309189337629,-161.61279771310282Z" fill-rule="evenodd" style="fill: #1DC690; stroke: #fff; opacity: 1;" id="p-type-logs"></path><path d="M69.83939006894323,-184.20493911618655A197,197,0,0,1,76.46756838334204,-181.55360361485228L66.22285678559797,-157.23003287907238A170.6070045455344,170.6070045455344,0,0,0,60.48268598451548,-159.5261567771834Z" fill-rule="evenodd" style="fill: #1DC690; stroke: #fff; opacity: 1;" id="p-type-logs"></path><path d="M76.46756838334204,-181.55360361485228A197,197,0,0,1,82.99533274017966,-178.66385964527595L71.87606654853793,-154.72744119098635A170.6070045455344,170.6070045455344,0,0,0,66.22285678559797,-157.23003287907238Z" fill-rule="evenodd" style="fill: #1DC690; stroke: #fff; opacity: 1;" id="p-type-logs"></path><path d="M82.99533274017966,-178.66385964527595A197,197,0,0,1,89.41411115702013,-175.53950189629697L77.43489171878504,-152.0216680098598A170.6070045455344,170.6070045455344,0,0,0,71.87606654853793,-154.72744119098635Z" fill-rule="evenodd" style="fill: #1DC690; stroke: #fff; opacity: 1;" id="p-type-logs"></path><path d="M89.41411115702013,-175.53950189629697A197,197,0,0,1,95.7154747671273,-172.1846331415885L82.89203268362067,-149.1162664419196A170.6070045455344,170.6070045455344,0,0,0,77.43489171878504,-152.0216680098598Z" fill-rule="evenodd" style="fill: #1DC690; stroke: #fff; opacity: 1;" id="p-type-logs"></path><path d="M95.7154747671273,-172.1846331415885A197,197,0,0,1,101.8911488878939,-168.6036588520695L88.24032335769868,-146.01505173689722A170.6070045455344,170.6070045455344,0,0,0,82.89203268362067,-149.1162664419196Z" fill-rule="evenodd" style="fill: #1DC690; stroke: #fff; opacity: 1;" id="p-type-logs"></path><path d="M101.8911488878939,-168.6036588520695A197,197,0,0,1,107.9330238868027,-164.80128141082787L93.47274059324377,-142.7220962780051A170.6070045455344,170.6070045455344,0,0,0,88.24032335769868,-146.01505173689722Z" fill-rule="evenodd" style="fill: #1DC690; stroke: #fff; opacity: 1;" id="p-type-logs"></path><path d="M107.9330238868027,-164.80128141082787A197,197,0,0,1,113.8331658306509,-160.7824939381509L98.58241340255042,-139.2417242342562A170.6070045455344,170.6070045455344,0,0,0,93.47274059324377,-142.7220962780051Z" fill-rule="evenodd" style="fill: #1DC690; stroke: #fff; opacity: 1;" id="p-type-logs"></path><path d="M113.8331658306509,-160.7824939381509A197,197,0,0,1,119.58382690405381,-156.55257373477224L103.56263198067161,-135.57850588214922A170.6070045455344,170.6070045455344,0,0,0,98.58241340255042,-139.2417242342562Z" fill-rule="evenodd" style="fill: #1DC690; stroke: #fff; opacity: 1;" id="p-type-logs"></path><path d="M119.58382690405381,-156.55257373477224A197,197,0,0,1,125.17745558354619,-152.11707535194503L108.40685651644922,-131.73725160417607A170.6070045455344,170.6070045455344,0,0,0,103.56263198067161,-135.57850588214922Z" fill-rule="evenodd" style="fill: #1DC690; stroke: #fff; opacity: 1;" id="p-type-logs"></path><path d="M125.17745558354619,-152.11707535194503A197,197,0,0,1,130.60670655392173,-147.48182329744157L113.10872578031575,-127.72300557203206A170.6070045455344,170.6070045455344,0,0,0,108.40685651644922,-131.73725160417607Z" fill-rule="evenodd" style="fill: #1DC690; stroke: #fff; opacity: 1;" id="p-type-logs"></path><path d="M130.60670655392173,-147.48182329744157A197,197,0,0,1,135.86445035378844,-142.65290438705745L117.66206547759045,-123.54103912282436A170.6070045455344,170.6070045455344,0,0,0,113.10872578031575,-127.72300557203206Z" fill-rule="evenodd" style="fill: #1DC690; stroke: #fff; opacity: 1;" id="p-type-logs"></path><path d="M135.86445035378844,-142.65290438705745A197,197,0,0,1,140.94378273767404,-137.63665975166404L122.06089635630035,-119.19684383697623A170.6070045455344,170.6070045455344,0,0,0,117.66206547759045,-123.54103912282436Z" fill-rule="evenodd" style="fill: #1DC690; stroke: #fff; opacity: 1;" id="p-type-logs"></path><path d="M140.94378273767404,-137.63665975166404A197,197,0,0,1,145.83803374238738,-132.4396765103052L126.29944205887962,-114.69612432691748A170.6070045455344,170.6070045455344,0,0,0,122.06089635630035,-119.19684383697623Z" fill-rule="evenodd" style="fill: #1DC690; stroke: #fff; opacity: 1;" id="p-type-logs"></path><path d="M145.83803374238738,-132.4396765103052A197,197,0,0,1,150.5407764457303,-127.06877912027272L130.37213670743648,-110.04479074602983A170.6070045455344,170.6070045455344,0,0,0,126.29944205887962,-114.69612432691748Z" fill-rule="evenodd" style="fill: #1DC690; stroke: #fff; opacity: 1;" id="p-type-logs"></path><path d="M150.5407764457303,-127.06877912027272A197,197,0,0,1,155.04583540605844,-121.53102041551958L134.27363221262738,-105.2489510276852A170.6070045455344,170.6070045455344,0,0,0,130.37213670743648,-110.04479074602983Z" fill-rule="evenodd" style="fill: #1DC690; stroke: #fff; opacity: 1;" id="p-type-logs"></path><path d="M155.04583540605844,-121.53102041551958A197,197,0,0,1,159.34729477160857,-115.83367234517814L137.99880529654027,-100.31490286456726A170.6070045455344,170.6070045455344,0,0,0,134.27363221262738,-105.2489510276852Z" fill-rule="evenodd" style="fill: #1DC690; stroke: #fff; opacity: 1;" id="p-type-logs"></path><path d="M159.34729477160857,-115.83367234517814A197,197,0,0,1,163.43950604894334,-109.98421642434614L141.54276422036534,-95.24912543880946A170.6070045455344,170.6070045455344,0,0,0,137.99880529654027,-100.31490286456726Z" fill-rule="evenodd" style="fill: #1DC690; stroke: #fff; opacity: 1;" id="p-type-logs"></path><path d="M163.43950604894334,-109.98421642434614A197,197,0,0,1,167.31709552031256,-103.99033390967934L144.90085520801816,-90.05827091380866A170.6070045455344,170.6070045455344,0,0,0,141.54276422036534,-95.24912543880946Z" fill-rule="evenodd" style="fill: #1DC690; stroke: #fff; opacity: 1;" id="p-type-logs"></path><path d="M176.64325514675147,87.21330409495825A197,197,0,0,1,173.36740037702023,93.5561034166877L150.1405729145674,81.02196223793567A170.6070045455344,170.6070045455344,0,0,0,152.97754636426305,75.52893689421126Z" fill-rule="evenodd" style="fill: #D7A449; stroke: #fff; opacity: 1;" id="p-type-tokenTransfers"></path><path d="M173.36740037702023,93.5561034166877A197,197,0,0,1,169.86388691286461,99.77604884366558L147.1064412521078,86.40859298785135A170.6070045455344,170.6070045455344,0,0,0,150.1405729145674,81.02196223793567Z" fill-rule="evenodd" style="fill: #D7A449; stroke: #fff; opacity: 1;" id="p-type-tokenTransfers"></path><path d="M169.86388691286461,99.77604884366558A197,197,0,0,1,166.13731541911213,105.8649726081788L143.87913566949922,91.68175564962658A170.6070045455344,170.6070045455344,0,0,0,147.1064412521078,86.40859298785135Z" fill-rule="evenodd" style="fill: #D7A449; stroke: #fff; opacity: 1;" id="p-type-tokenTransfers"></path><path d="M166.13731541911213,105.8649726081788A197,197,0,0,1,162.19257947090492,111.81487899458729L140.46289412713008,96.8345257303956A170.6070045455344,170.6070045455344,0,0,0,143.87913566949922,91.68175564962658Z" fill-rule="evenodd" style="fill: #D7A449; stroke: #fff; opacity: 1;" id="p-type-tokenTransfers"></path><path d="M162.19257947090492,111.81487899458729A197,197,0,0,1,158.03485912766513,117.61795483895747L136.8622026880531,101.860136831708A170.6070045455344,170.6070045455344,0,0,0,140.46289412713008,96.8345257303956Z" fill-rule="evenodd" style="fill: #D7A449; stroke: #fff; opacity: 1;" id="p-type-tokenTransfers"></path><path d="M158.03485912766513,117.61795483895747A197,197,0,0,1,153.66961413086128,123.26657978897686L133.08178962707802,106.75198953487539A170.6070045455344,170.6070045455344,0,0,0,136.8622026880531,101.860136831708Z" fill-rule="evenodd" style="fill: #D7A449; stroke: #fff; opacity: 1;" id="p-type-tokenTransfers"></path><path d="M153.66961413086128,123.26657978897686A197,197,0,0,1,149.10257673450798,128.75333631067645L129.1266192218025,111.50366006704719A170.6070045455344,170.6070045455344,0,0,0,133.08178962707802,106.75198953487539Z" fill-rule="evenodd" style="fill: #D7A449; stroke: #fff; opacity: 1;" id="p-type-tokenTransfers"></path><path d="M149.10257673450798,128.75333631067645A197,197,0,0,1,144.33974417781388,134.0710194288208L125.00188523373384,116.10890873663584A170.6070045455344,170.6070045455344,0,0,0,129.1266192218025,111.50366006704719Z" fill-rule="evenodd" style="fill: #D7A449; stroke: #fff; opacity: 1;" id="p-type-tokenTransfers"></path><path d="M144.33974417781388,134.0710194288208A197,197,0,0,1,139.38737080986223,139.2126461881749L120.71300408806222,120.56168812701435A170.6070045455344,170.6070045455344,0,0,0,125.00188523373384,116.10890873663584Z" fill-rule="evenodd" style="fill: #D7A449; stroke: #fff; opacity: 1;" id="p-type-tokenTransfers"></path><path d="M139.38737080986223,139.2126461881749A197,197,0,0,1,134.25195987666586,144.17146482322394L116.2656077610418,124.85615103772649A170.6070045455344,170.6070045455344,0,0,0,120.71300408806222,120.56168812701435Z" fill-rule="evenodd" style="fill: #D7A449; stroke: #fff; opacity: 1;" id="p-type-tokenTransfers"></path><path d="M134.25195987666586,144.17146482322394A197,197,0,0,1,128.9402549813811,148.94096362430463L111.66553638431903,128.9866581627818A170.6070045455344,170.6070045455344,0,0,0,116.2656077610418,124.85615103772649Z" fill-rule="evenodd" style="fill: #D7A449; stroke: #fff; opacity: 1;" id="p-type-tokenTransfers"></path><path d="M128.9402549813811,148.94096362430463A197,197,0,0,1,123.45923122889492,153.51487948850516L106.91883057592011,132.9477854959521A170.6070045455344,170.6070045455344,0,0,0,111.66553638431903,128.9866581627818Z" fill-rule="evenodd" style="fill: #D7A449; stroke: #fff; opacity: 1;" id="p-type-tokenTransfers"></path><path d="M123.45923122889492,153.51487948850516A197,197,0,0,1,117.81608606641424,157.88720614410553L102.03172350796856,136.7343314533459A170.6070045455344,170.6070045455344,0,0,0,106.91883057592011,132.9477854959521Z" fill-rule="evenodd" style="fill: #D7A449; stroke: #fff; opacity: 1;" id="p-type-tokenTransfers"></path><path d="M117.81608606641424,157.88720614410553A197,197,0,0,1,112.01822983208419,162.0522020377581L97.01063272154875,140.34132370390688A170.6070045455344,170.6070045455344,0,0,0,102.03172350796856,136.7343314533459Z" fill-rule="evenodd" style="fill: #D7A449; stroke: #fff; opacity: 1;" id="p-type-tokenTransfers"></path><path d="M112.01822983208419,162.0522020377581A197,197,0,0,1,106.0732760240474,166.00439787405108L91.86215169946387,143.76402569886767A170.6070045455344,170.6070045455344,0,0,0,97.01063272154875,140.34132370390688Z" fill-rule="evenodd" style="fill: #D7A449; stroke: #fff; opacity: 1;" id="p-type-tokenTransfers"></path><path d="M106.0732760240474,166.00439787405108A197,197,0,0,1,99.98903130272224,169.73860379755465L86.5930412079549,146.9979428915841A170.6070045455344,170.6070045455344,0,0,0,91.86215169946387,143.76402569886767Z" fill-rule="evenodd" style="fill: #D7A449; stroke: #fff; opacity: 1;" id="p-type-tokenTransfers"></path><path d="M99.98903130272224,169.73860379755465A197,197,0,0,1,93.7734852394283,173.24991620791835L81.21022041874998,150.03882863958265A170.6070045455344,170.6070045455344,0,0,0,86.5930412079549,146.9979428915841Z" fill-rule="evenodd" style="fill: #D7A449; stroke: #fff; opacity: 1;" id="p-type-tokenTransfers"></path><path d="M93.7734852394283,173.24991620791835A197,197,0,0,1,87.43479982482147,176.53372419907024L75.72075782310257,152.88268978107052A170.6070045455344,170.6070045455344,0,0,0,81.21022041874998,150.03882863958265Z" fill-rule="evenodd" style="fill: #D7A449; stroke: #fff; opacity: 1;" id="p-type-tokenTransfers"></path><path d="M-44.67236534184025,191.86813121194763A197,197,0,0,1,-78.48436943925338,180.6909066713729L-67.96945773439646,156.48291541025202A170.6070045455344,170.6070045455344,0,0,0,-38.687403233173164,166.1626758061926Z" fill-rule="evenodd" style="fill: #414552; stroke: #fff; opacity: 1;" id="p-type-ether"></path><path d="M-78.48436943925338,180.6909066713729A197,197,0,0,1,-86.13589224433316,177.17112650562626L-74.59587086123152,153.43469637097883A170.6070045455344,170.6070045455344,0,0,0,-67.96945773439646,156.48291541025202Z" fill-rule="evenodd" style="fill: #414552; stroke: #fff; opacity: 1;" id="p-type-ether"></path><path d="M-86.13589224433316,177.17112650562626A197,197,0,0,1,-93.09678676339523,173.61448181050716L-80.62418234780314,150.35455171277053A170.6070045455344,170.6070045455344,0,0,0,-74.59587086123152,153.43469637097883Z" fill-rule="evenodd" style="fill: #414552; stroke: #fff; opacity: 1;" id="p-type-ether"></path></g></svg>