<svg xmlns="http://www.w3.org/2000/svg" width="400" height="400" id="block-7908358"><g id="burst-container" transform="translate(200,200)"><circle r="197" style="fill: #f9f9f9; stroke: #f9f9f9; stroke-width: 3; opacity: 1;" id="circle-base"></circle><path display="none" d="M6.031385485800715e-15,-98.5A98.5,98.5,0,1,1,-6.031385485800715e-15,98.5A98.5,98.5,0,1,1,6.031385485800715e-15,-98.5Z" fill-rule="evenodd" id="p-type-root" style="stroke: #fff; opacity: 1;"></path><path d="M8.529667153919608e-15,-139.30003589374985A139.30003589374985,139.30003589374985,0,1,1,-133.6217694863895,-39.366517744476546L-94.48485931797173,-27.83633164881992A98.5,98.5,0,1,0,6.031385485800715e-15,-98.5Z" fill-rule="evenodd" style="fill: #0B1F65; stroke: #fff; opacity: 1;" id="p-type-data"></path><path d="M-133.6217694863895,-39.366517744476546A139.30003589374985,139.30003589374985,0,0,1,-12.76077711471056,-138.71431997969307L-9.023232031021944,-98.08583630532158A98.5,98.5,0,0,0,-94.48485931797173,-27.83633164881992Z" fill-rule="evenodd" style="fill: #D7A449; stroke: #fff; opacity: 1;" id="p-type-value"></path><path d="M1.0446666101440332e-14,-170.6070045455344A170.6070045455344,170.6070045455344,0,0,1,164.70040670026248,44.503101383702855L134.47731894817022,36.33663012047333A139.30003589374985,139.30003589374985,0,0,0,8.529667153919608e-15,-139.30003589374985Z" fill-rule="evenodd" style="fill: #1DC690; stroke: #fff; opacity: 1;" id="p-type-logs"></path><path d="M164.70040670026248,44.503101383702855A170.6070045455344,170.6070045455344,0,0,1,-57.59247401622042,160.59220696126874L-47.02405812141287,131.12298790751368A139.30003589374985,139.30003589374985,0,0,0,134.47731894817022,36.33663012047333Z" fill-rule="evenodd" style="fill: #D7A449; stroke: #fff; opacity: 1;" id="p-type-tokenTransfers"></path><path d="M-57.59247401622042,160.59220696126874A170.6070045455344,170.6070045455344,0,0,1,-111.28688800022817,129.3134894712252L-90.86536355427307,105.58402202108887A139.30003589374985,139.30003589374985,0,0,0,-47.02405812141287,131.12298790751368Z" fill-rule="evenodd" style="fill: #414552; stroke: #fff; opacity: 1;" id="p-type-ether"></path><path d="M-163.65257688472468,-48.21394071209364A170.6070045455344,170.6070045455344,0,0,1,-75.53805336957812,-152.97304498876517L-61.67656230619663,-124.90196820742996A139.30003589374985,139.30003589374985,0,0,0,-133.6217694863895,-39.366517744476546Z" fill-rule="evenodd" style="fill: #D7A449; stroke: #fff; opacity: 1;" id="p-type-tokenTransfers"></path><path d="M-75.53805336957812,-152.97304498876517A170.6070045455344,170.6070045455344,0,0,1,-31.125964457228413,-167.7436268136806L-25.414243557404923,-136.96209776578664A139.30003589374985,139.30003589374985,0,0,0,-61.67656230619663,-124.90196820742996Z" fill-rule="evenodd" style="fill: #414552; stroke: #fff; opacity: 1;" id="p-type-ether"></path><path d="M1.206277097160143e-14,-197A197,197,0,0,1,9.032732025896063,-196.79280919827417L7.8225754000032675,-170.42757204780938A170.6070045455344,170.6070045455344,0,0,0,1.0446666101440332e-14,-170.6070045455344Z" fill-rule="evenodd" style="fill: #1DC690; stroke: #fff; opacity: 1;" id="p-type-logs"></path><path d="M9.032732025896063,-196.79280919827417A197,197,0,0,1,18.046464062043732,-196.17167261064316L15.628696326212783,-169.88965198370096A170.6070045455344,170.6070045455344,0,0,0,7.8225754000032675,-170.42757204780938Z" fill-rule="evenodd" style="fill: #1DC690; stroke: #fff; opacity: 1;" id="p-type-logs"></path><path d="M18.046464062043732,-196.17167261064316A197,197,0,0,1,27.02223608441135,-195.13789677302134L23.401942916160767,-168.99437584650192A170.6070045455344,170.6070045455344,0,0,0,15.628696326212783,-169.88965198370096Z" fill-rule="evenodd" style="fill: #1DC690; stroke: #fff; opacity: 1;" id="p-type-logs"></path><path d="M27.02223608441135,-195.13789677302134A197,197,0,0,1,35.94116791633477,-193.6936561914453L31.12596445722813,-167.74362681368066A170.6070045455344,170.6070045455344,0,0,0,23.401942916160767,-168.99437584650192Z" fill-rule="evenodd" style="fill: #1DC690; stroke: #fff; opacity: 1;" id="p-type-logs"></path><path d="M35.94116791633477,-193.6936561914453A197,197,0,0,1,44.784498942212075,-191.8419887680875L38.784513779712974,-166.1400357856927A170.6070045455344,170.6070045455344,0,0,0,31.12596445722813,-167.74362681368066Z" fill-rule="evenodd" style="fill: #1DC690; stroke: #fff; opacity: 1;" id="p-type-logs"></path><path d="M44.784498942212075,-191.8419887680875A197,197,0,0,1,53.53362756970633,-189.58678941115065L46.36148143210068,-164.18697585198706A170.6070045455344,170.6070045455344,0,0,0,38.784513779712974,-166.1400357856927Z" fill-rule="evenodd" style="fill: #1DC690; stroke: #fff; opacity: 1;" id="p-type-logs"></path><path d="M53.53362756970633,-189.58678941115065A197,197,0,0,1,62.17015035744974,-186.93280184208464L53.84092956664968,-161.88855519584783A170.6070045455344,170.6070045455344,0,0,0,46.36148143210068,-164.18697585198706Z" fill-rule="evenodd" style="fill: #1DC690; stroke: #fff; opacity: 1;" id="p-type-logs"></path><path d="M62.17015035744974,-186.93280184208464A197,197,0,0,1,70.67590072594469,-183.88560861735866L61.20712546401515,-159.2496084529953A170.6070045455344,170.6070045455344,0,0,0,53.84092956664968,-161.88855519584783Z" fill-rule="evenodd" style="fill: #1DC690; stroke: #fff; opacity: 1;" id="p-type-logs"></path><path d="M70.67590072594469,-183.88560861735866A197,197,0,0,1,79.03298717023554,-180.45161938577715L68.4445746263936,-156.27568654212348A170.6070045455344,170.6070045455344,0,0,0,61.20712546401515,-159.2496084529953Z" fill-rule="evenodd" style="fill: #1DC690; stroke: #fff; opacity: 1;" id="p-type-logs"></path><path d="M79.03298717023554,-180.45161938577715A197,197,0,0,1,87.22383089397228,-176.6380574060407L75.53805336957794,-152.97304498876525A170.6070045455344,170.6070045455344,0,0,0,68.4445746263936,-156.27568654212348Z" fill-rule="evenodd" style="fill: #1DC690; stroke: #fff; opacity: 1;" id="p-type-logs"></path><path d="M87.22383089397228,-176.6380574060407A197,197,0,0,1,95.2312027857037,-172.4529443529109L82.47264084536681,-149.34863076704497A170.6070045455344,170.6070045455344,0,0,0,75.53805336957794,-152.97304498876525Z" fill-rule="evenodd" style="fill: #1DC690; stroke: #fff; opacity: 1;" id="p-type-logs"></path><path d="M95.2312027857037,-172.4529443529109A197,197,0,0,1,103.03825965962315,-167.90508344393888L89.23375042697097,-145.41006768699702A170.6070045455344,170.6070045455344,0,0,0,82.47264084536681,-149.34863076704497Z" fill-rule="evenodd" style="fill: #1DC690; stroke: #fff; opacity: 1;" id="p-type-logs"></path><path d="M103.03825965962315,-167.90508344393888A197,197,0,0,1,110.62857968453434,-163.00404092225023L95.8071603913978,-141.16564035818692A170.6070045455344,170.6070045455344,0,0,0,89.23375042697097,-145.41006768699702Z" fill-rule="evenodd" style="fill: #1DC690; stroke: #fff; opacity: 1;" id="p-type-logs"></path><path d="M110.62857968453434,-163.00404092225023A197,197,0,0,1,117.98619692651536,-157.76012593433595L102.17904383427576,-136.6242767633672A170.6070045455344,170.6070045455344,0,0,0,95.8071603913978,-141.16564035818692Z" fill-rule="evenodd" style="fill: #1DC690; stroke: #fff; opacity: 1;" id="p-type-logs"></path><path d="M117.98619692651536,-157.76012593433595A197,197,0,0,1,125.09563493262038,-152.18436884517595L108.3359977541933,-131.79552947882345A170.6070045455344,170.6070045455344,0,0,0,102.17904383427576,-136.6242767633672Z" fill-rule="evenodd" style="fill: #1DC690; stroke: #fff; opacity: 1;" id="p-type-logs"></path><path d="M125.09563493262038,-152.18436884517595A197,197,0,0,1,131.94193928497833,-146.2884980363087L114.26507124537524,-126.68955558091331A170.6070045455344,170.6070045455344,0,0,0,108.3359977541933,-131.79552947882345Z" fill-rule="evenodd" style="fill: #1DC690; stroke: #fff; opacity: 1;" id="p-type-logs"></path><path d="M131.94193928497833,-146.2884980363087A197,197,0,0,1,138.51070905681124,-140.0849152356505L119.95379273939386,-121.31709528106309A170.6070045455344,170.6070045455344,0,0,0,114.26507124537524,-126.68955558091331Z" fill-rule="evenodd" style="fill: #1DC690; stroke: #fff; opacity: 1;" id="p-type-logs"></path><path d="M138.51070905681124,-140.0849152356505A197,197,0,0,1,144.78812710420672,-133.58666943095812L125.39019623861324,-115.68944933416384A170.6070045455344,170.6070045455344,0,0,0,119.95379273939386,-121.31709528106309Z" fill-rule="evenodd" style="fill: #1DC690; stroke: #fff; opacity: 1;" id="p-type-logs"></path><path d="M144.78812710420672,-133.58666943095812A197,197,0,0,1,150.76098912992606,-126.80742942180603L130.56284648618558,-109.81845526788628A170.6070045455344,170.6070045455344,0,0,0,125.39019623861324,-115.68944933416384Z" fill-rule="evenodd" style="fill: #1DC690; stroke: #fff; opacity: 1;" id="p-type-logs"></path><path d="M150.76098912992606,-126.80742942180603A197,197,0,0,1,156.41673145811436,-119.76145506781444L135.4608630196556,-103.7164624829159A170.6070045455344,170.6070045455344,0,0,0,130.56284648618558,-109.81845526788628Z" fill-rule="evenodd" style="fill: #1DC690; stroke: #fff; opacity: 1;" id="p-type-logs"></path><path d="M190.17964828807476,51.387755127308104A197,197,0,0,1,187.62342851508959,60.053718221631065L162.48665543920123,52.00804557164494A170.6070045455344,170.6070045455344,0,0,0,164.70040670026248,44.503101383702855Z" fill-rule="evenodd" style="fill: #D7A449; stroke: #fff; opacity: 1;" id="p-type-tokenTransfers"></path><path d="M187.62342851508959,60.053718221631065A197,197,0,0,1,184.67255038092082,68.59336072686818L159.93112001153904,59.40359292041767A170.6070045455344,170.6070045455344,0,0,0,162.48665543920123,52.00804557164494Z" fill-rule="evenodd" style="fill: #D7A449; stroke: #fff; opacity: 1;" id="p-type-tokenTransfers"></path><path d="M184.67255038092082,68.59336072686818A197,197,0,0,1,181.33322093944065,76.98871984731275L157.0391758836119,66.67418719261605A170.6070045455344,170.6070045455344,0,0,0,159.93112001153904,59.40359292041767Z" fill-rule="evenodd" style="fill: #D7A449; stroke: #fff; opacity: 1;" id="p-type-tokenTransfers"></path><path d="M181.33322093944065,76.98871984731275A197,197,0,0,1,177.61246433627554,85.22213628157448L153.8169061439722,73.80453498462299A170.6070045455344,170.6070045455344,0,0,0,157.0391758836119,66.67418719261605Z" fill-rule="evenodd" style="fill: #D7A449; stroke: #fff; opacity: 1;" id="p-type-tokenTransfers"></path><path d="M177.61246433627554,85.22213628157448A197,197,0,0,1,173.51810703379743,93.2762913682122L150.27108870785588,80.77963789567092A170.6070045455344,170.6070045455344,0,0,0,153.8169061439722,73.80453498462299Z" fill-rule="evenodd" style="fill: #D7A449; stroke: #fff; opacity: 1;" id="p-type-tokenTransfers"></path><path d="M173.51810703379743,93.2762913682122A197,197,0,0,1,169.0587613484739,101.13424351484393L146.40918206010915,87.58482407637645A170.6070045455344,170.6070045455344,0,0,0,150.27108870785588,80.77963789567092Z" fill-rule="evenodd" style="fill: #D7A449; stroke: #fff; opacity: 1;" id="p-type-tokenTransfers"></path><path d="M169.0587613484739,101.13424351484393A197,197,0,0,1,164.24380733520553,108.77946383410739L142.2393095665649,94.2057790903876A170.6070045455344,170.6070045455344,0,0,0,146.40918206010915,87.58482407637645Z" fill-rule="evenodd" style="fill: #D7A449; stroke: #fff; opacity: 1;" id="p-type-tokenTransfers"></path><path d="M164.24380733520553,108.77946383410739A197,197,0,0,1,159.0833730567567,116.19587091151206L137.7702423868682,100.62857602422675A170.6070045455344,170.6070045455344,0,0,0,142.2393095665649,94.2057790903876Z" fill-rule="evenodd" style="fill: #D7A449; stroke: #fff; opacity: 1;" id="p-type-tokenTransfers"></path><path d="M159.0833730567567,116.19587091151206A197,197,0,0,1,153.5883132797812,123.36786463204989L133.01138102469338,106.83970478199497A170.6070045455344,170.6070045455344,0,0,0,137.7702423868682,100.62857602422675Z" fill-rule="evenodd" style="fill: #D7A449; stroke: #fff; opacity: 1;" id="p-type-tokenTransfers"></path><path d="M153.5883132797812,123.36786463204989A197,197,0,0,1,147.77018664225594,130.28035899441193L127.97273555416156,112.8261005033172A170.6070045455344,170.6070045455344,0,0,0,133.01138102469338,106.83970478199497Z" fill-rule="evenodd" style="fill: #D7A449; stroke: #fff; opacity: 1;" id="p-type-tokenTransfers"></path><path d="M147.77018664225594,130.28035899441193A197,197,0,0,1,141.64123134034912,136.91881384378738L122.66490456405094,118.57517104475235A170.6070045455344,170.6070045455344,0,0,0,127.97273555416156,112.8261005033172Z" fill-rule="evenodd" style="fill: #D7A449; stroke: #fff; opacity: 1;" id="p-type-tokenTransfers"></path><path d="M141.64123134034912,136.91881384378738A197,197,0,0,1,135.21433938586532,143.2692654564964L117.09905286409013,124.07482346686224A170.6070045455344,170.6070045455344,0,0,0,122.66490456405094,118.57517104475235Z" fill-rule="evenodd" style="fill: #D7A449; stroke: #fff; opacity: 1;" id="p-type-tokenTransfers"></path><path d="M135.21433938586532,143.2692654564964A197,197,0,0,1,128.50302948841514,149.31835591212322L111.28688800022834,129.31348947122504A170.6070045455344,170.6070045455344,0,0,0,117.09905286409013,124.07482346686224Z" fill-rule="evenodd" style="fill: #D7A449; stroke: #fff; opacity: 1;" id="p-type-tokenTransfers"></path><path d="M128.50302948841514,149.31835591212322A197,197,0,0,1,121.52141861935178,155.05336119136618L105.24063562828192,134.2801497338873A170.6070045455344,170.6070045455344,0,0,0,111.28688800022834,129.31348947122504Z" fill-rule="evenodd" style="fill: #D7A449; stroke: #fff; opacity: 1;" id="p-type-tokenTransfers"></path><path d="M121.52141861935178,155.05336119136618A197,197,0,0,1,114.2841923172874,160.4622179405023L98.97301379775726,138.96435708407012A170.6070045455344,170.6070045455344,0,0,0,105.24063562828192,134.2801497338873Z" fill-rule="evenodd" style="fill: #D7A449; stroke: #fff; opacity: 1;" id="p-type-tokenTransfers"></path><path d="M114.2841923172874,160.4622179405023A197,197,0,0,1,106.80657379765141,165.5335488461685L92.4972061999435,143.35625847937413A170.6070045455344,170.6070045455344,0,0,0,98.97301379775726,138.96435708407012Z" fill-rule="evenodd" style="fill: #D7A449; stroke: #fff; opacity: 1;" id="p-type-tokenTransfers"></path><path d="M106.80657379765141,165.5335488461685A197,197,0,0,1,99.10429193126696,170.2566865670838L85.82683443654635,147.44661573125936A170.6070045455344,170.6070045455344,0,0,0,92.4972061999435,143.35625847937413Z" fill-rule="evenodd" style="fill: #D7A449; stroke: #fff; opacity: 1;" id="p-type-tokenTransfers"></path><path d="M99.10429193126696,170.2566865670838A197,197,0,0,1,91.19354815930173,174.6216961723746L78.97592936719494,151.2268249372043A170.6070045455344,170.6070045455344,0,0,0,85.82683443654635,147.44661573125936Z" fill-rule="evenodd" style="fill: #D7A449; stroke: #fff; opacity: 1;" id="p-type-tokenTransfers"></path><path d="M-66.50206075312278,185.4359078376892A197,197,0,0,1,-75.68608083862067,181.8807773440882L-65.54606871912812,157.51337364004155A170.6070045455344,170.6070045455344,0,0,0,-57.59247401622042,160.59220696126874Z" fill-rule="evenodd" style="fill: #414552; stroke: #fff; opacity: 1;" id="p-type-ether"></path><path d="M-75.68608083862067,181.8807773440882A197,197,0,0,1,-79.19215290827006,180.3818253532023L-68.58241619894359,156.2152431368811A170.6070045455344,170.6070045455344,0,0,0,-65.54606871912812,157.51337364004155Z" fill-rule="evenodd" style="fill: #414552; stroke: #fff; opacity: 1;" id="p-type-ether"></path><path d="M-79.19215290827006,180.3818253532023A197,197,0,0,1,-82.46209893949091,178.9105984521141L-71.41427253098495,154.94112326580768A170.6070045455344,170.6070045455344,0,0,0,-68.58241619894359,156.2152431368811Z" fill-rule="evenodd" style="fill: #414552; stroke: #fff; opacity: 1;" id="p-type-ether"></path></g></svg>