<svg xmlns="http://www.w3.org/2000/svg" width="400" height="400" id="block-7908220"><g id="burst-container" transform="translate(200,200)"><circle r="197" style="fill: #f9f9f9; stroke: #f9f9f9; stroke-width: 3; opacity: 1;" id="circle-base"></circle><path display="none" d="M6.031385485800715e-15,-98.5A98.5,98.5,0,1,1,-6.031385485800715e-15,98.5A98.5,98.5,0,1,1,6.031385485800715e-15,-98.5Z" fill-rule="evenodd" id="p-type-root" style="stroke: #fff; opacity: 1;"></path><path d="M8.529667153919608e-15,-139.30003589374985A139.30003589374985,139.30003589374985,0,1,1,-19.286986445772072,-137.95837109012487L-13.637958904458461,-97.55129971927745A98.5,98.5,0,1,0,6.031385485800715e-15,-98.5Z" fill-rule="evenodd" style="fill: #0B1F65; stroke: #fff; opacity: 1;" id="p-type-data"></path><path d="M-19.286986445772072,-137.95837109012487A139.30003589374985,139.30003589374985,0,0,1,-0.5775848136197602,-139.29883845812597L-0.4084141384209007,-98.49915328515031A98.5,98.5,0,0,0,-13.637958904458461,-97.55129971927745Z" fill-rule="evenodd" style="fill: #D7A449; stroke: #fff; opacity: 1;" id="p-type-value"></path><path d="M1.0446666101440332e-14,-170.6070045455344A170.6070045455344,170.6070045455344,0,1,1,-112.94870625644577,-127.86453673710753L-92.22223247859803,-104.40095706775591A139.30003589374985,139.30003589374985,0,1,0,8.529667153919608e-15,-139.30003589374985Z" fill-rule="evenodd" style="fill: #414552; stroke: #fff; opacity: 1;" id="p-type-ether"></path><path d="M-112.94870625644577,-127.86453673710753A170.6070045455344,170.6070045455344,0,0,1,-78.61674303249897,-151.4138623606241L-64.19030188970903,-123.6289009225109A139.30003589374985,139.30003589374985,0,0,0,-92.22223247859803,-104.40095706775591Z" fill-rule="evenodd" style="fill: #1DC690; stroke: #fff; opacity: 1;" id="p-type-logs"></path><path d="M-78.61674303249897,-151.4138623606241A170.6070045455344,170.6070045455344,0,0,1,-51.86686580731097,-162.53177606648612L-42.34911859510659,-132.70663945039672A139.30003589374985,139.30003589374985,0,0,0,-64.19030188970903,-123.6289009225109Z" fill-rule="evenodd" style="fill: #D7A449; stroke: #fff; opacity: 1;" id="p-type-tokenTransfers"></path><path d="M-23.62163773405844,-168.9638074581681A170.6070045455344,170.6070045455344,0,0,1,-9.191696286477193,-170.3592167139106L-7.504988590834703,-139.09771797643353A139.30003589374985,139.30003589374985,0,0,0,-19.286986445772072,-137.95837109012487Z" fill-rule="evenodd" style="fill: #D7A449; stroke: #fff; opacity: 1;" id="p-type-tokenTransfers"></path><path d="M-9.191696286477193,-170.3592167139106A170.6070045455344,170.6070045455344,0,0,1,-1.4147759149034884,-170.60113835819092L-1.1551596972975937,-139.29524617184083A139.30003589374985,139.30003589374985,0,0,0,-7.504988590834703,-139.09771797643353Z" fill-rule="evenodd" style="fill: #414552; stroke: #fff; opacity: 1;" id="p-type-ether"></path><path d="M1.206277097160143e-14,-197A197,197,0,1,1,-139.55386096238564,-139.0457474735964L-120.85718878962743,-120.4171496003304A170.6070045455344,170.6070045455344,0,1,0,1.0446666101440332e-14,-170.6070045455344Z" fill-rule="evenodd" style="fill: #414552; stroke: #fff; opacity: 1;" id="p-type-ether"></path><path d="M-139.55386096238564,-139.0457474735964A197,197,0,0,1,-138.6841883133423,-139.91317276035664L-120.10403018257941,-121.16836193454978A170.6070045455344,170.6070045455344,0,0,0,-120.85718878962743,-120.4171496003304Z" fill-rule="evenodd" style="fill: #414552; stroke: #fff; opacity: 1;" id="p-type-ether"></path></g></svg>