<svg xmlns="http://www.w3.org/2000/svg" width="400" height="400" id="block-7908275"><g id="burst-container" transform="translate(200,200)"><circle r="197" style="fill: #f9f9f9; stroke: #f9f9f9; stroke-width: 3; opacity: 1;" id="circle-base"></circle><path display="none" d="M6.031385485800715e-15,-98.5A98.5,98.5,0,1,1,-6.031385485800715e-15,98.5A98.5,98.5,0,1,1,6.031385485800715e-15,-98.5Z" fill-rule="evenodd" id="p-type-root" style="stroke: #fff; opacity: 1;"></path><path d="M8.529667153919608e-15,-139.30003589374985A139.30003589374985,139.30003589374985,0,1,1,-96.9754313186353,-100.00132859399741L-68.57198509389733,-70.71161757647977A98.5,98.5,0,1,0,6.031385485800715e-15,-98.5Z" fill-rule="evenodd" style="fill: #0B1F65; stroke: #fff; opacity: 1;" id="p-type-data"></path><path d="M-96.9754313186353,-100.00132859399741A139.30003589374985,139.30003589374985,0,0,1,-3.2016964183188974,-139.26323685756023L-2.2639412486939734,-98.47397915196919A98.5,98.5,0,0,0,-68.57198509389733,-70.71161757647977Z" fill-rule="evenodd" style="fill: #D7A449; stroke: #fff; opacity: 1;" id="p-type-value"></path><path d="M1.0446666101440332e-14,-170.6070045455344A170.6070045455344,170.6070045455344,0,0,1,168.42727450567332,27.18461334267169L137.5202937688578,22.196143848133673A139.30003589374985,139.30003589374985,0,0,0,8.529667153919608e-15,-139.30003589374985Z" fill-rule="evenodd" style="fill: #DB3F29; stroke: #fff; opacity: 1;" id="p-type-functions"></path><path d="M168.42727450567332,27.18461334267169A170.6070045455344,170.6070045455344,0,0,1,-18.104010973631908,169.6437289930477L-14.781863061048485,138.51352469865319A139.30003589374985,139.30003589374985,0,0,0,137.5202937688578,22.196143848133673Z" fill-rule="evenodd" style="fill: #1DC690; stroke: #fff; opacity: 1;" id="p-type-logs"></path><path d="M-18.104010973631908,169.6437289930477A170.6070045455344,170.6070045455344,0,0,1,-132.3422991541898,107.66738528720265L-108.05703477151023,87.9100519644291A139.30003589374985,139.30003589374985,0,0,0,-14.781863061048485,138.51352469865319Z" fill-rule="evenodd" style="fill: #D7A449; stroke: #fff; opacity: 1;" id="p-type-tokenTransfers"></path><path d="M-132.3422991541898,107.66738528720265A170.6070045455344,170.6070045455344,0,0,1,-164.51224823125142,45.19369626285411L-134.3236882015501,36.90049847810653A139.30003589374985,139.30003589374985,0,0,0,-108.05703477151023,87.9100519644291Z" fill-rule="evenodd" style="fill: #414552; stroke: #fff; opacity: 1;" id="p-type-ether"></path><path d="M-118.77016215848589,-122.4761143278434A170.6070045455344,170.6070045455344,0,0,1,-63.16631711221635,-158.4827005779461L-51.575081951921156,-129.40058315808554A139.30003589374985,139.30003589374985,0,0,0,-96.9754313186353,-100.00132859399741Z" fill-rule="evenodd" style="fill: #D7A449; stroke: #fff; opacity: 1;" id="p-type-tokenTransfers"></path><path d="M-63.16631711221635,-158.4827005779461A170.6070045455344,170.6070045455344,0,0,1,-7.840450768796101,-170.4267506342302L-6.401701245654178,-139.15285919147112A139.30003589374985,139.30003589374985,0,0,0,-51.575081951921156,-129.40058315808554Z" fill-rule="evenodd" style="fill: #414552; stroke: #fff; opacity: 1;" id="p-type-ether"></path><path d="M1.206277097160143e-14,-197A197,197,0,0,1,2.2640907804392136,-196.98698914633405L1.9607601323344948,-170.59573681573477A170.6070045455344,170.6070045455344,0,0,0,1.0446666101440332e-14,-170.6070045455344Z" fill-rule="evenodd" style="fill: #DB3F29; stroke: #fff; opacity: 1;" id="p-type-functions"></path><path d="M2.2640907804392136,-196.98698914633405A197,197,0,0,1,4.527882497387792,-196.94795830393838L3.921261268088755,-170.56193511468902A170.6070045455344,170.6070045455344,0,0,0,1.9607601323344948,-170.59573681573477Z" fill-rule="evenodd" style="fill: #DB3F29; stroke: #fff; opacity: 1;" id="p-type-functions"></path><path d="M4.527882497387792,-196.94795830393838A197,197,0,0,1,6.791076126858254,-196.88291262839246L5.881244444893281,-170.50560390725994A170.6070045455344,170.6070045455344,0,0,0,3.921261268088755,-170.56193511468902Z" fill-rule="evenodd" style="fill: #DB3F29; stroke: #fff; opacity: 1;" id="p-type-functions"></path><path d="M6.791076126858254,-196.88291262839246A197,197,0,0,1,9.053372723864545,-196.79186071157207L7.840450768795815,-170.42675063423022A170.6070045455344,170.6070045455344,0,0,0,5.881244444893281,-170.50560390725994Z" fill-rule="evenodd" style="fill: #DB3F29; stroke: #fff; opacity: 1;" id="p-type-functions"></path><path d="M9.053372723864545,-196.79186071157207A197,197,0,0,1,11.314473461909481,-196.67481458051446L9.798621448458473,-170.32538571131963A170.6070045455344,170.6070045455344,0,0,0,7.840450768795815,-170.42675063423022Z" fill-rule="evenodd" style="fill: #DB3F29; stroke: #fff; opacity: 1;" id="p-type-functions"></path><path d="M11.314473461909481,-196.67481458051446A197,197,0,0,1,13.574079672456795,-196.53178969582962L11.755497829341536,-170.2015225278092A170.6070045455344,170.6070045455344,0,0,0,9.798621448458473,-170.32538571131963Z" fill-rule="evenodd" style="fill: #DB3F29; stroke: #fff; opacity: 1;" id="p-type-functions"></path><path d="M13.574079672456795,-196.53178969582962A197,197,0,0,1,15.831892884382052,-196.36280494965806L13.710821427868948,-170.05517744477257A170.6070045455344,170.6070045455344,0,0,0,11.755497829341536,-170.2015225278092Z" fill-rule="evenodd" style="fill: #DB3F29; stroke: #fff; opacity: 1;" id="p-type-functions"></path><path d="M15.831892884382052,-196.36280494965806A197,197,0,0,1,18.08761486339793,-196.16788266317548L15.664333965571606,-169.88636979291493A170.6070045455344,170.6070045455344,0,0,0,13.710821427868948,-170.05517744477257Z" fill-rule="evenodd" style="fill: #DB3F29; stroke: #fff; opacity: 1;" id="p-type-functions"></path><path d="M18.08761486339793,-196.16788266317548A197,197,0,0,1,20.340947651447784,-195.9470485836443L17.615777403203197,-169.69512187001956A170.6070045455344,170.6070045455344,0,0,0,15.664333965571606,-169.88636979291493Z" fill-rule="evenodd" style="fill: #DB3F29; stroke: #fff; opacity: 1;" id="p-type-functions"></path><path d="M20.340947651447784,-195.9470485836443A197,197,0,0,1,22.591593606062965,-195.70033188101266L19.56489397482462,-169.48145893800262A170.6070045455344,170.6070045455344,0,0,0,17.615777403203197,-169.69512187001956Z" fill-rule="evenodd" style="fill: #DB3F29; stroke: #fff; opacity: 1;" id="p-type-functions"></path><path d="M22.591593606062965,-195.70033188101266A197,197,0,0,1,24.83925543967821,-195.42776514406137L21.511426221852137,-169.2454092195762A170.6070045455344,170.6070045455344,0,0,0,19.56489397482462,-169.48145893800262Z" fill-rule="evenodd" style="fill: #DB3F29; stroke: #fff; opacity: 1;" id="p-type-functions"></path><path d="M24.83925543967821,-195.42776514406137A197,197,0,0,1,27.083636258900597,-195.12938437609947L23.455117027065253,-168.98700389452046A170.6070045455344,170.6070045455344,0,0,0,21.511426221852137,-169.2454092195762Z" fill-rule="evenodd" style="fill: #DB3F29; stroke: #fff; opacity: 1;" id="p-type-functions"></path><path d="M27.083636258900597,-195.12938437609947A197,197,0,0,1,29.324439603725967,-194.80522899020812L25.395709648569163,-168.706277095565A170.6070045455344,170.6070045455344,0,0,0,23.455117027065253,-168.98700389452046Z" fill-rule="evenodd" style="fill: #DB3F29; stroke: #fff; opacity: 1;" id="p-type-functions"></path><path d="M29.324439603725967,-194.80522899020812A197,197,0,0,1,31.561369486698382,-194.45534180403504L27.332947753707828,-168.40326590388048A170.6070045455344,170.6070045455344,0,0,0,25.395709648569163,-168.706277095565Z" fill-rule="evenodd" style="fill: #DB3F29; stroke: #fff; opacity: 1;" id="p-type-functions"></path><path d="M31.561369486698382,-194.45534180403504A197,197,0,0,1,33.79413043200692,-194.0797690341384L29.266575452922776,-168.07801034418029A170.6070045455344,170.6070045455344,0,0,0,27.332947753707828,-168.40326590388048Z" fill-rule="evenodd" style="fill: #DB3F29; stroke: #fff; opacity: 1;" id="p-type-functions"></path><path d="M33.79413043200692,-194.0797690341384A197,197,0,0,1,36.02242751451526,-193.67856028988209L31.19633733355375,-167.73055337943387A170.6070045455344,170.6070045455344,0,0,0,29.266575452922776,-168.07801034418029Z" fill-rule="evenodd" style="fill: #DB3F29; stroke: #fff; opacity: 1;" id="p-type-functions"></path><path d="M36.02242751451526,-193.67856028988209A197,197,0,0,1,38.24596639871819,-193.25176856688304L33.12197849357599,-167.36094090519177A170.6070045455344,170.6070045455344,0,0,0,31.19633733355375,-167.73055337943387Z" fill-rule="evenodd" style="fill: #DB3F29; stroke: #fff; opacity: 1;" id="p-type-functions"></path><path d="M38.24596639871819,-193.25176856688304A197,197,0,0,1,40.46445337762038,-192.79945024001077L35.043244575270286,-166.96922174352312A170.6070045455344,170.6070045455344,0,0,0,33.12197849357599,-167.36094090519177Z" fill-rule="evenodd" style="fill: #DB3F29; stroke: #fff; opacity: 1;" id="p-type-functions"></path><path d="M40.46445337762038,-192.79945024001077A197,197,0,0,1,42.67759541153199,-192.32166505594108L36.959881798820895,-166.55544763656692A170.6070045455344,170.6070045455344,0,0,0,35.043244575270286,-166.96922174352312Z" fill-rule="evenodd" style="fill: #DB3F29; stroke: #fff; opacity: 1;" id="p-type-functions"></path><path d="M42.67759541153199,-192.32166505594108A197,197,0,0,1,44.885100166776446,-191.81847612526394L38.87163699583754,-166.1196732396974A170.6070045455344,170.6070045455344,0,0,0,36.959881798820895,-166.55544763656692Z" fill-rule="evenodd" style="fill: #DB3F29; stroke: #fff; opacity: 1;" id="p-type-functions"></path><path d="M44.885100166776446,-191.81847612526394A197,197,0,0,1,47.08667605430465,-191.2899499141473L40.77825764279624,-165.66195611430445A170.6070045455344,170.6070045455344,0,0,0,38.87163699583754,-166.1196732396974Z" fill-rule="evenodd" style="fill: #DB3F29; stroke: #fff; opacity: 1;" id="p-type-functions"></path><path d="M47.08667605430465,-191.2899499141473A197,197,0,0,1,49.28203226821098,-190.73615623555753L42.67949189439515,-165.18235672019048A170.6070045455344,170.6070045455344,0,0,0,40.77825764279624,-165.66195611430445Z" fill-rule="evenodd" style="fill: #DB3F29; stroke: #fff; opacity: 1;" id="p-type-functions"></path><path d="M49.28203226821098,-190.73615623555753A197,197,0,0,1,51.47087882414568,-190.15716824003798L44.57508861682067,-164.68093840758434A170.6070045455344,170.6070045455344,0,0,0,42.67949189439515,-165.18235672019048Z" fill-rule="evenodd" style="fill: #DB3F29; stroke: #fff; opacity: 1;" id="p-type-functions"></path><path d="M51.47087882414568,-190.15716824003798A197,197,0,0,1,53.652926597619064,-189.55306240604637L46.46479742091989,-164.1577674087732A170.6070045455344,170.6070045455344,0,0,0,44.57508861682067,-164.68093840758434Z" fill-rule="evenodd" style="fill: #DB3F29; stroke: #fff; opacity: 1;" id="p-type-functions"></path><path d="M53.652926597619064,-189.55306240604637A197,197,0,0,1,55.82788736219183,-188.9239185298527L48.34836869527434,-163.6129128293541A170.6070045455344,170.6070045455344,0,0,0,46.46479742091989,-164.1577674087732Z" fill-rule="evenodd" style="fill: #DB3F29; stroke: #fff; opacity: 1;" id="p-type-functions"></path><path d="M55.82788736219183,-188.9239185298527A197,197,0,0,1,57.99547382754688,-188.26981971499927L50.22555363917113,-163.0464466391057A170.6070045455344,170.6070045455344,0,0,0,48.34836869527434,-163.6129128293541Z" fill-rule="evenodd" style="fill: #DB3F29; stroke: #fff; opacity: 1;" id="p-type-functions"></path><path d="M57.99547382754688,-188.26981971499927A197,197,0,0,1,60.15539967743736,-187.59085236132321L52.09610429546698,-162.45844366248195A170.6070045455344,170.6070045455344,0,0,0,50.22555363917113,-163.0464466391057Z" fill-rule="evenodd" style="fill: #DB3F29; stroke: #fff; opacity: 1;" id="p-type-functions"></path><path d="M60.15539967743736,-187.59085236132321A197,197,0,0,1,62.30737960750631,-186.88710615354424L53.959773583340954,-161.8489815687284A170.6070045455344,170.6070045455344,0,0,0,52.09610429546698,-162.45844366248195Z" fill-rule="evenodd" style="fill: #DB3F29; stroke: #fff; opacity: 1;" id="p-type-functions"></path><path d="M62.30737960750631,-186.88710615354424A197,197,0,0,1,64.45112936297244,-186.1586740494178L55.816315330931296,-161.21814086162277A170.6070045455344,170.6070045455344,0,0,0,53.959773583340954,-161.8489815687284Z" fill-rule="evenodd" style="fill: #DB3F29; stroke: #fff; opacity: 1;" id="p-type-functions"></path><path d="M64.45112936297244,-186.1586740494178A197,197,0,0,1,66.58636577617715,-185.4056522674569L57.66548430785213,-160.5660048688416A170.6070045455344,170.6070045455344,0,0,0,55.816315330931296,-161.21814086162277Z" fill-rule="evenodd" style="fill: #DB3F29; stroke: #fff; opacity: 1;" id="p-type-functions"></path><path d="M66.58636577617715,-185.4056522674569A197,197,0,0,1,68.71280680398833,-184.62814027422195L59.507036257586115,-159.89265973095303A170.6070045455344,170.6070045455344,0,0,0,57.66548430785213,-160.5660048688416Z" fill-rule="evenodd" style="fill: #DB3F29; stroke: #fff; opacity: 1;" id="p-type-functions"></path><path d="M68.71280680398833,-184.62814027422195A197,197,0,0,1,70.83017156505534,-183.82624077118268L61.34072792974811,-159.1981943900389A170.6070045455344,170.6070045455344,0,0,0,59.507036257586115,-159.89265973095303Z" fill-rule="evenodd" style="fill: #DB3F29; stroke: #fff; opacity: 1;" id="p-type-functions"></path><path d="M70.83017156505534,-183.82624077118268A197,197,0,0,1,72.93818037691048,-183.0000596811522L63.16631711221612,-158.48270057794622A170.6070045455344,170.6070045455344,0,0,0,61.34072792974811,-159.1981943900389Z" fill-rule="evenodd" style="fill: #DB3F29; stroke: #fff; opacity: 1;" id="p-type-functions"></path><path d="M72.93818037691048,-183.0000596811522A197,197,0,0,1,75.03655479291243,-182.14970613429563L64.98356266312514,-157.7462728041702A170.6070045455344,170.6070045455344,0,0,0,63.16631711221612,-158.48270057794622Z" fill-rule="evenodd" style="fill: #DB3F29; stroke: #fff; opacity: 1;" id="p-type-functions"></path><path d="M75.03655479291243,-182.14970613429563A197,197,0,0,1,77.12501763902594,-181.27529245371508L66.7922245427194,-156.9890083433708A170.6070045455344,170.6070045455344,0,0,0,64.98356266312514,-157.7462728041702Z" fill-rule="evenodd" style="fill: #DB3F29; stroke: #fff; opacity: 1;" id="p-type-functions"></path><path d="M77.12501763902594,-181.27529245371508A197,197,0,0,1,79.20329305043403,-180.3769341406131L68.59206384505934,-156.21100722252353A170.6070045455344,170.6070045455344,0,0,0,66.7922245427194,-156.9890083433708Z" fill-rule="evenodd" style="fill: #DB3F29; stroke: #fff; opacity: 1;" id="p-type-functions"></path><path d="M79.20329305043403,-180.3769341406131A197,197,0,0,1,81.27110650797675,-179.45474985903576L70.38284282957869,-155.41237220770688A170.6070045455344,170.6070045455344,0,0,0,68.59206384505934,-156.21100722252353Z" fill-rule="evenodd" style="fill: #DB3F29; stroke: #fff; opacity: 1;" id="p-type-functions"></path><path d="M81.27110650797675,-179.45474985903576A197,197,0,0,1,83.32818487441239,-178.50886142019883L72.16432495248735,-154.5932087905281A170.6070045455344,170.6070045455344,0,0,0,70.38284282957869,-155.41237220770688Z" fill-rule="evenodd" style="fill: #DB3F29; stroke: #fff; opacity: 1;" id="p-type-functions"></path><path d="M83.32818487441239,-178.50886142019883A197,197,0,0,1,85.37425643049626,-177.5393937663973L73.93627489801672,-153.75362517418867A170.6070045455344,170.6070045455344,0,0,0,72.16432495248735,-154.5932087905281Z" fill-rule="evenodd" style="fill: #DB3F29; stroke: #fff; opacity: 1;" id="p-type-functions"></path><path d="M85.37425643049626,-177.5393937663973A197,197,0,0,1,87.40905091087194,-176.54647495450197L75.69845860950242,-152.89373225919186A170.6070045455344,170.6070045455344,0,0,0,73.93627489801672,-153.75362517418867Z" fill-rule="evenodd" style="fill: #DB3F29; stroke: #fff; opacity: 1;" id="p-type-functions"></path><path d="M87.40905091087194,-176.54647495450197A197,197,0,0,1,89.43229953977067,-175.53023613904452L77.45064332030076,-152.0136436286939A170.6070045455344,170.6070045455344,0,0,0,75.69845860950242,-152.89373225919186Z" fill-rule="evenodd" style="fill: #DB3F29; stroke: #fff; opacity: 1;" id="p-type-functions"></path><path d="M89.43229953977067,-175.53023613904452A197,197,0,0,1,91.44373506651387,-174.49081155489313L79.19259758453491,-151.1134755335007A170.6070045455344,170.6070045455344,0,0,0,77.45064332030076,-152.0136436286939Z" fill-rule="evenodd" style="fill: #DB3F29; stroke: #fff; opacity: 1;" id="p-type-functions"></path><path d="M91.44373506651387,-174.49081155489313A197,197,0,0,1,93.44309180081423,-173.4283384995215L80.9240913076665,-150.19334687671238A170.6070045455344,170.6070045455344,0,0,0,79.19259758453491,-151.1134755335007Z" fill-rule="evenodd" style="fill: #DB3F29; stroke: #fff; opacity: 1;" id="p-type-functions"></path><path d="M93.44309180081423,-173.4283384995215A197,197,0,0,1,95.43010564787082,-172.34295731487322L82.64489577688897,-149.25337919801734A170.6070045455344,170.6070045455344,0,0,0,80.9240913076665,-150.19334687671238Z" fill-rule="evenodd" style="fill: #DB3F29; stroke: #fff; opacity: 1;" id="p-type-functions"></path><path d="M95.43010564787082,-172.34295731487322A197,197,0,0,1,97.40451414325315,-171.23481136882415L84.35478369133789,-148.29369665763812A170.6070045455344,170.6070045455344,0,0,0,82.64489577688897,-149.25337919801734Z" fill-rule="evenodd" style="fill: #DB3F29; stroke: #fff; opacity: 1;" id="p-type-functions"></path><path d="M97.40451414325315,-171.23481136882415A197,197,0,0,1,99.36605648757032,-170.1040470362448L86.05352919211542,-147.31442601993103A170.6070045455344,170.6070045455344,0,0,0,84.35478369133789,-148.29369665763812Z" fill-rule="evenodd" style="fill: #DB3F29; stroke: #fff; opacity: 1;" id="p-type-functions"></path><path d="M99.36605648757032,-170.1040470362448A197,197,0,0,1,101.31447358091978,-168.95081367966569L87.7409078921239,-146.31569663664195A170.6070045455344,170.6070045455344,0,0,0,86.05352919211542,-147.31442601993103Z" fill-rule="evenodd" style="fill: #DB3F29; stroke: #fff; opacity: 1;" id="p-type-functions"></path><path d="M101.31447358091978,-168.95081367966569A197,197,0,0,1,103.24950805711184,-167.7752636295482L89.41669690570492,-145.29764042982012A170.6070045455344,170.6070045455344,0,0,0,87.7409078921239,-146.31569663664195Z" fill-rule="evenodd" style="fill: #DB3F29; stroke: #fff; opacity: 1;" id="p-type-functions"></path><path d="M103.24950805711184,-167.7752636295482A197,197,0,0,1,105.17090431766518,-166.57755216416322L91.08067487808054,-144.26039187439284A170.6070045455344,170.6070045455344,0,0,0,89.41669690570492,-145.29764042982012Z" fill-rule="evenodd" style="fill: #DB3F29; stroke: #fff; opacity: 1;" id="p-type-functions"></path><path d="M105.17090431766518,-166.57755216416322A197,197,0,0,1,107.07840856556884,-165.35783748908037L92.73262201459184,-143.20408798040242A170.6070045455344,170.6070045455344,0,0,0,91.08067487808054,-144.26039187439284Z" fill-rule="evenodd" style="fill: #DB3F29; stroke: #fff; opacity: 1;" id="p-type-functions"></path><path d="M107.07840856556884,-165.35783748908037A197,197,0,0,1,108.97176883880623,-164.11628071627075L94.37232010973166,-142.12886827490865A170.6070045455344,170.6070045455344,0,0,0,92.73262201459184,-143.20408798040242Z" fill-rule="evenodd" style="fill: #DB3F29; stroke: #fff; opacity: 1;" id="p-type-functions"></path><path d="M108.97176883880623,-164.11628071627075A197,197,0,0,1,110.8507350436367,-162.8530458428256L95.9995525759673,-141.03487478355873A170.6070045455344,170.6070045455344,0,0,0,94.37232010973166,-142.12886827490865Z" fill-rule="evenodd" style="fill: #DB3F29; stroke: #fff; opacity: 1;" id="p-type-functions"></path><path d="M110.8507350436367,-162.8530458428256A197,197,0,0,1,112.71505898763047,-161.568299729294L97.6141044723495,-139.92225201182706A170.6070045455344,170.6070045455344,0,0,0,95.9995525759673,-141.03487478355873Z" fill-rule="evenodd" style="fill: #DB3F29; stroke: #fff; opacity: 1;" id="p-type-functions"></path><path d="M112.71505898763047,-161.568299729294A197,197,0,0,1,114.56449441245229,-160.2622120776423L99.21576253290405,-138.79114692592748A170.6070045455344,170.6070045455344,0,0,0,97.6141044723495,-139.92225201182706Z" fill-rule="evenodd" style="fill: #DB3F29; stroke: #fff; opacity: 1;" id="p-type-functions"></path><path d="M114.56449441245229,-160.2622120776423A197,197,0,0,1,116.39879702638972,-158.93495540883802L100.80431519480206,-137.6417089334007A170.6070045455344,170.6070045455344,0,0,0,99.21576253290405,-138.79114692592748Z" fill-rule="evenodd" style="fill: #DB3F29; stroke: #fff; opacity: 1;" id="p-type-functions"></path><path d="M116.39879702638972,-158.93495540883802A197,197,0,0,1,118.2177245366215,-157.58670504006193L102.37955262630518,-136.47408986337885A170.6070045455344,170.6070045455344,0,0,0,100.80431519480206,-137.6417089334007Z" fill-rule="evenodd" style="fill: #DB3F29; stroke: #fff; opacity: 1;" id="p-type-functions"></path><path d="M118.2177245366215,-157.58670504006193A197,197,0,0,1,120.0210366812222,-156.21763906155002L103.94126675448237,-135.28844394653055A170.6070045455344,170.6070045455344,0,0,0,102.37955262630518,-136.47408986337885Z" fill-rule="evenodd" style="fill: #DB3F29; stroke: #fff; opacity: 1;" id="p-type-functions"></path><path d="M120.0210366812222,-156.21763906155002A197,197,0,0,1,121.80849526089804,-154.8279383130699L105.4892512926941,-134.08492779468853A170.6070045455344,170.6070045455344,0,0,0,103.94126675448237,-135.28844394653055Z" fill-rule="evenodd" style="fill: #DB3F29; stroke: #fff; opacity: 1;" id="p-type-functions"></path><path d="M121.80849526089804,-154.8279383130699A197,197,0,0,1,123.57986417045096,-153.41778636003352L107.02330176784088,-132.86370038016278A170.6070045455344,170.6070045455344,0,0,0,105.4892512926941,-134.08492779468853Z" fill-rule="evenodd" style="fill: #DB3F29; stroke: #fff; opacity: 1;" id="p-type-functions"></path><path d="M123.57986417045096,-153.41778636003352A197,197,0,0,1,125.33490942996552,-151.9873694692501L108.54321554737193,-131.624923014742A170.6070045455344,170.6070045455344,0,0,0,107.02330176784088,-132.86370038016278Z" fill-rule="evenodd" style="fill: #DB3F29; stroke: #fff; opacity: 1;" id="p-type-functions"></path><path d="M125.33490942996552,-151.9873694692501A197,197,0,0,1,127.07339921571531,-150.53687658432216L110.04879186605102,-130.3687593283858A170.6070045455344,170.6070045455344,0,0,0,108.54321554737193,-131.624923014742Z" fill-rule="evenodd" style="fill: #DB3F29; stroke: #fff; opacity: 1;" id="p-type-functions"></path><path d="M127.07339921571531,-150.53687658432216A197,197,0,0,1,128.79510389078462,-149.06649930068792L111.53983185247547,-129.095375247611A170.6070045455344,170.6070045455344,0,0,0,110.04879186605102,-130.3687593283858Z" fill-rule="evenodd" style="fill: #DB3F29; stroke: #fff; opacity: 1;" id="p-type-functions"></path><path d="M128.79510389078462,-149.06649930068792A197,197,0,0,1,130.49979603540098,-147.57643184031366L113.01613855534502,-127.80493897357432A170.6070045455344,170.6070045455344,0,0,0,111.53983185247547,-129.095375247611Z" fill-rule="evenodd" style="fill: #DB3F29; stroke: #fff; opacity: 1;" id="p-type-functions"></path><path d="M130.49979603540098,-147.57643184031366A197,197,0,0,1,132.18725047697518,-146.06687102603868L114.47751696947716,-126.49762095985467A170.6070045455344,170.6070045455344,0,0,0,113.01613855534502,-127.80493897357432Z" fill-rule="evenodd" style="fill: #DB3F29; stroke: #fff; opacity: 1;" id="p-type-functions"></path><path d="M132.18725047697518,-146.06687102603868A197,197,0,0,1,133.27800829975004,-145.07230095249665L115.42214095337678,-125.63629801032351A170.6070045455344,170.6070045455344,0,0,0,114.47751696947716,-126.49762095985467Z" fill-rule="evenodd" style="fill: #DB3F29; stroke: #fff; opacity: 1;" id="p-type-functions"></path><path d="M133.27800829975004,-145.07230095249665A197,197,0,0,1,134.10946831233156,-144.304021111623L116.14220644650332,-124.97094815091147A170.6070045455344,170.6070045455344,0,0,0,115.42214095337678,-125.63629801032351Z" fill-rule="evenodd" style="fill: #DB3F29; stroke: #fff; opacity: 1;" id="p-type-functions"></path><path d="M194.483064549451,31.390087662414782A197,197,0,0,1,194.10945846433924,33.62317853328198L168.1037221449581,29.118526765801796A170.6070045455344,170.6070045455344,0,0,0,168.42727450567332,27.18461334267169Z" fill-rule="evenodd" style="fill: #1DC690; stroke: #fff; opacity: 1;" id="p-type-logs"></path><path d="M194.10945846433924,33.62317853328198A197,197,0,0,1,193.71021248319445,35.85182812236561L167.7579649829279,31.048593926081974A170.6070045455344,170.6070045455344,0,0,0,168.1037221449581,29.118526765801796Z" fill-rule="evenodd" style="fill: #1DC690; stroke: #fff; opacity: 1;" id="p-type-logs"></path><path d="M193.71021248319445,35.85182812236561A197,197,0,0,1,193.28537934237235,38.07574204759791L167.39004869060642,32.97455988116311A170.6070045455344,170.6070045455344,0,0,0,167.7579649829279,31.048593926081974Z" fill-rule="evenodd" style="fill: #1DC690; stroke: #fff; opacity: 1;" id="p-type-logs"></path><path d="M193.28537934237235,38.07574204759791A197,197,0,0,1,192.8350151580336,40.294626552444385L167.00002186601438,34.89617023042381A170.6070045455344,170.6070045455344,0,0,0,167.39004869060642,32.97455988116311Z" fill-rule="evenodd" style="fill: #1DC690; stroke: #fff; opacity: 1;" id="p-type-logs"></path><path d="M192.8350151580336,40.294626552444385A197,197,0,0,1,192.35917941873146,42.50818854470611L166.58793602775017,36.813171148574156A170.6070045455344,170.6070045455344,0,0,0,167.00002186601438,34.89617023042381Z" fill-rule="evenodd" style="fill: #1DC690; stroke: #fff; opacity: 1;" id="p-type-logs"></path><path d="M192.35917941873146,42.50818854470611A197,197,0,0,1,191.85793497755398,44.71613563523424L166.15384560818475,38.72530941918345A170.6070045455344,170.6070045455344,0,0,0,166.58793602775017,36.813171148574156Z" fill-rule="evenodd" style="fill: #1DC690; stroke: #fff; opacity: 1;" id="p-type-logs"></path><path d="M191.85793497755398,44.71613563523424A197,197,0,0,1,191.33134804382178,46.91817617655163L165.69780794627172,40.63233246812756A170.6070045455344,170.6070045455344,0,0,0,166.15384560818475,38.72530941918345Z" fill-rule="evenodd" style="fill: #1DC690; stroke: #fff; opacity: 1;" id="p-type-logs"></path><path d="M191.33134804382178,46.91817617655163A197,197,0,0,1,190.7794881743423,49.11401930137658L165.21988327997332,42.533988396951365A170.6070045455344,170.6070045455344,0,0,0,165.69780794627172,40.63233246812756Z" fill-rule="evenodd" style="fill: #1DC690; stroke: #fff; opacity: 1;" id="p-type-logs"></path><path d="M190.7794881743423,49.11401930137658A197,197,0,0,1,190.2024282642222,51.30337496104338L164.72013473830376,44.43002601614206A170.6070045455344,170.6070045455344,0,0,0,165.21988327997332,42.533988396951365Z" fill-rule="evenodd" style="fill: #1DC690; stroke: #fff; opacity: 1;" id="p-type-logs"></path><path d="M190.2024282642222,51.30337496104338A197,197,0,0,1,189.6002445372386,53.48595396381489L164.19862833299035,46.32019487830869A170.6070045455344,170.6070045455344,0,0,0,164.72013473830376,44.43002601614206Z" fill-rule="evenodd" style="fill: #1DC690; stroke: #fff; opacity: 1;" id="p-type-logs"></path><path d="M189.6002445372386,53.48595396381489A197,197,0,0,1,188.9730165357707,55.661468013081766L163.65543294975424,48.204245311263755A170.6070045455344,170.6070045455344,0,0,0,164.19862833299035,46.32019487830869Z" fill-rule="evenodd" style="fill: #1DC690; stroke: #fff; opacity: 1;" id="p-type-logs"></path><path d="M188.9730165357707,55.661468013081766A197,197,0,0,1,188.32082711029312,57.82962974544355L163.09062033921106,50.081928451002334A170.6070045455344,170.6070045455344,0,0,0,163.65543294975424,48.204245311263755Z" fill-rule="evenodd" style="fill: #1DC690; stroke: #fff; opacity: 1;" id="p-type-logs"></path><path d="M188.32082711029312,57.82962974544355A197,197,0,0,1,187.6437624084319,59.99015276866653L162.50426510739354,51.95299627457459A170.6070045455344,170.6070045455344,0,0,0,163.09062033921106,50.081928451002334Z" fill-rule="evenodd" style="fill: #1DC690; stroke: #fff; opacity: 1;" id="p-type-logs"></path><path d="M187.6437624084319,59.99015276866653A197,197,0,0,1,186.94191186358574,62.14275169951315L161.89644470589678,53.81720163284698A170.6070045455344,170.6070045455344,0,0,0,162.50426510739354,51.95299627457459Z" fill-rule="evenodd" style="fill: #1DC690; stroke: #fff; opacity: 1;" id="p-type-logs"></path><path d="M186.94191186358574,62.14275169951315A197,197,0,0,1,186.21536818311222,64.28714220143833L161.26723942164767,55.674298283148254A170.6070045455344,170.6070045455344,0,0,0,161.89644470589678,53.81720163284698Z" fill-rule="evenodd" style="fill: #1DC690; stroke: #fff; opacity: 1;" id="p-type-logs"></path><path d="M186.21536818311222,64.28714220143833A197,197,0,0,1,185.4642273360826,66.42304102214743L160.61673236629986,57.52404092179555A170.6070045455344,170.6070045455344,0,0,0,161.26723942164767,55.674298283148254Z" fill-rule="evenodd" style="fill: #1DC690; stroke: #fff; opacity: 1;" id="p-type-logs"></path><path d="M185.4642273360826,66.42304102214743A197,197,0,0,1,184.68858854060483,68.55016603101096L159.94500946525534,59.366185216496575A170.6070045455344,170.6070045455344,0,0,0,160.61673236629986,57.52404092179555Z" fill-rule="evenodd" style="fill: #1DC690; stroke: #fff; opacity: 1;" id="p-type-logs"></path><path d="M184.68858854060483,68.55016603101096A197,197,0,0,1,183.88855425071822,70.6682362563313L159.2521594463149,61.200487838623424A170.6070045455344,170.6070045455344,0,0,0,159.94500946525534,59.366185216496575Z" fill-rule="evenodd" style="fill: #1DC690; stroke: #fff; opacity: 1;" id="p-type-logs"></path><path d="M183.88855425071822,70.6682362563313A197,197,0,0,1,183.06423014286005,72.7769719224561L158.5382738279578,63.02670649535379A170.6070045455344,170.6070045455344,0,0,0,159.2521594463149,61.200487838623424Z" fill-rule="evenodd" style="fill: #1DC690; stroke: #fff; opacity: 1;" id="p-type-logs"></path><path d="M183.06423014286005,72.7769719224561A197,197,0,0,1,182.2157251019069,74.87609448673385L157.8034469072532,64.84459996167546A170.6070045455344,170.6070045455344,0,0,0,158.5382738279578,63.02670649535379Z" fill-rule="evenodd" style="fill: #1DC690; stroke: #fff; opacity: 1;" id="p-type-logs"></path><path d="M182.2157251019069,74.87609448673385A197,197,0,0,1,181.34315120679196,76.96532667630656L157.0477757474045,66.65392811224962A170.6070045455344,170.6070045455344,0,0,0,157.8034469072532,64.84459996167546Z" fill-rule="evenodd" style="fill: #1DC690; stroke: #fff; opacity: 1;" id="p-type-logs"></path><path d="M181.34315120679196,76.96532667630656A197,197,0,0,1,180.44662371570064,79.04439252473475L156.27136016492832,68.45445195312907A170.6070045455344,170.6070045455344,0,0,0,157.0477757474045,66.65392811224962Z" fill-rule="evenodd" style="fill: #1DC690; stroke: #fff; opacity: 1;" id="p-type-logs"></path><path d="M180.44662371570064,79.04439252473475A197,197,0,0,1,179.52626105084607,81.1130174084497L155.4743027164695,70.24593365332686A170.6070045455344,170.6070045455344,0,0,0,156.27136016492832,68.45445195312907Z" fill-rule="evenodd" style="fill: #1DC690; stroke: #fff; opacity: 1;" id="p-type-logs"></path><path d="M179.52626105084607,81.1130174084497A197,197,0,0,1,178.58218478282677,83.17092808302857L154.65670868525478,72.02813657623133A170.6070045455344,170.6070045455344,0,0,0,155.4743027164695,70.24593365332686Z" fill-rule="evenodd" style="fill: #1DC690; stroke: #fff; opacity: 1;" id="p-type-logs"></path><path d="M178.58218478282677,83.17092808302857A197,197,0,0,1,177.61451961456834,85.21785271928715L153.81868606718564,73.80082531086347A170.6070045455344,170.6070045455344,0,0,0,154.65670868525478,72.02813657623133Z" fill-rule="evenodd" style="fill: #1DC690; stroke: #fff; opacity: 1;" id="p-type-logs"></path><path d="M177.61451961456834,85.21785271928715A197,197,0,0,1,176.6233933648515,87.25352093918575L152.96034555657326,75.5637657029723A170.6070045455344,170.6070045455344,0,0,0,153.81868606718564,73.80082531086347Z" fill-rule="evenodd" style="fill: #1DC690; stroke: #fff; opacity: 1;" id="p-type-logs"></path><path d="M176.6233933648515,87.25352093918575A197,197,0,0,1,175.60893695142857,89.27766385154347L152.08180053151693,77.3167248859643A170.6070045455344,170.6070045455344,0,0,0,152.96034555657326,75.5637657029723Z" fill-rule="evenodd" style="fill: #1DC690; stroke: #fff; opacity: 1;" id="p-type-logs"></path><path d="M175.60893695142857,89.27766385154347A197,197,0,0,1,174.57128437373038,91.29001408755589L151.18316703892793,79.05947131166268A170.6070045455344,170.6070045455344,0,0,0,152.08180053151693,77.3167248859643Z" fill-rule="evenodd" style="fill: #1DC690; stroke: #fff; opacity: 1;" id="p-type-logs"></path><path d="M174.57128437373038,91.29001408755589A197,197,0,0,1,173.51057269516662,93.29030583611193L150.26456377920087,80.7917747808926A170.6070045455344,170.6070045455344,0,0,0,151.18316703892793,79.05947131166268Z" fill-rule="evenodd" style="fill: #1DC690; stroke: #fff; opacity: 1;" id="p-type-logs"></path><path d="M173.51057269516662,93.29030583611193A197,197,0,0,1,172.4269420250208,95.27827487890464L149.32611209053462,82.51340647388812A170.6070045455344,170.6070045455344,0,0,0,150.26456377920087,80.7917747808926Z" fill-rule="evenodd" style="fill: #1DC690; stroke: #fff; opacity: 1;" id="p-type-logs"></path><path d="M172.4269420250208,95.27827487890464A197,197,0,0,1,171.32053549994347,97.25365862533197L148.3679359329048,84.22413898051707A170.6070045455344,170.6070045455344,0,0,0,149.32611209053462,82.51340647388812Z" fill-rule="evenodd" style="fill: #1DC690; stroke: #fff; opacity: 1;" id="p-type-logs"></path><path d="M171.32053549994347,97.25365862533197A197,197,0,0,1,170.19149926504522,99.2161961471821L147.39016187168977,85.92374633031945A170.6070045455344,170.6070045455344,0,0,0,148.3679359329048,84.22413898051707Z" fill-rule="evenodd" style="fill: #1DC690; stroke: #fff; opacity: 1;" id="p-type-logs"></path><path d="M170.19149926504522,99.2161961471821A197,197,0,0,1,169.0399824545924,101.16562821309962L146.3929190609528,87.612004022356A170.6070045455344,170.6070045455344,0,0,0,147.39016187168977,85.92374633031945Z" fill-rule="evenodd" style="fill: #1DC690; stroke: #fff; opacity: 1;" id="p-type-logs"></path><path d="M169.0399824545924,101.16562821309962A197,197,0,0,1,167.866137172308,103.10169732282725L145.376339226382,89.28868905486245A170.6070045455344,170.6070045455344,0,0,0,146.3929190609528,87.612004022356Z" fill-rule="evenodd" style="fill: #1DC690; stroke: #fff; opacity: 1;" id="p-type-logs"></path><path d="M167.866137172308,103.10169732282725A197,197,0,0,1,166.67011847128023,105.02414774121905L144.34055664789068,90.95357995470577A170.6070045455344,170.6070045455344,0,0,0,145.376339226382,89.28868905486245Z" fill-rule="evenodd" style="fill: #1DC690; stroke: #fff; opacity: 1;" id="p-type-logs"></path><path d="M166.67011847128023,105.02414774121905A197,197,0,0,1,165.4520843334818,106.93272553202048L143.28570814188055,92.60645680663859A170.6070045455344,170.6070045455344,0,0,0,144.34055664789068,90.95357995470577Z" fill-rule="evenodd" style="fill: #1DC690; stroke: #fff; opacity: 1;" id="p-type-logs"></path><path d="M165.4520843334818,106.93272553202048A197,197,0,0,1,164.2121956489017,108.8271785914108L142.21193304316935,94.24710128234774A170.6070045455344,170.6070045455344,0,0,0,143.28570814188055,92.60645680663859Z" fill-rule="evenodd" style="fill: #1DC690; stroke: #fff; opacity: 1;" id="p-type-logs"></path><path d="M164.2121956489017,108.8271785914108A197,197,0,0,1,162.95061619429373,110.7072566813033L141.1193731865863,95.87529666929319A170.6070045455344,170.6070045455344,0,0,0,142.21193304316935,94.24710128234774Z" fill-rule="evenodd" style="fill: #1DC690; stroke: #fff; opacity: 1;" id="p-type-logs"></path><path d="M162.95061619429373,110.7072566813033A197,197,0,0,1,161.6675126115428,112.5727114623995L140.00817288823717,97.49082789933362A170.6070045455344,170.6070045455344,0,0,0,141.1193731865863,95.87529666929319Z" fill-rule="evenodd" style="fill: #1DC690; stroke: #fff; opacity: 1;" id="p-type-logs"></path><path d="M161.6675126115428,112.5727114623995A197,197,0,0,1,160.36305438565353,114.42329652699195L138.8784789264415,99.09348157713475A170.6070045455344,170.6070045455344,0,0,0,140.00817288823717,97.49082789933362Z" fill-rule="evenodd" style="fill: #1DC690; stroke: #fff; opacity: 1;" id="p-type-logs"></path><path d="M160.36305438565353,114.42329652699195A197,197,0,0,1,159.03741382236285,116.25876743151248L137.73044052234465,100.68304600835674A170.6070045455344,170.6070045455344,0,0,0,138.8784789264415,99.09348157713475Z" fill-rule="evenodd" style="fill: #1DC690; stroke: #fff; opacity: 1;" id="p-type-logs"></path><path d="M159.03741382236285,116.25876743151248A197,197,0,0,1,157.6907660253803,118.07888172882045L136.56420932020742,102.25931122761669A170.6070045455344,170.6070045455344,0,0,0,137.73044052234465,100.68304600835674Z" fill-rule="evenodd" style="fill: #1DC690; stroke: #fff; opacity: 1;" id="p-type-logs"></path><path d="M157.6907660253803,118.07888172882045A197,197,0,0,1,156.32328887325838,119.88339900022778L135.37993936737502,103.82206902622323A170.6070045455344,170.6070045455344,0,0,0,136.56420932020742,102.25931122761669Z" fill-rule="evenodd" style="fill: #1DC690; stroke: #fff; opacity: 1;" id="p-type-logs"></path><path d="M156.32328887325838,119.88339900022778A197,197,0,0,1,154.93516299589675,121.67208088725576L134.1777870939293,105.37111297967854A170.6070045455344,170.6070045455344,0,0,0,135.37993936737502,103.82206902622323Z" fill-rule="evenodd" style="fill: #1DC690; stroke: #fff; opacity: 1;" id="p-type-logs"></path><path d="M154.93516299589675,121.67208088725576A197,197,0,0,1,153.52657175068285,123.44469112311971L132.9579112920257,106.90623847494506A170.6070045455344,170.6070045455344,0,0,0,134.1777870939293,105.37111297967854Z" fill-rule="evenodd" style="fill: #1DC690; stroke: #fff; opacity: 1;" id="p-type-logs"></path><path d="M153.52657175068285,123.44469112311971A197,197,0,0,1,152.09770119827218,125.20099556393757L131.72047309491856,108.42724273747274A170.6070045455344,170.6070045455344,0,0,0,132.9579112920257,106.90623847494506Z" fill-rule="evenodd" style="fill: #1DC690; stroke: #fff; opacity: 1;" id="p-type-logs"></path><path d="M152.09770119827218,125.20099556393757A197,197,0,0,1,150.64874007801157,126.94076221965783L130.46563595567693,109.93392485798358A170.6070045455344,170.6070045455344,0,0,0,131.72047309491856,108.42724273747274Z" fill-rule="evenodd" style="fill: #1DC690; stroke: #fff; opacity: 1;" id="p-type-logs"></path><path d="M150.64874007801157,126.94076221965783A197,197,0,0,1,149.1798797830087,128.66376128470313L129.19356562559412,111.42608581900966A170.6070045455344,170.6070045455344,0,0,0,130.46563595567693,109.93392485798358Z" fill-rule="evenodd" style="fill: #1DC690; stroke: #fff; opacity: 1;" id="p-type-logs"></path><path d="M149.1798797830087,128.66376128470313A197,197,0,0,1,147.69131433485092,130.36976516832522L127.90443013229371,112.9035285211813A170.6070045455344,170.6070045455344,0,0,0,129.19356562559412,111.42608581900966Z" fill-rule="evenodd" style="fill: #1DC690; stroke: #fff; opacity: 1;" id="p-type-logs"></path><path d="M147.69131433485092,130.36976516832522A197,197,0,0,1,146.18324035797693,132.05854852466743L126.59839975753461,114.36605780926199A170.6070045455344,170.6070045455344,0,0,0,127.90443013229371,112.9035285211813Z" fill-rule="evenodd" style="fill: #1DC690; stroke: #fff; opacity: 1;" id="p-type-logs"></path><path d="M146.18324035797693,132.05854852466743A197,197,0,0,1,144.6558570537049,133.72988828253054L125.27564701471881,115.81348049792639A170.6070045455344,170.6070045455344,0,0,0,126.59839975753461,114.36605780926199Z" fill-rule="evenodd" style="fill: #1DC690; stroke: #fff; opacity: 1;" id="p-type-logs"></path><path d="M144.6558570537049,133.72988828253054A197,197,0,0,1,143.10936617391965,135.38356367483826L123.93634662610386,117.24560539727806A170.6070045455344,170.6070045455344,0,0,0,125.27564701471881,115.81348049792639Z" fill-rule="evenodd" style="fill: #1DC690; stroke: #fff; opacity: 1;" id="p-type-logs"></path><path d="M143.10936617391965,135.38356367483826A197,197,0,0,1,141.54397199442363,137.01935626779823L122.580675499724,118.66224333810382A170.6070045455344,170.6070045455344,0,0,0,123.93634662610386,117.24560539727806Z" fill-rule="evenodd" style="fill: #1DC690; stroke: #fff; opacity: 1;" id="p-type-logs"></path><path d="M141.54397199442363,137.01935626779823A197,197,0,0,1,139.9598812879538,138.63704998975518L121.20881270602229,120.06320719686114A170.6070045455344,170.6070045455344,0,0,0,122.580675499724,118.66224333810382Z" fill-rule="evenodd" style="fill: #1DC690; stroke: #fff; opacity: 1;" id="p-type-logs"></path><path d="M139.9598812879538,138.63704998975518A197,197,0,0,1,138.3573032968694,140.23643115973147L119.82093945419734,121.44831192039507A170.6070045455344,170.6070045455344,0,0,0,121.20881270602229,120.06320719686114Z" fill-rule="evenodd" style="fill: #1DC690; stroke: #fff; opacity: 1;" id="p-type-logs"></path><path d="M138.3573032968694,140.23643115973147A197,197,0,0,1,136.73644970551274,141.81728851565236L118.41723906826726,122.81737455038207A170.6070045455344,170.6070045455344,0,0,0,119.82093945419734,121.44831192039507Z" fill-rule="evenodd" style="fill: #1DC690; stroke: #fff; opacity: 1;" id="p-type-logs"></path><path d="M136.73644970551274,141.81728851565236A197,197,0,0,1,135.0975346122483,143.37941324225167L116.99789696285451,124.17021424749689A170.6070045455344,170.6070045455344,0,0,0,118.41723906826726,122.81737455038207Z" fill-rule="evenodd" style="fill: #1DC690; stroke: #fff; opacity: 1;" id="p-type-logs"></path><path d="M135.0975346122483,143.37941324225167A197,197,0,0,1,133.44077450118215,144.92259899865397L115.56310061869448,125.50665231529958A170.6070045455344,170.6070045455344,0,0,0,116.99789696285451,124.17021424749689Z" fill-rule="evenodd" style="fill: #1DC690; stroke: #fff; opacity: 1;" id="p-type-logs"></path><path d="M133.44077450118215,144.92259899865397A197,197,0,0,1,131.76638821356667,146.4466419456303L114.11303955787118,126.82651222383957A170.6070045455344,170.6070045455344,0,0,0,115.56310061869448,125.50665231529958Z" fill-rule="evenodd" style="fill: #1DC690; stroke: #fff; opacity: 1;" id="p-type-logs"></path><path d="M131.76638821356667,146.4466419456303A197,197,0,0,1,130.074596918894,147.9513407725231L112.64790531878326,128.1296196329734A170.6070045455344,170.6070045455344,0,0,0,114.11303955787118,126.82651222383957Z" fill-rule="evenodd" style="fill: #1DC690; stroke: #fff; opacity: 1;" id="p-type-logs"></path><path d="M130.074596918894,147.9513407725231A197,197,0,0,1,128.36562408568153,149.4364967238375L111.1678914308438,129.4158024153933A170.6070045455344,170.6070045455344,0,0,0,112.64790531878326,128.1296196329734Z" fill-rule="evenodd" style="fill: #1DC690; stroke: #fff; opacity: 1;" id="p-type-logs"></path><path d="M128.36562408568153,149.4364967238375A197,197,0,0,1,126.63969545195417,150.9019136254948L109.67319338891694,130.68489067936363A170.6070045455344,170.6070045455344,0,0,0,111.1678914308438,129.4158024153933Z" fill-rule="evenodd" style="fill: #1DC690; stroke: #fff; opacity: 1;" id="p-type-logs"></path><path d="M126.63969545195417,150.9019136254948A197,197,0,0,1,124.89703899542656,152.3473979107451L108.16400862749506,131.93671679116156A170.6070045455344,170.6070045455344,0,0,0,109.67319338891694,130.68489067936363Z" fill-rule="evenodd" style="fill: #1DC690; stroke: #fff; opacity: 1;" id="p-type-logs"></path><path d="M124.89703899542656,152.3473979107451A197,197,0,0,1,123.13788490338949,153.77275864573545L106.64053649461962,133.17111539722006A170.6070045455344,170.6070045455344,0,0,0,108.16400862749506,131.93671679116156Z" fill-rule="evenodd" style="fill: #1DC690; stroke: #fff; opacity: 1;" id="p-type-logs"></path><path d="M123.13788490338949,153.77275864573545A197,197,0,0,1,121.36246554230459,155.17780755473038L105.10297822554935,134.38792344596928A170.6070045455344,170.6070045455344,0,0,0,106.64053649461962,133.17111539722006Z" fill-rule="evenodd" style="fill: #1DC690; stroke: #fff; opacity: 1;" id="p-type-logs"></path><path d="M121.36246554230459,155.17780755473038A197,197,0,0,1,119.57101542711096,156.56235904498115L103.55153691617912,135.58698020937405A170.6070045455344,170.6070045455344,0,0,0,105.10297822554935,134.38792344596928Z" fill-rule="evenodd" style="fill: #1DC690; stroke: #fff; opacity: 1;" id="p-type-logs"></path><path d="M-20.904711218076642,195.887705200936A197,197,0,0,1,-23.154637914565193,195.63451316944406L-20.05250464944379,169.42445826173986A170.6070045455344,170.6070045455344,0,0,0,-18.104010973631908,169.6437289930477Z" fill-rule="evenodd" style="fill: #D7A449; stroke: #fff; opacity: 1;" id="p-type-tokenTransfers"></path><path d="M-23.154637914565193,195.63451316944406A197,197,0,0,1,-25.401506117595932,195.3554797976185L-21.998349592223907,169.1828082732353A170.6070045455344,170.6070045455344,0,0,0,-20.05250464944379,169.42445826173986Z" fill-rule="evenodd" style="fill: #D7A449; stroke: #fff; opacity: 1;" id="p-type-tokenTransfers"></path><path d="M-25.401506117595932,195.3554797976185A197,197,0,0,1,-27.64501903860646,195.0506419429454L-23.94128877553765,168.91881094705323A170.6070045455344,170.6070045455344,0,0,0,-21.998349592223907,169.1828082732353Z" fill-rule="evenodd" style="fill: #D7A449; stroke: #fff; opacity: 1;" id="p-type-tokenTransfers"></path><path d="M-27.64501903860646,195.0506419429454A197,197,0,0,1,-29.884880332233195,194.72003987142182L-25.881065556771883,168.63250115457006A170.6070045455344,170.6070045455344,0,0,0,-23.94128877553765,168.91881094705323Z" fill-rule="evenodd" style="fill: #D7A449; stroke: #fff; opacity: 1;" id="p-type-tokenTransfers"></path><path d="M-29.884880332233195,194.72003987142182A197,197,0,0,1,-32.12079413545559,194.3637172522374L-27.817423711034756,168.32391671441334A170.6070045455344,170.6070045455344,0,0,0,-25.881065556771883,168.63250115457006Z" fill-rule="evenodd" style="fill: #D7A449; stroke: #fff; opacity: 1;" id="p-type-tokenTransfers"></path><path d="M-32.12079413545559,194.3637172522374A197,197,0,0,1,-34.35246510667667,193.98172115200586L-29.750107465000504,167.99309838746626A170.6070045455344,170.6070045455344,0,0,0,-27.817423711034756,168.32391671441334Z" fill-rule="evenodd" style="fill: #D7A449; stroke: #fff; opacity: 1;" id="p-type-tokenTransfers"></path><path d="M-34.35246510667667,193.98172115200586A197,197,0,0,1,-36.57959846473462,193.5741020285482L-31.678861530694437,167.64008987148358A170.6070045455344,170.6070045455344,0,0,0,-29.750107465000504,167.99309838746626Z" fill-rule="evenodd" style="fill: #D7A449; stroke: #fff; opacity: 1;" id="p-type-tokenTransfers"></path><path d="M-36.57959846473462,193.5741020285482A197,197,0,0,1,-38.80190002784046,193.14091372422746L-33.60343113921395,167.2649377953195A170.6070045455344,170.6070045455344,0,0,0,-31.678861530694437,167.64008987148358Z" fill-rule="evenodd" style="fill: #D7A449; stroke: #fff; opacity: 1;" id="p-type-tokenTransfers"></path><path d="M-38.80190002784046,193.14091372422746A197,197,0,0,1,-41.01907625243642,192.68221345883694L-35.523562074380926,166.86769171276867A170.6070045455344,170.6070045455344,0,0,0,-33.60343113921395,167.2649377953195Z" fill-rule="evenodd" style="fill: #D7A449; stroke: #fff; opacity: 1;" id="p-type-tokenTransfers"></path><path d="M-41.01907625243642,192.68221345883694A197,197,0,0,1,-43.23083427197012,192.19806182204195L-37.43900070632107,166.44840409602037A170.6070045455344,170.6070045455344,0,0,0,-35.523562074380926,166.86769171276867Z" fill-rule="evenodd" style="fill: #D7A449; stroke: #fff; opacity: 1;" id="p-type-tokenTransfers"></path><path d="M-43.23083427197012,192.19806182204195A197,197,0,0,1,-45.43688193557925,191.6885227653764L-39.349494024965885,166.00713032872767A170.6070045455344,170.6070045455344,0,0,0,-37.43900070632107,166.44840409602037Z" fill-rule="evenodd" style="fill: #D7A449; stroke: #fff; opacity: 1;" id="p-type-tokenTransfers"></path><path d="M-45.43688193557925,191.6885227653764A197,197,0,0,1,-47.63692784668178,191.15366359379576L-41.25478967347276,165.5439286986917A170.6070045455344,170.6070045455344,0,0,0,-39.349494024965885,166.00713032872767Z" fill-rule="evenodd" style="fill: #D7A449; stroke: #fff; opacity: 1;" id="p-type-tokenTransfers"></path><path d="M-47.63692784668178,191.15366359379576A197,197,0,0,1,-49.83068140146645,190.59355495678636L-43.1546359815587,165.05886039016252A170.6070045455344,170.6070045455344,0,0,0,-41.25478967347276,165.5439286986917Z" fill-rule="evenodd" style="fill: #D7A449; stroke: #fff; opacity: 1;" id="p-type-tokenTransfers"></path><path d="M-49.83068140146645,190.59355495678636A197,197,0,0,1,-52.01785282727866,190.00827083903368L-45.0487819987435,164.55198947575713A170.6070045455344,170.6070045455344,0,0,0,-43.1546359815587,165.05886039016252Z" fill-rule="evenodd" style="fill: #D7A449; stroke: #fff; opacity: 1;" id="p-type-tokenTransfers"></path><path d="M-52.01785282727866,190.00827083903368A197,197,0,0,1,-54.19815322089641,189.39788855064947L-46.93697752749769,164.0233829079963A170.6070045455344,170.6070045455344,0,0,0,-45.0487819987435,164.55198947575713Z" fill-rule="evenodd" style="fill: #D7A449; stroke: #fff; opacity: 1;" id="p-type-tokenTransfers"></path><path d="M-54.19815322089641,189.39788855064947A197,197,0,0,1,-56.37129458669161,188.76248871695995L-48.81897315629114,163.47311051046077A170.6070045455344,170.6070045455344,0,0,0,-46.93697752749769,164.0233829079963Z" fill-rule="evenodd" style="fill: #D7A449; stroke: #fff; opacity: 1;" id="p-type-tokenTransfers"></path><path d="M-56.37129458669161,188.76248871695995A197,197,0,0,1,-58.53698987467132,188.10215526785606L-50.694520292537824,162.90124496856822A170.6070045455344,170.6070045455344,0,0,0,-48.81897315629114,163.47311051046077Z" fill-rule="evenodd" style="fill: #D7A449; stroke: #fff; opacity: 1;" id="p-type-tokenTransfers"></path><path d="M-58.53698987467132,188.10215526785606A197,197,0,0,1,-60.694953018394116,187.4169754267071L-52.563371195432296,162.30786181997223A170.6070045455344,170.6070045455344,0,0,0,-50.694520292537824,162.90124496856822Z" fill-rule="evenodd" style="fill: #D7A449; stroke: #fff; opacity: 1;" id="p-type-tokenTransfers"></path><path d="M-60.694953018394116,187.4169754267071A197,197,0,0,1,-62.84489897275667,186.70703969883942L-54.42527900867385,161.69303944458463A170.6070045455344,170.6070045455344,0,0,0,-52.563371195432296,162.30786181997223Z" fill-rule="evenodd" style="fill: #D7A449; stroke: #fff; opacity: 1;" id="p-type-tokenTransfers"></path><path d="M-62.84489897275667,186.70703969883942A197,197,0,0,1,-64.98654375164526,185.9724418595817L-56.279997793073676,161.0568590542223A170.6070045455344,170.6070045455344,0,0,0,-54.42527900867385,161.69303944458463Z" fill-rule="evenodd" style="fill: #D7A449; stroke: #fff; opacity: 1;" id="p-type-tokenTransfers"></path><path d="M-64.98654375164526,185.9724418595817A197,197,0,0,1,-67.11960446544748,185.21327894187795L-58.127282559040964,160.3994046818797A170.6070045455344,170.6070045455344,0,0,0,-56.279997793073676,161.0568590542223Z" fill-rule="evenodd" style="fill: #D7A449; stroke: #fff; opacity: 1;" id="p-type-tokenTransfers"></path><path d="M-67.11960446544748,185.21327894187795A197,197,0,0,1,-69.24379935841908,184.42965122347056L-59.966889298943535,159.72076317062928A170.6070045455344,170.6070045455344,0,0,0,-58.127282559040964,160.3994046818797Z" fill-rule="evenodd" style="fill: #D7A449; stroke: #fff; opacity: 1;" id="p-type-tokenTransfers"></path><path d="M-69.24379935841908,184.42965122347056A197,197,0,0,1,-71.35884784590105,183.6216622136548L-61.79857501933878,159.02102416215018A170.6070045455344,170.6070045455344,0,0,0,-59.966889298943535,159.72076317062928Z" fill-rule="evenodd" style="fill: #D7A449; stroke: #fff; opacity: 1;" id="p-type-tokenTransfers"></path><path d="M-71.35884784590105,183.6216622136548A197,197,0,0,1,-73.46447055138208,182.7894186396059L-63.62209777307067,158.3002800848875A170.6070045455344,170.6070045455344,0,0,0,-61.79857501933878,159.02102416215018Z" fill-rule="evenodd" style="fill: #D7A449; stroke: #fff; opacity: 1;" id="p-type-tokenTransfers"></path><path d="M-73.46447055138208,182.7894186396059A197,197,0,0,1,-75.5603893434013,181.9330304322819L-65.4372166912285,157.5586261418435A170.6070045455344,170.6070045455344,0,0,0,-63.62209777307067,158.3002800848875Z" fill-rule="evenodd" style="fill: #D7A449; stroke: #fff; opacity: 1;" id="p-type-tokenTransfers"></path><path d="M-75.5603893434013,181.9330304322819A197,197,0,0,1,-77.64632737228659,181.05261071190247L-67.24369201496322,156.79616029800212A170.6070045455344,170.6070045455344,0,0,0,-65.4372166912285,157.5586261418435Z" fill-rule="evenodd" style="fill: #D7A449; stroke: #fff; opacity: 1;" id="p-type-tokenTransfers"></path><path d="M-77.64632737228659,181.05261071190247A197,197,0,0,1,-79.7220091067238,180.14827577300719L-69.04128512715717,156.01298326738896A170.6070045455344,170.6070045455344,0,0,0,-67.24369201496322,156.79616029800212Z" fill-rule="evenodd" style="fill: #D7A449; stroke: #fff; opacity: 1;" id="p-type-tokenTransfers"></path><path d="M-79.7220091067238,180.14827577300719A197,197,0,0,1,-81.78716037015141,179.22014506909412L-70.82975858394302,155.2091984997679A170.6070045455344,170.6070045455344,0,0,0,-69.04128512715717,156.01298326738896Z" fill-rule="evenodd" style="fill: #D7A449; stroke: #fff; opacity: 1;" id="p-type-tokenTransfers"></path><path d="M-81.78716037015141,179.22014506909412A197,197,0,0,1,-83.8415083769767,178.26834119684108L-72.60887614606764,154.38491216697636A170.6070045455344,170.6070045455344,0,0,0,-70.82975858394302,155.2091984997679Z" fill-rule="evenodd" style="fill: #D7A449; stroke: #fff; opacity: 1;" id="p-type-tokenTransfers"></path><path d="M-83.8415083769767,178.26834119684108A197,197,0,0,1,-85.88478176860784,177.29298987991208L-74.378402810097,153.54023314890125A170.6070045455344,170.6070045455344,0,0,0,-72.60887614606764,154.38491216697636Z" fill-rule="evenodd" style="fill: #D7A449; stroke: #fff; opacity: 1;" id="p-type-tokenTransfers"></path><path d="M-85.88478176860784,177.29298987991208A197,197,0,0,1,-87.91671064929761,176.29421995235035L-76.13810483945763,152.67527301909684A170.6070045455344,170.6070045455344,0,0,0,-74.378402810097,153.54023314890125Z" fill-rule="evenodd" style="fill: #D7A449; stroke: #fff; opacity: 1;" id="p-type-tokenTransfers"></path><path d="M-87.91671064929761,176.29421995235035A197,197,0,0,1,-89.937026621794,175.27216334156066L-77.88774979531095,151.79014603004714A170.6070045455344,170.6070045455344,0,0,0,-76.13810483945763,152.67527301909684Z" fill-rule="evenodd" style="fill: #D7A449; stroke: #fff; opacity: 1;" id="p-type-tokenTransfers"></path><path d="M-89.937026621794,175.27216334156066A197,197,0,0,1,-91.94546282279265,174.22695505088313L-79.62710656725609,150.88496909807432A170.6070045455344,170.6070045455344,0,0,0,-77.88774979531095,151.79014603004714Z" fill-rule="evenodd" style="fill: #D7A449; stroke: #fff; opacity: 1;" id="p-type-tokenTransfers"></path><path d="M-91.94546282279265,174.22695505088313A197,197,0,0,1,-93.9417539581869,173.15873314176065L-81.35594540385719,149.9598617878951A170.6070045455344,170.6070045455344,0,0,0,-79.62710656725609,150.88496909807432Z" fill-rule="evenodd" style="fill: #D7A449; stroke: #fff; opacity: 1;" id="p-type-tokenTransfers"></path><path d="M-152.8157240836909,124.3235877570192A197,197,0,0,1,-157.1292579017527,118.8250660056391L-136.07792902071458,102.90552576724617A170.6070045455344,170.6070045455344,0,0,0,-132.3422991541898,107.66738528720265Z" fill-rule="evenodd" style="fill: #414552; stroke: #fff; opacity: 1;" id="p-type-ether"></path><path d="M-157.1292579017527,118.8250660056391A197,197,0,0,1,-159.55366297022985,115.54924765130366L-138.17752539907954,100.06858385420834A170.6070045455344,170.6070045455344,0,0,0,-136.07792902071458,102.90552576724617Z" fill-rule="evenodd" style="fill: #414552; stroke: #fff; opacity: 1;" id="p-type-ether"></path><path d="M-159.55366297022985,115.54924765130366A197,197,0,0,1,-160.41498617989689,114.35047970561163L-138.92345317952032,99.03042035999657A170.6070045455344,170.6070045455344,0,0,0,-138.17752539907954,100.06858385420834Z" fill-rule="evenodd" style="fill: #414552; stroke: #fff; opacity: 1;" id="p-type-ether"></path><path d="M-160.41498617989689,114.35047970561163A197,197,0,0,1,-161.17351248728258,113.27885448093026L-139.58035623115515,98.1023656920863A170.6070045455344,170.6070045455344,0,0,0,-138.92345317952032,99.03042035999657Z" fill-rule="evenodd" style="fill: #414552; stroke: #fff; opacity: 1;" id="p-type-ether"></path><path d="M-161.17351248728258,113.27885448093026A197,197,0,0,1,-161.8218102885541,112.35079757142451L-140.1417985962739,97.29864483229663A170.6070045455344,170.6070045455344,0,0,0,-139.58035623115515,98.1023656920863Z" fill-rule="evenodd" style="fill: #414552; stroke: #fff; opacity: 1;" id="p-type-ether"></path></g></svg>