<svg xmlns="http://www.w3.org/2000/svg" width="400" height="400" id="block-7908342"><g id="burst-container" transform="translate(200,200)"><circle r="197" style="fill: #f9f9f9; stroke: #f9f9f9; stroke-width: 3; opacity: 1;" id="circle-base"></circle><path display="none" d="M6.031385485800715e-15,-98.5A98.5,98.5,0,1,1,-6.031385485800715e-15,98.5A98.5,98.5,0,1,1,6.031385485800715e-15,-98.5Z" fill-rule="evenodd" id="p-type-root" style="stroke: #fff; opacity: 1;"></path><path d="M8.529667153919608e-15,-139.30003589374985A139.30003589374985,139.30003589374985,0,1,1,-129.29124156979114,-51.848576193969976L-91.42271366202736,-36.66247982162357A98.5,98.5,0,1,0,6.031385485800715e-15,-98.5Z" fill-rule="evenodd" style="fill: #0B1F65; stroke: #fff; opacity: 1;" id="p-type-data"></path><path d="M-129.29124156979114,-51.848576193969976A139.30003589374985,139.30003589374985,0,0,1,-9.198014079874824,-138.99603065190897L-6.503978129328831,-98.28503583197806A98.5,98.5,0,0,0,-91.42271366202736,-36.66247982162357Z" fill-rule="evenodd" style="fill: #D7A449; stroke: #fff; opacity: 1;" id="p-type-value"></path><path d="M1.0446666101440332e-14,-170.6070045455344A170.6070045455344,170.6070045455344,0,0,1,170.04540331764323,13.831515120912952L138.8414904113319,11.293384805275567A139.30003589374985,139.30003589374985,0,0,0,8.529667153919608e-15,-139.30003589374985Z" fill-rule="evenodd" style="fill: #1DC690; stroke: #fff; opacity: 1;" id="p-type-logs"></path><path d="M170.04540331764323,13.831515120912952A170.6070045455344,170.6070045455344,0,0,1,75.69101496418324,152.89741741995445L61.801454925204965,124.84021855607213A139.30003589374985,139.30003589374985,0,0,0,138.8414904113319,11.293384805275567Z" fill-rule="evenodd" style="fill: #414552; stroke: #fff; opacity: 1;" id="p-type-ether"></path><path d="M75.69101496418324,152.89741741995445A170.6070045455344,170.6070045455344,0,0,1,-76.56827171473923,152.45999398733383L-62.51773206262969,124.48306381891973A139.30003589374985,139.30003589374985,0,0,0,61.801454925204965,124.84021855607213Z" fill-rule="evenodd" style="fill: #D7A449; stroke: #fff; opacity: 1;" id="p-type-tokenTransfers"></path><path d="M-158.34878502845274,-63.501277782520766A170.6070045455344,170.6070045455344,0,0,1,-95.58500722579421,-141.3161575816611L-78.04483158781296,-115.38415949527001A139.30003589374985,139.30003589374985,0,0,0,-129.29124156979114,-51.848576193969976Z" fill-rule="evenodd" style="fill: #414552; stroke: #fff; opacity: 1;" id="p-type-ether"></path><path d="M-95.58500722579421,-141.3161575816611A170.6070045455344,170.6070045455344,0,0,1,-22.48127121841157,-169.11931422638935L-18.35588108474194,-138.08534183468862A139.30003589374985,139.30003589374985,0,0,0,-78.04483158781296,-115.38415949527001Z" fill-rule="evenodd" style="fill: #D7A449; stroke: #fff; opacity: 1;" id="p-type-tokenTransfers"></path><path d="M1.206277097160143e-14,-197A197,197,0,0,1,6.507529569684724,-196.89248857917278L5.635685923225387,-170.51389692390106A170.6070045455344,170.6070045455344,0,0,0,1.0446666101440332e-14,-170.6070045455344Z" fill-rule="evenodd" style="fill: #1DC690; stroke: #fff; opacity: 1;" id="p-type-logs"></path><path d="M6.507529569684724,-196.89248857917278A197,197,0,0,1,13.007956258657682,-196.57007166395613L11.265220571314334,-170.23467568471364A170.6070045455344,170.6070045455344,0,0,0,5.635685923225387,-170.51389692390106Z" fill-rule="evenodd" style="fill: #1DC690; stroke: #fff; opacity: 1;" id="p-type-logs"></path><path d="M13.007956258657682,-196.57007166395613A197,197,0,0,1,19.49418493890545,-196.0331011680623L16.882459383164115,-169.76964559418687A170.6070045455344,170.6070045455344,0,0,0,11.265220571314334,-170.23467568471364Z" fill-rule="evenodd" style="fill: #1DC690; stroke: #fff; opacity: 1;" id="p-type-logs"></path><path d="M19.49418493890545,-196.0331011680623A197,197,0,0,1,25.95913597934966,-195.2821631875416L22.48127121841144,-169.11931422638935A170.6070045455344,170.6070045455344,0,0,0,16.882459383164115,-169.76964559418687Z" fill-rule="evenodd" style="fill: #1DC690; stroke: #fff; opacity: 1;" id="p-type-logs"></path><path d="M25.95913597934966,-195.2821631875416A197,197,0,0,1,32.39575297316866,-194.3180773610665L28.055545049489318,-168.28439140923342A170.6070045455344,170.6070045455344,0,0,0,22.48127121841144,-169.11931422638935Z" fill-rule="evenodd" style="fill: #1DC690; stroke: #fff; opacity: 1;" id="p-type-logs"></path><path d="M32.39575297316866,-194.3180773610665A197,197,0,0,1,38.797010439770226,-193.14189597530714L33.59919663173109,-167.2657884497074A170.6070045455344,170.6070045455344,0,0,0,28.055545049489318,-168.28439140923342Z" fill-rule="evenodd" style="fill: #1DC690; stroke: #fff; opacity: 1;" id="p-type-logs"></path><path d="M38.797010439770226,-193.14189597530714A197,197,0,0,1,45.15592149300907,-191.75490281637443L39.10617514424158,-166.06461713919646A170.6070045455344,170.6070045455344,0,0,0,33.59919663173109,-167.2657884497074Z" fill-rule="evenodd" style="fill: #1DC690; stroke: #fff; opacity: 1;" id="p-type-logs"></path><path d="M45.15592149300907,-191.75490281637443A197,197,0,0,1,51.465545467278645,-190.15861176858513L44.570469794286375,-164.68218853997723A170.6070045455344,170.6070045455344,0,0,0,39.10617514424158,-166.06461713919646Z" fill-rule="evenodd" style="fill: #1DC690; stroke: #fff; opacity: 1;" id="p-type-logs"></path><path d="M51.465545467278645,-190.15861176858513A197,197,0,0,1,57.71899549315391,-188.35476516207726L49.98611637799081,-163.1200115542111A170.6070045455344,170.6070045455344,0,0,0,44.570469794286375,-164.68218853997723Z" fill-rule="evenodd" style="fill: #1DC690; stroke: #fff; opacity: 1;" id="p-type-logs"></path><path d="M57.71899549315391,-188.35476516207726A197,197,0,0,1,63.90944601431659,-186.34533187108056L55.34720379018831,-161.37979127699776A170.6070045455344,170.6070045455344,0,0,0,49.98611637799081,-163.1200115542111Z" fill-rule="evenodd" style="fill: #1DC690; stroke: #fff; opacity: 1;" id="p-type-logs"></path><path d="M63.90944601431659,-186.34533187108056A197,197,0,0,1,70.03014023755767,-184.1325051649165L60.647880476311755,-159.46342713528705A170.6070045455344,170.6070045455344,0,0,0,55.34720379018831,-161.37979127699776Z" fill-rule="evenodd" style="fill: #1DC690; stroke: #fff; opacity: 1;" id="p-type-logs"></path><path d="M70.03014023755767,-184.1325051649165A197,197,0,0,1,76.07439750772593,-181.7187003140747L65.88236081928625,-157.37301081467996A170.6070045455344,170.6070045455344,0,0,0,60.647880476311755,-159.46342713528705Z" fill-rule="evenodd" style="fill: #1DC690; stroke: #fff; opacity: 1;" id="p-type-logs"></path><path d="M76.07439750772593,-181.7187003140747A197,197,0,0,1,82.03562059957308,-179.1065519539777L71.04493145445228,-155.11082397638205A170.6070045455344,170.6070045455344,0,0,0,65.88236081928625,-157.37301081467996Z" fill-rule="evenodd" style="fill: #1DC690; stroke: #fff; opacity: 1;" id="p-type-logs"></path><path d="M82.03562059957308,-179.1065519539777A197,197,0,0,1,87.90730291853589,-176.29891120931168L76.12995750562601,-152.67933576680105A170.6070045455344,170.6070045455344,0,0,0,71.04493145445228,-155.11082397638205Z" fill-rule="evenodd" style="fill: #1DC690; stroke: #fff; opacity: 1;" id="p-type-logs"></path><path d="M87.90730291853589,-176.29891120931168A197,197,0,0,1,93.68303560259658,-173.29884258206292L81.13188873549065,-150.0812001225069A170.6070045455344,170.6070045455344,0,0,0,76.12995750562601,-152.67933576680105Z" fill-rule="evenodd" style="fill: #1DC690; stroke: #fff; opacity: 1;" id="p-type-logs"></path><path d="M93.68303560259658,-173.29884258206292A197,197,0,0,1,99.35651451746902,-170.10962060665457L86.04526560360556,-147.3192528734957A170.6070045455344,170.6070045455344,0,0,0,81.13188873549065,-150.0812001225069Z" fill-rule="evenodd" style="fill: #1DC690; stroke: #fff; opacity: 1;" id="p-type-logs"></path><path d="M99.35651451746902,-170.10962060665457A197,197,0,0,1,104.92154713747638,-166.73472627583712L90.864725225421,-144.3965086479197A170.6070045455344,170.6070045455344,0,0,0,86.04526560360556,-147.3192528734957Z" fill-rule="evenodd" style="fill: #1DC690; stroke: #fff; opacity: 1;" id="p-type-logs"></path><path d="M104.92154713747638,-166.73472627583712A197,197,0,0,1,110.37205930460912,-163.17784324123127L95.58500722579413,-141.31615758166114A170.6070045455344,170.6070045455344,0,0,0,90.864725225421,-144.3965086479197Z" fill-rule="evenodd" style="fill: #1DC690; stroke: #fff; opacity: 1;" id="p-type-logs"></path><path d="M110.37205930460912,-163.17784324123127A197,197,0,0,1,115.70210185838694,-159.44285379267222L100.2009594806178,-138.0815618363422A170.6070045455344,170.6070045455344,0,0,0,95.58500722579413,-141.31615758166114Z" fill-rule="evenodd" style="fill: #1DC690; stroke: #fff; opacity: 1;" id="p-type-logs"></path><path d="M115.70210185838694,-159.44285379267222A197,197,0,0,1,120.90585712928664,-155.53383462074268L104.70754374029411,-134.69625192957076A170.6070045455344,170.6070045455344,0,0,0,100.2009594806178,-138.0815618363422Z" fill-rule="evenodd" style="fill: #1DC690; stroke: #fff; opacity: 1;" id="p-type-logs"></path><path d="M120.90585712928664,-155.53383462074268A197,197,0,0,1,125.97764528865028,-151.45505236711983L109.09984112891614,-131.16392288142825A170.6070045455344,170.6070045455344,0,0,0,104.70754374029411,-134.69625192957076Z" fill-rule="evenodd" style="fill: #1DC690; stroke: #fff; opacity: 1;" id="p-type-logs"></path><path d="M125.97764528865028,-151.45505236711983A197,197,0,0,1,130.91193054814127,-147.21095896759397L113.37305751315444,-127.488430181405A170.6070045455344,170.6070045455344,0,0,0,109.09984112891614,-131.16392288142825Z" fill-rule="evenodd" style="fill: #1DC690; stroke: #fff; opacity: 1;" id="p-type-logs"></path><path d="M130.91193054814127,-147.21095896759397A197,197,0,0,1,135.7033272019829,-142.8061867928402L117.52252873498902,-123.67378558018541A170.6070045455344,170.6070045455344,0,0,0,113.37305751315444,-127.488430181405Z" fill-rule="evenodd" style="fill: #1DC690; stroke: #fff; opacity: 1;" id="p-type-logs"></path><path d="M135.7033272019829,-142.8061867928402A197,197,0,0,1,140.3466055053832,-138.24554359224874L121.5437257025748,-119.72415271087641A170.6070045455344,170.6070045455344,0,0,0,117.52252873498902,-123.67378558018541Z" fill-rule="evenodd" style="fill: #1DC690; stroke: #fff; opacity: 1;" id="p-type-logs"></path><path d="M140.3466055053832,-138.24554359224874A197,197,0,0,1,144.8366973827311,-133.534007246331L125.43225933368424,-115.64384254445795A170.6070045455344,170.6070045455344,0,0,0,121.5437257025748,-119.72415271087641Z" fill-rule="evenodd" style="fill: #1DC690; stroke: #fff; opacity: 1;" id="p-type-logs"></path><path d="M196.3515187597996,15.971257956718944A197,197,0,0,1,184.814468950875,68.21005839614895L160.05402509838814,59.07164336468503A170.6070045455344,170.6070045455344,0,0,0,170.04540331764323,13.831515120912952Z" fill-rule="evenodd" style="fill: #414552; stroke: #fff; opacity: 1;" id="p-type-ether"></path><path d="M184.814468950875,68.21005839614895A197,197,0,0,1,177.15763449797223,86.16363814906425L153.4230119496024,74.61989951957963A170.6070045455344,170.6070045455344,0,0,0,160.05402509838814,59.07164336468503Z" fill-rule="evenodd" style="fill: #414552; stroke: #fff; opacity: 1;" id="p-type-ether"></path><path d="M177.15763449797223,86.16363814906425A197,197,0,0,1,175.00458313449187,90.45659667444231L151.55841477317568,78.33771065995A170.6070045455344,170.6070045455344,0,0,0,153.4230119496024,74.61989951957963Z" fill-rule="evenodd" style="fill: #414552; stroke: #fff; opacity: 1;" id="p-type-ether"></path><path d="M175.00458313449187,90.45659667444231A197,197,0,0,1,173.1539991960345,93.95047930915354L149.95576207063613,81.36350177945124A170.6070045455344,170.6070045455344,0,0,0,151.55841477317568,78.33771065995Z" fill-rule="evenodd" style="fill: #414552; stroke: #fff; opacity: 1;" id="p-type-ether"></path><path d="M173.1539991960345,93.95047930915354A197,197,0,0,1,172.27863475704555,95.54617735026606L149.1976742289022,82.74541681982375A170.6070045455344,170.6070045455344,0,0,0,149.95576207063613,81.36350177945124Z" fill-rule="evenodd" style="fill: #414552; stroke: #fff; opacity: 1;" id="p-type-ether"></path><path d="M172.27863475704555,95.54617735026606A197,197,0,0,1,171.64352522403541,96.68247125857881L148.64765323912974,83.7294762105881A170.6070045455344,170.6070045455344,0,0,0,149.1976742289022,82.74541681982375Z" fill-rule="evenodd" style="fill: #414552; stroke: #fff; opacity: 1;" id="p-type-ether"></path><path d="M87.40045572961438,176.55073021161854A197,197,0,0,1,81.52073164546222,179.3414907710665L70.59902454006429,155.31428696031602A170.6070045455344,170.6070045455344,0,0,0,75.69101496418324,152.89741741995445Z" fill-rule="evenodd" style="fill: #D7A449; stroke: #fff; opacity: 1;" id="p-type-tokenTransfers"></path><path d="M81.52073164546222,179.3414907710665A197,197,0,0,1,75.5520287827712,181.936502513397L65.42997623333295,157.56163305229316A170.6070045455344,170.6070045455344,0,0,0,70.59902454006429,155.31428696031602Z" fill-rule="evenodd" style="fill: #D7A449; stroke: #fff; opacity: 1;" id="p-type-tokenTransfers"></path><path d="M75.5520287827712,181.936502513397A197,197,0,0,1,69.50086190017342,184.3329330183107L60.18951199046419,159.6370027479524A170.6070045455344,170.6070045455344,0,0,0,65.42997623333295,157.56163305229316Z" fill-rule="evenodd" style="fill: #D7A449; stroke: #fff; opacity: 1;" id="p-type-tokenTransfers"></path><path d="M69.50086190017342,184.3329330183107A197,197,0,0,1,63.37383576466594,186.5281666142493L54.88335170746352,161.53813080927628A170.6070045455344,170.6070045455344,0,0,0,60.18951199046419,159.6370027479524Z" fill-rule="evenodd" style="fill: #D7A449; stroke: #fff; opacity: 1;" id="p-type-tokenTransfers"></path><path d="M63.37383576466594,186.5281666142493A197,197,0,0,1,57.177637942596725,188.51980723336558L49.51728698667777,163.26294218063995A170.6070045455344,170.6070045455344,0,0,0,54.88335170746352,161.53813080927628Z" fill-rule="evenodd" style="fill: #D7A449; stroke: #fff; opacity: 1;" id="p-type-tokenTransfers"></path><path d="M57.177637942596725,188.51980723336558A197,197,0,0,1,50.91903150027621,190.3056810267993L44.09717481533926,164.80955425370644A170.6070045455344,170.6070045455344,0,0,0,49.51728698667777,163.26294218063995Z" fill-rule="evenodd" style="fill: #D7A449; stroke: #fff; opacity: 1;" id="p-type-tokenTransfers"></path><path d="M50.91903150027621,190.3056810267993A197,197,0,0,1,44.60484762218167,191.88383873740372L38.628931172743236,166.17627892226815A170.6070045455344,170.6070045455344,0,0,0,44.09717481533926,164.80955425370644Z" fill-rule="evenodd" style="fill: #D7A449; stroke: #fff; opacity: 1;" id="p-type-tokenTransfers"></path><path d="M44.60484762218167,191.88383873740372A197,197,0,0,1,38.24197815481157,193.2525578273336L33.118524573036375,167.36162442479215A170.6070045455344,170.6070045455344,0,0,0,38.628931172743236,166.17627892226815Z" fill-rule="evenodd" style="fill: #D7A449; stroke: #fff; opacity: 1;" id="p-type-tokenTransfers"></path><path d="M38.24197815481157,193.2525578273336A197,197,0,0,1,31.837368084328087,194.41034435817195L27.57196955066403,168.36429697265763A170.6070045455344,170.6070045455344,0,0,0,33.118524573036375,167.36162442479215Z" fill-rule="evenodd" style="fill: #D7A449; stroke: #fff; opacity: 1;" id="p-type-tokenTransfers"></path><path d="M31.837368084328087,194.41034435817195A197,197,0,0,1,25.39800795619846,195.35593462154375L21.995320095587154,169.18320216230882A170.6070045455344,170.6070045455344,0,0,0,27.57196955066403,168.36429697265763Z" fill-rule="evenodd" style="fill: #D7A449; stroke: #fff; opacity: 1;" id="p-type-tokenTransfers"></path><path d="M25.39800795619846,195.35593462154375A197,197,0,0,1,18.930926245108907,196.08829651843644L16.394663045433866,169.81744616978165A170.6070045455344,170.6070045455344,0,0,0,21.995320095587154,169.18320216230882Z" fill-rule="evenodd" style="fill: #D7A449; stroke: #fff; opacity: 1;" id="p-type-tokenTransfers"></path><path d="M18.930926245108907,196.08829651843644A197,197,0,0,1,12.443181683479384,196.6066306857221L10.776111441798365,170.2663367263005A170.6070045455344,170.6070045455344,0,0,0,16.394663045433866,169.81744616978165Z" fill-rule="evenodd" style="fill: #D7A449; stroke: #fff; opacity: 1;" id="p-type-tokenTransfers"></path><path d="M12.443181683479384,196.6066306857221A197,197,0,0,1,5.941855556952379,196.91037136865165L5.145797857938494,170.5293838738803A170.6070045455344,170.6070045455344,0,0,0,10.776111441798365,170.2663367263005Z" fill-rule="evenodd" style="fill: #D7A449; stroke: #fff; opacity: 1;" id="p-type-tokenTransfers"></path><path d="M5.941855556952379,196.91037136865165A197,197,0,0,1,-0.565956024734812,196.99918703836843L-0.4901322948452013,170.60630050010917A170.6070045455344,170.6070045455344,0,0,0,5.145797857938494,170.5293838738803Z" fill-rule="evenodd" style="fill: #D7A449; stroke: #fff; opacity: 1;" id="p-type-tokenTransfers"></path></g></svg>