<svg xmlns="http://www.w3.org/2000/svg" width="400" height="400" id="block-7908812"><g id="burst-container" transform="translate(200,200)"><circle r="197" style="fill: #f9f9f9; stroke: #f9f9f9; stroke-width: 3; opacity: 1;" id="circle-base"></circle><path display="none" d="M6.031385485800715e-15,-98.5A98.5,98.5,0,1,1,-6.031385485800715e-15,98.5A98.5,98.5,0,1,1,6.031385485800715e-15,-98.5Z" fill-rule="evenodd" id="p-type-root" style="stroke: #fff; opacity: 1;"></path><path d="M8.529667153919608e-15,-139.30003589374985A139.30003589374985,139.30003589374985,0,1,1,-129.35651476800106,-51.68551138448681L-91.46886878311135,-36.54717558906513A98.5,98.5,0,1,0,6.031385485800715e-15,-98.5Z" fill-rule="evenodd" style="fill: #0B1F65; stroke: #fff; opacity: 1;" id="p-type-data"></path><path d="M-129.35651476800106,-51.68551138448681A139.30003589374985,139.30003589374985,0,0,1,-6.501967888693686,-139.14821024208106L-4.597585585152485,-98.39264305214694A98.5,98.5,0,0,0,-91.46886878311135,-36.54717558906513Z" fill-rule="evenodd" style="fill: #D7A449; stroke: #fff; opacity: 1;" id="p-type-value"></path><path d="M1.0446666101440332e-14,-170.6070045455344A170.6070045455344,170.6070045455344,0,0,1,163.14150509577286,49.91592246053278L133.2044811181017,40.756180022878496A139.30003589374985,139.30003589374985,0,0,0,8.529667153919608e-15,-139.30003589374985Z" fill-rule="evenodd" style="fill: #1DC690; stroke: #fff; opacity: 1;" id="p-type-logs"></path><path d="M163.14150509577286,49.91592246053278A170.6070045455344,170.6070045455344,0,0,1,-37.28153703792531,166.48374393943033L-30.440247523196398,135.93340770659188A139.30003589374985,139.30003589374985,0,0,0,133.2044811181017,40.756180022878496Z" fill-rule="evenodd" style="fill: #D7A449; stroke: #fff; opacity: 1;" id="p-type-tokenTransfers"></path><path d="M-37.28153703792531,166.48374393943033A170.6070045455344,170.6070045455344,0,0,1,-123.20847361655,118.01026238882746L-100.59929744923701,96.35497575486143A139.30003589374985,139.30003589374985,0,0,0,-30.440247523196398,135.93340770659188Z" fill-rule="evenodd" style="fill: #414552; stroke: #fff; opacity: 1;" id="p-type-ether"></path><path d="M-158.42872804319967,-63.30156499340181A170.6070045455344,170.6070045455344,0,0,1,-73.22086939137439,-154.09560112336527L-59.784589510612776,-125.8185314532304A139.30003589374985,139.30003589374985,0,0,0,-129.35651476800106,-51.68551138448681Z" fill-rule="evenodd" style="fill: #D7A449; stroke: #fff; opacity: 1;" id="p-type-tokenTransfers"></path><path d="M-73.22086939137439,-154.09560112336527A170.6070045455344,170.6070045455344,0,0,1,-15.909145064235673,-169.86361912818504L-12.989762550431635,-138.69306424217254A139.30003589374985,139.30003589374985,0,0,0,-59.784589510612776,-125.8185314532304Z" fill-rule="evenodd" style="fill: #414552; stroke: #fff; opacity: 1;" id="p-type-ether"></path><path d="M1.206277097160143e-14,-197A197,197,0,0,1,4.598838845518963,-196.94631421093655L3.9827112681301218,-170.56051128838325A170.6070045455344,170.6070045455344,0,0,0,1.0446666101440332e-14,-170.6070045455344Z" fill-rule="evenodd" style="fill: #1DC690; stroke: #fff; opacity: 1;" id="p-type-logs"></path><path d="M4.598838845518963,-196.94631421093655A197,197,0,0,1,9.195171170304945,-196.78528610429387L7.96325182563037,-170.42105685730738A170.6070045455344,170.6070045455344,0,0,0,3.9827112681301218,-170.56051128838325Z" fill-rule="evenodd" style="fill: #1DC690; stroke: #fff; opacity: 1;" id="p-type-logs"></path><path d="M9.195171170304945,-196.78528610429387A197,197,0,0,1,13.786491819762489,-196.51700344576705L11.939452144980669,-170.18871725962833A170.6070045455344,170.6070045455344,0,0,0,7.96325182563037,-170.42105685730738Z" fill-rule="evenodd" style="fill: #1DC690; stroke: #fff; opacity: 1;" id="p-type-logs"></path><path d="M13.786491819762489,-196.51700344576705A197,197,0,0,1,18.37029837082652,-196.14161245836337L15.909145064235654,-169.86361912818504A170.6070045455344,170.6070045455344,0,0,0,11.939452144980669,-170.18871725962833Z" fill-rule="evenodd" style="fill: #1DC690; stroke: #fff; opacity: 1;" id="p-type-logs"></path><path d="M18.37029837082652,-196.14161245836337A197,197,0,0,1,22.944092495866503,-195.65931774270584L19.870166968200298,-169.4459396523146A170.6070045455344,170.6070045455344,0,0,0,15.909145064235654,-169.86361912818504Z" fill-rule="evenodd" style="fill: #1DC690; stroke: #fff; opacity: 1;" id="p-type-logs"></path><path d="M22.944092495866503,-195.65931774270584A197,197,0,0,1,27.50538132435841,-195.07038216551902L23.82035896767245,-168.93590648127835A170.6070045455344,170.6070045455344,0,0,0,19.870166968200298,-169.4459396523146Z" fill-rule="evenodd" style="fill: #1DC690; stroke: #fff; opacity: 1;" id="p-type-logs"></path><path d="M27.50538132435841,-195.07038216551902A197,197,0,0,1,32.051678801582405,-194.3751267163579L27.757568076109532,-168.33379760018528A170.6070045455344,170.6070045455344,0,0,0,23.82035896767245,-168.93590648127835Z" fill-rule="evenodd" style="fill: #1DC690; stroke: #fff; opacity: 1;" id="p-type-logs"></path><path d="M32.051678801582405,-194.3751267163579A197,197,0,0,1,36.58050704360567,-193.57393033265797L31.6796483830781,-167.6399411784809A170.6070045455344,170.6070045455344,0,0,0,27.757568076109532,-168.33379760018528Z" fill-rule="evenodd" style="fill: #1DC690; stroke: #fff; opacity: 1;" id="p-type-logs"></path><path d="M36.58050704360567,-193.57393033265797A197,197,0,0,1,41.08939768781191,-192.66722969320142L35.58446222384669,-166.85471539108394A170.6070045455344,170.6070045455344,0,0,0,31.6796483830781,-167.6399411784809Z" fill-rule="evenodd" style="fill: #1DC690; stroke: #fff; opacity: 1;" id="p-type-logs"></path><path d="M41.08939768781191,-192.66722969320142A197,197,0,0,1,45.57589323824137,-191.6555189801129L39.46988134448445,-165.97854821226844A170.6070045455344,170.6070045455344,0,0,0,35.58446222384669,-166.85471539108394Z" fill-rule="evenodd" style="fill: #1DC690; stroke: #fff; opacity: 1;" id="p-type-logs"></path><path d="M45.57589323824137,-191.6555189801129A197,197,0,0,1,50.03754840500823,-190.53934960951364L43.333788061830646,-165.01191718240335A170.6070045455344,170.6070045455344,0,0,0,39.46988134448445,-165.97854821226844Z" fill-rule="evenodd" style="fill: #1DC690; stroke: #fff; opacity: 1;" id="p-type-logs"></path><path d="M50.03754840500823,-190.53934960951364A197,197,0,0,1,54.47193143706521,-189.31932993098107L47.17407641770265,-163.95534914767725A170.6070045455344,170.6070045455344,0,0,0,43.333788061830646,-165.01191718240335Z" fill-rule="evenodd" style="fill: #1DC690; stroke: #fff; opacity: 1;" id="p-type-logs"></path><path d="M54.47193143706521,-189.31932993098107A197,197,0,0,1,58.876625447589085,-187.99612489597837L50.98865332671349,-162.80941997294943A170.6070045455344,170.6070045455344,0,0,0,47.17407641770265,-163.95534914767725Z" fill-rule="evenodd" style="fill: #1DC690; stroke: #fff; opacity: 1;" id="p-type-logs"></path><path d="M58.876625447589085,-187.99612489597837A197,197,0,0,1,63.249229731264776,-186.57045569543345L54.7754397170733,-161.57475422788445A170.6070045455344,170.6070045455344,0,0,0,50.98865332671349,-162.80941997294943Z" fill-rule="evenodd" style="fill: #1DC690; stroke: #fff; opacity: 1;" id="p-type-logs"></path><path d="M63.249229731264776,-186.57045569543345A197,197,0,0,1,67.58736107274981,-185.04309936666576L58.53237166375281,-160.25202484654073A170.6070045455344,170.6070045455344,0,0,0,54.7754397170733,-161.57475422788445Z" fill-rule="evenodd" style="fill: #1DC690; stroke: #fff; opacity: 1;" id="p-type-logs"></path><path d="M67.58736107274981,-185.04309936666576A197,197,0,0,1,71.88865504560637,-183.41488836987529L62.25740151339147,-158.84195276059899A170.6070045455344,170.6070045455344,0,0,0,58.53237166375281,-160.25202484654073Z" fill-rule="evenodd" style="fill: #1DC690; stroke: #fff; opacity: 1;" id="p-type-logs"></path><path d="M71.88865504560637,-183.41488836987529A197,197,0,0,1,76.1507673009925,-181.6867101344237L65.94849900033685,-157.34530650643052A170.6070045455344,170.6070045455344,0,0,0,62.25740151339147,-158.84195276059899Z" fill-rule="evenodd" style="fill: #1DC690; stroke: #fff; opacity: 1;" id="p-type-logs"></path><path d="M76.1507673009925,-181.6867101344237A197,197,0,0,1,80.37137484541073,-179.8595065751557L69.6036523532073,-155.7629018062191A170.6070045455344,170.6070045455344,0,0,0,65.94849900033685,-157.34530650643052Z" fill-rule="evenodd" style="fill: #1DC690; stroke: #fff; opacity: 1;" id="p-type-logs"></path><path d="M80.37137484541073,-179.8595065751557A197,197,0,0,1,84.54817730681685,-177.93427357902428L73.22086939137436,-154.09560112336527A170.6070045455344,170.6070045455344,0,0,0,69.6036523532073,-155.7629018062191Z" fill-rule="evenodd" style="fill: #1DC690; stroke: #fff; opacity: 1;" id="p-type-logs"></path><path d="M84.54817730681685,-177.93427357902428A197,197,0,0,1,88.67889818839969,-175.9120604622987L76.79817861076796,-152.34431319241483A170.6070045455344,170.6070045455344,0,0,0,73.22086939137436,-154.09560112336527Z" fill-rule="evenodd" style="fill: #1DC690; stroke: #fff; opacity: 1;" id="p-type-logs"></path><path d="M88.67889818839969,-175.9120604622987A197,197,0,0,1,92.7612861093478,-173.7939693986524L80.33363025841176,-150.50999252376832A170.6070045455344,170.6070045455344,0,0,0,76.79817861076796,-152.34431319241483Z" fill-rule="evenodd" style="fill: #1DC690; stroke: #fff; opacity: 1;" id="p-type-logs"></path><path d="M92.7612861093478,-173.7939693986524A197,197,0,0,1,96.79311603192714,-171.5811548184412L83.82529739510372,-148.5936388834408A170.6070045455344,170.6070045455344,0,0,0,80.33363025841176,-150.50999252376832Z" fill-rule="evenodd" style="fill: #1DC690; stroke: #fff; opacity: 1;" id="p-type-logs"></path><path d="M96.79311603192714,-171.5811548184412A197,197,0,0,1,100.77219047420107,-169.2748227795006L87.27127694566234,-146.5962967481563A170.6070045455344,170.6070045455344,0,0,0,83.82529739510372,-148.5936388834408Z" fill-rule="evenodd" style="fill: #1DC690; stroke: #fff; opacity: 1;" id="p-type-logs"></path><path d="M100.77219047420107,-169.2748227795006A197,197,0,0,1,104.69634070773122,-166.87623030980373L90.66969073616609,-144.51905473607277A170.6070045455344,170.6070045455344,0,0,0,87.27127694566234,-146.5962967481563Z" fill-rule="evenodd" style="fill: #1DC690; stroke: #fff; opacity: 1;" id="p-type-logs"></path><path d="M104.69634070773122,-166.87623030980373A197,197,0,0,1,108.56342793960705,-164.3866847223392L94.018686517621,-142.363045013449A170.6070045455344,170.6070045455344,0,0,0,90.66969073616609,-144.51905473607277Z" fill-rule="evenodd" style="fill: #1DC690; stroke: #fff; opacity: 1;" id="p-type-logs"></path><path d="M108.56342793960705,-164.3866847223392A197,197,0,0,1,112.37134447815934,-161.8075429025818L97.31643897549819,-140.12944267757626A170.6070045455344,170.6070045455344,0,0,0,94.018686517621,-142.363045013449Z" fill-rule="evenodd" style="fill: #1DC690; stroke: #fff; opacity: 1;" id="p-type-logs"></path><path d="M112.37134447815934,-161.8075429025818A197,197,0,0,1,116.11801488172247,-159.14021056894475L100.56115072459116,-137.81946511631097A170.6070045455344,170.6070045455344,0,0,0,97.31643897549819,-140.12944267757626Z" fill-rule="evenodd" style="fill: #1DC690; stroke: #fff; opacity: 1;" id="p-type-logs"></path><path d="M116.11801488172247,-159.14021056894475A197,197,0,0,1,119.80139708981955,-156.38614150661618L103.75105328865084,-135.43437134455763A170.6070045455344,170.6070045455344,0,0,0,100.56115072459116,-137.81946511631097Z" fill-rule="evenodd" style="fill: #1DC690; stroke: #fff; opacity: 1;" id="p-type-logs"></path><path d="M119.80139708981955,-156.38614150661618A197,197,0,0,1,123.41948353615345,-153.54683677519753L106.88440806426416,-132.97546131806374A170.6070045455344,170.6070045455344,0,0,0,103.75105328865084,-135.43437134455763Z" fill-rule="evenodd" style="fill: #1DC690; stroke: #fff; opacity: 1;" id="p-type-logs"></path><path d="M123.41948353615345,-153.54683677519753A197,197,0,0,1,126.97030224279757,-150.6238438905761L109.95950726845098,-130.44407522490042A170.6070045455344,170.6070045455344,0,0,0,106.88440806426416,-132.97546131806374Z" fill-rule="evenodd" style="fill: #1DC690; stroke: #fff; opacity: 1;" id="p-type-logs"></path><path d="M126.97030224279757,-150.6238438905761A197,197,0,0,1,130.45191789498963,-147.6187559814771L112.97467486946282,-127.84159275501523A170.6070045455344,170.6070045455344,0,0,0,109.95950726845098,-130.44407522490042Z" fill-rule="evenodd" style="fill: #1DC690; stroke: #fff; opacity: 1;" id="p-type-logs"></path><path d="M130.45191789498963,-147.6187559814771A197,197,0,0,1,133.86243289594276,-144.5332109211555L115.92826750027614,-125.16943234825513A170.6070045455344,170.6070045455344,0,0,0,112.97467486946282,-127.84159275501523Z" fill-rule="evenodd" style="fill: #1DC690; stroke: #fff; opacity: 1;" id="p-type-logs"></path><path d="M133.86243289594276,-144.5332109211555A197,197,0,0,1,137.1999884010992,-141.36889043470012L118.81867535428223,-122.42905042126924A170.6070045455344,170.6070045455344,0,0,0,115.92826750027614,-125.16943234825513Z" fill-rule="evenodd" style="fill: #1DC690; stroke: #fff; opacity: 1;" id="p-type-logs"></path><path d="M137.1999884010992,-141.36889043470012A197,197,0,0,1,140.46276533126266,-138.12751918243748L121.6443230626856,-119.62194057371322A170.6070045455344,170.6070045455344,0,0,0,118.81867535428223,-122.42905042126924Z" fill-rule="evenodd" style="fill: #1DC690; stroke: #fff; opacity: 1;" id="p-type-logs"></path><path d="M140.46276533126266,-138.12751918243748A197,197,0,0,1,143.64898536405715,-134.81086381993438L124.4036705531325,-116.74963277418765A170.6070045455344,170.6070045455344,0,0,0,121.6443230626856,-119.62194057371322Z" fill-rule="evenodd" style="fill: #1DC690; stroke: #fff; opacity: 1;" id="p-type-logs"></path><path d="M143.64898536405715,-134.81086381993438A197,197,0,0,1,146.7569119031721,-131.4207320351115L127.0952138891019,-113.81369252635395A170.6070045455344,170.6070045455344,0,0,0,124.4036705531325,-116.74963277418765Z" fill-rule="evenodd" style="fill: #1DC690; stroke: #fff; opacity: 1;" id="p-type-logs"></path><path d="M146.7569119031721,-131.4207320351115A197,197,0,0,1,149.78485102486533,-127.95897156299318L129.71748608960098,-110.81572001568267A170.6070045455344,170.6070045455344,0,0,0,127.0952138891019,-113.81369252635395Z" fill-rule="evenodd" style="fill: #1DC690; stroke: #fff; opacity: 1;" id="p-type-logs"></path><path d="M149.78485102486533,-127.95897156299318A197,197,0,0,1,152.7311524012081,-124.42746917863009L132.2690579287189,-107.75734923729891A170.6070045455344,170.6070045455344,0,0,0,129.71748608960098,-110.81572001568267Z" fill-rule="evenodd" style="fill: #1DC690; stroke: #fff; opacity: 1;" id="p-type-logs"></path><path d="M152.7311524012081,-124.42746917863009A197,197,0,0,1,155.59421019956886,-120.82814966874392L134.74853871460243,-104.64024710540055A170.6070045455344,170.6070045455344,0,0,0,132.2690579287189,-107.75734923729891Z" fill-rule="evenodd" style="fill: #1DC690; stroke: #fff; opacity: 1;" id="p-type-logs"></path><path d="M155.59421019956886,-120.82814966874392A197,197,0,0,1,158.37246395784564,-117.16297478265427L137.15457704742974,-101.46611254473417A170.6070045455344,170.6070045455344,0,0,0,134.74853871460243,-104.64024710540055Z" fill-rule="evenodd" style="fill: #1DC690; stroke: #fff; opacity: 1;" id="p-type-logs"></path><path d="M188.37958376609032,57.63794253887417A197,197,0,0,1,186.9827263258797,62.01983598608733L161.93179106708516,53.71075350249594A170.6070045455344,170.6070045455344,0,0,0,163.14150509577286,49.91592246053278Z" fill-rule="evenodd" style="fill: #D7A449; stroke: #fff; opacity: 1;" id="p-type-tokenTransfers"></path><path d="M186.9827263258797,62.01983598608733A197,197,0,0,1,185.48395705618643,66.36792655175229L160.63381880511932,57.47631039031724A170.6070045455344,170.6070045455344,0,0,0,161.93179106708516,53.71075350249594Z" fill-rule="evenodd" style="fill: #D7A449; stroke: #fff; opacity: 1;" id="p-type-tokenTransfers"></path><path d="M185.48395705618643,66.36792655175229A197,197,0,0,1,183.88409283630867,70.67984438132144L159.2482957480994,61.21054076975519A170.6070045455344,170.6070045455344,0,0,0,160.63381880511932,57.47631039031724Z" fill-rule="evenodd" style="fill: #D7A449; stroke: #fff; opacity: 1;" id="p-type-tokenTransfers"></path><path d="M183.88409283630867,70.67984438132144A197,197,0,0,1,182.18400564566812,74.95323933559624L157.77597705235618,64.91140936056141A170.6070045455344,170.6070045455344,0,0,0,159.2482957480994,61.21054076975519Z" fill-rule="evenodd" style="fill: #D7A449; stroke: #fff; opacity: 1;" id="p-type-tokenTransfers"></path><path d="M182.18400564566812,74.95323933559624A197,197,0,0,1,180.3846220885521,79.18578227163151L156.2176651807417,68.57689906577632A170.6070045455344,170.6070045455344,0,0,0,157.77597705235618,64.91140936056141Z" fill-rule="evenodd" style="fill: #D7A449; stroke: #fff; opacity: 1;" id="p-type-tokenTransfers"></path><path d="M180.3846220885521,79.18578227163151A197,197,0,0,1,178.4869228890835,83.37516631219613L154.57420946526048,72.20501207111438A170.6070045455344,170.6070045455344,0,0,0,156.2176651807417,68.57689906577632Z" fill-rule="evenodd" style="fill: #D7A449; stroke: #fff; opacity: 1;" id="p-type-tokenTransfers"></path><path d="M178.4869228890835,83.37516631219613A197,197,0,0,1,176.49194235669293,87.51910810309815L152.84650564415486,75.79377093383951A170.6070045455344,170.6070045455344,0,0,0,154.57420946526048,72.20501207111438Z" fill-rule="evenodd" style="fill: #D7A449; stroke: #fff; opacity: 1;" id="p-type-tokenTransfers"></path><path d="M176.49194235669293,87.51910810309815A197,197,0,0,1,174.400767822386,91.61534905768904L151.03549537369798,79.34121966053745A170.6070045455344,170.6070045455344,0,0,0,152.84650564415486,75.79377093383951Z" fill-rule="evenodd" style="fill: #D7A449; stroke: #fff; opacity: 1;" id="p-type-tokenTransfers"></path><path d="M174.400767822386,91.61534905768904A197,197,0,0,1,172.21453904611144,95.6616565878689L149.14216571495962,82.84542477319748A170.6070045455344,170.6070045455344,0,0,0,151.03549537369798,79.34121966053745Z" fill-rule="evenodd" style="fill: #D7A449; stroke: #fff; opacity: 1;" id="p-type-tokenTransfers"></path><path d="M172.21453904611144,95.6616565878689A197,197,0,0,1,169.9344475955537,99.65582532092151L147.1675485958249,86.30447636302253A170.6070045455344,170.6070045455344,0,0,0,149.14216571495962,82.84542477319748Z" fill-rule="evenodd" style="fill: #D7A449; stroke: #fff; opacity: 1;" id="p-type-tokenTransfers"></path><path d="M169.9344475955537,99.65582532092151A197,197,0,0,1,167.56173619668903,103.59567830151599L145.1127202485592,89.71648913139319A170.6070045455344,170.6070045455344,0,0,0,147.1675485958249,86.30447636302253Z" fill-rule="evenodd" style="fill: #D7A449; stroke: #fff; opacity: 1;" id="p-type-tokenTransfers"></path><path d="M167.56173619668903,103.59567830151599A197,197,0,0,1,165.09769805645828,107.4790681782203L142.97880062322562,93.07960341741844A170.6070045455344,170.6070045455344,0,0,0,145.1127202485592,89.71648913139319Z" fill-rule="evenodd" style="fill: #D7A449; stroke: #fff; opacity: 1;" id="p-type-tokenTransfers"></path><path d="M165.09769805645828,107.4790681782203A197,197,0,0,1,162.5436761579258,111.30387837387943L140.76695277727472,96.39198621151297A170.6070045455344,170.6070045455344,0,0,0,142.97880062322562,93.07960341741844Z" fill-rule="evenodd" style="fill: #D7A449; stroke: #fff; opacity: 1;" id="p-type-tokenTransfers"></path><path d="M162.5436761579258,111.30387837387943A197,197,0,0,1,159.90106252830893,115.06802423922053L138.4783822416395,99.65183215444853A170.6070045455344,170.6070045455344,0,0,0,140.76695277727472,96.39198621151297Z" fill-rule="evenodd" style="fill: #D7A449; stroke: #fff; opacity: 1;" id="p-type-tokenTransfers"></path><path d="M159.90106252830893,115.06802423922053A197,197,0,0,1,157.17129748027662,118.76945418905649L136.11433636368068,102.85736452133503A170.6070045455344,170.6070045455344,0,0,0,138.4783822416395,99.65183215444853Z" fill-rule="evenodd" style="fill: #D7A449; stroke: #fff; opacity: 1;" id="p-type-tokenTransfers"></path><path d="M157.17129748027662,118.76945418905649A197,197,0,0,1,154.35586882693107,122.40615082046834L133.67610362734084,106.006836189995A170.6070045455344,170.6070045455344,0,0,0,136.11433636368068,102.85736452133503Z" fill-rule="evenodd" style="fill: #D7A449; stroke: #fff; opacity: 1;" id="p-type-tokenTransfers"></path><path d="M154.35586882693107,122.40615082046834A197,197,0,0,1,151.45631107089977,125.9761320123572L131.1650129508775,109.09853059320338A170.6070045455344,170.6070045455344,0,0,0,133.67610362734084,106.006836189995Z" fill-rule="evenodd" style="fill: #D7A449; stroke: #fff; opacity: 1;" id="p-type-tokenTransfers"></path><path d="M151.45631107089977,125.9761320123572A197,197,0,0,1,148.4742045679803,129.47745200576637L128.58243296255847,112.1307626542741A170.6070045455344,170.6070045455344,0,0,0,131.1650129508775,109.09853059320338Z" fill-rule="evenodd" style="fill: #D7A449; stroke: #fff; opacity: 1;" id="p-type-tokenTransfers"></path><path d="M148.4742045679803,129.47745200576637A197,197,0,0,1,145.41117466579385,132.90820246438514L125.92977125471364,115.10187970548307A170.6070045455344,170.6070045455344,0,0,0,128.58243296255847,112.1307626542741Z" fill-rule="evenodd" style="fill: #D7A449; stroke: #fff; opacity: 1;" id="p-type-tokenTransfers"></path><path d="M145.41117466579385,132.90820246438514A197,197,0,0,1,142.26889081791623,136.26651351465566L123.20847361655011,118.01026238882734A170.6070045455344,170.6070045455344,0,0,0,125.92977125471364,115.10187970548307Z" fill-rule="evenodd" style="fill: #D7A449; stroke: #fff; opacity: 1;" id="p-type-tokenTransfers"></path><path d="M142.26889081791623,136.26651351465566A197,197,0,0,1,139.04906567397018,139.5505547649164L120.42002324614893,120.85432553862915A170.6070045455344,170.6070045455344,0,0,0,123.20847361655011,118.01026238882734Z" fill-rule="evenodd" style="fill: #D7A449; stroke: #fff; opacity: 1;" id="p-type-tokenTransfers"></path><path d="M139.04906567397018,139.5505547649164A197,197,0,0,1,135.7534541461739,142.75853630302691L117.56593994207253,123.63251904550434A170.6070045455344,170.6070045455344,0,0,0,120.42002324614893,120.85432553862915Z" fill-rule="evenodd" style="fill: #D7A449; stroke: #fff; opacity: 1;" id="p-type-tokenTransfers"></path><path d="M135.7534541461739,142.75853630302691A197,197,0,0,1,132.38385245285556,145.8887096719296L114.6477792750238,126.34332870122357A170.6070045455344,170.6070045455344,0,0,0,117.56593994207253,123.63251904550434Z" fill-rule="evenodd" style="fill: #D7A449; stroke: #fff; opacity: 1;" id="p-type-tokenTransfers"></path><path d="M132.38385245285556,145.8887096719296A197,197,0,0,1,128.94209713945406,148.93936882261718L111.66713174000802,128.98527702400648A170.6070045455344,170.6070045455344,0,0,0,114.6477792750238,126.34332870122357Z" fill-rule="evenodd" style="fill: #D7A449; stroke: #fff; opacity: 1;" id="p-type-tokenTransfers"></path><path d="M128.94209713945406,148.93936882261718A197,197,0,0,1,125.43006407754058,151.90885104398646L108.62562188946008,131.5569240637985A170.6070045455344,170.6070045455344,0,0,0,111.66713174000802,128.98527702400648Z" fill-rule="evenodd" style="fill: #D7A449; stroke: #fff; opacity: 1;" id="p-type-tokenTransfers"></path><path d="M125.43006407754058,151.90885104398646A197,197,0,0,1,121.84966744240596,154.79553786907127L105.52490744780918,134.0568681870918A170.6070045455344,170.6070045455344,0,0,0,108.62562188946008,131.5569240637985Z" fill-rule="evenodd" style="fill: #D7A449; stroke: #fff; opacity: 1;" id="p-type-tokenTransfers"></path><path d="M121.84966744240596,154.79553786907127A197,197,0,0,1,118.2028586697712,157.5978559571611L102.36667840796353,136.48374684086224A170.6070045455344,170.6070045455344,0,0,0,105.52490744780918,134.0568681870918Z" fill-rule="evenodd" style="fill: #D7A449; stroke: #fff; opacity: 1;" id="p-type-tokenTransfers"></path><path d="M118.2028586697712,157.5978559571611A197,197,0,0,1,114.4916253921898,160.31427795132436L99.15265611020786,138.8362372952064A170.6070045455344,170.6070045455344,0,0,0,102.36667840796353,136.48374684086224Z" fill-rule="evenodd" style="fill: #D7A449; stroke: #fff; opacity: 1;" id="p-type-tokenTransfers"></path><path d="M114.4916253921898,160.31427795132436A197,197,0,0,1,110.71799035572172,162.94332331086878L95.8845923040155,141.11305736427346A170.6070045455344,170.6070045455344,0,0,0,99.15265611020786,138.8362372952064Z" fill-rule="evenodd" style="fill: #D7A449; stroke: #fff; opacity: 1;" id="p-type-tokenTransfers"></path><path d="M110.71799035572172,162.94332331086878A197,197,0,0,1,106.8840103174692,165.48355911828563L92.56426819328638,143.31296610509932A170.6070045455344,170.6070045455344,0,0,0,95.8845923040155,141.11305736427346Z" fill-rule="evenodd" style="fill: #D7A449; stroke: #fff; opacity: 1;" id="p-type-tokenTransfers"></path><path d="M106.8840103174692,165.48355911828563A197,197,0,0,1,102.99177492457548,167.93360086023756L89.1934934655315,145.434764493962A170.6070045455344,170.6070045455344,0,0,0,92.56426819328638,143.31296610509932Z" fill-rule="evenodd" style="fill: #D7A449; stroke: #fff; opacity: 1;" id="p-type-tokenTransfers"></path><path d="M102.99177492457548,167.93360086023756A197,197,0,0,1,99.04340557529729,170.29211318216463L85.77410530553274,147.47729607988944A170.6070045455344,170.6070045455344,0,0,0,89.1934934655315,145.434764493962Z" fill-rule="evenodd" style="fill: #D7A449; stroke: #fff; opacity: 1;" id="p-type-tokenTransfers"></path><path d="M-43.049010889298366,192.23886875825366A197,197,0,0,1,-51.993881224805975,190.01483182946737L-45.02802198203273,164.55767146014668A170.6070045455344,170.6070045455344,0,0,0,-37.28153703792531,166.48374393943033Z" fill-rule="evenodd" style="fill: #414552; stroke: #fff; opacity: 1;" id="p-type-ether"></path><path d="M-51.993881224805975,190.01483182946737A197,197,0,0,1,-59.47695256120315,187.80706087373923L-51.508551857683855,162.64568572674867A170.6070045455344,170.6070045455344,0,0,0,-45.02802198203273,164.55767146014668Z" fill-rule="evenodd" style="fill: #414552; stroke: #fff; opacity: 1;" id="p-type-ether"></path><path d="M-59.47695256120315,187.80706087373923A197,197,0,0,1,-63.84497966719075,186.3674289442659L-55.29137429588814,161.39892790372556A170.6070045455344,170.6070045455344,0,0,0,-51.508551857683855,162.64568572674867Z" fill-rule="evenodd" style="fill: #414552; stroke: #fff; opacity: 1;" id="p-type-ether"></path><path d="M-63.84497966719075,186.3674289442659A197,197,0,0,1,-68.17820912737962,184.8262205429286L-59.04406108883883,160.06420227564146A170.6070045455344,170.6070045455344,0,0,0,-55.29137429588814,161.39892790372556Z" fill-rule="evenodd" style="fill: #414552; stroke: #fff; opacity: 1;" id="p-type-ether"></path><path d="M-68.17820912737962,184.8262205429286A197,197,0,0,1,-72.47427918702093,183.18427567976937L-62.76456689692593,158.6422363125322A170.6070045455344,170.6070045455344,0,0,0,-59.04406108883883,160.06420227564146Z" fill-rule="evenodd" style="fill: #414552; stroke: #fff; opacity: 1;" id="p-type-ether"></path><path d="M-72.47427918702093,183.18427567976937A197,197,0,0,1,-76.73084834447988,181.44248926956558L-66.45086392025071,157.13380503332922A170.6070045455344,170.6070045455344,0,0,0,-62.76456689692593,158.6422363125322Z" fill-rule="evenodd" style="fill: #414552; stroke: #fff; opacity: 1;" id="p-type-ether"></path><path d="M-76.73084834447988,181.44248926956558A197,197,0,0,1,-80.94559662743244,179.60181064407175L-70.10094300384446,155.53973058344852A170.6070045455344,170.6070045455344,0,0,0,-66.45086392025071,157.13380503332922Z" fill-rule="evenodd" style="fill: #414552; stroke: #fff; opacity: 1;" id="p-type-ether"></path><path d="M-80.94559662743244,179.60181064407175A197,197,0,0,1,-85.11622685732756,177.6632430346017L-73.71281473272498,153.8608817866938A170.6070045455344,170.6070045455344,0,0,0,-70.10094300384446,155.53973058344852Z" fill-rule="evenodd" style="fill: #414552; stroke: #fff; opacity: 1;" id="p-type-ether"></path><path d="M-85.11622685732756,177.6632430346017A197,197,0,0,1,-86.23309346262872,177.12383688218122L-74.68004958555427,153.39374235574005A170.6070045455344,170.6070045455344,0,0,0,-73.71281473272498,153.8608817866938Z" fill-rule="evenodd" style="fill: #414552; stroke: #fff; opacity: 1;" id="p-type-ether"></path></g></svg>