<svg xmlns="http://www.w3.org/2000/svg" width="400" height="400" id="block-7908375"><g id="burst-container" transform="translate(200,200)"><circle r="197" style="fill: #f9f9f9; stroke: #f9f9f9; stroke-width: 3; opacity: 1;" id="circle-base"></circle><path display="none" d="M6.031385485800715e-15,-98.5A98.5,98.5,0,1,1,-6.031385485800715e-15,98.5A98.5,98.5,0,1,1,6.031385485800715e-15,-98.5Z" fill-rule="evenodd" id="p-type-root" style="stroke: #fff; opacity: 1;"></path><path d="M8.529667153919608e-15,-139.30003589374985A139.30003589374985,139.30003589374985,0,1,1,-103.07258570142446,-93.7045467243853L-72.88332430390882,-66.25912041682453A98.5,98.5,0,1,0,6.031385485800715e-15,-98.5Z" fill-rule="evenodd" style="fill: #0B1F65; stroke: #fff; opacity: 1;" id="p-type-data"></path><path d="M-103.07258570142446,-93.7045467243853A139.30003589374985,139.30003589374985,0,0,1,-2.9006077328158075,-139.26983332646137L-2.0510393974361953,-98.47864355986107A98.5,98.5,0,0,0,-72.88332430390882,-66.25912041682453Z" fill-rule="evenodd" style="fill: #D7A449; stroke: #fff; opacity: 1;" id="p-type-value"></path><path d="M1.0446666101440332e-14,-170.6070045455344A170.6070045455344,170.6070045455344,0,0,1,170.5289148772385,-5.161316769153118L139.23627594658046,-4.214197495098459A139.30003589374985,139.30003589374985,0,0,0,8.529667153919608e-15,-139.30003589374985Z" fill-rule="evenodd" style="fill: #DB3F29; stroke: #fff; opacity: 1;" id="p-type-functions"></path><path d="M170.5289148772385,-5.161316769153118A170.6070045455344,170.6070045455344,0,0,1,41.79182103484113,165.4091705274886L34.1228789856912,135.05602218978564A139.30003589374985,139.30003589374985,0,0,0,139.23627594658046,-4.214197495098459Z" fill-rule="evenodd" style="fill: #1DC690; stroke: #fff; opacity: 1;" id="p-type-logs"></path><path d="M41.79182103484113,165.4091705274886A170.6070045455344,170.6070045455344,0,0,1,-123.05382612936818,118.1715104199114L-100.47302830470399,96.4866342209228A139.30003589374985,139.30003589374985,0,0,0,34.1228789856912,135.05602218978564Z" fill-rule="evenodd" style="fill: #D7A449; stroke: #fff; opacity: 1;" id="p-type-tokenTransfers"></path><path d="M-123.05382612936818,118.1715104199114A170.6070045455344,170.6070045455344,0,0,1,-167.8980742400582,30.281787702840436L-137.08820356135703,24.724976123748473A139.30003589374985,139.30003589374985,0,0,0,-100.47302830470399,96.4866342209228Z" fill-rule="evenodd" style="fill: #414552; stroke: #fff; opacity: 1;" id="p-type-ether"></path><path d="M-126.23762071888964,-114.76416302676442A170.6070045455344,170.6070045455344,0,0,1,-50.735787179342836,-162.88839706772373L-41.425596762610176,-132.99781927859425A139.30003589374985,139.30003589374985,0,0,0,-103.07258570142446,-93.7045467243853Z" fill-rule="evenodd" style="fill: #D7A449; stroke: #fff; opacity: 1;" id="p-type-tokenTransfers"></path><path d="M-50.735787179342836,-162.88839706772373A170.6070045455344,170.6070045455344,0,0,1,-7.103468405135877,-170.459058828263L-5.79995766552157,-139.17923872143487A139.30003589374985,139.30003589374985,0,0,0,-41.425596762610176,-132.99781927859425Z" fill-rule="evenodd" style="fill: #414552; stroke: #fff; opacity: 1;" id="p-type-ether"></path><path d="M1.206277097160143e-14,-197A197,197,0,0,1,11.323285581942558,-196.6743074314227L9.806252968268316,-170.32494650732266A170.6070045455344,170.6070045455344,0,0,0,1.0446666101440332e-14,-170.6070045455344Z" fill-rule="evenodd" style="fill: #DB3F29; stroke: #fff; opacity: 1;" id="p-type-functions"></path><path d="M11.323285581942558,-196.6743074314227A197,197,0,0,1,16.07960923874836,-196.34267535798008L13.92535008368304,-170.03774470701165A170.6070045455344,170.6070045455344,0,0,0,9.806252968268316,-170.32494650732266Z" fill-rule="evenodd" style="fill: #DB3F29; stroke: #fff; opacity: 1;" id="p-type-functions"></path><path d="M16.07960923874836,-196.34267535798008A197,197,0,0,1,18.12304419531917,-196.1646126830589L15.695016667054512,-169.88353790706407A170.6070045455344,170.6070045455344,0,0,0,13.92535008368304,-170.03774470701165Z" fill-rule="evenodd" style="fill: #DB3F29; stroke: #fff; opacity: 1;" id="p-type-functions"></path><path d="M18.12304419531917,-196.1646126830589A197,197,0,0,1,20.164514409764294,-195.96528355455823L17.462981733833253,-169.7109138180683A170.6070045455344,170.6070045455344,0,0,0,15.695016667054512,-169.88353790706407Z" fill-rule="evenodd" style="fill: #DB3F29; stroke: #fff; opacity: 1;" id="p-type-functions"></path><path d="M20.164514409764294,-195.96528355455823A197,197,0,0,1,22.203798563717804,-195.74470958200084L19.22905361669205,-169.51989115441992A170.6070045455344,170.6070045455344,0,0,0,17.462981733833253,-169.7109138180683Z" fill-rule="evenodd" style="fill: #DB3F29; stroke: #fff; opacity: 1;" id="p-type-functions"></path><path d="M22.203798563717804,-195.74470958200084A197,197,0,0,1,24.240675575807174,-195.5029146780898L20.99304085354599,-169.3104906251274A170.6070045455344,170.6070045455344,0,0,0,19.22905361669205,-169.51989115441992Z" fill-rule="evenodd" style="fill: #DB3F29; stroke: #fff; opacity: 1;" id="p-type-functions"></path><path d="M24.240675575807174,-195.5029146780898A197,197,0,0,1,26.27492462562135,-195.2399250561163L22.754752208309416,-169.08273493156668A170.6070045455344,170.6070045455344,0,0,0,20.99304085354599,-169.3104906251274Z" fill-rule="evenodd" style="fill: #DB3F29; stroke: #fff; opacity: 1;" id="p-type-functions"></path><path d="M26.27492462562135,-195.2399250561163A197,197,0,0,1,28.306325177649807,-194.95576922711763L24.513996691627796,-168.83664876502039A170.6070045455344,170.6070045455344,0,0,0,22.754752208309416,-169.08273493156668Z" fill-rule="evenodd" style="fill: #DB3F29; stroke: #fff; opacity: 1;" id="p-type-functions"></path><path d="M28.306325177649807,-194.95576922711763A197,197,0,0,1,30.33465700519145,-194.6504779967863L26.270583581583374,-168.57225880400085A170.6070045455344,170.6070045455344,0,0,0,24.513996691627796,-168.83664876502039Z" fill-rule="evenodd" style="fill: #DB3F29; stroke: #fff; opacity: 1;" id="p-type-functions"></path><path d="M30.33465700519145,-194.6504779967863A197,197,0,0,1,32.3597002142293,-194.32408446213046L28.02432244437131,-168.28959371135787A170.6070045455344,170.6070045455344,0,0,0,26.270583581583374,-168.57225880400085Z" fill-rule="evenodd" style="fill: #DB3F29; stroke: #fff; opacity: 1;" id="p-type-functions"></path><path d="M32.3597002142293,-194.32408446213046A197,197,0,0,1,34.38123526726984,-193.97662400788565L29.775023154945146,-167.9886841311714A170.6070045455344,170.6070045455344,0,0,0,28.02432244437131,-168.28959371135787Z" fill-rule="evenodd" style="fill: #DB3F29; stroke: #fff; opacity: 1;" id="p-type-functions"></path><path d="M34.38123526726984,-193.97662400788565A197,197,0,0,1,36.39904300714302,-193.6081343026789L31.52249591762818,-167.66956268542933A170.6070045455344,170.6070045455344,0,0,0,29.775023154945146,-167.9886841311714Z" fill-rule="evenodd" style="fill: #DB3F29; stroke: #fff; opacity: 1;" id="p-type-functions"></path><path d="M36.39904300714302,-193.6081343026789A197,197,0,0,1,38.41290468076167,-193.21865529494485L33.26655128668978,-167.33226397049089A170.6070045455344,170.6070045455344,0,0,0,31.52249591762818,-167.66956268542933Z" fill-rule="evenodd" style="fill: #DB3F29; stroke: #fff; opacity: 1;" id="p-type-functions"></path><path d="M38.41290468076167,-193.21865529494485A197,197,0,0,1,40.4226019628365,-192.80822920859495L35.007000186883126,-166.97682455333603A170.6070045455344,170.6070045455344,0,0,0,33.26655128668978,-167.33226397049089Z" fill-rule="evenodd" style="fill: #DB3F29; stroke: #fff; opacity: 1;" id="p-type-functions"></path><path d="M40.4226019628365,-192.80822920859495A197,197,0,0,1,42.42791697954533,-192.3769005384399L36.743653933943385,-166.60328296760122A170.6070045455344,170.6070045455344,0,0,0,35.007000186883126,-166.97682455333603Z" fill-rule="evenodd" style="fill: #DB3F29; stroke: #fff; opacity: 1;" id="p-type-functions"></path><path d="M42.42791697954533,-192.3769005384399A197,197,0,0,1,44.42863233215274,-191.92471604536607L38.47632425504294,-166.21167970940186A170.6070045455344,170.6070045455344,0,0,0,36.743653933943385,-166.60328296760122Z" fill-rule="evenodd" style="fill: #DB3F29; stroke: #fff; opacity: 1;" id="p-type-functions"></path><path d="M44.42863233215274,-191.92471604536607A197,197,0,0,1,46.42453112057887,-191.45172475126571L40.20482330920255,-165.80205723294208A170.6070045455344,170.6070045455344,0,0,0,38.47632425504294,-166.21167970940186Z" fill-rule="evenodd" style="fill: #DB3F29; stroke: #fff; opacity: 1;" id="p-type-functions"></path><path d="M46.42453112057887,-191.45172475126571A197,197,0,0,1,48.41539696691351,-190.95797793372284L41.928963707655164,-165.37445994591224A170.6070045455344,170.6070045455344,0,0,0,40.20482330920255,-165.80205723294208Z" fill-rule="evenodd" style="fill: #DB3F29; stroke: #fff; opacity: 1;" id="p-type-functions"></path><path d="M48.41539696691351,-190.95797793372284A197,197,0,0,1,50.401014038874244,-190.44352912045397L43.648558534161225,-164.92893420467465A170.6070045455344,170.6070045455344,0,0,0,41.928963707655164,-165.37445994591224Z" fill-rule="evenodd" style="fill: #DB3F29; stroke: #fff; opacity: 1;" id="p-type-functions"></path><path d="M50.401014038874244,-190.44352912045397A197,197,0,0,1,52.38116707320471,-189.90843408350514L45.36342136527225,-164.46552830923798A170.6070045455344,170.6070045455344,0,0,0,43.648558534161225,-164.92893420467465Z" fill-rule="evenodd" style="fill: #DB3F29; stroke: #fff; opacity: 1;" id="p-type-functions"></path><path d="M52.38116707320471,-189.90843408350514A197,197,0,0,1,54.35564139901198,-189.35275083320553L47.07336629054149,-163.984292498021A170.6070045455344,170.6070045455344,0,0,0,45.36342136527225,-164.46552830923798Z" fill-rule="evenodd" style="fill: #DB3F29; stroke: #fff; opacity: 1;" id="p-type-functions"></path><path d="M54.35564139901198,-189.35275083320553A197,197,0,0,1,56.32422296103891,-188.7765396118786L48.77820793267847,-163.48527894240624A170.6070045455344,170.6070045455344,0,0,0,47.07336629054149,-163.984292498021Z" fill-rule="evenodd" style="fill: #DB3F29; stroke: #fff; opacity: 1;" id="p-type-functions"></path><path d="M56.32422296103891,-188.7765396118786A197,197,0,0,1,58.2866983428705,-188.17986288731112L50.4777614676462,-162.9685417410839A170.6070045455344,170.6070045455344,0,0,0,48.77820793267847,-163.48527894240624Z" fill-rule="evenodd" style="fill: #DB3F29; stroke: #fff; opacity: 1;" id="p-type-functions"></path><path d="M58.2866983428705,-188.17986288731112A197,197,0,0,1,60.2428547900703,-187.5627853459809L52.171842644697925,-162.4341369141871A170.6070045455344,170.6070045455344,0,0,0,50.4777614676462,-162.9685417410839Z" fill-rule="evenodd" style="fill: #DB3F29; stroke: #fff; opacity: 1;" id="p-type-functions"></path><path d="M60.2428547900703,-187.5627853459809A197,197,0,0,1,62.19248023324567,-186.92537388604404L53.8602678063523,-161.88212239721844A170.6070045455344,170.6070045455344,0,0,0,52.171842644697925,-162.4341369141871Z" fill-rule="evenodd" style="fill: #DB3F29; stroke: #fff; opacity: 1;" id="p-type-functions"></path><path d="M62.19248023324567,-186.92537388604404A197,197,0,0,1,64.13536331103826,-186.26769761008248L55.542853908303584,-161.3125580347694A170.6070045455344,170.6070045455344,0,0,0,53.8602678063523,-161.88212239721844Z" fill-rule="evenodd" style="fill: #DB3F29; stroke: #fff; opacity: 1;" id="p-type-functions"></path><path d="M64.13536331103826,-186.26769761008248A197,197,0,0,1,66.07129339303822,-185.58982781761253L57.21941853926603,-160.72550557403233A170.6070045455344,170.6070045455344,0,0,0,55.542853908303584,-161.3125580347694Z" fill-rule="evenodd" style="fill: #DB3F29; stroke: #fff; opacity: 1;" id="p-type-functions"></path><path d="M66.07129339303822,-185.58982781761253A197,197,0,0,1,68.00006060261859,-184.89183799735508L58.88977994074906,-160.12102865810644A170.6070045455344,170.6070045455344,0,0,0,57.21941853926603,-160.72550557403233Z" fill-rule="evenodd" style="fill: #DB3F29; stroke: #fff; opacity: 1;" id="p-type-functions"></path><path d="M68.00006060261859,-184.89183799735508A197,197,0,0,1,69.92145583968863,-184.1738038192687L60.553757026762135,-159.49919281909817A170.6070045455344,170.6070045455344,0,0,0,58.88977994074906,-160.12102865810644Z" fill-rule="evenodd" style="fill: #DB3F29; stroke: #fff; opacity: 1;" id="p-type-functions"></path><path d="M69.92145583968863,-184.1738038192687A197,197,0,0,1,71.83527080336229,-183.43580312634612L62.21116940344632,-158.86006547101667A170.6070045455344,170.6070045455344,0,0,0,60.553757026762135,-159.49919281909817Z" fill-rule="evenodd" style="fill: #DB3F29; stroke: #fff; opacity: 1;" id="p-type-functions"></path><path d="M71.83527080336229,-183.43580312634612A197,197,0,0,1,73.74129801454072,-182.6779159261751L63.861837388631244,-158.20371590246552A170.6070045455344,170.6070045455344,0,0,0,62.21116940344632,-158.86006547101667Z" fill-rule="evenodd" style="fill: #DB3F29; stroke: #fff; opacity: 1;" id="p-type-functions"></path><path d="M73.74129801454072,-182.6779159261751A197,197,0,0,1,75.63933083840494,-181.90022438226492L65.50558203131438,-157.53021526913096A170.6070045455344,170.6070045455344,0,0,0,63.861837388631244,-158.20371590246552Z" fill-rule="evenodd" style="fill: #DB3F29; stroke: #fff; opacity: 1;" id="p-type-functions"></path><path d="M75.63933083840494,-181.90022438226492A197,197,0,0,1,77.52916350681787,-181.10281280513868L67.1422251310617,-156.83963658606783A170.6070045455344,170.6070045455344,0,0,0,65.50558203131438,-157.53021526913096Z" fill-rule="evenodd" style="fill: #DB3F29; stroke: #fff; opacity: 1;" id="p-type-functions"></path><path d="M77.52916350681787,-181.10281280513868A197,197,0,0,1,79.41059114063137,-180.28576764319328L68.77158925732624,-156.13205471978395A170.6070045455344,170.6070045455344,0,0,0,67.1422251310617,-156.83963658606783Z" fill-rule="evenodd" style="fill: #DB3F29; stroke: #fff; opacity: 1;" id="p-type-functions"></path><path d="M79.41059114063137,-180.28576764319328A197,197,0,0,1,81.28340977189796,-179.44917747332732L70.39349776868391,-155.40754638012368A170.6070045455344,170.6070045455344,0,0,0,68.77158925732624,-156.13205471978395Z" fill-rule="evenodd" style="fill: #DB3F29; stroke: #fff; opacity: 1;" id="p-type-functions"></path><path d="M81.28340977189796,-179.44917747332732A197,197,0,0,1,83.1474163659828,-178.59313299133842L72.0077748319831,-154.6661901119518A170.6070045455344,170.6070045455344,0,0,0,70.39349776868391,-155.40754638012368Z" fill-rule="evenodd" style="fill: #DB3F29; stroke: #fff; opacity: 1;" id="p-type-functions"></path><path d="M83.1474163659828,-178.59313299133842A197,197,0,0,1,85.00240884357537,-177.71772700209075L73.61424544140729,-153.90806628663827A170.6070045455344,170.6070045455344,0,0,0,72.0077748319831,-154.6661901119518Z" fill-rule="evenodd" style="fill: #DB3F29; stroke: #fff; opacity: 1;" id="p-type-functions"></path><path d="M85.00240884357537,-177.71772700209075A197,197,0,0,1,86.84818610259664,-176.82305440945402L75.21273543744734,-153.13325709334518A170.6070045455344,170.6070045455344,0,0,0,73.61424544140729,-153.90806628663827Z" fill-rule="evenodd" style="fill: #DB3F29; stroke: #fff; opacity: 1;" id="p-type-functions"></path><path d="M86.84818610259664,-176.82305440945402A197,197,0,0,1,88.68454804000133,-175.90921220601464L76.8030715257826,-152.34184653011633A170.6070045455344,170.6070045455344,0,0,0,75.21273543744734,-153.13325709334518Z" fill-rule="evenodd" style="fill: #DB3F29; stroke: #fff; opacity: 1;" id="p-type-functions"></path><path d="M88.68454804000133,-175.90921220601464A197,197,0,0,1,90.51129557347087,-174.97629946256092L78.38508129606778,-151.53392039477117A170.6070045455344,170.6070045455344,0,0,0,76.8030715257826,-152.34184653011633Z" fill-rule="evenodd" style="fill: #DB3F29; stroke: #fff; opacity: 1;" id="p-type-functions"></path><path d="M90.51129557347087,-174.97629946256092A197,197,0,0,1,92.32823066299655,-174.0244173173423L79.95859324062437,-150.709566275603A170.6070045455344,170.6070045455344,0,0,0,78.38508129606778,-151.53392039477117Z" fill-rule="evenodd" style="fill: #DB3F29; stroke: #fff; opacity: 1;" id="p-type-functions"></path><path d="M92.32823066299655,-174.0244173173423A197,197,0,0,1,94.13515633234891,-173.05366896510523L81.52343677303372,-149.86887354188383A170.6070045455344,170.6070045455344,0,0,0,79.95859324062437,-150.709566275603Z" fill-rule="evenodd" style="fill: #DB3F29; stroke: #fff; opacity: 1;" id="p-type-functions"></path><path d="M94.13515633234891,-173.05366896510523A197,197,0,0,1,95.9318766904326,-172.06415964590545L83.07944224663088,-149.01193333417538A170.6070045455344,170.6070045455344,0,0,0,81.52343677303372,-149.86887354188383Z" fill-rule="evenodd" style="fill: #DB3F29; stroke: #fff; opacity: 1;" id="p-type-functions"></path><path d="M95.9318766904326,-172.06415964590545A197,197,0,0,1,97.71819695252276,-171.05599663369878L84.62644097289582,-148.13883855444857A170.6070045455344,170.6070045455344,0,0,0,83.07944224663088,-149.01193333417538Z" fill-rule="evenodd" style="fill: #DB3F29; stroke: #fff; opacity: 1;" id="p-type-functions"></path><path d="M97.71819695252276,-171.05599663369878A197,197,0,0,1,99.49392346138225,-170.02928922471153L86.1642652397416,-147.2496838560119A170.6070045455344,170.6070045455344,0,0,0,84.62644097289582,-148.13883855444857Z" fill-rule="evenodd" style="fill: #DB3F29; stroke: #fff; opacity: 1;" id="p-type-functions"></path><path d="M99.49392346138225,-170.02928922471153A197,197,0,0,1,101.258863708256,-168.98414872559152L87.69274832969585,-146.34456563325003A170.6070045455344,170.6070045455344,0,0,0,86.1642652397416,-147.2496838560119Z" fill-rule="evenodd" style="fill: #DB3F29; stroke: #fff; opacity: 1;" id="p-type-functions"></path><path d="M101.258863708256,-168.98414872559152A197,197,0,0,1,103.01282635374122,-167.92068844134113L89.211724537975,-145.42358201117335A170.6070045455344,170.6070045455344,0,0,0,87.69274832969585,-146.34456563325003Z" fill-rule="evenodd" style="fill: #DB3F29; stroke: #fff; opacity: 1;" id="p-type-functions"></path><path d="M103.01282635374122,-167.92068844134113A197,197,0,0,1,104.75562124853087,-166.8390236630338L90.72102919044866,-144.48683283478036A170.6070045455344,170.6070045455344,0,0,0,89.211724537975,-145.42358201117335Z" fill-rule="evenodd" style="fill: #DB3F29; stroke: #fff; opacity: 1;" id="p-type-functions"></path><path d="M104.75562124853087,-166.8390236630338A197,197,0,0,1,106.48705945402779,-165.73927165531515L92.22049866149194,-143.53441965823308A170.6070045455344,170.6070045455344,0,0,0,90.72102919044866,-144.48683283478036Z" fill-rule="evenodd" style="fill: #DB3F29; stroke: #fff; opacity: 1;" id="p-type-functions"></path><path d="M106.48705945402779,-165.73927165531515A197,197,0,0,1,108.20695326282788,-164.62155164369028L93.7099703917244,-142.5664457338477A170.6070045455344,170.6070045455344,0,0,0,92.22049866149194,-143.53441965823308Z" fill-rule="evenodd" style="fill: #DB3F29; stroke: #fff; opacity: 1;" id="p-type-functions"></path><path d="M108.20695326282788,-164.62155164369028A197,197,0,0,1,109.91511621906965,-163.48598480159825L95.18928290563329,-141.58301600090073A170.6070045455344,170.6070045455344,0,0,0,93.7099703917244,-142.5664457338477Z" fill-rule="evenodd" style="fill: #DB3F29; stroke: #fff; opacity: 1;" id="p-type-functions"></path><path d="M109.91511621906965,-163.48598480159825A197,197,0,0,1,111.61136313864823,-162.33269423727555L96.65827582907944,-140.58423707425237A170.6070045455344,170.6070045455344,0,0,0,95.18928290563329,-141.58301600090073Z" fill-rule="evenodd" style="fill: #DB3F29; stroke: #fff; opacity: 1;" id="p-type-functions"></path><path d="M111.61136313864823,-162.33269423727555A197,197,0,0,1,113.29551012929127,-161.16180498040987L98.11678990668344,-139.5702172327884A170.6070045455344,170.6070045455344,0,0,0,96.65827582907944,-140.58423707425237Z" fill-rule="evenodd" style="fill: #DB3F29; stroke: #fff; opacity: 1;" id="p-type-functions"></path><path d="M113.29551012929127,-161.16180498040987A197,197,0,0,1,114.96737461049507,-159.9734439685853L99.5646670190908,-138.54106640768134A170.6070045455344,170.6070045455344,0,0,0,98.11678990668344,-139.5702172327884Z" fill-rule="evenodd" style="fill: #DB3F29; stroke: #fff; opacity: 1;" id="p-type-functions"></path><path d="M114.96737461049507,-159.9734439685853A197,197,0,0,1,116.62677533331824,-158.767740033521L101.00175020011393,-137.4968961704728A170.6070045455344,170.6070045455344,0,0,0,99.5646670190908,-138.54106640768134Z" fill-rule="evenodd" style="fill: #DB3F29; stroke: #fff; opacity: 1;" id="p-type-functions"></path><path d="M116.62677533331824,-158.767740033521A197,197,0,0,1,118.27353240003126,-157.54482388710446L102.42788365374895,-136.4378197209779A170.6070045455344,170.6070045455344,0,0,0,101.00175020011393,-137.4968961704728Z" fill-rule="evenodd" style="fill: #DB3F29; stroke: #fff; opacity: 1;" id="p-type-functions"></path><path d="M118.27353240003126,-157.54482388710446A197,197,0,0,1,119.90746728361927,-156.3048281072206L103.84291277106574,-135.363951875013A170.6070045455344,170.6070045455344,0,0,0,102.42788365374895,-136.4378197209779Z" fill-rule="evenodd" style="fill: #DB3F29; stroke: #fff; opacity: 1;" id="p-type-functions"></path><path d="M119.90746728361927,-156.3048281072206A197,197,0,0,1,121.52840284713653,-155.04788712337907L105.24668414696933,-134.27540905194843A170.6070045455344,170.6070045455344,0,0,0,103.84291277106574,-135.363951875013Z" fill-rule="evenodd" style="fill: #DB3F29; stroke: #fff; opacity: 1;" id="p-type-functions"></path><path d="M121.52840284713653,-155.04788712337907A197,197,0,0,1,123.13616336291003,-153.7741372021405L106.63904559683075,-133.1723092620874A170.6070045455344,170.6070045455344,0,0,0,105.24668414696933,-134.27540905194843Z" fill-rule="evenodd" style="fill: #DB3F29; stroke: #fff; opacity: 1;" id="p-type-functions"></path><path d="M123.13616336291003,-153.7741372021405A197,197,0,0,1,124.73057453159032,-152.48371643234367L108.01984617298552,-132.05477209387226A170.6070045455344,170.6070045455344,0,0,0,106.63904559683075,-133.1723092620874Z" fill-rule="evenodd" style="fill: #DB3F29; stroke: #fff; opacity: 1;" id="p-type-functions"></path><path d="M124.73057453159032,-152.48371643234367A197,197,0,0,1,126.31146350104754,-151.17676471013505L109.38893618109807,-130.92291870091978A170.6070045455344,170.6070045455344,0,0,0,108.01984617298552,-132.05477209387226Z" fill-rule="evenodd" style="fill: #DB3F29; stroke: #fff; opacity: 1;" id="p-type-functions"></path><path d="M126.31146350104754,-151.17676471013505A197,197,0,0,1,127.87865888511054,-149.85342372380265L110.74616719639035,-129.77687178888678A170.6070045455344,170.6070045455344,0,0,0,109.38893618109807,-130.92291870091978Z" fill-rule="evenodd" style="fill: #DB3F29; stroke: #fff; opacity: 1;" id="p-type-functions"></path><path d="M127.87865888511054,-149.85342372380265A197,197,0,0,1,129.43199078214704,-148.5138369384153L112.09139207973263,-128.61675560216736A170.6070045455344,170.6070045455344,0,0,0,110.74616719639035,-129.77687178888678Z" fill-rule="evenodd" style="fill: #DB3F29; stroke: #fff; opacity: 1;" id="p-type-functions"></path><path d="M129.43199078214704,-148.5138369384153A197,197,0,0,1,130.97129079348298,-147.1581495802693L113.42446499359522,-127.44269591042355A170.6070045455344,170.6070045455344,0,0,0,112.09139207973263,-128.61675560216736Z" fill-rule="evenodd" style="fill: #DB3F29; stroke: #fff; opacity: 1;" id="p-type-functions"></path><path d="M130.97129079348298,-147.1581495802693A197,197,0,0,1,132.49639204165868,-145.78650862114466L114.74524141785874,-126.25481999495034A170.6070045455344,170.6070045455344,0,0,0,113.42446499359522,-127.44269591042355Z" fill-rule="evenodd" style="fill: #DB3F29; stroke: #fff; opacity: 1;" id="p-type-functions"></path><path d="M132.49639204165868,-145.78650862114466A197,197,0,0,1,133.44984098567664,-144.91425030305894L115.57095242458975,-125.49942213282583A170.6070045455344,170.6070045455344,0,0,0,114.74524141785874,-126.25481999495034Z" fill-rule="evenodd" style="fill: #DB3F29; stroke: #fff; opacity: 1;" id="p-type-functions"></path><path d="M133.44984098567664,-144.91425030305894A197,197,0,0,1,134.30741501668712,-144.1198052716398L116.31363332107064,-124.8114125537065A170.6070045455344,170.6070045455344,0,0,0,115.57095242458975,-125.49942213282583Z" fill-rule="evenodd" style="fill: #DB3F29; stroke: #fff; opacity: 1;" id="p-type-functions"></path><path d="M196.90982981797686,-5.959775252086965A197,197,0,0,1,196.9612089701962,-3.909240463147052L170.57341052828536,-3.3855015505873913A170.6070045455344,170.6070045455344,0,0,0,170.5289148772385,-5.161316769153118Z" fill-rule="evenodd" style="fill: #1DC690; stroke: #fff; opacity: 1;" id="p-type-logs"></path><path d="M196.9612089701962,-3.909240463147052A197,197,0,0,1,196.9912353088258,-1.858281868507917L170.5994141003212,-1.6093193055198698A170.6070045455344,170.6070045455344,0,0,0,170.57341052828536,-3.3855015505873913Z" fill-rule="evenodd" style="fill: #1DC690; stroke: #fff; opacity: 1;" id="p-type-logs"></path><path d="M196.9912353088258,-1.858281868507917A197,197,0,0,1,196.99990557867233,0.19287818481713243L170.606922774266,0.16703740788746668A170.6070045455344,170.6070045455344,0,0,0,170.5994141003212,-1.6093193055198698Z" fill-rule="evenodd" style="fill: #1DC690; stroke: #fff; opacity: 1;" id="p-type-logs"></path><path d="M196.99990557867233,0.19287818481713243A197,197,0,0,1,196.98721883978095,2.244017327974401L170.59593573609487,1.9433760125583077A170.6070045455344,170.6070045455344,0,0,0,170.606922774266,0.16703740788746668Z" fill-rule="evenodd" style="fill: #1DC690; stroke: #fff; opacity: 1;" id="p-type-logs"></path><path d="M196.98721883978095,2.244017327974401A197,197,0,0,1,196.953176467537,4.29491319437709L170.5664541769265,3.7195039333795323A170.6070045455344,170.6070045455344,0,0,0,170.59593573609487,1.9433760125583077Z" fill-rule="evenodd" style="fill: #1DC690; stroke: #fff; opacity: 1;" id="p-type-logs"></path><path d="M196.953176467537,4.29491319437709A197,197,0,0,1,196.89778215251707,6.34534344381234L170.51848129289402,5.495228618078523A170.6070045455344,170.6070045455344,0,0,0,170.5664541769265,3.7195039333795323Z" fill-rule="evenodd" style="fill: #1DC690; stroke: #fff; opacity: 1;" id="p-type-logs"></path><path d="M196.89778215251707,6.34534344381234A197,197,0,0,1,196.8210419000889,8.39508578654542L170.45202228479837,7.270357558097999A170.6070045455344,170.6070045455344,0,0,0,170.51848129289402,5.495228618078523Z" fill-rule="evenodd" style="fill: #1DC690; stroke: #fff; opacity: 1;" id="p-type-logs"></path><path d="M196.8210419000889,8.39508578654542A197,197,0,0,1,196.7229640297602,10.443918007418429L170.36708435754466,9.044698309466114A170.6070045455344,170.6070045455344,0,0,0,170.45202228479837,7.270357558097999Z" fill-rule="evenodd" style="fill: #1DC690; stroke: #fff; opacity: 1;" id="p-type-logs"></path><path d="M196.7229640297602,10.443918007418429A197,197,0,0,1,196.60355917427688,12.491617989940925L170.2636767193609,10.818058513659548A170.6070045455344,170.6070045455344,0,0,0,170.36708435754466,9.044698309466114Z" fill-rule="evenodd" style="fill: #1DC690; stroke: #fff; opacity: 1;" id="p-type-logs"></path><path d="M196.60355917427688,12.491617989940925A197,197,0,0,1,196.4628402784702,14.537963740369866L170.14181058079984,12.59024591845734A170.6070045455344,170.6070045455344,0,0,0,170.2636767193609,10.818058513659548Z" fill-rule="evenodd" style="fill: #1DC690; stroke: #fff; opacity: 1;" id="p-type-logs"></path><path d="M196.4628402784702,14.537963740369866A197,197,0,0,1,196.30082259785354,16.582733411776214L170.00149915352355,14.361068398783198A170.6070045455344,170.6070045455344,0,0,0,170.14181058079984,12.59024591845734Z" fill-rule="evenodd" style="fill: #1DC690; stroke: #fff; opacity: 1;" id="p-type-logs"></path><path d="M196.30082259785354,16.582733411776214A197,197,0,0,1,196.11752369696836,18.625705328095652L169.84275764887124,16.130333977534008A170.6070045455344,170.6070045455344,0,0,0,170.00149915352355,14.361068398783198Z" fill-rule="evenodd" style="fill: #1DC690; stroke: #fff; opacity: 1;" id="p-type-logs"></path><path d="M196.11752369696836,18.625705328095652A197,197,0,0,1,195.91296344748022,20.66665800816077L169.66560327621002,17.897850846392334A170.6070045455344,170.6070045455344,0,0,0,169.84275764887124,16.130333977534008Z" fill-rule="evenodd" style="fill: #1DC690; stroke: #fff; opacity: 1;" id="p-type-logs"></path><path d="M195.91296344748022,20.66665800816077A197,197,0,0,1,195.68716402602428,22.705370189712102L169.47005524106936,19.66342738662058A170.6070045455344,170.6070045455344,0,0,0,169.66560327621002,17.897850846392334Z" fill-rule="evenodd" style="fill: #1DC690; stroke: #fff; opacity: 1;" id="p-type-logs"></path><path d="M195.68716402602428,22.705370189712102A197,197,0,0,1,195.4401499118012,24.741620853385466L169.25613474305885,21.426872189834636A170.6070045455344,170.6070045455344,0,0,0,169.47005524106936,19.66342738662058Z" fill-rule="evenodd" style="fill: #1DC690; stroke: #fff; opacity: 1;" id="p-type-logs"></path><path d="M195.4401499118012,24.741620853385466A197,197,0,0,1,195.17194788392322,26.775189246672937L169.02386497357003,23.187994078754688A170.6070045455344,170.6070045455344,0,0,0,169.25613474305885,21.426872189834636Z" fill-rule="evenodd" style="fill: #1DC690; stroke: #fff; opacity: 1;" id="p-type-logs"></path><path d="M195.17194788392322,26.775189246672937A197,197,0,0,1,194.88258701851126,28.805854907854922L168.7732711132622,24.946602127931012A170.6070045455344,170.6070045455344,0,0,0,169.02386497357003,23.187994078754688Z" fill-rule="evenodd" style="fill: #1DC690; stroke: #fff; opacity: 1;" id="p-type-logs"></path><path d="M194.88258701851126,28.805854907854922A197,197,0,0,1,194.57209868554236,30.83339768990067L168.50438032933246,26.702505684442407A170.6070045455344,170.6070045455344,0,0,0,168.7732711132622,24.946602127931012Z" fill-rule="evenodd" style="fill: #1DC690; stroke: #fff; opacity: 1;" id="p-type-logs"></path><path d="M194.57209868554236,30.83339768990067A197,197,0,0,1,194.24051654544908,32.85759778433472L168.21722177257047,28.45551438856515A170.6070045455344,170.6070045455344,0,0,0,168.50438032933246,26.702505684442407Z" fill-rule="evenodd" style="fill: #1DC690; stroke: #fff; opacity: 1;" id="p-type-logs"></path><path d="M194.24051654544908,32.85759778433472A197,197,0,0,1,193.88787654547036,34.87823574506659L167.91182657419836,30.20543819441013A170.6070045455344,170.6070045455344,0,0,0,168.21722177257047,28.45551438856515Z" fill-rule="evenodd" style="fill: #1DC690; stroke: #fff; opacity: 1;" id="p-type-logs"></path><path d="M193.88787654547036,34.87823574506659A197,197,0,0,1,193.51421691575425,36.89509251218121L167.5882278424955,31.95208739052595A170.6070045455344,170.6070045455344,0,0,0,167.91182657419836,30.20543819441013Z" fill-rule="evenodd" style="fill: #1DC690; stroke: #fff; opacity: 1;" id="p-type-logs"></path><path d="M193.51421691575425,36.89509251218121A197,197,0,0,1,193.11957816521345,38.9079494356875L167.24646065920945,33.695272620465786A170.6070045455344,170.6070045455344,0,0,0,167.5882278424955,31.95208739052595Z" fill-rule="evenodd" style="fill: #1DC690; stroke: #fff; opacity: 1;" id="p-type-logs"></path><path d="M193.11957816521345,38.9079494356875A197,197,0,0,1,192.70400307713362,40.91658829922248L166.88656207575235,35.434804903315786A170.6070045455344,170.6070045455344,0,0,0,167.24646065920945,33.695272620465786Z" fill-rule="evenodd" style="fill: #1DC690; stroke: #fff; opacity: 1;" id="p-type-logs"></path><path d="M192.70400307713362,40.91658829922248A197,197,0,0,1,192.26753670453533,42.92079134370837L166.5085711091846,37.17049565418268A170.6070045455344,170.6070045455344,0,0,0,166.88656207575235,35.434804903315786Z" fill-rule="evenodd" style="fill: #1DC690; stroke: #fff; opacity: 1;" id="p-type-logs"></path><path d="M192.26753670453533,42.92079134370837A197,197,0,0,1,191.81022636528965,44.92034129096016L166.11252873798455,38.902156704638564A170.6070045455344,170.6070045455344,0,0,0,166.5085711091846,37.17049565418268Z" fill-rule="evenodd" style="fill: #1DC690; stroke: #fff; opacity: 1;" id="p-type-logs"></path><path d="M191.81022636528965,44.92034129096016A197,197,0,0,1,191.3321216369884,46.91502136724097L165.6984778976062,40.62960032312043A170.6070045455344,170.6070045455344,0,0,0,166.11252873798455,38.902156704638564Z" fill-rule="evenodd" style="fill: #1DC690; stroke: #fff; opacity: 1;" id="p-type-logs"></path><path d="M191.3321216369884,46.91502136724097A197,197,0,0,1,190.8332743515694,48.904615326762794L165.26646347582445,42.352639235282396A170.6070045455344,170.6070045455344,0,0,0,165.6984778976062,40.62960032312043Z" fill-rule="evenodd" style="fill: #1DC690; stroke: #fff; opacity: 1;" id="p-type-logs"></path><path d="M190.8332743515694,48.904615326762794A197,197,0,0,1,190.31373858969735,50.888907475129976L164.81653230786875,44.071086644298376A170.6070045455344,170.6070045455344,0,0,0,165.26646347582445,42.352639235282396Z" fill-rule="evenodd" style="fill: #1DC690; stroke: #fff; opacity: 1;" id="p-type-logs"></path><path d="M190.31373858969735,50.888907475129976A197,197,0,0,1,189.77357067490078,52.86768269272291L164.34873317134566,45.78475625111294A170.6070045455344,170.6070045455344,0,0,0,164.81653230786875,44.071086644298376Z" fill-rule="evenodd" style="fill: #1DC690; stroke: #fff; opacity: 1;" id="p-type-logs"></path><path d="M189.77357067490078,52.86768269272291A197,197,0,0,1,189.21282916746603,54.840726458019425L163.86311678095078,47.49346227463822A170.6070045455344,170.6070045455344,0,0,0,164.34873317134566,45.78475625111294Z" fill-rule="evenodd" style="fill: #1DC690; stroke: #fff; opacity: 1;" id="p-type-logs"></path><path d="M189.21282916746603,54.840726458019425A197,197,0,0,1,188.6315748580886,56.80782487085133L163.35973578297074,49.19701947189469A170.6070045455344,170.6070045455344,0,0,0,163.86311678095078,47.49346227463822Z" fill-rule="evenodd" style="fill: #1DC690; stroke: #fff; opacity: 1;" id="p-type-logs"></path><path d="M188.6315748580886,56.80782487085133A197,197,0,0,1,188.02987076128278,58.768764675593616L162.83864474957574,50.89524315809361A170.6070045455344,170.6070045455344,0,0,0,163.35973578297074,49.19701947189469Z" fill-rule="evenodd" style="fill: #1DC690; stroke: #fff; opacity: 1;" id="p-type-logs"></path><path d="M188.02987076128278,58.768764675593616A197,197,0,0,1,187.4077821085501,60.72333328428375L162.2999001729032,52.58794922665887A170.6070045455344,170.6070045455344,0,0,0,162.83864474957574,50.89524315809361Z" fill-rule="evenodd" style="fill: #1DC690; stroke: #fff; opacity: 1;" id="p-type-logs"></path><path d="M187.4077821085501,60.72333328428375A197,197,0,0,1,186.7653763413077,62.67131879966864L161.74356045893364,54.274954169186316A170.6070045455344,170.6070045455344,0,0,0,162.2999001729032,52.58794922665887Z" fill-rule="evenodd" style="fill: #1DC690; stroke: #fff; opacity: 1;" id="p-type-logs"></path><path d="M186.7653763413077,62.67131879966864A197,197,0,0,1,186.10272310357666,64.61251003817664L161.16968592115853,55.956075095338015A170.6070045455344,170.6070045455344,0,0,0,161.74356045893364,54.274954169186316Z" fill-rule="evenodd" style="fill: #1DC690; stroke: #fff; opacity: 1;" id="p-type-logs"></path><path d="M186.10272310357666,64.61251003817664A197,197,0,0,1,185.41989423443195,66.54669655281222L160.5783387740418,57.631129752669715A170.6070045455344,170.6070045455344,0,0,0,161.16968592115853,55.956075095338015Z" fill-rule="evenodd" style="fill: #1DC690; stroke: #fff; opacity: 1;" id="p-type-logs"></path><path d="M185.41989423443195,66.54669655281222A197,197,0,0,1,184.71696376021427,68.47366865597088L159.96958312627507,59.29993654638905A170.6070045455344,170.6070045455344,0,0,0,160.5783387740418,57.631129752669715Z" fill-rule="evenodd" style="fill: #1DC690; stroke: #fff; opacity: 1;" id="p-type-logs"></path><path d="M184.71696376021427,68.47366865597088A197,197,0,0,1,183.9940078865047,70.39321744217156L159.34348497382743,60.96231455904242A170.6070045455344,170.6070045455344,0,0,0,159.96958312627507,59.29993654638905Z" fill-rule="evenodd" style="fill: #1DC690; stroke: #fff; opacity: 1;" id="p-type-logs"></path><path d="M183.9940078865047,70.39321744217156A197,197,0,0,1,183.2511049898632,72.30513481070435L158.70011219279084,62.6180835701285A170.6070045455344,170.6070045455344,0,0,0,159.34348497382743,60.96231455904242Z" fill-rule="evenodd" style="fill: #1DC690; stroke: #fff; opacity: 1;" id="p-type-logs"></path><path d="M183.2511049898632,72.30513481070435A197,197,0,0,1,182.48833560933176,74.20921348819098L158.03953453202166,64.2670640756362A170.6070045455344,170.6070045455344,0,0,0,158.70011219279084,62.6180835701285Z" fill-rule="evenodd" style="fill: #1DC690; stroke: #fff; opacity: 1;" id="p-type-logs"></path><path d="M182.48833560933176,74.20921348819098A197,197,0,0,1,181.70578243770282,76.10524705105561L157.36182360557893,65.9090773075049A170.6070045455344,170.6070045455344,0,0,0,158.03953453202166,64.2670640756362Z" fill-rule="evenodd" style="fill: #1DC690; stroke: #fff; opacity: 1;" id="p-type-logs"></path><path d="M181.70578243770282,76.10524705105561A197,197,0,0,1,180.9035303125548,77.99302994790344L156.66705288496073,67.54394525300489A170.6070045455344,170.6070045455344,0,0,0,157.36182360557893,65.9090773075049Z" fill-rule="evenodd" style="fill: #1DC690; stroke: #fff; opacity: 1;" id="p-type-logs"></path><path d="M180.9035303125548,77.99302994790344A197,197,0,0,1,180.08166620705452,79.87235752180476L155.9552976911389,69.17149067403601A170.6070045455344,170.6070045455344,0,0,0,156.66705288496073,67.54394525300489Z" fill-rule="evenodd" style="fill: #1DC690; stroke: #fff; opacity: 1;" id="p-type-logs"></path><path d="M180.08166620705452,79.87235752180476A197,197,0,0,1,179.2402792205283,81.74302603248215L155.22663518639354,70.79153712634223A170.6070045455344,170.6070045455344,0,0,0,155.9552976911389,69.17149067403601Z" fill-rule="evenodd" style="fill: #1DC690; stroke: #fff; opacity: 1;" id="p-type-logs"></path><path d="M179.2402792205283,81.74302603248215A197,197,0,0,1,178.37946056880273,83.60483267839815L154.48114436594773,72.40390897864019A170.6070045455344,170.6070045455344,0,0,0,155.22663518639354,70.79153712634223Z" fill-rule="evenodd" style="fill: #1DC690; stroke: #fff; opacity: 1;" id="p-type-logs"></path><path d="M178.37946056880273,83.60483267839815A197,197,0,0,1,177.4993035743158,85.4575756187413L153.7189060494035,74.00843143165963A170.6070045455344,170.6070045455344,0,0,0,154.48114436594773,72.40390897864019Z" fill-rule="evenodd" style="fill: #1DC690; stroke: #fff; opacity: 1;" id="p-type-logs"></path><path d="M177.4993035743158,85.4575756187413A197,197,0,0,1,176.5999036559996,87.30105399530785L152.94000287198,75.60493053709357A170.6070045455344,170.6070045455344,0,0,0,153.7189060494035,74.00843143165963Z" fill-rule="evenodd" style="fill: #1DC690; stroke: #fff; opacity: 1;" id="p-type-logs"></path><path d="M176.5999036559996,87.30105399530785A197,197,0,0,1,175.681358318936,89.13506795427718L152.1445192755552,77.19323321645628A170.6070045455344,170.6070045455344,0,0,0,152.94000287198,75.60493053709357Z" fill-rule="evenodd" style="fill: #1DC690; stroke: #fff; opacity: 1;" id="p-type-logs"></path><path d="M175.681358318936,89.13506795427718A197,197,0,0,1,174.74376714378587,90.95941866787813L151.33254149951108,78.77316727984696A170.6070045455344,170.6070045455344,0,0,0,152.1445192755552,77.19323321645628Z" fill-rule="evenodd" style="fill: #1DC690; stroke: #fff; opacity: 1;" id="p-type-logs"></path><path d="M174.74376714378587,90.95941866787813A197,197,0,0,1,173.7872317759935,92.77390835594413L150.50415757138458,80.34456144461701A170.6070045455344,170.6070045455344,0,0,0,151.33254149951108,78.77316727984696Z" fill-rule="evenodd" style="fill: #1DC690; stroke: #fff; opacity: 1;" id="p-type-logs"></path><path d="M173.7872317759935,92.77390835594413A197,197,0,0,1,172.8118559147669,94.57834030735492L149.65945729732425,81.90724535393909A170.6070045455344,170.6070045455344,0,0,0,150.50415757138458,80.34456144461701Z" fill-rule="evenodd" style="fill: #1DC690; stroke: #fff; opacity: 1;" id="p-type-logs"></path><path d="M172.8118559147669,94.57834030735492A197,197,0,0,1,171.81774530183603,96.37251890136216L148.7985322523544,83.46104959527561A170.6070045455344,170.6070045455344,0,0,0,149.65945729732425,81.90724535393909Z" fill-rule="evenodd" style="fill: #1DC690; stroke: #fff; opacity: 1;" id="p-type-logs"></path><path d="M171.81774530183603,96.37251890136216A197,197,0,0,1,170.8050077099887,98.15624962879693L147.92147577044713,85.00580571874501A170.6070045455344,170.6070045455344,0,0,0,148.7985322523544,83.46104959527561Z" fill-rule="evenodd" style="fill: #1DC690; stroke: #fff; opacity: 1;" id="p-type-logs"></path><path d="M170.8050077099887,98.15624962879693A197,197,0,0,1,169.77375293138726,99.92933911315673L147.02838293440416,86.54134625538364A170.6070045455344,170.6070045455344,0,0,0,147.92147577044713,85.00580571874501Z" fill-rule="evenodd" style="fill: #1DC690; stroke: #fff; opacity: 1;" id="p-type-logs"></path><path d="M169.77375293138726,99.92933911315673A197,197,0,0,1,168.72409276566555,101.69159513156967L146.1193505655486,88.06750473530128A170.6070045455344,170.6070045455344,0,0,0,147.02838293440416,86.54134625538364Z" fill-rule="evenodd" style="fill: #1DC690; stroke: #fff; opacity: 1;" id="p-type-logs"></path><path d="M168.72409276566555,101.69159513156967A197,197,0,0,1,167.6561410078087,103.44282663563364L145.19447721322834,89.58411570572831A170.6070045455344,170.6070045455344,0,0,0,146.1193505655486,88.06750473530128Z" fill-rule="evenodd" style="fill: #1DC690; stroke: #fff; opacity: 1;" id="p-type-logs"></path><path d="M167.6561410078087,103.44282663563364A197,197,0,0,1,166.57001343581658,105.18284377212801L144.25386314413242,91.09101474895269A170.6070045455344,170.6070045455344,0,0,0,145.19447721322834,89.58411570572831Z" fill-rule="evenodd" style="fill: #1DC690; stroke: #fff; opacity: 1;" id="p-type-logs"></path><path d="M166.57001343581658,105.18284377212801A197,197,0,0,1,165.46582779815182,106.91145790359593L143.29761033142083,92.58803850014468A170.6070045455344,170.6070045455344,0,0,0,144.25386314413242,91.09101474895269Z" fill-rule="evenodd" style="fill: #1DC690; stroke: #fff; opacity: 1;" id="p-type-logs"></path><path d="M165.46582779815182,106.91145790359593A197,197,0,0,1,164.34370380097502,108.62848162879472L142.32582244366958,94.07502466506742A170.6070045455344,170.6070045455344,0,0,0,143.29761033142083,92.58803850014468Z" fill-rule="evenodd" style="fill: #1DC690; stroke: #fff; opacity: 1;" id="p-type-logs"></path><path d="M164.34370380097502,108.62848162879472A197,197,0,0,1,163.2037630951668,110.33372880301232L141.33860483363168,95.55181203767148A170.6070045455344,170.6070045455344,0,0,0,142.32582244366958,94.07502466506742Z" fill-rule="evenodd" style="fill: #1DC690; stroke: #fff; opacity: 1;" id="p-type-logs"></path><path d="M163.2037630951668,110.33372880301232A197,197,0,0,1,162.04612926313982,112.02701455824744L140.336064526816,97.01824051757143A170.6070045455344,170.6070045455344,0,0,0,141.33860483363168,95.55181203767148Z" fill-rule="evenodd" style="fill: #1DC690; stroke: #fff; opacity: 1;" id="p-type-logs"></path><path d="M162.04612926313982,112.02701455824744A197,197,0,0,1,160.87092780544083,113.7081553232513L139.31831020988417,98.47415112740238A170.6070045455344,170.6070045455344,0,0,0,140.336064526816,97.01824051757143Z" fill-rule="evenodd" style="fill: #1DC690; stroke: #fff; opacity: 1;" id="p-type-logs"></path><path d="M160.87092780544083,113.7081553232513A197,197,0,0,1,159.67828612714513,115.37696884342894L138.285452218868,99.91938603005514A170.6070045455344,170.6070045455344,0,0,0,139.31831020988417,98.47415112740238Z" fill-rule="evenodd" style="fill: #1DC690; stroke: #fff; opacity: 1;" id="p-type-logs"></path><path d="M159.67828612714513,115.37696884342894A197,197,0,0,1,158.46833352404434,117.0332742005975L137.2376025272076,101.35378854578738A170.6070045455344,170.6070045455344,0,0,0,138.285452218868,99.91938603005514Z" fill-rule="evenodd" style="fill: #1DC690; stroke: #fff; opacity: 1;" id="p-type-logs"></path><path d="M158.46833352404434,117.0332742005975A197,197,0,0,1,157.24120116862937,118.67689183259995L136.1748747336124,102.77720316920951A170.6070045455344,170.6070045455344,0,0,0,137.2376025272076,101.35378854578738Z" fill-rule="evenodd" style="fill: #1DC690; stroke: #fff; opacity: 1;" id="p-type-logs"></path><path d="M48.257038248780376,190.99805826095655A197,197,0,0,1,46.26576367274299,191.49015408573334L40.067326666082664,165.8353380128416A170.6070045455344,170.6070045455344,0,0,0,41.79182103484113,165.4091705274886Z" fill-rule="evenodd" style="fill: #D7A449; stroke: #fff; opacity: 1;" id="p-type-tokenTransfers"></path><path d="M46.26576367274299,191.49015408573334A197,197,0,0,1,44.26947336679383,191.96149022089492L38.338488547802086,166.24352707961307A170.6070045455344,170.6070045455344,0,0,0,40.067326666082664,165.8353380128416Z" fill-rule="evenodd" style="fill: #D7A449; stroke: #fff; opacity: 1;" id="p-type-tokenTransfers"></path><path d="M44.26947336679383,191.96149022089492A197,197,0,0,1,42.26838375128794,192.41201556829515L36.60549410552474,166.6336934755105A170.6070045455344,170.6070045455344,0,0,0,38.338488547802086,166.24352707961307Z" fill-rule="evenodd" style="fill: #D7A449; stroke: #fff; opacity: 1;" id="p-type-tokenTransfers"></path><path d="M42.26838375128794,192.41201556829515A197,197,0,0,1,40.26271176687957,192.8416812859118L34.86853121536835,167.00579490210177A170.6070045455344,170.6070045455344,0,0,0,36.60549410552474,166.6336934755105Z" fill-rule="evenodd" style="fill: #D7A449; stroke: #fff; opacity: 1;" id="p-type-tokenTransfers"></path><path d="M40.26271176687957,192.8416812859118A197,197,0,0,1,38.25267485100337,193.2504407931413L33.12778818367503,167.35979101940094A170.6070045455344,170.6070045455344,0,0,0,34.86853121536835,167.00579490210177Z" fill-rule="evenodd" style="fill: #D7A449; stroke: #fff; opacity: 1;" id="p-type-tokenTransfers"></path><path d="M38.25267485100337,193.2504407931413A197,197,0,0,1,36.238490914301735,193.63824977584895L31.383453726596873,167.69564345024156A170.6070045455344,170.6070045455344,0,0,0,33.12778818367503,167.35979101940094Z" fill-rule="evenodd" style="fill: #D7A449; stroke: #fff; opacity: 1;" id="p-type-tokenTransfers"></path><path d="M36.238490914301735,193.63824977584895A197,197,0,0,1,34.22037831700083,194.0050661911728L29.635716949636894,168.01331578443717A170.6070045455344,170.6070045455344,0,0,0,31.383453726596873,167.69564345024156Z" fill-rule="evenodd" style="fill: #D7A449; stroke: #fff; opacity: 1;" id="p-type-tokenTransfers"></path><path d="M34.22037831700083,194.0050661911728A197,197,0,0,1,32.19855584523788,194.35085027208166L27.88476732714793,168.31277358272848A170.6070045455344,170.6070045455344,0,0,0,29.635716949636894,168.01331578443717Z" fill-rule="evenodd" style="fill: #D7A449; stroke: #fff; opacity: 1;" id="p-type-tokenTransfers"></path><path d="M32.19855584523788,194.35085027208166A197,197,0,0,1,30.173242687342277,194.67556453168626L26.130794681791457,168.59398438051713A170.6070045455344,170.6070045455344,0,0,0,27.88476732714793,168.31277358272848Z" fill-rule="evenodd" style="fill: #D7A449; stroke: #fff; opacity: 1;" id="p-type-tokenTransfers"></path><path d="M30.173242687342277,194.67556453168626A197,197,0,0,1,28.144658410073127,194.97917376730342L24.373989163958676,168.85691769138518A170.6070045455344,170.6070045455344,0,0,0,26.130794681791457,168.59398438051713Z" fill-rule="evenodd" style="fill: #D7A449; stroke: #fff; opacity: 1;" id="p-type-tokenTransfers"></path><path d="M28.144658410073127,194.97917376730342A197,197,0,0,1,26.113022934815707,195.26164506427213L22.61454123115608,169.10154501040003A170.6070045455344,170.6070045455344,0,0,0,24.373989163958676,168.85691769138518Z" fill-rule="evenodd" style="fill: #D7A449; stroke: #fff; opacity: 1;" id="p-type-tokenTransfers"></path><path d="M26.113022934815707,195.26164506427213A197,197,0,0,1,24.078556513739528,195.52294779952211L20.852641627357702,169.32783981720488A170.6070045455344,170.6070045455344,0,0,0,22.61454123115608,169.10154501040003Z" fill-rule="evenodd" style="fill: #D7A449; stroke: #fff; opacity: 1;" id="p-type-tokenTransfers"></path><path d="M24.078556513739528,195.52294779952211A197,197,0,0,1,22.041479705920523,195.7630536448936L19.08848136232633,169.53577757889371A170.6070045455344,170.6070045455344,0,0,0,20.852641627357702,169.32783981720488Z" fill-rule="evenodd" style="fill: #D7A449; stroke: #fff; opacity: 1;" id="p-type-tokenTransfers"></path><path d="M22.041479705920523,195.7630536448936A197,197,0,0,1,20.002013353429938,195.98193657020846L17.322251690905897,169.72533575267101A170.6070045455344,170.6070045455344,0,0,0,19.08848136232633,169.53577757889371Z" fill-rule="evenodd" style="fill: #D7A449; stroke: #fff; opacity: 1;" id="p-type-tokenTransfers"></path><path d="M20.002013353429938,195.98193657020846A197,197,0,0,1,17.960378557392584,196.17957284609207L15.554144092287286,169.89649378829557A170.6070045455344,170.6070045455344,0,0,0,17.322251690905897,169.72533575267101Z" fill-rule="evenodd" style="fill: #D7A449; stroke: #fff; opacity: 1;" id="p-type-tokenTransfers"></path><path d="M17.960378557392584,196.17957284609207A197,197,0,0,1,15.916796654016983,196.35594104654606L13.784350249249858,170.04923313030847A170.6070045455344,170.6070045455344,0,0,0,15.554144092287286,169.89649378829557Z" fill-rule="evenodd" style="fill: #D7A449; stroke: #fff; opacity: 1;" id="p-type-tokenTransfers"></path><path d="M15.916796654016983,196.35594104654606A197,197,0,0,1,13.871489190600009,196.51102205127088L12.01306202738085,170.1835372200446A170.6070045455344,170.6070045455344,0,0,0,13.784350249249858,170.04923313030847Z" fill-rule="evenodd" style="fill: #D7A449; stroke: #fff; opacity: 1;" id="p-type-tokenTransfers"></path><path d="M13.871489190600009,196.51102205127088A197,197,0,0,1,11.824677901508693,196.6447990477388L10.240471454274994,170.29939149742776A170.6070045455344,170.6070045455344,0,0,0,12.01306202738085,170.1835372200446Z" fill-rule="evenodd" style="fill: #D7A449; stroke: #fff; opacity: 1;" id="p-type-tokenTransfers"></path><path d="M11.824677901508693,196.6447990477388A197,197,0,0,1,9.776584684141705,196.75725753301657L8.466770698716578,170.39678340254946A170.6070045455344,170.6070045455344,0,0,0,10.240471454274994,170.29939149742776Z" fill-rule="evenodd" style="fill: #D7A449; stroke: #fff; opacity: 1;" id="p-type-tokenTransfers"></path><path d="M9.776584684141705,196.75725753301657A197,197,0,0,1,7.7274315748731786,196.8483853153377L6.692152049846165,170.47570237703007A170.6070045455344,170.6070045455344,0,0,0,8.466770698716578,170.39678340254946Z" fill-rule="evenodd" style="fill: #D7A449; stroke: #fff; opacity: 1;" id="p-type-tokenTransfers"></path><path d="M7.7274315748731786,196.8483853153377A197,197,0,0,1,5.677440724981469,196.9181725154241L4.9168078963142925,170.5361398651639A170.6070045455344,170.6070045455344,0,0,0,6.692152049846165,170.47570237703007Z" fill-rule="evenodd" style="fill: #D7A449; stroke: #fff; opacity: 1;" id="p-type-tokenTransfers"></path><path d="M5.677440724981469,196.9181725154241A197,197,0,0,1,3.6268343765654505,196.9666115675572L3.1409307054243767,170.5780893148464A170.6070045455344,170.6070045455344,0,0,0,4.9168078963142925,170.5361398651639Z" fill-rule="evenodd" style="fill: #D7A449; stroke: #fff; opacity: 1;" id="p-type-tokenTransfers"></path><path d="M3.6268343765654505,196.9666115675572A197,197,0,0,1,1.5758348384509708,196.99369722039822L1.3647130022670877,170.6015461782848A170.6070045455344,170.6070045455344,0,0,0,3.1409307054243767,170.5780893148464Z" fill-rule="evenodd" style="fill: #D7A449; stroke: #fff; opacity: 1;" id="p-type-tokenTransfers"></path><path d="M1.5758348384509708,196.99369722039822A197,197,0,0,1,-0.475335537909931,196.9994265375572L-0.4116526511515413,170.60650791249083A170.6070045455344,170.6070045455344,0,0,0,1.3647130022670877,170.6015461782848Z" fill-rule="evenodd" style="fill: #D7A449; stroke: #fff; opacity: 1;" id="p-type-tokenTransfers"></path><path d="M-0.475335537909931,196.9994265375572A197,197,0,0,1,-2.5264543825444252,196.98379889791173L-2.1879736767860005,170.59297397955663A170.6070045455344,170.6070045455344,0,0,0,-0.4116526511515413,170.60650791249083Z" fill-rule="evenodd" style="fill: #D7A449; stroke: #fff; opacity: 1;" id="p-type-tokenTransfers"></path><path d="M-2.5264543825444252,196.98379889791173A197,197,0,0,1,-4.577299331066302,196.94681599567386L-3.964057501428935,170.560945846713A170.6070045455344,170.6070045455344,0,0,0,-2.1879736767860005,170.59297397955663Z" fill-rule="evenodd" style="fill: #D7A449; stroke: #fff; opacity: 1;" id="p-type-tokenTransfers"></path><path d="M-4.577299331066302,196.94681599567386A197,197,0,0,1,-6.627648048782774,196.88848184020688L-5.739711577588248,170.51042698617027A170.6070045455344,170.6070045455344,0,0,0,-3.964057501428935,170.560945846713Z" fill-rule="evenodd" style="fill: #D7A449; stroke: #fff; opacity: 1;" id="p-type-tokenTransfers"></path><path d="M-6.627648048782774,196.88848184020688A197,197,0,0,1,-8.677278254798066,196.8088027555902L-7.514743404361424,170.44142287474193A170.6070045455344,170.6070045455344,0,0,0,-5.739711577588248,170.51042698617027Z" fill-rule="evenodd" style="fill: #D7A449; stroke: #fff; opacity: 1;" id="p-type-tokenTransfers"></path><path d="M-8.677278254798066,196.8088027555902A197,197,0,0,1,-10.72596774611116,196.70778737993416L-9.28896054830478,170.35394099325097A170.6070045455344,170.6070045455344,0,0,0,-7.514743404361424,170.44142287474193Z" fill-rule="evenodd" style="fill: #D7A449; stroke: #fff; opacity: 1;" id="p-type-tokenTransfers"></path><path d="M-10.72596774611116,196.70778737993416A197,197,0,0,1,-12.773494421705108,196.58544666444325L-11.06217066429544,170.2479908257187A170.6070045455344,170.6070045455344,0,0,0,-9.28896054830478,170.35394099325097Z" fill-rule="evenodd" style="fill: #D7A449; stroke: #fff; opacity: 1;" id="p-type-tokenTransfers"></path><path d="M-12.773494421705108,196.58544666444325A197,197,0,0,1,-14.81963630662529,196.4417938722291L-12.834181516383692,170.12358385833667A170.6070045455344,170.6070045455344,0,0,0,-11.06217066429544,170.2479908257187Z" fill-rule="evenodd" style="fill: #D7A449; stroke: #fff; opacity: 1;" id="p-type-tokenTransfers"></path><path d="M-14.81963630662529,196.4417938722291A197,197,0,0,1,-16.864171576043983,196.27684457687246L-14.604800998633543,169.98073357822147A170.6070045455344,170.6070045455344,0,0,0,-12.834181516383692,170.12358385833667Z" fill-rule="evenodd" style="fill: #D7A449; stroke: #fff; opacity: 1;" id="p-type-tokenTransfers"></path><path d="M-16.864171576043983,196.27684457687246A197,197,0,0,1,-18.906878579308692,196.09061666073487L-16.373837155949165,169.8194554719525A170.6070045455344,170.6070045455344,0,0,0,-14.604800998633543,169.98073357822147Z" fill-rule="evenodd" style="fill: #D7A449; stroke: #fff; opacity: 1;" id="p-type-tokenTransfers"></path><path d="M-18.906878579308692,196.09061666073487A197,197,0,0,1,-20.94753586397156,195.88313031302013L-18.141098204884976,169.63976702389306A170.6070045455344,170.6070045455344,0,0,0,-16.373837155949165,169.8194554719525Z" fill-rule="evenodd" style="fill: #D7A449; stroke: #fff; opacity: 1;" id="p-type-tokenTransfers"></path><path d="M-20.94753586397156,195.88313031302013A197,197,0,0,1,-22.98592219979731,195.65440802758536L-19.906392554437158,169.44168771429494A170.6070045455344,170.6070045455344,0,0,0,-18.141098204884976,169.63976702389306Z" fill-rule="evenodd" style="fill: #D7A449; stroke: #fff; opacity: 1;" id="p-type-tokenTransfers"></path><path d="M-22.98592219979731,195.65440802758536A197,197,0,0,1,-25.02181660274711,195.40447460050265L-21.669528826814233,169.2252390171864A170.6070045455344,170.6070045455344,0,0,0,-19.906392554437158,169.44168771429494Z" fill-rule="evenodd" style="fill: #D7A449; stroke: #fff; opacity: 1;" id="p-type-tokenTransfers"></path><path d="M-25.02181660274711,195.40447460050265A197,197,0,0,1,-27.05499835893571,195.1333571273707L-23.430315878184622,168.99044439804425A170.6070045455344,170.6070045455344,0,0,0,-21.669528826814233,169.2252390171864Z" fill-rule="evenodd" style="fill: #D7A449; stroke: #fff; opacity: 1;" id="p-type-tokenTransfers"></path><path d="M-27.05499835893571,195.1333571273707A197,197,0,0,1,-29.085247048559328,194.84108500037735L-25.188562819398744,168.73732931124994A170.6070045455344,170.6070045455344,0,0,0,-23.430315878184622,168.99044439804425Z" fill-rule="evenodd" style="fill: #D7A449; stroke: #fff; opacity: 1;" id="p-type-tokenTransfers"></path><path d="M-29.085247048559328,194.84108500037735A197,197,0,0,1,-31.112342569791643,194.52768990511333L-26.944079036683586,168.46592119732983A170.6070045455344,170.6070045455344,0,0,0,-25.188562819398744,168.73732931124994Z" fill-rule="evenodd" style="fill: #D7A449; stroke: #fff; opacity: 1;" id="p-type-tokenTransfers"></path><path d="M-31.112342569791643,194.52768990511333A197,197,0,0,1,-33.13606516264528,194.193205817137L-28.69667421230735,168.17624947998067A170.6070045455344,170.6070045455344,0,0,0,-26.944079036683586,168.46592119732983Z" fill-rule="evenodd" style="fill: #D7A449; stroke: #fff; opacity: 1;" id="p-type-tokenTransfers"></path><path d="M-33.13606516264528,194.193205817137A197,197,0,0,1,-35.15619543279632,193.837668998291L-30.446158345212076,167.86834556287934A170.6070045455344,170.6070045455344,0,0,0,-28.69667421230735,168.17624947998067Z" fill-rule="evenodd" style="fill: #D7A449; stroke: #fff; opacity: 1;" id="p-type-tokenTransfers"></path><path d="M-35.15619543279632,193.837668998291A197,197,0,0,1,-37.17251437536908,193.4611179927713L-32.19234177161186,167.54224282627868A170.6070045455344,170.6070045455344,0,0,0,-30.446158345212076,167.86834556287934Z" fill-rule="evenodd" style="fill: #D7A449; stroke: #fff; opacity: 1;" id="p-type-tokenTransfers"></path><path d="M-37.17251437536908,193.4611179927713A197,197,0,0,1,-39.18480339867871,193.06359362294822L-33.935035185554575,167.1979766233885A170.6070045455344,170.6070045455344,0,0,0,-32.19234177161186,167.54224282627868Z" fill-rule="evenodd" style="fill: #D7A449; stroke: #fff; opacity: 1;" id="p-type-tokenTransfers"></path><path d="M-39.18480339867871,193.06359362294822A197,197,0,0,1,-41.192844347929,192.64513898494116L-35.67404965944474,166.83558427654296A170.6070045455344,170.6070045455344,0,0,0,-33.935035185554575,167.1979766233885Z" fill-rule="evenodd" style="fill: #D7A449; stroke: #fff; opacity: 1;" id="p-type-tokenTransfers"></path><path d="M-41.192844347929,192.64513898494116A197,197,0,0,1,-43.19641952886281,192.20579944394623L-37.40919666452543,166.45510507315436A170.6070045455344,170.6070045455344,0,0,0,-35.67404965944474,166.83558427654296Z" fill-rule="evenodd" style="fill: #D7A449; stroke: #fff; opacity: 1;" id="p-type-tokenTransfers"></path><path d="M-43.19641952886281,192.20579944394623A197,197,0,0,1,-45.19531173136263,191.74562262931835L-39.1402880913169,166.056580261454A170.6070045455344,170.6070045455344,0,0,0,-37.40919666452543,166.45510507315436Z" fill-rule="evenodd" style="fill: #D7A449; stroke: #fff; opacity: 1;" id="p-type-tokenTransfers"></path><path d="M-45.19531173136263,191.74562262931835A197,197,0,0,1,-47.189304252998504,191.26465842940752L-40.86713627000976,165.6400530460204A170.6070045455344,170.6070045455344,0,0,0,-39.1402880913169,166.056580261454Z" fill-rule="evenodd" style="fill: #D7A449; stroke: #fff; opacity: 1;" id="p-type-tokenTransfers"></path><path d="M-47.189304252998504,191.26465842940752A197,197,0,0,1,-49.178180922521115,190.7629589861506L-42.58955399081052,165.20556858309538A170.6070045455344,170.6070045455344,0,0,0,-40.86713627000976,165.6400530460204Z" fill-rule="evenodd" style="fill: #D7A449; stroke: #fff; opacity: 1;" id="p-type-tokenTransfers"></path><path d="M-49.178180922521115,190.7629589861506A197,197,0,0,1,-51.16172612329709,190.24057868941824L-44.307354524237226,164.7531739756887A170.6070045455344,170.6070045455344,0,0,0,-42.58955399081052,165.20556858309538Z" fill-rule="evenodd" style="fill: #D7A449; stroke: #fff; opacity: 1;" id="p-type-tokenTransfers"></path><path d="M-51.16172612329709,190.24057868941824A197,197,0,0,1,-53.139724816684385,189.69757417111865L-46.02035164136305,164.28291826847152A170.6070045455344,170.6070045455344,0,0,0,-44.307354524237226,164.7531739756887Z" fill-rule="evenodd" style="fill: #D7A449; stroke: #fff; opacity: 1;" id="p-type-tokenTransfers"></path><path d="M-142.09031928120825,136.45270670296102A197,197,0,0,1,-166.72247976049377,104.94100601057598L-144.38590285452452,90.88157710385427A170.6070045455344,170.6070045455344,0,0,0,-123.05382612936818,118.1715104199114Z" fill-rule="evenodd" style="fill: #414552; stroke: #fff; opacity: 1;" id="p-type-ether"></path><path d="M-166.72247976049377,104.94100601057598A197,197,0,0,1,-172.47870670283555,95.18453516258423L-149.37094161654093,82.4322254982111A170.6070045455344,170.6070045455344,0,0,0,-144.38590285452452,90.88157710385427Z" fill-rule="evenodd" style="fill: #414552; stroke: #fff; opacity: 1;" id="p-type-ether"></path><path d="M-172.47870670283555,95.18453516258423A197,197,0,0,1,-174.73171618407738,90.98256623863188L-151.32210506226355,78.7932136641556A170.6070045455344,170.6070045455344,0,0,0,-149.37094161654093,82.4322254982111Z" fill-rule="evenodd" style="fill: #414552; stroke: #fff; opacity: 1;" id="p-type-ether"></path><path d="M-174.73171618407738,90.98256623863188A197,197,0,0,1,-175.3247651493026,89.83444064133691L-151.83570053183666,77.79890773016298A170.6070045455344,170.6070045455344,0,0,0,-151.32210506226355,78.7932136641556Z" fill-rule="evenodd" style="fill: #414552; stroke: #fff; opacity: 1;" id="p-type-ether"></path><path d="M-175.3247651493026,89.83444064133691A197,197,0,0,1,-175.85475739226203,88.79247886228126L-152.2946872780482,76.89654235972836A170.6070045455344,170.6070045455344,0,0,0,-151.83570053183666,77.79890773016298Z" fill-rule="evenodd" style="fill: #414552; stroke: #fff; opacity: 1;" id="p-type-ether"></path><path d="M-175.85475739226203,88.79247886228126A197,197,0,0,1,-176.3146311817347,87.87576930672566L-152.69294966226616,76.10264859672526A170.6070045455344,170.6070045455344,0,0,0,-152.2946872780482,76.89654235972836Z" fill-rule="evenodd" style="fill: #414552; stroke: #fff; opacity: 1;" id="p-type-ether"></path></g></svg>