<svg xmlns="http://www.w3.org/2000/svg" width="400" height="400" id="block-7908232"><g id="burst-container" transform="translate(200,200)"><circle r="197" style="fill: #f9f9f9; stroke: #f9f9f9; stroke-width: 3; opacity: 1;" id="circle-base"></circle><path display="none" d="M6.031385485800715e-15,-98.5A98.5,98.5,0,1,1,-6.031385485800715e-15,98.5A98.5,98.5,0,1,1,6.031385485800715e-15,-98.5Z" fill-rule="evenodd" id="p-type-root" style="stroke: #fff; opacity: 1;"></path><path d="M8.529667153919608e-15,-139.30003589374985A139.30003589374985,139.30003589374985,0,1,1,-123.70090040266378,-64.0514421349766L-87.46974551360529,-45.29120907841971A98.5,98.5,0,1,0,6.031385485800715e-15,-98.5Z" fill-rule="evenodd" style="fill: #0B1F65; stroke: #fff; opacity: 1;" id="p-type-data"></path><path d="M-123.70090040266378,-64.0514421349766A139.30003589374985,139.30003589374985,0,0,1,-2.2065332747692854,-139.28255888986004L-1.5602546415031213,-98.4876418920347A98.5,98.5,0,0,0,-87.46974551360529,-45.29120907841971Z" fill-rule="evenodd" style="fill: #D7A449; stroke: #fff; opacity: 1;" id="p-type-value"></path><path d="M1.0446666101440332e-14,-170.6070045455344A170.6070045455344,170.6070045455344,0,0,1,169.29345822738105,21.129955073638516L138.22752981608744,17.252536072782306A139.30003589374985,139.30003589374985,0,0,0,8.529667153919608e-15,-139.30003589374985Z" fill-rule="evenodd" style="fill: #1DC690; stroke: #fff; opacity: 1;" id="p-type-logs"></path><path d="M169.29345822738105,21.129955073638516A170.6070045455344,170.6070045455344,0,0,1,-12.629052934210275,170.13893446823073L-10.311578541137957,138.91785827599682A139.30003589374985,139.30003589374985,0,0,0,138.22752981608744,17.252536072782306Z" fill-rule="evenodd" style="fill: #D7A449; stroke: #fff; opacity: 1;" id="p-type-tokenTransfers"></path><path d="M-12.629052934210275,170.13893446823073A170.6070045455344,170.6070045455344,0,0,1,-124.84490924892594,116.27767900430177L-101.93544154798026,94.94032734522403A139.30003589374985,139.30003589374985,0,0,0,-10.311578541137957,138.91785827599682Z" fill-rule="evenodd" style="fill: #414552; stroke: #fff; opacity: 1;" id="p-type-ether"></path><path d="M-151.50204335468422,-78.44667526004773A170.6070045455344,170.6070045455344,0,0,1,-55.712663860212686,-161.25398936336103L-45.48919955623934,-131.66333097614017A139.30003589374985,139.30003589374985,0,0,0,-123.70090040266378,-64.0514421349766Z" fill-rule="evenodd" style="fill: #D7A449; stroke: #fff; opacity: 1;" id="p-type-tokenTransfers"></path><path d="M-55.712663860212686,-161.25398936336103A170.6070045455344,170.6070045455344,0,0,1,-5.404202510984299,-170.52139043304882L-4.412512872859711,-139.2301322636262A139.30003589374985,139.30003589374985,0,0,0,-45.48919955623934,-131.66333097614017Z" fill-rule="evenodd" style="fill: #414552; stroke: #fff; opacity: 1;" id="p-type-ether"></path><path d="M1.206277097160143e-14,-197A197,197,0,0,1,1.5603035823726,-196.99382084910894L1.351262539950537,-170.60165324388893A170.6070045455344,170.6070045455344,0,0,0,1.0446666101440332e-14,-170.6070045455344Z" fill-rule="evenodd" style="fill: #1DC690; stroke: #fff; opacity: 1;" id="p-type-logs"></path><path d="M1.5603035823726,-196.99382084910894A197,197,0,0,1,3.1205092830063927,-196.9752837840694L2.7024403118287004,-170.58559967465308A170.6070045455344,170.6070045455344,0,0,0,1.351262539950537,-170.60165324388893Z" fill-rule="evenodd" style="fill: #1DC690; stroke: #fff; opacity: 1;" id="p-type-logs"></path><path d="M3.1205092830063927,-196.9752837840694A197,197,0,0,1,4.680519226303005,-196.94438996775767L4.053448552879888,-170.55884484490727A170.6070045455344,170.6070045455344,0,0,0,2.7024403118287004,-170.58559967465308Z" fill-rule="evenodd" style="fill: #1DC690; stroke: #fff; opacity: 1;" id="p-type-logs"></path><path d="M4.680519226303005,-196.94438996775767A197,197,0,0,1,6.240235548944267,-196.90114133822001L5.404202510984467,-170.52139043304882A170.6070045455344,170.6070045455344,0,0,0,4.053448552879888,-170.55884484490727Z" fill-rule="evenodd" style="fill: #1DC690; stroke: #fff; opacity: 1;" id="p-type-logs"></path><path d="M6.240235548944267,-196.90114133822001A197,197,0,0,1,7.799560406031695,-196.84554060855092L6.7546174499747185,-170.47323878868642A170.6070045455344,170.6070045455344,0,0,0,5.404202510984467,-170.52139043304882Z" fill-rule="evenodd" style="fill: #1DC690; stroke: #fff; opacity: 1;" id="p-type-logs"></path><path d="M7.799560406031695,-196.84554060855092A197,197,0,0,1,9.358395977224376,-196.7775912667229L8.104608654950407,-170.41439293249294A170.6070045455344,170.6070045455344,0,0,0,6.7546174499747185,-170.47323878868642Z" fill-rule="evenodd" style="fill: #1DC690; stroke: #fff; opacity: 1;" id="p-type-logs"></path><path d="M9.358395977224376,-196.7775912667229A197,197,0,0,1,10.916644472875562,-196.6972975753679L9.45409143759322,-170.34485655601588A170.6070045455344,170.6070045455344,0,0,0,8.104608654950407,-170.41439293249294Z" fill-rule="evenodd" style="fill: #1DC690; stroke: #fff; opacity: 1;" id="p-type-logs"></path><path d="M10.916644472875562,-196.6972975753679A197,197,0,0,1,12.474208140167097,-196.60466457150955L10.802981141479341,-170.2646340214457A170.6070045455344,170.6070045455344,0,0,0,9.45409143759322,-170.34485655601588Z" fill-rule="evenodd" style="fill: #1DC690; stroke: #fff; opacity: 1;" id="p-type-logs"></path><path d="M12.474208140167097,-196.60466457150955A197,197,0,0,1,14.030989269241932,-196.49969806624748L12.15119314739037,-170.17373036134225A170.6070045455344,170.6070045455344,0,0,0,10.802981141479341,-170.2646340214457Z" fill-rule="evenodd" style="fill: #1DC690; stroke: #fff; opacity: 1;" id="p-type-logs"></path><path d="M14.030989269241932,-196.49969806624748A197,197,0,0,1,15.586890199333569,-196.38240464439252L13.498642878621563,-170.07215127831904A170.6070045455344,170.6070045455344,0,0,0,12.15119314739037,-170.17373036134225Z" fill-rule="evenodd" style="fill: #1DC690; stroke: #fff; opacity: 1;" id="p-type-logs"></path><path d="M15.586890199333569,-196.38240464439252A197,197,0,0,1,17.141813324892624,-196.25279166405386L14.845245806287606,-169.95990314468557A170.6070045455344,170.6070045455344,0,0,0,13.498642878621563,-170.07215127831904Z" fill-rule="evenodd" style="fill: #1DC690; stroke: #fff; opacity: 1;" id="p-type-logs"></path><path d="M17.141813324892624,-196.25279166405386A197,197,0,0,1,18.6956611017097,-196.11086725617736L16.190917454625165,-169.83699300204745A170.6070045455344,170.6070045455344,0,0,0,14.845245806287606,-169.95990314468557Z" fill-rule="evenodd" style="fill: #1DC690; stroke: #fff; opacity: 1;" id="p-type-logs"></path><path d="M18.6956611017097,-196.11086725617736A197,197,0,0,1,20.248336053034844,-195.9566403240354L17.535573406292507,-169.70342856086475A170.6070045455344,170.6070045455344,0,0,0,16.190917454625165,-169.83699300204745Z" fill-rule="evenodd" style="fill: #1DC690; stroke: #fff; opacity: 1;" id="p-type-logs"></path><path d="M20.248336053034844,-195.9566403240354A197,197,0,0,1,21.79974077569233,-195.79012054266838L18.879129307665043,-169.55921819996829A170.6070045455344,170.6070045455344,0,0,0,17.535573406292507,-169.70342856086475Z" fill-rule="evenodd" style="fill: #1DC690; stroke: #fff; opacity: 1;" id="p-type-logs"></path><path d="M21.79974077569233,-195.79012054266838A197,197,0,0,1,23.349777946191093,-195.61131835827794L20.221500874127123,-169.40437096603404A170.6070045455344,170.6070045455344,0,0,0,18.879129307665043,-169.55921819996829Z" fill-rule="evenodd" style="fill: #1DC690; stroke: #fff; opacity: 1;" id="p-type-logs"></path><path d="M23.349777946191093,-195.61131835827794A197,197,0,0,1,24.898350326829895,-195.42024498757146L21.562603895359267,-169.2388965730155A170.6070045455344,170.6070045455344,0,0,0,20.221500874127123,-169.40437096603404Z" fill-rule="evenodd" style="fill: #1DC690; stroke: #fff; opacity: 1;" id="p-type-logs"></path><path d="M24.898350326829895,-195.42024498757146A197,197,0,0,1,26.445360771797557,-195.21691241705847L22.902354240621133,-169.06280540153443A170.6070045455344,170.6070045455344,0,0,0,21.562603895359267,-169.2388965730155Z" fill-rule="evenodd" style="fill: #1DC690; stroke: #fff; opacity: 1;" id="p-type-logs"></path><path d="M26.445360771797557,-195.21691241705847A197,197,0,0,1,27.990712233266972,-195.00133340229866L24.240667864029056,-168.87610849822963A170.6070045455344,170.6070045455344,0,0,0,22.902354240621133,-169.06280540153443Z" fill-rule="evenodd" style="fill: #1DC690; stroke: #fff; opacity: 1;" id="p-type-logs"></path><path d="M27.990712233266972,-195.00133340229866A197,197,0,0,1,29.53430776748322,-194.77352146710186L25.577460809828537,-168.6788175750639A170.6070045455344,170.6070045455344,0,0,0,24.240667864029056,-168.87610849822963Z" fill-rule="evenodd" style="fill: #1DC690; stroke: #fff; opacity: 1;" id="p-type-logs"></path><path d="M29.53430776748322,-194.77352146710186A197,197,0,0,1,31.07605054084512,-194.53349090267938L26.912649217661016,-168.47094500858933A170.6070045455344,170.6070045455344,0,0,0,25.577460809828537,-168.6788175750639Z" fill-rule="evenodd" style="fill: #1DC690; stroke: #fff; opacity: 1;" id="p-type-logs"></path><path d="M31.07605054084512,-194.53349090267938A197,197,0,0,1,32.61584383597967,-194.2812567667478L28.246149327824483,-168.25250383917094A170.6070045455344,170.6070045455344,0,0,0,26.912649217661016,-168.47094500858933Z" fill-rule="evenodd" style="fill: #1DC690; stroke: #fff; opacity: 1;" id="p-type-logs"></path><path d="M32.61584383597967,-194.2812567667478A197,197,0,0,1,34.153591057809635,-194.0168348825841L29.577877486528184,-168.02350777016866A170.6070045455344,170.6070045455344,0,0,0,28.246149327824483,-168.25250383917094Z" fill-rule="evenodd" style="fill: #1DC690; stroke: #fff; opacity: 1;" id="p-type-logs"></path><path d="M34.153591057809635,-194.0168348825841A197,197,0,0,1,35.68919573961308,-193.74024183803317L30.907750151140288,-167.78397116707748A170.6070045455344,170.6070045455344,0,0,0,29.577877486528184,-168.02350777016866Z" fill-rule="evenodd" style="fill: #1DC690; stroke: #fff; opacity: 1;" id="p-type-logs"></path><path d="M35.68919573961308,-193.74024183803317A197,197,0,0,1,37.22256154907481,-193.45149498446722L32.23568389542863,-167.53390905662653A170.6070045455344,170.6070045455344,0,0,0,30.907750151140288,-167.78397116707748Z" fill-rule="evenodd" style="fill: #1DC690; stroke: #fff; opacity: 1;" id="p-type-logs"></path><path d="M37.22256154907481,-193.45149498446722A197,197,0,0,1,38.753592294329806,-193.15061243569707L33.561595414794475,-167.27333712583618A170.6070045455344,170.6070045455344,0,0,0,32.23568389542863,-167.53390905662653Z" fill-rule="evenodd" style="fill: #1DC690; stroke: #fff; opacity: 1;" id="p-type-logs"></path><path d="M38.753592294329806,-193.15061243569707A197,197,0,0,1,40.28219192999742,-192.83761306683624L34.88540153149827,-167.0022717210342A170.6070045455344,170.6070045455344,0,0,0,33.561595414794475,-167.27333712583618Z" fill-rule="evenodd" style="fill: #1DC690; stroke: #fff; opacity: 1;" id="p-type-logs"></path><path d="M40.28219192999742,-192.83761306683624A197,197,0,0,1,41.808264563206585,-192.51251651311642L36.20701919987762,-166.72072984683004A170.6070045455344,170.6070045455344,0,0,0,34.88540153149827,-167.0022717210342Z" fill-rule="evenodd" style="fill: #1DC690; stroke: #fff; opacity: 1;" id="p-type-logs"></path><path d="M41.808264563206585,-192.51251651311642A197,197,0,0,1,43.33171445961145,-192.17534316865598L37.526365511557,-166.42872916504837A170.6070045455344,170.6070045455344,0,0,0,36.20701919987762,-166.72072984683004Z" fill-rule="evenodd" style="fill: #1DC690; stroke: #fff; opacity: 1;" id="p-type-logs"></path><path d="M43.33171445961145,-192.17534316865598A197,197,0,0,1,44.85244604939684,-191.82611418518061L38.843357700648646,-166.12628799362085A170.6070045455344,170.6070045455344,0,0,0,37.526365511557,-166.42872916504837Z" fill-rule="evenodd" style="fill: #1DC690; stroke: #fff; opacity: 1;" id="p-type-logs"></path><path d="M44.85244604939684,-191.82611418518061A197,197,0,0,1,46.370363933273886,-191.46485147069615L40.157913148944886,-165.8134253054372A170.6070045455344,170.6070045455344,0,0,0,38.843357700648646,-166.12628799362085Z" fill-rule="evenodd" style="fill: #1DC690; stroke: #fff; opacity: 1;" id="p-type-logs"></path><path d="M46.370363933273886,-191.46485147069615A197,197,0,0,1,47.885372888464524,-191.0915776881145L41.4699493911009,-165.4901607271548A170.6070045455344,170.6070045455344,0,0,0,40.157913148944886,-165.8134253054372Z" fill-rule="evenodd" style="fill: #1DC690; stroke: #fff; opacity: 1;" id="p-type-logs"></path><path d="M47.885372888464524,-191.0915776881145A197,197,0,0,1,49.39737787467489,-190.70631625383197L42.779384119807816,-165.1565145379677A170.6070045455344,170.6070045455344,0,0,0,41.4699493911009,-165.4901607271548Z" fill-rule="evenodd" style="fill: #1DC690; stroke: #fff; opacity: 1;" id="p-type-logs"></path><path d="M49.39737787467489,-190.70631625383197A197,197,0,0,1,50.906284040057756,-190.30909133626002L44.08613519095634,-164.8125076683342A170.6070045455344,170.6070045455344,0,0,0,42.779384119807816,-165.1565145379677Z" fill-rule="evenodd" style="fill: #1DC690; stroke: #fff; opacity: 1;" id="p-type-logs"></path><path d="M50.906284040057756,-190.30909133626002A197,197,0,0,1,52.411996727162595,-189.89992785430934L45.39012062878966,-164.45816169866401A170.6070045455344,170.6070045455344,0,0,0,44.08613519095634,-164.8125076683342Z" fill-rule="evenodd" style="fill: #1DC690; stroke: #fff; opacity: 1;" id="p-type-logs"></path><path d="M52.411996727162595,-189.89992785430934A197,197,0,0,1,53.91442147887374,-189.4788514758266L46.69125863104605,-164.0934988579644A170.6070045455344,170.6070045455344,0,0,0,45.39012062878966,-164.45816169866401Z" fill-rule="evenodd" style="fill: #1DC690; stroke: #fff; opacity: 1;" id="p-type-logs"></path><path d="M53.91442147887374,-189.4788514758266A197,197,0,0,1,55.413464044335996,-189.04588861598415L47.989467574090554,-163.7185420224457A170.6070045455344,170.6070045455344,0,0,0,46.69125863104605,-164.0934988579644Z" fill-rule="evenodd" style="fill: #1DC690; stroke: #fff; opacity: 1;" id="p-type-logs"></path><path d="M55.413464044335996,-189.04588861598415A197,197,0,0,1,56.90903038486697,-188.601066435623L49.28466601803531,-163.33331471408616A170.6070045455344,170.6070045455344,0,0,0,47.989467574090554,-163.7185420224457Z" fill-rule="evenodd" style="fill: #1DC690; stroke: #fff; opacity: 1;" id="p-type-logs"></path><path d="M56.90903038486697,-188.601066435623A197,197,0,0,1,58.401026679856734,-188.14441283954903L50.576772711848704,-162.93784109915657A170.6070045455344,170.6070045455344,0,0,0,49.28466601803531,-163.33331471408616Z" fill-rule="evenodd" style="fill: #1DC690; stroke: #fff; opacity: 1;" id="p-type-logs"></path><path d="M58.401026679856734,-188.14441283954903A197,197,0,0,1,59.889359332653164,-187.6759564747822L51.86570659845229,-162.532145986704A170.6070045455344,170.6070045455344,0,0,0,50.576772711848704,-162.93784109915657Z" fill-rule="evenodd" style="fill: #1DC690; stroke: #fff; opacity: 1;" id="p-type-logs"></path><path d="M59.889359332653164,-187.6759564747822A197,197,0,0,1,61.37393497643347,-187.1957267287598L53.15138681980567,-162.11625482699563A170.6070045455344,170.6070045455344,0,0,0,51.86570659845229,-162.532145986704Z" fill-rule="evenodd" style="fill: #1DC690; stroke: #fff; opacity: 1;" id="p-type-logs"></path><path d="M61.37393497643347,-187.1957267287598A197,197,0,0,1,62.85466048006153,-186.70375372749257L54.433732721979084,-161.69019370992214A170.6070045455344,170.6070045455344,0,0,0,53.15138681980567,-162.11625482699563Z" fill-rule="evenodd" style="fill: #1DC690; stroke: #fff; opacity: 1;" id="p-type-logs"></path><path d="M62.85466048006153,-186.70375372749257A197,197,0,0,1,64.3314429539301,-186.200068333675L55.712663860212885,-161.25398936336094A170.6070045455344,170.6070045455344,0,0,0,54.433732721979084,-161.69019370992214Z" fill-rule="evenodd" style="fill: #1DC690; stroke: #fff; opacity: 1;" id="p-type-logs"></path><path d="M64.3314429539301,-186.200068333675A197,197,0,0,1,65.80418975578797,-185.68470214474925L56.98810000396409,-160.80766915149968A170.6070045455344,170.6070045455344,0,0,0,55.712663860212885,-161.25398936336094Z" fill-rule="evenodd" style="fill: #1DC690; stroke: #fff; opacity: 1;" id="p-type-logs"></path><path d="M65.80418975578797,-185.68470214474925A197,197,0,0,1,67.27280849655185,-185.15768749092288L58.25996114193952,-160.3512610731194A170.6070045455344,170.6070045455344,0,0,0,56.98810000396409,-160.80766915149968Z" fill-rule="evenodd" style="fill: #1DC690; stroke: #fff; opacity: 1;" id="p-type-logs"></path><path d="M67.27280849655185,-185.15768749092288A197,197,0,0,1,68.73720704610183,-184.61905743314077L59.5281674871149,-159.8847937598382A170.6070045455344,170.6070045455344,0,0,0,58.25996114193952,-160.3512610731194Z" fill-rule="evenodd" style="fill: #1DC690; stroke: #fff; opacity: 1;" id="p-type-logs"></path><path d="M68.73720704610183,-184.61905743314077A197,197,0,0,1,70.19729353906129,-184.06884576101103L60.792639481740316,-159.40829647431514A170.6070045455344,170.6070045455344,0,0,0,59.5281674871149,-159.8847937598382Z" fill-rule="evenodd" style="fill: #1DC690; stroke: #fff; opacity: 1;" id="p-type-logs"></path><path d="M70.19729353906129,-184.06884576101103A197,197,0,0,1,71.65297638055966,-183.50708699068534L62.05329780233103,-158.92179910841438A170.6070045455344,170.6070045455344,0,0,0,60.792639481740316,-159.40829647431514Z" fill-rule="evenodd" style="fill: #1DC690; stroke: #fff; opacity: 1;" id="p-type-logs"></path><path d="M71.65297638055966,-183.50708699068534A197,197,0,0,1,73.10416425197833,-182.9338163626938L63.310063364643455,-158.42533218133025A170.6070045455344,170.6070045455344,0,0,0,62.05329780233103,-158.92179910841438Z" fill-rule="evenodd" style="fill: #1DC690; stroke: #fff; opacity: 1;" id="p-type-logs"></path><path d="M73.10416425197833,-182.9338163626938A197,197,0,0,1,74.55076611667945,-182.34906983973391L64.56285732863658,-157.91892683767236A170.6070045455344,170.6070045455344,0,0,0,63.310063364643455,-158.42533218133025Z" fill-rule="evenodd" style="fill: #1DC690; stroke: #fff; opacity: 1;" id="p-type-logs"></path><path d="M74.55076611667945,-182.34906983973391A197,197,0,0,1,75.99269122571687,-181.75288410441485L65.81160110341762,-157.40261484551215A170.6070045455344,170.6070045455344,0,0,0,64.56285732863658,-157.91892683767236Z" fill-rule="evenodd" style="fill: #1DC690; stroke: #fff; opacity: 1;" id="p-type-logs"></path><path d="M75.99269122571687,-181.75288410441485A197,197,0,0,1,77.42984912352888,-181.14529655695605L67.05621635217226,-156.87642859438975A170.6070045455344,170.6070045455344,0,0,0,65.81160110341762,-157.40261484551215Z" fill-rule="evenodd" style="fill: #1DC690; stroke: #fff; opacity: 1;" id="p-type-logs"></path><path d="M77.42984912352888,-181.14529655695605A197,197,0,0,1,78.86214965361297,-180.5263453128411L68.29662499707901,-156.34040109328222A170.6070045455344,170.6070045455344,0,0,0,67.05621635217226,-156.87642859438975Z" fill-rule="evenodd" style="fill: #1DC690; stroke: #fff; opacity: 1;" id="p-type-logs"></path><path d="M78.86214965361297,-180.5263453128411A197,197,0,0,1,80.28950296418128,-179.89606920042672L69.53274922420698,-155.79456596853288A170.6070045455344,170.6070045455344,0,0,0,68.29662499707901,-156.34040109328222Z" fill-rule="evenodd" style="fill: #1DC690; stroke: #fff; opacity: 1;" id="p-type-logs"></path><path d="M80.28950296418128,-179.89606920042672A197,197,0,0,1,81.71181951379748,-179.25450775850683L70.76451148839763,-155.23895746174168A170.6070045455344,170.6070045455344,0,0,0,69.53274922420698,-155.79456596853288Z" fill-rule="evenodd" style="fill: #1DC690; stroke: #fff; opacity: 1;" id="p-type-logs"></path><path d="M81.71181951379748,-179.25450775850683A197,197,0,0,1,83.12901007699384,-178.60170123383222L71.99183451812925,-154.6736104276172A170.6070045455344,170.6070045455344,0,0,0,70.76451148839763,-155.23895746174168Z" fill-rule="evenodd" style="fill: #1DC690; stroke: #fff; opacity: 1;" id="p-type-logs"></path><path d="M83.12901007699384,-178.60170123383222A197,197,0,0,1,84.54098574986845,-177.9376905785858L73.21464132036431,-154.09856033179028A170.6070045455344,170.6070045455344,0,0,0,71.99183451812925,-154.6736104276172Z" fill-rule="evenodd" style="fill: #1DC690; stroke: #fff; opacity: 1;" id="p-type-logs"></path><path d="M84.54098574986845,-177.9376905785858A197,197,0,0,1,85.9476579556626,-177.26251744781362L74.43285518537952,-153.5138432485889A170.6070045455344,170.6070045455344,0,0,0,73.21464132036431,-154.09856033179028Z" fill-rule="evenodd" style="fill: #1DC690; stroke: #fff; opacity: 1;" id="p-type-logs"></path><path d="M85.9476579556626,-177.26251744781362A197,197,0,0,1,87.34893845031725,-176.57622419681164L75.64639969157808,-152.91949585877538A170.6070045455344,170.6070045455344,0,0,0,74.43285518537952,-153.5138432485889Z" fill-rule="evenodd" style="fill: #1DC690; stroke: #fff; opacity: 1;" id="p-type-logs"></path><path d="M87.34893845031725,-176.57622419681164A197,197,0,0,1,88.7447393280089,-175.87885387846873L76.85519871028366,-152.31555544724515A170.6070045455344,170.6070045455344,0,0,0,75.64639969157808,-152.91949585877538Z" fill-rule="evenodd" style="fill: #1DC690; stroke: #fff; opacity: 1;" id="p-type-logs"></path><path d="M88.7447393280089,-175.87885387846873A197,197,0,0,1,90.13497302666408,-175.1704502405658L78.05917641051624,-151.7020599006879A170.6070045455344,170.6070045455344,0,0,0,76.85519871028366,-152.31555544724515Z" fill-rule="evenodd" style="fill: #1DC690; stroke: #fff; opacity: 1;" id="p-type-logs"></path><path d="M90.13497302666408,-175.1704502405658A197,197,0,0,1,91.51955233345232,-174.45105772303154L79.25825726374912,-151.0790477052108A170.6070045455344,170.6070045455344,0,0,0,78.05917641051624,-151.7020599006879Z" fill-rule="evenodd" style="fill: #1DC690; stroke: #fff; opacity: 1;" id="p-type-logs"></path><path d="M91.51955233345232,-174.45105772303154A197,197,0,0,1,92.89839039025732,-173.7207214551544L80.45236604864701,-150.4465579439241A170.6070045455344,170.6070045455344,0,0,0,79.25825726374912,-151.0790477052108Z" fill-rule="evenodd" style="fill: #1DC690; stroke: #fff; opacity: 1;" id="p-type-logs"></path><path d="M92.89839039025732,-173.7207214551544A197,197,0,0,1,94.27140069912573,-172.97948725275165L81.64142785578498,-149.8046302944894A170.6070045455344,170.6070045455344,0,0,0,80.45236604864701,-150.4465579439241Z" fill-rule="evenodd" style="fill: #1DC690; stroke: #fff; opacity: 1;" id="p-type-logs"></path><path d="M94.27140069912573,-172.97948725275165A197,197,0,0,1,95.63849712769331,-172.22740161529524L82.82536809234747,-149.15330502663073A170.6070045455344,170.6070045455344,0,0,0,81.64142785578498,-149.8046302944894Z" fill-rule="evenodd" style="fill: #1DC690; stroke: #fff; opacity: 1;" id="p-type-logs"></path><path d="M95.63849712769331,-172.22740161529524A197,197,0,0,1,96.99959391458836,-171.4645117229946L84.00411248680795,-148.49262299960802A170.6070045455344,170.6070045455344,0,0,0,82.82536809234747,-149.15330502663073Z" fill-rule="evenodd" style="fill: #1DC690; stroke: #fff; opacity: 1;" id="p-type-logs"></path><path d="M96.99959391458836,-171.4645117229946A197,197,0,0,1,98.35460567481165,-170.69086543383716L85.17758709358799,-147.8226256596541A170.6070045455344,170.6070045455344,0,0,0,84.00411248680795,-148.49262299960802Z" fill-rule="evenodd" style="fill: #1DC690; stroke: #fff; opacity: 1;" id="p-type-logs"></path><path d="M98.35460567481165,-170.69086543383716A197,197,0,0,1,99.70344740509287,-169.90651128058596L86.3457182976961,-147.14335503737473A170.6070045455344,170.6070045455344,0,0,0,85.17758709358799,-147.8226256596541Z" fill-rule="evenodd" style="fill: #1DC690; stroke: #fff; opacity: 1;" id="p-type-logs"></path><path d="M99.70344740509287,-169.90651128058596A197,197,0,0,1,101.04603448922309,-169.111498467735L87.50843281934573,-146.45485374511168A170.6070045455344,170.6070045455344,0,0,0,86.3457182976961,-147.14335503737473Z" fill-rule="evenodd" style="fill: #1DC690; stroke: #fff; opacity: 1;" id="p-type-logs"></path><path d="M101.04603448922309,-169.111498467735A197,197,0,0,1,102.38228270336295,-168.3058768684227L88.66565771855244,-145.75716497426978A170.6070045455344,170.6070045455344,0,0,0,87.50843281934573,-146.45485374511168Z" fill-rule="evenodd" style="fill: #1DC690; stroke: #fff; opacity: 1;" id="p-type-logs"></path><path d="M102.38228270336295,-168.3058768684227A197,197,0,0,1,103.71210822132623,-167.48969702130313L89.81732039970944,-145.05033249260734A170.6070045455344,170.6070045455344,0,0,0,88.66565771855244,-145.75716497426978Z" fill-rule="evenodd" style="fill: #1DC690; stroke: #fff; opacity: 1;" id="p-type-logs"></path><path d="M103.71210822132623,-167.48969702130313A197,197,0,0,1,105.03542761983846,-166.66301012737551L90.96334861614177,-144.33440064149036A170.6070045455344,170.6070045455344,0,0,0,89.81732039970944,-145.05033249260734Z" fill-rule="evenodd" style="fill: #1DC690; stroke: #fff; opacity: 1;" id="p-type-logs"></path><path d="M105.03542761983846,-166.66301012737551A197,197,0,0,1,106.3521578837703,-165.82586804677246L92.10367047463855,-143.60941433311115A170.6070045455344,170.6070045455344,0,0,0,90.96334861614177,-144.33440064149036Z" fill-rule="evenodd" style="fill: #1DC690; stroke: #fff; opacity: 1;" id="p-type-logs"></path><path d="M106.3521578837703,-165.82586804677246A197,197,0,0,1,107.66221641134527,-164.97832329550647L93.2382144399629,-142.87541904767065A170.6070045455344,170.6070045455344,0,0,0,92.10367047463855,-143.60941433311115Z" fill-rule="evenodd" style="fill: #1DC690; stroke: #fff; opacity: 1;" id="p-type-logs"></path><path d="M107.66221641134527,-164.97832329550647A197,197,0,0,1,108.96552101932159,-164.12042904217557L94.36690933933971,-142.1324608305254A170.6070045455344,170.6070045455344,0,0,0,93.2382144399629,-142.87541904767065Z" fill-rule="evenodd" style="fill: #1DC690; stroke: #fff; opacity: 1;" id="p-type-logs"></path><path d="M108.96552101932159,-164.12042904217557A197,197,0,0,1,110.26198994814766,-163.25223910462788L95.48968436692029,-141.3805862892991A170.6070045455344,170.6070045455344,0,0,0,94.36690933933971,-142.1324608305254Z" fill-rule="evenodd" style="fill: #1DC690; stroke: #fff; opacity: 1;" id="p-type-logs"></path><path d="M110.26198994814766,-163.25223910462788A197,197,0,0,1,111.5515418670911,-162.37380794658546L96.60646908822429,-140.61984259095857A170.6070045455344,170.6070045455344,0,0,0,95.48968436692029,-141.3805862892991Z" fill-rule="evenodd" style="fill: #1DC690; stroke: #fff; opacity: 1;" id="p-type-logs"></path><path d="M111.5515418670911,-162.37380794658546A197,197,0,0,1,112.83409587934091,-161.4851906742278L97.71719344455828,-139.85027745885517A170.6070045455344,170.6070045455344,0,0,0,96.60646908822429,-140.61984259095857Z" fill-rule="evenodd" style="fill: #1DC690; stroke: #fff; opacity: 1;" id="p-type-logs"></path><path d="M112.83409587934091,-161.4851906742278A197,197,0,0,1,114.10957152708215,-160.58644303273462L98.8217877574106,-139.07193916973074A170.6070045455344,170.6070045455344,0,0,0,97.71719344455828,-139.85027745885517Z" fill-rule="evenodd" style="fill: #1DC690; stroke: #fff; opacity: 1;" id="p-type-logs"></path><path d="M114.10957152708215,-160.58644303273462A197,197,0,0,1,115.3778887965434,-159.67762140278913L99.92018273282257,-138.28487655068918A170.6070045455344,170.6070045455344,0,0,0,98.8217877574106,-139.07193916973074Z" fill-rule="evenodd" style="fill: #1DC690; stroke: #fff; opacity: 1;" id="p-type-logs"></path><path d="M115.3778887965434,-159.67762140278913A197,197,0,0,1,116.63896812301623,-158.7587827970409L101.01230946573538,-137.48913897613332A170.6070045455344,170.6070045455344,0,0,0,99.92018273282257,-138.28487655068918Z" fill-rule="evenodd" style="fill: #1DC690; stroke: #fff; opacity: 1;" id="p-type-logs"></path><path d="M116.63896812301623,-158.7587827970409A197,197,0,0,1,117.89273039584629,-157.8299848565294L102.09809944431275,-136.6847763646677A170.6070045455344,170.6070045455344,0,0,0,101.01230946573538,-137.48913897613332Z" fill-rule="evenodd" style="fill: #1DC690; stroke: #fff; opacity: 1;" id="p-type-logs"></path><path d="M117.89273039584629,-157.8299848565294A197,197,0,0,1,119.13909696339647,-156.89128584706805L103.17748455423882,-135.8718391759669A170.6070045455344,170.6070045455344,0,0,0,102.09809944431275,-136.6847763646677Z" fill-rule="evenodd" style="fill: #1DC690; stroke: #fff; opacity: 1;" id="p-type-logs"></path><path d="M119.13909696339647,-156.89128584706805A197,197,0,0,1,120.37798963798053,-155.94274465558905L104.25039708299106,-135.0503784076101A170.6070045455344,170.6070045455344,0,0,0,103.17748455423882,-135.8718391759669Z" fill-rule="evenodd" style="fill: #1DC690; stroke: #fff; opacity: 1;" id="p-type-logs"></path><path d="M120.37798963798053,-155.94274465558905A197,197,0,0,1,121.60933070076833,-154.98442078644925L105.31676972408822,-134.22044559188205A170.6070045455344,170.6070045455344,0,0,0,104.25039708299106,-135.0503784076101Z" fill-rule="evenodd" style="fill: #1DC690; stroke: #fff; opacity: 1;" id="p-type-logs"></path><path d="M121.60933070076833,-154.98442078644925A197,197,0,0,1,122.83304290666112,-154.01637435769726L106.37653558131247,-133.38209279254002A170.6070045455344,170.6070045455344,0,0,0,105.31676972408822,-134.22044559188205Z" fill-rule="evenodd" style="fill: #1DC690; stroke: #fff; opacity: 1;" id="p-type-logs"></path><path d="M122.83304290666112,-154.01637435769726A197,197,0,0,1,124.0490494891374,-153.03866609730218L107.42962817290602,-132.535372601548A170.6070045455344,170.6070045455344,0,0,0,106.37653558131247,-133.38209279254002Z" fill-rule="evenodd" style="fill: #1DC690; stroke: #fff; opacity: 1;" id="p-type-logs"></path><path d="M124.0490494891374,-153.03866609730218A197,197,0,0,1,125.25727416506867,-152.0513573393438L108.47598143574173,-131.6803381357772A170.6070045455344,170.6070045455344,0,0,0,107.42962817290602,-132.535372601548Z" fill-rule="evenodd" style="fill: #1DC690; stroke: #fff; opacity: 1;" id="p-type-logs"></path><path d="M125.25727416506867,-152.0513573393438A197,197,0,0,1,126.45764113950484,-151.05451002016528L109.51552972946732,-130.81704303367417A170.6070045455344,170.6070045455344,0,0,0,108.47598143574173,-131.6803381357772Z" fill-rule="evenodd" style="fill: #1DC690; stroke: #fff; opacity: 1;" id="p-type-logs"></path><path d="M126.45764113950484,-151.05451002016528A197,197,0,0,1,127.65007511042906,-150.0481866744874L110.54820784062325,-129.94554145189576A170.6070045455344,170.6070045455344,0,0,0,109.51552972946732,-130.81704303367417Z" fill-rule="evenodd" style="fill: #1DC690; stroke: #fff; opacity: 1;" id="p-type-logs"></path><path d="M127.65007511042906,-150.0481866744874A197,197,0,0,1,128.8345012734816,-149.03245043148578L111.57395098673369,-129.0658880619118A170.6070045455344,170.6070045455344,0,0,0,110.54820784062325,-129.94554145189576Z" fill-rule="evenodd" style="fill: #1DC690; stroke: #fff; opacity: 1;" id="p-type-logs"></path><path d="M128.8345012734816,-149.03245043148578A197,197,0,0,1,130.01084532665254,-148.00736501083057L112.59269482037045,-128.17813804657533A170.6070045455344,170.6070045455344,0,0,0,111.57395098673369,-129.0658880619118Z" fill-rule="evenodd" style="fill: #1DC690; stroke: #fff; opacity: 1;" id="p-type-logs"></path><path d="M130.01084532665254,-148.00736501083057A197,197,0,0,1,131.1790334749428,-146.9729947186892L113.60437543318972,-127.28234709666097A170.6070045455344,170.6070045455344,0,0,0,112.59269482037045,-128.17813804657533Z" fill-rule="evenodd" style="fill: #1DC690; stroke: #fff; opacity: 1;" id="p-type-logs"></path><path d="M131.1790334749428,-146.9729947186892A197,197,0,0,1,132.33899243499363,-145.92940444369222L114.60892935994113,-126.3785714073712A170.6070045455344,170.6070045455344,0,0,0,113.60437543318972,-127.28234709666097Z" fill-rule="evenodd" style="fill: #1DC690; stroke: #fff; opacity: 1;" id="p-type-logs"></path><path d="M132.33899243499363,-145.92940444369222A197,197,0,0,1,133.49064943968384,-144.8766596528628L115.60629358244913,-125.4668676748112A170.6070045455344,170.6070045455344,0,0,0,114.60892935994113,-126.3785714073712Z" fill-rule="evenodd" style="fill: #1DC690; stroke: #fff; opacity: 1;" id="p-type-logs"></path><path d="M133.49064943968384,-144.8766596528628A197,197,0,0,1,134.6339322426945,-143.81482638750967L116.59640553356627,-124.547293092432A170.6070045455344,170.6070045455344,0,0,0,115.60629358244913,-125.4668676748112Z" fill-rule="evenodd" style="fill: #1DC690; stroke: #fff; opacity: 1;" id="p-type-logs"></path><path d="M134.6339322426945,-143.81482638750967A197,197,0,0,1,135.7687691230414,-142.74397125908428L117.57920310109817,-123.61990534744275A170.6070045455344,170.6070045455344,0,0,0,116.59640553356627,-124.547293092432Z" fill-rule="evenodd" style="fill: #1DC690; stroke: #fff; opacity: 1;" id="p-type-logs"></path><path d="M135.7687691230414,-142.74397125908428A197,197,0,0,1,136.89508888957408,-141.66416144500207L118.55462463170002,-122.68476261719182A170.6070045455344,170.6070045455344,0,0,0,117.57920310109817,-123.61990534744275Z" fill-rule="evenodd" style="fill: #1DC690; stroke: #fff; opacity: 1;" id="p-type-logs"></path><path d="M136.89508888957408,-141.66416144500207A197,197,0,0,1,138.01282088544187,-140.57546468442828L119.5226089347442,-121.74192356551708A170.6070045455344,170.6070045455344,0,0,0,118.55462463170002,-122.68476261719182Z" fill-rule="evenodd" style="fill: #1DC690; stroke: #fff; opacity: 1;" id="p-type-logs"></path><path d="M138.01282088544187,-140.57546468442828A197,197,0,0,1,139.12189499252642,-139.47794927402842L120.48309528615897,-120.79144733906591A170.6070045455344,170.6070045455344,0,0,0,119.5226089347442,-121.74192356551708Z" fill-rule="evenodd" style="fill: #1DC690; stroke: #fff; opacity: 1;" id="p-type-logs"></path><path d="M139.12189499252642,-139.47794927402842A197,197,0,0,1,140.22224163584036,-138.37168406368409L121.43602343223776,-119.83339356358478A170.6070045455344,170.6070045455344,0,0,0,120.48309528615897,-120.79144733906591Z" fill-rule="evenodd" style="fill: #1DC690; stroke: #fff; opacity: 1;" id="p-type-logs"></path><path d="M140.22224163584036,-138.37168406368409A197,197,0,0,1,141.31379178789183,-137.25673845217344L122.38133359341911,-118.86782234017859A170.6070045455344,170.6070045455344,0,0,0,121.43602343223776,-119.83339356358478Z" fill-rule="evenodd" style="fill: #1DC690; stroke: #fff; opacity: 1;" id="p-type-logs"></path><path d="M141.31379178789183,-137.25673845217344A197,197,0,0,1,142.396476973015,-136.13318238281806L123.31896646803683,-117.89479424154065A170.6070045455344,170.6070045455344,0,0,0,122.38133359341911,-118.86782234017859Z" fill-rule="evenodd" style="fill: #1DC690; stroke: #fff; opacity: 1;" id="p-type-logs"></path><path d="M142.396476973015,-136.13318238281806A197,197,0,0,1,143.47022927166537,-135.00108633909497L124.24886323603998,-116.91437030815258A170.6070045455344,170.6070045455344,0,0,0,123.31896646803683,-117.89479424154065Z" fill-rule="evenodd" style="fill: #1DC690; stroke: #fff; opacity: 1;" id="p-type-logs"></path><path d="M143.47022927166537,-135.00108633909497A197,197,0,0,1,144.53498132468079,-133.86052134021506L125.17096556268298,-115.92661204445521A170.6070045455344,170.6070045455344,0,0,0,124.24886323603998,-116.91437030815258Z" fill-rule="evenodd" style="fill: #1DC690; stroke: #fff; opacity: 1;" id="p-type-logs"></path><path d="M144.53498132468079,-133.86052134021506A197,197,0,0,1,145.590666337507,-132.711558936668L126.08521560218497,-114.93158141499023A170.6070045455344,170.6070045455344,0,0,0,125.17096556268298,-115.92661204445521Z" fill-rule="evenodd" style="fill: #1DC690; stroke: #fff; opacity: 1;" id="p-type-logs"></path><path d="M145.590666337507,-132.711558936668A197,197,0,0,1,146.63721808438774,-131.5542712057336L126.99155600135867,-113.92934084051299A170.6070045455344,170.6070045455344,0,0,0,126.08521560218497,-114.93158141499023Z" fill-rule="evenodd" style="fill: #1DC690; stroke: #fff; opacity: 1;" id="p-type-logs"></path><path d="M146.63721808438774,-131.5542712057336A197,197,0,0,1,147.67457091251939,-130.3887307469602L127.88992990320833,-112.91995319407664A170.6070045455344,170.6070045455344,0,0,0,126.99155600135867,-113.92934084051299Z" fill-rule="evenodd" style="fill: #1DC690; stroke: #fff; opacity: 1;" id="p-type-logs"></path><path d="M195.48324735924223,24.398770499459793A197,197,0,0,1,195.28386964605494,25.946295613490147L169.1207920628124,22.470151135383215A170.6070045455344,170.6070045455344,0,0,0,169.29345822738105,21.129955073638516Z" fill-rule="evenodd" style="fill: #D7A449; stroke: #fff; opacity: 1;" id="p-type-tokenTransfers"></path><path d="M195.28386964605494,25.946295613490147A197,197,0,0,1,195.07224128822673,27.49219305162549L168.937516528772,23.808937588453702A170.6070045455344,170.6070045455344,0,0,0,169.1207920628124,22.470151135383215Z" fill-rule="evenodd" style="fill: #D7A449; stroke: #fff; opacity: 1;" id="p-type-tokenTransfers"></path><path d="M195.07224128822673,27.49219305162549A197,197,0,0,1,194.8483755617328,29.0363658358604L168.7436431225916,25.146230447433684A170.6070045455344,170.6070045455344,0,0,0,168.937516528772,23.808937588453702Z" fill-rule="evenodd" style="fill: #D7A449; stroke: #fff; opacity: 1;" id="p-type-tokenTransfers"></path><path d="M194.8483755617328,29.0363658358604A197,197,0,0,1,194.61228651022904,30.57871709638134L168.53918400643397,26.481945820603766A170.6070045455344,170.6070045455344,0,0,0,168.7436431225916,25.146230447433684Z" fill-rule="evenodd" style="fill: #D7A449; stroke: #fff; opacity: 1;" id="p-type-tokenTransfers"></path><path d="M194.61228651022904,30.57871709638134A197,197,0,0,1,194.36398894417098,32.11915007764346L168.32415200652983,27.81599991520416A170.6070045455344,170.6070045455344,0,0,0,168.53918400643397,26.481945820603766Z" fill-rule="evenodd" style="fill: #D7A449; stroke: #fff; opacity: 1;" id="p-type-tokenTransfers"></path><path d="M194.36398894417098,32.11915007764346A197,197,0,0,1,194.10349843988476,33.65756814444039L168.09856061237335,29.148309042691245A170.6070045455344,170.6070045455344,0,0,0,168.32415200652983,27.81599991520416Z" fill-rule="evenodd" style="fill: #D7A449; stroke: #fff; opacity: 1;" id="p-type-tokenTransfers"></path><path d="M194.10349843988476,33.65756814444039A197,197,0,0,1,193.83083133859006,35.193874787966344L167.86242397587588,30.47878962398753A170.6070045455344,170.6070045455344,0,0,0,168.09856061237335,29.148309042691245Z" fill-rule="evenodd" style="fill: #D7A449; stroke: #fff; opacity: 1;" id="p-type-tokenTransfers"></path><path d="M193.83083133859006,35.193874787966344A197,197,0,0,1,193.54600474537477,36.72797363187042L167.61575691047807,31.8073581947248A170.6070045455344,170.6070045455344,0,0,0,167.86242397587588,30.47878962398753Z" fill-rule="evenodd" style="fill: #D7A449; stroke: #fff; opacity: 1;" id="p-type-tokenTransfers"></path><path d="M193.54600474537477,36.72797363187042A197,197,0,0,1,193.2490365281221,38.259768438302494L167.3585748902207,33.13393141048004A170.6070045455344,170.6070045455344,0,0,0,167.61575691047807,31.8073581947248Z" fill-rule="evenodd" style="fill: #D7A449; stroke: #fff; opacity: 1;" id="p-type-tokenTransfers"></path><path d="M193.2490365281221,38.259768438302494A197,197,0,0,1,192.9399453163897,39.78916311395043L167.0908940487739,34.45842605200381A170.6070045455344,170.6070045455344,0,0,0,167.3585748902207,33.13393141048004Z" fill-rule="evenodd" style="fill: #D7A449; stroke: #fff; opacity: 1;" id="p-type-tokenTransfers"></path><path d="M192.9399453163897,39.78916311395043A197,197,0,0,1,192.61875050024085,41.31606171606832L166.8127311784251,35.78075903044085A170.6070045455344,170.6070045455344,0,0,0,167.0908940487739,34.45842605200381Z" fill-rule="evenodd" style="fill: #D7A449; stroke: #fff; opacity: 1;" id="p-type-tokenTransfers"></path><path d="M192.61875050024085,41.31606171606832A197,197,0,0,1,192.2854722290282,42.84036845849517L166.5241037290256,37.100847392542406A170.6070045455344,170.6070045455344,0,0,0,166.8127311784251,35.78075903044085Z" fill-rule="evenodd" style="fill: #D7A449; stroke: #fff; opacity: 1;" id="p-type-tokenTransfers"></path><path d="M192.2854722290282,42.84036845849517A197,197,0,0,1,191.94013141012968,44.36198771766382L166.22502980689578,38.41860832587012A170.6070045455344,170.6070045455344,0,0,0,166.5241037290256,37.100847392542406Z" fill-rule="evenodd" style="fill: #D7A449; stroke: #fff; opacity: 1;" id="p-type-tokenTransfers"></path><path d="M191.94013141012968,44.36198771766382A197,197,0,0,1,191.58274970763694,45.88082403859965L165.91552817368932,39.73395916399104A170.6070045455344,170.6070045455344,0,0,0,166.22502980689578,38.41860832587012Z" fill-rule="evenodd" style="fill: #D7A449; stroke: #fff; opacity: 1;" id="p-type-tokenTransfers"></path><path d="M191.58274970763694,45.88082403859965A197,197,0,0,1,191.21334954099635,47.39678214090866L165.59561824521634,41.046817391663495A170.6070045455344,170.6070045455344,0,0,0,165.91552817368932,39.73395916399104Z" fill-rule="evenodd" style="fill: #D7A449; stroke: #fff; opacity: 1;" id="p-type-tokenTransfers"></path><path d="M191.21334954099635,47.39678214090866A197,197,0,0,1,190.83195408360248,48.909766924754756L165.2653200902253,42.35710065001352A170.6070045455344,170.6070045455344,0,0,0,165.59561824521634,41.046817391663495Z" fill-rule="evenodd" style="fill: #D7A449; stroke: #fff; opacity: 1;" id="p-type-tokenTransfers"></path><path d="M190.83195408360248,48.909766924754756A197,197,0,0,1,190.4385872613445,50.41968347682548L164.92465442914394,43.66472674170138A170.6070045455344,170.6070045455344,0,0,0,165.2653200902253,42.35710065001352Z" fill-rule="evenodd" style="fill: #D7A449; stroke: #fff; opacity: 1;" id="p-type-tokenTransfers"></path><path d="M190.4385872613445,50.41968347682548A197,197,0,0,1,190.03327375110518,51.92643707628623L164.57364263277964,44.96961363607802A170.6070045455344,170.6070045455344,0,0,0,164.92465442914394,43.66472674170138Z" fill-rule="evenodd" style="fill: #D7A449; stroke: #fff; opacity: 1;" id="p-type-tokenTransfers"></path><path d="M190.03327375110518,51.92643707628623A197,197,0,0,1,189.6160389792128,53.42993320072234L164.21230672097863,46.271679474331144A170.6070045455344,170.6070045455344,0,0,0,164.57364263277964,44.96961363607802Z" fill-rule="evenodd" style="fill: #D7A449; stroke: #fff; opacity: 1;" id="p-type-tokenTransfers"></path><path d="M189.6160389792128,53.42993320072234A197,197,0,0,1,189.18690911984618,54.93007753206863L163.84066936124466,47.57084257462026A170.6070045455344,170.6070045455344,0,0,0,164.21230672097863,46.271679474331144Z" fill-rule="evenodd" style="fill: #D7A449; stroke: #fff; opacity: 1;" id="p-type-tokenTransfers"></path><path d="M189.18690911984618,54.93007753206863A197,197,0,0,1,188.7459110933926,56.42677596252632L163.45875386731709,48.86702143720092A170.6070045455344,170.6070045455344,0,0,0,163.84066936124466,47.57084257462026Z" fill-rule="evenodd" style="fill: #D7A449; stroke: #fff; opacity: 1;" id="p-type-tokenTransfers"></path><path d="M188.7459110933926,56.42677596252632A197,197,0,0,1,188.2930725647592,57.91993460046658L163.06658419770818,50.16013474953735A170.6070045455344,170.6070045455344,0,0,0,163.45875386731709,48.86702143720092Z" fill-rule="evenodd" style="fill: #D7A449; stroke: #fff; opacity: 1;" id="p-type-tokenTransfers"></path><path d="M188.2930725647592,57.91993460046658A197,197,0,0,1,187.82842194163734,59.409459776320595L162.66418495420038,51.45010139140341A170.6070045455344,170.6070045455344,0,0,0,163.06658419770818,50.16013474953735Z" fill-rule="evenodd" style="fill: #D7A449; stroke: #fff; opacity: 1;" id="p-type-tokenTransfers"></path><path d="M187.82842194163734,59.409459776320595A197,197,0,0,1,187.35198837272048,60.895258048455695L162.25158138030272,52.736840439971424A170.6070045455344,170.6070045455344,0,0,0,162.66418495420038,51.45010139140341Z" fill-rule="evenodd" style="fill: #D7A449; stroke: #fff; opacity: 1;" id="p-type-tokenTransfers"></path><path d="M187.35198837272048,60.895258048455695A197,197,0,0,1,186.86380174587583,62.37723620903718L161.82879935966739,54.02027117488873A170.6070045455344,170.6070045455344,0,0,0,162.25158138030272,52.736840439971424Z" fill-rule="evenodd" style="fill: #D7A449; stroke: #fff; opacity: 1;" id="p-type-tokenTransfers"></path><path d="M186.86380174587583,62.37723620903718A197,197,0,0,1,186.3638926862691,63.85530128987549L161.395865414466,55.30031308334141A170.6070045455344,170.6070045455344,0,0,0,161.82879935966739,54.02027117488873Z" fill-rule="evenodd" style="fill: #D7A449; stroke: #fff; opacity: 1;" id="p-type-tokenTransfers"></path><path d="M186.3638926862691,63.85530128987549A197,197,0,0,1,185.85229255444358,65.32936056825835L160.95280670372563,56.57688586510512A170.6070045455344,170.6070045455344,0,0,0,161.395865414466,55.30031308334141Z" fill-rule="evenodd" style="fill: #D7A449; stroke: #fff; opacity: 1;" id="p-type-tokenTransfers"></path><path d="M185.85229255444358,65.32936056825835A197,197,0,0,1,185.3290334443527,66.79932157276744L160.49965102162528,57.84990943758249A170.6070045455344,170.6070045455344,0,0,0,160.95280670372563,56.57688586510512Z" fill-rule="evenodd" style="fill: #D7A449; stroke: #fff; opacity: 1;" id="p-type-tokenTransfers"></path><path d="M185.3290334443527,66.79932157276744A197,197,0,0,1,184.79414818134669,68.2650920890794L160.03642679575213,59.11930394082687A170.6070045455344,170.6070045455344,0,0,0,160.49965102162528,57.84990943758249Z" fill-rule="evenodd" style="fill: #D7A449; stroke: #fff; opacity: 1;" id="p-type-tokenTransfers"></path><path d="M184.79414818134669,68.2650920890794A197,197,0,0,1,184.24767032011326,69.72658016575065L159.56316308531822,60.384989742552236A170.6070045455344,170.6070045455344,0,0,0,160.03642679575213,59.11930394082687Z" fill-rule="evenodd" style="fill: #D7A449; stroke: #fff; opacity: 1;" id="p-type-tokenTransfers"></path><path d="M184.24767032011326,69.72658016575065A197,197,0,0,1,183.68963414257294,71.18369411998576L159.07988957933753,61.646887443128634A170.6070045455344,170.6070045455344,0,0,0,159.56316308531822,60.384989742552236Z" fill-rule="evenodd" style="fill: #D7A449; stroke: #fff; opacity: 1;" id="p-type-tokenTransfers"></path><path d="M183.68963414257294,71.18369411998576A197,197,0,0,1,183.12007465572822,72.63634254338889L158.58663659476358,62.90491788056316A170.6070045455344,170.6070045455344,0,0,0,159.07988957933753,61.646887443128634Z" fill-rule="evenodd" style="fill: #D7A449; stroke: #fff; opacity: 1;" id="p-type-tokenTransfers"></path><path d="M183.12007465572822,72.63634254338889A197,197,0,0,1,182.53902758946745,74.08443430769812L158.08343507458733,64.15900213546598A170.6070045455344,170.6070045455344,0,0,0,158.58663659476358,62.90491788056316Z" fill-rule="evenodd" style="fill: #D7A449; stroke: #fff; opacity: 1;" id="p-type-tokenTransfers"></path><path d="M182.53902758946745,74.08443430769812A197,197,0,0,1,181.94652939432365,75.52787857050214L157.57031658589636,65.40906153600116A170.6070045455344,170.6070045455344,0,0,0,158.08343507458733,64.15900213546598Z" fill-rule="evenodd" style="fill: #D7A449; stroke: #fff; opacity: 1;" id="p-type-tokenTransfers"></path><path d="M181.94652939432365,75.52787857050214A197,197,0,0,1,181.3426172391877,76.96658478093896L157.04731331789444,66.65501766282189A170.6070045455344,170.6070045455344,0,0,0,157.57031658589636,65.40906153600116Z" fill-rule="evenodd" style="fill: #D7A449; stroke: #fff; opacity: 1;" id="p-type-tokenTransfers"></path><path d="M181.3426172391877,76.96658478093896A197,197,0,0,1,180.72732900897662,78.40046268537651L156.51445807988208,67.89679235399001A170.6070045455344,170.6070045455344,0,0,0,157.04731331789444,66.65501766282189Z" fill-rule="evenodd" style="fill: #D7A449; stroke: #fff; opacity: 1;" id="p-type-tokenTransfers"></path><path d="M180.72732900897662,78.40046268537651A197,197,0,0,1,180.10070330225713,79.82942233307435L155.97178429919862,69.1343077098792A170.6070045455344,170.6070045455344,0,0,0,156.51445807988208,67.89679235399001Z" fill-rule="evenodd" style="fill: #D7A449; stroke: #fff; opacity: 1;" id="p-type-tokenTransfers"></path><path d="M180.10070330225713,79.82942233307435A197,197,0,0,1,179.46277942882406,81.2533740818266L155.41932601912498,70.36748609806193A170.6070045455344,170.6070045455344,0,0,0,155.97178429919862,69.1343077098792Z" fill-rule="evenodd" style="fill: #D7A449; stroke: #fff; opacity: 1;" id="p-type-tokenTransfers"></path><path d="M179.46277942882406,81.2533740818266A197,197,0,0,1,178.81359740723445,82.67222860358537L154.85711789674826,71.59625015817943A170.6070045455344,170.6070045455344,0,0,0,155.41932601912498,70.36748609806193Z" fill-rule="evenodd" style="fill: #D7A449; stroke: #fff; opacity: 1;" id="p-type-tokenTransfers"></path><path d="M178.81359740723445,82.67222860358537A197,197,0,0,1,178.15319796229716,84.08589689006455L154.2851952007874,72.82052280679483A170.6070045455344,170.6070045455344,0,0,0,154.85711789674826,71.59625015817943Z" fill-rule="evenodd" style="fill: #D7A449; stroke: #fff; opacity: 1;" id="p-type-tokenTransfers"></path><path d="M178.15319796229716,84.08589689006455A197,197,0,0,1,177.4816225225179,85.4942902583235L153.7035938093809,74.0402272422286A170.6070045455344,170.6070045455344,0,0,0,154.2851952007874,72.82052280679483Z" fill-rule="evenodd" style="fill: #D7A449; stroke: #fff; opacity: 1;" id="p-type-tokenTransfers"></path><path d="M177.4816225225179,85.4942902583235A197,197,0,0,1,176.79891321750054,86.89732035633037L153.11235020783582,75.25528694937672A170.6070045455344,170.6070045455344,0,0,0,153.7035938093809,74.0402272422286Z" fill-rule="evenodd" style="fill: #D7A449; stroke: #fff; opacity: 1;" id="p-type-tokenTransfers"></path><path d="M176.79891321750054,86.89732035633037A197,197,0,0,1,176.1051128753041,88.29489916850467L152.51150148633934,76.46562570451056A170.6070045455344,170.6070045455344,0,0,0,153.11235020783582,75.25528694937672Z" fill-rule="evenodd" style="fill: #D7A449; stroke: #fff; opacity: 1;" id="p-type-tokenTransfers"></path><path d="M176.1051128753041,88.29489916850467A197,197,0,0,1,175.40026501975595,89.68693902123866L151.90108533763168,77.67116758005854A170.6070045455344,170.6070045455344,0,0,0,152.51150148633934,76.46562570451056Z" fill-rule="evenodd" style="fill: #D7A449; stroke: #fff; opacity: 1;" id="p-type-tokenTransfers"></path><path d="M175.40026501975595,89.68693902123866A197,197,0,0,1,174.68441386772164,91.07335258839733L151.2811400546416,78.87183694936935A170.6070045455344,170.6070045455344,0,0,0,151.90108533763168,77.67116758005854Z" fill-rule="evenodd" style="fill: #D7A449; stroke: #fff; opacity: 1;" id="p-type-tokenTransfers"></path><path d="M174.68441386772164,91.07335258839733A197,197,0,0,1,173.957604326331,92.45405289679665L150.6517045280844,80.06755849145617A170.6070045455344,170.6070045455344,0,0,0,151.2811400546416,78.87183694936935Z" fill-rule="evenodd" style="fill: #D7A449; stroke: #fff; opacity: 1;" id="p-type-tokenTransfers"></path><path d="M173.957604326331,92.45405289679665A197,197,0,0,1,173.21988199016087,93.82895333165955L150.01281824402187,81.2582571957217A170.6070045455344,170.6070045455344,0,0,0,150.6517045280844,80.06755849145617Z" fill-rule="evenodd" style="fill: #D7A449; stroke: #fff; opacity: 1;" id="p-type-tokenTransfers"></path><path d="M173.21988199016087,93.82895333165955A197,197,0,0,1,172.47129313837505,95.19796764204949L149.36452128138552,82.44385836666383A170.6070045455344,170.6070045455344,0,0,0,150.01281824402187,81.2582571957217Z" fill-rule="evenodd" style="fill: #D7A449; stroke: #fff; opacity: 1;" id="p-type-tokenTransfers"></path><path d="M172.47129313837505,95.19796764204949A197,197,0,0,1,171.71188473182096,96.56100994628126L148.70685430946224,83.62428762856142A170.6070045455344,170.6070045455344,0,0,0,149.36452128138552,82.44385836666383Z" fill-rule="evenodd" style="fill: #D7A449; stroke: #fff; opacity: 1;" id="p-type-tokenTransfers"></path><path d="M171.71188473182096,96.56100994628126A197,197,0,0,1,170.9417044100837,97.91799473730846L148.0398585853429,84.7994709301401A170.6070045455344,170.6070045455344,0,0,0,148.70685430946224,83.62428762856142Z" fill-rule="evenodd" style="fill: #D7A449; stroke: #fff; opacity: 1;" id="p-type-tokenTransfers"></path><path d="M170.9417044100837,97.91799473730846A197,197,0,0,1,170.1608004884975,99.26883688808766L147.36357595133435,85.96933454921769A170.6070045455344,170.6070045455344,0,0,0,148.0398585853429,84.7994709301401Z" fill-rule="evenodd" style="fill: #D7A449; stroke: #fff; opacity: 1;" id="p-type-tokenTransfers"></path><path d="M170.1608004884975,99.26883688808766A197,197,0,0,1,169.36922195511474,100.61345165691851L146.67804883233444,87.13380509732896A170.6070045455344,170.6070045455344,0,0,0,147.36357595133435,85.96933454921769Z" fill-rule="evenodd" style="fill: #D7A449; stroke: #fff; opacity: 1;" id="p-type-tokenTransfers"></path><path d="M169.36922195511474,100.61345165691851A197,197,0,0,1,168.56701846763292,101.95175469275998L145.98332023317073,88.2928095243295A170.6070045455344,170.6070045455344,0,0,0,146.67804883233444,87.13380509732896Z" fill-rule="evenodd" style="fill: #D7A449; stroke: #fff; opacity: 1;" id="p-type-tokenTransfers"></path><path d="M168.56701846763292,101.95175469275998A197,197,0,0,1,167.75424035027936,103.2836620405217L145.27943373590244,89.4462751229783A170.6070045455344,170.6070045455344,0,0,0,145.98332023317073,88.2928095243295Z" fill-rule="evenodd" style="fill: #D7A449; stroke: #fff; opacity: 1;" id="p-type-tokenTransfers"></path><path d="M167.75424035027936,103.2836620405217A197,197,0,0,1,166.9309385906544,104.60909014633087L144.5664334970868,90.59412953349893A170.6070045455344,170.6070045455344,0,0,0,145.27943373590244,89.4462751229783Z" fill-rule="evenodd" style="fill: #D7A449; stroke: #fff; opacity: 1;" id="p-type-tokenTransfers"></path><path d="M166.9309385906544,104.60909014633087A197,197,0,0,1,166.09716483653258,105.92795586277366L143.8443642450086,91.73630074811875A170.6070045455344,170.6070045455344,0,0,0,144.5664334970868,90.59412953349893Z" fill-rule="evenodd" style="fill: #D7A449; stroke: #fff; opacity: 1;" id="p-type-tokenTransfers"></path><path d="M166.09716483653258,105.92795586277366A197,197,0,0,1,165.252971392623,107.24017645411129L143.11327127687463,92.87271711558618A170.6070045455344,170.6070045455344,0,0,0,143.8443642450086,91.73630074811875Z" fill-rule="evenodd" style="fill: #D7A449; stroke: #fff; opacity: 1;" id="p-type-tokenTransfers"></path><path d="M165.252971392623,107.24017645411129A197,197,0,0,1,164.39841121728773,108.54566960147034L142.3732004559718,94.0033073456656A170.6070045455344,170.6070045455344,0,0,0,143.11327127687463,92.87271711558618Z" fill-rule="evenodd" style="fill: #D7A449; stroke: #fff; opacity: 1;" id="p-type-tokenTransfers"></path><path d="M164.39841121728773,108.54566960147034A197,197,0,0,1,163.5335379192199,109.84435340800667L141.6241982087902,95.12800051360955A170.6070045455344,170.6070045455344,0,0,0,142.3732004559718,94.0033073456656Z" fill-rule="evenodd" style="fill: #D7A449; stroke: #fff; opacity: 1;" id="p-type-tokenTransfers"></path><path d="M163.5335379192199,109.84435340800667A197,197,0,0,1,162.6584057540805,111.13614640404316L140.8663115221106,96.24672606460797A170.6070045455344,170.6070045455344,0,0,0,141.6241982087902,95.12800051360955Z" fill-rule="evenodd" style="fill: #D7A449; stroke: #fff; opacity: 1;" id="p-type-tokenTransfers"></path><path d="M162.6584057540805,111.13614640404316A197,197,0,0,1,161.7730696210949,112.42096755218036L140.0995879400568,97.35941381821426A170.6070045455344,170.6070045455344,0,0,0,140.8663115221106,96.24672606460797Z" fill-rule="evenodd" style="fill: #D7A449; stroke: #fff; opacity: 1;" id="p-type-tokenTransfers"></path><path d="M161.7730696210949,112.42096755218036A197,197,0,0,1,160.87758505960883,113.69873625238026L139.3240755611131,98.46599397274801A170.6070045455344,170.6070045455344,0,0,0,140.0995879400568,97.35941381821426Z" fill-rule="evenodd" style="fill: #D7A449; stroke: #fff; opacity: 1;" id="p-type-tokenTransfers"></path><path d="M160.87758505960883,113.69873625238026A197,197,0,0,1,159.9720082456043,114.96937234702256L138.539823035107,99.56639710967367A170.6070045455344,170.6070045455344,0,0,0,139.3240755611131,98.46599397274801Z" fill-rule="evenodd" style="fill: #D7A449; stroke: #fff; opacity: 1;" id="p-type-tokenTransfers"></path><path d="M159.9720082456043,114.96937234702256A197,197,0,0,1,159.05639598817544,116.23279612593309L137.7468795601572,100.66055419795553A170.6070045455344,170.6070045455344,0,0,0,138.539823035107,99.56639710967367Z" fill-rule="evenodd" style="fill: #D7A449; stroke: #fff; opacity: 1;" id="p-type-tokenTransfers"></path><path d="M159.05639598817544,116.23279612593309A197,197,0,0,1,158.13080572596493,117.48892833138423L136.9452948795874,101.748396598388A170.6070045455344,170.6070045455344,0,0,0,137.7468795601572,100.66055419795553Z" fill-rule="evenodd" style="fill: #D7A449; stroke: #fff; opacity: 1;" id="p-type-tokenTransfers"></path><path d="M158.13080572596493,117.48892833138423A197,197,0,0,1,157.19529552356047,118.73769016306697L136.1351192788056,102.82985606790164A170.6070045455344,170.6070045455344,0,0,0,136.9452948795874,101.748396598388Z" fill-rule="evenodd" style="fill: #D7A449; stroke: #fff; opacity: 1;" id="p-type-tokenTransfers"></path><path d="M157.19529552356047,118.73769016306697A197,197,0,0,1,156.24992406785245,119.97900328303426L135.31640358214977,103.90486476384423A170.6070045455344,170.6070045455344,0,0,0,136.1351192788056,102.82985606790164Z" fill-rule="evenodd" style="fill: #D7A449; stroke: #fff; opacity: 1;" id="p-type-tokenTransfers"></path><path d="M156.24992406785245,119.97900328303426A197,197,0,0,1,155.29475066435225,121.21278982061534L134.48919914969937,104.9733552482367A170.6070045455344,170.6070045455344,0,0,0,135.31640358214977,103.90486476384423Z" fill-rule="evenodd" style="fill: #D7A449; stroke: #fff; opacity: 1;" id="p-type-tokenTransfers"></path><path d="M155.29475066435225,121.21278982061534A197,197,0,0,1,154.32983523347193,122.43897237730071L133.6535578740534,106.03526049200357A170.6070045455344,170.6070045455344,0,0,0,134.48919914969937,104.9733552482367Z" fill-rule="evenodd" style="fill: #D7A449; stroke: #fff; opacity: 1;" id="p-type-tokenTransfers"></path><path d="M154.32983523347193,122.43897237730071A197,197,0,0,1,153.35523830676522,123.65747403159764L132.80953217707517,107.09051387917808A170.6070045455344,170.6070045455344,0,0,0,133.6535578740534,106.03526049200357Z" fill-rule="evenodd" style="fill: #D7A449; stroke: #fff; opacity: 1;" id="p-type-tokenTransfers"></path><path d="M153.35523830676522,123.65747403159764A197,197,0,0,1,152.3710210231303,124.86821834385553L131.95717500660362,108.13904921108093A170.6070045455344,170.6070045455344,0,0,0,132.80953217707517,107.09051387917808Z" fill-rule="evenodd" style="fill: #D7A449; stroke: #fff; opacity: 1;" id="p-type-tokenTransfers"></path><path d="M152.3710210231303,124.86821834385553A197,197,0,0,1,151.37724512497437,126.0711293610612L131.09653983313186,109.18080071047322A170.6070045455344,170.6070045455344,0,0,0,131.95717500660362,108.13904921108093Z" fill-rule="evenodd" style="fill: #D7A449; stroke: #fff; opacity: 1;" id="p-type-tokenTransfers"></path><path d="M151.37724512497437,126.0711293610612A197,197,0,0,1,150.37397295434025,127.26613162160365L130.22768064645277,110.21570302568281A170.6070045455344,170.6070045455344,0,0,0,131.09653983313186,109.18080071047322Z" fill-rule="evenodd" style="fill: #D7A449; stroke: #fff; opacity: 1;" id="p-type-tokenTransfers"></path><path d="M150.37397295434025,127.26613162160365A197,197,0,0,1,149.3612674489958,128.45315016000794L129.3506519522721,111.243691234704A170.6070045455344,170.6070045455344,0,0,0,130.22768064645277,110.21570302568281Z" fill-rule="evenodd" style="fill: #D7A449; stroke: #fff; opacity: 1;" id="p-type-tokenTransfers"></path><path d="M149.3612674489958,128.45315016000794A197,197,0,0,1,148.3391921384854,129.63211051163796L128.46550876878925,112.26470084927023A170.6070045455344,170.6070045455344,0,0,0,129.3506519522721,111.243691234704Z" fill-rule="evenodd" style="fill: #D7A449; stroke: #fff; opacity: 1;" id="p-type-tokenTransfers"></path><path d="M148.3391921384854,129.63211051163796A197,197,0,0,1,147.30781114014476,130.80293871736768L127.5723066232457,113.27866781889954A170.6070045455344,170.6070045455344,0,0,0,128.46550876878925,112.26470084927023Z" fill-rule="evenodd" style="fill: #D7A449; stroke: #fff; opacity: 1;" id="p-type-tokenTransfers"></path><path d="M147.30781114014476,130.80293871736768A197,197,0,0,1,146.26718915507857,131.965561328221L126.67110154844178,114.2855285349127A170.6070045455344,170.6070045455344,0,0,0,127.5723066232457,113.27866781889954Z" fill-rule="evenodd" style="fill: #D7A449; stroke: #fff; opacity: 1;" id="p-type-tokenTransfers"></path><path d="M146.26718915507857,131.965561328221A197,197,0,0,1,145.21739146410175,133.11990540997925L125.76195007922162,115.28521983442354A170.6070045455344,170.6070045455344,0,0,0,126.67110154844178,114.2855285349127Z" fill-rule="evenodd" style="fill: #D7A449; stroke: #fff; opacity: 1;" id="p-type-tokenTransfers"></path><path d="M145.21739146410175,133.11990540997925A197,197,0,0,1,144.15848392364416,134.26589854775648L124.84490924892644,116.27767900430126A170.6070045455344,170.6070045455344,0,0,0,125.76195007922162,115.28521983442354Z" fill-rule="evenodd" style="fill: #D7A449; stroke: #fff; opacity: 1;" id="p-type-tokenTransfers"></path><path d="M144.15848392364416,134.26589854775648A197,197,0,0,1,143.09053296161915,135.40346885054234L123.92003658581675,117.26284378510458A170.6070045455344,170.6070045455344,0,0,0,124.84490924892644,116.27767900430126Z" fill-rule="evenodd" style="fill: #D7A449; stroke: #fff; opacity: 1;" id="p-type-tokenTransfers"></path><path d="M143.09053296161915,135.40346885054234A197,197,0,0,1,142.01360557325657,136.53254495571196L122.98739010946352,118.24065237498746A170.6070045455344,170.6070045455344,0,0,0,123.92003658581675,117.26284378510458Z" fill-rule="evenodd" style="fill: #D7A449; stroke: #fff; opacity: 1;" id="p-type-tokenTransfers"></path><path d="M142.01360557325657,136.53254495571196A197,197,0,0,1,140.9277693168999,137.65305603350274L122.04702832710846,119.21104343357615A170.6070045455344,170.6070045455344,0,0,0,122.98739010946352,118.24065237498746Z" fill-rule="evenodd" style="fill: #D7A449; stroke: #fff; opacity: 1;" id="p-type-tokenTransfers"></path><path d="M140.9277693168999,137.65305603350274A197,197,0,0,1,139.83309230976818,138.7649317914575L121.09901022999365,120.17395608581707A170.6070045455344,170.6070045455344,0,0,0,122.04702832710846,119.21104343357615Z" fill-rule="evenodd" style="fill: #D7A449; stroke: #fff; opacity: 1;" id="p-type-tokenTransfers"></path><path d="M139.83309230976818,138.7649317914575A197,197,0,0,1,138.72964322368267,139.8681024788344L120.14339528966089,121.1293299257958A170.6070045455344,170.6070045455344,0,0,0,121.09901022999365,120.17395608581707Z" fill-rule="evenodd" style="fill: #D7A449; stroke: #fff; opacity: 1;" id="p-type-tokenTransfers"></path><path d="M138.72964322368267,139.8681024788344A197,197,0,0,1,137.6174912807592,140.9624988909822L119.18024345422096,122.07710502052635A170.6070045455344,170.6070045455344,0,0,0,120.14339528966089,121.1293299257958Z" fill-rule="evenodd" style="fill: #D7A449; stroke: #fff; opacity: 1;" id="p-type-tokenTransfers"></path><path d="M137.6174912807592,140.9624988909822A197,197,0,0,1,136.49670624906548,142.04805237368208L118.20961514459285,123.0172219137111A170.6070045455344,170.6070045455344,0,0,0,119.18024345422096,122.07710502052635Z" fill-rule="evenodd" style="fill: #D7A449; stroke: #fff; opacity: 1;" id="p-type-tokenTransfers"></path><path d="M136.49670624906548,142.04805237368208A197,197,0,0,1,135.36735843824445,143.12469482745405L117.23157125071347,123.94962162947044A170.6070045455344,170.6070045455344,0,0,0,118.20961514459285,123.0172219137111Z" fill-rule="evenodd" style="fill: #D7A449; stroke: #fff; opacity: 1;" id="p-type-tokenTransfers"></path><path d="M135.36735843824445,143.12469482745405A197,197,0,0,1,134.22951869510345,144.19235871182934L116.24617312771782,124.87424567604262A170.6070045455344,170.6070045455344,0,0,0,117.23157125071347,123.94962162947044Z" fill-rule="evenodd" style="fill: #D7A449; stroke: #fff; opacity: 1;" id="p-type-tokenTransfers"></path><path d="M134.22951869510345,144.19235871182934A197,197,0,0,1,133.08325839917012,145.25097704958722L115.25348259209008,125.79103604945301A170.6070045455344,170.6070045455344,0,0,0,116.24617312771782,124.87424567604262Z" fill-rule="evenodd" style="fill: #D7A449; stroke: #fff; opacity: 1;" id="p-type-tokenTransfers"></path><path d="M133.08325839917012,145.25097704958722A197,197,0,0,1,131.92864945821424,146.3004834309567L114.25356191778565,126.69993523715283A170.6070045455344,170.6070045455344,0,0,0,115.25348259209008,125.79103604945301Z" fill-rule="evenodd" style="fill: #D7A449; stroke: #fff; opacity: 1;" id="p-type-tokenTransfers"></path><path d="M131.92864945821424,146.3004834309567A197,197,0,0,1,130.76576430373697,147.34081201778244L113.24647383232455,127.6008862216271A170.6070045455344,170.6070045455344,0,0,0,114.25356191778565,126.69993523715283Z" fill-rule="evenodd" style="fill: #D7A449; stroke: #fff; opacity: 1;" id="p-type-tokenTransfers"></path><path d="M130.76576430373697,147.34081201778244A197,197,0,0,1,129.59467588642713,148.37189754765524L112.2322815128565,128.4938324839715A170.6070045455344,170.6070045455344,0,0,0,113.24647383232455,127.6008862216271Z" fill-rule="evenodd" style="fill: #D7A449; stroke: #fff; opacity: 1;" id="p-type-tokenTransfers"></path><path d="M129.59467588642713,148.37189754765524A197,197,0,0,1,128.41545767158445,149.39367533800586L111.2110485821974,129.37871800743787A170.6070045455344,170.6070045455344,0,0,0,112.2322815128565,128.4938324839715Z" fill-rule="evenodd" style="fill: #D7A449; stroke: #fff; opacity: 1;" id="p-type-tokenTransfers"></path><path d="M128.41545767158445,149.39367533800586A197,197,0,0,1,127.22818363451138,150.40608129016275L110.18283910483842,130.2554872809483A170.6070045455344,170.6070045455344,0,0,0,111.2110485821974,129.37871800743787Z" fill-rule="evenodd" style="fill: #D7A449; stroke: #fff; opacity: 1;" id="p-type-tokenTransfers"></path><path d="M127.22818363451138,150.40608129016275A197,197,0,0,1,126.03292825587212,151.40905189337323L109.14771758292684,131.12408530257758A170.6070045455344,170.6070045455344,0,0,0,110.18283910483842,130.2554872809483Z" fill-rule="evenodd" style="fill: #D7A449; stroke: #fff; opacity: 1;" id="p-type-tokenTransfers"></path><path d="M126.03292825587212,151.40905189337323A197,197,0,0,1,124.82976651702036,152.4025242287876L108.10574895221976,131.98445758300346A170.6070045455344,170.6070045455344,0,0,0,109.14771758292684,131.12408530257758Z" fill-rule="evenodd" style="fill: #D7A449; stroke: #fff; opacity: 1;" id="p-type-tokenTransfers"></path><path d="M-14.582774222352672,196.45951922973822A197,197,0,0,1,-39.28822949840017,193.04257308397294L-34.0246048153277,167.17977230263466A170.6070045455344,170.6070045455344,0,0,0,-12.629052934210275,170.13893446823073Z" fill-rule="evenodd" style="fill: #414552; stroke: #fff; opacity: 1;" id="p-type-ether"></path><path d="M-39.28822949840017,193.04257308397294A197,197,0,0,1,-61.8919978873948,187.02508012966263L-53.6000424614567,161.96847053710806A170.6070045455344,170.6070045455344,0,0,0,-34.0246048153277,167.17977230263466Z" fill-rule="evenodd" style="fill: #414552; stroke: #fff; opacity: 1;" id="p-type-ether"></path><path d="M-61.8919978873948,187.02508012966263A197,197,0,0,1,-72.37851704153314,183.22213368168295L-62.68163444621261,158.67502230392586A170.6070045455344,170.6070045455344,0,0,0,-53.6000424614567,161.96847053710806Z" fill-rule="evenodd" style="fill: #414552; stroke: #fff; opacity: 1;" id="p-type-ether"></path><path d="M-72.37851704153314,183.22213368168295A197,197,0,0,1,-79.68516073011351,180.1645779819551L-69.00937349692444,156.02710139447564A170.6070045455344,170.6070045455344,0,0,0,-62.68163444621261,158.67502230392586Z" fill-rule="evenodd" style="fill: #414552; stroke: #fff; opacity: 1;" id="p-type-ether"></path><path d="M-79.68516073011351,180.1645779819551A197,197,0,0,1,-83.62475882590584,178.370120006993L-72.4211655285814,154.4730552021349A170.6070045455344,170.6070045455344,0,0,0,-69.00937349692444,156.02710139447564Z" fill-rule="evenodd" style="fill: #414552; stroke: #fff; opacity: 1;" id="p-type-ether"></path><path d="M-83.62475882590584,178.370120006993A197,197,0,0,1,-86.66276489945393,176.9140050419468L-75.05215596512546,153.2120226515742A170.6070045455344,170.6070045455344,0,0,0,-72.4211655285814,154.4730552021349Z" fill-rule="evenodd" style="fill: #414552; stroke: #fff; opacity: 1;" id="p-type-ether"></path><path d="M-86.66276489945393,176.9140050419468A197,197,0,0,1,-88.31158378465972,176.09674661800264L-76.48007500595321,152.5042560949817A170.6070045455344,170.6070045455344,0,0,0,-75.05215596512546,153.2120226515742Z" fill-rule="evenodd" style="fill: #414552; stroke: #fff; opacity: 1;" id="p-type-ether"></path><path d="M-88.31158378465972,176.09674661800264A197,197,0,0,1,-89.76561935671079,175.3600113523779L-77.73930674935568,151.86622463908682A170.6070045455344,170.6070045455344,0,0,0,-76.48007500595321,152.5042560949817Z" fill-rule="evenodd" style="fill: #414552; stroke: #fff; opacity: 1;" id="p-type-ether"></path><path d="M-89.76561935671079,175.3600113523779A197,197,0,0,1,-91.15108628090935,174.6438646784084L-78.93915630181472,151.24602342659347A170.6070045455344,170.6070045455344,0,0,0,-77.73930674935568,151.86622463908682Z" fill-rule="evenodd" style="fill: #414552; stroke: #fff; opacity: 1;" id="p-type-ether"></path><path d="M-91.15108628090935,174.6438646784084A197,197,0,0,1,-92.34005917908013,174.0181412117828L-79.96883703604182,150.70413100875166A170.6070045455344,170.6070045455344,0,0,0,-78.93915630181472,151.24602342659347Z" fill-rule="evenodd" style="fill: #414552; stroke: #fff; opacity: 1;" id="p-type-ether"></path><path d="M-92.34005917908013,174.0181412117828A197,197,0,0,1,-93.35789634582501,173.47421476946423L-80.85030987935887,150.23307689191367A170.6070045455344,170.6070045455344,0,0,0,-79.96883703604182,150.70413100875166Z" fill-rule="evenodd" style="fill: #414552; stroke: #fff; opacity: 1;" id="p-type-ether"></path></g></svg>