<svg xmlns="http://www.w3.org/2000/svg" width="400" height="400" id="block-7908231"><g id="burst-container" transform="translate(200,200)"><circle r="197" style="fill: #f9f9f9; stroke: #f9f9f9; stroke-width: 3; opacity: 1;" id="circle-base"></circle><path display="none" d="M6.031385485800715e-15,-98.5A98.5,98.5,0,1,1,-6.031385485800715e-15,98.5A98.5,98.5,0,1,1,6.031385485800715e-15,-98.5Z" fill-rule="evenodd" id="p-type-root" style="stroke: #fff; opacity: 1;"></path><path d="M8.529667153919608e-15,-139.30003589374985A139.30003589374985,139.30003589374985,0,1,1,-118.49855301662866,-73.2297271124592L-83.79113039885175,-51.781236625660284A98.5,98.5,0,1,0,6.031385485800715e-15,-98.5Z" fill-rule="evenodd" style="fill: #0B1F65; stroke: #fff; opacity: 1;" id="p-type-data"></path><path d="M-118.49855301662866,-73.2297271124592A139.30003589374985,139.30003589374985,0,0,1,-3.935712473251688,-139.24442598297387L-2.7829689786367475,-98.46067785498913A98.5,98.5,0,0,0,-83.79113039885175,-51.781236625660284Z" fill-rule="evenodd" style="fill: #D7A449; stroke: #fff; opacity: 1;" id="p-type-value"></path><path d="M1.0446666101440332e-14,-170.6070045455344A170.6070045455344,170.6070045455344,0,0,1,166.87985835420687,35.46636259443374L136.2568337719131,28.958163796298145A139.30003589374985,139.30003589374985,0,0,0,8.529667153919608e-15,-139.30003589374985Z" fill-rule="evenodd" style="fill: #1DC690; stroke: #fff; opacity: 1;" id="p-type-logs"></path><path d="M166.87985835420687,35.46636259443374A170.6070045455344,170.6070045455344,0,0,1,-8.778437149907083,170.38101138684772L-7.167563918788065,139.1155132523691A139.30003589374985,139.30003589374985,0,0,0,136.2568337719131,28.958163796298145Z" fill-rule="evenodd" style="fill: #D7A449; stroke: #fff; opacity: 1;" id="p-type-tokenTransfers"></path><path d="M-8.778437149907083,170.38101138684772A170.6070045455344,170.6070045455344,0,0,1,-133.12418903445857,106.6991110268391L-108.6954451854117,87.11945934144195A139.30003589374985,139.30003589374985,0,0,0,-7.167563918788065,139.1155132523691Z" fill-rule="evenodd" style="fill: #414552; stroke: #fff; opacity: 1;" id="p-type-ether"></path><path d="M-145.13049507444026,-89.68773271439002A170.6070045455344,170.6070045455344,0,0,1,-52.179940080893985,-162.43153589483268L-42.60474266906355,-132.62479369297006A139.30003589374985,139.30003589374985,0,0,0,-118.49855301662866,-73.2297271124592Z" fill-rule="evenodd" style="fill: #D7A449; stroke: #fff; opacity: 1;" id="p-type-tokenTransfers"></path><path d="M-52.179940080893985,-162.43153589483268A170.6070045455344,170.6070045455344,0,0,1,-9.63663875873913,-170.33462711214526L-7.868282598146105,-139.07764065066573A139.30003589374985,139.30003589374985,0,0,0,-42.60474266906355,-132.62479369297006Z" fill-rule="evenodd" style="fill: #414552; stroke: #fff; opacity: 1;" id="p-type-ether"></path><path d="M1.206277097160143e-14,-197A197,197,0,0,1,2.7832467672023693,-196.98033794628554L2.4103624053981654,-170.58997670752711A170.6070045455344,170.6070045455344,0,0,0,1.0446666101440332e-14,-170.6070045455344Z" fill-rule="evenodd" style="fill: #1DC690; stroke: #fff; opacity: 1;" id="p-type-logs"></path><path d="M2.7832467672023693,-196.98033794628554A197,197,0,0,1,5.565937957273427,-196.92135570997826L4.820243666886853,-170.53889659251297A170.6070045455344,170.6070045455344,0,0,0,2.4103624053981654,-170.58997670752711Z" fill-rule="evenodd" style="fill: #1DC690; stroke: #fff; opacity: 1;" id="p-type-logs"></path><path d="M5.565937957273427,-196.92135570997826A197,197,0,0,1,8.347518103983148,-196.82306506480302L7.2291627365999185,-170.45377439683685A170.6070045455344,170.6070045455344,0,0,0,4.820243666886853,-170.53889659251297Z" fill-rule="evenodd" style="fill: #1DC690; stroke: #fff; opacity: 1;" id="p-type-logs"></path><path d="M8.347518103983148,-196.82306506480302A197,197,0,0,1,11.127431962882282,-196.68548563102317L9.636638758738997,-170.33462711214526A170.6070045455344,170.6070045455344,0,0,0,7.2291627365999185,-170.45377439683685Z" fill-rule="evenodd" style="fill: #1DC690; stroke: #fff; opacity: 1;" id="p-type-logs"></path><path d="M11.127431962882282,-196.68548563102317A197,197,0,0,1,13.905124622137214,-196.50864487152424L12.04219116555932,-170.18147852199465A170.6070045455344,170.6070045455344,0,0,0,9.636638758738997,-170.33462711214526Z" fill-rule="evenodd" style="fill: #1DC690; stroke: #fff; opacity: 1;" id="p-type-logs"></path><path d="M13.905124622137214,-196.50864487152424A197,197,0,0,1,16.680041613298428,-196.29257808633173L14.44533977329801,-169.99435919710388A170.6070045455344,170.6070045455344,0,0,0,12.04219116555932,-170.18147852199465Z" fill-rule="evenodd" style="fill: #1DC690; stroke: #fff; opacity: 1;" id="p-type-logs"></path><path d="M16.680041613298428,-196.29257808633173A197,197,0,0,1,19.451629021980857,-196.03732840556472L16.845604878026077,-169.77330648925178A170.6070045455344,170.6070045455344,0,0,0,14.44533977329801,-169.99435919710388Z" fill-rule="evenodd" style="fill: #1DC690; stroke: #fff; opacity: 1;" id="p-type-logs"></path><path d="M19.451629021980857,-196.03732840556472A197,197,0,0,1,22.21933359843324,-195.74294678082666L19.242507351404292,-169.51836452382128A170.6070045455344,170.6070045455344,0,0,0,16.845604878026077,-169.77330648925178Z" fill-rule="evenodd" style="fill: #1DC690; stroke: #fff; opacity: 1;" id="p-type-logs"></path><path d="M22.21933359843324,-195.74294678082666A197,197,0,0,1,24.982602867974798,-195.40949197503446L21.63556873632415,-169.22958419099123A170.6070045455344,170.6070045455344,0,0,0,19.242507351404292,-169.51836452382128Z" fill-rule="evenodd" style="fill: #1DC690; stroke: #fff; opacity: 1;" id="p-type-logs"></path><path d="M24.982602867974798,-195.40949197503446A197,197,0,0,1,27.740885241277603,-195.03703055068866L24.02431134241521,-168.90702313557804A170.6070045455344,170.6070045455344,0,0,0,21.63556873632415,-169.22958419099123Z" fill-rule="evenodd" style="fill: #1DC690; stroke: #fff; opacity: 1;" id="p-type-logs"></path><path d="M27.740885241277603,-195.03703055068866A197,197,0,0,1,30.493630124471814,-194.62563685658657L26.408258341399023,-168.5507457455289A170.6070045455344,170.6070045455344,0,0,0,24.02431134241521,-168.90702313557804Z" fill-rule="evenodd" style="fill: #1DC690; stroke: #fff; opacity: 1;" id="p-type-logs"></path><path d="M30.493630124471814,-194.62563685658657A197,197,0,0,1,33.24028802905221,-194.17539301298106L28.78693386227098,-168.16082313906898A170.6070045455344,170.6070045455344,0,0,0,26.408258341399023,-168.5507457455289Z" fill-rule="evenodd" style="fill: #1DC690; stroke: #fff; opacity: 1;" id="p-type-logs"></path><path d="M33.24028802905221,-194.17539301298106A197,197,0,0,1,35.98031068156447,-193.68638889518823L31.15986308629142,-167.7373331505052A170.6070045455344,170.6070045455344,0,0,0,28.78693386227098,-168.16082313906898Z" fill-rule="evenodd" style="fill: #1DC690; stroke: #fff; opacity: 1;" id="p-type-logs"></path><path d="M35.98031068156447,-193.68638889518823A197,197,0,0,1,38.713151133048505,-193.15872211564704L33.52657234176633,-167.2803603146894A170.6070045455344,170.6070045455344,0,0,0,31.15986308629142,-167.7373331505052Z" fill-rule="evenodd" style="fill: #1DC690; stroke: #fff; opacity: 1;" id="p-type-logs"></path><path d="M38.713151133048505,-193.15872211564704A197,197,0,0,1,41.43826386821744,-192.5924980044342L35.88658919859912,-166.7899958501438A170.6070045455344,170.6070045455344,0,0,0,33.52657234176633,-167.2803603146894Z" fill-rule="evenodd" style="fill: #1DC690; stroke: #fff; opacity: 1;" id="p-type-logs"></path><path d="M41.43826386821744,-192.5924980044342A197,197,0,0,1,44.155104914350765,-191.98782958823895L38.23944256259487,-166.2663376408526A170.6070045455344,170.6070045455344,0,0,0,35.88658919859912,-166.7899958501438Z" fill-rule="evenodd" style="fill: #1DC690; stroke: #fff; opacity: 1;" id="p-type-logs"></path><path d="M44.155104914350765,-191.98782958823895A197,197,0,0,1,46.86313194987903,-191.34483756780122L40.58466276949742,-165.70949021672286A170.6070045455344,170.6070045455344,0,0,0,38.23944256259487,-166.2663376408526Z" fill-rule="evenodd" style="fill: #1DC690; stroke: #fff; opacity: 1;" id="p-type-logs"></path><path d="M46.86313194987903,-191.34483756780122A197,197,0,0,1,49.561804412639525,-190.66365029381785L42.92178167874152,-165.1195647327186A170.6070045455344,170.6070045455344,0,0,0,40.58466276949742,-165.70949021672286Z" fill-rule="evenodd" style="fill: #1DC690; stroke: #fff; opacity: 1;" id="p-type-logs"></path><path d="M49.561804412639525,-190.66365029381785A197,197,0,0,1,52.25058360778029,-189.94440374132208L45.25033276690049,-164.4966789466729A170.6070045455344,170.6070045455344,0,0,0,42.92178167874152,-165.1195647327186Z" fill-rule="evenodd" style="fill: #1DC690; stroke: #fff; opacity: 1;" id="p-type-logs"></path><path d="M52.25058360778029,-189.94440374132208A197,197,0,0,1,54.92893281529148,-189.18724148254077L47.5698512208111,-163.84095719578147A170.6070045455344,170.6070045455344,0,0,0,45.25033276690049,-164.4966789466729Z" fill-rule="evenodd" style="fill: #1DC690; stroke: #fff; opacity: 1;" id="p-type-logs"></path><path d="M54.92893281529148,-189.18724148254077A197,197,0,0,1,57.596317397142855,-188.3923146582354L49.87987403035733,-163.1525303717833A170.6070045455344,170.6070045455344,0,0,0,47.5698512208111,-163.84095719578147Z" fill-rule="evenodd" style="fill: #1DC690; stroke: #fff; opacity: 1;" id="p-type-logs"></path><path d="M57.596317397142855,-188.3923146582354A197,197,0,0,1,60.25220490400522,-187.55978194753206L52.17994008089385,-162.4315358948327A170.6070045455344,170.6070045455344,0,0,0,49.87987403035733,-163.1525303717833Z" fill-rule="evenodd" style="fill: #1DC690; stroke: #fff; opacity: 1;" id="p-type-logs"></path><path d="M60.25220490400522,-187.55978194753206A197,197,0,0,1,62.89606518153522,-186.6898095362467L54.469590245291414,-161.678117686068A170.6070045455344,170.6070045455344,0,0,0,52.17994008089385,-162.4315358948327Z" fill-rule="evenodd" style="fill: #1DC690; stroke: #fff; opacity: 1;" id="p-type-logs"></path><path d="M62.89606518153522,-186.6898095362467A197,197,0,0,1,65.52737047620204,-185.78257108371218L56.748367475585376,-160.89242613888302A170.6070045455344,170.6070045455344,0,0,0,54.469590245291414,-161.678117686068Z" fill-rule="evenodd" style="fill: #1DC690; stroke: #fff; opacity: 1;" id="p-type-logs"></path><path d="M65.52737047620204,-185.78257108371218A197,197,0,0,1,68.1455955406346,-184.83824768811309L59.01581689420912,-160.07461808890622A170.6070045455344,170.6070045455344,0,0,0,56.748367475585376,-160.89242613888302Z" fill-rule="evenodd" style="fill: #1DC690; stroke: #fff; opacity: 1;" id="p-type-logs"></path><path d="M68.1455955406346,-184.83824768811309A197,197,0,0,1,70.75021773846893,-183.857027850336L61.271485884794515,-159.22485678269402A170.6070045455344,170.6070045455344,0,0,0,59.01581689420912,-160.07461808890622Z" fill-rule="evenodd" style="fill: #1DC690; stroke: #fff; opacity: 1;" id="p-type-logs"></path><path d="M70.75021773846893,-183.857027850336A197,197,0,0,1,73.34071714867405,-182.83910743634195L63.514924182520744,-158.34331184514437A170.6070045455344,170.6070045455344,0,0,0,61.271485884794515,-159.22485678269402Z" fill-rule="evenodd" style="fill: #1DC690; stroke: #fff; opacity: 1;" id="p-type-logs"></path><path d="M73.34071714867405,-182.83910743634195A197,197,0,0,1,75.91657666933561,-181.7846896380685L65.74568396399367,-157.43015924563713A170.6070045455344,170.6070045455344,0,0,0,63.514924182520744,-158.34331184514437Z" fill-rule="evenodd" style="fill: #1DC690; stroke: #fff; opacity: 1;" id="p-type-logs"></path><path d="M75.91657666933561,-181.7846896380685A197,197,0,0,1,78.47728212087748,-180.69398493286988L67.96331993663821,-156.48558126290789A170.6070045455344,170.6070045455344,0,0,0,65.74568396399367,-157.43015924563713Z" fill-rule="evenodd" style="fill: #1DC690; stroke: #fff; opacity: 1;" id="p-type-logs"></path><path d="M78.47728212087748,-180.69398493286988A197,197,0,0,1,81.02232234869928,-179.56721104150242L70.16738942758523,-155.50976644866265A170.6070045455344,170.6070045455344,0,0,0,67.96331993663821,-156.48558126290789Z" fill-rule="evenodd" style="fill: #1DC690; stroke: #fff; opacity: 1;" id="p-type-logs"></path><path d="M81.02232234869928,-179.56721104150242A197,197,0,0,1,83.55118932521052,-178.40459288466434L72.35745247203552,-154.50290958993983A170.6070045455344,170.6070045455344,0,0,0,70.16738942758523,-155.50976644866265Z" fill-rule="evenodd" style="fill: #1DC690; stroke: #fff; opacity: 1;" id="p-type-logs"></path><path d="M83.55118932521052,-178.40459288466434A197,197,0,0,1,86.06337825124038,-177.2063625380983L74.53307190108332,-153.46521167022817A170.6070045455344,170.6070045455344,0,0,0,72.35745247203552,-154.50290958993983Z" fill-rule="evenodd" style="fill: #1DC690; stroke: #fff; opacity: 1;" id="p-type-logs"></path><path d="M86.06337825124038,-177.2063625380983A197,197,0,0,1,88.55838765680295,-175.97275918626556L76.69381342898163,-152.3968798293474A170.6070045455344,170.6070045455344,0,0,0,74.53307190108332,-153.46521167022817Z" fill-rule="evenodd" style="fill: #1DC690; stroke: #fff; opacity: 1;" id="p-type-logs"></path><path d="M88.55838765680295,-175.97275918626556A197,197,0,0,1,91.03571950119827,-174.70402907460135L78.83924573983212,-151.29812732209993A170.6070045455344,170.6070045455344,0,0,0,76.69381342898163,-152.3968798293474Z" fill-rule="evenodd" style="fill: #1DC690; stroke: #fff; opacity: 1;" id="p-type-logs"></path><path d="M91.03571950119827,-174.70402907460135A197,197,0,0,1,93.49487927242848,-173.40042546036045L80.96894057368222,-150.1691734757021A170.6070045455344,170.6070045455344,0,0,0,78.83924573983212,-151.29812732209993Z" fill-rule="evenodd" style="fill: #1DC690; stroke: #fff; opacity: 1;" id="p-type-logs"></path><path d="M93.49487927242848,-173.40042546036045A197,197,0,0,1,95.93537608590961,-172.06220856206363L83.08247281201184,-149.01024364600346A170.6070045455344,170.6070045455344,0,0,0,80.96894057368222,-150.1691734757021Z" fill-rule="evenodd" style="fill: #1DC690; stroke: #fff; opacity: 1;" id="p-type-logs"></path><path d="M95.93537608590961,-172.06220856206363A197,197,0,0,1,98.35672278245957,-170.68964550755385L85.17942056259363,-147.82156917250202A170.6070045455344,170.6070045455344,0,0,0,83.08247281201184,-149.01024364600346Z" fill-rule="evenodd" style="fill: #1DC690; stroke: #fff; opacity: 1;" id="p-type-logs"></path><path d="M98.35672278245957,-170.68964550755385A197,197,0,0,1,100.75843602554228,-169.28301028067378L87.25936524370879,-146.6033873321658A170.6070045455344,170.6070045455344,0,0,0,85.17942056259363,-147.82156917250202Z" fill-rule="evenodd" style="fill: #1DC690; stroke: #fff; opacity: 1;" id="p-type-logs"></path><path d="M100.75843602554228,-169.28301028067378A197,197,0,0,1,103.14003639774866,-167.84258366657457L89.32189166770198,-145.35594129206865A170.6070045455344,170.6070045455344,0,0,0,87.25936524370879,-146.6033873321658Z" fill-rule="evenodd" style="fill: #1DC690; stroke: #fff; opacity: 1;" id="p-type-logs"></path><path d="M103.14003639774866,-167.84258366657457A197,197,0,0,1,105.50104849649546,-166.36865319566698L91.36658812385912,-144.07948006085073A170.6070045455344,170.6070045455344,0,0,0,89.32189166770198,-145.35594129206865Z" fill-rule="evenodd" style="fill: #1DC690; stroke: #fff; opacity: 1;" id="p-type-logs"></path><path d="M105.50104849649546,-166.36865319566698A197,197,0,0,1,107.8410010289228,-164.861513086226L93.39304646059094,-142.7742584390124A170.6070045455344,170.6070045455344,0,0,0,91.36658812385912,-144.07948006085073Z" fill-rule="evenodd" style="fill: #1DC690; stroke: #fff; opacity: 1;" id="p-type-logs"></path><path d="M107.8410010289228,-164.861513086226A197,197,0,0,1,110.15942690597092,-163.32146418566072L95.40086216690581,-141.44053696805256A170.6070045455344,170.6070045455344,0,0,0,93.39304646059094,-142.7742584390124Z" fill-rule="evenodd" style="fill: #1DC690; stroke: #fff; opacity: 1;" id="p-type-logs"></path><path d="M110.15942690597092,-163.32146418566072A197,197,0,0,1,112.4558633356182,-161.74881391046043L97.3896344531564,-140.0785818784605A170.6070045455344,170.6070045455344,0,0,0,95.40086216690581,-141.44053696805256Z" fill-rule="evenodd" style="fill: #1DC690; stroke: #fff; opacity: 1;" id="p-type-logs"></path><path d="M112.4558633356182,-161.74881391046043A197,197,0,0,1,114.72985191526134,-160.14387618483013L99.35896633104305,-138.68866503657264A170.6070045455344,170.6070045455344,0,0,0,97.3896344531564,-140.0785818784605Z" fill-rule="evenodd" style="fill: #1DC690; stroke: #fff; opacity: 1;" id="p-type-logs"></path><path d="M114.72985191526134,-160.14387618483013A197,197,0,0,1,116.98093872321911,-158.50697137802635L101.3084646928585,-137.2710638903037A170.6070045455344,170.6070045455344,0,0,0,99.35896633104305,-138.68866503657264Z" fill-rule="evenodd" style="fill: #1DC690; stroke: #fff; opacity: 1;" id="p-type-logs"></path><path d="M116.98093872321911,-158.50697137802635A197,197,0,0,1,119.20867440934187,-156.8384262404068L103.23774038995796,-135.82606141376417A170.6070045455344,170.6070045455344,0,0,0,101.3084646928585,-137.2710638903037Z" fill-rule="evenodd" style="fill: #1DC690; stroke: #fff; opacity: 1;" id="p-type-logs"></path><path d="M119.20867440934187,-156.8384262404068A197,197,0,0,1,121.41261428470865,-155.1385738382062L105.14640831043911,-134.35394605077448A170.6070045455344,170.6070045455344,0,0,0,103.23774038995796,-135.82606141376417Z" fill-rule="evenodd" style="fill: #1DC690; stroke: #fff; opacity: 1;" id="p-type-logs"></path><path d="M121.41261428470865,-155.1385738382062A197,197,0,0,1,123.5923184103934,-153.4077534870514L107.03408745601585,-132.85501165728732A170.6070045455344,170.6070045455344,0,0,0,105.14640831043911,-134.35394605077448Z" fill-rule="evenodd" style="fill: #1DC690; stroke: #fff; opacity: 1;" id="p-type-logs"></path><path d="M123.5923184103934,-153.4077534870514A197,197,0,0,1,125.74735168528342,-151.6463106842288L108.90040101807139,-131.32955744272968A170.6070045455344,170.6070045455344,0,0,0,107.03408745601585,-132.85501165728732Z" fill-rule="evenodd" style="fill: #1DC690; stroke: #fff; opacity: 1;" id="p-type-logs"></path><path d="M125.74735168528342,-151.6463106842288A197,197,0,0,1,127.87728393293196,-149.85459703971816L110.74497645287471,-129.77788791027623A170.6070045455344,170.6070045455344,0,0,0,108.90040101807139,-131.32955744272968Z" fill-rule="evenodd" style="fill: #1DC690; stroke: #fff; opacity: 1;" id="p-type-logs"></path><path d="M127.87728393293196,-149.85459703971816A197,197,0,0,1,129.9816899874277,-148.03297020600593L112.5674455559458,-128.20031279606607A170.6070045455344,170.6070045455344,0,0,0,110.74497645287471,-129.77788791027623Z" fill-rule="evenodd" style="fill: #1DC690; stroke: #fff; opacity: 1;" id="p-type-logs"></path><path d="M129.9816899874277,-148.03297020600593A197,197,0,0,1,132.06014977826425,-146.18179380669267L114.36744453555474,-126.59714700737457A170.6070045455344,170.6070045455344,0,0,0,112.5674455559458,-128.20031279606607Z" fill-rule="evenodd" style="fill: #1DC690; stroke: #fff; opacity: 1;" id="p-type-logs"></path><path d="M132.06014977826425,-146.18179380669267A197,197,0,0,1,134.11224841419238,-144.3014373639083L116.1446140853399,-124.96871055975356A170.6070045455344,170.6070045455344,0,0,0,114.36744453555474,-126.59714700737457Z" fill-rule="evenodd" style="fill: #1DC690; stroke: #fff; opacity: 1;" id="p-type-logs"></path><path d="M134.11224841419238,-144.3014373639083A197,197,0,0,1,136.13757626603842,-142.3922762245501L117.89859945603072,-123.31532851315133A170.6070045455344,170.6070045455344,0,0,0,116.1446140853399,-124.96871055975356Z" fill-rule="evenodd" style="fill: #1DC690; stroke: #fff; opacity: 1;" id="p-type-logs"></path><path d="M136.13757626603842,-142.3922762245501A197,197,0,0,1,138.13572904847226,-140.45469148535787L119.629050526261,-121.6373309070258A170.6070045455344,170.6070045455344,0,0,0,117.89859945603072,-123.31532851315133Z" fill-rule="evenodd" style="fill: #1DC690; stroke: #fff; opacity: 1;" id="p-type-logs"></path><path d="M138.13572904847226,-140.45469148535787A197,197,0,0,1,140.10630790070877,-138.48906991684143L121.3356218724582,-119.93505269446393A170.6070045455344,170.6070045455344,0,0,0,119.629050526261,-121.6373309070258Z" fill-rule="evenodd" style="fill: #1DC690; stroke: #fff; opacity: 1;" id="p-type-logs"></path><path d="M140.10630790070877,-138.48906991684143A197,197,0,0,1,142.0489194661262,-136.49580388607555L123.01797283779516,-118.20883367532011A170.6070045455344,170.6070045455344,0,0,0,121.3356218724582,-119.93505269446393Z" fill-rule="evenodd" style="fill: #1DC690; stroke: #fff; opacity: 1;" id="p-type-logs"></path><path d="M142.0489194661262,-136.49580388607555A197,197,0,0,1,143.96317597078604,-134.4752912783776L124.67576760019016,-116.45901842838695A170.6070045455344,170.6070045455344,0,0,0,123.01797283779516,-118.20883367532011Z" fill-rule="evenodd" style="fill: #1DC690; stroke: #fff; opacity: 1;" id="p-type-logs"></path><path d="M143.96317597078604,-134.4752912783776A197,197,0,0,1,145.8486953008383,-132.4279354178839L126.30867523934205,-114.68595624261246A170.6070045455344,170.6070045455344,0,0,0,124.67576760019016,-116.45901842838695Z" fill-rule="evenodd" style="fill: #1DC690; stroke: #fff; opacity: 1;" id="p-type-logs"></path><path d="M145.8486953008383,-132.4279354178839A197,197,0,0,1,147.7051010787973,-130.35414498704012L127.91636980278675,-112.89000104737666A170.6070045455344,170.6070045455344,0,0,0,126.30867523934205,-114.68595624261246Z" fill-rule="evenodd" style="fill: #1DC690; stroke: #fff; opacity: 1;" id="p-type-logs"></path><path d="M147.7051010787973,-130.35414498704012A197,197,0,0,1,149.5320227386719,-128.25433394502232L129.49853037096221,-111.0715113418422A170.6070045455344,170.6070045455344,0,0,0,127.91636980278675,-112.89000104737666Z" fill-rule="evenodd" style="fill: #1DC690; stroke: #fff; opacity: 1;" id="p-type-logs"></path><path d="M149.5320227386719,-128.25433394502232A197,197,0,0,1,151.32909559993615,-126.12892144510465L131.05484112126862,-109.2308501233925A170.6070045455344,170.6070045455344,0,0,0,129.49853037096221,-111.0715113418422Z" fill-rule="evenodd" style="fill: #1DC690; stroke: #fff; opacity: 1;" id="p-type-logs"></path><path d="M151.32909559993615,-126.12892144510465A197,197,0,0,1,153.0959609403248,-123.97833175099004L132.58499139111143,-107.36838481517223A170.6070045455344,170.6070045455344,0,0,0,131.05484112126862,-109.2308501233925Z" fill-rule="evenodd" style="fill: #1DC690; stroke: #fff; opacity: 1;" id="p-type-logs"></path><path d="M192.69626228625592,40.953027982146395A197,197,0,0,1,192.09843900200158,43.671383456381136L166.36212820306878,37.82052749163753A170.6070045455344,170.6070045455344,0,0,0,166.87985835420687,35.46636259443374Z" fill-rule="evenodd" style="fill: #D7A449; stroke: #fff; opacity: 1;" id="p-type-tokenTransfers"></path><path d="M192.09843900200158,43.671383456381136A197,197,0,0,1,191.4622700342333,46.38102147795289L165.8111897158821,40.16714285337887A170.6070045455344,170.6070045455344,0,0,0,166.36212820306878,37.82052749163753Z" fill-rule="evenodd" style="fill: #D7A449; stroke: #fff; opacity: 1;" id="p-type-tokenTransfers"></path><path d="M191.4622700342333,46.38102147795289A197,197,0,0,1,190.78788237166597,49.0814011631223L165.2271528681,42.505740260599005A170.6070045455344,170.6070045455344,0,0,0,165.8111897158821,40.16714285337887Z" fill-rule="evenodd" style="fill: #D7A449; stroke: #fff; opacity: 1;" id="p-type-tokenTransfers"></path><path d="M190.78788237166597,49.0814011631223A197,197,0,0,1,190.07541063203004,51.77198347625058L164.6101342420968,44.835852894741194A170.6070045455344,170.6070045455344,0,0,0,165.2271528681,42.505740260599005Z" fill-rule="evenodd" style="fill: #D7A449; stroke: #fff; opacity: 1;" id="p-type-tokenTransfers"></path><path d="M190.07541063203004,51.77198347625058A197,197,0,0,1,189.32499703519971,54.45223133739903L163.96025700389646,47.15701563093466A170.6070045455344,170.6070045455344,0,0,0,164.6101342420968,44.835852894741194Z" fill-rule="evenodd" style="fill: #D7A449; stroke: #fff; opacity: 1;" id="p-type-tokenTransfers"></path><path d="M189.32499703519971,54.45223133739903A197,197,0,0,1,188.53679137480395,57.12160972953806L163.27765087858705,49.46876513084032A170.6070045455344,170.6070045455344,0,0,0,163.96025700389646,47.15701563093466Z" fill-rule="evenodd" style="fill: #D7A449; stroke: #fff; opacity: 1;" id="p-type-tokenTransfers"></path><path d="M188.53679137480395,57.12160972953806A197,197,0,0,1,187.71095098832527,59.7795858053445L162.56245212442536,51.77063993513997A170.6070045455344,170.6070045455344,0,0,0,163.27765087858705,49.46876513084032Z" fill-rule="evenodd" style="fill: #D7A449; stroke: #fff; opacity: 1;" id="p-type-tokenTransfers"></path><path d="M187.71095098832527,59.7795858053445A197,197,0,0,1,186.84764072569305,62.42562899356584L161.81480350563805,54.062180555650414A170.6070045455344,170.6070045455344,0,0,0,162.56245212442536,51.77063993513997Z" fill-rule="evenodd" style="fill: #D7A449; stroke: #fff; opacity: 1;" id="p-type-tokenTransfers"></path><path d="M186.84764072569305,62.42562899356584A197,197,0,0,1,185.9470329163769,65.05921110493001L161.03485426392362,56.342929567044045A170.6070045455344,170.6070045455344,0,0,0,161.81480350563805,54.062180555650414Z" fill-rule="evenodd" style="fill: #D7A449; stroke: #fff; opacity: 1;" id="p-type-tokenTransfers"></path><path d="M185.9470329163769,65.05921110493001A197,197,0,0,1,185.00930733498714,67.67980643757981L160.22276008866154,58.6124316981577A170.6070045455344,170.6070045455344,0,0,0,161.03485426392362,56.342929567044045Z" fill-rule="evenodd" style="fill: #D7A449; stroke: #fff; opacity: 1;" id="p-type-tokenTransfers"></path><path d="M185.00930733498714,67.67980643757981A197,197,0,0,1,184.03465116538933,70.28689188201072L159.3786830858346,60.87023392287151A170.6070045455344,170.6070045455344,0,0,0,160.22276008866154,58.6124316981577Z" fill-rule="evenodd" style="fill: #D7A449; stroke: #fff; opacity: 1;" id="p-type-tokenTransfers"></path><path d="M184.03465116538933,70.28689188201072A197,197,0,0,1,183.02325896333934,72.87994702549132L158.50279174566984,63.115885550539616A170.6070045455344,170.6070045455344,0,0,0,159.3786830858346,60.87023392287151Z" fill-rule="evenodd" style="fill: #D7A449; stroke: #fff; opacity: 1;" id="p-type-tokenTransfers"></path><path d="M183.02325896333934,72.87994702549132A197,197,0,0,1,181.9753326176474,75.45845425594528L157.59526090900565,65.3489383159546A170.6070045455344,170.6070045455344,0,0,0,158.50279174566984,63.115885550539616Z" fill-rule="evenodd" style="fill: #D7A449; stroke: #fff; opacity: 1;" id="p-type-tokenTransfers"></path><path d="M181.9753326176474,75.45845425594528A197,197,0,0,1,180.89108130987796,78.02189886527448L156.6562717323908,67.56894646882796A170.6070045455344,170.6070045455344,0,0,0,157.59526090900565,65.3489383159546Z" fill-rule="evenodd" style="fill: #D7A449; stroke: #fff; opacity: 1;" id="p-type-tokenTransfers"></path><path d="M180.89108130987796,78.02189886527448A197,197,0,0,1,179.77072147259398,80.56976915210221L155.68601165192305,69.77546686276833A170.6070045455344,170.6070045455344,0,0,0,156.6562717323908,67.56894646882796Z" fill-rule="evenodd" style="fill: #D7A449; stroke: #fff; opacity: 1;" id="p-type-tokenTransfers"></path><path d="M179.77072147259398,80.56976915210221A197,197,0,0,1,178.61447674615383,83.10155652391643L154.68467434583408,71.96805904374007A170.6070045455344,170.6070045455344,0,0,0,155.68601165192305,69.77546686276833Z" fill-rule="evenodd" style="fill: #D7A449; stroke: #fff; opacity: 1;" id="p-type-tokenTransfers"></path><path d="M178.61447674615383,83.10155652391643A197,197,0,0,1,177.42257793406932,85.61675559859232L153.6524596958284,74.14628533798451A170.6070045455344,170.6070045455344,0,0,0,154.68467434583408,71.96805904374007Z" fill-rule="evenodd" style="fill: #D7A449; stroke: #fff; opacity: 1;" id="p-type-tokenTransfers"></path><path d="M177.42257793406932,85.61675559859232A197,197,0,0,1,176.1952629569341,88.11486430527393L152.5895737471842,76.30971093938588A170.6070045455344,170.6070045455344,0,0,0,153.6524596958284,74.14628533798451Z" fill-rule="evenodd" style="fill: #D7A449; stroke: #fff; opacity: 1;" id="p-type-tokenTransfers"></path><path d="M176.1952629569341,88.11486430527393A197,197,0,0,1,174.93277680493097,90.595383984595L151.4962286676234,78.45790399626516A170.6070045455344,170.6070045455344,0,0,0,152.5895737471842,76.30971093938588Z" fill-rule="evenodd" style="fill: #D7A449; stroke: #fff; opacity: 1;" id="p-type-tokenTransfers"></path><path d="M174.93277680493097,90.595383984595A197,197,0,0,1,173.63537148892817,93.05781948821874L150.37264270496004,80.59043569758404A170.6070045455344,170.6070045455344,0,0,0,151.4962286676234,78.45790399626516Z" fill-rule="evenodd" style="fill: #D7A449; stroke: #fff; opacity: 1;" id="p-type-tokenTransfers"></path><path d="M173.63537148892817,93.05781948821874A197,197,0,0,1,172.30330599017472,95.50167927767671L149.21904014353473,82.70688035854192A170.6070045455344,170.6070045455344,0,0,0,150.37264270496004,80.59043569758404Z" fill-rule="evenodd" style="fill: #D7A449; stroke: #fff; opacity: 1;" id="p-type-tokenTransfers"></path><path d="M172.30330599017472,95.50167927767671A197,197,0,0,1,170.93684620860336,97.92647552248717L148.03565125944422,84.8068155055489A170.6070045455344,170.6070045455344,0,0,0,149.21904014353473,82.70688035854192Z" fill-rule="evenodd" style="fill: #D7A449; stroke: #fff; opacity: 1;" id="p-type-tokenTransfers"></path><path d="M170.93684620860336,97.92647552248717A197,197,0,0,1,169.5362649097535,100.33172419753323L146.82271227457483,86.88982196055765A170.6070045455344,170.6070045455344,0,0,0,148.03565125944422,84.8068155055489Z" fill-rule="evenodd" style="fill: #D7A449; stroke: #fff; opacity: 1;" id="p-type-tokenTransfers"></path><path d="M169.5362649097535,100.33172419753323A197,197,0,0,1,168.1018416703229,102.71694517968149L145.58046530944915,88.9554839247377A170.6070045455344,170.6070045455344,0,0,0,146.82271227457483,86.88982196055765Z" fill-rule="evenodd" style="fill: #D7A449; stroke: #fff; opacity: 1;" id="p-type-tokenTransfers"></path><path d="M168.1018416703229,102.71694517968149A197,197,0,0,1,166.63386282236007,105.08166234362153L144.30915833489513,91.00338906147488A170.6070045455344,170.6070045455344,0,0,0,145.58046530944915,88.9554839247377Z" fill-rule="evenodd" style="fill: #D7A449; stroke: #fff; opacity: 1;" id="p-type-tokenTransfers"></path><path d="M166.63386282236007,105.08166234362153A197,197,0,0,1,165.13262139610828,107.42540365690772L143.0090451225475,93.03312857867981A170.6070045455344,170.6070045455344,0,0,0,144.30915833489513,91.00338906147488Z" fill-rule="evenodd" style="fill: #D7A449; stroke: #fff; opacity: 1;" id="p-type-tokenTransfers"></path><path d="M165.13262139610828,107.42540365690772A197,197,0,0,1,163.59841706151235,109.74770127418373L141.68038519419122,95.04429731038891A170.6070045455344,170.6070045455344,0,0,0,143.0090451225475,93.03312857867981Z" fill-rule="evenodd" style="fill: #D7A449; stroke: #fff; opacity: 1;" id="p-type-tokenTransfers"></path><path d="M163.59841706151235,109.74770127418373A197,197,0,0,1,162.0315560684,112.0480916305715L140.323443769957,97.03649379764147A170.6070045455344,170.6070045455344,0,0,0,141.68038519419122,95.04429731038891Z" fill-rule="evenodd" style="fill: #D7A449; stroke: #fff; opacity: 1;" id="p-type-tokenTransfers"></path><path d="M162.0315560684,112.0480916305715A197,197,0,0,1,160.43235118535003,114.32611553420556L138.93849171537963,99.00932036861674A170.6070045455344,170.6070045455344,0,0,0,140.323443769957,97.03649379764147Z" fill-rule="evenodd" style="fill: #D7A449; stroke: #fff; opacity: 1;" id="p-type-tokenTransfers"></path><path d="M160.43235118535003,114.32611553420556A197,197,0,0,1,158.80112163725903,116.58131825789441L137.525805487329,100.96238321801515A170.6070045455344,170.6070045455344,0,0,0,138.93849171537963,99.00932036861674Z" fill-rule="evenodd" style="fill: #D7A449; stroke: #fff; opacity: 1;" id="p-type-tokenTransfers"></path><path d="M158.80112163725903,116.58131825789441A197,197,0,0,1,157.1381930416193,118.81324962989099L136.0856670788254,102.89529248566764A170.6070045455344,170.6070045455344,0,0,0,137.525805487329,100.96238321801515Z" fill-rule="evenodd" style="fill: #D7A449; stroke: #fff; opacity: 1;" id="p-type-tokenTransfers"></path><path d="M157.1381930416193,118.81324962989099A197,197,0,0,1,155.4438973435209,121.02146412375343L134.6183639627495,104.80766233435752A170.6070045455344,170.6070045455344,0,0,0,136.0856670788254,102.89529248566764Z" fill-rule="evenodd" style="fill: #D7A449; stroke: #fff; opacity: 1;" id="p-type-tokenTransfers"></path><path d="M155.4438973435209,121.02146412375343A197,197,0,0,1,153.7185727493905,123.20552094727879L133.1241890344585,106.69911102683922A170.6070045455344,170.6070045455344,0,0,0,134.6183639627495,104.80766233435752Z" fill-rule="evenodd" style="fill: #D7A449; stroke: #fff; opacity: 1;" id="p-type-tokenTransfers"></path><path d="M153.7185727493905,123.20552094727879A197,197,0,0,1,151.96256365948028,125.36498413049158L131.60344055331987,108.56926100203871A170.6070045455344,170.6070045455344,0,0,0,133.1241890344585,106.69911102683922Z" fill-rule="evenodd" style="fill: #D7A449; stroke: #fff; opacity: 1;" id="p-type-tokenTransfers"></path><path d="M151.96256365948028,125.36498413049158A197,197,0,0,1,150.1762205991207,127.49942261267L130.05642208317445,110.41773895042033A170.6070045455344,170.6070045455344,0,0,0,131.60344055331987,108.56926100203871Z" fill-rule="evenodd" style="fill: #D7A449; stroke: #fff; opacity: 1;" id="p-type-tokenTransfers"></path><path d="M150.1762205991207,127.49942261267A197,197,0,0,1,148.35990014875046,129.60841032839187L128.48344243174063,112.24417588850477A170.6070045455344,170.6070045455344,0,0,0,130.05642208317445,110.41773895042033Z" fill-rule="evenodd" style="fill: #D7A449; stroke: #fff; opacity: 1;" id="p-type-tokenTransfers"></path><path d="M148.35990014875046,129.60841032839187A197,197,0,0,1,146.51396487273757,131.69152629258355L126.88481558897162,114.04820723252368A170.6070045455344,170.6070045455344,0,0,0,128.48344243174063,112.24417588850477Z" fill-rule="evenodd" style="fill: #D7A449; stroke: #fff; opacity: 1;" id="p-type-tokenTransfers"></path><path d="M146.51396487273757,131.69152629258355A197,197,0,0,1,144.63878324700647,133.74835468455484L125.26086066437867,115.82947287119592A170.6070045455344,170.6070045455344,0,0,0,126.88481558897162,114.04820723252368Z" fill-rule="evenodd" style="fill: #D7A449; stroke: #fff; opacity: 1;" id="p-type-tokenTransfers"></path><path d="M144.63878324700647,133.74835468455484A197,197,0,0,1,142.7347295854845,135.77848493100302L123.61190182333188,117.5876172376112A170.6070045455344,170.6070045455344,0,0,0,125.26086066437867,115.82947287119592Z" fill-rule="evenodd" style="fill: #D7A449; stroke: #fff; opacity: 1;" id="p-type-tokenTransfers"></path><path d="M142.7347295854845,135.77848493100302A197,197,0,0,1,140.80218396538356,137.78151178796912L121.93826822235212,119.32228938020636A170.6070045455344,170.6070045455344,0,0,0,123.61190182333188,117.5876172376112Z" fill-rule="evenodd" style="fill: #D7A449; stroke: #fff; opacity: 1;" id="p-type-tokenTransfers"></path><path d="M140.80218396538356,137.78151178796912A197,197,0,0,1,138.84153215133097,139.75703542173085L120.24029394340653,121.03314303282056A170.6070045455344,170.6070045455344,0,0,0,121.93826822235212,119.32228938020636Z" fill-rule="evenodd" style="fill: #D7A449; stroke: #fff; opacity: 1;" id="p-type-tokenTransfers"></path><path d="M138.84153215133097,139.75703542173085A197,197,0,0,1,136.85316551836505,141.70466148861502L118.5183179272207,122.71983668381502A170.6070045455344,170.6070045455344,0,0,0,120.24029394340653,121.03314303282056Z" fill-rule="evenodd" style="fill: #D7A449; stroke: #fff; opacity: 1;" id="p-type-tokenTransfers"></path><path d="M136.85316551836505,141.70466148861502A197,197,0,0,1,134.83748097381118,143.62400121371465L116.77268390562138,124.38203364424393A170.6070045455344,170.6070045455344,0,0,0,118.5183179272207,122.71983668381502Z" fill-rule="evenodd" style="fill: #D7A449; stroke: #fff; opacity: 1;" id="p-type-tokenTransfers"></path><path d="M134.83748097381118,143.62400121371465A197,197,0,0,1,132.79488087805294,145.51467146849396L115.00374033292222,126.0194021150624A170.6070045455344,170.6070045455344,0,0,0,116.77268390562138,124.38203364424393Z" fill-rule="evenodd" style="fill: #D7A449; stroke: #fff; opacity: 1;" id="p-type-tokenTransfers"></path><path d="M132.79488087805294,145.51467146849396A197,197,0,0,1,130.7257729642152,147.37629484726662L113.21184031636732,127.63161525335855A170.6070045455344,170.6070045455344,0,0,0,115.00374033292222,126.0194021150624Z" fill-rule="evenodd" style="fill: #D7A449; stroke: #fff; opacity: 1;" id="p-type-tokenTransfers"></path><path d="M130.7257729642152,147.37629484726662A197,197,0,0,1,128.63057025677452,149.2084997425314L111.39734154564576,129.21835123759607A170.6070045455344,170.6070045455344,0,0,0,113.21184031636732,127.63161525335855Z" fill-rule="evenodd" style="fill: #D7A449; stroke: #fff; opacity: 1;" id="p-type-tokenTransfers"></path><path d="M128.63057025677452,149.2084997425314A197,197,0,0,1,126.50969098911347,151.01092041915058L109.56060622149154,130.7792933318546A170.6070045455344,170.6070045455344,0,0,0,111.39734154564576,129.21835123759607Z" fill-rule="evenodd" style="fill: #D7A449; stroke: #fff; opacity: 1;" id="p-type-tokenTransfers"></path><path d="M126.50969098911347,151.01092041915058A197,197,0,0,1,124.36355852003483,152.78319708735603L107.70200098338282,132.31412994905497A170.6070045455344,170.6070045455344,0,0,0,109.56060622149154,130.7792933318546Z" fill-rule="evenodd" style="fill: #D7A449; stroke: #fff; opacity: 1;" id="p-type-tokenTransfers"></path><path d="M124.36355852003483,152.78319708735603A197,197,0,0,1,122.19260124925324,154.52497597456858L105.82189683635544,133.82255471315642A170.6070045455344,170.6070045455344,0,0,0,107.70200098338282,132.31412994905497Z" fill-rule="evenodd" style="fill: #D7A449; stroke: #fff; opacity: 1;" id="p-type-tokenTransfers"></path><path d="M122.19260124925324,154.52497597456858A197,197,0,0,1,119.99725253188004,156.23590939601627L103.92066907694466,135.30426652031397A170.6070045455344,170.6070045455344,0,0,0,105.82189683635544,133.82255471315642Z" fill-rule="evenodd" style="fill: #D7A449; stroke: #fff; opacity: 1;" id="p-type-tokenTransfers"></path><path d="M-10.136466103126132,196.73904557799443A197,197,0,0,1,-97.02760923957426,171.44866008590586L-84.02837446994103,148.47889507919757A170.6070045455344,170.6070045455344,0,0,0,-8.778437149907083,170.38101138684772Z" fill-rule="evenodd" style="fill: #414552; stroke: #fff; opacity: 1;" id="p-type-ether"></path><path d="M-97.02760923957426,171.44866008590586A197,197,0,0,1,-108.59827354449868,164.36366685844607L-94.04886369666738,142.3431109585767A170.6070045455344,170.6070045455344,0,0,0,-84.02837446994103,148.47889507919757Z" fill-rule="evenodd" style="fill: #414552; stroke: #fff; opacity: 1;" id="p-type-ether"></path><path d="M-108.59827354449868,164.36366685844607A197,197,0,0,1,-116.07478145970082,159.17174720748244L-100.52370948282787,137.84677664643456A170.6070045455344,170.6070045455344,0,0,0,-94.04886369666738,142.3431109585767Z" fill-rule="evenodd" style="fill: #414552; stroke: #fff; opacity: 1;" id="p-type-ether"></path><path d="M-116.07478145970082,159.17174720748244A197,197,0,0,1,-117.19631485246914,158.34779374844769L-101.4949858921578,137.1332120193744A170.6070045455344,170.6070045455344,0,0,0,-100.52370948282787,137.84677664643456Z" fill-rule="evenodd" style="fill: #414552; stroke: #fff; opacity: 1;" id="p-type-ether"></path></g></svg>