<svg xmlns="http://www.w3.org/2000/svg" width="400" height="400" id="block-7908195"><g id="burst-container" transform="translate(200,200)"><circle r="197" style="fill: #f9f9f9; stroke: #f9f9f9; stroke-width: 3; opacity: 1;" id="circle-base"></circle><path display="none" d="M6.031385485800715e-15,-98.5A98.5,98.5,0,1,1,-6.031385485800715e-15,98.5A98.5,98.5,0,1,1,6.031385485800715e-15,-98.5Z" fill-rule="evenodd" id="p-type-root" style="stroke: #fff; opacity: 1;"></path><path d="M8.529667153919608e-15,-139.30003589374985A139.30003589374985,139.30003589374985,0,1,1,-133.7951623149517,-38.77311621620994L-94.60746656285718,-27.416733404216146A98.5,98.5,0,1,0,6.031385485800715e-15,-98.5Z" fill-rule="evenodd" style="fill: #0B1F65; stroke: #fff; opacity: 1;" id="p-type-data"></path><path d="M-133.7951623149517,-38.77311621620994A139.30003589374985,139.30003589374985,0,0,1,-10.549883222837925,-138.89996387322958L-7.459893967594887,-98.21710636132711A98.5,98.5,0,0,0,-94.60746656285718,-27.416733404216146Z" fill-rule="evenodd" style="fill: #D7A449; stroke: #fff; opacity: 1;" id="p-type-value"></path><path d="M1.0446666101440332e-14,-170.6070045455344A170.6070045455344,170.6070045455344,0,0,1,169.94491475050032,15.015856633744715L138.7594418398374,12.260395601153473A139.30003589374985,139.30003589374985,0,0,0,8.529667153919608e-15,-139.30003589374985Z" fill-rule="evenodd" style="fill: #414552; stroke: #fff; opacity: 1;" id="p-type-ether"></path><path d="M169.94491475050032,15.015856633744715A170.6070045455344,170.6070045455344,0,0,1,69.77893836750411,155.68445574399541L56.974264597833624,127.11582581856612A139.30003589374985,139.30003589374985,0,0,0,138.7594418398374,12.260395601153473Z" fill-rule="evenodd" style="fill: #1DC690; stroke: #fff; opacity: 1;" id="p-type-logs"></path><path d="M69.77893836750411,155.68445574399541A170.6070045455344,170.6070045455344,0,0,1,-44.00904932652662,164.83310825612475L-35.93323830498863,134.5856693148156A139.30003589374985,139.30003589374985,0,0,0,56.974264597833624,127.11582581856612Z" fill-rule="evenodd" style="fill: #D7A449; stroke: #fff; opacity: 1;" id="p-type-tokenTransfers"></path><path d="M-163.86493886224233,-47.487175233673184A170.6070045455344,170.6070045455344,0,0,1,-80.70559485911713,-150.31086773229688L-65.89584226420739,-122.72830957970005A139.30003589374985,139.30003589374985,0,0,0,-133.7951623149517,-38.77311621620994Z" fill-rule="evenodd" style="fill: #414552; stroke: #fff; opacity: 1;" id="p-type-ether"></path><path d="M-80.70559485911713,-150.31086773229688A170.6070045455344,170.6070045455344,0,0,1,-25.767612574099317,-168.64987442103572L-21.03916756542237,-137.702045838666A139.30003589374985,139.30003589374985,0,0,0,-65.89584226420739,-122.72830957970005Z" fill-rule="evenodd" style="fill: #D7A449; stroke: #fff; opacity: 1;" id="p-type-tokenTransfers"></path><path d="M1.206277097160143e-14,-197A197,197,0,0,1,51.658790368721554,-190.1062055211257L44.73782478808775,-164.63680339836034A170.6070045455344,170.6070045455344,0,0,0,1.0446666101440332e-14,-170.6070045455344Z" fill-rule="evenodd" style="fill: #414552; stroke: #fff; opacity: 1;" id="p-type-ether"></path><path d="M51.658790368721554,-190.1062055211257A197,197,0,0,1,89.08228763116699,-175.70812738857026L77.1475241158229,-152.16770196989413A170.6070045455344,170.6070045455344,0,0,0,44.73782478808775,-164.63680339836034Z" fill-rule="evenodd" style="fill: #414552; stroke: #fff; opacity: 1;" id="p-type-ether"></path><path d="M89.08228763116699,-175.70812738857026A197,197,0,0,1,112.03781203830867,-162.03866413195527L97.02759140960131,-140.3295995335676A170.6070045455344,170.6070045455344,0,0,0,77.1475241158229,-152.16770196989413Z" fill-rule="evenodd" style="fill: #414552; stroke: #fff; opacity: 1;" id="p-type-ether"></path><path d="M112.03781203830867,-162.03866413195527A197,197,0,0,1,126.23894064393558,-151.23732960184438L109.32612954448409,-130.9753694357175A170.6070045455344,170.6070045455344,0,0,0,97.02759140960131,-140.3295995335676Z" fill-rule="evenodd" style="fill: #414552; stroke: #fff; opacity: 1;" id="p-type-ether"></path><path d="M126.23894064393558,-151.23732960184438A197,197,0,0,1,138.20288687450733,-140.38861086125232L119.6872109096703,-121.58010340785246A170.6070045455344,170.6070045455344,0,0,0,109.32612954448409,-130.9753694357175Z" fill-rule="evenodd" style="fill: #414552; stroke: #fff; opacity: 1;" id="p-type-ether"></path><path d="M138.20288687450733,-140.38861086125232A197,197,0,0,1,143.44071337309984,-135.03244701558293L124.22330171806671,-116.94152945067104A170.6070045455344,170.6070045455344,0,0,0,119.6872109096703,-121.58010340785246Z" fill-rule="evenodd" style="fill: #414552; stroke: #fff; opacity: 1;" id="p-type-ether"></path><path d="M143.44071337309984,-135.03244701558293A197,197,0,0,1,146.0227443437184,-132.2359940951368L126.45940613198057,-114.51973018107749A170.6070045455344,170.6070045455344,0,0,0,124.22330171806671,-116.94152945067104Z" fill-rule="evenodd" style="fill: #414552; stroke: #fff; opacity: 1;" id="p-type-ether"></path><path d="M146.0227443437184,-132.2359940951368A197,197,0,0,1,148.30606426715852,-129.6700092603739L128.43681919064684,-112.2975221284472A170.6070045455344,170.6070045455344,0,0,0,126.45940613198057,-114.51973018107749Z" fill-rule="evenodd" style="fill: #414552; stroke: #fff; opacity: 1;" id="p-type-ether"></path><path d="M148.30606426715852,-129.6700092603739A197,197,0,0,1,149.28479004851474,-128.54202215684518L129.28442058064013,-111.3206566416501A170.6070045455344,170.6070045455344,0,0,0,128.43681919064684,-112.2975221284472Z" fill-rule="evenodd" style="fill: #414552; stroke: #fff; opacity: 1;" id="p-type-ether"></path><path d="M196.23548455721874,17.33881773921068A197,197,0,0,1,195.43748674070574,24.76264881785604L169.25382836923555,21.44508294125603A170.6070045455344,170.6070045455344,0,0,0,169.94491475050032,15.015856633744715Z" fill-rule="evenodd" style="fill: #1DC690; stroke: #fff; opacity: 1;" id="p-type-logs"></path><path d="M195.43748674070574,24.76264881785604A197,197,0,0,1,194.35873824126855,32.15090775175801L168.31960476442862,27.84350286775247A170.6070045455344,170.6070045455344,0,0,0,169.25382836923555,21.44508294125603Z" fill-rule="evenodd" style="fill: #1DC690; stroke: #fff; opacity: 1;" id="p-type-logs"></path><path d="M194.35873824126855,32.15090775175801A197,197,0,0,1,193.00078870725238,39.492981128024795L167.14358597091336,34.20192492804888A170.6070045455344,170.6070045455344,0,0,0,168.31960476442862,27.84350286775247Z" fill-rule="evenodd" style="fill: #1DC690; stroke: #fff; opacity: 1;" id="p-type-logs"></path><path d="M193.00078870725238,39.492981128024795A197,197,0,0,1,191.36558886605047,46.778321880436685L165.72746136816824,40.51121509486362A170.6070045455344,170.6070045455344,0,0,0,167.14358597091336,34.20192492804888Z" fill-rule="evenodd" style="fill: #1DC690; stroke: #fff; opacity: 1;" id="p-type-logs"></path><path d="M191.36558886605047,46.778321880436685A197,197,0,0,1,189.45548772183693,53.99646444056214L164.0732652534816,46.76230992006991A170.6070045455344,170.6070045455344,0,0,0,165.72746136816824,40.51121509486362Z" fill-rule="evenodd" style="fill: #1DC690; stroke: #fff; opacity: 1;" id="p-type-logs"></path><path d="M189.45548772183693,53.99646444056214A197,197,0,0,1,187.27322918116545,61.137039771800275L162.1833739196345,52.94622955455861A170.6070045455344,170.6070045455344,0,0,0,164.0732652534816,46.76230992006991Z" fill-rule="evenodd" style="fill: #1DC690; stroke: #fff; opacity: 1;" id="p-type-logs"></path><path d="M187.27322918116545,61.137039771800275A197,197,0,0,1,184.82194811128085,68.18979026475306L160.06050224129856,59.05409064800895A170.6070045455344,170.6070045455344,0,0,0,162.1833739196345,52.94622955455861Z" fill-rule="evenodd" style="fill: #1DC690; stroke: #fff; opacity: 1;" id="p-type-logs"></path><path d="M184.82194811128085,68.18979026475306A197,197,0,0,1,182.10516583680663,75.14458447252967L157.70769977505265,65.07711911003636A170.6070045455344,170.6070045455344,0,0,0,160.06050224129856,59.05409064800895Z" fill-rule="evenodd" style="fill: #1DC690; stroke: #fff; opacity: 1;" id="p-type-logs"></path><path d="M182.10516583680663,75.14458447252967A197,197,0,0,1,179.12678508127678,81.99143166481534L155.12834637862107,71.00666271438591A170.6070045455344,170.6070045455344,0,0,0,157.70769977505265,65.07711911003636Z" fill-rule="evenodd" style="fill: #1DC690; stroke: #fff; opacity: 1;" id="p-type-logs"></path><path d="M179.12678508127678,81.99143166481534A197,197,0,0,1,175.89108436077873,88.72049617979728L152.32614735562615,76.83420352806469A170.6070045455344,170.6070045455344,0,0,0,155.12834637862107,71.00666271438591Z" fill-rule="evenodd" style="fill: #1DC690; stroke: #fff; opacity: 1;" id="p-type-logs"></path><path d="M175.89108436077873,88.72049617979728A197,197,0,0,1,172.40271183776161,95.32211155333127L149.30512813282974,82.55137014755901A170.6070045455344,170.6070045455344,0,0,0,152.32614735562615,76.83420352806469Z" fill-rule="evenodd" style="fill: #1DC690; stroke: #fff; opacity: 1;" id="p-type-logs"></path><path d="M172.40271183776161,95.32211155333127A197,197,0,0,1,168.66667864383825,101.78679440505135L146.06962847751018,88.14994972455824A170.6070045455344,170.6070045455344,0,0,0,149.30512813282974,82.55137014755901Z" fill-rule="evenodd" style="fill: #1DC690; stroke: #fff; opacity: 1;" id="p-type-logs"></path><path d="M168.66667864383825,101.78679440505135A197,197,0,0,1,164.6883516811732,108.10525806147554L142.62429626328165,93.62189976391029A170.6070045455344,170.6070045455344,0,0,0,146.06962847751018,88.14994972455824Z" fill-rule="evenodd" style="fill: #1DC690; stroke: #fff; opacity: 1;" id="p-type-logs"></path><path d="M164.6883516811732,108.10525806147554A197,197,0,0,1,160.47344591279776,114.268425896537L138.97408079331095,98.95935967686066A170.6070045455344,170.6070045455344,0,0,0,142.62429626328165,93.62189976391029Z" fill-rule="evenodd" style="fill: #1DC690; stroke: #fff; opacity: 1;" id="p-type-logs"></path><path d="M80.5737777004896,179.76892486487225A197,197,0,0,1,73.70361506061862,182.69312282348272L63.829202993245076,158.2168854618467A170.6070045455344,170.6070045455344,0,0,0,69.77893836750411,155.68445574399541Z" fill-rule="evenodd" style="fill: #D7A449; stroke: #fff; opacity: 1;" id="p-type-tokenTransfers"></path><path d="M73.70361506061862,182.69312282348272A197,197,0,0,1,66.72757539271511,185.35487768658672L57.78777542303268,160.52203279194148A170.6070045455344,170.6070045455344,0,0,0,63.829202993245076,158.2168854618467Z" fill-rule="evenodd" style="fill: #D7A449; stroke: #fff; opacity: 1;" id="p-type-tokenTransfers"></path><path d="M66.72757539271511,185.35487768658672A197,197,0,0,1,59.6556799467119,187.75036577885933L51.66333431388641,162.59658633431272A170.6070045455344,170.6070045455344,0,0,0,57.78777542303268,160.52203279194148Z" fill-rule="evenodd" style="fill: #D7A449; stroke: #fff; opacity: 1;" id="p-type-tokenTransfers"></path><path d="M59.6556799467119,187.75036577885933A197,197,0,0,1,52.49808767168854,189.8761459236407L45.464677573784925,164.43756594255393A170.6070045455344,170.6070045455344,0,0,0,51.66333431388641,162.59658633431272Z" fill-rule="evenodd" style="fill: #D7A449; stroke: #fff; opacity: 1;" id="p-type-tokenTransfers"></path><path d="M52.49808767168854,189.8761459236407A197,197,0,0,1,45.26508062229491,191.72916438626947L39.200709723258115,166.04232700487202A170.6070045455344,170.6070045455344,0,0,0,45.464677573784925,164.43756594255393Z" fill-rule="evenodd" style="fill: #D7A449; stroke: #fff; opacity: 1;" id="p-type-tokenTransfers"></path><path d="M45.26508062229491,191.72916438626947A197,197,0,0,1,37.96704918833073,193.30675926084652L32.880429103827765,167.40856424313588A170.6070045455344,170.6070045455344,0,0,0,39.200709723258115,166.04232700487202Z" fill-rule="evenodd" style="fill: #D7A449; stroke: #fff; opacity: 1;" id="p-type-tokenTransfers"></path><path d="M37.96704918833073,193.30675926084652A197,197,0,0,1,30.614477168698972,194.60666429412743L26.512914951672002,168.5343150244644A170.6070045455344,170.6070045455344,0,0,0,32.880429103827765,167.40856424313588Z" fill-rule="evenodd" style="fill: #D7A449; stroke: #fff; opacity: 1;" id="p-type-tokenTransfers"></path><path d="M30.614477168698972,194.60666429412743A197,197,0,0,1,23.217926711174776,195.62701214105L20.10731435508264,169.4179621805961A170.6070045455344,170.6070045455344,0,0,0,26.512914951672002,168.5343150244644Z" fill-rule="evenodd" style="fill: #D7A449; stroke: #fff; opacity: 1;" id="p-type-tokenTransfers"></path><path d="M23.217926711174776,195.62701214105A197,197,0,0,1,15.788023139624432,196.3663370472207L13.672829114451309,170.05823633099047A170.6070045455344,170.6070045455344,0,0,0,20.10731435508264,169.4179621805961Z" fill-rule="evenodd" style="fill: #D7A449; stroke: #fff; opacity: 1;" id="p-type-tokenTransfers"></path></g></svg>