<svg xmlns="http://www.w3.org/2000/svg" width="600" height="600" id="block-7909836"><g id="burst-container" transform="translate(300,300)"><data type="text/json">{"number":7909836,"totalTransactions":184,"totalFunctions":0,"totalLogs":140,"totalTokenTransfers":140,"totalEther":128033030888728230000}</data><circle r="297" style="fill: #f9f9f9; stroke: #f9f9f9; stroke-width: 3; opacity: 1;" id="circle-base"></circle><path display="none" d="M9.093002483669097e-15,-148.5A148.5,148.5,0,1,1,-9.093002483669097e-15,148.5A148.5,148.5,0,1,1,9.093002483669097e-15,-148.5Z" fill-rule="evenodd" id="p-type-root" style="stroke: #fff; opacity: 1;"></path><path d="M1.2859447435097075e-14,-210.0107140124046A210.0107140124046,210.0107140124046,0,1,1,-175.2423865393646,-115.73506797849959L-123.91507987329886,-81.83705138868311A148.5,148.5,0,1,0,9.093002483669097e-15,-148.5Z" fill-rule="evenodd" style="fill: #4E4E4E; stroke: #fff; opacity: 1;" id="p-type-data"></path><path d="M-175.2423865393646,-115.73506797849959A210.0107140124046,210.0107140124046,0,0,1,-2.591269284494098,-209.99472689449902L-1.8323040829461898,-148.48869540051734A148.5,148.5,0,0,0,-123.91507987329886,-81.83705138868311Z" fill-rule="evenodd" style="fill: #3A86AD; stroke: #fff; opacity: 1;" id="p-type-value"></path><path d="M1.5749542295064867e-14,-257.2095449239783A257.2095449239783,257.2095449239783,0,0,1,254.05923985027488,40.132937180083175L207.43850069084652,32.768405990125125A210.0107140124046,210.0107140124046,0,0,0,1.2859447435097075e-14,-210.0107140124046Z" fill-rule="evenodd" style="fill: #184B42; stroke: #fff; opacity: 1;" id="p-type-logs"></path><path d="M254.05923985027488,40.132937180083175A257.2095449239783,257.2095449239783,0,0,1,10.822472278948641,256.98175828990543L8.83651161294666,209.8247270045031A210.0107140124046,210.0107140124046,0,0,0,207.43850069084652,32.768405990125125Z" fill-rule="evenodd" style="fill: #AE497E; stroke: #fff; opacity: 1;" id="p-type-tokenTransfers"></path><path d="M10.822472278948641,256.98175828990543A257.2095449239783,257.2095449239783,0,0,1,-219.0725470572244,134.77377017008985L-178.87198564735206,110.04232254261751A210.0107140124046,210.0107140124046,0,0,0,8.83651161294666,209.8247270045031Z" fill-rule="evenodd" style="fill: #F09B24; stroke: #fff; opacity: 1;" id="p-type-ether"></path><path d="M-214.62721416450924,-141.7459309468243A257.2095449239783,257.2095449239783,0,0,1,-75.06094527620914,-246.0134234025492L-61.287005179227904,-200.8691190705064A210.0107140124046,210.0107140124046,0,0,0,-175.2423865393646,-115.73506797849959Z" fill-rule="evenodd" style="fill: #AE497E; stroke: #fff; opacity: 1;" id="p-type-tokenTransfers"></path><path d="M-75.06094527620914,-246.0134234025492A257.2095449239783,257.2095449239783,0,0,1,-6.346804344313152,-257.1312273424117L-5.182144046948927,-209.94676797482896A210.0107140124046,210.0107140124046,0,0,0,-61.287005179227904,-200.8691190705064Z" fill-rule="evenodd" style="fill: #F09B24; stroke: #fff; opacity: 1;" id="p-type-ether"></path><path d="M1.8186004967338195e-14,-297A297,297,0,0,1,1.8323389550928364,-296.9943476464723L1.5868520834542301,-257.20464984223213A257.2095449239783,257.2095449239783,0,0,0,1.5749542295064867e-14,-257.2095449239783Z" fill-rule="evenodd" style="fill: #184B42; stroke: #fff; opacity: 1;" id="p-type-logs"></path><path d="M1.8323389550928364,-296.9943476464723A297,297,0,0,1,3.6646081658923433,-296.9773908010347L3.173643766578668,-257.1899647833151A257.2095449239783,257.2095449239783,0,0,0,1.5868520834542301,-257.20464984223213Z" fill-rule="evenodd" style="fill: #184B42; stroke: #fff; opacity: 1;" id="p-type-logs"></path><path d="M3.6646081658923433,-296.9773908010347A297,297,0,0,1,5.496737890759838,-296.9491301091153L4.7603146513425125,-257.1654903061844A257.2095449239783,257.2095449239783,0,0,0,3.173643766578668,-257.1899647833151Z" fill-rule="evenodd" style="fill: #184B42; stroke: #fff; opacity: 1;" id="p-type-logs"></path><path d="M5.496737890759838,-296.9491301091153A297,297,0,0,1,7.328658393366067,-296.9095666464005L6.346804344313064,-257.1312273424117A257.2095449239783,257.2095449239783,0,0,0,4.7603146513425125,-257.1654903061844Z" fill-rule="evenodd" style="fill: #184B42; stroke: #fff; opacity: 1;" id="p-type-logs"></path><path d="M7.328658393366067,-296.9095666464005A297,297,0,0,1,9.160299945345205,-296.8587019187939L7.933052458954152,-257.08717719614776A257.2095449239783,257.2095449239783,0,0,0,6.346804344313064,-257.1312273424117Z" fill-rule="evenodd" style="fill: #184B42; stroke: #fff; opacity: 1;" id="p-type-logs"></path><path d="M9.160299945345205,-296.8587019187939A297,297,0,0,1,10.991592828949186,-296.79653786235883L9.51899861792486,-257.0333415440727A257.2095449239783,257.2095449239783,0,0,0,7.933052458954152,-257.08717719614776Z" fill-rule="evenodd" style="fill: #184B42; stroke: #fff; opacity: 1;" id="p-type-logs"></path><path d="M10.991592828949186,-296.79653786235883A297,297,0,0,1,12.822467339701237,-296.72307684324505L11.10458245537754,-256.9697224353323A257.2095449239783,257.2095449239783,0,0,0,9.51899861792486,-257.0333415440727Z" fill-rule="evenodd" style="fill: #184B42; stroke: #fff; opacity: 1;" id="p-type-logs"></path><path d="M12.822467339701237,-296.72307684324505A297,297,0,0,1,14.652853789049304,-296.6383216575983L12.689743619255767,-256.89632229145974A257.2095449239783,257.2095449239783,0,0,0,11.10458245537754,-256.9697224353323Z" fill-rule="evenodd" style="fill: #184B42; stroke: #fff; opacity: 1;" id="p-type-logs"></path><path d="M14.652853789049304,-296.6383216575983A297,297,0,0,1,16.482682507018215,-296.5422755314541L14.274421773591152,-256.81314390628376A257.2095449239783,257.2095449239783,0,0,0,12.689743619255767,-256.89632229145974Z" fill-rule="evenodd" style="fill: #184B42; stroke: #fff; opacity: 1;" id="p-type-logs"></path><path d="M16.482682507018215,-296.5422755314541A297,297,0,0,1,18.31188384486177,-296.4349421206149L15.858556600800156,-256.7201904458222A257.2095449239783,257.2095449239783,0,0,0,14.274421773591152,-256.81314390628376Z" fill-rule="evenodd" style="fill: #184B42; stroke: #fff; opacity: 1;" id="p-type-logs"></path><path d="M18.31188384486177,-296.4349421206149A297,297,0,0,1,20.140388177713753,-296.3163255105108L17.442087803979888,-256.6174654481613A257.2095449239783,257.2095449239783,0,0,0,15.858556600800156,-256.7201904458222Z" fill-rule="evenodd" style="fill: #184B42; stroke: #fff; opacity: 1;" id="p-type-logs"></path><path d="M20.140388177713753,-296.3163255105108A297,297,0,0,1,21.968125907237955,-296.1864302160444L19.024955109203137,-256.5049728233213A257.2095449239783,257.2095449239783,0,0,0,17.442087803979888,-256.6174654481613Z" fill-rule="evenodd" style="fill: #184B42; stroke: #fff; opacity: 1;" id="p-type-logs"></path><path d="M21.968125907237955,-296.1864302160444A297,297,0,0,1,23.795027464277585,-296.0452611814185L20.607098267812802,-256.3827168531075A257.2095449239783,257.2095449239783,0,0,0,19.024955109203137,-256.5049728233213Z" fill-rule="evenodd" style="fill: #184B42; stroke: #fff; opacity: 1;" id="p-type-logs"></path><path d="M23.795027464277585,-296.0452611814185A297,297,0,0,1,25.621023311502874,-295.8928237799481L22.188457058714793,-256.2507021909473A257.2095449239783,257.2095449239783,0,0,0,20.607098267812802,-256.3827168531075Z" fill-rule="evenodd" style="fill: #184B42; stroke: #fff; opacity: 1;" id="p-type-logs"></path><path d="M25.621023311502874,-295.8928237799481A297,297,0,0,1,27.446043946058147,-295.7291238138561L23.768971290670454,-256.108933861713A257.2095449239783,257.2095449239783,0,0,0,22.188457058714793,-256.2507021909473Z" fill-rule="evenodd" style="fill: #184B42; stroke: #fff; opacity: 1;" id="p-type-logs"></path><path d="M27.446043946058147,-295.7291238138561A297,297,0,0,1,29.270019902207157,-295.55416751405215L25.34858080458751,-255.95741726153062A257.2095449239783,257.2095449239783,0,0,0,23.768971290670454,-256.108933861713Z" fill-rule="evenodd" style="fill: #184B42; stroke: #fff; opacity: 1;" id="p-type-logs"></path><path d="M29.270019902207157,-295.55416751405215A297,297,0,0,1,31.09288175397745,-295.3679615398955L26.927225475810125,-255.79615815757452A257.2095449239783,257.2095449239783,0,0,0,25.34858080458751,-255.95741726153062Z" fill-rule="evenodd" style="fill: #184B42; stroke: #fff; opacity: 1;" id="p-type-logs"></path><path d="M31.09288175397745,-295.3679615398955A297,297,0,0,1,32.914560117802495,-295.17051297894164L28.50484521640709,-255.62516268784785A257.2095449239783,257.2095449239783,0,0,0,26.927225475810125,-255.79615815757452Z" fill-rule="evenodd" style="fill: #184B42; stroke: #fff; opacity: 1;" id="p-type-logs"></path><path d="M32.914560117802495,-295.17051297894164A297,297,0,0,1,34.73498565516294,-294.96182934667263L30.081379977459168,-255.44443736094885A257.2095449239783,257.2095449239783,0,0,0,28.50484521640709,-255.62516268784785Z" fill-rule="evenodd" style="fill: #184B42; stroke: #fff; opacity: 1;" id="p-type-logs"></path><path d="M34.73498565516294,-294.96182934667263A297,297,0,0,1,36.554089075225654,-294.7419185862107L31.656769751344633,-255.2539890558233A257.2095449239783,257.2095449239783,0,0,0,30.081379977459168,-255.44443736094885Z" fill-rule="evenodd" style="fill: #184B42; stroke: #fff; opacity: 1;" id="p-type-logs"></path><path d="M36.554089075225654,-294.7419185862107A297,297,0,0,1,38.37180113748146,-294.51078906801627L33.23095457402356,-255.05382502150243A257.2095449239783,257.2095449239783,0,0,0,31.656769751344633,-255.2539890558233Z" fill-rule="evenodd" style="fill: #184B42; stroke: #fff; opacity: 1;" id="p-type-logs"></path><path d="M38.37180113748146,-294.51078906801627A297,297,0,0,1,40.18805265438021,-294.2684495895691L34.8038745273199,-254.8439528768273A257.2095449239783,257.2095449239783,0,0,0,33.23095457402356,-255.05382502150243Z" fill-rule="evenodd" style="fill: #184B42; stroke: #fff; opacity: 1;" id="p-type-logs"></path><path d="M40.18805265438021,-294.2684495895691A297,297,0,0,1,42.00277449396452,-294.0149093750335L36.375469741202345,-254.62438061015854A257.2095449239783,257.2095449239783,0,0,0,34.8038745273199,-254.8439528768273Z" fill-rule="evenodd" style="fill: #184B42; stroke: #fff; opacity: 1;" id="p-type-logs"></path><path d="M42.00277449396452,-294.0149093750335A297,297,0,0,1,43.815897582501066,-293.75017807490735L37.945680396063096,-254.3951165790724A257.2095449239783,257.2095449239783,0,0,0,36.375469741202345,-254.62438061015854Z" fill-rule="evenodd" style="fill: #184B42; stroke: #fff; opacity: 1;" id="p-type-logs"></path><path d="M43.815897582501066,-293.75017807490735A297,297,0,0,1,45.627352907109945,-293.47426576565454L39.51444672499497,-254.15616951004264A257.2095449239783,257.2095449239783,0,0,0,37.945680396063096,-254.3951165790724Z" fill-rule="evenodd" style="fill: #184B42; stroke: #fff; opacity: 1;" id="p-type-logs"></path><path d="M45.627352907109945,-293.47426576565454A297,297,0,0,1,47.437071518391114,-293.1871829493217L41.08170901606596,-253.90754849810844A257.2095449239783,257.2095449239783,0,0,0,39.51444672499497,-254.15616951004264Z" fill-rule="evenodd" style="fill: #184B42; stroke: #fff; opacity: 1;" id="p-type-logs"></path><path d="M47.437071518391114,-293.1871829493217A297,297,0,0,1,49.24498453304912,-292.88894055313824L42.6474076145923,-253.64926300652803A257.2095449239783,257.2095449239783,0,0,0,41.08170901606596,-253.90754849810844Z" fill-rule="evenodd" style="fill: #184B42; stroke: #fff; opacity: 1;" id="p-type-logs"></path><path d="M49.24498453304912,-292.88894055313824A297,297,0,0,1,51.05102313651482,-292.57954992910055L44.211482925408966,-253.38132286641863A257.2095449239783,257.2095449239783,0,0,0,42.6474076145923,-253.64926300652803Z" fill-rule="evenodd" style="fill: #184B42; stroke: #fff; opacity: 1;" id="p-type-logs"></path><path d="M51.05102313651482,-292.57954992910055A297,297,0,0,1,52.85511858556497,-292.25902285353976L45.7738754151383,-253.10373827638224A257.2095449239783,257.2095449239783,0,0,0,44.211482925408966,-253.38132286641863Z" fill-rule="evenodd" style="fill: #184B42; stroke: #fff; opacity: 1;" id="p-type-logs"></path><path d="M52.85511858556497,-292.25902285353976A297,297,0,0,1,54.65720221093841,-291.9273715266737L47.33452561445565,-252.81651980211745A257.2095449239783,257.2095449239783,0,0,0,45.7738754151383,-253.10373827638224Z" fill-rule="evenodd" style="fill: #184B42; stroke: #fff; opacity: 1;" id="p-type-logs"></path><path d="M54.65720221093841,-291.9273715266737A297,297,0,0,1,56.457205419950014,-291.58460857214254L48.89337412035321,-252.51967837601723A257.2095449239783,257.2095449239783,0,0,0,47.33452561445565,-252.81651980211745Z" fill-rule="evenodd" style="fill: #184B42; stroke: #fff; opacity: 1;" id="p-type-logs"></path><path d="M56.457205419950014,-291.58460857214254A297,297,0,0,1,58.255059699101494,-291.23074703652793L50.45036159840095,-252.2132252967528A257.2095449239783,257.2095449239783,0,0,0,48.89337412035321,-252.51967837601723Z" fill-rule="evenodd" style="fill: #184B42; stroke: #fff; opacity: 1;" id="p-type-logs"></path><path d="M58.255059699101494,-291.23074703652793A297,297,0,0,1,60.050696616689436,-290.8658003888569L52.00542878500529,-251.89717222884371A257.2095449239783,257.2095449239783,0,0,0,50.45036159840095,-252.2132252967528Z" fill-rule="evenodd" style="fill: #184B42; stroke: #fff; opacity: 1;" id="p-type-logs"></path><path d="M60.050696616689436,-290.8658003888569A297,297,0,0,1,61.8440478254096,-290.48978252008874L53.558516489664484,-251.57153120221363A257.2095449239783,257.2095449239783,0,0,0,52.00542878500529,-251.89717222884371Z" fill-rule="evenodd" style="fill: #184B42; stroke: #fff; opacity: 1;" id="p-type-logs"></path><path d="M61.8440478254096,-290.48978252008874A297,297,0,0,1,63.63504506495879,-290.1027077425867L55.10956559722189,-251.2363146117326A257.2095449239783,257.2095449239783,0,0,0,53.558516489664484,-251.57153120221363Z" fill-rule="evenodd" style="fill: #184B42; stroke: #fff; opacity: 1;" id="p-type-logs"></path><path d="M63.63504506495879,-290.1027077425867A297,297,0,0,1,65.42362016463277,-289.7045907895729L56.658517070115835,-250.8915352167454A257.2095449239783,257.2095449239783,0,0,0,55.10956559722189,-251.2363146117326Z" fill-rule="evenodd" style="fill: #184B42; stroke: #fff; opacity: 1;" id="p-type-logs"></path><path d="M65.42362016463277,-289.7045907895729A297,297,0,0,1,67.20970504592141,-289.2954468145675L58.20531195062711,-250.53720614058543A257.2095449239783,257.2095449239783,0,0,0,56.658517070115835,-250.8915352167454Z" fill-rule="evenodd" style="fill: #184B42; stroke: #fff; opacity: 1;" id="p-type-logs"></path><path d="M67.20970504592141,-289.2954468145675A297,297,0,0,1,68.99323172509952,-288.8752913908123L59.749891363122664,-250.1733408700756A257.2095449239783,257.2095449239783,0,0,0,58.20531195062711,-250.53720614058543Z" fill-rule="evenodd" style="fill: #184B42; stroke: #fff; opacity: 1;" id="p-type-logs"></path><path d="M68.99323172509952,-288.8752913908123A297,297,0,0,1,70.77413231581484,-288.44414051067764L61.29219651629683,-249.79995325501494A257.2095449239783,257.2095449239783,0,0,0,59.749891363122664,-250.1733408700756Z" fill-rule="evenodd" style="fill: #184B42; stroke: #fff; opacity: 1;" id="p-type-logs"></path><path d="M70.77413231581484,-288.44414051067764A297,297,0,0,1,72.55233903167172,-288.00201058505365L62.832168705408996,-249.41705750765126A257.2095449239783,257.2095449239783,0,0,0,61.29219651629683,-249.79995325501494Z" fill-rule="evenodd" style="fill: #184B42; stroke: #fff; opacity: 1;" id="p-type-logs"></path><path d="M72.55233903167172,-288.00201058505365A297,297,0,0,1,74.32778418881173,-287.5489184427259L64.3697493145183,-249.0246682021403A257.2095449239783,257.2095449239783,0,0,0,62.832168705408996,-249.41705750765126Z" fill-rule="evenodd" style="fill: #184B42; stroke: #fff; opacity: 1;" id="p-type-logs"></path><path d="M74.32778418881173,-287.5489184427259A297,297,0,0,1,76.10040020848933,-287.0848813297345L65.90487981871436,-248.622800273991A257.2095449239783,257.2095449239783,0,0,0,64.3697493145183,-249.0246682021403Z" fill-rule="evenodd" style="fill: #184B42; stroke: #fff; opacity: 1;" id="p-type-logs"></path><path d="M76.10040020848933,-287.0848813297345A297,297,0,0,1,77.87011961964453,-286.60991690871805L67.4375017863452,-248.21146901949695A257.2095449239783,257.2095449239783,0,0,0,65.90487981871436,-248.622800273991Z" fill-rule="evenodd" style="fill: #184B42; stroke: #fff; opacity: 1;" id="p-type-logs"></path><path d="M77.87011961964453,-286.60991690871805A297,297,0,0,1,79.63687506147089,-286.1240432582409L68.96755688124122,-247.79069009515425A257.2095449239783,257.2095449239783,0,0,0,67.4375017863452,-248.21146901949695Z" fill-rule="evenodd" style="fill: #184B42; stroke: #fff; opacity: 1;" id="p-type-logs"></path><path d="M79.63687506147089,-286.1240432582409A297,297,0,0,1,81.4005992859794,-285.6272788721053L70.4949868649356,-247.36047951706544A257.2095449239783,257.2095449239783,0,0,0,68.96755688124122,-247.79069009515425Z" fill-rule="evenodd" style="fill: #184B42; stroke: #fff; opacity: 1;" id="p-type-logs"></path><path d="M81.4005992859794,-285.6272788721053A297,297,0,0,1,83.16122516055849,-285.1196426586476L72.01973359888129,-246.92085366033015A257.2095449239783,257.2095449239783,0,0,0,70.4949868649356,-247.36047951706544Z" fill-rule="evenodd" style="fill: #184B42; stroke: #fff; opacity: 1;" id="p-type-logs"></path><path d="M83.16122516055849,-285.1196426586476A297,297,0,0,1,84.91868567052879,-284.6011539400182L73.54173904666351,-246.47182925842145A257.2095449239783,257.2095449239783,0,0,0,72.01973359888129,-246.92085366033015Z" fill-rule="evenodd" style="fill: #184B42; stroke: #fff; opacity: 1;" id="p-type-logs"></path><path d="M84.91868567052879,-284.6011539400182A297,297,0,0,1,86.6729139216942,-284.0718324514463L75.06094527620911,-246.01342340254922A257.2095449239783,257.2095449239783,0,0,0,73.54173904666351,-246.47182925842145Z" fill-rule="evenodd" style="fill: #184B42; stroke: #fff; opacity: 1;" id="p-type-logs"></path><path d="M86.6729139216942,-284.0718324514463A297,297,0,0,1,88.42384314288822,-283.53169834048873L76.57729446199164,-245.54565354100941A257.2095449239783,257.2095449239783,0,0,0,75.06094527620911,-246.01342340254922Z" fill-rule="evenodd" style="fill: #184B42; stroke: #fff; opacity: 1;" id="p-type-logs"></path><path d="M88.42384314288822,-283.53169834048873A297,297,0,0,1,90.1714066885151,-282.98077216626297L78.09072888723212,-245.0685374785201A257.2095449239783,257.2095449239783,0,0,0,76.57729446199164,-245.54565354100941Z" fill-rule="evenodd" style="fill: #184B42; stroke: #fff; opacity: 1;" id="p-type-logs"></path><path d="M90.1714066885151,-282.98077216626297A297,297,0,0,1,91.9155380410868,-282.4190748986646L79.60119094609614,-244.58209337554362A257.2095449239783,257.2095449239783,0,0,0,78.09072888723212,-245.0685374785201Z" fill-rule="evenodd" style="fill: #184B42; stroke: #fff; opacity: 1;" id="p-type-logs"></path><path d="M91.9155380410868,-282.4190748986646A297,297,0,0,1,93.65617081375483,-281.8466279175694L81.10862314588638,-244.08633974759545A257.2095449239783,257.2095449239783,0,0,0,79.60119094609614,-244.58209337554362Z" fill-rule="evenodd" style="fill: #184B42; stroke: #fff; opacity: 1;" id="p-type-logs"></path><path d="M93.65617081375483,-281.8466279175694A297,297,0,0,1,95.39323875283701,-281.263453012019L82.61296810923102,-243.58129546453927A257.2095449239783,257.2095449239783,0,0,0,81.10862314588638,-244.08633974759545Z" fill-rule="evenodd" style="fill: #184B42; stroke: #fff; opacity: 1;" id="p-type-logs"></path><path d="M95.39323875283701,-281.263453012019A297,297,0,0,1,97.12667574033955,-280.6695723793923L84.1141685762678,-243.06697974986895A257.2095449239783,257.2095449239783,0,0,0,82.61296810923102,-243.58129546453927Z" fill-rule="evenodd" style="fill: #184B42; stroke: #fff; opacity: 1;" id="p-type-logs"></path><path d="M97.12667574033955,-280.6695723793923A297,297,0,0,1,98.85641579647339,-280.0650086245598L85.61216740682322,-242.5434121799767A257.2095449239783,257.2095449239783,0,0,0,84.1141685762678,-243.06697974986895Z" fill-rule="evenodd" style="fill: #184B42; stroke: #fff; opacity: 1;" id="p-type-logs"></path><path d="M98.85641579647339,-280.0650086245598A297,297,0,0,1,100.58239308216567,-279.44978475902377L87.10690758258765,-242.01061268340803A257.2095449239783,257.2095449239783,0,0,0,85.61216740682322,-242.5434121799767Z" fill-rule="evenodd" style="fill: #184B42; stroke: #fff; opacity: 1;" id="p-type-logs"></path><path d="M100.58239308216567,-279.44978475902377A297,297,0,0,1,102.304541901566,-278.8239242000419L88.59833220928572,-241.46860154010304A257.2095449239783,257.2095449239783,0,0,0,87.10690758258765,-242.01061268340803Z" fill-rule="evenodd" style="fill: #184B42; stroke: #fff; opacity: 1;" id="p-type-logs"></path><path d="M102.304541901566,-278.8239242000419A297,297,0,0,1,104.02279670454669,-278.1874507697365L90.08638451884163,-240.9173993806247A257.2095449239783,257.2095449239783,0,0,0,88.59833220928572,-241.46860154010304Z" fill-rule="evenodd" style="fill: #184B42; stroke: #fff; opacity: 1;" id="p-type-logs"></path><path d="M104.02279670454669,-278.1874507697365A297,297,0,0,1,105.73709208919801,-277.5403886941871L91.57100787154009,-240.35702718537343A257.2095449239783,257.2095449239783,0,0,0,90.08638451884163,-240.9173993806247Z" fill-rule="evenodd" style="fill: #184B42; stroke: #fff; opacity: 1;" id="p-type-logs"></path><path d="M105.73709208919801,-277.5403886941871A297,297,0,0,1,107.44736280431749,-276.882762602509L93.05214575818214,-239.78750628378873A257.2095449239783,257.2095449239783,0,0,0,91.57100787154009,-240.35702718537343Z" fill-rule="evenodd" style="fill: #184B42; stroke: #fff; opacity: 1;" id="p-type-logs"></path><path d="M107.44736280431749,-276.882762602509A297,297,0,0,1,109.15354375189354,-276.21459752591545L94.529741802236,-239.20885835353715A257.2095449239783,257.2095449239783,0,0,0,93.05214575818214,-239.78750628378873Z" fill-rule="evenodd" style="fill: #184B42; stroke: #fff; opacity: 1;" id="p-type-logs"></path><path d="M109.15354375189354,-276.21459752591545A297,297,0,0,1,110.85556998958354,-275.53591889676477L96.0037397619832,-238.62110541968707A257.2095449239783,257.2095449239783,0,0,0,94.529741802236,-239.20885835353715Z" fill-rule="evenodd" style="fill: #184B42; stroke: #fff; opacity: 1;" id="p-type-logs"></path><path d="M110.85556998958354,-275.53591889676477A297,297,0,0,1,112.55337673318537,-274.8467525475927L97.47408353265891,-238.02426985387066A257.2095449239783,257.2095449239783,0,0,0,96.0037397619832,-238.62110541968707Z" fill-rule="evenodd" style="fill: #184B42; stroke: #fff; opacity: 1;" id="p-type-logs"></path><path d="M112.55337673318537,-274.8467525475927A297,297,0,0,1,114.24689935910342,-274.14712471012876L98.94071714858767,-237.41837437343213A257.2095449239783,257.2095449239783,0,0,0,97.47408353265891,-238.02426985387066Z" fill-rule="evenodd" style="fill: #184B42; stroke: #fff; opacity: 1;" id="p-type-logs"></path><path d="M114.24689935910342,-274.14712471012876A297,297,0,0,1,115.9360734068086,-273.4370620142981L100.40358478531374,-236.80344204056308A257.2095449239783,257.2095449239783,0,0,0,98.94071714858767,-237.41837437343213Z" fill-rule="evenodd" style="fill: #184B42; stroke: #fff; opacity: 1;" id="p-type-logs"></path><path d="M115.9360734068086,-273.4370620142981A297,297,0,0,1,117.6208345812915,-272.71659148720755L101.86263076172564,-236.17949626142476A257.2095449239783,257.2095449239783,0,0,0,100.40358478531374,-236.80344204056308Z" fill-rule="evenodd" style="fill: #184B42; stroke: #fff; opacity: 1;" id="p-type-logs"></path><path d="M117.6208345812915,-272.71659148720755A297,297,0,0,1,119.30111875550992,-271.9857405521174L103.31779954217575,-235.54656078525704A257.2095449239783,257.2095449239783,0,0,0,101.86263076172564,-236.17949626142476Z" fill-rule="evenodd" style="fill: #184B42; stroke: #fff; opacity: 1;" id="p-type-logs"></path><path d="M119.30111875550992,-271.9857405521174A297,297,0,0,1,120.97686197282964,-271.244537027397L104.76903573859408,-234.9046597034746A257.2095449239783,257.2095449239783,0,0,0,103.31779954217575,-235.54656078525704Z" fill-rule="evenodd" style="fill: #184B42; stroke: #fff; opacity: 1;" id="p-type-logs"></path><path d="M120.97686197282964,-271.244537027397A297,297,0,0,1,122.64800044945879,-270.49300912546624L106.21628411259657,-234.25381744874974A257.2095449239783,257.2095449239783,0,0,0,104.76903573859408,-234.9046597034746Z" fill-rule="evenodd" style="fill: #184B42; stroke: #fff; opacity: 1;" id="p-type-logs"></path><path d="M122.64800044945879,-270.49300912546624A297,297,0,0,1,124.31447057687583,-269.7311854517217L107.6594895775876,-233.5940587940826A257.2095449239783,257.2095449239783,0,0,0,106.21628411259657,-234.25381744874974Z" fill-rule="evenodd" style="fill: #184B42; stroke: #fff; opacity: 1;" id="p-type-logs"></path><path d="M124.31447057687583,-269.7311854517217A297,297,0,0,1,125.97620892425039,-268.9590950034477L109.09859720085674,-232.925408851858A257.2095449239783,257.2095449239783,0,0,0,107.6594895775876,-233.5940587940826Z" fill-rule="evenodd" style="fill: #184B42; stroke: #fff; opacity: 1;" id="p-type-logs"></path><path d="M125.97620892425039,-268.9590950034477A297,297,0,0,1,127.63315224085777,-268.17676716871284L110.53355220566958,-232.24789307288992A257.2095449239783,257.2095449239783,0,0,0,109.09859720085674,-232.925408851858Z" fill-rule="evenodd" style="fill: #184B42; stroke: #fff; opacity: 1;" id="p-type-logs"></path><path d="M127.63315224085777,-268.17676716871284A297,297,0,0,1,129.28523745848662,-267.384231725251L111.96429997335292,-231.56153724545243A257.2095449239783,257.2095449239783,0,0,0,110.53355220566958,-232.24789307288992Z" fill-rule="evenodd" style="fill: #184B42; stroke: #fff; opacity: 1;" id="p-type-logs"></path><path d="M129.28523745848662,-267.384231725251A297,297,0,0,1,130.9324016938392,-266.5815188393283L113.39078604537342,-230.8663674942982A257.2095449239783,257.2095449239783,0,0,0,111.96429997335292,-231.56153724545243Z" fill-rule="evenodd" style="fill: #184B42; stroke: #fff; opacity: 1;" id="p-type-logs"></path><path d="M130.9324016938392,-266.5815188393283A297,297,0,0,1,132.5745822509251,-265.76865906459454L114.81295612541068,-230.16241027966433A257.2095449239783,257.2095449239783,0,0,0,113.39078604537342,-230.8663674942982Z" fill-rule="evenodd" style="fill: #184B42; stroke: #fff; opacity: 1;" id="p-type-logs"></path><path d="M132.5745822509251,-265.76865906459454A297,297,0,0,1,134.21171662344753,-264.94568334092065L116.23075608142382,-229.44969239626485A257.2095449239783,257.2095449239783,0,0,0,114.81295612541068,-230.16241027966433Z" fill-rule="evenodd" style="fill: #184B42; stroke: #fff; opacity: 1;" id="p-type-logs"></path><path d="M134.21171662344753,-264.94568334092065A297,297,0,0,1,135.84374249718263,-264.1126229932207L117.64413194771191,-228.72824097227118A257.2095449239783,257.2095449239783,0,0,0,116.23075608142382,-229.44969239626485Z" fill-rule="evenodd" style="fill: #184B42; stroke: #fff; opacity: 1;" id="p-type-logs"></path><path d="M135.84374249718263,-264.1126229932207A297,297,0,0,1,137.47059775235135,-263.26950973025953L119.05302992696822,-227.99808346827922A257.2095449239783,257.2095449239783,0,0,0,117.64413194771191,-228.72824097227118Z" fill-rule="evenodd" style="fill: #184B42; stroke: #fff; opacity: 1;" id="p-type-logs"></path><path d="M137.47059775235135,-263.26950973025953A297,297,0,0,1,139.0922204659836,-262.4163756434461L120.45739639232761,-227.25924767626435A257.2095449239783,257.2095449239783,0,0,0,119.05302992696822,-227.99808346827922Z" fill-rule="evenodd" style="fill: #184B42; stroke: #fff; opacity: 1;" id="p-type-logs"></path><path d="M139.0922204659836,-262.4163756434461A297,297,0,0,1,140.70854891427555,-261.5532532056119L121.85717788940794,-226.51176171852356A257.2095449239783,257.2095449239783,0,0,0,120.45739639232761,-227.25924767626435Z" fill-rule="evenodd" style="fill: #184B42; stroke: #fff; opacity: 1;" id="p-type-logs"></path><path d="M140.70854891427555,-261.5532532056119A297,297,0,0,1,142.3195215749391,-260.6801752697747L123.25232113834475,-225.75565404660486A257.2095449239783,257.2095449239783,0,0,0,121.85717788940794,-226.51176171852356Z" fill-rule="evenodd" style="fill: #184B42; stroke: #fff; opacity: 1;" id="p-type-logs"></path><path d="M142.3195215749391,-260.6801752697747A297,297,0,0,1,143.92507712954313,-259.7971750678884L124.64277303581906,-224.9909534402246A257.2095449239783,257.2095449239783,0,0,0,123.25232113834475,-225.75565404660486Z" fill-rule="evenodd" style="fill: #184B42; stroke: #fff; opacity: 1;" id="p-type-logs"></path><path d="M143.92507712954313,-259.7971750678884A297,297,0,0,1,145.5251544658479,-258.90428620957806L126.02848065707875,-224.21768900617172A257.2095449239783,257.2095449239783,0,0,0,124.64277303581906,-224.9909534402246Z" fill-rule="evenodd" style="fill: #184B42; stroke: #fff; opacity: 1;" id="p-type-logs"></path><path d="M145.5251544658479,-258.90428620957806A297,297,0,0,1,147.11969268013107,-258.0015426808603L127.40939125795303,-223.43589017720015A257.2095449239783,257.2095449239783,0,0,0,126.02848065707875,-224.21768900617172Z" fill-rule="evenodd" style="fill: #184B42; stroke: #fff; opacity: 1;" id="p-type-logs"></path><path d="M147.11969268013107,-258.0015426808603A297,297,0,0,1,148.7086310795057,-257.0889788428502L128.78545227686004,-222.64558671090836A257.2095449239783,257.2095449239783,0,0,0,127.40939125795303,-223.43589017720015Z" fill-rule="evenodd" style="fill: #184B42; stroke: #fff; opacity: 1;" id="p-type-logs"></path><path d="M148.7086310795057,-257.0889788428502A297,297,0,0,1,150.29190918423063,-256.1666294304529L130.15661133680752,-221.84680868860664A257.2095449239783,257.2095449239783,0,0,0,128.78545227686004,-222.64558671090836Z" fill-rule="evenodd" style="fill: #184B42; stroke: #fff; opacity: 1;" id="p-type-logs"></path><path d="M150.29190918423063,-256.1666294304529A297,297,0,0,1,151.8694667300124,-255.23452955104187L131.52281624738637,-221.03958651417227A257.2095449239783,257.2095449239783,0,0,0,130.15661133680752,-221.84680868860664Z" fill-rule="evenodd" style="fill: #184B42; stroke: #fff; opacity: 1;" id="p-type-logs"></path><path d="M151.8694667300124,-255.23452955104187A297,297,0,0,1,153.4412436702991,-254.29271468312243L132.8840150067572,-220.22395091289215A257.2095449239783,257.2095449239783,0,0,0,131.52281624738637,-221.03958651417227Z" fill-rule="evenodd" style="fill: #184B42; stroke: #fff; opacity: 1;" id="p-type-logs"></path><path d="M153.4412436702991,-254.29271468312243A297,297,0,0,1,155.00718017856587,-253.34122067498137L134.24015580362976,-219.39993293029335A257.2095449239783,257.2095449239783,0,0,0,132.8840150067572,-220.22395091289215Z" fill-rule="evenodd" style="fill: #184B42; stroke: #fff; opacity: 1;" id="p-type-logs"></path><path d="M155.00718017856587,-253.34122067498137A297,297,0,0,1,156.56721665059226,-252.3800837433226L135.59118701923484,-218.56756393096137A257.2095449239783,257.2095449239783,0,0,0,134.24015580362976,-219.39993293029335Z" fill-rule="evenodd" style="fill: #184B42; stroke: #fff; opacity: 1;" id="p-type-logs"></path><path d="M156.56721665059226,-252.3800837433226A297,297,0,0,1,158.12129370673068,-251.4093404718882L136.93705722928925,-217.7268755973464A257.2095449239783,257.2095449239783,0,0,0,135.59118701923484,-218.56756393096137Z" fill-rule="evenodd" style="fill: #184B42; stroke: #fff; opacity: 1;" id="p-type-logs"></path><path d="M158.12129370673068,-251.4093404718882A297,297,0,0,1,159.6693521941669,-250.42902781006657L138.27771520595311,-216.87789992855733A257.2095449239783,257.2095449239783,0,0,0,136.93705722928925,-217.7268755973464Z" fill-rule="evenodd" style="fill: #184B42; stroke: #fff; opacity: 1;" id="p-type-logs"></path><path d="M159.6693521941669,-250.42902781006657A297,297,0,0,1,161.21133318917114,-249.43918307148547L139.61310991977962,-216.02066923914373A257.2095449239783,257.2095449239783,0,0,0,138.27771520595311,-216.87789992855733Z" fill-rule="evenodd" style="fill: #184B42; stroke: #fff; opacity: 1;" id="p-type-logs"></path><path d="M161.21133318917114,-249.43918307148547A297,297,0,0,1,162.74717799934137,-248.43984393259205L140.94319054165751,-215.15521615786596A257.2095449239783,257.2095449239783,0,0,0,139.61310991977962,-216.02066923914373Z" fill-rule="evenodd" style="fill: #184B42; stroke: #fff; opacity: 1;" id="p-type-logs"></path><path d="M162.74717799934137,-248.43984393259205A297,297,0,0,1,164.27682816583695,-247.4310484312187L142.2679064447458,-214.28157362645317A257.2095449239783,257.2095449239783,0,0,0,140.94319054165751,-215.15521615786596Z" fill-rule="evenodd" style="fill: #184B42; stroke: #fff; opacity: 1;" id="p-type-logs"></path><path d="M164.27682816583695,-247.4310484312187A297,297,0,0,1,165.8002254656039,-246.41283496513515L143.58720720640056,-213.39977489834942A257.2095449239783,257.2095449239783,0,0,0,142.2679064447458,-214.28157362645317Z" fill-rule="evenodd" style="fill: #184B42; stroke: #fff; opacity: 1;" id="p-type-logs"></path><path d="M165.8002254656039,-246.41283496513515A297,297,0,0,1,167.31731191359097,-245.38524229058706L144.9010426100945,-212.50985353744795A257.2095449239783,257.2095449239783,0,0,0,143.58720720640056,-213.39977489834942Z" fill-rule="evenodd" style="fill: #184B42; stroke: #fff; opacity: 1;" id="p-type-logs"></path><path d="M167.31731191359097,-245.38524229058706A297,297,0,0,1,168.82802976495697,-244.34830952082072L146.20936264732808,-211.61184341681377A257.2095449239783,257.2095449239783,0,0,0,144.9010426100945,-212.50985353744795Z" fill-rule="evenodd" style="fill: #184B42; stroke: #fff; opacity: 1;" id="p-type-logs"></path><path d="M168.82802976495697,-244.34830952082072A297,297,0,0,1,170.33232151726827,-243.30207612459446L147.51211751953306,-210.70577871739417A257.2095449239783,257.2095449239783,0,0,0,146.20936264732808,-211.61184341681377Z" fill-rule="evenodd" style="fill: #184B42; stroke: #fff; opacity: 1;" id="p-type-logs"></path><path d="M170.33232151726827,-243.30207612459446A297,297,0,0,1,171.83012991268794,-242.24658192467604L148.8092576399681,-209.79169392671767A257.2095449239783,257.2095449239783,0,0,0,147.51211751953306,-210.70577871739417Z" fill-rule="evenodd" style="fill: #184B42; stroke: #fff; opacity: 1;" id="p-type-logs"></path><path d="M171.83012991268794,-242.24658192467604A297,297,0,0,1,173.3213979401549,-241.18186709632727L150.10073363560602,-208.86962383758163A257.2095449239783,257.2095449239783,0,0,0,148.8092576399681,-209.79169392671767Z" fill-rule="evenodd" style="fill: #184B42; stroke: #fff; opacity: 1;" id="p-type-logs"></path><path d="M173.3213979401549,-241.18186709632727A297,297,0,0,1,174.80606883755408,-240.1079721657744L151.38649634901316,-207.93960354672757A257.2095449239783,257.2095449239783,0,0,0,150.10073363560602,-208.86962383758163Z" fill-rule="evenodd" style="fill: #184B42; stroke: #fff; opacity: 1;" id="p-type-logs"></path><path d="M174.80606883755408,-240.1079721657744A297,297,0,0,1,176.2840860938767,-239.02493800866606L152.66649684022033,-207.00166845350546A257.2095449239783,257.2095449239783,0,0,0,151.38649634901316,-207.93960354672757Z" fill-rule="evenodd" style="fill: #184B42; stroke: #fff; opacity: 1;" id="p-type-logs"></path><path d="M176.2840860938767,-239.02493800866606A297,297,0,0,1,177.75539345137173,-237.93280584851686L153.940686388586,-206.05585425852627A257.2095449239783,257.2095449239783,0,0,0,152.66649684022033,-207.00166845350546Z" fill-rule="evenodd" style="fill: #184B42; stroke: #fff; opacity: 1;" id="p-type-logs"></path><path d="M177.75539345137173,-237.93280584851686A297,297,0,0,1,179.21993490768665,-236.83161725513878L155.20901649465014,-205.1021969623032A257.2095449239783,257.2095449239783,0,0,0,153.940686388586,-206.05585425852627Z" fill-rule="evenodd" style="fill: #184B42; stroke: #fff; opacity: 1;" id="p-type-logs"></path><path d="M179.21993490768665,-236.83161725513878A297,297,0,0,1,180.6776547179995,-235.7214141430586L156.4714388819809,-204.14073286388123A257.2095449239783,257.2095449239783,0,0,0,155.20901649465014,-205.1021969623032Z" fill-rule="evenodd" style="fill: #184B42; stroke: #fff; opacity: 1;" id="p-type-logs"></path><path d="M180.6776547179995,-235.7214141430586A297,297,0,0,1,182.12849739714048,-234.60223876992265L157.72790549901168,-203.17149855945556A257.2095449239783,257.2095449239783,0,0,0,156.4714388819809,-204.14073286388123Z" fill-rule="evenodd" style="fill: #184B42; stroke: #fff; opacity: 1;" id="p-type-logs"></path><path d="M182.12849739714048,-234.60223876992265A297,297,0,0,1,183.57240772170397,-233.47413373488823L158.9783685208703,-202.1945309409786A257.2095449239783,257.2095449239783,0,0,0,157.72790549901168,-203.17149855945556Z" fill-rule="evenodd" style="fill: #184B42; stroke: #fff; opacity: 1;" id="p-type-logs"></path><path d="M183.57240772170397,-233.47413373488823A297,297,0,0,1,185.0093307321505,-232.33714197700237L160.2227803511994,-201.20986719475593A257.2095449239783,257.2095449239783,0,0,0,158.9783685208703,-202.1945309409786Z" fill-rule="evenodd" style="fill: #184B42; stroke: #fff; opacity: 1;" id="p-type-logs"></path><path d="M185.0093307321505,-232.33714197700237A297,297,0,0,1,186.43921173489855,-231.1913067735672L161.46109362396797,-200.21754480003057A257.2095449239783,257.2095449239783,0,0,0,160.2227803511994,-201.20986719475593Z" fill-rule="evenodd" style="fill: #184B42; stroke: #fff; opacity: 1;" id="p-type-logs"></path><path d="M186.43921173489855,-231.1913067735672A297,297,0,0,1,187.86199630440655,-230.03667173849294L162.6932612052744,-199.21760152755672A257.2095449239783,257.2095449239783,0,0,0,161.46109362396797,-200.21754480003057Z" fill-rule="evenodd" style="fill: #184B42; stroke: #fff; opacity: 1;" id="p-type-logs"></path><path d="M187.86199630440655,-230.03667173849294A297,297,0,0,1,189.27763028524427,-228.87328082063746L163.91923619514037,-198.2100754381618A257.2095449239783,257.2095449239783,0,0,0,162.6932612052744,-199.21760152755672Z" fill-rule="evenodd" style="fill: #184B42; stroke: #fff; opacity: 1;" id="p-type-logs"></path><path d="M189.27763028524427,-228.87328082063746A297,297,0,0,1,190.68605979415435,-227.70117830213394L165.13897192929613,-197.19500488129802A257.2095449239783,257.2095449239783,0,0,0,163.91923619514037,-198.2100754381618Z" fill-rule="evenodd" style="fill: #184B42; stroke: #fff; opacity: 1;" id="p-type-logs"></path><path d="M190.68605979415435,-227.70117830213394A297,297,0,0,1,192.0872312221031,-226.52040879670488L166.35242198095668,-196.17242849358246A257.2095449239783,257.2095449239783,0,0,0,165.13897192929613,-197.19500488129802Z" fill-rule="evenodd" style="fill: #184B42; stroke: #fff; opacity: 1;" id="p-type-logs"></path><path d="M192.0872312221031,-226.52040879670488A297,297,0,0,1,193.48109123632105,-225.33101724796435L167.55954016258877,-195.14238519732663A257.2095449239783,257.2095449239783,0,0,0,166.35242198095668,-196.17242849358246Z" fill-rule="evenodd" style="fill: #184B42; stroke: #fff; opacity: 1;" id="p-type-logs"></path><path d="M193.48109123632105,-225.33101724796435A297,297,0,0,1,194.867586782333,-224.13304892770708L168.76028052766907,-194.10491419905486A257.2095449239783,257.2095449239783,0,0,0,167.55954016258877,-195.14238519732663Z" fill-rule="evenodd" style="fill: #184B42; stroke: #fff; opacity: 1;" id="p-type-logs"></path><path d="M194.867586782333,-224.13304892770708A297,297,0,0,1,196.24666508597736,-222.92654943418523L169.95459737243303,-193.0600549880119A257.2095449239783,257.2095449239783,0,0,0,168.76028052766907,-194.10491419905486Z" fill-rule="evenodd" style="fill: #184B42; stroke: #fff; opacity: 1;" id="p-type-logs"></path><path d="M196.24666508597736,-222.92654943418523A297,297,0,0,1,197.61827365541504,-221.71156469037314L171.1424452376145,-192.00784733466008A257.2095449239783,257.2095449239783,0,0,0,169.95459737243303,-193.0600549880119Z" fill-rule="evenodd" style="fill: #184B42; stroke: #fff; opacity: 1;" id="p-type-logs"></path><path d="M197.61827365541504,-221.71156469037314A297,297,0,0,1,198.98236028312718,-220.48814094221885L172.3237789101759,-190.94833128916528A257.2095449239783,257.2095449239783,0,0,0,171.1424452376145,-192.00784733466008Z" fill-rule="evenodd" style="fill: #184B42; stroke: #fff; opacity: 1;" id="p-type-logs"></path><path d="M198.98236028312718,-220.48814094221885A297,297,0,0,1,200.33887304790272,-219.25632475688434L173.49855342502934,-189.88154717987277A257.2095449239783,257.2095449239783,0,0,0,172.3237789101759,-190.94833128916528Z" fill-rule="evenodd" style="fill: #184B42; stroke: #fff; opacity: 1;" id="p-type-logs"></path><path d="M200.33887304790272,-219.25632475688434A297,297,0,0,1,201.6877603168142,-218.01616302097258L174.66672406674812,-188.8075356117718A257.2095449239783,257.2095449239783,0,0,0,173.49855342502934,-189.88154717987277Z" fill-rule="evenodd" style="fill: #184B42; stroke: #fff; opacity: 1;" id="p-type-logs"></path><path d="M201.6877603168142,-218.01616302097258A297,297,0,0,1,203.02897074718348,-216.7677029387434L175.82824637126856,-187.72633746495052A257.2095449239783,257.2095449239783,0,0,0,174.66672406674812,-188.8075356117718Z" fill-rule="evenodd" style="fill: #184B42; stroke: #fff; opacity: 1;" id="p-type-logs"></path><path d="M203.02897074718348,-216.7677029387434A297,297,0,0,1,204.36245328853573,-215.51099203031626L176.98307612758265,-186.63799389303958A257.2095449239783,257.2095449239783,0,0,0,175.82824637126856,-187.72633746495052Z" fill-rule="evenodd" style="fill: #184B42; stroke: #fff; opacity: 1;" id="p-type-logs"></path><path d="M204.36245328853573,-215.51099203031626A297,297,0,0,1,205.68815718454272,-214.2460781298618L178.1311693794207,-185.54254632164594A257.2095449239783,257.2095449239783,0,0,0,176.98307612758265,-186.63799389303958Z" fill-rule="evenodd" style="fill: #184B42; stroke: #fff; opacity: 1;" id="p-type-logs"></path><path d="M205.68815718454272,-214.2460781298618A297,297,0,0,1,207.00603197495465,-212.97300938378098L179.2724824269245,-184.44003644677596A257.2095449239783,257.2095449239783,0,0,0,178.1311693794207,-185.54254632164594Z" fill-rule="evenodd" style="fill: #184B42; stroke: #fff; opacity: 1;" id="p-type-logs"></path><path d="M207.00603197495465,-212.97300938378098A297,297,0,0,1,208.31602749752082,-211.69183424887257L180.4069718283107,-183.33050623324834A257.2095449239783,257.2095449239783,0,0,0,179.2724824269245,-184.44003644677596Z" fill-rule="evenodd" style="fill: #184B42; stroke: #fff; opacity: 1;" id="p-type-logs"></path><path d="M208.31602749752082,-211.69183424887257A297,297,0,0,1,209.61809388989917,-210.40260149048873L181.5345944015243,-182.21399791309685A257.2095449239783,257.2095449239783,0,0,0,180.4069718283107,-183.33050623324834Z" fill-rule="evenodd" style="fill: #184B42; stroke: #fff; opacity: 1;" id="p-type-logs"></path><path d="M209.61809388989917,-210.40260149048873A297,297,0,0,1,210.9121815915538,-209.1053601806789L182.65530722588224,-181.0905539839629A257.2095449239783,257.2095449239783,0,0,0,181.5345944015243,-182.21399791309685Z" fill-rule="evenodd" style="fill: #184B42; stroke: #fff; opacity: 1;" id="p-type-logs"></path><path d="M210.9121815915538,-209.1053601806789A297,297,0,0,1,212.19824134564175,-207.80015969632166L183.76906764370716,-179.9602172074778A257.2095449239783,257.2095449239783,0,0,0,182.65530722588224,-181.0905539839629Z" fill-rule="evenodd" style="fill: #184B42; stroke: #fff; opacity: 1;" id="p-type-logs"></path><path d="M212.19824134564175,-207.80015969632166A297,297,0,0,1,213.47622420088763,-206.48704971724584L184.87583326195107,-178.82303060763527A257.2095449239783,257.2095449239783,0,0,0,183.76906764370716,-179.9602172074778Z" fill-rule="evenodd" style="fill: #184B42; stroke: #fff; opacity: 1;" id="p-type-logs"></path><path d="M213.47622420088763,-206.48704971724584A297,297,0,0,1,214.74608151344708,-205.16608022433908L185.97556195380898,-177.6790374691538A257.2095449239783,257.2095449239783,0,0,0,184.87583326195107,-178.82303060763527Z" fill-rule="evenodd" style="fill: #184B42; stroke: #fff; opacity: 1;" id="p-type-logs"></path><path d="M214.74608151344708,-205.16608022433908A297,297,0,0,1,216.00776494875805,-203.83730149764563L187.06821186032232,-176.52828133582892A257.2095449239783,257.2095449239783,0,0,0,185.97556195380898,-177.6790374691538Z" fill-rule="evenodd" style="fill: #184B42; stroke: #fff; opacity: 1;" id="p-type-logs"></path><path d="M216.00776494875805,-203.83730149764563A297,297,0,0,1,217.26122648338068,-202.5007641144526L188.15374139197212,-175.37080600887617A257.2095449239783,257.2095449239783,0,0,0,187.06821186032232,-176.52828133582892Z" fill-rule="evenodd" style="fill: #184B42; stroke: #fff; opacity: 1;" id="p-type-logs"></path><path d="M217.26122648338068,-202.5007641144526A297,297,0,0,1,218.50641840682522,-201.15651894736456L189.23210923026232,-174.2066555452635A257.2095449239783,257.2095449239783,0,0,0,188.15374139197212,-175.37080600887617Z" fill-rule="evenodd" style="fill: #184B42; stroke: #fff; opacity: 1;" id="p-type-logs"></path><path d="M218.50641840682522,-201.15651894736456A297,297,0,0,1,219.74329332336802,-199.8046171623675L190.30327432929215,-173.03587425603448A257.2095449239783,257.2095449239783,0,0,0,189.23210923026232,-174.2066555452635Z" fill-rule="evenodd" style="fill: #184B42; stroke: #fff; opacity: 1;" id="p-type-logs"></path><path d="M219.74329332336802,-199.8046171623675A297,297,0,0,1,220.9718041538556,-198.4451102168811L191.3671959173187,-171.85850670462187A257.2095449239783,257.2095449239783,0,0,0,190.30327432929215,-173.03587425603448Z" fill-rule="evenodd" style="fill: #184B42; stroke: #fff; opacity: 1;" id="p-type-logs"></path><path d="M220.9718041538556,-198.4451102168811A297,297,0,0,1,222.1919041374965,-197.07804985780015L192.4238334983087,-170.67459770515111A257.2095449239783,257.2095449239783,0,0,0,191.3671959173187,-171.85850670462187Z" fill-rule="evenodd" style="fill: #184B42; stroke: #fff; opacity: 1;" id="p-type-logs"></path><path d="M222.1919041374965,-197.07804985780015A297,297,0,0,1,223.40354683364126,-195.703488119525L193.47314685347993,-169.48419232073473A257.2095449239783,257.2095449239783,0,0,0,192.4238334983087,-170.67459770515111Z" fill-rule="evenodd" style="fill: #184B42; stroke: #fff; opacity: 1;" id="p-type-logs"></path><path d="M223.40354683364126,-195.703488119525A297,297,0,0,1,224.60668612355005,-194.32147732198072L194.5150960428321,-168.28733586175701A257.2095449239783,257.2095449239783,0,0,0,193.47314685347993,-169.48419232073473Z" fill-rule="evenodd" style="fill: #184B42; stroke: #fff; opacity: 1;" id="p-type-logs"></path><path d="M224.60668612355005,-194.32147732198072A297,297,0,0,1,225.80127621214803,-192.9320700686261L195.54964140666706,-167.08407388414952A257.2095449239783,257.2095449239783,0,0,0,194.5150960428321,-168.28733586175701Z" fill-rule="evenodd" style="fill: #184B42; stroke: #fff; opacity: 1;" id="p-type-logs"></path><path d="M293.3623410353358,46.34152416858272A297,297,0,0,1,293.0708542756196,48.150538669453624L253.80680491149383,41.6995896936518A257.2095449239783,257.2095449239783,0,0,0,254.05923985027488,40.132937180083175Z" fill-rule="evenodd" style="fill: #AE497E; stroke: #fff; opacity: 1;" id="p-type-tokenTransfers"></path><path d="M293.0708542756196,48.150538669453624A297,297,0,0,1,292.7682123638695,49.957720417010655L253.5447093276684,43.26465499629175A257.2095449239783,257.2095449239783,0,0,0,253.80680491149383,41.6995896936518Z" fill-rule="evenodd" style="fill: #AE497E; stroke: #fff; opacity: 1;" id="p-type-tokenTransfers"></path><path d="M292.7682123638695,49.957720417010655A297,297,0,0,1,292.45442681954063,51.76300062451898L253.27296307493924,44.8280735169432A257.2095449239783,257.2095449239783,0,0,0,253.5447093276684,43.26465499629175Z" fill-rule="evenodd" style="fill: #AE497E; stroke: #fff; opacity: 1;" id="p-type-tokenTransfers"></path><path d="M292.45442681954063,51.76300062451898A297,297,0,0,1,292.12950958624793,53.56631057762201L252.99157649678043,46.389785747227755A257.2095449239783,257.2095449239783,0,0,0,253.27296307493924,44.8280735169432Z" fill-rule="evenodd" style="fill: #AE497E; stroke: #fff; opacity: 1;" id="p-type-tokenTransfers"></path><path d="M292.12950958624793,53.56631057762201A297,297,0,0,1,291.7934730313118,55.36758163695698L252.70056030360553,47.94973224371354A257.2095449239783,257.2095449239783,0,0,0,252.99157649678043,46.389785747227755Z" fill-rule="evenodd" style="fill: #AE497E; stroke: #fff; opacity: 1;" id="p-type-tokenTransfers"></path><path d="M291.7934730313118,55.36758163695698A297,297,0,0,1,291.4463299452872,57.16674524076746L252.39992557236008,49.50785363017778A257.2095449239783,257.2095449239783,0,0,0,252.70056030360553,47.94973224371354Z" fill-rule="evenodd" style="fill: #AE497E; stroke: #fff; opacity: 1;" id="p-type-tokenTransfers"></path><path d="M291.4463299452872,57.16674524076746A297,297,0,0,1,291.0880935414766,58.9637329075131L252.08968374609975,51.06409059986682A257.2095449239783,257.2095449239783,0,0,0,252.39992557236008,49.50785363017778Z" fill-rule="evenodd" style="fill: #AE497E; stroke: #fff; opacity: 1;" id="p-type-tokenTransfers"></path><path d="M291.0880935414766,58.9637329075131A297,297,0,0,1,290.71877745542776,60.75847623847621L251.7698466335552,52.61838391775358A257.2095449239783,257.2095449239783,0,0,0,252.08968374609975,51.06409059986682Z" fill-rule="evenodd" style="fill: #AE497E; stroke: #fff; opacity: 1;" id="p-type-tokenTransfers"></path><path d="M290.71877745542776,60.75847623847621A297,297,0,0,1,290.33839574441373,62.55090692036522L251.44042640868204,54.17067442279213A257.2095449239783,257.2095449239783,0,0,0,251.7698466335552,52.61838391775358Z" fill-rule="evenodd" style="fill: #AE497E; stroke: #fff; opacity: 1;" id="p-type-tokenTransfers"></path><path d="M290.33839574441373,62.55090692036522A297,297,0,0,1,289.9469628868987,64.34095672791489L251.10143561019805,55.72090303016959A257.2095449239783,257.2095449239783,0,0,0,251.44042640868204,54.17067442279213Z" fill-rule="evenodd" style="fill: #AE497E; stroke: #fff; opacity: 1;" id="p-type-tokenTransfers"></path><path d="M289.9469628868987,64.34095672791489A297,297,0,0,1,289.54449378198615,66.12855752648316L250.75288714110545,57.26901073355507A257.2095449239783,257.2095449239783,0,0,0,251.10143561019805,55.72090303016959Z" fill-rule="evenodd" style="fill: #AE497E; stroke: #fff; opacity: 1;" id="p-type-tokenTransfers"></path><path d="M289.54449378198615,66.12855752648316A297,297,0,0,1,289.1310037488524,67.91364127464462L250.39479426819995,58.814938607345624A257.2095449239783,257.2095449239783,0,0,0,250.75288714110545,57.26901073355507Z" fill-rule="evenodd" style="fill: #AE497E; stroke: #fff; opacity: 1;" id="p-type-tokenTransfers"></path><path d="M289.1310037488524,67.91364127464462A297,297,0,0,1,288.706508526163,69.69614002678021L250.02717062156583,60.35862780890911A257.2095449239783,257.2095449239783,0,0,0,250.39479426819995,58.814938607345624Z" fill-rule="evenodd" style="fill: #AE497E; stroke: #fff; opacity: 1;" id="p-type-tokenTransfers"></path><path d="M288.706508526163,69.69614002678021A297,297,0,0,1,288.2710242714741,71.47598593566364L249.65003019405708,61.900019580823965A257.2095449239783,257.2095449239783,0,0,0,250.02717062156583,60.35862780890911Z" fill-rule="evenodd" style="fill: #AE497E; stroke: #fff; opacity: 1;" id="p-type-tokenTransfers"></path><path d="M288.2710242714741,71.47598593566364A297,297,0,0,1,287.824567560617,73.2531112550437L249.2633873407648,63.43905525311564A257.2095449239783,257.2095449239783,0,0,0,249.65003019405708,61.900019580823965Z" fill-rule="evenodd" style="fill: #AE497E; stroke: #fff; opacity: 1;" id="p-type-tokenTransfers"></path><path d="M287.824567560617,73.2531112550437A297,297,0,0,1,287.3671553870676,75.02744834222298L248.86725677847076,64.97567624548978A257.2095449239783,257.2095449239783,0,0,0,249.2633873407648,63.43905525311564Z" fill-rule="evenodd" style="fill: #AE497E; stroke: #fff; opacity: 1;" id="p-type-tokenTransfers"></path><path d="M287.3671553870676,75.02744834222298A297,297,0,0,1,286.8988051612994,76.79892966063248L248.4616535850873,66.50982406956196A257.2095449239783,257.2095449239783,0,0,0,248.86725677847076,64.97567624548978Z" fill-rule="evenodd" style="fill: #AE497E; stroke: #fff; opacity: 1;" id="p-type-tokenTransfers"></path><path d="M286.8988051612994,76.79892966063248A297,297,0,0,1,286.41953471012073,78.56748778240234L248.04659319908336,68.04144033108393A257.2095449239783,257.2095449239783,0,0,0,248.4616535850873,66.50982406956196Z" fill-rule="evenodd" style="fill: #AE497E; stroke: #fff; opacity: 1;" id="p-type-tokenTransfers"></path><path d="M286.41953471012073,78.56748778240234A297,297,0,0,1,285.9293622759965,80.33305539092821L247.6220914188969,69.57046673216628A257.2095449239783,257.2095449239783,0,0,0,248.04659319908336,68.04144033108393Z" fill-rule="evenodd" style="fill: #AE497E; stroke: #fff; opacity: 1;" id="p-type-tokenTransfers"></path><path d="M285.9293622759965,80.33305539092821A297,297,0,0,1,285.4283065163536,82.09556528343369L247.18816440233363,71.0968450734974A257.2095449239783,257.2095449239783,0,0,0,247.6220914188969,69.57046673216628Z" fill-rule="evenodd" style="fill: #AE497E; stroke: #fff; opacity: 1;" id="p-type-tokenTransfers"></path><path d="M285.4283065163536,82.09556528343369A297,297,0,0,1,284.9163865028706,83.85495037352813L246.7448286659517,72.62051725655876A257.2095449239783,257.2095449239783,0,0,0,247.18816440233363,71.0968450734974Z" fill-rule="evenodd" style="fill: #AE497E; stroke: #fff; opacity: 1;" id="p-type-tokenTransfers"></path><path d="M284.9163865028706,83.85495037352813A297,297,0,0,1,284.39362172075226,85.61114369376023L246.2921010844334,74.1414252858363A257.2095449239783,257.2095449239783,0,0,0,246.7448286659517,72.62051725655876Z" fill-rule="evenodd" style="fill: #AE497E; stroke: #fff; opacity: 1;" id="p-type-tokenTransfers"></path><path d="M284.39362172075226,85.61114369376023A297,297,0,0,1,283.86003206798756,87.36407839816695L245.82999888994266,75.65951127102788A257.2095449239783,257.2095449239783,0,0,0,246.2921010844334,74.1414252858363Z" fill-rule="evenodd" style="fill: #AE497E; stroke: #fff; opacity: 1;" id="p-type-tokenTransfers"></path><path d="M283.86003206798756,87.36407839816695A297,297,0,0,1,283.3156378545924,89.11368776481794L245.35853967146917,77.17471742924685A257.2095449239783,257.2095449239783,0,0,0,245.82999888994266,75.65951127102788Z" fill-rule="evenodd" style="fill: #AE497E; stroke: #fff; opacity: 1;" id="p-type-tokenTransfers"></path><path d="M283.3156378545924,89.11368776481794A297,297,0,0,1,282.76045980183636,90.85990519835511L244.8777413741589,78.6869860872213A257.2095449239783,257.2095449239783,0,0,0,245.35853967146917,77.17471742924685Z" fill-rule="evenodd" style="fill: #AE497E; stroke: #fff; opacity: 1;" id="p-type-tokenTransfers"></path><path d="M282.76045980183636,90.85990519835511A297,297,0,0,1,282.19451904145444,92.60266423252745L244.38762229863102,80.19625968348937A257.2095449239783,257.2095449239783,0,0,0,244.8777413741589,78.6869860872213Z" fill-rule="evenodd" style="fill: #AE497E; stroke: #fff; opacity: 1;" id="p-type-tokenTransfers"></path><path d="M282.19451904145444,92.60266423252745A297,297,0,0,1,281.61783711484213,94.341898532721L243.88820110028146,81.70248077059026A257.2095449239783,257.2095449239783,0,0,0,244.38762229863102,80.19625968348937Z" fill-rule="evenodd" style="fill: #AE497E; stroke: #fff; opacity: 1;" id="p-type-tokenTransfers"></path><path d="M281.61783711484213,94.341898532721A297,297,0,0,1,281.0304359722361,96.07754189848374L243.3794967885726,83.20559201725071A257.2095449239783,257.2095449239783,0,0,0,243.88820110028146,81.70248077059026Z" fill-rule="evenodd" style="fill: #AE497E; stroke: #fff; opacity: 1;" id="p-type-tokenTransfers"></path><path d="M281.0304359722361,96.07754189848374A297,297,0,0,1,280.43233797187816,97.80952826604523L242.86152872630996,84.70553621056729A257.2095449239783,257.2095449239783,0,0,0,243.3794967885726,83.20559201725071Z" fill-rule="evenodd" style="fill: #AE497E; stroke: #fff; opacity: 1;" id="p-type-tokenTransfers"></path><path d="M280.43233797187816,97.80952826604523A297,297,0,0,1,279.82356587916456,99.5377917108314L242.33431662890496,86.20225625818412A257.2095449239783,257.2095449239783,0,0,0,242.86152872630996,84.70553621056729Z" fill-rule="evenodd" style="fill: #AE497E; stroke: #fff; opacity: 1;" id="p-type-tokenTransfers"></path><path d="M279.82356587916456,99.5377917108314A297,297,0,0,1,279.2041428657794,101.26226644997368L241.7978805636247,87.69569519046587A257.2095449239783,257.2095449239783,0,0,0,242.33431662890496,86.20225625818412Z" fill-rule="evenodd" style="fill: #AE497E; stroke: #fff; opacity: 1;" id="p-type-tokenTransfers"></path><path d="M279.2041428657794,101.26226644997368A297,297,0,0,1,278.57409250881256,102.98288684481301L241.25224094882796,89.18579616266634A257.2095449239783,257.2095449239783,0,0,0,241.7978805636247,87.69569519046587Z" fill-rule="evenodd" style="fill: #AE497E; stroke: #fff; opacity: 1;" id="p-type-tokenTransfers"></path><path d="M278.57409250881256,102.98288684481301A297,297,0,0,1,277.9334387898624,104.69958740339811L240.69741855318816,90.67250245709198A257.2095449239783,257.2095449239783,0,0,0,241.25224094882796,89.18579616266634Z" fill-rule="evenodd" style="fill: #AE497E; stroke: #fff; opacity: 1;" id="p-type-tokenTransfers"></path><path d="M277.9334387898624,104.69958740339811A297,297,0,0,1,277.282206094123,106.41230278297847L240.13343449490284,92.15575748526088A257.2095449239783,257.2095449239783,0,0,0,240.69741855318816,90.67250245709198Z" fill-rule="evenodd" style="fill: #AE497E; stroke: #fff; opacity: 1;" id="p-type-tokenTransfers"></path><path d="M277.282206094123,106.41230278297847A297,297,0,0,1,276.6204192094558,108.12096779249129L239.56031024088963,93.63550479005656A257.2095449239783,257.2095449239783,0,0,0,240.13343449490284,92.15575748526088Z" fill-rule="evenodd" style="fill: #AE497E; stroke: #fff; opacity: 1;" id="p-type-tokenTransfers"></path><path d="M276.6204192094558,108.12096779249129A297,297,0,0,1,275.94810332544614,109.82551739504305L238.97806760596947,95.11168804787705A257.2095449239783,257.2095449239783,0,0,0,239.56031024088963,93.63550479005656Z" fill-rule="evenodd" style="fill: #AE497E; stroke: #fff; opacity: 1;" id="p-type-tokenTransfers"></path><path d="M275.94810332544614,109.82551739504305A297,297,0,0,1,275.26528403244464,111.52588671038485L238.38672875203605,96.5842510707786A257.2095449239783,257.2095449239783,0,0,0,238.97806760596947,95.11168804787705Z" fill-rule="evenodd" style="fill: #AE497E; stroke: #fff; opacity: 1;" id="p-type-tokenTransfers"></path><path d="M275.26528403244464,111.52588671038485A297,297,0,0,1,274.5719873205929,113.22201101738202L237.78631618721224,98.05313780861442A257.2095449239783,257.2095449239783,0,0,0,238.38672875203605,96.5842510707786Z" fill-rule="evenodd" style="fill: #AE497E; stroke: #fff; opacity: 1;" id="p-type-tokenTransfers"></path><path d="M274.5719873205929,113.22201101738202A297,297,0,0,1,273.8682395788345,114.91382575647759L237.17685276499355,99.51829235116813A257.2095449239783,257.2095449239783,0,0,0,237.78631618721224,98.05313780861442Z" fill-rule="evenodd" style="fill: #AE497E; stroke: #fff; opacity: 1;" id="p-type-tokenTransfers"></path><path d="M273.8682395788345,114.91382575647759A297,297,0,0,1,273.1540675939105,116.60126653214965L236.55836168337817,100.97965893028186A257.2095449239783,257.2095449239783,0,0,0,237.17685276499355,99.51829235116813Z" fill-rule="evenodd" style="fill: #AE497E; stroke: #fff; opacity: 1;" id="p-type-tokenTransfers"></path><path d="M273.1540675939105,116.60126653214965A297,297,0,0,1,272.4294985493394,118.2842691153623L235.93086648398386,102.43718192197885A257.2095449239783,257.2095449239783,0,0,0,236.55836168337817,100.97965893028186Z" fill-rule="evenodd" style="fill: #AE497E; stroke: #fff; opacity: 1;" id="p-type-tokenTransfers"></path><path d="M272.4294985493394,118.2842691153623A297,297,0,0,1,271.69456002438346,119.96276944601063L235.29439105115208,103.89080584858087A257.2095449239783,257.2095449239783,0,0,0,235.93086648398386,102.43718192197885Z" fill-rule="evenodd" style="fill: #AE497E; stroke: #fff; opacity: 1;" id="p-type-tokenTransfers"></path><path d="M271.69456002438346,119.96276944601063A297,297,0,0,1,270.94927999299773,121.63670363535881L234.6489596110388,105.34047538081971A257.2095449239783,257.2095449239783,0,0,0,235.29439105115208,103.89080584858087Z" fill-rule="evenodd" style="fill: #AE497E; stroke: #fff; opacity: 1;" id="p-type-tokenTransfers"></path><path d="M270.94927999299773,121.63670363535881A297,297,0,0,1,270.19368682276627,123.30600796847206L233.99459673069234,106.78613533994323A257.2095449239783,257.2095449239783,0,0,0,234.6489596110388,105.34047538081971Z" fill-rule="evenodd" style="fill: #AE497E; stroke: #fff; opacity: 1;" id="p-type-tokenTransfers"></path><path d="M270.19368682276627,123.30600796847206A297,297,0,0,1,269.4278092738219,124.9706189066416L233.33132731711834,108.22773069981551A257.2095449239783,257.2095449239783,0,0,0,233.99459673069234,106.78613533994323Z" fill-rule="evenodd" style="fill: #AE497E; stroke: #fff; opacity: 1;" id="p-type-tokenTransfers"></path><path d="M269.4278092738219,124.9706189066416A297,297,0,0,1,268.6516764977515,126.63047308980359L232.65917661633165,109.66520658901165A257.2095449239783,257.2095449239783,0,0,0,233.33132731711834,108.22773069981551Z" fill-rule="evenodd" style="fill: #AE497E; stroke: #fff; opacity: 1;" id="p-type-tokenTransfers"></path><path d="M268.6516764977515,126.63047308980359A297,297,0,0,1,267.86531803648666,128.2855073389502L231.97817021239547,111.09850829290592A257.2095449239783,257.2095449239783,0,0,0,232.65917661633165,109.66520658901165Z" fill-rule="evenodd" style="fill: #AE497E; stroke: #fff; opacity: 1;" id="p-type-tokenTransfers"></path><path d="M267.86531803648666,128.2855073389502A297,297,0,0,1,267.06876382117906,129.93565865853478L231.2883340264475,112.52758125575457A257.2095449239783,257.2095449239783,0,0,0,231.97817021239547,111.09850829290592Z" fill-rule="evenodd" style="fill: #AE497E; stroke: #fff; opacity: 1;" id="p-type-tokenTransfers"></path><path d="M267.06876382117906,129.93565865853478A297,297,0,0,1,266.26204417106123,131.5808642388696L230.5896943157134,113.95237108277243A257.2095449239783,257.2095449239783,0,0,0,231.2883340264475,112.52758125575457Z" fill-rule="evenodd" style="fill: #AE497E; stroke: #fff; opacity: 1;" id="p-type-tokenTransfers"></path><path d="M266.26204417106123,131.5808642388696A297,297,0,0,1,265.4451897922925,133.22106145851646L229.88227767250706,115.37282354220324A257.2095449239783,257.2095449239783,0,0,0,230.5896943157134,113.95237108277243Z" fill-rule="evenodd" style="fill: #AE497E; stroke: #fff; opacity: 1;" id="p-type-tokenTransfers"></path><path d="M265.4451897922925,133.22106145851646A297,297,0,0,1,264.6182317767902,134.8561878866704L229.1661110232189,116.78888456738387A257.2095449239783,257.2095449239783,0,0,0,229.88227767250706,115.37282354220324Z" fill-rule="evenodd" style="fill: #AE497E; stroke: #fff; opacity: 1;" id="p-type-tokenTransfers"></path><path d="M264.6182317767902,134.8561878866704A297,297,0,0,1,263.7812016010463,136.48618128553593L228.44122162729053,118.20050025880235A257.2095449239783,257.2095449239783,0,0,0,229.1661110232189,116.78888456738387Z" fill-rule="evenodd" style="fill: #AE497E; stroke: #fff; opacity: 1;" id="p-type-tokenTransfers"></path><path d="M263.7812016010463,136.48618128553593A297,297,0,0,1,262.93413112492925,138.11097961269593L227.7076370761774,119.60761688614939A257.2095449239783,257.2095449239783,0,0,0,228.44122162729053,118.20050025880235Z" fill-rule="evenodd" style="fill: #AE497E; stroke: #fff; opacity: 1;" id="p-type-tokenTransfers"></path><path d="M262.93413112492925,138.11097961269593A297,297,0,0,1,262.0770525904714,139.73052102347324L226.96538529229855,121.01018089036342A257.2095449239783,257.2095449239783,0,0,0,227.7076370761774,119.60761688614939Z" fill-rule="evenodd" style="fill: #AE497E; stroke: #fff; opacity: 1;" id="p-type-tokenTransfers"></path><path d="M262.0770525904714,139.73052102347324A297,297,0,0,1,261.20999862064156,141.3447438732847L226.21449452797376,122.40813888566944A257.2095449239783,257.2095449239783,0,0,0,226.96538529229855,121.01018089036342Z" fill-rule="evenodd" style="fill: #AE497E; stroke: #fff; opacity: 1;" id="p-type-tokenTransfers"></path><path d="M261.20999862064156,141.3447438732847A297,297,0,0,1,260.33300221810345,142.95358671998736L225.4549933643482,123.8014376616108A257.2095449239783,257.2095449239783,0,0,0,226.21449452797376,122.40813888566944Z" fill-rule="evenodd" style="fill: #AE497E; stroke: #fff; opacity: 1;" id="p-type-tokenTransfers"></path><path d="M260.33300221810345,142.95358671998736A297,297,0,0,1,259.44609676395953,144.55698832621732L224.68691071030463,125.19002418507475A257.2095449239783,257.2095449239783,0,0,0,225.4549933643482,123.8014376616108Z" fill-rule="evenodd" style="fill: #AE497E; stroke: #fff; opacity: 1;" id="p-type-tokenTransfers"></path><path d="M259.44609676395953,144.55698832621732A297,297,0,0,1,258.54931601648036,146.15488766172058L223.91027580136284,126.57384560231083A257.2095449239783,257.2095449239783,0,0,0,224.68691071030463,125.19002418507475Z" fill-rule="evenodd" style="fill: #AE497E; stroke: #fff; opacity: 1;" id="p-type-tokenTransfers"></path><path d="M258.54931601648036,146.15488766172058A297,297,0,0,1,257.64269410981956,147.74722390567592L223.12511819856712,127.95284924094285A257.2095449239783,257.2095449239783,0,0,0,223.91027580136284,126.57384560231083Z" fill-rule="evenodd" style="fill: #AE497E; stroke: #fff; opacity: 1;" id="p-type-tokenTransfers"></path><path d="M257.64269410981956,147.74722390567592A297,297,0,0,1,256.7262655527148,149.33393644901005L222.33146778736085,129.32698261197362A257.2095449239783,257.2095449239783,0,0,0,223.12511819856712,127.95284924094285Z" fill-rule="evenodd" style="fill: #AE497E; stroke: #fff; opacity: 1;" id="p-type-tokenTransfers"></path><path d="M256.7262655527148,149.33393644901005A297,297,0,0,1,255.80006522717397,150.9149648967045L221.52935477644908,130.6961934117829A257.2095449239783,257.2095449239783,0,0,0,222.33146778736085,129.32698261197362Z" fill-rule="evenodd" style="fill: #AE497E; stroke: #fff; opacity: 1;" id="p-type-tokenTransfers"></path><path d="M255.80006522717397,150.9149648967045A297,297,0,0,1,254.8641283871478,152.49024907009445L220.7188096966487,132.06042952411815A257.2095449239783,257.2095449239783,0,0,0,221.52935477644908,130.6961934117829Z" fill-rule="evenodd" style="fill: #AE497E; stroke: #fff; opacity: 1;" id="p-type-tokenTransfers"></path><path d="M254.8641283871478,152.49024907009445A297,297,0,0,1,253.91849065718782,154.05972900915935L219.8998633997263,133.41963902207843A257.2095449239783,257.2095449239783,0,0,0,220.7188096966487,132.06042952411815Z" fill-rule="evenodd" style="fill: #AE497E; stroke: #fff; opacity: 1;" id="p-type-tokenTransfers"></path><path d="M253.91849065718782,154.05972900915935A297,297,0,0,1,252.9631880310904,155.62334497480515L219.07254705722394,134.77377017009061A257.2095449239783,257.2095449239783,0,0,0,219.8998633997263,133.41963902207843Z" fill-rule="evenodd" style="fill: #AE497E; stroke: #fff; opacity: 1;" id="p-type-tokenTransfers"></path><path d="M252.9631880310904,155.62334497480515A297,297,0,0,1,251.99825687052666,157.18103745113805L218.23689215927254,136.1227714258788A257.2095449239783,257.2095449239783,0,0,0,219.07254705722394,134.77377017009061Z" fill-rule="evenodd" style="fill: #AE497E; stroke: #fff; opacity: 1;" id="p-type-tokenTransfers"></path><path d="M251.99825687052666,157.18103745113805A297,297,0,0,1,251.02373390365858,158.73274714773007L217.39293051339342,137.46659144242614A257.2095449239783,257.2095449239783,0,0,0,218.23689215927254,136.1227714258788Z" fill-rule="evenodd" style="fill: #AE497E; stroke: #fff; opacity: 1;" id="p-type-tokenTransfers"></path><path d="M251.02373390365858,158.73274714773007A297,297,0,0,1,250.0396562237409,160.2784150018756L216.54069424328745,138.80517906992915A257.2095449239783,257.2095449239783,0,0,0,217.39293051339342,137.46659144242614Z" fill-rule="evenodd" style="fill: #AE497E; stroke: #fff; opacity: 1;" id="p-type-tokenTransfers"></path><path d="M250.0396562237409,160.2784150018756A297,297,0,0,1,249.04606128770928,161.81798218083966L215.6802157876125,140.13848335774478A257.2095449239783,257.2095449239783,0,0,0,216.54069424328745,138.80517906992915Z" fill-rule="evenodd" style="fill: #AE497E; stroke: #fff; opacity: 1;" id="p-type-tokenTransfers"></path><path d="M249.04606128770928,161.81798218083966A297,297,0,0,1,248.04298691475458,163.35139008409718L214.81152789874858,141.4664535563296A257.2095449239783,257.2095449239783,0,0,0,215.6802157876125,140.13848335774478Z" fill-rule="evenodd" style="fill: #AE497E; stroke: #fff; opacity: 1;" id="p-type-tokenTransfers"></path><path d="M248.04298691475458,163.35139008409718A297,297,0,0,1,247.03047128488333,164.87858034556348L213.93466364155128,142.7890391191716A257.2095449239783,257.2095449239783,0,0,0,214.81152789874858,141.4664535563296Z" fill-rule="evenodd" style="fill: #AE497E; stroke: #fff; opacity: 1;" id="p-type-tokenTransfers"></path><path d="M247.03047128488333,164.87858034556348A297,297,0,0,1,246.00855293746451,166.3994948358159L213.04965639209317,144.10618970471407A257.2095449239783,257.2095449239783,0,0,0,213.93466364155128,142.7890391191716Z" fill-rule="evenodd" style="fill: #AE497E; stroke: #fff; opacity: 1;" id="p-type-tokenTransfers"></path><path d="M246.00855293746451,166.3994948358159A297,297,0,0,1,244.97727076976258,167.91407566430644L212.15653983639342,145.41785517827176A257.2095449239783,257.2095449239783,0,0,0,213.04965639209317,144.10618970471407Z" fill-rule="evenodd" style="fill: #AE497E; stroke: #fff; opacity: 1;" id="p-type-tokenTransfers"></path><path d="M244.97727076976258,167.91407566430644A297,297,0,0,1,243.93666403545703,169.4222651815651L211.2553479691356,146.72398561393916A257.2095449239783,257.2095449239783,0,0,0,212.15653983639342,145.41785517827176Z" fill-rule="evenodd" style="fill: #AE497E; stroke: #fff; opacity: 1;" id="p-type-tokenTransfers"></path><path d="M243.93666403545703,169.4222651815651A297,297,0,0,1,242.88677234314812,170.92400598139437L210.3461150923739,148.02453129649086A257.2095449239783,257.2095449239783,0,0,0,211.2553479691356,146.72398561393916Z" fill-rule="evenodd" style="fill: #AE497E; stroke: #fff; opacity: 1;" id="p-type-tokenTransfers"></path><path d="M242.88677234314812,170.92400598139437A297,297,0,0,1,241.82763565484942,172.4192409030541L209.4288758142271,149.31944272327382A257.2095449239783,257.2095449239783,0,0,0,210.3461150923739,148.02453129649086Z" fill-rule="evenodd" style="fill: #AE497E; stroke: #fff; opacity: 1;" id="p-type-tokenTransfers"></path><path d="M241.82763565484942,172.4192409030541A297,297,0,0,1,240.75929428446665,173.90791303343727L208.50366504756173,150.60867060609155A257.2095449239783,257.2095449239783,0,0,0,209.4288758142271,149.31944272327382Z" fill-rule="evenodd" style="fill: #AE497E; stroke: #fff; opacity: 1;" id="p-type-tokenTransfers"></path><path d="M240.75929428446665,173.90791303343727A297,297,0,0,1,239.68178889626319,175.38996570923644L207.5705180086629,151.89216587308033A257.2095449239783,257.2095449239783,0,0,0,208.50366504756173,150.60867060609155Z" fill-rule="evenodd" style="fill: #AE497E; stroke: #fff; opacity: 1;" id="p-type-tokenTransfers"></path><path d="M239.68178889626319,175.38996570923644A297,297,0,0,1,238.5951605033123,176.8653425191003L206.62947021589397,153.16987967057688A257.2095449239783,257.2095449239783,0,0,0,207.5705180086629,151.89216587308033Z" fill-rule="evenodd" style="fill: #AE497E; stroke: #fff; opacity: 1;" id="p-type-tokenTransfers"></path><path d="M238.5951605033123,176.8653425191003A297,297,0,0,1,237.499450465936,178.33398730578082L205.68055748834453,154.44176336497782A257.2095449239783,257.2095449239783,0,0,0,206.62947021589397,153.16987967057688Z" fill-rule="evenodd" style="fill: #AE497E; stroke: #fff; opacity: 1;" id="p-type-tokenTransfers"></path><path d="M237.499450465936,178.33398730578082A297,297,0,0,1,236.39470049013104,179.79584416827112L204.72381594446716,155.707768544591A257.2095449239783,257.2095449239783,0,0,0,205.68055748834453,154.44176336497782Z" fill-rule="evenodd" style="fill: #AE497E; stroke: #fff; opacity: 1;" id="p-type-tokenTransfers"></path><path d="M236.39470049013104,179.79584416827112A297,297,0,0,1,235.280952625981,181.2508574639328L203.75928200070257,156.96784702147815A257.2095449239783,257.2095449239783,0,0,0,204.72381594446716,155.707768544591Z" fill-rule="evenodd" style="fill: #AE497E; stroke: #fff; opacity: 1;" id="p-type-tokenTransfers"></path><path d="M235.280952625981,181.2508574639328A297,297,0,0,1,234.15824926605603,182.6989718106141L202.7869923700934,158.22195083328884A257.2095449239783,257.2095449239783,0,0,0,203.75928200070257,156.96784702147815Z" fill-rule="evenodd" style="fill: #AE497E; stroke: #fff; opacity: 1;" id="p-type-tokenTransfers"></path><path d="M234.15824926605603,182.6989718106141A297,297,0,0,1,233.02663314379924,184.14013208875792L201.806984060887,159.47003224508643A257.2095449239783,257.2095449239783,0,0,0,202.7869923700934,158.22195083328884Z" fill-rule="evenodd" style="fill: #AE497E; stroke: #fff; opacity: 1;" id="p-type-tokenTransfers"></path><path d="M233.02663314379924,184.14013208875792A297,297,0,0,1,231.8861473319,185.57428344349967L200.81929437512653,160.71204375116469A257.2095449239783,257.2095449239783,0,0,0,201.806984060887,159.47003224508643Z" fill-rule="evenodd" style="fill: #AE497E; stroke: #fff; opacity: 1;" id="p-type-tokenTransfers"></path><path d="M231.8861473319,185.57428344349967A297,297,0,0,1,230.73683524065473,187.00137128675547L199.8239609072315,161.94793807685613A257.2095449239783,257.2095449239783,0,0,0,200.81929437512653,160.71204375116469Z" fill-rule="evenodd" style="fill: #AE497E; stroke: #fff; opacity: 1;" id="p-type-tokenTransfers"></path><path d="M230.73683524065473,187.00137128675547A297,297,0,0,1,229.57874061631418,188.4213412992996L198.8210215425664,163.17766818033147A257.2095449239783,257.2095449239783,0,0,0,199.8239609072315,161.94793807685613Z" fill-rule="evenodd" style="fill: #AE497E; stroke: #fff; opacity: 1;" id="p-type-tokenTransfers"></path><path d="M229.57874061631418,188.4213412992996A297,297,0,0,1,228.4119075394187,189.83413943283236L197.81051445599894,164.40118725439007A257.2095449239783,257.2095449239783,0,0,0,198.8210215425664,163.17766818033147Z" fill-rule="evenodd" style="fill: #AE497E; stroke: #fff; opacity: 1;" id="p-type-tokenTransfers"></path><path d="M228.4119075394187,189.83413943283236A297,297,0,0,1,227.23638042312024,191.2397119120372L196.792478110447,165.61844872824173A257.2095449239783,257.2095449239783,0,0,0,197.81051445599894,164.40118725439007Z" fill-rule="evenodd" style="fill: #AE497E; stroke: #fff; opacity: 1;" id="p-type-tokenTransfers"></path><path d="M227.23638042312024,191.2397119120372A297,297,0,0,1,226.05220401149174,192.63800523662746L195.76695125541445,166.8294062692791A257.2095449239783,257.2095449239783,0,0,0,196.792478110447,165.61844872824173Z" fill-rule="evenodd" style="fill: #AE497E; stroke: #fff; opacity: 1;" id="p-type-tokenTransfers"></path><path d="M226.05220401149174,192.63800523662746A297,297,0,0,1,224.8594233778243,194.02896618338295L194.73397292551633,168.03401378484142A257.2095449239783,257.2095449239783,0,0,0,195.76695125541445,166.8294062692791Z" fill-rule="evenodd" style="fill: #AE497E; stroke: #fff; opacity: 1;" id="p-type-tokenTransfers"></path><path d="M224.8594233778243,194.02896618338295A297,297,0,0,1,223.6580839229113,195.4125418081756L193.69358243899313,169.2322254239688A257.2095449239783,257.2095449239783,0,0,0,194.73397292551633,168.03401378484142Z" fill-rule="evenodd" style="fill: #AE497E; stroke: #fff; opacity: 1;" id="p-type-tokenTransfers"></path><path d="M223.6580839229113,195.4125418081756A297,297,0,0,1,222.44823137332043,196.78867944798478L192.64581939621405,170.4239955791475A257.2095449239783,257.2095449239783,0,0,0,193.69358243899313,169.2322254239688Z" fill-rule="evenodd" style="fill: #AE497E; stroke: #fff; opacity: 1;" id="p-type-tokenTransfers"></path><path d="M222.44823137332043,196.78867944798478A297,297,0,0,1,221.2299117796533,198.15732672290176L191.59072367816998,171.60927888804594A257.2095449239783,257.2095449239783,0,0,0,192.64581939621405,170.4239955791475Z" fill-rule="evenodd" style="fill: #AE497E; stroke: #fff; opacity: 1;" id="p-type-tokenTransfers"></path><path d="M221.2299117796533,198.15732672290176A297,297,0,0,1,220.00317151479229,199.5184315381235L190.5283354449551,172.7880302352413A257.2095449239783,257.2095449239783,0,0,0,191.59072367816998,171.60927888804594Z" fill-rule="evenodd" style="fill: #AE497E; stroke: #fff; opacity: 1;" id="p-type-tokenTransfers"></path><path d="M220.00317151479229,199.5184315381235A297,297,0,0,1,218.7680572721359,200.8719420859356L189.45869513423872,173.96020475393675A257.2095449239783,257.2095449239783,0,0,0,190.5283354449551,172.7880302352413Z" fill-rule="evenodd" style="fill: #AE497E; stroke: #fff; opacity: 1;" id="p-type-tokenTransfers"></path><path d="M218.7680572721359,200.8719420859356A297,297,0,0,1,217.52461606382118,202.21780684768387L188.38184345972576,175.12575782766905A257.2095449239783,257.2095449239783,0,0,0,189.45869513423872,173.96020475393675Z" fill-rule="evenodd" style="fill: #AE497E; stroke: #fff; opacity: 1;" id="p-type-tokenTransfers"></path><path d="M217.52461606382118,202.21780684768387A297,297,0,0,1,216.27289521893428,203.5559745957359L187.29782140960714,176.28464509200714A257.2095449239783,257.2095449239783,0,0,0,188.38184345972576,175.12575782766905Z" fill-rule="evenodd" style="fill: #AE497E; stroke: #fff; opacity: 1;" id="p-type-tokenTransfers"></path><path d="M216.27289521893428,203.5559745957359A297,297,0,0,1,215.01294238170908,204.88639439543041L186.20667024499986,177.43682243624036A257.2095449239783,257.2095449239783,0,0,0,187.29782140960714,176.28464509200714Z" fill-rule="evenodd" style="fill: #AE497E; stroke: #fff; opacity: 1;" id="p-type-tokenTransfers"></path><path d="M215.01294238170908,204.88639439543041A297,297,0,0,1,213.74480550971367,206.20901560701625L185.1084314983761,178.58224600505787A257.2095449239783,257.2095449239783,0,0,0,186.20667024499986,177.43682243624036Z" fill-rule="evenodd" style="fill: #AE497E; stroke: #fff; opacity: 1;" id="p-type-tokenTransfers"></path><path d="M213.74480550971367,206.20901560701625A297,297,0,0,1,212.46853287202504,207.5237878875798L184.00314697198274,179.7208722002175A257.2095449239783,257.2095449239783,0,0,0,185.1084314983761,178.58224600505787Z" fill-rule="evenodd" style="fill: #AE497E; stroke: #fff; opacity: 1;" id="p-type-tokenTransfers"></path><path d="M212.46853287202504,207.5237878875798A297,297,0,0,1,211.18417304739157,208.83066119296126L182.89085873625007,180.85265768220557A257.2095449239783,257.2095449239783,0,0,0,184.00314697198274,179.7208722002175Z" fill-rule="evenodd" style="fill: #AE497E; stroke: #fff; opacity: 1;" id="p-type-tokenTransfers"></path><path d="M211.18417304739157,208.83066119296126A297,297,0,0,1,209.89177492238426,210.1295857796593L181.77160912819033,181.97755937188626A257.2095449239783,257.2095449239783,0,0,0,182.89085873625007,180.85265768220557Z" fill-rule="evenodd" style="fill: #AE497E; stroke: #fff; opacity: 1;" id="p-type-tokenTransfers"></path><path d="M209.89177492238426,210.1295857796593A297,297,0,0,1,208.5913876895358,211.42051220672462L180.64544074978662,183.09553445214152A257.2095449239783,257.2095449239783,0,0,0,181.77160912819033,181.97755937188626Z" fill-rule="evenodd" style="fill: #AE497E; stroke: #fff; opacity: 1;" id="p-type-tokenTransfers"></path><path d="M208.5913876895358,211.42051220672462A297,297,0,0,1,207.28306084546804,212.70339133764182L179.51239646637083,184.20654036950071A257.2095449239783,257.2095449239783,0,0,0,180.64544074978662,183.09553445214152Z" fill-rule="evenodd" style="fill: #AE497E; stroke: #fff; opacity: 1;" id="p-type-tokenTransfers"></path><path d="M207.28306084546804,212.70339133764182A297,297,0,0,1,205.9668441890084,213.9781743421995L178.37251940499257,185.31053483576034A257.2095449239783,257.2095449239783,0,0,0,179.51239646637083,184.20654036950071Z" fill-rule="evenodd" style="fill: #AE497E; stroke: #fff; opacity: 1;" id="p-type-tokenTransfers"></path><path d="M205.9668441890084,213.9781743421995A297,297,0,0,1,204.64278781929394,215.24481269834922L177.22585295277725,186.40747582959375A257.2095449239783,257.2095449239783,0,0,0,178.37251940499257,185.31053483576034Z" fill-rule="evenodd" style="fill: #AE497E; stroke: #fff; opacity: 1;" id="p-type-tokenTransfers"></path><path d="M204.64278781929394,215.24481269834922A297,297,0,0,1,203.3109421338647,216.50325819405197L176.0724407552748,187.49732159815042A257.2095449239783,257.2095449239783,0,0,0,177.22585295277725,186.40747582959375Z" fill-rule="evenodd" style="fill: #AE497E; stroke: #fff; opacity: 1;" id="p-type-tokenTransfers"></path><path d="M203.3109421338647,216.50325819405197A297,297,0,0,1,201.97135782674525,217.75346292911354L174.9123267147984,188.58003065864534A257.2095449239783,257.2095449239783,0,0,0,176.0724407552748,187.49732159815042Z" fill-rule="evenodd" style="fill: #AE497E; stroke: #fff; opacity: 1;" id="p-type-tokenTransfers"></path><path d="M201.97135782674525,217.75346292911354A297,297,0,0,1,200.62408588651533,218.99537931700777L173.74555498875336,189.65556179993794A257.2095449239783,257.2095449239783,0,0,0,174.9123267147984,188.58003065864534Z" fill-rule="evenodd" style="fill: #AE497E; stroke: #fff; opacity: 1;" id="p-type-tokenTransfers"></path><path d="M200.62408588651533,218.99537931700777A297,297,0,0,1,199.26917759436895,220.2289600866876L172.57216998795639,190.72387408410066A257.2095449239783,257.2095449239783,0,0,0,173.74555498875336,189.65556179993794Z" fill-rule="evenodd" style="fill: #AE497E; stroke: #fff; opacity: 1;" id="p-type-tokenTransfers"></path><path d="M12.496714567096522,296.7369746510005A297,297,0,0,1,-42.32552118070799,293.96862121114464L-36.65497657090944,254.58429388433623A257.2095449239783,257.2095449239783,0,0,0,10.822472278948641,256.98175828990543Z" fill-rule="evenodd" style="fill: #F09B24; stroke: #fff; opacity: 1;" id="p-type-ether"></path><path d="M-42.32552118070799,293.96862121114464A297,297,0,0,1,-95.70195461275739,281.15856003916673L-82.88032388647324,243.49045548537072A257.2095449239783,257.2095449239783,0,0,0,-36.65497657090944,254.58429388433623Z" fill-rule="evenodd" style="fill: #F09B24; stroke: #fff; opacity: 1;" id="p-type-ether"></path><path d="M-95.70195461275739,281.15856003916673A297,297,0,0,1,-114.85177249520993,273.89426856856375L-99.46455265052266,237.19939453133392A257.2095449239783,257.2095449239783,0,0,0,-82.88032388647324,243.49045548537072Z" fill-rule="evenodd" style="fill: #F09B24; stroke: #fff; opacity: 1;" id="p-type-ether"></path><path d="M-114.85177249520993,273.89426856856375A297,297,0,0,1,-132.29214086395163,265.90936325303096L-114.56835470921155,230.28426368126912A257.2095449239783,257.2095449239783,0,0,0,-99.46455265052266,237.19939453133392Z" fill-rule="evenodd" style="fill: #F09B24; stroke: #fff; opacity: 1;" id="p-type-ether"></path><path d="M-132.29214086395163,265.90936325303096A297,297,0,0,1,-140.43058160472864,261.7026017260005L-121.61645113791869,226.64110133119775A257.2095449239783,257.2095449239783,0,0,0,-114.56835470921155,230.28426368126912Z" fill-rule="evenodd" style="fill: #F09B24; stroke: #fff; opacity: 1;" id="p-type-ether"></path><path d="M-140.43058160472864,261.7026017260005A297,297,0,0,1,-148.43381523889616,257.24774536159737L-128.54745477752982,222.78308254941382A257.2095449239783,257.2095449239783,0,0,0,-121.61645113791869,226.64110133119775Z" fill-rule="evenodd" style="fill: #F09B24; stroke: #fff; opacity: 1;" id="p-type-ether"></path><path d="M-148.43381523889616,257.24774536159737A297,297,0,0,1,-155.04905129591927,253.31559701730842L-134.27641725494263,219.37774219181068A257.2095449239783,257.2095449239783,0,0,0,-128.54745477752982,222.78308254941382Z" fill-rule="evenodd" style="fill: #F09B24; stroke: #fff; opacity: 1;" id="p-type-ether"></path><path d="M-155.04905129591927,253.31559701730842A297,297,0,0,1,-160.01991775586973,250.20516765527583L-138.58131388807973,216.68403134761343A257.2095449239783,257.2095449239783,0,0,0,-134.27641725494263,219.37774219181068Z" fill-rule="evenodd" style="fill: #F09B24; stroke: #fff; opacity: 1;" id="p-type-ether"></path><path d="M-160.01991775586973,250.20516765527583A297,297,0,0,1,-164.62319058334134,247.2007385145944L-142.5678650972208,214.08211938791305A257.2095449239783,257.2095449239783,0,0,0,-138.58131388807973,216.68403134761343Z" fill-rule="evenodd" style="fill: #F09B24; stroke: #fff; opacity: 1;" id="p-type-ether"></path><path d="M-164.62319058334134,247.2007385145944A297,297,0,0,1,-169.15952785213358,244.11893440870836L-146.49644841212898,211.41319874272855A257.2095449239783,257.2095449239783,0,0,0,-142.5678650972208,214.08211938791305Z" fill-rule="evenodd" style="fill: #F09B24; stroke: #fff; opacity: 1;" id="p-type-ether"></path><path d="M-169.15952785213358,244.11893440870836A297,297,0,0,1,-173.4314001091725,241.1027777860971L-150.19599830844666,208.80113048575453A257.2095449239783,257.2095449239783,0,0,0,-146.49644841212898,211.41319874272855Z" fill-rule="evenodd" style="fill: #F09B24; stroke: #fff; opacity: 1;" id="p-type-ether"></path><path d="M-173.4314001091725,241.1027777860971A297,297,0,0,1,-177.11905544499072,238.4068795112136L-153.38960150966645,206.46641409368675A257.2095449239783,257.2095449239783,0,0,0,-150.19599830844666,208.80113048575453Z" fill-rule="evenodd" style="fill: #F09B24; stroke: #fff; opacity: 1;" id="p-type-ether"></path><path d="M-177.11905544499072,238.4068795112136A297,297,0,0,1,-180.48845062136022,235.8663163580184L-156.3075833277912,204.266221863101A257.2095449239783,257.2095449239783,0,0,0,-153.38960150966645,206.46641409368675Z" fill-rule="evenodd" style="fill: #F09B24; stroke: #fff; opacity: 1;" id="p-type-ether"></path><path d="M-180.48845062136022,235.8663163580184A297,297,0,0,1,-183.81709181994782,233.28153967868283L-159.19027116585153,202.02773959568685A257.2095449239783,257.2095449239783,0,0,0,-156.3075833277912,204.266221863101Z" fill-rule="evenodd" style="fill: #F09B24; stroke: #fff; opacity: 1;" id="p-type-ether"></path><path d="M-183.81709181994782,233.28153967868283A297,297,0,0,1,-187.09687605601349,230.65940035056175L-162.03064763321615,199.75690032527174A257.2095449239783,257.2095449239783,0,0,0,-159.19027116585153,202.02773959568685Z" fill-rule="evenodd" style="fill: #F09B24; stroke: #fff; opacity: 1;" id="p-type-ether"></path><path d="M-187.09687605601349,230.65940035056175A297,297,0,0,1,-188.79940527393217,229.26793183567887L-163.505081186619,198.55185324281695A257.2095449239783,257.2095449239783,0,0,0,-162.03064763321615,199.75690032527174Z" fill-rule="evenodd" style="fill: #F09B24; stroke: #fff; opacity: 1;" id="p-type-ether"></path><path d="M-188.79940527393217,229.26793183567887A297,297,0,0,1,-190.4344853720318,227.91162054860084L-164.9211020887956,197.3772532127678A257.2095449239783,257.2095449239783,0,0,0,-163.505081186619,198.55185324281695Z" fill-rule="evenodd" style="fill: #F09B24; stroke: #fff; opacity: 1;" id="p-type-ether"></path><path d="M-190.4344853720318,227.91162054860084A297,297,0,0,1,-191.97582796458553,226.6148306649674L-166.2559439298821,196.2542002301706A257.2095449239783,257.2095449239783,0,0,0,-164.9211020887956,197.3772532127678Z" fill-rule="evenodd" style="fill: #F09B24; stroke: #fff; opacity: 1;" id="p-type-ether"></path><path d="M-191.97582796458553,226.6148306649674A297,297,0,0,1,-193.370272633881,225.42612462068038L-167.46356843766378,195.22475059818592A257.2095449239783,257.2095449239783,0,0,0,-166.2559439298821,196.2542002301706Z" fill-rule="evenodd" style="fill: #F09B24; stroke: #fff; opacity: 1;" id="p-type-ether"></path><path d="M-193.370272633881,225.42612462068038A297,297,0,0,1,-194.73472168298494,224.2484964744477L-168.6452159763573,194.20489470733685A257.2095449239783,257.2095449239783,0,0,0,-167.46356843766378,195.22475059818592Z" fill-rule="evenodd" style="fill: #F09B24; stroke: #fff; opacity: 1;" id="p-type-ether"></path><path d="M-194.73472168298494,224.2484964744477A297,297,0,0,1,-195.94451327879395,223.19217664590428L-169.69292623161283,193.29009490129704A257.2095449239783,257.2095449239783,0,0,0,-168.6452159763573,194.20489470733685Z" fill-rule="evenodd" style="fill: #F09B24; stroke: #fff; opacity: 1;" id="p-type-ether"></path><path d="M-195.94451327879395,223.19217664590428A297,297,0,0,1,-197.07052137419004,222.19858146555507L-170.66807784709277,192.4296162340368A257.2095449239783,257.2095449239783,0,0,0,-169.69292623161283,193.29009490129704Z" fill-rule="evenodd" style="fill: #F09B24; stroke: #fff; opacity: 1;" id="p-type-ether"></path></g></svg>