<svg xmlns="http://www.w3.org/2000/svg" width="600" height="600" id="block-7909838"><g id="burst-container" transform="translate(300,300)"><data type="text/json">{"number":7909838,"totalTransactions":94,"totalFunctions":0,"totalLogs":58,"totalTokenTransfers":58,"totalEther":75550402813570350000}</data><circle r="297" style="fill: #f9f9f9; stroke: #f9f9f9; stroke-width: 3; opacity: 1;" id="circle-base"></circle><path display="none" d="M9.093002483669097e-15,-148.5A148.5,148.5,0,1,1,-9.093002483669097e-15,148.5A148.5,148.5,0,1,1,9.093002483669097e-15,-148.5Z" fill-rule="evenodd" id="p-type-root" style="stroke: #fff; opacity: 1;"></path><path d="M1.2859447435097075e-14,-210.0107140124046A210.0107140124046,210.0107140124046,0,1,1,-187.74304909448782,-94.11188828572476L-132.75438313535125,-66.54715439710678A148.5,148.5,0,1,0,9.093002483669097e-15,-148.5Z" fill-rule="evenodd" style="fill: #4E4E4E; stroke: #fff; opacity: 1;" id="p-type-data"></path><path d="M-187.74304909448782,-94.11188828572476A210.0107140124046,210.0107140124046,0,0,1,-5.219644592975883,-209.94583899263878L-3.690846087076944,-148.45412643359398A148.5,148.5,0,0,0,-132.75438313535125,-66.54715439710678Z" fill-rule="evenodd" style="fill: #3A86AD; stroke: #fff; opacity: 1;" id="p-type-value"></path><path d="M1.5749542295064867e-14,-257.2095449239783A257.2095449239783,257.2095449239783,0,0,1,255.06891373730116,-33.114939904418L208.26289596745548,-27.038235209584414A210.0107140124046,210.0107140124046,0,0,0,1.2859447435097075e-14,-210.0107140124046Z" fill-rule="evenodd" style="fill: #184B42; stroke: #fff; opacity: 1;" id="p-type-logs"></path><path d="M255.06891373730116,-33.114939904418A257.2095449239783,257.2095449239783,0,0,1,76.2768021851233,245.63916513539036L62.27974818825368,200.5635384749873A210.0107140124046,210.0107140124046,0,0,0,208.26289596745548,-27.038235209584414Z" fill-rule="evenodd" style="fill: #F09B24; stroke: #fff; opacity: 1;" id="p-type-ether"></path><path d="M76.2768021851233,245.63916513539036A257.2095449239783,257.2095449239783,0,0,1,-196.1276593784164,166.40520192212705L-160.13756330783465,135.8692784180046A210.0107140124046,210.0107140124046,0,0,0,62.27974818825368,200.5635384749873Z" fill-rule="evenodd" style="fill: #AE497E; stroke: #fff; opacity: 1;" id="p-type-tokenTransfers"></path><path d="M-229.9373365178933,-115.26305251491958A257.2095449239783,257.2095449239783,0,0,1,-125.46578583032058,-224.53304118988842L-102.44238515386708,-183.33046043684817A210.0107140124046,210.0107140124046,0,0,0,-187.74304909448782,-94.11188828572476Z" fill-rule="evenodd" style="fill: #AE497E; stroke: #fff; opacity: 1;" id="p-type-tokenTransfers"></path><path d="M-125.46578583032058,-224.53304118988842A257.2095449239783,257.2095449239783,0,0,1,-12.78151629605658,-256.8917726225845L-10.43606435480221,-209.75125401480304A210.0107140124046,210.0107140124046,0,0,0,-102.44238515386708,-183.33046043684817Z" fill-rule="evenodd" style="fill: #F09B24; stroke: #fff; opacity: 1;" id="p-type-ether"></path><path d="M1.8186004967338195e-14,-297A297,297,0,0,1,3.6911311575973467,-296.97706233104503L3.1966133511795647,-257.1896803199597A257.2095449239783,257.2095449239783,0,0,0,1.5749542295064867e-14,-257.2095449239783Z" fill-rule="evenodd" style="fill: #184B42; stroke: #fff; opacity: 1;" id="p-type-logs"></path><path d="M3.6911311575973467,-296.97706233104503A297,297,0,0,1,7.3816921741538515,-296.90825286718797L6.3927329457340205,-257.1300895762387A257.2095449239783,257.2095449239783,0,0,0,3.1966133511795647,-257.1896803199597Z" fill-rule="evenodd" style="fill: #184B42; stroke: #fff; opacity: 1;" id="p-type-logs"></path><path d="M7.3816921741538515,-296.90825286718797A297,297,0,0,1,11.071112996694072,-296.7935822369049L9.58786510330513,-257.03078189734555A257.2095449239783,257.2095449239783,0,0,0,6.3927329457340205,-257.1300895762387Z" fill-rule="evenodd" style="fill: #184B42; stroke: #fff; opacity: 1;" id="p-type-logs"></path><path d="M11.071112996694072,-296.7935822369049A297,297,0,0,1,14.758823748359674,-296.63306815249854L12.78151629605655,-256.8917726225845A257.2095449239783,257.2095449239783,0,0,0,9.58786510330513,-257.03078189734555Z" fill-rule="evenodd" style="fill: #184B42; stroke: #fff; opacity: 1;" id="p-type-logs"></path><path d="M14.758823748359674,-296.63306815249854A297,297,0,0,1,18.444254816433933,-296.4267354073624L15.973193224905275,-256.713083223664A257.2095449239783,257.2095449239783,0,0,0,12.78151629605655,-256.8917726225845Z" fill-rule="evenodd" style="fill: #184B42; stroke: #fff; opacity: 1;" id="p-type-logs"></path><path d="M18.444254816433933,-296.4267354073624A297,297,0,0,1,22.126836940325767,-296.17461587215104L19.162402895718056,-256.49474130138066A257.2095449239783,257.2095449239783,0,0,0,15.973193224905275,-256.713083223664Z" fill-rule="evenodd" style="fill: #184B42; stroke: #fff; opacity: 1;" id="p-type-logs"></path><path d="M22.126836940325767,-296.17461587215104A297,297,0,0,1,25.806001299498696,-295.87674848985733L22.348652695460107,-256.2367805813555A257.2095449239783,257.2095449239783,0,0,0,19.162402895718056,-256.49474130138066Z" fill-rule="evenodd" style="fill: #184B42; stroke: #fff; opacity: 1;" id="p-type-logs"></path><path d="M25.806001299498696,-295.87674848985733A297,297,0,0,1,29.481179601332503,-295.533179269797L25.531450468285538,-255.93924090882487A257.2095449239783,257.2095449239783,0,0,0,22.348652695460107,-256.2367805813555Z" fill-rule="evenodd" style="fill: #184B42; stroke: #fff; opacity: 1;" id="p-type-logs"></path><path d="M29.481179601332503,-295.533179269797A297,297,0,0,1,33.151804168903034,-295.1439612805024L28.710304591556888,-255.60216824248582A257.2095449239783,257.2095449239783,0,0,0,25.531450468285538,-255.93924090882487Z" fill-rule="evenodd" style="fill: #184B42; stroke: #fff; opacity: 1;" id="p-type-logs"></path><path d="M33.151804168903034,-295.1439612805024A297,297,0,0,1,36.81730802866693,-294.70915464152495L31.88472405178233,-255.2256146473972A257.2095449239783,257.2095449239783,0,0,0,28.710304591556888,-255.60216824248582Z" fill-rule="evenodd" style="fill: #184B42; stroke: #fff; opacity: 1;" id="p-type-logs"></path><path d="M36.81730802866693,-294.70915464152495A297,297,0,0,1,40.47712499803773,-294.22882651414903L35.054218520458825,-254.80963828693748A257.2095449239783,257.2095449239783,0,0,0,31.88472405178233,-255.2256146473972Z" fill-rule="evenodd" style="fill: #184B42; stroke: #fff; opacity: 1;" id="p-type-logs"></path><path d="M40.47712499803773,-294.22882651414903A297,297,0,0,1,44.13068977283982,-293.70305109101844L38.21829842980941,-254.35430341382084A257.2095449239783,257.2095449239783,0,0,0,35.054218520458825,-254.80963828693748Z" fill-rule="evenodd" style="fill: #184B42; stroke: #fff; opacity: 1;" id="p-type-logs"></path><path d="M44.13068977283982,-293.70305109101844A297,297,0,0,1,47.77743801462661,-293.1319095846758L41.376475048403,-253.85968036017238A257.2095449239783,257.2095449239783,0,0,0,38.21829842980941,-254.35430341382084Z" fill-rule="evenodd" style="fill: #184B42; stroke: #fff; opacity: 1;" id="p-type-logs"></path><path d="M47.77743801462661,-293.1319095846758A297,297,0,0,1,51.41680643784985,-292.5154902150187L44.52826055664524,-253.32584552666458A257.2095449239783,257.2095449239783,0,0,0,41.376475048403,-253.85968036017238Z" fill-rule="evenodd" style="fill: #184B42; stroke: #fff; opacity: 1;" id="p-type-logs"></path><path d="M51.41680643784985,-292.5154902150187A297,297,0,0,1,55.04823289686575,-291.85388819567305L47.67316812212798,-252.75288137071618A257.2095449239783,257.2095449239783,0,0,0,44.52826055664524,-253.32584552666458Z" fill-rule="evenodd" style="fill: #184B42; stroke: #fff; opacity: 1;" id="p-type-logs"></path><path d="M55.04823289686575,-291.85388819567305A297,297,0,0,1,58.67115647276552,-291.14720571928603L50.81071197482674,-252.14087639375572A257.2095449239783,257.2095449239783,0,0,0,47.67316812212798,-252.75288137071618Z" fill-rule="evenodd" style="fill: #184B42; stroke: #fff; opacity: 1;" id="p-type-logs"></path><path d="M58.67115647276552,-291.14720571928603A297,297,0,0,1,62.285017560016286,-290.39555194174113L53.940407482133956,-251.4899251275513A257.2095449239783,257.2095449239783,0,0,0,50.81071197482674,-252.14087639375572Z" fill-rule="evenodd" style="fill: #184B42; stroke: #fff; opacity: 1;" id="p-type-logs"></path><path d="M62.285017560016286,-290.39555194174113A297,297,0,0,1,65.88925795289907,-289.59904296529766L57.061771223716455,-250.8001281196089A257.2095449239783,257.2095449239783,0,0,0,53.940407482133956,-251.4899251275513Z" fill-rule="evenodd" style="fill: #184B42; stroke: #fff; opacity: 1;" id="p-type-logs"></path><path d="M65.88925795289907,-289.59904296529766A297,297,0,0,1,69.48332093173062,-288.7578018206575L60.17432106618575,-250.07159191764185A257.2095449239783,257.2095449239783,0,0,0,57.061771223716455,-250.8001281196089Z" fill-rule="evenodd" style="fill: #184B42; stroke: #fff; opacity: 1;" id="p-type-logs"></path><path d="M69.48332093173062,-288.7578018206575A297,297,0,0,1,73.0666513488556,-287.87195844796133L63.27757623756948,-249.30442905311287A257.2095449239783,257.2095449239783,0,0,0,60.17432106618575,-250.07159191764185Z" fill-rule="evenodd" style="fill: #184B42; stroke: #fff; opacity: 1;" id="p-type-logs"></path><path d="M73.0666513488556,-287.87195844796133A297,297,0,0,1,76.63869571439615,-286.9416496767177L66.37105740157266,-248.4987580238524A257.2095449239783,257.2095449239783,0,0,0,63.27757623756948,-249.30442905311287Z" fill-rule="evenodd" style="fill: #184B42; stroke: #fff; opacity: 1;" id="p-type-logs"></path><path d="M76.63869571439615,-286.9416496767177A297,297,0,0,1,80.19890228174523,-285.9670192046682L69.45428673161715,-247.6547032757551A257.2095449239783,257.2095449239783,0,0,0,66.37105740157266,-248.4987580238524Z" fill-rule="evenodd" style="fill: #184B42; stroke: #fff; opacity: 1;" id="p-type-logs"></path><path d="M80.19890228174523,-285.9670192046682A297,297,0,0,1,83.74672113279067,-284.9482175755914L72.52678798464783,-246.77239518355765A257.2095449239783,257.2095449239783,0,0,0,69.45428673161715,-247.6547032757551Z" fill-rule="evenodd" style="fill: #184B42; stroke: #fff; opacity: 1;" id="p-type-logs"></path><path d="M83.74672113279067,-284.9482175755914A297,297,0,0,1,87.28160426285694,-283.8854021560496L75.58808657469427,-245.85197003070064A257.2095449239783,257.2095449239783,0,0,0,72.52678798464783,-246.77239518355765Z" fill-rule="evenodd" style="fill: #184B42; stroke: #fff; opacity: 1;" id="p-type-logs"></path><path d="M87.28160426285694,-283.8854021560496A297,297,0,0,1,90.80300566535124,-282.77873711108157L78.63770964617648,-244.89356998827807A257.2095449239783,257.2095449239783,0,0,0,75.58808657469427,-245.85197003070064Z" fill-rule="evenodd" style="fill: #184B42; stroke: #fff; opacity: 1;" id="p-type-logs"></path><path d="M90.80300566535124,-282.77873711108157A297,297,0,0,1,94.31038141610095,-281.6283933788452L81.67518614694325,-243.89734309307713A257.2095449239783,257.2095449239783,0,0,0,78.63770964617648,-244.89356998827807Z" fill-rule="evenodd" style="fill: #184B42; stroke: #fff; opacity: 1;" id="p-type-logs"></path><path d="M94.31038141610095,-281.6283933788452A297,297,0,0,1,97.80318975736964,-280.43454864421386L84.70004690103211,-242.8634432247121A257.2095449239783,257.2095449239783,0,0,0,81.67518614694325,-243.89734309307713Z" fill-rule="evenodd" style="fill: #184B42; stroke: #fff; opacity: 1;" id="p-type-logs"></path><path d="M97.80318975736964,-280.43454864421386A297,297,0,0,1,101.280891181538,-279.19738731133117L87.71182468113925,-241.7920300818559A257.2095449239783,257.2095449239783,0,0,0,84.70004690103211,-242.8634432247121Z" fill-rule="evenodd" style="fill: #184B42; stroke: #fff; opacity: 1;" id="p-type-logs"></path><path d="M101.280891181538,-279.19738731133117A297,297,0,0,1,104.7429485144378,-277.917100475127L90.71005428078867,-240.68326915757225A257.2095449239783,257.2095449239783,0,0,0,87.71182468113925,-241.7920300818559Z" fill-rule="evenodd" style="fill: #184B42; stroke: #fff; opacity: 1;" id="p-type-logs"></path><path d="M104.7429485144378,-277.917100475127A297,297,0,0,1,108.18882699832486,-276.5938858918008L93.69427258618906,-239.53733171375376A257.2095449239783,257.2095449239783,0,0,0,90.71005428078867,-240.68326915757225Z" fill-rule="evenodd" style="fill: #184B42; stroke: #fff; opacity: 1;" id="p-type-logs"></path><path d="M108.18882699832486,-276.5938858918008A297,297,0,0,1,111.61799437447918,-275.22794794827564L96.66401864776753,-238.3543947546679A257.2095449239783,257.2095449239783,0,0,0,93.69427258618906,-239.53733171375376Z" fill-rule="evenodd" style="fill: #184B42; stroke: #fff; opacity: 1;" id="p-type-logs"></path><path d="M111.61799437447918,-275.22794794827564A297,297,0,0,1,115.02992096541884,-273.819497630628L99.61883375136892,-237.13464099961675A257.2095449239783,257.2095449239783,0,0,0,96.66401864776753,-238.3543947546679Z" fill-rule="evenodd" style="fill: #184B42; stroke: #fff; opacity: 1;" id="p-type-logs"></path><path d="M115.02992096541884,-273.819497630628A297,297,0,0,1,118.42407975671527,-272.3687524914984L102.55826148910991,-235.87825885471378A257.2095449239783,257.2095449239783,0,0,0,99.61883375136892,-237.13464099961675Z" fill-rule="evenodd" style="fill: #184B42; stroke: #fff; opacity: 1;" id="p-type-logs"></path><path d="M118.42407975671527,-272.3687524914984A297,297,0,0,1,121.7999464783972,-270.87593661648793L105.48184782987695,-234.58544238378195A257.2095449239783,257.2095449239783,0,0,0,102.55826148910991,-235.87825885471378Z" fill-rule="evenodd" style="fill: #184B42; stroke: #fff; opacity: 1;" id="p-type-logs"></path><path d="M121.7999464783972,-270.87593661648793A297,297,0,0,1,125.15699968593061,-269.3412805895449L108.38914118945692,-233.25639127837843A257.2095449239783,257.2095449239783,0,0,0,105.48184782987695,-234.58544238378195Z" fill-rule="evenodd" style="fill: #184B42; stroke: #fff; opacity: 1;" id="p-type-logs"></path><path d="M125.15699968593061,-269.3412805895449A297,297,0,0,1,128.4947208407624,-267.76502145734895L111.27969250029,-231.8913108269495A257.2095449239783,257.2095449239783,0,0,0,108.38914118945692,-233.25639127837843Z" fill-rule="evenodd" style="fill: #184B42; stroke: #fff; opacity: 1;" id="p-type-logs"></path><path d="M128.4947208407624,-267.76502145734895A297,297,0,0,1,131.81259439041506,-266.1474026926957L114.15305528083363,-230.4904118831214A257.2095449239783,257.2095449239783,0,0,0,111.27969250029,-231.8913108269495Z" fill-rule="evenodd" style="fill: #184B42; stroke: #fff; opacity: 1;" id="p-type-logs"></path><path d="M131.81259439041506,-266.1474026926957A297,297,0,0,1,135.11010784812007,-264.48867415688966L117.00878570452724,-229.05391083313123A257.2095449239783,257.2095449239783,0,0,0,114.15305528083363,-230.4904118831214Z" fill-rule="evenodd" style="fill: #184B42; stroke: #fff; opacity: 1;" id="p-type-logs"></path><path d="M135.11010784812007,-264.48867415688966A297,297,0,0,1,138.38675187197802,-262.78909206115003L119.8464426683467,-227.5820295624035A257.2095449239783,257.2095449239783,0,0,0,117.00878570452724,-229.05391083313123Z" fill-rule="evenodd" style="fill: #184B42; stroke: #fff; opacity: 1;" id="p-type-logs"></path><path d="M138.38675187197802,-262.78909206115003A297,297,0,0,1,141.64202034363268,-261.04891892703546L122.66558786093816,-226.0749954212771A257.2095449239783,257.2095449239783,0,0,0,119.8464426683467,-227.5820295624035Z" fill-rule="evenodd" style="fill: #184B42; stroke: #fff; opacity: 1;" id="p-type-logs"></path><path d="M141.64202034363268,-261.04891892703546A297,297,0,0,1,144.87541044644723,-259.26842354589473L125.46578583032075,-224.53304118988834A257.2095449239783,257.2095449239783,0,0,0,122.66558786093816,-226.0749954212771Z" fill-rule="evenodd" style="fill: #184B42; stroke: #fff; opacity: 1;" id="p-type-logs"></path><path d="M144.87541044644723,-259.26842354589473A297,297,0,0,1,148.0864227431707,-257.4478809373481L128.24660405114747,-222.95640504221495A257.2095449239783,257.2095449239783,0,0,0,125.46578583032075,-224.53304118988834Z" fill-rule="evenodd" style="fill: #184B42; stroke: #fff; opacity: 1;" id="p-type-logs"></path><path d="M148.0864227431707,-257.4478809373481A297,297,0,0,1,151.27456125308194,-255.5875723068075L131.0076129915141,-221.34533050928738A257.2095449239783,257.2095449239783,0,0,0,128.24660405114747,-222.95640504221495Z" fill-rule="evenodd" style="fill: #184B42; stroke: #fff; opacity: 1;" id="p-type-logs"></path><path d="M151.27456125308194,-255.5875723068075A297,297,0,0,1,154.4393335286004,-253.6877850020409L133.74838617930578,-219.70006644157232A257.2095449239783,257.2095449239783,0,0,0,131.0076129915141,-221.34533050928738Z" fill-rule="evenodd" style="fill: #184B42; stroke: #fff; opacity: 1;" id="p-type-logs"></path><path d="M154.4393335286004,-253.6877850020409A297,297,0,0,1,157.58025073135053,-251.74881246878743L136.46850026807095,-218.02086697053457A257.2095449239783,257.2095449239783,0,0,0,133.74838617930578,-219.70006644157232Z" fill-rule="evenodd" style="fill: #184B42; stroke: #fff; opacity: 1;" id="p-type-logs"></path><path d="M157.58025073135053,-251.74881246878743A297,297,0,0,1,160.6968277076689,-249.77095420543156L139.1675351024123,-216.3079914693834A257.2095449239783,257.2095449239783,0,0,0,136.46850026807095,-218.02086697053457Z" fill-rule="evenodd" style="fill: #184B42; stroke: #fff; opacity: 1;" id="p-type-logs"></path><path d="M160.6968277076689,-249.77095420543156A297,297,0,0,1,163.78858306354232,-247.75451571674148L141.8450737828853,-214.5617045130091A257.2095449239783,257.2095449239783,0,0,0,139.1675351024123,-216.3079914693834Z" fill-rule="evenodd" style="fill: #184B42; stroke: #fff; opacity: 1;" id="p-type-logs"></path><path d="M163.78858306354232,-247.75451571674148A297,297,0,0,1,166.85503923896516,-245.6998084666803L144.50070273039316,-212.78227583711606A257.2095449239783,257.2095449239783,0,0,0,141.8450737828853,-214.5617045130091Z" fill-rule="evenodd" style="fill: #184B42; stroke: #fff; opacity: 1;" id="p-type-logs"></path><path d="M166.85503923896516,-245.6998084666803A297,297,0,0,1,169.89572258170432,-243.60714983029655L147.13401175006948,-210.96998029655884A257.2095449239783,257.2095449239783,0,0,0,144.50070273039316,-212.78227583711606Z" fill-rule="evenodd" style="fill: #184B42; stroke: #fff; opacity: 1;" id="p-type-logs"></path><path d="M169.89572258170432,-243.60714983029655A297,297,0,0,1,172.91016342046072,-241.47686304470162L149.7445940946378,-209.1250978228873A257.2095449239783,257.2095449239783,0,0,0,147.13401175006948,-210.96998029655884Z" fill-rule="evenodd" style="fill: #184B42; stroke: #fff; opacity: 1;" id="p-type-logs"></path><path d="M172.91016342046072,-241.47686304470162A297,297,0,0,1,175.89789613741584,-239.30927715914163L152.33204652723882,-207.24791338110776A257.2095449239783,257.2095449239783,0,0,0,149.7445940946378,-209.1250978228873Z" fill-rule="evenodd" style="fill: #184B42; stroke: #fff; opacity: 1;" id="p-type-logs"></path><path d="M175.89789613741584,-239.30927715914163A297,297,0,0,1,178.8584592401523,-237.10472698417206L154.89596938371545,-205.3387169256667A257.2095449239783,257.2095449239783,0,0,0,152.33204652723882,-207.24791338110776Z" fill-rule="evenodd" style="fill: #184B42; stroke: #fff; opacity: 1;" id="p-type-logs"></path><path d="M178.8584592401523,-237.10472698417206A297,297,0,0,1,181.79139543293695,-234.8635530399418L157.4359666343458,-203.3978033556635A257.2095449239783,257.2095449239783,0,0,0,154.89596938371545,-205.3387169256667Z" fill-rule="evenodd" style="fill: #184B42; stroke: #fff; opacity: 1;" id="p-type-logs"></path><path d="M181.79139543293695,-234.8635530399418A297,297,0,0,1,184.69625168735595,-232.58610150359556L159.95164594501475,-201.4254724692998A257.2095449239783,257.2095449239783,0,0,0,157.4359666343458,-203.3978033556635Z" fill-rule="evenodd" style="fill: #184B42; stroke: #fff; opacity: 1;" id="p-type-logs"></path><path d="M184.69625168735595,-232.58610150359556A297,297,0,0,1,187.5725793122906,-230.27272415580282L162.4426187378151,-199.4220289175718A257.2095449239783,257.2095449239783,0,0,0,159.95164594501475,-201.4254724692998Z" fill-rule="evenodd" style="fill: #184B42; stroke: #fff; opacity: 1;" id="p-type-logs"></path><path d="M187.5725793122906,-230.27272415580282A297,297,0,0,1,190.4199340232233,-227.92377832642052L164.90850025106812,-197.38778215721322A257.2095449239783,257.2095449239783,0,0,0,162.4426187378151,-199.4220289175718Z" fill-rule="evenodd" style="fill: #184B42; stroke: #fff; opacity: 1;" id="p-type-logs"></path><path d="M190.4199340232233,-227.92377832642052A297,297,0,0,1,193.23787601086272,-225.53962683929947L167.3489095987547,-195.32304640289593A257.2095449239783,257.2095449239783,0,0,0,164.90850025106812,-197.38778215721322Z" fill-rule="evenodd" style="fill: #184B42; stroke: #fff; opacity: 1;" id="p-type-logs"></path><path d="M193.23787601086272,-225.53962683929947A297,297,0,0,1,196.02597000907792,-223.12063795624124L169.76346982934797,-193.22814057869536A257.2095449239783,257.2095449239783,0,0,0,167.3489095987547,-195.32304640289593Z" fill-rule="evenodd" style="fill: #184B42; stroke: #fff; opacity: 1;" id="p-type-logs"></path><path d="M294.5282120162725,-38.23783893602803A297,297,0,0,1,284.62339143426925,84.84412206190088L246.49108749335937,73.47716506739391A257.2095449239783,257.2095449239783,0,0,0,255.06891373730116,-33.114939904418Z" fill-rule="evenodd" style="fill: #F09B24; stroke: #fff; opacity: 1;" id="p-type-ether"></path><path d="M284.62339143426925,84.84412206190088A297,297,0,0,1,257.8785975597094,147.335090595002L223.3294165790121,127.59593132415345A257.2095449239783,257.2095449239783,0,0,0,246.49108749335937,73.47716506739391Z" fill-rule="evenodd" style="fill: #F09B24; stroke: #fff; opacity: 1;" id="p-type-ether"></path><path d="M257.8785975597094,147.335090595002A297,297,0,0,1,245.04926780283938,167.8089876892543L212.218891096035,145.32684632224436A257.2095449239783,257.2095449239783,0,0,0,223.3294165790121,127.59593132415345Z" fill-rule="evenodd" style="fill: #F09B24; stroke: #fff; opacity: 1;" id="p-type-ether"></path><path d="M245.04926780283938,167.8089876892543A297,297,0,0,1,232.29274970675633,185.06506540585738L201.1714223609912,160.2710479945012A257.2095449239783,257.2095449239783,0,0,0,212.218891096035,145.32684632224436Z" fill-rule="evenodd" style="fill: #F09B24; stroke: #fff; opacity: 1;" id="p-type-ether"></path><path d="M232.29274970675633,185.06506540585738A297,297,0,0,1,225.26641251323963,193.5563054860651L195.08643585585028,167.6246776135937A257.2095449239783,257.2095449239783,0,0,0,201.1714223609912,160.2710479945012Z" fill-rule="evenodd" style="fill: #F09B24; stroke: #fff; opacity: 1;" id="p-type-ether"></path><path d="M225.26641251323963,193.5563054860651A297,297,0,0,1,220.1434834842273,199.36360419953724L190.64984917494084,172.65394582682526A257.2095449239783,257.2095449239783,0,0,0,195.08643585585028,167.6246776135937Z" fill-rule="evenodd" style="fill: #F09B24; stroke: #fff; opacity: 1;" id="p-type-ether"></path><path d="M220.1434834842273,199.36360419953724A297,297,0,0,1,217.1069568126849,202.6661523381124L188.02013993811613,175.51403641205235A257.2095449239783,257.2095449239783,0,0,0,190.64984917494084,172.65394582682526Z" fill-rule="evenodd" style="fill: #F09B24; stroke: #fff; opacity: 1;" id="p-type-ether"></path><path d="M217.1069568126849,202.6661523381124A297,297,0,0,1,214.57144409555102,205.348716525694L185.82432151345967,177.83720514578036A257.2095449239783,257.2095449239783,0,0,0,188.02013993811613,175.51403641205235Z" fill-rule="evenodd" style="fill: #F09B24; stroke: #fff; opacity: 1;" id="p-type-ether"></path><path d="M214.57144409555102,205.348716525694A297,297,0,0,1,212.00278815449897,207.99956205415106L183.59980021492677,180.13290471493258A257.2095449239783,257.2095449239783,0,0,0,185.82432151345967,177.83720514578036Z" fill-rule="evenodd" style="fill: #F09B24; stroke: #fff; opacity: 1;" id="p-type-ether"></path><path d="M212.00278815449897,207.99956205415106A297,297,0,0,1,210.7061552644499,209.31296217309028L182.47688319276187,181.27034258326745A257.2095449239783,257.2095449239783,0,0,0,183.59980021492677,180.13290471493258Z" fill-rule="evenodd" style="fill: #F09B24; stroke: #fff; opacity: 1;" id="p-type-ether"></path><path d="M210.7061552644499,209.31296217309028A297,297,0,0,1,209.61228091214397,210.40839263396424L181.52956021511667,182.21901319046358A257.2095449239783,257.2095449239783,0,0,0,182.47688319276187,181.27034258326745Z" fill-rule="evenodd" style="fill: #F09B24; stroke: #fff; opacity: 1;" id="p-type-ether"></path><path d="M88.07686454900954,283.63967622886514A297,297,0,0,1,84.54497389439406,284.7123941615402L73.21809515483744,246.5681661161821A257.2095449239783,257.2095449239783,0,0,0,76.2768021851233,245.63916513539036Z" fill-rule="evenodd" style="fill: #AE497E; stroke: #fff; opacity: 1;" id="p-type-tokenTransfers"></path><path d="M84.54497389439406,284.7123941615402A297,297,0,0,1,81.00002421874831,285.7411347296048L70.14807868059081,247.4590815820297A257.2095449239783,257.2095449239783,0,0,0,73.21809515483744,246.5681661161821Z" fill-rule="evenodd" style="fill: #AE497E; stroke: #fff; opacity: 1;" id="p-type-tokenTransfers"></path><path d="M81.00002421874831,285.7411347296048A297,297,0,0,1,77.44256308356806,286.7257390313042L67.0672269645489,248.31177391997682A257.2095449239783,257.2095449239783,0,0,0,70.14807868059081,247.4590815820297Z" fill-rule="evenodd" style="fill: #AE497E; stroke: #fff; opacity: 1;" id="p-type-tokenTransfers"></path><path d="M77.44256308356806,286.7257390313042A297,297,0,0,1,73.87313998289937,287.66605498227796L63.97601588251479,249.1261114211038A257.2095449239783,257.2095449239783,0,0,0,67.0672269645489,248.31177391997682Z" fill-rule="evenodd" style="fill: #AE497E; stroke: #fff; opacity: 1;" id="p-type-tokenTransfers"></path><path d="M73.87313998289937,287.66605498227796A297,297,0,0,1,70.29230625846239,288.5619373390512L60.87492291042432,249.90196830087174A257.2095449239783,257.2095449239783,0,0,0,63.97601588251479,249.1261114211038Z" fill-rule="evenodd" style="fill: #AE497E; stroke: #fff; opacity: 1;" id="p-type-tokenTransfers"></path><path d="M70.29230625846239,288.5619373390512A297,297,0,0,1,66.70061501448981,289.41324772146976L57.76442705059393,250.63922471855162A257.2095449239783,257.2095449239783,0,0,0,60.87492291042432,249.90196830087174Z" fill-rule="evenodd" style="fill: #AE497E; stroke: #fff; opacity: 1;" id="p-type-tokenTransfers"></path><path d="M66.70061501448981,289.41324772146976A297,297,0,0,1,63.098621032293025,290.219854634074L54.645008757732846,251.33776679573506A257.2095449239783,257.2095449239783,0,0,0,57.76442705059393,250.63922471855162Z" fill-rule="evenodd" style="fill: #AE497E; stroke: #fff; opacity: 1;" id="p-type-tokenTransfers"></path><path d="M63.098621032293025,290.219854634074A297,297,0,0,1,59.486880684569286,290.98163348641066L51.51714986473084,251.99748663392432A257.2095449239783,257.2095449239783,0,0,0,54.645008757732846,251.33776679573506Z" fill-rule="evenodd" style="fill: #AE497E; stroke: #fff; opacity: 1;" id="p-type-tokenTransfers"></path><path d="M59.486880684569286,290.98163348641066A297,297,0,0,1,55.865951849463016,291.69846661227666L48.38133350823322,252.61828233119851A257.2095449239783,257.2095449239783,0,0,0,51.51714986473084,251.99748663392432Z" fill-rule="evenodd" style="fill: #AE497E; stroke: #fff; opacity: 1;" id="p-type-tokenTransfers"></path><path d="M55.865951849463016,291.69846661227666A297,297,0,0,1,52.23639382439462,292.3702432878947L45.23804405401431,253.2000579979536A257.2095449239783,257.2095449239783,0,0,0,48.38133350823322,252.61828233119851Z" fill-rule="evenodd" style="fill: #AE497E; stroke: #fff; opacity: 1;" id="p-type-tokenTransfers"></path><path d="M52.23639382439462,292.3702432878947A297,297,0,0,1,48.598767239670025,292.9968597490157L42.08776702216118,253.74272377171386A257.2095449239783,257.2095449239783,0,0,0,45.23804405401431,253.2000579979536Z" fill-rule="evenodd" style="fill: #AE497E; stroke: #fff; opacity: 1;" id="p-type-tokenTransfers"></path><path d="M48.598767239670025,292.9968597490157A297,297,0,0,1,44.95363397188441,293.57821920694636L38.93098901207905,254.24619583101216A257.2095449239783,257.2095449239783,0,0,0,42.08776702216118,253.74272377171386Z" fill-rule="evenodd" style="fill: #AE497E; stroke: #fff; opacity: 1;" id="p-type-tokenTransfers"></path><path d="M44.95363397188441,293.57821920694636A297,297,0,0,1,41.30155705713334,294.1142318634995L35.76819762732993,254.71039640833717A257.2095449239783,257.2095449239783,0,0,0,38.93098901207905,254.24619583101216Z" fill-rule="evenodd" style="fill: #AE497E; stroke: #fff; opacity: 1;" id="p-type-tokenTransfers"></path><path d="M41.30155705713334,294.1142318634995A297,297,0,0,1,37.64310060404489,294.6048149248646L32.59988140031623,255.13525380214574A257.2095449239783,257.2095449239783,0,0,0,35.76819762732993,254.71039640833717Z" fill-rule="evenodd" style="fill: #AE497E; stroke: #fff; opacity: 1;" id="p-type-tokenTransfers"></path><path d="M37.64310060404489,294.6048149248646A297,297,0,0,1,33.978829706646046,295.04989261439624L29.426529716820824,255.52070238793777A257.2095449239783,257.2095449239783,0,0,0,32.59988140031623,255.13525380214574Z" fill-rule="evenodd" style="fill: #AE497E; stroke: #fff; opacity: 1;" id="p-type-tokenTransfers"></path><path d="M33.978829706646046,295.04989261439624A297,297,0,0,1,30.30931035707692,295.44939618431846L26.24863274041541,255.86668262839302A257.2095449239783,257.2095449239783,0,0,0,29.426529716820824,255.52070238793777Z" fill-rule="evenodd" style="fill: #AE497E; stroke: #fff; opacity: 1;" id="p-type-tokenTransfers"></path><path d="M30.30931035707692,295.44939618431846A297,297,0,0,1,26.635109358166215,295.80326392634436L23.066681336748577,256.17314108256727A257.2095449239783,257.2095449239783,0,0,0,26.24863274041541,255.86668262839302Z" fill-rule="evenodd" style="fill: #AE497E; stroke: #fff; opacity: 1;" id="p-type-tokenTransfers"></path><path d="M26.635109358166215,295.80326392634436A297,297,0,0,1,22.956794235881528,296.111441181207L19.881166997725575,256.4400304141468A257.2095449239783,257.2095449239783,0,0,0,23.066681336748577,256.17314108256727Z" fill-rule="evenodd" style="fill: #AE497E; stroke: #fff; opacity: 1;" id="p-type-tokenTransfers"></path><path d="M22.956794235881528,296.111441181207A297,297,0,0,1,19.274933151667888,296.37388034710267L16.692581765591246,256.6673093987605A257.2095449239783,257.2095449239783,0,0,0,19.881166997725575,256.4400304141468Z" fill-rule="evenodd" style="fill: #AE497E; stroke: #fff; opacity: 1;" id="p-type-tokenTransfers"></path><path d="M19.274933151667888,296.37388034710267A297,297,0,0,1,15.590094814688173,296.5905408870435L13.50141815692801,256.8549429303469A257.2095449239783,257.2095449239783,0,0,0,16.692581765591246,256.6673093987605Z" fill-rule="evenodd" style="fill: #AE497E; stroke: #fff; opacity: 1;" id="p-type-tokenTransfers"></path><path d="M15.590094814688173,296.5905408870435A297,297,0,0,1,11.902848393978926,296.7613893351188L10.308169086580557,257.00290202657726A257.2095449239783,257.2095449239783,0,0,0,13.50141815692801,256.8549429303469Z" fill-rule="evenodd" style="fill: #AE497E; stroke: #fff; opacity: 1;" id="p-type-tokenTransfers"></path><path d="M11.902848393978926,296.7613893351188A297,297,0,0,1,8.21376343053512,296.8863993016642L7.113327791519033,257.11116383333183A257.2095449239783,257.2095449239783,0,0,0,10.308169086580557,257.00290202657726Z" fill-rule="evenodd" style="fill: #AE497E; stroke: #fff; opacity: 1;" id="p-type-tokenTransfers"></path><path d="M8.21376343053512,296.8863993016642A297,297,0,0,1,4.523409749337482,296.9655514773382L3.9173877546524594,257.17971162823034A257.2095449239783,257.2095449239783,0,0,0,7.113327791519033,257.11116383333183Z" fill-rule="evenodd" style="fill: #AE497E; stroke: #fff; opacity: 1;" id="p-type-tokenTransfers"></path><path d="M4.523409749337482,296.9655514773382A297,297,0,0,1,0.8323573713359523,296.99883363610434L0.720842628604172,257.20853482321456A257.2095449239783,257.2095449239783,0,0,0,3.9173877546524594,257.17971162823034Z" fill-rule="evenodd" style="fill: #AE497E; stroke: #fff; opacity: 1;" id="p-type-tokenTransfers"></path><path d="M0.8323573713359523,296.99883363610434A297,297,0,0,1,-2.858823574597132,296.98624063712L-2.4758138405389536,257.1976289661843A257.2095449239783,257.2095449239783,0,0,0,0.720842628604172,257.20853482321456Z" fill-rule="evenodd" style="fill: #AE497E; stroke: #fff; opacity: 1;" id="p-type-tokenTransfers"></path><path d="M-2.858823574597132,296.98624063712A297,297,0,0,1,-6.549562939730522,296.9277744255301L-5.67208788949172,257.14699574168446A257.2095449239783,257.2095449239783,0,0,0,-2.4758138405389536,257.1976289661843Z" fill-rule="evenodd" style="fill: #AE497E; stroke: #fff; opacity: 1;" id="p-type-tokenTransfers"></path><path d="M-6.549562939730522,296.9277744255301A297,297,0,0,1,-10.239290643540603,296.82344403216723L-8.867485814038474,257.0566429706454A257.2095449239783,257.2095449239783,0,0,0,-5.67208788949172,257.14699574168446Z" fill-rule="evenodd" style="fill: #AE497E; stroke: #fff; opacity: 1;" id="p-type-tokenTransfers"></path><path d="M-10.239290643540603,296.82344403216723A297,297,0,0,1,-13.927436761767419,296.6732655721559L-12.061514045291863,256.92658460917437A257.2095449239783,257.2095449239783,0,0,0,-8.867485814038474,257.0566429706454Z" fill-rule="evenodd" style="fill: #AE497E; stroke: #fff; opacity: 1;" id="p-type-tokenTransfers"></path><path d="M-13.927436761767419,296.6732655721559A297,297,0,0,1,-17.61343161444654,296.4772622424243L-15.25367922593066,256.75684074640037A257.2095449239783,257.2095449239783,0,0,0,-12.061514045291863,256.92658460917437Z" fill-rule="evenodd" style="fill: #AE497E; stroke: #fff; opacity: 1;" id="p-type-tokenTransfers"></path><path d="M-17.61343161444654,296.4772622424243A297,297,0,0,1,-21.29670585390322,296.2354643181203L-18.443488286404953,256.5474376013708A257.2095449239783,257.2095449239783,0,0,0,-15.25367922593066,256.75684074640037Z" fill-rule="evenodd" style="fill: #AE497E; stroke: #fff; opacity: 1;" id="p-type-tokenTransfers"></path><path d="M-21.29670585390322,296.2354643181203A297,297,0,0,1,-24.9766905526952,295.9479091479359L-21.630448521096834,256.29840751900156A257.2095449239783,257.2095449239783,0,0,0,-18.443488286404953,256.5474376013708Z" fill-rule="evenodd" style="fill: #AE497E; stroke: #fff; opacity: 1;" id="p-type-tokenTransfers"></path><path d="M-24.9766905526952,295.9479091479359A297,297,0,0,1,-28.652817291490624,295.6146411483377L-24.814067664424915,256.0097889650811A257.2095449239783,257.2095449239783,0,0,0,-21.630448521096834,256.29840751900156Z" fill-rule="evenodd" style="fill: #AE497E; stroke: #fff; opacity: 1;" id="p-type-tokenTransfers"></path><path d="M-28.652817291490624,295.6146411483377A297,297,0,0,1,-32.32451824686747,295.2357117967065L-27.993853966880852,255.6816265203289A257.2095449239783,257.2095449239783,0,0,0,-24.814067664424915,256.0097889650811Z" fill-rule="evenodd" style="fill: #AE497E; stroke: #fff; opacity: 1;" id="p-type-tokenTransfers"></path><path d="M-32.32451824686747,295.2357117967065A297,297,0,0,1,-35.991226279020914,294.8111796233859L-31.169316270986187,255.31397087350948A257.2095449239783,257.2095449239783,0,0,0,-27.993853966880852,255.6816265203289Z" fill-rule="evenodd" style="fill: #AE497E; stroke: #fff; opacity: 1;" id="p-type-tokenTransfers"></path><path d="M-35.991226279020914,294.8111796233859A297,297,0,0,1,-39.652375019365124,294.34111020264163L-34.33996408715767,254.90687881360267A257.2095449239783,257.2095449239783,0,0,0,-31.169316270986187,255.31397087350948Z" fill-rule="evenodd" style="fill: #AE497E; stroke: #fff; opacity: 1;" id="p-type-tokenTransfers"></path><path d="M-39.652375019365124,294.34111020264163A297,297,0,0,1,-43.30739895801593,293.82557614253267L-37.50530766946952,254.46041322103216A257.2095449239783,257.2095449239783,0,0,0,-34.33996408715767,254.90687881360267Z" fill-rule="evenodd" style="fill: #AE497E; stroke: #fff; opacity: 1;" id="p-type-tokenTransfers"></path><path d="M-43.30739895801593,293.82557614253267A297,297,0,0,1,-46.95573353114081,293.26465707369596L-40.66485809130072,253.9746430579525A257.2095449239783,257.2095449239783,0,0,0,-37.50530766946952,254.46041322103216Z" fill-rule="evenodd" style="fill: #AE497E; stroke: #fff; opacity: 1;" id="p-type-tokenTransfers"></path><path d="M-46.95573353114081,293.26465707369596A297,297,0,0,1,-50.59681520816283,292.6584396370469L-43.818127320855844,253.4496433575973A257.2095449239783,257.2095449239783,0,0,0,-40.66485809130072,253.9746430579525Z" fill-rule="evenodd" style="fill: #AE497E; stroke: #fff; opacity: 1;" id="p-type-tokenTransfers"></path><path d="M-50.59681520816283,292.6584396370469A297,297,0,0,1,-54.23008157880492,292.007017470396L-46.96462829654758,252.88549521268934A257.2095449239783,257.2095449239783,0,0,0,-43.818127320855844,253.4496433575973Z" fill-rule="evenodd" style="fill: #AE497E; stroke: #fff; opacity: 1;" id="p-type-tokenTransfers"></path><path d="M-54.23008157880492,292.007017470396A297,297,0,0,1,-57.854971439961126,291.3104911939858L-50.1038750022295,252.28228576291474A257.2095449239783,257.2095449239783,0,0,0,-46.96462829654758,252.88549521268934Z" fill-rule="evenodd" style="fill: #AE497E; stroke: #fff; opacity: 1;" id="p-type-tokenTransfers"></path><path d="M-57.854971439961126,291.3104911939858A297,297,0,0,1,-61.470924882381375,290.56896839494857L-53.235382542267224,251.64010818146315A257.2095449239783,257.2095449239783,0,0,0,-50.1038750022295,252.28228576291474Z" fill-rule="evenodd" style="fill: #AE497E; stroke: #fff; opacity: 1;" id="p-type-tokenTransfers"></path><path d="M-61.470924882381375,290.56896839494857A297,297,0,0,1,-65.07738337715647,289.78256361068827L-56.358667216436636,250.9590616606361A257.2095449239783,257.2095449239783,0,0,0,-53.235382542267224,251.64010818146315Z" fill-rule="evenodd" style="fill: #AE497E; stroke: #fff; opacity: 1;" id="p-type-tokenTransfers"></path><path d="M-65.07738337715647,289.78256361068827A297,297,0,0,1,-68.67378986198973,288.95139831118877L-59.473246594637345,250.23925139652545A257.2095449239783,257.2095449239783,0,0,0,-56.358667216436636,250.9590616606361Z" fill-rule="evenodd" style="fill: #AE497E; stroke: #fff; opacity: 1;" id="p-type-tokenTransfers"></path><path d="M-68.67378986198973,288.95139831118877A297,297,0,0,1,-72.25958882724228,288.07560088025133L-62.57863959141001,249.48078857276448A257.2095449239783,257.2095449239783,0,0,0,-59.473246594637345,250.23925139652545Z" fill-rule="evenodd" style="fill: #AE497E; stroke: #fff; opacity: 1;" id="p-type-tokenTransfers"></path><path d="M-72.25958882724228,288.07560088025133A297,297,0,0,1,-75.83422640173833,287.1553065956642L-65.67436654024598,248.68379034335436A257.2095449239783,257.2095449239783,0,0,0,-62.57863959141001,249.48078857276448Z" fill-rule="evenodd" style="fill: #AE497E; stroke: #fff; opacity: 1;" id="p-type-tokenTransfers"></path><path d="M-75.83422640173833,287.1553065956642A297,297,0,0,1,-79.3971504383175,286.19065760830694L-68.75994926767773,247.84837981456806A257.2095449239783,257.2095449239783,0,0,0,-65.67436654024598,248.68379034335436Z" fill-rule="evenodd" style="fill: #AE497E; stroke: #fff; opacity: 1;" id="p-type-tokenTransfers"></path></g></svg>