<svg xmlns="http://www.w3.org/2000/svg" width="600" height="600" id="block-7909832"><g id="burst-container" transform="translate(300,300)"><data type="text/json">{"number":7909832,"totalTransactions":186,"totalFunctions":0,"totalLogs":133,"totalTokenTransfers":133,"totalEther":168634493897642670000}</data><circle r="297" style="fill: #f9f9f9; stroke: #f9f9f9; stroke-width: 3; opacity: 1;" id="circle-base"></circle><path display="none" d="M9.093002483669097e-15,-148.5A148.5,148.5,0,1,1,-9.093002483669097e-15,148.5A148.5,148.5,0,1,1,9.093002483669097e-15,-148.5Z" fill-rule="evenodd" id="p-type-root" style="stroke: #fff; opacity: 1;"></path><path d="M1.2859447435097075e-14,-210.0107140124046A210.0107140124046,210.0107140124046,0,1,1,-173.80276937653895,-117.88595063469442L-122.89711681515232,-83.35795510041501A148.5,148.5,0,1,0,9.093002483669097e-15,-148.5Z" fill-rule="evenodd" style="fill: #4E4E4E; stroke: #fff; opacity: 1;" id="p-type-data"></path><path d="M-173.80276937653895,-117.88595063469442A210.0107140124046,210.0107140124046,0,0,1,-2.511824575550237,-209.9956921874867L-1.776128190522594,-148.48937796573475A148.5,148.5,0,0,0,-122.89711681515232,-83.35795510041501Z" fill-rule="evenodd" style="fill: #3A86AD; stroke: #fff; opacity: 1;" id="p-type-value"></path><path d="M1.5749542295064867e-14,-257.2095449239783A257.2095449239783,257.2095449239783,0,0,1,257.15819380702084,5.139392757000018L209.96878600098205,4.196296614135234A210.0107140124046,210.0107140124046,0,0,0,1.2859447435097075e-14,-210.0107140124046Z" fill-rule="evenodd" style="fill: #184B42; stroke: #fff; opacity: 1;" id="p-type-logs"></path><path d="M257.15819380702084,5.139392757000018A257.2095449239783,257.2095449239783,0,0,1,60.469009553286625,250.00049776679353L49.37273955234453,204.1245516568165A210.0107140124046,210.0107140124046,0,0,0,209.96878600098205,4.196296614135234Z" fill-rule="evenodd" style="fill: #F09B24; stroke: #fff; opacity: 1;" id="p-type-ether"></path><path d="M60.469009553286625,250.00049776679353A257.2095449239783,257.2095449239783,0,0,1,-223.67591388188134,126.98754092077385L-182.63061892044058,103.68489298223155A210.0107140124046,210.0107140124046,0,0,0,49.37273955234453,204.1245516568165Z" fill-rule="evenodd" style="fill: #AE497E; stroke: #fff; opacity: 1;" id="p-type-tokenTransfers"></path><path d="M-212.86405042757121,-144.38021344896404A257.2095449239783,257.2095449239783,0,0,1,-83.08422819422559,-243.4209543678807L-67.83798824960417,-198.7523769675386A210.0107140124046,210.0107140124046,0,0,0,-173.80276937653895,-117.88595063469442Z" fill-rule="evenodd" style="fill: #AE497E; stroke: #fff; opacity: 1;" id="p-type-tokenTransfers"></path><path d="M-83.08422819422559,-243.4209543678807A257.2095449239783,257.2095449239783,0,0,1,-6.152248438744321,-257.13595594383133L-5.023289815252678,-209.95062886172067A210.0107140124046,210.0107140124046,0,0,0,-67.83798824960417,-198.7523769675386Z" fill-rule="evenodd" style="fill: #F09B24; stroke: #fff; opacity: 1;" id="p-type-ether"></path><path d="M1.8186004967338195e-14,-297A297,297,0,0,1,1.776159952476465,-296.99468893538017L1.53819964002918,-257.2049454070964A257.2095449239783,257.2095449239783,0,0,0,1.5749542295064867e-14,-257.2095449239783Z" fill-rule="evenodd" style="fill: #184B42; stroke: #fff; opacity: 1;" id="p-type-logs"></path><path d="M1.776159952476465,-296.99468893538017A297,297,0,0,1,3.5522563810452836,-296.9787559314695L3.0763442667405902,-257.1911470209511A257.2095449239783,257.2095449239783,0,0,0,1.53819964002918,-257.2049454070964Z" fill-rule="evenodd" style="fill: #184B42; stroke: #fff; opacity: 1;" id="p-type-logs"></path><path d="M3.5522563810452836,-296.9787559314695A297,297,0,0,1,5.328225764070763,-296.9522015581078L4.614378868784032,-257.1681502590383A257.2095449239783,257.2095449239783,0,0,0,3.0763442667405902,-257.1911470209511Z" fill-rule="evenodd" style="fill: #184B42; stroke: #fff; opacity: 1;" id="p-type-logs"></path><path d="M5.328225764070763,-296.9522015581078A297,297,0,0,1,7.104004584460941,-296.91502676500556L6.15224843874429,-257.13595594383133A257.2095449239783,257.2095449239783,0,0,0,4.614378868784032,-257.1681502590383Z" fill-rule="evenodd" style="fill: #184B42; stroke: #fff; opacity: 1;" id="p-type-logs"></path><path d="M7.104004584460941,-296.91502676500556A297,297,0,0,1,8.879529331939283,-296.86723288170964L7.689897975108484,-257.0945652267516A257.2095449239783,257.2095449239783,0,0,0,6.15224843874429,-257.13595594383133Z" fill-rule="evenodd" style="fill: #184B42; stroke: #fff; opacity: 1;" id="p-type-logs"></path><path d="M8.879529331939283,-296.86723288170964A297,297,0,0,1,10.654736505316103,-296.8088216175562L9.227272484233177,-257.0439795881275A257.2095449239783,257.2095449239783,0,0,0,7.689897975108484,-257.0945652267516Z" fill-rule="evenodd" style="fill: #184B42; stroke: #fff; opacity: 1;" id="p-type-logs"></path><path d="M10.654736505316103,-296.8088216175562A297,297,0,0,1,12.429562614759678,-296.73979506160913L10.764316982311215,-256.9842008371416A257.2095449239783,257.2095449239783,0,0,0,9.227272484233177,-257.0439795881275Z" fill-rule="evenodd" style="fill: #184B42; stroke: #fff; opacity: 1;" id="p-type-logs"></path><path d="M12.429562614759678,-296.73979506160913A297,297,0,0,1,14.203944184066867,-296.6601556825856L12.300976497338137,-256.9152311117656A257.2095449239783,257.2095449239783,0,0,0,10.764316982311215,-256.9842008371416Z" fill-rule="evenodd" style="fill: #184B42; stroke: #fff; opacity: 1;" id="p-type-logs"></path><path d="M14.203944184066867,-296.6601556825856A297,297,0,0,1,15.977817752933596,-296.5699063287677L13.83719607107849,-256.8370728786842A257.2095449239783,257.2095449239783,0,0,0,12.300976497338137,-256.9152311117656Z" fill-rule="evenodd" style="fill: #184B42; stroke: #fff; opacity: 1;" id="p-type-logs"></path><path d="M15.977817752933596,-296.5699063287677A297,297,0,0,1,17.751119879224095,-296.46905022790054L15.372920761031022,-256.7497289332066A257.2095449239783,257.2095449239783,0,0,0,13.83719607107849,-256.8370728786842Z" fill-rule="evenodd" style="fill: #184B42; stroke: #fff; opacity: 1;" id="p-type-logs"></path><path d="M17.751119879224095,-296.46905022790054A297,297,0,0,1,19.52378714124016,-296.35759098707683L16.908095642393942,-256.65320239916673A257.2095449239783,257.2095449239783,0,0,0,15.372920761031022,-256.7497289332066Z" fill-rule="evenodd" style="fill: #184B42; stroke: #fff; opacity: 1;" id="p-type-logs"></path><path d="M19.52378714124016,-296.35759098707683A297,297,0,0,1,21.29575613998935,-296.23553259260797L18.44266581002922,-256.54749672881155A257.2095449239783,257.2095449239783,0,0,0,16.908095642393942,-256.65320239916673Z" fill-rule="evenodd" style="fill: #184B42; stroke: #fff; opacity: 1;" id="p-type-logs"></path><path d="M21.29575613998935,-296.23553259260797A297,297,0,0,1,23.066963501452427,-296.1028794098812L19.97657638042625,-256.4326157026773A257.2095449239783,257.2095449239783,0,0,0,18.44266581002922,-256.54749672881155Z" fill-rule="evenodd" style="fill: #184B42; stroke: #fff; opacity: 1;" id="p-type-logs"></path><path d="M23.066963501452427,-296.1028794098812A297,297,0,0,1,24.837345878849916,-295.9596361832038L21.509772493664762,-256.30856342945464A257.2095449239783,257.2095449239783,0,0,0,19.97657638042625,-256.4326157026773Z" fill-rule="evenodd" style="fill: #184B42; stroke: #fff; opacity: 1;" id="p-type-logs"></path><path d="M24.837345878849916,-295.9596361832038A297,297,0,0,1,26.606839954907684,-295.8058080356333L23.042199315376863,-256.17534434584144A257.2095449239783,257.2095449239783,0,0,0,21.509772493664762,-256.30856342945464Z" fill-rule="evenodd" style="fill: #184B42; stroke: #fff; opacity: 1;" id="p-type-logs"></path><path d="M26.606839954907684,-295.8058080356333A297,297,0,0,1,28.37538244412148,-295.641400468794L24.573802038708177,-256.0329632163843A257.2095449239783,257.2095449239783,0,0,0,23.042199315376863,-256.17534434584144Z" fill-rule="evenodd" style="fill: #184B42; stroke: #fff; opacity: 1;" id="p-type-logs"></path><path d="M28.37538244412148,-295.641400468794A297,297,0,0,1,30.1429100950203,-295.46641936268077L26.10452588627799,-255.88142513330789A257.2095449239783,257.2095449239783,0,0,0,24.573802038708177,-256.0329632163843Z" fill-rule="evenodd" style="fill: #184B42; stroke: #fff; opacity: 1;" id="p-type-logs"></path><path d="M30.1429100950203,-295.46641936268077A297,297,0,0,1,31.909359692428584,-295.28087097544807L27.634316112138357,-255.72073551633315A257.2095449239783,257.2095449239783,0,0,0,26.10452588627799,-255.88142513330789Z" fill-rule="evenodd" style="fill: #184B42; stroke: #fff; opacity: 1;" id="p-type-logs"></path><path d="M31.909359692428584,-295.28087097544807A297,297,0,0,1,33.674668059727075,-295.0847619431868L29.163118003732077,-255.55090011248328A257.2095449239783,257.2095449239783,0,0,0,27.634316112138357,-255.72073551633315Z" fill-rule="evenodd" style="fill: #184B42; stroke: #fff; opacity: 1;" id="p-type-logs"></path><path d="M33.674668059727075,-295.0847619431868A297,297,0,0,1,35.43877206111232,-294.8780992796863L30.69087688384948,-255.37192499587812A257.2095449239783,257.2095449239783,0,0,0,29.163118003732077,-255.55090011248328Z" fill-rule="evenodd" style="fill: #184B42; stroke: #fff; opacity: 1;" id="p-type-logs"></path><path d="M35.43877206111232,-294.8780992796863A297,297,0,0,1,37.2016086038547,-294.6608903761841L32.21753811258392,-255.18381656751708A257.2095449239783,257.2095449239783,0,0,0,30.69087688384948,-255.37192499587812Z" fill-rule="evenodd" style="fill: #184B42; stroke: #fff; opacity: 1;" id="p-type-logs"></path><path d="M37.2016086038547,-294.6608903761841A297,297,0,0,1,38.96311464055488,-294.4331430011013L33.743047089285916,-254.98658155505012A257.2095449239783,257.2095449239783,0,0,0,32.21753811258392,-255.18381656751708Z" fill-rule="evenodd" style="fill: #184B42; stroke: #fff; opacity: 1;" id="p-type-logs"></path><path d="M38.96311464055488,-294.4331430011013A297,297,0,0,1,40.723227171398925,-294.1948652997646L35.267349254516176,-254.78022701253718A257.2095449239783,257.2095449239783,0,0,0,33.743047089285916,-254.98658155505012Z" fill-rule="evenodd" style="fill: #184B42; stroke: #fff; opacity: 1;" id="p-type-logs"></path><path d="M40.723227171398925,-294.1948652997646A297,297,0,0,1,42.48188324641108,-293.9460657941152L36.790390091996535,-254.5647603201958A257.2095449239783,257.2095449239783,0,0,0,35.267349254516176,-254.78022701253718Z" fill-rule="evenodd" style="fill: #184B42; stroke: #fff; opacity: 1;" id="p-type-logs"></path><path d="M42.48188324641108,-293.9460657941152A297,297,0,0,1,44.23901996770541,-293.68675338240394L38.312115130559924,-254.34018918413724A257.2095449239783,257.2095449239783,0,0,0,36.790390091996535,-254.5647603201958Z" fill-rule="evenodd" style="fill: #184B42; stroke: #fff; opacity: 1;" id="p-type-logs"></path><path d="M44.23901996770541,-293.68675338240394A297,297,0,0,1,45.994574491735335,-293.41693733887314L39.832469946098534,-254.10652163609095A257.2095449239783,257.2095449239783,0,0,0,38.312115130559924,-254.34018918413724Z" fill-rule="evenodd" style="fill: #184B42; stroke: #fff; opacity: 1;" id="p-type-logs"></path><path d="M45.994574491735335,-293.41693733887314A297,297,0,0,1,47.74848403154109,-293.1366273134247L41.35140016351019,-253.86376603311714A257.2095449239783,257.2095449239783,0,0,0,39.832469946098534,-254.10652163609095Z" fill-rule="evenodd" style="fill: #184B42; stroke: #fff; opacity: 1;" id="p-type-logs"></path><path d="M47.74848403154109,-293.1366273134247A297,297,0,0,1,49.50068585899539,-292.8458333312753L42.868851458643135,-253.61193105730808A257.2095449239783,257.2095449239783,0,0,0,41.35140016351019,-253.86376603311714Z" fill-rule="evenodd" style="fill: #184B42; stroke: #fff; opacity: 1;" id="p-type-logs"></path><path d="M49.50068585899539,-292.8458333312753A297,297,0,0,1,51.25111730704684,-292.5445657925974L44.38476956023887,-253.35102571547742A257.2095449239783,257.2095449239783,0,0,0,42.868851458643135,-253.61193105730808Z" fill-rule="evenodd" style="fill: #184B42; stroke: #fff; opacity: 1;" id="p-type-logs"></path><path d="M51.25111730704684,-292.5445657925974A297,297,0,0,1,52.9997157719612,-292.23283547214766L45.89910025187318,-253.08105933883812A257.2095449239783,257.2095449239783,0,0,0,44.38476956023887,-253.35102571547742Z" fill-rule="evenodd" style="fill: #184B42; stroke: #fff; opacity: 1;" id="p-type-logs"></path><path d="M52.9997157719612,-292.23283547214766A297,297,0,0,1,54.74641871556035,-291.9106535188816L47.411789373895104,-252.8020415826688A257.2095449239783,257.2095449239783,0,0,0,45.89910025187318,-253.08105933883812Z" fill-rule="evenodd" style="fill: #184B42; stroke: #fff; opacity: 1;" id="p-type-logs"></path><path d="M54.74641871556035,-291.9106535188816A297,297,0,0,1,56.49116366745922,-291.57803145555454L48.92278282536418,-252.51398242596835A257.2095449239783,257.2095449239783,0,0,0,47.411789373895104,-252.8020415826688Z" fill-rule="evenodd" style="fill: #184B42; stroke: #fff; opacity: 1;" id="p-type-logs"></path><path d="M56.49116366745922,-291.57803145555454A297,297,0,0,1,58.23388822729957,-291.2349811783096L50.432026565984984,-252.216892171099A257.2095449239783,257.2095449239783,0,0,0,48.92278282536418,-252.51398242596835Z" fill-rule="evenodd" style="fill: #184B42; stroke: #fff; opacity: 1;" id="p-type-logs"></path><path d="M58.23388822729957,-291.2349811783096A297,297,0,0,1,59.974530066982084,-290.8815149562527L51.939466618040115,-251.91078144341796A257.2095449239783,257.2095449239783,0,0,0,50.432026565984984,-252.216892171099Z" fill-rule="evenodd" style="fill: #184B42; stroke: #fff; opacity: 1;" id="p-type-logs"></path><path d="M59.974530066982084,-290.8815149562527A297,297,0,0,1,61.71302693289536,-290.5176454310129L53.44504906832064,-251.59566119089735A257.2095449239783,257.2095449239783,0,0,0,51.939466618040115,-251.91078144341796Z" fill-rule="evenodd" style="fill: #184B42; stroke: #fff; opacity: 1;" id="p-type-logs"></path><path d="M61.71302693289536,-290.5176454310129A297,297,0,0,1,63.449316648142464,-290.143385616291L54.948720070054286,-251.27154268373252A257.2095449239783,257.2095449239783,0,0,0,53.44504906832064,-251.59566119089735Z" fill-rule="evenodd" style="fill: #184B42; stroke: #fff; opacity: 1;" id="p-type-logs"></path><path d="M63.449316648142464,-290.143385616291A297,297,0,0,1,65.18333711476463,-289.75874889739384L56.45042584483122,-250.93843751393928A257.2095449239783,257.2095449239783,0,0,0,54.948720070054286,-251.27154268373252Z" fill-rule="evenodd" style="fill: #184B42; stroke: #fff; opacity: 1;" id="p-type-logs"></path><path d="M65.18333711476463,-289.75874889739384A297,297,0,0,1,66.91502631596212,-289.36374903075557L57.95011268452744,-250.5963575949391A257.2095449239783,257.2095449239783,0,0,0,56.45042584483122,-250.93843751393928Z" fill-rule="evenodd" style="fill: #184B42; stroke: #fff; opacity: 1;" id="p-type-logs"></path><path d="M66.91502631596212,-289.36374903075557A297,297,0,0,1,68.64432231831253,-288.9584001434456L59.44772695322577,-250.24531516113288A257.2095449239783,257.2095449239783,0,0,0,57.95011268452744,-250.5963575949391Z" fill-rule="evenodd" style="fill: #184B42; stroke: #fff; opacity: 1;" id="p-type-logs"></path><path d="M68.64432231831253,-288.9584001434456A297,297,0,0,1,70.37116327398537,-288.5427167326635L60.943215089133844,-249.88532276746383A257.2095449239783,257.2095449239783,0,0,0,59.44772695322577,-250.24531516113288Z" fill-rule="evenodd" style="fill: #184B42; stroke: #fff; opacity: 1;" id="p-type-logs"></path><path d="M70.37116327398537,-288.5427167326635A297,297,0,0,1,72.09548742295438,-288.11671366522046L62.43652360649998,-249.51639328896806A257.2095449239783,257.2095449239783,0,0,0,60.943215089133844,-249.88532276746383Z" fill-rule="evenodd" style="fill: #184B42; stroke: #fff; opacity: 1;" id="p-type-logs"></path><path d="M72.09548742295438,-288.11671366522046A297,297,0,0,1,73.81723309520618,-287.68040617700746L63.927599097525956,-249.13853992031423A257.2095449239783,257.2095449239783,0,0,0,62.43652360649998,-249.51639328896806Z" fill-rule="evenodd" style="fill: #184B42; stroke: #fff; opacity: 1;" id="p-type-logs"></path><path d="M73.81723309520618,-287.68040617700746A297,297,0,0,1,75.53633871294602,-287.2338098724506L65.4163882342772,-248.7517761753317A257.2095449239783,257.2095449239783,0,0,0,63.927599097525956,-249.13853992031423Z" fill-rule="evenodd" style="fill: #184B42; stroke: #fff; opacity: 1;" id="p-type-logs"></path><path d="M75.53633871294602,-287.2338098724506A297,297,0,0,1,77.25274279279998,-286.7769407239527L66.90283777059,-248.3561158865272A257.2095449239783,257.2095449239783,0,0,0,65.4163882342772,-248.7517761753317Z" fill-rule="evenodd" style="fill: #184B42; stroke: #fff; opacity: 1;" id="p-type-logs"></path><path d="M77.25274279279998,-286.7769407239527A297,297,0,0,1,78.96638394801401,-286.3098150713224L68.38689454397584,-247.95157320458995A257.2095449239783,257.2095449239783,0,0,0,66.90283777059,-248.3561158865272Z" fill-rule="evenodd" style="fill: #184B42; stroke: #fff; opacity: 1;" id="p-type-logs"></path><path d="M78.96638394801401,-286.3098150713224A297,297,0,0,1,80.67720089064927,-285.8324496211895L69.86850547752282,-247.53816259788584A257.2095449239783,257.2095449239783,0,0,0,68.38689454397584,-247.95157320458995Z" fill-rule="evenodd" style="fill: #184B42; stroke: #fff; opacity: 1;" id="p-type-logs"></path><path d="M80.67720089064927,-285.8324496211895A297,297,0,0,1,82.38513243377426,-285.34486144640744L71.34761758179381,-247.11589885193973A257.2095449239783,257.2095449239783,0,0,0,69.86850547752282,-247.53816259788584Z" fill-rule="evenodd" style="fill: #184B42; stroke: #fff; opacity: 1;" id="p-type-logs"></path><path d="M82.38513243377426,-285.34486144640744A297,297,0,0,1,84.09011749365298,-284.84706798544306L72.82417795672171,-246.6847970689068A257.2095449239783,257.2095449239783,0,0,0,71.34761758179381,-247.11589885193973Z" fill-rule="evenodd" style="fill: #184B42; stroke: #fff; opacity: 1;" id="p-type-logs"></path><path d="M84.09011749365298,-284.84706798544306A297,297,0,0,1,85.79209509192968,-284.33908704175246L74.29813379350136,-246.24487266703233A257.2095449239783,257.2095449239783,0,0,0,72.82417795672171,-246.6847970689068Z" fill-rule="evenodd" style="fill: #184B42; stroke: #fff; opacity: 1;" id="p-type-logs"></path><path d="M85.79209509192968,-284.33908704175246A297,297,0,0,1,87.49100435780971,-283.82093678314453L75.76943237647824,-245.79614138010038A257.2095449239783,257.2095449239783,0,0,0,74.29813379350136,-246.24487266703233Z" fill-rule="evenodd" style="fill: #184B42; stroke: #fff; opacity: 1;" id="p-type-logs"></path><path d="M87.49100435780971,-283.82093678314453A297,297,0,0,1,89.18678453023655,-283.29263574113105L77.23802108503384,-245.3386192568709A257.2095449239783,257.2095449239783,0,0,0,75.76943237647824,-245.79614138010038Z" fill-rule="evenodd" style="fill: #184B42; stroke: #fff; opacity: 1;" id="p-type-logs"></path><path d="M89.18678453023655,-283.29263574113105A297,297,0,0,1,90.8793749600649,-282.7542028102641L78.7038473954676,-244.87232266050597A257.2095449239783,257.2095449239783,0,0,0,77.23802108503384,-245.3386192568709Z" fill-rule="evenodd" style="fill: #184B42; stroke: #fff; opacity: 1;" id="p-type-logs"></path><path d="M90.8793749600649,-282.7542028102641A297,297,0,0,1,92.56871511222978,-282.20565724745995L80.16685888287547,-244.3972682679844A257.2095449239783,257.2095449239783,0,0,0,78.7038473954676,-244.87232266050597Z" fill-rule="evenodd" style="fill: #184B42; stroke: #fff; opacity: 1;" id="p-type-logs"></path><path d="M92.56871511222978,-282.20565724745995A297,297,0,0,1,94.25474456791159,-281.6470186713109L81.62700322302476,-243.91347306950533A257.2095449239783,257.2095449239783,0,0,0,80.16685888287547,-244.3972682679844Z" fill-rule="evenodd" style="fill: #184B42; stroke: #fff; opacity: 1;" id="p-type-logs"></path><path d="M94.25474456791159,-281.6470186713109A297,297,0,0,1,95.93740302669691,-281.07830706138304L83.08422819422562,-243.42095436788068A257.2095449239783,257.2095449239783,0,0,0,81.62700322302476,-243.91347306950533Z" fill-rule="evenodd" style="fill: #184B42; stroke: #fff; opacity: 1;" id="p-type-logs"></path><path d="M95.93740302669691,-281.07830706138304A297,297,0,0,1,97.6166303087352,-280.49954275750207L84.53848167919867,-242.91972977791613A257.2095449239783,257.2095449239783,0,0,0,83.08422819422562,-243.42095436788068Z" fill-rule="evenodd" style="fill: #184B42; stroke: #fff; opacity: 1;" id="p-type-logs"></path><path d="M97.6166303087352,-280.49954275750207A297,297,0,0,1,99.29236635689104,-279.91074645902563L85.98971166693897,-242.4098172257813A257.2095449239783,257.2095449239783,0,0,0,84.53848167919867,-242.91972977791613Z" fill-rule="evenodd" style="fill: #184B42; stroke: #fff; opacity: 1;" id="p-type-logs"></path><path d="M99.29236635689104,-279.91074645902563A297,297,0,0,1,100.96455123889217,-279.3119392241032L87.43786625457624,-241.89123494836855A257.2095449239783,257.2095449239783,0,0,0,85.98971166693897,-242.4098172257813Z" fill-rule="evenodd" style="fill: #184B42; stroke: #fff; opacity: 1;" id="p-type-logs"></path><path d="M100.96455123889217,-279.3119392241032A297,297,0,0,1,102.63312514947278,-278.70314246892275L88.882893649231,-241.36400149264077A257.2095449239783,257.2095449239783,0,0,0,87.43786625457624,-241.89123494836855Z" fill-rule="evenodd" style="fill: #184B42; stroke: #fff; opacity: 1;" id="p-type-logs"></path><path d="M102.63312514947278,-278.70314246892275A297,297,0,0,1,104.29802841251262,-278.084377966945L90.3247421698671,-240.828135714968A257.2095449239783,257.2095449239783,0,0,0,88.882893649231,-241.36400149264077Z" fill-rule="evenodd" style="fill: #184B42; stroke: #fff; opacity: 1;" id="p-type-logs"></path><path d="M104.29802841251262,-278.084377966945A297,297,0,0,1,105.95920148317117,-277.4556678481244L91.76336024914,-240.28365678045304A257.2095449239783,257.2095449239783,0,0,0,90.3247421698671,-240.828135714968Z" fill-rule="evenodd" style="fill: #184B42; stroke: #fff; opacity: 1;" id="p-type-logs"></path><path d="M105.95920148317117,-277.4556678481244A297,297,0,0,1,107.6165849500173,-276.8170345981181L93.19869643524108,-239.73058416224615A257.2095449239783,257.2095449239783,0,0,0,91.76336024914,-240.28365678045304Z" fill-rule="evenodd" style="fill: #184B42; stroke: #fff; opacity: 1;" id="p-type-logs"></path><path d="M107.6165849500173,-276.8170345981181A297,297,0,0,1,109.2701195371541,-276.1685010574813L94.63069939373776,-239.16893764084844A257.2095449239783,257.2095449239783,0,0,0,93.19869643524108,-239.73058416224615Z" fill-rule="evenodd" style="fill: #184B42; stroke: #fff; opacity: 1;" id="p-type-logs"></path><path d="M109.2701195371541,-276.1685010574813A297,297,0,0,1,110.91974610633883,-275.5100904208507L96.05931790940951,-238.59873730340445A257.2095449239783,257.2095449239783,0,0,0,94.63069939373776,-239.16893764084844Z" fill-rule="evenodd" style="fill: #184B42; stroke: #fff; opacity: 1;" id="p-type-logs"></path><path d="M110.91974610633883,-275.5100904208507A297,297,0,0,1,112.56540565909808,-274.84182623611474L97.48450088807954,-238.0200035429838A257.2095449239783,257.2095449239783,0,0,0,96.05931790940951,-238.59873730340445Z" fill-rule="evenodd" style="fill: #184B42; stroke: #fff; opacity: 1;" id="p-type-logs"></path><path d="M112.56540565909808,-274.84182623611474A297,297,0,0,1,114.20703933883767,-274.16373240357154L98.90619735844217,-237.43275705785183A257.2095449239783,257.2095449239783,0,0,0,97.48450088807954,-238.0200035429838Z" fill-rule="evenodd" style="fill: #184B42; stroke: #fff; opacity: 1;" id="p-type-logs"></path><path d="M114.20703933883767,-274.16373240357154A297,297,0,0,1,115.84458843294786,-273.47583317507406L100.32435647388579,-236.8370188507293A257.2095449239783,257.2095449239783,0,0,0,98.90619735844217,-237.43275705785183Z" fill-rule="evenodd" style="fill: #184B42; stroke: #fff; opacity: 1;" id="p-type-logs"></path><path d="M115.84458843294786,-273.47583317507406A297,297,0,0,1,117.47799437490298,-272.77815315316263L101.73892751431136,-236.23281022804113A257.2095449239783,257.2095449239783,0,0,0,100.32435647388579,-236.8370188507293Z" fill-rule="evenodd" style="fill: #184B42; stroke: #fff; opacity: 1;" id="p-type-logs"></path><path d="M117.47799437490298,-272.77815315316263A297,297,0,0,1,119.10719874635618,-272.0707172901854L103.14985988794649,-235.6201527991547A257.2095449239783,257.2095449239783,0,0,0,101.73892751431136,-236.23281022804113Z" fill-rule="evenodd" style="fill: #184B42; stroke: #fff; opacity: 1;" id="p-type-logs"></path><path d="M119.10719874635618,-272.0707172901854A297,297,0,0,1,120.73214327922868,-271.35355088740556L104.55710313315473,-234.9990684756066A257.2095449239783,257.2095449239783,0,0,0,103.14985988794649,-235.6201527991547Z" fill-rule="evenodd" style="fill: #184B42; stroke: #fff; opacity: 1;" id="p-type-logs"></path><path d="M120.73214327922868,-271.35355088740556A297,297,0,0,1,122.3527698577938,-270.62667959409646L105.96060692024038,-234.36957947031928A257.2095449239783,257.2095449239783,0,0,0,104.55710313315473,-234.9990684756066Z" fill-rule="evenodd" style="fill: #184B42; stroke: #fff; opacity: 1;" id="p-type-logs"></path><path d="M122.3527698577938,-270.62667959409646A297,297,0,0,1,123.96902052075534,-269.89012940662457L107.36032105324851,-233.73170829680643A257.2095449239783,257.2095449239783,0,0,0,105.96060692024038,-234.36957947031928Z" fill-rule="evenodd" style="fill: #184B42; stroke: #fff; opacity: 1;" id="p-type-logs"></path><path d="M123.96902052075534,-269.89012940662457A297,297,0,0,1,125.58083746332062,-269.1439266675194L108.75619547176021,-233.0854777683678A257.2095449239783,257.2095449239783,0,0,0,107.36032105324851,-233.73170829680643Z" fill-rule="evenodd" style="fill: #184B42; stroke: #fff; opacity: 1;" id="p-type-logs"></path><path d="M125.58083746332062,-269.1439266675194A297,297,0,0,1,127.18816303926783,-268.3880980645316L110.14818025268295,-232.4309109972735A257.2095449239783,257.2095449239783,0,0,0,108.75619547176021,-233.0854777683678Z" fill-rule="evenodd" style="fill: #184B42; stroke: #fff; opacity: 1;" id="p-type-logs"></path><path d="M127.18816303926783,-268.3880980645316A297,297,0,0,1,128.79093976300777,-267.62267062967834L111.53622561203612,-231.76803139393704A257.2095449239783,257.2095449239783,0,0,0,110.14818025268295,-232.4309109972735Z" fill-rule="evenodd" style="fill: #184B42; stroke: #fff; opacity: 1;" id="p-type-logs"></path><path d="M128.79093976300777,-267.62267062967834A297,297,0,0,1,130.38911031163977,-266.84767173827663L112.92028190673153,-231.09686266607838A257.2095449239783,257.2095449239783,0,0,0,111.53622561203612,-231.76803139393704Z" fill-rule="evenodd" style="fill: #184B42; stroke: #fff; opacity: 1;" id="p-type-logs"></path><path d="M130.38911031163977,-266.84767173827663A297,297,0,0,1,131.98261752700176,-266.0631291079641L114.30029963634884,-230.41742881787584A257.2095449239783,257.2095449239783,0,0,0,112.92028190673153,-231.09686266607838Z" fill-rule="evenodd" style="fill: #184B42; stroke: #fff; opacity: 1;" id="p-type-logs"></path><path d="M131.98261752700176,-266.0631291079641A297,297,0,0,1,133.57140441771475,-265.26907079770774L115.67622944490596,-229.72975414910772A257.2095449239783,257.2095449239783,0,0,0,114.30029963634884,-230.41742881787584Z" fill-rule="evenodd" style="fill: #184B42; stroke: #fff; opacity: 1;" id="p-type-logs"></path><path d="M133.57140441771475,-265.26907079770774A297,297,0,0,1,135.15541416122082,-264.4655252068006L117.0480221226243,-229.03386325428312A257.2095449239783,257.2095449239783,0,0,0,115.67622944490596,-229.72975414910772Z" fill-rule="evenodd" style="fill: #184B42; stroke: #fff; opacity: 1;" id="p-type-logs"></path><path d="M135.15541416122082,-264.4655252068006A297,297,0,0,1,136.73459010581553,-263.6525210738456L118.41562860768862,-228.3297810217624A257.2095449239783,257.2095449239783,0,0,0,117.0480221226243,-229.03386325428312Z" fill-rule="evenodd" style="fill: #184B42; stroke: #fff; opacity: 1;" id="p-type-logs"></path><path d="M136.73459010581553,-263.6525210738456A297,297,0,0,1,138.30887577267413,-262.8300874757283L119.77899998800187,-227.61753263286695A257.2095449239783,257.2095449239783,0,0,0,118.41562860768862,-228.3297810217624Z" fill-rule="evenodd" style="fill: #184B42; stroke: #fff; opacity: 1;" id="p-type-logs"></path><path d="M138.30887577267413,-262.8300874757283A297,297,0,0,1,139.87821485787123,-261.9982538265765L121.13808750293441,-226.89714356097875A257.2095449239783,257.2095449239783,0,0,0,119.77899998800187,-227.61753263286695Z" fill-rule="evenodd" style="fill: #184B42; stroke: #fff; opacity: 1;" id="p-type-logs"></path><path d="M139.87821485787123,-261.9982538265765A297,297,0,0,1,141.44255123439484,-261.15704987670847L122.49284254506794,-226.16863957062924A257.2095449239783,257.2095449239783,0,0,0,121.13808750293441,-226.89714356097875Z" fill-rule="evenodd" style="fill: #184B42; stroke: #fff; opacity: 1;" id="p-type-logs"></path><path d="M141.44255123439484,-261.15704987670847A297,297,0,0,1,143.0018289541534,-260.3065057115689L123.84321666193394,-225.43204671657773A257.2095449239783,257.2095449239783,0,0,0,122.49284254506794,-226.16863957062924Z" fill-rule="evenodd" style="fill: #184B42; stroke: #fff; opacity: 1;" id="p-type-logs"></path><path d="M143.0018289541534,-260.3065057115689A297,297,0,0,1,144.55599224997712,-259.4466517506529L125.18916155774663,-224.6873913428798A257.2095449239783,257.2095449239783,0,0,0,123.84321666193394,-225.43204671657773Z" fill-rule="evenodd" style="fill: #184B42; stroke: #fff; opacity: 1;" id="p-type-logs"></path><path d="M144.55599224997712,-259.4466517506529A297,297,0,0,1,146.1049855376121,-258.57751874641804L126.53062909513008,-223.93470008194492A257.2095449239783,257.2095449239783,0,0,0,125.18916155774663,-224.6873913428798Z" fill-rule="evenodd" style="fill: #184B42; stroke: #fff; opacity: 1;" id="p-type-logs"></path><path d="M146.1049855376121,-258.57751874641804A297,297,0,0,1,147.64875341770852,-257.6991377831845L127.86757129684005,-223.17399985358404A257.2095449239783,257.2095449239783,0,0,0,126.53062909513008,-223.93470008194492Z" fill-rule="evenodd" style="fill: #184B42; stroke: #fff; opacity: 1;" id="p-type-logs"></path><path d="M147.64875341770852,-257.6991377831845A297,297,0,0,1,149.187240677802,-256.8115402760234L129.1999403474797,-222.4053178640468A257.2095449239783,257.2095449239783,0,0,0,127.86757129684005,-223.17399985358404Z" fill-rule="evenodd" style="fill: #184B42; stroke: #fff; opacity: 1;" id="p-type-logs"></path><path d="M149.187240677802,-256.8115402760234A297,297,0,0,1,150.7203922942881,-255.91475796963314L130.52768859520987,-221.62868160504843A257.2095449239783,257.2095449239783,0,0,0,129.1999403474797,-222.4053178640468Z" fill-rule="evenodd" style="fill: #184B42; stroke: #fff; opacity: 1;" id="p-type-logs"></path><path d="M150.7203922942881,-255.91475796963314A297,297,0,0,1,152.24815343439033,-255.00882293720414L131.85076855345307,-220.84411885278666A257.2095449239783,257.2095449239783,0,0,0,130.52768859520987,-221.62868160504843Z" fill-rule="evenodd" style="fill: #184B42; stroke: #fff; opacity: 1;" id="p-type-logs"></path><path d="M152.24815343439033,-255.00882293720414A297,297,0,0,1,153.7704694581212,-254.09376757927183L133.1691329025921,-220.0516576669482A257.2095449239783,257.2095449239783,0,0,0,131.85076855345307,-220.84411885278666Z" fill-rule="evenodd" style="fill: #184B42; stroke: #fff; opacity: 1;" id="p-type-logs"></path><path d="M153.7704694581212,-254.09376757927183A297,297,0,0,1,155.2872859202365,-253.1696246225576L134.4827344916624,-219.25132638970518A257.2095449239783,257.2095449239783,0,0,0,133.1691329025921,-220.0516576669482Z" fill-rule="evenodd" style="fill: #184B42; stroke: #fff; opacity: 1;" id="p-type-logs"></path><path d="M155.2872859202365,-253.1696246225576A297,297,0,0,1,156.79854857218237,-252.23642711879853L135.79152634003816,-218.44315364470162A257.2095449239783,257.2095449239783,0,0,0,134.4827344916624,-219.25132638970518Z" fill-rule="evenodd" style="fill: #184B42; stroke: #fff; opacity: 1;" id="p-type-logs"></path><path d="M156.79854857218237,-252.23642711879853A297,297,0,0,1,158.30420336403554,-251.29420844356537L137.09546163911276,-217.6271683360296A257.2095449239783,257.2095449239783,0,0,0,135.79152634003816,-218.44315364470162Z" fill-rule="evenodd" style="fill: #184B42; stroke: #fff; opacity: 1;" id="p-type-logs"></path><path d="M158.30420336403554,-251.29420844356537A297,297,0,0,1,159.80419644643646,-250.34300229506866L138.39449375397288,-216.80339964719548A257.2095449239783,257.2095449239783,0,0,0,137.09546163911276,-217.6271683360296Z" fill-rule="evenodd" style="fill: #184B42; stroke: #fff; opacity: 1;" id="p-type-logs"></path><path d="M159.80419644643646,-250.34300229506866A297,297,0,0,1,161.29847417251514,-249.38284269295366L139.68857622506627,-215.97187704007632A257.2095449239783,257.2095449239783,0,0,0,138.39449375397288,-216.80339964719548Z" fill-rule="evenodd" style="fill: #184B42; stroke: #fff; opacity: 1;" id="p-type-logs"></path><path d="M161.29847417251514,-249.38284269295366A297,297,0,0,1,162.7869830998099,-248.4137639770836L140.97766276986346,-215.13263025386607A257.2095449239783,257.2095449239783,0,0,0,139.68857622506627,-215.97187704007632Z" fill-rule="evenodd" style="fill: #184B42; stroke: #fff; opacity: 1;" id="p-type-logs"></path><path d="M162.7869830998099,-248.4137639770836A297,297,0,0,1,164.26966999217865,-247.4358008063116L142.261707284513,-214.28568930401195A257.2095449239783,257.2095449239783,0,0,0,140.97766276986346,-215.13263025386607Z" fill-rule="evenodd" style="fill: #184B42; stroke: #fff; opacity: 1;" id="p-type-logs"></path><path d="M164.26966999217865,-247.4358008063116A297,297,0,0,1,165.7464818217029,-246.448988157241L143.54066384549037,-213.43108448114097A257.2095449239783,257.2095449239783,0,0,0,142.261707284513,-214.28568930401195Z" fill-rule="evenodd" style="fill: #184B42; stroke: #fff; opacity: 1;" id="p-type-logs"></path><path d="M165.7464818217029,-246.448988157241A297,297,0,0,1,167.21736577058425,-245.45336132297442L144.81448671124042,-212.56884634997664A257.2095449239783,257.2095449239783,0,0,0,143.54066384549037,-213.43108448114097Z" fill-rule="evenodd" style="fill: #184B42; stroke: #fff; opacity: 1;" id="p-type-logs"></path><path d="M167.21736577058425,-245.45336132297442A297,297,0,0,1,168.68226923303354,-244.44895591185167L146.08313032381326,-211.69900574824578A257.2095449239783,257.2095449239783,0,0,0,144.81448671124042,-212.56884634997664Z" fill-rule="evenodd" style="fill: #184B42; stroke: #fff; opacity: 1;" id="p-type-logs"></path><path d="M168.68226923303354,-244.44895591185167A297,297,0,0,1,170.141139817152,-243.43580784617603L147.34654931049369,-210.8215937855756A257.2095449239783,257.2095449239783,0,0,0,146.08313032381326,-211.69900574824578Z" fill-rule="evenodd" style="fill: #184B42; stroke: #fff; opacity: 1;" id="p-type-logs"></path><path d="M170.141139817152,-243.43580784617603A297,297,0,0,1,171.59392534680543,-242.4139533609296L148.604698485424,-209.93664184238114A257.2095449239783,257.2095449239783,0,0,0,147.34654931049369,-210.8215937855756Z" fill-rule="evenodd" style="fill: #184B42; stroke: #fff; opacity: 1;" id="p-type-logs"></path><path d="M171.59392534680543,-242.4139533609296A297,297,0,0,1,173.04057386348993,-241.3834290024775L149.85753285121984,-209.04418156874297A257.2095449239783,257.2095449239783,0,0,0,148.604698485424,-209.93664184238114Z" fill-rule="evenodd" style="fill: #184B42; stroke: #fff; opacity: 1;" id="p-type-logs"></path><path d="M173.04057386348993,-241.3834290024775A297,297,0,0,1,174.48103362819023,-240.34427162726044L151.10500760057965,-208.14424488327504A257.2095449239783,257.2095449239783,0,0,0,149.85753285121984,-209.04418156874297Z" fill-rule="evenodd" style="fill: #184B42; stroke: #fff; opacity: 1;" id="p-type-logs"></path><path d="M174.48103362819023,-240.34427162726044A297,297,0,0,1,175.91525312323037,-239.29651840047688L152.34707811788732,-207.23686397198335A257.2095449239783,257.2095449239783,0,0,0,151.10500760057965,-208.14424488327504Z" fill-rule="evenodd" style="fill: #184B42; stroke: #fff; opacity: 1;" id="p-type-logs"></path><path d="M175.91525312323037,-239.29651840047688A297,297,0,0,1,177.34318105411595,-238.2402067947538L153.58369998080758,-206.32207128711482A257.2095449239783,257.2095449239783,0,0,0,152.34707811788732,-207.23686397198335Z" fill-rule="evenodd" style="fill: #184B42; stroke: #fff; opacity: 1;" id="p-type-logs"></path><path d="M177.34318105411595,-238.2402067947538A297,297,0,0,1,178.76476635136876,-237.1753745888062L154.81482896187495,-205.3998995459964A257.2095449239783,257.2095449239783,0,0,0,153.58369998080758,-206.32207128711482Z" fill-rule="evenodd" style="fill: #184B42; stroke: #fff; opacity: 1;" id="p-type-logs"></path><path d="M178.76476635136876,-237.1753745888062A297,297,0,0,1,180.17995817235325,-236.10205986608636L156.0404210300755,-204.47038172986515A257.2095449239783,257.2095449239783,0,0,0,154.81482896187495,-205.3998995459964Z" fill-rule="evenodd" style="fill: #184B42; stroke: #fff; opacity: 1;" id="p-type-logs"></path><path d="M180.17995817235325,-236.10205986608636A297,297,0,0,1,181.58870590309493,-235.0203010134216L157.26043235242147,-203.53355108268875A257.2095449239783,257.2095449239783,0,0,0,156.0404210300755,-204.47038172986515Z" fill-rule="evenodd" style="fill: #184B42; stroke: #fff; opacity: 1;" id="p-type-logs"></path><path d="M181.58870590309493,-235.0203010134216A297,297,0,0,1,182.99095916009063,-233.93013671964127L158.4748192955192,-202.58944110997626A257.2095449239783,257.2095449239783,0,0,0,157.26043235242147,-203.53355108268875Z" fill-rule="evenodd" style="fill: #184B42; stroke: #fff; opacity: 1;" id="p-type-logs"></path><path d="M182.99095916009063,-233.93013671964127A297,297,0,0,1,184.38666779211022,-232.83160597419325L159.6835384271294,-201.63808557758003A257.2095449239783,257.2095449239783,0,0,0,158.4748192955192,-202.58944110997626Z" fill-rule="evenodd" style="fill: #184B42; stroke: #fff; opacity: 1;" id="p-type-logs"></path><path d="M184.38666779211022,-232.83160597419325A297,297,0,0,1,185.77578188199053,-231.7247480657495L160.88654651772066,-200.67951851048804A257.2095449239783,257.2095449239783,0,0,0,159.6835384271294,-201.63808557758003Z" fill-rule="evenodd" style="fill: #184B42; stroke: #fff; opacity: 1;" id="p-type-logs"></path><path d="M185.77578188199053,-231.7247480657495A297,297,0,0,1,187.15825174842053,-230.60960258080073L162.0838005420155,-199.71377419160686A257.2095449239783,257.2095449239783,0,0,0,160.88654651772066,-200.67951851048804Z" fill-rule="evenodd" style="fill: #184B42; stroke: #fff; opacity: 1;" id="p-type-logs"></path><path d="M187.15825174842053,-230.60960258080073A297,297,0,0,1,188.534027947718,-229.48620940224075L163.2752576805291,-198.7408871605358A257.2095449239783,257.2095449239783,0,0,0,162.0838005420155,-199.71377419160686Z" fill-rule="evenodd" style="fill: #184B42; stroke: #fff; opacity: 1;" id="p-type-logs"></path><path d="M188.534027947718,-229.48620940224075A297,297,0,0,1,189.90306127559816,-228.35460870794003L164.4608753211009,-197.76089221233127A257.2095449239783,257.2095449239783,0,0,0,163.2752576805291,-198.7408871605358Z" fill-rule="evenodd" style="fill: #184B42; stroke: #fff; opacity: 1;" id="p-type-logs"></path><path d="M189.90306127559816,-228.35460870794003A297,297,0,0,1,191.2653027689333,-227.21484096930877L165.6406110604184,-196.77382439626265A257.2095449239783,257.2095449239783,0,0,0,164.4608753211009,-197.76089221233127Z" fill-rule="evenodd" style="fill: #184B42; stroke: #fff; opacity: 1;" id="p-type-logs"></path><path d="M191.2653027689333,-227.21484096930877A297,297,0,0,1,192.62070370750382,-226.0669469498494L166.81442270553373,-195.77971901455862A257.2095449239783,257.2095449239783,0,0,0,165.6406110604184,-196.77382439626265Z" fill-rule="evenodd" style="fill: #184B42; stroke: #fff; opacity: 1;" id="p-type-logs"></path><path d="M192.62070370750382,-226.0669469498494A297,297,0,0,1,193.96921561574098,-224.91096770369867L167.98226827537292,-194.77861162114448A257.2095449239783,257.2095449239783,0,0,0,166.81442270553373,-195.77971901455862Z" fill-rule="evenodd" style="fill: #184B42; stroke: #fff; opacity: 1;" id="p-type-logs"></path><path d="M193.96921561574098,-224.91096770369867A297,297,0,0,1,195.31079026446028,-223.7469445741595L169.144106002237,-193.77053802037088A257.2095449239783,257.2095449239783,0,0,0,167.98226827537292,-194.77861162114448Z" fill-rule="evenodd" style="fill: #184B42; stroke: #fff; opacity: 1;" id="p-type-logs"></path><path d="M195.31079026446028,-223.7469445741595A297,297,0,0,1,196.6453796725867,-222.57491919222218L170.29989433329612,-192.75553426573302A257.2095449239783,257.2095449239783,0,0,0,169.144106002237,-193.77053802037088Z" fill-rule="evenodd" style="fill: #184B42; stroke: #fff; opacity: 1;" id="p-type-logs"></path><path d="M196.6453796725867,-222.57491919222218A297,297,0,0,1,197.97293610887044,-221.39493347507548L171.4495919320754,-191.7336366585812A257.2095449239783,257.2095449239783,0,0,0,170.29989433329612,-192.75553426573302Z" fill-rule="evenodd" style="fill: #184B42; stroke: #fff; opacity: 1;" id="p-type-logs"></path><path d="M197.97293610887044,-221.39493347507548A297,297,0,0,1,199.2934120935942,-220.20702962460766L172.59315767993346,-190.70488174682268A257.2095449239783,257.2095449239783,0,0,0,171.4495919320754,-191.7336366585812Z" fill-rule="evenodd" style="fill: #184B42; stroke: #fff; opacity: 1;" id="p-type-logs"></path><path d="M199.2934120935942,-220.20702962460766A297,297,0,0,1,200.60676040027127,-219.01125012589688L173.73055067753307,-189.66930632361453A257.2095449239783,257.2095449239783,0,0,0,172.59315767993346,-190.70488174682268Z" fill-rule="evenodd" style="fill: #184B42; stroke: #fff; opacity: 1;" id="p-type-logs"></path><path d="M200.60676040027127,-219.01125012589688A297,297,0,0,1,201.9129340573344,-217.80763774569184L174.86173024630378,-188.6269474260475A257.2095449239783,257.2095449239783,0,0,0,173.73055067753307,-189.66930632361453Z" fill-rule="evenodd" style="fill: #184B42; stroke: #fff; opacity: 1;" id="p-type-logs"></path><path d="M201.9129340573344,-217.80763774569184A297,297,0,0,1,203.211886349816,-216.59623553088235L175.98665592989687,-187.5778423338218A257.2095449239783,257.2095449239783,0,0,0,174.86173024630378,-188.6269474260475Z" fill-rule="evenodd" style="fill: #184B42; stroke: #fff; opacity: 1;" id="p-type-logs"></path><path d="M203.211886349816,-216.59623553088235A297,297,0,0,1,204.50357082101863,-215.3770868069596L177.1052874956322,-186.52202856791328A257.2095449239783,257.2095449239783,0,0,0,175.98665592989687,-187.5778423338218Z" fill-rule="evenodd" style="fill: #184B42; stroke: #fff; opacity: 1;" id="p-type-logs"></path><path d="M204.50357082101863,-215.3770868069596A297,297,0,0,1,205.7879412741767,-214.1502351764667L178.21758493593723,-185.4595438892321A257.2095449239783,257.2095449239783,0,0,0,177.1052874956322,-186.52202856791328Z" fill-rule="evenodd" style="fill: #184B42; stroke: #fff; opacity: 1;" id="p-type-logs"></path><path d="M205.7879412741767,-214.1502351764667A297,297,0,0,1,207.06495177410858,-212.91572451743926L179.3235084697777,-184.39042629727166A257.2095449239783,257.2095449239783,0,0,0,178.21758493593723,-185.4595438892321Z" fill-rule="evenodd" style="fill: #184B42; stroke: #fff; opacity: 1;" id="p-type-logs"></path><path d="M207.06495177410858,-212.91572451743926A297,297,0,0,1,208.33455664885943,-211.67359898183614L180.42301854408052,-183.31471402875A257.2095449239783,257.2095449239783,0,0,0,179.3235084697777,-184.39042629727166Z" fill-rule="evenodd" style="fill: #184B42; stroke: #fff; opacity: 1;" id="p-type-logs"></path><path d="M208.33455664885943,-211.67359898183614A297,297,0,0,1,209.59671049133482,-210.42390299396024L181.5160758351483,-182.23244555624197A257.2095449239783,257.2095449239783,0,0,0,180.42301854408052,-183.31471402875Z" fill-rule="evenodd" style="fill: #184B42; stroke: #fff; opacity: 1;" id="p-type-logs"></path><path d="M209.59671049133482,-210.42390299396024A297,297,0,0,1,210.85136816092447,-209.16668124886976L182.60264125006594,-181.1436595868034A257.2095449239783,257.2095449239783,0,0,0,181.5160758351483,-182.23244555624197Z" fill-rule="evenodd" style="fill: #184B42; stroke: #fff; opacity: 1;" id="p-type-logs"></path><path d="M210.85136816092447,-209.16668124886976A297,297,0,0,1,212.09848478511694,-207.90197871077976L183.68267592809852,-180.0483950605868A257.2095449239783,257.2095449239783,0,0,0,182.60264125006594,-181.1436595868034Z" fill-rule="evenodd" style="fill: #184B42; stroke: #fff; opacity: 1;" id="p-type-logs"></path><path d="M296.9407048376029,5.934459583450346A297,297,0,0,1,285.0802777277671,83.29606983921363L246.88676263016944,72.13651251616179A257.2095449239783,257.2095449239783,0,0,0,257.15819380702084,5.139392757000018Z" fill-rule="evenodd" style="fill: #F09B24; stroke: #fff; opacity: 1;" id="p-type-ether"></path><path d="M285.0802777277671,83.29606983921363A297,297,0,0,1,257.22500416031954,148.47322059793683L222.76338809139463,128.58158081950427A257.2095449239783,257.2095449239783,0,0,0,246.88676263016944,72.13651251616179Z" fill-rule="evenodd" style="fill: #F09B24; stroke: #fff; opacity: 1;" id="p-type-ether"></path><path d="M257.22500416031954,148.47322059793683A297,297,0,0,1,243.90753506657754,169.46419780515956L211.23012154209994,146.7603003312193A257.2095449239783,257.2095449239783,0,0,0,222.76338809139463,128.58158081950427Z" fill-rule="evenodd" style="fill: #F09B24; stroke: #fff; opacity: 1;" id="p-type-ether"></path><path d="M243.90753506657754,169.46419780515956A297,297,0,0,1,233.3426345162883,183.73953008810568L202.0806492770933,159.12310073571473A257.2095449239783,257.2095449239783,0,0,0,211.23012154209994,146.7603003312193Z" fill-rule="evenodd" style="fill: #F09B24; stroke: #fff; opacity: 1;" id="p-type-ether"></path><path d="M233.3426345162883,183.73953008810568A297,297,0,0,1,221.95590070094204,197.34380695637134L192.2194485268721,170.9047501037498A257.2095449239783,257.2095449239783,0,0,0,202.0806492770933,159.12310073571473Z" fill-rule="evenodd" style="fill: #F09B24; stroke: #fff; opacity: 1;" id="p-type-ether"></path><path d="M221.95590070094204,197.34380695637134A297,297,0,0,1,214.75339249544913,205.15842759120468L185.98189344994938,177.67241009445357A257.2095449239783,257.2095449239783,0,0,0,192.2194485268721,170.9047501037498Z" fill-rule="evenodd" style="fill: #F09B24; stroke: #fff; opacity: 1;" id="p-type-ether"></path><path d="M214.75339249544913,205.15842759120468A297,297,0,0,1,207.694857929213,212.3013094395888L179.8690232020983,183.85832723138495A257.2095449239783,257.2095449239783,0,0,0,185.98189344994938,177.67241009445357Z" fill-rule="evenodd" style="fill: #F09B24; stroke: #fff; opacity: 1;" id="p-type-ether"></path><path d="M207.694857929213,212.3013094395888A297,297,0,0,1,200.41976730977677,219.1823826667986L173.5686099108327,189.81751145144958A257.2095449239783,257.2095449239783,0,0,0,179.8690232020983,183.85832723138495Z" fill-rule="evenodd" style="fill: #F09B24; stroke: #fff; opacity: 1;" id="p-type-ether"></path><path d="M200.41976730977677,219.1823826667986A297,297,0,0,1,194.47550608079976,224.4733336826823L168.42072867980767,194.39960944138397A257.2095449239783,257.2095449239783,0,0,0,173.5686099108327,189.81751145144958Z" fill-rule="evenodd" style="fill: #F09B24; stroke: #fff; opacity: 1;" id="p-type-ether"></path><path d="M194.47550608079976,224.4733336826823A297,297,0,0,1,188.96843711656715,229.12863150143855L163.65146705638935,198.43121561460916A257.2095449239783,257.2095449239783,0,0,0,168.42072867980767,194.39960944138397Z" fill-rule="evenodd" style="fill: #F09B24; stroke: #fff; opacity: 1;" id="p-type-ether"></path><path d="M188.96843711656715,229.12863150143855A297,297,0,0,1,183.37625888811328,233.62822534145923L158.80849864805808,202.32797818677906A257.2095449239783,257.2095449239783,0,0,0,163.65146705638935,198.43121561460916Z" fill-rule="evenodd" style="fill: #F09B24; stroke: #fff; opacity: 1;" id="p-type-ether"></path><path d="M183.37625888811328,233.62822534145923A297,297,0,0,1,179.1695864174785,236.869709551453L155.1654134230877,205.1351858585998A257.2095449239783,257.2095449239783,0,0,0,158.80849864805808,202.32797818677906Z" fill-rule="evenodd" style="fill: #F09B24; stroke: #fff; opacity: 1;" id="p-type-ether"></path><path d="M179.1695864174785,236.869709551453A297,297,0,0,1,175.90130077431752,239.3067746343657L152.33499502928632,207.2457461310782A257.2095449239783,257.2095449239783,0,0,0,155.1654134230877,205.1351858585998Z" fill-rule="evenodd" style="fill: #F09B24; stroke: #fff; opacity: 1;" id="p-type-ether"></path><path d="M175.90130077431752,239.3067746343657A297,297,0,0,1,172.81653166047298,241.54388086814527L149.66350661188733,209.18313696049586A257.2095449239783,257.2095449239783,0,0,0,152.33499502928632,207.2457461310782Z" fill-rule="evenodd" style="fill: #F09B24; stroke: #fff; opacity: 1;" id="p-type-ether"></path><path d="M172.81653166047298,241.54388086814527A297,297,0,0,1,169.9151945616241,243.59356858727907L147.15087497934198,210.9582185950907A257.2095449239783,257.2095449239783,0,0,0,149.66350661188733,209.18313696049586Z" fill-rule="evenodd" style="fill: #F09B24; stroke: #fff; opacity: 1;" id="p-type-ether"></path><path d="M169.9151945616241,243.59356858727907A297,297,0,0,1,167.67985491342554,245.1376475701204L145.21501405791545,212.29543021968095A257.2095449239783,257.2095449239783,0,0,0,147.15087497934198,210.9582185950907Z" fill-rule="evenodd" style="fill: #F09B24; stroke: #fff; opacity: 1;" id="p-type-ether"></path><path d="M167.67985491342554,245.1376475701204A297,297,0,0,1,166.107951848257,246.20550020821457L143.85370607119285,213.2202177317687A257.2095449239783,257.2095449239783,0,0,0,145.21501405791545,212.29543021968095Z" fill-rule="evenodd" style="fill: #F09B24; stroke: #fff; opacity: 1;" id="p-type-ether"></path><path d="M166.107951848257,246.20550020821457A297,297,0,0,1,164.58571380193072,247.2256920554758L142.5354092524671,214.10372978823074A257.2095449239783,257.2095449239783,0,0,0,143.85370607119285,213.2202177317687Z" fill-rule="evenodd" style="fill: #F09B24; stroke: #fff; opacity: 1;" id="p-type-ether"></path><path d="M164.58571380193072,247.2256920554758A297,297,0,0,1,163.104277778989,248.2055490318345L141.2524480225182,214.95231082183275A257.2095449239783,257.2095449239783,0,0,0,142.5354092524671,214.10372978823074Z" fill-rule="evenodd" style="fill: #F09B24; stroke: #fff; opacity: 1;" id="p-type-ether"></path><path d="M163.104277778989,248.2055490318345A297,297,0,0,1,161.69091361379998,249.12857815741387L140.0284387506659,215.75167749301744A257.2095449239783,257.2095449239783,0,0,0,141.2524480225182,214.95231082183275Z" fill-rule="evenodd" style="fill: #F09B24; stroke: #fff; opacity: 1;" id="p-type-ether"></path><path d="M161.69091361379998,249.12857815741387A297,297,0,0,1,160.42243064009787,249.94728193665756L138.92990027117187,216.4606957640168A257.2095449239783,257.2095449239783,0,0,0,140.0284387506659,215.75167749301744Z" fill-rule="evenodd" style="fill: #F09B24; stroke: #fff; opacity: 1;" id="p-type-ether"></path><path d="M69.82359788644017,288.6757093663973A297,297,0,0,1,68.09597138182848,289.08811577366026L58.97284111204159,250.35765219216668A257.2095449239783,257.2095449239783,0,0,0,60.469009553286625,250.00049776679353Z" fill-rule="evenodd" style="fill: #AE497E; stroke: #fff; opacity: 1;" id="p-type-tokenTransfers"></path><path d="M68.09597138182848,289.08811577366026A297,297,0,0,1,66.36590944217059,289.4901830182046L57.474563522177284,250.7058526399717A257.2095449239783,257.2095449239783,0,0,0,58.97284111204159,250.35765219216668Z" fill-rule="evenodd" style="fill: #AE497E; stroke: #fff; opacity: 1;" id="p-type-tokenTransfers"></path><path d="M66.36590944217059,289.4901830182046A297,297,0,0,1,64.63347394269049,289.88189672019803L55.97423036920952,251.04508665690844A257.2095449239783,257.2095449239783,0,0,0,57.474563522177284,250.7058526399717Z" fill-rule="evenodd" style="fill: #AE497E; stroke: #fff; opacity: 1;" id="p-type-tokenTransfers"></path><path d="M64.63347394269049,289.88189672019803A297,297,0,0,1,62.89872684350184,290.2632428700998L54.471895312170794,251.37534211035876A257.2095449239783,257.2095449239783,0,0,0,55.97423036920952,251.04508665690844Z" fill-rule="evenodd" style="fill: #AE497E; stroke: #fff; opacity: 1;" id="p-type-tokenTransfers"></path><path d="M62.89872684350184,290.2632428700998A297,297,0,0,1,61.16173018739219,290.63420782916216L52.96761208169121,251.69660718882065A257.2095449239783,257.2095449239783,0,0,0,54.471895312170794,251.37534211035876Z" fill-rule="evenodd" style="fill: #AE497E; stroke: #fff; opacity: 1;" id="p-type-tokenTransfers"></path><path d="M61.16173018739219,290.63420782916216A297,297,0,0,1,59.42254609760383,290.99477832991806L51.461434478076775,252.0088704023305A257.2095449239783,257.2095449239783,0,0,0,52.96761208169121,251.69660718882065Z" fill-rule="evenodd" style="fill: #AE497E; stroke: #fff; opacity: 1;" id="p-type-tokenTransfers"></path><path d="M59.42254609760383,290.99477832991806A297,297,0,0,1,57.681236775612106,291.34494147665544L49.95341636938529,252.31212058287414A257.2095449239783,257.2095449239783,0,0,0,51.461434478076775,252.0088704023305Z" fill-rule="evenodd" style="fill: #AE497E; stroke: #fff; opacity: 1;" id="p-type-tokenTransfers"></path><path d="M57.681236775612106,291.34494147665544A297,297,0,0,1,55.93786449890074,291.68468474587866L48.443611689499726,252.6063468847863A257.2095449239783,257.2095449239783,0,0,0,49.95341636938529,252.31212058287414Z" fill-rule="evenodd" style="fill: #AE497E; stroke: #fff; opacity: 1;" id="p-type-tokenTransfers"></path><path d="M55.93786449890074,291.68468474587866A297,297,0,0,1,54.19249161873447,292.0139959867564L46.93207443619933,252.89153878513818A257.2095449239783,257.2095449239783,0,0,0,48.443611689499726,252.6063468847863Z" fill-rule="evenodd" style="fill: #AE497E; stroke: #fff; opacity: 1;" id="p-type-tokenTransfers"></path><path d="M54.19249161873447,292.0139959867564A297,297,0,0,1,52.44518055792918,292.33286342155617L45.418858669228406,253.16768608411434A257.2095449239783,257.2095449239783,0,0,0,46.93207443619933,252.89153878513818Z" fill-rule="evenodd" style="fill: #AE497E; stroke: #fff; opacity: 1;" id="p-type-tokenTransfers"></path><path d="M52.44518055792918,292.33286342155617A297,297,0,0,1,50.69599380861922,292.6412756460654L43.90401850836286,253.43477890537702A257.2095449239783,257.2095449239783,0,0,0,45.418858669228406,253.16768608411434Z" fill-rule="evenodd" style="fill: #AE497E; stroke: #fff; opacity: 1;" id="p-type-tokenTransfers"></path><path d="M50.69599380861922,292.6412756460654A297,297,0,0,1,48.94499393002249,292.9392216299997L42.38760813147463,253.69280769641964A257.2095449239783,257.2095449239783,0,0,0,43.90401850836286,253.43477890537702Z" fill-rule="evenodd" style="fill: #AE497E; stroke: #fff; opacity: 1;" id="p-type-tokenTransfers"></path><path d="M48.94499393002249,292.9392216299997A297,297,0,0,1,47.192243546203,293.22669071739676L40.86968177259403,253.94176322890826A257.2095449239783,257.2095449239783,0,0,0,42.38760813147463,253.69280769641964Z" fill-rule="evenodd" style="fill: #AE497E; stroke: #fff; opacity: 1;" id="p-type-tokenTransfers"></path><path d="M47.192243546203,293.22669071739676A297,297,0,0,1,45.43780534383112,293.50367262699814L39.350293719970075,254.18163659901177A257.2095449239783,257.2095449239783,0,0,0,40.86968177259403,253.94176322890826Z" fill-rule="evenodd" style="fill: #AE497E; stroke: #fff; opacity: 1;" id="p-type-tokenTransfers"></path><path d="M45.43780534383112,293.50367262699814A297,297,0,0,1,43.68174206994164,293.7701574526165L37.82949831412891,254.41241922772033A257.2095449239783,257.2095449239783,0,0,0,39.350293719970075,254.18163659901177Z" fill-rule="evenodd" style="fill: #AE497E; stroke: #fff; opacity: 1;" id="p-type-tokenTransfers"></path><path d="M43.68174206994164,293.7701574526165A297,297,0,0,1,41.92411652968959,294.02613566349L36.30734994593029,254.63410286115203A257.2095449239783,257.2095449239783,0,0,0,37.82949831412891,254.41241922772033Z" fill-rule="evenodd" style="fill: #AE497E; stroke: #fff; opacity: 1;" id="p-type-tokenTransfers"></path><path d="M41.92411652968959,294.02613566349A297,297,0,0,1,40.16499158410408,294.27159810462314L34.783903054622314,254.84667957084832A257.2095449239783,257.2095449239783,0,0,0,36.30734994593029,254.63410286115203Z" fill-rule="evenodd" style="fill: #AE497E; stroke: #fff; opacity: 1;" id="p-type-tokenTransfers"></path><path d="M40.16499158410408,294.27159810462314A297,297,0,0,1,38.40443014784005,294.50653599711444L33.25921212589446,255.05014175405736A257.2095449239783,257.2095449239783,0,0,0,34.783903054622314,254.84667957084832Z" fill-rule="evenodd" style="fill: #AE497E; stroke: #fff; opacity: 1;" id="p-type-tokenTransfers"></path><path d="M38.40443014784005,294.50653599711444A297,297,0,0,1,36.642495186928194,294.7309409384701L31.73333168992884,255.2444821340061A257.2095449239783,257.2095449239783,0,0,0,33.25921212589446,255.05014175405736Z" fill-rule="evenodd" style="fill: #AE497E; stroke: #fff; opacity: 1;" id="p-type-tokenTransfers"></path><path d="M36.642495186928194,294.7309409384701A297,297,0,0,1,34.879249716522935,294.9448049029046L30.206316319450043,255.42969376016043A257.2095449239783,257.2095449239783,0,0,0,31.73333168992884,255.2444821340061Z" fill-rule="evenodd" style="fill: #AE497E; stroke: #fff; opacity: 1;" id="p-type-tokenTransfers"></path><path d="M34.879249716522935,294.9448049029046A297,297,0,0,1,33.11475679864874,295.14812024162774L28.67822062777326,255.6057700084737A257.2095449239783,257.2095449239783,0,0,0,30.206316319450043,255.42969376016043Z" fill-rule="evenodd" style="fill: #AE497E; stroke: #fff; opacity: 1;" id="p-type-tokenTransfers"></path><path d="M33.11475679864874,295.14812024162774A297,297,0,0,1,31.349079539944736,295.34087968311843L27.149099266851124,255.77270458162394A257.2095449239783,257.2095449239783,0,0,0,28.67822062777326,255.6057700084737Z" fill-rule="evenodd" style="fill: #AE497E; stroke: #fff; opacity: 1;" id="p-type-tokenTransfers"></path><path d="M31.349079539944736,295.34087968311843A297,297,0,0,1,29.582281089407665,295.52307633338427L25.619006925319038,255.93049150923864A257.2095449239783,257.2095449239783,0,0,0,27.149099266851124,255.77270458162394Z" fill-rule="evenodd" style="fill: #AE497E; stroke: #fff; opacity: 1;" id="p-type-tokenTransfers"></path><path d="M29.582281089407665,295.52307633338427A297,297,0,0,1,27.814424636133435,295.69470367620863L24.087998326539296,256.0791251481086A257.2095449239783,257.2095449239783,0,0,0,25.619006925319038,255.93049150923864Z" fill-rule="evenodd" style="fill: #AE497E; stroke: #fff; opacity: 1;" id="p-type-tokenTransfers"></path><path d="M27.814424636133435,295.69470367620863A297,297,0,0,1,26.045573407057145,295.8557555733834L22.556128226643903,256.2186001823896A257.2095449239783,257.2095449239783,0,0,0,24.087998326539296,256.0791251481086Z" fill-rule="evenodd" style="fill: #AE497E; stroke: #fff; opacity: 1;" id="p-type-tokenTransfers"></path><path d="M26.045573407057145,295.8557555733834A297,297,0,0,1,24.27579066469179,296.0062262649285L21.023451412576215,256.3489116237926A257.2095449239783,257.2095449239783,0,0,0,22.556128226643903,256.2186001823896Z" fill-rule="evenodd" style="fill: #AE497E; stroke: #fff; opacity: 1;" id="p-type-tokenTransfers"></path><path d="M24.27579066469179,296.0062262649285A297,297,0,0,1,22.50513970486571,296.14611036929807L19.49002270013153,256.4700548117623A257.2095449239783,257.2095449239783,0,0,0,21.023451412576215,256.3489116237926Z" fill-rule="evenodd" style="fill: #AE497E; stroke: #fff; opacity: 1;" id="p-type-tokenTransfers"></path><path d="M22.50513970486571,296.14611036929807A297,297,0,0,1,20.73368385445881,296.2754028835728L17.955896931996588,256.58202541364335A257.2095449239783,257.2095449239783,0,0,0,19.49002270013153,256.4700548117623Z" fill-rule="evenodd" style="fill: #AE497E; stroke: #fff; opacity: 1;" id="p-type-tokenTransfers"></path><path d="M20.73368385445881,296.2754028835728A297,297,0,0,1,18.96148646913771,296.3940991836388L16.421128975788157,256.6848194248357A257.2095449239783,257.2095449239783,0,0,0,17.955896931996588,256.58202541364335Z" fill-rule="evenodd" style="fill: #AE497E; stroke: #fff; opacity: 1;" id="p-type-tokenTransfers"></path><path d="M18.96148646913771,296.3940991836388A297,297,0,0,1,17.188610931089844,296.5021950243533L14.885773722090699,256.7784331689379A257.2095449239783,257.2095449239783,0,0,0,16.421128975788157,256.6848194248357Z" fill-rule="evenodd" style="fill: #AE497E; stroke: #fff; opacity: 1;" id="p-type-tokenTransfers"></path><path d="M17.188610931089844,296.5021950243533A297,297,0,0,1,15.415120646756582,296.599686539696L13.349886082493207,256.86286329787816A257.2095449239783,257.2095449239783,0,0,0,14.885773722090699,256.7784331689379Z" fill-rule="evenodd" style="fill: #AE497E; stroke: #fff; opacity: 1;" id="p-type-tokenTransfers"></path><path d="M15.415120646756582,296.599686539696A297,297,0,0,1,13.64107904456556,296.6865702429079L11.813520987625335,256.93810679203455A257.2095449239783,257.2095449239783,0,0,0,13.349886082493207,256.86286329787816Z" fill-rule="evenodd" style="fill: #AE497E; stroke: #fff; opacity: 1;" id="p-type-tokenTransfers"></path><path d="M13.64107904456556,296.6865702429079A297,297,0,0,1,11.866549572662146,296.76284302661537L10.276733385192793,257.0041609603426A257.2095449239783,257.2095449239783,0,0,0,11.813520987625335,256.93810679203455Z" fill-rule="evenodd" style="fill: #AE497E; stroke: #fff; opacity: 1;" id="p-type-tokenTransfers"></path><path d="M11.866549572662146,296.76284302661537A297,297,0,0,1,10.09159569664025,296.82850216294185L8.739578238012175,257.0610234403918A257.2095449239783,257.2095449239783,0,0,0,10.276733385192793,257.0041609603426Z" fill-rule="evenodd" style="fill: #AE497E; stroke: #fff; opacity: 1;" id="p-type-tokenTransfers"></path><path d="M10.09159569664025,296.82850216294185A297,297,0,0,1,8.316280897272478,296.883545303605L7.202110522045211,257.1086921985102A257.2095449239783,257.2095449239783,0,0,0,8.739578238012175,257.0610234403918Z" fill-rule="evenodd" style="fill: #AE497E; stroke: #fff; opacity: 1;" id="p-type-tokenTransfers"></path><path d="M8.316280897272478,296.883545303605A297,297,0,0,1,6.540668668239774,296.92797048000097L5.664385224432577,257.1471655298367A257.2095449239783,257.2095449239783,0,0,0,7.202110522045211,257.1086921985102Z" fill-rule="evenodd" style="fill: #AE497E; stroke: #fff; opacity: 1;" id="p-type-tokenTransfers"></path><path d="M6.540668668239774,296.92797048000097A297,297,0,0,1,4.76482251386058,296.96177610327464L4.126457341527293,257.17644205838246A257.2095449239783,257.2095449239783,0,0,0,5.664385224432577,257.1471655298367Z" fill-rule="evenodd" style="fill: #AE497E; stroke: #fff; opacity: 1;" id="p-type-tokenTransfers"></path><path d="M4.76482251386058,296.96177610327464A297,297,0,0,1,2.9888059468196135,296.9849609643765L2.5883818769277873,257.19652073707994A257.2095449239783,257.2095449239783,0,0,0,4.126457341527293,257.17644205838246Z" fill-rule="evenodd" style="fill: #AE497E; stroke: #fff; opacity: 1;" id="p-type-tokenTransfers"></path><path d="M2.9888059468196135,296.9849609643765A297,297,0,0,1,1.2126824858963587,296.99752423410604L1.050213839510711,257.2074008478203A257.2095449239783,257.2095449239783,0,0,0,2.5883818769277873,257.19652073707994Z" fill-rule="evenodd" style="fill: #AE497E; stroke: #fff; opacity: 1;" id="p-type-tokenTransfers"></path><path d="M1.2126824858963587,296.99752423410604A297,297,0,0,1,-0.5634843463066663,296.999465463141L-0.4879917585364412,257.2090820014791A257.2095449239783,257.2095449239783,0,0,0,1.050213839510711,257.2074008478203Z" fill-rule="evenodd" style="fill: #AE497E; stroke: #fff; opacity: 1;" id="p-type-tokenTransfers"></path><path d="M-0.5634843463066663,296.999465463141A297,297,0,0,1,-2.339631025635782,296.9907845820538L-2.026179903682829,257.2015641379304A257.2095449239783,257.2095449239783,0,0,0,-0.4879917585364412,257.2090820014791Z" fill-rule="evenodd" style="fill: #AE497E; stroke: #fff; opacity: 1;" id="p-type-tokenTransfers"></path><path d="M-2.339631025635782,296.9907845820538A297,297,0,0,1,-4.115694028658072,296.971481901314L-3.56429558302181,257.1848475260486A257.2095449239783,257.2095449239783,0,0,0,-2.026179903682829,257.2015641379304Z" fill-rule="evenodd" style="fill: #AE497E; stroke: #fff; opacity: 1;" id="p-type-tokenTransfers"></path><path d="M-4.115694028658072,296.971481901314A297,297,0,0,1,-5.89160983493328,296.941558111277L-5.102283786238464,257.15893276369906A257.2095449239783,257.2095449239783,0,0,0,-3.56429558302181,257.1848475260486Z" fill-rule="evenodd" style="fill: #AE497E; stroke: #fff; opacity: 1;" id="p-type-tokenTransfers"></path><path d="M-5.89160983493328,296.941558111277A297,297,0,0,1,-7.667314929285602,296.9010142821596L-6.640089507577019,257.1238207777167A257.2095449239783,257.2095449239783,0,0,0,-5.102283786238464,257.15893276369906Z" fill-rule="evenodd" style="fill: #AE497E; stroke: #fff; opacity: 1;" id="p-type-tokenTransfers"></path><path d="M-7.667314929285602,296.9010142821596A297,297,0,0,1,-9.4427458040753,296.8498518640015L-8.177657747808125,257.0795128238727A257.2095449239783,257.2095449239783,0,0,0,-6.640089507577019,257.1238207777167Z" fill-rule="evenodd" style="fill: #AE497E; stroke: #fff; opacity: 1;" id="p-type-tokenTransfers"></path><path d="M-9.4427458040753,296.8498518640015A297,297,0,0,1,-11.217838961470017,296.7880726866134L-9.714933516195881,257.0260104868297A257.2095449239783,257.2095449239783,0,0,0,-8.177657747808125,257.0795128238727Z" fill-rule="evenodd" style="fill: #AE497E; stroke: #fff; opacity: 1;" id="p-type-tokenTransfers"></path><path d="M-11.217838961470017,296.7880726866134A297,297,0,0,1,-12.992530915715783,296.71567895951193L-11.251861832464563,256.9633156800852A257.2095449239783,257.2095449239783,0,0,0,-9.714933516195881,257.0260104868297Z" fill-rule="evenodd" style="fill: #AE497E; stroke: #fff; opacity: 1;" id="p-type-tokenTransfers"></path><path d="M-12.992530915715783,296.71567895951193A297,297,0,0,1,-14.766758195407553,296.6326732718403L-12.788387728764993,256.891430645903A257.2095449239783,257.2095449239783,0,0,0,-11.251861832464563,256.9633156800852Z" fill-rule="evenodd" style="fill: #AE497E; stroke: #fff; opacity: 1;" id="p-type-tokenTransfers"></path><path d="M-14.766758195407553,296.6326732718403A297,297,0,0,1,-16.540457345759243,296.5390585922757L-14.324456251640433,256.8103579552329A257.2095449239783,257.2095449239783,0,0,0,-12.788387728764993,256.891430645903Z" fill-rule="evenodd" style="fill: #AE497E; stroke: #fff; opacity: 1;" id="p-type-tokenTransfers"></path><path d="M-16.540457345759243,296.5390585922757A297,297,0,0,1,-18.313564930873188,296.4348382689233L-15.860012463991989,256.72010050761907A257.2095449239783,257.2095449239783,0,0,0,-14.324456251640433,256.8103579552329Z" fill-rule="evenodd" style="fill: #AE497E; stroke: #fff; opacity: 1;" id="p-type-tokenTransfers"></path><path d="M-18.313564930873188,296.4348382689233A297,297,0,0,1,-20.086017536008903,296.3200160291963L-17.395001447043427,256.62066153109606A257.2095449239783,257.2095449239783,0,0,0,-15.860012463991989,256.72010050761907Z" fill-rule="evenodd" style="fill: #AE497E; stroke: #fff; opacity: 1;" id="p-type-tokenTransfers"></path><path d="M-20.086017536008903,296.3200160291963A297,297,0,0,1,-21.857751769851085,296.1945959796829L-18.929368302305313,256.51204458207354A257.2095449239783,257.2095449239783,0,0,0,-17.395001447043427,256.62066153109606Z" fill-rule="evenodd" style="fill: #AE497E; stroke: #fff; opacity: 1;" id="p-type-tokenTransfers"></path><path d="M-21.857751769851085,296.1945959796829A297,297,0,0,1,-23.62870426677681,296.0585826059991L-20.463058153538476,256.394253545209A257.2095449239783,257.2095449239783,0,0,0,-18.929368302305313,256.51204458207354Z" fill-rule="evenodd" style="fill: #AE497E; stroke: #fff; opacity: 1;" id="p-type-tokenTransfers"></path><path d="M-23.62870426677681,296.0585826059991A297,297,0,0,1,-25.398811689121764,295.9119807726286L-21.996016148716595,256.26729263326877A257.2095449239783,257.2095449239783,0,0,0,-20.463058153538476,256.394253545209Z" fill-rule="evenodd" style="fill: #AE497E; stroke: #fff; opacity: 1;" id="p-type-tokenTransfers"></path><path d="M-25.398811689121764,295.9119807726286A297,297,0,0,1,-27.16801072944552,295.75479572274855L-23.52818746198802,256.1311663869775A257.2095449239783,257.2095449239783,0,0,0,-21.996016148716595,256.26729263326877Z" fill-rule="evenodd" style="fill: #AE497E; stroke: #fff; opacity: 1;" id="p-type-tokenTransfers"></path><path d="M-27.16801072944552,295.75479572274855A297,297,0,0,1,-28.9362381127957,295.58703307804217L-25.05951729563656,255.9858796748557A257.2095449239783,257.2095449239783,0,0,0,-23.52818746198802,256.1311663869775Z" fill-rule="evenodd" style="fill: #AE497E; stroke: #fff; opacity: 1;" id="p-type-tokenTransfers"></path><path d="M-28.9362381127957,295.58703307804217A297,297,0,0,1,-30.703430598970975,295.40869883849757L-26.58995088204133,255.8314376930455A257.2095449239783,257.2095449239783,0,0,0,-25.05951729563656,255.9858796748557Z" fill-rule="evenodd" style="fill: #AE497E; stroke: #fff; opacity: 1;" id="p-type-tokenTransfers"></path><path d="M-30.703430598970975,295.40869883849757A297,297,0,0,1,-32.46952498478287,295.21979938219346L-28.119433485635508,255.66784596512508A257.2095449239783,257.2095449239783,0,0,0,-26.58995088204133,255.8314376930455Z" fill-rule="evenodd" style="fill: #AE497E; stroke: #fff; opacity: 1;" id="p-type-tokenTransfers"></path><path d="M-32.46952498478287,295.21979938219346A297,297,0,0,1,-34.23445810631618,295.02034146507066L-29.647910404863925,255.4951103419108A257.2095449239783,257.2095449239783,0,0,0,-28.119433485635508,255.66784596512508Z" fill-rule="evenodd" style="fill: #AE497E; stroke: #fff; opacity: 1;" id="p-type-tokenTransfers"></path><path d="M-34.23445810631618,295.02034146507066A297,297,0,0,1,-35.998166841188024,294.81033222069067L-31.175326974139452,255.31323700124813A257.2095449239783,257.2095449239783,0,0,0,-29.647910404863925,255.4951103419108Z" fill-rule="evenodd" style="fill: #AE497E; stroke: #fff; opacity: 1;" id="p-type-tokenTransfers"></path><path d="M-35.998166841188024,294.81033222069067A297,297,0,0,1,-37.7605881108054,294.58977915998054L-32.70162856579812,255.12223244779074A257.2095449239783,257.2095449239783,0,0,0,-31.175326974139452,255.31323700124813Z" fill-rule="evenodd" style="fill: #AE497E; stroke: #fff; opacity: 1;" id="p-type-tokenTransfers"></path><path d="M-37.7605881108054,294.58977915998054A297,297,0,0,1,-39.521658882621146,294.3586901709642L-34.22676059205283,254.9221035127678A257.2095449239783,257.2095449239783,0,0,0,-32.70162856579812,255.12223244779074Z" fill-rule="evenodd" style="fill: #AE497E; stroke: #fff; opacity: 1;" id="p-type-tokenTransfers"></path><path d="M-39.521658882621146,294.3586901709642A297,297,0,0,1,-41.28131617238835,294.1170735184806L-35.7506685069457,254.71285735373957A257.2095449239783,257.2095449239783,0,0,0,-34.22676059205283,254.9221035127678Z" fill-rule="evenodd" style="fill: #AE497E; stroke: #fff; opacity: 1;" id="p-type-tokenTransfers"></path><path d="M-41.28131617238835,294.1170735184806A297,297,0,0,1,-43.03949704641291,293.86493784388745L-37.2732978082989,254.4945014543416A257.2095449239783,257.2095449239783,0,0,0,-35.7506685069457,254.71285735373957Z" fill-rule="evenodd" style="fill: #AE497E; stroke: #fff; opacity: 1;" id="p-type-tokenTransfers"></path><path d="M-43.03949704641291,293.86493784388745A297,297,0,0,1,-44.79613862380434,293.6022921647529L-38.79459403966384,254.26704362401685A257.2095449239783,257.2095449239783,0,0,0,-37.2732978082989,254.4945014543416Z" fill-rule="evenodd" style="fill: #AE497E; stroke: #fff; opacity: 1;" id="p-type-tokenTransfers"></path><path d="M-44.79613862380434,293.6022921647529A297,297,0,0,1,-46.55117807872472,293.3291458745327L-40.31450279226889,254.03049199773668A257.2095449239783,257.2095449239783,0,0,0,-38.79459403966384,254.26704362401685Z" fill-rule="evenodd" style="fill: #AE497E; stroke: #fff; opacity: 1;" id="p-type-tokenTransfers"></path><path d="M-46.55117807872472,293.3291458745327A297,297,0,0,1,-48.30455264263564,293.0455087422342L-41.8329697069652,253.7848550357096A257.2095449239783,257.2095449239783,0,0,0,-40.31450279226889,254.03049199773668Z" fill-rule="evenodd" style="fill: #AE497E; stroke: #fff; opacity: 1;" id="p-type-tokenTransfers"></path><path d="M-48.30455264263564,293.0455087422342A297,297,0,0,1,-50.05619960654307,292.7513909120671L-43.349940476170914,253.53014152307895A257.2095449239783,257.2095449239783,0,0,0,-41.8329697069652,253.7848550357096Z" fill-rule="evenodd" style="fill: #AE497E; stroke: #fff; opacity: 1;" id="p-type-tokenTransfers"></path><path d="M-50.05619960654307,292.7513909120671A297,297,0,0,1,-51.806056323240156,292.4468029030806L-44.86536084581343,253.26636056960854A257.2095449239783,257.2095449239783,0,0,0,-43.349940476170914,253.53014152307895Z" fill-rule="evenodd" style="fill: #AE497E; stroke: #fff; opacity: 1;" id="p-type-tokenTransfers"></path><path d="M-51.806056323240156,292.4468029030806A297,297,0,0,1,-53.55406020954781,292.1317556087871L-46.379176617269785,252.9935216093568A257.2095449239783,257.2095449239783,0,0,0,-44.86536084581343,253.26636056960854Z" fill-rule="evenodd" style="fill: #AE497E; stroke: #fff; opacity: 1;" id="p-type-tokenTransfers"></path><path d="M-53.55406020954781,292.1317556087871A297,297,0,0,1,-55.30014874855292,291.8062602967728L-47.89133364930506,252.71163440033968A257.2095449239783,257.2095449239783,0,0,0,-46.379176617269785,252.9935216093568Z" fill-rule="evenodd" style="fill: #AE497E; stroke: #fff; opacity: 1;" id="p-type-tokenTransfers"></path><path d="M-55.30014874855292,291.8062602967728A297,297,0,0,1,-57.04425949184428,291.47032860829444L-49.40177786000874,252.4207090241812A257.2095449239783,257.2095449239783,0,0,0,-47.89133364930506,252.71163440033968Z" fill-rule="evenodd" style="fill: #AE497E; stroke: #fff; opacity: 1;" id="p-type-tokenTransfers"></path><path d="M-57.04425949184428,291.47032860829444A297,297,0,0,1,-58.78633006174607,291.1239725578631L-50.91045522872893,252.12075588575325A257.2095449239783,257.2095449239783,0,0,0,-49.40177786000874,252.4207090241812Z" fill-rule="evenodd" style="fill: #AE497E; stroke: #fff; opacity: 1;" id="p-type-tokenTransfers"></path><path d="M-58.78633006174607,291.1239725578631A297,297,0,0,1,-60.52629815354872,290.76720453281473L-52.417311798004356,251.81178571280336A257.2095449239783,257.2095449239783,0,0,0,-50.91045522872893,252.12075588575325Z" fill-rule="evenodd" style="fill: #AE497E; stroke: #fff; opacity: 1;" id="p-type-tokenTransfers"></path><path d="M-60.52629815354872,290.76720453281473A297,297,0,0,1,-62.26410153773728,290.4000372928666L-53.92229367549422,251.4938095555709A257.2095449239783,257.2095449239783,0,0,0,-52.417311798004356,251.81178571280336Z" fill-rule="evenodd" style="fill: #AE497E; stroke: #fff; opacity: 1;" id="p-type-tokenTransfers"></path><path d="M-62.26410153773728,290.4000372928666A297,297,0,0,1,-63.99967806221699,290.02248396966155L-55.425347035905546,251.16683878639202A257.2095449239783,257.2095449239783,0,0,0,-53.92229367549422,251.4938095555709Z" fill-rule="evenodd" style="fill: #AE497E; stroke: #fff; opacity: 1;" id="p-type-tokenTransfers"></path><path d="M-63.99967806221699,290.02248396966155A297,297,0,0,1,-65.73296565453617,289.6345580662977L-56.926418122918335,250.8308850992929A257.2095449239783,257.2095449239783,0,0,0,-55.425347035905546,251.16683878639202Z" fill-rule="evenodd" style="fill: #AE497E; stroke: #fff; opacity: 1;" id="p-type-tokenTransfers"></path><path d="M-65.73296565453617,289.6345580662977A297,297,0,0,1,-67.46390232410624,289.2362734568461L-58.42545325110803,250.48596050957144A257.2095449239783,257.2095449239783,0,0,0,-56.926418122918335,250.8308850992929Z" fill-rule="evenodd" style="fill: #AE497E; stroke: #fff; opacity: 1;" id="p-type-tokenTransfers"></path><path d="M-67.46390232410624,289.2362734568461A297,297,0,0,1,-69.19242616441872,288.8276443858542L-59.922398807865676,250.13207735336766A257.2095449239783,257.2095449239783,0,0,0,-58.42545325110803,250.48596050957144Z" fill-rule="evenodd" style="fill: #AE497E; stroke: #fff; opacity: 1;" id="p-type-tokenTransfers"></path><path d="M-69.19242616441872,288.8276443858542A297,297,0,0,1,-70.91847535525939,288.4086854678365L-61.41720125531528,249.7692482872223A257.2095449239783,257.2095449239783,0,0,0,-59.922398807865676,250.13207735336766Z" fill-rule="evenodd" style="fill: #AE497E; stroke: #fff; opacity: 1;" id="p-type-tokenTransfers"></path><path d="M-70.91847535525939,288.4086854678365A297,297,0,0,1,-72.64198816491924,287.9794116867519L-62.90980713222861,249.39748628762442A257.2095449239783,257.2095449239783,0,0,0,-61.41720125531528,249.7692482872223Z" fill-rule="evenodd" style="fill: #AE497E; stroke: #fff; opacity: 1;" id="p-type-tokenTransfers"></path><path d="M-72.64198816491924,287.9794116867519A297,297,0,0,1,-74.36290295240227,287.53983839546754L-64.4001630559372,249.01680465054704A257.2095449239783,257.2095449239783,0,0,0,-62.90980713222861,249.39748628762442Z" fill-rule="evenodd" style="fill: #AE497E; stroke: #fff; opacity: 1;" id="p-type-tokenTransfers"></path><path d="M-74.36290295240227,287.53983839546754A297,297,0,0,1,-76.08115816963009,287.0899813152102L-65.88821572424163,248.62721699097185A257.2095449239783,257.2095449239783,0,0,0,-64.4001630559372,249.01680465054704Z" fill-rule="evenodd" style="fill: #AE497E; stroke: #fff; opacity: 1;" id="p-type-tokenTransfers"></path><path d="M-76.08115816963009,287.0899813152102A297,297,0,0,1,-77.79669236364313,286.62985653500346L-67.3739119173178,248.2287372424021A257.2095449239783,257.2095449239783,0,0,0,-65.88821572424163,248.62721699097185Z" fill-rule="evenodd" style="fill: #AE497E; stroke: #fff; opacity: 1;" id="p-type-tokenTransfers"></path><path d="M-77.79669236364313,286.62985653500346A297,297,0,0,1,-79.5094441787986,286.1594805110928L-68.85719849962034,247.82137965636434A257.2095449239783,257.2095449239783,0,0,0,-67.3739119173178,248.2287372424021Z" fill-rule="evenodd" style="fill: #AE497E; stroke: #fff; opacity: 1;" id="p-type-tokenTransfers"></path><path d="M-79.5094441787986,286.1594805110928A297,297,0,0,1,-81.21935235896468,285.67887006635675L-70.33802242178298,247.40515880189878A257.2095449239783,257.2095449239783,0,0,0,-68.85719849962034,247.82137965636434Z" fill-rule="evenodd" style="fill: #AE497E; stroke: #fff; opacity: 1;" id="p-type-tokenTransfers"></path><path d="M-81.21935235896468,285.67887006635675A297,297,0,0,1,-82.92635574971149,285.1880423897052L-71.8163307225159,246.98008956503804A257.2095449239783,257.2095449239783,0,0,0,-70.33802242178298,247.40515880189878Z" fill-rule="evenodd" style="fill: #AE497E; stroke: #fff; opacity: 1;" id="p-type-tokenTransfers"></path><path d="M-82.92635574971149,285.1880423897052A297,297,0,0,1,-84.63039330049823,284.68701503546487L-73.29207053049983,246.546187148275A257.2095449239783,257.2095449239783,0,0,0,-71.8163307225159,246.98008956503804Z" fill-rule="evenodd" style="fill: #AE497E; stroke: #fff; opacity: 1;" id="p-type-tokenTransfers"></path><path d="M-84.63039330049823,284.68701503546487A297,297,0,0,1,-86.3314040668565,284.1758059227512L-74.76518906627693,246.10346707001887A257.2095449239783,257.2095449239783,0,0,0,-73.29207053049983,246.546187148275Z" fill-rule="evenodd" style="fill: #AE497E; stroke: #fff; opacity: 1;" id="p-type-tokenTransfers"></path><path d="M-86.3314040668565,284.1758059227512A297,297,0,0,1,-88.02932721257021,283.65443333482773L-76.23563364413859,245.65194516404034A257.2095449239783,257.2095449239783,0,0,0,-74.76518906627693,246.10346707001887Z" fill-rule="evenodd" style="fill: #AE497E; stroke: #fff; opacity: 1;" id="p-type-tokenTransfers"></path><path d="M-88.02932721257021,283.65443333482773A297,297,0,0,1,-89.72410201185114,283.1229159184521L-77.70335167400955,245.19163757890522A257.2095449239783,257.2095449239783,0,0,0,-76.23563364413859,245.65194516404034Z" fill-rule="evenodd" style="fill: #AE497E; stroke: #fff; opacity: 1;" id="p-type-tokenTransfers"></path><path d="M-89.72410201185114,283.1229159184521A297,297,0,0,1,-91.41566785151089,282.5812726832092L-79.16829066332885,244.72256077739684A257.2095449239783,257.2095449239783,0,0,0,-77.70335167400955,245.19163757890522Z" fill-rule="evenodd" style="fill: #AE497E; stroke: #fff; opacity: 1;" id="p-type-tokenTransfers"></path><path d="M-91.41566785151089,282.5812726832092A297,297,0,0,1,-93.10396423312874,282.02952300083103L-80.63039821892725,244.24473153592734A257.2095449239783,257.2095449239783,0,0,0,-79.16829066332885,244.72256077739684Z" fill-rule="evenodd" style="fill: #AE497E; stroke: #fff; opacity: 1;" id="p-type-tokenTransfers"></path><path d="M-93.10396423312874,282.02952300083103A297,297,0,0,1,-94.78893077521522,281.4676866045043L-82.08962204890096,243.75816694393768A257.2095449239783,257.2095449239783,0,0,0,-80.63039821892725,244.24473153592734Z" fill-rule="evenodd" style="fill: #AE497E; stroke: #fff; opacity: 1;" id="p-type-tokenTransfers"></path><path d="M-94.78893077521522,281.4676866045043A297,297,0,0,1,-96.4705072153718,280.8957835881644L-83.54590996448196,243.2628844032864A257.2095449239783,257.2095449239783,0,0,0,-82.08962204890096,243.75816694393768Z" fill-rule="evenodd" style="fill: #AE497E; stroke: #fff; opacity: 1;" id="p-type-tokenTransfers"></path><path d="M-96.4705072153718,280.8957835881644A297,297,0,0,1,-98.148633412446,280.31383440577684L-84.9992098819044,242.75890162762718A257.2095449239783,257.2095449239783,0,0,0,-83.54590996448196,243.2628844032864Z" fill-rule="evenodd" style="fill: #AE497E; stroke: #fff; opacity: 1;" id="p-type-tokenTransfers"></path><path d="M-98.148633412446,280.31383440577684A297,297,0,0,1,-99.82324934868247,279.72185987060567L-86.44946982426744,242.24623664177545A257.2095449239783,257.2095449239783,0,0,0,-84.9992098819044,242.75890162762718Z" fill-rule="evenodd" style="fill: #AE497E; stroke: #fff; opacity: 1;" id="p-type-tokenTransfers"></path><path d="M-99.82324934868247,279.72185987060567A297,297,0,0,1,-101.49429513186944,279.11988115446917L-87.89663792339422,241.72490778106368A257.2095449239783,257.2095449239783,0,0,0,-86.44946982426744,242.24623664177545Z" fill-rule="evenodd" style="fill: #AE497E; stroke: #fff; opacity: 1;" id="p-type-tokenTransfers"></path><path d="M-101.49429513186944,279.11988115446917A297,297,0,0,1,-103.16171099748068,278.5079197869825L-89.34066242168677,241.1949336906856A257.2095449239783,257.2095449239783,0,0,0,-87.89663792339422,241.72490778106368Z" fill-rule="evenodd" style="fill: #AE497E; stroke: #fff; opacity: 1;" id="p-type-tokenTransfers"></path><path d="M-103.16171099748068,278.5079197869825A297,297,0,0,1,-104.82543731081314,277.8859976547879L-90.78149167397731,240.65633332502927A257.2095449239783,257.2095449239783,0,0,0,-89.34066242168677,241.1949336906856Z" fill-rule="evenodd" style="fill: #AE497E; stroke: #fff; opacity: 1;" id="p-type-tokenTransfers"></path><path d="M-104.82543731081314,277.8859976547879A297,297,0,0,1,-106.48541456911961,277.2541370007718L-92.21907414937516,240.10912594699946A257.2095449239783,257.2095449239783,0,0,0,-90.78149167397731,240.65633332502927Z" fill-rule="evenodd" style="fill: #AE497E; stroke: #fff; opacity: 1;" id="p-type-tokenTransfers"></path><path d="M-106.48541456911961,277.2541370007718A297,297,0,0,1,-108.14158340373686,276.61236042326925L-93.65335843310977,239.55333112732845A257.2095449239783,257.2095449239783,0,0,0,-92.21907414937516,240.10912594699946Z" fill-rule="evenodd" style="fill: #AE497E; stroke: #fff; opacity: 1;" id="p-type-tokenTransfers"></path><path d="M-108.14158340373686,276.61236042326925A297,297,0,0,1,-109.793884582209,275.960690875256L-95.0842932283696,238.9889687438762A257.2095449239783,257.2095449239783,0,0,0,-93.65335843310977,239.55333112732845Z" fill-rule="evenodd" style="fill: #AE497E; stroke: #fff; opacity: 1;" id="p-type-tokenTransfers"></path><path d="M-109.793884582209,275.960690875256A297,297,0,0,1,-111.44225901040583,275.29915166352697L-96.51182735813671,238.41605898091936A257.2095449239783,257.2095449239783,0,0,0,-95.0842932283696,238.9889687438762Z" fill-rule="evenodd" style="fill: #AE497E; stroke: #fff; opacity: 1;" id="p-type-tokenTransfers"></path><path d="M-111.44225901040583,275.29915166352697A297,297,0,0,1,-113.08664773463646,274.6277664478635L-97.93590976701711,237.83462232842948A257.2095449239783,257.2095449239783,0,0,0,-96.51182735813671,238.41605898091936Z" fill-rule="evenodd" style="fill: #AE497E; stroke: #fff; opacity: 1;" id="p-type-tokenTransfers"></path><path d="M-113.08664773463646,274.6277664478635A297,297,0,0,1,-114.72699194375757,273.94655924018645L-99.3564895230667,237.2446795813401A257.2095449239783,257.2095449239783,0,0,0,-97.93590976701711,237.83462232842948Z" fill-rule="evenodd" style="fill: #AE497E; stroke: #fff; opacity: 1;" id="p-type-tokenTransfers"></path><path d="M-114.72699194375757,273.94655924018645A297,297,0,0,1,-116.36323297127699,273.25555440369794L-100.77351581961285,236.64625183880312A257.2095449239783,257.2095449239783,0,0,0,-99.3564895230667,237.2446795813401Z" fill-rule="evenodd" style="fill: #AE497E; stroke: #fff; opacity: 1;" id="p-type-tokenTransfers"></path><path d="M-116.36323297127699,273.25555440369794A297,297,0,0,1,-117.99531229745172,272.5547766520096L-102.18693797707157,236.03936050343412A257.2095449239783,257.2095449239783,0,0,0,-100.77351581961285,236.64625183880312Z" fill-rule="evenodd" style="fill: #AE497E; stroke: #fff; opacity: 1;" id="p-type-tokenTransfers"></path></g></svg>