<svg xmlns="http://www.w3.org/2000/svg" width="600" height="600" id="block-7909833"><g id="burst-container" transform="translate(300,300)"><data type="text/json">{"number":7909833,"totalTransactions":143,"totalFunctions":0,"totalLogs":113,"totalTokenTransfers":113,"totalEther":4263523425320585000}</data><circle r="297" style="fill: #f9f9f9; stroke: #f9f9f9; stroke-width: 3; opacity: 1;" id="circle-base"></circle><path display="none" d="M9.093002483669097e-15,-148.5A148.5,148.5,0,1,1,-9.093002483669097e-15,148.5A148.5,148.5,0,1,1,9.093002483669097e-15,-148.5Z" fill-rule="evenodd" id="p-type-root" style="stroke: #fff; opacity: 1;"></path><path d="M1.2859447435097075e-14,-210.0107140124046A210.0107140124046,210.0107140124046,0,1,1,-136.25818352141988,-159.80678153145774L-96.34908556015708,-113.00045890049088A148.5,148.5,0,1,0,9.093002483669097e-15,-148.5Z" fill-rule="evenodd" style="fill: #4E4E4E; stroke: #fff; opacity: 1;" id="p-type-data"></path><path d="M-136.25818352141988,-159.80678153145774A210.0107140124046,210.0107140124046,0,0,1,-5.202034880959253,-209.94627606389517L-3.678394140295243,-148.45443548964323A148.5,148.5,0,0,0,-96.34908556015708,-113.00045890049088Z" fill-rule="evenodd" style="fill: #3A86AD; stroke: #fff; opacity: 1;" id="p-type-value"></path><path d="M1.5749542295064867e-14,-257.2095449239783A257.2095449239783,257.2095449239783,0,0,1,86.3236056969466,242.29111642707434L70.48292890491007,197.82986815186777A210.0107140124046,210.0107140124046,0,0,0,1.2859447435097075e-14,-210.0107140124046Z" fill-rule="evenodd" style="fill: #184B42; stroke: #fff; opacity: 1;" id="p-type-logs"></path><path d="M86.3236056969466,242.29111642707434A257.2095449239783,257.2095449239783,0,0,1,-64.20514288456587,249.06715886919432L-52.42327964322414,203.3624836380799A210.0107140124046,210.0107140124046,0,0,0,70.48292890491007,197.82986815186777Z" fill-rule="evenodd" style="fill: #AE497E; stroke: #fff; opacity: 1;" id="p-type-tokenTransfers"></path><path d="M-64.20514288456587,249.06715886919432A257.2095449239783,257.2095449239783,0,0,1,-158.5730310955573,202.51257691602123L-129.47433771686852,165.35082664679447A210.0107140124046,210.0107140124046,0,0,0,-52.42327964322414,203.3624836380799Z" fill-rule="evenodd" style="fill: #F09B24; stroke: #fff; opacity: 1;" id="p-type-ether"></path><path d="M-166.88151145299292,-195.722536094249A257.2095449239783,257.2095449239783,0,0,1,-87.42783213741468,-241.89486180519015L-71.38452601812224,-197.50632760792254A210.0107140124046,210.0107140124046,0,0,0,-136.25818352141988,-159.80678153145774Z" fill-rule="evenodd" style="fill: #F09B24; stroke: #fff; opacity: 1;" id="p-type-ether"></path><path d="M-87.42783213741468,-241.89486180519015A257.2095449239783,257.2095449239783,0,0,1,-12.738421331152754,-256.89391316648596L-10.400877463303035,-209.75300176157992A210.0107140124046,210.0107140124046,0,0,0,-71.38452601812224,-197.50632760792254Z" fill-rule="evenodd" style="fill: #AE497E; stroke: #fff; opacity: 1;" id="p-type-tokenTransfers"></path><path d="M1.8186004967338195e-14,-297A297,297,0,0,1,3.67867633476538,-296.97721687096475L3.1858271582074473,-257.1898141554561A257.2095449239783,257.2095449239783,0,0,0,1.5749542295064867e-14,-257.2095449239783Z" fill-rule="evenodd" style="fill: #184B42; stroke: #fff; opacity: 1;" id="p-type-logs"></path><path d="M3.67867633476538,-296.97721687096475A297,297,0,0,1,7.3567882805906475,-296.90887097928646L6.371165541255142,-257.13062487701836A257.2095449239783,257.2095449239783,0,0,0,3.1858271582074473,-257.1898141554561Z" fill-rule="evenodd" style="fill: #184B42; stroke: #fff; opacity: 1;" id="p-type-logs"></path><path d="M7.3567882805906475,-296.90887097928646A297,297,0,0,1,11.033771535125064,-296.794972810711L9.555526448971928,-257.03198616958747A257.2095449239783,257.2095449239783,0,0,0,6.371165541255142,-257.13062487701836Z" fill-rule="evenodd" style="fill: #184B42; stroke: #fff; opacity: 1;" id="p-type-logs"></path><path d="M11.033771535125064,-296.794972810711A297,297,0,0,1,14.709061969183923,-296.63553983969405L12.738421331152837,-256.89391316648596A257.2095449239783,257.2095449239783,0,0,0,9.555526448971928,-257.03198616958747Z" fill-rule="evenodd" style="fill: #184B42; stroke: #fff; opacity: 1;" id="p-type-logs"></path><path d="M14.709061969183923,-296.63553983969405A297,297,0,0,1,18.382095713297723,-296.43059652672014L15.91936186251286,-256.71642705111486A257.2095449239783,257.2095449239783,0,0,0,12.738421331152837,-256.89391316648596Z" fill-rule="evenodd" style="fill: #184B42; stroke: #fff; opacity: 1;" id="p-type-logs"></path><path d="M18.382095713297723,-296.43059652672014A297,297,0,0,1,22.052309244222542,-296.1801743145499L19.097860017607136,-256.49955505370355A257.2095449239783,257.2095449239783,0,0,0,15.91936186251286,-256.71642705111486Z" fill-rule="evenodd" style="fill: #184B42; stroke: #fff; opacity: 1;" id="p-type-logs"></path><path d="M22.052309244222542,-296.1801743145499A297,297,0,0,1,25.7191394713962,-295.8843116233959L22.27342814570419,-256.2433304471321A257.2095449239783,257.2095449239783,0,0,0,19.097860017607136,-256.49955505370355Z" fill-rule="evenodd" style="fill: #184B42; stroke: #fff; opacity: 1;" id="p-type-logs"></path><path d="M25.7191394713962,-295.8843116233959A297,297,0,0,1,29.38202382332918,-295.54305384502834L25.44557904560265,-255.94779254182677A257.2095449239783,257.2095449239783,0,0,0,22.27342814570419,-256.2433304471321Z" fill-rule="evenodd" style="fill: #184B42; stroke: #fff; opacity: 1;" id="p-type-logs"></path><path d="M29.38202382332918,-295.54305384502834A297,297,0,0,1,33.040400333914725,-295.1564533358108L28.613826040378004,-255.61298667972835A257.2095449239783,257.2095449239783,0,0,0,25.44557904560265,-255.94779254182677Z" fill-rule="evenodd" style="fill: #184B42; stroke: #fff; opacity: 1;" id="p-type-logs"></path><path d="M33.040400333914725,-295.1564533358108A297,297,0,0,1,36.69370772864718,-294.7245694086678L31.777683052049856,-255.2389642273363A257.2095449239783,257.2095449239783,0,0,0,28.613826040378004,-255.61298667972835Z" fill-rule="evenodd" style="fill: #184B42; stroke: #fff; opacity: 1;" id="p-type-logs"></path><path d="M36.69370772864718,-294.7245694086678A297,297,0,0,1,40.341385510733495,-294.2474683239847L34.93666467615668,-254.82578256782767A257.2095449239783,257.2095449239783,0,0,0,31.777683052049856,-255.2389642273363Z" fill-rule="evenodd" style="fill: #184B42; stroke: #fff; opacity: 1;" id="p-type-logs"></path><path d="M40.341385510733495,-294.2474683239847A297,297,0,0,1,43.982874047085446,-293.7252232794423L38.09028625622728,-254.3735050922534A257.2095449239783,257.2095449239783,0,0,0,34.93666467615668,-254.82578256782767Z" fill-rule="evenodd" style="fill: #184B42; stroke: #fff; opacity: 1;" id="p-type-logs"></path><path d="M43.982874047085446,-293.7252232794423A297,297,0,0,1,47.61761465417973,-293.15791439878615L41.23806395813781,-253.8822011898127A257.2095449239783,257.2095449239783,0,0,0,38.09028625622728,-254.3735050922534Z" fill-rule="evenodd" style="fill: #184B42; stroke: #fff; opacity: 1;" id="p-type-logs"></path><path d="M47.61761465417973,-293.15791439878615A297,297,0,0,1,51.245049683772216,-292.5456287195345L44.37951484434245,-253.35194623720733A257.2095449239783,257.2095449239783,0,0,0,41.23806395813781,-253.8822011898127Z" fill-rule="evenodd" style="fill: #184B42; stroke: #fff; opacity: 1;" id="p-type-logs"></path><path d="M51.245049683772216,-292.5456287195345A297,297,0,0,1,54.86462260845323,-291.8884601796241L47.514156947966555,-252.782821587077A257.2095449239783,257.2095449239783,0,0,0,44.37951484434245,-253.35194623720733Z" fill-rule="evenodd" style="fill: #184B42; stroke: #fff; opacity: 1;" id="p-type-logs"></path><path d="M54.86462260845323,-291.8884601796241A297,297,0,0,1,58.47577810703083,-291.1865096029988L50.64150934675062,-252.17491455551834A257.2095449239783,257.2095449239783,0,0,0,47.514156947966555,-252.782821587077Z" fill-rule="evenodd" style="fill: #184B42; stroke: #fff; opacity: 1;" id="p-type-logs"></path><path d="M58.47577810703083,-291.1865096029988A297,297,0,0,1,62.077962149729245,-290.43988468414045L53.76109223683437,-251.52831840868853A257.2095449239783,257.2095449239783,0,0,0,50.64150934675062,-252.17491455551834Z" fill-rule="evenodd" style="fill: #184B42; stroke: #fff; opacity: 1;" id="p-type-logs"></path><path d="M62.077962149729245,-290.43988468414045A297,297,0,0,1,65.67062208318927,-289.6486999715464L56.872427006369264,-250.84313234849625A257.2095449239783,257.2095449239783,0,0,0,53.76109223683437,-251.52831840868853Z" fill-rule="evenodd" style="fill: #184B42; stroke: #fff; opacity: 1;" id="p-type-logs"></path><path d="M65.67062208318927,-289.6486999715464A297,297,0,0,1,69.25320671525712,-288.81307685015554L59.97503630894775,-250.11946149738208A257.2095449239783,257.2095449239783,0,0,0,56.872427006369264,-250.84313234849625Z" fill-rule="evenodd" style="fill: #184B42; stroke: #fff; opacity: 1;" id="p-type-logs"></path><path d="M69.25320671525712,-288.81307685015554A297,297,0,0,1,72.82516639954925,-287.93314352272466L63.068444136838565,-249.35741688219036A257.2095449239783,257.2095449239783,0,0,0,59.97503630894775,-250.11946149738208Z" fill-rule="evenodd" style="fill: #184B42; stroke: #fff; opacity: 1;" id="p-type-logs"></path><path d="M72.82516639954925,-287.93314352272466A297,297,0,0,1,76.38595311978005,-287.00903499015976L66.15217589401674,-248.5571154171352A257.2095449239783,257.2095449239783,0,0,0,63.068444136838565,-249.35741688219036Z" fill-rule="evenodd" style="fill: #184B42; stroke: #fff; opacity: 1;" id="p-type-logs"></path><path d="M76.38595311978005,-287.00903499015976A297,297,0,0,1,79.93502057383978,-286.0408930308039L69.225758468977,-247.7186798858634A257.2095449239783,257.2095449239783,0,0,0,66.15217589401674,-248.5571154171352Z" fill-rule="evenodd" style="fill: #184B42; stroke: #fff; opacity: 1;" id="p-type-logs"></path><path d="M79.93502057383978,-286.0408930308039A297,297,0,0,1,83.47182425760887,-285.02886617868523L72.28872030731942,-246.84223892261662A257.2095449239783,257.2095449239783,0,0,0,69.225758468977,-247.7186798858634Z" fill-rule="evenodd" style="fill: #184B42; stroke: #fff; opacity: 1;" id="p-type-logs"></path><path d="M83.47182425760887,-285.02886617868523A297,297,0,0,1,86.99582154849669,-283.97310970072874L75.34059148409582,-245.9279269924963A257.2095449239783,257.2095449239783,0,0,0,72.28872030731942,-246.84223892261662Z" fill-rule="evenodd" style="fill: #184B42; stroke: #fff; opacity: 1;" id="p-type-logs"></path><path d="M86.99582154849669,-283.97310970072874A297,297,0,0,1,90.50647178869175,-282.8737855729349L78.38090377590669,-244.97588437083365A257.2095449239783,257.2095449239783,0,0,0,75.34059148409582,-245.9279269924963Z" fill-rule="evenodd" style="fill: #184B42; stroke: #fff; opacity: 1;" id="p-type-logs"></path><path d="M90.50647178869175,-282.8737855729349A297,297,0,0,1,94.00323636811046,-281.73106245552896L81.4091907327369,-243.98625712166836A257.2095449239783,257.2095449239783,0,0,0,78.38090377590669,-244.97588437083365Z" fill-rule="evenodd" style="fill: #184B42; stroke: #fff; opacity: 1;" id="p-type-logs"></path><path d="M94.00323636811046,-281.73106245552896A297,297,0,0,1,97.48557880703159,-280.5451156670849L84.42498774951925,-242.95919707533923A257.2095449239783,257.2095449239783,0,0,0,81.4091907327369,-243.98625712166836Z" fill-rule="evenodd" style="fill: #184B42; stroke: #fff; opacity: 1;" id="p-type-logs"></path><path d="M97.48557880703159,-280.5451156670849A297,297,0,0,1,100.95296483840363,-279.3161271576277L87.42783213741475,-241.89486180519012A257.2095449239783,257.2095449239783,0,0,0,84.42498774951925,-242.95919707533923Z" fill-rule="evenodd" style="fill: #184B42; stroke: #fff; opacity: 1;" id="p-type-logs"></path><path d="M100.95296483840363,-279.3161271576277A297,297,0,0,1,104.40486248981333,-278.04428548071826L90.41726319479938,-240.79341460339478A257.2095449239783,257.2095449239783,0,0,0,87.42783213741475,-241.89486180519012Z" fill-rule="evenodd" style="fill: #184B42; stroke: #fff; opacity: 1;" id="p-type-logs"></path><path d="M104.40486248981333,-278.04428548071826A297,297,0,0,1,107.84074216510172,-276.7297857645253L93.39282227794575,-239.65502445590423A257.2095449239783,257.2095449239783,0,0,0,90.41726319479938,-240.79341460339478Z" fill-rule="evenodd" style="fill: #184B42; stroke: #fff; opacity: 1;" id="p-type-logs"></path><path d="M107.84074216510172,-276.7297857645253A297,297,0,0,1,111.26007672561572,-275.372829681888L96.35405287138899,-238.4798660165205A257.2095449239783,257.2095449239783,0,0,0,93.39282227794575,-239.65502445590423Z" fill-rule="evenodd" style="fill: #184B42; stroke: #fff; opacity: 1;" id="p-type-logs"></path><path d="M111.26007672561572,-275.372829681888A297,297,0,0,1,114.66234157108252,-273.9736254193757L99.30050065796597,-237.2681195801014A257.2095449239783,257.2095449239783,0,0,0,96.35405287138899,-238.4798660165205Z" fill-rule="evenodd" style="fill: #184B42; stroke: #fff; opacity: 1;" id="p-type-logs"></path><path d="M114.66234157108252,-273.9736254193757A297,297,0,0,1,118.04701472009475,-272.53238764534706L102.23171358851762,-236.01997105489886A257.2095449239783,257.2095449239783,0,0,0,99.30050065796597,-237.2681195801014Z" fill-rule="evenodd" style="fill: #184B42; stroke: #fff; opacity: 1;" id="p-type-logs"></path><path d="M118.04701472009475,-272.53238764534706A297,297,0,0,1,121.4135768901939,-271.04933747701534L105.14724195124316,-234.73561193403683A257.2095449239783,257.2095449239783,0,0,0,102.23171358851762,-236.01997105489886Z" fill-rule="evenodd" style="fill: #184B42; stroke: #fff; opacity: 1;" id="p-type-logs"></path><path d="M121.4135768901939,-271.04933747701534A297,297,0,0,1,124.76151157753942,-269.5247024465244L108.0466384406955,-233.41523926613195A257.2095449239783,257.2095449239783,0,0,0,105.14724195124316,-234.73561193403683Z" fill-rule="evenodd" style="fill: #184B42; stroke: #fff; opacity: 1;" id="p-type-logs"></path><path d="M124.76151157753942,-269.5247024465244A297,297,0,0,1,128.09030513615164,-267.9587164660399L110.92945822640768,-232.05905562506211A257.2095449239783,257.2095449239783,0,0,0,108.0466384406955,-233.41523926613195Z" fill-rule="evenodd" style="fill: #184B42; stroke: #fff; opacity: 1;" id="p-type-logs"></path><path d="M128.09030513615164,-267.9587164660399A297,297,0,0,1,131.39944685671608,-266.3516197918628L113.79525902113943,-230.66726907888727A257.2095449239783,257.2095449239783,0,0,0,110.92945822640768,-232.05905562506211Z" fill-rule="evenodd" style="fill: #184B42; stroke: #fff; opacity: 1;" id="p-type-logs"></path><path d="M131.39944685671608,-266.3516197918628A297,297,0,0,1,134.6884290449378,-264.70365898756813L116.64360114873398,-229.24009315792702A257.2095449239783,257.2095449239783,0,0,0,113.79525902113943,-230.66726907888727Z" fill-rule="evenodd" style="fill: #184B42; stroke: #fff; opacity: 1;" id="p-type-logs"></path><path d="M134.6884290449378,-264.70365898756813A297,297,0,0,1,137.95674709943242,-263.015086886177L119.47404761157365,-227.7777468220007A257.2095449239783,257.2095449239783,0,0,0,116.64360114873398,-229.24009315792702Z" fill-rule="evenodd" style="fill: #184B42; stroke: #fff; opacity: 1;" id="p-type-logs"></path><path d="M137.95674709943242,-263.015086886177A297,297,0,0,1,141.20389958914288,-261.2861625513668L122.28616415762478,-226.2804544268339A257.2095449239783,257.2095449239783,0,0,0,119.47404761157365,-227.7777468220007Z" fill-rule="evenodd" style="fill: #184B42; stroke: #fff; opacity: 1;" id="p-type-logs"></path><path d="M141.20389958914288,-261.2861625513668A297,297,0,0,1,144.42938833026997,-259.5171512377247L125.07951934706155,-224.74844568963778A257.2095449239783,257.2095449239783,0,0,0,122.28616415762478,-226.2804544268339Z" fill-rule="evenodd" style="fill: #184B42; stroke: #fff; opacity: 1;" id="p-type-logs"></path><path d="M144.42938833026997,-259.5171512377247A297,297,0,0,1,147.63271846270476,-257.7083243500523L127.85368461845825,-223.18195565386515A257.2095449239783,257.2095449239783,0,0,0,125.07951934706155,-224.74844568963778Z" fill-rule="evenodd" style="fill: #184B42; stroke: #fff; opacity: 1;" id="p-type-logs"></path><path d="M147.63271846270476,-257.7083243500523A297,297,0,0,1,150.81339852595067,-255.8599594017258L130.6082343545399,-221.5812246531497A257.2095449239783,257.2095449239783,0,0,0,127.85368461845825,-223.18195565386515Z" fill-rule="evenodd" style="fill: #184B42; stroke: #fff; opacity: 1;" id="p-type-logs"></path><path d="M150.81339852595067,-255.8599594017258A297,297,0,0,1,153.97094053452412,-253.9723399721199L133.34274594748103,-219.94649827443385A257.2095449239783,257.2095449239783,0,0,0,130.6082343545399,-221.5812246531497Z" fill-rule="evenodd" style="fill: #184B42; stroke: #fff; opacity: 1;" id="p-type-logs"></path><path d="M153.97094053452412,-253.9723399721199A297,297,0,0,1,157.10486005282226,-252.0457556631001L136.05679986374312,-218.27802732029022A257.2095449239783,257.2095449239783,0,0,0,133.34274594748103,-219.94649827443385Z" fill-rule="evenodd" style="fill: #184B42; stroke: #fff; opacity: 1;" id="p-type-logs"></path><path d="M157.10486005282226,-252.0457556631001A297,297,0,0,1,160.214676269446,-250.08050205459168L138.7499797084401,-216.5760677704429A257.2095449239783,257.2095449239783,0,0,0,136.05679986374312,-218.27802732029022Z" fill-rule="evenodd" style="fill: #184B42; stroke: #fff; opacity: 1;" id="p-type-logs"></path><path d="M160.214676269446,-250.08050205459168A297,297,0,0,1,163.29991207096685,-248.0768806592313L141.4218722892224,-214.8408807424948A257.2095449239783,257.2095449239783,0,0,0,138.7499797084401,-216.5760677704429Z" fill-rule="evenodd" style="fill: #184B42; stroke: #fff; opacity: 1;" id="p-type-logs"></path><path d="M163.29991207096685,-248.0768806592313A297,297,0,0,1,166.36009411512637,-246.03519887610858L144.07206767966954,-213.07273245186659A257.2095449239783,257.2095449239783,0,0,0,141.4218722892224,-214.8408807424948Z" fill-rule="evenodd" style="fill: #184B42; stroke: #fff; opacity: 1;" id="p-type-logs"></path><path d="M166.36009411512637,-246.03519887610858A297,297,0,0,1,169.39475290345732,-243.95576994360397L146.70015928218186,-211.27189417095326A257.2095449239783,257.2095449239783,0,0,0,144.07206767966954,-213.07273245186659Z" fill-rule="evenodd" style="fill: #184B42; stroke: #fff; opacity: 1;" id="p-type-logs"></path><path d="M169.39475290345732,-243.95576994360397A297,297,0,0,1,172.40342285331494,-241.8389128913316L149.3057438903614,-209.43864218750514A257.2095449239783,257.2095449239783,0,0,0,146.70015928218186,-211.27189417095326Z" fill-rule="evenodd" style="fill: #184B42; stroke: #fff; opacity: 1;" id="p-type-logs"></path><path d="M172.40342285331494,-241.8389128913316A297,297,0,0,1,175.38564236930736,-239.68495249119294L151.88842175087257,-207.57325776223936A257.2095449239783,257.2095449239783,0,0,0,149.3057438903614,-209.43864218750514Z" fill-rule="evenodd" style="fill: #184B42; stroke: #fff; opacity: 1;" id="p-type-logs"></path><path d="M175.38564236930736,-239.68495249119294A297,297,0,0,1,178.34095391411444,-237.4942192075498L154.44779662477293,-205.6760270856883A257.2095449239783,257.2095449239783,0,0,0,151.88842175087257,-207.57325776223936Z" fill-rule="evenodd" style="fill: #184B42; stroke: #fff; opacity: 1;" id="p-type-logs"></path><path d="M178.34095391411444,-237.4942192075498A297,297,0,0,1,181.26890407868382,-235.267049146524L156.98347584830483,-203.7472412342918A257.2095449239783,257.2095449239783,0,0,0,154.44779662477293,-205.6760270856883Z" fill-rule="evenodd" style="fill: #184B42; stroke: #fff; opacity: 1;" id="p-type-logs"></path><path d="M181.26890407868382,-235.267049146524A297,297,0,0,1,184.1690436517939,-233.0037840044312L159.49507039313875,-201.78719612573965A257.2095449239783,257.2095449239783,0,0,0,156.98347584830483,-203.7472412342918Z" fill-rule="evenodd" style="fill: #184B42; stroke: #fff; opacity: 1;" id="p-type-logs"></path><path d="M184.1690436517939,-233.0037840044312A297,297,0,0,1,187.04092768897263,-230.70477101535747L161.9821949260585,-199.7961924735714A257.2095449239783,257.2095449239783,0,0,0,159.49507039313875,-201.78719612573965Z" fill-rule="evenodd" style="fill: #184B42; stroke: #fff; opacity: 1;" id="p-type-logs"></path><path d="M187.04092768897263,-230.70477101535747A297,297,0,0,1,189.88411558076137,-228.37036289788583L164.44446786807987,-197.77453574104035A257.2095449239783,257.2095449239783,0,0,0,161.9821949260585,-199.7961924735714Z" fill-rule="evenodd" style="fill: #184B42; stroke: #fff; opacity: 1;" id="p-type-logs"></path><path d="M189.88411558076137,-228.37036289788583A297,297,0,0,1,192.6981711203143,-226.00091780098168L166.88151145299304,-195.72253609424888A257.2095449239783,257.2095449239783,0,0,0,164.44446786807987,-197.77453574104035Z" fill-rule="evenodd" style="fill: #184B42; stroke: #fff; opacity: 1;" id="p-type-logs"></path><path d="M192.6981711203143,-226.00091780098168A297,297,0,0,1,195.48266257032185,-223.59679924904495L169.29295178532016,-193.6405083545622A257.2095449239783,257.2095449239783,0,0,0,166.88151145299304,-195.72253609424888Z" fill-rule="evenodd" style="fill: #184B42; stroke: #fff; opacity: 1;" id="p-type-logs"></path><path d="M195.48266257032185,-223.59679924904495A297,297,0,0,1,198.23716272924864,-221.1583760861374L171.67841889767902,-191.52877195030788A257.2095449239783,257.2095449239783,0,0,0,169.29295178532016,-193.6405083545622Z" fill-rule="evenodd" style="fill: #184B42; stroke: #fff; opacity: 1;" id="p-type-logs"></path><path d="M198.23716272924864,-221.1583760861374A297,297,0,0,1,200.9612489968755,-218.68602241939425L174.03754680754423,-189.3876508677687A257.2095449239783,257.2095449239783,0,0,0,171.67841889767902,-191.52877195030788Z" fill-rule="evenodd" style="fill: #184B42; stroke: #fff; opacity: 1;" id="p-type-logs"></path><path d="M200.9612489968755,-218.68602241939425A297,297,0,0,1,203.6545034391355,-216.1801175616276L176.3699735733967,-187.21747360147597A257.2095449239783,257.2095449239783,0,0,0,174.03754680754423,-189.3876508677687Z" fill-rule="evenodd" style="fill: #184B42; stroke: #fff; opacity: 1;" id="p-type-logs"></path><path d="M203.6545034391355,-216.1801175616276A297,297,0,0,1,206.31651285223415,-213.64104597313198L178.6753413502534,-185.01857310381146A257.2095449239783,257.2095449239783,0,0,0,176.3699735733967,-187.21747360147597Z" fill-rule="evenodd" style="fill: #184B42; stroke: #fff; opacity: 1;" id="p-type-logs"></path><path d="M206.31651285223415,-213.64104597313198A297,297,0,0,1,208.9468688260438,-211.06919720269946L180.95329644456874,-182.79128673392512A257.2095449239783,257.2095449239783,0,0,0,178.6753413502534,-185.01857310381146Z" fill-rule="evenodd" style="fill: #184B42; stroke: #fff; opacity: 1;" id="p-type-logs"></path><path d="M208.9468688260438,-211.06919720269946A297,297,0,0,1,211.54516780676278,-208.4649658278546L183.20348936849857,-180.535956205977A257.2095449239783,257.2095449239783,0,0,0,180.95329644456874,-182.79128673392512Z" fill-rule="evenodd" style="fill: #184B42; stroke: #fff; opacity: 1;" id="p-type-logs"></path><path d="M211.54516780676278,-208.4649658278546A297,297,0,0,1,214.11101115882906,-205.82875139431755L185.42557489351938,-178.2529275367107A257.2095449239783,257.2095449239783,0,0,0,183.20348936849857,-180.535956205977Z" fill-rule="evenodd" style="fill: #184B42; stroke: #fff; opacity: 1;" id="p-type-logs"></path><path d="M214.11101115882906,-205.82875139431755A297,297,0,0,1,216.64400522607986,-203.1609583547053L187.61921210339386,-175.94255099236716A257.2095449239783,257.2095449239783,0,0,0,185.42557489351938,-178.2529275367107Z" fill-rule="evenodd" style="fill: #184B42; stroke: #fff; opacity: 1;" id="p-type-logs"></path><path d="M216.64400522607986,-203.1609583547053A297,297,0,0,1,219.14376139214698,-200.46199600647938L189.78406444647476,-173.60518103494584A257.2095449239783,257.2095449239783,0,0,0,187.61921210339386,-175.94255099236716Z" fill-rule="evenodd" style="fill: #184B42; stroke: #fff; opacity: 1;" id="p-type-logs"></path><path d="M219.14376139214698,-200.46199600647938A297,297,0,0,1,221.609896140079,-197.7322784291513L191.91979978733943,-171.24117626782282A257.2095449239783,257.2095449239783,0,0,0,189.78406444647476,-173.60518103494584Z" fill-rule="evenodd" style="fill: #184B42; stroke: #fff; opacity: 1;" id="p-type-logs"></path><path d="M221.609896140079,-197.7322784291513A297,297,0,0,1,224.04203111118105,-194.9722244207533L194.02609045774634,-168.85089938073307A257.2095449239783,257.2095449239783,0,0,0,191.91979978733943,-171.24117626782282Z" fill-rule="evenodd" style="fill: #184B42; stroke: #fff; opacity: 1;" id="p-type-logs"></path><path d="M224.04203111118105,-194.9722244207533A297,297,0,0,1,226.43979316306346,-192.1822574335858L196.1026133069068,-166.43471709412609A257.2095449239783,257.2095449239783,0,0,0,194.02609045774634,-168.85089938073307Z" fill-rule="evenodd" style="fill: #184B42; stroke: #fff; opacity: 1;" id="p-type-logs"></path><path d="M226.43979316306346,-192.1822574335858A297,297,0,0,1,228.80281442688965,-189.3628055092507L198.1490497510631,-163.99300010290295A257.2095449239783,257.2095449239783,0,0,0,196.1026133069068,-166.43471709412609Z" fill-rule="evenodd" style="fill: #184B42; stroke: #fff; opacity: 1;" id="p-type-logs"></path><path d="M228.80281442688965,-189.3628055092507A297,297,0,0,1,231.13073236381538,-186.5143012129803L200.16508582236625,-161.5261230195437A257.2095449239783,257.2095449239783,0,0,0,198.1490497510631,-163.99300010290295Z" fill-rule="evenodd" style="fill: #184B42; stroke: #fff; opacity: 1;" id="p-type-logs"></path><path d="M231.13073236381538,-186.5143012129803A297,297,0,0,1,233.42318982061016,-183.63718156727253L202.15041221704558,-159.03446431663346A257.2095449239783,257.2095449239783,0,0,0,200.16508582236625,-161.5261230195437Z" fill-rule="evenodd" style="fill: #184B42; stroke: #fff; opacity: 1;" id="p-type-logs"></path><path d="M233.42318982061016,-183.63718156727253A297,297,0,0,1,235.679835084452,-180.73188798484205L204.10472434286248,-156.51840626879678A257.2095449239783,257.2095449239783,0,0,0,202.15041221704558,-159.03446431663346Z" fill-rule="evenodd" style="fill: #184B42; stroke: #fff; opacity: 1;" id="p-type-logs"></path><path d="M235.679835084452,-180.73188798484205A297,297,0,0,1,237.90032193688833,-177.7988662008982L206.02772236584167,-153.97833489404826A257.2095449239783,257.2095449239783,0,0,0,204.10472434286248,-156.51840626879678Z" fill-rule="evenodd" style="fill: #184B42; stroke: #fff; opacity: 1;" id="p-type-logs"></path><path d="M237.90032193688833,-177.7988662008982A297,297,0,0,1,240.08430970695278,-174.83856620475925L207.919111256272,-151.41463989456892A257.2095449239783,257.2095449239783,0,0,0,206.02772236584167,-153.97833489404826Z" fill-rule="evenodd" style="fill: #184B42; stroke: #fff; opacity: 1;" id="p-type-logs"></path><path d="M240.08430970695278,-174.83856620475925A297,297,0,0,1,242.23146332343217,-171.85144217081432L209.77860083397078,-148.8277145969176A257.2095449239783,257.2095449239783,0,0,0,207.919111256272,-151.41463989456892Z" fill-rule="evenodd" style="fill: #184B42; stroke: #fff; opacity: 1;" id="p-type-logs"></path><path d="M242.23146332343217,-171.85144217081432A297,297,0,0,1,244.3414533662732,-168.83795238884338L211.60590581280334,-146.21795589168593A257.2095449239783,257.2095449239783,0,0,0,209.77860083397078,-148.8277145969176Z" fill-rule="evenodd" style="fill: #184B42; stroke: #fff; opacity: 1;" id="p-type-logs"></path><path d="M244.3414533662732,-168.83795238884338A297,297,0,0,1,246.41395611712295,-165.7985591937053L213.40074584445236,-143.5857641726068A257.2095449239783,257.2095449239783,0,0,0,211.60590581280334,-146.21795589168593Z" fill-rule="evenodd" style="fill: #184B42; stroke: #fff; opacity: 1;" id="p-type-logs"></path><path d="M246.41395611712295,-165.7985591937053A297,297,0,0,1,248.44865360899428,-162.73372889440583L215.1628455614294,-140.9315432751252A257.2095449239783,257.2095449239783,0,0,0,213.40074584445236,-143.5857641726068Z" fill-rule="evenodd" style="fill: #184B42; stroke: #fff; opacity: 1;" id="p-type-logs"></path><path d="M248.44865360899428,-162.73372889440583A297,297,0,0,1,250.44523367504874,-159.6439317025556L216.89193461932217,-138.25570041444104A257.2095449239783,257.2095449239783,0,0,0,215.1628455614294,-140.9315432751252Z" fill-rule="evenodd" style="fill: #184B42; stroke: #fff; opacity: 1;" id="p-type-logs"></path><path d="M250.44523367504874,-159.6439317025556A297,297,0,0,1,252.40338999648986,-156.5296416602295L218.58774773827128,-135.55864612303372A257.2095449239783,257.2095449239783,0,0,0,216.89193461932217,-138.25570041444104Z" fill-rule="evenodd" style="fill: #184B42; stroke: #fff; opacity: 1;" id="p-type-logs"></path><path d="M252.40338999648986,-156.5296416602295A297,297,0,0,1,254.3228221495591,-153.39133656723817L220.2500247436699,-132.84079418767718A257.2095449239783,257.2095449239783,0,0,0,218.58774773827128,-135.55864612303372Z" fill-rule="evenodd" style="fill: #184B42; stroke: #fff; opacity: 1;" id="p-type-logs"></path><path d="M254.3228221495591,-153.39133656723817A297,297,0,0,1,256.20323565162744,-150.2294979078233L221.87851060608034,-130.10256158595612A257.2095449239783,257.2095449239783,0,0,0,220.2500247436699,-132.84079418767718Z" fill-rule="evenodd" style="fill: #184B42; stroke: #fff; opacity: 1;" id="p-type-logs"></path><path d="M256.20323565162744,-150.2294979078233A297,297,0,0,1,258.0443420063752,-147.0446107767873L223.47295548036087,-127.34436842229283A257.2095449239783,257.2095449239783,0,0,0,221.87851060608034,-130.10256158595612Z" fill-rule="evenodd" style="fill: #184B42; stroke: #fff; opacity: 1;" id="p-type-logs"></path><path d="M258.0443420063752,-147.0446107767873A297,297,0,0,1,259.845858748054,-143.8371638050694L225.0331147439977,-124.56663786349367A257.2095449239783,257.2095449239783,0,0,0,223.47295548036087,-127.34436842229283Z" fill-rule="evenodd" style="fill: #184B42; stroke: #fff; opacity: 1;" id="p-type-logs"></path><path d="M259.845858748054,-143.8371638050694A297,297,0,0,1,261.60750948482286,-140.60764908477887L226.5587490346351,-121.76979607382627A257.2095449239783,257.2095449239783,0,0,0,225.0331147439977,-124.56663786349367Z" fill-rule="evenodd" style="fill: #184B42; stroke: #fff; opacity: 1;" id="p-type-logs"></path><path d="M261.60750948482286,-140.60764908477887A297,297,0,0,1,263.3290239411528,-137.3565620936975L228.04962428679897,-118.95427214963671A257.2095449239783,257.2095449239783,0,0,0,226.5587490346351,-121.76979607382627Z" fill-rule="evenodd" style="fill: #184B42; stroke: #fff; opacity: 1;" id="p-type-logs"></path><path d="M263.3290239411528,-137.3565620936975A297,297,0,0,1,265.010137999293,-134.0844016192625L229.50551176780752,-116.12049805351664A257.2095449239783,257.2095449239783,0,0,0,228.04962428679897,-118.95427214963671Z" fill-rule="evenodd" style="fill: #184B42; stroke: #fff; opacity: 1;" id="p-type-logs"></path><path d="M265.010137999293,-134.0844016192625A297,297,0,0,1,266.6505937397922,-130.7916696820416L230.92618811286388,-113.268908548031A257.2095449239783,257.2095449239783,0,0,0,229.50551176780752,-116.12049805351664Z" fill-rule="evenodd" style="fill: #184B42; stroke: #fff; opacity: 1;" id="p-type-logs"></path><path d="M266.6505937397922,-130.7916696820416A297,297,0,0,1,268.25013948106925,-127.47887145871229L232.31143535932497,-110.39994112901587A257.2095449239783,257.2095449239783,0,0,0,230.92618811286388,-113.268908548031Z" fill-rule="evenodd" style="fill: #184B42; stroke: #fff; opacity: 1;" id="p-type-logs"></path><path d="M268.25013948106925,-127.47887145871229A297,297,0,0,1,269.8085298180263,-124.14651520455665L233.66104098014196,-107.51403595845711A257.2095449239783,257.2095449239783,0,0,0,232.31143535932497,-110.39994112901587Z" fill-rule="evenodd" style="fill: #184B42; stroke: #fff; opacity: 1;" id="p-type-logs"></path><path d="M269.8085298180263,-124.14651520455665A297,297,0,0,1,271.3255256596995,-120.79511217548396L234.97479791646631,-104.61163579696006A257.2095449239783,257.2095449239783,0,0,0,233.66104098014196,-107.51403595845711Z" fill-rule="evenodd" style="fill: #184B42; stroke: #fff; opacity: 1;" id="p-type-logs"></path><path d="M271.3255256596995,-120.79511217548396A297,297,0,0,1,272.80089426594066,-117.42517654959295L236.2525046094172,-101.69318593582022A257.2095449239783,257.2095449239783,0,0,0,234.97479791646631,-104.61163579696006Z" fill-rule="evenodd" style="fill: #184B42; stroke: #fff; opacity: 1;" id="p-type-logs"></path><path d="M272.80089426594066,-117.42517654959295A297,297,0,0,1,274.23440928312465,-114.03722534828567L237.49396503100502,-98.75913412870612A257.2095449239783,257.2095449239783,0,0,0,236.2525046094172,-101.69318593582022Z" fill-rule="evenodd" style="fill: #184B42; stroke: #fff; opacity: 1;" id="p-type-logs"></path><path d="M274.23440928312465,-114.03722534828567A297,297,0,0,1,275.62585077887695,-110.6317783569452L238.69898871420637,-95.809930522964A257.2095449239783,257.2095449239783,0,0,0,237.49396503100502,-98.75913412870612Z" fill-rule="evenodd" style="fill: #184B42; stroke: #fff; opacity: 1;" id="p-type-logs"></path><path d="M275.62585077887695,-110.6317783569452A297,297,0,0,1,276.9750052758162,-107.20935804518922L239.86739078218577,-92.84602759055545A257.2095449239783,257.2095449239783,0,0,0,238.69898871420637,-95.809930522964Z" fill-rule="evenodd" style="fill: #184B42; stroke: #fff; opacity: 1;" id="p-type-logs"></path><path d="M276.9750052758162,-107.20935804518922A297,297,0,0,1,278.2816657843061,-103.77048948671182L240.99899197665988,-89.86788005863846A257.2095449239783,257.2095449239783,0,0,0,239.86739078218577,-92.84602759055545Z" fill-rule="evenodd" style="fill: #184B42; stroke: #fff; opacity: 1;" id="p-type-logs"></path><path d="M278.2816657843061,-103.77048948671182A297,297,0,0,1,279.5456318342121,-100.31570027872586L242.09361868539955,-86.87594483980229A257.2095449239783,257.2095449239783,0,0,0,240.99899197665988,-89.86788005863846Z" fill-rule="evenodd" style="fill: #184B42; stroke: #fff; opacity: 1;" id="p-type-logs"></path><path d="M279.5456318342121,-100.31570027872586A297,297,0,0,1,280.766709505658,-96.84552046101793L243.1511029688657,-83.87068096196717A257.2095449239783,257.2095449239783,0,0,0,242.09361868539955,-86.87594483980229Z" fill-rule="evenodd" style="fill: #184B42; stroke: #fff; opacity: 1;" id="p-type-logs"></path><path d="M280.766709505658,-96.84552046101793A297,297,0,0,1,281.9447114587776,-93.36048243462885L244.17128258597492,-80.85254949795944A257.2095449239783,257.2095449239783,0,0,0,243.1511029688657,-83.87068096196717Z" fill-rule="evenodd" style="fill: #184B42; stroke: #fff; opacity: 1;" id="p-type-logs"></path><path d="M281.9447114587776,-93.36048243462885A297,297,0,0,1,283.07945696245633,-89.86112088017177L245.15400101899087,-77.822013494773A257.2095449239783,257.2095449239783,0,0,0,244.17128258597492,-80.85254949795944Z" fill-rule="evenodd" style="fill: #184B42; stroke: #fff; opacity: 1;" id="p-type-logs"></path><path d="M283.07945696245633,-89.86112088017177A297,297,0,0,1,284.1707719220596,-86.34797267580043L246.0991074975373,-74.77953790252775A257.2095449239783,257.2095449239783,0,0,0,245.15400101899087,-77.822013494773Z" fill-rule="evenodd" style="fill: #184B42; stroke: #fff; opacity: 1;" id="p-type-logs"></path><path d="M284.1707719220596,-86.34797267580043A297,297,0,0,1,285.21848890614274,-82.82157681484055L247.00645702172972,-71.72558950313619A257.2095449239783,257.2095449239783,0,0,0,246.0991074975373,-74.77953790252775Z" fill-rule="evenodd" style="fill: #184B42; stroke: #fff; opacity: 1;" id="p-type-logs"></path><path d="M285.21848890614274,-82.82157681484055A297,297,0,0,1,286.22244717213846,-79.28247432309631L247.87591038442136,-68.66063683868887A257.2095449239783,257.2095449239783,0,0,0,247.00645702172972,-71.72558950313619Z" fill-rule="evenodd" style="fill: #184B42; stroke: #fff; opacity: 1;" id="p-type-logs"></path><path d="M286.22244717213846,-79.28247432309631A297,297,0,0,1,287.1824926910183,-75.73120817584544L248.70733419256072,-65.58515013956993A257.2095449239783,257.2095449239783,0,0,0,247.87591038442136,-68.66063683868887Z" fill-rule="evenodd" style="fill: #184B42; stroke: #fff; opacity: 1;" id="p-type-logs"></path><path d="M287.1824926910183,-75.73120817584544A297,297,0,0,1,288.0984781709241,-72.16832321453487L249.50060088765684,-62.49960125231343A257.2095449239783,257.2095449239783,0,0,0,248.70733419256072,-65.58515013956993Z" fill-rule="evenodd" style="fill: #184B42; stroke: #fff; opacity: 1;" id="p-type-logs"></path><path d="M288.0984781709241,-72.16832321453487A297,297,0,0,1,288.9702630797658,-68.59436606319025L250.25558876534961,-59.404463567211934A257.2095449239783,257.2095449239783,0,0,0,249.50060088765684,-62.49960125231343Z" fill-rule="evenodd" style="fill: #184B42; stroke: #fff; opacity: 1;" id="p-type-logs"></path><path d="M288.9702630797658,-68.59436606319025A297,297,0,0,1,289.79771366678193,-65.009885044552L250.97218199408198,-56.30021194568808A257.2095449239783,257.2095449239783,0,0,0,250.25558876534961,-59.404463567211934Z" fill-rule="evenodd" style="fill: #184B42; stroke: #fff; opacity: 1;" id="p-type-logs"></path><path d="M289.79771366678193,-65.009885044552A297,297,0,0,1,290.5807029830601,-61.415430095950526L251.6502706328707,-53.187322647440524A257.2095449239783,257.2095449239783,0,0,0,250.97218199408198,-56.30021194568808Z" fill-rule="evenodd" style="fill: #184B42; stroke: #fff; opacity: 1;" id="p-type-logs"></path><path d="M290.5807029830601,-61.415430095950526A297,297,0,0,1,291.31911090101363,-57.81155268493404L252.28975064817402,-50.06627325737535A257.2095449239783,257.2095449239783,0,0,0,251.6502706328707,-53.187322647440524Z" fill-rule="evenodd" style="fill: #184B42; stroke: #fff; opacity: 1;" id="p-type-logs"></path><path d="M291.31911090101363,-57.81155268493404A297,297,0,0,1,292.0128241328117,-54.198805724661334L252.89052392985252,-46.93754261233418A257.2095449239783,257.2095449239783,0,0,0,252.28975064817402,-50.06627325737535Z" fill-rule="evenodd" style="fill: #184B42; stroke: #fff; opacity: 1;" id="p-type-logs"></path><path d="M292.0128241328117,-54.198805724661334A297,297,0,0,1,292.6617362477602,-50.57774348907294L253.45249830622137,-43.801610727630155A257.2095449239783,257.2095449239783,0,0,0,252.89052392985252,-46.93754261233418Z" fill-rule="evenodd" style="fill: #184B42; stroke: #fff; opacity: 1;" id="p-type-logs"></path><path d="M99.67791397310246,279.77368258285264A297,297,0,0,1,96.20495841760169,280.9868430654139L83.31593795966863,243.34174422383975A257.2095449239783,257.2095449239783,0,0,0,86.3236056969466,242.29111642707434Z" fill-rule="evenodd" style="fill: #AE497E; stroke: #fff; opacity: 1;" id="p-type-tokenTransfers"></path><path d="M96.20495841760169,280.9868430654139A297,297,0,0,1,92.71724292956584,282.15689405637403L80.29548774585716,244.3550381057344A257.2095449239783,257.2095449239783,0,0,0,83.31593795966863,243.34174422383975Z" fill-rule="evenodd" style="fill: #AE497E; stroke: #fff; opacity: 1;" id="p-type-tokenTransfers"></path><path d="M92.71724292956584,282.15689405637403A297,297,0,0,1,89.21530260038891,283.28365604446907L77.26271845825268,245.33084261144333A257.2095449239783,257.2095449239783,0,0,0,80.29548774585716,244.3550381057344Z" fill-rule="evenodd" style="fill: #AE497E; stroke: #fff; opacity: 1;" id="p-type-tokenTransfers"></path><path d="M89.21530260038891,283.28365604446907A297,297,0,0,1,85.69967470386472,284.3669561599093L74.21809538960949,246.26900803133722A257.2095449239783,257.2095449239783,0,0,0,77.26271845825268,245.33084261144333Z" fill-rule="evenodd" style="fill: #AE497E; stroke: #fff; opacity: 1;" id="p-type-tokenTransfers"></path><path d="M85.69967470386472,284.3669561599093A297,297,0,0,1,82.17089861375769,285.40662820090137L71.16208565130968,247.16939043044079A257.2095449239783,257.2095449239783,0,0,0,74.21809538960949,246.26900803133722Z" fill-rule="evenodd" style="fill: #AE497E; stroke: #fff; opacity: 1;" id="p-type-tokenTransfers"></path><path d="M82.17089861375769,285.40662820090137A297,297,0,0,1,78.62951572105092,286.40251265914725L68.09515810169799,248.0318516705158A257.2095449239783,257.2095449239783,0,0,0,71.16208565130968,247.16939043044079Z" fill-rule="evenodd" style="fill: #AE497E; stroke: #fff; opacity: 1;" id="p-type-tokenTransfers"></path><path d="M78.62951572105092,286.40251265914725A297,297,0,0,1,75.07606935088522,287.35445674431617L65.0177832741489,248.85625943125444A257.2095449239783,257.2095449239783,0,0,0,68.09515810169799,248.0318516705158Z" fill-rule="evenodd" style="fill: #AE497E; stroke: #fff; opacity: 1;" id="p-type-tokenTransfers"></path><path d="M75.07606935088522,287.35445674431617A297,297,0,0,1,71.51110467920114,288.26231440748603L61.93043330487642,249.64248723057992A257.2095449239783,257.2095449239783,0,0,0,65.0177832741489,248.85625943125444Z" fill-rule="evenodd" style="fill: #AE497E; stroke: #fff; opacity: 1;" id="p-type-tokenTransfers"></path><path d="M71.51110467920114,288.26231440748603A297,297,0,0,1,67.93516864909714,289.1259463635506L58.833581860498285,250.39041444405186A257.2095449239783,257.2095449239783,0,0,0,61.93043330487642,249.64248723057992Z" fill-rule="evenodd" style="fill: #AE497E; stroke: #fff; opacity: 1;" id="p-type-tokenTransfers"></path><path d="M67.93516864909714,289.1259463635506A297,297,0,0,1,64.34880988691661,289.94522011258863L55.72770406536504,251.0999263233725A257.2095449239783,257.2095449239783,0,0,0,58.833581860498285,250.39041444405186Z" fill-rule="evenodd" style="fill: #AE497E; stroke: #fff; opacity: 1;" id="p-type-tokenTransfers"></path><path d="M64.34880988691661,289.94522011258863A297,297,0,0,1,60.75257861807671,290.72000996019244L52.613276428665735,251.7709140139917A257.2095449239783,257.2095449239783,0,0,0,55.72770406536504,251.0999263233725Z" fill-rule="evenodd" style="fill: #AE497E; stroke: #fff; opacity: 1;" id="p-type-tokenTransfers"></path><path d="M60.75257861807671,290.72000996019244A297,297,0,0,1,57.14702658265177,291.45019703675223L49.49077677132105,252.40327457180754A257.2095449239783,257.2095449239783,0,0,0,52.613276428665735,251.7709140139917Z" fill-rule="evenodd" style="fill: #AE497E; stroke: #fff; opacity: 1;" id="p-type-tokenTransfers"></path><path d="M57.14702658265177,291.45019703675223A297,297,0,0,1,53.53270695072438,292.1356693156929L46.36068415267511,252.99691097896016A257.2095449239783,257.2095449239783,0,0,0,49.49077677132105,252.40327457180754Z" fill-rule="evenodd" style="fill: #AE497E; stroke: #fff; opacity: 1;" id="p-type-tokenTransfers"></path><path d="M53.53270695072438,292.1356693156929A297,297,0,0,1,49.910174237517104,292.77632163066176L43.22347879699744,253.5517321587165A257.2095449239783,257.2095449239783,0,0,0,46.36068415267511,252.99691097896016Z" fill-rule="evenodd" style="fill: #AE497E; stroke: #fff; opacity: 1;" id="p-type-tokenTransfers"></path><path d="M49.910174237517104,292.77632163066176A297,297,0,0,1,46.27998421831773,293.3720556916631L40.079642019806066,254.06765298944333A257.2095449239783,257.2095449239783,0,0,0,43.22347879699744,253.5517321587165Z" fill-rule="evenodd" style="fill: #AE497E; stroke: #fff; opacity: 1;" id="p-type-tokenTransfers"></path><path d="M46.27998421831773,293.3720556916631A297,297,0,0,1,42.64269384321133,293.92278010013814L36.92965615402329,254.5445943176669A257.2095449239783,257.2095449239783,0,0,0,40.079642019806066,254.06765298944333Z" fill-rule="evenodd" style="fill: #AE497E; stroke: #fff; opacity: 1;" id="p-type-tokenTransfers"></path><path d="M42.64269384321133,293.92278010013814A297,297,0,0,1,38.998861151631935,294.42841036298745L33.7740044759753,254.9824829702166A257.2095449239783,257.2095449239783,0,0,0,36.92965615402329,254.5445943176669Z" fill-rule="evenodd" style="fill: #AE497E; stroke: #fff; opacity: 1;" id="p-type-tokenTransfers"></path><path d="M38.998861151631935,294.42841036298745A297,297,0,0,1,35.34904518674718,294.88886890553414L30.6131711312471,255.38125176545162A257.2095449239783,257.2095449239783,0,0,0,33.7740044759753,254.9824829702166Z" fill-rule="evenodd" style="fill: #AE497E; stroke: #fff; opacity: 1;" id="p-type-tokenTransfers"></path><path d="M35.34904518674718,294.88886890553414A297,297,0,0,1,31.69380590968895,295.30408508342543L27.447641060404003,255.74083952356776A257.2095449239783,257.2095449239783,0,0,0,30.6131711312471,255.38125176545162Z" fill-rule="evenodd" style="fill: #AE497E; stroke: #fff; opacity: 1;" id="p-type-tokenTransfers"></path><path d="M31.69380590968895,295.30408508342543A297,297,0,0,1,28.033704113643125,295.673995193471L24.277899924591267,256.0611910759839A257.2095449239783,257.2095449239783,0,0,0,27.447641060404003,255.74083952356776Z" fill-rule="evenodd" style="fill: #AE497E; stroke: #fff; opacity: 1;" id="p-type-tokenTransfers"></path><path d="M28.033704113643125,295.673995193471A297,297,0,0,1,24.369301337811724,295.9985424834165L21.10443403102306,256.3422572738061A257.2095449239783,257.2095449239783,0,0,0,24.277899924591267,256.0611910759839Z" fill-rule="evenodd" style="fill: #AE497E; stroke: #fff; opacity: 1;" id="p-type-tokenTransfers"></path><path d="M24.369301337811724,295.9985424834165A297,297,0,0,1,20.701159781260607,296.2776771606506L17.9277302583724,256.583994995368A257.2095449239783,257.2095449239783,0,0,0,21.10443403102306,256.3422572738061Z" fill-rule="evenodd" style="fill: #AE497E; stroke: #fff; opacity: 1;" id="p-type-tokenTransfers"></path><path d="M20.701159781260607,296.2776771606506A297,297,0,0,1,17.029842216665884,296.51135639984426L14.748275982073354,256.7863671528467A257.2095449239783,257.2095449239783,0,0,0,17.9277302583724,256.583994995368Z" fill-rule="evenodd" style="fill: #AE497E; stroke: #fff; opacity: 1;" id="p-type-tokenTransfers"></path><path d="M17.029842216665884,296.51135639984426A297,297,0,0,1,13.35591190397236,296.6995443495209L11.566558999547054,256.94934269795283A257.2095449239783,257.2095449239783,0,0,0,14.748275982073354,256.7863671528467Z" fill-rule="evenodd" style="fill: #AE497E; stroke: #fff; opacity: 1;" id="p-type-tokenTransfers"></path><path d="M-74.13771305552497,287.5979824388492A297,297,0,0,1,-86.29782185424152,284.18600588912466L-74.73610601703706,246.11230050001606A257.2095449239783,257.2095449239783,0,0,0,-64.20514288456587,249.06715886919432Z" fill-rule="evenodd" style="fill: #F09B24; stroke: #fff; opacity: 1;" id="p-type-ether"></path></g></svg>