<svg xmlns="http://www.w3.org/2000/svg" width="600" height="600" id="block-7909830"><g id="burst-container" transform="translate(300,300)"><data type="text/json">{"number":7909830,"totalTransactions":202,"totalFunctions":0,"totalLogs":119,"totalTokenTransfers":119,"totalEther":308665041952516540000}</data><circle r="297" style="fill: #f9f9f9; stroke: #f9f9f9; stroke-width: 3; opacity: 1;" id="circle-base"></circle><path display="none" d="M9.093002483669097e-15,-148.5A148.5,148.5,0,1,1,-9.093002483669097e-15,148.5A148.5,148.5,0,1,1,9.093002483669097e-15,-148.5Z" fill-rule="evenodd" id="p-type-root" style="stroke: #fff; opacity: 1;"></path><path d="M1.2859447435097075e-14,-210.0107140124046A210.0107140124046,210.0107140124046,0,1,1,-174.74008908583207,-116.49206525027988L-123.55990193773327,-82.37232929289867A148.5,148.5,0,1,0,9.093002483669097e-15,-148.5Z" fill-rule="evenodd" style="fill: #4E4E4E; stroke: #fff; opacity: 1;" id="p-type-data"></path><path d="M-174.74008908583207,-116.49206525027988A210.0107140124046,210.0107140124046,0,0,1,-2.116869957581915,-210.0000449085254L-1.4968531018962512,-148.49245580429783A148.5,148.5,0,0,0,-123.55990193773327,-82.37232929289867Z" fill-rule="evenodd" style="fill: #3A86AD; stroke: #fff; opacity: 1;" id="p-type-value"></path><path d="M1.5749542295064867e-14,-257.2095449239783A257.2095449239783,257.2095449239783,0,0,1,238.57090447957796,96.1284221018742L194.7923278164105,78.48852797615753A210.0107140124046,210.0107140124046,0,0,0,1.2859447435097075e-14,-210.0107140124046Z" fill-rule="evenodd" style="fill: #F09B24; stroke: #fff; opacity: 1;" id="p-type-ether"></path><path d="M238.57090447957796,96.1284221018742A257.2095449239783,257.2095449239783,0,0,1,-3.023658383804474,257.1917718162423L-2.468806732269807,209.9962023307057A210.0107140124046,210.0107140124046,0,0,0,194.7923278164105,78.48852797615753Z" fill-rule="evenodd" style="fill: #184B42; stroke: #fff; opacity: 1;" id="p-type-logs"></path><path d="M-3.023658383804474,257.1917718162423A257.2095449239783,257.2095449239783,0,0,1,-233.7859164314983,107.24222712292259L-190.8854014353734,87.56291177694094A210.0107140124046,210.0107140124046,0,0,0,-2.468806732269807,209.9962023307057Z" fill-rule="evenodd" style="fill: #AE497E; stroke: #fff; opacity: 1;" id="p-type-tokenTransfers"></path><path d="M-214.01202793438222,-142.67305947309464A257.2095449239783,257.2095449239783,0,0,1,-104.48507425057649,-235.0311027478098L-85.31170588357527,-191.90209180525977A210.0107140124046,210.0107140124046,0,0,0,-174.74008908583207,-116.49206525027988Z" fill-rule="evenodd" style="fill: #AE497E; stroke: #fff; opacity: 1;" id="p-type-tokenTransfers"></path><path d="M-104.48507425057649,-235.0311027478098A257.2095449239783,257.2095449239783,0,0,1,-5.184987823322384,-257.1572785306144L-4.233524829894619,-209.9680386809256A210.0107140124046,210.0107140124046,0,0,0,-85.31170588357527,-191.90209180525977Z" fill-rule="evenodd" style="fill: #F09B24; stroke: #fff; opacity: 1;" id="p-type-ether"></path><path d="M1.8186004967338195e-14,-297A297,297,0,0,1,140.8019257325695,-261.5029975162808L121.93804458617504,-226.46823901487815A257.2095449239783,257.2095449239783,0,0,0,1.5749542295064867e-14,-257.2095449239783Z" fill-rule="evenodd" style="fill: #F09B24; stroke: #fff; opacity: 1;" id="p-type-ether"></path><path d="M140.8019257325695,-261.5029975162808A297,297,0,0,1,218.6469426910713,-201.00376725784864L189.35380683026804,-174.0743687016717A257.2095449239783,257.2095449239783,0,0,0,121.93804458617504,-226.46823901487815Z" fill-rule="evenodd" style="fill: #F09B24; stroke: #fff; opacity: 1;" id="p-type-ether"></path><path d="M218.6469426910713,-201.00376725784864A297,297,0,0,1,239.11777712562306,-176.15813538551336L207.08206948725513,-152.557420327153A257.2095449239783,257.2095449239783,0,0,0,189.35380683026804,-174.0743687016717Z" fill-rule="evenodd" style="fill: #F09B24; stroke: #fff; opacity: 1;" id="p-type-ether"></path><path d="M239.11777712562306,-176.15813538551336A297,297,0,0,1,252.53071782329377,-156.32413938880958L218.69801687089213,-135.3806759354487A257.2095449239783,257.2095449239783,0,0,0,207.08206948725513,-152.557420327153Z" fill-rule="evenodd" style="fill: #F09B24; stroke: #fff; opacity: 1;" id="p-type-ether"></path><path d="M252.53071782329377,-156.32413938880958A297,297,0,0,1,263.843417782079,-136.36587143809606L228.49510242059128,-118.09630887459399A257.2095449239783,257.2095449239783,0,0,0,218.69801687089213,-135.3806759354487Z" fill-rule="evenodd" style="fill: #F09B24; stroke: #fff; opacity: 1;" id="p-type-ether"></path><path d="M263.843417782079,-136.36587143809606A297,297,0,0,1,271.761369080648,-119.8113445188385L235.35224939108005,-103.7596680148836A257.2095449239783,257.2095449239783,0,0,0,228.49510242059128,-118.09630887459399Z" fill-rule="evenodd" style="fill: #F09B24; stroke: #fff; opacity: 1;" id="p-type-ether"></path><path d="M271.761369080648,-119.8113445188385A297,297,0,0,1,277.44664807181204,-105.98281687951156L240.27584542503007,-91.78381178229122A257.2095449239783,257.2095449239783,0,0,0,235.35224939108005,-103.7596680148836Z" fill-rule="evenodd" style="fill: #F09B24; stroke: #fff; opacity: 1;" id="p-type-ether"></path><path d="M277.44664807181204,-105.98281687951156A297,297,0,0,1,282.3850352115705,-92.02006242423504L244.55261414178324,-79.6917117172174A257.2095449239783,257.2095449239783,0,0,0,240.27584542503007,-91.78381178229122Z" fill-rule="evenodd" style="fill: #F09B24; stroke: #fff; opacity: 1;" id="p-type-ether"></path><path d="M282.3850352115705,-92.02006242423504A297,297,0,0,1,285.8017183145153,-80.78600007718202L247.5115485056145,-69.96272833697125A257.2095449239783,257.2095449239783,0,0,0,244.55261414178324,-79.6917117172174Z" fill-rule="evenodd" style="fill: #F09B24; stroke: #fff; opacity: 1;" id="p-type-ether"></path><path d="M285.8017183145153,-80.78600007718202A297,297,0,0,1,288.6475909353171,-69.93974726318235L249.9761464911635,-60.56959786417908A257.2095449239783,257.2095449239783,0,0,0,247.5115485056145,-69.96272833697125Z" fill-rule="evenodd" style="fill: #F09B24; stroke: #fff; opacity: 1;" id="p-type-ether"></path><path d="M288.6475909353171,-69.93974726318235A297,297,0,0,1,290.1959770449497,-63.20834523167838L251.31708819697224,-54.74003270181047A257.2095449239783,257.2095449239783,0,0,0,249.9761464911635,-60.56959786417908Z" fill-rule="evenodd" style="fill: #F09B24; stroke: #fff; opacity: 1;" id="p-type-ether"></path><path d="M290.1959770449497,-63.20834523167838A297,297,0,0,1,291.411109191279,-57.3460150307626L252.36942350464858,-49.66310582244467A257.2095449239783,257.2095449239783,0,0,0,251.31708819697224,-54.74003270181047Z" fill-rule="evenodd" style="fill: #F09B24; stroke: #fff; opacity: 1;" id="p-type-ether"></path><path d="M291.411109191279,-57.3460150307626A297,297,0,0,1,292.35224437024647,-52.33703480022222L253.1844704780296,-45.32520169574267A257.2095449239783,257.2095449239783,0,0,0,252.36942350464858,-49.66310582244467Z" fill-rule="evenodd" style="fill: #F09B24; stroke: #fff; opacity: 1;" id="p-type-ether"></path><path d="M292.35224437024647,-52.33703480022222A297,297,0,0,1,293.07225444037186,-48.14201571639819L253.8080174897388,-41.69220859979053A257.2095449239783,257.2095449239783,0,0,0,253.1844704780296,-45.32520169574267Z" fill-rule="evenodd" style="fill: #F09B24; stroke: #fff; opacity: 1;" id="p-type-ether"></path><path d="M293.07225444037186,-48.14201571639819A297,297,0,0,1,293.5997806980245,-44.81259615411639L254.2648686300293,-38.80884667899763A257.2095449239783,257.2095449239783,0,0,0,253.8080174897388,-41.69220859979053Z" fill-rule="evenodd" style="fill: #F09B24; stroke: #fff; opacity: 1;" id="p-type-ether"></path><path d="M293.5997806980245,-44.81259615411639A297,297,0,0,1,294.0662345346369,-41.64192246546641L254.6688295022284,-36.06296271751583A257.2095449239783,257.2095449239783,0,0,0,254.2648686300293,-38.80884667899763Z" fill-rule="evenodd" style="fill: #F09B24; stroke: #fff; opacity: 1;" id="p-type-ether"></path><path d="M294.0662345346369,-41.64192246546641A297,297,0,0,1,294.49049333997243,-38.527254410087984L255.03624840542818,-33.36558105720224A257.2095449239783,257.2095449239783,0,0,0,254.6688295022284,-36.06296271751583Z" fill-rule="evenodd" style="fill: #F09B24; stroke: #fff; opacity: 1;" id="p-type-ether"></path><path d="M294.49049333997243,-38.527254410087984A297,297,0,0,1,294.863880184128,-35.55688629169045L255.3596108979058,-30.79316680807859A257.2095449239783,257.2095449239783,0,0,0,255.03624840542818,-33.36558105720224Z" fill-rule="evenodd" style="fill: #F09B24; stroke: #fff; opacity: 1;" id="p-type-ether"></path><path d="M294.863880184128,-35.55688629169045A297,297,0,0,1,295.2056647349644,-32.59778379564778L255.65560500155118,-28.230508874103702A257.2095449239783,257.2095449239783,0,0,0,255.3596108979058,-30.79316680807859Z" fill-rule="evenodd" style="fill: #F09B24; stroke: #fff; opacity: 1;" id="p-type-ether"></path><path d="M295.2056647349644,-32.59778379564778A297,297,0,0,1,295.5175961964367,-29.636975862590404L255.92574557142584,-25.66637398834952A257.2095449239783,257.2095449239783,0,0,0,255.65560500155118,-28.230508874103702Z" fill-rule="evenodd" style="fill: #F09B24; stroke: #fff; opacity: 1;" id="p-type-ether"></path><path d="M295.5175961964367,-29.636975862590404A297,297,0,0,1,295.78120341195074,-26.87898264775286L256.1540361166818,-23.27788180083509A257.2095449239783,257.2095449239783,0,0,0,255.92574557142584,-25.66637398834952Z" fill-rule="evenodd" style="fill: #F09B24; stroke: #fff; opacity: 1;" id="p-type-ether"></path><path d="M295.78120341195074,-26.87898264775286A297,297,0,0,1,296.01393520293453,-24.181608004284637L256.35558775994207,-20.941886836067617A257.2095449239783,257.2095449239783,0,0,0,256.1540361166818,-23.27788180083509Z" fill-rule="evenodd" style="fill: #F09B24; stroke: #fff; opacity: 1;" id="p-type-ether"></path><path d="M296.01393520293453,-24.181608004284637A297,297,0,0,1,296.2198117767601,-21.513324032813216L256.53388210291905,-18.631085132262534A257.2095449239783,257.2095449239783,0,0,0,256.35558775994207,-20.941886836067617Z" fill-rule="evenodd" style="fill: #F09B24; stroke: #fff; opacity: 1;" id="p-type-ether"></path><path d="M296.2198117767601,-21.513324032813216A297,297,0,0,1,296.3388714861204,-19.805889183084414L256.6369908357923,-17.152403177090527A257.2095449239783,257.2095449239783,0,0,0,256.53388210291905,-18.631085132262534Z" fill-rule="evenodd" style="fill: #F09B24; stroke: #fff; opacity: 1;" id="p-type-ether"></path><path d="M296.3388714861204,-19.805889183084414A297,297,0,0,1,296.4477761252237,-18.102928779875764L256.7313050198457,-15.677596206272845A257.2095449239783,257.2095449239783,0,0,0,256.6369908357923,-17.152403177090527Z" fill-rule="evenodd" style="fill: #F09B24; stroke: #fff; opacity: 1;" id="p-type-ether"></path><path d="M296.4477761252237,-18.102928779875764A297,297,0,0,1,296.53524929740877,-16.60860993953548L256.8070590091076,-14.383478129184455A257.2095449239783,257.2095449239783,0,0,0,256.7313050198457,-15.677596206272845Z" fill-rule="evenodd" style="fill: #F09B24; stroke: #fff; opacity: 1;" id="p-type-ether"></path><path d="M296.53524929740877,-16.60860993953548A297,297,0,0,1,296.61519003134487,-15.113869215695452L256.87628971549344,-13.088994690267851A257.2095449239783,257.2095449239783,0,0,0,256.8070590091076,-14.383478129184455Z" fill-rule="evenodd" style="fill: #F09B24; stroke: #fff; opacity: 1;" id="p-type-ether"></path><path d="M275.4779518441936,110.99954075458207A297,297,0,0,1,274.91501833061585,112.38653253961147L238.08338975617795,97.32959222254998A257.2095449239783,257.2095449239783,0,0,0,238.57090447957796,96.1284221018742Z" fill-rule="evenodd" style="fill: #184B42; stroke: #fff; opacity: 1;" id="p-type-logs"></path><path d="M274.91501833061585,112.38653253961147A297,297,0,0,1,274.34510156494855,113.77066953884939L237.58982735906739,98.52829002620798A257.2095449239783,257.2095449239783,0,0,0,238.08338975617795,97.32959222254998Z" fill-rule="evenodd" style="fill: #184B42; stroke: #fff; opacity: 1;" id="p-type-logs"></path><path d="M274.34510156494855,113.77066953884939A297,297,0,0,1,273.76821602392874,115.15191659314866L237.09022982546836,99.72448506413356A257.2095449239783,257.2095449239783,0,0,0,237.58982735906739,98.52829002620798Z" fill-rule="evenodd" style="fill: #184B42; stroke: #fff; opacity: 1;" id="p-type-logs"></path><path d="M273.76821602392874,115.15191659314866A297,297,0,0,1,273.184376361311,116.53023861677099L236.58460984590442,100.91814695118609A257.2095449239783,257.2095449239783,0,0,0,237.09022982546836,99.72448506413356Z" fill-rule="evenodd" style="fill: #184B42; stroke: #fff; opacity: 1;" id="p-type-logs"></path><path d="M273.184376361311,116.53023861677099A297,297,0,0,1,272.59359740749466,117.90560059827831L236.07298026387826,102.10924536657072A257.2095449239783,257.2095449239783,0,0,0,236.58460984590442,100.91814695118609Z" fill-rule="evenodd" style="fill: #184B42; stroke: #fff; opacity: 1;" id="p-type-logs"></path><path d="M272.59359740749466,117.90560059827831A297,297,0,0,1,271.99589416914756,119.27796760142196L235.5553540755455,103.29775005460866A257.2095449239783,257.2095449239783,0,0,0,236.07298026387826,102.10924536657072Z" fill-rule="evenodd" style="fill: #184B42; stroke: #fff; opacity: 1;" id="p-type-logs"></path><path d="M271.99589416914756,119.27796760142196A297,297,0,0,1,271.3912818288248,120.64730476603026L235.0317444293844,104.48363082550559A257.2095449239783,257.2095449239783,0,0,0,235.5553540755455,103.29775005460866Z" fill-rule="evenodd" style="fill: #184B42; stroke: #fff; opacity: 1;" id="p-type-logs"></path><path d="M271.3912818288248,120.64730476603026A297,297,0,0,1,270.7797757445828,122.0135773088939L234.5021646258621,105.66685755611866A257.2095449239783,257.2095449239783,0,0,0,235.0317444293844,104.48363082550559Z" fill-rule="evenodd" style="fill: #184B42; stroke: #fff; opacity: 1;" id="p-type-logs"></path><path d="M270.7797757445828,122.0135773088939A297,297,0,0,1,270.1613914495896,123.37675052464961L233.9666281170966,106.84740019072163A257.2095449239783,257.2095449239783,0,0,0,234.5021646258621,105.66685755611866Z" fill-rule="evenodd" style="fill: #184B42; stroke: #fff; opacity: 1;" id="p-type-logs"></path><path d="M270.1613914495896,123.37675052464961A297,297,0,0,1,269.5361446517298,124.73678978666165L233.42514850651514,108.0252287417683A257.2095449239783,257.2095449239783,0,0,0,233.9666281170966,106.84740019072163Z" fill-rule="evenodd" style="fill: #184B42; stroke: #fff; opacity: 1;" id="p-type-logs"></path><path d="M269.5361446517298,124.73678978666165A297,297,0,0,1,268.90405123320596,126.09366054790127L232.87773954850857,109.20031329065414A257.2095449239783,257.2095449239783,0,0,0,233.42514850651514,108.0252287417683Z" fill-rule="evenodd" style="fill: #184B42; stroke: #fff; opacity: 1;" id="p-type-logs"></path><path d="M268.90405123320596,126.09366054790127A297,297,0,0,1,268.2651272501351,127.44732834182449L232.32441514808207,110.37262398847649A257.2095449239783,257.2095449239783,0,0,0,232.87773954850857,109.20031329065414Z" fill-rule="evenodd" style="fill: #184B42; stroke: #fff; opacity: 1;" id="p-type-logs"></path><path d="M268.2651272501351,127.44732834182449A297,297,0,0,1,267.61938893214074,128.79775878324745L231.76518936050192,111.5421310567926A257.2095449239783,257.2095449239783,0,0,0,232.32441514808207,110.37262398847649Z" fill-rule="evenodd" style="fill: #184B42; stroke: #fff; opacity: 1;" id="p-type-logs"></path><path d="M267.61938893214074,128.79775878324745A297,297,0,0,1,266.96685268194057,130.1449175692199L231.20007639093834,112.70880478837614A257.2095449239783,257.2095449239783,0,0,0,231.76518936050192,111.5421310567926Z" fill-rule="evenodd" style="fill: #184B42; stroke: #fff; opacity: 1;" id="p-type-logs"></path><path d="M266.96685268194057,130.1449175692199A297,297,0,0,1,266.30753507493006,131.4887704798965L230.62909059410487,113.87261554797175A257.2095449239783,257.2095449239783,0,0,0,231.20007639093834,112.70880478837614Z" fill-rule="evenodd" style="fill: #184B42; stroke: #fff; opacity: 1;" id="p-type-logs"></path><path d="M266.30753507493006,131.4887704798965A297,297,0,0,1,265.64145285876117,132.8292833794061L230.05224647389358,115.0335337730478A257.2095449239783,257.2095449239783,0,0,0,230.62909059410487,113.87261554797175Z" fill-rule="evenodd" style="fill: #184B42; stroke: #fff; opacity: 1;" id="p-type-logs"></path><path d="M265.64145285876117,132.8292833794061A297,297,0,0,1,264.9686229529171,134.1664222167188L229.4695586830067,116.19152997454738A257.2095449239783,257.2095449239783,0,0,0,230.05224647389358,115.0335337730478Z" fill-rule="evenodd" style="fill: #184B42; stroke: #fff; opacity: 1;" id="p-type-logs"></path><path d="M264.9686229529171,134.1664222167188A297,297,0,0,1,264.28906244828244,135.5001530265109L228.88104202258452,117.34657473763733A257.2095449239783,257.2095449239783,0,0,0,229.4695586830067,116.19152997454738Z" fill-rule="evenodd" style="fill: #184B42; stroke: #fff; opacity: 1;" id="p-type-logs"></path><path d="M264.28906244828244,135.5001530265109A297,297,0,0,1,263.602788606709,136.83044193002775L228.28671144182917,118.49863872245548A257.2095449239783,257.2095449239783,0,0,0,228.88104202258452,117.34657473763733Z" fill-rule="evenodd" style="fill: #184B42; stroke: #fff; opacity: 1;" id="p-type-logs"></path><path d="M263.602788606709,136.83044193002775A297,297,0,0,1,262.9098188605774,138.15725513594424L227.68658203762516,119.64769266485582A257.2095449239783,257.2095449239783,0,0,0,228.28671144182917,118.49863872245548Z" fill-rule="evenodd" style="fill: #184B42; stroke: #fff; opacity: 1;" id="p-type-logs"></path><path d="M262.9098188605774,138.15725513594424A297,297,0,0,1,262.21017081235425,139.4805589412231L227.08066905415572,120.79370737715195A257.2095449239783,257.2095449239783,0,0,0,227.68658203762516,119.64769266485582Z" fill-rule="evenodd" style="fill: #184B42; stroke: #fff; opacity: 1;" id="p-type-logs"></path><path d="M262.21017081235425,139.4805589412231A297,297,0,0,1,261.50386223414495,140.80031973197123L226.46898788251562,121.93665374885845A257.2095449239783,257.2095449239783,0,0,0,227.08066905415572,120.79370737715195Z" fill-rule="evenodd" style="fill: #184B42; stroke: #fff; opacity: 1;" id="p-type-logs"></path><path d="M261.50386223414495,140.80031973197123A297,297,0,0,1,260.79091106724246,142.11650398429322L225.8515540603203,123.07650274743031A257.2095449239783,257.2095449239783,0,0,0,226.46898788251562,121.93665374885845Z" fill-rule="evenodd" style="fill: #184B42; stroke: #fff; opacity: 1;" id="p-type-logs"></path><path d="M260.79091106724246,142.11650398429322A297,297,0,0,1,260.0713354216712,143.42907826514318L225.228383271311,124.21322541900048A257.2095449239783,257.2095449239783,0,0,0,225.8515540603203,123.07650274743031Z" fill-rule="evenodd" style="fill: #184B42; stroke: #fff; opacity: 1;" id="p-type-logs"></path><path d="M260.0713354216712,143.42907826514318A297,297,0,0,1,259.34515357572747,144.73800923317387L224.59949134495665,125.34679288911522A257.2095449239783,257.2095449239783,0,0,0,225.228383271311,124.21322541900048Z" fill-rule="evenodd" style="fill: #184B42; stroke: #fff; opacity: 1;" id="p-type-logs"></path><path d="M259.34515357572747,144.73800923317387A297,297,0,0,1,258.6123839755147,146.04326363958364L223.96489425605145,126.47717636346765A257.2095449239783,257.2095449239783,0,0,0,224.59949134495665,125.34679288911522Z" fill-rule="evenodd" style="fill: #184B42; stroke: #fff; opacity: 1;" id="p-type-logs"></path><path d="M258.6123839755147,146.04326363958364A297,297,0,0,1,257.87304523447534,147.34480832896097L223.32460812430932,127.60434712862914A257.2095449239783,257.2095449239783,0,0,0,223.96489425605145,126.47717636346765Z" fill-rule="evenodd" style="fill: #184B42; stroke: #fff; opacity: 1;" id="p-type-logs"></path><path d="M257.87304523447534,147.34480832896097A297,297,0,0,1,257.1271561329176,148.64261024012671L222.67864921395437,128.72827655277868A257.2095449239783,257.2095449239783,0,0,0,223.32460812430932,127.60434712862914Z" fill-rule="evenodd" style="fill: #184B42; stroke: #fff; opacity: 1;" id="p-type-logs"></path><path d="M257.1271561329176,148.64261024012671A297,297,0,0,1,256.3747356175388,149.93663640697386L222.02703393330773,129.84893608643011A257.2095449239783,257.2095449239783,0,0,0,222.67864921395437,128.72827655277868Z" fill-rule="evenodd" style="fill: #184B42; stroke: #fff; opacity: 1;" id="p-type-logs"></path><path d="M256.3747356175388,149.93663640697386A297,297,0,0,1,255.61580280094387,151.226853959305L221.36977883437086,130.96629726315746A257.2095449239783,257.2095449239783,0,0,0,222.02703393330773,129.84893608643011Z" fill-rule="evenodd" style="fill: #184B42; stroke: #fff; opacity: 1;" id="p-type-logs"></path><path d="M255.61580280094387,151.226853959305A297,297,0,0,1,254.85037696115998,152.5132301236672L220.70690061240498,132.0803317003179A257.2095449239783,257.2095449239783,0,0,0,221.36977883437086,130.96629726315746Z" fill-rule="evenodd" style="fill: #184B42; stroke: #fff; opacity: 1;" id="p-type-logs"></path><path d="M254.85037696115998,152.5132301236672A297,297,0,0,1,254.07847754114664,153.79573222418443L220.03841610550694,133.19101109977274A257.2095449239783,257.2095449239783,0,0,0,220.70690061240498,132.0803317003179Z" fill-rule="evenodd" style="fill: #184B42; stroke: #fff; opacity: 1;" id="p-type-logs"></path><path d="M254.07847754114664,153.79573222418443A297,297,0,0,1,253.3001241483021,155.0743276833878L219.36434229418177,134.29830724860628A257.2095449239783,257.2095449239783,0,0,0,220.03841610550694,133.19101109977274Z" fill-rule="evenodd" style="fill: #184B42; stroke: #fff; opacity: 1;" id="p-type-logs"></path><path d="M253.3001241483021,155.0743276833878A297,297,0,0,1,252.51533655396514,156.34898402304287L218.6846963009111,135.40219201984246A257.2095449239783,257.2095449239783,0,0,0,219.36434229418177,134.29830724860628Z" fill-rule="evenodd" style="fill: #184B42; stroke: #fff; opacity: 1;" id="p-type-logs"></path><path d="M252.51533655396514,156.34898402304287A297,297,0,0,1,251.72413469291283,157.61966886497473L217.99949538971825,136.50263737315925A257.2095449239783,257.2095449239783,0,0,0,218.6846963009111,135.40219201984246Z" fill-rule="evenodd" style="fill: #184B42; stroke: #fff; opacity: 1;" id="p-type-logs"></path><path d="M251.72413469291283,157.61966886497473A297,297,0,0,1,250.92653866285417,158.88634993189046L217.30875696572986,137.59961535560106A257.2095449239783,257.2095449239783,0,0,0,217.99949538971825,136.50263737315925Z" fill-rule="evenodd" style="fill: #184B42; stroke: #fff; opacity: 1;" id="p-type-logs"></path><path d="M250.92653866285417,158.88634993189046A297,297,0,0,1,250.1225687239197,160.14899504819897L216.6124985747336,138.6930981022886A257.2095449239783,257.2095449239783,0,0,0,217.30875696572986,137.59961535560106Z" fill-rule="evenodd" style="fill: #184B42; stroke: #fff; opacity: 1;" id="p-type-logs"></path><path d="M250.1225687239197,160.14899504819897A297,297,0,0,1,249.3122452981467,161.4075721408284L215.9107379027325,139.78305783712682A257.2095449239783,257.2095449239783,0,0,0,216.6124985747336,138.6930981022886Z" fill-rule="evenodd" style="fill: #184B42; stroke: #fff; opacity: 1;" id="p-type-logs"></path><path d="M249.3122452981467,161.4075721408284A297,297,0,0,1,248.4955889689605,162.66204924004074L215.20349277549593,140.86946687351053A257.2095449239783,257.2095449239783,0,0,0,215.9107379027325,139.78305783712682Z" fill-rule="evenodd" style="fill: #184B42; stroke: #fff; opacity: 1;" id="p-type-logs"></path><path d="M248.4955889689605,162.66204924004074A297,297,0,0,1,247.67262048065166,163.91239448024388L214.4907811581064,141.9522976150274A257.2095449239783,257.2095449239783,0,0,0,215.20349277549593,140.86946687351053Z" fill-rule="evenodd" style="fill: #184B42; stroke: #fff; opacity: 1;" id="p-type-logs"></path><path d="M247.67262048065166,163.91239448024388A297,297,0,0,1,246.843360737849,165.15857610080124L213.77262115450353,143.03152255615933A257.2095449239783,257.2095449239783,0,0,0,214.4907811581064,141.9522976150274Z" fill-rule="evenodd" style="fill: #184B42; stroke: #fff; opacity: 1;" id="p-type-logs"></path><path d="M246.843360737849,165.15857610080124A297,297,0,0,1,246.00783080498857,166.40056244683822L213.0490310070241,144.10711428298077A257.2095449239783,257.2095449239783,0,0,0,213.77262115450353,143.03152255615933Z" fill-rule="evenodd" style="fill: #184B42; stroke: #fff; opacity: 1;" id="p-type-logs"></path><path d="M246.00783080498857,166.40056244683822A297,297,0,0,1,245.16605190577872,167.63832197004663L212.32002909593865,145.17904547385538A257.2095449239783,257.2095449239783,0,0,0,213.0490310070241,144.10711428298077Z" fill-rule="evenodd" style="fill: #184B42; stroke: #fff; opacity: 1;" id="p-type-logs"></path><path d="M245.16605190577872,167.63832197004663A297,297,0,0,1,244.31804542266073,168.87182322948578L211.58563393898459,146.24728890012977A257.2095449239783,257.2095449239783,0,0,0,212.32002909593865,145.17904547385538Z" fill-rule="evenodd" style="fill: #184B42; stroke: #fff; opacity: 1;" id="p-type-logs"></path><path d="M244.31804542266073,168.87182322948578A297,297,0,0,1,243.46383289626593,170.10103489238122L210.8458641908958,147.31181742682534A257.2095449239783,257.2095449239783,0,0,0,211.58563393898459,146.24728890012977Z" fill-rule="evenodd" style="fill: #184B42; stroke: #fff; opacity: 1;" id="p-type-logs"></path><path d="M243.46383289626593,170.10103489238122A297,297,0,0,1,242.60343602486836,171.32592573492082L210.10073864292886,148.37260401332756A257.2095449239783,257.2095449239783,0,0,0,210.8458641908958,147.31181742682534Z" fill-rule="evenodd" style="fill: #184B42; stroke: #fff; opacity: 1;" id="p-type-logs"></path><path d="M242.60343602486836,171.32592573492082A297,297,0,0,1,241.73687666383367,172.54646464304756L209.35027622238562,149.42962171407265A257.2095449239783,257.2095449239783,0,0,0,210.10073864292886,148.37260401332756Z" fill-rule="evenodd" style="fill: #184B42; stroke: #fff; opacity: 1;" id="p-type-logs"></path><path d="M241.73687666383367,172.54646464304756A297,297,0,0,1,240.86417682506396,173.76262061325014L208.59449599213247,150.4828436792322A257.2095449239783,257.2095449239783,0,0,0,209.35027622238562,149.42962171407265Z" fill-rule="evenodd" style="fill: #184B42; stroke: #fff; opacity: 1;" id="p-type-logs"></path><path d="M240.86417682506396,173.76262061325014A297,297,0,0,1,239.98535867643866,174.97436275335045L207.83341715011616,151.53224315539518A257.2095449239783,257.2095449239783,0,0,0,208.59449599213247,150.4828436792322Z" fill-rule="evenodd" style="fill: #184B42; stroke: #fff; opacity: 1;" id="p-type-logs"></path><path d="M239.98535867643866,174.97436275335045A297,297,0,0,1,239.1004445412514,176.1816602832882L207.067059028876,152.57779348624746A257.2095449239783,257.2095449239783,0,0,0,207.83341715011616,151.53224315539518Z" fill-rule="evenodd" style="fill: #184B42; stroke: #fff; opacity: 1;" id="p-type-logs"></path><path d="M239.1004445412514,176.1816602832882A297,297,0,0,1,238.2094568976429,177.38448253590286L206.295441095053,153.61946811324898A257.2095449239783,257.2095449239783,0,0,0,207.067059028876,152.57779348624746Z" fill-rule="evenodd" style="fill: #184B42; stroke: #fff; opacity: 1;" id="p-type-logs"></path><path d="M238.2094568976429,177.38448253590286A297,297,0,0,1,237.3124183780301,178.5827989577126L205.51858294889516,154.6572405763083A257.2095449239783,257.2095449239783,0,0,0,206.295441095053,153.61946811324898Z" fill-rule="evenodd" style="fill: #184B42; stroke: #fff; opacity: 1;" id="p-type-logs"></path><path d="M237.3124183780301,178.5827989577126A297,297,0,0,1,236.4093517685313,179.77657910969054L204.73650432375973,155.69108451445484A257.2095449239783,257.2095449239783,0,0,0,205.51858294889516,154.6572405763083Z" fill-rule="evenodd" style="fill: #184B42; stroke: #fff; opacity: 1;" id="p-type-logs"></path><path d="M236.4093517685313,179.77657910969054A297,297,0,0,1,235.50028000838722,180.96579266803766L203.9492250856119,156.72097366650834A257.2095449239783,257.2095449239783,0,0,0,204.73650432375973,155.69108451445484Z" fill-rule="evenodd" style="fill: #184B42; stroke: #fff; opacity: 1;" id="p-type-logs"></path><path d="M235.50028000838722,180.96579266803766A297,297,0,0,1,234.5852261893785,182.15040942495338L203.15676523252037,157.74688187174607A257.2095449239783,257.2095449239783,0,0,0,203.9492250856119,156.72097366650834Z" fill-rule="evenodd" style="fill: #184B42; stroke: #fff; opacity: 1;" id="p-type-logs"></path><path d="M234.5852261893785,182.15040942495338A297,297,0,0,1,233.6642135552387,183.33039928940264L202.3591448941489,158.7687830705673A257.2095449239783,257.2095449239783,0,0,0,203.15676523252037,157.74688187174607Z" fill-rule="evenodd" style="fill: #184B42; stroke: #fff; opacity: 1;" id="p-type-logs"></path><path d="M233.6642135552387,183.33039928940264A297,297,0,0,1,232.73726550106454,184.50573228788042L201.5563843312455,159.7866513051552A257.2095449239783,257.2095449239783,0,0,0,202.3591448941489,158.7687830705673Z" fill-rule="evenodd" style="fill: #184B42; stroke: #fff; opacity: 1;" id="p-type-logs"></path><path d="M232.73726550106454,184.50573228788042A297,297,0,0,1,231.80440557272107,185.67637856517302L200.74850393512753,160.80046072013627A257.2095449239783,257.2095449239783,0,0,0,201.5563843312455,159.7866513051552Z" fill-rule="evenodd" style="fill: #184B42; stroke: #fff; opacity: 1;" id="p-type-logs"></path><path d="M231.80440557272107,185.67637856517302A297,297,0,0,1,230.8656574662438,186.84230838511655L199.93552422716368,161.81018556323716A257.2095449239783,257.2095449239783,0,0,0,200.74850393512753,160.80046072013627Z" fill-rule="evenodd" style="fill: #184B42; stroke: #fff; opacity: 1;" id="p-type-logs"></path><path d="M230.8656574662438,186.84230838511655A297,297,0,0,1,229.92104502723686,188.00349213135198L199.1174658582529,162.81580018593863A257.2095449239783,257.2095449239783,0,0,0,199.93552422716368,161.81018556323716Z" fill-rule="evenodd" style="fill: #184B42; stroke: #fff; opacity: 1;" id="p-type-logs"></path><path d="M229.92104502723686,188.00349213135198A297,297,0,0,1,228.97059225026706,189.15990030807782L198.2943496082996,163.81727904412728A257.2095449239783,257.2095449239783,0,0,0,199.1174658582529,162.81580018593863Z" fill-rule="evenodd" style="fill: #184B42; stroke: #fff; opacity: 1;" id="p-type-logs"></path><path d="M228.97059225026706,189.15990030807782A297,297,0,0,1,228.01432327825455,190.31150354079915L197.46619638568595,164.81459669874423A257.2095449239783,257.2095449239783,0,0,0,198.2943496082996,163.81727904412728Z" fill-rule="evenodd" style="fill: #184B42; stroke: #fff; opacity: 1;" id="p-type-logs"></path><path d="M228.01432327825455,190.31150354079915A297,297,0,0,1,227.05226240185962,191.4582725770738L196.6330272267408,165.80772781643145A257.2095449239783,257.2095449239783,0,0,0,197.46619638568595,164.81459669874423Z" fill-rule="evenodd" style="fill: #184B42; stroke: #fff; opacity: 1;" id="p-type-logs"></path><path d="M227.05226240185962,191.4582725770738A297,297,0,0,1,226.0844340588654,192.60017828725532L195.79486329520523,166.79664717017516A257.2095449239783,257.2095449239783,0,0,0,196.6330272267408,165.80772781643145Z" fill-rule="evenodd" style="fill: #184B42; stroke: #fff; opacity: 1;" id="p-type-logs"></path><path d="M226.0844340588654,192.60017828725532A297,297,0,0,1,225.1108628335575,193.7371916652331L194.951725881695,167.78132963994668A257.2095449239783,257.2095449239783,0,0,0,195.79486329520523,166.79664717017516Z" fill-rule="evenodd" style="fill: #184B42; stroke: #fff; opacity: 1;" id="p-type-logs"></path><path d="M225.1108628335575,193.7371916652331A297,297,0,0,1,224.1315734560991,194.86928382916906L194.10363640315978,168.76175021334052A257.2095449239783,257.2095449239783,0,0,0,194.951725881695,167.78132963994668Z" fill-rule="evenodd" style="fill: #184B42; stroke: #fff; opacity: 1;" id="p-type-logs"></path><path d="M224.1315734560991,194.86928382916906A297,297,0,0,1,223.14659080190316,195.9964260222313L193.2506164023391,169.73788398620974A257.2095449239783,257.2095449239783,0,0,0,194.10363640315978,168.76175021334052Z" fill-rule="evenodd" style="fill: #184B42; stroke: #fff; opacity: 1;" id="p-type-logs"></path><path d="M223.14659080190316,195.9964260222313A297,297,0,0,1,222.15593989100026,197.1185896133246L192.39268754721496,170.70970616329848A257.2095449239783,257.2095449239783,0,0,0,193.2506164023391,169.73788398620974Z" fill-rule="evenodd" style="fill: #184B42; stroke: #fff; opacity: 1;" id="p-type-logs"></path><path d="M222.15593989100026,197.1185896133246A297,297,0,0,1,221.15964588740326,198.23574609781758L191.52987163046188,171.67719205887192A257.2095449239783,257.2095449239783,0,0,0,192.39268754721496,170.70970616329848Z" fill-rule="evenodd" style="fill: #184B42; stroke: #fff; opacity: 1;" id="p-type-logs"></path><path d="M221.15964588740326,198.23574609781758A297,297,0,0,1,220.15773409846793,199.34786709826693L190.66219056889275,172.64031709734323A257.2095449239783,257.2095449239783,0,0,0,191.52987163046188,171.67719205887192Z" fill-rule="evenodd" style="fill: #184B42; stroke: #fff; opacity: 1;" id="p-type-logs"></path><path d="M220.15773409846793,199.34786709826693A297,297,0,0,1,219.1502299742502,200.45492436513814L189.78966640290264,173.59905681389785A257.2095449239783,257.2095449239783,0,0,0,190.66219056889275,172.64031709734323Z" fill-rule="evenodd" style="fill: #184B42; stroke: #fff; opacity: 1;" id="p-type-logs"></path><path d="M219.1502299742502,200.45492436513814A297,297,0,0,1,218.1371591068597,201.55688977752305L188.91232129590853,174.553386855115A257.2095449239783,257.2095449239783,0,0,0,189.78966640290264,173.59905681389785Z" fill-rule="evenodd" style="fill: #184B42; stroke: #fff; opacity: 1;" id="p-type-logs"></path><path d="M218.1371591068597,201.55688977752305A297,297,0,0,1,217.1185472298096,202.6537353438543L188.03017753378657,175.50328297958617A257.2095449239783,257.2095449239783,0,0,0,188.91232129590853,174.553386855115Z" fill-rule="evenodd" style="fill: #184B42; stroke: #fff; opacity: 1;" id="p-type-logs"></path><path d="M217.1185472298096,202.6537353438543A297,297,0,0,1,216.094420217363,203.74543320261617L187.14325752430597,176.44872105853105A257.2095449239783,257.2095449239783,0,0,0,188.03017753378657,175.50328297958617Z" fill-rule="evenodd" style="fill: #184B42; stroke: #fff; opacity: 1;" id="p-type-logs"></path><path d="M216.094420217363,203.74543320261617A297,297,0,0,1,215.06480408387574,204.8319556230525L186.2515837965597,177.38967707641027A257.2095449239783,257.2095449239783,0,0,0,187.14325752430597,176.44872105853105Z" fill-rule="evenodd" style="fill: #184B42; stroke: #fff; opacity: 1;" id="p-type-logs"></path><path d="M215.06480408387574,204.8319556230525A297,297,0,0,1,214.02972498313545,205.9132750058709L185.35517900039224,178.32612713153551A257.2095449239783,257.2095449239783,0,0,0,186.2515837965597,177.38967707641027Z" fill-rule="evenodd" style="fill: #184B42; stroke: #fff; opacity: 1;" id="p-type-logs"></path><path d="M214.02972498313545,205.9132750058709A297,297,0,0,1,212.98920920769731,206.9893638839439L184.45406590582436,179.2580474366766A257.2095449239783,257.2095449239783,0,0,0,185.35517900039224,178.32612713153551Z" fill-rule="evenodd" style="fill: #184B42; stroke: #fff; opacity: 1;" id="p-type-logs"></path><path d="M212.98920920769731,206.9893638839439A297,297,0,0,1,211.9432831882162,208.06019492300678L183.54826740247458,180.18541431966597A257.2095449239783,257.2095449239783,0,0,0,184.45406590582436,179.2580474366766Z" fill-rule="evenodd" style="fill: #184B42; stroke: #fff; opacity: 1;" id="p-type-logs"></path><path d="M211.9432831882162,208.06019492300678A297,297,0,0,1,210.89197349277532,209.1257409223517L182.63780649897788,181.10820422399954A257.2095449239783,257.2095449239783,0,0,0,183.54826740247458,180.18541431966597Z" fill-rule="evenodd" style="fill: #184B42; stroke: #fff; opacity: 1;" id="p-type-logs"></path><path d="M210.89197349277532,209.1257409223517A297,297,0,0,1,209.83530682621105,210.1859748155187L181.722706322401,182.02639370943544A257.2095449239783,257.2095449239783,0,0,0,182.63780649897788,181.10820422399954Z" fill-rule="evenodd" style="fill: #184B42; stroke: #fff; opacity: 1;" id="p-type-logs"></path><path d="M209.83530682621105,210.1859748155187A297,297,0,0,1,208.77331002943512,211.24086967098333L180.80299011765536,182.9399594525893A257.2095449239783,257.2095449239783,0,0,0,181.722706322401,182.02639370943544Z" fill-rule="evenodd" style="fill: #184B42; stroke: #fff; opacity: 1;" id="p-type-logs"></path><path d="M208.77331002943512,211.24086967098333A297,297,0,0,1,207.70601007875237,212.2903986928406L179.8786812469062,183.84887824752676A257.2095449239783,257.2095449239783,0,0,0,180.80299011765536,182.9399594525893Z" fill-rule="evenodd" style="fill: #184B42; stroke: #fff; opacity: 1;" id="p-type-logs"></path><path d="M207.70601007875237,212.2903986928406A297,297,0,0,1,206.63343408517574,213.33453522148574L178.9498031889795,184.75312700635274A257.2095449239783,257.2095449239783,0,0,0,179.8786812469062,183.84887824752676Z" fill-rule="evenodd" style="fill: #184B42; stroke: #fff; opacity: 1;" id="p-type-logs"></path><path d="M206.63343408517574,213.33453522148574A297,297,0,0,1,205.55560929373746,214.37325273429133L178.0163795387653,185.65268275979818A257.2095449239783,257.2095449239783,0,0,0,178.9498031889795,184.75312700635274Z" fill-rule="evenodd" style="fill: #184B42; stroke: #fff; opacity: 1;" id="p-type-logs"></path><path d="M205.55560929373746,214.37325273429133A297,297,0,0,1,204.47256308279714,215.40652484628117L177.0784340066185,186.54752265780337A257.2095449239783,257.2095449239783,0,0,0,178.0163795387653,185.65268275979818Z" fill-rule="evenodd" style="fill: #184B42; stroke: #fff; opacity: 1;" id="p-type-logs"></path><path d="M204.47256308279714,215.40652484628117A297,297,0,0,1,203.38432296334622,216.43432531080018L176.1359904177566,187.43762397009826A257.2095449239783,257.2095449239783,0,0,0,177.0784340066185,186.54752265780337Z" fill-rule="evenodd" style="fill: #184B42; stroke: #fff; opacity: 1;" id="p-type-logs"></path><path d="M203.38432296334622,216.43432531080018A297,297,0,0,1,202.29091657830918,217.45662802018143L175.1890727116544,188.3229640867801A257.2095449239783,257.2095449239783,0,0,0,176.1359904177566,187.43762397009826Z" fill-rule="evenodd" style="fill: #184B42; stroke: #fff; opacity: 1;" id="p-type-logs"></path><path d="M202.29091657830918,217.45662802018143A297,297,0,0,1,201.19237170184132,218.4734070064092L174.23770494143602,189.20352051888753A257.2095449239783,257.2095449239783,0,0,0,175.1890727116544,188.3229640867801Z" fill-rule="evenodd" style="fill: #184B42; stroke: #fff; opacity: 1;" id="p-type-logs"></path><path d="M201.19237170184132,218.4734070064092A297,297,0,0,1,200.0887162386234,219.48463644177843L173.28191127326377,190.0792708989719A257.2095449239783,257.2095449239783,0,0,0,174.23770494143602,189.20352051888753Z" fill-rule="evenodd" style="fill: #184B42; stroke: #fff; opacity: 1;" id="p-type-logs"></path><path d="M200.0887162386234,219.48463644177843A297,297,0,0,1,198.97997822315256,220.49029063955115L172.3217159857245,190.95019298166554A257.2095449239783,257.2095449239783,0,0,0,173.28191127326377,190.0792708989719Z" fill-rule="evenodd" style="fill: #184B42; stroke: #fff; opacity: 1;" id="p-type-logs"></path><path d="M198.97997822315256,220.49029063955115A297,297,0,0,1,197.86618581903053,221.4903440546086L171.35714346921267,191.81626464424664A257.2095449239783,257.2095449239783,0,0,0,172.3217159857245,190.95019298166554Z" fill-rule="evenodd" style="fill: #184B42; stroke: #fff; opacity: 1;" id="p-type-logs"></path><path d="M197.86618581903053,221.4903440546086A297,297,0,0,1,196.7473673182479,222.48477128410033L170.38821822531094,192.67746388720147A257.2095449239783,257.2095449239783,0,0,0,171.35714346921267,191.81626464424664Z" fill-rule="evenodd" style="fill: #184B42; stroke: #fff; opacity: 1;" id="p-type-logs"></path><path d="M196.7473673182479,222.48477128410033A297,297,0,0,1,195.62355114046576,223.4735470680894L169.41496486616765,193.5337688347829A257.2095449239783,257.2095449239783,0,0,0,170.38821822531094,192.67746388720147Z" fill-rule="evenodd" style="fill: #184B42; stroke: #fff; opacity: 1;" id="p-type-logs"></path><path d="M195.62355114046576,223.4735470680894A297,297,0,0,1,194.4947658322936,224.45664629019404L168.4374081138719,194.38515773556622A257.2095449239783,257.2095449239783,0,0,0,169.41496486616765,193.5337688347829Z" fill-rule="evenodd" style="fill: #184B42; stroke: #fff; opacity: 1;" id="p-type-logs"></path><path d="M194.4947658322936,224.45664629019404A297,297,0,0,1,193.36104006656424,225.4340439782256L167.45557279982532,195.23160896300172A257.2095449239783,257.2095449239783,0,0,0,168.4374081138719,194.38515773556622Z" fill-rule="evenodd" style="fill: #184B42; stroke: #fff; opacity: 1;" id="p-type-logs"></path><path d="M193.36104006656424,225.4340439782256A297,297,0,0,1,192.22240264160547,226.40571530482288L166.46948386411134,196.07310101596389A257.2095449239783,257.2095449239783,0,0,0,167.45557279982532,195.23160896300172Z" fill-rule="evenodd" style="fill: #184B42; stroke: #fff; opacity: 1;" id="p-type-logs"></path><path d="M192.22240264160547,226.40571530482288A297,297,0,0,1,191.07888248050864,227.3716355880829L165.4791663548618,196.90961251929775A257.2095449239783,257.2095449239783,0,0,0,166.46948386411134,196.07310101596389Z" fill-rule="evenodd" style="fill: #184B42; stroke: #fff; opacity: 1;" id="p-type-logs"></path><path d="M191.07888248050864,227.3716355880829A297,297,0,0,1,189.93050863039383,228.33178029218772L164.48464542762062,197.74112222436162A257.2095449239783,257.2095449239783,0,0,0,165.4791663548618,196.90961251929775Z" fill-rule="evenodd" style="fill: #184B42; stroke: #fff; opacity: 1;" id="p-type-logs"></path><path d="M189.93050863039383,228.33178029218772A297,297,0,0,1,188.7773102616721,229.28612502802778L163.48594634470484,198.56760900956704A257.2095449239783,257.2095449239783,0,0,0,164.48464542762062,197.74112222436162Z" fill-rule="evenodd" style="fill: #184B42; stroke: #fff; opacity: 1;" id="p-type-logs"></path><path d="M188.7773102616721,229.28612502802778A297,297,0,0,1,187.6193166673045,230.23464555382128L162.48309447456285,199.3890518809152A257.2095449239783,257.2095449239783,0,0,0,163.48594634470484,198.56760900956704Z" fill-rule="evenodd" style="fill: #184B42; stroke: #fff; opacity: 1;" id="p-type-logs"></path><path d="M187.6193166673045,230.23464555382128A297,297,0,0,1,186.45655726205788,231.1773177757302L161.47611529113,200.20542997253023A257.2095449239783,257.2095449239783,0,0,0,162.48309447456285,199.3890518809152Z" fill-rule="evenodd" style="fill: #184B42; stroke: #fff; opacity: 1;" id="p-type-logs"></path><path d="M186.45655726205788,231.1773177757302A297,297,0,0,1,185.28906158175792,232.11411774847195L160.46503437318162,201.01672254718918A257.2095449239783,257.2095449239783,0,0,0,161.47611529113,200.20542997253023Z" fill-rule="evenodd" style="fill: #184B42; stroke: #fff; opacity: 1;" id="p-type-logs"></path><path d="M185.28906158175792,232.11411774847195A297,297,0,0,1,184.11685928253877,233.04502167592813L159.4498774036833,201.82290899684892A257.2095449239783,257.2095449239783,0,0,0,160.46503437318162,201.01672254718918Z" fill-rule="evenodd" style="fill: #184B42; stroke: #fff; opacity: 1;" id="p-type-logs"></path><path d="M184.11685928253877,233.04502167592813A297,297,0,0,1,182.9399801400896,233.9700059117485L158.4306701691383,202.6239688431695A257.2095449239783,257.2095449239783,0,0,0,159.4498774036833,201.82290899684892Z" fill-rule="evenodd" style="fill: #184B42; stroke: #fff; opacity: 1;" id="p-type-logs"></path><path d="M182.9399801400896,233.9700059117485A297,297,0,0,1,181.7584540488985,234.88904695995183L157.40743855893265,203.41988173803426A257.2095449239783,257.2095449239783,0,0,0,158.4306701691383,202.6239688431695Z" fill-rule="evenodd" style="fill: #184B42; stroke: #fff; opacity: 1;" id="p-type-logs"></path><path d="M181.7584540488985,234.88904695995183A297,297,0,0,1,180.5723110214929,235.80212147552285L156.38020856467764,204.21062746406693A257.2095449239783,257.2095449239783,0,0,0,157.40743855893265,203.41988173803426Z" fill-rule="evenodd" style="fill: #184B42; stroke: #fff; opacity: 1;" id="p-type-logs"></path><path d="M180.5723110214929,235.80212147552285A297,297,0,0,1,179.38158118767745,236.709206265005L155.34900627954943,204.99618593514495A257.2095449239783,257.2095449239783,0,0,0,156.38020856467764,204.21062746406693Z" fill-rule="evenodd" style="fill: #184B42; stroke: #fff; opacity: 1;" id="p-type-logs"></path><path d="M179.38158118767745,236.709206265005A297,297,0,0,1,178.1862947937684,237.6102782870898L154.31385789762632,205.77653719690977A257.2095449239783,257.2095449239783,0,0,0,155.34900627954943,204.99618593514495Z" fill-rule="evenodd" style="fill: #184B42; stroke: #fff; opacity: 1;" id="p-type-logs"></path><path d="M178.1862947937684,237.6102782870898A297,297,0,0,1,176.98648220182554,238.505314653202L153.27478971322333,206.55166142727384A257.2095449239783,257.2095449239783,0,0,0,154.31385789762632,205.77653719690977Z" fill-rule="evenodd" style="fill: #184B42; stroke: #fff; opacity: 1;" id="p-type-logs"></path><path d="M176.98648220182554,238.505314653202A297,297,0,0,1,175.78217388888075,239.39429262808105L152.23182812022435,207.32153893692396A257.2095449239783,257.2095449239783,0,0,0,153.27478971322333,206.55166142727384Z" fill-rule="evenodd" style="fill: #184B42; stroke: #fff; opacity: 1;" id="p-type-logs"></path><path d="M175.78217388888075,239.39429262808105A297,297,0,0,1,174.5734004461639,240.27718963035855L151.1849996114116,208.08615016982142A257.2095449239783,257.2095449239783,0,0,0,152.23182812022435,207.32153893692396Z" fill-rule="evenodd" style="fill: #184B42; stroke: #fff; opacity: 1;" id="p-type-logs"></path><path d="M174.5734004461639,240.27718963035855A297,297,0,0,1,173.3601925783261,241.15398323313195L150.13433077779288,208.84547570369887A257.2095449239783,257.2095449239783,0,0,0,151.1849996114116,208.08615016982142Z" fill-rule="evenodd" style="fill: #184B42; stroke: #fff; opacity: 1;" id="p-type-logs"></path><path d="M173.3601925783261,241.15398323313195A297,297,0,0,1,172.14258110265908,242.02465116453413L149.07984830792583,209.59949625055359A257.2095449239783,257.2095449239783,0,0,0,150.13433077779288,208.84547570369887Z" fill-rule="evenodd" style="fill: #184B42; stroke: #fff; opacity: 1;" id="p-type-logs"></path><path d="M172.14258110265908,242.02465116453413A297,297,0,0,1,170.92059694831312,242.88917130829913L148.02157898724016,210.34819265713745A257.2095449239783,257.2095449239783,0,0,0,149.07984830792583,209.59949625055359Z" fill-rule="evenodd" style="fill: #184B42; stroke: #fff; opacity: 1;" id="p-type-logs"></path><path d="M170.92059694831312,242.88917130829913A297,297,0,0,1,169.69427115551093,243.74752170432407L146.95954969735737,211.0915459054435A257.2095449239783,257.2095449239783,0,0,0,148.02157898724016,210.34819265713745Z" fill-rule="evenodd" style="fill: #184B42; stroke: #fff; opacity: 1;" id="p-type-logs"></path><path d="M169.69427115551093,243.74752170432407A297,297,0,0,1,168.46363487475932,244.59968054922675L145.8937874154077,211.82953711318882A257.2095449239783,257.2095449239783,0,0,0,146.95954969735737,211.0915459054435Z" fill-rule="evenodd" style="fill: #184B42; stroke: #fff; opacity: 1;" id="p-type-logs"></path><path d="M168.46363487475932,244.59968054922675A297,297,0,0,1,167.22871936605793,245.44562619689972L144.8243192133449,212.5621475342945A257.2095449239783,257.2095449239783,0,0,0,145.8937874154077,211.82953711318882Z" fill-rule="evenodd" style="fill: #184B42; stroke: #fff; opacity: 1;" id="p-type-logs"></path><path d="M167.22871936605793,245.44562619689972A297,297,0,0,1,165.98955599810526,246.28533715906005L143.75117225725882,213.2893585593616A257.2095449239783,257.2095449239783,0,0,0,144.8243192133449,212.5621475342945Z" fill-rule="evenodd" style="fill: #184B42; stroke: #fff; opacity: 1;" id="p-type-logs"></path><path d="M165.98955599810526,246.28533715906005A297,297,0,0,1,164.7461762475016,247.118792105795L142.67437380668488,214.01115171614387A257.2095449239783,257.2095449239783,0,0,0,143.75117225725882,213.2893585593616Z" fill-rule="evenodd" style="fill: #184B42; stroke: #fff; opacity: 1;" id="p-type-logs"></path><path d="M-3.491419963653964,296.97947738292856A297,297,0,0,1,-4.98814429985785,296.95810885787205L-4.31985968141944,257.17326613070196A257.2095449239783,257.2095449239783,0,0,0,-3.023658383804474,257.1917718162423Z" fill-rule="evenodd" style="fill: #AE497E; stroke: #fff; opacity: 1;" id="p-type-tokenTransfers"></path><path d="M-4.98814429985785,296.95810885787205A297,297,0,0,1,-6.48474192974603,296.9291971533022L-5.615951248146185,257.1482278600777A257.2095449239783,257.2095449239783,0,0,0,-4.31985968141944,257.17326613070196Z" fill-rule="evenodd" style="fill: #AE497E; stroke: #fff; opacity: 1;" id="p-type-tokenTransfers"></path><path d="M-6.48474192974603,296.9291971533022A297,297,0,0,1,-7.981174837503328,296.89274300361944L-6.911900161323022,257.1166576403791A257.2095449239783,257.2095449239783,0,0,0,-5.615951248146185,257.1482278600777Z" fill-rule="evenodd" style="fill: #AE497E; stroke: #fff; opacity: 1;" id="p-type-tokenTransfers"></path><path d="M-7.981174837503328,296.89274300361944A297,297,0,0,1,-9.477405011498755,296.84874733481365L-8.207673501911872,257.0785562735368A257.2095449239783,257.2095449239783,0,0,0,-6.911900161323022,257.1166576403791Z" fill-rule="evenodd" style="fill: #AE497E; stroke: #fff; opacity: 1;" id="p-type-tokenTransfers"></path><path d="M-9.477405011498755,296.84874733481365A297,297,0,0,1,-10.973394445251063,296.7972112644405L-9.503238355334469,257.03392472738244A257.2095449239783,257.2095449239783,0,0,0,-8.207673501911872,257.0785562735368Z" fill-rule="evenodd" style="fill: #AE497E; stroke: #fff; opacity: 1;" id="p-type-tokenTransfers"></path><path d="M-10.973394445251063,296.7972112644405A297,297,0,0,1,-12.469105138394166,296.7381361015932L-10.798561812308428,256.982764135624A257.2095449239783,257.2095449239783,0,0,0,-9.503238355334469,257.03392472738244Z" fill-rule="evenodd" style="fill: #AE497E; stroke: #fff; opacity: 1;" id="p-type-tokenTransfers"></path><path d="M-12.469105138394166,296.7381361015932A297,297,0,0,1,-13.964499097642408,296.6715233468692L-12.093610969683196,256.92507579781693A257.2095449239783,257.2095449239783,0,0,0,-10.798561812308428,256.982764135624Z" fill-rule="evenodd" style="fill: #AE497E; stroke: #fff; opacity: 1;" id="p-type-tokenTransfers"></path><path d="M-13.964499097642408,296.6715233468692A297,297,0,0,1,-15.45953833775564,296.5973746923318L-13.388352931275838,256.8608611793311A257.2095449239783,257.2095449239783,0,0,0,-12.093610969683196,256.92507579781693Z" fill-rule="evenodd" style="fill: #AE497E; stroke: #fff; opacity: 1;" id="p-type-tokenTransfers"></path><path d="M-15.45953833775564,296.5973746923318A297,297,0,0,1,-16.954184882504116,296.51569202146766L-14.682754808706653,256.7901219113138A257.2095449239783,257.2095449239783,0,0,0,-13.388352931275838,256.8608611793311Z" fill-rule="evenodd" style="fill: #AE497E; stroke: #fff; opacity: 1;" id="p-type-tokenTransfers"></path><path d="M-16.954184882504116,296.51569202146766A297,297,0,0,1,-18.448400765633135,296.42647740913867L-15.976783722234584,256.7128597906481A257.2095449239783,257.2095449239783,0,0,0,-14.682754808706653,256.7901219113138Z" fill-rule="evenodd" style="fill: #AE497E; stroke: #fff; opacity: 1;" id="p-type-tokenTransfers"></path><path d="M-18.448400765633135,296.42647740913867A297,297,0,0,1,-19.942148031827447,296.32973312152916L-17.270406801592415,256.6290767799072A257.2095449239783,257.2095449239783,0,0,0,-15.976783722234584,256.7128597906481Z" fill-rule="evenodd" style="fill: #AE497E; stroke: #fff; opacity: 1;" id="p-type-tokenTransfers"></path><path d="M-19.942148031827447,296.32973312152916A297,297,0,0,1,-21.43538873767537,296.2254616160885L-18.563591186821725,256.5387750073048A257.2095449239783,257.2095449239783,0,0,0,-17.270406801592415,256.6290767799072Z" fill-rule="evenodd" style="fill: #AE497E; stroke: #fff; opacity: 1;" id="p-type-tokenTransfers"></path><path d="M-21.43538873767537,296.2254616160885A297,297,0,0,1,-22.928084952632616,296.11366554146883L-19.856304029107573,256.44195676664077A257.2095449239783,257.2095449239783,0,0,0,-18.563591186821725,256.5387750073048Z" fill-rule="evenodd" style="fill: #AE497E; stroke: #fff; opacity: 1;" id="p-type-tokenTransfers"></path><path d="M-22.928084952632616,296.11366554146883A297,297,0,0,1,-24.420198759985766,295.9943477374573L-21.148512491612923,256.338624517243A257.2095449239783,257.2095449239783,0,0,0,-19.856304029107573,256.44195676664077Z" fill-rule="evenodd" style="fill: #AE497E; stroke: #fff; opacity: 1;" id="p-type-tokenTransfers"></path><path d="M-24.420198759985766,295.9943477374573A297,297,0,0,1,-25.911692257815442,295.8675112349044L-22.44018375031273,256.228780883905A257.2095449239783,257.2095449239783,0,0,0,-21.148512491612923,256.338624517243Z" fill-rule="evenodd" style="fill: #AE497E; stroke: #fff; opacity: 1;" id="p-type-tokenTransfers"></path><path d="M-25.911692257815442,295.8675112349044A297,297,0,0,1,-27.40252755995904,295.7331592556467L-23.73128499482774,256.11242865681913A257.2095449239783,257.2095449239783,0,0,0,-22.44018375031273,256.228780883905Z" fill-rule="evenodd" style="fill: #AE497E; stroke: #fff; opacity: 1;" id="p-type-tokenTransfers"></path><path d="M-27.40252755995904,295.7331592556467A297,297,0,0,1,-28.892666796973117,295.59129521242517L-25.02178342925789,255.98957079150574A257.2095449239783,257.2095449239783,0,0,0,-23.73128499482774,256.11242865681913Z" fill-rule="evenodd" style="fill: #AE497E; stroke: #fff; opacity: 1;" id="p-type-tokenTransfers"></path><path d="M-28.892666796973117,295.59129521242517A297,297,0,0,1,-30.382072117095326,295.4419227087984L-26.311646273015416,255.86021040873806A257.2095449239783,257.2095449239783,0,0,0,-25.02178342925789,255.98957079150574Z" fill-rule="evenodd" style="fill: #AE497E; stroke: #fff; opacity: 1;" id="p-type-tokenTransfers"></path><path d="M-30.382072117095326,295.4419227087984A297,297,0,0,1,-31.870705687205895,295.2850455390511L-27.60084076165749,255.7243507944631A257.2095449239783,257.2095449239783,0,0,0,-26.311646273015416,255.86021040873806Z" fill-rule="evenodd" style="fill: #AE497E; stroke: #fff; opacity: 1;" id="p-type-tokenTransfers"></path><path d="M-31.870705687205895,295.2850455390511A297,297,0,0,1,-33.35852969378866,295.12066768809774L-28.889334147718515,255.58199539971798A257.2095449239783,257.2095449239783,0,0,0,-27.60084076165749,255.7243507944631Z" fill-rule="evenodd" style="fill: #AE497E; stroke: #fff; opacity: 1;" id="p-type-tokenTransfers"></path><path d="M-33.35852969378866,295.12066768809774A297,297,0,0,1,-34.84550634389159,294.9487933313812L-30.177093701541935,255.43314784054235A257.2095449239783,257.2095449239783,0,0,0,-28.889334147718515,255.58199539971798Z" fill-rule="evenodd" style="fill: #AE497E; stroke: #fff; opacity: 1;" id="p-type-tokenTransfers"></path><path d="M-34.84550634389159,294.9487933313812A297,297,0,0,1,-36.33159786608676,294.7694268347668L-31.464086712111634,255.2778118978865A257.2095449239783,257.2095449239783,0,0,0,-30.177093701541935,255.43314784054235Z" fill-rule="evenodd" style="fill: #AE497E; stroke: #fff; opacity: 1;" id="p-type-tokenTransfers"></path><path d="M-36.33159786608676,294.7694268347668A297,297,0,0,1,-37.81676651142981,294.5825727544316L-32.75028048788284,255.11599151751543A257.2095449239783,257.2095449239783,0,0,0,-31.464086712111634,255.2778118978865Z" fill-rule="evenodd" style="fill: #AE497E; stroke: #fff; opacity: 1;" id="p-type-tokenTransfers"></path><path d="M-37.81676651142981,294.5825727544316A297,297,0,0,1,-39.30097455441887,294.38823583674827L-34.03564235761255,254.94769080990847A257.2095449239783,257.2095449239783,0,0,0,-32.75028048788284,255.11599151751543Z" fill-rule="evenodd" style="fill: #AE497E; stroke: #fff; opacity: 1;" id="p-type-tokenTransfers"></path><path d="M-39.30097455441887,294.38823583674827A297,297,0,0,1,-40.78418429395275,294.18642101816476L-35.32013967118939,254.772914050155A257.2095449239783,257.2095449239783,0,0,0,-34.03564235761255,254.94769080990847Z" fill-rule="evenodd" style="fill: #AE497E; stroke: #fff; opacity: 1;" id="p-type-tokenTransfers"></path><path d="M-40.78418429395275,294.18642101816476A297,297,0,0,1,-42.266358054288695,293.97713342507893L-36.603739800463025,254.59166567784578A257.2095449239783,257.2095449239783,0,0,0,-35.32013967118939,254.772914050155Z" fill-rule="evenodd" style="fill: #AE497E; stroke: #fff; opacity: 1;" id="p-type-tokenTransfers"></path><path d="M-42.266358054288695,293.97713342507893A297,297,0,0,1,-43.747458185999356,293.76037837370825L-37.88641014007294,254.40395029696018A257.2095449239783,257.2095449239783,0,0,0,-36.603739800463025,254.59166567784578Z" fill-rule="evenodd" style="fill: #AE497E; stroke: #fff; opacity: 1;" id="p-type-tokenTransfers"></path><path d="M-43.747458185999356,293.76037837370825A297,297,0,0,1,-45.227447066929166,293.53616136995475L-39.16811810827666,254.2097726757492A257.2095449239783,257.2095449239783,0,0,0,-37.88641014007294,254.40395029696018Z" fill-rule="evenodd" style="fill: #AE497E; stroke: #fff; opacity: 1;" id="p-type-tokenTransfers"></path><path d="M-45.227447066929166,293.53616136995475A297,297,0,0,1,-46.70628710314997,293.30448810926526L-40.44883114777737,254.00913774661456A257.2095449239783,257.2095449239783,0,0,0,-39.16811810827666,254.2097726757492Z" fill-rule="evenodd" style="fill: #AE497E; stroke: #fff; opacity: 1;" id="p-type-tokenTransfers"></path><path d="M-46.70628710314997,293.30448810926526A297,297,0,0,1,-48.183940729916,293.0653644764866L-41.728516726550964,253.802050605983A257.2095449239783,257.2095449239783,0,0,0,-40.44883114777737,254.00913774661456Z" fill-rule="evenodd" style="fill: #AE497E; stroke: #fff; opacity: 1;" id="p-type-tokenTransfers"></path><path d="M-48.183940729916,293.0653644764866A297,297,0,0,1,-49.66037041261804,292.8187965457162L-43.00714233867233,253.58851651417731A257.2095449239783,257.2095449239783,0,0,0,-41.728516726550964,253.802050605983Z" fill-rule="evenodd" style="fill: #AE497E; stroke: #fff; opacity: 1;" id="p-type-tokenTransfers"></path><path d="M-49.66037041261804,292.8187965457162A297,297,0,0,1,-51.13553864773693,292.56479058014787L-44.284675505141145,253.3685408952823A257.2095449239783,257.2095449239783,0,0,0,-43.00714233867233,253.58851651417731Z" fill-rule="evenodd" style="fill: #AE497E; stroke: #fff; opacity: 1;" id="p-type-tokenTransfers"></path><path d="M-51.13553864773693,292.56479058014787A297,297,0,0,1,-52.609407963796095,292.3033530319125L-45.56108377470678,253.14212933700733A257.2095449239783,257.2095449239783,0,0,0,-44.284675505141145,253.3685408952823Z" fill-rule="evenodd" style="fill: #AE497E; stroke: #fff; opacity: 1;" id="p-type-tokenTransfers"></path><path d="M-52.609407963796095,292.3033530319125A297,297,0,0,1,-54.081940922313485,292.03449054191424L-46.83633472469269,252.90928759054412A257.2095449239783,257.2095449239783,0,0,0,-45.56108377470678,253.14212933700733Z" fill-rule="evenodd" style="fill: #AE497E; stroke: #fff; opacity: 1;" id="p-type-tokenTransfers"></path><path d="M-54.081940922313485,292.03449054191424A297,297,0,0,1,-55.55310011875253,291.758209939662L-48.11039596182001,252.67002157042077A257.2095449239783,257.2095449239783,0,0,0,-46.83633472469269,252.90928759054412Z" fill-rule="evenodd" style="fill: #AE497E; stroke: #fff; opacity: 1;" id="p-type-tokenTransfers"></path><path d="M-55.55310011875253,291.758209939662A297,297,0,0,1,-57.022848183472256,291.4745182430956L-49.3832351230303,252.4243373543516A257.2095449239783,257.2095449239783,0,0,0,-48.11039596182001,252.67002157042077Z" fill-rule="evenodd" style="fill: #AE497E; stroke: #fff; opacity: 1;" id="p-type-tokenTransfers"></path><path d="M-57.022848183472256,291.4745182430956A297,297,0,0,1,-58.491147782676535,291.183422658408L-50.65481987630772,252.17224118308266A257.2095449239783,257.2095449239783,0,0,0,-49.3832351230303,252.4243373543516Z" fill-rule="evenodd" style="fill: #AE497E; stroke: #fff; opacity: 1;" id="p-type-tokenTransfers"></path><path d="M-58.491147782676535,291.183422658408A297,297,0,0,1,-59.95796161936244,290.8849305798619L-51.92511792150024,251.9137394602333A257.2095449239783,257.2095449239783,0,0,0,-50.65481987630772,252.17224118308266Z" fill-rule="evenodd" style="fill: #AE497E; stroke: #fff; opacity: 1;" id="p-type-tokenTransfers"></path><path d="M-59.95796161936244,290.8849305798619A297,297,0,0,1,-61.423252434267646,290.57904958960177L-53.19409699114014,251.6488387521333A257.2095449239783,257.2095449239783,0,0,0,-51.92511792150024,251.9137394602333Z" fill-rule="evenodd" style="fill: #AE497E; stroke: #fff; opacity: 1;" id="p-type-tokenTransfers"></path><path d="M-61.423252434267646,290.57904958960177A297,297,0,0,1,-62.88698300681681,290.2657874574617L-54.46172485126366,251.37754578765635A257.2095449239783,257.2095449239783,0,0,0,-53.19409699114014,251.6488387521333Z" fill-rule="evenodd" style="fill: #AE497E; stroke: #fff; opacity: 1;" id="p-type-tokenTransfers"></path><path d="M-62.88698300681681,290.2657874574617A297,297,0,0,1,-64.34911615606713,289.9451521407678L-55.72796930222978,251.09986745804892A257.2095449239783,257.2095449239783,0,0,0,-54.46172485126366,251.37754578765635Z" fill-rule="evenodd" style="fill: #AE497E; stroke: #fff; opacity: 1;" id="p-type-tokenTransfers"></path><path d="M-64.34911615606713,289.9451521407678A297,297,0,0,1,-65.8096147416527,289.61715178413596L-56.99279817953813,250.81581081675543A257.2095449239783,257.2095449239783,0,0,0,-55.72796930222978,251.09986745804892Z" fill-rule="evenodd" style="fill: #AE497E; stroke: #fff; opacity: 1;" id="p-type-tokenTransfers"></path><path d="M-65.8096147416527,289.61715178413596A297,297,0,0,1,-67.26844166472799,289.2817947192652L-58.256179354646015,250.52538307923874A257.2095449239783,257.2095449239783,0,0,0,-56.99279817953813,250.81581081675543Z" fill-rule="evenodd" style="fill: #AE497E; stroke: #fff; opacity: 1;" id="p-type-tokenTransfers"></path><path d="M-67.26844166472799,289.2817947192652A297,297,0,0,1,-68.7255598689102,288.93908946472584L-59.518080735784565,250.22859162279724A257.2095449239783,257.2095449239783,0,0,0,-58.256179354646015,250.52538307923874Z" fill-rule="evenodd" style="fill: #AE497E; stroke: #fff; opacity: 1;" id="p-type-tokenTransfers"></path><path d="M-68.7255598689102,288.93908946472584A297,297,0,0,1,-70.18093234122051,288.58904472574324L-60.778470268773866,249.92544398637722A257.2095449239783,257.2095449239783,0,0,0,-59.518080735784565,250.22859162279724Z" fill-rule="evenodd" style="fill: #AE497E; stroke: #fff; opacity: 1;" id="p-type-tokenTransfers"></path><path d="M-70.18093234122051,288.58904472574324A297,297,0,0,1,-71.63452211302436,288.2316693939766L-62.03731593783722,249.6159478703814A257.2095449239783,257.2095449239783,0,0,0,-60.778470268773866,249.92544398637722Z" fill-rule="evenodd" style="fill: #AE497E; stroke: #fff; opacity: 1;" id="p-type-tokenTransfers"></path><path d="M-71.63452211302436,288.2316693939766A297,297,0,0,1,-73.08629226097037,287.86697254729313L-63.294585766414365,249.30011113647348A257.2095449239783,257.2095449239783,0,0,0,-62.03731593783722,249.6159478703814Z" fill-rule="evenodd" style="fill: #AE497E; stroke: #fff; opacity: 1;" id="p-type-tokenTransfers"></path><path d="M-73.08629226097037,287.86697254729313A297,297,0,0,1,-74.53620590792839,287.49496344953747L-64.55024781797374,248.97794180737813A257.2095449239783,257.2095449239783,0,0,0,-63.294585766414365,249.30011113647348Z" fill-rule="evenodd" style="fill: #AE497E; stroke: #fff; opacity: 1;" id="p-type-tokenTransfers"></path><path d="M-74.53620590792839,287.49496344953747A297,297,0,0,1,-75.98422622392611,287.1156515502964L-65.80427019682375,248.64944806667762A257.2095449239783,257.2095449239783,0,0,0,-64.55024781797374,248.97794180737813Z" fill-rule="evenodd" style="fill: #AE497E; stroke: #fff; opacity: 1;" id="p-type-tokenTransfers"></path><path d="M-75.98422622392611,287.1156515502964A297,297,0,0,1,-77.43031642708472,286.7290464846586L-67.0566210489229,248.3146382586036A257.2095449239783,257.2095449239783,0,0,0,-65.80427019682375,248.64944806667762Z" fill-rule="evenodd" style="fill: #AE497E; stroke: #fff; opacity: 1;" id="p-type-tokenTransfers"></path><path d="M-77.43031642708472,286.7290464846586A297,297,0,0,1,-78.87443978455308,286.33515807297033L-68.30726856268898,247.9735208878252A257.2095449239783,257.2095449239783,0,0,0,-67.0566210489229,248.3146382586036Z" fill-rule="evenodd" style="fill: #AE497E; stroke: #fff; opacity: 1;" id="p-type-tokenTransfers"></path><path d="M-78.87443978455308,286.33515807297033A297,297,0,0,1,-80.31655961344094,285.9339963205855L-69.55618096980714,247.62610461923325A257.2095449239783,257.2095449239783,0,0,0,-68.30726856268898,247.9735208878252Z" fill-rule="evenodd" style="fill: #AE497E; stroke: #fff; opacity: 1;" id="p-type-tokenTransfers"></path><path d="M-80.31655961344094,285.9339963205855A297,297,0,0,1,-81.75663928175064,285.52557141761173L-70.8033265460368,247.2723982777198A257.2095449239783,257.2095449239783,0,0,0,-69.55618096980714,247.62610461923325Z" fill-rule="evenodd" style="fill: #AE497E; stroke: #fff; opacity: 1;" id="p-type-tokenTransfers"></path><path d="M-81.75663928175064,285.52557141761173A297,297,0,0,1,-83.19464220930764,285.10989373865175L-72.04867361201755,246.91241084795428A257.2095449239783,257.2095449239783,0,0,0,-70.8033265460368,247.2723982777198Z" fill-rule="evenodd" style="fill: #AE497E; stroke: #fff; opacity: 1;" id="p-type-tokenTransfers"></path><path d="M-83.19464220930764,285.10989373865175A297,297,0,0,1,-84.6305318686897,284.6869738425394L-73.2921905340738,246.5461514741551A257.2095449239783,257.2095449239783,0,0,0,-72.04867361201755,246.91241084795428Z" fill-rule="evenodd" style="fill: #AE497E; stroke: #fff; opacity: 1;" id="p-type-tokenTransfers"></path><path d="M-84.6305318686897,284.6869738425394A297,297,0,0,1,-86.0642717861548,284.2568224720717L-74.53384572501838,246.17362945985738A257.2095449239783,257.2095449239783,0,0,0,-73.2921905340738,246.5461514741551Z" fill-rule="evenodd" style="fill: #AE497E; stroke: #fff; opacity: 1;" id="p-type-tokenTransfers"></path><path d="M-86.0642717861548,284.2568224720717A297,297,0,0,1,-87.49582554256754,283.819450553736L-75.77360764495486,245.79485426767673A257.2095449239783,257.2095449239783,0,0,0,-74.53384572501838,246.17362945985738Z" fill-rule="evenodd" style="fill: #AE497E; stroke: #fff; opacity: 1;" id="p-type-tokenTransfers"></path><path d="M-87.49582554256754,283.819450553736A297,297,0,0,1,-88.92515677432428,283.37486919743225L-77.01144480207869,245.40983551906876A257.2095449239783,257.2095449239783,0,0,0,-75.77360764495486,245.79485426767673Z" fill-rule="evenodd" style="fill: #AE497E; stroke: #fff; opacity: 1;" id="p-type-tokenTransfers"></path><path d="M-88.92515677432428,283.37486919743225A297,297,0,0,1,-90.3522291742768,282.923089696191L-78.2473257534772,245.01858299408482A257.2095449239783,257.2095449239783,0,0,0,-77.01144480207869,245.40983551906876Z" fill-rule="evenodd" style="fill: #AE497E; stroke: #fff; opacity: 1;" id="p-type-tokenTransfers"></path><path d="M-90.3522291742768,282.923089696191A297,297,0,0,1,-91.77700649265465,282.46412352588646L-79.48121910592829,244.62110663112335A257.2095449239783,257.2095449239783,0,0,0,-78.2473257534772,245.01858299408482Z" fill-rule="evenodd" style="fill: #AE497E; stroke: #fff; opacity: 1;" id="p-type-tokenTransfers"></path><path d="M-91.77700649265465,282.46412352588646A297,297,0,0,1,-93.1994525379858,281.99798234494466L-80.71309351669778,244.2174165266777A257.2095449239783,257.2095449239783,0,0,0,-79.48121910592829,244.62110663112335Z" fill-rule="evenodd" style="fill: #AE497E; stroke: #fff; opacity: 1;" id="p-type-tokenTransfers"></path><path d="M-93.1994525379858,281.99798234494466A297,297,0,0,1,-94.61953117801613,281.52467799404803L-81.9429176943357,243.80752293507953A257.2095449239783,257.2095449239783,0,0,0,-80.71309351669778,244.2174165266777Z" fill-rule="evenodd" style="fill: #AE497E; stroke: #fff; opacity: 1;" id="p-type-tokenTransfers"></path><path d="M-94.61953117801613,281.52467799404803A297,297,0,0,1,-96.03720634062707,281.04422249583394L-83.170660399471,243.39143626823824A257.2095449239783,257.2095449239783,0,0,0,-81.9429176943357,243.80752293507953Z" fill-rule="evenodd" style="fill: #AE497E; stroke: #fff; opacity: 1;" id="p-type-tokenTransfers"></path><path d="M-96.03720634062707,281.04422249583394A297,297,0,0,1,-97.45244201475197,280.55662805458974L-84.39629044560517,242.96916709537666A257.2095449239783,257.2095449239783,0,0,0,-83.170660399471,243.39143626823824Z" fill-rule="evenodd" style="fill: #AE497E; stroke: #fff; opacity: 1;" id="p-type-tokenTransfers"></path><path d="M-97.45244201475197,280.55662805458974A297,297,0,0,1,-98.86520225129088,280.06190705594247L-85.61977669990438,242.54072614276248A257.2095449239783,257.2095449239783,0,0,0,-84.39629044560517,242.96916709537666Z" fill-rule="evenodd" style="fill: #AE497E; stroke: #fff; opacity: 1;" id="p-type-tokenTransfers"></path><path d="M-98.86520225129088,280.06190705594247A297,297,0,0,1,-100.27545116402365,279.5600720665444L-86.84108808399034,242.1061242934359A257.2095449239783,257.2095449239783,0,0,0,-85.61977669990438,242.54072614276248Z" fill-rule="evenodd" style="fill: #AE497E; stroke: #fff; opacity: 1;" id="p-type-tokenTransfers"></path><path d="M-100.27545116402365,279.5600720665444A297,297,0,0,1,-101.68315293052147,279.05113583375396L-88.06019357472968,241.665372586933A257.2095449239783,257.2095449239783,0,0,0,-86.84108808399034,242.1061242934359Z" fill-rule="evenodd" style="fill: #AE497E; stroke: #fff; opacity: 1;" id="p-type-tokenTransfers"></path><path d="M-101.68315293052147,279.05113583375396A297,297,0,0,1,-103.08827179305688,278.5351112853115L-89.27706220502203,241.2184822190054A257.2095449239783,257.2095449239783,0,0,0,-88.06019357472968,241.665372586933Z" fill-rule="evenodd" style="fill: #AE497E; stroke: #fff; opacity: 1;" id="p-type-tokenTransfers"></path><path d="M-103.08827179305688,278.5351112853115A297,297,0,0,1,-104.49077205951203,278.0120115290113L-90.49166306458665,240.76546454133603A257.2095449239783,257.2095449239783,0,0,0,-89.27706220502203,241.2184822190054Z" fill-rule="evenodd" style="fill: #AE497E; stroke: #fff; opacity: 1;" id="p-type-tokenTransfers"></path><path d="M-104.49077205951203,278.0120115290113A297,297,0,0,1,-105.89061810428531,277.48184985236855L-91.70396530074748,240.30633106125046A257.2095449239783,257.2095449239783,0,0,0,-90.49166306458665,240.76546454133603Z" fill-rule="evenodd" style="fill: #AE497E; stroke: #fff; opacity: 1;" id="p-type-tokenTransfers"></path><path d="M-105.89061810428531,277.48184985236855A297,297,0,0,1,-107.28777436919634,276.9446397222817L-92.91393811921702,239.8410934414249A257.2095449239783,257.2095449239783,0,0,0,-91.70396530074748,240.30633106125046Z" fill-rule="evenodd" style="fill: #AE497E; stroke: #fff; opacity: 1;" id="p-type-tokenTransfers"></path><path d="M-107.28777436919634,276.9446397222817A297,297,0,0,1,-108.68220536438912,276.4003947846905L-94.12155078487838,239.36976349958982A257.2095449239783,257.2095449239783,0,0,0,-92.91393811921702,239.8410934414249Z" fill-rule="evenodd" style="fill: #AE497E; stroke: #fff; opacity: 1;" id="p-type-tokenTransfers"></path><path d="M-108.68220536438912,276.4003947846905A297,297,0,0,1,-110.07387566923363,275.84912886422916L-95.32677262256615,238.89235320822968A257.2095449239783,257.2095449239783,0,0,0,-94.12155078487838,239.36976349958982Z" fill-rule="evenodd" style="fill: #AE497E; stroke: #fff; opacity: 1;" id="p-type-tokenTransfers"></path><path d="M-110.07387566923363,275.84912886422916A297,297,0,0,1,-111.46274993322544,275.2908559638755L-96.52957301784548,238.40887469427906A257.2095449239783,257.2095449239783,0,0,0,-95.32677262256615,238.89235320822968Z" fill-rule="evenodd" style="fill: #AE497E; stroke: #fff; opacity: 1;" id="p-type-tokenTransfers"></path><path d="M-111.46274993322544,275.2908559638755A297,297,0,0,1,-112.84879287688378,274.7255902645951L-97.72992141778975,237.91934023881421A257.2095449239783,257.2095449239783,0,0,0,-96.52957301784548,238.40887469427906Z" fill-rule="evenodd" style="fill: #AE497E; stroke: #fff; opacity: 1;" id="p-type-tokenTransfers"></path><path d="M-112.84879287688378,274.7255902645951A297,297,0,0,1,-114.23196929264763,274.15334612498094L-98.92778733175676,237.4237622767416A257.2095449239783,257.2095449239783,0,0,0,-97.72992141778975,237.91934023881421Z" fill-rule="evenodd" style="fill: #AE497E; stroke: #fff; opacity: 1;" id="p-type-tokenTransfers"></path><path d="M-114.23196929264763,274.15334612498094A297,297,0,0,1,-115.61224404577007,273.574138080889L-100.12314033216309,236.92215339648166A257.2095449239783,257.2095449239783,0,0,0,-98.92778733175676,237.4237622767416Z" fill-rule="evenodd" style="fill: #AE497E; stroke: #fff; opacity: 1;" id="p-type-tokenTransfers"></path><path d="M-115.61224404577007,273.574138080889A297,297,0,0,1,-116.98958207521072,272.9879808450686L-101.31595005525709,236.41452633964914A257.2095449239783,257.2095449239783,0,0,0,-100.12314033216309,236.92215339648166Z" fill-rule="evenodd" style="fill: #AE497E; stroke: #fff; opacity: 1;" id="p-type-tokenTransfers"></path><path d="M-116.98958207521072,272.9879808450686A297,297,0,0,1,-118.3639483945264,272.39488930678914L-102.50618620189019,235.90089400072952A257.2095449239783,257.2095449239783,0,0,0,-101.31595005525709,236.41452633964914Z" fill-rule="evenodd" style="fill: #AE497E; stroke: #fff; opacity: 1;" id="p-type-tokenTransfers"></path><path d="M-118.3639483945264,272.39488930678914A297,297,0,0,1,-119.7353080927598,271.79487853146145L-103.69381853828646,235.38126942675137A257.2095449239783,257.2095449239783,0,0,0,-102.50618620189019,235.90089400072952Z" fill-rule="evenodd" style="fill: #AE497E; stroke: #fff; opacity: 1;" id="p-type-tokenTransfers"></path><path d="M-119.7353080927598,271.79487853146145A297,297,0,0,1,-121.10362633532624,271.18796376025557L-104.87881689681069,234.85566581695505A257.2095449239783,257.2095449239783,0,0,0,-103.69381853828646,235.38126942675137Z" fill-rule="evenodd" style="fill: #AE497E; stroke: #fff; opacity: 1;" id="p-type-tokenTransfers"></path><path d="M-121.10362633532624,271.18796376025557A297,297,0,0,1,-122.4688683648986,270.57416040971304L-106.06115117673457,234.32409652245724A257.2095449239783,257.2095449239783,0,0,0,-104.87881689681069,234.85566581695505Z" fill-rule="evenodd" style="fill: #AE497E; stroke: #fff; opacity: 1;" id="p-type-tokenTransfers"></path><path d="M-122.4688683648986,270.57416040971304A297,297,0,0,1,-123.83099950229015,269.95348407135594L-107.24079134500145,233.78657504591206A257.2095449239783,257.2095449239783,0,0,0,-106.06115117673457,234.32409652245724Z" fill-rule="evenodd" style="fill: #AE497E; stroke: #fff; opacity: 1;" id="p-type-tokenTransfers"></path><path d="M-123.83099950229015,269.95348407135594A297,297,0,0,1,-125.18998514733549,269.32595051129016L-108.4177074369891,233.2431150411678A257.2095449239783,257.2095449239783,0,0,0,-107.24079134500145,233.78657504591206Z" fill-rule="evenodd" style="fill: #AE497E; stroke: #fff; opacity: 1;" id="p-type-tokenTransfers"></path><path d="M-125.18998514733549,269.32595051129016A297,297,0,0,1,-126.54579077976936,268.6915756698055L-109.59186955727085,232.6937303129204A257.2095449239783,257.2095449239783,0,0,0,-108.4177074369891,233.2431150411678Z" fill-rule="evenodd" style="fill: #AE497E; stroke: #fff; opacity: 1;" id="p-type-tokenTransfers"></path><path d="M-126.54579077976936,268.6915756698055A297,297,0,0,1,-127.89838196010363,268.0503756609706L-110.76324788037512,232.13843481636252A257.2095449239783,257.2095449239783,0,0,0,-109.59186955727085,232.6937303129204Z" fill-rule="evenodd" style="fill: #AE497E; stroke: #fff; opacity: 1;" id="p-type-tokenTransfers"></path><path d="M-127.89838196010363,268.0503756609706A297,297,0,0,1,-129.24772433050205,267.40236677222316L-111.93181265154286,231.57724265682913A257.2095449239783,257.2095449239783,0,0,0,-110.76324788037512,232.13843481636252Z" fill-rule="evenodd" style="fill: #AE497E; stroke: #fff; opacity: 1;" id="p-type-tokenTransfers"></path><path d="M-129.24772433050205,267.40236677222316A297,297,0,0,1,-130.59378361565294,266.74756546395696L-113.09753418748346,231.01016808943933A257.2095449239783,257.2095449239783,0,0,0,-111.93181265154286,231.57724265682913Z" fill-rule="evenodd" style="fill: #AE497E; stroke: #fff; opacity: 1;" id="p-type-tokenTransfers"></path><path d="M-130.59378361565294,266.74756546395696A297,297,0,0,1,-131.93652562364,266.08598836910335L-114.26038287712875,230.43722551873415A257.2095449239783,257.2095449239783,0,0,0,-113.09753418748346,231.01016808943933Z" fill-rule="evenodd" style="fill: #AE497E; stroke: #fff; opacity: 1;" id="p-type-tokenTransfers"></path><path d="M-131.93652562364,266.08598836910335A297,297,0,0,1,-133.27591624681057,265.41765229270857L-115.42032918238516,229.85842949831067A257.2095449239783,257.2095449239783,0,0,0,-114.26038287712875,230.43722551873415Z" fill-rule="evenodd" style="fill: #AE497E; stroke: #fff; opacity: 1;" id="p-type-tokenTransfers"></path><path d="M-133.27591624681057,265.41765229270857A297,297,0,0,1,-134.61192146264233,264.74257421150725L-116.57734363888396,229.27379473045227A257.2095449239783,257.2095449239783,0,0,0,-115.42032918238516,229.85842949831067Z" fill-rule="evenodd" style="fill: #AE497E; stroke: #fff; opacity: 1;" id="p-type-tokenTransfers"></path><path d="M-134.61192146264233,264.74257421150725A297,297,0,0,1,-135.94450733460724,264.060771273491L-117.7313968567298,228.68333606575536A257.2095449239783,257.2095449239783,0,0,0,-116.57734363888396,229.27379473045227Z" fill-rule="evenodd" style="fill: #AE497E; stroke: #fff; opacity: 1;" id="p-type-tokenTransfers"></path><path d="M-135.94450733460724,264.060771273491A297,297,0,0,1,-137.27364001303374,263.3722607974728L-118.88245952124721,228.08706850275183A257.2095449239783,257.2095449239783,0,0,0,-117.7313968567298,228.68333606575536Z" fill-rule="evenodd" style="fill: #AE497E; stroke: #fff; opacity: 1;" id="p-type-tokenTransfers"></path><path d="M-137.27364001303374,263.3722607974728A297,297,0,0,1,-138.5992857359666,262.6770602726471L-120.03050239372526,227.48500718752857A257.2095449239783,257.2095449239783,0,0,0,-118.88245952124721,228.08706850275183Z" fill-rule="evenodd" style="fill: #AE497E; stroke: #fff; opacity: 1;" id="p-type-tokenTransfers"></path><path d="M-138.5992857359666,262.6770602726471A297,297,0,0,1,-139.92141083002437,261.97518735814566L-121.17549631216019,226.87716741334208A257.2095449239783,257.2095449239783,0,0,0,-120.03050239372526,227.48500718752857Z" fill-rule="evenodd" style="fill: #AE497E; stroke: #fff; opacity: 1;" id="p-type-tokenTransfers"></path><path d="M-139.92141083002437,261.97518735814566A297,297,0,0,1,-141.23998171125493,261.26665988258884L-122.3174121919963,226.26356462023062A257.2095449239783,257.2095449239783,0,0,0,-121.17549631216019,226.87716741334208Z" fill-rule="evenodd" style="fill: #AE497E; stroke: #fff; opacity: 1;" id="p-type-tokenTransfers"></path><path d="M-141.23998171125493,261.26665988258884A297,297,0,0,1,-142.55496488598843,260.55149584363284L-123.4562210268646,225.6442143946216A257.2095449239783,257.2095449239783,0,0,0,-122.3174121919963,226.26356462023062Z" fill-rule="evenodd" style="fill: #AE497E; stroke: #fff; opacity: 1;" id="p-type-tokenTransfers"></path><path d="M-142.55496488598843,260.55149584363284A297,297,0,0,1,-143.86632695168805,259.8297134075123L-124.59189388931972,225.01913246893585A257.2095449239783,257.2095449239783,0,0,0,-123.4562210268646,225.6442143946216Z" fill-rule="evenodd" style="fill: #AE497E; stroke: #fff; opacity: 1;" id="p-type-tokenTransfers"></path><path d="M-143.86632695168805,259.8297134075123A297,297,0,0,1,-145.17403459779868,259.10133090857937L-125.72440193157469,224.3883347211879A257.2095449239783,257.2095449239783,0,0,0,-124.59189388931972,225.01913246893585Z" fill-rule="evenodd" style="fill: #AE497E; stroke: #fff; opacity: 1;" id="p-type-tokenTransfers"></path><path d="M-145.17403459779868,259.10133090857937A297,297,0,0,1,-146.47805460659288,258.36636684883734L-126.85371638623366,223.7518371745828A257.2095449239783,257.2095449239783,0,0,0,-125.72440193157469,224.3883347211879Z" fill-rule="evenodd" style="fill: #AE497E; stroke: #fff; opacity: 1;" id="p-type-tokenTransfers"></path><path d="M-146.47805460659288,258.36636684883734A297,297,0,0,1,-147.77835385401465,257.62483989747113L-127.97980856702269,223.10965599710883A257.2095449239783,257.2095449239783,0,0,0,-126.85371638623366,223.7518371745828Z" fill-rule="evenodd" style="fill: #AE497E; stroke: #fff; opacity: 1;" id="p-type-tokenTransfers"></path><path d="M-147.77835385401465,257.62483989747113A297,297,0,0,1,-149.07489931052092,256.8767688903729L-129.10264986951842,222.4618075011271A257.2095449239783,257.2095449239783,0,0,0,-127.97980856702269,223.10965599710883Z" fill-rule="evenodd" style="fill: #AE497E; stroke: #fff; opacity: 1;" id="p-type-tokenTransfers"></path><path d="M-149.07489931052092,256.8767688903729A297,297,0,0,1,-150.36765804192055,256.12217282966355L-130.22221177187464,221.80830814295715A257.2095449239783,257.2095449239783,0,0,0,-129.10264986951842,222.4618075011271Z" fill-rule="evenodd" style="fill: #AE497E; stroke: #fff; opacity: 1;" id="p-type-tokenTransfers"></path><path d="M-150.36765804192055,256.12217282966355A297,297,0,0,1,-151.65659721021083,255.36107088321015L-131.33846583554683,221.14917452245874A257.2095449239783,257.2095449239783,0,0,0,-130.22221177187464,221.80830814295715Z" fill-rule="evenodd" style="fill: #AE497E; stroke: #fff; opacity: 1;" id="p-type-tokenTransfers"></path><path d="M-151.65659721021083,255.36107088321015A297,297,0,0,1,-152.9416840744117,254.5934823841389L-132.45138370601444,220.48442338261026A257.2095449239783,257.2095449239783,0,0,0,-131.33846583554683,221.14917452245874Z" fill-rule="evenodd" style="fill: #AE497E; stroke: #fff; opacity: 1;" id="p-type-tokenTransfers"></path><path d="M-152.9416840744117,254.5934823841389A297,297,0,0,1,-154.22288599139733,253.8194268303442L-133.56093711350132,219.8140716090836A257.2095449239783,257.2095449239783,0,0,0,-132.45138370601444,220.48442338261026Z" fill-rule="evenodd" style="fill: #AE497E; stroke: #fff; opacity: 1;" id="p-type-tokenTransfers"></path><path d="M-154.22288599139733,253.8194268303442A297,297,0,0,1,-155.5001704167254,253.0389238839933L-134.66709787369365,219.13813622981513A257.2095449239783,257.2095449239783,0,0,0,-133.56093711350132,219.8140716090836Z" fill-rule="evenodd" style="fill: #AE497E; stroke: #fff; opacity: 1;" id="p-type-tokenTransfers"></path><path d="M-155.5001704167254,253.0389238839933A297,297,0,0,1,-156.77350490546368,252.25199337102683L-135.76983788845587,218.45663441457305A257.2095449239783,257.2095449239783,0,0,0,-134.66709787369365,219.13813622981513Z" fill-rule="evenodd" style="fill: #AE497E; stroke: #fff; opacity: 1;" id="p-type-tokenTransfers"></path><path d="M-156.77350490546368,252.25199337102683A297,297,0,0,1,-158.04285711301424,251.45865528065517L-136.86912914654448,217.76958347452137A257.2095449239783,257.2095449239783,0,0,0,-135.76983788845587,218.45663441457305Z" fill-rule="evenodd" style="fill: #AE497E; stroke: #fff; opacity: 1;" id="p-type-tokenTransfers"></path><path d="M-158.04285711301424,251.45865528065517A297,297,0,0,1,-159.30819479593507,250.6589297648508L-137.96494372431968,217.07700086178016A257.2095449239783,257.2095449239783,0,0,0,-136.86912914654448,217.76958347452137Z" fill-rule="evenodd" style="fill: #AE497E; stroke: #fff; opacity: 1;" id="p-type-tokenTransfers"></path><path d="M-159.30819479593507,250.6589297648508A297,297,0,0,1,-160.5694858127591,249.85283713783633L-139.0572537864544,216.3789041689823A257.2095449239783,257.2095449239783,0,0,0,-137.96494372431968,217.07700086178016Z" fill-rule="evenodd" style="fill: #AE497E; stroke: #fff; opacity: 1;" id="p-type-tokenTransfers"></path><path d="M-160.5694858127591,249.85283713783633A297,297,0,0,1,-161.82669812481052,249.0403978755685L-140.1460315866415,215.67531112882645A257.2095449239783,257.2095449239783,0,0,0,-139.0572537864544,216.3789041689823Z" fill-rule="evenodd" style="fill: #AE497E; stroke: #fff; opacity: 1;" id="p-type-tokenTransfers"></path></g></svg>