<svg xmlns="http://www.w3.org/2000/svg" width="600" height="600" id="block-7913351"><g id="burst-container" transform="translate(300,300)"><data type="text/json">{"number":7913351,"totalTransactions":153,"totalFunctions":213,"totalFunctionsValue":"15.02012870695844156","totalLogs":103,"totalTokenTransfers":103,"tokens":{"0x0df721639ca2f7ff0e1f618b918a65ffb199ac4e":"116937","0xb8c77482e45f1f44de1745f52c74426c631bdd52":"2345","0x0000000000085d4780b73119b644ae5ecd22b376":"506.587802924380993743","0x5b2e4a700dfbc560061e957edec8f6eeeb74a320":"5.7e-8","0xd26114cd6ee289accf82350c8d8487fedb8a0c07":"2","0x4156d3342d5c385a87d264f90653733592000581":"6.938e-8","0x1d4abd5e28ef311ea114fd4756fbcf9b7d568e1f":"6.3e-12","0xcde3ef6cacf84ad36d8a6eccc964f25351296d36":"1e-8","0x174bfa6600bf90c885c7c01c7031389ed1461ab9":"3.43400432","0xdac17f958d2ee523a2206206994597c13d831ec7":"4.307508e-11","0x931abd3732f7eada74190c8f89b46f8ba7103d54":"1588","0x93f1bf08e8377fc75d04dd2b930e1982f2ec507b":"284.05","0x8e766f57f7d16ca50b4a0b90b88f6468a09b0439":"371.2835","0x0707681f344deb24184037fc0228856f2137b02e":"8024","0x60c68a87be1e8a84144b543aacfa77199cd3d024":"80","0x0d8775f648430679a709e98d2b0cb6250d2887ef":"10","0x06012c8cf97bead5deae237070f9587f8e7a266d":"1.613964e-12","0x386cabc0b14a507a4e024dea15554342865b20de":"309917","0x5ca9a71b1d01849c0a95490cc00559717fcf0d1d":"31000","0x89d24a6b4ccb1b6faa2625fe562bdd9a23260359":"9472.614284873056","0x7bae88aed0510bf802fcc63afcac56e1fc513779":"470","0xba50933c268f567bdc86e1ac131be072c6b0b71a":"7454","0x85e076361cc813a908ff672f9bad1541474402b2":"1.25e-14","0xa0b86991c6218b36c1d19d4a2e9eb0ce3606eb48":"1e-12","0x7eb9a0ab72b6fdfbc483d9edd7f51cd86c586573":"10000","0x595832f8fc6bf59c85c527fec3740a1b7a361269":"5.77592143e-10","0xd0352a019e9ab9d757776f532377aaebd36fd541":"3130.569","0xbc86727e770de68b1060c91f6bb6945c73e10388":"20000","0x048fe49be32adfc9ed68c37d32b5ec9df17b3603":"649.148","0x369a07e09461f6eb506fa581508674281c11ccd0":"2","0xdb25f211ab05b1c97d595516f45794528a807ad8":"0","0xf629cbd94d3791c9250152bd8dfbdf380e2a3b9c":"758","0xcafe27178308351a12fffffdeb161d9d730da082":"1000","0x05f4a42e251f2d52b8ed15e9fedaacfcef1fad27":"0.005"},"totalEther":"74.872784709869272772","totalEtherTxns":55,"newContracts":["0x5ee68091381efd08aa301b7fcdc298fcfa732049","0xb648f01749e6eaf09c27161420edbd5d3aa397d3","0x25e1502b1fc793daeb6970d307811ee6b8173a7b"],"totalNewContracts":3}</data><circle r="297" style="fill: #f9f9f9; stroke: #f9f9f9; stroke-width: 3; opacity: 1;" id="circle-base"></circle><path display="none" d="M9.093002483669097e-15,-148.5A148.5,148.5,0,1,1,-9.093002483669097e-15,148.5A148.5,148.5,0,1,1,9.093002483669097e-15,-148.5Z" fill-rule="evenodd" id="p-type-root" style="stroke: #fff; opacity: 1;"></path><path d="M1.2859447435097075e-14,-210.0107140124046A210.0107140124046,210.0107140124046,0,1,1,-157.22213917882567,-139.23253553689943L-111.17284076600282,-98.45227003993855A148.5,148.5,0,1,0,9.093002483669097e-15,-148.5Z" fill-rule="evenodd" style="fill: #4E4E4E; stroke: #fff; opacity: 1;" id="p-type-data"></path><path d="M-157.22213917882567,-139.23253553689943A210.0107140124046,210.0107140124046,0,0,1,-2.712449633841748,-209.99319659689897L-1.9179915297164678,-148.4876133167071A148.5,148.5,0,0,0,-111.17284076600282,-98.45227003993855Z" fill-rule="evenodd" style="fill: #3A86AD; stroke: #fff; opacity: 1;" id="p-type-value"></path><path d="M1.5749542295064867e-14,-257.2095449239783A257.2095449239783,257.2095449239783,0,0,1,256.13149902321857,-23.52456605591275L209.13049322035113,-19.2077277524612A210.0107140124046,210.0107140124046,0,0,0,1.2859447435097075e-14,-210.0107140124046Z" fill-rule="evenodd" style="fill: #6B0E12; stroke: #fff; opacity: 1;" id="p-type-functions"></path><path d="M256.13149902321857,-23.52456605591275A257.2095449239783,257.2095449239783,0,0,1,114.46077058302674,230.3377563438954L93.45682783139416,188.0699905133542A210.0107140124046,210.0107140124046,0,0,0,209.13049322035113,-19.2077277524612Z" fill-rule="evenodd" style="fill: #184B42; stroke: #fff; opacity: 1;" id="p-type-logs"></path><path d="M114.46077058302674,230.3377563438954A257.2095449239783,257.2095449239783,0,0,1,-116.20588441332035,229.46228977267273L-94.88170730715859,187.3551750512344A210.0107140124046,210.0107140124046,0,0,0,93.45682783139416,188.0699905133542Z" fill-rule="evenodd" style="fill: #AE497E; stroke: #fff; opacity: 1;" id="p-type-tokenTransfers"></path><path d="M-116.20588441332035,229.46228977267273A257.2095449239783,257.2095449239783,0,0,1,-248.34558693761568,66.94191100208586L-202.7733226230525,54.65784145397122A210.0107140124046,210.0107140124046,0,0,0,-94.88170730715859,187.3551750512344Z" fill-rule="evenodd" style="fill: #F09B24; stroke: #fff; opacity: 1;" id="p-type-ether"></path><path d="M-192.55700862848138,-170.52433382966476A257.2095449239783,257.2095449239783,0,0,1,-95.6492461535104,-238.7634220525941L-78.09728245265569,-194.9495177565467A210.0107140124046,210.0107140124046,0,0,0,-157.22213917882567,-139.23253553689943Z" fill-rule="evenodd" style="fill: #AE497E; stroke: #fff; opacity: 1;" id="p-type-tokenTransfers"></path><path d="M-95.6492461535104,-238.7634220525941A257.2095449239783,257.2095449239783,0,0,1,-6.643563356719882,-257.12373104387945L-5.4244467659385105,-209.94064727270776A210.0107140124046,210.0107140124046,0,0,0,-78.09728245265569,-194.9495177565467Z" fill-rule="evenodd" style="fill: #F09B24; stroke: #fff; opacity: 1;" id="p-type-ether"></path><path d="M1.8186004967338195e-14,-297A297,297,0,0,1,9.29351990499517,-296.85456117057635L8.04842432830216,-257.08359120300076A257.2095449239783,257.2095449239783,0,0,0,1.5749542295064867e-14,-257.2095449239783Z" fill-rule="evenodd" style="fill: #6B0E12; stroke: #fff; opacity: 1;" id="p-type-functions"></path><path d="M9.29351990499517,-296.85456117057635A297,297,0,0,1,15.115994475021582,-296.615081732253L13.09083521883391,-256.87619592572867A257.2095449239783,257.2095449239783,0,0,0,8.04842432830216,-257.08359120300076Z" fill-rule="evenodd" style="fill: #6B0E12; stroke: #fff; opacity: 1;" id="p-type-functions"></path><path d="M15.115994475021582,-296.615081732253A297,297,0,0,1,19.008559104263878,-296.3910840102646L16.461895073630494,-256.6822082080969A257.2095449239783,257.2095449239783,0,0,0,13.09083521883391,-256.87619592572867Z" fill-rule="evenodd" style="fill: #6B0E12; stroke: #fff; opacity: 1;" id="p-type-functions"></path><path d="M19.008559104263878,-296.3910840102646A297,297,0,0,1,21.206231297134394,-296.2419547501205L18.365135021847014,-256.55305848036454A257.2095449239783,257.2095449239783,0,0,0,16.461895073630494,-256.6822082080969Z" fill-rule="evenodd" style="fill: #6B0E12; stroke: #fff; opacity: 1;" id="p-type-functions"></path><path d="M21.206231297134394,-296.2419547501205A297,297,0,0,1,23.118925135455118,-296.09882691523995L20.021576475494726,-256.42910613936925A257.2095449239783,257.2095449239783,0,0,0,18.365135021847014,-256.55305848036454Z" fill-rule="evenodd" style="fill: #6B0E12; stroke: #fff; opacity: 1;" id="p-type-functions"></path><path d="M23.118925135455118,-296.09882691523995A297,297,0,0,1,25.030654765730013,-295.9433498526345L21.67718290048022,-256.2944590534472A257.2095449239783,257.2095449239783,0,0,0,20.021576475494726,-256.42910613936925Z" fill-rule="evenodd" style="fill: #6B0E12; stroke: #fff; opacity: 1;" id="p-type-functions"></path><path d="M25.030654765730013,-295.9433498526345A297,297,0,0,1,26.9413404565236,-295.77553004669886L23.331885247354887,-256.1491228382488A257.2095449239783,257.2095449239783,0,0,0,21.67718290048022,-256.2944590534472Z" fill-rule="evenodd" style="fill: #6B0E12; stroke: #fff; opacity: 1;" id="p-type-functions"></path><path d="M26.9413404565236,-295.77553004669886A297,297,0,0,1,28.85090251993914,-295.5953744965996L24.985614504375775,-255.99310355523005A257.2095449239783,257.2095449239783,0,0,0,23.331885247354887,-256.1491228382488Z" fill-rule="evenodd" style="fill: #6B0E12; stroke: #fff; opacity: 1;" id="p-type-functions"></path><path d="M28.85090251993914,-295.5953744965996A297,297,0,0,1,30.759261314942652,-295.4028907159831L26.638301700384275,-255.8264077113997A257.2095449239783,257.2095449239783,0,0,0,24.985614504375775,-255.99310355523005Z" fill-rule="evenodd" style="fill: #6B0E12; stroke: #fff; opacity: 1;" id="p-type-functions"></path><path d="M30.759261314942652,-295.4028907159831A297,297,0,0,1,32.66633725068392,-295.1980867326626L28.289877907682193,-255.64904225904786A257.2095449239783,257.2095449239783,0,0,0,26.638301700384275,-255.8264077113997Z" fill-rule="evenodd" style="fill: #6B0E12; stroke: #fff; opacity: 1;" id="p-type-functions"></path><path d="M32.66633725068392,-295.1980867326626A297,297,0,0,1,34.572050789816494,-294.98097108828284L29.940274244906952,-255.46101459545596A257.2095449239783,257.2095449239783,0,0,0,28.289877907682193,-255.64904225904786Z" fill-rule="evenodd" style="fill: #6B0E12; stroke: #fff; opacity: 1;" id="p-type-functions"></path><path d="M34.572050789816494,-294.98097108828284A297,297,0,0,1,36.476322451814376,-294.7515528379643L31.589421879903934,-255.26233256258834A257.2095449239783,257.2095449239783,0,0,0,29.940274244906952,-255.46101459545596Z" fill-rule="evenodd" style="fill: #6B0E12; stroke: #fff; opacity: 1;" id="p-type-functions"></path><path d="M36.476322451814376,-294.7515528379643A297,297,0,0,1,38.37907281628739,-294.50984154992534L33.23725203259766,-255.05300444676513A257.2095449239783,257.2095449239783,0,0,0,31.589421879903934,-255.26233256258834Z" fill-rule="evenodd" style="fill: #6B0E12; stroke: #fff; opacity: 1;" id="p-type-functions"></path><path d="M38.37907281628739,-294.50984154992534A297,297,0,0,1,40.280222526292995,-294.25584730508297L34.88369597785993,-254.8330389783166A257.2095449239783,257.2095449239783,0,0,0,33.23725203259766,-255.05300444676513Z" fill-rule="evenodd" style="fill: #6B0E12; stroke: #fff; opacity: 1;" id="p-type-functions"></path><path d="M40.280222526292995,-294.25584730508297A297,297,0,0,1,42.17969229164644,-293.9895806966329L36.52868504837648,-254.60244533121931A257.2095449239783,257.2095449239783,0,0,0,34.88369597785993,-254.8330389783166Z" fill-rule="evenodd" style="fill: #6B0E12; stroke: #fff; opacity: 1;" id="p-type-functions"></path><path d="M42.17969229164644,-293.9895806966329A297,297,0,0,1,44.0774028922275,-293.7110528296071L38.172150637510704,-254.3612331227131A257.2095449239783,257.2095449239783,0,0,0,36.52868504837648,-254.60244533121931Z" fill-rule="evenodd" style="fill: #6B0E12; stroke: #fff; opacity: 1;" id="p-type-functions"></path><path d="M44.0774028922275,-293.7110528296071A297,297,0,0,1,45.97327518128429,-293.4202753204112L39.814024202164845,-254.10941241290027A257.2095449239783,257.2095449239783,0,0,0,38.172150637510704,-254.3612331227131Z" fill-rule="evenodd" style="fill: #6B0E12; stroke: #fff; opacity: 1;" id="p-type-functions"></path><path d="M45.97327518128429,-293.4202753204112A297,297,0,0,1,47.8672300887344,-293.1172602963397L41.454237265638845,-253.846993704326A257.2095449239783,257.2095449239783,0,0,0,39.814024202164845,-254.10941241290027Z" fill-rule="evenodd" style="fill: #6B0E12; stroke: #fff; opacity: 1;" id="p-type-functions"></path><path d="M47.8672300887344,-293.1172602963397A297,297,0,0,1,49.759188624462666,-292.80202039507026L43.09272142048633,-253.57398794154017A257.2095449239783,257.2095449239783,0,0,0,41.454237265638845,-253.846993704326Z" fill-rule="evenodd" style="fill: #6B0E12; stroke: #fff; opacity: 1;" id="p-type-functions"></path><path d="M49.759188624462666,-292.80202039507026A297,297,0,0,1,51.6490718816155,-292.4745687641367L44.72940833136756,-253.29040651064105A257.2095449239783,257.2095449239783,0,0,0,43.09272142048633,-253.57398794154017Z" fill-rule="evenodd" style="fill: #6B0E12; stroke: #fff; opacity: 1;" id="p-type-functions"></path><path d="M51.6490718816155,-292.4745687641367A297,297,0,0,1,53.53680103989164,-292.13491906038047L46.364229737899315,-252.99626123880032A257.2095449239783,257.2095449239783,0,0,0,44.72940833136756,-253.29040651064105Z" fill-rule="evenodd" style="fill: #6B0E12; stroke: #fff; opacity: 1;" id="p-type-functions"></path><path d="M53.53680103989164,-292.13491906038047A297,297,0,0,1,55.42229736882966,-291.7830854493814L47.99711745750194,-252.6915643937699A257.2095449239783,257.2095449239783,0,0,0,46.364229737899315,-252.99626123880032Z" fill-rule="evenodd" style="fill: #6B0E12; stroke: #fff; opacity: 1;" id="p-type-functions"></path><path d="M55.42229736882966,-291.7830854493814A297,297,0,0,1,57.3054822310916,-291.41908260486656L49.62800338824308,-252.37632868337028A257.2095449239783,257.2095449239783,0,0,0,47.99711745750194,-252.6915643937699Z" fill-rule="evenodd" style="fill: #6B0E12; stroke: #fff; opacity: 1;" id="p-type-functions"></path><path d="M57.3054822310916,-291.41908260486656A297,297,0,0,1,59.18627708574253,-291.04292570809844L51.25681951167785,-252.05056725496036A257.2095449239783,257.2095449239783,0,0,0,49.62800338824308,-252.37632868337028Z" fill-rule="evenodd" style="fill: #6B0E12; stroke: #fff; opacity: 1;" id="p-type-functions"></path><path d="M59.18627708574253,-291.04292570809844A297,297,0,0,1,61.06460349152613,-290.6546304472418L52.88349789568556,-251.71429369488936A257.2095449239783,257.2095449239783,0,0,0,51.25681951167785,-252.05056725496036Z" fill-rule="evenodd" style="fill: #6B0E12; stroke: #fff; opacity: 1;" id="p-type-functions"></path><path d="M61.06460349152613,-290.6546304472418A297,297,0,0,1,62.94038311013626,-290.2542130167093L54.507970697303016,-251.36752202793016A257.2095449239783,257.2095449239783,0,0,0,52.88349789568556,-251.71429369488936Z" fill-rule="evenodd" style="fill: #6B0E12; stroke: #fff; opacity: 1;" id="p-type-functions"></path><path d="M62.94038311013626,-290.2542130167093A297,297,0,0,1,64.81353770948435,-289.84169011648623L56.130170165554134,-251.01026671669416A257.2095449239783,257.2095449239783,0,0,0,54.507970697303016,-251.36752202793016Z" fill-rule="evenodd" style="fill: #6B0E12; stroke: #fff; opacity: 1;" id="p-type-functions"></path><path d="M64.81353770948435,-289.84169011648623A297,297,0,0,1,66.68398916696206,-289.41707895143384L57.75002864427545,-250.64254266102824A257.2095449239783,257.2095449239783,0,0,0,56.130170165554134,-251.01026671669416Z" fill-rule="evenodd" style="fill: #6B0E12; stroke: #fff; opacity: 1;" id="p-type-functions"></path><path d="M66.68398916696206,-289.41707895143384A297,297,0,0,1,68.5516594726993,-288.9803972305718L59.367478574937756,-250.26436519739343A257.2095449239783,257.2095449239783,0,0,0,57.75002864427545,-250.64254266102824Z" fill-rule="evenodd" style="fill: #6B0E12; stroke: #fff; opacity: 1;" id="p-type-functions"></path><path d="M68.5516594726993,-288.9803972305718A297,297,0,0,1,70.41647073281794,-288.53166316633985L60.98245249946376,-249.87575009822513A257.2095449239783,257.2095449239783,0,0,0,59.367478574937756,-250.26436519739343Z" fill-rule="evenodd" style="fill: #6B0E12; stroke: #fff; opacity: 1;" id="p-type-functions"></path><path d="M70.41647073281794,-288.53166316633985A297,297,0,0,1,72.27834517268057,-288.07089547383794L62.59488306304173,-249.4767135712753A257.2095449239783,257.2095449239783,0,0,0,60.98245249946376,-249.87575009822513Z" fill-rule="evenodd" style="fill: #6B0E12; stroke: #fff; opacity: 1;" id="p-type-functions"></path><path d="M72.27834517268057,-288.07089547383794A297,297,0,0,1,74.13720514013414,-287.5981133700457L64.20470301693443,-249.0672722589366A257.2095449239783,257.2095449239783,0,0,0,62.59488306304173,-249.4767135712753Z" fill-rule="evenodd" style="fill: #6B0E12; stroke: #fff; opacity: 1;" id="p-type-functions"></path><path d="M74.13720514013414,-287.5981133700457A297,297,0,0,1,75.99297310874836,-287.1133365730214L65.81184522128379,-248.6474432375483A257.2095449239783,257.2095449239783,0,0,0,64.20470301693443,-249.0672722589366Z" fill-rule="evenodd" style="fill: #6B0E12; stroke: #fff; opacity: 1;" id="p-type-functions"></path><path d="M75.99297310874836,-287.1133365730214A297,297,0,0,1,77.84557168104914,-286.6165853010789L67.41624264791105,-248.21724401668388A257.2095449239783,257.2095449239783,0,0,0,65.81184522128379,-248.6474432375483Z" fill-rule="evenodd" style="fill: #6B0E12; stroke: #fff; opacity: 1;" id="p-type-functions"></path><path d="M77.84557168104914,-286.6165853010789A297,297,0,0,1,79.69492359174687,-286.107880271945L69.01782838311257,-247.77669253842103A257.2095449239783,257.2095449239783,0,0,0,67.41624264791105,-248.21724401668388Z" fill-rule="evenodd" style="fill: #6B0E12; stroke: #fff; opacity: 1;" id="p-type-functions"></path><path d="M79.69492359174687,-286.107880271945A297,297,0,0,1,81.54095171095852,-285.5872427018951L70.61653563045027,-247.32580717659317A257.2095449239783,257.2095449239783,0,0,0,69.01782838311257,-247.77669253842103Z" fill-rule="evenodd" style="fill: #6B0E12; stroke: #fff; opacity: 1;" id="p-type-functions"></path><path d="M81.54095171095852,-285.5872427018951A297,297,0,0,1,83.38357904742453,-285.0546943048683L72.2122977135375,-246.86460673602326A257.2095449239783,257.2095449239783,0,0,0,70.61653563045027,-247.32580717659317Z" fill-rule="evenodd" style="fill: #6B0E12; stroke: #fff; opacity: 1;" id="p-type-functions"></path><path d="M83.38357904742453,-285.0546943048683A297,297,0,0,1,85.22272875171983,-284.51025729156197L73.80504807881985,-246.3931104517395A257.2095449239783,257.2095449239783,0,0,0,72.2122977135375,-246.86460673602326Z" fill-rule="evenodd" style="fill: #6B0E12; stroke: #fff; opacity: 1;" id="p-type-functions"></path><path d="M85.22272875171983,-284.51025729156197A297,297,0,0,1,87.05832411945914,-283.9539543685053L75.39472029835115,-245.91133798817287A257.2095449239783,257.2095449239783,0,0,0,73.80504807881985,-246.3931104517395Z" fill-rule="evenodd" style="fill: #6B0E12; stroke: #fff; opacity: 1;" id="p-type-functions"></path><path d="M87.05832411945914,-283.9539543685053A297,297,0,0,1,88.89028859449591,-283.38580873711237L76.9812480725636,-245.41930943833742A257.2095449239783,257.2095449239783,0,0,0,75.39472029835115,-245.91133798817287Z" fill-rule="evenodd" style="fill: #6B0E12; stroke: #fff; opacity: 1;" id="p-type-functions"></path><path d="M88.89028859449591,-283.38580873711237A297,297,0,0,1,90.71854577211506,-282.8058440927144L78.56456523303304,-244.91704532299198A257.2095449239783,257.2095449239783,0,0,0,76.9812480725636,-245.41930943833742Z" fill-rule="evenodd" style="fill: #6B0E12; stroke: #fff; opacity: 1;" id="p-type-functions"></path><path d="M90.71854577211506,-282.8058440927144A297,297,0,0,1,92.54301940221971,-282.2140846235715L80.14460574523847,-244.40456658978428A257.2095449239783,257.2095449239783,0,0,0,78.56456523303304,-244.91704532299198Z" fill-rule="evenodd" style="fill: #6B0E12; stroke: #fff; opacity: 1;" id="p-type-functions"></path><path d="M92.54301940221971,-282.2140846235715A297,297,0,0,1,94.36363339251133,-281.61055500986413L81.72130371131637,-243.88189461237747A257.2095449239783,257.2095449239783,0,0,0,80.14460574523847,-244.40456658978428Z" fill-rule="evenodd" style="fill: #6B0E12; stroke: #fff; opacity: 1;" id="p-type-functions"></path><path d="M94.36363339251133,-281.61055500986413A297,297,0,0,1,96.18031181166333,-280.99528042266337L83.29459337280895,-243.34905118955862A257.2095449239783,257.2095449239783,0,0,0,81.72130371131637,-243.88189461237747Z" fill-rule="evenodd" style="fill: #6B0E12; stroke: #fff; opacity: 1;" id="p-type-functions"></path><path d="M96.18031181166333,-280.99528042266337A297,297,0,0,1,97.99297889248753,-280.36828652288136L84.8644091134065,-242.80605854432952A257.2095449239783,257.2095449239783,0,0,0,83.29459337280895,-243.34905118955862Z" fill-rule="evenodd" style="fill: #6B0E12; stroke: #fff; opacity: 1;" id="p-type-functions"></path><path d="M97.99297889248753,-280.36828652288136A297,297,0,0,1,99.80155903509451,-279.7295994602011L86.43068546168422,-242.25293932297996A257.2095449239783,257.2095449239783,0,0,0,84.8644091134065,-242.80605854432952Z" fill-rule="evenodd" style="fill: #6B0E12; stroke: #fff; opacity: 1;" id="p-type-functions"></path><path d="M99.80155903509451,-279.7295994602011A297,297,0,0,1,101.60597681004654,-279.0792458719858L87.99335709383287,-241.68971659414314A257.2095449239783,257.2095449239783,0,0,0,86.43068546168422,-242.25293932297996Z" fill-rule="evenodd" style="fill: #6B0E12; stroke: #fff; opacity: 1;" id="p-type-functions"></path><path d="M101.60597681004654,-279.0792458719858A297,297,0,0,1,103.40615696150344,-278.4172528821677L89.55235883638306,-241.11641384783343A257.2095449239783,257.2095449239783,0,0,0,87.99335709383287,-241.68971659414314Z" fill-rule="evenodd" style="fill: #6B0E12; stroke: #fff; opacity: 1;" id="p-type-functions"></path><path d="M103.40615696150344,-278.4172528821677A297,297,0,0,1,105.20202441036109,-277.7436481001173L91.10762566892333,-240.5330549944671A257.2095449239783,257.2095449239783,0,0,0,89.55235883638306,-241.11641384783343Z" fill-rule="evenodd" style="fill: #6B0E12; stroke: #fff; opacity: 1;" id="p-type-functions"></path><path d="M105.20202441036109,-277.7436481001173A297,297,0,0,1,106.99350425738285,-277.0584596194915L92.65909272681203,-239.93966436386472A257.2095449239783,257.2095449239783,0,0,0,91.10762566892333,-240.5330549944671Z" fill-rule="evenodd" style="fill: #6B0E12; stroke: #fff; opacity: 1;" id="p-type-functions"></path><path d="M106.99350425738285,-277.0584596194915A297,297,0,0,1,108.78052178632345,-276.36171601706195L94.2066953038827,-239.33626670423646A257.2095449239783,257.2095449239783,0,0,0,92.65909272681203,-239.93966436386472Z" fill-rule="evenodd" style="fill: #6B0E12; stroke: #fff; opacity: 1;" id="p-type-functions"></path><path d="M108.78052178632345,-276.36171601706195A297,297,0,0,1,110.563002467045,-275.6534463515234L95.75036885514254,-238.72288718115018A257.2095449239783,257.2095449239783,0,0,0,94.2066953038827,-239.33626670423646Z" fill-rule="evenodd" style="fill: #6B0E12; stroke: #fff; opacity: 1;" id="p-type-functions"></path><path d="M110.563002467045,-275.6534463515234A297,297,0,0,1,112.34087195862529,-274.93368016228163L97.29004899946437,-238.09955137648166A257.2095449239783,257.2095449239783,0,0,0,95.75036885514254,-238.72288718115018Z" fill-rule="evenodd" style="fill: #6B0E12; stroke: #fff; opacity: 1;" id="p-type-functions"></path><path d="M112.34087195862529,-274.93368016228163A297,297,0,0,1,114.11405611245839,-274.20244746822135L98.82567152227188,-237.46628528734774A257.2095449239783,257.2095449239783,0,0,0,97.29004899946437,-238.09955137648166Z" fill-rule="evenodd" style="fill: #6B0E12; stroke: #fff; opacity: 1;" id="p-type-functions"></path><path d="M114.11405611245839,-274.20244746822135A297,297,0,0,1,115.88248097534722,-273.4597787664546L100.35717237821761,-236.82311532502212A257.2095449239783,257.2095449239783,0,0,0,98.82567152227188,-237.46628528734774Z" fill-rule="evenodd" style="fill: #6B0E12; stroke: #fff; opacity: 1;" id="p-type-functions"></path><path d="M115.88248097534722,-273.4597787664546A297,297,0,0,1,117.64607279258784,-272.7057050310483L101.88448769385435,-236.1700683138336A257.2095449239783,257.2095449239783,0,0,0,100.35717237821761,-236.82311532502212Z" fill-rule="evenodd" style="fill: #6B0E12; stroke: #fff; opacity: 1;" id="p-type-functions"></path><path d="M117.64607279258784,-272.7057050310483A297,297,0,0,1,119.40475801104525,-271.94025771173295L103.40755377029865,-235.50717149004782A257.2095449239783,257.2095449239783,0,0,0,101.88448769385435,-236.1700683138336Z" fill-rule="evenodd" style="fill: #6B0E12; stroke: #fff; opacity: 1;" id="p-type-functions"></path><path d="M119.40475801104525,-271.94025771173295A297,297,0,0,1,121.15846328222123,-271.1634687325906L104.92630708588773,-234.8344525007308A257.2095449239783,257.2095449239783,0,0,0,103.40755377029865,-235.50717149004782Z" fill-rule="evenodd" style="fill: #6B0E12; stroke: #fff; opacity: 1;" id="p-type-functions"></path><path d="M121.15846328222123,-271.1634687325906A297,297,0,0,1,122.90711546531357,-270.37537049072364L106.44068429882881,-234.15193940259616A257.2095449239783,257.2095449239783,0,0,0,104.92630708588773,-234.8344525007308Z" fill-rule="evenodd" style="fill: #6B0E12; stroke: #fff; opacity: 1;" id="p-type-functions"></path><path d="M122.90711546531357,-270.37537049072364A297,297,0,0,1,124.65064163026634,-269.57599585490345L107.95062224984076,-233.4596606608349A257.2095449239783,257.2095449239783,0,0,0,106.44068429882881,-234.15193940259616Z" fill-rule="evenodd" style="fill: #6B0E12; stroke: #fff; opacity: 1;" id="p-type-functions"></path><path d="M124.65064163026634,-269.57599585490345A297,297,0,0,1,126.38896906081149,-268.7653781641996L109.4560579647882,-232.75764514792834A257.2095449239783,257.2095449239783,0,0,0,107.95062224984076,-233.4596606608349Z" fill-rule="evenodd" style="fill: #6B0E12; stroke: #fff; opacity: 1;" id="p-type-functions"></path><path d="M126.38896906081149,-268.7653781641996A297,297,0,0,1,128.12202525750163,-267.9435512265897L110.95692865730791,-232.0459221424438A257.2095449239783,257.2095449239783,0,0,0,109.4560579647882,-232.75764514792834Z" fill-rule="evenodd" style="fill: #6B0E12; stroke: #fff; opacity: 1;" id="p-type-functions"></path><path d="M128.12202525750163,-267.9435512265897A297,297,0,0,1,129.84973794073395,-267.1105493175489L112.45317173142766,-231.3245213278135A257.2095449239783,257.2095449239783,0,0,0,110.95692865730791,-232.0459221424438Z" fill-rule="evenodd" style="fill: #6B0E12; stroke: #fff; opacity: 1;" id="p-type-functions"></path><path d="M129.84973794073395,-267.1105493175489A297,297,0,0,1,131.57203505376444,-266.26640717862057L113.94472478417667,-230.59347279109667A257.2095449239783,257.2095449239783,0,0,0,112.45317173142766,-231.3245213278135Z" fill-rule="evenodd" style="fill: #6B0E12; stroke: #fff; opacity: 1;" id="p-type-functions"></path><path d="M131.57203505376444,-266.26640717862057A297,297,0,0,1,133.28884476571324,-265.41116001596765L115.43152560818818,-229.85280702172466A257.2095449239783,257.2095449239783,0,0,0,113.94472478417667,-230.59347279109667Z" fill-rule="evenodd" style="fill: #6B0E12; stroke: #fff; opacity: 1;" id="p-type-functions"></path><path d="M133.28884476571324,-265.41116001596765A297,297,0,0,1,135.00009547456042,-264.5448434989039L116.91351219429396,-229.1025549102294A257.2095449239783,257.2095449239783,0,0,0,115.43152560818818,-229.85280702172466Z" fill-rule="evenodd" style="fill: #6B0E12; stroke: #fff; opacity: 1;" id="p-type-functions"></path><path d="M135.00009547456042,-264.5448434989039A297,297,0,0,1,136.70571581013235,-263.66749375840647L118.3906227341106,-228.34274774695493A257.2095449239783,257.2095449239783,0,0,0,116.91351219429396,-229.1025549102294Z" fill-rule="evenodd" style="fill: #6B0E12; stroke: #fff; opacity: 1;" id="p-type-functions"></path><path d="M136.70571581013235,-263.66749375840647A297,297,0,0,1,138.40563463707824,-262.779147385609L119.86279562261718,-227.57341722075253A257.2095449239783,257.2095449239783,0,0,0,118.3906227341106,-228.34274774695493Z" fill-rule="evenodd" style="fill: #6B0E12; stroke: #fff; opacity: 1;" id="p-type-functions"></path><path d="M138.40563463707824,-262.779147385609A297,297,0,0,1,140.09978105783685,-261.87984143027535L121.32996946072461,-226.794595417659A257.2095449239783,257.2095449239783,0,0,0,119.86279562261718,-227.57341722075253Z" fill-rule="evenodd" style="fill: #6B0E12; stroke: #fff; opacity: 1;" id="p-type-functions"></path><path d="M140.09978105783685,-261.87984143027535A297,297,0,0,1,141.7880844155934,-260.9696133992549L122.79208305783634,-226.00631481955858A257.2095449239783,257.2095449239783,0,0,0,121.32996946072461,-226.794595417659Z" fill-rule="evenodd" style="fill: #6B0E12; stroke: #fff; opacity: 1;" id="p-type-functions"></path><path d="M141.7880844155934,-260.9696133992549A297,297,0,0,1,143.47047429722656,-260.04850125491754L124.24907543440055,-225.20860830282808A257.2095449239783,257.2095449239783,0,0,0,122.79208305783634,-226.00631481955858Z" fill-rule="evenodd" style="fill: #6B0E12; stroke: #fff; opacity: 1;" id="p-type-functions"></path><path d="M143.47047429722656,-260.04850125491754A297,297,0,0,1,145.14688053624508,-259.1165434135709L125.70088582445332,-224.4015091369658A257.2095449239783,257.2095449239783,0,0,0,124.24907543440055,-225.20860830282808Z" fill-rule="evenodd" style="fill: #6B0E12; stroke: #fff; opacity: 1;" id="p-type-functions"></path><path d="M145.14688053624508,-259.1165434135709A297,297,0,0,1,146.817233215714,-258.1737787438582L127.14745367815281,-223.58505098320413A257.2095449239783,257.2095449239783,0,0,0,125.70088582445332,-224.4015091369658Z" fill-rule="evenodd" style="fill: #6B0E12; stroke: #fff; opacity: 1;" id="p-type-functions"></path><path d="M146.817233215714,-258.1737787438582A297,297,0,0,1,148.4814626711708,-257.22024656513673L128.58871866430474,-222.7592678931054A257.2095449239783,257.2095449239783,0,0,0,127.14745367815281,-223.58505098320413Z" fill-rule="evenodd" style="fill: #6B0E12; stroke: #fff; opacity: 1;" id="p-type-functions"></path><path d="M148.4814626711708,-257.22024656513673A297,297,0,0,1,150.1394994935309,-256.2559866458382L130.02462067287863,-221.9241943071418A257.2095449239783,257.2095449239783,0,0,0,128.58871866430474,-222.7592678931054Z" fill-rule="evenodd" style="fill: #6B0E12; stroke: #fff; opacity: 1;" id="p-type-functions"></path><path d="M150.1394994935309,-256.2559866458382A297,297,0,0,1,151.79127453198242,-255.2810392018106L131.45509981751465,-221.0798650532591A257.2095449239783,257.2095449239783,0,0,0,130.02462067287863,-221.9241943071418Z" fill-rule="evenodd" style="fill: #6B0E12; stroke: #fff; opacity: 1;" id="p-type-functions"></path><path d="M151.79127453198242,-255.2810392018106A297,297,0,0,1,153.43671889687008,-254.29544489463996L132.8800964380213,-220.22631534542404A257.2095449239783,257.2095449239783,0,0,0,131.45509981751465,-221.0798650532591Z" fill-rule="evenodd" style="fill: #6B0E12; stroke: #fff; opacity: 1;" id="p-type-functions"></path><path d="M153.43671889687008,-254.29544489463996A297,297,0,0,1,155.07576396256846,-253.29924482995554L134.29955110286366,-219.36358078215562A257.2095449239783,257.2095449239783,0,0,0,132.8800964380213,-220.22631534542404Z" fill-rule="evenodd" style="fill: #6B0E12; stroke: #fff; opacity: 1;" id="p-type-functions"></path><path d="M155.07576396256846,-253.29924482995554A297,297,0,0,1,156.70834137034416,-252.2924805557147L135.71340461164195,-218.49169734504045A257.2095449239783,257.2095449239783,0,0,0,134.29955110286366,-219.36358078215562Z" fill-rule="evenodd" style="fill: #6B0E12; stroke: #fff; opacity: 1;" id="p-type-functions"></path><path d="M156.70834137034416,-252.2924805557147A297,297,0,0,1,158.3343830312069,-251.27519406047043L137.12159799756094,-217.61070139723208A257.2095449239783,257.2095449239783,0,0,0,135.71340461164195,-218.49169734504045Z" fill-rule="evenodd" style="fill: #6B0E12; stroke: #fff; opacity: 1;" id="p-type-functions"></path><path d="M158.3343830312069,-251.27519406047043A297,297,0,0,1,159.95382112874887,-250.24742777162007L138.52407252988863,-216.72062968193444A257.2095449239783,257.2095449239783,0,0,0,137.12159799756094,-217.61070139723208Z" fill-rule="evenodd" style="fill: #6B0E12; stroke: #fff; opacity: 1;" id="p-type-functions"></path><path d="M159.95382112874887,-250.24742777162007A297,297,0,0,1,161.56658812197352,-249.20922455363595L139.92076971640623,-215.82151932086944A257.2095449239783,257.2095449239783,0,0,0,138.52407252988863,-216.72062968193444Z" fill-rule="evenodd" style="fill: #6B0E12; stroke: #fff; opacity: 1;" id="p-type-functions"></path><path d="M161.56658812197352,-249.20922455363595A297,297,0,0,1,163.17261674811235,-248.16062770627747L141.31163130584744,-214.9134078127287A257.2095449239783,257.2095449239783,0,0,0,139.92076971640623,-215.82151932086944Z" fill-rule="evenodd" style="fill: #6B0E12; stroke: #fff; opacity: 1;" id="p-type-functions"></path><path d="M163.17261674811235,-248.16062770627747A297,297,0,0,1,164.77184002543004,-247.10168096278522L142.69659929032798,-213.9963330316096A257.2095449239783,257.2095449239783,0,0,0,141.31163130584744,-214.9134078127287Z" fill-rule="evenodd" style="fill: #6B0E12; stroke: #fff; opacity: 1;" id="p-type-functions"></path><path d="M164.77184002543004,-247.10168096278522A297,297,0,0,1,166.3641912560182,-246.03242848805726L144.07561590776473,-213.0703332254358A257.2095449239783,257.2095449239783,0,0,0,142.69659929032798,-213.9963330316096Z" fill-rule="evenodd" style="fill: #6B0E12; stroke: #fff; opacity: 1;" id="p-type-functions"></path><path d="M166.3641912560182,-246.03242848805726A297,297,0,0,1,167.94960402857703,-244.95291487680686L145.44862364428502,-212.1354470143619A257.2095449239783,257.2095449239783,0,0,0,144.07561590776473,-213.0703332254358Z" fill-rule="evenodd" style="fill: #6B0E12; stroke: #fff; opacity: 1;" id="p-type-functions"></path><path d="M167.94960402857703,-244.95291487680686A297,297,0,0,1,169.5280122211851,-243.86318515170285L146.81556523662508,-211.1917133891628A257.2095449239783,257.2095449239783,0,0,0,145.44862364428502,-212.1354470143619Z" fill-rule="evenodd" style="fill: #6B0E12; stroke: #fff; opacity: 1;" id="p-type-functions"></path><path d="M169.5280122211851,-243.86318515170285A297,297,0,0,1,171.0993500040571,-242.7632847614918L148.17638367451855,-210.2391717096076A257.2095449239783,257.2095449239783,0,0,0,146.81556523662508,-211.1917133891628Z" fill-rule="evenodd" style="fill: #6B0E12; stroke: #fff; opacity: 1;" id="p-type-functions"></path><path d="M171.0993500040571,-242.7632847614918A297,297,0,0,1,172.6635518422893,-241.65325957910244L149.53102220307395,-209.27786170281797A257.2095449239783,257.2095449239783,0,0,0,148.17638367451855,-210.2391717096076Z" fill-rule="evenodd" style="fill: #6B0E12; stroke: #fff; opacity: 1;" id="p-type-functions"></path><path d="M172.6635518422893,-241.65325957910244A297,297,0,0,1,174.22055249859284,-240.53315589973258L150.87942432514185,-208.30782346161124A257.2095449239783,257.2095449239783,0,0,0,149.53102220307395,-209.27786170281797Z" fill-rule="evenodd" style="fill: #6B0E12; stroke: #fff; opacity: 1;" id="p-type-functions"></path><path d="M174.22055249859284,-240.53315589973258A297,297,0,0,1,175.77028703601442,-239.40302043891822L152.2215338036711,-207.32909744282838A257.2095449239783,257.2095449239783,0,0,0,150.87942432514185,-208.30782346161124Z" fill-rule="evenodd" style="fill: #6B0E12; stroke: #fff; opacity: 1;" id="p-type-functions"></path><path d="M175.77028703601442,-239.40302043891822A297,297,0,0,1,177.3126908206449,-238.2629003305852L153.55729466405433,-206.34172446564654A257.2095449239783,257.2095449239783,0,0,0,152.2215338036711,-207.32909744282838Z" fill-rule="evenodd" style="fill: #6B0E12; stroke: #fff; opacity: 1;" id="p-type-functions"></path><path d="M177.3126908206449,-238.2629003305852A297,297,0,0,1,178.84769952431446,-237.11284312508363L154.8866511964624,-205.34574570987684A257.2095449239783,257.2095449239783,0,0,0,153.55729466405433,-206.34172446564654Z" fill-rule="evenodd" style="fill: #6B0E12; stroke: #fff; opacity: 1;" id="p-type-functions"></path><path d="M178.84769952431446,-237.11284312508363A297,297,0,0,1,180.37524912727602,-235.95289678720437L156.20954795816795,-204.34120271424663A257.2095449239783,257.2095449239783,0,0,0,154.8866511964624,-205.34574570987684Z" fill-rule="evenodd" style="fill: #6B0E12; stroke: #fff; opacity: 1;" id="p-type-functions"></path><path d="M180.37524912727602,-235.95289678720437A297,297,0,0,1,181.89527592087487,-234.78310969417885L157.52592977585755,-203.3281373746674A257.2095449239783,257.2095449239783,0,0,0,156.20954795816795,-204.34120271424663Z" fill-rule="evenodd" style="fill: #6B0E12; stroke: #fff; opacity: 1;" id="p-type-functions"></path><path d="M181.89527592087487,-234.78310969417885A297,297,0,0,1,183.40771651020594,-233.6035306336613L158.83574174793296,-202.30659194248702A257.2095449239783,257.2095449239783,0,0,0,157.52592977585755,-203.3281373746674Z" fill-rule="evenodd" style="fill: #6B0E12; stroke: #fff; opacity: 1;" id="p-type-functions"></path><path d="M183.40771651020594,-233.6035306336613A297,297,0,0,1,184.91250781675777,-232.4142088016942L160.1389292468008,-201.27660902272805A257.2095449239783,257.2095449239783,0,0,0,158.83574174793296,-202.30659194248702Z" fill-rule="evenodd" style="fill: #6B0E12; stroke: #fff; opacity: 1;" id="p-type-functions"></path><path d="M184.91250781675777,-232.4142088016942A297,297,0,0,1,186.40958708104313,-231.21519380065615L161.43543792115088,-200.2382315723105A257.2095449239783,257.2095449239783,0,0,0,160.1389292468008,-201.27660902272805Z" fill-rule="evenodd" style="fill: #6B0E12; stroke: #fff; opacity: 1;" id="p-type-functions"></path><path d="M186.40958708104313,-231.21519380065615A297,297,0,0,1,187.89889186521683,-230.00653563719348L162.72521369822297,-199.19150289826035A257.2095449239783,257.2095449239783,0,0,0,161.43543792115088,-200.2382315723105Z" fill-rule="evenodd" style="fill: #6B0E12; stroke: #fff; opacity: 1;" id="p-type-functions"></path><path d="M187.89889186521683,-230.00653563719348A297,297,0,0,1,189.3803600556793,-228.78828472013438L164.00820278606204,-198.1364666559035A257.2095449239783,257.2095449239783,0,0,0,162.72521369822297,-199.19150289826035Z" fill-rule="evenodd" style="fill: #6B0E12; stroke: #fff; opacity: 1;" id="p-type-functions"></path><path d="M189.3803600556793,-228.78828472013438A297,297,0,0,1,190.85392986566754,-227.56049185838665L165.28435167576168,-197.07316684704477A257.2095449239783,257.2095449239783,0,0,0,164.00820278606204,-198.1364666559035Z" fill-rule="evenodd" style="fill: #6B0E12; stroke: #fff; opacity: 1;" id="p-type-functions"></path><path d="M190.85392986566754,-227.56049185838665A297,297,0,0,1,192.3195398378319,-226.32320825881865L166.5536071436958,-196.00164781813302A257.2095449239783,257.2095449239783,0,0,0,165.28435167576168,-197.07316684704477Z" fill-rule="evenodd" style="fill: #6B0E12; stroke: #fff; opacity: 1;" id="p-type-functions"></path><path d="M192.3195398378319,-226.32320825881865A297,297,0,0,1,193.77712884679912,-225.07648552412363L167.8159162537384,-194.92195425841152A257.2095449239783,257.2095449239783,0,0,0,166.5536071436958,-196.00164781813302Z" fill-rule="evenodd" style="fill: #6B0E12; stroke: #fff; opacity: 1;" id="p-type-functions"></path><path d="M193.77712884679912,-225.07648552412363A297,297,0,0,1,195.1977255493865,-223.84558950389527L169.04618908671148,-193.8559670354766A257.2095449239783,257.2095449239783,0,0,0,167.8159162537384,-194.92195425841152Z" fill-rule="evenodd" style="fill: #6B0E12; stroke: #fff; opacity: 1;" id="p-type-functions"></path><path d="M295.75517981799516,-27.163829089900716A297,297,0,0,1,295.9244368840332,-25.253270181658525L256.2780799421775,-21.86997350594835A257.2095449239783,257.2095449239783,0,0,0,256.13149902321857,-23.52456605591275Z" fill-rule="evenodd" style="fill: #184B42; stroke: #fff; opacity: 1;" id="p-type-logs"></path><path d="M295.9244368840332,-25.253270181658525A297,297,0,0,1,296.0813519955336,-23.34165804943865L256.4139724149745,-20.2144688372634A257.2095449239783,257.2095449239783,0,0,0,256.2780799421775,-21.86997350594835Z" fill-rule="evenodd" style="fill: #184B42; stroke: #fff; opacity: 1;" id="p-type-logs"></path><path d="M296.0813519955336,-23.34165804943865A297,297,0,0,1,296.2259186081258,-21.42907241977628L256.53917077401843,-18.55812109506273A257.2095449239783,257.2095449239783,0,0,0,256.4139724149745,-20.2144688372634Z" fill-rule="evenodd" style="fill: #184B42; stroke: #fff; opacity: 1;" id="p-type-logs"></path><path d="M296.2259186081258,-21.42907241977628A297,297,0,0,1,296.3581306924512,-19.51559305980771L256.6536697977315,-16.90099935971276A257.2095449239783,257.2095449239783,0,0,0,256.53917077401843,-18.55812109506273Z" fill-rule="evenodd" style="fill: #184B42; stroke: #fff; opacity: 1;" id="p-type-logs"></path><path d="M296.3581306924512,-19.51559305980771A297,297,0,0,1,296.47798273441447,-17.60129977394354L256.7574647107671,-15.243172743860406A257.2095449239783,257.2095449239783,0,0,0,256.6536697977315,-16.90099935971276Z" fill-rule="evenodd" style="fill: #184B42; stroke: #fff; opacity: 1;" id="p-type-logs"></path><path d="M296.47798273441447,-17.60129977394354A297,297,0,0,1,296.58546973541377,-15.68627240054034L256.85055118420917,-13.584710389550644A257.2095449239783,257.2095449239783,0,0,0,256.7574647107671,-15.243172743860406Z" fill-rule="evenodd" style="fill: #184B42; stroke: #fff; opacity: 1;" id="p-type-logs"></path><path d="M296.58546973541377,-15.68627240054034A297,297,0,0,1,296.680587212549,-13.77059080857083L256.93292533575215,-11.925681465342834A257.2095449239783,257.2095449239783,0,0,0,256.85055118420917,-13.584710389550644Z" fill-rule="evenodd" style="fill: #184B42; stroke: #fff; opacity: 1;" id="p-type-logs"></path><path d="M296.680587212549,-13.77059080857083A297,297,0,0,1,296.76333119880894,-11.854334894292881L257.0045837298636,-10.266155163425955A257.2095449239783,257.2095449239783,0,0,0,256.93292533575215,-11.925681465342834Z" fill-rule="evenodd" style="fill: #184B42; stroke: #fff; opacity: 1;" id="p-type-logs"></path><path d="M296.76333119880894,-11.854334894292881A297,297,0,0,1,296.8336982432364,-9.93758457791729L257.06552337792704,-8.60620069673283A257.2095449239783,257.2095449239783,0,0,0,257.0045837298636,-10.266155163425955Z" fill-rule="evenodd" style="fill: #184B42; stroke: #fff; opacity: 1;" id="p-type-logs"></path><path d="M296.8336982432364,-9.93758457791729A297,297,0,0,1,296.8916854110727,-8.020419800274606L257.11574173836675,-6.945887296053522A257.2095449239783,257.2095449239783,0,0,0,257.06552337792704,-8.60620069673283Z" fill-rule="evenodd" style="fill: #184B42; stroke: #fff; opacity: 1;" id="p-type-logs"></path><path d="M296.8916854110727,-8.020419800274606A297,297,0,0,1,296.93729028387946,-6.102920519481082L257.1552367167538,-5.2852842071479404A257.2095449239783,257.2095449239783,0,0,0,257.11574173836675,-6.945887296053522Z" fill-rule="evenodd" style="fill: #184B42; stroke: #fff; opacity: 1;" id="p-type-logs"></path><path d="M296.93729028387946,-6.102920519481082A297,297,0,0,1,296.97051095963985,-4.185166707603911L257.18400666589315,-3.624460687857867A257.2095449239783,257.2095449239783,0,0,0,257.1552367167538,-5.2852842071479404Z" fill-rule="evenodd" style="fill: #184B42; stroke: #fff; opacity: 1;" id="p-type-logs"></path><path d="M296.97051095963985,-4.185166707603911A297,297,0,0,1,296.99134605283774,-2.267238347325866L257.20205038589273,-1.9634860052184469A257.2095449239783,257.2095449239783,0,0,0,257.18400666589315,-3.624460687857867Z" fill-rule="evenodd" style="fill: #184B42; stroke: #fff; opacity: 1;" id="p-type-logs"></path><path d="M296.99134605283774,-2.267238347325866A297,297,0,0,1,296.99979469451563,-0.3492154286095139L257.20936712421326,-0.3024294325693101A257.2095449239783,257.2095449239783,0,0,0,257.20205038589273,-1.9634860052184469Z" fill-rule="evenodd" style="fill: #184B42; stroke: #fff; opacity: 1;" id="p-type-logs"></path><path d="M296.99979469451563,-0.3492154286095139A297,297,0,0,1,296.9958565323107,1.568822054638883L257.2059565756996,1.358639753334571A257.2095449239783,257.2095449239783,0,0,0,257.20936712421326,-0.3024294325693101Z" fill-rule="evenodd" style="fill: #184B42; stroke: #fff; opacity: 1;" id="p-type-logs"></path><path d="M296.9958565323107,1.568822054638883A297,297,0,0,1,296.9795317304697,3.4867941079056264L257.19181888259357,3.019652275212172A257.2095449239783,257.2095449239783,0,0,0,257.2059565756996,1.358639753334571Z" fill-rule="evenodd" style="fill: #184B42; stroke: #fff; opacity: 1;" id="p-type-logs"></path><path d="M296.9795317304697,3.4867941079056264A297,297,0,0,1,296.950820969842,5.404620739405871L257.166954634528,4.680538858145721A257.2095449239783,257.2095449239783,0,0,0,257.19181888259357,3.019652275212172Z" fill-rule="evenodd" style="fill: #184B42; stroke: #fff; opacity: 1;" id="p-type-logs"></path><path d="M296.950820969842,5.404620739405871A297,297,0,0,1,296.90972544785126,7.322221963419795L257.1313648685022,6.341230232469914A257.2095449239783,257.2095449239783,0,0,0,257.166954634528,4.680538858145721Z" fill-rule="evenodd" style="fill: #184B42; stroke: #fff; opacity: 1;" id="p-type-logs"></path><path d="M296.90972544785126,7.322221963419795A297,297,0,0,1,296.85624687844523,9.239517803628521L257.08505106883854,8.001657136660901A257.2095449239783,257.2095449239783,0,0,0,257.1313648685022,6.341230232469914Z" fill-rule="evenodd" style="fill: #184B42; stroke: #fff; opacity: 1;" id="p-type-logs"></path><path d="M296.85624687844523,9.239517803628521A297,297,0,0,1,296.7903874920247,11.156428296449642L257.0280151671207,9.661750320224938A257.2095449239783,257.2095449239783,0,0,0,257.08505106883854,8.001657136660901Z" fill-rule="evenodd" style="fill: #184B42; stroke: #fff; opacity: 1;" id="p-type-logs"></path><path d="M296.7903874920247,11.156428296449642A297,297,0,0,1,296.71215003535013,13.072873494372216L256.9602595421131,11.321440546586583A257.2095449239783,257.2095449239783,0,0,0,257.0280151671207,9.661750320224938Z" fill-rule="evenodd" style="fill: #184B42; stroke: #fff; opacity: 1;" id="p-type-logs"></path><path d="M296.71215003535013,13.072873494372216A297,297,0,0,1,296.6215377714273,14.988773469291097L256.8817870196615,12.980658595976305A257.2095449239783,257.2095449239783,0,0,0,256.9602595421131,11.321440546586583Z" fill-rule="evenodd" style="fill: #184B42; stroke: #fff; opacity: 1;" id="p-type-logs"></path><path d="M296.6215377714273,14.988773469291097A297,297,0,0,1,296.51855447937106,16.904048315840452L256.7926008725754,14.639335268317387A257.2095449239783,257.2095449239783,0,0,0,256.8817870196615,12.980658595976305Z" fill-rule="evenodd" style="fill: #184B42; stroke: #fff; opacity: 1;" id="p-type-logs"></path><path d="M296.51855447937106,16.904048315840452A297,297,0,0,1,296.40320445424777,18.818618154726316L256.69270482049143,16.29740138611203A257.2095449239783,257.2095449239783,0,0,0,256.7926008725754,14.639335268317387Z" fill-rule="evenodd" style="fill: #184B42; stroke: #fff; opacity: 1;" id="p-type-logs"></path><path d="M296.40320445424777,18.818618154726316A297,297,0,0,1,296.27549250689634,20.7324031360581L256.5821030297183,17.95478779732648A257.2095449239783,257.2095449239783,0,0,0,256.69270482049143,16.29740138611203Z" fill-rule="evenodd" style="fill: #184B42; stroke: #fff; opacity: 1;" id="p-type-logs"></path><path d="M296.27549250689634,20.7324031360581A297,297,0,0,1,296.1354239637272,22.645323442678816L256.46080011306276,19.611425378275136A257.2095449239783,257.2095449239783,0,0,0,256.5821030297183,17.95478779732648Z" fill-rule="evenodd" style="fill: #184B42; stroke: #fff; opacity: 1;" id="p-type-logs"></path><path d="M296.1354239637272,22.645323442678816A297,297,0,0,1,295.9830046665007,24.557299293493976L256.32880112963767,21.267245036503432A257.2095449239783,257.2095449239783,0,0,0,256.46080011306276,19.611425378275136Z" fill-rule="evenodd" style="fill: #184B42; stroke: #fff; opacity: 1;" id="p-type-logs"></path><path d="M295.9830046665007,24.557299293493976A297,297,0,0,1,295.81824097208283,26.468250946798992L256.1861115846504,22.92217771366945A257.2095449239783,257.2095449239783,0,0,0,256.32880112963767,21.267245036503432Z" fill-rule="evenodd" style="fill: #184B42; stroke: #fff; opacity: 1;" id="p-type-logs"></path><path d="M295.81824097208283,26.468250946798992A297,297,0,0,1,295.6411397521807,28.378098703604905L256.03273742917395,24.576154388424094A257.2095449239783,257.2095449239783,0,0,0,256.1861115846504,22.92217771366945Z" fill-rule="evenodd" style="fill: #184B42; stroke: #fff; opacity: 1;" id="p-type-logs"></path><path d="M295.6411397521807,28.378098703604905A297,297,0,0,1,295.4517083930556,30.28676291096235L255.8686850598982,26.22910607928973A257.2095449239783,257.2095449239783,0,0,0,256.03273742917395,24.576154388424094Z" fill-rule="evenodd" style="fill: #184B42; stroke: #fff; opacity: 1;" id="p-type-logs"></path><path d="M295.4517083930556,30.28676291096235A297,297,0,0,1,295.2499547952149,32.19416396528357L255.69396131886322,27.880963847537135A257.2095449239783,257.2095449239783,0,0,0,255.8686850598982,26.22910607928973Z" fill-rule="evenodd" style="fill: #184B42; stroke: #fff; opacity: 1;" id="p-type-logs"></path><path d="M295.2499547952149,32.19416396528357A297,297,0,0,1,295.0358873730828,34.10022231566247L255.5085734931742,29.531658800060715A257.2095449239783,257.2095449239783,0,0,0,255.69396131886322,27.880963847537135Z" fill-rule="evenodd" style="fill: #184B42; stroke: #fff; opacity: 1;" id="p-type-logs"></path><path d="M295.0358873730828,34.10022231566247A297,297,0,0,1,294.80951505464924,36.004858467192314L255.31252931469714,31.181122092251787A257.2095449239783,257.2095449239783,0,0,0,255.5085734931742,29.531658800060715Z" fill-rule="evenodd" style="fill: #184B42; stroke: #fff; opacity: 1;" id="p-type-logs"></path><path d="M294.80951505464924,36.004858467192314A297,297,0,0,1,294.57084728109754,37.907992984281236L255.1058369597367,32.829284930869825A257.2095449239783,257.2095449239783,0,0,0,255.31252931469714,31.181122092251787Z" fill-rule="evenodd" style="fill: #184B42; stroke: #fff; opacity: 1;" id="p-type-logs"></path><path d="M294.57084728109754,37.907992984281236A297,297,0,0,1,294.3198940064107,39.80954649396518L254.888505048695,34.47607857691158A257.2095449239783,257.2095449239783,0,0,0,255.1058369597367,32.829284930869825Z" fill-rule="evenodd" style="fill: #184B42; stroke: #fff; opacity: 1;" id="p-type-logs"></path><path d="M294.3198940064107,39.80954649396518A297,297,0,0,1,294.0566656969562,41.70943968921831L254.6605426457122,36.121434348477976A257.2095449239783,257.2095449239783,0,0,0,254.888505048695,34.47607857691158Z" fill-rule="evenodd" style="fill: #184B42; stroke: #fff; opacity: 1;" id="p-type-logs"></path><path d="M294.0566656969562,41.70943968921831A297,297,0,0,1,293.78117333104956,43.60759333226055L254.42195925828835,37.76528362363854A257.2095449239783,257.2095449239783,0,0,0,254.6605426457122,36.121434348477976Z" fill-rule="evenodd" style="fill: #184B42; stroke: #fff; opacity: 1;" id="p-type-logs"></path><path d="M293.78117333104956,43.60759333226055A297,297,0,0,1,293.49342839849635,45.5039282578624L254.17276483688704,39.40755784329342A257.2095449239783,257.2095449239783,0,0,0,254.42195925828835,37.76528362363854Z" fill-rule="evenodd" style="fill: #184B42; stroke: #fff; opacity: 1;" id="p-type-logs"></path><path d="M293.49342839849635,45.5039282578624A297,297,0,0,1,293.19344290011315,47.39836537664654L253.91296977452023,41.04818851403268A257.2095449239783,257.2095449239783,0,0,0,254.17276483688704,39.40755784329342Z" fill-rule="evenodd" style="fill: #184B42; stroke: #fff; opacity: 1;" id="p-type-logs"></path><path d="M293.19344290011315,47.39836537664654A297,297,0,0,1,292.8812293472269,49.29082567838646L253.64258490631497,42.68710721099301A257.2095449239783,257.2095449239783,0,0,0,253.91296977452023,41.04818851403268Z" fill-rule="evenodd" style="fill: #184B42; stroke: #fff; opacity: 1;" id="p-type-logs"></path><path d="M292.8812293472269,49.29082567838646A297,297,0,0,1,292.5568007611531,51.18123023530161L253.36162150906122,44.3242455807114A257.2095449239783,257.2095449239783,0,0,0,253.64258490631497,42.68710721099301Z" fill-rule="evenodd" style="fill: #184B42; stroke: #fff; opacity: 1;" id="p-type-logs"></path><path d="M292.5568007611531,51.18123023530161A297,297,0,0,1,292.22017067265296,53.069500205349264L253.07009130074186,45.95953534397594A257.2095449239783,257.2095449239783,0,0,0,253.36162150906122,44.3242455807114Z" fill-rule="evenodd" style="fill: #184B42; stroke: #fff; opacity: 1;" id="p-type-logs"></path><path d="M292.22017067265296,53.069500205349264A297,297,0,0,1,291.8713531213687,54.95555683551271L252.76800644004385,47.592908298673564A257.2095449239783,257.2095449239783,0,0,0,253.07009130074186,45.95953534397594Z" fill-rule="evenodd" style="fill: #184B42; stroke: #fff; opacity: 1;" id="p-type-logs"></path><path d="M291.8713531213687,54.95555683551271A297,297,0,0,1,291.51036265523845,56.83932146508574L252.45537952585104,49.224296322634395A257.2095449239783,257.2095449239783,0,0,0,252.76800644004385,47.592908298673564Z" fill-rule="evenodd" style="fill: #184B42; stroke: #fff; opacity: 1;" id="p-type-logs"></path><path d="M291.51036265523845,56.83932146508574A297,297,0,0,1,291.13721432988905,58.72071552895336L252.1322235967188,50.85363137647299A257.2095449239783,257.2095449239783,0,0,0,252.45537952585104,49.224296322634395Z" fill-rule="evenodd" style="fill: #184B42; stroke: #fff; opacity: 1;" id="p-type-logs"></path><path d="M291.13721432988905,58.72071552895336A297,297,0,0,1,290.7519237080084,60.59966056086841L251.79855213033025,52.480845506425986A257.2095449239783,257.2095449239783,0,0,0,252.1322235967188,50.85363137647299Z" fill-rule="evenodd" style="fill: #184B42; stroke: #fff; opacity: 1;" id="p-type-logs"></path><path d="M290.7519237080084,60.59966056086841A297,297,0,0,1,290.3545068586965,62.476078196724124L251.45437904293416,54.105870847186175A257.2095449239783,257.2095449239783,0,0,0,251.79855213033025,52.480845506425986Z" fill-rule="evenodd" style="fill: #184B42; stroke: #fff; opacity: 1;" id="p-type-logs"></path><path d="M290.3545068586965,62.476078196724124A297,297,0,0,1,289.94498035679493,64.34989017782247L251.09971868876445,55.728639624732985A257.2095449239783,257.2095449239783,0,0,0,251.45437904293416,54.105870847186175Z" fill-rule="evenodd" style="fill: #184B42; stroke: #fff; opacity: 1;" id="p-type-logs"></path><path d="M289.94498035679493,64.34989017782247A297,297,0,0,1,289.5233612821959,66.22101835413794L250.7345858594416,57.349084159159034A257.2095449239783,257.2095449239783,0,0,0,251.09971868876445,55.728639624732985Z" fill-rule="evenodd" style="fill: #184B42; stroke: #fff; opacity: 1;" id="p-type-logs"></path><path d="M289.5233612821959,66.22101835413794A297,297,0,0,1,289.0896672191297,68.089384687577L250.3589957833558,58.96713686749285A257.2095449239783,257.2095449239783,0,0,0,250.7345858594416,57.349084159159034Z" fill-rule="evenodd" style="fill: #184B42; stroke: #fff; opacity: 1;" id="p-type-logs"></path><path d="M289.0896672191297,68.089384687577A297,297,0,0,1,288.6439162554314,69.95491125523276L249.9729641250317,60.58273026651752A257.2095449239783,257.2095449239783,0,0,0,250.3589957833558,58.96713686749285Z" fill-rule="evenodd" style="fill: #184B42; stroke: #fff; opacity: 1;" id="p-type-logs"></path><path d="M288.6439162554314,69.95491125523276A297,297,0,0,1,288.1861269817865,71.81752025263481L249.57650698447517,62.195796975585154A257.2095449239783,257.2095449239783,0,0,0,249.9729641250317,60.58273026651752Z" fill-rule="evenodd" style="fill: #184B42; stroke: #fff; opacity: 1;" id="p-type-logs"></path><path d="M288.1861269817865,71.81752025263481A297,297,0,0,1,287.71631849095553,73.67713399699423L249.16964089650193,63.80626971942713A257.2095449239783,257.2095449239783,0,0,0,249.57650698447517,62.195796975585154Z" fill-rule="evenodd" style="fill: #184B42; stroke: #fff; opacity: 1;" id="p-type-logs"></path><path d="M287.71631849095553,73.67713399699423A297,297,0,0,1,287.2345103769777,75.53367493044345L248.75238283004765,65.41408133095983A257.2095449239783,257.2095449239783,0,0,0,249.16964089650193,63.80626971942713Z" fill-rule="evenodd" style="fill: #184B42; stroke: #fff; opacity: 1;" id="p-type-logs"></path><path d="M287.2345103769777,75.53367493044345A297,297,0,0,1,286.7407227343538,77.38706562327089L248.32475018746052,67.01916475408602A257.2095449239783,257.2095449239783,0,0,0,248.75238283004765,65.41408133095983Z" fill-rule="evenodd" style="fill: #184B42; stroke: #fff; opacity: 1;" id="p-type-logs"></path><path d="M286.7407227343538,77.38706562327089A297,297,0,0,1,286.2349761572082,79.23722877715028L247.88676080377542,68.62145304649151A257.2095449239783,257.2095449239783,0,0,0,248.32475018746052,67.01916475408602Z" fill-rule="evenodd" style="fill: #184B42; stroke: #fff; opacity: 1;" id="p-type-logs"></path><path d="M286.2349761572082,79.23722877715028A297,297,0,0,1,285.71729173842976,81.0840872283645L247.43843294596988,70.220879382437A257.2095449239783,257.2095449239783,0,0,0,247.88676080377542,68.62145304649151Z" fill-rule="evenodd" style="fill: #184B42; stroke: #fff; opacity: 1;" id="p-type-logs"></path><path d="M285.71729173842976,81.0840872283645A297,297,0,0,1,285.18769106879216,82.92756395102384L246.9797853122025,71.81737705554528A257.2095449239783,257.2095449239783,0,0,0,247.43843294596988,70.220879382437Z" fill-rule="evenodd" style="fill: #184B42; stroke: #fff; opacity: 1;" id="p-type-logs"></path><path d="M285.18769106879216,82.92756395102384A297,297,0,0,1,284.64619623605364,84.76758206027844L246.51083703103293,73.41087948158318A257.2095449239783,257.2095449239783,0,0,0,246.9797853122025,71.81737705554528Z" fill-rule="evenodd" style="fill: #184B42; stroke: #fff; opacity: 1;" id="p-type-logs"></path><path d="M284.64619623605364,84.76758206027844A297,297,0,0,1,284.09282982403545,86.60406481552486L246.0316076606241,75.00132020123861A257.2095449239783,257.2095449239783,0,0,0,246.51083703103293,73.41087948158318Z" fill-rule="evenodd" style="fill: #184B42; stroke: #fff; opacity: 1;" id="p-type-logs"></path><path d="M284.09282982403545,86.60406481552486A297,297,0,0,1,283.52761491168025,88.43693562360673L245.54211718792672,76.58863288289243A257.2095449239783,257.2095449239783,0,0,0,246.0316076606241,75.00132020123861Z" fill-rule="evenodd" style="fill: #184B42; stroke: #fff; opacity: 1;" id="p-type-logs"></path><path d="M283.52761491168025,88.43693562360673A297,297,0,0,1,282.95057507208935,90.2661180420091L245.0423860278453,78.17275132538474A257.2095449239783,257.2095449239783,0,0,0,245.54211718792672,76.58863288289243Z" fill-rule="evenodd" style="fill: #184B42; stroke: #fff; opacity: 1;" id="p-type-logs"></path><path d="M282.95057507208935,90.2661180420091A297,297,0,0,1,282.36173437153985,92.09153578204663L244.5324350223872,79.75360946077602A257.2095449239783,257.2095449239783,0,0,0,245.0423860278453,78.17275132538474Z" fill-rule="evenodd" style="fill: #184B42; stroke: #fff; opacity: 1;" id="p-type-logs"></path><path d="M282.36173437153985,92.09153578204663A297,297,0,0,1,281.76111736848054,93.91311271204533L244.012285439793,81.33114135710255A257.2095449239783,257.2095449239783,0,0,0,244.5324350223872,79.75360946077602Z" fill-rule="evenodd" style="fill: #184B42; stroke: #fff; opacity: 1;" id="p-type-logs"></path><path d="M281.76111736848054,93.91311271204533A297,297,0,0,1,281.14874911250797,95.73077286051769L243.48195897364957,82.90528122112622A257.2095449239783,257.2095449239783,0,0,0,244.012285439793,81.33114135710255Z" fill-rule="evenodd" style="fill: #184B42; stroke: #fff; opacity: 1;" id="p-type-logs"></path><path d="M281.14874911250797,95.73077286051769A297,297,0,0,1,280.52465514332164,97.54444041933121L242.94147774198555,84.47596340107843A257.2095449239783,257.2095449239783,0,0,0,243.48195897364957,82.90528122112622Z" fill-rule="evenodd" style="fill: #184B42; stroke: #fff; opacity: 1;" id="p-type-logs"></path><path d="M280.52465514332164,97.54444041933121A297,297,0,0,1,279.8888614896587,99.35403974687013L242.39086428634852,86.04312238939838A257.2095449239783,257.2095449239783,0,0,0,242.94147774198555,84.47596340107843Z" fill-rule="evenodd" style="fill: #184B42; stroke: #fff; opacity: 1;" id="p-type-logs"></path><path d="M279.8888614896587,99.35403974687013A297,297,0,0,1,279.24139466820844,101.15949537119008L241.83014157086504,87.60669282546495A257.2095449239783,257.2095449239783,0,0,0,242.39086428634852,86.04312238939838Z" fill-rule="evenodd" style="fill: #184B42; stroke: #fff; opacity: 1;" id="p-type-logs"></path><path d="M279.24139466820844,101.15949537119008A297,297,0,0,1,278.5822816825066,102.96073199316584L241.25933298128305,89.16660949832281A257.2095449239783,257.2095449239783,0,0,0,241.83014157086504,87.60669282546495Z" fill-rule="evenodd" style="fill: #184B42; stroke: #fff; opacity: 1;" id="p-type-logs"></path><path d="M278.5822816825066,102.96073199316584A297,297,0,0,1,277.91155002180886,104.7576744896317L240.67846232399626,90.72280734940209A257.2095449239783,257.2095449239783,0,0,0,241.25933298128305,89.16660949832281Z" fill-rule="evenodd" style="fill: #184B42; stroke: #fff; opacity: 1;" id="p-type-logs"></path><path d="M277.91155002180886,104.7576744896317A297,297,0,0,1,277.22922765994434,106.55024791651469L240.0875538250514,92.27522147523169A257.2095449239783,257.2095449239783,0,0,0,240.67846232399626,90.72280734940209Z" fill-rule="evenodd" style="fill: #184B42; stroke: #fff; opacity: 1;" id="p-type-logs"></path><path d="M277.22922765994434,106.55024791651469A297,297,0,0,1,276.5353430541492,108.33837751196016L239.48663212913786,93.82378713014624A257.2095449239783,257.2095449239783,0,0,0,240.0875538250514,92.27522147523169Z" fill-rule="evenodd" style="fill: #184B42; stroke: #fff; opacity: 1;" id="p-type-logs"></path><path d="M276.5353430541492,108.33837751196016A297,297,0,0,1,275.8299251438796,110.12198869944982L238.87572229855985,95.36843972898642A257.2095449239783,257.2095449239783,0,0,0,239.48663212913786,93.82378713014624Z" fill-rule="evenodd" style="fill: #184B42; stroke: #fff; opacity: 1;" id="p-type-logs"></path><path d="M275.8299251438796,110.12198869944982A297,297,0,0,1,275.11300334960475,111.9010070909121L238.2548498121911,96.90911484979249A257.2095449239783,257.2095449239783,0,0,0,238.87572229855985,95.36843972898642Z" fill-rule="evenodd" style="fill: #184B42; stroke: #fff; opacity: 1;" id="p-type-logs"></path><path d="M275.11300334960475,111.9010070909121A297,297,0,0,1,274.3846075715798,113.67535848982462L237.62404056441216,98.44574823649118A257.2095449239783,257.2095449239783,0,0,0,238.2548498121911,96.90911484979249Z" fill-rule="evenodd" style="fill: #184B42; stroke: #fff; opacity: 1;" id="p-type-logs"></path><path d="M274.3846075715798,113.67535848982462A297,297,0,0,1,273.6447681885991,115.44496889430863L236.98332086403062,99.97827580157559A257.2095449239783,257.2095449239783,0,0,0,237.62404056441216,98.44574823649118Z" fill-rule="evenodd" style="fill: #184B42; stroke: #fff; opacity: 1;" id="p-type-logs"></path><path d="M273.6447681885991,115.44496889430863A297,297,0,0,1,272.8935160567287,117.20976450021536L236.3327174331837,101.50663362877798A257.2095449239783,257.2095449239783,0,0,0,236.98332086403062,99.97827580157559Z" fill-rule="evenodd" style="fill: #184B42; stroke: #fff; opacity: 1;" id="p-type-logs"></path><path d="M272.8935160567287,117.20976450021536A297,297,0,0,1,272.1308825080202,118.96967170420415L235.67225740622382,103.0307579757355A257.2095449239783,257.2095449239783,0,0,0,236.3327174331837,101.50663362877798Z" fill-rule="evenodd" style="fill: #184B42; stroke: #fff; opacity: 1;" id="p-type-logs"></path><path d="M272.1308825080202,118.96967170420415A297,297,0,0,1,271.3568993492032,120.72461710681218L235.00196832858697,104.55058527664876A257.2095449239783,257.2095449239783,0,0,0,235.67225740622382,103.0307579757355Z" fill-rule="evenodd" style="fill: #184B42; stroke: #fff; opacity: 1;" id="p-type-logs"></path><path d="M271.3568993492032,120.72461710681218A297,297,0,0,1,270.5715988603593,122.47452751551569L234.32187815564382,106.06605214493283A257.2095449239783,257.2095449239783,0,0,0,235.00196832858697,104.55058527664876Z" fill-rule="evenodd" style="fill: #184B42; stroke: #fff; opacity: 1;" id="p-type-logs"></path><path d="M270.5715988603593,122.47452751551569A297,297,0,0,1,269.7750137935756,124.21932994778264L233.63201525153383,107.57709537586088A257.2095449239783,257.2095449239783,0,0,0,234.32187815564382,106.06605214493283Z" fill-rule="evenodd" style="fill: #184B42; stroke: #fff; opacity: 1;" id="p-type-logs"></path><path d="M269.7750137935756,124.21932994778264A297,297,0,0,1,268.96717737157877,125.95895163411647L232.93240838798224,109.0836519492003A257.2095449239783,257.2095449239783,0,0,0,233.63201525153383,107.57709537586088Z" fill-rule="evenodd" style="fill: #184B42; stroke: #fff; opacity: 1;" id="p-type-logs"></path><path d="M268.96717737157877,125.95895163411647A297,297,0,0,1,268.1481232863494,127.69332002109103L232.22308674310017,110.5856590318409A257.2095449239783,257.2095449239783,0,0,0,232.93240838798224,109.0836519492003Z" fill-rule="evenodd" style="fill: #184B42; stroke: #fff; opacity: 1;" id="p-type-logs"></path><path d="M268.1481232863494,127.69332002109103A297,297,0,0,1,267.3178856977169,129.4223627743766L231.5040799001677,112.08305398041561A257.2095449239783,257.2095449239783,0,0,0,232.22308674310017,110.5856590318409Z" fill-rule="evenodd" style="fill: #184B42; stroke: #fff; opacity: 1;" id="p-type-logs"></path><path d="M267.3178856977169,129.4223627743766A297,297,0,0,1,266.4764992319349,131.14600778175677L230.77541784640007,113.57577434391303A257.2095449239783,257.2095449239783,0,0,0,231.5040799001677,112.08305398041561Z" fill-rule="evenodd" style="fill: #184B42; stroke: #fff; opacity: 1;" id="p-type-logs"></path><path d="M266.4764992319349,131.14600778175677A297,297,0,0,1,265.62399898023676,132.8641831561357L230.03713097169688,115.06375786628205A257.2095449239783,257.2095449239783,0,0,0,230.77541784640007,113.57577434391303Z" fill-rule="evenodd" style="fill: #184B42; stroke: #fff; opacity: 1;" id="p-type-logs"></path><path d="M265.62399898023676,132.8641831561357A297,297,0,0,1,264.7604204973725,134.5768172385367L229.28925006737478,116.54694248902835A257.2095449239783,257.2095449239783,0,0,0,230.03713097169688,115.06375786628205Z" fill-rule="evenodd" style="fill: #184B42; stroke: #fff; opacity: 1;" id="p-type-logs"></path><path d="M264.7604204973725,134.5768172385367A297,297,0,0,1,263.8857998001255,136.28383860109045L228.53180632488323,118.02526635380264A257.2095449239783,257.2095449239783,0,0,0,229.28925006737478,116.54694248902835Z" fill-rule="evenodd" style="fill: #184B42; stroke: #fff; opacity: 1;" id="p-type-logs"></path><path d="M263.8857998001255,136.28383860109045A297,297,0,0,1,263.00017336581084,137.9851760500143L227.7648313345037,119.4986678049805A257.2095449239783,257.2095449239783,0,0,0,228.53180632488323,118.02526635380264Z" fill-rule="evenodd" style="fill: #184B42; stroke: #fff; opacity: 1;" id="p-type-logs"></path><path d="M263.00017336581084,137.9851760500143A297,297,0,0,1,262.1035781307535,139.68075862858134L226.98835708403197,120.96708539223388A257.2095449239783,257.2095449239783,0,0,0,227.7648313345037,119.4986678049805Z" fill-rule="evenodd" style="fill: #184B42; stroke: #fff; opacity: 1;" id="p-type-logs"></path><path d="M262.1035781307535,139.68075862858134A297,297,0,0,1,261.19605148874814,141.37051562007989L226.20241595744412,122.43045787309397A257.2095449239783,257.2095449239783,0,0,0,226.98835708403197,120.96708539223388Z" fill-rule="evenodd" style="fill: #184B42; stroke: #fff; opacity: 1;" id="p-type-logs"></path><path d="M261.19605148874814,141.37051562007989A297,297,0,0,1,260.2776312894995,143.0543765507626L225.407040733546,123.88872421550532A257.2095449239783,257.2095449239783,0,0,0,226.20241595744412,122.43045787309397Z" fill-rule="evenodd" style="fill: #184B42; stroke: #fff; opacity: 1;" id="p-type-logs"></path><path d="M260.2776312894995,143.0543765507626A297,297,0,0,1,259.3483558370437,144.73227119278602L224.60226458460605,125.34182360037138A257.2095449239783,257.2095449239783,0,0,0,225.407040733546,123.88872421550532Z" fill-rule="evenodd" style="fill: #184B42; stroke: #fff; opacity: 1;" id="p-type-logs"></path><path d="M132.16791341552496,265.9711312593649A297,297,0,0,1,130.44751077389344,266.81912774929566L112.970858190636,231.0721428464955A257.2095449239783,257.2095449239783,0,0,0,114.46077058302674,230.3377563438954Z" fill-rule="evenodd" style="fill: #AE497E; stroke: #fff; opacity: 1;" id="p-type-tokenTransfers"></path><path d="M130.44751077389344,266.81912774929566A297,297,0,0,1,128.72166763108376,267.6559961634949L111.47623418601562,231.79689215281684A257.2095449239783,257.2095449239783,0,0,0,112.970858190636,231.0721428464955Z" fill-rule="evenodd" style="fill: #AE497E; stroke: #fff; opacity: 1;" id="p-type-tokenTransfers"></path><path d="M128.72166763108376,267.6559961634949A297,297,0,0,1,126.99045596586801,268.481701599161L109.97696090461082,232.5119740361466A257.2095449239783,257.2095449239783,0,0,0,111.47623418601562,231.79689215281684Z" fill-rule="evenodd" style="fill: #AE497E; stroke: #fff; opacity: 1;" id="p-type-tokenTransfers"></path><path d="M126.99045596586801,268.481701599161A297,297,0,0,1,125.25394798092027,269.2962096190604L108.47310087577155,233.21735867296562A257.2095449239783,257.2095449239783,0,0,0,109.97696090461082,232.5119740361466Z" fill-rule="evenodd" style="fill: #AE497E; stroke: #fff; opacity: 1;" id="p-type-tokenTransfers"></path><path d="M125.25394798092027,269.2962096190604A297,297,0,0,1,123.51221609980527,270.09948625296386L106.96471682014472,233.91301664419245A257.2095449239783,257.2095449239783,0,0,0,108.47310087577155,233.21735867296562Z" fill-rule="evenodd" style="fill: #AE497E; stroke: #fff; opacity: 1;" id="p-type-tokenTransfers"></path><path d="M123.51221609980527,270.09948625296386A297,297,0,0,1,121.76533296395782,270.89149799906323L105.4518716470582,234.59891893641023A257.2095449239783,257.2095449239783,0,0,0,106.96471682014472,233.91301664419245Z" fill-rule="evenodd" style="fill: #AE497E; stroke: #fff; opacity: 1;" id="p-type-tokenTransfers"></path><path d="M121.76533296395782,270.89149799906323A297,297,0,0,1,120.01337142965323,271.6722118253689L103.93462845189725,235.27503694307663A257.2095449239783,257.2095449239783,0,0,0,105.4518716470582,234.59891893641023Z" fill-rule="evenodd" style="fill: #AE497E; stroke: #fff; opacity: 1;" id="p-type-tokenTransfers"></path><path d="M120.01337142965323,271.6722118253689A297,297,0,0,1,118.25640456496873,272.441595171087L102.41305051347298,235.94134246571718A257.2095449239783,257.2095449239783,0,0,0,103.93462845189725,235.27503694307663Z" fill-rule="evenodd" style="fill: #AE497E; stroke: #fff; opacity: 1;" id="p-type-tokenTransfers"></path><path d="M118.25640456496873,272.441595171087A297,297,0,0,1,116.49450564673607,273.1996159479778L100.88720129138318,236.59780771510106A257.2095449239783,257.2095449239783,0,0,0,102.41305051347298,235.94134246571718Z" fill-rule="evenodd" style="fill: #AE497E; stroke: #fff; opacity: 1;" id="p-type-tokenTransfers"></path><path d="M116.49450564673607,273.1996159479778A297,297,0,0,1,114.72774815748535,273.94624254169395L99.35714442336564,237.2444053124003A257.2095449239783,257.2095449239783,0,0,0,100.88720129138318,236.59780771510106Z" fill-rule="evenodd" style="fill: #AE497E; stroke: #fff; opacity: 1;" id="p-type-tokenTransfers"></path><path d="M114.72774815748535,273.94624254169395A297,297,0,0,1,112.95620578238042,274.6814438130988L97.82294372264415,237.88110829033147A257.2095449239783,257.2095449239783,0,0,0,99.35714442336564,237.2444053124003Z" fill-rule="evenodd" style="fill: #AE497E; stroke: #fff; opacity: 1;" id="p-type-tokenTransfers"></path><path d="M112.95620578238042,274.6814438130988A297,297,0,0,1,111.17995240614565,275.40518909956506L96.28466317526696,238.50789009428053A257.2095449239783,257.2095449239783,0,0,0,97.82294372264415,237.88110829033147Z" fill-rule="evenodd" style="fill: #AE497E; stroke: #fff; opacity: 1;" id="p-type-tokenTransfers"></path><path d="M111.17995240614565,275.40518909956506A297,297,0,0,1,109.39906210998448,276.1174482162541L94.74236693743819,239.12472458341028A257.2095449239783,257.2095449239783,0,0,0,96.28466317526696,238.50789009428053Z" fill-rule="evenodd" style="fill: #AE497E; stroke: #fff; opacity: 1;" id="p-type-tokenTransfers"></path><path d="M109.39906210998448,276.1174482162541A297,297,0,0,1,107.6136091684898,276.8181914573743L93.19611933284216,239.73158603175062A257.2095449239783,257.2095449239783,0,0,0,94.74236693743819,239.12472458341028Z" fill-rule="evenodd" style="fill: #AE497E; stroke: #fff; opacity: 1;" id="p-type-tokenTransfers"></path><path d="M107.6136091684898,276.8181914573743A297,297,0,0,1,105.82366804654617,277.5073895974203L91.64598484996054,240.32844912927143A257.2095449239783,257.2095449239783,0,0,0,93.19611933284216,239.73158603175062Z" fill-rule="evenodd" style="fill: #AE497E; stroke: #fff; opacity: 1;" id="p-type-tokenTransfers"></path><path d="M105.82366804654617,277.5073895974203A297,297,0,0,1,104.02931339622418,278.18501389239174L90.09202813938296,240.91528898293822A257.2095449239783,257.2095449239783,0,0,0,91.64598484996054,240.32844912927143Z" fill-rule="evenodd" style="fill: #AE497E; stroke: #fff; opacity: 1;" id="p-type-tokenTransfers"></path><path d="M104.02931339622418,278.18501389239174A297,297,0,0,1,102.230620053667,278.8510360809921L88.5343140111105,241.49208111775027A257.2095449239783,257.2095449239783,0,0,0,90.09202813938296,240.91528898293822Z" fill-rule="evenodd" style="fill: #AE497E; stroke: #fff; opacity: 1;" id="p-type-tokenTransfers"></path><path d="M102.230620053667,278.8510360809921A297,297,0,0,1,100.42766303596916,279.5054283858076L86.97290743185273,242.05880147776153A257.2095449239783,257.2095449239783,0,0,0,88.5343140111105,241.49208111775027Z" fill-rule="evenodd" style="fill: #AE497E; stroke: #fff; opacity: 1;" id="p-type-tokenTransfers"></path><path d="M100.42766303596916,279.5054283858076A297,297,0,0,1,98.6205175380479,280.1481635144653L85.40787352231825,242.61542642708378A257.2095449239783,257.2095449239783,0,0,0,86.97290743185273,242.05880147776153Z" fill-rule="evenodd" style="fill: #AE497E; stroke: #fff; opacity: 1;" id="p-type-tokenTransfers"></path><path d="M98.6205175380479,280.1481635144653A297,297,0,0,1,96.80925892950711,280.7792146607716L83.83927755449866,243.1619327508723A257.2095449239783,257.2095449239783,0,0,0,85.40787352231825,242.61542642708378Z" fill-rule="evenodd" style="fill: #AE497E; stroke: #fff; opacity: 1;" id="p-type-tokenTransfers"></path><path d="M96.80925892950711,280.7792146607716A297,297,0,0,1,94.9939627514938,281.39855550583025L82.26718494894635,243.6982976562944A257.2095449239783,257.2095449239783,0,0,0,83.83927755449866,243.1619327508723Z" fill-rule="evenodd" style="fill: #AE497E; stroke: #fff; opacity: 1;" id="p-type-tokenTransfers"></path><path d="M94.9939627514938,281.39855550583025A297,297,0,0,1,93.1747047135477,282.0061602191399L80.69166127204598,244.22449877347972A257.2095449239783,257.2095449239783,0,0,0,82.26718494894635,243.6982976562944Z" fill-rule="evenodd" style="fill: #AE497E; stroke: #fff; opacity: 1;" id="p-type-tokenTransfers"></path><path d="M93.1747047135477,282.0061602191399A297,297,0,0,1,91.35156069044353,282.60200345967155L79.11277223328003,244.7405141564534A257.2095449239783,257.2095449239783,0,0,0,80.69166127204598,244.22449877347972Z" fill-rule="evenodd" style="fill: #AE497E; stroke: #fff; opacity: 1;" id="p-type-tokenTransfers"></path><path d="M91.35156069044353,282.60200345967155A297,297,0,0,1,89.52460671902674,283.1860603769253L77.5305836824882,245.2463222840512A257.2095449239783,257.2095449239783,0,0,0,79.11277223328003,244.7405141564534Z" fill-rule="evenodd" style="fill: #AE497E; stroke: #fff; opacity: 1;" id="p-type-tokenTransfers"></path><path d="M89.52460671902674,283.1860603769253A297,297,0,0,1,87.693918995042,283.7583066119669L75.94516160712111,245.74190206081718A257.2095449239783,257.2095449239783,0,0,0,77.5305836824882,245.2463222840512Z" fill-rule="evenodd" style="fill: #AE497E; stroke: #fff; opacity: 1;" id="p-type-tokenTransfers"></path><path d="M87.693918995042,283.7583066119669A297,297,0,0,1,85.85957386995561,284.31871829844346L74.35657212948814,246.22723281788353A257.2095449239783,257.2095449239783,0,0,0,75.94516160712111,245.74190206081718Z" fill-rule="evenodd" style="fill: #AE497E; stroke: #fff; opacity: 1;" id="p-type-tokenTransfers"></path><path d="M85.85957386995561,284.31871829844346A297,297,0,0,1,84.02164784777104,284.86727206357904L72.76488150399982,246.70229431383257A257.2095449239783,257.2095449239783,0,0,0,74.35657212948814,246.22723281788353Z" fill-rule="evenodd" style="fill: #AE497E; stroke: #fff; opacity: 1;" id="p-type-tokenTransfers"></path><path d="M84.02164784777104,284.86727206357904A297,297,0,0,1,82.18021758183819,285.4039450291494L71.17015611440443,247.16706673554083A257.2095449239783,257.2095449239783,0,0,0,72.76488150399982,246.70229431383257Z" fill-rule="evenodd" style="fill: #AE497E; stroke: #fff; opacity: 1;" id="p-type-tokenTransfers"></path><path d="M82.18021758183819,285.4039450291494A297,297,0,0,1,80.3353598716565,285.92871481243617L69.5724624710195,247.62153069900563A257.2095449239783,257.2095449239783,0,0,0,71.17015611440443,247.16706673554083Z" fill-rule="evenodd" style="fill: #AE497E; stroke: #fff; opacity: 1;" id="p-type-tokenTransfers"></path><path d="M80.3353598716565,285.92871481243617A297,297,0,0,1,78.48715165967191,286.4415595271602L67.97186720795783,248.06566725015324A257.2095449239783,257.2095449239783,0,0,0,69.5724624710195,247.62153069900563Z" fill-rule="evenodd" style="fill: #AE497E; stroke: #fff; opacity: 1;" id="p-type-tokenTransfers"></path><path d="M78.48715165967191,286.4415595271602A297,297,0,0,1,76.63567002806786,286.9424577843946L66.36843708034847,248.4994578656296A257.2095449239783,257.2095449239783,0,0,0,67.97186720795783,248.06566725015324Z" fill-rule="evenodd" style="fill: #AE497E; stroke: #fff; opacity: 1;" id="p-type-tokenTransfers"></path><path d="M76.63567002806786,286.9424577843946A297,297,0,0,1,74.7809921955505,287.43138869345677L64.76223896155257,248.9228844535728A257.2095449239783,257.2095449239783,0,0,0,66.36843708034847,248.4994578656296Z" fill-rule="evenodd" style="fill: #AE497E; stroke: #fff; opacity: 1;" id="p-type-tokenTransfers"></path><path d="M74.7809921955505,287.43138869345677A297,297,0,0,1,72.92319551412805,287.9083318627793L63.15333984037432,249.3359293543676A257.2095449239783,257.2095449239783,0,0,0,64.76223896155257,248.9228844535728Z" fill-rule="evenodd" style="fill: #AE497E; stroke: #fff; opacity: 1;" id="p-type-tokenTransfers"></path><path d="M72.92319551412805,287.9083318627793A297,297,0,0,1,71.06235746588492,288.373267400761L61.54180681826711,249.73857534138193A257.2095449239783,257.2095449239783,0,0,0,63.15333984037432,249.3359293543676Z" fill-rule="evenodd" style="fill: #AE497E; stroke: #fff; opacity: 1;" id="p-type-tokenTransfers"></path><path d="M71.06235746588492,288.373267400761A297,297,0,0,1,69.19855565975001,288.82617591659607L59.92770710653496,250.1308056216854A257.2095449239783,257.2095449239783,0,0,0,61.54180681826711,249.73857534138193Z" fill-rule="evenodd" style="fill: #AE497E; stroke: #fff; opacity: 1;" id="p-type-tokenTransfers"></path><path d="M69.19855565975001,288.82617591659607A297,297,0,0,1,67.33186782826007,289.267038521083L58.311108023529385,250.5126038367497A257.2095449239783,257.2095449239783,0,0,0,59.92770710653496,250.1308056216854Z" fill-rule="evenodd" style="fill: #AE497E; stroke: #fff; opacity: 1;" id="p-type-tokenTransfers"></path><path d="M67.33186782826007,289.267038521083A297,297,0,0,1,65.46237182431766,289.69583682741245L56.692076991841766,250.88395406313072A257.2095449239783,257.2095449239783,0,0,0,58.311108023529385,250.5126038367497Z" fill-rule="evenodd" style="fill: #AE497E; stroke: #fff; opacity: 1;" id="p-type-tokenTransfers"></path><path d="M65.46237182431766,289.69583682741245A297,297,0,0,1,63.59014561794422,290.1125529519339L55.070681535491396,251.2448408131329A257.2095449239783,257.2095449239783,0,0,0,56.692076991841766,250.88395406313072Z" fill-rule="evenodd" style="fill: #AE497E; stroke: #fff; opacity: 1;" id="p-type-tokenTransfers"></path><path d="M63.59014561794422,290.1125529519339A297,297,0,0,1,61.71526729302822,290.51716951490164L53.446989277109324,251.5952490354549A257.2095449239783,257.2095449239783,0,0,0,55.070681535491396,251.2448408131329Z" fill-rule="evenodd" style="fill: #AE497E; stroke: #fff; opacity: 1;" id="p-type-tokenTransfers"></path><path d="M61.71526729302822,290.51716951490164A297,297,0,0,1,59.837815044068535,290.9096696411995L51.82106793511801,251.93516411581749A257.2095449239783,257.2095449239783,0,0,0,53.446989277109324,251.5952490354549Z" fill-rule="evenodd" style="fill: #AE497E; stroke: #fff; opacity: 1;" id="p-type-tokenTransfers"></path><path d="M59.837815044068535,290.9096696411995A297,297,0,0,1,57.95786717291326,291.29003696104496L50.19298532090707,252.26457187757305A257.2095449239783,257.2095449239783,0,0,0,51.82106793511801,251.93516411581749Z" fill-rule="evenodd" style="fill: #AE497E; stroke: #fff; opacity: 1;" id="p-type-tokenTransfers"></path><path d="M57.95786717291326,291.29003696104496A297,297,0,0,1,56.07550208549401,291.6582556106714L48.56280933600508,252.58345858229674A257.2095449239783,257.2095449239783,0,0,0,50.19298532090707,252.26457187757305Z" fill-rule="evenodd" style="fill: #AE497E; stroke: #fff; opacity: 1;" id="p-type-tokenTransfers"></path><path d="M56.07550208549401,291.6582556106714A297,297,0,0,1,54.190798288555854,292.0143102329902L46.93060796924765,252.8918109303597A257.2095449239783,257.2095449239783,0,0,0,48.56280933600508,252.58345858229674Z" fill-rule="evenodd" style="fill: #AE497E; stroke: #fff; opacity: 1;" id="p-type-tokenTransfers"></path><path d="M54.190798288555854,292.0143102329902A297,297,0,0,1,52.303834386383144,292.35818597823084L45.296449293941876,253.18961606148335A257.2095449239783,257.2095449239783,0,0,0,46.93060796924765,252.8918109303597Z" fill-rule="evenodd" style="fill: #AE497E; stroke: #fff; opacity: 1;" id="p-type-tokenTransfers"></path><path d="M52.303834386383144,292.35818597823084A297,297,0,0,1,50.41468907752115,292.6898685045604L43.660401465027185,253.4768615552762A257.2095449239783,257.2095449239783,0,0,0,45.296449293941876,253.18961606148335Z" fill-rule="evenodd" style="fill: #AE497E; stroke: #fff; opacity: 1;" id="p-type-tokenTransfers"></path><path d="M50.41468907752115,292.6898685045604A297,297,0,0,1,48.52344115149386,293.0093439786819L42.022532716232924,253.75353543175146A257.2095449239783,257.2095449239783,0,0,0,43.660401465027185,253.4768615552762Z" fill-rule="evenodd" style="fill: #AE497E; stroke: #fff; opacity: 1;" id="p-type-tokenTransfers"></path><path d="M48.52344115149386,293.0093439786819A297,297,0,0,1,46.63016948551793,293.31659907641074L40.38291135723247,254.0196261518269A257.2095449239783,257.2095449239783,0,0,0,42.022532716232924,253.75353543175146Z" fill-rule="evenodd" style="fill: #AE497E; stroke: #fff; opacity: 1;" id="p-type-tokenTransfers"></path><path d="M46.63016948551793,293.31659907641074A297,297,0,0,1,44.73495304121301,293.611620983231L38.7416057707944,254.27512261780615A257.2095449239783,257.2095449239783,0,0,0,40.38291135723247,254.0196261518269Z" fill-rule="evenodd" style="fill: #AE497E; stroke: #fff; opacity: 1;" id="p-type-tokenTransfers"></path><path d="M44.73495304121301,293.611620983231A297,297,0,0,1,42.83787086130851,293.8943973948293L37.09868440993034,254.52001417384133A257.2095449239783,257.2095449239783,0,0,0,38.7416057707944,254.27512261780615Z" fill-rule="evenodd" style="fill: #AE497E; stroke: #fff; opacity: 1;" id="p-type-tokenTransfers"></path><path d="M42.83787086130851,293.8943973948293A297,297,0,0,1,40.93900206634705,294.16491651760856L35.45421579504017,254.75429060637768A257.2095449239783,257.2095449239783,0,0,0,37.09868440993034,254.52001417384133Z" fill-rule="evenodd" style="fill: #AE497E; stroke: #fff; opacity: 1;" id="p-type-tokenTransfers"></path><path d="M40.93900206634705,294.16491651760856A297,297,0,0,1,39.0384258513846,294.42316706917944L33.808268511054216,254.97794214457937A257.2095449239783,257.2095449239783,0,0,0,35.45421579504017,254.75429060637768Z" fill-rule="evenodd" style="fill: #AE497E; stroke: #fff; opacity: 1;" id="p-type-tokenTransfers"></path><path d="M39.0384258513846,294.42316706917944A297,297,0,0,1,37.136221482687525,294.6691382788309L32.16091120457281,255.19095946073713A257.2095449239783,257.2095449239783,0,0,0,33.808268511054216,254.97794214457937Z" fill-rule="evenodd" style="fill: #AE497E; stroke: #fff; opacity: 1;" id="p-type-tokenTransfers"></path><path d="M37.136221482687525,294.6691382788309A297,297,0,0,1,35.232468294426695,294.9028198879797L30.51221258100331,255.39333367065723A257.2095449239783,257.2095449239783,0,0,0,32.16091120457281,255.19095946073713Z" fill-rule="evenodd" style="fill: #AE497E; stroke: #fff; opacity: 1;" id="p-type-tokenTransfers"></path><path d="M35.232468294426695,294.9028198879797A297,297,0,0,1,33.32724568536873,295.1242021505981L28.862241401694646,255.585056334032A257.2095449239783,257.2095449239783,0,0,0,30.51221258100331,255.39333367065723Z" fill-rule="evenodd" style="fill: #AE497E; stroke: #fff; opacity: 1;" id="p-type-tokenTransfers"></path><path d="M33.32724568536873,295.1242021505981A297,297,0,0,1,31.420633115564552,295.33327583362L27.211066481069498,255.76611945479178A257.2095449239783,257.2095449239783,0,0,0,28.862241401694646,255.585056334032Z" fill-rule="evenodd" style="fill: #AE497E; stroke: #fff; opacity: 1;" id="p-type-tokenTransfers"></path><path d="M31.420633115564552,295.33327583362A297,297,0,0,1,29.512710103035406,295.5300322173268L25.55875668375432,255.93651548143856A257.2095449239783,257.2095449239783,0,0,0,27.211066481069498,255.76611945479178Z" fill-rule="evenodd" style="fill: #AE497E; stroke: #fff; opacity: 1;" id="p-type-tokenTransfers"></path><path d="M29.512710103035406,295.5300322173268A297,297,0,0,1,27.603556220456426,295.71446309571013L23.90538092170723,256.0962373073608A257.2095449239783,257.2095449239783,0,0,0,25.55875668375432,255.93651548143856Z" fill-rule="evenodd" style="fill: #AE497E; stroke: #fff; opacity: 1;" id="p-type-tokenTransfers"></path><path d="M27.603556220456426,295.71446309571013A297,297,0,0,1,25.69325109183796,295.8865607768149L22.25100815134394,256.24527827112996A257.2095449239783,257.2095449239783,0,0,0,23.90538092170723,256.0962373073608Z" fill-rule="evenodd" style="fill: #AE497E; stroke: #fff; opacity: 1;" id="p-type-tokenTransfers"></path><path d="M25.69325109183796,295.8865607768149A297,297,0,0,1,23.781874389204727,296.0463180830596L20.595707370661827,256.38363215677805A257.2095449239783,257.2095449239783,0,0,0,22.25100815134394,256.24527827112996Z" fill-rule="evenodd" style="fill: #AE497E; stroke: #fff; opacity: 1;" id="p-type-tokenTransfers"></path><path d="M23.781874389204727,296.0463180830596A297,297,0,0,1,21.869505829272985,296.1937283515358L18.939547616362272,256.51129319405715A257.2095449239783,257.2095449239783,0,0,0,20.595707370661827,256.38363215677805Z" fill-rule="evenodd" style="fill: #AE497E; stroke: #fff; opacity: 1;" id="p-type-tokenTransfers"></path><path d="M21.869505829272985,296.1937283515358A297,297,0,0,1,19.956225170125823,296.3287854342862L17.282597960971394,256.62825605868A257.2095449239783,257.2095449239783,0,0,0,18.939547616362272,256.51129319405715Z" fill-rule="evenodd" style="fill: #AE497E; stroke: #fff; opacity: 1;" id="p-type-tokenTransfers"></path><path d="M19.956225170125823,296.3287854342862A297,297,0,0,1,18.042112207886742,296.45148369856076L15.624927509959267,256.73451587254203A257.2095449239783,257.2095449239783,0,0,0,17.282597960971394,256.62825605868Z" fill-rule="evenodd" style="fill: #AE497E; stroke: #fff; opacity: 1;" id="p-type-tokenTransfers"></path><path d="M18.042112207886742,296.45148369856076A297,297,0,0,1,16.127246773391644,296.5618180270517L13.966605398857784,256.83006820392467A257.2095449239783,257.2095449239783,0,0,0,15.624927509959267,256.73451587254203Z" fill-rule="evenodd" style="fill: #AE497E; stroke: #fff; opacity: 1;" id="p-type-tokenTransfers"></path><path d="M16.127246773391644,296.5618180270517A297,297,0,0,1,14.211708728859369,296.65978381810714L12.307700790377266,256.9149090676805A257.2095449239783,257.2095449239783,0,0,0,13.966605398857784,256.83006820392467Z" fill-rule="evenodd" style="fill: #AE497E; stroke: #fff; opacity: 1;" id="p-type-tokenTransfers"></path><path d="M14.211708728859369,296.65978381810714A297,297,0,0,1,12.295577964560927,296.74537698592275L10.648282871521923,256.9890349253992A257.2095449239783,257.2095449239783,0,0,0,12.307700790377266,256.9149090676805Z" fill-rule="evenodd" style="fill: #AE497E; stroke: #fff; opacity: 1;" id="p-type-tokenTransfers"></path><path d="M12.295577964560927,296.74537698592275A297,297,0,0,1,10.378934395487551,296.81859396071224L8.988420850704305,257.05244268555515A257.2095449239783,257.2095449239783,0,0,0,10.648282871521923,256.9890349253992Z" fill-rule="evenodd" style="fill: #AE497E; stroke: #fff; opacity: 1;" id="p-type-tokenTransfers"></path><path d="M10.378934395487551,296.81859396071224A297,297,0,0,1,8.461857958017749,296.87943168885636L7.328183954858886,257.1051297036365A257.2095449239783,257.2095449239783,0,0,0,8.988420850704305,257.05244268555515Z" fill-rule="evenodd" style="fill: #AE497E; stroke: #fff; opacity: 1;" id="p-type-tokenTransfers"></path><path d="M8.461857958017749,296.87943168885636A297,297,0,0,1,6.544428606583416,296.9278876330301L5.667641426554835,257.1470937822553A257.2095449239783,257.2095449239783,0,0,0,7.328183954858886,257.1051297036365Z" fill-rule="evenodd" style="fill: #AE497E; stroke: #fff; opacity: 1;" id="p-type-tokenTransfers"></path><path d="M6.544428606583416,296.9278876330301A297,297,0,0,1,4.62672631033524,296.9639597723085L4.006862521108163,257.1783331712393A257.2095449239783,257.2095449239783,0,0,0,5.667641426554835,257.1470937822553Z" fill-rule="evenodd" style="fill: #AE497E; stroke: #fff; opacity: 1;" id="p-type-tokenTransfers"></path><path d="M4.62672631033524,296.9639597723085A297,297,0,0,1,2.7088310498074613,296.9876466022511L2.3459165036933314,257.19884656770466A257.2095449239783,257.2095449239783,0,0,0,4.006862521108163,257.1783331712393Z" fill-rule="evenodd" style="fill: #AE497E; stroke: #fff; opacity: 1;" id="p-type-tokenTransfers"></path><path d="M2.7088310498074613,296.9876466022511A297,297,0,0,1,0.790822813582173,296.9989471349646L0.6848726464544472,257.2086331161109A257.2095449239783,257.2095449239783,0,0,0,2.3459165036933314,257.19884656770466Z" fill-rule="evenodd" style="fill: #AE497E; stroke: #fff; opacity: 1;" id="p-type-tokenTransfers"></path><path d="M0.790822813582173,296.9989471349646A297,297,0,0,1,-1.1272184050467153,296.99786089914403L-0.9761997743838327,257.20769240829577A257.2095449239783,257.2095449239783,0,0,0,0.6848726464544472,257.2086331161109Z" fill-rule="evenodd" style="fill: #AE497E; stroke: #fff; opacity: 1;" id="p-type-tokenTransfers"></path><path d="M-134.1829972948981,264.96022953824104A297,297,0,0,1,-150.83749158192765,255.84575652777966L-130.62909955307077,221.56892460350556A257.2095449239783,257.2095449239783,0,0,0,-116.20588441332035,229.46228977267273Z" fill-rule="evenodd" style="fill: #F09B24; stroke: #fff; opacity: 1;" id="p-type-ether"></path><path d="M-150.83749158192765,255.84575652777966A297,297,0,0,1,-162.24211525547403,248.76996610810855L-140.50579337496333,215.44111034821583A257.2095449239783,257.2095449239783,0,0,0,-130.62909955307077,221.56892460350556Z" fill-rule="evenodd" style="fill: #F09B24; stroke: #fff; opacity: 1;" id="p-type-ether"></path><path d="M-162.24211525547403,248.76996610810855A297,297,0,0,1,-170.18900588119442,243.40234649068356L-147.3880025379336,210.79261540167408A257.2095449239783,257.2095449239783,0,0,0,-140.50579337496333,215.44111034821583Z" fill-rule="evenodd" style="fill: #F09B24; stroke: #fff; opacity: 1;" id="p-type-ether"></path><path d="M-170.18900588119442,243.40234649068356A297,297,0,0,1,-177.7220444745869,237.95771663842498L-153.91180532750008,206.07742763541503A257.2095449239783,257.2095449239783,0,0,0,-147.3880025379336,210.79261540167408Z" fill-rule="evenodd" style="fill: #F09B24; stroke: #fff; opacity: 1;" id="p-type-ether"></path><path d="M-177.7220444745869,237.95771663842498A297,297,0,0,1,-183.7271606693979,233.35237395912912L-159.11238850488377,202.08908388201215A257.2095449239783,257.2095449239783,0,0,0,-153.91180532750008,206.07742763541503Z" fill-rule="evenodd" style="fill: #F09B24; stroke: #fff; opacity: 1;" id="p-type-ether"></path><path d="M-183.7271606693979,233.35237395912912A297,297,0,0,1,-189.49346967738592,228.69461067026833L-164.10615859187243,198.05534254904413A257.2095449239783,257.2095449239783,0,0,0,-159.11238850488377,202.08908388201215Z" fill-rule="evenodd" style="fill: #F09B24; stroke: #fff; opacity: 1;" id="p-type-ether"></path><path d="M-189.49346967738592,228.69461067026833A297,297,0,0,1,-193.9881131925672,224.89466854504963L-167.9986340569744,194.76449613569412A257.2095449239783,257.2095449239783,0,0,0,-164.10615859187243,198.05534254904413Z" fill-rule="evenodd" style="fill: #F09B24; stroke: #fff; opacity: 1;" id="p-type-ether"></path><path d="M-193.9881131925672,224.89466854504963A297,297,0,0,1,-198.40373353302343,221.00895574649695L-171.8226734452768,191.39937014033714A257.2095449239783,257.2095449239783,0,0,0,-167.9986340569744,194.76449613569412Z" fill-rule="evenodd" style="fill: #F09B24; stroke: #fff; opacity: 1;" id="p-type-ether"></path><path d="M-198.40373353302343,221.00895574649695A297,297,0,0,1,-202.70172153101444,217.07374804052904L-175.54484023669764,187.99138029780067A257.2095449239783,257.2095449239783,0,0,0,-171.8226734452768,191.39937014033714Z" fill-rule="evenodd" style="fill: #F09B24; stroke: #fff; opacity: 1;" id="p-type-ether"></path><path d="M-202.70172153101444,217.07374804052904A297,297,0,0,1,-206.8071046856635,213.16618271089112L-179.10020634089238,184.6073294553869A257.2095449239783,257.2095449239783,0,0,0,-175.54484023669764,187.99138029780067Z" fill-rule="evenodd" style="fill: #F09B24; stroke: #fff; opacity: 1;" id="p-type-ether"></path><path d="M-206.8071046856635,213.16618271089112A297,297,0,0,1,-210.83715194742464,209.18101098976115L-182.59032964802947,181.15606950644502A257.2095449239783,257.2095449239783,0,0,0,-179.10020634089238,184.6073294553869Z" fill-rule="evenodd" style="fill: #F09B24; stroke: #fff; opacity: 1;" id="p-type-ether"></path><path d="M-210.83715194742464,209.18101098976115A297,297,0,0,1,-214.7855213292345,205.12479086480246L-186.00971783620147,177.64327983488909A257.2095449239783,257.2095449239783,0,0,0,-182.59032964802947,181.15606950644502Z" fill-rule="evenodd" style="fill: #F09B24; stroke: #fff; opacity: 1;" id="p-type-ether"></path><path d="M-214.7855213292345,205.12479086480246A297,297,0,0,1,-217.71191728062746,202.01614062740936L-188.54405107163973,174.95110975782612A257.2095449239783,257.2095449239783,0,0,0,-186.00971783620147,177.64327983488909Z" fill-rule="evenodd" style="fill: #F09B24; stroke: #fff; opacity: 1;" id="p-type-ether"></path><path d="M-217.71191728062746,202.01614062740936A297,297,0,0,1,-220.49910917261417,198.97020594572342L-190.9578300553222,172.31325294521804A257.2095449239783,257.2095449239783,0,0,0,-188.54405107163973,174.95110975782612Z" fill-rule="evenodd" style="fill: #F09B24; stroke: #fff; opacity: 1;" id="p-type-ether"></path><path d="M-220.49910917261417,198.97020594572342A297,297,0,0,1,-223.0921251347573,196.05841910731044L-193.2034477509567,169.79157157274722A257.2095449239783,257.2095449239783,0,0,0,-190.9578300553222,172.31325294521804Z" fill-rule="evenodd" style="fill: #F09B24; stroke: #fff; opacity: 1;" id="p-type-ether"></path><path d="M-223.0921251347573,196.05841910731044A297,297,0,0,1,-225.54337765330504,193.23349812270806L-195.32629470310965,167.34511823639784A257.2095449239783,257.2095449239783,0,0,0,-193.2034477509567,169.79157157274722Z" fill-rule="evenodd" style="fill: #F09B24; stroke: #fff; opacity: 1;" id="p-type-ether"></path><path d="M-225.54337765330504,193.23349812270806A297,297,0,0,1,-227.36487559260198,191.08692615341488L-196.90375819148178,165.48613237993834A257.2095449239783,257.2095449239783,0,0,0,-195.32629470310965,167.34511823639784Z" fill-rule="evenodd" style="fill: #F09B24; stroke: #fff; opacity: 1;" id="p-type-ether"></path><path d="M-227.36487559260198,191.08692615341488A297,297,0,0,1,-228.77582536702607,189.39541105221107L-198.12567653959698,164.02123733141082A257.2095449239783,257.2095449239783,0,0,0,-196.90375819148178,165.48613237993834Z" fill-rule="evenodd" style="fill: #F09B24; stroke: #fff; opacity: 1;" id="p-type-ether"></path><path d="M-228.77582536702607,189.39541105221107A297,297,0,0,1,-230.0167808116179,187.88635007647608L-199.20037547957813,162.7143521905646A257.2095449239783,257.2095449239783,0,0,0,-198.12567653959698,164.02123733141082Z" fill-rule="evenodd" style="fill: #F09B24; stroke: #fff; opacity: 1;" id="p-type-ether"></path><path d="M-230.0167808116179,187.88635007647608A297,297,0,0,1,-231.22535776633066,186.396979390312L-200.2470338247878,161.42451934069464A257.2095449239783,257.2095449239783,0,0,0,-199.20037547957813,162.7143521905646Z" fill-rule="evenodd" style="fill: #F09B24; stroke: #fff; opacity: 1;" id="p-type-ether"></path><path d="M-231.22535776633066,186.396979390312A297,297,0,0,1,-232.41226744534976,184.91494785687613L-201.27492775881598,160.14104238352957A257.2095449239783,257.2095449239783,0,0,0,-200.2470338247878,161.42451934069464Z" fill-rule="evenodd" style="fill: #F09B24; stroke: #fff; opacity: 1;" id="p-type-ether"></path><path d="M-232.41226744534976,184.91494785687613A297,297,0,0,1,-233.57791363678396,183.44033978677396L-202.28440697242257,158.86399433419555A257.2095449239783,257.2095449239783,0,0,0,-201.27492775881598,160.14104238352957Z" fill-rule="evenodd" style="fill: #F09B24; stroke: #fff; opacity: 1;" id="p-type-ether"></path><path d="M-233.57791363678396,183.44033978677396A297,297,0,0,1,-234.59541248063658,182.13729009469745L-203.16558681952026,157.7355201984638A257.2095449239783,257.2095449239783,0,0,0,-202.28440697242257,158.86399433419555Z" fill-rule="evenodd" style="fill: #F09B24; stroke: #fff; opacity: 1;" id="p-type-ether"></path></g></svg>