<svg xmlns="http://www.w3.org/2000/svg" width="600" height="600" id="block-7913324"><g id="burst-container" transform="translate(300,300)"><data type="text/json">{"number":7913324,"totalTransactions":30,"totalFunctions":299,"totalFunctionsValue":"161.338487795708","totalLogs":61,"totalTokenTransfers":61,"tokens":{"0x4c3345105fcc6cdc29db91058ffaae33cca5bcdb":"1395","0x174bfa6600bf90c885c7c01c7031389ed1461ab9":"5.31129905","0x0000000000085d4780b73119b644ae5ecd22b376":"20002","0xc6abf3c09341741ac6041b0b08195701bdfd460c":"124.831","0xdb25f211ab05b1c97d595516f45794528a807ad8":"0","0x05f02507c7134dbae420ab8c0ef56e999b59da03":"5.6107e-14","0xbd13e53255ef917da7557db1b7d2d5c38a2efe24":"6.49863016154e-7","0x06a6a7af298129e3a2ab396c9c06f91d3c54aba8":"2.6109e-14","0xcde3ef6cacf84ad36d8a6eccc964f25351296d36":"1e-8"},"totalEther":"5.20215553","totalEtherTxns":4,"newContracts":["0x9fb53848885cb035606f2df5425542604b669b8e"],"totalNewContracts":1}</data><circle r="297" style="fill: #f9f9f9; stroke: #f9f9f9; stroke-width: 3; opacity: 1;" id="circle-base"></circle><path display="none" d="M9.093002483669097e-15,-148.5A148.5,148.5,0,1,1,-9.093002483669097e-15,148.5A148.5,148.5,0,1,1,9.093002483669097e-15,-148.5Z" fill-rule="evenodd" id="p-type-root" style="stroke: #fff; opacity: 1;"></path><path d="M1.2859447435097075e-14,-210.0107140124046A210.0107140124046,210.0107140124046,0,1,1,-150.139549877953,-146.84214504850323L-106.16469384299644,-103.83307652777525A148.5,148.5,0,1,0,9.093002483669097e-15,-148.5Z" fill-rule="evenodd" style="fill: #4E4E4E; stroke: #fff; opacity: 1;" id="p-type-data"></path><path d="M-150.139549877953,-146.84214504850323A210.0107140124046,210.0107140124046,0,0,1,-13.372841750260777,-209.5845106479066L-9.456027085343976,-148.19862871079894A148.5,148.5,0,0,0,-106.16469384299644,-103.83307652777525Z" fill-rule="evenodd" style="fill: #3A86AD; stroke: #fff; opacity: 1;" id="p-type-value"></path><path d="M1.5749542295064867e-14,-257.2095449239783A257.2095449239783,257.2095449239783,0,0,1,255.41778156664535,30.30687809018696L208.54774535731067,24.74546233923106A210.0107140124046,210.0107140124046,0,0,0,1.2859447435097075e-14,-210.0107140124046Z" fill-rule="evenodd" style="fill: #6B0E12; stroke: #fff; opacity: 1;" id="p-type-functions"></path><path d="M255.41778156664535,30.30687809018696A257.2095449239783,257.2095449239783,0,0,1,-3.3099317803867603,257.18824691577413L-2.7025479817898104,209.99332426152532A210.0107140124046,210.0107140124046,0,0,0,208.54774535731067,24.74546233923106Z" fill-rule="evenodd" style="fill: #184B42; stroke: #fff; opacity: 1;" id="p-type-logs"></path><path d="M-3.3099317803867603,257.18824691577413A257.2095449239783,257.2095449239783,0,0,1,-228.77146465539053,117.56005681959927L-186.79111870495447,95.987384446872A210.0107140124046,210.0107140124046,0,0,0,-2.7025479817898104,209.99332426152532Z" fill-rule="evenodd" style="fill: #AE497E; stroke: #fff; opacity: 1;" id="p-type-tokenTransfers"></path><path d="M-228.77146465539053,117.56005681959927A257.2095449239783,257.2095449239783,0,0,1,-252.98438302123793,46.42899899161708L-206.56088376495103,37.90911893255218A210.0107140124046,210.0107140124046,0,0,0,-186.79111870495447,95.987384446872Z" fill-rule="evenodd" style="fill: #F09B24; stroke: #fff; opacity: 1;" id="p-type-ether"></path><path d="M-183.8826437060646,-179.84416405229416A257.2095449239783,257.2095449239783,0,0,1,-64.85012013211676,-248.90000385466053L-52.94990136062562,-203.22600214022813A210.0107140124046,210.0107140124046,0,0,0,-150.139549877953,-146.84214504850323Z" fill-rule="evenodd" style="fill: #AE497E; stroke: #fff; opacity: 1;" id="p-type-tokenTransfers"></path><path d="M-64.85012013211676,-248.90000385466053A257.2095449239783,257.2095449239783,0,0,1,-32.69016118778194,-255.12370207708423L-26.691404839800207,-208.30763045956306A210.0107140124046,210.0107140124046,0,0,0,-52.94990136062562,-203.22600214022813Z" fill-rule="evenodd" style="fill: #F09B24; stroke: #fff; opacity: 1;" id="p-type-ether"></path><path d="M1.8186004967338195e-14,-297A297,297,0,0,1,9.460828340727542,-296.84927611012847L8.193317683913829,-257.07901420639234A257.2095449239783,257.2095449239783,0,0,0,1.5749542295064867e-14,-257.2095449239783Z" fill-rule="evenodd" style="fill: #6B0E12; stroke: #fff; opacity: 1;" id="p-type-functions"></path><path d="M9.460828340727542,-296.84927611012847A297,297,0,0,1,18.912054170687917,-296.3972574215979L16.37831934956318,-256.6875545391395A257.2095449239783,257.2095449239783,0,0,0,8.193317683913829,-257.07901420639234Z" fill-rule="evenodd" style="fill: #6B0E12; stroke: #fff; opacity: 1;" id="p-type-functions"></path><path d="M18.912054170687917,-296.3972574215979A297,297,0,0,1,28.34408472542905,-295.6444027223883L24.546697419240033,-256.0355632442655A257.2095449239783,257.2095449239783,0,0,0,16.37831934956318,-256.6875545391395Z" fill-rule="evenodd" style="fill: #6B0E12; stroke: #fff; opacity: 1;" id="p-type-functions"></path><path d="M28.34408472542905,-295.6444027223883A297,297,0,0,1,37.74734672323635,-294.59147614171695L32.69016118778196,-255.12370207708423A257.2095449239783,257.2095449239783,0,0,0,24.546697419240033,-256.0355632442655Z" fill-rule="evenodd" style="fill: #6B0E12; stroke: #fff; opacity: 1;" id="p-type-functions"></path><path d="M37.74734672323635,-294.59147614171695A297,297,0,0,1,47.11229608178132,-293.239546374466L40.80044523743669,-253.9528965545125A257.2095449239783,257.2095449239783,0,0,0,32.69016118778196,-255.12370207708423Z" fill-rule="evenodd" style="fill: #6B0E12; stroke: #fff; opacity: 1;" id="p-type-functions"></path><path d="M47.11229608178132,-293.239546374466A297,297,0,0,1,56.42942760513291,-291.58998559648285L48.86931782705997,-252.5243350156927A257.2095449239783,257.2095449239783,0,0,0,40.80044523743669,-253.9528965545125Z" fill-rule="evenodd" style="fill: #6B0E12; stroke: #fff; opacity: 1;" id="p-type-functions"></path><path d="M56.42942760513291,-291.58998559648285A297,297,0,0,1,65.68928463130014,-289.6444680718554L56.88858924713262,-250.83946741585748A257.2095449239783,257.2095449239783,0,0,0,48.86931782705997,-252.5243350156927Z" fill-rule="evenodd" style="fill: #6B0E12; stroke: #fff; opacity: 1;" id="p-type-functions"></path><path d="M65.68928463130014,-289.6444680718554A297,297,0,0,1,74.88246863051444,-287.40496845357427L64.85012013211683,-248.9000038546605A257.2095449239783,257.2095449239783,0,0,0,56.88858924713262,-250.83946741585748Z" fill-rule="evenodd" style="fill: #6B0E12; stroke: #fff; opacity: 1;" id="p-type-functions"></path><path d="M74.88246863051444,-287.40496845357427A297,297,0,0,1,83.99964874450872,-284.8737597793085L72.74582972171419,-246.7079128404668A257.2095449239783,257.2095449239783,0,0,0,64.85012013211683,-248.9000038546605Z" fill-rule="evenodd" style="fill: #6B0E12; stroke: #fff; opacity: 1;" id="p-type-functions"></path><path d="M83.99964874450872,-284.8737597793085A297,297,0,0,1,93.03157125711165,-282.0534111643271L80.5677040626409,-244.26541929236467A257.2095449239783,257.2095449239783,0,0,0,72.74582972171419,-246.7079128404668Z" fill-rule="evenodd" style="fill: #6B0E12; stroke: #fff; opacity: 1;" id="p-type-functions"></path><path d="M93.03157125711165,-282.0534111643271A297,297,0,0,1,101.96906898654473,-278.9467851939099L88.30780414259569,-241.57500228192686A257.2095449239783,257.2095449239783,0,0,0,80.5677040626409,-244.26541929236467Z" fill-rule="evenodd" style="fill: #6B0E12; stroke: #fff; opacity: 1;" id="p-type-functions"></path><path d="M101.96906898654473,-278.9467851939099A297,297,0,0,1,110.80307058988865,-275.5570350178927L95.95827394816398,-238.63939251701322A257.2095449239783,257.2095449239783,0,0,0,88.30780414259569,-241.57500228192686Z" fill-rule="evenodd" style="fill: #6B0E12; stroke: #fff; opacity: 1;" id="p-type-functions"></path><path d="M110.80307058988865,-275.5570350178927A297,297,0,0,1,119.52460977027623,-271.88760115029737L103.51134843848092,-235.4615695701687A257.2095449239783,257.2095449239783,0,0,0,95.95827394816398,-238.63939251701322Z" fill-rule="evenodd" style="fill: #6B0E12; stroke: #fff; opacity: 1;" id="p-type-functions"></path><path d="M119.52460977027623,-271.88760115029737A297,297,0,0,1,128.1248343774655,-267.94220797729315L110.9593614265589,-232.04475885442935A257.2095449239783,257.2095449239783,0,0,0,103.51134843848092,-235.4615695701687Z" fill-rule="evenodd" style="fill: #6B0E12; stroke: #fff; opacity: 1;" id="p-type-functions"></path><path d="M128.1248343774655,-267.94220797729315A297,297,0,0,1,136.59501539255697,-263.72485997703575L118.29475336028077,-228.39242834960694A257.2095449239783,257.2095449239783,0,0,0,110.9593614265589,-232.04475885442935Z" fill-rule="evenodd" style="fill: #6B0E12; stroke: #fff; opacity: 1;" id="p-type-functions"></path><path d="M136.59501539255697,-263.72485997703575A297,297,0,0,1,144.9265557877358,-259.239837655219L125.51007899516186,-224.50828508237336A257.2095449239783,257.2095449239783,0,0,0,118.29475336028077,-228.39242834960694Z" fill-rule="evenodd" style="fill: #6B0E12; stroke: #fff; opacity: 1;" id="p-type-functions"></path><path d="M144.9265557877358,-259.239837655219A297,297,0,0,1,153.11099925204587,-254.49169320046582L132.5980149510919,-220.3962713637189A257.2095449239783,257.2095449239783,0,0,0,125.51007899516186,-224.50828508237336Z" fill-rule="evenodd" style="fill: #6B0E12; stroke: #fff; opacity: 1;" id="p-type-functions"></path><path d="M153.11099925204587,-254.49169320046582A297,297,0,0,1,161.14003877433984,-249.48524586396738L139.55136714538776,-216.06056078760233A257.2095449239783,257.2095449239783,0,0,0,132.5980149510919,-220.3962713637189Z" fill-rule="evenodd" style="fill: #6B0E12; stroke: #fff; opacity: 1;" id="p-type-functions"></path><path d="M161.14003877433984,-249.48524586396738A297,297,0,0,1,169.00552507469365,-244.22557706806037L146.36307809461263,-211.50555399485452A257.2095449239783,257.2095449239783,0,0,0,139.55136714538776,-216.06056078760233Z" fill-rule="evenodd" style="fill: #6B0E12; stroke: #fff; opacity: 1;" id="p-type-functions"></path><path d="M169.00552507469365,-244.22557706806037A297,297,0,0,1,176.69947487572728,-238.7180252487068L153.02623407775,-206.73587420663512A257.2095449239783,257.2095449239783,0,0,0,146.36307809461263,-211.50555399485452Z" fill-rule="evenodd" style="fill: #6B0E12; stroke: #fff; opacity: 1;" id="p-type-functions"></path><path d="M176.69947487572728,-238.7180252487068A297,297,0,0,1,184.21407900543758,-232.96818043711122L159.53407215346257,-201.7563625319752A257.2095449239783,257.2095449239783,0,0,0,153.02623407775,-206.73587420663512Z" fill-rule="evenodd" style="fill: #6B0E12; stroke: #fff; opacity: 1;" id="p-type-functions"></path><path d="M184.21407900543758,-232.96818043711122A297,297,0,0,1,191.5417103233175,-226.98187858597507L165.879987024313,-196.5720730541695A257.2095449239783,257.2095449239783,0,0,0,159.53407215346257,-201.7563625319752Z" fill-rule="evenodd" style="fill: #6B0E12; stroke: #fff; opacity: 1;" id="p-type-functions"></path><path d="M191.5417103233175,-226.98187858597507A297,297,0,0,1,198.6749314617188,-220.76519564614648L172.0575377409807,-191.1882677010046A257.2095449239783,257.2095449239783,0,0,0,165.879987024313,-196.5720730541695Z" fill-rule="evenodd" style="fill: #6B0E12; stroke: #fff; opacity: 1;" id="p-type-functions"></path><path d="M198.6749314617188,-220.76519564614648A297,297,0,0,1,205.6065023745991,-214.3244413996779L178.06045423966833,-185.61041090403032A257.2095449239783,257.2095449239783,0,0,0,172.0575377409807,-191.1882677010046Z" fill-rule="evenodd" style="fill: #6B0E12; stroke: #fff; opacity: 1;" id="p-type-functions"></path><path d="M205.6065023745991,-214.3244413996779A297,297,0,0,1,212.32938768599269,-207.66615305555075L183.88264370606444,-179.84416405229436A257.2095449239783,257.2095449239783,0,0,0,178.06045423966833,-185.61041090403032Z" fill-rule="evenodd" style="fill: #6B0E12; stroke: #fff; opacity: 1;" id="p-type-functions"></path><path d="M212.32938768599269,-207.66615305555075A297,297,0,0,1,218.836763830746,-200.79708861456703L189.51819675940166,-173.89537974617014A257.2095449239783,257.2095449239783,0,0,0,183.88264370606444,-179.84416405229436Z" fill-rule="evenodd" style="fill: #6B0E12; stroke: #fff; opacity: 1;" id="p-type-functions"></path><path d="M294.9310498866394,34.99536844733322A297,297,0,0,1,293.6666110695231,44.37253140109811L254.32274542949148,38.427739423573676A257.2095449239783,257.2095449239783,0,0,0,255.41778156664535,30.30687809018696Z" fill-rule="evenodd" style="fill: #184B42; stroke: #fff; opacity: 1;" id="p-type-logs"></path><path d="M293.6666110695231,44.37253140109811A297,297,0,0,1,292.1041077813914,53.70465731421505L252.96957788847268,46.50959753564799A257.2095449239783,257.2095449239783,0,0,0,254.32274542949148,38.427739423573676Z" fill-rule="evenodd" style="fill: #184B42; stroke: #fff; opacity: 1;" id="p-type-logs"></path><path d="M292.1041077813914,53.70465731421505A297,297,0,0,1,290.24512592509626,62.98227430575207L251.35965237574675,54.54424953690122A257.2095449239783,257.2095449239783,0,0,0,252.96957788847268,46.50959753564799Z" fill-rule="evenodd" style="fill: #184B42; stroke: #fff; opacity: 1;" id="p-type-logs"></path><path d="M290.24512592509626,62.98227430575207A297,297,0,0,1,288.0915523220289,72.1959658200075L249.49460292657082,62.52354045087953A257.2095449239783,257.2095449239783,0,0,0,251.35965237574675,54.54424953690122Z" fill-rule="evenodd" style="fill: #184B42; stroke: #fff; opacity: 1;" id="p-type-logs"></path><path d="M288.0915523220289,72.1959658200075A297,297,0,0,1,285.6455727970416,81.33638018408499L247.3763225207952,70.43937149128682A257.2095449239783,257.2095449239783,0,0,0,249.49460292657082,62.52354045087953Z" fill-rule="evenodd" style="fill: #184B42; stroke: #fff; opacity: 1;" id="p-type-logs"></path><path d="M285.6455727970416,81.33638018408499A297,297,0,0,1,282.90966995988896,90.39424009961422L245.00696116153512,78.2837082820559A257.2095449239783,257.2095449239783,0,0,0,247.3763225207952,70.43937149128682Z" fill-rule="evenodd" style="fill: #184B42; stroke: #fff; opacity: 1;" id="p-type-logs"></path><path d="M282.90966995988896,90.39424009961422A297,297,0,0,1,279.8866206854392,99.36035205898322L242.38892369296948,86.04858901204493A257.2095449239783,257.2095449239783,0,0,0,245.00696116153512,78.2837082820559Z" fill-rule="evenodd" style="fill: #184B42; stroke: #fff; opacity: 1;" id="p-type-logs"></path><path d="M279.8866206854392,99.36035205898322A297,297,0,0,1,276.5794932952136,108.22561567652504L239.52486735948278,93.72613251608207A257.2095449239783,257.2095449239783,0,0,0,242.38892369296948,86.04858901204493Z" fill-rule="evenodd" style="fill: #184B42; stroke: #fff; opacity: 1;" id="p-type-logs"></path><path d="M276.5794932952136,108.22561567652504A297,297,0,0,1,272.9916444431149,116.98103292518803L236.41769910862652,101.30854627415668A257.2095449239783,257.2095449239783,0,0,0,239.52486735948278,93.72613251608207Z" fill-rule="evenodd" style="fill: #184B42; stroke: #fff; opacity: 1;" id="p-type-logs"></path><path d="M272.9916444431149,116.98103292518803A297,297,0,0,1,269.1267157085052,125.6177172693145L233.07057264063803,108.78813432063754A257.2095449239783,257.2095449239783,0,0,0,236.41769910862652,101.30854627415668Z" fill-rule="evenodd" style="fill: #184B42; stroke: #fff; opacity: 1;" id="p-type-logs"></path><path d="M269.1267157085052,125.6177172693145A297,297,0,0,1,264.98862990009115,134.12690268425834L229.48688520751162,116.15730505549095A257.2095449239783,257.2095449239783,0,0,0,233.07057264063803,108.78813432063754Z" fill-rule="evenodd" style="fill: #184B42; stroke: #fff; opacity: 1;" id="p-type-logs"></path><path d="M264.98862990009115,134.12690268425834A297,297,0,0,1,260.58158707436894,142.49995255368714L225.67027416487022,123.40857894957026A257.2095449239783,257.2095449239783,0,0,0,229.48688520751162,116.15730505549095Z" fill-rule="evenodd" style="fill: #184B42; stroke: #fff; opacity: 1;" id="p-type-logs"></path><path d="M260.58158707436894,142.49995255368714A297,297,0,0,1,255.9100602726686,150.72836843553748L221.62461328013785,130.53459613615598A257.2095449239783,257.2095449239783,0,0,0,225.67027416487022,123.40857894957026Z" fill-rule="evenodd" style="fill: #184B42; stroke: #fff; opacity: 1;" id="p-type-logs"></path><path d="M255.9100602726686,150.72836843553748A297,297,0,0,1,250.97879098112614,158.8037986877272L217.35400880076,137.52812388104167A257.2095449239783,257.2095449239783,0,0,0,221.62461328013785,130.53459613615598Z" fill-rule="evenodd" style="fill: #184B42; stroke: #fff; opacity: 1;" id="p-type-logs"></path><path d="M250.97879098112614,158.8037986877272A297,297,0,0,1,245.79278431819023,166.71804694486923L212.86279528646213,144.38206392358336A257.2095449239783,257.2095449239783,0,0,0,217.35400880076,137.52812388104167Z" fill-rule="evenodd" style="fill: #184B42; stroke: #fff; opacity: 1;" id="p-type-logs"></path><path d="M245.79278431819023,166.71804694486923A297,297,0,0,1,240.35730395454866,174.46308043738287L208.15553120977705,151.0894596812615A257.2095449239783,257.2095449239783,0,0,0,212.86279528646213,144.38206392358336Z" fill-rule="evenodd" style="fill: #184B42; stroke: #fff; opacity: 1;" id="p-type-logs"></path><path d="M240.35730395454866,174.46308043738287A297,297,0,0,1,234.67786677063054,182.03103814455983L203.23699432930601,157.64350331044298A257.2095449239783,257.2095449239783,0,0,0,208.15553120977705,151.0894596812615Z" fill-rule="evenodd" style="fill: #184B42; stroke: #fff; opacity: 1;" id="p-type-logs"></path><path d="M234.67786677063054,182.03103814455983A297,297,0,0,1,228.76023725710684,189.41423877330917L198.11217684040994,164.03754261617715A257.2095449239783,257.2095449239783,0,0,0,203.23699432930601,157.64350331044298Z" fill-rule="evenodd" style="fill: #184B42; stroke: #fff; opacity: 1;" id="p-type-logs"></path><path d="M228.76023725710684,189.41423877330917A297,297,0,0,1,222.6104216640726,196.605188554483L192.78628030825263,170.2650878040118A257.2095449239783,257.2095449239783,0,0,0,198.11217684040994,164.03754261617715Z" fill-rule="evenodd" style="fill: #184B42; stroke: #fff; opacity: 1;" id="p-type-logs"></path><path d="M222.6104216640726,196.605188554483A297,297,0,0,1,216.23466190484874,203.59658884886986L187.26471038833822,176.31981806697686A257.2095449239783,257.2095449239783,0,0,0,192.78628030825263,170.2650878040118Z" fill-rule="evenodd" style="fill: #184B42; stroke: #fff; opacity: 1;" id="p-type-logs"></path><path d="M216.23466190484874,203.59658884886986A297,297,0,0,1,209.6394292205922,210.38134355513634L181.5530713399026,182.19558800104966A257.2095449239783,257.2095449239783,0,0,0,187.26471038833822,176.31981806697686Z" fill-rule="evenodd" style="fill: #184B42; stroke: #fff; opacity: 1;" id="p-type-logs"></path><path d="M209.6394292205922,210.38134355513634A297,297,0,0,1,202.83141761214324,216.95256631219726L175.65716033772645,187.88643384259083A257.2095449239783,257.2095449239783,0,0,0,181.5530713399026,182.19558800104966Z" fill-rule="evenodd" style="fill: #184B42; stroke: #fff; opacity: 1;" id="p-type-logs"></path><path d="M202.83141761214324,216.95256631219726A297,297,0,0,1,195.81753704577739,223.30358748870472L169.58296158814363,193.38657952141924A257.2095449239783,257.2095449239783,0,0,0,175.65716033772645,187.88643384259083Z" fill-rule="evenodd" style="fill: #184B42; stroke: #fff; opacity: 1;" id="p-type-logs"></path><path d="M-3.8219800088111864,296.9754071784602A297,297,0,0,1,-13.280085345643284,296.70294796852363L-11.500891273752531,256.95229031847396A257.2095449239783,257.2095449239783,0,0,0,-3.3099317803867603,257.18824691577413Z" fill-rule="evenodd" style="fill: #AE497E; stroke: #fff; opacity: 1;" id="p-type-tokenTransfers"></path><path d="M-13.280085345643284,296.70294796852363A297,297,0,0,1,-22.72471171869679,296.12934247943434L-19.68017764206935,256.45553339317246A257.2095449239783,257.2095449239783,0,0,0,-11.500891273752531,256.95229031847396Z" fill-rule="evenodd" style="fill: #AE497E; stroke: #fff; opacity: 1;" id="p-type-tokenTransfers"></path><path d="M-22.72471171869679,296.12934247943434A297,297,0,0,1,-32.14627306180786,295.25517290681915L-27.839489108516975,255.69848033607232A257.2095449239783,257.2095449239783,0,0,0,-19.68017764206935,256.45553339317246Z" fill-rule="evenodd" style="fill: #AE497E; stroke: #fff; opacity: 1;" id="p-type-tokenTransfers"></path><path d="M-32.14627306180786,295.25517290681915A297,297,0,0,1,-41.535206719257324,294.08132651154267L-35.97054417031495,254.6818995376221A257.2095449239783,257.2095449239783,0,0,0,-27.839489108516975,255.69848033607232Z" fill-rule="evenodd" style="fill: #AE497E; stroke: #fff; opacity: 1;" id="p-type-tokenTransfers"></path><path d="M-41.535206719257324,294.08132651154267A297,297,0,0,1,-50.88198315163377,292.60899471915906L-44.065090004246635,253.40682280261842A257.2095449239783,257.2095449239783,0,0,0,-35.97054417031495,254.6818995376221Z" fill-rule="evenodd" style="fill: #AE497E; stroke: #fff; opacity: 1;" id="p-type-tokenTransfers"></path><path d="M-50.88198315163377,292.60899471915906A297,297,0,0,1,-60.17711560808432,290.83967191064437L-52.11491084307407,251.87454430294946A257.2095449239783,257.2095449239783,0,0,0,-44.065090004246635,253.40682280261842Z" fill-rule="evenodd" style="fill: #AE497E; stroke: #fff; opacity: 1;" id="p-type-tokenTransfers"></path><path d="M-60.17711560808432,290.83967191064437A297,297,0,0,1,-69.41116975513624,288.7751539056358L-60.11183631434208,250.0866192640417A257.2095449239783,257.2095449239783,0,0,0,-52.11491084307407,251.87454430294946Z" fill-rule="evenodd" style="fill: #AE497E; stroke: #fff; opacity: 1;" id="p-type-tokenTransfers"></path><path d="M-69.41116975513624,288.7751539056358A297,297,0,0,1,-78.57477325231591,286.41753613971883L-68.04774973310761,248.04486238634405A257.2095449239783,257.2095449239783,0,0,0,-60.11183631434208,250.0866192640417Z" fill-rule="evenodd" style="fill: #AE497E; stroke: #fff; opacity: 1;" id="p-type-tokenTransfers"></path><path d="M-78.57477325231591,286.41753613971883A297,297,0,0,1,-87.65862526484669,283.76921153761054L-75.91459634017765,245.75134600345098A257.2095449239783,257.2095449239783,0,0,0,-68.04774973310761,248.04486238634405Z" fill-rule="evenodd" style="fill: #AE497E; stroke: #fff; opacity: 1;" id="p-type-tokenTransfers"></path><path d="M-87.65862526484669,283.76921153761054A297,297,0,0,1,-96.65350590376998,280.83286808439976L-83.70439147749403,243.20839797873433A257.2095449239783,257.2095449239783,0,0,0,-75.91459634017765,245.75134600345098Z" fill-rule="evenodd" style="fill: #AE497E; stroke: #fff; opacity: 1;" id="p-type-tokenTransfers"></path><path d="M-96.65350590376998,280.83286808439976A297,297,0,0,1,-105.55028558390853,277.61148609730714L-91.4092286923672,240.4185993426185A257.2095449239783,257.2095449239783,0,0,0,-83.70439147749403,243.20839797873433Z" fill-rule="evenodd" style="fill: #AE497E; stroke: #fff; opacity: 1;" id="p-type-tokenTransfers"></path><path d="M-105.55028558390853,277.61148609730714A297,297,0,0,1,-114.33993429017328,274.10833520073567L-99.0212877623335,237.38478167289736A257.2095449239783,257.2095449239783,0,0,0,-91.4092286923672,240.4185993426185Z" fill-rule="evenodd" style="fill: #AE497E; stroke: #fff; opacity: 1;" id="p-type-tokenTransfers"></path><path d="M-114.33993429017328,274.10833520073567A297,297,0,0,1,-123.01353074280927,270.3269710076816L-106.53284263249085,234.11002422075168A257.2095449239783,257.2095449239783,0,0,0,-99.0212877623335,237.38478167289736Z" fill-rule="evenodd" style="fill: #AE497E; stroke: #fff; opacity: 1;" id="p-type-tokenTransfers"></path><path d="M-123.01353074280927,270.3269710076816A297,297,0,0,1,-131.56227145227766,266.2712315108735L-113.93626925725668,230.597650785384A257.2095449239783,257.2095449239783,0,0,0,-106.53284263249085,234.11002422075168Z" fill-rule="evenodd" style="fill: #AE497E; stroke: #fff; opacity: 1;" id="p-type-tokenTransfers"></path><path d="M-131.56227145227766,266.2712315108735A297,297,0,0,1,-139.97747965458362,261.94523318730313L-121.22405333858883,226.85122634044316A257.2095449239783,257.2095449239783,0,0,0,-113.93626925725668,230.597650785384Z" fill-rule="evenodd" style="fill: #AE497E; stroke: #fff; opacity: 1;" id="p-type-tokenTransfers"></path><path d="M-139.97747965458362,261.94523318730313A297,297,0,0,1,-148.2506141179808,257.35336682010114L-128.38879795281534,222.8745534156629A257.2095449239783,257.2095449239783,0,0,0,-121.22405333858883,226.85122634044316Z" fill-rule="evenodd" style="fill: #AE497E; stroke: #fff; opacity: 1;" id="p-type-tokenTransfers"></path><path d="M-148.2506141179808,257.35336682010114A297,297,0,0,1,-156.373277812114,252.5002930419991L-135.42323105833222,218.67166823738634A257.2095449239783,257.2095449239783,0,0,0,-128.38879795281534,222.8745534156629Z" fill-rule="evenodd" style="fill: #AE497E; stroke: #fff; opacity: 1;" id="p-type-tokenTransfers"></path><path d="M-264.1625334033894,135.74666090148668A297,297,0,0,1,-282.35097085805927,92.12453123631819L-244.52311354627906,79.7821843623846A257.2095449239783,257.2095449239783,0,0,0,-228.77146465539053,117.56005681959927Z" fill-rule="evenodd" style="fill: #F09B24; stroke: #fff; opacity: 1;" id="p-type-ether"></path><path d="M-282.35097085805927,92.12453123631819A297,297,0,0,1,-282.9016490127844,90.41933966717161L-245.00001481758014,78.3054451451846A257.2095449239783,257.2095449239783,0,0,0,-244.52311354627906,79.7821843623846Z" fill-rule="evenodd" style="fill: #F09B24; stroke: #fff; opacity: 1;" id="p-type-ether"></path></g></svg>