<svg xmlns="http://www.w3.org/2000/svg" width="600" height="600" id="block-7913357"><g id="burst-container" transform="translate(300,300)"><data type="text/json">{"number":7913357,"totalTransactions":52,"totalFunctions":99,"totalFunctionsValue":"0.00081086","totalLogs":38,"totalTokenTransfers":38,"tokens":{"0x174bfa6600bf90c885c7c01c7031389ed1461ab9":"0.74463991","0x3b8a1122316a9520b4ffe867f56a130c1524a64f":"1.358e-11","0xab4e1802c61e12fd7b10a69a226f5d727c76a8aa":"300","0x498d99de4268cebca264887f591c4ba8fac042e4":"2100","0x9aab071b4129b083b01cb5a0cb513ce7eca26fa5":"1340.4","0x06012c8cf97bead5deae237070f9587f8e7a266d":"4.1912e-13","0x5070dc5aa546e8e167c6dab0c45efac6348af74c":"2386","0x80510e56e3f2ef63c07468be6cfb8ffe2468dcc8":"1e-7"},"totalEther":"2.262986063","totalEtherTxns":14,"newContracts":["0x20b2ed7530cf0e805195997c81c0d3ae5815bfe5"],"totalNewContracts":1}</data><circle r="297" style="fill: #f9f9f9; stroke: #f9f9f9; stroke-width: 3; opacity: 1;" id="circle-base"></circle><path display="none" d="M9.093002483669097e-15,-148.5A148.5,148.5,0,1,1,-9.093002483669097e-15,148.5A148.5,148.5,0,1,1,9.093002483669097e-15,-148.5Z" fill-rule="evenodd" id="p-type-root" style="stroke: #fff; opacity: 1;"></path><path d="M1.2859447435097075e-14,-210.0107140124046A210.0107140124046,210.0107140124046,0,1,1,-136.46276936750363,-159.63211636933062L-96.49374959925768,-112.87695197991377A148.5,148.5,0,1,0,9.093002483669097e-15,-148.5Z" fill-rule="evenodd" style="fill: #4E4E4E; stroke: #fff; opacity: 1;" id="p-type-data"></path><path d="M-136.46276936750363,-159.63211636933062A210.0107140124046,210.0107140124046,0,0,1,-9.280861709571667,-209.80554236227366L-6.5625602500927,-148.35492173488518A148.5,148.5,0,0,0,-96.49374959925768,-112.87695197991377Z" fill-rule="evenodd" style="fill: #3A86AD; stroke: #fff; opacity: 1;" id="p-type-value"></path><path d="M1.5749542295064867e-14,-257.2095449239783A257.2095449239783,257.2095449239783,0,0,1,243.32189788881033,83.37388084878476L198.6714976910589,68.07448865170836A210.0107140124046,210.0107140124046,0,0,0,1.2859447435097075e-14,-210.0107140124046Z" fill-rule="evenodd" style="fill: #6B0E12; stroke: #fff; opacity: 1;" id="p-type-functions"></path><path d="M243.32189788881033,83.37388084878476A257.2095449239783,257.2095449239783,0,0,1,-77.61834893372476,245.21855947053143L-63.375116521641466,200.22011538771113A210.0107140124046,210.0107140124046,0,0,0,198.6714976910589,68.07448865170836Z" fill-rule="evenodd" style="fill: #184B42; stroke: #fff; opacity: 1;" id="p-type-logs"></path><path d="M-77.61834893372476,245.21855947053143A257.2095449239783,257.2095449239783,0,0,1,-205.48154393578181,154.7064481583343L-167.77497806731614,126.31728596875244A210.0107140124046,210.0107140124046,0,0,0,-63.375116521641466,200.22011538771113Z" fill-rule="evenodd" style="fill: #AE497E; stroke: #fff; opacity: 1;" id="p-type-tokenTransfers"></path><path d="M-205.48154393578181,154.7064481583343A257.2095449239783,257.2095449239783,0,0,1,-246.76996830839317,72.53504491674794L-201.4868353994463,59.22461617196372A210.0107140124046,210.0107140124046,0,0,0,-167.77497806731614,126.31728596875244Z" fill-rule="evenodd" style="fill: #F09B24; stroke: #fff; opacity: 1;" id="p-type-ether"></path><path d="M-167.1320769187433,-195.50861583272302A257.2095449239783,257.2095449239783,0,0,1,-99.65502534644953,-237.1194338792131L-81.36798746764191,-193.60720703389546A210.0107140124046,210.0107140124046,0,0,0,-136.46276936750363,-159.63211636933062Z" fill-rule="evenodd" style="fill: #F09B24; stroke: #fff; opacity: 1;" id="p-type-ether"></path><path d="M-99.65502534644953,-237.1194338792131A257.2095449239783,257.2095449239783,0,0,1,-22.711166008339287,-256.20490420470423L-18.54358939469102,-209.19042830005657A210.0107140124046,210.0107140124046,0,0,0,-81.36798746764191,-193.60720703389546Z" fill-rule="evenodd" style="fill: #AE497E; stroke: #fff; opacity: 1;" id="p-type-tokenTransfers"></path><path d="M1.8186004967338195e-14,-297A297,297,0,0,1,6.564163674003366,-296.9274520068175L5.68473249628591,-257.14671651888864A257.2095449239783,257.2095449239783,0,0,0,1.5749542295064867e-14,-257.2095449239783Z" fill-rule="evenodd" style="fill: #6B0E12; stroke: #fff; opacity: 1;" id="p-type-functions"></path><path d="M6.564163674003366,-296.9274520068175A297,297,0,0,1,13.125120500185432,-296.7098434697703L11.366687780892502,-256.95826199772546A257.2095449239783,257.2095449239783,0,0,0,5.68473249628591,-257.14671651888864Z" fill-rule="evenodd" style="fill: #6B0E12; stroke: #fff; opacity: 1;" id="p-type-functions"></path><path d="M13.125120500185432,-296.7098434697703A297,297,0,0,1,19.679665197393913,-296.34728069904486L17.043089998915626,-256.6442734278107A257.2095449239783,257.2095449239783,0,0,0,11.366687780892502,-256.95826199772546Z" fill-rule="evenodd" style="fill: #6B0E12; stroke: #fff; opacity: 1;" id="p-type-functions"></path><path d="M19.679665197393913,-296.34728069904486A297,297,0,0,1,26.22459561704976,-295.8399408205765L22.71116600833914,-256.20490420470423A257.2095449239783,257.2095449239783,0,0,0,17.043089998915626,-256.6442734278107Z" fill-rule="evenodd" style="fill: #6B0E12; stroke: #fff; opacity: 1;" id="p-type-functions"></path><path d="M26.22459561704976,-295.8399408205765A297,297,0,0,1,32.7567143075201,-295.18807168951713L28.36814673482159,-255.64036897726393A257.2095449239783,257.2095449239783,0,0,0,22.71116600833914,-256.20490420470423Z" fill-rule="evenodd" style="fill: #6B0E12; stroke: #fff; opacity: 1;" id="p-type-functions"></path><path d="M32.7567143075201,-295.18807168951713A297,297,0,0,1,39.27283007619747,-294.39199176914804L34.011268524496565,-254.95094354278157A257.2095449239783,257.2095449239783,0,0,0,28.36814673482159,-255.64036897726393Z" fill-rule="evenodd" style="fill: #6B0E12; stroke: #fff; opacity: 1;" id="p-type-functions"></path><path d="M39.27283007619747,-294.39199176914804A297,297,0,0,1,45.76975954852039,-293.4520899752984L39.63777449412404,-254.1369647122452A257.2095449239783,257.2095449239783,0,0,0,34.011268524496565,-254.95094354278157Z" fill-rule="evenodd" style="fill: #6B0E12; stroke: #fff; opacity: 1;" id="p-type-functions"></path><path d="M45.76975954852039,-293.4520899752984A297,297,0,0,1,52.24432872317542,-292.3688254863449L45.24491587793494,-253.19883014579392A257.2095449239783,257.2095449239783,0,0,0,39.63777449412404,-254.1369647122452Z" fill-rule="evenodd" style="fill: #6B0E12; stroke: #fff; opacity: 1;" id="p-type-functions"></path><path d="M52.24432872317542,-292.3688254863449A297,297,0,0,1,58.69337452271903,-291.1427275188852L50.82995337050904,-252.13699815844535A257.2095449239783,257.2095449239783,0,0,0,45.24491587793494,-253.19883014579392Z" fill-rule="evenodd" style="fill: #6B0E12; stroke: #fff; opacity: 1;" id="p-type-functions"></path><path d="M58.69337452271903,-291.1427275188852A297,297,0,0,1,65.11374633886385,-289.7743950691953L56.39015846503207,-250.95198749619132A257.2095449239783,257.2095449239783,0,0,0,50.82995337050904,-252.13699815844535Z" fill-rule="evenodd" style="fill: #6B0E12; stroke: #fff; opacity: 1;" id="p-type-functions"></path><path d="M65.11374633886385,-289.7743950691953A297,297,0,0,1,71.502307571672,-288.26449662059673L61.922814786276376,-249.64437708257023A257.2095449239783,257.2095449239783,0,0,0,56.39015846503207,-250.95198749619132Z" fill-rule="evenodd" style="fill: #6B0E12; stroke: #fff; opacity: 1;" id="p-type-functions"></path><path d="M71.502307571672,-288.26449662059673A297,297,0,0,1,77.8559371619062,-286.61376981687624L67.4252194176557,-248.2148057358404A257.2095449239783,257.2095449239783,0,0,0,61.922814786276376,-249.64437708257023Z" fill-rule="evenodd" style="fill: #6B0E12; stroke: #fff; opacity: 1;" id="p-type-functions"></path><path d="M77.8559371619062,-286.61376981687624A297,297,0,0,1,84.17153111578719,-284.82302110191875L72.89468422170405,-246.66397185689289A257.2095449239783,257.2095449239783,0,0,0,67.4252194176557,-248.2148057358404Z" fill-rule="evenodd" style="fill: #6B0E12; stroke: #fff; opacity: 1;" id="p-type-functions"></path><path d="M84.17153111578719,-284.82302110191875A297,297,0,0,1,90.44600402141539,-282.89312532572814L78.32853715333522,-244.99263308805553A257.2095449239783,257.2095449239783,0,0,0,72.89468422170405,-246.66397185689289Z" fill-rule="evenodd" style="fill: #6B0E12; stroke: #fff; opacity: 1;" id="p-type-functions"></path><path d="M90.44600402141539,-282.89312532572814A297,297,0,0,1,96.67629055611334,-280.825025317029L83.72412356523976,-243.2016059429552A257.2095449239783,257.2095449239783,0,0,0,78.32853715333522,-244.99263308805553Z" fill-rule="evenodd" style="fill: #6B0E12; stroke: #fff; opacity: 1;" id="p-type-functions"></path><path d="M96.67629055611334,-280.825025317029A297,297,0,0,1,102.85934698395492,-278.6197314226585L89.07880750478326,-241.2917654076197A257.2095449239783,257.2095449239783,0,0,0,83.72412356523976,-243.2016059429552Z" fill-rule="evenodd" style="fill: #6B0E12; stroke: #fff; opacity: 1;" id="p-type-functions"></path><path d="M102.85934698395492,-278.6197314226585A297,297,0,0,1,108.99215264274764,-276.27832101397314L94.3899730017707,-239.26404451301286A257.2095449239783,257.2095449239783,0,0,0,89.07880750478326,-241.2917654076197Z" fill-rule="evenodd" style="fill: #6B0E12; stroke: #fff; opacity: 1;" id="p-type-functions"></path><path d="M108.99215264274764,-276.27832101397314A297,297,0,0,1,115.07171141974327,-273.80193796051066L99.65502534644956,-237.1194338792131A257.2095449239783,257.2095449239783,0,0,0,94.3899730017707,-239.26404451301286Z" fill-rule="evenodd" style="fill: #6B0E12; stroke: #fff; opacity: 1;" id="p-type-functions"></path><path d="M115.07171141974327,-273.80193796051066A297,297,0,0,1,121.09505321535444,-271.1917920711659L104.87139235712542,-234.85898123145697A257.2095449239783,257.2095449239783,0,0,0,99.65502534644956,-237.1194338792131Z" fill-rule="evenodd" style="fill: #6B0E12; stroke: #fff; opacity: 1;" id="p-type-functions"></path><path d="M121.09505321535444,-271.1917920711659A297,297,0,0,1,127.05923539416362,-268.4491585031522L110.0365256367726,-232.48379088828514A257.2095449239783,257.2095449239783,0,0,0,104.87139235712542,-234.85898123145697Z" fill-rule="evenodd" style="fill: #6B0E12; stroke: #fff; opacity: 1;" id="p-type-functions"></path><path d="M127.05923539416362,-268.4491585031522A297,297,0,0,1,132.96134422251382,-265.57537713903787L115.14790181802428,-229.99502322203986A257.2095449239783,257.2095449239783,0,0,0,110.0365256367726,-232.48379088828514Z" fill-rule="evenodd" style="fill: #6B0E12; stroke: #fff; opacity: 1;" id="p-type-functions"></path><path d="M132.96134422251382,-265.57537713903787A297,297,0,0,1,138.7984962919806,-262.5718519321617L120.20302379593542,-227.39389409197818A257.2095449239783,257.2095449239783,0,0,0,115.14790181802428,-229.99502322203986Z" fill-rule="evenodd" style="fill: #6B0E12; stroke: #fff; opacity: 1;" id="p-type-functions"></path><path d="M138.7984962919806,-262.5718519321617A297,297,0,0,1,144.56783992802823,-259.44005022074754L125.19942194791474,-224.68167425027792A257.2095449239783,257.2095449239783,0,0,0,120.20302379593542,-227.39389409197818Z" fill-rule="evenodd" style="fill: #6B0E12; stroke: #fff; opacity: 1;" id="p-type-functions"></path><path d="M144.56783992802823,-259.44005022074754A297,297,0,0,1,150.26655658316338,-256.1815020110526L130.13465534023126,-221.8596887212258A257.2095449239783,257.2095449239783,0,0,0,125.19942194791474,-224.68167425027792Z" fill-rule="evenodd" style="fill: #6B0E12; stroke: #fff; opacity: 1;" id="p-type-functions"></path><path d="M150.26655658316338,-256.1815020110526A297,297,0,0,1,155.89186221390418,-252.79779922990056L135.00631292050443,-218.9293161538921A257.2095449239783,257.2095449239783,0,0,0,130.13465534023126,-221.8596887212258Z" fill-rule="evenodd" style="fill: #6B0E12; stroke: #fff; opacity: 1;" id="p-type-functions"></path><path d="M155.89186221390418,-252.79779922990056A297,297,0,0,1,161.44100864089341,-249.2905949469634L139.81201469559676,-215.89198814860694A257.2095449239783,257.2095449239783,0,0,0,135.00631292050443,-218.9293161538921Z" fill-rule="evenodd" style="fill: #6B0E12; stroke: #fff; opacity: 1;" id="p-type-functions"></path><path d="M161.44100864089341,-249.2905949469634A297,297,0,0,1,166.91128489149034,-245.66160256717316L144.5494128943324,-212.74918855756843A257.2095449239783,257.2095449239783,0,0,0,139.81201469559676,-215.89198814860694Z" fill-rule="evenodd" style="fill: #6B0E12; stroke: #fff; opacity: 1;" id="p-type-functions"></path><path d="M166.91128489149034,-245.66160256717316A297,297,0,0,1,172.30001852418565,-241.91259499365734L149.21619311447412,-209.50245275992347A257.2095449239783,257.2095449239783,0,0,0,144.5494128943324,-212.74918855756843Z" fill-rule="evenodd" style="fill: #6B0E12; stroke: #fff; opacity: 1;" id="p-type-functions"></path><path d="M172.30001852418565,-241.91259499365734A297,297,0,0,1,177.60457693419244,-238.04540376160705L153.8100754533984,-206.15336691167548A257.2095449239783,257.2095449239783,0,0,0,149.21619311447412,-209.50245275992347Z" fill-rule="evenodd" style="fill: #6B0E12; stroke: #fff; opacity: 1;" id="p-type-functions"></path><path d="M177.60457693419244,-238.04540376160705A297,297,0,0,1,182.8223686395756,-234.06191814350137L158.32881562191594,-202.703567170786A257.2095449239783,257.2095449239783,0,0,0,153.8100754533984,-206.15336691167548Z" fill-rule="evenodd" style="fill: #6B0E12; stroke: #fff; opacity: 1;" id="p-type-functions"></path><path d="M182.8223686395756,-234.06191814350137A297,297,0,0,1,187.9508445472909,-229.96408422612453L162.77020604069386,-199.15473889784815A257.2095449239783,257.2095449239783,0,0,0,158.32881562191594,-202.703567170786Z" fill-rule="evenodd" style="fill: #6B0E12; stroke: #fff; opacity: 1;" id="p-type-functions"></path><path d="M187.9508445472909,-229.96408422612453A297,297,0,0,1,192.98749919851554,-225.7539039598274L167.13207691874345,-195.5086158327229A257.2095449239783,257.2095449239783,0,0,0,162.77020604069386,-199.15473889784815Z" fill-rule="evenodd" style="fill: #6B0E12; stroke: #fff; opacity: 1;" id="p-type-functions"></path><path d="M192.98749919851554,-225.7539039598274A297,297,0,0,1,197.9298719926616,-221.43343418049722L171.41229731344703,-191.76697924754004A257.2095449239783,257.2095449239783,0,0,0,167.13207691874345,-195.5086158327229Z" fill-rule="evenodd" style="fill: #6B0E12; stroke: #fff; opacity: 1;" id="p-type-functions"></path><path d="M197.9298719926616,-221.43343418049722A297,297,0,0,1,202.77554838947472,-217.00478560471382L175.60877617160583,-187.93165707647782A257.2095449239783,257.2095449239783,0,0,0,171.41229731344703,-191.76697924754004Z" fill-rule="evenodd" style="fill: #6B0E12; stroke: #fff; opacity: 1;" id="p-type-functions"></path><path d="M202.77554838947472,-217.00478560471382A297,297,0,0,1,207.5221610886303,-212.47012179858274L179.71946335100037,-184.00452302274647A257.2095449239783,257.2095449239783,0,0,0,175.60877617160583,-187.93165707647782Z" fill-rule="evenodd" style="fill: #6B0E12; stroke: #fff; opacity: 1;" id="p-type-functions"></path><path d="M207.5221610886303,-212.47012179858274A297,297,0,0,1,212.16739118625136,-207.8316581207497L183.74235062196428,-179.98749564321167A257.2095449239783,257.2095449239783,0,0,0,179.71946335100037,-184.00452302274647Z" fill-rule="evenodd" style="fill: #6B0E12; stroke: #fff; opacity: 1;" id="p-type-functions"></path><path d="M212.16739118625136,-207.8316581207497A297,297,0,0,1,216.70896930778258,-203.0916606401123L187.67547264848196,-175.88253741110543A257.2095449239783,257.2095449239783,0,0,0,183.74235062196428,-179.98749564321167Z" fill-rule="evenodd" style="fill: #6B0E12; stroke: #fff; opacity: 1;" id="p-type-functions"></path><path d="M216.70896930778258,-203.0916606401123A297,297,0,0,1,221.14467671666782,-198.25244502875742L191.5169079483314,-171.69165375728187A257.2095449239783,257.2095449239783,0,0,0,187.67547264848196,-175.88253741110543Z" fill-rule="evenodd" style="fill: #6B0E12; stroke: #fff; opacity: 1;" id="p-type-functions"></path><path d="M280.9639264916706,96.27186510285934A297,297,0,0,1,278.7675371019049,102.45809025224929L241.41976888067072,88.73130898168665A257.2095449239783,257.2095449239783,0,0,0,243.32189788881033,83.37388084878476Z" fill-rule="evenodd" style="fill: #184B42; stroke: #fff; opacity: 1;" id="p-type-logs"></path><path d="M278.7675371019049,102.45809025224929A297,297,0,0,1,276.4349589890337,108.59426066202232L239.39969697861267,94.04538843850047A257.2095449239783,257.2095449239783,0,0,0,241.41976888067072,88.73130898168665Z" fill-rule="evenodd" style="fill: #184B42; stroke: #fff; opacity: 1;" id="p-type-logs"></path><path d="M276.4349589890337,108.59426066202232A297,297,0,0,1,273.9673317076767,114.67737857561913L237.26266906588594,99.31352308589149A257.2095449239783,257.2095449239783,0,0,0,239.39969697861267,94.04538843850047Z" fill-rule="evenodd" style="fill: #184B42; stroke: #fff; opacity: 1;" id="p-type-logs"></path><path d="M273.9673317076767,114.67737857561913A297,297,0,0,1,271.36586078919527,120.70447215467658L235.0097291632746,104.53313923634131A257.2095449239783,257.2095449239783,0,0,0,237.26266906588594,99.31352308589149Z" fill-rule="evenodd" style="fill: #184B42; stroke: #fff; opacity: 1;" id="p-type-logs"></path><path d="M271.36586078919527,120.70447215467658A297,297,0,0,1,268.6318171527442,126.67259693088569L232.64197791905275,109.70168690549373A257.2095449239783,257.2095449239783,0,0,0,235.0097291632746,104.53313923634131Z" fill-rule="evenodd" style="fill: #184B42; stroke: #fff; opacity: 1;" id="p-type-logs"></path><path d="M268.6318171527442,126.67259693088569A297,297,0,0,1,265.7665364843778,132.57883724447828L230.16057207127506,114.81664105792069A257.2095449239783,257.2095449239783,0,0,0,232.64197791905275,109.70168690549373Z" fill-rule="evenodd" style="fill: #184B42; stroke: #fff; opacity: 1;" id="p-type-logs"></path><path d="M265.7665364843778,132.57883724447828A297,297,0,0,1,262.7714185845165,138.42030766863948L227.56672388266566,119.87550284069975A257.2095449239783,257.2095449239783,0,0,0,230.16057207127506,114.81664105792069Z" fill-rule="evenodd" style="fill: #184B42; stroke: #fff; opacity: 1;" id="p-type-logs"></path><path d="M262.7714185845165,138.42030766863948A297,297,0,0,1,259.64792668408927,144.1941544191504L224.86170054838075,124.87580080420044A257.2095449239783,257.2095449239783,0,0,0,227.56672388266566,119.87550284069975Z" fill-rule="evenodd" style="fill: #184B42; stroke: #fff; opacity: 1;" id="p-type-logs"></path><path d="M259.64792668408927,144.1941544191504A297,297,0,0,1,256.39758672968946,149.89755674857204L222.04682357693494,129.81509210948292A257.2095449239783,257.2095449239783,0,0,0,224.86170054838075,124.87580080420044Z" fill-rule="evenodd" style="fill: #184B42; stroke: #fff; opacity: 1;" id="p-type-logs"></path><path d="M256.39758672968946,149.89755674857204A297,297,0,0,1,253.02198663809043,155.52772832428948L219.1234681445931,134.69096372171927A257.2095449239783,257.2095449239783,0,0,0,222.04682357693494,129.81509210948292Z" fill-rule="evenodd" style="fill: #184B42; stroke: #fff; opacity: 1;" id="p-type-logs"></path><path d="M253.02198663809043,155.52772832428948A297,297,0,0,1,249.52277552048702,161.0819185897432L216.0930624235436,139.50103358905443A257.2095449239783,257.2095449239783,0,0,0,219.1234681445931,134.69096372171927Z" fill-rule="evenodd" style="fill: #184B42; stroke: #fff; opacity: 1;" id="p-type-logs"></path><path d="M249.52277552048702,161.0819185897432A297,297,0,0,1,245.90166287684087,166.5574141081822L212.95708688418102,144.24295180633047A257.2095449239783,257.2095449239783,0,0,0,216.0930624235436,139.50103358905443Z" fill-rule="evenodd" style="fill: #184B42; stroke: #fff; opacity: 1;" id="p-type-logs"></path><path d="M245.90166287684087,166.5574141081822A297,297,0,0,1,242.16041776072365,171.95153988828307L209.71707357183905,148.91440176310635A257.2095449239783,257.2095449239783,0,0,0,212.95708688418102,144.24295180633047Z" fill-rule="evenodd" style="fill: #184B42; stroke: #fff; opacity: 1;" id="p-type-logs"></path><path d="M242.16041776072365,171.95153988828307A297,297,0,0,1,238.30086791506574,177.26166069098636L206.374605358327,153.51310127541163A257.2095449239783,257.2095449239783,0,0,0,209.71707357183905,148.91440176310635Z" fill-rule="evenodd" style="fill: #184B42; stroke: #fff; opacity: 1;" id="p-type-logs"></path><path d="M238.30086791506574,177.26166069098636A297,297,0,0,1,234.32489887923353,182.485182316913L202.93131516863596,158.0368037006815A257.2095449239783,257.2095449239783,0,0,0,206.374605358327,153.51310127541163Z" fill-rule="evenodd" style="fill: #184B42; stroke: #fff; opacity: 1;" id="p-type-logs"></path><path d="M234.32489887923353,182.485182316913A297,297,0,0,1,230.23445306787008,187.61955287373098L199.38888518319158,162.4832990353287A257.2095449239783,257.2095449239783,0,0,0,202.93131516863596,158.0368037006815Z" fill-rule="evenodd" style="fill: #184B42; stroke: #fff; opacity: 1;" id="p-type-logs"></path><path d="M230.23445306787008,187.61955287373098A297,297,0,0,1,226.03152882195073,192.66226402285335L195.74904601604388,166.85041499441573A257.2095449239783,257.2095449239783,0,0,0,199.38888518319158,162.4832990353287Z" fill-rule="evenodd" style="fill: #184B42; stroke: #fff; opacity: 1;" id="p-type-logs"></path><path d="M226.03152882195073,192.66226402285335A297,297,0,0,1,221.71817943251617,197.61085220485884L192.01357586939542,171.1360180728999A257.2095449239783,257.2095449239783,0,0,0,195.74904601604388,166.85041499441573Z" fill-rule="evenodd" style="fill: #184B42; stroke: #fff; opacity: 1;" id="p-type-logs"></path><path d="M221.71817943251617,197.61085220485884A297,297,0,0,1,217.2965121375603,202.46289984303573L188.18429966488083,175.33801458793337A257.2095449239783,257.2095449239783,0,0,0,192.01357586939542,171.1360180728999Z" fill-rule="evenodd" style="fill: #184B42; stroke: #fff; opacity: 1;" id="p-type-logs"></path><path d="M217.2965121375603,202.46289984303573A297,297,0,0,1,212.76868709256308,207.21603652446154L184.26308815202185,179.45435170170782A257.2095449239783,257.2095449239783,0,0,0,188.18429966488083,175.33801458793337Z" fill-rule="evenodd" style="fill: #184B42; stroke: #fff; opacity: 1;" id="p-type-logs"></path><path d="M212.76868709256308,207.21603652446154A297,297,0,0,1,208.13691631517094,211.86794015804168L180.25185699429383,183.48301842434532A257.2095449239783,257.2095449239783,0,0,0,184.26308815202185,179.45435170170782Z" fill-rule="evenodd" style="fill: #184B42; stroke: #fff; opacity: 1;" id="p-type-logs"></path><path d="M208.13691631517094,211.86794015804168A297,297,0,0,1,203.40346260454064,216.41633810894047L176.15256583325026,187.42204659634476A257.2095449239783,257.2095449239783,0,0,0,180.25185699429383,183.48301842434532Z" fill-rule="evenodd" style="fill: #184B42; stroke: #fff; opacity: 1;" id="p-type-logs"></path><path d="M203.40346260454064,216.41633810894047A297,297,0,0,1,198.57063843587443,220.8590083088513L171.96721733116192,191.26951185010364A257.2095449239783,257.2095449239783,0,0,0,176.15256583325026,187.42204659634476Z" fill-rule="evenodd" style="fill: #184B42; stroke: #fff; opacity: 1;" id="p-type-logs"></path><path d="M198.57063843587443,220.8590083088513A297,297,0,0,1,193.64080483068633,225.1937803415628L167.69785619263882,195.02353455004612A257.2095449239783,257.2095449239783,0,0,0,171.96721733116192,191.26951185010364Z" fill-rule="evenodd" style="fill: #184B42; stroke: #fff; opacity: 1;" id="p-type-logs"></path><path d="M193.64080483068633,225.1937803415628A297,297,0,0,1,188.61637020335203,229.41853650329145L163.3465681657131,198.68228071089794A257.2095449239783,257.2095449239783,0,0,0,167.69785619263882,195.02353455004612Z" fill-rule="evenodd" style="fill: #184B42; stroke: #fff; opacity: 1;" id="p-type-logs"></path><path d="M188.61637020335203,229.41853650329145A297,297,0,0,1,183.49978918450506,233.53121283726122L158.9154790228704,202.24396289365885A257.2095449239783,257.2095449239783,0,0,0,163.3465681657131,198.68228071089794Z" fill-rule="evenodd" style="fill: #184B42; stroke: #fff; opacity: 1;" id="p-type-logs"></path><path d="M183.49978918450506,233.53121283726122A297,297,0,0,1,178.2935614218551,237.5298001420268L154.40675352252765,205.70684107883577A257.2095449239783,257.2095449239783,0,0,0,158.9154790228704,202.24396289365885Z" fill-rule="evenodd" style="fill: #184B42; stroke: #fff; opacity: 1;" id="p-type-logs"></path><path d="M178.2935614218551,237.5298001420268A297,297,0,0,1,173.00023035901302,241.4123449530459L149.82259435146517,209.06922351650977A257.2095449239783,257.2095449239783,0,0,0,154.40675352252765,205.70684107883577Z" fill-rule="evenodd" style="fill: #184B42; stroke: #fff; opacity: 1;" id="p-type-logs"></path><path d="M173.00023035901302,241.4123449530459A297,297,0,0,1,167.62238199292074,245.17695049702237L145.1652410487286,212.32946755282114A257.2095449239783,257.2095449239783,0,0,0,149.82259435146517,209.06922351650977Z" fill-rule="evenodd" style="fill: #184B42; stroke: #fff; opacity: 1;" id="p-type-logs"></path><path d="M167.62238199292074,245.17695049702237A297,297,0,0,1,162.16264361049136,248.82177761855328L140.4369689115278,215.4859804324694A257.2095449239783,257.2095449239783,0,0,0,145.1652410487286,212.32946755282114Z" fill-rule="evenodd" style="fill: #184B42; stroke: #fff; opacity: 1;" id="p-type-logs"></path><path d="M162.16264361049136,248.82177761855328A297,297,0,0,1,156.62368250507802,252.34504567862734L135.6400878836659,218.53722007683587A257.2095449239783,257.2095449239783,0,0,0,140.4369689115278,215.4859804324694Z" fill-rule="evenodd" style="fill: #184B42; stroke: #fff; opacity: 1;" id="p-type-logs"></path><path d="M156.62368250507802,252.34504567862734A297,297,0,0,1,151.00820467339798,255.74503342453622L130.77694142704266,221.48169583734872A257.2095449239783,257.2095449239783,0,0,0,135.6400878836659,218.53722007683587Z" fill-rule="evenodd" style="fill: #184B42; stroke: #fff; opacity: 1;" id="p-type-logs"></path><path d="M151.00820467339798,255.74503342453622A297,297,0,0,1,145.31895349354863,259.02007983077266L125.84990537678252,224.31796922372246A257.2095449239783,257.2095449239783,0,0,0,130.77694142704266,221.48169583734872Z" fill-rule="evenodd" style="fill: #184B42; stroke: #fff; opacity: 1;" id="p-type-logs"></path><path d="M145.31895349354863,259.02007983077266A297,297,0,0,1,139.55870838476093,262.1685849105061L120.8613867805473,227.04465460671597A257.2095449239783,257.2095449239783,0,0,0,125.84990537678252,224.31796922372246Z" fill-rule="evenodd" style="fill: #184B42; stroke: #fff; opacity: 1;" id="p-type-logs"></path><path d="M139.55870838476093,262.1685849105061A297,297,0,0,1,133.73028344954588,265.1890104972378L115.81382272260042,229.66041989506613A257.2095449239783,257.2095449239783,0,0,0,120.8613867805473,227.04465460671597Z" fill-rule="evenodd" style="fill: #184B42; stroke: #fff; opacity: 1;" id="p-type-logs"></path><path d="M-89.62594930188058,283.1540026412071A297,297,0,0,1,-95.86220194675306,281.10396339774354L-83.01910214860223,243.4431734069369A257.2095449239783,257.2095449239783,0,0,0,-77.61834893372476,245.21855947053143Z" fill-rule="evenodd" style="fill: #AE497E; stroke: #fff; opacity: 1;" id="p-type-tokenTransfers"></path><path d="M-95.86220194675306,281.10396339774354A297,297,0,0,1,-102.05162219853939,278.9165939965684L-88.37929732134705,241.54885593805852A257.2095449239783,257.2095449239783,0,0,0,-83.01910214860223,243.4431734069369Z" fill-rule="evenodd" style="fill: #AE497E; stroke: #fff; opacity: 1;" id="p-type-tokenTransfers"></path><path d="M-102.05162219853939,278.9165939965684A297,297,0,0,1,-108.19118628607303,276.59296305222995L-93.69631578931383,239.53653251124177A257.2095449239783,257.2095449239783,0,0,0,-88.37929732134705,241.54885593805852Z" fill-rule="evenodd" style="fill: #AE497E; stroke: #fff; opacity: 1;" id="p-type-tokenTransfers"></path><path d="M-108.19118628607303,276.59296305222995A297,297,0,0,1,-114.27789479485185,274.13420574831L-98.96755998334717,237.4071862243066A257.2095449239783,257.2095449239783,0,0,0,-93.69631578931383,239.53653251124177Z" fill-rule="evenodd" style="fill: #AE497E; stroke: #fff; opacity: 1;" id="p-type-tokenTransfers"></path><path d="M-114.27789479485185,274.13420574831A297,297,0,0,1,-120.30877413236809,271.5415232828431L-104.1904546967949,235.16185734526576A257.2095449239783,257.2095449239783,0,0,0,-98.96755998334717,237.4071862243066Z" fill-rule="evenodd" style="fill: #AE497E; stroke: #fff; opacity: 1;" id="p-type-tokenTransfers"></path><path d="M-120.30877413236809,271.5415232828431A297,297,0,0,1,-126.28087798082338,268.81618228148466L-109.362448343596,232.80164280411404A257.2095449239783,257.2095449239783,0,0,0,-104.1904546967949,235.16185734526576Z" fill-rule="evenodd" style="fill: #AE497E; stroke: #fff; opacity: 1;" id="p-type-tokenTransfers"></path><path d="M-126.28087798082338,268.81618228148466A297,297,0,0,1,-132.19128873651883,265.9595141787154L-114.48101420482902,230.32769565693513A257.2095449239783,257.2095449239783,0,0,0,-109.362448343596,232.80164280411404Z" fill-rule="evenodd" style="fill: #AE497E; stroke: #fff; opacity: 1;" id="p-type-tokenTransfers"></path><path d="M-132.19128873651883,265.9595141787154A297,297,0,0,1,-138.03711893521734,262.972914567384L-119.54365166311217,227.74122452258945A257.2095449239783,257.2095449239783,0,0,0,-114.48101420482902,230.32769565693513Z" fill-rule="evenodd" style="fill: #AE497E; stroke: #fff; opacity: 1;" id="p-type-tokenTransfers"></path><path d="M-138.03711893521734,262.972914567384A297,297,0,0,1,-143.81551266278152,259.85784251690643L-124.54788742425141,225.04349299225694A257.2095449239783,257.2095449239783,0,0,0,-119.54365166311217,227.74122452258945Z" fill-rule="evenodd" style="fill: #AE497E; stroke: #fff; opacity: 1;" id="p-type-tokenTransfers"></path><path d="M-143.81551266278152,259.85784251690643A297,297,0,0,1,-149.52364695039822,256.61581986045337L-129.49127672554047,222.23581901212393A257.2095449239783,257.2095449239783,0,0,0,-124.54788742425141,225.04349299225694Z" fill-rule="evenodd" style="fill: #AE497E; stroke: #fff; opacity: 1;" id="p-type-tokenTransfers"></path><path d="M-149.52364695039822,256.61581986045337A297,297,0,0,1,-155.15873315370794,253.24843045147676L-134.3714045301219,219.3195742395155A257.2095449239783,257.2095449239783,0,0,0,-129.49127672554047,222.23581901212393Z" fill-rule="evenodd" style="fill: #AE497E; stroke: #fff; opacity: 1;" id="p-type-tokenTransfers"></path><path d="M-155.15873315370794,253.24843045147676A297,297,0,0,1,-160.71801831516552,249.75731938993522L-139.18588670682604,216.29618337278765A257.2095449239783,257.2095449239783,0,0,0,-134.3714045301219,219.3195742395155Z" fill-rule="evenodd" style="fill: #AE497E; stroke: #fff; opacity: 1;" id="p-type-tokenTransfers"></path><path d="M-160.71801831516552,249.75731938993522A297,297,0,0,1,-166.1987865089663,246.14419221859987L-143.93237119491124,213.16712345530746A257.2095449239783,257.2095449239783,0,0,0,-139.18588670682604,216.29618337278765Z" fill-rule="evenodd" style="fill: #AE497E; stroke: #fff; opacity: 1;" id="p-type-tokenTransfers"></path><path d="M-166.1987865089663,246.14419221859987A297,297,0,0,1,-171.59836016788088,242.4108140898302L-148.60853915313658,209.9339231538597A257.2095449239783,257.2095449239783,0,0,0,-143.93237119491124,213.16712345530746Z" fill-rule="evenodd" style="fill: #AE497E; stroke: #fff; opacity: 1;" id="p-type-tokenTransfers"></path><path d="M-237.26964940964706,178.63961897917036A297,297,0,0,1,-245.49666923144449,167.1537776906844L-212.6063520988965,144.75941781866925A257.2095449239783,257.2095449239783,0,0,0,-205.48154393578181,154.7064481583343Z" fill-rule="evenodd" style="fill: #F09B24; stroke: #fff; opacity: 1;" id="p-type-ether"></path></g></svg>