<svg xmlns="http://www.w3.org/2000/svg" width="600" height="600" id="block-7913347"><g id="burst-container" transform="translate(300,300)"><data type="text/json">{"number":7913347,"totalTransactions":47,"totalFunctions":258,"totalFunctionsValue":"40.423892033325552175","totalLogs":64,"totalTokenTransfers":64,"tokens":{"0x174bfa6600bf90c885c7c01c7031389ed1461ab9":"0.52859869","0x151a1eb5a1c989cdca7a48c07a1a5ae0ef80ea0d":"25000","0x081d3ccbf23b0edcae2bf05af5f6ecee12c4cdcf":"50","0xbdc5bac39dbe132b1e030e898ae3830017d7d969":"53685.765487514515892348","0xc6abf3c09341741ac6041b0b08195701bdfd460c":"794.545","0x3495ffcee09012ab7d827abf3e3b3ae428a38443":"5","0x0000000000085d4780b73119b644ae5ecd22b376":"2000","0x04abeda201850ac0124161f037efd70c74ddc74c":"1362.978923802058562449","0x8207c1ffc5b6804f6024322ccf34f29c3541ae26":"100","0x6a27348483d59150ae76ef4c0f3622a78b0ca698":"4955","0x6f259637dcd74c767781e37bc6133cd6a68aa161":"4038.7951","0x9aab071b4129b083b01cb5a0cb513ce7eca26fa5":"1854.87"},"totalEther":"21.285584673613065117","totalEtherTxns":12,"newContracts":[],"totalNewContracts":0}</data><circle r="297" style="fill: #f9f9f9; stroke: #f9f9f9; stroke-width: 3; opacity: 1;" id="circle-base"></circle><path display="none" d="M9.093002483669097e-15,-148.5A148.5,148.5,0,1,1,-9.093002483669097e-15,148.5A148.5,148.5,0,1,1,9.093002483669097e-15,-148.5Z" fill-rule="evenodd" id="p-type-root" style="stroke: #fff; opacity: 1;"></path><path d="M1.2859447435097075e-14,-210.0107140124046A210.0107140124046,210.0107140124046,0,1,1,-112.09323224376342,-177.59393932548969L-79.26188464468369,-125.57787879468603A148.5,148.5,0,1,0,9.093002483669097e-15,-148.5Z" fill-rule="evenodd" style="fill: #4E4E4E; stroke: #fff; opacity: 1;" id="p-type-data"></path><path d="M-112.09323224376342,-177.59393932548969A210.0107140124046,210.0107140124046,0,0,1,-8.15257962689987,-209.85241348487526L-5.764744338344192,-148.38806462351857A148.5,148.5,0,0,0,-79.26188464468369,-125.57787879468603Z" fill-rule="evenodd" style="fill: #3A86AD; stroke: #fff; opacity: 1;" id="p-type-value"></path><path d="M1.5749542295064867e-14,-257.2095449239783A257.2095449239783,257.2095449239783,0,0,1,247.17606209979914,71.13890865648867L201.81840959166527,58.08467568895281A210.0107140124046,210.0107140124046,0,0,0,1.2859447435097075e-14,-210.0107140124046Z" fill-rule="evenodd" style="fill: #6B0E12; stroke: #fff; opacity: 1;" id="p-type-functions"></path><path d="M247.17606209979914,71.13890865648867A257.2095449239783,257.2095449239783,0,0,1,-37.452734531066774,254.46815650714618L-30.5800296910098,207.77237974306632A210.0107140124046,210.0107140124046,0,0,0,201.81840959166527,58.08467568895281Z" fill-rule="evenodd" style="fill: #184B42; stroke: #fff; opacity: 1;" id="p-type-logs"></path><path d="M-37.452734531066774,254.46815650714618A257.2095449239783,257.2095449239783,0,0,1,-219.14820484806694,134.65071225905078L-178.93375997489557,109.941846178998A210.0107140124046,210.0107140124046,0,0,0,-30.5800296910098,207.77237974306632Z" fill-rule="evenodd" style="fill: #AE497E; stroke: #fff; opacity: 1;" id="p-type-tokenTransfers"></path><path d="M-219.14820484806694,134.65071225905078A257.2095449239783,257.2095449239783,0,0,1,-256.0431103578409,-24.467849073478572L-209.05832417727748,-19.97791511115088A210.0107140124046,210.0107140124046,0,0,0,-178.93375997489557,109.941846178998Z" fill-rule="evenodd" style="fill: #F09B24; stroke: #fff; opacity: 1;" id="p-type-ether"></path><path d="M-137.28561130825557,-217.50726637912254A257.2095449239783,257.2095449239783,0,0,1,-78.61992934072931,-244.8992787054685L-64.19290349948488,-199.95942373468128A210.0107140124046,210.0107140124046,0,0,0,-112.09323224376342,-177.59393932548969Z" fill-rule="evenodd" style="fill: #AE497E; stroke: #fff; opacity: 1;" id="p-type-tokenTransfers"></path><path d="M-78.61992934072931,-244.8992787054685A257.2095449239783,257.2095449239783,0,0,1,-19.95460757109428,-256.4343261669226L-16.292868855552996,-209.37775054779758A210.0107140124046,210.0107140124046,0,0,0,-64.19290349948488,-199.95942373468128Z" fill-rule="evenodd" style="fill: #F09B24; stroke: #fff; opacity: 1;" id="p-type-ether"></path><path d="M1.8186004967338195e-14,-297A297,297,0,0,1,112.45833979506098,-274.8856522456903L97.39177912994529,-238.05795798062275A257.2095449239783,257.2095449239783,0,0,0,1.5749542295064867e-14,-257.2095449239783Z" fill-rule="evenodd" style="fill: #6B0E12; stroke: #fff; opacity: 1;" id="p-type-functions"></path><path d="M112.45833979506098,-274.8856522456903A297,297,0,0,1,117.77365825109177,-272.65062886807186L101.99497994207223,-236.12237095755304A257.2095449239783,257.2095449239783,0,0,0,97.39177912994529,-238.05795798062275Z" fill-rule="evenodd" style="fill: #6B0E12; stroke: #fff; opacity: 1;" id="p-type-functions"></path><path d="M117.77365825109177,-272.65062886807186A297,297,0,0,1,123.04458518813827,-270.31283738638643L106.55973657104622,-234.09778414566262A257.2095449239783,257.2095449239783,0,0,0,101.99497994207223,-236.12237095755304Z" fill-rule="evenodd" style="fill: #6B0E12; stroke: #fff; opacity: 1;" id="p-type-functions"></path><path d="M123.04458518813827,-270.31283738638643A297,297,0,0,1,128.2691338762587,-267.8731589663929L111.08432845826717,-231.98496065688357A257.2095449239783,257.2095449239783,0,0,0,106.55973657104622,-234.09778414566262Z" fill-rule="evenodd" style="fill: #6B0E12; stroke: #fff; opacity: 1;" id="p-type-functions"></path><path d="M128.2691338762587,-267.8731589663929A297,297,0,0,1,133.445335066508,-265.3325131773101L115.5670501841223,-229.78469686151985A257.2095449239783,257.2095449239783,0,0,0,111.08432845826717,-231.98496065688357Z" fill-rule="evenodd" style="fill: #6B0E12; stroke: #fff; opacity: 1;" id="p-type-functions"></path><path d="M133.445335066508,-265.3325131773101A297,297,0,0,1,138.57123773319145,-262.6918576452101L120.00621211079657,-227.49782208807738A257.2095449239783,257.2095449239783,0,0,0,115.5670501841223,-229.78469686151985Z" fill-rule="evenodd" style="fill: #6B0E12; stroke: #fff; opacity: 1;" id="p-type-functions"></path><path d="M138.57123773319145,-262.6918576452101A297,297,0,0,1,143.64490980924998,-259.95218769206855L124.40014101913499,-225.12519831067183A257.2095449239783,257.2095449239783,0,0,0,120.00621211079657,-227.49782208807738Z" fill-rule="evenodd" style="fill: #6B0E12; stroke: #fff; opacity: 1;" id="p-type-functions"></path><path d="M143.64490980924998,-259.95218769206855A297,297,0,0,1,148.6644389144992,-257.11453596060477L128.74718073931618,-222.66771982413132A257.2095449239783,257.2095449239783,0,0,0,124.40014101913499,-225.12519831067183Z" fill-rule="evenodd" style="fill: #6B0E12; stroke: #fff; opacity: 1;" id="p-type-functions"></path><path d="M148.6644389144992,-257.11453596060477A297,297,0,0,1,153.62793307644816,-254.17997202505623L133.04569277509975,-220.12631290691664A257.2095449239783,257.2095449239783,0,0,0,128.74718073931618,-222.66771982413132Z" fill-rule="evenodd" style="fill: #6B0E12; stroke: #fff; opacity: 1;" id="p-type-functions"></path><path d="M153.62793307644816,-254.17997202505623A297,297,0,0,1,158.5335214434259,-251.14960198803186L137.2940569214119,-217.50193547198634A257.2095449239783,257.2095449239783,0,0,0,133.04569277509975,-220.12631290691664Z" fill-rule="evenodd" style="fill: #6B0E12; stroke: #fff; opacity: 1;" id="p-type-functions"></path><path d="M158.5335214434259,-251.14960198803186A297,297,0,0,1,163.37935498974758,-248.02456806359737L141.4906718750373,-214.7955767057379A257.2095449239783,257.2095449239783,0,0,0,137.2940569214119,-217.50193547198634Z" fill-rule="evenodd" style="fill: #6B0E12; stroke: #fff; opacity: 1;" id="p-type-functions"></path><path d="M163.37935498974758,-248.02456806359737A297,297,0,0,1,168.16360721265303,-244.80604814674933L145.63395583818559,-212.00825669516132A257.2095449239783,257.2095449239783,0,0,0,141.4906718750373,-214.7955767057379Z" fill-rule="evenodd" style="fill: #6B0E12; stroke: #fff; opacity: 1;" id="p-type-functions"></path><path d="M168.16360721265303,-244.80604814674933A297,297,0,0,1,172.8844748207566,-241.4952553694403L149.72234711470634,-209.14102604334565A257.2095449239783,257.2095449239783,0,0,0,145.63395583818559,-212.00825669516132Z" fill-rule="evenodd" style="fill: #6B0E12; stroke: #fff; opacity: 1;" id="p-type-functions"></path><path d="M172.8844748207566,-241.4952553694403A297,297,0,0,1,177.5401784137479,-238.0934376433222L153.75430469872728,-206.1949654734832A257.2095449239783,257.2095449239783,0,0,0,149.72234711470634,-209.14102604334565Z" fill-rule="evenodd" style="fill: #6B0E12; stroke: #fff; opacity: 1;" id="p-type-functions"></path><path d="M177.5401784137479,-238.0934376433222A297,297,0,0,1,182.12896315308743,-234.60187718938084L157.7283088554937,-203.17118542152082A257.2095449239783,257.2095449239783,0,0,0,153.75430469872728,-206.1949654734832Z" fill-rule="evenodd" style="fill: #6B0E12; stroke: #fff; opacity: 1;" id="p-type-functions"></path><path d="M182.12896315308743,-234.60187718938084A297,297,0,0,1,186.6490994234445,-231.02189005463777L161.64286169419037,-200.07082561761186A257.2095449239783,257.2095449239783,0,0,0,157.7283088554937,-203.17118542152082Z" fill-rule="evenodd" style="fill: #6B0E12; stroke: #fff; opacity: 1;" id="p-type-functions"></path><path d="M186.6490994234445,-231.02189005463777A297,297,0,0,1,191.09888348462755,-227.35482561610328L165.49648773252997,-196.8950546565265A257.2095449239783,257.2095449239783,0,0,0,161.64286169419037,-200.07082561761186Z" fill-rule="evenodd" style="fill: #6B0E12; stroke: #fff; opacity: 1;" id="p-type-functions"></path><path d="M191.09888348462755,-227.35482561610328A297,297,0,0,1,195.4766381137622,-223.6020660721659L169.2877344528955,-193.6450695571822A257.2095449239783,257.2095449239783,0,0,0,165.49648773252997,-196.8950546565265Z" fill-rule="evenodd" style="fill: #6B0E12; stroke: #fff; opacity: 1;" id="p-type-functions"></path><path d="M195.4766381137622,-223.6020660721659A297,297,0,0,1,199.78071323747366,-219.76502592161089L173.01517284982629,-190.32209531146069A257.2095449239783,257.2095449239783,0,0,0,169.2877344528955,-193.6450695571822Z" fill-rule="evenodd" style="fill: #6B0E12; stroke: #fff; opacity: 1;" id="p-type-functions"></path><path d="M199.78071323747366,-219.76502592161089A297,297,0,0,1,204.00948655383635,-215.84515143046428L176.67739796864214,-186.92738442248114A257.2095449239783,257.2095449239783,0,0,0,173.01517284982629,-190.32209531146069Z" fill-rule="evenodd" style="fill: #6B0E12; stroke: #fff; opacity: 1;" id="p-type-functions"></path><path d="M204.00948655383635,-215.84515143046428A297,297,0,0,1,208.16136414385568,-211.84392008686282L180.27302943500217,-183.46221643250374A257.2095449239783,257.2095449239783,0,0,0,176.67739796864214,-186.92738442248114Z" fill-rule="evenodd" style="fill: #6B0E12; stroke: #fff; opacity: 1;" id="p-type-functions"></path><path d="M208.16136414385568,-211.84392008686282A297,297,0,0,1,212.23478107225148,-207.7628400441558L183.80071197519854,-179.92789744064177A257.2095449239783,257.2095449239783,0,0,0,180.27302943500217,-183.46221643250374Z" fill-rule="evenodd" style="fill: #6B0E12; stroke: #fff; opacity: 1;" id="p-type-functions"></path><path d="M212.23478107225148,-207.7628400441558A297,297,0,0,1,216.2282019773174,-203.60344955244844L187.25911592698947,-176.32575961056375A257.2095449239783,257.2095449239783,0,0,0,183.80071197519854,-179.92789744064177Z" fill-rule="evenodd" style="fill: #6B0E12; stroke: #fff; opacity: 1;" id="p-type-functions"></path><path d="M216.2282019773174,-203.60344955244844A297,297,0,0,1,220.14012164963265,-199.367316378801L190.64693774077855,-172.6571606683711A257.2095449239783,257.2095449239783,0,0,0,187.25911592698947,-176.32575961056375Z" fill-rule="evenodd" style="fill: #6B0E12; stroke: #fff; opacity: 1;" id="p-type-functions"></path><path d="M220.14012164963265,-199.367316378801A297,297,0,0,1,223.96906559940905,-195.05603721630254L193.96290047095167,-168.92348339084091A257.2095449239783,257.2095449239783,0,0,0,190.64693774077855,-172.6571606683711Z" fill-rule="evenodd" style="fill: #6B0E12; stroke: #fff; opacity: 1;" id="p-type-functions"></path><path d="M223.96906559940905,-195.05603721630254A297,297,0,0,1,227.71359061225937,-190.6712370822415L197.20575425718627,-165.12613508422663A257.2095449239783,257.2095449239783,0,0,0,193.96290047095167,-168.92348339084091Z" fill-rule="evenodd" style="fill: #6B0E12; stroke: #fff; opacity: 1;" id="p-type-functions"></path><path d="M227.71359061225937,-190.6712370822415A297,297,0,0,1,231.37228529317665,-186.21456870560067L200.37427679555165,-161.26654705381293A257.2095449239783,257.2095449239783,0,0,0,197.20575425718627,-165.12613508422663Z" fill-rule="evenodd" style="fill: #6B0E12; stroke: #fff; opacity: 1;" id="p-type-functions"></path><path d="M231.37228529317665,-186.21456870560067A297,297,0,0,1,234.9437705985208,-181.68771190410655L203.46727379922254,-157.34617406442464A257.2095449239783,257.2095449239783,0,0,0,200.37427679555165,-161.26654705381293Z" fill-rule="evenodd" style="fill: #6B0E12; stroke: #fff; opacity: 1;" id="p-type-functions"></path><path d="M234.9437705985208,-181.68771190410655A297,297,0,0,1,238.42670035581082,-177.09237295106868L206.48357944863244,-153.36649379209365A257.2095449239783,257.2095449239783,0,0,0,203.46727379922254,-157.34617406442464Z" fill-rule="evenodd" style="fill: #6B0E12; stroke: #fff; opacity: 1;" id="p-type-functions"></path><path d="M238.42670035581082,-177.09237295106868A297,297,0,0,1,241.819761771127,-172.43028393224725L209.42205683089702,-149.32900626708982A257.2095449239783,257.2095449239783,0,0,0,206.48357944863244,-153.36649379209365Z" fill-rule="evenodd" style="fill: #6B0E12; stroke: #fff; opacity: 1;" id="p-type-functions"></path><path d="M241.819761771127,-172.43028393224725A297,297,0,0,1,245.12167592393251,-167.70320209299106L212.28159836834197,-145.2352333085259A257.2095449239783,257.2095449239783,0,0,0,209.42205683089702,-149.32900626708982Z" fill-rule="evenodd" style="fill: #6B0E12; stroke: #fff; opacity: 1;" id="p-type-functions"></path><path d="M245.12167592393251,-167.70320209299106A297,297,0,0,1,248.3311982491271,-162.9129091758929L215.0611262359738,-141.08671795075026A257.2095449239783,257.2095449239783,0,0,0,212.28159836834197,-145.2352333085259Z" fill-rule="evenodd" style="fill: #6B0E12; stroke: #fff; opacity: 1;" id="p-type-functions"></path><path d="M248.3311982491271,-162.9129091758929A297,297,0,0,1,251.44711900615118,-158.06121074921083L217.75959276773588,-136.88502386174258A257.2095449239783,257.2095449239783,0,0,0,215.0611262359738,-141.08671795075026Z" fill-rule="evenodd" style="fill: #6B0E12; stroke: #fff; opacity: 1;" id="p-type-functions"></path><path d="M251.44711900615118,-158.06121074921083A297,297,0,0,1,254.4682637349643,-153.1499355263092L220.3759808513975,-132.63173475373267A257.2095449239783,257.2095449239783,0,0,0,217.75959276773588,-136.88502386174258Z" fill-rule="evenodd" style="fill: #6B0E12; stroke: #fff; opacity: 1;" id="p-type-functions"></path><path d="M254.4682637349643,-153.1499355263092A297,297,0,0,1,257.3934936987251,-148.18093467637584L222.90930431192578,-128.3284537862639A257.2095449239783,257.2095449239783,0,0,0,220.3759808513975,-132.63173475373267Z" fill-rule="evenodd" style="fill: #6B0E12; stroke: #fff; opacity: 1;" id="p-type-functions"></path><path d="M257.3934936987251,-148.18093467637584A297,297,0,0,1,260.2217063130069,-143.1560811266751L225.3586082831974,-123.97680296192667A257.2095449239783,257.2095449239783,0,0,0,222.90930431192578,-128.3284537862639Z" fill-rule="evenodd" style="fill: #6B0E12; stroke: #fff; opacity: 1;" id="p-type-functions"></path><path d="M285.4143319811014,82.14413612535986A297,297,0,0,1,283.7658313410541,87.66956691646443L245.7484186673633,75.92407208843797A257.2095449239783,257.2095449239783,0,0,0,247.17606209979914,71.13890865648867Z" fill-rule="evenodd" style="fill: #184B42; stroke: #fff; opacity: 1;" id="p-type-logs"></path><path d="M283.7658313410541,87.66956691646443A297,297,0,0,1,282.0103730291799,93.16195309214385L244.22814717399567,80.68061804397081A257.2095449239783,257.2095449239783,0,0,0,245.7484186673633,75.92407208843797Z" fill-rule="evenodd" style="fill: #184B42; stroke: #fff; opacity: 1;" id="p-type-logs"></path><path d="M282.0103730291799,93.16195309214385A297,297,0,0,1,280.14861871687566,98.61922444952927L242.61582064393497,85.40675367481177A257.2095449239783,257.2095449239783,0,0,0,244.22814717399567,80.68061804397081Z" fill-rule="evenodd" style="fill: #184B42; stroke: #fff; opacity: 1;" id="p-type-logs"></path><path d="M280.14861871687566,98.61922444952927A297,297,0,0,1,278.1812701408721,104.03932402131015L240.91204679901674,90.10069759501518A257.2095449239783,257.2095449239783,0,0,0,242.61582064393497,85.40675367481177Z" fill-rule="evenodd" style="fill: #184B42; stroke: #fff; opacity: 1;" id="p-type-logs"></path><path d="M278.1812701408721,104.03932402131015A297,297,0,0,1,276.10906883873326,109.42020885105117L239.11746782960932,94.7606805524092A257.2095449239783,257.2095449239783,0,0,0,240.91204679901674,90.10069759501518Z" fill-rule="evenodd" style="fill: #184B42; stroke: #fff; opacity: 1;" id="p-type-logs"></path><path d="M276.10906883873326,109.42020885105117A297,297,0,0,1,273.93279586935483,114.75985076322802L237.23276015255826,99.38494609546646A257.2095449239783,257.2095449239783,0,0,0,239.11746782960932,94.7606805524092Z" fill-rule="evenodd" style="fill: #184B42; stroke: #fff; opacity: 1;" id="p-type-logs"></path><path d="M273.93279586935483,114.75985076322802A297,297,0,0,1,271.65327151856536,120.05623712769203L235.2586341562293,103.97175123534981A257.2095449239783,257.2095449239783,0,0,0,237.23276015255826,99.38494609546646Z" fill-rule="evenodd" style="fill: #184B42; stroke: #fff; opacity: 1;" id="p-type-logs"></path><path d="M271.65327151856536,120.05623712769203A297,297,0,0,1,269.2713549899421,125.3073716182754L233.19583393274755,108.51936710288366A257.2095449239783,257.2095449239783,0,0,0,235.2586341562293,103.97175123534981Z" fill-rule="evenodd" style="fill: #184B42; stroke: #fff; opacity: 1;" id="p-type-logs"></path><path d="M269.2713549899421,125.3073716182754A297,297,0,0,1,266.7879440809585,130.51127496525106L231.04513699753232,113.02607960020345A257.2095449239783,257.2095449239783,0,0,0,233.19583393274755,108.51936710288366Z" fill-rule="evenodd" style="fill: #184B42; stroke: #fff; opacity: 1;" id="p-type-logs"></path><path d="M266.7879440809585,130.51127496525106A297,297,0,0,1,264.20397484458374,135.66598570136347L228.80735399623433,117.49019004683718A257.2095449239783,257.2095449239783,0,0,0,231.04513699753232,113.02607960020345Z" fill-rule="evenodd" style="fill: #184B42; stroke: #fff; opacity: 1;" id="p-type-logs"></path><path d="M264.20397484458374,135.66598570136347A297,297,0,0,1,261.520421236464,140.76956090114948L226.48332839918524,121.91001581997611A257.2095449239783,257.2095449239783,0,0,0,228.80735399623433,117.49019004683718Z" fill-rule="evenodd" style="fill: #184B42; stroke: #fff; opacity: 1;" id="p-type-logs"></path><path d="M261.520421236464,140.76956090114948A297,297,0,0,1,258.73829474781644,145.82007691327033L224.0739361834748,126.28389098869283A257.2095449239783,257.2095449239783,0,0,0,226.48332839918524,121.91001581997611Z" fill-rule="evenodd" style="fill: #184B42; stroke: #fff; opacity: 1;" id="p-type-logs"></path><path d="M258.73829474781644,145.82007691327033A297,297,0,0,1,255.8586440241758,150.81563008557862L221.5800855027758,130.61016694186776A257.2095449239783,257.2095449239783,0,0,0,224.0739361834748,126.28389098869283Z" fill-rule="evenodd" style="fill: #184B42; stroke: #fff; opacity: 1;" id="p-type-logs"></path><path d="M255.8586440241758,150.81563008557862A297,297,0,0,1,252.88255447013654,155.7543374826474L219.0027163450403,134.88721300958744A257.2095449239783,257.2095449239783,0,0,0,221.5800855027758,130.61016694186776Z" fill-rule="evenodd" style="fill: #184B42; stroke: #fff; opacity: 1;" id="p-type-logs"></path><path d="M252.88255447013654,155.7543374826474A297,297,0,0,1,249.81114784023953,160.63433759549042L216.34280017819754,139.11341707778044A257.2095449239783,257.2095449239783,0,0,0,219.0027163450403,134.88721300958744Z" fill-rule="evenodd" style="fill: #184B42; stroke: #fff; opacity: 1;" id="p-type-logs"></path><path d="M249.81114784023953,160.63433759549042A297,297,0,0,1,246.64558181615774,165.4537910432065L213.6013395839858,143.28718619585905A257.2095449239783,257.2095449239783,0,0,0,216.34280017819754,139.11341707778044Z" fill-rule="evenodd" style="fill: #184B42; stroke: #fff; opacity: 1;" id="p-type-logs"></path><path d="M246.64558181615774,165.4537910432065A297,297,0,0,1,243.38704957034025,170.21088126628314L210.77936788005712,147.40694717713802A257.2095449239783,257.2095449239783,0,0,0,213.6013395839858,143.28718619585905Z" fill-rule="evenodd" style="fill: #184B42; stroke: #fff; opacity: 1;" id="p-type-logs"></path><path d="M243.38704957034025,170.21088126628314A297,297,0,0,1,240.03677931627897,174.9038152112983L207.87794873049668,151.47114719180345A257.2095449239783,257.2095449239783,0,0,0,210.77936788005712,147.40694717713802Z" fill-rule="evenodd" style="fill: #184B42; stroke: #fff; opacity: 1;" id="p-type-logs"></path><path d="M240.03677931627897,174.9038152112983A297,297,0,0,1,236.59603384556746,179.53082400676237L204.89817574490428,155.47825435220938A257.2095449239783,257.2095449239783,0,0,0,207.87794873049668,151.47114719180345Z" fill-rule="evenodd" style="fill: #184B42; stroke: #fff; opacity: 1;" id="p-type-logs"></path><path d="M236.59603384556746,179.53082400676237A297,297,0,0,1,233.06611005192676,184.09016362984514L201.8411720661883,159.42675829028002A257.2095449239783,257.2095449239783,0,0,0,204.89817574490428,155.47825435220938Z" fill-rule="evenodd" style="fill: #184B42; stroke: #fff; opacity: 1;" id="p-type-logs"></path><path d="M233.06611005192676,184.09016362984514A297,297,0,0,1,229.448338442377,188.58011556373702L198.7080899472281,163.31517072680145A257.2095449239783,257.2095449239783,0,0,0,201.8411720661883,159.42675829028002Z" fill-rule="evenodd" style="fill: #184B42; stroke: #fff; opacity: 1;" id="p-type-logs"></path><path d="M229.448338442377,188.58011556373702A297,297,0,0,1,225.74408263573991,192.99898744539627L195.50011031656436,167.14202603238712A257.2095449239783,257.2095449239783,0,0,0,198.7080899472281,163.31517072680145Z" fill-rule="evenodd" style="fill: #184B42; stroke: #fff; opacity: 1;" id="p-type-logs"></path><path d="M225.74408263573991,192.99898744539627A297,297,0,0,1,221.95473884866018,197.34511370343844L192.21844233328056,170.90588177990625A257.2095449239783,257.2095449239783,0,0,0,195.50011031656436,167.14202603238712Z" fill-rule="evenodd" style="fill: #184B42; stroke: #fff; opacity: 1;" id="p-type-logs"></path><path d="M221.95473884866018,197.34511370343844A297,297,0,0,1,218.0817353693405,201.61685618592742L188.8643229312442,174.6053192881669A257.2095449239783,257.2095449239783,0,0,0,192.21844233328056,170.90588177990625Z" fill-rule="evenodd" style="fill: #184B42; stroke: #fff; opacity: 1;" id="p-type-logs"></path><path d="M218.0817353693405,201.61685618592742A297,297,0,0,1,214.1265320191877,205.8126047778313L185.43901635287855,178.23894415664844A257.2095449239783,257.2095449239783,0,0,0,188.8643229312442,174.6053192881669Z" fill-rule="evenodd" style="fill: #184B42; stroke: #fff; opacity: 1;" id="p-type-logs"></path><path d="M214.1265320191877,205.8126047778313A297,297,0,0,1,210.09061960257358,209.93077800791082L181.94381367264168,181.80538679108233A257.2095449239783,257.2095449239783,0,0,0,185.43901635287855,178.23894415664844Z" fill-rule="evenodd" style="fill: #184B42; stroke: #fff; opacity: 1;" id="p-type-logs"></path><path d="M210.09061960257358,209.93077800791082A297,297,0,0,1,205.9755193449175,213.96982364481102L178.38003231039164,185.30330291968258A257.2095449239783,257.2095449239783,0,0,0,181.94381367264168,181.80538679108233Z" fill-rule="evenodd" style="fill: #184B42; stroke: #fff; opacity: 1;" id="p-type-logs"></path><path d="M205.9755193449175,213.96982364481102A297,297,0,0,1,201.78278231930256,217.9282192821319L174.7490155348215,188.73137409983195A257.2095449239783,257.2095449239783,0,0,0,178.38003231039164,185.30330291968258Z" fill-rule="evenodd" style="fill: #184B42; stroke: #fff; opacity: 1;" id="p-type-logs"></path><path d="M201.78278231930256,217.9282192821319A297,297,0,0,1,197.51398886184154,221.8044729122574L171.05213195715143,192.08830821503233A257.2095449239783,257.2095449239783,0,0,0,174.7490155348215,188.73137409983195Z" fill-rule="evenodd" style="fill: #184B42; stroke: #fff; opacity: 1;" id="p-type-logs"></path><path d="M197.51398886184154,221.8044729122574A297,297,0,0,1,193.170747976013,225.59712348872642L167.29077501526868,195.37283996193216A257.2095449239783,257.2095449239783,0,0,0,171.05213195715143,192.08830821503233Z" fill-rule="evenodd" style="fill: #184B42; stroke: #fff; opacity: 1;" id="p-type-logs"></path><path d="M193.170747976013,225.59712348872642A297,297,0,0,1,188.7546967261919,229.30474147693351L163.4663624485096,198.58373132724768A257.2095449239783,257.2095449239783,0,0,0,167.29077501526868,195.37283996193216Z" fill-rule="evenodd" style="fill: #184B42; stroke: #fff; opacity: 1;" id="p-type-logs"></path><path d="M188.7546967261919,229.30474147693351A297,297,0,0,1,184.26749962060364,232.9259293929528L159.58033576328216,201.71977205439762A257.2095449239783,257.2095449239783,0,0,0,163.4663624485096,198.58373132724768Z" fill-rule="evenodd" style="fill: #184B42; stroke: #fff; opacity: 1;" id="p-type-logs"></path><path d="M184.26749962060364,232.9259293929528A297,297,0,0,1,179.71084798393372,236.45932233028043L155.63415968973007,204.77978009967586A257.2095449239783,257.2095449239783,0,0,0,159.58033576328216,201.71977205439762Z" fill-rule="evenodd" style="fill: #184B42; stroke: #fff; opacity: 1;" id="p-type-logs"></path><path d="M179.71084798393372,236.45932233028043A297,297,0,0,1,175.08645931982971,239.9035884742986L151.62932162964321,207.76260207779026A257.2095449239783,257.2095449239783,0,0,0,155.63415968973007,204.77978009967586Z" fill-rule="evenodd" style="fill: #184B42; stroke: #fff; opacity: 1;" id="p-type-logs"></path><path d="M175.08645931982971,239.9035884742986A297,297,0,0,1,170.3960766635358,243.257429604266L147.56733109582277,210.66711369659913A257.2095449239783,257.2095449239783,0,0,0,151.62932162964321,207.76260207779026Z" fill-rule="evenodd" style="fill: #184B42; stroke: #fff; opacity: 1;" id="p-type-logs"></path><path d="M170.3960766635358,243.257429604266A297,297,0,0,1,165.64146792490408,246.51958158264625L143.44971914311222,213.49222018088207A257.2095449239783,257.2095449239783,0,0,0,147.56733109582277,210.66711369659913Z" fill-rule="evenodd" style="fill: #184B42; stroke: #fff; opacity: 1;" id="p-type-logs"></path><path d="M165.64146792490408,246.51958158264625A297,297,0,0,1,160.82442522202965,249.6888148315895L139.2780377913085,216.23685668498524A257.2095449239783,257.2095449239783,0,0,0,143.44971914311222,213.49222018088207Z" fill-rule="evenodd" style="fill: #184B42; stroke: #fff; opacity: 1;" id="p-type-logs"></path><path d="M-43.24669272679798,293.83451731917734A297,297,0,0,1,-151.28632097600203,255.58061171682428L-131.01779721030434,221.3393024615366A257.2095449239783,257.2095449239783,0,0,0,-37.452734531066774,254.46815650714618Z" fill-rule="evenodd" style="fill: #AE497E; stroke: #fff; opacity: 1;" id="p-type-tokenTransfers"></path><path d="M-151.28632097600203,255.58061171682428A297,297,0,0,1,-156.21954206582174,252.59543676944156L-135.29009199657338,218.75406512236228A257.2095449239783,257.2095449239783,0,0,0,-131.01779721030434,221.3393024615366Z" fill-rule="evenodd" style="fill: #AE497E; stroke: #fff; opacity: 1;" id="p-type-tokenTransfers"></path><path d="M-156.21954206582174,252.59543676944156A297,297,0,0,1,-161.093880525431,249.51505296726725L-139.5113929292385,216.0863744962732A257.2095449239783,257.2095449239783,0,0,0,-135.29009199657338,218.75406512236228Z" fill-rule="evenodd" style="fill: #AE497E; stroke: #fff; opacity: 1;" id="p-type-tokenTransfers"></path><path d="M-161.093880525431,249.51505296726725A297,297,0,0,1,-165.90749910793187,246.3406213756708L-143.68010890581309,213.3372360953748A257.2095449239783,257.2095449239783,0,0,0,-139.5113929292385,216.0863744962732Z" fill-rule="evenodd" style="fill: #AE497E; stroke: #fff; opacity: 1;" id="p-type-tokenTransfers"></path><path d="M-165.90749910793187,246.3406213756708A297,297,0,0,1,-170.65858345310278,243.07333850873147L-147.79466864425368,210.50768613125572A257.2095449239783,257.2095449239783,0,0,0,-143.68010890581309,213.3372360953748Z" fill-rule="evenodd" style="fill: #AE497E; stroke: #fff; opacity: 1;" id="p-type-tokenTransfers"></path><path d="M-170.65858345310278,243.07333850873147A297,297,0,0,1,-175.3453427712711,239.71443587824547L-151.85352127521085,207.59879112441646A257.2095449239783,257.2095449239783,0,0,0,-147.79466864425368,210.50768613125572Z" fill-rule="evenodd" style="fill: #AE497E; stroke: #fff; opacity: 1;" id="p-type-tokenTransfers"></path><path d="M-175.3453427712711,239.71443587824547A297,297,0,0,1,-179.96601051830174,236.26517952954157L-155.85513692658682,204.6116475022741A257.2095449239783,257.2095449239783,0,0,0,-151.85352127521085,207.59879112441646Z" fill-rule="evenodd" style="fill: #AE497E; stroke: #fff; opacity: 1;" id="p-type-tokenTransfers"></path><path d="M-179.96601051830174,236.26517952954157A297,297,0,0,1,-184.51884506144717,232.72686956428055L-159.79800730017806,201.54738118589447A257.2095449239783,257.2095449239783,0,0,0,-155.85513692658682,204.6116475022741Z" fill-rule="evenodd" style="fill: #AE497E; stroke: #fff; opacity: 1;" id="p-type-tokenTransfers"></path><path d="M-184.51884506144717,232.72686956428055A297,297,0,0,1,-189.0021303358075,229.10083965041778L-163.6806462401868,198.407147165607A257.2095449239783,257.2095449239783,0,0,0,-159.79800730017806,201.54738118589447Z" fill-rule="evenodd" style="fill: #AE497E; stroke: #fff; opacity: 1;" id="p-type-tokenTransfers"></path><path d="M-189.0021303358075,229.10083965041778A297,297,0,0,1,-193.41417649115363,225.38845651951405L-167.50159029338602,195.19212906566355A257.2095449239783,257.2095449239783,0,0,0,-163.6806462401868,198.407147165607Z" fill-rule="evenodd" style="fill: #AE497E; stroke: #fff; opacity: 1;" id="p-type-tokenTransfers"></path><path d="M-193.41417649115363,225.38845651951405A297,297,0,0,1,-197.75332052886972,221.5911194515839L-171.25939926072792,191.90353869810372A257.2095449239783,257.2095449239783,0,0,0,-167.50159029338602,195.19212906566355Z" fill-rule="evenodd" style="fill: #AE497E; stroke: #fff; opacity: 1;" id="p-type-tokenTransfers"></path><path d="M-197.75332052886972,221.5911194515839A297,297,0,0,1,-202.01792692877416,217.71025974767582L-174.95265674018685,188.54261560599596A257.2095449239783,257.2095449239783,0,0,0,-171.25939926072792,191.90353869810372Z" fill-rule="evenodd" style="fill: #AE497E; stroke: #fff; opacity: 1;" id="p-type-tokenTransfers"></path><path d="M-202.01792692877416,217.71025974767582A297,297,0,0,1,-206.20638826558383,213.74734019038294L-178.57997066063297,185.11062659622615A257.2095449239783,257.2095449239783,0,0,0,-174.95265674018685,188.54261560599596Z" fill-rule="evenodd" style="fill: #AE497E; stroke: #fff; opacity: 1;" id="p-type-tokenTransfers"></path><path d="M-253.05055012290939,155.48124993867563A297,297,0,0,1,-293.0812416128993,48.08727289669624L-253.81580060945578,41.64479992725386A257.2095449239783,257.2095449239783,0,0,0,-219.14820484806694,134.65071225905078Z" fill-rule="evenodd" style="fill: #F09B24; stroke: #fff; opacity: 1;" id="p-type-ether"></path><path d="M-293.0812416128993,48.08727289669624A297,297,0,0,1,-293.53420908533957,45.240116010506995L-254.20808194767707,39.17908973525417A257.2095449239783,257.2095449239783,0,0,0,-253.81580060945578,41.64479992725386Z" fill-rule="evenodd" style="fill: #F09B24; stroke: #fff; opacity: 1;" id="p-type-ether"></path><path d="M-293.53420908533957,45.240116010506995A297,297,0,0,1,-293.8683391490432,43.01626722279526L-254.4974470710125,37.253180190920574A257.2095449239783,257.2095449239783,0,0,0,-254.20808194767707,39.17908973525417Z" fill-rule="evenodd" style="fill: #F09B24; stroke: #fff; opacity: 1;" id="p-type-ether"></path></g></svg>