<svg xmlns="http://www.w3.org/2000/svg" width="600" height="600" id="block-7913331"><g id="burst-container" transform="translate(300,300)"><data type="text/json">{"number":7913331,"totalTransactions":40,"totalFunctions":38,"totalFunctionsValue":"193.925148755130418336","totalLogs":28,"totalTokenTransfers":28,"tokens":{"0x0df721639ca2f7ff0e1f618b918a65ffb199ac4e":"155285","0xb8c77482e45f1f44de1745f52c74426c631bdd52":"5","0x9af839687f6c94542ac5ece2e317daae355493a1":"6790.15052","0x174bfa6600bf90c885c7c01c7031389ed1461ab9":"22.5853982","0x8713d26637cf49e1b6b4a7ce57106aabc9325343":"312758.758","0x081d3ccbf23b0edcae2bf05af5f6ecee12c4cdcf":"14512.7","0x93f1bf08e8377fc75d04dd2b930e1982f2ec507b":"284.05","0x8e766f57f7d16ca50b4a0b90b88f6468a09b0439":"373.0163","0xd3ebdaea9aeac98de723f640bce4aa07e2e44192":"107.29","0x91780bcd29620338d2d3bc16bc576d1055e85e38":"1e-16","0x0000000000085d4780b73119b644ae5ecd22b376":"6.75","0xc6abf3c09341741ac6041b0b08195701bdfd460c":"124","0x8c9b261faef3b3c2e64ab5e58e04615f8c788099":"1.9191e-13"},"totalEther":"204.240981569130418334","totalEtherTxns":13,"newContracts":[],"totalNewContracts":0}</data><circle r="297" style="fill: #f9f9f9; stroke: #f9f9f9; stroke-width: 3; opacity: 1;" id="circle-base"></circle><path display="none" d="M9.093002483669097e-15,-148.5A148.5,148.5,0,1,1,-9.093002483669097e-15,148.5A148.5,148.5,0,1,1,9.093002483669097e-15,-148.5Z" fill-rule="evenodd" id="p-type-root" style="stroke: #fff; opacity: 1;"></path><path d="M1.2859447435097075e-14,-210.0107140124046A210.0107140124046,210.0107140124046,0,1,1,-72.70268706206798,-197.02492048965533L-51.40856303207175,-139.31765734097564A148.5,148.5,0,1,0,9.093002483669097e-15,-148.5Z" fill-rule="evenodd" style="fill: #4E4E4E; stroke: #fff; opacity: 1;" id="p-type-data"></path><path d="M-72.70268706206798,-197.02492048965533A210.0107140124046,210.0107140124046,0,0,1,-4.124138132941635,-209.97021570846758L-2.9162060403530576,-148.47136337465957A148.5,148.5,0,0,0,-51.40856303207175,-139.31765734097564Z" fill-rule="evenodd" style="fill: #3A86AD; stroke: #fff; opacity: 1;" id="p-type-value"></path><path d="M1.5749542295064867e-14,-257.2095449239783A257.2095449239783,257.2095449239783,0,0,1,157.88694281076215,203.04793347845512L128.9141489781187,165.78794344959894A210.0107140124046,210.0107140124046,0,0,0,1.2859447435097075e-14,-210.0107140124046Z" fill-rule="evenodd" style="fill: #6B0E12; stroke: #fff; opacity: 1;" id="p-type-functions"></path><path d="M157.88694281076215,203.04793347845512A257.2095449239783,257.2095449239783,0,0,1,-255.9622963376077,25.299265870350737L-208.9923398060661,20.656764083122887A210.0107140124046,210.0107140124046,0,0,0,128.9141489781187,165.78794344959894Z" fill-rule="evenodd" style="fill: #F09B24; stroke: #fff; opacity: 1;" id="p-type-ether"></path><path d="M-255.9622963376077,25.299265870350737A257.2095449239783,257.2095449239783,0,0,1,-231.44981345620147,-112.1950705293666L-188.97798134334846,-91.6068914841729A210.0107140124046,210.0107140124046,0,0,0,-208.9923398060661,20.656764083122887Z" fill-rule="evenodd" style="fill: #184B42; stroke: #fff; opacity: 1;" id="p-type-logs"></path><path d="M-231.44981345620147,-112.1950705293666A257.2095449239783,257.2095449239783,0,0,1,-174.623164321479,-188.84782361031787L-142.5792166192681,-154.19360229346682A210.0107140124046,210.0107140124046,0,0,0,-188.97798134334846,-91.6068914841729Z" fill-rule="evenodd" style="fill: #AE497E; stroke: #fff; opacity: 1;" id="p-type-tokenTransfers"></path><path d="M-89.04224311565541,-241.30526090604098A257.2095449239783,257.2095449239783,0,0,1,-42.73727021666868,-253.63413755728436L-34.89483501009432,-207.0914061220752A210.0107140124046,210.0107140124046,0,0,0,-72.70268706206798,-197.02492048965533Z" fill-rule="evenodd" style="fill: #AE497E; stroke: #fff; opacity: 1;" id="p-type-tokenTransfers"></path><path d="M-42.73727021666868,-253.63413755728436A257.2095449239783,257.2095449239783,0,0,1,-10.10008598601436,-257.0111636934768L-8.246685674656765,-209.8487364159799A210.0107140124046,210.0107140124046,0,0,0,-34.89483501009432,-207.0914061220752Z" fill-rule="evenodd" style="fill: #F09B24; stroke: #fff; opacity: 1;" id="p-type-ether"></path><path d="M1.8186004967338195e-14,-297A297,297,0,0,1,296.9339654744306,6.262599111364517L257.15235734730834,5.423569924159523A257.2095449239783,257.2095449239783,0,0,0,1.5749542295064867e-14,-257.2095449239783Z" fill-rule="evenodd" style="fill: #6B0E12; stroke: #fff; opacity: 1;" id="p-type-functions"></path><path d="M296.9339654744306,6.262599111364517A297,297,0,0,1,281.74182800555377,93.97096547385773L243.99558036147556,81.3812433185112A257.2095449239783,257.2095449239783,0,0,0,257.15235734730834,5.423569924159523Z" fill-rule="evenodd" style="fill: #6B0E12; stroke: #fff; opacity: 1;" id="p-type-functions"></path><path d="M281.74182800555377,93.97096547385773A297,297,0,0,1,280.80551125716335,96.73295636753345L243.1847062713806,83.77319759745565A257.2095449239783,257.2095449239783,0,0,0,243.99558036147556,81.3812433185112Z" fill-rule="evenodd" style="fill: #6B0E12; stroke: #fff; opacity: 1;" id="p-type-functions"></path><path d="M280.80551125716335,96.73295636753345A297,297,0,0,1,279.8421186971094,99.48562008206468L242.35038384055701,86.15707430231532A257.2095449239783,257.2095449239783,0,0,0,243.1847062713806,83.77319759745565Z" fill-rule="evenodd" style="fill: #6B0E12; stroke: #fff; opacity: 1;" id="p-type-functions"></path><path d="M279.8421186971094,99.48562008206468A297,297,0,0,1,278.8517432175701,102.22869120028076L241.49269351599074,88.53264357507784A257.2095449239783,257.2095449239783,0,0,0,242.35038384055701,86.15707430231532Z" fill-rule="evenodd" style="fill: #6B0E12; stroke: #fff; opacity: 1;" id="p-type-functions"></path><path d="M278.8517432175701,102.22869120028076A297,297,0,0,1,277.83448031246854,104.96190522994773L240.61171799784526,90.89967635874947A257.2095449239783,257.2095449239783,0,0,0,241.49269351599074,88.53264357507784Z" fill-rule="evenodd" style="fill: #6B0E12; stroke: #fff; opacity: 1;" id="p-type-functions"></path><path d="M277.83448031246854,104.96190522994773A297,297,0,0,1,276.79042806826584,107.68499862927125L239.70754223148757,93.25794441944136A257.2095449239783,257.2095449239783,0,0,0,240.61171799784526,90.89967635874947Z" fill-rule="evenodd" style="fill: #6B0E12; stroke: #fff; opacity: 1;" id="p-type-functions"></path><path d="M276.79042806826584,107.68499862927125A297,297,0,0,1,275.719687154503,110.39770883230774L238.78025339929758,95.6072203683762A257.2095449239783,257.2095449239783,0,0,0,239.70754223148757,93.25794441944136Z" fill-rule="evenodd" style="fill: #6B0E12; stroke: #fff; opacity: 1;" id="p-type-functions"></path><path d="M275.719687154503,110.39770883230774A297,297,0,0,1,274.62236081409424,113.09977427428156L237.82994091226178,97.94727768381355A257.2095449239783,257.2095449239783,0,0,0,238.78025339929758,95.6072203683762Z" fill-rule="evenodd" style="fill: #6B0E12; stroke: #fff; opacity: 1;" id="p-type-functions"></path><path d="M274.62236081409424,113.09977427428156A297,297,0,0,1,273.4985548533722,115.79093441680553L236.8566964013521,100.27789073289146A257.2095449239783,257.2095449239783,0,0,0,237.82994091226178,97.94727768381355Z" fill-rule="evenodd" style="fill: #6B0E12; stroke: #fff; opacity: 1;" id="p-type-functions"></path><path d="M273.4985548533722,115.79093441680553A297,297,0,0,1,272.3483776318858,118.4709297730026L235.8606137086907,102.59883479338245A257.2095449239783,257.2095449239783,0,0,0,236.8566964013521,100.27789073289146Z" fill-rule="evenodd" style="fill: #6B0E12; stroke: #fff; opacity: 1;" id="p-type-functions"></path><path d="M272.3483776318858,118.4709297730026A297,297,0,0,1,271.1719400519521,121.13950193252606L234.84178887850143,104.90988607536167A257.2095449239783,257.2095449239783,0,0,0,235.8606137086907,102.59883479338245Z" fill-rule="evenodd" style="fill: #6B0E12; stroke: #fff; opacity: 1;" id="p-type-functions"></path><path d="M271.1719400519521,121.13950193252606A297,297,0,0,1,269.9693555479628,123.79639358647597L233.80032014784913,107.21082174278514A257.2095449239783,257.2095449239783,0,0,0,234.84178887850143,104.90988607536167Z" fill-rule="evenodd" style="fill: #6B0E12; stroke: #fff; opacity: 1;" id="p-type-functions"></path><path d="M269.9693555479628,123.79639358647597A297,297,0,0,1,268.74074007544647,126.44134855220942L232.73630793716742,109.50141993497611A257.2095449239783,257.2095449239783,0,0,0,233.80032014784913,107.21082174278514Z" fill-rule="evenodd" style="fill: #6B0E12; stroke: #fff; opacity: 1;" id="p-type-functions"></path><path d="M268.74074007544647,126.44134855220942A297,297,0,0,1,267.4862120998886,129.074111798042L231.64985484057598,111.7814597880171A257.2095449239783,257.2095449239783,0,0,0,232.73630793716742,109.50141993497611Z" fill-rule="evenodd" style="fill: #6B0E12; stroke: #fff; opacity: 1;" id="p-type-functions"></path><path d="M267.4862120998886,129.074111798042A297,297,0,0,1,266.2058925853079,131.6944294678386L230.54106561598817,114.05072145604622A257.2095449239783,257.2095449239783,0,0,0,231.64985484057598,111.7814597880171Z" fill-rule="evenodd" style="fill: #6B0E12; stroke: #fff; opacity: 1;" id="p-type-functions"></path><path d="M266.2058925853079,131.6944294678386A297,297,0,0,1,264.8999049825937,134.30204890549075L229.41004717501013,116.30898613245506A257.2095449239783,257.2095449239783,0,0,0,230.54106561598817,114.05072145604622Z" fill-rule="evenodd" style="fill: #6B0E12; stroke: #fff; opacity: 1;" id="p-type-functions"></path><path d="M264.8999049825937,134.30204890549075A297,297,0,0,1,263.56837521760195,136.89671867927805L228.25690857263214,118.55603607098648A257.2095449239783,257.2095449239783,0,0,0,229.41004717501013,116.30898613245506Z" fill-rule="evenodd" style="fill: #6B0E12; stroke: #fff; opacity: 1;" id="p-type-functions"></path><path d="M263.56837521760195,136.89671867927805A297,297,0,0,1,262.2114316790134,139.47818860611181L227.0817609967133,120.79165460673006A257.2095449239783,257.2095449239783,0,0,0,228.25690857263214,118.55603607098648Z" fill-rule="evenodd" style="fill: #6B0E12; stroke: #fff; opacity: 1;" id="p-type-functions"></path><path d="M262.2114316790134,139.47818860611181A297,297,0,0,1,260.8292052059541,142.0462097756582L225.8847177572606,123.01562617701347A257.2095449239783,257.2095449239783,0,0,0,227.0817609967133,120.79165460673006Z" fill-rule="evenodd" style="fill: #6B0E12; stroke: #fff; opacity: 1;" id="p-type-functions"></path><path d="M260.8292052059541,142.0462097756582A297,297,0,0,1,259.42182907537966,144.60053457433864L224.66589427550332,125.2277363421873A257.2095449239783,257.2095449239783,0,0,0,225.8847177572606,123.01562617701347Z" fill-rule="evenodd" style="fill: #6B0E12; stroke: #fff; opacity: 1;" id="p-type-functions"></path><path d="M259.42182907537966,144.60053457433864A297,297,0,0,1,257.9894389892245,147.1409167092051L223.42540807276393,127.42777180630179A257.2095449239783,257.2095449239783,0,0,0,224.66589427550332,125.2277363421873Z" fill-rule="evenodd" style="fill: #6B0E12; stroke: #fff; opacity: 1;" id="p-type-functions"></path><path d="M257.9894389892245,147.1409167092051A297,297,0,0,1,256.5321730613169,149.6671112316883L222.16337875912646,129.61552043767335A257.2095449239783,257.2095449239783,0,0,0,223.42540807276393,127.42777180630179Z" fill-rule="evenodd" style="fill: #6B0E12; stroke: #fff; opacity: 1;" id="p-type-functions"></path><path d="M256.5321730613169,149.6671112316883A297,297,0,0,1,255.0501718040623,152.17887456121602L220.8799280219035,131.79077128933852A257.2095449239783,257.2095449239783,0,0,0,222.16337875912646,129.61552043767335Z" fill-rule="evenodd" style="fill: #6B0E12; stroke: #fff; opacity: 1;" id="p-type-functions"></path><path d="M255.0501718040623,152.17887456121602A297,297,0,0,1,253.5435781148943,154.6759645086996L219.5751796139027,133.95331461939406A257.2095449239783,257.2095449239783,0,0,0,220.8799280219035,131.79077128933852Z" fill-rule="evenodd" style="fill: #6B0E12; stroke: #fff; opacity: 1;" id="p-type-functions"></path><path d="M253.5435781148943,154.6759645086996A297,297,0,0,1,252.0125372624966,157.15814029988636L218.2492593414945,136.10294191122054A257.2095449239783,257.2095449239783,0,0,0,219.5751796139027,133.95331461939406Z" fill-rule="evenodd" style="fill: #6B0E12; stroke: #fff; opacity: 1;" id="p-type-functions"></path><path d="M252.0125372624966,157.15814029988636A297,297,0,0,1,250.4571968727957,159.62516259857549L216.90229505248152,138.239445893588A257.2095449239783,257.2095449239783,0,0,0,218.2492593414945,136.10294191122054Z" fill-rule="evenodd" style="fill: #6B0E12; stroke: #fff; opacity: 1;" id="p-type-functions"></path><path d="M250.4571968727957,159.62516259857549A297,297,0,0,1,248.87770691472656,162.07679352969527L215.53441662377125,140.36262056064143A257.2095449239783,257.2095449239783,0,0,0,216.90229505248152,138.239445893588Z" fill-rule="evenodd" style="fill: #6B0E12; stroke: #fff; opacity: 1;" id="p-type-functions"></path><path d="M248.87770691472656,162.07679352969527A297,297,0,0,1,247.2742196857724,164.51279670223946L214.14575594885304,142.47226119176418A257.2095449239783,257.2095449239783,0,0,0,215.53441662377125,140.36262056064143Z" fill-rule="evenodd" style="fill: #6B0E12; stroke: #fff; opacity: 1;" id="p-type-functions"></path><path d="M182.31213786664114,234.45955810436655A297,297,0,0,1,-238.25169752157183,177.32774353746638L-206.33202254844718,153.5703306992177A257.2095449239783,257.2095449239783,0,0,0,157.88694281076215,203.04793347845512Z" fill-rule="evenodd" style="fill: #F09B24; stroke: #fff; opacity: 1;" id="p-type-ether"></path><path d="M-238.25169752157183,177.32774353746638A297,297,0,0,1,-280.0980205610435,98.7628415841974L-242.57200135559967,85.53112976185311A257.2095449239783,257.2095449239783,0,0,0,-206.33202254844718,153.5703306992177Z" fill-rule="evenodd" style="fill: #F09B24; stroke: #fff; opacity: 1;" id="p-type-ether"></path><path d="M-280.0980205610435,98.7628415841974A297,297,0,0,1,-287.74331402317904,73.57163335796052L-249.19301971319618,63.71490348590844A257.2095449239783,257.2095449239783,0,0,0,-242.57200135559967,85.53112976185311Z" fill-rule="evenodd" style="fill: #F09B24; stroke: #fff; opacity: 1;" id="p-type-ether"></path><path d="M-287.74331402317904,73.57163335796052A297,297,0,0,1,-288.3630299767804,71.10388837898005L-249.72970947214543,61.577773644049856A257.2095449239783,257.2095449239783,0,0,0,-249.19301971319618,63.71490348590844Z" fill-rule="evenodd" style="fill: #F09B24; stroke: #fff; opacity: 1;" id="p-type-ether"></path><path d="M-295.55980138582515,29.213075921093818A297,297,0,0,1,-295.83240554794634,26.309462702902074L-256.19837846718207,22.784663060632397A257.2095449239783,257.2095449239783,0,0,0,-255.9622963376077,25.299265870350737Z" fill-rule="evenodd" style="fill: #184B42; stroke: #fff; opacity: 1;" id="p-type-logs"></path><path d="M-295.83240554794634,26.309462702902074A297,297,0,0,1,-296.0764849761309,23.40331267532251L-256.4097574525311,20.26786330953965A257.2095449239783,257.2095449239783,0,0,0,-256.19837846718207,22.784663060632397Z" fill-rule="evenodd" style="fill: #184B42; stroke: #fff; opacity: 1;" id="p-type-logs"></path><path d="M-296.0764849761309,23.40331267532251A297,297,0,0,1,-296.2920161357673,20.49490605497359L-256.59641291208334,17.74910929178264A257.2095449239783,257.2095449239783,0,0,0,-256.4097574525311,20.26786330953965Z" fill-rule="evenodd" style="fill: #184B42; stroke: #fff; opacity: 1;" id="p-type-logs"></path><path d="M-296.2920161357673,20.49490605497359A297,297,0,0,1,-296.4789782449234,17.58452327605884L-256.75832684815754,15.228643870505715A257.2095449239783,257.2095449239783,0,0,0,-256.59641291208334,17.74910929178264Z" fill-rule="evenodd" style="fill: #184B42; stroke: #fff; opacity: 1;" id="p-type-logs"></path><path d="M-296.4789782449234,17.58452327605884A297,297,0,0,1,-296.6373532763501,14.672444963326814L-256.8954836486983,12.706710073870058A257.2095449239783,257.2095449239783,0,0,0,-256.75832684815754,15.228643870505715Z" fill-rule="evenodd" style="fill: #184B42; stroke: #fff; opacity: 1;" id="p-type-logs"></path><path d="M-296.6373532763501,14.672444963326814A297,297,0,0,1,-296.7671259592201,11.75895190501273L-257.007870088781,10.183551071620442A257.2095449239783,257.2095449239783,0,0,0,-256.8954836486983,12.706710073870058Z" fill-rule="evenodd" style="fill: #184B42; stroke: #fff; opacity: 1;" id="p-type-logs"></path><path d="M-296.7671259592201,11.75895190501273A297,297,0,0,1,-296.86828378059965,8.844325025764311L-257.09547533188714,7.659410151638355A257.2095449239783,257.2095449239783,0,0,0,-257.007870088781,10.183551071620442Z" fill-rule="evenodd" style="fill: #184B42; stroke: #fff; opacity: 1;" id="p-type-logs"></path><path d="M-296.86828378059965,8.844325025764311A297,297,0,0,1,-296.9408169866556,5.9288453595545025L-257.15829093094953,5.134530696483683A257.2095449239783,257.2095449239783,0,0,0,-257.09547533188714,7.659410151638355Z" fill-rule="evenodd" style="fill: #184B42; stroke: #fff; opacity: 1;" id="p-type-logs"></path><path d="M-296.9408169866556,5.9288453595545025A297,297,0,0,1,-296.9847185835956,3.0127940225836074L-257.1963108291663,2.609156159927312A257.2095449239783,257.2095449239783,0,0,0,-257.15829093094953,5.134530696483683Z" fill-rule="evenodd" style="fill: #184B42; stroke: #fff; opacity: 1;" id="p-type-logs"></path><path d="M-296.9847185835956,3.0127940225836074A297,297,0,0,1,-296.99998433834264,0.0964521861735431L-257.2095313605852,0.08353004347683451A257.2095449239783,257.2095449239783,0,0,0,-257.1963108291663,2.609156159927312Z" fill-rule="evenodd" style="fill: #184B42; stroke: #fff; opacity: 1;" id="p-type-logs"></path><path d="M-296.99998433834264,0.0964521861735431A297,297,0,0,1,-296.986612778943,-2.8198989503432594L-257.19795125045687,-2.4421041271023363A257.2095449239783,257.2095449239783,0,0,0,-257.2095313605852,0.08353004347683451Z" fill-rule="evenodd" style="fill: #184B42; stroke: #fff; opacity: 1;" id="p-type-logs"></path><path d="M-296.986612778943,-2.8198989503432594A297,297,0,0,1,-296.94460519470846,-5.735978186737634L-257.16157161535807,-4.967502825268191A257.2095449239783,257.2095449239783,0,0,0,-257.19795125045687,-2.4421041271023363Z" fill-rule="evenodd" style="fill: #184B42; stroke: #fff; opacity: 1;" id="p-type-logs"></path><path d="M-296.94460519470846,-5.735978186737634A297,297,0,0,1,-296.87396563609155,-8.65150434899755L-257.10039596308377,-7.4924225471834305A257.2095449239783,257.2095449239783,0,0,0,-257.16157161535807,-4.967502825268191Z" fill-rule="evenodd" style="fill: #184B42; stroke: #fff; opacity: 1;" id="p-type-logs"></path><path d="M-296.87396563609155,-8.65150434899755A297,297,0,0,1,-296.7747009142956,-11.56619631643946L-257.01443019230885,-10.01661983519457A257.2095449239783,257.2095449239783,0,0,0,-257.10039596308377,-7.4924225471834305Z" fill-rule="evenodd" style="fill: #184B42; stroke: #fff; opacity: 1;" id="p-type-logs"></path><path d="M-296.7747009142956,-11.56619631643946A297,297,0,0,1,-296.64682060061733,-14.479773048814492L-256.90368259201955,-12.539851301306603A257.2095449239783,257.2095449239783,0,0,0,-257.01443019230885,-10.01661983519457Z" fill-rule="evenodd" style="fill: #184B42; stroke: #fff; opacity: 1;" id="p-type-logs"></path><path d="M-296.64682060061733,-14.479773048814492A297,297,0,0,1,-296.49033702552447,-17.391953613406905L-256.7681638407141,-15.061873650650943A257.2095449239783,257.2095449239783,0,0,0,-256.90368259201955,-12.539851301306603Z" fill-rule="evenodd" style="fill: #184B42; stroke: #fff; opacity: 1;" id="p-type-logs"></path><path d="M-296.49033702552447,-17.391953613406905A297,297,0,0,1,-296.3052652774668,-20.302457212122167L-256.60788700537336,-17.58244370494439A257.2095449239783,257.2095449239783,0,0,0,-256.7681638407141,-15.061873650650943Z" fill-rule="evenodd" style="fill: #184B42; stroke: #fff; opacity: 1;" id="p-type-logs"></path><path d="M-296.3052652774668,-20.302457212122167A297,297,0,0,1,-296.09162320142076,-23.211003208562033L-256.4228675402003,-20.101318425936835A257.2095449239783,257.2095449239783,0,0,0,-256.60788700537336,-17.58244370494439Z" fill-rule="evenodd" style="fill: #184B42; stroke: #fff; opacity: 1;" id="p-type-logs"></path><path d="M-296.09162320142076,-23.211003208562033A297,297,0,0,1,-295.84943139716955,-26.117311155084074L-256.21312328513034,-22.61825493884551A257.2095449239783,257.2095449239783,0,0,0,-256.4228675402003,-20.101318425936835Z" fill-rule="evenodd" style="fill: #184B42; stroke: #fff; opacity: 1;" id="p-type-logs"></path><path d="M-295.84943139716955,-26.117311155084074A297,297,0,0,1,-295.5787132173163,-29.02110081984297L-255.97867446411112,-25.133010555773414A257.2095449239783,257.2095449239783,0,0,0,-256.21312328513034,-22.61825493884551Z" fill-rule="evenodd" style="fill: #184B42; stroke: #fff; opacity: 1;" id="p-type-logs"></path><path d="M-295.5787132173163,-29.02110081984297A297,297,0,0,1,-295.27949476503267,-31.922092213811005L-255.71954368315247,-27.64534279910976A257.2095449239783,257.2095449239783,0,0,0,-255.97867446411112,-25.133010555773414Z" fill-rule="evenodd" style="fill: #184B42; stroke: #fff; opacity: 1;" id="p-type-logs"></path><path d="M-295.27949476503267,-31.922092213811005A297,297,0,0,1,-294.9518048915417,-34.820005617775166L-255.43575592814642,-30.15500942491016A257.2095449239783,257.2095449239783,0,0,0,-255.71954368315247,-27.64534279910976Z" fill-rule="evenodd" style="fill: #184B42; stroke: #fff; opacity: 1;" id="p-type-logs"></path><path d="M-294.9518048915417,-34.820005617775166A297,297,0,0,1,-294.5956751933363,-37.714561609308184L-255.12733856245842,-32.66176844625421A257.2095449239783,257.2095449239783,0,0,0,-255.43575592814642,-30.15500942491016Z" fill-rule="evenodd" style="fill: #184B42; stroke: #fff; opacity: 1;" id="p-type-logs"></path><path d="M-294.5956751933363,-37.714561609308184A297,297,0,0,1,-294.21114000913207,-40.60548108971103L-254.79432132428863,-35.165378156578385A257.2095449239783,257.2095449239783,0,0,0,-255.12733856245842,-32.66176844625421Z" fill-rule="evenodd" style="fill: #184B42; stroke: #fff; opacity: 1;" id="p-type-logs"></path><path d="M-294.21114000913207,-40.60548108971103A297,297,0,0,1,-293.7982364165569,-43.4924853109241L-254.43673632380467,-37.66559715298182A257.2095449239783,257.2095449239783,0,0,0,-254.79432132428863,-35.165378156578385Z" fill-rule="evenodd" style="fill: #184B42; stroke: #fff; opacity: 1;" id="p-type-logs"></path><path d="M-293.7982364165569,-43.4924853109241A297,297,0,0,1,-293.3570042285754,-46.3752959024047L-254.05461804004528,-40.16218435950285A257.2095449239783,257.2095449239783,0,0,0,-254.43673632380467,-37.66559715298182Z" fill-rule="evenodd" style="fill: #184B42; stroke: #fff; opacity: 1;" id="p-type-logs"></path><path d="M-293.3570042285754,-46.3752959024047A297,297,0,0,1,-292.88748598965043,-49.25363489796801L-253.64800331759614,-42.654899050364065A257.2095449239783,257.2095449239783,0,0,0,-254.05461804004528,-40.16218435950285Z" fill-rule="evenodd" style="fill: #184B42; stroke: #fff; opacity: 1;" id="p-type-logs"></path><path d="M-292.88748598965043,-49.25363489796801A297,297,0,0,1,-292.3897269716406,-52.12722476258918L-253.2169313630368,-45.143500873183484A257.2095449239783,257.2095449239783,0,0,0,-253.64800331759614,-42.654899050364065Z" fill-rule="evenodd" style="fill: #184B42; stroke: #fff; opacity: 1;" id="p-type-logs"></path><path d="M-267.2552242056531,-129.55170834375772A297,297,0,0,1,-265.9702261400797,-132.16973483742353L-230.336972487601,-114.46234798066192A257.2095449239783,257.2095449239783,0,0,0,-231.44981345620147,-112.1950705293666Z" fill-rule="evenodd" style="fill: #AE497E; stroke: #fff; opacity: 1;" id="p-type-tokenTransfers"></path><path d="M-265.9702261400797,-132.16973483742353A297,297,0,0,1,-264.6595827097882,-134.7750172690799L-229.20192198166535,-116.71858875050961A257.2095449239783,257.2095449239783,0,0,0,-230.336972487601,-114.46234798066192Z" fill-rule="evenodd" style="fill: #AE497E; stroke: #fff; opacity: 1;" id="p-type-tokenTransfers"></path><path d="M-264.6595827097882,-134.7750172690799A297,297,0,0,1,-263.32342028955844,-137.36730443234507L-228.0447713821643,-118.96357528780156A257.2095449239783,257.2095449239783,0,0,0,-229.20192198166535,-116.71858875050961Z" fill-rule="evenodd" style="fill: #AE497E; stroke: #fff; opacity: 1;" id="p-type-tokenTransfers"></path><path d="M-263.32342028955844,-137.36730443234507A297,297,0,0,1,-261.9618677147608,-139.9463463738663L-226.86563226380144,-121.19709112658448A257.2095449239783,257.2095449239783,0,0,0,-228.0447713821643,-118.96357528780156Z" fill-rule="evenodd" style="fill: #AE497E; stroke: #fff; opacity: 1;" id="p-type-tokenTransfers"></path><path d="M-261.9618677147608,-139.9463463738663A297,297,0,0,1,-260.57505626893357,-142.5118944174208L-225.66461832145603,-123.41892090693213A257.2095449239783,257.2095449239783,0,0,0,-226.86563226380144,-121.19709112658448Z" fill-rule="evenodd" style="fill: #AE497E; stroke: #fff; opacity: 1;" id="p-type-tokenTransfers"></path><path d="M-260.57505626893357,-142.5118944174208A297,297,0,0,1,-259.1631196711244,-145.06370118789354L-224.44184535922028,-125.62885039571066A257.2095449239783,257.2095449239783,0,0,0,-225.66461832145603,-123.41892090693213Z" fill-rule="evenodd" style="fill: #AE497E; stroke: #fff; opacity: 1;" id="p-type-tokenTransfers"></path><path d="M-259.1631196711244,-145.06370118789354A297,297,0,0,1,-257.72619406299657,-147.60152063512973L-223.19743127923323,-127.82666650723539A257.2095449239783,257.2095449239783,0,0,0,-224.44184535922028,-125.62885039571066Z" fill-rule="evenodd" style="fill: #AE497E; stroke: #fff; opacity: 1;" id="p-type-tokenTransfers"></path><path d="M-257.72619406299657,-147.60152063512973A297,297,0,0,1,-256.26441799570244,-150.12510805765936L-221.9314960703124,-130.01215732381692A257.2095449239783,257.2095449239783,0,0,0,-223.19743127923323,-127.82666650723539Z" fill-rule="evenodd" style="fill: #AE497E; stroke: #fff; opacity: 1;" id="p-type-tokenTransfers"></path><path d="M-256.26441799570244,-150.12510805765936A297,297,0,0,1,-254.77793241652364,-152.6342201262918L-220.6441617963843,-132.18511211619474A257.2095449239783,257.2095449239783,0,0,0,-221.9314960703124,-130.01215732381692Z" fill-rule="evenodd" style="fill: #AE497E; stroke: #fff; opacity: 1;" id="p-type-tokenTransfers"></path><path d="M-254.77793241652364,-152.6342201262918A297,297,0,0,1,-253.2668806552809,-155.12861490757822L-219.33555258471486,-134.34532136385613A257.2095449239783,257.2095449239783,0,0,0,-220.6441617963843,-132.18511211619474Z" fill-rule="evenodd" style="fill: #AE497E; stroke: #fff; opacity: 1;" id="p-type-tokenTransfers"></path><path d="M-253.2668806552809,-155.12861490757822A297,297,0,0,1,-251.73140841051378,-157.608051887139L-218.00579461394065,-136.49257677523832A257.2095449239783,257.2095449239783,0,0,0,-219.33555258471486,-134.34532136385613Z" fill-rule="evenodd" style="fill: #AE497E; stroke: #fff; opacity: 1;" id="p-type-tokenTransfers"></path><path d="M-251.73140841051378,-157.608051887139A297,297,0,0,1,-250.1716637354323,-160.07229199285487L-216.65501610190256,-138.6266713078127A257.2095449239783,257.2095449239783,0,0,0,-218.00579461394065,-136.49257677523832Z" fill-rule="evenodd" style="fill: #AE497E; stroke: #fff; opacity: 1;" id="p-type-tokenTransfers"></path><path d="M-250.1716637354323,-160.07229199285487A297,297,0,0,1,-248.58779702364112,-162.52109761791854L-215.2833472932829,-140.74739918804806A257.2095449239783,257.2095449239783,0,0,0,-216.65501610190256,-138.6266713078127Z" fill-rule="evenodd" style="fill: #AE497E; stroke: #fff; opacity: 1;" id="p-type-tokenTransfers"></path><path d="M-248.58779702364112,-162.52109761791854A297,297,0,0,1,-246.97996099463853,-164.95423264374523L-213.89092044704674,-142.8545559312517A257.2095449239783,257.2095449239783,0,0,0,-215.2833472932829,-140.74739918804806Z" fill-rule="evenodd" style="fill: #AE497E; stroke: #fff; opacity: 1;" id="p-type-tokenTransfers"></path><path d="M-246.97996099463853,-164.95423264374523A297,297,0,0,1,-245.34831067909082,-167.37146246273986L-212.47786982368953,-144.9479383612863A257.2095449239783,257.2095449239783,0,0,0,-213.89092044704674,-142.8545559312517Z" fill-rule="evenodd" style="fill: #AE497E; stroke: #fff; opacity: 1;" id="p-type-tokenTransfers"></path><path d="M-245.34831067909082,-167.37146246273986A297,297,0,0,1,-243.69300340388392,-169.772554000918L-211.04433167229115,-147.02734463016046A257.2095449239783,257.2095449239783,0,0,0,-212.47786982368953,-144.9479383612863Z" fill-rule="evenodd" style="fill: #AE497E; stroke: #fff; opacity: 1;" id="p-type-tokenTransfers"></path><path d="M-243.69300340388392,-169.772554000918A297,297,0,0,1,-242.0141987769537,-172.15727574037973L-209.59044421737872,-149.0925742374913A257.2095449239783,257.2095449239783,0,0,0,-211.04433167229115,-147.02734463016046Z" fill-rule="evenodd" style="fill: #AE497E; stroke: #fff; opacity: 1;" id="p-type-tokenTransfers"></path><path d="M-242.0141987769537,-172.15727574037973A297,297,0,0,1,-240.31205867189624,-174.52539774163273L-208.11634764559864,-151.14342804983724A257.2095449239783,257.2095449239783,0,0,0,-209.59044421737872,-149.0925742374913Z" fill-rule="evenodd" style="fill: #AE497E; stroke: #fff; opacity: 1;" id="p-type-tokenTransfers"></path><path d="M-240.31205867189624,-174.52539774163273A297,297,0,0,1,-238.58674721235957,-176.87669166576367L-206.6221840921995,-153.17970831989865A257.2095449239783,257.2095449239783,0,0,0,-208.11634764559864,-151.14342804983724Z" fill-rule="evenodd" style="fill: #AE497E; stroke: #fff; opacity: 1;" id="p-type-tokenTransfers"></path></g></svg>