<svg xmlns="http://www.w3.org/2000/svg" width="600" height="600" id="block-7913346"><g id="burst-container" transform="translate(300,300)"><data type="text/json">{"number":7913346,"totalTransactions":200,"totalFunctions":355,"totalFunctionsValue":"101.15565581054460825","totalLogs":150,"totalTokenTransfers":150,"tokens":{"0xd26114cd6ee289accf82350c8d8487fedb8a0c07":"4996.264357749599999891","0x744d70fdbe2ba4cf95131626614a1763df805b9e":"299970.8385","0x973e52691176d36453868d9d86572788d27041a9":"221155000","0x0d8775f648430679a709e98d2b0cb6250d2887ef":"86.05035911","0xdac17f958d2ee523a2206206994597c13d831ec7":"1.2401847e-9","0x174bfa6600bf90c885c7c01c7031389ed1461ab9":"0.59604438","0x931abd3732f7eada74190c8f89b46f8ba7103d54":"1588","0xf150801ef15d8dbd9fc1c035e84ef6ac83dd3ef3":"1e-13","0xe5385102abb47514d7ae0f6c6233e07430638316":"5.0659039057162197068480302661587457971759171595161364317933918896389453883608e+58","0x41ab1b6fcbb2fa9dced81acbdec13ea6315f2bf2":"498000","0x93f1bf08e8377fc75d04dd2b930e1982f2ec507b":"284.05","0x8e870d67f660d95d5be530380d0ec0bd388289e1":"302.32","0x8e766f57f7d16ca50b4a0b90b88f6468a09b0439":"226.4416","0x02c4c78c462e32cca4a90bc499bf411fb7bc6afb":"30000","0x0000000000085d4780b73119b644ae5ecd22b376":"506.836359340550984221","0x386cabc0b14a507a4e024dea15554342865b20de":"434782","0xe1f4328def6ae4ae2eeac62d58baeaecf05e8d30":"282461","0xe8780b48bdb05f928697a5e8155f672ed91462f7":"1","0xdb8646f5b487b5dd979fac618350e85018f557d4":"998516.2704","0xb563300a3bac79fc09b93b6f84ce0d4465a2ac27":"41.849992235623","0xc02aaa39b223fe8d0a0e5c4f27ead9083c756cc2":"1","0x39bb259f66e1c59d5abef88375979b4d20d98022":"6e-8","0x67563e7a0f13642068f6f999e48c690107a4571f":"58.634316858241143644","0x1f573d6fb3f13d689ff844b4ce37794d79a7ff1c":"64.52622240557339926","0x340d2bde5eb28c1eed91b2f790723e3b160613b7":"10113.131714277993665556","0x89d24a6b4ccb1b6faa2625fe562bdd9a23260359":"0.000108373341351724","0x9f8f72aa9304c8b593d555f12ef6589cc3a579a2":"1.33950002935e-7","0xf53ad2c6851052a81b42133467480961b2321c09":"0.960302969200861613","0xf651da6419c6a1a4b09f843ecaa7506a4db3f2c9":"3.33","0x06012c8cf97bead5deae237070f9587f8e7a266d":"8.53115e-13","0x498d99de4268cebca264887f591c4ba8fac042e4":"2100","0x2e98a6804e4b6c832ed0ca876a943abd3400b224":"43.8"},"totalEther":"108.513931600941125124","totalEtherTxns":108,"newContracts":[],"totalNewContracts":0}</data><circle r="297" style="fill: #f9f9f9; stroke: #f9f9f9; stroke-width: 3; opacity: 1;" id="circle-base"></circle><path display="none" d="M9.093002483669097e-15,-148.5A148.5,148.5,0,1,1,-9.093002483669097e-15,148.5A148.5,148.5,0,1,1,9.093002483669097e-15,-148.5Z" fill-rule="evenodd" id="p-type-root" style="stroke: #fff; opacity: 1;"></path><path d="M1.2859447435097075e-14,-210.0107140124046A210.0107140124046,210.0107140124046,0,1,1,-165.35275985270886,-129.47186879431527L-116.92205777976115,-91.55043639735528A148.5,148.5,0,1,0,9.093002483669097e-15,-148.5Z" fill-rule="evenodd" style="fill: #4E4E4E; stroke: #fff; opacity: 1;" id="p-type-data"></path><path d="M-165.35275985270886,-129.47186879431527A210.0107140124046,210.0107140124046,0,0,1,-1.9830515419965113,-210.00135120180008L-1.4022291927881727,-148.4933794931306A148.5,148.5,0,0,0,-116.92205777976115,-91.55043639735528Z" fill-rule="evenodd" style="fill: #3A86AD; stroke: #fff; opacity: 1;" id="p-type-value"></path><path d="M1.5749542295064867e-14,-257.2095449239783A257.2095449239783,257.2095449239783,0,0,1,251.27622311157378,54.92731286693894L205.16617703903245,44.847963155403136A210.0107140124046,210.0107140124046,0,0,0,1.2859447435097075e-14,-210.0107140124046Z" fill-rule="evenodd" style="fill: #6B0E12; stroke: #fff; opacity: 1;" id="p-type-functions"></path><path d="M251.27622311157378,54.92731286693894A257.2095449239783,257.2095449239783,0,0,1,84.16005826071586,243.05109461500666L68.71639982055271,198.45038774389417A210.0107140124046,210.0107140124046,0,0,0,205.16617703903245,44.847963155403136Z" fill-rule="evenodd" style="fill: #F09B24; stroke: #fff; opacity: 1;" id="p-type-ether"></path><path d="M84.16005826071586,243.05109461500666A257.2095449239783,257.2095449239783,0,0,1,-131.22239396504892,221.21806735002792L-107.14263601361351,180.62379563073722A210.0107140124046,210.0107140124046,0,0,0,68.71639982055271,198.45038774389417Z" fill-rule="evenodd" style="fill: #184B42; stroke: #fff; opacity: 1;" id="p-type-logs"></path><path d="M-131.22239396504892,221.21806735002792A257.2095449239783,257.2095449239783,0,0,1,-247.19370811110522,71.07756798232273L-201.8328174995637,58.03459123822452A210.0107140124046,210.0107140124046,0,0,0,-107.14263601361351,180.62379563073722Z" fill-rule="evenodd" style="fill: #AE497E; stroke: #fff; opacity: 1;" id="p-type-tokenTransfers"></path><path d="M-202.51494460005023,-158.57000729532237A257.2095449239783,257.2095449239783,0,0,1,-99.35510146254474,-237.2452608870564L-81.12310064189508,-193.70994435558788A210.0107140124046,210.0107140124046,0,0,0,-165.35275985270886,-129.47186879431527Z" fill-rule="evenodd" style="fill: #F09B24; stroke: #fff; opacity: 1;" id="p-type-ether"></path><path d="M-99.35510146254474,-237.2452608870564A257.2095449239783,257.2095449239783,0,0,1,-4.85724785344006,-257.16367772936024L-3.9659262650523455,-209.97326360482225A210.0107140124046,210.0107140124046,0,0,0,-81.12310064189508,-193.70994435558788Z" fill-rule="evenodd" style="fill: #AE497E; stroke: #fff; opacity: 1;" id="p-type-tokenTransfers"></path><path d="M1.8186004967338195e-14,-297A297,297,0,0,1,121.31348033469878,-271.0941524435425L105.06055579135307,-234.77442283351905A257.2095449239783,257.2095449239783,0,0,0,1.5749542295064867e-14,-257.2095449239783Z" fill-rule="evenodd" style="fill: #6B0E12; stroke: #fff; opacity: 1;" id="p-type-functions"></path><path d="M121.31348033469878,-271.0941524435425A297,297,0,0,1,125.22873951862185,-269.30793304055703L108.45126970703078,-233.227511453801A257.2095449239783,257.2095449239783,0,0,0,105.06055579135307,-234.77442283351905Z" fill-rule="evenodd" style="fill: #6B0E12; stroke: #fff; opacity: 1;" id="p-type-functions"></path><path d="M125.22873951862185,-269.30793304055703A297,297,0,0,1,127.81146561576267,-268.09182989630756L110.68797611817176,-232.17433523725882A257.2095449239783,257.2095449239783,0,0,0,108.45126970703078,-233.227511453801Z" fill-rule="evenodd" style="fill: #6B0E12; stroke: #fff; opacity: 1;" id="p-type-functions"></path><path d="M290.1487901088392,63.42459773917998A297,297,0,0,1,238.93394493773357,176.40739768074383L206.92286614250955,152.77328780702823A257.2095449239783,257.2095449239783,0,0,0,251.27622311157378,54.92731286693894Z" fill-rule="evenodd" style="fill: #F09B24; stroke: #fff; opacity: 1;" id="p-type-ether"></path><path d="M238.93394493773357,176.40739768074383A297,297,0,0,1,230.43040915811935,187.37883160918074L199.55858813537372,162.27482830499707A257.2095449239783,257.2095449239783,0,0,0,206.92286614250955,152.77328780702823Z" fill-rule="evenodd" style="fill: #F09B24; stroke: #fff; opacity: 1;" id="p-type-ether"></path><path d="M230.43040915811935,187.37883160918074A297,297,0,0,1,227.69121055508165,190.69796180337497L197.18637255913225,165.14927937163728A257.2095449239783,257.2095449239783,0,0,0,199.55858813537372,162.27482830499707Z" fill-rule="evenodd" style="fill: #F09B24; stroke: #fff; opacity: 1;" id="p-type-ether"></path><path d="M227.69121055508165,190.69796180337497A297,297,0,0,1,225.84775838850797,192.87765560293948L195.58989615221796,167.03694957453158A257.2095449239783,257.2095449239783,0,0,0,197.18637255913225,165.14927937163728Z" fill-rule="evenodd" style="fill: #F09B24; stroke: #fff; opacity: 1;" id="p-type-ether"></path></g></svg>