<svg xmlns="http://www.w3.org/2000/svg" width="600" height="600" id="block-7913327"><g id="burst-container" transform="translate(300,300)"><data type="text/json">{"number":7913327,"totalTransactions":173,"totalFunctions":273,"totalFunctionsValue":"94.930863370245117303","totalLogs":111,"totalTokenTransfers":111,"tokens":{"0xdd16ec0f66e54d453e6756713e533355989040e4":"27.14693876","0x973e52691176d36453868d9d86572788d27041a9":"110577500","0x985dd3d42de1e256d09e1c10f112bccb8015ad41":"48098","0x47bc01597798dcd7506dcca36ac4302fc93a8cfb":"1e-9","0xffe510a92434a0df346c5e72a3494b043cf249eb":"11136.228","0xf3586684107ce0859c44aa2b2e0fb8cd8731a15a":"1.00845270318e-7","0x174bfa6600bf90c885c7c01c7031389ed1461ab9":"215.71544289","0x4dc3643dbc642b72c158e7f3d2ff232df61cb6ce":"300","0xf150801ef15d8dbd9fc1c035e84ef6ac83dd3ef3":"2.9e-13","0x5ca9a71b1d01849c0a95490cc00559717fcf0d1d":"11200","0x0df259a1d46dd4262c55904a96bb6a0ea4dd9c3c":"202","0xb62132e35a6c13ee1ee0f84dc5d40bad8d815206":"3095","0x93f1bf08e8377fc75d04dd2b930e1982f2ec507b":"284.05","0xa37d94e80eab7a5bcb6d2e76b7666e341e4b58f6":"233.1882","0xd3ebdaea9aeac98de723f640bce4aa07e2e44192":"2.46","0x1c289a12a8552b314d0d153d6991fd27a54aa640":"4989","0x0d8775f648430679a709e98d2b0cb6250d2887ef":"28.82369278","0x2af5d2ad76741191d15dfe7bf6ac92d4bd912ca3":"360.75036075036075036","0x5d4d57cd06fa7fe99e26fdc481b468f77f05073c":"10000000","0x048fe49be32adfc9ed68c37d32b5ec9df17b3603":"649.152","0xcafe27178308351a12fffffdeb161d9d730da082":"1000","0xc3a02bf6da4ad9111e6e2b7404bc7e375f7b6311":"4.95e-11","0x91780bcd29620338d2d3bc16bc576d1055e85e38":"1e-16","0x369a07e09461f6eb506fa581508674281c11ccd0":"2","0xbf38ba2a90b825fba02f60459a097fb202134687":"44","0x89d24a6b4ccb1b6faa2625fe562bdd9a23260359":"400","0xf651da6419c6a1a4b09f843ecaa7506a4db3f2c9":"3.33","0xfc87d4f82fc5fe80a2d1692ffee872b2517c34c7":"24.8406","0x498d99de4268cebca264887f591c4ba8fac042e4":"2100","0x04abeda201850ac0124161f037efd70c74ddc74c":"3374.372241180545083372"},"totalEther":"67.927794937852152952","totalEtherTxns":74,"newContracts":[],"totalNewContracts":0}</data><circle r="297" style="fill: #f9f9f9; stroke: #f9f9f9; stroke-width: 3; opacity: 1;" id="circle-base"></circle><path display="none" d="M9.093002483669097e-15,-148.5A148.5,148.5,0,1,1,-9.093002483669097e-15,148.5A148.5,148.5,0,1,1,9.093002483669097e-15,-148.5Z" fill-rule="evenodd" id="p-type-root" style="stroke: #fff; opacity: 1;"></path><path d="M1.2859447435097075e-14,-210.0107140124046A210.0107140124046,210.0107140124046,0,1,1,-159.44314807725064,-136.68351228738572L-112.74333121915477,-96.64983841480523A148.5,148.5,0,1,0,9.093002483669097e-15,-148.5Z" fill-rule="evenodd" style="fill: #4E4E4E; stroke: #fff; opacity: 1;" id="p-type-data"></path><path d="M-159.44314807725064,-136.68351228738572A210.0107140124046,210.0107140124046,0,0,1,-2.2351592192605243,-209.99881919492915L-1.580496240970746,-148.49158909390215A148.5,148.5,0,0,0,-112.74333121915477,-96.64983841480523Z" fill-rule="evenodd" style="fill: #3A86AD; stroke: #fff; opacity: 1;" id="p-type-value"></path><path d="M1.5749542295064867e-14,-257.2095449239783A257.2095449239783,257.2095449239783,0,0,1,256.083843180841,24.037788203793678L209.0915823879886,19.62677188146236A210.0107140124046,210.0107140124046,0,0,0,1.2859447435097075e-14,-210.0107140124046Z" fill-rule="evenodd" style="fill: #6B0E12; stroke: #fff; opacity: 1;" id="p-type-functions"></path><path d="M256.083843180841,24.037788203793678A257.2095449239783,257.2095449239783,0,0,1,98.16617730895935,237.7396719787128L80.15234813551022,194.1136293214981A210.0107140124046,210.0107140124046,0,0,0,209.0915823879886,19.62677188146236Z" fill-rule="evenodd" style="fill: #184B42; stroke: #fff; opacity: 1;" id="p-type-logs"></path><path d="M98.16617730895935,237.7396719787128A257.2095449239783,257.2095449239783,0,0,1,-145.98544453141471,211.76638067683277L-119.19661632511432,172.9065257780732A210.0107140124046,210.0107140124046,0,0,0,80.15234813551022,194.1136293214981Z" fill-rule="evenodd" style="fill: #AE497E; stroke: #fff; opacity: 1;" id="p-type-tokenTransfers"></path><path d="M-145.98544453141471,211.76638067683277A257.2095449239783,257.2095449239783,0,0,1,-251.4537481171287,54.10880296077153L-205.31112559909718,44.17965261556197A210.0107140124046,210.0107140124046,0,0,0,-119.19661632511432,172.9065257780732Z" fill-rule="evenodd" style="fill: #F09B24; stroke: #fff; opacity: 1;" id="p-type-ether"></path><path d="M-195.27717788614243,-167.40243067776493A257.2095449239783,257.2095449239783,0,0,1,-103.72493067131178,-235.36756097056272L-84.69105125009148,-192.17680879376255A210.0107140124046,210.0107140124046,0,0,0,-159.44314807725064,-136.68351228738572Z" fill-rule="evenodd" style="fill: #AE497E; stroke: #fff; opacity: 1;" id="p-type-tokenTransfers"></path><path d="M-103.72493067131178,-235.36756097056272A257.2095449239783,257.2095449239783,0,0,1,-5.4746894820266165,-257.15127410743156L-4.470065243715716,-209.96313608992634A210.0107140124046,210.0107140124046,0,0,0,-84.69105125009148,-192.17680879376255Z" fill-rule="evenodd" style="fill: #F09B24; stroke: #fff; opacity: 1;" id="p-type-ether"></path><path d="M1.8186004967338195e-14,-297A297,297,0,0,1,31.550875134304874,-295.3193902849244L27.323859377938785,-255.7540942168759A257.2095449239783,257.2095449239783,0,0,0,1.5749542295064867e-14,-257.2095449239783Z" fill-rule="evenodd" style="fill: #6B0E12; stroke: #fff; opacity: 1;" id="p-type-functions"></path><path d="M31.550875134304874,-295.3193902849244A297,297,0,0,1,56.996814192027585,-291.47961021649434L49.36068902507731,-252.4287471326703A257.2095449239783,257.2095449239783,0,0,0,27.323859377938785,-255.7540942168759Z" fill-rule="evenodd" style="fill: #6B0E12; stroke: #fff; opacity: 1;" id="p-type-functions"></path><path d="M56.996814192027585,-291.47961021649434A297,297,0,0,1,72.34681476284136,-288.05370748121106L62.654179467507674,-249.4618283330204A257.2095449239783,257.2095449239783,0,0,0,49.36068902507731,-252.4287471326703Z" fill-rule="evenodd" style="fill: #6B0E12; stroke: #fff; opacity: 1;" id="p-type-functions"></path><path d="M72.34681476284136,-288.05370748121106A297,297,0,0,1,83.11445722212858,-285.13327936365295L71.97923137611835,-246.9326633932887A257.2095449239783,257.2095449239783,0,0,0,62.654179467507674,-249.4618283330204Z" fill-rule="evenodd" style="fill: #6B0E12; stroke: #fff; opacity: 1;" id="p-type-functions"></path><path d="M83.11445722212858,-285.13327936365295A297,297,0,0,1,89.23213490012596,-283.27835445223434L77.27729565742908,-245.3262512978876A257.2095449239783,257.2095449239783,0,0,0,71.97923137611835,-246.9326633932887Z" fill-rule="evenodd" style="fill: #6B0E12; stroke: #fff; opacity: 1;" id="p-type-functions"></path><path d="M89.23213490012596,-283.27835445223434A297,297,0,0,1,95.16512852526029,-281.3407157038787L82.41541885728654,-243.6482069184545A257.2095449239783,257.2095449239783,0,0,0,77.27729565742908,-245.3262512978876Z" fill-rule="evenodd" style="fill: #6B0E12; stroke: #fff; opacity: 1;" id="p-type-functions"></path><path d="M95.16512852526029,-281.3407157038787A297,297,0,0,1,96.6609669921916,-280.8303001104661L83.71085296960703,-243.2061740480715A257.2095449239783,257.2095449239783,0,0,0,82.41541885728654,-243.6482069184545Z" fill-rule="evenodd" style="fill: #6B0E12; stroke: #fff; opacity: 1;" id="p-type-functions"></path><path d="M96.6609669921916,-280.8303001104661A297,297,0,0,1,98.15406804473648,-280.31193147325934L85.00391641152818,-242.75725363972532A257.2095449239783,257.2095449239783,0,0,0,83.71085296960703,-243.2061740480715Z" fill-rule="evenodd" style="fill: #6B0E12; stroke: #fff; opacity: 1;" id="p-type-functions"></path><path d="M98.15406804473648,-280.31193147325934A297,297,0,0,1,99.64438939864687,-279.7856244723285L86.294572563817,-242.30145840672964A257.2095449239783,257.2095449239783,0,0,0,85.00391641152818,-242.75725363972532Z" fill-rule="evenodd" style="fill: #6B0E12; stroke: #fff; opacity: 1;" id="p-type-functions"></path><path d="M99.64438939864687,-279.7856244723285A297,297,0,0,1,101.13188884839518,-279.2513940125561L87.5827848754144,-241.83880125709126A257.2095449239783,257.2095449239783,0,0,0,86.294572563817,-242.30145840672964Z" fill-rule="evenodd" style="fill: #6B0E12; stroke: #fff; opacity: 1;" id="p-type-functions"></path><path d="M101.13188884839518,-279.2513940125561A297,297,0,0,1,102.61652426836935,-278.70925522321494L88.86851686447021,-241.3692952931449A257.2095449239783,257.2095449239783,0,0,0,87.5827848754144,-241.83880125709126Z" fill-rule="evenodd" style="fill: #6B0E12; stroke: #fff; opacity: 1;" id="p-type-functions"></path><path d="M102.61652426836935,-278.70925522321494A297,297,0,0,1,104.09825361406595,-278.1592234575399L90.15173211937638,-240.89295381118188A257.2095449239783,257.2095449239783,0,0,0,88.86851686447021,-241.3692952931449Z" fill-rule="evenodd" style="fill: #6B0E12; stroke: #fff; opacity: 1;" id="p-type-functions"></path><path d="M104.09825361406595,-278.1592234575399A297,297,0,0,1,105.5770349232809,-277.6013142922928L91.43239429979812,-240.40979030107374A257.2095449239783,257.2095449239783,0,0,0,90.15173211937638,-240.89295381118188Z" fill-rule="evenodd" style="fill: #6B0E12; stroke: #fff; opacity: 1;" id="p-type-functions"></path><path d="M105.5770349232809,-277.6013142922928A297,297,0,0,1,107.0528263172977,-277.0355435273216L92.71046713770312,-239.91981844589012A257.2095449239783,257.2095449239783,0,0,0,91.43239429979812,-240.40979030107374Z" fill-rule="evenodd" style="fill: #6B0E12; stroke: #fff; opacity: 1;" id="p-type-functions"></path><path d="M107.0528263172977,-277.0355435273216A297,297,0,0,1,108.52558600207354,-276.46192718511264L93.98591443838856,-239.42305212151126A257.2095449239783,257.2095449239783,0,0,0,92.71046713770312,-239.91981844589012Z" fill-rule="evenodd" style="fill: #6B0E12; stroke: #fff; opacity: 1;" id="p-type-functions"></path><path d="M108.52558600207354,-276.46192718511264A297,297,0,0,1,109.99527226942284,-275.88048151033723L95.25870008150619,-238.9195053962352A257.2095449239783,257.2095449239783,0,0,0,93.98591443838856,-239.42305212151126Z" fill-rule="evenodd" style="fill: #6B0E12; stroke: #fff; opacity: 1;" id="p-type-functions"></path><path d="M109.99527226942284,-275.88048151033723A297,297,0,0,1,111.46184349819846,-275.2912229693913L96.52878802208522,-238.40919253037902A257.2095449239783,257.2095449239783,0,0,0,95.25870008150619,-238.9195053962352Z" fill-rule="evenodd" style="fill: #6B0E12; stroke: #fff; opacity: 1;" id="p-type-functions"></path><path d="M111.46184349819846,-275.2912229693913A297,297,0,0,1,112.92525815547032,-274.69416824992913L97.79614229155315,-237.89212797587544A257.2095449239783,257.2095449239783,0,0,0,96.52878802208522,-238.40919253037902Z" fill-rule="evenodd" style="fill: #6B0E12; stroke: #fff; opacity: 1;" id="p-type-functions"></path><path d="M112.92525815547032,-274.69416824992913A297,297,0,0,1,114.3854747977017,-274.089334260391L99.06072699875435,-237.3683263758631A257.2095449239783,257.2095449239783,0,0,0,97.79614229155315,-237.89212797587544Z" fill-rule="evenodd" style="fill: #6B0E12; stroke: #fff; opacity: 1;" id="p-type-functions"></path><path d="M114.3854747977017,-274.089334260391A297,297,0,0,1,115.84245207192286,-273.476738129524L100.32250633096649,-236.8378025642722A257.2095449239783,257.2095449239783,0,0,0,99.06072699875435,-237.3683263758631Z" fill-rule="evenodd" style="fill: #6B0E12; stroke: #fff; opacity: 1;" id="p-type-functions"></path><path d="M115.84245207192286,-273.476738129524A297,297,0,0,1,117.29614871690217,-272.8563972058972L101.58144455491477,-236.30057156540434A257.2095449239783,257.2095449239783,0,0,0,100.32250633096649,-236.8378025642722Z" fill-rule="evenodd" style="fill: #6B0E12; stroke: #fff; opacity: 1;" id="p-type-functions"></path><path d="M117.29614871690217,-272.8563972058972A297,297,0,0,1,118.74652356431451,-272.22832905741035L102.83750601778384,-235.75664859350684A257.2095449239783,257.2095449239783,0,0,0,101.58144455491477,-236.30057156540434Z" fill-rule="evenodd" style="fill: #6B0E12; stroke: #fff; opacity: 1;" id="p-type-functions"></path><path d="M118.74652356431451,-272.22832905741035A297,297,0,0,1,120.19353553990736,-271.5925514707961L104.09065514822755,-235.20604905234214A257.2095449239783,257.2095449239783,0,0,0,102.83750601778384,-235.75664859350684Z" fill-rule="evenodd" style="fill: #6B0E12; stroke: #fff; opacity: 1;" id="p-type-functions"></path><path d="M120.19353553990736,-271.5925514707961A297,297,0,0,1,121.6371436646638,-270.9490824511165L105.34085645737623,-234.64878853475136A257.2095449239783,257.2095449239783,0,0,0,104.09065514822755,-235.20604905234214Z" fill-rule="evenodd" style="fill: #6B0E12; stroke: #fff; opacity: 1;" id="p-type-functions"></path><path d="M121.6371436646638,-270.9490824511165A297,297,0,0,1,123.07730705596312,-270.2979402212532L106.5880745398418,-234.08488282221288A257.2095449239783,257.2095449239783,0,0,0,105.34085645737623,-234.64878853475136Z" fill-rule="evenodd" style="fill: #6B0E12; stroke: #fff; opacity: 1;" id="p-type-functions"></path><path d="M123.07730705596312,-270.2979402212532A297,297,0,0,1,124.51398492873864,-269.63914322139107L107.83227407472039,-233.51434788439528A257.2095449239783,257.2095449239783,0,0,0,106.5880745398418,-234.08488282221288Z" fill-rule="evenodd" style="fill: #6B0E12; stroke: #fff; opacity: 1;" id="p-type-functions"></path><path d="M124.51398492873864,-269.63914322139107A297,297,0,0,1,125.94713659663266,-268.97271010849624L109.07341982659266,-232.93719987870523A257.2095449239783,257.2095449239783,0,0,0,107.83227407472039,-233.51434788439528Z" fill-rule="evenodd" style="fill: #6B0E12; stroke: #fff; opacity: 1;" id="p-type-functions"></path><path d="M125.94713659663266,-268.97271010849624A297,297,0,0,1,127.37672147314875,-268.2986597557876L110.31147664652163,-232.35345514982967A257.2095449239783,257.2095449239783,0,0,0,109.07341982659266,-232.93719987870523Z" fill-rule="evenodd" style="fill: #6B0E12; stroke: #fff; opacity: 1;" id="p-type-functions"></path><path d="M127.37672147314875,-268.2986597557876A297,297,0,0,1,128.8026990728011,-267.6170112522024L111.54640947304812,-231.7631302292733A257.2095449239783,257.2095449239783,0,0,0,110.31147664652163,-232.35345514982967Z" fill-rule="evenodd" style="fill: #6B0E12; stroke: #fff; opacity: 1;" id="p-type-functions"></path><path d="M128.8026990728011,-267.6170112522024A297,297,0,0,1,130.22502901226107,-266.9277839018557L112.77818333318362,-231.16624183488997A257.2095449239783,257.2095449239783,0,0,0,111.54640947304812,-231.7631302292733Z" fill-rule="evenodd" style="fill: #6B0E12; stroke: #fff; opacity: 1;" id="p-type-functions"></path><path d="M130.22502901226107,-266.9277839018557A297,297,0,0,1,131.64367101150083,-266.2309972234934L114.0067633434008,-230.56280687040962A257.2095449239783,257.2095449239783,0,0,0,112.77818333318362,-231.16624183488997Z" fill-rule="evenodd" style="fill: #6B0E12; stroke: #fff; opacity: 1;" id="p-type-functions"></path><path d="M131.64367101150083,-266.2309972234934A297,297,0,0,1,133.0585848949341,-265.5266709499398L115.23211471062133,-229.9528424249594A257.2095449239783,257.2095449239783,0,0,0,114.0067633434008,-230.56280687040962Z" fill-rule="evenodd" style="fill: #6B0E12; stroke: #fff; opacity: 1;" id="p-type-functions"></path><path d="M133.0585848949341,-265.5266709499398A297,297,0,0,1,134.469730592554,-264.81482502753875L116.45420273320126,-229.3363657725797A257.2095449239783,257.2095449239783,0,0,0,115.23211471062133,-229.9528424249594Z" fill-rule="evenodd" style="fill: #6B0E12; stroke: #fff; opacity: 1;" id="p-type-functions"></path><path d="M134.469730592554,-264.81482502753875A297,297,0,0,1,135.87706814106758,-264.09547961558843L117.67299280191374,-228.71339437173498A257.2095449239783,257.2095449239783,0,0,0,116.45420273320126,-229.3363657725797Z" fill-rule="evenodd" style="fill: #6B0E12; stroke: #fff; opacity: 1;" id="p-type-functions"></path><path d="M135.87706814106758,-264.09547961558843A297,297,0,0,1,137.28055768502782,-263.3686550857709L118.88845040092913,-228.0839458648193A257.2095449239783,257.2095449239783,0,0,0,117.67299280191374,-228.71339437173498Z" fill-rule="evenodd" style="fill: #6B0E12; stroke: #fff; opacity: 1;" id="p-type-functions"></path><path d="M137.28055768502782,-263.3686550857709A297,297,0,0,1,138.68015947796215,-262.63437202157485L120.10054110879253,-227.44803807765683A257.2095449239783,257.2095449239783,0,0,0,118.88845040092913,-228.0839458648193Z" fill-rule="evenodd" style="fill: #6B0E12; stroke: #fff; opacity: 1;" id="p-type-functions"></path><path d="M138.68015947796215,-262.63437202157485A297,297,0,0,1,140.07583388349823,-261.89265121771285L121.3092305993985,-226.80568901899696A257.2095449239783,257.2095449239783,0,0,0,120.10054110879253,-227.44803807765683Z" fill-rule="evenodd" style="fill: #6B0E12; stroke: #fff; opacity: 1;" id="p-type-functions"></path><path d="M140.07583388349823,-261.89265121771285A297,297,0,0,1,141.46754137648628,-261.1435136795324L122.51448464296331,-226.15691688000416A257.2095449239783,257.2095449239783,0,0,0,121.3092305993985,-226.80568901899696Z" fill-rule="evenodd" style="fill: #6B0E12; stroke: #fff; opacity: 1;" id="p-type-functions"></path><path d="M141.46754137648628,-261.1435136795324A297,297,0,0,1,142.8552425441185,-260.38698062242105L123.71626910699415,-225.50174003374298A257.2095449239783,257.2095449239783,0,0,0,122.51448464296331,-226.15691688000416Z" fill-rule="evenodd" style="fill: #6B0E12; stroke: #fff; opacity: 1;" id="p-type-functions"></path><path d="M142.8552425441185,-260.38698062242105A297,297,0,0,1,144.23889808704524,-259.6230734712055L124.91454995725586,-224.84017703465773A257.2095449239783,257.2095449239783,0,0,0,123.71626910699415,-225.50174003374298Z" fill-rule="evenodd" style="fill: #6B0E12; stroke: #fff; opacity: 1;" id="p-type-functions"></path><path d="M144.23889808704524,-259.6230734712055A297,297,0,0,1,145.61846882048795,-258.8518138595451L126.10929325873475,-224.1722466180469A257.2095449239783,257.2095449239783,0,0,0,124.91454995725586,-224.84017703465773Z" fill-rule="evenodd" style="fill: #6B0E12; stroke: #fff; opacity: 1;" id="p-type-functions"></path><path d="M145.61846882048795,-258.8518138595451A297,297,0,0,1,146.99391567534877,-258.07322362931893L127.30046517659964,-223.49796769953267A257.2095449239783,257.2095449239783,0,0,0,126.10929325873475,-224.1722466180469Z" fill-rule="evenodd" style="fill: #6B0E12; stroke: #fff; opacity: 1;" id="p-type-functions"></path><path d="M146.99391567534877,-258.07322362931893A297,297,0,0,1,148.36519969931712,-257.2873248300074L128.48803197715998,-222.81735937452518A257.2095449239783,257.2095449239783,0,0,0,127.30046517659964,-223.49796769953267Z" fill-rule="evenodd" style="fill: #6B0E12; stroke: #fff; opacity: 1;" id="p-type-functions"></path><path d="M148.36519969931712,-257.2873248300074A297,297,0,0,1,149.73228205797278,-256.4941397180678L129.67196002882133,-222.13044091768188A257.2095449239783,257.2095449239783,0,0,0,128.48803197715998,-222.81735937452518Z" fill-rule="evenodd" style="fill: #6B0E12; stroke: #fff; opacity: 1;" id="p-type-functions"></path><path d="M149.73228205797278,-256.4941397180678A297,297,0,0,1,151.09512403588556,-255.69369075630388L130.85221580303764,-221.43723178236147A257.2095449239783,257.2095449239783,0,0,0,129.67196002882133,-222.13044091768188Z" fill-rule="evenodd" style="fill: #6B0E12; stroke: #fff; opacity: 1;" id="p-type-functions"></path><path d="M151.09512403588556,-255.69369075630388A297,297,0,0,1,152.45368703771183,-254.88600061322987L132.02876587526083,-220.73775160007307A257.2095449239783,257.2095449239783,0,0,0,130.85221580303764,-221.43723178236147Z" fill-rule="evenodd" style="fill: #6B0E12; stroke: #fff; opacity: 1;" id="p-type-functions"></path><path d="M152.45368703771183,-254.88600061322987A297,297,0,0,1,153.8079325892875,-254.0710921624284L133.20157692588742,-220.03202017992038A257.2095449239783,257.2095449239783,0,0,0,132.02876587526083,-220.73775160007307Z" fill-rule="evenodd" style="fill: #6B0E12; stroke: #fff; opacity: 1;" id="p-type-functions"></path><path d="M153.8079325892875,-254.0710921624284A297,297,0,0,1,155.1578223387176,-253.2489884819028L134.3706157412021,-219.32005750804055A257.2095449239783,257.2095449239783,0,0,0,133.20157692588742,-220.03202017992038Z" fill-rule="evenodd" style="fill: #6B0E12; stroke: #fff; opacity: 1;" id="p-type-functions"></path><path d="M155.1578223387176,-253.2489884819028A297,297,0,0,1,156.50331805746234,-252.41971285342353L135.53584921431823,-218.6018837470382A257.2095449239783,257.2095449239783,0,0,0,134.3706157412021,-219.32005750804055Z" fill-rule="evenodd" style="fill: #6B0E12; stroke: #fff; opacity: 1;" id="p-type-functions"></path><path d="M156.50331805746234,-252.41971285342353A297,297,0,0,1,157.84438164141983,-251.58328876186872L136.69724434611564,-217.87751923541438A257.2095449239783,257.2095449239783,0,0,0,135.53584921431823,-218.6018837470382Z" fill-rule="evenodd" style="fill: #6B0E12; stroke: #fff; opacity: 1;" id="p-type-functions"></path><path d="M157.84438164141983,-251.58328876186872A297,297,0,0,1,159.18097511200506,-250.73973989455925L137.85476824617487,-217.1469844869908A257.2095449239783,257.2095449239783,0,0,0,136.69724434611564,-217.87751923541438Z" fill-rule="evenodd" style="fill: #6B0E12; stroke: #fff; opacity: 1;" id="p-type-functions"></path><path d="M159.18097511200506,-250.73973989455925A297,297,0,0,1,160.51306061722556,-249.88909014058794L139.00838813370885,-216.41030019032866A257.2095449239783,257.2095449239783,0,0,0,137.85476824617487,-217.1469844869908Z" fill-rule="evenodd" style="fill: #6B0E12; stroke: #fff; opacity: 1;" id="p-type-functions"></path><path d="M160.51306061722556,-249.88909014058794A297,297,0,0,1,161.84060043275335,-249.03136359014277L140.15807133849123,-215.66748720814275A257.2095449239783,257.2095449239783,0,0,0,139.00838813370885,-216.41030019032866Z" fill-rule="evenodd" style="fill: #6B0E12; stroke: #fff; opacity: 1;" id="p-type-functions"></path><path d="M161.84060043275335,-249.03136359014277A297,297,0,0,1,163.1635569629932,-248.16658453382493L141.30378530178146,-214.9185665767108A257.2095449239783,257.2095449239783,0,0,0,140.15807133849123,-215.66748720814275Z" fill-rule="evenodd" style="fill: #6B0E12; stroke: #fff; opacity: 1;" id="p-type-functions"></path><path d="M163.1635569629932,-248.16658453382493A297,297,0,0,1,164.48189274214735,-247.29477746196085L142.4454975772469,-214.16355950527756A257.2095449239783,257.2095449239783,0,0,0,141.30378530178146,-214.9185665767108Z" fill-rule="evenodd" style="fill: #6B0E12; stroke: #fff; opacity: 1;" id="p-type-functions"></path><path d="M164.48189274214735,-247.29477746196085A297,297,0,0,1,165.79557043527655,-246.41596706390854L143.5831758318817,-213.4024873754543A257.2095449239783,257.2095449239783,0,0,0,142.4454975772469,-214.16355950527756Z" fill-rule="evenodd" style="fill: #6B0E12; stroke: #fff; opacity: 1;" id="p-type-functions"></path><path d="M165.79557043527655,-246.41596706390854A297,297,0,0,1,167.1045528393574,-245.53017822735845L144.71678784692259,-212.6353717406133A257.2095449239783,257.2095449239783,0,0,0,143.5831758318817,-213.4024873754543Z" fill-rule="evenodd" style="fill: #6B0E12; stroke: #fff; opacity: 1;" id="p-type-functions"></path><path d="M167.1045528393574,-245.53017822735845A297,297,0,0,1,168.408802884336,-244.63743603762867L145.84630151876104,-211.86223432527717A257.2095449239783,257.2095449239783,0,0,0,144.71678784692259,-212.6353717406133Z" fill-rule="evenodd" style="fill: #6B0E12; stroke: #fff; opacity: 1;" id="p-type-functions"></path><path d="M168.408802884336,-244.63743603762867A297,297,0,0,1,169.70828363417755,-243.73776577695455L146.97168485985264,-211.08309702450399A257.2095449239783,257.2095449239783,0,0,0,145.84630151876104,-211.86223432527717Z" fill-rule="evenodd" style="fill: #6B0E12; stroke: #fff; opacity: 1;" id="p-type-functions"></path><path d="M169.70828363417755,-243.73776577695455A297,297,0,0,1,171.0029582879125,-242.8311929237726L148.09290599962293,-210.29798190326707A257.2095449239783,257.2095449239783,0,0,0,146.97168485985264,-211.08309702450399Z" fill-rule="evenodd" style="fill: #6B0E12; stroke: #fff; opacity: 1;" id="p-type-functions"></path><path d="M171.0029582879125,-242.8311929237726A297,297,0,0,1,172.29279018067876,-241.91774315199908L149.2099331853699,-209.50691119583013A257.2095449239783,257.2095449239783,0,0,0,148.09290599962293,-210.29798190326707Z" fill-rule="evenodd" style="fill: #6B0E12; stroke: #fff; opacity: 1;" id="p-type-functions"></path><path d="M172.29279018067876,-241.91774315199908A297,297,0,0,1,173.57774278476012,-240.99744233030287L150.32273478316333,-208.70990730511753A257.2095449239783,257.2095449239783,0,0,0,149.2099331853699,-209.50691119583013Z" fill-rule="evenodd" style="fill: #6B0E12; stroke: #fff; opacity: 1;" id="p-type-functions"></path><path d="M173.57774278476012,-240.99744233030287A297,297,0,0,1,174.85777971062046,-240.0703165213728L151.4312792787405,-207.90699280207988A257.2095449239783,257.2095449239783,0,0,0,150.32273478316333,-208.70990730511753Z" fill-rule="evenodd" style="fill: #6B0E12; stroke: #fff; opacity: 1;" id="p-type-functions"></path><path d="M174.85777971062046,-240.0703165213728A297,297,0,0,1,176.1328647079345,-239.13639198117974L152.53553527839887,-207.09819042505498A257.2095449239783,257.2095449239783,0,0,0,151.4312792787405,-207.90699280207988Z" fill-rule="evenodd" style="fill: #6B0E12; stroke: #fff; opacity: 1;" id="p-type-functions"></path><path d="M176.1328647079345,-239.13639198117974A297,297,0,0,1,177.4029616666143,-238.19569515823284L153.63547150988495,-206.28352307912365A257.2095449239783,257.2095449239783,0,0,0,152.53553527839887,-207.09819042505498Z" fill-rule="evenodd" style="fill: #6B0E12; stroke: #fff; opacity: 1;" id="p-type-functions"></path><path d="M177.4029616666143,-238.19569515823284A297,297,0,0,1,178.668034617832,-237.24825269283056L154.73105682328003,-205.4630138354611A257.2095449239783,257.2095449239783,0,0,0,153.63547150988495,-206.28352307912365Z" fill-rule="evenodd" style="fill: #6B0E12; stroke: #fff; opacity: 1;" id="p-type-functions"></path><path d="M178.668034617832,-237.24825269283056A297,297,0,0,1,179.92804773503832,-236.29409141630643L155.82226019188232,-204.63668593068383A257.2095449239783,257.2095449239783,0,0,0,154.73105682328003,-205.4630138354611Z" fill-rule="evenodd" style="fill: #6B0E12; stroke: #fff; opacity: 1;" id="p-type-functions"></path><path d="M179.92804773503832,-236.29409141630643A297,297,0,0,1,181.18296533497718,-235.33323835026886L156.90905071308558,-203.80456276619114A257.2095449239783,257.2095449239783,0,0,0,155.82226019188232,-204.63668593068383Z" fill-rule="evenodd" style="fill: #6B0E12; stroke: #fff; opacity: 1;" id="p-type-functions"></path><path d="M181.18296533497718,-235.33323835026886A297,297,0,0,1,182.43275187869637,-234.36572070583617L157.99139760925434,-202.96666790750274A257.2095449239783,257.2095449239783,0,0,0,156.90905071308558,-203.80456276619114Z" fill-rule="evenodd" style="fill: #6B0E12; stroke: #fff; opacity: 1;" id="p-type-functions"></path><path d="M182.43275187869637,-234.36572070583617A297,297,0,0,1,183.67737197255386,-233.39156588286582L159.06927022859549,-202.1230250835913A257.2095449239783,257.2095449239783,0,0,0,157.99139760925434,-202.96666790750274Z" fill-rule="evenodd" style="fill: #6B0E12; stroke: #fff; opacity: 1;" id="p-type-functions"></path><path d="M183.67737197255386,-233.39156588286582A297,297,0,0,1,184.9167903692201,-232.4108014691785L160.14263804602624,-201.27365818621033A257.2095449239783,257.2095449239783,0,0,0,159.06927022859549,-202.1230250835913Z" fill-rule="evenodd" style="fill: #6B0E12; stroke: #fff; opacity: 1;" id="p-type-functions"></path><path d="M184.9167903692201,-232.4108014691785A297,297,0,0,1,186.15097196867643,-231.42345523977693L161.21147066403873,-200.41859126921779A257.2095449239783,257.2095449239783,0,0,0,160.14263804602624,-201.27365818621033Z" fill-rule="evenodd" style="fill: #6B0E12; stroke: #fff; opacity: 1;" id="p-type-functions"></path><path d="M186.15097196867643,-231.42345523977693A297,297,0,0,1,187.37988181920895,-230.4295551560591L162.27573781356085,-199.55784854789465A257.2095449239783,257.2095449239783,0,0,0,161.21147066403873,-200.41859126921779Z" fill-rule="evenodd" style="fill: #6B0E12; stroke: #fff; opacity: 1;" id="p-type-functions"></path><path d="M187.37988181920895,-230.4295551560591A297,297,0,0,1,188.60348511839834,-229.42912936502657L163.3354093548133,-198.69145439825934A257.2095449239783,257.2095449239783,0,0,0,162.27573781356085,-199.55784854789465Z" fill-rule="evenodd" style="fill: #6B0E12; stroke: #fff; opacity: 1;" id="p-type-functions"></path><path d="M188.60348511839834,-229.42912936502657A297,297,0,0,1,189.82174721410544,-228.42220619848732L164.39045527816333,-197.8194333563773A257.2095449239783,257.2095449239783,0,0,0,163.3354093548133,-198.69145439825934Z" fill-rule="evenodd" style="fill: #6B0E12; stroke: #fff; opacity: 1;" id="p-type-functions"></path><path d="M189.82174721410544,-228.42220619848732A297,297,0,0,1,191.03463360545274,-227.4088141722533L165.44084570497452,-196.94181011766602A257.2095449239783,257.2095449239783,0,0,0,164.39045527816333,-197.8194333563773Z" fill-rule="evenodd" style="fill: #6B0E12; stroke: #fff; opacity: 1;" id="p-type-functions"></path><path d="M191.03463360545274,-227.4088141722533A297,297,0,0,1,192.24210994380127,-226.388981985333L166.48655088845294,-196.05860953619603A257.2095449239783,257.2095449239783,0,0,0,165.44084570497452,-196.94181011766602Z" fill-rule="evenodd" style="fill: #6B0E12; stroke: #fff; opacity: 1;" id="p-type-functions"></path><path d="M192.24210994380127,-226.388981985333A297,297,0,0,1,193.44414203372338,-225.36273851911866L167.5275412144896,-195.16985662398662A257.2095449239783,257.2095449239783,0,0,0,166.48655088845294,-196.05860953619603Z" fill-rule="evenodd" style="fill: #6B0E12; stroke: #fff; opacity: 1;" id="p-type-functions"></path><path d="M193.44414203372338,-225.36273851911866A297,297,0,0,1,194.64069583397125,-224.33011283656833L168.56378720249907,-194.27557655029779A257.2095449239783,257.2095449239783,0,0,0,167.5275412144896,-195.16985662398662Z" fill-rule="evenodd" style="fill: #6B0E12; stroke: #fff; opacity: 1;" id="p-type-functions"></path><path d="M194.64069583397125,-224.33011283656833A297,297,0,0,1,195.8317374584408,-223.29113418138286L169.5952595062544,-193.37579464091738A257.2095449239783,257.2095449239783,0,0,0,168.56378720249907,-194.27557655029779Z" fill-rule="evenodd" style="fill: #6B0E12; stroke: #fff; opacity: 1;" id="p-type-functions"></path><path d="M195.8317374584408,-223.29113418138286A297,297,0,0,1,197.01723317713137,-222.24583197717755L170.62192891471813,-192.4705363774437A257.2095449239783,257.2095449239783,0,0,0,169.5952595062544,-193.37579464091738Z" fill-rule="evenodd" style="fill: #6B0E12; stroke: #fff; opacity: 1;" id="p-type-functions"></path><path d="M197.01723317713137,-222.24583197717755A297,297,0,0,1,198.19714941710106,-221.19423582664922L171.64376635286968,-191.55982739656426A257.2095449239783,257.2095449239783,0,0,0,170.62192891471813,-192.4705363774437Z" fill-rule="evenodd" style="fill: #6B0E12; stroke: #fff; opacity: 1;" id="p-type-functions"></path><path d="M198.19714941710106,-221.19423582664922A297,297,0,0,1,199.3714527634173,-220.1363755107376L172.66074288252858,-190.64369348932934A257.2095449239783,257.2095449239783,0,0,0,171.64376635286968,-191.55982739656426Z" fill-rule="evenodd" style="fill: #6B0E12; stroke: #fff; opacity: 1;" id="p-type-functions"></path><path d="M199.3714527634173,-220.1363755107376A297,297,0,0,1,200.54010996010328,-219.07228098778194L173.6728297031742,-189.72216060042186A257.2095449239783,257.2095449239783,0,0,0,172.66074288252858,-190.64369348932934Z" fill-rule="evenodd" style="fill: #6B0E12; stroke: #fff; opacity: 1;" id="p-type-functions"></path><path d="M200.54010996010328,-219.07228098778194A297,297,0,0,1,201.7030879110798,-218.0019823926728L174.67999815276102,-188.79525482742255A257.2095449239783,257.2095449239783,0,0,0,173.6728297031742,-189.72216060042186Z" fill-rule="evenodd" style="fill: #6B0E12; stroke: #fff; opacity: 1;" id="p-type-functions"></path><path d="M201.7030879110798,-218.0019823926728A297,297,0,0,1,202.8603536811024,-216.9255100359984L175.68221970853074,-187.86300242007084A257.2095449239783,257.2095449239783,0,0,0,174.67999815276102,-188.79525482742255Z" fill-rule="evenodd" style="fill: #6B0E12; stroke: #fff; opacity: 1;" id="p-type-functions"></path><path d="M202.8603536811024,-216.9255100359984A297,297,0,0,1,204.01187449669425,-215.84289440318642L176.67946598781987,-186.9254297795215A257.2095449239783,257.2095449239783,0,0,0,175.68221970853074,-187.86300242007084Z" fill-rule="evenodd" style="fill: #6B0E12; stroke: #fff; opacity: 1;" id="p-type-functions"></path><path d="M204.01187449669425,-215.84289440318642A297,297,0,0,1,205.15761774707406,-214.75416615364054L177.67170874886332,-185.98256345759697A257.2095449239783,257.2095449239783,0,0,0,176.67946598781987,-186.9254297795215Z" fill-rule="evenodd" style="fill: #6B0E12; stroke: #fff; opacity: 1;" id="p-type-functions"></path><path d="M205.15761774707406,-214.75416615364054A297,297,0,0,1,206.29755098507985,-213.65935611987223L178.6589198915946,-185.0344301560355A257.2095449239783,257.2095449239783,0,0,0,177.67170874886332,-185.98256345759697Z" fill-rule="evenodd" style="fill: #6B0E12; stroke: #fff; opacity: 1;" id="p-type-functions"></path><path d="M206.29755098507985,-213.65935611987223A297,297,0,0,1,207.43164192808769,-212.55849530662755L179.64107145844125,-184.08105672573484A257.2095449239783,257.2095449239783,0,0,0,178.6589198915946,-185.0344301560355Z" fill-rule="evenodd" style="fill: #6B0E12; stroke: #fff; opacity: 1;" id="p-type-functions"></path><path d="M207.43164192808769,-212.55849530662755A297,297,0,0,1,208.55985845892602,-211.45161489000918L180.6181356351168,-183.1224701659918A257.2095449239783,257.2095449239783,0,0,0,179.64107145844125,-184.08105672573484Z" fill-rule="evenodd" style="fill: #6B0E12; stroke: #fff; opacity: 1;" id="p-type-functions"></path><path d="M208.55985845892602,-211.45161489000918A297,297,0,0,1,209.68216862678509,-210.33874621659336L181.5900847514083,-182.15869762373782A257.2095449239783,257.2095449239783,0,0,0,180.6181356351168,-183.1224701659918Z" fill-rule="evenodd" style="fill: #6B0E12; stroke: #fff; opacity: 1;" id="p-type-functions"></path><path d="M209.68216862678509,-210.33874621659336A297,297,0,0,1,210.79854064812196,-209.21992080254233L182.55689128196022,-181.18976639277A257.2095449239783,257.2095449239783,0,0,0,181.5900847514083,-182.15869762373782Z" fill-rule="evenodd" style="fill: #6B0E12; stroke: #fff; opacity: 1;" id="p-type-functions"></path><path d="M210.79854064812196,-209.21992080254233A297,297,0,0,1,211.9089429075604,-208.09517033271175L183.51852784705358,-180.21570391297823A257.2095449239783,257.2095449239783,0,0,0,182.55689128196022,-181.18976639277Z" fill-rule="evenodd" style="fill: #6B0E12; stroke: #fff; opacity: 1;" id="p-type-functions"></path><path d="M211.9089429075604,-208.09517033271175A297,297,0,0,1,213.01334395878646,-206.9645266597533L184.47496721338157,-179.23653776956806A257.2095449239783,257.2095449239783,0,0,0,183.51852784705358,-180.21570391297823Z" fill-rule="evenodd" style="fill: #6B0E12; stroke: #fff; opacity: 1;" id="p-type-functions"></path><path d="M213.01334395878646,-206.9645266597533A297,297,0,0,1,214.11171252543883,-205.82802180321278L185.42618229482082,-178.2522956922796A257.2095449239783,257.2095449239783,0,0,0,184.47496721338157,-179.23653776956806Z" fill-rule="evenodd" style="fill: #6B0E12; stroke: #fff; opacity: 1;" id="p-type-functions"></path><path d="M214.11171252543883,-205.82802180321278A297,297,0,0,1,215.2040175019947,-204.6856879486232L186.37214615319837,-177.26300555460205A257.2095449239783,257.2095449239783,0,0,0,185.42618229482082,-178.2522956922796Z" fill-rule="evenodd" style="fill: #6B0E12; stroke: #fff; opacity: 1;" id="p-type-functions"></path><path d="M215.2040175019947,-204.6856879486232A297,297,0,0,1,216.29022795465056,-203.53755744659338L187.31283199905454,-176.26869537298444A257.2095449239783,257.2095449239783,0,0,0,186.37214615319837,-177.26300555460205Z" fill-rule="evenodd" style="fill: #6B0E12; stroke: #fff; opacity: 1;" id="p-type-functions"></path><path d="M216.29022795465056,-203.53755744659338A297,297,0,0,1,217.3703131221983,-202.38366281189164L188.24821319240166,-175.26939330604213A257.2095449239783,257.2095449239783,0,0,0,187.31283199905454,-176.26869537298444Z" fill-rule="evenodd" style="fill: #6B0E12; stroke: #fff; opacity: 1;" id="p-type-functions"></path><path d="M217.3703131221983,-202.38366281189164A297,297,0,0,1,218.44424241689646,-201.2240367225252L189.17826324347857,-174.2651276537596A257.2095449239783,257.2095449239783,0,0,0,188.24821319240166,-175.26939330604213Z" fill-rule="evenodd" style="fill: #6B0E12; stroke: #fff; opacity: 1;" id="p-type-functions"></path><path d="M218.44424241689646,-201.2240367225252A297,297,0,0,1,219.5119854253362,-200.0587120188146L190.10295581350059,-173.25592685668863A257.2095449239783,257.2095449239783,0,0,0,189.17826324347857,-174.2651276537596Z" fill-rule="evenodd" style="fill: #6B0E12; stroke: #fff; opacity: 1;" id="p-type-functions"></path><path d="M219.5119854253362,-200.0587120188146A297,297,0,0,1,220.57351190930285,-198.88772170246366L191.02226471540567,-172.24181949514318A257.2095449239783,257.2095449239783,0,0,0,190.10295581350059,-173.25592685668863Z" fill-rule="evenodd" style="fill: #6B0E12; stroke: #fff; opacity: 1;" id="p-type-functions"></path><path d="M220.57351190930285,-198.88772170246366A297,297,0,0,1,221.62879180663208,-197.71109893562507L191.93616391459582,-171.2228342883898A257.2095449239783,257.2095449239783,0,0,0,191.02226471540567,-172.24181949514318Z" fill-rule="evenodd" style="fill: #6B0E12; stroke: #fff; opacity: 1;" id="p-type-functions"></path><path d="M221.62879180663208,-197.71109893562507A297,297,0,0,1,222.67779523206144,-196.52887703996097L192.84462752967457,-170.1990000938345A257.2095449239783,257.2095449239783,0,0,0,191.93616391459582,-171.2228342883898Z" fill-rule="evenodd" style="fill: #6B0E12; stroke: #fff; opacity: 1;" id="p-type-functions"></path><path d="M222.67779523206144,-196.52887703996097A297,297,0,0,1,223.72049247807655,-195.34108949569952L193.74762983317973,-169.17034590620534A257.2095449239783,257.2095449239783,0,0,0,192.84462752967457,-170.1990000938345Z" fill-rule="evenodd" style="fill: #6B0E12; stroke: #fff; opacity: 1;" id="p-type-functions"></path><path d="M295.7001515911449,27.75644698036698A297,297,0,0,1,295.5482554860561,29.329655285204268L255.9522972950982,25.40022656122742A257.2095449239783,257.2095449239783,0,0,0,256.083843180841,24.037788203793678Z" fill-rule="evenodd" style="fill: #184B42; stroke: #fff; opacity: 1;" id="p-type-logs"></path><path d="M295.5482554860561,29.329655285204268A297,297,0,0,1,295.3879895283615,30.902032981546466L255.81350290437283,26.76194559060382A257.2095449239783,257.2095449239783,0,0,0,255.9522972950982,25.40022656122742Z" fill-rule="evenodd" style="fill: #184B42; stroke: #fff; opacity: 1;" id="p-type-logs"></path><path d="M295.3879895283615,30.902032981546466A297,297,0,0,1,295.21935825675297,32.47353554005085L255.66746393928736,28.12290672838086A257.2095449239783,257.2095449239783,0,0,0,255.81350290437283,26.76194559060382Z" fill-rule="evenodd" style="fill: #184B42; stroke: #fff; opacity: 1;" id="p-type-logs"></path><path d="M295.21935825675297,32.47353554005085A297,297,0,0,1,295.04236644682584,34.044118456158394L255.51418453562866,29.483071432479832A257.2095449239783,257.2095449239783,0,0,0,255.66746393928736,28.12290672838086Z" fill-rule="evenodd" style="fill: #184B42; stroke: #fff; opacity: 1;" id="p-type-logs"></path><path d="M295.04236644682584,34.044118456158394A297,297,0,0,1,294.8570191109439,35.613737251354095L255.3536690342311,30.842401183376836A257.2095449239783,257.2095449239783,0,0,0,255.51418453562866,29.483071432479832Z" fill-rule="evenodd" style="fill: #184B42; stroke: #fff; opacity: 1;" id="p-type-logs"></path><path d="M294.8570191109439,35.613737251354095A297,297,0,0,1,294.6633214980972,37.18234747442663L255.1859219808535,32.20085748519362A257.2095449239783,257.2095449239783,0,0,0,255.3536690342311,30.842401183376836Z" fill-rule="evenodd" style="fill: #184B42; stroke: #fff; opacity: 1;" id="p-type-logs"></path><path d="M294.6633214980972,37.18234747442663A297,297,0,0,1,294.4612790937538,38.74990470272717L255.0109481260504,33.55840186678782A257.2095449239783,257.2095449239783,0,0,0,255.1859219808535,32.20085748519362Z" fill-rule="evenodd" style="fill: #184B42; stroke: #fff; opacity: 1;" id="p-type-logs"></path><path d="M294.4612790937538,38.74990470272717A297,297,0,0,1,294.2508976197039,40.316364543427454L254.82875242503758,34.91499588284238A257.2095449239783,257.2095449239783,0,0,0,255.0109481260504,33.55840186678782Z" fill-rule="evenodd" style="fill: #184B42; stroke: #fff; opacity: 1;" id="p-type-logs"></path><path d="M294.2508976197039,40.316364543427454A297,297,0,0,1,294.0321830338982,41.881682634776936L254.63934003755168,36.27060111495441A257.2095449239783,257.2095449239783,0,0,0,254.82875242503758,34.91499588284238Z" fill-rule="evenodd" style="fill: #184B42; stroke: #fff; opacity: 1;" id="p-type-logs"></path><path d="M294.0321830338982,41.881682634776936A297,297,0,0,1,293.80514153027906,43.445814647359164L254.44271632770406,37.6251791727231A257.2095449239783,257.2095449239783,0,0,0,254.63934003755168,36.27060111495441Z" fill-rule="evenodd" style="fill: #184B42; stroke: #fff; opacity: 1;" id="p-type-logs"></path><path d="M293.80514153027906,43.445814647359164A297,297,0,0,1,293.56977953860496,45.0087162853471L254.238886863829,38.97869169483696A257.2095449239783,257.2095449239783,0,0,0,254.44271632770406,37.6251791727231Z" fill-rule="evenodd" style="fill: #184B42; stroke: #fff; opacity: 1;" id="p-type-logs"></path><path d="M293.56977953860496,45.0087162853471A297,297,0,0,1,293.32610372426865,46.57034328775762L254.02785741832588,40.33110035016022A257.2095449239783,257.2095449239783,0,0,0,254.238886863829,38.97869169483696Z" fill-rule="evenodd" style="fill: #184B42; stroke: #fff; opacity: 1;" id="p-type-logs"></path><path d="M293.32610372426865,46.57034328775762A297,297,0,0,1,293.0741209881081,48.130651429704976L253.80963396749576,41.682366838818325A257.2095449239783,257.2095449239783,0,0,0,254.02785741832588,40.33110035016022Z" fill-rule="evenodd" style="fill: #184B42; stroke: #fff; opacity: 1;" id="p-type-logs"></path><path d="M293.0741209881081,48.130651429704976A297,297,0,0,1,292.8138384662114,49.6895965236532L253.58422269137213,43.0324528932826A257.2095449239783,257.2095449239783,0,0,0,253.80963396749576,41.682366838818325Z" fill-rule="evenodd" style="fill: #184B42; stroke: #fff; opacity: 1;" id="p-type-logs"></path><path d="M292.8138384662114,49.6895965236532A297,297,0,0,1,292.5452635297144,51.247134420667514L253.35162997354593,44.38132027945399A257.2095449239783,257.2095449239783,0,0,0,253.58422269137213,43.0324528932826Z" fill-rule="evenodd" style="fill: #184B42; stroke: #fff; opacity: 1;" id="p-type-logs"></path><path d="M292.5452635297144,51.247134420667514A297,297,0,0,1,292.268403784592,52.8032210116646L253.11186240098465,45.72893079774579A257.2095449239783,257.2095449239783,0,0,0,253.35162997354593,44.38132027945399Z" fill-rule="evenodd" style="fill: #184B42; stroke: #fff; opacity: 1;" id="p-type-logs"></path><path d="M292.268403784592,52.8032210116646A297,297,0,0,1,291.9832670714429,54.35781222866176L252.86492676384594,47.075246284165495A257.2095449239783,257.2095449239783,0,0,0,253.11186240098465,45.72893079774579Z" fill-rule="evenodd" style="fill: #184B42; stroke: #fff; opacity: 1;" id="p-type-logs"></path><path d="M291.9832670714429,54.35781222866176A297,297,0,0,1,291.6898614652674,55.9108640460249L252.61083005528522,48.420228611395565A257.2095449239783,257.2095449239783,0,0,0,252.86492676384594,47.075246284165495Z" fill-rule="evenodd" style="fill: #184B42; stroke: #fff; opacity: 1;" id="p-type-logs"></path><path d="M291.6898614652674,55.9108640460249A297,297,0,0,1,291.38819527523896,57.46233248171537L252.3495794712577,49.76383968987322A257.2095449239783,257.2095449239783,0,0,0,252.61083005528522,48.420228611395565Z" fill-rule="evenodd" style="fill: #184B42; stroke: #fff; opacity: 1;" id="p-type-logs"></path><path d="M291.38819527523896,57.46233248171537A297,297,0,0,1,291.0782770444684,59.01217359853548L252.08118241031445,51.10604146886909A257.2095449239783,257.2095449239783,0,0,0,252.3495794712577,49.76383968987322Z" fill-rule="evenodd" style="fill: #184B42; stroke: #fff; opacity: 1;" id="p-type-logs"></path><path d="M291.0782770444684,59.01217359853548A297,297,0,0,1,290.76011554976253,60.5603435053728L251.80564647339313,52.44679593756479A257.2095449239783,257.2095449239783,0,0,0,252.08118241031445,51.10604146886909Z" fill-rule="evenodd" style="fill: #184B42; stroke: #fff; opacity: 1;" id="p-type-logs"></path><path d="M290.76011554976253,60.5603435053728A297,297,0,0,1,290.43371980137516,62.106798358443136L251.52297946360244,53.78606512612943A257.2095449239783,257.2095449239783,0,0,0,251.80564647339313,52.44679593756479Z" fill-rule="evenodd" style="fill: #184B42; stroke: #fff; opacity: 1;" id="p-type-logs"></path><path d="M290.43371980137516,62.106798358443136A297,297,0,0,1,290.09909904275213,63.651494362532205L251.2331893860013,55.123811106794875A257.2095449239783,257.2095449239783,0,0,0,251.52297946360244,53.78606512612943Z" fill-rule="evenodd" style="fill: #184B42; stroke: #fff; opacity: 1;" id="p-type-logs"></path><path d="M290.09909904275213,63.651494362532205A297,297,0,0,1,289.75626275026974,65.19438777223588L250.93628444737226,56.459995994929855A257.2095449239783,257.2095449239783,0,0,0,251.2331893860013,55.123811106794875Z" fill-rule="evenodd" style="fill: #184B42; stroke: #fff; opacity: 1;" id="p-type-logs"></path><path d="M289.75626275026974,65.19438777223588A297,297,0,0,1,289.4052206329658,66.73543489319907L250.63227305598875,57.794581950112836A257.2095449239783,257.2095449239783,0,0,0,250.93628444737226,56.459995994929855Z" fill-rule="evenodd" style="fill: #184B42; stroke: #fff; opacity: 1;" id="p-type-logs"></path><path d="M289.4052206329658,66.73543489319907A297,297,0,0,1,289.0459826322652,68.27459208335308L250.3211638213773,59.12753117720369A257.2095449239783,257.2095449239783,0,0,0,250.63227305598875,57.794581950112836Z" fill-rule="evenodd" style="fill: #184B42; stroke: #fff; opacity: 1;" id="p-type-logs"></path><path d="M289.0459826322652,68.27459208335308A297,297,0,0,1,288.6785589216982,69.81181575415162L250.00296555407357,60.458805927414005A257.2095449239783,257.2095449239783,0,0,0,250.3211638213773,59.12753117720369Z" fill-rule="evenodd" style="fill: #184B42; stroke: #fff; opacity: 1;" id="p-type-logs"></path><path d="M288.6785589216982,69.81181575415162A297,297,0,0,1,288.3029599066124,71.3470623718052L249.6776872653728,61.78836849937612A257.2095449239783,257.2095449239783,0,0,0,250.00296555407357,60.458805927414005Z" fill-rule="evenodd" style="fill: #184B42; stroke: #fff; opacity: 1;" id="p-type-logs"></path><path d="M288.3029599066124,71.3470623718052A297,297,0,0,1,287.91919622387775,72.8802884585139L249.34533816707474,63.116181240210864A257.2095449239783,257.2095449239783,0,0,0,249.6776872653728,61.78836849937612Z" fill-rule="evenodd" style="fill: #184B42; stroke: #fff; opacity: 1;" id="p-type-logs"></path><path d="M287.91919622387775,72.8802884585139A297,297,0,0,1,287.5272787415857,74.41145059369882L249.0059276712226,64.44220654659384A257.2095449239783,257.2095449239783,0,0,0,249.34533816707474,63.116181240210864Z" fill-rule="evenodd" style="fill: #184B42; stroke: #fff; opacity: 1;" id="p-type-logs"></path><path d="M287.5272787415857,74.41145059369882A297,297,0,0,1,287.1272185587413,75.9405054152316L248.6594653898367,65.7664068658203A257.2095449239783,257.2095449239783,0,0,0,249.0059276712226,64.44220654659384Z" fill-rule="evenodd" style="fill: #184B42; stroke: #fff; opacity: 1;" id="p-type-logs"></path><path d="M287.1272185587413,75.9405054152316A297,297,0,0,1,286.71902700494866,77.4674096206625L248.30596113464205,67.08874469686874A257.2095449239783,257.2095449239783,0,0,0,248.6594653898367,65.7664068658203Z" fill-rule="evenodd" style="fill: #184B42; stroke: #fff; opacity: 1;" id="p-type-logs"></path><path d="M286.71902700494866,77.4674096206625A297,297,0,0,1,286.3027156400905,78.99211996844664L247.9454249167907,68.40918259146282A257.2095449239783,257.2095449239783,0,0,0,248.30596113464205,67.08874469686874Z" fill-rule="evenodd" style="fill: #184B42; stroke: #fff; opacity: 1;" id="p-type-logs"></path><path d="M286.3027156400905,78.99211996844664A297,297,0,0,1,285.8782962540004,80.51459327916872L247.5778669465781,69.72768315513194A257.2095449239783,257.2095449239783,0,0,0,247.9454249167907,68.40918259146282Z" fill-rule="evenodd" style="fill: #184B42; stroke: #fff; opacity: 1;" id="p-type-logs"></path><path d="M285.8782962540004,80.51459327916872A297,297,0,0,1,285.44578086612916,82.03478643676573L247.2032976331539,71.04420904827023A257.2095449239783,257.2095449239783,0,0,0,247.5778669465781,69.72768315513194Z" fill-rule="evenodd" style="fill: #184B42; stroke: #fff; opacity: 1;" id="p-type-logs"></path><path d="M285.44578086612916,82.03478643676573A297,297,0,0,1,285.00518172520424,83.552656389748L246.82172758422735,72.35872298719397A257.2095449239783,257.2095449239783,0,0,0,247.2032976331539,71.04420904827023Z" fill-rule="evenodd" style="fill: #184B42; stroke: #fff; opacity: 1;" id="p-type-logs"></path><path d="M285.00518172520424,83.552656389748A297,297,0,0,1,284.55651130888305,85.06816015241846L246.43316760576664,73.67118774519749A257.2095449239783,257.2095449239783,0,0,0,246.82172758422735,72.35872298719397Z" fill-rule="evenodd" style="fill: #184B42; stroke: #fff; opacity: 1;" id="p-type-logs"></path><path d="M284.55651130888305,85.06816015241846A297,297,0,0,1,284.0997823233994,86.58125480608993L246.0376287016931,74.9815661536074A257.2095449239783,257.2095449239783,0,0,0,246.43316760576664,73.67118774519749Z" fill-rule="evenodd" style="fill: #184B42; stroke: #fff; opacity: 1;" id="p-type-logs"></path><path d="M284.0997823233994,86.58125480608993A297,297,0,0,1,283.6350077032039,88.09189750030066L245.6351220735695,76.28982110283526A257.2095449239783,257.2095449239783,0,0,0,246.0376287016931,74.9815661536074Z" fill-rule="evenodd" style="fill: #184B42; stroke: #fff; opacity: 1;" id="p-type-logs"></path><path d="M283.6350077032039,88.09189750030066A297,297,0,0,1,283.1622006105973,89.60004545402772L245.22565912028278,77.59591554342842A257.2095449239783,257.2095449239783,0,0,0,245.6351220735695,76.28982110283526Z" fill-rule="evenodd" style="fill: #184B42; stroke: #fff; opacity: 1;" id="p-type-logs"></path><path d="M283.1622006105973,89.60004545402772A297,297,0,0,1,282.6813744353583,91.1056559568986L244.80925143772126,78.89981248711926A257.2095449239783,257.2095449239783,0,0,0,245.22565912028278,77.59591554342842Z" fill-rule="evenodd" style="fill: #184B42; stroke: #fff; opacity: 1;" id="p-type-logs"></path><path d="M282.6813744353583,91.1056559568986A297,297,0,0,1,282.19254279436365,92.60868637040082L244.38591081844623,80.2014750078728A257.2095449239783,257.2095449239783,0,0,0,244.80925143772126,78.89981248711926Z" fill-rule="evenodd" style="fill: #184B42; stroke: #fff; opacity: 1;" id="p-type-logs"></path><path d="M282.19254279436365,92.60868637040082A297,297,0,0,1,281.69571953120305,94.10909412908931L243.9556492513581,81.50086624293232A257.2095449239783,257.2095449239783,0,0,0,244.38591081844623,80.2014750078728Z" fill-rule="evenodd" style="fill: #184B42; stroke: #fff; opacity: 1;" id="p-type-logs"></path><path d="M281.69571953120305,94.10909412908931A297,297,0,0,1,281.190918715787,95.606836741792L243.5184789213567,82.79794939386332A257.2095449239783,257.2095449239783,0,0,0,243.9556492513581,81.50086624293232Z" fill-rule="evenodd" style="fill: #184B42; stroke: #fff; opacity: 1;" id="p-type-logs"></path><path d="M281.190918715787,95.606836741792A297,297,0,0,1,280.67815464394823,97.10187179281303L243.07441220899636,84.0926877275957A257.2095449239783,257.2095449239783,0,0,0,243.5184789213567,82.79794939386332Z" fill-rule="evenodd" style="fill: #184B42; stroke: #fff; opacity: 1;" id="p-type-logs"></path><path d="M280.67815464394823,97.10187179281303A297,297,0,0,1,280.1574418370368,98.59415694313402L242.62346169013517,85.38504457746396A257.2095449239783,257.2095449239783,0,0,0,243.07441220899636,84.0926877275957Z" fill-rule="evenodd" style="fill: #184B42; stroke: #fff; opacity: 1;" id="p-type-logs"></path><path d="M280.1574418370368,98.59415694313402A297,297,0,0,1,279.6287950415091,100.08364993161317L242.16564013557897,86.6749833442457A257.2095449239783,257.2095449239783,0,0,0,242.62346169013517,85.38504457746396Z" fill-rule="evenodd" style="fill: #184B42; stroke: #fff; opacity: 1;" id="p-type-logs"></path><path d="M279.6287950415091,100.08364993161317A297,297,0,0,1,279.09222922851006,101.57030857618184L241.70096051071954,87.96246749719792A257.2095449239783,257.2095449239783,0,0,0,242.16564013557897,86.6749833442457Z" fill-rule="evenodd" style="fill: #184B42; stroke: #fff; opacity: 1;" id="p-type-logs"></path><path d="M279.09222922851006,101.57030857618184A297,297,0,0,1,278.5477595934491,103.05409077503947L241.22943597516752,89.24746057509175A257.2095449239783,257.2095449239783,0,0,0,241.70096051071954,87.96246749719792Z" fill-rule="evenodd" style="fill: #184B42; stroke: #fff; opacity: 1;" id="p-type-logs"></path><path d="M278.5477595934491,103.05409077503947A297,297,0,0,1,277.99540155557,104.53495450784561L240.7510798823797,90.52992618724493A257.2095449239783,257.2095449239783,0,0,0,241.22943597516752,89.24746057509175Z" fill-rule="evenodd" style="fill: #184B42; stroke: #fff; opacity: 1;" id="p-type-logs"></path><path d="M277.99540155557,104.53495450784561A297,297,0,0,1,277.43517075751424,106.0128578369101L240.26590577928096,91.80982801455237A257.2095449239783,257.2095449239783,0,0,0,240.7510798823797,90.52992618724493Z" fill-rule="evenodd" style="fill: #184B42; stroke: #fff; opacity: 1;" id="p-type-logs"></path><path d="M277.43517075751424,106.0128578369101A297,297,0,0,1,276.8670830648776,107.48775890838064L239.77392740588033,93.08712981051474A257.2095449239783,257.2095449239783,0,0,0,240.26590577928096,91.80982801455237Z" fill-rule="evenodd" style="fill: #184B42; stroke: #fff; opacity: 1;" id="p-type-logs"></path><path d="M276.8670830648776,107.48775890838064A297,297,0,0,1,276.29115456576136,108.95961595342811L239.27515869488226,94.36179540226495A257.2095449239783,257.2095449239783,0,0,0,239.77392740588033,93.08712981051474Z" fill-rule="evenodd" style="fill: #184B42; stroke: #fff; opacity: 1;" id="p-type-logs"></path><path d="M276.29115456576136,108.95961595342811A297,297,0,0,1,275.7074015703165,110.4283872894295L238.76961377129172,95.63378869159256A257.2095449239783,257.2095449239783,0,0,0,239.27515869488226,94.36179540226495Z" fill-rule="evenodd" style="fill: #184B42; stroke: #fff; opacity: 1;" id="p-type-logs"></path><path d="M275.7074015703165,110.4283872894295A297,297,0,0,1,275.1158406102816,111.89403132114825L238.25730695201443,96.90307365596604A257.2095449239783,257.2095449239783,0,0,0,238.76961377129172,95.63378869159256Z" fill-rule="evenodd" style="fill: #184B42; stroke: #fff; opacity: 1;" id="p-type-logs"></path><path d="M275.1158406102816,111.89403132114825A297,297,0,0,1,274.51648843851507,113.35650654191231L237.7382527454512,98.16961434955297A257.2095449239783,257.2095449239783,0,0,0,238.25730695201443,96.90307365596604Z" fill-rule="evenodd" style="fill: #184B42; stroke: #fff; opacity: 1;" id="p-type-logs"></path><path d="M274.51648843851507,113.35650654191231A297,297,0,0,1,273.9093620285203,114.81577153478955L237.2124658510873,99.43337490423798A257.2095449239783,257.2095449239783,0,0,0,237.7382527454512,98.16961434955297Z" fill-rule="evenodd" style="fill: #184B42; stroke: #fff; opacity: 1;" id="p-type-logs"></path><path d="M273.9093620285203,114.81577153478955A297,297,0,0,1,273.29447857396525,116.27178497376069L236.6799611590759,100.69431953063854A257.2095449239783,257.2095449239783,0,0,0,237.2124658510873,99.43337490423798Z" fill-rule="evenodd" style="fill: #184B42; stroke: #fff; opacity: 1;" id="p-type-logs"></path><path d="M273.29447857396525,116.27178497376069A297,297,0,0,1,272.67185548819543,117.72450562488967L236.14075374981655,101.9524125191185A257.2095449239783,257.2095449239783,0,0,0,236.6799611590759,100.69431953063854Z" fill-rule="evenodd" style="fill: #184B42; stroke: #fff; opacity: 1;" id="p-type-logs"></path><path d="M272.67185548819543,117.72450562488967A297,297,0,0,1,272.0415104037407,119.1738923474913L235.5948588935281,103.20761824079938A257.2095449239783,257.2095449239783,0,0,0,236.14075374981655,101.9524125191185Z" fill-rule="evenodd" style="fill: #184B42; stroke: #fff; opacity: 1;" id="p-type-logs"></path><path d="M272.0415104037407,119.1738923474913A297,297,0,0,1,271.4034611718161,120.61990409529649L235.04229204981624,104.45990114856941A257.2095449239783,257.2095449239783,0,0,0,235.5948588935281,103.20761824079938Z" fill-rule="evenodd" style="fill: #184B42; stroke: #fff; opacity: 1;" id="p-type-logs"></path><path d="M271.4034611718161,120.61990409529649A297,297,0,0,1,270.7577258618161,122.0624999176145L234.48306886723563,105.70922577809011A257.2095449239783,257.2095449239783,0,0,0,235.04229204981624,104.45990114856941Z" fill-rule="evenodd" style="fill: #184B42; stroke: #fff; opacity: 1;" id="p-type-logs"></path><path d="M270.7577258618161,122.0624999176145A297,297,0,0,1,270.1043227608031,123.50163896049281L233.91720518284683,106.95555674880075A257.2095449239783,257.2095449239783,0,0,0,234.48306886723563,105.70922577809011Z" fill-rule="evenodd" style="fill: #184B42; stroke: #fff; opacity: 1;" id="p-type-logs"></path><path d="M270.1043227608031,123.50163896049281A297,297,0,0,1,269.4432703729893,124.93728046787396L233.3447170217677,108.19885876492022A257.2095449239783,257.2095449239783,0,0,0,233.91720518284683,106.95555674880075Z" fill-rule="evenodd" style="fill: #184B42; stroke: #fff; opacity: 1;" id="p-type-logs"></path><path d="M269.4432703729893,124.93728046787396A297,297,0,0,1,268.77458741921276,126.36938378274996L232.76562059671966,109.43909661644673A257.2095449239783,257.2095449239783,0,0,0,233.3447170217677,108.19885876492022Z" fill-rule="evenodd" style="fill: #184B42; stroke: #fff; opacity: 1;" id="p-type-logs"></path><path d="M268.77458741921276,126.36938378274996A297,297,0,0,1,268.09829283640744,127.79790834831344L232.17993230756844,110.67623518015483A257.2095449239783,257.2095449239783,0,0,0,232.76562059671966,109.43909661644673Z" fill-rule="evenodd" style="fill: #184B42; stroke: #fff; opacity: 1;" id="p-type-logs"></path><path d="M268.09829283640744,127.79790834831344A297,297,0,0,1,267.4144057770665,129.2228137091063L231.58766874085978,111.91023942059009A257.2095449239783,257.2095449239783,0,0,0,232.17993230756844,110.67623518015483Z" fill-rule="evenodd" style="fill: #184B42; stroke: #fff; opacity: 1;" id="p-type-logs"></path><path d="M267.4144057770665,129.2228137091063A297,297,0,0,1,266.72294560870046,130.64405951216546L230.98884666934967,113.14107439106134A257.2095449239783,257.2095449239783,0,0,0,231.58766874085978,111.91023942059009Z" fill-rule="evenodd" style="fill: #184B42; stroke: #fff; opacity: 1;" id="p-type-logs"></path><path d="M266.72294560870046,130.64405951216546A297,297,0,0,1,266.0239319132879,132.06160550816557L230.3834830515292,114.36870523463034A257.2095449239783,257.2095449239783,0,0,0,230.98884666934967,113.14107439106134Z" fill-rule="evenodd" style="fill: #184B42; stroke: #fff; opacity: 1;" id="p-type-logs"></path><path d="M266.0239319132879,132.06160550816557A297,297,0,0,1,265.3173844867219,133.47541155255888L229.7715950311445,115.59309718509894A257.2095449239783,257.2095449239783,0,0,0,230.3834830515292,114.36870523463034Z" fill-rule="evenodd" style="fill: #184B42; stroke: #fff; opacity: 1;" id="p-type-logs"></path><path d="M265.3173844867219,133.47541155255888A297,297,0,0,1,264.60332333824863,134.8854376067122L229.15319993671113,116.81421556799364A257.2095449239783,257.2095449239783,0,0,0,229.7715950311445,115.59309718509894Z" fill-rule="evenodd" style="fill: #184B42; stroke: #fff; opacity: 1;" id="p-type-logs"></path><path d="M264.60332333824863,134.8854376067122A297,297,0,0,1,263.881768689901,136.29164373904064L228.52831528102337,118.03202580154753A257.2095449239783,257.2095449239783,0,0,0,229.15319993671113,116.81421556799364Z" fill-rule="evenodd" style="fill: #184B42; stroke: #fff; opacity: 1;" id="p-type-logs"></path><path d="M263.881768689901,136.29164373904064A297,297,0,0,1,263.15274097592606,137.69399012613857L227.89695876065818,119.24649339767969A257.2095449239783,257.2095449239783,0,0,0,228.52831528102337,118.03202580154753Z" fill-rule="evenodd" style="fill: #184B42; stroke: #fff; opacity: 1;" id="p-type-logs"></path><path d="M263.15274097592606,137.69399012613857A297,297,0,0,1,262.4162608422062,139.09243705390742L227.2591482554742,120.45758396297178A257.2095449239783,257.2095449239783,0,0,0,227.89695876065818,119.24649339767969Z" fill-rule="evenodd" style="fill: #184B42; stroke: #fff; opacity: 1;" id="p-type-logs"></path><path d="M262.4162608422062,139.09243705390742A297,297,0,0,1,261.67234914567433,140.48694491868025L226.61490182810525,121.66526319964225A257.2095449239783,257.2095449239783,0,0,0,227.2591482554742,120.45758396297178Z" fill-rule="evenodd" style="fill: #184B42; stroke: #fff; opacity: 1;" id="p-type-logs"></path><path d="M261.67234914567433,140.48694491868025A297,297,0,0,1,260.9210269537236,141.87747422834346L225.96423772344886,122.86949690651743A257.2095449239783,257.2095449239783,0,0,0,226.61490182810525,121.66526319964225Z" fill-rule="evenodd" style="fill: #184B42; stroke: #fff; opacity: 1;" id="p-type-logs"></path><path d="M260.9210269537236,141.87747422834346A297,297,0,0,1,260.16231554361025,143.2639856034551L225.3071743681496,124.0702509800002A257.2095449239783,257.2095449239783,0,0,0,225.96423772344886,122.86949690651743Z" fill-rule="evenodd" style="fill: #184B42; stroke: #fff; opacity: 1;" id="p-type-logs"></path><path d="M260.16231554361025,143.2639856034551A297,297,0,0,1,259.3962364018515,144.64643977836013L224.64373037007718,125.26749141503582A257.2095449239783,257.2095449239783,0,0,0,225.3071743681496,124.0702509800002Z" fill-rule="evenodd" style="fill: #184B42; stroke: #fff; opacity: 1;" id="p-type-logs"></path><path d="M259.3962364018515,144.64643977836013A297,297,0,0,1,258.62281122361696,146.02479760230244L223.97392451779953,126.46118430607491A257.2095449239783,257.2095449239783,0,0,0,224.64373037007718,125.26749141503582Z" fill-rule="evenodd" style="fill: #184B42; stroke: #fff; opacity: 1;" id="p-type-logs"></path><path d="M258.62281122361696,146.02479760230244A297,297,0,0,1,257.84206191211393,147.39902004053351L223.29777578005073,127.6512958480336A257.2095449239783,257.2095449239783,0,0,0,223.97392451779953,126.46118430607491Z" fill-rule="evenodd" style="fill: #184B42; stroke: #fff; opacity: 1;" id="p-type-logs"></path><path d="M257.84206191211393,147.39902004053351A297,297,0,0,1,257.0540105779676,148.7690681754179L222.61530330519372,128.837792337251A257.2095449239783,257.2095449239783,0,0,0,223.29777578005073,127.6512958480336Z" fill-rule="evenodd" style="fill: #184B42; stroke: #fff; opacity: 1;" id="p-type-logs"></path><path d="M257.0540105779676,148.7690681754179A297,297,0,0,1,256.25867953859427,150.13490320753547L221.9265264206782,130.02064017244354A257.2095449239783,257.2095449239783,0,0,0,222.61530330519372,128.837792337251Z" fill-rule="evenodd" style="fill: #184B42; stroke: #fff; opacity: 1;" id="p-type-logs"></path><path d="M256.25867953859427,150.13490320753547A297,297,0,0,1,255.45609131757,151.49648645678L221.23146463249302,131.19980585565665A257.2095449239783,257.2095449239783,0,0,0,221.9265264206782,130.02064017244354Z" fill-rule="evenodd" style="fill: #184B42; stroke: #fff; opacity: 1;" id="p-type-logs"></path><path d="M255.45609131757,151.49648645678A297,297,0,0,1,254.6462686439923,152.85377936345475L220.53013762461407,132.37525599321341A257.2095449239783,257.2095449239783,0,0,0,221.23146463249302,131.19980585565665Z" fill-rule="evenodd" style="fill: #184B42; stroke: #fff; opacity: 1;" id="p-type-logs"></path><path d="M254.6462686439923,152.85377936345475A297,297,0,0,1,253.82923445183647,154.20674348936438L219.82256525844664,133.54695729666017A257.2095449239783,257.2095449239783,0,0,0,220.53013762461407,132.37525599321341Z" fill-rule="evenodd" style="fill: #184B42; stroke: #fff; opacity: 1;" id="p-type-logs"></path><path d="M253.82923445183647,154.20674348936438A297,297,0,0,1,253.00501187930632,155.5553405189036L219.10876757226296,134.71487658370935A257.2095449239783,257.2095449239783,0,0,0,219.82256525844664,133.54695729666017Z" fill-rule="evenodd" style="fill: #184B42; stroke: #fff; opacity: 1;" id="p-type-logs"></path><path d="M253.00501187930632,155.5553405189036A297,297,0,0,1,252.1736242681788,156.8995322601421L218.3887647806349,135.87898077917913A257.2095449239783,257.2095449239783,0,0,0,219.10876757226296,134.71487658370935Z" fill-rule="evenodd" style="fill: #184B42; stroke: #fff; opacity: 1;" id="p-type-logs"></path><path d="M252.1736242681788,156.8995322601421A297,297,0,0,1,251.3350951631429,158.23928064590632L217.66257727386116,137.03923691593013A257.2095449239783,257.2095449239783,0,0,0,218.3887647806349,135.87898077917913Z" fill-rule="evenodd" style="fill: #184B42; stroke: #fff; opacity: 1;" id="p-type-logs"></path><path d="M251.3350951631429,158.23928064590632A297,297,0,0,1,250.48944831113292,159.57454773485736L216.93022561739016,138.19561213579902A257.2095449239783,257.2095449239783,0,0,0,217.66257727386116,137.03923691593013Z" fill-rule="evenodd" style="fill: #184B42; stroke: #fff; opacity: 1;" id="p-type-logs"></path><path d="M250.48944831113292,159.57454773485736A297,297,0,0,1,249.63670766065604,160.90529571256553L216.19173055123753,139.34807369052908A257.2095449239783,257.2095449239783,0,0,0,216.93022561739016,138.19561213579902Z" fill-rule="evenodd" style="fill: #184B42; stroke: #fff; opacity: 1;" id="p-type-logs"></path><path d="M249.63670766065604,160.90529571256553A297,297,0,0,1,248.77689736111398,162.23148689258127L215.4471129893986,140.49658894269757A257.2095449239783,257.2095449239783,0,0,0,216.19173055123753,139.34807369052908Z" fill-rule="evenodd" style="fill: #184B42; stroke: #fff; opacity: 1;" id="p-type-logs"></path><path d="M248.77689736111398,162.23148689258127A297,297,0,0,1,247.91004176211914,163.55308371750235L214.69639401925627,141.64112536664007A257.2095449239783,257.2095449239783,0,0,0,215.4471129893986,140.49658894269757Z" fill-rule="evenodd" style="fill: #184B42; stroke: #fff; opacity: 1;" id="p-type-logs"></path><path d="M247.91004176211914,163.55308371750235A297,297,0,0,1,247.03616541280516,164.87004876003758L213.93959490098396,142.78165054937162A257.2095449239783,257.2095449239783,0,0,0,214.69639401925627,141.64112536664007Z" fill-rule="evenodd" style="fill: #184B42; stroke: #fff; opacity: 1;" id="p-type-logs"></path><path d="M247.03616541280516,164.87004876003758A297,297,0,0,1,246.1552930611314,166.18234472406664L213.17673706694316,143.91813219150458A257.2095449239783,257.2095449239783,0,0,0,213.93959490098396,142.78165054937162Z" fill-rule="evenodd" style="fill: #184B42; stroke: #fff; opacity: 1;" id="p-type-logs"></path><path d="M246.1552930611314,166.18234472406664A297,297,0,0,1,245.26744965318238,167.48993444569632L212.40784212107675,145.05053810816332A257.2095449239783,257.2095449239783,0,0,0,213.17673706694316,143.91813219150458Z" fill-rule="evenodd" style="fill: #184B42; stroke: #fff; opacity: 1;" id="p-type-logs"></path><path d="M245.26744965318238,167.48993444569632A297,297,0,0,1,244.3726603324611,168.79278089431307L211.6329318382971,146.17883622989575A257.2095449239783,257.2095449239783,0,0,0,212.40784212107675,145.05053810816332Z" fill-rule="evenodd" style="fill: #184B42; stroke: #fff; opacity: 1;" id="p-type-logs"></path><path d="M244.3726603324611,168.79278089431307A297,297,0,0,1,243.4709504391772,170.0908471736317L210.85202816386948,147.30299460358165A257.2095449239783,257.2095449239783,0,0,0,211.6329318382971,146.17883622989575Z" fill-rule="evenodd" style="fill: #184B42; stroke: #fff; opacity: 1;" id="p-type-logs"></path><path d="M243.4709504391772,170.0908471736317A297,297,0,0,1,242.562345509529,171.38409652274004L210.0651532127904,148.42298139333715A257.2095449239783,257.2095449239783,0,0,0,210.85202816386948,147.30299460358165Z" fill-rule="evenodd" style="fill: #184B42; stroke: #fff; opacity: 1;" id="p-type-logs"></path><path d="M242.562345509529,171.38409652274004A297,297,0,0,1,241.64687127498073,172.67249231714035L209.27232926916145,149.53876488141685A257.2095449239783,257.2095449239783,0,0,0,210.0651532127904,148.42298139333715Z" fill-rule="evenodd" style="fill: #184B42; stroke: #fff; opacity: 1;" id="p-type-logs"></path><path d="M241.64687127498073,172.67249231714035A297,297,0,0,1,240.7245536615335,173.95599806978626L208.47357878555832,150.65031346911167A257.2095449239783,257.2095449239783,0,0,0,209.27232926916145,149.53876488141685Z" fill-rule="evenodd" style="fill: #184B42; stroke: #fff; opacity: 1;" id="p-type-logs"></path><path d="M240.7245536615335,173.95599806978626A297,297,0,0,1,239.79541878899119,175.23457743211617L207.66892438239466,151.7575956776439A257.2095449239783,257.2095449239783,0,0,0,208.47357878555832,150.65031346911167Z" fill-rule="evenodd" style="fill: #184B42; stroke: #fff; opacity: 1;" id="p-type-logs"></path><path d="M239.79541878899119,175.23457743211617A297,297,0,0,1,238.85949297022086,176.50819419508267L206.85838884728182,152.8605801490586A257.2095449239783,257.2095449239783,0,0,0,207.66892438239466,151.7575956776439Z" fill-rule="evenodd" style="fill: #184B42; stroke: #fff; opacity: 1;" id="p-type-logs"></path><path d="M113.35253778928842,274.5181272279263A297,297,0,0,1,83.54853600306396,285.0063896331883L72.35515462765217,246.82277366322694A257.2095449239783,257.2095449239783,0,0,0,98.16617730895935,237.7396719787128Z" fill-rule="evenodd" style="fill: #AE497E; stroke: #fff; opacity: 1;" id="p-type-tokenTransfers"></path><path d="M83.54853600306396,285.0063896331883A297,297,0,0,1,82.03065968040882,285.4469668299121L71.04063517242992,247.20432470791792A257.2095449239783,257.2095449239783,0,0,0,72.35515462765217,246.82277366322694Z" fill-rule="evenodd" style="fill: #AE497E; stroke: #fff; opacity: 1;" id="p-type-tokenTransfers"></path><path d="M82.03065968040882,285.4469668299121A297,297,0,0,1,80.51046027000764,285.87946023999615L69.72410386420438,247.57887498802003A257.2095449239783,257.2095449239783,0,0,0,71.04063517242992,247.20432470791792Z" fill-rule="evenodd" style="fill: #AE497E; stroke: #fff; opacity: 1;" id="p-type-tokenTransfers"></path><path d="M80.51046027000764,285.87946023999615A297,297,0,0,1,78.98798082352717,286.3038576153352L68.40559798681261,247.94641389636308A257.2095449239783,257.2095449239783,0,0,0,69.72410386420438,247.57887498802003Z" fill-rule="evenodd" style="fill: #AE497E; stroke: #fff; opacity: 1;" id="p-type-tokenTransfers"></path><path d="M78.98798082352717,286.3038576153352A297,297,0,0,1,77.46326445720416,286.7201469371018L67.08515488001099,248.3069310243372A257.2095449239783,257.2095449239783,0,0,0,68.40559798681261,247.94641389636308Z" fill-rule="evenodd" style="fill: #AE497E; stroke: #fff; opacity: 1;" id="p-type-tokenTransfers"></path><path d="M77.46326445720416,286.7201469371018A297,297,0,0,1,75.93635435062443,287.1283164160867L65.76281193841774,248.66041616218754A257.2095449239783,257.2095449239783,0,0,0,67.08515488001099,248.3069310243372Z" fill-rule="evenodd" style="fill: #AE497E; stroke: #fff; opacity: 1;" id="p-type-tokenTransfers"></path><path d="M75.93635435062443,287.1283164160867A297,297,0,0,1,74.4072937454999,287.5283544930324L64.43860661045389,249.00685929930358A257.2095449239783,257.2095449239783,0,0,0,65.76281193841774,248.66041616218754Z" fill-rule="evenodd" style="fill: #AE497E; stroke: #fff; opacity: 1;" id="p-type-tokenTransfers"></path><path d="M74.4072937454999,287.5283544930324A297,297,0,0,1,72.87612594444414,287.9202498389606L63.11257639728285,249.34625062450235A257.2095449239783,257.2095449239783,0,0,0,64.43860661045389,249.00685929930358Z" fill-rule="evenodd" style="fill: #AE497E; stroke: #fff; opacity: 1;" id="p-type-tokenTransfers"></path><path d="M72.87612594444414,287.9202498389606A297,297,0,0,1,71.34289430974596,288.3039913554934L61.78475885174827,249.6785805263065A257.2095449239783,257.2095449239783,0,0,0,63.11257639728285,249.34625062450235Z" fill-rule="evenodd" style="fill: #AE497E; stroke: #fff; opacity: 1;" id="p-type-tokenTransfers"></path><path d="M71.34289430974596,288.3039913554934A297,297,0,0,1,69.80764226214139,288.679568175167L60.455191577310636,250.00383959321638A257.2095449239783,257.2095449239783,0,0,0,61.78475885174827,249.6785805263065Z" fill-rule="evenodd" style="fill: #AE497E; stroke: #fff; opacity: 1;" id="p-type-tokenTransfers"></path><path d="M69.80764226214139,288.679568175167A297,297,0,0,1,68.27041327958408,289.0469696617399L59.123912226982306,250.3220186139767A257.2095449239783,257.2095449239783,0,0,0,60.455191577310636,250.00383959321638Z" fill-rule="evenodd" style="fill: #AE497E; stroke: #fff; opacity: 1;" id="p-type-tokenTransfers"></path><path d="M68.27041327958408,289.0469696617399A297,297,0,0,1,66.73125089601398,289.406185410494L57.79095850226119,250.6331085778372A257.2095449239783,257.2095449239783,0,0,0,59.123912226982306,250.3220186139767Z" fill-rule="evenodd" style="fill: #AE497E; stroke: #fff; opacity: 1;" id="p-type-tokenTransfers"></path><path d="M66.73125089601398,289.406185410494A297,297,0,0,1,65.19019870012447,289.75720524852926L56.45636815206308,250.937100674808A257.2095449239783,257.2095449239783,0,0,0,57.79095850226119,250.6331085778372Z" fill-rule="evenodd" style="fill: #AE497E; stroke: #fff; opacity: 1;" id="p-type-tokenTransfers"></path><path d="M65.19019870012447,289.75720524852926A297,297,0,0,1,63.647300334127934,290.1000192350516L55.12017897165258,251.23398629590898A257.2095449239783,257.2095449239783,0,0,0,56.45636815206308,250.937100674808Z" fill-rule="evenodd" style="fill: #AE497E; stroke: #fff; opacity: 1;" id="p-type-tokenTransfers"></path><path d="M63.647300334127934,290.1000192350516A297,297,0,0,1,62.10259949251984,290.43461766165495L53.78242880157277,251.52375703341377A257.2095449239783,257.2095449239783,0,0,0,55.12017897165258,251.23398629590898Z" fill-rule="evenodd" style="fill: #AE497E; stroke: #fff; opacity: 1;" id="p-type-tokenTransfers"></path><path d="M62.10259949251984,290.43461766165495A297,297,0,0,1,60.55613992084131,290.76099105259544L52.44315552657356,251.80640468108754A257.2095449239783,257.2095449239783,0,0,0,53.78242880157277,251.52375703341377Z" fill-rule="evenodd" style="fill: #AE497E; stroke: #fff; opacity: 1;" id="p-type-tokenTransfers"></path><path d="M60.55613992084131,290.76099105259544A297,297,0,0,1,59.00796541444027,291.07913016506046L51.10239707453883,252.0819212344197A257.2095449239783,257.2095449239783,0,0,0,52.44315552657356,251.80640468108754Z" fill-rule="evenodd" style="fill: #AE497E; stroke: #fff; opacity: 1;" id="p-type-tokenTransfers"></path><path d="M59.00796541444027,291.07913016506046A297,297,0,0,1,57.45811981723115,291.38902598943L49.760191415412265,252.3502988908504A257.2095449239783,257.2095449239783,0,0,0,51.10239707453883,252.0819212344197Z" fill-rule="evenodd" style="fill: #AE497E; stroke: #fff; opacity: 1;" id="p-type-tokenTransfers"></path><path d="M57.45811981723115,291.38902598943A297,297,0,0,1,55.90664702045327,291.6906697495318L48.41657656012213,252.61153004999167A257.2095449239783,257.2095449239783,0,0,0,49.760191415412265,252.3502988908504Z" fill-rule="evenodd" style="fill: #AE497E; stroke: #fff; opacity: 1;" id="p-type-tokenTransfers"></path><path d="M55.90664702045327,291.6906697495318A297,297,0,0,1,54.35359096142782,291.9840529028902L47.07159055950475,252.8656073138424A257.2095449239783,257.2095449239783,0,0,0,48.41657656012213,252.61153004999167Z" fill-rule="evenodd" style="fill: #AE497E; stroke: #fff; opacity: 1;" id="p-type-tokenTransfers"></path><path d="M54.35359096142782,291.9840529028902A297,297,0,0,1,52.798995622313605,292.2691671409677L45.72527150322695,253.11252348699813A257.2095449239783,257.2095449239783,0,0,0,47.07159055950475,252.8656073138424Z" fill-rule="evenodd" style="fill: #AE497E; stroke: #fff; opacity: 1;" id="p-type-tokenTransfers"></path><path d="M52.798995622313605,292.2691671409677A297,297,0,0,1,51.24290502886143,292.5460043894004L44.37765751870736,253.35227157685466A257.2095449239783,257.2095449239783,0,0,0,45.72527150322695,253.11252348699813Z" fill-rule="evenodd" style="fill: #AE497E; stroke: #fff; opacity: 1;" id="p-type-tokenTransfers"></path><path d="M51.24290502886143,292.5460043894004A297,297,0,0,1,49.68536324916734,292.8145568082268L43.02878677003665,253.5848447938061A257.2095449239783,257.2095449239783,0,0,0,44.37765751870736,253.35227157685466Z" fill-rule="evenodd" style="fill: #AE497E; stroke: #fff; opacity: 1;" id="p-type-tokenTransfers"></path><path d="M49.68536324916734,292.8145568082268A297,297,0,0,1,48.12641439242461,293.07481679210963L41.678697456896735,253.81023655143713A257.2095449239783,257.2095449239783,0,0,0,43.02878677003665,253.5848447938061Z" fill-rule="evenodd" style="fill: #AE497E; stroke: #fff; opacity: 1;" id="p-type-tokenTransfers"></path><path d="M48.12641439242461,293.07481679210963A297,297,0,0,1,46.56610260767457,293.3267769705513L40.32742781347898,254.02844046670967A257.2095449239783,257.2095449239783,0,0,0,41.678697456896735,253.81023655143713Z" fill-rule="evenodd" style="fill: #AE497E; stroke: #fff; opacity: 1;" id="p-type-tokenTransfers"></path><path d="M46.56610260767457,293.3267769705513A297,297,0,0,1,45.004472082556376,293.57043020810255L38.97501610740138,254.2394503601434A257.2095449239783,257.2095449239783,0,0,0,40.32742781347898,254.02844046670967Z" fill-rule="evenodd" style="fill: #AE497E; stroke: #fff; opacity: 1;" id="p-type-tokenTransfers"></path><path d="M45.004472082556376,293.57043020810255A297,297,0,0,1,43.44156704205553,293.8057696045648L37.6215006386249,254.44326025599096A257.2095449239783,257.2095449239783,0,0,0,38.97501610740138,254.2394503601434Z" fill-rule="evenodd" style="fill: #AE497E; stroke: #fff; opacity: 1;" id="p-type-tokenTransfers"></path><path d="M43.44156704205553,293.8057696045648A297,297,0,0,1,41.877431747251514,294.0327884951852L36.26691973836876,254.63986438240718A257.2095449239783,257.2095449239783,0,0,0,37.6215006386249,254.44326025599096Z" fill-rule="evenodd" style="fill: #AE497E; stroke: #fff; opacity: 1;" id="p-type-tokenTransfers"></path><path d="M41.877431747251514,294.0327884951852A297,297,0,0,1,40.31211049406431,294.2514804508456L34.91131176802495,254.8292571716124A257.2095449239783,257.2095449239783,0,0,0,36.26691973836876,254.63986438240718Z" fill-rule="evenodd" style="fill: #AE497E; stroke: #fff; opacity: 1;" id="p-type-tokenTransfers"></path><path d="M40.31211049406431,294.2514804508456A297,297,0,0,1,38.745647611999914,294.46183927824455L33.5547151180718,255.0114332600502A257.2095449239783,257.2095449239783,0,0,0,34.91131176802495,254.8292571716124Z" fill-rule="evenodd" style="fill: #AE497E; stroke: #fff; opacity: 1;" id="p-type-tokenTransfers"></path><path d="M38.745647611999914,294.46183927824455A297,297,0,0,1,37.17808746289501,294.6638590200728L32.197168206986824,255.18638748853942A257.2095449239783,257.2095449239783,0,0,0,33.5547151180718,255.0114332600502Z" fill-rule="evenodd" style="fill: #AE497E; stroke: #fff; opacity: 1;" id="p-type-tokenTransfers"></path><path d="M37.17808746289501,294.6638590200728A297,297,0,0,1,35.609474439660566,294.85753395518174L30.838709480158688,255.3541149024201A257.2095449239783,257.2095449239783,0,0,0,32.197168206986824,255.18638748853942Z" fill-rule="evenodd" style="fill: #AE497E; stroke: #fff; opacity: 1;" id="p-type-tokenTransfers"></path><path d="M35.609474439660566,294.85753395518174A297,297,0,0,1,34.039852965024714,295.0428585987458L29.47937740879845,255.51461075169385A257.2095449239783,257.2095449239783,0,0,0,30.838709480158688,255.3541149024201Z" fill-rule="evenodd" style="fill: #AE497E; stroke: #fff; opacity: 1;" id="p-type-tokenTransfers"></path><path d="M34.039852965024714,295.0428585987458A297,297,0,0,1,32.46926749027467,295.2198277024173L28.119210488850065,255.6678704911584A257.2095449239783,257.2095449239783,0,0,0,29.47937740879845,255.51461075169385Z" fill-rule="evenodd" style="fill: #AE497E; stroke: #fff; opacity: 1;" id="p-type-tokenTransfers"></path><path d="M32.46926749027467,295.2198277024173A297,297,0,0,1,30.897762493997874,295.3884362544758L26.758247239900193,255.8138897805363A257.2095449239783,257.2095449239783,0,0,0,28.119210488850065,255.6678704911584Z" fill-rule="evenodd" style="fill: #AE497E; stroke: #fff; opacity: 1;" id="p-type-tokenTransfers"></path><path d="M30.897762493997874,295.3884362544758A297,297,0,0,1,29.325382480822412,295.54867947996905L25.396526204087333,255.95266448459782A257.2095449239783,257.2095449239783,0,0,0,26.758247239900193,255.8138897805363Z" fill-rule="evenodd" style="fill: #AE497E; stroke: #fff; opacity: 1;" id="p-type-tokenTransfers"></path><path d="M29.325382480822412,295.54867947996905A297,297,0,0,1,27.752171980156607,295.7005528408491L24.03408594501031,256.0841906732781A257.2095449239783,257.2095449239783,0,0,0,25.396526204087333,255.95266448459782Z" fill-rule="evenodd" style="fill: #AE497E; stroke: #fff; opacity: 1;" id="p-type-tokenTransfers"></path><path d="M27.752171980156607,295.7005528408491A297,297,0,0,1,26.178175544928003,295.8440520361005L22.67096504663619,256.2084646217884A257.2095449239783,257.2095449239783,0,0,0,24.03408594501031,256.0841906732781Z" fill-rule="evenodd" style="fill: #AE497E; stroke: #fff; opacity: 1;" id="p-type-tokenTransfers"></path><path d="M26.178175544928003,295.8440520361005A297,297,0,0,1,24.603437750321586,295.97917300186185L21.307202112207552,256.3254828107216A257.2095449239783,257.2095449239783,0,0,0,22.67096504663619,256.2084646217884Z" fill-rule="evenodd" style="fill: #AE497E; stroke: #fff; opacity: 1;" id="p-type-tokenTransfers"></path><path d="M24.603437750321586,295.97917300186185A297,297,0,0,1,23.02800319251747,296.1059119115412L19.942835763149287,256.4352419261519A257.2095449239783,257.2095449239783,0,0,0,21.307202112207552,256.3254828107216Z" fill-rule="evenodd" style="fill: #AE497E; stroke: #fff; opacity: 1;" id="p-type-tokenTransfers"></path><path d="M23.02800319251747,296.1059119115412A297,297,0,0,1,21.45191648742794,296.2242651759245L18.57790463797484,256.5377388597286A257.2095449239783,257.2095449239783,0,0,0,19.942835763149287,256.4352419261519Z" fill-rule="evenodd" style="fill: #AE497E; stroke: #fff; opacity: 1;" id="p-type-tokenTransfers"></path><path d="M21.45191648742794,296.2242651759245A297,297,0,0,1,19.875222269433902,296.33422944327674L17.21244739119196,256.6329707087642A257.2095449239783,257.2095449239783,0,0,0,18.57790463797484,256.5377388597286Z" fill-rule="evenodd" style="fill: #AE497E; stroke: #fff; opacity: 1;" id="p-type-tokenTransfers"></path><path d="M19.875222269433902,296.33422944327674A297,297,0,0,1,18.297965190120895,296.4358015994376L15.846502692208052,256.7209347763167A257.2095449239783,257.2095449239783,0,0,0,17.21244739119196,256.6329707087642Z" fill-rule="evenodd" style="fill: #AE497E; stroke: #fff; opacity: 1;" id="p-type-tokenTransfers"></path><path d="M18.297965190120895,296.4358015994376A297,297,0,0,1,16.720189917014544,296.5289787679089L14.48010922423502,256.80162857126555A257.2095449239783,257.2095449239783,0,0,0,15.846502692208052,256.7209347763167Z" fill-rule="evenodd" style="fill: #AE497E; stroke: #fff; opacity: 1;" id="p-type-tokenTransfers"></path><path d="M16.720189917014544,296.5289787679089A297,297,0,0,1,15.14194113231559,296.6137583099366L13.11330568319381,256.87504980838276A257.2095449239783,257.2095449239783,0,0,0,14.48010922423502,256.80162857126555Z" fill-rule="evenodd" style="fill: #AE497E; stroke: #fff; opacity: 1;" id="p-type-tokenTransfers"></path><path d="M15.14194113231559,296.6137583099366A297,297,0,0,1,13.563263531634508,296.69013782458535L11.746130776618527,256.9411964083973A257.2095449239783,257.2095449239783,0,0,0,13.11330568319381,256.87504980838276Z" fill-rule="evenodd" style="fill: #AE497E; stroke: #fff; opacity: 1;" id="p-type-tokenTransfers"></path><path d="M13.563263531634508,296.69013782458535A297,297,0,0,1,11.98420182272573,296.7581151488063L10.378623222560256,257.0000664980539A257.2095449239783,257.2095449239783,0,0,0,11.746130776618527,256.9411964083973Z" fill-rule="evenodd" style="fill: #AE497E; stroke: #fff; opacity: 1;" id="p-type-tokenTransfers"></path><path d="M11.98420182272573,296.7581151488063A297,297,0,0,1,10.404800724221538,296.81768835749875L9.010821748490578,257.0516584101665A257.2095449239783,257.2095449239783,0,0,0,10.378623222560256,257.0000664980539Z" fill-rule="evenodd" style="fill: #AE497E; stroke: #fff; opacity: 1;" id="p-type-tokenTransfers"></path><path d="M10.404800724221538,296.81768835749875A297,297,0,0,1,8.825104964365648,296.8688557635643L7.642765090204815,257.09597068366503A257.2095449239783,257.2095449239783,0,0,0,9.010821748490578,257.0516584101665Z" fill-rule="evenodd" style="fill: #AE497E; stroke: #fff; opacity: 1;" id="p-type-tokenTransfers"></path><path d="M8.825104964365648,296.8688557635643A297,297,0,0,1,7.245159279746505,296.91161591795475L6.27449199072504,257.1330020636369A257.2095449239783,257.2095449239783,0,0,0,7.642765090204815,257.09597068366503Z" fill-rule="evenodd" style="fill: #AE497E; stroke: #fff; opacity: 1;" id="p-type-tokenTransfers"></path><path d="M7.245159279746505,296.91161591795475A297,297,0,0,1,5.665008414030362,296.9459676097134L4.906041199202887,257.1627515013629A257.2095449239783,257.2095449239783,0,0,0,6.27449199072504,257.1330020636369Z" fill-rule="evenodd" style="fill: #AE497E; stroke: #fff; opacity: 1;" id="p-type-tokenTransfers"></path><path d="M5.665008414030362,296.9459676097134A297,297,0,0,1,4.0846971166941515,296.97190986600884L3.5374514698221846,257.1852181543462A257.2095449239783,257.2095449239783,0,0,0,4.906041199202887,257.1627515013629Z" fill-rule="evenodd" style="fill: #AE497E; stroke: #fff; opacity: 1;" id="p-type-tokenTransfers"></path><path d="M4.0846971166941515,296.97190986600884A297,297,0,0,1,2.5042701417581874,296.98944195216285L2.1687615607014474,257.2004013863369A257.2095449239783,257.2095449239783,0,0,0,3.5374514698221846,257.1852181543462Z" fill-rule="evenodd" style="fill: #AE497E; stroke: #fff; opacity: 1;" id="p-type-tokenTransfers"></path><path d="M2.5042701417581874,296.98944195216285A297,297,0,0,1,0.9237722465187445,296.99856337167114L0.8000102327962537,257.2083007673497A257.2095449239783,257.2095449239783,0,0,0,2.1687615607014474,257.2004013863369Z" fill-rule="evenodd" style="fill: #AE497E; stroke: #fff; opacity: 1;" id="p-type-tokenTransfers"></path><path d="M0.9237722465187445,296.99856337167114A297,297,0,0,1,-0.656751809719456,296.99927386621744L-0.5687637511984527,257.20891607367605A257.2095449239783,257.2095449239783,0,0,0,0.8000102327962537,257.2083007673497Z" fill-rule="evenodd" style="fill: #AE497E; stroke: #fff; opacity: 1;" id="p-type-tokenTransfers"></path><path d="M-0.656751809719456,296.99927386621744A297,297,0,0,1,-2.237257266910821,296.9915734156807L-1.9375216279461136,257.20224728789066A257.2095449239783,257.2095449239783,0,0,0,-0.5687637511984527,257.20891607367605Z" fill-rule="evenodd" style="fill: #AE497E; stroke: #fff; opacity: 1;" id="p-type-tokenTransfers"></path><path d="M-2.237257266910821,296.9915734156807A297,297,0,0,1,-3.8176993655364773,296.9754622381357L-3.3062246345663233,257.1882945988518A257.2095449239783,257.2095449239783,0,0,0,-1.9375216279461136,257.20224728789066Z" fill-rule="evenodd" style="fill: #AE497E; stroke: #fff; opacity: 1;" id="p-type-tokenTransfers"></path><path d="M-3.8176993655364773,296.9754622381357A297,297,0,0,1,-5.398033347871851,296.95094078984704L-4.674834009732585,257.16705840169624A257.2095449239783,257.2095449239783,0,0,0,-3.3062246345663233,257.1882945988518Z" fill-rule="evenodd" style="fill: #AE497E; stroke: #fff; opacity: 1;" id="p-type-tokenTransfers"></path><path d="M-5.398033347871851,296.95094078984704A297,297,0,0,1,-6.978214459254194,296.918009765256L-6.043310994770022,257.1385392978277A257.2095449239783,257.2095449239783,0,0,0,-4.674834009732585,257.16705840169624Z" fill-rule="evenodd" style="fill: #AE497E; stroke: #fff; opacity: 1;" id="p-type-tokenTransfers"></path><path d="M-6.978214459254194,296.918009765256A297,297,0,0,1,-8.558197949350026,296.8766700969609L-7.411616834753011,257.10273809490013A257.2095449239783,257.2095449239783,0,0,0,-6.043310994770022,257.1385392978277Z" fill-rule="evenodd" style="fill: #AE497E; stroke: #fff; opacity: 1;" id="p-type-tokenTransfers"></path><path d="M-8.558197949350026,296.8766700969609A297,297,0,0,1,-10.13793907342245,296.82692295569075L-8.779712779602715,257.0596558067946A257.2095449239783,257.2095449239783,0,0,0,-7.411616834753011,257.10273809490013Z" fill-rule="evenodd" style="fill: #AE497E; stroke: #fff; opacity: 1;" id="p-type-tokenTransfers"></path><path d="M-10.13793907342245,296.82692295569075A297,297,0,0,1,-11.717393093598316,296.7687697502722L-10.147560085184475,257.0092936535906A257.2095449239783,257.2095449239783,0,0,0,-8.779712779602715,257.0596558067946Z" fill-rule="evenodd" style="fill: #AE497E; stroke: #fff; opacity: 1;" id="p-type-tokenTransfers"></path><path d="M-11.717393093598316,296.7687697502722A297,297,0,0,1,-13.296515280135184,296.7022121275895L-11.515120014405031,256.9516530615319A257.2095449239783,257.2095449239783,0,0,0,-10.147560085184475,257.0092936535906Z" fill-rule="evenodd" style="fill: #AE497E; stroke: #fff; opacity: 1;" id="p-type-tokenTransfers"></path><path d="M-13.296515280135184,296.7022121275895A297,297,0,0,1,-14.875260912688061,296.62725197253786L-12.882353838309555,256.88673566298553A257.2095449239783,257.2095449239783,0,0,0,-11.515120014405031,256.9516530615319Z" fill-rule="evenodd" style="fill: #AE497E; stroke: #fff; opacity: 1;" id="p-type-tokenTransfers"></path><path d="M-14.875260912688061,296.62725197253786A297,297,0,0,1,-16.453585281575865,296.54389140797L-14.249222837178436,256.814543296396A257.2095449239783,257.2095449239783,0,0,0,-12.882353838309555,256.88673566298553Z" fill-rule="evenodd" style="fill: #AE497E; stroke: #fff; opacity: 1;" id="p-type-tokenTransfers"></path><path d="M-16.453585281575865,296.54389140797A297,297,0,0,1,-18.031443689047602,296.4521327946363L-15.615688301623816,256.735078006233A257.2095449239783,257.2095449239783,0,0,0,-14.249222837178436,256.814543296396Z" fill-rule="evenodd" style="fill: #AE497E; stroke: #fff; opacity: 1;" id="p-type-tokenTransfers"></path><path d="M-18.031443689047602,296.4521327946363A297,297,0,0,1,-19.60879145054818,296.3519787311178L-16.981711533685836,256.6483420429337A257.2095449239783,257.2095449239783,0,0,0,-15.615688301623816,256.735078006233Z" fill-rule="evenodd" style="fill: #AE497E; stroke: #fff; opacity: 1;" id="p-type-tokenTransfers"></path><path d="M-19.60879145054818,296.3519787311178A297,297,0,0,1,-21.185583895983875,296.24343205375243L-18.34725384792854,256.55433786283885A257.2095449239783,257.2095449239783,0,0,0,-16.981711533685836,256.6483420429337Z" fill-rule="evenodd" style="fill: #AE497E; stroke: #fff; opacity: 1;" id="p-type-tokenTransfers"></path><path d="M-21.185583895983875,296.24343205375243A297,297,0,0,1,-22.761776370987384,296.1264958365549L-19.712276572535444,256.45306812812333A257.2095449239783,257.2095449239783,0,0,0,-18.34725384792854,256.55433786283885Z" fill-rule="evenodd" style="fill: #AE497E; stroke: #fff; opacity: 1;" id="p-type-tokenTransfers"></path><path d="M-22.761776370987384,296.1264958365549A297,297,0,0,1,-24.337324238182408,296.0011733911296L-21.076741050404728,256.34453570672065A257.2095449239783,257.2095449239783,0,0,0,-19.712276572535444,256.45306812812333Z" fill-rule="evenodd" style="fill: #AE497E; stroke: #fff; opacity: 1;" id="p-type-tokenTransfers"></path><path d="M-24.337324238182408,296.0011733911296A297,297,0,0,1,-25.912182878447776,295.86746826657685L-22.440608640243955,256.2287436722418A257.2095449239783,257.2095449239783,0,0,0,-21.076741050404728,256.34453570672065Z" fill-rule="evenodd" style="fill: #AE497E; stroke: #fff; opacity: 1;" id="p-type-tokenTransfers"></path><path d="M-25.912182878447776,295.86746826657685A297,297,0,0,1,-27.486307692181065,295.72538424939233L-23.80384071766443,256.1056953038883A257.2095449239783,257.2095449239783,0,0,0,-22.440608640243955,256.2287436722418Z" fill-rule="evenodd" style="fill: #AE497E; stroke: #fff; opacity: 1;" id="p-type-tokenTransfers"></path><path d="M-27.486307692181065,295.72538424939233A297,297,0,0,1,-29.05965410056162,295.5749253633598L-25.166398676274998,255.975394086359A257.2095449239783,257.2095449239783,0,0,0,-23.80384071766443,256.1056953038883Z" fill-rule="evenodd" style="fill: #AE497E; stroke: #fff; opacity: 1;" id="p-type-tokenTransfers"></path><path d="M-29.05965410056162,295.5749253633598A297,297,0,0,1,-30.632177546813043,295.41609586943724L-26.52824392877538,255.8378437097518A257.2095449239783,257.2095449239783,0,0,0,-25.166398676274998,255.975394086359Z" fill-rule="evenodd" style="fill: #AE497E; stroke: #fff; opacity: 1;" id="p-type-tokenTransfers"></path><path d="M-30.632177546813043,295.41609586943724A297,297,0,0,1,-32.20383349746501,295.2489002656361L-27.889337908048972,255.69304806945897A257.2095449239783,257.2095449239783,0,0,0,-26.52824392877538,255.8378437097518Z" fill-rule="evenodd" style="fill: #AE497E; stroke: #fff; opacity: 1;" id="p-type-tokenTransfers"></path><path d="M-32.20383349746501,295.2489002656361A297,297,0,0,1,-33.77457744361446,295.07334328689416L-29.24964206825501,255.5410112660568A257.2095449239783,257.2095449239783,0,0,0,-27.889337908048972,255.69304806945897Z" fill-rule="evenodd" style="fill: #AE497E; stroke: #fff; opacity: 1;" id="p-type-tokenTransfers"></path><path d="M-33.77457744361446,295.07334328689416A297,297,0,0,1,-35.34436490218607,294.88942990494104L-30.609117885920234,255.38173760518947A257.2095449239783,257.2095449239783,0,0,0,-29.24964206825501,255.5410112660568Z" fill-rule="evenodd" style="fill: #AE497E; stroke: #fff; opacity: 1;" id="p-type-tokenTransfers"></path><path d="M-35.34436490218607,294.88942990494104A297,297,0,0,1,-36.913151417192005,294.6971653281576L-31.96772686102983,255.21523159744717A257.2095449239783,257.2095449239783,0,0,0,-30.609117885920234,255.38173760518947Z" fill-rule="evenodd" style="fill: #AE497E; stroke: #fff; opacity: 1;" id="p-type-tokenTransfers"></path><path d="M-36.913151417192005,294.6971653281576A297,297,0,0,1,-38.480892560990895,294.49655500142865L-33.32543051811774,255.04149795823838A257.2095449239783,257.2095449239783,0,0,0,-31.96772686102983,255.21523159744717Z" fill-rule="evenodd" style="fill: #AE497E; stroke: #fff; opacity: 1;" id="p-type-tokenTransfers"></path><path d="M-38.480892560990895,294.49655500142865A297,297,0,0,1,-40.047543935546024,294.28760460598835L-34.682190407356295,254.86054160765627A257.2095449239783,257.2095449239783,0,0,0,-33.32543051811774,255.04149795823838Z" fill-rule="evenodd" style="fill: #AE497E; stroke: #fff; opacity: 1;" id="p-type-tokenTransfers"></path><path d="M-40.047543935546024,294.28760460598835A297,297,0,0,1,-41.61306117368268,294.07032005925953L-36.03796810564509,254.67236767033936A257.2095449239783,257.2095449239783,0,0,0,-34.682190407356295,254.86054160765627Z" fill-rule="evenodd" style="fill: #AE497E; stroke: #fff; opacity: 1;" id="p-type-tokenTransfers"></path><path d="M-41.61306117368268,294.07032005925953A297,297,0,0,1,-43.1773999403446,293.84470751468626L-37.39272521769913,254.47698147532645A257.2095449239783,257.2095449239783,0,0,0,-36.03796810564509,254.67236767033936Z" fill-rule="evenodd" style="fill: #AE497E; stroke: #fff; opacity: 1;" id="p-type-tokenTransfers"></path><path d="M-43.1773999403446,293.84470751468626A297,297,0,0,1,-44.740515933849544,293.6107733615593L-38.74642337713616,254.27438855590572A257.2095449239783,257.2095449239783,0,0,0,-37.39272521769913,254.47698147532645Z" fill-rule="evenodd" style="fill: #AE497E; stroke: #fff; opacity: 1;" id="p-type-tokenTransfers"></path><path d="M-44.740515933849544,293.6107733615593A297,297,0,0,1,-46.30236488714388,293.3685242248353L-40.09902424756319,254.0645946494579A257.2095449239783,257.2095449239783,0,0,0,-38.74642337713616,254.27438855590572Z" fill-rule="evenodd" style="fill: #AE497E; stroke: #fff; opacity: 1;" id="p-type-tokenTransfers"></path><path d="M-168.56947139595894,244.5267537781643A297,297,0,0,1,-193.59214339649282,225.23561444663176L-167.65571415444265,195.05976394778043A257.2095449239783,257.2095449239783,0,0,0,-145.98544453141471,211.76638067683277Z" fill-rule="evenodd" style="fill: #F09B24; stroke: #fff; opacity: 1;" id="p-type-ether"></path><path d="M-193.59214339649282,225.23561444663176A297,297,0,0,1,-212.3629958483782,207.63178464363713L-183.9117492284648,179.81440013448946A257.2095449239783,257.2095449239783,0,0,0,-167.65571415444265,195.05976394778043Z" fill-rule="evenodd" style="fill: #F09B24; stroke: #fff; opacity: 1;" id="p-type-ether"></path><path d="M-212.3629958483782,207.63178464363713A297,297,0,0,1,-223.0565419659991,196.09890128751485L-193.17263182286496,169.8266301692048A257.2095449239783,257.2095449239783,0,0,0,-183.9117492284648,179.81440013448946Z" fill-rule="evenodd" style="fill: #F09B24; stroke: #fff; opacity: 1;" id="p-type-ether"></path><path d="M-223.0565419659991,196.09890128751485A297,297,0,0,1,-230.26422422992758,187.583013729361L-199.41466776583357,162.45165520807177A257.2095449239783,257.2095449239783,0,0,0,-193.17263182286496,169.8266301692048Z" fill-rule="evenodd" style="fill: #F09B24; stroke: #fff; opacity: 1;" id="p-type-ether"></path><path d="M-230.26422422992758,187.583013729361A297,297,0,0,1,-234.2482382079235,182.5835778389829L-202.86492507981032,158.12201672241264A257.2095449239783,257.2095449239783,0,0,0,-199.41466776583357,162.45165520807177Z" fill-rule="evenodd" style="fill: #F09B24; stroke: #fff; opacity: 1;" id="p-type-ether"></path><path d="M-234.2482382079235,182.5835778389829A297,297,0,0,1,-238.03325144621985,177.62086365610512L-206.14284269783536,153.82418016831915A257.2095449239783,257.2095449239783,0,0,0,-202.86492507981032,158.12201672241264Z" fill-rule="evenodd" style="fill: #F09B24; stroke: #fff; opacity: 1;" id="p-type-ether"></path><path d="M-238.03325144621985,177.62086365610512A297,297,0,0,1,-239.30316319543024,175.906213888712L-207.2426185332159,152.33924991116365A257.2095449239783,257.2095449239783,0,0,0,-206.14284269783536,153.82418016831915Z" fill-rule="evenodd" style="fill: #F09B24; stroke: #fff; opacity: 1;" id="p-type-ether"></path></g></svg>