<svg xmlns="http://www.w3.org/2000/svg" width="600" height="600" id="block-7913332"><g id="burst-container" transform="translate(300,300)"><data type="text/json">{"number":7913332,"totalTransactions":138,"totalFunctions":464,"totalFunctionsValue":"52.159191622443029482","totalLogs":120,"totalTokenTransfers":120,"tokens":{"0x174bfa6600bf90c885c7c01c7031389ed1461ab9":"15.3","0x931abd3732f7eada74190c8f89b46f8ba7103d54":"1588","0x8efc4b144da218886201a77e2f94c17b3a5b779a":"50","0xc05d14442a510de4d3d71a3d316585aa0ce32b50":"75933","0x3cd4061707b0abcbaaf25ca699c21c13c88fdc4c":"1000000","0x93f1bf08e8377fc75d04dd2b930e1982f2ec507b":"284.05","0x0000000000085d4780b73119b644ae5ecd22b376":"4000","0x04abeda201850ac0124161f037efd70c74ddc74c":"2731.93573282301303956","0xd2bd6415db70a0f0b26c973b15b63bac74f5c9c6":"2500","0x0d8775f648430679a709e98d2b0cb6250d2887ef":"28.68824157","0x5ca9a71b1d01849c0a95490cc00559717fcf0d1d":"6800","0xe41d2489571d322189246dafa5ebde1f4699f498":"47.99910551","0x386cabc0b14a507a4e024dea15554342865b20de":"434782","0x7bae88aed0510bf802fcc63afcac56e1fc513779":"400","0x048fe49be32adfc9ed68c37d32b5ec9df17b3603":"649.148","0x369a07e09461f6eb506fa581508674281c11ccd0":"2","0xc3a02bf6da4ad9111e6e2b7404bc7e375f7b6311":"9.9e-12","0xcafe27178308351a12fffffdeb161d9d730da082":"1000","0xf629cbd94d3791c9250152bd8dfbdf380e2a3b9c":"1","0x1f35a281036be57e64e7e7a2a556b4f888a1b829":"725","0xff0e5e014cf97e0615cb50f6f39da6388e2fae6e":"3689","0x4a220e6096b25eadb88358cb44068a3248254675":"49.9685987256207377","0x9e88613418cf03dca54d6a2cf6ad934a78c7a17a":"1499.110337421252948","0x1beef31946fbbb40b877a72e4ae04a8d1a5cee06":"1455000","0xf651da6419c6a1a4b09f843ecaa7506a4db3f2c9":"3.33","0x498d99de4268cebca264887f591c4ba8fac042e4":"2100","0x744d70fdbe2ba4cf95131626614a1763df805b9e":"3507.257365132037062656","0x1f573d6fb3f13d689ff844b4ce37794d79a7ff1c":"148.011909323857303965","0xc0829421c1d260bd3cb3e0f06cfe2d52db2ce315":"0.414143659566414385","0x05f02507c7134dbae420ab8c0ef56e999b59da03":"5.6248e-14","0x6f259637dcd74c767781e37bc6133cd6a68aa161":"4038.9844","0x8207c1ffc5b6804f6024322ccf34f29c3541ae26":"50","0x157ad40f43e26e72909f16bb07f2ca97466df849":"4.3259e-14","0x06a6a7af298129e3a2ab396c9c06f91d3c54aba8":"1.0426e-13","0x047686fb287e7263a23873dea66b4501015a2226":"0.1094091903719912"},"totalEther":"390.499092800495949933","totalEtherTxns":73,"newContracts":[],"totalNewContracts":0}</data><circle r="297" style="fill: #f9f9f9; stroke: #f9f9f9; stroke-width: 3; opacity: 1;" id="circle-base"></circle><path display="none" d="M9.093002483669097e-15,-148.5A148.5,148.5,0,1,1,-9.093002483669097e-15,148.5A148.5,148.5,0,1,1,9.093002483669097e-15,-148.5Z" fill-rule="evenodd" id="p-type-root" style="stroke: #fff; opacity: 1;"></path><path d="M1.2859447435097075e-14,-210.0107140124046A210.0107140124046,210.0107140124046,0,1,1,-134.0373987449506,-161.67397977932973L-94.7787535851598,-114.32076744338082A148.5,148.5,0,1,0,9.093002483669097e-15,-148.5Z" fill-rule="evenodd" style="fill: #4E4E4E; stroke: #fff; opacity: 1;" id="p-type-data"></path><path d="M-134.0373987449506,-161.67397977932973A210.0107140124046,210.0107140124046,0,0,1,-2.1860011725946813,-209.99933666293666L-1.5457362528234435,-148.49195499903928A148.5,148.5,0,0,0,-94.7787535851598,-114.32076744338082Z" fill-rule="evenodd" style="fill: #3A86AD; stroke: #fff; opacity: 1;" id="p-type-value"></path><path d="M1.5749542295064867e-14,-257.2095449239783A257.2095449239783,257.2095449239783,0,0,1,171.3849758483749,191.79139723525654L139.93524680257897,156.59702009393828A210.0107140124046,210.0107140124046,0,0,0,1.2859447435097075e-14,-210.0107140124046Z" fill-rule="evenodd" style="fill: #F09B24; stroke: #fff; opacity: 1;" id="p-type-ether"></path><path d="M171.3849758483749,191.79139723525654A257.2095449239783,257.2095449239783,0,0,1,-88.66040387925874,241.4458174911438L-72.39091663108606,197.13968446081867A210.0107140124046,210.0107140124046,0,0,0,139.93524680257897,156.59702009393828Z" fill-rule="evenodd" style="fill: #6B0E12; stroke: #fff; opacity: 1;" id="p-type-functions"></path><path d="M-88.66040387925874,241.4458174911438A257.2095449239783,257.2095449239783,0,0,1,-223.02447909659975,128.1281847357963L-182.0987246455608,104.61622475725373A210.0107140124046,210.0107140124046,0,0,0,-72.39091663108606,197.13968446081867Z" fill-rule="evenodd" style="fill: #184B42; stroke: #fff; opacity: 1;" id="p-type-logs"></path><path d="M-223.02447909659975,128.1281847357963A257.2095449239783,257.2095449239783,0,0,1,-253.9098574188512,-41.06743607213211L-207.3165304463384,-33.531421140363825A210.0107140124046,210.0107140124046,0,0,0,-182.0987246455608,104.61622475725373Z" fill-rule="evenodd" style="fill: #AE497E; stroke: #fff; opacity: 1;" id="p-type-tokenTransfers"></path><path d="M-164.16161668754768,-198.00937757220157A257.2095449239783,257.2095449239783,0,0,1,-79.02119338156353,-244.77009824844524L-64.52053421687528,-199.85394833319913A210.0107140124046,210.0107140124046,0,0,0,-134.0373987449506,-161.67397977932973Z" fill-rule="evenodd" style="fill: #F09B24; stroke: #fff; opacity: 1;" id="p-type-ether"></path><path d="M-79.02119338156353,-244.77009824844524A257.2095449239783,257.2095449239783,0,0,1,-5.354297364722157,-257.15380903212406L-4.3717654915659745,-209.96520584727068A210.0107140124046,210.0107140124046,0,0,0,-64.52053421687528,-199.85394833319913Z" fill-rule="evenodd" style="fill: #AE497E; stroke: #fff; opacity: 1;" id="p-type-tokenTransfers"></path><path d="M1.8186004967338195e-14,-297A297,297,0,0,1,280.2124812840581,-98.43762153075122L242.67112724946583,-85.24948093374857A257.2095449239783,257.2095449239783,0,0,0,1.5749542295064867e-14,-257.2095449239783Z" fill-rule="evenodd" style="fill: #F09B24; stroke: #fff; opacity: 1;" id="p-type-ether"></path><path d="M280.2124812840581,-98.43762153075122A297,297,0,0,1,296.73800204566004,12.472294975257482L256.9826480397804,10.801324292065985A257.2095449239783,257.2095449239783,0,0,0,242.67112724946583,-85.24948093374857Z" fill-rule="evenodd" style="fill: #F09B24; stroke: #fff; opacity: 1;" id="p-type-ether"></path><path d="M296.73800204566004,12.472294975257482A297,297,0,0,1,293.78051698648085,43.61201484861758L254.42139084721822,37.76911276912697A257.2095449239783,257.2095449239783,0,0,0,256.9826480397804,10.801324292065985Z" fill-rule="evenodd" style="fill: #F09B24; stroke: #fff; opacity: 1;" id="p-type-ether"></path><path d="M293.78051698648085,43.61201484861758A297,297,0,0,1,287.6581489229825,73.90391977563316L249.1192645729101,64.00267196494546A257.2095449239783,257.2095449239783,0,0,0,254.42139084721822,37.76911276912697Z" fill-rule="evenodd" style="fill: #F09B24; stroke: #fff; opacity: 1;" id="p-type-ether"></path><path d="M287.6581489229825,73.90391977563316A297,297,0,0,1,283.4263805446103,88.76084052881504L245.45444565430813,76.86914275921322A257.2095449239783,257.2095449239783,0,0,0,249.1192645729101,64.00267196494546Z" fill-rule="evenodd" style="fill: #F09B24; stroke: #fff; opacity: 1;" id="p-type-ether"></path><path d="M283.4263805446103,88.76084052881504A297,297,0,0,1,278.4304225619075,103.37069116532805L241.12781912504784,89.52164455592973A257.2095449239783,257.2095449239783,0,0,0,245.45444565430813,76.86914275921322Z" fill-rule="evenodd" style="fill: #F09B24; stroke: #fff; opacity: 1;" id="p-type-ether"></path><path d="M278.4304225619075,103.37069116532805A297,297,0,0,1,275.44282361892255,111.08668199579606L238.54048254410333,96.20388863048282A257.2095449239783,257.2095449239783,0,0,0,241.12781912504784,89.52164455592973Z" fill-rule="evenodd" style="fill: #F09B24; stroke: #fff; opacity: 1;" id="p-type-ether"></path><path d="M275.44282361892255,111.08668199579606A297,297,0,0,1,272.2500927991805,118.69661735212853L235.7754965467612,102.79428597022411A257.2095449239783,257.2095449239783,0,0,0,238.54048254410333,96.20388863048282Z" fill-rule="evenodd" style="fill: #F09B24; stroke: #fff; opacity: 1;" id="p-type-ether"></path><path d="M272.2500927991805,118.69661735212853A297,297,0,0,1,270.48810818518484,122.65880861315964L234.24957310996365,106.22564425692977A257.2095449239783,257.2095449239783,0,0,0,235.7754965467612,102.79428597022411Z" fill-rule="evenodd" style="fill: #F09B24; stroke: #fff; opacity: 1;" id="p-type-ether"></path><path d="M270.48810818518484,122.65880861315964A297,297,0,0,1,269.75029980416485,124.2729888413536L233.61061230887523,107.62356534083229A257.2095449239783,257.2095449239783,0,0,0,234.24957310996365,106.22564425692977Z" fill-rule="evenodd" style="fill: #F09B24; stroke: #fff; opacity: 1;" id="p-type-ether"></path><path d="M269.75029980416485,124.2729888413536A297,297,0,0,1,269.0987278008703,125.67766188131101L233.04633440162743,108.84004787744652A257.2095449239783,257.2095449239783,0,0,0,233.61061230887523,107.62356534083229Z" fill-rule="evenodd" style="fill: #F09B24; stroke: #fff; opacity: 1;" id="p-type-ether"></path><path d="M269.0987278008703,125.67766188131101A297,297,0,0,1,268.44098501851295,127.07650279375214L232.47671244295015,110.05147964347356A257.2095449239783,257.2095449239783,0,0,0,233.04633440162743,108.84004787744652Z" fill-rule="evenodd" style="fill: #F09B24; stroke: #fff; opacity: 1;" id="p-type-ether"></path><path d="M197.89832388223348,221.46162964405963A297,297,0,0,1,173.8139121081582,240.82716615377396L150.52726341682063,208.5624438105842A257.2095449239783,257.2095449239783,0,0,0,171.3849758483749,191.79139723525654Z" fill-rule="evenodd" style="fill: #6B0E12; stroke: #fff; opacity: 1;" id="p-type-functions"></path><path d="M173.8139121081582,240.82716615377396A297,297,0,0,1,170.27931726574013,243.3391750448608L147.46621449120116,210.7379073247978A257.2095449239783,257.2095449239783,0,0,0,150.52726341682063,208.5624438105842Z" fill-rule="evenodd" style="fill: #6B0E12; stroke: #fff; opacity: 1;" id="p-type-functions"></path><path d="M170.27931726574013,243.3391750448608A297,297,0,0,1,168.82214197071863,244.35237748059365L146.2042636679454,211.6153663733187A257.2095449239783,257.2095449239783,0,0,0,147.46621449120116,210.7379073247978Z" fill-rule="evenodd" style="fill: #6B0E12; stroke: #fff; opacity: 1;" id="p-type-functions"></path><path d="M168.82214197071863,244.35237748059365A297,297,0,0,1,167.54589938845976,245.2292225614886L145.0990051703178,212.37473648855715A257.2095449239783,257.2095449239783,0,0,0,146.2042636679454,211.6153663733187Z" fill-rule="evenodd" style="fill: #6B0E12; stroke: #fff; opacity: 1;" id="p-type-functions"></path><path d="M167.54589938845976,245.2292225614886A297,297,0,0,1,166.26731759858615,246.09790551439258L143.99172085947106,213.12703799360645A257.2095449239783,257.2095449239783,0,0,0,145.0990051703178,212.37473648855715Z" fill-rule="evenodd" style="fill: #6B0E12; stroke: #fff; opacity: 1;" id="p-type-functions"></path><path d="M166.26731759858615,246.09790551439258A297,297,0,0,1,164.984232004712,246.9599222339839L142.88053613994623,213.87356637125947A257.2095449239783,257.2095449239783,0,0,0,143.99172085947106,213.12703799360645Z" fill-rule="evenodd" style="fill: #6B0E12; stroke: #fff; opacity: 1;" id="p-type-functions"></path><path d="M164.984232004712,246.9599222339839A297,297,0,0,1,163.69667736271188,247.81524937018747L141.76548111121355,214.61430139975795A257.2095449239783,257.2095449239783,0,0,0,142.88053613994623,213.87356637125947Z" fill-rule="evenodd" style="fill: #6B0E12; stroke: #fff; opacity: 1;" id="p-type-functions"></path><path d="M163.69667736271188,247.81524937018747A297,297,0,0,1,162.40468854951672,248.6638637541339L140.64658597758122,215.34922301427247A257.2095449239783,257.2095449239783,0,0,0,141.76548111121355,214.61430139975795Z" fill-rule="evenodd" style="fill: #6B0E12; stroke: #fff; opacity: 1;" id="p-type-functions"></path><path d="M162.40468854951672,248.6638637541339A297,297,0,0,1,161.108300562169,249.50574239878694L139.52388104737713,216.0783113074456A257.2095449239783,257.2095449239783,0,0,0,140.64658597758122,215.34922301427247Z" fill-rule="evenodd" style="fill: #6B0E12; stroke: #fff; opacity: 1;" id="p-type-functions"></path><path d="M161.108300562169,249.50574239878694A297,297,0,0,1,159.80754851687487,250.34086249956613L138.39739673212785,216.80154652993141A257.2095449239783,257.2095449239783,0,0,0,139.52388104737713,216.0783113074456Z" fill-rule="evenodd" style="fill: #6B0E12; stroke: #fff; opacity: 1;" id="p-type-functions"></path><path d="M159.80754851687487,250.34086249956613A297,297,0,0,1,158.50246764805297,251.16920143496478L137.267163545735,217.51890909093038A257.2095449239783,257.2095449239783,0,0,0,138.39739673212785,216.80154652993141Z" fill-rule="evenodd" style="fill: #6B0E12; stroke: #fff; opacity: 1;" id="p-type-functions"></path><path d="M158.50246764805297,251.16920143496478A297,297,0,0,1,157.19309330737985,251.99073676716247L136.1332121036486,218.23037955872007A257.2095449239783,257.2095449239783,0,0,0,137.267163545735,217.51890909093038Z" fill-rule="evenodd" style="fill: #6B0E12; stroke: #fff; opacity: 1;" id="p-type-functions"></path><path d="M157.19309330737985,251.99073676716247A297,297,0,0,1,155.87946096283252,252.80544624263294L134.99557312203768,218.93593866118138A257.2095449239783,257.2095449239783,0,0,0,136.1332121036486,218.23037955872007Z" fill-rule="evenodd" style="fill: #6B0E12; stroke: #fff; opacity: 1;" id="p-type-functions"></path><path d="M155.87946096283252,252.80544624263294A297,297,0,0,1,154.5616061977276,253.6133077927469L133.85427741695844,219.63556728632076A257.2095449239783,257.2095449239783,0,0,0,134.99557312203768,218.93593866118138Z" fill-rule="evenodd" style="fill: #6B0E12; stroke: #fff; opacity: 1;" id="p-type-functions"></path><path d="M154.5616061977276,253.6133077927469A297,297,0,0,1,153.23956470975747,254.4142995343698L132.70935590351934,220.32924648278774A257.2095449239783,257.2095449239783,0,0,0,133.85427741695844,219.63556728632076Z" fill-rule="evenodd" style="fill: #6B0E12; stroke: #fff; opacity: 1;" id="p-type-functions"></path><path d="M153.23956470975747,254.4142995343698A297,297,0,0,1,151.91337231002348,255.20839977045466L131.56083959504383,221.01695746038843A257.2095449239783,257.2095449239783,0,0,0,132.70935590351934,220.32924648278774Z" fill-rule="evenodd" style="fill: #6B0E12; stroke: #fff; opacity: 1;" id="p-type-functions"></path><path d="M151.91337231002348,255.20839977045466A297,297,0,0,1,150.58306492206552,255.99558699062962L130.40875960223013,221.6986815905944A257.2095449239783,257.2095449239783,0,0,0,131.56083959504383,221.01695746038843Z" fill-rule="evenodd" style="fill: #6B0E12; stroke: #fff; opacity: 1;" id="p-type-functions"></path><path d="M150.58306492206552,255.99558699062962A297,297,0,0,1,149.2486785808893,256.77583987178076L129.25314713230856,222.37440040704732A257.2095449239783,257.2095449239783,0,0,0,130.40875960223013,221.6986815905944Z" fill-rule="evenodd" style="fill: #6B0E12; stroke: #fff; opacity: 1;" id="p-type-functions"></path><path d="M149.2486785808893,256.77583987178076A297,297,0,0,1,147.91024943199014,257.5491372786297L128.09403348819632,223.04409560605913A257.2095449239783,257.2095449239783,0,0,0,129.25314713230856,222.37440040704732Z" fill-rule="evenodd" style="fill: #6B0E12; stroke: #fff; opacity: 1;" id="p-type-functions"></path><path d="M147.91024943199014,257.5491372786297A297,297,0,0,1,146.56781373037373,258.31545826430613L126.93145006764931,223.70774904710802A257.2095449239783,257.2095449239783,0,0,0,128.09403348819632,223.04409560605913Z" fill-rule="evenodd" style="fill: #6B0E12; stroke: #fff; opacity: 1;" id="p-type-functions"></path><path d="M146.56781373037373,258.31545826430613A297,297,0,0,1,145.22140783957428,259.07478207091486L125.76542836241198,224.3653427533295A257.2095449239783,257.2095449239783,0,0,0,126.93145006764931,223.70774904710802Z" fill-rule="evenodd" style="fill: #6B0E12; stroke: #fff; opacity: 1;" id="p-type-functions"></path><path d="M145.22140783957428,259.07478207091486A297,297,0,0,1,143.87106823066935,259.82708813009873L124.59599995736394,225.01685891200367A257.2095449239783,257.2095449239783,0,0,0,125.76542836241198,224.3653427533295Z" fill-rule="evenodd" style="fill: #6B0E12; stroke: #fff; opacity: 1;" id="p-type-functions"></path><path d="M143.87106823066935,259.82708813009873A297,297,0,0,1,142.51683148129197,260.5723560635952L123.42319652966468,225.66227987503754A257.2095449239783,257.2095449239783,0,0,0,124.59599995736394,225.01685891200367Z" fill-rule="evenodd" style="fill: #6B0E12; stroke: #fff; opacity: 1;" id="p-type-functions"></path><path d="M142.51683148129197,260.5723560635952A297,297,0,0,1,141.1587342746399,261.31056568378864L122.2470498478953,226.30158815944313A257.2095449239783,257.2095449239783,0,0,0,123.42319652966468,225.66227987503754Z" fill-rule="evenodd" style="fill: #6B0E12; stroke: #fff; opacity: 1;" id="p-type-functions"></path><path d="M141.1587342746399,261.31056568378864A297,297,0,0,1,139.7968133984819,262.04169699425705L121.06759177119811,226.934766447811A257.2095449239783,257.2095449239783,0,0,0,122.2470498478953,226.30158815944313Z" fill-rule="evenodd" style="fill: #6B0E12; stroke: #fff; opacity: 1;" id="p-type-functions"></path><path d="M139.7968133984819,262.04169699425705A297,297,0,0,1,138.43110574416124,262.76573019031395L119.88485424841357,227.56179758877948A257.2095449239783,257.2095449239783,0,0,0,121.06759177119811,226.934766447811Z" fill-rule="evenodd" style="fill: #6B0E12; stroke: #fff; opacity: 1;" id="p-type-functions"></path><path d="M138.43110574416124,262.76573019031395A297,297,0,0,1,137.06164830559646,263.48264565954435L118.6988693172149,228.18266459749907A257.2095449239783,257.2095449239783,0,0,0,119.88485424841357,227.56179758877948Z" fill-rule="evenodd" style="fill: #6B0E12; stroke: #fff; opacity: 1;" id="p-type-functions"></path><path d="M137.06164830559646,263.48264565954435A297,297,0,0,1,135.68847817827915,264.1924239823365L117.5096691032402,228.7973506560926A257.2095449239783,257.2095449239783,0,0,0,118.6988693172149,228.18266459749907Z" fill-rule="evenodd" style="fill: #6B0E12; stroke: #fff; opacity: 1;" id="p-type-functions"></path><path d="M135.68847817827915,264.1924239823365A297,297,0,0,1,134.3116325582693,264.8950459324078L116.31728581922235,229.4058391141109A257.2095449239783,257.2095449239783,0,0,0,117.5096691032402,228.7973506560926Z" fill-rule="evenodd" style="fill: #6B0E12; stroke: #fff; opacity: 1;" id="p-type-functions"></path><path d="M134.3116325582693,264.8950459324078A297,297,0,0,1,132.93114874118763,265.5904924773254L115.12175176411628,230.00811348898367A257.2095449239783,257.2095449239783,0,0,0,116.31728581922235,229.4058391141109Z" fill-rule="evenodd" style="fill: #6B0E12; stroke: #fff; opacity: 1;" id="p-type-functions"></path><path d="M132.93114874118763,265.5904924773254A297,297,0,0,1,131.54706412120524,266.27874477902196L113.92309932222422,230.604157466466A257.2095449239783,257.2095449239783,0,0,0,115.12175176411628,230.00811348898367Z" fill-rule="evenodd" style="fill: #6B0E12; stroke: #fff; opacity: 1;" id="p-type-functions"></path><path d="M131.54706412120524,266.27874477902196A297,297,0,0,1,130.15941619003098,266.95978419430577L112.72136096231839,231.19395490108028A257.2095449239783,257.2095449239783,0,0,0,113.92309932222422,230.604157466466Z" fill-rule="evenodd" style="fill: #6B0E12; stroke: #fff; opacity: 1;" id="p-type-functions"></path><path d="M130.15941619003098,266.95978419430577A297,297,0,0,1,128.76824253589558,267.63359227536586L111.51656923676151,231.77748981655355A257.2095449239783,257.2095449239783,0,0,0,112.72136096231839,231.19395490108028Z" fill-rule="evenodd" style="fill: #6B0E12; stroke: #fff; opacity: 1;" id="p-type-functions"></path><path d="M128.76824253589558,267.63359227536586A297,297,0,0,1,127.37358084253368,268.3001507702717L110.30875678062507,232.35474640625034A257.2095449239783,257.2095449239783,0,0,0,111.51656923676151,231.77748981655355Z" fill-rule="evenodd" style="fill: #6B0E12; stroke: #fff; opacity: 1;" id="p-type-functions"></path><path d="M127.37358084253368,268.3001507702717A297,297,0,0,1,125.9754688881629,268.9594416234677L109.09795631080526,232.92570903360073A257.2095449239783,257.2095449239783,0,0,0,110.30875678062507,232.35474640625034Z" fill-rule="evenodd" style="fill: #6B0E12; stroke: #fff; opacity: 1;" id="p-type-functions"></path><path d="M125.9754688881629,268.9594416234677A297,297,0,0,1,124.57394454446064,269.61144697626185L107.8842006251368,233.49036223252392A257.2095449239783,257.2095449239783,0,0,0,109.09795631080526,232.92570903360073Z" fill-rule="evenodd" style="fill: #6B0E12; stroke: #fff; opacity: 1;" id="p-type-functions"></path><path d="M124.57394454446064,269.61144697626185A297,297,0,0,1,123.1690457755382,270.2561491673101L106.66752260150447,234.04869070784724A257.2095449239783,257.2095449239783,0,0,0,107.8842006251368,233.49036223252392Z" fill-rule="evenodd" style="fill: #6B0E12; stroke: #fff; opacity: 1;" id="p-type-functions"></path><path d="M123.1690457755382,270.2561491673101A297,297,0,0,1,121.76081063691232,270.89353073309445L105.44795519695256,234.60067933572037A257.2095449239783,257.2095449239783,0,0,0,106.66752260150447,234.04869070784724Z" fill-rule="evenodd" style="fill: #6B0E12; stroke: #fff; opacity: 1;" id="p-type-functions"></path><path d="M121.76081063691232,270.89353073309445A297,297,0,0,1,120.3492772744745,271.5235744083958L104.22553144679215,235.14631316402506A257.2095449239783,257.2095449239783,0,0,0,105.44795519695256,234.60067933572037Z" fill-rule="evenodd" style="fill: #6B0E12; stroke: #fff; opacity: 1;" id="p-type-functions"></path><path d="M120.3492772744745,271.5235744083958A297,297,0,0,1,118.93448392345756,272.14626312676205L103.00028446370617,235.68557741278022A257.2095449239783,257.2095449239783,0,0,0,104.22553144679215,235.14631316402506Z" fill-rule="evenodd" style="fill: #6B0E12; stroke: #fff; opacity: 1;" id="p-type-functions"></path><path d="M118.93448392345756,272.14626312676205A297,297,0,0,1,117.5164689074001,272.7615800209701L101.77224743685261,236.2184574745421A257.2095449239783,257.2095449239783,0,0,0,103.00028446370617,235.68557741278022Z" fill-rule="evenodd" style="fill: #6B0E12; stroke: #fff; opacity: 1;" id="p-type-functions"></path><path d="M117.5164689074001,272.7615800209701A297,297,0,0,1,116.09527063710819,273.3695084234827L100.54145363096531,236.74493891480014A257.2095449239783,257.2095449239783,0,0,0,101.77224743685261,236.2184574745421Z" fill-rule="evenodd" style="fill: #6B0E12; stroke: #fff; opacity: 1;" id="p-type-functions"></path><path d="M116.09527063710819,273.3695084234827A297,297,0,0,1,114.67092760961512,273.9700318669004L99.30793638545308,237.26500747236793A257.2095449239783,257.2095449239783,0,0,0,100.54145363096531,236.74493891480014Z" fill-rule="evenodd" style="fill: #6B0E12; stroke: #fff; opacity: 1;" id="p-type-functions"></path><path d="M114.67092760961512,273.9700318669004A297,297,0,0,1,113.24347840713847,274.56313408440684L98.07172911349645,237.7786490597694A257.2095449239783,257.2095449239783,0,0,0,99.30793638545308,237.26500747236793Z" fill-rule="evenodd" style="fill: #6B0E12; stroke: #fff; opacity: 1;" id="p-type-functions"></path><path d="M113.24347840713847,274.56313408440684A297,297,0,0,1,111.81296169603505,275.1487990102101L96.83286530114272,238.28584976362055A257.2095449239783,257.2095449239783,0,0,0,98.07172911349645,237.7786490597694Z" fill-rule="evenodd" style="fill: #6B0E12; stroke: #fff; opacity: 1;" id="p-type-functions"></path><path d="M111.81296169603505,275.1487990102101A297,297,0,0,1,110.37941622575352,275.72701077997755L95.59137850639881,238.78659584500633A257.2095449239783,257.2095449239783,0,0,0,96.83286530114272,238.28584976362055Z" fill-rule="evenodd" style="fill: #6B0E12; stroke: #fff; opacity: 1;" id="p-type-functions"></path><path d="M110.37941622575352,275.72701077997755A297,297,0,0,1,108.94288082778475,276.29775373126563L94.34730235832227,239.2808737398527A257.2095449239783,257.2095449239783,0,0,0,95.59137850639881,238.78659584500633Z" fill-rule="evenodd" style="fill: #6B0E12; stroke: #fff; opacity: 1;" id="p-type-functions"></path><path d="M108.94288082778475,276.29775373126563A297,297,0,0,1,107.50339441460993,276.86101240394396L93.10067055611033,239.76867005929407A257.2095449239783,257.2095449239783,0,0,0,94.34730235832227,239.2808737398527Z" fill-rule="evenodd" style="fill: #6B0E12; stroke: #fff; opacity: 1;" id="p-type-functions"></path><path d="M107.50339441460993,276.86101240394396A297,297,0,0,1,106.06099597864659,277.41677154061455L91.85151686818713,240.24997159003607A257.2095449239783,257.2095449239783,0,0,0,93.10067055611033,239.76867005929407Z" fill-rule="evenodd" style="fill: #6B0E12; stroke: #fff; opacity: 1;" id="p-type-functions"></path><path d="M106.06099597864659,277.41677154061455A297,297,0,0,1,104.61572459119232,277.96501608702454L90.59987513128895,240.72476529471342A257.2095449239783,257.2095449239783,0,0,0,91.85151686818713,240.24997159003607Z" fill-rule="evenodd" style="fill: #6B0E12; stroke: #fff; opacity: 1;" id="p-type-functions"></path><path d="M104.61572459119232,277.96501608702454A297,297,0,0,1,103.16761940136642,278.5057311924744L89.34577924954765,241.19303831224298A257.2095449239783,257.2095449239783,0,0,0,90.59987513128895,240.72476529471342Z" fill-rule="evenodd" style="fill: #6B0E12; stroke: #fff; opacity: 1;" id="p-type-functions"></path><path d="M103.16761940136642,278.5057311924744A297,297,0,0,1,101.71671963504956,279.03890221022L88.08926319357234,241.65477795817228A257.2095449239783,257.2095449239783,0,0,0,89.34577924954765,241.19303831224298Z" fill-rule="evenodd" style="fill: #6B0E12; stroke: #fff; opacity: 1;" id="p-type-functions"></path><path d="M101.71671963504956,279.03890221022A297,297,0,0,1,100.26306459382097,279.56451469786947L86.83036099952906,242.10997172502306A257.2095449239783,257.2095449239783,0,0,0,88.08926319357234,241.65477795817228Z" fill-rule="evenodd" style="fill: #6B0E12; stroke: #fff; opacity: 1;" id="p-type-functions"></path><path d="M100.26306459382097,279.56451469786947A297,297,0,0,1,98.8066936538942,280.0825544177743L85.56910676821906,242.55860728263A257.2095449239783,257.2095449239783,0,0,0,86.83036099952906,242.10997172502306Z" fill-rule="evenodd" style="fill: #6B0E12; stroke: #fff; opacity: 1;" id="p-type-functions"></path><path d="M98.8066936538942,280.0825544177743A297,297,0,0,1,97.34764626505019,280.5930073374151L84.30553466415479,243.00067247847485A257.2095449239783,257.2095449239783,0,0,0,85.56910676821906,242.55860728263Z" fill-rule="evenodd" style="fill: #6B0E12; stroke: #fff; opacity: 1;" id="p-type-functions"></path><path d="M97.34764626505019,280.5930073374151A297,297,0,0,1,95.88596194956885,281.0958596297815L83.03967891463469,243.43615533801545A257.2095449239783,257.2095449239783,0,0,0,84.30553466415479,243.00067247847485Z" fill-rule="evenodd" style="fill: #6B0E12; stroke: #fff; opacity: 1;" id="p-type-functions"></path><path d="M95.88596194956885,281.0958596297815A297,297,0,0,1,94.4216803011585,281.59109767374713L81.77157380881597,243.86504406501018A257.2095449239783,257.2095449239783,0,0,0,83.03967891463469,243.43615533801545Z" fill-rule="evenodd" style="fill: #6B0E12; stroke: #fff; opacity: 1;" id="p-type-functions"></path><path d="M94.4216803011585,281.59109767374713A297,297,0,0,1,92.95484098388322,282.0787080544382L80.50125369678575,244.28732704183764A257.2095449239783,257.2095449239783,0,0,0,81.77157380881597,243.86504406501018Z" fill-rule="evenodd" style="fill: #6B0E12; stroke: #fff; opacity: 1;" id="p-type-functions"></path><path d="M92.95484098388322,282.0787080544382A297,297,0,0,1,91.48548373108856,282.5586775635969L79.22875298863066,244.70299282981102A257.2095449239783,257.2095449239783,0,0,0,80.50125369678575,244.28732704183764Z" fill-rule="evenodd" style="fill: #6B0E12; stroke: #fff; opacity: 1;" id="p-type-functions"></path><path d="M91.48548373108856,282.5586775635969A297,297,0,0,1,90.01364834432526,283.0309931999394L77.95410615350475,245.11203016948826A257.2095449239783,257.2095449239783,0,0,0,79.22875298863066,244.70299282981102Z" fill-rule="evenodd" style="fill: #6B0E12; stroke: #fff; opacity: 1;" id="p-type-functions"></path><path d="M90.01364834432526,283.0309931999394A297,297,0,0,1,88.53937469227104,283.49564216950785L76.67734771869574,245.51442798097676A257.2095449239783,257.2095449239783,0,0,0,77.95410615350475,245.11203016948826Z" fill-rule="evenodd" style="fill: #6B0E12; stroke: #fff; opacity: 1;" id="p-type-functions"></path><path d="M88.53937469227104,283.49564216950785A297,297,0,0,1,87.0627027096507,283.95261188601694L75.39851226868979,245.91017536423385A257.2095449239783,257.2095449239783,0,0,0,76.67734771869574,245.51442798097676Z" fill-rule="evenodd" style="fill: #6B0E12; stroke: #fff; opacity: 1;" id="p-type-functions"></path><path d="M87.0627027096507,283.95261188601694A297,297,0,0,1,85.58367239615438,284.40188997119503L74.11763444423472,246.29926159936167A257.2095449239783,257.2095449239783,0,0,0,75.39851226868979,245.91017536423385Z" fill-rule="evenodd" style="fill: #6B0E12; stroke: #fff; opacity: 1;" id="p-type-functions"></path><path d="M85.58367239615438,284.40188997119503A297,297,0,0,1,84.10232381535404,284.84346425511916L72.8347489414016,246.68167614689787A257.2095449239783,257.2095449239783,0,0,0,74.11763444423472,246.29926159936167Z" fill-rule="evenodd" style="fill: #6B0E12; stroke: #fff; opacity: 1;" id="p-type-functions"></path><path d="M84.10232381535404,284.84346425511916A297,297,0,0,1,82.61869709361821,285.27732277654485L71.54989051064494,247.0574086481009A257.2095449239783,257.2095449239783,0,0,0,72.8347489414016,246.68167614689787Z" fill-rule="evenodd" style="fill: #6B0E12; stroke: #fff; opacity: 1;" id="p-type-functions"></path><path d="M82.61869709361821,285.27732277654485A297,297,0,0,1,81.13283241902512,285.70345378323026L70.26309395586144,247.4264489252307A257.2095449239783,257.2095449239783,0,0,0,71.54989051064494,247.0574086481009Z" fill-rule="evenodd" style="fill: #6B0E12; stroke: #fff; opacity: 1;" id="p-type-functions"></path><path d="M81.13283241902512,285.70345378323026A297,297,0,0,1,79.64477004027407,286.1218457322542L68.97439413344712,247.7887869818243A257.2095449239783,257.2095449239783,0,0,0,70.26309395586144,247.4264489252307Z" fill-rule="evenodd" style="fill: #6B0E12; stroke: #fff; opacity: 1;" id="p-type-functions"></path><path d="M79.64477004027407,286.1218457322542A297,297,0,0,1,78.15455026559513,286.532487290329L67.68382595135324,248.14441300296676A257.2095449239783,257.2095449239783,0,0,0,68.97439413344712,247.7887869818243Z" fill-rule="evenodd" style="fill: #6B0E12; stroke: #fff; opacity: 1;" id="p-type-functions"></path><path d="M78.15455026559513,286.532487290329A297,297,0,0,1,76.66221346165734,286.93536733410764L66.39142436814063,248.4933173555568A257.2095449239783,257.2095449239783,0,0,0,67.68382595135324,248.14441300296676Z" fill-rule="evenodd" style="fill: #6B0E12; stroke: #fff; opacity: 1;" id="p-type-functions"></path><path d="M76.66221346165734,286.93536733410764A297,297,0,0,1,75.16780005247529,287.3304749504847L65.09722439203286,248.83549058856804A257.2095449239783,257.2095449239783,0,0,0,66.39142436814063,248.4933173555568Z" fill-rule="evenodd" style="fill: #6B0E12; stroke: #fff; opacity: 1;" id="p-type-functions"></path><path d="M-102.37621609230195,278.79761544644225A297,297,0,0,1,-103.8258511327187,278.261015301401L-89.91582465047573,240.9811081338637A257.2095449239783,257.2095449239783,0,0,0,-88.66040387925874,241.4458174911438Z" fill-rule="evenodd" style="fill: #184B42; stroke: #fff; opacity: 1;" id="p-type-logs"></path><path d="M-103.8258511327187,278.261015301401A297,297,0,0,1,-105.27267376664183,277.71687769745324L-91.16880980622348,240.5098711456905A257.2095449239783,257.2095449239783,0,0,0,-89.91582465047573,240.9811081338637Z" fill-rule="evenodd" style="fill: #184B42; stroke: #fff; opacity: 1;" id="p-type-logs"></path><path d="M-105.27267376664183,277.71687769745324A297,297,0,0,1,-106.71664480293228,277.1652173740507L-92.41932540597995,240.03211929136398A257.2095449239783,257.2095449239783,0,0,0,-91.16880980622348,240.5098711456905Z" fill-rule="evenodd" style="fill: #184B42; stroke: #fff; opacity: 1;" id="p-type-logs"></path><path d="M-106.71664480293228,277.1652173740507A297,297,0,0,1,-108.15772512769429,276.6060492744187L-93.66733757611777,239.54786551209676A257.2095449239783,257.2095449239783,0,0,0,-92.41932540597995,240.03211929136398Z" fill-rule="evenodd" style="fill: #184B42; stroke: #fff; opacity: 1;" id="p-type-logs"></path><path d="M-108.15772512769429,276.6060492744187A297,297,0,0,1,-109.59587570533489,276.0393885451509L-94.9128125108218,239.05712292522387A257.2095449239783,257.2095449239783,0,0,0,-93.66733757611777,239.54786551209676Z" fill-rule="evenodd" style="fill: #184B42; stroke: #fff; opacity: 1;" id="p-type-logs"></path><path d="M-109.59587570533489,276.0393885451509A297,297,0,0,1,-111.03105757962133,275.46525053579956L-96.15571647300483,238.55990482384735A257.2095449239783,257.2095449239783,0,0,0,-94.9128125108218,239.05712292522387Z" fill-rule="evenodd" style="fill: #184B42; stroke: #fff; opacity: 1;" id="p-type-logs"></path><path d="M-111.03105757962133,275.46525053579956A297,297,0,0,1,-112.4632318747363,274.88365079845926L-97.39601579522146,238.05622467647635A257.2095449239783,257.2095449239783,0,0,0,-96.15571647300483,238.55990482384735Z" fill-rule="evenodd" style="fill: #184B42; stroke: #fff; opacity: 1;" id="p-type-logs"></path><path d="M-112.4632318747363,274.88365079845926A297,297,0,0,1,-113.89235979633092,274.29460508734604L-98.63367688058005,237.54609612666198A257.2095449239783,257.2095449239783,0,0,0,-97.39601579522146,238.05622467647635Z" fill-rule="evenodd" style="fill: #184B42; stroke: #fff; opacity: 1;" id="p-type-logs"></path><path d="M-113.89235979633092,274.29460508734604A297,297,0,0,1,-115.31840263257573,273.6981293583702L-99.86866620365286,237.02953299262808A257.2095449239783,257.2095449239783,0,0,0,-98.63367688058005,237.54609612666198Z" fill-rule="evenodd" style="fill: #184B42; stroke: #fff; opacity: 1;" id="p-type-logs"></path><path d="M-115.31840263257573,273.6981293583702A297,297,0,0,1,-116.74132175520911,273.0942397687046L-101.10095031138405,236.50654926689674A257.2095449239783,257.2095449239783,0,0,0,-99.86866620365286,237.02953299262808Z" fill-rule="evenodd" style="fill: #184B42; stroke: #fff; opacity: 1;" id="p-type-logs"></path><path d="M-116.74132175520911,273.0942397687046A297,297,0,0,1,-118.16107862058392,272.4829526763467L-102.330495823996,235.97715911590925A257.2095449239783,257.2095449239783,0,0,0,-101.10095031138405,236.50654926689674Z" fill-rule="evenodd" style="fill: #184B42; stroke: #fff; opacity: 1;" id="p-type-logs"></path><path d="M-118.16107862058392,272.4829526763467A297,297,0,0,1,-119.57763477071123,271.8642846396753L-103.55726943589332,235.44137687964238A257.2095449239783,257.2095449239783,0,0,0,-102.330495823996,235.97715911590925Z" fill-rule="evenodd" style="fill: #184B42; stroke: #fff; opacity: 1;" id="p-type-logs"></path><path d="M-119.57763477071123,271.8642846396753A297,297,0,0,1,-120.99095183430227,271.23825241700246L-104.78123791656519,234.89921707122005A257.2095449239783,257.2095449239783,0,0,0,-103.55726943589332,235.44137687964238Z" fill-rule="evenodd" style="fill: #184B42; stroke: #fff; opacity: 1;" id="p-type-logs"></path><path d="M-120.99095183430227,271.23825241700246A297,297,0,0,1,-122.40099152780779,270.6048729661192L-106.0023681114854,234.35069437652012A257.2095449239783,257.2095449239783,0,0,0,-104.78123791656519,234.89921707122005Z" fill-rule="evenodd" style="fill: #184B42; stroke: #fff; opacity: 1;" id="p-type-logs"></path><path d="M-122.40099152780779,270.6048729661192A297,297,0,0,1,-123.80771565645502,269.96416344383636L-107.22062694301043,233.79582365377655A257.2095449239783,257.2095449239783,0,0,0,-106.0023681114854,234.35069437652012Z" fill-rule="evenodd" style="fill: #184B42; stroke: #fff; opacity: 1;" id="p-type-logs"></path><path d="M-123.80771565645502,269.96416344383636A297,297,0,0,1,-125.21108611528234,269.31614120551956L-108.4359814112755,233.234619933177A257.2095449239783,257.2095449239783,0,0,0,-107.22062694301043,233.79582365377655Z" fill-rule="evenodd" style="fill: #184B42; stroke: #fff; opacity: 1;" id="p-type-logs"></path><path d="M-125.21108611528234,269.31614120551956A297,297,0,0,1,-126.6110648901714,268.6608238046195L-109.64839859508847,232.66709841645553A257.2095449239783,257.2095449239783,0,0,0,-108.4359814112755,233.234619933177Z" fill-rule="evenodd" style="fill: #184B42; stroke: #fff; opacity: 1;" id="p-type-logs"></path><path d="M-126.6110648901714,268.6608238046195A297,297,0,0,1,-128.0076140588769,267.9982289921962L-110.85784565282145,232.09327447648116A257.2095449239783,257.2095449239783,0,0,0,-109.64839859508847,232.66709841645553Z" fill-rule="evenodd" style="fill: #184B42; stroke: #fff; opacity: 1;" id="p-type-logs"></path><path d="M-128.0076140588769,267.9982289921962A297,297,0,0,1,-129.40069579205374,267.32837471643813L-112.06428982330065,231.51316365684107A257.2095449239783,257.2095449239783,0,0,0,-110.85784565282145,232.09327447648116Z" fill-rule="evenodd" style="fill: #184B42; stroke: #fff; opacity: 1;" id="p-type-logs"></path><path d="M-129.40069579205374,267.32837471643813A297,297,0,0,1,-130.7902723542818,266.65127912217633L-113.2676984266936,230.9267816714198A257.2095449239783,257.2095449239783,0,0,0,-112.06428982330065,231.51316365684107Z" fill-rule="evenodd" style="fill: #184B42; stroke: #fff; opacity: 1;" id="p-type-logs"></path><path d="M-130.7902723542818,266.65127912217633A297,297,0,0,1,-132.17630610508806,265.96696055039257L-114.46803886539446,230.33414440397357A257.2095449239783,257.2095449239783,0,0,0,-113.2676984266936,230.9267816714198Z" fill-rule="evenodd" style="fill: #184B42; stroke: #fff; opacity: 1;" id="p-type-logs"></path><path d="M-132.17630610508806,265.96696055039257A297,297,0,0,1,-133.55875949996624,265.27543753772267L-115.665278624907,229.7352679076999A257.2095449239783,257.2095449239783,0,0,0,-114.46803886539446,230.33414440397357Z" fill-rule="evenodd" style="fill: #184B42; stroke: #fff; opacity: 1;" id="p-type-logs"></path><path d="M-133.55875949996624,265.27543753772267A297,297,0,0,1,-134.93759509139377,264.57672881595437L-116.85938527472538,229.13016840480282A257.2095449239783,257.2095449239783,0,0,0,-115.665278624907,229.7352679076999Z" fill-rule="evenodd" style="fill: #184B42; stroke: #fff; opacity: 1;" id="p-type-logs"></path><path d="M-134.93759509139377,264.57672881595437A297,297,0,0,1,-136.31277552984614,263.87085331152014L-118.05032646921254,228.5188622860536A257.2095449239783,257.2095449239783,0,0,0,-116.85938527472538,229.13016840480282Z" fill-rule="evenodd" style="fill: #184B42; stroke: #fff; opacity: 1;" id="p-type-logs"></path><path d="M-136.31277552984614,263.87085331152014A297,297,0,0,1,-137.68426356480862,263.15783014498413L-119.23806994847645,227.9013661103466A257.2095449239783,257.2095449239783,0,0,0,-118.05032646921254,228.5188622860536Z" fill-rule="evenodd" style="fill: #184B42; stroke: #fff; opacity: 1;" id="p-type-logs"></path><path d="M-137.68426356480862,263.15783014498413A297,297,0,0,1,-139.05202204578532,262.43767863052443L-120.4225835392439,227.27769660425068A257.2095449239783,257.2095449239783,0,0,0,-119.23806994847645,227.9013661103466Z" fill-rule="evenodd" style="fill: #184B42; stroke: #fff; opacity: 1;" id="p-type-logs"></path><path d="M-139.05202204578532,262.43767863052443A297,297,0,0,1,-140.41601392330554,261.71041827541L-121.60383515573204,226.64787066155628A257.2095449239783,257.2095449239783,0,0,0,-120.4225835392439,227.27769660425068Z" fill-rule="evenodd" style="fill: #184B42; stroke: #fff; opacity: 1;" id="p-type-logs"></path><path d="M-140.41601392330554,261.71041827541A297,297,0,0,1,-141.77620224992725,260.9760687794721L-122.78179280051748,226.01190534281773A257.2095449239783,257.2095449239783,0,0,0,-121.60383515573204,226.64787066155628Z" fill-rule="evenodd" style="fill: #184B42; stroke: #fff; opacity: 1;" id="p-type-logs"></path><path d="M-141.77620224992725,260.9760687794721A297,297,0,0,1,-143.13255018123797,260.2346500345705L-123.95642456540305,225.36981787489103A257.2095449239783,257.2095449239783,0,0,0,-122.78179280051748,226.01190534281773Z" fill-rule="evenodd" style="fill: #184B42; stroke: #fff; opacity: 1;" id="p-type-logs"></path><path d="M-143.13255018123797,260.2346500345705A297,297,0,0,1,-144.4850209768529,259.4861821240553L-125.12769863228213,224.72162565046736A257.2095449239783,257.2095449239783,0,0,0,-123.95642456540305,225.36981787489103Z" fill-rule="evenodd" style="fill: #184B42; stroke: #fff; opacity: 1;" id="p-type-logs"></path><path d="M-144.4850209768529,259.4861821240553A297,297,0,0,1,-145.83357800140993,258.73068532222203L-126.29558327400046,224.0673462276019A257.2095449239783,257.2095449239783,0,0,0,-125.12769863228213,224.72162565046736Z" fill-rule="evenodd" style="fill: #184B42; stroke: #fff; opacity: 1;" id="p-type-logs"></path><path d="M-145.83357800140993,258.73068532222203A297,297,0,0,1,-147.17818472556215,257.9681800937633L-127.46004685521565,223.40699732923818A257.2095449239783,257.2095449239783,0,0,0,-126.29558327400046,224.0673462276019Z" fill-rule="evenodd" style="fill: #184B42; stroke: #fff; opacity: 1;" id="p-type-logs"></path><path d="M-147.17818472556215,257.9681800937633A297,297,0,0,1,-148.51880472696735,257.1986870932139L-128.6210578332541,222.74059684272802A257.2095449239783,257.2095449239783,0,0,0,-127.46004685521565,223.40699732923818Z" fill-rule="evenodd" style="fill: #184B42; stroke: #fff; opacity: 1;" id="p-type-logs"></path><path d="M-148.51880472696735,257.1986870932139A297,297,0,0,1,-149.8554016912746,256.4222271643914L-129.77858475896534,222.06816281934712A257.2095449239783,257.2095449239783,0,0,0,-128.6210578332541,222.74059684272802Z" fill-rule="evenodd" style="fill: #184B42; stroke: #fff; opacity: 1;" id="p-type-logs"></path><path d="M-149.8554016912746,256.4222271643914A297,297,0,0,1,-151.18793941310778,255.63882133983182L-130.93259627757394,221.38971347380584A257.2095449239783,257.2095449239783,0,0,0,-129.77858475896534,222.06816281934712Z" fill-rule="evenodd" style="fill: #184B42; stroke: #fff; opacity: 1;" id="p-type-logs"></path><path d="M-151.18793941310778,255.63882133983182A297,297,0,0,1,-152.5163817970466,254.84849084021965L-132.0830611295289,220.70526718375604A257.2095449239783,257.2095449239783,0,0,0,-130.93259627757394,221.38971347380584Z" fill-rule="evenodd" style="fill: #184B42; stroke: #fff; opacity: 1;" id="p-type-logs"></path><path d="M-152.5163817970466,254.84849084021965A297,297,0,0,1,-153.8406928586041,254.05125707381308L-133.2299481513504,220.0148424892932A257.2095449239783,257.2095449239783,0,0,0,-132.0830611295289,220.70526718375604Z" fill-rule="evenodd" style="fill: #184B42; stroke: #fff; opacity: 1;" id="p-type-logs"></path><path d="M-153.8406928586041,254.05125707381308A297,297,0,0,1,-155.16083672520136,253.24714163586407L-134.37322627647387,219.3184580924541A257.2095449239783,257.2095449239783,0,0,0,-133.2299481513504,220.0148424892932Z" fill-rule="evenodd" style="fill: #184B42; stroke: #fff; opacity: 1;" id="p-type-logs"></path><path d="M-155.16083672520136,253.24714163586407A297,297,0,0,1,-156.4767776371395,252.4361663080336L-135.51286453609154,218.61613285671052A257.2095449239783,257.2095449239783,0,0,0,-134.37322627647387,219.3184580924541Z" fill-rule="evenodd" style="fill: #184B42; stroke: #fff; opacity: 1;" id="p-type-logs"></path><path d="M-156.4767776371395,252.4361663080336A297,297,0,0,1,-157.78847994856798,251.61835305780133L-136.64883205999138,217.90788580645784A257.2095449239783,257.2095449239783,0,0,0,-135.51286453609154,218.61613285671052Z" fill-rule="evenodd" style="fill: #184B42; stroke: #fff; opacity: 1;" id="p-type-logs"></path><path d="M-157.78847994856798,251.61835305780133A297,297,0,0,1,-159.0959081284504,250.79372403787076L-137.7810980773932,217.1937361265001A257.2095449239783,257.2095449239783,0,0,0,-136.64883205999138,217.90788580645784Z" fill-rule="evenodd" style="fill: #184B42; stroke: #fff; opacity: 1;" id="p-type-logs"></path><path d="M-159.0959081284504,250.79372403787076A297,297,0,0,1,-160.39902676152684,249.9623015855691L-138.90963191778226,216.47370316153012A257.2095449239783,257.2095449239783,0,0,0,-137.7810980773932,217.1937361265001Z" fill-rule="evenodd" style="fill: #184B42; stroke: #fff; opacity: 1;" id="p-type-logs"></path><path d="M-160.39902676152684,249.9623015855691A297,297,0,0,1,-161.6978005492732,249.12410822224223L-140.03440301173995,215.74780641560554A257.2095449239783,257.2095449239783,0,0,0,-138.90963191778226,216.47370316153012Z" fill-rule="evenodd" style="fill: #184B42; stroke: #fff; opacity: 1;" id="p-type-logs"></path><path d="M-161.6978005492732,249.12410822224223A297,297,0,0,1,-162.99219431085746,248.27916665264465L-141.155380891772,215.0160655516205A257.2095449239783,257.2095449239783,0,0,0,-140.03440301173995,215.74780641560554Z" fill-rule="evenodd" style="fill: #184B42; stroke: #fff; opacity: 1;" id="p-type-logs"></path><path d="M-162.99219431085746,248.27916665264465A297,297,0,0,1,-164.28217298409245,247.42749976432435L-142.27253519313368,214.2785003907731A257.2095449239783,257.2095449239783,0,0,0,-141.155380891772,215.0160655516205Z" fill-rule="evenodd" style="fill: #184B42; stroke: #fff; opacity: 1;" id="p-type-logs"></path><path d="M-164.28217298409245,247.42749976432435A297,297,0,0,1,-165.5677016263858,246.56913062700303L-143.38583565465223,213.5351309120283A257.2095449239783,257.2095449239783,0,0,0,-142.27253519313368,214.2785003907731Z" fill-rule="evenodd" style="fill: #184B42; stroke: #fff; opacity: 1;" id="p-type-logs"></path><path d="M-165.5677016263858,246.56913062700303A297,297,0,0,1,-166.8487454156863,245.70408249195108L-144.49525211954673,212.78597725157695A257.2095449239783,257.2095449239783,0,0,0,-143.38583565465223,213.5351309120283Z" fill-rule="evenodd" style="fill: #184B42; stroke: #fff; opacity: 1;" id="p-type-logs"></path><path d="M-166.8487454156863,245.70408249195108A297,297,0,0,1,-168.12526965142732,244.8323787913577L-145.60075453624498,212.0310597022902A257.2095449239783,257.2095449239783,0,0,0,-144.49525211954673,212.78597725157695Z" fill-rule="evenodd" style="fill: #184B42; stroke: #fff; opacity: 1;" id="p-type-logs"></path><path d="M-168.12526965142732,244.8323787913577A297,297,0,0,1,-169.39723975546653,243.95404313769632L-146.70231295919726,211.2703987131698A257.2095449239783,257.2095449239783,0,0,0,-145.60075453624498,212.0310597022902Z" fill-rule="evenodd" style="fill: #184B42; stroke: #fff; opacity: 1;" id="p-type-logs"></path><path d="M-169.39723975546653,243.95404313769632A297,297,0,0,1,-170.66462127302282,243.06909932308486L-147.79989754968787,210.5040148887944A257.2095449239783,257.2095449239783,0,0,0,-146.70231295919726,211.2703987131698Z" fill-rule="evenodd" style="fill: #184B42; stroke: #fff; opacity: 1;" id="p-type-logs"></path><path d="M-170.66462127302282,243.06909932308486A297,297,0,0,1,-171.92737987360934,242.17757131864138L-148.8934785766431,209.7319289887611A257.2095449239783,257.2095449239783,0,0,0,-147.79989754968787,210.5040148887944Z" fill-rule="evenodd" style="fill: #184B42; stroke: #fff; opacity: 1;" id="p-type-logs"></path><path d="M-171.92737987360934,242.17757131864138A297,297,0,0,1,-173.18548135196372,241.27948327383461L-149.98302641743675,208.95416192712332A257.2095449239783,257.2095449239783,0,0,0,-148.8934785766431,209.7319289887611Z" fill-rule="evenodd" style="fill: #184B42; stroke: #fff; opacity: 1;" id="p-type-logs"></path><path d="M-173.18548135196372,241.27948327383461A297,297,0,0,1,-174.4388916289743,240.3748595158299L-151.0685115586924,208.1707347718243A257.2095449239783,257.2095449239783,0,0,0,-149.98302641743675,208.95416192712332Z" fill-rule="evenodd" style="fill: #184B42; stroke: #fff; opacity: 1;" id="p-type-logs"></path><path d="M-174.4388916289743,240.3748595158299A297,297,0,0,1,-175.68757675260352,239.46372454883027L-152.149904597083,207.38166874412633A257.2095449239783,257.2095449239783,0,0,0,-151.0685115586924,208.1707347718243Z" fill-rule="evenodd" style="fill: #184B42; stroke: #fff; opacity: 1;" id="p-type-logs"></path><path d="M-175.68757675260352,239.46372454883027A297,297,0,0,1,-176.93150289880737,238.54610305341257L-153.22717624012722,206.58698521803592A257.2095449239783,257.2095449239783,0,0,0,-152.149904597083,207.38166874412633Z" fill-rule="evenodd" style="fill: #184B42; stroke: #fff; opacity: 1;" id="p-type-logs"></path><path d="M-176.93150289880737,238.54610305341257A297,297,0,0,1,-178.1706363724519,237.62201988585892L-154.30029730698305,205.7867057197249A257.2095449239783,257.2095449239783,0,0,0,-153.22717624012722,206.58698521803592Z" fill-rule="evenodd" style="fill: #184B42; stroke: #fff; opacity: 1;" id="p-type-logs"></path><path d="M-178.1706363724519,237.62201988585892A297,297,0,0,1,-179.4049436082256,236.69150007748354L-155.36923872923805,204.98085192694717A257.2095449239783,257.2095449239783,0,0,0,-154.30029730698305,205.7867057197249Z" fill-rule="evenodd" style="fill: #184B42; stroke: #fff; opacity: 1;" id="p-type-logs"></path><path d="M-179.4049436082256,236.69150007748354A297,297,0,0,1,-180.6343911715489,235.75456883395464L-156.4339715516969,204.1694456684518A257.2095449239783,257.2095449239783,0,0,0,-155.36923872923805,204.98085192694717Z" fill-rule="evenodd" style="fill: #184B42; stroke: #fff; opacity: 1;" id="p-type-logs"></path><path d="M-180.6343911715489,235.75456883395464A297,297,0,0,1,-181.85894575947975,234.81125153461153L-157.49446693316577,203.35250892339135A257.2095449239783,257.2095449239783,0,0,0,-156.4339715516969,204.1694456684518Z" fill-rule="evenodd" style="fill: #184B42; stroke: #fff; opacity: 1;" id="p-type-logs"></path><path d="M-181.85894575947975,234.81125153461153A297,297,0,0,1,-183.0785742016155,233.8615737317774L-158.5506961472334,202.5300638207268A257.2095449239783,257.2095449239783,0,0,0,-157.49446693316577,203.35250892339135Z" fill-rule="evenodd" style="fill: #184B42; stroke: #fff; opacity: 1;" id="p-type-logs"></path><path d="M-183.0785742016155,233.8615737317774A297,297,0,0,1,-184.29324346099176,232.90556115006706L-159.60263058304926,201.7021326386281A257.2095449239783,257.2095449239783,0,0,0,-158.5506961472334,202.5300638207268Z" fill-rule="evenodd" style="fill: #184B42; stroke: #fff; opacity: 1;" id="p-type-logs"></path><path d="M-184.29324346099176,232.90556115006706A297,297,0,0,1,-185.50292063497713,231.94323968568983L-160.65024174609877,200.86873780387037A257.2095449239783,257.2095449239783,0,0,0,-159.60263058304926,201.7021326386281Z" fill-rule="evenodd" style="fill: #184B42; stroke: #fff; opacity: 1;" id="p-type-logs"></path><path d="M-185.50292063497713,231.94323968568983A297,297,0,0,1,-186.70757295616446,230.9746354057487L-161.69350125897486,200.029901891227A257.2095449239783,257.2095449239783,0,0,0,-160.65024174609877,200.86873780387037Z" fill-rule="evenodd" style="fill: #184B42; stroke: #fff; opacity: 1;" id="p-type-logs"></path><path d="M-186.70757295616446,230.9746354057487A297,297,0,0,1,-187.90716779325834,229.99977454753355L-162.7323808621468,199.1856476228576A257.2095449239783,257.2095449239783,0,0,0,-161.69350125897486,200.029901891227Z" fill-rule="evenodd" style="fill: #184B42; stroke: #fff; opacity: 1;" id="p-type-logs"></path><path d="M-187.90716779325834,229.99977454753355A297,297,0,0,1,-189.10167265195926,229.01868351781093L-163.76685241472578,198.33599786769278A257.2095449239783,257.2095449239783,0,0,0,-162.7323808621468,199.1856476228576Z" fill-rule="evenodd" style="fill: #184B42; stroke: #fff; opacity: 1;" id="p-type-logs"></path><path d="M-189.10167265195926,229.01868351781093A297,297,0,0,1,-190.2910551758436,228.03138889210854L-164.79688789522686,197.48097564081465A257.2095449239783,257.2095449239783,0,0,0,-163.76685241472578,198.33599786769278Z" fill-rule="evenodd" style="fill: #184B42; stroke: #fff; opacity: 1;" id="p-type-logs"></path><path d="M-190.2910551758436,228.03138889210854A297,297,0,0,1,-191.4752831472402,227.0379174139954L-165.8224594023284,196.6206041028334A257.2095449239783,257.2095449239783,0,0,0,-164.79688789522686,197.48097564081465Z" fill-rule="evenodd" style="fill: #184B42; stroke: #fff; opacity: 1;" id="p-type-logs"></path><path d="M-257.52648608459583,147.9496838959802A297,297,0,0,1,-271.50639637202045,120.38802568810293L-235.13143654813683,104.25908855735072A257.2095449239783,257.2095449239783,0,0,0,-223.02447909659975,128.1281847357963Z" fill-rule="evenodd" style="fill: #AE497E; stroke: #fff; opacity: 1;" id="p-type-tokenTransfers"></path><path d="M-271.50639637202045,120.38802568810293A297,297,0,0,1,-272.1292869918616,118.97332121656953L-235.6708756486983,103.03391854615535A257.2095449239783,257.2095449239783,0,0,0,-235.13143654813683,104.25908855735072Z" fill-rule="evenodd" style="fill: #AE497E; stroke: #fff; opacity: 1;" id="p-type-tokenTransfers"></path><path d="M-272.1292869918616,118.97332121656953A297,297,0,0,1,-272.7448062473894,117.5553940279815L-236.20393096050393,101.80595758012147A257.2095449239783,257.2095449239783,0,0,0,-235.6708756486983,103.03391854615535Z" fill-rule="evenodd" style="fill: #AE497E; stroke: #fff; opacity: 1;" id="p-type-tokenTransfers"></path><path d="M-272.7448062473894,117.5553940279815A297,297,0,0,1,-273.3529374655854,116.13428253076594L-236.730588044296,100.57523892192266A257.2095449239783,257.2095449239783,0,0,0,-236.20393096050393,101.80595758012147Z" fill-rule="evenodd" style="fill: #AE497E; stroke: #fff; opacity: 1;" id="p-type-tokenTransfers"></path><path d="M-273.3529374655854,116.13428253076594A297,297,0,0,1,-273.9536641735559,114.71002521960563L-237.25083263413026,99.34179590893211A257.2095449239783,257.2095449239783,0,0,0,-236.730588044296,100.57523892192266Z" fill-rule="evenodd" style="fill: #AE497E; stroke: #fff; opacity: 1;" id="p-type-tokenTransfers"></path><path d="M-273.9536641735559,114.71002521960563A297,297,0,0,1,-274.5469700989789,113.28266067439628L-237.76465063776237,98.1056619523196A257.2095449239783,257.2095449239783,0,0,0,-237.25083263413026,99.34179590893211Z" fill-rule="evenodd" style="fill: #AE497E; stroke: #fff; opacity: 1;" id="p-type-tokenTransfers"></path><path d="M-274.5469700989789,113.28266067439628A297,297,0,0,1,-275.1328391705443,111.85222755920154L-238.27202813702965,96.86687053614642A257.2095449239783,257.2095449239783,0,0,0,-237.76465063776237,98.1056619523196Z" fill-rule="evenodd" style="fill: #AE497E; stroke: #fff; opacity: 1;" id="p-type-tokenTransfers"></path><path d="M-275.1328391705443,111.85222755920154A297,297,0,0,1,-275.71125551838975,110.41876462120563L-238.77295138822802,95.62545521645849A257.2095449239783,257.2095449239783,0,0,0,-238.27202813702965,96.86687053614642Z" fill-rule="evenodd" style="fill: #AE497E; stroke: #fff; opacity: 1;" id="p-type-tokenTransfers"></path><path d="M-275.71125551838975,110.41876462120563A297,297,0,0,1,-276.28220347453,108.9823106896638L-239.26740682248428,94.38144962037724A257.2095449239783,257.2095449239783,0,0,0,-238.77295138822802,95.62545521645849Z" fill-rule="evenodd" style="fill: #AE497E; stroke: #fff; opacity: 1;" id="p-type-tokenTransfers"></path><path d="M-276.28220347453,108.9823106896638A297,297,0,0,1,-276.84566757328173,107.54290467485053L-239.75538104612377,93.13488744518882A257.2095449239783,257.2095449239783,0,0,0,-239.26740682248428,94.38144962037724Z" fill-rule="evenodd" style="fill: #AE497E; stroke: #fff; opacity: 1;" id="p-type-tokenTransfers"></path><path d="M-276.84566757328173,107.54290467485053A297,297,0,0,1,-277.40163255168227,106.10058556700554L-240.23686084103312,91.88580245743135A257.2095449239783,257.2095449239783,0,0,0,-239.75538104612377,93.13488744518882Z" fill-rule="evenodd" style="fill: #AE497E; stroke: #fff; opacity: 1;" id="p-type-tokenTransfers"></path><path d="M-277.40163255168227,106.10058556700554A297,297,0,0,1,-277.950083349903,104.65539243527756L-240.71183316501816,90.63422849198014A257.2095449239783,257.2095449239783,0,0,0,-240.23686084103312,91.88580245743135Z" fill-rule="evenodd" style="fill: #AE497E; stroke: #fff; opacity: 1;" id="p-type-tokenTransfers"></path><path d="M-277.950083349903,104.65539243527756A297,297,0,0,1,-278.4910051116576,103.20736442666619L-241.18028515215747,89.3801994511313A257.2095449239783,257.2095449239783,0,0,0,-240.71183316501816,90.63422849198014Z" fill-rule="evenodd" style="fill: #AE497E; stroke: #fff; opacity: 1;" id="p-type-tokenTransfers"></path><path d="M-278.4910051116576,103.20736442666619A297,297,0,0,1,-279.02438318460406,101.75654076496136L-241.64220411315068,88.12374930368335A257.2095449239783,257.2095449239783,0,0,0,-241.18028515215747,89.3801994511313Z" fill-rule="evenodd" style="fill: #AE497E; stroke: #fff; opacity: 1;" id="p-type-tokenTransfers"></path><path d="M-279.02438318460406,101.75654076496136A297,297,0,0,1,-279.5502031207418,100.30296074968086L-242.09757753566225,86.86491208401706A257.2095449239783,257.2095449239783,0,0,0,-241.64220411315068,88.12374930368335Z" fill-rule="evenodd" style="fill: #AE497E; stroke: #fff; opacity: 1;" id="p-type-tokenTransfers"></path><path d="M-279.5502031207418,100.30296074968086A297,297,0,0,1,-280.0684506768029,98.84666375500589L-242.5463930846604,85.60372189117362A257.2095449239783,257.2095449239783,0,0,0,-242.09757753566225,86.86491208401706Z" fill-rule="evenodd" style="fill: #AE497E; stroke: #fff; opacity: 1;" id="p-type-tokenTransfers"></path><path d="M-280.0684506768029,98.84666375500589A297,297,0,0,1,-280.5791118146384,97.38768922871445L-242.98863860275137,84.34021288793086A257.2095449239783,257.2095449239783,0,0,0,-242.5463930846604,85.60372189117362Z" fill-rule="evenodd" style="fill: #AE497E; stroke: #fff; opacity: 1;" id="p-type-tokenTransfers"></path><path d="M-280.5791118146384,97.38768922871445A297,297,0,0,1,-281.08217270159764,95.92607669111275L-243.42430211050842,83.07441929987796A257.2095449239783,257.2095449239783,0,0,0,-242.98863860275137,84.34021288793086Z" fill-rule="evenodd" style="fill: #AE497E; stroke: #fff; opacity: 1;" id="p-type-tokenTransfers"></path><path d="M-281.08217270159764,95.92607669111275A297,297,0,0,1,-281.5776197109039,94.46186573396479L-243.85337180679664,81.80637541448829A257.2095449239783,257.2095449239783,0,0,0,-243.42430211050842,83.07441929987796Z" fill-rule="evenodd" style="fill: #AE497E; stroke: #fff; opacity: 1;" id="p-type-tokenTransfers"></path><path d="M-281.5776197109039,94.46186573396479A297,297,0,0,1,-282.0654394220229,92.99509601941979L-244.27583606909255,80.53611558019067A257.2095449239783,257.2095449239783,0,0,0,-243.85337180679664,81.80637541448829Z" fill-rule="evenodd" style="fill: #AE497E; stroke: #fff; opacity: 1;" id="p-type-tokenTransfers"></path><path d="M-282.0654394220229,92.99509601941979A297,297,0,0,1,-282.5456186210268,91.52580727893793L-244.69168345379873,79.26367420543893A257.2095449239783,257.2095449239783,0,0,0,-244.27583606909255,80.53611558019067Z" fill-rule="evenodd" style="fill: #AE497E; stroke: #fff; opacity: 1;" id="p-type-tokenTransfers"></path><path d="M-282.5456186210268,91.52580727893793A297,297,0,0,1,-283.01814430095146,90.0540393122141L-245.10090269655404,77.98908575777993A257.2095449239783,257.2095449239783,0,0,0,-244.69168345379873,79.26367420543893Z" fill-rule="evenodd" style="fill: #AE497E; stroke: #fff; opacity: 1;" id="p-type-tokenTransfers"></path><path d="M-283.01814430095146,90.0540393122141A297,297,0,0,1,-283.4830036621496,88.57983198609976L-245.50348271253864,76.71238476291978A257.2095449239783,257.2095449239783,0,0,0,-245.10090269655404,77.98908575777993Z" fill-rule="evenodd" style="fill: #AE497E; stroke: #fff; opacity: 1;" id="p-type-tokenTransfers"></path><path d="M-283.4830036621496,88.57983198609976A297,297,0,0,1,-283.94018411263687,87.10322523352312L-245.89941259677423,75.43360580378877A257.2095449239783,257.2095449239783,0,0,0,-245.50348271253864,76.71238476291978Z" fill-rule="evenodd" style="fill: #AE497E; stroke: #fff; opacity: 1;" id="p-type-tokenTransfers"></path><path d="M-283.94018411263687,87.10322523352312A297,297,0,0,1,-284.3896732684333,85.62425905240735L-246.28868162441952,74.15278351960445A257.2095449239783,257.2095449239783,0,0,0,-245.89941259677423,75.43360580378877Z" fill-rule="evenodd" style="fill: #AE497E; stroke: #fff; opacity: 1;" id="p-type-tokenTransfers"></path><path d="M-284.3896732684333,85.62425905240735A297,297,0,0,1,-284.83145895389845,84.14297350458723L-246.67127925106067,72.86995260493347A257.2095449239783,257.2095449239783,0,0,0,-246.28868162441952,74.15278351960445Z" fill-rule="evenodd" style="fill: #AE497E; stroke: #fff; opacity: 1;" id="p-type-tokenTransfers"></path><path d="M-284.83145895389845,84.14297350458723A297,297,0,0,1,-285.26552920206154,82.65940871472385L-247.04719511299695,71.58514780875167A257.2095449239783,257.2095449239783,0,0,0,-246.67127925106067,72.86995260493347Z" fill-rule="evenodd" style="fill: #AE497E; stroke: #fff; opacity: 1;" id="p-type-tokenTransfers"></path><path d="M-285.26552920206154,82.65940871472385A297,297,0,0,1,-285.69187225494545,81.1736048692179L-247.4164190275214,70.29840393350291A257.2095449239783,257.2095449239783,0,0,0,-247.04719511299695,71.58514780875167Z" fill-rule="evenodd" style="fill: #AE497E; stroke: #fff; opacity: 1;" id="p-type-tokenTransfers"></path><path d="M-285.69187225494545,81.1736048692179A297,297,0,0,1,-286.11047656388524,79.68560221512088L-247.77894099319687,69.00975583415622A257.2095449239783,257.2095449239783,0,0,0,-247.4164190275214,70.29840393350291Z" fill-rule="evenodd" style="fill: #AE497E; stroke: #fff; opacity: 1;" id="p-type-tokenTransfers"></path><path d="M-286.11047656388524,79.68560221512088A297,297,0,0,1,-286.5213307898409,78.1954410590451L-248.13475119012665,67.71923841726179A257.2095449239783,257.2095449239783,0,0,0,-247.77894099319687,69.00975583415622Z" fill-rule="evenodd" style="fill: #AE497E; stroke: #fff; opacity: 1;" id="p-type-tokenTransfers"></path><path d="M-286.5213307898409,78.1954410590451A297,297,0,0,1,-286.9244238037045,76.70316176607174L-248.4838399802206,66.4268866400054A257.2095449239783,257.2095449239783,0,0,0,-248.13475119012665,67.71923841726179Z" fill-rule="evenodd" style="fill: #AE497E; stroke: #fff; opacity: 1;" id="p-type-tokenTransfers"></path><path d="M-286.9244238037045,76.70316176607174A297,297,0,0,1,-287.31974468660195,75.20880475865756L-248.82619790745628,65.13273550926142A257.2095449239783,257.2095449239783,0,0,0,-248.4838399802206,66.4268866400054Z" fill-rule="evenodd" style="fill: #AE497E; stroke: #fff; opacity: 1;" id="p-type-tokenTransfers"></path><path d="M-287.31974468660195,75.20880475865756A297,297,0,0,1,-287.70728273018835,73.7124105155398L-249.16181569813503,63.836820080644664A257.2095449239783,257.2095449239783,0,0,0,-248.82619790745628,65.13273550926142Z" fill-rule="evenodd" style="fill: #AE497E; stroke: #fff; opacity: 1;" id="p-type-tokenTransfers"></path><path d="M-287.70728273018835,73.7124105155398A297,297,0,0,1,-288.0870274369383,72.21401957063988L-249.49068426113314,62.53917545756076A257.2095449239783,257.2095449239783,0,0,0,-249.16181569813503,63.836820080644664Z" fill-rule="evenodd" style="fill: #AE497E; stroke: #fff; opacity: 1;" id="p-type-tokenTransfers"></path><path d="M-288.0870274369383,72.21401957063988A297,297,0,0,1,-288.4589685204302,70.71367251196526L-249.81279468814824,61.23983679025527A257.2095449239783,257.2095449239783,0,0,0,-249.49068426113314,62.53917545756076Z" fill-rule="evenodd" style="fill: #AE497E; stroke: #fff; opacity: 1;" id="p-type-tokenTransfers"></path><path d="M-288.4589685204302,70.71367251196526A297,297,0,0,1,-288.8230959056248,69.21140998051011L-250.1281382539404,59.9388392748616A257.2095449239783,257.2095449239783,0,0,0,-249.81279468814824,61.23983679025527Z" fill-rule="evenodd" style="fill: #AE497E; stroke: #fff; opacity: 1;" id="p-type-tokenTransfers"></path><path d="M-288.8230959056248,69.21140998051011A297,297,0,0,1,-289.1793997291383,67.7072726691544L-250.43670641656863,58.63621815244754A257.2095449239783,257.2095449239783,0,0,0,-250.1281382539404,59.9388392748616Z" fill-rule="evenodd" style="fill: #AE497E; stroke: #fff; opacity: 1;" id="p-type-tokenTransfers"></path><path d="M-289.1793997291383,67.7072726691544A297,297,0,0,1,-289.5278703395095,66.20130132156167L-250.73849081762228,57.33200870806075A257.2095449239783,257.2095449239783,0,0,0,-250.43670641656863,58.63621815244754Z" fill-rule="evenodd" style="fill: #AE497E; stroke: #fff; opacity: 1;" id="p-type-tokenTransfers"></path><path d="M-289.5278703395095,66.20130132156167A297,297,0,0,1,-289.86849829746075,64.69353673107528L-251.03348328244735,56.026246269772884A257.2095449239783,257.2095449239783,0,0,0,-250.73849081762228,57.33200870806075Z" fill-rule="evenodd" style="fill: #AE497E; stroke: #fff; opacity: 1;" id="p-type-tokenTransfers"></path><path d="M-289.86849829746075,64.69353673107528A297,297,0,0,1,-290.2012743761546,63.18401973961347L-251.32167582036791,54.718966207722694A257.2095449239783,257.2095449239783,0,0,0,-251.03348328244735,56.026246269772884Z" fill-rule="evenodd" style="fill: #AE497E; stroke: #fff; opacity: 1;" id="p-type-tokenTransfers"></path><path d="M-290.2012743761546,63.18401973961347A297,297,0,0,1,-290.52618956144266,61.67279123656309L-251.60306062490272,53.41020393315794A257.2095449239783,257.2095449239783,0,0,0,-251.32167582036791,54.718966207722694Z" fill-rule="evenodd" style="fill: #AE497E; stroke: #fff; opacity: 1;" id="p-type-tokenTransfers"></path><path d="M-290.52618956144266,61.67279123656309A297,297,0,0,1,-290.84323505211063,60.159892157671905L-251.87763007397655,52.099994897476094A257.2095449239783,257.2095449239783,0,0,0,-251.60306062490272,53.41020393315794Z" fill-rule="evenodd" style="fill: #AE497E; stroke: #fff; opacity: 1;" id="p-type-tokenTransfers"></path><path d="M-290.84323505211063,60.159892157671905A297,297,0,0,1,-291.15240226011633,58.64536348393981L-252.14537673012654,50.78837459126415A257.2095449239783,257.2095449239783,0,0,0,-251.87763007397655,52.099994897476094Z" fill-rule="evenodd" style="fill: #AE497E; stroke: #fff; opacity: 1;" id="p-type-tokenTransfers"></path><path d="M-291.15240226011633,58.64536348393981A297,297,0,0,1,-291.4536828108221,57.12924624050872L-252.40629334070394,49.475378543337186A257.2095449239783,257.2095449239783,0,0,0,-252.14537673012654,50.78837459126415Z" fill-rule="evenodd" style="fill: #AE497E; stroke: #fff; opacity: 1;" id="p-type-tokenTransfers"></path><path d="M-291.4536828108221,57.12924624050872A297,297,0,0,1,-291.7470685432223,55.61158149555128L-252.6603728380704,48.161042319776016A257.2095449239783,257.2095449239783,0,0,0,-252.40629334070394,49.475378543337186Z" fill-rule="evenodd" style="fill: #AE497E; stroke: #fff; opacity: 1;" id="p-type-tokenTransfers"></path><path d="M-291.7470685432223,55.61158149555128A297,297,0,0,1,-292.03255151016367,54.092410359158464L-252.9076083397894,46.84540152296376A257.2095449239783,257.2095449239783,0,0,0,-252.6603728380704,48.161042319776016Z" fill-rule="evenodd" style="fill: #AE497E; stroke: #fff; opacity: 1;" id="p-type-tokenTransfers"></path><path d="M-292.03255151016367,54.092410359158464A297,297,0,0,1,-292.3101239785611,52.57177398222593L-253.14799314881267,45.52849179062146A257.2095449239783,257.2095449239783,0,0,0,-252.9076083397894,46.84540152296376Z" fill-rule="evenodd" style="fill: #AE497E; stroke: #fff; opacity: 1;" id="p-type-tokenTransfers"></path><path d="M-292.3101239785611,52.57177398222593A297,297,0,0,1,-292.5797784296068,51.049713555339416L-253.38152075366182,44.21034879484275A257.2095449239783,257.2095449239783,0,0,0,-253.14799314881267,45.52849179062146Z" fill-rule="evenodd" style="fill: #AE497E; stroke: #fff; opacity: 1;" id="p-type-tokenTransfers"></path><path d="M-292.5797784296068,51.049713555339416A297,297,0,0,1,-292.8415075589741,49.52627030765892L-253.60818482860432,42.89100824112757A257.2095449239783,257.2095449239783,0,0,0,-253.38152075366182,44.21034879484275Z" fill-rule="evenodd" style="fill: #AE497E; stroke: #fff; opacity: 1;" id="p-type-tokenTransfers"></path><path d="M-292.8415075589741,49.52627030765892A297,297,0,0,1,-293.0953042770155,48.0014855058019L-253.82797923382523,41.57050586741497A257.2095449239783,257.2095449239783,0,0,0,-253.60818482860432,42.89100824112757Z" fill-rule="evenodd" style="fill: #AE497E; stroke: #fff; opacity: 1;" id="p-type-tokenTransfers"></path><path d="M-293.0953042770155,48.0014855058019A297,297,0,0,1,-293.3411617089542,46.475400452725495L-254.04089801559337,40.248877443115084A257.2095449239783,257.2095449239783,0,0,0,-253.82797923382523,41.57050586741497Z" fill-rule="evenodd" style="fill: #AE497E; stroke: #fff; opacity: 1;" id="p-type-tokenTransfers"></path><path d="M-293.3411617089542,46.475400452725495A297,297,0,0,1,-293.5790731950708,44.94805648660768L-254.24693540642247,38.926158768140176A257.2095449239783,257.2095449239783,0,0,0,-254.04089801559337,40.248877443115084Z" fill-rule="evenodd" style="fill: #AE497E; stroke: #fff; opacity: 1;" id="p-type-tokenTransfers"></path><path d="M-293.5790731950708,44.94805648660768A297,297,0,0,1,-293.80903229088347,43.41949497972754L-254.44608582522756,37.60238567193495A257.2095449239783,257.2095449239783,0,0,0,-254.24693540642247,38.926158768140176Z" fill-rule="evenodd" style="fill: #AE497E; stroke: #fff; opacity: 1;" id="p-type-tokenTransfers"></path><path d="M-293.80903229088347,43.41949497972754A297,297,0,0,1,-294.0310327673227,41.88975733734454L-254.63834387747616,36.27759401250596A257.2095449239783,257.2095449239783,0,0,0,-254.44608582522756,37.60238567193495Z" fill-rule="evenodd" style="fill: #AE497E; stroke: #fff; opacity: 1;" id="p-type-tokenTransfers"></path><path d="M-294.0310327673227,41.88975733734454A297,297,0,0,1,-294.2450686108997,40.35888499657704L-254.82370435533426,34.95181967545035A257.2095449239783,257.2095449239783,0,0,0,-254.63834387747616,36.27759401250596Z" fill-rule="evenodd" style="fill: #AE497E; stroke: #fff; opacity: 1;" id="p-type-tokenTransfers"></path><path d="M-294.2450686108997,40.35888499657704A297,297,0,0,1,-294.45113402386966,38.82691942527975L-255.00216223780757,33.62509857298376A257.2095449239783,257.2095449239783,0,0,0,-254.82370435533426,34.95181967545035Z" fill-rule="evenodd" style="fill: #AE497E; stroke: #fff; opacity: 1;" id="p-type-tokenTransfers"></path></g></svg>