<svg xmlns="http://www.w3.org/2000/svg" width="600" height="600" id="block-7913352"><g id="burst-container" transform="translate(300,300)"><data type="text/json">{"number":7913352,"totalTransactions":26,"totalFunctions":74,"totalFunctionsValue":"0.38952209","totalLogs":12,"totalTokenTransfers":12,"tokens":{"0x21ab6c9fac80c59d401b37cb43f81ea9dde7fe34":"1.4048571e-7","0x174bfa6600bf90c885c7c01c7031389ed1461ab9":"0.47332314","0x89d24a6b4ccb1b6faa2625fe562bdd9a23260359":"3795","0x0000000000085d4780b73119b644ae5ecd22b376":"6.25","0x70f414b2bcc447f8e41a57c357c20e3ad1bb864d":"1190.47"},"totalEther":"10.05210669","totalEtherTxns":11,"newContracts":[],"totalNewContracts":0}</data><circle r="297" style="fill: #f9f9f9; stroke: #f9f9f9; stroke-width: 3; opacity: 1;" id="circle-base"></circle><path display="none" d="M9.093002483669097e-15,-148.5A148.5,148.5,0,1,1,-9.093002483669097e-15,148.5A148.5,148.5,0,1,1,9.093002483669097e-15,-148.5Z" fill-rule="evenodd" id="p-type-root" style="stroke: #fff; opacity: 1;"></path><path d="M1.2859447435097075e-14,-210.0107140124046A210.0107140124046,210.0107140124046,0,1,1,-184.48738803819856,-100.34392684583926L-130.45228312520416,-70.9538711235798A148.5,148.5,0,1,0,9.093002483669097e-15,-148.5Z" fill-rule="evenodd" style="fill: #4E4E4E; stroke: #fff; opacity: 1;" id="p-type-data"></path><path d="M-184.48738803819856,-100.34392684583926A210.0107140124046,210.0107140124046,0,0,1,-17.999218054077815,-209.23797014271037L-12.727369142093758,-147.95358756961886A148.5,148.5,0,0,0,-130.45228312520416,-70.9538711235798Z" fill-rule="evenodd" style="fill: #3A86AD; stroke: #fff; opacity: 1;" id="p-type-value"></path><path d="M1.5749542295064867e-14,-257.2095449239783A257.2095449239783,257.2095449239783,0,0,1,256.0427050414615,-24.472090124285508L209.05799323783955,-19.981377914634287A210.0107140124046,210.0107140124046,0,0,0,1.2859447435097075e-14,-210.0107140124046Z" fill-rule="evenodd" style="fill: #6B0E12; stroke: #fff; opacity: 1;" id="p-type-functions"></path><path d="M256.0427050414615,-24.472090124285508A257.2095449239783,257.2095449239783,0,0,1,177.72388111663625,185.93270847497422L145.11094128093916,151.81342075244805A210.0107140124046,210.0107140124046,0,0,0,209.05799323783955,-19.981377914634287Z" fill-rule="evenodd" style="fill: #F09B24; stroke: #fff; opacity: 1;" id="p-type-ether"></path><path d="M177.72388111663625,185.93270847497422A257.2095449239783,257.2095449239783,0,0,1,-24.471313270416182,256.0427792905341L-19.9807436161061,209.05805386195345A210.0107140124046,210.0107140124046,0,0,0,145.11094128093916,151.81342075244805Z" fill-rule="evenodd" style="fill: #184B42; stroke: #fff; opacity: 1;" id="p-type-logs"></path><path d="M-24.471313270416182,256.0427792905341A257.2095449239783,257.2095449239783,0,0,1,-209.72575704229854,148.9021720225557L-171.2403635575157,121.57811434912882A210.0107140124046,210.0107140124046,0,0,0,-19.9807436161061,209.05805386195345Z" fill-rule="evenodd" style="fill: #AE497E; stroke: #fff; opacity: 1;" id="p-type-tokenTransfers"></path><path d="M-225.9499823362137,-122.89570977973445A257.2095449239783,257.2095449239783,0,0,1,-145.37580650494175,-212.18535501546222L-118.69884896089559,-173.2486168930606A210.0107140124046,210.0107140124046,0,0,0,-184.48738803819856,-100.34392684583926Z" fill-rule="evenodd" style="fill: #F09B24; stroke: #fff; opacity: 1;" id="p-type-ether"></path><path d="M-145.37580650494175,-212.18535501546222A257.2095449239783,257.2095449239783,0,0,1,-43.92667291065412,-253.43085330519725L-35.86597824307965,-206.92542522528964A210.0107140124046,210.0107140124046,0,0,0,-118.69884896089559,-173.2486168930606Z" fill-rule="evenodd" style="fill: #AE497E; stroke: #fff; opacity: 1;" id="p-type-tokenTransfers"></path><path d="M1.8186004967338195e-14,-297A297,297,0,0,1,12.739093053400435,-296.7266680097642L11.032378205418649,-256.9728324767671A257.2095449239783,257.2095449239783,0,0,0,1.5749542295064867e-14,-257.2095449239783Z" fill-rule="evenodd" style="fill: #6B0E12; stroke: #fff; opacity: 1;" id="p-type-functions"></path><path d="M12.739093053400435,-296.7266680097642A297,297,0,0,1,25.45473828418748,-295.9071751392377L22.044450000790675,-256.263130832671A257.2095449239783,257.2095449239783,0,0,0,11.032378205418649,-256.9728324767671Z" fill-rule="evenodd" style="fill: #6B0E12; stroke: #fff; opacity: 1;" id="p-type-functions"></path><path d="M25.45473828418748,-295.9071751392377A297,297,0,0,1,38.12353102826652,-294.54302976294787L33.01594635244309,-255.08174628234886A257.2095449239783,257.2095449239783,0,0,0,22.044450000790675,-256.263130832671Z" fill-rule="evenodd" style="fill: #6B0E12; stroke: #fff; opacity: 1;" id="p-type-functions"></path><path d="M38.12353102826652,-294.54302976294787A297,297,0,0,1,50.72215285914163,-292.63674275342436L43.92667291065415,-253.43085330519725A257.2095449239783,257.2095449239783,0,0,0,33.01594635244309,-255.08174628234886Z" fill-rule="evenodd" style="fill: #6B0E12; stroke: #fff; opacity: 1;" id="p-type-functions"></path><path d="M50.72215285914163,-292.63674275342436A297,297,0,0,1,63.22741450826567,-290.19182285963876L54.75654717976685,-251.31349056696095A257.2095449239783,257.2095449239783,0,0,0,43.92667291065415,-253.43085330519725Z" fill-rule="evenodd" style="fill: #6B0E12; stroke: #fff; opacity: 1;" id="p-type-functions"></path><path d="M63.22741450826567,-290.19182285963876A297,297,0,0,1,75.61629854765906,-287.2127702487327L65.48563548242109,-248.73355532670593A257.2095449239783,257.2095449239783,0,0,0,54.75654717976685,-251.31349056696095Z" fill-rule="evenodd" style="fill: #6B0E12; stroke: #fff; opacity: 1;" id="p-type-functions"></path><path d="M75.61629854765906,-287.2127702487327A297,297,0,0,1,87.86600175623556,-283.70506822292265L76.0941896498681,-245.69579626344833A257.2095449239783,257.2095449239783,0,0,0,65.48563548242109,-248.73355532670593Z" fill-rule="evenodd" style="fill: #6B0E12; stroke: #fff; opacity: 1;" id="p-type-functions"></path><path d="M87.86600175623556,-283.70506822292265A297,297,0,0,1,99.95397709185518,-279.6751731268274L86.56268337083442,-242.2058047356435A257.2095449239783,257.2095449239783,0,0,0,76.0941896498681,-245.69579626344833Z" fill-rule="evenodd" style="fill: #6B0E12; stroke: #fff; opacity: 1;" id="p-type-functions"></path><path d="M99.95397709185518,-279.6751731268274A297,297,0,0,1,111.85797519184852,-275.1305024637941L96.87184813203034,-238.27000448962278A257.2095449239783,257.2095449239783,0,0,0,86.56268337083442,-242.2058047356435Z" fill-rule="evenodd" style="fill: #6B0E12; stroke: #fff; opacity: 1;" id="p-type-functions"></path><path d="M111.85797519184852,-275.1305024637941A297,297,0,0,1,123.5560853256268,-270.0794212430974L107.0027086841505,-233.8956398359209A257.2095449239783,257.2095449239783,0,0,0,96.87184813203034,-238.27000448962278Z" fill-rule="evenodd" style="fill: #6B0E12; stroke: #fff; opacity: 1;" id="p-type-functions"></path><path d="M123.5560853256268,-270.0794212430974A297,297,0,0,1,135.02677572399907,-264.53122658314055L116.93661796808713,-229.09076231525714A257.2095449239783,257.2095449239783,0,0,0,107.0027086841505,-233.8956398359209Z" fill-rule="evenodd" style="fill: #6B0E12; stroke: #fff; opacity: 1;" id="p-type-functions"></path><path d="M135.02677572399907,-264.53122658314055A297,297,0,0,1,146.24893321096542,-258.49613059899866L126.65529143706974,-223.8642158787128A257.2095449239783,257.2095449239783,0,0,0,116.93661796808713,-229.09076231525714Z" fill-rule="evenodd" style="fill: #6B0E12; stroke: #fff; opacity: 1;" id="p-type-functions"></path><path d="M146.24893321096542,-258.49613059899866A297,297,0,0,1,157.2019020650401,-251.9852416058003L136.14084071155813,-218.22562060938253A257.2095449239783,257.2095449239783,0,0,0,126.65529143706974,-223.8642158787128Z" fill-rule="evenodd" style="fill: #6B0E12; stroke: #fff; opacity: 1;" id="p-type-functions"></path><path d="M157.2019020650401,-251.9852416058003A297,297,0,0,1,167.86552203857403,-245.0105436725469L145.37580650494166,-212.18535501546228A257.2095449239783,257.2095449239783,0,0,0,136.14084071155813,-218.22562060938253Z" fill-rule="evenodd" style="fill: #6B0E12; stroke: #fff; opacity: 1;" id="p-type-functions"></path><path d="M167.86552203857403,-245.0105436725469A297,297,0,0,1,178.22016546509937,-237.5848745640021L154.34319075944214,-205.7545369273651A257.2095449239783,257.2095449239783,0,0,0,145.37580650494166,-212.18535501546228Z" fill-rule="evenodd" style="fill: #6B0E12; stroke: #fff; opacity: 1;" id="p-type-functions"></path><path d="M178.22016546509937,-237.5848745640021A297,297,0,0,1,180.24974110683948,-236.04878909013144L156.1008548240912,-204.42424788460886A257.2095449239783,257.2095449239783,0,0,0,154.34319075944214,-205.7545369273651Z" fill-rule="evenodd" style="fill: #6B0E12; stroke: #fff; opacity: 1;" id="p-type-functions"></path><path d="M180.24974110683948,-236.04878909013144A297,297,0,0,1,181.56355038754168,-235.03973530165194L157.23864703690708,-203.55038167000072A257.2095449239783,257.2095449239783,0,0,0,156.1008548240912,-204.42424788460886Z" fill-rule="evenodd" style="fill: #6B0E12; stroke: #fff; opacity: 1;" id="p-type-functions"></path><path d="M295.6526493594555,-28.25793564177804A297,297,0,0,1,292.4183964186304,51.96615664022807L253.24175983244245,45.0040117874789A257.2095449239783,257.2095449239783,0,0,0,256.0427050414615,-24.472090124285508Z" fill-rule="evenodd" style="fill: #F09B24; stroke: #fff; opacity: 1;" id="p-type-ether"></path><path d="M292.4183964186304,51.96615664022807A297,297,0,0,1,286.7231110532135,77.45229233513108L248.30949802418965,67.07565274356227A257.2095449239783,257.2095449239783,0,0,0,253.24175983244245,45.0040117874789Z" fill-rule="evenodd" style="fill: #F09B24; stroke: #fff; opacity: 1;" id="p-type-ether"></path><path d="M286.7231110532135,77.45229233513108A297,297,0,0,1,283.4432611367923,88.7069203396228L245.46906467596864,76.82244650559586A257.2095449239783,257.2095449239783,0,0,0,248.30949802418965,67.07565274356227Z" fill-rule="evenodd" style="fill: #F09B24; stroke: #fff; opacity: 1;" id="p-type-ether"></path><path d="M283.4432611367923,88.7069203396228A297,297,0,0,1,282.04298684520114,93.06316979040477L244.25639156718444,80.59506919519507A257.2095449239783,257.2095449239783,0,0,0,245.46906467596864,76.82244650559586Z" fill-rule="evenodd" style="fill: #F09B24; stroke: #fff; opacity: 1;" id="p-type-ether"></path><path d="M282.04298684520114,93.06316979040477A297,297,0,0,1,281.23507067229576,95.47688214404997L243.55671563732008,82.68540541088014A257.2095449239783,257.2095449239783,0,0,0,244.25639156718444,80.59506919519507Z" fill-rule="evenodd" style="fill: #F09B24; stroke: #fff; opacity: 1;" id="p-type-ether"></path><path d="M281.23507067229576,95.47688214404997A297,297,0,0,1,280.69815293917486,97.04404637346701L243.091731240695,84.04260944545756A257.2095449239783,257.2095449239783,0,0,0,243.55671563732008,82.68540541088014Z" fill-rule="evenodd" style="fill: #F09B24; stroke: #fff; opacity: 1;" id="p-type-ether"></path><path d="M205.21786120822998,214.69659857836513A297,297,0,0,1,195.8201085012457,223.30133252302898L169.58518853390387,193.38462666385936A257.2095449239783,257.2095449239783,0,0,0,177.72388111663625,185.93270847497422Z" fill-rule="evenodd" style="fill: #184B42; stroke: #fff; opacity: 1;" id="p-type-logs"></path><path d="M195.8201085012457,223.30133252302898A297,297,0,0,1,186.06192549133317,231.49505368896672L161.13435415254196,200.48059734508772A257.2095449239783,257.2095449239783,0,0,0,169.58518853390387,193.38462666385936Z" fill-rule="evenodd" style="fill: #184B42; stroke: #fff; opacity: 1;" id="p-type-logs"></path><path d="M186.06192549133317,231.49505368896672A297,297,0,0,1,175.9612732800627,239.26268055352693L152.38693274279026,207.20755953691534A257.2095449239783,257.2095449239783,0,0,0,161.13435415254196,200.48059734508772Z" fill-rule="evenodd" style="fill: #184B42; stroke: #fff; opacity: 1;" id="p-type-logs"></path><path d="M175.9612732800627,239.26268055352693A297,297,0,0,1,165.53674332448205,246.58991587152255L143.35902497874554,213.55313146180606A257.2095449239783,257.2095449239783,0,0,0,152.38693274279026,207.20755953691534Z" fill-rule="evenodd" style="fill: #184B42; stroke: #fff; opacity: 1;" id="p-type-logs"></path><path d="M165.53674332448205,246.58991587152255A297,297,0,0,1,154.8075232173186,253.4632729910181L134.06724780314718,219.50563333657186A257.2095449239783,257.2095449239783,0,0,0,143.35902497874554,213.55313146180606Z" fill-rule="evenodd" style="fill: #184B42; stroke: #fff; opacity: 1;" id="p-type-logs"></path><path d="M154.8075232173186,253.4632729910181A297,297,0,0,1,143.79336136992302,259.8701006771243L124.52870384190928,225.05410887040932A257.2095449239783,257.2095449239783,0,0,0,134.06724780314718,219.50563333657186Z" fill-rule="evenodd" style="fill: #184B42; stroke: #fff; opacity: 1;" id="p-type-logs"></path><path d="M143.79336136992302,259.8701006771243A297,297,0,0,1,132.51453066295883,265.79860639810687L114.76094992469432,230.18834543126158A257.2095449239783,257.2095449239783,0,0,0,124.52870384190928,225.05410887040932Z" fill-rule="evenodd" style="fill: #184B42; stroke: #fff; opacity: 1;" id="p-type-logs"></path><path d="M132.51453066295883,265.79860639810687A297,297,0,0,1,120.99179113174365,271.23787803095L104.78196476947076,234.8988928433878A257.2095449239783,257.2095449239783,0,0,0,114.76094992469432,230.18834543126158Z" fill-rule="evenodd" style="fill: #184B42; stroke: #fff; opacity: 1;" id="p-type-logs"></path><path d="M120.99179113174365,271.23787803095A297,297,0,0,1,109.24635175492418,276.17790394642253L94.61011589053503,239.17708078154047A257.2095449239783,257.2095449239783,0,0,0,104.78196476947076,234.8988928433878Z" fill-rule="evenodd" style="fill: #184B42; stroke: #fff; opacity: 1;" id="p-type-logs"></path><path d="M109.24635175492418,276.17790394642253A297,297,0,0,1,97.29983141681734,280.60959143667725L84.26412579090704,243.01503472973477A257.2095449239783,257.2095449239783,0,0,0,94.61011589053503,239.17708078154047Z" fill-rule="evenodd" style="fill: #184B42; stroke: #fff; opacity: 1;" id="p-type-logs"></path><path d="M-28.257038608196886,295.6527350948996A297,297,0,0,1,-40.91233878080739,294.16862602168237L-35.431124712414466,254.75750313114102A257.2095449239783,257.2095449239783,0,0,0,-24.471313270416182,256.0427792905341Z" fill-rule="evenodd" style="fill: #AE497E; stroke: #fff; opacity: 1;" id="p-type-tokenTransfers"></path><path d="M-40.91233878080739,294.16862602168237A297,297,0,0,1,-53.49233490638651,292.14306445004473L-46.3257209366758,253.0033153531733A257.2095449239783,257.2095449239783,0,0,0,-35.431124712414466,254.75750313114102Z" fill-rule="evenodd" style="fill: #AE497E; stroke: #fff; opacity: 1;" id="p-type-tokenTransfers"></path><path d="M-53.49233490638651,292.14306445004473A297,297,0,0,1,-65.97387199922271,289.57977866803856L-57.13504913734972,250.78344474879646A257.2095449239783,257.2095449239783,0,0,0,-46.3257209366758,253.0033153531733Z" fill-rule="evenodd" style="fill: #AE497E; stroke: #fff; opacity: 1;" id="p-type-tokenTransfers"></path><path d="M-65.97387199922271,289.57977866803856A297,297,0,0,1,-78.3339762992164,286.48348670936304L-67.83921345456953,248.10197725505A257.2095449239783,257.2095449239783,0,0,0,-57.13504913734972,250.78344474879646Z" fill-rule="evenodd" style="fill: #AE497E; stroke: #fff; opacity: 1;" id="p-type-tokenTransfers"></path><path d="M-78.3339762992164,286.48348670936304A297,297,0,0,1,-90.54989755782995,282.8598876692602L-78.41851159515925,244.96384843319203A257.2095449239783,257.2095449239783,0,0,0,-67.83921345456953,248.10197725505Z" fill-rule="evenodd" style="fill: #AE497E; stroke: #fff; opacity: 1;" id="p-type-tokenTransfers"></path><path d="M-90.54989755782995,282.8598876692602A297,297,0,0,1,-102.59915091263792,278.7156512146488L-88.85347109705782,241.37483438420898A257.2095449239783,257.2095449239783,0,0,0,-78.41851159515925,244.96384843319203Z" fill-rule="evenodd" style="fill: #AE497E; stroke: #fff; opacity: 1;" id="p-type-tokenTransfers"></path><path d="M-102.59915091263792,278.7156512146488A297,297,0,0,1,-114.4595582734024,274.05840530780586L-99.12488517071179,237.34154111721193A257.2095449239783,257.2095449239783,0,0,0,-88.85347109705782,241.37483438420898Z" fill-rule="evenodd" style="fill: #AE497E; stroke: #fff; opacity: 1;" id="p-type-tokenTransfers"></path><path d="M-114.4595582734024,274.05840530780586A297,297,0,0,1,-126.10928914349762,268.896722166191L-109.21384805146604,232.87139239028758A257.2095449239783,257.2095449239783,0,0,0,-99.12488517071179,237.34154111721193Z" fill-rule="evenodd" style="fill: #AE497E; stroke: #fff; opacity: 1;" id="p-type-tokenTransfers"></path><path d="M-126.10928914349762,268.896722166191A297,297,0,0,1,-137.52690080154696,263.2401024842557L-119.10178979788213,227.97261604618458A257.2095449239783,257.2095449239783,0,0,0,-109.21384805146604,232.87139239028758Z" fill-rule="evenodd" style="fill: #AE497E; stroke: #fff; opacity: 1;" id="p-type-tokenTransfers"></path><path d="M-137.52690080154696,263.2401024842557A297,297,0,0,1,-148.6913777693131,257.09895794628073L-128.77051047193387,222.65422886798618A257.2095449239783,257.2095449239783,0,0,0,-119.10178979788213,227.97261604618458Z" fill-rule="evenodd" style="fill: #AE497E; stroke: #fff; opacity: 1;" id="p-type-tokenTransfers"></path></g></svg>