<svg xmlns="http://www.w3.org/2000/svg" width="600" height="600" id="block-7913338"><g id="burst-container" transform="translate(300,300)"><data type="text/json">{"number":7913338,"totalTransactions":173,"totalFunctions":495,"totalFunctionsValue":"171.943510554177434966","totalLogs":89,"totalTokenTransfers":89,"tokens":{"0xaec2e87e0a235266d9c5adc9deb4b2e29b54d009":"2.6e-17","0x174bfa6600bf90c885c7c01c7031389ed1461ab9":"38.35786013","0xf3586684107ce0859c44aa2b2e0fb8cd8731a15a":"2.6e-8","0xc05d14442a510de4d3d71a3d316585aa0ce32b50":"200","0x4f5f2eea4ed3485e5e23a39704d5fd9d0a423886":"200000","0xa0b86991c6218b36c1d19d4a2e9eb0ce3606eb48":"5e-10","0x93f1bf08e8377fc75d04dd2b930e1982f2ec507b":"284.05","0x8e766f57f7d16ca50b4a0b90b88f6468a09b0439":"226.4416","0x1c95b093d6c236d3ef7c796fe33f9cc6b8606714":"1e-18","0xd8a8843b0a5aba6b030e92b3f4d669fad8a5be50":"1.9e-7","0xc0223d4411440a5d7d4083e2ebbf6f2a27ac8d9f":"5e-8","0x89d24a6b4ccb1b6faa2625fe562bdd9a23260359":"8878.342033731786682894","0x0000000000085d4780b73119b644ae5ecd22b376":"2000","0x6f259637dcd74c767781e37bc6133cd6a68aa161":"4038.7951","0x931abd3732f7eada74190c8f89b46f8ba7103d54":"1588","0x386cabc0b14a507a4e024dea15554342865b20de":"57690","0x06012c8cf97bead5deae237070f9587f8e7a266d":"1.614592e-12","0xcafe27178308351a12fffffdeb161d9d730da082":"1000","0xc3a02bf6da4ad9111e6e2b7404bc7e375f7b6311":"2.0097e-11","0xf651da6419c6a1a4b09f843ecaa7506a4db3f2c9":"3.33","0x5f53f7a8075614b699baad0bc2c899f4bad8fbbf":"1469.585099999999950848","0x8c9b261faef3b3c2e64ab5e58e04615f8c788099":"1.91544e-13","0x498d99de4268cebca264887f591c4ba8fac042e4":"2100","0x05f4a42e251f2d52b8ed15e9fedaacfcef1fad27":"0.00445","0x04abeda201850ac0124161f037efd70c74ddc74c":"1368.495408923221061591","0x05f02507c7134dbae420ab8c0ef56e999b59da03":"5.6087e-14","0x8207c1ffc5b6804f6024322ccf34f29c3541ae26":"125","0x157ad40f43e26e72909f16bb07f2ca97466df849":"4.3747e-14"},"totalEther":"41.803340391992731258","totalEtherTxns":105,"newContracts":["0xea5ea003307ef7b6a8babdb2c70ad793f5604c8f","0x900e1d41d4b3996b5d5b393f1af0ebafd3187b12","0x4c731d09b9ed7523251615a869d3008d27d6d426"],"totalNewContracts":3}</data><circle r="297" style="fill: #f9f9f9; stroke: #f9f9f9; stroke-width: 3; opacity: 1;" id="circle-base"></circle><path display="none" d="M9.093002483669097e-15,-148.5A148.5,148.5,0,1,1,-9.093002483669097e-15,148.5A148.5,148.5,0,1,1,9.093002483669097e-15,-148.5Z" fill-rule="evenodd" id="p-type-root" style="stroke: #fff; opacity: 1;"></path><path d="M1.2859447435097075e-14,-210.0107140124046A210.0107140124046,210.0107140124046,0,1,1,-185.84068554517117,-97.81482298762701L-131.40920896934736,-69.16552463511285A148.5,148.5,0,1,0,9.093002483669097e-15,-148.5Z" fill-rule="evenodd" style="fill: #4E4E4E; stroke: #fff; opacity: 1;" id="p-type-data"></path><path d="M-185.84068554517117,-97.81482298762701A210.0107140124046,210.0107140124046,0,0,1,-2.683868344944974,-209.99356383162555L-1.8977815065225072,-148.48787299087255A148.5,148.5,0,0,0,-131.40920896934736,-69.16552463511285Z" fill-rule="evenodd" style="fill: #3A86AD; stroke: #fff; opacity: 1;" id="p-type-value"></path><path d="M1.5749542295064867e-14,-257.2095449239783A257.2095449239783,257.2095449239783,0,0,1,255.78943424657933,-26.9910230968534L208.8511984997694,-22.038078074322083A210.0107140124046,210.0107140124046,0,0,0,1.2859447435097075e-14,-210.0107140124046Z" fill-rule="evenodd" style="fill: #6B0E12; stroke: #fff; opacity: 1;" id="p-type-functions"></path><path d="M255.78943424657933,-26.9910230968534A257.2095449239783,257.2095449239783,0,0,1,173.02505465566472,190.31311163817443L141.27436554118316,155.39000495828603A210.0107140124046,210.0107140124046,0,0,0,208.8511984997694,-22.038078074322083Z" fill-rule="evenodd" style="fill: #F09B24; stroke: #fff; opacity: 1;" id="p-type-ether"></path><path d="M173.02505465566472,190.31311163817443A257.2095449239783,257.2095449239783,0,0,1,-46.63221486785617,252.94700341478273L-38.07504400069163,206.53036344408392A210.0107140124046,210.0107140124046,0,0,0,141.27436554118316,155.39000495828603Z" fill-rule="evenodd" style="fill: #184B42; stroke: #fff; opacity: 1;" id="p-type-logs"></path><path d="M-46.63221486785617,252.94700341478273A257.2095449239783,257.2095449239783,0,0,1,-209.19114742897028,149.65230982965423L-170.8038566361021,122.19059930384938A210.0107140124046,210.0107140124046,0,0,0,-38.07504400069163,206.53036344408392Z" fill-rule="evenodd" style="fill: #AE497E; stroke: #fff; opacity: 1;" id="p-type-tokenTransfers"></path><path d="M-227.60742651734543,-119.79820280017229A257.2095449239783,257.2095449239783,0,0,1,-103.78683715381327,-235.34026946871597L-84.74159768139121,-192.1545253758163A210.0107140124046,210.0107140124046,0,0,0,-185.84068554517117,-97.81482298762701Z" fill-rule="evenodd" style="fill: #F09B24; stroke: #fff; opacity: 1;" id="p-type-ether"></path><path d="M-103.78683715381327,-235.34026946871597A257.2095449239783,257.2095449239783,0,0,1,-6.573571118168911,-257.1255299707798L-5.367298342470165,-209.94211609037123A210.0107140124046,210.0107140124046,0,0,0,-84.74159768139121,-192.1545253758163Z" fill-rule="evenodd" style="fill: #AE497E; stroke: #fff; opacity: 1;" id="p-type-tokenTransfers"></path><path d="M1.8186004967338195e-14,-297A297,297,0,0,1,4.67460413773745,-296.96320997078993L4.048325935916483,-257.1776838240764A257.2095449239783,257.2095449239783,0,0,0,1.5749542295064867e-14,-257.2095449239783Z" fill-rule="evenodd" style="fill: #6B0E12; stroke: #fff; opacity: 1;" id="p-type-functions"></path><path d="M4.67460413773745,-296.96320997078993A297,297,0,0,1,6.676957495304729,-296.92493704403796L5.782414810922812,-257.14453849723196A257.2095449239783,257.2095449239783,0,0,0,4.048325935916483,-257.1776838240764Z" fill-rule="evenodd" style="fill: #6B0E12; stroke: #fff; opacity: 1;" id="p-type-functions"></path><path d="M6.676957495304729,-296.92493704403796A297,297,0,0,1,8.574161780903522,-296.8762094708077L7.4254419184200735,-257.10233918094985A257.2095449239783,257.2095449239783,0,0,0,5.782414810922812,-257.14453849723196Z" fill-rule="evenodd" style="fill: #6B0E12; stroke: #fff; opacity: 1;" id="p-type-functions"></path><path d="M8.574161780903522,-296.8762094708077A297,297,0,0,1,10.471015965493535,-296.8153598192829L9.068165829549843,-257.04964183691794A257.2095449239783,257.2095449239783,0,0,0,7.4254419184200735,-257.10233918094985Z" fill-rule="evenodd" style="fill: #6B0E12; stroke: #fff; opacity: 1;" id="p-type-functions"></path><path d="M10.471015965493535,-296.8153598192829A297,297,0,0,1,12.367442596539991,-296.74239057408244L10.710519468449412,-256.9864486168794A257.2095449239783,257.2095449239783,0,0,0,9.068165829549843,-257.04964183691794Z" fill-rule="evenodd" style="fill: #6B0E12; stroke: #fff; opacity: 1;" id="p-type-functions"></path><path d="M12.367442596539991,-296.74239057408244A297,297,0,0,1,14.263364238966018,-296.6573047146936L12.352435774375067,-256.9127621011458A257.2095449239783,257.2095449239783,0,0,0,10.710519468449412,-256.9864486168794Z" fill-rule="evenodd" style="fill: #6B0E12; stroke: #fff; opacity: 1;" id="p-type-functions"></path><path d="M14.263364238966018,-296.6573047146936A297,297,0,0,1,16.15870347831449,-296.5601057153506L13.99384770444032,-256.82858529849227A257.2095449239783,257.2095449239783,0,0,0,12.352435774375067,-256.9127621011458Z" fill-rule="evenodd" style="fill: #6B0E12; stroke: #fff; opacity: 1;" id="p-type-functions"></path><path d="M16.15870347831449,-296.5601057153506A297,297,0,0,1,18.05338292390902,-296.4507975448923L15.634688236353398,-256.7339216460342A257.2095449239783,257.2095449239783,0,0,0,13.99384770444032,-256.82858529849227Z" fill-rule="evenodd" style="fill: #6B0E12; stroke: #fff; opacity: 1;" id="p-type-functions"></path><path d="M18.05338292390902,-296.4507975448923A297,297,0,0,1,19.947325212013983,-296.3293846666006L17.274890371153923,-256.62877500908706A257.2095449239783,257.2095449239783,0,0,0,15.634688236353398,-256.7339216460342Z" fill-rule="evenodd" style="fill: #6B0E12; stroke: #fff; opacity: 1;" id="p-type-functions"></path><path d="M19.947325212013983,-296.3293846666006A297,297,0,0,1,21.840453008993443,-296.195872038018L18.914387135948605,-256.5131496810085A257.2095449239783,257.2095449239783,0,0,0,17.274890371153923,-256.62877500908706Z" fill-rule="evenodd" style="fill: #6B0E12; stroke: #fff; opacity: 1;" id="p-type-functions"></path><path d="M21.840453008993443,-296.195872038018A297,297,0,0,1,23.732689014468843,-296.0502651107452L20.55311158664589,-256.3870503830232A257.2095449239783,257.2095449239783,0,0,0,18.914387135948605,-256.5131496810085Z" fill-rule="evenodd" style="fill: #6B0E12; stroke: #fff; opacity: 1;" id="p-type-functions"></path><path d="M23.732689014468843,-296.0502651107452A297,297,0,0,1,25.623955964475343,-295.8925698302183L22.190996810689434,-256.25048226403004A257.2095449239783,257.2095449239783,0,0,0,20.55311158664589,-256.3870503830232Z" fill-rule="evenodd" style="fill: #6B0E12; stroke: #fff; opacity: 1;" id="p-type-functions"></path><path d="M25.623955964475343,-295.8925698302183A297,297,0,0,1,27.514176634616668,-295.7227926354665L23.82797592979027,-256.1034509003917A257.2095449239783,257.2095449239783,0,0,0,22.190996810689434,-256.25048226403004Z" fill-rule="evenodd" style="fill: #6B0E12; stroke: #fff; opacity: 1;" id="p-type-functions"></path><path d="M27.514176634616668,-295.7227926354665A297,297,0,0,1,29.403273843218354,-295.54094045884864L25.4639821026576,-255.94596229570715A257.2095449239783,257.2095449239783,0,0,0,23.82797592979027,-256.1034509003917Z" fill-rule="evenodd" style="fill: #6B0E12; stroke: #fff; opacity: 1;" id="p-type-functions"></path><path d="M29.403273843218354,-295.54094045884864A297,297,0,0,1,31.291170454479218,-295.3470207257705L27.098948527728062,-255.7780228805664A257.2095449239783,257.2095449239783,0,0,0,25.4639821026576,-255.94596229570715Z" fill-rule="evenodd" style="fill: #6B0E12; stroke: #fff; opacity: 1;" id="p-type-functions"></path><path d="M31.291170454479218,-295.3470207257705A297,297,0,0,1,33.17778938162099,-295.1410413543816L28.732808445893383,-255.59963951228804A257.2095449239783,257.2095449239783,0,0,0,27.098948527728062,-255.7780228805664Z" fill-rule="evenodd" style="fill: #6B0E12; stroke: #fff; opacity: 1;" id="p-type-functions"></path><path d="M33.17778938162099,-295.1410413543816A297,297,0,0,1,35.06305359003591,-294.92301075525165L30.365495143226266,-255.41081947463917A257.2095449239783,257.2095449239783,0,0,0,28.732808445893383,-255.59963951228804Z" fill-rule="evenodd" style="fill: #6B0E12; stroke: #fff; opacity: 1;" id="p-type-functions"></path><path d="M35.06305359003591,-294.92301075525165A297,297,0,0,1,36.94688610043225,-294.6929378310272L31.996941953704507,-255.21157047753786A257.2095449239783,257.2095449239783,0,0,0,30.365495143226266,-255.41081947463917Z" fill-rule="evenodd" style="fill: #6B0E12; stroke: #fff; opacity: 1;" id="p-type-functions"></path><path d="M36.94688610043225,-294.6929378310272A297,297,0,0,1,38.8292099919775,-294.4508319760685L33.627082261933076,-255.00190065673863A257.2095449239783,257.2095449239783,0,0,0,31.996941953704507,-255.21157047753786Z" fill-rule="evenodd" style="fill: #6B0E12; stroke: #fff; opacity: 1;" id="p-type-functions"></path><path d="M38.8292099919775,-294.4508319760685A297,297,0,0,1,40.70994840543921,-294.1967030760652L35.25584950586415,-254.7818185735A257.2095449239783,257.2095449239783,0,0,0,33.627082261933076,-255.00190065673863Z" fill-rule="evenodd" style="fill: #6B0E12; stroke: #fff; opacity: 1;" id="p-type-functions"></path><path d="M40.70994840543921,-294.1967030760652A297,297,0,0,1,42.58902454632334,-293.9305615076334L36.88317717951504,-254.55133321423503A257.2095449239783,257.2095449239783,0,0,0,35.25584950586415,-254.7818185735Z" fill-rule="evenodd" style="fill: #6B0E12; stroke: #fff; opacity: 1;" id="p-type-functions"></path><path d="M42.58902454632334,-293.9305615076334A297,297,0,0,1,44.466361688009926,-293.6524181378915L38.508998835683684,-254.31045399014434A257.2095449239783,257.2095449239783,0,0,0,36.88317717951504,-254.55133321423503Z" fill-rule="evenodd" style="fill: #6B0E12; stroke: #fff; opacity: 1;" id="p-type-functions"></path><path d="M44.466361688009926,-293.6524181378915A297,297,0,0,1,46.34188317488598,-293.36228432401674L40.133248088661915,-254.05919073683188A257.2095449239783,257.2095449239783,0,0,0,38.508998835683684,-254.31045399014434Z" fill-rule="evenodd" style="fill: #6B0E12; stroke: #fff; opacity: 1;" id="p-type-functions"></path><path d="M46.34188317488598,-293.36228432401674A297,297,0,0,1,48.21551242547553,-293.06017191278113L41.755858616946064,-253.79755371390328A257.2095449239783,257.2095449239783,0,0,0,40.133248088661915,-254.05919073683188Z" fill-rule="evenodd" style="fill: #6B0E12; stroke: #fff; opacity: 1;" id="p-type-functions"></path><path d="M48.21551242547553,-293.06017191278113A297,297,0,0,1,50.08717293556655,-292.7460932400681L43.37676416594503,-253.5255536045469A257.2095449239783,257.2095449239783,0,0,0,41.755858616946064,-253.79755371390328Z" fill-rule="evenodd" style="fill: #6B0E12; stroke: #fff; opacity: 1;" id="p-type-functions"></path><path d="M50.08717293556655,-292.7460932400681A297,297,0,0,1,51.95678828133484,-292.42006113036865L44.99589855068559,-253.24320151509775A257.2095449239783,257.2095449239783,0,0,0,43.37676416594503,-253.5255536045469Z" fill-rule="evenodd" style="fill: #6B0E12; stroke: #fff; opacity: 1;" id="p-type-functions"></path><path d="M51.95678828133484,-292.42006113036865A297,297,0,0,1,53.824282122464524,-292.08208889625763L46.61319565851488,-252.95050897458384A257.2095449239783,257.2095449239783,0,0,0,44.99589855068559,-253.24320151509775Z" fill-rule="evenodd" style="fill: #6B0E12; stroke: #fff; opacity: 1;" id="p-type-functions"></path><path d="M53.824282122464524,-292.08208889625763A297,297,0,0,1,55.68957820526524,-291.73219033785017L48.228589451799905,-252.64748793425542A257.2095449239783,257.2095449239783,0,0,0,46.61319565851488,-252.95050897458384Z" fill-rule="evenodd" style="fill: #6B0E12; stroke: #fff; opacity: 1;" id="p-type-functions"></path><path d="M55.68957820526524,-291.73219033785017A297,297,0,0,1,57.55260036578571,-291.37037974223836L49.842013970623995,-252.33415076709719A257.2095449239783,257.2095449239783,0,0,0,48.228589451799905,-252.64748793425542Z" fill-rule="evenodd" style="fill: #6B0E12; stroke: #fff; opacity: 1;" id="p-type-functions"></path><path d="M57.55260036578571,-291.37037974223836A297,297,0,0,1,59.413272532923635,-290.99667188290755L51.45340333548009,-252.01051026732281A257.2095449239783,257.2095449239783,0,0,0,49.842013970623995,-252.33415076709719Z" fill-rule="evenodd" style="fill: #6B0E12; stroke: #fff; opacity: 1;" id="p-type-functions"></path><path d="M59.413272532923635,-290.99667188290755A297,297,0,0,1,61.2715187315319,-290.6110820191335L53.062691749960706,-251.6765796498527A257.2095449239783,257.2095449239783,0,0,0,51.45340333548009,-252.01051026732281Z" fill-rule="evenodd" style="fill: #6B0E12; stroke: #fff; opacity: 1;" id="p-type-functions"></path><path d="M61.2715187315319,-290.6110820191335A297,297,0,0,1,63.12726308552077,-290.2136258953591L54.66981350344461,-251.3323725497744A257.2095449239783,257.2095449239783,0,0,0,53.062691749960706,-251.6765796498527Z" fill-rule="evenodd" style="fill: #6B0E12; stroke: #fff; opacity: 1;" id="p-type-functions"></path><path d="M63.12726308552077,-290.2136258953591A297,297,0,0,1,64.98042982095606,-289.8043197405515L56.27470297377985,-250.97790302178566A257.2095449239783,257.2095449239783,0,0,0,54.66981350344461,-251.3323725497744Z" fill-rule="evenodd" style="fill: #6B0E12; stroke: #fff; opacity: 1;" id="p-type-functions"></path><path d="M64.98042982095606,-289.8043197405515A297,297,0,0,1,66.83094326915321,-289.38318026753944L57.87729462996332,-250.61318553962084A257.2095449239783,257.2095449239783,0,0,0,56.27470297377985,-250.97790302178566Z" fill-rule="evenodd" style="fill: #6B0E12; stroke: #fff; opacity: 1;" id="p-type-functions"></path><path d="M66.83094326915321,-289.38318026753944A297,297,0,0,1,68.67872786976686,-288.95022467233093L59.47752303481643,-250.23823499545966A257.2095449239783,257.2095449239783,0,0,0,57.87729462996332,-250.61318553962084Z" fill-rule="evenodd" style="fill: #6B0E12; stroke: #fff; opacity: 1;" id="p-type-functions"></path><path d="M68.67872786976686,-288.95022467233093A297,297,0,0,1,70.52370817387629,-288.50547063341094L61.07532284765713,-249.8530666993192A257.2095449239783,257.2095449239783,0,0,0,59.47752303481643,-250.23823499545966Z" fill-rule="evenodd" style="fill: #6B0E12; stroke: #fff; opacity: 1;" id="p-type-functions"></path><path d="M70.52370817387629,-288.50547063341094A297,297,0,0,1,72.36580884706603,-288.0489363110197L62.67062882696787,-249.45769637842892A257.2095449239783,257.2095449239783,0,0,0,61.07532284765713,-249.8530666993192Z" fill-rule="evenodd" style="fill: #6B0E12; stroke: #fff; opacity: 1;" id="p-type-functions"></path><path d="M72.36580884706603,-288.0489363110197A297,297,0,0,1,74.20495467250204,-287.5806403464112L64.26337583305956,-249.0521401765882A257.2095449239783,257.2095449239783,0,0,0,62.67062882696787,-249.45769637842892Z" fill-rule="evenodd" style="fill: #6B0E12; stroke: #fff; opacity: 1;" id="p-type-functions"></path><path d="M74.20495467250204,-287.5806403464112A297,297,0,0,1,76.04107055400287,-287.10060186109183L65.85349883073133,-248.6364146535074A257.2095449239783,257.2095449239783,0,0,0,64.26337583305956,-249.0521401765882Z" fill-rule="evenodd" style="fill: #6B0E12; stroke: #fff; opacity: 1;" id="p-type-functions"></path><path d="M76.04107055400287,-287.10060186109183A297,297,0,0,1,77.87408151910607,-286.60884045603973L67.44093289192612,-248.21053678413156A257.2095449239783,257.2095449239783,0,0,0,65.85349883073133,-248.6364146535074Z" fill-rule="evenodd" style="fill: #6B0E12; stroke: #fff; opacity: 1;" id="p-type-functions"></path><path d="M77.87408151910607,-286.60884045603973A297,297,0,0,1,79.70391272212939,-286.10537621090447L69.02561319838176,-247.77452395794728A257.2095449239783,257.2095449239783,0,0,0,67.44093289192612,-248.21053678413156Z" fill-rule="evenodd" style="fill: #6B0E12; stroke: #fff; opacity: 1;" id="p-type-functions"></path><path d="M79.70391272212939,-286.10537621090447A297,297,0,0,1,81.53048944722696,-285.5902296831872L70.60747504427763,-247.32839397827277A257.2095449239783,257.2095449239783,0,0,0,69.02561319838176,-247.77452395794728Z" fill-rule="evenodd" style="fill: #6B0E12; stroke: #fff; opacity: 1;" id="p-type-functions"></path><path d="M81.53048944722696,-285.5902296831872A297,297,0,0,1,83.35373711144008,-285.06342190740105L72.18645383887684,-246.8721650615308A257.2095449239783,257.2095449239783,0,0,0,70.60747504427763,-247.32839397827277Z" fill-rule="evenodd" style="fill: #6B0E12; stroke: #fff; opacity: 1;" id="p-type-functions"></path><path d="M83.35373711144008,-285.06342190740105A297,297,0,0,1,85.17358126774256,-284.52497439421245L73.76248510916345,-246.4058558365049A257.2095449239783,257.2095449239783,0,0,0,72.18645383887684,-246.8721650615308Z" fill-rule="evenodd" style="fill: #6B0E12; stroke: #fff; opacity: 1;" id="p-type-functions"></path><path d="M85.17358126774256,-284.52497439421245A297,297,0,0,1,86.98994760808064,-283.97490912956266L75.3355045024752,-245.9294853435788A257.2095449239783,257.2095449239783,0,0,0,73.76248510916345,-246.4058558365049Z" fill-rule="evenodd" style="fill: #6B0E12; stroke: #fff; opacity: 1;" id="p-type-functions"></path><path d="M86.98994760808064,-283.97490912956266A297,297,0,0,1,88.802761966407,-283.4132485737702L76.90544778913102,-245.44307303395883A257.2095449239783,257.2095449239783,0,0,0,75.3355045024752,-245.9294853435788Z" fill-rule="evenodd" style="fill: #6B0E12; stroke: #fff; opacity: 1;" id="p-type-functions"></path><path d="M88.802761966407,-283.4132485737702A297,297,0,0,1,90.61195032170924,-282.8400156606135L78.47225086505375,-244.94663876887975A257.2095449239783,257.2095449239783,0,0,0,76.90544778913102,-245.44307303395883Z" fill-rule="evenodd" style="fill: #6B0E12; stroke: #fff; opacity: 1;" id="p-type-functions"></path><path d="M90.61195032170924,-282.8400156606135A297,297,0,0,1,92.41743880103226,-282.25523379639475L80.03584975438761,-244.4402028187939A257.2095449239783,257.2095449239783,0,0,0,78.47225086505375,-244.94663876887975Z" fill-rule="evenodd" style="fill: #6B0E12; stroke: #fff; opacity: 1;" id="p-type-functions"></path><path d="M92.41743880103226,-282.25523379639475A297,297,0,0,1,94.21915368249465,-281.65892685898393L81.59618061211052,-243.92378586254324A257.2095449239783,257.2095449239783,0,0,0,80.03584975438761,-244.4402028187939Z" fill-rule="evenodd" style="fill: #6B0E12; stroke: #fff; opacity: 1;" id="p-type-functions"></path><path d="M94.21915368249465,-281.65892685898393A297,297,0,0,1,96.01702139829894,-281.05111919684396L83.15317972664093,-243.3974089865152A257.2095449239783,257.2095449239783,0,0,0,81.59618061211052,-243.92378586254324Z" fill-rule="evenodd" style="fill: #6B0E12; stroke: #fff; opacity: 1;" id="p-type-functions"></path><path d="M96.01702139829894,-281.05111919684396A297,297,0,0,1,97.81096853773546,-280.43183562803654L84.70678352243938,-242.8610936837817A257.2095449239783,257.2095449239783,0,0,0,83.15317972664093,-243.3974089865152Z" fill-rule="evenodd" style="fill: #6B0E12; stroke: #fff; opacity: 1;" id="p-type-functions"></path><path d="M97.81096853773546,-280.43183562803654A297,297,0,0,1,99.60092185017996,-279.80110143920865L86.25692856260441,-242.31486185322137A257.2095449239783,257.2095449239783,0,0,0,84.70678352243938,-242.8610936837817Z" fill-rule="evenodd" style="fill: #6B0E12; stroke: #fff; opacity: 1;" id="p-type-functions"></path><path d="M99.60092185017996,-279.80110143920865A297,297,0,0,1,101.38680824808442,-279.15894238456013L87.80355155146277,-241.75873579862554A257.2095449239783,257.2095449239783,0,0,0,86.25692856260441,-242.31486185322137Z" fill-rule="evenodd" style="fill: #6B0E12; stroke: #fff; opacity: 1;" id="p-type-functions"></path><path d="M101.38680824808442,-279.15894238456013A297,297,0,0,1,103.16855480996159,-278.5053846847919L89.34658933715397,-241.19273822778737A257.2095449239783,257.2095449239783,0,0,0,87.80355155146277,-241.75873579862554Z" fill-rule="evenodd" style="fill: #6B0E12; stroke: #fff; opacity: 1;" id="p-type-functions"></path><path d="M103.16855480996159,-278.5053846847919A297,297,0,0,1,104.94608878336231,-277.84045502603584L90.88597891420889,-240.61689225157485A257.2095449239783,257.2095449239783,0,0,0,89.34658933715397,-241.19273822778737Z" fill-rule="evenodd" style="fill: #6B0E12; stroke: #fff; opacity: 1;" id="p-type-functions"></path><path d="M104.94608878336231,-277.84045502603584A297,297,0,0,1,106.71933758784631,-277.16418055876426L92.42165742612242,-240.0312213829869A257.2095449239783,257.2095449239783,0,0,0,90.88597891420889,-240.61689225157485Z" fill-rule="evenodd" style="fill: #6B0E12; stroke: #fff; opacity: 1;" id="p-type-functions"></path><path d="M106.71933758784631,-277.16418055876426A297,297,0,0,1,108.48822881794572,-276.4765888966823L93.95356216792003,-239.43574953619353A257.2095449239783,257.2095449239783,0,0,0,92.42165742612242,-240.0312213829869Z" fill-rule="evenodd" style="fill: #6B0E12; stroke: #fff; opacity: 1;" id="p-type-functions"></path><path d="M108.48822881794572,-276.4765888966823A297,297,0,0,1,110.25269024612157,-275.77770811559947L95.48163058871809,-238.83050102555907A257.2095449239783,257.2095449239783,0,0,0,93.95356216792003,-239.43574953619353Z" fill-rule="evenodd" style="fill: #6B0E12; stroke: #fff; opacity: 1;" id="p-type-functions"></path><path d="M110.25269024612157,-275.77770811559947A297,297,0,0,1,112.01264982571305,-275.06756675228394L97.00580029427807,-238.21550056464974A257.2095449239783,257.2095449239783,0,0,0,95.48163058871809,-238.83050102555907Z" fill-rule="evenodd" style="fill: #6B0E12; stroke: #fff; opacity: 1;" id="p-type-functions"></path><path d="M112.01264982571305,-275.06756675228394A297,297,0,0,1,113.76803569387916,-274.34619380329707L98.52600904955413,-237.59077326522424A257.2095449239783,257.2095449239783,0,0,0,97.00580029427807,-238.21550056464974Z" fill-rule="evenodd" style="fill: #6B0E12; stroke: #fff; opacity: 1;" id="p-type-functions"></path><path d="M113.76803569387916,-274.34619380329707A297,297,0,0,1,115.51877617453323,-273.61361872380934L100.04219478123433,-236.95634463620843A257.2095449239783,257.2095449239783,0,0,0,98.52600904955413,-237.59077326522424Z" fill-rule="evenodd" style="fill: #6B0E12; stroke: #fff; opacity: 1;" id="p-type-functions"></path><path d="M115.51877617453323,-273.61361872380934A297,297,0,0,1,117.26479978126945,-272.86987142639765L101.55429558027522,-236.3122405826539A257.2095449239783,257.2095449239783,0,0,0,100.04219478123433,-236.95634463620843Z" fill-rule="evenodd" style="fill: #6B0E12; stroke: #fff; opacity: 1;" id="p-type-functions"></path><path d="M117.26479978126945,-272.86987142639765A297,297,0,0,1,119.00603522028192,-272.1149822798242L103.06224970442977,-235.6584874046801A257.2095449239783,257.2095449239783,0,0,0,101.55429558027522,-236.3122405826539Z" fill-rule="evenodd" style="fill: #6B0E12; stroke: #fff; opacity: 1;" id="p-type-functions"></path><path d="M119.00603522028192,-272.1149822798242A297,297,0,0,1,120.74241139327559,-271.348982107796L104.56599558076829,-234.99511179640047A257.2095449239783,257.2095449239783,0,0,0,103.06224970442977,-235.6584874046801Z" fill-rule="evenodd" style="fill: #6B0E12; stroke: #fff; opacity: 1;" id="p-type-functions"></path><path d="M120.74241139327559,-271.348982107796A297,297,0,0,1,122.4738574003695,-270.57190218770677L106.06547180819275,-234.3221408448324A257.2095449239783,257.2095449239783,0,0,0,104.56599558076829,-234.99511179640047Z" fill-rule="evenodd" style="fill: #6B0E12; stroke: #fff; opacity: 1;" id="p-type-functions"></path><path d="M122.4738574003695,-270.57190218770677A297,297,0,0,1,124.20030254299166,-269.78377424935945L107.5606171599438,-233.63960202879136A257.2095449239783,257.2095449239783,0,0,0,106.06547180819275,-234.3221408448324Z" fill-rule="evenodd" style="fill: #6B0E12; stroke: #fff; opacity: 1;" id="p-type-functions"></path><path d="M124.20030254299166,-269.78377424935945A297,297,0,0,1,125.92167632676593,-268.98463047367073L109.05137058610086,-232.94752321776872A257.2095449239783,257.2095449239783,0,0,0,107.5606171599438,-233.63960202879136Z" fill-rule="evenodd" style="fill: #6B0E12; stroke: #fff; opacity: 1;" id="p-type-functions"></path><path d="M125.92167632676593,-268.98463047367073A297,297,0,0,1,127.63790846439032,-268.17450349135714L110.53767121607486,-232.2459326707939A257.2095449239783,257.2095449239783,0,0,0,109.05137058610086,-232.94752321776872Z" fill-rule="evenodd" style="fill: #6B0E12; stroke: #fff; opacity: 1;" id="p-type-functions"></path><path d="M127.63790846439032,-268.17450349135714A297,297,0,0,1,129.34892887850708,-267.35342638160245L112.01945836109373,-231.53485903528045A257.2095449239783,257.2095449239783,0,0,0,110.53767121607486,-232.2459326707939Z" fill-rule="evenodd" style="fill: #6B0E12; stroke: #fff; opacity: 1;" id="p-type-functions"></path><path d="M129.34892887850708,-267.35342638160245A297,297,0,0,1,131.054667704564,-266.52143267070716L113.49667151668048,-230.81433134585626A257.2095449239783,257.2095449239783,0,0,0,112.01945836109373,-231.53485903528045Z" fill-rule="evenodd" style="fill: #6B0E12; stroke: #fff; opacity: 1;" id="p-type-functions"></path><path d="M295.3601974362493,-31.166548901343432A297,297,0,0,1,296.7396990953201,-12.431853474799752L256.9841177278974,-10.766300925302431A257.2095449239783,257.2095449239783,0,0,0,255.78943424657933,-26.9910230968534Z" fill-rule="evenodd" style="fill: #F09B24; stroke: #fff; opacity: 1;" id="p-type-ether"></path><path d="M296.7396990953201,-12.431853474799752A297,297,0,0,1,296.9758057460664,3.7908839964654204L257.18859208544615,3.283001843738932A257.2095449239783,257.2095449239783,0,0,0,256.9841177278974,-10.766300925302431Z" fill-rule="evenodd" style="fill: #F09B24; stroke: #fff; opacity: 1;" id="p-type-ether"></path><path d="M296.9758057460664,3.7908839964654204A297,297,0,0,1,296.5025408300223,17.182644771423742L256.7787326454321,14.880606876256822A257.2095449239783,257.2095449239783,0,0,0,257.18859208544615,3.283001843738932Z" fill-rule="evenodd" style="fill: #F09B24; stroke: #fff; opacity: 1;" id="p-type-ether"></path><path d="M296.5025408300223,17.182644771423742A297,297,0,0,1,295.9979449055529,24.37655865148416L256.3417397561955,21.11071904902662A257.2095449239783,257.2095449239783,0,0,0,256.7787326454321,14.880606876256822Z" fill-rule="evenodd" style="fill: #F09B24; stroke: #fff; opacity: 1;" id="p-type-ether"></path><path d="M295.9979449055529,24.37655865148416A297,297,0,0,1,295.5776064039528,29.032371458596767L255.97771593562115,25.142771215251077A257.2095449239783,257.2095449239783,0,0,0,256.3417397561955,21.11071904902662Z" fill-rule="evenodd" style="fill: #F09B24; stroke: #fff; opacity: 1;" id="p-type-ether"></path><path d="M295.5776064039528,29.032371458596767A297,297,0,0,1,295.1824443165768,32.80738586493975L255.635495529341,28.41202959079633A257.2095449239783,257.2095449239783,0,0,0,255.97771593562115,25.142771215251077Z" fill-rule="evenodd" style="fill: #F09B24; stroke: #fff; opacity: 1;" id="p-type-ether"></path><path d="M295.1824443165768,32.80738586493975A297,297,0,0,1,294.8131745775287,35.97488145247428L255.3156985544765,31.15516123597635A257.2095449239783,257.2095449239783,0,0,0,255.635495529341,28.41202959079633Z" fill-rule="evenodd" style="fill: #F09B24; stroke: #fff; opacity: 1;" id="p-type-ether"></path><path d="M294.8131745775287,35.97488145247428A297,297,0,0,1,294.56388889282823,37.96202524014706L255.09981081872607,32.87607823707341A257.2095449239783,257.2095449239783,0,0,0,255.3156985544765,31.15516123597635Z" fill-rule="evenodd" style="fill: #F09B24; stroke: #fff; opacity: 1;" id="p-type-ether"></path><path d="M294.56388889282823,37.96202524014706A297,297,0,0,1,294.3152989667527,39.843503788082465L254.88452562761984,34.50548645626093A257.2095449239783,257.2095449239783,0,0,0,255.09981081872607,32.87607823707341Z" fill-rule="evenodd" style="fill: #F09B24; stroke: #fff; opacity: 1;" id="p-type-ether"></path><path d="M199.79212376399548,219.7546524692306A297,297,0,0,1,198.3838197812989,221.02683106125625L171.80542763039873,191.41485061701934A257.2095449239783,257.2095449239783,0,0,0,173.02505465566472,190.31311163817443Z" fill-rule="evenodd" style="fill: #184B42; stroke: #fff; opacity: 1;" id="p-type-logs"></path><path d="M198.3838197812989,221.02683106125625A297,297,0,0,1,196.9674153711547,222.28998466419267L170.5787854291815,192.50877372604415A257.2095449239783,257.2095449239783,0,0,0,171.80542763039873,191.41485061701934Z" fill-rule="evenodd" style="fill: #184B42; stroke: #fff; opacity: 1;" id="p-type-logs"></path><path d="M196.9674153711547,222.28998466419267A297,297,0,0,1,195.54296836832557,223.544061700829L169.34517813838687,193.5948362980739A257.2095449239783,257.2095449239783,0,0,0,170.5787854291815,192.50877372604415Z" fill-rule="evenodd" style="fill: #184B42; stroke: #fff; opacity: 1;" id="p-type-logs"></path><path d="M195.54296836832557,223.544061700829A297,297,0,0,1,194.11053693597026,224.78901096456946L168.10465612878784,194.67299398689588A257.2095449239783,257.2095449239783,0,0,0,169.34517813838687,193.5948362980739Z" fill-rule="evenodd" style="fill: #184B42; stroke: #fff; opacity: 1;" id="p-type-logs"></path><path d="M194.11053693597026,224.78901096456946A297,297,0,0,1,192.6701795632686,226.0247816215245L166.85727005349997,195.74320276907034A257.2095449239783,257.2095449239783,0,0,0,168.10465612878784,194.67299398689588Z" fill-rule="evenodd" style="fill: #184B42; stroke: #fff; opacity: 1;" id="p-type-logs"></path><path d="M192.6701795632686,226.0247816215245A297,297,0,0,1,191.22195506303294,227.25132321258639L165.6030708459129,196.8054189457281A257.2095449239783,257.2095449239783,0,0,0,166.85727005349997,195.74320276907034Z" fill-rule="evenodd" style="fill: #184B42; stroke: #fff; opacity: 1;" id="p-type-logs"></path><path d="M191.22195506303294,227.25132321258639A297,297,0,0,1,189.7659225693072,228.4685856554894L164.3421097176108,197.8595991443548A257.2095449239783,257.2095449239783,0,0,0,165.6030708459129,196.8054189457281Z" fill-rule="evenodd" style="fill: #184B42; stroke: #fff; opacity: 1;" id="p-type-logs"></path><path d="M189.7659225693072,228.4685856554894A297,297,0,0,1,188.30214153495197,229.67651924685492L163.0744381562813,198.90570032056192A257.2095449239783,257.2095449239783,0,0,0,164.3421097176108,197.8595991443548Z" fill-rule="evenodd" style="fill: #184B42; stroke: #fff; opacity: 1;" id="p-type-logs"></path><path d="M188.30214153495197,229.67651924685492A297,297,0,0,1,186.83067172921693,230.8750746642209L161.800107923613,199.94367975984434A257.2095449239783,257.2095449239783,0,0,0,163.0744381562813,198.90570032056192Z" fill-rule="evenodd" style="fill: #184B42; stroke: #fff; opacity: 1;" id="p-type-logs"></path><path d="M186.83067172921693,230.8750746642209A297,297,0,0,1,185.3515732353005,232.0642029680559L160.51917105318205,200.97349507932455A257.2095449239783,257.2095449239783,0,0,0,161.800107923613,199.94367975984434Z" fill-rule="evenodd" style="fill: #184B42; stroke: #fff; opacity: 1;" id="p-type-logs"></path><path d="M185.3515732353005,232.0642029680559A297,297,0,0,1,183.8649064478964,233.24385560375714L159.2316798483275,201.99510422948308A257.2095449239783,257.2095449239783,0,0,0,160.51917105318205,200.97349507932455Z" fill-rule="evenodd" style="fill: #184B42; stroke: #fff; opacity: 1;" id="p-type-logs"></path><path d="M183.8649064478964,233.24385560375714A297,297,0,0,1,182.37073207072766,234.41398440363338L157.9376868800156,203.0084654958757A257.2095449239783,257.2095449239783,0,0,0,159.2316798483275,201.99510422948308Z" fill-rule="evenodd" style="fill: #184B42; stroke: #fff; opacity: 1;" id="p-type-logs"></path><path d="M182.37073207072766,234.41398440363338A297,297,0,0,1,180.86911111406798,235.57454158887148L156.63724498469324,204.01353750083646A257.2095449239783,257.2095449239783,0,0,0,157.9376868800156,203.0084654958757Z" fill-rule="evenodd" style="fill: #184B42; stroke: #fff; opacity: 1;" id="p-type-logs"></path><path d="M180.86911111406798,235.57454158887148A297,297,0,0,1,179.36010489225046,236.72547977148744L155.33040726213048,205.0102792051674A257.2095449239783,257.2095449239783,0,0,0,156.63724498469324,204.01353750083646Z" fill-rule="evenodd" style="fill: #184B42; stroke: #fff; opacity: 1;" id="p-type-logs"></path><path d="M179.36010489225046,236.72547977148744A297,297,0,0,1,177.8437750211641,237.86675195626134L154.0172270732525,205.99864990981413A257.2095449239783,257.2095449239783,0,0,0,155.33040726213048,205.0102792051674Z" fill-rule="evenodd" style="fill: #184B42; stroke: #fff; opacity: 1;" id="p-type-logs"></path><path d="M177.8437750211641,237.86675195626134A297,297,0,0,1,176.3201834157379,238.9983115426562L152.69775803796068,206.9786092575279A257.2095449239783,257.2095449239783,0,0,0,154.0172270732525,205.99864990981413Z" fill-rule="evenodd" style="fill: #184B42; stroke: #fff; opacity: 1;" id="p-type-logs"></path><path d="M176.3201834157379,238.9983115426562A297,297,0,0,1,174.78939228741257,240.12011232672074L151.3720540329431,207.9501172345131A257.2095449239783,257.2095449239783,0,0,0,152.69775803796068,206.9786092575279Z" fill-rule="evenodd" style="fill: #184B42; stroke: #fff; opacity: 1;" id="p-type-logs"></path><path d="M174.78939228741257,240.12011232672074A297,297,0,0,1,173.25146414160062,241.2321085029762L150.04016918947488,208.9131341720615A257.2095449239783,257.2095449239783,0,0,0,151.3720540329431,207.9501172345131Z" fill-rule="evenodd" style="fill: #184B42; stroke: #fff; opacity: 1;" id="p-type-logs"></path><path d="M173.25146414160062,241.2321085029762A297,297,0,0,1,171.7064617751338,242.33425466628634L148.70215789120752,209.86762074817162A257.2095449239783,257.2095449239783,0,0,0,150.04016918947488,208.9131341720615Z" fill-rule="evenodd" style="fill: #184B42; stroke: #fff; opacity: 1;" id="p-type-logs"></path><path d="M171.7064617751338,242.33425466628634A297,297,0,0,1,170.1544482736992,243.42650581371169L147.35807477194874,210.81353798915467A257.2095449239783,257.2095449239783,0,0,0,148.70215789120752,209.86762074817162Z" fill-rule="evenodd" style="fill: #184B42; stroke: #fff; opacity: 1;" id="p-type-logs"></path><path d="M170.1544482736992,243.42650581371169A297,297,0,0,1,168.59548700926328,244.50881734634712L146.0079747134313,211.75084727122584A257.2095449239783,257.2095449239783,0,0,0,147.35807477194874,210.81353798915467Z" fill-rule="evenodd" style="fill: #184B42; stroke: #fff; opacity: 1;" id="p-type-logs"></path><path d="M168.59548700926328,244.50881734634712A297,297,0,0,1,167.02964163748413,245.58114507114269L144.6519128430723,212.67951032208114A257.2095449239783,257.2095449239783,0,0,0,146.0079747134313,211.75084727122584Z" fill-rule="evenodd" style="fill: #184B42; stroke: #fff; opacity: 1;" id="p-type-logs"></path><path d="M167.02964163748413,245.58114507114269A297,297,0,0,1,165.4569760951125,246.64344520270828L143.28994453172203,213.5994892224605A257.2095449239783,257.2095449239783,0,0,0,144.6519128430723,212.67951032208114Z" fill-rule="evenodd" style="fill: #184B42; stroke: #fff; opacity: 1;" id="p-type-logs"></path><path d="M165.4569760951125,246.64344520270828A297,297,0,0,1,163.877554597381,247.69567436510152L141.92212539140326,214.51074640769588A257.2095449239783,257.2095449239783,0,0,0,143.28994453172203,213.5994892224605Z" fill-rule="evenodd" style="fill: #184B42; stroke: #fff; opacity: 1;" id="p-type-logs"></path><path d="M163.877554597381,247.69567436510152A297,297,0,0,1,162.2914416353819,248.7377895935988L140.54851127304028,215.41324466924516A257.2095449239783,257.2095449239783,0,0,0,141.92212539140326,214.51074640769588Z" fill-rule="evenodd" style="fill: #184B42; stroke: #fff; opacity: 1;" id="p-type-logs"></path><path d="M162.2914416353819,248.7377895935988A297,297,0,0,1,160.69870197343423,249.7697483364496L139.16915826417855,216.30694715621138A257.2095449239783,257.2095449239783,0,0,0,140.54851127304028,215.41324466924516Z" fill-rule="evenodd" style="fill: #184B42; stroke: #fff; opacity: 1;" id="p-type-logs"></path><path d="M160.69870197343423,249.7697483364496A297,297,0,0,1,159.09940064643894,250.79150845661403L137.78412268669447,217.19181737684764A257.2095449239783,257.2095449239783,0,0,0,139.16915826417855,216.30694715621138Z" fill-rule="evenodd" style="fill: #184B42; stroke: #fff; opacity: 1;" id="p-type-logs"></path><path d="M159.09940064643894,250.79150845661403A297,297,0,0,1,157.49360295722354,251.80302823348336L136.3934610944956,218.06781920004684A257.2095449239783,257.2095449239783,0,0,0,137.78412268669447,217.19181737684764Z" fill-rule="evenodd" style="fill: #184B42; stroke: #fff; opacity: 1;" id="p-type-logs"></path><path d="M157.49360295722354,251.80302823348336A297,297,0,0,1,155.8813744738757,252.8042663645836L134.9972302712115,218.93491685681732A257.2095449239783,257.2095449239783,0,0,0,136.3934610944956,218.06781920004684Z" fill-rule="evenodd" style="fill: #184B42; stroke: #fff; opacity: 1;" id="p-type-logs"></path><path d="M155.8813744738757,252.8042663645836A297,297,0,0,1,154.26278102706573,253.7951819672619L133.59548722787505,219.79307494174307A257.2095449239783,257.2095449239783,0,0,0,134.9972302712115,218.93491685681732Z" fill-rule="evenodd" style="fill: #184B42; stroke: #fff; opacity: 1;" id="p-type-logs"></path><path d="M154.26278102706573,253.7951819672619A297,297,0,0,1,152.63788870735897,254.7757345803558L132.18828920059474,220.6422584144296A257.2095449239783,257.2095449239783,0,0,0,133.59548722787505,219.79307494174307Z" fill-rule="evenodd" style="fill: #184B42; stroke: #fff; opacity: 1;" id="p-type-logs"></path><path d="M152.63788870735897,254.7757345803558A297,297,0,0,1,151.0067638625168,255.74588416584555L130.7756936482175,221.48243260093466A257.2095449239783,257.2095449239783,0,0,0,132.18828920059474,220.6422584144296Z" fill-rule="evenodd" style="fill: #184B42; stroke: #fff; opacity: 1;" id="p-type-logs"></path><path d="M151.0067638625168,255.74588416584555A297,297,0,0,1,149.36947309478774,256.70559111048885L129.3577582499824,222.31356319518412A257.2095449239783,257.2095449239783,0,0,0,130.7756936482175,221.48243260093466Z" fill-rule="evenodd" style="fill: #184B42; stroke: #fff; opacity: 1;" id="p-type-logs"></path><path d="M149.36947309478774,256.70559111048885A297,297,0,0,1,147.72608325818786,257.6548162274382L127.93454090316574,223.1356162603725A257.2095449239783,257.2095449239783,0,0,0,129.3577582499824,222.31356319518412Z" fill-rule="evenodd" style="fill: #184B42; stroke: #fff; opacity: 1;" id="p-type-logs"></path><path d="M147.72608325818786,257.6548162274382A297,297,0,0,1,146.076661455771,258.59352075784125L126.5060997207168,223.94855823034908A257.2095449239783,257.2095449239783,0,0,0,127.93454090316574,223.1356162603725Z" fill-rule="evenodd" style="fill: #184B42; stroke: #fff; opacity: 1;" id="p-type-logs"></path><path d="M146.076661455771,258.59352075784125A297,297,0,0,1,144.42127503688877,259.52166637242317L125.07249302888508,224.75235591098817A257.2095449239783,257.2095449239783,0,0,0,126.5060997207168,223.94855823034908Z" fill-rule="evenodd" style="fill: #184B42; stroke: #fff; opacity: 1;" id="p-type-logs"></path><path d="M144.42127503688877,259.52166637242317A297,297,0,0,1,142.7599915944407,260.4392151730519L123.63377936483856,225.54697648154456A257.2095449239783,257.2095449239783,0,0,0,125.07249302888508,224.75235591098817Z" fill-rule="evenodd" style="fill: #184B42; stroke: #fff; opacity: 1;" id="p-type-logs"></path><path d="M142.7599915944407,260.4392151730519A297,297,0,0,1,141.09287896211404,261.34612969428537L122.19001747427373,226.33238749599377A257.2095449239783,257.2095449239783,0,0,0,123.63377936483856,225.54697648154456Z" fill-rule="evenodd" style="fill: #184B42; stroke: #fff; opacity: 1;" id="p-type-logs"></path><path d="M141.09287896211404,261.34612969428537A297,297,0,0,1,139.42000521161413,262.24237290490163L120.74126630901667,227.1085568843568A257.2095449239783,257.2095449239783,0,0,0,122.19001747427373,226.33238749599377Z" fill-rule="evenodd" style="fill: #184B42; stroke: #fff; opacity: 1;" id="p-type-logs"></path><path d="M139.42000521161413,262.24237290490163A297,297,0,0,1,137.74143864988486,263.1279082094106L119.28758502461602,227.87545295400952A257.2095449239783,257.2095449239783,0,0,0,120.74126630901667,227.1085568843568Z" fill-rule="evenodd" style="fill: #184B42; stroke: #fff; opacity: 1;" id="p-type-logs"></path><path d="M137.74143864988486,263.1279082094106A297,297,0,0,1,136.05724781631955,264.00269944954846L117.82903297792758,228.633044390977A257.2095449239783,257.2095449239783,0,0,0,119.28758502461602,227.87545295400952Z" fill-rule="evenodd" style="fill: #184B42; stroke: #fff; opacity: 1;" id="p-type-logs"></path><path d="M136.05724781631955,264.00269944954846A297,297,0,0,1,134.36750147996233,264.8667109057541L116.36566972469053,229.3813002612119A257.2095449239783,257.2095449239783,0,0,0,117.82903297792758,228.633044390977Z" fill-rule="evenodd" style="fill: #184B42; stroke: #fff; opacity: 1;" id="p-type-logs"></path><path d="M134.36750147996233,264.8667109057541A297,297,0,0,1,132.6722686367001,265.7199072986277L114.89755501709573,230.12019001185763A257.2095449239783,257.2095449239783,0,0,0,116.36566972469053,229.3813002612119Z" fill-rule="evenodd" style="fill: #184B42; stroke: #fff; opacity: 1;" id="p-type-logs"></path><path d="M132.6722686367001,265.7199072986277A297,297,0,0,1,130.97161850644545,266.5622537903709L113.42474880134588,230.849683472496A257.2095449239783,257.2095449239783,0,0,0,114.89755501709573,230.12019001185763Z" fill-rule="evenodd" style="fill: #184B42; stroke: #fff; opacity: 1;" id="p-type-logs"></path><path d="M130.97161850644545,266.5622537903709A297,297,0,0,1,129.2656205303101,267.3937159862099L111.9473112152078,231.56975085637893A257.2095449239783,257.2095449239783,0,0,0,113.42474880134588,230.849683472496Z" fill-rule="evenodd" style="fill: #184B42; stroke: #fff; opacity: 1;" id="p-type-logs"></path><path d="M129.2656205303101,267.3937159862099A297,297,0,0,1,127.55434436776949,268.21425993579925L110.46530258555691,232.2803627616449A257.2095449239783,257.2095449239783,0,0,0,111.9473112152078,231.56975085637893Z" fill-rule="evenodd" style="fill: #184B42; stroke: #fff; opacity: 1;" id="p-type-logs"></path><path d="M127.55434436776949,268.21425993579925A297,297,0,0,1,125.83785989381857,269.0238521346085L108.97878342591386,232.98149017251941A257.2095449239783,257.2095449239783,0,0,0,110.46530258555691,232.2803627616449Z" fill-rule="evenodd" style="fill: #184B42; stroke: #fff; opacity: 1;" id="p-type-logs"></path><path d="M125.83785989381857,269.0238521346085A297,297,0,0,1,124.11623719611855,269.8224595252902L107.48781443397372,233.6731044604998A257.2095449239783,257.2095449239783,0,0,0,108.97878342591386,232.98149017251941Z" fill-rule="evenodd" style="fill: #184B42; stroke: #fff; opacity: 1;" id="p-type-logs"></path><path d="M124.11623719611855,269.8224595252902A297,297,0,0,1,122.38954657213503,270.6100494990295L105.9924564891276,234.35517738552394A257.2095449239783,257.2095449239783,0,0,0,107.48781443397372,233.6731044604998Z" fill-rule="evenodd" style="fill: #184B42; stroke: #fff; opacity: 1;" id="p-type-logs"></path><path d="M122.38954657213503,270.6100494990295A297,297,0,0,1,120.65785852626773,271.386589896876L104.49277064997668,235.0276810971239A257.2095449239783,257.2095449239783,0,0,0,105.9924564891276,234.35517738552394Z" fill-rule="evenodd" style="fill: #184B42; stroke: #fff; opacity: 1;" id="p-type-logs"></path><path d="M120.65785852626773,271.386589896876A297,297,0,0,1,118.92124376697156,272.15204901105653L102.98881815183921,235.6905881355626A257.2095449239783,257.2095449239783,0,0,0,104.49277064997668,235.0276810971239Z" fill-rule="evenodd" style="fill: #184B42; stroke: #fff; opacity: 1;" id="p-type-logs"></path><path d="M118.92124376697156,272.15204901105653A297,297,0,0,1,117.1797732038695,272.90639558627004L101.48066040425003,236.34387143295527A257.2095449239783,257.2095449239783,0,0,0,102.98881815183921,235.6905881355626Z" fill-rule="evenodd" style="fill: #184B42; stroke: #fff; opacity: 1;" id="p-type-logs"></path><path d="M117.1797732038695,272.90639558627004A297,297,0,0,1,115.43351794485714,273.6495988209636L99.96835898845315,236.9875043143747A257.2095449239783,257.2095449239783,0,0,0,101.48066040425003,236.34387143295527Z" fill-rule="evenodd" style="fill: #184B42; stroke: #fff; opacity: 1;" id="p-type-logs"></path><path d="M115.43351794485714,273.6495988209636A297,297,0,0,1,113.68254929319927,274.3816283685905L98.45197565488726,237.6214604989404A257.2095449239783,257.2095449239783,0,0,0,99.96835898845315,236.9875043143747Z" fill-rule="evenodd" style="fill: #184B42; stroke: #fff; opacity: 1;" id="p-type-logs"></path><path d="M113.68254929319927,274.3816283685905A297,297,0,0,1,111.92693874461841,275.1024543388489L96.9315723206643,238.24571410089172A257.2095449239783,257.2095449239783,0,0,0,98.45197565488726,237.6214604989404Z" fill-rule="evenodd" style="fill: #184B42; stroke: #fff; opacity: 1;" id="p-type-logs"></path><path d="M111.92693874461841,275.1024543388489A297,297,0,0,1,110.16675798437542,275.81204729890254L95.40721106704126,238.86023963064477A257.2095449239783,257.2095449239783,0,0,0,96.9315723206643,238.24571410089172Z" fill-rule="evenodd" style="fill: #184B42; stroke: #fff; opacity: 1;" id="p-type-logs"></path><path d="M110.16675798437542,275.81204729890254A297,297,0,0,1,108.4020788843425,276.51037827458265L93.87895413688528,239.46501199583332A257.2095449239783,257.2095449239783,0,0,0,95.40721106704126,238.86023963064477Z" fill-rule="evenodd" style="fill: #184B42; stroke: #fff; opacity: 1;" id="p-type-logs"></path><path d="M108.4020788843425,276.51037827458265A297,297,0,0,1,106.6329735000685,277.19741875157075L92.34686393213217,240.0600065023332A257.2095449239783,257.2095449239783,0,0,0,93.87895413688528,239.46501199583332Z" fill-rule="evenodd" style="fill: #184B42; stroke: #fff; opacity: 1;" id="p-type-logs"></path><path d="M106.6329735000685,277.19741875157075A297,297,0,0,1,104.85951406783676,277.8731406765633L90.81100301123836,240.64519885527085A257.2095449239783,257.2095449239783,0,0,0,92.34686393213217,240.0600065023332Z" fill-rule="evenodd" style="fill: #184B42; stroke: #fff; opacity: 1;" id="p-type-logs"></path><path d="M104.85951406783676,277.8731406765633A297,297,0,0,1,103.0817730017155,278.53751645841675L89.27143408662653,241.22056516001513A257.2095449239783,257.2095449239783,0,0,0,90.81100301123836,240.64519885527085Z" fill-rule="evenodd" style="fill: #184B42; stroke: #fff; opacity: 1;" id="p-type-logs"></path><path d="M103.0817730017155,278.53751645841675A297,297,0,0,1,101.29982289060106,279.1905189692746L87.7282200221249,241.786081923153A257.2095449239783,257.2095449239783,0,0,0,89.27143408662653,241.22056516001513Z" fill-rule="evenodd" style="fill: #184B42; stroke: #fff; opacity: 1;" id="p-type-logs"></path><path d="M101.29982289060106,279.1905189692746A297,297,0,0,1,99.5137364952539,279.8321215456745L86.18142383040048,242.34172605344892A257.2095449239783,257.2095449239783,0,0,0,87.7282200221249,241.786081923153Z" fill-rule="evenodd" style="fill: #184B42; stroke: #fff; opacity: 1;" id="p-type-logs"></path><path d="M99.5137364952539,279.8321215456745A297,297,0,0,1,97.72358674532764,280.4622979896378L84.63110867038598,242.88747486278768A257.2095449239783,257.2095449239783,0,0,0,86.18142383040048,242.34172605344892Z" fill-rule="evenodd" style="fill: #184B42; stroke: #fff; opacity: 1;" id="p-type-logs"></path><path d="M97.72358674532764,280.4622979896378A297,297,0,0,1,95.92944673639117,281.0810225697386L83.07733784470096,243.42330606710078A257.2095449239783,257.2095449239783,0,0,0,84.63110867038598,242.88747486278768Z" fill-rule="evenodd" style="fill: #184B42; stroke: #fff; opacity: 1;" id="p-type-logs"></path><path d="M95.92944673639117,281.0810225697386A297,297,0,0,1,94.13138972694408,281.68827002215437L81.5201747970671,243.94919778727623A257.2095449239783,257.2095449239783,0,0,0,83.07733784470096,243.42330606710078Z" fill-rule="evenodd" style="fill: #184B42; stroke: #fff; opacity: 1;" id="p-type-logs"></path><path d="M94.13138972694408,281.68827002215437A297,297,0,0,1,92.32948913542523,282.2840155516982L79.95968310971759,244.4651285500522A257.2095449239783,257.2095449239783,0,0,0,81.5201747970671,243.94919778727623Z" fill-rule="evenodd" style="fill: #184B42; stroke: #fff; opacity: 1;" id="p-type-logs"></path><path d="M92.32948913542523,282.2840155516982A297,297,0,0,1,90.5238185372151,282.8682348328305L78.39592650080097,244.97107728889347A257.2095449239783,257.2095449239783,0,0,0,79.95968310971759,244.4651285500522Z" fill-rule="evenodd" style="fill: #184B42; stroke: #fff; opacity: 1;" id="p-type-logs"></path><path d="M90.5238185372151,282.8682348328305A297,297,0,0,1,88.71445166163134,283.4409040106528L76.82896882177936,245.4670233448519A257.2095449239783,257.2095449239783,0,0,0,78.39592650080097,244.97107728889347Z" fill-rule="evenodd" style="fill: #184B42; stroke: #fff; opacity: 1;" id="p-type-logs"></path><path d="M88.71445166163134,283.4409040106528A297,297,0,0,1,86.90146238891845,284.0019997018813L75.2588740548213,245.9529464674098A257.2095449239783,257.2095449239783,0,0,0,76.82896882177936,245.4670233448519Z" fill-rule="evenodd" style="fill: #184B42; stroke: #fff; opacity: 1;" id="p-type-logs"></path><path d="M86.90146238891845,284.0019997018813A297,297,0,0,1,85.0849247472309,284.55149899580226L73.68570631018922,246.42882681530696A257.2095449239783,257.2095449239783,0,0,0,75.2588740548213,245.9529464674098Z" fill-rule="evenodd" style="fill: #184B42; stroke: #fff; opacity: 1;" id="p-type-logs"></path><path d="M85.0849247472309,284.55149899580226A297,297,0,0,1,83.2649129096106,285.08937945520694L72.10952982362164,246.89464495735064A257.2095449239783,257.2095449239783,0,0,0,73.68570631018922,246.42882681530696Z" fill-rule="evenodd" style="fill: #184B42; stroke: #fff; opacity: 1;" id="p-type-logs"></path><path d="M83.2649129096106,285.08937945520694A297,297,0,0,1,81.44150119095818,285.61561911730803L70.53040895371039,247.35038187320913A257.2095449239783,257.2095449239783,0,0,0,72.10952982362164,246.89464495735064Z" fill-rule="evenodd" style="fill: #184B42; stroke: #fff; opacity: 1;" id="p-type-logs"></path><path d="M-53.84624361373046,292.078041024468A297,297,0,0,1,-55.71151338239642,291.72800221549363L-48.24758587243202,252.64386091390048A257.2095449239783,257.2095449239783,0,0,0,-46.63221486785617,252.94700341478273Z" fill-rule="evenodd" style="fill: #AE497E; stroke: #fff; opacity: 1;" id="p-type-tokenTransfers"></path><path d="M-55.71151338239642,291.72800221549363A297,297,0,0,1,-57.57450833312283,291.36605154032475L-49.86098682688323,252.3304024342873A257.2095449239783,257.2095449239783,0,0,0,-48.24758587243202,252.64386091390048Z" fill-rule="evenodd" style="fill: #AE497E; stroke: #fff; opacity: 1;" id="p-type-tokenTransfers"></path><path d="M-57.57450833312283,291.36605154032475A297,297,0,0,1,-59.43515239591845,290.99220377816647L-51.47235185266492,252.00664077511027A257.2095449239783,257.2095449239783,0,0,0,-49.86098682688323,252.3304024342873Z" fill-rule="evenodd" style="fill: #AE497E; stroke: #fff; opacity: 1;" id="p-type-tokenTransfers"></path><path d="M-59.43515239591845,290.99220377816647A297,297,0,0,1,-61.29336959678371,290.60647419400703L-53.08161515436345,251.672589156237A257.2095449239783,257.2095449239783,0,0,0,-51.47235185266492,252.00664077511027Z" fill-rule="evenodd" style="fill: #AE497E; stroke: #fff; opacity: 1;" id="p-type-tokenTransfers"></path><path d="M-61.29336959678371,290.60647419400703A297,297,0,0,1,-63.14908406081292,290.2088785379944L-54.68871102238297,251.3282612176957A257.2095449239783,257.2095449239783,0,0,0,-53.08161515436345,251.672589156237Z" fill-rule="evenodd" style="fill: #AE497E; stroke: #fff; opacity: 1;" id="p-type-tokenTransfers"></path><path d="M-63.14908406081292,290.2088785379944A297,297,0,0,1,-65.00222001529238,289.7994330447931L-56.2935738356285,250.97367101911834A257.2095449239783,257.2095449239783,0,0,0,-54.68871102238297,251.3282612176957Z" fill-rule="evenodd" style="fill: #AE497E; stroke: #fff; opacity: 1;" id="p-type-tokenTransfers"></path><path d="M-65.00222001529238,289.7994330447931A297,297,0,0,1,-66.85270179279433,289.3781544329214L-57.89613806418538,250.60883303916643A257.2095449239783,257.2095449239783,0,0,0,-56.2935738356285,250.97367101911834Z" fill-rule="evenodd" style="fill: #AE497E; stroke: #fff; opacity: 1;" id="p-type-tokenTransfers"></path><path d="M-66.85270179279433,289.3781544329214A297,297,0,0,1,-68.70045383426664,288.9450599040686L-59.49633827199496,250.23376217493984A257.2095449239783,257.2095449239783,0,0,0,-57.89613806418538,250.60883303916643Z" fill-rule="evenodd" style="fill: #AE497E; stroke: #fff; opacity: 1;" id="p-type-tokenTransfers"></path><path d="M-68.70045383426664,288.9450599040686A297,297,0,0,1,-70.54540069211804,288.5001671423927L-61.094109119526536,249.84847374136868A257.2095449239783,257.2095449239783,0,0,0,-59.49633827199496,250.23376217493984Z" fill-rule="evenodd" style="fill: #AE497E; stroke: #fff; opacity: 1;" id="p-type-tokenTransfers"></path><path d="M-70.54540069211804,288.5001671423927A297,297,0,0,1,-72.38746703329873,288.0434943137982L-62.68938536644527,249.45298347058772A257.2095449239783,257.2095449239783,0,0,0,-61.094109119526536,249.84847374136868Z" fill-rule="evenodd" style="fill: #AE497E; stroke: #fff; opacity: 1;" id="p-type-tokenTransfers"></path><path d="M-72.38746703329873,288.0434943137982A297,297,0,0,1,-74.22657764237651,287.5750600651946L-64.28210187427611,249.04730751129432A257.2095449239783,257.2095449239783,0,0,0,-62.68938536644527,249.45298347058772Z" fill-rule="evenodd" style="fill: #AE497E; stroke: #fff; opacity: 1;" id="p-type-tokenTransfers"></path><path d="M-74.22657764237651,287.5750600651946A297,297,0,0,1,-76.0626574246079,287.0948835237346L-65.8721936090635,248.63146242808864A257.2095449239783,257.2095449239783,0,0,0,-64.28210187427611,249.04730751129432Z" fill-rule="evenodd" style="fill: #AE497E; stroke: #fff; opacity: 1;" id="p-type-tokenTransfers"></path><path d="M-76.0626574246079,287.0948835237346A297,297,0,0,1,-77.89563140900447,286.6029842960337L-67.45959564402689,248.2054652007977A257.2095449239783,257.2095449239783,0,0,0,-65.8721936090635,248.63146242808864Z" fill-rule="evenodd" style="fill: #AE497E; stroke: #fff; opacity: 1;" id="p-type-tokenTransfers"></path><path d="M-77.89563140900447,286.6029842960337A297,297,0,0,1,-79.72542475139393,286.0993824673689L-69.04424316221181,247.7693332237817A257.2095449239783,257.2095449239783,0,0,0,-67.45959564402689,248.2054652007977Z" fill-rule="evenodd" style="fill: #AE497E; stroke: #fff; opacity: 1;" id="p-type-tokenTransfers"></path><path d="M-79.72542475139393,286.0993824673689A297,297,0,0,1,-81.5519627374764,285.5840986008592L-70.6260714591365,247.32308430522403A257.2095449239783,257.2095449239783,0,0,0,-69.04424316221181,247.7693332237817Z" fill-rule="evenodd" style="fill: #AE497E; stroke: #fff; opacity: 1;" id="p-type-tokenTransfers"></path><path d="M-81.5519627374764,285.5840986008592A297,297,0,0,1,-83.37517078587491,285.0571537366256L-72.20501594543386,246.866736666404A257.2095449239783,257.2095449239783,0,0,0,-70.6260714591365,247.32308430522403Z" fill-rule="evenodd" style="fill: #AE497E; stroke: #fff; opacity: 1;" id="p-type-tokenTransfers"></path><path d="M-83.37517078587491,285.0571537366256A297,297,0,0,1,-85.19497445118094,284.51856939093204L-73.7810121494889,246.40030894095278A257.2095449239783,257.2095449239783,0,0,0,-72.20501594543386,246.866736666404Z" fill-rule="evenodd" style="fill: #AE497E; stroke: #fff; opacity: 1;" id="p-type-tokenTransfers"></path><path d="M-85.19497445118094,284.51856939093204A297,297,0,0,1,-87.01129942699399,283.9683675553071L-75.35399572007117,245.92382017409275A257.2095449239783,257.2095449239783,0,0,0,-73.7810121494889,246.40030894095278Z" fill-rule="evenodd" style="fill: #AE497E; stroke: #fff; opacity: 1;" id="p-type-tokenTransfers"></path><path d="M-87.01129942699399,283.9683675553071A297,297,0,0,1,-88.82407154895576,283.40657069564566L-76.92390242896228,245.4372898218596A257.2095449239783,257.2095449239783,0,0,0,-75.35399572007117,245.92382017409275Z" fill-rule="evenodd" style="fill: #AE497E; stroke: #fff; opacity: 1;" id="p-type-tokenTransfers"></path><path d="M-88.82407154895576,283.40657069564566A297,297,0,0,1,-90.63321679777849,282.8332017512917L-78.49066817357868,244.94073775030802A257.2095449239783,257.2095449239783,0,0,0,-76.92390242896228,245.4372898218596Z" fill-rule="evenodd" style="fill: #AE497E; stroke: #fff; opacity: 1;" id="p-type-tokenTransfers"></path><path d="M-90.63321679777849,282.8332017512917A297,297,0,0,1,-92.43866130226715,282.24828413410194L-80.05422897958887,244.4341842347006A257.2095449239783,257.2095449239783,0,0,0,-78.49066817357868,244.94073775030802Z" fill-rule="evenodd" style="fill: #AE497E; stroke: #fff; opacity: 1;" id="p-type-tokenTransfers"></path><path d="M-92.43866130226715,282.24828413410194A297,297,0,0,1,-94.24033134233596,281.6518417274894L-81.6145210035258,243.9176499586798A257.2095449239783,257.2095449239783,0,0,0,-80.05422897958887,244.4341842347006Z" fill-rule="evenodd" style="fill: #AE497E; stroke: #fff; opacity: 1;" id="p-type-tokenTransfers"></path><path d="M-94.24033134233596,281.6518417274894A297,297,0,0,1,-96.0381533520184,281.04389888544847L-83.17148053539357,243.39115601342348A257.2095449239783,257.2095449239783,0,0,0,-81.6145210035258,243.9176499586798Z" fill-rule="evenodd" style="fill: #AE497E; stroke: #fff; opacity: 1;" id="p-type-tokenTransfers"></path><path d="M-96.0381533520184,281.04389888544847A297,297,0,0,1,-97.83205392247109,280.4244804315606L-84.725044001269,242.8547238967837A257.2095449239783,257.2095449239783,0,0,0,-83.17148053539357,243.39115601342348Z" fill-rule="evenodd" style="fill: #AE497E; stroke: #fff; opacity: 1;" id="p-type-tokenTransfers"></path><path d="M-97.83205392247109,280.4244804315606A297,297,0,0,1,-99.62195980497124,279.7936116579803L-86.27514796589733,242.30837551240882A257.2095449239783,257.2095449239783,0,0,0,-84.725044001269,242.8547238967837Z" fill-rule="evenodd" style="fill: #AE497E; stroke: #fff; opacity: 1;" id="p-type-tokenTransfers"></path><path d="M-99.62195980497124,279.7936116579803A297,297,0,0,1,-101.40779791390757,279.15131832440284L-87.82172913528255,241.75213316884935A257.2095449239783,257.2095449239783,0,0,0,-86.27514796589733,242.30837551240882Z" fill-rule="evenodd" style="fill: #AE497E; stroke: #fff; opacity: 1;" id="p-type-tokenTransfers"></path><path d="M-101.40779791390757,279.15131832440284A297,297,0,0,1,-103.1894953297645,278.4976266570121L-89.36472435927175,241.18601957864678A257.2095449239783,257.2095449239783,0,0,0,-87.82172913528255,241.75213316884935Z" fill-rule="evenodd" style="fill: #AE497E; stroke: #fff; opacity: 1;" id="p-type-tokenTransfers"></path><path d="M-103.1894953297645,278.4976266570121A297,297,0,0,1,-104.96697930209966,277.83256334741L-90.90407063413367,240.61005785740636A257.2095449239783,257.2095449239783,0,0,0,-89.36472435927175,241.18601957864678Z" fill-rule="evenodd" style="fill: #AE497E; stroke: #fff; opacity: 1;" id="p-type-tokenTransfers"></path><path d="M-104.96697930209966,277.83256334741A297,297,0,0,1,-106.7401772525144,277.15615555152624L-92.43970510513134,240.0242715228532A257.2095449239783,257.2095449239783,0,0,0,-90.90407063413367,240.61005785740636Z" fill-rule="evenodd" style="fill: #AE497E; stroke: #fff; opacity: 1;" id="p-type-tokenTransfers"></path><path d="M-106.7401772525144,277.15615555152624A297,297,0,0,1,-108.50901677761732,276.4684308885099L-93.97156506908847,239.42868449387194A257.2095449239783,257.2095449239783,0,0,0,-92.43970510513134,240.0242715228532Z" fill-rule="evenodd" style="fill: #AE497E; stroke: #fff; opacity: 1;" id="p-type-tokenTransfers"></path><path d="M-108.50901677761732,276.4684308885099A297,297,0,0,1,-110.27342565198072,275.76941743960134L-95.49958797694987,238.82332108953017A257.2095449239783,257.2095449239783,0,0,0,-93.97156506908847,239.42868449387194Z" fill-rule="evenodd" style="fill: #AE497E; stroke: #fff; opacity: 1;" id="p-type-tokenTransfers"></path><path d="M-110.27342565198072,275.76941743960134A297,297,0,0,1,-112.03333183108958,275.05914374698574L-97.02371143633536,238.2082060280853A257.2095449239783,257.2095449239783,0,0,0,-95.49958797694987,238.82332108953017Z" fill-rule="evenodd" style="fill: #AE497E; stroke: #fff; opacity: 1;" id="p-type-tokenTransfers"></path><path d="M-112.03333183108958,275.05914374698574A297,297,0,0,1,-113.78866345428345,274.33763881262774L-98.54387321408743,237.58336442597545A257.2095449239783,257.2095449239783,0,0,0,-97.02371143633536,238.2082060280853Z" fill-rule="evenodd" style="fill: #AE497E; stroke: #fff; opacity: 1;" id="p-type-tokenTransfers"></path><path d="M-113.78866345428345,274.33763881262774A297,297,0,0,1,-115.53934884769056,273.60493209708716L-100.06001123881234,236.94882179679382A257.2095449239783,257.2095449239783,0,0,0,-98.54387321408743,237.58336442597545Z" fill-rule="evenodd" style="fill: #AE497E; stroke: #fff; opacity: 1;" id="p-type-tokenTransfers"></path><path d="M-115.53934884769056,273.60493209708716A297,297,0,0,1,-117.28531652715445,272.8610535183158L-101.57206360341462,236.30460405024678A257.2095449239783,257.2095449239783,0,0,0,-100.06001123881234,236.94882179679382Z" fill-rule="evenodd" style="fill: #AE497E; stroke: #fff; opacity: 1;" id="p-type-tokenTransfers"></path><path d="M-117.28531652715445,272.8610535183158A297,297,0,0,1,-119.02649520115276,272.1060334504363L-103.07996856762487,235.65073749109607A257.2095449239783,257.2095449239783,0,0,0,-101.57206360341462,236.30460405024678Z" fill-rule="evenodd" style="fill: #AE497E; stroke: #fff; opacity: 1;" id="p-type-tokenTransfers"></path><path d="M-119.02649520115276,272.1060334504363A297,297,0,0,1,-120.76281377370837,271.33990272250156L-104.58366456052077,234.98724881808474A257.2095449239783,257.2095449239783,0,0,0,-103.07996856762487,235.65073749109607Z" fill-rule="evenodd" style="fill: #AE497E; stroke: #fff; opacity: 1;" id="p-type-tokenTransfers"></path><path d="M-120.76281377370837,271.33990272250156A297,297,0,0,1,-122.49420134729226,270.56269261723617L-106.08309018304111,234.31416512284693A257.2095449239783,257.2095449239783,0,0,0,-104.58366456052077,234.98724881808474Z" fill-rule="evenodd" style="fill: #AE497E; stroke: #fff; opacity: 1;" id="p-type-tokenTransfers"></path><path d="M-122.49420134729226,270.56269261723617A297,297,0,0,1,-124.22058722571838,269.77443486975875L-107.57818421049284,233.63151388880155A257.2095449239783,257.2095449239783,0,0,0,-106.08309018304111,234.31416512284693Z" fill-rule="evenodd" style="fill: #AE497E; stroke: #fff; opacity: 1;" id="p-type-tokenTransfers"></path><path d="M-124.22058722571838,269.77443486975875A297,297,0,0,1,-125.94190091703044,268.97516166628634L-109.06888559505106,232.93932299003032A257.2095449239783,257.2095449239783,0,0,0,-107.57818421049284,233.63151388880155Z" fill-rule="evenodd" style="fill: #AE497E; stroke: #fff; opacity: 1;" id="p-type-tokenTransfers"></path><path d="M-125.94190091703044,268.97516166628634A297,297,0,0,1,-127.65807213638018,268.1649056428204L-110.55513346825165,232.2376206901394A257.2095449239783,257.2095449239783,0,0,0,-109.06888559505106,232.93932299003032Z" fill-rule="evenodd" style="fill: #AE497E; stroke: #fff; opacity: 1;" id="p-type-tokenTransfers"></path><path d="M-127.65807213638018,268.1649056428204A297,297,0,0,1,-129.3690308088973,267.3436998838136L-112.03686714347675,231.52643564110545A257.2095449239783,257.2095449239783,0,0,0,-110.55513346825165,232.2376206901394Z" fill-rule="evenodd" style="fill: #AE497E; stroke: #fff; opacity: 1;" id="p-type-tokenTransfers"></path><path d="M-129.3690308088973,267.3436998838136A297,297,0,0,1,-131.07470707255055,266.51157792081955L-113.51402611843262,230.80579688210562A257.2095449239783,257.2095449239783,0,0,0,-112.03686714347675,231.52643564110545Z" fill-rule="evenodd" style="fill: #AE497E; stroke: #fff; opacity: 1;" id="p-type-tokenTransfers"></path><path d="M-131.07470707255055,266.51157792081955A297,297,0,0,1,-132.7750312810008,265.6685737311232L-114.98655007762018,230.0757338383319A257.2095449239783,257.2095449239783,0,0,0,-113.51402611843262,230.80579688210562Z" fill-rule="evenodd" style="fill: #AE497E; stroke: #fff; opacity: 1;" id="p-type-tokenTransfers"></path><path d="M-132.7750312810008,265.6685737311232A297,297,0,0,1,-134.46993400644425,264.8147217363539L-116.4543788947977,229.33627631978965A257.2095449239783,257.2095449239783,0,0,0,-114.98655007762018,230.0757338383319Z" fill-rule="evenodd" style="fill: #AE497E; stroke: #fff; opacity: 1;" id="p-type-tokenTransfers"></path><path d="M-134.46993400644425,264.8147217363539A297,297,0,0,1,-136.15934604244782,263.9500568010792L-117.91745263543599,228.58745452008014A257.2095449239783,257.2095449239783,0,0,0,-116.4543788947977,229.33627631978965Z" fill-rule="evenodd" style="fill: #AE497E; stroke: #fff; opacity: 1;" id="p-type-tokenTransfers"></path><path d="M-136.15934604244782,263.9500568010792A297,297,0,0,1,-137.8431984067748,263.0746142313821L-119.37571155916564,227.82929901516815A257.2095449239783,257.2095449239783,0,0,0,-117.91745263543599,228.58745452008014Z" fill-rule="evenodd" style="fill: #AE497E; stroke: #fff; opacity: 1;" id="p-type-tokenTransfers"></path><path d="M-137.8431984067748,263.0746142313821A297,297,0,0,1,-139.5214223442014,262.1884297734188L-120.82909612221621,227.061840762133A257.2095449239783,257.2095449239783,0,0,0,-119.37571155916564,227.82929901516815Z" fill-rule="evenodd" style="fill: #AE497E; stroke: #fff; opacity: 1;" id="p-type-tokenTransfers"></path><path d="M-139.5214223442014,262.1884297734188A297,297,0,0,1,-141.19394932932443,261.2915396119594L-122.27754697984774,226.28511109790483A257.2095449239783,257.2095449239783,0,0,0,-120.82909612221621,227.061840762133Z" fill-rule="evenodd" style="fill: #AE497E; stroke: #fff; opacity: 1;" id="p-type-tokenTransfers"></path><path d="M-141.19394932932443,261.2915396119594A297,297,0,0,1,-142.86071106935913,260.38398036891033L-123.72100498877376,225.49914173798493A257.2095449239783,257.2095449239783,0,0,0,-122.27754697984774,226.28511109790483Z" fill-rule="evenodd" style="fill: #AE497E; stroke: #fff; opacity: 1;" id="p-type-tokenTransfers"></path><path d="M-142.86071106935913,260.38398036891033A297,297,0,0,1,-144.5216395069278,259.465789101819L-125.15941120957625,224.70396477515078A257.2095449239783,257.2095449239783,0,0,0,-123.72100498877376,225.49914173798493Z" fill-rule="evenodd" style="fill: #AE497E; stroke: #fff; opacity: 1;" id="p-type-tokenTransfers"></path><path d="M-144.5216395069278,259.465789101819A297,297,0,0,1,-146.17666682283885,258.5370033023605L-126.59270690911238,223.8996126781455A257.2095449239783,257.2095449239783,0,0,0,-125.15941120957625,224.70396477515078Z" fill-rule="evenodd" style="fill: #AE497E; stroke: #fff; opacity: 1;" id="p-type-tokenTransfers"></path><path d="M-146.17666682283885,258.5370033023605A297,297,0,0,1,-147.82572543885564,257.5976608948072L-128.02083356291251,223.0861182903523A257.2095449239783,257.2095449239783,0,0,0,-126.59270690911238,223.8996126781455Z" fill-rule="evenodd" style="fill: #AE497E; stroke: #fff; opacity: 1;" id="p-type-tokenTransfers"></path><path d="M-147.82572543885564,257.5976608948072A297,297,0,0,1,-149.46874802045622,256.64780023447963L-129.44373285757013,222.26351482845317A257.2095449239783,257.2095449239783,0,0,0,-128.02083356291251,223.0861182903523Z" fill-rule="evenodd" style="fill: #AE497E; stroke: #fff; opacity: 1;" id="p-type-tokenTransfers"></path><path d="M-149.46874802045622,256.64780023447963A297,297,0,0,1,-151.10566747958254,255.68746010618085L-130.8613466931226,221.43183588107283A257.2095449239783,257.2095449239783,0,0,0,-129.44373285757013,222.26351482845317Z" fill-rule="evenodd" style="fill: #AE497E; stroke: #fff; opacity: 1;" id="p-type-tokenTransfers"></path><path d="M-151.10566747958254,255.68746010618085A297,297,0,0,1,-152.7364169773799,254.71667972261247L-132.2736171854238,220.59111540740702A257.2095449239783,257.2095449239783,0,0,0,-130.8613466931226,221.43183588107283Z" fill-rule="evenodd" style="fill: #AE497E; stroke: #fff; opacity: 1;" id="p-type-tokenTransfers"></path><path d="M-152.7364169773799,254.71667972261247A297,297,0,0,1,-154.36092992692588,253.73549872277368L-133.68048666850743,219.741387735836A257.2095449239783,257.2095449239783,0,0,0,-132.2736171854238,220.59111540740702Z" fill-rule="evenodd" style="fill: #AE497E; stroke: #fff; opacity: 1;" id="p-type-tokenTransfers"></path><path d="M-154.36092992692588,253.73549872277368A297,297,0,0,1,-155.9791399959496,252.74395717034258L-135.08189769694175,218.8826875625228A257.2095449239783,257.2095449239783,0,0,0,-133.68048666850743,219.741387735836Z" fill-rule="evenodd" style="fill: #AE497E; stroke: #fff; opacity: 1;" id="p-type-tokenTransfers"></path><path d="M-155.9791399959496,252.74395717034258A297,297,0,0,1,-157.59098110953997,251.74209555204035L-136.47779304817522,218.0150499499965A257.2095449239783,257.2095449239783,0,0,0,-135.08189769694175,218.8826875625228Z" fill-rule="evenodd" style="fill: #AE497E; stroke: #fff; opacity: 1;" id="p-type-tokenTransfers"></path></g></svg>