<svg xmlns="http://www.w3.org/2000/svg" width="600" height="600" id="block-7914268"><g id="burst-container" transform="translate(300,300)"><data type="text/json">{"number":7914268,"totalTransactions":42,"totalFunctions":0,"totalFunctionsValue":"0","totalLogs":123,"totalTokenTransfers":123,"tokens":{"0x174bfa6600bf90c885c7c01c7031389ed1461ab9":"228.54384904","0x3f17dd476faf0a4855572f0b6ed5115d9bba22ad":"1.27e-7","0x4ddc2d193948926d02f9b1fe9e1daa0718270ed5":"4.9981218428e-8","0x8bcb64bfda77905398b67af0af084c744e777a20":"142.5","0x3d779a7fb80723c6385524d113792d119acd2267":"230","0x1d963688fe2209a98db35c67a041524822cf04ff":"2.7564e-14","0xf53ad2c6851052a81b42133467480961b2321c09":"17.285453445615509038","0xc02aaa39b223fe8d0a0e5c4f27ead9083c756cc2":"0.0035275179","0x6ebeaf8e8e946f0716e6533a6f2cefc83f60e8ab":"3.85516e-13","0x89d24a6b4ccb1b6faa2625fe562bdd9a23260359":"6","0x0d8775f648430679a709e98d2b0cb6250d2887ef":"2000","0xab22fd25ddbbb9c3d2c2ced0fd20e3f2bbb932bc":"8.821e-15","0x06a6a7af298129e3a2ab396c9c06f91d3c54aba8":"1.48328e-13","0x5acd07353106306a6530ac4d49233271ec372963":"100"},"totalEther":"1.084940486106480225","totalEtherTxns":17,"newContracts":[],"totalNewContracts":0}</data><circle r="297" style="fill: #f9f9f9; stroke: #f9f9f9; stroke-width: 3; opacity: 1;" id="circle-base"></circle><path display="none" d="M9.093002483669097e-15,-148.5A148.5,148.5,0,1,1,-9.093002483669097e-15,148.5A148.5,148.5,0,1,1,9.093002483669097e-15,-148.5Z" fill-rule="evenodd" id="p-type-root" style="stroke: #fff; opacity: 1;"></path><path d="M1.2859447435097075e-14,-210.0107140124046A210.0107140124046,210.0107140124046,0,1,1,-204.1592624126001,-49.22901147842683L-144.36239889399337,-34.810167847506A148.5,148.5,0,1,0,9.093002483669097e-15,-148.5Z" fill-rule="evenodd" style="fill: #4E4E4E; stroke: #fff; opacity: 1;" id="p-type-data"></path><path d="M-204.1592624126001,-49.22901147842683A210.0107140124046,210.0107140124046,0,0,1,-13.658288469733732,-209.56610211596131L-9.657868396350755,-148.18561191302874A148.5,148.5,0,0,0,-144.36239889399337,-34.810167847506Z" fill-rule="evenodd" style="fill: #3A86AD; stroke: #fff; opacity: 1;" id="p-type-value"></path><path d="M1.5749542295064867e-14,-257.2095449239783A257.2095449239783,257.2095449239783,0,0,1,255.31843353114735,31.132739988653526L208.46662802600468,25.419775755647496A210.0107140124046,210.0107140124046,0,0,0,1.2859447435097075e-14,-210.0107140124046Z" fill-rule="evenodd" style="fill: #184B42; stroke: #fff; opacity: 1;" id="p-type-logs"></path><path d="M255.31843353114735,31.132739988653526A257.2095449239783,257.2095449239783,0,0,1,37.88156775532903,254.40467138871176L30.930170552408146,207.72054436092483A210.0107140124046,210.0107140124046,0,0,0,208.46662802600468,25.419775755647496Z" fill-rule="evenodd" style="fill: #AE497E; stroke: #fff; opacity: 1;" id="p-type-tokenTransfers"></path><path d="M37.88156775532903,254.40467138871176A257.2095449239783,257.2095449239783,0,0,1,-109.71533382961442,232.6355422601118L-89.58219494722424,189.9461248576488A210.0107140124046,210.0107140124046,0,0,0,30.930170552408146,207.72054436092483Z" fill-rule="evenodd" style="fill: #F09B24; stroke: #fff; opacity: 1;" id="p-type-ether"></path><path d="M-250.0430095869216,-60.292979331880936A257.2095449239783,257.2095449239783,0,0,1,-162.4030290246446,-199.4542708583109L-132.60151793092857,-162.85373020724342A210.0107140124046,210.0107140124046,0,0,0,-204.1592624126001,-49.22901147842683Z" fill-rule="evenodd" style="fill: #AE497E; stroke: #fff; opacity: 1;" id="p-type-tokenTransfers"></path><path d="M-162.4030290246446,-199.4542708583109A257.2095449239783,257.2095449239783,0,0,1,-33.38500844154289,-255.03370602992484L-27.258745246763034,-208.2341489947604A210.0107140124046,210.0107140124046,0,0,0,-132.60151793092857,-162.85373020724342Z" fill-rule="evenodd" style="fill: #F09B24; stroke: #fff; opacity: 1;" id="p-type-ether"></path><path d="M1.8186004967338195e-14,-297A297,297,0,0,1,9.662984105878602,-296.84276433521086L8.36838971205613,-257.07337484388995A257.2095449239783,257.2095449239783,0,0,0,1.5749542295064867e-14,-257.2095449239783Z" fill-rule="evenodd" style="fill: #184B42; stroke: #fff; opacity: 1;" id="p-type-logs"></path><path d="M9.662984105878602,-296.84276433521086A297,297,0,0,1,19.31573679270167,-296.3712238260575L16.727918755293402,-256.6650087840497A257.2095449239783,257.2095449239783,0,0,0,8.36838971205613,-257.07337484388995Z" fill-rule="evenodd" style="fill: #184B42; stroke: #fff; opacity: 1;" id="p-type-logs"></path><path d="M19.31573679270167,-296.3712238260575A297,297,0,0,1,28.948037474706673,-295.58587775190307L25.069735842799908,-255.98487913306957A257.2095449239783,257.2095449239783,0,0,0,16.727918755293402,-256.6650087840497Z" fill-rule="evenodd" style="fill: #184B42; stroke: #fff; opacity: 1;" id="p-type-logs"></path><path d="M28.948037474706673,-295.58587775190307A297,297,0,0,1,38.54968722124585,-294.4875576576099L33.38500844154325,-255.0337060299248A257.2095449239783,257.2095449239783,0,0,0,25.069735842799908,-255.98487913306957Z" fill-rule="evenodd" style="fill: #184B42; stroke: #fff; opacity: 1;" id="p-type-logs"></path><path d="M38.54968722124585,-294.4875576576099A297,297,0,0,1,48.11051955567959,-293.0774264730782L41.66493212448655,-253.8124966014517A257.2095449239783,257.2095449239783,0,0,0,33.38500844154325,-255.0337060299248Z" fill-rule="evenodd" style="fill: #184B42; stroke: #fff; opacity: 1;" id="p-type-logs"></path><path d="M48.11051955567959,-293.0774264730782A297,297,0,0,1,57.62041121990675,-291.3569772819056L49.90073989294515,-252.3225438959758A257.2095449239783,257.2095449239783,0,0,0,41.66493212448655,-253.8124966014517Z" fill-rule="evenodd" style="fill: #184B42; stroke: #fff; opacity: 1;" id="p-type-logs"></path><path d="M57.62041121990675,-291.3569772819056A297,297,0,0,1,67.06929289313334,-289.32803174047115L58.08371145931258,-250.5654255141984A257.2095449239783,257.2095449239783,0,0,0,49.90073989294515,-252.3225438959758Z" fill-rule="evenodd" style="fill: #184B42; stroke: #fff; opacity: 1;" id="p-type-logs"></path><path d="M67.06929289313334,-289.32803174047115A297,297,0,0,1,76.44715985353172,-286.9927381491186L66.20518248032833,-248.54300193879212A257.2095449239783,257.2095449239783,0,0,0,58.08371145931258,-250.5654255141984Z" fill-rule="evenodd" style="fill: #184B42; stroke: #fff; opacity: 1;" id="p-type-logs"></path><path d="M76.44715985353172,-286.9927381491186A297,297,0,0,1,85.7440825715004,-284.3535691774797L74.25655373110988,-246.25741456447318A257.2095449239783,257.2095449239783,0,0,0,66.20518248032833,-248.54300193879212Z" fill-rule="evenodd" style="fill: #184B42; stroke: #fff; opacity: 1;" id="p-type-logs"></path><path d="M85.7440825715004,-284.3535691774797A297,297,0,0,1,94.9502172233083,-281.41331924634727L82.22930021023573,-243.71108343063705A257.2095449239783,257.2095449239783,0,0,0,74.25655373110988,-246.25741456447318Z" fill-rule="evenodd" style="fill: #184B42; stroke: #fff; opacity: 1;" id="p-type-logs"></path><path d="M94.9502172233083,-281.41331924634727A297,297,0,0,1,104.05581611399184,-278.17510156886993L90.11498016623908,-240.90670465895784A257.2095449239783,257.2095449239783,0,0,0,82.22930021023573,-243.71108343063705Z" fill-rule="evenodd" style="fill: #184B42; stroke: #fff; opacity: 1;" id="p-type-logs"></path><path d="M104.05581611399184,-278.17510156886993A297,297,0,0,1,113.05123799846758,-274.6423448542009L97.90524403595356,-237.84724759866444A257.2095449239783,257.2095449239783,0,0,0,90.11498016623908,-240.90670465895784Z" fill-rule="evenodd" style="fill: #184B42; stroke: #fff; opacity: 1;" id="p-type-logs"></path><path d="M113.05123799846758,-274.6423448542009A297,297,0,0,1,121.92695828993367,-270.8187896770916L105.59184328524822,-234.53595168251624A257.2095449239783,257.2095449239783,0,0,0,97.90524403595356,-237.84724759866444Z" fill-rule="evenodd" style="fill: #184B42; stroke: #fff; opacity: 1;" id="p-type-logs"></path><path d="M121.92695828993367,-270.8187896770916A297,297,0,0,1,130.67357914475042,-266.7084845172734L113.16663914279029,-230.9763229968074A257.2095449239783,257.2095449239783,0,0,0,105.59184328524822,-234.53595168251624Z" fill-rule="evenodd" style="fill: #184B42; stroke: #fff; opacity: 1;" id="p-type-logs"></path><path d="M130.67357914475042,-266.7084845172734A297,297,0,0,1,139.2818394131214,-262.3157814728223L120.62161121758778,-227.1721305690315A257.2095449239783,257.2095449239783,0,0,0,113.16663914279029,-230.9763229968074Z" fill-rule="evenodd" style="fill: #184B42; stroke: #fff; opacity: 1;" id="p-type-logs"></path><path d="M139.2818394131214,-262.3157814728223A297,297,0,0,1,147.74262444504,-257.64533165204426L127.94886599118844,-223.12740237713723A257.2095449239783,257.2095449239783,0,0,0,120.62161121758778,-227.1721305690315Z" fill-rule="evenodd" style="fill: #184B42; stroke: #fff; opacity: 1;" id="p-type-logs"></path><path d="M147.74262444504,-257.64533165204426A297,297,0,0,1,156.0469757411181,-252.70208024876032L135.1406451755423,-218.84642108460028A257.2095449239783,257.2095449239783,0,0,0,127.94886599118844,-223.12740237713723Z" fill-rule="evenodd" style="fill: #184B42; stroke: #fff; opacity: 1;" id="p-type-logs"></path><path d="M156.0469757411181,-252.70208024876032A297,297,0,0,1,164.18610043807845,-247.49126130620695L142.1893339276793,-214.3337195058279A257.2095449239783,257.2095449239783,0,0,0,135.1406451755423,-218.84642108460028Z" fill-rule="evenodd" style="fill: #184B42; stroke: #fff; opacity: 1;" id="p-type-logs"></path><path d="M164.18610043807845,-247.49126130620695A297,297,0,0,1,172.151380618867,-242.01839217509476L149.08746891250289,-209.59407580669708A257.2095449239783,257.2095449239783,0,0,0,142.1893339276793,-214.3337195058279Z" fill-rule="evenodd" style="fill: #184B42; stroke: #fff; opacity: 1;" id="p-type-logs"></path><path d="M172.151380618867,-242.01839217509476A297,297,0,0,1,179.93438243752777,-236.2892676716941L155.8277462051636,-204.6325084453082A257.2095449239783,257.2095449239783,0,0,0,149.08746891250289,-209.59407580669708Z" fill-rule="evenodd" style="fill: #184B42; stroke: #fff; opacity: 1;" id="p-type-logs"></path><path d="M179.93438243752777,-236.2892676716941A297,297,0,0,1,187.52686504917853,-230.30995394213247L162.40302902464478,-199.45427085831074A257.2095449239783,257.2095449239783,0,0,0,155.8277462051636,-204.6325084453082Z" fill-rule="evenodd" style="fill: #184B42; stroke: #fff; opacity: 1;" id="p-type-logs"></path><path d="M187.52686504917853,-230.30995394213247A297,297,0,0,1,194.9207893356318,-224.08678203940153L168.80635529037204,-194.06484589842822A257.2095449239783,257.2095449239783,0,0,0,162.40302902464478,-199.45427085831074Z" fill-rule="evenodd" style="fill: #184B42; stroke: #fff; opacity: 1;" id="p-type-logs"></path><path d="M194.9207893356318,-224.08678203940153A297,297,0,0,1,202.10832641742238,-217.62634121987315L175.03094499384534,-188.46994002907067A257.2095449239783,257.2095449239783,0,0,0,168.80635529037204,-194.06484589842822Z" fill-rule="evenodd" style="fill: #184B42; stroke: #fff; opacity: 1;" id="p-type-logs"></path><path d="M202.10832641742238,-217.62634121987315A297,297,0,0,1,209.08186594322868,-210.9354719664233L181.0702073774885,-182.6754772821829A257.2095449239783,257.2095449239783,0,0,0,175.03094499384534,-188.46994002907067Z" fill-rule="evenodd" style="fill: #184B42; stroke: #fff; opacity: 1;" id="p-type-logs"></path><path d="M209.08186594322868,-210.9354719664233A297,297,0,0,1,215.83402414791084,-204.0212587455509L186.91774791311477,-176.68759298572516A257.2095449239783,257.2095449239783,0,0,0,181.0702073774885,-182.6754772821829Z" fill-rule="evenodd" style="fill: #184B42; stroke: #fff; opacity: 1;" id="p-type-logs"></path><path d="M215.83402414791084,-204.0212587455509A297,297,0,0,1,222.35765167063337,-196.8910225061602L192.56737507261983,-170.5126272674284A257.2095449239783,257.2095449239783,0,0,0,186.91774791311477,-176.68759298572516Z" fill-rule="evenodd" style="fill: #184B42; stroke: #fff; opacity: 1;" id="p-type-logs"></path><path d="M294.81633265656296,35.94899162611948A297,297,0,0,1,293.4906418257162,45.52189759587351L254.1703515940699,39.42311974650023A257.2095449239783,257.2095449239783,0,0,0,255.31843353114735,31.132739988653526Z" fill-rule="evenodd" style="fill: #AE497E; stroke: #fff; opacity: 1;" id="p-type-tokenTransfers"></path><path d="M293.4906418257162,45.52189759587351A297,297,0,0,1,291.85419546505887,55.04660379572217L252.7531474738101,47.6717572791523A257.2095449239783,257.2095449239783,0,0,0,254.1703515940699,39.42311974650023Z" fill-rule="evenodd" style="fill: #AE497E; stroke: #fff; opacity: 1;" id="p-type-tokenTransfers"></path><path d="M291.85419546505887,55.04660379572217A297,297,0,0,1,289.9087262865871,64.51302521885565L251.06832174297392,55.86991871451513A257.2095449239783,257.2095449239783,0,0,0,252.7531474738101,47.6717572791523Z" fill-rule="evenodd" style="fill: #AE497E; stroke: #fff; opacity: 1;" id="p-type-tokenTransfers"></path><path d="M289.9087262865871,64.51302521885565A297,297,0,0,1,287.65629420369896,73.91113857190261L249.11765833889368,64.00892362589957A257.2095449239783,257.2095449239783,0,0,0,251.06832174297392,55.86991871451513Z" fill-rule="evenodd" style="fill: #AE497E; stroke: #fff; opacity: 1;" id="p-type-tokenTransfers"></path><path d="M287.65629420369896,73.91113857190261A297,297,0,0,1,285.09928415010444,83.23099288785413L246.9032226747486,72.08015422308362A257.2095449239783,257.2095449239783,0,0,0,249.11765833889368,64.00892362589957Z" fill-rule="evenodd" style="fill: #AE497E; stroke: #fff; opacity: 1;" id="p-type-tokenTransfers"></path><path d="M285.09928415010444,83.23099288785413A297,297,0,0,1,282.24040355459573,92.46272006240646L244.4273594526517,80.07506447705308A257.2095449239783,257.2095449239783,0,0,0,246.9032226747486,72.08015422308362Z" fill-rule="evenodd" style="fill: #AE497E; stroke: #fff; opacity: 1;" id="p-type-tokenTransfers"></path><path d="M282.24040355459573,92.46272006240646A297,297,0,0,1,279.0826794743513,101.59654530256671L241.69269018101818,87.98518916875935A257.2095449239783,257.2095449239783,0,0,0,244.4273594526517,80.07506447705308Z" fill-rule="evenodd" style="fill: #AE497E; stroke: #fff; opacity: 1;" id="p-type-tokenTransfers"></path><path d="M279.0826794743513,101.59654530256671A297,297,0,0,1,275.6294553898087,110.62279747645806L238.70211039884398,95.80215285231378A257.2095449239783,257.2095449239783,0,0,0,241.69269018101818,87.98518916875935Z" fill-rule="evenodd" style="fill: #AE497E; stroke: #fff; opacity: 1;" id="p-type-tokenTransfers"></path><path d="M275.6294553898087,110.62279747645806A297,297,0,0,1,271.88438766450054,119.53191935336598L235.45878660983394,103.51767872312773A257.2095449239783,257.2095449239783,0,0,0,238.70211039884398,95.80215285231378Z" fill-rule="evenodd" style="fill: #AE497E; stroke: #fff; opacity: 1;" id="p-type-tokenTransfers"></path><path d="M271.88438766450054,119.53191935336598A297,297,0,0,1,267.8514416736017,128.31447772318265L231.96615292962494,111.12359738160862A257.2095449239783,257.2095449239783,0,0,0,235.45878660983394,103.51767872312773Z" fill-rule="evenodd" style="fill: #AE497E; stroke: #fff; opacity: 1;" id="p-type-tokenTransfers"></path><path d="M267.8514416736017,128.31447772318265A297,297,0,0,1,263.5348876052869,136.96117338453553L228.22790744965525,118.61185548313289A257.2095449239783,257.2095449239783,0,0,0,231.96615292962494,111.12359738160862Z" fill-rule="evenodd" style="fill: #AE497E; stroke: #fff; opacity: 1;" id="p-type-tokenTransfers"></path><path d="M263.5348876052869,136.96117338453553A297,297,0,0,1,258.93929593934416,145.46285099102366L224.24800832152877,125.97452426513689A257.2095449239783,257.2095449239783,0,0,0,228.22790744965525,118.61185548313289Z" fill-rule="evenodd" style="fill: #AE497E; stroke: #fff; opacity: 1;" id="p-type-tokenTransfers"></path><path d="M258.93929593934416,145.46285099102366A297,297,0,0,1,254.06953260783203,153.8105087451367L220.03066956602134,133.20380794229695A257.2095449239783,257.2095449239783,0,0,0,224.24800832152877,125.97452426513689Z" fill-rule="evenodd" style="fill: #AE497E; stroke: #fff; opacity: 1;" id="p-type-tokenTransfers"></path><path d="M254.06953260783203,153.8105087451367A297,297,0,0,1,248.93075384290407,161.99530792959254L215.5803566111657,140.29205196090987A257.2095449239783,257.2095449239783,0,0,0,220.03066956602134,133.20380794229695Z" fill-rule="evenodd" style="fill: #AE497E; stroke: #fff; opacity: 1;" id="p-type-tokenTransfers"></path><path d="M248.93075384290407,161.99530792959254A297,297,0,0,1,243.5284007172559,170.00858226600104L210.90178156414012,147.23175110373353A257.2095449239783,257.2095449239783,0,0,0,215.5803566111657,140.29205196090987Z" fill-rule="evenodd" style="fill: #AE497E; stroke: #fff; opacity: 1;" id="p-type-tokenTransfers"></path><path d="M243.5284007172559,170.00858226600104A297,297,0,0,1,237.86819338297596,177.84184709094524L205.9998982219667,154.01555743670625A257.2095449239783,257.2095449239783,0,0,0,210.90178156414012,147.23175110373353Z" fill-rule="evenodd" style="fill: #AE497E; stroke: #fff; opacity: 1;" id="p-type-tokenTransfers"></path><path d="M237.86819338297596,177.84184709094524A297,297,0,0,1,231.9561250148997,185.48680833976366L200.87989682630223,160.6362880891306A257.2095449239783,257.2095449239783,0,0,0,205.9998982219667,154.01555743670625Z" fill-rule="evenodd" style="fill: #AE497E; stroke: #fff; opacity: 1;" id="p-type-tokenTransfers"></path><path d="M231.9561250148997,185.48680833976366A297,297,0,0,1,225.7984554648798,192.9353713285221L195.5471985678751,167.08693285908396A257.2095449239783,257.2095449239783,0,0,0,200.87989682630223,160.6362880891306Z" fill-rule="evenodd" style="fill: #AE497E; stroke: #fff; opacity: 1;" id="p-type-tokenTransfers"></path><path d="M225.7984554648798,192.9353713285221A297,297,0,0,1,219.40170463369236,200.17964932487524L190.00744984638757,173.36066163600242A257.2095449239783,257.2095449239783,0,0,0,195.5471985678751,167.08693285908396Z" fill-rule="evenodd" style="fill: #AE497E; stroke: #fff; opacity: 1;" id="p-type-tokenTransfers"></path><path d="M219.40170463369236,200.17964932487524A297,297,0,0,1,212.77264556759616,207.21197189874454L184.26651629196073,179.45083163258A257.2095449239783,257.2095449239783,0,0,0,190.00744984638757,173.36066163600242Z" fill-rule="evenodd" style="fill: #AE497E; stroke: #fff; opacity: 1;" id="p-type-tokenTransfers"></path><path d="M43.74186668172853,293.761211018742A297,297,0,0,1,35.48211160275213,294.8728874552726L30.72841002789793,255.36741142353574A257.2095449239783,257.2095449239783,0,0,0,37.88156775532903,254.40467138871176Z" fill-rule="evenodd" style="fill: #F09B24; stroke: #fff; opacity: 1;" id="p-type-ether"></path></g></svg>