<svg xmlns="http://www.w3.org/2000/svg" width="600" height="600" id="block-7914299"><g id="burst-container" transform="translate(300,300)"><data type="text/json">{"number":7914299,"totalTransactions":74,"totalFunctions":0,"totalFunctionsValue":"0","totalLogs":134,"totalTokenTransfers":134,"tokens":{"0xcc7d26d8ea6281bb363c8448515f2c61f7bc19f0":"200000","0x174bfa6600bf90c885c7c01c7031389ed1461ab9":"1.1726774","0xae785cbf3c9670c3e5a5dd0053dec05a4aada688":"1.655e-14","0x5c7f7e79b710a7bd29d8a381621e0268c98dcf06":"655.96","0x539efe69bcdd21a83efd9122571a64cc25e0282b":"9.04708654267e-7","0x4946fcea7c692606e8908002e55a582af44ac121":"1","0x89d24a6b4ccb1b6faa2625fe562bdd9a23260359":"9598.921551168","0x1af97824a7ccd3963b9385e37ecbf44ece0c73e4":"89","0x27054b13b1b798b345b591a4d22e6562d47ea75a":"1e-12","0x3597bfd533a99c9aa083587b074434e61eb0a258":"5.55184778571e-7","0xd0a4b8946cb52f0661273bfbc6fd0e0c75fc6433":"296.59815569","0x06a6a7af298129e3a2ab396c9c06f91d3c54aba8":"1.48277e-13","0x06012c8cf97bead5deae237070f9587f8e7a266d":"2.50474e-13","0x55370c60fca4929867f8e0e59acfc6198bdca274":"0.01","0xe019070ca3ee26f0fed7ced235a69992014c3181":"5.96274477067283612","0xed314bf44013612e8c00abd3cb6eade61cc8c72e":"6772.828094986756335011","0x693d04b55963b62ef2bb7f8f28b03b25023286ce":"0.01","0x3867ef780a3afcf1201ef4f2acc6a46e3bd1eb88":"1e-16","0x79d617768c70936f097cf6e82d1fdca15dc4417c":"5e-9","0x5acd07353106306a6530ac4d49233271ec372963":"100"},"totalEther":"38.752470222016930738","totalEtherTxns":21,"newContracts":["0x9811ed901899594619e1ef594753a3ab2f42abec"],"totalNewContracts":1}</data><circle r="297" style="fill: #f9f9f9; stroke: #f9f9f9; stroke-width: 3; opacity: 1;" id="circle-base"></circle><path display="none" d="M9.093002483669097e-15,-148.5A148.5,148.5,0,1,1,-9.093002483669097e-15,148.5A148.5,148.5,0,1,1,9.093002483669097e-15,-148.5Z" fill-rule="evenodd" id="p-type-root" style="stroke: #fff; opacity: 1;"></path><path d="M1.2859447435097075e-14,-210.0107140124046A210.0107140124046,210.0107140124046,0,1,1,-178.89739063300615,-110.00101647121997L-126.4995580531774,-77.78246468421275A148.5,148.5,0,1,0,9.093002483669097e-15,-148.5Z" fill-rule="evenodd" style="fill: #4E4E4E; stroke: #fff; opacity: 1;" id="p-type-data"></path><path d="M-178.89739063300615,-110.00101647121997A210.0107140124046,210.0107140124046,0,0,1,-7.135525796042367,-209.88945726647162L-5.045578677713095,-148.41425853268618A148.5,148.5,0,0,0,-126.4995580531774,-77.78246468421275Z" fill-rule="evenodd" style="fill: #3A86AD; stroke: #fff; opacity: 1;" id="p-type-value"></path><path d="M1.5749542295064867e-14,-257.2095449239783A257.2095449239783,257.2095449239783,0,0,1,248.27724085531088,67.19495273660031L202.71751828053087,54.864449165034294A210.0107140124046,210.0107140124046,0,0,0,1.2859447435097075e-14,-210.0107140124046Z" fill-rule="evenodd" style="fill: #184B42; stroke: #fff; opacity: 1;" id="p-type-logs"></path><path d="M248.27724085531088,67.19495273660031A257.2095449239783,257.2095449239783,0,0,1,38.58976249317794,254.298211222022L31.508409134492787,207.63361999881764A210.0107140124046,210.0107140124046,0,0,0,202.71751828053087,54.864449165034294Z" fill-rule="evenodd" style="fill: #AE497E; stroke: #fff; opacity: 1;" id="p-type-tokenTransfers"></path><path d="M38.58976249317794,254.298211222022A257.2095449239783,257.2095449239783,0,0,1,-195.71058117400295,166.89553144567415L-159.79702037995156,136.2696307975087A210.0107140124046,210.0107140124046,0,0,0,31.508409134492787,207.63361999881764Z" fill-rule="evenodd" style="fill: #F09B24; stroke: #fff; opacity: 1;" id="p-type-ether"></path><path d="M-219.103661683112,-134.72318077098836A257.2095449239783,257.2095449239783,0,0,1,-106.00451279990054,-234.34972427134562L-86.55232226402816,-191.34574860890902A210.0107140124046,210.0107140124046,0,0,0,-178.89739063300615,-110.00101647121997Z" fill-rule="evenodd" style="fill: #AE497E; stroke: #fff; opacity: 1;" id="p-type-tokenTransfers"></path><path d="M-106.00451279990054,-234.34972427134562A257.2095449239783,257.2095449239783,0,0,1,-17.468305506526516,-256.61568210600586L-14.262811720679867,-209.52582705199A210.0107140124046,210.0107140124046,0,0,0,-86.55232226402816,-191.34574860890902Z" fill-rule="evenodd" style="fill: #F09B24; stroke: #fff; opacity: 1;" id="p-type-ether"></path><path d="M1.8186004967338195e-14,-297A297,297,0,0,1,5.0463071440618235,-296.95712617178896L4.370230182056439,-257.17241509959007A257.2095449239783,257.2095449239783,0,0,0,1.5749542295064867e-14,-257.2095449239783Z" fill-rule="evenodd" style="fill: #184B42; stroke: #fff; opacity: 1;" id="p-type-logs"></path><path d="M5.0463071440618235,-296.95712617178896A297,297,0,0,1,10.091157355426022,-296.82851706537235L8.739198623385128,-257.0610363462752A257.2095449239783,257.2095449239783,0,0,0,4.370230182056439,-257.17241509959007Z" fill-rule="evenodd" style="fill: #184B42; stroke: #fff; opacity: 1;" id="p-type-logs"></path><path d="M10.091157355426022,-296.82851706537235A297,297,0,0,1,15.133094122029839,-296.61420981182573L13.105643947538805,-256.8754408204886A257.2095449239783,257.2095449239783,0,0,0,8.739198623385128,-257.0610363462752Z" fill-rule="evenodd" style="fill: #184B42; stroke: #fff; opacity: 1;" id="p-type-logs"></path><path d="M15.133094122029839,-296.61420981182573A297,297,0,0,1,20.170661772959043,-296.31426628436384L17.468305506526196,-256.61568210600586A257.2095449239783,257.2095449239783,0,0,0,13.105643947538805,-256.8754408204886Z" fill-rule="evenodd" style="fill: #184B42; stroke: #fff; opacity: 1;" id="p-type-logs"></path><path d="M20.170661772959043,-296.31426628436384A297,297,0,0,1,25.20240589871817,-295.9287730804767L21.825923744776723,-256.28183519845334A257.2095449239783,257.2095449239783,0,0,0,17.468305506526196,-256.61568210600586Z" fill-rule="evenodd" style="fill: #184B42; stroke: #fff; opacity: 1;" id="p-type-logs"></path><path d="M25.20240589871817,-295.9287730804767A297,297,0,0,1,30.22687377113719,-295.4578414969278L26.17724056279034,-255.87399648365562A257.2095449239783,257.2095449239783,0,0,0,21.825923744776723,-256.28183519845334Z" fill-rule="evenodd" style="fill: #184B42; stroke: #fff; opacity: 1;" id="p-type-logs"></path><path d="M30.22687377113719,-295.4578414969278A297,297,0,0,1,35.24261476279243,-294.9016074976218L30.520999680366735,-255.39228370980797A257.2095449239783,257.2095449239783,0,0,0,26.17724056279034,-255.87399648365562Z" fill-rule="evenodd" style="fill: #184B42; stroke: #fff; opacity: 1;" id="p-type-logs"></path><path d="M35.24261476279243,-294.9016074976218A297,297,0,0,1,40.248180765821026,-294.2602316743494L34.85594699930923,-254.83683595348094A257.2095449239783,257.2095449239783,0,0,0,30.520999680366735,-255.39228370980797Z" fill-rule="evenodd" style="fill: #184B42; stroke: #fff; opacity: 1;" id="p-type-logs"></path><path d="M40.248180765821026,-294.2602316743494A297,297,0,0,1,45.2421266100082,-293.53389920042287L39.18083096549905,-254.20781357946692A257.2095449239783,257.2095449239783,0,0,0,34.85594699930923,-254.83683595348094Z" fill-rule="evenodd" style="fill: #184B42; stroke: #fff; opacity: 1;" id="p-type-logs"></path><path d="M45.2421266100082,-293.53389920042287A297,297,0,0,1,50.22301048002582,-292.72281977721383L43.49440293023445,-253.5053981944811A257.2095449239783,257.2095449239783,0,0,0,39.18083096549905,-254.20781357946692Z" fill-rule="evenodd" style="fill: #184B42; stroke: #fff; opacity: 1;" id="p-type-logs"></path><path d="M50.22301048002582,-292.72281977721383A297,297,0,0,1,55.18939433170295,-291.8272275736104L47.79541751073166,-252.72979259472922A257.2095449239783,257.2095449239783,0,0,0,43.49440293023445,-253.5053981944811Z" fill-rule="evenodd" style="fill: #184B42; stroke: #fff; opacity: 1;" id="p-type-logs"></path><path d="M55.18939433170295,-291.8272275736104A297,297,0,0,1,60.1398443072073,-290.847381158409L52.08263294968248,-251.8812207073577A257.2095449239783,257.2095449239783,0,0,0,47.79541751073166,-252.72979259472922Z" fill-rule="evenodd" style="fill: #184B42; stroke: #fff; opacity: 1;" id="p-type-logs"></path><path d="M60.1398443072073,-290.847381158409A297,297,0,0,1,65.07293114901834,-289.78356342566275L56.354811473765594,-250.9599275258031A257.2095449239783,257.2095449239783,0,0,0,52.08263294968248,-251.8812207073577Z" fill-rule="evenodd" style="fill: #184B42; stroke: #fff; opacity: 1;" id="p-type-logs"></path><path d="M65.07293114901834,-289.78356342566275A297,297,0,0,1,69.98723061257168,-288.6360815130061L60.61071965100701,-249.96617903905928A257.2095449239783,257.2095449239783,0,0,0,56.354811473765594,-250.9599275258031Z" fill-rule="evenodd" style="fill: #184B42; stroke: #fff; opacity: 1;" id="p-type-logs"></path><path d="M69.98723061257168,-288.6360815130061A297,297,0,0,1,74.88132387745667,-287.40526671298045L64.84912874688773,-248.9002621548832A257.2095449239783,257.2095449239783,0,0,0,60.61071965100701,-249.96617903905928Z" fill-rule="evenodd" style="fill: #184B42; stroke: #fff; opacity: 1;" id="p-type-logs"></path><path d="M74.88132387745667,-287.40526671298045A297,297,0,0,1,79.75379795704771,-286.0914743773858L69.06881507909479,-247.76248461696093A257.2095449239783,257.2095449239783,0,0,0,64.84912874688773,-248.9002621548832Z" fill-rule="evenodd" style="fill: #184B42; stroke: #fff; opacity: 1;" id="p-type-logs"></path><path d="M79.75379795704771,-286.0914743773858A297,297,0,0,1,84.60324610645172,-284.69508381468614L73.26856037081409,-246.55317491605817A257.2095449239783,257.2095449239783,0,0,0,69.06881507909479,-247.76248461696093Z" fill-rule="evenodd" style="fill: #184B42; stroke: #fff; opacity: 1;" id="p-type-logs"></path><path d="M84.60324610645172,-284.69508381468614A297,297,0,0,1,89.4282682286526,-283.21649818049826L77.44715210246196,-245.27268219518072A257.2095449239783,257.2095449239783,0,0,0,73.26856037081409,-246.55317491605817Z" fill-rule="evenodd" style="fill: #184B42; stroke: #fff; opacity: 1;" id="p-type-logs"></path><path d="M89.4282682286526,-283.21649818049826A297,297,0,0,1,94.22747127873734,-281.65614436119574L81.6033838617551,-243.92137614877268A257.2095449239783,257.2095449239783,0,0,0,77.44715210246196,-245.27268219518072Z" fill-rule="evenodd" style="fill: #184B42; stroke: #fff; opacity: 1;" id="p-type-logs"></path><path d="M94.22747127873734,-281.65614436119574A297,297,0,0,1,98.99946966608563,-280.01447285066143L85.7360556920171,-242.4996469159808A257.2095449239783,257.2095449239783,0,0,0,81.6033838617551,-243.92137614877268Z" fill-rule="evenodd" style="fill: #184B42; stroke: #fff; opacity: 1;" id="p-type-logs"></path><path d="M98.99946966608563,-280.01447285066143A297,297,0,0,1,103.74288565440726,-278.291957620224L89.8439744386209,-241.00790496801642A257.2095449239783,257.2095449239783,0,0,0,85.7360556920171,-242.4996469159808Z" fill-rule="evenodd" style="fill: #184B42; stroke: #fff; opacity: 1;" id="p-type-logs"></path><path d="M103.74288565440726,-278.291957620224A297,297,0,0,1,108.45634975951238,-276.48909598181683L93.92595409346802,-239.44658098964734A257.2095449239783,257.2095449239783,0,0,0,89.8439744386209,-241.00790496801642Z" fill-rule="evenodd" style="fill: #184B42; stroke: #fff; opacity: 1;" id="p-type-logs"></path><path d="M108.45634975951238,-276.48909598181683A297,297,0,0,1,113.1385011446984,-274.6064084443972L97.98081613740361,-237.81612575485354A257.2095449239783,257.2095449239783,0,0,0,93.92595409346802,-239.44658098964734Z" fill-rule="evenodd" style="fill: #184B42; stroke: #fff; opacity: 1;" id="p-type-logs"></path><path d="M113.1385011446984,-274.6064084443972A297,297,0,0,1,117.78798801364105,-272.6444385636691L102.00738988047011,-236.11700999668312A257.2095449239783,257.2095449239783,0,0,0,97.98081613740361,-237.81612575485354Z" fill-rule="evenodd" style="fill: #184B42; stroke: #fff; opacity: 1;" id="p-type-logs"></path><path d="M117.78798801364105,-272.6444385636691A297,297,0,0,1,122.4034680006752,-270.60375278515204L106.00451279990035,-234.3497242713457A257.2095449239783,257.2095449239783,0,0,0,102.00738988047011,-236.11700999668312Z" fill-rule="evenodd" style="fill: #184B42; stroke: #fff; opacity: 1;" id="p-type-logs"></path><path d="M122.4034680006752,-270.60375278515204A297,297,0,0,1,126.98360855835247,-268.48494028064056L109.97103087575229,-232.5147788165826A257.2095449239783,257.2095449239783,0,0,0,106.00451279990035,-234.3497242713457Z" fill-rule="evenodd" style="fill: #184B42; stroke: #fff; opacity: 1;" id="p-type-logs"></path><path d="M126.98360855835247,-268.48494028064056A297,297,0,0,1,131.52708734216478,-266.2886127781032L113.90579892408938,-230.61270340435482A257.2095449239783,257.2095449239783,0,0,0,109.97103087575229,-232.5147788165826Z" fill-rule="evenodd" style="fill: #184B42; stroke: #fff; opacity: 1;" id="p-type-logs"></path><path d="M131.52708734216478,-266.2886127781032A297,297,0,0,1,136.03259259232183,-264.0154043850688L117.80768092760955,-228.64404718789103A257.2095449239783,257.2095449239783,0,0,0,113.90579892408938,-230.61270340435482Z" fill-rule="evenodd" style="fill: #184B42; stroke: #fff; opacity: 1;" id="p-type-logs"></path><path d="M136.03259259232183,-264.0154043850688A297,297,0,0,1,140.49882351247274,-261.6659714055518L121.67555036362779,-226.60937854314037A257.2095449239783,257.2095449239783,0,0,0,117.80768092760955,-228.64404718789103Z" fill-rule="evenodd" style="fill: #184B42; stroke: #fff; opacity: 1;" id="p-type-logs"></path><path d="M140.49882351247274,-261.6659714055518A297,297,0,0,1,144.92449064526258,-259.2409921505687L125.50829052931762,-224.50928490467473A257.2095449239783,257.2095449239783,0,0,0,121.67555036362779,-226.60937854314037Z" fill-rule="evenodd" style="fill: #184B42; stroke: #fff; opacity: 1;" id="p-type-logs"></path><path d="M144.92449064526258,-259.2409921505687A297,297,0,0,1,149.30831624461473,-256.74116674230123L129.30479486411713,-222.34437259608933A257.2095449239783,257.2095449239783,0,0,0,125.50829052931762,-224.50928490467473Z" fill-rule="evenodd" style="fill: #184B42; stroke: #fff; opacity: 1;" id="p-type-logs"></path><path d="M149.30831624461473,-256.74116674230123A297,297,0,0,1,153.6490346446325,-254.16721691196236L133.06396726920707,-220.1152666549492A257.2095449239783,257.2095449239783,0,0,0,129.30479486411713,-222.34437259608933Z" fill-rule="evenodd" style="fill: #184B42; stroke: #fff; opacity: 1;" id="p-type-logs"></path><path d="M153.6490346446325,-254.16721691196236A297,297,0,0,1,157.945392625013,-251.51988579142304L136.7847224239686,-217.82261065233303A257.2095449239783,257.2095449239783,0,0,0,133.06396726920707,-220.1152666549492Z" fill-rule="evenodd" style="fill: #184B42; stroke: #fff; opacity: 1;" id="p-type-logs"></path><path d="M157.945392625013,-251.51988579142304A297,297,0,0,1,162.1961497728673,-248.799937698661L140.4659860993287,-215.4670665070261A257.2095449239783,257.2095449239783,0,0,0,136.7847224239686,-217.82261065233303Z" fill-rule="evenodd" style="fill: #184B42; stroke: #fff; opacity: 1;" id="p-type-logs"></path><path d="M162.1961497728673,-248.799937698661A297,297,0,0,1,166.40007884084386,-246.00815791709218L144.10669546790422,-213.0493142944157A257.2095449239783,257.2095449239783,0,0,0,140.4659860993287,-215.4670665070261Z" fill-rule="evenodd" style="fill: #184B42; stroke: #fff; opacity: 1;" id="p-type-logs"></path><path d="M166.40007884084386,-246.00815791709218A297,297,0,0,1,170.55596610144985,-243.14535246884955L147.70579941085316,-210.5700520501451A257.2095449239783,257.2095449239783,0,0,0,144.10669546790422,-213.0493142944157Z" fill-rule="evenodd" style="fill: #184B42; stroke: #fff; opacity: 1;" id="p-type-logs"></path><path d="M170.55596610144985,-243.14535246884955A297,297,0,0,1,174.66261169747,-240.21234788207457L151.26225882134608,-208.02999556858168A257.2095449239783,257.2095449239783,0,0,0,147.70579941085316,-210.5700520501451Z" fill-rule="evenodd" style="fill: #184B42; stroke: #fff; opacity: 1;" id="p-type-logs"></path><path d="M174.66261169747,-240.21234788207457A297,297,0,0,1,178.71882998838032,-237.2099909522877L154.7750469045695,-205.42987819615803A257.2095449239783,257.2095449239783,0,0,0,151.26225882134608,-208.02999556858168Z" fill-rule="evenodd" style="fill: #184B42; stroke: #fff; opacity: 1;" id="p-type-logs"></path><path d="M178.71882998838032,-237.2099909522877A297,297,0,0,1,182.72344989265764,-234.13914849790805L158.24314947417446,-202.77045061964546A257.2095449239783,257.2095449239783,0,0,0,154.7750469045695,-205.42987819615803Z" fill-rule="evenodd" style="fill: #184B42; stroke: #fff; opacity: 1;" id="p-type-logs"></path><path d="M182.72344989265764,-234.13914849790805A297,297,0,0,1,186.67531522588564,-231.00070710999182L161.665565245085,-200.05248064942154A257.2095449239783,257.2095449239783,0,0,0,158.24314947417446,-202.77045061964546Z" fill-rule="evenodd" style="fill: #184B42; stroke: #fff; opacity: 1;" id="p-type-logs"></path><path d="M186.67531522588564,-231.00070710999182A297,297,0,0,1,190.57328503455986,-227.7955728962624L165.04130612258163,-197.27675299779318A257.2095449239783,257.2095449239783,0,0,0,161.665565245085,-200.05248064942154Z" fill-rule="evenodd" style="fill: #184B42; stroke: #fff; opacity: 1;" id="p-type-logs"></path><path d="M190.57328503455986,-227.7955728962624A297,297,0,0,1,194.41623392549548,-224.52467121950548L168.36939748757712,-194.44406905244057A257.2095449239783,257.2095449239783,0,0,0,165.04130612258163,-197.27675299779318Z" fill-rule="evenodd" style="fill: #184B42; stroke: #fff; opacity: 1;" id="p-type-logs"></path><path d="M194.41623392549548,-224.52467121950548A297,297,0,0,1,198.20305239074247,-221.18894643040505L171.648878478001,-191.5552466450461A257.2095449239783,257.2095449239783,0,0,0,168.36939748757712,-194.44406905244057Z" fill-rule="evenodd" style="fill: #184B42; stroke: #fff; opacity: 1;" id="p-type-logs"></path><path d="M198.20305239074247,-221.18894643040505A297,297,0,0,1,201.93264712791472,-217.78936159489766L174.87880226621292,-188.61111981517635A257.2095449239783,257.2095449239783,0,0,0,171.648878478001,-191.5552466450461Z" fill-rule="evenodd" style="fill: #184B42; stroke: #fff; opacity: 1;" id="p-type-logs"></path><path d="M201.93264712791472,-217.78936159489766A297,297,0,0,1,205.60394135584005,-214.32689821612286L178.05823633236344,-185.6125385694841A257.2095449239783,257.2095449239783,0,0,0,174.87880226621292,-188.61111981517635Z" fill-rule="evenodd" style="fill: #184B42; stroke: #fff; opacity: 1;" id="p-type-logs"></path><path d="M205.60394135584005,-214.32689821612286A297,297,0,0,1,209.21587512544085,-210.8025559510509L181.1862627336246,-182.56036863630058A257.2095449239783,257.2095449239783,0,0,0,178.05823633236344,-185.6125385694841Z" fill-rule="evenodd" style="fill: #184B42; stroke: #fff; opacity: 1;" id="p-type-logs"></path><path d="M209.21587512544085,-210.8025559510509A297,297,0,0,1,212.76740562575438,-207.21735232186927L184.2619783692114,-179.45549121568914A257.2095449239783,257.2095449239783,0,0,0,181.1862627336246,-182.56036863630058Z" fill-rule="evenodd" style="fill: #184B42; stroke: #fff; opacity: 1;" id="p-type-logs"></path><path d="M212.76740562575438,-207.21735232186927A297,297,0,0,1,216.25750748500593,-203.5723224222109L187.28449524111852,-176.29880272503115A257.2095449239783,257.2095449239783,0,0,0,184.2619783692114,-179.45549121568914Z" fill-rule="evenodd" style="fill: #184B42; stroke: #fff; opacity: 1;" id="p-type-logs"></path><path d="M216.25750748500593,-203.5723224222109A297,297,0,0,1,219.68517306664634,-199.86851861830976L190.2529407104967,-173.0912145402193A257.2095449239783,257.2095449239783,0,0,0,187.28449524111852,-176.29880272503115Z" fill-rule="evenodd" style="fill: #184B42; stroke: #fff; opacity: 1;" id="p-type-logs"></path><path d="M219.68517306664634,-199.86851861830976A297,297,0,0,1,223.04941276026943,-196.10701024516936L193.16645774959426,-169.83365273253185A257.2095449239783,257.2095449239783,0,0,0,190.2529407104967,-173.0912145402193Z" fill-rule="evenodd" style="fill: #184B42; stroke: #fff; opacity: 1;" id="p-type-logs"></path><path d="M223.04941276026943,-196.10701024516936A297,297,0,0,1,226.3492552673251,-192.2888832978321L196.02420518919223,-166.52705780126382A257.2095449239783,257.2095449239783,0,0,0,193.16645774959426,-169.83365273253185Z" fill-rule="evenodd" style="fill: #184B42; stroke: #fff; opacity: 1;" id="p-type-logs"></path><path d="M226.3492552673251,-192.2888832978321A297,297,0,0,1,229.58374788154563,-188.4152401178389L198.82535796146033,-163.1723844021934A257.2095449239783,257.2095449239783,0,0,0,196.02420518919223,-166.52705780126382Z" fill-rule="evenodd" style="fill: #184B42; stroke: #fff; opacity: 1;" id="p-type-logs"></path><path d="M229.58374788154563,-188.4152401178389A297,297,0,0,1,232.75195676400372,-184.48719907496928L201.56910733816454,-159.77060107196039A257.2095449239783,257.2095449239783,0,0,0,198.82535796146033,-163.1723844021934Z" fill-rule="evenodd" style="fill: #184B42; stroke: #fff; opacity: 1;" id="p-type-logs"></path><path d="M232.75195676400372,-184.48719907496928A297,297,0,0,1,235.85296721272385,-180.50589424435367L204.25466116415717,-156.32268994843758A257.2095449239783,257.2095449239783,0,0,0,201.56910733816454,-159.77060107196039Z" fill-rule="evenodd" style="fill: #184B42; stroke: #fff; opacity: 1;" id="p-type-logs"></path><path d="M286.68586368294257,77.59004810132073A297,297,0,0,1,285.32615144552886,82.44990783065265L247.09969551587403,71.40371472103072A257.2095449239783,257.2095449239783,0,0,0,248.27724085531088,67.19495273660031Z" fill-rule="evenodd" style="fill: #AE497E; stroke: #fff; opacity: 1;" id="p-type-tokenTransfers"></path><path d="M285.32615144552886,82.44990783065265A297,297,0,0,1,283.8840619394203,87.28596322877685L245.85080936905305,75.59186154991514A257.2095449239783,257.2095449239783,0,0,0,247.09969551587403,71.40371472103072Z" fill-rule="evenodd" style="fill: #AE497E; stroke: #fff; opacity: 1;" id="p-type-tokenTransfers"></path><path d="M283.8840619394203,87.28596322877685A297,297,0,0,1,282.3600115140966,92.096818065334L244.53094298407427,79.75818405229288A257.2095449239783,257.2095449239783,0,0,0,245.85080936905305,75.59186154991514Z" fill-rule="evenodd" style="fill: #AE497E; stroke: #fff; opacity: 1;" id="p-type-tokenTransfers"></path><path d="M282.3600115140966,92.096818065334A297,297,0,0,1,280.7544401821916,96.88108338568567L243.14047742305655,83.9014793581623A257.2095449239783,257.2095449239783,0,0,0,244.53094298407427,79.75818405229288Z" fill-rule="evenodd" style="fill: #AE497E; stroke: #fff; opacity: 1;" id="p-type-tokenTransfers"></path><path d="M280.7544401821916,96.88108338568567A297,297,0,0,1,279.067811492456,101.63737791192301L241.6798141309938,88.02055124576472A257.2095449239783,257.2095449239783,0,0,0,243.14047742305655,83.9014793581623Z" fill-rule="evenodd" style="fill: #AE497E; stroke: #fff; opacity: 1;" id="p-type-tokenTransfers"></path><path d="M279.067811492456,101.63737791192301A297,297,0,0,1,277.30061239592465,106.36432844165924L240.14937481985277,92.1142104869486A257.2095449239783,257.2095449239783,0,0,0,241.6798141309938,88.02055124576472Z" fill-rule="evenodd" style="fill: #AE497E; stroke: #fff; opacity: 1;" id="p-type-tokenTransfers"></path><path d="M277.30061239592465,106.36432844165924A297,297,0,0,1,275.4533531053282,111.06057024449046L238.5496013468194,96.18127519051487A257.2095449239783,257.2095449239783,0,0,0,240.14937481985277,92.1142104869486Z" fill-rule="evenodd" style="fill: #AE497E; stroke: #fff; opacity: 1;" id="p-type-tokenTransfers"></path><path d="M275.4533531053282,111.06057024449046A297,297,0,0,1,273.5265669477876,115.72474745601073L236.88095558672904,100.22057114344388A257.2095449239783,257.2095449239783,0,0,0,238.5496013468194,96.18127519051487Z" fill-rule="evenodd" style="fill: #AE497E; stroke: #fff; opacity: 1;" id="p-type-tokenTransfers"></path><path d="M273.5265669477876,115.72474745601073A297,297,0,0,1,271.5208102108365,120.35551346926704L235.1439192987176,104.23093214990543A257.2095449239783,257.2095449239783,0,0,0,236.88095558672904,100.22057114344388Z" fill-rule="evenodd" style="fill: #AE497E; stroke: #fff; opacity: 1;" id="p-type-tokenTransfers"></path><path d="M271.5208102108365,120.35551346926704A297,297,0,0,1,269.43666198181324,124.95153132354199L233.33899398713115,108.21120036795438A257.2095449239783,257.2095449239783,0,0,0,235.1439192987176,104.23093214990543Z" fill-rule="evenodd" style="fill: #AE497E; stroke: #fff; opacity: 1;" id="p-type-tokenTransfers"></path><path d="M269.43666198181324,124.95153132354199A297,297,0,0,1,267.27472398067187,129.5114740903511L231.46670075673572,112.16022664381417A257.2095449239783,257.2095449239783,0,0,0,233.33899398713115,108.21120036795438Z" fill-rule="evenodd" style="fill: #AE497E; stroke: #fff; opacity: 1;" id="p-type-tokenTransfers"></path><path d="M267.27472398067187,129.5114740903511A297,297,0,0,1,265.035620386257,134.03402525654397L229.52758016226744,116.07687084365213A257.2095449239783,257.2095449239783,0,0,0,231.46670075673572,112.16022664381417Z" fill-rule="evenodd" style="fill: #AE497E; stroke: #fff; opacity: 1;" id="p-type-tokenTransfers"></path><path d="M265.035620386257,134.03402525654397A297,297,0,0,1,262.71999765609644,138.51787910439825L227.5221920523677,119.96000218275056A257.2095449239783,257.2095449239783,0,0,0,229.52758016226744,116.07687084365213Z" fill-rule="evenodd" style="fill: #AE497E; stroke: #fff; opacity: 1;" id="p-type-tokenTransfers"></path><path d="M262.71999765609644,138.51787910439825A297,297,0,0,1,260.32852433976,142.9617410885968L225.45111540794773,123.8084995519784A257.2095449239783,257.2095449239783,0,0,0,227.5221920523677,119.96000218275056Z" fill-rule="evenodd" style="fill: #AE497E; stroke: #fff; opacity: 1;" id="p-type-tokenTransfers"></path><path d="M260.32852433976,142.9617410885968A297,297,0,0,1,257.86189088584126,147.36432820997928L223.31494817502954,127.62125184146984A257.2095449239783,257.2095449239783,0,0,0,225.45111540794773,123.8084995519784Z" fill-rule="evenodd" style="fill: #AE497E; stroke: #fff; opacity: 1;" id="p-type-tokenTransfers"></path><path d="M257.86189088584126,147.36432820997928A297,297,0,0,1,255.32080944261605,151.72436938596036L221.1143070921113,131.39715826141563A257.2095449239783,257.2095449239783,0,0,0,223.31494817502954,127.62125184146984Z" fill-rule="evenodd" style="fill: #AE497E; stroke: #fff; opacity: 1;" id="p-type-tokenTransfers"></path><path d="M255.32080944261605,151.72436938596036A297,297,0,0,1,252.7060136524363,156.0406058175072L218.84982751210703,135.1351286598751A257.2095449239783,257.2095449239783,0,0,0,221.1143070921113,131.39715826141563Z" fill-rule="evenodd" style="fill: #AE497E; stroke: #fff; opacity: 1;" id="p-type-tokenTransfers"></path><path d="M252.7060136524363,156.0406058175072A297,297,0,0,1,250.01825843991836,160.3117913525708L216.52216321891243,138.8340838375168A257.2095449239783,257.2095449239783,0,0,0,218.84982751210703,135.1351286598751Z" fill-rule="evenodd" style="fill: #AE497E; stroke: #fff; opacity: 1;" id="p-type-tokenTransfers"></path><path d="M250.01825843991836,160.3117913525708A297,297,0,0,1,247.25831979398643,164.5366928458657L214.13198623864895,142.492955859197A257.2095449239783,257.2095449239783,0,0,0,216.52216321891243,138.8340838375168Z" fill-rule="evenodd" style="fill: #AE497E; stroke: #fff; opacity: 1;" id="p-type-tokenTransfers"></path><path d="M247.25831979398643,164.5366928458657A297,297,0,0,1,244.42699454383495,168.71409051489468L211.67998664564146,146.110688362286A257.2095449239783,257.2095449239783,0,0,0,214.13198623864895,142.492955859197Z" fill-rule="evenodd" style="fill: #AE497E; stroke: #fff; opacity: 1;" id="p-type-tokenTransfers"></path><path d="M244.42699454383495,168.71409051489468A297,297,0,0,1,241.52510012887402,172.84277829211547L209.1668723631851,149.68623686165353A257.2095449239783,257.2095449239783,0,0,0,211.67998664564146,146.110688362286Z" fill-rule="evenodd" style="fill: #AE497E; stroke: #fff; opacity: 1;" id="p-type-tokenTransfers"></path><path d="M241.52510012887402,172.84277829211547A297,297,0,0,1,238.553474362724,176.92156417314763L206.59336895915877,153.21856905122468A257.2095449239783,257.2095449239783,0,0,0,209.1668723631851,149.68623686165353Z" fill-rule="evenodd" style="fill: #AE497E; stroke: #fff; opacity: 1;" id="p-type-tokenTransfers"></path><path d="M238.553474362724,176.92156417314763A297,297,0,0,1,235.5129751913283,180.94927056091927L203.9602194365446,156.70666510201974A257.2095449239783,257.2095449239783,0,0,0,206.59336895915877,153.21856905122468Z" fill-rule="evenodd" style="fill: #AE497E; stroke: #fff; opacity: 1;" id="p-type-tokenTransfers"></path><path d="M235.5129751913283,180.94927056091927A297,297,0,0,1,232.40448044525377,184.9247346056543L201.26818401891356,160.14951795659192A257.2095449239783,257.2095449239783,0,0,0,203.9602194365446,156.70666510201974Z" fill-rule="evenodd" style="fill: #AE497E; stroke: #fff; opacity: 1;" id="p-type-tokenTransfers"></path><path d="M232.40448044525377,184.9247346056543A297,297,0,0,1,229.2288875862493,188.8468085406017L198.51803993093924,163.54613361977718A257.2095449239783,257.2095449239783,0,0,0,201.26818401891356,160.14951795659192Z" fill-rule="evenodd" style="fill: #AE497E; stroke: #fff; opacity: 1;" id="p-type-tokenTransfers"></path><path d="M229.2288875862493,188.8468085406017A297,297,0,0,1,225.98711344813793,192.7143600134106L195.7105811740034,166.8955314456736A257.2095449239783,257.2095449239783,0,0,0,198.51803993093924,163.54613361977718Z" fill-rule="evenodd" style="fill: #AE497E; stroke: #fff; opacity: 1;" id="p-type-tokenTransfers"></path><path d="M225.98711344813793,192.7143600134106A297,297,0,0,1,222.68009397211492,196.52627241305444L192.84661829695756,170.19674442076607A257.2095449239783,257.2095449239783,0,0,0,195.7105811740034,166.8955314456736Z" fill-rule="evenodd" style="fill: #AE497E; stroke: #fff; opacity: 1;" id="p-type-tokenTransfers"></path><path d="M222.68009397211492,196.52627241305444A297,297,0,0,1,219.30878393652972,200.28144519221078L189.9269781621074,173.44881944311527A257.2095449239783,257.2095449239783,0,0,0,192.84661829695756,170.19674442076607Z" fill-rule="evenodd" style="fill: #AE497E; stroke: #fff; opacity: 1;" id="p-type-tokenTransfers"></path><path d="M219.30878393652972,200.28144519221078A297,297,0,0,1,215.87415668122964,203.97879418500327L186.95250370648708,176.65081759753036A257.2095449239783,257.2095449239783,0,0,0,189.9269781621074,173.44881944311527Z" fill-rule="evenodd" style="fill: #AE497E; stroke: #fff; opacity: 1;" id="p-type-tokenTransfers"></path><path d="M215.87415668122964,203.97879418500327A297,297,0,0,1,212.377203826544,207.61725192001407L183.9240536984928,179.8018144266457A257.2095449239783,257.2095449239783,0,0,0,186.95250370648708,176.65081759753036Z" fill-rule="evenodd" style="fill: #AE497E; stroke: #fff; opacity: 1;" id="p-type-tokenTransfers"></path><path d="M212.377203826544,207.61725192001407A297,297,0,0,1,208.81893498699102,211.1957679284763L180.84250248994536,182.9009001978233A257.2095449239783,257.2095449239783,0,0,0,183.9240536984928,179.8018144266457Z" fill-rule="evenodd" style="fill: #AE497E; stroke: #fff; opacity: 1;" id="p-type-tokenTransfers"></path><path d="M208.81893498699102,211.1957679284763A297,297,0,0,1,205.20037747978927,214.71330904755763L177.70873976365374,185.94718016580407A257.2095449239783,257.2095449239783,0,0,0,180.84250248994536,182.9009001978233Z" fill-rule="evenodd" style="fill: #AE497E; stroke: #fff; opacity: 1;" id="p-type-tokenTransfers"></path><path d="M205.20037747978927,214.71330904755763A297,297,0,0,1,201.5225760282582,218.16885971864752L174.52367027655254,188.93977483103228A257.2095449239783,257.2095449239783,0,0,0,177.70873976365374,185.94718016580407Z" fill-rule="evenodd" style="fill: #AE497E; stroke: #fff; opacity: 1;" id="p-type-tokenTransfers"></path><path d="M44.55961952680001,293.63828140694943A297,297,0,0,1,-58.03725328647665,291.2742302898788L-50.26173571196068,252.2508828987939A257.2095449239783,257.2095449239783,0,0,0,38.58976249317794,254.298211222022Z" fill-rule="evenodd" style="fill: #F09B24; stroke: #fff; opacity: 1;" id="p-type-ether"></path><path d="M-58.03725328647665,291.2742302898788A297,297,0,0,1,-93.7681979065339,281.80937717074124L-81.20564145414518,244.05407965453236A257.2095449239783,257.2095449239783,0,0,0,-50.26173571196068,252.2508828987939Z" fill-rule="evenodd" style="fill: #F09B24; stroke: #fff; opacity: 1;" id="p-type-ether"></path><path d="M-93.7681979065339,281.80937717074124A297,297,0,0,1,-103.24077331854895,278.4786216652689L-89.40913240021405,241.16956077299844A257.2095449239783,257.2095449239783,0,0,0,-81.20564145414518,244.05407965453236Z" fill-rule="evenodd" style="fill: #F09B24; stroke: #fff; opacity: 1;" id="p-type-ether"></path><path d="M-103.24077331854895,278.4786216652689A297,297,0,0,1,-111.92224345680721,275.1043645956843L-96.92750608214172,238.24736843183888A257.2095449239783,257.2095449239783,0,0,0,-89.40913240021405,241.16956077299844Z" fill-rule="evenodd" style="fill: #F09B24; stroke: #fff; opacity: 1;" id="p-type-ether"></path><path d="M-111.92224345680721,275.1043645956843A297,297,0,0,1,-118.43426659953731,272.3643230950591L-102.56708355377816,235.87442288487384A257.2095449239783,257.2095449239783,0,0,0,-96.92750608214172,238.24736843183888Z" fill-rule="evenodd" style="fill: #F09B24; stroke: #fff; opacity: 1;" id="p-type-ether"></path><path d="M-118.43426659953731,272.3643230950591A297,297,0,0,1,-124.61398412617932,269.59294308308654L-107.91887592006208,233.4743373909652A257.2095449239783,257.2095449239783,0,0,0,-102.56708355377816,235.87442288487384Z" fill-rule="evenodd" style="fill: #F09B24; stroke: #fff; opacity: 1;" id="p-type-ether"></path><path d="M-124.61398412617932,269.59294308308654A297,297,0,0,1,-129.17715356663447,267.43646534536407L-111.87069657726906,231.60677288740197A257.2095449239783,257.2095449239783,0,0,0,-107.91887592006208,233.4743373909652Z" fill-rule="evenodd" style="fill: #F09B24; stroke: #fff; opacity: 1;" id="p-type-ether"></path><path d="M-129.17715356663447,267.43646534536407A297,297,0,0,1,-133.70250113082344,265.2030188202279L-115.78976252881074,229.67255145863996A257.2095449239783,257.2095449239783,0,0,0,-111.87069657726906,231.60677288740197Z" fill-rule="evenodd" style="fill: #F09B24; stroke: #fff; opacity: 1;" id="p-type-ether"></path><path d="M-133.70250113082344,265.2030188202279A297,297,0,0,1,-138.09951423172063,262.9401532078408L-119.59768757496069,227.7128523529625A257.2095449239783,257.2095449239783,0,0,0,-115.78976252881074,229.67255145863996Z" fill-rule="evenodd" style="fill: #F09B24; stroke: #fff; opacity: 1;" id="p-type-ether"></path><path d="M-138.09951423172063,262.9401532078408A297,297,0,0,1,-141.36132914613614,261.20102339393264L-122.42250215328748,226.20672175363916A257.2095449239783,257.2095449239783,0,0,0,-119.59768757496069,227.7128523529625Z" fill-rule="evenodd" style="fill: #F09B24; stroke: #fff; opacity: 1;" id="p-type-ether"></path></g></svg>