<svg xmlns="http://www.w3.org/2000/svg" width="600" height="600" id="block-7914281"><g id="burst-container" transform="translate(300,300)"><data type="text/json">{"number":7914281,"totalTransactions":64,"totalFunctions":0,"totalFunctionsValue":"0","totalLogs":113,"totalTokenTransfers":113,"tokens":{"0x2af5d2ad76741191d15dfe7bf6ac92d4bd912ca3":"328.42624","0x174bfa6600bf90c885c7c01c7031389ed1461ab9":"0.37245109","0x68d57c9a1c35f63e2c83ee8e49a64e9d70528d25":"2018.521957","0xff56cc6b1e6ded347aa0b7676c85ab0b3d08b0fa":"27895.73","0x1c95b093d6c236d3ef7c796fe33f9cc6b8606714":"2e-18","0x048fe49be32adfc9ed68c37d32b5ec9df17b3603":"559.41","0xc9c4d9ec2b44b241361707679d3db0876ac10ca6":"80985","0x1af97824a7ccd3963b9385e37ecbf44ece0c73e4":"89","0xe251524df2bc0b83716749dc71975f173a5ef35c":"5.467125e-9","0xed314bf44013612e8c00abd3cb6eade61cc8c72e":"7000","0xe019070ca3ee26f0fed7ced235a69992014c3181":"0","0x55370c60fca4929867f8e0e59acfc6198bdca274":"1.02072690202096909","0x693d04b55963b62ef2bb7f8f28b03b25023286ce":"0.010310372747686556","0x276528880ac7e202f3db20d74402ea0a9c8774a8":"2.689212e-12","0xfa80eae6b2d0dd2f787a5efae2275aae97cbd542":"100","0xc0f1728d9513efc316d0e93a0758c992f88b0809":"1.09e-7","0x8c124ca2bcc831b464771b3b92d1432e99eeecb7":"50","0x58b6a8a3302369daec383334672404ee733ab239":"611.007908026192813883","0x06a6a7af298129e3a2ab396c9c06f91d3c54aba8":"1.48337e-13"},"totalEther":"27.325609253843819242","totalEtherTxns":20,"newContracts":[],"totalNewContracts":0}</data><circle r="297" style="fill: #f9f9f9; stroke: #f9f9f9; stroke-width: 3; opacity: 1;" id="circle-base"></circle><path display="none" d="M9.093002483669097e-15,-148.5A148.5,148.5,0,1,1,-9.093002483669097e-15,148.5A148.5,148.5,0,1,1,9.093002483669097e-15,-148.5Z" fill-rule="evenodd" id="p-type-root" style="stroke: #fff; opacity: 1;"></path><path d="M1.2859447435097075e-14,-210.0107140124046A210.0107140124046,210.0107140124046,0,1,1,-183.52397375447705,-102.0953037968251L-129.7710463520927,-72.19228164203571A148.5,148.5,0,1,0,9.093002483669097e-15,-148.5Z" fill-rule="evenodd" style="fill: #4E4E4E; stroke: #fff; opacity: 1;" id="p-type-data"></path><path d="M-183.52397375447705,-102.0953037968251A210.0107140124046,210.0107140124046,0,0,1,-8.584826807654835,-209.8351751939664L-6.070389251004795,-148.37587531112086A148.5,148.5,0,0,0,-129.7710463520927,-72.19228164203571Z" fill-rule="evenodd" style="fill: #3A86AD; stroke: #fff; opacity: 1;" id="p-type-value"></path><path d="M1.5749542295064867e-14,-257.2095449239783A257.2095449239783,257.2095449239783,0,0,1,250.53335268277885,58.221896169107644L204.55962587384906,47.537979157205456A210.0107140124046,210.0107140124046,0,0,0,1.2859447435097075e-14,-210.0107140124046Z" fill-rule="evenodd" style="fill: #184B42; stroke: #fff; opacity: 1;" id="p-type-logs"></path><path d="M250.53335268277885,58.221896169107644A257.2095449239783,257.2095449239783,0,0,1,50.482728727827755,252.2067487205538L41.21897540217325,205.9259480172303A210.0107140124046,210.0107140124046,0,0,0,204.55962587384906,47.537979157205456Z" fill-rule="evenodd" style="fill: #AE497E; stroke: #fff; opacity: 1;" id="p-type-tokenTransfers"></path><path d="M50.482728727827755,252.2067487205538A257.2095449239783,257.2095449239783,0,0,1,-179.0536262458842,184.65250858896883L-146.1966736324754,150.7681419226206A210.0107140124046,210.0107140124046,0,0,0,41.21897540217325,205.9259480172303Z" fill-rule="evenodd" style="fill: #F09B24; stroke: #fff; opacity: 1;" id="p-type-ether"></path><path d="M-224.7700456332004,-125.04069971832779A257.2095449239783,257.2095449239783,0,0,1,-121.20222741983532,-226.86288825735804L-98.96120428912022,-185.2327726015216A210.0107140124046,210.0107140124046,0,0,0,-183.52397375447705,-102.0953037968251Z" fill-rule="evenodd" style="fill: #AE497E; stroke: #fff; opacity: 1;" id="p-type-tokenTransfers"></path><path d="M-121.20222741983532,-226.86288825735804A257.2095449239783,257.2095449239783,0,0,1,-21.01086844650188,-256.3499432555502L-17.155302248891026,-209.3088521891733A210.0107140124046,210.0107140124046,0,0,0,-98.96120428912022,-185.2327726015216Z" fill-rule="evenodd" style="fill: #F09B24; stroke: #fff; opacity: 1;" id="p-type-ether"></path><path d="M1.8186004967338195e-14,-297A297,297,0,0,1,6.0716581423120815,-296.9379311698034L5.258210194336895,-257.1557917402448A257.2095449239783,257.2095449239783,0,0,0,1.5749542295064867e-14,-257.2095449239783Z" fill-rule="evenodd" style="fill: #184B42; stroke: #fff; opacity: 1;" id="p-type-logs"></path><path d="M6.0716581423120815,-296.9379311698034A297,297,0,0,1,12.14077850200962,-296.75175062224173L10.514222604460315,-256.99455465636595A257.2095449239783,257.2095449239783,0,0,0,5.258210194336895,-257.1557917402448Z" fill-rule="evenodd" style="fill: #184B42; stroke: #fff; opacity: 1;" id="p-type-logs"></path><path d="M12.14077850200962,-296.75175062224173A297,297,0,0,1,18.204824357200184,-296.441536175556L15.765840364769073,-256.7259010649152A257.2095449239783,257.2095449239783,0,0,0,10.514222604460315,-256.99455465636595Z" fill-rule="evenodd" style="fill: #184B42; stroke: #fff; opacity: 1;" id="p-type-logs"></path><path d="M18.204824357200184,-296.441536175556A297,297,0,0,1,24.261261106991444,-296.00741749067436L21.010868446501963,-256.34994325555016A257.2095449239783,257.2095449239783,0,0,0,15.765840364769073,-256.7259010649152Z" fill-rule="evenodd" style="fill: #184B42; stroke: #fff; opacity: 1;" id="p-type-logs"></path><path d="M24.261261106991444,-296.00741749067436A297,297,0,0,1,30.30755733088375,-295.44957601701714L26.247114575198623,-255.86683836807848A257.2095449239783,257.2095449239783,0,0,0,21.010868446501963,-256.34994325555016Z" fill-rule="evenodd" style="fill: #184B42; stroke: #fff; opacity: 1;" id="p-type-logs"></path><path d="M30.30755733088375,-295.44957601701714A297,297,0,0,1,36.341185846832246,-294.7682449166565L31.472390147008227,-255.2767883267778A257.2095449239783,257.2095449239783,0,0,0,26.247114575198623,-255.86683836807848Z" fill-rule="evenodd" style="fill: #184B42; stroke: #fff; opacity: 1;" id="p-type-logs"></path><path d="M36.341185846832246,-294.7682449166565A297,297,0,0,1,42.35962476753859,-293.96370896686096L36.68451114346492,-254.58003975599698A257.2095449239783,257.2095449239783,0,0,0,31.472390147008227,-255.2767883267778Z" fill-rule="evenodd" style="fill: #184B42; stroke: #fff; opacity: 1;" id="p-type-logs"></path><path d="M42.35962476753859,-293.96370896686096A297,297,0,0,1,48.36035855452845,-293.0363044410666L41.88129904434573,-253.77688387707437A257.2095449239783,257.2095449239783,0,0,0,36.68451114346492,-254.58003975599698Z" fill-rule="evenodd" style="fill: #184B42; stroke: #fff; opacity: 1;" id="p-type-logs"></path><path d="M48.36035855452845,-293.0363044410666A297,297,0,0,1,54.340879069576495,-291.9864189683241L47.060581738231335,-252.86765638661512A257.2095449239783,257.2095449239783,0,0,0,41.88129904434573,-253.77688387707437Z" fill-rule="evenodd" style="fill: #184B42; stroke: #fff; opacity: 1;" id="p-type-logs"></path><path d="M54.340879069576495,-291.9864189683241A297,297,0,0,1,60.29868662303725,-290.8144913712808L52.22019443038716,-251.8527373161796A257.2095449239783,257.2095449239783,0,0,0,47.060581738231335,-252.86765638661512Z" fill-rule="evenodd" style="fill: #184B42; stroke: #fff; opacity: 1;" id="p-type-logs"></path><path d="M60.29868662303725,-290.8144913712808A297,297,0,0,1,66.23129101864563,-289.52101148276523L57.35798054758725,-250.73255087344086A257.2095449239783,257.2095449239783,0,0,0,52.22019443038716,-251.8527373161796Z" fill-rule="evenodd" style="fill: #184B42; stroke: #fff; opacity: 1;" id="p-type-logs"></path><path d="M66.23129101864563,-289.52101148276523A297,297,0,0,1,72.13621259434866,-288.1065199410505L62.47179263950091,-249.50756526487768A257.2095449239783,257.2095449239783,0,0,0,57.35798054758725,-250.73255087344086Z" fill-rule="evenodd" style="fill: #184B42; stroke: #fff; opacity: 1;" id="p-type-logs"></path><path d="M72.13621259434866,-288.1065199410505A297,297,0,0,1,78.01098325873495,-286.57160796388285L67.55949327626702,-248.1782925000775A257.2095449239783,257.2095449239783,0,0,0,62.47179263950091,-249.50756526487768Z" fill-rule="evenodd" style="fill: #184B42; stroke: #fff; opacity: 1;" id="p-type-logs"></path><path d="M78.01098325873495,-286.57160796388285A297,297,0,0,1,83.85314752262718,-284.9169171013693L72.6189559418793,-246.74528817773077A257.2095449239783,257.2095449239783,0,0,0,67.55949327626702,-248.1782925000775Z" fill-rule="evenodd" style="fill: #184B42; stroke: #fff; opacity: 1;" id="p-type-logs"></path><path d="M83.85314752262718,-284.9169171013693A297,297,0,0,1,89.66026352540815,-283.1431389678273L77.64806592301078,-245.20915125340608A257.2095449239783,257.2095449239783,0,0,0,72.6189559418793,-246.74528817773077Z" fill-rule="evenodd" style="fill: #184B42; stroke: #fff; opacity: 1;" id="p-type-logs"></path><path d="M89.66026352540815,-283.1431389678273A297,297,0,0,1,95.42990405564937,-281.2510149527101L82.64472119290399,-243.57052378920395A257.2095449239783,257.2095449239783,0,0,0,77.64806592301078,-245.20915125340608Z" fill-rule="evenodd" style="fill: #184B42; stroke: #fff; opacity: 1;" id="p-type-logs"></path><path d="M95.42990405564937,-281.2510149527101A297,297,0,0,1,101.15965756561789,-279.24133591072604L87.60683328995978,-241.83009068539258A257.2095449239783,257.2095449239783,0,0,0,82.64472119290399,-243.57052378920395Z" fill-rule="evenodd" style="fill: #184B42; stroke: #fff; opacity: 1;" id="p-type-logs"></path><path d="M101.15965756561789,-279.24133591072604A297,297,0,0,1,106.8471291792349,-277.11494183128394L92.53232819065498,-239.98857939413892A257.2095449239783,257.2095449239783,0,0,0,87.60683328995978,-241.83009068539258Z" fill-rule="evenodd" style="fill: #184B42; stroke: #fff; opacity: 1;" id="p-type-logs"></path><path d="M106.8471291792349,-277.11494183128394A297,297,0,0,1,112.48994169306731,-274.872721487401L97.41914717642658,-238.046759615454A257.2095449239783,257.2095449239783,0,0,0,92.53232819065498,-239.98857939413892Z" fill-rule="evenodd" style="fill: #184B42; stroke: #fff; opacity: 1;" id="p-type-logs"></path><path d="M112.48994169306731,-274.872721487401A297,297,0,0,1,118.08573656993148,-272.51561206422053L102.26524769415778,-236.00544297548004A257.2095449239783,257.2095449239783,0,0,0,97.41914717642658,-238.046759615454Z" fill-rule="evenodd" style="fill: #184B42; stroke: #fff; opacity: 1;" id="p-type-logs"></path><path d="M118.08573656993148,-272.51561206422053A297,297,0,0,1,123.63217492469607,-270.044598767295L107.06860420990827,-233.8654826872534A257.2095449239783,257.2095449239783,0,0,0,102.26524769415778,-236.00544297548004Z" fill-rule="evenodd" style="fill: #184B42; stroke: #fff; opacity: 1;" id="p-type-logs"></path><path d="M123.63217492469607,-270.044598767295A297,297,0,0,1,129.12693850186977,-267.46071441079783L111.82720905553013,-231.62777319408562A257.2095449239783,257.2095449239783,0,0,0,107.06860420990827,-233.8654826872534Z" fill-rule="evenodd" style="fill: #184B42; stroke: #fff; opacity: 1;" id="p-type-logs"></path><path d="M129.12693850186977,-267.46071441079783A297,297,0,0,1,134.56773064456755,-264.76503898583576L116.53907326781719,-229.29324979571106A257.2095449239783,257.2095449239783,0,0,0,111.82720905553013,-231.62777319408562Z" fill-rule="evenodd" style="fill: #184B42; stroke: #fff; opacity: 1;" id="p-type-logs"></path><path d="M134.56773064456755,-264.76503898583576A297,297,0,0,1,139.9522772544483,-261.95869920904335L121.2022274198353,-226.86288825735807A257.2095449239783,257.2095449239783,0,0,0,116.53907326781719,-229.29324979571106Z" fill-rule="evenodd" style="fill: #184B42; stroke: #fff; opacity: 1;" id="p-type-logs"></path><path d="M139.9522772544483,-261.95869920904335A297,297,0,0,1,145.2783277422245,-259.0428680516466L125.81472244408798,-224.33770440190636A257.2095449239783,257.2095449239783,0,0,0,121.2022274198353,-226.86288825735807Z" fill-rule="evenodd" style="fill: #184B42; stroke: #fff; opacity: 1;" id="p-type-logs"></path><path d="M145.2783277422245,-259.0428680516466A297,297,0,0,1,150.5436559683449,-256.0187642491945L130.3746304471715,-221.71875368530164A257.2095449239783,257.2095449239783,0,0,0,125.81472244408798,-224.33770440190636Z" fill-rule="evenodd" style="fill: #184B42; stroke: #fff; opacity: 1;" id="p-type-logs"></path><path d="M150.5436559683449,-256.0187642491945A297,297,0,0,1,155.74606117345874,-252.88765179216097L134.8800455155805,-219.00713075540472A257.2095449239783,257.2095449239783,0,0,0,130.3746304471715,-221.71875368530164Z" fill-rule="evenodd" style="fill: #184B42; stroke: #fff; opacity: 1;" id="p-type-logs"></path><path d="M155.74606117345874,-252.88765179216097A297,297,0,0,1,160.8833688982711,-249.65083939763315L139.32908451232603,-216.2039689944593A257.2095449239783,257.2095449239783,0,0,0,134.8800455155805,-219.00713075540472Z" fill-rule="evenodd" style="fill: #184B42; stroke: #fff; opacity: 1;" id="p-type-logs"></path><path d="M160.8833688982711,-249.65083939763315A297,297,0,0,1,165.953431892406,-246.30967996230387L143.71988786403426,-213.31044004537006A257.2095449239783,257.2095449239783,0,0,0,139.32908451232603,-216.2039689944593Z" fill-rule="evenodd" style="fill: #184B42; stroke: #fff; opacity: 1;" id="p-type-logs"></path><path d="M165.953431892406,-246.30967996230387A297,297,0,0,1,170.95413101189666,-242.8655699969991L148.05062033819564,-210.327753321989A257.2095449239783,257.2095449239783,0,0,0,143.71988786403426,-213.31044004537006Z" fill-rule="evenodd" style="fill: #184B42; stroke: #fff; opacity: 1;" id="p-type-logs"></path><path d="M170.95413101189666,-242.8655699969991A297,297,0,0,1,175.88337610492812,-239.31994904297554L152.31947181024069,-207.25715550361417A257.2095449239783,257.2095449239783,0,0,0,148.05062033819564,-210.327753321989Z" fill-rule="evenodd" style="fill: #184B42; stroke: #fff; opacity: 1;" id="p-type-logs"></path><path d="M175.88337610492812,-239.31994904297554A297,297,0,0,1,180.73910688546218,-235.67429907023268L156.5246580201212,-204.09993001391283A257.2095449239783,257.2095449239783,0,0,0,152.31947181024069,-207.25715550361417Z" fill-rule="evenodd" style="fill: #184B42; stroke: #fff; opacity: 1;" id="p-type-logs"></path><path d="M180.73910688546218,-235.67429907023268A297,297,0,0,1,185.51929379437902,-231.93014385809118L160.664421318081,-200.85739648448637A257.2095449239783,257.2095449239783,0,0,0,156.5246580201212,-204.09993001391283Z" fill-rule="evenodd" style="fill: #184B42; stroke: #fff; opacity: 1;" id="p-type-logs"></path><path d="M185.51929379437902,-231.93014385809118A297,297,0,0,1,190.22193884777587,-228.08904835829586L164.7370313993039,-197.53091020330154A257.2095449239783,257.2095449239783,0,0,0,160.664421318081,-200.85739648448637Z" fill-rule="evenodd" style="fill: #184B42; stroke: #fff; opacity: 1;" id="p-type-logs"></path><path d="M190.22193884777587,-228.08904835829586A297,297,0,0,1,194.84507647206823,-224.15261804090952L168.7407860271327,-194.1218615482177A257.2095449239783,257.2095449239783,0,0,0,164.7370313993039,-197.53091020330154Z" fill-rule="evenodd" style="fill: #184B42; stroke: #fff; opacity: 1;" id="p-type-logs"></path><path d="M194.84507647206823,-224.15261804090952A297,297,0,0,1,199.3867743255445,-220.122498223272L172.67401174455642,-190.6316754058485A257.2095449239783,257.2095449239783,0,0,0,168.7407860271327,-194.1218615482177Z" fill-rule="evenodd" style="fill: #184B42; stroke: #fff; opacity: 1;" id="p-type-logs"></path><path d="M199.3867743255445,-220.122498223272A297,297,0,0,1,203.84513410603049,-216.0003733823033L176.5350645736681,-187.06181057599875A257.2095449239783,257.2095449239783,0,0,0,172.67401174455642,-190.6316754058485Z" fill-rule="evenodd" style="fill: #184B42; stroke: #fff; opacity: 1;" id="p-type-logs"></path><path d="M203.84513410603049,-216.0003733823033A297,297,0,0,1,208.21829234432636,-211.7879664504399L180.32233070280154,-183.41375916192737A257.2095449239783,257.2095449239783,0,0,0,176.5350645736681,-187.06181057599875Z" fill-rule="evenodd" style="fill: #184B42; stroke: #fff; opacity: 1;" id="p-type-logs"></path><path d="M208.21829234432636,-211.7879664504399A297,297,0,0,1,212.5044211830845,-207.487038095497L184.0342271610592,-179.68904594669A257.2095449239783,257.2095449239783,0,0,0,180.32233070280154,-183.41375916192737Z" fill-rule="evenodd" style="fill: #184B42; stroke: #fff; opacity: 1;" id="p-type-logs"></path><path d="M212.5044211830845,-207.487038095497A297,297,0,0,1,216.70172914080266,-203.0993859847592L187.6692024799497,-175.88922775582267A257.2095449239783,257.2095449239783,0,0,0,184.0342271610592,-179.68904594669Z" fill-rule="evenodd" style="fill: #184B42; stroke: #fff; opacity: 1;" id="p-type-logs"></path><path d="M216.70172914080266,-203.0993859847592A297,297,0,0,1,220.8084618606127,-198.62684403360578L191.22573734185792,-172.01589280663217A257.2095449239783,257.2095449239783,0,0,0,187.6692024799497,-175.88922775582267Z" fill-rule="evenodd" style="fill: #184B42; stroke: #fff; opacity: 1;" id="p-type-logs"></path><path d="M220.8084618606127,-198.62684403360578A297,297,0,0,1,224.82290284355273,-194.07128163898557L194.70234521507737,-168.070660044366A257.2095449239783,257.2095449239783,0,0,0,191.22573734185792,-172.01589280663217Z" fill-rule="evenodd" style="fill: #184B42; stroke: #fff; opacity: 1;" id="p-type-logs"></path><path d="M224.82290284355273,-194.07128163898557A297,297,0,0,1,228.74337416601526,-189.43460289806177L198.0975729751383,-164.05517846553875A257.2095449239783,257.2095449239783,0,0,0,194.70234521507737,-168.070660044366Z" fill-rule="evenodd" style="fill: #184B42; stroke: #fff; opacity: 1;" id="p-type-logs"></path><path d="M228.74337416601526,-189.43460289806177A297,297,0,0,1,232.5682371810723,-184.7187458123525L201.41000151217324,-159.97112642869766A257.2095449239783,257.2095449239783,0,0,0,198.0975729751383,-164.05517846553875Z" fill-rule="evenodd" style="fill: #184B42; stroke: #fff; opacity: 1;" id="p-type-logs"></path><path d="M289.29099722476366,67.22885485192947A297,297,0,0,1,287.856160262662,73.1288657018325L249.29074742330994,63.33145544772748A257.2095449239783,257.2095449239783,0,0,0,250.53335268277885,58.221896169107644Z" fill-rule="evenodd" style="fill: #AE497E; stroke: #fff; opacity: 1;" id="p-type-tokenTransfers"></path><path d="M287.856160262662,73.1288657018325A297,297,0,0,1,286.301007508423,78.99831073929296L247.94394563137368,68.41454395628475A257.2095449239783,257.2095449239783,0,0,0,249.29074742330994,63.33145544772748Z" fill-rule="evenodd" style="fill: #AE497E; stroke: #fff; opacity: 1;" id="p-type-tokenTransfers"></path><path d="M286.301007508423,78.99831073929296A297,297,0,0,1,284.6261889722302,84.83473670109622L246.4935102323016,73.4690371065134A257.2095449239783,257.2095449239783,0,0,0,247.94394563137368,68.41454395628475Z" fill-rule="evenodd" style="fill: #AE497E; stroke: #fff; opacity: 1;" id="p-type-tokenTransfers"></path><path d="M284.6261889722302,84.83473670109622A297,297,0,0,1,282.83240468120346,90.63570412507406L244.94004746736297,78.49282226220417A257.2095449239783,257.2095449239783,0,0,0,246.4935102323016,73.4690371065134Z" fill-rule="evenodd" style="fill: #AE497E; stroke: #fff; opacity: 1;" id="p-type-tokenTransfers"></path><path d="M282.83240468120346,90.63570412507406A297,297,0,0,1,280.920404386808,96.39878836973143L243.28420664037318,83.48379962222732A257.2095449239783,257.2095449239783,0,0,0,244.94004746736297,78.49282226220417Z" fill-rule="evenodd" style="fill: #AE497E; stroke: #fff; opacity: 1;" id="p-type-tokenTransfers"></path><path d="M280.920404386808,96.39878836973143A297,297,0,0,1,278.8909872514789,102.12158062767851L241.52667984630276,88.43988309819039A257.2095449239783,257.2095449239783,0,0,0,243.28420664037318,83.48379962222732Z" fill-rule="evenodd" style="fill: #AE497E; stroke: #fff; opacity: 1;" id="p-type-tokenTransfers"></path><path d="M278.8909872514789,102.12158062767851A297,297,0,0,1,276.7450015145937,107.80168893244452L239.6682016820011,93.35900118636471A257.2095449239783,257.2095449239783,0,0,0,241.52667984630276,88.43988309819039Z" fill-rule="evenodd" style="fill: #AE497E; stroke: #fff; opacity: 1;" id="p-type-tokenTransfers"></path><path d="M276.7450015145937,107.80168893244452A297,297,0,0,1,274.4833441379323,113.43673915825256L237.70954893915587,98.23909783351571A257.2095449239783,257.2095449239783,0,0,0,239.6682016820011,93.35900118636471Z" fill-rule="evenodd" style="fill: #AE497E; stroke: #fff; opacity: 1;" id="p-type-tokenTransfers"></path><path d="M274.4833441379323,113.43673915825256A297,297,0,0,1,272.10696043077195,119.02437601233757L235.65154027961555,103.07813329627551A257.2095449239783,257.2095449239783,0,0,0,237.70954893915587,98.23909783351571Z" fill-rule="evenodd" style="fill: #AE497E; stroke: #fff; opacity: 1;" id="p-type-tokenTransfers"></path><path d="M272.10696043077195,119.02437601233757A297,297,0,0,1,269.6168436547746,124.56226401939246L233.49503589321205,107.8740849936982A257.2095449239783,257.2095449239783,0,0,0,235.65154027961555,103.07813329627551Z" fill-rule="evenodd" style="fill: #AE497E; stroke: #fff; opacity: 1;" id="p-type-tokenTransfers"></path><path d="M269.6168436547746,124.56226401939246A297,297,0,0,1,267.0140346088315,130.04808849773133L231.24093713822535,112.62494835264219A257.2095449239783,257.2095449239783,0,0,0,233.49503589321205,107.8740849936982Z" fill-rule="evenodd" style="fill: #AE497E; stroke: #fff; opacity: 1;" id="p-type-tokenTransfers"></path><path d="M267.0140346088315,130.04808849773133A297,297,0,0,1,264.29962119403814,135.47955652676143L228.89018616464108,117.32873764562524A257.2095449239783,257.2095449239783,0,0,0,231.24093713822535,112.62494835264219Z" fill-rule="evenodd" style="fill: #AE497E; stroke: #fff; opacity: 1;" id="p-type-tokenTransfers"></path><path d="M264.29962119403814,135.47955652676143A297,297,0,0,1,261.47473795898276,140.85439790535935L226.44376552035834,121.98348682080282A257.2095449239783,257.2095449239783,0,0,0,228.89018616464108,117.32873764562524Z" fill-rule="evenodd" style="fill: #AE497E; stroke: #fff; opacity: 1;" id="p-type-tokenTransfers"></path><path d="M261.47473795898276,140.85439790535935A297,297,0,0,1,258.54056562553626,146.17036610075166L223.9026977405122,126.58725032372269A257.2095449239783,257.2095449239783,0,0,0,226.44376552035834,121.98348682080282Z" fill-rule="evenodd" style="fill: #AE497E; stroke: #fff; opacity: 1;" id="p-type-tokenTransfers"></path><path d="M258.54056562553626,146.17036610075166A297,297,0,0,1,255.49833059534404,151.42523918750234L221.26804492008281,131.13810391051192A257.2095449239783,257.2095449239783,0,0,0,223.9026977405122,126.58725032372269Z" fill-rule="evenodd" style="fill: #AE497E; stroke: #fff; opacity: 1;" id="p-type-tokenTransfers"></path><path d="M255.49833059534404,151.42523918750234A297,297,0,0,1,252.34930443722422,156.61682077621526L218.54090826996935,135.6341454521569A257.2095449239783,257.2095449239783,0,0,0,221.26804492008281,131.13810391051192Z" fill-rule="evenodd" style="fill: #AE497E; stroke: #fff; opacity: 1;" id="p-type-tokenTransfers"></path><path d="M252.34930443722422,156.61682077621526A297,297,0,0,1,249.09480335568793,161.74294093156325L215.72242765671498,140.07349572953967A257.2095449239783,257.2095449239783,0,0,0,218.54090826996935,135.6341454521569Z" fill-rule="evenodd" style="fill: #AE497E; stroke: #fff; opacity: 1;" id="p-type-tokenTransfers"></path><path d="M249.09480335568793,161.74294093156325A297,297,0,0,1,245.73618764080257,166.80145707926016L212.81378112607464,144.454299218899A257.2095449239783,257.2095449239783,0,0,0,215.72242765671498,140.07349572953967Z" fill-rule="evenodd" style="fill: #AE497E; stroke: #fff; opacity: 1;" id="p-type-tokenTransfers"></path><path d="M245.73618764080257,166.80145707926016A297,297,0,0,1,242.27486109962874,171.79025490159682L209.81618441062477,148.77472486738702A257.2095449239783,257.2095449239783,0,0,0,212.81378112607464,144.454299218899Z" fill-rule="evenodd" style="fill: #AE497E; stroke: #fff; opacity: 1;" id="p-type-tokenTransfers"></path><path d="M242.27486109962874,171.79025490159682A297,297,0,0,1,238.71227046946834,176.70724922116634L206.73089042162147,153.03296685839803A257.2095449239783,257.2095449239783,0,0,0,209.81618441062477,148.77472486738702Z" fill-rule="evenodd" style="fill: #AE497E; stroke: #fff; opacity: 1;" id="p-type-tokenTransfers"></path><path d="M238.71227046946834,176.70724922116634A297,297,0,0,1,235.04990481316915,181.55038487240984L203.55918872531868,157.22724536634897A257.2095449239783,257.2095449239783,0,0,0,206.73089042162147,153.03296685839803Z" fill-rule="evenodd" style="fill: #AE497E; stroke: #fff; opacity: 1;" id="p-type-tokenTransfers"></path><path d="M235.04990481316915,181.55038487240984A297,297,0,0,1,231.28929489673808,186.31763756061778L200.3024050039657,161.3558073005967A257.2095449239783,257.2095449239783,0,0,0,203.55918872531868,157.22724536634897Z" fill-rule="evenodd" style="fill: #AE497E; stroke: #fff; opacity: 1;" id="p-type-tokenTransfers"></path><path d="M231.28929489673808,186.31763756061778A297,297,0,0,1,227.43201254952427,191.00701470802852L196.9619005017093,165.41692703818063A257.2095449239783,257.2095449239783,0,0,0,200.3024050039657,161.3558073005967Z" fill-rule="evenodd" style="fill: #AE497E; stroke: #fff; opacity: 1;" id="p-type-tokenTransfers"></path><path d="M227.43201254952427,191.00701470802852A297,297,0,0,1,223.47967000723835,195.6165562866698L193.5390714556317,169.40890714508458A257.2095449239783,257.2095449239783,0,0,0,196.9619005017093,165.41692703818063Z" fill-rule="evenodd" style="fill: #AE497E; stroke: #fff; opacity: 1;" id="p-type-tokenTransfers"></path><path d="M223.47967000723835,195.6165562866698A297,297,0,0,1,219.43391923808323,200.1443356375952L190.03534851216295,173.3300790857166A257.2095449239783,257.2095449239783,0,0,0,193.5390714556317,169.40890714508458Z" fill-rule="evenodd" style="fill: #AE497E; stroke: #fff; opacity: 1;" id="p-type-tokenTransfers"></path><path d="M219.43391923808323,200.1443356375952A297,297,0,0,1,215.2964512522779,204.58846027617378L186.4521961291107,177.17880392030997A257.2095449239783,257.2095449239783,0,0,0,190.03534851216295,173.3300790857166Z" fill-rule="evenodd" style="fill: #AE497E; stroke: #fff; opacity: 1;" id="p-type-tokenTransfers"></path><path d="M215.2964512522779,204.58846027617378A297,297,0,0,1,211.06899539526236,208.9470726830953L182.7911119635579,180.9534729899541A257.2095449239783,257.2095449239783,0,0,0,186.4521961291107,177.17880392030997Z" fill-rule="evenodd" style="fill: #AE497E; stroke: #fff; opacity: 1;" id="p-type-tokenTransfers"></path><path d="M211.06899539526236,208.9470726830953A297,297,0,0,1,206.75331862488008,213.21835108076135L179.05362624588446,184.65250858896857A257.2095449239783,257.2095449239783,0,0,0,182.7911119635579,180.9534729899541Z" fill-rule="evenodd" style="fill: #AE497E; stroke: #fff; opacity: 1;" id="p-type-tokenTransfers"></path><path d="M58.292434040876415,291.2232685305041A297,297,0,0,1,-49.27190797323312,292.8844124986464L-42.670723997748915,253.64534159630833A257.2095449239783,257.2095449239783,0,0,0,50.482728727827755,252.2067487205538Z" fill-rule="evenodd" style="fill: #F09B24; stroke: #fff; opacity: 1;" id="p-type-ether"></path><path d="M-49.27190797323312,292.8844124986464A297,297,0,0,1,-72.44359174757355,288.02938394322007L-62.73799079478741,249.44076353121028A257.2095449239783,257.2095449239783,0,0,0,-42.670723997748915,253.64534159630833Z" fill-rule="evenodd" style="fill: #F09B24; stroke: #fff; opacity: 1;" id="p-type-ether"></path><path d="M-72.44359174757355,288.02938394322007A297,297,0,0,1,-88.54389749588249,283.4942295995435L-76.68126458151959,245.51320465950297A257.2095449239783,257.2095449239783,0,0,0,-62.73799079478741,249.44076353121028Z" fill-rule="evenodd" style="fill: #F09B24; stroke: #fff; opacity: 1;" id="p-type-ether"></path><path d="M-88.54389749588249,283.4942295995435A297,297,0,0,1,-95.91604137781347,281.08559729450667L-83.06572846362585,243.42726789496527A257.2095449239783,257.2095449239783,0,0,0,-76.68126458151959,245.51320465950297Z" fill-rule="evenodd" style="fill: #F09B24; stroke: #fff; opacity: 1;" id="p-type-ether"></path><path d="M-95.91604137781347,281.08559729450667A297,297,0,0,1,-98.78433776375357,280.0904400592363L-85.54974599943306,242.56543644846124A257.2095449239783,257.2095449239783,0,0,0,-83.06572846362585,243.42726789496527Z" fill-rule="evenodd" style="fill: #F09B24; stroke: #fff; opacity: 1;" id="p-type-ether"></path><path d="M-98.78433776375357,280.0904400592363A297,297,0,0,1,-100.72890128955416,279.3970086543506L-87.233787412049,241.96490723604828A257.2095449239783,257.2095449239783,0,0,0,-85.54974599943306,242.56543644846124Z" fill-rule="evenodd" style="fill: #F09B24; stroke: #fff; opacity: 1;" id="p-type-ether"></path></g></svg>