<svg xmlns="http://www.w3.org/2000/svg" width="600" height="600" id="block-7914261"><g id="burst-container" transform="translate(300,300)"><data type="text/json">{"number":7914261,"totalTransactions":134,"totalFunctions":0,"totalFunctionsValue":"0","totalLogs":136,"totalTokenTransfers":136,"tokens":{"0x174bfa6600bf90c885c7c01c7031389ed1461ab9":"14.90260513","0x5dab189977f37a58d9f52f3473f49bf5506a9517":"3.3114e-14","0x931abd3732f7eada74190c8f89b46f8ba7103d54":"1588","0xa15c7ebe1f07caf6bff097d8a589fb8ac49ae5b3":"2212575.436199524688006812","0xae785cbf3c9670c3e5a5dd0053dec05a4aada688":"2.7583e-13","0x9064c91e51d7021a85ad96817e1432abf6624470":"20151.4","0x0d8775f648430679a709e98d2b0cb6250d2887ef":"20.51169515","0x818fc6c2ec5986bc6e2cbf00939d90556ab12ce5":"1000","0xf629cbd94d3791c9250152bd8dfbdf380e2a3b9c":"15","0x048fe49be32adfc9ed68c37d32b5ec9df17b3603":"577.5","0xeef8102a0d46d508f171d7323bceffc592835f13":"55651","0xe474c6f011d3b0a9b63c2f85392c85f9bc4ef03f":"500","0x0cbc9b02b8628ae08688b5cc8134dc09e36c443b":"4.85607944e-10","0x08d32b0da63e2c3bcf8019c9c5d849d7a9d791e6":"5e-12","0x41e5560054824ea6b0732e656e3ad64e20e94e45":"4.927e-7","0x454b9f249bc1492ee995793bbc3e57b830f1a5e9":"2850","0x06012c8cf97bead5deae237070f9587f8e7a266d":"1.305918e-12","0xf9e5af7b42d31d51677c75bbbd37c1986ec79aee":"9.79882e-8","0x5c3a228510d246b78a3765c20221cbf3082b44a4":"41033.662888719999965716","0xa0b86991c6218b36c1d19d4a2e9eb0ce3606eb48":"5.901e-11","0x89d24a6b4ccb1b6faa2625fe562bdd9a23260359":"22500","0x9f8f72aa9304c8b593d555f12ef6589cc3a579a2":"0.65877","0xc02aaa39b223fe8d0a0e5c4f27ead9083c756cc2":"1.99972232","0x1af97824a7ccd3963b9385e37ecbf44ece0c73e4":"55"},"totalEther":"28.612867961904659004","totalEtherTxns":25,"newContracts":["0x199757e0a21f5858e276b3d63c5b83569b927516"],"totalNewContracts":1}</data><circle r="297" style="fill: #f9f9f9; stroke: #f9f9f9; stroke-width: 3; opacity: 1;" id="circle-base"></circle><path display="none" d="M9.093002483669097e-15,-148.5A148.5,148.5,0,1,1,-9.093002483669097e-15,148.5A148.5,148.5,0,1,1,9.093002483669097e-15,-148.5Z" fill-rule="evenodd" id="p-type-root" style="stroke: #fff; opacity: 1;"></path><path d="M1.2859447435097075e-14,-210.0107140124046A210.0107140124046,210.0107140124046,0,1,1,-186.56051457223344,-96.43481945098185L-131.918204955678,-68.18971477628963A148.5,148.5,0,1,0,9.093002483669097e-15,-148.5Z" fill-rule="evenodd" style="fill: #4E4E4E; stroke: #fff; opacity: 1;" id="p-type-data"></path><path d="M-186.56051457223344,-96.43481945098185A210.0107140124046,210.0107140124046,0,0,1,-3.734623975364598,-209.9775049469886L-2.640777938162169,-148.4765176446475A148.5,148.5,0,0,0,-131.918204955678,-68.18971477628963Z" fill-rule="evenodd" style="fill: #3A86AD; stroke: #fff; opacity: 1;" id="p-type-value"></path><path d="M1.5749542295064867e-14,-257.2095449239783A257.2095449239783,257.2095449239783,0,0,1,247.2823611323907,70.76852317796322L201.90520238833219,57.78225721211149A210.0107140124046,210.0107140124046,0,0,0,1.2859447435097075e-14,-210.0107140124046Z" fill-rule="evenodd" style="fill: #184B42; stroke: #fff; opacity: 1;" id="p-type-logs"></path><path d="M247.2823611323907,70.76852317796322A257.2095449239783,257.2095449239783,0,0,1,-95.31594846000272,238.8966721600996L-77.82514602547556,195.0583160137332A210.0107140124046,210.0107140124046,0,0,0,201.90520238833219,57.78225721211149Z" fill-rule="evenodd" style="fill: #AE497E; stroke: #fff; opacity: 1;" id="p-type-tokenTransfers"></path><path d="M-95.31594846000272,238.8966721600996A257.2095449239783,257.2095449239783,0,0,1,-194.31129874952862,168.5226073210103L-158.65451106461603,137.59813268663066A210.0107140124046,210.0107140124046,0,0,0,-77.82514602547556,195.0583160137332Z" fill-rule="evenodd" style="fill: #F09B24; stroke: #fff; opacity: 1;" id="p-type-ether"></path><path d="M-228.48903342651874,-118.10805054616388A257.2095449239783,257.2095449239783,0,0,1,-65.59331536005824,-248.7051808468733L-53.55671772320164,-203.0669298204838A210.0107140124046,210.0107140124046,0,0,0,-186.56051457223344,-96.43481945098185Z" fill-rule="evenodd" style="fill: #AE497E; stroke: #fff; opacity: 1;" id="p-type-tokenTransfers"></path><path d="M-65.59331536005824,-248.7051808468733A257.2095449239783,257.2095449239783,0,0,1,-9.146476556622755,-257.0468672569249L-7.468066836018079,-209.8778882534622A210.0107140124046,210.0107140124046,0,0,0,-53.55671772320164,-203.0669298204838Z" fill-rule="evenodd" style="fill: #F09B24; stroke: #fff; opacity: 1;" id="p-type-ether"></path><path d="M1.8186004967338195e-14,-297A297,297,0,0,1,2.640882341130875,-296.98825859023503L2.28707119582506,-257.1993765648456A257.2095449239783,257.2095449239783,0,0,0,1.5749542295064867e-14,-257.2095449239783Z" fill-rule="evenodd" style="fill: #184B42; stroke: #fff; opacity: 1;" id="p-type-logs"></path><path d="M2.640882341130875,-296.98825859023503A297,297,0,0,1,5.281555876324302,-296.953035289295L4.573961560403829,-257.16887229142634A257.2095449239783,257.2095449239783,0,0,0,2.28707119582506,-257.1993765648456Z" fill-rule="evenodd" style="fill: #184B42; stroke: #fff; opacity: 1;" id="p-type-logs"></path><path d="M5.281555876324302,-296.953035289295A297,297,0,0,1,7.921811816152472,-296.89433288217117L6.8604902767877824,-257.1180345155938A257.2095449239783,257.2095449239783,0,0,0,4.573961560403829,-257.16887229142634Z" fill-rule="evenodd" style="fill: #184B42; stroke: #fff; opacity: 1;" id="p-type-logs"></path><path d="M7.921811816152472,-296.89433288217117A297,297,0,0,1,10.561441404205462,-296.81215601027117L9.146476556622725,-257.0468672569249A257.2095449239783,257.2095449239783,0,0,0,6.8604902767877824,-257.1180345155938Z" fill-rule="evenodd" style="fill: #184B42; stroke: #fff; opacity: 1;" id="p-type-logs"></path><path d="M10.561441404205462,-296.81215601027117A297,297,0,0,1,13.200235933596863,-296.7065111710516L11.43173965444308,-256.955376142382A257.2095449239783,257.2095449239783,0,0,0,9.146476556622725,-257.0468672569249Z" fill-rule="evenodd" style="fill: #184B42; stroke: #fff; opacity: 1;" id="p-type-logs"></path><path d="M13.200235933596863,-296.7065111710516A297,297,0,0,1,15.837986763465837,-296.57740671750486L13.716098881963097,-256.84356840586884A257.2095449239783,257.2095449239783,0,0,0,11.43173965444308,-256.955376142382Z" fill-rule="evenodd" style="fill: #184B42; stroke: #fff; opacity: 1;" id="p-type-logs"></path><path d="M15.837986763465837,-296.57740671750486A297,297,0,0,1,18.474485335473243,-296.4248528574981L15.999373622362906,-256.7114528876576A257.2095449239783,257.2095449239783,0,0,0,13.716098881963097,-256.84356840586884Z" fill-rule="evenodd" style="fill: #184B42; stroke: #fff; opacity: 1;" id="p-type-logs"></path><path d="M18.474485335473243,-296.4248528574981A297,297,0,0,1,21.10952319029196,-296.2488616529666L18.281383344569566,-256.5590400336907A257.2095449239783,257.2095449239783,0,0,0,15.999373622362906,-256.7114528876576Z" fill-rule="evenodd" style="fill: #184B42; stroke: #fff; opacity: 1;" id="p-type-logs"></path><path d="M21.10952319029196,-296.2488616529666A297,297,0,0,1,23.74289198408899,-296.04944701895977L20.561947617530976,-256.3863418947544A257.2095449239783,257.2095449239783,0,0,0,18.281383344569566,-256.5590400336907Z" fill-rule="evenodd" style="fill: #184B42; stroke: #fff; opacity: 1;" id="p-type-logs"></path><path d="M23.74289198408899,-296.04944701895977A297,297,0,0,1,26.374383504998534,-295.8266247225413L22.840886124481994,-256.1933721255264A257.2095449239783,257.2095449239783,0,0,0,20.561947617530976,-256.3863418947544Z" fill-rule="evenodd" style="fill: #184B42; stroke: #fff; opacity: 1;" id="p-type-logs"></path><path d="M26.374383504998534,-295.8266247225413A297,297,0,0,1,29.00378968958464,-295.58041238154186L25.118018677201476,-255.9801459834957A257.2095449239783,257.2095449239783,0,0,0,22.840886124481994,-256.1933721255264Z" fill-rule="evenodd" style="fill: #184B42; stroke: #fff; opacity: 1;" id="p-type-logs"></path><path d="M29.00378968958464,-295.58041238154186A297,297,0,0,1,31.63090263929207,-295.3108294631669L27.393165230259182,-255.7466803277566A257.2095449239783,257.2095449239783,0,0,0,25.118018677201476,-255.9801459834957Z" fill-rule="evenodd" style="fill: #184B42; stroke: #fff; opacity: 1;" id="p-type-logs"></path><path d="M31.63090263929207,-295.3108294631669A297,297,0,0,1,34.25551463688412,-295.0178972824568L29.666145895251322,-255.4929936176757A257.2095449239783,257.2095449239783,0,0,0,27.393165230259182,-255.7466803277566Z" fill-rule="evenodd" style="fill: #184B42; stroke: #fff; opacity: 1;" id="p-type-logs"></path><path d="M34.25551463688412,-295.0178972824568A297,297,0,0,1,36.8774181628664,-294.7016390006019L31.936780955023963,-255.21910591143214A257.2095449239783,257.2095449239783,0,0,0,29.666145895251322,-255.4929936176757Z" fill-rule="evenodd" style="fill: #184B42; stroke: #fff; opacity: 1;" id="p-type-logs"></path><path d="M36.8774181628664,-294.7016390006019A297,297,0,0,1,39.49640591189429,-294.36207962311124L34.20489087788235,-254.925038864432A257.2095449239783,257.2095449239783,0,0,0,31.936780955023963,-255.21910591143214Z" fill-rule="evenodd" style="fill: #184B42; stroke: #fff; opacity: 1;" id="p-type-logs"></path><path d="M39.49640591189429,-294.36207962311124A297,297,0,0,1,42.11227080916424,-293.9992459978352L36.47029633178609,-254.61081572759576A257.2095449239783,257.2095449239783,0,0,0,34.20489087788235,-254.925038864432Z" fill-rule="evenodd" style="fill: #184B42; stroke: #fff; opacity: 1;" id="p-type-logs"></path><path d="M42.11227080916424,-293.9992459978352A297,297,0,0,1,44.72480602678635,-293.61316681284296L38.73281819852834,-254.27646134552006A257.2095449239783,257.2095449239783,0,0,0,36.47029633178609,-254.61081572759576Z" fill-rule="evenodd" style="fill: #184B42; stroke: #fff; opacity: 1;" id="p-type-logs"></path><path d="M44.72480602678635,-293.61316681284296A297,297,0,0,1,47.33380500013761,-293.2038725941541L40.99227758789806,-253.92200215451342A257.2095449239783,257.2095449239783,0,0,0,38.73281819852834,-254.27646134552006Z" fill-rule="evenodd" style="fill: #184B42; stroke: #fff; opacity: 1;" id="p-type-logs"></path><path d="M47.33380500013761,-293.2038725941541A297,297,0,0,1,49.939061444194316,-292.77139570332514L43.24849585182427,-253.54746618050584A257.2095449239783,257.2095449239783,0,0,0,40.99227758789806,-253.92200215451342Z" fill-rule="evenodd" style="fill: #184B42; stroke: #fff; opacity: 1;" id="p-type-logs"></path><path d="M49.939061444194316,-292.77139570332514A297,297,0,0,1,52.540369369842296,-292.31577033489066L45.501294598501225,-253.15288303683292A257.2095449239783,257.2095449239783,0,0,0,43.24849585182427,-253.54746618050584Z" fill-rule="evenodd" style="fill: #184B42; stroke: #fff; opacity: 1;" id="p-type-logs"></path><path d="M52.540369369842296,-292.31577033489066A297,297,0,0,1,55.13752310016385,-291.8370325136597L47.750495706493204,-252.73828392189455A257.2095449239783,257.2095449239783,0,0,0,45.501294598501225,-253.15288303683292Z" fill-rule="evenodd" style="fill: #184B42; stroke: #fff; opacity: 1;" id="p-type-logs"></path><path d="M55.13752310016385,-291.8370325136597A297,297,0,0,1,57.730317286699844,-291.33522009186765L49.99592133881799,-252.30370161668802A257.2095449239783,257.2095449239783,0,0,0,47.750495706493204,-252.73828392189455Z" fill-rule="evenodd" style="fill: #184B42; stroke: #fff; opacity: 1;" id="p-type-logs"></path><path d="M57.730317286699844,-291.33522009186765A297,297,0,0,1,60.318546925686235,-290.8103727461828L52.23739395700803,-251.8491704822161A257.2095449239783,257.2095449239783,0,0,0,49.99592133881799,-252.30370161668802Z" fill-rule="evenodd" style="fill: #184B42; stroke: #fff; opacity: 1;" id="p-type-logs"></path><path d="M60.318546925686235,-290.8103727461828A297,297,0,0,1,62.902007374262645,-290.2625319745699L54.47473633514755,-251.37472645677045A257.2095449239783,257.2095449239783,0,0,0,52.23739395700803,-251.8491704822161Z" fill-rule="evenodd" style="fill: #184B42; stroke: #fff; opacity: 1;" id="p-type-logs"></path><path d="M62.902007374262645,-290.2625319745699A297,297,0,0,1,65.48049436665305,-289.6917410930086L56.707771573885374,-250.8804070530898A257.2095449239783,257.2095449239783,0,0,0,54.47473633514755,-251.37472645677045Z" fill-rule="evenodd" style="fill: #184B42; stroke: #fff; opacity: 1;" id="p-type-logs"></path><path d="M65.48049436665305,-289.6917410930086A297,297,0,0,1,68.05380403031639,-289.0980452320688L58.9363231144218,-250.3662513553943A257.2095449239783,257.2095449239783,0,0,0,56.707771573885374,-250.8804070530898Z" fill-rule="evenodd" style="fill: #184B42; stroke: #fff; opacity: 1;" id="p-type-logs"></path><path d="M68.05380403031639,-289.0980452320688A297,297,0,0,1,70.62173290206599,-288.4814913333423L61.16021475246848,-249.83230001629482A257.2095449239783,257.2095449239783,0,0,0,58.9363231144218,-250.3662513553943Z" fill-rule="evenodd" style="fill: #184B42; stroke: #fff; opacity: 1;" id="p-type-logs"></path><path d="M70.62173290206599,-288.4814913333423A297,297,0,0,1,73.1840779441569,-287.84212814573124L63.37927065218031,-249.27859525357903A257.2095449239783,257.2095449239783,0,0,0,61.16021475246848,-249.83230001629482Z" fill-rule="evenodd" style="fill: #184B42; stroke: #fff; opacity: 1;" id="p-type-logs"></path><path d="M73.1840779441569,-287.84212814573124A297,297,0,0,1,75.74063656033924,-287.1800062215937L65.59331536005821,-248.7051808468733A257.2095449239783,257.2095449239783,0,0,0,63.37927065218031,-249.27859525357903Z" fill-rule="evenodd" style="fill: #184B42; stroke: #fff; opacity: 1;" id="p-type-logs"></path><path d="M75.74063656033924,-287.1800062215937A297,297,0,0,1,78.29120661187709,-286.49517791274667L67.80217381882177,-248.11210213418104A257.2095449239783,257.2095449239783,0,0,0,65.59331536005821,-248.7051808468733Z" fill-rule="evenodd" style="fill: #184B42; stroke: #fff; opacity: 1;" id="p-type-logs"></path><path d="M78.29120661187709,-286.49517791274667A297,297,0,0,1,80.8355864335306,-285.7876973663268L70.00567138125022,-247.49940600829814A257.2095449239783,257.2095449239783,0,0,0,67.80217381882177,-248.11210213418104Z" fill-rule="evenodd" style="fill: #184B42; stroke: #fff; opacity: 1;" id="p-type-logs"></path><path d="M80.8355864335306,-285.7876973663268A297,297,0,0,1,83.37357484950121,-285.0576205205092L72.20363382399141,-246.86714091310526A257.2095449239783,257.2095449239783,0,0,0,70.00567138125022,-247.49940600829814Z" fill-rule="evenodd" style="fill: #184B42; stroke: #fff; opacity: 1;" id="p-type-logs"></path><path d="M83.37357484950121,-285.0576205205092A297,297,0,0,1,85.90497118933796,-284.30500510008443L74.39588736133697,-246.2153568397375A257.2095449239783,257.2095449239783,0,0,0,72.20363382399141,-246.86714091310526Z" fill-rule="evenodd" style="fill: #184B42; stroke: #fff; opacity: 1;" id="p-type-logs"></path><path d="M85.90497118933796,-284.30500510008443A297,297,0,0,1,88.42957530380376,-283.52991061189454L76.58225865896308,-245.54410532263176A257.2095449239783,257.2095449239783,0,0,0,74.39588736133697,-246.2153568397375Z" fill-rule="evenodd" style="fill: #184B42; stroke: #fff; opacity: 1;" id="p-type-logs"></path><path d="M88.42957530380376,-283.52991061189454A297,297,0,0,1,90.94718758070066,-282.73239834012804L78.76257484763538,-244.85343943545217A257.2095449239783,257.2095449239783,0,0,0,76.58225865896308,-245.54410532263176Z" fill-rule="evenodd" style="fill: #184B42; stroke: #fff; opacity: 1;" id="p-type-logs"></path><path d="M90.94718758070066,-282.73239834012804A297,297,0,0,1,93.45760896065238,-281.9125313414744L80.93666353687715,-244.1434137868936A257.2095449239783,257.2095449239783,0,0,0,78.76257484763538,-244.85343943545217Z" fill-rule="evenodd" style="fill: #184B42; stroke: #fff; opacity: 1;" id="p-type-logs"></path><path d="M93.45760896065238,-281.9125313414744A297,297,0,0,1,95.9606409528434,-281.07037444013815L83.10435282859976,-243.41408451636403A257.2095449239783,257.2095449239783,0,0,0,80.93666353687715,-244.1434137868936Z" fill-rule="evenodd" style="fill: #184B42; stroke: #fff; opacity: 1;" id="p-type-logs"></path><path d="M95.9606409528434,-281.07037444013815A297,297,0,0,1,98.45608565071298,-280.20599422271374L85.26547133069398,-242.66550928954572A257.2095449239783,257.2095449239783,0,0,0,83.10435282859976,-243.41408451636403Z" fill-rule="evenodd" style="fill: #184B42; stroke: #fff; opacity: 1;" id="p-type-logs"></path><path d="M98.45608565071298,-280.20599422271374A297,297,0,0,1,100.94374574760286,-279.3194590329204L87.41984817058149,-241.8977472938359A257.2095449239783,257.2095449239783,0,0,0,85.26547133069398,-242.66550928954572Z" fill-rule="evenodd" style="fill: #184B42; stroke: #fff; opacity: 1;" id="p-type-logs"></path><path d="M100.94374574760286,-279.3194590329204A297,297,0,0,1,103.42342455235786,-278.4108389661989L89.56731300872514,-241.11085923366676A257.2095449239783,257.2095449239783,0,0,0,87.41984817058149,-241.8977472938359Z" fill-rule="evenodd" style="fill: #184B42; stroke: #fff; opacity: 1;" id="p-type-logs"></path><path d="M103.42342455235786,-278.4108389661989A297,297,0,0,1,105.89492600487736,-277.4802058641689L91.70769605209718,-240.304907325706A257.2095449239783,257.2095449239783,0,0,0,89.56731300872514,-241.11085923366676Z" fill-rule="evenodd" style="fill: #184B42; stroke: #fff; opacity: 1;" id="p-type-logs"></path><path d="M105.89492600487736,-277.4802058641689A297,297,0,0,1,108.35805469161737,-276.5276333089488L93.84082806760422,-239.4799552939376A257.2095449239783,257.2095449239783,0,0,0,91.70769605209718,-240.304907325706Z" fill-rule="evenodd" style="fill: #184B42; stroke: #fff; opacity: 1;" id="p-type-logs"></path><path d="M108.35805469161737,-276.5276333089488A297,297,0,0,1,110.81261586104108,-275.553196617338L95.96654039546799,-238.63606836462296A257.2095449239783,257.2095449239783,0,0,0,93.84082806760422,-239.4799552939376Z" fill-rule="evenodd" style="fill: #184B42; stroke: #fff; opacity: 1;" id="p-type-logs"></path><path d="M110.81261586104108,-275.553196617338A297,297,0,0,1,113.25841543901728,-274.55697283486165L98.08466496256065,-237.77331326114424A257.2095449239783,257.2095449239783,0,0,0,95.96654039546799,-238.63606836462296Z" fill-rule="evenodd" style="fill: #184B42; stroke: #fff; opacity: 1;" id="p-type-logs"></path><path d="M113.25841543901728,-274.55697283486165A297,297,0,0,1,115.6952600441652,-273.539040729679L100.19503429569379,-236.8917581987283A257.2095449239783,257.2095449239783,0,0,0,98.08466496256065,-237.77331326114424Z" fill-rule="evenodd" style="fill: #184B42; stroke: #fff; opacity: 1;" id="p-type-logs"></path><path d="M115.6952600441652,-273.539040729679A297,297,0,0,1,118.12295700314444,-272.49948078635543L102.29748153486005,-235.99147287905333A257.2095449239783,257.2095449239783,0,0,0,100.19503429569379,-236.8917581987283Z" fill-rule="evenodd" style="fill: #184B42; stroke: #fff; opacity: 1;" id="p-type-logs"></path><path d="M118.12295700314444,-272.49948078635543A297,297,0,0,1,120.54131436588918,-271.43837519949875L104.39184044642614,-235.0725284847379A257.2095449239783,257.2095449239783,0,0,0,102.29748153486005,-235.99147287905333Z" fill-rule="evenodd" style="fill: #184B42; stroke: #fff; opacity: 1;" id="p-type-logs"></path><path d="M120.54131436588918,-271.43837519949875A297,297,0,0,1,122.9501409207849,-270.3558078672606L106.47794543627639,-234.1349976737125A257.2095449239783,257.2095449239783,0,0,0,104.39184044642614,-235.0725284847379Z" fill-rule="evenodd" style="fill: #184B42; stroke: #fff; opacity: 1;" id="p-type-logs"></path><path d="M122.9501409207849,-270.3558078672606A297,297,0,0,1,125.34924620978693,-269.25186438470246L108.55563156290575,-233.17895457347487A257.2095449239783,257.2095449239783,0,0,0,106.47794543627639,-234.1349976737125Z" fill-rule="evenodd" style="fill: #184B42; stroke: #fff; opacity: 1;" id="p-type-logs"></path><path d="M125.34924620978693,-269.25186438470246A297,297,0,0,1,127.73844054347931,-268.12663203702834L110.62473455046118,-232.20447477522907A257.2095449239783,257.2095449239783,0,0,0,108.55563156290575,-233.17895457347487Z" fill-rule="evenodd" style="fill: #184B42; stroke: #fff; opacity: 1;" id="p-type-logs"></path><path d="M127.73844054347931,-268.12663203702834A297,297,0,0,1,130.117535016073,-266.98019979268315L112.68509080173045,-231.21163532790854A257.2095449239783,257.2095449239783,0,0,0,110.62473455046118,-232.20447477522907Z" fill-rule="evenodd" style="fill: #184B42; stroke: #fff; opacity: 1;" id="p-type-logs"></path><path d="M130.117535016073,-266.98019979268315A297,297,0,0,1,132.48634152034185,-265.81265829631843L114.73653741107708,-230.2005147320842A257.2095449239783,257.2095449239783,0,0,0,112.68509080173045,-231.21163532790854Z" fill-rule="evenodd" style="fill: #184B42; stroke: #fff; opacity: 1;" id="p-type-logs"></path><path d="M132.48634152034185,-265.81265829631843A297,297,0,0,1,134.84467276249586,-264.62409986162527L116.77891217732099,-229.17119293375762A257.2095449239783,257.2095449239783,0,0,0,114.73653741107708,-230.2005147320842Z" fill-rule="evenodd" style="fill: #184B42; stroke: #fff; opacity: 1;" id="p-type-logs"></path><path d="M134.84467276249586,-264.62409986162527A297,297,0,0,1,137.19234227698976,-263.4146184640353L118.81205361656298,-228.12375131804004A257.2095449239783,257.2095449239783,0,0,0,116.77891217732099,-229.17119293375762Z" fill-rule="evenodd" style="fill: #184B42; stroke: #fff; opacity: 1;" id="p-type-logs"></path><path d="M137.19234227698976,-263.4146184640353A297,297,0,0,1,139.5291644412662,-262.18430973329066L120.83580097495289,-227.0582727027174A257.2095449239783,257.2095449239783,0,0,0,118.81205361656298,-228.12375131804004Z" fill-rule="evenodd" style="fill: #184B42; stroke: #fff; opacity: 1;" id="p-type-logs"></path><path d="M139.5291644412662,-262.18430973329066A297,297,0,0,1,141.8549544904324,-260.93327094588255L122.84999424139988,-225.9748413317023A257.2095449239783,257.2095449239783,0,0,0,120.83580097495289,-227.0582727027174Z" fill-rule="evenodd" style="fill: #184B42; stroke: #fff; opacity: 1;" id="p-type-logs"></path><path d="M141.8549544904324,-260.93327094588255A297,297,0,0,1,144.16952853186885,-259.66160101736L124.85447416022387,-224.873542868373A257.2095449239783,257.2095449239783,0,0,0,122.84999424139988,-225.9748413317023Z" fill-rule="evenodd" style="fill: #184B42; stroke: #fff; opacity: 1;" id="p-type-logs"></path><path d="M144.16952853186885,-259.66160101736A297,297,0,0,1,146.47270355976917,-258.369400494509L126.84908224374747,-223.75446438880053A257.2095449239783,257.2095449239783,0,0,0,124.85447416022387,-224.873542868373Z" fill-rule="evenodd" style="fill: #184B42; stroke: #fff; opacity: 1;" id="p-type-logs"></path><path d="M146.47270355976917,-258.369400494509A297,297,0,0,1,148.7642974696097,-257.0567715474025L128.83366078482706,-222.61769437486345A257.2095449239783,257.2095449239783,0,0,0,126.84908224374747,-223.75446438880053Z" fill-rule="evenodd" style="fill: #184B42; stroke: #fff; opacity: 1;" id="p-type-logs"></path><path d="M148.7642974696097,-257.0567715474025A297,297,0,0,1,151.0441290725479,-255.72381796132225L130.80805286932215,-221.4633227072524A257.2095449239783,257.2095449239783,0,0,0,128.83366078482706,-222.61769437486345Z" fill-rule="evenodd" style="fill: #184B42; stroke: #fff; opacity: 1;" id="p-type-logs"></path><path d="M151.0441290725479,-255.72381796132225A297,297,0,0,1,153.31201810974852,-254.3706451285528L132.77210238850213,-220.2914406583631A257.2095449239783,257.2095449239783,0,0,0,130.80805286932215,-221.4633227072524Z" fill-rule="evenodd" style="fill: #184B42; stroke: #fff; opacity: 1;" id="p-type-logs"></path><path d="M153.31201810974852,-254.3706451285528A297,297,0,0,1,155.56778526663587,-252.9973600400484L134.72565405138917,-219.10214088507993A257.2095449239783,257.2095449239783,0,0,0,132.77210238850213,-220.2914406583631Z" fill-rule="evenodd" style="fill: #184B42; stroke: #fff; opacity: 1;" id="p-type-logs"></path><path d="M155.56778526663587,-252.9973600400484A297,297,0,0,1,157.81125218707172,-251.60407127697368L136.66855339703665,-217.89551742144982A257.2095449239783,257.2095449239783,0,0,0,134.72565405138917,-219.10214088507993Z" fill-rule="evenodd" style="fill: #184B42; stroke: #fff; opacity: 1;" id="p-type-logs"></path><path d="M157.81125218707172,-251.60407127697368A297,297,0,0,1,160.04224148745732,-250.19088900211852L138.60064680674188,-216.67166567124735A257.2095449239783,257.2095449239783,0,0,0,136.66855339703665,-217.89551742144982Z" fill-rule="evenodd" style="fill: #184B42; stroke: #fff; opacity: 1;" id="p-type-logs"></path><path d="M160.04224148745732,-250.19088900211852A297,297,0,0,1,162.26057677075875,-248.75792495118765L140.52178151619225,-215.43068240043138A257.2095449239783,257.2095449239783,0,0,0,138.60064680674188,-216.67166567124735Z" fill-rule="evenodd" style="fill: #184B42; stroke: #fff; opacity: 1;" id="p-type-logs"></path><path d="M162.26057677075875,-248.75792495118765A297,297,0,0,1,164.46608264045364,-247.3052924239663L142.43180562754372,-214.1726657294941A257.2095449239783,257.2095449239783,0,0,0,140.52178151619225,-215.43068240043138Z" fill-rule="evenodd" style="fill: #184B42; stroke: #fff; opacity: 1;" id="p-type-logs"></path><path d="M164.46608264045364,-247.3052924239663A297,297,0,0,1,166.65858471439955,-245.83310627536179L144.33056812143093,-212.897715125703A257.2095449239783,257.2095449239783,0,0,0,142.43180562754372,-214.1726657294941Z" fill-rule="evenodd" style="fill: #184B42; stroke: #fff; opacity: 1;" id="p-type-logs"></path><path d="M166.65858471439955,-245.83310627536179A297,297,0,0,1,168.83790963862162,-244.3414829063224L146.21791886890787,-211.60593139523635A257.2095449239783,257.2095449239783,0,0,0,144.33056812143093,-212.897715125703Z" fill-rule="evenodd" style="fill: #184B42; stroke: #fff; opacity: 1;" id="p-type-logs"></path><path d="M168.83790963862162,-244.3414829063224A297,297,0,0,1,171.0038851010193,-242.83054025463392L148.093708643318,-210.29741667521273A257.2095449239783,257.2095449239783,0,0,0,146.21791886890787,-211.60593139523635Z" fill-rule="evenodd" style="fill: #184B42; stroke: #fff; opacity: 1;" id="p-type-logs"></path><path d="M171.0038851010193,-242.83054025463392A297,297,0,0,1,173.15633984499016,-241.30039778559478L149.9577891320931,-208.97227442561538A257.2095449239783,257.2095449239783,0,0,0,148.093708643318,-210.29741667521273Z" fill-rule="evenodd" style="fill: #184B42; stroke: #fff; opacity: 1;" id="p-type-logs"></path><path d="M173.15633984499016,-241.30039778559478A297,297,0,0,1,175.295103682971,-239.75117648257006L151.81001294848,-207.63060942111196A257.2095449239783,257.2095449239783,0,0,0,149.9577891320931,-208.97227442561538Z" fill-rule="evenodd" style="fill: #184B42; stroke: #fff; opacity: 1;" id="p-type-logs"></path><path d="M175.295103682971,-239.75117648257006A297,297,0,0,1,177.42000750989365,-238.182998837426L153.6502336431938,-206.27252774277034A257.2095449239783,257.2095449239783,0,0,0,151.81001294848,-207.63060942111196Z" fill-rule="evenodd" style="fill: #184B42; stroke: #fff; opacity: 1;" id="p-type-logs"></path><path d="M177.42000750989365,-238.182998837426A297,297,0,0,1,179.53088331655584,-236.5959888408449L155.4783057159972,-204.89813676967125A257.2095449239783,257.2095449239783,0,0,0,153.6502336431938,-206.27252774277034Z" fill-rule="evenodd" style="fill: #184B42; stroke: #fff; opacity: 1;" id="p-type-logs"></path><path d="M179.53088331655584,-236.5959888408449A297,297,0,0,1,181.62756420290495,-234.99027197252153L157.29408462720482,-203.507545170418A257.2095449239783,257.2095449239783,0,0,0,155.4783057159972,-204.89813676967125Z" fill-rule="evenodd" style="fill: #184B42; stroke: #fff; opacity: 1;" id="p-type-logs"></path><path d="M181.62756420290495,-234.99027197252153A297,297,0,0,1,183.70988439123443,-233.3659751912418L159.09742680911134,-202.10086289454446A257.2095449239783,257.2095449239783,0,0,0,157.29408462720482,-203.507545170418Z" fill-rule="evenodd" style="fill: #184B42; stroke: #fff; opacity: 1;" id="p-type-logs"></path><path d="M183.70988439123443,-233.3659751912418A297,297,0,0,1,185.77767923929105,-231.72322692484474L160.88818967734298,-200.67820116382177A257.2095449239783,257.2095449239783,0,0,0,159.09742680911134,-202.10086289454446Z" fill-rule="evenodd" style="fill: #184B42; stroke: #fff; opacity: 1;" id="p-type-logs"></path><path d="M185.77767923929105,-231.72322692484474A297,297,0,0,1,187.83078525329287,-230.06215706006796L162.66623164213115,-199.2396724634643A257.2095449239783,257.2095449239783,0,0,0,160.88818967734298,-200.67820116382177Z" fill-rule="evenodd" style="fill: #184B42; stroke: #fff; opacity: 1;" id="p-type-logs"></path><path d="M187.83078525329287,-230.06215706006796A297,297,0,0,1,189.86904010085607,-228.382896932278L164.43141211950766,-197.7853905332359A257.2095449239783,257.2095449239783,0,0,0,162.66623164213115,-199.2396724634643Z" fill-rule="evenodd" style="fill: #184B42; stroke: #fff; opacity: 1;" id="p-type-logs"></path><path d="M189.86904010085607,-228.382896932278A297,297,0,0,1,191.89228262383,-226.68557931508602L166.18359154242,-196.31547035845676A257.2095449239783,257.2095449239783,0,0,0,164.43141211950766,-197.7853905332359Z" fill-rule="evenodd" style="fill: #184B42; stroke: #fff; opacity: 1;" id="p-type-logs"></path><path d="M191.89228262383,-226.68557931508602A297,297,0,0,1,193.90035285103943,-224.97033840984994L167.92263137176656,-194.8300281609121A257.2095449239783,257.2095449239783,0,0,0,166.18359154242,-196.31547035845676Z" fill-rule="evenodd" style="fill: #184B42; stroke: #fff; opacity: 1;" id="p-type-logs"></path><path d="M193.90035285103943,-224.97033840984994A297,297,0,0,1,195.89309201093306,-223.23730983506346L169.6483941073505,-193.32918138966266A257.2095449239783,257.2095449239783,0,0,0,167.92263137176656,-194.8300281609121Z" fill-rule="evenodd" style="fill: #184B42; stroke: #fff; opacity: 1;" id="p-type-logs"></path><path d="M195.89309201093306,-223.23730983506346A297,297,0,0,1,197.87034254413695,-221.48663061563315L171.36074329875137,-191.8130487117585A257.2095449239783,257.2095449239783,0,0,0,169.6483941073505,-193.32918138966266Z" fill-rule="evenodd" style="fill: #184B42; stroke: #fff; opacity: 1;" id="p-type-logs"></path><path d="M197.87034254413695,-221.48663061563315A297,297,0,0,1,199.83194811591218,-219.71843917204444L173.05954355611385,-190.2817500028564A257.2095449239783,257.2095449239783,0,0,0,171.36074329875137,-191.8130487117585Z" fill-rule="evenodd" style="fill: #184B42; stroke: #fff; opacity: 1;" id="p-type-logs"></path><path d="M199.83194811591218,-219.71843917204444A297,297,0,0,1,201.77775362851597,-217.93287530941703L174.7446605608525,-188.7354063377416A257.2095449239783,257.2095449239783,0,0,0,173.05954355611385,-190.2817500028564Z" fill-rule="evenodd" style="fill: #184B42; stroke: #fff; opacity: 1;" id="p-type-logs"></path><path d="M201.77775362851597,-217.93287530941703A297,297,0,0,1,203.70760523346445,-216.13008020645114L176.41596107627208,-187.17413998075497A257.2095449239783,257.2095449239783,0,0,0,174.7446605608525,-188.7354063377416Z" fill-rule="evenodd" style="fill: #184B42; stroke: #fff; opacity: 1;" id="p-type-logs"></path><path d="M203.70760523346445,-216.13008020645114A297,297,0,0,1,205.62135034369717,-214.31019640426476L178.07331295810187,-185.59807437612577A257.2095449239783,257.2095449239783,0,0,0,176.41596107627208,-187.17413998075497Z" fill-rule="evenodd" style="fill: #184B42; stroke: #fff; opacity: 1;" id="p-type-logs"></path><path d="M205.62135034369717,-214.31019640426476A297,297,0,0,1,207.5188376456416,-212.47336779512355L179.71658516494415,-184.0073341382114A257.2095449239783,257.2095449239783,0,0,0,178.07331295810187,-185.59807437612577Z" fill-rule="evenodd" style="fill: #184B42; stroke: #fff; opacity: 1;" id="p-type-logs"></path><path d="M207.5188376456416,-212.47336779512355A297,297,0,0,1,209.39991711117693,-210.61973961106358L181.345647768635,-182.40204504164467A257.2095449239783,257.2095449239783,0,0,0,179.71658516494415,-184.0073341382114Z" fill-rule="evenodd" style="fill: #184B42; stroke: #fff; opacity: 1;" id="p-type-logs"></path><path d="M209.39991711117693,-210.61973961106358A297,297,0,0,1,211.26444000949638,-208.74945841240856L182.96037196451744,-180.78233401138903A257.2095449239783,257.2095449239783,0,0,0,181.345647768635,-182.40204504164467Z" fill-rule="evenodd" style="fill: #184B42; stroke: #fff; opacity: 1;" id="p-type-logs"></path><path d="M211.26444000949638,-208.74945841240856A297,297,0,0,1,213.11225891886693,-206.86267207618158L184.56063008162556,-179.1483291127031A257.2095449239783,257.2095449239783,0,0,0,182.96037196451744,-180.78233401138903Z" fill-rule="evenodd" style="fill: #184B42; stroke: #fff; opacity: 1;" id="p-type-logs"></path><path d="M213.11225891886693,-206.86267207618158A297,297,0,0,1,214.94322773828517,-204.95952978441298L186.14629559277898,-177.50015954101494A257.2095449239783,257.2095449239783,0,0,0,184.56063008162556,-179.1483291127031Z" fill-rule="evenodd" style="fill: #184B42; stroke: #fff; opacity: 1;" id="p-type-logs"></path><path d="M214.94322773828517,-204.95952978441298A297,297,0,0,1,216.75720169902945,-203.04018201234518L187.717243124587,-175.83795561170717A257.2095449239783,257.2095449239783,0,0,0,186.14629559277898,-177.50015954101494Z" fill-rule="evenodd" style="fill: #184B42; stroke: #fff; opacity: 1;" id="p-type-logs"></path><path d="M216.75720169902945,-203.04018201234518A297,297,0,0,1,218.55403737610604,-201.10478051653484L189.27334846736153,-174.161848749813A257.2095449239783,257.2095449239783,0,0,0,187.717243124587,-175.83795561170717Z" fill-rule="evenodd" style="fill: #184B42; stroke: #fff; opacity: 1;" id="p-type-logs"></path><path d="M218.55403737610604,-201.10478051653484A297,297,0,0,1,220.33359269958916,-199.15347832285417L190.81448858493775,-172.47197147962524A257.2095449239783,257.2095449239783,0,0,0,189.27334846736153,-174.161848749813Z" fill-rule="evenodd" style="fill: #184B42; stroke: #fff; opacity: 1;" id="p-type-logs"></path><path d="M220.33359269958916,-199.15347832285417A297,297,0,0,1,222.09572696585425,-197.18642971439164L192.34054162440236,-170.76845741421786A257.2095449239783,257.2095449239783,0,0,0,190.81448858493775,-172.47197147962524Z" fill-rule="evenodd" style="fill: #184B42; stroke: #fff; opacity: 1;" id="p-type-logs"></path><path d="M222.09572696585425,-197.18642971439164A297,297,0,0,1,223.84030084870278,-195.20379021925322L193.85138692572806,-169.05144124488163A257.2095449239783,257.2095449239783,0,0,0,192.34054162440236,-170.76845741421786Z" fill-rule="evenodd" style="fill: #184B42; stroke: #fff; opacity: 1;" id="p-type-logs"></path><path d="M223.84030084870278,-195.20379021925322A297,297,0,0,1,225.5671764103784,-193.20571659826535L195.34690503131367,-167.32105873047456A257.2095449239783,257.2095449239783,0,0,0,193.85138692572806,-169.05144124488163Z" fill-rule="evenodd" style="fill: #184B42; stroke: #fff; opacity: 1;" id="p-type-logs"></path><path d="M225.5671764103784,-193.20571659826535A297,297,0,0,1,227.27621711247312,-191.19236683258038L196.8269776954293,-165.57744668668795A257.2095449239783,257.2095449239783,0,0,0,195.34690503131367,-167.32105873047456Z" fill-rule="evenodd" style="fill: #184B42; stroke: #fff; opacity: 1;" id="p-type-logs"></path><path d="M227.27621711247312,-191.19236683258038A297,297,0,0,1,228.967287826723,-189.1639001111855L198.2914878935656,-163.82074297522865A257.2095449239783,257.2095449239783,0,0,0,196.8269776954293,-165.57744668668795Z" fill-rule="evenodd" style="fill: #184B42; stroke: #fff; opacity: 1;" id="p-type-logs"></path><path d="M228.967287826723,-189.1639001111855A297,297,0,0,1,230.64025484569245,-187.12047681831626L199.74031983168666,-162.05108649291904A257.2095449239783,257.2095449239783,0,0,0,198.2914878935656,-163.82074297522865Z" fill-rule="evenodd" style="fill: #184B42; stroke: #fff; opacity: 1;" id="p-type-logs"></path><path d="M230.64025484569245,-187.12047681831626A297,297,0,0,1,232.29498589334577,-185.06225852077537L201.17335895538525,-160.26861716071465A257.2095449239783,257.2095449239783,0,0,0,199.74031983168666,-162.05108649291904Z" fill-rule="evenodd" style="fill: #184B42; stroke: #fff; opacity: 1;" id="p-type-logs"></path><path d="M232.29498589334577,-185.06225852077537A297,297,0,0,1,233.93135013550597,-182.98940795515816L202.59049195894048,-158.47347591264122A257.2095449239783,257.2095449239783,0,0,0,201.17335895538525,-160.26861716071465Z" fill-rule="evenodd" style="fill: #184B42; stroke: #fff; opacity: 1;" id="p-type-logs"></path><path d="M233.93135013550597,-182.98940795515816A297,297,0,0,1,235.5492181901994,-180.90208901498576L203.9916067942763,-156.6658046846515A257.2095449239783,257.2095449239783,0,0,0,202.59049195894048,-158.47347591264122Z" fill-rule="evenodd" style="fill: #184B42; stroke: #fff; opacity: 1;" id="p-type-logs"></path><path d="M235.5492181901994,-180.90208901498576A297,297,0,0,1,237.1484621378855,-178.8004667377462L205.37659267982096,-154.84574640340276A257.2095449239783,257.2095449239783,0,0,0,203.9916067942763,-156.6658046846515Z" fill-rule="evenodd" style="fill: #184B42; stroke: #fff; opacity: 1;" id="p-type-logs"></path><path d="M285.537075531264,81.71645181389866A297,297,0,0,1,284.79917606196403,84.25217691209184L246.64332144653784,72.9645255300123A257.2095449239783,257.2095449239783,0,0,0,247.2823611323907,70.76852317796322Z" fill-rule="evenodd" style="fill: #AE497E; stroke: #fff; opacity: 1;" id="p-type-tokenTransfers"></path><path d="M284.79917606196403,84.25217691209184A297,297,0,0,1,284.0387584524157,86.78124046595696L245.98478047918394,75.15475881544484A257.2095449239783,257.2095449239783,0,0,0,246.64332144653784,72.9645255300123Z" fill-rule="evenodd" style="fill: #AE497E; stroke: #fff; opacity: 1;" id="p-type-tokenTransfers"></path><path d="M284.0387584524157,86.78124046595696A297,297,0,0,1,283.25588282635476,89.30344251070272L245.30679029901154,77.33904985967173A257.2095449239783,257.2095449239783,0,0,0,245.98478047918394,75.15475881544484Z" fill-rule="evenodd" style="fill: #AE497E; stroke: #fff; opacity: 1;" id="p-type-tokenTransfers"></path><path d="M283.25588282635476,89.30344251070272A297,297,0,0,1,282.4506110831988,91.81858362405495L244.60940451248868,79.51722595793744A257.2095449239783,257.2095449239783,0,0,0,245.30679029901154,77.33904985967173Z" fill-rule="evenodd" style="fill: #AE497E; stroke: #fff; opacity: 1;" id="p-type-tokenTransfers"></path><path d="M282.4506110831988,91.81858362405495A297,297,0,0,1,281.6230068931533,94.3264649420242L243.89267825963083,81.6891148889752A257.2095449239783,257.2095449239783,0,0,0,244.60940451248868,79.51722595793744Z" fill-rule="evenodd" style="fill: #AE497E; stroke: #fff; opacity: 1;" id="p-type-tokenTransfers"></path><path d="M281.6230068931533,94.3264649420242A297,297,0,0,1,280.77313569217733,96.82688817462937L243.15666820964086,83.8545449286241A257.2095449239783,257.2095449239783,0,0,0,243.89267825963083,81.6891148889752Z" fill-rule="evenodd" style="fill: #AE497E; stroke: #fff; opacity: 1;" id="p-type-tokenTransfers"></path><path d="M280.77313569217733,96.82688817462937A297,297,0,0,1,279.90106467680965,99.31965562157578L242.40143255642838,86.01334486340656A257.2095449239783,257.2095449239783,0,0,0,243.15666820964086,83.8545449286241Z" fill-rule="evenodd" style="fill: #AE497E; stroke: #fff; opacity: 1;" id="p-type-tokenTransfers"></path><path d="M279.90106467680965,99.31965562157578A297,297,0,0,1,279.006862798856,101.80457018788671L241.62703101400874,88.16534400406582A257.2095449239783,257.2095449239783,0,0,0,242.40143255642838,86.01334486340656Z" fill-rule="evenodd" style="fill: #AE497E; stroke: #fff; opacity: 1;" id="p-type-tokenTransfers"></path><path d="M279.006862798856,101.80457018788671A297,297,0,0,1,278.0906007599369,104.28143539948701L240.83352481178147,90.31037219906159A257.2095449239783,257.2095449239783,0,0,0,241.62703101400874,88.16534400406582Z" fill-rule="evenodd" style="fill: #AE497E; stroke: #fff; opacity: 1;" id="p-type-tokenTransfers"></path><path d="M278.0906007599369,104.28143539948701A297,297,0,0,1,277.15235100589786,106.7500554187378L240.02097668968918,92.44825984802361A257.2095449239783,257.2095449239783,0,0,0,240.83352481178147,90.31037219906159Z" fill-rule="evenodd" style="fill: #AE497E; stroke: #fff; opacity: 1;" id="p-type-tokenTransfers"></path><path d="M277.15235100589786,106.7500554187378A297,297,0,0,1,276.1921877210811,109.21023505992054L239.18945089325675,94.57883791516115A257.2095449239783,257.2095449239783,0,0,0,240.02097668968918,92.44825984802361Z" fill-rule="evenodd" style="fill: #AE497E; stroke: #fff; opacity: 1;" id="p-type-tokenTransfers"></path><path d="M276.1921877210811,109.21023505992054A297,297,0,0,1,275.2101868224602,111.6617798046698L238.33901316851188,96.70193794262825A257.2095449239783,257.2095449239783,0,0,0,239.18945089325675,94.57883791516115Z" fill-rule="evenodd" style="fill: #AE497E; stroke: #fff; opacity: 1;" id="p-type-tokenTransfers"></path><path d="M275.2101868224602,111.6617798046698A297,297,0,0,1,274.20642595363734,114.10449581735324L237.4697307567866,98.81739206384313A257.2095449239783,257.2095449239783,0,0,0,238.33901316851188,96.70193794262825Z" fill-rule="evenodd" style="fill: #AE497E; stroke: #fff; opacity: 1;" id="p-type-tokenTransfers"></path><path d="M274.20642595363734,114.10449581735324A297,297,0,0,1,273.1809844787047,116.53818996039752L236.58167238940072,100.92503301676088A257.2095449239783,257.2095449239783,0,0,0,237.4697307567866,98.81739206384313Z" fill-rule="evenodd" style="fill: #AE497E; stroke: #fff; opacity: 1;" id="p-type-tokenTransfers"></path><path d="M273.1809844787047,116.53818996039752A297,297,0,0,1,272.1339434759689,118.962669809559L235.6749082822276,103.02469415709818A257.2095449239783,257.2095449239783,0,0,0,236.58167238940072,100.92503301676088Z" fill-rule="evenodd" style="fill: #AE497E; stroke: #fff; opacity: 1;" id="p-type-tokenTransfers"></path><path d="M272.1339434759689,118.962669809559A297,297,0,0,1,271.0653857315408,121.37774366913818L234.74951013014223,105.11620947150949A257.2095449239783,257.2095449239783,0,0,0,235.6749082822276,103.02469415709818Z" fill-rule="evenodd" style="fill: #AE497E; stroke: #fff; opacity: 1;" id="p-type-tokenTransfers"></path><path d="M271.0653857315408,121.37774366913818A297,297,0,0,1,269.97539573278954,123.78322058713643L233.80555110135268,107.19941359071308A257.2095449239783,257.2095449239783,0,0,0,234.74951013014223,105.11620947150949Z" fill-rule="evenodd" style="fill: #AE497E; stroke: #fff; opacity: 1;" id="p-type-tokenTransfers"></path><path d="M269.97539573278954,123.78322058713643A297,297,0,0,1,268.86405966166285,126.17891037035393L232.84310583161496,109.27414180256626A257.2095449239783,257.2095449239783,0,0,0,233.80555110135268,107.19941359071308Z" fill-rule="evenodd" style="fill: #AE497E; stroke: #fff; opacity: 1;" id="p-type-tokenTransfers"></path><path d="M268.86405966166285,126.17891037035393A297,297,0,0,1,267.7314653878724,128.56462359942762L231.86225041833163,111.34023006508866A257.2095449239783,257.2095449239783,0,0,0,232.84310583161496,109.27414180256626Z" fill-rule="evenodd" style="fill: #AE497E; stroke: #fff; opacity: 1;" id="p-type-tokenTransfers"></path><path d="M267.7314653878724,128.56462359942762A297,297,0,0,1,266.5777024619466,130.94017164380793L230.86306241453525,113.39751501943248A257.2095449239783,257.2095449239783,0,0,0,231.86225041833163,111.34023006508866Z" fill-rule="evenodd" style="fill: #AE497E; stroke: #fff; opacity: 1;" id="p-type-tokenTransfers"></path><path d="M266.5777024619466,130.94017164380793A297,297,0,0,1,265.40286210815,133.30536667667334L229.84562082275627,115.44583400279868A257.2095449239783,257.2095449239783,0,0,0,230.86306241453525,113.39751501943248Z" fill-rule="evenodd" style="fill: #AE497E; stroke: #fff; opacity: 1;" id="p-type-tokenTransfers"></path><path d="M265.40286210815,133.30536667667334A297,297,0,0,1,264.20703721727045,135.66002168978102L228.81000608877687,117.4850250612983A257.2095449239783,257.2095449239783,0,0,0,229.84562082275627,115.44583400279868Z" fill-rule="evenodd" style="fill: #AE497E; stroke: #fff; opacity: 1;" id="p-type-tokenTransfers"></path><path d="M264.20703721727045,135.66002168978102A297,297,0,0,1,262.9903223392747,138.0039505082531L227.75630009527006,119.51492696275757A257.2095449239783,257.2095449239783,0,0,0,228.81000608877687,117.4850250612983Z" fill-rule="evenodd" style="fill: #AE497E; stroke: #fff; opacity: 1;" id="p-type-tokenTransfers"></path><path d="M262.9903223392747,138.0039505082531A297,297,0,0,1,261.7528136758325,140.33696780529684L226.68458615532577,121.53537920946597A257.2095449239783,257.2095449239783,0,0,0,227.75630009527006,119.51492696275757Z" fill-rule="evenodd" style="fill: #AE497E; stroke: #fff; opacity: 1;" id="p-type-tokenTransfers"></path><path d="M261.7528136758325,140.33696780529684A297,297,0,0,1,260.49460907271003,142.65888911685795L225.59494900586324,123.54622205086636A257.2095449239783,257.2095449239783,0,0,0,226.68458615532577,121.53537920946597Z" fill-rule="evenodd" style="fill: #AE497E; stroke: #fff; opacity: 1;" id="p-type-tokenTransfers"></path><path d="M260.49460907271003,142.65888911685795A297,297,0,0,1,259.21580801203413,144.96953085620532L224.48747480093138,125.54729649618585A257.2095449239783,257.2095449239783,0,0,0,225.59494900586324,123.54622205086636Z" fill-rule="evenodd" style="fill: #AE497E; stroke: #fff; opacity: 1;" id="p-type-tokenTransfers"></path><path d="M259.21580801203413,144.96953085620532A297,297,0,0,1,257.91651160442603,147.26871032844682L223.36225110489693,127.53844432700669A257.2095449239783,257.2095449239783,0,0,0,224.48747480093138,125.54729649618585Z" fill-rule="evenodd" style="fill: #AE497E; stroke: #fff; opacity: 1;" id="p-type-tokenTransfers"></path><path d="M257.91651160442603,147.26871032844682A297,297,0,0,1,256.59682258100713,149.55624574497435L222.21936688552066,129.51950810977615A257.2095449239783,257.2095449239783,0,0,0,223.36225110489693,127.53844432700669Z" fill-rule="evenodd" style="fill: #AE497E; stroke: #fff; opacity: 1;" id="p-type-tokenTransfers"></path><path d="M256.59682258100713,149.55624574497435A297,297,0,0,1,255.2568452852763,151.8319562378372L221.0589125069234,131.49033120825416A257.2095449239783,257.2095449239783,0,0,0,222.21936688552066,129.51950810977615Z" fill-rule="evenodd" style="fill: #AE497E; stroke: #fff; opacity: 1;" id="p-type-tokenTransfers"></path><path d="M255.2568452852763,151.8319562378372A297,297,0,0,1,253.89668566485994,154.09566187404275L219.88097972244103,133.4507577958982A257.2095449239783,257.2095449239783,0,0,0,221.0589125069234,131.49033120825416Z" fill-rule="evenodd" style="fill: #AE497E; stroke: #fff; opacity: 1;" id="p-type-tokenTransfers"></path><path d="M253.89668566485994,154.09566187404275A297,297,0,0,1,252.5164512631347,156.3471836697832L218.68566166736977,135.40063286818378A257.2095449239783,257.2095449239783,0,0,0,219.88097972244103,133.4507577958982Z" fill-rule="evenodd" style="fill: #AE497E; stroke: #fff; opacity: 1;" id="p-type-tokenTransfers"></path><path d="M252.5164512631347,156.3471836697832A297,297,0,0,1,251.11625121072476,158.58634360458714L217.47305285160243,137.3398022548603A257.2095449239783,257.2095449239783,0,0,0,218.68566166736977,135.40063286818378Z" fill-rule="evenodd" style="fill: #AE497E; stroke: #fff; opacity: 1;" id="p-type-tokenTransfers"></path><path d="M251.11625121072476,158.58634360458714A297,297,0,0,1,249.69619621687298,160.8129646353952L216.24324915215587,139.26811263214077A257.2095449239783,257.2095449239783,0,0,0,217.47305285160243,137.3398022548603Z" fill-rule="evenodd" style="fill: #AE497E; stroke: #fff; opacity: 1;" id="p-type-tokenTransfers"></path><path d="M249.69619621687298,160.8129646353952A297,297,0,0,1,248.25639856068764,163.0268707105581L214.99634780559003,141.18541153482454A257.2095449239783,257.2095449239783,0,0,0,216.24324915215587,139.26811263214077Z" fill-rule="evenodd" style="fill: #AE497E; stroke: #fff; opacity: 1;" id="p-type-tokenTransfers"></path><path d="M248.25639856068764,163.0268707105581A297,297,0,0,1,246.79697208226466,165.22788678375656L213.7324474003201,143.09154736835228A257.2095449239783,257.2095449239783,0,0,0,214.99634780559003,141.18541153482454Z" fill-rule="evenodd" style="fill: #AE497E; stroke: #fff; opacity: 1;" id="p-type-tokenTransfers"></path><path d="M246.79697208226466,165.22788678375656A297,297,0,0,1,245.318032173687,167.41583882784172L212.4516478688212,144.98636942079213A257.2095449239783,257.2095449239783,0,0,0,213.7324474003201,143.09154736835228Z" fill-rule="evenodd" style="fill: #AE497E; stroke: #fff; opacity: 1;" id="p-type-tokenTransfers"></path><path d="M245.318032173687,167.41583882784172A297,297,0,0,1,243.81969576990065,169.59055384859468L211.1540504797272,146.8697278747558A257.2095449239783,257.2095449239783,0,0,0,212.4516478688212,144.98636942079213Z" fill-rule="evenodd" style="fill: #AE497E; stroke: #fff; opacity: 1;" id="p-type-tokenTransfers"></path><path d="M243.81969576990065,169.59055384859468A297,297,0,0,1,242.30208133946914,171.75185989840486L209.83975782982367,148.7414738192444A257.2095449239783,257.2095449239783,0,0,0,211.1540504797272,146.8697278747558Z" fill-rule="evenodd" style="fill: #AE497E; stroke: #fff; opacity: 1;" id="p-type-tokenTransfers"></path><path d="M242.30208133946914,171.75185989840486A297,297,0,0,1,240.76530887520653,173.89958608986507L208.50887383593582,150.60145926142215A257.2095449239783,257.2095449239783,0,0,0,209.83975782982367,148.7414738192444Z" fill-rule="evenodd" style="fill: #AE497E; stroke: #fff; opacity: 1;" id="p-type-tokenTransfers"></path><path d="M240.76530887520653,173.89958608986507A297,297,0,0,1,239.20949988469008,176.0335626092833L207.16150372671234,152.44953713831785A257.2095449239783,257.2095449239783,0,0,0,208.50887383593582,150.60145926142215Z" fill-rule="evenodd" style="fill: #AE497E; stroke: #fff; opacity: 1;" id="p-type-tokenTransfers"></path><path d="M239.20949988469008,176.0335626092833A297,297,0,0,1,237.6347773806529,178.153620730109L205.79775403430511,154.2855613284524A257.2095449239783,257.2095449239783,0,0,0,207.16150372671234,152.44953713831785Z" fill-rule="evenodd" style="fill: #AE497E; stroke: #fff; opacity: 1;" id="p-type-tokenTransfers"></path><path d="M237.6347773806529,178.153620730109A297,297,0,0,1,236.04126587125796,180.25959282627406L204.4177325859462,156.10938666339248A257.2095449239783,257.2095449239783,0,0,0,205.79775403430511,154.2855613284524Z" fill-rule="evenodd" style="fill: #AE497E; stroke: #fff; opacity: 1;" id="p-type-tokenTransfers"></path><path d="M236.04126587125796,180.25959282627406A297,297,0,0,1,234.4290913502533,182.35131238544625L203.02154849542217,157.9208689392284A257.2095449239783,257.2095449239783,0,0,0,204.4177325859462,156.10938666339248Z" fill-rule="evenodd" style="fill: #AE497E; stroke: #fff; opacity: 1;" id="p-type-tokenTransfers"></path><path d="M234.4290913502533,182.35131238544625A297,297,0,0,1,232.79838128701041,184.42861402219484L201.6093121544469,159.71986492797566A257.2095449239783,257.2095449239783,0,0,0,203.02154849542217,157.9208689392284Z" fill-rule="evenodd" style="fill: #AE497E; stroke: #fff; opacity: 1;" id="p-type-tokenTransfers"></path><path d="M232.79838128701041,184.42861402219484A297,297,0,0,1,231.14926461644552,186.49133349106722L200.1811352239333,161.5062323888999A257.2095449239783,257.2095449239783,0,0,0,201.6093121544469,159.71986492797566Z" fill-rule="evenodd" style="fill: #AE497E; stroke: #fff; opacity: 1;" id="p-type-tokenTransfers"></path><path d="M231.14926461644552,186.49133349106722A297,297,0,0,1,229.48187172882515,188.539307699575L198.73713062516458,163.27983007976297A257.2095449239783,257.2095449239783,0,0,0,200.1811352239333,161.5062323888999Z" fill-rule="evenodd" style="fill: #AE497E; stroke: #fff; opacity: 1;" id="p-type-tokenTransfers"></path><path d="M229.48187172882515,188.539307699575A297,297,0,0,1,227.79633445945666,190.5723747210895L197.277412530866,165.04051776799088A257.2095449239783,257.2095449239783,0,0,0,198.73713062516458,163.27983007976297Z" fill-rule="evenodd" style="fill: #AE497E; stroke: #fff; opacity: 1;" id="p-type-tokenTransfers"></path><path d="M227.79633445945666,190.5723747210895A297,297,0,0,1,226.09278607826425,192.5903738076445L195.80209635617751,166.7881562417613A257.2095449239783,257.2095449239783,0,0,0,197.277412530866,165.04051776799088Z" fill-rule="evenodd" style="fill: #AE497E; stroke: #fff; opacity: 1;" id="p-type-tokenTransfers"></path><path d="M226.09278607826425,192.5903738076445A297,297,0,0,1,224.37136127925197,194.59314540264617L194.31129874952833,168.52260732101064A257.2095449239783,257.2095449239783,0,0,0,195.80209635617751,166.7881562417613Z" fill-rule="evenodd" style="fill: #AE497E; stroke: #fff; opacity: 1;" id="p-type-tokenTransfers"></path><path d="M224.37136127925197,194.59314540264617A297,297,0,0,1,222.63219616985378,196.58053115348872L192.80513758341397,170.2437338683595A257.2095449239783,257.2095449239783,0,0,0,194.31129874952833,168.52260732101064Z" fill-rule="evenodd" style="fill: #AE497E; stroke: #fff; opacity: 1;" id="p-type-tokenTransfers"></path><path d="M222.63219616985378,196.58053115348872A297,297,0,0,1,220.87542826017201,198.55237392407474L191.28373194507628,171.95139979995568A257.2095449239783,257.2095449239783,0,0,0,192.80513758341397,170.2437338683595Z" fill-rule="evenodd" style="fill: #AE497E; stroke: #fff; opacity: 1;" id="p-type-tokenTransfers"></path><path d="M220.87542826017201,198.55237392407474A297,297,0,0,1,219.10119645210494,200.5085178072396L189.7472021270878,173.645470096234A257.2095449239783,257.2095449239783,0,0,0,191.28373194507628,171.95139979995568Z" fill-rule="evenodd" style="fill: #AE497E; stroke: #fff; opacity: 1;" id="p-type-tokenTransfers"></path><path d="M219.10119645210494,200.5085178072396A297,297,0,0,1,217.30964102836418,202.4488081370782L188.1956696178405,175.3258108125915A257.2095449239783,257.2095449239783,0,0,0,189.7472021270878,173.645470096234Z" fill-rule="evenodd" style="fill: #AE497E; stroke: #fff; opacity: 1;" id="p-type-tokenTransfers"></path><path d="M217.30964102836418,202.4488081370782A297,297,0,0,1,215.50090364138305,204.37309150117423L186.62925709194016,176.99228908997844A257.2095449239783,257.2095449239783,0,0,0,188.1956696178405,175.3258108125915Z" fill-rule="evenodd" style="fill: #AE497E; stroke: #fff; opacity: 1;" id="p-type-tokenTransfers"></path><path d="M215.50090364138305,204.37309150117423A297,297,0,0,1,213.67512730211658,206.28121575272985L185.04808840050686,178.64477316540277A257.2095449239783,257.2095449239783,0,0,0,186.62925709194016,176.99228908997844Z" fill-rule="evenodd" style="fill: #AE497E; stroke: #fff; opacity: 1;" id="p-type-tokenTransfers"></path><path d="M213.67512730211658,206.28121575272985A297,297,0,0,1,211.832456368734,208.17303002259544L183.45228856138235,180.28313238234827A257.2095449239783,257.2095449239783,0,0,0,185.04808840050686,178.64477316540277Z" fill-rule="evenodd" style="fill: #AE497E; stroke: #fff; opacity: 1;" id="p-type-tokenTransfers"></path><path d="M211.832456368734,208.17303002259544A297,297,0,0,1,209.97303653520493,210.0483847311983L181.84198374924554,181.90723720110512A257.2095449239783,257.2095449239783,0,0,0,183.45228856138235,180.28313238234827Z" fill-rule="evenodd" style="fill: #AE497E; stroke: #fff; opacity: 1;" id="p-type-tokenTransfers"></path><path d="M209.97303653520493,210.0483847311983A297,297,0,0,1,208.0970148197799,211.90713160036944L180.2173012856362,183.51695920901213A257.2095449239783,257.2095449239783,0,0,0,181.84198374924554,181.90723720110512Z" fill-rule="evenodd" style="fill: #AE497E; stroke: #fff; opacity: 1;" id="p-type-tokenTransfers"></path><path d="M208.0970148197799,211.90713160036944A297,297,0,0,1,206.20453955336583,213.74912366506766L178.5783696288879,185.11217113061014A257.2095449239783,257.2095449239783,0,0,0,180.2173012856362,183.51695920901213Z" fill-rule="evenodd" style="fill: #AE497E; stroke: #fff; opacity: 1;" id="p-type-tokenTransfers"></path><path d="M206.20453955336583,213.74912366506766A297,297,0,0,1,204.29576036779827,215.57421528499913L176.9253183639714,186.69274683770487A257.2095449239783,257.2095449239783,0,0,0,178.5783696288879,185.11217113061014Z" fill-rule="evenodd" style="fill: #AE497E; stroke: #fff; opacity: 1;" id="p-type-tokenTransfers"></path><path d="M204.29576036779827,215.57421528499913A297,297,0,0,1,202.3708281840103,217.3822621561331L175.25827819224878,188.25856135933986A257.2095449239783,257.2095449239783,0,0,0,176.9253183639714,186.69274683770487Z" fill-rule="evenodd" style="fill: #AE497E; stroke: #fff; opacity: 1;" id="p-type-tokenTransfers"></path><path d="M202.3708281840103,217.3822621561331A297,297,0,0,1,200.42989520009985,219.17312132211143L173.5773809211392,189.8094908916773A257.2095449239783,257.2095449239783,0,0,0,175.25827819224878,188.25856135933986Z" fill-rule="evenodd" style="fill: #AE497E; stroke: #fff; opacity: 1;" id="p-type-tokenTransfers"></path><path d="M200.42989520009985,219.17312132211143A297,297,0,0,1,198.47311487929588,220.94665118555164L171.8827594536975,191.3454128077869A257.2095449239783,257.2095449239783,0,0,0,173.5773809211392,189.8094908916773Z" fill-rule="evenodd" style="fill: #AE497E; stroke: #fff; opacity: 1;" id="p-type-tokenTransfers"></path><path d="M198.47311487929588,220.94665118555164A297,297,0,0,1,196.50064193782433,222.7027115192425L170.1745477781057,192.86620566734138A257.2095449239783,257.2095449239783,0,0,0,171.8827594536975,191.3454128077869Z" fill-rule="evenodd" style="fill: #AE497E; stroke: #fff; opacity: 1;" id="p-type-tokenTransfers"></path><path d="M196.50064193782433,222.7027115192425A297,297,0,0,1,194.51263233267548,224.44116347723164L168.45288095707934,194.37174922621875A257.2095449239783,257.2095449239783,0,0,0,170.1745477781057,192.86620566734138Z" fill-rule="evenodd" style="fill: #AE497E; stroke: #fff; opacity: 1;" id="p-type-tokenTransfers"></path><path d="M194.51263233267548,224.44116347723164A297,297,0,0,1,192.50924324927288,226.1618696058031L166.71789511718828,195.8619244460092A257.2095449239783,257.2095449239783,0,0,0,168.45288095707934,194.37174922621875Z" fill-rule="evenodd" style="fill: #AE497E; stroke: #fff; opacity: 1;" id="p-type-tokenTransfers"></path><path d="M192.50924324927288,226.1618696058031A297,297,0,0,1,190.49063308904513,227.86469385434592L164.96972743809368,197.3366135034274A257.2095449239783,257.2095449239783,0,0,0,166.71789511718828,195.8619244460092Z" fill-rule="evenodd" style="fill: #AE497E; stroke: #fff; opacity: 1;" id="p-type-tokenTransfers"></path><path d="M190.49063308904513,227.86469385434592A297,297,0,0,1,188.45696145690164,229.54950158611084L163.20851614170164,198.79569979962827A257.2095449239783,257.2095449239783,0,0,0,164.96972743809368,197.3366135034274Z" fill-rule="evenodd" style="fill: #AE497E; stroke: #fff; opacity: 1;" id="p-type-tokenTransfers"></path><path d="M188.45696145690164,229.54950158611084A297,297,0,0,1,186.40838914861317,231.21615958885573L161.4344004812345,200.239067969426A257.2095449239783,257.2095449239783,0,0,0,163.20851614170164,198.79569979962827Z" fill-rule="evenodd" style="fill: #AE497E; stroke: #fff; opacity: 1;" id="p-type-tokenTransfers"></path><path d="M186.40838914861317,231.21615958885573A297,297,0,0,1,184.34507813809827,232.8645360853783L159.64752073022044,201.66660389041573A257.2095449239783,257.2095449239783,0,0,0,161.4344004812345,200.239067969426Z" fill-rule="evenodd" style="fill: #AE497E; stroke: #fff; opacity: 1;" id="p-type-tokenTransfers"></path><path d="M184.34507813809827,232.8645360853783A297,297,0,0,1,182.2671915646165,234.49450074393513L157.84801817140263,203.07819469199677A257.2095449239783,257.2095449239783,0,0,0,159.64752073022044,201.66660389041573Z" fill-rule="evenodd" style="fill: #AE497E; stroke: #fff; opacity: 1;" id="p-type-tokenTransfers"></path><path d="M182.2671915646165,234.49450074393513A297,297,0,0,1,180.17489371986957,236.1059246885467L156.0360350855684,204.4737287642969A257.2095449239783,257.2095449239783,0,0,0,157.84801817140263,203.07819469199677Z" fill-rule="evenodd" style="fill: #AE497E; stroke: #fff; opacity: 1;" id="p-type-tokenTransfers"></path><path d="M180.17489371986957,236.1059246885467A297,297,0,0,1,178.0683500350114,237.6986805091872L154.21171474029953,205.85309576699711A257.2095449239783,257.2095449239783,0,0,0,156.0360350855684,204.4737287642969Z" fill-rule="evenodd" style="fill: #AE497E; stroke: #fff; opacity: 1;" id="p-type-tokenTransfers"></path><path d="M178.0683500350114,237.6986805091872A297,297,0,0,1,175.94772706756777,239.27264227185827L152.3752013786446,207.21618663805563A257.2095449239783,257.2095449239783,0,0,0,154.21171474029953,205.85309576699711Z" fill-rule="evenodd" style="fill: #AE497E; stroke: #fff; opacity: 1;" id="p-type-tokenTransfers"></path><path d="M175.94772706756777,239.27264227185827A297,297,0,0,1,173.81319248826748,240.82768552854645L150.52664020771422,208.56289360233126A257.2095449239783,257.2095449239783,0,0,0,152.3752013786446,207.21618663805563Z" fill-rule="evenodd" style="fill: #AE497E; stroke: #fff; opacity: 1;" id="p-type-tokenTransfers"></path><path d="M173.81319248826748,240.82768552854645A297,297,0,0,1,171.66491506778493,242.36368732706265L148.6661773871998,209.89311018010486A257.2095449239783,257.2095449239783,0,0,0,150.52664020771422,208.56289360233126Z" fill-rule="evenodd" style="fill: #AE497E; stroke: #fff; opacity: 1;" id="p-type-tokenTransfers"></path><path d="M171.66491506778493,242.36368732706265A297,297,0,0,1,169.50306466339612,243.88052622076358L146.79396001781743,211.20673119549815A257.2095449239783,257.2095449239783,0,0,0,148.6661773871998,209.89311018010486Z" fill-rule="evenodd" style="fill: #AE497E; stroke: #fff; opacity: 1;" id="p-type-tokenTransfers"></path><path d="M169.50306466339612,243.88052622076358A297,297,0,0,1,167.3278122055485,245.37808227815438L144.91013612967686,212.50365278478986A257.2095449239783,257.2095449239783,0,0,0,146.79396001781743,211.20673119549815Z" fill-rule="evenodd" style="fill: #AE497E; stroke: #fff; opacity: 1;" id="p-type-tokenTransfers"></path><path d="M167.3278122055485,245.37808227815438A297,297,0,0,1,165.13932968434605,246.85623709237095L143.01485467057734,213.78377240462768A257.2095449239783,257.2095449239783,0,0,0,144.91013612967686,212.50365278478986Z" fill-rule="evenodd" style="fill: #AE497E; stroke: #fff; opacity: 1;" id="p-type-tokenTransfers"></path><path d="M165.13932968434605,246.85623709237095A297,297,0,0,1,162.93779013595082,248.3148737905421L141.10826549423095,215.04698884013615A257.2095449239783,257.2095449239783,0,0,0,143.01485467057734,213.78377240462768Z" fill-rule="evenodd" style="fill: #AE497E; stroke: #fff; opacity: 1;" id="p-type-tokenTransfers"></path><path d="M162.93779013595082,248.3148737905421A297,297,0,0,1,160.7233676289011,249.75387704303031L139.19051934841383,216.29320221291937A257.2095449239783,257.2095449239783,0,0,0,141.10826549423095,215.04698884013615Z" fill-rule="evenodd" style="fill: #AE497E; stroke: #fff; opacity: 1;" id="p-type-tokenTransfers"></path><path d="M160.7233676289011,249.75387704303031A297,297,0,0,1,158.49623725034874,251.17313307255048L137.26176786304745,217.52231398895808A257.2095449239783,257.2095449239783,0,0,0,139.19051934841383,216.29320221291937Z" fill-rule="evenodd" style="fill: #AE497E; stroke: #fff; opacity: 1;" id="p-type-tokenTransfers"></path><path d="M158.49623725034874,251.17313307255048A297,297,0,0,1,156.2565750922155,252.5725296631659L135.3221635382094,218.73422698640036A257.2095449239783,257.2095449239783,0,0,0,137.26176786304745,217.52231398895808Z" fill-rule="evenodd" style="fill: #AE497E; stroke: #fff; opacity: 1;" id="p-type-tokenTransfers"></path><path d="M156.2565750922155,252.5725296631659A297,297,0,0,1,154.00455823726992,253.95195616916075L133.3718597320758,219.92884538324552A257.2095449239783,257.2095449239783,0,0,0,135.3221635382094,218.73422698640036Z" fill-rule="evenodd" style="fill: #AE497E; stroke: #fff; opacity: 1;" id="p-type-tokenTransfers"></path><path d="M154.00455823726992,253.95195616916075A297,297,0,0,1,151.74036474512613,255.31130352378855L131.41101064879587,221.10607472492035A257.2095449239783,257.2095449239783,0,0,0,133.3718597320758,219.92884538324552Z" fill-rule="evenodd" style="fill: #AE497E; stroke: #fff; opacity: 1;" id="p-type-tokenTransfers"></path><path d="M151.74036474512613,255.31130352378855A297,297,0,0,1,149.46417363816508,256.6504642478958L129.43977132629936,222.2658219317476A257.2095449239783,257.2095449239783,0,0,0,131.41101064879587,221.10607472492035Z" fill-rule="evenodd" style="fill: #AE497E; stroke: #fff; opacity: 1;" id="p-type-tokenTransfers"></path><path d="M149.46417363816508,256.6504642478958A297,297,0,0,1,147.17616488737997,257.96933245841984L127.45829762403835,223.40799530630514A257.2095449239783,257.2095449239783,0,0,0,129.43977132629936,222.2658219317476Z" fill-rule="evenodd" style="fill: #AE497E; stroke: #fff; opacity: 1;" id="p-type-tokenTransfers"></path><path d="M147.17616488737997,257.96933245841984A297,297,0,0,1,144.87651939814648,259.26780387676075L125.46674621066387,224.5325045406764A257.2095449239783,257.2095449239783,0,0,0,127.45829762403835,223.40799530630514Z" fill-rule="evenodd" style="fill: #AE497E; stroke: #fff; opacity: 1;" id="p-type-tokenTransfers"></path><path d="M144.87651939814648,259.26780387676075A297,297,0,0,1,142.56541899591923,260.5457758370263L123.46527455163864,225.63926072359058A257.2095449239783,257.2095449239783,0,0,0,125.46674621066387,224.5325045406764Z" fill-rule="evenodd" style="fill: #AE497E; stroke: #fff; opacity: 1;" id="p-type-tokenTransfers"></path><path d="M142.56541899591923,260.5457758370263A297,297,0,0,1,140.24304641185532,261.8031472941496L121.45404089678676,226.72817634745277A257.2095449239783,257.2095449239783,0,0,0,123.46527455163864,225.63926072359058Z" fill-rule="evenodd" style="fill: #AE497E; stroke: #fff; opacity: 1;" id="p-type-tokenTransfers"></path><path d="M140.24304641185532,261.8031472941496A297,297,0,0,1,137.90958526836638,263.039818831878L119.43320426778148,227.7991653152627A257.2095449239783,257.2095449239783,0,0,0,121.45404089678676,226.72817634745277Z" fill-rule="evenodd" style="fill: #AE497E; stroke: #fff; opacity: 1;" id="p-type-tokenTransfers"></path><path d="M137.90958526836638,263.039818831878A297,297,0,0,1,135.5652200646003,264.25569267063383L117.40292444557178,228.8521429474222A257.2095449239783,257.2095449239783,0,0,0,119.43320426778148,227.7991653152627Z" fill-rule="evenodd" style="fill: #AE497E; stroke: #fff; opacity: 1;" id="p-type-tokenTransfers"></path><path d="M135.5652200646003,264.25569267063383A297,297,0,0,1,133.2101361618534,265.4506726752458L115.36336195774913,229.8870259884306A257.2095449239783,257.2095449239783,0,0,0,117.40292444557178,228.8521429474222Z" fill-rule="evenodd" style="fill: #AE497E; stroke: #fff; opacity: 1;" id="p-type-tokenTransfers"></path><path d="M133.2101361618534,265.4506726752458A297,297,0,0,1,130.84451976891435,266.62466436254954L113.31467806585503,230.90373261346738A257.2095449239783,257.2095449239783,0,0,0,115.36336195774913,229.8870259884306Z" fill-rule="evenodd" style="fill: #AE497E; stroke: #fff; opacity: 1;" id="p-type-tokenTransfers"></path><path d="M-110.06137700289412,275.85411596027853A297,297,0,0,1,-153.7270139426903,254.12006057032158L-133.1314993222944,220.07442806513876A257.2095449239783,257.2095449239783,0,0,0,-95.31594846000272,238.8966721600996Z" fill-rule="evenodd" style="fill: #F09B24; stroke: #fff; opacity: 1;" id="p-type-ether"></path><path d="M-153.7270139426903,254.12006057032158A297,297,0,0,1,-161.5459198850637,249.22262290668675L-139.90287049819088,215.83312263498027A257.2095449239783,257.2095449239783,0,0,0,-133.1314993222944,220.07442806513876Z" fill-rule="evenodd" style="fill: #F09B24; stroke: #fff; opacity: 1;" id="p-type-ether"></path><path d="M-161.5459198850637,249.22262290668675A297,297,0,0,1,-164.86655810071417,247.03849501651322L-142.77862754972162,213.9416123969759A257.2095449239783,257.2095449239783,0,0,0,-139.90287049819088,215.83312263498027Z" fill-rule="evenodd" style="fill: #F09B24; stroke: #fff; opacity: 1;" id="p-type-ether"></path><path d="M-164.86655810071417,247.03849501651322A297,297,0,0,1,-167.49439845852694,245.26440117761936L-145.05440405667747,212.40520206379637A257.2095449239783,257.2095449239783,0,0,0,-142.77862754972162,213.9416123969759Z" fill-rule="evenodd" style="fill: #F09B24; stroke: #fff; opacity: 1;" id="p-type-ether"></path><path d="M-167.49439845852694,245.26440117761936A297,297,0,0,1,-169.66867901293244,243.7653366703447L-146.93738625174714,211.1069741185849A257.2095449239783,257.2095449239783,0,0,0,-145.05440405667747,212.40520206379637Z" fill-rule="evenodd" style="fill: #F09B24; stroke: #fff; opacity: 1;" id="p-type-ether"></path><path d="M-169.66867901293244,243.7653366703447A297,297,0,0,1,-171.82949862070333,242.24702971090835L-148.80871092507226,209.79208172097032A257.2095449239783,257.2095449239783,0,0,0,-146.93738625174714,211.1069741185849Z" fill-rule="evenodd" style="fill: #F09B24; stroke: #fff; opacity: 1;" id="p-type-ether"></path><path d="M-171.82949862070333,242.24702971090835A297,297,0,0,1,-173.069017281656,241.36303622792337L-149.88216557392212,209.02652090792546A257.2095449239783,257.2095449239783,0,0,0,-148.80871092507226,209.79208172097032Z" fill-rule="evenodd" style="fill: #F09B24; stroke: #fff; opacity: 1;" id="p-type-ether"></path></g></svg>