<svg xmlns="http://www.w3.org/2000/svg" width="600" height="600" id="block-7914277"><g id="burst-container" transform="translate(300,300)"><data type="text/json">{"number":7914277,"totalTransactions":70,"totalFunctions":138,"totalFunctionsValue":"14.808072684896287209","totalLogs":69,"totalTokenTransfers":69,"tokens":{"0xd0929d411954c47438dc1d871dd6081f5c5e149c":"1.5e-11","0xa74476443119a942de498590fe1f2454d7d4ac0d":"2214.56311174","0x0d8775f648430679a709e98d2b0cb6250d2887ef":"7.33964347","0xebbdf302c940c6bfd49c6b165f457fdb324649bc":"541635","0x419d0d8bdd9af5e606ae2232ed285aff190e711b":"9.951e-7","0x68d57c9a1c35f63e2c83ee8e49a64e9d70528d25":"2000.521957","0xb97048628db6b661d4c2aa833e95dbe1a905b280":"106.5","0x174bfa6600bf90c885c7c01c7031389ed1461ab9":"0.73238466","0x419c4db4b9e25d6db2ad9691ccb832c8d9fda05e":"1528.04225703","0xc4131c1893576e078a0b637b653f3e6a18e137ac":"6e-13","0xc9c4d9ec2b44b241361707679d3db0876ac10ca6":"17746929","0x1af97824a7ccd3963b9385e37ecbf44ece0c73e4":"36"},"totalEther":"22.801048367925227591","totalEtherTxns":15,"newContracts":[],"totalNewContracts":0}</data><circle r="297" style="fill: #f9f9f9; stroke: #f9f9f9; stroke-width: 3; opacity: 1;" id="circle-base"></circle><path display="none" d="M9.093002483669097e-15,-148.5A148.5,148.5,0,1,1,-9.093002483669097e-15,148.5A148.5,148.5,0,1,1,9.093002483669097e-15,-148.5Z" fill-rule="evenodd" id="p-type-root" style="stroke: #fff; opacity: 1;"></path><path d="M1.2859447435097075e-14,-210.0107140124046A210.0107140124046,210.0107140124046,0,1,1,-148.40513058756062,-148.59480884367755L-104.93827420133924,-105.07239698248317A148.5,148.5,0,1,0,9.093002483669097e-15,-148.5Z" fill-rule="evenodd" style="fill: #4E4E4E; stroke: #fff; opacity: 1;" id="p-type-data"></path><path d="M-148.40513058756062,-148.59480884367755A210.0107140124046,210.0107140124046,0,0,1,-5.492970375899308,-209.93886556912108L-3.8841166016552195,-148.44919547853652A148.5,148.5,0,0,0,-104.93827420133924,-105.07239698248317Z" fill-rule="evenodd" style="fill: #3A86AD; stroke: #fff; opacity: 1;" id="p-type-value"></path><path d="M1.5749542295064867e-14,-257.2095449239783A257.2095449239783,257.2095449239783,0,0,1,257.20422111162156,1.6548843959874417L210.00636713781785,1.3512074511543912A210.0107140124046,210.0107140124046,0,0,0,1.2859447435097075e-14,-210.0107140124046Z" fill-rule="evenodd" style="fill: #6B0E12; stroke: #fff; opacity: 1;" id="p-type-functions"></path><path d="M257.20422111162156,1.6548843959874417A257.2095449239783,257.2095449239783,0,0,1,32.22996402852564,255.18224745996721L26.315655432714784,208.35543256451612A210.0107140124046,210.0107140124046,0,0,0,210.00636713781785,1.3512074511543912Z" fill-rule="evenodd" style="fill: #184B42; stroke: #fff; opacity: 1;" id="p-type-logs"></path><path d="M32.22996402852564,255.18224745996721A257.2095449239783,257.2095449239783,0,0,1,-208.74863831500485,150.26894556637873L-170.44254945751996,122.6940802745628A210.0107140124046,210.0107140124046,0,0,0,26.315655432714784,208.35543256451612Z" fill-rule="evenodd" style="fill: #AE497E; stroke: #fff; opacity: 1;" id="p-type-tokenTransfers"></path><path d="M-208.74863831500485,150.26894556637873A257.2095449239783,257.2095449239783,0,0,1,-255.05529305021392,33.21968523435321L-208.25177472301885,27.123759413344658A210.0107140124046,210.0107140124046,0,0,0,-170.44254945751996,122.6940802745628Z" fill-rule="evenodd" style="fill: #F09B24; stroke: #fff; opacity: 1;" id="p-type-ether"></path><path d="M-181.75842257531392,-181.99073004670763A257.2095449239783,257.2095449239783,0,0,1,-63.26255809241329,-249.30824042458772L-51.6536623831971,-203.55932590378336A210.0107140124046,210.0107140124046,0,0,0,-148.40513058756062,-148.59480884367755Z" fill-rule="evenodd" style="fill: #AE497E; stroke: #fff; opacity: 1;" id="p-type-tokenTransfers"></path><path d="M-63.26255809241329,-249.30824042458772A257.2095449239783,257.2095449239783,0,0,1,-13.450371404318286,-256.85762108430015L-10.982182263833938,-209.72336940056044A210.0107140124046,210.0107140124046,0,0,0,-51.6536623831971,-203.55932590378336Z" fill-rule="evenodd" style="fill: #F09B24; stroke: #fff; opacity: 1;" id="p-type-ether"></path><path d="M1.8186004967338195e-14,-297A297,297,0,0,1,4.664137682517168,-296.9633745425158L4.039261719808147,-257.17782634737176A257.2095449239783,257.2095449239783,0,0,0,1.5749542295064867e-14,-257.2095449239783Z" fill-rule="evenodd" style="fill: #6B0E12; stroke: #fff; opacity: 1;" id="p-type-functions"></path><path d="M4.664137682517168,-296.9633745425158A297,297,0,0,1,8.547708572312724,-296.8769722935122L7.402532767768833,-257.1029998047905A257.2095449239783,257.2095449239783,0,0,0,4.039261719808147,-257.17782634737176Z" fill-rule="evenodd" style="fill: #6B0E12; stroke: #fff; opacity: 1;" id="p-type-functions"></path><path d="M8.547708572312724,-296.8769722935122A297,297,0,0,1,12.429817237137538,-296.73978439611255L10.764537491758812,-256.9841916005507A257.2095449239783,257.2095449239783,0,0,0,7.402532767768833,-257.1029998047905Z" fill-rule="evenodd" style="fill: #6B0E12; stroke: #fff; opacity: 1;" id="p-type-functions"></path><path d="M12.429817237137538,-296.73978439611255A297,297,0,0,1,16.309799578984265,-296.5518343185443L14.124700766033117,-256.8214220587333A257.2095449239783,257.2095449239783,0,0,0,10.764537491758812,-256.9841916005507Z" fill-rule="evenodd" style="fill: #6B0E12; stroke: #fff; opacity: 1;" id="p-type-functions"></path><path d="M16.309799578984265,-296.5518343185443A297,297,0,0,1,20.18699186358799,-296.31315421273393L17.48244777985697,-256.6147190237235A257.2095449239783,257.2095449239783,0,0,0,14.124700766033117,-256.8214220587333Z" fill-rule="evenodd" style="fill: #6B0E12; stroke: #fff; opacity: 1;" id="p-type-functions"></path><path d="M20.18699186358799,-296.31315421273393A297,297,0,0,1,24.06073083396853,-296.0237849088065L20.837204135836288,-256.364117855447A257.2095449239783,257.2095449239783,0,0,0,17.48244777985697,-256.6147190237235Z" fill-rule="evenodd" style="fill: #6B0E12; stroke: #fff; opacity: 1;" id="p-type-functions"></path><path d="M24.06073083396853,-296.0237849088065A297,297,0,0,1,27.930353823891416,-295.68377590810127L24.188395948177806,-256.06966142332084A257.2095449239783,257.2095449239783,0,0,0,20.837204135836288,-256.364117855447Z" fill-rule="evenodd" style="fill: #6B0E12; stroke: #fff; opacity: 1;" id="p-type-functions"></path><path d="M27.930353823891416,-295.68377590810127A297,297,0,0,1,31.79519887122785,-295.2931853747036L27.53544994086163,-255.7314000989208A257.2095449239783,257.2095449239783,0,0,0,24.188395948177806,-256.06966142332084Z" fill-rule="evenodd" style="fill: #6B0E12; stroke: #fff; opacity: 1;" id="p-type-functions"></path><path d="M31.79519887122785,-295.2931853747036A297,297,0,0,1,35.65460483119385,-294.85208012549515L30.877793545709252,-255.3493917473636A257.2095449239783,257.2095449239783,0,0,0,27.53544994086163,-255.7314000989208Z" fill-rule="evenodd" style="fill: #6B0E12; stroke: #fff; opacity: 1;" id="p-type-functions"></path><path d="M35.65460483119385,-294.85208012549515A297,297,0,0,1,39.50791148945023,-294.3605356187235L34.214855000331,-254.92370171740865A257.2095449239783,257.2095449239783,0,0,0,30.877793545709252,-255.3493917473636Z" fill-rule="evenodd" style="fill: #6B0E12; stroke: #fff; opacity: 1;" id="p-type-functions"></path><path d="M39.50791148945023,-294.3605356187235A297,297,0,0,1,43.35445967504277,-293.81863594109393L37.546063445935076,-254.45440283027887A257.2095449239783,257.2095449239783,0,0,0,34.214855000331,-254.92370171740865Z" fill-rule="evenodd" style="fill: #6B0E12; stroke: #fff; opacity: 1;" id="p-type-functions"></path><path d="M43.35445967504277,-293.81863594109393A297,297,0,0,1,47.193591373164274,-293.22647379338514L40.87084902498239,-253.9415753672035A257.2095449239783,257.2095449239783,0,0,0,37.546063445935076,-254.45440283027887Z" fill-rule="evenodd" style="fill: #6B0E12; stroke: #fff; opacity: 1;" id="p-type-functions"></path><path d="M47.193591373164274,-293.22647379338514A297,297,0,0,1,51.02464983771872,-292.5841504745911L44.18864297866995,-253.38530705568476A257.2095449239783,257.2095449239783,0,0,0,40.87084902498239,-253.9415753672035Z" fill-rule="evenodd" style="fill: #6B0E12; stroke: #fff; opacity: 1;" id="p-type-functions"></path><path d="M51.02464983771872,-292.5841504745911A297,297,0,0,1,54.84697970366819,-291.8917758645923L47.49887774422616,-252.78569305449042A257.2095449239783,257.2095449239783,0,0,0,44.18864297866995,-253.38530705568476Z" fill-rule="evenodd" style="fill: #6B0E12; stroke: #fff; opacity: 1;" id="p-type-functions"></path><path d="M54.84697970366819,-291.8917758645923A297,297,0,0,1,58.65992709914413,-291.1494684053589L50.80098705200203,-252.14283593737562A257.2095449239783,257.2095449239783,0,0,0,47.49887774422616,-252.78569305449042Z" fill-rule="evenodd" style="fill: #6B0E12; stroke: #fff; opacity: 1;" id="p-type-functions"></path><path d="M58.65992709914413,-291.1494684053589A297,297,0,0,1,62.46283975730258,-290.3573550806894L54.09440602234066,-251.45684567553565A257.2095449239783,257.2095449239783,0,0,0,50.80098705200203,-252.14283593737562Z" fill-rule="evenodd" style="fill: #6B0E12; stroke: #fff; opacity: 1;" id="p-type-functions"></path><path d="M62.46283975730258,-290.3573550806894A297,297,0,0,1,66.25506712790491,-289.5155713944879L57.378571262208936,-250.72783961879387A257.2095449239783,257.2095449239783,0,0,0,54.09440602234066,-251.45684567553565Z" fill-rule="evenodd" style="fill: #6B0E12; stroke: #fff; opacity: 1;" id="p-type-functions"></path><path d="M66.25506712790491,-289.5155713944879A297,297,0,0,1,70.03596048860534,-288.6242613475841L60.65292096157543,-249.95594247552685A257.2095449239783,257.2095449239783,0,0,0,57.378571262208936,-250.72783961879387Z" fill-rule="evenodd" style="fill: #6B0E12; stroke: #fff; opacity: 1;" id="p-type-functions"></path><path d="M70.03596048860534,-288.6242613475841A297,297,0,0,1,73.80487305592536,-287.6835774130994L63.91689498951699,-249.1412862913312A257.2095449239783,257.2095449239783,0,0,0,60.65292096157543,-249.95594247552685Z" fill-rule="evenodd" style="fill: #6B0E12; stroke: #fff; opacity: 1;" id="p-type-functions"></path><path d="M73.80487305592536,-287.6835774130994A297,297,0,0,1,77.56116009589651,-286.69368051036406L67.16993499003827,-248.2840104264349A257.2095449239783,257.2095449239783,0,0,0,63.91689498951699,-249.1412862913312Z" fill-rule="evenodd" style="fill: #6B0E12; stroke: #fff; opacity: 1;" id="p-type-functions"></path><path d="M77.56116009589651,-286.69368051036406A297,297,0,0,1,81.30417903435287,-285.6547399773893L70.41148447758775,-247.38426153185742A257.2095449239783,257.2095449239783,0,0,0,67.16993499003827,-248.2840104264349Z" fill-rule="evenodd" style="fill: #6B0E12; stroke: #fff; opacity: 1;" id="p-type-functions"></path><path d="M81.30417903435287,-285.6547399773893A297,297,0,0,1,85.03328956685343,-284.5669335418992L73.64098893225332,-246.44219352432273A257.2095449239783,257.2095449239783,0,0,0,70.41148447758775,-247.38426153185742Z" fill-rule="evenodd" style="fill: #6B0E12; stroke: #fff; opacity: 1;" id="p-type-functions"></path><path d="M85.03328956685343,-284.5669335418992A297,297,0,0,1,88.74785376821708,-283.43044729092736L76.85789589462252,-245.45796755992944A257.2095449239783,257.2095449239783,0,0,0,73.64098893225332,-246.44219352432273Z" fill-rule="evenodd" style="fill: #6B0E12; stroke: #fff; opacity: 1;" id="p-type-functions"></path><path d="M88.74785376821708,-283.43044729092736A297,297,0,0,1,92.44723620164993,-282.2454756389841L80.06165506028925,-244.43175200658214A257.2095449239783,257.2095449239783,0,0,0,76.85789589462252,-245.45796755992944Z" fill-rule="evenodd" style="fill: #6B0E12; stroke: #fff; opacity: 1;" id="p-type-functions"></path><path d="M92.44723620164993,-282.2454756389841A297,297,0,0,1,96.13080402744694,-281.0122212947981L83.25171837399247,-243.36372241518959A257.2095449239783,257.2095449239783,0,0,0,80.06165506028925,-244.43175200658214Z" fill-rule="evenodd" style="fill: #6B0E12; stroke: #fff; opacity: 1;" id="p-type-functions"></path><path d="M96.13080402744694,-281.0122212947981A297,297,0,0,1,99.7979271112498,-279.7308952266404L86.42754012337008,-242.25406148963376A257.2095449239783,257.2095449239783,0,0,0,83.25171837399247,-243.36372241518959Z" fill-rule="evenodd" style="fill: #6B0E12; stroke: #fff; opacity: 1;" id="p-type-functions"></path><path d="M99.7979271112498,-279.7308952266404A297,297,0,0,1,103.44797813184151,-278.40171662623425L89.58857703231183,-241.10295905551538A257.2095449239783,257.2095449239783,0,0,0,86.42754012337008,-242.25406148963376Z" fill-rule="evenodd" style="fill: #6B0E12; stroke: #fff; opacity: 1;" id="p-type-functions"></path><path d="M103.44797813184151,-278.40171662623425A297,297,0,0,1,107.08033268845996,-277.0249128712592L92.73428835389556,-239.91061202768117A257.2095449239783,257.2095449239783,0,0,0,89.58857703231183,-241.10295905551538Z" fill-rule="evenodd" style="fill: #6B0E12; stroke: #fff; opacity: 1;" id="p-type-functions"></path><path d="M107.08033268845996,-277.0249128712592A297,297,0,0,1,110.69436940761187,-275.60071948645407L95.8641359628909,-238.67722437653822A257.2095449239783,257.2095449239783,0,0,0,92.73428835389556,-239.91061202768117Z" fill-rule="evenodd" style="fill: #6B0E12; stroke: #fff; opacity: 1;" id="p-type-functions"></path><path d="M110.69436940761187,-275.60071948645407A297,297,0,0,1,114.28947004936867,-274.1293801033272L98.97758444781402,-237.40300709316182A257.2095449239783,257.2095449239783,0,0,0,95.8641359628909,-238.67722437653822Z" fill-rule="evenodd" style="fill: #6B0E12; stroke: #fff; opacity: 1;" id="p-type-functions"></path><path d="M114.28947004936867,-274.1293801033272A297,297,0,0,1,117.86501961312689,-272.61114641847865L102.074101202519,-236.08817815320174A257.2095449239783,257.2095449239783,0,0,0,98.97758444781402,-237.40300709316182Z" fill-rule="evenodd" style="fill: #6B0E12; stroke: #fff; opacity: 1;" id="p-type-functions"></path><path d="M117.86501961312689,-272.61114641847865A297,297,0,0,1,121.42040644281379,-271.0462781505437L105.15315651730847,-234.73296247959388A257.2095449239783,257.2095449239783,0,0,0,102.074101202519,-236.08817815320174Z" fill-rule="evenodd" style="fill: #6B0E12; stroke: #fff; opacity: 1;" id="p-type-functions"></path><path d="M121.42040644281379,-271.0462781505437A297,297,0,0,1,124.95502233152102,-269.4350429957638L108.21422366954904,-233.33759190408395A257.2095449239783,257.2095449239783,0,0,0,105.15315651730847,-234.73296247959388Z" fill-rule="evenodd" style="fill: #6B0E12; stroke: #fff; opacity: 1;" id="p-type-functions"></path><path d="M124.95502233152102,-269.4350429957638A297,297,0,0,1,128.46826262554868,-267.77771658219257L111.2567790137761,-231.9023051275683A257.2095449239783,257.2095449239783,0,0,0,108.21422366954904,-233.33759190408395Z" fill-rule="evenodd" style="fill: #6B0E12; stroke: #fff; opacity: 1;" id="p-type-functions"></path><path d="M128.46826262554868,-267.77771658219257A297,297,0,0,1,131.95952632784088,-266.07458242254535L114.28030207127165,-230.42734767926075A257.2095449239783,257.2095449239783,0,0,0,111.2567790137761,-231.9023051275683Z" fill-rule="evenodd" style="fill: #6B0E12; stroke: #fff; opacity: 1;" id="p-type-functions"></path><path d="M131.95952632784088,-266.07458242254535A297,297,0,0,1,135.42821620079621,-264.3259318656995L117.2842756191008,-228.9129718746904A257.2095449239783,257.2095449239783,0,0,0,114.28030207127165,-230.42734767926075Z" fill-rule="evenodd" style="fill: #6B0E12; stroke: #fff; opacity: 1;" id="p-type-functions"></path><path d="M135.42821620079621,-264.3259318656995A297,297,0,0,1,138.87373886843505,-262.5320640468545L120.26818577859117,-227.35943677253928A257.2095449239783,257.2095449239783,0,0,0,117.2842756191008,-228.9129718746904Z" fill-rule="evenodd" style="fill: #6B0E12; stroke: #fff; opacity: 1;" id="p-type-functions"></path><path d="M138.87373886843505,-262.5320640468545A297,297,0,0,1,142.295504917906,-260.6932858363602L123.2315221032401,-225.76700813032593A257.2095449239783,257.2095449239783,0,0,0,120.26818577859117,-227.35943677253928Z" fill-rule="evenodd" style="fill: #6B0E12; stroke: #fff; opacity: 1;" id="p-type-functions"></path><path d="M142.295504917906,-260.6932858363602A297,297,0,0,1,145.69292900031465,-258.8099117872213L126.17377766603505,-224.1359583589433A257.2095449239783,257.2095449239783,0,0,0,123.2315221032401,-225.76700813032593Z" fill-rule="evenodd" style="fill: #6B0E12; stroke: #fff; opacity: 1;" id="p-type-functions"></path><path d="M145.69292900031465,-258.8099117872213A297,297,0,0,1,149.0654299308573,-256.88226408128816L129.09444914617166,-222.46656647605838A257.2095449239783,257.2095449239783,0,0,0,126.17377766603505,-224.1359583589433Z" fill-rule="evenodd" style="fill: #6B0E12; stroke: #fff; opacity: 1;" id="p-type-functions"></path><path d="M149.0654299308573,-256.88226408128816A297,297,0,0,1,152.41243078824175,-254.91067247414225L131.99303691515487,-220.75911805838183A257.2095449239783,257.2095449239783,0,0,0,129.09444914617166,-222.46656647605838Z" fill-rule="evenodd" style="fill: #6B0E12; stroke: #fff; opacity: 1;" id="p-type-functions"></path><path d="M152.41243078824175,-254.91067247414225A297,297,0,0,1,155.73335901337921,-252.8954742386861L134.8690451222687,-219.01390519281523A257.2095449239783,257.2095449239783,0,0,0,131.99303691515487,-220.75911805838183Z" fill-rule="evenodd" style="fill: #6B0E12; stroke: #fff; opacity: 1;" id="p-type-functions"></path><path d="M155.73335901337921,-252.8954742386861A297,297,0,0,1,159.02764650733,-250.8370141074473L137.72198177939944,-217.23122642648497A257.2095449239783,257.2095449239783,0,0,0,134.8690451222687,-219.01390519281523Z" fill-rule="evenodd" style="fill: #6B0E12; stroke: #fff; opacity: 1;" id="p-type-functions"></path><path d="M159.02764650733,-250.8370141074473A297,297,0,0,1,162.29472972848598,-248.73564421360624L140.5513588451984,-215.4113867156708A257.2095449239783,257.2095449239783,0,0,0,137.72198177939944,-217.23122642648497Z" fill-rule="evenodd" style="fill: #6B0E12; stroke: #fff; opacity: 1;" id="p-type-functions"></path><path d="M162.29472972848598,-248.73564421360624A297,297,0,0,1,165.53404978897356,-246.59172403075823L143.3566923085692,-213.55469737363828A257.2095449239783,257.2095449239783,0,0,0,140.5513588451984,-215.4113867156708Z" fill-rule="evenodd" style="fill: #6B0E12; stroke: #fff; opacity: 1;" id="p-type-functions"></path><path d="M165.53404978897356,-246.59172403075823A297,297,0,0,1,168.7450525502607,-244.40562031141948L146.13750227146585,-211.66147601738328A257.2095449239783,257.2095449239783,0,0,0,143.3566923085692,-213.55469737363828Z" fill-rule="evenodd" style="fill: #6B0E12; stroke: #fff; opacity: 1;" id="p-type-functions"></path><path d="M168.7450525502607,-244.40562031141948A297,297,0,0,1,171.92718871795122,-242.17770702428822L148.89331303098712,-209.73204651329868A257.2095449239783,257.2095449239783,0,0,0,146.13750227146585,-211.66147601738328Z" fill-rule="evenodd" style="fill: #6B0E12; stroke: #fff; opacity: 1;" id="p-type-functions"></path><path d="M171.92718871795122,-242.17770702428822A297,297,0,0,1,175.07991393575065,-239.9083652902711L151.62365316075324,-207.76673892177163A257.2095449239783,257.2095449239783,0,0,0,148.89331303098712,-209.73204651329868Z" fill-rule="evenodd" style="fill: #6B0E12; stroke: #fff; opacity: 1;" id="p-type-functions"></path><path d="M175.07991393575065,-239.9083652902711A297,297,0,0,1,178.20268887858714,-237.59798331728632L154.32805559155113,-205.76588944072122A257.2095449239783,257.2095449239783,0,0,0,151.62365316075324,-207.76673892177163Z" fill-rule="evenodd" style="fill: #6B0E12; stroke: #fff; opacity: 1;" id="p-type-functions"></path><path d="M178.20268887858714,-237.59798331728632A297,297,0,0,1,181.29497934487193,-235.2469563338545L157.0060576912342,-203.72984034808658A257.2095449239783,257.2095449239783,0,0,0,154.32805559155113,-205.76588944072122Z" fill-rule="evenodd" style="fill: #6B0E12; stroke: #fff; opacity: 1;" id="p-type-functions"></path><path d="M181.29497934487193,-235.2469563338545A297,297,0,0,1,184.35625634788323,-232.85568652148817L159.65720134386305,-201.65893994327448A257.2095449239783,257.2095449239783,0,0,0,157.0060576912342,-203.72984034808658Z" fill-rule="evenodd" style="fill: #6B0E12; stroke: #fff; opacity: 1;" id="p-type-functions"></path><path d="M184.35625634788323,-232.85568652148817A297,297,0,0,1,187.3859962062579,-230.42458294589207L162.28103302807378,-199.55354248757706A257.2095449239783,257.2095449239783,0,0,0,159.65720134386305,-201.65893994327448Z" fill-rule="evenodd" style="fill: #6B0E12; stroke: #fff; opacity: 1;" id="p-type-functions"></path><path d="M187.3859962062579,-230.42458294589207A297,297,0,0,1,190.3836806335759,-227.95406148698598L164.87710389466017,-197.4140081435698A257.2095449239783,257.2095449239783,0,0,0,162.28103302807378,-199.55354248757706Z" fill-rule="evenodd" style="fill: #6B0E12; stroke: #fff; opacity: 1;" id="p-type-functions"></path><path d="M190.3836806335759,-227.95406148698598A297,297,0,0,1,193.3487968270214,-225.44454476776144L167.4449698433566,-195.24070291349958A257.2095449239783,257.2095449239783,0,0,0,164.87710389466017,-197.4140081435698Z" fill-rule="evenodd" style="fill: #6B0E12; stroke: #fff; opacity: 1;" id="p-type-functions"></path><path d="M193.3487968270214,-225.44454476776144A297,297,0,0,1,196.2808375551063,-222.89646208198542L169.98419159880876,-193.03399857667424A257.2095449239783,257.2095449239783,0,0,0,167.4449698433566,-195.24070291349958Z" fill-rule="evenodd" style="fill: #6B0E12; stroke: #fff; opacity: 1;" id="p-type-functions"></path><path d="M196.2808375551063,-222.89646208198542A297,297,0,0,1,199.1793012444403,-220.3102493207624L172.49433478571876,-190.79427262586364A257.2095449239783,257.2095449239783,0,0,0,169.98419159880876,-193.03399857667424Z" fill-rule="evenodd" style="fill: #6B0E12; stroke: #fff; opacity: 1;" id="p-type-functions"></path><path d="M199.1793012444403,-220.3102493207624A297,297,0,0,1,202.04369206553324,-217.68634889796832L174.9749700031522,-188.5219082027232A257.2095449239783,257.2095449239783,0,0,0,172.49433478571876,-190.79427262586364Z" fill-rule="evenodd" style="fill: #6B0E12; stroke: #fff; opacity: 1;" id="p-type-functions"></path><path d="M202.04369206553324,-217.68634889796832A297,297,0,0,1,203.69219169721725,-216.14460678347749L176.40261256231986,-187.1867203654898A257.2095449239783,257.2095449239783,0,0,0,174.9749700031522,-188.5219082027232Z" fill-rule="evenodd" style="fill: #6B0E12; stroke: #fff; opacity: 1;" id="p-type-functions"></path><path d="M203.69219169721725,-216.14460678347749A297,297,0,0,1,204.7920769220008,-215.10277829440815L177.35514110822956,-186.2844704275694A257.2095449239783,257.2095449239783,0,0,0,176.40261256231986,-187.1867203654898Z" fill-rule="evenodd" style="fill: #6B0E12; stroke: #fff; opacity: 1;" id="p-type-functions"></path><path d="M296.99385259100546,1.9108959030021215A297,297,0,0,1,296.94345725318715,5.795100907198798L257.1605774688386,5.0187046031284055A257.2095449239783,257.2095449239783,0,0,0,257.20422111162156,1.6548843959874417Z" fill-rule="evenodd" style="fill: #184B42; stroke: #fff; opacity: 1;" id="p-type-logs"></path><path d="M296.94345725318715,5.795100907198798A297,297,0,0,1,296.842264893636,9.678314564862871L257.0729423147984,8.381666278988181A257.2095449239783,257.2095449239783,0,0,0,257.1605774688386,5.0187046031284055Z" fill-rule="evenodd" style="fill: #184B42; stroke: #fff; opacity: 1;" id="p-type-logs"></path><path d="M296.842264893636,9.678314564862871A297,297,0,0,1,296.69029282295566,13.559872588960081L256.9413306409235,11.743194134119697A257.2095449239783,257.2095449239783,0,0,0,257.0729423147984,8.381666278988181Z" fill-rule="evenodd" style="fill: #184B42; stroke: #fff; opacity: 1;" id="p-type-logs"></path><path d="M296.69029282295566,13.559872588960081A297,297,0,0,1,296.4875670384476,17.4391109756793L256.7657649615374,15.1027131243543A257.2095449239783,257.2095449239783,0,0,0,256.9413306409235,11.743194134119697Z" fill-rule="evenodd" style="fill: #184B42; stroke: #fff; opacity: 1;" id="p-type-logs"></path><path d="M296.4875670384476,17.4391109756793A297,297,0,0,1,296.2341222196638,21.315366118021192L256.5462753100131,18.459648549172446A257.2095449239783,257.2095449239783,0,0,0,256.7657649615374,15.1027131243543Z" fill-rule="evenodd" style="fill: #184B42; stroke: #fff; opacity: 1;" id="p-type-logs"></path><path d="M296.2341222196638,21.315366118021192A297,297,0,0,1,295.93000172247446,25.187974919319053L256.2828992336356,21.813426150015598A257.2095449239783,257.2095449239783,0,0,0,256.5462753100131,18.459648549172446Z" fill-rule="evenodd" style="fill: #184B42; stroke: #fff; opacity: 1;" id="p-type-logs"></path><path d="M295.93000172247446,25.187974919319053A297,297,0,0,1,295.5752575716511,29.05627490667227L255.9756817871786,25.163472208522506A257.2095449239783,257.2095449239783,0,0,0,256.2828992336356,21.813426150015598Z" fill-rule="evenodd" style="fill: #184B42; stroke: #fff; opacity: 1;" id="p-type-logs"></path><path d="M295.5752575716511,29.05627490667227A297,297,0,0,1,295.16995045196677,32.91960434427315L255.62467552519726,28.509213644673114A257.2095449239783,257.2095449239783,0,0,0,255.9756817871786,25.163472208522506Z" fill-rule="evenodd" style="fill: #184B42; stroke: #fff; opacity: 1;" id="p-type-logs"></path><path d="M295.16995045196677,32.91960434427315A297,297,0,0,1,294.7141496978152,36.77730234660759L255.22994049303787,31.850078114823226A257.2095449239783,257.2095449239783,0,0,0,255.62467552519726,28.509213644673114Z" fill-rule="evenodd" style="fill: #184B42; stroke: #fff; opacity: 1;" id="p-type-logs"></path><path d="M294.7141496978152,36.77730234660759A297,297,0,0,1,294.20793328134977,40.62870899151037L254.79154421656614,35.185494109613224A257.2095449239783,257.2095449239783,0,0,0,255.22994049303787,31.850078114823226Z" fill-rule="evenodd" style="fill: #184B42; stroke: #fff; opacity: 1;" id="p-type-logs"></path><path d="M294.20793328134977,40.62870899151037A297,297,0,0,1,293.65138779914537,44.47316543305554L254.30956169061568,38.51489105173407A257.2095449239783,257.2095449239783,0,0,0,254.79154421656614,35.185494109613224Z" fill-rule="evenodd" style="fill: #184B42; stroke: #fff; opacity: 1;" id="p-type-logs"></path><path d="M293.65138779914537,44.47316543305554A297,297,0,0,1,293.0446084573844,48.31001401426284L253.78407536615907,41.83769939353387A257.2095449239783,257.2095449239783,0,0,0,254.30956169061568,38.51489105173407Z" fill-rule="evenodd" style="fill: #184B42; stroke: #fff; opacity: 1;" id="p-type-logs"></path><path d="M293.0446084573844,48.31001401426284A297,297,0,0,1,292.38769905557024,52.138598379600566L253.21517513620316,45.153350714448266A257.2095449239783,257.2095449239783,0,0,0,253.78407536615907,41.83769939353387Z" fill-rule="evenodd" style="fill: #184B42; stroke: #fff; opacity: 1;" id="p-type-logs"></path><path d="M292.38769905557024,52.138598379600566A297,297,0,0,1,291.6807719687708,55.95826358726597L252.6029583204115,48.46127781823806A257.2095449239783,257.2095449239783,0,0,0,253.21517513620316,45.153350714448266Z" fill-rule="evenodd" style="fill: #184B42; stroke: #fff; opacity: 1;" id="p-type-logs"></path><path d="M291.6807719687708,55.95826358726597A297,297,0,0,1,290.9239481283947,59.76835622122368L251.94752964845614,51.7609148300174A257.2095449239783,257.2095449239783,0,0,0,252.6029583204115,48.46127781823806Z" fill-rule="evenodd" style="fill: #184B42; stroke: #fff; opacity: 1;" id="p-type-logs"></path><path d="M290.9239481283947,59.76835622122368A297,297,0,0,1,290.1173570015044,63.568224502983185L251.24900124210197,55.05169729305587A257.2095449239783,257.2095449239783,0,0,0,251.94752964845614,51.7609148300174Z" fill-rule="evenodd" style="fill: #184B42; stroke: #fff; opacity: 1;" id="p-type-logs"></path><path d="M290.1173570015044,63.568224502983185A297,297,0,0,1,289.261136568668,67.35721840309623L250.50749259602637,58.333062265338036A257.2095449239783,257.2095449239783,0,0,0,251.24900124210197,55.05169729305587Z" fill-rule="evenodd" style="fill: #184B42; stroke: #fff; opacity: 1;" id="p-type-logs"></path><path d="M289.261136568668,67.35721840309623A297,297,0,0,1,288.35543330035625,71.13468975235486L249.7231305573778,61.604448415863885A257.2095449239783,257.2095449239783,0,0,0,250.50749259602637,58.333062265338036Z" fill-rule="evenodd" style="fill: #184B42; stroke: #fff; opacity: 1;" id="p-type-logs"></path><path d="M288.35543330035625,71.13468975235486A297,297,0,0,1,287.400402131886,74.89999235267142L248.8960493040766,64.86529612067363A257.2095449239783,257.2095449239783,0,0,0,249.7231305573778,61.604448415863885Z" fill-rule="evenodd" style="fill: #184B42; stroke: #fff; opacity: 1;" id="p-type-logs"></path><path d="M287.400402131886,74.89999235267142A297,297,0,0,1,286.3962064369157,78.65248208762118L248.02639032186136,68.11504755858046A257.2095449239783,257.2095449239783,0,0,0,248.8960493040766,64.86529612067363Z" fill-rule="evenodd" style="fill: #184B42; stroke: #fff; opacity: 1;" id="p-type-logs"></path><path d="M286.3962064369157,78.65248208762118A297,297,0,0,1,285.3430179994983,82.39151703262914L247.11430238008583,71.3531468065951A257.2095449239783,257.2095449239783,0,0,0,248.02639032186136,68.11504755858046Z" fill-rule="evenodd" style="fill: #184B42; stroke: #fff; opacity: 1;" id="p-type-logs"></path><path d="M285.3430179994983,82.39151703262914A297,297,0,0,1,284.24101698469417,86.11645756478143L246.15994150626926,74.5790399350253A257.2095449239783,257.2095449239783,0,0,0,247.11430238008583,71.3531468065951Z" fill-rule="evenodd" style="fill: #184B42; stroke: #fff; opacity: 1;" id="p-type-logs"></path><path d="M284.24101698469417,86.11645756478143A297,297,0,0,1,283.0903919077515,89.8266664722435L245.16347095940546,77.79217510223478A257.2095449239783,257.2095449239783,0,0,0,246.15994150626926,74.5790399350253Z" fill-rule="evenodd" style="fill: #184B42; stroke: #fff; opacity: 1;" id="p-type-logs"></path><path d="M283.0903919077515,89.8266664722435A297,297,0,0,1,281.89133960185717,93.52150906326547L244.12506120203466,80.99200264904452A257.2095449239783,257.2095449239783,0,0,0,245.16347095940546,77.79217510223478Z" fill-rule="evenodd" style="fill: #184B42; stroke: #fff; opacity: 1;" id="p-type-logs"></path><path d="M281.89133960185717,93.52150906326547A297,297,0,0,1,280.64406518446555,97.20035327475645L243.0448898710831,84.17797519276104A257.2095449239783,257.2095449239783,0,0,0,244.12506120203466,80.99200264904452Z" fill-rule="evenodd" style="fill: #184B42; stroke: #fff; opacity: 1;" id="p-type-logs"></path><path d="M280.64406518446555,97.20035327475645A297,297,0,0,1,279.3487820222097,100.8625697804094L241.9231417474753,87.34954772081517A257.2095449239783,257.2095449239783,0,0,0,243.0448898710831,84.17797519276104Z" fill-rule="evenodd" style="fill: #184B42; stroke: #fff; opacity: 1;" id="p-type-logs"></path><path d="M279.3487820222097,100.8625697804094A297,297,0,0,1,278.00571169440167,104.50753209835753L240.76000872452445,90.50617768399526A257.2095449239783,257.2095449239783,0,0,0,241.9231417474753,87.34954772081517Z" fill-rule="evenodd" style="fill: #184B42; stroke: #fff; opacity: 1;" id="p-type-logs"></path><path d="M278.00571169440167,104.50753209835753A297,297,0,0,1,276.6150839551274,108.1346166983443L239.55568977510558,93.64732508925914A257.2095449239783,257.2095449239783,0,0,0,240.76000872452445,90.50617768399526Z" fill-rule="evenodd" style="fill: #184B42; stroke: #fff; opacity: 1;" id="p-type-logs"></path><path d="M276.6150839551274,108.1346166983443A297,297,0,0,1,275.17713669394385,111.74320310838843L238.31039091761838,96.77245259210862A257.2095449239783,257.2095449239783,0,0,0,239.55568977510558,93.64732508925914Z" fill-rule="evenodd" style="fill: #184B42; stroke: #fff; opacity: 1;" id="p-type-logs"></path><path d="M275.17713669394385,111.74320310838843A297,297,0,0,1,273.6921158951841,115.33267402092571L237.0243251807442,99.88102558851124A257.2095449239783,257.2095449239783,0,0,0,238.31039091761838,96.77245259210862Z" fill-rule="evenodd" style="fill: #184B42; stroke: #fff; opacity: 1;" id="p-type-logs"></path><path d="M273.6921158951841,115.33267402092571A297,297,0,0,1,272.1602755958776,118.90241539840964L235.69771256700398,102.97251230635277A257.2095449239783,257.2095449239783,0,0,0,237.0243251807442,99.88102558851124Z" fill-rule="evenodd" style="fill: #184B42; stroke: #fff; opacity: 1;" id="p-type-logs"></path><path d="M272.1602755958776,118.90241539840964A297,297,0,0,1,270.58187784229295,122.45181657835244L234.3307800151234,106.04638389640569A257.2095449239783,257.2095449239783,0,0,0,235.69771256700398,102.97251230635277Z" fill-rule="evenodd" style="fill: #184B42; stroke: #fff; opacity: 1;" id="p-type-logs"></path><path d="M270.58187784229295,122.45181657835244A297,297,0,0,1,268.95719264511075,125.98027037778886L232.9237613612111,109.10211452279735A257.2095449239783,257.2095449239783,0,0,0,234.3307800151234,106.04638389640569Z" fill-rule="evenodd" style="fill: #184B42; stroke: #fff; opacity: 1;" id="p-type-logs"></path><path d="M268.95719264511075,125.98027037778886A297,297,0,0,1,267.2864979332338,129.4871731971449L231.47689729875734,112.13918145296296A257.2095449239783,257.2095449239783,0,0,0,232.9237613612111,109.10211452279735Z" fill-rule="evenodd" style="fill: #184B42; stroke: #fff; opacity: 1;" id="p-type-logs"></path><path d="M267.2864979332338,129.4871731971449A297,297,0,0,1,265.5700795062429,132.971925123493L229.99043533745947,115.15706514706717A257.2095449239783,257.2095449239783,0,0,0,231.47689729875734,112.13918145296296Z" fill-rule="evenodd" style="fill: #184B42; stroke: #fff; opacity: 1;" id="p-type-logs"></path><path d="M265.5700795062429,132.971925123493A297,297,0,0,1,263.808230985506,136.4339300331773L228.46462976088128,118.15524934688021A257.2095449239783,257.2095449239783,0,0,0,229.99043533745947,115.15706514706717Z" fill-rule="evenodd" style="fill: #184B42; stroke: #fff; opacity: 1;" id="p-type-logs"></path><path d="M263.808230985506,136.4339300331773A297,297,0,0,1,262.00125376394965,139.87259569379006L226.89974158295368,121.13322116409206A257.2095449239783,257.2095449239783,0,0,0,228.46462976088128,118.15524934688021Z" fill-rule="evenodd" style="fill: #184B42; stroke: #fff; opacity: 1;" id="p-type-logs"></path><path d="M262.00125376394965,139.87259569379006A297,297,0,0,1,260.1494569545008,143.28733386548282L225.29603850332398,124.09047116805044A257.2095449239783,257.2095449239783,0,0,0,226.89974158295368,121.13322116409206Z" fill-rule="evenodd" style="fill: #184B42; stroke: #fff; opacity: 1;" id="p-type-logs"></path><path d="M260.1494569545008,143.28733386548282A297,297,0,0,1,258.2531573372078,146.67756040159443L223.65379486156158,127.02649347290722A257.2095449239783,257.2095449239783,0,0,0,225.29603850332398,124.09047116805044Z" fill-rule="evenodd" style="fill: #184B42; stroke: #fff; opacity: 1;" id="p-type-logs"></path><path d="M258.2531573372078,146.67756040159443A297,297,0,0,1,256.3126793050503,150.04269534857877L221.97329159022755,129.94078582415844A257.2095449239783,257.2095449239783,0,0,0,223.65379486156158,127.02649347290722Z" fill-rule="evenodd" style="fill: #184B42; stroke: #fff; opacity: 1;" id="p-type-logs"></path><path d="M256.3126793050503,150.04269534857877A297,297,0,0,1,254.32835480844642,153.3821630452152L220.2548161668168,132.83284968456312A257.2095449239783,257.2095449239783,0,0,0,221.97329159022755,129.94078582415844Z" fill-rule="evenodd" style="fill: #184B42; stroke: #fff; opacity: 1;" id="p-type-logs"></path><path d="M254.32835480844642,153.3821630452152A297,297,0,0,1,252.30052329846703,156.69539222108511L218.4986625645801,135.70219031942622A257.2095449239783,257.2095449239783,0,0,0,220.2548161668168,132.83284968456312Z" fill-rule="evenodd" style="fill: #184B42; stroke: #fff; opacity: 1;" id="p-type-logs"></path><path d="M252.30052329846703,156.69539222108511A297,297,0,0,1,250.22953166876738,159.98181609429665L216.70513120223524,138.54831688123105A257.2095449239783,257.2095449239783,0,0,0,218.4986625645801,135.70219031942622Z" fill-rule="evenodd" style="fill: #184B42; stroke: #fff; opacity: 1;" id="p-type-logs"></path><path d="M250.22953166876738,159.98181609429665A297,297,0,0,1,248.1157341962451,163.24087246844232L214.87452889257563,141.3707424936068A257.2095449239783,257.2095449239783,0,0,0,216.70513120223524,138.54831688123105Z" fill-rule="evenodd" style="fill: #184B42; stroke: #fff; opacity: 1;" id="p-type-logs"></path><path d="M248.1157341962451,163.24087246844232A297,297,0,0,1,245.95949248043556,166.47200382877165L213.0071687899848,144.16898433461657A257.2095449239783,257.2095449239783,0,0,0,214.87452889257563,141.3707424936068Z" fill-rule="evenodd" style="fill: #184B42; stroke: #fff; opacity: 1;" id="p-type-logs"></path><path d="M245.95949248043556,166.47200382877165A297,297,0,0,1,243.76117538165417,169.67465743756324L211.10337033686642,146.94256371935202A257.2095449239783,257.2095449239783,0,0,0,213.0071687899848,144.16898433461657Z" fill-rule="evenodd" style="fill: #184B42; stroke: #fff; opacity: 1;" id="p-type-logs"></path><path d="M243.76117538165417,169.67465743756324A297,297,0,0,1,241.5211589578968,172.84828542867973L209.16345920899818,149.69100618182028A257.2095449239783,257.2095449239783,0,0,0,211.10337033686642,146.94256371935202Z" fill-rule="evenodd" style="fill: #184B42; stroke: #fff; opacity: 1;" id="p-type-logs"></path><path d="M241.5211589578968,172.84828542867973A297,297,0,0,1,239.23982640050912,175.992344901289L207.1877672598199,152.413841556109A257.2095449239783,257.2095449239783,0,0,0,209.16345920899818,149.69100618182028Z" fill-rule="evenodd" style="fill: #184B42; stroke: #fff; opacity: 1;" id="p-type-logs"></path><path d="M239.23982640050912,175.992344901289A297,297,0,0,1,236.9175679686353,179.1062980127362L205.17663246366456,155.11060405681587A257.2095449239783,257.2095449239783,0,0,0,207.1877672598199,152.413841556109Z" fill-rule="evenodd" style="fill: #184B42; stroke: #fff; opacity: 1;" id="p-type-logs"></path><path d="M236.9175679686353,179.1062980127362A297,297,0,0,1,234.5547809224579,182.1896120705508L203.13039885794217,157.780832358729A257.2095449239783,257.2095449239783,0,0,0,205.17663246366456,155.11060405681587Z" fill-rule="evenodd" style="fill: #184B42; stroke: #fff; opacity: 1;" id="p-type-logs"></path><path d="M234.5547809224579,182.1896120705508A297,297,0,0,1,232.15186945523996,185.241759623572L201.04941648428647,160.42406967574385A257.2095449239783,257.2095449239783,0,0,0,203.13039885794217,157.780832358729Z" fill-rule="evenodd" style="fill: #184B42; stroke: #fff; opacity: 1;" id="p-type-logs"></path><path d="M232.15186945523996,185.241759623572A297,297,0,0,1,229.70924462418125,188.26221855217807L198.93404132867497,163.03986383900425A257.2095449239783,257.2095449239783,0,0,0,201.04941648428647,160.42406967574385Z" fill-rule="evenodd" style="fill: #184B42; stroke: #fff; opacity: 1;" id="p-type-logs"></path><path d="M229.70924462418125,188.26221855217807A297,297,0,0,1,227.22732428010013,191.25047215760338L196.7846352605313,165.627767374253A257.2095449239783,257.2095449239783,0,0,0,198.93404132867497,163.03986383900425Z" fill-rule="evenodd" style="fill: #184B42; stroke: #fff; opacity: 1;" id="p-type-logs"></path><path d="M227.22732428010013,191.25047215760338A297,297,0,0,1,224.70653299595347,194.20600925032795L194.6015659708219,168.1873375783797A257.2095449239783,257.2095449239783,0,0,0,196.7846352605313,165.627767374253Z" fill-rule="evenodd" style="fill: #184B42; stroke: #fff; opacity: 1;" id="p-type-logs"></path><path d="M224.70653299595347,194.20600925032795A297,297,0,0,1,222.1473019942064,197.1283242375252L192.38520690915624,170.7181365951525A257.2095449239783,257.2095449239783,0,0,0,194.6015659708219,168.1873375783797Z" fill-rule="evenodd" style="fill: #184B42; stroke: #fff; opacity: 1;" id="p-type-logs"></path><path d="M37.21595681568247,294.65907852685154A297,297,0,0,1,33.35894156706853,295.1206211323175L28.889690840442015,255.58195508122964A257.2095449239783,257.2095449239783,0,0,0,32.22996402852564,255.18224745996721Z" fill-rule="evenodd" style="fill: #AE497E; stroke: #fff; opacity: 1;" id="p-type-tokenTransfers"></path><path d="M33.35894156706853,295.1206211323175A297,297,0,0,1,29.49621972739027,295.531678541901L25.544475599527683,255.93794124034275A257.2095449239783,257.2095449239783,0,0,0,28.889690840442015,255.58195508122964Z" fill-rule="evenodd" style="fill: #AE497E; stroke: #fff; opacity: 1;" id="p-type-tokenTransfers"></path><path d="M29.49621972739027,295.531678541901A297,297,0,0,1,25.62845207822226,295.8921804375274L22.19489055941257,256.25014504006765A257.2095449239783,257.2095449239783,0,0,0,25.544475599527683,255.93794124034275Z" fill-rule="evenodd" style="fill: #AE497E; stroke: #fff; opacity: 1;" id="p-type-tokenTransfers"></path><path d="M25.62845207822226,295.8921804375274A297,297,0,0,1,21.756300264307068,296.2020651494674L18.841508721252016,256.5185130728521A257.2095449239783,257.2095449239783,0,0,0,22.19489055941257,256.25014504006765Z" fill-rule="evenodd" style="fill: #AE497E; stroke: #fff; opacity: 1;" id="p-type-tokenTransfers"></path><path d="M21.756300264307068,296.2020651494674A297,297,0,0,1,17.880426680370153,296.4612796668865L15.484903735705611,256.7429994299668A257.2095449239783,257.2095449239783,0,0,0,18.841508721252016,256.5185130728521Z" fill-rule="evenodd" style="fill: #AE497E; stroke: #fff; opacity: 1;" id="p-type-tokenTransfers"></path><path d="M17.880426680370153,296.4612796668865A297,297,0,0,1,14.00149435780644,296.6697796469137L12.125649804804862,256.92356570935885A257.2095449239783,257.2095449239783,0,0,0,15.484903735705611,256.7429994299668Z" fill-rule="evenodd" style="fill: #AE497E; stroke: #fff; opacity: 1;" id="p-type-tokenTransfers"></path><path d="M14.00149435780644,296.6697796469137A297,297,0,0,1,10.12016685125799,296.8275294222264L8.764321583726591,257.060181022221A257.2095449239783,257.2095449239783,0,0,0,12.125649804804862,256.92356570935885Z" fill-rule="evenodd" style="fill: #AE497E; stroke: #fff; opacity: 1;" id="p-type-tokenTransfers"></path><path d="M10.12016685125799,296.8275294222264A297,297,0,0,1,6.23710812510215,296.93450200715273L5.401494082488793,257.15282199827567A257.2095449239783,257.2095449239783,0,0,0,8.764321583726591,257.060181022221Z" fill-rule="evenodd" style="fill: #AE497E; stroke: #fff; opacity: 1;" id="p-type-tokenTransfers"></path><path d="M6.23710812510215,296.93450200715273A297,297,0,0,1,2.352982439869616,296.99067910228706L2.037742567585778,257.2014727897728A257.2095449239783,257.2095449239783,0,0,0,5.401494082488793,257.15282199827567Z" fill-rule="evenodd" style="fill: #AE497E; stroke: #fff; opacity: 1;" id="p-type-tokenTransfers"></path><path d="M2.352982439869616,296.99067910228706A297,297,0,0,1,-1.5315457613881587,296.9960510976211L-1.3263575364205258,257.2061250742011A257.2095449239783,257.2095449239783,0,0,0,2.037742567585778,257.2014727897728Z" fill-rule="evenodd" style="fill: #AE497E; stroke: #fff; opacity: 1;" id="p-type-tokenTransfers"></path><path d="M-1.5315457613881587,296.9960510976211A297,297,0,0,1,-5.415811966762792,296.9506170741874L-4.690230745336342,257.16677805571135A257.2095449239783,257.2095449239783,0,0,0,-1.3263575364205258,257.2061250742011Z" fill-rule="evenodd" style="fill: #AE497E; stroke: #fff; opacity: 1;" id="p-type-tokenTransfers"></path><path d="M-5.415811966762792,296.9506170741874A297,297,0,0,1,-9.29915170916457,296.85438480421664L-8.053301613782,257.08343846525287A257.2095449239783,257.2095449239783,0,0,0,-4.690230745336342,257.16677805571135Z" fill-rule="evenodd" style="fill: #AE497E; stroke: #fff; opacity: 1;" id="p-type-tokenTransfers"></path><path d="M-9.29915170916457,296.85438480421664A297,297,0,0,1,-13.180900679990385,296.7073707498084L-11.414994833631257,256.95612055942195A257.2095449239783,257.2095449239783,0,0,0,-8.053301613782,257.08343846525287Z" fill-rule="evenodd" style="fill: #AE497E; stroke: #fff; opacity: 1;" id="p-type-tokenTransfers"></path><path d="M-13.180900679990385,296.7073707498084A297,297,0,0,1,-17.06039484276455,296.5096000601144L-14.774735332427122,256.784846118023A257.2095449239783,257.2095449239783,0,0,0,-11.414994833631257,256.95612055942195Z" fill-rule="evenodd" style="fill: #AE497E; stroke: #fff; opacity: 1;" id="p-type-tokenTransfers"></path><path d="M-17.06039484276455,296.5096000601144A297,297,0,0,1,-20.93697054673307,296.26110656703696L-18.131948371757403,256.5696444403428A257.2095449239783,257.2095449239783,0,0,0,-14.774735332427122,256.784846118023Z" fill-rule="evenodd" style="fill: #AE497E; stroke: #fff; opacity: 1;" id="p-type-tokenTransfers"></path><path d="M-20.93697054673307,296.26110656703696A297,297,0,0,1,-24.809964640391932,295.96193277944127L-21.486059645573068,256.3105523401385A257.2095449239783,257.2095449239783,0,0,0,-18.131948371757403,256.5696444403428Z" fill-rule="evenodd" style="fill: #AE497E; stroke: #fff; opacity: 1;" id="p-type-tokenTransfers"></path><path d="M-24.809964640391932,295.96193277944127A297,297,0,0,1,-28.67871458493,295.61212987588334L-24.836495378432673,256.0076141393398A257.2095449239783,257.2095449239783,0,0,0,-21.486059645573068,256.3105523401385Z" fill-rule="evenodd" style="fill: #AE497E; stroke: #fff; opacity: 1;" id="p-type-tokenTransfers"></path><path d="M-28.67871458493,295.61212987588334A297,297,0,0,1,-32.54255856756705,295.21175769585545L-28.182682423656,255.66088166046708A257.2095449239783,257.2095449239783,0,0,0,-24.836495378432673,256.0076141393398Z" fill-rule="evenodd" style="fill: #AE497E; stroke: #fff; opacity: 1;" id="p-type-tokenTransfers"></path><path d="M-32.54255856756705,295.21175769585545A297,297,0,0,1,-36.40083561476767,294.76088472954933L-31.524048361370152,255.27041421776633A257.2095449239783,257.2095449239783,0,0,0,-28.182682423656,255.66088166046708Z" fill-rule="evenodd" style="fill: #AE497E; stroke: #fff; opacity: 1;" id="p-type-tokenTransfers"></path><path d="M-36.40083561476767,294.76088472954933A297,297,0,0,1,-40.25288570531156,294.2595881061399L-34.8600215964313,254.83627860706244A257.2095449239783,257.2095449239783,0,0,0,-31.524048361370152,255.27041421776633Z" fill-rule="evenodd" style="fill: #AE497E; stroke: #fff; opacity: 1;" id="p-type-tokenTransfers"></path><path d="M-40.25288570531156,294.2595881061399A297,297,0,0,1,-44.09804988320091,293.7079535805912L-38.19003145620539,254.3585490943327A257.2095449239783,257.2095449239783,0,0,0,-34.8600215964313,254.83627860706244Z" fill-rule="evenodd" style="fill: #AE497E; stroke: #fff; opacity: 1;" id="p-type-tokenTransfers"></path><path d="M-44.09804988320091,293.7079535805912A297,297,0,0,1,-47.935670370385594,293.10607551898636L-41.513508288190934,253.83730740300234A257.2095449239783,257.2095449239783,0,0,0,-38.19003145620539,254.3585490943327Z" fill-rule="evenodd" style="fill: #AE497E; stroke: #fff; opacity: 1;" id="p-type-tokenTransfers"></path><path d="M-47.935670370385594,293.10607551898636A297,297,0,0,1,-51.76509067928682,292.4540568823849L-44.829883557467454,253.27264269996456A257.2095449239783,257.2095449239783,0,0,0,-41.513508288190934,253.83730740300234Z" fill-rule="evenodd" style="fill: #AE497E; stroke: #fff; opacity: 1;" id="p-type-tokenTransfers"></path><path d="M-51.76509067928682,292.4540568823849A297,297,0,0,1,-55.585655725100054,291.75200920920946L-48.13858994395257,252.6646515803269A257.2095449239783,257.2095449239783,0,0,0,-44.829883557467454,253.27264269996456Z" fill-rule="evenodd" style="fill: #AE497E; stroke: #fff; opacity: 1;" id="p-type-tokenTransfers"></path><path d="M-55.585655725100054,291.75200920920946A297,297,0,0,1,-59.39671193785792,291.0000525961656L-51.43906143945139,252.01343805088717A257.2095449239783,257.2095449239783,0,0,0,-48.13858994395257,252.6646515803269Z" fill-rule="evenodd" style="fill: #AE497E; stroke: #fff; opacity: 1;" id="p-type-tokenTransfers"></path><path d="M-59.39671193785792,291.0000525961656A297,297,0,0,1,-63.197607374234074,290.19831567769677L-54.73073344448148,251.31911351234137A257.2095449239783,257.2095449239783,0,0,0,-51.43906143945139,252.01343805088717Z" fill-rule="evenodd" style="fill: #AE497E; stroke: #fff; opacity: 1;" id="p-type-tokenTransfers"></path><path d="M-63.197607374234074,290.19831567769677A297,297,0,0,1,-66.98769182906865,289.34693560397994L-58.01304286485673,250.5817967402267A257.2095449239783,257.2095449239783,0,0,0,-54.73073344448148,251.31911351234137Z" fill-rule="evenodd" style="fill: #AE497E; stroke: #fff; opacity: 1;" id="p-type-tokenTransfers"></path><path d="M-66.98769182906865,289.34693560397994A297,297,0,0,1,-70.76631694659656,288.4460580174634L-61.285428208013855,249.80161386460333A257.2095449239783,257.2095449239783,0,0,0,-58.01304286485673,250.5817967402267Z" fill-rule="evenodd" style="fill: #AE497E; stroke: #fff; opacity: 1;" id="p-type-tokenTransfers"></path><path d="M-70.76631694659656,288.4460580174634A297,297,0,0,1,-74.53283633135926,287.4958370279521L-64.54732967906489,248.97869834847742A257.2095449239783,257.2095449239783,0,0,0,-61.285428208013855,249.80161386460333Z" fill-rule="evenodd" style="fill: #AE497E; stroke: #fff; opacity: 1;" id="p-type-tokenTransfers"></path><path d="M-74.53283633135926,287.4958370279521A297,297,0,0,1,-78.28660565878123,286.4964351862454L-67.79818927655913,248.11319096497039A257.2095449239783,257.2095449239783,0,0,0,-64.54732967906489,248.97869834847742Z" fill-rule="evenodd" style="fill: #AE497E; stroke: #fff; opacity: 1;" id="p-type-tokenTransfers"></path><path d="M-78.28660565878123,286.4964351862454A297,297,0,0,1,-82.02698278539222,285.44802345632905L-71.03745088793849,247.20523977323728A257.2095449239783,257.2095449239783,0,0,0,-67.79818927655913,248.11319096497039Z" fill-rule="evenodd" style="fill: #AE497E; stroke: #fff; opacity: 1;" id="p-type-tokenTransfers"></path><path d="M-82.02698278539222,285.44802345632905A297,297,0,0,1,-85.75332785867639,284.35078118612995L-74.26456038466956,246.25500009313876A257.2095449239783,257.2095449239783,0,0,0,-71.03745088793849,247.20523977323728Z" fill-rule="evenodd" style="fill: #AE497E; stroke: #fff; opacity: 1;" id="p-type-tokenTransfers"></path><path d="M-85.75332785867639,284.35078118612995A297,297,0,0,1,-89.46500342652948,283.20489607683527L-77.47896571703639,245.26263447867126A257.2095449239783,257.2095449239783,0,0,0,-74.26456038466956,246.25500009313876Z" fill-rule="evenodd" style="fill: #AE497E; stroke: #fff; opacity: 1;" id="p-type-tokenTransfers"></path><path d="M-89.46500342652948,283.20489607683527A297,297,0,0,1,-93.1613745463054,282.0105641507832L-80.68011700857745,244.22831269015936A257.2095449239783,257.2095449239783,0,0,0,-77.47896571703639,245.26263447867126Z" fill-rule="evenodd" style="fill: #AE497E; stroke: #fff; opacity: 1;" id="p-type-tokenTransfers"></path><path d="M-93.1613745463054,282.0105641507832A297,297,0,0,1,-96.84180889343355,280.7679897179301L-83.86746665015124,243.15221166521553A257.2095449239783,257.2095449239783,0,0,0,-80.68011700857745,244.22831269015936Z" fill-rule="evenodd" style="fill: #AE497E; stroke: #fff; opacity: 1;" id="p-type-tokenTransfers"></path><path d="M-96.84180889343355,280.7679897179301A297,297,0,0,1,-100.50567686958821,279.4773853409L-87.04046939361345,242.0345154884721A257.2095449239783,257.2095449239783,0,0,0,-83.86746665015124,243.15221166521553Z" fill-rule="evenodd" style="fill: #AE497E; stroke: #fff; opacity: 1;" id="p-type-tokenTransfers"></path><path d="M-100.50567686958821,279.4773853409A297,297,0,0,1,-104.15235171039166,278.13897179862244L-90.1985824450908,240.87541536009059A257.2095449239783,257.2095449239783,0,0,0,-87.04046939361345,242.0345154884721Z" fill-rule="evenodd" style="fill: #AE497E; stroke: #fff; opacity: 1;" id="p-type-tokenTransfers"></path><path d="M-104.15235171039166,278.13897179862244A297,297,0,0,1,-107.78120959263235,276.7529780485642L-93.34126555783465,239.6751095630537A257.2095449239783,257.2095449239783,0,0,0,-90.1985824450908,240.87541536009059Z" fill-rule="evenodd" style="fill: #AE497E; stroke: #fff; opacity: 1;" id="p-type-tokenTransfers"></path><path d="M-107.78120959263235,276.7529780485642A297,297,0,0,1,-111.39162974098015,275.3196411875629L-96.46798112463902,238.43380342924593A257.2095449239783,257.2095449239783,0,0,0,-93.34126555783465,239.6751095630537Z" fill-rule="evenodd" style="fill: #AE497E; stroke: #fff; opacity: 1;" id="p-type-tokenTransfers"></path><path d="M-111.39162974098015,275.3196411875629A297,297,0,0,1,-114.98299453418005,273.8392064112674L-99.57819426980718,237.1517093043281A257.2095449239783,257.2095449239783,0,0,0,-96.46798112463902,238.43380342924593Z" fill-rule="evenodd" style="fill: #AE497E; stroke: #fff; opacity: 1;" id="p-type-tokenTransfers"></path><path d="M-114.98299453418005,273.8392064112674A297,297,0,0,1,-118.55468961070632,272.3119269721932L-102.67137294065073,235.8290465114122A257.2095449239783,257.2095449239783,0,0,0,-99.57819426980718,237.1517093043281Z" fill-rule="evenodd" style="fill: #AE497E; stroke: #fff; opacity: 1;" id="p-type-tokenTransfers"></path><path d="M-241.04216504827176,173.51563234717995A297,297,0,0,1,-271.65853164048116,120.04433425588104L-235.2631895554354,103.9614430459835A257.2095449239783,257.2095449239783,0,0,0,-208.74863831500485,150.26894556637873Z" fill-rule="evenodd" style="fill: #F09B24; stroke: #fff; opacity: 1;" id="p-type-ether"></path><path d="M-271.65853164048116,120.04433425588104A297,297,0,0,1,-274.8666511902541,112.50477351408327L-238.04150258391627,97.43199191021078A257.2095449239783,257.2095449239783,0,0,0,-235.2631895554354,103.9614430459835Z" fill-rule="evenodd" style="fill: #F09B24; stroke: #fff; opacity: 1;" id="p-type-ether"></path><path d="M-274.8666511902541,112.50477351408327A297,297,0,0,1,-276.59954895713327,108.17434777575704L-239.54223607219495,93.68173321161828A257.2095449239783,257.2095449239783,0,0,0,-238.04150258391627,97.43199191021078Z" fill-rule="evenodd" style="fill: #F09B24; stroke: #fff; opacity: 1;" id="p-type-ether"></path><path d="M-276.59954895713327,108.17434777575704A297,297,0,0,1,-277.99069766603367,104.54746295894448L-240.7470061945446,90.54075882365854A257.2095449239783,257.2095449239783,0,0,0,-239.54223607219495,93.68173321161828Z" fill-rule="evenodd" style="fill: #F09B24; stroke: #fff; opacity: 1;" id="p-type-ether"></path><path d="M-277.99069766603367,104.54746295894448A297,297,0,0,1,-279.2319096173784,101.18567414131421L-241.82192727589,87.62936430543228A257.2095449239783,257.2095449239783,0,0,0,-240.7470061945446,90.54075882365854Z" fill-rule="evenodd" style="fill: #F09B24; stroke: #fff; opacity: 1;" id="p-type-ether"></path><path d="M-279.2319096173784,101.18567414131421A297,297,0,0,1,-279.99281904845463,99.06069493648499L-242.48089417318118,85.78907833153652A257.2095449239783,257.2095449239783,0,0,0,-241.82192727589,87.62936430543228Z" fill-rule="evenodd" style="fill: #F09B24; stroke: #fff; opacity: 1;" id="p-type-ether"></path><path d="M-279.99281904845463,99.06069493648499A297,297,0,0,1,-280.49447657013906,97.63118668562686L-242.91534233095945,84.55108787137392A257.2095449239783,257.2095449239783,0,0,0,-242.48089417318118,85.78907833153652Z" fill-rule="evenodd" style="fill: #F09B24; stroke: #fff; opacity: 1;" id="p-type-ether"></path></g></svg>