<svg xmlns="http://www.w3.org/2000/svg" width="600" height="600" id="block-7914257"><g id="burst-container" transform="translate(300,300)"><data type="text/json">{"number":7914257,"totalTransactions":149,"totalFunctions":0,"totalFunctionsValue":"0","totalLogs":129,"totalTokenTransfers":129,"tokens":{"0x41e5560054824ea6b0732e656e3ad64e20e94e45":"9.88e-8","0x960b236a07cf122663c4303350609a66a7b288c0":"480.20144456","0x174bfa6600bf90c885c7c01c7031389ed1461ab9":"0.37245109","0x7c6e28b33fa22291f5e5fafc48555b922173ee8b":"4.592e-14","0xae785cbf3c9670c3e5a5dd0053dec05a4aada688":"9.1943e-14","0x048fe49be32adfc9ed68c37d32b5ec9df17b3603":"577.5","0x89d24a6b4ccb1b6faa2625fe562bdd9a23260359":"19.61148","0xe41d2489571d322189246dafa5ebde1f4699f498":"1","0xc0829421c1d260bd3cb3e0f06cfe2d52db2ce315":"0.01","0x1f573d6fb3f13d689ff844b4ce37794d79a7ff1c":"3.572796514100180608","0x0d8775f648430679a709e98d2b0cb6250d2887ef":"27","0x06012c8cf97bead5deae237070f9587f8e7a266d":"7.31322e-13","0x1af97824a7ccd3963b9385e37ecbf44ece0c73e4":"45","0x931abd3732f7eada74190c8f89b46f8ba7103d54":"1588","0x3495ffcee09012ab7d827abf3e3b3ae428a38443":"16","0x1985365e9f78359a9b6ad760e32412f4a445e862":"2.1613","0x158079ee67fce2f58472a96584a73c7ab9ac95c1":"1.0793869802e-8","0x8bcb64bfda77905398b67af0af084c744e777a20":"142.5","0x05f02507c7134dbae420ab8c0ef56e999b59da03":"5.641e-14","0x047686fb287e7263a23873dea66b4501015a2226":"0.24","0xd73be539d6b2076bab83ca6ba62dfe189abc6bbe":"7.4742e-14","0x1d963688fe2209a98db35c67a041524822cf04ff":"2.7571e-14","0x9a07fd8a116b7e3be9e6185861496af7a2041460":"2.292429349990408058","0x5acd07353106306a6530ac4d49233271ec372963":"100"},"totalEther":"28.112571039004157148","totalEtherTxns":60,"newContracts":[],"totalNewContracts":0}</data><circle r="297" style="fill: #f9f9f9; stroke: #f9f9f9; stroke-width: 3; opacity: 1;" id="circle-base"></circle><path display="none" d="M9.093002483669097e-15,-148.5A148.5,148.5,0,1,1,-9.093002483669097e-15,148.5A148.5,148.5,0,1,1,9.093002483669097e-15,-148.5Z" fill-rule="evenodd" id="p-type-root" style="stroke: #fff; opacity: 1;"></path><path d="M1.2859447435097075e-14,-210.0107140124046A210.0107140124046,210.0107140124046,0,1,1,-197.6980291974784,-70.85188248333961L-139.79361707275305,-50.099846563801805A148.5,148.5,0,1,0,9.093002483669097e-15,-148.5Z" fill-rule="evenodd" style="fill: #4E4E4E; stroke: #fff; opacity: 1;" id="p-type-data"></path><path d="M-197.6980291974784,-70.85188248333961A210.0107140124046,210.0107140124046,0,0,1,-3.903020904854209,-209.97444232052686L-2.759852548935266,-148.47435204070814A148.5,148.5,0,0,0,-139.79361707275305,-50.099846563801805Z" fill-rule="evenodd" style="fill: #3A86AD; stroke: #fff; opacity: 1;" id="p-type-value"></path><path d="M1.5749542295064867e-14,-257.2095449239783A257.2095449239783,257.2095449239783,0,0,1,257.1116267521167,7.0965758560175125L209.93076415986894,5.794329922732549A210.0107140124046,210.0107140124046,0,0,0,1.2859447435097075e-14,-210.0107140124046Z" fill-rule="evenodd" style="fill: #184B42; stroke: #fff; opacity: 1;" id="p-type-logs"></path><path d="M257.1116267521167,7.0965758560175125A257.2095449239783,257.2095449239783,0,0,1,73.19430373488848,246.57522969829085L59.76289874292193,201.32783199012317A210.0107140124046,210.0107140124046,0,0,0,209.93076415986894,5.794329922732549Z" fill-rule="evenodd" style="fill: #AE497E; stroke: #fff; opacity: 1;" id="p-type-tokenTransfers"></path><path d="M73.19430373488848,246.57522969829085A257.2095449239783,257.2095449239783,0,0,1,-130.08762447012873,221.88726858411405L-106.21610060087008,181.17019615032115A210.0107140124046,210.0107140124046,0,0,0,59.76289874292193,201.32783199012317Z" fill-rule="evenodd" style="fill: #F09B24; stroke: #fff; opacity: 1;" id="p-type-ether"></path><path d="M-242.12964734383633,-86.77547969990975A257.2095449239783,257.2095449239783,0,0,1,-144.11493280562033,-213.04374232169212L-117.66934989641796,-173.94948719370907A210.0107140124046,210.0107140124046,0,0,0,-197.6980291974784,-70.85188248333961Z" fill-rule="evenodd" style="fill: #AE497E; stroke: #fff; opacity: 1;" id="p-type-tokenTransfers"></path><path d="M-144.11493280562033,-213.04374232169212A257.2095449239783,257.2095449239783,0,0,1,-9.558758460200314,-257.0318659946652L-7.804693600667531,-209.86563977411762A210.0107140124046,210.0107140124046,0,0,0,-117.66934989641796,-173.94948719370907Z" fill-rule="evenodd" style="fill: #F09B24; stroke: #fff; opacity: 1;" id="p-type-ether"></path><path d="M1.8186004967338195e-14,-297A297,297,0,0,1,2.7599717226232423,-296.98717574348274L2.390205625518426,-257.1984387920497A257.2095449239783,257.2095449239783,0,0,0,1.5749542295064867e-14,-257.2095449239783Z" fill-rule="evenodd" style="fill: #184B42; stroke: #fff; opacity: 1;" id="p-type-logs"></path><path d="M2.7599717226232423,-296.98717574348274A297,297,0,0,1,5.519705097870429,-296.9487040814163L4.780204836154263,-257.1651213553743A257.2095449239783,257.2095449239783,0,0,0,2.390205625518426,-257.1984387920497Z" fill-rule="evenodd" style="fill: #184B42; stroke: #fff; opacity: 1;" id="p-type-logs"></path><path d="M5.519705097870429,-296.9487040814163A297,297,0,0,1,8.278961798948698,-296.8845883361606L7.169791234850489,-257.10959549120037A257.2095449239783,257.2095449239783,0,0,0,4.780204836154263,-257.1651213553743Z" fill-rule="evenodd" style="fill: #184B42; stroke: #fff; opacity: 1;" id="p-type-logs"></path><path d="M8.278961798948698,-296.8845883361606A297,297,0,0,1,11.037503540230293,-296.7948340446636L9.558758460200112,-257.0318659946652A257.2095449239783,257.2095449239783,0,0,0,7.169791234850489,-257.10959549120037Z" fill-rule="evenodd" style="fill: #184B42; stroke: #fff; opacity: 1;" id="p-type-logs"></path><path d="M11.037503540230293,-296.7948340446636A297,297,0,0,1,13.795092097830409,-296.6794489579829L11.946900204267099,-256.9319395783819A257.2095449239783,257.2095449239783,0,0,0,9.558758460200112,-257.0318659946652Z" fill-rule="evenodd" style="fill: #184B42; stroke: #fff; opacity: 1;" id="p-type-logs"></path><path d="M13.795092097830409,-296.6794489579829A297,297,0,0,1,16.55148933017967,-296.5384430406165L14.334010230402678,-256.80982487185867A257.2095449239783,257.2095449239783,0,0,0,11.946900204267099,-256.9319395783819Z" fill-rule="evenodd" style="fill: #184B42; stroke: #fff; opacity: 1;" id="p-type-logs"></path><path d="M16.55148933017967,-296.5384430406165A297,297,0,0,1,19.30645719859013,-296.37182846964214L16.719882391056,-256.66553242075423A257.2095449239783,257.2095449239783,0,0,0,14.334010230402678,-256.80982487185867Z" fill-rule="evenodd" style="fill: #184B42; stroke: #fff; opacity: 1;" id="p-type-logs"></path><path d="M19.30645719859013,-296.37182846964214A297,297,0,0,1,22.059757787811744,-296.179619633666L19.104310645576582,-256.49907468596706A257.2095449239783,257.2095449239783,0,0,0,16.719882391056,-256.66553242075423Z" fill-rule="evenodd" style="fill: #184B42; stroke: #fff; opacity: 1;" id="p-type-logs"></path><path d="M22.059757787811744,-296.179619633666A297,297,0,0,1,24.811153326578214,-295.9618331315797L21.487089078007518,-256.31046604255897A257.2095449239783,257.2095449239783,0,0,0,19.104310645576582,-256.49907468596706Z" fill-rule="evenodd" style="fill: #184B42; stroke: #fff; opacity: 1;" id="p-type-logs"></path><path d="M24.811153326578214,-295.9618331315797A297,297,0,0,1,27.560406208140993,-295.7184877711271L23.868011914868454,-256.0997227785139A257.2095449239783,257.2095449239783,0,0,0,21.487089078007518,-256.31046604255897Z" fill-rule="evenodd" style="fill: #184B42; stroke: #fff; opacity: 1;" id="p-type-logs"></path><path d="M27.560406208140993,-295.7184877711271A297,297,0,0,1,30.3072790107884,-295.4496045672802L26.246873542925666,-255.86686309333155A257.2095449239783,257.2095449239783,0,0,0,23.868011914868454,-256.0997227785139Z" fill-rule="evenodd" style="fill: #184B42; stroke: #fff; opacity: 1;" id="p-type-logs"></path><path d="M30.3072790107884,-295.4496045672802A297,297,0,0,1,33.05153451834918,-295.1552067404239L28.62346852694866,-255.6119070964551A257.2095449239783,257.2095449239783,0,0,0,26.246873542925666,-255.86686309333155Z" fill-rule="evenodd" style="fill: #184B42; stroke: #fff; opacity: 1;" id="p-type-logs"></path><path d="M33.05153451834918,-295.1552067404239A297,297,0,0,1,35.792935740677905,-294.8353197143512L30.997591627451047,-255.3348768055351A257.2095449239783,257.2095449239783,0,0,0,28.62346852694866,-255.6119070964551Z" fill-rule="evenodd" style="fill: #184B42; stroke: #fff; opacity: 1;" id="p-type-logs"></path><path d="M35.792935740677905,-294.8353197143512A297,297,0,0,1,38.531245934121486,-294.48997111406743L33.36903781841507,-255.0357961445279A257.2095449239783,257.2095449239783,0,0,0,30.997591627451047,-255.3348768055351Z" fill-rule="evenodd" style="fill: #184B42; stroke: #fff; opacity: 1;" id="p-type-logs"></path><path d="M38.531245934121486,-294.48997111406743A297,297,0,0,1,41.26622862196387,-294.11919076340433L35.737602304997225,-254.71469094162956A257.2095449239783,257.2095449239783,0,0,0,33.36903781841507,-255.0357961445279Z" fill-rule="evenodd" style="fill: #184B42; stroke: #fff; opacity: 1;" id="p-type-logs"></path><path d="M41.26622862196387,-294.11919076340433A297,297,0,0,1,43.997647614847615,-293.72301068244496L38.103080541213856,-254.37158892704542A257.2095449239783,257.2095449239783,0,0,0,35.737602304997225,-254.71469094162956Z" fill-rule="evenodd" style="fill: #184B42; stroke: #fff; opacity: 1;" id="p-type-logs"></path><path d="M43.997647614847615,-293.72301068244496A297,297,0,0,1,46.72526703117139,-293.3014650847583L40.46526824760592,-254.0065197305953A257.2095449239783,257.2095449239783,0,0,0,38.103080541213856,-254.37158892704542Z" fill-rule="evenodd" style="fill: #184B42; stroke: #fff; opacity: 1;" id="p-type-logs"></path><path d="M46.72526703117139,-293.3014650847583A297,297,0,0,1,49.44885131745978,-292.8545903744446L42.82396142887978,-253.6195148791548A257.2095449239783,257.2095449239783,0,0,0,40.46526824760592,-254.0065197305953Z" fill-rule="evenodd" style="fill: #184B42; stroke: #fff; opacity: 1;" id="p-type-logs"></path><path d="M49.44885131745978,-292.8545903744446A297,297,0,0,1,52.1681652687059,-292.3824251429914L45.17895639152436,-253.21060779393255A257.2095449239783,257.2095449239783,0,0,0,42.82396142887978,-253.6195148791548Z" fill-rule="evenodd" style="fill: #184B42; stroke: #fff; opacity: 1;" id="p-type-logs"></path><path d="M52.1681652687059,-292.3824251429914A297,297,0,0,1,54.882974048683124,-291.88501016594114L47.53004976140167,-252.77983378758418A257.2095449239783,257.2095449239783,0,0,0,45.17895639152436,-253.21060779393255Z" fill-rule="evenodd" style="fill: #184B42; stroke: #fff; opacity: 1;" id="p-type-logs"></path><path d="M54.882974048683124,-291.88501016594114A297,297,0,0,1,57.59304321022508,-291.3623883993697L49.877038501309805,-252.3272300611626A257.2095449239783,257.2095449239783,0,0,0,47.53004976140167,-252.77983378758418Z" fill-rule="evenodd" style="fill: #184B42; stroke: #fff; opacity: 1;" id="p-type-logs"></path><path d="M57.59304321022508,-291.3623883993697A297,297,0,0,1,60.29813871547259,-290.8146049761766L52.21971992851724,-251.85283570090536A257.2095449239783,257.2095449239783,0,0,0,49.877038501309805,-252.3272300611626Z" fill-rule="evenodd" style="fill: #184B42; stroke: #fff; opacity: 1;" id="p-type-logs"></path><path d="M60.29813871547259,-290.8146049761766A297,297,0,0,1,62.998026956084345,-290.24170720218774L54.5578917322659,-251.35669167485946A257.2095449239783,257.2095449239783,0,0,0,52.21971992851724,-251.85283570090536Z" fill-rule="evenodd" style="fill: #184B42; stroke: #fff; opacity: 1;" id="p-type-logs"></path><path d="M62.998026956084345,-290.24170720218774A297,297,0,0,1,65.69247477341149,-289.64374455206985L56.89135199124274,-250.8388408293431A257.2095449239783,257.2095449239783,0,0,0,54.5578917322659,-251.35669167485946Z" fill-rule="evenodd" style="fill: #184B42; stroke: #fff; opacity: 1;" id="p-type-logs"></path><path d="M65.69247477341149,-289.64374455206985A297,297,0,0,1,68.38124947863268,-289.02076866505803L59.2198991910173,-250.29932788524573A257.2095449239783,257.2095449239783,0,0,0,56.89135199124274,-250.8388408293431Z" fill-rule="evenodd" style="fill: #184B42; stroke: #fff; opacity: 1;" id="p-type-logs"></path><path d="M68.38124947863268,-289.02076866505803A297,297,0,0,1,71.06411887284851,-288.3728333404963L61.543332241443984,-249.73819943416595A257.2095449239783,257.2095449239783,0,0,0,59.2198991910173,-250.29932788524573Z" fill-rule="evenodd" style="fill: #184B42; stroke: #fff; opacity: 1;" id="p-type-logs"></path><path d="M71.06411887284851,-288.3728333404963A297,297,0,0,1,73.74085126713443,-287.6999945331914L63.861450494028325,-249.15550393438787A257.2095449239783,257.2095449239783,0,0,0,61.543332241443984,-249.73819943416595Z" fill-rule="evenodd" style="fill: #184B42; stroke: #fff; opacity: 1;" id="p-type-logs"></path><path d="M73.74085126713443,-287.6999945331914A297,297,0,0,1,76.41121550254869,-287.00231034858075L66.17405375925448,-248.55129170669645A257.2095449239783,257.2095449239783,0,0,0,63.861450494028325,-249.15550393438787Z" fill-rule="evenodd" style="fill: #184B42; stroke: #fff; opacity: 1;" id="p-type-logs"></path><path d="M76.41121550254869,-287.00231034858075A297,297,0,0,1,79.07498097009487,-286.2798410377146L68.48094232387321,-247.9256149300317A257.2095449239783,257.2095449239783,0,0,0,66.17405375925448,-248.55129170669645Z" fill-rule="evenodd" style="fill: #184B42; stroke: #fff; opacity: 1;" id="p-type-logs"></path><path d="M79.07498097009487,-286.2798410377146A297,297,0,0,1,81.73191763063733,-285.5326489920526L70.78191696814918,-247.27852763698274A257.2095449239783,257.2095449239783,0,0,0,68.48094232387321,-247.9256149300317Z" fill-rule="evenodd" style="fill: #184B42; stroke: #fff; opacity: 1;" id="p-type-logs"></path><path d="M81.73191763063733,-285.5326489920526A297,297,0,0,1,84.38179603476671,-284.760798738076L73.07677898306498,-246.61008570912156A257.2095449239783,257.2095449239783,0,0,0,70.78191696814918,-247.27852763698274Z" fill-rule="evenodd" style="fill: #184B42; stroke: #fff; opacity: 1;" id="p-type-logs"></path><path d="M84.38179603476671,-284.760798738076A297,297,0,0,1,87.02438734261506,-283.9643569317151L75.3653301874816,-245.92034687217705A257.2095449239783,257.2095449239783,0,0,0,73.07677898306498,-246.61008570912156Z" fill-rule="evenodd" style="fill: #184B42; stroke: #fff; opacity: 1;" id="p-type-logs"></path><path d="M87.02438734261506,-283.9643569317151A297,297,0,0,1,89.6594633436181,-283.14339235259297L77.64737294525294,-245.20937069105005A257.2095449239783,257.2095449239783,0,0,0,75.3653301874816,-245.92034687217705Z" fill-rule="evenodd" style="fill: #184B42; stroke: #fff; opacity: 1;" id="p-type-logs"></path><path d="M89.6594633436181,-283.14339235259297A297,297,0,0,1,92.28679647622299,-282.2979758980857L79.92271018229332,-244.47721856466944A257.2095449239783,257.2095449239783,0,0,0,77.64737294525294,-245.20937069105005Z" fill-rule="evenodd" style="fill: #184B42; stroke: #fff; opacity: 1;" id="p-type-logs"></path><path d="M92.28679647622299,-282.2979758980857A297,297,0,0,1,94.90615984754058,-281.42818057719995L82.1911454035968,-243.7239537206895A257.2095449239783,257.2095449239783,0,0,0,79.92271018229332,-244.47721856466944Z" fill-rule="evenodd" style="fill: #184B42; stroke: #fff; opacity: 1;" id="p-type-logs"></path><path d="M94.90615984754058,-281.42818057719995A297,297,0,0,1,97.51732725293938,-280.5340815042677L84.45248271020607,-242.94964121003008A257.2095449239783,257.2095449239783,0,0,0,82.1911454035968,-243.7239537206895Z" fill-rule="evenodd" style="fill: #184B42; stroke: #fff; opacity: 1;" id="p-type-logs"></path><path d="M97.51732725293938,-280.5340815042677A297,297,0,0,1,100.12007319558009,-279.61575589245984L86.70652681612981,-242.15434790125855A257.2095449239783,257.2095449239783,0,0,0,84.45248271020607,-242.94964121003008Z" fill-rule="evenodd" style="fill: #184B42; stroke: #fff; opacity: 1;" id="p-type-logs"></path><path d="M100.12007319558009,-279.61575589245984A297,297,0,0,1,102.7141729058896,-278.67328304711776L88.95308306520768,-241.33814247481533A257.2095449239783,257.2095449239783,0,0,0,86.70652681612981,-242.15434790125855Z" fill-rule="evenodd" style="fill: #184B42; stroke: #fff; opacity: 1;" id="p-type-logs"></path><path d="M102.7141729058896,-278.67328304711776A297,297,0,0,1,105.29940236097148,-277.70674435890504L91.19195744792042,-240.5010954170826A257.2095449239783,257.2095449239783,0,0,0,88.95308306520768,-241.33814247481533Z" fill-rule="evenodd" style="fill: #184B42; stroke: #fff; opacity: 1;" id="p-type-logs"></path><path d="M105.29940236097148,-277.70674435890504A297,297,0,0,1,107.87553830395245,-276.7162232967783L93.4229566181441,-239.64327901429735A257.2095449239783,257.2095449239783,0,0,0,91.19195744792042,-240.5010954170826Z" fill-rule="evenodd" style="fill: #184B42; stroke: #fff; opacity: 1;" id="p-type-logs"></path><path d="M107.87553830395245,-276.7162232967783A297,297,0,0,1,110.44235826326248,-275.70180540077934L95.64588790984752,-238.76476734630864A257.2095449239783,257.2095449239783,0,0,0,93.4229566181441,-239.64327901429735Z" fill-rule="evenodd" style="fill: #184B42; stroke: #fff; opacity: 1;" id="p-type-logs"></path><path d="M110.44235826326248,-275.70180540077934A297,297,0,0,1,112.99964057184692,-274.6635782746475L97.86055935373018,-237.86563628018035A257.2095449239783,257.2095449239783,0,0,0,95.64588790984752,-238.76476734630864Z" fill-rule="evenodd" style="fill: #184B42; stroke: #fff; opacity: 1;" id="p-type-logs"></path><path d="M112.99964057184692,-274.6635782746475A297,297,0,0,1,115.54716438630986,-273.6016315782548L100.06677969380091,-236.94596346363934A257.2095449239783,257.2095449239783,0,0,0,97.86055935373018,-237.86563628018035Z" fill-rule="evenodd" style="fill: #184B42; stroke: #fff; opacity: 1;" id="p-type-logs"></path><path d="M115.54716438630986,-273.6016315782548A297,297,0,0,1,118.08470970598545,-272.5160570198629L102.26435840389428,-236.00582831836985A257.2095449239783,257.2095449239783,0,0,0,100.06677969380091,-236.94596346363934Z" fill-rule="evenodd" style="fill: #184B42; stroke: #fff; opacity: 1;" id="p-type-logs"></path><path d="M118.08470970598545,-272.5160570198629A297,297,0,0,1,120.61205739193686,-271.406948348203L104.453105704124,-235.0453120331548A257.2095449239783,257.2095449239783,0,0,0,102.26435840389428,-236.00582831836985Z" fill-rule="evenodd" style="fill: #184B42; stroke: #fff; opacity: 1;" id="p-type-logs"></path><path d="M120.61205739193686,-271.406948348203A297,297,0,0,1,123.1289891858811,-270.27440134438035L106.63283257727245,-234.06449755686444A257.2095449239783,257.2095449239783,0,0,0,104.453105704124,-235.0453120331548Z" fill-rule="evenodd" style="fill: #184B42; stroke: #fff; opacity: 1;" id="p-type-logs"></path><path d="M123.1289891858811,-270.27440134438035A297,297,0,0,1,125.63528772903726,-269.11851381360225L108.80335078511362,-233.06346959129291A257.2095449239783,257.2095449239783,0,0,0,106.63283257727245,-234.06449755686444Z" fill-rule="evenodd" style="fill: #184B42; stroke: #fff; opacity: 1;" id="p-type-logs"></path><path d="M125.63528772903726,-269.11851381360225A297,297,0,0,1,128.13073658089746,-267.93938557673204L110.96447288466926,-232.04231458384376A257.2095449239783,257.2095449239783,0,0,0,108.80335078511362,-233.06346959129291Z" fill-rule="evenodd" style="fill: #184B42; stroke: #fff; opacity: 1;" id="p-type-logs"></path><path d="M128.13073658089746,-267.93938557673204A297,297,0,0,1,130.61512023791826,-266.73711846166844L113.11601224439617,-231.00112072006408A257.2095449239783,257.2095449239783,0,0,0,110.96447288466926,-232.04231458384376Z" fill-rule="evenodd" style="fill: #184B42; stroke: #fff; opacity: 1;" id="p-type-logs"></path><path d="M130.61512023791826,-266.73711846166844A297,297,0,0,1,133.08822415213123,-265.51181629455226L115.25778306030332,-229.93997791602933A257.2095449239783,257.2095449239783,0,0,0,113.11601224439617,-231.00112072006408Z" fill-rule="evenodd" style="fill: #184B42; stroke: #fff; opacity: 1;" id="p-type-logs"></path><path d="M133.08822415213123,-265.51181629455226A297,297,0,0,1,135.5498347496711,-264.2635848907996L117.38960037199786,-228.858977810578A257.2095449239783,257.2095449239783,0,0,0,115.25778306030332,-229.93997791602933Z" fill-rule="evenodd" style="fill: #184B42; stroke: #fff; opacity: 1;" id="p-type-logs"></path><path d="M135.5498347496711,-264.2635848907996A297,297,0,0,1,137.99973944921982,-262.9925320459641L119.51128007865792,-227.75821375739795A257.2095449239783,257.2095449239783,0,0,0,117.38960037199786,-228.858977810578Z" fill-rule="evenodd" style="fill: #184B42; stroke: #fff; opacity: 1;" id="p-type-logs"></path><path d="M137.99973944921982,-262.9925320459641A297,297,0,0,1,140.4377266803644,-261.69876752642773L121.6226389549312,-226.63778081696455A257.2095449239783,257.2095449239783,0,0,0,119.51128007865792,-227.75821375739795Z" fill-rule="evenodd" style="fill: #184B42; stroke: #fff; opacity: 1;" id="p-type-logs"></path><path d="M140.4377266803644,-261.69876752642773A297,297,0,0,1,142.86358590186825,-260.3824030599217L123.72349466675828,-225.49777574833115A257.2095449239783,257.2095449239783,0,0,0,121.6226389549312,-226.63778081696455Z" fill-rule="evenodd" style="fill: #184B42; stroke: #fff; opacity: 1;" id="p-type-logs"></path><path d="M142.86358590186825,-260.3824030599217A297,297,0,0,1,145.27710761985313,-259.04355232587744L125.81366578711864,-224.3382970007734A257.2095449239783,257.2095449239783,0,0,0,123.72349466675828,-225.49777574833115Z" fill-rule="evenodd" style="fill: #184B42; stroke: #fff; opacity: 1;" id="p-type-logs"></path><path d="M145.27710761985313,-259.04355232587744A297,297,0,0,1,147.67808340589045,-257.68233094561L127.89297181169829,-223.15944470528723A257.2095449239783,257.2095449239783,0,0,0,125.81366578711864,-224.3382970007734Z" fill-rule="evenodd" style="fill: #184B42; stroke: #fff; opacity: 1;" id="p-type-logs"></path><path d="M147.67808340589045,-257.68233094561A297,297,0,0,1,150.0663059150014,-256.2988564723323L129.9612331744782,-221.96132066594149A257.2095449239783,257.2095449239783,0,0,0,127.89297181169829,-223.15944470528723Z" fill-rule="evenodd" style="fill: #184B42; stroke: #fff; opacity: 1;" id="p-type-logs"></path><path d="M150.0663059150014,-256.2988564723323A297,297,0,0,1,152.44156890356263,-254.89324838100435L132.01827126324113,-220.7440283510865A257.2095449239783,257.2095449239783,0,0,0,129.9612331744782,-221.96132066594149Z" fill-rule="evenodd" style="fill: #184B42; stroke: #fff; opacity: 1;" id="p-type-logs"></path><path d="M152.44156890356263,-254.89324838100435A297,297,0,0,1,154.80366724711703,-253.46562805801474L134.06390843499642,-219.50767288441858A257.2095449239783,257.2095449239783,0,0,0,132.01827126324113,-220.7440283510865Z" fill-rule="evenodd" style="fill: #184B42; stroke: #fff; opacity: 1;" id="p-type-logs"></path><path d="M154.80366724711703,-253.46562805801474A297,297,0,0,1,157.1523969580883,-252.01611879069847L136.09796803132082,-218.25236103590169A257.2095449239783,257.2095449239783,0,0,0,134.06390843499642,-219.50767288441858Z" fill-rule="evenodd" style="fill: #184B42; stroke: #fff; opacity: 1;" id="p-type-logs"></path><path d="M157.1523969580883,-252.01611879069847A297,297,0,0,1,159.48755520339702,-250.54484575668963L138.12027439361486,-216.97820121254702A257.2095449239783,257.2095449239783,0,0,0,136.09796803132082,-218.25236103590169Z" fill-rule="evenodd" style="fill: #184B42; stroke: #fff; opacity: 1;" id="p-type-logs"></path><path d="M159.48755520339702,-250.54484575668963A297,297,0,0,1,161.80894032197696,-249.05193601311132L140.13065287827223,-215.6853034490509A257.2095449239783,257.2095449239783,0,0,0,138.12027439361486,-216.97820121254702Z" fill-rule="evenodd" style="fill: #184B42; stroke: #fff; opacity: 1;" id="p-type-logs"></path><path d="M161.80894032197696,-249.05193601311132A297,297,0,0,1,164.11635184219006,-247.53751848560344L142.12892987176167,-214.37377939829267A257.2095449239783,257.2095449239783,0,0,0,140.13065287827223,-215.6853034490509Z" fill-rule="evenodd" style="fill: #184B42; stroke: #fff; opacity: 1;" id="p-type-logs"></path><path d="M164.11635184219006,-247.53751848560344A297,297,0,0,1,166.40959049913923,-246.00172395718855L144.11493280562016,-213.04374232169224A257.2095449239783,257.2095449239783,0,0,0,142.12892987176167,-214.37377939829267Z" fill-rule="evenodd" style="fill: #184B42; stroke: #fff; opacity: 1;" id="p-type-logs"></path><path d="M166.40959049913923,-246.00172395718855A297,297,0,0,1,168.68845825187637,-244.4446850569776L146.08849017135566,-211.69530707942894A257.2095449239783,257.2095449239783,0,0,0,144.11493280562016,-213.04374232169224Z" fill-rule="evenodd" style="fill: #184B42; stroke: #fff; opacity: 1;" id="p-type-logs"></path><path d="M168.68845825187637,-244.4446850569776A297,297,0,0,1,170.95275830050494,-242.86653624871653L148.04943153525832,-210.32859012052273A257.2095449239783,257.2095449239783,0,0,0,146.08849017135566,-211.69530707942894Z" fill-rule="evenodd" style="fill: #184B42; stroke: #fff; opacity: 1;" id="p-type-logs"></path><path d="M170.95275830050494,-242.86653624871653A297,297,0,0,1,173.20229510317543,-241.26741381917392L149.99758755311902,-208.94370947277736A257.2095449239783,257.2095449239783,0,0,0,148.04943153525832,-210.32859012052273Z" fill-rule="evenodd" style="fill: #184B42; stroke: #fff; opacity: 1;" id="p-type-logs"></path><path d="M173.20229510317543,-241.26741381917392A297,297,0,0,1,175.43687439297202,-239.64745586637167L151.93278998485346,-207.54078473258798A257.2095449239783,257.2095449239783,0,0,0,149.99758755311902,-208.94370947277736Z" fill-rule="evenodd" style="fill: #184B42; stroke: #fff; opacity: 1;" id="p-type-logs"></path><path d="M175.43687439297202,-239.64745586637167A297,297,0,0,1,177.6563031946892,-238.0068022876587L153.85487170903136,-206.1199370546127A257.2095449239783,257.2095449239783,0,0,0,151.93278998485346,-207.54078473258798Z" fill-rule="evenodd" style="fill: #184B42; stroke: #fff; opacity: 1;" id="p-type-logs"></path><path d="M177.6563031946892,-238.0068022876587A297,297,0,0,1,179.86038984149678,-236.34559476763008L155.7636667373088,-204.68128914131015A257.2095449239783,257.2095449239783,0,0,0,153.85487170903136,-206.1199370546127Z" fill-rule="evenodd" style="fill: #184B42; stroke: #fff; opacity: 1;" id="p-type-logs"></path><path d="M179.86038984149678,-236.34559476763008A297,297,0,0,1,182.0489439914921,-234.66397676589085L157.6590102287626,-203.22496523234278A257.2095449239783,257.2095449239783,0,0,0,155.7636667373088,-204.68128914131015Z" fill-rule="evenodd" style="fill: #184B42; stroke: #fff; opacity: 1;" id="p-type-logs"></path><path d="M182.0489439914921,-234.66397676589085A297,297,0,0,1,184.2217766441377,-232.9620935046675L159.54073850412604,-201.75109109384783A257.2095449239783,257.2095449239783,0,0,0,157.6590102287626,-203.22496523234278Z" fill-rule="evenodd" style="fill: #184B42; stroke: #fff; opacity: 1;" id="p-type-logs"></path><path d="M184.2217766441377,-232.9620935046675A297,297,0,0,1,186.378700156583,-231.24009195626635L161.40868905992363,-200.25979400757632A257.2095449239783,257.2095449239783,0,0,0,159.54073850412604,-201.75109109384783Z" fill-rule="evenodd" style="fill: #184B42; stroke: #fff; opacity: 1;" id="p-type-logs"></path><path d="M186.378700156583,-231.24009195626635A297,297,0,0,1,188.51952825986902,-229.49812083038165L163.26270058250495,-198.75120275990116A257.2095449239783,257.2095449239783,0,0,0,161.40868905992363,-200.25979400757632Z" fill-rule="evenodd" style="fill: #184B42; stroke: #fff; opacity: 1;" id="p-type-logs"></path><path d="M188.51952825986902,-229.49812083038165A297,297,0,0,1,190.64407607501417,-227.7363305612528L165.10261296197538,-197.22544763069536A257.2095449239783,257.2095449239783,0,0,0,163.26270058250495,-198.75120275990116Z" fill-rule="evenodd" style="fill: #184B42; stroke: #fff; opacity: 1;" id="p-type-logs"></path><path d="M190.64407607501417,-227.7363305612528A297,297,0,0,1,192.7521601289804,-225.9548732946734L166.92826730602303,-195.6826603820812A257.2095449239783,257.2095449239783,0,0,0,165.10261296197538,-197.22544763069536Z" fill-rule="evenodd" style="fill: #184B42; stroke: #fff; opacity: 1;" id="p-type-logs"></path><path d="M192.7521601289804,-225.9548732946734A297,297,0,0,1,194.84359837051733,-224.1539028748519L168.73950595364028,-194.12297424705147A257.2095449239783,257.2095449239783,0,0,0,166.92826730602303,-195.6826603820812Z" fill-rule="evenodd" style="fill: #184B42; stroke: #fff; opacity: 1;" id="p-type-logs"></path><path d="M194.84359837051733,-224.1539028748519A297,297,0,0,1,196.9182101858843,-222.33357483112596L170.53617248873942,-192.54652391796358A257.2095449239783,257.2095449239783,0,0,0,168.73950595364028,-194.12297424705147Z" fill-rule="evenodd" style="fill: #184B42; stroke: #fff; opacity: 1;" id="p-type-logs"></path><path d="M196.9182101858843,-222.33357483112596A297,297,0,0,1,198.97581641444762,-220.4940463645312L172.31811175366036,-190.95344553490787A257.2095449239783,257.2095449239783,0,0,0,170.53617248873942,-192.54652391796358Z" fill-rule="evenodd" style="fill: #184B42; stroke: #fff; opacity: 1;" id="p-type-logs"></path><path d="M198.97581641444762,-220.4940463645312A297,297,0,0,1,201.0162393641529,-218.6354763342253L174.0851698625699,-189.34387667395055A257.2095449239783,257.2095449239783,0,0,0,172.31811175366036,-190.95344553490787Z" fill-rule="evenodd" style="fill: #184B42; stroke: #fff; opacity: 1;" id="p-type-logs"></path><path d="M201.0162393641529,-218.6354763342253A297,297,0,0,1,203.03930282687006,-216.75802524376937L175.83719421475107,-187.71795633525292A257.2095449239783,257.2095449239783,0,0,0,174.0851698625699,-189.34387667395055Z" fill-rule="evenodd" style="fill: #184B42; stroke: #fff; opacity: 1;" id="p-type-logs"></path><path d="M203.03930282687006,-216.75802524376937A297,297,0,0,1,205.04483209361055,-214.86185522726703L177.5740335077815,-186.07582493106753A257.2095449239783,257.2095449239783,0,0,0,175.83719421475107,-187.71795633525292Z" fill-rule="evenodd" style="fill: #184B42; stroke: #fff; opacity: 1;" id="p-type-logs"></path><path d="M205.04483209361055,-214.86185522726703A297,297,0,0,1,207.032653969615,-212.94713003536265L179.2955377505998,-184.4176242736123A257.2095449239783,257.2095449239783,0,0,0,177.5740335077815,-186.07582493106753Z" fill-rule="evenodd" style="fill: #184B42; stroke: #fff; opacity: 1;" id="p-type-logs"></path><path d="M207.032653969615,-212.94713003536265A297,297,0,0,1,209.00259678931008,-211.01401502110014L181.0015582764585,-182.74349756282385A257.2095449239783,257.2095449239783,0,0,0,179.2955377505998,-184.4176242736123Z" fill-rule="evenodd" style="fill: #184B42; stroke: #fff; opacity: 1;" id="p-type-logs"></path><path d="M209.00259678931008,-211.01401502110014A297,297,0,0,1,210.9544904311331,-209.0626771256433L182.69194775576256,-181.05358937399095A257.2095449239783,257.2095449239783,0,0,0,181.0015582764585,-182.74349756282385Z" fill-rule="evenodd" style="fill: #184B42; stroke: #fff; opacity: 1;" id="p-type-logs"></path><path d="M210.9544904311331,-209.0626771256433A297,297,0,0,1,212.88816633222382,-207.09328486385888L184.36656020879286,-179.34804564526917A257.2095449239783,257.2095449239783,0,0,0,182.69194775576256,-181.05358937399095Z" fill-rule="evenodd" style="fill: #184B42; stroke: #fff; opacity: 1;" id="p-type-logs"></path><path d="M296.88693383423436,8.194419961592619A297,297,0,0,1,296.797965074728,10.952987149657272L257.034577546241,9.485565118927706A257.2095449239783,257.2095449239783,0,0,0,257.1116267521167,7.0965758560175125Z" fill-rule="evenodd" style="fill: #AE497E; stroke: #fff; opacity: 1;" id="p-type-tokenTransfers"></path><path d="M296.797965074728,10.952987149657272A297,297,0,0,1,296.6833652496464,13.710608452760056L256.93533118645115,11.873735221431867A257.2095449239783,257.2095449239783,0,0,0,257.034577546241,9.485565118927706Z" fill-rule="evenodd" style="fill: #AE497E; stroke: #fff; opacity: 1;" id="p-type-tokenTransfers"></path><path d="M296.6833652496464,13.710608452760056A297,297,0,0,1,296.5431442556736,16.467045726503883L256.81389624352676,14.26087992443234A257.2095449239783,257.2095449239783,0,0,0,256.93533118645115,11.873735221431867Z" fill-rule="evenodd" style="fill: #AE497E; stroke: #fff; opacity: 1;" id="p-type-tokenTransfers"></path><path d="M296.5431442556736,16.467045726503883A297,297,0,0,1,296.37731420210235,19.222060928742806L256.67028320442313,16.64679307738357A257.2095449239783,257.2095449239783,0,0,0,256.81389624352676,14.26087992443234Z" fill-rule="evenodd" style="fill: #AE497E; stroke: #fff; opacity: 1;" id="p-type-tokenTransfers"></path><path d="M296.37731420210235,19.222060928742806A297,297,0,0,1,296.1858894097889,21.97541614013904L256.5045044713656,19.031268636094982A257.2095449239783,257.2095449239783,0,0,0,256.67028320442313,16.64679307738357Z" fill-rule="evenodd" style="fill: #AE497E; stroke: #fff; opacity: 1;" id="p-type-tokenTransfers"></path><path d="M296.1858894097889,21.97541614013904A297,297,0,0,1,295.9688864099161,24.726873584709317L256.31657436077825,21.41410068052466A257.2095449239783,257.2095449239783,0,0,0,256.5045044713656,19.031268636094982Z" fill-rule="evenodd" style="fill: #AE497E; stroke: #fff; opacity: 1;" id="p-type-tokenTransfers"></path><path d="M295.9688864099161,24.726873584709317A297,297,0,0,1,295.7263239425655,27.476195650358928L256.106509102048,23.795083432562325A257.2095449239783,257.2095449239783,0,0,0,256.31657436077825,21.41410068052466Z" fill-rule="evenodd" style="fill: #AE497E; stroke: #fff; opacity: 1;" id="p-type-tokenTransfers"></path><path d="M295.7263239425655,27.476195650358928A297,297,0,0,1,295.4582229550996,30.223144909401547L255.8743268361228,26.174011273800076A257.2095449239783,257.2095449239783,0,0,0,256.106509102048,23.795083432562325Z" fill-rule="evenodd" style="fill: #AE497E; stroke: #fff; opacity: 1;" id="p-type-tokenTransfers"></path><path d="M295.4582229550996,30.223144909401547A297,297,0,0,1,295.1646066003521,32.96748413906319L255.6200476139449,28.550678763289277A257.2095449239783,257.2095449239783,0,0,0,255.8743268361228,26.174011273800076Z" fill-rule="evenodd" style="fill: #AE497E; stroke: #fff; opacity: 1;" id="p-type-tokenTransfers"></path><path d="M295.1646066003521,32.96748413906319A297,297,0,0,1,294.84550023462924,35.708976341968416L255.34369339471957,30.924880655282166A257.2095449239783,257.2095449239783,0,0,0,255.6200476139449,28.550678763289277Z" fill-rule="evenodd" style="fill: #AE497E; stroke: #fff; opacity: 1;" id="p-type-tokenTransfers"></path><path d="M294.84550023462924,35.708976341968416A297,297,0,0,1,294.5009314155194,38.44738476660713L255.04528804401846,33.296411916956615A257.2095449239783,257.2095449239783,0,0,0,255.34369339471957,30.924880655282166Z" fill-rule="evenodd" style="fill: #AE497E; stroke: #fff; opacity: 1;" id="p-type-tokenTransfers"></path><path d="M294.5009314155194,38.44738476660713A297,297,0,0,1,294.1309298995137,41.1824729277801L254.7248573317188,35.665067746122475A257.2095449239783,257.2095449239783,0,0,0,255.04528804401846,33.296411916956615Z" fill-rule="evenodd" style="fill: #AE497E; stroke: #fff; opacity: 1;" id="p-type-tokenTransfers"></path><path d="M294.1309298995137,41.1824729277801A297,297,0,0,1,293.7355276394361,43.91400462702149L254.3824289297778,38.03064358890799A257.2095449239783,257.2095449239783,0,0,0,254.7248573317188,35.665067746122475Z" fill-rule="evenodd" style="fill: #AE497E; stroke: #fff; opacity: 1;" id="p-type-tokenTransfers"></path><path d="M293.7355276394361,43.91400462702149A297,297,0,0,1,293.3147587816839,46.641743972996636L254.01803240984304,40.39293515742482A257.2095449239783,257.2095449239783,0,0,0,254.3824289297778,38.03064358890799Z" fill-rule="evenodd" style="fill: #AE497E; stroke: #fff; opacity: 1;" id="p-type-tokenTransfers"></path><path d="M293.3147587816839,46.641743972996636A297,297,0,0,1,292.86865966327923,49.365455401873334L253.6316992406987,42.751738447410055A257.2095449239783,257.2095449239783,0,0,0,254.01803240984304,40.39293515742482Z" fill-rule="evenodd" style="fill: #AE497E; stroke: #fff; opacity: 1;" id="p-type-tokenTransfers"></path><path d="M292.86865966327923,49.365455401873334A297,297,0,0,1,292.3972688087305,52.08490369766476L253.22346278554787,45.106849755843726A257.2095449239783,257.2095449239783,0,0,0,253.6316992406987,42.751738447410055Z" fill-rule="evenodd" style="fill: #AE497E; stroke: #fff; opacity: 1;" id="p-type-tokenTransfers"></path><path d="M292.3972688087305,52.08490369766476A297,297,0,0,1,291.9006269267061,54.79985401254241L252.79335829913143,47.45806569854033A257.2095449239783,257.2095449239783,0,0,0,253.22346278554787,45.106849755843726Z" fill-rule="evenodd" style="fill: #AE497E; stroke: #fff; opacity: 1;" id="p-type-tokenTransfers"></path><path d="M291.9006269267061,54.79985401254241A297,297,0,0,1,291.3787769065184,57.510071887117284L252.34142292468346,49.80518322771284A257.2095449239783,257.2095449239783,0,0,0,252.79335829913143,47.45806569854033Z" fill-rule="evenodd" style="fill: #AE497E; stroke: #fff; opacity: 1;" id="p-type-tokenTransfers"></path><path d="M291.3787769065184,57.510071887117284A297,297,0,0,1,290.83176381442,60.215323270687406L251.86769569072362,52.14799964950757A257.2095449239783,257.2095449239783,0,0,0,252.34142292468346,49.80518322771284Z" fill-rule="evenodd" style="fill: #AE497E; stroke: #fff; opacity: 1;" id="p-type-tokenTransfers"></path><path d="M290.83176381442,60.215323270687406A297,297,0,0,1,290.25963488971223,62.91537454145018L251.37221750768677,54.48631264150858A257.2095449239783,257.2095449239783,0,0,0,251.86769569072362,52.14799964950757Z" fill-rule="evenodd" style="fill: #AE497E; stroke: #fff; opacity: 1;" id="p-type-tokenTransfers"></path><path d="M290.25963488971223,62.91537454145018A297,297,0,0,1,289.6624395406648,65.60999252667762L250.85503116438983,56.81992027020999A257.2095449239783,257.2095449239783,0,0,0,251.37221750768677,54.48631264150858Z" fill-rule="evenodd" style="fill: #AE497E; stroke: #fff; opacity: 1;" id="p-type-tokenTransfers"></path><path d="M289.6624395406648,65.60999252667762A297,297,0,0,1,289.0402293402499,68.29894452285284L250.3161813243367,59.1486210084546A257.2095449239783,257.2095449239783,0,0,0,250.85503116438983,56.81992027020999Z" fill-rule="evenodd" style="fill: #AE497E; stroke: #fff; opacity: 1;" id="p-type-tokenTransfers"></path><path d="M289.0402293402499,68.29894452285284A297,297,0,0,1,288.3930580216878,70.98199831576598L249.75571452186125,61.472213752837575A257.2095449239783,257.2095449239783,0,0,0,250.3161813243367,59.1486210084546Z" fill-rule="evenodd" style="fill: #AE497E; stroke: #fff; opacity: 1;" id="p-type-tokenTransfers"></path><path d="M288.3930580216878,70.98199831576598A297,297,0,0,1,287.7209814738068,73.65892220056797L249.17367915810854,63.79049784107343A257.2095449239783,257.2095449239783,0,0,0,249.75571452186125,61.472213752837575Z" fill-rule="evenodd" style="fill: #AE497E; stroke: #fff; opacity: 1;" id="p-type-tokenTransfers"></path><path d="M287.7209814738068,73.65892220056797A297,297,0,0,1,287.0240577362166,76.32948500178017L248.57012549685504,66.10327306932493A257.2095449239783,257.2095449239783,0,0,0,249.17367915810854,63.79049784107343Z" fill-rule="evenodd" style="fill: #AE497E; stroke: #fff; opacity: 1;" id="p-type-tokenTransfers"></path><path d="M287.0240577362166,76.32948500178017A297,297,0,0,1,286.30234699429633,78.99345609325843L247.94510566016794,68.41033970949246A257.2095449239783,257.2095449239783,0,0,0,248.57012549685504,66.10327306932493Z" fill-rule="evenodd" style="fill: #AE497E; stroke: #fff; opacity: 1;" id="p-type-tokenTransfers"></path><path d="M286.30234699429633,78.99345609325843A297,297,0,0,1,285.55591157399664,81.6506054181096L247.29867362390388,70.71149852646225A257.2095449239783,257.2095449239783,0,0,0,247.94510566016794,68.41033970949246Z" fill-rule="evenodd" style="fill: #AE497E; stroke: #fff; opacity: 1;" id="p-type-tokenTransfers"></path><path d="M285.55591157399664,81.6506054181096A297,297,0,0,1,284.78481593645756,84.30070350855895L246.63088521304772,73.00655079531201A257.2095449239783,257.2095449239783,0,0,0,247.29867362390388,70.71149852646225Z" fill-rule="evenodd" style="fill: #AE497E; stroke: #fff; opacity: 1;" id="p-type-tokenTransfers"></path><path d="M284.78481593645756,84.30070350855895A297,297,0,0,1,283.98912667244196,86.94352150576672L245.94179809689166,75.29529831847265A257.2095449239783,257.2095449239783,0,0,0,246.63088521304772,73.00655079531201Z" fill-rule="evenodd" style="fill: #AE497E; stroke: #fff; opacity: 1;" id="p-type-tokenTransfers"></path><path d="M283.98912667244196,86.94352150576672A297,297,0,0,1,283.1689124965842,89.57883117959199L245.23147178405472,77.57754344284422A257.2095449239783,257.2095449239783,0,0,0,245.94179809689166,75.29529831847265Z" fill-rule="evenodd" style="fill: #AE497E; stroke: #fff; opacity: 1;" id="p-type-tokenTransfers"></path><path d="M283.1689124965842,89.57883117959199A297,297,0,0,1,282.32424424145665,92.20640494830235L244.499967617344,79.853089076865A257.2095449239783,257.2095449239783,0,0,0,245.23147178405472,77.57754344284422Z" fill-rule="evenodd" style="fill: #AE497E; stroke: #fff; opacity: 1;" id="p-type-tokenTransfers"></path><path d="M282.32424424145665,92.20640494830235A297,297,0,0,1,281.45519485145246,94.82601589822762L243.74734876845702,82.12173870753217A257.2095449239783,257.2095449239783,0,0,0,244.499967617344,79.853089076865Z" fill-rule="evenodd" style="fill: #AE497E; stroke: #fff; opacity: 1;" id="p-type-tokenTransfers"></path><path d="M281.45519485145246,94.82601589822762A297,297,0,0,1,280.5618393764861,97.43743780335568L242.97368023252622,84.38329641737224A257.2095449239783,257.2095449239783,0,0,0,243.74734876845702,82.12173870753217Z" fill-rule="evenodd" style="fill: #AE497E; stroke: #fff; opacity: 1;" id="p-type-tokenTransfers"></path><path d="M280.5618393764861,97.43743780335568A297,297,0,0,1,279.6442549655123,100.04044514486911L242.1790288225063,86.63756690136026A257.2095449239783,257.2095449239783,0,0,0,242.97368023252622,84.38329641737224Z" fill-rule="evenodd" style="fill: #AE497E; stroke: #fff; opacity: 1;" id="p-type-tokenTransfers"></path><path d="M279.6442549655123,100.04044514486911A297,297,0,0,1,278.70252085986334,102.63481313062069L241.3634631634041,88.8843554837862A257.2095449239783,257.2095449239783,0,0,0,242.1790288225063,86.63756690136026Z" fill-rule="evenodd" style="fill: #AE497E; stroke: #fff; opacity: 1;" id="p-type-tokenTransfers"></path><path d="M278.70252085986334,102.63481313062069A297,297,0,0,1,277.7367183864063,105.2203177145461L240.52705368635247,91.12346813506672A257.2095449239783,257.2095449239783,0,0,0,241.3634631634041,88.8843554837862Z" fill-rule="evenodd" style="fill: #AE497E; stroke: #fff; opacity: 1;" id="p-type-tokenTransfers"></path><path d="M277.7367183864063,105.2203177145461A297,297,0,0,1,276.7469309505194,107.79673561601228L239.66987262252772,93.35471148850142A257.2095449239783,257.2095449239783,0,0,0,240.52705368635247,91.12346813506672Z" fill-rule="evenodd" style="fill: #AE497E; stroke: #fff; opacity: 1;" id="p-type-tokenTransfers"></path><path d="M276.7469309505194,107.79673561601228A297,297,0,0,1,275.73324402888926,110.36384433909959L238.79199399691197,95.57789285697166A257.2095449239783,257.2095449239783,0,0,0,239.66987262252772,93.35471148850142Z" fill-rule="evenodd" style="fill: #AE497E; stroke: #fff; opacity: 1;" id="p-type-tokenTransfers"></path><path d="M275.73324402888926,110.36384433909959A297,297,0,0,1,274.69574516212947,112.92142219181635L237.8934936219004,97.79282024958083A257.2095449239783,257.2095449239783,0,0,0,238.79199399691197,95.57789285697166Z" fill-rule="evenodd" style="fill: #AE497E; stroke: #fff; opacity: 1;" id="p-type-tokenTransfers"></path><path d="M274.69574516212947,112.92142219181635A297,297,0,0,1,273.6345239472205,115.46924830524367L236.9744490907543,99.99930238823426A257.2095449239783,257.2095449239783,0,0,0,237.8934936219004,97.79282024958083Z" fill-rule="evenodd" style="fill: #AE497E; stroke: #fff; opacity: 1;" id="p-type-tokenTransfers"></path><path d="M273.6345239472205,115.46924830524367A297,297,0,0,1,272.54967202977235,118.00710265260957L236.03493977089994,102.19714872415791A257.2095449239783,257.2095449239783,0,0,0,236.9744490907543,99.99930238823426Z" fill-rule="evenodd" style="fill: #AE497E; stroke: #fff; opacity: 1;" id="p-type-tokenTransfers"></path><path d="M272.54967202977235,118.00710265260957A297,297,0,0,1,271.44128309611006,120.53476606829015L235.07504679707483,104.38616945435383A257.2095449239783,257.2095449239783,0,0,0,236.03493977089994,102.19714872415791Z" fill-rule="evenodd" style="fill: #AE497E; stroke: #fff; opacity: 1;" id="p-type-tokenTransfers"></path><path d="M271.44128309611006,120.53476606829015A297,297,0,0,1,270.3094528651832,123.05202026673638L234.09485306432097,106.5661755379913A257.2095449239783,257.2095449239783,0,0,0,235.07504679707483,104.38616945435383Z" fill-rule="evenodd" style="fill: #AE497E; stroke: #fff; opacity: 1;" id="p-type-tokenTransfers"></path><path d="M270.3094528651832,123.05202026673638A297,297,0,0,1,269.1542790802996,125.55864786132497L233.09444322082595,108.73697871273211A257.2095449239783,257.2095449239783,0,0,0,234.09485306432097,106.5661755379913Z" fill-rule="evenodd" style="fill: #AE497E; stroke: #fff; opacity: 1;" id="p-type-tokenTransfers"></path><path d="M269.1542790802996,125.55864786132497A297,297,0,0,1,267.9758615006844,128.05443238313154L232.073903660613,110.8983915109886A257.2095449239783,257.2095449239783,0,0,0,233.09444322082595,108.73697871273211Z" fill-rule="evenodd" style="fill: #AE497E; stroke: #fff; opacity: 1;" id="p-type-tokenTransfers"></path><path d="M267.9758615006844,128.05443238313154A297,297,0,0,1,266.77430189286514,130.53915829962466L231.03332251608026,113.0502272761132A257.2095449239783,257.2095449239783,0,0,0,232.073903660613,110.8983915109886Z" fill-rule="evenodd" style="fill: #AE497E; stroke: #fff; opacity: 1;" id="p-type-tokenTransfers"></path><path d="M266.77430189286514,130.53915829962466A297,297,0,0,1,265.549704021883,133.01261103327886L229.9727896503894,115.19230017851781A257.2095449239783,257.2095449239783,0,0,0,231.03332251608026,113.0502272761132Z" fill-rule="evenodd" style="fill: #AE497E; stroke: #fff; opacity: 1;" id="p-type-tokenTransfers"></path><path d="M265.549704021883,133.01261103327886A297,297,0,0,1,264.3021736423322,135.47457698010535L228.89239664970555,117.32442523172176A257.2095449239783,257.2095449239783,0,0,0,229.9727896503894,115.19230017851781Z" fill-rule="evenodd" style="fill: #AE497E; stroke: #fff; opacity: 1;" id="p-type-tokenTransfers"></path><path d="M264.3021736423322,135.47457698010535A297,297,0,0,1,263.0318184892268,137.92484352809845L227.79223681528782,119.44641830832698A257.2095449239783,257.2095449239783,0,0,0,228.89239664970555,117.32442523172176Z" fill-rule="evenodd" style="fill: #AE497E; stroke: #fff; opacity: 1;" id="p-type-tokenTransfers"></path><path d="M263.0318184892268,137.92484352809845A297,297,0,0,1,261.7387482686972,140.36319907559658L226.67240515543205,121.55809615591907A257.2095449239783,257.2095449239783,0,0,0,227.79223681528782,119.44641830832698Z" fill-rule="evenodd" style="fill: #AE497E; stroke: #fff; opacity: 1;" id="p-type-tokenTransfers"></path><path d="M261.7387482686972,140.36319907559658A297,297,0,0,1,260.42307464851575,142.7894330495558L225.5329983772659,123.65927641289265A257.2095449239783,257.2095449239783,0,0,0,226.67240515543205,121.55809615591907Z" fill-rule="evenodd" style="fill: #AE497E; stroke: #fff; opacity: 1;" id="p-type-tokenTransfers"></path><path d="M260.42307464851575,142.7894330495558A297,297,0,0,1,259.0849112484535,145.20333592373473L224.37411487839742,125.74977762419987A257.2095449239783,257.2095449239783,0,0,0,225.5329983772659,123.65927641289265Z" fill-rule="evenodd" style="fill: #AE497E; stroke: #fff; opacity: 1;" id="p-type-tokenTransfers"></path><path d="M259.0849112484535,145.20333592373473A297,297,0,0,1,257.7243736304681,147.60469923678878L223.19585473841767,127.82941925702063A257.2095449239783,257.2095449239783,0,0,0,224.37411487839742,125.74977762419987Z" fill-rule="evenodd" style="fill: #AE497E; stroke: #fff; opacity: 1;" id="p-type-tokenTransfers"></path><path d="M257.7243736304681,147.60469923678878A297,297,0,0,1,256.3415792887239,149.9933156102727L221.9983197102578,129.89802171635318A257.2095449239783,257.2095449239783,0,0,0,223.19585473841767,127.82941925702063Z" fill-rule="evenodd" style="fill: #AE497E; stroke: #fff; opacity: 1;" id="p-type-tokenTransfers"></path><path d="M256.3415792887239,149.9933156102727A297,297,0,0,1,254.93664763944545,152.36897876654956L220.7816132114019,131.95540636052365A257.2095449239783,257.2095449239783,0,0,0,221.9983197102578,129.89802171635318Z" fill-rule="evenodd" style="fill: #AE497E; stroke: #fff; opacity: 1;" id="p-type-tokenTransfers"></path><path d="M254.93664763944545,152.36897876654956A297,297,0,0,1,253.50970001060494,154.73148354660435L219.54584031495605,134.00139551661326A257.2095449239783,257.2095449239783,0,0,0,220.7816132114019,131.95540636052365Z" fill-rule="evenodd" style="fill: #AE497E; stroke: #fff; opacity: 1;" id="p-type-tokenTransfers"></path><path d="M253.50970001060494,154.73148354660435A297,297,0,0,1,252.06085963144423,157.08062592776156L218.2911077405742,136.03581249580208A257.2095449239783,257.2095449239783,0,0,0,219.54584031495605,134.00139551661326Z" fill-rule="evenodd" style="fill: #AE497E; stroke: #fff; opacity: 1;" id="p-type-tokenTransfers"></path><path d="M252.06085963144423,157.08062592776156A297,297,0,0,1,250.59025162183326,159.41620304130404L217.01752384524224,138.0584816086274A257.2095449239783,257.2095449239783,0,0,0,218.2911077405742,136.03581249580208Z" fill-rule="evenodd" style="fill: #AE497E; stroke: #fff; opacity: 1;" id="p-type-tokenTransfers"></path><path d="M250.59025162183326,159.41620304130404A297,297,0,0,1,249.09800298146465,161.73801318999264L215.72519861392024,140.06922818015624A257.2095449239783,257.2095449239783,0,0,0,217.01752384524224,138.0584816086274Z" fill-rule="evenodd" style="fill: #AE497E; stroke: #fff; opacity: 1;" id="p-type-tokenTransfers"></path><path d="M249.09800298146465,161.73801318999264A297,297,0,0,1,247.58424257888612,164.04585586548436L214.41424365004428,142.06787856506992A257.2095449239783,257.2095449239783,0,0,0,215.72519861392024,140.06922818015624Z" fill-rule="evenodd" style="fill: #AE497E; stroke: #fff; opacity: 1;" id="p-type-tokenTransfers"></path><path d="M247.58424257888612,164.04585586548436A297,297,0,0,1,246.04910114037187,166.33953176564808L213.08477216588875,144.05426016265983A257.2095449239783,257.2095449239783,0,0,0,214.41424365004428,142.06787856506992Z" fill-rule="evenodd" style="fill: #AE497E; stroke: #fff; opacity: 1;" id="p-type-tokenTransfers"></path><path d="M246.04910114037187,166.33953176564808A297,297,0,0,1,244.492711238633,168.61884281177595L211.7368989727893,146.02820143173307A257.2095449239783,257.2095449239783,0,0,0,213.08477216588875,144.05426016265983Z" fill-rule="evenodd" style="fill: #AE497E; stroke: #fff; opacity: 1;" id="p-type-tokenTransfers"></path><path d="M244.492711238633,168.61884281177595A297,297,0,0,1,242.91520728136877,170.88359216568935L210.370740471228,147.98953190542645A257.2095449239783,257.2095449239783,0,0,0,211.7368989727893,146.02820143173307Z" fill-rule="evenodd" style="fill: #AE497E; stroke: #fff; opacity: 1;" id="p-type-tokenTransfers"></path><path d="M242.91520728136877,170.88359216568935A297,297,0,0,1,241.31672549965933,173.13358424673729L208.986414640781,149.93808220592777A257.2095449239783,257.2095449239783,0,0,0,210.370740471228,147.98953190542645Z" fill-rule="evenodd" style="fill: #AE497E; stroke: #fff; opacity: 1;" id="p-type-tokenTransfers"></path><path d="M241.31672549965933,173.13358424673729A297,297,0,0,1,239.697403936201,175.36862474868667L207.58404102993018,151.87368405910308A257.2095449239783,257.2095449239783,0,0,0,208.986414640781,149.93808220592777Z" fill-rule="evenodd" style="fill: #AE497E; stroke: #fff; opacity: 1;" id="p-type-tokenTransfers"></path><path d="M239.697403936201,175.36862474868667A297,297,0,0,1,238.0573824333852,177.58852065650242L206.16374074573895,153.79617030902864A257.2095449239783,257.2095449239783,0,0,0,207.58404102993018,151.87368405910308Z" fill-rule="evenodd" style="fill: #AE497E; stroke: #fff; opacity: 1;" id="p-type-tokenTransfers"></path><path d="M238.0573824333852,177.58852065650242A297,297,0,0,1,236.39680262122155,179.7930802630157L204.72563644339365,155.70537493242617A257.2095449239783,257.2095449239783,0,0,0,206.16374074573895,153.79617030902864Z" fill-rule="evenodd" style="fill: #AE497E; stroke: #fff; opacity: 1;" id="p-type-tokenTransfers"></path><path d="M84.51750192897019,284.7205504836041A297,297,0,0,1,62.691668848735794,290.3080340895864L54.29257782864673,251.41413244430063A257.2095449239783,257.2095449239783,0,0,0,73.19430373488848,246.57522969829085Z" fill-rule="evenodd" style="fill: #F09B24; stroke: #fff; opacity: 1;" id="p-type-ether"></path><path d="M62.691668848735794,290.3080340895864A297,297,0,0,1,51.288757245473505,292.5379691257442L44.417366703113245,253.3453128344023A257.2095449239783,257.2095449239783,0,0,0,54.29257782864673,251.41413244430063Z" fill-rule="evenodd" style="fill: #F09B24; stroke: #fff; opacity: 1;" id="p-type-ether"></path><path d="M51.288757245473505,292.5379691257442A297,297,0,0,1,42.51189293243026,293.9417271489395L36.81637924244874,254.5610029432556A257.2095449239783,257.2095449239783,0,0,0,44.417366703113245,253.3453128344023Z" fill-rule="evenodd" style="fill: #F09B24; stroke: #fff; opacity: 1;" id="p-type-ether"></path><path d="M42.51189293243026,293.9417271489395A297,297,0,0,1,35.6720574107856,294.8499691709016L30.892907922997274,255.34756360705933A257.2095449239783,257.2095449239783,0,0,0,36.81637924244874,254.5610029432556Z" fill-rule="evenodd" style="fill: #F09B24; stroke: #fff; opacity: 1;" id="p-type-ether"></path><path d="M35.6720574107856,294.8499691709016A297,297,0,0,1,29.977513447807798,295.48324603517966L25.96128818809119,255.8959974591531A257.2095449239783,257.2095449239783,0,0,0,30.892907922997274,255.34756360705933Z" fill-rule="evenodd" style="fill: #F09B24; stroke: #fff; opacity: 1;" id="p-type-ether"></path><path d="M29.977513447807798,295.48324603517966A297,297,0,0,1,27.230342287115768,295.7490633272175L23.58216817438791,256.12620198682305A257.2095449239783,257.2095449239783,0,0,0,25.96128818809119,255.8959974591531Z" fill-rule="evenodd" style="fill: #F09B24; stroke: #fff; opacity: 1;" id="p-type-ether"></path><path d="M27.230342287115768,295.7490633272175A297,297,0,0,1,25.719151130244622,295.88431060997414L22.273438242563103,256.2433295694831A257.2095449239783,257.2095449239783,0,0,0,23.58216817438791,256.12620198682305Z" fill-rule="evenodd" style="fill: #F09B24; stroke: #fff; opacity: 1;" id="p-type-ether"></path></g></svg>