<svg xmlns="http://www.w3.org/2000/svg" width="600" height="600" id="block-7914283"><g id="burst-container" transform="translate(300,300)"><data type="text/json">{"number":7914283,"totalTransactions":75,"totalFunctions":0,"totalFunctionsValue":"0","totalLogs":104,"totalTokenTransfers":104,"tokens":{"0x1dbed266d20d27d0bd1c4707fc002defe7e0267b":"1","0xdac17f958d2ee523a2206206994597c13d831ec7":"9.56429e-10","0x1c95b093d6c236d3ef7c796fe33f9cc6b8606714":"2e-18","0xc02aaa39b223fe8d0a0e5c4f27ead9083c756cc2":"0.0035275179","0xae785cbf3c9670c3e5a5dd0053dec05a4aada688":"7.3555e-14","0x89d24a6b4ccb1b6faa2625fe562bdd9a23260359":"501.305544698263515569","0x174bfa6600bf90c885c7c01c7031389ed1461ab9":"33.32202715","0xf3db7560e820834658b590c96234c333cd3d5e5e":"340.048","0x048fe49be32adfc9ed68c37d32b5ec9df17b3603":"556.5","0xa0b86991c6218b36c1d19d4a2e9eb0ce3606eb48":"1.44224249e-10","0x3db6ba6ab6f95efed1a6e794cad492faaabf294d":"2.990477e-7","0x4946fcea7c692606e8908002e55a582af44ac121":"1","0x1af97824a7ccd3963b9385e37ecbf44ece0c73e4":"63","0x0000000000085d4780b73119b644ae5ecd22b376":"4000.4","0x6f919d67967a97ea36195a2346d9244e60fe0ddb":"320","0x55370c60fca4929867f8e0e59acfc6198bdca274":"0.01","0xe019070ca3ee26f0fed7ced235a69992014c3181":"1.001741121473036469","0xed314bf44013612e8c00abd3cb6eade61cc8c72e":"6732.518176882870685305","0x693d04b55963b62ef2bb7f8f28b03b25023286ce":"0.01","0x06012c8cf97bead5deae237070f9587f8e7a266d":"6.70164e-13","0x1d963688fe2209a98db35c67a041524822cf04ff":"2.7543e-14","0xb472c71365ef9ed14226bb0aa4c9a3fa45ece510":"1e-11","0xb9440022a095343b440d590fcd2d7a3794bd76c8":"5.764e-15","0x8c124ca2bcc831b464771b3b92d1432e99eeecb7":"50","0x5acd07353106306a6530ac4d49233271ec372963":"100","0xab22fd25ddbbb9c3d2c2ced0fd20e3f2bbb932bc":"8.821e-15","0xb62b330a1b1ed55feb93296f89ea7679c4e0c36c":"3.51e-16","0xfa80eae6b2d0dd2f787a5efae2275aae97cbd542":"100","0xba1ed22c69ad00739ee2b4abd70e270be9e87ee2":"810"},"totalEther":"13.265691494110275689","totalEtherTxns":23,"newContracts":[],"totalNewContracts":0}</data><circle r="297" style="fill: #f9f9f9; stroke: #f9f9f9; stroke-width: 3; opacity: 1;" id="circle-base"></circle><path display="none" d="M9.093002483669097e-15,-148.5A148.5,148.5,0,1,1,-9.093002483669097e-15,148.5A148.5,148.5,0,1,1,9.093002483669097e-15,-148.5Z" fill-rule="evenodd" id="p-type-root" style="stroke: #fff; opacity: 1;"></path><path d="M1.2859447435097075e-14,-210.0107140124046A210.0107140124046,210.0107140124046,0,1,1,-188.78140739023326,-92.01130486936256L-133.48861332757414,-65.06181761894906A148.5,148.5,0,1,0,9.093002483669097e-15,-148.5Z" fill-rule="evenodd" style="fill: #4E4E4E; stroke: #fff; opacity: 1;" id="p-type-data"></path><path d="M-188.78140739023326,-92.01130486936256A210.0107140124046,210.0107140124046,0,0,1,-7.447369271309147,-209.87862371126974L-5.266085313743015,-148.40659805233855A148.5,148.5,0,0,0,-133.48861332757414,-65.06181761894906Z" fill-rule="evenodd" style="fill: #3A86AD; stroke: #fff; opacity: 1;" id="p-type-value"></path><path d="M1.5749542295064867e-14,-257.2095449239783A257.2095449239783,257.2095449239783,0,0,1,242.09311116060164,86.87735912526675L197.66819752878715,70.93506668581048A210.0107140124046,210.0107140124046,0,0,0,1.2859447435097075e-14,-210.0107140124046Z" fill-rule="evenodd" style="fill: #184B42; stroke: #fff; opacity: 1;" id="p-type-logs"></path><path d="M242.09311116060164,86.87735912526675A257.2095449239783,257.2095449239783,0,0,1,-13.12546724349175,256.87442867992917L-10.716899127389878,209.73709274492518A210.0107140124046,210.0107140124046,0,0,0,197.66819752878715,70.93506668581048Z" fill-rule="evenodd" style="fill: #AE497E; stroke: #fff; opacity: 1;" id="p-type-tokenTransfers"></path><path d="M-13.12546724349175,256.87442867992917A257.2095449239783,257.2095449239783,0,0,1,-164.55744715781026,197.68054174577853L-134.36059297054703,161.40548645136877A210.0107140124046,210.0107140124046,0,0,0,-10.716899127389878,209.73709274492518Z" fill-rule="evenodd" style="fill: #F09B24; stroke: #fff; opacity: 1;" id="p-type-ether"></path><path d="M-231.20906051527442,-112.69037374879974A257.2095449239783,257.2095449239783,0,0,1,-118.5082405224015,-228.28172710115157L-96.7615731983014,-186.39124966636646A210.0107140124046,210.0107140124046,0,0,0,-188.78140739023326,-92.01130486936256Z" fill-rule="evenodd" style="fill: #AE497E; stroke: #fff; opacity: 1;" id="p-type-tokenTransfers"></path><path d="M-118.5082405224015,-228.28172710115157A257.2095449239783,257.2095449239783,0,0,1,-18.230780821846327,-256.5626407539215L-14.885370208680285,-209.48251896936537A210.0107140124046,210.0107140124046,0,0,0,-96.7615731983014,-186.39124966636646Z" fill-rule="evenodd" style="fill: #F09B24; stroke: #fff; opacity: 1;" id="p-type-ether"></path><path d="M1.8186004967338195e-14,-297A297,297,0,0,1,5.266913560658342,-296.95329535390675L4.561280943066876,-257.16909751398674A257.2095449239783,257.2095449239783,0,0,0,1.5749542295064867e-14,-257.2095449239783Z" fill-rule="evenodd" style="fill: #184B42; stroke: #fff; opacity: 1;" id="p-type-logs"></path><path d="M5.266913560658342,-296.95329535390675A297,297,0,0,1,10.532170627485993,-296.8131961046771L9.121127320395162,-257.0477680051028A257.2095449239783,257.2095449239783,0,0,0,4.561280943066876,-257.16909751398674Z" fill-rule="evenodd" style="fill: #184B42; stroke: #fff; opacity: 1;" id="p-type-logs"></path><path d="M10.532170627485993,-296.8131961046771A297,297,0,0,1,15.79411522763519,-296.5797463148423L13.678105017430717,-256.84559455659763A257.2095449239783,257.2095449239783,0,0,0,9.121127320395162,-257.0477680051028Z" fill-rule="evenodd" style="fill: #184B42; stroke: #fff; opacity: 1;" id="p-type-logs"></path><path d="M15.79411522763519,-296.5797463148423A297,297,0,0,1,21.051092430060123,-296.25301940655567L18.23078082184636,-256.5626407539215A257.2095449239783,257.2095449239783,0,0,0,13.678105017430717,-256.84559455659763Z" fill-rule="evenodd" style="fill: #184B42; stroke: #fff; opacity: 1;" id="p-type-logs"></path><path d="M21.051092430060123,-296.25301940655567A297,297,0,0,1,26.30144886600806,-295.8331181385018L22.777722874300398,-256.1989955887056A257.2095449239783,257.2095449239783,0,0,0,18.23078082184636,-256.5626407539215Z" fill-rule="evenodd" style="fill: #184B42; stroke: #fff; opacity: 1;" id="p-type-logs"></path><path d="M26.30144886600806,-295.8331181385018A297,297,0,0,1,31.543533249019788,-295.320174573577L27.31750111877023,-255.7547734307729A257.2095449239783,257.2095449239783,0,0,0,22.777722874300398,-256.1989955887056Z" fill-rule="evenodd" style="fill: #184B42; stroke: #fff; opacity: 1;" id="p-type-logs"></path><path d="M31.543533249019788,-295.320174573577A297,297,0,0,1,36.77569689427443,-294.71435003735473L31.848687752318142,-255.23011399216853A257.2095449239783,257.2095449239783,0,0,0,27.31750111877023,-255.7547734307729Z" fill-rule="evenodd" style="fill: #184B42; stroke: #fff; opacity: 1;" id="p-type-logs"></path><path d="M36.77569689427443,-294.71435003735473A297,297,0,0,1,41.9962942371164,-294.01583506734727L36.36985767414883,-254.62518228321835A257.2095449239783,257.2095449239783,0,0,0,31.848687752318142,-255.23011399216853Z" fill-rule="evenodd" style="fill: #184B42; stroke: #fff; opacity: 1;" id="p-type-logs"></path><path d="M41.9962942371164,-294.01583506734727A297,297,0,0,1,47.20368335060104,-293.22484935307955L40.879588933817054,-253.9401685606319A257.2095449239783,257.2095449239783,0,0,0,36.36985767414883,-254.62518228321835Z" fill-rule="evenodd" style="fill: #184B42; stroke: #fff; opacity: 1;" id="p-type-logs"></path><path d="M47.20368335060104,-293.22484935307955A297,297,0,0,1,52.39622646189579,-292.34164166699503L45.37646317844419,-253.17528826766505A257.2095449239783,257.2095449239783,0,0,0,40.879588933817054,-253.9401685606319Z" fill-rule="evenodd" style="fill: #184B42; stroke: #fff; opacity: 1;" id="p-type-logs"></path><path d="M52.39622646189579,-292.34164166699503A297,297,0,0,1,57.57229046737554,-291.36648978621434L49.85906609880389,-252.3307819663608A257.2095449239783,257.2095449239783,0,0,0,45.37646317844419,-253.17528826766505Z" fill-rule="evenodd" style="fill: #184B42; stroke: #fff; opacity: 1;" id="p-type-logs"></path><path d="M57.57229046737554,-291.36648978621434A297,297,0,0,1,62.73024744624883,-290.2997004051716L54.3259878741354,-251.4069152618903A257.2095449239783,257.2095449239783,0,0,0,49.85906609880389,-252.3307819663608Z" fill-rule="evenodd" style="fill: #184B42; stroke: #fff; opacity: 1;" id="p-type-logs"></path><path d="M62.73024744624883,-290.2997004051716A297,297,0,0,1,67.86847517255431,-289.1416090391564L58.7758236155455,-250.40397871901772A257.2095449239783,257.2095449239783,0,0,0,54.3259878741354,-251.4069152618903Z" fill-rule="evenodd" style="fill: #184B42; stroke: #fff; opacity: 1;" id="p-type-logs"></path><path d="M67.86847517255431,-289.1416090391564A297,297,0,0,1,72.985357625366,-287.89257991879094L63.207173807859256,-249.3222877707147A257.2095449239783,257.2095449239783,0,0,0,58.7758236155455,-250.40397871901772Z" fill-rule="evenodd" style="fill: #184B42; stroke: #fff; opacity: 1;" id="p-type-logs"></path><path d="M72.985357625366,-287.89257991879094A297,297,0,0,1,78.07928549704717,-286.553005875476L67.61864474978074,-248.16218261895375A257.2095449239783,257.2095449239783,0,0,0,63.207173807859256,-249.3222877707147Z" fill-rule="evenodd" style="fill: #184B42; stroke: #fff; opacity: 1;" id="p-type-logs"></path><path d="M78.07928549704717,-286.553005875476A297,297,0,0,1,83.14865669939259,-285.12330821784207L72.00884899222514,-246.9240281277116A257.2095449239783,257.2095449239783,0,0,0,67.61864474978074,-248.16218261895375Z" fill-rule="evenodd" style="fill: #184B42; stroke: #fff; opacity: 1;" id="p-type-logs"></path><path d="M83.14865669939259,-285.12330821784207A297,297,0,0,1,88.19187686750054,-283.6039365992433L76.37640577468464,-245.60821370821603A257.2095449239783,257.2095449239783,0,0,0,72.00884899222514,-246.9240281277116Z" fill-rule="evenodd" style="fill: #184B42; stroke: #fff; opacity: 1;" id="p-type-logs"></path><path d="M88.19187686750054,-283.6039365992433A297,297,0,0,1,93.20735986121514,-281.99536887633803L80.71994145949033,-244.21515319647236A257.2095449239783,257.2095449239783,0,0,0,76.37640577468464,-245.60821370821603Z" fill-rule="evenodd" style="fill: #184B42; stroke: #fff; opacity: 1;" id="p-type-logs"></path><path d="M93.20735986121514,-281.99536887633803A297,297,0,0,1,98.1935282639829,-280.29811095879757L85.03808996383448,-242.74528472310806A257.2095449239783,257.2095449239783,0,0,0,80.71994145949033,-244.21515319647236Z" fill-rule="evenodd" style="fill: #184B42; stroke: #fff; opacity: 1;" id="p-type-logs"></path><path d="M98.1935282639829,-280.29811095879757A297,297,0,0,1,103.1488138789647,-278.5126966501935L89.32949318941633,-241.19907057557668A257.2095449239783,257.2095449239783,0,0,0,85.03808996383448,-242.74528472310806Z" fill-rule="evenodd" style="fill: #184B42; stroke: #fff; opacity: 1;" id="p-type-logs"></path><path d="M103.1488138789647,-278.5126966501935A297,297,0,0,1,108.07165822224842,-276.63968748011104L93.59280144957654,-239.5769970527641A257.2095449239783,257.2095449239783,0,0,0,89.32949318941633,-241.19907057557668Z" fill-rule="evenodd" style="fill: #184B42; stroke: #fff; opacity: 1;" id="p-type-logs"></path><path d="M108.07165822224842,-276.63968748011104A297,297,0,0,1,112.96051301300699,-274.67967252754306L97.82667389378672,-237.87957431204285A257.2095449239783,257.2095449239783,0,0,0,93.59280144957654,-239.5769970527641Z" fill-rule="evenodd" style="fill: #184B42; stroke: #fff; opacity: 1;" id="p-type-logs"></path><path d="M112.96051301300699,-274.67967252754306A297,297,0,0,1,117.8138406604471,-272.63326823561863L102.02977892935921,-236.1073362088228A257.2095449239783,257.2095449239783,0,0,0,97.82667389378672,-237.87957431204285Z" fill-rule="evenodd" style="fill: #184B42; stroke: #fff; opacity: 1;" id="p-type-logs"></path><path d="M117.8138406604471,-272.63326823561863A297,297,0,0,1,122.63011474739606,-270.50111821772657L106.20079464024572,-234.26084012864882A257.2095449239783,257.2095449239783,0,0,0,102.02977892935921,-236.1073362088228Z" fill-rule="evenodd" style="fill: #184B42; stroke: #fff; opacity: 1;" id="p-type-logs"></path><path d="M122.63011474739606,-270.50111821772657A297,297,0,0,1,127.40782051037432,-268.2838930550924L110.3384092027922,-232.34066681189753A257.2095449239783,257.2095449239783,0,0,0,106.20079464024572,-234.26084012864882Z" fill-rule="evenodd" style="fill: #184B42; stroke: #fff; opacity: 1;" id="p-type-logs"></path><path d="M127.40782051037432,-268.2838930550924A297,297,0,0,1,132.14545531600268,-265.9822900858746L114.44132129831972,-230.34742017112924A257.2095449239783,257.2095449239783,0,0,0,110.3384092027922,-232.34066681189753Z" fill-rule="evenodd" style="fill: #184B42; stroke: #fff; opacity: 1;" id="p-type-logs"></path><path d="M132.14545531600268,-265.9822900858746A297,297,0,0,1,136.84152913359486,-263.5970331858451L118.50824052240151,-228.28172710115155A257.2095449239783,257.2095449239783,0,0,0,114.44132129831972,-230.34742017112924Z" fill-rule="evenodd" style="fill: #184B42; stroke: #fff; opacity: 1;" id="p-type-logs"></path><path d="M136.84152913359486,-263.5970331858451A297,297,0,0,1,141.49456500378608,-261.12887254072336L122.53788779070734,-226.1442372818552A257.2095449239783,257.2095449239783,0,0,0,118.50824052240151,-228.28172710115155Z" fill-rule="evenodd" style="fill: #184B42; stroke: #fff; opacity: 1;" id="p-type-logs"></path><path d="M141.49456500378608,-261.12887254072336A297,297,0,0,1,146.10309950305052,-258.5785844102364L126.52899574128733,-223.9356229738835A257.2095449239783,257.2095449239783,0,0,0,122.53788779070734,-226.1442372818552Z" fill-rule="evenodd" style="fill: #184B42; stroke: #fff; opacity: 1;" id="p-type-logs"></path><path d="M146.10309950305052,-258.5785844102364A297,297,0,0,1,150.6656832039619,-255.94697088397703L130.4803091331694,-221.6565788072002A257.2095449239783,257.2095449239783,0,0,0,126.52899574128733,-223.9356229738835Z" fill-rule="evenodd" style="fill: #184B42; stroke: #fff; opacity: 1;" id="p-type-logs"></path><path d="M150.6656832039619,-255.94697088397703A297,297,0,0,1,155.1808811310521,-253.23485962914006L134.39058524114438,-219.30782156262168A257.2095449239783,257.2095449239783,0,0,0,130.4803091331694,-221.6565788072002Z" fill-rule="evenodd" style="fill: #184B42; stroke: #fff; opacity: 1;" id="p-type-logs"></path><path d="M155.1808811310521,-253.23485962914006A297,297,0,0,1,159.64727321212436,-250.44310363021242L138.2585942466146,-216.89008994638274A257.2095449239783,257.2095449239783,0,0,0,134.39058524114438,-219.30782156262168Z" fill-rule="evenodd" style="fill: #184B42; stroke: #fff; opacity: 1;" id="p-type-logs"></path><path d="M159.64727321212436,-250.44310363021242A297,297,0,0,1,164.06345472487916,-247.57258092070197L142.08311962438344,-214.40414435780653A257.2095449239783,257.2095449239783,0,0,0,138.2585942466146,-216.89008994638274Z" fill-rule="evenodd" style="fill: #184B42; stroke: #fff; opacity: 1;" id="p-type-logs"></path><path d="M164.06345472487916,-247.57258092070197A297,297,0,0,1,168.42803673871305,-244.6241943069874L145.86295852526425,-211.85076665015174A257.2095449239783,257.2095449239783,0,0,0,142.08311962438344,-214.40414435780653Z" fill-rule="evenodd" style="fill: #184B42; stroke: #fff; opacity: 1;" id="p-type-logs"></path><path d="M168.42803673871305,-244.6241943069874A297,297,0,0,1,172.7396465515498,-241.59887108437746L149.59692215438713,-209.23075988471254A257.2095449239783,257.2095449239783,0,0,0,145.86295852526425,-211.85076665015174Z" fill-rule="evenodd" style="fill: #184B42; stroke: #fff; opacity: 1;" id="p-type-logs"></path><path d="M172.7396465515498,-241.59887108437746A297,297,0,0,1,176.9969281215686,-238.49756274546766L153.28383614508672,-206.54494807824813A257.2095449239783,257.2095449239783,0,0,0,149.59692215438713,-209.23075988471254Z" fill-rule="evenodd" style="fill: #184B42; stroke: #fff; opacity: 1;" id="p-type-logs"></path><path d="M176.9969281215686,-238.49756274546766A297,297,0,0,1,181.19854249369166,-235.32124468088685L156.9225409282511,-203.79417594382173A257.2095449239783,257.2095449239783,0,0,0,153.28383614508672,-206.54494807824813Z" fill-rule="evenodd" style="fill: #184B42; stroke: #fff; opacity: 1;" id="p-type-logs"></path><path d="M181.19854249369166,-235.32124468088685A297,297,0,0,1,185.3431682206983,-232.07091587252793L160.51189209701738,-200.9793086251305A257.2095449239783,257.2095449239783,0,0,0,156.9225409282511,-203.79417594382173Z" fill-rule="evenodd" style="fill: #184B42; stroke: #fff; opacity: 1;" id="p-type-logs"></path><path d="M185.3431682206983,-232.07091587252793A297,297,0,0,1,189.42950177883247,-228.74759857935842L164.05076076669843,-198.10123142440958A257.2095449239783,257.2095449239783,0,0,0,160.51189209701738,-200.9793086251305Z" fill-rule="evenodd" style="fill: #184B42; stroke: #fff; opacity: 1;" id="p-type-logs"></path><path d="M189.42950177883247,-228.74759857935842A297,297,0,0,1,193.45625797777336,-225.35233801591053L167.53803392982772,-195.16084952399623A257.2095449239783,257.2095449239783,0,0,0,164.05076076669843,-198.10123142440958Z" fill-rule="evenodd" style="fill: #184B42; stroke: #fff; opacity: 1;" id="p-type-logs"></path><path d="M193.45625797777336,-225.35233801591053A297,297,0,0,1,197.4221703648396,-221.88620202355136L170.97261480621046,-192.1590877016416A257.2095449239783,257.2095449239783,0,0,0,167.53803392982772,-195.16084952399623Z" fill-rule="evenodd" style="fill: #184B42; stroke: #fff; opacity: 1;" id="p-type-logs"></path><path d="M197.4221703648396,-221.88620202355136A297,297,0,0,1,201.32599162330072,-218.35028073463667L174.35342318787153,-189.09689003965926A257.2095449239783,257.2095449239783,0,0,0,170.97261480621046,-192.1590877016416Z" fill-rule="evenodd" style="fill: #184B42; stroke: #fff; opacity: 1;" id="p-type-logs"></path><path d="M201.32599162330072,-218.35028073463667A297,297,0,0,1,205.16649396466997,-214.7456862296541L177.6793957787909,-185.97521962800255A257.2095449239783,257.2095449239783,0,0,0,174.35342318787153,-189.09689003965926Z" fill-rule="evenodd" style="fill: #184B42; stroke: #fff; opacity: 1;" id="p-type-logs"></path><path d="M205.16649396466997,-214.7456862296541A297,297,0,0,1,208.94246951485525,-211.0735521874633L180.94948652932027,-182.7950582613637A257.2095449239783,257.2095449239783,0,0,0,177.6793957787909,-185.97521962800255Z" fill-rule="evenodd" style="fill: #184B42; stroke: #fff; opacity: 1;" id="p-type-logs"></path><path d="M208.94246951485525,-211.0735521874633A297,297,0,0,1,212.65273069404688,-207.33503352874342L184.16266696517545,-179.55740613039015A257.2095449239783,257.2095449239783,0,0,0,180.94948652932027,-182.7950582613637Z" fill-rule="evenodd" style="fill: #184B42; stroke: #fff; opacity: 1;" id="p-type-logs"></path><path d="M212.65273069404688,-207.33503352874342A297,297,0,0,1,216.29611059022284,-203.53130605275962L187.31792651090132,-176.26328150711532A257.2095449239783,257.2095449239783,0,0,0,184.16266696517545,-179.55740613039015Z" fill-rule="evenodd" style="fill: #184B42; stroke: #fff; opacity: 1;" id="p-type-logs"></path><path d="M216.29611059022284,-203.53130605275962A297,297,0,0,1,219.87146332615313,-199.663566067563L190.41427280770716,-172.9137204247022A257.2095449239783,257.2095449239783,0,0,0,187.31792651090132,-176.26328150711532Z" fill-rule="evenodd" style="fill: #184B42; stroke: #fff; opacity: 1;" id="p-type-logs"></path><path d="M219.87146332615313,-199.663566067563A297,297,0,0,1,223.37766441978948,-195.7330300137407L193.45073202557302,-169.50977635160143A257.2095449239783,257.2095449239783,0,0,0,190.41427280770716,-172.9137204247022Z" fill-rule="evenodd" style="fill: #184B42; stroke: #fff; opacity: 1;" id="p-type-logs"></path><path d="M223.37766441978948,-195.7330300137407A297,297,0,0,1,226.81361113792497,-191.74093408183387L196.42634916952812,-166.0525198602256A257.2095449239783,257.2095449239783,0,0,0,193.45073202557302,-169.50977635160143Z" fill-rule="evenodd" style="fill: #184B42; stroke: #fff; opacity: 1;" id="p-type-logs"></path><path d="M226.81361113792497,-191.74093408183387A297,297,0,0,1,230.17822284301442,-187.68853382354393L199.34018838000605,-162.5430382902439A257.2095449239783,257.2095449239783,0,0,0,196.42634916952812,-166.0525198602256Z" fill-rule="evenodd" style="fill: #184B42; stroke: #fff; opacity: 1;" id="p-type-logs"></path><path d="M230.17822284301442,-187.68853382354393A297,297,0,0,1,233.47044133304485,-183.57710375685L202.19133322718125,-158.9824354066038A257.2095449239783,257.2095449239783,0,0,0,199.34018838000605,-162.5430382902439Z" fill-rule="evenodd" style="fill: #184B42; stroke: #fff; opacity: 1;" id="p-type-logs"></path><path d="M233.47044133304485,-183.57710375685A297,297,0,0,1,236.68923117435,-179.4079369651608L204.9788869991948,-155.37183105238648A257.2095449239783,257.2095449239783,0,0,0,202.19133322718125,-158.9824354066038Z" fill-rule="evenodd" style="fill: #184B42; stroke: #fff; opacity: 1;" id="p-type-logs"></path><path d="M236.68923117435,-179.4079369651608A297,297,0,0,1,239.83358002726396,-175.18234469062793L207.70197298417875,-151.71236079660576A257.2095449239783,257.2095449239783,0,0,0,204.9788869991948,-155.37183105238648Z" fill-rule="evenodd" style="fill: #184B42; stroke: #fff; opacity: 1;" id="p-type-logs"></path><path d="M239.83358002726396,-175.18234469062793A297,297,0,0,1,242.90249896451155,-170.90165592174782L210.3597347459903,-148.00517557706084A257.2095449239783,257.2095449239783,0,0,0,207.70197298417875,-151.71236079660576Z" fill-rule="evenodd" style="fill: #184B42; stroke: #fff; opacity: 1;" id="p-type-logs"></path><path d="M279.5450457950547,100.3173333549131A297,297,0,0,1,275.8117819052868,110.16742241802017L238.86000979303157,95.40778648345673A257.2095449239783,257.2095449239783,0,0,0,242.09311116060164,86.87735912526675Z" fill-rule="evenodd" style="fill: #AE497E; stroke: #fff; opacity: 1;" id="p-type-tokenTransfers"></path><path d="M275.8117819052868,110.16742241802017A297,297,0,0,1,273.8147314583559,115.04126579792334L237.13051337335028,99.6286586645195A257.2095449239783,257.2095449239783,0,0,0,238.86000979303157,95.40778648345673Z" fill-rule="evenodd" style="fill: #AE497E; stroke: #fff; opacity: 1;" id="p-type-tokenTransfers"></path><path d="M273.8147314583559,115.04126579792334A297,297,0,0,1,271.73156370416643,119.87892761819546L235.32643717787764,103.81819669579322A257.2095449239783,257.2095449239783,0,0,0,237.13051337335028,99.6286586645195Z" fill-rule="evenodd" style="fill: #AE497E; stroke: #fff; opacity: 1;" id="p-type-tokenTransfers"></path><path d="M271.73156370416643,119.87892761819546A297,297,0,0,1,269.5629338185616,124.67888638871376L233.44834860553772,107.97508292817999A257.2095449239783,257.2095449239783,0,0,0,235.32643717787764,103.81819669579322Z" fill-rule="evenodd" style="fill: #AE497E; stroke: #fff; opacity: 1;" id="p-type-tokenTransfers"></path><path d="M269.5629338185616,124.67888638871376A297,297,0,0,1,267.30952385602836,129.43963247731892L231.49683833284303,112.09800998187946A257.2095449239783,257.2095449239783,0,0,0,233.44834860553772,107.97508292817999Z" fill-rule="evenodd" style="fill: #AE497E; stroke: #fff; opacity: 1;" id="p-type-tokenTransfers"></path><path d="M267.30952385602836,129.43963247731892A297,297,0,0,1,264.97204253518504,134.15966858460894L229.47252012812106,116.18568115757242A257.2095449239783,257.2095449239783,0,0,0,231.49683833284303,112.09800998187946Z" fill-rule="evenodd" style="fill: #AE497E; stroke: #fff; opacity: 1;" id="p-type-tokenTransfers"></path><path d="M264.97204253518504,134.15966858460894A297,297,0,0,1,262.55122501588227,138.83751021485358L227.37603065847844,120.23681084424472A257.2095449239783,257.2095449239783,0,0,0,229.47252012812106,116.18568115757242Z" fill-rule="evenodd" style="fill: #AE497E; stroke: #fff; opacity: 1;" id="p-type-tokenTransfers"></path><path d="M262.55122501588227,138.83751021485358A297,297,0,0,1,260.0478326679887,143.47168614288236L225.20802928956306,124.25012492352396A257.2095449239783,257.2095449239783,0,0,0,227.37603065847844,120.23681084424472Z" fill-rule="evenodd" style="fill: #AE497E; stroke: #fff; opacity: 1;" id="p-type-tokenTransfers"></path><path d="M260.0478326679887,143.47168614288236A297,297,0,0,1,257.462652831933,148.0607388767986L222.96919787818752,128.22436117040186A257.2095449239783,257.2095449239783,0,0,0,225.20802928956306,124.25012492352396Z" fill-rule="evenodd" style="fill: #AE497E; stroke: #fff; opacity: 1;" id="p-type-tokenTransfers"></path><path d="M257.462652831933,148.0607388767986A297,297,0,0,1,254.79649857107756,152.60322511637443L220.6602405578786,132.15826965021577A257.2095449239783,257.2095449239783,0,0,0,222.96919787818752,128.22436117040186Z" fill-rule="evenodd" style="fill: #AE497E; stroke: #fff; opacity: 1;" id="p-type-tokenTransfers"></path><path d="M254.79649857107756,152.60322511637443A297,297,0,0,1,252.05020841600285,157.09771620698223L218.2818835174208,136.05061311176493A257.2095449239783,257.2095449239783,0,0,0,220.6602405578786,132.15826965021577Z" fill-rule="evenodd" style="fill: #AE497E; stroke: #fff; opacity: 1;" id="p-type-tokenTransfers"></path><path d="M252.05020841600285,157.09771620698223A297,297,0,0,1,249.22464610078123,161.54279858891994L215.83487477246288,139.90016737643762A257.2095449239783,257.2095449239783,0,0,0,218.2818835174208,136.05061311176493Z" fill-rule="evenodd" style="fill: #AE497E; stroke: #fff; opacity: 1;" id="p-type-tokenTransfers"></path><path d="M249.22464610078123,161.54279858891994A297,297,0,0,1,246.32070029132487,165.9370742419888L213.31998393026032,143.70572172322673A257.2095449239783,257.2095449239783,0,0,0,215.83487477246288,139.90016737643762Z" fill-rule="evenodd" style="fill: #AE497E; stroke: #fff; opacity: 1;" id="p-type-tokenTransfers"></path><path d="M246.32070029132487,165.9370742419888A297,297,0,0,1,243.3392843058917,170.27916112518412L210.73800194762617,147.46607926951305A257.2095449239783,257.2095449239783,0,0,0,213.31998393026032,143.70572172322673Z" fill-rule="evenodd" style="fill: #AE497E; stroke: #fff; opacity: 1;" id="p-type-tokenTransfers"></path><path d="M243.3392843058917,170.27916112518412A297,297,0,0,1,240.2813358278383,174.5676936113598L208.08974088216797,151.18005734749605A257.2095449239783,257.2095449239783,0,0,0,210.73800194762617,147.46607926951305Z" fill-rule="evenodd" style="fill: #AE497E; stroke: #fff; opacity: 1;" id="p-type-tokenTransfers"></path><path d="M240.2813358278383,174.5676936113598A297,297,0,0,1,237.14781661070975,178.80132291673115L205.37603363688794,154.8464878761539A257.2095449239783,257.2095449239783,0,0,0,208.08974088216797,151.18005734749605Z" fill-rule="evenodd" style="fill: #AE497E; stroke: #fff; opacity: 1;" id="p-type-tokenTransfers"></path><path d="M237.14781661070975,178.80132291673115A297,297,0,0,1,233.93971217575898,182.97871752508007L202.59773369822705,158.4642177286162A257.2095449239783,257.2095449239783,0,0,0,205.37603363688794,154.8464878761539Z" fill-rule="evenodd" style="fill: #AE497E; stroke: #fff; opacity: 1;" id="p-type-tokenTransfers"></path><path d="M233.93971217575898,182.97871752508007A297,297,0,0,1,230.65803150199113,187.09856360652924L199.75571486763565,162.03210909483298A257.2095449239783,257.2095449239783,0,0,0,202.59773369822705,158.4642177286162Z" fill-rule="evenodd" style="fill: #AE497E; stroke: #fff; opacity: 1;" id="p-type-tokenTransfers"></path><path d="M230.65803150199113,187.09856360652924A297,297,0,0,1,227.3038067088302,191.1595654307541L196.85087098675467,165.54903983942665A257.2095449239783,257.2095449239783,0,0,0,199.75571486763565,162.03210909483298Z" fill-rule="evenodd" style="fill: #AE497E; stroke: #fff; opacity: 1;" id="p-type-tokenTransfers"></path><path d="M227.3038067088302,191.1595654307541A297,297,0,0,1,223.8780927315077,195.16044577450228L193.88411565629397,169.01390385461437A257.2095449239783,257.2095449239783,0,0,0,196.85087098675467,165.54903983942665Z" fill-rule="evenodd" style="fill: #AE497E; stroke: #fff; opacity: 1;" id="p-type-tokenTransfers"></path><path d="M223.8780927315077,195.16044577450228A297,297,0,0,1,220.38196698927567,199.09994632329213L190.85638194869628,172.42561140808914A257.2095449239783,257.2095449239783,0,0,0,193.88411565629397,169.01390385461437Z" fill-rule="evenodd" style="fill: #AE497E; stroke: #fff; opacity: 1;" id="p-type-tokenTransfers"></path><path d="M220.38196698927567,199.09994632329213A297,297,0,0,1,216.81652904654817,202.9768280671647L187.76862211467736,175.7830894857509A257.2095449239783,257.2095449239783,0,0,0,190.85638194869628,172.42561140808914Z" fill-rule="evenodd" style="fill: #AE497E; stroke: #fff; opacity: 1;" id="p-type-tokenTransfers"></path><path d="M216.81652904654817,202.9768280671647A297,297,0,0,1,213.18290026707794,206.78987169036375L184.6218072837339,179.08528212917952A257.2095449239783,257.2095449239783,0,0,0,187.76862211467736,175.7830894857509Z" fill-rule="evenodd" style="fill: #AE497E; stroke: #fff; opacity: 1;" id="p-type-tokenTransfers"></path><path d="M213.18290026707794,206.78987169036375A297,297,0,0,1,209.482223461277,210.53787795482222L181.4169271587144,182.3311507677438A257.2095449239783,257.2095449239783,0,0,0,184.6218072837339,179.08528212917952Z" fill-rule="evenodd" style="fill: #AE497E; stroke: #fff; opacity: 1;" id="p-type-tokenTransfers"></path><path d="M209.482223461277,210.53787795482222A297,297,0,0,1,205.71566252679187,214.2196680773338L178.15498970454826,185.51967454524146A257.2095449239783,257.2095449239783,0,0,0,181.4169271587144,182.3311507677438Z" fill-rule="evenodd" style="fill: #AE497E; stroke: #fff; opacity: 1;" id="p-type-tokenTransfers"></path><path d="M205.71566252679187,214.2196680773338A297,297,0,0,1,201.8844020824471,217.83408410029142L174.83702083123123,188.64985064096825A257.2095449239783,257.2095449239783,0,0,0,178.15498970454826,185.51967454524146Z" fill-rule="evenodd" style="fill: #AE497E; stroke: #fff; opacity: 1;" id="p-type-tokenTransfers"></path><path d="M201.8844020824471,217.83408410029142A297,297,0,0,1,197.98964709567127,221.3799892558755L171.46406407116723,191.72069458511427A257.2095449239783,257.2095449239783,0,0,0,174.83702083123123,188.64985064096825Z" fill-rule="evenodd" style="fill: #AE497E; stroke: #fff; opacity: 1;" id="p-type-tokenTransfers"></path><path d="M197.98964709567127,221.3799892558755A297,297,0,0,1,194.03262250352344,224.85626832357858L168.03718025096745,194.73124056838924A257.2095449239783,257.2095449239783,0,0,0,171.46406407116723,191.72069458511427Z" fill-rule="evenodd" style="fill: #AE497E; stroke: #fff; opacity: 1;" id="p-type-tokenTransfers"></path><path d="M194.03262250352344,224.85626832357858A297,297,0,0,1,190.01457282743908,228.26182798095232L164.55744715781054,197.6805417457783A257.2095449239783,257.2095449239783,0,0,0,168.03718025096745,194.73124056838924Z" fill-rule="evenodd" style="fill: #AE497E; stroke: #fff; opacity: 1;" id="p-type-tokenTransfers"></path><path d="M190.01457282743908,228.26182798095232A297,297,0,0,1,185.93676178181613,231.5955971474677L161.02595920046832,200.56767053433393A257.2095449239783,257.2095449239783,0,0,0,164.55744715781054,197.6805417457783Z" fill-rule="evenodd" style="fill: #AE497E; stroke: #fff; opacity: 1;" id="p-type-tokenTransfers"></path><path d="M185.93676178181613,231.5955971474677A297,297,0,0,1,181.80047187656527,234.8565273213802L157.44382706510393,203.39171890490934A257.2095449239783,257.2095449239783,0,0,0,161.02595920046832,200.56767053433393Z" fill-rule="evenodd" style="fill: #AE497E; stroke: #fff; opacity: 1;" id="p-type-tokenTransfers"></path><path d="M181.80047187656527,234.8565273213802A297,297,0,0,1,177.6070040137481,238.04359290949307L153.81217736595065,206.15179866774227A257.2095449239783,257.2095449239783,0,0,0,157.44382706510393,203.39171890490934Z" fill-rule="evenodd" style="fill: #AE497E; stroke: #fff; opacity: 1;" id="p-type-tokenTransfers"></path><path d="M177.6070040137481,238.04359290949307A297,297,0,0,1,173.35767707843166,241.15579154971627L150.1321522909811,208.84704175179897A257.2095449239783,257.2095449239783,0,0,0,153.81217736595065,206.15179866774227Z" fill-rule="evenodd" style="fill: #AE497E; stroke: #fff; opacity: 1;" id="p-type-tokenTransfers"></path><path d="M173.35767707843166,241.15579154971627A297,297,0,0,1,169.05382752388624,244.19214442631878L146.40490924267843,211.4766004777907A257.2095449239783,257.2095449239783,0,0,0,150.1321522909811,208.84704175179897Z" fill-rule="evenodd" style="fill: #AE497E; stroke: #fff; opacity: 1;" id="p-type-tokenTransfers"></path><path d="M169.05382752388624,244.19214442631878A297,297,0,0,1,164.6968089512585,247.1516965777752L142.6316204740222,214.03964782477684A257.2095449239783,257.2095449239783,0,0,0,146.40490924267843,211.4766004777907Z" fill-rule="evenodd" style="fill: #AE497E; stroke: #fff; opacity: 1;" id="p-type-tokenTransfers"></path><path d="M-15.155984092539153,296.61304109257685A297,297,0,0,1,-35.40949358841339,294.881616524008L-30.6655209827082,255.37497101881203A257.2095449239783,257.2095449239783,0,0,0,-13.12546724349175,256.87442867992917Z" fill-rule="evenodd" style="fill: #F09B24; stroke: #fff; opacity: 1;" id="p-type-ether"></path><path d="M-35.40949358841339,294.881616524008A297,297,0,0,1,-49.806944551708575,292.793900678315L-43.13407926666257,253.56695606055862A257.2095449239783,257.2095449239783,0,0,0,-30.6655209827082,255.37497101881203Z" fill-rule="evenodd" style="fill: #F09B24; stroke: #fff; opacity: 1;" id="p-type-ether"></path><path d="M-49.806944551708575,292.793900678315A297,297,0,0,1,-63.72849707023036,290.0821929405003L-55.19049740782167,251.2185482719722A257.2095449239783,257.2095449239783,0,0,0,-43.13407926666257,253.56695606055862Z" fill-rule="evenodd" style="fill: #F09B24; stroke: #fff; opacity: 1;" id="p-type-ether"></path><path d="M-63.72849707023036,290.0821929405003A297,297,0,0,1,-73.9752661629875,287.6398094772612L-64.06445974886256,249.10338214702418A257.2095449239783,257.2095449239783,0,0,0,-55.19049740782167,251.2185482719722Z" fill-rule="evenodd" style="fill: #F09B24; stroke: #fff; opacity: 1;" id="p-type-ether"></path><path d="M-73.9752661629875,287.6398094772612A297,297,0,0,1,-79.06455580775234,286.28272042671875L-68.47191386844601,247.92810855405668A257.2095449239783,257.2095449239783,0,0,0,-64.06445974886256,249.10338214702418Z" fill-rule="evenodd" style="fill: #F09B24; stroke: #fff; opacity: 1;" id="p-type-ether"></path><path d="M-79.06455580775234,286.28272042671875A297,297,0,0,1,-80.69063073073099,285.8286586615779L-69.88013606020235,247.5348795305575A257.2095449239783,257.2095449239783,0,0,0,-68.47191386844601,247.92810855405668Z" fill-rule="evenodd" style="fill: #F09B24; stroke: #fff; opacity: 1;" id="p-type-ether"></path></g></svg>