<svg xmlns="http://www.w3.org/2000/svg" width="600" height="600" id="block-7914270"><g id="burst-container" transform="translate(300,300)"><data type="text/json">{"number":7914270,"totalTransactions":84,"totalFunctions":0,"totalFunctionsValue":"0","totalLogs":91,"totalTokenTransfers":91,"tokens":{"0xf7a6868ad958b724bc486e10bd3ddc8d63aa16c7":"500000000","0xc02aaa39b223fe8d0a0e5c4f27ead9083c756cc2":"0.0035275179","0x174bfa6600bf90c885c7c01c7031389ed1461ab9":"0.00470162","0xae785cbf3c9670c3e5a5dd0053dec05a4aada688":"1.47109e-13","0x168296bb09e24a88805cb9c33356536b980d3fc5":"0.00004115","0xd97e471695f73d8186deabc1ab5b8765e667cd96":"0.912232067124582068","0x818fc6c2ec5986bc6e2cbf00939d90556ab12ce5":"1000000","0xe41d2489571d322189246dafa5ebde1f4699f498":"26","0x3db6ba6ab6f95efed1a6e794cad492faaabf294d":"2.60844519006e-7","0xa0b86991c6218b36c1d19d4a2e9eb0ce3606eb48":"5.901e-11","0x1af97824a7ccd3963b9385e37ecbf44ece0c73e4":"86","0x06012c8cf97bead5deae237070f9587f8e7a266d":"7.14473e-13","0x931abd3732f7eada74190c8f89b46f8ba7103d54":"1588","0x0000000000085d4780b73119b644ae5ecd22b376":"4000.4","0x2750662b7d571302cfd6b2f2f8babcfd637d4168":"100","0xfc249b4a5ada66c25392c10b8f40ad284b6f185d":"1.67e-15","0x89d24a6b4ccb1b6faa2625fe562bdd9a23260359":"2351.967893","0x763186eb8d4856d536ed4478302971214febc6a9":"23800","0x03cb0021808442ad5efb61197966aef72a1def96":"0.11","0x06a6a7af298129e3a2ab396c9c06f91d3c54aba8":"1.48329e-13","0x5acd07353106306a6530ac4d49233271ec372963":"100","0x1d963688fe2209a98db35c67a041524822cf04ff":"2.7559e-14","0x8c124ca2bcc831b464771b3b92d1432e99eeecb7":"50","0x3d779a7fb80723c6385524d113792d119acd2267":"114.9","0xab22fd25ddbbb9c3d2c2ced0fd20e3f2bbb932bc":"8.821e-15","0x3867ef780a3afcf1201ef4f2acc6a46e3bd1eb88":"4e-17"},"totalEther":"90.11122054946026953","totalEtherTxns":27,"newContracts":["0x4355df8c330c18d5b31f360fef1255044d44bb0e"],"totalNewContracts":1}</data><circle r="297" style="fill: #f9f9f9; stroke: #f9f9f9; stroke-width: 3; opacity: 1;" id="circle-base"></circle><path display="none" d="M9.093002483669097e-15,-148.5A148.5,148.5,0,1,1,-9.093002483669097e-15,148.5A148.5,148.5,0,1,1,9.093002483669097e-15,-148.5Z" fill-rule="evenodd" id="p-type-root" style="stroke: #fff; opacity: 1;"></path><path d="M1.2859447435097075e-14,-210.0107140124046A210.0107140124046,210.0107140124046,0,1,1,-174.5909871745943,-116.71541113923492L-123.45447096520918,-82.53025868552892A148.5,148.5,0,1,0,9.093002483669097e-15,-148.5Z" fill-rule="evenodd" style="fill: #4E4E4E; stroke: #fff; opacity: 1;" id="p-type-data"></path><path d="M-174.5909871745943,-116.71541113923492A210.0107140124046,210.0107140124046,0,0,1,-5.4961663818890605,-209.938781922499L-3.886376519163287,-148.44913633144282A148.5,148.5,0,0,0,-123.45447096520918,-82.53025868552892Z" fill-rule="evenodd" style="fill: #3A86AD; stroke: #fff; opacity: 1;" id="p-type-value"></path><path d="M1.5749542295064867e-14,-257.2095449239783A257.2095449239783,257.2095449239783,0,0,1,257.02220534653105,-9.81508832388306L209.8577518879465,-8.013986057954163A210.0107140124046,210.0107140124046,0,0,0,1.2859447435097075e-14,-210.0107140124046Z" fill-rule="evenodd" style="fill: #F09B24; stroke: #fff; opacity: 1;" id="p-type-ether"></path><path d="M257.02220534653105,-9.81508832388306A257.2095449239783,257.2095449239783,0,0,1,23.343242692610097,256.14808806741837L19.05967784628227,209.14403811822112A210.0107140124046,210.0107140124046,0,0,0,209.8577518879465,-8.013986057954163Z" fill-rule="evenodd" style="fill: #184B42; stroke: #fff; opacity: 1;" id="p-type-logs"></path><path d="M23.343242692610097,256.14808806741837A257.2095449239783,257.2095449239783,0,0,1,-224.47487005960267,125.56983201280674L-183.28296390786113,102.52733850612562A210.0107140124046,210.0107140124046,0,0,0,19.05967784628227,209.14403811822112Z" fill-rule="evenodd" style="fill: #AE497E; stroke: #fff; opacity: 1;" id="p-type-tokenTransfers"></path><path d="M-213.8294161332791,-142.94660120513873A257.2095449239783,257.2095449239783,0,0,1,-101.50967215727744,-236.3314123397947L-82.88230024751141,-192.96379014126296A210.0107140124046,210.0107140124046,0,0,0,-174.5909871745943,-116.71541113923492Z" fill-rule="evenodd" style="fill: #AE497E; stroke: #fff; opacity: 1;" id="p-type-tokenTransfers"></path><path d="M-101.50967215727744,-236.3314123397947A257.2095449239783,257.2095449239783,0,0,1,-13.458191947715996,-256.8572114414903L-10.988567710779165,-209.72303492860678A210.0107140124046,210.0107140124046,0,0,0,-82.88230024751141,-192.96379014126296Z" fill-rule="evenodd" style="fill: #F09B24; stroke: #fff; opacity: 1;" id="p-type-ether"></path><path d="M1.8186004967338195e-14,-297A297,297,0,0,1,270.4940236604285,-122.64576292718601L234.25469606180013,-106.21434636146681A257.2095449239783,257.2095449239783,0,0,0,1.5749542295064867e-14,-257.2095449239783Z" fill-rule="evenodd" style="fill: #F09B24; stroke: #fff; opacity: 1;" id="p-type-ether"></path><path d="M270.4940236604285,-122.64576292718601A297,297,0,0,1,271.68476801381985,-119.98494417749627L235.28591092124987,-103.91000972936955A257.2095449239783,257.2095449239783,0,0,0,234.25469606180013,-106.21434636146681Z" fill-rule="evenodd" style="fill: #F09B24; stroke: #fff; opacity: 1;" id="p-type-ether"></path><path d="M271.68476801381985,-119.98494417749627A297,297,0,0,1,272.5953847769703,-117.90146817701427L236.07452817125014,-102.10566658477693A257.2095449239783,257.2095449239783,0,0,0,235.28591092124987,-103.91000972936955Z" fill-rule="evenodd" style="fill: #F09B24; stroke: #fff; opacity: 1;" id="p-type-ether"></path><path d="M272.5953847769703,-117.90146817701427A297,297,0,0,1,273.3610279812275,-116.1152375058785L236.73759463637177,-100.55874544655443A257.2095449239783,257.2095449239783,0,0,0,236.07452817125014,-102.10566658477693Z" fill-rule="evenodd" style="fill: #F09B24; stroke: #fff; opacity: 1;" id="p-type-ether"></path><path d="M296.78367888906195,-11.333487771827674A297,297,0,0,1,296.9065808969984,-7.448638805456903L257.1286416075801,-6.450710429140253A257.2095449239783,257.2095449239783,0,0,0,257.02220534653105,-9.81508832388306Z" fill-rule="evenodd" style="fill: #184B42; stroke: #fff; opacity: 1;" id="p-type-logs"></path><path d="M296.9065808969984,-7.448638805456903A297,297,0,0,1,296.9786330579539,-3.5625141444136554L257.1910406093652,-3.08522775040361A257.2095449239783,257.2095449239783,0,0,0,257.1286416075801,-6.450710429140253Z" fill-rule="evenodd" style="fill: #184B42; stroke: #fff; opacity: 1;" id="p-type-logs"></path><path d="M296.9786330579539,-3.5625141444136554A297,297,0,0,1,296.99982303188096,0.3242206523112034L257.2093916650915,0.28078332133306405A257.2095449239783,257.2095449239783,0,0,0,257.1910406093652,-3.08522775040361Z" fill-rule="evenodd" style="fill: #184B42; stroke: #fff; opacity: 1;" id="p-type-logs"></path><path d="M296.99982303188096,0.3242206523112034A297,297,0,0,1,296.97014718966847,4.210899921231632L257.18369163185685,3.646746304580485A257.2095449239783,257.2095449239783,0,0,0,257.2093916650915,0.28078332133306405Z" fill-rule="evenodd" style="fill: #184B42; stroke: #fff; opacity: 1;" id="p-type-logs"></path><path d="M296.97014718966847,4.210899921231632A297,297,0,0,1,296.88961061376375,8.096858008371584L257.11394491118955,7.012084726085267A257.2095449239783,257.2095449239783,0,0,0,257.18369163185685,3.646746304580485Z" fill-rule="evenodd" style="fill: #184B42; stroke: #fff; opacity: 1;" id="p-type-logs"></path><path d="M296.88961061376375,8.096858008371584A297,297,0,0,1,296.7582270973018,11.981429383268557L257.0001634482949,10.376222219559889A257.2095449239783,257.2095449239783,0,0,0,257.11394491118955,7.012084726085267Z" fill-rule="evenodd" style="fill: #184B42; stroke: #fff; opacity: 1;" id="p-type-logs"></path><path d="M296.7582270973018,11.981429383268557A297,297,0,0,1,296.57601914174313,15.863948752955974L256.8423667300095,13.73858262439434A257.2095449239783,257.2095449239783,0,0,0,257.0001634482949,10.376222219559889Z" fill-rule="evenodd" style="fill: #184B42; stroke: #fff; opacity: 1;" id="p-type-logs"></path><path d="M296.57601914174313,15.863948752955974A297,297,0,0,1,296.34301795302,19.74375117590492L256.6405817814633,17.098590084332542A257.2095449239783,257.2095449239783,0,0,0,256.8423667300095,13.73858262439434Z" fill-rule="evenodd" style="fill: #184B42; stroke: #fff; opacity: 1;" id="p-type-logs"></path><path d="M296.34301795302,19.74375117590492A297,297,0,0,1,296.05926343619205,23.620172175905637L256.3948431614517,20.455669146096643A257.2095449239783,257.2095449239783,0,0,0,256.6405817814633,17.098590084332542Z" fill-rule="evenodd" style="fill: #184B42; stroke: #fff; opacity: 1;" id="p-type-logs"></path><path d="M296.05926343619205,23.620172175905637A297,297,0,0,1,295.7248041886117,27.4925478558694L256.10519295651653,23.8092448579423A257.2095449239783,257.2095449239783,0,0,0,256.3948431614517,20.455669146096643Z" fill-rule="evenodd" style="fill: #184B42; stroke: #fff; opacity: 1;" id="p-type-logs"></path><path d="M295.7248041886117,27.4925478558694A297,297,0,0,1,295.33969749160127,31.360215011531142L255.77168077373796,27.158742868128073A257.2095449239783,257.2095449239783,0,0,0,256.10519295651653,23.8092448579423Z" fill-rule="evenodd" style="fill: #184B42; stroke: #fff; opacity: 1;" id="p-type-logs"></path><path d="M295.33969749160127,31.360215011531142A297,297,0,0,1,294.9040093006426,35.22251124503344L255.39436373223884,30.503589523282013A257.2095449239783,257.2095449239783,0,0,0,255.77168077373796,27.158742868128073Z" fill-rule="evenodd" style="fill: #184B42; stroke: #fff; opacity: 1;" id="p-type-logs"></path><path d="M294.9040093006426,35.22251124503344A297,297,0,0,1,294.4178142340812,39.078775078372416L254.97330645340207,33.84321196664873A257.2095449239783,257.2095449239783,0,0,0,255.39436373223884,30.503589523282013Z" fill-rule="evenodd" style="fill: #184B42; stroke: #fff; opacity: 1;" id="p-type-logs"></path><path d="M294.4178142340812,39.078775078372416A297,297,0,0,1,293.8811955603469,42.9283460666861L254.50858104980298,37.17703823619995A257.2095449239783,257.2095449239783,0,0,0,254.97330645340207,33.84321196664873Z" fill-rule="evenodd" style="fill: #184B42; stroke: #fff; opacity: 1;" id="p-type-logs"></path><path d="M293.8811955603469,42.9283460666861A297,297,0,0,1,293.2942451836921,46.770564911365796L254.00026711285915,40.50449736259186A257.2095449239783,257.2095449239783,0,0,0,254.50858104980298,37.17703823619995Z" fill-rule="evenodd" style="fill: #184B42; stroke: #fff; opacity: 1;" id="p-type-logs"></path><path d="M293.2942451836921,46.770564911365796A297,297,0,0,1,292.6570636284529,50.604773572971176L253.44845169919907,43.825019466952455A257.2095449239783,257.2095449239783,0,0,0,254.00026711285915,40.50449736259186Z" fill-rule="evenodd" style="fill: #184B42; stroke: #fff; opacity: 1;" id="p-type-logs"></path><path d="M292.6570636284529,50.604773572971176A297,297,0,0,1,291.96976002183163,54.43031538392976L252.8532293157524,47.13803585848211A257.2095449239783,257.2095449239783,0,0,0,253.44845169919907,43.825019466952455Z" fill-rule="evenodd" style="fill: #184B42; stroke: #fff; opacity: 1;" id="p-type-logs"></path><path d="M291.96976002183163,54.43031538392976A297,297,0,0,1,291.23245207520785,58.24653516100135L252.21470190356405,50.44297913185069A257.2095449239783,257.2095449239783,0,0,0,252.8532293157524,47.13803585848211Z" fill-rule="evenodd" style="fill: #184B42; stroke: #fff; opacity: 1;" id="p-type-logs"></path><path d="M291.23245207520785,58.24653516100135A297,297,0,0,1,290.44526606397824,62.052779317488316L251.53297882033544,53.739283264374485A257.2095449239783,257.2095449239783,0,0,0,252.21470190356405,50.44297913185069Z" fill-rule="evenodd" style="fill: #184B42; stroke: #fff; opacity: 1;" id="p-type-logs"></path><path d="M290.44526606397824,62.052779317488316A297,297,0,0,1,289.60833680592987,65.84839597517248L250.8081768216951,57.02638371295635A257.2095449239783,257.2095449239783,0,0,0,251.53297882033544,53.739283264374485Z" fill-rule="evenodd" style="fill: #184B42; stroke: #fff; opacity: 1;" id="p-type-logs"></path><path d="M289.60833680592987,65.84839597517248A297,297,0,0,1,288.72180763815066,69.63273507595925L250.04042004120245,60.30371751077245A257.2095449239783,257.2095449239783,0,0,0,250.8081768216951,57.02638371295635Z" fill-rule="evenodd" style="fill: #184B42; stroke: #fff; opacity: 1;" id="p-type-logs"></path><path d="M288.72180763815066,69.63273507595925A297,297,0,0,1,287.7858303924808,73.40514849321022L249.2298399690882,63.57072336368906A257.2095449239783,257.2095449239783,0,0,0,250.04042004120245,60.30371751077245Z" fill-rule="evenodd" style="fill: #184B42; stroke: #fff; opacity: 1;" id="p-type-logs"></path><path d="M287.7858303924808,73.40514849321022A297,297,0,0,1,286.8005653695092,77.16499014274487L248.37657542973446,66.82684174639286A257.2095449239783,257.2095449239783,0,0,0,249.2298399690882,63.57072336368906Z" fill-rule="evenodd" style="fill: #184B42; stroke: #fff; opacity: 1;" id="p-type-logs"></path><path d="M286.8005653695092,77.16499014274487A297,297,0,0,1,285.76618131111894,80.91161609349243L247.4807725578989,70.07151499821826A257.2095449239783,257.2095449239783,0,0,0,248.37657542973446,66.82684174639286Z" fill-rule="evenodd" style="fill: #184B42; stroke: #fff; opacity: 1;" id="p-type-logs"></path><path d="M285.76618131111894,80.91161609349243A297,297,0,0,1,284.6828553715886,84.6443846777751L246.54258477368697,73.30418741865553A257.2095449239783,257.2095449239783,0,0,0,247.4807725578989,70.07151499821826Z" fill-rule="evenodd" style="fill: #184B42; stroke: #fff; opacity: 1;" id="p-type-logs"></path><path d="M284.6828553715886,84.6443846777751A297,297,0,0,1,283.5507730872511,88.36265660120351L245.5621727562764,76.52430536252297A257.2095449239783,257.2095449239783,0,0,0,246.54258477368697,73.30418741865553Z" fill-rule="evenodd" style="fill: #184B42; stroke: #fff; opacity: 1;" id="p-type-logs"></path><path d="M283.5507730872511,88.36265660120351A297,297,0,0,1,282.3701283447181,92.0657950521659L244.53970441639828,79.73131733478735A257.2095449239783,257.2095449239783,0,0,0,245.5621727562764,76.52430536252297Z" fill-rule="evenodd" style="fill: #184B42; stroke: #fff; opacity: 1;" id="p-type-logs"></path><path d="M282.3701283447181,92.0657950521659A297,297,0,0,1,281.14112334767367,95.75316581089176L243.47535486757977,82.92467408501585A257.2095449239783,257.2095449239783,0,0,0,244.53970441639828,79.73131733478735Z" fill-rule="evenodd" style="fill: #184B42; stroke: #fff; opacity: 1;" id="p-type-logs"></path><path d="M281.14112334767367,95.75316581089176A297,297,0,0,1,279.86396858224396,99.42413735807203L242.36930639615326,86.10382870144382A257.2095449239783,257.2095449239783,0,0,0,243.47535486757977,82.92467408501585Z" fill-rule="evenodd" style="fill: #184B42; stroke: #fff; opacity: 1;" id="p-type-logs"></path><path d="M279.86396858224396,99.42413735807203A297,297,0,0,1,278.5388827809481,103.0780809830163L241.221748430037,89.26823670464177A257.2095449239783,257.2095449239783,0,0,0,242.36930639615326,86.10382870144382Z" fill-rule="evenodd" style="fill: #184B42; stroke: #fff; opacity: 1;" id="p-type-logs"></path><path d="M278.5388827809481,103.0780809830163A297,297,0,0,1,277.1660928852369,106.71437089132947L240.03287750629252,92.41735614076596A257.2095449239783,257.2095449239783,0,0,0,241.221748430037,89.26823670464177Z" fill-rule="evenodd" style="fill: #184B42; stroke: #fff; opacity: 1;" id="p-type-logs"></path><path d="M277.1660928852369,106.71437089132947A297,297,0,0,1,275.7458340066257,110.33238431208856L238.80289723746486,95.55064767437636A257.2095449239783,257.2095449239783,0,0,0,240.03287750629252,92.41735614076596Z" fill-rule="evenodd" style="fill: #184B42; stroke: #fff; opacity: 1;" id="p-type-logs"></path><path d="M275.7458340066257,110.33238431208856A297,297,0,0,1,274.2783493864278,113.931501604502L237.5320182767105,98.66757468080627A257.2095449239783,257.2095449239783,0,0,0,238.80289723746486,95.55064767437636Z" fill-rule="evenodd" style="fill: #184B42; stroke: #fff; opacity: 1;" id="p-type-logs"></path><path d="M274.2783493864278,113.931501604502A297,297,0,0,1,272.7638903540955,117.51110636403257L236.22045828171989,101.76760333806743A257.2095449239783,257.2095449239783,0,0,0,237.5320182767105,98.66757468080627Z" fill-rule="evenodd" style="fill: #184B42; stroke: #fff; opacity: 1;" id="p-type-logs"></path><path d="M272.7638903540955,117.51110636403257A297,297,0,0,1,271.20271628417623,121.07058552796634L234.86844187744026,104.85020271827547A257.2095449239783,257.2095449239783,0,0,0,236.22045828171989,101.76760333806743Z" fill-rule="evenodd" style="fill: #184B42; stroke: #fff; opacity: 1;" id="p-type-logs"></path><path d="M271.20271628417623,121.07058552796634A297,297,0,0,1,269.5950945518906,124.60932948040913L233.47620061760497,107.91484487857947A257.2095449239783,257.2095449239783,0,0,0,234.86844187744026,104.85020271827547Z" fill-rule="evenodd" style="fill: #184B42; stroke: #fff; opacity: 1;" id="p-type-logs"></path><path d="M269.5950945518906,124.60932948040913A297,297,0,0,1,267.9413004873403,128.1267321566925L232.0439729450765,110.96100495158025A257.2095449239783,257.2095449239783,0,0,0,233.47620061760497,107.91484487857947Z" fill-rule="evenodd" style="fill: #184B42; stroke: #fff; opacity: 1;" id="p-type-logs"></path><path d="M267.9413004873403,128.1267321566925A297,297,0,0,1,266.2416173283533,131.62219114717192L230.5720041510092,113.98816123522214A257.2095449239783,257.2095449239783,0,0,0,232.0439729450765,110.96100495158025Z" fill-rule="evenodd" style="fill: #184B42; stroke: #fff; opacity: 1;" id="p-type-logs"></path><path d="M266.2416173283533,131.62219114717192A297,297,0,0,1,264.4963361719755,135.0951078003987L229.0605463328397,116.99579528214254A257.2095449239783,257.2095449239783,0,0,0,230.5720041510092,113.98816123522214Z" fill-rule="evenodd" style="fill: #184B42; stroke: #fff; opacity: 1;" id="p-type-logs"></path><path d="M264.4963361719755,135.0951078003987A297,297,0,0,1,262.7057559246151,138.54488732564815L227.509858351111,119.98339198846399A257.2095449239783,257.2095449239783,0,0,0,229.0605463328397,116.99579528214254Z" fill-rule="evenodd" style="fill: #184B42; stroke: #fff; opacity: 1;" id="p-type-logs"></path><path d="M262.7057559246151,138.54488732564815A297,297,0,0,1,260.8701832508512,141.97093889478694L225.9202057851389,122.95043968201374A257.2095449239783,257.2095449239783,0,0,0,227.509858351111,119.98339198846399Z" fill-rule="evenodd" style="fill: #184B42; stroke: #fff; opacity: 1;" id="p-type-logs"></path><path d="M260.8701832508512,141.97093889478694A297,297,0,0,1,258.9899325209118,145.3726757434614L224.29186088752715,125.89643020995544A257.2095449239783,257.2095449239783,0,0,0,225.9202057851389,122.95043968201374Z" fill-rule="evenodd" style="fill: #184B42; stroke: #fff; opacity: 1;" id="p-type-logs"></path><path d="M258.9899325209118,145.3726757434614A297,297,0,0,1,257.06532575683366,148.74951527159004L222.62510253754013,128.8208590258183A257.2095449239783,257.2095449239783,0,0,0,224.29186088752715,125.89643020995544Z" fill-rule="evenodd" style="fill: #184B42; stroke: #fff; opacity: 1;" id="p-type-logs"></path><path d="M257.06532575683366,148.74951527159004A297,297,0,0,1,255.09669257731088,152.10087914314286L220.92021619334045,131.7232252759084A257.2095449239783,257.2095449239783,0,0,0,222.62510253754013,128.8208590258183Z" fill-rule="evenodd" style="fill: #184B42; stroke: #fff; opacity: 1;" id="p-type-logs"></path><path d="M255.09669257731088,152.10087914314286A297,297,0,0,1,253.08437014124252,155.42619338519026L219.17749384309988,134.60303188508763A257.2095449239783,257.2095449239783,0,0,0,220.92021619334045,131.7232252759084Z" fill-rule="evenodd" style="fill: #184B42; stroke: #fff; opacity: 1;" id="p-type-logs"></path><path d="M253.08437014124252,155.42619338519026A297,297,0,0,1,251.02870308998897,158.7248884862049L217.39723395499166,137.4597856419056A257.2095449239783,257.2095449239783,0,0,0,219.17749384309988,134.60303188508763Z" fill-rule="evenodd" style="fill: #184B42; stroke: #fff; opacity: 1;" id="p-type-logs"></path><path d="M251.02870308998897,158.7248884862049A297,297,0,0,1,248.93004348834677,161.99639949359926L215.57974142607338,140.29299728306952A257.2095449239783,257.2095449239783,0,0,0,217.39723395499166,137.4597856419056Z" fill-rule="evenodd" style="fill: #184B42; stroke: #fff; opacity: 1;" id="p-type-logs"></path><path d="M248.93004348834677,161.99639949359926A297,297,0,0,1,246.7887507642521,165.24016611048256L213.72532753006863,143.10218157723835A257.2095449239783,257.2095449239783,0,0,0,215.57974142607338,140.29299728306952Z" fill-rule="evenodd" style="fill: #184B42; stroke: #fff; opacity: 1;" id="p-type-logs"></path><path d="M246.7887507642521,165.24016611048256A297,297,0,0,1,244.60519164722317,168.45563279162033L211.83430986405645,145.88685740812613A257.2095449239783,257.2095449239783,0,0,0,213.72532753006863,143.10218157723835Z" fill-rule="evenodd" style="fill: #184B42; stroke: #fff; opacity: 1;" id="p-type-logs"></path><path d="M244.60519164722317,168.45563279162033A297,297,0,0,1,242.3797401055521,171.64224883858003L209.90701229407804,148.64654785690038A257.2095449239783,257.2095449239783,0,0,0,211.83430986405645,145.88685740812613Z" fill-rule="evenodd" style="fill: #184B42; stroke: #fff; opacity: 1;" id="p-type-logs"></path><path d="M242.3797401055521,171.64224883858003A297,297,0,0,1,240.112777282257,174.79946849404675L207.94376489966962,151.3807802838621A257.2095449239783,257.2095449239783,0,0,0,209.90701229407804,148.64654785690038Z" fill-rule="evenodd" style="fill: #184B42; stroke: #fff; opacity: 1;" id="p-type-logs"></path><path d="M240.112777282257,174.79946849404675A297,297,0,0,1,237.80469142980553,177.92675103529254L205.94490391733117,154.0890864093925A257.2095449239783,257.2095449239783,0,0,0,207.94376489966962,151.3807802838621Z" fill-rule="evenodd" style="fill: #184B42; stroke: #fff; opacity: 1;" id="p-type-logs"></path><path d="M237.80469142980553,177.92675103529254A297,297,0,0,1,235.4558778436204,181.02356086678358L203.91077168294083,156.7710023941532A257.2095449239783,257.2095449239783,0,0,0,205.94490391733117,154.0890864093925Z" fill-rule="evenodd" style="fill: #184B42; stroke: #fff; opacity: 1;" id="p-type-logs"></path><path d="M235.4558778436204,181.02356086678358A297,297,0,0,1,233.06673879437912,184.0893676119092L201.84171657312447,159.42606891852566A257.2095449239783,257.2095449239783,0,0,0,203.91077168294083,156.7710023941532Z" fill-rule="evenodd" style="fill: #184B42; stroke: #fff; opacity: 1;" id="p-type-logs"></path><path d="M233.06673879437912,184.0893676119092A297,297,0,0,1,230.63768345911876,187.12364620381715L199.7380929455909,162.0538312612772A257.2095449239783,257.2095449239783,0,0,0,201.84171657312447,159.42606891852566Z" fill-rule="evenodd" style="fill: #184B42; stroke: #fff; opacity: 1;" id="p-type-logs"></path><path d="M230.63768345911876,187.12364620381715A297,297,0,0,1,228.16912785115824,190.1258769753392L197.60026107844251,164.65383937743863A257.2095449239783,257.2095449239783,0,0,0,199.7380929455909,162.0538312612772Z" fill-rule="evenodd" style="fill: #184B42; stroke: #fff; opacity: 1;" id="p-type-logs"></path><path d="M228.16912785115824,190.1258769753392A297,297,0,0,1,225.66149474884932,193.09554574799245L195.42858710847221,167.22564797538172A257.2095449239783,257.2095449239783,0,0,0,197.60026107844251,164.65383937743863Z" fill-rule="evenodd" style="fill: #184B42; stroke: #fff; opacity: 1;" id="p-type-logs"></path><path d="M225.66149474884932,193.09554574799245A297,297,0,0,1,223.11521362316964,196.03214392004028L193.22344296845677,169.76881659308208A257.2095449239783,257.2095449239783,0,0,0,195.42858710847221,167.22564797538172Z" fill-rule="evenodd" style="fill: #184B42; stroke: #fff; opacity: 1;" id="p-type-logs"></path><path d="M26.95445490467441,295.7743351962639A297,297,0,0,1,23.081477112408294,296.10174841481324L19.98914553621467,256.43163623221693A257.2095449239783,257.2095449239783,0,0,0,23.343242692610097,256.14808806741837Z" fill-rule="evenodd" style="fill: #AE497E; stroke: #fff; opacity: 1;" id="p-type-tokenTransfers"></path><path d="M23.081477112408294,296.10174841481324A297,297,0,0,1,19.20454625997183,296.37844962640014L16.631624929289035,256.67126651070913A257.2095449239783,257.2095449239783,0,0,0,19.98914553621467,256.43163623221693Z" fill-rule="evenodd" style="fill: #AE497E; stroke: #fff; opacity: 1;" id="p-type-tokenTransfers"></path><path d="M19.20454625997183,296.37844962640014A297,297,0,0,1,15.324326331773868,296.6043914416597L13.271255899198971,256.86693786250106A257.2095449239783,257.2095449239783,0,0,0,16.631624929289035,256.67126651070913Z" fill-rule="evenodd" style="fill: #AE497E; stroke: #fff; opacity: 1;" id="p-type-tokenTransfers"></path><path d="M15.324326331773868,296.6043914416597A297,297,0,0,1,11.441481875528396,296.77953516455943L9.908613961146816,257.0186167758456A257.2095449239783,257.2095449239783,0,0,0,13.271255899198971,256.86693786250106Z" fill-rule="evenodd" style="fill: #AE497E; stroke: #fff; opacity: 1;" id="p-type-tokenTransfers"></path><path d="M11.441481875528396,296.77953516455943A297,297,0,0,1,7.556677888440436,296.90385079902615L6.544275019605568,257.12627727338133A257.2095449239783,257.2095449239783,0,0,0,9.908613961146816,257.0186167758456Z" fill-rule="evenodd" style="fill: #AE497E; stroke: #fff; opacity: 1;" id="p-type-tokenTransfers"></path><path d="M7.556677888440436,296.90385079902615A297,297,0,0,1,3.6705797033149987,296.97731705408347L3.178815269686337,257.1899009165819A257.2095449239783,257.2095449239783,0,0,0,6.544275019605568,257.12627727338133Z" fill-rule="evenodd" style="fill: #AE497E; stroke: #fff; opacity: 1;" id="p-type-tokenTransfers"></path><path d="M3.6705797033149987,296.97731705408347A297,297,0,0,1,-0.21614712539146258,296.9999213474983L-0.18718890154398707,257.20947680891373A257.2095449239783,257.2095449239783,0,0,0,3.178815269686337,257.1899009165819Z" fill-rule="evenodd" style="fill: #AE497E; stroke: #fff; opacity: 1;" id="p-type-tokenTransfers"></path><path d="M-0.21614712539146258,296.9999213474983A297,297,0,0,1,-4.102836935557552,296.97165980793557L-3.5531610137779386,257.18500159770235A257.2095449239783,257.2095449239783,0,0,0,-0.18718890154398707,257.20947680891373Z" fill-rule="evenodd" style="fill: #AE497E; stroke: #fff; opacity: 1;" id="p-type-tokenTransfers"></path><path d="M-4.102836935557552,296.97165980793557A297,297,0,0,1,-7.988824071401873,296.8925372756213L-6.91852459219865,257.11647947470647A257.2095449239783,257.2095449239783,0,0,0,-3.5531610137779386,257.18500159770235Z" fill-rule="evenodd" style="fill: #AE497E; stroke: #fff; opacity: 1;" id="p-type-tokenTransfers"></path><path d="M-7.988824071401873,296.8925372756213A297,297,0,0,1,-11.873442997486878,296.7625673015137L-10.28270326621009,257.0039221754A257.2095449239783,257.2095449239783,0,0,0,-6.91852459219865,257.11647947470647Z" fill-rule="evenodd" style="fill: #AE497E; stroke: #fff; opacity: 1;" id="p-type-tokenTransfers"></path><path d="M-11.873442997486878,296.7625673015137A297,297,0,0,1,-15.756028412702122,296.58177214498215L-13.645120868149442,256.84734897696256A257.2095449239783,257.2095449239783,0,0,0,-10.28270326621009,257.0039221754Z" fill-rule="evenodd" style="fill: #AE497E; stroke: #fff; opacity: 1;" id="p-type-tokenTransfers"></path><path d="M-15.756028412702122,296.58177214498215A297,297,0,0,1,-19.63591536420736,296.3501827699954L-17.00520153196474,256.6467866949775A257.2095449239783,257.2095449239783,0,0,0,-13.645120868149442,256.84734897696256Z" fill-rule="evenodd" style="fill: #AE497E; stroke: #fff; opacity: 1;" id="p-type-tokenTransfers"></path><path d="M-19.63591536420736,296.3501827699954A297,297,0,0,1,-23.512439361316027,296.06783883981797L-20.36236979184084,256.4022696788395A257.2095449239783,257.2095449239783,0,0,0,-17.00520153196474,256.6467866949775Z" fill-rule="evenodd" style="fill: #AE497E; stroke: #fff; opacity: 1;" id="p-type-tokenTransfers"></path><path d="M-23.512439361316027,296.06783883981797A297,297,0,0,1,-27.384936489299534,295.7347887102176L-23.716050680756837,256.1138398058718A257.2095449239783,257.2095449239783,0,0,0,-20.36236979184084,256.4022696788395Z" fill-rule="evenodd" style="fill: #AE497E; stroke: #fff; opacity: 1;" id="p-type-tokenTransfers"></path><path d="M-27.384936489299534,295.7347887102176A297,297,0,0,1,-31.25274352309296,295.35108942118325L-27.06566982895808,255.78154647415406A257.2095449239783,257.2095449239783,0,0,0,-23.716050680756837,256.1138398058718Z" fill-rule="evenodd" style="fill: #AE497E; stroke: #fff; opacity: 1;" id="p-type-tokenTransfers"></path><path d="M-31.25274352309296,295.35108942118325A297,297,0,0,1,-35.115198040882596,294.91680668715645L-30.41065356232588,255.4054465940619A257.2095449239783,257.2095449239783,0,0,0,-27.06566982895808,255.78154647415406Z" fill-rule="evenodd" style="fill: #AE497E; stroke: #fff; opacity: 1;" id="p-type-tokenTransfers"></path><path d="M-35.115198040882596,294.91680668715645A297,297,0,0,1,-38.97163853755594,294.4320148857764L-33.750429000628074,254.9856045785204A257.2095449239783,257.2095449239783,0,0,0,-30.41065356232588,255.4054465940619Z" fill-rule="evenodd" style="fill: #AE497E; stroke: #fff; opacity: 1;" id="p-type-tokenTransfers"></path><path d="M-38.97163853755594,294.4320148857764A297,297,0,0,1,-42.82140453799467,293.896797045142L-37.08442415563363,254.52209233197235A257.2095449239783,257.2095449239783,0,0,0,-33.750429000628074,254.9856045785204Z" fill-rule="evenodd" style="fill: #AE497E; stroke: #fff; opacity: 1;" id="p-type-tokenTransfers"></path><path d="M-42.82140453799467,293.896797045142A297,297,0,0,1,-46.66383671019125,293.31124482959154L-40.41206802907449,254.01498923806338A257.2095449239783,257.2095449239783,0,0,0,-37.08442415563363,254.52209233197235Z" fill-rule="evenodd" style="fill: #AE497E; stroke: #fff; opacity: 1;" id="p-type-tokenTransfers"></path><path d="M-46.66383671019125,293.31124482959154A297,297,0,0,1,-50.49827697816972,292.6754585240041L-43.732790710437854,253.4643821460464A257.2095449239783,257.2095449239783,0,0,0,-40.41206802907449,254.01498923806338Z" fill-rule="evenodd" style="fill: #AE497E; stroke: #fff; opacity: 1;" id="p-type-tokenTransfers"></path><path d="M-50.49827697816972,292.6754585240041A297,297,0,0,1,-54.32406863469142,291.9895470166241L-47.046023474572195,252.8703653559072A257.2095449239783,257.2095449239783,0,0,0,-43.732790710437854,253.4643821460464Z" fill-rule="evenodd" style="fill: #AE497E; stroke: #fff; opacity: 1;" id="p-type-tokenTransfers"></path><path d="M-54.32406863469142,291.9895470166241A297,297,0,0,1,-58.14055645372623,291.2536277804125L-50.351198879090205,252.23304060221432A257.2095449239783,257.2095449239783,0,0,0,-47.046023474572195,252.8703653559072Z" fill-rule="evenodd" style="fill: #AE497E; stroke: #fff; opacity: 1;" id="p-type-tokenTransfers"></path><path d="M-58.14055645372623,291.2536277804125A297,297,0,0,1,-61.947086802670206,290.4678268529278L-53.64775086155214,251.5525170366952A257.2095449239783,257.2095449239783,0,0,0,-50.351198879090205,252.23304060221432Z" fill-rule="evenodd" style="fill: #AE497E; stroke: #fff; opacity: 1;" id="p-type-tokenTransfers"></path><path d="M-61.947086802670206,290.4678268529278A297,297,0,0,1,-65.74300775429025,289.63227881474006L-56.935114836412694,250.82891120954238A257.2095449239783,257.2095449239783,0,0,0,-53.64775086155214,251.5525170366952Z" fill-rule="evenodd" style="fill: #AE497E; stroke: #fff; opacity: 1;" id="p-type-tokenTransfers"></path><path d="M-65.74300775429025,289.63227881474006A297,297,0,0,1,-69.52766919837676,288.747126766382L-60.2127277917151,250.06234704945248A257.2095449239783,257.2095449239783,0,0,0,-56.935114836412694,250.82891120954238Z" fill-rule="evenodd" style="fill: #AE497E; stroke: #fff; opacity: 1;" id="p-type-tokenTransfers"></path><path d="M-69.52766919837676,288.747126766382A297,297,0,0,1,-73.30042295308502,287.81252230384075L-63.480028385515595,249.25295584240146A257.2095449239783,257.2095449239783,0,0,0,-60.2127277917151,250.06234704945248Z" fill-rule="evenodd" style="fill: #AE497E; stroke: #fff; opacity: 1;" id="p-type-tokenTransfers"></path><path d="M-73.30042295308502,287.81252230384075A297,297,0,0,1,-77.06062287594646,286.8286254925947L-66.7364570420219,248.4008762091599A257.2095449239783,257.2095449239783,0,0,0,-63.480028385515595,249.25295584240146Z" fill-rule="evenodd" style="fill: #AE497E; stroke: #fff; opacity: 1;" id="p-type-tokenTransfers"></path><path d="M-77.06062287594646,286.8286254925947A297,297,0,0,1,-80.80762497453047,285.7956048401998L-69.98145604742925,247.5062540815519A257.2095449239783,257.2095449239783,0,0,0,-66.7364570420219,248.4008762091599Z" fill-rule="evenodd" style="fill: #AE497E; stroke: #fff; opacity: 1;" id="p-type-tokenTransfers"></path><path d="M-80.80762497453047,285.7956048401998A297,297,0,0,1,-84.54078751673809,284.71363726743004L-73.21446964543755,246.56924267746234A257.2095449239783,257.2095449239783,0,0,0,-69.98145604742925,247.5062540815519Z" fill-rule="evenodd" style="fill: #AE497E; stroke: #fff; opacity: 1;" id="p-type-tokenTransfers"></path><path d="M-84.54078751673809,284.71363726743004A297,297,0,0,1,-88.25947114070861,283.5829080779771L-76.43494413243319,245.59000247459548A257.2095449239783,257.2095449239783,0,0,0,-73.21446964543755,246.56924267746234Z" fill-rule="evenodd" style="fill: #AE497E; stroke: #fff; opacity: 1;" id="p-type-tokenTransfers"></path><path d="M-88.25947114070861,283.5829080779771A297,297,0,0,1,-91.9630389643201,282.4036109267141L-79.64232795231939,244.56870118299113A257.2095449239783,257.2095449239783,0,0,0,-76.43494413243319,245.59000247459548Z" fill-rule="evenodd" style="fill: #AE497E; stroke: #fff; opacity: 1;" id="p-type-tokenTransfers"></path><path d="M-91.9630389643201,282.4036109267141A297,297,0,0,1,-95.65085669426543,281.1759477865294L-82.83607179097869,243.50551371630135A257.2095449239783,257.2095449239783,0,0,0,-79.64232795231939,244.56870118299113Z" fill-rule="evenodd" style="fill: #AE497E; stroke: #fff; opacity: 1;" id="p-type-tokenTransfers"></path><path d="M-95.65085669426543,281.1759477865294A297,297,0,0,1,-99.32229273468471,279.9001289137352L-86.01562867035155,242.40062216183398A257.2095449239783,257.2095449239783,0,0,0,-82.83607179097869,243.50551371630135Z" fill-rule="evenodd" style="fill: #AE497E; stroke: #fff; opacity: 1;" id="p-type-tokenTransfers"></path><path d="M-99.32229273468471,279.9001289137352A297,297,0,0,1,-102.97671829533594,278.57637281205854L-89.1804540421147,241.25421574936732A257.2095449239783,257.2095449239783,0,0,0,-86.01562867035155,242.40062216183398Z" fill-rule="evenodd" style="fill: #AE497E; stroke: #fff; opacity: 1;" id="p-type-tokenTransfers"></path><path d="M-102.97671829533594,278.57637281205854A297,297,0,0,1,-106.61350749928505,277.20490619521854L-92.33000588094362,240.06649081874156A257.2095449239783,257.2095449239783,0,0,0,-89.1804540421147,241.25421574936732Z" fill-rule="evenodd" style="fill: #AE497E; stroke: #fff; opacity: 1;" id="p-type-tokenTransfers"></path><path d="M-106.61350749928505,277.20490619521854A297,297,0,0,1,-110.23203749009697,275.78596394809847L-95.46374477734261,238.83765078623262A257.2095449239783,257.2095449239783,0,0,0,-92.33000588094362,240.06649081874156Z" fill-rule="evenodd" style="fill: #AE497E; stroke: #fff; opacity: 1;" id="p-type-tokenTransfers"></path><path d="M-110.23203749009697,275.78596394809847A297,297,0,0,1,-113.83168853850947,274.3197890865181L-98.58113403002712,237.56790610971387A257.2095449239783,257.2095449239783,0,0,0,-95.46374477734261,238.83765078623262Z" fill-rule="evenodd" style="fill: #AE497E; stroke: #fff; opacity: 1;" id="p-type-tokenTransfers"></path><path d="M-113.83168853850947,274.3197890865181A297,297,0,0,1,-117.41184414857139,272.8066327156134L-101.68163973784212,236.25747425261213A257.2095449239783,257.2095449239783,0,0,0,-98.58113403002712,237.56790610971387Z" fill-rule="evenodd" style="fill: #AE497E; stroke: #fff; opacity: 1;" id="p-type-tokenTransfers"></path><path d="M-117.41184414857139,272.8066327156134A297,297,0,0,1,-120.97189116322711,271.24675398683087L-104.76473089120093,234.9065796466635A257.2095449239783,257.2095449239783,0,0,0,-101.68163973784212,236.25747425261213Z" fill-rule="evenodd" style="fill: #AE497E; stroke: #fff; opacity: 1;" id="p-type-tokenTransfers"></path><path d="M-120.97189116322711,271.24675398683087A297,297,0,0,1,-124.51121986932917,269.64042005354383L-107.82987946302882,233.515453653476A257.2095449239783,257.2095449239783,0,0,0,-104.76473089120093,234.9065796466635Z" fill-rule="evenodd" style="fill: #AE497E; stroke: #fff; opacity: 1;" id="p-type-tokenTransfers"></path><path d="M-124.51121986932917,269.64042005354383A297,297,0,0,1,-128.02922410206108,267.9879060252985L-110.87656049919583,232.08433452490533A257.2095449239783,257.2095449239783,0,0,0,-107.82987946302882,233.515453653476Z" fill-rule="evenodd" style="fill: #AE497E; stroke: #fff; opacity: 1;" id="p-type-tokenTransfers"></path><path d="M-128.02922410206108,267.9879060252985A297,297,0,0,1,-131.5253013487525,266.2894949206969L-113.90425220842334,230.61346736225076A257.2095449239783,257.2095449239783,0,0,0,-110.87656049919583,232.08433452490533Z" fill-rule="evenodd" style="fill: #AE497E; stroke: #fff; opacity: 1;" id="p-type-tokenTransfers"></path><path d="M-131.5253013487525,266.2894949206969A297,297,0,0,1,-134.99885285206867,264.5454776189257L-116.91243605164878,229.1031040742773A257.2095449239783,257.2095449239783,0,0,0,-113.90425220842334,230.61346736225076Z" fill-rule="evenodd" style="fill: #AE497E; stroke: #fff; opacity: 1;" id="p-type-tokenTransfers"></path><path d="M-134.99885285206867,264.5454776189257A297,297,0,0,1,-138.44928371255713,262.7561528099387L-119.90059683083359,227.55350333407284A257.2095449239783,257.2095449239783,0,0,0,-116.91243605164878,229.1031040742773Z" fill-rule="evenodd" style="fill: #AE497E; stroke: #fff; opacity: 1;" id="p-type-tokenTransfers"></path></g></svg>