<svg xmlns="http://www.w3.org/2000/svg" width="600" height="600" id="block-7914292"><g id="burst-container" transform="translate(300,300)"><data type="text/json">{"number":7914292,"totalTransactions":104,"totalFunctions":0,"totalFunctionsValue":"0","totalLogs":144,"totalTokenTransfers":144,"tokens":{"0xad22f63404f7305e4713ccbd4f296f34770513f4":"3.20455648223e-7","0x174bfa6600bf90c885c7c01c7031389ed1461ab9":"0.62598063","0x89d24a6b4ccb1b6faa2625fe562bdd9a23260359":"2462.152029363","0x0d8775f648430679a709e98d2b0cb6250d2887ef":"200","0xb3104b4b9da82025e8b9f8fb28b3553ce2f67069":"5400","0x9a07fd8a116b7e3be9e6185861496af7a2041460":"0.229867238216086076","0x1f573d6fb3f13d689ff844b4ce37794d79a7ff1c":"10.641547166404588794","0xc0829421c1d260bd3cb3e0f06cfe2d52db2ce315":"0.029780507195423044","0xc02aaa39b223fe8d0a0e5c4f27ead9083c756cc2":"0.0035275179","0x0000000000085d4780b73119b644ae5ecd22b376":"531.023","0x9f8f72aa9304c8b593d555f12ef6589cc3a579a2":"12.4","0xed314bf44013612e8c00abd3cb6eade61cc8c72e":"7000","0xe019070ca3ee26f0fed7ced235a69992014c3181":"0","0x55370c60fca4929867f8e0e59acfc6198bdca274":"1.014394485829125993","0x693d04b55963b62ef2bb7f8f28b03b25023286ce":"0.010246408947768949","0x58b6a8a3302369daec383334672404ee733ab239":"2651.994775148701930039","0xab22fd25ddbbb9c3d2c2ced0fd20e3f2bbb932bc":"8.821e-15","0x06012c8cf97bead5deae237070f9587f8e7a266d":"6.52762e-13","0x5acd07353106306a6530ac4d49233271ec372963":"100"},"totalEther":"12.40900360975050733","totalEtherTxns":52,"newContracts":[],"totalNewContracts":0}</data><circle r="297" style="fill: #f9f9f9; stroke: #f9f9f9; stroke-width: 3; opacity: 1;" id="circle-base"></circle><path display="none" d="M9.093002483669097e-15,-148.5A148.5,148.5,0,1,1,-9.093002483669097e-15,148.5A148.5,148.5,0,1,1,9.093002483669097e-15,-148.5Z" fill-rule="evenodd" id="p-type-root" style="stroke: #fff; opacity: 1;"></path><path d="M1.2859447435097075e-14,-210.0107140124046A210.0107140124046,210.0107140124046,0,1,1,-204.00935322822684,-49.84660264652511L-144.2563970931609,-35.24687075046921A148.5,148.5,0,1,0,9.093002483669097e-15,-148.5Z" fill-rule="evenodd" style="fill: #4E4E4E; stroke: #fff; opacity: 1;" id="p-type-data"></path><path d="M-204.00935322822684,-49.84660264652511A210.0107140124046,210.0107140124046,0,0,1,-5.884643302801368,-209.92825196528167L-4.161071184274849,-148.44169052728884A148.5,148.5,0,0,0,-144.2563970931609,-35.24687075046921Z" fill-rule="evenodd" style="fill: #3A86AD; stroke: #fff; opacity: 1;" id="p-type-value"></path><path d="M1.5749542295064867e-14,-257.2095449239783A257.2095449239783,257.2095449239783,0,0,1,256.26985693582935,-21.966119959828116L209.24346198294216,-17.935261843447933A210.0107140124046,210.0107140124046,0,0,0,1.2859447435097075e-14,-210.0107140124046Z" fill-rule="evenodd" style="fill: #184B42; stroke: #fff; opacity: 1;" id="p-type-logs"></path><path d="M256.26985693582935,-21.966119959828116A257.2095449239783,257.2095449239783,0,0,1,134.29546414994405,219.36608285865682L109.65178731253131,179.11165662560154A210.0107140124046,210.0107140124046,0,0,0,209.24346198294216,-17.935261843447933Z" fill-rule="evenodd" style="fill: #AE497E; stroke: #fff; opacity: 1;" id="p-type-tokenTransfers"></path><path d="M134.29546414994405,219.36608285865682A257.2095449239783,257.2095449239783,0,0,1,-88.96203793374607,241.33484167578192L-72.63719980526633,197.04907308701A210.0107140124046,210.0107140124046,0,0,0,109.65178731253131,179.11165662560154Z" fill-rule="evenodd" style="fill: #F09B24; stroke: #fff; opacity: 1;" id="p-type-ether"></path><path d="M-249.85940908218598,-61.049370947626045A257.2095449239783,257.2095449239783,0,0,1,-145.76667260999275,-211.91702894343152L-119.01798979927028,-173.02952957267377A210.0107140124046,210.0107140124046,0,0,0,-204.00935322822684,-49.84660264652511Z" fill-rule="evenodd" style="fill: #F09B24; stroke: #fff; opacity: 1;" id="p-type-ether"></path><path d="M-145.76667260999275,-211.91702894343152A257.2095449239783,257.2095449239783,0,0,1,-14.408713514439139,-256.8056443594237L-11.764665320106676,-209.68093058241104A210.0107140124046,210.0107140124046,0,0,0,-119.01798979927028,-173.02952957267377Z" fill-rule="evenodd" style="fill: #AE497E; stroke: #fff; opacity: 1;" id="p-type-tokenTransfers"></path><path d="M1.8186004967338195e-14,-297A297,297,0,0,1,4.161479712219059,-296.9708438325298L3.60394714811526,-257.18429494227206A257.2095449239783,257.2095449239783,0,0,0,1.5749542295064867e-14,-257.2095449239783Z" fill-rule="evenodd" style="fill: #184B42; stroke: #fff; opacity: 1;" id="p-type-logs"></path><path d="M4.161479712219059,-296.9708438325298A297,297,0,0,1,8.322142368549795,-296.8833810545777L7.20718670507492,-257.10854995468003A257.2095449239783,257.2095449239783,0,0,0,3.60394714811526,-257.18429494227206Z" fill-rule="evenodd" style="fill: #184B42; stroke: #fff; opacity: 1;" id="p-type-logs"></path><path d="M8.322142368549795,-296.8833810545777A297,297,0,0,1,12.481171073522896,-296.73762883839566L10.809011218650323,-256.9823248328085A257.2095449239783,257.2095449239783,0,0,0,7.20718670507492,-257.10854995468003Z" fill-rule="evenodd" style="fill: #184B42; stroke: #fff; opacity: 1;" id="p-type-logs"></path><path d="M12.481171073522896,-296.73762883839566A297,297,0,0,1,16.637749252475498,-296.5336158006572L14.408713514439336,-256.8056443594237A257.2095449239783,257.2095449239783,0,0,0,10.809011218650323,-256.9823248328085Z" fill-rule="evenodd" style="fill: #184B42; stroke: #fff; opacity: 1;" id="p-type-logs"></path><path d="M16.637749252475498,-296.5336158006572A297,297,0,0,1,20.791060811875692,-296.271381996839L18.005586834711465,-256.57854322358617A257.2095449239783,257.2095449239783,0,0,0,14.408713514439336,-256.8056443594237Z" fill-rule="evenodd" style="fill: #184B42; stroke: #fff; opacity: 1;" id="p-type-logs"></path><path d="M20.791060811875692,-296.271381996839A297,297,0,0,1,24.940290299552558,-295.9509789133566L21.598924977171123,-256.30106601383955A257.2095449239783,257.2095449239783,0,0,0,18.005586834711465,-256.57854322358617Z" fill-rule="evenodd" style="fill: #184B42; stroke: #fff; opacity: 1;" id="p-type-logs"></path><path d="M24.940290299552558,-295.9509789133566A297,297,0,0,1,29.084623064800258,-295.57246945745555L25.18802243361184,-255.9732672094566A257.2095449239783,257.2095449239783,0,0,0,21.598924977171123,-256.30106601383955Z" fill-rule="evenodd" style="fill: #184B42; stroke: #fff; opacity: 1;" id="p-type-logs"></path><path d="M29.084623064800258,-295.57246945745555A297,297,0,0,1,33.22324541832483,-295.13592794486027L28.772174528434263,-255.5952111697426A257.2095449239783,257.2095449239783,0,0,0,25.18802243361184,-255.9732672094566Z" fill-rule="evenodd" style="fill: #184B42; stroke: #fff; opacity: 1;" id="p-type-logs"></path><path d="M33.22324541832483,-295.13592794486027A297,297,0,0,1,37.35534479200212,-294.64144008518326L32.350677557000566,-255.16697212139934A257.2095449239783,257.2095449239783,0,0,0,28.772174528434263,-255.5952111697426Z" fill-rule="evenodd" style="fill: #184B42; stroke: #fff; opacity: 1;" id="p-type-logs"></path><path d="M37.35534479200212,-294.64144008518326A297,297,0,0,1,41.48010989841569,-294.08910296509686L35.92282892379834,-254.6886341439514A257.2095449239783,257.2095449239783,0,0,0,32.350677557000566,-255.16697212139934Z" fill-rule="evenodd" style="fill: #184B42; stroke: #fff; opacity: 1;" id="p-type-logs"></path><path d="M41.48010989841569,-294.08910296509686A297,297,0,0,1,45.59673089014318,-293.47902502927167L39.487927280386636,-254.16029115323838A257.2095449239783,257.2095449239783,0,0,0,35.92282892379834,-254.6886341439514Z" fill-rule="evenodd" style="fill: #184B42; stroke: #fff; opacity: 1;" id="p-type-logs"></path><path d="M45.59673089014318,-293.47902502927167A297,297,0,0,1,49.704399518760056,-292.8113260590845L43.045272663097236,-253.58204688297556A257.2095449239783,257.2095449239783,0,0,0,39.487927280386636,-254.16029115323838Z" fill-rule="evenodd" style="fill: #184B42; stroke: #fff; opacity: 1;" id="p-type-logs"></path><path d="M49.704399518760056,-292.8113260590845A297,297,0,0,1,53.80230929352928,-292.086137149101L46.594166630463945,-252.9540148643871A257.2095449239783,257.2095449239783,0,0,0,43.045272663097236,-253.58204688297556Z" fill-rule="evenodd" style="fill: #184B42; stroke: #fff; opacity: 1;" id="p-type-logs"></path><path d="M53.80230929352928,-292.086137149101A297,297,0,0,1,57.889655639745996,-291.3036006813366L50.13391240035313,-252.27631840391544A257.2095449239783,257.2095449239783,0,0,0,46.594166630463945,-252.9540148643871Z" fill-rule="evenodd" style="fill: #184B42; stroke: #fff; opacity: 1;" id="p-type-logs"></path><path d="M57.889655639745996,-291.3036006813366A297,297,0,0,1,61.96563605670597,-290.463870297302L53.66381498676836,-251.54909055901174A257.2095449239783,257.2095449239783,0,0,0,50.13391240035313,-252.27631840391544Z" fill-rule="evenodd" style="fill: #184B42; stroke: #fff; opacity: 1;" id="p-type-logs"></path><path d="M61.96563605670597,-290.463870297302A297,297,0,0,1,66.02945027526683,-289.56711086783673L57.183181336302475,-250.77247411201165A257.2095449239783,257.2095449239783,0,0,0,53.66381498676836,-251.54909055901174Z" fill-rule="evenodd" style="fill: #184B42; stroke: #fff; opacity: 1;" id="p-type-logs"></path><path d="M66.02945027526683,-289.56711086783673A297,297,0,0,1,70.08030041497118,-288.61349846073966L60.69132046421018,-249.94662154210155A257.2095449239783,257.2095449239783,0,0,0,57.183181336302475,-250.77247411201165Z" fill-rule="evenodd" style="fill: #184B42; stroke: #fff; opacity: 1;" id="p-type-logs"></path><path d="M70.08030041497118,-288.61349846073966A297,297,0,0,1,74.11739114070069,-287.6032203061996L64.1875435900745,-249.07169499538136A257.2095449239783,257.2095449239783,0,0,0,60.69132046421018,-249.94662154210155Z" fill-rule="evenodd" style="fill: #184B42; stroke: #fff; opacity: 1;" id="p-type-logs"></path><path d="M74.11739114070069,-287.6032203061996A297,297,0,0,1,78.13992981883052,-286.5364747600351L67.6711642730404,-248.14786625302904A257.2095449239783,257.2095449239783,0,0,0,64.1875435900745,-249.07169499538136Z" fill-rule="evenodd" style="fill: #184B42; stroke: #fff; opacity: 1;" id="p-type-logs"></path><path d="M78.13992981883052,-286.5364747600351A297,297,0,0,1,82.14712667285322,-285.4134712647499L71.14149854658913,-247.1753166975733A257.2095449239783,257.2095449239783,0,0,0,67.6711642730404,-248.14786625302904Z" fill-rule="evenodd" style="fill: #184B42; stroke: #fff; opacity: 1;" id="p-type-logs"></path><path d="M82.14712667285322,-285.4134712647499A297,297,0,0,1,86.13819493844177,-284.2344303084111L74.59786505282672,-246.15423727728162A257.2095449239783,257.2095449239783,0,0,0,71.14149854658913,-247.1753166975733Z" fill-rule="evenodd" style="fill: #184B42; stroke: #fff; opacity: 1;" id="p-type-logs"></path><path d="M86.13819493844177,-284.2344303084111A297,297,0,0,1,90.11235101792116,-282.99958338135934L78.03958517626025,-245.08482846866966A257.2095449239783,257.2095449239783,0,0,0,74.59786505282672,-246.15423727728162Z" fill-rule="evenodd" style="fill: #184B42; stroke: #fff; opacity: 1;" id="p-type-logs"></path><path d="M90.11235101792116,-282.99958338135934A297,297,0,0,1,94.06881463411831,-281.7091729307583L81.46598317703582,-243.96730023714022A257.2095449239783,257.2095449239783,0,0,0,78.03958517626025,-245.08482846866966Z" fill-rule="evenodd" style="fill: #184B42; stroke: #fff; opacity: 1;" id="p-type-logs"></path><path d="M94.06881463411831,-281.7091729307583A297,297,0,0,1,98.00680898355992,-280.36345231299316L84.87638632361183,-242.80187199575914A257.2095449239783,257.2095449239783,0,0,0,81.46598317703582,-243.96730023714022Z" fill-rule="evenodd" style="fill: #184B42; stroke: #fff; opacity: 1;" id="p-type-logs"></path><path d="M98.00680898355992,-280.36345231299316A297,297,0,0,1,101.92556088898843,-278.96268574392724L88.27012502484159,-241.58877256217608A257.2095449239783,257.2095449239783,0,0,0,84.87638632361183,-242.80187199575914Z" fill-rule="evenodd" style="fill: #184B42; stroke: #fff; opacity: 1;" id="p-type-logs"></path><path d="M101.92556088898843,-278.96268574392724A297,297,0,0,1,105.82430095116591,-277.50714824702635L91.64653296143942,-240.32824011369908A257.2095449239783,257.2095449239783,0,0,0,88.27012502484159,-241.58877256217608Z" fill-rule="evenodd" style="fill: #184B42; stroke: #fff; opacity: 1;" id="p-type-logs"></path><path d="M105.82430095116591,-277.50714824702635A297,297,0,0,1,109.70226369993632,-275.99712559936137L95.00494721680433,-239.02052214053134A257.2095449239783,257.2095449239783,0,0,0,91.64653296143942,-240.32824011369908Z" fill-rule="evenodd" style="fill: #184B42; stroke: #fff; opacity: 1;" id="p-type-logs"></path><path d="M109.70226369993632,-275.99712559936137A297,297,0,0,1,113.55868774451616,-274.4329142754992L98.3447084071756,-237.66587539717943A257.2095449239783,257.2095449239783,0,0,0,95.00494721680433,-239.02052214053134Z" fill-rule="evenodd" style="fill: #184B42; stroke: #fff; opacity: 1;" id="p-type-logs"></path><path d="M113.55868774451616,-274.4329142754992A297,297,0,0,1,117.39281592298438,-272.81482138929385L101.66516081109484,-236.26456585204272A257.2095449239783,257.2095449239783,0,0,0,98.3447084071756,-237.66587539717943Z" fill-rule="evenodd" style="fill: #184B42; stroke: #fff; opacity: 1;" id="p-type-logs"></path><path d="M117.39281592298438,-272.81482138929385A297,297,0,0,1,121.20389545094181,-271.1431646335883L104.96565249814877,-234.81686863519383A257.2095449239783,257.2095449239783,0,0,0,101.66516081109484,-236.26456585204272Z" fill-rule="evenodd" style="fill: #184B42; stroke: #fff; opacity: 1;" id="p-type-logs"></path><path d="M121.20389545094181,-271.1431646335883A297,297,0,0,1,124.99117806931127,-269.4182722178392L108.24553545696797,-233.32306798436002A257.2095449239783,257.2095449239783,0,0,0,104.96565249814877,-234.81686863519383Z" fill-rule="evenodd" style="fill: #184B42; stroke: #fff; opacity: 1;" id="p-type-logs"></path><path d="M124.99117806931127,-269.4182722178392A297,297,0,0,1,128.75392019124916,-267.64048280367723L111.50416572245597,-231.78345718911666A257.2095449239783,257.2095449239783,0,0,0,108.24553545696797,-233.32306798436002Z" fill-rule="evenodd" style="fill: #184B42; stroke: #fff; opacity: 1;" id="p-type-logs"></path><path d="M128.75392019124916,-267.64048280367723A297,297,0,0,1,132.49138304813965,-265.8101454384146L114.74090350222387,-230.19833853330337A257.2095449239783,257.2095449239783,0,0,0,111.50416572245597,-231.78345718911666Z" fill-rule="evenodd" style="fill: #184B42; stroke: #fff; opacity: 1;" id="p-type-logs"></path><path d="M132.49138304813965,-265.8101454384146A297,297,0,0,1,136.2028328346428,-263.9276194865144L117.95511330220594,-228.56802323567433A257.2095449239783,257.2095449239783,0,0,0,114.74090350222387,-230.19833853330337Z" fill-rule="evenodd" style="fill: #184B42; stroke: #fff; opacity: 1;" id="p-type-logs"></path><path d="M136.2028328346428,-263.9276194865144A297,297,0,0,1,139.88754085276858,-261.9932745590333L121.14616405143107,-226.89283138879412A257.2095449239783,257.2095449239783,0,0,0,117.95511330220594,-228.56802323567433Z" fill-rule="evenodd" style="fill: #184B42; stroke: #fff; opacity: 1;" id="p-type-logs"></path><path d="M139.88754085276858,-261.9932745590333A297,297,0,0,1,143.54478365494754,-260.0074904410531L124.31342922592583,-225.17309189619158A257.2095449239783,257.2095449239783,0,0,0,121.14616405143107,-226.89283138879412Z" fill-rule="evenodd" style="fill: #184B42; stroke: #fff; opacity: 1;" id="p-type-logs"></path><path d="M143.54478365494754,-260.0074904410531A297,297,0,0,1,147.17384318607117,-257.97065701711455L127.45628697172495,-223.40914240778355A257.2095449239783,257.2095449239783,0,0,0,124.31342922592583,-225.17309189619158Z" fill-rule="evenodd" style="fill: #184B42; stroke: #fff; opacity: 1;" id="p-type-logs"></path><path d="M147.17384318607117,-257.97065701711455A297,297,0,0,1,150.77400692447304,-255.8831741946683L130.57412022696454,-221.60132925358147A257.2095449239783,257.2095449239783,0,0,0,127.45628697172495,-223.40914240778355Z" fill-rule="evenodd" style="fill: #184B42; stroke: #fff; opacity: 1;" id="p-type-logs"></path><path d="M150.77400692447304,-255.8831741946683A297,297,0,0,1,154.3445680218242,-253.74545182555784L133.66631684303505,-219.75000737569354A257.2095449239783,257.2095449239783,0,0,0,130.57412022696454,-221.60132925358147Z" fill-rule="evenodd" style="fill: #184B42; stroke: #fff; opacity: 1;" id="p-type-logs"></path><path d="M154.3445680218242,-253.74545182555784A297,297,0,0,1,157.88482544191353,-251.55790962555022L136.73226970476878,-217.85554025863647A257.2095449239783,257.2095449239783,0,0,0,133.66631684303505,-219.75000737569354Z" fill-rule="evenodd" style="fill: #184B42; stroke: #fff; opacity: 1;" id="p-type-logs"></path><path d="M157.88482544191353,-251.55790962555022A297,297,0,0,1,161.39408409828854,-249.32097709192976L139.77137684963998,-215.91829985796926A257.2095449239783,257.2095449239783,0,0,0,136.73226970476878,-217.85554025863647Z" fill-rule="evenodd" style="fill: #184B42; stroke: #fff; opacity: 1;" id="p-type-logs"></path><path d="M161.39408409828854,-249.32097709192976A297,297,0,0,1,164.8716549907263,-247.03509341917177L142.78304158595242,-213.93866652726476A257.2095449239783,257.2095449239783,0,0,0,139.77137684963998,-215.91829985796926Z" fill-rule="evenodd" style="fill: #184B42; stroke: #fff; opacity: 1;" id="p-type-logs"></path><path d="M164.8716549907263,-247.03509341917177A297,297,0,0,1,168.3168553405109,-244.7007074127117L145.7666726099929,-211.91702894343143A257.2095449239783,257.2095449239783,0,0,0,142.78304158595242,-213.93866652726476Z" fill-rule="evenodd" style="fill: #184B42; stroke: #fff; opacity: 1;" id="p-type-logs"></path><path d="M168.3168553405109,-244.7007074127117A297,297,0,0,1,171.72900872448824,-242.318277400828L148.72168412212633,-209.8537840304017A257.2095449239783,257.2095449239783,0,0,0,145.7666726099929,-211.91702894343143Z" fill-rule="evenodd" style="fill: #184B42; stroke: #fff; opacity: 1;" id="p-type-logs"></path><path d="M171.72900872448824,-242.318277400828A297,297,0,0,1,175.10744520787392,-239.88827114465482L151.6474959418105,-207.7493368812006A257.2095449239783,257.2095449239783,0,0,0,148.72168412212633,-209.8537840304017Z" fill-rule="evenodd" style="fill: #184B42; stroke: #fff; opacity: 1;" id="p-type-logs"></path><path d="M175.10744520787392,-239.88827114465482A297,297,0,0,1,178.45150147578644,-237.41116574634268L154.5435336215073,-205.60410067841073A257.2095449239783,257.2095449239783,0,0,0,151.6474959418105,-207.7493368812006Z" fill-rule="evenodd" style="fill: #184B42; stroke: #fff; opacity: 1;" id="p-type-logs"></path><path d="M178.45150147578644,-237.41116574634268A297,297,0,0,1,181.76052096348116,-234.8874475553854L157.4092285594687,-203.4184966130488A257.2095449239783,257.2095449239783,0,0,0,154.5435336215073,-205.60410067841073Z" fill-rule="evenodd" style="fill: #184B42; stroke: #fff; opacity: 1;" id="p-type-logs"></path><path d="M181.76052096348116,-234.8874475553854A297,297,0,0,1,185.03385398525882,-232.31761207313127L160.24401811137463,-201.1929538018701A257.2095449239783,257.2095449239783,0,0,0,157.4092285594687,-203.4184966130488Z" fill-rule="evenodd" style="fill: #184B42; stroke: #fff; opacity: 1;" id="p-type-logs"></path><path d="M185.03385398525882,-232.31761207313127A297,297,0,0,1,188.27085786202332,-229.7021638554975L163.0473457008014,-198.9279092031165A257.2095449239783,257.2095449239783,0,0,0,160.24401811137463,-201.1929538018701Z" fill-rule="evenodd" style="fill: #184B42; stroke: #fff; opacity: 1;" id="p-type-logs"></path><path d="M188.27085786202332,-229.7021638554975A297,297,0,0,1,191.47089704746398,-227.04161641390647L165.81866092849867,-196.62380753072497A257.2095449239783,257.2095449239783,0,0,0,163.0473457008014,-198.9279092031165Z" fill-rule="evenodd" style="fill: #184B42; stroke: #fff; opacity: 1;" id="p-type-logs"></path><path d="M191.47089704746398,-227.04161641390647A297,297,0,0,1,194.6333432528374,-224.33649211446445L168.55741968045376,-194.28110116701362A257.2095449239783,257.2095449239783,0,0,0,165.81866092849867,-196.62380753072497Z" fill-rule="evenodd" style="fill: #184B42; stroke: #fff; opacity: 1;" id="p-type-logs"></path><path d="M194.6333432528374,-224.33649211446445A297,297,0,0,1,197.75757557032415,-221.58732207540112L171.26308423472162,-191.9002500738617A257.2095449239783,257.2095449239783,0,0,0,168.55741968045376,-194.28110116701362Z" fill-rule="evenodd" style="fill: #184B42; stroke: #fff; opacity: 1;" id="p-type-logs"></path><path d="M197.75757557032415,-221.58732207540112A297,297,0,0,1,200.84298059493656,-218.7946460627909L173.93512336700013,-189.48172170240184A257.2095449239783,257.2095449239783,0,0,0,171.26308423472162,-191.9002500738617Z" fill-rule="evenodd" style="fill: #184B42; stroke: #fff; opacity: 1;" id="p-type-logs"></path><path d="M295.91494177417593,-25.36429054371675A297,297,0,0,1,296.50947358743406,-17.062592795432565L256.78473658946893,-14.77663881527394A257.2095449239783,257.2095449239783,0,0,0,256.26985693582935,-21.966119959828116Z" fill-rule="evenodd" style="fill: #AE497E; stroke: #fff; opacity: 1;" id="p-type-tokenTransfers"></path><path d="M296.50947358743406,-17.062592795432565A297,297,0,0,1,296.71944178234185,-12.9063111838909L256.96657438024585,-11.177193354396733A257.2095449239783,257.2095449239783,0,0,0,256.78473658946893,-14.77663881527394Z" fill-rule="evenodd" style="fill: #AE497E; stroke: #fff; opacity: 1;" id="p-type-tokenTransfers"></path><path d="M296.71944178234185,-12.9063111838909A297,297,0,0,1,296.8711527265004,-8.747495575242837L257.09795991191925,-7.575553387652269A257.2095449239783,257.2095449239783,0,0,0,256.96657438024585,-11.177193354396733Z" fill-rule="evenodd" style="fill: #AE497E; stroke: #fff; opacity: 1;" id="p-type-tokenTransfers"></path><path d="M296.8711527265004,-8.747495575242837A297,297,0,0,1,296.9645766333123,-4.586962502312371L257.1788673885391,-3.9724260532091504A257.2095449239783,257.2095449239783,0,0,0,257.09795991191925,-7.575553387652269Z" fill-rule="evenodd" style="fill: #AE497E; stroke: #fff; opacity: 1;" id="p-type-tokenTransfers"></path><path d="M296.9645766333123,-4.586962502312371A297,297,0,0,1,296.99969516013056,-0.4255288351267063L257.20928092490726,-0.36851878126252763A257.2095449239783,257.2095449239783,0,0,0,257.1788673885391,-3.9724260532091504Z" fill-rule="evenodd" style="fill: #AE497E; stroke: #fff; opacity: 1;" id="p-type-tokenTransfers"></path><path d="M296.99969516013056,-0.4255288351267063A297,297,0,0,1,296.97650141186006,3.735988379466234L257.189194549696,3.235460844861216A257.2095449239783,257.2095449239783,0,0,0,257.20928092490726,-0.36851878126252763Z" fill-rule="evenodd" style="fill: #AE497E; stroke: #fff; opacity: 1;" id="p-type-tokenTransfers"></path><path d="M296.97650141186006,3.735988379466234A297,297,0,0,1,296.8949999423108,7.896772078215009L257.11861220662064,6.838805227629834A257.2095449239783,257.2095449239783,0,0,0,257.189194549696,3.235460844861216Z" fill-rule="evenodd" style="fill: #AE497E; stroke: #fff; opacity: 1;" id="p-type-tokenTransfers"></path><path d="M296.8949999423108,7.896772078215009A297,297,0,0,1,296.7552067533044,12.056005341885086L256.997547753665,10.440806894233381A257.2095449239783,257.2095449239783,0,0,0,257.11861220662064,6.838805227629834Z" fill-rule="evenodd" style="fill: #AE497E; stroke: #fff; opacity: 1;" id="p-type-tokenTransfers"></path><path d="M296.7552067533044,12.056005341885086A297,297,0,0,1,296.55714929153197,16.212871555650988L256.826024960361,14.040758635487888A257.2095449239783,257.2095449239783,0,0,0,256.997547753665,10.440806894233381Z" fill-rule="evenodd" style="fill: #AE497E; stroke: #fff; opacity: 1;" id="p-type-tokenTransfers"></path><path d="M296.55714929153197,16.212871555650988A297,297,0,0,1,296.3008664431653,20.36655456942868L256.6040775031213,17.637953644687276A257.2095449239783,257.2095449239783,0,0,0,256.826024960361,14.040758635487888Z" fill-rule="evenodd" style="fill: #AE497E; stroke: #fff; opacity: 1;" id="p-type-tokenTransfers"></path><path d="M296.3008664431653,20.36655456942868A297,297,0,0,1,295.9864085262223,24.516238858116687L256.3317489586275,21.23168565637625A257.2095449239783,257.2095449239783,0,0,0,256.6040775031213,17.637953644687276Z" fill-rule="evenodd" style="fill: #AE497E; stroke: #fff; opacity: 1;" id="p-type-tokenTransfers"></path><path d="M295.9864085262223,24.516238858116687A297,297,0,0,1,295.6138372806874,28.661109681714542L256.0090927952747,24.82124908501692A257.2095449239783,257.2095449239783,0,0,0,256.3317489586275,21.23168565637625Z" fill-rule="evenodd" style="fill: #AE497E; stroke: #fff; opacity: 1;" id="p-type-tokenTransfers"></path><path d="M295.6138372806874,28.661109681714542A297,297,0,0,1,295.1832258563897,32.80035324528706L255.63617236267305,28.405939163521953A257.2095449239783,257.2095449239783,0,0,0,256.0090927952747,24.82124908501692Z" fill-rule="evenodd" style="fill: #AE497E; stroke: #fff; opacity: 1;" id="p-type-tokenTransfers"></path><path d="M295.1832258563897,32.80035324528706A297,297,0,0,1,294.69465879864106,36.933156858743075L255.21306087921053,31.985052081626982A257.2095449239783,257.2095449239783,0,0,0,255.63617236267305,28.405939163521953Z" fill-rule="evenodd" style="fill: #AE497E; stroke: #fff; opacity: 1;" id="p-type-tokenTransfers"></path><path d="M294.69465879864106,36.933156858743075A297,297,0,0,1,294.14823203163644,41.05870909639721L254.7398414176767,35.5578851240752A257.2095449239783,257.2095449239783,0,0,0,255.21306087921053,31.985052081626982Z" fill-rule="evenodd" style="fill: #AE497E; stroke: #fff; opacity: 1;" id="p-type-tokenTransfers"></path><path d="M294.14823203163644,41.05870909639721A297,297,0,0,1,293.54405283962046,45.1761999562835L254.2166068889529,39.12373680858696A257.2095449239783,257.2095449239783,0,0,0,254.7398414176767,35.5578851240752Z" fill-rule="evenodd" style="fill: #AE497E; stroke: #fff; opacity: 1;" id="p-type-tokenTransfers"></path><path d="M293.54405283962046,45.1761999562835A297,297,0,0,1,292.8822398458235,49.284821019189366L253.6434600237701,42.68190702358726A257.2095449239783,257.2095449239783,0,0,0,254.2166068889529,39.12373680858696Z" fill-rule="evenodd" style="fill: #AE497E; stroke: #fff; opacity: 1;" id="p-type-tokenTransfers"></path><path d="M292.8822398458235,49.284821019189366A297,297,0,0,1,292.16292298917125,53.3837656073789L253.0205133525389,46.23169716566414A257.2095449239783,257.2095449239783,0,0,0,253.6434600237701,42.68190702358726Z" fill-rule="evenodd" style="fill: #AE497E; stroke: #fff; opacity: 1;" id="p-type-tokenTransfers"></path><path d="M292.16292298917125,53.3837656073789A297,297,0,0,1,291.38624349877324,57.47222894297422L252.34788918325586,49.77241027673095A257.2095449239783,257.2095449239783,0,0,0,253.0205133525389,46.23169716566414Z" fill-rule="evenodd" style="fill: #AE497E; stroke: #fff; opacity: 1;" id="p-type-tokenTransfers"></path><path d="M291.38624349877324,57.47222894297422A297,297,0,0,1,290.5523538661935,61.54940830596383L251.62571957748938,53.303351180865604A257.2095449239783,257.2095449239783,0,0,0,252.34788918325586,49.77241027673095Z" fill-rule="evenodd" style="fill: #AE497E; stroke: #fff; opacity: 1;" id="p-type-tokenTransfers"></path><path d="M290.5523538661935,61.54940830596383A297,297,0,0,1,289.6614178155116,65.61450319180689L250.8541463244514,56.8238266207999A257.2095449239783,257.2095449239783,0,0,0,251.62571957748938,53.303351180865604Z" fill-rule="evenodd" style="fill: #AE497E; stroke: #fff; opacity: 1;" id="p-type-tokenTransfers"></path><path d="M289.6614178155116,65.61450319180689A297,297,0,0,1,288.7136102711765,69.66671546860258L250.03332091315866,60.333145394032144A257.2095449239783,257.2095449239783,0,0,0,250.8541463244514,56.8238266207999Z" fill-rule="evenodd" style="fill: #AE497E; stroke: #fff; opacity: 1;" id="p-type-tokenTransfers"></path><path d="M288.7136102711765,69.66671546860258A297,297,0,0,1,287.7091173236629,73.70524953379353L249.16340450268962,63.83061848853635A257.2095449239783,257.2095449239783,0,0,0,250.03332091315866,60.333145394032144Z" fill-rule="evenodd" style="fill: #AE497E; stroke: #fff; opacity: 1;" id="p-type-tokenTransfers"></path><path d="M287.7091173236629,73.70524953379353A297,297,0,0,1,286.64813619293454,77.72931247037276L248.2445678905429,67.31555921804137A257.2095449239783,257.2095449239783,0,0,0,249.16340450268962,63.83061848853635Z" fill-rule="evenodd" style="fill: #AE497E; stroke: #fff; opacity: 1;" id="p-type-tokenTransfers"></path><path d="M286.64813619293454,77.72931247037276A297,297,0,0,1,285.5308751897222,81.7381142025632L247.27699147910337,70.78728335685335A257.2095449239783,257.2095449239783,0,0,0,248.2445678905429,67.31555921804137Z" fill-rule="evenodd" style="fill: #AE497E; stroke: #fff; opacity: 1;" id="p-type-tokenTransfers"></path><path d="M285.5308751897222,81.7381142025632A297,297,0,0,1,284.35755367462474,85.73086765093959L246.26086524022207,74.24510927419522A257.2095449239783,257.2095449239783,0,0,0,247.27699147910337,70.78728335685335Z" fill-rule="evenodd" style="fill: #AE497E; stroke: #fff; opacity: 1;" id="p-type-tokenTransfers"></path><path d="M284.35755367462474,85.73086765093959A297,297,0,0,1,283.12840201503997,89.70678888696177L245.19638867791784,77.68835806803646A257.2095449239783,257.2095449239783,0,0,0,246.26086524022207,74.24510927419522Z" fill-rule="evenodd" style="fill: #AE497E; stroke: #fff; opacity: 1;" id="p-type-tokenTransfers"></path><path d="M283.12840201503997,89.70678888696177A297,297,0,0,1,281.8436615399351,93.66509728688966L244.083770789207,81.11635369838734A257.2095449239783,257.2095449239783,0,0,0,245.19638867791784,77.68835806803646Z" fill-rule="evenodd" style="fill: #AE497E; stroke: #fff; opacity: 1;" id="p-type-tokenTransfers"></path><path d="M281.8436615399351,93.66509728688966A297,297,0,0,1,280.50358449246477,97.60501568504911L242.92323002306918,84.52842312003112A257.2095449239783,257.2095449239783,0,0,0,244.083770789207,81.11635369838734Z" fill-rule="evenodd" style="fill: #AE497E; stroke: #fff; opacity: 1;" id="p-type-tokenTransfers"></path><path d="M280.50358449246477,97.60501568504911A297,297,0,0,1,279.10843398044585,101.52577052641902L241.714994237558,87.9238964146683A257.2095449239783,257.2095449239783,0,0,0,242.92323002306918,84.52842312003112Z" fill-rule="evenodd" style="fill: #AE497E; stroke: #fff; opacity: 1;" id="p-type-tokenTransfers"></path><path d="M279.10843398044585,101.52577052641902A297,297,0,0,1,277.6584839246998,105.4265920185094L240.4593006550632,91.30210692244688A257.2095449239783,257.2095449239783,0,0,0,241.714994237558,87.9238964146683Z" fill-rule="evenodd" style="fill: #AE497E; stroke: #fff; opacity: 1;" id="p-type-tokenTransfers"></path><path d="M277.6584839246998,105.4265920185094A297,297,0,0,1,276.1540190052713,109.30671428250075L239.15639581573564,94.66239137285298A257.2095449239783,257.2095449239783,0,0,0,240.4593006550632,91.30210692244688Z" fill-rule="evenodd" style="fill: #AE497E; stroke: #fff; opacity: 1;" id="p-type-tokenTransfers"></path><path d="M276.1540190052713,109.30671428250075A297,297,0,0,1,274.59533460553513,113.16537550361504L237.8065355290816,98.00409001493584A257.2095449239783,257.2095449239783,0,0,0,239.15639581573564,94.66239137285298Z" fill-rule="evenodd" style="fill: #AE497E; stroke: #fff; opacity: 1;" id="p-type-tokenTransfers"></path><path d="M274.59533460553513,113.16537550361504A297,297,0,0,1,272.98273675420097,117.00181808068885L236.40998482373803,101.326546746842A257.2095449239783,257.2095449239783,0,0,0,237.8065355290816,98.00409001493584Z" fill-rule="evenodd" style="fill: #AE497E; stroke: #fff; opacity: 1;" id="p-type-tokenTransfers"></path><path d="M272.98273675420097,117.00181808068885A297,297,0,0,1,271.31654206522853,120.81528877491901L234.96701789543718,104.6291092446328A257.2095449239783,257.2095449239783,0,0,0,236.40998482373803,101.326546746842Z" fill-rule="evenodd" style="fill: #AE497E; stroke: #fff; opacity: 1;" id="p-type-tokenTransfers"></path><path d="M271.31654206522853,120.81528877491901A297,297,0,0,1,269.5970776756642,124.60503885775196L233.47791805317178,107.91112909036032A257.2095449239783,257.2095449239783,0,0,0,234.96701789543718,104.6291092446328Z" fill-rule="evenodd" style="fill: #AE497E; stroke: #fff; opacity: 1;" id="p-type-tokenTransfers"></path><path d="M269.5970776756642,124.60503885775196A297,297,0,0,1,267.8246811814117,128.37032425788755L231.9429776635706,111.17196189937637A257.2095449239783,257.2095449239783,0,0,0,233.47791805317178,107.91112909036032Z" fill-rule="evenodd" style="fill: #AE497E; stroke: #fff; opacity: 1;" id="p-type-tokenTransfers"></path><path d="M267.8246811814117,128.37032425788755A297,297,0,0,1,265.99970057094913,132.1104057073681L230.36249809349601,114.41096744684947A257.2095449239783,257.2095449239783,0,0,0,231.9429776635706,111.17196189937637Z" fill-rule="evenodd" style="fill: #AE497E; stroke: #fff; opacity: 1;" id="p-type-tokenTransfers"></path><path d="M265.99970057094913,132.1104057073681A297,297,0,0,1,264.122494157006,135.82454888672498L228.73678965087416,117.62750979346524A257.2095449239783,257.2095449239783,0,0,0,230.36249809349601,114.41096744684947Z" fill-rule="evenodd" style="fill: #AE497E; stroke: #fff; opacity: 1;" id="p-type-tokenTransfers"></path><path d="M155.07104475583188,253.30213397903853A297,297,0,0,1,136.95856116554845,263.5362451797906L118.60959323512984,228.22908314366302A257.2095449239783,257.2095449239783,0,0,0,134.29546414994405,219.36608285865682Z" fill-rule="evenodd" style="fill: #F09B24; stroke: #fff; opacity: 1;" id="p-type-ether"></path><path d="M136.95856116554845,263.5362451797906A297,297,0,0,1,129.4360485179603,267.31125929159106L112.09490618202877,231.49834126412694A257.2095449239783,257.2095449239783,0,0,0,118.60959323512984,228.22908314366302Z" fill-rule="evenodd" style="fill: #F09B24; stroke: #fff; opacity: 1;" id="p-type-ether"></path><path d="M129.4360485179603,267.31125929159106A297,297,0,0,1,121.8949810027457,270.83318409371526L105.56415014219932,234.548417612985A257.2095449239783,257.2095449239783,0,0,0,112.09490618202877,231.49834126412694Z" fill-rule="evenodd" style="fill: #F09B24; stroke: #fff; opacity: 1;" id="p-type-ether"></path><path d="M121.8949810027457,270.83318409371526A297,297,0,0,1,118.07505336972616,272.5202410312605L102.25599577138625,236.00945177852992A257.2095449239783,257.2095449239783,0,0,0,105.56415014219932,234.548417612985Z" fill-rule="evenodd" style="fill: #F09B24; stroke: #fff; opacity: 1;" id="p-type-ether"></path></g></svg>