<svg xmlns="http://www.w3.org/2000/svg" width="600" height="600" id="block-7914253"><g id="burst-container" transform="translate(300,300)"><data type="text/json">{"number":7914253,"totalTransactions":130,"totalFunctions":0,"totalFunctionsValue":"0","totalLogs":112,"totalTokenTransfers":112,"tokens":{"0xdac17f958d2ee523a2206206994597c13d831ec7":"1.87692e-7","0xb98d4c97425d9908e66e53a6fdf673acca0be986":"2017","0x9f8f72aa9304c8b593d555f12ef6589cc3a579a2":"10","0x174bfa6600bf90c885c7c01c7031389ed1461ab9":"25.53950365","0xae785cbf3c9670c3e5a5dd0053dec05a4aada688":"1.65498e-13","0xe0b7927c4af23765cb51314a0e0521a9645f0e2a":"8.604906e-9","0xb64ef51c888972c908cfacf59b47c1afbc0ab8ac":"3.6724150633e-8","0x1c95b093d6c236d3ef7c796fe33f9cc6b8606714":"2e-18","0x8e766f57f7d16ca50b4a0b90b88f6468a09b0439":"203.3372","0x57ab1e02fee23774580c119740129eac7081e9d3":"3221.77273877","0x818fc6c2ec5986bc6e2cbf00939d90556ab12ce5":"180000","0xc3884e677e0a3953072a7fc63e158e98313bf97b":"9900","0xc02aaa39b223fe8d0a0e5c4f27ead9083c756cc2":"16.4","0x1af97824a7ccd3963b9385e37ecbf44ece0c73e4":"47","0xa0b86991c6218b36c1d19d4a2e9eb0ce3606eb48":"3.25e-10","0x2260fac5e5542a773aa44fbcfedf7c193bc2c599":"4.007421e-12","0x55370c60fca4929867f8e0e59acfc6198bdca274":"0.01","0xe019070ca3ee26f0fed7ced235a69992014c3181":"2.003482242946072937","0xed314bf44013612e8c00abd3cb6eade61cc8c72e":"7037.453526091511730968","0x693d04b55963b62ef2bb7f8f28b03b25023286ce":"0.01","0x06012c8cf97bead5deae237070f9587f8e7a266d":"7.93085e-13","0xf5b0a3efb8e8e4c201e2a935f110eaaf3ffecb8d":"6.7016e-14"},"totalEther":"40.129635771263478617","totalEtherTxns":74,"newContracts":[],"totalNewContracts":0}</data><circle r="297" style="fill: #f9f9f9; stroke: #f9f9f9; stroke-width: 3; opacity: 1;" id="circle-base"></circle><path display="none" d="M9.093002483669097e-15,-148.5A148.5,148.5,0,1,1,-9.093002483669097e-15,148.5A148.5,148.5,0,1,1,9.093002483669097e-15,-148.5Z" fill-rule="evenodd" id="p-type-root" style="stroke: #fff; opacity: 1;"></path><path d="M1.2859447435097075e-14,-210.0107140124046A210.0107140124046,210.0107140124046,0,1,1,-199.90724593040176,-64.35520976985364L-141.35576920571395,-45.50600523294627A148.5,148.5,0,1,0,9.093002483669097e-15,-148.5Z" fill-rule="evenodd" style="fill: #4E4E4E; stroke: #fff; opacity: 1;" id="p-type-data"></path><path d="M-199.90724593040176,-64.35520976985364A210.0107140124046,210.0107140124046,0,0,1,-4.722397327767709,-209.95761230181367L-3.3392391739217784,-148.46245142034854A148.5,148.5,0,0,0,-141.35576920571395,-45.50600523294627Z" fill-rule="evenodd" style="fill: #3A86AD; stroke: #fff; opacity: 1;" id="p-type-value"></path><path d="M1.5749542295064867e-14,-257.2095449239783A257.2095449239783,257.2095449239783,0,0,1,246.6523946119827,-72.93384832966638L201.39083687832013,-59.55023779507393A210.0107140124046,210.0107140124046,0,0,0,1.2859447435097075e-14,-210.0107140124046Z" fill-rule="evenodd" style="fill: #F09B24; stroke: #fff; opacity: 1;" id="p-type-ether"></path><path d="M246.6523946119827,-72.93384832966638A257.2095449239783,257.2095449239783,0,0,1,158.99994308472677,202.1775657659713L129.8229098963824,165.07729118820603A210.0107140124046,210.0107140124046,0,0,0,201.39083687832013,-59.55023779507393Z" fill-rule="evenodd" style="fill: #184B42; stroke: #fff; opacity: 1;" id="p-type-logs"></path><path d="M158.99994308472677,202.1775657659713A257.2095449239783,257.2095449239783,0,0,1,-104.9977073222137,234.80253716065073L-85.73026903383754,191.71546878482664A210.0107140124046,210.0107140124046,0,0,0,129.8229098963824,165.07729118820603Z" fill-rule="evenodd" style="fill: #AE497E; stroke: #fff; opacity: 1;" id="p-type-tokenTransfers"></path><path d="M-244.8353742072767,-78.81871311295815A257.2095449239783,257.2095449239783,0,0,1,-106.58653615453329,-234.0855833035823L-87.02754234310589,-191.13007841184734A210.0107140124046,210.0107140124046,0,0,0,-199.90724593040176,-64.35520976985364Z" fill-rule="evenodd" style="fill: #F09B24; stroke: #fff; opacity: 1;" id="p-type-ether"></path><path d="M-106.58653615453329,-234.0855833035823A257.2095449239783,257.2095449239783,0,0,1,-11.564538954862588,-256.94943362218464L-9.4424065166508,-209.79833402382943A210.0107140124046,210.0107140124046,0,0,0,-87.02754234310589,-191.13007841184734Z" fill-rule="evenodd" style="fill: #AE497E; stroke: #fff; opacity: 1;" id="p-type-tokenTransfers"></path><path d="M1.8186004967338195e-14,-297A297,297,0,0,1,100.38280235568013,-279.52154298232625L86.93405694309138,-242.0727571277184A257.2095449239783,257.2095449239783,0,0,0,1.5749542295064867e-14,-257.2095449239783Z" fill-rule="evenodd" style="fill: #F09B24; stroke: #fff; opacity: 1;" id="p-type-ether"></path><path d="M100.38280235568013,-279.52154298232625A297,297,0,0,1,103.88904745873457,-278.2374270620629L89.97055427423132,-240.96068011936637A257.2095449239783,257.2095449239783,0,0,0,86.93405694309138,-242.0727571277184Z" fill-rule="evenodd" style="fill: #F09B24; stroke: #fff; opacity: 1;" id="p-type-ether"></path><path d="M103.88904745873457,-278.2374270620629A297,297,0,0,1,107.01096512978047,-277.0517160062231L92.67421428588062,-239.93382422346102A257.2095449239783,257.2095449239783,0,0,0,89.97055427423132,-240.96068011936637Z" fill-rule="evenodd" style="fill: #F09B24; stroke: #fff; opacity: 1;" id="p-type-ether"></path><path d="M284.809652850988,-84.21675393233643A297,297,0,0,1,285.738576737571,-81.00904742056433L247.45686629594576,-70.15589300258696A257.2095449239783,257.2095449239783,0,0,0,246.6523946119827,-72.93384832966638Z" fill-rule="evenodd" style="fill: #184B42; stroke: #fff; opacity: 1;" id="p-type-logs"></path><path d="M285.738576737571,-81.00904742056433A297,297,0,0,1,286.6313746415322,-77.79109891951401L248.23005196122165,-67.36906785260733A257.2095449239783,257.2095449239783,0,0,0,247.45686629594576,-70.15589300258696Z" fill-rule="evenodd" style="fill: #184B42; stroke: #fff; opacity: 1;" id="p-type-logs"></path><path d="M286.6313746415322,-77.79109891951401A297,297,0,0,1,287.4879336862627,-74.56331527502668L248.9718538537996,-64.57372521856139A257.2095449239783,257.2095449239783,0,0,0,248.23005196122165,-67.36906785260733Z" fill-rule="evenodd" style="fill: #184B42; stroke: #fff; opacity: 1;" id="p-type-logs"></path><path d="M287.4879336862627,-74.56331527502668A297,297,0,0,1,288.3081455768395,-71.32610457640264L249.68217818752512,-61.770218516150194A257.2095449239783,257.2095449239783,0,0,0,248.9718538537996,-64.57372521856139Z" fill-rule="evenodd" style="fill: #184B42; stroke: #fff; opacity: 1;" id="p-type-logs"></path><path d="M288.3081455768395,-71.32610457640264A297,297,0,0,1,289.09190661371724,-68.07987610480643L250.3609351559577,-58.95890219325955A257.2095449239783,257.2095449239783,0,0,0,249.68217818752512,-61.770218516150194Z" fill-rule="evenodd" style="fill: #184B42; stroke: #fff; opacity: 1;" id="p-type-logs"></path><path d="M289.09190661371724,-68.07987610480643A297,297,0,0,1,289.8391177058389,-64.82504028152134L251.00803894372459,-56.140131685147026A257.2095449239783,257.2095449239783,0,0,0,250.3609351559577,-58.95890219325955Z" fill-rule="evenodd" style="fill: #184B42; stroke: #fff; opacity: 1;" id="p-type-logs"></path><path d="M289.8391177058389,-64.82504028152134A297,297,0,0,1,290.54968438316394,-61.56200861605979L251.62340773737077,-53.314263369504275A257.2095449239783,257.2095449239783,0,0,0,251.00803894372459,-56.140131685147026Z" fill-rule="evenodd" style="fill: #184B42; stroke: #fff; opacity: 1;" id="p-type-logs"></path><path d="M290.54968438316394,-61.56200861605979A297,297,0,0,1,291.22351680861215,-58.291193654136066L252.2069637357026,-50.481654521400095A257.2095449239783,257.2095449239783,0,0,0,251.62340773737077,-53.314263369504275Z" fill-rule="evenodd" style="fill: #184B42; stroke: #fff; opacity: 1;" id="p-type-logs"></path><path d="M291.22351680861215,-58.291193654136066A297,297,0,0,1,291.8605297894218,-55.01300892550811L252.7586331596242,-47.64266326811009A257.2095449239783,257.2095449239783,0,0,0,252.2069637357026,-50.481654521400095Z" fill-rule="evenodd" style="fill: #184B42; stroke: #fff; opacity: 1;" id="p-type-logs"></path><path d="M291.8605297894218,-55.01300892550811A297,297,0,0,1,292.4606427879205,-51.72786889169487L253.27834626146532,-44.797648543838555A257.2095449239783,257.2095449239783,0,0,0,252.7586331596242,-47.64266326811009Z" fill-rule="evenodd" style="fill: #184B42; stroke: #fff; opacity: 1;" id="p-type-logs"></path><path d="M292.4606427879205,-51.72786889169487A297,297,0,0,1,293.0237799317077,-48.43618889357587L253.76603733379963,-41.946970044338386A257.2095449239783,257.2095449239783,0,0,0,253.27834626146532,-44.797648543838555Z" fill-rule="evenodd" style="fill: #184B42; stroke: #fff; opacity: 1;" id="p-type-logs"></path><path d="M293.0237799317077,-48.43618889357587A297,297,0,0,1,293.5498700232471,-45.13838509887952L254.22164471775204,-39.090988181434625A257.2095449239783,257.2095449239783,0,0,0,253.76603733379963,-41.946970044338386Z" fill-rule="evenodd" style="fill: #184B42; stroke: #fff; opacity: 1;" id="p-type-logs"></path><path d="M293.5498700232471,-45.13838509887952A297,297,0,0,1,294.0388465488684,-41.83487444956706L254.64511081079434,-36.23006403745761A257.2095449239783,257.2095449239783,0,0,0,254.22164471775204,-39.090988181434625Z" fill-rule="evenodd" style="fill: #184B42; stroke: #fff; opacity: 1;" id="p-type-logs"></path><path d="M294.0388465488684,-41.83487444956706A297,297,0,0,1,294.49064768717636,-38.52607460911839L255.03638207402778,-33.364559319591166A257.2095449239783,257.2095449239783,0,0,0,254.64511081079434,-36.23006403745761Z" fill-rule="evenodd" style="fill: #184B42; stroke: #fff; opacity: 1;" id="p-type-logs"></path><path d="M294.49064768717636,-38.52607460911839A297,297,0,0,1,294.9052163168672,-35.21240390972689L255.39540903895215,-30.494836314141974A257.2095449239783,257.2095449239783,0,0,0,255.03638207402778,-33.364559319591166Z" fill-rule="evenodd" style="fill: #184B42; stroke: #fff; opacity: 1;" id="p-type-logs"></path><path d="M294.9052163168672,-35.21240390972689A297,297,0,0,1,295.28250002395015,-31.894281299409528L255.72214631371995,-27.62125784073561A257.2095449239783,257.2095449239783,0,0,0,255.39540903895215,-30.494836314141974Z" fill-rule="evenodd" style="fill: #184B42; stroke: #fff; opacity: 1;" id="p-type-logs"></path><path d="M295.28250002395015,-31.894281299409528A297,297,0,0,1,295.6224511083744,-28.57212628903925L256.01655258887536,-24.74418720644519A257.2095449239783,257.2095449239783,0,0,0,255.72214631371995,-27.62125784073561Z" fill-rule="evenodd" style="fill: #184B42; stroke: #fff; opacity: 1;" id="p-type-logs"></path><path d="M295.6224511083744,-28.57212628903925A297,297,0,0,1,295.92502659005953,-25.246358899306085L256.27859064257706,-21.86398815985841A257.2095449239783,257.2095449239783,0,0,0,256.01655258887536,-24.74418720644519Z" fill-rule="evenodd" style="fill: #184B42; stroke: #fff; opacity: 1;" id="p-type-logs"></path><path d="M295.92502659005953,-25.246358899306085A297,297,0,0,1,296.1901882143299,-21.917399607613888L256.5082273453039,-18.981024845088715A257.2095449239783,257.2095449239783,0,0,0,256.27859064257706,-21.86398815985841Z" fill-rule="evenodd" style="fill: #184B42; stroke: #fff; opacity: 1;" id="p-type-logs"></path><path d="M296.1901882143299,-21.917399607613888A297,297,0,0,1,296.41790245675094,-18.58566929491927L256.70543366404405,-16.095661755736504A257.2095449239783,257.2095449239783,0,0,0,256.5082273453039,-18.981024845088715Z" fill-rule="evenodd" style="fill: #184B42; stroke: #fff; opacity: 1;" id="p-type-logs"></path><path d="M296.41790245675094,-18.58566929491927A297,297,0,0,1,296.6081405273676,-15.251589192519575L256.87018466596504,-13.208263688806145A257.2095449239783,257.2095449239783,0,0,0,256.70543366404405,-16.095661755736504Z" fill-rule="evenodd" style="fill: #184B42; stroke: #fff; opacity: 1;" id="p-type-logs"></path><path d="M296.6081405273676,-15.251589192519575A297,297,0,0,1,296.7608783743444,-11.915580828796482L257.0024595215663,-10.31919569858459A257.2095449239783,257.2095449239783,0,0,0,256.87018466596504,-13.208263688806145Z" fill-rule="evenodd" style="fill: #184B42; stroke: #fff; opacity: 1;" id="p-type-logs"></path><path d="M296.7608783743444,-11.915580828796482A297,297,0,0,1,296.8760966870063,-8.578065975922136L257.10224150731267,-7.428823050487523A257.2095449239783,257.2095449239783,0,0,0,257.0024595215663,-10.31919569858459Z" fill-rule="evenodd" style="fill: #184B42; stroke: #fff; opacity: 1;" id="p-type-logs"></path><path d="M296.8760966870063,-8.578065975922136A297,297,0,0,1,296.9537808982802,-5.239466596534384L257.1695180077488,-4.537511174878769A257.2095449239783,257.2095449239783,0,0,0,257.10224150731267,-7.428823050487523Z" fill-rule="evenodd" style="fill: #184B42; stroke: #fff; opacity: 1;" id="p-type-logs"></path><path d="M296.9537808982802,-5.239466596534384A297,297,0,0,1,296.9939211865364,-1.9002047903879644L257.20428051709393,-1.6456256208688615A257.2095449239783,257.2095449239783,0,0,0,257.1695180077488,-4.537511174878769Z" fill-rule="evenodd" style="fill: #184B42; stroke: #fff; opacity: 1;" id="p-type-logs"></path><path d="M296.9939211865364,-1.9002047903879644A297,297,0,0,1,296.9965124768306,1.439297259011638L257.2065246403173,1.2464679899013897A257.2095449239783,257.2095449239783,0,0,0,257.20428051709393,-1.6456256208688615Z" fill-rule="evenodd" style="fill: #184B42; stroke: #fff; opacity: 1;" id="p-type-logs"></path><path d="M296.9965124768306,1.439297259011638A297,297,0,0,1,296.96155444154556,4.778617337784942L257.1762500936941,4.138404009486523A257.2095449239783,257.2095449239783,0,0,0,257.2065246403173,1.2464679899013897Z" fill-rule="evenodd" style="fill: #184B42; stroke: #fff; opacity: 1;" id="p-type-logs"></path><path d="M296.96155444154556,4.778617337784942A297,297,0,0,1,296.88905150043223,8.117333255059044L257.11346070484086,7.029816809865361A257.2095449239783,257.2095449239783,0,0,0,257.1762500936941,4.138404009486523Z" fill-rule="evenodd" style="fill: #184B42; stroke: #fff; opacity: 1;" id="p-type-logs"></path><path d="M296.88905150043223,8.117333255059044A297,297,0,0,1,296.7790128200513,11.4550228963453L257.01816441223207,9.920340829167428A257.2095449239783,257.2095449239783,0,0,0,257.11346070484086,7.029816809865361Z" fill-rule="evenodd" style="fill: #184B42; stroke: #fff; opacity: 1;" id="p-type-logs"></path><path d="M296.7790128200513,11.4550228963453A297,297,0,0,1,296.63145231261416,14.791264276907324L256.89037326419617,12.809610617891009A257.2095449239783,257.2095449239783,0,0,0,257.01816441223207,9.920340829167428Z" fill-rule="evenodd" style="fill: #184B42; stroke: #fff; opacity: 1;" id="p-type-logs"></path><path d="M296.63145231261416,14.791264276907324A297,297,0,0,1,296.4463886342237,18.12563559511262L256.7301034173922,15.697260885107001A257.2095449239783,257.2095449239783,0,0,0,256.89037326419617,12.809610617891009Z" fill-rule="evenodd" style="fill: #184B42; stroke: #fff; opacity: 1;" id="p-type-logs"></path><path d="M296.4463886342237,18.12563559511262A297,297,0,0,1,296.223845182516,21.457715285761026L256.5373751347675,18.582926544642714A257.2095449239783,257.2095449239783,0,0,0,256.7301034173922,15.697260885107001Z" fill-rule="evenodd" style="fill: #184B42; stroke: #fff; opacity: 1;" id="p-type-logs"></path><path d="M296.223845182516,21.457715285761026A297,297,0,0,1,295.9638500937021,24.787082073383285L256.3122127829954,21.46624276123978A257.2095449239783,257.2095449239783,0,0,0,256.5373751347675,18.582926544642714Z" fill-rule="evenodd" style="fill: #184B42; stroke: #fff; opacity: 1;" id="p-type-logs"></path><path d="M295.9638500937021,24.787082073383285A297,297,0,0,1,295.66643623901047,28.113315025502995L256.054644829395,24.34684499668036A257.2095449239783,257.2095449239783,0,0,0,256.3122127829954,21.46624276123978Z" fill-rule="evenodd" style="fill: #184B42; stroke: #fff; opacity: 1;" id="p-type-logs"></path><path d="M295.66643623901047,28.113315025502995A297,297,0,0,1,295.3316412205313,31.435993605855163L255.76470383833163,27.224369055875748A257.2095449239783,257.2095449239783,0,0,0,256.054644829395,24.34684499668036Z" fill-rule="evenodd" style="fill: #184B42; stroke: #fff; opacity: 1;" id="p-type-logs"></path><path d="M295.3316412205313,31.435993605855163A297,297,0,0,1,294.9595073664626,34.7546977275547L255.4424264670999,30.09845113291167A257.2095449239783,257.2095449239783,0,0,0,255.76470383833163,27.224369055875748Z" fill-rule="evenodd" style="fill: #184B42; stroke: #fff; opacity: 1;" id="p-type-logs"></path><path d="M294.9595073664626,34.7546977275547A297,297,0,0,1,294.5500817257583,38.06900780620808L255.0878534612892,32.96872785704429A257.2095449239783,257.2095449239783,0,0,0,255.4424264670999,30.09845113291167Z" fill-rule="evenodd" style="fill: #184B42; stroke: #fff; opacity: 1;" id="p-type-logs"></path><path d="M294.5500817257583,38.06900780620808A297,297,0,0,1,294.10341606218,41.378504812961474L254.70102964963218,35.8348363386413A257.2095449239783,257.2095449239783,0,0,0,255.0878534612892,32.96872785704429Z" fill-rule="evenodd" style="fill: #184B42; stroke: #fff; opacity: 1;" id="p-type-logs"></path><path d="M294.10341606218,41.378504812961474A297,297,0,0,1,293.6195668477525,44.68277032747865L254.28200393833683,38.696414215062035A257.2095449239783,257.2095449239783,0,0,0,254.70102964963218,35.8348363386413Z" fill-rule="evenodd" style="fill: #184B42; stroke: #fff; opacity: 1;" id="p-type-logs"></path><path d="M293.6195668477525,44.68277032747865A297,297,0,0,1,293.09859525562416,47.98138659084194L253.83082930490366,41.55309969647114A257.2095449239783,257.2095449239783,0,0,0,254.28200393833683,38.696414215062035Z" fill-rule="evenodd" style="fill: #184B42; stroke: #fff; opacity: 1;" id="p-type-logs"></path><path d="M293.09859525562416,47.98138659084194A297,297,0,0,1,292.54056715233236,51.27393655836956L253.34756279142735,44.40453161157969A257.2095449239783,257.2095449239783,0,0,0,253.83082930490366,41.55309969647114Z" fill-rule="evenodd" style="fill: #184B42; stroke: #fff; opacity: 1;" id="p-type-logs"></path><path d="M292.54056715233236,51.27393655836956A297,297,0,0,1,291.9455530894765,54.56000395234268L252.83226549738518,47.25034945330814A257.2095449239783,257.2095449239783,0,0,0,253.34756279142735,44.40453161157969Z" fill-rule="evenodd" style="fill: #184B42; stroke: #fff; opacity: 1;" id="p-type-logs"></path><path d="M291.9455530894765,54.56000395234268A297,297,0,0,1,291.3136282947977,57.83917331463547L252.28500257191206,50.09019342436531A257.2095449239783,257.2095449239783,0,0,0,252.83226549738518,47.25034945330814Z" fill-rule="evenodd" style="fill: #184B42; stroke: #fff; opacity: 1;" id="p-type-logs"></path><path d="M291.3136282947977,57.83917331463547A297,297,0,0,1,290.644872662668,61.11103005924155L251.70584320556378,52.92370448273763A257.2095449239783,257.2095449239783,0,0,0,252.28500257191206,50.09019342436531Z" fill-rule="evenodd" style="fill: #184B42; stroke: #fff; opacity: 1;" id="p-type-logs"></path><path d="M290.644872662668,61.11103005924155A297,297,0,0,1,289.9393707439891,64.37516052469019L251.09486062156924,55.750524387082876A257.2095449239783,257.2095449239783,0,0,0,251.70584320556378,52.92370448273763Z" fill-rule="evenodd" style="fill: #184B42; stroke: #fff; opacity: 1;" id="p-type-logs"></path><path d="M289.9393707439891,64.37516052469019A297,297,0,0,1,289.19721173550295,67.63115202634562L250.45213206657274,58.57029574202272A257.2095449239783,257.2095449239783,0,0,0,251.09486062156924,55.750524387082876Z" fill-rule="evenodd" style="fill: #184B42; stroke: #fff; opacity: 1;" id="p-type-logs"></path><path d="M289.19721173550295,67.63115202634562A297,297,0,0,1,288.4184894685141,70.87859290858279L249.77773880086784,61.38266204332827A257.2095449239783,257.2095449239783,0,0,0,250.45213206657274,58.57029574202272Z" fill-rule="evenodd" style="fill: #184B42; stroke: #fff; opacity: 1;" id="p-type-logs"></path><path d="M288.4184894685141,70.87859290858279A297,297,0,0,1,287.603302397027,74.1170725968331L249.07176608812335,64.18726772299294A257.2095449239783,257.2095449239783,0,0,0,249.77773880086784,61.38266204332827Z" fill-rule="evenodd" style="fill: #184B42; stroke: #fff; opacity: 1;" id="p-type-logs"></path><path d="M287.603302397027,74.1170725968331A297,297,0,0,1,286.75175358529816,77.3461816494934L248.33430318460373,66.98375819418706A257.2095449239783,257.2095449239783,0,0,0,249.07176608812335,64.18726772299294Z" fill-rule="evenodd" style="fill: #184B42; stroke: #fff; opacity: 1;" id="p-type-logs"></path><path d="M286.75175358529816,77.3461816494934A297,297,0,0,1,285.8639506948059,80.5655118096918L247.56544332788414,69.7717798960883A257.2095449239783,257.2095449239783,0,0,0,248.33430318460373,66.98375819418706Z" fill-rule="evenodd" style="fill: #184B42; stroke: #fff; opacity: 1;" id="p-type-logs"></path><path d="M285.8639506948059,80.5655118096918A297,297,0,0,1,284.9400059706385,83.77465605690362L246.76528372506255,72.55098033858243A257.2095449239783,257.2095449239783,0,0,0,247.56544332788414,69.7717798960883Z" fill-rule="evenodd" style="fill: #184B42; stroke: #fff; opacity: 1;" id="p-type-logs"></path><path d="M284.9400059706385,83.77465605690362A297,297,0,0,1,283.9800362273033,86.97320865841112L245.93392554046983,75.32100814682873A257.2095449239783,257.2095449239783,0,0,0,246.76528372506255,72.55098033858243Z" fill-rule="evenodd" style="fill: #184B42; stroke: #fff; opacity: 1;" id="p-type-logs"></path><path d="M283.9800362273033,86.97320865841112A297,297,0,0,1,282.98416283395755,90.16076522060035L245.07147388287942,78.0815131056844A257.2095449239783,257.2095449239783,0,0,0,245.93392554046983,75.32100814682873Z" fill-rule="evenodd" style="fill: #184B42; stroke: #fff; opacity: 1;" id="p-type-logs"></path><path d="M183.59731988220435,233.4545440381736A297,297,0,0,1,93.88749086758943,281.76965602880006L81.30895218891195,244.01968013654397A257.2095449239783,257.2095449239783,0,0,0,158.99994308472677,202.1775657659713Z" fill-rule="evenodd" style="fill: #AE497E; stroke: #fff; opacity: 1;" id="p-type-tokenTransfers"></path><path d="M93.88749086758943,281.76965602880006A297,297,0,0,1,90.71335456212977,282.8075092781048L78.56006951330939,244.9184874158421A257.2095449239783,257.2095449239783,0,0,0,81.30895218891195,244.01968013654397Z" fill-rule="evenodd" style="fill: #AE497E; stroke: #fff; opacity: 1;" id="p-type-tokenTransfers"></path><path d="M90.71335456212977,282.8075092781048A297,297,0,0,1,87.5277493499936,283.80960712020425L75.80125447317135,245.7863296041778A257.2095449239783,257.2095449239783,0,0,0,78.56006951330939,244.9184874158421Z" fill-rule="evenodd" style="fill: #AE497E; stroke: #fff; opacity: 1;" id="p-type-tokenTransfers"></path><path d="M87.5277493499936,283.80960712020425A297,297,0,0,1,84.331077987854,284.77582285967765L73.03285586600825,246.6230969800981A257.2095449239783,257.2095449239783,0,0,0,75.80125447317135,245.7863296041778Z" fill-rule="evenodd" style="fill: #AE497E; stroke: #fff; opacity: 1;" id="p-type-tokenTransfers"></path><path d="M84.331077987854,284.77582285967765A297,297,0,0,1,81.12374463147948,285.70603433768514L70.2552237009827,247.42868375094446A257.2095449239783,257.2095449239783,0,0,0,73.03285586600825,246.6230969800981Z" fill-rule="evenodd" style="fill: #AE497E; stroke: #fff; opacity: 1;" id="p-type-tokenTransfers"></path><path d="M81.12374463147948,285.70603433768514A297,297,0,0,1,77.90615478463651,286.6001239474126L67.46870915465782,248.20298806622816A257.2095449239783,257.2095449239783,0,0,0,70.2552237009827,247.42868375094446Z" fill-rule="evenodd" style="fill: #AE497E; stroke: #fff; opacity: 1;" id="p-type-tokenTransfers"></path><path d="M77.90615478463651,286.6001239474126A297,297,0,0,1,74.67871524782163,287.4579786489406L64.67366452659783,248.94591203050732A257.2095449239783,257.2095449239783,0,0,0,67.46870915465782,248.20298806622816Z" fill-rule="evenodd" style="fill: #AE497E; stroke: #fff; opacity: 1;" id="p-type-tokenTransfers"></path><path d="M74.67871524782163,287.4579786489406A297,297,0,0,1,71.44183406682951,288.27948998353594L61.8704431948269,249.65736171576376A257.2095449239783,257.2095449239783,0,0,0,64.67366452659783,248.94591203050732Z" fill-rule="evenodd" style="fill: #AE497E; stroke: #fff; opacity: 1;" id="p-type-tokenTransfers"></path><path d="M71.44183406682951,288.27948998353594A297,297,0,0,1,68.19592048116375,289.06455408736434L59.05939957115131,250.33724717327843A257.2095449239783,257.2095449239783,0,0,0,61.8704431948269,249.65736171576376Z" fill-rule="evenodd" style="fill: #AE497E; stroke: #fff; opacity: 1;" id="p-type-tokenTransfers"></path><path d="M68.19592048116375,289.06455408736434A297,297,0,0,1,64.94138487229652,289.8130717046218L56.240889056351236,250.98548244500356A257.2095449239783,257.2095449239783,0,0,0,59.05939957115131,250.33724717327843Z" fill-rule="evenodd" style="fill: #AE497E; stroke: #fff; opacity: 1;" id="p-type-tokenTransfers"></path><path d="M64.94138487229652,289.8130717046218A297,297,0,0,1,61.67863871178408,290.52494820008354L53.41526799524732,251.60198557443047A257.2095449239783,257.2095449239783,0,0,0,56.240889056351236,250.98548244500356Z" fill-rule="evenodd" style="fill: #AE497E; stroke: #fff; opacity: 1;" id="p-type-tokenTransfers"></path><path d="M61.67863871178408,290.52494820008354A297,297,0,0,1,58.40809450924427,291.20009357106875L50.58289363164793,252.18667861695113A257.2095449239783,257.2095449239783,0,0,0,53.41526799524732,251.60198557443047Z" fill-rule="evenodd" style="fill: #AE497E; stroke: #fff; opacity: 1;" id="p-type-tokenTransfers"></path><path d="M58.40809450924427,291.20009357106875A297,297,0,0,1,55.13016576020288,291.83842245881976L47.74412406318273,252.73948764971297A257.2095449239783,257.2095449239783,0,0,0,50.58289363164793,252.18667861695113Z" fill-rule="evenodd" style="fill: #AE497E; stroke: #fff; opacity: 1;" id="p-type-tokenTransfers"></path><path d="M55.13016576020288,291.83842245881976A297,297,0,0,1,51.84526689381531,292.4398541592939L44.89931819602839,253.26034278096483A257.2095449239783,257.2095449239783,0,0,0,47.74412406318273,252.73948764971297Z" fill-rule="evenodd" style="fill: #AE497E; stroke: #fff; opacity: 1;" id="p-type-tokenTransfers"></path><path d="M51.84526689381531,292.4398541592939A297,297,0,0,1,48.55381322047021,293.0043126333667L42.048835699531935,253.7491781588933A257.2095449239783,257.2095449239783,0,0,0,44.89931819602839,253.26034278096483Z" fill-rule="evenodd" style="fill: #AE497E; stroke: #fff; opacity: 1;" id="p-type-tokenTransfers"></path><path d="M48.55381322047021,293.0043126333667A297,297,0,0,1,45.25622087928176,293.53172651644604L39.193036960737736,254.2059319799486A257.2095449239783,257.2095449239783,0,0,0,42.048835699531935,253.7491781588933Z" fill-rule="evenodd" style="fill: #AE497E; stroke: #fff; opacity: 1;" id="p-type-tokenTransfers"></path><path d="M45.25622087928176,293.53172651644604A297,297,0,0,1,41.952906785477055,294.02202912749425L36.33228303882368,254.63054649665818A257.2095449239783,257.2095449239783,0,0,0,39.193036960737736,254.2059319799486Z" fill-rule="evenodd" style="fill: #AE497E; stroke: #fff; opacity: 1;" id="p-type-tokenTransfers"></path><path d="M41.952906785477055,294.02202912749425A297,297,0,0,1,38.64428857768545,294.475158477459L33.466935619452414,255.02296802492796A257.2095449239783,257.2095449239783,0,0,0,36.33228303882368,254.63054649665818Z" fill-rule="evenodd" style="fill: #AE497E; stroke: #fff; opacity: 1;" id="p-type-tokenTransfers"></path><path d="M38.64428857768545,294.475158477459A297,297,0,0,1,35.330784565136476,294.89105727711024L30.597356969043332,255.38314695082943A257.2095449239783,257.2095449239783,0,0,0,33.466935619452414,255.02296802492796Z" fill-rule="evenodd" style="fill: #AE497E; stroke: #fff; opacity: 1;" id="p-type-tokenTransfers"></path><path d="M35.330784565136476,294.89105727711024A297,297,0,0,1,32.012813674772865,295.26967294428374L27.723909888971168,255.71103773687244A257.2095449239783,257.2095449239783,0,0,0,30.597356969043332,255.38314695082943Z" fill-rule="evenodd" style="fill: #AE497E; stroke: #fff; opacity: 1;" id="p-type-tokenTransfers"></path><path d="M32.012813674772865,295.26967294428374A297,297,0,0,1,28.690795398285562,295.61095761052854L24.84695766969697,256.0065989277626A257.2095449239783,257.2095449239783,0,0,0,27.723909888971168,255.71103773687244Z" fill-rule="evenodd" style="fill: #AE497E; stroke: #fff; opacity: 1;" id="p-type-tokenTransfers"></path><path d="M28.690795398285562,295.61095761052854A297,297,0,0,1,25.36514973907731,295.9148681271595L21.966864044837177,256.2697931556422A257.2095449239783,257.2095449239783,0,0,0,24.84695766969697,256.0065989277626Z" fill-rule="evenodd" style="fill: #AE497E; stroke: #fff; opacity: 1;" id="p-type-tokenTransfers"></path><path d="M25.36514973907731,295.9148681271595A297,297,0,0,1,22.036297159161553,296.181366070712L19.083993145176763,256.50058714481503A257.2095449239783,257.2095449239783,0,0,0,21.966864044837177,256.2697931556422Z" fill-rule="evenodd" style="fill: #AE497E; stroke: #fff; opacity: 1;" id="p-type-tokenTransfers"></path><path d="M22.036297159161553,296.181366070712A297,297,0,0,1,18.704658526003318,296.4104177478005L16.198709452632066,256.69895171595306A257.2095449239783,257.2095449239783,0,0,0,19.083993145176763,256.50058714481503Z" fill-rule="evenodd" style="fill: #AE497E; stroke: #fff; opacity: 1;" id="p-type-tokenTransfers"></path><path d="M18.704658526003318,296.4104177478005A297,297,0,0,1,15.37065505930887,296.6019941993778L13.311377754169289,256.8648617897859A257.2095449239783,257.2095449239783,0,0,0,16.198709452632066,256.69895171595306Z" fill-rule="evenodd" style="fill: #AE497E; stroke: #fff; opacity: 1;" id="p-type-tokenTransfers"></path><path d="M15.37065505930887,296.6019941993778A297,297,0,0,1,12.034708277770841,296.7560712043967L10.42236309568442,256.99829639027126A257.2095449239783,257.2095449239783,0,0,0,13.311377754169289,256.8648617897859Z" fill-rule="evenodd" style="fill: #AE497E; stroke: #fff; opacity: 1;" id="p-type-tokenTransfers"></path><path d="M12.034708277770841,296.7560712043967A297,297,0,0,1,8.697239945775515,296.8726292828721L7.53203073585039,257.09923864724726A257.2095449239783,257.2095449239783,0,0,0,10.42236309568442,256.99829639027126Z" fill-rule="evenodd" style="fill: #AE497E; stroke: #fff; opacity: 1;" id="p-type-tokenTransfers"></path><path d="M8.697239945775515,296.8726292828721A297,297,0,0,1,5.358672020079101,296.951653698344L4.6407460999373775,257.16767579856514A257.2095449239783,257.2095449239783,0,0,0,7.53203073585039,257.09923864724726Z" fill-rule="evenodd" style="fill: #AE497E; stroke: #fff; opacity: 1;" id="p-type-tokenTransfers"></path><path d="M5.358672020079101,296.951653698344A297,297,0,0,1,2.0194265964596423,296.99313445974053L1.7488747336119963,257.20359919170284A257.2095449239783,257.2095449239783,0,0,0,4.6407460999373775,257.16767579856514Z" fill-rule="evenodd" style="fill: #AE497E; stroke: #fff; opacity: 1;" id="p-type-tokenTransfers"></path><path d="M2.0194265964596423,296.99313445974053A297,297,0,0,1,-1.320074143648625,296.9970663226411L-1.1432177432786976,257.20700428485895A257.2095449239783,257.2095449239783,0,0,0,1.7488747336119963,257.20359919170284Z" fill-rule="evenodd" style="fill: #AE497E; stroke: #fff; opacity: 1;" id="p-type-tokenTransfers"></path><path d="M-1.320074143648625,296.9970663226411A297,297,0,0,1,-4.659407986531752,296.96344878993955L-4.0351656829325995,257.17789064752685A257.2095449239783,257.2095449239783,0,0,0,-1.1432177432786976,257.20700428485895Z" fill-rule="evenodd" style="fill: #AE497E; stroke: #fff; opacity: 1;" id="p-type-tokenTransfers"></path><path d="M-4.659407986531752,296.96344878993955A297,297,0,0,1,-7.998152739576639,296.8922861119069L-6.926603455821473,257.1162619605493A257.2095449239783,257.2095449239783,0,0,0,-4.0351656829325995,257.17789064752685Z" fill-rule="evenodd" style="fill: #AE497E; stroke: #fff; opacity: 1;" id="p-type-tokenTransfers"></path><path d="M-7.998152739576639,296.8922861119069A297,297,0,0,1,-11.335886284648923,296.78358728565416L-9.817165496917564,257.0221260156529A257.2095449239783,257.2095449239783,0,0,0,-6.926603455821473,257.1162619605493Z" fill-rule="evenodd" style="fill: #AE497E; stroke: #fff; opacity: 1;" id="p-type-tokenTransfers"></path></g></svg>