<svg xmlns="http://www.w3.org/2000/svg" width="600" height="600" id="block-7914295"><g id="burst-container" transform="translate(300,300)"><data type="text/json">{"number":7914295,"totalTransactions":180,"totalFunctions":0,"totalFunctionsValue":"0","totalLogs":114,"totalTokenTransfers":114,"tokens":{"0x5ca381bbfb58f0092df149bd3d243b08b9a8386e":"185458","0x1c95b093d6c236d3ef7c796fe33f9cc6b8606714":"1e-18","0x3d779a7fb80723c6385524d113792d119acd2267":"293.5","0x174bfa6600bf90c885c7c01c7031389ed1461ab9":"2.06298011","0xae785cbf3c9670c3e5a5dd0053dec05a4aada688":"1.1033e-14","0x05f4a42e251f2d52b8ed15e9fedaacfcef1fad27":"0.0268746","0xa0b86991c6218b36c1d19d4a2e9eb0ce3606eb48":"2e-9","0x514910771af9ca656af840dff83e8264ecf986ca":"0.333333333333333333","0x7c6e28b33fa22291f5e5fafc48555b922173ee8b":"1.4e-13","0x89d24a6b4ccb1b6faa2625fe562bdd9a23260359":"499.495853691540767825","0x5dab189977f37a58d9f52f3473f49bf5506a9517":"2.8257e-14","0x9f235d23354857efe6c541db92a9ef1877689bcb":"102","0xb8c77482e45f1f44de1745f52c74426c631bdd52":"18.378204855431774722","0x5c7f7e79b710a7bd29d8a381621e0268c98dcf06":"15000","0x08f5a9235b08173b7569f83645d2c7fb55e8ccd8":"1.5e-7","0x6c6ee5e31d828de241282b9606c8e98ea48526e2":"5000","0x048fe49be32adfc9ed68c37d32b5ec9df17b3603":"550","0x0000000000085d4780b73119b644ae5ecd22b376":"250.278808989096419776","0xbcc394d45c3613530a83cae62c716dc23b7f2152":"3.72e-16","0xcafe27178308351a12fffffdeb161d9d730da082":"300000"},"totalEther":"152.992867982267568307","totalEtherTxns":79,"newContracts":[],"totalNewContracts":0}</data><circle r="297" style="fill: #f9f9f9; stroke: #f9f9f9; stroke-width: 3; opacity: 1;" id="circle-base"></circle><path display="none" d="M9.093002483669097e-15,-148.5A148.5,148.5,0,1,1,-9.093002483669097e-15,148.5A148.5,148.5,0,1,1,9.093002483669097e-15,-148.5Z" fill-rule="evenodd" id="p-type-root" style="stroke: #fff; opacity: 1;"></path><path d="M1.2859447435097075e-14,-210.0107140124046A210.0107140124046,210.0107140124046,0,1,1,-189.44729579812744,-90.63234585277372L-133.95946753630966,-64.08674634734078A148.5,148.5,0,1,0,9.093002483669097e-15,-148.5Z" fill-rule="evenodd" style="fill: #4E4E4E; stroke: #fff; opacity: 1;" id="p-type-data"></path><path d="M-189.44729579812744,-90.63234585277372A210.0107140124046,210.0107140124046,0,0,1,-2.746115338794199,-209.99275904312995L-1.9417967779817715,-148.4873039194699A148.5,148.5,0,0,0,-133.95946753630966,-64.08674634734078Z" fill-rule="evenodd" style="fill: #3A86AD; stroke: #fff; opacity: 1;" id="p-type-value"></path><path d="M1.5749542295064867e-14,-257.2095449239783A257.2095449239783,257.2095449239783,0,0,1,256.8349672134786,-13.876224863101669L209.7048725924899,-11.329890156906815A210.0107140124046,210.0107140124046,0,0,0,1.2859447435097075e-14,-210.0107140124046Z" fill-rule="evenodd" style="fill: #F09B24; stroke: #fff; opacity: 1;" id="p-type-ether"></path><path d="M256.8349672134786,-13.876224863101669A257.2095449239783,257.2095449239783,0,0,1,83.39649005905123,243.3141497032809L68.09294899458843,198.6651713240657A210.0107140124046,210.0107140124046,0,0,0,209.7048725924899,-11.329890156906815Z" fill-rule="evenodd" style="fill: #184B42; stroke: #fff; opacity: 1;" id="p-type-logs"></path><path d="M83.39649005905123,243.3141497032809A257.2095449239783,257.2095449239783,0,0,1,-191.55305773799788,171.65132120442084L-156.40241670932653,140.1527168751365A210.0107140124046,210.0107140124046,0,0,0,68.09294899458843,198.6651713240657Z" fill-rule="evenodd" style="fill: #AE497E; stroke: #fff; opacity: 1;" id="p-type-tokenTransfers"></path><path d="M-232.02460392776194,-111.0015007653734A257.2095449239783,257.2095449239783,0,0,1,-132.8297890513971,-220.25666196635538L-108.45506860581683,-179.83881142208307A210.0107140124046,210.0107140124046,0,0,0,-189.44729579812744,-90.63234585277372Z" fill-rule="evenodd" style="fill: #AE497E; stroke: #fff; opacity: 1;" id="p-type-tokenTransfers"></path><path d="M-132.8297890513971,-220.25666196635538A257.2095449239783,257.2095449239783,0,0,1,-6.726006262494927,-257.1215876579734L-5.491761116625581,-209.93889720544385A210.0107140124046,210.0107140124046,0,0,0,-108.45506860581683,-179.83881142208307Z" fill-rule="evenodd" style="fill: #F09B24; stroke: #fff; opacity: 1;" id="p-type-ether"></path><path d="M1.8186004967338195e-14,-297A297,297,0,0,1,48.501504892450185,-293.0129758614243L42.0035353586371,-253.75668073446997A257.2095449239783,257.2095449239783,0,0,0,1.5749542295064867e-14,-257.2095449239783Z" fill-rule="evenodd" style="fill: #F09B24; stroke: #fff; opacity: 1;" id="p-type-ether"></path><path d="M48.501504892450185,-293.0129758614243A297,297,0,0,1,83.48336083173372,-285.02548739409L72.29871127358419,-246.83931280932322A257.2095449239783,257.2095449239783,0,0,0,42.0035353586371,-253.75668073446997Z" fill-rule="evenodd" style="fill: #F09B24; stroke: #fff; opacity: 1;" id="p-type-ether"></path><path d="M83.48336083173372,-285.02548739409A297,297,0,0,1,110.05462210118047,-275.85681096207566L95.31009854351863,-238.89900610011915A257.2095449239783,257.2095449239783,0,0,0,72.29871127358419,-246.83931280932322Z" fill-rule="evenodd" style="fill: #F09B24; stroke: #fff; opacity: 1;" id="p-type-ether"></path><path d="M110.05462210118047,-275.85681096207566A297,297,0,0,1,127.84239001771955,-268.07708465021267L110.71475743586326,-232.16156547955558A257.2095449239783,257.2095449239783,0,0,0,95.31009854351863,-238.89900610011915Z" fill-rule="evenodd" style="fill: #F09B24; stroke: #fff; opacity: 1;" id="p-type-ether"></path><path d="M127.84239001771955,-268.07708465021267A297,297,0,0,1,141.34096824275807,-261.2120416370571L122.40486909371809,-226.21626383208996A257.2095449239783,257.2095449239783,0,0,0,110.71475743586326,-232.16156547955558Z" fill-rule="evenodd" style="fill: #F09B24; stroke: #fff; opacity: 1;" id="p-type-ether"></path><path d="M141.34096824275807,-261.2120416370571A297,297,0,0,1,153.14312813638244,-254.4723605907006L132.62583938112263,-220.37952883254076A257.2095449239783,257.2095449239783,0,0,0,122.40486909371809,-226.21626383208996Z" fill-rule="evenodd" style="fill: #F09B24; stroke: #fff; opacity: 1;" id="p-type-ether"></path><path d="M153.14312813638244,-254.4723605907006A297,297,0,0,1,163.0055255225207,-248.27041436531832L141.16692605973563,-215.00848584845468A257.2095449239783,257.2095449239783,0,0,0,132.62583938112263,-220.37952883254076Z" fill-rule="evenodd" style="fill: #F09B24; stroke: #fff; opacity: 1;" id="p-type-ether"></path><path d="M163.0055255225207,-248.27041436531832A297,297,0,0,1,172.50626799794017,-241.7655631007502L149.39481039826273,-209.3751194054994A257.2095449239783,257.2095449239783,0,0,0,141.16692605973563,-215.00848584845468Z" fill-rule="evenodd" style="fill: #F09B24; stroke: #fff; opacity: 1;" id="p-type-ether"></path><path d="M172.50626799794017,-241.7655631007502A297,297,0,0,1,178.86876436009314,-237.09695303038689L154.90489387937328,-205.3319844842009A257.2095449239783,257.2095449239783,0,0,0,149.39481039826273,-209.3751194054994Z" fill-rule="evenodd" style="fill: #F09B24; stroke: #fff; opacity: 1;" id="p-type-ether"></path><path d="M178.86876436009314,-237.09695303038689A297,297,0,0,1,184.66660908834837,-232.60963756433466L159.92597470124,-201.44585529580485A257.2095449239783,257.2095449239783,0,0,0,154.90489387937328,-205.3319844842009Z" fill-rule="evenodd" style="fill: #F09B24; stroke: #fff; opacity: 1;" id="p-type-ether"></path><path d="M184.66660908834837,-232.60963756433466A297,297,0,0,1,190.20957777466305,-228.0993566908605L164.72632639597015,-197.53983748117318A257.2095449239783,257.2095449239783,0,0,0,159.92597470124,-201.44585529580485Z" fill-rule="evenodd" style="fill: #F09B24; stroke: #fff; opacity: 1;" id="p-type-ether"></path><path d="M190.20957777466305,-228.0993566908605A297,297,0,0,1,195.51250173608668,-223.57070842330106L169.31879326090024,-193.6179130366623A257.2095449239783,257.2095449239783,0,0,0,164.72632639597015,-197.53983748117318Z" fill-rule="evenodd" style="fill: #F09B24; stroke: #fff; opacity: 1;" id="p-type-ether"></path><path d="M195.51250173608668,-223.57070842330106A297,297,0,0,1,200.28828828389837,-219.30253435905848L173.45474573435715,-189.92156586925435A257.2095449239783,257.2095449239783,0,0,0,169.31879326090024,-193.6179130366623Z" fill-rule="evenodd" style="fill: #F09B24; stroke: #fff; opacity: 1;" id="p-type-ether"></path><path d="M200.28828828389837,-219.30253435905848A297,297,0,0,1,203.88883067820456,-215.95912744006546L176.57290691522914,-187.02609054221773A257.2095449239783,257.2095449239783,0,0,0,173.45474573435715,-189.92156586925435Z" fill-rule="evenodd" style="fill: #F09B24; stroke: #fff; opacity: 1;" id="p-type-ether"></path><path d="M203.88883067820456,-215.95912744006546A297,297,0,0,1,207.26846337287958,-212.7176158456212L179.49975468427817,-184.21885915476722A257.2095449239783,257.2095449239783,0,0,0,176.57290691522914,-187.02609054221773Z" fill-rule="evenodd" style="fill: #F09B24; stroke: #fff; opacity: 1;" id="p-type-ether"></path><path d="M207.26846337287958,-212.7176158456212A297,297,0,0,1,210.40204886171136,-209.61864858545871L182.21351932253677,-181.53507478197022A257.2095449239783,257.2095449239783,0,0,0,179.49975468427817,-184.21885915476722Z" fill-rule="evenodd" style="fill: #F09B24; stroke: #fff; opacity: 1;" id="p-type-ether"></path><path d="M210.40204886171136,-209.61864858545871A297,297,0,0,1,213.16114891810247,-206.81229313538046L184.60297006295457,-179.10469967015354A257.2095449239783,257.2095449239783,0,0,0,182.21351932253677,-181.53507478197022Z" fill-rule="evenodd" style="fill: #F09B24; stroke: #fff; opacity: 1;" id="p-type-ether"></path><path d="M213.16114891810247,-206.81229313538046A297,297,0,0,1,215.85204025317498,-204.00219782772373L186.93335031795078,-176.67108574666736A257.2095449239783,257.2095449239783,0,0,0,184.60297006295457,-179.10469967015354Z" fill-rule="evenodd" style="fill: #F09B24; stroke: #fff; opacity: 1;" id="p-type-ether"></path><path d="M215.85204025317498,-204.00219782772373A297,297,0,0,1,218.50133225449932,-201.16204364394613L189.22770449314058,-174.21144007285133A257.2095449239783,257.2095449239783,0,0,0,186.93335031795078,-176.67108574666736Z" fill-rule="evenodd" style="fill: #F09B24; stroke: #fff; opacity: 1;" id="p-type-ether"></path><path d="M218.50133225449932,-201.16204364394613A297,297,0,0,1,221.1130608584711,-198.28770591692782L191.48952781197062,-171.72219058219744A257.2095449239783,257.2095449239783,0,0,0,189.22770449314058,-174.21144007285133Z" fill-rule="evenodd" style="fill: #F09B24; stroke: #fff; opacity: 1;" id="p-type-ether"></path><path d="M221.1130608584711,-198.28770591692782A297,297,0,0,1,223.68684699201927,-195.37961634410317L193.71849198753142,-169.20371113565068A257.2095449239783,257.2095449239783,0,0,0,191.48952781197062,-171.72219058219744Z" fill-rule="evenodd" style="fill: #F09B24; stroke: #fff; opacity: 1;" id="p-type-ether"></path><path d="M223.68684699201927,-195.37961634410317A297,297,0,0,1,226.2219923729975,-192.43858803990292L195.91399228974538,-166.65670591096418A257.2095449239783,257.2095449239783,0,0,0,193.71849198753142,-169.20371113565068Z" fill-rule="evenodd" style="fill: #F09B24; stroke: #fff; opacity: 1;" id="p-type-ether"></path><path d="M226.2219923729975,-192.43858803990292A297,297,0,0,1,228.188309515053,-190.10285479356267L197.61687288666224,-164.63390158316963A257.2095449239783,257.2095449239783,0,0,0,195.91399228974538,-166.65670591096418Z" fill-rule="evenodd" style="fill: #F09B24; stroke: #fff; opacity: 1;" id="p-type-ether"></path><path d="M228.188309515053,-190.10285479356267A297,297,0,0,1,230.02760385973832,-187.87309935844274L199.20974851419678,-162.70287673212934A257.2095449239783,257.2095449239783,0,0,0,197.61687288666224,-164.63390158316963Z" fill-rule="evenodd" style="fill: #F09B24; stroke: #fff; opacity: 1;" id="p-type-ether"></path><path d="M230.02760385973832,-187.87309935844274A297,297,0,0,1,231.73713177697442,-185.76033418300364L200.69024311900193,-160.87316841796797A257.2095449239783,257.2095449239783,0,0,0,199.20974851419678,-162.70287673212934Z" fill-rule="evenodd" style="fill: #F09B24; stroke: #fff; opacity: 1;" id="p-type-ether"></path><path d="M231.73713177697442,-185.76033418300364A297,297,0,0,1,233.29582018946599,-183.79896703225606L202.04010688080407,-159.1745746392723A257.2095449239783,257.2095449239783,0,0,0,200.69024311900193,-160.87316841796797Z" fill-rule="evenodd" style="fill: #F09B24; stroke: #fff; opacity: 1;" id="p-type-ether"></path><path d="M233.29582018946599,-183.79896703225606A297,297,0,0,1,234.67218557593065,-182.03836221251817L203.23207427037207,-157.64984613935394A257.2095449239783,257.2095449239783,0,0,0,202.04010688080407,-159.1745746392723Z" fill-rule="evenodd" style="fill: #F09B24; stroke: #fff; opacity: 1;" id="p-type-ether"></path><path d="M234.67218557593065,-182.03836221251817A297,297,0,0,1,235.8724494080228,-180.4804355332171L204.27153324020753,-156.3006420578457A257.2095449239783,257.2095449239783,0,0,0,203.23207427037207,-157.64984613935394Z" fill-rule="evenodd" style="fill: #F09B24; stroke: #fff; opacity: 1;" id="p-type-ether"></path><path d="M235.8724494080228,-180.4804355332171A297,297,0,0,1,237.04742070515377,-178.93440232955157L205.2890882322405,-154.9617380283771A257.2095449239783,257.2095449239783,0,0,0,204.27153324020753,-156.3006420578457Z" fill-rule="evenodd" style="fill: #F09B24; stroke: #fff; opacity: 1;" id="p-type-ether"></path><path d="M237.04742070515377,-178.93440232955157A297,297,0,0,1,238.2122586510843,-177.3807200017773L206.29786748470843,-153.61620966311364A257.2095449239783,257.2095449239783,0,0,0,205.2890882322405,-154.9617380283771Z" fill-rule="evenodd" style="fill: #F09B24; stroke: #fff; opacity: 1;" id="p-type-ether"></path><path d="M238.2122586510843,-177.3807200017773A297,297,0,0,1,239.3664306405535,-175.82011228070894L207.29740974792517,-152.2646837313263A257.2095449239783,257.2095449239783,0,0,0,206.29786748470843,-153.61620966311364Z" fill-rule="evenodd" style="fill: #F09B24; stroke: #fff; opacity: 1;" id="p-type-ether"></path><path d="M239.3664306405535,-175.82011228070894A297,297,0,0,1,240.4992005879918,-174.26742241892742L208.2784172990503,-150.92001486682497A257.2095449239783,257.2095449239783,0,0,0,207.29740974792517,-152.2646837313263Z" fill-rule="evenodd" style="fill: #F09B24; stroke: #fff; opacity: 1;" id="p-type-ether"></path><path d="M240.4992005879918,-174.26742241892742A297,297,0,0,1,241.6216854990079,-172.70773316970644L209.25051774735496,-149.56928435499012A257.2095449239783,257.2095449239783,0,0,0,208.2784172990503,-150.92001486682497Z" fill-rule="evenodd" style="fill: #F09B24; stroke: #fff; opacity: 1;" id="p-type-ether"></path><path d="M241.6216854990079,-172.70773316970644A297,297,0,0,1,242.52302139297873,-171.43973895926456L210.03109752887644,-148.47116915689585A257.2095449239783,257.2095449239783,0,0,0,209.25051774735496,-149.56928435499012Z" fill-rule="evenodd" style="fill: #F09B24; stroke: #fff; opacity: 1;" id="p-type-ether"></path><path d="M296.5674749160212,-16.022884320095052A297,297,0,0,1,296.66589649105606,-14.08353148745073L256.9202027977393,-12.196696043130373A257.2095449239783,257.2095449239783,0,0,0,256.8349672134786,-13.876224863101669Z" fill-rule="evenodd" style="fill: #184B42; stroke: #fff; opacity: 1;" id="p-type-logs"></path><path d="M296.66589649105606,-14.08353148745073A297,297,0,0,1,296.75163613220025,-12.143576609147013L256.99445550508153,-10.516645836323807A257.2095449239783,257.2095449239783,0,0,0,256.9202027977393,-12.196696043130373Z" fill-rule="evenodd" style="fill: #184B42; stroke: #fff; opacity: 1;" id="p-type-logs"></path><path d="M296.75163613220025,-12.143576609147013A297,297,0,0,1,296.82469017423824,-10.203102614768367L257.05772216133556,-8.836146061808837A257.2095449239783,257.2095449239783,0,0,0,256.99445550508153,-10.516645836323807Z" fill-rule="evenodd" style="fill: #184B42; stroke: #fff; opacity: 1;" id="p-type-logs"></path><path d="M296.82469017423824,-10.203102614768367A297,297,0,0,1,296.88505549424093,-8.262192456090514L257.1100000619655,-7.155268557930531A257.2095449239783,257.2095449239783,0,0,0,257.05772216133556,-8.836146061808837Z" fill-rule="evenodd" style="fill: #184B42; stroke: #fff; opacity: 1;" id="p-type-logs"></path><path d="M296.88505549424093,-8.262192456090514A297,297,0,0,1,296.9327295116995,-6.320929103534434L257.15128697218506,-5.474085179181218A257.2095449239783,257.2095449239783,0,0,0,257.1100000619655,-7.155268557930531Z" fill-rule="evenodd" style="fill: #184B42; stroke: #fff; opacity: 1;" id="p-type-logs"></path><path d="M296.9327295116995,-6.320929103534434A297,297,0,0,1,296.9677101886353,-4.379395542619499L257.18158112705305,-3.792667793128823A257.2095449239783,257.2095449239783,0,0,0,257.15128697218506,-5.474085179181218Z" fill-rule="evenodd" style="fill: #184B42; stroke: #fff; opacity: 1;" id="p-type-logs"></path><path d="M296.9677101886353,-4.379395542619499A297,297,0,0,1,296.9899960296873,-2.4376747704160096L257.2008812315488,-2.1110882773446633A257.2095449239783,257.2095449239783,0,0,0,257.18158112705305,-3.792667793128823Z" fill-rule="evenodd" style="fill: #184B42; stroke: #fff; opacity: 1;" id="p-type-logs"></path><path d="M296.9899960296873,-2.4376747704160096A297,297,0,0,1,296.9995860821758,-0.4958497919972081L257.2091864606275,-0.4294185163308121A257.2095449239783,257.2095449239783,0,0,0,257.2008812315488,-2.1110882773446633Z" fill-rule="evenodd" style="fill: #184B42; stroke: #fff; opacity: 1;" id="p-type-logs"></path><path d="M296.9995860821758,-0.4958497919972081A297,297,0,0,1,296.99647993614343,1.4459963831090328L257.20649645925556,1.252269601552838A257.2095449239783,257.2095449239783,0,0,0,257.2091864606275,-0.4294185163308121Z" fill-rule="evenodd" style="fill: #184B42; stroke: #fff; opacity: 1;" id="p-type-logs"></path><path d="M296.99647993614343,1.4459963831090328A297,297,0,0,1,296.9806777243722,3.3877807444687202L257.19281134242567,2.93390418716167A257.2095449239783,257.2095449239783,0,0,0,257.20649645925556,1.252269601552838Z" fill-rule="evenodd" style="fill: #184B42; stroke: #fff; opacity: 1;" id="p-type-logs"></path><path d="M296.9806777243722,3.3877807444687202A297,297,0,0,1,296.95218012237825,5.329420284290288L257.168131695152,4.615413353639475A257.2095449239783,257.2095449239783,0,0,0,257.19281134242567,2.93390418716167Z" fill-rule="evenodd" style="fill: #184B42; stroke: #fff; opacity: 1;" id="p-type-logs"></path><path d="M296.95218012237825,5.329420284290288A297,297,0,0,1,296.910988348383,7.270832000973031L257.13245857244516,6.296725219491488A257.2095449239783,257.2095449239783,0,0,0,257.168131695152,4.615413353639475Z" fill-rule="evenodd" style="fill: #184B42; stroke: #fff; opacity: 1;" id="p-type-logs"></path><path d="M296.910988348383,7.270832000973031A297,297,0,0,1,296.85710416326066,9.211932902655272L257.08579349926697,7.977767911657188A257.2095449239783,257.2095449239783,0,0,0,257.13245857244516,6.296725219491488Z" fill-rule="evenodd" style="fill: #184B42; stroke: #fff; opacity: 1;" id="p-type-logs"></path><path d="M296.85710416326066,9.211932902655272A297,297,0,0,1,296.7905298704633,11.15264001076212L257.0281384704655,9.65846956858275A257.2095449239783,257.2095449239783,0,0,0,257.08579349926697,7.977767911657188Z" fill-rule="evenodd" style="fill: #184B42; stroke: #fff; opacity: 1;" id="p-type-logs"></path><path d="M296.7905298704633,11.15264001076212A297,297,0,0,1,296.71126831592227,13.092870363552647L256.9594959506895,11.33875834329299A257.2095449239783,257.2095449239783,0,0,0,257.0281384704655,9.65846956858275Z" fill-rule="evenodd" style="fill: #184B42; stroke: #fff; opacity: 1;" id="p-type-logs"></path><path d="M296.71126831592227,13.092870363552647A297,297,0,0,1,296.61932288792656,15.032541019666361L256.87986887428343,13.018562406462697A257.2095449239783,257.2095449239783,0,0,0,256.9594959506895,11.33875834329299Z" fill-rule="evenodd" style="fill: #184B42; stroke: #fff; opacity: 1;" id="p-type-logs"></path><path d="M296.61932288792656,15.032541019666361A297,297,0,0,1,296.51469751697806,16.971569061668795L256.7892606451616,14.697809949487207A257.2095449239783,257.2095449239783,0,0,0,256.87986887428343,13.018562406462697Z" fill-rule="evenodd" style="fill: #184B42; stroke: #fff; opacity: 1;" id="p-type-logs"></path><path d="M296.51469751697806,16.971569061668795A297,297,0,0,1,296.3973966756233,18.909871599596084L256.68767513666313,16.376429187552088A257.2095449239783,257.2095449239783,0,0,0,256.7892606451616,14.697809949487207Z" fill-rule="evenodd" style="fill: #184B42; stroke: #fff; opacity: 1;" id="p-type-logs"></path><path d="M296.3973966756233,18.909871599596084A297,297,0,0,1,296.2674253782624,20.847365774498357L256.57511669138574,18.054348362701827A257.2095449239783,257.2095449239783,0,0,0,256.68767513666313,16.376429187552088Z" fill-rule="evenodd" style="fill: #184B42; stroke: #fff; opacity: 1;" id="p-type-logs"></path><path d="M296.2674253782624,20.847365774498357A297,297,0,0,1,296.1247891809347,22.783968761981807L256.4515901210008,19.73149574690733A257.2095449239783,257.2095449239783,0,0,0,256.57511669138574,18.054348362701827Z" fill-rule="evenodd" style="fill: #184B42; stroke: #fff; opacity: 1;" id="p-type-logs"></path><path d="M296.1247891809347,22.783968761981807A297,297,0,0,1,295.96949418108136,24.719597775749286L256.3171007060471,21.407799645132187A257.2095449239783,257.2095449239783,0,0,0,256.4515901210008,19.73149574690733Z" fill-rule="evenodd" style="fill: #184B42; stroke: #fff; opacity: 1;" id="p-type-logs"></path><path d="M295.96949418108136,24.719597775749286A297,297,0,0,1,295.8015470172845,26.654170071139276L256.17165419570546,23.08318839839749A257.2095449239783,257.2095449239783,0,0,0,256.3171007060471,21.407799645132187Z" fill-rule="evenodd" style="fill: #184B42; stroke: #fff; opacity: 1;" id="p-type-logs"></path><path d="M295.8015470172845,26.654170071139276A297,297,0,0,1,295.6209548689835,28.587602948663072L256.01525680755276,24.757590386845145A257.2095449239783,257.2095449239783,0,0,0,256.17165419570546,23.08318839839749Z" fill-rule="evenodd" style="fill: #184B42; stroke: #fff; opacity: 1;" id="p-type-logs"></path><path d="M295.6209548689835,28.587602948663072A297,297,0,0,1,295.42772545616816,30.519813757540028L255.84791522729634,26.43093403279947A257.2095449239783,257.2095449239783,0,0,0,256.01525680755276,24.757590386845145Z" fill-rule="evenodd" style="fill: #184B42; stroke: #fff; opacity: 1;" id="p-type-logs"></path><path d="M295.42772545616816,30.519813757540028A297,297,0,0,1,295.22186703904856,32.45071989923075L255.66963660848788,28.103147803827024A257.2095449239783,257.2095449239783,0,0,0,255.84791522729634,26.43093403279947Z" fill-rule="evenodd" style="fill: #184B42; stroke: #fff; opacity: 1;" id="p-type-logs"></path><path d="M295.22186703904856,32.45071989923075A297,297,0,0,1,295.00338841770207,34.38023883096799L255.48042857221805,29.774160215794492A257.2095449239783,257.2095449239783,0,0,0,255.66963660848788,28.103147803827024Z" fill-rule="evenodd" style="fill: #184B42; stroke: #fff; opacity: 1;" id="p-type-logs"></path><path d="M295.00338841770207,34.38023883096799A297,297,0,0,1,294.7722989316971,36.308288069285275L255.28029920679023,31.443899835924498A257.2095449239783,257.2095449239783,0,0,0,255.48042857221805,29.774160215794492Z" fill-rule="evenodd" style="fill: #184B42; stroke: #fff; opacity: 1;" id="p-type-logs"></path><path d="M294.7722989316971,36.308288069285275A297,297,0,0,1,294.5286084596938,38.23478519354286L255.0692570673752,33.11229528584923A257.2095449239783,257.2095449239783,0,0,0,255.28029920679023,31.443899835924498Z" fill-rule="evenodd" style="fill: #184B42; stroke: #fff; opacity: 1;" id="p-type-logs"></path><path d="M294.5286084596938,38.23478519354286A297,297,0,0,1,294.27232741902196,40.15964784945108L254.84731117564505,34.77927524466174A257.2095449239783,257.2095449239783,0,0,0,255.0692570673752,33.11229528584923Z" fill-rule="evenodd" style="fill: #184B42; stroke: #fff; opacity: 1;" id="p-type-logs"></path><path d="M294.27232741902196,40.15964784945108A297,297,0,0,1,294.00346676523543,42.08279375259088L254.61447101938782,36.44476845196477A257.2095449239783,257.2095449239783,0,0,0,254.84731117564505,34.77927524466174Z" fill-rule="evenodd" style="fill: #184B42; stroke: #fff; opacity: 1;" id="p-type-logs"></path><path d="M294.00346676523543,42.08279375259088A297,297,0,0,1,293.72203799164396,44.004140691931276L254.37074655210168,38.10870371091703A257.2095449239783,257.2095449239783,0,0,0,254.61447101938782,36.44476845196477Z" fill-rule="evenodd" style="fill: #184B42; stroke: #fff; opacity: 1;" id="p-type-logs"></path><path d="M293.72203799164396,44.004140691931276A297,297,0,0,1,293.4280531288217,45.92360653334376L254.11614819256957,39.77100989127671A257.2095449239783,257.2095449239783,0,0,0,254.37074655210168,38.10870371091703Z" fill-rule="evenodd" style="fill: #184B42; stroke: #fff; opacity: 1;" id="p-type-logs"></path><path d="M293.4280531288217,45.92360653334376A297,297,0,0,1,293.12152474409334,47.84110922311338L253.85068682441377,41.4316159324422A257.2095449239783,257.2095449239783,0,0,0,254.11614819256957,39.77100989127671Z" fill-rule="evenodd" style="fill: #184B42; stroke: #fff; opacity: 1;" id="p-type-logs"></path><path d="M293.12152474409334,47.84110922311338A297,297,0,0,1,292.80246594099634,49.756566791446396L253.57437379563072,43.09045084648975A257.2095449239783,257.2095449239783,0,0,0,253.85068682441377,41.4316159324422Z" fill-rule="evenodd" style="fill: #184B42; stroke: #fff; opacity: 1;" id="p-type-logs"></path><path d="M292.80246594099634,49.756566791446396A297,297,0,0,1,292.47089035872114,51.669897355974314L253.28722091810576,44.74744372120816A257.2095449239783,257.2095449239783,0,0,0,253.57437379563072,43.09045084648975Z" fill-rule="evenodd" style="fill: #184B42; stroke: #fff; opacity: 1;" id="p-type-logs"></path><path d="M292.47089035872114,51.669897355974314A297,297,0,0,1,292.1268121715279,53.58101912525427L252.98924046710832,46.40252372313006A257.2095449239783,257.2095449239783,0,0,0,253.28722091810576,44.74744372120816Z" fill-rule="evenodd" style="fill: #184B42; stroke: #fff; opacity: 1;" id="p-type-logs"></path><path d="M292.1268121715279,53.58101912525427A297,297,0,0,1,291.77024608814077,55.48985040226538L252.68044518076712,48.05562010055997A257.2095449239783,257.2095449239783,0,0,0,252.98924046710832,46.40252372313006Z" fill-rule="evenodd" style="fill: #184B42; stroke: #fff; opacity: 1;" id="p-type-logs"></path><path d="M291.77024608814077,55.48985040226538A297,297,0,0,1,291.4012073511189,57.396309587901214L252.3608482595257,49.7066621865988A257.2095449239783,257.2095449239783,0,0,0,252.68044518076712,48.05562010055997Z" fill-rule="evenodd" style="fill: #184B42; stroke: #fff; opacity: 1;" id="p-type-logs"></path><path d="M291.4012073511189,57.396309587901214A297,297,0,0,1,291.0197117362051,59.30031518445797L252.030463365578,51.35557940216469A257.2095449239783,257.2095449239783,0,0,0,252.3608482595257,49.7066621865988Z" fill-rule="evenodd" style="fill: #184B42; stroke: #fff; opacity: 1;" id="p-type-logs"></path><path d="M291.0197117362051,59.30031518445797A297,297,0,0,1,290.6257755516514,61.201785799118404L251.6893046222845,53.002301259010245A257.2095449239783,257.2095449239783,0,0,0,252.030463365578,51.35557940216469Z" fill-rule="evenodd" style="fill: #184B42; stroke: #fff; opacity: 1;" id="p-type-logs"></path><path d="M290.6257755516514,61.201785799118404A297,297,0,0,1,290.2194156375214,63.10064014743115L251.33738661356833,54.64675736273562A257.2095449239783,257.2095449239783,0,0,0,251.6893046222845,53.002301259010245Z" fill-rule="evenodd" style="fill: #184B42; stroke: #fff; opacity: 1;" id="p-type-logs"></path><path d="M290.2194156375214,63.10064014743115A297,297,0,0,1,289.8006493649713,64.99679705678554L250.9747243832918,56.288877415797906A257.2095449239783,257.2095449239783,0,0,0,251.33738661356833,54.64675736273562Z" fill-rule="evenodd" style="fill: #184B42; stroke: #fff; opacity: 1;" id="p-type-logs"></path><path d="M289.8006493649713,64.99679705678554A297,297,0,0,1,289.36949463550656,66.89017546988158L250.6013334346135,57.928591220516154A257.2095449239783,257.2095449239783,0,0,0,250.9747243832918,56.288877415797906Z" fill-rule="evenodd" style="fill: #184B42; stroke: #fff; opacity: 1;" id="p-type-logs"></path><path d="M289.36949463550656,66.89017546988158A297,297,0,0,1,288.92596988021694,68.780694448195L250.21722972932545,59.56582868207218A257.2095449239783,257.2095449239783,0,0,0,250.6013334346135,57.928591220516154Z" fill-rule="evenodd" style="fill: #184B42; stroke: #fff; opacity: 1;" id="p-type-logs"></path><path d="M288.92596988021694,68.780694448195A297,297,0,0,1,288.4700940589887,70.66827317543722L249.82242968717068,61.200519811507036A257.2095449239783,257.2095449239783,0,0,0,250.21722972932545,59.56582868207218Z" fill-rule="evenodd" style="fill: #184B42; stroke: #fff; opacity: 1;" id="p-type-logs"></path><path d="M288.4700940589887,70.66827317543722A297,297,0,0,1,288.00188665969375,72.55283096101012L249.41695018514145,62.832594728712905A257.2095449239783,257.2095449239783,0,0,0,249.82242968717068,61.200519811507036Z" fill-rule="evenodd" style="fill: #184B42; stroke: #fff; opacity: 1;" id="p-type-logs"></path><path d="M288.00188665969375,72.55283096101012A297,297,0,0,1,287.52136769735705,74.43428724345537L249.00080855675768,64.46198366542033A257.2095449239783,257.2095449239783,0,0,0,249.41695018514145,62.832594728712905Z" fill-rule="evenodd" style="fill: #184B42; stroke: #fff; opacity: 1;" id="p-type-logs"></path><path d="M287.52136769735705,74.43428724345537A297,297,0,0,1,287.0285577133005,76.31256159389838L248.5740225913261,66.08861696818069A257.2095449239783,257.2095449239783,0,0,0,249.00080855675768,64.46198366542033Z" fill-rule="evenodd" style="fill: #184B42; stroke: #fff; opacity: 1;" id="p-type-logs"></path><path d="M287.0285577133005,76.31256159389838A297,297,0,0,1,286.52347777426525,78.1875737194864L248.1366105331797,67.71242510134377A257.2095449239783,257.2095449239783,0,0,0,248.5740225913261,66.08861696818069Z" fill-rule="evenodd" style="fill: #184B42; stroke: #fff; opacity: 1;" id="p-type-logs"></path><path d="M286.52347777426525,78.1875737194864A297,297,0,0,1,286.006149471511,80.05924346682093L247.68859108089782,69.33333865003029A257.2095449239783,257.2095449239783,0,0,0,248.1366105331797,67.71242510134377Z" fill-rule="evenodd" style="fill: #184B42; stroke: #fff; opacity: 1;" id="p-type-logs"></path><path d="M286.006149471511,80.05924346682093A297,297,0,0,1,285.4765949198929,81.92749082538413L247.22998338650683,70.95128832309919A257.2095449239783,257.2095449239783,0,0,0,247.68859108089782,69.33333865003029Z" fill-rule="evenodd" style="fill: #184B42; stroke: #fff; opacity: 1;" id="p-type-logs"></path><path d="M285.4765949198929,81.92749082538413A297,297,0,0,1,284.9348367569162,83.79223593095918L246.76080705466146,72.56620495610987A257.2095449239783,257.2095449239783,0,0,0,247.22998338650683,70.95128832309919Z" fill-rule="evenodd" style="fill: #184B42; stroke: #fff; opacity: 1;" id="p-type-logs"></path><path d="M284.9348367569162,83.79223593095918A297,297,0,0,1,284.38089814176874,85.65339906904418L246.28108214180662,74.17801951427866A257.2095449239783,257.2095449239783,0,0,0,246.76080705466146,72.56620495610987Z" fill-rule="evenodd" style="fill: #184B42; stroke: #fff; opacity: 1;" id="p-type-logs"></path><path d="M284.38089814176874,85.65339906904418A297,297,0,0,1,283.8148027543308,87.51090067826001L245.79082915532018,75.78666309543004A257.2095449239783,257.2095449239783,0,0,0,246.28108214180662,74.17801951427866Z" fill-rule="evenodd" style="fill: #184B42; stroke: #fff; opacity: 1;" id="p-type-logs"></path><path d="M283.8148027543308,87.51090067826001A297,297,0,0,1,283.2365747941628,89.36466135375129L245.29006905263617,77.39206693294207A257.2095449239783,257.2095449239783,0,0,0,245.79082915532018,75.78666309543004Z" fill-rule="evenodd" style="fill: #184B42; stroke: #fff; opacity: 1;" id="p-type-logs"></path><path d="M283.2365747941628,89.36466135375129A297,297,0,0,1,282.64623897947064,91.21460185058076L244.77882324034903,78.99416239868602A257.2095449239783,257.2095449239783,0,0,0,245.29006905263617,77.39206693294207Z" fill-rule="evenodd" style="fill: #184B42; stroke: #fff; opacity: 1;" id="p-type-logs"></path><path d="M282.64623897947064,91.21460185058076A297,297,0,0,1,282.0438205460496,93.06064308711704L244.25711357329834,80.59288100596007A257.2095449239783,257.2095449239783,0,0,0,244.77882324034903,78.99416239868602Z" fill-rule="evenodd" style="fill: #184B42; stroke: #fff; opacity: 1;" id="p-type-logs"></path><path d="M282.0438205460496,93.06064308711704A297,297,0,0,1,281.4293452462049,94.90270614841508L243.7249623536348,82.1881544124171A257.2095449239783,257.2095449239783,0,0,0,244.25711357329834,80.59288100596007Z" fill-rule="evenodd" style="fill: #184B42; stroke: #fff; opacity: 1;" id="p-type-logs"></path><path d="M281.4293452462049,94.90270614841508A297,297,0,0,1,280.8028393476513,96.74071228958965L243.18239232986656,83.77991442298608A257.2095449239783,257.2095449239783,0,0,0,243.7249623536348,82.1881544124171Z" fill-rule="evenodd" style="fill: #184B42; stroke: #fff; opacity: 1;" id="p-type-logs"></path><path d="M280.8028393476513,96.74071228958965A297,297,0,0,1,280.16432963238987,98.57458293918158L242.62942669588702,85.36809299278737A257.2095449239783,257.2095449239783,0,0,0,243.18239232986656,83.77991442298608Z" fill-rule="evenodd" style="fill: #184B42; stroke: #fff; opacity: 1;" id="p-type-logs"></path><path d="M280.16432963238987,98.57458293918158A297,297,0,0,1,279.5138433955635,100.40423970251653L242.06608908998325,86.95262223004146A257.2095449239783,257.2095449239783,0,0,0,242.62942669588702,85.36809299278737Z" fill-rule="evenodd" style="fill: #184B42; stroke: #fff; opacity: 1;" id="p-type-logs"></path><path d="M279.5138433955635,100.40423970251653A297,297,0,0,1,278.8514084442897,102.22960436505628L241.4924035938254,88.53343439897127A257.2095449239783,257.2095449239783,0,0,0,242.06608908998325,86.95262223004146Z" fill-rule="evenodd" style="fill: #184B42; stroke: #fff; opacity: 1;" id="p-type-logs"></path><path d="M278.8514084442897,102.22960436505628A297,297,0,0,1,278.177053096472,104.05059889574207L240.9083947314374,90.1104619226977A257.2095449239783,257.2095449239783,0,0,0,241.4924035938254,88.53343439897127Z" fill-rule="evenodd" style="fill: #184B42; stroke: #fff; opacity: 1;" id="p-type-logs"></path><path d="M278.177053096472,104.05059889574207A297,297,0,0,1,277.4908061795896,105.86714545033055L240.3140874681485,91.68363738612842A257.2095449239783,257.2095449239783,0,0,0,240.9083947314374,90.1104619226977Z" fill-rule="evenodd" style="fill: #184B42; stroke: #fff; opacity: 1;" id="p-type-logs"></path><path d="M277.4908061795896,105.86714545033055A297,297,0,0,1,276.79269702946476,107.67916637472132L239.70950720952604,93.25289353883977A257.2095449239783,257.2095449239783,0,0,0,240.3140874681485,91.68363738612842Z" fill-rule="evenodd" style="fill: #184B42; stroke: #fff; opacity: 1;" id="p-type-logs"></path><path d="M276.79269702946476,107.67916637472132A297,297,0,0,1,276.08275548900906,109.48658420827651L239.09467980028955,94.81816329795161A257.2095449239783,257.2095449239783,0,0,0,239.70950720952604,93.25289353883977Z" fill-rule="evenodd" style="fill: #184B42; stroke: #fff; opacity: 1;" id="p-type-logs"></path><path d="M276.08275548900906,109.48658420827651A297,297,0,0,1,275.3610119069474,111.2893216871321L238.46963152320575,96.37937975099487A257.2095449239783,257.2095449239783,0,0,0,239.09467980028955,94.81816329795161Z" fill-rule="evenodd" style="fill: #184B42; stroke: #fff; opacity: 1;" id="p-type-logs"></path><path d="M275.3610119069474,111.2893216871321A297,297,0,0,1,274.6274971365207,113.0873017475009L237.8343890979651,97.93647615877212A257.2095449239783,257.2095449239783,0,0,0,238.46963152320575,96.37937975099487Z" fill-rule="evenodd" style="fill: #184B42; stroke: #fff; opacity: 1;" id="p-type-logs"></path><path d="M274.6274971365207,113.0873017475009A297,297,0,0,1,273.88224253416706,114.88044752896673L237.1889796800396,99.48938595821042A257.2095449239783,257.2095449239783,0,0,0,237.8343890979651,97.93647615877212Z" fill-rule="evenodd" style="fill: #184B42; stroke: #fff; opacity: 1;" id="p-type-logs"></path><path d="M273.88224253416706,114.88044752896673A297,297,0,0,1,273.1252799581814,116.66868237777017L236.5334308595219,101.03804276520684A257.2095449239783,257.2095449239783,0,0,0,237.1889796800396,99.48938595821042Z" fill-rule="evenodd" style="fill: #184B42; stroke: #fff; opacity: 1;" id="p-type-logs"></path><path d="M273.1252799581814,116.66868237777017A297,297,0,0,1,272.3566417673534,118.45192985008535L235.86777065994593,102.58238037746618A257.2095449239783,257.2095449239783,0,0,0,236.5334308595219,101.03804276520684Z" fill-rule="evenodd" style="fill: #184B42; stroke: #fff; opacity: 1;" id="p-type-logs"></path><path d="M272.3566417673534,118.45192985008535A297,297,0,0,1,271.5763608195842,120.2301137152878L235.1920275370888,104.1223327773311A257.2095449239783,257.2095449239783,0,0,0,235.86777065994593,102.58238037746618Z" fill-rule="evenodd" style="fill: #184B42; stroke: #fff; opacity: 1;" id="p-type-logs"></path><path d="M271.5763608195842,120.2301137152878A297,297,0,0,1,270.78447047048195,122.00315795921308L234.50623037775452,105.65783413460417A257.2095449239783,257.2095449239783,0,0,0,235.1920275370888,104.1223327773311Z" fill-rule="evenodd" style="fill: #184B42; stroke: #fff; opacity: 1;" id="p-type-logs"></path><path d="M270.78447047048195,122.00315795921308A297,297,0,0,1,269.9810045719359,123.77098678740639L233.81040849853918,107.18881880936203A257.2095449239783,257.2095449239783,0,0,0,234.50623037775452,105.65783413460417Z" fill-rule="evenodd" style="fill: #184B42; stroke: #fff; opacity: 1;" id="p-type-logs"></path><path d="M269.9810045719359,123.77098678740639A297,297,0,0,1,269.1659974706692,125.53352462836257L233.10459164457748,108.71522135476147A257.2095449239783,257.2095449239783,0,0,0,233.81040849853918,107.18881880936203Z" fill-rule="evenodd" style="fill: #184B42; stroke: #fff; opacity: 1;" id="p-type-logs"></path><path d="M269.1659974706692,125.53352462836257A297,297,0,0,1,268.3394840067706,127.29069613675667L232.38880998827142,110.23697651983697A257.2095449239783,257.2095449239783,0,0,0,233.10459164457748,108.71522135476147Z" fill-rule="evenodd" style="fill: #184B42; stroke: #fff; opacity: 1;" id="p-type-logs"></path><path d="M268.3394840067706,127.29069613675667A297,297,0,0,1,267.5014995122052,129.0424261966648L231.66309412800035,111.75401925229025A257.2095449239783,257.2095449239783,0,0,0,232.38880998827142,110.23697651983697Z" fill-rule="evenodd" style="fill: #184B42; stroke: #fff; opacity: 1;" id="p-type-logs"></path><path d="M267.5014995122052,129.0424261966648A297,297,0,0,1,266.65207980930415,130.78863992477517L230.92747508681302,113.26628470127096A257.2095449239783,257.2095449239783,0,0,0,231.66309412800035,111.75401925229025Z" fill-rule="evenodd" style="fill: #184B42; stroke: #fff; opacity: 1;" id="p-type-logs"></path><path d="M266.65207980930415,130.78863992477517A297,297,0,0,1,265.7912612092331,132.5292626735893L230.18198431110127,114.77370822014912A257.2095449239783,257.2095449239783,0,0,0,230.92747508681302,113.26628470127096Z" fill-rule="evenodd" style="fill: #184B42; stroke: #fff; opacity: 1;" id="p-type-logs"></path><path d="M265.7912612092331,132.5292626735893A297,297,0,0,1,264.91908051044004,134.26422003461306L229.42665366925604,116.2762253692785A257.2095449239783,257.2095449239783,0,0,0,230.18198431110127,114.77370822014912Z" fill-rule="evenodd" style="fill: #184B42; stroke: #fff; opacity: 1;" id="p-type-logs"></path><path d="M264.91908051044004,134.26422003461306A297,297,0,0,1,264.03557499708234,135.9934378415374L228.66151545030468,117.7737719187514A257.2095449239783,257.2095449239783,0,0,0,229.42665366925604,116.2762253692785Z" fill-rule="evenodd" style="fill: #184B42; stroke: #fff; opacity: 1;" id="p-type-logs"></path><path d="M264.03557499708234,135.9934378415374A297,297,0,0,1,263.14078243743285,137.71684217340893L227.8866023625309,119.26628385114428A257.2095449239783,257.2095449239783,0,0,0,228.66151545030468,117.7737719187514Z" fill-rule="evenodd" style="fill: #184B42; stroke: #fff; opacity: 1;" id="p-type-logs"></path><path d="M263.14078243743285,137.71684217340893A297,297,0,0,1,262.2347410822653,139.43435935778987L227.10194753207654,120.75369736425449A257.2095449239783,257.2095449239783,0,0,0,227.8866023625309,119.26628385114428Z" fill-rule="evenodd" style="fill: #184B42; stroke: #fff; opacity: 1;" id="p-type-logs"></path><path d="M262.2347410822653,139.43435935778987A297,297,0,0,1,261.3174896632192,141.14591597390736L226.30758450152527,122.23594887382758A257.2095449239783,257.2095449239783,0,0,0,227.10194753207654,120.75369736425449Z" fill-rule="evenodd" style="fill: #184B42; stroke: #fff; opacity: 1;" id="p-type-logs"></path><path d="M261.3174896632192,141.14591597390736A297,297,0,0,1,260.38906739114424,142.85143885579222L225.5035472284691,123.71297501627551A257.2095449239783,257.2095449239783,0,0,0,226.30758450152527,122.23594887382758Z" fill-rule="evenodd" style="fill: #184B42; stroke: #fff; opacity: 1;" id="p-type-logs"></path><path d="M260.38906739114424,142.85143885579222A297,297,0,0,1,259.4495139544239,144.5508550954065L224.6898700840563,125.18471265138528A257.2095449239783,257.2095449239783,0,0,0,225.5035472284691,123.71297501627551Z" fill-rule="evenodd" style="fill: #184B42; stroke: #fff; opacity: 1;" id="p-type-logs"></path><path d="M259.4495139544239,144.5508550954065A297,297,0,0,1,258.498869517279,146.24409204576017L223.86658785152244,126.65109886501806A257.2095449239783,257.2095449239783,0,0,0,224.6898700840563,125.18471265138528Z" fill-rule="evenodd" style="fill: #184B42; stroke: #fff; opacity: 1;" id="p-type-logs"></path><path d="M258.498869517279,146.24409204576017A297,297,0,0,1,257.5371747180506,147.93107732401685L223.03373572470332,128.11207097179872A257.2095449239783,257.2095449239783,0,0,0,223.86658785152244,126.65109886501806Z" fill-rule="evenodd" style="fill: #184B42; stroke: #fff; opacity: 1;" id="p-type-logs"></path><path d="M257.5371747180506,147.93107732401685A297,297,0,0,1,256.5644706674631,149.61173881458785L222.19134930653053,129.56756651779543A257.2095449239783,257.2095449239783,0,0,0,223.03373572470332,128.11207097179872Z" fill-rule="evenodd" style="fill: #184B42; stroke: #fff; opacity: 1;" id="p-type-logs"></path><path d="M256.5644706674631,149.61173881458785A297,297,0,0,1,255.58079894686642,151.286004672215L221.33946460750943,131.01752328318946A257.2095449239783,257.2095449239783,0,0,0,222.19134930653053,129.56756651779543Z" fill-rule="evenodd" style="fill: #184B42; stroke: #fff; opacity: 1;" id="p-type-logs"></path><path d="M255.58079894686642,151.286004672215A297,297,0,0,1,254.58620160645862,152.95380332504195L220.4781180441798,132.46187928493507A257.2095449239783,257.2095449239783,0,0,0,221.33946460750943,131.01752328318946Z" fill-rule="evenodd" style="fill: #184B42; stroke: #fff; opacity: 1;" id="p-type-logs"></path><path d="M254.58620160645862,152.95380332504195A297,297,0,0,1,253.58072116348853,154.61506347767377L219.6073464375593,133.90057277940903A257.2095449239783,257.2095449239783,0,0,0,220.4781180441798,132.46187928493507Z" fill-rule="evenodd" style="fill: #184B42; stroke: #fff; opacity: 1;" id="p-type-logs"></path><path d="M253.58072116348853,154.61506347767377A297,297,0,0,1,252.56440060043795,156.26971411422463L218.727187011569,135.3335422650502A257.2095449239783,257.2095449239783,0,0,0,219.6073464375593,133.90057277940903Z" fill-rule="evenodd" style="fill: #184B42; stroke: #fff; opacity: 1;" id="p-type-logs"></path><path d="M252.56440060043795,156.26971411422463A297,297,0,0,1,251.53728336318437,157.91768450135368L217.83767739144253,136.76072648498842A257.2095449239783,257.2095449239783,0,0,0,218.727187011569,135.3335422650502Z" fill-rule="evenodd" style="fill: #184B42; stroke: #fff; opacity: 1;" id="p-type-logs"></path><path d="M251.53728336318437,157.91768450135368A297,297,0,0,1,250.49941335914372,159.5589041912887L216.93885560211746,138.18206442966334A257.2095449239783,257.2095449239783,0,0,0,217.83767739144253,136.76072648498842Z" fill-rule="evenodd" style="fill: #184B42; stroke: #fff; opacity: 1;" id="p-type-logs"></path><path d="M250.49941335914372,159.5589041912887A297,297,0,0,1,249.45083495539336,161.19330302483758L216.0307600666099,139.59749533943236A257.2095449239783,257.2095449239783,0,0,0,216.93885560211746,138.18206442966334Z" fill-rule="evenodd" style="fill: #184B42; stroke: #fff; opacity: 1;" id="p-type-logs"></path><path d="M249.45083495539336,161.19330302483758A297,297,0,0,1,248.39159297677543,162.82081113438764L215.11342960437187,141.00695870716788A257.2095449239783,257.2095449239783,0,0,0,216.0307600666099,139.59749533943236Z" fill-rule="evenodd" style="fill: #184B42; stroke: #fff; opacity: 1;" id="p-type-logs"></path><path d="M248.39159297677543,162.82081113438764A297,297,0,0,1,247.3217327039808,164.44135894689228L214.186903429632,142.4103942808442A257.2095449239783,257.2095449239783,0,0,0,215.11342960437187,141.00695870716788Z" fill-rule="evenodd" style="fill: #184B42; stroke: #fff; opacity: 1;" id="p-type-logs"></path><path d="M247.3217327039808,164.44135894689228A297,297,0,0,1,246.2412998716134,166.054877186845L213.25122114971904,143.8077420661128A257.2095449239783,257.2095449239783,0,0,0,214.186903429632,142.4103942808442Z" fill-rule="evenodd" style="fill: #184B42; stroke: #fff; opacity: 1;" id="p-type-logs"></path><path d="M96.29797197012635,280.9549796576682A297,297,0,0,1,92.61595122221912,282.19015854420496L80.2077665541022,244.38384599723986A257.2095449239783,257.2095449239783,0,0,0,83.39649005905123,243.3141497032809Z" fill-rule="evenodd" style="fill: #AE497E; stroke: #fff; opacity: 1;" id="p-type-tokenTransfers"></path><path d="M92.61595122221912,282.19015854420496A297,297,0,0,1,90.76896270697904,282.7896663760878L78.60822757940618,244.90303500941812A257.2095449239783,257.2095449239783,0,0,0,80.2077665541022,244.38384599723986Z" fill-rule="evenodd" style="fill: #AE497E; stroke: #fff; opacity: 1;" id="p-type-tokenTransfers"></path><path d="M90.76896270697904,282.7896663760878A297,297,0,0,1,88.91809398171821,283.3770854579783L77.00532824426018,245.41175485700302A257.2095449239783,257.2095449239783,0,0,0,78.60822757940618,244.90303500941812Z" fill-rule="evenodd" style="fill: #AE497E; stroke: #fff; opacity: 1;" id="p-type-tokenTransfers"></path><path d="M88.91809398171821,283.3770854579783A297,297,0,0,1,87.06342416774818,283.9523906787664L75.39913706972997,245.90998379313532A257.2095449239783,257.2095449239783,0,0,0,77.00532824426018,245.41175485700302Z" fill-rule="evenodd" style="fill: #AE497E; stroke: #fff; opacity: 1;" id="p-type-tokenTransfers"></path><path d="M87.06342416774818,283.9523906787664A297,297,0,0,1,85.20503254887018,284.5155574451878L73.78972271760153,246.39770051942344A257.2095449239783,257.2095449239783,0,0,0,75.39913706972997,245.90998379313532Z" fill-rule="evenodd" style="fill: #AE497E; stroke: #fff; opacity: 1;" id="p-type-tokenTransfers"></path><path d="M85.20503254887018,284.5155574451878A297,297,0,0,1,83.34299856798587,285.0665616828756L72.17715398744586,246.87488418685393A257.2095449239783,257.2095449239783,0,0,0,73.78972271760153,246.39770051942344Z" fill-rule="evenodd" style="fill: #AE497E; stroke: #fff; opacity: 1;" id="p-type-tokenTransfers"></path><path d="M83.34299856798587,285.0665616828756A297,297,0,0,1,81.47740182370146,285.60537983738874L70.56149981367801,247.34151439668256A257.2095449239783,257.2095449239783,0,0,0,72.17715398744586,246.87488418685393Z" fill-rule="evenodd" style="fill: #AE497E; stroke: #fff; opacity: 1;" id="p-type-tokenTransfers"></path><path d="M81.47740182370146,285.60537983738874A297,297,0,0,1,79.60832206692473,286.1319888752196L68.94282926261012,247.79757120130657A257.2095449239783,257.2095449239783,0,0,0,70.56149981367801,247.34151439668256Z" fill-rule="evenodd" style="fill: #AE497E; stroke: #fff; opacity: 1;" id="p-type-tokenTransfers"></path><path d="M79.60832206692473,286.1319888752196A297,297,0,0,1,77.73583919745612,286.64636628477825L67.32121152949912,248.24303510511717A257.2095449239783,257.2095449239783,0,0,0,68.94282926261012,247.79757120130657Z" fill-rule="evenodd" style="fill: #AE497E; stroke: #fff; opacity: 1;" id="p-type-tokenTransfers"></path><path d="M77.73583919745612,286.64636628477825A297,297,0,0,1,75.86003326057296,287.1484900773549L65.69671593558864,248.67788706533312A257.2095449239783,257.2095449239783,0,0,0,67.32121152949912,248.24303510511717Z" fill-rule="evenodd" style="fill: #AE497E; stroke: #fff; opacity: 1;" id="p-type-tokenTransfers"></path><path d="M75.86003326057296,287.1484900773549A297,297,0,0,1,73.98098444360774,287.6383387880598L64.06941192514567,249.10210849281466A257.2095449239783,257.2095449239783,0,0,0,65.69671593558864,248.67788706533312Z" fill-rule="evenodd" style="fill: #AE497E; stroke: #fff; opacity: 1;" id="p-type-tokenTransfers"></path><path d="M73.98098444360774,287.6383387880598A297,297,0,0,1,72.09877307252027,288.11589147674107L62.439369062491984,249.5156812528582A257.2095449239783,257.2095449239783,0,0,0,64.06941192514567,249.10210849281466Z" fill-rule="evenodd" style="fill: #AE497E; stroke: #fff; opacity: 1;" id="p-type-tokenTransfers"></path><path d="M72.09877307252027,288.11589147674107A297,297,0,0,1,70.21347960846384,288.58112772887944L60.806657029030355,249.91858766597147A257.2095449239783,257.2095449239783,0,0,0,62.439369062491984,249.5156812528582Z" fill-rule="evenodd" style="fill: #AE497E; stroke: #fff; opacity: 1;" id="p-type-tokenTransfers"></path><path d="M70.21347960846384,288.58112772887944A297,297,0,0,1,68.3251846443457,289.0340276564614L59.17134562026582,250.31081050862954A257.2095449239783,257.2095449239783,0,0,0,60.806657029030355,249.91858766597147Z" fill-rule="evenodd" style="fill: #AE497E; stroke: #fff; opacity: 1;" id="p-type-tokenTransfers"></path><path d="M68.3251846443457,289.0340276564614A297,297,0,0,1,66.4339689013818,289.47457189882886L57.53350474282202,250.69233301401079A257.2095449239783,257.2095449239783,0,0,0,59.17134562026582,250.31081050862954Z" fill-rule="evenodd" style="fill: #AE497E; stroke: #fff; opacity: 1;" id="p-type-tokenTransfers"></path><path d="M66.4339689013818,289.47457189882886A297,297,0,0,1,64.53991322564616,289.9027416235073L55.89320441145285,251.06313887271375A257.2095449239783,257.2095449239783,0,0,0,57.53350474282202,250.69233301401079Z" fill-rule="evenodd" style="fill: #AE497E; stroke: #fff; opacity: 1;" id="p-type-tokenTransfers"></path><path d="M64.53991322564616,289.9027416235073A297,297,0,0,1,62.64309858461481,290.31851852701067L54.25051474604944,251.42321223345445A257.2095449239783,257.2095449239783,0,0,0,55.89320441145285,251.06313887271375Z" fill-rule="evenodd" style="fill: #AE497E; stroke: #fff; opacity: 1;" id="p-type-tokenTransfers"></path><path d="M62.64309858461481,290.31851852701067A297,297,0,0,1,60.74360606370462,290.72188483562337L52.60550596864267,251.77253770374384A257.2095449239783,257.2095449239783,0,0,0,54.25051474604944,251.42321223345445Z" fill-rule="evenodd" style="fill: #AE497E; stroke: #fff; opacity: 1;" id="p-type-tokenTransfers"></path><path d="M60.74360606370462,290.72188483562337A297,297,0,0,1,58.84151686280695,291.1128233061608L50.958248400401246,252.11110035054585A257.2095449239783,257.2095449239783,0,0,0,52.60550596864267,251.77253770374384Z" fill-rule="evenodd" style="fill: #AE497E; stroke: #fff; opacity: 1;" id="p-type-tokenTransfers"></path><path d="M58.84151686280695,291.1128233061608A297,297,0,0,1,56.93691229281662,291.4913172267059L49.30881245862568,252.4388857009159A257.2095449239783,257.2095449239783,0,0,0,50.958248400401246,252.11110035054585Z" fill-rule="evenodd" style="fill: #AE497E; stroke: #fff; opacity: 1;" id="p-type-tokenTransfers"></path><path d="M56.93691229281662,291.4913172267059A297,297,0,0,1,55.02987377215593,291.85735041732386L47.65726865373803,252.75587974261933A257.2095449239783,257.2095449239783,0,0,0,49.30881245862568,252.4388857009159Z" fill-rule="evenodd" style="fill: #AE497E; stroke: #fff; opacity: 1;" id="p-type-tokenTransfers"></path><path d="M55.02987377215593,291.85735041732386A297,297,0,0,1,53.12048282329422,292.2109072307536L46.00368758626771,253.06206892473057A257.2095449239783,257.2095449239783,0,0,0,47.65726865373803,252.75587974261933Z" fill-rule="evenodd" style="fill: #AE497E; stroke: #fff; opacity: 1;" id="p-type-tokenTransfers"></path><path d="M53.12048282329422,292.2109072307536A297,297,0,0,1,51.20882106926286,292.55197255307684L44.34813994383344,253.35744015821237A257.2095449239783,257.2095449239783,0,0,0,46.00368758626771,253.06206892473057Z" fill-rule="evenodd" style="fill: #AE497E; stroke: #fff; opacity: 1;" id="p-type-tokenTransfers"></path><path d="M51.20882106926286,292.55197255307684A297,297,0,0,1,49.294970230166115,292.88053180436395L42.6906964981215,253.6419808164754A257.2095449239783,257.2095449239783,0,0,0,44.34813994383344,253.35744015821237Z" fill-rule="evenodd" style="fill: #AE497E; stroke: #fff; opacity: 1;" id="p-type-tokenTransfers"></path><path d="M49.294970230166115,292.88053180436395A297,297,0,0,1,47.37901211968768,293.19657093929743L41.031428101860335,253.91567873591788A257.2095449239783,257.2095449239783,0,0,0,42.6906964981215,253.6419808164754Z" fill-rule="evenodd" style="fill: #AE497E; stroke: #fff; opacity: 1;" id="p-type-tokenTransfers"></path><path d="M47.37901211968768,293.19657093929743A297,297,0,0,1,45.461028641593295,293.5000764477724L39.370405685791766,254.1785222164457A257.2095449239783,257.2095449239783,0,0,0,41.031428101860335,253.91567873591788Z" fill-rule="evenodd" style="fill: #AE497E; stroke: #fff; opacity: 1;" id="p-type-tokenTransfers"></path><path d="M45.461028641593295,293.5000764477724A297,297,0,0,1,43.54110178622955,293.7910353554737L37.707700255638784,254.43050002197242A257.2095449239783,257.2095449239783,0,0,0,39.370405685791766,254.1785222164457Z" fill-rule="evenodd" style="fill: #AE497E; stroke: #fff; opacity: 1;" id="p-type-tokenTransfers"></path><path d="M43.54110178622955,293.7910353554737A297,297,0,0,1,41.61931362701891,294.06943522443106L36.043382889070244,254.67160138089972A257.2095449239783,257.2095449239783,0,0,0,37.707700255638784,254.43050002197242Z" fill-rule="evenodd" style="fill: #AE497E; stroke: #fff; opacity: 1;" id="p-type-tokenTransfers"></path><path d="M41.61931362701891,294.06943522443106A297,297,0,0,1,39.69574631695125,294.3352641535503L34.37752473266235,254.90181598657784A257.2095449239783,257.2095449239783,0,0,0,36.043382889070244,254.67160138089972Z" fill-rule="evenodd" style="fill: #AE497E; stroke: #fff; opacity: 1;" id="p-type-tokenTransfers"></path><path d="M39.69574631695125,294.3352641535503A297,297,0,0,1,37.770482085071926,294.58851077912266L32.71019699885732,255.12113399774617A257.2095449239783,257.2095449239783,0,0,0,34.37752473266235,254.90181598657784Z" fill-rule="evenodd" style="fill: #AE497E; stroke: #fff; opacity: 1;" id="p-type-tokenTransfers"></path><path d="M37.770482085071926,294.58851077912266A297,297,0,0,1,35.84360323296666,294.8291642753099L31.041470962919163,255.32954603895385A257.2095449239783,257.2095449239783,0,0,0,32.71019699885732,255.12113399774617Z" fill-rule="evenodd" style="fill: #AE497E; stroke: #fff; opacity: 1;" id="p-type-tokenTransfers"></path><path d="M35.84360323296666,294.8291642753099A297,297,0,0,1,33.91519213124328,295.0572143546076L29.37141795988678,255.52704320096072A257.2095449239783,257.2095449239783,0,0,0,31.041470962919163,255.32954603895385Z" fill-rule="evenodd" style="fill: #AE497E; stroke: #fff; opacity: 1;" id="p-type-tokenTransfers"></path><path d="M33.91519213124328,295.0572143546076A297,297,0,0,1,31.98533121601055,295.27265126828473L27.70010938152455,255.71361704111806A257.2095449239783,257.2095449239783,0,0,0,29.37141795988678,255.52704320096072Z" fill-rule="evenodd" style="fill: #AE497E; stroke: #fff; opacity: 1;" id="p-type-tokenTransfers"></path><path d="M31.98533121601055,295.27265126828473A297,297,0,0,1,30.054102985354138,295.4754658068005L26.02761667327042,255.8892595837295A257.2095449239783,257.2095449239783,0,0,0,27.70010938152455,255.71361704111806Z" fill-rule="evenodd" style="fill: #AE497E; stroke: #fff; opacity: 1;" id="p-type-tokenTransfers"></path><path d="M30.054102985354138,295.4754658068005A297,297,0,0,1,28.12158999580999,295.6656493001978L24.354011331181777,256.05396332039203A257.2095449239783,257.2095449239783,0,0,0,26.02761667327042,255.8892595837295Z" fill-rule="evenodd" style="fill: #AE497E; stroke: #fff; opacity: 1;" id="p-type-tokenTransfers"></path><path d="M28.12158999580999,295.6656493001978A297,297,0,0,1,26.187874858835194,295.8431936184741L22.6793648988791,256.20772121031695A257.2095449239783,257.2095449239783,0,0,0,24.354011331181777,256.05396332039203Z" fill-rule="evenodd" style="fill: #AE497E; stroke: #fff; opacity: 1;" id="p-type-tokenTransfers"></path><path d="M26.187874858835194,295.8431936184741A297,297,0,0,1,24.253040237276483,296.00809117192904L21.003748964487603,256.35052668063076A257.2095449239783,257.2095449239783,0,0,0,22.6793648988791,256.20772121031695Z" fill-rule="evenodd" style="fill: #AE497E; stroke: #fff; opacity: 1;" id="p-type-tokenTransfers"></path><path d="M24.253040237276483,296.00809117192904A297,297,0,0,1,22.317168841836526,296.16033491148835L19.327235157576972,256.4823736266563A257.2095449239783,257.2095449239783,0,0,0,21.003748964487603,256.35052668063076Z" fill-rule="evenodd" style="fill: #AE497E; stroke: #fff; opacity: 1;" id="p-type-tokenTransfers"></path><path d="M22.317168841836526,296.16033491148835A297,297,0,0,1,20.38034342753823,296.29991832900595L17.649895146099325,256.60325641217355A257.2095449239783,257.2095449239783,0,0,0,19.327235157576972,256.4823736266563Z" fill-rule="evenodd" style="fill: #AE497E; stroke: #fff; opacity: 1;" id="p-type-tokenTransfers"></path><path d="M20.38034342753823,296.29991832900595A297,297,0,0,1,18.442646790187084,296.42683545754153L15.97180063332555,256.71316986966076A257.2095449239783,257.2095449239783,0,0,0,17.649895146099325,256.60325641217355Z" fill-rule="evenodd" style="fill: #AE497E; stroke: #fff; opacity: 1;" id="p-type-tokenTransfers"></path><path d="M18.442646790187084,296.42683545754153A297,297,0,0,1,16.5041617628318,296.541080871616L14.293023354780102,256.8121093005151A257.2095449239783,257.2095449239783,0,0,0,15.97180063332555,256.71316986966076Z" fill-rule="evenodd" style="fill: #AE497E; stroke: #fff; opacity: 1;" id="p-type-tokenTransfers"></path><path d="M16.5041617628318,296.541080871616A297,297,0,0,1,14.564971212223345,296.6426496874431L12.613635075174447,256.9000704752537A257.2095449239783,257.2095449239783,0,0,0,14.293023354780102,256.8121093005151Z" fill-rule="evenodd" style="fill: #AE497E; stroke: #fff; opacity: 1;" id="p-type-tokenTransfers"></path><path d="M14.564971212223345,296.6426496874431A297,297,0,0,1,12.625158035272536,296.7315375631387L10.93370758533925,256.97704963369455A257.2095449239783,257.2095449239783,0,0,0,12.613635075174447,256.9000704752537Z" fill-rule="evenodd" style="fill: #AE497E; stroke: #fff; opacity: 1;" id="p-type-tokenTransfers"></path><path d="M12.625158035272536,296.7315375631387A297,297,0,0,1,10.684805155506353,296.8077406989058L9.25331269915544,257.0430434851168A257.2095449239783,257.2095449239783,0,0,0,10.93370758533925,256.97704963369455Z" fill-rule="evenodd" style="fill: #AE497E; stroke: #fff; opacity: 1;" id="p-type-tokenTransfers"></path><path d="M10.684805155506353,296.8077406989058A297,297,0,0,1,8.743995519523091,296.87125583719717L7.572522250484307,257.0980492084021A257.2095449239783,257.2095449239783,0,0,0,9.25331269915544,257.0430434851168Z" fill-rule="evenodd" style="fill: #AE497E; stroke: #fff; opacity: 1;" id="p-type-tokenTransfers"></path><path d="M8.743995519523091,296.87125583719717A297,297,0,0,1,6.802812093446561,296.92208026285493L5.8914080900967205,257.14206445215444A257.2095449239783,257.2095449239783,0,0,0,7.572522250484307,257.0980492084021Z" fill-rule="evenodd" style="fill: #AE497E; stroke: #fff; opacity: 1;" id="p-type-tokenTransfers"></path><path d="M6.802812093446561,296.92208026285493A297,297,0,0,1,4.861337859379426,296.96021180322623L4.210042082601646,257.1750873348014A257.2095449239783,257.2095449239783,0,0,0,5.8914080900967205,257.14206445215444Z" fill-rule="evenodd" style="fill: #AE497E; stroke: #fff; opacity: 1;" id="p-type-tokenTransfers"></path><path d="M4.861337859379426,296.96021180322623A297,297,0,0,1,2.919655811855867,296.98564882825616L2.52849610337406,257.19711644467407A257.2095449239783,257.2095449239783,0,0,0,4.210042082601646,257.1750873348014Z" fill-rule="evenodd" style="fill: #AE497E; stroke: #fff; opacity: 1;" id="p-type-tokenTransfers"></path><path d="M2.919655811855867,296.98564882825616A297,297,0,0,1,0.9778489542937175,296.99839025055775L0.8468420354824079,257.20815084006756A257.2095449239783,257.2095449239783,0,0,0,2.52849610337406,257.19711644467407Z" fill-rule="evenodd" style="fill: #AE497E; stroke: #fff; opacity: 1;" id="p-type-tokenTransfers"></path><path d="M0.9778489542937175,296.99839025055775A297,297,0,0,1,-0.9639997045537837,296.998435525458L-0.83484823338427,257.2081900492813A257.2095449239783,257.2095449239783,0,0,0,0.8468420354824079,257.20815084006756Z" fill-rule="evenodd" style="fill: #AE497E; stroke: #fff; opacity: 1;" id="p-type-tokenTransfers"></path><path d="M-0.9639997045537837,296.998435525458A297,297,0,0,1,-2.905807154146469,296.9857846510215L-2.5165028139894066,257.19723407063924A257.2095449239783,257.2095449239783,0,0,0,-0.83484823338427,257.2081900492813Z" fill-rule="evenodd" style="fill: #AE497E; stroke: #fff; opacity: 1;" id="p-type-tokenTransfers"></path><path d="M-2.905807154146469,296.9857846510215A297,297,0,0,1,-4.847490385705791,296.9604381680504L-4.198049818622042,257.1752833724897A257.2095449239783,257.2095449239783,0,0,0,-2.5165028139894066,257.19723407063924Z" fill-rule="evenodd" style="fill: #AE497E; stroke: #fff; opacity: 1;" id="p-type-tokenTransfers"></path><path d="M-4.847490385705791,296.9604381680504A297,297,0,0,1,-6.788966395763302,296.92239716006134L-5.879417364169899,257.1423388931856A257.2095449239783,257.2095449239783,0,0,0,-4.198049818622042,257.1752833724897Z" fill-rule="evenodd" style="fill: #AE497E; stroke: #fff; opacity: 1;" id="p-type-tokenTransfers"></path><path d="M-6.788966395763302,296.92239716006134A297,297,0,0,1,-8.7301521897089,296.871663253239L-7.560533575192251,257.0984020410442A257.2095449239783,257.2095449239783,0,0,0,-5.879417364169899,257.1423388931856Z" fill-rule="evenodd" style="fill: #AE497E; stroke: #fff; opacity: 1;" id="p-type-tokenTransfers"></path><path d="M-8.7301521897089,296.871663253239A297,297,0,0,1,-10.670964785338695,296.8082386163667L-9.24132658699247,257.043474694287A257.2095449239783,257.2095449239783,0,0,0,-7.560533575192251,257.0984020410442Z" fill-rule="evenodd" style="fill: #AE497E; stroke: #fff; opacity: 1;" id="p-type-tokenTransfers"></path><path d="M-10.670964785338695,296.8082386163667A297,297,0,0,1,-12.611321216402368,296.7321259607337L-10.92172454869012,256.9775592009593A257.2095449239783,257.2095449239783,0,0,0,-9.24132658699247,257.043474694287Z" fill-rule="evenodd" style="fill: #AE497E; stroke: #fff; opacity: 1;" id="p-type-tokenTransfers"></path><path d="M-12.611321216402368,296.7321259607337A297,297,0,0,1,-14.551138536149802,296.6433285400192L-12.601655626292438,256.90065837883003A257.2095449239783,257.2095449239783,0,0,0,-10.92172454869012,256.9775592009593Z" fill-rule="evenodd" style="fill: #AE497E; stroke: #fff; opacity: 1;" id="p-type-tokenTransfers"></path><path d="M-14.551138536149802,296.6433285400192A297,297,0,0,1,-16.49033382087692,296.5418501501534L-14.281048005765122,256.8127755152711A257.2095449239783,257.2095449239783,0,0,0,-12.601655626292438,256.90065837883003Z" fill-rule="evenodd" style="fill: #AE497E; stroke: #fff; opacity: 1;" id="p-type-tokenTransfers"></path><path d="M-16.49033382087692,296.5418501501534A297,297,0,0,1,-18.428824173470538,296.4276951291551L-15.959829896102248,256.713914367117A257.2095449239783,257.2095449239783,0,0,0,-14.281048005765122,256.8127755152711Z" fill-rule="evenodd" style="fill: #AE497E; stroke: #fff; opacity: 1;" id="p-type-tokenTransfers"></path><path d="M-18.428824173470538,296.4276951291551A297,297,0,0,1,-20.36652672695204,296.3008683569462L-17.6379295323952,256.6040791605041A257.2095449239783,257.2095449239783,0,0,0,-15.959829896102248,256.713914367117Z" fill-rule="evenodd" style="fill: #AE497E; stroke: #fff; opacity: 1;" id="p-type-tokenTransfers"></path><path d="M-20.36652672695204,296.3008683569462A297,297,0,0,1,-22.303358648019806,296.1613752551433L-19.315275178900507,256.48327459069014A257.2095449239783,257.2095449239783,0,0,0,-17.6379295323952,256.6040791605041Z" fill-rule="evenodd" style="fill: #AE497E; stroke: #fff; opacity: 1;" id="p-type-tokenTransfers"></path><path d="M-22.303358648019806,296.1613752551433A297,297,0,0,1,-24.239237140590202,296.00922178682583L-20.991795132106393,256.35150582185327A257.2095449239783,257.2095449239783,0,0,0,-19.315275178900507,256.48327459069014Z" fill-rule="evenodd" style="fill: #AE497E; stroke: #fff; opacity: 1;" id="p-type-tokenTransfers"></path><path d="M-24.239237140590202,296.00922178682583A297,297,0,0,1,-26.17407944933693,295.8444144562811L-22.667417723797993,256.20877848687167A257.2095449239783,257.2095449239783,0,0,0,-20.991795132106393,256.35150582185327Z" fill-rule="evenodd" style="fill: #AE497E; stroke: #fff; opacity: 1;" id="p-type-tokenTransfers"></path><path d="M-26.17407944933693,295.8444144562811A297,297,0,0,1,-28.1078028632287,295.66696030872623L-24.342071324121036,256.0550986870822A257.2095449239783,257.2095449239783,0,0,0,-22.667417723797993,256.20877848687167Z" fill-rule="evenodd" style="fill: #AE497E; stroke: #fff; opacity: 1;" id="p-type-tokenTransfers"></path><path d="M-28.1078028632287,295.66696030872623A297,297,0,0,1,-30.04032471906496,295.47686693000713L-26.015684344643883,255.89047299202028A257.2095449239783,257.2095449239783,0,0,0,-24.342071324121036,256.0550986870822Z" fill-rule="evenodd" style="fill: #AE497E; stroke: #fff; opacity: 1;" id="p-type-tokenTransfers"></path><path d="M-30.04032471906496,295.47686693000713A297,297,0,0,1,-31.971562405009607,295.27414244627414L-27.688185241417827,255.7149084391384A257.2095449239783,257.2095449239783,0,0,0,-26.015684344643883,255.89047299202028Z" fill-rule="evenodd" style="fill: #AE497E; stroke: #fff; opacity: 1;" id="p-type-tokenTransfers"></path><path d="M-31.971562405009607,295.27414244627414A297,297,0,0,1,-33.9014333641225,295.0587955236345L-29.359502518035427,255.5284125335057A257.2095449239783,257.2095449239783,0,0,0,-27.688185241417827,255.7149084391384Z" fill-rule="evenodd" style="fill: #AE497E; stroke: #fff; opacity: 1;" id="p-type-tokenTransfers"></path><path d="M-33.9014333641225,295.0587955236345A297,297,0,0,1,-35.8298550978886,294.83083536778224L-31.029564728686903,255.330993247487A257.2095449239783,257.2095449239783,0,0,0,-29.359502518035427,255.5284125335057Z" fill-rule="evenodd" style="fill: #AE497E; stroke: #fff; opacity: 1;" id="p-type-tokenTransfers"></path><path d="M-35.8298550978886,294.83083536778224A297,297,0,0,1,-37.75674516974466,294.5902717236042L-32.698300481214275,255.12265902040184A257.2095449239783,257.2095449239783,0,0,0,-31.029564728686903,255.330993247487Z" fill-rule="evenodd" style="fill: #AE497E; stroke: #fff; opacity: 1;" id="p-type-tokenTransfers"></path><path d="M-37.75674516974466,294.5902717236042A297,297,0,0,1,-39.68202120860322,294.3371148747639L-34.36563844016326,254.90341875816412A257.2095449239783,257.2095449239783,0,0,0,-32.698300481214275,255.12265902040184Z" fill-rule="evenodd" style="fill: #AE497E; stroke: #fff; opacity: 1;" id="p-type-tokenTransfers"></path><path d="M-39.68202120860322,294.3371148747639A297,297,0,0,1,-41.60560091237382,294.0713756432616L-36.03150732983275,254.67328183290098A257.2095449239783,257.2095449239783,0,0,0,-34.36563844016326,254.90341875816412Z" fill-rule="evenodd" style="fill: #AE497E; stroke: #fff; opacity: 1;" id="p-type-tokenTransfers"></path><path d="M-41.60560091237382,294.0713756432616A297,297,0,0,1,-43.52740205148132,293.79306538897185L-37.69583593732171,254.43225808255235A257.2095449239783,257.2095449239783,0,0,0,-36.03150732983275,254.67328183290098Z" fill-rule="evenodd" style="fill: #AE497E; stroke: #fff; opacity: 1;" id="p-type-tokenTransfers"></path><path d="M-43.52740205148132,293.79306538897185A297,297,0,0,1,-45.44734247238095,293.5021960091579L-39.358553115573386,254.1803578104504A257.2095449239783,257.2095449239783,0,0,0,-37.69583593732171,254.43225808255235Z" fill-rule="evenodd" style="fill: #AE497E; stroke: #fff; opacity: 1;" id="p-type-tokenTransfers"></path><path d="M-45.44734247238095,293.5021960091579A297,297,0,0,1,-47.36534010107036,293.1987799379628L-41.01958778641672,253.917591784879A257.2095449239783,257.2095449239783,0,0,0,-39.358553115573386,254.1803578104504Z" fill-rule="evenodd" style="fill: #AE497E; stroke: #fff; opacity: 1;" id="p-type-tokenTransfers"></path><path d="M-47.36534010107036,293.1987799379628A297,297,0,0,1,-49.28131294659806,292.8828301458784L-42.67886894360486,253.64397123861352A257.2095449239783,257.2095449239783,0,0,0,-41.01958778641672,253.917591784879Z" fill-rule="evenodd" style="fill: #AE497E; stroke: #fff; opacity: 1;" id="p-type-tokenTransfers"></path><path d="M-49.28131294659806,292.8828301458784A297,297,0,0,1,-51.19517910456838,292.55436013919046L-44.33632565585049,253.35950786844055A257.2095449239783,257.2095449239783,0,0,0,-42.67886894360486,253.64397123861352Z" fill-rule="evenodd" style="fill: #AE497E; stroke: #fff; opacity: 1;" id="p-type-tokenTransfers"></path><path d="M-51.19517910456838,292.55436013919046A297,297,0,0,1,-53.10685676064278,292.2133839594014L-45.99188706985801,253.06421383465783A257.2095449239783,257.2095449239783,0,0,0,-44.33632565585049,253.35950786844055Z" fill-rule="evenodd" style="fill: #AE497E; stroke: #fff; opacity: 1;" id="p-type-tokenTransfers"></path><path d="M-53.10685676064278,292.2133839594014A297,297,0,0,1,-55.01626419403724,291.8599161826301L-47.64548241335246,252.7581017605547A257.2095449239783,257.2095449239783,0,0,0,-45.99188706985801,253.06421383465783Z" fill-rule="evenodd" style="fill: #AE497E; stroke: #fff; opacity: 1;" id="p-type-tokenTransfers"></path><path d="M-55.01626419403724,291.8599161826301A297,297,0,0,1,-56.92331978101567,291.4939719189888L-49.29704099810482,252.44118473187208A257.2095449239783,257.2095449239783,0,0,0,-47.64548241335246,252.7581017605547Z" fill-rule="evenodd" style="fill: #AE497E; stroke: #fff; opacity: 1;" id="p-type-tokenTransfers"></path><path d="M-56.92331978101567,291.4939719189888A297,297,0,0,1,-58.827941998379195,291.11556681193696L-50.94649222295388,252.11347629624342A257.2095449239783,257.2095449239783,0,0,0,-49.29704099810482,252.44118473187208Z" fill-rule="evenodd" style="fill: #AE497E; stroke: #fff; opacity: 1;" id="p-type-tokenTransfers"></path><path d="M-58.827941998379195,291.11556681193696A297,297,0,0,1,-60.73004942695111,290.7247170376129L-52.59376557682426,251.77499046261536A257.2095449239783,257.2095449239783,0,0,0,-50.94649222295388,252.11347629624342Z" fill-rule="evenodd" style="fill: #AE497E; stroke: #fff; opacity: 1;" id="p-type-tokenTransfers"></path><path d="M-60.73004942695111,290.7247170376129A297,297,0,0,1,-62.62956075505742,290.32143930414196L-54.238790641740636,251.42574170064893A257.2095449239783,257.2095449239783,0,0,0,-52.59376557682426,251.77499046261536Z" fill-rule="evenodd" style="fill: #AE497E; stroke: #fff; opacity: 1;" id="p-type-tokenTransfers"></path><path d="M-62.62956075505742,290.32143930414196A297,297,0,0,1,-64.52639478200275,289.90575085092246L-55.881497095838036,251.06574494010098A257.2095449239783,257.2095449239783,0,0,0,-54.238790641740636,251.42574170064893Z" fill-rule="evenodd" style="fill: #AE497E; stroke: #fff; opacity: 1;" id="p-type-tokenTransfers"></path><path d="M-64.52639478200275,289.90575085092246A297,297,0,0,1,-66.42047042154157,289.47766944788873L-57.52181471636789,250.6950155701861A257.2095449239783,257.2095449239783,0,0,0,-55.881497095838036,251.06574494010098Z" fill-rule="evenodd" style="fill: #AE497E; stroke: #fff; opacity: 1;" id="p-type-tokenTransfers"></path><path d="M-66.42047042154157,289.47766944788873A297,297,0,0,1,-68.31170670534438,289.0372133947513L-59.15967338270001,250.31356943891845A257.2095449239783,257.2095449239783,0,0,0,-57.52181471636789,250.6950155701861Z" fill-rule="evenodd" style="fill: #AE497E; stroke: #fff; opacity: 1;" id="p-type-tokenTransfers"></path><path d="M-68.31170670534438,289.0372133947513A297,297,0,0,1,-70.2000227864591,288.58440152021495L-60.79500307932004,249.92142285243472A257.2095449239783,257.2095449239783,0,0,0,-59.15967338270001,250.31356943891845Z" fill-rule="evenodd" style="fill: #AE497E; stroke: #fff; opacity: 1;" id="p-type-tokenTransfers"></path><path d="M-70.2000227864591,288.58440152021495A297,297,0,0,1,-72.08533794276707,288.11925318117335L-62.42773389882257,249.51859257429658A257.2095449239783,257.2095449239783,0,0,0,-60.79500307932004,249.92142285243472Z" fill-rule="evenodd" style="fill: #AE497E; stroke: #fff; opacity: 1;" id="p-type-tokenTransfers"></path><path d="M-72.08533794276707,288.11925318117335A297,297,0,0,1,-73.96757158043371,287.6417882618821L-64.05779604489948,249.10509582477445A257.2095449239783,257.2095449239783,0,0,0,-62.42773389882257,249.51859257429658Z" fill-rule="evenodd" style="fill: #AE497E; stroke: #fff; opacity: 1;" id="p-type-tokenTransfers"></path><path d="M-73.96757158043371,287.6417882618821A297,297,0,0,1,-75.84664323735392,287.15202717310837L-65.68511983532369,248.68095028011126A257.2095449239783,257.2095449239783,0,0,0,-64.05779604489948,249.10509582477445Z" fill-rule="evenodd" style="fill: #AE497E; stroke: #fff; opacity: 1;" id="p-type-tokenTransfers"></path></g></svg>