<svg xmlns="http://www.w3.org/2000/svg" width="600" height="600" id="block-7914252"><g id="burst-container" transform="translate(300,300)"><data type="text/json">{"number":7914252,"totalTransactions":138,"totalFunctions":0,"totalFunctionsValue":"0","totalLogs":122,"totalTokenTransfers":122,"tokens":{"0xe01dd5ee7dfbb48baf94b1c885faaa5bc6bbd70a":"4.418e-8","0xd3fb5cabd07c85395667f83d20b080642bde66c7":"13.8","0x1c95b093d6c236d3ef7c796fe33f9cc6b8606714":"2e-18","0xc02aaa39b223fe8d0a0e5c4f27ead9083c756cc2":"0.0035275179","0x174bfa6600bf90c885c7c01c7031389ed1461ab9":"0.51917825","0x931abd3732f7eada74190c8f89b46f8ba7103d54":"1588","0x87aa74199104c015b9e3fd78f4b31635c35515b1":"0.16","0x09f3299ff6f24c1c089a42bcda4b8d0ab497857c":"56.00000000000000001","0x048fe49be32adfc9ed68c37d32b5ec9df17b3603":"580.888","0x06012c8cf97bead5deae237070f9587f8e7a266d":"1.292567e-12","0xd26114cd6ee289accf82350c8d8487fedb8a0c07":"9.457","0x595832f8fc6bf59c85c527fec3740a1b7a361269":"4.896e-10","0x8b8e088c7ad40d70d0a8183a399c8f9c24b5c8d8":"1064.24","0x9f8f72aa9304c8b593d555f12ef6589cc3a579a2":"10","0x0e8d6b471e332f140e7d9dbb99e5e3822f728da6":"10054.14142957","0xa0b73e1ff0b80914ab6fe0444e65848c4c34450b":"0.000001075733515105","0x454b9f249bc1492ee995793bbc3e57b830f1a5e9":"2850","0x0d8775f648430679a709e98d2b0cb6250d2887ef":"8.32225383","0x8e870d67f660d95d5be530380d0ec0bd388289e1":"6503955.46","0x8bcb64bfda77905398b67af0af084c744e777a20":"142.5","0xa6281838f4a9c5736b2aa1cba9260d3f879623ca":"1706.58","0xe6987cd613dfda0995a95b3e6acbabececd41376":"2e-7","0x4d13d624a87baa278733c068a174412afa9ca6c8":"704.44","0x06a6a7af298129e3a2ab396c9c06f91d3c54aba8":"1.18899e-13","0xab22fd25ddbbb9c3d2c2ced0fd20e3f2bbb932bc":"8.821e-15","0x0ecdd783dc7bf820614044b51862ed29714d2ba5":"10","0x93190dbce9b9bd4aa546270a8d1d65905b5fdd28":"528275"},"totalEther":"194.667456837092498715","totalEtherTxns":49,"newContracts":["0xacacc0473f65c4cbe8bac1b2eae56d1b0c50ac14"],"totalNewContracts":1}</data><circle r="297" style="fill: #f9f9f9; stroke: #f9f9f9; stroke-width: 3; opacity: 1;" id="circle-base"></circle><path display="none" d="M9.093002483669097e-15,-148.5A148.5,148.5,0,1,1,-9.093002483669097e-15,148.5A148.5,148.5,0,1,1,9.093002483669097e-15,-148.5Z" fill-rule="evenodd" id="p-type-root" style="stroke: #fff; opacity: 1;"></path><path d="M1.2859447435097075e-14,-210.0107140124046A210.0107140124046,210.0107140124046,0,1,1,-169.9952248703744,-123.31311171676289L-120.20477627517377,-87.19553750413735A148.5,148.5,0,1,0,9.093002483669097e-15,-148.5Z" fill-rule="evenodd" style="fill: #4E4E4E; stroke: #fff; opacity: 1;" id="p-type-data"></path><path d="M-169.9952248703744,-123.31311171676289A210.0107140124046,210.0107140124046,0,0,1,-3.1692991791104137,-209.98679849627044L-2.241032941157932,-148.48308917636595A148.5,148.5,0,0,0,-120.20477627517377,-87.19553750413735Z" fill-rule="evenodd" style="fill: #3A86AD; stroke: #fff; opacity: 1;" id="p-type-value"></path><path d="M1.5749542295064867e-14,-257.2095449239783A257.2095449239783,257.2095449239783,0,0,1,248.03581020221554,68.08073778485738L202.52039097774735,55.587689628373084A210.0107140124046,210.0107140124046,0,0,0,1.2859447435097075e-14,-210.0107140124046Z" fill-rule="evenodd" style="fill: #F09B24; stroke: #fff; opacity: 1;" id="p-type-ether"></path><path d="M248.03581020221554,68.08073778485738A257.2095449239783,257.2095449239783,0,0,1,-18.100534708194086,256.5718625322688L-14.779024702204106,209.49004851985603A210.0107140124046,210.0107140124046,0,0,0,202.52039097774735,55.587689628373084Z" fill-rule="evenodd" style="fill: #184B42; stroke: #fff; opacity: 1;" id="p-type-logs"></path><path d="M-18.100534708194086,256.5718625322688A257.2095449239783,257.2095449239783,0,0,1,-235.50478323639302,103.41299276580062L-192.28885030464014,84.43635501677987A210.0107140124046,210.0107140124046,0,0,0,-14.779024702204106,209.49004851985603Z" fill-rule="evenodd" style="fill: #AE497E; stroke: #fff; opacity: 1;" id="p-type-tokenTransfers"></path><path d="M-208.20077982105096,-151.02710115044343A257.2095449239783,257.2095449239783,0,0,1,-100.14556660881243,-236.91267481627045L-81.76851273116519,-193.438388965927A210.0107140124046,210.0107140124046,0,0,0,-169.9952248703744,-123.31311171676289Z" fill-rule="evenodd" style="fill: #AE497E; stroke: #fff; opacity: 1;" id="p-type-tokenTransfers"></path><path d="M-100.14556660881243,-236.91267481627045A257.2095449239783,257.2095449239783,0,0,1,-7.762281780347265,-257.0923899720925L-6.337876533851124,-209.91505739475113A210.0107140124046,210.0107140124046,0,0,0,-81.76851273116519,-193.438388965927Z" fill-rule="evenodd" style="fill: #F09B24; stroke: #fff; opacity: 1;" id="p-type-ether"></path><path d="M1.8186004967338195e-14,-297A297,297,0,0,1,278.37633940556276,-103.51624828575902L241.08098173773647,-89.64770071992466A257.2095449239783,257.2095449239783,0,0,0,1.5749542295064867e-14,-257.2095449239783Z" fill-rule="evenodd" style="fill: #F09B24; stroke: #fff; opacity: 1;" id="p-type-ether"></path><path d="M278.37633940556276,-103.51624828575902A297,297,0,0,1,287.4871673617785,-74.5662698698329L248.97119019732875,-64.57628397272146A257.2095449239783,257.2095449239783,0,0,0,241.08098173773647,-89.64770071992466Z" fill-rule="evenodd" style="fill: #F09B24; stroke: #fff; opacity: 1;" id="p-type-ether"></path><path d="M287.4871673617785,-74.5662698698329A297,297,0,0,1,291.32070083495535,-57.803540246514885L252.29112757135783,-50.059334282158105A257.2095449239783,257.2095449239783,0,0,0,248.97119019732875,-64.57628397272146Z" fill-rule="evenodd" style="fill: #F09B24; stroke: #fff; opacity: 1;" id="p-type-ether"></path><path d="M291.32070083495535,-57.803540246514885A297,297,0,0,1,292.3710747926672,-52.23173962812863L253.20077810220988,-45.23401340181376A257.2095449239783,257.2095449239783,0,0,0,252.29112757135783,-50.059334282158105Z" fill-rule="evenodd" style="fill: #F09B24; stroke: #fff; opacity: 1;" id="p-type-ether"></path><path d="M292.3710747926672,-52.23173962812863A297,297,0,0,1,292.778716674812,-49.896122717603525L253.55380632779386,-43.211309823790494A257.2095449239783,257.2095449239783,0,0,0,253.20077810220988,-45.23401340181376Z" fill-rule="evenodd" style="fill: #F09B24; stroke: #fff; opacity: 1;" id="p-type-ether"></path><path d="M292.778716674812,-49.896122717603525A297,297,0,0,1,293.1468865008632,-47.68545831645146L253.87265075006107,-41.2968182931509A257.2095449239783,257.2095449239783,0,0,0,253.55380632779386,-43.211309823790494Z" fill-rule="evenodd" style="fill: #F09B24; stroke: #fff; opacity: 1;" id="p-type-ether"></path><path d="M293.1468865008632,-47.68545831645146A297,297,0,0,1,293.4882795251929,-45.53712530828255L254.1683057818054,-39.436307332287974A257.2095449239783,257.2095449239783,0,0,0,253.87265075006107,-41.2968182931509Z" fill-rule="evenodd" style="fill: #F09B24; stroke: #fff; opacity: 1;" id="p-type-ether"></path><path d="M293.4882795251929,-45.53712530828255A297,297,0,0,1,293.7578234144418,-43.7646110780116L254.4017376373298,-37.901264980303914A257.2095449239783,257.2095449239783,0,0,0,254.1683057818054,-39.436307332287974Z" fill-rule="evenodd" style="fill: #F09B24; stroke: #fff; opacity: 1;" id="p-type-ether"></path><path d="M293.7578234144418,-43.7646110780116A297,297,0,0,1,293.9850359381676,-42.211356818210774L254.59850945493432,-36.55610733278A257.2095449239783,257.2095449239783,0,0,0,254.4017376373298,-37.901264980303914Z" fill-rule="evenodd" style="fill: #F09B24; stroke: #fff; opacity: 1;" id="p-type-ether"></path><path d="M286.4070835778321,78.61286457343145A297,297,0,0,1,285.8057342202475,80.77179140532458L247.51502638199776,69.95042326618866A257.2095449239783,257.2095449239783,0,0,0,248.03581020221554,68.08073778485738Z" fill-rule="evenodd" style="fill: #184B42; stroke: #fff; opacity: 1;" id="p-type-logs"></path><path d="M285.8057342202475,80.77179140532458A297,297,0,0,1,285.18811119543636,82.92611912286404L246.98014915254916,71.81612579765479A257.2095449239783,257.2095449239783,0,0,0,247.51502638199776,69.95042326618866Z" fill-rule="evenodd" style="fill: #184B42; stroke: #fff; opacity: 1;" id="p-type-logs"></path><path d="M285.18811119543636,82.92611912286404A297,297,0,0,1,284.55424967061333,85.07572505946838L246.4312089695709,73.67773914687999A257.2095449239783,257.2095449239783,0,0,0,246.98014915254916,71.81612579765479Z" fill-rule="evenodd" style="fill: #184B42; stroke: #fff; opacity: 1;" id="p-type-logs"></path><path d="M284.55424967061333,85.07572505946838A297,297,0,0,1,283.90418573760684,87.22048681741254L245.86823708950322,75.535157314325A257.2095449239783,257.2095449239783,0,0,0,246.4312089695709,73.67773914687999Z" fill-rule="evenodd" style="fill: #184B42; stroke: #fff; opacity: 1;" id="p-type-logs"></path><path d="M283.90418573760684,87.22048681741254A297,297,0,0,1,283.23795641080414,89.3602822747971L245.29126556774588,77.38827453932258A257.2095449239783,257.2095449239783,0,0,0,245.86823708950322,75.535157314325Z" fill-rule="evenodd" style="fill: #184B42; stroke: #fff; opacity: 1;" id="p-type-logs"></path><path d="M283.23795641080414,89.3602822747971A297,297,0,0,1,282.55559962504367,91.49498959250185L244.70032725683262,79.23698530609943A257.2095449239783,257.2095449239783,0,0,0,245.29126556774588,77.38827453932258Z" fill-rule="evenodd" style="fill: #184B42; stroke: #fff; opacity: 1;" id="p-type-logs"></path><path d="M282.55559962504367,91.49498959250185A297,297,0,0,1,281.85715423345516,93.6244872211233L244.0954558045608,81.08118434978432A257.2095449239783,257.2095449239783,0,0,0,244.70032725683262,79.23698530609943Z" fill-rule="evenodd" style="fill: #184B42; stroke: #fff; opacity: 1;" id="p-type-logs"></path><path d="M281.85715423345516,93.6244872211233A297,297,0,0,1,281.1426600052472,95.74865390789559L243.4766856520754,82.92076666240175A257.2095449239783,257.2095449239783,0,0,0,244.0954558045608,81.08118434978432Z" fill-rule="evenodd" style="fill: #184B42; stroke: #fff; opacity: 1;" id="p-type-logs"></path><path d="M281.1426600052472,95.74865390789559A297,297,0,0,1,280.4121576234431,97.86736870359462L242.84405203190795,84.75562749885107A257.2095449239783,257.2095449239783,0,0,0,243.4766856520754,82.92076666240175Z" fill-rule="evenodd" style="fill: #184B42; stroke: #fff; opacity: 1;" id="p-type-logs"></path><path d="M280.4121576234431,97.86736870359462A297,297,0,0,1,279.6656886825638,99.98051096942487L242.19759096597045,86.58566238287068A257.2095449239783,257.2095449239783,0,0,0,242.84405203190795,84.75562749885107Z" fill-rule="evenodd" style="fill: #184B42; stroke: #fff; opacity: 1;" id="p-type-logs"></path><path d="M279.6656886825638,99.98051096942487A297,297,0,0,1,278.90329568626044,102.08796038388851L241.53733926350438,88.41076711298683A257.2095449239783,257.2095449239783,0,0,0,242.19759096597045,86.58566238287068Z" fill-rule="evenodd" style="fill: #184B42; stroke: #fff; opacity: 1;" id="p-type-logs"></path><path d="M278.90329568626044,102.08796038388851A297,297,0,0,1,278.12502204489317,104.1895969496364L240.86333451898454,90.23083776844678A257.2095449239783,257.2095449239783,0,0,0,241.53733926350438,88.41076711298683Z" fill-rule="evenodd" style="fill: #184B42; stroke: #fff; opacity: 1;" id="p-type-logs"></path><path d="M278.12502204489317,104.1895969496364A297,297,0,0,1,277.33091207306023,106.28530100030075L240.17561510997865,92.04577071513606A257.2095449239783,257.2095449239783,0,0,0,240.86333451898454,90.23083776844678Z" fill-rule="evenodd" style="fill: #184B42; stroke: #fff; opacity: 1;" id="p-type-logs"></path><path d="M277.33091207306023,106.28530100030075A297,297,0,0,1,276.5210109870742,108.37495320730895L239.47422019496213,93.85546261147938A257.2095449239783,257.2095449239783,0,0,0,240.17561510997865,92.04577071513606Z" fill-rule="evenodd" style="fill: #184B42; stroke: #fff; opacity: 1;" id="p-type-logs"></path><path d="M276.5210109870742,108.37495320730895A297,297,0,0,1,275.6953649023875,110.45843458667791L238.75918971108828,95.65981041432474A257.2095449239783,257.2095449239783,0,0,0,239.47422019496213,93.85546261147938Z" fill-rule="evenodd" style="fill: #184B42; stroke: #fff; opacity: 1;" id="p-type-logs"></path><path d="M275.6953649023875,110.45843458667791A297,297,0,0,1,274.8540208309668,112.5356265057891L238.03056437191455,97.45871138481078A257.2095449239783,257.2095449239783,0,0,0,238.75918971108828,95.65981041432474Z" fill-rule="evenodd" style="fill: #184B42; stroke: #fff; opacity: 1;" id="p-type-logs"></path><path d="M274.8540208309668,112.5356265057891A297,297,0,0,1,273.99702667861595,114.60641069014342L237.288385665084,99.25206309421667A257.2095449239783,257.2095449239783,0,0,0,238.03056437191455,97.45871138481078Z" fill-rule="evenodd" style="fill: #184B42; stroke: #fff; opacity: 1;" id="p-type-logs"></path><path d="M273.99702667861595,114.60641069014342A297,297,0,0,1,273.12443124224825,116.6706692300957L236.5326958499632,101.0397634297943A257.2095449239783,257.2095449239783,0,0,0,237.288385665084,99.25206309421667Z" fill-rule="evenodd" style="fill: #184B42; stroke: #fff; opacity: 1;" id="p-type-logs"></path><path d="M273.12443124224825,116.6706692300957A297,297,0,0,1,272.23628420710816,118.72828458756838L235.76353795523605,102.82171060058265A257.2095449239783,257.2095449239783,0,0,0,236.5326958499632,101.0397634297943Z" fill-rule="evenodd" style="fill: #184B42; stroke: #fff; opacity: 1;" id="p-type-logs"></path><path d="M272.23628420710816,118.72828458756838A297,297,0,0,1,271.332636143942,120.77913960274415L234.98095577645356,104.59780314320359A257.2095449239783,257.2095449239783,0,0,0,235.76353795523605,102.82171060058265Z" fill-rule="evenodd" style="fill: #184B42; stroke: #fff; opacity: 1;" id="p-type-logs"></path><path d="M271.332636143942,120.77913960274415A297,297,0,0,1,270.41353850611875,122.82311750073698L234.18499387354032,106.36793992763931A257.2095449239783,257.2095449239783,0,0,0,234.98095577645356,104.59780314320359Z" fill-rule="evenodd" style="fill: #184B42; stroke: #fff; opacity: 1;" id="p-type-logs"></path><path d="M270.41353850611875,122.82311750073698A297,297,0,0,1,269.47904362669993,124.86010189824114L233.37569756825715,108.13202016299044A257.2095449239783,257.2095449239783,0,0,0,234.18499387354032,106.36793992763931Z" fill-rule="evenodd" style="fill: #184B42; stroke: #fff; opacity: 1;" id="p-type-logs"></path><path d="M269.47904362669993,124.86010189824114A297,297,0,0,1,268.5292047154602,126.88997681015817L232.5531129416206,109.8899434032153A257.2095449239783,257.2095449239783,0,0,0,233.37569756825715,108.13202016299044Z" fill-rule="evenodd" style="fill: #184B42; stroke: #fff; opacity: 1;" id="p-type-logs"></path><path d="M268.5292047154602,126.88997681015817A297,297,0,0,1,267.5640758558573,128.91262665620096L231.71728683127898,111.64160955284903A257.2095449239783,257.2095449239783,0,0,0,232.5531129416206,109.8899434032153Z" fill-rule="evenodd" style="fill: #184B42; stroke: #fff; opacity: 1;" id="p-type-logs"></path><path d="M267.5640758558573,128.91262665620096A297,297,0,0,1,266.5837120019527,130.9279362674748L230.8682668288456,113.3869188727031A257.2095449239783,257.2095449239783,0,0,0,231.71728683127898,111.64160955284903Z" fill-rule="evenodd" style="fill: #184B42; stroke: #fff; opacity: 1;" id="p-type-logs"></path><path d="M266.5837120019527,130.9279362674748A297,297,0,0,1,265.5881689752826,132.93579089303506L230.00610127718883,115.12577198554439A257.2095449239783,257.2095449239783,0,0,0,230.8682668288456,113.3869188727031Z" fill-rule="evenodd" style="fill: #184B42; stroke: #fff; opacity: 1;" id="p-type-logs"></path><path d="M265.5881689752826,132.93579089303506A297,297,0,0,1,264.57750346167927,134.93607620642118L229.1308392676795,116.85806988175368A257.2095449239783,257.2095449239783,0,0,0,230.00610127718883,115.12577198554439Z" fill-rule="evenodd" style="fill: #184B42; stroke: #fff; opacity: 1;" id="p-type-logs"></path><path d="M264.57750346167927,134.93607620642118A297,297,0,0,1,263.55177300804354,136.9286783121662L228.24253063739562,118.58371392496325A257.2095449239783,257.2095449239783,0,0,0,229.1308392676795,116.85806988175368Z" fill-rule="evenodd" style="fill: #184B42; stroke: #fff; opacity: 1;" id="p-type-logs"></path><path d="M263.55177300804354,136.9286783121662A297,297,0,0,1,262.51103601906806,138.91348375228208L227.34122596628475,120.30260585767316A257.2095449239783,257.2095449239783,0,0,0,228.24253063739562,118.58371392496325Z" fill-rule="evenodd" style="fill: #184B42; stroke: #fff; opacity: 1;" id="p-type-logs"></path><path d="M262.51103601906806,138.91348375228208A297,297,0,0,1,261.4553517539118,140.89037951271985L226.42697657428394,122.01464780684601A257.2095449239783,257.2095449239783,0,0,0,227.34122596628475,120.30260585767316Z" fill-rule="evenodd" style="fill: #184B42; stroke: #fff; opacity: 1;" id="p-type-logs"></path><path d="M261.4553517539118,140.89037951271985A297,297,0,0,1,260.3847803228258,142.85925302980462L225.4998345183976,123.71974228947984A257.2095449239783,257.2095449239783,0,0,0,226.42697657428394,122.01464780684601Z" fill-rule="evenodd" style="fill: #184B42; stroke: #fff; opacity: 1;" id="p-type-logs"></path><path d="M260.3847803228258,142.85925302980462A297,297,0,0,1,259.29938268373047,144.8199921966449L224.55985258973337,125.41779221815867A257.2095449239783,257.2095449239783,0,0,0,225.4998345183976,123.71974228947984Z" fill-rule="evenodd" style="fill: #184B42; stroke: #fff; opacity: 1;" id="p-type-logs"></path><path d="M259.29938268373047,144.8199921966449A297,297,0,0,1,258.1992206387448,146.772485369516L223.60708431049633,127.10870090658071A257.2095449239783,257.2095449239783,0,0,0,224.55985258973337,125.41779221815867Z" fill-rule="evenodd" style="fill: #184B42; stroke: #fff; opacity: 1;" id="p-type-logs"></path><path d="M258.1992206387448,146.772485369516A297,297,0,0,1,257.0843568306672,148.7166213742168L222.6415839309413,128.79237207506358A257.2095449239783,257.2095449239783,0,0,0,223.60708431049633,127.10870090658071Z" fill-rule="evenodd" style="fill: #184B42; stroke: #fff; opacity: 1;" id="p-type-logs"></path><path d="M257.0843568306672,148.7166213742168A297,297,0,0,1,255.95485473940894,150.65228951240024L221.66340642628398,130.46870985602658A257.2095449239783,257.2095449239783,0,0,0,222.6415839309413,128.79237207506358Z" fill-rule="evenodd" style="fill: #184B42; stroke: #fff; opacity: 1;" id="p-type-logs"></path><path d="M255.95485473940894,150.65228951240024A297,297,0,0,1,254.81077867837925,152.57937956787615L220.67260749357064,132.13761879944906A257.2095449239783,257.2095449239783,0,0,0,221.66340642628398,130.46870985602658Z" fill-rule="evenodd" style="fill: #184B42; stroke: #fff; opacity: 1;" id="p-type-logs"></path><path d="M254.81077867837925,152.57937956787615A297,297,0,0,1,253.65219379082365,154.49778181288707L219.66924354850673,133.79900387830563A257.2095449239783,257.2095449239783,0,0,0,220.67260749357064,132.13761879944906Z" fill-rule="evenodd" style="fill: #184B42; stroke: #fff; opacity: 1;" id="p-type-logs"></path><path d="M253.65219379082365,154.49778181288707A297,297,0,0,1,252.47916604611444,156.40738701435612L218.6533717222446,135.45277049397674A257.2095449239783,257.2095449239783,0,0,0,219.66924354850673,133.79900387830563Z" fill-rule="evenodd" style="fill: #184B42; stroke: #fff; opacity: 1;" id="p-type-logs"></path><path d="M252.47916604611444,156.40738701435612A297,297,0,0,1,251.29176223599472,158.3080864401067L217.6250498581305,137.09882448163523A257.2095449239783,257.2095449239783,0,0,0,218.6533717222446,135.45277049397674Z" fill-rule="evenodd" style="fill: #184B42; stroke: #fff; opacity: 1;" id="p-type-logs"></path><path d="M251.29176223599472,158.3080864401067A297,297,0,0,1,250.09004997077514,160.1997718650535L216.58433650841098,138.7370721156079A257.2095449239783,257.2095449239783,0,0,0,217.6250498581305,137.09882448163523Z" fill-rule="evenodd" style="fill: #184B42; stroke: #fff; opacity: 1;" id="p-type-logs"></path><path d="M250.09004997077514,160.1997718650535A297,297,0,0,1,248.87409767548422,162.08233557736494L215.53129093089905,140.3674201147124A257.2095449239783,257.2095449239783,0,0,0,216.58433650841098,138.7370721156079Z" fill-rule="evenodd" style="fill: #184B42; stroke: #fff; opacity: 1;" id="p-type-logs"></path><path d="M248.87409767548422,162.08233557736494A297,297,0,0,1,247.64397458597213,163.95567038459632L214.46597308559979,141.98977564756837A257.2095449239783,257.2095449239783,0,0,0,215.53129093089905,140.3674201147124Z" fill-rule="evenodd" style="fill: #184B42; stroke: #fff; opacity: 1;" id="p-type-logs"></path><path d="M247.64397458597213,163.95567038459632A297,297,0,0,1,246.39975074496869,165.81966961979302L213.38844363129652,143.60404633788346A257.2095449239783,257.2095449239783,0,0,0,214.46597308559979,141.98977564756837Z" fill-rule="evenodd" style="fill: #184B42; stroke: #fff; opacity: 1;" id="p-type-logs"></path><path d="M246.39975074496869,165.81966961979302A297,297,0,0,1,245.14149699809494,167.67422714756438L212.29876392209692,145.21014026971312A257.2095449239783,257.2095449239783,0,0,0,213.38844363129652,143.60404633788346Z" fill-rule="evenodd" style="fill: #184B42; stroke: #fff; opacity: 1;" id="p-type-logs"></path><path d="M245.14149699809494,167.67422714756438A297,297,0,0,1,243.86928498982928,169.5192373701269L211.19699600393926,146.80796599269422A257.2095449239783,257.2095449239783,0,0,0,212.29876392209692,145.21014026971312Z" fill-rule="evenodd" style="fill: #184B42; stroke: #fff; opacity: 1;" id="p-type-logs"></path><path d="M243.86928498982928,169.5192373701269A297,297,0,0,1,242.5831871594282,171.35459523331676L210.08320261105987,148.3974325272522A257.2095449239783,257.2095449239783,0,0,0,211.19699600393926,146.80796599269422Z" fill-rule="evenodd" style="fill: #184B42; stroke: #fff; opacity: 1;" id="p-type-logs"></path><path d="M242.5831871594282,171.35459523331676A297,297,0,0,1,241.2832767368014,173.18019623257192L208.9574471624209,149.97844936978143A257.2095449239783,257.2095449239783,0,0,0,210.08320261105987,148.3974325272522Z" fill-rule="evenodd" style="fill: #184B42; stroke: #fff; opacity: 1;" id="p-type-logs"></path><path d="M241.2832767368014,173.18019623257192A297,297,0,0,1,239.96962773834215,174.99593641888228L207.8197937580992,151.55092649779849A257.2095449239783,257.2095449239783,0,0,0,208.9574471624209,149.97844936978143Z" fill-rule="evenodd" style="fill: #184B42; stroke: #fff; opacity: 1;" id="p-type-logs"></path><path d="M239.96962773834215,174.99593641888228A297,297,0,0,1,238.64231496271302,176.80171240470855L206.67030717563674,153.11477437506792A257.2095449239783,257.2095449239783,0,0,0,207.8197937580992,151.55092649779849Z" fill-rule="evenodd" style="fill: #184B42; stroke: #fff; opacity: 1;" id="p-type-logs"></path><path d="M238.64231496271302,176.80171240470855A297,297,0,0,1,237.3014139865866,178.5974213698693L205.5090528663519,154.66990395670058A257.2095449239783,257.2095449239783,0,0,0,206.67030717563674,153.11477437506792Z" fill-rule="evenodd" style="fill: #184B42; stroke: #fff; opacity: 1;" id="p-type-logs"></path><path d="M237.3014139865866,178.5974213698693A297,297,0,0,1,235.94700116034244,180.3829610673951L204.33609695161297,156.2162266942235A257.2095449239783,257.2095449239783,0,0,0,205.5090528663519,154.66990395670058Z" fill-rule="evenodd" style="fill: #184B42; stroke: #fff; opacity: 1;" id="p-type-logs"></path><path d="M235.94700116034244,180.3829610673951A297,297,0,0,1,234.57915360371945,182.15822982935083L203.151506219073,157.75365454062214A257.2095449239783,257.2095449239783,0,0,0,204.33609695161297,156.2162266942235Z" fill-rule="evenodd" style="fill: #184B42; stroke: #fff; opacity: 1;" id="p-type-logs"></path><path d="M234.57915360371945,182.15822982935083A297,297,0,0,1,233.197949201425,183.9231265726244L201.9553481188671,159.28209995535346A257.2095449239783,257.2095449239783,0,0,0,203.151506219073,157.75365454062214Z" fill-rule="evenodd" style="fill: #184B42; stroke: #fff; opacity: 1;" id="p-type-logs"></path><path d="M233.197949201425,183.9231265726244A297,297,0,0,1,231.8034665986999,185.67755080468243L200.74769075977173,160.80147590933072A257.2095449239783,257.2095449239783,0,0,0,201.9553481188671,159.28209995535346Z" fill-rule="evenodd" style="fill: #184B42; stroke: #fff; opacity: 1;" id="p-type-logs"></path><path d="M231.8034665986999,185.67755080468243A297,297,0,0,1,230.39578519684065,187.4214026292922L199.52860290532672,162.31169588987862A257.2095449239783,257.2095449239783,0,0,0,200.74769075977173,160.80147590933072Z" fill-rule="evenodd" style="fill: #184B42; stroke: #fff; opacity: 1;" id="p-type-logs"></path><path d="M230.39578519684065,187.4214026292922A297,297,0,0,1,228.9749851486782,189.15458275220982L198.2981539699199,163.81267390565952A257.2095449239783,257.2095449239783,0,0,0,199.52860290532672,162.31169588987862Z" fill-rule="evenodd" style="fill: #184B42; stroke: #fff; opacity: 1;" id="p-type-logs"></path><path d="M228.9749851486782,189.15458275220982A297,297,0,0,1,227.54114735401404,190.87699248683396L197.05641401483447,165.30432449156964A257.2095449239783,257.2095449239783,0,0,0,198.2981539699199,163.81267390565952Z" fill-rule="evenodd" style="fill: #184B42; stroke: #fff; opacity: 1;" id="p-type-logs"></path><path d="M227.54114735401404,190.87699248683396A297,297,0,0,1,226.09435345501396,192.5885337598249L195.80345374426005,166.78656271360535A257.2095449239783,257.2095449239783,0,0,0,197.05641401483447,165.30432449156964Z" fill-rule="evenodd" style="fill: #184B42; stroke: #fff; opacity: 1;" id="p-type-logs"></path><path d="M226.09435345501396,192.5885337598249A297,297,0,0,1,224.63468583155927,194.289109116689L194.53934450126664,168.25930417369943A257.2095449239783,257.2095449239783,0,0,0,195.80345374426005,166.78656271360535Z" fill-rule="evenodd" style="fill: #184B42; stroke: #fff; opacity: 1;" id="p-type-logs"></path><path d="M224.63468583155927,194.289109116689A297,297,0,0,1,223.16222759655605,195.9786217273275L193.26415826374225,169.72246501452656A257.2095449239783,257.2095449239783,0,0,0,194.53934450126664,168.25930417369943Z" fill-rule="evenodd" style="fill: #184B42; stroke: #fff; opacity: 1;" id="p-type-logs"></path><path d="M223.16222759655605,195.9786217273275A297,297,0,0,1,221.67706259120297,197.6569753915502L191.97796764029485,171.1759619242781A257.2095449239783,257.2095449239783,0,0,0,193.26415826374225,169.72246501452656Z" fill-rule="evenodd" style="fill: #184B42; stroke: #fff; opacity: 1;" id="p-type-logs"></path><path d="M221.67706259120297,197.6569753915502A297,297,0,0,1,220.17927538021712,199.32407454455296L190.68084586611766,172.61971214140604A257.2095449239783,257.2095449239783,0,0,0,191.97796764029485,171.1759619242781Z" fill-rule="evenodd" style="fill: #184B42; stroke: #fff; opacity: 1;" id="p-type-logs"></path><path d="M220.17927538021712,199.32407454455296A297,297,0,0,1,218.66895124701915,200.9798242623591L189.3728667988195,174.05363345933506A257.2095449239783,257.2095449239783,0,0,0,190.68084586611766,172.61971214140604Z" fill-rule="evenodd" style="fill: #184B42; stroke: #fff; opacity: 1;" id="p-type-logs"></path><path d="M218.66895124701915,200.9798242623591A297,297,0,0,1,217.14617618887718,202.62413026722436L188.0541049142192,175.47764423114367A257.2095449239783,257.2095449239783,0,0,0,189.3728667988195,174.05363345933506Z" fill-rule="evenodd" style="fill: #184B42; stroke: #fff; opacity: 1;" id="p-type-logs"></path><path d="M217.14617618887718,202.62413026722436A297,297,0,0,1,215.61103691201006,204.25689893300506L186.72463530210504,176.89166337421298A257.2095449239783,257.2095449239783,0,0,0,188.0541049142192,175.47764423114367Z" fill-rule="evenodd" style="fill: #184B42; stroke: #fff; opacity: 1;" id="p-type-logs"></path><path d="M215.61103691201006,204.25689893300506A297,297,0,0,1,214.06362082665052,205.87803729048903L185.38453366195898,178.29561037484348A257.2095449239783,257.2095449239783,0,0,0,186.72463530210504,176.89166337421298Z" fill-rule="evenodd" style="fill: #184B42; stroke: #fff; opacity: 1;" id="p-type-logs"></path><path d="M214.06362082665052,205.87803729048903A297,297,0,0,1,212.504016042068,207.48745303268944L184.0338762986468,179.68940529283964A257.2095449239783,257.2095449239783,0,0,0,185.38453366195898,178.29561037484348Z" fill-rule="evenodd" style="fill: #184B42; stroke: #fff; opacity: 1;" id="p-type-logs"></path><path d="M212.504016042068,207.48745303268944A297,297,0,0,1,210.93231136155163,209.08505452010058L182.67274011807268,181.07296876606148A257.2095449239783,257.2095449239783,0,0,0,184.0338762986468,179.68940529283964Z" fill-rule="evenodd" style="fill: #184B42; stroke: #fff; opacity: 1;" id="p-type-logs"></path><path d="M210.93231136155163,209.08505452010058A297,297,0,0,1,209.348596277354,210.67075078591577L181.30120262280096,182.44622201494354A257.2095449239783,257.2095449239783,0,0,0,182.67274011807268,181.07296876606148Z" fill-rule="evenodd" style="fill: #184B42; stroke: #fff; opacity: 1;" id="p-type-logs"></path><path d="M209.348596277354,210.67075078591577A297,297,0,0,1,207.7529609655954,212.24445154120704L179.9193419076425,183.80908684698056A257.2095449239783,257.2095449239783,0,0,0,181.30120262280096,182.44622201494354Z" fill-rule="evenodd" style="fill: #184B42; stroke: #fff; opacity: 1;" id="p-type-logs"></path><path d="M207.7529609655954,212.24445154120704A297,297,0,0,1,206.14549628112923,213.80606718006612L178.52723665520844,185.16148566117957A257.2095449239783,257.2095449239783,0,0,0,179.9193419076425,183.80908684698056Z" fill-rule="evenodd" style="fill: #184B42; stroke: #fff; opacity: 1;" id="p-type-logs"></path><path d="M206.14549628112923,213.80606718006612A297,297,0,0,1,204.52629375236864,215.35550878470653L177.12496613142977,186.50334145247868A257.2095449239783,257.2095449239783,0,0,0,178.52723665520844,185.16148566117957Z" fill-rule="evenodd" style="fill: #184B42; stroke: #fff; opacity: 1;" id="p-type-logs"></path><path d="M204.52629375236864,215.35550878470653A297,297,0,0,1,202.89544557607528,216.89268813052664L175.71261018104417,187.83457781613166A257.2095449239783,257.2095449239783,0,0,0,177.12496613142977,186.50334145247868Z" fill-rule="evenodd" style="fill: #184B42; stroke: #fff; opacity: 1;" id="p-type-logs"></path><path d="M202.89544557607528,216.89268813052664A297,297,0,0,1,201.25304461210925,218.41751769113293L174.29024922304959,189.1551189520582A257.2095449239783,257.2095449239783,0,0,0,175.71261018104417,187.83457781613166Z" fill-rule="evenodd" style="fill: #184B42; stroke: #fff; opacity: 1;" id="p-type-logs"></path><path d="M201.25304461210925,218.41751769113293A297,297,0,0,1,199.59918437814204,219.92991064332398L172.85796424612508,190.46488966916016A257.2095449239783,257.2095449239783,0,0,0,174.29024922304959,189.1551189520582Z" fill-rule="evenodd" style="fill: #184B42; stroke: #fff; opacity: 1;" id="p-type-logs"></path><path d="M199.59918437814204,219.92991064332398A297,297,0,0,1,197.93395904433135,221.42978087203394L171.4158368040196,191.76381538960297A257.2095449239783,257.2095449239783,0,0,0,172.85796424612508,190.46488966916016Z" fill-rule="evenodd" style="fill: #184B42; stroke: #fff; opacity: 1;" id="p-type-logs"></path><path d="M197.93395904433135,221.42978087203394A297,297,0,0,1,196.2574634279594,222.91704297523594L169.96394901090824,193.05182215306178A257.2095449239783,257.2095449239783,0,0,0,171.4158368040196,191.76381538960297Z" fill-rule="evenodd" style="fill: #184B42; stroke: #fff; opacity: 1;" id="p-type-logs"></path><path d="M196.2574634279594,222.91704297523594A297,297,0,0,1,194.56979298803378,224.39161226880492L168.5023835367166,194.32883662093298A257.2095449239783,257.2095449239783,0,0,0,169.96394901090824,193.05182215306178Z" fill-rule="evenodd" style="fill: #184B42; stroke: #fff; opacity: 1;" id="p-type-logs"></path><path d="M194.56979298803378,224.39161226880492A297,297,0,0,1,192.87104381985225,225.85340479133944L167.03122360241372,195.59478608051003A257.2095449239783,257.2095449239783,0,0,0,168.5023835367166,194.32883662093298Z" fill-rule="evenodd" style="fill: #184B42; stroke: #fff; opacity: 1;" id="p-type-logs"></path><path d="M192.87104381985225,225.85340479133944A297,297,0,0,1,191.16131264953103,227.30233730894244L165.55055297527343,196.84959844912356A257.2095449239783,257.2095449239783,0,0,0,167.03122360241372,195.59478608051003Z" fill-rule="evenodd" style="fill: #184B42; stroke: #fff; opacity: 1;" id="p-type-logs"></path><path d="M191.16131264953103,227.30233730894244A297,297,0,0,1,189.44069682849727,228.73832731996052L164.0604559641048,198.09320227824588A257.2095449239783,257.2095449239783,0,0,0,165.55055297527343,196.84959844912356Z" fill-rule="evenodd" style="fill: #184B42; stroke: #fff; opacity: 1;" id="p-type-logs"></path><path d="M189.44069682849727,228.73832731996052A297,297,0,0,1,187.70929432794588,230.16129305968147L162.56101741445136,199.32552675755917A257.2095449239783,257.2095449239783,0,0,0,164.0604559641048,198.09320227824588Z" fill-rule="evenodd" style="fill: #184B42; stroke: #fff; opacity: 1;" id="p-type-logs"></path><path d="M187.70929432794588,230.16129305968147A297,297,0,0,1,185.96720373326113,231.57115350499024L161.05232270376044,200.5465017189874A257.2095449239783,257.2095449239783,0,0,0,162.56101741445136,199.32552675755917Z" fill-rule="evenodd" style="fill: #184B42; stroke: #fff; opacity: 1;" id="p-type-logs"></path><path d="M185.96720373326113,231.57115350499024A297,297,0,0,1,184.21452423840316,232.96782837898195L159.53445773652135,201.75605764069164A257.2095449239783,257.2095449239783,0,0,0,161.05232270376044,200.5465017189874Z" fill-rule="evenodd" style="fill: #184B42; stroke: #fff; opacity: 1;" id="p-type-logs"></path><path d="M184.21452423840316,232.96782837898195A297,297,0,0,1,182.45135564026,234.35123815553305L158.0075089393744,202.95412565102865A257.2095449239783,257.2095449239783,0,0,0,159.53445773652135,201.75605764069164Z" fill-rule="evenodd" style="fill: #184B42; stroke: #fff; opacity: 1;" id="p-type-logs"></path><path d="M182.45135564026,234.35123815553305A297,297,0,0,1,180.67779833296512,235.72130406382954L156.4715632561895,204.14063753247243A257.2095449239783,257.2095449239783,0,0,0,158.0075089393744,202.95412565102865Z" fill-rule="evenodd" style="fill: #184B42; stroke: #fff; opacity: 1;" id="p-type-logs"></path><path d="M180.67779833296512,235.72130406382954A297,297,0,0,1,178.89395330218113,237.07794809285204L154.92670814311592,205.3155257254984A257.2095449239783,257.2095449239783,0,0,0,156.4715632561895,204.14063753247243Z" fill-rule="evenodd" style="fill: #184B42; stroke: #fff; opacity: 1;" id="p-type-logs"></path><path d="M178.89395330218113,237.07794809285204A297,297,0,0,1,177.09992211934943,238.42109299581776L153.37303156360224,206.47872333243026A257.2095449239783,257.2095449239783,0,0,0,154.92670814311592,205.3155257254984Z" fill-rule="evenodd" style="fill: #184B42; stroke: #fff; opacity: 1;" id="p-type-logs"></path><path d="M177.09992211934943,238.42109299581776A297,297,0,0,1,175.29580693590708,239.75066229457886L151.81062198338793,207.63016412124924A257.2095449239783,257.2095449239783,0,0,0,153.37303156360224,206.47872333243026Z" fill-rule="evenodd" style="fill: #184B42; stroke: #fff; opacity: 1;" id="p-type-logs"></path><path d="M175.29580693590708,239.75066229457886A297,297,0,0,1,173.4817104774702,241.06658028397717L150.2395683654662,208.76978252936513A257.2095449239783,257.2095449239783,0,0,0,151.81062198338793,207.63016412124924Z" fill-rule="evenodd" style="fill: #184B42; stroke: #fff; opacity: 1;" id="p-type-logs"></path><path d="M173.4817104774702,241.06658028397717A297,297,0,0,1,171.65773603798482,242.3687720361547L148.6599601650184,209.89751366734944A257.2095449239783,257.2095449239783,0,0,0,150.2395683654662,208.76978252936513Z" fill-rule="evenodd" style="fill: #184B42; stroke: #fff; opacity: 1;" id="p-type-logs"></path><path d="M-20.90069717250404,296.26366779897813A297,297,0,0,1,-23.135642677464446,296.09752116135775L-20.036054291563637,256.42797532333617A257.2095449239783,257.2095449239783,0,0,0,-18.100534708194086,256.5718625322688Z" fill-rule="evenodd" style="fill: #AE497E; stroke: #fff; opacity: 1;" id="p-type-tokenTransfers"></path><path d="M-23.135642677464446,296.09752116135775A297,297,0,0,1,-25.369270847938786,295.9145148461696L-21.970433029802976,256.2694872053303A257.2095449239783,257.2095449239783,0,0,0,-20.036054291563637,256.42797532333617Z" fill-rule="evenodd" style="fill: #AE497E; stroke: #fff; opacity: 1;" id="p-type-tokenTransfers"></path><path d="M-25.369270847938786,295.9145148461696A297,297,0,0,1,-27.60145450200871,295.7146592737221L-23.903560780139905,256.09640720250286A257.2095449239783,257.2095449239783,0,0,0,-21.970433029802976,256.2694872053303Z" fill-rule="evenodd" style="fill: #AE497E; stroke: #fff; opacity: 1;" id="p-type-tokenTransfers"></path><path d="M-27.60145450200871,295.7146592737221A297,297,0,0,1,-29.832066540006075,295.4979658237137L-25.835327471033004,255.9087451699619A257.2095449239783,257.2095449239783,0,0,0,-23.903560780139905,256.09640720250286Z" fill-rule="evenodd" style="fill: #AE497E; stroke: #fff; opacity: 1;" id="p-type-tokenTransfers"></path><path d="M-29.832066540006075,295.4979658237137A297,297,0,0,1,-32.06097995174993,295.26444683458504L-27.765623108439023,255.70651179311042A257.2095449239783,257.2095449239783,0,0,0,-25.835327471033004,255.9087451699619Z" fill-rule="evenodd" style="fill: #AE497E; stroke: #fff; opacity: 1;" id="p-type-tokenTransfers"></path><path d="M-32.06097995174993,295.26444683458504A297,297,0,0,1,-34.28806782377845,295.0141156028165L-29.69433778207595,255.48971858703823A257.2095449239783,257.2095449239783,0,0,0,-27.765623108439023,255.70651179311042Z" fill-rule="evenodd" style="fill: #AE497E; stroke: #fff; opacity: 1;" id="p-type-tokenTransfers"></path><path d="M-34.28806782377845,295.0141156028165A297,297,0,0,1,-36.51320334657533,294.7469863821709L-31.62136167168122,255.258377895866A257.2095449239783,257.2095449239783,0,0,0,-29.69433778207595,255.48971858703823Z" fill-rule="evenodd" style="fill: #AE497E; stroke: #fff; opacity: 1;" id="p-type-tokenTransfers"></path><path d="M-36.51320334657533,294.7469863821709A297,297,0,0,1,-38.73625982179029,294.4630743828821L-33.54658505326486,255.01250289204268A257.2095449239783,257.2095449239783,0,0,0,-31.62136167168122,255.258377895866Z" fill-rule="evenodd" style="fill: #AE497E; stroke: #fff; opacity: 1;" id="p-type-tokenTransfers"></path><path d="M-38.73625982179029,294.4630743828821A297,297,0,0,1,-40.95711066945316,294.16239577078875L-35.46989830535711,254.7521075755952A257.2095449239783,257.2095449239783,0,0,0,-33.54658505326486,255.01250289204268Z" fill-rule="evenodd" style="fill: #AE497E; stroke: #fff; opacity: 1;" id="p-type-tokenTransfers"></path><path d="M-40.95711066945316,294.16239577078875A297,297,0,0,1,-43.1756294351814,293.844967666414L-37.39119191525027,254.47720677333152A257.2095449239783,257.2095449239783,0,0,0,-35.46989830535711,254.7521075755952Z" fill-rule="evenodd" style="fill: #AE497E; stroke: #fff; opacity: 1;" id="p-type-tokenTransfers"></path><path d="M-43.1756294351814,293.844967666414A297,297,0,0,1,-45.39168979738027,293.5108081439905L-39.31035648523424,254.1878161379963A257.2095449239783,257.2095449239783,0,0,0,-37.39119191525027,254.47720677333152Z" fill-rule="evenodd" style="fill: #AE497E; stroke: #fff; opacity: 1;" id="p-type-tokenTransfers"></path><path d="M-45.39168979738027,293.5108081439905A297,297,0,0,1,-47.60516557443559,293.15993623043136L-41.227282738825636,253.88395214737957A257.2095449239783,257.2095449239783,0,0,0,-39.31035648523424,254.1878161379963Z" fill-rule="evenodd" style="fill: #AE497E; stroke: #fff; opacity: 1;" id="p-type-tokenTransfers"></path><path d="M-47.60516557443559,293.15993623043136A297,297,0,0,1,-49.815930731898426,292.7923719042467L-43.141861526989956,253.56563210337876A257.2095449239783,257.2095449239783,0,0,0,-41.227282738825636,253.88395214737957Z" fill-rule="evenodd" style="fill: #AE497E; stroke: #fff; opacity: 1;" id="p-type-tokenTransfers"></path><path d="M-49.815930731898426,292.7923719042467A297,297,0,0,1,-52.023859389661496,292.40813609440613L-45.05398383435646,253.23287413101315A257.2095449239783,257.2095449239783,0,0,0,-43.141861526989956,253.56563210337876Z" fill-rule="evenodd" style="fill: #AE497E; stroke: #fff; opacity: 1;" id="p-type-tokenTransfers"></path><path d="M-52.023859389661496,292.40813609440613A297,297,0,0,1,-54.228825829126706,292.0072506791471L-46.96354078542545,252.88569717739216A257.2095449239783,257.2095449239783,0,0,0,-45.05398383435646,253.23287413101315Z" fill-rule="evenodd" style="fill: #AE497E; stroke: #fff; opacity: 1;" id="p-type-tokenTransfers"></path><path d="M-54.228825829126706,292.0072506791471A297,297,0,0,1,-56.4307045003635,291.589738484729L-48.87042365076764,252.52412101063632A257.2095449239783,257.2095449239783,0,0,0,-46.96354078542545,252.88569717739216Z" fill-rule="evenodd" style="fill: #AE497E; stroke: #fff; opacity: 1;" id="p-type-tokenTransfers"></path><path d="M-56.4307045003635,291.589738484729A297,297,0,0,1,-58.62937002925765,291.1556232841337L-50.77452385321512,252.1481662187518A257.2095449239783,257.2095449239783,0,0,0,-48.87042365076764,252.52412101063632Z" fill-rule="evenodd" style="fill: #AE497E; stroke: #fff; opacity: 1;" id="p-type-tokenTransfers"></path><path d="M-58.62937002925765,291.1556232841337A297,297,0,0,1,-60.82469722465,290.7049297957117L-52.67573297404375,251.7578542084581A257.2095449239783,257.2095449239783,0,0,0,-50.77452385321512,252.1481662187518Z" fill-rule="evenodd" style="fill: #AE497E; stroke: #fff; opacity: 1;" id="p-type-tokenTransfers"></path><path d="M-60.82469722465,290.7049297957117A297,297,0,0,1,-63.01656108546482,290.2376836817746L-54.57394275914642,251.35320720396908A257.2095449239783,257.2095449239783,0,0,0,-52.67573297404375,251.7578542084581Z" fill-rule="evenodd" style="fill: #AE497E; stroke: #fff; opacity: 1;" id="p-type-tokenTransfers"></path><path d="M-63.01656108546482,290.2376836817746A297,297,0,0,1,-65.20483680782728,289.75391154713446L-56.46904512519705,250.93424824572764A257.2095449239783,257.2095449239783,0,0,0,-54.57394275914642,251.35320720396908Z" fill-rule="evenodd" style="fill: #AE497E; stroke: #fff; opacity: 1;" id="p-type-tokenTransfers"></path><path d="M-65.20483680782728,289.75391154713446A297,297,0,0,1,-67.38939979216977,289.25364093758805L-58.36093216580479,250.50100118909373A257.2095449239783,257.2095449239783,0,0,0,-56.46904512519705,250.93424824572764Z" fill-rule="evenodd" style="fill: #AE497E; stroke: #fff; opacity: 1;" id="p-type-tokenTransfers"></path><path d="M-67.38939979216977,289.25364093758805A297,297,0,0,1,-69.57012565032653,288.7369003383492L-60.249496157658164,250.05349070298607A257.2095449239783,257.2095449239783,0,0,0,-58.36093216580479,250.50100118909373Z" fill-rule="evenodd" style="fill: #AE497E; stroke: #fff; opacity: 1;" id="p-type-tokenTransfers"></path><path d="M-69.57012565032653,288.7369003383492A297,297,0,0,1,-71.74689021261628,288.2037191724263L-62.1346295666588,249.59174226847747A257.2095449239783,257.2095449239783,0,0,0,-60.249496157658164,250.05349070298607Z" fill-rule="evenodd" style="fill: #AE497E; stroke: #fff; opacity: 1;" id="p-type-tokenTransfers"></path><path d="M-71.74689021261628,288.2037191724263A297,297,0,0,1,-73.91956953491237,287.65412779894757L-64.01622505404437,249.1157821773441A257.2095449239783,257.2095449239783,0,0,0,-62.1346295666588,249.59174226847747Z" fill-rule="evenodd" style="fill: #AE497E; stroke: #fff; opacity: 1;" id="p-type-tokenTransfers"></path><path d="M-73.91956953491237,287.65412779894757A297,297,0,0,1,-76.08803990570013,287.08815751143163L-65.89417548250043,248.62563753056813A257.2095449239783,257.2095449239783,0,0,0,-64.01622505404437,249.1157821773441Z" fill-rule="evenodd" style="fill: #AE497E; stroke: #fff; opacity: 1;" id="p-type-tokenTransfers"></path><path d="M-76.08803990570013,287.08815751143163A297,297,0,0,1,-78.25217785312098,286.5058405360064L-67.7683739222608,248.12133623679495A257.2095449239783,257.2095449239783,0,0,0,-65.89417548250043,248.62563753056813Z" fill-rule="evenodd" style="fill: #AE497E; stroke: #fff; opacity: 1;" id="p-type-tokenTransfers"></path><path d="M-78.25217785312098,286.5058405360064A297,297,0,0,1,-80.41186015200276,285.90721002957366L-69.638713657196,247.60290701074385A257.2095449239783,257.2095449239783,0,0,0,-67.7683739222608,248.12133623679495Z" fill-rule="evenodd" style="fill: #AE497E; stroke: #fff; opacity: 1;" id="p-type-tokenTransfers"></path><path d="M-80.41186015200276,285.90721002957366A297,297,0,0,1,-82.56696383087632,285.2923000779214L-71.50508819088981,247.07037937157315A257.2095449239783,257.2095449239783,0,0,0,-69.638713657196,247.60290701074385Z" fill-rule="evenodd" style="fill: #AE497E; stroke: #fff; opacity: 1;" id="p-type-tokenTransfers"></path><path d="M-82.56696383087632,285.2923000779214A297,297,0,0,1,-84.71736617897726,284.6611456937829L-73.36739125270293,246.52378364119923A257.2095449239783,257.2095449239783,0,0,0,-71.50508819088981,247.07037937157315Z" fill-rule="evenodd" style="fill: #AE497E; stroke: #fff; opacity: 1;" id="p-type-tokenTransfers"></path><path d="M-84.71736617897726,284.6611456937829A297,297,0,0,1,-86.86294475323312,284.0137828148429L-75.2255168038241,245.96315094257022A257.2095449239783,257.2095449239783,0,0,0,-73.36739125270293,246.52378364119923Z" fill-rule="evenodd" style="fill: #AE497E; stroke: #fff; opacity: 1;" id="p-type-tokenTransfers"></path><path d="M-86.86294475323312,284.0137828148429A297,297,0,0,1,-89.00357738523533,283.35024830169186L-77.07935904330796,245.38851319789364A257.2095449239783,257.2095449239783,0,0,0,-75.2255168038241,245.96315094257022Z" fill-rule="evenodd" style="fill: #AE497E; stroke: #fff; opacity: 1;" id="p-type-tokenTransfers"></path><path d="M-89.00357738523533,283.35024830169186A297,297,0,0,1,-91.13914218819524,282.67057993572644L-78.92881241409916,244.79990312681895A257.2095449239783,257.2095449239783,0,0,0,-77.07935904330796,245.38851319789364Z" fill-rule="evenodd" style="fill: #AE497E; stroke: #fff; opacity: 1;" id="p-type-tokenTransfers"></path><path d="M-91.13914218819524,282.67057993572644A297,297,0,0,1,-93.26951756388449,281.9748164169989L-80.77377160904287,244.19735424457446A257.2095449239783,257.2095449239783,0,0,0,-78.92881241409916,244.79990312681895Z" fill-rule="evenodd" style="fill: #AE497E; stroke: #fff; opacity: 1;" id="p-type-tokenTransfers"></path><path d="M-93.26951756388449,281.9748164169989A297,297,0,0,1,-95.39458220955868,281.26299736201304L-82.61413157688088,243.58090086005885A257.2095449239783,257.2095449239783,0,0,0,-80.77377160904287,244.19735424457446Z" fill-rule="evenodd" style="fill: #AE497E; stroke: #fff; opacity: 1;" id="p-type-tokenTransfers"></path><path d="M-95.39458220955868,281.26299736201304A297,297,0,0,1,-97.51421512486425,280.5351633014687L-84.44978752823317,242.95057807388784A257.2095449239783,257.2095449239783,0,0,0,-82.61413157688088,243.58090086005885Z" fill-rule="evenodd" style="fill: #AE497E; stroke: #fff; opacity: 1;" id="p-type-tokenTransfers"></path><path d="M-97.51421512486425,280.5351633014687A297,297,0,0,1,-99.6282956187283,279.79135567795385L-86.2806349415646,242.30642177639547A257.2095449239783,257.2095449239783,0,0,0,-84.44978752823317,242.95057807388784Z" fill-rule="evenodd" style="fill: #AE497E; stroke: #fff; opacity: 1;" id="p-type-tokenTransfers"></path><path d="M-99.6282956187283,279.79135567795385A297,297,0,0,1,-101.73670331623067,279.031616843585L-88.10656956913631,241.64846864559053A257.2095449239783,257.2095449239783,0,0,0,-86.2806349415646,242.30642177639547Z" fill-rule="evenodd" style="fill: #AE497E; stroke: #fff; opacity: 1;" id="p-type-tokenTransfers"></path><path d="M-101.73670331623067,279.031616843585A297,297,0,0,1,-103.83931816545797,278.2559900575957L-89.92748744294154,240.97675614506807A257.2095449239783,257.2095449239783,0,0,0,-88.10656956913631,241.64846864559053Z" fill-rule="evenodd" style="fill: #AE497E; stroke: #fff; opacity: 1;" id="p-type-tokenTransfers"></path><path d="M-103.83931816545797,278.2559900575957A297,297,0,0,1,-105.93602044433933,277.46451948387295L-91.74328488062552,240.29132252187634A257.2095449239783,257.2095449239783,0,0,0,-89.92748744294154,240.97675614506807Z" fill-rule="evenodd" style="fill: #AE497E; stroke: #fff; opacity: 1;" id="p-type-tokenTransfers"></path><path d="M-105.93602044433933,277.46451948387295A297,297,0,0,1,-108.02669076746338,276.6572501884432L-93.55385849138916,239.59220680433899A257.2095449239783,257.2095449239783,0,0,0,-91.74328488062552,240.29132252187634Z" fill-rule="evenodd" style="fill: #AE497E; stroke: #fff; opacity: 1;" id="p-type-tokenTransfers"></path><path d="M-108.02669076746338,276.6572501884432A297,297,0,0,1,-110.11121009287591,275.8342281369057L-95.35910518187602,238.87944879983274A257.2095449239783,257.2095449239783,0,0,0,-93.55385849138916,239.59220680433899Z" fill-rule="evenodd" style="fill: #AE497E; stroke: #fff; opacity: 1;" id="p-type-tokenTransfers"></path><path d="M-110.11121009287591,275.8342281369057A297,297,0,0,1,-112.18945972885817,274.9955001918157L-97.15892216204242,238.15308909252087A257.2095449239783,257.2095449239783,0,0,0,-95.35910518187602,238.87944879983274Z" fill-rule="evenodd" style="fill: #AE497E; stroke: #fff; opacity: 1;" id="p-type-tokenTransfers"></path><path d="M-112.18945972885817,274.9955001918157A297,297,0,0,1,-114.26132134068506,274.14111411001585L-98.95320695101027,237.41316904104232A257.2095449239783,257.2095449239783,0,0,0,-97.15892216204242,238.15308909252087Z" fill-rule="evenodd" style="fill: #AE497E; stroke: #fff; opacity: 1;" id="p-type-tokenTransfers"></path><path d="M-114.26132134068506,274.14111411001585A297,297,0,0,1,-116.32667695736309,273.27111853991687L-100.74185738290232,236.6597307761567A257.2095449239783,257.2095449239783,0,0,0,-98.95320695101027,237.41316904104232Z" fill-rule="evenodd" style="fill: #AE497E; stroke: #fff; opacity: 1;" id="p-type-tokenTransfers"></path><path d="M-116.32667695736309,273.27111853991687A297,297,0,0,1,-118.38540897834761,272.38556301872785L-102.52477161265939,235.89281719834548A257.2095449239783,257.2095449239783,0,0,0,-100.74185738290232,236.6597307761567Z" fill-rule="evenodd" style="fill: #AE497E; stroke: #fff; opacity: 1;" id="p-type-tokenTransfers"></path><path d="M-118.38540897834761,272.38556301872785A297,297,0,0,1,-120.43740018023891,271.48449796963547L-104.30184812183943,235.11247197536917A257.2095449239783,257.2095449239783,0,0,0,-102.52477161265939,235.89281719834548Z" fill-rule="evenodd" style="fill: #AE497E; stroke: #fff; opacity: 1;" id="p-type-tokenTransfers"></path><path d="M-120.43740018023891,271.48449796963547A297,297,0,0,1,-122.48253372345692,270.56797469893263L-106.07298572439791,234.3187395397809A257.2095449239783,257.2095449239783,0,0,0,-104.30184812183943,235.11247197536917Z" fill-rule="evenodd" style="fill: #AE497E; stroke: #fff; opacity: 1;" id="p-type-tokenTransfers"></path><path d="M-122.48253372345692,270.56797469893263A297,297,0,0,1,-124.52069315889399,269.63604539309756L-107.83808357244936,233.51166508639653A257.2095449239783,257.2095449239783,0,0,0,-106.07298572439791,234.3187395397809Z" fill-rule="evenodd" style="fill: #AE497E; stroke: #fff; opacity: 1;" id="p-type-tokenTransfers"></path><path d="M-124.52069315889399,269.63604539309756A297,297,0,0,1,-126.5517624345454,268.68876311582216L-109.59704116200953,232.69129456972126A257.2095449239783,257.2095449239783,0,0,0,-107.83808357244936,233.51166508639653Z" fill-rule="evenodd" style="fill: #AE497E; stroke: #fff; opacity: 1;" id="p-type-tokenTransfers"></path><path d="M-126.5517624345454,268.68876311582216A297,297,0,0,1,-128.57562590211742,267.72618180499035L-111.34975833871817,231.8576747013328A257.2095449239783,257.2095449239783,0,0,0,-109.59704116200953,232.69129456972126Z" fill-rule="evenodd" style="fill: #AE497E; stroke: #fff; opacity: 1;" id="p-type-tokenTransfers"></path><path d="M-128.57562590211742,267.72618180499035A297,297,0,0,1,-130.5921683236122,266.7483562696073L-113.09613530354166,231.01085294722196A257.2095449239783,257.2095449239783,0,0,0,-111.34975833871817,231.8576747013328Z" fill-rule="evenodd" style="fill: #AE497E; stroke: #fff; opacity: 1;" id="p-type-tokenTransfers"></path><path d="M-130.5921683236122,266.7483562696073A297,297,0,0,1,-132.60127487788947,265.7553421866782L-114.83607261845556,230.15087752508964A257.2095449239783,257.2095449239783,0,0,0,-113.09613530354166,231.01085294722196Z" fill-rule="evenodd" style="fill: #AE497E; stroke: #fff; opacity: 1;" id="p-type-tokenTransfers"></path><path d="M-132.60127487788947,265.7553421866782A297,297,0,0,1,-134.6028311672042,264.7471960980383L-116.56947121210663,229.27779740160153A257.2095449239783,257.2095449239783,0,0,0,-114.83607261845556,230.15087752508964Z" fill-rule="evenodd" style="fill: #AE497E; stroke: #fff; opacity: 1;" id="p-type-tokenTransfers"></path><path d="M-134.6028311672042,264.7471960980383A297,297,0,0,1,-136.59672322372063,263.7239754071333L-118.29623238545386,228.39166228960002A257.2095449239783,257.2095449239783,0,0,0,-116.56947121210663,229.27779740160153Z" fill-rule="evenodd" style="fill: #AE497E; stroke: #fff; opacity: 1;" id="p-type-tokenTransfers"></path><path d="M-136.59672322372063,263.7239754071333A297,297,0,0,1,-138.58283751600138,262.6857383757511L-120.01625781738835,227.49252264527328A257.2095449239783,257.2095449239783,0,0,0,-118.29623238545386,228.39166228960002Z" fill-rule="evenodd" style="fill: #AE497E; stroke: #fff; opacity: 1;" id="p-type-tokenTransfers"></path><path d="M-138.58283751600138,262.6857383757511A297,297,0,0,1,-140.561060955472,261.6325441207039L-121.72944957033172,226.5804296652826A257.2095449239783,257.2095449239783,0,0,0,-120.01625781738835,227.49252264527328Z" fill-rule="evenodd" style="fill: #AE497E; stroke: #fff; opacity: 1;" id="p-type-tokenTransfers"></path><path d="M-140.561060955472,261.6325441207039A297,297,0,0,1,-142.53128090286003,260.5644526104626L-123.4357100958126,225.6554352838471A257.2095449239783,257.2095449239783,0,0,0,-121.72944957033172,226.5804296652826Z" fill-rule="evenodd" style="fill: #AE497E; stroke: #fff; opacity: 1;" id="p-type-tokenTransfers"></path><path d="M-142.53128090286003,260.5644526104626A297,297,0,0,1,-144.49338517460876,259.48152466174184L-125.13494224002099,224.71759216978677A257.2095449239783,257.2095449239783,0,0,0,-123.4357100958126,225.6554352838471Z" fill-rule="evenodd" style="fill: #AE497E; stroke: #fff; opacity: 1;" id="p-type-tokenTransfers"></path><path d="M-144.49338517460876,259.48152466174184A297,297,0,0,1,-146.44726204926502,258.38382193603746L-126.82704924934023,223.76695372352333A257.2095449239783,257.2095449239783,0,0,0,-125.13494224002099,224.71759216978677Z" fill-rule="evenodd" style="fill: #AE497E; stroke: #fff; opacity: 1;" id="p-type-tokenTransfers"></path><path d="M-146.44726204926502,258.38382193603746A297,297,0,0,1,-148.3928002738402,257.27140693611517L-128.51193477585602,222.80357407403977A257.2095449239783,257.2095449239783,0,0,0,-126.82704924934023,223.76695372352333Z" fill-rule="evenodd" style="fill: #AE497E; stroke: #fff; opacity: 1;" id="p-type-tokenTransfers"></path><path d="M-148.3928002738402,257.27140693611517A297,297,0,0,1,-150.32988907014538,256.144343002452L-130.18950288284253,221.82750807579825A257.2095449239783,257.2095449239783,0,0,0,-128.51193477585602,222.80357407403977Z" fill-rule="evenodd" style="fill: #AE497E; stroke: #fff; opacity: 1;" id="p-type-tokenTransfers"></path><path d="M-150.32988907014538,256.144343002452A297,297,0,0,1,-152.25841814109867,255.0026943096295L-131.85965805022488,220.83881130561667A257.2095449239783,257.2095449239783,0,0,0,-130.18950288284253,221.82750807579825Z" fill-rule="evenodd" style="fill: #AE497E; stroke: #fff; opacity: 1;" id="p-type-tokenTransfers"></path><path d="M-152.25841814109867,255.0026943096295A297,297,0,0,1,-154.1782776770057,253.84652586267975L-133.52230518001815,219.8375400595042A257.2095449239783,257.2095449239783,0,0,0,-131.85965805022488,220.83881130561667Z" fill-rule="evenodd" style="fill: #AE497E; stroke: #fff; opacity: 1;" id="p-type-tokenTransfers"></path><path d="M-154.1782776770057,253.84652586267975A297,297,0,0,1,-156.08935836181192,252.67590349338388L-135.17734960174212,218.82375134945565A257.2095449239783,257.2095449239783,0,0,0,-133.52230518001815,219.8375400595042Z" fill-rule="evenodd" style="fill: #AE497E; stroke: #fff; opacity: 1;" id="p-type-tokenTransfers"></path><path d="M-156.08935836181192,252.67590349338388A297,297,0,0,1,-157.9915513793273,251.49089385652394L-136.8246970778118,217.79750290020556A257.2095449239783,257.2095449239783,0,0,0,-135.17734960174212,218.82375134945565Z" fill-rule="evenodd" style="fill: #AE497E; stroke: #fff; opacity: 1;" id="p-type-tokenTransfers"></path><path d="M-157.9915513793273,251.49089385652394A297,297,0,0,1,-159.884748419422,250.29156442608712L-138.46425380890335,216.75885314594095A257.2095449239783,257.2095449239783,0,0,0,-136.8246970778118,217.79750290020556Z" fill-rule="evenodd" style="fill: #AE497E; stroke: #fff; opacity: 1;" id="p-type-tokenTransfers"></path><path d="M-159.884748419422,250.29156442608712A297,297,0,0,1,-161.76884168419377,249.07798349142433L-140.09592643929486,215.7078612269745A257.2095449239783,257.2095449239783,0,0,0,-138.46425380890335,216.75885314594095Z" fill-rule="evenodd" style="fill: #AE497E; stroke: #fff; opacity: 1;" id="p-type-tokenTransfers"></path><path d="M-161.76884168419377,249.07798349142433A297,297,0,0,1,-163.64372389410562,247.85022015336142L-141.71962206218203,214.64458698637685A257.2095449239783,257.2095449239783,0,0,0,-140.09592643929486,215.7078612269745Z" fill-rule="evenodd" style="fill: #AE497E; stroke: #fff; opacity: 1;" id="p-type-tokenTransfers"></path><path d="M-163.64372389410562,247.85022015336142A297,297,0,0,1,-165.50928829409452,246.60834432026485L-143.33524822496827,213.56909096656923A257.2095449239783,257.2095449239783,0,0,0,-141.71962206218203,214.64458698637685Z" fill-rule="evenodd" style="fill: #AE497E; stroke: #fff; opacity: 1;" id="p-type-tokenTransfers"></path><path d="M-165.50928829409452,246.60834432026485A297,297,0,0,1,-167.36542865964992,245.352426704061L-144.942712934529,212.4814344058763A257.2095449239783,257.2095449239783,0,0,0,-143.33524822496827,213.56909096656923Z" fill-rule="evenodd" style="fill: #AE497E; stroke: #fff; opacity: 1;" id="p-type-tokenTransfers"></path><path d="M-167.36542865964992,245.352426704061A297,297,0,0,1,-169.2120393028621,244.08253881620996L-146.54192466244945,211.38167923503917A257.2095449239783,257.2095449239783,0,0,0,-144.942712934529,212.4814344058763Z" fill-rule="evenodd" style="fill: #AE497E; stroke: #fff; opacity: 1;" id="p-type-tokenTransfers"></path><path d="M-169.2120393028621,244.08253881620996A297,297,0,0,1,-171.04901507844002,242.79875296363363L-148.13279235023657,210.26988807368897A257.2095449239783,257.2095449239783,0,0,0,-146.54192466244945,211.38167923503917Z" fill-rule="evenodd" style="fill: #AE497E; stroke: #fff; opacity: 1;" id="p-type-tokenTransfers"></path></g></svg>