<svg xmlns="http://www.w3.org/2000/svg" width="600" height="600" id="block-7914274"><g id="burst-container" transform="translate(300,300)"><data type="text/json">{"number":7914274,"totalTransactions":19,"totalFunctions":0,"totalFunctionsValue":"0","totalLogs":55,"totalTokenTransfers":55,"tokens":{"0x174bfa6600bf90c885c7c01c7031389ed1461ab9":"45.77244964","0x89d24a6b4ccb1b6faa2625fe562bdd9a23260359":"120.112817092561825028","0x55370c60fca4929867f8e0e59acfc6198bdca274":"0.01","0xe019070ca3ee26f0fed7ced235a69992014c3181":"1.478760703126863358","0xed314bf44013612e8c00abd3cb6eade61cc8c72e":"7291.49544710524869742","0x693d04b55963b62ef2bb7f8f28b03b25023286ce":"0.01","0xa0b86991c6218b36c1d19d4a2e9eb0ce3606eb48":"1e-18","0x06a6a7af298129e3a2ab396c9c06f91d3c54aba8":"1.48332e-13"},"totalEther":"1.1103","totalEtherTxns":3,"newContracts":[],"totalNewContracts":0}</data><circle r="297" style="fill: #f9f9f9; stroke: #f9f9f9; stroke-width: 3; opacity: 1;" id="circle-base"></circle><path display="none" d="M9.093002483669097e-15,-148.5A148.5,148.5,0,1,1,-9.093002483669097e-15,148.5A148.5,148.5,0,1,1,9.093002483669097e-15,-148.5Z" fill-rule="evenodd" id="p-type-root" style="stroke: #fff; opacity: 1;"></path><path d="M1.2859447435097075e-14,-210.0107140124046A210.0107140124046,210.0107140124046,0,1,1,-202.26306728047,-56.516825939679805L-143.02158645761125,-39.96343087308736A148.5,148.5,0,1,0,9.093002483669097e-15,-148.5Z" fill-rule="evenodd" style="fill: #4E4E4E; stroke: #fff; opacity: 1;" id="p-type-data"></path><path d="M-202.26306728047,-56.516825939679805A210.0107140124046,210.0107140124046,0,0,1,-30.190788229941813,-207.82929607265385L-21.34811108675886,-146.95750458220024A148.5,148.5,0,0,0,-143.02158645761125,-39.96343087308736Z" fill-rule="evenodd" style="fill: #3A86AD; stroke: #fff; opacity: 1;" id="p-type-value"></path><path d="M1.5749542295064867e-14,-257.2095449239783A257.2095449239783,257.2095449239783,0,0,1,253.91191555617672,41.054709091564405L207.31821090842777,33.52102960424477A210.0107140124046,210.0107140124046,0,0,0,1.2859447435097075e-14,-210.0107140124046Z" fill-rule="evenodd" style="fill: #184B42; stroke: #fff; opacity: 1;" id="p-type-logs"></path><path d="M253.91191555617672,41.054709091564405A257.2095449239783,257.2095449239783,0,0,1,-45.12283838164238,253.22061420110367L-36.842643260365364,206.75376571561992A210.0107140124046,210.0107140124046,0,0,0,207.31821090842777,33.52102960424477Z" fill-rule="evenodd" style="fill: #AE497E; stroke: #fff; opacity: 1;" id="p-type-tokenTransfers"></path><path d="M-45.12283838164238,253.22061420110367A257.2095449239783,257.2095449239783,0,0,1,-117.1321839328972,228.99083275779827L-95.63802769780808,186.970232010535A210.0107140124046,210.0107140124046,0,0,0,-36.842643260365364,206.75376571561992Z" fill-rule="evenodd" style="fill: #F09B24; stroke: #fff; opacity: 1;" id="p-type-ether"></path><path d="M-247.72065432368757,-69.21869271695397A257.2095449239783,257.2095449239783,0,0,1,-124.4181731523447,-225.11523313501726L-101.58701298416324,-183.80581816948953A210.0107140124046,210.0107140124046,0,0,0,-202.26306728047,-56.516825939679805Z" fill-rule="evenodd" style="fill: #AE497E; stroke: #fff; opacity: 1;" id="p-type-tokenTransfers"></path><path d="M-124.4181731523447,-225.11523313501726A257.2095449239783,257.2095449239783,0,0,1,-73.18387349383033,-246.5783256096104L-59.754382486759695,-201.33035979113043A210.0107140124046,210.0107140124046,0,0,0,-101.58701298416324,-183.80581816948953Z" fill-rule="evenodd" style="fill: #F09B24; stroke: #fff; opacity: 1;" id="p-type-ether"></path><path d="M1.8186004967338195e-14,-297A297,297,0,0,1,21.403764600801708,-296.22774829666696L18.536203880916375,-256.54075533077605A257.2095449239783,257.2095449239783,0,0,0,1.5749542295064867e-14,-257.2095449239783Z" fill-rule="evenodd" style="fill: #184B42; stroke: #fff; opacity: 1;" id="p-type-logs"></path><path d="M21.403764600801708,-296.22774829666696A297,297,0,0,1,42.69622217351781,-293.91500916440043L36.976013047890866,-254.5378644899069A257.2095449239783,257.2095449239783,0,0,0,18.536203880916375,-256.54075533077605Z" fill-rule="evenodd" style="fill: #184B42; stroke: #fff; opacity: 1;" id="p-type-logs"></path><path d="M42.69622217351781,-293.91500916440043A297,297,0,0,1,63.766644525362565,-290.0738096519161L55.22353407305589,-251.21128813109104A257.2095449239783,257.2095449239783,0,0,0,36.976013047890866,-254.5378644899069Z" fill-rule="evenodd" style="fill: #184B42; stroke: #fff; opacity: 1;" id="p-type-logs"></path><path d="M63.766644525362565,-290.0738096519161A297,297,0,0,1,84.50545812400507,-284.72412533407146L73.18387349383048,-246.57832560961035A257.2095449239783,257.2095449239783,0,0,0,55.22353407305589,-251.21128813109104Z" fill-rule="evenodd" style="fill: #184B42; stroke: #fff; opacity: 1;" id="p-type-logs"></path><path d="M84.50545812400507,-284.72412533407146A297,297,0,0,1,104.80481391808729,-277.8937764319221L90.7636312919645,-240.66306994363785A257.2095449239783,257.2095449239783,0,0,0,73.18387349383048,-246.57832560961035Z" fill-rule="evenodd" style="fill: #184B42; stroke: #fff; opacity: 1;" id="p-type-logs"></path><path d="M104.80481391808729,-277.8937764319221A297,297,0,0,1,124.5591481898412,-269.61828313788584L107.87138660615295,-233.4962825221547A257.2095449239783,257.2095449239783,0,0,0,90.7636312919645,-240.66306994363785Z" fill-rule="evenodd" style="fill: #184B42; stroke: #fff; opacity: 1;" id="p-type-logs"></path><path d="M124.5591481898412,-269.61828313788584A297,297,0,0,1,143.6657315231755,-259.9406808983751L124.41817315234482,-225.1152331350172A257.2095449239783,257.2095449239783,0,0,0,107.87138660615295,-233.4962825221547Z" fill-rule="evenodd" style="fill: #184B42; stroke: #fff; opacity: 1;" id="p-type-logs"></path><path d="M143.6657315231755,-259.9406808983751A297,297,0,0,1,162.02520303240638,-248.91129661449176L140.3179418793954,-215.56350615707342A257.2095449239783,257.2095449239783,0,0,0,124.41817315234482,-225.1152331350172Z" fill-rule="evenodd" style="fill: #184B42; stroke: #fff; opacity: 1;" id="p-type-logs"></path><path d="M162.02520303240638,-248.91129661449176A297,297,0,0,1,179.5420870734577,-236.58748692461936L155.48800845409204,-204.8907738942391A257.2095449239783,257.2095449239783,0,0,0,140.3179418793954,-215.56350615707342Z" fill-rule="evenodd" style="fill: #184B42; stroke: #fff; opacity: 1;" id="p-type-logs"></path><path d="M179.5420870734577,-236.58748692461936A297,297,0,0,1,196.12528975045214,-223.0333399299333L169.84948324847537,-193.15253827021246A257.2095449239783,257.2095449239783,0,0,0,155.48800845409204,-204.8907738942391Z" fill-rule="evenodd" style="fill: #184B42; stroke: #fff; opacity: 1;" id="p-type-logs"></path><path d="M196.12528975045214,-223.0333399299333A297,297,0,0,1,211.68857263568583,-208.31934191396144L183.3276815933713,-180.409842197147A257.2095449239783,257.2095449239783,0,0,0,169.84948324847537,-193.15253827021246Z" fill-rule="evenodd" style="fill: #184B42; stroke: #fff; opacity: 1;" id="p-type-logs"></path><path d="M211.68857263568583,-208.31934191396144A297,297,0,0,1,226.1510012394781,-192.52201078936815L195.85251216467412,-166.7289521312546A257.2095449239783,257.2095449239783,0,0,0,183.3276815933713,-180.409842197147Z" fill-rule="evenodd" style="fill: #184B42; stroke: #fff; opacity: 1;" id="p-type-logs"></path><path d="M293.1922255936243,47.40589469103298A297,297,0,0,1,289.0134956061632,68.41198255792827L250.29302923147958,59.2465148184238A257.2095449239783,257.2095449239783,0,0,0,253.91191555617672,41.054709091564405Z" fill-rule="evenodd" style="fill: #AE497E; stroke: #fff; opacity: 1;" id="p-type-tokenTransfers"></path><path d="M289.0134956061632,68.41198255792827A297,297,0,0,1,283.3317948155499,89.0623042964818L245.37253201010634,77.13021804033319A257.2095449239783,257.2095449239783,0,0,0,250.29302923147958,59.2465148184238Z" fill-rule="evenodd" style="fill: #AE497E; stroke: #fff; opacity: 1;" id="p-type-tokenTransfers"></path><path d="M283.3317948155499,89.0623042964818A297,297,0,0,1,276.1766700440968,109.24947104381833L239.1760121907806,94.61281727395911A257.2095449239783,257.2095449239783,0,0,0,245.37253201010634,77.13021804033319Z" fill-rule="evenodd" style="fill: #AE497E; stroke: #fff; opacity: 1;" id="p-type-tokenTransfers"></path><path d="M276.1766700440968,109.24947104381833A297,297,0,0,1,267.58533043181933,128.8685025042739L231.7356938340088,111.60339691635974A257.2095449239783,257.2095449239783,0,0,0,239.1760121907806,94.61281727395911Z" fill-rule="evenodd" style="fill: #AE497E; stroke: #fff; opacity: 1;" id="p-type-tokenTransfers"></path><path d="M267.58533043181933,128.8685025042739A297,297,0,0,1,257.60245393595335,147.81737288348424L223.09026918574628,128.01360003777438A257.2095449239783,257.2095449239783,0,0,0,231.7356938340088,111.60339691635974Z" fill-rule="evenodd" style="fill: #AE497E; stroke: #fff; opacity: 1;" id="p-type-tokenTransfers"></path><path d="M257.60245393595335,147.81737288348424A297,297,0,0,1,246.27995499002128,165.99754145803814L213.28469746424656,143.75808786842157A257.2095449239783,257.2095449239783,0,0,0,223.09026918574628,128.01360003777438Z" fill-rule="evenodd" style="fill: #AE497E; stroke: #fff; opacity: 1;" id="p-type-tokenTransfers"></path><path d="M246.27995499002128,165.99754145803814A297,297,0,0,1,233.67671453070318,183.3144650215478L202.36997105647322,158.7549835898143A257.2095449239783,257.2095449239783,0,0,0,213.28469746424656,143.75808786842157Z" fill-rule="evenodd" style="fill: #AE497E; stroke: #fff; opacity: 1;" id="p-type-tokenTransfers"></path><path d="M233.67671453070318,183.3144650215478A297,297,0,0,1,219.8582737964651,199.67808954223943L190.40285033993337,172.9262981227232A257.2095449239783,257.2095449239783,0,0,0,202.36997105647322,158.7549835898143Z" fill-rule="evenodd" style="fill: #AE497E; stroke: #fff; opacity: 1;" id="p-type-tokenTransfers"></path><path d="M219.8582737964651,199.67808954223943A297,297,0,0,1,204.89649349029992,215.00331847527258L177.44556850895262,186.1983356975422A257.2095449239783,257.2095449239783,0,0,0,190.40285033993337,172.9262981227232Z" fill-rule="evenodd" style="fill: #AE497E; stroke: #fff; opacity: 1;" id="p-type-tokenTransfers"></path><path d="M204.89649349029992,215.00331847527258A297,297,0,0,1,188.86918007905155,229.21045529440144L163.56550794039646,198.50207709794904A257.2095449239783,257.2095449239783,0,0,0,177.44556850895262,186.1983356975422Z" fill-rule="evenodd" style="fill: #AE497E; stroke: #fff; opacity: 1;" id="p-type-tokenTransfers"></path><path d="M188.86918007905155,229.21045529440144A297,297,0,0,1,171.8596811726977,242.2256179416593L148.8348497818504,209.77353858486066A257.2095449239783,257.2095449239783,0,0,0,163.56550794039646,198.50207709794904Z" fill-rule="evenodd" style="fill: #AE497E; stroke: #fff; opacity: 1;" id="p-type-tokenTransfers"></path><path d="M-52.103365772482405,292.39397954673916A297,297,0,0,1,-73.03971256016868,287.8787946152476L-63.25424656221942,249.3103493476473A257.2095449239783,257.2095449239783,0,0,0,-45.12283838164238,253.22061420110367Z" fill-rule="evenodd" style="fill: #F09B24; stroke: #fff; opacity: 1;" id="p-type-ether"></path><path d="M-73.03971256016868,287.8787946152476A297,297,0,0,1,-75.32147703661842,287.29022798734763L-65.23031256427778,248.80063569606617A257.2095449239783,257.2095449239783,0,0,0,-63.25424656221942,249.3103493476473Z" fill-rule="evenodd" style="fill: #F09B24; stroke: #fff; opacity: 1;" id="p-type-ether"></path></g></svg>