<svg xmlns="http://www.w3.org/2000/svg" width="600" height="600" id="block-7914258"><g id="burst-container" transform="translate(300,300)"><data type="text/json">{"number":7914258,"totalTransactions":16,"totalFunctions":27,"totalFunctionsValue":"0","totalLogs":11,"totalTokenTransfers":11,"tokens":{"0x174bfa6600bf90c885c7c01c7031389ed1461ab9":"22.04185848"},"totalEther":"3.870810057497514972","totalEtherTxns":3,"newContracts":[],"totalNewContracts":0}</data><circle r="297" style="fill: #f9f9f9; stroke: #f9f9f9; stroke-width: 3; opacity: 1;" id="circle-base"></circle><path display="none" d="M9.093002483669097e-15,-148.5A148.5,148.5,0,1,1,-9.093002483669097e-15,148.5A148.5,148.5,0,1,1,9.093002483669097e-15,-148.5Z" fill-rule="evenodd" id="p-type-root" style="stroke: #fff; opacity: 1;"></path><path d="M1.2859447435097075e-14,-210.0107140124046A210.0107140124046,210.0107140124046,0,1,1,-175.59796163180812,-115.19486043549877L-124.16650943238672,-81.4550669717791A148.5,148.5,0,1,0,9.093002483669097e-15,-148.5Z" fill-rule="evenodd" style="fill: #4E4E4E; stroke: #fff; opacity: 1;" id="p-type-data"></path><path d="M-175.59796163180812,-115.19486043549877A210.0107140124046,210.0107140124046,0,0,1,-24.409822925037737,-208.58729717978585L-17.260351317857033,-147.4934923052002A148.5,148.5,0,0,0,-124.16650943238672,-81.4550669717791Z" fill-rule="evenodd" style="fill: #3A86AD; stroke: #fff; opacity: 1;" id="p-type-value"></path><path d="M1.5749542295064867e-14,-257.2095449239783A257.2095449239783,257.2095449239783,0,0,1,256.8010584378162,-14.490216879581318L209.6771861930981,-11.831212539079369A210.0107140124046,210.0107140124046,0,0,0,1.2859447435097075e-14,-210.0107140124046Z" fill-rule="evenodd" style="fill: #6B0E12; stroke: #fff; opacity: 1;" id="p-type-functions"></path><path d="M256.8010584378162,-14.490216879581318A257.2095449239783,257.2095449239783,0,0,1,87.1620131863679,241.9907714300267L71.16748575344675,197.58463748867965A210.0107140124046,210.0107140124046,0,0,0,209.6771861930981,-11.831212539079369Z" fill-rule="evenodd" style="fill: #184B42; stroke: #fff; opacity: 1;" id="p-type-logs"></path><path d="M87.1620131863679,241.9907714300267A257.2095449239783,257.2095449239783,0,0,1,-187.9216246220441,175.6195120122236L-153.43736398628258,143.39273110217627A210.0107140124046,210.0107140124046,0,0,0,71.16748575344675,197.58463748867965Z" fill-rule="evenodd" style="fill: #AE497E; stroke: #fff; opacity: 1;" id="p-type-tokenTransfers"></path><path d="M-187.9216246220441,175.6195120122236A257.2095449239783,257.2095449239783,0,0,1,-241.49500165762308,88.526347345774L-197.17984316458478,72.28145992984473A210.0107140124046,210.0107140124046,0,0,0,-153.43736398628258,143.39273110217627Z" fill-rule="evenodd" style="fill: #F09B24; stroke: #fff; opacity: 1;" id="p-type-ether"></path><path d="M-215.06270293537403,-141.084314529047A257.2095449239783,257.2095449239783,0,0,1,-101.99067322768214,-236.1242312312825L-83.27503597691943,-192.79462747452993A210.0107140124046,210.0107140124046,0,0,0,-175.59796163180812,-115.19486043549877Z" fill-rule="evenodd" style="fill: #AE497E; stroke: #fff; opacity: 1;" id="p-type-tokenTransfers"></path><path d="M-101.99067322768214,-236.1242312312825A257.2095449239783,257.2095449239783,0,0,1,-59.38635352831494,-250.2598869467698L-48.48875460963435,-204.3363420353968A210.0107140124046,210.0107140124046,0,0,0,-83.27503597691943,-192.79462747452993Z" fill-rule="evenodd" style="fill: #F09B24; stroke: #fff; opacity: 1;" id="p-type-ether"></path><path d="M1.8186004967338195e-14,-297A297,297,0,0,1,17.289672794924204,-296.49631905749595L14.973295863525058,-256.7733444323677A257.2095449239783,257.2095449239783,0,0,0,1.5749542295064867e-14,-257.2095449239783Z" fill-rule="evenodd" style="fill: #6B0E12; stroke: #fff; opacity: 1;" id="p-type-functions"></path><path d="M17.289672794924204,-296.49631905749595A297,297,0,0,1,34.52070263571422,-294.9869846104004L29.895805439016947,-255.466222458376A257.2095449239783,257.2095449239783,0,0,0,14.973295863525058,-256.7733444323677Z" fill-rule="evenodd" style="fill: #6B0E12; stroke: #fff; opacity: 1;" id="p-type-functions"></path><path d="M34.52070263571422,-294.9869846104004A297,297,0,0,1,51.63464547287147,-292.47711600549343L44.71691469490985,-253.29261248636558A257.2095449239783,257.2095449239783,0,0,0,29.895805439016947,-255.466222458376Z" fill-rule="evenodd" style="fill: #6B0E12; stroke: #fff; opacity: 1;" id="p-type-functions"></path><path d="M51.63464547287147,-292.47711600549343A297,297,0,0,1,68.57345439152617,-288.9752261921656L59.38635352831524,-250.2598869467697A257.2095449239783,257.2095449239783,0,0,0,44.71691469490985,-253.29261248636558Z" fill-rule="evenodd" style="fill: #6B0E12; stroke: #fff; opacity: 1;" id="p-type-functions"></path><path d="M68.57345439152617,-288.9752261921656A297,297,0,0,1,85.27967649443212,-284.4931928482736L73.85436627069689,-246.37833221035035A257.2095449239783,257.2095449239783,0,0,0,59.38635352831524,-250.2598869467697Z" fill-rule="evenodd" style="fill: #6B0E12; stroke: #fff; opacity: 1;" id="p-type-functions"></path><path d="M85.27967649443212,-284.4931928482736A297,297,0,0,1,101.69664777017887,-279.0462180935412L88.071880448693,-241.66111369897956A257.2095449239783,257.2095449239783,0,0,0,73.85436627069689,-246.37833221035035Z" fill-rule="evenodd" style="fill: #6B0E12; stroke: #fff; opacity: 1;" id="p-type-functions"></path><path d="M101.69664777017887,-279.0462180935412A297,297,0,0,1,117.76868528566709,-272.6527769271487L101.99067322768232,-236.1242312312824A257.2095449239783,257.2095449239783,0,0,0,88.071880448693,-241.66111369897956Z" fill-rule="evenodd" style="fill: #6B0E12; stroke: #fff; opacity: 1;" id="p-type-functions"></path><path d="M117.76868528566709,-272.6527769271487A297,297,0,0,1,133.44127605097256,-265.3345545643992L115.56353497355427,-229.786464754598A257.2095449239783,257.2095449239783,0,0,0,101.99067322768232,-236.1242312312824Z" fill-rule="evenodd" style="fill: #6B0E12; stroke: #fff; opacity: 1;" id="p-type-functions"></path><path d="M133.44127605097256,-265.3345545643992A297,297,0,0,1,148.66126191600668,-257.1163728850041L128.74442937791386,-222.66931064732597A257.2095449239783,257.2095449239783,0,0,0,115.56353497355427,-229.786464754598Z" fill-rule="evenodd" style="fill: #6B0E12; stroke: #fff; opacity: 1;" id="p-type-functions"></path><path d="M148.66126191600668,-257.1163728850041A297,297,0,0,1,163.37701987184423,-248.0261062424579L141.48864960361217,-214.79690880770667A257.2095449239783,257.2095449239783,0,0,0,128.74442937791386,-222.66931064732597Z" fill-rule="evenodd" style="fill: #6B0E12; stroke: #fff; opacity: 1;" id="p-type-functions"></path><path d="M163.37701987184423,-248.0261062424579A297,297,0,0,1,177.53863714517306,-238.0945869200612L153.75296992098745,-206.19596077633514A257.2095449239783,257.2095449239783,0,0,0,141.48864960361217,-214.79690880770667Z" fill-rule="evenodd" style="fill: #6B0E12; stroke: #fff; opacity: 1;" id="p-type-functions"></path><path d="M177.53863714517306,-238.0945869200612A297,297,0,0,1,191.0980804919823,-227.3555005542638L165.49579232050013,-196.8956391701195A257.2095449239783,257.2095449239783,0,0,0,153.75296992098745,-206.19596077633514Z" fill-rule="evenodd" style="fill: #6B0E12; stroke: #fff; opacity: 1;" id="p-type-functions"></path><path d="M191.0980804919823,-227.3555005542638A297,297,0,0,1,204.00935911628036,-215.8452718800311L176.67728760448125,-186.9274887348659A257.2095449239783,257.2095449239783,0,0,0,165.49579232050013,-196.8956391701195Z" fill-rule="evenodd" style="fill: #6B0E12; stroke: #fff; opacity: 1;" id="p-type-functions"></path><path d="M296.52832043450803,-16.731861232084665A297,297,0,0,1,296.9994744481014,0.5587285132900732L257.2090897826831,0.48387308632791476A257.2095449239783,257.2095449239783,0,0,0,256.8010584378162,-14.490216879581318Z" fill-rule="evenodd" style="fill: #184B42; stroke: #fff; opacity: 1;" id="p-type-logs"></path><path d="M296.9994744481014,0.5587285132900732A297,297,0,0,1,296.4632683592489,17.84742316840099L256.74472168807296,15.456321855926213A257.2095449239783,257.2095449239783,0,0,0,257.2090897826831,0.48387308632791476Z" fill-rule="evenodd" style="fill: #184B42; stroke: #fff; opacity: 1;" id="p-type-logs"></path><path d="M296.4632683592489,17.84742316840099A297,297,0,0,1,294.921520866861,35.07558309675952L255.40952919344406,30.3763460143458A257.2095449239783,257.2095449239783,0,0,0,256.74472168807296,15.456321855926213Z" fill-rule="evenodd" style="fill: #184B42; stroke: #fff; opacity: 1;" id="p-type-logs"></path><path d="M294.921520866861,35.07558309675952A297,297,0,0,1,292.37946125598864,52.18477398300996L253.2080409924942,45.19333996003587A257.2095449239783,257.2095449239783,0,0,0,255.40952919344406,30.3763460143458Z" fill-rule="evenodd" style="fill: #184B42; stroke: #fff; opacity: 1;" id="p-type-logs"></path><path d="M292.37946125598864,52.18477398300996A297,297,0,0,1,288.8457116611821,69.11696502990603L250.14772407277877,59.8570475483793A257.2095449239783,257.2095449239783,0,0,0,253.2080409924942,45.19333996003587Z" fill-rule="evenodd" style="fill: #184B42; stroke: #fff; opacity: 1;" id="p-type-logs"></path><path d="M288.8457116611821,69.11696502990603A297,297,0,0,1,284.3322578220136,85.81472578663862L246.23895838925048,74.31773255002459A257.2095449239783,257.2095449239783,0,0,0,250.14772407277877,59.8570475483793Z" fill-rule="evenodd" style="fill: #184B42; stroke: #fff; opacity: 1;" id="p-type-logs"></path><path d="M284.3322578220136,85.81472578663862A297,297,0,0,1,278.8544084299557,102.2214209409137L241.49500165762313,88.52634734577386A257.2095449239783,257.2095449239783,0,0,0,246.23895838925048,74.31773255002459Z" fill-rule="evenodd" style="fill: #184B42; stroke: #fff; opacity: 1;" id="p-type-logs"></path><path d="M278.8544084299557,102.2214209409137A297,297,0,0,1,272.4307432045011,118.28140241408698L235.9319443869728,102.43469928584936A257.2095449239783,257.2095449239783,0,0,0,241.49500165762313,88.52634734577386Z" fill-rule="evenodd" style="fill: #184B42; stroke: #fff; opacity: 1;" id="p-type-logs"></path><path d="M272.4307432045011,118.28140241408698A297,297,0,0,1,265.0830498746404,133.94019810780824L229.56865530409593,115.99561414928235A257.2095449239783,257.2095449239783,0,0,0,235.9319443869728,102.43469928584936Z" fill-rule="evenodd" style="fill: #184B42; stroke: #fff; opacity: 1;" id="p-type-logs"></path><path d="M265.0830498746404,133.94019810780824A297,297,0,0,1,256.83625027944163,149.14469666198673L222.42671735473456,129.16309614900467A257.2095449239783,257.2095449239783,0,0,0,229.56865530409593,115.99561414928235Z" fill-rule="evenodd" style="fill: #184B42; stroke: #fff; opacity: 1;" id="p-type-logs"></path><path d="M256.83625027944163,149.14469666198673A297,297,0,0,1,247.71831583838463,163.84332759741642L214.53035449873815,141.89248393993861A257.2095449239783,257.2095449239783,0,0,0,222.42671735473456,129.16309614900467Z" fill-rule="evenodd" style="fill: #184B42; stroke: #fff; opacity: 1;" id="p-type-logs"></path><path d="M100.64602355251843,279.42687405306225A297,297,0,0,1,84.20867437242357,284.812041810804L72.92685122553044,246.6544635118719A257.2095449239783,257.2095449239783,0,0,0,87.1620131863679,241.9907714300267Z" fill-rule="evenodd" style="fill: #AE497E; stroke: #fff; opacity: 1;" id="p-type-tokenTransfers"></path><path d="M84.20867437242357,284.812041810804A297,297,0,0,1,67.48570698037643,289.2311866887089L58.444336637358816,250.48155523914147A257.2095449239783,257.2095449239783,0,0,0,72.92685122553044,246.6544635118719Z" fill-rule="evenodd" style="fill: #AE497E; stroke: #fff; opacity: 1;" id="p-type-tokenTransfers"></path><path d="M67.48570698037643,289.2311866887089A297,297,0,0,1,50.53384218430622,292.66931987157733L43.76359108244289,253.45906591709976A257.2095449239783,257.2095449239783,0,0,0,58.444336637358816,250.48155523914147Z" fill-rule="evenodd" style="fill: #AE497E; stroke: #fff; opacity: 1;" id="p-type-tokenTransfers"></path><path d="M50.53384218430622,292.66931987157733A297,297,0,0,1,33.410577164264694,295.11477993070883L28.934408579353477,255.57689645224787A257.2095449239783,257.2095449239783,0,0,0,43.76359108244289,253.45906591709976Z" fill-rule="evenodd" style="fill: #AE497E; stroke: #fff; opacity: 1;" id="p-type-tokenTransfers"></path><path d="M33.410577164264694,295.11477993070883A297,297,0,0,1,16.17399045401643,296.55927237702986L14.007086613745235,256.8278636063366A257.2095449239783,257.2095449239783,0,0,0,28.934408579353477,255.57689645224787Z" fill-rule="evenodd" style="fill: #AE497E; stroke: #fff; opacity: 1;" id="p-type-tokenTransfers"></path><path d="M16.17399045401643,296.55927237702986A297,297,0,0,1,-1.1174550492010589,296.99789779426555L-0.9677444601953068,257.2077243604083A257.2095449239783,257.2095449239783,0,0,0,14.007086613745235,256.8278636063366Z" fill-rule="evenodd" style="fill: #AE497E; stroke: #fff; opacity: 1;" id="p-type-tokenTransfers"></path><path d="M-1.1174550492010589,296.99789779426555A297,297,0,0,1,-18.405110378597758,296.42916845673545L-15.939293147322285,256.7151903062297A257.2095449239783,257.2095449239783,0,0,0,-0.9677444601953068,257.2077243604083Z" fill-rule="evenodd" style="fill: #AE497E; stroke: #fff; opacity: 1;" id="p-type-tokenTransfers"></path><path d="M-18.405110378597758,296.42916845673545A297,297,0,0,1,-35.630339422860565,294.8550133754075L-30.856779085659426,255.35193201630335A257.2095449239783,257.2095449239783,0,0,0,-15.939293147322285,256.7151903062297Z" fill-rule="evenodd" style="fill: #AE497E; stroke: #fff; opacity: 1;" id="p-type-tokenTransfers"></path><path d="M-35.630339422860565,294.8550133754075A297,297,0,0,1,-52.734717807579635,292.28077175509674L-45.669605282767584,253.122573377635A257.2095449239783,257.2095449239783,0,0,0,-30.856779085659426,255.35193201630335Z" fill-rule="evenodd" style="fill: #AE497E; stroke: #fff; opacity: 1;" id="p-type-tokenTransfers"></path><path d="M-52.734717807579635,292.28077175509674A297,297,0,0,1,-69.66023105850743,288.71517488499865L-60.327529730161196,250.03467590847578A257.2095449239783,257.2095449239783,0,0,0,-45.669605282767584,253.122573377635Z" fill-rule="evenodd" style="fill: #AE497E; stroke: #fff; opacity: 1;" id="p-type-tokenTransfers"></path><path d="M-216.99320112417794,202.78794507041601A297,297,0,0,1,-253.49877133394523,154.74938750179317L-219.536375803339,134.01690079663499A257.2095449239783,257.2095449239783,0,0,0,-187.9216246220441,175.6195120122236Z" fill-rule="evenodd" style="fill: #F09B24; stroke: #fff; opacity: 1;" id="p-type-ether"></path><path d="M-253.49877133394523,154.74938750179317A297,297,0,0,1,-256.4079612775792,149.87980982599177L-222.05580819896022,129.79972282368942A257.2095449239783,257.2095449239783,0,0,0,-219.536375803339,134.01690079663499Z" fill-rule="evenodd" style="fill: #F09B24; stroke: #fff; opacity: 1;" id="p-type-ether"></path></g></svg>