<svg xmlns="http://www.w3.org/2000/svg" width="600" height="600" id="block-7914306"><g id="burst-container" transform="translate(300,300)"><data type="text/json">{"number":7914306,"totalTransactions":137,"totalFunctions":520,"totalFunctionsValue":"201.508671979680562602","totalLogs":145,"totalTokenTransfers":145,"tokens":{"0x05f4a42e251f2d52b8ed15e9fedaacfcef1fad27":"0.194193","0x39bb259f66e1c59d5abef88375979b4d20d98022":"0.0000011913623","0xd26114cd6ee289accf82350c8d8487fedb8a0c07":"299.55","0x2d0e95bd4795d7ace0da3c0ff7b706a5970eb9d3":"870","0xae785cbf3c9670c3e5a5dd0053dec05a4aada688":"5.8231e-14","0x174bfa6600bf90c885c7c01c7031389ed1461ab9":"0.59089401","0x153ed9cc1b792979d2bde0bbf45cc2a7e436a5f9":"2000601","0x3543638ed4a9006e4840b105944271bcea15605d":"201208.8595296","0x5c7f7e79b710a7bd29d8a381621e0268c98dcf06":"2661.77","0x1c83501478f1320977047008496dacbd60bb15ef":"2292","0xa0b86991c6218b36c1d19d4a2e9eb0ce3606eb48":"4.9973821e-11","0xe6987cd613dfda0995a95b3e6acbabececd41376":"0.0000055","0x386cabc0b14a507a4e024dea15554342865b20de":"254546","0x89d24a6b4ccb1b6faa2625fe562bdd9a23260359":"2237.78083267","0xc02aaa39b223fe8d0a0e5c4f27ead9083c756cc2":"0.0035275179","0x8055f300b7d209ace52dc16a49352d301b2fcce2":"7.514e-14","0x06012c8cf97bead5deae237070f9587f8e7a266d":"1.306011e-12","0xc4131c1893576e078a0b637b653f3e6a18e137ac":"1e-13","0x445f51299ef3307dbd75036dd896565f5b4bf7a5":"2502.274206925946155687","0x0d8775f648430679a709e98d2b0cb6250d2887ef":"42.53019648","0x1af97824a7ccd3963b9385e37ecbf44ece0c73e4":"71","0xf970b8e36e23f7fc3fd752eea86f8be8d83375a6":"56611.143407428073370378","0x9f8f72aa9304c8b593d555f12ef6589cc3a579a2":"0.010416446722091927","0x6ba460ab75cd2c56343b3517ffeba60748654d26":"1.25033951965e-7","0x05f02507c7134dbae420ab8c0ef56e999b59da03":"5.634e-14","0x6f259637dcd74c767781e37bc6133cd6a68aa161":"4030.8144","0xab22fd25ddbbb9c3d2c2ced0fd20e3f2bbb932bc":"8.821e-15","0x06a6a7af298129e3a2ab396c9c06f91d3c54aba8":"1.48346e-13"},"totalEther":"237.41172680648018428","totalEtherTxns":41,"newContracts":[],"totalNewContracts":0}</data><circle r="297" style="fill: #f9f9f9; stroke: #f9f9f9; stroke-width: 3; opacity: 1;" id="circle-base"></circle><path display="none" d="M9.093002483669097e-15,-148.5A148.5,148.5,0,1,1,-9.093002483669097e-15,148.5A148.5,148.5,0,1,1,9.093002483669097e-15,-148.5Z" fill-rule="evenodd" id="p-type-root" style="stroke: #fff; opacity: 1;"></path><path d="M1.2859447435097075e-14,-210.0107140124046A210.0107140124046,210.0107140124046,0,1,1,-119.54551982048267,-172.66548204794896L-84.53144772553412,-122.09293323294878A148.5,148.5,0,1,0,9.093002483669097e-15,-148.5Z" fill-rule="evenodd" style="fill: #4E4E4E; stroke: #fff; opacity: 1;" id="p-type-data"></path><path d="M-119.54551982048267,-172.66548204794896A210.0107140124046,210.0107140124046,0,0,1,-2.0027624724973108,-210.0011641455322L-1.4161669254087847,-148.49324722437507A148.5,148.5,0,0,0,-84.53144772553412,-122.09293323294878Z" fill-rule="evenodd" style="fill: #3A86AD; stroke: #fff; opacity: 1;" id="p-type-value"></path><path d="M1.5749542295064867e-14,-257.2095449239783A257.2095449239783,257.2095449239783,0,0,1,234.56478461988425,105.52777746274829L191.52134464818394,86.16306949123592A210.0107140124046,210.0107140124046,0,0,0,1.2859447435097075e-14,-210.0107140124046Z" fill-rule="evenodd" style="fill: #6B0E12; stroke: #fff; opacity: 1;" id="p-type-functions"></path><path d="M234.56478461988425,105.52777746274829A257.2095449239783,257.2095449239783,0,0,1,-45.9260893371414,253.076163077831L-37.498494919157245,206.6358218673566A210.0107140124046,210.0107140124046,0,0,0,191.52134464818394,86.16306949123592Z" fill-rule="evenodd" style="fill: #F09B24; stroke: #fff; opacity: 1;" id="p-type-ether"></path><path d="M-45.9260893371414,253.076163077831A257.2095449239783,257.2095449239783,0,0,1,-229.75784082034295,115.62043323553999L-187.59649147114672,94.40368842220082A210.0107140124046,210.0107140124046,0,0,0,-37.498494919157245,206.6358218673566Z" fill-rule="evenodd" style="fill: #184B42; stroke: #fff; opacity: 1;" id="p-type-logs"></path><path d="M-229.75784082034295,115.62043323553999A257.2095449239783,257.2095449239783,0,0,1,-244.79485055603922,-78.94448138563219L-199.87415850771967,-64.45789913448118A210.0107140124046,210.0107140124046,0,0,0,-187.59649147114672,94.40368842220082Z" fill-rule="evenodd" style="fill: #AE497E; stroke: #fff; opacity: 1;" id="p-type-tokenTransfers"></path><path d="M-146.4127622979777,-211.47116360458196A257.2095449239783,257.2095449239783,0,0,1,-54.76794111127969,-251.31100777011622L-44.71783666181091,-205.19457859380105A210.0107140124046,210.0107140124046,0,0,0,-119.54551982048267,-172.66548204794896Z" fill-rule="evenodd" style="fill: #AE497E; stroke: #fff; opacity: 1;" id="p-type-tokenTransfers"></path><path d="M-54.76794111127969,-251.31100777011622A257.2095449239783,257.2095449239783,0,0,1,-4.905523053458895,-257.16276138580406L-4.005342800811326,-209.97251541344164A210.0107140124046,210.0107140124046,0,0,0,-44.71783666181091,-205.19457859380105Z" fill-rule="evenodd" style="fill: #F09B24; stroke: #fff; opacity: 1;" id="p-type-ether"></path><path d="M1.8186004967338195e-14,-297A297,297,0,0,1,91.95640047894948,-282.4057726232859L79.63657885534577,-244.57057326713755A257.2095449239783,257.2095449239783,0,0,0,1.5749542295064867e-14,-257.2095449239783Z" fill-rule="evenodd" style="fill: #6B0E12; stroke: #fff; opacity: 1;" id="p-type-functions"></path><path d="M91.95640047894948,-282.4057726232859A297,297,0,0,1,165.94825425491103,-246.31316836447743L143.71540389843202,-213.313461090271A257.2095449239783,257.2095449239783,0,0,0,79.63657885534577,-244.57057326713755Z" fill-rule="evenodd" style="fill: #6B0E12; stroke: #fff; opacity: 1;" id="p-type-functions"></path><path d="M165.94825425491103,-246.31316836447743A297,297,0,0,1,212.62248410263427,-207.36605135369922L184.13647264863425,-179.584268354772A257.2095449239783,257.2095449239783,0,0,0,143.71540389843202,-213.313461090271Z" fill-rule="evenodd" style="fill: #6B0E12; stroke: #fff; opacity: 1;" id="p-type-functions"></path><path d="M212.62248410263427,-207.36605135369922A297,297,0,0,1,221.57333659254047,-197.77324518561343L191.8881382904202,-171.27665451962966A257.2095449239783,257.2095449239783,0,0,0,184.13647264863425,-179.584268354772Z" fill-rule="evenodd" style="fill: #6B0E12; stroke: #fff; opacity: 1;" id="p-type-functions"></path><path d="M221.57333659254047,-197.77324518561343A297,297,0,0,1,224.54051852652947,-194.39793090420812L194.4577932229049,-168.35354660617625A257.2095449239783,257.2095449239783,0,0,0,191.8881382904202,-171.27665451962966Z" fill-rule="evenodd" style="fill: #6B0E12; stroke: #fff; opacity: 1;" id="p-type-functions"></path><path d="M224.54051852652947,-194.39793090420812A297,297,0,0,1,227.29791666788523,-191.1665689351543L196.845770061667,-165.55510505215273A257.2095449239783,257.2095449239783,0,0,0,194.4577932229049,-168.35354660617625Z" fill-rule="evenodd" style="fill: #6B0E12; stroke: #fff; opacity: 1;" id="p-type-functions"></path><path d="M227.29791666788523,-191.1665689351543A297,297,0,0,1,230.00829674809856,-187.89673607340453L199.19302806504305,-162.72334672774826A257.2095449239783,257.2095449239783,0,0,0,196.845770061667,-165.55510505215273Z" fill-rule="evenodd" style="fill: #6B0E12; stroke: #fff; opacity: 1;" id="p-type-functions"></path><path d="M230.00829674809856,-187.89673607340453A297,297,0,0,1,232.570755400159,-184.7155752301343L201.4121823538746,-159.96838062395193A257.2095449239783,257.2095449239783,0,0,0,199.19302806504305,-162.72334672774826Z" fill-rule="evenodd" style="fill: #6B0E12; stroke: #fff; opacity: 1;" id="p-type-functions"></path><path d="M232.570755400159,-184.7155752301343A297,297,0,0,1,234.55449142780273,-182.18998477151482L203.1301481482165,-157.78115512723187A257.2095449239783,257.2095449239783,0,0,0,201.4121823538746,-159.96838062395193Z" fill-rule="evenodd" style="fill: #6B0E12; stroke: #fff; opacity: 1;" id="p-type-functions"></path><path d="M234.55449142780273,-182.18998477151482A297,297,0,0,1,236.28127618687145,-179.9448763469062L204.62558761643783,-155.83683419727032A257.2095449239783,257.2095449239783,0,0,0,203.1301481482165,-157.78115512723187Z" fill-rule="evenodd" style="fill: #6B0E12; stroke: #fff; opacity: 1;" id="p-type-functions"></path><path d="M236.28127618687145,-179.9448763469062A297,297,0,0,1,237.86790401444608,-177.84223412838207L205.99964762146877,-154.01589262095877A257.2095449239783,257.2095449239783,0,0,0,204.62558761643783,-155.83683419727032Z" fill-rule="evenodd" style="fill: #6B0E12; stroke: #fff; opacity: 1;" id="p-type-functions"></path><path d="M270.85208308539353,121.8529814502013A297,297,0,0,1,219.81491659450595,199.72581816718235L190.36530190159974,172.96763232441148A257.2095449239783,257.2095449239783,0,0,0,234.56478461988425,105.52777746274829Z" fill-rule="evenodd" style="fill: #F09B24; stroke: #fff; opacity: 1;" id="p-type-ether"></path><path d="M219.81491659450595,199.72581816718235A297,297,0,0,1,156.54257641570712,252.39536796290952L135.56984794986911,218.58080045340068A257.2095449239783,257.2095449239783,0,0,0,190.36530190159974,172.96763232441148Z" fill-rule="evenodd" style="fill: #F09B24; stroke: #fff; opacity: 1;" id="p-type-ether"></path><path d="M156.54257641570712,252.39536796290952A297,297,0,0,1,101.87489346494317,278.98119306058334L88.22624574847408,241.6048003685561A257.2095449239783,257.2095449239783,0,0,0,135.56984794986911,218.58080045340068Z" fill-rule="evenodd" style="fill: #F09B24; stroke: #fff; opacity: 1;" id="p-type-ether"></path><path d="M101.87489346494317,278.98119306058334A297,297,0,0,1,55.75609610436148,291.7194846889752L48.286195642223625,252.63648451955808A257.2095449239783,257.2095449239783,0,0,0,88.22624574847408,241.6048003685561Z" fill-rule="evenodd" style="fill: #F09B24; stroke: #fff; opacity: 1;" id="p-type-ether"></path><path d="M55.75609610436148,291.7194846889752A297,297,0,0,1,42.81790531017641,293.89730686899594L37.08139373544938,254.5225338523813A257.2095449239783,257.2095449239783,0,0,0,48.286195642223625,252.63648451955808Z" fill-rule="evenodd" style="fill: #F09B24; stroke: #fff; opacity: 1;" id="p-type-ether"></path><path d="M42.81790531017641,293.89730686899594A297,297,0,0,1,37.90729194152124,294.5709374966585L32.82867781003053,255.1059150887043A257.2095449239783,257.2095449239783,0,0,0,37.08139373544938,254.5225338523813Z" fill-rule="evenodd" style="fill: #F09B24; stroke: #fff; opacity: 1;" id="p-type-ether"></path><path d="M37.90729194152124,294.5709374966585A297,297,0,0,1,33.44573765932508,295.11079721423886L28.96485846128541,255.5734473186088A257.2095449239783,257.2095449239783,0,0,0,32.82867781003053,255.1059150887043Z" fill-rule="evenodd" style="fill: #F09B24; stroke: #fff; opacity: 1;" id="p-type-ether"></path><path d="M33.44573765932508,295.11079721423886A297,297,0,0,1,29.221511331216632,295.55896750990246L25.306571149808434,255.96157417987507A257.2095449239783,257.2095449239783,0,0,0,28.96485846128541,255.5734473186088Z" fill-rule="evenodd" style="fill: #F09B24; stroke: #fff; opacity: 1;" id="p-type-ether"></path><path d="M29.221511331216632,295.55896750990246A297,297,0,0,1,24.99212562481935,295.94660609095223L21.643815685665594,256.29727903855115A257.2095449239783,257.2095449239783,0,0,0,25.306571149808434,255.96157417987507Z" fill-rule="evenodd" style="fill: #F09B24; stroke: #fff; opacity: 1;" id="p-type-ether"></path><path d="M24.99212562481935,295.94660609095223A297,297,0,0,1,20.919498677861604,296.2623407979268L18.11681728946313,256.57071331564754A257.2095449239783,257.2095449239783,0,0,0,21.643815685665594,256.29727903855115Z" fill-rule="evenodd" style="fill: #F09B24; stroke: #fff; opacity: 1;" id="p-type-ether"></path><path d="M20.919498677861604,296.2623407979268A297,297,0,0,1,17.714785927603277,296.4712234931734L15.341454635907521,256.7516110361421A257.2095449239783,257.2095449239783,0,0,0,18.11681728946313,256.57071331564754Z" fill-rule="evenodd" style="fill: #F09B24; stroke: #fff; opacity: 1;" id="p-type-ether"></path><path d="M17.714785927603277,296.4712234931734A297,297,0,0,1,14.886689193454503,296.6266786465059L12.892251019774877,256.8862391480772A257.2095449239783,257.2095449239783,0,0,0,15.341454635907521,256.7516110361421Z" fill-rule="evenodd" style="fill: #F09B24; stroke: #fff; opacity: 1;" id="p-type-ether"></path><path d="M14.886689193454503,296.6266786465059A297,297,0,0,1,12.255338792454816,296.7470415540518L10.613434726250777,256.9904764836853A257.2095449239783,257.2095449239783,0,0,0,12.892251019774877,256.8862391480772Z" fill-rule="evenodd" style="fill: #F09B24; stroke: #fff; opacity: 1;" id="p-type-ether"></path></g></svg>