<svg xmlns="http://www.w3.org/2000/svg" width="600" height="600" id="block-7914297"><g id="burst-container" transform="translate(300,300)"><data type="text/json">{"number":7914297,"totalTransactions":99,"totalFunctions":0,"totalFunctionsValue":"0","totalLogs":101,"totalTokenTransfers":101,"tokens":{"0xf3586684107ce0859c44aa2b2e0fb8cd8731a15a":"1.26785367847e-7","0x52ceefc5f5c64a6d3dc6e4fde5f2d7810bccde49":"287760","0x174bfa6600bf90c885c7c01c7031389ed1461ab9":"0.43454013","0x0000000000085d4780b73119b644ae5ecd22b376":"4000.4","0x5dab189977f37a58d9f52f3473f49bf5506a9517":"2.7357e-14","0x5c7f7e79b710a7bd29d8a381621e0268c98dcf06":"11050.38164","0x1c95b093d6c236d3ef7c796fe33f9cc6b8606714":"2e-18","0x1d287cc25dad7ccaf76a26bc660c5f7c8e2a05bd":"59.455498083847734176","0x048fe49be32adfc9ed68c37d32b5ec9df17b3603":"550","0xa0b86991c6218b36c1d19d4a2e9eb0ce3606eb48":"5.544249e-12","0xf970b8e36e23f7fc3fd752eea86f8be8d83375a6":"801.766933131549432986","0x1f573d6fb3f13d689ff844b4ce37794d79a7ff1c":"35.733355598182172716","0xc0829421c1d260bd3cb3e0f06cfe2d52db2ce315":"0.099999964624514332","0x55296f69f40ea6d20e478533c15a6b08b654e758":"639374.014780199233687773","0xc02aaa39b223fe8d0a0e5c4f27ead9083c756cc2":"45","0x89d24a6b4ccb1b6faa2625fe562bdd9a23260359":"9611.32913972","0xd26114cd6ee289accf82350c8d8487fedb8a0c07":"63.959999000000004096","0x1af97824a7ccd3963b9385e37ecbf44ece0c73e4":"35","0x3597bfd533a99c9aa083587b074434e61eb0a258":"7.76175022549e-7","0xc5807256e2e2fe85ca94c3617c4bc5ff2bd9cfb6":"2","0x64bd1817153457412f004bfcd4586f0a30450d23":"7.02526e-10","0x05f4a42e251f2d52b8ed15e9fedaacfcef1fad27":"0.22700157","0x80fb784b7ed66730e8b1dbd9820afd29931aab03":"600000","0x8bcb64bfda77905398b67af0af084c744e777a20":"142.5","0x3a10b7a22ae98e0f53276923f19f99b259f61778":"45"},"totalEther":"288.351284321580773844","totalEtherTxns":37,"newContracts":["0xdeb7a1141d804444e8c8eece19ac7910e925f02a"],"totalNewContracts":1}</data><circle r="297" style="fill: #f9f9f9; stroke: #f9f9f9; stroke-width: 3; opacity: 1;" id="circle-base"></circle><path display="none" d="M9.093002483669097e-15,-148.5A148.5,148.5,0,1,1,-9.093002483669097e-15,148.5A148.5,148.5,0,1,1,9.093002483669097e-15,-148.5Z" fill-rule="evenodd" id="p-type-root" style="stroke: #fff; opacity: 1;"></path><path d="M1.2859447435097075e-14,-210.0107140124046A210.0107140124046,210.0107140124046,0,1,1,-141.62860571361648,-155.06720492617694L-100.14654751009402,-109.64907214294374A148.5,148.5,0,1,0,9.093002483669097e-15,-148.5Z" fill-rule="evenodd" style="fill: #4E4E4E; stroke: #fff; opacity: 1;" id="p-type-data"></path><path d="M-141.62860571361648,-155.06720492617694A210.0107140124046,210.0107140124046,0,0,1,-3.5730749272329754,-209.9803160669218L-2.526545510734067,-148.47850540661497A148.5,148.5,0,0,0,-100.14654751009402,-109.64907214294374Z" fill-rule="evenodd" style="fill: #3A86AD; stroke: #fff; opacity: 1;" id="p-type-value"></path><path d="M1.5749542295064867e-14,-257.2095449239783A257.2095449239783,257.2095449239783,0,0,1,93.90533769132045,239.4546670104366L76.67338715582666,195.51391690120863A210.0107140124046,210.0107140124046,0,0,0,1.2859447435097075e-14,-210.0107140124046Z" fill-rule="evenodd" style="fill: #F09B24; stroke: #fff; opacity: 1;" id="p-type-ether"></path><path d="M93.90533769132045,239.4546670104366A257.2095449239783,257.2095449239783,0,0,1,-165.34202243637148,197.0247842700264L-135.00119600297265,160.87006271449934A210.0107140124046,210.0107140124046,0,0,0,76.67338715582666,195.51391690120863Z" fill-rule="evenodd" style="fill: #184B42; stroke: #fff; opacity: 1;" id="p-type-logs"></path><path d="M-165.34202243637148,197.0247842700264A257.2095449239783,257.2095449239783,0,0,1,-257.19235608397537,2.9735453542248345L-209.99667938331208,2.4278896149581013A210.0107140124046,210.0107140124046,0,0,0,-135.00119600297265,160.87006271449934Z" fill-rule="evenodd" style="fill: #AE497E; stroke: #fff; opacity: 1;" id="p-type-tokenTransfers"></path><path d="M-173.4589084900933,-189.91776395436378A257.2095449239783,257.2095449239783,0,0,1,-87.90639490236455,-241.7213597001091L-71.77527087946314,-197.3646637323401A210.0107140124046,210.0107140124046,0,0,0,-141.62860571361648,-155.06720492617694Z" fill-rule="evenodd" style="fill: #AE497E; stroke: #fff; opacity: 1;" id="p-type-tokenTransfers"></path><path d="M-87.90639490236455,-241.7213597001091A257.2095449239783,257.2095449239783,0,0,1,-8.750943548066115,-257.0606367902689L-7.145115486887526,-209.88913103035858A210.0107140124046,210.0107140124046,0,0,0,-71.77527087946314,-197.3646637323401Z" fill-rule="evenodd" style="fill: #F09B24; stroke: #fff; opacity: 1;" id="p-type-ether"></path><path d="M1.8186004967338195e-14,-297A297,297,0,0,1,291.00310915193745,-59.38173510352808L252.01608510583372,-51.426091120453485A257.2095449239783,257.2095449239783,0,0,0,1.5749542295064867e-14,-257.2095449239783Z" fill-rule="evenodd" style="fill: #F09B24; stroke: #fff; opacity: 1;" id="p-type-ether"></path><path d="M291.00310915193745,-59.38173510352808A297,297,0,0,1,236.53831232067324,179.60686736449594L204.8481874380007,155.5441098317957A257.2095449239783,257.2095449239783,0,0,0,252.01608510583372,-51.426091120453485Z" fill-rule="evenodd" style="fill: #F09B24; stroke: #fff; opacity: 1;" id="p-type-ether"></path><path d="M236.53831232067324,179.60686736449594A297,297,0,0,1,220.06072376120994,199.45495195079124L190.57817715239767,172.7330552999898A257.2095449239783,257.2095449239783,0,0,0,204.8481874380007,155.5441098317957Z" fill-rule="evenodd" style="fill: #F09B24; stroke: #fff; opacity: 1;" id="p-type-ether"></path><path d="M220.06072376120994,199.45495195079124A297,297,0,0,1,213.85847592758373,206.0911261406737L185.20687296791036,178.48015073236664A257.2095449239783,257.2095449239783,0,0,0,190.57817715239767,172.7330552999898Z" fill-rule="evenodd" style="fill: #F09B24; stroke: #fff; opacity: 1;" id="p-type-ether"></path><path d="M213.85847592758373,206.0911261406737A297,297,0,0,1,207.6284924283974,212.36621466681305L179.81154899245712,183.91453680699954A257.2095449239783,257.2095449239783,0,0,0,185.20687296791036,178.48015073236664Z" fill-rule="evenodd" style="fill: #F09B24; stroke: #fff; opacity: 1;" id="p-type-ether"></path><path d="M207.6284924283974,212.36621466681305A297,297,0,0,1,203.65116485079807,216.18326266136577L176.3670822710837,187.22019733774664A257.2095449239783,257.2095449239783,0,0,0,179.81154899245712,183.91453680699954Z" fill-rule="evenodd" style="fill: #F09B24; stroke: #fff; opacity: 1;" id="p-type-ether"></path><path d="M203.65116485079807,216.18326266136577A297,297,0,0,1,200.968928742214,218.67896487821343L174.04419766210196,189.38153885781787A257.2095449239783,257.2095449239783,0,0,0,176.3670822710837,187.22019733774664Z" fill-rule="evenodd" style="fill: #F09B24; stroke: #fff; opacity: 1;" id="p-type-ether"></path><path d="M200.968928742214,218.67896487821343A297,297,0,0,1,199.10111483691,220.38091131198178L172.42662337056686,190.85546770534157A257.2095449239783,257.2095449239783,0,0,0,174.04419766210196,189.38153885781787Z" fill-rule="evenodd" style="fill: #F09B24; stroke: #fff; opacity: 1;" id="p-type-ether"></path><path d="M199.10111483691,220.38091131198178A297,297,0,0,1,197.21949125398777,222.066369064562L170.79708954739633,192.3151169360815A257.2095449239783,257.2095449239783,0,0,0,172.42662337056686,190.85546770534157Z" fill-rule="evenodd" style="fill: #F09B24; stroke: #fff; opacity: 1;" id="p-type-ether"></path><path d="M108.43254398885314,276.49843291437554A297,297,0,0,1,106.07639404696357,277.41088411595047L91.86485198651884,240.24487293071414A257.2095449239783,257.2095449239783,0,0,0,93.90533769132045,239.4546670104366Z" fill-rule="evenodd" style="fill: #184B42; stroke: #fff; opacity: 1;" id="p-type-logs"></path><path d="M106.07639404696357,277.41088411595047A297,297,0,0,1,103.71256696631042,278.3032580715838L89.81771768451962,241.0176914459682A257.2095449239783,257.2095449239783,0,0,0,91.86485198651884,240.24487293071414Z" fill-rule="evenodd" style="fill: #184B42; stroke: #fff; opacity: 1;" id="p-type-logs"></path><path d="M103.71256696631042,278.3032580715838A297,297,0,0,1,101.34123382575319,279.17549019689034L87.76408294396111,241.77306662448055A257.2095449239783,257.2095449239783,0,0,0,89.81771768451962,241.0176914459682Z" fill-rule="evenodd" style="fill: #184B42; stroke: #fff; opacity: 1;" id="p-type-logs"></path><path d="M101.34123382575319,279.17549019689034A297,297,0,0,1,98.96256624739249,280.02751736522333L85.70409639394234,242.51094379697142A257.2095449239783,257.2095449239783,0,0,0,87.76408294396111,241.77306662448055Z" fill-rule="evenodd" style="fill: #184B42; stroke: #fff; opacity: 1;" id="p-type-logs"></path><path d="M98.96256624739249,280.02751736522333A297,297,0,0,1,96.57673638414923,280.859277912243L83.63790712326613,243.23126956055611A257.2095449239783,257.2095449239783,0,0,0,85.70409639394234,242.51094379697142Z" fill-rule="evenodd" style="fill: #184B42; stroke: #fff; opacity: 1;" id="p-type-logs"></path><path d="M96.57673638414923,280.859277912243A297,297,0,0,1,94.18391690730516,281.6707116403795L81.56566466964898,243.93399178260987A257.2095449239783,257.2095449239783,0,0,0,83.63790712326613,243.23126956055611Z" fill-rule="evenodd" style="fill: #184B42; stroke: #fff; opacity: 1;" id="p-type-logs"></path><path d="M94.18391690730516,281.6707116403795A297,297,0,0,1,91.78428099400614,282.4617598231897L79.48751900889854,244.61905960454104A257.2095449239783,257.2095449239783,0,0,0,81.56566466964898,243.93399178260987Z" fill-rule="evenodd" style="fill: #184B42; stroke: #fff; opacity: 1;" id="p-type-logs"></path><path d="M91.78428099400614,282.4617598231897A297,297,0,0,1,89.37800231472852,283.23236520960734L77.40362054405925,245.2864234454718A257.2095449239783,257.2095449239783,0,0,0,79.48751900889854,244.61905960454104Z" fill-rule="evenodd" style="fill: #184B42; stroke: #fff; opacity: 1;" id="p-type-logs"></path><path d="M89.37800231472852,283.23236520960734A297,297,0,0,1,86.96525502071012,283.98247202808636L75.31412009452715,245.93603500582654A257.2095449239783,257.2095449239783,0,0,0,77.40362054405925,245.2864234454718Z" fill-rule="evenodd" style="fill: #184B42; stroke: #fff; opacity: 1;" id="p-type-logs"></path><path d="M86.96525502071012,283.98247202808636A297,297,0,0,1,84.54621373134619,284.71202599063764L73.21916888513452,246.56784727082757A257.2095449239783,257.2095449239783,0,0,0,75.31412009452715,245.93603500582654Z" fill-rule="evenodd" style="fill: #184B42; stroke: #fff; opacity: 1;" id="p-type-logs"></path><path d="M84.54621373134619,284.71202599063764A297,297,0,0,1,82.12105352155153,285.4209742967578L71.11891853520517,247.18181451389754A257.2095449239783,257.2095449239783,0,0,0,73.21916888513452,246.56784727082757Z" fill-rule="evenodd" style="fill: #184B42; stroke: #fff; opacity: 1;" id="p-type-logs"></path><path d="M82.12105352155153,285.4209742967578A297,297,0,0,1,79.68994990908978,286.1092656372505L69.01352104758116,247.77789229996907A257.2095449239783,257.2095449239783,0,0,0,71.11891853520517,247.18181451389754Z" fill-rule="evenodd" style="fill: #184B42; stroke: #fff; opacity: 1;" id="p-type-logs"></path><path d="M79.68994990908978,286.1092656372505A297,297,0,0,1,77.25307884187043,286.77685019794006L66.90312879762192,248.3560374887005A257.2095449239783,257.2095449239783,0,0,0,69.01352104758116,247.77789229996907Z" fill-rule="evenodd" style="fill: #184B42; stroke: #fff; opacity: 1;" id="p-type-logs"></path><path d="M77.25307884187043,286.77685019794006A297,297,0,0,1,74.81061668521492,287.4236796632766L64.78789452217612,248.91620823759825A257.2095449239783,257.2095449239783,0,0,0,66.90312879762192,248.3560374887005Z" fill-rule="evenodd" style="fill: #184B42; stroke: #fff; opacity: 1;" id="p-type-logs"></path><path d="M74.81061668521492,287.4236796632766A297,297,0,0,1,72.3627402090924,288.0497072198328L62.66797130852767,249.45836400504504A257.2095449239783,257.2095449239783,0,0,0,64.78789452217612,248.91620823759825Z" fill-rule="evenodd" style="fill: #184B42; stroke: #fff; opacity: 1;" id="p-type-logs"></path><path d="M72.3627402090924,288.0497072198328A297,297,0,0,1,69.90962657532617,288.65488755969204L60.543512583316165,249.98246555323405A257.2095449239783,257.2095449239783,0,0,0,62.66797130852767,249.45836400504504Z" fill-rule="evenodd" style="fill: #184B42; stroke: #fff; opacity: 1;" id="p-type-logs"></path><path d="M69.90962657532617,288.65488755969204A297,297,0,0,1,67.45145332477196,289.23917688372734L58.414672101432856,250.48847495100864A257.2095449239783,257.2095449239783,0,0,0,60.543512583316165,249.98246555323405Z" fill-rule="evenodd" style="fill: #184B42; stroke: #fff; opacity: 1;" id="p-type-logs"></path><path d="M67.45145332477196,289.23917688372734A297,297,0,0,1,64.98839836446857,289.80253290477145L56.28160393489285,250.97635557660777A257.2095449239783,257.2095449239783,0,0,0,58.414672101432856,250.48847495100864Z" fill-rule="evenodd" style="fill: #184B42; stroke: #fff; opacity: 1;" id="p-type-logs"></path><path d="M64.98839836446857,289.80253290477145A297,297,0,0,1,62.52063995476204,290.34491485067724L54.144462461684306,251.44607212031622A257.2095449239783,257.2095449239783,0,0,0,56.28160393489285,250.97635557660777Z" fill-rule="evenodd" style="fill: #184B42; stroke: #fff; opacity: 1;" id="p-type-logs"></path><path d="M62.52063995476204,290.34491485067724A297,297,0,0,1,60.04835669640438,290.8662834672685L52.00340235459561,251.8975905870202A257.2095449239783,257.2095449239783,0,0,0,54.144462461684306,251.44607212031622Z" fill-rule="evenodd" style="fill: #184B42; stroke: #fff; opacity: 1;" id="p-type-logs"></path><path d="M60.04835669640438,290.8662834672685A297,297,0,0,1,57.571727517627544,291.366601021181L49.858578570021066,252.3308782986677A257.2095449239783,257.2095449239783,0,0,0,52.00340235459561,251.8975905870202Z" fill-rule="evenodd" style="fill: #184B42; stroke: #fff; opacity: 1;" id="p-type-logs"></path><path d="M57.571727517627544,291.366601021181A297,297,0,0,1,55.090931661193686,291.8458313025932L47.71014633674618,252.74590389663345A257.2095449239783,257.2095449239783,0,0,0,49.858578570021066,252.3308782986677Z" fill-rule="evenodd" style="fill: #184B42; stroke: #fff; opacity: 1;" id="p-type-logs"></path><path d="M55.090931661193686,291.8458313025932A297,297,0,0,1,52.606148671422794,292.3039396278472L45.558261144713136,253.14263734398858A257.2095449239783,257.2095449239783,0,0,0,47.71014633674618,252.74590389663345Z" fill-rule="evenodd" style="fill: #184B42; stroke: #fff; opacity: 1;" id="p-type-logs"></path><path d="M52.606148671422794,292.3039396278472A297,297,0,0,1,50.117558381198336,292.7408928419588L43.403078733767465,253.52104992767443A257.2095449239783,257.2095449239783,0,0,0,45.558261144713136,253.14263734398858Z" fill-rule="evenodd" style="fill: #184B42; stroke: #fff; opacity: 1;" id="p-type-logs"></path><path d="M50.117558381198336,292.7408928419588A297,297,0,0,1,47.625340898952125,293.1566593210166L41.244755082386554,253.88111426058055A257.2095449239783,257.2095449239783,0,0,0,43.403078733767465,253.52104992767443Z" fill-rule="evenodd" style="fill: #184B42; stroke: #fff; opacity: 1;" id="p-type-logs"></path><path d="M47.625340898952125,293.1566593210166A297,297,0,0,1,45.12967659562919,293.55120897447165L39.0834463963909,254.22280428352693A257.2095449239783,257.2095449239783,0,0,0,41.244755082386554,253.88111426058055Z" fill-rule="evenodd" style="fill: #184B42; stroke: #fff; opacity: 1;" id="p-type-logs"></path><path d="M45.12967659562919,293.55120897447165A297,297,0,0,1,42.63074609163368,293.92451324731434L36.919309097638944,254.54609526714998A257.2095449239783,257.2095449239783,0,0,0,39.0834463963909,254.22280428352693Z" fill-rule="evenodd" style="fill: #184B42; stroke: #fff; opacity: 1;" id="p-type-logs"></path><path d="M42.63074609163368,293.92451324731434A297,297,0,0,1,40.12873024375671,294.27654512214156L34.752499812706226,254.8509638136922A257.2095449239783,257.2095449239783,0,0,0,36.919309097638944,254.54609526714998Z" fill-rule="evenodd" style="fill: #184B42; stroke: #fff; opacity: 1;" id="p-type-logs"></path><path d="M40.12873024375671,294.27654512214156A297,297,0,0,1,37.62381013208709,294.6072791211118L32.58317536154978,255.13738785869566A257.2095449239783,257.2095449239783,0,0,0,34.752499812706226,254.8509638136922Z" fill-rule="evenodd" style="fill: #184B42; stroke: #fff; opacity: 1;" id="p-type-logs"></path><path d="M37.62381013208709,294.6072791211118A297,297,0,0,1,35.11616704690584,294.91669130778916L30.411492746158427,255.40534667259877A257.2095449239783,257.2095449239783,0,0,0,32.58317536154978,255.13738785869566Z" fill-rule="evenodd" style="fill: #184B42; stroke: #fff; opacity: 1;" id="p-type-logs"></path><path d="M35.11616704690584,294.91669130778916A297,297,0,0,1,32.60598247556561,295.2047592888758L28.23760913919004,255.65482086223668A257.2095449239783,257.2095449239783,0,0,0,30.411492746158427,255.40534667259877Z" fill-rule="evenodd" style="fill: #184B42; stroke: #fff; opacity: 1;" id="p-type-logs"></path><path d="M32.60598247556561,295.2047592888758A297,297,0,0,1,30.093438089355775,295.47146221583245L26.061681872596342,255.88579237224482A257.2095449239783,257.2095449239783,0,0,0,28.23760913919004,255.65482086223668Z" fill-rule="evenodd" style="fill: #184B42; stroke: #fff; opacity: 1;" id="p-type-logs"></path><path d="M30.093438089355775,295.47146221583245A297,297,0,0,1,27.578715730354144,295.71678078638746L23.883868426236198,256.0982444863655A257.2095449239783,257.2095449239783,0,0,0,26.061681872596342,255.88579237224482Z" fill-rule="evenodd" style="fill: #184B42; stroke: #fff; opacity: 1;" id="p-type-logs"></path><path d="M27.578715730354144,295.71678078638746A297,297,0,0,1,25.06199739826647,295.9406972459335L21.70432641647827,256.29216182865787A257.2095449239783,257.2095449239783,0,0,0,23.883868426236198,256.0982444863655Z" fill-rule="evenodd" style="fill: #184B42; stroke: #fff; opacity: 1;" id="p-type-logs"></path><path d="M25.06199739826647,295.9406972459335A297,297,0,0,1,22.54346523725439,296.143195388813L19.52321358479369,256.46753036461075A257.2095449239783,257.2095449239783,0,0,0,21.70432641647827,256.29216182865787Z" fill-rule="evenodd" style="fill: #184B42; stroke: #fff; opacity: 1;" id="p-type-logs"></path><path d="M22.54346523725439,296.143195388813A297,297,0,0,1,20.023301522753027,296.32426055949065L17.340687786339753,256.6243374021581A257.2095449239783,257.2095449239783,0,0,0,19.52321358479369,256.46753036461075Z" fill-rule="evenodd" style="fill: #184B42; stroke: #fff; opacity: 1;" id="p-type-logs"></path><path d="M20.023301522753027,296.32426055949065A297,297,0,0,1,17.50168864827902,296.48387965361405L15.156906978535364,256.762571592598A257.2095449239783,257.2095449239783,0,0,0,17.340687786339753,256.6243374021581Z" fill-rule="evenodd" style="fill: #184B42; stroke: #fff; opacity: 1;" id="p-type-logs"></path><path d="M17.50168864827902,296.48387965361405A297,297,0,0,1,14.978809112230053,296.62204111896233L12.972029209629062,256.8822229314137A257.2095449239783,257.2095449239783,0,0,0,15.156906978535364,256.762571592598Z" fill-rule="evenodd" style="fill: #184B42; stroke: #fff; opacity: 1;" id="p-type-logs"></path><path d="M14.978809112230053,296.62204111896233A297,297,0,0,1,12.454845504676763,296.7387349562821L10.786212607260493,256.98328275899775A257.2095449239783,257.2095449239783,0,0,0,12.972029209629062,256.8822229314137Z" fill-rule="evenodd" style="fill: #184B42; stroke: #fff; opacity: 1;" id="p-type-logs"></path><path d="M12.454845504676763,296.7387349562821A297,297,0,0,1,9.92998049414803,296.83395272001115L8.599615367016147,257.06574376127867A257.2095449239783,257.2095449239783,0,0,0,10.786212607260493,256.98328275899775Z" fill-rule="evenodd" style="fill: #184B42; stroke: #fff; opacity: 1;" id="p-type-logs"></path><path d="M9.92998049414803,296.83395272001115A297,297,0,0,1,7.404396814410579,296.9076875188899L6.412395740980133,257.1295999702505A257.2095449239783,257.2095449239783,0,0,0,8.599615367016147,257.06574376127867Z" fill-rule="evenodd" style="fill: #184B42; stroke: #fff; opacity: 1;" id="p-type-logs"></path><path d="M7.404396814410579,296.9076875188899A297,297,0,0,1,4.878277251243876,296.95993401645956L4.22471202628092,257.1748467644046A257.2095449239783,257.2095449239783,0,0,0,6.412395740980133,257.1295999702505Z" fill-rule="evenodd" style="fill: #184B42; stroke: #fff; opacity: 1;" id="p-type-logs"></path><path d="M4.878277251243876,296.95993401645956A297,297,0,0,1,2.3518046292112356,296.99068843144903L2.0367225536347724,257.201480869064A257.2095449239783,257.2095449239783,0,0,0,4.22471202628092,257.1748467644046Z" fill-rule="evenodd" style="fill: #184B42; stroke: #fff; opacity: 1;" id="p-type-logs"></path><path d="M2.3518046292112356,296.99068843144903A297,297,0,0,1,-0.17483820157185806,296.99994853804816L-0.15141432411321346,257.20950035662065A257.2095449239783,257.2095449239783,0,0,0,2.0367225536347724,257.201480869064Z" fill-rule="evenodd" style="fill: #184B42; stroke: #fff; opacity: 1;" id="p-type-logs"></path><path d="M-0.17483820157185806,296.99994853804816A297,297,0,0,1,-2.701468378671286,296.9877136660691L-2.3395402434496932,257.19890464667475A257.2095449239783,257.2095449239783,0,0,0,-0.15141432411321346,257.20950035662065Z" fill-rule="evenodd" style="fill: #184B42; stroke: #fff; opacity: 1;" id="p-type-logs"></path><path d="M-2.701468378671286,296.9877136660691A297,297,0,0,1,-5.227903040568725,296.9539847009944L-4.527496841654425,257.1696945060767A257.2095449239783,257.2095449239783,0,0,0,-2.3395402434496932,257.19890464667475Z" fill-rule="evenodd" style="fill: #184B42; stroke: #fff; opacity: 1;" id="p-type-logs"></path><path d="M-5.227903040568725,296.9539847009944A297,297,0,0,1,-7.753959339896002,296.89876408391336L-6.715125768261554,257.12187204887186A257.2095449239783,257.2095449239783,0,0,0,-4.527496841654425,257.1696945060767Z" fill-rule="evenodd" style="fill: #184B42; stroke: #fff; opacity: 1;" id="p-type-logs"></path><path d="M-7.753959339896002,296.89876408391336A297,297,0,0,1,-10.27945445666844,296.82205581134514L-8.902268696520034,257.0554407361474A257.2095449239783,257.2095449239783,0,0,0,-6.715125768261554,257.12187204887186Z" fill-rule="evenodd" style="fill: #184B42; stroke: #fff; opacity: 1;" id="p-type-logs"></path><path d="M-10.27945445666844,296.82205581134514A297,297,0,0,1,-12.804205611516204,296.7238654349495L-11.088767334852296,256.9704053757816A257.2095449239783,257.2095449239783,0,0,0,-8.902268696520034,257.0554407361474Z" fill-rule="evenodd" style="fill: #184B42; stroke: #fff; opacity: 1;" id="p-type-logs"></path><path d="M-12.804205611516204,296.7238654349495A297,297,0,0,1,-15.328030078912722,296.60420006112514L-13.274463438310411,256.86677212209634A257.2095449239783,257.2095449239783,0,0,0,-11.088767334852296,256.9704053757816Z" fill-rule="evenodd" style="fill: #184B42; stroke: #fff; opacity: 1;" id="p-type-logs"></path><path d="M-15.328030078912722,296.60420006112514A297,297,0,0,1,-17.850745200399196,296.46306835049523L-15.459198820028844,256.7445484754113A257.2095449239783,257.2095449239783,0,0,0,-13.274463438310411,256.86677212209634Z" fill-rule="evenodd" style="fill: #184B42; stroke: #fff; opacity: 1;" id="p-type-logs"></path><path d="M-17.850745200399196,296.46306835049523A297,297,0,0,1,-20.372168397804277,296.3004805172808L-17.64281536267303,256.6037432815013A257.2095449239783,257.2095449239783,0,0,0,-15.459198820028844,256.7445484754113Z" fill-rule="evenodd" style="fill: #184B42; stroke: #fff; opacity: 1;" id="p-type-logs"></path><path d="M-20.372168397804277,296.3004805172808A297,297,0,0,1,-22.89211718645791,296.11644832856126L-19.825155029882897,256.4443667309561A257.2095449239783,257.2095449239783,0,0,0,-17.64281536267303,256.6037432815013Z" fill-rule="evenodd" style="fill: #184B42; stroke: #fff; opacity: 1;" id="p-type-logs"></path><path d="M-22.89211718645791,296.11644832856126A297,297,0,0,1,-25.41040918839843,295.9109851034229L-22.00605987771056,256.26643035844285A257.2095449239783,257.2095449239783,0,0,0,-19.825155029882897,256.4443667309561Z" fill-rule="evenodd" style="fill: #184B42; stroke: #fff; opacity: 1;" id="p-type-logs"></path><path d="M-25.41040918839843,295.9109851034229A297,297,0,0,1,-27.926862145571903,295.68410571199496L-24.185372066051265,256.0699470418711A257.2095449239783,257.2095449239783,0,0,0,-22.00605987771056,256.26643035844285Z" fill-rule="evenodd" style="fill: #184B42; stroke: #fff; opacity: 1;" id="p-type-logs"></path><path d="M-27.926862145571903,295.68410571199496A297,297,0,0,1,-30.441293933022852,295.4358265743735L-26.3629338700669,255.8549310014612A257.2095449239783,257.2095449239783,0,0,0,-24.185372066051265,256.0699470418711Z" fill-rule="evenodd" style="fill: #184B42; stroke: #fff; opacity: 1;" id="p-type-logs"></path><path d="M-30.441293933022852,295.4358265743735A297,297,0,0,1,-32.95352257207527,295.1661656594328L-28.5385876916011,255.6213977987148A257.2095449239783,257.2095449239783,0,0,0,-26.3629338700669,255.8549310014612Z" fill-rule="evenodd" style="fill: #184B42; stroke: #fff; opacity: 1;" id="p-type-logs"></path><path d="M-32.95352257207527,295.1661656594328A297,297,0,0,1,-35.46336624350311,294.875142483525L-30.712176070585212,255.36936433528862A257.2095449239783,257.2095449239783,0,0,0,-28.5385876916011,255.6213977987148Z" fill-rule="evenodd" style="fill: #184B42; stroke: #fff; opacity: 1;" id="p-type-logs"></path><path d="M-35.46336624350311,294.875142483525A297,297,0,0,1,-37.97064330068919,294.56277810906766L-32.88354169643425,255.09884885177132A257.2095449239783,257.2095449239783,0,0,0,-30.712176070585212,255.36936433528862Z" fill-rule="evenodd" style="fill: #184B42; stroke: #fff; opacity: 1;" id="p-type-logs"></path><path d="M-37.97064330068919,294.56277810906766A297,297,0,0,1,-40.475172282771666,294.2290951430194L-35.05252741943205,254.80987092636337A257.2095449239783,257.2095449239783,0,0,0,-32.88354169643425,255.09884885177132Z" fill-rule="evenodd" style="fill: #184B42; stroke: #fff; opacity: 1;" id="p-type-logs"></path><path d="M-40.475172282771666,294.2290951430194A297,297,0,0,1,-42.976771927776966,293.87411773524366L-37.21897626210478,254.50245147346004A257.2095449239783,257.2095449239783,0,0,0,-35.05252741943205,254.80987092636337Z" fill-rule="evenodd" style="fill: #184B42; stroke: #fff; opacity: 1;" id="p-type-logs"></path><path d="M-42.976771927776966,293.87411773524366A297,297,0,0,1,-45.47526118573843,293.497871576761L-39.38273143058194,254.17661274213776A257.2095449239783,257.2095449239783,0,0,0,-37.21897626210478,254.50245147346004Z" fill-rule="evenodd" style="fill: #184B42; stroke: #fff; opacity: 1;" id="p-type-logs"></path><path d="M-45.47526118573843,293.497871576761A297,297,0,0,1,-47.970459231799566,293.10038389788957L-41.54363632594417,253.8323783145438A257.2095449239783,257.2095449239783,0,0,0,-39.38273143058194,254.17661274213776Z" fill-rule="evenodd" style="fill: #184B42; stroke: #fff; opacity: 1;" id="p-type-logs"></path><path d="M-190.9205223239924,227.50462447065536A297,297,0,0,1,-209.94203456874934,210.0793710032807L-181.8151352587277,181.93407209989707A257.2095449239783,257.2095449239783,0,0,0,-165.34202243637148,197.0247842700264Z" fill-rule="evenodd" style="fill: #AE497E; stroke: #fff; opacity: 1;" id="p-type-tokenTransfers"></path><path d="M-209.94203456874934,210.0793710032807A297,297,0,0,1,-211.72162362368255,208.28575104925375L-183.35630458859663,180.38075165497503A257.2095449239783,257.2095449239783,0,0,0,-181.8151352587277,181.93407209989707Z" fill-rule="evenodd" style="fill: #AE497E; stroke: #fff; opacity: 1;" id="p-type-tokenTransfers"></path><path d="M-211.72162362368255,208.28575104925375A297,297,0,0,1,-213.4858896060471,206.4770566893927L-184.88420374835704,178.81437639165375A257.2095449239783,257.2095449239783,0,0,0,-183.35630458859663,180.38075165497503Z" fill-rule="evenodd" style="fill: #AE497E; stroke: #fff; opacity: 1;" id="p-type-tokenTransfers"></path><path d="M-213.4858896060471,206.4770566893927A297,297,0,0,1,-215.23470482942517,204.65341882556035L-186.3987221583274,177.23505967427175A257.2095449239783,257.2095449239783,0,0,0,-184.88420374835704,178.81437639165375Z" fill-rule="evenodd" style="fill: #AE497E; stroke: #fff; opacity: 1;" id="p-type-tokenTransfers"></path><path d="M-215.23470482942517,204.65341882556035A297,297,0,0,1,-216.96794272562732,202.81496944113593L-187.89975020724037,175.64291580378833A257.2095449239783,257.2095449239783,0,0,0,-186.3987221583274,177.23505967427175Z" fill-rule="evenodd" style="fill: #AE497E; stroke: #fff; opacity: 1;" id="p-type-tokenTransfers"></path><path d="M-216.96794272562732,202.81496944113593A297,297,0,0,1,-218.6854778538525,200.96184159146276L-189.38717926017554,174.03806000951096A257.2095449239783,257.2095449239783,0,0,0,-187.89975020724037,175.64291580378833Z" fill-rule="evenodd" style="fill: #AE497E; stroke: #fff; opacity: 1;" id="p-type-tokenTransfers"></path><path d="M-218.6854778538525,200.96184159146276A297,297,0,0,1,-220.3871859097668,199.09416939421877L-190.86090166642197,172.42060844075576A257.2095449239783,257.2095449239783,0,0,0,-189.38717926017554,174.03806000951096Z" fill-rule="evenodd" style="fill: #AE497E; stroke: #fff; opacity: 1;" id="p-type-tokenTransfers"></path><path d="M-220.3871859097668,199.09416939421877A297,297,0,0,1,-222.07294373449966,197.21208801970977L-192.320810767269,170.7906781584414A257.2095449239783,257.2095449239783,0,0,0,-190.86090166642197,172.42060844075576Z" fill-rule="evenodd" style="fill: #AE497E; stroke: #fff; opacity: 1;" id="p-type-tokenTransfers"></path><path d="M-222.07294373449966,197.21208801970977A297,297,0,0,1,-223.74262932355742,195.31573368108667L-193.76680090372582,169.14838712661697A257.2095449239783,257.2095449239783,0,0,0,-192.320810767269,170.7906781584414Z" fill-rule="evenodd" style="fill: #AE497E; stroke: #fff; opacity: 1;" id="p-type-tokenTransfers"></path><path d="M-223.74262932355742,195.31573368108667A297,297,0,0,1,-225.39612183565333,193.4052436244874L-195.1987674241682,167.49385420392443A257.2095449239783,257.2095449239783,0,0,0,-193.76680090372582,169.14838712661697Z" fill-rule="evenodd" style="fill: #AE497E; stroke: #fff; opacity: 1;" id="p-type-tokenTransfers"></path><path d="M-225.39612183565333,193.4052436244874A297,297,0,0,1,-227.03330160145302,191.4807561191037L-196.6166066919126,165.8271991349964A257.2095449239783,257.2095449239783,0,0,0,-195.1987674241682,167.49385420392443Z" fill-rule="evenodd" style="fill: #AE497E; stroke: #fff; opacity: 1;" id="p-type-tokenTransfers"></path><path d="M-227.03330160145302,191.4807561191037A297,297,0,0,1,-228.65405013223565,189.54241044717423L-198.02021609271668,164.14854254178988A257.2095449239783,257.2095449239783,0,0,0,-196.6166066919126,165.8271991349964Z" fill-rule="evenodd" style="fill: #AE497E; stroke: #fff; opacity: 1;" id="p-type-tokenTransfers"></path><path d="M-228.65405013223565,189.54241044717423A297,297,0,0,1,-230.25825012846934,187.59034689390404L-199.40949404220592,162.4580059148562A257.2095449239783,257.2095449239783,0,0,0,-198.02021609271668,164.14854254178988Z" fill-rule="evenodd" style="fill: #AE497E; stroke: #fff; opacity: 1;" id="p-type-tokenTransfers"></path><path d="M-230.25825012846934,187.59034689390404A297,297,0,0,1,-231.84578548830038,185.62470673731184L-200.78433999322567,160.75571160454848A257.2095449239783,257.2095449239783,0,0,0,-199.40949404220592,162.4580059148562Z" fill-rule="evenodd" style="fill: #AE497E; stroke: #fff; opacity: 1;" id="p-type-tokenTransfers"></path><path d="M-231.84578548830038,185.62470673731184A297,297,0,0,1,-233.41654131595615,183.64563223800482L-202.14465444311804,159.04178281216667A257.2095449239783,257.2095449239783,0,0,0,-200.78433999322567,160.75571160454848Z" fill-rule="evenodd" style="fill: #AE497E; stroke: #fff; opacity: 1;" id="p-type-tokenTransfers"></path><path d="M-233.41654131595615,183.64563223800482A297,297,0,0,1,-234.9704039300606,181.65326662888327L-203.49033894092338,157.31634358104094A257.2095449239783,257.2095449239783,0,0,0,-202.14465444311804,159.04178281216667Z" fill-rule="evenodd" style="fill: #AE497E; stroke: #fff; opacity: 1;" id="p-type-tokenTransfers"></path><path d="M-234.9704039300606,181.65326662888327A297,297,0,0,1,-236.5072608718615,179.64775410477375L-204.82129609450544,155.57951878755424A257.2095449239783,257.2095449239783,0,0,0,-203.49033894092338,157.31634358104094Z" fill-rule="evenodd" style="fill: #AE497E; stroke: #fff; opacity: 1;" id="p-type-tokenTransfers"></path><path d="M-236.5072608718615,179.64775410477375A297,297,0,0,1,-238.02700091336976,177.62923981199341L-206.1374295776,153.8314341321045A257.2095449239783,257.2095449239783,0,0,0,-204.82129609450544,155.57951878755424Z" fill-rule="evenodd" style="fill: #AE497E; stroke: #fff; opacity: 1;" id="p-type-tokenTransfers"></path><path d="M-238.02700091336976,177.62923981199341A297,297,0,0,1,-239.52951406540927,175.59786983784542L-207.43864413678645,152.07221613000738A257.2095449239783,257.2095449239783,0,0,0,-206.1374295776,153.8314341321045Z" fill-rule="evenodd" style="fill: #AE497E; stroke: #fff; opacity: 1;" id="p-type-tokenTransfers"></path><path d="M-239.52951406540927,175.59786983784542A297,297,0,0,1,-241.0146915855773,173.55379120004568L-208.72484559838153,150.3019921023397A257.2095449239783,257.2095449239783,0,0,0,-207.43864413678645,152.07221613000738Z" fill-rule="evenodd" style="fill: #AE497E; stroke: #fff; opacity: 1;" id="p-type-tokenTransfers"></path><path d="M-241.0146915855773,173.55379120004568A297,297,0,0,1,-242.4824259861146,171.49715183608285L-209.99594087525517,148.52089016672485A257.2095449239783,257.2095449239783,0,0,0,-208.72484559838153,150.3019921023397Z" fill-rule="evenodd" style="fill: #AE497E; stroke: #fff; opacity: 1;" id="p-type-tokenTransfers"></path><path d="M-242.4824259861146,171.49715183608285A297,297,0,0,1,-243.93261104168454,169.4281005925117L-211.25183797356726,146.72903922806043A257.2095449239783,257.2095449239783,0,0,0,-209.99594087525517,148.52089016672485Z" fill-rule="evenodd" style="fill: #AE497E; stroke: #fff; opacity: 1;" id="p-type-tokenTransfers"></path><path d="M-243.93261104168454,169.4281005925117A297,297,0,0,1,-245.36514179706114,167.34678721418013L-212.4924459994259,144.92656896918888A257.2095449239783,257.2095449239783,0,0,0,-211.25183797356726,146.72903922806043Z" fill-rule="evenodd" style="fill: #AE497E; stroke: #fff; opacity: 1;" id="p-type-tokenTransfers"></path><path d="M-245.36514179706114,167.34678721418013A297,297,0,0,1,-246.77991457472518,165.253362333392L-213.71767516546566,143.11360984151196A257.2095449239783,257.2095449239783,0,0,0,-212.4924459994259,144.92656896918888Z" fill-rule="evenodd" style="fill: #AE497E; stroke: #fff; opacity: 1;" id="p-type-tokenTransfers"></path><path d="M-246.77991457472518,165.253362333392A297,297,0,0,1,-248.17682698236743,163.14797745900518L-214.92743679734554,141.29029305554945A257.2095449239783,257.2095449239783,0,0,0,-213.71767516546566,143.11360984151196Z" fill-rule="evenodd" style="fill: #AE497E; stroke: #fff; opacity: 1;" id="p-type-tokenTransfers"></path><path d="M-248.17682698236743,163.14797745900518A297,297,0,0,1,-249.55577792029942,161.0307849654661L-216.12164334016703,139.4567505714429A257.2095449239783,257.2095449239783,0,0,0,-214.92743679734554,141.29029305554945Z" fill-rule="evenodd" style="fill: #AE497E; stroke: #fff; opacity: 1;" id="p-type-tokenTransfers"></path><path d="M-249.55577792029942,161.0307849654661A297,297,0,0,1,-250.91666758877034,158.90193808178213L-217.30020836481063,137.61311508940526A257.2095449239783,257.2095449239783,0,0,0,-216.12164334016703,139.4567505714429Z" fill-rule="evenodd" style="fill: #AE497E; stroke: #fff; opacity: 1;" id="p-type-tokenTransfers"></path><path d="M-250.91666758877034,158.90193808178213A297,297,0,0,1,-252.25939749518977,156.76159088043164L-218.46304657419094,135.7595200401168A257.2095449239783,257.2095449239783,0,0,0,-217.30020836481063,137.61311508940526Z" fill-rule="evenodd" style="fill: #AE497E; stroke: #fff; opacity: 1;" id="p-type-tokenTransfers"></path><path d="M-252.25939749518977,156.76159088043164A297,297,0,0,1,-253.58387046125614,154.60989826621346L-219.61007380943013,133.8960995750685A257.2095449239783,257.2095449239783,0,0,0,-218.46304657419094,135.7595200401168Z" fill-rule="evenodd" style="fill: #AE497E; stroke: #fff; opacity: 1;" id="p-type-tokenTransfers"></path><path d="M-253.58387046125614,154.60989826621346A297,297,0,0,1,-254.8899906299897,152.4470159650354L-220.74120705594862,132.02298855685254A257.2095449239783,257.2095449239783,0,0,0,-219.61007380943013,133.8960995750685Z" fill-rule="evenodd" style="fill: #AE497E; stroke: #fff; opacity: 1;" id="p-type-tokenTransfers"></path><path d="M-254.8899906299897,152.4470159650354A297,297,0,0,1,-256.17766347267025,150.2731005126443L-221.85636444947332,130.14032254940233A257.2095449239783,257.2095449239783,0,0,0,-220.74120705594862,132.02298855685254Z" fill-rule="evenodd" style="fill: #AE497E; stroke: #fff; opacity: 1;" id="p-type-tokenTransfers"></path><path d="M-256.17766347267025,150.2731005126443A297,297,0,0,1,-257.44679579567844,148.08830924329664L-222.95546528196235,128.2482378081808A257.2095449239783,257.2095449239783,0,0,0,-221.85636444947332,130.14032254940233Z" fill-rule="evenodd" style="fill: #AE497E; stroke: #fff; opacity: 1;" id="p-type-tokenTransfers"></path><path d="M-257.44679579567844,148.08830924329664A297,297,0,0,1,-258.69729574724033,145.89280027837177L-224.03843000744615,126.34687127031937A257.2095449239783,257.2095449239783,0,0,0,-222.95546528196235,128.2482378081808Z" fill-rule="evenodd" style="fill: #AE497E; stroke: #fff; opacity: 1;" id="p-type-tokenTransfers"></path><path d="M-258.69729574724033,145.89280027837177A297,297,0,0,1,-259.92907282407543,143.68673251492808L-225.1051802477847,124.43636054470723A257.2095449239783,257.2095449239783,0,0,0,-224.03843000744615,126.34687127031937Z" fill-rule="evenodd" style="fill: #AE497E; stroke: #fff; opacity: 1;" id="p-type-tokenTransfers"></path><path d="M-259.92907282407543,143.68673251492808A297,297,0,0,1,-261.14203787794645,141.4702656142031L-226.15563879833977,122.51684390203202A257.2095449239783,257.2095449239783,0,0,0,-225.1051802477847,124.43636054470723Z" fill-rule="evenodd" style="fill: #AE497E; stroke: #fff; opacity: 1;" id="p-type-tokenTransfers"></path><path d="M-261.14203787794645,141.4702656142031A297,297,0,0,1,-262.33610312211147,139.2435599900581L-227.1897296335627,120.58846026477276A257.2095449239783,257.2095449239783,0,0,0,-226.15563879833977,122.51684390203202Z" fill-rule="evenodd" style="fill: #AE497E; stroke: #fff; opacity: 1;" id="p-type-tokenTransfers"></path><path d="M-262.33610312211147,139.2435599900581A297,297,0,0,1,-263.51118213767717,137.00677679736842L-228.20737791249664,118.65134919714545A257.2095449239783,257.2095449239783,0,0,0,-227.1897296335627,120.58846026477276Z" fill-rule="evenodd" style="fill: #AE497E; stroke: #fff; opacity: 1;" id="p-type-tokenTransfers"></path><path d="M-263.51118213767717,137.00677679736842A297,297,0,0,1,-264.66718987985354,134.76007792036017L-229.2085099841929,116.70565089500235A257.2095449239783,257.2095449239783,0,0,0,-228.20737791249664,118.65134919714545Z" fill-rule="evenodd" style="fill: #AE497E; stroke: #fff; opacity: 1;" id="p-type-tokenTransfers"></path><path d="M-264.66718987985354,134.76007792036017A297,297,0,0,1,-265.80404268410877,132.50362596089397L-230.19305339304145,114.75150617568544A257.2095449239783,257.2095449239783,0,0,0,-229.2085099841929,116.70565089500235Z" fill-rule="evenodd" style="fill: #AE497E; stroke: #fff; opacity: 1;" id="p-type-tokenTransfers"></path><path d="M-265.80404268410877,132.50362596089397A297,297,0,0,1,-266.9216582722242,130.23758422669684L-231.16093688401494,112.78905646783497A257.2095449239783,257.2095449239783,0,0,0,-230.19305339304145,114.75150617568544Z" fill-rule="evenodd" style="fill: #AE497E; stroke: #fff; opacity: 1;" id="p-type-tokenTransfers"></path><path d="M-266.9216582722242,130.23758422669684A297,297,0,0,1,-268.0199557582495,127.96211671954312L-232.11209040782543,110.81844380115379A257.2095449239783,257.2095449239783,0,0,0,-231.16093688401494,112.78905646783497Z" fill-rule="evenodd" style="fill: #AE497E; stroke: #fff; opacity: 1;" id="p-type-tokenTransfers"></path><path d="M-268.0199557582495,127.96211671954312A297,297,0,0,1,-269.0988556543562,125.67738812338497L-233.04644512599424,108.83981079612809A257.2095449239783,257.2095449239783,0,0,0,-232.11209040782543,110.81844380115379Z" fill-rule="evenodd" style="fill: #AE497E; stroke: #fff; opacity: 1;" id="p-type-tokenTransfers"></path><path d="M-269.0988556543562,125.67738812338497A297,297,0,0,1,-270.15827987659094,123.38356379243368L-233.96393341583408,106.85330065370542A257.2095449239783,257.2095449239783,0,0,0,-233.04644512599424,108.83981079612809Z" fill-rule="evenodd" style="fill: #AE497E; stroke: #fff; opacity: 1;" id="p-type-tokenTransfers"></path><path d="M-270.15827987659094,123.38356379243368A297,297,0,0,1,-271.1981517505264,121.08080973919223L-234.86448887534308,104.85905714493076A257.2095449239783,257.2095449239783,0,0,0,-233.96393341583408,106.85330065370542Z" fill-rule="evenodd" style="fill: #AE497E; stroke: #fff; opacity: 1;" id="p-type-tokenTransfers"></path><path d="M-271.1981517505264,121.08080973919223A297,297,0,0,1,-272.2183960168105,118.76929262244053L-235.7480463280106,102.85722460054122A257.2095449239783,257.2095449239783,0,0,0,-234.86448887534308,104.85905714493076Z" fill-rule="evenodd" style="fill: #AE497E; stroke: #fff; opacity: 1;" id="p-type-tokenTransfers"></path><path d="M-272.2183960168105,118.76929262244053A297,297,0,0,1,-273.21893883661363,116.44917973517357L-236.6145418275342,100.84794790052037A257.2095449239783,257.2095449239783,0,0,0,-235.7480463280106,102.85722460054122Z" fill-rule="evenodd" style="fill: #AE497E; stroke: #fff; opacity: 1;" id="p-type-tokenTransfers"></path></g></svg>