<svg xmlns="http://www.w3.org/2000/svg" width="600" height="600" id="block-7914307"><g id="burst-container" transform="translate(300,300)"><data type="text/json">{"number":7914307,"totalTransactions":98,"totalFunctions":390,"totalFunctionsValue":"51.473870287813296202","totalLogs":307,"totalTokenTransfers":307,"tokens":{"0xcc7d26d8ea6281bb363c8448515f2c61f7bc19f0":"150000","0x174bfa6600bf90c885c7c01c7031389ed1461ab9":"0.74490219","0x931abd3732f7eada74190c8f89b46f8ba7103d54":"1588","0xae785cbf3c9670c3e5a5dd0053dec05a4aada688":"6.9877e-14","0x5c7f7e79b710a7bd29d8a381621e0268c98dcf06":"1635.4425","0x048fe49be32adfc9ed68c37d32b5ec9df17b3603":"550","0x881ef48211982d01e2cb7092c915e647cd40d85c":"1","0xc0829421c1d260bd3cb3e0f06cfe2d52db2ce315":"1.020914667404738944","0x1f573d6fb3f13d689ff844b4ce37794d79a7ff1c":"364.799624322206206055","0x89d24a6b4ccb1b6faa2625fe562bdd9a23260359":"255.459752804125787968","0xc02aaa39b223fe8d0a0e5c4f27ead9083c756cc2":"1.02276922767862613","0x1dacefe4f8eedef2524fa729f563a86695b8888e":"10","0x82070415fee803f94ce5617be1878503e58f0a6a":"1e-9","0xe8663a64a96169ff4d95b4299e7ae9a76b905b31":"0.000003003184","0x89303500a7abfb178b274fd89f2469c264951e1f":"1.1752164183e-8","0xe5f166c0d8872b68790061317bb6cca04582c912":"122305.435617945221021318","0x9f8f72aa9304c8b593d555f12ef6589cc3a579a2":"2","0xd0a4b8946cb52f0661273bfbc6fd0e0c75fc6433":"1764.61757307","0x1af97824a7ccd3963b9385e37ecbf44ece0c73e4":"61","0x8bcb64bfda77905398b67af0af084c744e777a20":"142.5","0x6ba460ab75cd2c56343b3517ffeba60748654d26":"5.4380818182e-8"},"totalEther":"55.948283457893559258","totalEtherTxns":47,"newContracts":[],"totalNewContracts":0}</data><circle r="297" style="fill: #f9f9f9; stroke: #f9f9f9; stroke-width: 3; opacity: 1;" id="circle-base"></circle><path display="none" d="M9.093002483669097e-15,-148.5A148.5,148.5,0,1,1,-9.093002483669097e-15,148.5A148.5,148.5,0,1,1,9.093002483669097e-15,-148.5Z" fill-rule="evenodd" id="p-type-root" style="stroke: #fff; opacity: 1;"></path><path d="M1.2859447435097075e-14,-210.0107140124046A210.0107140124046,210.0107140124046,0,1,1,-163.0619541987912,-132.34537805632397L-115.3022135674955,-93.58231428232398A148.5,148.5,0,1,0,9.093002483669097e-15,-148.5Z" fill-rule="evenodd" style="fill: #4E4E4E; stroke: #fff; opacity: 1;" id="p-type-data"></path><path d="M-163.0619541987912,-132.34537805632397A210.0107140124046,210.0107140124046,0,0,1,-3.9721213524712393,-209.9731465020259L-2.8087139440282938,-148.47343575865892A148.5,148.5,0,0,0,-115.3022135674955,-93.58231428232398Z" fill-rule="evenodd" style="fill: #3A86AD; stroke: #fff; opacity: 1;" id="p-type-value"></path><path d="M1.5749542295064867e-14,-257.2095449239783A257.2095449239783,257.2095449239783,0,0,1,255.7366533260869,27.486617572427143L208.8081030586491,22.44272926915471A210.0107140124046,210.0107140124046,0,0,0,1.2859447435097075e-14,-210.0107140124046Z" fill-rule="evenodd" style="fill: #6B0E12; stroke: #fff; opacity: 1;" id="p-type-functions"></path><path d="M255.7366533260869,27.486617572427143A257.2095449239783,257.2095449239783,0,0,1,114.47126654964312,230.33254032923912L93.46539775224997,188.0657316552213A210.0107140124046,210.0107140124046,0,0,0,208.8081030586491,22.44272926915471Z" fill-rule="evenodd" style="fill: #184B42; stroke: #fff; opacity: 1;" id="p-type-logs"></path><path d="M114.47126654964312,230.33254032923912A257.2095449239783,257.2095449239783,0,0,1,-126.10312339701362,224.17571739489884L-102.96276909796875,183.03870677995505A210.0107140124046,210.0107140124046,0,0,0,93.46539775224997,188.0657316552213Z" fill-rule="evenodd" style="fill: #F09B24; stroke: #fff; opacity: 1;" id="p-type-ether"></path><path d="M-126.10312339701362,224.17571739489884A257.2095449239783,257.2095449239783,0,0,1,-249.5256962720538,62.39933413063603L-203.73687785974215,50.94884296983108A210.0107140124046,210.0107140124046,0,0,0,-102.96276909796875,183.03870677995505Z" fill-rule="evenodd" style="fill: #AE497E; stroke: #fff; opacity: 1;" id="p-type-tokenTransfers"></path><path d="M-199.70929212405974,-162.08932302686372A257.2095449239783,257.2095449239783,0,0,1,-110.60250672390893,-232.2150630480023L-90.30656858210746,-189.60280501861018A210.0107140124046,210.0107140124046,0,0,0,-163.0619541987912,-132.34537805632397Z" fill-rule="evenodd" style="fill: #F09B24; stroke: #fff; opacity: 1;" id="p-type-ether"></path><path d="M-110.60250672390893,-232.2150630480023A257.2095449239783,257.2095449239783,0,0,1,-9.727930029728368,-257.025518922415L-7.942821608777365,-209.8604574113264A210.0107140124046,210.0107140124046,0,0,0,-90.30656858210746,-189.60280501861018Z" fill-rule="evenodd" style="fill: #AE497E; stroke: #fff; opacity: 1;" id="p-type-tokenTransfers"></path><path d="M1.8186004967338195e-14,-297A297,297,0,0,1,93.83802286480795,-281.7861342664394L81.2661116418287,-244.0339507089492A257.2095449239783,257.2095449239783,0,0,0,1.5749542295064867e-14,-257.2095449239783Z" fill-rule="evenodd" style="fill: #6B0E12; stroke: #fff; opacity: 1;" id="p-type-functions"></path><path d="M93.83802286480795,-281.7861342664394A297,297,0,0,1,108.9157340719324,-276.3084560261812L94.3237925781238,-239.29014219912838A257.2095449239783,257.2095449239783,0,0,0,81.2661116418287,-244.0339507089492Z" fill-rule="evenodd" style="fill: #6B0E12; stroke: #fff; opacity: 1;" id="p-type-functions"></path><path d="M108.9157340719324,-276.3084560261812A297,297,0,0,1,115.93325994097562,-273.43825489396716L100.4011482524297,-236.80447510466018A257.2095449239783,257.2095449239783,0,0,0,94.3237925781238,-239.29014219912838Z" fill-rule="evenodd" style="fill: #6B0E12; stroke: #fff; opacity: 1;" id="p-type-functions"></path><path d="M115.93325994097562,-273.43825489396716A297,297,0,0,1,121.08025593845512,-271.1983990031619L104.85857753942378,-234.8647030024066A257.2095449239783,257.2095449239783,0,0,0,100.4011482524297,-236.80447510466018Z" fill-rule="evenodd" style="fill: #6B0E12; stroke: #fff; opacity: 1;" id="p-type-functions"></path><path d="M121.08025593845512,-271.1983990031619A297,297,0,0,1,123.63966520920548,-270.04116942969193L107.07509098657498,-233.86251279377097A257.2095449239783,257.2095449239783,0,0,0,104.85857753942378,-234.8647030024066Z" fill-rule="evenodd" style="fill: #6B0E12; stroke: #fff; opacity: 1;" id="p-type-functions"></path><path d="M123.63966520920548,-270.04116942969193A297,297,0,0,1,126.18801566733006,-268.85978632354386L109.28202722105658,-232.83940501224498A257.2095449239783,257.2095449239783,0,0,0,107.07509098657498,-233.86251279377097Z" fill-rule="evenodd" style="fill: #6B0E12; stroke: #fff; opacity: 1;" id="p-type-functions"></path><path d="M126.18801566733006,-268.85978632354386A297,297,0,0,1,128.72507937845072,-267.6543553522183L111.4791888459067,-231.7954711685685A257.2095449239783,257.2095449239783,0,0,0,109.28202722105658,-232.83940501224498Z" fill-rule="evenodd" style="fill: #6B0E12; stroke: #fff; opacity: 1;" id="p-type-functions"></path><path d="M128.72507937845072,-267.6543553522183A297,297,0,0,1,131.2506294177197,-266.4249843341506L113.66637933844243,-230.73080463624555A257.2095449239783,257.2095449239783,0,0,0,111.4791888459067,-231.7954711685685Z" fill-rule="evenodd" style="fill: #6B0E12; stroke: #fff; opacity: 1;" id="p-type-functions"></path><path d="M131.2506294177197,-266.4249843341506A297,297,0,0,1,133.76443989011676,-265.1717832290671L115.84340306783764,-229.64550064319246A257.2095449239783,257.2095449239783,0,0,0,113.66637933844243,-230.73080463624555Z" fill-rule="evenodd" style="fill: #6B0E12; stroke: #fff; opacity: 1;" id="p-type-functions"></path><path d="M133.76443989011676,-265.1717832290671A297,297,0,0,1,136.26628595065446,-263.89486412814944L118.01006531262131,-228.53965626322022A257.2095449239783,257.2095449239783,0,0,0,115.84340306783764,-229.64550064319246Z" fill-rule="evenodd" style="fill: #6B0E12; stroke: #fff; opacity: 1;" id="p-type-functions"></path><path d="M136.26628595065446,-263.89486412814944A297,297,0,0,1,138.75594382448867,-262.59434124400957L120.16617227809368,-227.41337040735206A257.2095449239783,257.2095449239783,0,0,0,118.01006531262131,-228.53965626322022Z" fill-rule="evenodd" style="fill: #6B0E12; stroke: #fff; opacity: 1;" id="p-type-functions"></path><path d="M138.75594382448867,-262.59434124400957A297,297,0,0,1,141.23319082693416,-261.2703309004733L122.31153111366034,-226.26674381497628A257.2095449239783,257.2095449239783,0,0,0,120.16617227809368,-227.41337040735206Z" fill-rule="evenodd" style="fill: #6B0E12; stroke: #fff; opacity: 1;" id="p-type-functions"></path><path d="M141.23319082693416,-261.2703309004733A297,297,0,0,1,143.6978053833823,-259.9229515221763L124.44594993008134,-225.09987904483577A257.2095449239783,257.2095449239783,0,0,0,122.31153111366034,-226.26674381497628Z" fill-rule="evenodd" style="fill: #6B0E12; stroke: #fff; opacity: 1;" id="p-type-functions"></path><path d="M143.6978053833823,-259.9229515221763A297,297,0,0,1,146.14956704911964,-258.5523236239715L126.56923781663473,-223.91288046585478A257.2095449239783,257.2095449239783,0,0,0,124.44594993008134,-225.09987904483577Z" fill-rule="evenodd" style="fill: #6B0E12; stroke: #fff; opacity: 1;" id="p-type-functions"></path><path d="M146.14956704911964,-258.5523236239715A297,297,0,0,1,148.58825652904517,-257.1585698001501L128.6812048581921,-222.70585424780373A257.2095449239783,257.2095449239783,0,0,0,126.56923781663473,-223.91288046585478Z" fill-rule="evenodd" style="fill: #6B0E12; stroke: #fff; opacity: 1;" id="p-type-functions"></path><path d="M148.58825652904517,-257.1585698001501A297,297,0,0,1,151.0136556972851,-255.7418147134759L130.7816621522055,-221.47890835180306A257.2095449239783,257.2095449239783,0,0,0,128.6812048581921,-222.70585424780373Z" fill-rule="evenodd" style="fill: #6B0E12; stroke: #fff; opacity: 1;" id="p-type-functions"></path><path d="M151.0136556972851,-255.7418147134759A297,297,0,0,1,153.4255476167028,-254.30218508403513L132.87042182560367,-220.23215252066657A257.2095449239783,257.2095449239783,0,0,0,130.7816621522055,-221.47890835180306Z" fill-rule="evenodd" style="fill: #6B0E12; stroke: #fff; opacity: 1;" id="p-type-functions"></path><path d="M153.4255476167028,-254.30218508403513A297,297,0,0,1,155.82371655830255,-252.83980967790217L134.94729705159588,-218.96569826908583A257.2095449239783,257.2095449239783,0,0,0,132.87042182560367,-220.23215252066657Z" fill-rule="evenodd" style="fill: #6B0E12; stroke: #fff; opacity: 1;" id="p-type-functions"></path><path d="M155.82371655830255,-252.83980967790217A297,297,0,0,1,158.20794802052512,-251.3548192956221L137.01210206638277,-217.67965887365574A257.2095449239783,257.2095449239783,0,0,0,134.94729705159588,-218.96569826908583Z" fill-rule="evenodd" style="fill: #6B0E12; stroke: #fff; opacity: 1;" id="p-type-functions"></path><path d="M158.20794802052512,-251.3548192956221A297,297,0,0,1,160.57802874843358,-249.8473467605114L139.0646521857714,-216.37414936274257A257.2095449239783,257.2095449239783,0,0,0,137.01210206638277,-217.67965887365574Z" fill-rule="evenodd" style="fill: #6B0E12; stroke: #fff; opacity: 1;" id="p-type-functions"></path><path d="M160.57802874843358,-249.8473467605114A297,297,0,0,1,162.9337467527879,-248.31752690677794L141.1047638216946,-215.04928650619559A257.2095449239783,257.2095449239783,0,0,0,139.0646521857714,-216.37414936274257Z" fill-rule="evenodd" style="fill: #6B0E12; stroke: #fff; opacity: 1;" id="p-type-functions"></path><path d="M162.9337467527879,-248.31752690677794A297,297,0,0,1,165.27489132900575,-246.76549656746047L143.13225449863143,-213.70518880490246A257.2095449239783,257.2095449239783,0,0,0,141.1047638216946,-215.04928650619559Z" fill-rule="evenodd" style="fill: #6B0E12; stroke: #fff; opacity: 1;" id="p-type-functions"></path><path d="M165.27489132900575,-246.76549656746047A297,297,0,0,1,167.60125307600902,-245.19139456219008L145.1469428699286,-212.34197648019028A257.2095449239783,257.2095449239783,0,0,0,143.13225449863143,-213.70518880490246Z" fill-rule="evenodd" style="fill: #6B0E12; stroke: #fff; opacity: 1;" id="p-type-functions"></path><path d="M167.60125307600902,-245.19139456219008A297,297,0,0,1,169.91262391495323,-243.5953616847736L147.14864873402087,-210.95977146307243A257.2095449239783,257.2095449239783,0,0,0,145.1469428699286,-212.34197648019028Z" fill-rule="evenodd" style="fill: #6B0E12; stroke: #fff; opacity: 1;" id="p-type-functions"></path><path d="M169.91262391495323,-243.5953616847736A297,297,0,0,1,172.2087971078392,-241.9775406906002L149.13719305054892,-209.55869738334246A257.2095449239783,257.2095449239783,0,0,0,147.14864873402087,-210.95977146307243Z" fill-rule="evenodd" style="fill: #6B0E12; stroke: #fff; opacity: 1;" id="p-type-functions"></path><path d="M172.2087971078392,-241.9775406906002A297,297,0,0,1,174.48956727600415,-240.33807628387314L151.11239795637348,-208.13887955851644A257.2095449239783,257.2095449239783,0,0,0,149.13719305054892,-209.55869738334246Z" fill-rule="evenodd" style="fill: #6B0E12; stroke: #fff; opacity: 1;" id="p-type-functions"></path><path d="M174.48956727600415,-240.33807628387314A297,297,0,0,1,176.7547304184919,-238.67711510466654L153.07408678148406,-206.7004449826238A257.2095449239783,257.2095449239783,0,0,0,151.11239795637348,-208.13887955851644Z" fill-rule="evenodd" style="fill: #6B0E12; stroke: #fff; opacity: 1;" id="p-type-functions"></path><path d="M176.7547304184919,-238.67711510466654A297,297,0,0,1,179.0040839302993,-236.99480571580966L155.022084064801,-205.24352231484863A257.2095449239783,257.2095449239783,0,0,0,153.07408678148406,-206.7004449826238Z" fill-rule="evenodd" style="fill: #6B0E12; stroke: #fff; opacity: 1;" id="p-type-functions"></path><path d="M179.0040839302993,-236.99480571580966A297,297,0,0,1,181.237426620498,-235.2912985895985L156.95621556986939,-203.768241868022A257.2095449239783,257.2095449239783,0,0,0,155.022084064801,-205.24352231484863Z" fill-rule="evenodd" style="fill: #6B0E12; stroke: #fff; opacity: 1;" id="p-type-functions"></path><path d="M181.237426620498,-235.2912985895985A297,297,0,0,1,183.45455873022993,-233.56674609433728L158.8763083004434,-202.27473559696588A257.2095449239783,257.2095449239783,0,0,0,156.95621556986939,-203.768241868022Z" fill-rule="evenodd" style="fill: #6B0E12; stroke: #fff; opacity: 1;" id="p-type-functions"></path><path d="M183.45455873022993,-233.56674609433728A297,297,0,0,1,185.6552819505744,-231.82130248070973L160.78219051596,-200.76313708669113A257.2095449239783,257.2095449239783,0,0,0,158.8763083004434,-202.27473559696588Z" fill-rule="evenodd" style="fill: #6B0E12; stroke: #fff; opacity: 1;" id="p-type-functions"></path><path d="M185.6552819505744,-231.82130248070973A297,297,0,0,1,187.83939944028546,-230.05512386798273L162.6736917468997,-199.2335815404488A257.2095449239783,257.2095449239783,0,0,0,160.78219051596,-200.76313708669113Z" fill-rule="evenodd" style="fill: #6B0E12; stroke: #fff; opacity: 1;" id="p-type-functions"></path><path d="M187.83939944028546,-230.05512386798273A297,297,0,0,1,190.00671584339852,-228.2683682300419L164.5506428100343,-197.68620576763698A257.2095449239783,257.2095449239783,0,0,0,162.6736917468997,-199.2335815404488Z" fill-rule="evenodd" style="fill: #6B0E12; stroke: #fff; opacity: 1;" id="p-type-functions"></path><path d="M190.00671584339852,-228.2683682300419A297,297,0,0,1,192.15703730670342,-226.46119538126217L166.41287582355926,-196.12114817156424A257.2095449239783,257.2095449239783,0,0,0,164.5506428100343,-197.68620576763698Z" fill-rule="evenodd" style="fill: #6B0E12; stroke: #fff; opacity: 1;" id="p-type-functions"></path><path d="M192.15703730670342,-226.46119538126217A297,297,0,0,1,194.29017149708343,-224.63376696221317L168.2602242221095,-194.53854873707016A257.2095449239783,257.2095449239783,0,0,0,166.41287582355926,-196.12114817156424Z" fill-rule="evenodd" style="fill: #6B0E12; stroke: #fff; opacity: 1;" id="p-type-functions"></path><path d="M194.29017149708343,-224.63376696221317A297,297,0,0,1,196.4059276187186,-222.78624642520163L170.09252277165803,-192.9385490180047A257.2095449239783,257.2095449239783,0,0,0,168.2602242221095,-194.53854873707016Z" fill-rule="evenodd" style="fill: #6B0E12; stroke: #fff; opacity: 1;" id="p-type-functions"></path><path d="M196.4059276187186,-222.78624642520163A297,297,0,0,1,198.5041164301509,-220.91879901965132L171.90960758429466,-191.32129212456678A257.2095449239783,257.2095449239783,0,0,0,170.09252277165803,-192.9385490180047Z" fill-rule="evenodd" style="fill: #6B0E12; stroke: #fff; opacity: 1;" id="p-type-functions"></path><path d="M198.5041164301509,-220.91879901965132A297,297,0,0,1,200.5845502612109,-219.03159177732277L173.7113161328852,-189.6869227105043A257.2095449239783,257.2095449239783,0,0,0,171.90960758429466,-191.32129212456678Z" fill-rule="evenodd" style="fill: #6B0E12; stroke: #fff; opacity: 1;" id="p-type-functions"></path><path d="M200.5845502612109,-219.03159177732277A297,297,0,0,1,202.64704302980363,-217.12479349737313L175.4974872656082,-188.03558696017544A257.2095449239783,257.2095449239783,0,0,0,173.7113161328852,-189.6869227105043Z" fill-rule="evenodd" style="fill: #6B0E12; stroke: #fff; opacity: 1;" id="p-type-functions"></path><path d="M202.64704302980363,-217.12479349737313A297,297,0,0,1,204.69141025855262,-215.19857473125816L177.26796122036922,-186.36743257547354A257.2095449239783,257.2095449239783,0,0,0,175.4974872656082,-188.03558696017544Z" fill-rule="evenodd" style="fill: #6B0E12; stroke: #fff; opacity: 1;" id="p-type-functions"></path><path d="M204.69141025855262,-215.19857473125816A297,297,0,0,1,206.71746909130016,-213.2531077674775L179.02257963909042,-184.68260876261613A257.2095449239783,257.2095449239783,0,0,0,177.26796122036922,-186.36743257547354Z" fill-rule="evenodd" style="fill: #6B0E12; stroke: #fff; opacity: 1;" id="p-type-functions"></path><path d="M206.71746909130016,-213.2531077674775A297,297,0,0,1,208.72503830946263,-211.28856661616442L180.76118558187483,-182.98126621879905A257.2095449239783,257.2095449239783,0,0,0,179.02257963909042,-184.68260876261613Z" fill-rule="evenodd" style="fill: #6B0E12; stroke: #fff; opacity: 1;" id="p-type-functions"></path><path d="M208.72503830946263,-211.28856661616442A297,297,0,0,1,210.71393834823968,-209.30512699352172L182.48362354104358,-181.26355711871787A257.2095449239783,257.2095449239783,0,0,0,180.76118558187483,-182.98126621879905Z" fill-rule="evenodd" style="fill: #6B0E12; stroke: #fff; opacity: 1;" id="p-type-functions"></path><path d="M210.71393834823968,-209.30512699352172A297,297,0,0,1,212.6839913126747,-207.302966306105L184.18973945504516,-179.52963510095645A257.2095449239783,257.2095449239783,0,0,0,182.48362354104358,-181.26355711871787Z" fill-rule="evenodd" style="fill: #6B0E12; stroke: #fff; opacity: 1;" id="p-type-functions"></path><path d="M212.6839913126747,-207.302966306105A297,297,0,0,1,214.63502099356697,-205.28226363495475L185.8793807222353,-177.77965525424528A257.2095449239783,257.2095449239783,0,0,0,184.18973945504516,-179.52963510095645Z" fill-rule="evenodd" style="fill: #6B0E12; stroke: #fff; opacity: 1;" id="p-type-functions"></path><path d="M214.63502099356697,-205.28226363495475A297,297,0,0,1,216.5668528832321,-203.2431997195786L187.5523962145262,-176.01377410358938A257.2095449239783,257.2095449239783,0,0,0,185.8793807222353,-177.77965525424528Z" fill-rule="evenodd" style="fill: #6B0E12; stroke: #fff; opacity: 1;" id="p-type-functions"></path><path d="M216.5668528832321,-203.2431997195786A297,297,0,0,1,218.47931419111083,-201.18595694178526L189.208636290904,-174.23214959626827A257.2095449239783,257.2095449239783,0,0,0,187.5523962145262,-176.01377410358938Z" fill-rule="evenodd" style="fill: #6B0E12; stroke: #fff; opacity: 1;" id="p-type-functions"></path><path d="M218.47931419111083,-201.18595694178526A297,297,0,0,1,220.37223385922422,-199.11071930937166L190.8479528108134,-172.4349410877086A257.2095449239783,257.2095449239783,0,0,0,189.208636290904,-174.23214959626827Z" fill-rule="evenodd" style="fill: #6B0E12; stroke: #fff; opacity: 1;" id="p-type-functions"></path><path d="M220.37223385922422,-199.11071930937166A297,297,0,0,1,222.2454425774735,-197.01767243966444L192.47019914740778,-170.62230932723068A257.2095449239783,257.2095449239783,0,0,0,190.8479528108134,-172.4349410877086Z" fill-rule="evenodd" style="fill: #6B0E12; stroke: #fff; opacity: 1;" id="p-type-functions"></path><path d="M222.2454425774735,-197.01767243966444A297,297,0,0,1,224.098772798784,-194.90700354291783L194.0752302006641,-168.79441644367043A257.2095449239783,257.2095449239783,0,0,0,192.47019914740778,-170.62230932723068Z" fill-rule="evenodd" style="fill: #6B0E12; stroke: #fff; opacity: 1;" id="p-type-functions"></path><path d="M224.098772798784,-194.90700354291783A297,297,0,0,1,225.932058754091,-192.77890140556866L195.6629024103612,-166.9514259308781A257.2095449239783,257.2095449239783,0,0,0,194.0752302006641,-168.79441644367043Z" fill-rule="evenodd" style="fill: #6B0E12; stroke: #fff; opacity: 1;" id="p-type-functions"></path><path d="M225.932058754091,-192.77890140556866A297,297,0,0,1,227.74513646716716,-190.63355637335053L197.23307376892052,-165.09350263309443A257.2095449239783,257.2095449239783,0,0,0,195.6629024103612,-166.9514259308781Z" fill-rule="evenodd" style="fill: #6B0E12; stroke: #fff; opacity: 1;" id="p-type-functions"></path><path d="M227.74513646716716,-190.63355637335053A297,297,0,0,1,229.53784376928863,-188.47116033426877L198.78560383410758,-163.22081273020677A257.2095449239783,257.2095449239783,0,0,0,197.23307376892052,-165.09350263309443Z" fill-rule="evenodd" style="fill: #6B0E12; stroke: #fff; opacity: 1;" id="p-type-functions"></path><path d="M229.53784376928863,-188.47116033426877A297,297,0,0,1,231.3100203137406,-186.291906701437L200.32035374159392,-161.33352372288496A257.2095449239783,257.2095449239783,0,0,0,198.78560383410758,-163.22081273020677Z" fill-rule="evenodd" style="fill: #6B0E12; stroke: #fff; opacity: 1;" id="p-type-functions"></path><path d="M231.3100203137406,-186.291906701437A297,297,0,0,1,233.06150759015904,-184.09599039577765L201.83718621737748,-159.43180441759947A257.2095449239783,257.2095449239783,0,0,0,200.32035374159392,-161.33352372288496Z" fill-rule="evenodd" style="fill: #6B0E12; stroke: #fff; opacity: 1;" id="p-type-functions"></path><path d="M295.2992512789405,31.738812109106213A297,297,0,0,1,294.9858791608923,34.53014763471867L255.46526511101936,29.903985048093517A257.2095449239783,257.2095449239783,0,0,0,255.7366533260869,27.486617572427143Z" fill-rule="evenodd" style="fill: #184B42; stroke: #fff; opacity: 1;" id="p-type-logs"></path><path d="M294.9858791608923,34.53014763471867A297,297,0,0,1,294.64612235829037,37.318394649601316L255.17102708885753,32.318677795008014A257.2095449239783,257.2095449239783,0,0,0,255.46526511101936,29.903985048093517Z" fill-rule="evenodd" style="fill: #184B42; stroke: #fff; opacity: 1;" id="p-type-logs"></path><path d="M294.64612235829037,37.318394649601316A297,297,0,0,1,294.2800112603049,40.10330376209459L254.8539655773947,34.73047983365797A257.2095449239783,257.2095449239783,0,0,0,255.17102708885753,32.318677795008014Z" fill-rule="evenodd" style="fill: #184B42; stroke: #fff; opacity: 1;" id="p-type-logs"></path><path d="M294.2800112603049,40.10330376209459A297,297,0,0,1,293.8875786133367,42.884625879093946L254.51410893584588,37.13917544308692A257.2095449239783,257.2095449239783,0,0,0,254.8539655773947,34.73047983365797Z" fill-rule="evenodd" style="fill: #184B42; stroke: #fff; opacity: 1;" id="p-type-logs"></path><path d="M293.8875786133367,42.884625879093946A297,297,0,0,1,293.46885951808827,45.66211222832963L254.1514875623111,39.54454918018953A257.2095449239783,257.2095449239783,0,0,0,254.51410893584588,37.13917544308692Z" fill-rule="evenodd" style="fill: #184B42; stroke: #fff; opacity: 1;" id="p-type-logs"></path><path d="M293.46885951808827,45.66211222832963A297,297,0,0,1,293.02389142642437,48.43551438061791L253.7661338910567,41.94638589898161A257.2095449239783,257.2095449239783,0,0,0,254.1514875623111,39.54454918018953Z" fill-rule="evenodd" style="fill: #184B42; stroke: #fff; opacity: 1;" id="p-type-logs"></path><path d="M293.02389142642437,48.43551438061791A297,297,0,0,1,292.55271413802217,51.20458427208149L253.3580823896141,44.34447076984369A257.2095449239783,257.2095449239783,0,0,0,253.7661338910567,41.94638589898161Z" fill-rule="evenodd" style="fill: #184B42; stroke: #fff; opacity: 1;" id="p-type-logs"></path><path d="M292.55271413802217,51.20458427208149A297,297,0,0,1,292.05536979681114,53.969074226337355L252.9273695556969,46.73858929873615A257.2095449239783,257.2095449239783,0,0,0,253.3580823896141,44.34447076984369Z" fill-rule="evenodd" style="fill: #184B42; stroke: #fff; opacity: 1;" id="p-type-logs"></path><path d="M292.05536979681114,53.969074226337355A297,297,0,0,1,291.5319028872039,56.728736976649884L252.47403391393652,49.12852734638443A257.2095449239783,257.2095449239783,0,0,0,252.9273695556969,46.73858929873615Z" fill-rule="evenodd" style="fill: #184B42; stroke: #fff; opacity: 1;" id="p-type-logs"></path><path d="M291.5319028872039,56.728736976649884A297,297,0,0,1,290.9823602301172,59.483325688047344L251.9981160124362,51.514071147432475A257.2095449239783,257.2095449239783,0,0,0,252.47403391393652,49.12852734638443Z" fill-rule="evenodd" style="fill: #184B42; stroke: #fff; opacity: 1;" id="p-type-logs"></path><path d="M290.9823602301172,59.483325688047344A297,297,0,0,1,290.40679097878404,62.23259397939979L251.49965841914454,53.89500732956273A257.2095449239783,257.2095449239783,0,0,0,251.9981160124362,51.514071147432475Z" fill-rule="evenodd" style="fill: #184B42; stroke: #fff; opacity: 1;" id="p-type-logs"></path><path d="M290.40679097878404,62.23259397939979A297,297,0,0,1,289.8052466143573,64.97629594545636L250.97870571804765,56.27112293258103A257.2095449239783,257.2095449239783,0,0,0,251.49965841914454,53.89500732956273Z" fill-rule="evenodd" style="fill: #184B42; stroke: #fff; opacity: 1;" id="p-type-logs"></path><path d="M289.8052466143573,64.97629594545636A297,297,0,0,1,289.17778094130506,67.71418617883995L250.43530450518165,58.642205427464525A257.2095449239783,257.2095449239783,0,0,0,250.97870571804765,56.27112293258103Z" fill-rule="evenodd" style="fill: #184B42; stroke: #fff; opacity: 1;" id="p-type-logs"></path><path d="M289.17778094130506,67.71418617883995A297,297,0,0,1,288.52445008259787,70.44601979199746L249.86950338446493,61.00804273537115A257.2095449239783,257.2095449239783,0,0,0,250.43530450518165,58.642205427464525Z" fill-rule="evenodd" style="fill: #184B42; stroke: #fff; opacity: 1;" id="p-type-logs"></path><path d="M288.52445008259787,70.44601979199746A297,297,0,0,1,287.8453124746893,73.17155243910344L249.28135296335074,63.36842324660878A257.2095449239783,257.2095449239783,0,0,0,249.86950338446493,61.00804273537115Z" fill-rule="evenodd" style="fill: #184B42; stroke: #fff; opacity: 1;" id="p-type-logs"></path><path d="M287.8453124746893,73.17155243910344A297,297,0,0,1,287.140428862289,75.89054033791535L248.67090584830072,65.72313583956237A257.2095449239783,257.2095449239783,0,0,0,249.28135296335074,63.36842324660878Z" fill-rule="evenodd" style="fill: #184B42; stroke: #fff; opacity: 1;" id="p-type-logs"></path><path d="M287.140428862289,75.89054033791535A297,297,0,0,1,286.40986229292923,78.60274029157846L248.0382166400795,68.0719698995776A257.2095449239783,257.2095449239783,0,0,0,248.67090584830072,65.72313583956237Z" fill-rule="evenodd" style="fill: #184B42; stroke: #fff; opacity: 1;" id="p-type-logs"></path><path d="M286.40986229292923,78.60274029157846A297,297,0,0,1,285.6536781113259,81.30790971037815L247.3833419288711,70.41471533779892A257.2095449239783,257.2095449239783,0,0,0,248.0382166400795,68.0719698995776Z" fill-rule="evenodd" style="fill: #184B42; stroke: #fff; opacity: 1;" id="p-type-logs"></path><path d="M285.6536781113259,81.30790971037815A297,297,0,0,1,284.8719439535339,84.00580663343833L246.7063402892172,72.7511626099609A257.2095449239783,257.2095449239783,0,0,0,247.3833419288711,70.41471533779892Z" fill-rule="evenodd" style="fill: #184B42; stroke: #fff; opacity: 1;" id="p-type-logs"></path><path d="M284.8719439535339,84.00580663343833A297,297,0,0,1,284.06472974089735,86.69618975036308L246.00727227477807,75.0811027351305A257.2095449239783,257.2095449239783,0,0,0,246.7063402892172,72.7511626099609Z" fill-rule="evenodd" style="fill: #184B42; stroke: #fff; opacity: 1;" id="p-type-logs"></path><path d="M284.06472974089735,86.69618975036308A297,297,0,0,1,283.23210767379544,89.3788184228206L245.28620041291632,77.40432731439924A257.2095449239783,257.2095449239783,0,0,0,246.00727227477807,75.0811027351305Z" fill-rule="evenodd" style="fill: #184B42; stroke: #fff; opacity: 1;" id="p-type-logs"></path><path d="M283.23210767379544,89.3788184228206A297,297,0,0,1,282.37415222518496,92.05345270606676L244.54318919910435,79.7206285495232A257.2095449239783,257.2095449239783,0,0,0,245.28620041291632,77.40432731439924Z" fill-rule="evenodd" style="fill: #184B42; stroke: #fff; opacity: 1;" id="p-type-logs"></path><path d="M282.37415222518496,92.05345270606676A297,297,0,0,1,281.4909401339387,94.71985337040674L243.7783050911555,82.02979926150932A257.2095449239783,257.2095449239783,0,0,0,244.54318919910435,79.7206285495232Z" fill-rule="evenodd" style="fill: #184B42; stroke: #fff; opacity: 1;" id="p-type-logs"></path><path d="M281.4909401339387,94.71985337040674A297,297,0,0,1,280.58255039798183,97.37778192259253L242.99161650327983,84.33163290914622A257.2095449239783,257.2095449239783,0,0,0,243.7783050911555,82.02979926150932Z" fill-rule="evenodd" style="fill: #184B42; stroke: #fff; opacity: 1;" id="p-type-logs"></path><path d="M280.58255039798183,97.37778192259253A297,297,0,0,1,279.6490642672261,100.02700062715486L242.18319379996493,86.6259236074781A257.2095449239783,257.2095449239783,0,0,0,242.99161650327983,84.33163290914622Z" fill-rule="evenodd" style="fill: #184B42; stroke: #fff; opacity: 1;" id="p-type-logs"></path><path d="M279.6490642672261,100.02700062715486A297,297,0,0,1,278.6905652363024,102.66727252766712L241.35310928968224,88.91246614621993A257.2095449239783,257.2095449239783,0,0,0,242.18319379996493,86.6259236074781Z" fill-rule="evenodd" style="fill: #184B42; stroke: #fff; opacity: 1;" id="p-type-logs"></path><path d="M278.6905652363024,102.66727252766712A297,297,0,0,1,277.7071390370927,105.2983614679396L240.50143721841945,91.19105600811217A257.2095449239783,257.2095449239783,0,0,0,241.35310928968224,88.91246614621993Z" fill-rule="evenodd" style="fill: #184B42; stroke: #fff; opacity: 1;" id="p-type-logs"></path><path d="M277.7071390370927,105.2983614679396A297,297,0,0,1,276.6988736310619,107.92003211314233L239.6282537630397,93.46148938721366A257.2095449239783,257.2095449239783,0,0,0,240.50143721841945,91.19105600811217Z" fill-rule="evenodd" style="fill: #184B42; stroke: #fff; opacity: 1;" id="p-type-logs"></path><path d="M276.6988736310619,107.92003211314233A297,297,0,0,1,275.66585920139,110.53204997085425L238.73363702446798,95.72356320713081A257.2095449239783,257.2095449239783,0,0,0,239.6282537630397,93.46148938721366Z" fill-rule="evenodd" style="fill: #184B42; stroke: #fff; opacity: 1;" id="p-type-logs"></path><path d="M275.66585920139,110.53204997085425A297,297,0,0,1,274.6081881449063,113.13418141203721L237.81766702070558,97.97707513918145A257.2095449239783,257.2095449239783,0,0,0,238.73363702446798,95.72356320713081Z" fill-rule="evenodd" style="fill: #184B42; stroke: #fff; opacity: 1;" id="p-type-logs"></path><path d="M274.6081881449063,113.13418141203721A297,297,0,0,1,273.5259550638244,115.72619369193256L236.88042567967278,100.22182362049206A257.2095449239783,257.2095449239783,0,0,0,237.81766702070558,97.97707513918145Z" fill-rule="evenodd" style="fill: #184B42; stroke: #fff; opacity: 1;" id="p-type-logs"></path><path d="M273.5259550638244,115.72619369193256A297,297,0,0,1,272.41925675728123,118.30785497087884L235.92199683188113,102.45760787202614A257.2095449239783,257.2095449239783,0,0,0,236.88042567967278,100.22182362049206Z" fill-rule="evenodd" style="fill: #184B42; stroke: #fff; opacity: 1;" id="p-type-logs"></path><path d="M272.41925675728123,118.30785497087884A297,297,0,0,1,271.28819221267827,120.87893433504836L234.9424662029351,104.68422791654291A257.2095449239783,257.2095449239783,0,0,0,235.92199683188113,102.45760787202614Z" fill-rule="evenodd" style="fill: #184B42; stroke: #fff; opacity: 1;" id="p-type-logs"></path><path d="M271.28819221267827,120.87893433504836A297,297,0,0,1,270.13286259682843,123.43920181710108L233.94192140586463,106.90148459648377A257.2095449239783,257.2095449239783,0,0,0,234.9424662029351,104.68422791654291Z" fill-rule="evenodd" style="fill: #184B42; stroke: #fff; opacity: 1;" id="p-type-logs"></path><path d="M270.13286259682843,123.43920181710108A297,297,0,0,1,268.9533712469069,125.9884284167537L232.92045193328858,109.10917959178597A257.2095449239783,257.2095449239783,0,0,0,233.94192140586463,106.90148459648377Z" fill-rule="evenodd" style="fill: #184B42; stroke: #fff; opacity: 1;" id="p-type-logs"></path><path d="M268.9533712469069,125.9884284167537A297,297,0,0,1,267.7498236612083,128.52638612126245L231.87814914941018,111.307115437621A257.2095449239783,257.2095449239783,0,0,0,232.92045193328858,109.10917959178597Z" fill-rule="evenodd" style="fill: #184B42; stroke: #fff; opacity: 1;" id="p-type-logs"></path><path d="M267.7498236612083,128.52638612126245A297,297,0,0,1,266.5223274897107,131.05284792581736L230.8151062818451,113.49509554205663A257.2095449239783,257.2095449239783,0,0,0,231.87814914941018,111.307115437621Z" fill-rule="evenodd" style="fill: #184B42; stroke: #fff; opacity: 1;" id="p-type-logs"></path><path d="M266.5223274897107,131.05284792581736A297,297,0,0,1,265.2709925244466,133.56758785384645L229.73141841328268,115.67292420364086A257.2095449239783,257.2095449239783,0,0,0,230.8151062818451,113.49509554205663Z" fill-rule="evenodd" style="fill: #184B42; stroke: #fff; opacity: 1;" id="p-type-logs"></path><path d="M265.2709925244466,133.56758785384645A297,297,0,0,1,263.9959306896832,136.07038097722804L228.6271824729816,117.84040662890631A257.2095449239783,257.2095449239783,0,0,0,229.73141841328268,115.67292420364086Z" fill-rule="evenodd" style="fill: #184B42; stroke: #fff; opacity: 1;" id="p-type-logs"></path><path d="M263.9959306896832,136.07038097722804A297,297,0,0,1,262.6972560319111,138.561003436409L227.50249722809988,119.9973489497931A257.2095449239783,257.2095449239783,0,0,0,228.6271824729816,117.84040662890631Z" fill-rule="evenodd" style="fill: #184B42; stroke: #fff; opacity: 1;" id="p-type-logs"></path><path d="M262.6972560319111,138.561003436409A297,297,0,0,1,261.3750847096436,141.0392324604279L226.35746327486098,122.14355824098939A257.2095449239783,257.2095449239783,0,0,0,227.50249722809988,119.9973489497931Z" fill-rule="evenodd" style="fill: #184B42; stroke: #fff; opacity: 1;" id="p-type-logs"></path><path d="M261.3750847096436,141.0392324604279A297,297,0,0,1,260.0295349830272,143.5048463868403L225.19218302955593,124.27884253718722A257.2095449239783,257.2095449239783,0,0,0,226.35746327486098,122.14355824098939Z" fill-rule="evenodd" style="fill: #184B42; stroke: #fff; opacity: 1;" id="p-type-logs"></path><path d="M260.0295349830272,143.5048463868403A297,297,0,0,1,258.6607272032637,145.95762468154513L224.00676071938298,126.40301085025268A257.2095449239783,257.2095449239783,0,0,0,225.19218302955593,124.27884253718722Z" fill-rule="evenodd" style="fill: #184B42; stroke: #fff; opacity: 1;" id="p-type-logs"></path><path d="M258.6607272032637,145.95762468154513A297,297,0,0,1,257.26878380184576,148.3973479585102L222.8013023731249,128.51587318630865A257.2095449239783,257.2095449239783,0,0,0,224.00676071938298,126.40301085025268Z" fill-rule="evenodd" style="fill: #184B42; stroke: #fff; opacity: 1;" id="p-type-logs"></path><path d="M257.26878380184576,148.3973479585102A297,297,0,0,1,255.8538292796059,150.8237979993949L221.57591581166554,130.6172405627286A257.2095449239783,257.2095449239783,0,0,0,222.8013023731249,128.51587318630865Z" fill-rule="evenodd" style="fill: #184B42; stroke: #fff; opacity: 1;" id="p-type-logs"></path><path d="M255.8538292796059,150.8237979993949A297,297,0,0,1,254.41599019558097,153.23675777306843L220.3307106383458,132.7069250250398A257.2095449239783,257.2095449239783,0,0,0,221.57591581166554,130.6172405627286Z" fill-rule="evenodd" style="fill: #184B42; stroke: #fff; opacity: 1;" id="p-type-logs"></path><path d="M254.41599019558097,153.23675777306843A297,297,0,0,1,252.95539515569197,155.636011455022L219.06579822916038,134.78473966373494A257.2095449239783,257.2095449239783,0,0,0,220.3307106383458,132.7069250250398Z" fill-rule="evenodd" style="fill: #184B42; stroke: #fff; opacity: 1;" id="p-type-logs"></path><path d="M252.95539515569197,155.636011455022A297,297,0,0,1,251.47217480124104,158.021344446673L217.78129172279571,136.85049863098985A257.2095449239783,257.2095449239783,0,0,0,219.06579822916038,134.78473966373494Z" fill-rule="evenodd" style="fill: #184B42; stroke: #fff; opacity: 1;" id="p-type-logs"></path><path d="M251.47217480124104,158.021344446673A297,297,0,0,1,249.9664617972266,160.39254339455948L216.47730601051063,138.9040171572865A257.2095449239783,257.2095449239783,0,0,0,217.78129172279571,136.85049863098985Z" fill-rule="evenodd" style="fill: #184B42; stroke: #fff; opacity: 1;" id="p-type-logs"></path><path d="M249.9664617972266,160.39254339455948A297,297,0,0,1,248.43839082047708,162.74939620942342L215.15395772585984,140.9451115679395A257.2095449239783,257.2095449239783,0,0,0,216.47730601051063,138.9040171572865Z" fill-rule="evenodd" style="fill: #184B42; stroke: #fff; opacity: 1;" id="p-type-logs"></path><path d="M248.43839082047708,162.74939620942342A297,297,0,0,1,246.88809854760495,165.09169208518063L213.81136523426187,142.97359929952478A257.2095449239783,257.2095449239783,0,0,0,215.15395772585984,140.9451115679395Z" fill-rule="evenodd" style="fill: #184B42; stroke: #fff; opacity: 1;" id="p-type-logs"></path><path d="M246.88809854760495,165.09169208518063A297,297,0,0,1,245.3157236427819,167.41922151777626L212.44964862241198,144.98929891620858A257.2095449239783,257.2095449239783,0,0,0,213.81136523426187,142.97359929952478Z" fill-rule="evenodd" style="fill: #184B42; stroke: #fff; opacity: 1;" id="p-type-logs"></path><path d="M245.3157236427819,167.41922151777626A297,297,0,0,1,243.72140674533614,169.73177632392358L211.06892968754113,146.99203012597593A257.2095449239783,257.2095449239783,0,0,0,212.44964862241198,144.98929891620858Z" fill-rule="evenodd" style="fill: #184B42; stroke: #fff; opacity: 1;" id="p-type-logs"></path><path d="M132.1800331138277,265.96510832443306A297,297,0,0,1,41.3766351588087,294.1036791047246L35.83321717064871,254.7012574511581A257.2095449239783,257.2095449239783,0,0,0,114.47126654964312,230.33254032923912Z" fill-rule="evenodd" style="fill: #F09B24; stroke: #fff; opacity: 1;" id="p-type-ether"></path><path d="M41.3766351588087,294.1036791047246A297,297,0,0,1,25.436619045436416,295.9087332464815L22.028758279735015,256.2644801931259A257.2095449239783,257.2095449239783,0,0,0,35.83321717064871,254.7012574511581Z" fill-rule="evenodd" style="fill: #F09B24; stroke: #fff; opacity: 1;" id="p-type-ether"></path><path d="M25.436619045436416,295.9087332464815A297,297,0,0,1,15.631560749583237,296.588358349636L13.537328709938805,256.8530527975073A257.2095449239783,257.2095449239783,0,0,0,22.028758279735015,256.2644801931259Z" fill-rule="evenodd" style="fill: #F09B24; stroke: #fff; opacity: 1;" id="p-type-ether"></path><path d="M15.631560749583237,296.588358349636A297,297,0,0,1,8.05579038676618,296.89072777916874L6.976519122501981,257.11491240481047A257.2095449239783,257.2095449239783,0,0,0,13.537328709938805,256.8530527975073Z" fill-rule="evenodd" style="fill: #F09B24; stroke: #fff; opacity: 1;" id="p-type-ether"></path><path d="M8.05579038676618,296.89072777916874A297,297,0,0,1,2.2174866337042087,296.99172169107567L1.920399757340283,257.20237569814947A257.2095449239783,257.2095449239783,0,0,0,6.976519122501981,257.11491240481047Z" fill-rule="evenodd" style="fill: #F09B24; stroke: #fff; opacity: 1;" id="p-type-ether"></path><path d="M2.2174866337042087,296.99172169107567A297,297,0,0,1,-3.4004762648682956,296.9805326299555L-2.944898830341965,257.19268568697487A257.2095449239783,257.2095449239783,0,0,0,1.920399757340283,257.20237569814947Z" fill-rule="evenodd" style="fill: #F09B24; stroke: #fff; opacity: 1;" id="p-type-ether"></path><path d="M-3.4004762648682956,296.9805326299555A297,297,0,0,1,-9.012495629848209,296.86322595182105L-7.805050166944785,257.0910951236769A257.2095449239783,257.2095449239783,0,0,0,-2.944898830341965,257.19268568697487Z" fill-rule="evenodd" style="fill: #F09B24; stroke: #fff; opacity: 1;" id="p-type-ether"></path><path d="M-9.012495629848209,296.86322595182105A297,297,0,0,1,-13.37056866510358,296.69888421356046L-11.579252127023892,256.9487710034411A257.2095449239783,257.2095449239783,0,0,0,-7.805050166944785,257.0910951236769Z" fill-rule="evenodd" style="fill: #F09B24; stroke: #fff; opacity: 1;" id="p-type-ether"></path><path d="M-145.6113444778368,258.85582156744465A297,297,0,0,1,-148.05292832115376,257.4671443418195L-128.21759703079573,222.97308763985058A257.2095449239783,257.2095449239783,0,0,0,-126.10312339701362,224.17571739489884Z" fill-rule="evenodd" style="fill: #AE497E; stroke: #fff; opacity: 1;" id="p-type-tokenTransfers"></path><path d="M-148.05292832115376,257.4671443418195A297,297,0,0,1,-150.48126973462246,256.0554382532341L-130.32060238392145,221.7505143044585A257.2095449239783,257.2095449239783,0,0,0,-128.21759703079573,222.97308763985058Z" fill-rule="evenodd" style="fill: #AE497E; stroke: #fff; opacity: 1;" id="p-type-tokenTransfers"></path><path d="M-150.48126973462246,256.0554382532341A297,297,0,0,1,-152.8961515179405,254.62082957017282L-132.41195135541113,220.50810674043765A257.2095449239783,257.2095449239783,0,0,0,-130.32060238392145,221.7505143044585Z" fill-rule="evenodd" style="fill: #AE497E; stroke: #fff; opacity: 1;" id="p-type-tokenTransfers"></path><path d="M-152.8961515179405,254.62082957017282A297,297,0,0,1,-155.29735767468702,253.16344660961687L-134.49145688687722,219.24597607355363A257.2095449239783,257.2095449239783,0,0,0,-132.41195135541113,220.50810674043765Z" fill-rule="evenodd" style="fill: #AE497E; stroke: #fff; opacity: 1;" id="p-type-tokenTransfers"></path><path d="M-155.29735767468702,253.16344660961687A297,297,0,0,1,-157.6846734316425,251.68341972556766L-136.55893297925553,217.9642351936831A257.2095449239783,257.2095449239783,0,0,0,-134.49145688687722,219.24597607355363Z" fill-rule="evenodd" style="fill: #AE497E; stroke: #fff; opacity: 1;" id="p-type-tokenTransfers"></path><path d="M-157.6846734316425,251.68341972556766A297,297,0,0,1,-160.05788525799872,250.18088129738715L-138.6141947094417,216.66299874471642A257.2095449239783,257.2095449239783,0,0,0,-136.55893297925553,217.9642351936831Z" fill-rule="evenodd" style="fill: #AE497E; stroke: #fff; opacity: 1;" id="p-type-tokenTransfers"></path><path d="M-160.05788525799872,250.18088129738715A297,297,0,0,1,-162.41678088445795,248.65596571795734L-140.6570582468314,215.34238311430354A257.2095449239783,257.2095449239783,0,0,0,-138.6141947094417,216.66299874471642Z" fill-rule="evenodd" style="fill: #AE497E; stroke: #fff; opacity: 1;" id="p-type-tokenTransfers"></path><path d="M-162.41678088445795,248.65596571795734A297,297,0,0,1,-164.76114932221904,247.1088093816597L-142.68734086976292,214.00250642344375A257.2095449239783,257.2095449239783,0,0,0,-140.6570582468314,215.34238311430354Z" fill-rule="evenodd" style="fill: #AE497E; stroke: #fff; opacity: 1;" id="p-type-tokenTransfers"></path><path d="M-164.76114932221904,247.1088093816597A297,297,0,0,1,-167.09078088184913,245.5395506721756L-144.70486098186055,212.64348851592052A257.2095449239783,257.2095449239783,0,0,0,-142.68734086976292,214.00250642344375Z" fill-rule="evenodd" style="fill: #AE497E; stroke: #fff; opacity: 1;" id="p-type-tokenTransfers"></path><path d="M-167.09078088184913,245.5395506721756A297,297,0,0,1,-169.405467192039,243.94832995010847L-146.70943812827704,211.26545094758217A257.2095449239783,257.2095449239783,0,0,0,-144.70486098186055,212.64348851592052Z" fill-rule="evenodd" style="fill: #AE497E; stroke: #fff; opacity: 1;" id="p-type-tokenTransfers"></path><path d="M-169.405467192039,243.94832995010847A297,297,0,0,1,-171.70500121824077,242.33528954042978L-148.7008930118345,209.86851697546956A257.2095449239783,257.2095449239783,0,0,0,-146.70943812827704,211.26545094758217Z" fill-rule="evenodd" style="fill: #AE497E; stroke: #fff; opacity: 1;" id="p-type-tokenTransfers"></path><path d="M-171.70500121824077,242.33528954042978A297,297,0,0,1,-173.98917728118576,240.70057371974858L-150.67904750906118,208.4528115467913A257.2095449239783,257.2095449239783,0,0,0,-148.7008930118345,209.86851697546956Z" fill-rule="evenodd" style="fill: #AE497E; stroke: #fff; opacity: 1;" id="p-type-tokenTransfers"></path><path d="M-173.98917728118576,240.70057371974858A297,297,0,0,1,-176.2577910752812,239.04432870340707L-152.64372468612365,207.01846128774818A257.2095449239783,257.2095449239783,0,0,0,-150.67904750906118,208.4528115467913Z" fill-rule="evenodd" style="fill: #AE497E; stroke: #fff; opacity: 1;" id="p-type-tokenTransfers"></path><path d="M-176.2577910752812,239.04432870340707A297,297,0,0,1,-178.51063968688428,237.36670263240245L-154.59474881465238,205.56559449220714A257.2095449239783,257.2095449239783,0,0,0,-152.64372468612365,207.01846128774818Z" fill-rule="evenodd" style="fill: #AE497E; stroke: #fff; opacity: 1;" id="p-type-tokenTransfers"></path><path d="M-178.51063968688428,237.36670263240245A297,297,0,0,1,-180.74752161245138,235.6678455601367L-156.53194538745976,204.0943411102261A257.2095449239783,257.2095449239783,0,0,0,-154.59474881465238,205.56559449220714Z" fill-rule="evenodd" style="fill: #AE497E; stroke: #fff; opacity: 1;" id="p-type-tokenTransfers"></path><path d="M-180.74752161245138,235.6678455601367A297,297,0,0,1,-182.96823677656138,233.9479094389949L-158.45514113414836,202.60483273643086A257.2095449239783,257.2095449239783,0,0,0,-156.53194538745976,204.0943411102261Z" fill-rule="evenodd" style="fill: #AE497E; stroke: #fff; opacity: 1;" id="p-type-tokenTransfers"></path><path d="M-182.96823677656138,233.9479094389949A297,297,0,0,1,-185.17258654981126,232.20704810675466L-160.36416403660922,201.09720259824476A257.2095449239783,257.2095449239783,0,0,0,-158.45514113414836,202.60483273643086Z" fill-rule="evenodd" style="fill: #AE497E; stroke: #fff; opacity: 1;" id="p-type-tokenTransfers"></path><path d="M-185.17258654981126,232.20704810675466A297,297,0,0,1,-187.36037376658214,230.44541727282544L-162.25884334440767,199.5715855439721A257.2095449239783,257.2095449239783,0,0,0,-160.36416403660922,201.09720259824476Z" fill-rule="evenodd" style="fill: #AE497E; stroke: #fff; opacity: 1;" id="p-type-tokenTransfers"></path><path d="M-187.36037376658214,230.44541727282544A297,297,0,0,1,-189.5314027426747,228.66317450432203L-164.13900959005593,198.02811803073706A257.2095449239783,257.2095449239783,0,0,0,-162.25884334440767,199.5715855439721Z" fill-rule="evenodd" style="fill: #AE497E; stroke: #fff; opacity: 1;" id="p-type-tokenTransfers"></path><path d="M-189.5314027426747,228.66317450432203A297,297,0,0,1,-191.68547929281183,226.86047921197073L-166.00449460417104,196.46693811227823A257.2095449239783,257.2095449239783,0,0,0,-164.13900959005593,198.02811803073706Z" fill-rule="evenodd" style="fill: #AE497E; stroke: #fff; opacity: 1;" id="p-type-tokenTransfers"></path><path d="M-191.68547929281183,226.86047921197073A297,297,0,0,1,-193.82241074800731,225.0374926358511L-167.85513153051636,194.8881854266006A257.2095449239783,257.2095449239783,0,0,0,-166.00449460417104,196.46693811227823Z" fill-rule="evenodd" style="fill: #AE497E; stroke: #fff; opacity: 1;" id="p-type-tokenTransfers"></path><path d="M-193.82241074800731,225.0374926358511A297,297,0,0,1,-195.94200597279894,223.1943778309741L-169.69075484092608,193.29200118348592A257.2095449239783,257.2095449239783,0,0,0,-167.85513153051636,194.8881854266006Z" fill-rule="evenodd" style="fill: #AE497E; stroke: #fff; opacity: 1;" id="p-type-tokenTransfers"></path><path d="M-195.94200597279894,223.1943778309741A297,297,0,0,1,-198.0440753823444,221.33129965269777L-171.5112003501106,191.6785281518622A257.2095449239783,257.2095449239783,0,0,0,-169.69075484092608,193.29200118348592Z" fill-rule="evenodd" style="fill: #AE497E; stroke: #fff; opacity: 1;" id="p-type-tokenTransfers"></path><path d="M-198.0440753823444,221.33129965269777A297,297,0,0,1,-200.12843095937842,219.4484247419819L-173.31630523034187,190.0479106470339A257.2095449239783,257.2095449239783,0,0,0,-171.5112003501106,191.6785281518622Z" fill-rule="evenodd" style="fill: #AE497E; stroke: #fff; opacity: 1;" id="p-type-tokenTransfers"></path><path d="M-200.12843095937842,219.4484247419819A297,297,0,0,1,-202.19488627102993,217.54592151048308L-175.10590802601735,188.40029451777392A257.2095449239783,257.2095449239783,0,0,0,-173.31630523034187,190.0479106470339Z" fill-rule="evenodd" style="fill: #AE497E; stroke: #fff; opacity: 1;" id="p-type-tokenTransfers"></path><path d="M-202.19488627102993,217.54592151048308A297,297,0,0,1,-204.24325648549714,215.62396012549124L-176.87984866810135,186.73582713327824A257.2095449239783,257.2095449239783,0,0,0,-175.10590802601735,188.40029451777392Z" fill-rule="evenodd" style="fill: #AE497E; stroke: #fff; opacity: 1;" id="p-type-tokenTransfers"></path><path d="M-204.24325648549714,215.62396012549124A297,297,0,0,1,-206.2733583885797,213.68271249470922L-178.63796848844197,185.05465736998465A257.2095449239783,257.2095449239783,0,0,0,-176.87984866810135,186.73582713327824Z" fill-rule="evenodd" style="fill: #AE497E; stroke: #fff; opacity: 1;" id="p-type-tokenTransfers"></path><path d="M-206.2733583885797,213.68271249470922A297,297,0,0,1,-208.28501040006614,211.72235225087675L-180.38011023396328,183.3569355982567A257.2095449239783,257.2095449239783,0,0,0,-178.63796848844197,185.05465736998465Z" fill-rule="evenodd" style="fill: #AE497E; stroke: #fff; opacity: 1;" id="p-type-tokenTransfers"></path><path d="M-208.28501040006614,211.72235225087675A297,297,0,0,1,-210.27803258997506,209.74305473624005L-182.10611808073048,181.6428136689339A257.2095449239783,257.2095449239783,0,0,0,-180.38011023396328,183.3569355982567Z" fill-rule="evenodd" style="fill: #AE497E; stroke: #fff; opacity: 1;" id="p-type-tokenTransfers"></path><path d="M-210.27803258997506,209.74305473624005A297,297,0,0,1,-212.25224669464868,207.74499698686847L-183.8158376478874,179.91244489974977A257.2095449239783,257.2095449239783,0,0,0,-182.10611808073048,181.6428136689339Z" fill-rule="evenodd" style="fill: #AE497E; stroke: #fff; opacity: 1;" id="p-type-tokenTransfers"></path><path d="M-212.25224669464868,207.74499698686847A297,297,0,0,1,-214.2074761326977,205.72835771681972L-185.50911601146504,178.16598406161822A257.2095449239783,257.2095449239783,0,0,0,-183.8158376478874,179.91244489974977Z" fill-rule="evenodd" style="fill: #AE497E; stroke: #fff; opacity: 1;" id="p-type-tokenTransfers"></path><path d="M-214.2074761326977,205.72835771681972A297,297,0,0,1,-216.14354602079513,203.69331730215504L-187.1858017180595,176.4035873647906A257.2095449239783,257.2095449239783,0,0,0,-185.50911601146504,178.16598406161822Z" fill-rule="evenodd" style="fill: #AE497E; stroke: #fff; opacity: 1;" id="p-type-tokenTransfers"></path><path d="M-216.14354602079513,203.69331730215504A297,297,0,0,1,-218.06028318931868,201.6400577648056L-188.84574479837877,174.6254124448833A257.2095449239783,257.2095449239783,0,0,0,-187.1858017180595,176.4035873647906Z" fill-rule="evenodd" style="fill: #AE497E; stroke: #fff; opacity: 1;" id="p-type-tokenTransfers"></path><path d="M-218.06028318931868,201.6400577648056A297,297,0,0,1,-219.95751619783977,199.56876275629173L-190.4887967806564,172.8316183487784A257.2095449239783,257.2095449239783,0,0,0,-188.84574479837877,174.6254124448833Z" fill-rule="evenodd" style="fill: #AE497E; stroke: #fff; opacity: 1;" id="p-type-tokenTransfers"></path><path d="M-219.95751619783977,199.56876275629173A297,297,0,0,1,-221.83507535045763,197.4796175412966L-192.11481070393145,171.0223655203979A257.2095449239783,257.2095449239783,0,0,0,-190.4887967806564,172.8316183487784Z" fill-rule="evenodd" style="fill: #AE497E; stroke: #fff; opacity: 1;" id="p-type-tokenTransfers"></path><path d="M-221.83507535045763,197.4796175412966A297,297,0,0,1,-223.69279271097784,195.37280898109518L-193.72364113119332,169.19781578635295A257.2095449239783,257.2095449239783,0,0,0,-192.11481070393145,171.0223655203979Z" fill-rule="evenodd" style="fill: #AE497E; stroke: #fff; opacity: 1;" id="p-type-tokenTransfers"></path><path d="M-223.69279271097784,195.37280898109518A297,297,0,0,1,-225.53050211793288,193.24852551684083L-195.31514416239003,167.35813234146946A257.2095449239783,257.2095449239783,0,0,0,-193.72364113119332,169.19781578635295Z" fill-rule="evenodd" style="fill: #AE497E; stroke: #fff; opacity: 1;" id="p-type-tokenTransfers"></path><path d="M-225.53050211793288,193.24852551684083A297,297,0,0,1,-227.34803919944463,191.10695715271015L-196.88917744729943,165.50347973419122A257.2095449239783,257.2095449239783,0,0,0,-195.31514416239003,167.35813234146946Z" fill-rule="evenodd" style="fill: #AE497E; stroke: #fff; opacity: 1;" id="p-type-tokenTransfers"></path><path d="M-227.34803919944463,191.10695715271015A297,297,0,0,1,-229.14524138792612,188.94829543890856L-198.4456001982614,163.6340238518622A257.2095449239783,257.2095449239783,0,0,0,-196.88917744729943,165.50347973419122Z" fill-rule="evenodd" style="fill: #AE497E; stroke: #fff; opacity: 1;" id="p-type-tokenTransfers"></path><path d="M-229.14524138792612,188.94829543890856A297,297,0,0,1,-230.92194793462235,186.7727334545371L-199.98427320277042,161.74993190588884A257.2095449239783,257.2095449239783,0,0,0,-198.4456001982614,163.6340238518622Z" fill-rule="evenodd" style="fill: #AE497E; stroke: #fff; opacity: 1;" id="p-type-tokenTransfers"></path><path d="M-230.92194793462235,186.7727334545371A297,297,0,0,1,-232.67799992398824,184.58046579032282L-201.50505883592749,159.8513724167841A257.2095449239783,257.2095449239783,0,0,0,-199.98427320277042,161.74993190588884Z" fill-rule="evenodd" style="fill: #AE497E; stroke: #fff; opacity: 1;" id="p-type-tokenTransfers"></path><path d="M-232.67799992398824,184.58046579032282A297,297,0,0,1,-234.41324028790265,182.3716885312137L-203.00782107274952,157.9385151990942A257.2095449239783,257.2095449239783,0,0,0,-201.50505883592749,159.8513724167841Z" fill-rule="evenodd" style="fill: #AE497E; stroke: #fff; opacity: 1;" id="p-type-tokenTransfers"></path><path d="M-234.41324028790265,182.3716885312137A297,297,0,0,1,-236.1275138197172,180.14659923884008L-204.4924255003362,156.01153134620995A257.2095449239783,257.2095449239783,0,0,0,-203.00782107274952,157.9385151990942Z" fill-rule="evenodd" style="fill: #AE497E; stroke: #fff; opacity: 1;" id="p-type-tokenTransfers"></path></g></svg>