<svg xmlns="http://www.w3.org/2000/svg" width="600" height="600" id="block-7914267"><g id="burst-container" transform="translate(300,300)"><data type="text/json">{"number":7914267,"totalTransactions":72,"totalFunctions":104,"totalFunctionsValue":"5.08399962","totalLogs":59,"totalTokenTransfers":59,"tokens":{"0x744d70fdbe2ba4cf95131626614a1763df805b9e":"7422.56","0x30680ac0a8a993088223925265fd7a76beb87e7f":"2138641","0xdbe29649c763d18b37c65c8fdd12ccbb241faafd":"1000","0x174bfa6600bf90c885c7c01c7031389ed1461ab9":"0.73038153","0x5dab189977f37a58d9f52f3473f49bf5506a9517":"3.2857e-14","0xae785cbf3c9670c3e5a5dd0053dec05a4aada688":"1.4085e-14","0x0d8775f648430679a709e98d2b0cb6250d2887ef":"7.33964347","0x048fe49be32adfc9ed68c37d32b5ec9df17b3603":"568.3","0x06012c8cf97bead5deae237070f9587f8e7a266d":"1.292973e-12","0xf9e5af7b42d31d51677c75bbbd37c1986ec79aee":"8.27e-8","0x1af97824a7ccd3963b9385e37ecbf44ece0c73e4":"32","0x9f8f72aa9304c8b593d555f12ef6589cc3a579a2":"10","0x6f259637dcd74c767781e37bc6133cd6a68aa161":"4027.5454","0x8e870d67f660d95d5be530380d0ec0bd388289e1":"2800000","0x9a07fd8a116b7e3be9e6185861496af7a2041460":"0.343537585362419153","0x7f4b2a690605a7cbb66f7aa6885ebd906a5e2e9e":"2.955e-7","0x931abd3732f7eada74190c8f89b46f8ba7103d54":"1588"},"totalEther":"26.401770774465786","totalEtherTxns":23,"newContracts":[],"totalNewContracts":0}</data><circle r="297" style="fill: #f9f9f9; stroke: #f9f9f9; stroke-width: 3; opacity: 1;" id="circle-base"></circle><path display="none" d="M9.093002483669097e-15,-148.5A148.5,148.5,0,1,1,-9.093002483669097e-15,148.5A148.5,148.5,0,1,1,9.093002483669097e-15,-148.5Z" fill-rule="evenodd" id="p-type-root" style="stroke: #fff; opacity: 1;"></path><path d="M1.2859447435097075e-14,-210.0107140124046A210.0107140124046,210.0107140124046,0,1,1,-162.85779529201307,-132.59652526602937L-115.15785142007303,-93.75990217738276A148.5,148.5,0,1,0,9.093002483669097e-15,-148.5Z" fill-rule="evenodd" style="fill: #4E4E4E; stroke: #fff; opacity: 1;" id="p-type-data"></path><path d="M-162.85779529201307,-132.59652526602937A210.0107140124046,210.0107140124046,0,0,1,-5.562847078918739,-209.93702563477592L-3.9335268922072175,-148.44789444848413A148.5,148.5,0,0,0,-115.15785142007303,-93.75990217738276Z" fill-rule="evenodd" style="fill: #3A86AD; stroke: #fff; opacity: 1;" id="p-type-value"></path><path d="M1.5749542295064867e-14,-257.2095449239783A257.2095449239783,257.2095449239783,0,0,1,256.72483254151916,-15.783230231132576L209.61494800939343,-12.88695351971487A210.0107140124046,210.0107140124046,0,0,0,1.2859447435097075e-14,-210.0107140124046Z" fill-rule="evenodd" style="fill: #6B0E12; stroke: #fff; opacity: 1;" id="p-type-functions"></path><path d="M256.72483254151916,-15.783230231132576A257.2095449239783,257.2095449239783,0,0,1,103.37218322310024,235.5226989818387L84.40303416469578,192.3034784495413A210.0107140124046,210.0107140124046,0,0,0,209.61494800939343,-12.88695351971487Z" fill-rule="evenodd" style="fill: #184B42; stroke: #fff; opacity: 1;" id="p-type-logs"></path><path d="M103.37218322310024,235.5226989818387A257.2095449239783,257.2095449239783,0,0,1,-154.85388593252256,205.3704555470365L-126.43766840727676,167.68427477772482A210.0107140124046,210.0107140124046,0,0,0,84.40303416469578,192.3034784495413Z" fill-rule="evenodd" style="fill: #AE497E; stroke: #fff; opacity: 1;" id="p-type-tokenTransfers"></path><path d="M-154.85388593252256,205.3704555470365A257.2095449239783,257.2095449239783,0,0,1,-247.8661821168566,68.69574777825237L-202.38189022602248,56.08984318521649A210.0107140124046,210.0107140124046,0,0,0,-126.43766840727676,167.68427477772482Z" fill-rule="evenodd" style="fill: #F09B24; stroke: #fff; opacity: 1;" id="p-type-ether"></path><path d="M-199.4592495500343,-162.39691428391475A257.2095449239783,257.2095449239783,0,0,1,-90.03878005431528,-240.93519478550792L-73.51635606525195,-196.72276276752288A210.0107140124046,210.0107140124046,0,0,0,-162.85779529201307,-132.59652526602937Z" fill-rule="evenodd" style="fill: #AE497E; stroke: #fff; opacity: 1;" id="p-type-tokenTransfers"></path><path d="M-90.03878005431528,-240.93519478550792A257.2095449239783,257.2095449239783,0,0,1,-13.621355733370672,-256.8486104069574L-11.121790383897432,-209.71601221331824A210.0107140124046,210.0107140124046,0,0,0,-73.51635606525195,-196.72276276752288Z" fill-rule="evenodd" style="fill: #F09B24; stroke: #fff; opacity: 1;" id="p-type-ether"></path><path d="M1.8186004967338195e-14,-297A297,297,0,0,1,4.530632365749082,-296.9654413738515L3.923642723946696,-257.17961627581377A257.2095449239783,257.2095449239783,0,0,0,1.5749542295064867e-14,-257.2095449239783Z" fill-rule="evenodd" style="fill: #6B0E12; stroke: #fff; opacity: 1;" id="p-type-functions"></path><path d="M4.530632365749082,-296.9654413738515A297,297,0,0,1,8.463649166516563,-296.87938062921467L7.329735186922333,-257.1050854846897A257.2095449239783,257.2095449239783,0,0,0,3.923642723946696,-257.17961627581377Z" fill-rule="evenodd" style="fill: #6B0E12; stroke: #fff; opacity: 1;" id="p-type-functions"></path><path d="M8.463649166516563,-296.87938062921467A297,297,0,0,1,12.395181043204165,-296.7412332098561L10.734541667922105,-256.9854463100579A257.2095449239783,257.2095449239783,0,0,0,7.329735186922333,-257.1050854846897Z" fill-rule="evenodd" style="fill: #6B0E12; stroke: #fff; opacity: 1;" id="p-type-functions"></path><path d="M12.395181043204165,-296.7412332098561A297,297,0,0,1,16.324538219305467,-296.5510233533623L14.137464802968518,-256.8207197422841A257.2095449239783,257.2095449239783,0,0,0,10.734541667922105,-256.9854463100579Z" fill-rule="evenodd" style="fill: #6B0E12; stroke: #fff; opacity: 1;" id="p-type-functions"></path><path d="M16.324538219305467,-296.5510233533623A297,297,0,0,1,20.251031299859246,-296.30878443153205L17.537907558511908,-256.6109346821937A257.2095449239783,257.2095449239783,0,0,0,14.137464802968518,-256.8207197422841Z" fill-rule="evenodd" style="fill: #6B0E12; stroke: #fff; opacity: 1;" id="p-type-functions"></path><path d="M20.251031299859246,-296.30878443153205A297,297,0,0,1,24.173971392402063,-296.014558944521L20.93527333617847,-256.35612793600137A257.2095449239783,257.2095449239783,0,0,0,17.537907558511908,-256.6109346821937Z" fill-rule="evenodd" style="fill: #6B0E12; stroke: #fff; opacity: 1;" id="p-type-functions"></path><path d="M24.173971392402063,-296.014558944521A297,297,0,0,1,28.092670227832308,-295.6683985133857L24.328966077441553,-256.05634420885315A257.2095449239783,257.2095449239783,0,0,0,20.93527333617847,-256.35612793600137Z" fill-rule="evenodd" style="fill: #6B0E12; stroke: #fff; opacity: 1;" id="p-type-functions"></path><path d="M28.092670227832308,-295.6683985133857A297,297,0,0,1,32.006440281165524,-295.2703638710262L27.718390368198897,-255.71163609698357A257.2095449239783,257.2095449239783,0,0,0,24.328966077441553,-256.05634420885315Z" fill-rule="evenodd" style="fill: #6B0E12; stroke: #fff; opacity: 1;" id="p-type-functions"></path><path d="M32.006440281165524,-295.2703638710262A297,297,0,0,1,35.914594892158576,-294.8205248515309L31.10295154323617,-255.32206407848716A257.2095449239783,257.2095449239783,0,0,0,27.718390368198897,-255.71163609698357Z" fill-rule="evenodd" style="fill: #6B0E12; stroke: #fff; opacity: 1;" id="p-type-functions"></path><path d="M35.914594892158576,-294.8205248515309A297,297,0,0,1,39.81644838578212,-294.3189603779246L34.482055790559215,-254.88769650270837A257.2095449239783,257.2095449239783,0,0,0,31.10295154323617,-255.32206407848716Z" fill-rule="evenodd" style="fill: #6B0E12; stroke: #fff; opacity: 1;" id="p-type-functions"></path><path d="M39.81644838578212,-294.3189603779246A297,297,0,0,1,43.711316192520805,-293.7657584483213L37.8551102555771,-254.40860957824935A257.2095449239783,257.2095449239783,0,0,0,34.482055790559215,-254.88769650270837Z" fill-rule="evenodd" style="fill: #6B0E12; stroke: #fff; opacity: 1;" id="p-type-functions"></path><path d="M43.711316192520805,-293.7657584483213A297,297,0,0,1,47.598514968478916,-293.1610161204854L41.2215231451166,-253.8848873595997A257.2095449239783,257.2095449239783,0,0,0,37.8551102555771,-254.40860957824935Z" fill-rule="evenodd" style="fill: #6B0E12; stroke: #fff; opacity: 1;" id="p-type-functions"></path><path d="M47.598514968478916,-293.1610161204854A297,297,0,0,1,51.47736271527102,-292.5048394948029L44.580703831250595,-253.31662173238914A257.2095449239783,257.2095449239783,0,0,0,41.2215231451166,-253.8848873595997Z" fill-rule="evenodd" style="fill: #6B0E12; stroke: #fff; opacity: 1;" id="p-type-functions"></path><path d="M51.47736271527102,-292.5048394948029A297,297,0,0,1,55.347178899677075,-291.7973436956669L47.9320629549224,-252.70391239726655A257.2095449239783,257.2095449239783,0,0,0,44.580703831250595,-253.31662173238914Z" fill-rule="evenodd" style="fill: #6B0E12; stroke: #fff; opacity: 1;" id="p-type-functions"></path><path d="M55.347178899677075,-291.7973436956669A297,297,0,0,1,59.20728457303987,-291.03865285127864L51.275012529347016,-252.04686685240765A257.2095449239783,257.2095449239783,0,0,0,47.9320629549224,-252.70391239726655Z" fill-rule="evenodd" style="fill: #6B0E12; stroke: #fff; opacity: 1;" id="p-type-functions"></path><path d="M59.20728457303987,-291.03865285127864A297,297,0,0,1,63.05700249038478,-290.2289000718702L54.60896604317184,-251.34560037465488A257.2095449239783,257.2095449239783,0,0,0,51.275012529347016,-252.04686685240765Z" fill-rule="evenodd" style="fill: #6B0E12; stroke: #fff; opacity: 1;" id="p-type-functions"></path><path d="M63.05700249038478,-290.2289000718702A297,297,0,0,1,66.89565722924063,-289.36822742635024L57.93333856337851,-250.60023599929224A257.2095449239783,257.2095449239783,0,0,0,54.60896604317184,-251.34560037465488Z" fill-rule="evenodd" style="fill: #6B0E12; stroke: #fff; opacity: 1;" id="p-type-functions"></path><path d="M66.89565722924063,-289.36822742635024A297,297,0,0,1,70.72257530814038,-288.4567859173786L61.24754683790764,-249.81090449845922A257.2095449239783,257.2095449239783,0,0,0,57.93333856337851,-250.60023599929224Z" fill-rule="evenodd" style="fill: #6B0E12; stroke: #fff; opacity: 1;" id="p-type-functions"></path><path d="M70.72257530814038,-288.4567859173786A297,297,0,0,1,74.53708530478211,-287.4947354548734L64.55100939798908,-248.9777443582071A257.2095449239783,257.2095449239783,0,0,0,61.24754683790764,-249.81090449845922Z" fill-rule="evenodd" style="fill: #6B0E12; stroke: #fff; opacity: 1;" id="p-type-functions"></path><path d="M74.53708530478211,-287.4947354548734A297,297,0,0,1,78.33851797382792,-286.48224482795484L67.84314666015882,-248.100901754202A257.2095449239783,257.2095449239783,0,0,0,64.55100939798908,-248.9777443582071Z" fill-rule="evenodd" style="fill: #6B0E12; stroke: #fff; opacity: 1;" id="p-type-functions"></path><path d="M78.33851797382792,-286.48224482795484A297,297,0,0,1,82.12620636432105,-285.41949167533204L71.12338102794527,-247.18053052607868A257.2095449239783,257.2095449239783,0,0,0,67.84314666015882,-248.100901754202Z" fill-rule="evenodd" style="fill: #6B0E12; stroke: #fff; opacity: 1;" id="p-type-functions"></path><path d="M82.12620636432105,-285.41949167533204A297,297,0,0,1,85.89948593670105,-284.3066624541368L74.39113699320725,-246.21679215044998A257.2095449239783,257.2095449239783,0,0,0,71.12338102794527,-247.18053052607868Z" fill-rule="evenodd" style="fill: #6B0E12; stroke: #fff; opacity: 1;" id="p-type-functions"></path><path d="M85.89948593670105,-284.3066624541368A297,297,0,0,1,89.65769467939504,-283.14395240720995L77.645841237105,-245.2098557125759A257.2095449239783,257.2095449239783,0,0,0,74.39113699320725,-246.21679215044998Z" fill-rule="evenodd" style="fill: #6B0E12; stroke: #fff; opacity: 1;" id="p-type-functions"></path><path d="M89.65769467939504,-283.14395240720995A297,297,0,0,1,93.40017322496597,-281.93156552884665L80.88692273068767,-244.15989787669832A257.2095449239783,257.2095449239783,0,0,0,77.645841237105,-245.2098557125759Z" fill-rule="evenodd" style="fill: #6B0E12; stroke: #fff; opacity: 1;" id="p-type-functions"></path><path d="M93.40017322496597,-281.93156552884665A297,297,0,0,1,97.12626496579688,-280.66971452900617L84.11381283507862,-243.0671028550457A257.2095449239783,257.2095449239783,0,0,0,80.88692273068767,-244.15989787669832Z" fill-rule="evenodd" style="fill: #6B0E12; stroke: #fff; opacity: 1;" id="p-type-functions"></path><path d="M97.12626496579688,-280.66971452900617A297,297,0,0,1,100.83531616929065,-279.3586207959926L87.32594540124147,-241.93166237551335A257.2095449239783,257.2095449239783,0,0,0,84.11381283507862,-243.0671028550457Z" fill-rule="evenodd" style="fill: #6B0E12; stroke: #fff; opacity: 1;" id="p-type-functions"></path><path d="M100.83531616929065,-279.3586207959926A297,297,0,0,1,104.52667609256605,-277.9985143576127L90.52275686930975,-240.7537756480256A257.2095449239783,257.2095449239783,0,0,0,87.32594540124147,-241.93166237551335Z" fill-rule="evenodd" style="fill: #6B0E12; stroke: #fff; opacity: 1;" id="p-type-functions"></path><path d="M104.52667609256605,-277.9985143576127A297,297,0,0,1,108.19969709662843,-276.5896338408181L93.70368636746159,-239.53364932958456A257.2095449239783,257.2095449239783,0,0,0,90.52275686930975,-240.7537756480256Z" fill-rule="evenodd" style="fill: #6B0E12; stroke: #fff; opacity: 1;" id="p-type-functions"></path><path d="M108.19969709662843,-276.5896338408181A297,297,0,0,1,111.85373475999623,-275.13222642983936L96.86817581032324,-238.27149748801327A257.2095449239783,257.2095449239783,0,0,0,93.70368636746159,-239.53364932958456Z" fill-rule="evenodd" style="fill: #6B0E12; stroke: #fff; opacity: 1;" id="p-type-functions"></path><path d="M111.85373475999623,-275.13222642983936A297,297,0,0,1,115.48814799176317,-273.6265478228175L100.01566999688372,-236.96754156439752A257.2095449239783,257.2095449239783,0,0,0,96.86817581032324,-238.27149748801327Z" fill-rule="evenodd" style="fill: #6B0E12; stroke: #fff; opacity: 1;" id="p-type-functions"></path><path d="M115.48814799176317,-273.6265478228175A297,297,0,0,1,119.10229914407579,-272.07286218694264L103.14561670790323,-235.62201033423494A257.2095449239783,257.2095449239783,0,0,0,100.01566999688372,-236.96754156439752Z" fill-rule="evenodd" style="fill: #6B0E12; stroke: #fff; opacity: 1;" id="p-type-functions"></path><path d="M119.10229914407579,-272.07286218694264A297,297,0,0,1,122.69555412400689,-270.4714421121071L106.25746680279852,-234.235139867297A257.2095449239783,257.2095449239783,0,0,0,103.14561670790323,-235.62201033423494Z" fill-rule="evenodd" style="fill: #6B0E12; stroke: #fff; opacity: 1;" id="p-type-functions"></path><path d="M122.69555412400689,-270.4714421121071A297,297,0,0,1,126.26728250480573,-268.82256856307947L109.35067431598819,-232.80717348621087A257.2095449239783,257.2095449239783,0,0,0,106.25746680279852,-234.235139867297Z" fill-rule="evenodd" style="fill: #6B0E12; stroke: #fff; opacity: 1;" id="p-type-functions"></path><path d="M126.26728250480573,-268.82256856307947A297,297,0,0,1,129.81685763650418,-267.12653083021087L112.42469655268053,-231.33836172376968A257.2095449239783,257.2095449239783,0,0,0,109.35067431598819,-232.80717348621087Z" fill-rule="evenodd" style="fill: #6B0E12; stroke: #fff; opacity: 1;" id="p-type-functions"></path><path d="M129.81685763650418,-267.12653083021087A297,297,0,0,1,133.34365675586125,-265.3836264786791L115.47899418408834,-229.82896227897672A257.2095449239783,257.2095449239783,0,0,0,112.42469655268053,-231.33836172376968Z" fill-rule="evenodd" style="fill: #6B0E12; stroke: #fff; opacity: 1;" id="p-type-functions"></path><path d="M133.34365675586125,-265.3836264786791A297,297,0,0,1,136.84706109562492,-263.5941612962819L118.51303134205233,-228.27923997183302A257.2095449239783,257.2095449239783,0,0,0,115.47899418408834,-229.82896227897672Z" fill-rule="evenodd" style="fill: #6B0E12; stroke: #fff; opacity: 1;" id="p-type-functions"></path><path d="M136.84706109562492,-263.5941612962819A297,297,0,0,1,140.32645599309313,-261.75844923978764L121.52627571305776,-226.6894666968756A257.2095449239783,257.2095449239783,0,0,0,118.51303134205233,-228.27923997183302Z" fill-rule="evenodd" style="fill: #6B0E12; stroke: #fff; opacity: 1;" id="p-type-functions"></path><path d="M140.32645599309313,-261.75844923978764A297,297,0,0,1,143.78123099795485,-259.8768123798519L124.5181986316275,-225.05992137547403A257.2095449239783,257.2095449239783,0,0,0,121.52627571305776,-226.6894666968756Z" fill-rule="evenodd" style="fill: #6B0E12; stroke: #fff; opacity: 1;" id="p-type-functions"></path><path d="M143.78123099795485,-259.8768123798519A297,297,0,0,1,147.21077997939184,-257.94958084451133L127.48827517307498,-223.3908899068946A257.2095449239783,257.2095449239783,0,0,0,124.5181986316275,-225.05992137547403Z" fill-rule="evenodd" style="fill: #6B0E12; stroke: #fff; opacity: 1;" id="p-type-functions"></path><path d="M147.21077997939184,-257.94958084451133A297,297,0,0,1,150.61450123242247,-255.97709276126372L130.4359842456005,-221.6826651181401A257.2095449239783,257.2095449239783,0,0,0,127.48827517307498,-223.3908899068946Z" fill-rule="evenodd" style="fill: #6B0E12; stroke: #fff; opacity: 1;" id="p-type-functions"></path><path d="M150.61450123242247,-255.97709276126372A297,297,0,0,1,153.9917975834695,-253.9596941977442L133.36080868171572,-219.935546712574A257.2095449239783,257.2095449239783,0,0,0,130.4359842456005,-221.6826651181401Z" fill-rule="evenodd" style="fill: #6B0E12; stroke: #fff; opacity: 1;" id="p-type-functions"></path><path d="M153.9917975834695,-253.9596941977442A297,297,0,0,1,157.34207649513246,-251.89773910100877L136.2622353289791,-218.14984121733832A257.2095449239783,257.2095449239783,0,0,0,133.36080868171572,-219.935546712574Z" fill-rule="evenodd" style="fill: #6B0E12; stroke: #fff; opacity: 1;" id="p-type-functions"></path><path d="M157.34207649513246,-251.89773910100877A297,297,0,0,1,160.66475017014645,-249.79158923543525L139.13975514002703,-216.32586192957447A257.2095449239783,257.2095449239783,0,0,0,136.2622353289791,-218.14984121733832Z" fill-rule="evenodd" style="fill: #6B0E12; stroke: #fff; opacity: 1;" id="p-type-functions"></path><path d="M160.66475017014645,-249.79158923543525A297,297,0,0,1,163.95923565451002,-247.64161411925267L141.992863261885,-214.46392886145594A257.2095449239783,257.2095449239783,0,0,0,139.13975514002703,-216.32586192957447Z" fill-rule="evenodd" style="fill: #6B0E12; stroke: #fff; opacity: 1;" id="p-type-functions"></path><path d="M163.95923565451002,-247.64161411925267A297,297,0,0,1,167.22495493976245,-245.44819095971033L144.82105912454233,-212.56436868404313A257.2095449239783,257.2095449239783,0,0,0,141.992863261885,-214.46392886145594Z" fill-rule="evenodd" style="fill: #6B0E12; stroke: #fff; opacity: 1;" id="p-type-functions"></path><path d="M167.22495493976245,-245.44819095971033A297,297,0,0,1,170.46133506439398,-243.21170458689772L147.62384652877628,-210.6275146699697A257.2095449239783,257.2095449239783,0,0,0,144.82105912454233,-212.56436868404313Z" fill-rule="evenodd" style="fill: #6B0E12; stroke: #fff; opacity: 1;" id="p-type-functions"></path><path d="M170.46133506439398,-243.21170458689772A297,297,0,0,1,173.66780821437027,-240.93254738622738L150.40073373320848,-208.65370663497097A257.2095449239783,257.2095449239783,0,0,0,147.62384652877628,-210.6275146699697Z" fill-rule="evenodd" style="fill: #6B0E12; stroke: #fff; opacity: 1;" id="p-type-functions"></path><path d="M173.66780821437027,-240.93254738622738A297,297,0,0,1,176.84381182275385,-238.6111192295917L153.15123354057968,-206.643290878264A257.2095449239783,257.2095449239783,0,0,0,150.40073373320848,-208.65370663497097Z" fill-rule="evenodd" style="fill: #6B0E12; stroke: #fff; opacity: 1;" id="p-type-functions"></path><path d="M176.84381182275385,-238.6111192295917A297,297,0,0,1,179.98878866840488,-236.2478274052066L155.87486338322734,-204.59662012179044A257.2095449239783,257.2095449239783,0,0,0,153.15123354057968,-206.643290878264Z" fill-rule="evenodd" style="fill: #6B0E12; stroke: #fff; opacity: 1;" id="p-type-functions"></path><path d="M179.98878866840488,-236.2478274052066A297,297,0,0,1,183.10218697374412,-233.84308654615398L158.57114540775052,-202.51405344833245A257.2095449239783,257.2095449239783,0,0,0,155.87486338322734,-204.59662012179044Z" fill-rule="evenodd" style="fill: #6B0E12; stroke: #fff; opacity: 1;" id="p-type-functions"></path><path d="M183.10218697374412,-233.84308654615398A297,297,0,0,1,186.18346050156077,-231.39731855763532L161.23960655884827,-200.3959562385125A257.2095449239783,257.2095449239783,0,0,0,158.57114540775052,-202.51405344833245Z" fill-rule="evenodd" style="fill: #6B0E12; stroke: #fff; opacity: 1;" id="p-type-functions"></path><path d="M186.18346050156077,-231.39731855763532A297,297,0,0,1,188.4730083422927,-229.53632637647155L163.22241315210192,-198.78428973338046A257.2095449239783,257.2095449239783,0,0,0,161.23960655884827,-200.3959562385125Z" fill-rule="evenodd" style="fill: #6B0E12; stroke: #fff; opacity: 1;" id="p-type-functions"></path><path d="M188.4730083422927,-229.53632637647155A297,297,0,0,1,189.9768312526513,-228.29324034495997L164.52476199526552,-197.70774565100186A257.2095449239783,257.2095449239783,0,0,0,163.22241315210192,-198.78428973338046Z" fill-rule="evenodd" style="fill: #6B0E12; stroke: #fff; opacity: 1;" id="p-type-functions"></path><path d="M296.4403023510154,-18.224904445252463A297,297,0,0,1,296.6556929555727,-14.296847101684957L256.9113662768023,-12.381432784081097A257.2095449239783,257.2095449239783,0,0,0,256.72483254151916,-15.783230231132576Z" fill-rule="evenodd" style="fill: #184B42; stroke: #fff; opacity: 1;" id="p-type-logs"></path><path d="M296.6556929555727,-14.296847101684957A297,297,0,0,1,296.81903613079834,-10.366281415426377L257.05282561608254,-8.97746304853775A257.2095449239783,257.2095449239783,0,0,0,256.9113662768023,-12.381432784081097Z" fill-rule="evenodd" style="fill: #184B42; stroke: #fff; opacity: 1;" id="p-type-logs"></path><path d="M296.81903613079834,-10.366281415426377A297,297,0,0,1,296.9303032185793,-6.433896993467744L257.14918574070595,-5.571918241675389A257.2095449239783,257.2095449239783,0,0,0,257.05282561608254,-8.97746304853775Z" fill-rule="evenodd" style="fill: #184B42; stroke: #fff; opacity: 1;" id="p-type-logs"></path><path d="M296.9303032185793,-6.433896993467744A297,297,0,0,1,296.98947469740955,-2.5003837618922824L257.2004297445524,-2.1653958570088174A257.2095449239783,257.2095449239783,0,0,0,257.14918574070595,-5.571918241675389Z" fill-rule="evenodd" style="fill: #184B42; stroke: #fff; opacity: 1;" id="p-type-logs"></path><path d="M296.98947469740955,-2.5003837618922824A297,297,0,0,1,296.9965401858151,1.4335681551702248L257.2065486370018,1.2415064404338068A257.2095449239783,257.2095449239783,0,0,0,257.2004297445524,-2.1653958570088174Z" fill-rule="evenodd" style="fill: #184B42; stroke: #fff; opacity: 1;" id="p-type-logs"></path><path d="M296.9965401858151,1.4335681551702248A297,297,0,0,1,296.95149844417534,5.367268556623829L257.16754134451105,4.648190918969672A257.2095449239783,257.2095449239783,0,0,0,257.2065486370018,1.2415064404338068Z" fill-rule="evenodd" style="fill: #184B42; stroke: #fff; opacity: 1;" id="p-type-logs"></path><path d="M296.95149844417534,5.367268556623829A297,297,0,0,1,296.8543573749406,9.300027285500304L257.08341471080297,8.054059885131698A257.2095449239783,257.2095449239783,0,0,0,257.16754134451105,4.648190918969672Z" fill-rule="evenodd" style="fill: #184B42; stroke: #fff; opacity: 1;" id="p-type-logs"></path><path d="M296.8543573749406,9.300027285500304A297,297,0,0,1,296.7051340212455,13.231154350045305L256.9541834956651,11.458515788532218A257.2095449239783,257.2095449239783,0,0,0,257.08341471080297,8.054059885131698Z" fill-rule="evenodd" style="fill: #184B42; stroke: #fff; opacity: 1;" id="p-type-logs"></path><path d="M296.7051340212455,13.231154350045305A297,297,0,0,1,296.5038545639191,17.15996004477552L256.7798703723605,14.860961326701554A257.2095449239783,257.2095449239783,0,0,0,256.9541834956651,11.458515788532218Z" fill-rule="evenodd" style="fill: #184B42; stroke: #fff; opacity: 1;" id="p-type-logs"></path><path d="M296.5038545639191,17.15996004477552A297,297,0,0,1,296.2505543168912,21.085755071485625L256.5605059236495,18.260799549883114A257.2095449239783,257.2095449239783,0,0,0,256.7798703723605,14.860961326701554Z" fill-rule="evenodd" style="fill: #184B42; stroke: #fff; opacity: 1;" id="p-type-logs"></path><path d="M296.2505543168912,21.085755071485625A297,297,0,0,1,295.94527772099684,25.007850660183752L256.2961286364241,21.657433965766575A257.2095449239783,257.2095449239783,0,0,0,256.5605059236495,18.260799549883114Z" fill-rule="evenodd" style="fill: #184B42; stroke: #fff; opacity: 1;" id="p-type-logs"></path><path d="M295.94527772099684,25.007850660183752A297,297,0,0,1,295.58807833617914,28.925558689934313L255.9867848949558,25.050268644140843A257.2095449239783,257.2095449239783,0,0,0,256.2961286364241,21.657433965766575Z" fill-rule="evenodd" style="fill: #184B42; stroke: #fff; opacity: 1;" id="p-type-logs"></path><path d="M295.58807833617914,28.925558689934313A297,297,0,0,1,295.1790188320924,32.83819180958693L255.63252897275729,28.438708321448367A257.2095449239783,257.2095449239783,0,0,0,255.9867848949558,25.050268644140843Z" fill-rule="evenodd" style="fill: #184B42; stroke: #fff; opacity: 1;" id="p-type-logs"></path><path d="M295.1790188320924,32.83819180958693A297,297,0,0,1,294.7181709771071,36.74506355837029L255.2334230230604,31.822158505222497A257.2095449239783,257.2095449239783,0,0,0,255.63252897275729,28.438708321448367Z" fill-rule="evenodd" style="fill: #184B42; stroke: #fff; opacity: 1;" id="p-type-logs"></path><path d="M294.7181709771071,36.74506355837029A297,297,0,0,1,294.2056156257178,40.64548848632987L254.78953706791165,35.20002557838957A257.2095449239783,257.2095449239783,0,0,0,255.2334230230604,31.822158505222497Z" fill-rule="evenodd" style="fill: #184B42; stroke: #fff; opacity: 1;" id="p-type-logs"></path><path d="M294.2056156257178,40.64548848632987A297,297,0,0,1,293.6414427043581,44.53878227458816L254.30094898588686,38.57171690341741A257.2095449239783,257.2095449239783,0,0,0,254.78953706791165,35.20002557838957Z" fill-rule="evenodd" style="fill: #184B42; stroke: #fff; opacity: 1;" id="p-type-logs"></path><path d="M293.6414427043581,44.53878227458816A297,297,0,0,1,293.0257511956228,48.42426185540664L253.76774449842767,41.93664092629193A257.2095449239783,257.2095449239783,0,0,0,254.30094898588686,38.57171690341741Z" fill-rule="evenodd" style="fill: #184B42; stroke: #fff; opacity: 1;" id="p-type-logs"></path><path d="M293.0257511956228,48.42426185540664A297,297,0,0,1,292.3586491209017,52.30124553202808L253.19001715480192,45.29420728030368A257.2095449239783,257.2095449239783,0,0,0,253.76774449842767,41.93664092629193Z" fill-rule="evenodd" style="fill: #184B42; stroke: #fff; opacity: 1;" id="p-type-logs"></path><path d="M292.3586491209017,52.30124553202808A297,297,0,0,1,291.640253521428,56.16905309827837L252.56786831569073,48.6438268896261A257.2095449239783,257.2095449239783,0,0,0,253.19001715480192,45.29420728030368Z" fill-rule="evenodd" style="fill: #184B42; stroke: #fff; opacity: 1;" id="p-type-logs"></path><path d="M291.640253521428,56.16905309827837A297,297,0,0,1,290.8706904377432,60.027005957906866L251.90140713540498,51.9849120726672A257.2095449239783,257.2095449239783,0,0,0,252.56786831569073,48.6438268896261Z" fill-rule="evenodd" style="fill: #184B42; stroke: #fff; opacity: 1;" id="p-type-logs"></path><path d="M290.8706904377432,60.027005957906866A297,297,0,0,1,290.05009488758384,63.87442724364423L251.19075054273455,55.31687664517674A257.2095449239783,257.2095449239783,0,0,0,251.90140713540498,51.9849120726672Z" fill-rule="evenodd" style="fill: #184B42; stroke: #fff; opacity: 1;" id="p-type-logs"></path><path d="M290.05009488758384,63.87442724364423A297,297,0,0,1,289.1786108421932,67.71064193595691L250.43602322043344,58.639136023090636A257.2095449239783,257.2095449239783,0,0,0,251.19075054273455,55.31687664517674Z" fill-rule="evenodd" style="fill: #184B42; stroke: #fff; opacity: 1;" id="p-type-logs"></path><path d="M289.1786108421932,67.71064193595691A297,297,0,0,1,288.2563912010616,71.53497698147754L249.6373575833445,61.95110732509462A257.2095449239783,257.2095449239783,0,0,0,250.43602322043344,58.639136023090636Z" fill-rule="evenodd" style="fill: #184B42; stroke: #fff; opacity: 1;" id="p-type-logs"></path><path d="M288.2563912010616,71.53497698147754A297,297,0,0,1,287.2835977651008,75.34676141109023L248.7948937551677,65.25220947488918A257.2095449239783,257.2095449239783,0,0,0,249.6373575833445,61.95110732509462Z" fill-rule="evenodd" style="fill: #184B42; stroke: #fff; opacity: 1;" id="p-type-logs"></path><path d="M287.2835977651008,75.34676141109023A297,297,0,0,1,286.26040120825644,79.14532645765033L247.9087795438757,68.54186330313783A257.2095449239783,257.2095449239783,0,0,0,248.7948937551677,65.25220947488918Z" fill-rule="evenodd" style="fill: #184B42; stroke: #fff; opacity: 1;" id="p-type-logs"></path><path d="M286.26040120825644,79.14532645765033A297,297,0,0,1,285.18698104756373,82.9300056733177L246.97917041578145,71.81949164908075A257.2095449239783,257.2095449239783,0,0,0,247.9087795438757,68.54186330313783Z" fill-rule="evenodd" style="fill: #184B42; stroke: #fff; opacity: 1;" id="p-type-logs"></path><path d="M285.18698104756373,82.9300056733177A297,297,0,0,1,284.0635256116518,86.7001350464833L246.00622946826198,75.08451946179606A257.2095449239783,257.2095449239783,0,0,0,246.97917041578145,71.81949164908075Z" fill-rule="evenodd" style="fill: #184B42; stroke: #fff; opacity: 1;" id="p-type-logs"></path><path d="M284.0635256116518,86.7001350464833A297,297,0,0,1,282.8902320077017,90.45505311826808L244.9901274011434,78.33637390109097A257.2095449239783,257.2095449239783,0,0,0,246.00622946826198,75.08451946179606Z" fill-rule="evenodd" style="fill: #184B42; stroke: #fff; opacity: 1;" id="p-type-logs"></path><path d="M282.8902320077017,90.45505311826808A297,297,0,0,1,281.66730608686476,94.19410109857422L243.93104248675215,81.57448443800499A257.2095449239783,257.2095449239783,0,0,0,244.9901274011434,78.33637390109097Z" fill-rule="evenodd" style="fill: #184B42; stroke: #fff; opacity: 1;" id="p-type-logs"></path><path d="M281.66730608686476,94.19410109857422A297,297,0,0,1,280.3949624081465,97.91662298166797L242.82916053863758,84.79828295490766A257.2095449239783,257.2095449239783,0,0,0,243.93104248675215,81.57448443800499Z" fill-rule="evenodd" style="fill: #184B42; stroke: #fff; opacity: 1;" id="p-type-logs"></path><path d="M280.3949624081465,97.91662298166797A297,297,0,0,1,279.07342420076264,101.62196566127412L241.6846748789714,88.00720384517328A257.2095449239783,257.2095449239783,0,0,0,242.82916053863758,84.79828295490766Z" fill-rule="evenodd" style="fill: #184B42; stroke: #fff; opacity: 1;" id="p-type-logs"></path><path d="M279.07342420076264,101.62196566127412A297,297,0,0,1,277.70292332497445,105.3094790451617L240.49778630463,91.20068411241503A257.2095449239783,257.2095449239783,0,0,0,241.6846748789714,88.00720384517328Z" fill-rule="evenodd" style="fill: #184B42; stroke: #fff; opacity: 1;" id="p-type-logs"></path><path d="M277.70292332497445,105.3094790451617A297,297,0,0,1,276.2837002314093,108.97851616920084L239.26870305196505,94.37816346926114A257.2095449239783,257.2095449239783,0,0,0,240.49778630463,91.20068411241503Z" fill-rule="evenodd" style="fill: #184B42; stroke: #fff; opacity: 1;" id="p-type-logs"></path><path d="M276.2837002314093,108.97851616920084A297,297,0,0,1,274.81600391887423,112.62843331087093L237.99764076026895,97.53908443565572A257.2095449239783,257.2095449239783,0,0,0,239.26870305196505,94.37816346926114Z" fill-rule="evenodd" style="fill: #184B42; stroke: #fff; opacity: 1;" id="p-type-logs"></path><path d="M274.81600391887423,112.62843331087093A297,297,0,0,1,273.30009189067,116.2585901021999L236.68482243394166,100.68289243666722A257.2095449239783,257.2095449239783,0,0,0,237.99764076026895,97.53908443565572Z" fill-rule="evenodd" style="fill: #184B42; stroke: #fff; opacity: 1;" id="p-type-logs"></path><path d="M273.30009189067,116.2585901021999A297,297,0,0,1,271.7362301094126,119.8683496421151L235.3304784033652,103.809035899787A257.2095449239783,257.2095449239783,0,0,0,236.68482243394166,100.68289243666722Z" fill-rule="evenodd" style="fill: #184B42; stroke: #fff; opacity: 1;" id="p-type-logs"></path><path d="M271.7362301094126,119.8683496421151A297,297,0,0,1,270.12469295037107,123.45707860818574L233.9348462844926,106.91696635170123A257.2095449239783,257.2095449239783,0,0,0,235.3304784033652,103.809035899787Z" fill-rule="evenodd" style="fill: #184B42; stroke: #fff; opacity: 1;" id="p-type-logs"></path><path d="M270.12469295037107,123.45707860818574A297,297,0,0,1,268.4657631533288,127.02414736773771L232.49817093715907,110.0061385145191A257.2095449239783,257.2095449239783,0,0,0,233.9348462844926,106.91696635170123Z" fill-rule="evenodd" style="fill: #184B42; stroke: #fff; opacity: 1;" id="p-type-logs"></path><path d="M268.4657631533288,127.02414736773771A297,297,0,0,1,266.759731772978,130.56893008832088L231.02070442212184,113.07601040144023A257.2095449239783,257.2095449239783,0,0,0,232.49817093715907,110.0061385145191Z" fill-rule="evenodd" style="fill: #184B42; stroke: #fff; opacity: 1;" id="p-type-logs"></path><path d="M266.759731772978,130.56893008832088A297,297,0,0,1,265.00689812785464,134.09080484750953L229.5027059568369,116.1260434118448A257.2095449239783,257.2095449239783,0,0,0,231.02070442212184,113.07601040144023Z" fill-rule="evenodd" style="fill: #184B42; stroke: #fff; opacity: 1;" id="p-type-logs"></path><path d="M265.00689812785464,134.09080484750953A297,297,0,0,1,263.20756974782387,137.58915374201715L227.94444186997998,119.1557024257896A257.2095449239783,257.2095449239783,0,0,0,229.5027059568369,116.1260434118448Z" fill-rule="evenodd" style="fill: #184B42; stroke: #fff; opacity: 1;" id="p-type-logs"></path><path d="M263.20756974782387,137.58915374201715A297,297,0,0,1,261.362062320125,141.06336299610575L226.34618555471988,122.16445589789332A257.2095449239783,257.2095449239783,0,0,0,227.94444186997998,119.1557024257896Z" fill-rule="evenodd" style="fill: #184B42; stroke: #fff; opacity: 1;" id="p-type-logs"></path><path d="M261.362062320125,141.06336299610575A297,297,0,0,1,259.4706996339847,144.51282306927123L224.7082174207524,125.15177595059478A257.2095449239783,257.2095449239783,0,0,0,226.34618555471988,122.16445589789332Z" fill-rule="evenodd" style="fill: #184B42; stroke: #fff; opacity: 1;" id="p-type-logs"></path><path d="M259.4706996339847,144.51282306927123A297,297,0,0,1,257.5338135238093,147.93692876318553L223.03082484510327,128.11713846676747A257.2095449239783,257.2095449239783,0,0,0,224.7082174207524,125.15177595059478Z" fill-rule="evenodd" style="fill: #184B42; stroke: #fff; opacity: 1;" id="p-type-logs"></path><path d="M257.5338135238093,147.93692876318553A297,297,0,0,1,255.55174381096518,151.33507932787697L221.31430212170855,131.06002318167472A257.2095449239783,257.2095449239783,0,0,0,223.03082484510327,128.11713846676747Z" fill-rule="evenodd" style="fill: #184B42; stroke: #fff; opacity: 1;" id="p-type-logs"></path><path d="M255.55174381096518,151.33507932787697A297,297,0,0,1,253.52483824415827,154.70667856713033L219.5589504097817,133.97991377424842A257.2095449239783,257.2095449239783,0,0,0,221.31430212170855,131.06002318167472Z" fill-rule="evenodd" style="fill: #184B42; stroke: #fff; opacity: 1;" id="p-type-logs"></path><path d="M119.36391562115247,271.9581873148635A297,297,0,0,1,115.75126042888144,273.5153482149133L100.24353205147976,236.87123987906162A257.2095449239783,257.2095449239783,0,0,0,103.37218322310024,235.5226989818387Z" fill-rule="evenodd" style="fill: #AE497E; stroke: #fff; opacity: 1;" id="p-type-tokenTransfers"></path><path d="M115.75126042888144,273.5153482149133A297,297,0,0,1,112.11829699479912,275.024521595777L97.09729342654454,238.17822236560488A257.2095449239783,257.2095449239783,0,0,0,100.24353205147976,236.87123987906162Z" fill-rule="evenodd" style="fill: #AE497E; stroke: #fff; opacity: 1;" id="p-type-tokenTransfers"></path><path d="M112.11829699479912,275.024521595777A297,297,0,0,1,108.46566271239604,276.4854426771159L93.93401934724952,239.44341713496857A257.2095449239783,257.2095449239783,0,0,0,97.09729342654454,238.17822236560488Z" fill-rule="evenodd" style="fill: #AE497E; stroke: #fff; opacity: 1;" id="p-type-tokenTransfers"></path><path d="M108.46566271239604,276.4854426771159A297,297,0,0,1,104.79399842635911,277.89785514432504L90.75426480137348,240.6666022121935A257.2095449239783,257.2095449239783,0,0,0,93.93401934724952,239.44341713496857Z" fill-rule="evenodd" style="fill: #AE497E; stroke: #fff; opacity: 1;" id="p-type-tokenTransfers"></path><path d="M104.79399842635911,277.89785514432504A297,297,0,0,1,101.10394832013739,279.261511193503L87.55858766814801,241.84756299280596A257.2095449239783,257.2095449239783,0,0,0,90.75426480137348,240.6666022121935Z" fill-rule="evenodd" style="fill: #AE497E; stroke: #fff; opacity: 1;" id="p-type-tokenTransfers"></path><path d="M101.10394832013739,279.261511193503A297,297,0,0,1,97.39615980292167,280.57617157492854L84.34754862037896,242.98609228046945A257.2095449239783,257.2095449239783,0,0,0,87.55858766814801,241.84756299280596Z" fill-rule="evenodd" style="fill: #AE497E; stroke: #fff; opacity: 1;" id="p-type-tokenTransfers"></path><path d="M97.39615980292167,280.57617157492854A297,297,0,0,1,93.67128339605848,281.8416056350363L81.12171102607813,244.0819903233368A257.2095449239783,257.2095449239783,0,0,0,84.34754862037896,242.98609228046945Z" fill-rule="evenodd" style="fill: #AE497E; stroke: #fff; opacity: 1;" id="p-type-tokenTransfers"></path><path d="M93.67128339605848,281.8416056350363A297,297,0,0,1,89.92997261891777,283.05759135688396L77.88164084962177,245.13506484909607A257.2095449239783,257.2095449239783,0,0,0,81.12171102607813,244.0819903233368Z" fill-rule="evenodd" style="fill: #AE497E; stroke: #fff; opacity: 1;" id="p-type-tokenTransfers"></path><path d="M89.92997261891777,283.05759135688396A297,297,0,0,1,86.17288387423477,284.2239153991051L74.62790655245371,246.14513109870413A257.2095449239783,257.2095449239783,0,0,0,77.88164084962177,245.13506484909607Z" fill-rule="evenodd" style="fill: #AE497E; stroke: #fff; opacity: 1;" id="p-type-tokenTransfers"></path><path d="M86.17288387423477,284.2239153991051A297,297,0,0,1,82.40067633294596,285.3403731333389L71.36107899335036,247.11201185880222A257.2095449239783,257.2095449239783,0,0,0,74.62790655245371,246.14513109870413Z" fill-rule="evenodd" style="fill: #AE497E; stroke: #fff; opacity: 1;" id="p-type-tokenTransfers"></path><path d="M82.40067633294596,285.3403731333389A297,297,0,0,1,78.61401181853927,286.40676868013185L68.0817313282651,248.03553749280752A257.2095449239783,257.2095449239783,0,0,0,71.36107899335036,247.11201185880222Z" fill-rule="evenodd" style="fill: #AE497E; stroke: #fff; opacity: 1;" id="p-type-tokenTransfers"></path><path d="M78.61401181853927,286.40676868013185A297,297,0,0,1,74.81355469093901,287.4229149433042L64.79043890976965,248.9155459706754A257.2095449239783,257.2095449239783,0,0,0,68.0817313282651,248.03553749280752Z" fill-rule="evenodd" style="fill: #AE497E; stroke: #fff; opacity: 1;" id="p-type-tokenTransfers"></path><path d="M74.81355469093901,287.4229149433042A297,297,0,0,1,70.99997172994571,288.38863364277535L61.48777918610997,249.75188289732708A257.2095449239783,257.2095449239783,0,0,0,64.79043890976965,248.9155459706754Z" fill-rule="evenodd" style="fill: #AE497E; stroke: #fff; opacity: 1;" id="p-type-tokenTransfers"></path><path d="M70.99997172994571,288.38863364277535A297,297,0,0,1,67.17393201825146,289.30375534584294L58.17433159989466,250.54440153973806A257.2095449239783,257.2095449239783,0,0,0,61.48777918610997,249.75188289732708Z" fill-rule="evenodd" style="fill: #AE497E; stroke: #fff; opacity: 1;" id="p-type-tokenTransfers"></path><path d="M67.17393201825146,289.30375534584294A297,297,0,0,1,63.33610682405114,290.1681194969089L54.85067748643323,251.29296285268177A257.2095449239783,257.2095449239783,0,0,0,58.17433159989466,250.54440153973806Z" fill-rule="evenodd" style="fill: #AE497E; stroke: #fff; opacity: 1;" id="p-type-tokenTransfers"></path><path d="M63.33610682405114,290.1681194969089A297,297,0,0,1,59.48716948327029,290.98157444564885L51.51739997174249,251.99743550312473A257.2095449239783,257.2095449239783,0,0,0,54.85067748643323,251.29296285268177Z" fill-rule="evenodd" style="fill: #AE497E; stroke: #fff; opacity: 1;" id="p-type-tokenTransfers"></path><path d="M59.48716948327029,290.98157444564885A297,297,0,0,1,55.627795281430146,291.74397747361866L48.17508387023864,252.65769589326877A257.2095449239783,257.2095449239783,0,0,0,51.51739997174249,251.99743550312473Z" fill-rule="evenodd" style="fill: #AE497E; stroke: #fff; opacity: 1;" id="p-type-tokenTransfers"></path><path d="M55.627795281430146,291.74397747361866A297,297,0,0,1,51.75866133517068,292.4551948192938L44.824315582133195,253.2736281822356A257.2095449239783,257.2095449239783,0,0,0,48.17508387023864,252.65769589326877Z" fill-rule="evenodd" style="fill: #AE497E; stroke: #fff; opacity: 1;" id="p-type-tokenTransfers"></path><path d="M51.75866133517068,292.4551948192938A297,297,0,0,1,47.880446473452245,293.1151017015378L41.46568299055068,253.8451243063911A257.2095449239783,257.2095449239783,0,0,0,44.824315582133195,253.2736281822356Z" fill-rule="evenodd" style="fill: #AE497E; stroke: #fff; opacity: 1;" id="p-type-tokenTransfers"></path><path d="M47.880446473452245,293.1151017015378A297,297,0,0,1,43.993831118457024,293.7235823414945L38.09977535838615,254.37208399830456A257.2095449239783,257.2095449239783,0,0,0,41.46568299055068,253.8451243063911Z" fill-rule="evenodd" style="fill: #AE497E; stroke: #fff; opacity: 1;" id="p-type-tokenTransfers"></path><path d="M43.993831118457024,293.7235823414945A297,297,0,0,1,40.0994971662107,294.28052998290093L34.72718322492057,254.85441480434042A257.2095449239783,257.2095449239783,0,0,0,38.09977535838615,254.37208399830456Z" fill-rule="evenodd" style="fill: #AE497E; stroke: #fff; opacity: 1;" id="p-type-tokenTransfers"></path><path d="M40.0994971662107,294.28052998290093A297,297,0,0,1,36.19812786694574,294.785846910818L31.348498302212427,255.2920321008789A257.2095449239783,257.2095449239783,0,0,0,34.72718322492057,254.85441480434042Z" fill-rule="evenodd" style="fill: #AE497E; stroke: #fff; opacity: 1;" id="p-type-tokenTransfers"></path><path d="M36.19812786694574,294.785846910818A297,297,0,0,1,32.29040770522699,295.2394444687739L27.964313371283353,255.68485910916326A257.2095449239783,257.2095449239783,0,0,0,31.348498302212427,255.2920321008789Z" fill-rule="evenodd" style="fill: #AE497E; stroke: #fff; opacity: 1;" id="p-type-tokenTransfers"></path><path d="M32.29040770522699,295.2394444687739A297,297,0,0,1,28.37702227986073,295.64124307431854L24.5752221781164,256.03282690877006A257.2095449239783,257.2095449239783,0,0,0,27.964313371283353,255.68485910916326Z" fill-rule="evenodd" style="fill: #AE497E; stroke: #fff; opacity: 1;" id="p-type-tokenTransfers"></path><path d="M28.37702227986073,295.64124307431854A297,297,0,0,1,24.458658183608225,295.9911722329864L21.181819329484878,256.33587444970135A257.2095449239783,257.2095449239783,0,0,0,24.5752221781164,256.03282690877006Z" fill-rule="evenodd" style="fill: #AE497E; stroke: #fff; opacity: 1;" id="p-type-tokenTransfers"></path><path d="M24.458658183608225,295.9911722329864A297,297,0,0,1,20.536002882724937,296.28917055066444L17.78470018863026,256.5939485630956A257.2095449239783,257.2095449239783,0,0,0,21.181819329484878,256.33587444970135Z" fill-rule="evenodd" style="fill: #AE497E; stroke: #fff; opacity: 1;" id="p-type-tokenTransfers"></path><path d="M20.536002882724937,296.28917055066444A297,297,0,0,1,16.609744596346424,296.53518574436345L14.38446077080731,256.8070039705559A257.2095449239783,257.2095449239783,0,0,0,17.78470018863026,256.5939485630956Z" fill-rule="evenodd" style="fill: #AE497E; stroke: #fff; opacity: 1;" id="p-type-tokenTransfers"></path><path d="M16.609744596346424,296.53518574436345A297,297,0,0,1,12.680572175742194,296.72917465139113L10.981697638714852,256.97500329209424A257.2095449239783,257.2095449239783,0,0,0,14.38446077080731,256.8070039705559Z" fill-rule="evenodd" style="fill: #AE497E; stroke: #fff; opacity: 1;" id="p-type-tokenTransfers"></path><path d="M12.680572175742194,296.72917465139113A297,297,0,0,1,8.749174983458623,296.87110323692474L7.577007797830464,257.0979170526895A257.2095449239783,257.2095449239783,0,0,0,10.981697638714852,256.97500329209424Z" fill-rule="evenodd" style="fill: #AE497E; stroke: #fff; opacity: 1;" id="p-type-tokenTransfers"></path><path d="M8.749174983458623,296.87110323692474A297,297,0,0,1,4.816242772372192,296.9609465999824L4.170988591667512,257.17572368745886A257.2095449239783,257.2095449239783,0,0,0,7.577007797830464,257.0979170526895Z" fill-rule="evenodd" style="fill: #AE497E; stroke: #fff; opacity: 1;" id="p-type-tokenTransfers"></path><path d="M4.816242772372192,296.9609465999824A297,297,0,0,1,0.8824655646742289,296.9986889777919L0.7642375969728618,257.20840954544116A257.2095449239783,257.2095449239783,0,0,0,4.170988591667512,257.17572368745886Z" fill-rule="evenodd" style="fill: #AE497E; stroke: #fff; opacity: 1;" id="p-type-tokenTransfers"></path><path d="M0.8824655646742289,296.9986889777919A297,297,0,0,1,-3.0514664691915976,296.98432374855645L-2.6426474811163287,257.1959688919921A257.2095449239783,257.2095449239783,0,0,0,0.7642375969728618,257.20840954544116Z" fill-rule="evenodd" style="fill: #AE497E; stroke: #fff; opacity: 1;" id="p-type-tokenTransfers"></path><path d="M-3.0514664691915976,296.98432374855645A297,297,0,0,1,-6.984863131617789,296.9178534326162L-6.049068913938335,257.1384039097902A257.2095449239783,257.2095449239783,0,0,0,-2.6426474811163287,257.1959688919921Z" fill-rule="evenodd" style="fill: #AE497E; stroke: #fff; opacity: 1;" id="p-type-tokenTransfers"></path><path d="M-6.984863131617789,296.9178534326162A297,297,0,0,1,-10.917034318926305,296.79928969200614L-9.454429054176728,257.0357246984542A257.2095449239783,257.2095449239783,0,0,0,-6.049068913938335,257.1384039097902Z" fill-rule="evenodd" style="fill: #AE497E; stroke: #fff; opacity: 1;" id="p-type-tokenTransfers"></path><path d="M-10.917034318926305,296.79928969200614A297,297,0,0,1,-14.847290142445353,296.62865332841L-12.858130440715952,256.8879492727706A257.2095449239783,257.2095449239783,0,0,0,-9.454429054176728,257.0357246984542Z" fill-rule="evenodd" style="fill: #AE497E; stroke: #fff; opacity: 1;" id="p-type-tokenTransfers"></path><path d="M-14.847290142445353,296.62865332841A297,297,0,0,1,-18.77494104954848,296.40597427951076L-16.259575903464256,256.6951035595332A257.2095449239783,257.2095449239783,0,0,0,-12.858130440715952,256.8879492727706Z" fill-rule="evenodd" style="fill: #AE497E; stroke: #fff; opacity: 1;" id="p-type-tokenTransfers"></path><path d="M-18.77494104954848,296.40597427951076A297,297,0,0,1,-22.699297944634687,296.131291613738L-19.658168668125533,256.45722139299477A257.2095449239783,257.2095449239783,0,0,0,-16.259575903464256,256.6951035595332Z" fill-rule="evenodd" style="fill: #AE497E; stroke: #fff; opacity: 1;" id="p-type-tokenTransfers"></path><path d="M-22.699297944634687,296.131291613738A297,297,0,0,1,-26.619672310028367,295.8046535234135L-23.053312460901758,256.1743445089302A257.2095449239783,257.2095449239783,0,0,0,-19.658168668125533,256.45722139299477Z" fill-rule="evenodd" style="fill: #AE497E; stroke: #fff; opacity: 1;" id="p-type-tokenTransfers"></path><path d="M-26.619672310028367,295.8046535234135A297,297,0,0,1,-30.53537632677785,295.4261173162963L-26.444411613107576,255.84652253731443A257.2095449239783,257.2095449239783,0,0,0,-23.053312460901758,256.1743445089302Z" fill-rule="evenodd" style="fill: #AE497E; stroke: #fff; opacity: 1;" id="p-type-tokenTransfers"></path><path d="M-30.53537632677785,295.4261173162963A297,297,0,0,1,-34.445722995331344,294.9957494055277L-29.83087116567875,255.4738129936152A257.2095449239783,257.2095449239783,0,0,0,-26.444411613107576,255.84652253731443Z" fill-rule="evenodd" style="fill: #AE497E; stroke: #fff; opacity: 1;" id="p-type-tokenTransfers"></path><path d="M-178.809865456403,237.14137558735516A297,297,0,0,1,-235.88084241309758,180.4694660669428L-204.27880179581638,156.2911422213862A257.2095449239783,257.2095449239783,0,0,0,-154.85388593252256,205.3704555470365Z" fill-rule="evenodd" style="fill: #F09B24; stroke: #fff; opacity: 1;" id="p-type-ether"></path><path d="M-235.88084241309758,180.4694660669428A297,297,0,0,1,-238.60639489169625,176.85018608072738L-206.63919948163047,153.15675380991505A257.2095449239783,257.2095449239783,0,0,0,-204.27880179581638,156.2911422213862Z" fill-rule="evenodd" style="fill: #F09B24; stroke: #fff; opacity: 1;" id="p-type-ether"></path><path d="M-238.60639489169625,176.85018608072738A297,297,0,0,1,-241.17250894977238,173.33441933693365L-208.86151944493278,150.11201049600916A257.2095449239783,257.2095449239783,0,0,0,-206.63919948163047,153.15675380991505Z" fill-rule="evenodd" style="fill: #F09B24; stroke: #fff; opacity: 1;" id="p-type-ether"></path><path d="M-241.17250894977238,173.33441933693365A297,297,0,0,1,-243.44722924436755,170.1247970556919L-210.83148500655622,147.33239606390126A257.2095449239783,257.2095449239783,0,0,0,-208.86151944493278,150.11201049600916Z" fill-rule="evenodd" style="fill: #F09B24; stroke: #fff; opacity: 1;" id="p-type-ether"></path><path d="M-243.44722924436755,170.1247970556919A297,297,0,0,1,-245.12526116119386,167.6979616472917L-212.2847032748889,145.2306949494231A257.2095449239783,257.2095449239783,0,0,0,-210.83148500655622,147.33239606390126Z" fill-rule="evenodd" style="fill: #F09B24; stroke: #fff; opacity: 1;" id="p-type-ether"></path><path d="M-245.12526116119386,167.6979616472917A297,297,0,0,1,-246.41752524139866,165.79325454886475L-213.4038367967444,143.58117021541682A257.2095449239783,257.2095449239783,0,0,0,-212.2847032748889,145.2306949494231Z" fill-rule="evenodd" style="fill: #F09B24; stroke: #fff; opacity: 1;" id="p-type-ether"></path><path d="M-246.41752524139866,165.79325454886475A297,297,0,0,1,-247.50135135492943,164.17088986018126L-214.342457744347,142.1761611808141A257.2095449239783,257.2095449239783,0,0,0,-213.4038367967444,143.58117021541682Z" fill-rule="evenodd" style="fill: #F09B24; stroke: #fff; opacity: 1;" id="p-type-ether"></path></g></svg>