<svg xmlns="http://www.w3.org/2000/svg" width="600" height="600" id="block-7914251"><g id="burst-container" transform="translate(300,300)"><data type="text/json">{"number":7914251,"totalTransactions":70,"totalFunctions":0,"totalFunctionsValue":"0","totalLogs":93,"totalTokenTransfers":93,"tokens":{"0x89d24a6b4ccb1b6faa2625fe562bdd9a23260359":"2480.765041242","0x174bfa6600bf90c885c7c01c7031389ed1461ab9":"5.71068007","0x0d8775f648430679a709e98d2b0cb6250d2887ef":"20.51169515","0x1af97824a7ccd3963b9385e37ecbf44ece0c73e4":"75","0x9f8f72aa9304c8b593d555f12ef6589cc3a579a2":"12.4","0x05f02507c7134dbae420ab8c0ef56e999b59da03":"5.6409e-14","0xc02aaa39b223fe8d0a0e5c4f27ead9083c756cc2":"3.689553995139352488","0x6f259637dcd74c767781e37bc6133cd6a68aa161":"4036.8408","0xed314bf44013612e8c00abd3cb6eade61cc8c72e":"7777","0xe019070ca3ee26f0fed7ced235a69992014c3181":"0","0x55370c60fca4929867f8e0e59acfc6198bdca274":"1.087962844874545815","0x693d04b55963b62ef2bb7f8f28b03b25023286ce":"0.010989523685601472","0x06a6a7af298129e3a2ab396c9c06f91d3c54aba8":"1.10479e-13","0xf970b8e36e23f7fc3fd752eea86f8be8d83375a6":"57412.900340559622803365","0x0000000000085d4780b73119b644ae5ecd22b376":"1902.64047792","0x06012c8cf97bead5deae237070f9587f8e7a266d":"8.10471e-13","0xbadb19c3997b590222e2c917ca8824dcc93368bd":"0.5"},"totalEther":"55.235476679568054299","totalEtherTxns":38,"newContracts":["0xcfffd533b8d4cc284ddf428127c11b3342785fbb","0xbae6a39f8a5f9abd90b96ea8cd1b9ee911f2dc0e"],"totalNewContracts":2}</data><circle r="297" style="fill: #f9f9f9; stroke: #f9f9f9; stroke-width: 3; opacity: 1;" id="circle-base"></circle><path display="none" d="M9.093002483669097e-15,-148.5A148.5,148.5,0,1,1,-9.093002483669097e-15,148.5A148.5,148.5,0,1,1,9.093002483669097e-15,-148.5Z" fill-rule="evenodd" id="p-type-root" style="stroke: #fff; opacity: 1;"></path><path d="M1.2859447435097075e-14,-210.0107140124046A210.0107140124046,210.0107140124046,0,1,1,-185.12041602181034,-99.17122350718407L-130.8999015050969,-70.1246446404966A148.5,148.5,0,1,0,9.093002483669097e-15,-148.5Z" fill-rule="evenodd" style="fill: #4E4E4E; stroke: #fff; opacity: 1;" id="p-type-data"></path><path d="M-185.12041602181034,-99.17122350718407A210.0107140124046,210.0107140124046,0,0,1,-6.762986936044427,-209.90179133990947L-4.782153923553046,-148.4229800396537A148.5,148.5,0,0,0,-130.8999015050969,-70.1246446404966Z" fill-rule="evenodd" style="fill: #3A86AD; stroke: #fff; opacity: 1;" id="p-type-value"></path><path d="M1.5749542295064867e-14,-257.2095449239783A257.2095449239783,257.2095449239783,0,0,1,256.5921144080391,-17.81114324269467L209.5065841071798,-14.542737560074167A210.0107140124046,210.0107140124046,0,0,0,1.2859447435097075e-14,-210.0107140124046Z" fill-rule="evenodd" style="fill: #F09B24; stroke: #fff; opacity: 1;" id="p-type-ether"></path><path d="M256.5921144080391,-17.81114324269467A257.2095449239783,257.2095449239783,0,0,1,40.92520354861741,253.93282126283762L33.415288771217355,207.33528034643825A210.0107140124046,210.0107140124046,0,0,0,209.5065841071798,-14.542737560074167Z" fill-rule="evenodd" style="fill: #AE497E; stroke: #fff; opacity: 1;" id="p-type-tokenTransfers"></path><path d="M40.92520354861741,253.93282126283762A257.2095449239783,257.2095449239783,0,0,1,-206.99665227218603,152.67329808485735L-169.0120588437253,124.65722588524555A210.0107140124046,210.0107140124046,0,0,0,33.415288771217355,207.33528034643825Z" fill-rule="evenodd" style="fill: #184B42; stroke: #fff; opacity: 1;" id="p-type-logs"></path><path d="M-226.7252801125896,-121.4594473800527A257.2095449239783,257.2095449239783,0,0,1,-115.80394955312059,-229.665398499422L-94.55352886804982,-187.52101263218174A210.0107140124046,210.0107140124046,0,0,0,-185.12041602181034,-99.17122350718407Z" fill-rule="evenodd" style="fill: #F09B24; stroke: #fff; opacity: 1;" id="p-type-ether"></path><path d="M-115.80394955312059,-229.665398499422A257.2095449239783,257.2095449239783,0,0,1,-16.557275194865312,-256.6760733650909L-13.518958586086974,-209.57513630855084A210.0107140124046,210.0107140124046,0,0,0,-94.55352886804982,-187.52101263218174Z" fill-rule="evenodd" style="fill: #AE497E; stroke: #fff; opacity: 1;" id="p-type-tokenTransfers"></path><path d="M1.8186004967338195e-14,-297A297,297,0,0,1,94.02330125050476,-281.724366752251L81.4265674306143,-243.98045847253346A257.2095449239783,257.2095449239783,0,0,0,1.5749542295064867e-14,-257.2095449239783Z" fill-rule="evenodd" style="fill: #F09B24; stroke: #fff; opacity: 1;" id="p-type-ether"></path><path d="M94.02330125050476,-281.724366752251A297,297,0,0,1,178.36713254024315,-237.4745586991822L154.47046798003657,-205.65900058599064A257.2095449239783,257.2095449239783,0,0,0,81.4265674306143,-243.98045847253346Z" fill-rule="evenodd" style="fill: #F09B24; stroke: #fff; opacity: 1;" id="p-type-ether"></path><path d="M178.36713254024315,-237.4745586991822A297,297,0,0,1,196.5964576455581,-222.6181323280255L170.25752661508477,-192.7929579391159A257.2095449239783,257.2095449239783,0,0,0,154.47046798003657,-205.65900058599064Z" fill-rule="evenodd" style="fill: #F09B24; stroke: #fff; opacity: 1;" id="p-type-ether"></path><path d="M196.5964576455581,-222.6181323280255A297,297,0,0,1,205.3975034284934,-214.52474352703945L177.87945584297663,-185.78387763475746A257.2095449239783,257.2095449239783,0,0,0,170.25752661508477,-192.7929579391159Z" fill-rule="evenodd" style="fill: #F09B24; stroke: #fff; opacity: 1;" id="p-type-ether"></path><path d="M205.3975034284934,-214.52474352703945A297,297,0,0,1,208.84296358788328,-211.17200704598625L180.86331186873542,-182.88032266997055A257.2095449239783,257.2095449239783,0,0,0,177.87945584297663,-185.78387763475746Z" fill-rule="evenodd" style="fill: #F09B24; stroke: #fff; opacity: 1;" id="p-type-ether"></path><path d="M208.84296358788328,-211.17200704598625A297,297,0,0,1,212.2175137106603,-207.7804776066936L183.78575800140425,-179.94317201786035A257.2095449239783,257.2095449239783,0,0,0,180.86331186873542,-182.88032266997055Z" fill-rule="evenodd" style="fill: #F09B24; stroke: #fff; opacity: 1;" id="p-type-ether"></path><path d="M212.2175137106603,-207.7804776066936A297,297,0,0,1,215.536021052836,-204.33605562580345L186.65966966237357,-176.96021508105596A257.2095449239783,257.2095449239783,0,0,0,183.78575800140425,-179.94317201786035Z" fill-rule="evenodd" style="fill: #F09B24; stroke: #fff; opacity: 1;" id="p-type-ether"></path><path d="M215.536021052836,-204.33605562580345A297,297,0,0,1,217.3610441420698,-202.39361770932692L188.2401860201432,-175.27801450011316A257.2095449239783,257.2095449239783,0,0,0,186.65966966237357,-176.96021508105596Z" fill-rule="evenodd" style="fill: #F09B24; stroke: #fff; opacity: 1;" id="p-type-ether"></path><path d="M217.3610441420698,-202.39361770932692A297,297,0,0,1,218.98486602704727,-200.6355612824311L189.6464570237548,-173.75549297313486A257.2095449239783,257.2095449239783,0,0,0,188.2401860201432,-175.27801450011316Z" fill-rule="evenodd" style="fill: #F09B24; stroke: #fff; opacity: 1;" id="p-type-ether"></path><path d="M218.98486602704727,-200.6355612824311A297,297,0,0,1,220.59329832532617,-198.86577567282322L191.03940025433172,-172.22281367596233A257.2095449239783,257.2095449239783,0,0,0,189.6464570237548,-173.75549297313486Z" fill-rule="evenodd" style="fill: #F09B24; stroke: #fff; opacity: 1;" id="p-type-ether"></path><path d="M220.59329832532617,-198.86577567282322A297,297,0,0,1,221.97754138986178,-197.3194646214919L192.23818991323202,-170.8836690233568A257.2095449239783,257.2095449239783,0,0,0,191.03940025433172,-172.22281367596233Z" fill-rule="evenodd" style="fill: #F09B24; stroke: #fff; opacity: 1;" id="p-type-ether"></path><path d="M221.97754138986178,-197.3194646214919A297,297,0,0,1,223.1493407119858,-195.99329513992583L193.2529978943288,-169.73517256259694A257.2095449239783,257.2095449239783,0,0,0,192.23818991323202,-170.8836690233568Z" fill-rule="evenodd" style="fill: #F09B24; stroke: #fff; opacity: 1;" id="p-type-ether"></path><path d="M296.28705265083323,-20.5665366914895A297,297,0,0,1,287.5589762961963,74.28886290342308L249.03337855875324,64.33604249262378A257.2095449239783,257.2095449239783,0,0,0,256.5921144080391,-17.81114324269467Z" fill-rule="evenodd" style="fill: #AE497E; stroke: #fff; opacity: 1;" id="p-type-tokenTransfers"></path><path d="M287.5589762961963,74.28886290342308A297,297,0,0,1,249.2559974831066,161.494420085344L215.86202586600044,139.8582703633438A257.2095449239783,257.2095449239783,0,0,0,249.03337855875324,64.33604249262378Z" fill-rule="evenodd" style="fill: #AE497E; stroke: #fff; opacity: 1;" id="p-type-tokenTransfers"></path><path d="M249.2559974831066,161.494420085344A297,297,0,0,1,235.6975708878386,180.70875761172255L204.12008399915177,156.49837477807628A257.2095449239783,257.2095449239783,0,0,0,215.86202586600044,139.8582703633438Z" fill-rule="evenodd" style="fill: #AE497E; stroke: #fff; opacity: 1;" id="p-type-tokenTransfers"></path><path d="M235.6975708878386,180.70875761172255A297,297,0,0,1,232.75694305840042,184.48090811275986L201.57342559578282,159.76515293887277A257.2095449239783,257.2095449239783,0,0,0,204.12008399915177,156.49837477807628Z" fill-rule="evenodd" style="fill: #AE497E; stroke: #fff; opacity: 1;" id="p-type-tokenTransfers"></path><path d="M232.75694305840042,184.48090811275986A297,297,0,0,1,229.75595127977945,188.20521472988895L198.9744904789488,162.99049708078908A257.2095449239783,257.2095449239783,0,0,0,201.57342559578282,159.76515293887277Z" fill-rule="evenodd" style="fill: #AE497E; stroke: #fff; opacity: 1;" id="p-type-tokenTransfers"></path><path d="M229.75595127977945,188.20521472988895A297,297,0,0,1,226.69537383902843,191.88071158921403L196.32395266500887,166.1735707324945A257.2095449239783,257.2095449239783,0,0,0,198.9744904789488,162.99049708078908Z" fill-rule="evenodd" style="fill: #AE497E; stroke: #fff; opacity: 1;" id="p-type-tokenTransfers"></path><path d="M226.69537383902843,191.88071158921403A297,297,0,0,1,223.5760044763413,195.50644547532193L193.62249955313493,169.31354838522603A257.2095449239783,257.2095449239783,0,0,0,196.32395266500887,166.1735707324945Z" fill-rule="evenodd" style="fill: #AE497E; stroke: #fff; opacity: 1;" id="p-type-tokenTransfers"></path><path d="M223.5760044763413,195.50644547532193A297,297,0,0,1,220.3986521792017,199.08147607849224L190.8708317470392,172.4096157068783A257.2095449239783,257.2095449239783,0,0,0,193.62249955313493,169.31354838522603Z" fill-rule="evenodd" style="fill: #AE497E; stroke: #fff; opacity: 1;" id="p-type-tokenTransfers"></path><path d="M220.3986521792017,199.08147607849224A297,297,0,0,1,217.16414097257788,202.60487623856025L188.06966287327754,175.46096975319537A257.2095449239783,257.2095449239783,0,0,0,190.8708317470392,172.4096157068783Z" fill-rule="evenodd" style="fill: #AE497E; stroke: #fff; opacity: 1;" id="p-type-tokenTransfers"></path><path d="M217.16414097257788,202.60487623856025A297,297,0,0,1,213.87330970521714,206.07573218536982L185.21971939617498,178.46681917600873A257.2095449239783,257.2095449239783,0,0,0,188.06966287327754,175.46096975319537Z" fill-rule="evenodd" style="fill: #AE497E; stroke: #fff; opacity: 1;" id="p-type-tokenTransfers"></path><path d="M213.87330970521714,206.07573218536982A297,297,0,0,1,210.5270118320961,209.49314377575337L182.32174042942233,181.42638442846828A257.2095449239783,257.2095449239783,0,0,0,185.21971939617498,178.46681917600873Z" fill-rule="evenodd" style="fill: #AE497E; stroke: #fff; opacity: 1;" id="p-type-tokenTransfers"></path><path d="M210.5270118320961,209.49314377575337A297,297,0,0,1,207.1261151930828,212.85622472697807L179.3764775443917,184.3388979672124A257.2095449239783,257.2095449239783,0,0,0,182.32174042942233,181.42638442846828Z" fill-rule="evenodd" style="fill: #AE497E; stroke: #fff; opacity: 1;" id="p-type-tokenTransfers"></path><path d="M207.1261151930828,212.85622472697807A297,297,0,0,1,203.67150178786844,216.16410284659733L176.3846945752218,187.20360445142538A257.2095449239783,257.2095449239783,0,0,0,179.3764775443917,184.3388979672124Z" fill-rule="evenodd" style="fill: #AE497E; stroke: #fff; opacity: 1;" id="p-type-tokenTransfers"></path><path d="M203.67150178786844,216.16410284659733A297,297,0,0,1,200.16406754722655,219.41592025864787L173.34716742072254,190.01976093872972A257.2095449239783,257.2095449239783,0,0,0,176.3846945752218,187.20360445142538Z" fill-rule="evenodd" style="fill: #AE497E; stroke: #fff; opacity: 1;" id="p-type-tokenTransfers"></path><path d="M200.16406754722655,219.41592025864787A297,297,0,0,1,196.6047221006594,222.6108336261344L170.26468384315092,192.78663707786353A257.2095449239783,257.2095449239783,0,0,0,173.34716742072254,190.01976093872972Z" fill-rule="evenodd" style="fill: #AE497E; stroke: #fff; opacity: 1;" id="p-type-tokenTransfers"></path><path d="M196.6047221006594,222.6108336261344A297,297,0,0,1,192.99438854049168,225.7480143697431L167.13804326391016,195.50351529809203A257.2095449239783,257.2095449239783,0,0,0,170.26468384315092,192.78663707786353Z" fill-rule="evenodd" style="fill: #AE497E; stroke: #fff; opacity: 1;" id="p-type-tokenTransfers"></path><path d="M192.99438854049168,225.7480143697431A297,297,0,0,1,189.3340031824728,228.82664888272822L163.9680565562252,198.16969099530468A257.2095449239783,257.2095449239783,0,0,0,167.13804326391016,195.50351529809203Z" fill-rule="evenodd" style="fill: #AE497E; stroke: #fff; opacity: 1;" id="p-type-tokenTransfers"></path><path d="M189.3340031824728,228.82664888272822A297,297,0,0,1,185.62451532294952,231.8459387419156L160.75554583484808,200.78447271474968A257.2095449239783,257.2095449239783,0,0,0,163.9680565562252,198.16969099530468Z" fill-rule="evenodd" style="fill: #AE497E; stroke: #fff; opacity: 1;" id="p-type-tokenTransfers"></path><path d="M185.62451532294952,231.8459387419156A297,297,0,0,1,181.8668869926725,234.80510091476825L157.5013442428481,203.34718233035804A257.2095449239783,257.2095449239783,0,0,0,160.75554583484808,200.78447271474968Z" fill-rule="evenodd" style="fill: #AE497E; stroke: #fff; opacity: 1;" id="p-type-tokenTransfers"></path><path d="M181.8668869926725,234.80510091476825A297,297,0,0,1,178.0620927073,237.7033679624605L154.20629573554163,205.85715522061088A257.2095449239783,257.2095449239783,0,0,0,157.5013442428481,203.34718233035804Z" fill-rule="evenodd" style="fill: #AE497E; stroke: #fff; opacity: 1;" id="p-type-tokenTransfers"></path><path d="M178.0620927073,237.7033679624605A297,297,0,0,1,174.21111921466374,240.53998823890842L150.87125486161816,208.3137404409048A257.2095449239783,257.2095449239783,0,0,0,154.20629573554163,205.85715522061088Z" fill-rule="evenodd" style="fill: #AE497E; stroke: #fff; opacity: 1;" id="p-type-tokenTransfers"></path><path d="M174.21111921466374,240.53998823890842A297,297,0,0,1,170.3149652388627,243.3142260857038L147.4970865415187,210.71630089236984A257.2095449239783,257.2095449239783,0,0,0,150.87125486161816,208.3137404409048Z" fill-rule="evenodd" style="fill: #AE497E; stroke: #fff; opacity: 1;" id="p-type-tokenTransfers"></path><path d="M170.3149652388627,243.3142260857038A297,297,0,0,1,166.37464122125036,246.02536202290247L144.08466584312447,213.06421348709682A257.2095449239783,257.2095449239783,0,0,0,147.4970865415187,210.71630089236984Z" fill-rule="evenodd" style="fill: #AE497E; stroke: #fff; opacity: 1;" id="p-type-tokenTransfers"></path><path d="M166.37464122125036,246.02536202290247A297,297,0,0,1,162.39116905838398,248.6726929356164L140.63487775481403,215.3568693097309A257.2095449239783,257.2095449239783,0,0,0,144.08466584312447,213.06421348709682Z" fill-rule="evenodd" style="fill: #AE497E; stroke: #fff; opacity: 1;" id="p-type-tokenTransfers"></path><path d="M162.39116905838398,248.6726929356164A297,297,0,0,1,158.36558183700217,251.255532256362L137.14861695594738,217.59367377538996A257.2095449239783,257.2095449239783,0,0,0,140.63487775481403,215.3568693097309Z" fill-rule="evenodd" style="fill: #AE497E; stroke: #fff; opacity: 1;" id="p-type-tokenTransfers"></path><path d="M47.25635457086897,293.21636542436084A297,297,0,0,1,42.52838284849165,293.93934179060165L36.830659928664176,254.5589371623379A257.2095449239783,257.2095449239783,0,0,0,40.92520354861741,253.93282126283762Z" fill-rule="evenodd" style="fill: #184B42; stroke: #fff; opacity: 1;" id="p-type-logs"></path><path d="M42.52838284849165,293.93934179060165A297,297,0,0,1,37.78938167579005,294.5860869636607L32.72656452454034,255.11903491198203A257.2095449239783,257.2095449239783,0,0,0,36.830659928664176,254.5589371623379Z" fill-rule="evenodd" style="fill: #184B42; stroke: #fff; opacity: 1;" id="p-type-logs"></path><path d="M37.78938167579005,294.5860869636607A297,297,0,0,1,33.04058008087482,295.1564332145232L28.613981705811696,255.61296925418216A257.2095449239783,257.2095449239783,0,0,0,32.72656452454034,255.11903491198203Z" fill-rule="evenodd" style="fill: #184B42; stroke: #fff; opacity: 1;" id="p-type-logs"></path><path d="M33.04058008087482,295.1564332145232A297,297,0,0,1,28.283209633530248,295.6502326277214L24.493978043197956,256.04061209038565A257.2095449239783,257.2095449239783,0,0,0,28.613981705811696,255.61296925418216Z" fill-rule="evenodd" style="fill: #184B42; stroke: #fff; opacity: 1;" id="p-type-logs"></path><path d="M28.283209633530248,295.6502326277214A297,297,0,0,1,23.51850412581493,296.06735713969556L20.36762203196486,256.4018525142964A257.2095449239783,257.2095449239783,0,0,0,24.493978043197956,256.04061209038565Z" fill-rule="evenodd" style="fill: #184B42; stroke: #fff; opacity: 1;" id="p-type-logs"></path><path d="M23.51850412581493,296.06735713969556A297,297,0,0,1,18.74769925208607,296.40769857200627L16.235983814817057,256.69659684063794A257.2095449239783,257.2095449239783,0,0,0,20.36762203196486,256.4018525142964Z" fill-rule="evenodd" style="fill: #184B42; stroke: #fff; opacity: 1;" id="p-type-logs"></path><path d="M18.74769925208607,296.40769857200627A297,297,0,0,1,13.972032288530471,296.67116865939005L12.100134904363816,256.9247686294496A257.2095449239783,257.2095449239783,0,0,0,16.235983814817057,256.69659684063794Z" fill-rule="evenodd" style="fill: #184B42; stroke: #fff; opacity: 1;" id="p-type-logs"></path><path d="M13.972032288530471,296.67116865939005A297,297,0,0,1,9.192741772285261,296.8576990726501L7.961147905229419,257.08630870591116A257.2095449239783,257.2095449239783,0,0,0,12.100134904363816,256.9247686294496Z" fill-rule="evenodd" style="fill: #184B42; stroke: #fff; opacity: 1;" id="p-type-logs"></path><path d="M9.192741772285261,296.8576990726501A297,297,0,0,1,4.411067180231607,296.9672414363771L3.8200962358803627,257.18117517568936A257.2095449239783,257.2095449239783,0,0,0,7.961147905229419,257.08630870591116Z" fill-rule="evenodd" style="fill: #184B42; stroke: #fff; opacity: 1;" id="p-type-logs"></path><path d="M4.411067180231607,296.9672414363771A297,297,0,0,1,-0.3717513924552786,296.9997673414951L-0.32194614975851,257.2093434358026A257.2095449239783,257.2095449239783,0,0,0,3.8200962358803627,257.18117517568936Z" fill-rule="evenodd" style="fill: #184B42; stroke: #fff; opacity: 1;" id="p-type-logs"></path><path d="M-0.3717513924552786,296.9997673414951A297,297,0,0,1,-5.154473553916498,296.9552683526291L-4.463905040826745,257.170806181002A257.2095449239783,257.2095449239783,0,0,0,-0.32194614975851,257.2093434358026Z" fill-rule="evenodd" style="fill: #184B42; stroke: #fff; opacity: 1;" id="p-type-logs"></path><path d="M-5.154473553916498,296.9552683526291A297,297,0,0,1,-9.935858937296752,296.833756010293L-8.604706248117644,257.06557340566553A257.2095449239783,257.2095449239783,0,0,0,-4.463905040826745,257.170806181002Z" fill-rule="evenodd" style="fill: #184B42; stroke: #fff; opacity: 1;" id="p-type-logs"></path><path d="M-9.935858937296752,296.833756010293A297,297,0,0,1,-14.71466752242516,296.6352618278961L-12.743275882662013,256.8936724012064A257.2095449239783,257.2095449239783,0,0,0,-8.604706248117644,257.06557340566553Z" fill-rule="evenodd" style="fill: #184B42; stroke: #fff; opacity: 1;" id="p-type-logs"></path><path d="M-14.71466752242516,296.6352618278961A297,297,0,0,1,-19.489659957406147,296.35983728357104L-16.878540634234067,256.65514774899515A257.2095449239783,257.2095449239783,0,0,0,-12.743275882662013,256.8936724012064Z" fill-rule="evenodd" style="fill: #184B42; stroke: #fff; opacity: 1;" id="p-type-logs"></path><path d="M-19.489659957406147,296.35983728357104A297,297,0,0,1,-24.25959788003704,296.00755380682244L-21.009428049707193,256.35006130879736A257.2095449239783,257.2095449239783,0,0,0,-16.878540634234067,256.65514774899515Z" fill-rule="evenodd" style="fill: #184B42; stroke: #fff; opacity: 1;" id="p-type-logs"></path><path d="M-24.25959788003704,296.00755380682244A297,297,0,0,1,-29.023244238968985,295.57850276000306L-25.134866811187496,255.97849220273147A257.2095449239783,257.2095449239783,0,0,0,-21.009428049707193,256.35006130879736Z" fill-rule="evenodd" style="fill: #184B42; stroke: #fff; opacity: 1;" id="p-type-logs"></path><path d="M-29.023244238968985,295.57850276000306A297,297,0,0,1,-33.77936361452788,295.07279541461884L-29.253787013852886,255.54053679474836A257.2095449239783,257.2095449239783,0,0,0,-25.134866811187496,255.97849220273147Z" fill-rule="evenodd" style="fill: #184B42; stroke: #fff; opacity: 1;" id="p-type-logs"></path><path d="M-33.77936361452788,295.07279541461884A297,297,0,0,1,-38.526722539112214,294.49056292247167L-33.36512044342569,255.03630866564018A257.2095449239783,257.2095449239783,0,0,0,-29.253787013852886,255.54053679474836Z" fill-rule="evenodd" style="fill: #184B42; stroke: #fff; opacity: 1;" id="p-type-logs"></path><path d="M-38.526722539112214,294.49056292247167A297,297,0,0,1,-43.26408981708454,293.83195628164617L-37.46780085320686,254.46593858358418A257.2095449239783,257.2095449239783,0,0,0,-33.36512044342569,255.03630866564018Z" fill-rule="evenodd" style="fill: #184B42; stroke: #fff; opacity: 1;" id="p-type-logs"></path><path d="M-43.26408981708454,293.83195628164617A297,297,0,0,1,-47.990236844073834,293.0971462973492L-41.56076424059989,253.8295744702285A257.2095449239783,257.2095449239783,0,0,0,-37.46780085320686,254.46593858358418Z" fill-rule="evenodd" style="fill: #184B42; stroke: #fff; opacity: 1;" id="p-type-logs"></path><path d="M-47.990236844073834,293.0971462973492A297,297,0,0,1,-52.70393792560577,292.28632353761253L-45.64294912305273,253.12738136232997A257.2095449239783,257.2095449239783,0,0,0,-41.56076424059989,253.8295744702285Z" fill-rule="evenodd" style="fill: #184B42; stroke: #fff; opacity: 1;" id="p-type-logs"></path><path d="M-52.70393792560577,292.28632353761253A297,297,0,0,1,-57.40397059497836,291.3996982838707L-49.713296813346176,252.3595413689527A257.2095449239783,257.2095449239783,0,0,0,-45.64294912305273,253.12738136232997Z" fill-rule="evenodd" style="fill: #184B42; stroke: #fff; opacity: 1;" id="p-type-logs"></path><path d="M-57.40397059497836,291.3996982838707A297,297,0,0,1,-62.089115930300444,290.43750047642556L-53.77075169415726,251.52625362423956A257.2095449239783,257.2095449239783,0,0,0,-49.713296813346176,252.3595413689527Z" fill-rule="evenodd" style="fill: #184B42; stroke: #fff; opacity: 1;" id="p-type-logs"></path><path d="M-62.089115930300444,290.43750047642556A297,297,0,0,1,-66.75815887061091,289.39997965481314L-57.81426149182652,250.6277342357679A257.2095449239783,257.2095449239783,0,0,0,-53.77075169415726,251.52625362423956Z" fill-rule="evenodd" style="fill: #184B42; stroke: #fff; opacity: 1;" id="p-type-logs"></path><path d="M-66.75815887061091,289.39997965481314A297,297,0,0,1,-71.40988853099662,288.2874048930869L-61.8427775492581,249.66421622850356A257.2095449239783,257.2095449239783,0,0,0,-57.81426149182652,250.6277342357679Z" fill-rule="evenodd" style="fill: #184B42; stroke: #fff; opacity: 1;" id="p-type-logs"></path><path d="M-71.40988853099662,288.2874048930869A297,297,0,0,1,-76.04309851662724,287.1000647300354L-65.85525509788195,248.6359494843674A257.2095449239783,257.2095449239783,0,0,0,-61.8427775492581,249.66421622850356Z" fill-rule="evenodd" style="fill: #184B42; stroke: #fff; opacity: 1;" id="p-type-logs"></path><path d="M-76.04309851662724,287.1000647300354A297,297,0,0,1,-80.65658723562561,285.8382670943517L-69.85065352860747,247.54320067743012A257.2095449239783,257.2095449239783,0,0,0,-65.85525509788195,248.6359494843674Z" fill-rule="evenodd" style="fill: #184B42; stroke: #fff; opacity: 1;" id="p-type-logs"></path><path d="M-80.65658723562561,285.8382670943517A297,297,0,0,1,-85.24915821069258,284.50233922477383L-73.82793666169854,246.3862532047521A257.2095449239783,257.2095449239783,0,0,0,-69.85065352860747,247.54320067743012Z" fill-rule="evenodd" style="fill: #184B42; stroke: #fff; opacity: 1;" id="p-type-logs"></path><path d="M-85.24915821069258,284.50233922477383A297,297,0,0,1,-89.81962038940537,283.0926275852183L-77.78607301549978,245.1654071128864A257.2095449239783,257.2095449239783,0,0,0,-73.82793666169854,246.3862532047521Z" fill-rule="evenodd" style="fill: #184B42; stroke: #fff; opacity: 1;" id="p-type-logs"></path><path d="M-89.81962038940537,283.0926275852183A297,297,0,0,1,-94.36678845310891,281.60949777492624L-81.72403607394435,243.8809790200635A257.2095449239783,257.2095449239783,0,0,0,-77.78607301549978,245.1654071128864Z" fill-rule="evenodd" style="fill: #184B42; stroke: #fff; opacity: 1;" id="p-type-logs"></path><path d="M-94.36678845310891,281.60949777492624A297,297,0,0,1,-98.88948312432036,280.0533344336481L-85.64080455277397,242.53330203407856A257.2095449239783,257.2095449239783,0,0,0,-81.72403607394435,243.8809790200635Z" fill-rule="evenodd" style="fill: #184B42; stroke: #fff; opacity: 1;" id="p-type-logs"></path><path d="M-98.88948312432036,280.0533344336481A297,297,0,0,1,-103.38653147256679,278.4245411418899L-89.53536266440223,241.12272566590227A257.2095449239783,257.2095449239783,0,0,0,-85.64080455277397,242.53330203407856Z" fill-rule="evenodd" style="fill: #184B42; stroke: #fff; opacity: 1;" id="p-type-logs"></path><path d="M-103.38653147256679,278.4245411418899A297,297,0,0,1,-107.85676721857676,276.7235403162473L-93.40670038135215,239.64961573903747A257.2095449239783,257.2095449239783,0,0,0,-89.53536266440223,241.12272566590227Z" fill-rule="evenodd" style="fill: #184B42; stroke: #fff; opacity: 1;" id="p-type-logs"></path><path d="M-107.85676721857676,276.7235403162473A297,297,0,0,1,-112.29903103674712,274.9507730998546L-97.25381369820013,238.11435429464512A257.2095449239783,257.2095449239783,0,0,0,-93.40670038135215,239.64961573903747Z" fill-rule="evenodd" style="fill: #184B42; stroke: #fff; opacity: 1;" id="p-type-logs"></path></g></svg>